<svg width="48" height="48" viewBox="0 0 48 48" fill="none" xmlns="http://www.w3.org/2000/svg">
<g clip-path="url(#clip0_987_11)">
<path d="M38.2992 0H9.69479C4.33746 0 0 4.338 0 9.696V38.31C0 43.662 4.33746 48 9.69479 48H38.3052C43.6565 48 48 43.662 48 38.304V9.696C47.994 4.338 43.6565 0 38.2992 0Z" fill="url(#paint0_linear_987_11)"/>
<path d="M23.7938 11.0277L24.7657 9.3477C25.3656 8.2977 26.7034 7.9437 27.7533 8.5437C28.8032 9.1437 29.1571 10.4817 28.5572 11.5317L19.1924 27.7437H25.9655C28.1613 27.7437 29.3911 30.3237 28.4372 32.1117H8.57972C7.36788 32.1117 6.396 31.1397 6.396 29.9277C6.396 28.7157 7.36788 27.7437 8.57972 27.7437H14.147L21.2741 15.3897L19.0484 11.5257C18.4485 10.4757 18.8024 9.1497 19.8523 8.5377C20.9022 7.9377 22.228 8.2917 22.8399 9.3417L23.7938 11.0277ZM15.3709 34.3617L13.2711 38.0037C12.6712 39.0537 11.3334 39.4077 10.2835 38.8077C9.23364 38.2077 8.87969 36.8697 9.47961 35.8197L11.0394 33.1197C12.8032 32.5737 14.237 32.9937 15.3709 34.3617ZM33.4526 27.7557H39.1339C40.3457 27.7557 41.3176 28.7277 41.3176 29.9397C41.3176 31.1517 40.3457 32.1237 39.1339 32.1237H35.9783L38.108 35.8197C38.7079 36.8697 38.354 38.1957 37.3041 38.8077C36.2542 39.4077 34.9284 39.0537 34.3165 38.0037C30.7289 31.7817 28.0353 27.1257 26.2475 24.0237C24.4177 20.8677 25.7256 17.6997 27.0154 16.6257C28.4492 19.0857 30.591 22.7997 33.4526 27.7557Z" fill="white"/>
</g>
<defs>
<linearGradient id="paint0_linear_987_11" x1="23.997" y1="0" x2="23.997" y2="48" gradientUnits="userSpaceOnUse">
<stop stop-color="#0ED4FC"/>
<stop offset="1" stop-color="#0C57EF"/>
</linearGradient>
<clipPath id="clip0_987_11">
<rect width="48" height="48" fill="white"/>
</clipPath>
</defs>
</svg>
