<svg width="98" height="98" viewBox="0 0 98 98" fill="none" xmlns="http://www.w3.org/2000/svg">
<path d="M46.2193 37.7378H53.0507V61.4416H46.2193V37.7378ZM17.2562 54.5326C17.2562 46.3455 6.85592 47.8196 6.85592 44.7203L6.86 44.7285C6.86 43.6587 7.75017 43.2422 9.17525 43.2258C11.5389 43.276 13.8578 43.8802 15.9454 44.9898V38.5218C13.7957 37.6735 11.5025 37.2479 9.19158 37.2683C3.675 37.2683 0 40.1756 0 45.0348C0 52.6461 10.339 51.4088 10.339 54.6918C10.339 55.9577 9.25283 56.3783 7.73383 56.3783C5.48392 56.3783 2.5725 55.435 0.289917 54.1814V60.3718C2.63353 61.3927 5.16118 61.9235 7.7175 61.9316C13.3688 61.9275 17.2562 59.4816 17.2562 54.5326ZM46.1988 35.6553L53.0303 34.1853V28.583L46.1988 30.053V35.6553ZM67.2443 37.2764C65.2548 37.2681 63.3414 38.0408 61.9156 39.4283L61.5644 37.7256H55.5742V69.4163L62.3729 67.9586L62.3893 60.1921C63.3693 60.9189 64.8229 61.9275 67.1994 61.9275C72.0708 61.9275 76.5094 58.3383 76.5094 49.6122C76.5257 41.6252 72.0259 37.2764 67.2443 37.2764ZM65.6233 56.2272C64.0267 56.2313 63.0834 55.6433 62.4219 54.9287L62.377 44.7163C63.0834 43.9282 64.0634 43.3524 65.6233 43.3524C68.1018 43.3524 69.8168 46.1699 69.8168 49.7592C69.8372 53.4587 68.1508 56.2272 65.6233 56.2272ZM88.1673 37.2764C81.7034 37.2764 77.7671 42.8298 77.7671 49.8286C77.7671 58.1055 82.4058 61.9316 89.0248 61.9316C92.2711 61.9316 94.7048 61.1884 96.5586 60.1513V54.9818C94.7048 55.925 92.5773 56.4967 89.8823 56.4967C87.2322 56.4967 84.9048 55.5534 84.5985 52.3358H97.9061C97.9347 51.9805 97.9959 50.5391 97.9959 49.8776C97.9959 42.8338 94.6312 37.2764 88.1673 37.2764ZM84.5372 47.2724C84.5372 44.1773 86.4238 42.8788 88.1224 42.8788C89.7925 42.8788 91.5687 44.1813 91.5687 47.2724H84.5372ZM30.429 43.5893V37.7378H25.2677L25.2513 31.7803L18.6159 33.2053L18.5873 55.239C18.5873 59.3101 21.6213 61.9398 25.6474 61.9398C27.8851 61.9398 29.5225 61.5192 30.429 61.0251V55.7943C29.5552 56.1496 25.2677 57.4195 25.2677 53.3648V43.5852H30.429V43.5893ZM44.5778 44.0548V37.7419C43.659 37.4153 40.4903 36.815 38.8978 39.7673L38.4813 37.7419H32.6013V61.4457H39.3878V45.4921C40.9967 43.3565 43.708 43.7771 44.5778 44.0548Z" fill="#646FDE"/>
</svg>
