<svg xmlns="http://www.w3.org/2000/svg" xmlns:xlink="http://www.w3.org/1999/xlink" viewBox="0 0 800 800" id="Websecurity"><defs><linearGradient id="a" x1="73.03" x2="215.61" y1="392.24" y2="392.24" gradientUnits="userSpaceOnUse"><stop offset="0" stop-color="#3a23d0" class="stopColor23bed0 svgShape"></stop><stop offset=".55" stop-color="#3c23db" class="stopColor23dbd0 svgShape"></stop></linearGradient><linearGradient id="b" x1="605.61" x2="690.02" y1="375.45" y2="375.45" xlink:href="#a"></linearGradient></defs><g data-name="Layer 1" fill="#000000" class="color000000 svgShape"><path fill="#13027d" d="M702.1 554.84c-4.16 10.33-9.93 20.18-20 23.77-9 3.24-18.5 1.49-27 7.2-12.36 8.31-18.71 22.61-33.69 27.45a41.73 41.73 0 0 1-18.76 1.27c-3.58-.5-15.1 4-19.77-5.24C572.66 589 678.25 496.14 721 514.8c19.64 8.55-15.27 31.02-18.9 40.04Z" class="color02797d svgShape"></path><path d="M652.86 533c-4.66 44.06-23.26 73-50.17 81.54-3.5 1.11-15.1 4-19.77-5.24-6.26-12.38 30.56-51.72 69.94-76.3Z" style="mix-blend-mode:multiply" fill="#13027d" class="color02797d svgShape"></path><path fill="#160966" d="m582.65 608.67-1.15-1.39c54.83-56.52 86.37-68.76 119.77-81.71l7.92-3.09.54 1.8c-2.66 1.05-5.3 2.08-7.94 3.1-33.21 12.88-64.58 25.06-119.14 81.29Z" class="color096666 svgShape"></path><path fill="#160966" d="M683.11 554.25c-8.87-7.19-15.86-6.26-25.53-5-1.42.19-2.88.38-4.41.56l-.13-1.91c1.52-.17 3-.37 4.38-.55 9.68-1.29 17.33-2.3 26.74 5.32ZM623.53 570.85l-.15-1.91c1.7-.22 3.24-.47 4.59-.69 6.22-1 10-1.62 17.87 2.27l-.73 1.75c-7.46-3.66-10.82-3.11-16.94-2.12-1.37.23-2.91.48-4.64.7ZM675 538.08l-1.81-.31c4.15-2.6 8.44-7.95 11.64-11.8a82.63 82.63 0 0 1 6.45-7.18l1.1 1.45a79.59 79.59 0 0 0-6.3 7c-3.27 3.98-6.67 8.08-11.08 10.84Z" class="color096666 svgShape"></path><path fill="#13027d" d="M659.34 476.06c2.66 12.33 3.53 25.51-3.45 36.49-6.28 9.88-16.09 15.7-20.31 27.35-6.16 16.94-3 34.49-13.77 50.41A56.73 56.73 0 0 1 605.34 606c-3.6 2.35-11.39 15.27-21.47 10.77-22.18-9.88-15.33-27.29-18.71-38-7-22-7.61-40.21 5-54.89 5.15-6 12.92-8.52 17.81-14.77 4.47-5.73 4.68-20.1 9-27.45 4.73-8 13.75-13.1 16.64-22.05 6.18-19.15 27.35-39.23 38-33.58 21.66 11.5 5.39 39.26 7.73 50.03Z" class="color02797d svgShape"></path><path fill="#160966" d="m583.11 616.44-1.69-.29c15-92.45 36.31-127.77 58.9-165.17 1.78-3 3.56-5.9 5.34-8.89l1.43 1q-2.69 4.49-5.35 8.9c-22.48 37.25-43.74 72.41-58.63 164.45Z" class="color096666 svgShape"></path><path fill="#160966" d="m611.11 509.64-1.11-1.39c1.29-1.34 2.51-2.64 3.68-3.9 8.08-8.65 14.47-15.48 27.86-16.08v1.92c-12.72.57-18.59 6.84-26.7 15.52-1.22 1.29-2.44 2.58-3.73 3.93ZM597 551.24l-1.17-1.37c1.43-1.53 2.69-2.94 3.8-4.19 5.06-5.72 8.13-9.17 17.8-11.89l.38 1.86c-9.2 2.59-12 5.7-17 11.36-1.07 1.26-2.34 2.68-3.81 4.23ZM623.8 482.32l-2 1.53c2.19-5.54 3.12-13.9 3.65-19.79a101.68 101.68 0 0 1 1.43-11.33l1.68.36a103.76 103.76 0 0 0-1.4 11.11c-.51 6.04-1.06 12.29-3.36 18.12Z" class="color096666 svgShape"></path><path fill="#563cfe" d="M476.82 252.13c-21.94-14.36-40.54-35.48-53.78-61.07-13.57-26.22-21.11-56.49-21.81-87.52a38.28 38.28 0 0 1-.2-4V97.97h1.22c30.09 0 48.67-6.23 58.95-11.46 11.11-5.65 15.19-11.36 15.23-11.42l1-1.45 1 1.43c.17.23 17.38 22.9 74.23 22.9H554v1.57a37.28 37.28 0 0 1-.23 4.19c-.73 31-8.28 61.2-21.85 87.38-13.23 25.54-31.81 46.62-53.72 61l-.69.45Z" class="colorfe6a3c svgShape"></path><path fill="#ffffff" d="M477.34 240c-14.64 0-36.85-32.38-47.41-52.79-11.91-23-17.27-44.69-18.51-74.82v-.19l.07-.19c1.21-3 6.35-3.88 14.13-5.18 10.38-1.72 24.68-4.1 38.83-12.83l3.55-2.13a77.24 77.24 0 0 0 8.53-5.6l.5-.42.56.34c28.24 17.18 45.69 20.25 55.07 21.9 7.3 1.29 11 1.93 11 7.94-1.11 26.85-6.24 45.5-19.6 71.29-11.41 22-36.64 52.67-45.84 52.67-.3.01-.59.01-.88.01Zm-64.06-127.44c1.24 29.72 6.55 51.12 18.3 73.82 11.12 21.51 32.68 51.79 45.76 51.79H478.13c7.69 0 32.48-29 44.24-51.67 13.22-25.52 18.3-44 19.38-70.48 0-4.25-1.8-4.73-9.42-6.07-9.44-1.66-27-4.74-55.16-21.81a88.1 88.1 0 0 1-8.23 5.35c-1.12.68-2.3 1.38-3.52 2.14-14.42 8.87-29.54 11.37-39.51 13.05-6.46 1.07-11.61 1.93-12.63 3.88Z" class="colorffffff svgShape"></path><path fill="#ffffff" d="M497.48 129.56c-28.63-11.91-41.93-7.06-54.38 14.42-6.09 10.49 1 37.2 10.21 45.17 13.12 11.42 39.07 13.37 56-9.87 7.2-9.81 8.69-41.17-11.83-49.72Z" class="colorffffff svgShape"></path><path fill="#7764f0" d="M471.73 179.23c-4.47 0-8.76-3.82-13.1-11.67l2.43-1.34c3.82 6.91 7.48 10.34 10.85 10.23 6.28-.21 12-12.42 16.54-22.23A106.89 106.89 0 0 1 494 143.3l2.35 1.49a104.62 104.62 0 0 0-5.38 10.6c-5.15 11.05-11 23.57-19 23.84Z" class="color31bfcd svgShape"></path><path fill="url(#a)" d="M73.16 407.54c-1.87-11.43 16.86-15.9 21.73-9-1.56-10.91 7.25-25.23 22.37-26.46 28.55-2.67 20.27 18.54 34 18.85 12.53-.24 3.19-18.35 31.69-9.28 6.83 2 10.29 9.66 15.11 19.09 9.76-10.75 15.75-3.75 17.55 6.75a505.79 505.79 0 0 1-142.45.05Z"></path><path fill="#130188" d="M581.3 172.4c-19.3 3.64-33 16.27-33.57 36.63-.61 23.28 21.18 33.5 41.93 29.54 16-3 25.21-18.31 25.87-33.66.86-20.15-14.9-32.28-33.82-32.53-1.28 0-3.42 1.9-1.23 1.93 16.7.21 29.42 9.5 31.61 26.34 1.78 13.72-5 28.7-17.77 34.62-8.69 4-20.06 2.36-28.59-1.17-9.17-3.79-13.5-11.76-14.56-21.19-2.25-19.85 10.53-35 29.72-38.62 1.56-.29 2.63-2.31.41-1.89Z" class="color015288 svgShape"></path><path fill="#130188" d="M549 210.05c20.36-.19 40.56-3.46 60.92-3.07 1.5 0 3.33-2.21 1.15-2.26-20.66-.4-41.12 2.88-61.76 3.07-1.8 0-2.51 2.28-.31 2.26ZM558.9 184.38c13.54 3.6 34 9.83 46.35-.14.66-.53-2.33-.19-2.92.28-10.09 8.16-29.55 1.63-40.76-1.36-.72-.19-3.55 1-2.67 1.22ZM605.3 226.06c-4.68-6.62-16.78-5.9-23.82-5.57-8.73.4-19.28 2.13-26.18 7.93-1.32 1.11 1.9.77 2.52.25 6.47-5.45 16.14-6.42 24.26-6.79 6.13-.29 16.19-.31 20.19 5.34.5.7 3.62-.33 3-1.16Z" class="color015288 svgShape"></path><path fill="#130188" d="M582.65 172.7c-9.62 19-19.95 47.79-5.51 66.9.65.86 3.77-.24 3-1.26-14-18.6-3.87-47.09 5.52-65.58.7-1.37-2.53-1-3-.06Z" class="color015288 svgShape"></path><path fill="#130188" d="M582.67 173.39c11.16 16.27 16.36 47.49 5.5 64.89-.86 1.36 2.41 1.14 3 .15 11.2-17.92 5.9-49.67-5.55-66.36-.68-1-3.8.13-3 1.32Z" class="color015288 svgShape"></path><path fill="#130187" d="m307.8 61.74-.93-.88a71.21 71.21 0 0 0-7.33 9l1 .72a72 72 0 0 1 7.26-8.84ZM237.14 91.19c1.65-.71 3.36-1.41 5.09-2.08l-.46-1.2c-1.75.68-3.47 1.38-5.14 2.1-1.84.79-3.68 1.64-5.49 2.53l.57 1.15c1.78-.88 3.61-1.69 5.43-2.5ZM309.7 78.27l.13-1.27a106.08 106.08 0 0 0-11.58-.56v1.28a106.24 106.24 0 0 1 11.45.55ZM368.92 33.07l-.17-1.27c-3.83.52-7.67 1.21-11.41 2.06l.29 1.26c3.7-.85 7.49-1.54 11.29-2.05ZM221.68 99.25l-.68-1.09c-3.22 2-6.43 4.19-9.55 6.53l.77 1c3.09-2.29 6.27-4.47 9.46-6.44ZM173.72 147.9l-1.07-.69c-2.07 3.18-4.1 6.5-6 9.88l1.12.64c1.88-3.36 3.9-6.66 5.95-9.83ZM153 188.9l-1.2-.45a235.4 235.4 0 0 0-3.89 10.9l1.22.4c1.14-3.63 2.44-7.28 3.87-10.85ZM203.34 113l-.85-1c-2.83 2.52-5.63 5.2-8.35 8l.93.89c2.68-2.76 5.47-5.43 8.27-7.89ZM162.27 167.86l-1.15-.58c-1.72 3.42-3.39 6.94-5 10.47l1.17.52c1.61-3.52 3.26-7.02 4.98-10.41ZM187.37 129.43l-1-.83c-2.44 2.91-4.85 6-7.15 9.09l1 .76c2.34-3.11 4.78-6.14 7.15-9.02ZM143.48 220c.7-3.08 1.45-6.17 2.29-9.23l-1.24-.34c-.85 3.11-1.61 6.25-2.32 9.37ZM355.92 137.13l.94.87a22.59 22.59 0 0 0 5.52-10.34l-1.25-.29a21.29 21.29 0 0 1-5.21 9.76ZM362.44 116a38.27 38.27 0 0 0-4.08-11l-1.12.62a37.32 37.32 0 0 1 3.95 10.58ZM350.52 96.48l.93-.88a45.42 45.42 0 0 0-1.7-1.7 54.64 54.64 0 0 0-7.21-5.8l-.71 1.06a55 55 0 0 1 7 5.66c.6.55 1.17 1.1 1.69 1.66ZM344.63 144.32a30.23 30.23 0 0 1-8.83 1.88l.08 1.28a31.78 31.78 0 0 0 9.2-2c.74-.27 1.45-.56 2.14-.87l-.52-1.17c-.7.33-1.35.62-2.07.88ZM380.3 30.77l.06 1.27c3.82-.17 7.68-.17 11.48 0l.05-1.28c-3.82-.17-7.73-.17-11.59.01ZM335.35 41.14l.53 1.17a112.92 112.92 0 0 1 10.7-4.13l-.41-1.18a106.09 106.09 0 0 0-10.82 4.14ZM470.32 72.16a78.48 78.48 0 0 0-6.46-9l-1 .81a76.92 76.92 0 0 1 6.36 8.86l.27.45 1.09-.67ZM403.26 33.09c3.81.53 7.6 1.24 11.26 2.13l.31-1.24a115.06 115.06 0 0 0-11.39-2.16ZM445.91 48.75a82 82 0 0 1 9 7l.85-1a84.52 84.52 0 0 0-9.16-7.12ZM425.5 38.51A99 99 0 0 1 436 43l.58-1.15a101.78 101.78 0 0 0-10.67-4.55ZM275.18 78.57l.22 1.26c3.85-.67 7.68-1.18 11.39-1.53l-.11-1.3c-3.75.38-7.62.9-11.5 1.57ZM252.69 84.07l.39 1.22c3.66-1.15 7.38-2.2 11.07-3.1l-.3-1.24c-3.72.9-7.47 1.96-11.16 3.12ZM313.64 141.29a42 42 0 0 0 10.62 4.84l.36-1.23a40.87 40.87 0 0 1-10.3-4.69ZM295.11 80.59l-1.18-.5a50.87 50.87 0 0 0-3.32 11.16l1.26.22a50 50 0 0 1 3.24-10.88ZM315.48 53.05l.8 1a89.83 89.83 0 0 1 9.43-6.49l-.66-1.1a92 92 0 0 0-9.57 6.59ZM332.32 82.57a72.1 72.1 0 0 0-11-3.62l-.32 1.24a70 70 0 0 1 10.85 3.56ZM298.39 124.17l-1.08.68a53.9 53.9 0 0 0 7.25 9.12l.91-.9a53 53 0 0 1-7.08-8.9ZM291.32 102.8l-1.28.09a49.08 49.08 0 0 0 1.38 8.49c.24 1 .53 2 .86 3l1.22-.4c-.32-1-.6-1.91-.84-2.87a48.35 48.35 0 0 1-1.34-8.31Z" class="color015287 svgShape"></path><path fill="#c1bbe6" d="M310.3 229.6h-.06c-22.89-.49-143.8-.85-145-.85h-.77l-2.34-22.52.88-.06c21.06-1.41 47.17-2.12 77.63-2.12 37.92 0 69.35 1.13 69.66 1.15h.64l.16.62c.47 1.89 4.51 18.63 1.31 22.71a2.6 2.6 0 0 1-2.11 1.07Z" class="colorbbe6dd svgShape"></path><path d="M175.48 216.8a.83.83 0 1 1-.82-.83.83.83 0 0 1 .82.83Z" fill="#000000" class="color000000 svgShape"></path><path d="M175.94 215.48a1.87 1.87 0 1 0 0 2.65 1.88 1.88 0 0 0 0-2.65ZM210.8 216.8a.83.83 0 1 1-.8-.8.83.83 0 0 1 .8.8Z" fill="#000000" class="color000000 svgShape"></path><path d="M211.26 215.48a1.87 1.87 0 1 0 0 2.65 1.88 1.88 0 0 0 0-2.65ZM182.55 216.8a.83.83 0 0 1-1.66 0 .83.83 0 1 1 1.66 0Z" fill="#000000" class="color000000 svgShape"></path><path d="M183 215.48a1.87 1.87 0 1 0 .05 2.65 1.87 1.87 0 0 0-.05-2.65ZM189.61 216.8a.83.83 0 1 1-.83-.83.83.83 0 0 1 .83.83Z" fill="#000000" class="color000000 svgShape"></path><path d="M190.07 215.48a1.87 1.87 0 1 0 0 2.65 1.88 1.88 0 0 0 0-2.65ZM196.67 216.8a.83.83 0 1 1-.82-.83.83.83 0 0 1 .82.83Z" fill="#000000" class="color000000 svgShape"></path><path d="M197.13 215.48a1.87 1.87 0 1 0 0 2.65 1.88 1.88 0 0 0 0-2.65ZM203.74 216.8a.83.83 0 1 1-.83-.83.83.83 0 0 1 .83.83Z" fill="#000000" class="color000000 svgShape"></path><path d="M204.19 215.48a1.87 1.87 0 1 0 .05 2.65 1.87 1.87 0 0 0-.05-2.65Z" fill="#000000" class="color000000 svgShape"></path><path fill="#c1bbe6" d="M310.3 266.75h-.06c-22.89-.49-143.8-.84-145-.85h-.77l-2.34-22.52.88-.06c21.06-1.41 47.17-2.12 77.63-2.12 37.92 0 69.35 1.14 69.66 1.15l-.5 13.13 1.3-12.49c.47 1.9 4.51 18.63 1.31 22.71a2.57 2.57 0 0 1-2.11 1.05Z" class="colorbbe6dd svgShape"></path><path d="M175.48 254a.83.83 0 1 1-.82-.83.83.83 0 0 1 .82.83Z" fill="#000000" class="color000000 svgShape"></path><path d="M175.94 252.63a1.87 1.87 0 1 0 0 2.65 1.87 1.87 0 0 0 0-2.65ZM210.68 254a.83.83 0 1 1-.83-.83.83.83 0 0 1 .83.83Z" fill="#000000" class="color000000 svgShape"></path><path d="M211.14 252.63a1.87 1.87 0 1 0 0 2.65 1.87 1.87 0 0 0 0-2.65ZM182.52 254a.83.83 0 1 1-.83-.83.83.83 0 0 1 .83.83Z" fill="#000000" class="color000000 svgShape"></path><path d="M183 252.63a1.87 1.87 0 1 0 0 2.65 1.87 1.87 0 0 0 0-2.65ZM189.56 254a.83.83 0 1 1-.83-.83.83.83 0 0 1 .83.83Z" fill="#000000" class="color000000 svgShape"></path><path d="M190 252.63a1.87 1.87 0 1 0 0 2.65 1.87 1.87 0 0 0 0-2.65ZM196.6 254a.83.83 0 1 1-.83-.83.83.83 0 0 1 .83.83Z" fill="#000000" class="color000000 svgShape"></path><path d="M197.06 252.63a1.87 1.87 0 1 0 0 2.65 1.87 1.87 0 0 0 0-2.65ZM203.64 254a.83.83 0 1 1-.83-.83.83.83 0 0 1 .83.83Z" fill="#000000" class="color000000 svgShape"></path><path d="M204.1 252.63a1.87 1.87 0 1 0 0 2.65 1.87 1.87 0 0 0 0-2.65ZM217.72 254a.83.83 0 0 1-.83.83.83.83 0 0 1 0-1.66.83.83 0 0 1 .83.83Z" fill="#000000" class="color000000 svgShape"></path><path d="M218.18 252.63a1.87 1.87 0 1 0 0 2.65 1.87 1.87 0 0 0 0-2.65ZM252.92 254a.83.83 0 1 1-.83-.83.83.83 0 0 1 .83.83Z" fill="#000000" class="color000000 svgShape"></path><path d="M253.38 252.63a1.87 1.87 0 1 0 0 2.65 1.87 1.87 0 0 0 0-2.65ZM224.76 254a.83.83 0 1 1-.83-.83.83.83 0 0 1 .83.83Z" fill="#000000" class="color000000 svgShape"></path><path d="M225.22 252.63a1.87 1.87 0 1 0 0 2.65 1.87 1.87 0 0 0 0-2.65ZM231.8 254a.83.83 0 1 1-.83-.83.83.83 0 0 1 .83.83Z" fill="#000000" class="color000000 svgShape"></path><path d="M232.26 252.63a1.87 1.87 0 1 0 0 2.65 1.87 1.87 0 0 0 0-2.65ZM238.84 254a.83.83 0 1 1-.83-.83.83.83 0 0 1 .83.83Z" fill="#000000" class="color000000 svgShape"></path><path d="M239.3 252.63a1.87 1.87 0 1 0 0 2.65 1.87 1.87 0 0 0 0-2.65ZM245.88 254a.83.83 0 1 1-.83-.83.83.83 0 0 1 .83.83Z" fill="#000000" class="color000000 svgShape"></path><path d="M246.34 252.63a1.87 1.87 0 1 0 0 2.65 1.87 1.87 0 0 0 0-2.65Z" fill="#000000" class="color000000 svgShape"></path><path fill="#1b00ca" d="M405.19 228.85c-.42 20.45 3.65 35.41-2.39 35.57-30.57.85-45.61 3-58.11-.42-6.57-1.8-7.87-74.16-.57-76 13.79-3.51 41.17-8.12 58.09 1.93 5.36 3.17 3.23 27.07 2.98 38.92Z" class="color0086ca svgShape"></path><path fill="#130188" d="M378.42 198.44c-7.95-4.33-11.83-3.23-15.75 2.89-1.92 3-.35 11.18 2.12 13.82 3.54 3.77 12.66 2.15 16.15-1.48 2.43-2.54 3.19-12.12-2.52-15.23ZM393 257.12c0-11.18-.9-25.47-7.37-30.5-14.52-11.29-30.75-4.62-34.63 12.92-.85 3.8-.17 10.43 1.29 17.23Z" class="color015288 svgShape"></path><path fill="#7764f0" d="m549.63 336.54-1.64-.06 1.37-39a14.66 14.66 0 0 1 5-10.85c6.92-6 18.52-5.26 19.79-5.15 1.15-.16 11-1.23 18 5.17 5 4.61 7.33 11.89 6.79 21.64v25.57h-1.63v-25.65c.51-9.29-1.59-16.13-6.26-20.39-6.74-6.15-16.63-4.77-16.73-4.75h-.2c-.11 0-12-1-18.66 4.75a13.1 13.1 0 0 0-4.43 9.68Z" class="color31bfcd svgShape"></path><rect width="60.89" height="40.69" x="542.89" y="312.76" fill="#563cfe" rx="4.25" class="colorfe6a3c svgShape"></rect><path fill="#ffffff" d="M577.43 330.76c-.82-7.68-8.26-6.86-8.19 0a4.13 4.13 0 0 0 2.5 3.77l-2.5 11.24 7.37 1.26-1.68-12.5a3.85 3.85 0 0 0 2.5-3.77Z" class="colorffffff svgShape"></path><path fill="#2c16b8" d="m568.65 264.93-.4-3.2c-.52-4.15-1-8.44-1.38-12.76l1.13-.09c.33 4.29.87 8.57 1.38 12.71l.4 3.2ZM551 272.06l-2.65-1.82c-3.47-2.35-7-4.79-10.51-7.4l.69-.91c3.44 2.6 7 5 10.46 7.37l2.65 1.82ZM593.32 273l-.6-1 2.73-1.7c3.54-2.2 7.21-4.47 10.76-6.91l.65.93c-3.58 2.46-7.26 4.74-10.82 6.95Z" class="color1693b8 svgShape"></path><path fill="#c1bbe6" d="M138.28 237.64c-23.39-9.73-34.26-5.77-44.43 11.78-5 8.57.86 30.39 8.35 36.9 10.71 9.33 31.91 10.92 45.78-8.06 5.85-8.01 7.09-33.64-9.7-40.62Z" class="colorbbe6dd svgShape"></path><path fill="#7764f0" d="M117.24 278.22c-3.65 0-7.15-3.12-10.7-9.54l2-1.1c3.12 5.65 6.11 8.46 8.86 8.37 5.13-.18 9.78-10.15 13.51-18.17a86.26 86.26 0 0 1 4.54-8.91l1.91 1.21a86.68 86.68 0 0 0-4.39 8.66c-4.2 9-9 19.25-15.49 19.48Z" class="color31bfcd svgShape"></path><path fill="#130188" d="M190.28 288.82h235.4v40.7h-235.4z" class="color015288 svgShape"></path><path fill="#ffffff" d="M377.23 325.43h-.12c-26.11-.55-154.11-1-179.5-1.05H195l1.25-30.09 2.23-.15c26.17-1.76 54.27-2.65 92.17-2.65 45.06 0 82.45 1.29 86.56 1.43l1.67.06.39 1.57c1 3.93 5.63 23.81 1.44 29.17a4.34 4.34 0 0 1-3.48 1.71ZM197 322.19h.65c25.39.08 153.41.5 179.56 1.05l.05 1.1v-1.1a2.13 2.13 0 0 0 1.75-.88c2.57-3.29.85-16.43-1.84-27.26-4.3-.15-41.58-1.43-86.5-1.43-37.83 0-65.87.89-92 2.64ZM403.32 303.09a6.44 6.44 0 1 0-10.42 7.57 7.1 7.1 0 0 0 8.86 1.95l6 8.46 1.48-1.07-6.71-8a7.42 7.42 0 0 0 .79-8.91Zm-2.49 7.52a4.62 4.62 0 1 1 1-6.45 4.62 4.62 0 0 1-1 6.45Z" class="colorffffff svgShape"></path><path fill="url(#b)" d="M605.69 384.88c-1.1-7.05 10-9.8 12.86-5.51-.92-6.73 4.3-15.55 13.25-16.31 16.89-1.64 12 11.43 20.12 11.62 7.42-.15 1.89-11.31 18.76-5.72 4.05 1.25 6.09 6 9 11.76 5.78-6.62 9.32-2.31 10.39 4.16a287.85 287.85 0 0 1-84.38 0Z"></path><path fill="#d1cafb" d="M496.83 327.68c9.6-27.51 10.36-62.09 15.89-95.73.48-3.14-4.76-13.5-8.8-.91-2.43 7.62-2.51 25.71-5 24.83 1.34-58.25-8.48-46.2-9.61-44.62-4.34 6.83-.88 42.14-4.17 43.63-2.67.19-1.75-57.14-10.65-52.31-5.7-2.39-1.22 33.66-5.39 49 .49-32.86-8.42-52.76-12.79-38.15-2.52 36.75 2 33.32-1.08 65.14 1-14.45-11.38-30.47-17-28.22 11 46.52 22.52 55 21.74 80.13Z" class="colorfbd4ca svgShape"></path><path fill="#5840f1" d="M450.37 489.33c4.58 1.65 73 20.81 73.22 16.52 4.51-77.84-3.26-186.14-3.26-186.14l-68.62 6.37s-1.57 118.65-1.34 163.25Z" class="colorf16a40 svgShape"></path><path fill="#c1bbe6" d="M450.31 339.63h-.1a178.19 178.19 0 0 1-4-23.22l73.76-9.12c.24 6 1.2 9.61 1.33 18.64-23.3 3.74-47.88 9.07-70.99 13.7Z" class="colorbbe6dd svgShape"></path><path fill="#ffffff" d="M449.69 323.68c11.79-3.6 25.89-5.61 39.52-7.55 8.23-1.17 23-3.42 30.13-4.84l-.19-1c-7.15 1.41-21.86 3.66-30.08 4.83-13.67 1.95-27.81 4-39.67 7.58ZM506.82 319.06a3 3 0 1 0 3.94 1.64 3 3 0 0 0-3.94-1.64ZM209.45 430.38l378.87 3.6-.26 198.76-375.32 9.6-3.29-211.96z" class="colorffffff svgShape"></path><path fill="#563cfe" d="M209.33 434h379l-4.1-4.72 3.26 185.43.24 13.91c0 1.19-.33 3.09.34 4.14q9.39 14.53 18.79 29.08 26.74 41.46 53.52 82.9c.63 1 .23.37-1.23.44l-7.18.34-29.3 1.4L522 751.69l-227.12 10.82-45.16 2.15 4.08 4.57q-14.85-43.9-29.72-87.79-3.35-9.9-6.71-19.82c-.57-1.69-1.79-4.25-1.82-5.68l-.72-25.46q-2.73-97.71-5.47-195.41v-1.09c-.05-1.84-4.06-3.52-4.09-4.72L210.46 616q.47 16.41.92 32.81c.17 5.74 2.82 11.08 4.65 16.48q16.4 48.47 32.82 96.93l.87 2.6c.34 1 3 4.62 4.09 4.57l147.07-7 224.34-10.68 39.6-1.88a.53.53 0 0 0-.15-.44l-49.07-76-22.74-35.21c-1.28-2-1-1-1-3.27l-.21-12q-1.65-94.35-3.31-188.69V434c0-1-3.06-4.72-4.1-4.72h-379c.91-.02 2.42 4.72 4.09 4.72Z" class="colorfe6a3c svgShape"></path><path fill="#563cfe" d="m221.67 449.74 160.49-2 191-2.38 4.37-.06-2.38-1 .85 179.57v5.5l3.84-1.47L418 632.45l-184.52 5.17c-.76 0-1.53 0-2.29.06l2.37 1q-3.81-90.75-7.63-181.5c-.12-3-.25-5.92-.37-8.88-.07-1.66-6.3-1.26-6.22.51q3.81 90.75 7.63 181.51.19 4.43.37 8.87c0 .85 1.84 1 2.38 1l161.93-4.54 184.51-5.18 2.3-.07c.83 0 3.85-.08 3.85-1.46q-.45-89.77-.87-179.55v-5.5c0-.85-1.86-1-2.37-1l-160.5 2-191 2.39-4.37.05c-2.66.01-5.8 2.47-1.53 2.41ZM231.56 655 393 650.13l187-5.67 3-.09c1.81-.06 6.46-3.91 3-3.81l-161.38 4.91-187 5.68-3 .09c-1.82.06-6.46 3.9-3.05 3.8ZM313.15 667.89l22.76-.68c2.19-.07-.35-1.15.32.19l2.51 5q2.55 5.07 5.08 10.15l4.22-3.45-23.92 1.78c-2.53.18-.67.12-.6.32l-2.16-5.88q-2-5.43-4-10.9c-.73-2-6.35.69-5.55 2.87q3.17 8.58 6.31 17.17c.17.47.92.62 1.33.59l25.71-1.91c1.23-.09 5.18-1.52 4.21-3.45l-8-16a1.44 1.44 0 0 0-1.34-.59l-24 .73c-2.03.09-6.39 4.17-2.88 4.06ZM277.87 669.21l22.76-.69c2.19-.07-.35-1.15.32.19l2.52 5 5.08 10.15 4.21-3.46-23.91 1.78c-2.54.19-.68.13-.61.32-.72-2-1.44-3.91-2.15-5.87q-2-5.46-4-10.9c-.73-2-6.35.67-5.54 2.86l6.3 17.17c.17.46.93.61 1.33.58l25.71-1.9c1.23-.09 5.18-1.52 4.21-3.45l-8-16a1.43 1.43 0 0 0-1.33-.59l-24 .73c-2.01.1-6.41 4.19-2.9 4.08ZM353.23 666.47l22.76-.69c2.19-.07-.35-1.15.32.19l2.51 5 5.09 10.16 4.21-3.46-23.92 1.78c-2.53.18-.67.12-.6.32l-2.16-5.88-4-10.9c-.73-2-6.35.68-5.55 2.87q3.17 8.58 6.31 17.17c.17.47.93.62 1.33.59l25.71-1.91c1.23-.09 5.18-1.52 4.21-3.45l-8-16a1.41 1.41 0 0 0-1.34-.58l-24 .72c-2 .09-6.39 4.17-2.88 4.07ZM241.76 670.94q11.38-.33 22.76-.69c2.19-.06-.34-1.15.33.19.83 1.68 1.67 3.35 2.51 5q2.55 5.07 5.08 10.15l4.22-3.45-23.92 1.77c-2.53.19-.67.13-.6.32l-2.14-5.84-4-10.9c-.72-2-6.34.68-5.54 2.86q3.15 8.6 6.31 17.18c.17.46.92.61 1.33.58l25.71-1.9c1.23-.09 5.17-1.52 4.21-3.46l-8-16a1.4 1.4 0 0 0-1.33-.59l-24 .73c-2.04.11-6.43 4.16-2.93 4.05ZM438.09 664l22.77-.69c2.19-.07-.35-1.15.32.19l2.51 5 5.09 10.16c1.4-1.15 2.8-2.31 4.21-3.45L449.07 677c-2.53.19-.67.13-.6.32l-2.16-5.87q-2-5.46-4-10.9c-.73-2-6.35.68-5.55 2.86q3.15 8.6 6.31 17.17c.17.47.92.62 1.33.59l25.71-1.91c1.23-.09 5.17-1.52 4.21-3.45l-8-16a1.41 1.41 0 0 0-1.34-.58L441 660c-2 0-6.41 4.13-2.91 4ZM392 665.33l22.77-.69c2.18-.07-.36-1.15.31.19.84 1.67 1.69 3.35 2.52 5l5.09 10.17 4.22-3.45-23.91 1.78c-2.53.18-.68.13-.61.32l-2.15-5.87q-2-5.44-4-10.9c-.73-2-6.34.68-5.54 2.86q3.15 8.6 6.31 17.17c.17.47.92.62 1.33.59l25.66-1.91c1.22-.09 5.17-1.52 4.21-3.45l-8-16a1.42 1.42 0 0 0-1.33-.59l-24 .73c-1.98.07-6.38 4.15-2.88 4.05ZM482.1 662.24l22.77-.69c2.18-.07-.35-1.15.32.19l2.51 5 5.09 10.15 4.21-3.45-23.92 1.78c-2.53.18-.67.13-.61.32-.71-2-1.43-3.91-2.15-5.88-1.34-3.62-2.67-7.26-4-10.89-.72-2-6.34.68-5.54 2.86q3.15 8.6 6.31 17.17c.17.46.92.62 1.33.59l25.7-1.91c1.24-.09 5.18-1.52 4.22-3.45l-8-16a1.4 1.4 0 0 0-1.33-.59l-24 .73c-2.01.09-6.41 4.17-2.91 4.07ZM525.19 659.78l36.88-1.16 7.19-.22c1.46 0 .54.28.07-.23l1.91 2.07 12.61 13.64 3.91-3.78-37.58 2.06-8.33.45-2.06.12c-.07 0 1.38 1.22.19-.56l-10.58-15.84c-1.29-1.93-6.72 1.1-5.55 2.86L534.43 675c2 3 6.66 1.51 9.9 1.33l40.55-2.22c1.36-.08 5.66-1.9 3.92-3.78l-12.6-13.64c-2.93-3.17-5.11-2.33-9.38-2.2l-38.75 1.22c-1.99.09-6.39 4.18-2.88 4.07ZM251.66 698.73l22.74-1.1c2.18-.11-.35-1.17.34.15l2.61 5 5.26 10.06 4.21-3.45-23.82 2.19c-2.52.23-.7.14-.62.35q-1.12-2.91-2.26-5.83l-4.2-10.83c-.77-2-6.38.72-5.54 2.87q3.3 8.54 6.61 17.05c.18.46.92.63 1.34.59l25.66-2.37c1.2-.11 5.22-1.53 4.21-3.46l-8.29-15.84a1.45 1.45 0 0 0-1.33-.59l-24 1.17c-2.02.1-6.41 4.21-2.92 4.04ZM340.68 697.24l22.75-1.1c2.17-.11-.36-1.17.33.15.86 1.67 1.74 3.33 2.61 5l5.26 10.05 4.21-3.44-23.84 2.19c-2.51.23-.69.15-.61.36-.75-2-1.51-3.89-2.26-5.83l-4.2-10.83c-.77-2-6.38.71-5.55 2.87q3.32 8.52 6.62 17.05c.18.46.92.62 1.34.59l25.66-2.38c1.19-.11 5.23-1.52 4.22-3.45l-8.3-15.84a1.41 1.41 0 0 0-1.33-.59q-12 .59-24 1.17c-2.01.09-6.4 4.2-2.91 4.03ZM296.08 694.92l22.75-1.1c2.18-.1-.36-1.16.33.16l2.61 5L327 709l4.21-3.44-23.87 2.2c-2.52.24-.7.15-.62.36-.75-1.94-1.5-3.89-2.26-5.83l-4.2-10.82c-.77-2-6.38.7-5.54 2.86l6.61 17c.18.46.92.63 1.34.59l25.66-2.38c1.2-.11 5.22-1.52 4.22-3.45l-8.3-15.84a1.43 1.43 0 0 0-1.33-.59l-24 1.17c-1.92.17-6.33 4.27-2.84 4.09ZM384.6 695q11.37-.56 22.75-1.11c2.18-.1-.36-1.16.33.16l2.61 5 5.27 10.05 4.21-3.45-23.88 2.21c-2.52.23-.69.14-.61.36-.76-2-1.51-3.89-2.26-5.84q-2.11-5.4-4.2-10.82c-.78-2-6.39.71-5.55 2.86q3.3 8.54 6.62 17.06c.18.45.92.62 1.33.58l25.67-2.37c1.19-.11 5.22-1.53 4.21-3.45q-4.14-7.93-8.3-15.84a1.4 1.4 0 0 0-1.33-.59l-24 1.16c-1.97.1-6.36 4.21-2.87 4.03ZM459.72 691.19l22.75-1.1c2.18-.11-.36-1.16.33.15l2.61 5 5.27 10.06 4.21-3.45L471 704c-2.52.23-.69.15-.61.36-.76-1.94-1.51-3.89-2.27-5.83-1.39-3.61-2.8-7.22-4.2-10.83-.77-2-6.38.71-5.54 2.87q3.32 8.52 6.62 17c.17.46.92.62 1.33.59l25.67-2.29c1.19-.11 5.22-1.52 4.21-3.45l-8.29-15.84a1.44 1.44 0 0 0-1.34-.59l-24 1.17c-1.96.09-6.35 4.2-2.86 4.03ZM419.48 693.24l22.75-1.1c2.18-.11-.36-1.17.33.16l2.61 5q2.63 5 5.27 10.06l4.21-3.45-23.88 2.21c-2.52.23-.69.14-.61.35l-2.26-5.82q-2.1-5.43-4.2-10.83c-.78-2-6.38.7-5.55 2.86q3.32 8.54 6.62 17.05c.18.46.92.63 1.33.59l25.67-2.38c1.2-.1 5.22-1.52 4.21-3.44q-4.14-7.94-8.29-15.85a1.41 1.41 0 0 0-1.34-.58l-24 1.16c-1.97.06-6.35 4.18-2.87 4.01ZM497.84 689.25l22.75-1.1c2.18-.11-.37-1.16.33.16l2.61 5q2.63 5 5.26 10.06l4.21-3.47-23.88 2.21c-2.52.23-.69.14-.61.35-.76-2-1.52-3.89-2.26-5.83q-2.11-5.42-4.21-10.82c-.77-2-6.38.7-5.55 2.86l6.63 17.06c.18.45.92.62 1.33.58l25.67-2.38c1.19-.1 5.22-1.52 4.21-3.45q-4.15-7.92-8.29-15.84a1.45 1.45 0 0 0-1.34-.59l-24 1.17c-1.96.09-6.35 4.21-2.86 4.03ZM573 685.44l22.76-1.1c2.17-.11-.36-1.17.33.15l2.61 5 5.26 10 4.21-3.45-23.88 2.21c-2.51.23-.69.15-.6.35-.76-1.94-1.51-3.88-2.27-5.83L577.17 682c-.77-2-6.38.7-5.54 2.86q3.3 8.53 6.62 17.06c.17.45.91.62 1.33.58l25.66-2.37c1.2-.11 5.23-1.53 4.21-3.46l-8.29-15.83a1.43 1.43 0 0 0-1.33-.59l-24 1.16c-1.97.09-6.36 4.2-2.83 4.03ZM532.72 687.48l22.75-1.1c2.18-.1-.36-1.16.33.16l2.61 5 5.26 10.06c1.41-1.16 2.81-2.31 4.22-3.45L544 700.33c-2.52.24-.69.15-.61.36l-2.26-5.83q-2.13-5.41-4.2-10.86c-.77-2-6.38.71-5.54 2.87q3.32 8.52 6.62 17.05c.18.46.92.62 1.33.59l25.66-2.35c1.2-.11 5.23-1.52 4.22-3.45q-4.15-7.92-8.29-15.84a1.45 1.45 0 0 0-1.34-.59l-24 1.17c-1.97.09-6.36 4.2-2.87 4.03ZM265.56 727l22.75-1.11c2.17-.1-.37-1.17.33.16l2.61 5 5.26 9.95 4.21-3.46-23.88 2.22c-2.51.23-.69.14-.61.35-.75-1.94-1.5-3.89-2.26-5.83l-4.2-10.83c-.77-2-6.38.71-5.54 2.87q3.3 8.52 6.62 17c.17.46.91.63 1.33.59l25.66-2.38c1.19-.11 5.22-1.52 4.22-3.45l-8.3-15.84a1.43 1.43 0 0 0-1.33-.59l-24 1.17c-1.97.18-6.36 4.29-2.87 4.18ZM340.68 723.13l22.75-1.13c2.17-.1-.36-1.16.33.16.86 1.66 1.74 3.32 2.61 5q2.63 5 5.26 10.06l4.21-3.45L352 736c-2.51.23-.69.14-.61.35l-2.26-5.83-4.2-10.82c-.77-2-6.38.7-5.55 2.86q3.32 8.52 6.62 17.06c.18.45.92.62 1.34.58l25.66-2.39c1.2-.12 5.23-1.53 4.22-3.45l-8.3-15.85a1.4 1.4 0 0 0-1.33-.58l-24 1.16c-2.01.09-6.4 4.21-2.91 4.04ZM300.44 725.17l22.75-1.1c2.18-.11-.36-1.16.33.15l2.61 5 5.26 10 4.21-3.45-23.87 2.23c-2.52.24-.69.14-.61.36-.76-2-1.51-3.89-2.27-5.83l-4.2-10.83c-.77-2-6.38.71-5.54 2.87q3.3 8.52 6.62 17c.17.45.92.62 1.33.58l25.66-2.37c1.2-.11 5.23-1.52 4.21-3.45q-4.14-7.92-8.29-15.84a1.4 1.4 0 0 0-1.33-.59l-24 1.17c-1.97.16-6.31 4.27-2.87 4.1ZM389.11 725.47l62.44-3.23 15.62-.81 4.39-.23c2.12-.1 1.5.45.57-.63q9.42 10.89 18.85 21.76l4.21-3.45-62.36 3.12-24.64 1.23c-.86 0 1.5 1.11.95.36l-1.23-1.67q-2.76-3.75-5.51-7.52-4.54-6.18-9.08-12.38c-1.39-1.89-6.77 1.19-5.55 2.86l8.36 11.4 5.77 7.88c.58.79 1.53 2.79 2.61 3.05 1.81.45 4.22-.11 6-.21l16.06-.8 65.7-3.29c.89 0 5.61-1.83 4.21-3.45q-9.45-10.89-18.89-21.8c-1.05-1.21-4.32-.43-5.67-.36l-15.35.79-64.57 3.34c-2 .11-6.38 4.22-2.89 4.04ZM500.75 721l22.74-1.11c2.18-.1-.35-1.16.34.16l2.61 5 5.26 10.06 4.21-3.45-23.91 2.15c-2.51.23-.69.14-.6.35-.76-1.94-1.51-3.89-2.27-5.83L505 717.51c-.77-2-6.39.7-5.54 2.86q3.3 8.53 6.61 17c.18.46.92.63 1.34.59l25.59-2.33c1.2-.11 5.22-1.52 4.21-3.45q-4.14-7.92-8.29-15.84a1.43 1.43 0 0 0-1.33-.59l-24 1.17c-1.94.08-6.33 4.2-2.84 4.08ZM572.51 719.13l31.76-1.57 5.13-.26c1.26-.06-1.23-1.07-.63-.32l2.16 2.7L621 732.32c1.41-1.15 2.81-2.29 4.21-3.45l-33.05 2.57-6.2.47c-1.4.12.09-.19.53.57l-1.49-2.56-8.28-14.25c-1.15-2-6.64 1-5.55 2.87q4.91 8.44 9.83 16.89a1.44 1.44 0 0 0 1.33.59l40-3.11c.91-.07 5.56-1.76 4.2-3.45l-10.07-12.64c-2.49-3.13-2.92-3.61-6.84-3.42l-34.24 1.69c-1.97.09-6.38 4.21-2.87 4.04ZM535.62 717.73l22.76-1.1c2.18-.11-.36-1.17.33.15l2.61 5 5.26 10.05 4.21-3.45-23.88 2.21c-2.51.24-.68.15-.6.35-.76-1.94-1.51-3.88-2.27-5.83l-4.2-10.82c-.77-2-6.38.71-5.55 2.87l6.63 17.05c.17.46.91.62 1.32.58l25.67-2.37c1.2-.11 5.22-1.52 4.22-3.45l-8.3-15.84a1.41 1.41 0 0 0-1.33-.59l-24 1.16c-1.97.09-6.36 4.2-2.88 4.03Z" class="colorfe6a3c svgShape"></path><path fill="#2c16b8" d="M352.38 367.3c.48.27 168.85-29.16 189.68 11.68 14.66 28.77 16.73 130.26-25.74 157.87-27.55 16.88-57.33 29.47-116 23.94-23.15 10.66-39 23.42-62.83 32q8.24-19.41 16.17-38.14c-1.73-.46-3.1-.87-4-1.16-22.39-6.35-38.39-61.27-39-112.85-.48-51.79 10.34-77.64 41.72-73.34Z" class="color1693b8 svgShape"></path><path fill="#ffffff" d="M356.78 418.81a3.72 3.72 0 0 1-.11-.6v-.49h-.24a1.58 1.58 0 0 1 0-.28 3.2 3.2 0 0 0-.31-1.23c-.17-.4-.32-.78-.46-1.2a13.29 13.29 0 0 0-.92-1.48 3.09 3.09 0 0 0-1-.95 2.74 2.74 0 0 0-1-.62 2.57 2.57 0 0 0-.81-.19 2.75 2.75 0 0 0-.82.18l-1.08.34-.13.07c-.36.27-.8.57-1.33.91a8.27 8.27 0 0 0-1.43 1.12 8.12 8.12 0 0 0-1.21 1.66c-.38.67-.83 1.38-1.38 2.19a25.85 25.85 0 0 0-1.51 4.59 12 12 0 0 0-.24 2.15v2.43a21.61 21.61 0 0 0 .14 2.46c.08.84.13 1.51.13 2a16.5 16.5 0 0 0 .16 2.2c.1.81.22 1.59.34 2.34v.11a4.88 4.88 0 0 1 .42 1.6v1.19a4.89 4.89 0 0 0 .17 1.17 6.17 6.17 0 0 0 .58 1.46c.12.36.24.75.38 1.18a2.48 2.48 0 0 0 .5 1l.08.1h.15s.1.1.12.52a4.48 4.48 0 0 0 .52 1.47c.31.74.65 1.54 1 2.41s.76 1.77 1.18 2.66a18.29 18.29 0 0 1 .79 1.82 6.46 6.46 0 0 0 .49 1.11 4.22 4.22 0 0 1 .21.45v.74a2.61 2.61 0 0 0 .5 1.24A12.69 12.69 0 0 1 351 458a8 8 0 0 1 .15 1.51v.11a5.63 5.63 0 0 1 .08 1.69c-.06.71-.09 1.33-.09 1.84s-.23 1.09-.33 1.73a12 12 0 0 0-.17 1.84 6.43 6.43 0 0 1-.21 1.37v.12a1.45 1.45 0 0 1-.1.3 2.24 2.24 0 0 0-.17.91 4.07 4.07 0 0 1-.31 1.14 7.56 7.56 0 0 1-.85 1.61c-.27.51-.56 1-.85 1.54s-.49.88-.62 1.16a4.59 4.59 0 0 1-1.67 1.06 4 4 0 0 1-1.23.11 5.82 5.82 0 0 1-1.44-.57h-.1a3.74 3.74 0 0 1-1.27-.58 7.67 7.67 0 0 1-1-.82l-.14-.1a1.27 1.27 0 0 1-.52-.6 10.5 10.5 0 0 0-.73-1.17q-.17-.5-.33-1.08c-.13-.43-.26-.8-.38-1.1a5.77 5.77 0 0 1-.32-1 5 5 0 0 1-.14-1.08v-.16a5.8 5.8 0 0 1-.19-1.49c0-.71-.05-1.32-.05-1.82a11.85 11.85 0 0 1 .13-1.6 11.2 11.2 0 0 0 .14-1.3c.14-.44.19-.74.05-1s-.51-.35-1-.35a1.36 1.36 0 0 0-1.15.39l-.16.15v6.53c.12.63.25 1.26.39 1.88a7.45 7.45 0 0 0 .41 1.43l.1.14a1.54 1.54 0 0 1 .21.53 2.75 2.75 0 0 1 .14.61 2.91 2.91 0 0 0 .19 1 2.33 2.33 0 0 0 .4.76 2.18 2.18 0 0 0 .68.84.6.6 0 0 0 .08.16 1 1 0 0 0 .17.2 1.82 1.82 0 0 0 .89.94 5 5 0 0 0 .81.52 2.57 2.57 0 0 1 .62.42 2.28 2.28 0 0 0 1.32.63l.55.08.23.09a2.86 2.86 0 0 0 .73.57 1.15 1.15 0 0 0 .55.11 3.53 3.53 0 0 0 .77-.1 5.58 5.58 0 0 0 1.23-.17 2.52 2.52 0 0 0 1-.4 5.76 5.76 0 0 0 .87-.51 5.63 5.63 0 0 0 .6-.46 1.66 1.66 0 0 0 .68-.82 7.87 7.87 0 0 0 .5-1.15 8.66 8.66 0 0 0 .89-1.68l.9-2.1c.27-.88.51-1.73.71-2.53a9.24 9.24 0 0 0 .3-2.08 14.58 14.58 0 0 1 .15-1.85c.11-.75.22-1.44.34-2.1a19.32 19.32 0 0 0 .19-2.27 7.09 7.09 0 0 0-.21-1.64c-.12-.36-.28-.87-.49-1.53a13.66 13.66 0 0 1-.48-1.88v-.1c-.27-.62-.5-1.2-.69-1.73a4.69 4.69 0 0 1-.26-.83V452l-.15-.14a1.48 1.48 0 0 1-.24-.37.71.71 0 0 1-.11-.28v-.19c-.12-.27-.31-.72-.56-1.34a14.91 14.91 0 0 0-.92-1.88c-.27-.75-.59-1.73-1-2.95v-.12l-.08-.08a1.72 1.72 0 0 1-.29-.49l-.4-.9a10.13 10.13 0 0 1-1-2.21 8.75 8.75 0 0 1-.32-.82 2 2 0 0 1-.13-.69 5.12 5.12 0 0 0-.13-.86 5.84 5.84 0 0 1-.1-.9 4.66 4.66 0 0 0-.15-1.18 3.3 3.3 0 0 1-.12-.8v-.5a.8.8 0 0 0-.23-.54c0-.12-.06-.28-.12-.51a4.64 4.64 0 0 1-.12-1.16v-.15a8.21 8.21 0 0 1-.18-2v-3.53a28 28 0 0 1 .15-3.47 15.33 15.33 0 0 1 .56-2.37 14.45 14.45 0 0 1 .5-1.69 5.37 5.37 0 0 1 .67-1.38 13.77 13.77 0 0 0 .89-1.35c.34-.57.55-.71.63-.74l1-1a3.53 3.53 0 0 0 .64-.84 7.57 7.57 0 0 0 .78-.42 1.22 1.22 0 0 1 .62-.22h1a10.6 10.6 0 0 1 1.08 1.78 5.23 5.23 0 0 1 .67 1.4c.23.66.47 1.31.74 1.92.11.61.21 1.18.3 1.7a4.85 4.85 0 0 1-.05 1.68 8.21 8.21 0 0 1-.15 1.51 11 11 0 0 1-.32 1.31v.15a3.73 3.73 0 0 1-.12.94 4.15 4.15 0 0 0-.15 1.05 1.1 1.1 0 0 1-.08.33 2.7 2.7 0 0 0-.14.78 3 3 0 0 0-.27 1.37v.43a.41.41 0 0 0-.09.1.94.94 0 0 0-.14.73v.71h.49a1.22 1.22 0 0 0 .89-.62 5.78 5.78 0 0 0 .55-.93c.12-.27.29-.67.5-1.18s.39-1 .51-1.34v-.16c0-.34 0-.87.11-1.57a15 15 0 0 0 .11-1.81 10.32 10.32 0 0 0 0-4.11 7 7 0 0 0-.25-1.29ZM384.05 475.84l-.11-.06h-.12a6.06 6.06 0 0 0-.79.05 2.64 2.64 0 0 0-.89.33 2.89 2.89 0 0 1-1.2.19h-3a18.92 18.92 0 0 1-2.92-.17 12.93 12.93 0 0 1-1.65-.4c-.58-.15-1.2-.29-1.86-.41a32.74 32.74 0 0 0-4.61-.22 6 6 0 0 1-1.7-.22h-.16a5.23 5.23 0 0 1-1.27-.17 2 2 0 0 1-.71-.26 5 5 0 0 1-.75-1.58 6.16 6.16 0 0 1-.22-1.82v-2.36a20.88 20.88 0 0 1 .16-2.11c.1-1 .16-2 .16-2.85s0-2 .13-3.09.14-1.91.14-2.49a7.49 7.49 0 0 1 .15-1.53 6.38 6.38 0 0 0 .16-1.09 9.28 9.28 0 0 1 .13-1.16 10.48 10.48 0 0 0 .14-1.77v-3.52l-.17-.8.7-.16.13-.05a2 2 0 0 1 .93-.16 3.88 3.88 0 0 1 1.29.2h.15l1.35.05 2.25.07h3.21a1.25 1.25 0 0 0 .82-.2 1.89 1.89 0 0 0 .43-.59 2 2 0 0 0 .41-1.08l.07-.55h-4.18l-2.76-.07h-2.19a25 25 0 0 1-2.71-.08c0-.09 0-.46.14-1.72.09-1 .13-2.22.13-3.56a49.69 49.69 0 0 1 .32-5 .77.77 0 0 1 .08-.27 1.93 1.93 0 0 0 .19-.9c0-.17 0-.69.16-2.16.1-1.22.16-2.56.16-4 0-1.6 0-3.32.13-5.1s.14-3.2.14-4.23v-2.92a5.19 5.19 0 0 1 .06-.68 7.57 7.57 0 0 1 1.6.23 16.67 16.67 0 0 0 1.81.46 16.5 16.5 0 0 1 1.66.43 8.36 8.36 0 0 0 1.32.34c.61.12 1.27.25 2 .36s1.42.24 2.1.34l1.5.24c1.24.33 1.72.49 1.9.56a.86.86 0 0 1 .36.29 1 1 0 0 0 0 .26.56.56 0 0 0 .54.46h.11c.18 0 .33-.12 1-.83a6.1 6.1 0 0 0 .91-1 .75.75 0 0 0 .09-.59.84.84 0 0 0-.36-.48c-.23-.37-.83-.49-1.23-.56a11 11 0 0 0-2.05-.19c-.7-.15-1.36-.29-2-.44a2.92 2.92 0 0 1-1-.32l-.17-.14h-.2l-.66-.05c-.39 0-.82-.06-1.3-.11l-1.41-.14c-.49 0-.85-.07-1.1-.07a4.68 4.68 0 0 1-1.21-.16 1.75 1.75 0 0 1-.33-.11v-.31H368a1.11 1.11 0 0 1-.39-.12 2 2 0 0 0-.76-.2s0 .1-.35-.21a6.34 6.34 0 0 0-.88-.58 5.28 5.28 0 0 0-1.06-.45 3.49 3.49 0 0 0-1-.2 1.9 1.9 0 0 0-.37 0 .65.65 0 0 0-.6.52 1.43 1.43 0 0 0-.29.74 4.23 4.23 0 0 0-.05.64c0 .08 0 .54-.14 2.68-.09 1.66-.14 3.61-.14 5.8s-.05 4.43-.15 6.28-.16 3.1-.16 3.68a12.88 12.88 0 0 1-.17 1.75 19.72 19.72 0 0 1-.4 2v.12c0 .56 0 1.47-.13 2.69s-.14 2.41-.14 3.44v10.28a21.37 21.37 0 0 1-.15 2.38 20.59 20.59 0 0 0-.16 2.2 19.39 19.39 0 0 0-.4 2.83 40.89 40.89 0 0 0-.19 4c0 1.16 0 2.31-.13 3.41s-.14 1.86-.14 2.14c0 .47 0 1.21.16 2.26a18.15 18.15 0 0 0 .38 2.4 17.91 17.91 0 0 0 .14 2.1 11.11 11.11 0 0 1 .13 1.35 7.77 7.77 0 0 0 0 .85.82.82 0 0 0 .54.78 1.07 1.07 0 0 0 .66.24 1.1 1.1 0 0 0 .79-.38 3.51 3.51 0 0 0 .47-.76 2.36 2.36 0 0 0 .23-1v-.3a2 2 0 0 1 .34.25l.14.15h.2a11 11 0 0 1 1.35.15c1.49.23 3.15.13 4.68.3a21.37 21.37 0 0 0 2.18.13 12 12 0 0 1 1.77.18c.77.12 1.52.25 2.25.4s1.33.23 1.85.34.92.09 1.11 0 .45-.06.91-.15a9.43 9.43 0 0 1 1.79-.15c1.73 0 2.59 0 2.8-.54a1.43 1.43 0 0 0 .31-.81 1.76 1.76 0 0 0-.12-.63 1.52 1.52 0 0 0-.66-.78ZM410.46 458.66a1.06 1.06 0 0 0-.78.34 1.1 1.1 0 0 0-.34.77v3.7a30.79 30.79 0 0 1-.32 3.74 2.74 2.74 0 0 1-.16.72c-.12.42-.25.85-.37 1.23a8.78 8.78 0 0 1-.79 1.18 11.78 11.78 0 0 1-1 1.21 7.49 7.49 0 0 1-1 .83 10 10 0 0 0-.87.7l-1.51 1.51a3.3 3.3 0 0 1-1.19.22h-.38a4.27 4.27 0 0 0-1.44.35l-.31.12v.07h-.1a3.39 3.39 0 0 1-1.11-.2h-.15a8.75 8.75 0 0 1-1.58-.18 4.77 4.77 0 0 1-1.36-.38 6.76 6.76 0 0 1-.94-.45v-.21l-.16-.16c-.48-.52-.87-.92-1.17-1.22a11.75 11.75 0 0 0-.79-1.27 6.27 6.27 0 0 1-.73-1.39c-.15-.45-.33-1-.56-1.67a4.44 4.44 0 0 1-.31-1.28 6.67 6.67 0 0 0-.22-1.63 7 7 0 0 0-.44-1.34c-.21-.89-.27-1.2-.29-1.3v-.06a1.84 1.84 0 0 1 .13-.52 3 3 0 0 0 .19-1.06c0-.43.05-1.13.15-2.07a25.36 25.36 0 0 0 .16-2.81A24.18 24.18 0 0 0 391 453c0-1.09.05-2 .05-2.59a10.49 10.49 0 0 0-.21-2.05 6.43 6.43 0 0 0-.45-1.53c-.14-.43-.28-.94-.41-1.51a6.34 6.34 0 0 1-.19-1.44 8.92 8.92 0 0 1 .15-1.5 11.26 11.26 0 0 0 .16-1.93 4.68 4.68 0 0 1 .15-1.19 4.28 4.28 0 0 0 .17-1c0-.05 0-.3.2-1.58l.43-3.11a30.84 30.84 0 0 1 .15-3.26c.15-1.29.16-1.58.16-1.7a4 4 0 0 1 .15-.69 4.71 4.71 0 0 0 .17-1.16 4.63 4.63 0 0 1 .12-.95 4.1 4.1 0 0 0 .15-.94 1.63 1.63 0 0 1 .13-.49 3.14 3.14 0 0 0 .19-1.05 1.65 1.65 0 0 1 .16-.7 1.92 1.92 0 0 1 .32-.53l.09-.12a14.24 14.24 0 0 0 1-2.91 5 5 0 0 1 1-2.2 12.24 12.24 0 0 0 1.26-.8c.55-.39 1-.73 1.44-1 .91-.45 1.62-.77 2.11-1a4.89 4.89 0 0 1 1.73-.26 4.1 4.1 0 0 1 1.32.17c.29.11.56.23.81.35a3.68 3.68 0 0 0 1 1l.11.08h.13a1 1 0 0 1 .61.42l.16.12a1.19 1.19 0 0 1 .5.57 4.34 4.34 0 0 0 .46.78c0 .17.08.45.2.95s.28 1.12.42 1.73c.15.78.3 1.58.43 2.42a13 13 0 0 1 .2 1.86 5.66 5.66 0 0 0 .17 1.43c.06.25.1.42.12.54h-.29v2.85h.44a1.65 1.65 0 0 0 1.27-.44l.12-.15a3.76 3.76 0 0 0 .32-1.31v-2.33a17.16 17.16 0 0 0-.16-2.23 16.94 16.94 0 0 1-.15-2.1v-.16c-.15-.44-.28-.88-.4-1.32a4 4 0 0 1-.16-1 3.38 3.38 0 0 0-.23-1 8.14 8.14 0 0 0-.45-1.12 7 7 0 0 0-.73-1.12 3.3 3.3 0 0 0-1.07-.95 6 6 0 0 1-1-.73 4.94 4.94 0 0 0-1.51-.88l-1.33-.41a3.83 3.83 0 0 0-1-.19h-1.7l-.12.06a4.33 4.33 0 0 1-1.61.52c-.19 0-.44.05-1.49.68-.67.41-1.4.83-2.22 1.31-1.09.78-1.89 1.4-2.4 1.82a2.32 2.32 0 0 0-.91 1.56 8.7 8.7 0 0 0-.39 1.07 4.67 4.67 0 0 0-.2 1.17 4.17 4.17 0 0 1-.58 1.68 7.84 7.84 0 0 0-.52 2.07c-.16 1-.32 2.14-.46 3.35a34 34 0 0 0-.71 3.93 26.35 26.35 0 0 0-.25 3A14.25 14.25 0 0 1 388 436a14.56 14.56 0 0 0-.16 1.7 4.89 4.89 0 0 1-.12 1 6 6 0 0 0-.15 1.08 4 4 0 0 0-.27 1.37V444.33a3.07 3.07 0 0 0 .27 1.31 7.88 7.88 0 0 0 .15 1 5.43 5.43 0 0 1 .12 1v.11l.05.11a3.39 3.39 0 0 1 .28.79 4 4 0 0 0 .3.94v1.15a5.14 5.14 0 0 1-.25 1.38v.16c0 .44-.06 1.32-.16 2.62s-.16 2.65-.16 3.92v2.52c0 .67 0 1.28.05 1.83a13.18 13.18 0 0 0 .19 1.66c.09.53.23 1.16.4 1.83a23.79 23.79 0 0 0 .69 2.65 9.31 9.31 0 0 0 .93 2.16 7.15 7.15 0 0 0 1.06 1.82l1.52 2.06c1.38 1.32 2.37 1.95 3.13 2a1.4 1.4 0 0 1 .64.15l.14.08v.31l.39.08a13.79 13.79 0 0 0 2.57.32 8.5 8.5 0 0 0 1.92-.21 7.06 7.06 0 0 0 1.35-.44 6.7 6.7 0 0 0 1.47-.73 8.53 8.53 0 0 0 1.2-1l2.8-2.79a18 18 0 0 0 1.34-1.51c.51-.63.73-.88.82-1l.09-.13a16.17 16.17 0 0 0 .65-1.58v-.17a2.74 2.74 0 0 1 .14-.71 5.22 5.22 0 0 0 .17-1.07 4.77 4.77 0 0 0 .27-1.56v-2a7.74 7.74 0 0 1 .15-1.37 6.55 6.55 0 0 0 .17-1.08 2 2 0 0 0-.43-1.56 2.06 2.06 0 0 0-1.26-.72ZM442.77 439.13V439c-.18-.66-.34-1.28-.47-1.87a6.28 6.28 0 0 1-.19-1.29c0-.1 0-.47.18-1.93a36.3 36.3 0 0 0 .17-3.92 38.72 38.72 0 0 0 .3-4.67V417.63h-1.16a2.08 2.08 0 0 0-.63.09 1.41 1.41 0 0 0-.71.74 1.43 1.43 0 0 0-.37 1 14.33 14.33 0 0 0 .29 2.07 8.06 8.06 0 0 1 .28 1.87v1.25a7.72 7.72 0 0 1-.15 1.28 9.86 9.86 0 0 0-.17 1.69v2.4a22.24 22.24 0 0 1-.32 3.19 34.07 34.07 0 0 0 .21 3.68 19.73 19.73 0 0 0 .47 2.92c0 .5.06 1.23.16 2.22a29.44 29.44 0 0 1 .15 2.95v2.94a14.51 14.51 0 0 1-.27 2.83 9.43 9.43 0 0 0-.31 2.36v1.74a13.41 13.41 0 0 1-.19 1.41c-.13.79-.29 1.6-.45 2.33a28.1 28.1 0 0 0-1 3.17 25.38 25.38 0 0 1-1 3.05 18.66 18.66 0 0 0-.79 2.31 3.72 3.72 0 0 1-.23.68h-.32v.48a3.19 3.19 0 0 1-.22.76 6.21 6.21 0 0 1-.69 1.27c-.33.47-.7 1-1.14 1.55a15.15 15.15 0 0 1-1.1 1.31l-.11.17a3.08 3.08 0 0 1-.88 1.18 7.79 7.79 0 0 1-1.09.83 11.29 11.29 0 0 1-1.43.44 7.27 7.27 0 0 1-2.37-.11 14.1 14.1 0 0 1-2.09-.08c-.11 0-.26-.08-.45-.4a2 2 0 0 0-1.38-.83.22.22 0 0 1-.17-.07l-.48-.46a4.62 4.62 0 0 1-.61-1 14.37 14.37 0 0 0-.95-1.58 10.78 10.78 0 0 1-.9-1.68c-.3-.7-.55-1.23-.71-1.51a10 10 0 0 1-.43-1.51 6.67 6.67 0 0 1-.17-1.25 10.54 10.54 0 0 0-.17-1.36 12.65 12.65 0 0 1-.15-1.93c0-.5-.06-1.3-.18-2.44a26.46 26.46 0 0 1-.18-2.83c0-1-.05-2.29-.16-3.85s-.15-2.87-.15-4c0-1.32-.06-2.88-.16-4.62s-.16-3.26-.16-4.57v-3.76a11.42 11.42 0 0 1 .28-2.65v-.13a9.51 9.51 0 0 1 .19-1.71 10.52 10.52 0 0 1 .45-1.72v-.17a8.75 8.75 0 0 1 .15-1.52 8.94 8.94 0 0 0 .17-1.46c0-.31.06-1 .17-1.95s.27-2.07.46-3.28a37.35 37.35 0 0 1 .18-3.74c.12-1.21.18-2.17.18-2.84v-2.14l-.14-.15c-.19-.18-.22-.27-.22-.28a.81.81 0 0 0-.81-.53h-.24l-.14.18a1.76 1.76 0 0 0-.41.86 2.72 2.72 0 0 0-.33 1.07 12.12 12.12 0 0 1-.17 1.54 14.73 14.73 0 0 0-.19 2.42 19.9 19.9 0 0 1-.15 2.42 16.57 16.57 0 0 0-.16 1.82 8.24 8.24 0 0 1-.15 1.31 11.58 11.58 0 0 0-.17 2 6.7 6.7 0 0 1-.17 1.43 5.93 5.93 0 0 0-.19 1.19 4.9 4.9 0 0 1-.17 1 10.52 10.52 0 0 1-.43 1.47v.17a15 15 0 0 1-.15 2.05 14.16 14.16 0 0 0-.16 1.83 6.63 6.63 0 0 0-.32 1.89c0 .75-.05 1.45-.05 2.12a20.08 20.08 0 0 0 .19 2.29 24.27 24.27 0 0 1 .17 2.94c0 .82.06 2.1.16 3.82s.16 3.29.16 4.74.05 3 .16 4.57.15 2.63.15 3.28a12.41 12.41 0 0 0 .17 1.83 10.91 10.91 0 0 1 .15 1.46 6 6 0 0 0 .19 1.19 6.69 6.69 0 0 1 .17 1.42 9.19 9.19 0 0 0 .19 1.58 5.38 5.38 0 0 0 .47 1.57 10 10 0 0 0 .88 1.71 8.7 8.7 0 0 1 .79 1.54l.06.1c.32.47.62.95.9 1.42s.52.87.69 1.2l.09.11c.18.18.51.5 1 1l.13.13h.2s.27 0 1 .85a3.33 3.33 0 0 0 1.56 1 16.61 16.61 0 0 0 2.7.14 17.11 17.11 0 0 0 2.62-.21 10.89 10.89 0 0 0 2.22-.52c.34-.19.71-.41 1.13-.67a5.75 5.75 0 0 0 1-.72 7.35 7.35 0 0 0 .71-.88 6.9 6.9 0 0 1 .6-.75l.08-.11a9.13 9.13 0 0 1 .61-.92 8.06 8.06 0 0 0 .7-1.06l.06-.11v-.12a2 2 0 0 1 .14-.74 1.58 1.58 0 0 1 .35-.54 5.51 5.51 0 0 0 .8-1.25c.31-.57.62-1.19 1-1.95.18-.65.4-1.4.65-2.23s.47-1.49.61-1.9a6.16 6.16 0 0 0 .55-1.73c.15-.74.32-1.51.49-2.29s.39-1.52.64-2.57a14.46 14.46 0 0 0 .37-3.15 19 19 0 0 1 .15-2.38c.11-.86.15-1.24.16-1.42a5.09 5.09 0 0 0 .3-1.92v-2.8c0-.99 0-2.11-.16-3.29s-.22-2.19-.22-2.98ZM467.62 475.76a3.8 3.8 0 0 1-.42-.52 8.31 8.31 0 0 1-.87-1.65c-.4-.67-.77-1.27-1.13-1.78a2 2 0 0 1-.43-.9 1.83 1.83 0 0 0-.23-.77l-.35-.78c-.12-.27-.25-.57-.38-.91s-.24-.6-.35-.85a2.83 2.83 0 0 0-.38-1.27 6.09 6.09 0 0 0-.33-.52l-.45-.75c-.41-.68-.76-1.28-1-1.81l-.09-.13a6.51 6.51 0 0 1-1.1-1.63 17.86 17.86 0 0 0-1.2-2 14.74 14.74 0 0 0-1.08-2.07c-.44-.72-.8-1.27-1-1.61a11.35 11.35 0 0 0-.82-1.43 6.21 6.21 0 0 0-.56-.75 15.75 15.75 0 0 0-1-1.78 3.79 3.79 0 0 0-.75-1.26 3.75 3.75 0 0 1-.6-.84l-.1-.15a6.56 6.56 0 0 1-.73-.88 9.49 9.49 0 0 0-.76-.93 3.55 3.55 0 0 0-.5-1 4.85 4.85 0 0 0 .76-.44c.28-.12.65-.31 1.11-.56A4.62 4.62 0 0 0 454 445a5.75 5.75 0 0 1 .89-.7 4.85 4.85 0 0 0 1.77-1.42 12.54 12.54 0 0 0 1.1-1.28c.45-.57.8-1.05 1.05-1.41a6.63 6.63 0 0 0 1.22-2.15c.21-.67.46-1.62.71-2.77a12.09 12.09 0 0 0 .73-3c.08-.85.11-2 .11-3.25a16.42 16.42 0 0 0 0-3.25c-.1-.79-.2-1.53-.32-2.2a11.19 11.19 0 0 0-.57-2c-.23-.61-.41-1.1-.53-1.48s-.3-.94-.55-1.64l-.11-.33h-.2a1.78 1.78 0 0 1-.11-.21 7 7 0 0 0-.63-1.09 4.85 4.85 0 0 0-.58-1.19 5.49 5.49 0 0 0-.6-.79l-.67-.69c-.33-.35-.64-.66-1-1a6.21 6.21 0 0 0-1.21-.68 8.25 8.25 0 0 0-1.72-.45 4.17 4.17 0 0 1-1-.11 3.25 3.25 0 0 0-.84-.15h-1.28a6.17 6.17 0 0 0-1 .58 5.08 5.08 0 0 1-.84.5l-.15.1a2.62 2.62 0 0 0-.78 1.12 1.48 1.48 0 0 0 .11.93.78.78 0 0 0 .59.61H447.8a7.6 7.6 0 0 0 .27 1.42 32.67 32.67 0 0 1-.27 4.17 19.45 19.45 0 0 1-.14 2.16 18.45 18.45 0 0 0-.13 1.85v8.45c-.12 2-.2 3.82-.23 5.47s0 2.57 0 3a5.63 5.63 0 0 0-.18 1.53 8.38 8.38 0 0 0 .18 1.75 21.83 21.83 0 0 0 .14 2.27c.08.84.13 1.58.13 2.23a16.24 16.24 0 0 0 .14 2.07c.1.81.13 1.18.13 1.35v.15a5 5 0 0 1 .21 1v.68c0 .11 0 .2.14 3.33.08 2.07.13 4.53.13 7.31v7.28a11.89 11.89 0 0 0 .23 3.32l.06.11.07.07.24.18h.2a.94.94 0 0 0 .4-.1 2.29 2.29 0 0 0 .58-.35 2.1 2.1 0 0 0 .66-.45c.22-.26.25-.65.1-1.37 0-.36-.06-1.45-.14-3.33s-.14-4.22-.14-6.71 0-4.79-.13-6.74-.13-3.06-.13-3.32 0-.34-.05-.62a3.33 3.33 0 0 0-.23-.83 10.09 10.09 0 0 0-.14-1.26 12.66 12.66 0 0 1-.13-1.79v-.72a10.77 10.77 0 0 1 .86 1c.34.46.64.89.93 1.29a7.93 7.93 0 0 1 1 1.49v.16l.08.15c.94 1.59 1.73 2.93 2.4 4s1.23 2.07 1.72 3 .79 1.49.91 1.75a7.23 7.23 0 0 0 .41.79 1.4 1.4 0 0 0 .39.41 4.25 4.25 0 0 0 .79 1.24 7.35 7.35 0 0 0 .53 1.28 2.11 2.11 0 0 0 .66.95 1.34 1.34 0 0 1 .33.95 3 3 0 0 0 .37 1.27c.2.43.37.78.46 1a8.7 8.7 0 0 0 .6 1.41 12.58 12.58 0 0 0 .82 1.38c.26.38.56.88.9 1.49a19.73 19.73 0 0 1 .91 1.91c.82 1.78 1.27 2.14 1.71 2.14h.11a1.93 1.93 0 0 0 1.09-.41l.1-.15a2.6 2.6 0 0 0 .31-1.23.77.77 0 0 0-.54-.67Zm-18-35.15c0-1.07.05-2.65.14-4.69s.13-4 .13-5.9.05-3.6.14-5.2.13-2.64.13-3.05a6.64 6.64 0 0 1 .13-1.19 6.36 6.36 0 0 0 .15-1.2c0-.27 0-.7-.05-1.26a6.57 6.57 0 0 0-.23-1.47 5.39 5.39 0 0 0-.19-1.32 4 4 0 0 0-.31-.83l.23-.07v-.16l.29-.1a6.42 6.42 0 0 1 3.66.24l1.89 1.89a5.21 5.21 0 0 1 .65.82 2.18 2.18 0 0 1 .24.42 1.58 1.58 0 0 0 .25.73 1.12 1.12 0 0 0 .49.5 4.21 4.21 0 0 1 .26.6 6.48 6.48 0 0 0 .67 1.31c.11.36.21.75.31 1.16a3.8 3.8 0 0 1 .14.74 3.32 3.32 0 0 0 .21 1.09q.17.48.33.87c0 .31.06.86.14 1.65a23.71 23.71 0 0 1 .13 2.48 21.54 21.54 0 0 1-.17 2.68A6.86 6.86 0 0 1 459 433v.2a7.82 7.82 0 0 1-.17 1.39 6.68 6.68 0 0 1-.57 1.66 12.35 12.35 0 0 1-.53 1.37c-.23.56-.41 1-.51 1.2a6.9 6.9 0 0 1-1.22 1.46l-.1.15c-.2.4-.36.52-.42.53l-.2.06a4.3 4.3 0 0 0-.91.62l-.1.15a2.25 2.25 0 0 1-.71.73c-.44.34-.86.65-1.25.91l-1.58 1.13-1.32-.74ZM475.06 460.17V450.82a28.83 28.83 0 0 0-.29-4.39c0-1.11-.05-2.67-.16-4.62s-.15-3.8-.15-5.52-.06-3.39-.16-4.88-.16-2.38-.16-2.7v-.12l-.06-.11a2 2 0 0 1-.23-.91v-1.11c0-.33.05-1.19.15-2.58s.16-3.1.16-5v-5.13c0-1.04-.09-2-.78-2a1 1 0 0 0-.89.59 2.05 2.05 0 0 0-.22.66 5.05 5.05 0 0 0-.46 1.93 35.82 35.82 0 0 0-.18 4v9.97a9.91 9.91 0 0 0 .29 2.45c0 .52.06 1.56.16 3.18s.16 3.44.16 5.31.05 4.05.15 6.42.16 4.36.16 5.94v10.74a.84.84 0 0 0 .29.63v.85a3 3 0 0 0-.32 1.08 1 1 0 0 1-.17.56l-.14.14v.2a12.67 12.67 0 0 1-.16 1.51 19.52 19.52 0 0 0-.16 2.59 20.26 20.26 0 0 1-.18 2.58 9.52 9.52 0 0 1-.43 2.07 3.58 3.58 0 0 0-.24 1.48 1.3 1.3 0 0 0 .73.94c.46.47.57.54.66.58l.14.06h.11a1 1 0 0 0 .68-.38 2.23 2.23 0 0 0 .7-1.32 12.53 12.53 0 0 0 .07-1.54c0-.47.06-1.17.16-2.09a26.45 26.45 0 0 0 .16-2.7 25.66 25.66 0 0 1 .17-2.87 16.13 16.13 0 0 1 .45-2.38 13.39 13.39 0 0 0 .3-1.82V462.13l-.14-.15a4.88 4.88 0 0 1-.17-1.81ZM496.54 414.64c-.38 0-1 0-1.8-.07a21.81 21.81 0 0 1-4.93-1.21l-2.21-.36c-.79-.15-3.51 0-3.85-.07-.62-.24-.93-.37-1.08-.44a.69.69 0 0 0-.53-.34 3.32 3.32 0 0 0-.47 0 1.76 1.76 0 0 0-1.12.66l-.07.09a1.35 1.35 0 0 0 .09 1.66 2.34 2.34 0 0 0 1 .48 4.71 4.71 0 0 0 1.47.2l3.64-.09.2 1.15v10.41a9.5 9.5 0 0 1-.13 1.42 12.51 12.51 0 0 0-.14 1.78c0 .38-.05 1.15-.13 2.31s-.14 2.46-.14 3.82-.05 3.12-.14 5.32-.13 4.27-.13 6.13c0 1.69 0 3.26-.13 4.66-.08 1.23-.13 2-.14 2.4a2.8 2.8 0 0 0-.22 1.19c0 .59-.05 1.22-.05 1.82a23.18 23.18 0 0 0-.23 2.33v1.49a6.07 6.07 0 0 1-.11 1 7 7 0 0 0-.12 1.14 2.52 2.52 0 0 1-.12.58 4.41 4.41 0 0 0-.14.89 4.15 4.15 0 0 0-.36 1.29 13.2 13.2 0 0 0-.19 2.34c0 .8 0 1.77-.13 2.89s-.14 2.15-.14 3v2.65c0 .24.07.92.58 1a2.06 2.06 0 0 0 .77.19.87.87 0 0 0 .74-.33 2.19 2.19 0 0 0 .42-.61 1.61 1.61 0 0 0 0-1.15 12 12 0 0 0-.14-1.25 8.19 8.19 0 0 1-.13-1.34v-1.85a10.88 10.88 0 0 1 .21-1.79v-.11a10.72 10.72 0 0 1 .13-1.64 11.43 11.43 0 0 0 .14-1.55 7.76 7.76 0 0 1 .17-1.62 13.93 13.93 0 0 1 .35-1.44 8.17 8.17 0 0 0 .24-1.93c0-.82.05-1.56.05-2.23a22.07 22.07 0 0 1 .18-2.49q.18-1.55.36-2.76c.12-.94.19-1.8.23-2.55s0-1.26 0-1.53v-.2a4.11 4.11 0 0 1-.19-1.37v-5.25c0-1.27.11-2.43.23-3.55s0-2.3.13-3.68.14-2.59.14-3.53.05-1.76.14-2.87.13-2.05.12-2.63a20.68 20.68 0 0 0 .24-3.14v-8.33a11.88 11.88 0 0 0 1.6.59 11.5 11.5 0 0 0 2.22.58 4.78 4.78 0 0 0 1.22.2 3.68 3.68 0 0 1 1.5.15l.09.06a.87.87 0 0 0 .9.63h.21a1.91 1.91 0 0 0 1-.72l.07-.1a2.64 2.64 0 0 0 .31-1.28c.04-1.04-1.22-1.08-1.68-1.1ZM522.43 412.77a1.18 1.18 0 0 0-.84-.37c-.5 0-.85.55-1.16 1.15l-1 1.91c-.36.69-.7 1.33-1 1.93a2.2 2.2 0 0 1-.83 1l-.14.07-.07.15c-.19.36-.35.7-.5 1a2.27 2.27 0 0 0-.28.95 1.06 1.06 0 0 1-.25.38c-.25.27-.46.5-.64.67a3.56 3.56 0 0 1-.58.46 1.16 1.16 0 0 0-.59.79c-.55 1.1-1 2-1.33 2.62a25.89 25.89 0 0 0-1.38 2.48l-.05.11v.11s0 .07-.08.15-.13.09-.15.09h-.25c0-.2-.1-.47-.2-.84a10.35 10.35 0 0 0-.8-2 32 32 0 0 0-1.22-3 15.05 15.05 0 0 0-2-3 22.33 22.33 0 0 1-1.69-2.58c-.58-1-1-1.89-1.43-2.62-.36-.53-.68-1.06-1-1.59-.41-.76-.75-1.06-1.14-1.06a2.2 2.2 0 0 0-.64.08c-.38.12-.58.48-.58 1.08a10 10 0 0 0 .1 1 4 4 0 0 0 .67 1.64 7.84 7.84 0 0 0 .7 1.52 5.64 5.64 0 0 0 .64.92 2 2 0 0 0 .52.85c.29.32.62.67 1 1a7.8 7.8 0 0 1 .64.83 10.35 10.35 0 0 1 .62 1 2.62 2.62 0 0 0 .24 1.06 1.32 1.32 0 0 0 .5.59 13 13 0 0 0 .58 1.43c.4.87.78 1.84 1.16 2.93a11 11 0 0 1 1 2.57 5.33 5.33 0 0 1 .1.57l-.1.23a4.23 4.23 0 0 0-.4 1.59 2.09 2.09 0 0 0 .29.93 3.27 3.27 0 0 0 .45.67 10.81 10.81 0 0 0 .15 1.1 13.49 13.49 0 0 1 .15 2.17c0 .7.06 2.08.18 4.2s.18 4.16.18 6.21c0 1.06 0 2.21.05 3.46s.06 2.49.11 3.73.09 2.4.14 3.52.06 2 .06 2.82c0 1.71.06 3.68.18 5.84s.18 3.92.18 5.29a24.58 24.58 0 0 0 .21 4 3.15 3.15 0 0 0 .61 1.56l.13.13h.35a1 1 0 0 0 1-.61 3 3 0 0 0 .52-1 5 5 0 0 0 .25-1.62 7.77 7.77 0 0 0-.36-3.23c0-.22 0-.73-.18-2.18-.12-1.28-.17-3-.17-5v-6a30.22 30.22 0 0 0-.29-4.73c0-1.21-.06-3.06-.18-5.48s-.18-4.78-.18-7V434.2a6 6 0 0 1 .1-1.2.74.74 0 0 1 .1-.27 11.45 11.45 0 0 0 1-1.25c.45-.61.94-1.26 1.5-2 .36-.55.75-1.19 1.15-1.91a4.46 4.46 0 0 0 .63-1.64 9.07 9.07 0 0 0 .87-1.53c.42-.85.82-1.74 1.15-2.55a27.32 27.32 0 0 0 1.56-3c.48-1.05.9-1.93 1.22-2.56a10.23 10.23 0 0 0 1.1-2.56v-.15a1.18 1.18 0 0 0-.36-.81Z" class="colorffffff svgShape"></path><path fill="#3819fd" d="M302.55 358.64c-.34 0 0 .86 0 .86-15.11-6.15-119.26-10.22-122.58 12.8-5.35 37.13-10.75 63 17.43 74.16 18.12 7.16 57.93 5.26 83.56 2.88l20.55 15.27L301 447c1.09-.17 2-.3 2.53-.41 28.05-5.31 43.92-88.59-.98-87.95Z" class="colorfdac19 svgShape"></path><path fill="#ffffff" d="M221.67 399.56c0-.49 0-1.38-.12-2.63s-.13-2.66-.13-4-.08-3.12-.24-5.1a4.8 4.8 0 0 0-.15-.89c-.09-.42-.19-.86-.31-1.33a11.64 11.64 0 0 0-.67-1.84 15.66 15.66 0 0 0-1-1.93 10.31 10.31 0 0 0-1-1.84 8.64 8.64 0 0 0-1-1.32 10.53 10.53 0 0 0-.83-.74 8.83 8.83 0 0 1-.76-.68 7 7 0 0 0-1.19-.89c-.5-.32-1-.65-1.49-1l-1.33-.65a2.45 2.45 0 0 0-1-.33h-.51a1.22 1.22 0 0 0-.55.21h-.56c-.55 0-.74.28-.8.45a1.81 1.81 0 0 0-.1.68 1.17 1.17 0 0 1-.23.58 4 4 0 0 1-.58.74 3.72 3.72 0 0 0-.94 1.28 10.38 10.38 0 0 0-.33 1.6 11.37 11.37 0 0 1-.12 1.53 12.7 12.7 0 0 0-.13 1.48 4.38 4.38 0 0 1-.11 1 6.29 6.29 0 0 0-.12.73 5.16 5.16 0 0 0-.46 2 7.11 7.11 0 0 1-.11 1 7.69 7.69 0 0 0-.13 1.32 11.39 11.39 0 0 1-.1 1.4 10.24 10.24 0 0 0-.11 1.17 6.71 6.71 0 0 1-.12 1 8.8 8.8 0 0 0-.12 1.32 10.69 10.69 0 0 1-.12 1.37 13.09 13.09 0 0 0-.13 1.65 7.56 7.56 0 0 1-.24 1.66c-.18.73-.32 1.38-.44 1.94a13.45 13.45 0 0 1-.42 1.38 15.12 15.12 0 0 0-.52 2.13 5.8 5.8 0 0 0-.26 1c-.1.49-.2 1.11-.3 1.85s-.17 1.57-.22 2.47-.09 1.84-.09 2.81l.62 6.24 1 2a11.84 11.84 0 0 0 .9 1.62 6.46 6.46 0 0 0 .87 1.2 7.89 7.89 0 0 0 1.43 1.22 2.42 2.42 0 0 0 .87.42 6.58 6.58 0 0 1 .84.32l.09.05h.1a6.28 6.28 0 0 1 1.08.1 5.66 5.66 0 0 0 .95.1 6 6 0 0 0 1.13.14 5.71 5.71 0 0 0 1.18-.16 9.38 9.38 0 0 0 1.21-.51 9.18 9.18 0 0 0 1.17-.65 6.43 6.43 0 0 0 1.29-.67 4.22 4.22 0 0 0 1.13-1 2.47 2.47 0 0 0 1.08-1 14.63 14.63 0 0 0 .64-1.42 5.45 5.45 0 0 0 .62-1.35 4.56 4.56 0 0 1 .54-1.17v-.11a10.34 10.34 0 0 0 .32-1.17 4.93 4.93 0 0 0 .15-1 4.92 4.92 0 0 1 .13-.87c.09-.4.19-.77.3-1.1v-.14a10 10 0 0 1 .12-1.33 11.46 11.46 0 0 0 .12-1.44 7 7 0 0 1 .12-1.18 7.09 7.09 0 0 0 .13-1.15c0-.15 0-.53.12-1.5.08-.8.12-1.63.12-2.45v-2.58a8.43 8.43 0 0 0-.18-2.04Zm-1.8 7.41v.11c0 .55 0 1.19-.11 1.89a15.27 15.27 0 0 0-.13 1.82 12.15 12.15 0 0 1-.1 1.62 12.69 12.69 0 0 0-.11 1.32c-.11.34-.21.71-.31 1.11a5.08 5.08 0 0 0-.17.92 6.76 6.76 0 0 0-.5 1.17 9.66 9.66 0 0 1-.83 1.78 18.58 18.58 0 0 0-.89 1.67 3.46 3.46 0 0 1-.43.81c-.11.11-.27.26-.49.44a2.24 2.24 0 0 1-.72.39l-.11.05a7.43 7.43 0 0 1-1.17.62l-1.06.47c-.44.11-.85.21-1.25.28a3.69 3.69 0 0 1-1.41-.06 6.89 6.89 0 0 1-1.44-.14 4.27 4.27 0 0 1-.92-.3 3.09 3.09 0 0 1-.62-.4 4.67 4.67 0 0 0-.7-.46c-.21-.21-.4-.42-.58-.61s-.18-.24-.18-.23a2.93 2.93 0 0 0-.3-.92 12 12 0 0 1-.44-1.13l-.66-1.31-.55-6.5c0-1.49 0-2.7.09-3.6s.13-1.65.22-2.23a11.84 11.84 0 0 1 .3-1.44c.12-.39.24-.83.37-1.27a11.89 11.89 0 0 0 .57-1.87c.14-.61.26-1.09.37-1.42l.33-1a2.53 2.53 0 0 0 .18-.79s0-.25.1-1.18c.07-.72.11-1.5.11-2.32 0-.67 0-1.45.12-2.3s.12-1.49.12-1.86a6.16 6.16 0 0 1 .11-1.06 5.47 5.47 0 0 0 .13-1.05 2.76 2.76 0 0 1 .1-.51 4.14 4.14 0 0 0 .11-.87 4.49 4.49 0 0 1 .23-.81v-.13a2.46 2.46 0 0 1 .11-.49 3.47 3.47 0 0 0 .14-.9 2.62 2.62 0 0 1 .11-.71 3.69 3.69 0 0 0 .13-.92 3.52 3.52 0 0 1 .09-.72 4.07 4.07 0 0 0 .12-.91 4.34 4.34 0 0 1 .11-.81 3.78 3.78 0 0 0 .13-.82 2.09 2.09 0 0 1 .12-.64 1.08 1.08 0 0 1 .23-.46 8.19 8.19 0 0 1 1.39-1.15 3.05 3.05 0 0 1 .91-.56l.43.12.93.31 1.2.8a3.56 3.56 0 0 1 1 .95 12.59 12.59 0 0 0 1.15 1c.32.26.55.44.68.56s.33.61.61 1.1l1 1.64a15.62 15.62 0 0 1 .84 2c.23.64.4 1.19.53 1.68s.36 1.75.42 5.43v4.85h.21a5.52 5.52 0 0 1 0 1v1.87a19.3 19.3 0 0 0 .21 2.53v2.49a10.9 10.9 0 0 1-.18 2.09ZM241.55 382.75c-.06-1.27-.11-2.37-.14-3.3s0-1.54 0-1.84v-1.86a1.57 1.57 0 0 0-.31-1.05.54.54 0 0 0-.77-.18.41.41 0 0 1-.19.05h-.18l-.13.13a3.31 3.31 0 0 0-.43.53 1.6 1.6 0 0 0-.25.92c0 .14 0 .51.05 1.09s.08 1.23.14 2 .11 1.58.16 2.46.07 1.72.07 2.5v2.62c0 .94.05 1.89.09 2.83s.07 1.86.1 2.73.05 1.61.05 2.25v4.21a19.79 19.79 0 0 1-.24 3.25 21.62 21.62 0 0 0-.25 2.53v3.25a15.91 15.91 0 0 1-.25 2c-.14.58-.32 1.36-.54 2.36a12.39 12.39 0 0 0-.34 2.66V420.21c0-.15 0-.4-.07-.74l-.19-1.68c-.07-.62-.14-1.24-.19-1.85s-.09-1-.09-1.33a10.51 10.51 0 0 0-.14-1.72 8.55 8.55 0 0 1-.14-.91v-.15a3.66 3.66 0 0 1-.25-1.27 5.86 5.86 0 0 0-.32-1.53 7.28 7.28 0 0 0-.18-1l-.37-1.8a11.81 11.81 0 0 0-.16-1.91 10.1 10.1 0 0 1-.15-1.56v-.1l-.05-.09a6.82 6.82 0 0 1-.4-1.25c-.14-.59-.28-1.1-.42-1.54a10.68 10.68 0 0 0-.14-1.56 9.27 9.27 0 0 1-.14-1.25 5.54 5.54 0 0 0-.16-1 5 5 0 0 1-.15-1 7.26 7.26 0 0 0-.34-1.68 22.18 22.18 0 0 1-.53-2.18V391a22.83 22.83 0 0 1-1-2.85c-.42-1.37-.85-2.71-1.28-4a38.06 38.06 0 0 0-1-3.73 20.51 20.51 0 0 0-.76-2.13c-.14-.43-.27-.9-.39-1.4a4.77 4.77 0 0 1-.18-1.07v-.13a2.85 2.85 0 0 0-.53-1.07 1.05 1.05 0 0 0-.76-.38h-.73l-.13.13c-.17.17-.34.49-.39 1.66 0 .77-.05 2-.05 3.57 0 1.14 0 2.33-.14 3.54s-.14 2.08-.14 2.53a18.89 18.89 0 0 1-.13 1.89 19.9 19.9 0 0 0-.15 2.2 10.41 10.41 0 0 1-.14 1.79 6.28 6.28 0 0 0-.17 1.09c0 .05 0 .28-.13 1.26a17.08 17.08 0 0 0-.15 2.24 26.57 26.57 0 0 1-.18 2.72c-.13 1.12-.26 2.13-.4 3s-.28 1.66-.43 2.78-.3 2-.44 2.82a15.9 15.9 0 0 1-.14 1.92 16.23 16.23 0 0 0-.14 1.82v7c0 .46.05 1.12.14 2a20.2 20.2 0 0 1 .14 2.09v1.86a1.61 1.61 0 0 0 .32 1 .53.53 0 0 0 .77.19.31.31 0 0 1 .18-.05h.11l.09-.05a1.43 1.43 0 0 0 .74-1.16 21.08 21.08 0 0 0 .09-2.42 17.33 17.33 0 0 0-.16-2.33 16.14 16.14 0 0 1-.15-2 9.78 9.78 0 0 0-.14-1.54 7.87 7.87 0 0 1-.14-1.38v-1.61a8.8 8.8 0 0 1 .23-1.75v-.1a13 13 0 0 1 .15-2 10.42 10.42 0 0 0 .16-1.47 6.61 6.61 0 0 1 .13-.8 5.48 5.48 0 0 0 .15-1 3.32 3.32 0 0 1 .14-.85 3.63 3.63 0 0 0 .17-.88c0-.26.05-.79.14-1.56a25.31 25.31 0 0 0 .14-2.72l.39-2.89a17 17 0 0 0 .2-2.09 6.69 6.69 0 0 1 .13-1.12 8.32 8.32 0 0 0 .14-1.51 12.35 12.35 0 0 1 .14-1.61 14.8 14.8 0 0 0 .14-2.14 22.71 22.71 0 0 1 .16-2.35c.1-1 .15-2 .15-2.88v-.78l.14.49c.16.62.31 1.15.45 1.57.14.59.33 1.26.58 2l.57 1.76v.1a5.71 5.71 0 0 1 .62 1.62c.17.74.33 1.34.47 1.78s.26.95.39 1.55a7.91 7.91 0 0 1 .18 1.51v.13c.13.43.26.95.39 1.55a7.91 7.91 0 0 1 .18 1.51v.13c.13.43.26.93.39 1.49a7 7 0 0 1 .18 1v1a1.78 1.78 0 0 0 .24.89 12.49 12.49 0 0 0 .19 1.36c.13.68.26 1.46.4 2.33s.27 1.66.38 2.35a9.19 9.19 0 0 1 .17 1.36v.18l.13.13s.1.11.13.49a8.31 8.31 0 0 1 .05.93 48.9 48.9 0 0 0 .45 2.36 3.93 3.93 0 0 1 .14 1.11c0 .24 0 .67.07 1.28s.11 1.26.18 2l.19 1.93c0 .58.08 1 .08 1.18a3.79 3.79 0 0 0 .23 1.47 1.1 1.1 0 0 0 .6.67.7.7 0 0 0 .82.09.61.61 0 0 1 .25-.06h.11v.07a1.75 1.75 0 0 0 0 1.7.64.64 0 0 0 .53.52 2.52 2.52 0 0 0 .48 0 2.45 2.45 0 0 0 .48 0 .66.66 0 0 0 .55-.61 8 8 0 0 0 .28-1.8 18.34 18.34 0 0 1 .15-1.92 22.44 22.44 0 0 0 .16-2.45v-6.34a.76.76 0 0 1 0-.15h.27v-1a5.55 5.55 0 0 1 .15-.84 7.09 7.09 0 0 0 .16-1.41 7.83 7.83 0 0 0 .25-1.87v-2.25a12.68 12.68 0 0 1 .13-1.72c.11-.7.14-1 .15-1.13a17.44 17.44 0 0 0 .26-3.51c0-1.86.05-4.41.05-7.58 0-1.36 0-2.79-.09-4.27s-.08-2.98-.14-4.23ZM256.06 422.55c-.24 0-.69 0-1.34-.1a6.83 6.83 0 0 0-2.07.1h-2.05c-.27 0-.92 0-1.1.42a1.21 1.21 0 0 1-.36.2 1.46 1.46 0 0 1-.57.12h-.29a3.73 3.73 0 0 1 .19-.63 2.84 2.84 0 0 0 .28-1.24v-2.25a6 6 0 0 1 .21-1.49v-.12a14 14 0 0 1 .13-1.78 15.6 15.6 0 0 0 .15-2.1c0-.5 0-1.47.12-2.89s.12-2.87.12-4.29 0-3 .14-4.28.13-2 .13-2.33a6.23 6.23 0 0 0 .25-1.64 7.11 7.11 0 0 1 .13-.93 9.18 9.18 0 0 0 .15-1.64 15.41 15.41 0 0 1 .13-1.83 8 8 0 0 1 .33-1.62v-2.72a3.38 3.38 0 0 1 .13-.83 5.16 5.16 0 0 0 .15-1.25 5.55 5.55 0 0 1 .23-1.41v-.11c0-.06 0-.3.14-1.32a22.72 22.72 0 0 0 .14-2.56v-3.43a1.27 1.27 0 0 0 .24-.65 4.39 4.39 0 0 1 .13-.75 7.3 7.3 0 0 0 .15-1.28c.2-1 .18-1.17.13-1.31-.1-.3-.39-.46-.85-.46h-.68v.44a1.09 1.09 0 0 1-.12.38c-.1.22-.21.45-.38.76a12.38 12.38 0 0 0-.4 1.85c-.11.8-.24 2.11-.38 3.95 0 1.27 0 2.43-.14 3.44s-.14 1.69-.14 2v.93a3.17 3.17 0 0 1-.2 1v.1a5.07 5.07 0 0 1-.24 2.13v.18a6.69 6.69 0 0 1-.12.88 9.35 9.35 0 0 0-.12 1.41 12.61 12.61 0 0 1-.14 1.7 13.61 13.61 0 0 0-.14 1.66 7.59 7.59 0 0 1-.13 1.31 3.6 3.6 0 0 1-.3 1l-.06.1v1.84a27.66 27.66 0 0 1-.24 2.92v5.41c0 .63 0 1.41-.12 2.32s-.13 1.79-.13 2.56v2.37h-.2v1.14a3.36 3.36 0 0 1-.2 1v1.67a4.7 4.7 0 0 1-.22 1.42v.14a5.86 5.86 0 0 1-.13 1.14 1.62 1.62 0 0 1-.2.6.81.81 0 0 0-.32.67 1.18 1.18 0 0 0 .61.81l.11.06h1.41a5.35 5.35 0 0 0 1.15-.16c.47-.11.91-.24 1.32-.38a10.73 10.73 0 0 1 1.23-.35 5.58 5.58 0 0 1 1.08-.15 2.42 2.42 0 0 0 .94.24h1.05v.36h.22a1.15 1.15 0 0 1 .39.11 2.6 2.6 0 0 0 1.43.13.68.68 0 0 0 .66-.68v-.76a1.15 1.15 0 0 0-.35-.89 1.54 1.54 0 0 0-1.07-.36ZM263 411.48V404.28a21.85 21.85 0 0 0-.23-3.37c0-.87 0-2.06-.12-3.56s-.12-2.92-.12-4.24 0-2.62-.12-3.76c-.1-1.41-.12-1.9-.12-2.07v-.11l-.06-.1a1.58 1.58 0 0 1-.17-.67v-.85c0-.25 0-.65.12-2 .09-1.09.13-2.38.13-3.85v-3.94c0-.8 0-1.63-.66-1.63a.84.84 0 0 0-.74.49 2 2 0 0 0-.18.52 4.05 4.05 0 0 0-.35 1.5 25.68 25.68 0 0 0-.14 3.06v7.67a7.62 7.62 0 0 0 .23 1.89c0 .41 0 1.21.12 2.45s.12 2.64.12 4.08 0 3.12.12 4.94.12 3.34.12 4.56v8.3a.72.72 0 0 0 .23.5v.62a2.2 2.2 0 0 0-.25.85c0 .29-.1.36-.11.37l-.13.13v.18a8.68 8.68 0 0 1-.12 1.15 14.87 14.87 0 0 0-.12 2 15.84 15.84 0 0 1-.14 2A7.47 7.47 0 0 1 260 423a3 3 0 0 0-.19 1.17 1.06 1.06 0 0 0 .59.76 2.37 2.37 0 0 0 .52.46l.11.05h.11a.84.84 0 0 0 .56-.31 1.76 1.76 0 0 0 .56-1.05 9.5 9.5 0 0 0 .06-1.2 15.77 15.77 0 0 1 .12-1.6 19.33 19.33 0 0 0 .12-2.07 18.27 18.27 0 0 1 .13-2.2 13.18 13.18 0 0 1 .34-1.83 8.62 8.62 0 0 0 .24-1.41V413l-.13-.13a4.31 4.31 0 0 1-.14-1.39ZM284.79 382.75c-.06-1.27-.1-2.37-.14-3.3s0-1.54 0-1.84v-1.86a1.64 1.64 0 0 0-.32-1.05.54.54 0 0 0-.77-.18.41.41 0 0 1-.19.05h-.18l-.13.13a4.52 4.52 0 0 0-.43.53 1.6 1.6 0 0 0-.25.92c0 .14 0 .51.05 1.09s.08 1.23.14 2 .11 1.58.16 2.46.07 1.72.07 2.5v2.62c0 .94.05 1.89.09 2.83s.07 1.86.1 2.73.05 1.61.05 2.25v4.21a19.55 19.55 0 0 1-.24 3.24 22 22 0 0 0-.25 2.54v1.59c0 .43 0 1-.05 1.66a14.28 14.28 0 0 1-.25 2c-.14.58-.32 1.36-.54 2.36a13.06 13.06 0 0 0-.34 2.66v5.31c0-.15 0-.39-.08-.73l-.19-1.68c-.07-.62-.14-1.24-.19-1.85s-.09-1-.09-1.33a10.51 10.51 0 0 0-.14-1.72 6.67 6.67 0 0 1-.13-.91v-.15a3.7 3.7 0 0 1-.25-1.27 5.86 5.86 0 0 0-.32-1.53 7.28 7.28 0 0 0-.18-1l-.37-1.8a11.81 11.81 0 0 0-.16-1.91 10.1 10.1 0 0 1-.15-1.56v-.1l-.05-.09a7.72 7.72 0 0 1-.4-1.25c-.14-.59-.28-1.1-.42-1.54a10.44 10.44 0 0 0-.14-1.55 9.54 9.54 0 0 1-.14-1.26 4.66 4.66 0 0 0-.16-1 5 5 0 0 1-.15-1 7.26 7.26 0 0 0-.34-1.68 22.18 22.18 0 0 1-.53-2.18V391a22.83 22.83 0 0 1-1-2.85c-.42-1.37-.85-2.71-1.28-4a35.43 35.43 0 0 0-1-3.73 20.51 20.51 0 0 0-.76-2.13c-.14-.43-.27-.9-.39-1.4a4.77 4.77 0 0 1-.18-1.07v-.13a2.85 2.85 0 0 0-.53-1.07 1.05 1.05 0 0 0-.76-.38h-.73l-.13.13c-.17.17-.34.49-.39 1.66 0 .78-.05 2-.05 3.57 0 1.14-.05 2.33-.14 3.54s-.14 2.07-.14 2.53 0 1.05-.13 1.89a19.9 19.9 0 0 0-.15 2.2 10.41 10.41 0 0 1-.14 1.79 6.28 6.28 0 0 0-.17 1.09c0 .05 0 .28-.13 1.26a17.05 17.05 0 0 0-.14 2.24 27 27 0 0 1-.19 2.72c-.13 1.12-.26 2.13-.4 3s-.28 1.66-.43 2.78-.3 2-.44 2.82a15.9 15.9 0 0 1-.14 1.92 16.57 16.57 0 0 0-.14 1.82v7c0 .46.05 1.11.14 2a20.2 20.2 0 0 1 .14 2.09v1.86a1.61 1.61 0 0 0 .32 1 .53.53 0 0 0 .77.19.32.32 0 0 1 .19-.05h.1l.09-.05A1.43 1.43 0 0 0 269 424a21.33 21.33 0 0 0 .09-2.42 17.56 17.56 0 0 0-.16-2.33 16 16 0 0 1-.15-2 9.78 9.78 0 0 0-.14-1.54 7.87 7.87 0 0 1-.14-1.38v-1.61a8.8 8.8 0 0 1 .23-1.75v-.1a12.79 12.79 0 0 1 .15-2 10.42 10.42 0 0 0 .16-1.47 6.61 6.61 0 0 1 .13-.8 5.48 5.48 0 0 0 .15-1 3.32 3.32 0 0 1 .14-.85 3.59 3.59 0 0 0 .17-.88c0-.26.05-.79.14-1.56a25.31 25.31 0 0 0 .14-2.72l.39-2.89a15.23 15.23 0 0 0 .2-2.09 6.69 6.69 0 0 1 .13-1.12 8.38 8.38 0 0 0 .15-1.51 12.08 12.08 0 0 1 .13-1.61 15 15 0 0 0 .14-2.14c0-.56.06-1.35.16-2.35s.16-2 .16-2.88v-.78c.05.15.09.31.14.49.16.62.31 1.15.45 1.57.14.58.33 1.26.58 2l.57 1.76.05.1a5.71 5.71 0 0 1 .62 1.62c.17.74.33 1.34.47 1.78a13.38 13.38 0 0 1 .39 1.55 7.91 7.91 0 0 1 .18 1.51v.13a13.92 13.92 0 0 1 .39 1.55 7.83 7.83 0 0 1 .18 1.51v.13a15.09 15.09 0 0 1 .39 1.49 7 7 0 0 1 .18 1v1a1.78 1.78 0 0 0 .24.89 10.81 10.81 0 0 0 .2 1.36c.12.68.25 1.46.39 2.33s.27 1.66.38 2.35a9.19 9.19 0 0 1 .17 1.36v.18l.13.13s.1.11.13.49a8.31 8.31 0 0 1 .05.93 48.9 48.9 0 0 0 .45 2.36 3.93 3.93 0 0 1 .14 1.11c0 .24 0 .67.07 1.28s.11 1.26.18 2l.19 1.93c.05.58.08 1 .08 1.18a3.76 3.76 0 0 0 .23 1.47 1.1 1.1 0 0 0 .6.67.7.7 0 0 0 .82.09.65.65 0 0 1 .25-.06h.11v.07a1.75 1.75 0 0 0 0 1.7.65.65 0 0 0 .54.52 2.42 2.42 0 0 0 .47 0 2.45 2.45 0 0 0 .48 0 .66.66 0 0 0 .55-.61 7.48 7.48 0 0 0 .28-1.8 18.15 18.15 0 0 1 .15-1.92 20.32 20.32 0 0 0 .16-2.45v-6.49h.27v-1a5.32 5.32 0 0 1 .15-.84 7.09 7.09 0 0 0 .16-1.41 7.83 7.83 0 0 0 .25-1.87v-2.25a11.28 11.28 0 0 1 .14-1.72c.1-.7.13-1 .14-1.13a17.44 17.44 0 0 0 .26-3.51c0-1.85.05-4.4.05-7.58 0-1.37 0-2.8-.09-4.27s.12-2.9.06-4.15ZM307.39 424a1.16 1.16 0 0 0-.57-.57l-.1-.05h-.12a3.74 3.74 0 0 0-.61 0 1.93 1.93 0 0 0-.71.26 2.24 2.24 0 0 1-.89.13h-2.3a14.81 14.81 0 0 1-2.22-.13 8.76 8.76 0 0 1-1.27-.31c-.45-.12-.93-.22-1.43-.32a26.58 26.58 0 0 0-3.56-.16 4.57 4.57 0 0 1-1.29-.17h-.14a3.76 3.76 0 0 1-1-.13c-.45-.11-.51-.18-.51-.18a3.88 3.88 0 0 1-.57-1.19 5.09 5.09 0 0 1-.16-1.38v-1.81q0-.49.12-1.62a21.42 21.42 0 0 0 .12-2.2c0-.77 0-1.57.11-2.37s.1-1.48.1-1.93a6.06 6.06 0 0 1 .11-1.15 4.14 4.14 0 0 0 .13-.86 6.39 6.39 0 0 1 .1-.88 8.94 8.94 0 0 0 .11-1.37V403l-.12-.58.47-.11h.12a1.49 1.49 0 0 1 .69-.12 3.08 3.08 0 0 1 1 .15h5.33a1 1 0 0 0 .68-.17 1.68 1.68 0 0 0 .34-.46 1.72 1.72 0 0 0 .32-.86l.07-.5h-3.29l-2.13-.05h-3.67c0-.1 0-.41.11-1.28s.1-1.72.1-2.75.08-2.26.24-3.81a.48.48 0 0 1 .06-.18 1.59 1.59 0 0 0 .15-.72c0-.19 0-.75.12-1.66s.13-2 .13-3.09 0-2.55.1-3.91.1-2.48.1-3.26v-2.71a6.68 6.68 0 0 1 1.16.17 9.63 9.63 0 0 0 1.4.36c.53.11 1 .23 1.27.32a5.1 5.1 0 0 0 1 .27c.47.1 1 .19 1.54.28l1.62.27 1.15.18a13.17 13.17 0 0 1 1.45.43.61.61 0 0 1 .24.18.64.64 0 0 0 0 .2.5.5 0 0 0 .48.4h.09c.16 0 .28-.1.84-.66a4 4 0 0 0 .7-.82.64.64 0 0 0 .08-.5.77.77 0 0 0-.29-.39 1.56 1.56 0 0 0-1-.45A7.92 7.92 0 0 0 302 377l-1.53-.33a2.62 2.62 0 0 1-.7-.23l-.13-.13h-.71l-1-.08-1.09-.1c-.38 0-.66-.06-.83-.06a3.91 3.91 0 0 1-.94-.12l-.21-.07v-.26h-.44a.71.71 0 0 1-.28-.09 1.68 1.68 0 0 0-.6-.15.91.91 0 0 1-.24-.15 4.79 4.79 0 0 0-.68-.46 4.33 4.33 0 0 0-.83-.34 2.5 2.5 0 0 0-.79-.16h-.3a.57.57 0 0 0-.51.44 1.25 1.25 0 0 0-.23.58v.51c0 .13 0 .8-.1 2.05s-.1 2.78-.1 4.46 0 3.42-.13 4.83-.12 2.39-.12 2.84a8.83 8.83 0 0 1-.13 1.33 15.22 15.22 0 0 1-.3 1.5v.11c0 .43 0 1.12-.1 2.07s-.11 1.86-.11 2.65v7.9a18 18 0 0 1-.11 1.82 15.42 15.42 0 0 0-.13 1.7 15 15 0 0 0-.31 2.18c-.09 1-.14 2.05-.14 3.07s0 1.77-.1 2.62-.11 1.43-.11 1.65a17.37 17.37 0 0 0 .13 1.74 13.18 13.18 0 0 0 .29 1.85 12.09 12.09 0 0 0 .11 1.61 9.72 9.72 0 0 1 .1 1v.66a.7.7 0 0 0 .45.64.85.85 0 0 0 1.19-.12 2.68 2.68 0 0 0 .38-.6 1.82 1.82 0 0 0 .18-.79v-.06a.64.64 0 0 1 .15.13l.13.13h.18a8.45 8.45 0 0 1 1 .11c1.15.18 2.43.1 3.61.23a16.69 16.69 0 0 0 1.68.11 9.17 9.17 0 0 1 1.35.13c.6.09 1.17.19 1.73.31l1.43.26c.52.1.73.07.89 0l.68-.12a6.93 6.93 0 0 1 1.36-.11h.43c1.06 0 1.63-.07 1.78-.45a1.14 1.14 0 0 0 .25-.65 1.32 1.32 0 0 0-.06-.59Z" class="colorffffff svgShape"></path><path fill="#d1cafc" d="M295.08 541.82c-6.87.71-3.64-.78-10.34-1.35-9.11-.77-24.24 5.83-33.35 6.34-2.76-18.08 5.47-21.09-2.55-36.57-9.6-18.53-13.36-15.39-15-1.15-1.06 9.08-2.14 17.65-3.14 25.95-.72 5.94-1.4 11.76-2 17.53a390.09 390.09 0 0 0-2.19 59.61s63.04 8.46 79.49-4.18c6.55-5.15-7.58-48.35-10.92-66.18Z" class="colorfcd4ca svgShape"></path><path fill="#d1cafc" d="M205.1 554.16h26.12v54.99H205.1z" class="colorfcd4ca svgShape"></path><path fill="#130188" d="m226.73 612.28-116.3-2.08 1.44-68.49h108.06l6.8 70.57z" class="color015288 svgShape"></path><path fill="#c1bbe6" d="M231.68 612.84a.34.34 0 0 1 0 .1 174.74 174.74 0 0 1-23.36 1.06l.19-73.77c6 .51 9.62 0 18.52 1 .78 23.42 2.97 48.28 4.65 71.61Z" class="colorbbe6dd svgShape"></path><path fill="#ffffff" d="M215.9 611.47c-2.08-12.06-2.3-26.19-2.52-39.86-.12-8.24-.51-23-1-30.26l-1 .07c.5 7.21.89 22 1 30.21.21 13.7.44 27.88 2.53 40ZM218.45 554.64a3 3 0 1 0 2.11-3.67 3 3 0 0 0-2.11 3.67Z" class="colorffffff svgShape"></path><path fill="#7764f0" d="M251.11 546.18h-1.37l1.14-32.65a12.29 12.29 0 0 1 4.18-9.08c5.79-5 15.49-4.4 16.56-4.32 1-.12 9.16-1 15 4.33 4.23 3.86 6.14 9.95 5.68 18.11v21.39H291v-21.48c.44-7.77-1.33-13.49-5.23-17.05-5.64-5.15-13.91-4-14-4h-.16c-.1 0-10.06-.85-15.62 4a11 11 0 0 0-3.7 8.1Z" class="color31bfcd svgShape"></path><rect width="50.94" height="34.04" x="245.47" y="526.29" fill="#563cfe" rx="3.56" class="colorfe6a3c svgShape"></rect><path fill="#ffffff" d="M274.36 541.35c-.68-6.43-6.9-5.74-6.85 0a3.47 3.47 0 0 0 2.09 3.15l-2.09 9.4 6.17 1.06-1.4-10.46a3.21 3.21 0 0 0 2.08-3.15Z" class="colorffffff svgShape"></path><path fill="#2c16b8" d="m267 486.27-.33-2.67c-.43-3.48-.88-7.06-1.16-10.68l1-.07c.27 3.59.72 7.17 1.15 10.63l.33 2.68ZM252.29 492.24l-2.22-1.52c-2.9-2-5.89-4-8.79-6.19l.57-.76c2.88 2.17 5.87 4.2 8.76 6.16l2.21 1.52ZM287.66 493l-.5-.8 2.28-1.42c3-1.84 6-3.75 9-5.79l.54.79c-3 2.05-6.07 4-9.05 5.8Z" class="color1693b8 svgShape"></path><path fill="#d1cafc" d="M305.25 597.73s2.86 7 .7 10.22-9.18 2.28-9.18 2.28c-8-7.27-36.18-22.19-25.67-30.55 6.38-7.33 29.58 13.5 34.15 18.05Z" class="colorfcd4ca svgShape"></path><path fill="#d1cafc" d="M309.07 582.88s2.86 7 .7 10.23-9.18 2.27-9.18 2.27c-8-7.26-36.19-22.18-25.68-30.55 6.39-7.32 29.59 13.51 34.16 18.05Z" class="colorfcd4ca svgShape"></path><path fill="#d1cafc" d="M312.56 568.8s2.86 7 .7 10.22-9.18 2.28-9.18 2.28c-8.08-7.3-36.18-22.19-25.68-30.55 6.39-7.33 29.6 13.5 34.16 18.05Z" class="colorfcd4ca svgShape"></path><path fill="#d1cafc" d="M313.61 552.83s2.26 5.56.55 8.07-7.24 1.8-7.24 1.8c-6.35-5.74-28.93-14.15-20.27-24.13 5.04-5.78 23.35 10.67 26.96 14.26Z" class="colorfcd4ca svgShape"></path><path fill="#7569c4" d="M288.51 602c-2-.78-13.59-7.95-15.07-9.55a16.31 16.31 0 0 1-3.33-5.63 12.29 12.29 0 0 1-.67-3.24 7.45 7.45 0 0 1 .46-3.32 4.17 4.17 0 0 1 2.39-2.41 6.07 6.07 0 0 1 3.4-.14 39.81 39.81 0 0 1 4.8 1.83A37.86 37.86 0 0 1 285 582c2.88 1.85 5.63 3.8 8.6 5.4l-.34.64q-2.26-1.2-4.43-2.57l-4.26-2.78a40.42 40.42 0 0 0-4.4-2.46 39.46 39.46 0 0 0-4.7-1.84 5.52 5.52 0 0 0-3 .05 3.52 3.52 0 0 0-2.1 2 7.09 7.09 0 0 0-.49 3.07 12 12 0 0 0 .57 3.14 15.85 15.85 0 0 0 3.13 5.59c1.42 1.7 12.93 8.92 14.93 9.76ZM278.38 577.91a18.37 18.37 0 0 1-4-3.6 8.84 8.84 0 0 1-2-5 5.84 5.84 0 0 1 .52-2.7 5.91 5.91 0 0 1 1.73-2.17 8.12 8.12 0 0 1 5.23-1.6h.1a39.79 39.79 0 0 1 4.79 1.85 38.67 38.67 0 0 1 4.5 2.49l4.25 2.82c1.43.92 2.87 1.78 4.36 2.58l-.34.63c-1.5-.8-3-1.68-4.41-2.6l-4.26-2.78a38.86 38.86 0 0 0-4.41-2.45 40.11 40.11 0 0 0-4.71-1.81h.09a7.48 7.48 0 0 0-4.87 1.31 5.33 5.33 0 0 0-2.22 4.43 8.48 8.48 0 0 0 1.82 4.85 18 18 0 0 0 3.83 3.75Z" class="colorc49e69 svgShape"></path><path fill="#7569c4" d="M283.94 564.9a16.39 16.39 0 0 1-4.59-3.15 11.67 11.67 0 0 1-3-4.72 6.75 6.75 0 0 1 .44-5.55 5.12 5.12 0 0 1 2.15-1.92 7.06 7.06 0 0 1 2.78-.64 15 15 0 0 1 5.48 1.07 34.64 34.64 0 0 1 5.13 2.12c1.66.85 3.16 1.94 4.7 2.91a48.59 48.59 0 0 0 4.77 2.69l-.33.64a51.83 51.83 0 0 1-4.81-2.74c-1.56-1-3-2.08-4.64-2.92a35.37 35.37 0 0 0-5-2.11 14.61 14.61 0 0 0-5.25-1.07 6.64 6.64 0 0 0-2.55.57 4.65 4.65 0 0 0-1.92 1.7 6.18 6.18 0 0 0-.4 5.09 11 11 0 0 0 2.81 4.52 15.92 15.92 0 0 0 4.44 3.08Z" class="colorc49e69 svgShape"></path><path fill="#7569c4" d="M292.47 552.88a11.26 11.26 0 0 1-6.34-5.21 11 11 0 0 1-1.4-3.91 6.28 6.28 0 0 1 .63-4.1 4.14 4.14 0 0 1 1.5-1.47 5.3 5.3 0 0 1 2-.62 10.65 10.65 0 0 1 4.08.48 30.76 30.76 0 0 1 7.36 3.52 30.51 30.51 0 0 0-7.41-3.35 10.45 10.45 0 0 0-4-.38 4.15 4.15 0 0 0-3.22 2 6 6 0 0 0-.5 3.85 11.06 11.06 0 0 0 7.51 8.49Z" class="colorc49e69 svgShape"></path><path fill="#d1cafc" d="m280.71 582.85-2.91 7s-3.52-2.71-4.32-4.3c-1.05-2.43.41-5.43.41-5.43 1.04-2.39 6.82 2.73 6.82 2.73Z" class="colorfcd4ca svgShape"></path><path fill="#7569c4" d="M276.06 579.36a19.65 19.65 0 0 1 4.89 3.22l.2.17-3.2 7.69-.38-.29c-.14-.11-3.59-2.77-4.41-4.42-1.11-2.57.34-5.61.41-5.74.25-.59.89-1.2 2.49-.63Zm4.22 3.59a18.46 18.46 0 0 0-4.46-2.91c-1.29-.46-1.52.05-1.6.25 0 0-1.38 2.89-.4 5.14.59 1.18 2.91 3.13 3.82 3.86Z" class="colorc49e69 svgShape"></path><path fill="#d1cafc" d="M280.34 566.44a6.26 6.26 0 0 1 2.34 1.75l-2.35 7.81s-4.34-2.75-5-4.53c-.9-2.72 2.07-7.2 5.01-5.03Z" class="colorfcd4ca svgShape"></path><path fill="#7569c4" d="M279.67 565.67a3.63 3.63 0 0 1 .88.48A6.27 6.27 0 0 1 283 568l.09.14-2.53 8.45-.41-.25c-.18-.12-4.44-2.84-5.14-4.72a5.32 5.32 0 0 1 1.46-5.08 3 3 0 0 1 3.2-.87Zm2.61 2.6a6.68 6.68 0 0 0-2.11-1.5 3.22 3.22 0 0 0-.75-.42 2.4 2.4 0 0 0-2.46.7 4.61 4.61 0 0 0-1.29 4.32c.45 1.23 3.08 3.17 4.45 4.09Z" class="colorc49e69 svgShape"></path><path fill="#d1cafc" d="M283.06 551.94a6.1 6.1 0 0 1 2.39 1.49l-2.45 6.78s-4.77-2.54-5.44-4.08c-.41-1.11.58-3 .58-3 .86-2.35 4-1.57 4.92-1.19Z" class="colorfcd4ca svgShape"></path><path fill="#7569c4" d="m283 551.53.19.07a6.61 6.61 0 0 1 2.54 1.61l.12.16-2.66 7.36-.36-.2c-.5-.27-4.9-2.64-5.6-4.25-.46-1.25.48-3.12.59-3.33.85-2.27 3.66-1.95 5.18-1.42Zm2 2a7.14 7.14 0 0 0-2.12-1.25l-.15-.06c-.14-.05-3.45-1.2-4.28 1a4.48 4.48 0 0 0-.58 2.77c.46 1 3.41 2.86 4.9 3.68Z" class="colorc49e69 svgShape"></path><path fill="#d1cafc" d="M292.9 539.64a6.1 6.1 0 0 1 2.39 1.49l-2.44 6.78s-4.77-2.54-5.44-4.08c-.41-1.11.58-3 .58-3 .87-2.35 4.01-1.57 4.91-1.19Z" class="colorfcd4ca svgShape"></path><path fill="#7569c4" d="m292.85 539.23.19.08a6.29 6.29 0 0 1 2.54 1.6l.12.16-2.65 7.35-.37-.19c-.5-.27-4.9-2.64-5.6-4.25-.46-1.25.48-3.13.59-3.34.84-2.26 3.65-1.96 5.18-1.41Zm2 2a7.14 7.14 0 0 0-2.12-1.25l-.15-.06c-.14 0-3.45-1.2-4.28 1a4.48 4.48 0 0 0-.58 2.77c.46 1 3.42 2.86 4.9 3.68Z" class="colorc49e69 svgShape"></path></g></svg>