<svg xmlns="http://www.w3.org/2000/svg" data-name="Layer 1" viewBox="0 0 3702.33 3341.69" id="AnalyzingStatistics"><path fill="#e9e8f1" d="m204.06,1990.04C44.73,1709.73-61.63,1375.28,39.71,1076.29c96.17-283.76,375.15-428.85,649.43-497.11,286.8-71.38,587.9-79.52,877.77-140.19,304.1-63.64,603.02-152.4,892.06-266.42,131.09-51.71,260.72-108.78,397.3-143.5,246.23-62.59,548.36-23.08,709.21,193.27,167.95,225.91,175.57,552.9,54.29,801.69-138.56,284.23-387.09,507.08-478.35,815.77-55.31,187.12-42.28,390.43-107.58,574.02-63.95,179.8-160.67,349.54-293.32,487.6-151.39,157.58-351.06,272.09-567.07,305.09-298.25,45.56-598.62-63.96-866.24-203.26-357.83-186.25-691.39-435.12-935.61-759.2-57.9-76.83-115.53-162.54-167.53-254.01Z" opacity=".51" class="colore8e8f1 svgShape"></path><path fill="#eae9f2" d="m3080.96,25.91v1693.66c0,14.23-11.66,25.91-25.91,25.91H696.45c-14.25,0-25.91-11.68-25.91-25.91V25.91C670.54,11.66,682.2,0,696.45,0h2358.6c14.25,0,25.91,11.66,25.91,25.91Z" class="colore9e9f2 svgShape"></path><path fill="#7764f0" d="m3080.97,141.59V25.91c0-14.25-11.66-25.91-25.91-25.91H696.46c-14.25,0-25.91,11.66-25.91,25.91v115.68h2410.42Z" class="color9ed7d7 svgShape"></path><path fill="#ffffff" d="m2827,66.96c0,13.6-11.03,24.63-24.63,24.63s-24.63-11.03-24.63-24.63,11.03-24.63,24.63-24.63,24.63,11.03,24.63,24.63Z" class="colorffffff svgShape"></path><circle cx="2887.03" cy="66.96" r="24.63" fill="#ffffff" transform="rotate(-2.85 2885.222 66.946)" class="colorffffff svgShape"></circle><circle cx="2971.68" cy="66.96" r="24.63" fill="#ffffff" transform="rotate(-22.15 2971.402 66.996)" class="colorffffff svgShape"></circle><path fill="#eae9f2" d="m784.04,75.04h459.28c11.39,0,20.64,9.25,20.64,20.64v59.15c0,11.39-9.25,20.64-20.64,20.64h-459.28c-11.39,0-20.64-9.25-20.64-20.64v-59.15c0-11.39,9.25-20.64,20.64-20.64Z" class="colore9e9f2 svgShape"></path><rect width="2173.78" height="1372.67" x="778.59" y="254.82" fill="#ffffff" rx="86.59" ry="86.59" class="colorffffff svgShape"></rect><rect width="2538.53" height="1218.21" x="606.49" y="337.54" fill="#5a4bb8" rx="49.97" ry="49.97" class="colorb84b5c svgShape"></rect><path fill="#7764f0" d="m691.78,435.12h388.52c7.49,0,13.57,6.08,13.57,13.57v388.52c0,7.49-6.08,13.57-13.57,13.57h-388.52c-7.49,0-13.57-6.08-13.57-13.57v-388.52c0-7.49,6.08-13.57,13.57-13.57Z" class="color9ed7d7 svgShape"></path><path fill="#ffffff" d="M962.4 624.85h-4.31c-12.26-37-19.29-52.21-39.95-52.21h-2.72v149.36h19.29v4.77h-82.85v-4.77h19.29v-149.36h-2.95c-20.66 0-28.37 17.02-39.95 52.21h-4.31l2.27-56.97h133.92l2.27 56.97zM1755.11 510.15h-562.05c-13.38 0-24.33-10.95-24.33-24.33h0c0-13.38 10.95-24.33 24.33-24.33h562.05c13.38 0 24.33 10.95 24.33 24.33h0c0 13.38-10.95 24.33-24.33 24.33z" class="colorffffff svgShape"></path><rect width="559.01" height="30.41" x="1168.73" y="556.78" fill="#ffffff" rx="13.57" ry="13.57" class="colorffffff svgShape"></rect><rect width="449.52" height="30.41" x="1168.73" y="627.75" fill="#ffffff" rx="13.57" ry="13.57" class="colorffffff svgShape"></rect><path fill="#ffffff" d="M1490.51 729.12h-306.58c-8.36 0-15.21-6.84-15.21-15.21h0c0-8.36 6.84-15.21 15.21-15.21h306.58c8.36 0 15.21 6.84 15.21 15.21h0c0 8.36-6.84 15.21-15.21 15.21zM1860.55 729.12h-306.58c-8.36 0-15.21-6.84-15.21-15.21h0c0-8.36 6.84-15.21 15.21-15.21h306.58c8.36 0 15.21 6.84 15.21 15.21h0c0 8.36-6.84 15.21-15.21 15.21zM1490.51 806.17h-306.58c-8.36 0-15.21-6.84-15.21-15.21h0c0-8.36 6.84-15.21 15.21-15.21h306.58c8.36 0 15.21 6.84 15.21 15.21h0c0 8.36-6.84 15.21-15.21 15.21zM1860.55 806.17h-306.58c-8.36 0-15.21-6.84-15.21-15.21h0c0-8.36 6.84-15.21 15.21-15.21h306.58c8.36 0 15.21 6.84 15.21 15.21h0c0 8.36-6.84 15.21-15.21 15.21zM682.14 935.47h1246.74c6.55 0 11.86 4.17 11.86 9.33v529.12c0 5.15-5.31 9.33-11.86 9.33H682.14c-6.55 0-11.86-4.17-11.86-9.33v-529.12c0-5.15 5.31-9.33 11.86-9.33z" class="colorffffff svgShape"></path><path fill="#7764f0" d="m874.88,1101.43h0v-23.72h0v-.08c-.11.03-.23.05-.36.08h-6.11c-8.36-1.44-14.7-8.73-14.7-17.5,0-3.7,1.12-7.13,3.05-9.97l4.75-4.75s.02,0,.03-.02h0l-16.77-16.77h0l-.04-.04c-.07.1-.16.21-.23.31l-4.29,4.29c-6.93,4.89-16.57,4.23-22.78-1.97-2.61-2.61-4.23-5.83-4.89-9.21v-6.73h-23.78c.03.11.04.23.06.35v6.12c-1.44,8.36-8.73,14.7-17.5,14.7-3.7,0-7.12-1.12-9.96-3.05l-4.76-4.75v-.03h0l-16.77,16.78h0l-.04.04c.1.07.21.16.31.23l4.29,4.29c4.9,6.93,4.23,16.58-1.97,22.77-2.61,2.62-5.83,4.24-9.2,4.89h-6.75v23.72h0v.06c.1-.02.23-.04.35-.06h6.11c8.36,1.44,14.7,8.73,14.7,17.5,0,3.69-1.13,7.12-3.06,9.96l-4.75,4.76h-.03l16.78,16.77h0l.04.05c.07-.1.15-.22.23-.33l4.29-4.3c6.94-4.88,16.57-4.22,22.78,1.98,2.61,2.61,4.23,5.83,4.88,9.2v6.75h23.78c-.03-.12-.03-.23-.06-.36v-6.11c1.44-8.36,8.73-14.7,17.5-14.69,3.7,0,7.13,1.14,9.97,3.05l4.75,4.75.02.02h0l16.77-16.77h0l.04-.05c-.1-.07-.21-.15-.31-.23l-4.3-4.28c-4.89-6.94-4.23-16.58,1.97-22.79,2.61-2.61,5.83-4.23,9.21-4.88h6.74-.02.02Zm-74.21,16.81c-15.82,0-28.67-12.83-28.67-28.67s12.82-28.67,28.67-28.67,28.67,12.83,28.67,28.67-12.82,28.67-28.67,28.67Z" data-name="gear 1" class="color9ed7d7 svgShape"></path><path fill="#3b384f" d="M1452.64 1129.88h-527.52c-6.98 0-12.68-5.71-12.68-12.69h0c0-6.98 5.71-12.69 12.68-12.69h527.52c6.98 0 12.69 5.71 12.69 12.69h0c0 6.98-5.71 12.69-12.69 12.69zM1283.01 1082.92h-357.89c-6.98 0-12.69-5.71-12.69-12.69h0c0-6.98 5.71-12.69 12.69-12.69h357.89c6.98 0 12.69 5.71 12.69 12.69h0c0 6.98-5.71 12.69-12.69 12.69z" class="color383a4f svgShape"></path><path fill="#7764f0" d="m874.88,1315.73h0v-23.72h0v-.08c-.11.03-.23.05-.36.08h-6.11c-8.36-1.44-14.7-8.73-14.7-17.5,0-3.7,1.12-7.13,3.05-9.97l4.75-4.75s.02,0,.03-.02h0l-16.77-16.77h0l-.04-.04c-.07.1-.16.21-.23.31l-4.29,4.29c-6.93,4.89-16.57,4.23-22.78-1.97-2.61-2.61-4.23-5.83-4.89-9.21v-6.73h-23.78c.03.11.04.23.06.35v6.12c-1.44,8.36-8.73,14.7-17.5,14.7-3.7,0-7.12-1.12-9.96-3.05l-4.76-4.75v-.03h0l-16.77,16.78h0l-.04.04c.1.07.21.16.31.23l4.29,4.29c4.9,6.93,4.23,16.58-1.97,22.77-2.61,2.62-5.83,4.24-9.2,4.89h-6.75v23.72h0v.06c.1-.02.23-.04.35-.06h6.11c8.36,1.44,14.7,8.73,14.7,17.5,0,3.69-1.13,7.12-3.06,9.96l-4.75,4.75h-.03l16.78,16.77h0l.04.05c.07-.1.15-.22.23-.33l4.29-4.3c6.94-4.88,16.57-4.22,22.78,1.98,2.61,2.61,4.23,5.83,4.88,9.2v6.75h23.78c-.03-.12-.03-.23-.06-.36v-6.11c1.44-8.36,8.73-14.7,17.5-14.69,3.7,0,7.13,1.14,9.97,3.05l4.75,4.75.02.02h0l16.77-16.77h0l.04-.05c-.1-.07-.21-.15-.31-.23l-4.3-4.28c-4.89-6.94-4.23-16.58,1.97-22.79,2.61-2.61,5.83-4.23,9.21-4.89h6.74l-.02.02h.02Zm-74.21,16.81c-15.82,0-28.67-12.83-28.67-28.67s12.82-28.67,28.67-28.67,28.67,12.83,28.67,28.67-12.82,28.67-28.67,28.67Z" data-name="gear 1-2" class="color9ed7d7 svgShape"></path><path fill="#3b384f" d="M1452.64 1344.18h-527.52c-6.98 0-12.68-5.71-12.68-12.69h0c0-6.98 5.71-12.69 12.68-12.69h527.52c6.98 0 12.69 5.71 12.69 12.69h0c0 6.98-5.71 12.69-12.69 12.69zM1283.01 1297.23h-357.89c-6.98 0-12.69-5.71-12.69-12.69h0c0-6.98 5.71-12.69 12.69-12.69h357.89c6.98 0 12.69 5.71 12.69 12.69h0c0 6.98-5.71 12.69-12.69 12.69zM1877.44 1223.17c0 85.98-69.7 155.66-155.68 155.66s-154.57-68.59-155.64-153.62h151.57l.6-.04-9.18-157.13c4.17-.34 8.39-.51 12.65-.51 85.98 0 155.68 69.68 155.68 155.66h0z" class="color383a4f svgShape"></path><path fill="#3b384f" d="M1698.45 1174.79l-.6.04-112.95-104.66c25.9-29.54 62.83-49.17 104.36-52.51l9.18 157.13h0zM1696.33 1199.25h-151.57c-.03-.69-.03-1.36-.03-2.03 0-39.32 14.58-75.25 38.64-102.63l112.95 104.66h0z" class="color383a4f svgShape"></path><g fill="#000000" class="color000000 svgShape"><path fill="#eae9f1" d="m2059.92,412.42h1003.99c15.57,0,28.21,12.64,28.21,28.21v1009.16c0,15.57-12.64,28.21-28.21,28.21h-1003.99c-15.57,0-28.21-12.64-28.21-28.21V440.64c0-15.57,12.64-28.21,28.21-28.21Z" class="colore9e9f1 svgShape"></path><path fill="#3c3950" d="m2940.13,963.8h-208.25c0-107.3-87.28-194.6-194.6-194.6v-208.25c222.12,0,402.85,180.72,402.85,402.85Z" class="color393b50 svgShape"></path><path fill="#7764f0" d="m2537.29,1309.84c-190.81,0-346.03-155.24-346.03-346.05s155.24-346.05,346.03-346.05v94.67c-138.61,0-251.38,112.77-251.38,251.38s112.77,251.38,251.38,251.38c79.48,0,155.15-38.24,202.42-102.28l76.17,56.21c-65.04,88.11-169.19,140.73-278.58,140.73h-.01Z" class="color9ed7d7 svgShape"></path><path fill="#ffffff" d="m2840.23,1187.1l-124.89-92.19c28.16-38.16,43.06-83.5,43.06-131.1h155.25c0,81.05-25.37,158.26-73.4,223.31h-.01Z" class="colorffffff svgShape"></path></g><rect width="3631.13" height="75.31" x="35.6" y="3266.38" fill="#161421" rx="37.66" ry="37.66" class="color141921 svgShape"></rect><g fill="#000000" class="color000000 svgShape"><path fill="#7764f0" d="m3366.59,2948.75c0-10.5,75.62-212.15,203.75-258.36-50.41,214.25-147.04,295.05-186.95,311.37-12.6-19.39-16.8-53-16.8-53Z" class="color9ed7d7 svgShape"></path><path fill="#7764f0" d="M3425.4 2950.61s65.12-119.73 203.75-102.93c-79.82 50.41-203.75 125.31-203.75 125.31v-22.38zM3362.32 2989.27s-65.12-159.64 0-239.46c31.51 48.31 27.31 168.04 0 239.46zM3354.21 2998.37s-226.86-140.73-359.19-132.33c98.72-63.02 298.27 0 359.19 132.33z" class="color9ed7d7 svgShape"></path><path fill="#7764f0" d="m3339.47,2979.15s-105.03-57.2-132.33-202.14c79.82,4.2,149.14,150.12,132.33,202.14Z" class="color9ed7d7 svgShape"></path><path fill="#7764f0" d="m3349.62,2966.3s-58.81-111.33-35.71-176.44c33.61,48.05,46.21,134.43,35.71,176.44Z" class="color9ed7d7 svgShape"></path><rect width="394" height="94.3" x="3170.2" y="2951.22" fill="#5a4bb8" rx="4" ry="4" class="colorb84b5c svgShape"></rect><path fill="#3c3950" d="m3448.41,3266.38h-162.41c-11.61,0-21.77-7.79-24.77-19l-54.09-201.85h320.14l-54.09,201.85c-3,11.21-13.16,19-24.77,19Z" class="color393b50 svgShape"></path><polygon fill="#252333" points="3229.1 3127.48 3527.27 3045.52 3207.13 3045.52 3229.1 3127.48" class="color232533 svgShape"></polygon></g><g data-name="Artwork 11" fill="#000000" class="color000000 svgShape"><path fill="#7e72cc" d="m1036.52,1357.65l-3.02-84.36c-26.38,39.68-75.22-14.21-121.99-11.06,0,2.24,1.2,125.4,1.03,146.43,8.55-1.2,17.1-1.72,25.63-1.7,23.83-30.13,59.66-49.22,98.34-49.31Z" class="colorcc7f72 svgShape"></path><path fill="#7e72cc" d="m1036.52,1357.65c-38.69.09-74.51,19.18-98.34,49.31,34.36.06,68.46,9.05,100.8,19.43l-2.46-68.73Z" class="colorcc7f72 svgShape"></path><path fill="#9b8cf7" d="m1117.3,1084.62c-.68,1.1-2.25,3.8-5.45,5.53-5.94,3.21-13.31.77-18.63-1.04-19.81-6.74-48.65-17.08-84.76-11.1-29.66,4.91-67.26,24.52-76.04,32.49-17.39,15.77-14.39,119.48-15.06,124.47,0,0-.29,18.56,6.44,34.9.07.16.15.32.21.48l41.91-4.99c.42,5.03,5.1,51.33,45.72,75.92,35.62,21.56,80.07,15.05,106.41-5.65,7.84-6.16,24.52-21.79,35.84-120.13,9.57-83.17,7.51-157.72-5.08-159.59-6.93-1.03-25.32,18.72-31.51,28.7Zm-105.54,176.97c.09-.57.19-1.14.3-1.71-.11.57-.2,1.14-.3,1.71Z" class="colorf79f8c svgShape"></path><path fill="#171521" d="m1156.97,1006.47c-5.51-16.55-22.36-28.67-39.88-28.67-11.38,0-22.42,4.58-33.8,4.41-12.9-.19-24.82-6.41-36.46-11.94-7.1-3.37-14.39-6.53-21.8-9.37-49.79-.36-65.58,11.79-83.97,33.81-20.63,24.71-33.49,70.79-16.08,97.84,5.14,7.98,17.2,19.12,20.11,28.15,4.71,14.65-5.52,32.69-9.38,47.58-6.96,26.8,3.53,68.9,18.09,92.48,10.61,17.18,29.39,16.04,41.55,32.17,17.01-24.71,41.98-70.37,40-81.82-3.4-19.66-7.72-28.69,5.9-43.32,8.48-9.1,12.82-.4,24.34-5.14,3.71-1.53,10.09,2.43,12.54-.73,6.31-8.17,10.06-42.58,11.36-54.72,7.65-1.85,15.03-5,21.69-9.18,14.06-8.83,25.14-21.75,33.94-35.79,10.45-16.66,18.07-37.12,11.86-55.76Z" class="color151921 svgShape"></path><path fill="#171521" d="m949.82,1159.68c3.87-14.89,11.11-30.31,6.4-44.95-2.9-9.03-9.93-16.04-15.06-24.02-17.41-27.05-11.03-64.87,9.6-89.58,18.38-22.02,45.85-34.69,74.25-40.23-26.53-10.17-54.74-16.09-82.52-11.48-24.59,4.08-48.59,18.13-62.31,39.13-4.07,6.24-8.6,14.63-11.62,23.46-17.31,15.8-31.36,36.71-32.8,53.86-12.3,146.92,67.77,236.81,77.26,240.63,29.56,11.9,60.3,8.69,72.33-1.88,3.96-3.47,9.13-9.96,14.65-17.97-12.16-16.12-27.52-29.86-38.14-47.04-14.56-23.58-19.02-53.12-12.06-79.92Z" class="color151921 svgShape"></path><polygon fill="#c6befb" points="1138.54 3156.95 1007.66 3156.4 1025.6 2948.5 1156.48 2949.06 1138.54 3156.95" class="colorfbc9be svgShape"></polygon><path fill="#0c0c0e" d="m1014.45,3129.62c30.8,8.22,100.51,35.1,133.2-12.29l221.03,119.77-390.19-2.56,18.19-93.2c1.25-8.44,9.52-13.91,17.76-11.72Z" class="color0c0e0e svgShape"></path><rect width="390.19" height="33.82" x="978.38" y="3235.82" fill="#3b3850" transform="rotate(.38 1162.643 3222.825)" class="color383a50 svgShape"></rect><path fill="#483d91" d="m417.51,2206.25s-98.25,149.83,83.76,224.93c0,0,163.47,80.41,506.38,61.63l-8.18,530.02,218.47,24,31.2-609.75c.38-1.02.74-2.03,1.1-3.05,32.4-92.96-37.09-190.16-135.52-191.52h0l-697.21-36.26Z" class="color913d4d svgShape"></path><rect width="2173.11" height="83.58" x="216.67" y="2037.81" fill="#eae9f2" class="colore9e9f2 svgShape"></rect><rect width="671.64" height="83.58" x="2389.79" y="2037.81" fill="#e0dfe8" class="colordfdfe8 svgShape"></rect><rect width="77.61" height="1137.55" x="491.09" y="2121.39" fill="#eae9f2" class="colore9e9f2 svgShape"></rect><rect width="143.28" height="1137.55" x="568.7" y="2121.39" fill="#e0dfe8" class="colordfdfe8 svgShape"></rect><rect width="94.39" height="1137.55" x="2156.75" y="2121.39" fill="#eae9f2" class="colore9e9f2 svgShape"></rect><rect width="736.34" height="1137.55" x="2251.14" y="2121.39" fill="#e0dfe8" class="colordfdfe8 svgShape"></rect><polygon fill="#c6befb" points="1567.66 3156.95 1436.78 3156.4 1454.73 2948.5 1585.61 2949.06 1567.66 3156.95" class="colorfbc9be svgShape"></polygon><path fill="#0c0c0e" d="m1443.58,3129.62c30.8,8.22,100.51,35.1,133.2-12.29l221.03,119.77-390.19-2.56,18.19-93.2c1.25-8.44,9.52-13.91,17.76-11.72Z" class="color0c0e0e svgShape"></path><rect width="390.19" height="33.82" x="1407.5" y="3235.82" fill="#3b3850" transform="rotate(.38 1587.84 3222.923)" class="color383a50 svgShape"></rect><path fill="#5a4bb8" d="m846.64,2206.25s-98.25,149.83,83.76,224.93c0,0,163.47,80.41,506.38,61.63l-8.18,530.02,218.47,24,31.2-609.75c.38-1.02.74-2.03,1.1-3.05,32.4-92.96-37.09-190.16-135.52-191.52h0l-697.21-36.26Z" class="colorb84b5c svgShape"></path><path fill="#010101" d="m1194.5,1701.31c.52,0,.52.84,0,.84-.54,0-.54-.84,0-.84Z" class="color010101 svgShape"></path><path fill="#7764f0" d="m1237.6,2238.09c.14,50.34-70.77,86.6-178.68,87.92-120.12,1.46-278.21-37.34-275.17-93.83,3.13-58.38,16.75-215.59,17.58-250.68,2.84-118.89-44.07-491.2-44.07-491.2,0-63.93,55.2-111.05,254.35-111.05,210.57,0,230.58,65.14,230.58,129.06,0,0-7.05,240.89-6.19,408.48.34,68.35,1.49,283.44,1.61,321.3Z" class="color9ed7d7 svgShape"></path><path fill="#9b8cf7" d="m705.14,1479.77c24.4-68.29,178.22-46.2,162.19,38.49-18.95,100.3-75.42,348.25-96.18,409.16l-144.99-26.98c-.75-52.51,30.28-284.44,78.97-420.67Z" class="colorf79f8c svgShape"></path><path fill="#9b8cf7" d="m762.15,1947.63c-21.88,34.09-67.5,43.64-102.03,21.6-34.38-22.03-44.65-67.47-22.77-101.51,21.82-33.92,67.47-43.54,101.97-21.49,34.5,22.06,44.71,67.49,22.83,101.41Z" class="colorf79f8c svgShape"></path><path fill="#7764f0" d="m812.62,1416.22c-59.93-14.04-123.88,34.37-137.9,94.29l-68.05,266.22c-3.44,14.68,42.35,37.98,102.32,52.02,59.93,14.05,111.32,13.54,114.73-1.13l68.05-266.2c14.05-59.95-19.18-131.16-79.15-145.2Z" class="color9ed7d7 svgShape"></path><g fill="#000000" class="color000000 svgShape"><path fill="#d8d7dd" d="m1357.53,2531.53c0,11-4.45,20.95-11.66,28.15-7.21,7.19-17.17,11.66-28.15,11.66h-751.34c-110.43,0-201.35-86.83-206.45-197.13l-24.02-520.57c-3.65-78.84,59.3-144.75,138.22-144.75h227.78c62.06,0,116.54,41.33,133.26,101.1l154.48,552.39c21.38,76.47,91.07,129.34,170.48,129.34h157.6c21.99,0,39.81,17.82,39.81,39.8Z" class="colord7d7dd svgShape"></path><path fill="#7764f0" d="m969.35,2571.34c-2.36,29.46-67.52,53.08-147.54,53.08s-145.17-23.62-147.53-53.08h295.08Z" class="color9ed7d7 svgShape"></path><rect width="114.14" height="637.66" x="765.72" y="2620.32" fill="#181622" class="color161c22 svgShape"></rect></g><path fill="#9b8cf7" d="m1305.98,1945.15c-16.4,37.04-60.02,53.49-97.53,36.95-37.39-16.47-54.46-59.79-38.05-96.77,16.37-36.89,60.02-53.36,97.47-36.89,37.48,16.51,54.46,59.85,38.11,96.71Z" class="colorf79f8c svgShape"></path><g fill="#000000" class="color000000 svgShape"><path fill="#9b8cf7" d="m1260.71,1487.14c-20.96-69.41-175.01-57.12-164.26,28.4,12.73,101.27,53.71,352.26,70.69,414.3l146.39-17.95s-19.13-313.3-52.82-424.75Z" class="colorf79f8c svgShape"></path><path fill="#9b8cf7" d="m1174.85,1950.58c19.76,35.39,64.72,47.75,100.54,27.87,35.67-19.86,48.72-64.58,28.96-99.91-19.67-35.21-64.63-47.64-100.42-27.77-35.79,19.9-48.81,64.59-29.08,99.8Z" class="colorf79f8c svgShape"></path><path fill="#7764f0" d="m1157.36,1417.08c60.68-10.32,121.53,41.97,131.82,102.65l51.44,269.91c2.55,14.86-44.65,35.27-105.33,45.59-60.71,10.32-111.92,6.63-114.47-8.22l-51.42-269.9c-10.32-60.73,27.24-129.73,87.95-140.04Z" class="color9ed7d7 svgShape"></path></g><g fill="#000000" class="color000000 svgShape"><path fill="#9b8cf7" d="m1547.35,1934.32l68.13-18.28,48.15-20.56,37.73-92.39c-15.57-15.37-39.49-18.61-58.62-7.93l-70.53,39.38-31.37,8.64,6.51,91.14Z" class="colorf79f8c svgShape"></path><path fill="#9b8cf7" d="m1684.25,1852.16l11.07-36.66,8.43,1.46,91.99,28.55c4.99,1.55,7.21,7.34,4.53,11.8l-2.74,4.58c-4.05,6.76-14.25,11.58-21.98,9.96l-91.29-19.69Z" class="colorf79f8c svgShape"></path><path fill="#9b8cf7" d="m1685.74,1848.72l70.18,33.15c3.17,1.5,4.38,5.36,2.64,8.39-3.99,6.91-13.02,10.89-20.7,8.65l-63.48-19.5,11.36-30.69Z" class="colorf79f8c svgShape"></path><polygon fill="#9b8cf7" points="1698.85 1822.97 1697.51 1828.27 1697.48 1828.26 1698.85 1822.97" class="colorf79f8c svgShape"></polygon><path fill="#9b8cf7" d="m1790.32,1809.19c6.8,1.58,9.91,9.44,6.02,15.21l-.37.55c-5.19,7.7-14.4,11.71-23.61,10.28l-74.85-6.96,1.34-5.29-1.38,5.29h.04s-19.66,77.5-19.66,77.5c0,0-9.8-4.15-20.05-9.31l16.07-106.63,116.45,19.37Z" class="colorf79f8c svgShape"></path><path fill="#9b8cf7" d="M1675.21 1878.34l38.78 19.58c5.08 2.7 5.41 10.25 1.32 14.27-3.93 3.87-9.81 5.01-14.93 2.91l-46.2-18.99.69-5.92 20.34-11.86zM1264.82 1880.11c35.5 15.81 51.21 57.75 35.23 93.72-15.91 35.86-57.55 52.13-93.02 36.3-35.36-15.82-51.1-57.79-35.17-93.68 15.96-35.96 57.59-52.17 92.96-36.34z" class="colorf79f8c svgShape"></path><path fill="#9b8cf7" d="m1577.74,1922.94l-13.14-85.46c-174.27,12.29-212.45,25.32-339.99,37.65l17.61,140.66c55.6-2.24,221.57-36.85,335.51-92.86h0Z" class="colorf79f8c svgShape"></path></g></g><g fill="#000000" class="color000000 svgShape"><path fill="#3b3850" d="m1516.77,1988.32h886.82v44.58h-860.41c-14.58,0-26.42-11.84-26.42-26.42v-18.16h0Z" class="color383a50 svgShape"></path><path fill="#5a4bb8" d="m2946.64,1988.32l-7.9,44.57h-598.83c-12.31,0-23.45-4.98-31.52-13.06-8.06-8.06-13.05-19.2-13.05-31.51h651.31Z" class="colorb84b5c svgShape"></path><polygon fill="#5a4bb8" points="3062.74 1333.94 2946.64 1988.32 2938.73 2032.89 2899.58 2032.89 2907.49 1988.32 3023.59 1333.94 3062.74 1333.94" class="colorb84b5c svgShape"></polygon><polygon fill="#ffffff" points="3023.59 1333.94 2907.36 1988.32 1950.26 1988.32 2070.84 1333.94 3023.59 1333.94" class="colorffffff svgShape"></polygon><polygon fill="#e7e5f7" points="3023.59 1333.94 2907.36 1988.32 1950.26 1988.32 2070.84 1333.94 3023.59 1333.94" class="colore5ebf7 svgShape"></polygon><polygon fill="#3d3a50" points="2973.46 1364.5 2868.09 1957.76 2000.39 1957.76 2109.7 1364.5 2973.46 1364.5" class="color3a3c50 svgShape"></polygon></g><g fill="#000000" class="color000000 svgShape"><path fill="#ffffff" d="m2836.32,1858.05h-747.67c-8.46,0-14.11-6.86-12.62-15.32l60.45-342.86c1.49-8.46,9.56-15.32,18.02-15.32h747.67c8.46,0,14.11,6.86,12.62,15.32l-60.45,342.86c-1.49,8.46-9.56,15.32-18.02,15.32Z" class="colorffffff svgShape"></path><path fill="#7764f0" d="m2256.71,1641.91h-119.12c-2.29,0-3.83-1.87-3.43-4.16l21-119.12c.4-2.29,2.61-4.16,4.89-4.16h119.12c2.29,0,3.83,1.87,3.43,4.16l-21,119.12c-.4,2.29-2.61,4.16-4.89,4.16Z" class="color9ed7d7 svgShape"></path><path fill="#ffffff" d="m2232.77,1572.64h-1.32c-1.76-11.34-3.09-16.01-9.43-16.01h-.84l-8.07,45.79h5.92l-.26,1.46h-25.4l.26-1.46h5.92l8.07-45.79h-.9c-6.33,0-9.62,5.22-15.07,16.01h-1.32l3.78-17.47h41.06l-2.38,17.47Z" class="colorffffff svgShape"></path><path fill="#5a4bb8" d="M2482.02 1537.47h-172.33c-4.1 0-6.87-3.36-6.14-7.46h0c.72-4.1 4.67-7.46 8.78-7.46h172.33c4.1 0 6.87 3.36 6.14 7.46h0c-.72 4.1-4.67 7.46-8.78 7.46zM2465.3 1561.09h-163.07c-2.29 0-3.83-1.87-3.43-4.16l.18-1.01c.4-2.29 2.61-4.16 4.89-4.16h163.07c2.29 0 3.83 1.87 3.43 4.16l-.18 1.01c-.4 2.29-2.61 4.16-4.89 4.16zM2427.9 1582.85h-129.5c-2.29 0-3.83-1.87-3.43-4.16l.18-1.01c.4-2.29 2.61-4.16 4.89-4.16h129.5c2.29 0 3.83 1.87 3.43 4.16l-.18 1.01c-.4 2.29-2.61 4.16-4.89 4.16zM2389.06 1604.61h-94c-2.56 0-4.29-2.1-3.84-4.66h0c.45-2.56 2.92-4.66 5.48-4.66h94c2.56 0 4.29 2.1 3.84 4.66h0c-.45 2.56-2.92 4.66-5.48 4.66z" class="colorb84b5c svgShape"></path><path fill="#ffffff" d="m2502.51,1604.61h-94c-2.56,0-4.29-2.1-3.84-4.66h0c.45-2.56,2.92-4.66,5.48-4.66h94c2.56,0,4.29,2.1,3.84,4.66h0c-.45,2.56-2.92,4.66-5.48,4.66Z" class="colorffffff svgShape"></path><path fill="#5a4bb8" d="m2384.89,1628.23h-94c-2.56,0-4.29-2.1-3.84-4.66h0c.45-2.56,2.92-4.66,5.48-4.66h94c2.56,0,4.29,2.1,3.84,4.66h0c-.45,2.56-2.92,4.66-5.48,4.66Z" class="colorb84b5c svgShape"></path><path fill="#ffffff" d="M2498.34 1628.23h-94c-2.56 0-4.29-2.1-3.84-4.66h0c.45-2.56 2.92-4.66 5.48-4.66h94c2.56 0 4.29 2.1 3.84 4.66h0c-.45 2.56-2.92 4.66-5.48 4.66zM2130.05 1667.87h382.25c2.01 0 3.41 1.28 3.13 2.86l-28.6 162.23c-.28 1.58-2.13 2.86-4.14 2.86h-382.25c-2.01 0-3.41-1.28-3.13-2.86l28.6-162.23c.28-1.58 2.13-2.86 4.14-2.86z" class="colorffffff svgShape"></path><path fill="#7764f0" d="m2180.18,1718.75h0l1.28-7.27h0v-.02s-.07.02-.11.02h-1.87c-2.48-.44-4.04-2.68-3.56-5.37.2-1.13.73-2.19,1.47-3.06l1.71-1.46s0,0,0,0h0l-4.24-5.14h-.01s-.06.05-.09.08l-1.55,1.32c-2.39,1.5-5.31,1.3-6.88-.61-.66-.8-.98-1.79-1-2.82l.36-2.06h-7.29s0,.07,0,.11l-.33,1.88c-.89,2.56-3.47,4.51-6.16,4.51-1.13,0-2.12-.34-2.89-.94l-1.2-1.46h0s-6.05,5.14-6.05,5.14h-.02s.06.06.08.08l1.08,1.32c1.13,2.12.4,5.08-1.84,6.98-.94.8-2.02,1.3-3.08,1.5h-2.07l-1.28,7.27h0v.02s.07-.01.11-.02h1.87c2.48.44,4.04,2.68,3.56,5.37-.2,1.13-.73,2.18-1.48,3.05l-1.71,1.46h0l4.24,5.14h0v.02s.07-.07.1-.1l1.55-1.32c2.39-1.5,5.31-1.29,6.88.61.66.8.98,1.79,1,2.82l-.36,2.07h7.29s0-.07,0-.11l.33-1.87c.89-2.56,3.47-4.51,6.16-4.5,1.13,0,2.12.35,2.89.94l1.2,1.46h0s6.05-5.14,6.05-5.14h0l.02-.02s-.06-.05-.08-.07l-1.09-1.31c-1.12-2.13-.4-5.08,1.84-6.99.94-.8,2.01-1.3,3.09-1.5h2.07,0,0Zm-23.66,5.15c-4.85,0-8.09-3.93-7.24-8.79s5.48-8.79,10.34-8.79,8.1,3.93,7.24,8.79c-.86,4.85-5.48,8.79-10.34,8.79Z" data-name="gear 1" class="color9ed7d7 svgShape"></path><path fill="#3b384f" d="M2355.78 1727.48h-161.74c-2.14 0-3.58-1.75-3.2-3.89h0c.38-2.14 2.44-3.89 4.58-3.89h161.74c2.14 0 3.58 1.75 3.2 3.89h0c-.38 2.14-2.44 3.89-4.58 3.89zM2306.31 1713.08h-109.73c-2.14 0-3.58-1.75-3.2-3.89h0c.38-2.14 2.44-3.89 4.58-3.89h109.73c2.14 0 3.58 1.75 3.2 3.89h0c-.38 2.14-2.44 3.89-4.58 3.89z" class="color383a4f svgShape"></path><path fill="#7764f0" d="m2168.59,1784.46h0l1.28-7.27h0v-.02s-.07.02-.11.02h-1.87c-2.48-.44-4.04-2.68-3.56-5.37.2-1.13.73-2.19,1.47-3.06l1.71-1.46s0,0,0,0h0l-4.24-5.14h-.01s-.06.05-.09.08l-1.55,1.32c-2.39,1.5-5.31,1.3-6.88-.61-.66-.8-.98-1.79-1-2.82l.36-2.06h-7.29s0,.07,0,.11l-.33,1.88c-.89,2.56-3.47,4.51-6.16,4.51-1.13,0-2.12-.34-2.89-.94l-1.2-1.46h0s-6.05,5.14-6.05,5.14h-.02s.06.06.08.08l1.08,1.32c1.13,2.12.4,5.08-1.84,6.98-.94.8-2.02,1.3-3.08,1.5h-2.07l-1.28,7.27h0v.02s.07-.01.11-.02h1.87c2.48.44,4.04,2.68,3.56,5.37-.2,1.13-.73,2.18-1.48,3.05l-1.71,1.46h0l4.24,5.14h0v.02s.07-.07.1-.1l1.55-1.32c2.39-1.5,5.31-1.29,6.88.61.66.8.98,1.79,1,2.82l-.36,2.07h7.29s0-.07,0-.11l.33-1.87c.89-2.56,3.47-4.51,6.16-4.51,1.13,0,2.12.35,2.89.94l1.2,1.46h0s6.05-5.14,6.05-5.14h0l.02-.02s-.06-.05-.08-.07l-1.09-1.31c-1.12-2.13-.4-5.08,1.84-6.99.94-.8,2.01-1.3,3.09-1.5h2.07,0s0,0,0,0Zm-23.66,5.15c-4.85,0-8.09-3.93-7.24-8.79s5.48-8.79,10.34-8.79,8.09,3.93,7.24,8.79c-.86,4.85-5.48,8.79-10.34,8.79Z" data-name="gear 1-2" class="color9ed7d7 svgShape"></path><path fill="#3b384f" d="M2344.19 1793.18h-161.74c-2.14 0-3.58-1.75-3.2-3.89h0c.38-2.14 2.44-3.89 4.58-3.89h161.74c2.14 0 3.58 1.75 3.2 3.89h0c-.38 2.14-2.44 3.89-4.58 3.89zM2294.72 1778.79h-109.73c-2.14 0-3.58-1.75-3.2-3.89h0c.38-2.14 2.44-3.89 4.58-3.89h109.73c2.14 0 3.58 1.75 3.2 3.89h0c-.38 2.14-2.44 3.89-4.57 3.89zM2480.98 1756.08c-4.65 26.36-29.79 47.72-56.15 47.72s-43.68-21.03-39.41-47.1h46.66s5.68-48.19 5.68-48.19c1.3-.1 2.6-.16 3.91-.16 26.36 0 43.97 21.36 39.32 47.72h0z" class="color383a4f svgShape"></path><path fill="#3b384f" d="M2428.72 1741.25h-.19s-28.97-32.08-28.97-32.08c9.54-9.06 21.92-15.07 34.84-16.1l-5.68 48.18h0zM2426.74 1748.75h-46.47c.03-.21.07-.42.1-.62 2.13-12.06 8.54-23.07 17.39-31.47l28.97 32.09h0z" class="color383a4f svgShape"></path><g fill="#000000" class="color000000 svgShape"><path fill="#eae9f1" d="m2580.76,1507.51h307.82c4.78,0,7.97,3.87,7.13,8.65l-54.56,309.41c-.84,4.78-5.4,8.65-10.18,8.65h-307.82c-4.78,0-7.97-3.87-7.13-8.65l54.56-309.41c.84-4.78,5.4-8.65,10.18-8.65Z" class="colore9e9f1 svgShape"></path><path fill="#3c3950" d="m2820.82,1676.56h-63.85c5.8-32.9-16.24-59.66-49.14-59.66l11.26-63.85c68.1,0,113.74,55.41,101.73,123.51Z" class="color393b50 svgShape"></path><path fill="#7764f0" d="m2678.6,1782.65c-58.5,0-97.7-47.6-87.39-106.1,10.32-58.5,66.3-106.1,124.8-106.1l-5.12,29.02c-42.5,0-83.17,34.57-90.66,77.07-7.49,42.5,20.98,77.07,63.48,77.07,24.37,0,49.64-11.72,67.59-31.36l20.31,17.23c-24.7,27.02-59.48,43.15-93.02,43.15h0Z" class="color9ed7d7 svgShape"></path><path fill="#ffffff" d="m2778.12,1745.02l-33.31-28.27c10.7-11.7,17.71-25.6,20.29-40.2h47.6c-4.38,24.85-16.33,48.52-34.58,68.47h0Z" class="colorffffff svgShape"></path></g></g></svg>