<svg xmlns="http://www.w3.org/2000/svg" id="Securemobilephone" x="0" y="0" enable-background="new 0 0 600 500" version="1.1" viewBox="0 0 600 500" xml:space="preserve"><g id="Online_Data_Protection" fill="#000000" class="color000000 svgShape"><path fill="#d8d2ff" d="M46.3,399.4c2.4,9.3,7.3,17.2,13.9,23.9l464.3,0.8c2.2-6.9,3.8-13.4-1.1-18.2c-3.3-3.2-8.2-3.8-12.2-6
							c-7.8-4.3-10.9-14.2-10.4-23.2c0.4-8.9,3.6-17.5,5.4-26.3c3.4-17.5,0.8-35.7,3.1-53.5c4.3-33.8,25.4-62.4,40.5-92.8
							c4.4-8.8,8.3-18.9,5.4-28.3c-2.6-8.2-10-14-13.4-21.9c-7.3-16.8,4.9-37.8-3.2-54.2C533,88.6,520.2,83.6,508.5,80
							C453,62.6,392.9,53.1,336.9,68.5c-35.3,9.7-69.4,29.2-105.7,25.8C195.5,91.1,162,66,126.9,73.3c-27.8,5.8-47.7,30.7-60.8,56.2
							c-10.6,20.6-18.6,44-14.4,66.8c5,27.6,27,50.6,28.7,78.6c1.3,21.9-10,42.3-20.1,61.7C50.2,356.1,40.8,378.1,46.3,399.4z" opacity=".3" class="colord2e4ff svgShape"></path><path fill="#cdc6fa" d="M182.5 321h-34.1c-.2 0-.4-.2-.4-.4s.2-.4.4-.4h34.1c.2 0 .4.2.4.4S182.7 321 182.5 321zM182.5 337.9h-34.1c-.2 0-.4-.2-.4-.4s.2-.4.4-.4h34.1c.2 0 .4.2.4.4S182.7 337.9 182.5 337.9zM176.3 329.5h-48.2c-.2 0-.4-.2-.4-.4s.2-.4.4-.4h48.2c.2 0 .4.2.4.4S176.5 329.5 176.3 329.5z" class="colorc6e2fa svgShape"></path><path fill="#cdc6fa" d="M155.4 321c-.2 0-.4-.2-.4-.4v-7.2c0-.2.2-.4.4-.4s.4.2.4.4v7.2C155.8 320.9 155.6 321 155.4 321zM167.4 329.5c-.2 0-.4-.2-.4-.4v-8.4c0-.2.2-.4.4-.4s.4.2.4.4v8.4C167.8 329.3 167.6 329.5 167.4 329.5zM158.3 337.6c-.2 0-.4-.2-.4-.4v-8.2c0-.2.2-.4.4-.4s.4.2.4.4v8.2C158.7 337.5 158.5 337.6 158.3 337.6z" class="colorc6e2fa svgShape"></path><path d="M453.5,320h-1v-0.2h1V320z M453.5,314.8h-1v-5h1V314.8z M453.5,304.8h-1v-5h1V304.8z M453.5,294.8h-1v-5h1V294.8z
						 M453.5,284.8h-1v-5h1V284.8z M453.5,274.8h-1v-5h1V274.8z M453.5,264.8h-1v-5h1V264.8z M453.5,254.8h-1v-5h1V254.8z
						 M453.5,244.8h-1v-5h1V244.8z M453.5,234.8h-1v-5h1V234.8z M453.5,224.8h-1v-5h1V224.8z M453.5,214.8h-1v-5h1V214.8z
						 M453.5,204.8h-1v-5h1V204.8z M453.5,194.8h-1v-5h1V194.8z M453.5,184.8h-1v-5h1V184.8z M453.5,174.8h-1v-0.2
						c0-1.5-0.3-3-0.9-4.5l0.9-0.4c0.6,1.5,1,3.2,1,4.8V174.8z M449,166.2c-1.2-1.1-2.5-2-4-2.6l0.4-0.9c1.6,0.6,3.1,1.5,4.4,2.8
						L449,166.2z M440.2,162.9h-5v-1h5V162.9z M430.2,162.9h-5v-1h5V162.9z M420.2,162.9h-5v-1h5V162.9z M410.2,162.9h-5v-1h5V162.9
						z M400.2,162.9h-5v-1h5V162.9z M390.2,162.9h-5v-1h5V162.9z M380.2,162.9h-5v-1h5V162.9z M370.2,162.9h-5v-1h5V162.9z
						 M360.2,162.9h-5v-1h5V162.9z M350.2,162.9h-5v-1h5V162.9z M340.2,162.9h-5v-1h5V162.9z M330.2,162.9h-5v-1h5V162.9z
						 M320.2,162.9h-5v-1h5V162.9z M310.2,162.9h-5v-1h5V162.9z M300.2,162.9h-5v-1h5V162.9z M290.2,162.9h-5v-1h5V162.9z
						 M280.2,162.9h-5v-1h5V162.9z M270.2,162.9h-5v-1h5V162.9z M260.2,162.9h-5v-1h5V162.9z M250.2,162.9h-5v-1h5V162.9z
						 M240.2,162.9h-5v-1h5V162.9z M230.2,162.9h-5v-1h5V162.9z M220.2,162.9h-5v-1h5V162.9z M210.2,162.9h-5v-1h5V162.9z
						 M200.2,162.9h-5v-1h5V162.9z M190.2,162.9h-4.4c-0.2,0-0.4,0-0.6,0l0-1c0.2,0,0.4,0,0.5,0h4.4V162.9z M180.2,161.6
						c-1.6-0.8-2.9-1.8-4.1-3.2l0.8-0.6c1,1.2,2.3,2.2,3.8,2.9L180.2,161.6z M173.6,153.9c-0.4-1.2-0.5-2.4-0.5-3.7v-1.4h1v1.4
						c0,1.2,0.2,2.3,0.5,3.4L173.6,153.9z M174.1,143.8h-1v-5h1V143.8z M174.1,133.8h-1v-5h1V133.8z M174.1,123.8h-1v-5h1V123.8z
						 M174.1,113.8h-1v-5h1V113.8z" fill="#000000" class="color000000 svgShape"></path><path fill="#040406" d="M409.7,122.8v280.7c0,11.4-9.3,20.7-20.7,20.7H232.2c-11.4,0-20.7-9.3-20.7-20.7V122.8
							c0-11.4,9.3-20.7,20.7-20.7H389C400.4,102.1,409.7,111.3,409.7,122.8z" class="color060405 svgShape"></path><path fill="#ffffff" d="M232.2,415.6c-6.7,0-12.2-5.5-12.2-12.2V122.8c0-6.7,5.5-12.2,12.2-12.2H389c6.7,0,12.2,5.5,12.2,12.2
							v280.7c0,6.7-5.5,12.2-12.2,12.2H232.2z" class="colorffffff svgShape"></path><path fill="#040406" d="M350.5,108.7l-5.1,12.1c-0.6,1.6-2.2,2.6-3.9,2.6h-62.1c-1.7,0-3.2-1-3.9-2.6l-5.1-12.1H350.5z" class="color060405 svgShape"></path><path fill="#ffffff" d="M330.8,116.8h-32c-1.2,0-2.2-1-2.2-2.2v-0.5c0-1.2,1-2.2,2.2-2.2h32c1.2,0,2.2,1,2.2,2.2v0.5
							C333,115.8,332,116.8,330.8,116.8z" class="colorffffff svgShape"></path><circle cx="290.2" cy="114.4" r="3.3" fill="#ffffff" class="colorffffff svgShape"></circle><g fill="#000000" class="color000000 svgShape"><path d="M409.7,288.1v115.3c0,11.4-9.3,20.7-20.7,20.7h-10.4c0-0.1,0-0.2,0-0.3V292.7c0-2.5,1.9-4.5,4.2-4.5H409.7z" opacity=".1" fill="#000000" class="color000000 svgShape"></path><path fill="#7764f0" d="M489.8,296.6v123.3c0,2.3-1.7,4.2-3.9,4.2h-98.5c-2.2,0-3.9-1.9-3.9-4.2V296.6c0-2.3,1.8-4.3,3.9-4.3
								h98.5C488.1,292.3,489.8,294.2,489.8,296.6z" class="color6193f6 svgShape"></path><path fill="#ffffff" d="M481.4,305.9v25.5c0,0.5-0.4,0.9-0.9,0.9h-87.5c-0.5,0-1-0.4-1-0.9v-25.5c0-0.5,0.4-0.9,1-0.9h87.5
													C481,304.9,481.4,305.3,481.4,305.9z" class="colorffffff svgShape"></path><path fill="#c6bdff" d="M460.3,315.7c0.1,0.1,0.2,0.3,0.2,0.5v4.7c0,0.2-0.1,0.4-0.2,0.5c-0.1,0.1-0.2,0.2-0.4,0.2h-16.1
													c0,0,0,0,0,0c-0.1,0-0.3-0.1-0.4-0.2c-0.1-0.1-0.2-0.3-0.2-0.5v-4.7c0-0.2,0.1-0.4,0.2-0.5c0.1-0.1,0.2-0.2,0.4-0.2
													c0,0,0,0,0,0h16.1C460,315.5,460.2,315.6,460.3,315.7z" class="colorbdd6ff svgShape"></path><path fill="#5e45ff" d="M474,318.5c0,2.7-2.2,4.8-4.8,4.8c-2.7,0-4.8-2.2-4.8-4.8c0-2.6,2.2-4.8,4.8-4.8
													C471.8,313.7,474,315.9,474,318.5z" class="colorff7545 svgShape"></path><rect width="2.8" height="2.9" x="403.5" y="311.7" fill="#c6bdff" class="colorbdd6ff svgShape"></rect><rect width="2.8" height="2.9" x="410.7" y="311.7" fill="#c6bdff" class="colorbdd6ff svgShape"></rect><rect width="2.8" height="2.9" x="417.9" y="311.7" fill="#c6bdff" class="colorbdd6ff svgShape"></rect><rect width="2.8" height="2.9" x="425" y="311.7" fill="#c6bdff" class="colorbdd6ff svgShape"></rect><rect width="2.8" height="2.9" x="432.2" y="311.7" fill="#c6bdff" class="colorbdd6ff svgShape"></rect><g fill="#000000" class="color000000 svgShape"><rect width="2.8" height="2.9" x="406.9" y="317.2" fill="#c6bdff" class="colorbdd6ff svgShape"></rect><rect width="2.8" height="2.9" x="414.1" y="317.2" fill="#c6bdff" class="colorbdd6ff svgShape"></rect><rect width="2.8" height="2.9" x="421.3" y="317.2" fill="#c6bdff" class="colorbdd6ff svgShape"></rect><rect width="2.8" height="2.9" x="428.5" y="317.2" fill="#c6bdff" class="colorbdd6ff svgShape"></rect><rect width="2.8" height="2.9" x="435.7" y="317.2" fill="#c6bdff" class="colorbdd6ff svgShape"></rect></g><g fill="#000000" class="color000000 svgShape"><rect width="2.8" height="2.9" x="403.5" y="322.6" fill="#c6bdff" class="colorbdd6ff svgShape"></rect><rect width="2.8" height="2.9" x="410.7" y="322.6" fill="#c6bdff" class="colorbdd6ff svgShape"></rect><rect width="2.8" height="2.9" x="417.9" y="322.6" fill="#c6bdff" class="colorbdd6ff svgShape"></rect><rect width="2.8" height="2.9" x="425" y="322.6" fill="#c6bdff" class="colorbdd6ff svgShape"></rect><rect width="2.8" height="2.9" x="432.2" y="322.6" fill="#c6bdff" class="colorbdd6ff svgShape"></rect></g><g fill="#000000" class="color000000 svgShape"><path fill="#ffffff" d="M481.4,341.1v25.5c0,0.5-0.4,0.9-0.9,0.9h-87.5c-0.5,0-1-0.4-1-0.9v-25.5c0-0.5,0.4-0.9,1-0.9h87.5
													C481,340.2,481.4,340.6,481.4,341.1z" class="colorffffff svgShape"></path><path fill="#c6bdff" d="M460.3,351c0.1,0.1,0.2,0.3,0.2,0.5v4.7c0,0.2-0.1,0.4-0.2,0.5c-0.1,0.1-0.2,0.2-0.4,0.2h-16.1
													c0,0,0,0,0,0c-0.1,0-0.3-0.1-0.4-0.2c-0.1-0.1-0.2-0.3-0.2-0.5v-4.7c0-0.2,0.1-0.4,0.2-0.5c0.1-0.1,0.2-0.2,0.4-0.2
													c0,0,0,0,0,0h16.1C460,350.7,460.2,350.8,460.3,351z" class="colorbdd6ff svgShape"></path><path fill="#5e45ff" d="M474,353.8c0,2.7-2.2,4.8-4.8,4.8c-2.7,0-4.8-2.2-4.8-4.8c0-2.6,2.2-4.8,4.8-4.8
													C471.8,349,474,351.2,474,353.8z" class="colorff7545 svgShape"></path><rect width="2.8" height="2.9" x="403.5" y="347" fill="#c6bdff" class="colorbdd6ff svgShape"></rect><rect width="2.8" height="2.9" x="410.7" y="347" fill="#c6bdff" class="colorbdd6ff svgShape"></rect><rect width="2.8" height="2.9" x="417.9" y="347" fill="#c6bdff" class="colorbdd6ff svgShape"></rect><rect width="2.8" height="2.9" x="425" y="347" fill="#c6bdff" class="colorbdd6ff svgShape"></rect><rect width="2.8" height="2.9" x="432.2" y="347" fill="#c6bdff" class="colorbdd6ff svgShape"></rect><g fill="#000000" class="color000000 svgShape"><rect width="2.8" height="2.9" x="406.9" y="352.4" fill="#c6bdff" class="colorbdd6ff svgShape"></rect><rect width="2.8" height="2.9" x="414.1" y="352.4" fill="#c6bdff" class="colorbdd6ff svgShape"></rect><rect width="2.8" height="2.9" x="421.3" y="352.4" fill="#c6bdff" class="colorbdd6ff svgShape"></rect><rect width="2.8" height="2.9" x="428.5" y="352.4" fill="#c6bdff" class="colorbdd6ff svgShape"></rect><rect width="2.8" height="2.9" x="435.7" y="352.4" fill="#c6bdff" class="colorbdd6ff svgShape"></rect></g><g fill="#000000" class="color000000 svgShape"><rect width="2.8" height="2.9" x="403.5" y="357.9" fill="#c6bdff" class="colorbdd6ff svgShape"></rect><rect width="2.8" height="2.9" x="410.7" y="357.9" fill="#c6bdff" class="colorbdd6ff svgShape"></rect><rect width="2.8" height="2.9" x="417.9" y="357.9" fill="#c6bdff" class="colorbdd6ff svgShape"></rect><rect width="2.8" height="2.9" x="425" y="357.9" fill="#c6bdff" class="colorbdd6ff svgShape"></rect><rect width="2.8" height="2.9" x="432.2" y="357.9" fill="#c6bdff" class="colorbdd6ff svgShape"></rect></g></g><g fill="#000000" class="color000000 svgShape"><path fill="#ffffff" d="M481.4,376.4v25.5c0,0.5-0.4,0.9-0.9,0.9h-87.5c-0.5,0-1-0.4-1-0.9v-25.5c0-0.5,0.4-0.9,1-0.9h87.5
													C481,375.4,481.4,375.9,481.4,376.4z" class="colorffffff svgShape"></path><path fill="#c6bdff" d="M460.3,386.2c0.1,0.1,0.2,0.3,0.2,0.5v4.7c0,0.2-0.1,0.4-0.2,0.5c-0.1,0.1-0.2,0.2-0.4,0.2h-16.1
													c0,0,0,0,0,0c-0.1,0-0.3-0.1-0.4-0.2c-0.1-0.1-0.2-0.3-0.2-0.5v-4.7c0-0.2,0.1-0.4,0.2-0.5c0.1-0.1,0.2-0.2,0.4-0.2
													c0,0,0,0,0,0h16.1C460,386,460.2,386.1,460.3,386.2z" class="colorbdd6ff svgShape"></path><path fill="#5e45ff" d="M474,389.1c0,2.7-2.2,4.8-4.8,4.8c-2.7,0-4.8-2.2-4.8-4.8c0-2.6,2.2-4.8,4.8-4.8
													C471.8,384.3,474,386.4,474,389.1z" class="colorff7545 svgShape"></path><rect width="2.8" height="2.9" x="403.5" y="382.2" fill="#c6bdff" class="colorbdd6ff svgShape"></rect><rect width="2.8" height="2.9" x="410.7" y="382.2" fill="#c6bdff" class="colorbdd6ff svgShape"></rect><rect width="2.8" height="2.9" x="417.9" y="382.2" fill="#c6bdff" class="colorbdd6ff svgShape"></rect><rect width="2.8" height="2.9" x="425" y="382.2" fill="#c6bdff" class="colorbdd6ff svgShape"></rect><rect width="2.8" height="2.9" x="432.2" y="382.2" fill="#c6bdff" class="colorbdd6ff svgShape"></rect><g fill="#000000" class="color000000 svgShape"><rect width="2.8" height="2.9" x="406.9" y="387.7" fill="#c6bdff" class="colorbdd6ff svgShape"></rect><rect width="2.8" height="2.9" x="414.1" y="387.7" fill="#c6bdff" class="colorbdd6ff svgShape"></rect><rect width="2.8" height="2.9" x="421.3" y="387.7" fill="#c6bdff" class="colorbdd6ff svgShape"></rect><rect width="2.8" height="2.9" x="428.5" y="387.7" fill="#c6bdff" class="colorbdd6ff svgShape"></rect><rect width="2.8" height="2.9" x="435.7" y="387.7" fill="#c6bdff" class="colorbdd6ff svgShape"></rect></g><g fill="#000000" class="color000000 svgShape"><rect width="2.8" height="2.9" x="403.5" y="393.2" fill="#c6bdff" class="colorbdd6ff svgShape"></rect><rect width="2.8" height="2.9" x="410.7" y="393.2" fill="#c6bdff" class="colorbdd6ff svgShape"></rect><rect width="2.8" height="2.9" x="417.9" y="393.2" fill="#c6bdff" class="colorbdd6ff svgShape"></rect><rect width="2.8" height="2.9" x="425" y="393.2" fill="#c6bdff" class="colorbdd6ff svgShape"></rect><rect width="2.8" height="2.9" x="432.2" y="393.2" fill="#c6bdff" class="colorbdd6ff svgShape"></rect></g></g></g><g fill="#000000" class="color000000 svgShape"><path fill="#040406" d="M542.6,365.3v55.5c0,2-1.6,3.5-3.5,3.5H469c-2,0-3.5-1.6-3.5-3.5v-55.5c0-1.2,1-2.2,2.2-2.2h72.9
							C541.7,363.2,542.6,364.1,542.6,365.3z" class="color060405 svgShape"></path><path fill="#040406" d="M539.1,424.8H469c-2.2,0-4-1.8-4-4v-55.5c0-1.5,1.2-2.7,2.7-2.7h72.9c1.5,0,2.6,1.2,2.6,2.6v55.5
							C543.1,423,541.3,424.8,539.1,424.8z M467.6,363.7c-0.9,0-1.7,0.7-1.7,1.7v55.5c0,1.7,1.4,3,3,3h70.1c1.7,0,3-1.4,3-3v-55.5
							c0-0.9-0.7-1.6-1.6-1.6H467.6z" class="color060405 svgShape"></path><path d="M542.6,371.6v49.2c0,2-1.6,3.5-3.5,3.5H469c-2,0-3.5-1.6-3.5-3.5v-9.7l5.1-33.5c0.2-0.6,0.7-1.1,1.4-1.1h35.6
							c0.6,0,1.2-0.4,1.4-1l0.8-2.9c0.2-0.6,0.7-1,1.4-1H542.6z" opacity=".1" fill="#000000" class="color000000 svgShape"></path><rect width="53.9" height="29.6" x="479.3" y="368.6" fill="#ffffff" class="colorffffff svgShape"></rect><path d="M533.2,371.6v26.6h-53.9v-21.6h28.3c0.6,0,1.2-0.4,1.4-1l0.8-2.9c0.2-0.6,0.7-1,1.4-1H533.2z" opacity=".1" fill="#000000" class="color000000 svgShape"></path><path fill="#ffffff" d="M555.2,376.6l-11.8,45.2c-0.4,1.5-1.8,2.6-3.4,2.6h-70.2c-2.2,0-3.9-2-3.5-4.2l7.4-39.3
							c0.2-0.6,0.7-1.1,1.4-1.1h35.6c0.6,0,1.2-0.4,1.4-1l0.8-2.9c0.2-0.6,0.7-1.1,1.4-1.1h39.5
							C554.7,374.7,555.4,375.6,555.2,376.6z" class="colorffffff svgShape"></path><path fill="#040406" d="M540,424.8h-70.2c-2.6,0-4.5-2.3-4-4.8l7.4-39.3c0.2-0.9,1-1.5,1.9-1.5h35.6c0.4,0,0.8-0.3,0.9-0.7
							l0.8-2.9c0.2-0.8,1-1.4,1.9-1.4h39.5c1.3,0,2.2,1.2,1.9,2.5l-11.8,45.2C543.4,423.6,541.8,424.8,540,424.8z M475.1,380.2
							c-0.4,0-0.8,0.3-0.9,0.7l-7.4,39.3c-0.4,1.9,1,3.6,3,3.6H540c1.4,0,2.6-0.9,2.9-2.2l11.8-45.2c0.2-0.6-0.3-1.2-0.9-1.2h-39.5
							c-0.4,0-0.8,0.3-0.9,0.7l-0.8,2.9c-0.2,0.8-1,1.4-1.9,1.4H475.1z" class="color060405 svgShape"></path></g><g fill="#000000" class="color000000 svgShape"><path d="M308.7,347.5c-74.2-21.3-71.9-137.5-71.9-137.5c28.1,1.2,25.8-23.8,25.8-23.8c30.7-4.3,61.4-4.3,92.1,0
							c0,0-2.3,25,25.8,23.8C380.6,209.9,382.9,326.2,308.7,347.5z" opacity=".08" fill="#000000" class="color000000 svgShape"></path><path fill="#5e45ff" d="M312.5,343.3c-74.2-21.3-71.9-137.5-71.9-137.5c28.1,1.2,25.8-23.8,25.8-23.8c30.7-4.3,61.4-4.3,92.1,0
							c0,0-2.3,25,25.8,23.8C384.3,205.8,386.7,322,312.5,343.3z" class="colorff7545 svgShape"></path><path fill="#ffffff" d="M312.5,326.4c-48.4-15.8-55.4-84.9-56.4-107.5c12.5-1.9,20.4-10.3,22.5-21.7c21.8-2.6,44.3-2.8,67.8,0
							c2.1,11.4,9.9,19.8,22.5,21.7C367.8,241.5,360.8,310.7,312.5,326.4z" class="colorffffff svgShape"></path><path d="M329.9,246.7h-1.5v-9.3c0-8.9-6.6-16.7-15.5-18.1h0c-0.9-0.1-1.8-0.2-2.8-0.2c-10.1,0-18.3,8.2-18.3,18.3v9.3h-2.3
							c-3.2,0-5.8,2.6-5.8,5.8v29.9c0,3.2,2.6,5.8,5.8,5.8h40.4c3.2,0,5.8-2.6,5.8-5.8v-29.9C335.7,249.2,333.1,246.7,329.9,246.7z
							 M295.9,237.3c0-7.8,6.4-14.2,14.2-14.2c0.7,0,1.5,0,2.2,0.2c6.9,1,12,7.1,12,14.1v9.3h-28.4V237.3z" opacity=".08" fill="#000000" class="color000000 svgShape"></path><path fill="#452af2" d="M333.8,286h-42.6c-2.6,0-4.7-2.1-4.7-4.7v-32.1c0-2.6,2.1-4.7,4.7-4.7h42.6c2.6,0,4.7,2.1,4.7,4.7v32.1
									C338.4,283.9,336.4,286,333.8,286z" class="colorf2cb2a svgShape"></path><path d="M318.2 260.2c.3 2.3-.8 4.4-2.5 5.6-.8.5-1.2 1.4-1.2 2.4v6.6c0 1-.7 1.9-1.7 2.1-1.3.3-2.5-.8-2.5-2.1v-6.8c0-.9-.5-1.8-1.3-2.4-1.5-1.1-2.5-2.8-2.5-4.8 0-3.4 3-6.2 6.5-5.8C315.8 255.5 317.9 257.6 318.2 260.2zM331.1 235.2v9.3h-4.1v-9.3c0-7-5.2-13-12-14.1-.7-.1-1.4-.2-2.2-.2-7.8 0-14.2 6.4-14.2 14.2v9.3h-4.1v-9.3c0-10.1 8.2-18.3 18.3-18.3.9 0 1.9.1 2.8.2h0C324.5 218.5 331.1 226.2 331.1 235.2z" fill="#000000" class="color000000 svgShape"></path></g><g fill="#000000" class="color000000 svgShape"><path fill="#040406" d="M85.2,425l18.9-110.3L120.3,425h14.6l5.5-145.9h-72c-2.5,5.4,0,124,2.2,146.1L85.2,425z" class="color060405 svgShape"></path><path fill="#ffffff" d="M47.6,264.9c-8.1-8.7,2.6-46.8,2.6-46.8L71,234.9l-1.9,10" class="colorffffff svgShape"></path><path fill="#040406" d="M47.6,265.4c-0.1,0-0.3-0.1-0.4-0.2c-8.2-8.8,2-45.7,2.5-47.3c0-0.2,0.2-0.3,0.3-0.3
																c0.2-0.1,0.3,0,0.5,0.1l20.8,16.8c0.1,0.1,0.2,0.3,0.2,0.5l-1.9,10c-0.1,0.3-0.3,0.4-0.6,0.4
																c-0.3-0.1-0.4-0.3-0.4-0.6l1.9-9.7l-20-16.1c-1.4,5.3-9.7,37.8-2.5,45.6c0.2,0.2,0.2,0.5,0,0.7
																C47.9,265.4,47.8,265.4,47.6,265.4z" class="color060405 svgShape"></path><path fill="#ffffff" d="M200.7,202.5l-5.6,3.7c0,0-20.6,41.7-36.7,42.8c-10.8,0.8-33.5-27.6-33.5-27.6l17.4-19.4
																l18.6,17.7l26-23.3c0,0-1.4-6.8,1.7-7.9c3-1.1,3.2,3.2,3.2,3.2l11-12.4c1-1.2,2.9-1,3.7,0.3l0,0
																c0.6,0.9,0.4,2.1-0.4,2.9l-7.4,6.9l3.6,6C203.7,197.9,203,201,200.7,202.5z" class="colorffffff svgShape"></path><path fill="#040406" d="M158,249.5c-11.1,0-32.5-26.6-33.4-27.8c-0.2-0.2-0.1-0.5,0-0.6l17.4-19.4
																c0.1-0.1,0.2-0.2,0.4-0.2c0.1,0,0.3,0,0.4,0.1L161,219l25.4-22.8c-0.2-1.4-1-7.1,2-8.2c2-0.7,3.2,0.5,3.7,2.5
																l10.3-11.6c1.2-1.4,3.5-1.2,4.5,0.4c0.7,1.1,0.5,2.6-0.5,3.5l-7.1,6.7l3.4,5.7c1.6,2.6,0.8,6-1.7,7.6l0,0l-5.4,3.6
																c-1.5,3-21.1,41.9-37.1,43C158.3,249.5,158.2,249.5,158,249.5z M125.6,221.4c2.6,3.2,23,27.7,32.8,27.1
																c15.6-1.1,36.1-42.2,36.3-42.6c0-0.1,0.1-0.1,0.2-0.2l5.6-3.7c2.1-1.4,2.7-4.1,1.4-6.3l-3.6-6
																c-0.1-0.2-0.1-0.5,0.1-0.6l7.4-6.9c0.6-0.6,0.8-1.5,0.3-2.3c-0.6-1.1-2.1-1.1-2.9-0.3l-11,12.4
																c-0.1,0.2-0.4,0.2-0.5,0.1c-0.2-0.1-0.3-0.2-0.3-0.5c0-0.6-0.2-2.1-1.1-2.7c-0.4-0.3-0.8-0.3-1.4-0.1
																c-2.1,0.8-1.7,5.5-1.3,7.3c0,0.2,0,0.4-0.2,0.5l-26,23.3c-0.2,0.2-0.5,0.2-0.7,0l-18.3-17.4L125.6,221.4z
																 M200.7,202.5L200.7,202.5L200.7,202.5z" class="color060405 svgShape"></path><path fill="#8c80d8" d="M69.4,237c0.8,0.1,1.7,0.2,2.6,0.2l-4.4,50c0,6.9,73.7,6.9,73.7,0l-2.8-58.6l0-0.1
																c0,0,14.9-10.3,16.5-22.3c0,0,0.9,1.4,0,0c-4-6.2-16.5-23.4-36.5-29.3c-3.8-1.1-8-1.8-12.4-2
																c-5.4-0.2-10.5,0.6-15.3,2.1c-3.8,1.1-7.5,2.7-10.9,4.6c-23.1,12.8-34.7,41.8-34.7,41.8s-0.3-0.8,2.1,1.5
																c4.2,4.2,11.7,10.4,20.9,11.9C68.5,236.9,69,236.9,69.4,237z" class="colorb580d8 svgShape"></path><path fill="#8c80d8" d="M79.8,181.5C56,194.7,44,224.6,44,224.6s-0.2-0.7,2.2,1.7c4.3,4.3,12.1,10.7,21.6,12.3
										c0.4,0.1,0.9,0.1,1.3,0.2c0.9,0.1,1.8,0.2,2.6,0.2" class="colorb580d8 svgShape"></path><path fill="#040406" d="M71.7 239.4c-.1 0-.1 0-.2 0-.3-.1-.4-.4-.3-.6l7.2-21.5c.1-.3.4-.4.6-.3.3.1.4.4.3.6l-7.2 21.5C72.1 239.3 71.9 239.4 71.7 239.4zM138.4 229c-.2 0-.5-.2-.5-.4l-2-14c0-.3.1-.5.4-.6.3 0 .5.1.6.4l2 14C139 228.7 138.8 229 138.4 229 138.5 229 138.5 229 138.4 229z" class="color060405 svgShape"></path><path fill="#ffffff" d="M95.5,175.7c0,0,5.8,9.8,21.3,13.9l0.8-12.9c0,0-1.5-6.5-2-12.1c-0.5-5.4-12.8-17.1-13.7-17.9h0
											c0,0,0,0,0,0s-0.4,8.3-2.4,16.7C98.4,167.9,97.7,172.4,95.5,175.7z" class="colorffffff svgShape"></path><path fill="#040406" d="M116.8,190.1c0,0-0.1,0-0.1,0c-15.5-4.2-21.4-13.7-21.6-14.1c-0.1-0.2-0.1-0.4,0-0.5
											c1.7-2.6,2.5-5.9,3.3-9.5c0.2-0.9,0.4-1.7,0.6-2.6c2-8.2,2.4-16.5,2.4-16.6c0-0.2,0.1-0.4,0.3-0.4c0.2-0.1,0.3,0,0.5,0.1
											c0,0,0,0,0.1,0c0.1,0.1,13.3,12.3,13.8,18.2c0.5,5.5,1.9,11.9,2,12c0,0,0,0.1,0,0.1l-0.8,12.9c0,0.1-0.1,0.3-0.2,0.4
											C117,190.1,116.9,190.1,116.8,190.1z M96.1,175.7c1,1.5,7,9.5,20.2,13.3l0.8-12.2c-0.2-0.7-1.5-6.8-2-12.1
											c-0.4-4.5-9.9-14.2-12.8-16.9c-0.2,2.5-0.8,9.1-2.4,15.8c-0.2,0.9-0.4,1.7-0.6,2.6C98.6,169.7,97.8,173,96.1,175.7z" class="color060405 svgShape"></path><g fill="#000000" class="color000000 svgShape"><path fill="#ffffff" d="M101.3,149.2c0,0-0.4,20.7,16,22.5c18.9,2,11.6-36.2,11.6-36.2l-12.3-9.6l-14.5,3.2l-6.6,9.8
											L101.3,149.2z" class="colorffffff svgShape"></path><path fill="#040406" d="M118.8,172.3c-0.5,0-0.9,0-1.4-0.1c-16-1.7-16.5-21-16.5-22.8l-5.7-10.2c-0.1-0.2-0.1-0.4,0-0.5
											l6.6-9.8c0.1-0.1,0.2-0.2,0.3-0.2l14.5-3.2c0.1,0,0.3,0,0.4,0.1l12.3,9.6c0.1,0.1,0.2,0.2,0.2,0.3c0.2,1,4.7,25-3.4,33.8
											C124.2,171.3,121.7,172.3,118.8,172.3z M96.1,138.9l5.7,10.1c0,0.1,0.1,0.2,0.1,0.3c0,0.2-0.2,20.3,15.6,22
											c3.3,0.3,5.9-0.6,7.9-2.7c7.3-8,3.6-30.5,3.2-32.7l-12-9.4l-14.1,3.1L96.1,138.9z" class="color060405 svgShape"></path></g><g fill="#000000" class="color000000 svgShape"><path fill="#040406" d="M88.9,143.4c-4,4,2.3,19,10.6,20.1h0c2-8.4,2.8-16.7,2.8-16.7s2.5-4.8,2.6-4.8c0.1,0,3.6-2.1,3-5.1
										c-0.6-3,0.8-2.4,3.2-2.1c3.8,0.5,22.2,8.8,25.6,1.2c7.2-16.6-18.2-18.3-28.1-16.3c-9.9,2-12.4,4.7-17.5,9.9
										C89.2,131.5,92.7,139.5,88.9,143.4z" class="color060405 svgShape"></path></g><g fill="#000000" class="color000000 svgShape"><path fill="#040406" d="M125.7,148c0,1-0.5,1.8-1.1,1.8c-0.6,0-1.1-0.8-1.1-1.8c0-1,0.5-1.8,1.1-1.8
										C125.2,146.3,125.7,147.1,125.7,148z" class="color060405 svgShape"></path></g><g fill="#000000" class="color000000 svgShape"><path fill="#040406" d="M115.7,148.7c0,1-0.5,1.8-1.1,1.8c-0.6,0-1.1-0.8-1.1-1.8c0-1,0.5-1.8,1.1-1.8
										C115.2,146.9,115.7,147.7,115.7,148.7z" class="color060405 svgShape"></path></g><g fill="#000000" class="color000000 svgShape"><path fill="#040406" d="M118.8,157.7c-0.2-0.2-0.2-0.5,0-0.7l2.1-1.9c0.3-0.3,0.3-0.4,0.3-0.4c0-0.1-0.2-0.1-0.4-0.2
										c-1.1-0.5-1.3-1.2-1.5-2.4l-0.4-4c0-0.3,0.2-0.5,0.4-0.6c0.3,0,0.5,0.2,0.6,0.4l0.4,4c0.1,0.6,0.2,1.2,0.6,1.4
										c0.3,0.2,1,0.3,1.2,1c0.2,0.7-0.4,1.3-0.6,1.5l-2.1,1.9C119.3,158,119,157.9,118.8,157.7z" class="color060405 svgShape"></path></g><g fill="#000000" class="color000000 svgShape"><path fill="#040406" d="M114.6,163.5c-0.2-0.2-0.2-0.5,0-0.7c0.2-0.2,0.5-0.2,0.7,0c0.9,1,2.5,1.1,3.6,0.2
										c0.2-0.2,0.5-0.2,0.7,0.1c0.2,0.2,0.2,0.5-0.1,0.7C118.1,165,116,164.9,114.6,163.5z" class="color060405 svgShape"></path></g><g fill="#000000" class="color000000 svgShape"><path fill="#040406" d="M104.6,196.1l-6.9-10.6c-0.2-0.2-0.1-0.5,0.1-0.7c0.2-0.1,0.5-0.1,0.7,0.1l6.9,10.6
									c1.1,1.8,1.8,1.9,3.5,0.8c1.8-1.1,7.4-7,7.5-7.1c0.2-0.2,0.5-0.2,0.7,0c0.2,0.2,0.2,0.5,0,0.7c-0.2,0.2-5.7,6.1-7.7,7.3
									C107.3,198.6,106.1,198.3,104.6,196.1z" class="color060405 svgShape"></path></g><g fill="#000000" class="color000000 svgShape"><path fill="#040406" d="M116.6,190.1c-0.2-0.1-0.3-0.4-0.2-0.7c0.1-0.2,0.4-0.3,0.7-0.2c1.7,1,4.9,2.6,6,2.3
									c1.4-0.3,1.9-0.7,1-2.5l-3-6.1c-0.1-0.2,0-0.5,0.2-0.7c0.2-0.1,0.5,0,0.7,0.2l3,6.1c1,2.1,0.6,3.5-1.7,3.9
									C121.6,192.8,118,190.9,116.6,190.1z" class="color060405 svgShape"></path></g><g fill="#000000" class="color000000 svgShape"><path fill="#5e45ff" d="M85.9,427.6V425H70.7c-0.2,4.9-0.6,14.2-0.7,14.2h24.8C95.6,431.1,85.9,427.6,85.9,427.6z" class="colorff7545 svgShape"></path><path fill="#040406" d="M94.4,435.7c0.3,1.1,0.5,2.2,0.3,3.5H70c0,0,0.1-1.5,0.2-3.5H94.4z" class="color060405 svgShape"></path></g><g fill="#000000" class="color000000 svgShape"><path fill="#5e45ff" d="M135.5,427.6V425h-15.2c-0.2,4.9-0.6,14.2-0.7,14.2h24.8C145.2,431.1,135.5,427.6,135.5,427.6z" class="colorff7545 svgShape"></path><path fill="#040406" d="M144,435.7c0.3,1.1,0.5,2.2,0.3,3.5h-24.8c0,0,0.1-1.5,0.2-3.5H144z" class="color060405 svgShape"></path></g><g fill="#000000" class="color000000 svgShape"><path fill="#040406" d="M139.3,268.1h-18.6c-2.1,0-3.7-2-3.2-4l7.6-31.2c0.4-1.5,1.7-2.5,3.2-2.5H147c2.1,0,3.7,2,3.2,4
								l-7.6,31.2C142.2,267.1,140.8,268.1,139.3,268.1z" class="color060405 svgShape"></path></g><g fill="#000000" class="color000000 svgShape"><path fill="#ffffff" d="M69.1,244.9l49.7,3.7c0,0,1.1-7.1,4-5.4c2.9,1.7,0,4.1,0,4.1s16.3,0.1,12,10.4c-4.3,10.3-19.5,4-19.5,4
									s-54.9,16.8-67.6,3.2" class="colorffffff svgShape"></path><path fill="#040406" d="M66.9,270.8c-8.5,0-15.9-1.4-19.7-5.5c-0.2-0.2-0.2-0.5,0-0.7c0.2-0.2,0.5-0.2,0.7,0
									c12.4,13.3,66.5-3.2,67.1-3.3c0.1,0,0.2,0,0.3,0c0.1,0.1,14.9,5.9,18.9-3.8c0.9-2.2,0.9-4.1-0.1-5.6
									c-2.7-4-11.4-4.1-11.5-4.1c-0.2,0-0.4-0.1-0.5-0.3c-0.1-0.2,0-0.4,0.1-0.6c0.3-0.3,1.2-1.2,1.1-2c0-0.5-0.4-0.9-1-1.3
									c-0.5-0.3-0.8-0.2-1-0.1c-1.1,0.5-2,3.5-2.3,5.2c0,0.3-0.3,0.4-0.5,0.4l-49.7-3.7c-0.3,0-0.5-0.3-0.5-0.5
									c0-0.3,0.2-0.5,0.5-0.5l49.2,3.7c0.2-1.3,1.1-4.7,2.8-5.5c0.4-0.2,1.1-0.3,1.9,0.1c0.9,0.5,1.4,1.2,1.5,2.1
									c0.1,0.8-0.3,1.5-0.7,2c2.5,0.2,8.9,0.9,11.2,4.5c1.2,1.8,1.2,4,0.2,6.5c-4.2,10-18.3,5-20,4.4
									C112.4,263.1,86.6,270.8,66.9,270.8z" class="color060405 svgShape"></path></g></g><g fill="#000000" class="color000000 svgShape"><path fill="#c6bdff" d="M510.7,130.5v63c0,3-2.5,5.5-5.5,5.5H439c-3,0-5.5-2.5-5.5-5.5v-63c0-2.5,2-4.6,4.6-4.6h68.1
							C508.7,125.9,510.7,127.9,510.7,130.5z" class="colorbdd6ff svgShape"></path><circle cx="438.8" cy="131.4" r="1.6" fill="#ffffff" class="colorffffff svgShape"></circle><circle cx="443.4" cy="131.4" r="1.6" fill="#ffffff" class="colorffffff svgShape"></circle><circle cx="447.9" cy="131.4" r="1.6" fill="#ffffff" class="colorffffff svgShape"></circle><g fill="#000000" class="color000000 svgShape"><path fill="#ffffff" d="M494 176.1h-41.7c-1 0-1.8-.8-1.8-1.8v-6.7c0-1 .8-1.8 1.8-1.8H494c1 0 1.8.8 1.8 1.8v6.7C495.7 175.3 494.9 176.1 494 176.1zM494 190.4h-41.7c-1 0-1.8-.8-1.8-1.8V182c0-1 .8-1.8 1.8-1.8H494c1 0 1.8.8 1.8 1.8v6.7C495.7 189.6 494.9 190.4 494 190.4z" class="colorffffff svgShape"></path></g></g><g fill="#000000" class="color000000 svgShape"><path fill="#7764f0" d="M485.6,147.8c0,5.2-3,9.8-7.3,12c-1.9,1-4,1.5-6.2,1.5c-2.2,0-4.3-0.5-6.2-1.5
										c-4.3-2.2-7.3-6.8-7.3-12c0-7.5,6.1-13.5,13.5-13.5C479.6,134.3,485.6,140.3,485.6,147.8z" class="color6193f6 svgShape"></path><path fill="#452af2" d="M478.3,159.8c-1.9,1-4,1.5-6.2,1.5c-2.2,0-4.3-0.5-6.2-1.5c1.5-1.8,3.7-2.9,6.2-2.9
										C474.6,156.9,476.9,158,478.3,159.8z" class="colorf2cb2a svgShape"></path><path fill="#ffffff" d="M473.3,157.4c0,0.4-3.3,0.4-3.3,0v-3h3.3V157.4z" class="colorffffff svgShape"></path><path fill="#040406" d="M463.9,151.7c-0.6,0.4-0.7,0.8-0.1,1c2.4,1.1,5.3,2.8,7.2,1.3c0.6-0.5,1-1.3,1.3-2.1
										c0.3-0.8,0.5-1.7,0.4-2.6c-0.1-1.2-0.8-2.4-1.7-3.3c-0.5-0.5-1-0.9-1.6-1.3c-0.4-0.2-1.2-1.1-1.5-0.6
										c-0.2,0.3-0.5,0.7-0.6,1C466.3,147.5,465.8,150.5,463.9,151.7z" class="color060405 svgShape"></path><path fill="#040406" d="M479.9,151.7c0.6,0.4,0.7,0.8,0.1,1c-2.4,1.1-5.3,2.8-7.2,1.3c-0.6-0.5-1-1.3-1.3-2.1
										c-0.3-0.8-0.5-1.7-0.4-2.6c0.1-1.2,0.8-2.4,1.7-3.3c0.5-0.5,1-0.9,1.6-1.3c0.4-0.2,1.2-1.1,1.5-0.6
										C477.3,146.2,477.5,150.2,479.9,151.7z" class="color060405 svgShape"></path><path fill="#ffffff" d="M476.1,149.5c0,3-1.9,6.1-4.3,6.1c-2.4,0-4.3-3.1-4.3-6.1C467.4,143,476.1,143,476.1,149.5z" class="colorffffff svgShape"></path><ellipse cx="473.5" cy="149.5" fill="#040406" rx=".5" ry=".6" class="color060405 svgShape"></ellipse><ellipse cx="469.9" cy="149.5" fill="#040406" rx=".5" ry=".6" class="color060405 svgShape"></ellipse><g fill="#000000" class="color000000 svgShape"><path fill="#040406" d="M470.6,153.6c-0.1-0.1-0.1-0.2-0.1-0.3c0.1-0.1,0.2-0.1,0.3-0.1c0.6,0.4,1.3,0.3,1.8-0.1
										c0.1-0.1,0.2-0.1,0.3,0c0.1,0.1,0.1,0.2,0,0.3C472.3,154,471.3,154.1,470.6,153.6z" class="color060405 svgShape"></path></g><g fill="#000000" class="color000000 svgShape"><path fill="#040406" d="M475.5,149.3c-0.4-0.6-0.7-1.3-1.1-1.9c-0.4-0.6-1-1.2-1.7-1.3c0,0.4,0.3,0.8,0.4,1.2
									c0.1,0.4,0.1,0.9-0.2,1.1c-0.2,0.1-0.4,0.1-0.7,0.1c-1,0-1.9-0.1-2.9-0.1c-0.6,0-1.1-0.1-1.7-0.3s-1-0.7-1-1.3
									c0-0.4,0.2-0.8,0.3-1.2c0.6-1.2,1.4-2.4,2.4-3.3c4-3.3,8,1.4,7.9,6.1c0,1.2-0.1,1.2-0.7,1.8
									C476.2,150.8,475.7,149.6,475.5,149.3z" class="color060405 svgShape"></path></g><g fill="#000000" class="color000000 svgShape"><path fill="#040406" d="M471.6,152.4c-0.3,0-0.5-0.2-0.5-0.7l0.1-1.6c0-0.1,0.1-0.2,0.3-0.2c0.1,0,0.2,0.1,0.2,0.3l-0.1,1.6
								c0,0.1,0,0.2,0,0.2c0.1,0,0.2,0,0.3,0.2c0,0.1,0,0.3-0.2,0.3C471.7,152.4,471.6,152.4,471.6,152.4z" class="color060405 svgShape"></path></g></g><g fill="#000000" class="color000000 svgShape"><circle cx="173.6" cy="96.8" r="24.9" fill="#040406" class="color060405 svgShape"></circle></g><g id="Icons_2_" fill="#000000" class="color000000 svgShape"><g id="Two-Tone_2_" transform="translate(-749 -508)" fill="#000000" class="color000000 svgShape"><g id="Action_2_" transform="translate(100 100)" fill="#000000" class="color000000 svgShape"><g id="Two-Tone-_x2F_-Action-_x2F_-fingerprint_2_" transform="translate(646 406)" fill="#000000" class="color000000 svgShape"><path fill="#ffffff" d="M167.7 87.1c-.2-.3-.1-.8.3-1 2.7-1.4 5.6-2.2 8.7-2.2 3.1 0 5.7.7 8.7 2.2.4.2.5.6.3 1-.1.3-.4.4-.6.4-.1 0-.2 0-.3-.1-2.8-1.4-5.1-2-8-2-2.8 0-5.5.7-8 2C168.3 87.5 167.9 87.4 167.7 87.1zM188.4 102c0 2.3-2 4.2-4.4 4.2s-4.4-1.9-4.4-4.2c0-1.5-1.3-2.8-3-2.8-1.7 0-3 1.2-3 2.8 0 4.2 2.7 7.8 7.4 9.1.9.2.6 1.6-.4 1.4-5.3-1.5-8.4-5.7-8.4-10.5 0-2.3 2-4.2 4.4-4.2 2.4 0 4.4 1.9 4.4 4.2 0 1.5 1.3 2.8 3 2.8 1.7 0 3-1.2 3-2.8 0-5.4-4.7-9.8-10.4-9.8-4.1 0-7.8 2.3-9.5 5.8-1.3 2.8-1 6.3.1 9.2.3.9-1 1.4-1.3.5-3.6-9.7 2.8-16.9 10.7-16.9C183.1 90.8 188.4 95.8 188.4 102z" class="colorffffff svgShape"></path><path fill="#ffffff" d="M189.2 94.8c-.3.2-.8.2-1-.2-4.3-6-12.5-7.2-18.4-4.2-2 1-3.6 2.4-4.9 4.2-.1.2-.3.3-.6.3-.6 0-.9-.7-.6-1.1 4.7-6.6 13.6-8.1 20.2-4.7 2.1 1.1 4 2.7 5.4 4.7C189.6 94.1 189.5 94.6 189.2 94.8zM185.4 109.5c-5.5 1.1-9.6-2.9-9.6-7.4 0-1 1.4-1 1.4 0 0 2 1 3.9 2.8 5.1 1.2.8 2.9 1.3 5.1.9C186.1 107.9 186.4 109.3 185.4 109.5z" class="colorffffff svgShape"></path><path fill="#ffffff" d="M173.9,111.1c0.3,0.3,0.3,0.7,0,1c-0.3,0.3-0.8,0.3-1,0c-2.9-2.8-4.4-5.9-4.4-10
											c0-4.3,3.6-7.7,8.1-7.7c4.5,0,8.1,3.5,8.1,7.7c0,0.4-0.3,0.7-0.7,0.7c-0.4,0-0.7-0.3-0.7-0.7c0-3.5-3-6.3-6.7-6.3
											s-6.7,2.8-6.7,6.3c0,2.1,0.5,4,1.3,5.5C172.2,109.2,172.8,109.9,173.9,111.1z" class="colorffffff svgShape"></path></g></g></g></g><g fill="#000000" class="color000000 svgShape"><path fill="#cdc6fa" d="M503.5 242.6h-23.9c-.2 0-.4-.2-.4-.4s.2-.4.4-.4h23.9c.2 0 .4.2.4.4S503.7 242.6 503.5 242.6zM503.5 254.4h-23.9c-.2 0-.4-.2-.4-.4s.2-.4.4-.4h23.9c.2 0 .4.2.4.4S503.7 254.4 503.5 254.4zM499.2 248.5h-33.8c-.2 0-.4-.2-.4-.4s.2-.4.4-.4h33.8c.2 0 .4.2.4.4S499.4 248.5 499.2 248.5z" class="colorc6e2fa svgShape"></path><path fill="#cdc6fa" d="M484.6 242.6c-.2 0-.4-.2-.4-.4v-5c0-.2.2-.4.4-.4s.4.2.4.4v5C484.9 242.4 484.8 242.6 484.6 242.6zM493 248.5c-.2 0-.4-.2-.4-.4v-5.9c0-.2.2-.4.4-.4s.4.2.4.4v5.9C493.3 248.3 493.2 248.5 493 248.5zM486.6 254.2c-.2 0-.4-.2-.4-.4v-5.7c0-.2.2-.4.4-.4s.4.2.4.4v5.7C486.9 254.1 486.8 254.2 486.6 254.2z" class="colorc6e2fa svgShape"></path></g><g fill="#000000" class="color000000 svgShape"><path fill="#cdc6fa" d="M430 81.9h-27.9c-.2 0-.4-.2-.4-.4s.2-.4.4-.4H430c.2 0 .4.2.4.4S430.2 81.9 430 81.9zM430 95.7h-27.9c-.2 0-.4-.2-.4-.4s.2-.4.4-.4H430c.2 0 .4.2.4.4S430.2 95.7 430 95.7zM425 88.8h-39.4c-.2 0-.4-.2-.4-.4s.2-.4.4-.4H425c.2 0 .4.2.4.4S425.2 88.8 425 88.8z" class="colorc6e2fa svgShape"></path><path fill="#cdc6fa" d="M407.9 81.9c-.2 0-.4-.2-.4-.4v-5.9c0-.2.2-.4.4-.4s.4.2.4.4v5.9C408.2 81.7 408.1 81.9 407.9 81.9zM417.7 88.8c-.2 0-.4-.2-.4-.4v-6.9c0-.2.2-.4.4-.4s.4.2.4.4v6.9C418 88.6 417.9 88.8 417.7 88.8zM410.2 95.5c-.2 0-.4-.2-.4-.4v-6.7c0-.2.2-.4.4-.4s.4.2.4.4v6.7C410.6 95.3 410.4 95.5 410.2 95.5z" class="colorc6e2fa svgShape"></path></g><g fill="#000000" class="color000000 svgShape"><path fill="#040406" d="M461.2 173.1c0 0 .1-.6.3-1.7-.9.7-1.3 1.1-1.4 1.1-.2.1-.5.1-.6-.2-.1-.2-.1-.5.2-.6l1.6-.6-1.6-.6c-.3-.1-.3-.5-.2-.7.2-.3.4-.3.6-.2 0 0 .5.4 1.4 1.1-.2-1.1-.3-1.7-.3-1.7 0-.3.2-.5.5-.5.3 0 .5.2.5.5 0 0-.1.6-.3 1.7.9-.7 1.3-1.1 1.4-1.1.1-.1.5-.1.6.2.1.3.1.5-.2.7l-1.6.6 1.6.6c.2.1.3.4.2.6-.2.3-.4.3-.6.2 0 0-.5-.4-1.4-1.1.2 1.1.3 1.7.3 1.7 0 .3-.2.5-.5.5C461.5 173.5 461.2 173.3 461.2 173.1zM468.7 173.1c0 0 .1-.6.3-1.7-.9.7-1.3 1.1-1.4 1.1-.2.1-.5.1-.6-.2-.1-.2-.1-.5.2-.6l1.6-.6-1.6-.6c-.3-.1-.3-.5-.2-.7.2-.3.4-.3.6-.2 0 0 .5.4 1.4 1.1-.2-1.1-.3-1.7-.3-1.7 0-.1 0-.2.1-.3.1-.1.2-.1.3-.1.3 0 .5.2.5.5 0 0-.1.6-.3 1.7.9-.7 1.3-1.1 1.4-1.1.1-.1.5-.1.6.2.1.3.1.5-.2.7l-1.6.6 1.6.6c.2.1.3.4.2.6-.2.3-.4.3-.6.2 0 0-.5-.4-1.4-1.1.2 1.1.3 1.7.3 1.7 0 .3-.2.5-.5.5C468.9 173.5 468.7 173.3 468.7 173.1zM476.1 173.1c0 0 .1-.6.3-1.7-.9.7-1.3 1.1-1.4 1.1-.2.1-.5.1-.6-.2-.1-.2-.1-.5.2-.6l1.6-.6-1.6-.6c-.3-.1-.3-.5-.2-.7.2-.3.4-.3.6-.2 0 0 .5.4 1.4 1.1-.2-1.1-.3-1.7-.3-1.7 0-.3.2-.5.5-.5.3 0 .5.2.5.5 0 0-.1.6-.3 1.7.9-.7 1.3-1.1 1.4-1.1.1-.1.5-.1.6.2.1.3.1.5-.2.7L477 171l1.6.6c.2.1.3.4.2.6-.2.3-.4.3-.6.2 0 0-.5-.4-1.4-1.1.2 1.1.3 1.7.3 1.7 0 .3-.2.5-.5.5C476.3 173.5 476.1 173.3 476.1 173.1zM483.5 173.1c0 0 .1-.6.3-1.7-.9.7-1.3 1.1-1.4 1.1-.2.1-.5.1-.6-.2-.1-.2-.1-.5.2-.6l1.6-.6-1.6-.6c-.3-.1-.3-.5-.2-.7.2-.3.4-.3.6-.2 0 0 .5.4 1.4 1.1-.2-1.1-.3-1.7-.3-1.7 0-.3.2-.5.5-.5.3 0 .5.2.5.5 0 0-.1.6-.3 1.7.9-.7 1.3-1.1 1.4-1.1.1-.1.5-.1.6.2.1.3.1.5-.2.7l-1.6.6 1.6.6c.2.1.3.4.2.6-.2.3-.4.3-.6.2 0 0-.5-.4-1.4-1.1.2 1.1.3 1.7.3 1.7 0 .3-.2.5-.5.5C483.7 173.5 483.5 173.3 483.5 173.1z" class="color060405 svgShape"></path></g><g fill="#000000" class="color000000 svgShape"><path fill="#040406" d="M461.2 187.7c0 0 .1-.6.3-1.7-.9.7-1.3 1.1-1.4 1.1-.2.1-.5.1-.6-.2-.1-.2-.1-.5.2-.6l1.6-.6-1.6-.6c-.3-.1-.3-.5-.2-.7.2-.3.4-.3.6-.2 0 0 .5.4 1.4 1.1-.2-1.1-.3-1.7-.3-1.7 0-.3.2-.5.5-.5.3 0 .5.2.5.5 0 0-.1.6-.3 1.7.9-.7 1.3-1.1 1.4-1.1.1-.1.5-.1.6.2.1.3.1.5-.2.7l-1.6.6 1.6.6c.2.1.3.4.2.6-.2.3-.4.3-.6.2 0 0-.5-.4-1.4-1.1.2 1.1.3 1.7.3 1.7 0 .3-.2.5-.5.5C461.5 188.2 461.2 188 461.2 187.7zM468.7 187.7c0 0 .1-.6.3-1.7-.9.7-1.3 1.1-1.4 1.1-.2.1-.5.1-.6-.2-.1-.2-.1-.5.2-.6l1.6-.6-1.6-.6c-.3-.1-.3-.5-.2-.7.2-.3.4-.3.6-.2 0 0 .5.4 1.4 1.1-.2-1.1-.3-1.7-.3-1.7 0-.1 0-.2.1-.3.1-.1.2-.1.3-.1.3 0 .5.2.5.5 0 0-.1.6-.3 1.7.9-.7 1.3-1.1 1.4-1.1.1-.1.5-.1.6.2.1.3.1.5-.2.7l-1.6.6 1.6.6c.2.1.3.4.2.6-.2.3-.4.3-.6.2 0 0-.5-.4-1.4-1.1.2 1.1.3 1.7.3 1.7 0 .3-.2.5-.5.5C468.9 188.2 468.7 188 468.7 187.7zM476.1 187.7c0 0 .1-.6.3-1.7-.9.7-1.3 1.1-1.4 1.1-.2.1-.5.1-.6-.2-.1-.2-.1-.5.2-.6l1.6-.6-1.6-.6c-.3-.1-.3-.5-.2-.7.2-.3.4-.3.6-.2 0 0 .5.4 1.4 1.1-.2-1.1-.3-1.7-.3-1.7 0-.3.2-.5.5-.5.3 0 .5.2.5.5 0 0-.1.6-.3 1.7.9-.7 1.3-1.1 1.4-1.1.1-.1.5-.1.6.2.1.3.1.5-.2.7l-1.6.6 1.6.6c.2.1.3.4.2.6-.2.3-.4.3-.6.2 0 0-.5-.4-1.4-1.1.2 1.1.3 1.7.3 1.7 0 .3-.2.5-.5.5C476.3 188.2 476.1 188 476.1 187.7zM483.5 187.7c0 0 .1-.6.3-1.7-.9.7-1.3 1.1-1.4 1.1-.2.1-.5.1-.6-.2-.1-.2-.1-.5.2-.6l1.6-.6-1.6-.6c-.3-.1-.3-.5-.2-.7.2-.3.4-.3.6-.2 0 0 .5.4 1.4 1.1-.2-1.1-.3-1.7-.3-1.7 0-.3.2-.5.5-.5.3 0 .5.2.5.5 0 0-.1.6-.3 1.7.9-.7 1.3-1.1 1.4-1.1.1-.1.5-.1.6.2.1.3.1.5-.2.7l-1.6.6 1.6.6c.2.1.3.4.2.6-.2.3-.4.3-.6.2 0 0-.5-.4-1.4-1.1.2 1.1.3 1.7.3 1.7 0 .3-.2.5-.5.5C483.7 188.2 483.5 188 483.5 187.7z" class="color060405 svgShape"></path></g></g></svg>