<svg xmlns="http://www.w3.org/2000/svg" viewBox="0 0 512 512" id="Train"><path fill="#ece9ff" d="m125.49 256.19 130.777-130.778 130.509 130.509-130.777 130.777z" class="colore9f6ff svgShape"></path><path fill="#cec8f5" d="M141.615 370.583a160.92 160.92 0 0 1-47.44-114.528h-2.637a164.618 164.618 0 0 0 164.596 164.611v-2.637a160.888 160.888 0 0 1-114.52-47.446zm230.919-230.917a163.503 163.503 0 0 0-116.4-48.22v2.638A161.95 161.95 0 0 1 418.09 256.055h2.638a163.549 163.549 0 0 0-48.194-116.39zM341.19 393.927l1.386 2.244q1.129-.698 2.246-1.414l-1.424-2.22q-1.098.703-2.209 1.39zm-9.049 5.2 1.239 2.328q1.171-.624 2.33-1.265l-1.277-2.308q-1.14.632-2.292 1.244zm13.444-8.017 1.46 2.197q1.105-.734 2.198-1.485l-1.494-2.174q-1.075.74-2.164 1.462zm-8.88 5.49 1.315 2.288q1.15-.662 2.29-1.34l-1.352-2.266q-1.12.668-2.252 1.319zm-9.208 4.903 1.165 2.367q1.19-.586 2.368-1.189l-1.202-2.348q-1.16.594-2.33 1.17zm42.388-30.142 1.853 1.877q.945-.933 1.876-1.882l-1.882-1.847q-.916.933-1.847 1.852zm-51.887 34.436 1.01 2.437q1.224-.507 2.438-1.032l-1.047-2.42q-1.195.516-2.4 1.015zm31.892-17.645 1.529 2.15q1.082-.77 2.15-1.556l-1.562-2.125q-1.052.774-2.117 1.531zm12.319-9.688 1.73 1.992q1.002-.87 1.992-1.757l-1.76-1.964q-.974.872-1.962 1.73zm3.895-3.49 1.791 1.937q.976-.903 1.936-1.821l-1.822-1.907q-.945.903-1.905 1.791zm-12.005 10.082 1.597 2.1q1.057-.805 2.1-1.625l-1.63-2.074q-1.027.808-2.067 1.6zm4.107-3.23 1.664 2.046q1.03-.837 2.048-1.691l-1.697-2.02q-1 .84-2.015 1.665zm-35.424 21.9 1.086 2.405q1.208-.546 2.406-1.111l-1.126-2.386q-1.177.556-2.366 1.093zm-45.095 12.881.346 2.615q1.32-.174 2.634-.371l-.39-2.609q-1.292.193-2.59.365zm-5.198.606.263 2.625q1.326-.134 2.644-.287l-.306-2.62q-1.297.151-2.601.282zm10.372-1.379.432 2.603q1.313-.219 2.619-.457l-.474-2.595q-1.285.235-2.577.45zm-20.811 2.088.095 2.636q1.33-.047 2.655-.117l-.136-2.634q-1.304.068-2.614.115zm51.083-10.204.927 2.469q1.246-.468 2.482-.956l-.968-2.454q-1.216.48-2.441.94zm-56.309 10.31.012 2.637q1.332-.006 2.657-.032l-.053-2.637q-1.305.026-2.616.031zm31.183-3.134.516 2.587q1.305-.26 2.603-.541l-.558-2.578q-1.277.276-2.561.533zm20.199-5.415.848 2.498q1.26-.428 2.51-.875l-.887-2.484q-1.231.44-2.471.861zm-4.98 1.6.765 2.524q1.274-.386 2.538-.792l-.807-2.512q-1.244.4-2.497.78zm-10.106 2.709.6 2.569q1.296-.303 2.585-.626l-.642-2.559q-1.267.318-2.543.616zm5.075-1.273.683 2.549q1.285-.345 2.562-.71l-.724-2.536q-1.256.358-2.521.697zm-30.92 5.137.18 2.632q1.328-.091 2.65-.202l-.22-2.629q-1.302.11-2.61.199zM413.4 294.92l2.561.63q.318-1.29.615-2.587l-2.572-.588q-.292 1.276-.604 2.545zm-1.333 5.059 2.54.713q.359-1.278.698-2.566l-2.55-.671q-.334 1.266-.688 2.524zm2.501-10.159 2.58.547q.276-1.3.53-2.605l-2.588-.505q-.251 1.286-.522 2.563zm-3.998 15.172 2.515.796q.4-1.266.781-2.542l-2.527-.755q-.375 1.255-.77 2.5zm-37.02 62.636 1.912 1.816q.916-.964 1.816-1.941l-1.941-1.787q-.886.963-1.787 1.912zm35.353-57.656 2.488.879q.444-1.259.867-2.525l-2.5-.837q-.418 1.246-.855 2.483zm9.001-46.07 2.635.125q.063-1.325.105-2.656l-2.636-.084q-.042 1.31-.104 2.615zm-1.5 15.619 2.611.378q.19-1.314.36-2.634l-2.616-.337q-.167 1.3-.355 2.593zm-9.327 35.373 2.457.96q.485-1.242.95-2.495l-2.474-.917q-.457 1.23-.933 2.452zm11.014-58.839q0 1.31-.02 2.617l2.636.042q.022-1.328.022-2.659zm-.52 13.067 2.63.211q.106-1.323.19-2.652l-2.632-.168q-.083 1.308-.188 2.609zm-.5 5.209 2.621.295q.15-1.32.276-2.645l-2.625-.252q-.126 1.304-.272 2.602zm-1.501 10.354 2.596.464q.234-1.307.446-2.622l-2.604-.42q-.21 1.292-.438 2.578zm-25.588 62.601 2.178 1.488q.751-1.099 1.484-2.21l-2.203-1.452q-.72 1.093-1.459 2.174zm-6.18 8.455 2.077 1.625q.82-1.048 1.622-2.11l-2.104-1.59q-.79 1.044-1.595 2.075zm3.157-4.177 2.13 1.557q.785-1.074 1.553-2.161l-2.154-1.522q-.756 1.07-1.529 2.126zm-9.866 12.213 1.97 1.754q.884-.992 1.752-2l-1.997-1.722q-.855.99-1.725 1.968zm3.418-3.964 2.026 1.69q.852-1.02 1.688-2.055l-2.052-1.658q-.823 1.019-1.662 2.023zm22.437-35.272 2.39 1.117q.563-1.208 1.108-2.425l-2.408-1.077q-.536 1.198-1.09 2.385zm-10.082 18.372 2.225 1.416q.715-1.123 1.412-2.258l-2.249-1.38q-.685 1.117-1.388 2.222zm12.224-23.16 2.425 1.038q.524-1.226 1.03-2.46l-2.442-.999q-.497 1.215-1.013 2.42zm-4.439 9.504 2.353 1.193q.602-1.188 1.186-2.387l-2.371-1.154q-.575 1.18-1.168 2.348zm-5.044 9.19 2.27 1.343q.678-1.146 1.338-2.303l-2.291-1.306q-.65 1.138-1.317 2.265zm2.596-4.554 2.312 1.27q.641-1.167 1.263-2.347l-2.332-1.23q-.613 1.159-1.243 2.307zm-287.7-154.606 2.332 1.232q.613-1.16 1.243-2.308l-2.312-1.269q-.64 1.167-1.263 2.345zm2.564-4.67 2.291 1.308q.65-1.14 1.317-2.266l-2.27-1.344q-.678 1.145-1.338 2.302zm2.714-4.583 2.247 1.38q.687-1.117 1.39-2.221l-2.225-1.417q-.715 1.123-1.412 2.258zm-12.048 23.738 2.442.999q.497-1.215 1.013-2.42l-2.425-1.039q-.524 1.225-1.03 2.46zm4.357-9.733 2.371 1.156q.575-1.18 1.169-2.348l-2.353-1.194q-.603 1.188-1.187 2.386zm-2.257 4.83 2.408 1.078q.536-1.197 1.091-2.385l-2.39-1.117q-.564 1.207-1.109 2.425zm-4.04 9.873 2.473.919q.458-1.231.935-2.453l-2.457-.96q-.486 1.243-.95 2.494zm29.679-50.165 1.997 1.723q.855-.991 1.726-1.968l-1.97-1.755q-.885.993-1.753 2zm-12.831 16.966 2.202 1.452q.721-1.093 1.46-2.175l-2.178-1.487q-.75 1.098-1.484 2.21zm9.421-12.883 2.052 1.657q.822-1.018 1.661-2.022l-2.024-1.691q-.853 1.02-1.689 2.056zm6.948-8.053 1.941 1.786q.886-.963 1.787-1.91l-1.911-1.818q-.917.964-1.817 1.942zm-13.367 16.539 2.154 1.523q.756-1.07 1.529-2.126l-2.13-1.558q-.785 1.075-1.553 2.16zm3.142-4.295 2.103 1.59q.79-1.043 1.597-2.075l-2.078-1.624q-.82 1.047-1.622 2.109zM92.299 240.13l2.625.252q.125-1.304.271-2.602l-2.62-.295q-.15 1.319-.276 2.645zm-.424 5.3 2.633.167q.083-1.307.187-2.61l-2.63-.21q-.105 1.324-.19 2.652zm1.017-10.584 2.617.336q.167-1.299.354-2.591l-2.61-.38q-.191 1.314-.36 2.635zm-1.27 15.894 2.637.083q.041-1.31.103-2.614l-2.634-.126q-.064 1.326-.106 2.657zm-.084 5.315h2.638q0-1.31.02-2.616l-2.637-.042q-.021 1.327-.021 2.658zm6.866-47.19 2.527.755q.377-1.26.773-2.51l-2.515-.797q-.403 1.271-.785 2.552zm1.612-5.09 2.501.838q.418-1.246.854-2.484l-2.487-.878q-.444 1.257-.868 2.524zm-6.36 25.81 2.604.42q.208-1.293.438-2.579l-2.597-.463q-.233 1.307-.445 2.621zm3.309-15.6 2.55.672q.334-1.267.688-2.525l-2.54-.713q-.358 1.279-.698 2.565zm-2.375 10.364 2.588.506q.252-1.286.522-2.564l-2.58-.547q-.275 1.3-.53 2.605zm1.103-5.202 2.571.59q.292-1.277.605-2.546l-2.561-.63q-.318 1.29-.615 2.586zM236.895 92.56l.305 2.62q1.297-.15 2.6-.281l-.262-2.625q-1.325.133-2.643.286zM205.76 99.3l.807 2.512q1.244-.4 2.497-.78l-.766-2.524q-1.273.386-2.538.792zm5.089-1.543.724 2.536q1.257-.359 2.521-.698l-.683-2.548q-1.285.345-2.562.71zm5.136-1.377.641 2.559q1.267-.318 2.543-.616l-.6-2.569q-1.296.303-2.584.626zm5.178-1.21.558 2.578q1.276-.276 2.561-.532l-.516-2.587q-1.305.26-2.603.542zm-20.439 5.839.888 2.484q1.231-.44 2.471-.86l-.848-2.499q-1.26.428-2.51.875zm-4.977 1.872.968 2.453q1.216-.48 2.441-.94l-.928-2.47q-1.245.469-2.481.957zm51.741-11.212.137 2.635q1.304-.068 2.614-.115l-.095-2.636q-1.331.048-2.656.116zm-21.11 2.461.473 2.595q1.286-.235 2.578-.45l-.433-2.602q-1.313.219-2.619.457zm-35.535 10.779 1.047 2.42q1.195-.516 2.4-1.015l-1.009-2.437q-1.224.507-2.438 1.032zm64.61-13.462q-1.331.006-2.657.032l.052 2.637q1.306-.025 2.617-.031zm-13.27.582.222 2.63q1.3-.11 2.608-.199l-.178-2.632q-1.33.09-2.651.201zm-10.56 1.23.39 2.61q1.291-.194 2.59-.366l-.347-2.615q-1.32.175-2.633.372zm-64.157 24.095 1.424 2.22q1.098-.703 2.21-1.39l-1.388-2.244q-1.13.699-2.246 1.414zm-12.975 9.226 1.631 2.074q1.026-.808 2.067-1.599l-1.597-2.1q-1.057.805-2.1 1.625zm-4.122 3.35 1.697 2.02q1-.84 2.015-1.664l-1.664-2.048q-1.03.838-2.048 1.692zm8.349-6.565 1.563 2.125q1.052-.774 2.117-1.53l-1.53-2.15q-1.08.769-2.15 1.555zm-12.362 10.045 1.76 1.965q.974-.872 1.962-1.73l-1.73-1.991q-1.003.87-1.992 1.756zm-3.9 3.61 1.822 1.907q.945-.904 1.905-1.792l-1.792-1.936q-.975.903-1.936 1.82zm20.589-16.732 1.493 2.174q1.077-.74 2.165-1.461l-1.46-2.198q-1.105.734-2.198 1.485zm22.97-13.197 1.125 2.386q1.178-.556 2.367-1.093l-1.087-2.404q-1.208.547-2.405 1.111zm-4.756 2.338 1.2 2.349q1.161-.594 2.332-1.17l-1.163-2.367q-1.19.585-2.37 1.188zm-4.681 2.492 1.278 2.308q1.14-.631 2.292-1.244l-1.24-2.329q-1.17.624-2.33 1.265zm-4.598 2.643 1.35 2.265q1.121-.668 2.253-1.318l-1.315-2.287q-1.15.661-2.288 1.34zm-33.309 26.189 1.883 1.847q.916-.933 1.847-1.851l-1.852-1.878q-.947.933-1.878 1.882z" class="colorc8dff5 svgShape"></path><path fill="#cec8f5" d="M191.676 139.964C174.655 171 165.28 212.23 165.28 256.055h2.637c0-89.311 39.58-161.971 88.23-161.971v-2.638c-24.417 0-47.314 17.23-64.472 48.518zm152.678 116.091c0 89.313-39.57 161.974-88.206 161.974v2.637c24.416 0 47.309-17.23 64.46-48.517 17.014-31.034 26.383-72.264 26.383-116.094z" class="colorc8dff5 svgShape"></path><path fill="#cec8f5" d="m309.714 123.003-2.105 1.59q.782 1.035 1.551 2.1l2.138-1.546q-.786-1.088-1.584-2.144Zm-3.313-4.183-2.029 1.686q.828.996 1.642 2.024l2.068-1.637q-.834-1.053-1.681-2.073Zm-7.24-7.857-1.839 1.89q.925.9 1.837 1.84l1.893-1.838q-.938-.966-1.89-1.892Zm13.674 16.361-2.17 1.5q.738 1.067 1.463 2.163l2.2-1.456q-.74-1.118-1.493-2.207Zm13.057 23.145-2.396 1.105q.546 1.183 1.08 2.386l2.41-1.07q-.54-1.22-1.094-2.42Zm-10.117-18.702-2.227 1.412q.695 1.097 1.379 2.22l2.253-1.371q-.696-1.144-1.405-2.261Zm5.371 9.187-2.321 1.252q.617 1.145 1.222 2.313l2.342-1.213q-.615-1.188-1.243-2.352Zm2.448 4.722-2.361 1.176q.58 1.166 1.15 2.353l2.378-1.141q-.578-1.205-1.167-2.388Zm-5.05-9.362-2.278 1.33q.656 1.124 1.299 2.27l2.3-1.29q-.654-1.168-1.321-2.31Zm-15.657-21.516-1.941 1.786q.875.952 1.737 1.939l1.987-1.736q-.884-1.012-1.783-1.989Zm-9.392-5.456q.976.842 1.94 1.726l1.783-1.944q-.994-.911-2-1.78ZM266.337 95.16c.832.176 1.672.377 2.497.596l.678-2.549a53.531 53.531 0 0 0-2.627-.628Zm-10.189-1.075c.852 0 1.718.023 2.572.068l.139-2.634c-.9-.048-1.812-.072-2.71-.072Zm15.152 2.393c.808.259 1.625.542 2.43.842l.921-2.471a56.21 56.21 0 0 0-2.548-.883Zm-10.023-2.122c.845.09 1.699.202 2.537.336l.414-2.605c-.883-.14-1.783-.26-2.673-.354Zm23.937 8.772c.714.46 1.437.944 2.15 1.44l1.508-2.163a73.198 73.198 0 0 0-2.23-1.495Zm4.245 2.96c.681.512 1.369 1.048 2.045 1.593l1.656-2.053a78.937 78.937 0 0 0-2.115-1.648Zm-8.696-5.58c.747.4 1.505.826 2.252 1.265l1.337-2.273c-.777-.458-1.566-.9-2.344-1.317Zm-4.644-2.232c.781.333 1.57.692 2.345 1.064l1.144-2.377c-.81-.39-1.636-.764-2.453-1.113Zm68.262 118.392-2.614.353q.175 1.298.34 2.604l2.617-.328q-.166-1.319-.343-2.63Zm.66 5.26-2.62.303q.151 1.3.29 2.61l2.623-.28q-.14-1.321-.293-2.634Zm.563 5.27-2.626.256q.127 1.304.243 2.615l2.627-.233q-.117-1.323-.244-2.638Zm-1.983-15.776-2.607.403q.2 1.294.389 2.596l2.61-.378q-.19-1.315-.392-2.621Zm2.447 21.055-2.629.208q.103 1.306.195 2.619l2.631-.184q-.093-1.325-.197-2.643Zm.645 10.58-2.635.112q.056 1.31.1 2.625l2.637-.09q-.046-1.327-.102-2.648Zm.269 10.588-2.638.021q.01 1.193.01 2.39h2.637q0-1.207-.009-2.41Zm-.544-15.881-2.632.16q.08 1.308.147 2.622l2.634-.137q-.068-1.325-.149-2.645Zm.456 10.588-2.637.067q.033 1.31.055 2.626l2.637-.044q-.022-1.327-.055-2.65Zm-4.135-42.161-2.598.454q.225 1.29.439 2.588l2.603-.43q-.217-1.31-.444-2.612Zm-14.712-50.864-2.426 1.036q.511 1.199 1.01 2.416l2.441-1.001q-.506-1.234-1.025-2.45Zm7.296 19.936-2.518.783q.387 1.248.763 2.51l2.528-.754q-.38-1.277-.773-2.539Zm-3.393-10.058-2.478.905q.448 1.226.884 2.468l2.489-.873q-.442-1.258-.895-2.5Zm1.758 5.01-2.5.842q.418 1.237.824 2.49l2.51-.813q-.411-1.267-.834-2.52Zm-3.644-9.974-2.453.969q.48 1.213.947 2.444l2.465-.937q-.473-1.246-.959-2.476Zm10.66 35.541-2.577.56q.277 1.278.542 2.567l2.584-.532q-.268-1.303-.549-2.595Zm1.07 5.195-2.588.505q.25 1.285.49 2.58l2.594-.48q-.242-1.308-.496-2.605Zm-4.935-20.629-2.536.725q.36 1.257.707 2.527l2.544-.697q-.352-1.284-.715-2.555Zm2.688 10.264-2.566.612q.304 1.272.596 2.556l2.572-.586q-.296-1.297-.602-2.582Zm-1.287-5.146-2.552.668q.331 1.264.65 2.542l2.56-.64q-.324-1.292-.658-2.57Z" class="colorc8dff5 svgShape"></path><path fill="#cec8f5" d="M375.014 142.617c-31.557-32.998-73.776-51.17-118.88-51.17a161.886 161.886 0 0 0-65.753 13.823 165.209 165.209 0 0 0-53.07 37.348l-.868.91.867.91a164.886 164.886 0 0 0 53.07 37.414 161.777 161.777 0 0 0 65.754 13.828c45.144 0 87.364-18.198 118.88-51.241l.87-.912zm-118.88 50.426a159.156 159.156 0 0 1-64.688-13.604 162.175 162.175 0 0 1-51.352-35.91 162.497 162.497 0 0 1 51.351-35.846 159.269 159.269 0 0 1 64.689-13.6c43.96 0 85.14 17.551 116.096 49.447-30.918 31.938-72.098 49.513-116.096 49.513zm116.733 177.19a164.361 164.361 0 0 0-233.438 0l-.921.93.923.928a164.514 164.514 0 0 0 233.435 0l.922-.928zM256.134 418.03a160.766 160.766 0 0 1-113.902-46.868 161.724 161.724 0 0 1 227.833 0 160.717 160.717 0 0 1-113.931 46.868zM92.857 254.736h326.552v2.638H92.857z" class="colorc8dff5 svgShape"></path><path fill="#cec8f5" d="M254.815 92.765h2.638v326.582h-2.638z" class="colorc8dff5 svgShape"></path><path fill="#cec8f5" d="m174.7 318.346-2.571.585q.295 1.298.602 2.583l2.566-.613q-.304-1.272-.596-2.555Zm1.22 5.104-2.558.64q.323 1.291.658 2.57l2.551-.669q-.33-1.265-.65-2.541Zm-2.331-10.233-2.584.532q.268 1.302.549 2.594l2.577-.559q-.277-1.278-.542-2.567Zm-1.008-5.152-2.594.48q.242 1.307.496 2.605l2.588-.507q-.251-1.284-.49-2.578Zm6.111 25.504-2.527.754q.38 1.277.773 2.539l2.519-.784q-.388-1.247-.764-2.509Zm3.235 9.977-2.489.874q.442 1.257.895 2.499l2.478-.905q-.448-1.226-.884-2.468Zm-1.677-4.969-2.51.814q.412 1.267.834 2.52l2.5-.844q-.418-1.237-.824-2.49Zm-3-10.052-2.544.697q.352 1.284.715 2.555l2.536-.725q-.36-1.257-.707-2.527Zm-5.574-25.632-2.603.43q.217 1.311.444 2.613l2.598-.454q-.225-1.29-.44-2.589Zm-2.623-20.835-2.627.233q.117 1.323.245 2.638l2.625-.256q-.127-1.304-.243-2.615Zm-.96-15.725-2.636.09q.046 1.326.103 2.648l2.635-.113q-.056-1.31-.101-2.625Zm2.78 31.373-2.61.378q.19 1.314.392 2.621l2.607-.403q-.2-1.294-.39-2.596Zm-2.955-41.65h-2.637q0 1.215.01 2.426l2.637-.021q-.01-1.2-.01-2.406Zm.402 15.525-2.634.137q.069 1.325.15 2.645l2.632-.16q-.08-1.308-.148-2.622Zm-.36-10.5-2.638.046q.023 1.326.056 2.648l2.637-.067q-.033-1.31-.055-2.626Zm.68 15.742-2.632.184q.093 1.325.197 2.643l2.63-.208q-.104-1.306-.196-2.619Zm.923 10.463-2.623.28q.14 1.32.293 2.633l2.62-.304q-.15-1.3-.29-2.609Zm.605 5.215-2.617.33q.166 1.318.343 2.627l2.614-.353q-.175-1.298-.34-2.604Zm13.558 55.969-2.466.937q.474 1.247.96 2.476l2.453-.97q-.48-1.213-.947-2.443Zm35.41 58.018c.702.566 1.414 1.12 2.115 1.648l1.585-2.109a76.882 76.882 0 0 1-2.045-1.593Zm13.553 8.663c.812.39 1.638.765 2.453 1.113l1.036-2.426c-.78-.332-1.569-.69-2.346-1.064Zm-9.265-5.44a72.259 72.259 0 0 0 2.23 1.494l1.428-2.218a69.62 69.62 0 0 1-2.15-1.44Zm4.52 2.904c.777.457 1.566.9 2.344 1.317l1.245-2.326c-.747-.4-1.505-.825-2.252-1.265Zm-12.867-9.624q.993.912 2 1.78l1.723-1.998q-.977-.842-1.94-1.725Zm32.99 17.036c.884.14 1.784.26 2.674.354l.278-2.623a49.274 49.274 0 0 1-2.537-.336Zm-36.824-20.765q.938.965 1.89 1.892l1.839-1.89q-.925-.901-1.838-1.84Zm42.334 18.699-.14 2.634c.897.047 1.809.071 2.711.071v-2.637c-.856 0-1.721-.023-2.571-.068Zm-10.793.945c.868.23 1.752.442 2.627.628l.548-2.58a50.91 50.91 0 0 1-2.496-.597Zm-5.14-1.64c.846.315 1.704.612 2.55.882l.802-2.513a53.58 53.58 0 0 1-2.429-.84Zm-37.482-36.134-2.199 1.456q.74 1.118 1.493 2.207l2.17-1.5q-.738-1.067-1.464-2.163Zm-5.438-8.926-2.3 1.29q.654 1.167 1.322 2.31l2.277-1.33q-.656-1.124-1.3-2.27Zm-4.82-9.289-2.379 1.14q.578 1.205 1.168 2.389l2.36-1.177q-.58-1.166-1.15-2.352Zm2.336 4.685-2.342 1.213q.615 1.187 1.243 2.352l2.322-1.253q-.618-1.145-1.223-2.312Zm-4.53-9.44-2.411 1.07q.541 1.22 1.096 2.42l2.395-1.104q-.547-1.184-1.08-2.386Zm9.652 18.558-2.253 1.372q.697 1.144 1.406 2.261l2.227-1.413q-.696-1.097-1.38-2.22Zm12.247 16.874-1.986 1.736q.885 1.012 1.783 1.988l1.942-1.786q-.876-.951-1.739-1.938Zm-3.331-4.006-2.068 1.638q.834 1.052 1.682 2.072l2.028-1.686q-.828-.996-1.642-2.024Zm-3.147-4.162-2.138 1.545q.786 1.088 1.585 2.144l2.104-1.59q-.781-1.034-1.55-2.099Zm-17.478-32.082-2.44 1.002q.506 1.234 1.026 2.45l2.426-1.036q-.513-1.199-1.012-2.416Z" class="colorc8dff5 svgShape"></path><path fill="#4228e8" d="M228.379 288.338h-9.512v-34.001h-24.34v21.691h-11.431v15.335h-8.325l-16.174 16.174h-25.625V296.55H121.87v-33.627H94.284v97.99l162.184-.088v-48.469l-28.089-24.018z" class="color288de8 svgShape"></path><path fill="#3c24d7" d="m258.183 310.351-28.09-24.017a2.637 2.637 0 0 0-1.714-.633h-6.874v-31.364a2.638 2.638 0 0 0-2.638-2.638h-24.34a2.638 2.638 0 0 0-2.638 2.638v19.053h-8.793a2.638 2.638 0 0 0-2.637 2.638v12.697h-5.688a2.639 2.639 0 0 0-1.865.772L157.504 304.9H135.61v-8.35a2.638 2.638 0 0 0-2.638-2.638h-8.464v-30.989a2.638 2.638 0 0 0-2.638-2.638H94.284a2.638 2.638 0 0 0-2.637 2.638v97.99a2.638 2.638 0 0 0 2.637 2.638h.002l162.184-.089a2.638 2.638 0 0 0 2.636-2.638v-48.468a2.637 2.637 0 0 0-.923-2.005Zm-4.353 47.837-156.908.086v-92.713h22.31v30.989a2.638 2.638 0 0 0 2.638 2.637h8.465v8.35a2.638 2.638 0 0 0 2.637 2.638h25.625a2.638 2.638 0 0 0 1.865-.772L175.864 294h7.232a2.638 2.638 0 0 0 2.638-2.637v-12.697h8.793a2.638 2.638 0 0 0 2.638-2.638v-19.053h19.065v31.364a2.638 2.638 0 0 0 2.637 2.637h8.538l26.425 22.595Z" class="color2481d7 svgShape"></path><path fill="#cec8f5" d="M103.16 271.33h8.862v2.638h-8.862zM103.16 279.606h8.862v2.638h-8.862zM103.16 287.883h8.862v2.638h-8.862zM103.16 296.159h8.862v2.638h-8.862zM103.16 304.436h8.862v2.638h-8.862zM103.16 312.712h8.862v2.638h-8.862zM103.16 320.989h8.862v2.638h-8.862zM194.11 284.941a2.001 2.001 0 1 0 2.001 2.001 2.004 2.004 0 0 0-2.001-2zm0 2.638a.637.637 0 1 1 .636-.637.637.637 0 0 1-.636.637zm7.733-2.638a2.001 2.001 0 1 0 2 2.001 2.003 2.003 0 0 0-2-2zm0 2.638a.637.637 0 1 1 .636-.637.638.638 0 0 1-.636.637zm7.733-2.638a2.001 2.001 0 1 0 2 2.001 2.003 2.003 0 0 0-2-2zm0 2.638a.637.637 0 1 1 .636-.637.638.638 0 0 1-.636.637zm-15.466 6.315a2 2 0 1 0 2.001 2 2.003 2.003 0 0 0-2.001-2zm0 2.638a.637.637 0 1 1 .636-.638.638.638 0 0 1-.636.638zm7.733-2.638a2 2 0 1 0 2 2 2.003 2.003 0 0 0-2-2zm0 2.638a.637.637 0 1 1 .636-.638.638.638 0 0 1-.636.638zm7.733-2.638a2 2 0 1 0 2 2 2.003 2.003 0 0 0-2-2zm0 2.638a.637.637 0 1 1 .636-.638.638.638 0 0 1-.636.638zm-15.466 6.313a2.002 2.002 0 1 0 2.001 2.002 2.004 2.004 0 0 0-2.001-2.002zm0 2.638a.636.636 0 1 1 .636-.636.637.637 0 0 1-.636.636zm7.733-2.638a2.002 2.002 0 1 0 2 2.002 2.004 2.004 0 0 0-2-2.002zm0 2.638a.636.636 0 1 1 .636-.636.637.637 0 0 1-.636.636zm7.733-2.638a2.002 2.002 0 1 0 2 2.002 2.004 2.004 0 0 0-2-2.002zm0 2.638a.636.636 0 1 1 .636-.636.637.637 0 0 1-.636.636zm-15.466 6.315a2 2 0 1 0 2.001 2 2.003 2.003 0 0 0-2.001-2zm0 2.638a.637.637 0 1 1 .636-.638.638.638 0 0 1-.636.638zm7.733-2.638a2 2 0 1 0 2 2 2.003 2.003 0 0 0-2-2zm0 2.638a.637.637 0 1 1 .636-.638.638.638 0 0 1-.636.638zm7.733-2.638a2 2 0 1 0 2 2 2.003 2.003 0 0 0-2-2zm0 2.638a.637.637 0 1 1 .636-.638.638.638 0 0 1-.636.638zm-15.466 6.313a2.002 2.002 0 1 0 2.001 2.002 2.004 2.004 0 0 0-2.001-2.002zm0 2.638a.636.636 0 1 1 .636-.636.637.637 0 0 1-.636.636zm7.733-2.638a2.002 2.002 0 1 0 2 2.002 2.004 2.004 0 0 0-2-2.002zm0 2.638a.636.636 0 1 1 .636-.636.637.637 0 0 1-.636.636zm7.733-2.638a2.002 2.002 0 1 0 2 2.002 2.004 2.004 0 0 0-2-2.002zm0 2.638a.636.636 0 1 1 .636-.636.637.637 0 0 1-.636.636z" class="colorc8dff5 svgShape"></path><path fill="#4228e8" d="M390.559 262.923v33.627h-11.102v10.987h-25.625l-16.174-16.174h-8.325v-15.335h-11.431v-21.691h-24.34v34.001h-9.512l-28.089 24.018v48.469l162.184.088v-97.99h-27.586z" class="color288de8 svgShape"></path><path fill="#3c24d7" d="M418.145 260.285h-27.586a2.638 2.638 0 0 0-2.638 2.638v30.989h-8.464a2.638 2.638 0 0 0-2.638 2.638v8.35h-21.894l-15.402-15.403a2.639 2.639 0 0 0-1.865-.772h-5.688v-12.697a2.638 2.638 0 0 0-2.637-2.638h-8.793v-19.053a2.638 2.638 0 0 0-2.638-2.638h-24.34a2.638 2.638 0 0 0-2.638 2.638V285.7h-6.874a2.637 2.637 0 0 0-1.714.633l-28.09 24.017a2.637 2.637 0 0 0-.923 2.005v48.469a2.638 2.638 0 0 0 2.636 2.637l162.184.09h.002a2.638 2.638 0 0 0 2.637-2.639v-97.99a2.638 2.638 0 0 0-2.637-2.638Zm-2.638 97.99-156.908-.087v-44.617l26.425-22.595h8.538a2.638 2.638 0 0 0 2.638-2.637v-31.364h19.064v19.053a2.638 2.638 0 0 0 2.638 2.638h8.793v12.697a2.638 2.638 0 0 0 2.638 2.637h7.232l15.402 15.403a2.638 2.638 0 0 0 1.865.772h25.625a2.638 2.638 0 0 0 2.637-2.638v-8.35h8.465a2.638 2.638 0 0 0 2.638-2.637v-30.99h22.31Z" class="color2481d7 svgShape"></path><path fill="#cec8f5" d="M400.407 271.33h8.863v2.638h-8.863zM400.407 279.606h8.863v2.638h-8.863zM400.407 287.883h8.863v2.638h-8.863zM400.407 296.159h8.863v2.638h-8.863zM400.407 304.436h8.863v2.638h-8.863zM400.407 312.712h8.863v2.638h-8.863zM400.407 320.989h8.863v2.638h-8.863zM318.32 284.941a2.001 2.001 0 1 0 2 2.001 2.003 2.003 0 0 0-2-2zm0 2.638a.637.637 0 1 1 .635-.637.637.637 0 0 1-.636.637zm-7.734-2.638a2.001 2.001 0 1 0 2.002 2.001 2.003 2.003 0 0 0-2.002-2zm0 2.638a.637.637 0 1 1 .638-.637.637.637 0 0 1-.638.637zm-7.733-2.638a2.001 2.001 0 1 0 2.002 2.001 2.003 2.003 0 0 0-2.002-2zm0 2.638a.637.637 0 1 1 .638-.637.637.637 0 0 1-.638.637zm15.466 6.315a2 2 0 1 0 2.002 2 2.003 2.003 0 0 0-2.002-2zm0 2.638a.637.637 0 1 1 .636-.638.637.637 0 0 1-.636.638zm-7.733-2.638a2 2 0 1 0 2.002 2 2.003 2.003 0 0 0-2.002-2zm0 2.638a.637.637 0 1 1 .638-.638.637.637 0 0 1-.638.638zm-7.733-2.638a2 2 0 1 0 2.002 2 2.003 2.003 0 0 0-2.002-2zm0 2.638a.637.637 0 1 1 .638-.638.637.637 0 0 1-.638.638zm15.466 6.313a2.002 2.002 0 1 0 2.002 2.002 2.004 2.004 0 0 0-2.002-2.002zm0 2.638a.636.636 0 1 1 .636-.636.637.637 0 0 1-.636.636zm-7.733-2.638a2.002 2.002 0 1 0 2.002 2.002 2.003 2.003 0 0 0-2.002-2.002zm0 2.638a.636.636 0 1 1 .638-.636.637.637 0 0 1-.638.636zm-7.733-2.638a2.002 2.002 0 1 0 2.002 2.002 2.003 2.003 0 0 0-2.002-2.002zm0 2.638a.636.636 0 1 1 .638-.636.637.637 0 0 1-.638.636zm15.466 6.315a2 2 0 1 0 2.002 2 2.003 2.003 0 0 0-2.002-2zm0 2.638a.637.637 0 1 1 .636-.638.638.638 0 0 1-.636.638zm-7.733-2.638a2 2 0 1 0 2.002 2 2.003 2.003 0 0 0-2.002-2zm0 2.638a.637.637 0 1 1 .638-.638.637.637 0 0 1-.638.638zm-7.733-2.638a2 2 0 1 0 2.002 2 2.003 2.003 0 0 0-2.002-2zm0 2.638a.637.637 0 1 1 .638-.638.637.637 0 0 1-.638.638zm15.466 6.313a2.002 2.002 0 1 0 2.002 2.002 2.004 2.004 0 0 0-2.002-2.002zm0 2.638a.636.636 0 1 1 .636-.636.637.637 0 0 1-.636.636zm-7.733-2.638a2.002 2.002 0 1 0 2.002 2.002 2.003 2.003 0 0 0-2.002-2.002zm0 2.638a.636.636 0 1 1 .638-.636.637.637 0 0 1-.638.636zm-7.733-2.638a2.002 2.002 0 1 0 2.002 2.002 2.003 2.003 0 0 0-2.002-2.002zm0 2.638a.636.636 0 1 1 .638-.636.637.637 0 0 1-.638.636zM94.027 360.913h324.374v57.053H94.027z" class="colorc8dff5 svgShape"></path><path fill="#b9aff9" d="M94.027 373.585h324.374v43.876H94.027z" class="colorafd8f9 svgShape"></path><path fill="#3c24d7" d="M418.402 358.276H94.027a2.638 2.638 0 0 0-2.637 2.637v57.054a2.638 2.638 0 1 0 5.275 0V363.55h319.099v54.416a2.638 2.638 0 1 0 5.275 0v-57.054a2.638 2.638 0 0 0-2.637-2.637Z" class="color2481d7 svgShape"></path><path fill="#cec8f5" d="M215.805 300.665a14.502 14.502 0 0 0-12.422 7.034l-36.099 60.046a14.486 14.486 0 0 0 12.436 21.96h239.032v-89.04Z" class="colorc8dff5 svgShape"></path><path fill="#b9aff9" d="m202.093 309.846-26.717 44.439v34.747a14.5 14.5 0 0 0 4.344.672h239.032v-79.858Z" class="colorafd8f9 svgShape"></path><path fill="#ece9ff" d="m171.398 360.903-4.114 6.842a14.486 14.486 0 0 0 12.436 21.96h239.032v-28.802Z" class="colore9f6ff svgShape"></path><path fill="#ffffff" d="M165.45 372.667a14.46 14.46 0 0 0 14.27 17.037h239.032v-17.037Z" class="colorffffff svgShape"></path><path fill="#3c24d7" d="M418.752 358.925H171.398a1.978 1.978 0 0 0-1.696.959l-4.115 6.845a16.464 16.464 0 0 0 14.133 24.953h239.032a1.978 1.978 0 0 0 1.978-1.978v-28.8a1.978 1.978 0 0 0-1.978-1.98Zm-1.978 28.8H179.72a12.507 12.507 0 0 1-10.74-18.96l3.537-5.883h244.257Z" class="color2481d7 svgShape"></path><path fill="#7b6ae5" d="m197.005 318.329-17.095 28.41h46.467l13.572-28.41h-42.944z" class="color6ab0e5 svgShape"></path><path fill="#7764f0" d="m197.005 318.329-17.095 28.41h33.41l13.571-28.41h-29.886z" class="color5ba1e1 svgShape"></path><path fill="#7b6ae5" d="M196.873 397.928a5.688 5.688 0 1 0 5.688 5.688 5.688 5.688 0 0 0-5.689-5.688zm28.947 0a5.688 5.688 0 1 0 5.69 5.688 5.688 5.688 0 0 0-5.69-5.688zm28.948 0a5.688 5.688 0 1 0 5.69 5.688 5.688 5.688 0 0 0-5.69-5.688zm28.948 0a5.688 5.688 0 1 0 5.689 5.688 5.688 5.688 0 0 0-5.69-5.688zm28.948 0a5.688 5.688 0 1 0 5.689 5.688 5.688 5.688 0 0 0-5.69-5.688zm28.949 0a5.688 5.688 0 1 0 5.688 5.688 5.688 5.688 0 0 0-5.688-5.688zm28.947 0a5.688 5.688 0 1 0 5.69 5.688 5.689 5.689 0 0 0-5.69-5.688zm28.948 0a5.688 5.688 0 1 0 5.689 5.688 5.689 5.689 0 0 0-5.69-5.688zm-125.055-79.6a6.207 6.207 0 0 0-6.208 6.207v15.998a6.207 6.207 0 0 0 6.208 6.206h144.299v-28.41z" class="color6ab0e5 svgShape"></path><path fill="#7764f0" d="M274.453 318.329a6.207 6.207 0 0 0-6.208 6.206v15.998a6.207 6.207 0 0 0 6.208 6.206h130.822v-28.41Z" class="color5ba1e1 svgShape"></path><path fill="#3c24d7" d="M418.752 298.027H215.805a17.223 17.223 0 0 0-14.683 8.313l-36.1 60.05a17.123 17.123 0 0 0 14.698 25.952h239.032a2.638 2.638 0 0 0 2.638-2.638v-89.04a2.638 2.638 0 0 0-2.638-2.637zm-2.638 89.04H179.72a11.848 11.848 0 0 1-10.175-17.962l36.099-60.047a11.92 11.92 0 0 1 10.161-5.755h200.31zm2.638 28.541H168.878a2.638 2.638 0 1 0 0 5.276h249.874a2.638 2.638 0 1 0 0-5.276z" class="color2481d7 svgShape"></path><path fill="#3c24d7" d="M242.18 316.922a2.637 2.637 0 0 0-2.231-1.231h-42.944a2.637 2.637 0 0 0-2.26 1.277l-17.095 28.41a2.638 2.638 0 0 0 2.26 3.998h46.467a2.638 2.638 0 0 0 2.38-1.5l13.572-28.41a2.637 2.637 0 0 0-.15-2.544zM224.714 344.1h-40.138l13.92-23.135h37.27zm-27.841 51.848a7.667 7.667 0 1 0 7.666 7.667 7.676 7.676 0 0 0-7.666-7.667zm0 11.377a3.71 3.71 0 1 1 3.71-3.71 3.715 3.715 0 0 1-3.71 3.71zm28.947-11.377a7.667 7.667 0 1 0 7.668 7.667 7.675 7.675 0 0 0-7.668-7.667zm0 11.377a3.71 3.71 0 1 1 3.711-3.71 3.714 3.714 0 0 1-3.711 3.71zm28.948-11.377a7.667 7.667 0 1 0 7.668 7.667 7.676 7.676 0 0 0-7.668-7.667zm0 11.377a3.71 3.71 0 1 1 3.711-3.71 3.715 3.715 0 0 1-3.71 3.71zm28.948-11.377a7.667 7.667 0 1 0 7.667 7.667 7.675 7.675 0 0 0-7.667-7.667zm0 11.377a3.71 3.71 0 1 1 3.71-3.71 3.714 3.714 0 0 1-3.71 3.71zm28.948-11.377a7.667 7.667 0 1 0 7.667 7.667 7.676 7.676 0 0 0-7.667-7.667zm0 11.377a3.71 3.71 0 1 1 3.71-3.71 3.715 3.715 0 0 1-3.71 3.71zm28.949-11.377a7.667 7.667 0 1 0 7.666 7.667 7.676 7.676 0 0 0-7.666-7.667zm0 11.377a3.71 3.71 0 1 1 3.71-3.71 3.715 3.715 0 0 1-3.71 3.71zm28.947-11.377a7.667 7.667 0 1 0 7.668 7.667 7.676 7.676 0 0 0-7.668-7.667zm0 11.377a3.71 3.71 0 1 1 3.711-3.71 3.715 3.715 0 0 1-3.711 3.71zm28.948-11.377a7.667 7.667 0 1 0 7.667 7.667 7.676 7.676 0 0 0-7.667-7.667zm0 11.377a3.71 3.71 0 1 1 3.71-3.71 3.715 3.715 0 0 1-3.71 3.71zm19.244-90.976h-144.3a8.195 8.195 0 0 0-8.185 8.185v15.998a8.194 8.194 0 0 0 8.186 8.184h144.299a1.978 1.978 0 0 0 1.978-1.978v-28.41a1.978 1.978 0 0 0-1.978-1.979zm-1.978 28.41H274.453a4.233 4.233 0 0 1-4.23-4.227v-15.998a4.234 4.234 0 0 1 4.23-4.228h142.32z" class="color2481d7 svgShape"></path><path fill="#3c24d7" d="M295.961 316.35a1.978 1.978 0 0 0-1.978 1.979v28.41a1.978 1.978 0 0 0 3.957 0v-28.41a1.978 1.978 0 0 0-1.979-1.979zm26.47 0a1.978 1.978 0 0 0-1.978 1.979v28.41a1.978 1.978 0 1 0 3.957 0v-28.41a1.978 1.978 0 0 0-1.978-1.979zm26.472 0a1.978 1.978 0 0 0-1.978 1.979v28.41a1.978 1.978 0 1 0 3.957 0v-28.41a1.978 1.978 0 0 0-1.979-1.979zm26.47 0a1.978 1.978 0 0 0-1.978 1.979v28.41a1.978 1.978 0 0 0 3.957 0v-28.41a1.978 1.978 0 0 0-1.978-1.979zm26.472 0a1.978 1.978 0 0 0-1.979 1.979v28.41a1.978 1.978 0 0 0 3.957 0v-28.41a1.978 1.978 0 0 0-1.978-1.979zm-112.44-82.453h-57.896a2.638 2.638 0 0 0 0 5.276h57.896a2.638 2.638 0 0 0 0-5.276zm22.22.773a2.632 2.632 0 0 0-2.374-.718 2.5 2.5 0 0 0-.495.145 2.733 2.733 0 0 0-.455.244 2.418 2.418 0 0 0-.402.33 2.63 2.63 0 0 0-.772 1.866 2.267 2.267 0 0 0 .053.514 2.662 2.662 0 0 0 .145.494 3.006 3.006 0 0 0 .244.455 3.223 3.223 0 0 0 .33.403 2.635 2.635 0 0 0 3.726 0 2.377 2.377 0 0 0 .33-.403 2.518 2.518 0 0 0 .243-.455 2.703 2.703 0 0 0 .152-.494 2.733 2.733 0 0 0 .053-.514 2.636 2.636 0 0 0-.778-1.867zm20.08 0a2.638 2.638 0 0 0-2.381-.718 2.563 2.563 0 0 0-.488.145 2.49 2.49 0 0 0-.455.244 2.433 2.433 0 0 0-.402.33 2.63 2.63 0 0 0-.772 1.866 2.723 2.723 0 0 0 .046.514 3.33 3.33 0 0 0 .152.494 3.04 3.04 0 0 0 .244.455 2.744 2.744 0 0 0 .33.403 2.635 2.635 0 0 0 3.725 0 2.35 2.35 0 0 0 .33-.403 2.5 2.5 0 0 0 .244-.455 2.652 2.652 0 0 0 .152-.494 2.703 2.703 0 0 0 .053-.514 2.636 2.636 0 0 0-.779-1.867zm20.08 0a2.639 2.639 0 0 0-2.381-.718 2.572 2.572 0 0 0-.488.145 2.489 2.489 0 0 0-.455.244 2.43 2.43 0 0 0-.402.33 2.63 2.63 0 0 0-.772 1.866 2.723 2.723 0 0 0 .046.514 3.28 3.28 0 0 0 .152.494 3.001 3.001 0 0 0 .244.455 2.736 2.736 0 0 0 .33.403 2.635 2.635 0 0 0 3.725 0 2.74 2.74 0 0 0 .33-.403 3.007 3.007 0 0 0 .244-.455 2.684 2.684 0 0 0 .152-.494 2.732 2.732 0 0 0 .053-.514 2.636 2.636 0 0 0-.779-1.867zm20.08 0a2.64 2.64 0 0 0-2.381-.718 2.785 2.785 0 0 0-.495.145 3.032 3.032 0 0 0-.455.244 2.695 2.695 0 0 0-.396.33 2.635 2.635 0 0 0-.778 1.866 2.703 2.703 0 0 0 .053.514 2.652 2.652 0 0 0 .152.494 3.005 3.005 0 0 0 .244.455 2.76 2.76 0 0 0 .33.403 2.635 2.635 0 0 0 3.726 0 2.764 2.764 0 0 0 .33-.403 3.004 3.004 0 0 0 .243-.455 3.251 3.251 0 0 0 .152-.494 2.698 2.698 0 0 0 .046-.514 2.63 2.63 0 0 0-.771-1.867zm27.224-20.42h-57.895a2.638 2.638 0 0 0 0 5.276h57.895a2.638 2.638 0 1 0 0-5.275zm-75.667 2.12a2.88 2.88 0 0 0-.152-.494 2.518 2.518 0 0 0-.244-.455 2.34 2.34 0 0 0-.33-.395 2.619 2.619 0 0 0-3.725 0 2.677 2.677 0 0 0-.33.395 3.004 3.004 0 0 0-.244.455 2.821 2.821 0 0 0-.145.495 2.268 2.268 0 0 0-.053.514 2.638 2.638 0 0 0 5.276 0 2.732 2.732 0 0 0-.053-.514zm-20.799-1.344a2.667 2.667 0 0 0-2.38-.726 2.57 2.57 0 0 0-.495.152 2.736 2.736 0 0 0-.455.244 2.156 2.156 0 0 0-.402.33 2.635 2.635 0 0 0 0 3.725 2.146 2.146 0 0 0 .402.33 2.736 2.736 0 0 0 .455.244 2.52 2.52 0 0 0 .494.152 2.609 2.609 0 0 0 2.381-.726 2.64 2.64 0 0 0 .323-.395 2.379 2.379 0 0 0 .244-.462 2.601 2.601 0 0 0 .152-.488 2.746 2.746 0 0 0 .053-.52 2.654 2.654 0 0 0-.772-1.86zm-20.08 0a2.672 2.672 0 0 0-2.38-.726 2.557 2.557 0 0 0-.495.152 3 3 0 0 0-.455.244 2.39 2.39 0 0 0-.402.33 2.654 2.654 0 0 0-.772 1.86 2.746 2.746 0 0 0 .053.52 2.602 2.602 0 0 0 .152.488 2.788 2.788 0 0 0 .237.462 3.192 3.192 0 0 0 .33.395 2.379 2.379 0 0 0 .402.33 3.001 3.001 0 0 0 .455.244 2.507 2.507 0 0 0 .495.152 2.734 2.734 0 0 0 .514.053 2.658 2.658 0 0 0 1.866-.779 2.62 2.62 0 0 0 .323-.395 2.357 2.357 0 0 0 .244-.462 2.597 2.597 0 0 0 .152-.488 2.721 2.721 0 0 0 .053-.52 2.652 2.652 0 0 0-.772-1.86zm-20.08 0a2.369 2.369 0 0 0-.402-.33 2.995 2.995 0 0 0-.455-.244 2.551 2.551 0 0 0-.495-.152 2.698 2.698 0 0 0-1.028 0 2.572 2.572 0 0 0-.495.152 3.036 3.036 0 0 0-.455.244 2.147 2.147 0 0 0-.402.33 3.175 3.175 0 0 0-.33.395 2.934 2.934 0 0 0-.237.455 2.848 2.848 0 0 0-.152.495 2.732 2.732 0 0 0-.053.514 2.656 2.656 0 0 0 .772 1.866 2.137 2.137 0 0 0 .402.33 3.037 3.037 0 0 0 .455.244 2.521 2.521 0 0 0 .495.152 2.532 2.532 0 0 0 1.028 0 2.502 2.502 0 0 0 .495-.152 2.996 2.996 0 0 0 .455-.244 2.357 2.357 0 0 0 .402-.33 2.62 2.62 0 0 0 .323-.395 2.376 2.376 0 0 0 .244-.462 2.63 2.63 0 0 0 .152-.488 2.746 2.746 0 0 0 .053-.52 2.653 2.653 0 0 0-.772-1.86z" class="color2481d7 svgShape"></path><path fill="#ffffff" d="M209.096 201.652c0-.033.005-.065.005-.097a11.207 11.207 0 0 0-11.207-11.207h-2.306a11.206 11.206 0 0 0-11.206 11.207c0 .032.004.064.004.097a11.201 11.201 0 0 0 1.398 22.315h21.912a11.201 11.201 0 0 0 1.4-22.315Z" class="colorffffff svgShape"></path><path fill="#e2defc" d="M209.096 207.94c0-.033.005-.064.005-.096a11.207 11.207 0 0 0-11.207-11.208h-2.306a11.206 11.206 0 0 0-11.206 11.208c0 .032.004.063.004.096a11.212 11.212 0 0 0-9.353 7.957 11.202 11.202 0 0 0 10.751 8.07h21.912a11.203 11.203 0 0 0 10.753-8.07 11.212 11.212 0 0 0-9.353-7.957Z" class="colordef4fc svgShape"></path><path fill="#3c24d7" d="M210.378 200.534a12.542 12.542 0 0 0-12.484-11.505h-2.306a12.542 12.542 0 0 0-12.483 11.505 12.52 12.52 0 0 0 2.68 24.752h21.911a12.52 12.52 0 0 0 2.682-24.752Zm-2.682 22.115h-21.912a9.883 9.883 0 0 1-1.234-19.689 1.319 1.319 0 0 0 1.155-1.308.843.843 0 0 0-.004-.097 9.898 9.898 0 0 1 9.887-9.888h2.306a9.891 9.891 0 0 1 9.889 9.844c-.003.03-.006.11-.006.14a1.319 1.319 0 0 0 1.155 1.31 9.883 9.883 0 0 1-1.236 19.688Z" class="color2481d7 svgShape"></path><path fill="#ffffff" d="M264.64 178.427c0-.032.004-.064.004-.097a11.206 11.206 0 0 0-11.206-11.206h-2.306a11.206 11.206 0 0 0-11.206 11.206c0 .033.004.065.004.097a11.201 11.201 0 0 0 1.398 22.316h21.912a11.201 11.201 0 0 0 1.4-22.316Z" class="colorffffff svgShape"></path><path fill="#e2defc" d="M264.64 184.715c0-.032.004-.064.004-.096a11.207 11.207 0 0 0-11.206-11.207h-2.306a11.207 11.207 0 0 0-11.206 11.207c0 .032.004.064.004.096a11.212 11.212 0 0 0-9.353 7.958 11.202 11.202 0 0 0 10.751 8.07h21.912a11.203 11.203 0 0 0 10.753-8.07 11.212 11.212 0 0 0-9.353-7.958Z" class="colordef4fc svgShape"></path><path fill="#3c24d7" d="M265.922 177.31a12.542 12.542 0 0 0-12.484-11.505h-2.306a12.542 12.542 0 0 0-12.483 11.505 12.52 12.52 0 0 0 2.68 24.752h21.91a12.52 12.52 0 0 0 2.683-24.752zm-2.682 22.114h-21.912a9.883 9.883 0 0 1-1.234-19.688 1.319 1.319 0 0 0 1.155-1.309.868.868 0 0 0-.004-.097 9.898 9.898 0 0 1 9.887-9.887h2.306a9.891 9.891 0 0 1 9.888 9.844c-.002.03-.005.11-.005.14a1.319 1.319 0 0 0 1.155 1.309 9.883 9.883 0 0 1-1.236 19.688zm-107.9 70.592a7.052 7.052 0 1 0 0 9.978 7.063 7.063 0 0 0 0-9.978zm-2.798 7.18a3.097 3.097 0 1 1 0-4.383 3.104 3.104 0 0 1 0 4.383zm61.916-142.874a7.055 7.055 0 1 0 0 9.978 7.063 7.063 0 0 0 0-9.978zm-2.797 7.18a3.097 3.097 0 1 1 0-4.383 3.08 3.08 0 0 1 0 4.383z" class="color2481d7 svgShape"></path><path fill="#3c24d7" d="M150.35 201.346a1.319 1.319 0 0 0-1.319 1.319v2.637a1.319 1.319 0 1 0 2.638 0v-2.637a1.319 1.319 0 0 0-1.319-1.32Zm0 9.232a1.319 1.319 0 0 0-1.319 1.319v2.638a1.319 1.319 0 1 0 2.638 0v-2.638a1.319 1.319 0 0 0-1.319-1.319Zm0-18.464a1.319 1.319 0 0 0-1.319 1.319v2.637a1.319 1.319 0 1 0 2.638 0v-2.637a1.319 1.319 0 0 0-1.319-1.32Zm0 27.696a1.319 1.319 0 0 0-1.319 1.319v2.638a1.319 1.319 0 1 0 2.638 0v-2.638a1.319 1.319 0 0 0-1.319-1.319Zm0-36.929a1.319 1.319 0 0 0-1.319 1.32v2.637a1.319 1.319 0 1 0 2.638 0V184.2a1.319 1.319 0 0 0-1.319-1.319Zm0 55.393a1.319 1.319 0 0 0-1.319 1.32v2.637a1.319 1.319 0 1 0 2.638 0v-2.638a1.319 1.319 0 0 0-1.319-1.319Zm0 27.697a1.319 1.319 0 0 0-1.319 1.319v2.638a1.319 1.319 0 0 0 2.638 0v-2.638a1.319 1.319 0 0 0-1.319-1.319Zm0-36.929a1.319 1.319 0 0 0-1.319 1.32v2.637a1.319 1.319 0 1 0 2.638 0v-2.638a1.319 1.319 0 0 0-1.319-1.319Zm0 27.697a1.319 1.319 0 0 0-1.319 1.319v2.637a1.319 1.319 0 1 0 2.638 0v-2.637a1.319 1.319 0 0 0-1.319-1.32Zm0-9.232a1.319 1.319 0 0 0-1.319 1.319v2.637a1.319 1.319 0 1 0 2.638 0v-2.637a1.319 1.319 0 0 0-1.319-1.32Zm0-73.858a1.319 1.319 0 0 0-1.319 1.32v2.637a1.319 1.319 0 0 0 2.638 0v-2.638a1.319 1.319 0 0 0-1.319-1.319Zm38.2-35.658h-2.638a1.319 1.319 0 1 0 0 2.638h2.638a1.319 1.319 0 1 0 0-2.638Zm-9.233 0h-2.637a1.319 1.319 0 1 0 0 2.638h2.637a1.319 1.319 0 1 0 0-2.638Zm18.465 0h-2.638a1.319 1.319 0 1 0 0 2.638h2.638a1.319 1.319 0 1 0 0-2.638Zm6.61 0h-.016a1.312 1.312 0 0 0-1.31 1.319 1.323 1.323 0 1 0 1.326-1.319Zm-34.307 0h-2.637a1.319 1.319 0 0 0 0 2.638h2.637a1.319 1.319 0 1 0 0-2.638Zm-19.735 7.962a1.319 1.319 0 0 0-1.319 1.319v2.637a1.319 1.319 0 0 0 2.638 0v-2.637a1.319 1.319 0 0 0-1.319-1.32Zm0 9.232a1.319 1.319 0 0 0-1.319 1.319v2.638a1.319 1.319 0 0 0 2.638 0v-2.638a1.319 1.319 0 0 0-1.319-1.32Zm0 9.232a1.319 1.319 0 0 0-1.319 1.319v2.638a1.319 1.319 0 0 0 2.638 0v-2.638a1.319 1.319 0 0 0-1.319-1.319Zm1.27-26.426h-1.27a1.319 1.319 0 0 0-1.319 1.319v1.367a1.319 1.319 0 0 0 2.638 0v-.05a1.319 1.319 0 0 0-.048-2.636Zm9.233 0h-2.638a1.319 1.319 0 0 0 0 2.638h2.638a1.319 1.319 0 1 0 0-2.638Z" class="color2481d7 svgShape"></path><path fill="#cec8f5" d="M230.447 118.474h26.021v2.638h-26.021zM230.447 126.062h19.537v2.638h-19.537zM230.447 133.65h26.021v2.638h-26.021zM230.447 141.238h19.537v2.638h-19.537zM230.447 148.826h26.021v2.638h-26.021zM117.878 224.385l-1.9-1.83a6.024 6.024 0 0 0-1.56 2.943l2.58.543a3.387 3.387 0 0 1 .88-1.656zm8.433 1.51a6.02 6.02 0 0 0-1.361-3.042l-2.017 1.7a3.386 3.386 0 0 1 .766 1.71zm-9.18 2.018-2.478.904a6.044 6.044 0 0 0 1.96 2.692l1.624-2.079a3.405 3.405 0 0 1-1.106-1.517zm4.246-4.407.809-2.51a6.107 6.107 0 0 0-3.326-.111l.64 2.558a3.446 3.446 0 0 1 1.877.063zm-1.403 6.625-.272 2.624a6.053 6.053 0 0 0 3.279-.58l-1.159-2.369a3.436 3.436 0 0 1-1.848.325zm3.76-3.385a3.392 3.392 0 0 1-.516 1.802l2.235 1.4a6.025 6.025 0 0 0 .918-3.202zm.818-26.695a3.269 3.269 0 0 0-1.335 2.63 3.231 3.231 0 0 0 .283 1.33l2.408-1.078a.62.62 0 0 1 .2-.752zm4.093.203-1.759 1.966a.612.612 0 0 1 .207.461.62.62 0 0 1-.489.605l.547 2.58a3.257 3.257 0 0 0 1.494-5.612zm151.707-46.904a7.022 7.022 0 0 0 2.797 1.599l.745-2.53a4.375 4.375 0 0 1-1.741-.996zm11.562-6.822a7.025 7.025 0 0 0-1.485-2.859l-1.998 1.723a4.368 4.368 0 0 1 .925 1.778zm-9.002-2.048-1.343-2.27a7.061 7.061 0 0 0-2.32 2.23l2.214 1.432a4.41 4.41 0 0 1 1.45-1.392zm-2.144 3.756a4.46 4.46 0 0 1 .025-.476l-2.622-.283a7.027 7.027 0 0 0 .395 3.195l2.473-.919a4.35 4.35 0 0 1-.271-1.517zm8.719 0a4.313 4.313 0 0 1-.46 1.952l2.357 1.183a6.928 6.928 0 0 0 .74-3.135zm-1.663-6.459a7.041 7.041 0 0 0-3.176-.522l.177 2.632a4.389 4.389 0 0 1 1.981.324zm-1.925 10.75.463 2.597a7.014 7.014 0 0 0 2.956-1.284l-1.581-2.112a4.363 4.363 0 0 1-1.838.8zm19.657 20.73-1.208 2.345a5.206 5.206 0 0 0 3.436.464l-.539-2.582a2.564 2.564 0 0 1-1.689-.227zm1.32-4.81.162-2.633a5.194 5.194 0 0 0-3.334.958l1.535 2.145a2.54 2.54 0 0 1 1.637-.47zm-2.703 2.543a2.55 2.55 0 0 1 .09-.675l-2.544-.698a5.202 5.202 0 0 0 .253 3.46l2.414-1.063a2.533 2.533 0 0 1-.213-1.024zm5.095 0a2.518 2.518 0 0 1-.57 1.606l2.048 1.663a5.198 5.198 0 0 0 1.16-3.269zm2.583-.75a5.193 5.193 0 0 0-1.622-3.068l-1.785 1.942a2.552 2.552 0 0 1 .797 1.504zm-186.697-56.897v16.53h16.53v-16.53zm13.893 13.892h-11.255v-11.254h11.255zm9.984-25.553v7.914h7.914v-7.914zm5.276 5.276h-2.638v-2.638h2.638zm-52.466 36.111v7.07h7.069v-7.07zm4.431 4.432h-1.793v-1.794h1.793zm272.56-34.158v16.53h16.53v-16.53zm13.892 13.892H381.47v-11.254h11.254zm7.802 14.003v8.9h8.9v-8.9zm6.262 6.263h-3.624v-3.625h3.624zm-50.59 35.113v15.34h15.34v-15.34zm12.703 12.703h-10.065v-10.065h10.065z" class="colorc8dff5 svgShape"></path></svg>