<svg xmlns="http://www.w3.org/2000/svg" enable-background="new 0 0 2000 2000" viewBox="0 0 2000 2000" id="Fastchargingtechnology"><path fill="#eceaf8" fill-rule="evenodd" d="M962,1506.7c189.1,0,363.1,2.8,501.2,7.6c337.9-193.2,220.9-569.7,99.6-782.6
			c-168.9-296.4-567.9-402.9-732.9-166.4c-224,321-440.1,209-556.8,452.8c-116.7,243.8,60.5,477.5,187.8,496.3
			C598.9,1509.5,772.9,1506.7,962,1506.7z" clip-rule="evenodd" class="coloreaeff8 svgShape"></path><path fill="#d6d2ee" fill-rule="evenodd" d="M1027.8,1511.1c416.9,0,754.8,15.9,754.8,35.6s-337.9,35.6-754.8,35.6c-416.9,0-754.8-15.9-754.8-35.6
			S610.9,1511.1,1027.8,1511.1z" clip-rule="evenodd" class="colord2dfee svgShape"></path><path fill="#ffffff" fill-rule="evenodd" d="M1224.2 523.9c203 45.2 332.2 231.9 344.9 322.1 5.2 37-4.4-49.6-108-128.4-92.6-70.4-164.6-83.5-274.7-92-77.8-6-159.3-15.6-153.5-62C1037.4 527 1093.1 494.7 1224.2 523.9zM903 654c-2.9 39.9-8.8 45.4-46.9 48.5 38.1 3.1 44 8.6 46.9 48.5 2.9-39.9 8.8-45.4 46.9-48.5C911.8 699.5 905.9 694 903 654L903 654zM1057.7 759.4c-1.6 21.3-4.7 24.3-25 25.9 20.3 1.6 23.5 4.6 25 25.9 1.6-21.3 4.7-24.3 25-25.9C1062.4 783.6 1059.3 780.7 1057.7 759.4L1057.7 759.4zM990 595.3c-1.6 21.6-4.8 24.6-25.3 26.2 20.6 1.7 23.8 4.6 25.3 26.2 1.6-21.6 4.8-24.6 25.3-26.2C994.7 619.9 991.5 616.9 990 595.3zM846.9 1308.7c2.4 32.3 7.1 36.8 38 39.3-30.8 2.5-35.6 7-38 39.3-2.4-32.3-7.1-36.8-38-39.3C839.7 1345.5 844.5 1341.1 846.9 1308.7L846.9 1308.7zM721.5 1394c1.3 17.3 3.8 19.7 20.3 21-16.5 1.3-19 3.7-20.3 21-1.3-17.3-3.8-19.7-20.3-21C717.7 1413.7 720.2 1411.3 721.5 1394L721.5 1394zM776.4 1261.1c1.3 17.5 3.9 19.9 20.5 21.3-16.7 1.3-19.3 3.8-20.5 21.3-1.3-17.5-3.9-19.9-20.5-21.3C772.6 1281 775.1 1278.6 776.4 1261.1zM1339.6 1229c-1.8 24.8-5.5 28.2-29.1 30.1 23.6 1.9 27.3 5.3 29.1 30.1 1.8-24.8 5.5-28.2 29.1-30.1C1345 1257.2 1341.4 1253.7 1339.6 1229L1339.6 1229zM1435.6 1294.3c-1 13.2-2.9 15-15.5 16.1 12.6 1 14.6 2.8 15.5 16.1 1-13.2 2.9-15 15.5-16.1C1438.5 1309.3 1436.5 1307.5 1435.6 1294.3L1435.6 1294.3zM1393.5 1192.5c-1 13.4-3 15.2-15.7 16.3 12.8 1 14.7 2.9 15.7 16.3 1-13.4 3-15.2 15.7-16.3C1396.5 1207.8 1394.5 1205.9 1393.5 1192.5z" clip-rule="evenodd" class="colorffffff svgShape"></path><path fill="#d7d2f7" fill-rule="evenodd" d="M1688.1,1126.5h43.8c5.2,0,9.5,4.3,9.5,9.5v234.2c0,5.2-4.3,9.5-9.5,9.5h-43.8c-5.2,0-9.5-4.3-9.5-9.5V1136
			C1678.6,1130.8,1682.9,1126.5,1688.1,1126.5z" clip-rule="evenodd" class="colord2e5f7 svgShape"></path><path fill="#f1effc" fill-rule="evenodd" d="M521.2,949.9h1073.3c35.5,0,64.6,29.1,64.6,64.6v481.2c0,35.5-29.1,64.6-64.6,64.6H521.2
			c-35.5,0-64.6-29.1-64.6-64.6v-481.2C456.6,978.9,485.7,949.9,521.2,949.9z" clip-rule="evenodd" class="coloreff9fc svgShape"></path><path fill="#361ed1" fill-rule="evenodd" d="M498.4,946.1H1617c13.2,0,25.2,5.4,33.9,14.1l0,0c8.7,8.7,14.1,20.7,14.1,33.9v518
				c0,13.2-5.4,25.2-14.1,33.9l0,0c-8.7,8.7-20.7,14.1-33.9,14.1H498.4c-13.2,0-25.2-5.4-33.9-14.1l0,0
				c-8.7-8.7-14.1-20.7-14.1-33.9v-518c0-13.2,5.4-25.2,14.1-33.9l0,0C473.2,951.5,485.2,946.1,498.4,946.1L498.4,946.1z
				 M1617,959.6H498.4c-9.5,0-18.2,3.9-24.4,10.1c-6.3,6.3-10.1,14.9-10.1,24.4v518c0,9.5,3.9,18.2,10.1,24.4
				c6.3,6.3,14.9,10.1,24.4,10.1H1617c9.5,0,18.2-3.9,24.4-10.1c6.3-6.3,10.1-14.9,10.1-24.4v-518c0-9.5-3.9-18.2-10.1-24.4
				C1635.2,963.4,1626.5,959.6,1617,959.6z" clip-rule="evenodd" class="color1e77d1 svgShape"></path><path fill="#e3dffa" fill-rule="evenodd" d="M498.4,993.9l-0.1,0.1l0,0l-0.1,0.1v518l0.1,0.1v0l0.1,0.1H1617l0.1-0.1l0.1-0.1v-518l-0.1-0.1h0l-0.1-0.1
				H498.4L498.4,993.9z M488.7,984.5L488.7,984.5c2.5-2.5,5.9-4.1,9.7-4.1H1617c3.7,0,7.2,1.6,9.7,4l0,0c2.5,2.5,4.1,5.9,4.1,9.6
				v518c0,3.7-1.6,7.2-4,9.7c-2.5,2.5-5.9,4-9.7,4H498.4c-3.7,0-7.2-1.6-9.6-4.1l0,0c-2.5-2.5-4-5.9-4-9.7v-518
				C484.7,990.4,486.2,987,488.7,984.5z" clip-rule="evenodd" class="colordfedfa svgShape"></path><path fill="#361ed1" fill-rule="evenodd" d="M1696.6,1119h26.8c7,0,13.4,2.9,18,7.5c4.6,4.6,7.5,11,7.5,18v217.2c0,7-2.9,13.4-7.5,18
				c-4.6,4.6-11,7.5-18,7.5h-26.8c-7,0-13.4-2.9-18-7.5c-4.6-4.6-7.5-11-7.5-18v-217.2c0-7,2.9-13.4,7.5-18
				C1683.2,1121.9,1689.6,1119,1696.6,1119L1696.6,1119z M1723.4,1132.5h-26.8c-3.3,0-6.3,1.4-8.5,3.5c-2.2,2.2-3.5,5.2-3.5,8.5
				v217.2c0,3.3,1.4,6.3,3.5,8.5c2.2,2.2,5.2,3.5,8.5,3.5h26.8c3.3,0,6.3-1.4,8.5-3.5c2.2-2.2,3.5-5.2,3.5-8.5v-217.2
				c0-3.3-1.4-6.3-3.5-8.5C1729.7,1133.9,1726.7,1132.5,1723.4,1132.5z" clip-rule="evenodd" class="color1e77d1 svgShape"></path><rect width="139" height="475.1" x="518.2" y="1015.6" fill="#b0a4fc" fill-rule="evenodd" clip-rule="evenodd" class="colora4d0fc svgShape"></rect><rect width="139" height="475.1" x="682.7" y="1015.6" fill="#c4bbfa" fill-rule="evenodd" clip-rule="evenodd" class="colorbbdbfa svgShape"></rect><rect width="139" height="475.1" x="848.1" y="1015.6" fill="#cac3fa" fill-rule="evenodd" clip-rule="evenodd" class="colorc3dffa svgShape"></rect><polygon fill="#b3a8fb" fill-rule="evenodd" points="1536.9 1209.6 1250.2 1156.3 1286.7 1265.2 1048.7 1298.5 1387 1350 1343.4 1234.8" clip-rule="evenodd" class="colorfbbfa8 svgShape"></polygon><path fill="#b3a8fb" fill-rule="evenodd" d="M771.5,1097.7l-177.7,164.5l-210.1-226.9l177.7-164.5c76.1-70.5,166.7-112.3,243.6-137
			c86.8-27.8,156.1-33.9,167.9-34.7l1-0.1l0.7,0c0,0-10,73.6-47.7,166C896.4,939.8,847.7,1027.1,771.5,1097.7z" clip-rule="evenodd" class="colorfbbfa8 svgShape"></path><path fill="#e1dcff" fill-rule="evenodd" d="M704.7,1025.6L527,1190.1l-77.4-83.6L627.3,942c69.1-64,139.3-116.3,198.3-155.6
			c79.1-52.8,138-82.7,147.3-87.3l1.3-0.6l-0.3,0.5c-3.4,5.9-38.1,63.6-98.9,141C831.2,895.7,773.7,961.6,704.7,1025.6z" clip-rule="evenodd" class="colorffe2dc svgShape"></path><path fill="#8674fc" fill-rule="evenodd" d="M926.9,864.9c-18.2-5.1-35.8-13.5-51.9-25c-9.7-6.9-18.9-14.9-27.3-24c-8.6-9.3-15.9-19.1-22-29.5
			c-10-16.6-16.8-34.4-20.6-52.6c86.8-27.8,156.1-33.9,167.9-34.7l1.3-0.6l-0.3,0.5l0.7,0C974.6,698.9,964.6,772.5,926.9,864.9z" clip-rule="evenodd" class="colorfc9774 svgShape"></path><path fill="#b3a8fb" fill-rule="evenodd" d="M874.9,839.9c-9.7-6.9-18.9-14.9-27.3-24c-8.6-9.3-15.9-19.1-22-29.5c79.1-52.8,138-82.7,147.3-87.3l1.3-0.6
			l-0.3,0.5C970.4,704.8,935.7,762.6,874.9,839.9z" clip-rule="evenodd" class="colorfbbfa8 svgShape"></path><path fill="#f1effc" fill-rule="evenodd" d="M793.4,973.2c-31,28.7-79.4,26.8-108.1-4.2c-28.7-31-26.8-79.4,4.2-108c31-28.7,79.4-26.8,108,4.2
			C826.2,896.1,824.4,944.5,793.4,973.2z" clip-rule="evenodd" class="coloreff9fc svgShape"></path><path fill="#8674fc" fill-rule="evenodd" d="M787.3,874.5c-23.4-25.3-63.1-26.8-88.4-3.4c-25.3,23.4-26.8,63.1-3.4,88.4c23.4,25.3,63.1,26.8,88.4,3.4
			C809.3,939.5,810.8,899.9,787.3,874.5L787.3,874.5z M675.1,978.4c-33.8-36.6-31.6-93.8,4.9-127.7c36.6-33.8,93.8-31.6,127.7,4.9
			c33.9,36.6,31.6,93.8-4.9,127.7C766.3,1017.2,709,1015,675.1,978.4z" clip-rule="evenodd" class="colorfc9774 svgShape"></path><path fill="#fefefe" fill-rule="evenodd" d="M785.5,942c-12.4,11.5-31.7,10.7-43.2-1.7c-11.5-12.4-10.7-31.7,1.7-43.2c12.4-11.5,31.7-10.7,43.2,1.7
			C798.6,911.2,797.9,930.5,785.5,942z" clip-rule="evenodd" class="colorfefefe svgShape"></path><path fill="#8674fc" fill-rule="evenodd" d="M622.7,1301.2c78.2-72.5,127.2-146.7,109.5-165.8c-17.7-19.1-95.4,24.1-173.7,96.5L622.7,1301.2z" clip-rule="evenodd" class="colorfc9774 svgShape"></path><path fill="#b3a8fb" fill-rule="evenodd" d="M605.3,1282.3c78.2-72.5,135.1-138.2,127-146.9c-8.1-8.7-77.9,42.9-156.3,115.3L605.3,1282.3z" clip-rule="evenodd" class="colorfbbfa8 svgShape"></path><polygon fill="#b3a8fb" fill-rule="evenodd" points="557 1241.9 507.3 1320.5 531.8 1308.7 508.5 1350.2 549 1327.3 536.3 1351.8 612.6 1301.9" clip-rule="evenodd" class="colorfbbfa8 svgShape"></polygon><polygon fill="#e1dcff" fill-rule="evenodd" points="564.3 1249.8 527.7 1307.7 545.8 1299 528.6 1329.6 558.4 1312.7 549 1330.7 605.3 1294" clip-rule="evenodd" class="colorffe2dc svgShape"></polygon><path fill="#8674fc" fill-rule="evenodd" d="M472.6,1248.4c103-95.5,167.5-193.2,144.2-218.3c-23.3-25.2-125.6,31.7-228.8,127L472.6,1248.4z" clip-rule="evenodd" class="colorfc9774 svgShape"></path><path fill="#b3a8fb" fill-rule="evenodd" d="M449.6,1223.6c103-95.5,177.8-182,167.2-193.5c-10.6-11.5-102.7,56.5-205.8,151.8L449.6,1223.6z" clip-rule="evenodd" class="colorfbbfa8 svgShape"></path><polygon fill="#b3a8fb" fill-rule="evenodd" points="386 1170.3 320.7 1273.9 352.9 1258.4 322.2 1313 375.5 1282.8 358.8 1315 459.2 1249.4" clip-rule="evenodd" class="colorfbbfa8 svgShape"></polygon><polygon fill="#e1dcff" fill-rule="evenodd" points="395.7 1180.8 347.5 1257 371.3 1245.6 348.7 1285.8 387.9 1263.6 375.6 1287.3 449.6 1239" clip-rule="evenodd" class="colorffe2dc svgShape"></polygon><path fill="#8674fc" fill-rule="evenodd" d="M412,1073.5c78.2-72.6,127.2-146.7,109.5-165.8c-17.7-19.1-95.4,24.1-173.7,96.5L412,1073.5z" clip-rule="evenodd" class="colorfc9774 svgShape"></path><path fill="#b3a8fb" fill-rule="evenodd" d="M394.5,1054.6c78.2-72.5,135-138.2,127-146.9c-8.1-8.7-78,42.9-156.3,115.3L394.5,1054.6z" clip-rule="evenodd" class="colorfbbfa8 svgShape"></path><polygon fill="#b3a8fb" fill-rule="evenodd" points="346.2 1014.2 296.5 1092.8 321 1081.1 297.7 1122.6 338.2 1099.6 325.5 1124.1 401.8 1074.3" clip-rule="evenodd" class="colorfbbfa8 svgShape"></polygon><polygon fill="#e1dcff" fill-rule="evenodd" points="353.5 1022.1 316.9 1080 335 1071.4 317.8 1101.9 347.6 1085 338.3 1103.1 394.5 1066.4" clip-rule="evenodd" class="colorffe2dc svgShape"></polygon><g fill="#000000" class="color000000 svgShape"><path fill="#f7f7f7" fill-rule="evenodd" d="M1221.6,471.8c123.4-4.4,227.1,92,231.5,215.5c4.4,123.4-92,227.1-215.4,231.5
			c-123.4,4.4-227.1-92-231.5-215.4C1001.7,579.9,1098.2,476.2,1221.6,471.8z" clip-rule="evenodd" class="colorf7f7f7 svgShape"></path><path fill="#c8c0fa" fill-rule="evenodd" d="M1225.7,586c30.2-1.1,57.9,10.2,78.4,29.2c20.5,19.1,33.7,45.9,34.8,76.1c1.1,30.2-10.2,57.9-29.2,78.4
				c-19.1,20.5-45.9,33.7-76.1,34.8c-30.2,1.1-57.9-10.2-78.4-29.2c-20.5-19.1-33.7-45.9-34.8-76.1c-1.1-30.2,10.2-57.9,29.2-78.4
				C1168.7,600.3,1195.5,587.1,1225.7,586L1225.7,586z M1302.3,617.2c-20-18.6-47.1-29.6-76.5-28.5c-29.4,1.1-55.6,13.9-74.2,33.9
				s-29.6,47.1-28.5,76.5c1.1,29.4,13.9,55.6,33.9,74.2c20,18.6,47.1,29.6,76.5,28.5c29.4-1.1,55.6-13.9,74.2-33.9
				c18.6-20,29.6-47.1,28.5-76.5C1335.2,662,1322.3,635.8,1302.3,617.2z" clip-rule="evenodd" class="colorc0ddfa svgShape"></path><path fill="#c8c0fa" fill-rule="evenodd" d="M1225.1,568.4c70.1-2.5,128.9,52.2,131.4,122.3c1.3,35-11.8,67.3-33.9,91c-22.1,23.8-53.3,39.1-88.4,40.4
				c-35,1.3-67.3-11.8-91-33.9c-23.8-22.1-39.1-53.3-40.4-88.4C1100.2,629.7,1155,570.9,1225.1,568.4L1225.1,568.4z M1353.8,690.8
				c-2.5-68.6-60.1-122.2-128.7-119.7c-68.6,2.5-122.2,60.1-119.7,128.7c1.2,34.3,16.2,64.9,39.5,86.5
				c23.3,21.7,54.8,34.5,89.1,33.2c34.3-1.2,64.8-16.2,86.5-39.5C1342.3,756.6,1355.1,725.1,1353.8,690.8z" clip-rule="evenodd" class="colorc0ddfa svgShape"></path><rect width="2.4" height="15.8" x="1224.2" y="570.6" fill="#c8c0fa" fill-rule="evenodd" clip-rule="evenodd" transform="rotate(-2.05 1225.464 578.61) scale(1.00004)" class="colorc0ddfa svgShape"></rect><rect width="15.8" height="2.4" x="1276.5" y="590.9" fill="#c8c0fa" fill-rule="evenodd" clip-rule="evenodd" transform="rotate(-62.077 1284.257 592.068)" class="colorc0ddfa svgShape"></rect><rect width="15.8" height="2.4" x="1320.7" y="632.1" fill="#c8c0fa" fill-rule="evenodd" clip-rule="evenodd" transform="rotate(-32.067 1328.578 633.27)" class="colorc0ddfa svgShape"></rect><rect width="15.8" height="2.4" x="1338.4" y="689.9" fill="#c8c0fa" fill-rule="evenodd" clip-rule="evenodd" transform="rotate(-2.05 1346.384 691.123) scale(1.00004)" class="colorc0ddfa svgShape"></rect><rect width="2.4" height="15.8" x="1331.6" y="742.1" fill="#c8c0fa" fill-rule="evenodd" clip-rule="evenodd" transform="rotate(-62.07 1332.78 750.003)" class="colorc0ddfa svgShape"></rect><rect width="2.4" height="15.8" x="1290.4" y="786.3" fill="#c8c0fa" fill-rule="evenodd" clip-rule="evenodd" transform="rotate(-32.031 1291.499 794.182)" class="colorc0ddfa svgShape"></rect><rect width="2.4" height="15.8" x="1232.6" y="804.1" fill="#c8c0fa" fill-rule="evenodd" clip-rule="evenodd" transform="matrix(.9994 -.03597 .03597 .9994 -28.412 44.912)" class="colorc0ddfa svgShape"></rect><rect width="15.8" height="2.4" x="1167" y="797.2" fill="#c8c0fa" fill-rule="evenodd" clip-rule="evenodd" transform="rotate(-62.07 1174.877 798.445)" class="colorc0ddfa svgShape"></rect><rect width="15.8" height="2.4" x="1122.7" y="756" fill="#c8c0fa" fill-rule="evenodd" clip-rule="evenodd" transform="rotate(-32.038 1130.772 757.245)" class="colorc0ddfa svgShape"></rect><rect width="15.8" height="2.4" x="1105" y="698.2" fill="#c8c0fa" fill-rule="evenodd" clip-rule="evenodd" transform="matrix(.9994 -.03597 .03597 .9994 -24.442 40.49)" class="colorc0ddfa svgShape"></rect><rect width="2.4" height="15.8" x="1125.3" y="632.6" fill="#c8c0fa" fill-rule="evenodd" clip-rule="evenodd" transform="rotate(-62.061 1126.52 640.559)" class="colorc0ddfa svgShape"></rect><rect width="2.4" height="15.8" x="1166.4" y="588.4" fill="#c8c0fa" fill-rule="evenodd" clip-rule="evenodd" transform="rotate(-32.067 1167.61 596.272)" class="colorc0ddfa svgShape"></rect><path fill="#c8c0fa" fill-rule="evenodd" d="M1223.2,516.2c49.5-1.8,94.9,16.7,128.5,47.9c33.6,31.2,55.2,75.3,57,124.7c1.8,49.5-16.7,94.9-47.9,128.5
				c-31.2,33.6-75.3,55.2-124.7,57c-49.5,1.8-94.9-16.7-128.5-47.9c-33.6-31.2-55.2-75.3-57-124.7c-1.8-49.5,16.7-94.9,47.9-128.5
				C1129.7,539.6,1173.8,517.9,1223.2,516.2L1223.2,516.2z M1350.8,565.1c-33.3-31-78.5-49.3-127.6-47.5
				c-49.1,1.8-92.8,23.3-123.8,56.6c-31,33.3-49.3,78.5-47.5,127.6c1.8,49.1,23.3,92.8,56.6,123.8c33.3,31,78.5,49.3,127.6,47.5
				c49.1-1.8,92.8-23.3,123.8-56.6c31-33.3,49.3-78.5,47.5-127.6C1405.6,639.8,1384.1,596.1,1350.8,565.1z" clip-rule="evenodd" class="colorc0ddfa svgShape"></path><path fill="#c8c0fa" fill-rule="evenodd" d="M1222.9,507.4c51.9-1.9,99.6,17.5,134.8,50.3c35.2,32.8,57.9,79,59.8,130.9c1.9,51.9-17.5,99.6-50.3,134.8
				c-32.8,35.2-79,57.9-130.9,59.8c-51.9,1.9-99.6-17.5-134.8-50.3c-35.2-32.8-57.9-79-59.8-130.9c-1.9-51.9,17.5-99.6,50.3-134.8
				C1124.8,531.9,1171,509.2,1222.9,507.4L1222.9,507.4z M1356.8,558.6c-35-32.5-82.4-51.8-133.9-49.9c-51.5,1.8-97.4,24.4-130,59.4
				c-32.5,35-51.8,82.4-49.9,133.9c1.8,51.5,24.4,97.4,59.4,130c35,32.5,82.4,51.8,133.9,49.9c51.5-1.8,97.4-24.4,130-59.4
				c32.5-35,51.8-82.4,49.9-133.9C1414.3,637,1391.8,591.1,1356.8,558.6z" clip-rule="evenodd" class="colorc0ddfa svgShape"></path><path fill="#988be9" fill-rule="evenodd" d="M1368.8 675.4c.3 0 1.1 0 2.1.1.8 0 1.5 0 1.9 0l4.5-.4c.4 0 .6.2.6.6 0 .4-.2.6-.5.6-.8.1-1.3.4-1.5.7-.3.3-.4 1.1-.5 2.2-.1 1.2-.1 3.7.1 7.8.2 4.6.3 8.2.5 10.8.2 2.5.4 4.1.8 4.7.3.6.8.9 1.5.8.5 0 .7.2.7.6 0 .5-.2.8-.8.8-.1 0-.4 0-.6 0-1.9-.1-3.1-.2-3.8-.2-1.5.1-2.6.2-3.3.3-.4.1-.6.1-.8.1-.4 0-.6-.2-.6-.6 0-.3.1-.5.4-.6.8-.2 1.4-.6 1.6-1.1.3-.5.4-1.8.4-3.9 0-2-.1-5.2-.3-9.5-.2-4.5-.3-7.6-.5-9.1-.2-1.5-.4-2.5-.6-2.8-.3-.3-.7-.5-1.5-.6-.4 0-.6-.3-.6-.7C1368.3 675.7 1368.5 675.5 1368.8 675.4L1368.8 675.4zM1380.5 675c.3 0 1.1 0 2.1.1.8 0 1.5 0 1.9 0l4.5-.4c.4 0 .6.2.6.6 0 .4-.1.6-.5.6-.8.1-1.3.4-1.5.7-.2.3-.4 1.1-.5 2.2-.1 1.2-.1 3.7.1 7.8.2 4.6.3 8.2.5 10.8.2 2.5.4 4.1.8 4.7.3.6.8.9 1.5.8.5 0 .7.2.8.6 0 .5-.2.8-.8.8-.1 0-.4 0-.6 0-1.9-.1-3.1-.2-3.8-.2-1.5.1-2.6.2-3.3.3-.4.1-.6.1-.8.1-.4 0-.6-.2-.6-.6 0-.3.1-.5.4-.6.8-.2 1.4-.6 1.6-1.1.3-.5.4-1.8.4-3.9 0-2.1-.1-5.2-.3-9.5-.2-4.5-.3-7.6-.5-9.1-.2-1.5-.4-2.5-.6-2.8-.3-.3-.7-.5-1.4-.6-.4 0-.6-.3-.6-.7C1379.9 675.2 1380.1 675 1380.5 675L1380.5 675zM1392.1 674.6c.3 0 1.1 0 2.1.1.8 0 1.5 0 1.9 0l4.5-.4c.4 0 .6.2.6.6 0 .4-.2.6-.5.6-.8.1-1.3.4-1.5.7-.2.3-.4 1.1-.5 2.2-.1 1.2-.1 3.7.1 7.8.2 4.6.3 8.2.5 10.8.2 2.5.4 4.1.8 4.7.3.6.8.9 1.5.8.5 0 .7.2.7.6 0 .5-.2.8-.8.8-.1 0-.4 0-.6 0-1.9-.1-3.1-.2-3.8-.2-1.5.1-2.6.2-3.3.3-.4.1-.6.1-.8.1-.4 0-.6-.2-.6-.6 0-.3.1-.5.4-.6.8-.2 1.4-.6 1.6-1.1.3-.5.4-1.8.4-3.9 0-2-.1-5.2-.3-9.5-.2-4.5-.3-7.6-.5-9.1-.2-1.5-.4-2.5-.6-2.8-.3-.3-.7-.5-1.5-.6-.4 0-.6-.3-.6-.7C1391.5 674.8 1391.7 674.6 1392.1 674.6zM1230.8 866.1l-1.2 0-3.1-10.5c-.8-2.6-1.7-5.9-2.9-9.7-1.2-3.8-1.9-6-2.2-6.7-.3-.6-.6-1-.9-1.2-.2-.2-.6-.3-1.1-.4-.3 0-.5-.2-.5-.6 0-.4.2-.6.5-.7l4 .1c1.4 0 2.8-.2 4.1-.3.4 0 .6-.1.7-.1.5 0 .7.2.7.7 0 .3-.2.5-.6.6-1.1.2-1.6 1-1.6 2.3.1 2.3 1.6 8.3 4.5 18.1.7-3.3 1.4-6.6 2.1-9.9l1.2-6.1c.1-.7.2-1.5.2-2.1 0-.7-.2-1.3-.5-1.8-.3-.5-.7-.7-1.1-.7-.5 0-.7-.2-.7-.6 0-.5.2-.7.5-.7.3 0 .6 0 1 0 .8.1 1.6.1 2.3.1.7 0 1.3-.1 1.9-.2.4-.1.7-.1 1-.1.3 0 .5.2.5.7 0 .4-.1.6-.5.7-.5.1-1 .4-1.3.8-.4.4-.7 1.1-1 2-.3.9-.8 3-1.6 6.3l-2.2 10.2C1231.9 861.5 1231.1 864.7 1230.8 866.1L1230.8 866.1zM1241.3 835.9c.3 0 1.1 0 2.1.1.8 0 1.5 0 1.9 0l4.5-.4c.4 0 .6.2.6.6 0 .4-.2.6-.5.6-.8.2-1.3.4-1.5.7-.2.3-.4 1.1-.5 2.2-.1 1.2-.1 3.7.1 7.8.2 4.6.3 8.2.5 10.8.2 2.5.4 4.1.8 4.7.3.6.8.9 1.5.8.5 0 .7.2.7.6 0 .5-.2.8-.8.8-.1 0-.4 0-.6 0-1.9-.1-3.1-.2-3.8-.2-1.5.1-2.6.2-3.3.3-.4.1-.6.1-.8.1-.4 0-.6-.2-.6-.6 0-.3.1-.5.4-.6.8-.2 1.4-.6 1.6-1.1.3-.5.4-1.8.4-3.9 0-2.1-.1-5.2-.3-9.5-.2-4.5-.3-7.6-.5-9.1-.2-1.5-.4-2.5-.6-2.8-.3-.3-.7-.5-1.4-.6-.4 0-.6-.3-.6-.7C1240.8 836.1 1240.9 835.9 1241.3 835.9zM1213 535.8c2-4 3-6.5 2.9-7.5 0-.5-.1-.9-.4-1.2-.2-.3-.7-.5-1.4-.7-.3-.1-.5-.3-.5-.7 0-.4.2-.6.5-.6.2 0 .6 0 1.1.1.7.1 1.4.1 1.9.1.7 0 1.6-.1 2.8-.3.5-.1.9-.1 1-.1.5 0 .7.2.7.6 0 .4-.2.6-.5.6-.7.1-1.3.4-2 1-.7.6-1.3 1.4-1.8 2.4-.5 1-1.8 3.6-3.7 7.6 1.2 2.8 2.6 5.8 4.2 8.9 1.6 3.1 2.8 5 3.5 5.8.8.7 1.4 1.1 2 1.2.5.1.7.3.7.6 0 .4-.2.6-.7.6l-5.4 0c-.7 0-1.4.1-2.1.2-.6.1-1 .1-1.2.1-.4 0-.7 0-.8 0-.1 0-.3 0-.3.1-.3 0-.4-.2-.4-.6 0-.4.1-.6.5-.6 1.1-.2 1.6-.8 1.5-1.7 0-1.1-1.4-4.2-3.9-9.2-2.4 5.1-3.6 8.1-3.5 9.1 0 1 .8 1.7 2.4 2 .3.1.5.2.5.5 0 .4-.2.7-.5.7-.2 0-.6 0-1.3-.1-.9-.1-1.7-.1-2.6 0-.8 0-1.5.1-1.9.2-.6.1-1 .2-1.2.2-.6 0-.9-.2-.9-.6 0-.3.1-.5.4-.6.9-.2 1.6-.6 2.1-1 .5-.5 1.1-1.4 1.8-2.9.7-1.4 2-4.3 4-8.7-2.7-6-4.6-9.8-5.6-11.5-1-1.6-2.1-2.6-3.2-2.8-.4-.1-.6-.3-.6-.7 0-.4.2-.6.5-.7.2 0 .4 0 .8.1.6.1 2 .1 4.1 0 .9 0 1.9-.1 3.2-.2.7-.1 1.2-.1 1.3-.1.5 0 .8.2.8.6 0 .4-.2.6-.6.7-.2 0-.6.2-1 .4-.4.2-.6.6-.6 1 0 .4.2 1.1.7 2.2C1210.8 531.2 1211.7 533.1 1213 535.8L1213 535.8zM1225 524.7c.3 0 1.1 0 2.1.1.8 0 1.5 0 1.9 0l4.5-.4c.4 0 .6.2.6.6 0 .4-.2.6-.5.6-.8.1-1.3.4-1.5.7-.3.3-.4 1.1-.5 2.2-.1 1.2-.1 3.7.1 7.8.2 4.6.3 8.2.5 10.8.2 2.5.4 4.1.8 4.7s.8.9 1.5.8c.5 0 .7.2.7.6 0 .5-.2.8-.8.8-.1 0-.4 0-.7 0-1.9-.1-3.1-.2-3.8-.2-1.5.1-2.6.2-3.3.3-.4.1-.6.1-.8.1-.4 0-.6-.2-.6-.6 0-.3.1-.5.4-.6.8-.2 1.4-.6 1.6-1.1.3-.5.4-1.8.4-3.9 0-2-.1-5.2-.3-9.5-.2-4.5-.3-7.6-.5-9.1-.2-1.5-.4-2.5-.6-2.8-.3-.3-.7-.5-1.5-.6-.4 0-.6-.3-.6-.7C1224.5 524.9 1224.6 524.7 1225 524.7L1225 524.7zM1236.6 524.3c.3 0 1.1 0 2.1.1.8 0 1.5 0 1.9 0l4.5-.4c.4 0 .6.2.6.6 0 .4-.2.6-.5.6-.8.1-1.3.4-1.5.7-.3.3-.4 1.1-.5 2.2-.1 1.2-.1 3.7.1 7.8.2 4.6.3 8.2.5 10.8.2 2.5.4 4.1.8 4.7.3.6.8.9 1.5.8.5 0 .7.2.7.6 0 .5-.2.8-.8.8-.1 0-.4 0-.6 0-1.9-.1-3.1-.2-3.8-.2-1.5.1-2.6.2-3.3.3-.4.1-.6.1-.8.1-.4 0-.6-.2-.6-.6 0-.3.1-.5.4-.6.8-.2 1.4-.6 1.6-1.1.3-.5.4-1.8.4-3.9 0-2-.1-5.2-.3-9.5-.2-4.5-.3-7.6-.5-9.1-.2-1.5-.4-2.5-.6-2.8-.3-.3-.7-.5-1.5-.6-.4 0-.6-.3-.6-.7C1236.1 524.5 1236.3 524.3 1236.6 524.3zM1057.5 686.6c.3 0 1.1 0 2.1.1.8 0 1.5 0 1.9 0l4.5-.4c.4 0 .6.2.6.6 0 .4-.2.6-.5.6-.8.1-1.3.4-1.5.7-.2.3-.4 1.1-.5 2.2-.1 1.2-.1 3.7.1 7.8.2 4.6.3 8.2.5 10.8.2 2.5.4 4.1.8 4.7.3.6.8.9 1.5.8.5 0 .7.2.7.6 0 .5-.2.8-.8.8-.1 0-.4 0-.6 0-1.9-.1-3.1-.2-3.8-.2-1.5.1-2.6.2-3.3.3-.4.1-.6.1-.8.1-.4 0-.6-.2-.6-.6 0-.3.1-.5.4-.6.8-.2 1.4-.6 1.6-1.1.3-.5.4-1.8.4-3.9 0-2.1-.1-5.2-.3-9.5-.2-4.5-.3-7.6-.5-9.1-.2-1.5-.4-2.5-.6-2.8-.3-.3-.7-.5-1.4-.6-.4 0-.6-.3-.6-.7C1057 686.8 1057.2 686.6 1057.5 686.6L1057.5 686.6zM1079.8 696.5c2-4 3-6.5 2.9-7.5 0-.5-.1-.9-.4-1.2-.2-.3-.7-.5-1.4-.7-.3-.1-.5-.3-.5-.7 0-.4.2-.6.5-.6.2 0 .6 0 1.1.1.7.1 1.4.1 1.9.1.7 0 1.6-.1 2.8-.3.5-.1.9-.1 1-.1.5 0 .7.2.7.6 0 .4-.2.6-.5.6-.7.1-1.3.4-2 1-.7.6-1.3 1.4-1.8 2.4-.5 1-1.8 3.6-3.7 7.6 1.2 2.8 2.6 5.8 4.2 8.9 1.6 3.1 2.8 5 3.5 5.8.8.7 1.4 1.1 2 1.2.5.1.7.3.7.6 0 .4-.2.6-.7.6l-5.4 0c-.7 0-1.4.1-2.1.2-.6.1-1 .1-1.2.1-.4 0-.7 0-.8 0-.1 0-.3 0-.3 0-.3 0-.4-.2-.4-.6 0-.4.1-.6.5-.6 1.1-.2 1.6-.8 1.5-1.7 0-1.1-1.4-4.2-3.9-9.2-2.4 5.1-3.6 8.1-3.5 9.1 0 1 .8 1.7 2.4 2 .3.1.5.2.5.5 0 .4-.2.7-.5.7-.2 0-.6 0-1.3-.1-.9-.1-1.7-.1-2.6 0-.8 0-1.5.1-1.9.2-.6.1-1 .2-1.2.2-.6 0-.9-.2-.9-.6 0-.3.1-.5.4-.6.9-.2 1.6-.6 2.1-1 .5-.5 1.1-1.4 1.8-2.9.7-1.4 2-4.3 4-8.7-2.7-6-4.6-9.8-5.6-11.5-1-1.6-2.1-2.6-3.2-2.8-.4-.1-.6-.3-.6-.7 0-.4.2-.6.5-.7.2 0 .4 0 .8.1.6.1 2 .1 4.1 0 .9 0 1.9-.1 3.2-.2.7-.1 1.2-.1 1.3-.1.5 0 .8.2.8.6 0 .4-.2.6-.6.7-.2 0-.6.2-1 .4-.4.2-.6.6-.6 1 0 .4.2 1.1.7 2.2C1077.6 691.8 1078.5 693.7 1079.8 696.5zM1306.1 550.9L1306.1 550.9c.7.4 1 1.3.6 2l-7.6 14.4c-.4.7-1.3 1-2 .6l0 0c-.7-.4-1-1.3-.6-2l7.6-14.4C1304.5 550.8 1305.4 550.5 1306.1 550.9zM1367.9 608.4L1367.9 608.4c.4.7.2 1.6-.5 2l-13.8 8.6c-.7.4-1.6.2-2-.5l0 0c-.4-.7-.2-1.6.5-2l13.8-8.6C1366.6 607.6 1367.5 607.8 1367.9 608.4zM1373.8 771.6L1373.8 771.6c-.4.7-1.3 1-2 .6l-14.4-7.6c-.7-.4-1-1.3-.6-2l0 0c.4-.7 1.3-1 2-.6l14.4 7.6C1373.9 770 1374.2 770.9 1373.8 771.6zM1316.3 833.4L1316.3 833.4c-.7.4-1.6.2-2-.5l-8.6-13.8c-.4-.7-.2-1.6.5-2l0 0c.7-.4 1.6-.2 2 .5l8.6 13.8C1317.1 832.1 1316.9 833 1316.3 833.4zM1153.1 839.3L1153.1 839.3c-.7-.4-1-1.3-.6-2l7.6-14.4c.4-.7 1.3-1 2-.6l0 0c.7.4 1 1.3.6 2l-7.6 14.4C1154.7 839.4 1153.8 839.7 1153.1 839.3zM1091.3 781.8L1091.3 781.8c-.4-.7-.2-1.6.5-2l13.8-8.6c.7-.4 1.6-.2 2 .5l0 0c.4.7.2 1.6-.5 2l-13.8 8.6C1092.6 782.6 1091.7 782.4 1091.3 781.8zM1085.4 618.6L1085.4 618.6c.4-.7 1.3-1 2-.6l14.4 7.6c.7.4 1 1.3.6 2h0c-.4.7-1.3 1-2 .6l-14.4-7.6C1085.3 620.2 1085 619.3 1085.4 618.6zM1142.9 556.8L1142.9 556.8c.7-.4 1.6-.2 2 .5l8.6 13.8c.4.7.2 1.6-.5 2l0 0c-.7.4-1.6.2-2-.5l-8.6-13.8C1142.1 558.1 1142.3 557.2 1142.9 556.8z" clip-rule="evenodd" class="color8bbae9 svgShape"></path><path fill="#a599f2" fill-rule="evenodd" d="M1040,702.1c-3.8-104.7,78.1-192.7,182.8-196.5c44.3-1.6,85.7,12.2,118.9,36.5
			c45.2,33.1,75.4,85.9,77.6,146.4c2.2,60.4-24.1,115.2-66.9,151.5c-31.4,26.6-71.6,43.3-115.9,44.9
			C1131.7,888.7,1043.7,806.8,1040,702.1L1040,702.1z M1340.5,508.8c-34.6-20.6-75.4-31.9-118.6-30.3
			c-119.7,4.3-213.3,104.8-209,224.5c4.3,119.7,104.8,213.3,224.5,209c43.3-1.6,83.1-15.7,116.2-38.7
			c58.4-40.7,95.5-109.3,92.8-185.8C1443.6,611,1401.6,545.3,1340.5,508.8z" clip-rule="evenodd" class="color99c5f2 svgShape"></path><path fill="#988be9" fill-rule="evenodd" d="M1011.5,703.1c-4.3-120.5,89.8-221.7,210.3-226c120.5-4.3,221.7,89.8,226,210.3
			c4.3,120.5-89.8,221.7-210.3,226C1117,917.7,1015.8,823.6,1011.5,703.1L1011.5,703.1z M1455.4,687.1
			c-4.5-124.7-109.2-222.1-233.9-217.7c-124.7,4.5-222.1,109.2-217.7,233.9c4.5,124.7,109.2,222.1,233.9,217.7
			C1362.4,916.5,1459.9,811.8,1455.4,687.1z" clip-rule="evenodd" class="color8bbae9 svgShape"></path><rect width="1.2" height="8.8" x="1222.5" y="508.1" fill="#c8c0fa" fill-rule="evenodd" clip-rule="evenodd" transform="matrix(.9994 -.03566 .03566 .9994 -17.496 43.935)" class="colorc0ddfa svgShape"></rect><rect width="8.8" height="1.2" x="1266.1" y="516.4" fill="#c8c0fa" fill-rule="evenodd" clip-rule="evenodd" transform="rotate(-77.091 1270.638 517.036)" class="colorc0ddfa svgShape"></rect><rect width="8.8" height="1.2" x="1310.8" y="533.1" fill="#c8c0fa" fill-rule="evenodd" clip-rule="evenodd" transform="rotate(-62.018 1315.303 533.685)" class="colorc0ddfa svgShape"></rect><rect width="8.8" height="1.2" x="1349.7" y="560.8" fill="#c8c0fa" fill-rule="evenodd" clip-rule="evenodd" transform="rotate(-47.055 1354.058 561.377)" class="colorc0ddfa svgShape"></rect><rect width="8.8" height="1.2" x="1380.1" y="597.6" fill="#c8c0fa" fill-rule="evenodd" clip-rule="evenodd" transform="rotate(-32.067 1384.603 598.181)" class="colorc0ddfa svgShape"></rect><rect width="8.8" height="1.2" x="1399.9" y="640.9" fill="#c8c0fa" fill-rule="evenodd" clip-rule="evenodd" transform="rotate(-17.067 1404.39 641.56)" class="colorc0ddfa svgShape"></rect><rect width="8.8" height="1.2" x="1407.8" y="688" fill="#c8c0fa" fill-rule="evenodd" clip-rule="evenodd" transform="rotate(-2.129 1412.161 688.59) scale(.99999)" class="colorc0ddfa svgShape"></rect><rect width="1.2" height="8.8" x="1407.1" y="731.6" fill="#c8c0fa" fill-rule="evenodd" clip-rule="evenodd" transform="rotate(-77.038 1407.653 736.079)" class="colorc0ddfa svgShape"></rect><rect width="1.2" height="8.8" x="1390.4" y="776.3" fill="#c8c0fa" fill-rule="evenodd" clip-rule="evenodd" transform="rotate(-62.07 1391.008 780.764)" class="colorc0ddfa svgShape"></rect><rect width="1.2" height="8.8" x="1362.7" y="815.2" fill="#c8c0fa" fill-rule="evenodd" clip-rule="evenodd" transform="rotate(-47.014 1363.366 819.62)" class="colorc0ddfa svgShape"></rect><rect width="1.2" height="8.8" x="1326" y="845.6" fill="#c8c0fa" fill-rule="evenodd" clip-rule="evenodd" transform="rotate(-32.027 1326.423 849.954)" class="colorc0ddfa svgShape"></rect><rect width="1.2" height="8.8" x="1282.6" y="865.4" fill="#c8c0fa" fill-rule="evenodd" clip-rule="evenodd" transform="rotate(-17.127 1283.035 869.708)" class="colorc0ddfa svgShape"></rect><rect width="1.2" height="8.8" x="1235.5" y="873.3" fill="#c8c0fa" fill-rule="evenodd" clip-rule="evenodd" transform="matrix(.9994 -.03567 .03567 .9994 -30.523 44.656)" class="colorc0ddfa svgShape"></rect><rect width="8.8" height="1.2" x="1184.2" y="872.6" fill="#c8c0fa" fill-rule="evenodd" clip-rule="evenodd" transform="rotate(-77.091 1188.732 873.177)" class="colorc0ddfa svgShape"></rect><rect width="8.8" height="1.2" x="1139.5" y="855.9" fill="#c8c0fa" fill-rule="evenodd" clip-rule="evenodd" transform="rotate(-62.036 1143.962 856.524)" class="colorc0ddfa svgShape"></rect><rect width="8.8" height="1.2" x="1100.7" y="828.2" fill="#c8c0fa" fill-rule="evenodd" clip-rule="evenodd" transform="rotate(-47.07 1105.167 828.828)" class="colorc0ddfa svgShape"></rect><rect width="8.8" height="1.2" x="1070.3" y="791.5" fill="#c8c0fa" fill-rule="evenodd" clip-rule="evenodd" transform="rotate(-32.027 1074.629 792.03)" class="colorc0ddfa svgShape"></rect><rect width="8.8" height="1.2" x="1050.5" y="748.1" fill="#c8c0fa" fill-rule="evenodd" clip-rule="evenodd" transform="rotate(-17.067 1055.004 748.696)" class="colorc0ddfa svgShape"></rect><rect width="8.8" height="1.2" x="1042.6" y="701" fill="#c8c0fa" fill-rule="evenodd" clip-rule="evenodd" transform="matrix(.9994 -.03566 .03566 .9994 -24.351 37.778)" class="colorc0ddfa svgShape"></rect><rect width="1.2" height="8.8" x="1050.9" y="649.7" fill="#c8c0fa" fill-rule="evenodd" clip-rule="evenodd" transform="rotate(-77.009 1051.552 654.145)" class="colorc0ddfa svgShape"></rect><rect width="1.2" height="8.8" x="1067.6" y="605" fill="#c8c0fa" fill-rule="evenodd" clip-rule="evenodd" transform="rotate(-62.107 1068.293 609.47)" class="colorc0ddfa svgShape"></rect><rect width="1.2" height="8.8" x="1095.3" y="566.2" fill="#c8c0fa" fill-rule="evenodd" clip-rule="evenodd" transform="rotate(-47.014 1095.905 570.616)" class="colorc0ddfa svgShape"></rect><rect width="1.2" height="8.8" x="1132.1" y="535.8" fill="#c8c0fa" fill-rule="evenodd" clip-rule="evenodd" transform="rotate(-32.067 1132.765 540.26)" class="colorc0ddfa svgShape"></rect><rect width="1.2" height="8.8" x="1175.4" y="516" fill="#c8c0fa" fill-rule="evenodd" clip-rule="evenodd" transform="rotate(-17.04 1176.07 520.347)" class="colorc0ddfa svgShape"></rect><path fill="#f7f7f7" fill-rule="evenodd" d="M1276.6 493.7c5.6 1.4 11.2 2.9 16.6 4.7 23.4 7.7 45.3 19.4 65.6 35.2.6.5.7 1.3.2 1.9-.5.6-1.3.7-1.9.2-20-15.6-41.6-27.2-64.8-34.8-5.4-1.8-10.8-3.3-16.4-4.6L1276.6 493.7zM1132.1 877.5c-5.1-2.8-10-5.7-14.9-8.9-20.6-13.5-38.7-30.5-54.2-51-.4-.6-.3-1.4.3-1.9.6-.4 1.4-.3 1.9.3 15.3 20.3 33.1 37 53.5 50.4 4.7 3.1 9.6 6 14.6 8.7L1132.1 877.5zM1047.7 599.9c-.4.6-1.2.9-1.8.5-.6-.4-.9-1.2-.5-1.8 13.3-23 29.2-42.7 47.8-58.8 18.6-16.2 39.9-28.9 63.8-38.3.7-.3 1.5.1 1.7.8.3.7-.1 1.5-.8 1.7-23.7 9.2-44.7 21.8-63.1 37.8C1076.6 557.7 1060.8 577.1 1047.7 599.9zM1429.3 742.7c.2-.7.9-1.1 1.6-.9.7.2 1.1.9.9 1.6-7.2 25.6-17.8 48.5-31.9 68.8-14.1 20.3-31.6 37.9-52.5 52.8-.6.4-1.4.3-1.9-.3-.4-.6-.3-1.4.3-1.9 20.7-14.7 38-32.1 51.8-52.1C1411.7 790.7 1422.2 768 1429.3 742.7z" clip-rule="evenodd" class="colorf7f7f7 svgShape"></path><path fill="#cccccc" fill-rule="evenodd" d="M1233.5,688.4c4.9,1.9,7.3,7.5,5.4,12.4c-1.9,4.9-7.5,7.3-12.4,5.4c-4.9-1.9-7.3-7.5-5.4-12.4
				C1223,688.9,1228.5,686.4,1233.5,688.4z" clip-rule="evenodd" class="colorcccccc svgShape"></path><path fill="#cccccc" fill-rule="evenodd" d="M1281.8 615.6l-22.9 20.7c-11.1 10.1-10.9 13.9-17.2 27.8l-12 26.2 3.2 2.1 3.3 2 18.7-22c9.9-11.6 13.4-13 17.8-27.4L1281.8 615.6zM1338 821l-29.6-45.8c-14.4-22.3-19.7-25.1-39.2-44.4l-36.9-36.6-2.8 2.4-2.7 2.4 31.2 41.6c16.5 22 18.5 27.6 38.7 44.9L1338 821z" clip-rule="evenodd" class="colorcccccc svgShape"></path><g fill="#000000" class="color000000 svgShape"><path fill="#988be9" fill-rule="evenodd" d="M1233.1,686.4c4.9,1.9,7.3,7.5,5.4,12.4c-1.9,4.9-7.5,7.3-12.4,5.4c-4.9-1.9-7.3-7.5-5.4-12.4
				C1222.7,686.9,1228.2,684.4,1233.1,686.4z" clip-rule="evenodd" class="color8bbae9 svgShape"></path><path fill="#988be9" fill-rule="evenodd" d="M1281.5 613.6l-22.9 20.7c-11.1 10.1-10.9 13.9-17.2 27.8l-12 26.2 3.2 2.1 3.3 2 18.7-22c9.9-11.6 13.4-13 17.8-27.4L1281.5 613.6zM1337.7 819l-29.6-45.8c-14.4-22.3-19.7-25.1-39.2-44.4l-36.9-36.6-2.8 2.4-2.7 2.4 31.2 41.6c16.5 22 18.5 27.6 38.7 44.9L1337.7 819z" clip-rule="evenodd" class="color8bbae9 svgShape"></path></g></g><g fill="#000000" class="color000000 svgShape"><polygon fill="#c4bbfa" fill-rule="evenodd" points="323.2 1200.4 273.3 1240.1 294.6 1255.4" clip-rule="evenodd" class="colorbbdbfa svgShape"></polygon><polygon fill="#c4bbfa" fill-rule="evenodd" points="262.6 1233 321.5 1201.1 244.8 1229.5" clip-rule="evenodd" class="colorbbdbfa svgShape"></polygon><polygon fill="#988be9" fill-rule="evenodd" points="262.6 1233 271.6 1258.7 273.3 1240.1 323.2 1200.4 321.5 1201.1" clip-rule="evenodd" class="color8bbae9 svgShape"></polygon><polygon fill="#7764f0" fill-rule="evenodd" points="271.6 1258.7 282.7 1246.9 273.3 1240.1" clip-rule="evenodd" class="color61a0e0 svgShape"></polygon><path fill="#988be9" fill-rule="evenodd" d="M258.3,1248.4c1.4-0.8,2.4,1.2,1.2,1.9c-0.6,0.4-1.3,0.8-1.9,1.2c-1.5,0.8-2.4-1.2-1.2-1.9
			C257,1249.3,257.7,1248.9,258.3,1248.4L258.3,1248.4z M323.3,1366.3c-0.4,1.4-2.6,0.9-2.2-0.6c0.2-0.7,0.4-1.4,0.5-2.2
			c0.4-1.5,2.6-0.9,2.2,0.5C323.7,1364.8,323.5,1365.5,323.3,1366.3L323.3,1366.3z M324.8,1357.1c0,1.4-2.3,1.5-2.3-0.1
			c0-0.7,0.1-1.5,0.1-2.2c0-1.5,2.3-1.5,2.3,0C324.9,1355.5,324.8,1356.3,324.8,1357.1L324.8,1357.1z M324.2,1347.8
			c0.2,1.5-1.9,1.9-2.2,0.4c-0.1-0.7-0.3-1.4-0.5-2.1c-0.4-1.5,1.8-2,2.2-0.6C323.9,1346.2,324.1,1347,324.2,1347.8L324.2,1347.8z
			 M321.2,1338.9c0.7,1.2-1.2,2.5-2,1c-0.3-0.6-0.7-1.4-1-1.9c-0.8-1.3,1.2-2.4,2-1.1C320.5,1337.4,320.9,1338.2,321.2,1338.9
			L321.2,1338.9z M316.1,1331c1,1.2-0.8,2.6-1.7,1.5c-0.5-0.6-1-1.1-1.5-1.6c-1-1,0.5-2.7,1.6-1.6
			C315.1,1329.9,315.6,1330.5,316.1,1331L316.1,1331z M309.3,1324.6c1.2,1-0.3,2.7-1.4,1.8c-0.6-0.5-1.2-0.9-1.8-1.3
			c-1.2-0.9,0.1-2.7,1.3-1.9C308.1,1323.7,308.7,1324.2,309.3,1324.6L309.3,1324.6z M301.5,1319.6c1.4,0.8,0.2,2.7-1.1,2
			c-0.7-0.4-1.3-0.7-2-1c-1.5-0.8-0.1-2.7,1-2C300.2,1318.9,300.9,1319.2,301.5,1319.6L301.5,1319.6z M293.1,1315.8
			c1.4,0.5,0.6,2.7-0.8,2.1l-2.1-0.8c-1.5-0.6-0.6-2.6,0.7-2.2C291.7,1315.3,292.4,1315.5,293.1,1315.8L293.1,1315.8z M284.3,1313.1
			c1.5,0.4,0.9,2.6-0.5,2.2l-2.2-0.5c-1.6-0.4-0.9-2.6,0.5-2.2L284.3,1313.1L284.3,1313.1z M275.2,1311.4c1.5,0.2,1.2,2.4-0.3,2.3
			l-2.2-0.3c-1.5-0.2-1.2-2.4,0.2-2.3C273.7,1311.2,274.5,1311.3,275.2,1311.4L275.2,1311.4z M266.1,1310.6c1.5,0.2,1.4,2.3-0.1,2.3
			c-0.8,0-1.5-0.1-2.3-0.1c-1.6-0.2-1.2-2.4,0.2-2.3L266.1,1310.6L266.1,1310.6z M257.1,1309.8c1.5,0.2,1.2,2.4-0.3,2.3
			c-0.8-0.1-1.5-0.2-2.3-0.3c-1.4-0.2-1.2-2.4,0.3-2.2C255.6,1309.6,256.4,1309.7,257.1,1309.8L257.1,1309.8z M248.3,1308.2
			c1.4,0.4,0.9,2.6-0.6,2.2c-0.7-0.2-1.5-0.4-2.2-0.6c-1.3-0.3-0.9-2.6,0.6-2.2C246.8,1307.9,247.6,1308.1,248.3,1308.2
			L248.3,1308.2z M239.8,1305.4c1.3,0.6,0.5,2.7-0.9,2.1c-0.7-0.3-1.4-0.7-2.1-1c-1.3-0.8-0.2-2.7,1.1-2
			C238.5,1304.8,239.2,1305.1,239.8,1305.4L239.8,1305.4z M232.6,1300.7c1,1-0.5,2.7-1.6,1.6c-0.6-0.6-1.1-1.2-1.6-1.8
			c-0.9-1,0.8-2.6,1.8-1.4C231.6,1299.7,232.1,1300.2,232.6,1300.7L232.6,1300.7z M228.6,1293.4c0.3,1.3-1.8,2-2.2,0.5
			c-0.2-0.8-0.3-1.6-0.3-2.4c0-1.6,2.3-1.5,2.3-0.1C228.3,1292.1,228.4,1292.7,228.6,1293.4L228.6,1293.4z M229.1,1285
			c-0.3,1.4-2.6,0.9-2.2-0.6c0.2-0.8,0.5-1.5,0.7-2.2c0.5-1.4,2.7-0.6,2.1,0.8C229.5,1283.6,229.3,1284.3,229.1,1285L229.1,1285z
			 M232.6,1276.9c-0.7,1.3-2.7,0.2-2-1.1c0.3-0.6,0.8-1.4,1.2-2c0.7-1.2,2.7-0.2,1.9,1.2C233.4,1275.5,232.9,1276.4,232.6,1276.9
			L232.6,1276.9z M237.7,1269.6c-1,1.2-2.7-0.3-1.8-1.4c0.5-0.6,1-1.2,1.5-1.8c0.9-1.1,2.7,0.3,1.7,1.5
			C238.7,1268.4,238.2,1269,237.7,1269.6L237.7,1269.6z M243.7,1263c-1,1-2.7-0.5-1.6-1.6c0.5-0.5,1.1-1.1,1.7-1.6
			c1-1,2.7,0.5,1.6,1.7C244.8,1261.9,244.3,1262.4,243.7,1263L243.7,1263z M250.4,1256.9c-1.1,0.9-2.6-0.8-1.4-1.8l1.8-1.4
			c1.1-0.9,2.6,0.8,1.4,1.8C251.6,1256,251,1256.5,250.4,1256.9z" clip-rule="evenodd" class="color8bbae9 svgShape"></path></g><g fill="#000000" class="color000000 svgShape"><polygon fill="#c4bbfa" fill-rule="evenodd" points="1085.5 484.6 1026.1 509 1042.4 529.8" clip-rule="evenodd" class="colorbbdbfa svgShape"></polygon><polygon fill="#c4bbfa" fill-rule="evenodd" points="1017.7 499.1 1083.7 484.7 1001.5 490.7" clip-rule="evenodd" class="colorbbdbfa svgShape"></polygon><polygon fill="#988be9" fill-rule="evenodd" points="1017.7 499.1 1019.2 526.5 1026.1 509 1085.5 484.6 1083.7 484.7" clip-rule="evenodd" class="color8bbae9 svgShape"></polygon><polygon fill="#7764f0" fill-rule="evenodd" points="1019.2 526.5 1033.3 518.2 1026.1 509" clip-rule="evenodd" class="color61a0e0 svgShape"></polygon><path fill="#988be9" fill-rule="evenodd" d="M1003.9,524.5c1.9-0.2,1.5-3.1-0.3-2.8l-2.8,0.3c-1.9,0.2-1.5,3.1,0.3,2.8L1003.9,524.5L1003.9,524.5z
			 M906.4,637.9c-1.3,0-1.9,1.5-1,2.4c0.2,0.3,0.6,0.4,1,0.4l1.8,0c1.8,0,1.9-2.9,0-2.9L906.4,637.9L906.4,637.9z M916.7,637.6
			c-1.7,0-1.9,2.8,0.2,2.8l2.9-0.2c2-0.3,1.5-3.1-0.2-2.8L916.7,637.6L916.7,637.6z M927.9,636.5c-1.8,0.2-1.5,3.1,0.4,2.8
			L927.9,636.5L927.9,636.5z M938.8,634.1c-1.7,0.6-1,3.2,0.9,2.7c0.9-0.3,1.9-0.6,2.8-1c1.7-0.7,0.7-3.3-1.1-2.6
			C940.6,633.5,939.7,633.8,938.8,634.1L938.8,634.1z M948.5,629.3c-1.5,1.2,0.4,3.4,1.8,2.2c0.8-0.7,1.6-1.3,2.2-2.1
			c1.3-1.5-1-3.3-2.1-1.9C949.8,628.1,949.2,628.7,948.5,629.3L948.5,629.3z M953.9,620.6c-0.3,2,2.6,2.2,2.8,0.5c0.2-1,0.3-2,0.3-3
			c0-2-2.9-1.9-2.9-0.1C954.1,618.9,954,619.7,953.9,620.6L953.9,620.6z M953.1,610c0.4,1.7,3.2,1.1,2.8-0.8
			c-0.3-0.9-0.5-1.9-0.8-2.8c-0.7-1.9-3.3-0.7-2.7,0.9C952.6,608.2,952.8,609.1,953.1,610L953.1,610z M949.2,599.5
			c0.7,1.6,3.4,0.6,2.6-1.2c-0.4-0.9-0.8-1.7-1.2-2.6c-1-1.8-3.4-0.2-2.6,1.3C948.4,597.8,948.8,598.7,949.2,599.5L949.2,599.5z
			 M944.1,589.4c1,1.7,3.4,0.2,2.5-1.3l-1.3-2.5c-1-1.7-3.4-0.2-2.5,1.3C943.2,587.7,943.6,588.6,944.1,589.4L944.1,589.4z
			 M938.7,579.3c1,1.8,3.4,0.2,2.6-1.3l-1.2-2.5c-1-1.7-3.3-0.5-2.6,1.2L938.7,579.3L938.7,579.3z M934.1,568.6
			c0.6,1.7,3.2,1,2.7-0.9c-0.3-0.9-0.5-1.7-0.8-2.6c-0.5-1.8-3.2-1.1-2.8,0.7C933.5,566.7,933.8,567.7,934.1,568.6L934.1,568.6z
			 M932.7,556.8c-0.2,1.9,2.6,2.2,2.8,0.4c0.1-0.9,0.3-1.8,0.5-2.6c0.5-1.8-2.3-2.5-2.8-0.7C933,554.8,932.8,555.8,932.7,556.8
			L932.7,556.8z M937.1,545.6c-1.1,1.6,1.2,3.2,2.3,1.7c0.5-0.7,1.1-1.4,1.7-2.1c1.3-1.6-1-3.2-2.1-1.9
			C938.3,544,937.7,544.8,937.1,545.6L937.1,545.6z M945.7,537.5c-1.5,1.1-0.1,3.4,1.6,2.4c0.8-0.5,1.5-1,2.3-1.5
			c1.6-0.9,0.2-3.4-1.5-2.5C947.3,536.4,946.5,536.9,945.7,537.5L945.7,537.5z M956,532c-1.8,0.8-0.6,3.4,1.1,2.6
			c0.9-0.4,1.7-0.7,2.6-1c1.7-0.7,0.8-3.3-1-2.7C957.8,531.3,956.9,531.6,956,532L956,532z M966.9,528.2c-1.7,0.4-1.2,3.2,0.8,2.7
			l2.7-0.8c1.8-0.4,1.1-3.2-0.7-2.8L966.9,528.2L966.9,528.2z M978.1,525.5c-2,0.5-1.1,3.2,0.6,2.8l2.8-0.6c1.8-0.5,1.4-3-0.5-2.8
			L978.1,525.5L978.1,525.5z M989.4,523.5c-1.8,0.2-1.5,3.1,0.4,2.8l2.8-0.4c1.8-0.2,1.5-3.1-0.4-2.8L989.4,523.5z" clip-rule="evenodd" class="color8bbae9 svgShape"></path></g><g fill="#000000" class="color000000 svgShape"><polygon fill="#c4bbfa" fill-rule="evenodd" points="1491.3 642.6 1550.8 667 1534.5 687.9" clip-rule="evenodd" class="colorbbdbfa svgShape"></polygon><polygon fill="#c4bbfa" fill-rule="evenodd" points="1559.2 657.2 1493.2 642.8 1575.4 648.8" clip-rule="evenodd" class="colorbbdbfa svgShape"></polygon><polygon fill="#988be9" fill-rule="evenodd" points="1559.2 657.2 1557.6 684.6 1550.8 667 1491.3 642.6 1493.2 642.8" clip-rule="evenodd" class="color8bbae9 svgShape"></polygon><polygon fill="#7764f0" fill-rule="evenodd" points="1557.6 684.6 1543.6 676.3 1550.8 667" clip-rule="evenodd" class="color61a0e0 svgShape"></polygon><path fill="#988be9" fill-rule="evenodd" d="M1568.4,671.4c-1.4-0.2-1.7,2-0.2,2.2l2.2,0.3c1.4,0.2,1.7-2,0.3-2.2L1568.4,671.4L1568.4,671.4z
			 M1692.5,811.9c1.3-0.7,0.4-2.5-1-2c-0.6,0.3-1.3,0.6-1.9,0.9c-1.3,0.6-0.5,2.6,0.9,2L1692.5,811.9L1692.5,811.9z M1684.1,815.1
			c1.3-0.3,0.9-2.5-0.6-2.1c-0.7,0.2-1.4,0.4-2.1,0.5c-1.4,0.4-0.9,2.5,0.5,2.1C1682.7,815.5,1683.4,815.3,1684.1,815.1
			L1684.1,815.1z M1675.2,816.7c1.4-0.2,1.3-2.2-0.1-2.2c-0.7,0-1.4,0.1-2.1,0.1c-1.4,0-1.4,2.2,0,2.2
			C1673.7,816.7,1674.5,816.7,1675.2,816.7L1675.2,816.7z M1666.2,816.2c1.5,0.2,1.8-1.8,0.4-2.2c-0.7-0.1-1.4-0.3-2.1-0.4
			c-1.4-0.4-1.9,1.8-0.5,2.1C1664.8,815.9,1665.5,816.1,1666.2,816.2L1666.2,816.2z M1657.6,813.4c1.1,0.6,2.4-1.2,1-2
			c-0.6-0.3-1.2-0.7-1.9-1c-1.3-0.7-2.3,1.2-1.1,1.9C1656.3,812.7,1657,813,1657.6,813.4L1657.6,813.4z M1650.2,808.3
			c1.2,1,2.5-0.8,1.5-1.6c-0.5-0.5-1.1-1-1.5-1.5c-1.1-1.1-2.6,0.5-1.6,1.5C1649.1,807.3,1649.6,807.8,1650.2,808.3L1650.2,808.3z
			 M1644.2,801.5c0.8,1.1,2.6,0.1,1.8-1.2c-0.4-0.6-0.8-1.2-1.1-1.8c-0.7-1.2-2.6-0.2-1.9,1.1
			C1643.4,800.2,1643.8,800.9,1644.2,801.5L1644.2,801.5z M1640,793.5c0.5,1.3,2.6,0.6,2-0.8c-0.3-0.7-0.5-1.3-0.8-2
			c-0.5-1.4-2.6-0.6-2.1,0.7C1639.5,792.1,1639.8,792.8,1640,793.5L1640,793.5z M1637.4,785c0.4,1.4,2.5,0.9,2.1-0.5l-0.5-2.1
			c-0.4-1.5-2.5-0.9-2.1,0.5L1637.4,785L1637.4,785z M1635.6,776.4c0.2,1.3,2.4,1.2,2.2-0.4l-0.4-2.2c-0.2-1.3-2.4-1.2-2.2,0.4
			L1635.6,776.4L1635.6,776.4z M1634,767.7c0.2,1.3,2.4,1.2,2.2-0.4l-0.4-2.2c-0.3-1.4-2.3-1.1-2.2,0.4L1634,767.7L1634,767.7z
			 M1632.3,759.2c0.4,1.4,2.5,0.9,2.1-0.5c-0.2-0.7-0.4-1.4-0.6-2.2c-0.3-1.3-2.5-0.9-2.1,0.6
			C1631.9,757.8,1632.1,758.5,1632.3,759.2L1632.3,759.2z M1630.1,751.5c0.8,0.6,2.1-0.2,1.7-1.3c-0.2-0.5-0.4-0.9-0.6-1.4
			c0.1-0.5-0.2-1-0.7-1.2c-0.7-0.5-2,0.2-1.7,1.3c-0.2,0.5-0.3,0.9-0.5,1.4C1627.8,751.5,1629.3,752.2,1630.1,751.5L1630.1,751.5z
			 M1625.7,743.5c1,1.2,2.6-0.2,1.8-1.3c-0.4-0.6-0.9-1.2-1.4-1.8c-0.9-1.1-2.6,0.3-1.6,1.4C1624.8,742.4,1625.3,743,1625.7,743.5
			L1625.7,743.5z M1619.7,737.7c1.4,0.8,2.3-1.2,1.2-1.8c-0.6-0.4-1.3-0.8-2-1.2c-1.2-0.7-2.4,1.2-1,1.9
			C1618.5,737,1619.1,737.4,1619.7,737.7L1619.7,737.7z M1612,734.3c1.4,0.4,1.9-1.8,0.6-2.1c-0.7-0.2-1.5-0.4-2.2-0.5
			c-1.3-0.3-2,1.8-0.4,2.2C1610.6,734,1611.3,734.2,1612,734.3L1612,734.3z M1603.5,733c1.3,0.2,1.7-2,0.2-2.2
			c-0.7-0.1-1.5-0.1-2.2-0.1c-1.5,0-1.4,2.2-0.1,2.2C1602.1,732.9,1602.8,732.9,1603.5,733L1603.5,733z M1595,733.2
			c1.4-0.2,1.2-2.4-0.3-2.2c-0.8,0.1-1.5,0.2-2.2,0.4c-1.4,0.3-1.1,2.3,0.4,2.2C1593.6,733.4,1594.3,733.2,1595,733.2L1595,733.2z
			 M1586.9,735.4c1.3-0.5,0.5-2.6-0.9-2c-0.7,0.3-1.4,0.7-2.1,1c-1.2,0.7-0.2,2.6,1.1,1.9l-1.1-1.9l1.1,1.9
			C1585.6,736,1586.2,735.6,1586.9,735.4L1586.9,735.4z M1580.2,740.2c1-1.1-0.8-2.5-1.7-1.4c-0.5,0.6-1,1.2-1.4,1.9
			c-0.8,1.4,1.2,2.3,1.8,1.2C1579.4,741.3,1579.8,740.7,1580.2,740.2L1580.2,740.2z M1576.6,747.5c0.2-1.5-1.8-1.8-2.2-0.4
			c-0.2,0.8-0.2,1.5-0.3,2.3c0,1.5,2,1.6,2.2,0.1C1576.4,748.8,1576.5,748.1,1576.6,747.5L1576.6,747.5z M1577.1,755.6
			c-0.3-1.2-2.5-0.9-2.1,0.7c0.2,0.7,0.5,1.5,0.8,2.2c0.6,1.3,2.6,0.5,2-0.9C1577.5,756.9,1577.3,756.3,1577.1,755.6L1577.1,755.6z
			 M1581.1,762.8c-0.9-1-2.6,0.3-1.6,1.5c0.5,0.6,1,1.1,1.6,1.7c1.1,1,2.5-0.6,1.5-1.6C1582.1,763.8,1581.6,763.3,1581.1,762.8
			L1581.1,762.8z M1587.7,768c-1.2-0.7-2.4,1.2-1,1.9c0.7,0.4,1.3,0.7,2,1c1.4,0.6,2.2-1.5,0.9-2
			C1588.9,768.6,1588.3,768.3,1587.7,768L1587.7,768z M1595.6,770.9c-1.3-0.3-2,1.8-0.4,2.1c0.7,0.2,1.5,0.3,2.2,0.4
			c1.4,0.2,1.7-2,0.3-2.2C1597,771.2,1596.3,771.1,1595.6,770.9L1595.6,770.9z M1604,771.5c-1.5,0.2-1.2,2.4,0.2,2.2
			c0.7-0.1,1.5-0.2,2.3-0.3c1.5-0.4,0.8-2.5-0.4-2.1C1605.4,771.3,1604.6,771.4,1604,771.5L1604,771.5z M1612,769.2
			c-1.3,0.7-0.4,2.5,1,2c0.7-0.3,1.4-0.7,2-1.1c1.2-0.7,0.2-2.6-1.1-1.9C1613.3,768.5,1612.6,768.9,1612,769.2L1612,769.2z
			 M1618.9,764.4c-1.1,1.1,0.5,2.6,1.5,1.6c0.5-0.5,1.1-1.1,1.6-1.6c1-1.2-0.8-2.5-1.6-1.5C1619.9,763.4,1619.4,763.9,1618.9,764.4
			L1618.9,764.4z M1624.4,757.9c-0.8,1.4,1.2,2.3,1.8,1.2c0.4-0.6,0.8-1.3,1.2-1.9c0.7-1.3-1.2-2.3-1.9-1.1
			C1625.1,756.7,1624.8,757.3,1624.4,757.9L1624.4,757.9z M1630.7,742.1c-0.3,1.3,1.8,2,2.2,0.4c0.2-0.7,0.3-1.5,0.4-2.2
			c0.2-1.5-2-1.7-2.2-0.3C1631,740.7,1630.9,741.4,1630.7,742.1L1630.7,742.1z M1631.8,733.6c0,1.5,2.2,1.4,2.2,0.1
			c0-0.7,0-1.5,0-2.2c0-1.4-2.2-1.4-2.2,0C1631.8,732.1,1631.8,732.8,1631.8,733.6L1631.8,733.6z M1631.4,725
			c0.2,1.4,2.4,1.2,2.2-0.3c-0.1-0.7-0.2-1.5-0.3-2.2c-0.2-1.3-2.4-1.2-2.2,0.4C1631.3,723.5,1631.4,724.3,1631.4,725L1631.4,725z
			 M1629.7,716.6c0.3,1.3,2.5,0.9,2.1-0.6c-0.2-0.7-0.4-1.4-0.7-2.1c-0.5-1.4-2.6-0.6-2.1,0.7
			C1629.3,715.2,1629.5,715.9,1629.7,716.6L1629.7,716.6z M1626.7,708.5c0.8,1.4,2.6,0.1,2-1c-0.3-0.7-0.7-1.3-1-2
			c-0.7-1.3-2.6-0.2-1.9,1C1626.1,707.3,1626.4,707.9,1626.7,708.5L1626.7,708.5z M1622.4,701.1c0.8,1.2,2.6-0.1,1.8-1.3
			c-0.4-0.6-0.9-1.2-1.3-1.8c-1-1.2-2.6,0.3-1.7,1.3C1621.5,700,1621.9,700.5,1622.4,701.1L1622.4,701.1z M1616.9,694.5
			c1,1,2.6-0.5,1.6-1.5c-0.5-0.5-1-1.1-1.6-1.6c-1-1-2.6,0.5-1.5,1.6C1615.9,693.5,1616.4,694,1616.9,694.5L1616.9,694.5z
			 M1610.4,688.8c1,0.8,2.5-0.7,1.3-1.8c-0.6-0.5-1.2-0.9-1.8-1.3c-1.1-0.8-2.5,0.9-1.2,1.8C1609.3,687.9,1609.9,688.4,1610.4,688.8
			L1610.4,688.8z M1603.2,684.1c1.2,0.7,2.3-1.2,1.1-1.9c-0.6-0.4-1.3-0.7-2-1.1c-1.1-0.7-2.4,1.2-1,2
			C1602,683.4,1602.6,683.7,1603.2,684.1L1603.2,684.1z M1595.5,680.3c1.3,0.6,2.2-1.4,0.8-2c-0.7-0.3-1.4-0.6-2.1-0.8
			c-1.4-0.5-2.1,1.5-0.8,2.1C1594.1,679.7,1594.8,680,1595.5,680.3L1595.5,680.3z M1587.3,677.4c1.5,0.4,1.9-1.8,0.6-2.1l-2.1-0.6
			c-1.5-0.4-1.9,1.8-0.6,2.1L1587.3,677.4L1587.3,677.4z M1578.9,675.3c1.3,0.3,2-1.8,0.4-2.2c-0.7-0.2-1.4-0.3-2.2-0.4
			c-1.6-0.2-1.7,2-0.4,2.2C1577.5,675,1578.2,675.1,1578.9,675.3z" clip-rule="evenodd" class="color8bbae9 svgShape"></path></g><g fill="#000000" class="color000000 svgShape"><polygon fill="#c4bbfa" fill-rule="evenodd" points="647.7 658.1 597.8 697.7 619.1 713.1" clip-rule="evenodd" class="colorbbdbfa svgShape"></polygon><polygon fill="#c4bbfa" fill-rule="evenodd" points="587.1 690.6 646 658.7 569.3 687.1" clip-rule="evenodd" class="colorbbdbfa svgShape"></polygon><polygon fill="#988be9" fill-rule="evenodd" points="587.1 690.6 596.1 716.3 597.8 697.7 647.7 658.1 646 658.7" clip-rule="evenodd" class="color8bbae9 svgShape"></polygon><polygon fill="#7764f0" fill-rule="evenodd" points="596.1 716.3 607.2 704.5 597.8 697.7" clip-rule="evenodd" class="color61a0e0 svgShape"></polygon><path fill="#988be9" fill-rule="evenodd" d="M587.6,710.4c1.3-0.8,0.1-2.6-1-1.9c-0.7,0.3-1.3,0.7-1.9,1.1c-1.2,0.7-0.2,2.6,1.1,1.9
			C586.3,711,586.9,710.7,587.6,710.4L587.6,710.4z M417,741.9c-1-1.2-2.6,0.3-1.7,1.3l1.3,1.7c1,1.1,2.6-0.3,1.7-1.3L417,741.9
			L417,741.9z M422.4,748.4c-1.1-1.1-2.5,0.5-1.6,1.5c0.5,0.5,1,1.1,1.5,1.6c1,1,2.5-0.5,1.5-1.5
			C423.4,749.4,422.9,748.9,422.4,748.4L422.4,748.4z M428.6,754.2c-1.1-0.9-2.5,0.7-1.4,1.7c0.6,0.5,1.1,0.9,1.7,1.4
			c1,0.9,2.5-0.7,1.3-1.7C429.7,755.1,429.2,754.7,428.6,754.2L428.6,754.2z M435.5,759.3c-1.4-0.8-2.3,1.2-1.2,1.8
			c0.6,0.4,1.2,0.8,1.9,1.2c1.3,0.7,2.3-1.2,1.1-1.9C436.7,760.1,436.1,759.7,435.5,759.3L435.5,759.3z M442.9,763.5
			c-1.4-0.6-2.1,1.4-0.9,2c0.7,0.3,1.3,0.6,2,0.9c1.3,0.6,2.2-1.4,0.9-2C444.2,764.1,443.5,763.8,442.9,763.5L442.9,763.5z
			 M450.8,766.7c-1.2-0.5-2.1,1.5-0.7,2c0.7,0.2,1.4,0.5,2.1,0.7c1.5,0.4,1.9-1.8,0.6-2.1C452.1,767.1,451.4,766.9,450.8,766.7
			L450.8,766.7z M459,768.9c-1.3-0.3-1.9,1.7-0.4,2.1c0.7,0.2,1.4,0.3,2.1,0.4c1.6,0.2,1.7-2,0.4-2.1
			C460.4,769.2,459.7,769.1,459,768.9L459,768.9z M467.4,770.3c-1.3-0.2-1.7,2-0.2,2.2c0.7,0.1,1.5,0.1,2.2,0.2
			c1.3,0.2,1.7-2,0.1-2.2L467.4,770.3L467.4,770.3z M475.9,770.7c-1.4,0-1.4,2.2,0,2.2c0.7,0,1.5,0,2.2,0c1.3,0,1.4-2.2-0.1-2.2
			C477.3,770.7,476.6,770.7,475.9,770.7L475.9,770.7z M484.4,770.2c-1.4,0.2-1.1,2.3,0.2,2.1c0.7-0.1,1.4-0.2,2.2-0.3
			c1.4-0.2,1.2-2.3-0.3-2.1C485.8,770,485.1,770.1,484.4,770.2L484.4,770.2z M492.9,768.9c-1.5,0.4-0.8,2.4,0.5,2.1
			c0.7-0.2,1.4-0.3,2.1-0.5c1.4-0.3,0.9-2.4-0.5-2.1C494.2,768.6,493.6,768.7,492.9,768.9L492.9,768.9z M501.1,766.7
			c-1.4,0.5-0.6,2.5,0.7,2.1c0.7-0.2,1.4-0.5,2.1-0.7c1.4-0.5,0.6-2.5-0.7-2C502.4,766.2,501.8,766.4,501.1,766.7L501.1,766.7z
			 M509,763.6c-1.2,0.5-0.5,2.6,0.9,2c0.7-0.3,1.3-0.6,2-0.9c0.6-0.4,0.7-0.9,0.5-1.3l0.3,0.1c1.6,0.2,1.7-2,0.4-2.1
			c-0.7-0.1-1.4-0.3-2-0.5c-1.4-0.3-1.9,1.7-0.5,2.1L509,763.6L509,763.6z M516.5,759.6c-1.1,0.6-0.2,2.6,1.2,1.8
			c0.6-0.4,1.2-0.8,1.8-1.2c1.2-0.9-0.1-2.6-1.2-1.8C517.7,758.8,517.1,759.2,516.5,759.6L516.5,759.6z M523.3,754.6
			c-1,0.9,0.3,2.6,1.4,1.6c0.6-0.5,1.1-1,1.6-1.5c1-1-0.5-2.5-1.5-1.5C524.4,753.6,523.9,754.1,523.3,754.6L523.3,754.6z
			 M528.9,748.3c-0.8,1.1,0.9,2.4,1.8,1.2c0.4-0.6,0.8-1.3,1.2-1.9c0.7-1.2-1.2-2.3-1.9-1.1C529.7,747.2,529.3,747.8,528.9,748.3
			L528.9,748.3z M532.3,740.9c-0.3,1.3,1.7,1.9,2.1,0.5c0.2-0.8,0.3-1.5,0.4-2.2c0.2-1.4-2-1.7-2.1-0.2
			C532.6,739.6,532.5,740.2,532.3,740.9L532.3,740.9z M532.2,732.9c0.3,1.3,2.4,0.9,2.1-0.6c-0.2-0.7-0.4-1.5-0.7-2.2
			c-0.6-1.3-2.5-0.5-2,0.8C531.8,731.6,532,732.2,532.2,732.9L532.2,732.9z M528.4,725.6c1,1.2,2.5-0.2,1.7-1.3
			c-0.4-0.6-0.9-1.2-1.3-1.8c-0.9-1.1-2.6,0.3-1.7,1.4C527.6,724.4,528,725,528.4,725.6L528.4,725.6z M522.8,719.5
			c1,0.8,2.5-0.7,1.3-1.7c-0.6-0.5-1.2-0.9-1.8-1.3c-1.4-0.8-2.3,1.2-1.2,1.8C521.7,718.7,522.2,719.1,522.8,719.5L522.8,719.5z
			 M515.5,715.7c1.4,0.4,1.9-1.8,0.5-2.1c-0.7-0.2-1.5-0.3-2.2-0.5c-1.4-0.2-1.7,2-0.3,2.1C514.2,715.4,514.9,715.6,515.5,715.7
			L515.5,715.7z M507.5,715.5c1.5-0.4,0.8-2.4-0.4-2.1c-0.7,0.1-1.5,0.3-2.2,0.6c-1.3,0.5-0.8,2.4,0.7,2.1
			C506.1,715.8,506.8,715.6,507.5,715.5L507.5,715.5z M499.9,718.7c1.2-0.9-0.1-2.6-1.2-1.8c-0.6,0.4-1.2,0.9-1.8,1.3
			c-1.1,0.9,0.3,2.6,1.4,1.7C498.8,719.5,499.4,719.1,499.9,718.7L499.9,718.7z M493.9,724.4c0.8-1-0.7-2.5-1.7-1.3
			c-0.5,0.6-0.9,1.2-1.3,1.8c-0.8,1.4,1.2,2.3,1.8,1.2C493.1,725.5,493.5,724.9,493.9,724.4L493.9,724.4z M489.9,731.6
			c0.5-1.3-1.5-2.1-2-0.7c-0.3,0.7-0.5,1.4-0.7,2.2c-0.3,1.4,1.8,1.9,2.1,0.5C489.5,732.9,489.7,732.2,489.9,731.6L489.9,731.6z
			 M488.6,739.7c0-1.3-2.2-1.5-2.2,0.1c0,0.8,0.1,1.5,0.2,2.3c0.2,1.3,2.3,1.2,2.1-0.3C488.7,741,488.6,740.3,488.6,739.7
			L488.6,739.7z M490.7,747.5c-0.7-1.3-2.6-0.2-1.9,1c0.4,0.7,0.8,1.3,1.2,2c0.8,1.2,2.6-0.1,1.8-1.2
			C491.4,748.7,491,748.1,490.7,747.5L490.7,747.5z M496,753.7c-1-0.9-2.5,0.7-1.3,1.7c0.6,0.5,1.2,0.9,1.8,1.3
			c1.3,0.7,2.3-1,1.2-1.8C497.1,754.5,496.5,754.1,496,753.7L496,753.7z M503.2,757.9c-1.3-0.6-2.1,1.4-0.9,2c0.7,0.3,1.3,0.6,2,0.9
			c1.3,0.5,2.1-1.4,0.8-2C504.5,758.5,503.8,758.2,503.2,757.9L503.2,757.9z M519.4,761.9c0.7,0,1.4,0,2.1-0.1
			c1.3-0.2,1.7,2,0.1,2.2c-0.7,0-1.5,0.1-2.2,0.1C518,764,518,761.9,519.4,761.9L519.4,761.9z M527.7,760.8
			c-1.3,0.3-0.9,2.4,0.6,2.1c0.7-0.2,1.5-0.4,2.1-0.7c1.4-0.5,0.6-2.5-0.7-2C529,760.4,528.3,760.6,527.7,760.8L527.7,760.8z
			 M535.4,757.5c-1.2,0.7-0.2,2.6,1.1,1.9c0.6-0.4,1.3-0.8,1.9-1.2c1.1-0.6,0.2-2.6-1.2-1.8C536.6,756.8,536,757.2,535.4,757.5
			L535.4,757.5z M542.3,752.6c-1.1,0.9,0.3,2.6,1.4,1.6c0.6-0.5,1.1-1,1.7-1.4c1-0.8-0.3-2.6-1.4-1.6
			C543.3,751.7,542.8,752.2,542.3,752.6L542.3,752.6z M548.4,746.8c-1,1,0.5,2.5,1.6,1.5l1.5-1.6c1-1.2-0.8-2.5-1.6-1.5
			C549.4,745.7,548.9,746.3,548.4,746.8L548.4,746.8z M554.2,740.4c-0.9,1.1,0.8,2.5,1.6,1.4l1.4-1.7c0.9-1.1-0.7-2.5-1.7-1.4
			L554.2,740.4L554.2,740.4z M559.7,733.8c-0.9,1.1,0.7,2.5,1.7,1.4l1.4-1.7c0.9-1.1-0.7-2.5-1.7-1.4L559.7,733.8L559.7,733.8z
			 M565.2,727.1c-0.9,1.1,0.8,2.5,1.6,1.4l1.4-1.6c1-1.1-0.8-2.5-1.6-1.4L565.2,727.1L565.2,727.1z M571.1,720.6
			c-1,1,0.5,2.5,1.6,1.5l1.5-1.5c1-1-0.5-2.5-1.5-1.5L571.1,720.6L571.1,720.6z M577.4,714.6c-1.1,0.9,0.3,2.6,1.4,1.7
			c0.5-0.4,1.1-0.9,1.6-1.3c1.2-1-0.3-2.6-1.3-1.7C578.6,713.7,578,714.2,577.4,714.6z" clip-rule="evenodd" class="color8bbae9 svgShape"></path></g><g fill="#000000" class="color000000 svgShape"><polygon fill="#c4bbfa" fill-rule="evenodd" points="1434.8 870.1 1494.3 894.4 1478 915.3" clip-rule="evenodd" class="colorbbdbfa svgShape"></polygon><polygon fill="#c4bbfa" fill-rule="evenodd" points="1502.7 884.6 1436.6 870.2 1518.8 876.2" clip-rule="evenodd" class="colorbbdbfa svgShape"></polygon><polygon fill="#988be9" fill-rule="evenodd" points="1502.7 884.6 1501.1 912 1494.3 894.4 1434.8 870.1 1436.6 870.2" clip-rule="evenodd" class="color8bbae9 svgShape"></polygon><polygon fill="#7764f0" fill-rule="evenodd" points="1501.1 912 1487.1 903.7 1494.3 894.4" clip-rule="evenodd" class="color61a0e0 svgShape"></polygon><path fill="#988be9" fill-rule="evenodd" d="M1511.9,898.8c-1.4-0.2-1.7,2-0.2,2.2l2.2,0.3c1.4,0.2,1.7-2,0.3-2.2L1511.9,898.8L1511.9,898.8z
			 M1635.9,1039.3c1.3-0.7,0.4-2.5-1-2c-0.6,0.3-1.3,0.6-1.9,0.9c-1.3,0.6-0.5,2.6,0.9,2L1635.9,1039.3L1635.9,1039.3z
			 M1627.6,1042.5c1.3-0.3,0.9-2.5-0.6-2.1c-0.7,0.2-1.4,0.4-2.1,0.5c-1.4,0.4-0.9,2.5,0.5,2.1
			C1626.1,1042.9,1626.9,1042.7,1627.6,1042.5L1627.6,1042.5z M1618.7,1044.1c1.4-0.2,1.3-2.2-0.1-2.2c-0.7,0-1.4,0.1-2.1,0.1
			c-1.4,0-1.4,2.2,0,2.2C1617.2,1044.1,1618,1044.1,1618.7,1044.1L1618.7,1044.1z M1609.7,1043.6c1.5,0.2,1.8-1.8,0.4-2.2
			c-0.7-0.1-1.4-0.3-2.1-0.4c-1.4-0.4-1.9,1.8-0.5,2.1C1608.2,1043.3,1609,1043.5,1609.7,1043.6L1609.7,1043.6z M1601.1,1040.8
			c1.1,0.6,2.4-1.2,1-2c-0.6-0.3-1.2-0.7-1.9-1c-1.3-0.7-2.3,1.2-1.1,1.9C1599.8,1040.1,1600.5,1040.5,1601.1,1040.8L1601.1,1040.8z
			 M1593.6,1035.7c1.2,1,2.5-0.8,1.5-1.6c-0.5-0.5-1.1-1-1.5-1.5c-1.1-1.1-2.6,0.5-1.6,1.5
			C1592.5,1034.7,1593.1,1035.2,1593.6,1035.7L1593.6,1035.7z M1587.7,1028.9c0.8,1.1,2.6,0.1,1.8-1.2c-0.4-0.6-0.8-1.2-1.1-1.8
			c-0.7-1.2-2.6-0.2-1.9,1.1C1586.9,1027.6,1587.3,1028.3,1587.7,1028.9L1587.7,1028.9z M1583.5,1020.9c0.5,1.3,2.6,0.6,2-0.8
			c-0.3-0.7-0.5-1.3-0.8-2c-0.5-1.4-2.6-0.6-2.1,0.7C1583,1019.5,1583.3,1020.2,1583.5,1020.9L1583.5,1020.9z M1580.9,1012.4
			c0.4,1.4,2.5,0.9,2.1-0.5l-0.5-2.1c-0.4-1.5-2.5-0.9-2.1,0.5L1580.9,1012.4L1580.9,1012.4z M1579.1,1003.8
			c0.2,1.3,2.4,1.2,2.2-0.4l-0.4-2.2c-0.2-1.3-2.4-1.2-2.2,0.4L1579.1,1003.8L1579.1,1003.8z M1577.5,995.1c0.2,1.3,2.4,1.2,2.2-0.4
			l-0.4-2.2c-0.3-1.4-2.3-1.1-2.2,0.4L1577.5,995.1L1577.5,995.1z M1575.7,986.6c0.4,1.4,2.5,0.9,2.1-0.5c-0.2-0.7-0.4-1.4-0.6-2.2
			c-0.3-1.3-2.5-0.9-2.1,0.6C1575.4,985.2,1575.6,985.9,1575.7,986.6L1575.7,986.6z M1573.6,978.9c0.8,0.6,2.1-0.2,1.7-1.3
			c-0.2-0.5-0.4-0.9-0.6-1.4c0.1-0.5-0.2-1-0.7-1.2c-0.7-0.5-2,0.2-1.7,1.3c-0.2,0.5-0.3,0.9-0.5,1.4
			C1571.3,978.9,1572.8,979.7,1573.6,978.9L1573.6,978.9z M1569.2,970.9c1,1.2,2.6-0.2,1.8-1.3c-0.4-0.6-0.9-1.2-1.4-1.8
			c-0.9-1.1-2.6,0.3-1.6,1.4C1568.3,969.8,1568.7,970.4,1569.2,970.9L1569.2,970.9z M1563.2,965.2c1.4,0.8,2.3-1.2,1.2-1.8
			c-0.6-0.4-1.3-0.8-2-1.2c-1.2-0.7-2.4,1.2-1,1.9C1562,964.4,1562.6,964.8,1563.2,965.2L1563.2,965.2z M1555.5,961.8
			c1.4,0.4,1.9-1.8,0.6-2.1c-0.7-0.2-1.5-0.4-2.2-0.5c-1.3-0.3-2,1.8-0.4,2.2C1554.1,961.4,1554.8,961.6,1555.5,961.8L1555.5,961.8z
			 M1547,960.4c1.3,0.2,1.7-2,0.2-2.2c-0.7-0.1-1.5-0.1-2.2-0.1c-1.5,0-1.4,2.2-0.1,2.2C1545.6,960.3,1546.3,960.4,1547,960.4
			L1547,960.4z M1538.5,960.6c1.4-0.2,1.2-2.4-0.3-2.2c-0.8,0.1-1.5,0.2-2.2,0.4c-1.4,0.3-1.1,2.3,0.4,2.2
			C1537.1,960.8,1537.8,960.7,1538.5,960.6L1538.5,960.6z M1530.4,962.8c1.3-0.5,0.5-2.6-0.9-2c-0.7,0.3-1.4,0.7-2.1,1
			c-1.2,0.7-0.2,2.6,1.1,1.9l-1.1-1.9l1.1,1.9C1529.1,963.4,1529.7,963.1,1530.4,962.8L1530.4,962.8z M1523.7,967.6
			c1-1.1-0.8-2.5-1.7-1.4c-0.5,0.6-1,1.2-1.4,1.9c-0.8,1.4,1.2,2.3,1.8,1.2C1522.8,968.7,1523.3,968.1,1523.7,967.6L1523.7,967.6z
			 M1520.1,974.9c0.2-1.5-1.8-1.8-2.2-0.4c-0.2,0.8-0.2,1.5-0.3,2.3c0,1.5,2,1.6,2.2,0.1C1519.9,976.2,1520,975.5,1520.1,974.9
			L1520.1,974.9z M1520.6,983c-0.3-1.2-2.5-0.9-2.1,0.7c0.2,0.7,0.5,1.5,0.8,2.2c0.6,1.3,2.6,0.5,2-0.9
			C1521,984.3,1520.8,983.7,1520.6,983L1520.6,983z M1524.6,990.2c-0.9-1-2.6,0.3-1.6,1.5c0.5,0.6,1,1.1,1.6,1.7
			c1.1,1,2.5-0.6,1.5-1.6C1525.6,991.2,1525.1,990.7,1524.6,990.2L1524.6,990.2z M1531.2,995.4c-1.2-0.7-2.4,1.2-1,1.9
			c0.7,0.4,1.3,0.7,2,1c1.4,0.6,2.2-1.5,0.9-2C1532.4,996,1531.8,995.7,1531.2,995.4L1531.2,995.4z M1539.1,998.3
			c-1.3-0.3-2,1.8-0.4,2.1c0.7,0.2,1.5,0.3,2.2,0.4c1.4,0.2,1.7-2,0.3-2.2C1540.5,998.6,1539.8,998.5,1539.1,998.3L1539.1,998.3z
			 M1547.5,998.9c-1.5,0.2-1.2,2.4,0.2,2.2c0.7-0.1,1.5-0.2,2.3-0.3c1.5-0.4,0.8-2.5-0.4-2.1
			C1548.9,998.7,1548.1,998.8,1547.5,998.9L1547.5,998.9z M1555.5,996.6c-1.3,0.7-0.4,2.5,1,2c0.7-0.3,1.4-0.7,2-1.1
			c1.2-0.7,0.2-2.6-1.1-1.9C1556.8,996,1556.1,996.3,1555.5,996.6L1555.5,996.6z M1562.4,991.8c-1.1,1.1,0.5,2.6,1.5,1.6
			c0.5-0.5,1.1-1.1,1.6-1.6c1-1.2-0.8-2.5-1.6-1.5C1563.4,990.8,1562.9,991.3,1562.4,991.8L1562.4,991.8z M1567.9,985.3
			c-0.8,1.4,1.2,2.3,1.8,1.2c0.4-0.6,0.8-1.3,1.2-1.9c0.7-1.3-1.2-2.3-1.9-1.1C1568.6,984.1,1568.2,984.7,1567.9,985.3L1567.9,985.3
			z M1574.2,969.5c-0.3,1.3,1.8,2,2.2,0.4c0.1-0.7,0.3-1.5,0.4-2.2c0.2-1.5-2-1.7-2.2-0.3C1574.5,968.1,1574.4,968.8,1574.2,969.5
			L1574.2,969.5z M1575.3,961c0,1.5,2.2,1.4,2.2,0.1c0-0.7,0-1.5,0-2.2c0-1.4-2.2-1.4-2.2,0C1575.3,959.5,1575.3,960.3,1575.3,961
			L1575.3,961z M1574.9,952.4c0.2,1.4,2.4,1.2,2.2-0.3c-0.1-0.7-0.2-1.5-0.3-2.2c-0.2-1.3-2.4-1.2-2.2,0.4
			C1574.8,950.9,1574.8,951.7,1574.9,952.4L1574.9,952.4z M1573.2,944c0.3,1.3,2.5,0.9,2.1-0.6c-0.2-0.7-0.4-1.4-0.7-2.1
			c-0.5-1.4-2.6-0.6-2.1,0.7C1572.8,942.6,1573,943.3,1573.2,944L1573.2,944z M1570.2,936c0.8,1.4,2.6,0.1,2-1c-0.3-0.7-0.7-1.3-1-2
			c-0.7-1.3-2.6-0.2-1.9,1C1569.5,934.7,1569.9,935.3,1570.2,936L1570.2,936z M1565.8,928.5c0.8,1.2,2.6-0.1,1.8-1.3
			c-0.4-0.6-0.9-1.2-1.3-1.8c-1-1.2-2.6,0.3-1.7,1.3C1565,927.4,1565.4,928,1565.8,928.5L1565.8,928.5z M1560.4,921.9
			c1,1,2.6-0.5,1.6-1.5c-0.5-0.5-1-1.1-1.6-1.6c-1-1-2.6,0.5-1.5,1.6C1559.4,920.9,1559.9,921.4,1560.4,921.9L1560.4,921.9z
			 M1553.9,916.2c1,0.8,2.5-0.7,1.3-1.8c-0.6-0.5-1.2-0.9-1.8-1.3c-1.1-0.8-2.5,0.9-1.2,1.8C1552.8,915.4,1553.4,915.8,1553.9,916.2
			L1553.9,916.2z M1546.7,911.5c1.2,0.7,2.3-1.2,1.1-1.9c-0.6-0.4-1.3-0.7-2-1.1c-1.1-0.7-2.4,1.2-1,2
			C1545.5,910.8,1546.1,911.1,1546.7,911.5L1546.7,911.5z M1539,907.7c1.3,0.6,2.2-1.4,0.8-2c-0.7-0.3-1.4-0.6-2.1-0.8
			c-1.4-0.5-2.1,1.5-0.8,2.1C1537.6,907.1,1538.3,907.4,1539,907.7L1539,907.7z M1530.8,904.8c1.5,0.4,1.9-1.8,0.6-2.1l-2.1-0.6
			c-1.5-0.4-1.9,1.8-0.6,2.1L1530.8,904.8L1530.8,904.8z M1522.4,902.7c1.3,0.3,2-1.8,0.4-2.2c-0.7-0.2-1.4-0.3-2.2-0.4
			c-1.6-0.2-1.7,2-0.4,2.2C1521,902.4,1521.7,902.5,1522.4,902.7z" clip-rule="evenodd" class="color8bbae9 svgShape"></path></g><g fill="#000000" class="color000000 svgShape"><polygon fill="#c4bbfa" fill-rule="evenodd" points="1021.4 879.1 971.4 918.7 992.7 934.1" clip-rule="evenodd" class="colorbbdbfa svgShape"></polygon><polygon fill="#c4bbfa" fill-rule="evenodd" points="960.7 911.7 1019.7 879.8 943 908.1" clip-rule="evenodd" class="colorbbdbfa svgShape"></polygon><polygon fill="#988be9" fill-rule="evenodd" points="960.7 911.7 969.7 937.4 971.4 918.7 1021.4 879.1 1019.7 879.8" clip-rule="evenodd" class="color8bbae9 svgShape"></polygon><polygon fill="#7764f0" fill-rule="evenodd" points="969.7 937.4 980.9 925.6 971.4 918.7" clip-rule="evenodd" class="color61a0e0 svgShape"></polygon><path fill="#988be9" fill-rule="evenodd" d="M956.5,927.1c1.4-0.8,2.4,1.2,1.2,1.9c-0.6,0.4-1.3,0.8-1.9,1.2c-1.5,0.8-2.4-1.2-1.2-1.9
			C955.2,928,955.8,927.5,956.5,927.1L956.5,927.1z M1021.5,1045c-0.4,1.4-2.6,0.9-2.2-0.6c0.2-0.7,0.4-1.4,0.5-2.2
			c0.4-1.5,2.6-0.9,2.2,0.5C1021.8,1043.5,1021.7,1044.2,1021.5,1045L1021.5,1045z M1022.9,1035.8c0,1.4-2.3,1.5-2.3-0.1
			c0-0.7,0.1-1.5,0.1-2.2c0-1.5,2.3-1.5,2.3,0C1023,1034.2,1023,1035,1022.9,1035.8L1022.9,1035.8z M1022.4,1026.5
			c0.2,1.5-1.9,1.9-2.2,0.4c-0.1-0.7-0.3-1.4-0.5-2.1c-0.4-1.5,1.8-2,2.2-0.6C1022.1,1024.9,1022.2,1025.7,1022.4,1026.5
			L1022.4,1026.5z M1019.4,1017.5c0.7,1.2-1.2,2.5-2,1c-0.3-0.6-0.7-1.4-1-1.9c-0.8-1.3,1.2-2.4,2-1.1
			C1018.7,1016.1,1019.1,1016.9,1019.4,1017.5L1019.4,1017.5z M1014.3,1009.7c1,1.2-0.8,2.6-1.7,1.5c-0.5-0.6-1-1.1-1.5-1.6
			c-1-1,0.5-2.7,1.6-1.6C1013.2,1008.6,1013.7,1009.1,1014.3,1009.7L1014.3,1009.7z M1007.5,1003.3c1.2,1-0.3,2.7-1.4,1.8
			c-0.6-0.5-1.2-0.9-1.8-1.3c-1.2-0.9,0.1-2.7,1.3-1.9C1006.3,1002.4,1006.9,1002.9,1007.5,1003.3L1007.5,1003.3z M999.7,998.3
			c1.4,0.8,0.2,2.7-1.1,2c-0.7-0.4-1.3-0.7-2-1c-1.5-0.8-0.1-2.7,1-2C998.3,997.6,999,997.9,999.7,998.3L999.7,998.3z M991.3,994.5
			c1.4,0.5,0.6,2.7-0.8,2.1l-2.1-0.8c-1.5-0.6-0.6-2.6,0.7-2.2C989.8,994,990.5,994.2,991.3,994.5L991.3,994.5z M982.5,991.8
			c1.5,0.4,0.9,2.6-0.5,2.2l-2.2-0.5c-1.6-0.4-0.9-2.6,0.5-2.2L982.5,991.8L982.5,991.8z M973.4,990.1c1.5,0.2,1.2,2.4-0.3,2.3
			l-2.2-0.3c-1.5-0.2-1.2-2.4,0.2-2.3C971.9,989.9,972.6,990,973.4,990.1L973.4,990.1z M964.2,989.3c1.5,0.2,1.4,2.3-0.1,2.3
			c-0.8,0-1.5-0.1-2.3-0.1c-1.6-0.2-1.2-2.4,0.2-2.3L964.2,989.3L964.2,989.3z M955.3,988.5c1.5,0.2,1.2,2.4-0.3,2.3
			c-0.8-0.1-1.5-0.2-2.3-0.3c-1.4-0.2-1.2-2.4,0.3-2.2C953.8,988.3,954.5,988.4,955.3,988.5L955.3,988.5z M946.4,986.9
			c1.4,0.4,0.9,2.6-0.6,2.2c-0.7-0.2-1.5-0.4-2.2-0.6c-1.3-0.3-0.9-2.6,0.6-2.2C945,986.6,945.7,986.7,946.4,986.9L946.4,986.9z
			 M938,984.1c1.3,0.6,0.5,2.7-0.9,2.1c-0.7-0.3-1.4-0.7-2.1-1c-1.3-0.8-0.2-2.7,1.1-2C936.6,983.5,937.4,983.8,938,984.1L938,984.1
			z M930.8,979.4c1,1-0.5,2.7-1.6,1.6c-0.6-0.6-1.1-1.2-1.6-1.8c-0.9-1,0.8-2.6,1.8-1.4C929.8,978.4,930.3,978.9,930.8,979.4
			L930.8,979.4z M926.7,972.1c0.3,1.3-1.8,2-2.2,0.5c-0.2-0.8-0.3-1.6-0.3-2.4c0-1.6,2.3-1.5,2.3-0.1
			C926.5,970.7,926.6,971.4,926.7,972.1L926.7,972.1z M927.2,963.7c-0.3,1.4-2.6,0.9-2.2-0.6c0.2-0.8,0.5-1.5,0.7-2.2
			c0.5-1.4,2.7-0.6,2.1,0.8C927.7,962.3,927.4,963,927.2,963.7L927.2,963.7z M930.8,955.6c-0.7,1.3-2.7,0.2-2-1.1
			c0.3-0.6,0.8-1.4,1.2-2c0.7-1.2,2.7-0.2,1.9,1.2C931.6,954.2,931,955.1,930.8,955.6L930.8,955.6z M935.9,948.3
			c-1,1.2-2.7-0.3-1.8-1.4c0.5-0.6,1-1.2,1.5-1.8c0.9-1.1,2.7,0.3,1.7,1.5C936.8,947.1,936.3,947.7,935.9,948.3L935.9,948.3z
			 M941.9,941.6c-1,1-2.7-0.5-1.6-1.6c0.5-0.5,1.1-1.1,1.7-1.6c1-1,2.7,0.5,1.6,1.7C943,940.6,942.4,941.1,941.9,941.6L941.9,941.6z
			 M948.6,935.6c-1.1,0.9-2.6-0.8-1.4-1.8l1.8-1.4c1.1-0.9,2.6,0.8,1.4,1.8C949.7,934.6,949.1,935.2,948.6,935.6z" clip-rule="evenodd" class="color8bbae9 svgShape"></path></g></svg>