<svg xmlns="http://www.w3.org/2000/svg" data-name="Layer 1" viewBox="0 0 255 250" id="VideoRecommendation"><path fill="#a192ff" d="M217.64,205.65c-.29-3.34-18.85-33.72-11.38-89.5,0,0-73.84,44.22-73.84,68.93,0,11.55-4.25,17.3-4.25,20.57,0,10.44,19,22.07,46.24,22.07C200.75,227.72,218.38,214.2,217.64,205.65Z" class="colorff9293 svgShape"></path><path fill="#a192ff" d="M103.57,107.48s-.56,26.13,1.55,37.84c1.37,7.63,6.34,14.34,6.34,22.81,0,2,1.2,10.63,1.2,11.42,0,7.55,11.36,14.61,22.11,14.61,2.38,0,9.25-25.8,9.25-25.8l-21.84-25.8Z" class="colorff9293 svgShape"></path><path fill="#b7acff" d="M222.49,86.71v0c-.1.87-.19,1.74-.31,2.6a91.76,91.76,0,0,1-7,24c2.6,2,6.08,4.77,3.47,14.09s-12.77,19.55-14.72,20.85-5.44,7.66-12.08,4.08c0,0-5.59,13.05-7.4,14.8-6.32,6-41.88,24.86-41.88,24.86-4.06,2.19-6.6,2.36-8.06,2.07,0,0-10.71-3.61-11.67-9.31-.66-3.84,1.88-8.66,0-9.81-4-2.45-8.1-6.11-10.25-9.74a.49.49,0,0,1,.71-.64c11.52,8.27,22.17,5.27,17.54,3.85-6.1-1.88-15.77-6.43-18.85-14,0-.08-.06-.15-.08-.23-3.42-9.27,10.33-34.69,11-34.87.07,0,4.77-3.42,12.09-8.5,18.35-12.72,53.21-35.92,72.68-42.28,1.25.69,2.42,1.4,3.5,2.13,5.15,3.42,8.7,7.29,10.36,11.19A12.71,12.71,0,0,1,222.49,86.71Z" class="colorffacac svgShape"></path><path fill="#cbc3ff" d="M211.11,70.68C203.05,72.8,191.26,79.1,175,94.31c-4.56,4.24-7.29,12.75-10.31,20.37-2.61,6.59-5.42,12.52-9.79,14.42s-17.36,0-27.48-5.39c-2.08-1.1-5.65.81-6.94,3.35-1,2-8.5,20.5-8,20.93s6.5,2.24,6.5,8.81a16.3,16.3,0,0,0-7.06-2.6,7.37,7.37,0,0,0-3,.37c-6.45,2.27-8.68-3.75-8-5.11s9.12-22,9.6-24.13.17-6-3.41-10.4-5-14.14-5-14.14a134.63,134.63,0,0,1,3.75-17.32l.17-.53a17.06,17.06,0,0,1,1.79-3.68s0,0,0,0c6.94-10.75,28.1-20.48,56.15-20.48,18.1,0,33.31,4,43.7,9.8C208.86,69.24,210,70,211.11,70.68Z" class="colorffc3c3 svgShape"></path><polygon fill="#a89cf7" points="145.6 190.1 145.6 190.1 145.6 190.1 145.6 190.1" class="colorf7b39c svgShape"></polygon><path fill="#a89cf7" d="M134.47,194.05l-.65-.18A4.64,4.64,0,0,0,134.47,194.05Z" class="colorf7b39c svgShape"></path><path fill="#11007a" d="M222.36,86.72C222.36,98.27,204,111,176.43,114a115.87,115.87,0,0,1-12.6.68c-34.51,0-58.55-14.72-58.55-27.94a11.7,11.7,0,0,1,.47-3.24,15.91,15.91,0,0,1,2-4.21s0,0,0,0c6.93-10.73,28.07-20.46,56.1-20.46,30.32,0,52.56,11.38,57.51,23.11A12.63,12.63,0,0,1,222.36,86.72Z" class="color00537a svgShape"></path><path fill="#ffffff" d="M163.83,115.16c-34.8,0-59.05-15-59.05-28.44a12,12,0,0,1,.49-3.38,16.49,16.49,0,0,1,2-4.34l.08-.11c6.38-9.89,26.81-20.62,56.47-20.62,31.24,0,53.18,12.07,58,23.42a13.13,13.13,0,0,1,1.06,5c0,11.14-17.35,24.57-46.38,27.76A117.31,117.31,0,0,1,163.83,115.16Zm0-55.89c-29.28,0-49.39,10.49-55.68,20.23l-.09.12a15.8,15.8,0,0,0-1.83,4,11.25,11.25,0,0,0-.45,3.11c0,13,23.84,27.44,58.05,27.44a115.14,115.14,0,0,0,12.54-.68c28.48-3.12,45.49-16.06,45.49-26.76a12.18,12.18,0,0,0-1-4.65C216.22,71,194.64,59.27,163.83,59.27Z" class="colorffffff svgShape"></path><path fill="#4326ff" d="M197.33,53.24l-51.07-30a3.3,3.3,0,0,0-3.54.11h0l-.05,0a2.23,2.23,0,0,0-.24.19l-5.57,4.34,4.12,38a3.34,3.34,0,0,0,1.64,2.89l48.61,34.58,5.93-3.63h0A3.29,3.29,0,0,0,198.7,97L199,56.13A3.34,3.34,0,0,0,197.33,53.24Z" class="colorff2657 svgShape"></path><path fill="#ffffff" d="M191.23,103.88a.46.46,0,0,1-.29-.1L142.33,69.2a3.82,3.82,0,0,1-1.85-3.3L136.36,28a.5.5,0,0,1,.19-.45l5.57-4.34.26-.2.06,0h0a3.81,3.81,0,0,1,4.08-.13l51.06,30a3.84,3.84,0,0,1,1.89,3.32L199.2,97a3.79,3.79,0,0,1-1.71,3.15l-.07.06-5.93,3.62A.5.5,0,0,1,191.23,103.88ZM137.38,28.14l4.1,37.71a2.89,2.89,0,0,0,1.4,2.52l48.37,34.41,5.59-3.42,0,0A2.78,2.78,0,0,0,198.2,97l.27-40.84a2.85,2.85,0,0,0-1.4-2.46h0L146,23.67a2.78,2.78,0,0,0-3,.1l0,0-.21.17Z" class="colorffffff svgShape"></path><path fill="#7059ff" d="M136.49,73.55l51.06,30a3.32,3.32,0,0,0,5-2.84l.27-39.84A3.32,3.32,0,0,0,191.19,58L140.13,28a3.32,3.32,0,0,0-5,2.84l-.27,39.83A3.33,3.33,0,0,0,136.49,73.55Z" class="colorff5978 svgShape"></path><path fill="#ffffff" d="M189.24,104.53a3.77,3.77,0,0,1-1.94-.54L136.23,74a3.85,3.85,0,0,1-1.88-3.33l.27-39.82a3.83,3.83,0,0,1,5.76-3.28l51.06,30a3.82,3.82,0,0,1,1.89,3.32l-.27,39.84a3.79,3.79,0,0,1-1.93,3.3A3.83,3.83,0,0,1,189.24,104.53ZM138.44,28a2.82,2.82,0,0,0-1.39.38,2.76,2.76,0,0,0-1.43,2.43l-.27,39.83a2.81,2.81,0,0,0,1.39,2.45h0l51.06,30a2.83,2.83,0,0,0,4.26-2.42l.27-39.84a2.84,2.84,0,0,0-1.39-2.45l-51.06-30A2.77,2.77,0,0,0,138.44,28Z" class="colorffffff svgShape"></path><polygon fill="#11007a" points="159.31 71.91 159.54 47.86 176.91 69.3 159.31 71.91" class="color00537a svgShape"></polygon><path fill="#ffffff" d="M159.31,72.41a.5.5,0,0,1-.33-.12.52.52,0,0,1-.17-.39L159,47.85a.48.48,0,0,1,.33-.46.52.52,0,0,1,.56.15L177.3,69a.53.53,0,0,1,.08.5.49.49,0,0,1-.39.31L159.38,72.4ZM160,49.25l-.2,22.08L176,68.93Z" class="colorffffff svgShape"></path><polygon fill="#ffffff" points="156.44 74.78 156.66 50.73 174.04 72.17 156.44 74.78" class="colorffffff svgShape"></polygon><path fill="#a091ff" d="M121.26,80.18a10.22,10.22,0,0,1,4.1,5.23c.78-1.25,2.33-1.51,4.11-.48a10.2,10.2,0,0,1,4.64,8c0,5.37-8.75,7-8.75,7s-8.74-11.69-8.74-17.06C116.62,79.89,118.7,78.7,121.26,80.18Z" class="colorffde91 svgShape"></path><path fill="#ffffff" d="M125.15,100.44l-.19-.25c-.36-.48-8.84-11.89-8.84-17.36a3.31,3.31,0,0,1,5.39-3.08h0a10.49,10.49,0,0,1,4,4.71c1-.89,2.59-.9,4.2,0a10.79,10.79,0,0,1,4.89,8.44c0,5.72-8.78,7.39-9.16,7.45Zm-6-20.4a1.91,1.91,0,0,0-1,.25,2.76,2.76,0,0,0-1.1,2.54c0,4.71,7.19,14.77,8.46,16.51,1.49-.34,8-2.06,8-6.41a9.69,9.69,0,0,0-4.39-7.57c-1.49-.86-2.77-.74-3.43.32l-.54.87-.36-1a9.61,9.61,0,0,0-3.88-5h0A3.77,3.77,0,0,0,119.18,80Z" class="colorffffff svgShape"></path><path fill="#5c42ff" d="M127,97.88s-8.46-11.31-8.46-16.5a4.19,4.19,0,0,1,.28-1.59c-1.06.33-1.74,1.4-1.74,3.06,0,5.19,8.45,16.49,8.45,16.49s5.37-1,7.55-4A16.72,16.72,0,0,1,127,97.88Z" class="colorffb642 svgShape"></path><path fill="#b7acff" d="M72.34,87.42c.55-.21,3,2.4,4.12,1.08s2.81-3.72,3.19-3.49-1.14,3.4-2.26,4.7S75.46,91.84,75.63,92c.45.41,2.85-1.13,2.87-.8.09,1.15-2.59,3-4.63,2.85-2.2-.18-8.06,11.38-10.65,13.25-3.16,2.26-6.26-3.39-5-4.37,3.64-2.88,10.15-8.71,10.86-10.43C69.51,91.37,70.12,88.23,72.34,87.42Z" class="colorffacac svgShape"></path><path fill="#ffffff" d="M46.22,105.12c5.78-.75,11-3.06,12.62-3.52s6,5.07,3.86,7c-5.38,4.86-12,6.11-16.77,6.64-5.68.62-9.77.17-9.92-3.87C35.88,107.76,39.44,106,46.22,105.12Z" class="colorffffff svgShape"></path><path fill="#a091ff" d="M50.57,208.65c.52,1.12-.43,2.92-1.37,3.73S42,218.62,38,217.09a3.31,3.31,0,0,1-1.32-.8c-.6-.66.25-4.3.92-4.95C38.45,210.49,50.15,207.72,50.57,208.65Z" class="colorffde91 svgShape"></path><path fill="#705aff" d="M43.41,208.13c2.84-1.1,6.57-1,7-.06.52,1.13-1,3-2,3.86-2.68,2.34-8.07,4.84-10,4.19a4.9,4.9,0,0,1-1.76-.9c-.6-.66,0-3,.67-3.68A34,34,0,0,1,43.41,208.13Z" class="colorff5a77 svgShape"></path><path fill="#a091ff" d="M42.09 213.1a.76.76 0 11-.56.74C41.53 213.43 41.78 213.1 42.09 213.1zM38.2 210.78l1.12 1.48-.29.53c-.55.8-.46 3.43-.46 3.43a2.2 2.2 0 01-1.75-.85c-.33-2.59.72-3.59.72-3.59z" class="colorffde91 svgShape"></path><path fill="#b7acff" d="M44.63,209.3c.24.51-.2,1.94-2.69,3a5.42,5.42,0,0,1-2.91.49.93.93,0,0,0-.39-1.06,1.08,1.08,0,0,0-1.1.05,19.15,19.15,0,0,0,.41-2C38.65,209.9,43.9,207.69,44.63,209.3Z" class="colorffacac svgShape"></path><path fill="#0a0047" d="M46.1,175.45c-.17,7-1.92,33.52-1.92,33.52s-2.61,2.42-7.56.51c0,0-1.33-20-1.78-25s0-9.14.4-10.06C36.36,172,46.26,168.48,46.1,175.45Z" class="color002e47 svgShape"></path><path fill="#0a0047" d="M37.27,138.32c1.19-.9,4.84-1.42,8.5,1.77,6.6,5.74.25,32.85.25,37.42,0,4.72-9.51,4.27-10.61-2.06-.74-4.25-2.53-19-2.76-21.66C32.4,150.88,32.37,142,37.27,138.32Z" class="color002e47 svgShape"></path><path fill="#a091ff" d="M61.42,214c.52,1.12-.43,2.92-1.37,3.74s-7.21,6.24-11.22,4.7a3.31,3.31,0,0,1-1.32-.8c-.6-.66.25-4.29.92-5C49.3,215.81,61,213,61.42,214Z" class="colorffde91 svgShape"></path><path fill="#705aff" d="M54.26,213.45c2.84-1.1,6.57-1,7-.06.52,1.13-1,3-2,3.86-2.68,2.35-8.07,4.85-10,4.19a4.9,4.9,0,0,1-1.76-.9c-.6-.66,0-3,.67-3.68A35.23,35.23,0,0,1,54.26,213.45Z" class="colorff5a77 svgShape"></path><path fill="#a091ff" d="M52.94 218.43a.76.76 0 11-.56.73A.66.66 0 0152.94 218.43zM49.05 216.1l1.12 1.48-.29.53c-.55.81-.46 3.43-.46 3.43a2.18 2.18 0 01-1.75-.84c-.33-2.6.72-3.6.72-3.6z" class="colorffde91 svgShape"></path><path fill="#b7acff" d="M55.48,214.62c.24.52-.2,1.95-2.69,3a5.44,5.44,0,0,1-2.91.49.93.93,0,0,0-.39-1.06,1.08,1.08,0,0,0-1.1,0,19.15,19.15,0,0,0,.41-2C49.5,215.22,54.75,213,55.48,214.62Z" class="colorffacac svgShape"></path><path fill="#11007a" d="M56.66,181.19c-.16,7-1.88,33.07-1.88,33.07a6.23,6.23,0,0,1-7.53,1.81s-1.4-20.9-1.84-25.82-.16-9.95.25-10.87C46.77,176.88,56.83,174.22,56.66,181.19Z" class="color00537a svgShape"></path><path fill="#11007a" d="M46.1,144.35c1.18-.89,5.7-3.46,9.45-.37,5.07,4.17,1,34.7,1,39.27,0,4.72-9.52,4.27-10.61-2.06-.74-4.25-3.55-22.65-3.78-25.31C42,153,41.2,148.06,46.1,144.35Z" class="color00537a svgShape"></path><path fill="#0a0047" d="M42.49,158.24c-.15-1.11-.25-1.94-.29-2.36-.25-2.91-1-7.82,3.9-11.53,1.18-.89,5.7-3.46,9.45-.37C56.94,145.12,53.47,153.88,42.49,158.24Z" class="color002e47 svgShape"></path><path fill="#7764f0" d="M34.15,123.85c-1.08-7.23-.74-17.13,7-17.13,3.85,0,16.48,3.19,16.48,11.35,0,7.17-1.22,23.12.77,31.69,0,0-20.59,4.48-26.3-2.12C32.14,147.64,35.23,131.08,34.15,123.85Z" class="color4b6dff svgShape"></path><path fill="#b7acff" d="M46.54,93.67c.75-.48,7.22-.42,7.31.53s-.83,2.3-.49,3.19a3.6,3.6,0,0,1,0,2.78c-1.68,2.79-2.82,5.14-4.64,4.61-.46,1.91,1.31,4.11,1.07,4.07a31.86,31.86,0,0,1-6.39-2.16c.66-4.26-.4-7.49,1.85-11.52A4.07,4.07,0,0,1,46.54,93.67Z" class="colorffacac svgShape"></path><path fill="#0a0047" d="M44.51,89c0-3.28,6-2.58,5.87-.09,2.62-1.5,6.27,2,3.87,6.6,0,0-.48-1.46-1.51-1,0,2.38-1.61,1-2.17,3.76-.34,1.68-.87,3.43-2.37,4.43-1.28.86-4.55,0-4.55,0,0-2.31-4.24-6-2.9-8.48A3.65,3.65,0,0,1,44.51,89Z" class="color002e47 svgShape"></path><path fill="#ffffff" d="M43.82,104.78c1.45.09,2.73.33,5.82,1.91a3.62,3.62,0,0,1,1.65,3l-9.49-3,.87-1.34A1.32,1.32,0,0,1,43.82,104.78Z" class="colorffffff svgShape"></path><path fill="#b7acff" d="M65.08,146.87c.42.33,1.52,1.72,2.27,1.45,1.61-.57,3.7-.7,3.52,0-.1.34-2,.94-2.82,1.5s.43.79.81,1.37A22.46,22.46,0,0,1,71.15,157c.15.73-1.64-1-2.34-3-.85-2.5-.34,1.1-.9,1.49-.93.66-3.84-.37-4.92-.79-.59-.22-1-1.64-.51-3.05,0-.11.66-1-1.11-2.67-3.69-3.43-11.82-11.62-11.82-11.62l5.11-3.82S61.89,144.39,65.08,146.87Z" class="colorffacac svgShape"></path><path fill="#ffffff" d="M53.19,112.07c3.35.82,4,4.56,3.07,11.05a61.26,61.26,0,0,0-.57,10.94c0,1.64-5.74,5.8-7,3.35-3.07-6.24-2.49-12.65-1.72-17.21C47.93,114.8,49.41,111.14,53.19,112.07Z" class="colorffffff svgShape"></path><polygon fill="#a091ff" points="137.4 84.05 135.74 81.73 132.35 80.97 134.68 79.61 133.94 77.2 137.03 78.68 139.96 77.95 139.55 80.22 142.1 82.18 138.75 82.1 137.4 84.05" class="colorffde91 svgShape"></polygon><path fill="#ffffff" d="M137.4,84.55a.51.51,0,0,1-.41-.21l-1.54-2.16-3.2-.72a.51.51,0,0,1-.39-.41.51.51,0,0,1,.24-.51l2-1.16-.62-2a.5.5,0,0,1,.7-.6l2.92,1.4,2.76-.68a.49.49,0,0,1,.46.12.5.5,0,0,1,.15.45l-.36,2,2.31,1.77a.52.52,0,0,1,.17.57.47.47,0,0,1-.49.33L139,82.61l-1.2,1.72A.58.58,0,0,1,137.4,84.55Zm-3.69-3.79,2.14.48a.52.52,0,0,1,.3.2l1.24,1.74,1-1.36a.54.54,0,0,1,.43-.22l1.81.05-1.34-1a.52.52,0,0,1-.19-.49l.28-1.51-2.18.55a.56.56,0,0,1-.34,0l-2.06-1,.4,1.33a.5.5,0,0,1-.22.58Z" class="colorffffff svgShape"></path><polygon fill="#a091ff" points="146.75 89.72 145.1 87.4 141.71 86.64 144.03 85.29 143.29 82.87 146.38 84.35 149.31 83.62 148.9 85.89 151.45 87.85 148.11 87.78 146.75 89.72" class="colorffde91 svgShape"></polygon><path fill="#ffffff" d="M146.75,90.22a.52.52,0,0,1-.41-.21l-1.54-2.16-3.2-.72a.5.5,0,0,1-.38-.41.48.48,0,0,1,.24-.51l2-1.16-.63-2a.51.51,0,0,1,.7-.6l2.92,1.41,2.76-.69a.49.49,0,0,1,.46.12.48.48,0,0,1,.15.45l-.35,2,2.3,1.78a.49.49,0,0,1,.17.56.46.46,0,0,1-.48.33l-3.08-.07L147.16,90A.46.46,0,0,1,146.75,90.22Zm-3.69-3.79,2.15.48a.55.55,0,0,1,.3.2l1.24,1.74.95-1.36a.5.5,0,0,1,.42-.21l1.81,0-1.34-1a.5.5,0,0,1-.18-.49l.27-1.5-2.18.54a.5.5,0,0,1-.34,0l-2.06-1,.41,1.32a.5.5,0,0,1-.23.58Z" class="colorffffff svgShape"></path><polygon fill="#a091ff" points="156.1 95.39 154.45 93.08 151.06 92.31 153.38 90.96 152.65 88.55 155.73 90.03 158.67 89.3 158.25 91.57 160.8 93.53 157.46 93.45 156.1 95.39" class="colorffde91 svgShape"></polygon><path fill="#ffffff" d="M156.1,95.89a.49.49,0,0,1-.4-.21l-1.54-2.16L151,92.8a.49.49,0,0,1-.38-.41.51.51,0,0,1,.24-.51l2-1.15-.62-2a.49.49,0,0,1,.69-.59l2.93,1.4,2.76-.69a.5.5,0,0,1,.61.58l-.36,2,2.31,1.77a.5.5,0,0,1-.32.9L157.72,94l-1.21,1.73A.57.57,0,0,1,156.1,95.89Zm-3.69-3.79,2.15.49a.46.46,0,0,1,.3.19l1.24,1.74,1-1.36a.57.57,0,0,1,.42-.21l1.82,0L158,92a.5.5,0,0,1-.19-.48L158,90l-2.19.54a.47.47,0,0,1-.33,0l-2.06-1,.4,1.32a.49.49,0,0,1-.22.58Z" class="colorffffff svgShape"></path><polygon fill="#a091ff" points="165.46 101.06 163.81 98.75 160.42 97.99 162.74 96.63 162 94.22 165.09 95.7 168.02 94.97 167.61 97.24 170.16 99.2 166.82 99.12 165.46 101.06" class="colorffde91 svgShape"></polygon><path fill="#ffffff" d="M165.46,101.56a.51.51,0,0,1-.41-.2l-1.54-2.17-3.2-.72a.49.49,0,0,1-.14-.91l2-1.16-.62-2a.5.5,0,0,1,.7-.6l2.92,1.4,2.76-.69a.51.51,0,0,1,.46.12.5.5,0,0,1,.15.46l-.36,2,2.31,1.77a.51.51,0,0,1,.17.57.5.5,0,0,1-.48.33l-3.08-.07-1.2,1.72A.38.38,0,0,1,165.46,101.56Zm-3.69-3.78,2.15.48a.5.5,0,0,1,.29.2l1.24,1.74,1-1.36a.55.55,0,0,1,.42-.22l1.81,0-1.34-1a.49.49,0,0,1-.18-.49l.27-1.51-2.18.55a.57.57,0,0,1-.34,0l-2.06-1,.41,1.33a.5.5,0,0,1-.23.57Z" class="colorffffff svgShape"></path><polygon fill="#a091ff" points="174.81 106.74 173.16 104.42 169.77 103.66 172.09 102.31 171.35 99.89 174.44 101.37 177.37 100.64 176.96 102.91 179.51 104.87 176.17 104.8 174.81 106.74" class="colorffde91 svgShape"></polygon><path fill="#ffffff" d="M174.81,107.24a.49.49,0,0,1-.4-.21l-1.55-2.16-3.2-.72a.5.5,0,0,1-.38-.41.49.49,0,0,1,.24-.51l2-1.16-.62-2a.5.5,0,0,1,.69-.6l2.92,1.4,2.76-.68a.51.51,0,0,1,.47.12.5.5,0,0,1,.15.45l-.36,2,2.31,1.78a.49.49,0,0,1,.16.56.47.47,0,0,1-.48.33l-3.07-.07L175.22,107a.48.48,0,0,1-.41.22Zm-3.69-3.79,2.15.48a.52.52,0,0,1,.3.2l1.24,1.74.95-1.36a.51.51,0,0,1,.42-.22l1.82,0-1.34-1a.51.51,0,0,1-.19-.49l.27-1.51-2.18.55a.51.51,0,0,1-.34,0l-2.05-1,.4,1.32a.5.5,0,0,1-.23.58Z" class="colorffffff svgShape"></path></svg>