<svg xmlns="http://www.w3.org/2000/svg" id="Integration" x="0" y="0" enable-background="new 0 0 1600 1200" version="1.1" viewBox="0 0 1600 1200" xml:space="preserve"><switch><g fill="#000000" class="color000000 svgShape"><linearGradient id="SVGID_1_" x1="0" x2="0" y1="0" y2="-1" gradientUnits="userSpaceOnUse"><stop offset="0" stop-color="#3a1df4" class="stopColor1d59f4 svgShape"></stop><stop offset=".618" stop-color="#472dee" class="stopColor2d65ee svgShape"></stop><stop offset=".629" stop-color="#7764f0" class="stopColor3864f3 svgShape"></stop><stop offset=".983" stop-color="#2200fc" class="stopColor00ddfc svgShape"></stop></linearGradient><linearGradient id="SVGID_2_" x1="0" x2="0" y1="0" y2="-1" gradientUnits="userSpaceOnUse"><stop offset="0" stop-color="#060606" class="stopColor060606 svgShape"></stop><stop offset=".618"></stop><stop offset=".629"></stop><stop offset=".983"></stop></linearGradient><g id="Data_graphics" fill="#000000" class="color000000 svgShape"><polygon fill="#4b30fa" points="629.1 290.6 627.1 290.6 627.1 283.6 634.1 283.6 634.1 285.6 629.1 285.6" class="color30a9fa svgShape"></polygon><path fill="#4b30fa" d="M709.4,285.6h-12.5v-2h12.5V285.6z M684.3,285.6h-12.5v-2h12.5V285.6z M659.2,285.6h-12.5v-2h12.5V285.6z" class="color30a9fa svgShape"></path><polygon fill="#4b30fa" points="728.9 290.6 726.9 290.6 726.9 285.6 721.9 285.6 721.9 283.6 728.9 283.6" class="color30a9fa svgShape"></polygon><path fill="#4b30fa" d="M728.9,365.8h-2v-12.5h2V365.8z M728.9,340.7h-2v-12.5h2V340.7z M728.9,315.6h-2v-12.5h2V315.6z" class="color30a9fa svgShape"></path><polygon fill="#4b30fa" points="728.9 385.4 721.9 385.4 721.9 383.4 726.9 383.4 726.9 378.4 728.9 378.4" class="color30a9fa svgShape"></polygon><path fill="#4b30fa" d="M709.4,385.4h-12.5v-2h12.5V385.4z M684.3,385.4h-12.5v-2h12.5V385.4z M659.2,385.4h-12.5v-2h12.5V385.4z" class="color30a9fa svgShape"></path><polygon fill="#4b30fa" points="634.1 385.4 627.1 385.4 627.1 378.4 629.1 378.4 629.1 383.4 634.1 383.4" class="color30a9fa svgShape"></polygon><path fill="#4b30fa" d="M629.1,365.8h-2v-12.5h2V365.8z M629.1,340.7h-2v-12.5h2V340.7z M629.1,315.6h-2v-12.5h2V315.6z" class="color30a9fa svgShape"></path><polygon fill="#4b30fa" points="794 930 702.9 930 702.9 869.6 597 869.6 597 500.2 824.9 500.2 824.9 355 729 355 729 349 830.9 349 830.9 506.2 603 506.2 603 863.6 708.9 863.6 708.9 924 788 924 788 556.8 878 556.8 878 562.8 794 562.8" class="color30a9fa svgShape"></polygon><rect width="99.8" height="99.8" x="675.1" y="441.6" fill="#d3cdf9" class="colorcde7f9 svgShape"></rect><circle cx="880" cy="560" r="7" fill="#6047fd" class="colorfdd047 svgShape"></circle><polygon fill="#4b30fa" points="1126 953 980 953 980 563 904 563 904 557 986 557 986 947 1120 947 1120 507 1126 507" class="color30a9fa svgShape"></polygon><rect width="219.3" height="84.4" x="531" y="629.4" fill="#d3cdf9" class="colorcde7f9 svgShape"></rect><rect width="99.8" height="99.8" x="1055.2" y="567.6" fill="#d3cdf9" class="colorcde7f9 svgShape"></rect><rect width="219.3" height="102.9" x="830.4" y="705.8" fill="#d3cdf9" class="colorcde7f9 svgShape"></rect><rect width="309.2" height="114.6" x="975.8" y="405.8" fill="#d3cdf9" class="colorcde7f9 svgShape"></rect><circle cx="906" cy="560" r="7" fill="#2f13e0" class="color13e0cf svgShape"></circle><path fill="#2300ff" d="M1117.4,607.1h-20.3c-2,0-3.6,1.6-3.6,3.6v17.3h-16c-2,0-3.6,1.6-3.6,3.6v14c0,2,1.6,3.6,3.6,3.6h39.8
						V607.1z" class="colorffca00 svgShape"></path><path fill="#2200f7" d="M1114.2,590.7V649h17.5c2,0,3.6-1.6,3.6-3.6v-54.7c0-2-1.6-3.6-3.6-3.6h-14
						C1115.8,587.2,1114.2,588.8,1114.2,590.7z" class="colorf77e00 svgShape"></path><path fill="#2504fa" d="M730.2,462.8L730.2,462.8c-5.2-3-11.9-1.2-15,4L692.6,506c-3,5.2-1.2,11.9,4,15h0c5.2,3,11.9,1.2,15-4
						l22.6-39.2C737.2,472.5,735.4,465.8,730.2,462.8z" class="colorfabc04 svgShape"></path><path fill="#513cd9" d="M719.2,462.5L719.2,462.5c5.2-3,11.9-1.2,15,4l22.6,39.2c3,5.2,1.2,11.9-4,15v0c-5.2,3-11.9,1.2-15-4
						l-22.6-39.2C712.2,472.2,714,465.5,719.2,462.5z" class="color3c8bd9 svgShape"></path><circle cx="702.1" cy="511.4" r="11.1" fill="#4434a8" class="color34a852 svgShape"></circle><polygon fill="#4b30fa" points="1158 670 1055 670 1055 664 1152 664 1152 568 1158 568" class="color30a9fa svgShape"></polygon><rect width="99.8" height="99.8" x="550.1" y="803.2" fill="#d3cdf9" class="colorcde7f9 svgShape"></rect><g fill="#000000" class="color000000 svgShape"><polygon fill="#4b30fa" points="778 544 675 544 675 538 772 538 772 442 778 442" class="color30a9fa svgShape"></polygon></g><g fill="#000000" class="color000000 svgShape"><path fill="#2300ff" d="M599.7,824.3L575.6,837c-0.8,0.4-0.8,1.5,0,1.9l24.1,12.5c0.3,0.2,0.7,0.2,1,0l24.1-12.5
						c0.8-0.4,0.8-1.5,0-1.9l-24.1-12.7C600.4,824.1,600,824.1,599.7,824.3z" class="color0069ff svgShape"></path><path fill="#2300ff" d="M576.7,844.9l-7.8,4.1c-0.8,0.4-0.8,1.5,0,1.9l30.8,16.1c0.3,0.2,0.7,0.2,1,0l30.8-16.1
						c0.8-0.4,0.8-1.5,0-1.9l-7.8-4.1c-0.3-0.2-0.7-0.2-1,0l-21.9,11.6c-0.3,0.2-0.7,0.2-1,0l-22.2-11.6
						C577.3,844.7,577,844.7,576.7,844.9z" class="color0069ff svgShape"></path><path fill="#2300ff" d="M570.4,857.1l-7.8,4.1c-0.8,0.4-0.8,1.5,0,1.9l37.1,19.7c0.3,0.2,0.7,0.2,1,0l37.5-19.7
						c0.8-0.4,0.8-1.5,0-1.9l-7.8-4.1c-0.3-0.2-0.7-0.2-1,0l-28.6,15.2c-0.3,0.2-0.7,0.2-1,0l-28.4-15.2
						C571.1,857,570.7,857,570.4,857.1z" class="color0069ff svgShape"></path></g><g fill="#000000" class="color000000 svgShape"><polygon fill="#4b30fa" points="653 906 550 906 550 900 647 900 647 803 653 803" class="color30a9fa svgShape"></polygon></g><g fill="#000000" class="color000000 svgShape"><rect width="99.6" height="7.2" x="561.5" y="651.9" fill="#ffffff" class="colorffffff svgShape"></rect></g><g fill="#000000" class="color000000 svgShape"><rect width="158.5" height="7.2" x="561.5" y="667.9" fill="#ffffff" class="colorffffff svgShape"></rect></g><g fill="#000000" class="color000000 svgShape"><rect width="158.5" height="7.2" x="561.5" y="683.8" fill="#ffffff" class="colorffffff svgShape"></rect></g><g fill="#000000" class="color000000 svgShape"><rect width="99.6" height="7.2" x="860.5" y="737.9" fill="#ffffff" class="colorffffff svgShape"></rect></g><g fill="#000000" class="color000000 svgShape"><rect width="158.5" height="7.2" x="860.5" y="753.9" fill="#ffffff" class="colorffffff svgShape"></rect></g><g fill="#000000" class="color000000 svgShape"><rect width="158.5" height="7.2" x="860.5" y="769.8" fill="#ffffff" class="colorffffff svgShape"></rect></g><g fill="#000000" class="color000000 svgShape"><circle cx="1049.6" cy="463.8" r="31.5" fill="#2908f9" class="color0879f9 svgShape"></circle><path fill="#ffffff" d="M1040.9,482.5l-14.8-14c-1.2-1.1-1.2-3-0.1-4.2v0c1.1-1.2,3-1.2,4.2-0.1l10.5,10l26.2-26.8
							c1.1-1.2,3-1.2,4.2-0.1l0,0c1.2,1.1,1.2,3,0.1,4.2L1040.9,482.5z" class="colorffffff svgShape"></path><rect width="95" height="6.8" x="1091.8" y="445.9" fill="#ffffff" class="colorffffff svgShape"></rect><rect width="151.2" height="6.8" x="1091.8" y="461.1" fill="#ffffff" class="colorffffff svgShape"></rect><rect width="151.2" height="6.8" x="1091.8" y="476.3" fill="#ffffff" class="colorffffff svgShape"></rect></g></g><g id="Sitting_woman" fill="#000000" class="color000000 svgShape"><polygon fill="#bcb1ff" points="1180 1038.9 1173.3 1077.8 1169.8 1097.9 1114.5 1098.7 1140.5 1082.4 1140.8 1074 1142.4 1036.3" class="colorffb1df svgShape"></polygon><path fill="#120a46" d="M1177.7,1106.9l-6-21.2c0,0-26.2,19.5-48.1,6.3l-33.4,16.1c-3.8,2-2.4,7.7,1.9,7.7h78.9
					C1175.6,1115.8,1179,1111.3,1177.7,1106.9z" class="color0f0a46 svgShape"></path><polygon fill="#bcb1ff" points="1323 1038.9 1322.9 1075.5 1322.8 1097.9 1267.5 1098.7 1293.5 1082.4 1292.8 1078.4 1285.4 1036.3" class="colorffb1df svgShape"></polygon><path fill="#120a46" d="M1330.7,1106.9l-6-21.2c0,0-26.2,19.5-48.1,6.3l-33.4,16.1c-3.8,2-2.4,7.7,1.9,7.7h78.9
					C1328.6,1115.8,1332,1111.3,1330.7,1106.9z" class="color0f0a46 svgShape"></path><path fill="#bcb1ff" d="M1387.4,651.9l-47.1-1.7l-0.7-32.1l-0.3-14.8l0.1-0.4c0,0-16.9,5.3-17.6-14.7c-0.1-2.9-0.7-11.7-0.7-11.7
					s-3.5-0.5-5.1-4.1c0,0,5.3-8.3,5.6-18.7c0.1-3.3,0.5-8.8,3.8-12.5l55.8,18.3L1387.4,651.9z" class="colorffb1df svgShape"></path><path fill="#6e5ed3" d="M1354.3 578l-2.7-1.3c4.3-8.5 3.2-11.4 2.6-12.2-1.2-1.5-4.2-.8-4.2-.8l-.7-2.9c.2 0 4.8-1.1 7.2 1.9C1358.8 565.4 1358.1 570.5 1354.3 578zM1324.5 588.6c-.1 0-.2 0-.2 0l.1-3c0 0 3.6.1 6-2.2l2.1 2.2C1329.5 588.4 1325.5 588.6 1324.5 588.6z" class="colord35eaf svgShape"></path><path fill="#bcb1ff" d="M1448.7 693.3l30.6 66.8c4 8.8 1.7 19.2-5.6 25.4l-74.5 63.6-19-26.3 58.4-54.2-30-61.6L1448.7 693.3zM1288.7 714.4l-17.6 14.3-27.6 22.5c-6.7 5.4-16.3 5.1-22.6-.8l-70.1-63.5c-12.6-8.4-14.7-19-14.7-19-1.1-2.1 1.1-4.2 1.1-4.2 0-3.2 3.2-4.2 3.2-4.2 1.1-3.2 4.2-3.2 4.2-3.2 1.1-3.2 4.2-3.2 4.2-3.2s-3.2-5.3-8.4-12.6c-5.3-7.4 0-11.6 0-11.6l15.8 20 17.9 26.3 59 32.6 23.7-20.1 11.1-9.4L1288.7 714.4z" class="colorffb1df svgShape"></path><path fill="#6e5ed3" d="M1358,591.1c0,0-3.3,17.4-18.4,26.9l-0.3-14.8C1345.3,602.1,1352.2,598,1358,591.1z" class="colord35eaf svgShape"></path><circle cx="1325.6" cy="564.4" r="2.4" fill="#6e5ed3" class="colord35eaf svgShape"></circle><ellipse cx="1327" cy="557.8" fill="#6e5ed3" rx="3.8" ry="1.4" class="colord35eaf svgShape"></ellipse><path fill="#1a105b" d="M1429.8,571.4c-3.5-9.9-17.5-17.7-31.1-17.5c1.9-21.2-3.9-43.7-38-40.8c0,0-14.8-5-32.8,6.5
					c-13.2,8.5-12.3,28.3,1.7,30.8c2.1,0.5,4.3,0.7,6.2,0.3l0.9,6.5c0.5,3.8,5,5.5,8,3c3.7-3.1,8.8-4.7,14.9,0.3
					c2.2,1.8,1.8,6.4,0.5,10.9c-0.8,1.6-1.6,3.5-2.3,5.7c-0.4,0.7,0.1,29.9,23.8,36.9C1423.2,626.1,1435.5,587.5,1429.8,571.4z" class="color46105b svgShape"></path><polygon fill="#6e5ed3" points="1288.7 714.4 1271.1 728.7 1256.5 688 1267.6 678.6" class="colord35eaf svgShape"></polygon><path fill="#4e36e7" d="M1287.6,841.8l20-103.2l-4.2-31.6l-19,14.7l-24.2-39c0,0,49.5-49.5,66.3-53.7c16.8-4.2,75.8,0,75.8,0
					s15.8,3.2,26.3,22.1l26.3,49.5l-28.4,9.5L1420,822L1287.6,841.8z" class="colore7364d svgShape"></path><path fill="#6e5ed3" d="M1180 1038.9l-6.7 38.9c-10.8-1.3-22.8-2.7-32.4-3.8l1.5-37.8L1180 1038.9zM1323 1038.9l-.1 36.6c-8.9.7-20 1.9-30.1 2.9l-7.4-42.1L1323 1038.9z" class="colord35eaf svgShape"></path><polygon fill="#120a46" points="1251.6 846.7 1283 1066.3 1341 1066.3 1336.8 861" class="color0f0a46 svgShape"></polygon><path fill="#120a46" d="M1297.3,797.2l-81.6,9.7c-24.1,3.1-43.6,21.2-48.5,45l-33.2,214.4h62.1l42.2-187.1l82-4.1
					c0,0,75.5-11.8,89.6-33.3c14.1-21.5,11.4-30.5,11.4-30.5L1297.3,797.2z" class="color0f0a46 svgShape"></path><path fill="#ffffff" d="M1442,679.3l-12.5-23.5c-12.7-23.9-30.6-25.4-30.8-25.4l-59.5-1.3l0.1-3l59.6,1.3
					c0.9,0.1,19.8,1.6,33.3,27l12.5,23.5L1442,679.3z" class="colorffffff svgShape"></path><rect width="38.9" height="3" x="1284.1" y="704.5" fill="#ffffff" transform="rotate(-39.929 1303.691 706.027)" class="colorffffff svgShape"></rect></g><g id="Chair" fill="#000000" class="color000000 svgShape"><rect width="114.3" height="17.4" x="1322" y="1098.6" fill="#d3cdf9" class="colorcde7f9 svgShape"></rect><rect width="20.7" height="216.9" x="1369.2" y="884.2" fill="#d3cdf9" class="colorcde7f9 svgShape"></rect><path fill="#492cff" d="M1493.3,696.5c0,1.4-0.1,2.7-0.1,4c0,0.3,0,0.7,0,1c-3.3,106.3-7.5,125.5-28.3,155.7
					c-35,50.8-158.9,33.5-197.2,26.8c-1.5-0.3-2.8-0.5-4-0.7c-4.8-0.9-7.4-1.5-7.4-1.5c0.1-7.7,0.8-8.2,1.7-13.5
					c2.4-13.4,14.5-22.9,28.1-22.1c20.8,1.2,52.6,3.7,71.6-3.7c21.1-8.2,29.3-69.4,31.6-114c1.2-22.8,15.8-33.2,41.3-37.4l54.5-3.3
					C1489.6,688,1493.4,691.8,1493.3,696.5z" class="colorff9b2c svgShape"></path><path fill="#ffffff" d="M1493.3,701.5l-0.2,0l-1.7,0.4l-0.4-1.9l0.1,2c-1.3,0.1-50.3,4.9-70.2,7.5c-8.9,1.2-10.8,12.6-11.2,19.2
					c-1.9,35.6-4.9,75.7-15.7,101.2c-9.4,22.2-31.1,34.5-62.8,35.5c-22.1,0.7-41.5-4.1-44.6-5c-11.3,1.8-16.7,15.8-18.9,23.6
					c-1.5-0.3-2.8-0.5-4-0.7c2.4-8.6,8.7-25,22.8-26.9l0.4-0.1l0.4,0.1c0.2,0,20.9,5.7,43.9,4.9c30.4-1,50.3-12.2,59.2-33.1
					c10.6-24.9,13.5-64.6,15.4-99.9c0.4-7.9,2.9-21.4,14.6-23c10.5-1.4,29-3.4,42.7-4.8c7.6-0.8,14.5-1.5,19.6-2
					c2.5-0.3,4.6-0.5,6-0.6c0.8-0.1,1.4-0.1,2-0.2c1.5,0,2.2,0.3,2.4,1.6l0.2,0.9L1493.3,701.5z" class="colorffffff svgShape"></path></g><g id="Woman_standing_up" fill="#000000" class="color000000 svgShape"><path fill="#1a105b" d="M382.9,352c0,0,33.1,57.1-19.6,68.8l-54.2,1.5c0,0-45.1-12-30.2-40.5l21-34.2c0,0,1.6-42.3,33.8-45.6
					c0,0,61.3-2.2,60.3,23.5C393.8,325.5,392.6,342.1,382.9,352z" class="color46105b svgShape"></path><path fill="#bcb1ff" d="M323.2,376.8l-6,72.8L364,450l-2.9-42l-0.8-11.8l0-0.1c32.7,1.1,11.8-67.8,11.8-67.8
					c-10.3,23.1-31.4,21.3-31.4,21.3c-17.1-2.1-22,8.1-22,8.1C298.9,365.5,323.2,376.8,323.2,376.8z" class="colorffb1df svgShape"></path><path fill="#ffffff" d="M367.8,377.6c-2.2,2.4-7.3,6.1-14.2,1.5c-0.6-0.4-0.4-1.4,0.4-1.5l13.2-1.4
					C367.9,376.2,368.4,377.1,367.8,377.6z" class="colorffffff svgShape"></path><polygon fill="#6e5ed3" points="358.4 374.9 357.1 371 359.7 370.2 356.7 358.7 360.6 357.7 364.5 372.9" class="colord35eaf svgShape"></polygon><circle cx="368.4" cy="356" r="1.7" fill="#6e5ed3" transform="rotate(-12.446 368.37 355.958)" class="colord35eaf svgShape"></circle><circle cx="346.8" cy="361.3" r="1.7" fill="#6e5ed3" transform="rotate(-12.446 346.813 361.299)" class="colord35eaf svgShape"></circle><ellipse cx="367.6" cy="350.2" fill="#6e5ed3" rx="5.6" ry="1.9" transform="rotate(-19.559 367.658 350.224)" class="colord35eaf svgShape"></ellipse><ellipse cx="344.8" cy="354.7" fill="#6e5ed3" rx="5.6" ry="1.9" transform="rotate(-5.618 344.755 354.662)" class="colord35eaf svgShape"></ellipse><path fill="#1a105b" d="M368.9 365.3c-4.2 0-8.3-2.5-10.1-6.6l0 0c-2.4-5.5.2-12 5.8-14.3 5.5-2.4 12 .2 14.3 5.8 2.4 5.5-.2 12-5.8 14.3C371.7 365 370.3 365.3 368.9 365.3zM362.5 357.1c1.5 3.5 5.6 5.2 9.1 3.7 3.5-1.5 5.2-5.6 3.7-9.1-1.5-3.5-5.6-5.2-9.1-3.7C362.6 349.5 361 353.6 362.5 357.1L362.5 357.1zM347.2 371c-1.4 0-2.8-.3-4.1-.8-2.7-1.1-4.8-3.2-6-5.9l0 0c-2.4-5.5.2-12 5.8-14.3 5.5-2.4 12 .2 14.3 5.8s-.2 12-5.8 14.3C350.1 370.7 348.6 371 347.2 371zM340.8 362.8c1.5 3.5 5.6 5.2 9.1 3.7 1.7-.7 3-2.1 3.7-3.8.7-1.7.7-3.6-.1-5.3-1.5-3.5-5.6-5.2-9.1-3.7C341 355.2 339.3 359.3 340.8 362.8L340.8 362.8z" class="color46105b svgShape"></path><rect width="5.3" height="4" x="354.3" y="352.2" fill="#1a105b" transform="rotate(-13.657 356.988 354.231)" class="color46105b svgShape"></rect><path fill="#1a105b" d="M319,359.5l-3.9-0.7c0.4-2,1.4-3.5,3-4.5c2.9-1.8,6.7-1,7.8-0.7l13.5,0.5l-0.1,4l-14-0.5l-0.2-0.1
					c-0.8-0.2-3.4-0.7-4.8,0.2C319.8,357.9,319.2,358.3,319,359.5z" class="color46105b svgShape"></path><path fill="#6e5ed3" d="M331,384.8c0,0,2.4,13.8,30.1,23.2l-0.8-11.8C351.7,395.6,340.4,393,331,384.8z" class="colord35eaf svgShape"></path><polygon fill="#bcb1ff" points="230.3 1038.9 222.4 1072.8 216.6 1097.9 161.3 1098.7 187.3 1082.4 188.2 1075.1 192.7 1036.3" class="colorffb1df svgShape"></polygon><path fill="#120a46" d="M225.7,1106.9l-6-21.2c0,0-26.2,19.5-48.1,6.3l-33.4,16.1c-3.8,2-2.4,7.7,1.9,7.7H219
					C223.6,1115.8,227,1111.3,225.7,1106.9z" class="color0f0a46 svgShape"></path><polygon fill="#bcb1ff" points="433.5 1098.7 378.3 1097.9 373.9 1073 368 1038.9 405.6 1036.3 407 1068.4 407.5 1082.4" class="colorffb1df svgShape"></polygon><path fill="#120a46" d="M370.3,1106.9l6-21.2c0,0,26.2,19.5,48.1,6.3l33.4,16.1c3.8,2,2.4,7.7-1.9,7.7H377
					C372.4,1115.8,369,1111.3,370.3,1106.9z" class="color0f0a46 svgShape"></path><polygon fill="#6e5ed3" points="230.3 1038.9 222.4 1072.8 188.2 1075.1 192.7 1036.3" class="colord35eaf svgShape"></polygon><polygon fill="#6e5ed3" points="407 1068.4 373.9 1073 368 1038.9 405.6 1036.3" class="colord35eaf svgShape"></polygon><rect width="98.1" height="99.4" x="557" y="304.5" fill="#d3cdf9" transform="rotate(-41.481 606.044 354.194)" class="colorcde7f9 svgShape"></rect><path fill="#bcb1ff" d="M586.7,406.2c0,0-4.3,4.6-9,9.5c-4.5,4.7-9.5,9.6-11.7,11.3l-20.8-10.4c0-0.9,6.4-13.2,9.1-18.4
					c0.8-1.5,1.3-2.4,1.3-2.4l10.4-35.8c0,0,6.9,6.9,2.3,24.3L586.7,406.2z" class="colorffb1df svgShape"></path><path fill="#6e5ed3" d="M577.6,415.7c-4.5,4.7-9.5,9.6-11.7,11.3l-20.8-10.4c0-0.9,6.4-13.2,9.1-18.4L577.6,415.7z" class="colord35eaf svgShape"></path><path fill="#120a46" d="M274.3,640.1c0,0-13.1,20.2-18.2,53.5l-72.7,373.7h55.5l97-352.5l17.2,347.4h55.5l-1-388.8
					c0,0-5-33.3-17.2-43.4L274.3,640.1z" class="color0f0a46 svgShape"></path><path fill="#2908f9" d="M201.8,552.4c5.5-25.3,34.6-68.8,45.2-94.4c6.9-16.8,30.6-42.7,69.3-43.2c0,0,30.8,46.7,48,6.8l93.9,40.3
					l95-62l24,31l-93.3,78.2c-7.4,6.2-17.3,8.6-26.7,6.4L406.1,505c0,14-2.2,24.9-5,30c-3.7,6.6-10.5,17.4-10.5,17.4
					s9.1,77.3,14.1,96.4c0,0-93.4,11.2-144.6,5.2l9.4-62.1C269.4,591.9,194.6,585.6,201.8,552.4z" class="color0879f9 svgShape"></path><path fill="#ffffff" d="M396.8,585.9l-7.9-33.8l0.4-0.6c0.2-0.3,19.6-26.5,14.8-43.6c-3.4-12.4-7.6-22.6-13.3-35.1l2.7-1.2
					c5.7,12.6,9.9,23,13.4,35.6c4.8,17.3-11.9,41.6-14.9,45.7l7.6,32.4L396.8,585.9z" class="colorffffff svgShape"></path><polygon fill="#ffffff" points="333.8 552.5 248.2 535.1 277.8 480.5 280.4 481.9 252.7 533 334.4 549.5" class="colorffffff svgShape"></polygon><path fill="#ffffff" d="M222.9,507.8l-2.7-1.4c0.2-0.5,23.3-45.5,32.3-60c19.9-32.2,63.4-33.1,63.9-33.1l0.8,0l0.5,0.7
					c9.6,14,19.3,21.5,27.9,21.6c0,0,0.1,0,0.1,0c8.1,0,12.8-6.5,12.9-6.5l2.4,1.7c-0.2,0.3-5.6,7.8-15.3,7.8c0,0-0.1,0-0.1,0
					c-9.6-0.1-19.7-7.5-29.9-22.2c-5.9,0.3-43,3.2-60.6,31.7C246.2,462.4,223.1,507.4,222.9,507.8z" class="colorffffff svgShape"></path><path fill="#bcb1ff" d="M331.1,577l11.2,0.6l2,0.1c13.4,9.1,31,5.8,31,5.8c2.5,0,42.4-3.6,42.4-3.6c0-6.1-11.7-8-11.7-8l-28-1
					l-2-8c11,2,13-6,13-6l-9.3-7.2c-6.4-1.9-31.8,0.1-32.3,0.3l-8.8-0.2l-6-0.1L331.1,577z" class="colorffb1df svgShape"></path><path fill="#9282f8" d="M436.2,562.7h-57.7c-2.7,0-4.9,2.2-4.9,4.9l0,0c0,2.7,2.2,4.9,4.9,4.9h57.7V562.7z" class="color82c5f8 svgShape"></path><path fill="#c9c1fb" d="M597.8,481.1l-32.2,87c-1,2.6-3.5,4.4-6.3,4.4H432.9c-4.7,0-7.9-4.7-6.3-9.1l32.2-87
						c1-2.6,3.5-4.4,6.3-4.4h126.4C596.2,472,599.4,476.7,597.8,481.1z" class="colorc1e1fb svgShape"></path><ellipse cx="513" cy="519.5" fill="#ffffff" rx="8.2" ry="7" transform="rotate(-65.278 513.024 519.54)" class="colorffffff svgShape"></ellipse><path fill="#ffffff" d="M428 563.1l-2.8-1 31.1-83.6c1.7-4.7 6.3-7.9 11.3-7.9h9.4v3h-9.4c-3.8 0-7.2 2.4-8.5 5.9L428 563.1zM296.9 595.5c-6.5 0-38-.7-73-12.6l1-2.8c38.6 13.2 72.8 12.5 73.2 12.5l.1 3C298.1 595.5 297.7 595.5 296.9 595.5z" class="colorffffff svgShape"></path><g fill="#000000" class="color000000 svgShape"><polygon fill="#6e5ed3" points="331.1 577 342.4 577.7 338.7 549.9 332.8 549.8" class="colord35eaf svgShape"></polygon></g><g fill="#000000" class="color000000 svgShape"><path fill="#553ee4" d="M618.7,319.1l24.8,27.4c1,1.1,0.9,2.8-0.2,3.8l-45,40.7c-1.1,1-2.8,0.9-3.8-0.2l-24.8-27.4
						c-1-1.1-0.9-2.8,0.2-3.8l45-40.7c0.7-0.7,1.8-0.8,2.7-0.5C618,318.5,618.4,318.8,618.7,319.1z" class="color3eb0e4 svgShape"></path><path fill="#ffffff" d="M618.7,319.1l5.5,6.1c1.6,13.8-2.1,43.7-27.8,44.7c-5.2,0.2-22.1-4-17-10.1c0.5-0.6,1.3-0.8,2-0.5
						c6.3,2.8,39.6,15,36.3-40.9C618,318.5,618.4,318.8,618.7,319.1z" class="colorffffff svgShape"></path></g><g fill="#000000" class="color000000 svgShape"><rect width="94.1" height="3" x="282" y="738.4" fill="#ffffff" transform="rotate(-74.597 329.018 739.859)" class="colorffffff svgShape"></rect></g></g><g id="Plant" fill="#000000" class="color000000 svgShape"><path fill="#472cf3" d="M472.6 1054.4c0 0 0-5.1-23-37.7 0 0-26.2-30.7-12.8-42.8 0 0 26.2-20.4 45.4 80.5H472.6zM491.7 1062c0 0 0-127.1 50.5-121.4 0 0 18.5 4.5 0 37.1 0 0-31.9 47.3-35.1 82.4L491.7 1062z" class="color2c9ef3 svgShape"></path><path fill="#472cf3" d="M493,1058.2l-3.4,1.8l-7.4,3.9c2.2-16.5-0.2-41.7-6.4-56.2c-9-21-40.5-69.7-16.6-80.6
					c27.2-12.4,35.2,23.8,36.7,61.2C497.2,1022.7,493,1058.2,493,1058.2z" class="color2c9ef3 svgShape"></path><path fill="#ffffff" d="M497.7 1069.4l-3-.3c6.4-66.4 40.1-117.3 40.5-117.8l2.5 1.7C537.4 953.5 504.1 1003.8 497.7 1069.4zM486.2 1078.9l-3-.4c14.1-98-18-133.5-18.3-133.8l2.2-2.1c.3.4 8.6 9.3 15.1 30.7C488.2 992.8 493.7 1027 486.2 1078.9zM475.7 1064.1c-4.2-40.7-31.7-74.3-32-74.6l2.3-1.9c.3.3 28.4 34.6 32.7 76.2L475.7 1064.1z" class="colorffffff svgShape"></path><path fill="#2a0ce7" d="M493,1058.2l-3.4,1.8c-1-18.2,3.3-51.7,6.3-71.6C497.2,1022.7,493,1058.2,493,1058.2z" class="color0c61e7 svgShape"></path><path fill="#4c34e8" d="M458.2,1047.6h62.6v46.1c0,12.3-10,22.2-22.2,22.2h-18.1c-12.3,0-22.2-10-22.2-22.2V1047.6z" class="colore8344c svgShape"></path></g><rect id="Floor" width="1369.7" height="3" x="116" y="1115.5" fill="#120a46" class="color0f0a46 svgShape"></rect></g></switch></svg>