<svg xmlns="http://www.w3.org/2000/svg" xmlns:xlink="http://www.w3.org/1999/xlink" viewBox="0 0 200 200" id="CollaborationTeamIllustration"><defs><linearGradient id="g" x1="-42.809" x2="-35.746" y1="-11.045" y2="-11.045" gradientTransform="rotate(86.29 -5.648 75.049)" xlink:href="#a"></linearGradient><linearGradient id="d" x1="49.175" x2="129.169" y1="37.427" y2="162.763" gradientUnits="userSpaceOnUse"><stop offset="0" stop-color="#2d10e4" class="stopColor10e2e4 svgShape"></stop><stop offset=".357" stop-color="#4933d3" class="stopColor33a1d3 svgShape"></stop><stop offset=".796" stop-color="#6456c0" class="stopColor5c56c0 svgShape"></stop><stop offset="1" stop-color="#4938b8" class="stopColor6c38b8 svgShape"></stop></linearGradient><linearGradient id="e" x1="89.021" x2="102.297" y1="28.057" y2="161.931" xlink:href="#b"></linearGradient><linearGradient id="f" x1="91.228" x2="93.44" y1="132.017" y2="165.209" xlink:href="#b"></linearGradient><linearGradient id="a" x1="68.646" x2="80.03" y1="60.787" y2="60.787" gradientTransform="rotate(17.806 134.03 96.279)" gradientUnits="userSpaceOnUse"><stop offset="0" stop-color="#ffffff" class="stopColorffffff svgShape"></stop><stop offset=".12" stop-color="#e8e8e8" class="stopColore8e8e8 svgShape"></stop><stop offset=".372" stop-color="#ababab" class="stopColorababab svgShape"></stop><stop offset=".733" stop-color="#4b4b4b" class="stopColor4b4b4b svgShape"></stop><stop offset="1"></stop></linearGradient><linearGradient id="b" x1="95.851" x2="99.908" y1="72.194" y2="165.5" gradientUnits="userSpaceOnUse"><stop offset="0" stop-color="#ffffff" class="stopColorffffff svgShape"></stop><stop offset=".085" stop-color="#f5f5f5" class="stopColorf5f5f5 svgShape"></stop><stop offset=".229" stop-color="#dbdbdb" class="stopColordbdbdb svgShape"></stop><stop offset=".413" stop-color="#b0b0b0" class="stopColorb0b0b0 svgShape"></stop><stop offset=".631" stop-color="#747474" class="stopColor747474 svgShape"></stop><stop offset=".876" stop-color="#292929" class="stopColor292929 svgShape"></stop><stop offset="1"></stop></linearGradient><linearGradient id="h" x1="-108.958" x2="-102.795" y1="185.773" y2="185.773" gradientTransform="rotate(-128.316 -42.668 62.287)" xlink:href="#a"></linearGradient><linearGradient id="c" x1="91.982" x2="141.685" y1="77.829" y2="77.829" gradientUnits="userSpaceOnUse"><stop offset="0" stop-color="#ffffff" class="stopColorffffff svgShape"></stop><stop offset=".256" stop-color="#c2c2c2" class="stopColorc2c2c2 svgShape"></stop><stop offset=".845" stop-color="#292929" class="stopColor292929 svgShape"></stop><stop offset="1"></stop></linearGradient><linearGradient id="i" x1="92.005" x2="111.264" y1="93.951" y2="149.419" xlink:href="#c"></linearGradient><linearGradient id="j" x1="117.172" x2="133.399" y1="128.223" y2="128.223" gradientTransform="rotate(6.459 143.583 129.104)" xlink:href="#c"></linearGradient><linearGradient id="k" x1="34.3" x2="62.191" y1="87.871" y2="87.871" gradientTransform="rotate(17.482 30.432 88.115)" xlink:href="#a"></linearGradient></defs><g data-name="Layer 1" fill="#000000" class="color000000 svgShape"><g data-name="Collaboration Team" fill="#000000" class="color000000 svgShape"><path fill="url(#d)" d="M155.423 125.014c-3.477 13.953 9.787 17.085 7.113 25.989a15.31 15.31 0 0 1-2.776 4.956c-5.668 7.229-28.191 8.365-48.73.299-20.549-8.055-30.175 5.427-56.829 10.475-21.858 4.142-33.802-8.192-31.668-21.926a23.853 23.853 0 0 1 3.454-9.065c2.295-3.671 19.884-27.628 13.424-47.776-6.287-19.655 4.682-46.217 35.42-47.57.769-.035 1.56-.058 2.352-.058a47.789 47.789 0 0 1 22.626 5.232c15.272 7.837 21.502 21.192 33.286 15.662 14.181-6.678 32.023-3.201 37.932 9.34a20.772 20.772 0 0 1 1.813 6.287 26.308 26.308 0 0 1 .195 4.532c-.585 15.547-13.918 28.788-17.612 43.623Z"></path><path fill="url(#b)" style="mix-blend-mode:overlay" d="M159.76 155.96c-5.668 7.228-28.191 8.364-48.73.298-20.549-8.055-30.175 5.427-56.829 10.475-26.642 5.048-38.563-14.377-28.214-30.99 2.295-3.672 19.884-27.63 13.424-47.777-6.287-19.655 4.682-46.217 35.42-47.57-6.276 18.977-5.427 41.959 25.22 43.554 29.05 1.526 53.49-18.943 70.976-13.378a20.772 20.772 0 0 1 1.813 6.287c2.26 17.555-13.367 31.897-17.417 48.156s14.629 17.818 4.337 30.944Z" opacity=".5"></path><path fill="url(#e)" style="mix-blend-mode:overlay" d="M159.76 155.96c-5.668 7.228-28.191 8.364-48.73.298-20.549-8.055-30.175 5.427-56.829 10.475-26.642 5.048-38.563-14.377-28.214-30.99 2.295-3.672 19.884-27.63 13.424-47.777-6.287-19.655 4.682-46.217 35.42-47.57.769-.035 1.56-.058 2.352-.058a47.789 47.789 0 0 1 22.626 5.232q-2.254 1.377-4.509 2.777c-8.387 5.163-16.878 10.418-23.659 17.566-6.77 7.148-11.76 16.522-11.588 26.367.218 11.83 8.169 22.752 18.69 28.156s23.177 5.714 34.57 2.536a44.772 44.772 0 0 0 16.408-8.1c6.712-5.485 11.13-13.218 16.5-20.034 5.358-6.815 12.506-13.16 21.146-13.837a19.378 19.378 0 0 1 5.668.39c-.585 15.547-13.918 28.788-17.612 43.624-4.05 16.258 14.629 17.818 4.337 30.944Z" opacity=".5"></path><path fill="url(#f)" style="mix-blend-mode:overlay" d="M162.536 151.002a15.31 15.31 0 0 1-2.776 4.957c-5.668 7.229-28.191 8.365-48.73.299-20.549-8.055-30.175 5.427-56.829 10.475-21.858 4.142-33.802-8.192-31.668-21.926a21.351 21.351 0 0 0 5.072 2.41c5.484 1.812 11.359 1.938 17.13 1.79a64.71 64.71 0 0 0 12.977-1.355c6.024-1.388 11.623-4.188 17.371-6.46 26.86-10.659 59.056-9.523 83.093 6.506a42.708 42.708 0 0 1 4.36 3.304Z" opacity=".5"></path><path fill="#2d10e4" d="M178.93 133.242a7.653 7.653 0 0 0-4.73.658 24.218 24.218 0 0 0 2.848-5.07c4.797 1.187 5.73 5.935 8.965 5.692 1.805-.135 2.613-6.738-2.449-7.853a8.83 8.83 0 0 0-6.162 1.306c.632-1.564 1.216-3.236 1.818-4.999 4.322.122 6.003 4.008 8.724 3.199 1.519-.452.982-6.248-3.554-6.26a7.582 7.582 0 0 0-4.836 2.089c.431-1.265.89-2.582 1.385-3.936 3.426-2.295 7.218-.806 8.719-3.301.899-1.495-3.841-5.81-7.54-2.45a8.46 8.46 0 0 0-2.399 5.494c-.48 1.32-.928 2.608-1.35 3.844a6.475 6.475 0 0 0-.736-3.252c-2.19-3.972-7.531-1.658-7.198-.11.597 2.772 4.804 2.383 6.99 6.1a52.786 52.786 0 0 1-2.097 5.26 8.933 8.933 0 0 0-1.626-6.233c-3.293-4.004-8.808-.286-8.11 1.384 1.279 3.054 6.099 1.614 9.338 5.643a15.697 15.697 0 0 1-4.6 5.615c.468-1.21 1.29-3.992.158-6.468-2.043-4.47-8.002-2.405-7.768-.704.429 3.115 5.21 2.962 7.194 7.463a15.355 15.355 0 0 1-2.589 1.428 37.541 37.541 0 0 0-4.588 2.384 6.85 6.85 0 0 0 .19-4.76c-1.485-3.816-6.54-2.383-6.427-.958.2 2.527 3.943 2.699 5.483 6.186a41.365 41.365 0 0 0-5.55 4.245 4.662 4.662 0 0 0-.138-2.66c-1.147-2.945-5.049-1.84-4.961-.74.147 1.854 2.76 2.07 4.04 4.397a24.996 24.996 0 0 0-1.512 1.6.616.616 0 0 0 .028.826.604.604 0 0 0 .047.043.616.616 0 0 0 .87-.075 31.715 31.715 0 0 1 2.974-2.925c2.864 1.213 2.867 4.245 4.862 4.464 1.097.12 2.318-3.748-.592-4.981a5.311 5.311 0 0 0-3.747.063 40.05 40.05 0 0 1 6.608-4.555c3.789 1.55 3.773 5.532 6.376 5.817 1.421.155 3.004-4.855-.766-6.453a6.424 6.424 0 0 0-4.07-.157 34.31 34.31 0 0 1 1.364-.628 15.455 15.455 0 0 0 5.16-3.573c4.36 1.212 5.258 5.574 8.276 5.347 1.712-.128 2.478-6.389-2.322-7.446Z" class="color10e2e4 svgShape"></path><path fill="#f0eff4" d="M158.177 142.388a4.385 4.385 0 0 0-2.527 1.786 33.067 33.067 0 0 1 2.392-6.18c3.304-.703 5.144 2.02 7.053 1.006 1.042-.555-.207-4.709-3.522-4.047a5.303 5.303 0 0 0-2.85 1.784c.204-.354.415-.708.64-1.062a12.756 12.756 0 0 0 1.863-4.86c3.593-1.29 6.268 1.33 8.242-.243 1.108-.883-1.279-5.51-5.045-4.001a6.445 6.445 0 0 0-3.044 2.859 19.745 19.745 0 0 0-.405-4.925c3.824-1.42 6.668 1.386 8.762-.283 1.168-.932-1.349-5.812-5.32-4.22a7.288 7.288 0 0 0-3.598 3.755c-.296-1.36-.675-2.773-1.082-4.256 3.005-1.925 5.958-.055 7.438-1.872.826-1.014-2.234-4.719-5.334-2.619a6.26 6.26 0 0 0-2.329 3.673 159.056 159.056 0 0 1-.884-3.329c1.27-3.158 4.55-3.905 4.414-6.305-.08-1.437-5.32-2.178-6.282 1.832a6.984 6.984 0 0 0 .916 4.864c.287 1.124.58 2.212.866 3.25a5.346 5.346 0 0 0-2.014-1.876c-3.34-1.692-5.909 2.369-4.962 3.27 1.696 1.614 4.385-.607 7.604.914a43.592 43.592 0 0 1 1.014 4.563 7.375 7.375 0 0 0-4.006-3.497c-4.107-1.202-6.142 3.898-4.89 4.713 2.292 1.49 4.911-1.733 8.994-.49a12.958 12.958 0 0 1-.53 5.969 7.185 7.185 0 0 0-2.897-4.487c-3.472-2.1-6.578 2.08-5.628 3.13 1.74 1.926 4.932-.4 8.377 1.749a12.676 12.676 0 0 1-1.102 2.177 30.978 30.978 0 0 0-2.022 3.76 5.654 5.654 0 0 0-2.083-3.337c-2.787-1.913-5.57 1.414-4.83 2.334 1.311 1.63 3.944.008 6.616 1.672a34.157 34.157 0 0 0-1.814 5.475 3.846 3.846 0 0 0-1.33-1.75c-2.152-1.477-4.3 1.091-3.729 1.801.962 1.196 2.845.129 4.8 1.121a20.67 20.67 0 0 0-.288 1.795.508.508 0 0 0 .403.55.434.434 0 0 0 .052.008.509.509 0 0 0 .558-.455 26.168 26.168 0 0 1 .67-3.379c2.518-.503 3.929 1.565 5.392.787.804-.428-.16-3.635-2.719-3.124Z" class="colorf0eff4 svgShape"></path><path fill="#4938b8" d="M154.174 148.633s9.633-9.272 8.55-16.563-6.809-13.034-6.809-13.034-3.529 9.275-2.43 12.467 2.323 14.965.69 17.13Z" class="color6c38b8 svgShape"></path><path fill="#ffffff" d="M153.75 148.47a70.822 70.822 0 0 0 1.686-4.917c.507-1.661.96-3.34 1.324-5.037a38.744 38.744 0 0 0 .81-5.134 19.136 19.136 0 0 0-.169-5.165.147.147 0 0 1 .112-.174.15.15 0 0 1 .174.11 19.482 19.482 0 0 1 .329 5.26 39.267 39.267 0 0 1-.668 5.223 62.175 62.175 0 0 1-1.187 5.125 71.558 71.558 0 0 1-1.563 5.034.454.454 0 1 1-.855-.304l.004-.01Z" class="colorffffff svgShape"></path><path fill="#2d10e4" d="M154.106 149.698s1.332-9.71-2.604-13.414-9.838-4.407-9.838-4.407 2.183 6.94 4.264 8.277 8.135 7.556 8.178 9.544Z" class="color10e2e4 svgShape"></path><path fill="#ffffff" d="M153.788 149.797a51.891 51.891 0 0 0-1.264-3.596 45.065 45.065 0 0 0-1.525-3.499 28.394 28.394 0 0 0-1.866-3.322 14.024 14.024 0 0 0-2.443-2.895.107.107 0 0 1-.015-.151.11.11 0 0 1 .15-.016 14.282 14.282 0 0 1 2.578 2.877 28.796 28.796 0 0 1 1.988 3.309 45.613 45.613 0 0 1 1.645 3.488c.502 1.186.971 2.378 1.387 3.606a.333.333 0 1 1-.63.214l-.003-.008Z" class="colorffffff svgShape"></path><path fill="#4938b8" d="M38.768 133.138c-1.664-.612-8.664 1.014-9.05 11.282-.055.318-.091.624-.116.921a59.476 59.476 0 0 0-1.646-4.936.112.112 0 0 0 .018-.058 5.466 5.466 0 0 1-.018-.556c.284-1.427 1.24-5.154 3.638-6.206 4.385-1.924 4.855-4.163 3.86-4.53-1.398-.514-7.286.854-7.61 9.488a8.187 8.187 0 0 0-.126 1.242 80.44 80.44 0 0 0-1.201-2.91c.136.047.214.077.214.077-.082-.05-.162-.094-.243-.142-.393-.9-.805-1.805-1.236-2.706.011-.018.85-4.672 3.354-5.77 3.679-1.614 4.073-3.493 3.239-3.8-1.078-.396-5.327.543-6.226 6.308a8.517 8.517 0 0 0-.56 2.867q-.578-1.194-1.195-2.37l.11.039c-.044-.027-.085-.05-.128-.075a76.632 76.632 0 0 0-1.837-3.305c.196-.947.805-3.188 2.276-3.834 3.247-1.424 3.37-2.507 2.432-2.853-.881-.324-4.59.538-4.794 5.977-.028.16-.047.315-.06.465q-.504-.846-1.02-1.658l.033.013-.04-.025a52.82 52.82 0 0 0-1.832-2.694c.144-.715.617-2.533 1.793-3.049 2.65-1.162 2.71-1.94 1.906-2.235-.69-.254-3.597.42-3.757 4.683a4.194 4.194 0 0 0-.052.448 34.26 34.26 0 0 0-2.507-3.06c-.393-.734-1.05-2.231-.549-3.294 1.01-2.137.458-3.124-.03-2.937-.579.22-1.897 1.968-.711 4.493a12.155 12.155 0 0 0 .82 2.065c-3.655-1.708-5.574.422-5.682 1.134-.079.517 1.001.848 2.878-.59a3.37 3.37 0 0 1 2.561-.338 4.136 4.136 0 0 1 .682.276 40.339 40.339 0 0 1 3.436 4.523c-4.804-2.368-7.32.433-7.46 1.356-.101.66 1.277 1.081 3.671-.753a4.56 4.56 0 0 1 3.548-.377 5.195 5.195 0 0 1 .534.222 68.935 68.935 0 0 1 2.857 4.836c-6.667-3.523-10.158.338-10.349 1.593-.134.879 1.702 1.44 4.89-1.003 1.364-1.044 3.575-.778 5.03-.436a6.476 6.476 0 0 1 .672.296 84.134 84.134 0 0 1 2.489 5.104c-8.06-4.36-12.28.3-12.509 1.807-.16 1.048 2.029 1.717 5.83-1.195 1.698-1.301 4.493-.897 6.218-.465.233.095.456.195.66.303a77.789 77.789 0 0 1 1.765 4.355 9.017 9.017 0 0 0-1.675-.765c-9.179-4.618-13.982.729-14.249 2.48-.19 1.246 2.412 2.042 6.932-1.42 2.47-1.892 6.897-.753 8.55-.228a6.452 6.452 0 0 1 .57.339c.007.004.016.001.023.004a39.847 39.847 0 0 1 2.175 8.172.283.283 0 0 0 .56-.068 27.154 27.154 0 0 0-.66-3.35c-.006-.136-.015-.27-.013-.413.339-1.701 1.478-6.13 4.327-7.379 5.213-2.287 5.772-4.95 4.59-5.385Z" class="color6c38b8 svgShape"></path><path fill="#edecf2" d="M31.123 150.998s-1.648-11.258-7.231-14.118-12.393-1.74-12.393-1.74 4.673 7.034 7.426 7.855 11.509 5.8 12.198 8.003Z" class="colorecf2ef svgShape"></path><path fill="#ffffff" d="M30.801 151.212a60.258 60.258 0 0 0-2.57-3.602 52.324 52.324 0 0 0-2.83-3.41 32.977 32.977 0 0 0-3.153-3.103 16.285 16.285 0 0 0-3.658-2.44.125.125 0 0 1-.066-.164.127.127 0 0 1 .163-.065 16.58 16.58 0 0 1 3.803 2.376 33.404 33.404 0 0 1 3.285 3.048 52.902 52.902 0 0 1 2.96 3.36 60.88 60.88 0 0 1 2.71 3.573.386.386 0 0 1-.634.442l-.005-.008Z" class="colorffffff svgShape"></path><path fill="#2d10e4" d="M42.23 147.162c-3.082 1.237-4.866.866-6.056-.177s-1.159-1.938-2.265-2.738-2.767-.376-4.255-2.757.646-5.878.995-5.577-.172 2.846 1.054 3.523 1.152 1.328 1.427.472-.739-.723-1.08-2.182 1.334-4.362 2.224-4.697-.35 1.467.598 2.716 1.643 1.607 1.838.873-2.197-3.998-.5-4.788 3.404-.891 2.966-.033-1.275 2.249-.581 2.525 1.135-.175 1.123-1.312-.51-2.026.177-2.358 5.994-1.773 6.375-.355.954 5.475.473 6.049-2.081-.79-2.764-.092-.876 1.676 1.111 1.329 3.29-.199 2.01 1.643-3.112 1.578-4.21 1.428-1.96.936-.924.985 4.258-.737 4.266.014-1.818 4.632-4.002 5.509Z" class="color10e2e4 svgShape"></path><path fill="#ffffff" d="M31.057 151.502a.267.267 0 0 1-.07-.01.271.271 0 0 1-.192-.333c2.262-8.402 8.333-14.495 13.37-18.865a.272.272 0 0 1 .356.41c-4.978 4.32-10.978 10.337-13.2 18.597a.272.272 0 0 1-.264.2Z" class="colorffffff svgShape"></path><path fill="#4938b8" d="m93.236 45.826-5.18 4.186a.675.675 0 0 1-.938-.087l-.018-.017-4.175-5.178a.665.665 0 0 1 .108-.93l1.54-1.233.018-.018c.443.142 1.502.59 1.496 1.35a1.478 1.478 0 0 0 .306 1.088 1.174 1.174 0 0 0 .294.272 1.46 1.46 0 0 0 1.985-2.102 1.417 1.417 0 0 0-.917-.52c-.021-.008-.057-.007-.079-.014a.767.767 0 0 1-.378-.193 1.485 1.485 0 0 1-.156-.146 3.026 3.026 0 0 1-.486-1.419l.224-.178 1.334-1.073a.542.542 0 0 1 .292-.132.645.645 0 0 1 .63.226l1.168 1.447.247.306a4.03 4.03 0 0 0 .48-.084 2.083 2.083 0 0 0 .835-.375.902.902 0 0 0 .35-.531 1.49 1.49 0 0 1 .075-.381 1.45 1.45 0 0 1 .448-.619 1.331 1.331 0 0 1 1.12-.295 1.421 1.421 0 0 1 .938.527 1.37 1.37 0 0 1 .319.901 1.45 1.45 0 0 1-1.624 1.456c-.724-.006-1.134.899-1.311 1.414l1.149 1.43a.647.647 0 0 1-.094.922Z" class="color6c38b8 svgShape"></path><path fill="#2d10e4" d="m92.602 45.575-5.17 4.189a.553.553 0 0 1-.332.143.658.658 0 0 1-.605-.23l-4.197-5.184a.657.657 0 0 1 .108-.93l1.55-1.265a4.286 4.286 0 0 1 .617.27c.437.235.893.595.876 1.09a1.453 1.453 0 0 0 .317 1.091 1.482 1.482 0 0 0 2.04.215 1.45 1.45 0 0 0 .232-2.058 2.015 2.015 0 0 0-.282-.27 1.231 1.231 0 0 0-.458-.206.66.66 0 0 0-.256-.059.91.91 0 0 1-.534-.338 2.858 2.858 0 0 1-.478-1.405l.352-.28 1.198-.985a.648.648 0 0 1 .92.105l.007.014 1.418 1.742a2.551 2.551 0 0 0 .38-.069 2.276 2.276 0 0 0 .935-.39.978.978 0 0 0 .338-.535 1.404 1.404 0 0 1 .535-.996 1.428 1.428 0 0 1 1.746-.058 1.119 1.119 0 0 1 .304.276 1.282 1.282 0 0 1 .303.764 1.41 1.41 0 0 1-.52 1.287 1.436 1.436 0 0 1-1.088.306c-.714-.003-1.138.91-1.311 1.413l1.16 1.433a.654.654 0 0 1-.105.92Z" class="color10e2e4 svgShape"></path><path fill="url(#a)" style="mix-blend-mode:overlay" d="m93.236 45.826-5.18 4.186a.675.675 0 0 1-.938-.087l-.018-.017a.658.658 0 0 1-.605-.23l-4.197-5.185a.657.657 0 0 1 .108-.93l1.55-1.265a4.286 4.286 0 0 1 .617.27l.018-.019c.443.142 1.502.59 1.496 1.35a1.478 1.478 0 0 0 .306 1.087 1.174 1.174 0 0 0 .294.273 1.4 1.4 0 0 0 1.12-.295 1.45 1.45 0 0 0 .231-2.058 2.015 2.015 0 0 0-.283-.27c-.021-.007-.057-.006-.078-.013a.767.767 0 0 1-.38-.193.66.66 0 0 0-.255-.059.91.91 0 0 1-.534-.338 2.858 2.858 0 0 1-.478-1.405l.352-.28.498.34a8.058 8.058 0 0 0 1.636.953 2.452 2.452 0 0 0 2.515-.264c.014-.007.018-.018.032-.025.344-.33.533-.806.921-1.087a1.305 1.305 0 0 1 .307-.175 2.227 2.227 0 0 1 .698-.134 3.05 3.05 0 0 1 1.477.26 2.684 2.684 0 0 1 .65.388 1.45 1.45 0 0 1-1.624 1.456c-.724-.006-1.134.899-1.311 1.414l1.149 1.43a.647.647 0 0 1-.094.922Z" opacity=".5"></path><path fill="#4938b8" d="m78.35 39.275-3.595-2.038a.419.419 0 0 1-.163-.56l.006-.015 2.038-3.588a.413.413 0 0 1 .562-.15l1.062.609.014.006c.019.288.001 1.001-.439 1.17a.917.917 0 0 0-.558.425.725.725 0 0 0-.09.232.906.906 0 0 0 1.665.667.88.88 0 0 0 .092-.647c-.001-.014-.01-.035-.01-.049a.476.476 0 0 1 .025-.263.904.904 0 0 1 .048-.123 1.878 1.878 0 0 1 .709-.603l.154.09.922.525a.336.336 0 0 1 .143.139.4.4 0 0 1 .013.415l-.57 1.003-.12.212a2.522 2.522 0 0 0 .158.258 1.294 1.294 0 0 0 .406.397.56.56 0 0 0 .386.08.925.925 0 0 1 .237-.043.9.9 0 0 1 .46.118.826.826 0 0 1 .425.58.881.881 0 0 1-.091.661.85.85 0 0 1-.448.389.9.9 0 0 1-1.21-.606c-.16-.42-.776-.45-1.114-.436l-.563.989a.401.401 0 0 1-.554.156Z" class="color6c38b8 svgShape"></path><path fill="#2d10e4" d="m78.35 38.852-3.594-2.031a.344.344 0 0 1-.158-.16.408.408 0 0 1-.005-.401l2.037-3.602a.408.408 0 0 1 .562-.149l1.083.607a2.654 2.654 0 0 1-.015.417c-.037.306-.142.65-.431.754a.901.901 0 0 0-.557.431.92.92 0 0 0 .34 1.226.9.9 0 0 0 1.24-.334 1.256 1.256 0 0 0 .092-.224.763.763 0 0 0 .015-.312.41.41 0 0 0-.025-.16.565.565 0 0 1 .074-.386 1.774 1.774 0 0 1 .702-.595l.242.14.841.466a.402.402 0 0 1 .149.555l-.007.007-.683 1.215a1.583 1.583 0 0 0 .126.204 1.411 1.411 0 0 0 .439.451.607.607 0 0 0 .385.074.87.87 0 0 1 .697.082.886.886 0 0 1 .43.994.694.694 0 0 1-.09.239.795.795 0 0 1-.372.348.875.875 0 0 1-.86-.007.891.891 0 0 1-.425-.558c-.16-.413-.784-.45-1.114-.436l-.563.996a.406.406 0 0 1-.555.148Z" class="color10e2e4 svgShape"></path><path fill="url(#g)" style="mix-blend-mode:overlay" d="m78.35 39.275-3.595-2.038a.419.419 0 0 1-.163-.56l.006-.015a.408.408 0 0 1-.005-.402l2.037-3.602a.408.408 0 0 1 .562-.149l1.083.607a2.654 2.654 0 0 1-.015.417l.014.006c.019.288.002 1.001-.439 1.17a.917.917 0 0 0-.558.425.725.725 0 0 0-.09.232.87.87 0 0 0 .425.579.9.9 0 0 0 1.24-.335 1.256 1.256 0 0 0 .092-.224c-.001-.014-.01-.035-.01-.049a.476.476 0 0 1 .025-.263.41.41 0 0 0-.025-.16.565.565 0 0 1 .074-.386 1.774 1.774 0 0 1 .702-.595l.242.14-.082.364a4.998 4.998 0 0 0-.179 1.161 1.522 1.522 0 0 0 .725 1.392c.007.007.014.006.022.013a6.42 6.42 0 0 1 .836.284.808.808 0 0 1 .171.137 1.382 1.382 0 0 1 .236.373 1.892 1.892 0 0 1 .186.911 1.664 1.664 0 0 1-.076.464.9.9 0 0 1-1.21-.606c-.16-.42-.776-.45-1.114-.436l-.563.989a.401.401 0 0 1-.554.156Z" opacity=".5"></path><path fill="#4938b8" d="m91.559 33.039 3.591-.318a.366.366 0 0 1 .395.321l.003.014.314 3.587a.36.36 0 0 1-.329.385l-1.064.09-.013.002c-.157-.197-.498-.718-.266-1.058a.8.8 0 0 0 .19-.581.633.633 0 0 0-.049-.211.79.79 0 0 0-1.527.345.767.767 0 0 0 .255.511c.008.01.024.02.032.03a.415.415 0 0 1 .112.201.801.801 0 0 1 .026.112 1.638 1.638 0 0 1-.21.785l-.154.012-.923.08a.293.293 0 0 1-.172-.029.35.35 0 0 1-.215-.292l-.088-1.002-.019-.212a2.188 2.188 0 0 0-.24-.107 1.127 1.127 0 0 0-.49-.084.488.488 0 0 0-.317.133.81.81 0 0 1-.148.15.785.785 0 0 1-.389.142.72.72 0 0 1-.592-.205.77.77 0 0 1-.263-.52.742.742 0 0 1 .13-.501.785.785 0 0 1 1.168-.165c.324.221.781-.062 1.016-.24l-.085-.989a.35.35 0 0 1 .32-.386Z" class="color6c38b8 svgShape"></path><path fill="#2d10e4" d="m91.768 33.343 3.588-.323a.3.3 0 0 1 .192.036.356.356 0 0 1 .203.286l.321 3.596a.356.356 0 0 1-.329.386l-1.078.1a2.323 2.323 0 0 1-.196-.306.737.737 0 0 1-.065-.755.787.787 0 0 0 .187-.586.802.802 0 0 0-.852-.712.786.786 0 0 0-.725.855 1.094 1.094 0 0 0 .045.206.669.669 0 0 0 .144.231.358.358 0 0 0 .097.103.493.493 0 0 1 .138.314 1.547 1.547 0 0 1-.209.775l-.243.02-.835.081a.35.35 0 0 1-.382-.324l.001-.009-.112-1.21a1.384 1.384 0 0 0-.19-.084 1.233 1.233 0 0 0-.54-.107.53.53 0 0 0-.313.138.76.76 0 0 1-.54.286.773.773 0 0 1-.803-.5.607.607 0 0 1-.053-.216.694.694 0 0 1 .094-.435.763.763 0 0 1 .622-.421.778.778 0 0 1 .581.19c.32.217.786-.065 1.016-.24l-.089-.993a.354.354 0 0 1 .325-.382Z" class="color10e2e4 svgShape"></path><path fill="url(#h)" style="mix-blend-mode:overlay" d="m91.559 33.039 3.591-.318a.366.366 0 0 1 .395.321l.003.014a.356.356 0 0 1 .203.286l.322 3.596a.356.356 0 0 1-.33.386l-1.078.1a2.323 2.323 0 0 1-.196-.306l-.013.002c-.157-.197-.498-.718-.266-1.058a.8.8 0 0 0 .19-.581.633.633 0 0 0-.049-.211.758.758 0 0 0-.592-.205.786.786 0 0 0-.725.855 1.094 1.094 0 0 0 .045.206c.008.01.024.02.032.03a.415.415 0 0 1 .112.201.358.358 0 0 0 .097.103.493.493 0 0 1 .138.314 1.547 1.547 0 0 1-.209.775l-.243.02-.121-.303a4.357 4.357 0 0 0-.448-.922 1.328 1.328 0 0 0-1.21-.64c-.008-.001-.013.002-.022.001a5.6 5.6 0 0 1-.741.21.704.704 0 0 1-.191-.013 1.207 1.207 0 0 1-.354-.15 1.65 1.65 0 0 1-.586-.563 1.454 1.454 0 0 1-.175-.37.785.785 0 0 1 1.17-.165c.323.221.78-.062 1.015-.24l-.085-.989a.35.35 0 0 1 .32-.386Z" opacity=".5"></path><path fill="#2d10e4" d="M146.588 73.107v69.589a4.172 4.172 0 0 1-1.721 3.407 3.891 3.891 0 0 1-2.295.746h-85.71a4.088 4.088 0 0 1-4.015-4.153V73.107a4.156 4.156 0 0 1 1.687-3.373 3.87 3.87 0 0 1 2.329-.78h85.709a4.08 4.08 0 0 1 4.016 4.153Z" class="color10e2e4 svgShape"></path><path fill="#f0eff4" d="M143.983 73.75v69.863a3.6 3.6 0 0 1-.034.505 1.893 1.893 0 0 1-.07.367 1.689 1.689 0 0 1-.056.23 1.503 1.503 0 0 1-.104.321c-.046.115-.092.23-.149.344a3.852 3.852 0 0 1-1.24 1.469 1.23 1.23 0 0 1-.252.172 3.412 3.412 0 0 1-.275.16 3.793 3.793 0 0 1-1.423.425c-.137.012-.275.023-.413.023H54.27a4.02 4.02 0 0 1-4.016-4.016V73.75a4.013 4.013 0 0 1 4.016-4.016h85.697a4.013 4.013 0 0 1 4.016 4.016Z" class="colorf0eff4 svgShape"></path><path fill="#2d10e4" d="M50.254 76.381h93.731v5.321H50.254z" class="color10e2e4 svgShape"></path><rect width="13.611" height="8.603" x="55.258" y="88.061" fill="#4938b8" rx="1.189" class="color6c38b8 svgShape"></rect><path fill="#4938b8" d="M72.125 88.061h19.457a.4.4 0 0 1 .4.4v2.09a.4.4 0 0 1-.4.4H72.125a.4.4 0 0 1-.4-.4v-2.09a.4.4 0 0 1 .4-.4Z" class="color6c38b8 svgShape"></path><rect width="6.998" height="2.889" x="105.817" y="88.061" fill="#4938b8" rx=".399" class="color6c38b8 svgShape"></rect><rect width="6.998" height="2.889" x="115.319" y="88.061" fill="#4938b8" rx=".399" class="color6c38b8 svgShape"></rect><rect width="6.998" height="2.889" x="124.821" y="88.061" fill="#4938b8" rx=".399" class="color6c38b8 svgShape"></rect><rect width="6.998" height="2.889" x="134.323" y="88.061" fill="#4938b8" rx=".399" class="color6c38b8 svgShape"></rect><path fill="#4938b8" d="M56.463 100.388h81.117a1.205 1.205 0 0 1 1.206 1.206v21.472a1.205 1.205 0 0 1-1.206 1.206H56.463a1.205 1.205 0 0 1-1.205-1.206v-21.472a1.205 1.205 0 0 1 1.205-1.206zm.197 26.837h21.06a1.205 1.205 0 0 1 1.206 1.205v11.885a1.205 1.205 0 0 1-1.205 1.206H56.66a1.205 1.205 0 0 1-1.206-1.206V128.43a1.205 1.205 0 0 1 1.206-1.205zm29.854 0h21.06a1.205 1.205 0 0 1 1.206 1.205v11.885a1.205 1.205 0 0 1-1.205 1.206H86.514a1.205 1.205 0 0 1-1.206-1.206V128.43a1.205 1.205 0 0 1 1.206-1.205zm30.005 0h21.061a1.205 1.205 0 0 1 1.205 1.205v11.885a1.205 1.205 0 0 1-1.205 1.206H116.52a1.205 1.205 0 0 1-1.205-1.206V128.43a1.205 1.205 0 0 1 1.205-1.205z" class="color6c38b8 svgShape"></path><path fill="#ffffff" d="M103.358 103.984h28.61a1.232 1.232 0 0 1 1.232 1.232v14.228a1.232 1.232 0 0 1-1.232 1.232h-28.61a1.232 1.232 0 0 1-1.232-1.232v-14.228a1.232 1.232 0 0 1 1.232-1.232zm-41.529 13.739h7.274a.408.408 0 0 1 .408.408v2.137a.408.408 0 0 1-.408.408h-7.274a.408.408 0 0 1-.408-.408v-2.137a.408.408 0 0 1 .408-.408z" class="colorffffff svgShape"></path><path fill="#2d10e4" d="M75.29 117.723h7.273a.408.408 0 0 1 .408.408v2.137a.408.408 0 0 1-.408.408h-7.274a.408.408 0 0 1-.408-.408v-2.137a.408.408 0 0 1 .408-.408Z" class="color10e2e4 svgShape"></path><path fill="#4938b8" d="M141.685 77.032v1.594a2.95 2.95 0 0 1-2.96 2.937H94.92a2.944 2.944 0 0 1-2.937-2.937v-1.594a2.944 2.944 0 0 1 2.937-2.937h43.807a2.95 2.95 0 0 1 2.96 2.938Z" class="color6c38b8 svgShape"></path><path fill="#ffffff" d="m137.89 78.454-.045-.08-.379-.574a1.47 1.47 0 0 0 .413-1.423 1.516 1.516 0 0 0-.195-.447 1.466 1.466 0 0 0-2.65.447 1.47 1.47 0 0 0 1.996 1.71l.367.573.046.07.47.71.436-.298Zm-.883-.883a1.01 1.01 0 0 1-1.388-.287.95.95 0 0 1-.08-.907.863.863 0 0 1 .367-.47.975.975 0 0 1 1.377.287.53.53 0 0 1 .08.183.956.956 0 0 1-.356 1.194Z" class="colorffffff svgShape"></path><path fill="#ffffff" d="m137.37 78.685.51-.334a.079.079 0 0 1 .109.023l1.096 1.675a.079.079 0 0 1-.023.109l-.51.334a.079.079 0 0 1-.109-.023l-1.096-1.675a.079.079 0 0 1 .023-.109Z" class="colorffffff svgShape"></path><path fill="url(#c)" style="mix-blend-mode:overlay" d="M141.685 77.032v1.594a2.95 2.95 0 0 1-2.96 2.937H94.92a2.944 2.944 0 0 1-2.937-2.937v-1.594a2.944 2.944 0 0 1 2.937-2.937h8.743c1.662.683 3.301 1.48 4.986 2.095 5.852 2.118 12.227 2.004 18.42 1.708a13.402 13.402 0 0 0 4.736-.843 4.717 4.717 0 0 0 2.778-2.96h4.144a2.95 2.95 0 0 1 2.96 2.938Z" opacity=".5"></path><path fill="url(#i)" style="mix-blend-mode:overlay" d="M143.983 73.75v69.863a3.6 3.6 0 0 1-.034.505 1.893 1.893 0 0 1-.07.367 1.689 1.689 0 0 1-.056.23 1.503 1.503 0 0 1-.104.321c-.046.115-.092.23-.149.344a3.852 3.852 0 0 1-1.24 1.469 1.23 1.23 0 0 1-.252.172 3.412 3.412 0 0 1-.275.16 3.793 3.793 0 0 1-1.423.425c-.137.012-.275.023-.413.023H54.27a4.02 4.02 0 0 1-4.016-4.016v-24.61c.16-.15.321-.3.482-.437a23.4 23.4 0 0 1 2.111-1.72 24.261 24.261 0 0 1 2.203-1.447 1.992 1.992 0 0 1 .207-.126.011.011 0 0 1 .011-.011 34.99 34.99 0 0 1 10.498-4.062c9.42-1.996 19.185-.975 28.8-1.492a58.67 58.67 0 0 0 7.56-.86 36.662 36.662 0 0 0 13.264-4.865 24.092 24.092 0 0 0 4.43-3.591c.32-.322.607-.631.894-.964a31.63 31.63 0 0 0 5.083-8.537c0-.01.012-.01.012-.022.011-.023.011-.035.023-.058.378-.895.734-1.824 1.078-2.742v-.012a53.195 53.195 0 0 0 1.893-6.356l.035-.138c.298-1.273.562-2.581.769-3.89.068-.435.126-.86.183-1.296.057-.344.103-.677.138-1.021a10.71 10.71 0 0 0 .057-1.262c.023-1.285-.092-2.823-.115-4.36h10.097a4.013 4.013 0 0 1 4.016 4.016Z" opacity=".5"></path><path d="M146.427 110.833c-.815.459-1.732 2.111-2.444 3.603-.528 1.124-.94 2.157-1.113 2.535a17.13 17.13 0 0 1-4.085 1.756c-1.124.378-2.363.769-3.614 1.182l3.614-11.176.804-2.478c.011-.058.023-.103.034-.16a.83.83 0 0 0-.54-.861.678.678 0 0 0-.298-.046.835.835 0 0 0-.734.505l-2.42 5.817-2.433 5.874-1.228 2.972a1.44 1.44 0 0 0-.356.321 2.75 2.75 0 0 0-.665 1.492.2.2 0 0 0 .08.275c.023.023.046.023.07.035l-.747 1.79-1.216 2.96-5.92 14.296-.608 1.457-.08-.023-3.156 3.156-.688.711v.023c0 .08.011.367.022.78h8.778l-.057-.78-.173-2.146-.08-.034 1.01-3.144 4.624-14.296.952-2.96.803-2.49a.746.746 0 0 1 .23-.172l.034.126c1.354-.287 2.696-.516 3.959-.734a31.36 31.36 0 0 0 5.197-1.182 5.185 5.185 0 0 0 1.102-.54 4.35 4.35 0 0 0 .688-.745 63.63 63.63 0 0 0-.115 2.478l-.872.264a1.836 1.836 0 0 0-.803.516 1.748 1.748 0 0 0-.39 1.687l.39 1.296.597 1.985a1.734 1.734 0 0 0 1.204 1.182 35.765 35.765 0 0 0-1.285 13.826l.368 4.337a4.172 4.172 0 0 0 1.72-3.408V110.81c-.057.011-.103.011-.16.023zm-81.44-15.937-9.73-3.064-2.41-.768-2.593-.815v14.824l2.593.815 2.41.757 1.01.321a4.786 4.786 0 0 0 .194.907l1.377.688s.86-.23.631-.895l2.26.712a1.361 1.361 0 0 0 1.71-.884l2.238-7.102.493-1.572.677-2.157.023-.069a1.358 1.358 0 0 0-.884-1.698zm-8.526 12.977-1.204 1.812-2.41 3.638-1.457 2.203-1.136-.608v3.556c.172.035.333.07.482.092a3.455 3.455 0 0 0 1.985.012 1.15 1.15 0 0 0 .126-.115 9.829 9.829 0 0 0 1.767-2.272l.012-.011c.091-.161.195-.333.275-.505.046-.092.103-.184.15-.275.068-.127.137-.253.206-.39a52.15 52.15 0 0 0 2.581-6.437zm66.456-38.564c.012.15.012.287.012.425a6.408 6.408 0 0 1-.287 1.778 7.93 7.93 0 0 1-.344.86.345.345 0 0 0-.046.116 7.922 7.922 0 0 1-1.056 1.606 11.18 11.18 0 0 1-2.616 2.283 15.394 15.394 0 0 1-1.927 1.102c-.241.114-.47.218-.689.32a8.31 8.31 0 0 1-1.962.643 2.286 2.286 0 0 1-.356-.034.319.319 0 0 1-.103-.011c-.046.023-.08.046-.126.068-.39.184-.78.379-1.17.608a38.08 38.08 0 0 0 .057 2.49.558.558 0 0 1 .012.138 122.094 122.094 0 0 0 1.629 12.679s.046.034.115.08c.011-.012.011-.012.022-.012a.453.453 0 0 1 .31.08 1.275 1.275 0 0 1 .585 1.033v.012c0 .023-.011.046-.011.069a.446.446 0 0 1-.023.172.966.966 0 0 0-.046.31 1.786 1.786 0 0 0 .344.952.396.396 0 0 1-.344.275h-.023a1.148 1.148 0 0 0-1.71-.413 2.947 2.947 0 0 0-.803.608c-.011 0-.011.012-.023.012 0 .011 0 .011-.011.011-.23.287-.23.482-.459.734-.333.345-1.95.873-2.318.551a.18.18 0 0 1-.08-.149.334.334 0 0 1 .023-.103 1.404 1.404 0 0 1 .034-.16c.023-.07.07-.139.104-.219a1.045 1.045 0 0 1 .057-.115c.057-.091.103-.172.16-.263a1.006 1.006 0 0 1 .07-.115c.527-.803 1.296-1.721 1.296-1.721a.847.847 0 0 1 .379-.264c.114-.218.23-.436.332-.62a85.6 85.6 0 0 0-1.078-4.176c-.264-.987-.55-1.95-.826-2.892-.689-2.375-1.343-4.555-1.733-6.356a.6.6 0 0 1-.034-.138 15.049 15.049 0 0 1-.344-2.272 5.835 5.835 0 0 1 .332-2.294 7.112 7.112 0 0 0-.527-.184.41.41 0 0 0-.115.023c-.287.069-.585.16-.884.241l-.344.103a43.513 43.513 0 0 0-.7 4.383c-.011.046-.011.092-.023.138-.023.172-.034.344-.057.516-.333 3.018-.55 6.54-.689 10.304a.695.695 0 0 1 .104.103h.023a.46.46 0 0 1 .172.034 1.195 1.195 0 0 1 .39 1.458 1.13 1.13 0 0 0-.138.562 1.868 1.868 0 0 0 .172.746.38.38 0 0 1-.413.195 1.405 1.405 0 0 0-.31-.54 1.158 1.158 0 0 0-1.273-.218 3.485 3.485 0 0 0-.918.425 1.73 1.73 0 0 0-.356.356 1.273 1.273 0 0 1-.275.286 1.473 1.473 0 0 1-.184.08 4.14 4.14 0 0 1-1.445.207c-.47-.011-.86-.114-.803-.378a.788.788 0 0 1 .114-.253c.046-.069.115-.149.172-.23.035-.034.046-.057.08-.091a1.475 1.475 0 0 1 .184-.195c.058-.069.115-.126.184-.195l.115-.115c.068-.057.126-.126.195-.183h.011c.585-.54 1.205-1.022 1.205-1.022a.92.92 0 0 1 .413-.183c.16-.195.31-.379.459-.528-.058-3.855-.494-7.86-.712-11.14v-.139a25.993 25.993 0 0 1 .012-5.048.61.61 0 0 1 .034-.138 5.728 5.728 0 0 1 .872-2.203.124.124 0 0 1-.034-.08.73.73 0 0 1 .092-.907c.447-.367.872-.722 1.296-1.055h-2.249a.786.786 0 0 1-.791-.792v-.069a.786.786 0 0 1 .791-.791h-.791a1.773 1.773 0 0 1-1.389-.746 1.234 1.234 0 0 1-.252-.505l-.069-.275h23.487c.034.114.057.218.092.31a1.945 1.945 0 0 1-.253.045zm34.08 84.07c0 .238-1.495.43-3.339.43s-3.338-.192-3.338-.43 1.495-.431 3.339-.431 3.338.193 3.338.43z" opacity=".1" fill="#000000" class="color000000 svgShape"></path><path fill="#9383fb" d="M142.775 148.995a2.477 2.477 0 0 1-.567 1.874 2.94 2.94 0 0 0 3.189-.447 2.485 2.485 0 0 1-.673-1.731Z" class="colorfbd783 svgShape"></path><path fill="#ffffff" d="M142.553 149.201a3.358 3.358 0 0 0 2.796 0c.24-4.31.128-9.825.441-13.747.704-3.794 3.444-9.363 3.444-14.296l-6.335.655a35.048 35.048 0 0 0-1.434 14.336zm-.345 1.668c-1.345.769-3.382 1.619-2.575 2.133a19.107 19.107 0 0 0 6.183-1.042c.274-.607.006-1.52-.42-1.538a5.132 5.132 0 0 1-3.188.447z" class="colorffffff svgShape"></path><path fill="#9383fb" d="M152.59 148.96a2.407 2.407 0 0 1-.166 1.896 2.856 2.856 0 0 0 2.943-1.059 2.414 2.414 0 0 1-.983-1.513Z" class="colorfbd783 svgShape"></path><path fill="#ffffff" d="M152.247 148.977a3.358 3.358 0 0 0 2.738-.572c-.647-4.267-1.884-9.643-2.38-13.546-.088-3.857 1.456-9.87.447-14.698l-6.067 1.936a36.2 36.2 0 0 0 1.354 14.51zm.177 1.879c-1.125.997-2.894 2.21-2.025 2.539a18.559 18.559 0 0 0 5.672-2.219c.14-.632-.295-1.447-.704-1.379a4.986 4.986 0 0 1-2.943 1.059z" class="colorffffff svgShape"></path><path fill="#2b216b" d="M153.664 122.51c-2.214.942-4.97.787-7.937.183a42.587 42.587 0 0 1-2.708-.632c-.852-3.969-.288-10.324.373-16.845 3.382-.512 7.937-.61 10.272.512a62 62 0 0 1 .39 3.663v.011a53.268 53.268 0 0 1-.39 13.107Z" class="color3f216b svgShape"></path><path d="M153.664 122.51c-2.214.942-4.97.787-7.937.183.639-.989 3.02-2.438 4.935-3.422 3.008-1.541 2.962-6.458 3.393-9.868a53.268 53.268 0 0 1-.391 13.106Z" opacity=".1" fill="#000000" class="color000000 svgShape"></path><path fill="#9383fb" d="M147.403 104.822c.743-.38.661-1.031.859-2.294l1.86-.33a4.902 4.902 0 0 0 .54 2.752c0 1.783-3.897 1.761-3.259-.128Z" class="colorfbd783 svgShape"></path><path fill="#9383fb" d="M147.313 103.83c.424.769 2.361-.15 3.505-.778l.39-4.673h-4.674a10.37 10.37 0 0 0 .78 5.451Z" class="colorfbd783 svgShape"></path><path fill="#2b216b" d="M143.392 105.216c-1.425.805-3.174 5.25-3.56 6.137-1.5 1.077-5.002 2.002-8.463 3.187l.42 1.577c4.264-.892 8.431-1.256 10.25-2.464 1.398-1.077 2.262-4.25 2.262-4.25Z" class="color3f216b svgShape"></path><path fill="#9383fb" d="M131.762 115.978c-.491.244-.164.545-1.138 1.146-.82.372-1.663-.049-2.631-.3a.238.238 0 0 1 .145-.437l1.54-.032a6.76 6.76 0 0 1 1.738-1.675Z" class="colorfbd783 svgShape"></path><path fill="#2d10e4" d="m159.04 117.747-3.645 1.093-3.733 1.116-.678.201-.012.006-1.167.35h-.006l-.5.15-.765.23-.064.017-4.727 1.415a1.771 1.771 0 0 1-2.202-1.19l-.984-3.278a1.769 1.769 0 0 1 1.19-2.203l12.56-3.755 2.738-.823a1.374 1.374 0 0 1 .368-.063.126.126 0 0 1 .046-.006 1.784 1.784 0 0 1 .96.224 1.75 1.75 0 0 1 .829 1.036l.983 3.278a1.774 1.774 0 0 1-1.19 2.202Z" class="color10e2e4 svgShape"></path><path fill="#ffffff" d="m142.492 117.134 3.793-1.134a.255.255 0 0 1 .317.172l.383 1.28a.255.255 0 0 1-.171.319l-3.793 1.134a.255.255 0 0 1-.317-.172l-.383-1.28a.255.255 0 0 1 .171-.319ZM143.057 119.96l15.628-4.674a.191.191 0 0 1 .238.129l.287.96a.191.191 0 0 1-.128.239l-15.628 4.673a.191.191 0 0 1-.238-.129l-.288-.96a.192.192 0 0 1 .13-.239Z" class="colorffffff svgShape"></path><path fill="#2b216b" d="M157.569 111.916a15.73 15.73 0 0 1-3.083 4.624l-.006.005c-.5.61-1.046 1.26-1.598 1.921l-.006.006c-.403.483-.811.978-1.214 1.484-.115.144-.235.293-.35.443l-.116-.081-.224-.155-.253-.179-.62-.442h-.007l-.115-.08c.03-.053.064-.104.092-.156a84.35 84.35 0 0 1 1.093-1.766v-.005a33.9 33.9 0 0 0 3.146-5.636c.034-.115.063-.22.092-.323-.075-.966-2.145-2.766-2.467-4.146l1.73-1.702s3.049 3.174 3.773 5.204a.533.533 0 0 1 .023.075 1.758 1.758 0 0 1 .11.909Z" class="color3f216b svgShape"></path><path fill="#9383fb" d="m151.202 120.312-.005.006c-.213.495-.167.34-.92.725a3.224 3.224 0 0 1-1.594.224.218.218 0 0 1-.281-.184.185.185 0 0 1 .069-.173l.005-.005.058-.012.701-.16a.696.696 0 0 0 .064-.07c.707-.845-1.887-.77.793-1.121h.006l.627.437.259.178Z" class="colorfbd783 svgShape"></path><path fill="#22195b" d="M146.246 100.103a1.822 1.822 0 0 0 2.595.292c.659-.438.362 1.21 0 1.544l.39.146.475-.834c.324-.046.535.093.482.667l-.565.76a1.062 1.062 0 0 0 .409.781l1.34-.654a12.025 12.025 0 0 0 .882-3.62 7.407 7.407 0 0 0-1.335-2.106 8.612 8.612 0 0 0-3.317-.313 2.916 2.916 0 0 0-1.44 1.613 2.125 2.125 0 0 0 .084 1.724Z" class="color2a195b svgShape"></path><path d="M158.42 111.231a24.676 24.676 0 0 1-1.748 4.659c-.236.552-.478 1.11-.72 1.662l-.557 1.288-3.733 1.116c-.115.144-.235.293-.35.443l-.115-.081c-.213.495-.167.34-.92.725a3.224 3.224 0 0 1-1.594.224.218.218 0 0 1-.281-.184c.322-.138.776-.322 1.397-.57h.006a4.519 4.519 0 0 0 .914-.529.006.006 0 0 1 .006-.005 12.053 12.053 0 0 0 1.466-1.306 24.04 24.04 0 0 0 1.686-1.95 25.933 25.933 0 0 0 3.536-5.71.58.58 0 0 0 .023-.08.533.533 0 0 1 .023.074 1.784 1.784 0 0 1 .96.224zm-2.357 39.94a18.182 18.182 0 0 1-5.668 2.222c-.611-.245.123-.938 1.02-1.672.754-.06 1.59-.04 2.242-.122.673-.081 1.08-.326 1.06-1.203a.346.346 0 0 0-.02-.142 7.1 7.1 0 0 0-.285-1.53c-.041-.122-.082-.264-.123-.407-.367-1.162-.958-2.732-1.855-4.893-2.956-7.054-2.446-12.049-.836-20.346a10.083 10.083 0 0 0 1.753-.449c.245 4.282-.815 9.011-.754 12.232.51 3.894 1.733 9.277 2.386 13.537-.164.102-.306.204-.47.286a2.254 2.254 0 0 0 .857 1.12c.407-.08.836.735.693 1.367zm-10.724-1.978a1.494 1.494 0 0 1-.51.163 1.939 1.939 0 0 0 .572 1.06c.428.02.693.938.407 1.55a19.298 19.298 0 0 1-6.177 1.04c-.51-.326.102-.775.979-1.264h.02q.367.06.673.122c1.407.387 2.507 0 2.976-.856a.83.83 0 0 0 .102-.184s.02 0 0-.02a2.25 2.25 0 0 0 .102-1.346v-.02c-.04-.163-.061-.408-.102-.693a96.385 96.385 0 0 1 .367-14.128c.55-4.078 1.998-5.647 1.998-5.647l.347 1.896v.02a36.669 36.669 0 0 0-1.305 4.567c-.306 3.914-.204 9.439-.449 13.74z" opacity=".1" fill="#000000" class="color000000 svgShape"></path><path fill="#2d10e4" d="M136.582 100.473a.956.956 0 0 1-.038.164l-12.41 38.412-2.014-.743-2.554-.942 13.03-31.476 2.41-5.82a.822.822 0 0 1 1.576.405Z" class="color10e2e4 svgShape"></path><path fill="#4938b8" d="M124.642 144.517s-7.425 8.27-7.822 8.453c-.344.159 2.152-5.988 2.618-7.133a1.556 1.556 0 0 0 .716-3.005 1.556 1.556 0 0 0-1.41 2.749c-.38 1.183-2.468 7.476-2.626 7.122-.183-.387-.479-11.5-.479-11.5l.693-.703 3.158-3.164.076.028 2.554.942 2.013.743.086.03Z" class="color6c38b8 svgShape"></path><path fill="url(#j)" style="mix-blend-mode:overlay" d="m136.544 100.637-12.41 38.412.085.03.423 5.438s-7.425 8.27-7.822 8.453c-.344.159 2.152-5.988 2.618-7.133a1.556 1.556 0 0 0 .716-3.005 1.556 1.556 0 0 0-1.41 2.749c-.38 1.183-2.468 7.476-2.626 7.122-.183-.387-.479-11.5-.479-11.5l.693-.703c.477.074.953.148 1.422.2a4.068 4.068 0 0 0 1.395 0 3.343 3.343 0 0 0 1.267-.707 11.385 11.385 0 0 0 1.704-1.687 24.411 24.411 0 0 0 3.937-7.685c2.183-6.173 3.85-12.514 5.515-18.834a24.54 24.54 0 0 0 1.022-5.533c.004-.118.008-.246.002-.366l2.41-5.82a.822.822 0 0 1 1.576.405.956.956 0 0 1-.038.164Z" opacity=".5"></path><path fill="#9383fb" d="M129.057 114.68c-.476.066-1.479 1.729-1.064 2.144s1.125-.311 1.402-.634a.975.975 0 0 0-.338-1.51Z" class="colorfbd783 svgShape"></path><path fill="#f0eff4" d="M41.799 104.64c.05 1.169-5.101 5.326-6.543 6.313l-.61-1.23-1.368-2.73-.008-.02 5.243-2.873-3.68-8.414 1.336-.78a43.603 43.603 0 0 1 4.643 6.832l.004.01a9.331 9.331 0 0 1 .983 2.893Z" class="colorf0eff4 svgShape"></path><path fill="#9383fb" d="M36.163 94.905s-.628-1.139-1.408-1.27c-.977-.163-1.867-.15-1.994.406s1.688.543 1.565.784-.522.017-.57.286 1.079.57 1.079.57Z" class="colorfbd783 svgShape"></path><path fill="#4938b8" d="m32.792 93.494 3.433-10.9a1.356 1.356 0 0 1 1.7-.885l24.016 7.564a1.356 1.356 0 0 1 .886 1.7l-3.433 10.9a1.356 1.356 0 0 1-1.7.885l-24.016-7.564a1.356 1.356 0 0 1-.886-1.7Z" class="color6c38b8 svgShape"></path><path fill="#ffffff" d="m38.085 88.905 7.343-1.084-.381 1.209-5.794.76-.008.027 4.308 3.956-.377 1.196-5.396-5.096zM43.94 95.8l6.346-8.709 1.156.364-6.347 8.71zm12.747.057-7.335 1.058.377-1.196 5.878-.748.009-.027-4.389-3.982.377-1.196 5.405 5.07z" class="colorffffff svgShape"></path><path fill="url(#k)" style="mix-blend-mode:overlay" d="m62.127 93.2-2.732 8.672a1.355 1.355 0 0 1-1.7.886l-24.016-7.564a1.355 1.355 0 0 1-.886-1.7l1.996-6.337a1.607 1.607 0 0 1 .252.074 18.407 18.407 0 0 1 3.502 2.039 13.776 13.776 0 0 0 4.61 1.807 12.589 12.589 0 0 0 4.106.137 11.015 11.015 0 0 0 2.02-.46c.011-.001.023-.007.034-.009a22.716 22.716 0 0 1 4.21-1.386c.087-.008.18-.018.273-.025a8.676 8.676 0 0 1 4.537 1.244 14.033 14.033 0 0 1 3.794 2.621Z" opacity=".5"></path><path d="M27.659 154.365c0 .31 1.624.562 3.628.562s3.628-.252 3.628-.562-1.625-.563-3.628-.563-3.628.252-3.628.563Z" opacity=".1" fill="#000000" class="color000000 svgShape"></path><path fill="#9383fb" d="M41.394 151.494a1.728 1.728 0 0 0 .08 1.001c.207.582-2.814.784-2.814.784a2.15 2.15 0 0 1 .317-1.525 2.446 2.446 0 0 0 .489-1.238Z" class="colorfbd783 svgShape"></path><path fill="#6a56e8" d="M36.801 122.209c.497 7.486 3.068 10.267 3.068 13.164s-1.007 15.518-1.007 15.518a4.204 4.204 0 0 0 3.097.498c1.463-7.08 2.844-15.232 2.782-17.647a43.186 43.186 0 0 0-2.225-12.084Z" class="color56e7e8 svgShape"></path><path fill="#ffffff" d="M38.454 152.718a2.064 2.064 0 0 0-.188 1.996c2.346.031 4.63.116 6.82.013 0-.842-2.235-1.96-3.481-2.302a3.666 3.666 0 0 1-3.151.293Z" class="colorffffff svgShape"></path><path fill="#9383fb" d="M31.96 150.348a1.727 1.727 0 0 0-.126.997c.085.612-2.914.193-2.914.193a2.15 2.15 0 0 1 .62-1.428 2.446 2.446 0 0 0 .732-1.112Z" class="colorfbd783 svgShape"></path><path fill="#6a56e8" d="M33.436 120.742c-1.04 7.43.91 10.677.318 13.513s-4.15 14.986-4.15 14.986a4.204 4.204 0 0 0 2.931 1.12c2.876-6.634 5.89-14.332 6.322-16.709a43.187 43.187 0 0 0 .286-12.284Z" class="color56e7e8 svgShape"></path><path fill="#ffffff" d="M28.832 150.947a2.065 2.065 0 0 0-.591 1.916c2.29.508 4.51 1.058 6.674 1.403.171-.824-1.788-2.374-2.938-2.963a3.666 3.666 0 0 1-3.145-.356Z" class="colorffffff svgShape"></path><path fill="#f0eff4" d="M43.347 124.452a8.41 8.41 0 0 1-3.282.712c-2.914.183-6.528-.299-7.503-1.285.573-7.573-1.182-15.398 1.078-17.142 1.847-.975 6.609-.826 9.397.401.023.012.035.012.057.023a.975.975 0 0 1 .253.103c.069.987.138 1.951.183 2.903.012.23.035.46.046.689l.035.7a3 3 0 0 1 .011.321c.276 5.014.321 9.546-.275 12.575Z" class="colorf0eff4 svgShape"></path><path fill="#9383fb" d="M36.79 106.204a4.748 4.748 0 0 0 .514-2.305h1.838a7.872 7.872 0 0 0 .25 2.563c-.19.36-2.421.218-2.602-.258Z" class="colorfbd783 svgShape"></path><path fill="#9383fb" d="M36.967 104.632c1.101.495 2.211 1.008 2.887.551.765-.865 1.474-3.586 1.526-5.115l-4.408-.315Z" class="colorfbd783 svgShape"></path><path fill="#22195b" d="M36.272 104.029c.503.451-.146 1.023 1.486 1.215a1.522 1.522 0 0 0 1.55-1.74c-.474-.348-1.05-.695-1.05-1.077-.075-.33.17-.535.48-.651a2.163 2.163 0 0 1 .57.712l.374-.43-.29-1.207c1.046.123 2.005.17 2.231-.425a2.398 2.398 0 0 0 .276-2.309 3.767 3.767 0 0 1-3.095 0c-.978-.297-2.135.876-2.82 1.36-1.143.934-1.39 2.999.288 4.552Z" class="color2a195b svgShape"></path><path d="M44.82 154.188a7.01 7.01 0 0 1-4.76-1.066l-.011-.011a.469.469 0 0 1-.119-.178 3.028 3.028 0 0 1 .119-1.563c.035-.154.07-.32.118-.497a98.056 98.056 0 0 0 2.546-9.993c1.136-6.642-.249-12.704-2.652-15.711a.404.404 0 0 0 .118-.012 9.992 9.992 0 0 0 1.729-.213 7.167 7.167 0 0 0 1.444-.498 43.226 43.226 0 0 1 1.385 9.295c.071 2.415-1.314 10.573-2.782 17.653a1.686 1.686 0 0 1-.556.094 1.754 1.754 0 0 0 .07 1.007c.048-.024.083-.047.13-.071a7.69 7.69 0 0 1 3.221 1.764zm-5.79-21.631v.012c-.059.39-.118.757-.177 1.089-.426 2.368-3.445 10.064-6.322 16.706a2.365 2.365 0 0 1-.58 0 1.91 1.91 0 0 0-.119.982c.047-.011.095-.035.142-.047a8.084 8.084 0 0 1 2.77 2.333c-1.586-.296-3.8-1.113-4.262-1.966a.636.636 0 0 1-.047-.544c.07-.154.237-.533.462-1.066.059-.13.118-.26.177-.415 1.563-3.658 5.364-12.633 6.05-15.083.794-2.783.865-4.192.012-6.275a16.631 16.631 0 0 1 1.895 4.274z" opacity=".1" fill="#000000" class="color000000 svgShape"></path><path fill="#f0eff4" d="M54.798 102.95a46.388 46.388 0 0 1-2.938 7.103c-.08.172-.183.344-.275.505l-.011.011a9.221 9.221 0 0 1-1.894 2.387c-.63.447-3.648-.322-6.058-1.079-.528-.172-1.032-.333-1.468-.482-.563-.206-1.033-.378-1.331-.505l.7-1.181 1.514-2.57.035-.058.022-.011 5.255 2.834 5.072-7.653Z" class="colorf0eff4 svgShape"></path><path fill="#9383fb" d="M54.794 102.943s.929-.236.615-.961a8.62 8.62 0 0 0-1.546-.43c-.27.027-.297-.625-.55-.52s.108 1.216.108 1.216Z" class="colorfbd783 svgShape"></path><path d="M51.86 110.053c-.08.172-.183.344-.275.505l-.011.011a9.221 9.221 0 0 1-1.894 2.387c-.63.447-3.648-.322-6.058-1.079.276 5.014.321 9.546-.275 12.575a8.41 8.41 0 0 1-3.282.712c2.433-3.74 2.26-10.98 2.089-13.769-.035-.711-.08-1.136-.08-1.136a7.325 7.325 0 0 0 1.502.597 11.602 11.602 0 0 0 8.284-.803Z" opacity=".1" fill="#000000" class="color000000 svgShape"></path><path fill="#9383fb" d="M102.327 88.164c-.29.573-4.515 1.501-4.515 1.501s1.143-1.565 1.926-2.448c-.101-6.311-1.189-13.03-.698-16.325.66-4.058 4.975-6.056 9.539-6.91l3.525 3.117c-.409 4.265-3.135 2.698-8.774 4.46a96.657 96.657 0 0 0-1.465 15.339s.762.71.462 1.266Z" class="colorfbd783 svgShape"></path><path fill="#f2f1fa" d="M98.868 87.933s-2.153 1.677-2.264 2.28 1.985.405 2.428.093.273-.641 1.555-1.066a1.14 1.14 0 0 1 1.581.758.394.394 0 0 0 .42-.19 1.56 1.56 0 0 1-.036-1.304c.326-.576-.126-1.504-.557-1.503s-1.03 1.168-1.675.979-.982-.426-1.451-.047Z" class="colorfaf1f3 svgShape"></path><path fill="#9383fb" d="M111.612 89.906c-.168.62-4.113 2.392-4.113 2.392s.799-1.765 1.385-2.79c-1.388-6.157-3.826-12.513-4.019-15.838-.184-4.107 3.633-6.944 7.926-8.712l4.087 2.33c.471 4.258-2.517 3.282-7.677 6.159a96.666 96.666 0 0 0 1.7 15.314s.89.54.71 1.145Z" class="colorfbd783 svgShape"></path><path fill="#f2f1fa" d="M108.18 90.387s-1.767 2.082-1.752 2.694 2.026-.008 2.396-.405.136-.683 1.305-1.36a1.14 1.14 0 0 1 1.702.418.394.394 0 0 0 .372-.272 1.56 1.56 0 0 1-.301-1.268c.2-.631-.43-1.447-.853-1.358s-.769 1.354-1.439 1.3-1.05-.216-1.43.251Z" class="colorfaf1f3 svgShape"></path><path fill="#2b216b" d="M100.007 67.57c-1.9 2.087 9.203 5.254 10.958 5.249.71-.003 9.166-2.858 8.912-9.12-.846-1.467-4.561 1.4-5.983-1.372-7.524-.055-10.187 2.191-13.887 5.243Z" class="color3f216b svgShape"></path><path fill="#2d10e4" d="M120.13 63.644c-2.985.68-7.579.282-12.471-.715 2.868-12.477-3.027-13.492 1.372-19a16.54 16.54 0 0 1 1.45-.253 24.24 24.24 0 0 1 5.801-.018 4.565 4.565 0 0 1 1.815.848c1.866 5.766 1.127 16.409 2.034 19.138Z" class="color10e2e4 svgShape"></path><path fill="#9383fb" d="M118.097 44.506c2.3 2.041 1.713 8.99 1.713 10.655-.672 2.138-3.935 5.706-7.116 9.008l-1.097-.916 5.327-7.984-.812-6.343Z" class="colorfbd783 svgShape"></path><path fill="#9383fb" d="M118.097 44.506c2.3 2.041 1.713 8.99 1.713 10.655-.672 2.138-3.935 5.706-7.116 9.008l-1.097-.916 5.327-7.984-.812-6.343Z" class="colorfbd783 svgShape"></path><path fill="#ffffff" d="m114.449 62.846-1.016.553-1.222-1.069.21-1.058.329.258 1.417 1.096.282.22z" class="colorffffff svgShape"></path><path fill="#7764f0" d="M119.808 55.164c-.569 1.801-2.993 4.641-5.639 7.467l-1.413-1.108 4.17-6.248-.817-6.345 1.995-4.419c2.3 2.037 1.704 8.99 1.704 10.653Z" class="color816ad6 svgShape"></path><path fill="#2d10e4" d="M120.13 55.193c-.567 1.8-3.315 4.612-5.96 7.438l-1.414-1.108 3.764-6.248-.631-6.345 2.215-4.419c2.3 2.037 2.027 9.02 2.027 10.682Z" class="color10e2e4 svgShape"></path><path fill="#9383fb" d="M108.815 44.827a17.71 17.71 0 0 1-.504 8.123c-2.074.85-6.904.621-11.477.285l.004-1.43 9.544-1.006 2.566-6.581Z" class="colorfbd783 svgShape"></path><path fill="#2d10e4" d="M109.252 49.77a10.054 10.054 0 0 1-.94 3.178 1.647 1.647 0 0 1-.402.206c-1.148.47-3.431.494-5.944.379-.986-.035-2.008-.092-3.006-.15v-.01l-.057-1.78.091-.022 6.346-1.32 3.694-6.322.493.574c.299.16.15 2.892-.275 5.267Z" class="color10e2e4 svgShape"></path><path fill="#ffffff" d="m98.973 53.738-1.074-.428.041-1.623.948-.514.012.417.063 1.791.01.357z" class="colorffffff svgShape"></path><path fill="#9383fb" d="M96.847 53.225a7.232 7.232 0 0 1-1.042.429c-.388.1-2.749-1.17-2.448-1.414s1.614.272 2.056.198a5.471 5.471 0 0 0 1.425-.633Z" class="colorfbd783 svgShape"></path><path fill="#ffffff" d="m116.282 43.658-.047.018c-1.543.47-3.995 6.77-3.995 6.77a48.339 48.339 0 0 0-1.76-6.77 24.24 24.24 0 0 1 5.802-.018Z" class="colorffffff svgShape"></path><path fill="#9383fb" d="M112.002 43.53c1.4-.681.693-1.857.948-1.814l1.546-.078c.127.054-.095 1.33.72 1.925a2.46 2.46 0 0 1-3.214-.032Z" class="colorfbd783 svgShape"></path><path fill="#9383fb" d="M110.474 38.88c-.224.824.913 3.417 1.745 3.936.699.35 1.749-.77 2.596-1.21a8.988 8.988 0 0 0-.84-3.922c-1.517.069-2.801.357-3.5 1.196Z" class="colorfbd783 svgShape"></path><path fill="#22195b" d="M109.943 39.738a2.312 2.312 0 0 0 2.637-.486c.522-.779 1.1.217.945 1.034s-.215 2.956 1.535 2.997c1.14.026 3.237-1.402 2.026-1.83s-1.651-.691-1.206-1.9a3.434 3.434 0 0 0-1.48-3.404 4.168 4.168 0 0 0-4.574 1.251c-.942 1.157-.4 1.965.117 2.338Z" class="color2a195b svgShape"></path><path fill="#9383fb" d="M111.597 63.253c-.4-.18-.901.171-1.329.378-.85.463-1.378.75-1.392 1.038.031.37.278.304.692.188l1.81-.136c.683.32 1.407-.344 1.316-.552Z" class="colorfbd783 svgShape"></path><path d="M108.873 50.492a1.441 1.441 0 0 0 .276-.413c-.092.241-.218.609-.39 1.045a30.805 30.805 0 0 1-.803 1.95c-.012.023-.035.057-.046.08-1.148.47-3.431.494-5.944.379.035-.011.069-.011.104-.023 3.35-.666 5.886-1.916 6.803-3.018Z" opacity=".1" fill="#000000" class="color000000 svgShape"></path><path fill="#ffffff" d="M107.816 64.857h-9.552a1.756 1.756 0 0 1-1.64-1.249l-1.546-6.266a.977.977 0 0 1 1.024-1.25h9.552a1.756 1.756 0 0 1 1.64 1.25l1.546 6.266a.977.977 0 0 1-1.024 1.249Z" class="colorffffff svgShape"></path><rect width="15.363" height="1.649" x="98.266" y="64.861" fill="#d8d8d8" rx=".79" class="colord8d8d8 svgShape"></rect><path fill="#ffffff" d="M113.629 65.651v.07a.792.792 0 0 1-.803.789h-5.611a.79.79 0 0 1-.79-.79v-.069a.79.79 0 0 1 .79-.79h5.61a.792.792 0 0 1 .804.79Z" class="colorffffff svgShape"></path><path fill="#7764f0" d="M102.962 60.475a1.01 1.01 0 0 1-1.003 1.337 1.827 1.827 0 0 1-1.671-1.337 1.01 1.01 0 0 1 1.003-1.337 1.827 1.827 0 0 1 1.671 1.337Z" class="color816ad6 svgShape"></path><path d="M103.334 71.554A96.487 96.487 0 0 0 101.86 86.9a.695.695 0 0 1 .103.102h.034c.434 0 .88.926.56 1.497a1.535 1.535 0 0 0 .034 1.303.394.394 0 0 1-.423.194 1.136 1.136 0 0 0-1.577-.754c-1.29.423-1.12.754-1.553 1.063-.446.308-2.548.514-2.434-.092a3.844 3.844 0 0 1 1.051-1.257 4.031 4.031 0 0 0 .583.137 2.755 2.755 0 0 0 2.022-.297 2.673 2.673 0 0 0 1.12-1.37.011.011 0 0 0 .011-.012 6.581 6.581 0 0 0-.023-3.736c-.64-2.846-.628-12.718 1.223-13.335 0 0 .091.035.24.103.08.034.171.069.263.114.491.217 1.017.423 1.554.617l.011.012a19.74 19.74 0 0 0-1.325.365zm16.796-7.907a1.926 1.926 0 0 1-.251.046c.251 6.273-8.204 9.118-8.913 9.13a2.76 2.76 0 0 1-.468-.046c-.423.206-.857.423-1.303.674a96.981 96.981 0 0 0 1.703 15.311.677.677 0 0 1 .114.08.042.042 0 0 1 .034-.011c.423-.08 1.052.731.857 1.36a1.534 1.534 0 0 0 .298 1.268.394.394 0 0 1-.366.274 1.143 1.143 0 0 0-1.703-.423c-1.177.686-.937.971-1.302 1.371-.377.389-2.388 1.017-2.4.4a3.333 3.333 0 0 1 .674-1.302 6.779 6.779 0 0 0 .709-.16c1.348-.355 2.936-1.074 2.982-1.726a2.978 2.978 0 0 0-.114-.73c-.469-1.898-2.114-6.514-2.285-8.205-.195-1.748-.823-6.901-.149-8.661a1.002 1.002 0 0 1 .366-.526c1.21-.765 4.947-1.622 6.844-3.724a1.439 1.439 0 0 0 .423-1.326c-.332-1.474-3.051-2.582-2.903-2.845v-.011l.092-.092.034-.034a7.583 7.583 0 0 1 .686-.537 3.37 3.37 0 0 1 .514-.286.435.435 0 0 1 .148-.068c.458-.16.035-.652.949-1.234a26.57 26.57 0 0 0 4.136-5.165c.114 3.222.194 5.987.594 7.198zM115.737 49.2l.733 5.742c-.033 2.083-2.023 4.237-3.584 6.375a16.602 16.602 0 0 0 2.605-6.528 28.867 28.867 0 0 0 .246-5.589z" opacity=".1" fill="#000000" class="color000000 svgShape"></path></g></g></svg>