<svg width="75" height="100" viewBox="0 0 75 100" fill="none" xmlns="http://www.w3.org/2000/svg">
<path d="M65.8182 42.7646C65.5597 43.7128 65.034 44.5667 64.3038 45.2247L61.5727 47.6904C61.0391 48.1718 60.6126 48.7597 60.3206 49.4161C60.0287 50.0726 59.8779 50.7829 59.8779 51.5013C59.8779 52.2197 60.0287 52.9301 60.3206 53.5865C60.6126 54.243 61.0391 54.8309 61.5727 55.3122L64.3038 57.7779C65.0917 58.4882 65.6402 59.4251 65.8739 60.4596C66.1076 61.4941 66.0149 62.5756 65.6087 63.5554C65.2025 64.5352 64.5027 65.3651 63.6054 65.9312C62.7081 66.4973 61.6574 66.7718 60.5977 66.7168L56.9226 66.5287C56.205 66.4924 55.4879 66.607 54.8174 66.865C54.1469 67.123 53.5381 67.5188 53.0302 68.0267C52.5223 68.5346 52.1267 69.1433 51.8689 69.8136C51.6111 70.4838 51.4968 71.2007 51.5335 71.9179L51.7218 75.5911C51.7787 76.6514 51.5053 77.7032 50.9393 78.6017C50.3733 79.5002 49.5424 80.2012 48.5612 80.6081C47.58 81.015 46.4967 81.1078 45.4605 80.8737C44.4243 80.6396 43.4863 80.0901 42.7755 79.3009L40.3086 76.5712C39.827 76.038 39.2388 75.6116 38.5821 75.3198C37.9253 75.028 37.2145 74.8773 36.4958 74.8773C35.777 74.8773 35.0663 75.028 34.4095 75.3198C33.7527 75.6116 33.1645 76.038 32.683 76.5712L30.216 79.3009C29.5051 80.089 28.5672 80.6375 27.5316 80.8709C26.496 81.1044 25.4134 81.0113 24.4328 80.6046C23.4523 80.1978 22.6219 79.4974 22.056 78.5996C21.4901 77.7018 21.2164 76.6508 21.2726 75.5911L21.4693 71.9179C21.506 71.2005 21.3917 70.4833 21.1337 69.8129C20.8757 69.1424 20.4799 68.5335 19.9717 68.0256C19.4635 67.5176 18.8543 67.1219 18.1835 66.8641C17.5127 66.6062 16.7952 66.492 16.0774 66.5287L12.4023 66.7168C11.3426 66.7718 10.2919 66.4973 9.39463 65.9312C8.49733 65.3651 7.79748 64.5352 7.39127 63.5554C6.98505 62.5756 6.89242 61.4941 7.1261 60.4596C7.35977 59.4251 7.90829 58.4882 8.69625 57.7779L11.4273 55.3122C11.9609 54.8309 12.3874 54.243 12.6794 53.5865C12.9713 52.9301 13.1221 52.2197 13.1221 51.5013C13.1221 50.7829 12.9713 50.0726 12.6794 49.4161C12.3874 48.7597 11.9609 48.1718 11.4273 47.6904L8.69625 45.2247C7.90899 44.5149 7.36082 43.5789 7.12698 42.5452C6.89314 41.5116 6.98508 40.4309 7.39019 39.4516C7.7953 38.4722 8.49372 37.6422 9.3896 37.0754C10.2855 36.5086 11.3349 36.2328 12.3939 36.2858L16.069 36.474C16.7874 36.5119 17.5059 36.3985 18.1777 36.1412C18.8495 35.8839 19.4597 35.4884 19.9688 34.9804C20.478 34.4723 20.8746 33.863 21.1331 33.1919C21.3916 32.5208 21.5061 31.803 21.4693 31.0848L21.2726 27.4115C21.2151 26.3514 21.4879 25.2995 22.0533 24.4008C22.6188 23.5021 23.4491 22.8007 24.43 22.3932C25.4108 21.9857 26.4939 21.8922 27.5302 22.1255C28.5664 22.3589 29.5048 22.9076 30.216 23.6961L32.683 26.4258C33.1641 26.9599 33.7521 27.3869 34.409 27.6792C35.0658 27.9715 35.7768 28.1225 36.4958 28.1225C37.2148 28.1225 37.9258 27.9715 38.5826 27.6792C39.2395 27.3869 39.8275 26.9599 40.3086 26.4258L42.7755 23.6961C43.4879 22.9111 44.4257 22.3656 45.4605 22.1344C46.4952 21.9031 47.5762 21.9974 48.5552 22.4043" stroke="black" stroke-width="3" stroke-linecap="round" stroke-linejoin="round"/>
<path d="M27 46.0429L34.0662 55.3369C34.4471 55.8375 34.9376 56.2469 35.5012 56.5345C36.0647 56.8222 36.6868 56.9808 37.3212 56.9984C37.9555 57.016 38.5857 56.8921 39.1647 56.6362C39.7438 56.3802 40.2568 55.9986 40.6656 55.5199L71 20" stroke="#00CCF5" stroke-width="3" stroke-linecap="round" stroke-linejoin="round"/>
</svg>
