<svg width="100" height="100" viewBox="0 0 100 100" fill="none" xmlns="http://www.w3.org/2000/svg">
<path d="M72.3198 60.7228L51.4475 53.2438C51 53.0836 50.5037 53 50 53C49.4963 53 49 53.0836 48.5525 53.2438L27.6802 60.7228C27.4753 60.7963 27.3034 60.9076 27.1834 61.0443C27.0635 61.181 27 61.3379 27 61.4979C27 61.6579 27.0635 61.8148 27.1834 61.9515C27.3034 62.0882 27.4753 62.1994 27.6802 62.273L48.5525 69.7562C49 69.9164 49.4963 70 50 70C50.5037 70 51 69.9164 51.4475 69.7562L72.3198 62.2815C72.5247 62.2079 72.6966 62.0967 72.8166 61.96C72.9365 61.8233 73 61.6664 73 61.5064C73 61.3464 72.9365 61.1895 72.8166 61.0528C72.6966 60.9161 72.5247 60.8048 72.3198 60.7313V60.7228Z" stroke="black" stroke-width="3" stroke-linecap="round" stroke-linejoin="round"/>
<path d="M35 65L27.6802 68.1321C27.4753 68.2103 27.3034 68.3286 27.1834 68.474C27.0635 68.6194 27 68.7863 27 68.9565C27 69.1267 27.0635 69.2936 27.1834 69.439C27.3034 69.5844 27.4753 69.7027 27.6802 69.781L48.5525 77.7407C49 77.9111 49.4963 78 50 78C50.5037 78 51 77.9111 51.4475 77.7407L72.3198 69.781C72.5247 69.7027 72.6966 69.5844 72.8166 69.439C72.9365 69.2936 73 69.1267 73 68.9565C73 68.7863 72.9365 68.6194 72.8166 68.474C72.6966 68.3286 72.5247 68.2103 72.3198 68.1321L65.5 65" stroke="black" stroke-width="3" stroke-linecap="round" stroke-linejoin="round"/>
<path d="M34 72.5L27.6802 75.1286C27.4753 75.2069 27.3034 75.3252 27.1834 75.4707C27.0635 75.6161 27 75.7831 27 75.9534C27 76.1236 27.0635 76.2906 27.1834 76.436C27.3034 76.5815 27.4753 76.6998 27.6802 76.7781L48.5525 84.7406C49 84.9111 49.4963 85 50 85C50.5037 85 51 84.9111 51.4475 84.7406L72.3198 76.7872C72.5247 76.7089 72.6966 76.5905 72.8166 76.4451C72.9365 76.2996 73 76.1327 73 75.9624C73 75.7922 72.9365 75.6252 72.8166 75.4797C72.6966 75.3343 72.5247 75.216 72.3198 75.1377L66.5 72" stroke="black" stroke-width="3" stroke-linecap="round" stroke-linejoin="round"/>
<path d="M44.4766 36.6698V11.4542C44.4766 9.38169 45.8418 8 47.8896 8H51.3027C53.3505 8 54.7158 9.38169 54.7158 11.4542V36.3244" stroke="#00CCF5" stroke-width="3" stroke-miterlimit="10" stroke-linecap="round" stroke-linejoin="round"/>
<path d="M75.8787 43.4958C75.8787 45.5437 74.4952 46.9089 72.4201 46.9089H27.4586C25.3834 46.9089 24 45.5437 24 43.4958V40.0828C24 38.0349 25.3834 36.6697 27.4586 36.6697H72.4201C74.4952 36.6697 75.8787 38.0349 75.8787 40.0828V43.4958Z" stroke="#00CCF5" stroke-width="3" stroke-miterlimit="10" stroke-linecap="round" stroke-linejoin="round"/>
<path d="M54.7188 14.8262C63.7899 17.2532 70.4189 25.2279 70.4189 34.9362V36.6698" stroke="#00CCF5" stroke-width="3" stroke-miterlimit="10" stroke-linecap="round" stroke-linejoin="round"/>
<path d="M44.4784 14.8262C35.8017 17.2532 29.4609 25.2279 29.4609 34.9362V36.6698" stroke="#00CCF5" stroke-width="3" stroke-miterlimit="10" stroke-linecap="round" stroke-linejoin="round"/>
</svg>
