<svg width="100" height="100" viewBox="0 0 100 100" fill="none" xmlns="http://www.w3.org/2000/svg">
<path d="M47.049 30.4364C47.4223 30.8518 47.8789 31.1841 48.389 31.4115C48.8992 31.6389 49.4515 31.7565 50.01 31.7565C50.5686 31.7565 51.1208 31.6389 51.631 31.4115C52.1411 31.1841 52.5977 30.8518 52.9711 30.4364L54.9122 28.2979C55.4696 27.6881 56.2002 27.2636 57.006 27.0812C57.8117 26.8989 58.654 26.9676 59.4195 27.278C60.1847 27.596 60.8326 28.1431 61.2744 28.8441C61.7162 29.5451 61.9302 30.3656 61.8871 31.1931V34.0555C61.8481 34.6185 61.9303 35.1834 62.1282 35.712C62.326 36.2406 62.6349 36.7207 63.034 37.1198C63.4331 37.5189 63.9132 37.8278 64.4418 38.0256C64.9704 38.2235 65.5353 38.3057 66.0983 38.2667H68.9607C69.7882 38.2236 70.6087 38.4376 71.3097 38.8794C72.0107 39.3212 72.5578 39.9691 72.8759 40.7343C73.1863 41.4998 73.2549 42.3421 73.0726 43.1478C72.8903 43.9536 72.4657 44.6842 71.8559 45.2416L69.7503 47.0512C69.3349 47.4245 69.0026 47.8811 68.7752 48.3912C68.5478 48.9014 68.4302 49.4536 68.4302 50.0122C68.4302 50.5707 68.5478 51.123 68.7752 51.6332C69.0026 52.1433 69.3349 52.5999 69.7503 52.9732L71.8888 54.9144C72.4986 55.4717 72.9232 56.2024 73.1055 57.0081C73.2878 57.8139 73.2191 58.6561 72.9088 59.4217C72.5907 60.1868 72.0436 60.8348 71.3426 61.2766C70.6416 61.7184 69.8211 61.9324 68.9936 61.8893H66.1313C65.5682 61.8503 65.0033 61.9325 64.4747 62.1304C63.9461 62.3282 63.466 62.6371 63.0669 63.0362C62.6678 63.4353 62.3589 63.9154 62.1611 64.444C61.9632 64.9726 61.881 65.5375 61.92 66.1005V68.9629C61.9631 69.7904 61.7491 70.6109 61.3073 71.3119C60.8655 72.0129 60.2176 72.56 59.4525 72.878C58.6869 73.1884 57.8446 73.2571 57.0389 73.0748C56.2331 72.8924 55.5025 72.4679 54.9451 71.8581L52.9711 69.7525C52.5977 69.337 52.1411 69.0048 51.631 68.7774C51.1208 68.5499 50.5686 68.4324 50.01 68.4324C49.4515 68.4324 48.8992 68.5499 48.389 68.7774C47.8789 69.0048 47.4223 69.337 47.049 69.7525L45.1078 71.891C44.5505 72.5008 43.8198 72.9253 43.0141 73.1077C42.2083 73.29 41.3661 73.2213 40.6005 72.9109C39.8354 72.5928 39.1874 72.0458 38.7456 71.3448C38.3038 70.6438 38.0898 69.8233 38.1329 68.9958V66.1334C38.1719 65.5704 38.0897 65.0055 37.8918 64.4769C37.694 63.9483 37.3851 63.4682 36.986 63.0691C36.5869 62.67 36.1068 62.3611 35.5782 62.1633C35.0496 61.9654 34.4847 61.8832 33.9217 61.9222H31.0593C30.2318 61.9653 29.4113 61.7513 28.7103 61.3095C28.0093 60.8677 27.4623 60.2197 27.1442 59.4546C26.8338 58.689 26.7651 57.8468 26.9474 57.041C27.1298 56.2353 27.5543 55.5046 28.1641 54.9473L30.3026 53.0061C30.7181 52.6328 31.0503 52.1762 31.2777 51.6661C31.5052 51.1559 31.6227 50.6036 31.6227 50.0451C31.6227 49.4865 31.5052 48.9343 31.2777 48.4241C31.0503 47.914 30.7181 47.4574 30.3026 47.084L28.1641 45.1429C27.5543 44.5855 27.1298 43.8549 26.9474 43.0491C26.7651 42.2434 26.8338 41.4011 27.1442 40.6356C27.4623 39.8704 28.0093 39.2225 28.7103 38.7807C29.4113 38.3389 30.2318 38.1249 31.0593 38.168H33.9217C34.4865 38.2254 35.057 38.1603 35.5943 37.9772C36.1317 37.7941 36.6232 37.4972 37.0355 37.1069C37.4477 36.7165 37.7708 36.2419 37.9829 35.7153C38.195 35.1887 38.2911 34.6225 38.2645 34.0555V31.1931C38.2214 30.3656 38.4354 29.5451 38.8772 28.8441C39.319 28.1431 39.967 27.596 40.7321 27.278C41.4977 26.9676 42.3399 26.8989 43.1457 27.0812C43.9514 27.2636 44.6821 27.6881 45.2394 28.2979L47.049 30.4364Z" stroke="#3DD3F2" stroke-width="3" stroke-linecap="round" stroke-linejoin="round"/>
<path d="M50.0081 57.4156C54.0964 57.4156 57.4107 54.1013 57.4107 50.013C57.4107 45.9246 54.0964 42.6104 50.0081 42.6104C45.9197 42.6104 42.6055 45.9246 42.6055 50.013C42.6055 54.1013 45.9197 57.4156 50.0081 57.4156Z" stroke="#3DD3F2" stroke-width="3" stroke-linecap="round" stroke-linejoin="round"/>
<path d="M81.8746 13H18.286C15.5845 13 13.3945 15.217 13.3945 17.9518V82.3255C13.3945 85.0603 15.5845 87.2773 18.286 87.2773H81.8746C84.5761 87.2773 86.7661 85.0603 86.7661 82.3255V17.9518C86.7661 15.217 84.5761 13 81.8746 13Z" stroke="black" stroke-width="3" stroke-linecap="round" stroke-linejoin="round"/>
</svg>
