<svg width="100" height="100" viewBox="0 0 100 100" fill="none" xmlns="http://www.w3.org/2000/svg">
<path d="M58.3486 43.3154H67.3562C68.0989 43.3154 68.811 43.612 69.3362 44.1399C69.8613 44.6678 70.1562 45.3837 70.1562 46.1302V81.3154H49.1562V58.1495" stroke="black" stroke-width="3" stroke-linecap="round" stroke-linejoin="round"/>
<path d="M40.9062 62.3154H49.1562V81.3154H38.1562V65.0297C38.1562 64.3098 38.446 63.6195 38.9617 63.1104C39.4774 62.6014 40.1769 62.3154 40.9062 62.3154Z" stroke="black" stroke-width="3" stroke-linecap="round" stroke-linejoin="round"/>
<path d="M70.1562 62.3154H79.1562C79.9519 62.3154 80.715 62.6014 81.2776 63.1104C81.8402 63.6195 82.1562 64.3098 82.1562 65.0297V81.3154H70.1562V62.3154Z" stroke="black" stroke-width="3" stroke-linecap="round" stroke-linejoin="round"/>
<path d="M36.6721 52.0229L38.2389 51.428C45.6906 48.5952 52.1562 41.4452 52.1562 33.4737V23.8621C52.1565 23.2855 51.9882 22.7215 51.6721 22.2394C51.356 21.7572 50.9058 21.378 50.3769 21.1482C45.4866 19.321 40.3144 18.3623 35.0939 18.3154C29.9137 18.3597 24.782 19.3187 19.9356 21.1482C19.4067 21.378 18.9565 21.7572 18.6404 22.2394C18.3243 22.7215 18.156 23.2855 18.1563 23.8621V33.4766C18.1563 41.4481 24.4972 48.5924 31.9489 51.4309L33.5157 52.0258C34.5324 52.413 35.6561 52.412 36.6721 52.0229Z" stroke="#3DD3F2" stroke-width="3" stroke-linecap="round" stroke-linejoin="round"/>
<path d="M29.1562 36.6016L32.6277 39.1082C32.8472 39.2675 33.1219 39.3392 33.3949 39.3085C33.6678 39.2777 33.918 39.1469 34.0934 38.9431L44.1563 27.3154" stroke="#3DD3F2" stroke-width="3" stroke-linecap="round" stroke-linejoin="round"/>
<path d="M57.1562 54.3154H62.1563" stroke="black" stroke-width="3" stroke-linecap="round" stroke-linejoin="round"/>
<path d="M57.1562 66.3154H62.1563" stroke="black" stroke-width="3" stroke-linecap="round" stroke-linejoin="round"/>
</svg>
