<svg width="73" height="75" viewBox="0 0 73 75" fill="none" xmlns="http://www.w3.org/2000/svg">
<path d="M59.4204 39.9108L59.4768 53.4188C59.4768 54.1792 60.111 54.8014 60.9003 54.8014C61.0131 54.8014 61.1399 54.7875 61.2527 54.7599C69.4697 52.6307 71.006 49.6443 71.006 46.1048V10.6826" stroke="#231F20" stroke-width="3" stroke-linecap="round" stroke-linejoin="round"/>
<path d="M2 10.6689V46.0911C2 49.6305 3.52219 52.617 11.7533 54.7462C11.8661 54.7738 11.9788 54.7876 12.1057 54.7876C12.8808 54.7876 13.5151 54.1793 13.5292 53.405L13.5856 39.897M13.5856 43.9619L13.656 18.2455C13.656 17.7063 13.2473 16.8353 12.4721 16.6279C4.7484 14.637 2 12.1621 2 10.6551C2 7.04649 14.7131 2 36.503 2C58.2929 2 71.006 7.04649 71.006 10.6551C71.006 12.1621 68.2576 14.637 60.5339 16.6279C59.7587 16.8215 59.35 17.7063 59.35 18.2455L59.4204 43.9619" stroke="#231F20" stroke-width="3" stroke-linecap="round" stroke-linejoin="round"/>
<path d="M12.4721 42.9248C4.7484 40.9338 2 38.459 2 36.9519C2 33.3434 14.7131 28.2969 36.503 28.2969C58.2929 28.2969 71.006 33.3434 71.006 36.9519C71.006 38.459 68.2576 40.9338 60.5339 42.9248" stroke="#231F20" stroke-width="3" stroke-linecap="round" stroke-linejoin="round"/>
<path d="M49.3147 19.0892C51.0739 19.0892 52.5 17.6902 52.5 15.9645C52.5 14.2388 51.0739 12.8398 49.3147 12.8398C47.5555 12.8398 46.1294 14.2388 46.1294 15.9645C46.1294 17.6902 47.5555 19.0892 49.3147 19.0892Z" stroke="#231F20" stroke-width="3" stroke-linecap="round" stroke-linejoin="round"/>
<path d="M23.7337 19.0892C25.4929 19.0892 26.919 17.6902 26.919 15.9645C26.919 14.2388 25.4929 12.8398 23.7337 12.8398C21.9745 12.8398 20.5483 14.2388 20.5483 15.9645C20.5483 17.6902 21.9745 19.0892 23.7337 19.0892Z" stroke="#231F20" stroke-width="3" stroke-linecap="round" stroke-linejoin="round"/>
<path d="M36.531 17.8177C38.2902 17.8177 39.7164 16.4187 39.7164 14.693C39.7164 12.9673 38.2902 11.5684 36.531 11.5684C34.7718 11.5684 33.3457 12.9673 33.3457 14.693C33.3457 16.4187 34.7718 17.8177 36.531 17.8177Z" stroke="#231F20" stroke-width="3" stroke-linecap="round" stroke-linejoin="round"/>
<path d="M48.8357 51.5933C47.9336 49.7545 46.0873 48.9111 43.212 49.2567C42.155 48.1092 40.5059 47.4455 38.0394 47.6667C37.3629 43.9199 36.1226 40.4358 34.699 38.1545C33.8957 36.8548 32.2607 36.1773 30.8231 36.7166C28.8922 37.4493 28.2156 39.6477 29.2586 41.2653C30.964 43.8922 31.8661 49.9204 31.4714 54.8148C31.3305 56.6122 29.0754 57.3726 27.8351 56.0591L25.8337 53.9438C24.4383 52.492 22.1128 52.4229 20.647 53.7917C19.1811 55.1604 19.0966 57.4417 20.4919 58.8796L28.8499 69.5256C30.358 71.4336 32.6695 72.5674 35.136 72.5674H44.0013C47.6095 72.5674 50.7525 70.1893 51.6687 66.7604L53.5432 59.7783C54.5439 56.0453 53.7969 51.9943 48.8357 51.5933Z" stroke="#00CCF5" stroke-width="3" stroke-linecap="round" stroke-linejoin="round"/>
</svg>
