<svg width="358" height="336" viewBox="0 0 358 336" fill="none" xmlns="http://www.w3.org/2000/svg">
<path d="M307.206 275.36L358 245.997L303.946 214.895L277.422 230.165L195.027 182.758L83.514 246.96L50.4708 227.949L0 257.007L53.7304 288.414L96.6793 263.586L159.139 300.096L204.17 328.521L249.473 298.553L298.449 270.242L307.206 275.36Z" fill="#F0F0F0"/>
<path d="M222.551 199.893L210.869 193.3L212.471 192.374L163.119 163.717L135.786 179.518L185.326 208.067L205.751 196.26L217.214 203.052L222.551 199.893Z" fill="#E9E9E9"/>
<path d="M279.478 209.445L290.883 202.85L246.835 178.442L235.703 184.88L191.826 160.262L173.064 171.078L290.629 237.917L310.156 226.658L279.478 209.445Z" fill="#E9E9E9"/>
<path d="M343.995 224.851V94.3582L183.384 1.49365V131.986L241.283 165.465L241.23 165.435L241.236 184.124L220.648 196.028L257.343 217.224L282.174 202.867L261.514 191.419L261.591 177.206L343.995 224.851Z" fill="#EFEEED"/>
<path d="M183.384 1.49384L185.978 0L347.075 92.7428L346.942 223.078L343.995 224.851V94.3584L183.384 1.49384Z" fill="#6B6B6B"/>
<path d="M343.995 94.3582L347.075 92.7427L346.942 223.078L343.995 224.851V94.3582Z" fill="#E3E3E3"/>
<path d="M343.995 103.238L183.384 10.3737V1.49365L343.995 94.3582V103.238Z" fill="#5628A7"/>
<path d="M190.273 9.9174C190.273 10.7307 189.616 11.0101 188.804 10.5398C187.991 10.0696 187.334 9.0294 187.334 8.21608C187.334 7.40277 187.991 7.12336 188.804 7.59365C189.616 8.06393 190.273 9.10409 190.273 9.9174Z" fill="#A17AD9"/>
<path d="M196.223 13.3588C196.223 14.1721 195.566 14.4515 194.754 13.9812C193.942 13.511 193.284 12.4708 193.284 11.6575C193.284 10.8442 193.942 10.5648 194.754 11.0351C195.566 11.5053 196.223 12.5455 196.223 13.3588Z" fill="#53C9FF"/>
<path d="M202.173 16.7973C202.173 17.6106 201.516 17.89 200.704 17.4197C199.892 16.9494 199.234 15.9093 199.234 15.096C199.234 14.2827 199.892 14.0032 200.704 14.4735C201.516 14.9438 202.173 15.984 202.173 16.7973Z" fill="#8890E4"/>
<path d="M269.663 175.139L187.113 127.411V19.3286L269.663 67.0569V175.139Z" fill="#D8CAFD"/>
<path d="M339.998 215.808L296.342 190.565V82.4824L339.998 107.723V215.808Z" fill="white"/>
<path d="M220.667 68.714L191.257 51.709V26.6401L220.667 43.6451V68.714Z" fill="white"/>
<path d="M334.07 134.28L302.27 115.895V90.8257L334.07 109.211V134.28Z" fill="#A17AD9"/>
<path d="M334.07 207.816L302.27 189.428V151.902L334.07 170.287V207.816Z" fill="#53C9FF"/>
<path d="M334.07 136.194L302.27 117.809V115.895L334.07 134.28V136.194Z" fill="#D8CAFD"/>
<path d="M334.07 143.874L302.27 125.488V124.797L334.07 143.182V143.874Z" fill="#D8CAFD"/>
<path d="M334.07 148.649L302.27 130.263V129.572L334.07 147.957V148.649Z" fill="#D8CAFD"/>
<path d="M334.07 153.423L302.27 135.038V134.346L334.07 152.732V153.423Z" fill="#D8CAFD"/>
<path d="M334.07 158.198L302.27 139.813V139.121L334.07 157.506V158.198Z" fill="#D8CAFD"/>
<path d="M334.07 162.973L302.27 144.588V143.896L334.07 162.281V162.973Z" fill="#D8CAFD"/>
<path d="M334.07 204.582L302.27 186.196V185.502L334.07 203.887V204.582Z" fill="white"/>
<path d="M291.486 187.757L268.171 174.279V66.1968L291.486 79.6746V187.757Z" fill="white"/>
<path d="M265.497 127.992L191.257 85.066V59.9971L265.497 102.923V127.992Z" fill="#6B44CD"/>
<path d="M288.646 125.118L270.566 114.663V105.853L288.646 116.307V125.118Z" fill="#6B44CD"/>
<path d="M265.497 164.24L191.257 121.317V96.248L265.497 139.174V164.24Z" fill="#6B44CD"/>
<path d="M233.868 56.3292L223.548 50.7328V49.25L233.868 54.8464V56.3292Z" fill="white"/>
<path d="M259.125 77.6051L223.548 57.4022V55.9194L259.125 76.1223V77.6051Z" fill="white"/>
<path d="M259.125 84.2752L223.548 64.0751V62.5923L259.125 82.7951V84.2752Z" fill="white"/>
<path d="M259.125 90.9475L223.548 70.7474V69.2646L259.125 89.4647V90.9475Z" fill="white"/>
<path d="M323.466 184.898C325.665 183.241 325.077 178.742 322.153 174.848C319.228 170.955 315.074 169.141 312.875 170.798C310.676 172.455 311.263 176.954 314.188 180.848C317.112 184.742 321.266 186.555 323.466 184.898Z" fill="white"/>
<path d="M316.159 177.026V173.881L318.88 177.026L321.6 180.172H318.88H316.159V177.026Z" fill="#D8CAFD"/>
<path d="M277.09 82.018C278.294 81.1106 277.973 78.6468 276.372 76.515C274.771 74.3832 272.496 73.3906 271.291 74.298C270.087 75.2053 270.408 77.6691 272.01 79.8009C273.611 81.9328 275.885 82.9254 277.09 82.018Z" fill="#D8CAFD"/>
<path d="M288.646 86.8672L279.828 81.7687V81.0771L288.646 86.1728V86.8672Z" fill="#D8CAFD"/>
<path d="M277.089 93.0619C278.293 92.1546 277.972 89.6908 276.371 87.559C274.77 85.4271 272.495 84.4345 271.29 85.3419C270.086 86.2493 270.407 88.7131 272.009 90.8449C273.61 92.9767 275.884 93.9693 277.089 93.0619Z" fill="#D8CAFD"/>
<path d="M288.646 97.9101L279.828 92.8145V92.1201L288.646 97.2185V97.9101Z" fill="#D8CAFD"/>
<path d="M277.09 104.108C278.294 103.201 277.973 100.737 276.371 98.6053C274.77 96.4735 272.496 95.4809 271.291 96.3883C270.087 97.2957 270.408 99.7594 272.009 101.891C273.611 104.023 275.885 105.016 277.09 104.108Z" fill="#D8CAFD"/>
<path d="M288.646 108.957L279.828 103.858V103.167L288.646 108.262V108.957Z" fill="#D8CAFD"/>
<path d="M284.812 176.724C286.975 175.094 286.397 170.67 283.521 166.841C280.645 163.012 276.56 161.228 274.397 162.858C272.235 164.487 272.813 168.912 275.689 172.741C278.564 176.57 282.649 178.353 284.812 176.724Z" fill="#D8CAFD"/>
<path d="M288.646 129.187L270.566 118.733V118.042L288.646 128.496V129.187Z" fill="#D8CAFD"/>
<path d="M288.646 133.652L270.566 123.198V122.506L288.646 132.96V133.652Z" fill="#D8CAFD"/>
<path d="M288.646 138.117L270.566 127.666V126.971L288.646 137.425V138.117Z" fill="#D8CAFD"/>
<path d="M288.646 152.837L270.566 142.383V133.572L288.646 144.023V152.837Z" fill="#6B44CD"/>
<path d="M288.646 156.906L270.566 146.452V145.758L288.646 156.212V156.906Z" fill="#D8CAFD"/>
<path d="M288.646 161.371L270.566 150.917V150.226L288.646 160.677V161.371Z" fill="#D8CAFD"/>
<path d="M288.646 165.836L270.566 155.382V154.69L288.646 165.145V165.836Z" fill="#D8CAFD"/>
<path d="M256.119 103.219L210.651 76.9302V76.2358L256.119 102.525V103.219Z" fill="#D8CAFD"/>
<path d="M256.119 107.994L210.651 81.7048V81.0132L256.119 107.299V107.994Z" fill="#D8CAFD"/>
<path d="M256.119 112.769L210.651 86.4797V85.7881L256.119 112.074V112.769Z" fill="#D8CAFD"/>
<path d="M256.119 117.543L210.651 91.2546V90.563L256.119 116.849V117.543Z" fill="#D8CAFD"/>
<path d="M256.119 139.467L210.651 113.178V112.486L256.119 138.775V139.467Z" fill="#D8CAFD"/>
<path d="M256.119 144.242L210.651 117.956V117.261L256.119 143.55V144.242Z" fill="#D8CAFD"/>
<path d="M256.119 149.016L210.651 122.73V122.036L256.119 148.325V149.016Z" fill="#D8CAFD"/>
<path d="M256.119 153.791L210.651 127.505V126.811L256.119 153.099V153.791Z" fill="#D8CAFD"/>
<path d="M220.648 196.028V197.663L257.304 218.895L282.174 204.582V202.867L257.343 217.224L220.648 196.028Z" fill="#6B6B6B"/>
<path d="M264.724 193.198V205.318L275.759 199.345L264.724 193.198Z" fill="#D3D3D3"/>
<path d="M194.991 85.7826C195.107 85.7162 195.226 85.6608 195.348 85.6138H195.345L195.378 85.6C195.378 85.6 195.378 85.6 195.381 85.6L196.861 85.0163C198.864 84.2223 201.781 85.9319 203.568 89.0331C205.461 92.3167 205.375 95.9158 203.375 97.0721C203.278 97.1275 203.179 97.1745 203.077 97.2188H203.082L202.999 97.252C202.994 97.252 202.988 97.2575 202.983 97.2575L201.461 97.8578C199.458 98.6103 196.574 96.9006 194.798 93.8217C192.906 90.538 192.991 86.9389 194.991 85.7826Z" fill="#7A4E90"/>
<path d="M195.058 93.6722C196.848 96.7761 199.801 98.4193 201.657 97.346C203.513 96.2726 203.568 92.8865 201.778 89.7854C199.988 86.6816 197.035 85.0383 195.179 86.1117C193.323 87.185 193.268 90.5711 195.058 93.6722Z" fill="#A17AD9"/>
<path d="M194.516 87.0024C193.989 88.6429 194.381 91.0663 195.704 93.3568C196.895 95.4233 198.558 96.8895 200.104 97.4234C198.48 97.1246 196.643 95.6667 195.384 93.4841C194.005 91.0939 193.726 88.5405 194.516 87.0024Z" fill="#7A4E90"/>
<path d="M194.226 119.472C194.342 119.405 194.461 119.35 194.582 119.303H194.58L194.613 119.289C194.613 119.289 194.613 119.289 194.616 119.289L196.096 118.705C198.099 117.911 201.016 119.621 202.803 122.722C204.695 126.006 204.61 129.605 202.61 130.761C202.513 130.816 202.414 130.863 202.311 130.908H202.317L202.234 130.941C202.229 130.941 202.223 130.946 202.218 130.946L200.695 131.547C198.693 132.299 195.809 130.59 194.033 127.511C192.141 124.227 192.226 120.628 194.226 119.472Z" fill="#7A4E90"/>
<path d="M194.293 127.361C196.083 130.465 199.035 132.108 200.892 131.035C202.748 129.962 202.803 126.576 201.013 123.475C199.223 120.373 196.27 118.728 194.414 119.801C192.558 120.874 192.503 124.26 194.293 127.361Z" fill="#A17AD9"/>
<path d="M193.751 120.691C193.223 122.332 193.616 124.755 194.939 127.046C196.129 129.112 197.792 130.578 199.339 131.112C197.715 130.814 195.878 129.356 194.618 127.173C193.24 124.783 192.961 122.23 193.751 120.691Z" fill="#7A4E90"/>
<g style="mix-blend-mode:hard-light" opacity="0.3">
<path d="M183.384 101.667L194.323 107.994V49.5652L183.384 43.2412V101.667Z" fill="#1F1635"/>
</g>
<path d="M187.011 108.868L156.329 91.1298V32.7012L187.011 50.4419V108.868Z" fill="#B3ABE2"/>
<path d="M170.782 53.77L157.931 46.3395V35.6641L170.782 43.0946V53.77Z" fill="white"/>
<path d="M165.509 91.6031L157.931 87.2212V80.4961L165.509 84.878V91.6031Z" fill="white"/>
<path d="M175.459 97.3542L167.882 92.9723V86.25L175.459 90.6319V97.3542Z" fill="white"/>
<path d="M185.408 103.108L177.829 98.7265V92.0015L185.408 96.3862V103.108Z" fill="white"/>
<path d="M185.409 55.5211L172.558 48.0906V47.7061L185.409 55.1365V55.5211Z" fill="white"/>
<path d="M185.409 52.9898L172.558 45.5593V44.3975L185.409 51.828V52.9898Z" fill="white"/>
<path d="M185.409 57.1973L172.558 49.7669V49.3823L185.409 56.8128V57.1973Z" fill="white"/>
<path d="M185.409 58.8741L172.558 51.4464V51.0591L185.409 58.4896V58.8741Z" fill="white"/>
<path d="M185.409 60.5504L172.558 53.1226V52.7354L185.409 60.1658V60.5504Z" fill="white"/>
<path d="M185.409 62.2296L172.558 54.7991V54.4146L185.409 61.8423V62.2296Z" fill="white"/>
<path d="M185.408 89.7494L157.931 73.8621V73.4775L185.408 89.3649V89.7494Z" fill="white"/>
<path d="M185.408 91.4289L157.931 75.5388V75.1543L185.408 91.0416V91.4289Z" fill="white"/>
<path d="M185.408 87.3453L157.931 71.458V50.1431L185.408 66.0304V87.3453Z" fill="white"/>
<path d="M156.329 32.7013L157.409 32.2891L188.118 50.0437V108.829L187.011 108.868V50.442L156.329 32.7013Z" fill="#5628A7"/>
<path d="M187.011 50.4418L188.118 50.0435V108.829L187.011 108.868V50.4418Z" fill="#6C46B7"/>
<g style="mix-blend-mode:hard-light" opacity="0.3">
<path d="M343.995 146.726L327.153 136.988V177.942L343.995 187.679V146.726Z" fill="#1F1635"/>
</g>
<path d="M348.835 203.224L318.156 185.483V144.529L348.835 162.267V203.224Z" fill="#B3ABE2"/>
<path d="M347.235 174.055L319.755 158.168V147.492L347.235 163.38V174.055Z" fill="white"/>
<path d="M347.235 180.008L319.755 164.118V160.007L347.235 175.895V180.008Z" fill="white"/>
<path d="M347.235 194.388L319.755 178.501V177.784L347.235 193.672V194.388Z" fill="white"/>
<path d="M347.235 197.298L319.755 181.411V180.694L347.235 196.584V197.298Z" fill="white"/>
<path d="M347.235 200.208L319.755 184.321V183.604L347.235 199.495V200.208Z" fill="white"/>
<path d="M327.921 179.231L319.755 174.509V166.334L327.921 171.053V179.231Z" fill="white"/>
<path d="M347.235 183.862L329.957 173.87V172.232L347.235 182.221V183.862Z" fill="white"/>
<path d="M347.235 187.129L329.957 177.139V175.499L347.235 185.488V187.129Z" fill="white"/>
<path d="M347.235 190.399L329.957 180.407V178.769L347.235 188.758V190.399Z" fill="white"/>
<path d="M318.156 144.529L319.236 144.117L349.945 161.872V203.185L348.835 203.224V162.267L318.156 144.529Z" fill="#5628A7"/>
<path d="M348.835 162.267L349.945 161.872V203.185L348.835 203.223V162.267Z" fill="#6C46B7"/>
<path d="M326.084 175.765C327.016 175.063 326.767 173.154 325.526 171.502C324.285 169.85 322.523 169.08 321.59 169.783C320.658 170.486 320.907 172.394 322.148 174.046C323.389 175.698 325.151 176.468 326.084 175.765Z" fill="#A17AD9"/>
<g style="mix-blend-mode:hard-light" opacity="0.3">
<path d="M195.906 139.226L226.584 156.967V139.711L195.906 121.97V139.226Z" fill="#1F1635"/>
</g>
<path d="M216.941 198.551L186.26 180.811V122.385L216.941 140.123V198.551Z" fill="#5628A7"/>
<path d="M215.093 191.123L188.107 175.521V125.862L215.093 141.464V191.123Z" fill="white"/>
<path d="M213.25 173.513L189.95 160.323V154.621L213.25 167.811V173.513Z" fill="#53C9FF"/>
<path d="M213.25 163.867L189.95 150.394V150.068L213.25 163.54V163.867Z" fill="#A17AD9"/>
<path d="M213.25 165.288L189.95 151.816V151.49L213.25 164.962V165.288Z" fill="#A17AD9"/>
<path d="M213.25 176.849L189.95 163.377V163.05L213.25 176.523V176.849Z" fill="#D8CAFD"/>
<path d="M213.25 178.271L189.95 164.799V164.472L213.25 177.944V178.271Z" fill="#D8CAFD"/>
<path d="M213.25 180.681L189.95 167.208V166.882L213.25 180.354V180.681Z" fill="#D8CAFD"/>
<path d="M213.25 182.102L189.95 168.63V168.304L213.25 181.776V182.102Z" fill="#D8CAFD"/>
<path d="M213.25 161.828L189.95 148.355V130.28L213.25 143.752V161.828Z" fill="#6B44CD"/>
<path d="M186.26 122.385L187.34 121.97L218.049 139.727V197.934L216.941 198.551V140.123L186.26 122.385Z" fill="#1F1635"/>
<path d="M216.941 140.123L218.049 139.727V197.934L216.941 198.551V140.123Z" fill="#3C3358"/>
<path d="M261.431 207.072L264.724 205.318V179.018L261.591 177.206L261.431 207.072Z" fill="#6B6B6B"/>
<path d="M261.591 177.206L241.23 165.435L241.233 170.301L261.586 178.21L261.591 177.206Z" fill="#E9E9E9"/>
<path d="M257.343 217.224L257.304 218.895L220.648 197.663V196.028L257.343 217.224Z" fill="#B7B6B6"/>
<path d="M159.492 198.85L159.495 210.901L109.952 182.263V170.301L159.492 198.85Z" fill="#B09FDA"/>
<path d="M109.952 170.301L137.286 154.5L186.638 183.156L159.492 198.85L109.952 170.301Z" fill="#D8CAFD"/>
<path d="M181.047 179.911L142.896 157.758C141.766 157.899 140.642 158.068 139.526 158.276C125.115 160.959 117.165 168.484 119.841 176.003L142.559 189.093C149.075 190.136 156.23 190.147 163.017 188.883C171.635 187.278 177.939 183.942 181.047 179.909V179.911Z" fill="#B3A2E0"/>
<path d="M145.918 218.696L145.924 230.746L96.3782 202.109V190.147L145.918 218.696Z" fill="#B09FDA"/>
<path d="M96.3782 190.147L110.14 182.191L159.492 210.851L145.918 218.696L96.3782 190.147Z" fill="#D8CAFD"/>
<path d="M159.492 198.85V210.853V210.85L145.918 218.696L145.923 230.746L159.492 222.951L159.495 222.934V222.948L186.638 207.304V183.156L159.492 198.85Z" fill="#8C7BBB"/>
<path d="M340.4 318.567C340.593 309.129 325.719 301.17 307.179 300.791C288.64 300.411 273.454 307.755 273.262 317.194C273.069 326.632 287.943 334.591 306.482 334.97C325.022 335.349 340.208 328.005 340.4 318.567Z" fill="#F0F0F0"/>
<path d="M131.698 171.775L138.137 168.37C142.04 167.524 145.714 165.449 146.418 167.075C147.2 168.879 145.758 170.876 144.175 171.944C141.918 173.466 140.233 174.177 138.278 174.069L138.222 175.521L134.242 177.084L131.377 175.975L131.369 174.913L131.7 171.781L131.698 171.775Z" fill="#2E2C25"/>
<path d="M149.128 183.405L149.352 183.906L154.02 184.193L155.371 182.99C155.371 182.99 164.473 182.625 165.332 178.273C166.296 173.382 157.144 177.081 156.191 177.081C155.238 177.081 149.261 179.994 149.261 179.994L149.128 183.405Z" fill="#2E2C25"/>
<path d="M133.214 170.973L131.697 171.775L131.366 174.907L131.374 175.969L134.239 177.078V170.954C134.239 170.954 133.794 170.954 133.211 170.97L133.214 170.973Z" fill="#21201F"/>
<path d="M152.045 178.686C150.562 179.361 149.261 179.994 149.261 179.994L149.128 183.405L149.352 183.906L154.02 184.194V178.794L152.042 178.683L152.045 178.686Z" fill="#21201F"/>
<path d="M137.656 51.5596V51.5623C140.706 53.0921 143.297 51.6011 143.297 51.6011C143.134 50.1238 143.562 48.4529 144.899 48.3893C145.965 48.3395 146.327 49.4516 146.327 49.4516C147.388 48.6355 147.459 47.7752 147.631 46.7488C147.379 46.2896 146.658 45.7446 145.222 45.7225C145.222 45.7225 146.192 45.2052 147.611 45.681C149.266 44.6519 150.084 43.8248 150.481 43.2051H150.49C150.49 43.2051 150.642 42.97 150.832 42.5771C151.053 45.0752 151.556 53.449 148.556 54.846C147.772 55.2112 146.968 55.1752 146.183 54.8792C145.874 56.1047 145.534 57.6843 145.426 59.0952L135.816 55.7479C135.816 55.7479 137.184 53.2609 137.656 51.554V51.5596Z" fill="#C3AADA"/>
<path d="M144.899 48.3921C145.266 48.3755 145.542 48.5 145.758 48.6632C145.719 48.6632 144.426 48.63 144.192 49.6785C143.957 50.7435 144.965 51.1696 144.863 51.8307C144.761 52.4947 143.75 52.6247 143.297 51.6011C143.134 50.1239 143.562 48.453 144.899 48.3921Z" fill="#9B97B2"/>
<path d="M151.537 40.2894C151.512 39.703 151.258 39.2576 150.992 38.9394C150.992 38.9367 150.992 38.9339 150.99 38.9311H151.009C151.009 38.9311 150.705 37.4982 148.517 37.1219C147.747 36.9891 147.07 37.1773 146.512 37.4733C145.36 36.9311 144.302 37.2658 143.672 37.5867C143.54 37.5507 143.418 37.5092 143.266 37.4843C141.694 37.2132 140.504 38.2617 139.954 38.8758C139.136 39.1248 138.194 39.5951 137.465 40.4859C136.239 41.9852 135.758 44.3643 136.438 45.9909C136.371 46.0933 136.308 46.2565 136.244 46.4944C135.86 47.9883 136.471 49.0063 137.076 49.6066C137.352 50.8072 137.659 51.5652 137.659 51.5652C140.708 53.095 143.299 51.6039 143.299 51.6039C143.136 50.1267 143.564 48.4558 144.901 48.3922C145.968 48.3424 146.33 49.4544 146.33 49.4544C146.52 49.3078 146.672 49.1584 146.805 49.0063V49.0118C146.805 49.0118 148.465 47.4986 147.614 45.6866C147.614 45.6866 149.979 45.9273 150.305 43.4625C150.371 43.3739 150.432 43.291 150.481 43.2107C150.484 43.2107 150.49 43.2107 150.49 43.2107C150.49 43.2107 151.2 42.4361 151.31 41.0723C151.451 40.9008 151.55 40.6601 151.534 40.2894H151.537Z" fill="#2E2C25"/>
<path d="M136.435 45.9883C136.369 46.0907 136.305 46.2539 136.242 46.4918C135.858 47.9856 136.468 49.0037 137.073 49.604C137.349 50.8046 137.656 51.5626 137.656 51.5626C140.705 53.0924 143.297 51.6013 143.297 51.6013C143.134 50.1241 143.562 48.4532 144.899 48.3895C145.064 48.3812 145.208 48.4089 145.341 48.4476C145.957 46.2871 144.719 44.9648 144.719 44.9648C144.719 44.9648 142.018 45.4102 139.797 44.1127C137.576 42.8153 137.465 40.4805 137.465 40.4805C136.239 41.9798 135.758 44.3589 136.438 45.9856L136.435 45.9883Z" fill="#21201F"/>
<path d="M143.297 51.6012C143.297 51.6012 140.706 53.0923 137.656 51.5625C137.181 53.2694 135.816 55.7536 135.816 55.7536L141.855 57.856L142.902 53.7811C144.567 54.6249 146.183 54.8849 146.183 54.8849C143.857 53.5515 143.297 51.6012 143.297 51.6012Z" fill="#9B97B2"/>
<path d="M151.537 40.2894C151.512 39.703 151.258 39.2576 150.993 38.9395C150.993 38.9367 150.993 38.9339 150.99 38.9312C150.99 38.9312 151.285 40.2009 150.551 40.9368C150.551 40.9368 150.343 42.8954 148.432 43.1028C148.432 43.1028 146.692 44.7129 144.719 44.9674C144.719 44.9674 145.863 46.0961 145.344 48.4447C146.07 48.6605 146.33 49.4517 146.33 49.4517C146.52 49.3051 146.672 49.1557 146.805 49.0035V49.0091C146.805 49.0091 148.465 47.4959 147.614 45.6839C147.614 45.6839 149.979 45.9246 150.305 43.4597C150.371 43.3712 150.432 43.2882 150.481 43.208C150.484 43.208 150.49 43.208 150.49 43.208C150.49 43.208 151.2 42.4334 151.31 41.0696C151.451 40.898 151.551 40.6574 151.534 40.2867L151.537 40.2894Z" fill="#413E36"/>
<path d="M184.492 59.3223C172.409 63.8121 163.708 67.248 163.708 67.248C159.572 65.9284 155.725 64.6697 152.885 63.7319C155.144 59.6045 155.896 56.4287 155.896 56.4287L153.299 54.4922C150.86 57.1036 148.728 59.4523 146.94 61.4524C146.576 61.2643 146.208 61.0817 145.841 60.9019H145.849L145.429 59.0982C145.429 59.0982 141.385 55.9556 135.819 55.7509C135.819 55.7509 134.535 56.4397 133.714 57.6154L133.745 57.6237C132.526 57.7067 131.385 57.9751 130.363 58.4979C126.306 60.5672 125.775 66.5315 127.532 75.4641C129.12 83.5364 129.065 90.0042 129.25 97.0889C129.25 97.0889 129.377 104.898 129.051 107.366C129.051 107.366 136.684 112.423 145.758 112.423C145.758 112.423 153.6 112.451 158.401 107.203C158.401 107.203 158.211 105.999 157.943 104.176C157.813 103.31 156.44 92.3279 156.44 92.3279C156.434 92.2588 156.426 92.1896 156.421 92.1205C156.324 91.0028 156.213 89.8133 156.097 88.6099C155.998 85.6222 155.744 80.983 155.103 75.8818C155.095 75.1543 155.064 74.3603 154.995 73.5332C161.766 74.7697 165.188 74.0228 165.188 74.0228C176.81 70.7806 186.265 62.44 186.265 62.44L184.494 59.3195L184.492 59.3223Z" fill="#B598D0"/>
<path d="M148.067 62.4977C150.081 63.5877 159.476 68.5229 163.777 68.2269C168.602 67.8922 184.853 60.008 184.873 59.9997L184.489 59.3247C172.406 63.8145 163.705 67.2504 163.705 67.2504L148.081 62.412L148.067 62.5005V62.4977Z" fill="#9966E0"/>
<path d="M130.443 108.193C133.048 109.626 138.998 112.426 145.752 112.426C145.752 112.426 152.821 112.448 157.647 107.955C158.401 114.841 159.078 125.226 158.202 136.629C156.65 156.84 156.451 178.545 156.451 178.545L149.274 180.077C149.274 180.077 143.929 159.52 147.81 136.717C147.81 136.717 145.611 130.706 143.377 123.425C143.222 125.851 142.904 130.092 142.31 135.043C141.333 143.196 139.25 171.023 139.25 171.023L131.656 172.304C129.59 155.072 132.156 134.471 132.156 134.471C132.286 133.176 131.725 118.653 130.562 109.194C130.521 108.849 130.485 108.525 130.446 108.193H130.443Z" fill="#5E4E72"/>
<path d="M130.361 58.5034C131.385 57.9805 132.526 57.7122 133.742 57.6292L133.711 57.6209C134.532 56.4424 135.816 55.7563 135.816 55.7563C136.065 55.7646 136.308 55.7868 136.548 55.8061C136.46 55.8587 135.612 56.4203 135.816 58.7302C135.816 58.7302 131.576 63.0651 132.814 72.6478C134.051 82.2278 137.382 103.673 135.427 110.459C131.565 109.04 129.046 107.371 129.046 107.371C129.374 104.904 129.245 97.0943 129.245 97.0943C129.06 90.0096 129.112 83.5418 127.526 75.4696C125.77 66.5369 126.3 60.5754 130.358 58.5034H130.361Z" fill="#8762B9"/>
<path d="M130.443 108.193C130.482 108.525 130.518 108.849 130.559 109.194C131.725 118.653 132.283 133.173 132.153 134.471C132.153 134.471 129.587 155.072 131.653 172.304L134.126 171.886C132.233 159.847 135.427 134.222 135.427 134.222L136.548 118.841C137.855 120.027 141.125 121.546 141.125 121.546C137.128 117.878 135.427 110.459 135.427 110.459C133.286 109.67 131.557 108.81 130.443 108.196V108.193Z" fill="#5B2D7E"/>
<path d="M143.377 123.425C145.612 130.706 147.81 136.717 147.81 136.717C143.929 159.52 149.274 180.077 149.274 180.077L153.097 179.261C149.89 166.044 151.341 136.665 151.341 136.665C150.564 133.439 143.374 123.425 143.374 123.425H143.377Z" fill="#5B2D7E"/>
<path d="M148.75 72.1357C148.75 72.1357 152.263 76.2466 155.15 76.324C155.133 76.1774 155.117 76.0336 155.097 75.8842C155.089 75.1566 155.059 74.3627 154.987 73.5383C154.957 73.5328 150.371 72.5784 148.747 72.1357H148.75Z" fill="#8762B9"/>
<path d="M148.75 72.1357C148.75 72.1357 150.769 75.4333 153.097 77.1069C153.097 77.1069 154.335 82.2718 154.282 89.0023C154.236 94.8366 152.929 104.992 153.744 110.555C155.374 109.792 157.012 108.718 158.396 107.205C158.396 107.205 158.205 106.002 157.937 104.179C157.807 103.313 156.434 92.3303 156.434 92.3303C156.429 92.2611 156.421 92.192 156.415 92.1228C156.318 91.0052 156.208 89.8157 156.092 88.6123C155.995 85.7131 155.752 81.2537 155.153 76.3268C155.153 76.3268 152.691 76.5343 148.752 72.1357H148.75Z" fill="#9966E0"/>
<path d="M142.924 57.6099L142.692 59.4191C142.692 59.4191 144.799 60.3845 145.838 60.9046L145.424 59.1009C145.424 59.1009 144.164 58.1659 142.921 57.6099H142.924Z" fill="#9966E0"/>
<path d="M156.329 135.528C155.854 143.495 154.758 168.926 155.283 178.794L156.451 178.545C156.451 178.545 156.647 156.843 158.202 136.629C159.078 125.226 158.401 114.841 157.647 107.955C156.73 108.807 155.733 109.499 154.719 110.058C154.968 112.027 156.829 127.179 156.329 135.528Z" fill="#8647C5"/>
<path d="M137.598 171.299L139.247 171.023C139.247 171.023 141.333 143.193 142.308 135.043C142.902 130.092 143.219 125.851 143.374 123.425C143.374 123.425 141.012 121.588 140.269 120.667C140.269 120.667 141.222 123.236 142.076 124.459C142.076 124.459 141.018 133.057 140.741 135.409C140.512 137.362 137.706 159.675 137.598 171.302V171.299Z" fill="#8647C5"/>
<path d="M148.12 61.986C150.843 59.4437 153.504 56.8184 154.501 55.3909L153.299 54.4946C153.299 54.4946 150.203 57.8198 146.938 61.4493C147.269 61.607 147.667 61.7896 148.123 61.986H148.12Z" fill="#9966E0"/>
<path d="M184.657 59.618L185.815 57.7756C185.815 57.7756 187.008 56.0522 187.008 56.1628V57.9693L188.118 56.9678L188.453 58.1076L188.563 59.0731L188.381 61.0399C188.381 61.0399 187.563 61.975 186.177 62.282L184.657 59.6153V59.618Z" fill="#C3AADA"/>
<path d="M153.578 54.7023L154.506 52.4975L156.329 51.2139V55.5211C156.329 55.5211 155.998 56.1048 155.711 56.2929L153.581 54.705L153.578 54.7023Z" fill="#C3AADA"/>
<path d="M154.506 52.4976C154.506 52.4976 156.763 51.9914 156.838 52.0467C156.912 52.102 156.487 53.0094 155.672 53.3635C155.672 53.3635 155.956 54.9929 154.677 55.5213L153.581 54.7024C153.581 54.7024 153.97 53.3746 154.509 52.4976H154.506Z" fill="#C3AADA"/>
<path d="M155.672 53.3632C155.672 53.3632 155.956 54.9926 154.677 55.521L154.285 55.2277L154.89 55.6786C155.755 55.5486 156.332 54.4919 156.332 54.4919V52.8984L156.324 52.904C156.147 53.0838 155.934 53.2525 155.675 53.3632H155.672Z" fill="#9B97B2"/>
<path d="M187.787 59.2197L188.453 58.1076L188.118 56.9678L187.008 57.9693L186.61 58.2182L187.008 56.9678V56.1628C187.008 56.0522 185.815 57.7756 185.815 57.7756L184.657 59.618L185.411 60.9404L187.787 59.2224V59.2197Z" fill="#9B97B2"/>
<path d="M67.727 265.951L27.6675 242.791L71.8567 217.393L111.662 240.31L67.727 265.951Z" fill="#D8CAFD"/>
<path d="M27.6675 242.791L67.727 265.951L111.662 240.31L111.582 243.433L67.5999 269.146L27.6675 245.765V242.791Z" fill="#9379D4"/>
<path d="M24.6565 262.23L13.6431 255.862L25.7919 248.88L36.7363 255.179L24.6565 262.23Z" fill="#D8CAFD"/>
<path d="M13.6431 255.862L24.6565 262.23L36.7363 255.179L36.7142 258.1L24.6234 265.171L13.6431 258.742V255.862Z" fill="#9379D4"/>
<path d="M40.1839 271.719L29.1704 265.351L41.3192 258.369L52.2636 264.668L40.1839 271.719Z" fill="#D8CAFD"/>
<path d="M29.1704 265.351L40.1839 271.719L52.2636 264.667L52.2415 267.589L40.148 274.657L29.1704 268.231V265.351Z" fill="#9379D4"/>
<path d="M38.4546 239.353L70.2271 220.834L99.6765 237.693L68.2852 255.992L38.4546 239.353Z" fill="#6B44CD"/>
<path d="M38.4546 239.383V242.44L68.2852 259.685V256.023L38.4546 239.383Z" fill="#372268"/>
<path d="M68.2852 256.023L99.6765 237.723V241.765L68.2852 259.685V256.023Z" fill="#462686"/>
<path d="M93.8423 236.954L66.4923 252.479L44.2886 239.875L71.6386 224.35L93.8423 236.954Z" fill="#D8CAFD"/>
<path d="M86.1989 234.968L76.8318 240.287L76.0942 239.867L85.4614 234.55L86.1989 234.968Z" fill="white"/>
<path d="M82.3178 232.765L72.9507 238.082L63.6582 232.809L73.0253 227.49L82.3178 232.765Z" fill="white"/>
<path d="M88.8229 236.459L79.4558 241.776L78.7183 241.358L88.0854 236.041L88.8229 236.459Z" fill="white"/>
<path d="M63.3877 240.34C64.1694 239.302 63.7799 238.03 62.2358 237.15C60.2303 236.013 57.0508 235.974 55.131 237.064C53.2112 238.154 53.2802 239.961 55.2829 241.098C56.8299 241.975 59.0729 242.196 60.9016 241.753C58.8132 243.618 59.2856 246.174 62.2689 247.864L65.5009 249.698L77.39 242.951L74.158 241.117C71.1775 239.424 66.6721 239.156 63.3904 240.343L63.3877 240.34Z" fill="#6B44CD"/>
<path d="M38.4546 231.88L70.2271 213.362L99.6765 230.221L68.2852 248.52L38.4546 231.88Z" fill="#6B44CD"/>
<path d="M38.4546 231.911V234.965L68.2852 252.213V248.55L38.4546 231.911Z" fill="#372268"/>
<path d="M68.2852 248.551L99.6765 230.251V234.29L68.2852 252.213V248.551Z" fill="#462686"/>
<path d="M93.8423 229.482L66.4923 245.004L44.2886 232.401L71.6386 216.878L93.8423 229.482Z" fill="#D8CAFD"/>
<path d="M86.1989 227.496L76.8318 232.813L76.0942 232.395L85.4614 227.078L86.1989 227.496Z" fill="white"/>
<path d="M82.3178 225.294L72.9507 230.611L63.6582 225.335L73.0253 220.018L82.3178 225.294Z" fill="white"/>
<path d="M88.8229 228.984L79.4558 234.304L78.7183 233.883L88.0854 228.566L88.8229 228.984Z" fill="white"/>
<path d="M63.3877 232.868C64.1694 231.831 63.7799 230.558 62.2358 229.678C60.2303 228.541 57.0508 228.503 55.131 229.593C53.2112 230.683 53.2802 232.489 55.2829 233.626C56.8299 234.503 59.0729 234.724 60.9016 234.282C58.8132 236.146 59.2856 238.702 62.2689 240.393L65.5009 242.227L77.39 235.48L74.158 233.645C71.1775 231.952 66.6721 231.684 63.3904 232.871L63.3877 232.868Z" fill="#6B44CD"/>
<path d="M38.4546 224.406L70.2271 205.888L99.6765 222.746L68.2852 241.046L38.4546 224.406Z" fill="#6B44CD"/>
<path d="M38.4546 224.436V227.493L68.2852 244.738V241.076L38.4546 224.436Z" fill="#372268"/>
<path d="M68.2852 241.076L99.6765 222.776V226.818L68.2852 244.739V241.076Z" fill="#462686"/>
<path d="M93.8423 222.007L66.4923 237.53L44.2886 224.929L71.6386 209.404L93.8423 222.007Z" fill="#D8CAFD"/>
<path d="M86.1989 220.021L76.8318 225.341L76.0942 224.92L85.4614 219.604L86.1989 220.021Z" fill="white"/>
<path d="M82.3178 217.819L72.9507 223.136L63.6582 217.863L73.0253 212.543L82.3178 217.819Z" fill="white"/>
<path d="M88.8229 221.512L79.4558 226.829L78.7183 226.412L88.0854 221.095L88.8229 221.512Z" fill="white"/>
<path d="M63.3877 225.393C64.1694 224.356 63.7799 223.084 62.2358 222.204C60.2303 221.067 57.0508 221.028 55.131 222.118C53.2112 223.208 53.2802 225.014 55.2829 226.151C56.8299 227.028 59.0729 227.25 60.9016 226.807C58.8132 228.672 59.2856 231.228 62.2689 232.918L65.5009 234.752L77.39 228.005L74.158 226.171C71.1775 224.478 66.6721 224.209 63.3904 225.396L63.3877 225.393Z" fill="#6B44CD"/>
<path d="M38.4546 216.934L70.2271 198.416L99.6765 215.271L68.2852 233.573L38.4546 216.934Z" fill="#6B44CD"/>
<path d="M38.4546 216.964V220.018L68.2852 237.266V233.604L38.4546 216.964Z" fill="#372268"/>
<path d="M68.2852 233.604L99.6765 215.301V219.343L68.2852 237.266V233.604Z" fill="#462686"/>
<path d="M93.8423 214.532L66.4923 230.057L44.2886 217.454L71.6386 201.932L93.8423 214.532Z" fill="#D8CAFD"/>
<path d="M86.1989 212.549L76.8318 217.866L76.0942 217.448L85.4614 212.131L86.1989 212.549Z" fill="white"/>
<path d="M82.3178 210.347L72.9507 215.664L63.6582 210.388L73.0253 205.071L82.3178 210.347Z" fill="white"/>
<path d="M88.8229 214.037L79.4558 219.354L78.7183 218.937L88.0854 213.62L88.8229 214.037Z" fill="white"/>
<path d="M63.3877 217.921C64.1694 216.884 63.7799 215.611 62.2358 214.732C60.2303 213.595 57.0508 213.556 55.131 214.646C53.2112 215.736 53.2802 217.542 55.2829 218.679C56.8299 219.556 59.0729 219.778 60.9016 219.335C58.8132 221.199 59.2856 223.756 62.2689 225.446L65.5009 227.28L77.39 220.533L74.158 218.699C71.1775 217.006 66.6721 216.737 63.3904 217.924L63.3877 217.921Z" fill="#6B44CD"/>
<path d="M313.808 258.72L347.956 238.976L310.286 217.324L276.353 236.86L313.808 258.72Z" fill="#6B44CD"/>
<path d="M313.59 256.009L343.271 238.852L310.532 220.032L281.041 237.012L313.59 256.009Z" fill="#EFEEED"/>
<path d="M347.956 238.976L313.808 258.72L276.353 236.86L276.42 239.521L313.916 261.445L347.956 241.51V238.976Z" fill="#462686"/>
<path d="M281.041 237.012L289.671 232.044L304.455 230.649L305.717 238.022H324.899L326.766 248.393L313.59 256.009L281.041 237.012Z" fill="#53C9FF"/>
<path d="M347.956 238.976L313.808 258.72L313.916 261.445L347.956 241.51V238.976Z" fill="#6C46B7"/>
<path d="M213.112 283.463L281.085 244.166L206.107 201.069L138.565 239.953L213.112 283.463Z" fill="#E9E9E9"/>
<path d="M281.085 244.166L213.112 283.463L138.565 239.953L138.7 245.253L213.33 288.888L281.085 249.209V244.166Z" fill="#C2C1C1"/>
<path d="M213.112 283.463L213.33 288.888L138.7 245.253L138.565 239.953L213.112 283.463Z" fill="#B7B6B6"/>
<path d="M40.4297 166.071L116.775 121.928V54.0801L40.4297 98.2204V166.071Z" fill="#6B44CD"/>
<path d="M45.1172 124.628L112.554 85.6386V62.3374L45.1172 101.329V124.628Z" fill="#B3ABE2"/>
<path d="M89.29 132L112.555 118.547V95.249L89.29 108.699V132Z" fill="white"/>
<path d="M45.1172 157.54L86.7955 133.442V110.144L45.1172 134.239V157.54Z" fill="white"/>
<path d="M45.1172 129.743L112.554 90.7536V89.3428L45.1172 128.332V129.743Z" fill="#B3ABE2"/>
<path d="M47.0649 135.881L84.8483 114.035V113.634L47.0649 135.48V135.881Z" fill="#B3ABE2"/>
<path d="M47.0649 139.232L84.8483 117.385V116.984L47.0649 138.83V139.232Z" fill="#B3ABE2"/>
<path d="M47.0649 142.582L84.8483 120.739V120.337L47.0649 142.181V142.582Z" fill="#B3ABE2"/>
<path d="M47.0649 145.935L84.8483 124.089V123.688L47.0649 145.534V145.935Z" fill="#B3ABE2"/>
<path d="M47.0649 149.285L84.8483 127.439V127.038L47.0649 148.884V149.285Z" fill="#B3ABE2"/>
<path d="M47.0649 152.635L84.8483 130.792V130.391L47.0649 152.234V152.635Z" fill="#B3ABE2"/>
<path d="M40.4297 98.2203L116.775 54.0799V50.1157L40.4297 94.2588V98.2203Z" fill="#5628A7"/>
<path d="M105.648 117.188C109.118 112.567 109.815 107.228 107.205 105.262C104.595 103.295 99.6654 105.447 96.1952 110.067C92.725 114.687 92.0279 120.027 94.6382 121.993C97.2486 123.959 102.178 121.808 105.648 117.188Z" fill="#A17AD9"/>
<path d="M103.745 116.031C106.264 112.677 107.042 109.006 105.483 107.831C103.923 106.657 100.617 108.424 98.098 111.778C95.5788 115.132 94.8007 118.803 96.3601 119.977C97.9194 121.152 101.226 119.385 103.745 116.031Z" fill="white"/>
<path d="M339.357 185.895L342.984 182.678C342.954 182.515 340.849 183.303 340.849 183.303C340.849 183.303 342.998 181.546 343.012 181.408C343.025 181.272 340.465 182.393 340.244 182.537C340.026 182.681 342.363 180.667 342.387 180.564C342.412 180.462 339.664 181.682 339.664 181.682C339.664 181.682 340.7 178.913 340.655 178.774C340.611 178.636 339.277 180.633 338.979 181.032C338.979 181.032 337.415 183.273 337.062 183.95C336.57 184.888 338.573 186.327 339.357 185.895Z" fill="#AD84DC"/>
<path d="M339.664 181.682C339.664 181.682 340.699 178.913 340.655 178.777C340.611 178.639 339.277 180.636 338.978 181.035C338.978 181.035 337.415 183.275 337.061 183.953C336.769 184.512 337.362 185.248 338.059 185.66C338.216 185.677 338.321 185.688 338.321 185.688L339.666 182.631C339.456 182.224 339.666 181.685 339.666 181.685L339.664 181.682Z" fill="#9B97B2"/>
<path d="M297.209 195.887V195.89C300.259 197.42 302.85 195.929 302.85 195.929C302.687 194.452 303.115 192.781 304.452 192.717C305.518 192.667 305.88 193.779 305.88 193.779C306.941 192.963 307.013 192.103 307.184 191.077C306.933 190.618 306.212 190.073 304.775 190.05C304.775 190.05 305.745 189.533 307.165 190.009C308.819 188.98 309.637 188.153 310.035 187.533H310.043C310.043 187.533 310.101 186.913 310.292 186.521C310.513 189.019 311.109 197.777 308.109 199.174C307.325 199.539 306.521 199.503 305.736 199.207C305.427 200.433 305.087 202.012 304.98 203.423L295.369 200.076C295.369 200.076 296.737 197.589 297.209 195.882V195.887Z" fill="#C3AADA"/>
<path d="M296.681 187.904C296.681 187.904 297.347 185.287 299.388 184.081C301.057 183.096 305.7 182.979 305.7 182.979C312.068 183.311 310.04 187.538 310.04 187.538C310.04 187.538 310.035 187.538 310.032 187.538C309.634 188.158 308.816 188.985 307.162 190.014C307.524 191.821 306.938 192.966 305.877 193.782C305.877 193.782 305.515 192.67 304.449 192.72C303.115 192.781 302.687 194.454 302.847 195.932C302.847 195.932 300.256 197.423 297.206 195.893C297.206 195.893 296.123 192.349 296.679 187.906L296.681 187.904Z" fill="#2E2C25"/>
<path d="M304.452 192.72C304.819 192.703 305.096 192.828 305.311 192.991C305.272 192.991 303.98 192.958 303.745 194.006C303.51 195.071 304.518 195.497 304.416 196.158C304.314 196.822 303.303 196.952 302.85 195.929C302.687 194.451 303.115 192.781 304.452 192.72Z" fill="#9B97B2"/>
<path d="M306.14 189.984C306.529 189.743 306.844 189.093 306.844 189.093C302.532 192.205 298.72 188.927 298.72 188.927C297.789 188.983 297.132 188.28 296.745 187.696C296.704 187.826 296.684 187.904 296.684 187.904C296.129 192.347 297.212 195.89 297.212 195.89C300.261 197.42 302.853 195.929 302.853 195.929C302.69 194.452 303.118 192.781 304.455 192.717C305.491 192.67 305.858 193.708 305.88 193.768C306.919 191.815 306.143 189.984 306.143 189.984H306.14Z" fill="#21201F"/>
<path d="M303.195 195.6L302.833 195.644C302.839 195.741 302.839 195.835 302.85 195.929C302.85 195.929 300.259 197.42 297.209 195.89V195.887C296.737 197.594 295.369 200.081 295.369 200.081L300.306 201.802L301.159 199.235L302.93 198.123C303.996 198.789 305.736 199.215 305.736 199.215C304.206 198.194 303.195 195.602 303.195 195.602V195.6Z" fill="#9B97B2"/>
<path d="M309.079 183.837C309.234 185.018 309.17 187.173 307.137 188.728C307.137 188.728 309.637 187.834 310.247 185.339C310.098 184.805 309.758 184.266 309.076 183.837H309.079Z" fill="#413E36"/>
<path d="M336.854 184.081C329.305 195.638 322.606 203.667 322.606 203.667C314.333 205.462 307.651 205.371 305.488 205.279C305.455 205.263 305.424 205.246 305.394 205.232H305.402L304.982 203.429C304.982 203.429 300.938 200.286 295.372 200.081C295.372 200.081 294.088 200.77 293.267 201.946L293.298 201.954C292.08 202.037 290.939 202.305 289.917 202.828C285.859 204.898 285.328 210.862 287.085 219.795C288.674 227.867 288.618 234.335 288.803 241.419C288.803 241.419 288.93 249.229 288.605 251.696C288.605 251.696 296.162 254.784 305.237 254.784C305.237 254.784 312.455 255.533 317.954 251.533C317.954 251.533 317.764 250.33 317.496 248.507C317.366 247.641 315.993 236.658 315.993 236.658C315.988 236.589 315.979 236.52 315.974 236.451C315.877 235.333 315.767 234.144 315.651 232.94C315.551 229.953 315.297 225.313 314.656 220.212C314.648 219.449 314.618 218.613 314.537 217.739C314.446 216.572 314.214 215.476 313.921 214.497C324.217 212.287 327.551 208.842 327.551 208.842C334.968 199.937 339.89 185.644 339.89 185.644L336.857 184.081H336.854Z" fill="#956FD9"/>
<path d="M291.251 316.103L297.69 312.698C301.593 311.851 305.267 309.776 305.971 311.403C306.753 313.207 305.311 315.204 303.728 316.272C301.472 317.793 299.786 318.504 297.831 318.396L297.775 319.849L293.795 321.412L290.93 320.302L290.922 319.24L291.254 316.109L291.251 316.103Z" fill="#2E2C25"/>
<path d="M308.681 327.733L308.905 328.233L313.573 328.521L314.924 327.318C314.924 327.318 324.026 326.953 324.885 322.601C325.849 317.71 316.697 321.409 315.744 321.409C314.791 321.409 308.814 324.322 308.814 324.322L308.681 327.735V327.733Z" fill="#2E2C25"/>
<path d="M289.798 252.028C292.403 253.461 299.121 254.513 305.231 254.759C305.231 254.759 312.308 255.259 317.181 252.028C317.935 258.914 318.631 269.528 317.756 280.931C316.203 301.143 316.004 322.848 316.004 322.848L308.828 324.38C308.828 324.38 303.483 303.823 307.364 281.02C307.364 281.02 305.165 275.009 302.93 267.728C302.775 270.154 302.458 274.394 301.864 279.346C300.886 287.499 298.803 315.326 298.803 315.326L291.209 316.607C289.143 299.375 291.709 278.774 291.709 278.774C291.839 277.479 291.278 262.956 290.116 253.497C290.074 253.151 289.839 252.36 289.801 252.028H289.798Z" fill="#5100B1"/>
<path d="M310.065 215.21C310.065 215.21 312.115 216.843 314.449 216.926C314.333 216.063 314.142 215.249 313.921 214.5C313.894 214.508 311.118 215.177 310.068 215.21H310.065Z" fill="#965ABC"/>
<path d="M290.113 253.522C291.278 262.98 291.836 277.501 291.707 278.798C291.707 278.798 289.14 299.399 291.207 316.631L294.938 316.003C294.085 306.636 295.496 282.104 296.099 278.441C296.74 274.549 296.099 262.875 296.099 262.875C298.405 264.322 300.121 264.764 300.121 264.764C294.792 260.54 293.789 254.324 293.789 254.324L293.82 253.367C292.01 252.808 290.944 252.587 289.889 252.169C289.928 252.501 290.068 253.179 290.11 253.522H290.113Z" fill="#814BBA"/>
<path d="M308.828 324.402L312.156 323.691C308.446 309.179 311.449 281.54 311.338 280.884C311.228 280.218 309.985 278.735 307.543 274.286C305.101 269.838 302.93 267.75 302.93 267.75C305.165 275.031 307.363 281.042 307.363 281.042C303.482 303.845 308.828 324.402 308.828 324.402Z" fill="#814BBA"/>
<path d="M316.159 206.497C320.719 206.22 322.94 205.169 323.661 204.582L337.559 184.446L336.851 184.081C329.302 195.638 322.603 203.667 322.603 203.667C312.488 205.863 304.742 205.238 304.742 205.238C304.742 205.238 311.593 206.776 316.156 206.497H316.159Z" fill="#BE82E3"/>
<path d="M310.968 236.481C303.239 238.335 297.436 236.583 294.903 235.527C294.099 228.658 292.961 221.573 292.367 216.97C291.577 210.845 293.024 206.867 294.171 204.792C298.3 205.453 303.905 205.124 303.905 205.124C299.535 204.352 295.369 203.055 295.369 203.055C295.168 200.745 296.013 200.183 296.101 200.131C295.858 200.111 295.618 200.089 295.369 200.081C295.369 200.081 294.085 200.77 293.265 201.946L293.295 201.954C292.077 202.037 290.936 202.305 289.914 202.828C288.364 203.619 287.328 204.98 286.74 206.856C283.442 215.988 283.605 220.699 283.605 220.699C284.635 226.046 286.69 231.12 288.646 235.098C288.709 237.189 288.745 239.275 288.801 241.416C288.801 241.416 288.928 249.226 288.602 251.693C288.602 251.693 291.118 252.75 295.24 253.646C295.941 251.215 295.927 247.043 295.568 242.254L296.397 241.878C296.079 240.633 295.764 239.427 295.452 238.26C303.38 240.465 310.971 236.481 310.971 236.481H310.968Z" fill="#965ABC"/>
<path d="M301.684 201.566C301.684 201.566 302.04 203.993 302.375 204.833C302.375 204.833 303.745 205.298 305.402 205.232L304.982 203.425C304.982 203.425 303.502 202.25 301.684 201.566Z" fill="#BE82E3"/>
<path d="M317.493 248.507C317.363 247.641 315.99 236.658 315.99 236.658C315.985 236.589 315.976 236.52 315.971 236.451C315.874 235.333 315.764 234.144 315.648 232.94C315.548 229.952 315.294 225.313 314.653 220.212C314.645 219.449 314.615 218.613 314.535 217.739C314.512 217.462 314.485 217.191 314.446 216.926C314.446 216.926 313.023 217.139 310.062 215.21C310.062 215.21 311.148 217.302 313.178 221.443C313.178 221.443 314.399 230.434 314.443 233.269C314.49 236.105 313.568 249.455 314.443 253.431C315.631 252.963 316.824 252.346 317.946 251.533C317.946 251.533 317.755 250.33 317.487 248.507H317.493Z" fill="#BE82E3"/>
<path d="M317.217 252.028C316.316 252.604 315.38 253.063 314.446 253.431C314.446 253.431 317.073 267.907 316.819 274.588C316.581 280.793 314.454 313.998 314.927 323.08L316.007 322.85C316.007 322.85 316.206 300.819 317.758 280.608C318.62 269.382 317.96 258.925 317.219 252.031L317.217 252.028Z" fill="#C581E3"/>
<path d="M301.864 279.346C302.455 274.408 302.772 270.181 302.927 267.749C302.911 267.736 300.532 265.686 300.123 264.762C300.123 264.762 300.748 267.121 301.527 269.232C301.527 269.232 301.201 274.798 300.993 276.596C300.786 278.394 297.687 312.606 297.759 315.5L298.803 315.323C298.803 315.323 300.889 287.493 301.864 279.343V279.346Z" fill="#C581E3"/>
<path d="M293.792 321.409L294.24 316.117L291.206 316.629L290.919 319.234L290.927 320.297L293.792 321.409Z" fill="#1E1C1B"/>
<path d="M314.927 327.318L313.908 326.253L313.764 323.326L308.828 324.402L308.681 327.733L308.908 328.234L313.576 328.521L314.927 327.318Z" fill="#1E1C1B"/>
<path d="M324.051 320.38C324.084 321.041 323.871 322.048 322.703 323.199C320.761 325.113 313.905 326.253 313.905 326.253L313.385 326.806L313.573 328.518L314.924 327.315C314.924 327.315 324.026 326.95 324.885 322.598C325.12 321.406 324.753 320.728 324.051 320.377V320.38Z" fill="#4E4B40"/>
<path d="M297.831 318.393C299.786 318.501 301.469 317.79 303.728 316.269C305.267 315.232 306.667 313.317 306.026 311.552C304.308 317.019 296.4 317.503 296.4 317.503L296.985 318.438L293.955 319.475L293.792 321.406L297.773 319.843L297.828 318.391L297.831 318.393Z" fill="#4E4B40"/>
<path d="M116.776 50.1159L114.231 49.5156L37.999 93.2991V165.056L40.4299 166.071V94.259L116.776 50.1159Z" fill="#6B6B6B"/>
<path d="M37.999 93.2988L40.4299 94.2588V166.071L37.999 165.056V93.2988Z" fill="#E3E3E3"/>
<path d="M218.421 240.506V237.228L217.062 237.681L216.394 236.293L209.264 236.345C208.206 235.283 206.902 234.329 205.414 233.496L207.239 229.501V226.223L205.938 229.073L203.955 228.42L200.671 227.338L195.707 230.301C193.715 229.985 191.641 229.828 189.527 229.847L185.936 226.262L182.304 226.837L178.671 227.413L178.796 231.548C176.967 232.154 175.326 232.904 173.901 233.762L166.992 232.683L165.354 234.362L163.291 233.2V236.478L168.429 239.366C167.895 240.52 167.627 241.723 167.672 242.946L162.865 244.55L161.506 241.726V245.004L162.52 247.112L163.534 249.22L170.658 249.167C171.716 250.233 173.022 251.19 174.511 252.022L173.989 253.162L172.688 252.733V256.011L175.973 257.093L179.257 258.175L184.207 255.22C186.204 255.536 188.29 255.696 190.411 255.677L193.991 259.251L197.624 258.676L201.256 258.1V254.822L201.157 254.839L201.132 253.978C202.969 253.37 204.615 252.617 206.046 251.757L212.935 252.833L214.786 250.935L216.637 249.037V245.759L214.574 247.876L211.507 246.152C212.04 244.999 212.306 243.792 212.261 242.564L218.421 240.506ZM193.317 249.724C186.685 250.778 179.807 248.512 177.956 244.664C176.105 240.816 179.981 236.843 186.613 235.792C193.245 234.738 200.124 237.004 201.974 240.852C203.825 244.7 199.95 248.672 193.317 249.724Z" fill="#8C7BBB"/>
<path d="M184.712 242.636C184.712 242.661 184.712 242.686 184.712 242.711V242.835H184.718C184.732 243.076 184.787 243.316 184.903 243.56C185.685 245.181 188.583 246.135 191.378 245.693C193.665 245.33 195.171 244.144 195.218 242.835V239.479H184.71V242.636H184.712Z" fill="#8C7BBB"/>
<path d="M209.262 233.067C208.204 232.005 206.9 231.051 205.411 230.218L207.237 226.223L203.952 225.142L200.668 224.06L195.704 227.023C193.712 226.707 191.638 226.55 189.525 226.569L185.934 222.984L182.301 223.559L178.669 224.135L178.793 228.27C176.964 228.876 175.323 229.626 173.898 230.484L166.989 229.405L165.139 231.302L163.288 233.2L168.426 236.088C167.893 237.242 167.625 238.445 167.669 239.668L161.506 241.726L162.52 243.834L163.534 245.942L170.658 245.889C171.716 246.955 173.022 247.912 174.511 248.744L172.688 252.734L175.973 253.815L179.257 254.897L184.207 251.942C186.204 252.258 188.29 252.418 190.411 252.399L193.991 255.973L197.624 255.398L201.256 254.822L201.132 250.7C202.969 250.092 204.615 249.339 206.046 248.479L212.935 249.555L214.786 247.657L216.637 245.759L211.507 242.874C212.04 241.721 212.306 240.514 212.261 239.286L218.421 237.228L217.408 235.12L216.394 233.012L209.264 233.065L209.262 233.067ZM193.315 246.446C186.682 247.5 179.804 245.234 177.953 241.386C176.102 237.538 179.978 233.565 186.61 232.514C193.243 231.46 200.121 233.726 201.972 237.574C203.822 241.422 199.947 245.394 193.315 246.446Z" fill="#B09FDA"/>
<path d="M195.207 239.484C195.215 237.804 192.867 236.431 189.964 236.418C187.061 236.406 184.701 237.758 184.694 239.438C184.687 241.119 187.034 242.492 189.937 242.504C192.841 242.517 195.2 241.165 195.207 239.484Z" fill="#B09FDA"/>
<path d="M258.837 241.15V238.824L257.873 239.148L257.398 238.16L252.335 238.196C251.583 237.441 250.658 236.763 249.6 236.174L250.896 233.338V231.012L249.97 233.034L248.561 232.569L246.23 231.8L242.705 233.905C241.291 233.681 239.816 233.568 238.316 233.582L235.766 231.037L233.186 231.446L230.606 231.855L230.695 234.793C229.396 235.225 228.231 235.756 227.217 236.365L222.311 235.598L221.148 236.791L219.681 235.966V238.293L223.33 240.345C222.952 241.164 222.761 242.019 222.792 242.888L219.38 244.028L218.416 242.022V244.348L219.137 245.845L219.858 247.342L224.919 247.306C225.67 248.064 226.598 248.741 227.656 249.333L227.286 250.144L226.361 249.84V252.166L228.692 252.935L231.023 253.704L234.54 251.605C235.96 251.829 237.44 251.942 238.946 251.928L241.487 254.468L244.067 254.058L246.647 253.649V251.322L246.578 251.334L246.559 250.722C247.863 250.291 249.031 249.757 250.048 249.145L254.94 249.909L256.255 248.562L257.569 247.214V244.888L256.103 246.39L253.926 245.167C254.304 244.348 254.492 243.491 254.462 242.619L258.837 241.159V241.15ZM241.009 247.696C236.299 248.443 231.416 246.835 230.101 244.102C228.786 241.369 231.537 238.547 236.247 237.8C240.957 237.053 245.841 238.661 247.155 241.394C248.47 244.127 245.719 246.949 241.009 247.696Z" fill="#8C7BBB"/>
<path d="M234.899 242.661C234.899 242.678 234.899 242.697 234.899 242.714V242.802H234.902C234.91 242.974 234.951 243.145 235.034 243.317C235.59 244.467 237.647 245.145 239.634 244.833C241.258 244.575 242.327 243.732 242.36 242.802V240.417H234.899V242.658V242.661Z" fill="#8C7BBB"/>
<path d="M252.335 235.867C251.583 235.112 250.658 234.434 249.6 233.845L250.896 231.009L248.564 230.24L246.233 229.471L242.708 231.576C241.294 231.352 239.819 231.239 238.319 231.253L235.769 228.708L233.189 229.117L230.609 229.526L230.697 232.464C229.399 232.896 228.233 233.427 227.22 234.036L222.314 233.269L220.999 234.616L219.684 235.964L223.333 238.016C222.955 238.835 222.764 239.69 222.794 240.559L218.416 242.022L219.137 243.519L219.858 245.015L224.919 244.979C225.67 245.737 226.598 246.415 227.656 247.007L226.361 249.84L228.692 250.609L231.023 251.378L234.54 249.278C235.96 249.502 237.44 249.616 238.946 249.602L241.487 252.142L244.067 251.732L246.647 251.323L246.559 248.396C247.863 247.964 249.031 247.43 250.048 246.819L254.94 247.583L256.255 246.235L257.569 244.888L253.926 242.841C254.304 242.022 254.492 241.165 254.462 240.293L258.837 238.832L258.116 237.336L257.395 235.839L252.332 235.875L252.335 235.867ZM241.009 245.367C236.299 246.114 231.416 244.506 230.101 241.773C228.786 239.04 231.537 236.218 236.247 235.471C240.957 234.724 245.841 236.332 247.155 239.065C248.47 241.798 245.719 244.62 241.009 245.367Z" fill="#B09FDA"/>
<path d="M242.225 239.851C242.78 241.001 241.62 242.191 239.634 242.506C237.648 242.822 235.59 242.144 235.034 240.99C234.479 239.84 235.639 238.65 237.625 238.335C239.612 238.019 241.669 238.697 242.225 239.851Z" fill="#B09FDA"/>
<path d="M233.335 221.872V220.486L232.761 220.677L232.479 220.09L229.465 220.112C229.018 219.664 228.468 219.26 227.838 218.909L228.609 217.221V215.835L228.059 217.039L227.222 216.762L225.836 216.306L223.739 217.559C222.899 217.426 222.021 217.36 221.129 217.368L219.612 215.852L218.079 216.095L216.546 216.339L216.598 218.087C215.825 218.345 215.134 218.66 214.529 219.022L211.61 218.566L210.919 219.274L210.046 218.784V220.17L212.217 221.39C211.991 221.877 211.88 222.386 211.897 222.904L209.867 223.581L209.292 222.389V223.775L209.72 224.666L210.148 225.556L213.159 225.534C213.607 225.985 214.156 226.389 214.786 226.741L214.565 227.222L214.016 227.042V228.428L215.402 228.884L216.789 229.341L218.88 228.093C219.725 228.226 220.604 228.295 221.502 228.287L223.013 229.797L224.546 229.554L226.079 229.31V227.925L226.037 227.93L226.026 227.565C226.803 227.308 227.499 226.989 228.104 226.627L231.015 227.081L231.797 226.279L232.579 225.476V224.09L231.706 224.984L230.41 224.256C230.637 223.769 230.747 223.26 230.728 222.74L233.33 221.872H233.335ZM222.728 225.767C219.927 226.212 217.021 225.255 216.237 223.628C215.455 222.002 217.093 220.325 219.894 219.88C222.695 219.435 225.601 220.392 226.385 222.018C227.167 223.645 225.529 225.321 222.728 225.767Z" fill="#8C7BBB"/>
<path d="M219.093 222.771C219.093 222.771 219.093 222.793 219.093 222.801V222.854C219.098 222.956 219.123 223.059 219.17 223.161C219.499 223.847 220.725 224.251 221.905 224.063C222.872 223.911 223.507 223.407 223.526 222.857V221.438H219.087V222.771H219.093Z" fill="#8C7BBB"/>
<path d="M229.465 218.726C229.018 218.278 228.468 217.874 227.838 217.523L228.609 215.835L227.222 215.379L225.836 214.922L223.739 216.176C222.899 216.043 222.021 215.976 221.129 215.985L219.612 214.469L218.079 214.712L216.546 214.956L216.598 216.704C215.825 216.961 215.134 217.277 214.529 217.639L211.61 217.183L210.828 217.985L210.046 218.787L212.217 220.007C211.991 220.494 211.88 221.003 211.897 221.52L209.292 222.389L209.72 223.28L210.148 224.17L213.159 224.148C213.607 224.599 214.156 225.003 214.786 225.354L214.016 227.039L215.402 227.496L216.789 227.952L218.88 226.704C219.725 226.837 220.604 226.906 221.502 226.898L223.013 228.409L224.546 228.165L226.079 227.922L226.026 226.179C226.803 225.922 227.499 225.603 228.104 225.241L231.015 225.695L231.797 224.892L232.579 224.09L230.41 222.87C230.637 222.383 230.747 221.874 230.728 221.354L233.33 220.486L232.902 219.595L232.474 218.704L229.46 218.726H229.465ZM222.728 224.378C219.927 224.823 217.021 223.866 216.237 222.239C215.455 220.613 217.093 218.936 219.894 218.491C222.695 218.046 225.601 219.003 226.385 220.629C227.167 222.256 225.529 223.933 222.728 224.378Z" fill="#B09FDA"/>
<path d="M223.452 221.097C223.78 221.783 223.093 222.488 221.91 222.677C220.728 222.865 219.504 222.461 219.176 221.775C218.847 221.089 219.535 220.383 220.717 220.195C221.899 220.007 223.123 220.411 223.452 221.097Z" fill="#B09FDA"/>
</svg>
