<svg width="73" height="80" viewBox="0 0 73 80" fill="none" xmlns="http://www.w3.org/2000/svg">
<path d="M36.7507 46.9509C40.6332 46.9509 43.7806 43.8484 43.7806 40.0214C43.7806 36.1943 40.6332 33.0918 36.7507 33.0918C32.8681 33.0918 29.7207 36.1943 29.7207 40.0214C29.7207 43.8484 32.8681 46.9509 36.7507 46.9509Z" stroke="#00CCF5" stroke-width="3" stroke-linecap="round" stroke-linejoin="round"/>
<path d="M48.3435 63.3258V59.8962C48.3435 53.5851 43.153 48.4688 36.7505 48.4688" stroke="#00CCF5" stroke-width="3" stroke-linecap="round" stroke-linejoin="round"/>
<path d="M36.7503 48.4688C30.3478 48.4688 25.1573 53.5851 25.1431 59.8962V64.6471" stroke="#00CCF5" stroke-width="3" stroke-linecap="round" stroke-linejoin="round"/>
<path d="M5.55079 58.5048C3.44038 54.1053 2.25684 49.1858 2.25684 43.9851C2.25684 28.5517 12.6948 15.5078 26.9829 11.3613" stroke="#231F20" stroke-width="3" stroke-linecap="round" stroke-linejoin="round"/>
<path d="M54.3466 73.2485C49.1989 76.2705 43.1814 77.9994 36.7503 77.9994C30.3193 77.9994 23.9453 76.1581 18.6978 72.9814" stroke="#231F20" stroke-width="3" stroke-linecap="round" stroke-linejoin="round"/>
<path d="M46.1904 11.2637C60.6639 15.3118 71.2587 28.4259 71.2587 43.9858C71.2587 49.2427 70.0466 54.2044 67.8934 58.6461" stroke="#231F20" stroke-width="3" stroke-linecap="round" stroke-linejoin="round"/>
<path d="M36.7507 67.8378C49.9576 67.8378 60.6639 57.2844 60.6639 44.2661C60.6639 31.2478 49.9576 20.6943 36.7507 20.6943C23.5437 20.6943 12.8374 31.2478 12.8374 44.2661C12.8374 57.2844 23.5437 67.8378 36.7507 67.8378Z" stroke="#231F20" stroke-width="3" stroke-linecap="round" stroke-linejoin="round"/>
<path d="M36.7503 20.7225C41.9952 20.7225 46.2471 16.5313 46.2471 11.3612C46.2471 6.19116 41.9952 2 36.7503 2C31.5053 2 27.2534 6.19116 27.2534 11.3612C27.2534 16.5313 31.5053 20.7225 36.7503 20.7225Z" stroke="#231F20" stroke-width="3" stroke-linecap="round" stroke-linejoin="round"/>
<path d="M32.9717 13.3715L36.7219 7.63672L40.4722 13.3715H32.9717Z" stroke="#231F20" stroke-width="3" stroke-linecap="round" stroke-linejoin="round"/>
<path d="M62.0042 75.6805C67.2492 75.6805 71.501 71.4893 71.501 66.3192C71.501 61.1492 67.2492 56.958 62.0042 56.958C56.7592 56.958 52.5073 61.1492 52.5073 66.3192C52.5073 71.4893 56.7592 75.6805 62.0042 75.6805Z" stroke="#231F20" stroke-width="3" stroke-linecap="round" stroke-linejoin="round"/>
<path d="M62.0182 70.0732C64.1209 70.0732 65.8255 68.393 65.8255 66.3203C65.8255 64.2476 64.1209 62.5674 62.0182 62.5674C59.9155 62.5674 58.2109 64.2476 58.2109 66.3203C58.2109 68.393 59.9155 70.0732 62.0182 70.0732Z" stroke="#231F20" stroke-width="3" stroke-linecap="round" stroke-linejoin="round"/>
<path d="M11.4969 75.6805C16.7418 75.6805 20.9937 71.4893 20.9937 66.3192C20.9937 61.1492 16.7418 56.958 11.4969 56.958C6.25189 56.958 2 61.1492 2 66.3192C2 71.4893 6.25189 75.6805 11.4969 75.6805Z" stroke="#231F20" stroke-width="3" stroke-linecap="round" stroke-linejoin="round"/>
<path d="M14.3488 63.5088H8.64502V69.1311H14.3488V63.5088Z" stroke="#231F20" stroke-width="3" stroke-linecap="round" stroke-linejoin="round"/>
</svg>
