<svg width="387" height="390" viewBox="0 0 387 390" fill="none" xmlns="http://www.w3.org/2000/svg">
<g clip-path="url(#clip0_2987_7883)">
<path d="M139.306 153.67L138.32 5.90455L141.374 4.11351C143.252 3.01251 145.578 3.00486 147.464 4.09248L336.994 113.493C340.917 115.758 343.334 119.944 343.33 124.37V266.691C343.33 269.014 342.094 271.162 340.084 272.326L336.082 274.647L145.87 165.026C141.81 162.689 139.306 158.357 139.306 153.67Z" fill="#C6A1FF"/>
<path d="M331.229 285.361L210.19 355.366C203.725 359.105 195.757 359.107 189.293 355.372L8.45507 250.912C5.9614 249.473 4.57985 247.072 4.30469 244.564V251.488C4.30469 254.355 5.83337 257.002 8.31749 258.434L189.293 362.831C195.759 366.566 203.727 366.564 210.19 362.825L331.409 292.844C332.936 291.963 333.878 290.333 333.878 288.568V281.383C333.679 282.956 332.796 284.455 331.229 285.361Z" fill="#B98CFF"/>
<path d="M210.194 355.402L331.234 285.397C334.824 283.321 334.822 278.137 331.232 276.063L143.139 167.412C138.365 164.655 132.484 164.655 127.712 167.415L8.45573 236.391C2.85692 239.629 2.85883 247.714 8.45955 250.948L189.297 355.408C195.764 359.143 203.732 359.141 210.194 355.402Z" fill="#C6A1FF"/>
<path d="M135.422 155.666V10.6446C135.422 6.52538 139.88 3.94873 143.447 6.00928L333.11 115.49C337.033 117.755 339.45 121.942 339.45 126.472V268.765C339.45 274.086 333.694 277.414 329.083 274.759L141.986 167.022C137.925 164.684 135.422 160.352 135.422 155.666Z" fill="#B98CFF"/>
<path d="M139.516 153.383V17.0709C139.516 13.1715 143.735 10.7344 147.111 12.6822L330.083 118.822C333.796 120.965 336.083 124.927 336.083 129.215V262.943C336.083 267.979 330.636 271.129 326.273 268.618L145.728 164.128C141.885 161.914 139.516 157.816 139.516 153.379V153.383Z" fill="#BF96FF"/>
<path d="M70.6218 270.473C77.4665 266.487 97.3528 255.018 105.229 250.479C107.249 249.315 109.739 249.318 111.755 250.49L172.316 285.674C173.374 286.29 173.374 287.819 172.316 288.435L137.278 308.836C135.472 309.887 133.241 309.885 131.437 308.83L70.618 273.231C69.5632 272.613 69.5651 271.088 70.6218 270.473Z" fill="#F4EEFF"/>
<path d="M80.9744 208.002L70.7246 213.947C70.2679 214.21 70.2698 214.87 70.7246 215.134L80.3668 220.709C80.5789 220.832 80.8407 220.832 81.0528 220.709L91.3026 214.765C91.7593 214.501 91.7574 213.841 91.3026 213.578L81.6604 208.002C81.4483 207.88 81.1866 207.88 80.9744 208.002Z" fill="white"/>
<path d="M93.3026 215.13L83.0527 221.074C82.596 221.338 82.598 221.998 83.0527 222.262L92.6949 227.837C92.907 227.96 93.1688 227.96 93.3809 227.837L103.631 221.893C104.087 221.629 104.086 220.969 103.631 220.706L93.9886 215.13C93.7765 215.008 93.5147 215.008 93.3026 215.13Z" fill="white"/>
<path d="M105.514 222.186L95.2637 228.131C94.807 228.395 94.8089 229.054 95.2637 229.318L104.906 234.894C105.118 235.016 105.38 235.016 105.592 234.894L115.842 228.949C116.298 228.685 116.296 228.026 115.842 227.762L106.2 222.186C105.987 222.064 105.726 222.064 105.514 222.186Z" fill="white"/>
<path d="M117.746 229.228L107.373 235.244C106.959 235.485 106.959 236.085 107.373 236.324L120.49 243.907C120.683 244.019 120.921 244.017 121.114 243.907L131.487 237.891C131.901 237.65 131.901 237.05 131.487 236.811L118.37 229.228C118.177 229.116 117.939 229.118 117.746 229.228Z" fill="white"/>
<path d="M133.029 238.107L122.8 244.04C122.338 244.308 122.338 244.977 122.8 245.244L181.612 279.249C181.828 279.373 182.094 279.373 182.31 279.249L192.539 273.316C193.001 273.048 193.001 272.379 192.539 272.112L133.726 238.107C133.51 237.983 133.245 237.983 133.029 238.107Z" fill="white"/>
<path d="M107.345 207.975L94.5901 200.601C94.378 200.478 94.1162 200.478 93.9041 200.601L83.6543 206.545C83.1976 206.809 83.1995 207.468 83.6543 207.732L96.4093 215.107C96.6214 215.229 96.8832 215.229 97.0953 215.107L107.345 209.162C107.802 208.898 107.8 208.239 107.345 207.975Z" fill="white"/>
<path d="M136.64 195.061L120.104 185.54C119.892 185.418 119.63 185.418 119.418 185.54L109.17 191.485C108.713 191.748 108.715 192.408 109.17 192.672L125.706 202.193C125.919 202.315 126.18 202.315 126.392 202.193L136.64 196.248C137.097 195.984 137.095 195.325 136.64 195.061Z" fill="white"/>
<path d="M126.064 203.917L107.32 193.081C107.106 192.956 106.842 192.958 106.63 193.082L96.5103 199.023C96.0575 199.289 96.0594 199.945 96.5142 200.208L115.258 211.044C115.472 211.169 115.735 211.167 115.948 211.043L126.067 205.102C126.52 204.836 126.518 204.18 126.064 203.917Z" fill="white"/>
<path d="M134.568 192.362L144.211 197.938C144.423 198.06 144.684 198.06 144.897 197.938L155.146 191.993C155.603 191.729 155.601 191.07 155.146 190.806L145.504 185.23C145.292 185.108 145.03 185.108 144.818 185.23L134.568 191.175C134.112 191.439 134.114 192.098 134.568 192.362Z" fill="white"/>
<path d="M142.818 183.678L133.176 178.102C132.964 177.98 132.702 177.98 132.49 178.102L122.24 184.047C121.784 184.311 121.785 184.97 122.24 185.234L131.882 190.81C132.095 190.932 132.356 190.932 132.568 190.81L142.818 184.865C143.275 184.601 143.273 183.942 142.818 183.678Z" fill="white"/>
<path d="M146.896 199.49L156.539 205.066C156.751 205.188 157.013 205.188 157.225 205.066L167.475 199.121C167.931 198.857 167.929 198.198 167.475 197.934L157.832 192.358C157.62 192.236 157.358 192.236 157.146 192.358L146.896 198.303C146.44 198.567 146.442 199.226 146.896 199.49Z" fill="white"/>
<path d="M159.014 206.496L168.779 212.142C168.972 212.255 169.21 212.253 169.403 212.142L179.776 206.127C180.19 205.886 180.19 205.286 179.776 205.047L170.011 199.4C169.818 199.287 169.579 199.289 169.386 199.4L159.014 205.416C158.599 205.656 158.599 206.257 159.014 206.496Z" fill="white"/>
<path d="M171.342 213.624L181.107 219.27C181.3 219.383 181.539 219.381 181.732 219.27L192.104 213.255C192.518 213.014 192.518 212.414 192.104 212.175L182.339 206.528C182.146 206.415 181.907 206.417 181.714 206.528L171.342 212.544C170.928 212.784 170.928 213.385 171.342 213.624Z" fill="white"/>
<path d="M183.67 220.751L193.435 226.398C193.628 226.511 193.867 226.509 194.06 226.398L204.432 220.383C204.846 220.142 204.846 219.542 204.432 219.303L194.667 213.656C194.474 213.543 194.235 213.545 194.042 213.656L183.67 219.672C183.256 219.912 183.256 220.513 183.67 220.751Z" fill="white"/>
<path d="M195.756 227.742L205.521 233.388C205.714 233.501 205.953 233.499 206.146 233.388L216.518 227.373C216.932 227.132 216.932 226.532 216.518 226.293L206.753 220.646C206.56 220.534 206.321 220.536 206.128 220.646L195.756 226.662C195.342 226.903 195.342 227.503 195.756 227.742Z" fill="white"/>
<path d="M208.316 234.999L217.937 240.562C218.153 240.686 218.418 240.686 218.634 240.562L228.863 234.628C229.325 234.361 229.325 233.692 228.863 233.424L219.242 227.862C219.026 227.737 218.76 227.737 218.544 227.862L208.316 233.795C207.853 234.063 207.853 234.732 208.316 234.999Z" fill="white"/>
<path d="M220.636 242.127L230.257 247.689C230.473 247.814 230.739 247.814 230.955 247.689L241.183 241.756C241.646 241.489 241.646 240.82 241.183 240.552L231.562 234.99C231.346 234.865 231.081 234.865 230.865 234.99L220.636 240.923C220.173 241.19 220.173 241.859 220.636 242.127Z" fill="white"/>
<path d="M232.964 249.255L242.585 254.817C242.801 254.942 243.067 254.942 243.283 254.817L253.511 248.884C253.974 248.617 253.974 247.948 253.511 247.68L243.89 242.118C243.674 241.993 243.409 241.993 243.193 242.118L232.964 248.051C232.502 248.318 232.502 248.987 232.964 249.255Z" fill="white"/>
<path d="M245.292 256.383L254.913 261.945C255.129 262.07 255.395 262.07 255.611 261.945L265.84 256.012C266.302 255.745 266.302 255.076 265.84 254.808L256.218 249.246C256.002 249.121 255.737 249.121 255.521 249.246L245.292 255.179C244.83 255.446 244.83 256.115 245.292 256.383Z" fill="white"/>
<path d="M267.871 256.361L257.571 262.335C257.132 262.589 257.134 263.223 257.571 263.478L267.265 269.082C267.469 269.201 267.722 269.201 267.926 269.082L278.226 263.107C278.665 262.853 278.663 262.218 278.226 261.964L268.532 256.359C268.327 256.241 268.075 256.241 267.871 256.359V256.361Z" fill="white"/>
<path d="M280.074 263.421L269.774 269.396C269.335 269.65 269.337 270.285 269.774 270.539L279.468 276.144C279.672 276.262 279.925 276.262 280.129 276.144L290.429 270.168C290.868 269.914 290.866 269.28 290.429 269.025L280.735 263.421C280.53 263.302 280.278 263.302 280.074 263.421Z" fill="white"/>
<path d="M138.49 209.181L148.74 203.236C149.197 202.973 149.195 202.313 148.74 202.049L139.098 196.474C138.886 196.351 138.624 196.351 138.412 196.474L128.162 202.418C127.705 202.682 127.707 203.341 128.162 203.605L137.804 209.181C138.016 209.303 138.278 209.303 138.49 209.181Z" fill="white"/>
<path d="M140.139 210.389L149.781 215.965C149.993 216.088 150.255 216.088 150.467 215.965L160.717 210.021C161.173 209.757 161.171 209.097 160.717 208.834L151.075 203.258C150.862 203.135 150.601 203.135 150.389 203.258L140.139 209.202C139.682 209.466 139.684 210.126 140.139 210.389Z" fill="white"/>
<path d="M152.256 217.395L162.021 223.042C162.214 223.154 162.453 223.152 162.646 223.042L173.018 217.026C173.432 216.785 173.432 216.185 173.018 215.946L163.253 210.3C163.06 210.187 162.821 210.189 162.628 210.3L152.256 216.315C151.842 216.556 151.842 217.156 152.256 217.395Z" fill="white"/>
<path d="M164.584 224.52L174.349 230.167C174.542 230.279 174.781 230.277 174.974 230.167L185.346 224.151C185.761 223.91 185.761 223.31 185.346 223.071L175.581 217.425C175.388 217.312 175.15 217.314 174.957 217.425L164.584 223.44C164.17 223.681 164.17 224.281 164.584 224.52Z" fill="white"/>
<path d="M176.913 231.648L186.677 237.294C186.87 237.407 187.109 237.405 187.302 237.294L197.674 231.279C198.089 231.038 198.089 230.438 197.674 230.199L187.91 224.553C187.717 224.44 187.478 224.442 187.285 224.553L176.913 230.568C176.498 230.809 176.498 231.409 176.913 231.648Z" fill="white"/>
<path d="M188.998 238.638L198.763 244.285C198.956 244.397 199.195 244.396 199.388 244.285L209.76 238.269C210.175 238.028 210.175 237.428 209.76 237.189L199.995 231.543C199.802 231.43 199.564 231.432 199.371 231.543L188.998 237.558C188.584 237.799 188.584 238.399 188.998 238.638Z" fill="white"/>
<path d="M201.558 245.897L211.179 251.459C211.395 251.583 211.66 251.583 211.876 251.459L222.105 245.526C222.568 245.258 222.568 244.589 222.105 244.322L212.484 238.759C212.268 238.635 212.002 238.635 211.787 238.759L201.558 244.692C201.095 244.96 201.095 245.629 201.558 245.897Z" fill="white"/>
<path d="M213.886 253.025L223.507 258.587C223.723 258.711 223.989 258.711 224.205 258.587L234.433 252.654C234.896 252.386 234.896 251.717 234.433 251.449L224.812 245.887C224.596 245.763 224.331 245.763 224.115 245.887L213.886 251.82C213.423 252.088 213.423 252.757 213.886 253.025Z" fill="white"/>
<path d="M226.206 260.152L235.827 265.715C236.043 265.839 236.309 265.839 236.525 265.715L246.754 259.782C247.216 259.514 247.216 258.845 246.754 258.577L237.132 253.015C236.917 252.891 236.651 252.891 236.435 253.015L226.206 258.948C225.744 259.216 225.744 259.885 226.206 260.152Z" fill="white"/>
<path d="M259.14 265.735L249.446 260.131C249.241 260.012 248.989 260.012 248.785 260.131L238.485 266.106C238.046 266.36 238.048 266.995 238.485 267.249L248.179 272.854C248.383 272.972 248.636 272.972 248.84 272.854L259.14 266.878C259.579 266.624 259.577 265.99 259.14 265.735Z" fill="white"/>
<path d="M271.468 272.863L261.774 267.259C261.57 267.14 261.317 267.14 261.113 267.259L250.813 273.232C250.374 273.486 250.376 274.121 250.813 274.375L260.507 279.98C260.712 280.098 260.964 280.098 261.168 279.98L271.468 274.004C271.907 273.75 271.905 273.116 271.468 272.861V272.863Z" fill="white"/>
<path d="M273.316 274.456L263.016 280.431C262.577 280.686 262.579 281.32 263.016 281.574L272.71 287.179C272.915 287.297 273.167 287.297 273.371 287.179L283.671 281.204C284.11 280.949 284.108 280.315 283.671 280.06L273.977 274.456C273.773 274.338 273.52 274.338 273.316 274.456Z" fill="white"/>
<path d="M295.998 287.26L286.121 281.528C285.915 281.407 285.661 281.409 285.454 281.53L275.122 287.627C274.688 287.883 274.69 288.512 275.124 288.767L276.114 289.346C276.548 289.598 276.55 290.223 276.12 290.481L265.711 296.72C265.279 296.978 265.285 297.607 265.721 297.857L272.319 301.673C272.523 301.791 272.774 301.791 272.978 301.673L295.994 288.401C296.434 288.147 296.436 287.513 295.994 287.258L295.998 287.26Z" fill="white"/>
<path d="M128.53 218.001L138.65 212.06C139.102 211.794 139.101 211.139 138.646 210.875L129 205.297C128.786 205.173 128.522 205.175 128.31 205.299L118.19 211.24C117.737 211.506 117.739 212.161 118.194 212.425L127.84 218.003C128.054 218.127 128.318 218.125 128.53 218.001Z" fill="white"/>
<path d="M140.858 225.128L150.978 219.187C151.431 218.921 151.429 218.266 150.974 218.002L141.328 212.424C141.114 212.3 140.85 212.302 140.638 212.426L130.518 218.367C130.065 218.633 130.067 219.288 130.522 219.552L140.168 225.13C140.382 225.254 140.646 225.252 140.858 225.128Z" fill="white"/>
<path d="M163.274 225.113L153.505 219.464C153.311 219.352 153.072 219.354 152.877 219.466L142.636 225.478C142.224 225.721 142.226 226.317 142.64 226.558L152.409 232.206C152.604 232.319 152.842 232.317 153.037 232.204L163.278 226.193C163.69 225.95 163.688 225.354 163.274 225.113Z" fill="white"/>
<path d="M175.602 232.241L165.834 226.592C165.639 226.48 165.4 226.482 165.205 226.594L154.965 232.606C154.552 232.849 154.554 233.445 154.968 233.686L164.737 239.334C164.932 239.447 165.171 239.445 165.365 239.332L175.606 233.321C176.018 233.078 176.017 232.482 175.602 232.241Z" fill="white"/>
<path d="M187.93 239.369L178.162 233.72C177.967 233.608 177.728 233.609 177.533 233.722L167.293 239.734C166.88 239.977 166.882 240.573 167.297 240.814L177.065 246.462C177.26 246.575 177.499 246.573 177.694 246.46L187.934 240.449C188.347 240.206 188.345 239.61 187.93 239.369Z" fill="white"/>
<path d="M200.016 246.359L190.248 240.711C190.053 240.598 189.814 240.6 189.619 240.712L179.379 246.724C178.966 246.967 178.968 247.563 179.383 247.804L189.151 253.452C189.346 253.565 189.585 253.563 189.779 253.45L200.02 247.439C200.432 247.196 200.431 246.6 200.016 246.359Z" fill="white"/>
<path d="M212.355 253.493L202.73 247.927C202.514 247.801 202.245 247.802 202.029 247.929L191.93 253.856C191.47 254.126 191.472 254.793 191.934 255.058L201.559 260.625C201.777 260.751 202.044 260.749 202.26 260.623L212.359 254.695C212.82 254.426 212.818 253.759 212.355 253.493Z" fill="white"/>
<path d="M224.683 260.621L215.058 255.055C214.841 254.928 214.573 254.93 214.357 255.057L204.258 260.984C203.798 261.253 203.8 261.921 204.262 262.186L213.887 267.752C214.103 267.879 214.372 267.877 214.588 267.751L224.687 261.823C225.148 261.554 225.146 260.886 224.683 260.621Z" fill="white"/>
<path d="M237.012 267.749L227.387 262.183C227.171 262.056 226.901 262.058 226.685 262.184L216.586 268.112C216.126 268.381 216.128 269.049 216.59 269.314L226.215 274.88C226.431 275.007 226.699 275.005 226.916 274.878L237.015 268.951C237.476 268.682 237.474 268.014 237.012 267.749Z" fill="white"/>
<path d="M249.397 274.907L239.699 269.301C239.493 269.182 239.241 269.182 239.034 269.302L228.865 275.272C228.429 275.528 228.431 276.159 228.868 276.413L238.566 282.019C238.772 282.138 239.025 282.138 239.231 282.018L249.401 276.048C249.836 275.792 249.834 275.161 249.397 274.907Z" fill="white"/>
<path d="M261.717 282.174L252.02 276.568C251.813 276.45 251.561 276.45 251.355 276.57L241.185 282.54C240.749 282.796 240.751 283.426 241.189 283.681L250.886 289.287C251.093 289.406 251.345 289.406 251.551 289.285L261.721 283.316C262.157 283.059 262.155 282.429 261.717 282.174Z" fill="white"/>
<path d="M273.928 289.231L264.23 283.625C264.024 283.506 263.772 283.506 263.565 283.627L253.396 289.596C252.96 289.852 252.962 290.483 253.4 290.737L263.097 296.344C263.304 296.462 263.556 296.462 263.762 296.342L273.932 290.372C274.368 290.116 274.366 289.485 273.928 289.231Z" fill="white"/>
<path d="M98.8574 216.521L108.5 222.097C108.712 222.219 108.974 222.219 109.186 222.097L119.435 216.152C119.892 215.889 119.89 215.229 119.435 214.965L109.793 209.39C109.581 209.267 109.319 209.267 109.107 209.39L98.8574 215.334C98.4007 215.598 98.4026 216.258 98.8574 216.521Z" fill="white"/>
<path d="M131.764 222.091L122.121 216.516C121.909 216.393 121.647 216.393 121.435 216.516L111.186 222.46C110.729 222.724 110.731 223.383 111.186 223.647L120.828 229.223C121.04 229.345 121.302 229.345 121.514 229.223L131.764 223.278C132.22 223.015 132.218 222.355 131.764 222.091Z" fill="white"/>
<path d="M144.065 229.204L134.3 223.557C134.107 223.445 133.868 223.447 133.675 223.557L123.303 229.573C122.889 229.814 122.889 230.414 123.303 230.653L133.068 236.299C133.261 236.412 133.5 236.41 133.693 236.299L144.065 230.284C144.479 230.043 144.479 229.443 144.065 229.204Z" fill="white"/>
<path d="M156.393 236.33L146.628 230.683C146.435 230.571 146.196 230.573 146.003 230.683L135.631 236.699C135.217 236.94 135.217 237.54 135.631 237.779L145.396 243.425C145.589 243.538 145.828 243.536 146.021 243.425L156.393 237.41C156.807 237.169 156.807 236.569 156.393 236.33Z" fill="white"/>
<path d="M168.721 243.458L158.956 237.811C158.763 237.699 158.525 237.701 158.332 237.811L147.959 243.827C147.545 244.068 147.545 244.668 147.959 244.907L157.724 250.553C157.917 250.666 158.156 250.664 158.349 250.553L168.721 244.538C169.136 244.297 169.136 243.697 168.721 243.458Z" fill="white"/>
<path d="M180.807 250.447L171.042 244.801C170.849 244.688 170.61 244.69 170.418 244.801L160.045 250.816C159.631 251.057 159.631 251.657 160.045 251.896L169.81 257.542C170.003 257.655 170.242 257.653 170.435 257.542L180.807 251.527C181.221 251.286 181.221 250.686 180.807 250.447Z" fill="white"/>
<path d="M193.144 257.581L183.523 252.019C183.307 251.895 183.042 251.895 182.826 252.019L172.597 257.952C172.134 258.22 172.134 258.889 172.597 259.156L182.218 264.719C182.434 264.843 182.7 264.843 182.915 264.719L193.144 258.786C193.607 258.518 193.607 257.849 193.144 257.581Z" fill="white"/>
<path d="M205.472 264.434L195.851 258.872C195.635 258.747 195.37 258.747 195.154 258.872L184.925 264.805C184.463 265.072 184.463 265.741 184.925 266.009L194.546 271.571C194.762 271.696 195.028 271.696 195.244 271.571L205.472 265.638C205.935 265.37 205.935 264.701 205.472 264.434Z" fill="white"/>
<path d="M217.8 271.562L208.179 265.999C207.963 265.875 207.698 265.875 207.482 265.999L197.253 271.933C196.791 272.2 196.791 272.869 197.253 273.137L206.874 278.699C207.09 278.823 207.356 278.823 207.572 278.699L217.8 272.766C218.263 272.498 218.263 271.829 217.8 271.562Z" fill="white"/>
<path d="M230.179 278.857L220.485 273.253C220.28 273.134 220.028 273.134 219.824 273.253L209.524 279.228C209.085 279.482 209.087 280.117 209.524 280.371L219.218 285.976C219.422 286.094 219.675 286.094 219.879 285.976L230.179 280C230.618 279.746 230.616 279.112 230.179 278.857Z" fill="white"/>
<path d="M242.507 285.985L232.813 280.381C232.609 280.262 232.356 280.262 232.152 280.381L221.852 286.356C221.413 286.61 221.415 287.245 221.852 287.499L231.546 293.104C231.751 293.222 232.003 293.222 232.207 293.104L242.507 287.13C242.946 286.876 242.944 286.241 242.507 285.987V285.985Z" fill="white"/>
<path d="M216.72 293.177L212.227 295.782C211.788 296.036 211.79 296.671 212.227 296.925L221.921 302.53C222.126 302.648 222.378 302.648 222.582 302.53L227.075 299.924C227.514 299.67 227.512 299.035 227.075 298.781L217.381 293.177C217.176 293.058 216.924 293.058 216.72 293.177Z" fill="white"/>
<path d="M236.759 311.11L246.452 316.714C246.657 316.833 246.909 316.833 247.114 316.714L251.606 314.109C252.045 313.855 252.044 313.22 251.606 312.966L241.912 307.361C241.708 307.243 241.455 307.243 241.251 307.361L236.759 309.967C236.319 310.221 236.321 310.855 236.759 311.11Z" fill="white"/>
<path d="M245.066 302.596L235.387 296.999C235.187 296.882 234.938 296.881 234.736 296.993L229.253 300.042L224.43 302.839C223.991 303.093 223.993 303.727 224.43 303.982L234.124 309.586C234.329 309.705 234.581 309.705 234.785 309.586L240.264 306.409L245.054 303.745C245.501 303.496 245.507 302.852 245.064 302.596H245.066Z" fill="white"/>
<path d="M210.199 282.679L199.899 288.654C199.46 288.908 199.462 289.543 199.899 289.797L209.593 295.401C209.797 295.52 210.05 295.52 210.254 295.401L220.554 289.426C220.993 289.172 220.991 288.537 220.554 288.283L210.86 282.679C210.655 282.56 210.403 282.56 210.199 282.679Z" fill="white"/>
<path d="M194.623 273.555L184.394 279.488C183.931 279.756 183.931 280.425 184.394 280.693L197.246 288.124C197.462 288.249 197.728 288.249 197.944 288.124L208.172 282.191C208.635 281.924 208.635 281.254 208.172 280.987L195.32 273.555C195.104 273.431 194.838 273.431 194.623 273.555Z" fill="white"/>
<path d="M234.063 294.557L259.315 309.157C259.52 309.275 259.772 309.275 259.976 309.157L270.276 303.183C270.715 302.929 270.713 302.294 270.276 302.04L245.024 287.44C244.819 287.322 244.567 287.322 244.363 287.44L234.063 293.416C233.624 293.67 233.626 294.305 234.063 294.559V294.557Z" fill="white"/>
<path d="M282.102 277.665L297.899 286.798C298.104 286.917 298.356 286.917 298.561 286.798L308.86 280.825C309.3 280.571 309.298 279.936 308.86 279.682L293.063 270.549C292.859 270.43 292.606 270.43 292.402 270.549L282.102 276.524C281.663 276.778 281.665 277.413 282.102 277.667V277.665Z" fill="white"/>
<path d="M314.728 298.207V298.213C314.728 299.127 315.718 299.696 316.507 299.24L322.756 295.621C323.19 295.369 323.457 294.906 323.457 294.404C323.457 293.494 322.477 292.922 321.686 293.373L315.491 296.896C315.019 297.164 314.727 297.667 314.727 298.209L314.728 298.207Z" fill="#A66EFF"/>
<path d="M300.478 306.483V306.489C300.478 307.402 301.468 307.972 302.257 307.515L308.506 303.897C308.94 303.644 309.207 303.182 309.207 302.679C309.207 301.769 308.227 301.198 307.436 301.649L301.241 305.172C300.769 305.439 300.477 305.942 300.477 306.485L300.478 306.483Z" fill="#A66EFF"/>
<path d="M237.188 53.1966V160.934C237.188 162.697 238.099 164.325 239.574 165.201L379.132 248C381.283 249.277 383.96 247.665 383.96 245.096V137.613C383.96 135.852 383.053 134.226 381.579 133.35L242.02 50.295C239.868 49.0143 237.188 50.6238 237.188 53.1966Z" fill="#F4EEFF"/>
<path d="M237.188 53.1967V57.486L383.96 144.567V137.615C383.96 135.854 383.053 134.227 381.579 133.352L242.02 50.297C239.868 49.0163 237.188 50.6257 237.188 53.1986V53.1967Z" fill="#D6BCFF"/>
<path d="M250.453 62.5658C251.135 62.3268 251.356 61.1848 250.947 60.0151C250.537 58.8454 249.652 58.0909 248.97 58.3299C248.287 58.5689 248.066 59.7109 248.476 60.8806C248.885 62.0503 249.77 62.8048 250.453 62.5658Z" fill="white"/>
<path d="M257.085 66.7973C257.768 66.5583 257.989 65.4163 257.579 64.2466C257.17 63.0769 256.285 62.3224 255.603 62.5614C254.92 62.8004 254.699 63.9424 255.109 65.1121C255.518 66.2818 256.403 67.0363 257.085 66.7973Z" fill="white"/>
<path d="M384.622 131.568L245.063 48.5132C242.94 47.439 238.655 49.4288 237.648 51.4645C238.508 49.9965 240.412 49.339 242.02 50.2966L381.58 133.352C383.053 134.229 383.961 135.854 383.961 137.614V245.098C383.961 246.927 382.602 248.269 381.045 248.43C383.347 248.363 386.821 247.053 386.909 244.177L387.003 135.833C387.003 134.072 386.095 132.446 384.622 131.57V131.568Z" fill="#CDADFF"/>
<path d="M243.172 138.892V154.027C243.172 155.567 243.967 156.989 245.259 157.756L367.234 230.124C369.114 231.24 371.455 229.831 371.455 227.587V212.674C371.455 211.135 370.662 209.715 369.374 208.949L247.397 136.357C245.516 135.239 243.174 136.646 243.174 138.892H243.172Z" fill="#AD2EFF"/>
<path d="M335.532 147.795L336.591 150.811C337.024 152.046 337.884 153.086 339.017 153.742L353.609 162.196C354.423 162.668 355.034 163.423 355.327 164.318L360.553 180.326C360.776 181.011 361.785 180.858 361.795 180.137L362.167 151.081C362.173 150.702 361.971 150.353 361.644 150.167L340.164 137.98L336.747 136.04C336.059 135.65 335.207 136.143 335.201 136.932L335.125 146.99C335.295 147.237 335.435 147.506 335.536 147.793L335.532 147.795Z" fill="white"/>
<path d="M337.523 139.439V141.232L359.017 153.579L358.959 151.812L337.523 139.439Z" fill="#D4B8FF"/>
<path d="M337.523 146.707V148.502L359.017 160.846L358.959 159.08L337.523 146.707Z" fill="#D4B8FF"/>
<path d="M337.523 143.127V144.92L359.017 157.266L358.959 155.5L337.523 143.127Z" fill="#D4B8FF"/>
<path d="M340.156 137.425V137.98L361.636 150.167C361.965 150.353 362.165 150.704 362.159 151.081L361.787 180.137C361.777 180.858 360.768 181.011 360.545 180.326L355.319 164.318C355.026 163.423 354.415 162.666 353.601 162.196L339.009 153.742C337.876 153.086 337.016 152.046 336.583 150.811L335.524 147.795C335.255 147.027 334.714 146.382 334.003 145.985L325.582 141.264C325.167 141.032 324.678 141.411 324.8 141.87L332.029 169.06C332.348 170.257 333.132 171.276 334.207 171.889L362.041 187.735C362.417 187.949 362.895 187.733 362.979 187.307L369.486 155.057C369.728 153.856 369.174 152.637 368.11 152.029L341.32 136.743C340.798 136.445 340.148 136.821 340.148 137.423L340.156 137.425Z" stroke="#D1B5FF" stroke-miterlimit="10"/>
<path d="M325.584 141.263L334.003 145.985C334.714 146.382 335.255 147.026 335.524 147.795L336.583 150.811C337.017 152.046 337.877 153.086 339.01 153.741L353.601 162.196C354.415 162.668 355.027 163.423 355.319 164.318L360.545 180.326C360.755 180.97 361.661 180.871 361.776 180.257C361.556 180.229 361.35 180.091 361.262 179.825L356.036 163.817C355.743 162.922 355.132 162.165 354.318 161.695L339.726 153.241C338.593 152.585 337.733 151.545 337.3 150.31L336.241 147.294C335.972 146.526 335.431 145.881 334.72 145.484L326.301 140.763C325.93 140.554 324.665 141.273 324.772 141.743C324.801 141.753 325.557 141.248 325.584 141.263Z" fill="#C9A7FF"/>
<path d="M340.156 137.425V137.98L361.636 150.167C361.965 150.353 362.165 150.704 362.159 151.081L361.787 180.137C361.777 180.858 360.768 181.011 360.545 180.326L355.319 164.318C355.026 163.423 354.415 162.666 353.601 162.196L339.009 153.742C337.876 153.086 337.016 152.046 336.583 150.811L335.524 147.795C335.255 147.027 334.714 146.382 334.003 145.985L325.582 141.264C325.167 141.032 324.678 141.411 324.8 141.87L332.029 169.06C332.348 170.257 333.132 171.276 334.207 171.889L362.041 187.735C362.417 187.949 362.895 187.733 362.979 187.307L369.486 155.057C369.728 153.856 369.174 152.637 368.11 152.029L341.32 136.743C340.798 136.445 340.148 136.821 340.148 137.423L340.156 137.425Z" fill="#B88AFF"/>
<path d="M368.837 151.53L342.047 136.244C341.233 135.781 340.43 136.55 340.266 136.976C340.266 136.976 340.287 136.965 340.319 136.949C340.464 136.762 340.69 136.645 340.929 136.641C340.929 136.641 340.931 136.641 340.933 136.641C340.965 136.641 340.997 136.641 341.028 136.645C341.03 136.645 341.034 136.645 341.036 136.645C341.066 136.649 341.097 136.655 341.127 136.663C341.16 136.67 341.19 136.682 341.223 136.693C341.225 136.693 341.227 136.693 341.229 136.695C341.261 136.708 341.296 136.724 341.328 136.743L354.723 144.385L368.118 152.027C368.317 152.142 368.499 152.275 368.661 152.428C368.749 152.51 368.829 152.6 368.904 152.692C368.909 152.7 368.915 152.705 368.921 152.711C368.997 152.805 369.066 152.904 369.129 153.007C369.207 153.134 369.274 153.265 369.33 153.403C369.332 153.409 369.334 153.413 369.335 153.418C369.364 153.487 369.389 153.556 369.412 153.627C369.416 153.636 369.418 153.644 369.421 153.654C369.442 153.722 369.462 153.793 369.477 153.862C369.479 153.871 369.481 153.881 369.483 153.889C369.504 153.982 369.519 154.076 369.53 154.172C369.53 154.172 369.53 154.173 369.53 154.175C369.546 154.319 369.551 154.462 369.546 154.607C369.546 154.617 369.546 154.626 369.544 154.634C369.54 154.699 369.536 154.762 369.528 154.827C369.519 154.902 369.507 154.974 369.492 155.049L366.758 168.605L362.986 187.299C362.976 187.349 362.959 187.393 362.94 187.437C362.932 187.452 362.925 187.465 362.917 187.479C362.902 187.506 362.888 187.53 362.869 187.553C362.856 187.571 362.842 187.584 362.829 187.599C362.814 187.616 362.797 187.632 362.779 187.647C362.76 187.662 362.743 187.678 362.722 187.693C362.709 187.702 362.695 187.708 362.682 187.718C362.55 187.794 362.395 187.825 362.24 187.794C362.435 187.867 363.59 188.169 363.804 187.33L370.383 154.802C370.625 153.602 369.895 152.126 368.833 151.52L368.837 151.53Z" fill="#C9A7FF"/>
<path d="M339.725 153.241L353.55 161.251L359.017 164.392L358.959 162.626L337.523 150.253V150.847C337.997 151.845 338.762 152.682 339.725 153.241Z" fill="#D4B8FF"/>
<path d="M356.973 166.69L359.017 167.863L358.96 166.097L356.273 164.547L356.973 166.69Z" fill="#D4B8FF"/>
<path d="M358.369 170.963L359.019 171.336L358.962 169.57L357.672 168.826L358.369 170.963Z" fill="#D4B8FF"/>
<path d="M320.853 165.526C320.494 165.526 320.135 165.432 319.808 165.243L244.276 121.598C243.248 121.004 242.609 119.897 242.609 118.708V76.4074C242.609 75.6505 243.001 74.9738 243.655 74.5954C244.308 74.2169 245.092 74.2169 245.747 74.5954L321.279 118.24C322.307 118.834 322.948 119.941 322.948 121.13V163.431C322.948 164.188 322.556 164.864 321.902 165.243C321.576 165.432 321.216 165.526 320.857 165.526H320.853ZM244.698 75.4613C244.536 75.4613 244.373 75.5033 244.226 75.5893C243.93 75.7595 243.754 76.0672 243.754 76.4074V118.708C243.754 119.488 244.172 120.214 244.849 120.604L320.381 164.249C320.677 164.419 321.031 164.419 321.327 164.249C321.623 164.079 321.799 163.771 321.799 163.431V121.13C321.799 120.35 321.381 119.624 320.704 119.234L245.172 75.5893C245.025 75.5033 244.862 75.4613 244.7 75.4613H244.698Z" fill="#B88AFF"/>
<path d="M250.809 83.0859H249.867V118.318H250.809V83.0859Z" fill="#B88AFF"/>
<path d="M258.794 87.8477H257.852V123.08H258.794V87.8477Z" fill="#B88AFF"/>
<path d="M266.739 92.3584H265.797V127.591H266.739V92.3584Z" fill="#B88AFF"/>
<path d="M274.715 97.1201H273.773V132.352H274.715V97.1201Z" fill="#B88AFF"/>
<path d="M282.809 101.631H281.867V136.863H282.809V101.631Z" fill="#B88AFF"/>
<path d="M290.786 106.395H289.844V141.627H290.786V106.395Z" fill="#B88AFF"/>
<path d="M298.731 110.905H297.789V146.137H298.731V110.905Z" fill="#B88AFF"/>
<path d="M315.005 120.411H314.062V155.643H315.005V120.411Z" fill="#B88AFF"/>
<path d="M306.715 115.667H305.773V150.899H306.715V115.667Z" fill="#B88AFF"/>
<path d="M247.725 104.408C249.655 106.641 251.706 108.948 254.486 110.114C257.387 111.331 260.545 110.92 263.524 110.244C266.541 109.559 269.574 108.569 272.706 108.76C275.889 108.955 278.807 110.406 281.064 112.625C283.359 114.883 285.029 117.698 286.571 120.499C288.149 123.364 289.596 126.31 291.392 129.049C294.501 133.791 299.221 138.27 305.164 138.673C310.923 139.065 315.842 135.118 318.878 130.566C319.256 129.999 319.61 129.412 319.94 128.816C320.307 128.152 319.291 127.556 318.924 128.221C316.417 132.755 312.096 137.165 306.633 137.501C300.927 137.853 296.053 133.72 292.98 129.301C289.326 124.046 287.186 117.807 282.965 112.937C280.921 110.576 278.329 108.751 275.274 107.982C272.167 107.201 269.066 107.707 266.004 108.439C263.134 109.127 260.129 110.062 257.148 109.638C254.213 109.219 251.962 107.333 250.014 105.22C249.519 104.683 249.038 104.131 248.56 103.578C248.083 103.026 247.234 103.84 247.727 104.412L247.725 104.408Z" fill="#6BD5FF"/>
<path d="M243.914 58.4535C244.596 58.2145 244.817 57.0725 244.408 55.9028C243.998 54.7331 243.113 53.9786 242.431 54.2176C241.748 54.4566 241.527 55.5986 241.937 56.7683C242.346 57.938 243.231 58.6925 243.914 58.4535Z" fill="white"/>
<path d="M103.493 283.31L60.6094 308.173L17.5234 283.305L60.4069 258.433L103.493 283.31Z" fill="#F4EEFF"/>
<path d="M92.8243 243.191L47.4931 217.185C46.4497 216.587 45.1484 217.34 45.1484 218.544V257.75C45.1484 259.203 45.9223 260.543 47.1778 261.271L92.7192 287.621C93.7664 288.227 95.0753 287.468 95.0696 286.258L94.867 246.702C94.8594 245.251 94.0816 243.915 92.8243 243.195V243.191Z" fill="#B98CFF"/>
<path d="M92.72 245.616L47.3047 219.918V255.139L92.9283 281.175L92.72 245.616Z" fill="#F9F5FF"/>
<path d="M68.873 271.225C69.1938 271.04 69.2083 270.464 68.9054 269.939C68.6026 269.415 68.097 269.139 67.7762 269.325C67.4554 269.51 67.4408 270.086 67.7437 270.61C68.0466 271.135 68.5522 271.41 68.873 271.225Z" fill="white"/>
<path d="M71.4317 275.3V277.934C71.4317 278.534 71.1106 279.09 70.5909 279.39L65.5558 282.297C64.9653 282.638 64.2411 282.645 63.6449 282.317L59.3398 279.95C58.7799 279.642 58.7703 278.84 59.3226 278.518L64.243 275.651C64.7322 275.366 65.0456 274.854 65.0742 274.29L65.2137 271.704L71.4298 275.3H71.4317Z" fill="#C6A1FF"/>
<path d="M95.0714 286.254L94.8689 246.698C94.8612 245.247 94.0835 243.911 92.8262 243.19L47.4949 217.185C46.6064 216.675 45.5325 217.147 45.2344 218.043C45.6701 216.671 47.8102 215.977 48.7465 216.514L94.0778 242.52C95.3351 243.24 96.1128 244.578 96.1205 246.027L96.323 285.583C96.323 287.533 93.9765 288.324 92.9293 287.718C93.9345 288.121 95.0791 287.385 95.0733 286.254H95.0714Z" fill="#CDADFF"/>
<path d="M59.3221 278.518C58.7699 278.839 58.7794 279.642 59.3393 279.949L63.6445 282.316C64.2407 282.645 64.9649 282.637 65.5553 282.297L70.5904 279.389C71.1102 279.089 71.4312 278.535 71.4312 277.933V275.299L72.2414 275.771V278.369C72.2414 278.969 71.9204 279.525 71.4006 279.825L65.5553 283.231C64.9649 283.572 64.2407 283.579 63.6445 283.251L59.3393 280.884C58.6094 280.427 58.6705 278.812 59.3221 278.518Z" fill="#B98CFF"/>
<path d="M49.6484 236.024L49.6542 252.333C49.6542 252.88 49.9465 253.386 50.4204 253.66L69.6742 264.819C70.6965 265.411 71.9768 264.672 71.9749 263.49L71.9042 250.097C71.9042 249.548 71.6099 249.042 71.1341 248.768L61.7193 243.399L61.6639 240.975C61.6505 240.432 61.3505 239.937 60.8785 239.673L51.93 234.683C50.9077 234.113 49.6504 234.851 49.6504 236.023L49.6484 236.024Z" fill="#CDADFF"/>
<path d="M60.6094 308.173L17.5234 283.305V356.489L60.6094 381.376V308.173Z" fill="#CDADFF"/>
<path d="M60.6094 381.376L103.493 356.504V283.311L60.6094 308.173V381.376Z" fill="#D6BCFF"/>
<path d="M78.3717 264.511L75.6641 262.947V268.905L78.3717 270.478V264.511Z" fill="#64D4FF"/>
<path d="M82.5455 263.49L79.8359 261.975V271.345L82.5455 272.872V263.49Z" fill="#B88AFF"/>
<path d="M89.1172 246.184L74.9922 238.141V241.05L89.1172 249.105V246.184Z" fill="#B88AFF"/>
<path d="M64.0938 232.22L49.9688 224.175V227.086L64.0938 235.141V232.22Z" fill="#64D4FF"/>
<path d="M89.1172 251.433L74.9922 243.388V246.299L89.1172 254.354V251.433Z" fill="#DBC4FF"/>
<path d="M86.7096 256.347L84 254.783V273.76L86.7096 275.333V256.347Z" fill="#BD58FF"/>
<path d="M31.6953 284.065L58.8371 299.875L70.7341 292.997L43.5178 277.239L31.6953 284.065Z" fill="#C6A1FF"/>
<path d="M58.8145 297.529L57.3603 298.367C57.3278 298.386 57.3278 298.433 57.3603 298.453L58.7934 299.286C58.8183 299.299 58.8489 299.301 58.8737 299.286L60.3279 298.449C60.3603 298.43 60.3603 298.382 60.3279 298.363L58.8947 297.529C58.8699 297.516 58.8393 297.514 58.8145 297.529Z" fill="white"/>
<path d="M56.9492 296.443L55.4931 297.281C55.4606 297.3 55.4606 297.347 55.4931 297.367L56.9263 298.2C56.9511 298.213 56.9817 298.215 57.0065 298.2L58.4607 297.363C58.4932 297.344 58.4932 297.296 58.4607 297.277L57.0275 296.443C57.0027 296.43 56.9721 296.428 56.9473 296.443H56.9492Z" fill="white"/>
<path d="M55.0919 295.363L53.6416 296.199C53.6091 296.218 53.6091 296.266 53.6416 296.285L55.0728 297.12C55.0976 297.133 55.1282 297.135 55.153 297.12L56.6053 296.283C56.6378 296.264 56.6378 296.216 56.6053 296.197L55.1721 295.363C55.1473 295.35 55.1167 295.348 55.0919 295.363Z" fill="white"/>
<path d="M56.9669 294.293L55.5166 295.128C55.4841 295.147 55.4841 295.195 55.5166 295.214L56.9478 296.05C56.9726 296.063 57.0032 296.065 57.028 296.05L58.4803 295.212C58.5128 295.193 58.5128 295.146 58.4803 295.126L57.0471 294.293C57.0223 294.28 56.9917 294.278 56.9669 294.293Z" fill="white"/>
<path d="M53.2019 294.301L51.7822 295.119C51.7497 295.138 51.7497 295.186 51.7822 295.205L53.1828 296.021C53.2268 296.046 53.2803 296.046 53.3242 296.021L54.7478 295.201C54.7803 295.182 54.7803 295.134 54.7478 295.115L53.3453 294.299C53.3013 294.274 53.2478 294.274 53.2039 294.299L53.2019 294.301Z" fill="white"/>
<path d="M55.0997 293.204L53.6494 294.039C53.6169 294.059 53.6169 294.106 53.6494 294.125L55.0806 294.961C55.1054 294.976 55.136 294.976 55.1609 294.961L56.615 294.124C56.6475 294.104 56.6475 294.057 56.615 294.038L55.1819 293.204C55.157 293.191 55.1265 293.189 55.1016 293.204H55.0997Z" fill="white"/>
<path d="M53.2117 292.141L51.79 292.959C51.7575 292.978 51.7575 293.024 51.79 293.043L53.1906 293.861C53.2346 293.886 53.2881 293.886 53.332 293.861L54.7556 293.041C54.7881 293.022 54.7881 292.976 54.7556 292.957L53.3531 292.141C53.3091 292.116 53.2556 292.116 53.2117 292.141Z" fill="white"/>
<path d="M51.3367 291.059L49.915 291.877C49.8825 291.896 49.8825 291.942 49.915 291.961L51.3176 292.779C51.3596 292.804 51.4112 292.804 51.4551 292.779L52.8806 291.959C52.9131 291.94 52.9131 291.894 52.8806 291.875L51.4762 291.059C51.4341 291.034 51.3825 291.034 51.3386 291.059H51.3367Z" fill="white"/>
<path d="M49.4636 289.97L48.04 290.79C48.0075 290.809 48.0075 290.855 48.04 290.874L49.4426 291.692C49.4846 291.717 49.5362 291.717 49.5801 291.692L51.0056 290.872C51.0381 290.853 51.0381 290.807 51.0056 290.788L49.6012 289.972C49.5591 289.947 49.5075 289.947 49.4636 289.972V289.97Z" fill="white"/>
<path d="M47.612 288.89L46.1884 289.71C46.1559 289.729 46.1559 289.775 46.1884 289.794L47.591 290.612C47.633 290.637 47.6846 290.637 47.7286 290.612L49.1541 289.792C49.1866 289.773 49.1866 289.727 49.1541 289.708L47.7496 288.892C47.7076 288.867 47.656 288.867 47.612 288.892V288.89Z" fill="white"/>
<path d="M45.7429 287.802L44.3212 288.62C44.2888 288.639 44.2888 288.685 44.3212 288.704L45.7238 289.522C45.7658 289.547 45.8174 289.547 45.8614 289.522L47.2869 288.702C47.3194 288.683 47.3194 288.637 47.2869 288.618L45.8824 287.802C45.8404 287.777 45.7888 287.777 45.7448 287.802H45.7429Z" fill="white"/>
<path d="M43.8553 286.701L42.4413 287.516C42.405 287.537 42.405 287.588 42.4413 287.609L43.8362 288.423C43.8783 288.448 43.9299 288.448 43.9738 288.423L45.3917 287.607C45.428 287.586 45.428 287.535 45.3917 287.514L43.9948 286.701C43.9528 286.676 43.9012 286.676 43.8572 286.701H43.8553Z" fill="white"/>
<path d="M42.0114 285.617L40.5897 286.435C40.5534 286.456 40.5534 286.508 40.5897 286.529L41.9923 287.347C42.0286 287.368 42.0764 287.368 42.1127 287.347L43.5382 286.527C43.5745 286.506 43.5745 286.455 43.5382 286.434L42.1337 285.617C42.0974 285.596 42.0496 285.596 42.0133 285.617H42.0114Z" fill="white"/>
<path d="M40.1052 284.514L38.6835 285.332C38.6472 285.353 38.6472 285.405 38.6835 285.426L40.086 286.244C40.1224 286.265 40.1701 286.265 40.2064 286.244L41.6319 285.424C41.6682 285.403 41.6682 285.351 41.6319 285.33L40.2274 284.514C40.1911 284.493 40.1434 284.493 40.1071 284.514H40.1052Z" fill="white"/>
<path d="M59.6466 293.682L58.1962 294.517C58.1638 294.536 58.1638 294.584 58.1962 294.603L59.6275 295.438C59.6523 295.452 59.6829 295.454 59.7077 295.438L61.16 294.601C61.1925 294.582 61.1925 294.534 61.16 294.515L59.7268 293.682C59.702 293.668 59.6714 293.666 59.6466 293.682Z" fill="white"/>
<path d="M57.7716 292.592L56.3212 293.427C56.2888 293.446 56.2888 293.494 56.3212 293.513L57.7525 294.348C57.7773 294.364 57.8079 294.364 57.8327 294.348L59.2869 293.511C59.3194 293.492 59.3194 293.444 59.2869 293.425L57.8537 292.592C57.8289 292.578 57.7983 292.577 57.7735 292.592H57.7716Z" fill="white"/>
<path d="M55.8835 291.529L54.4619 292.347C54.4294 292.367 54.4294 292.412 54.4619 292.432L55.8625 293.25C55.9065 293.275 55.96 293.275 56.0039 293.25L57.4275 292.43C57.46 292.411 57.46 292.365 57.4275 292.346L56.0249 291.529C55.981 291.505 55.9275 291.505 55.8835 291.529Z" fill="white"/>
<path d="M54.0144 290.449L52.5947 291.267C52.5622 291.286 52.5622 291.332 52.5947 291.351L53.9953 292.168C54.0393 292.193 54.0928 292.193 54.1367 292.168L55.5603 291.348C55.5928 291.329 55.5928 291.283 55.5603 291.264L54.1578 290.447C54.1138 290.422 54.0603 290.422 54.0164 290.447L54.0144 290.449Z" fill="white"/>
<path d="M52.1433 289.358L50.7197 290.178C50.6872 290.197 50.6872 290.243 50.7197 290.262L52.1222 291.08C52.1643 291.105 52.2159 291.105 52.2598 291.08L53.6853 290.26C53.7178 290.241 53.7178 290.195 53.6853 290.176L52.2808 289.359C52.2388 289.335 52.1872 289.335 52.1433 289.359V289.358Z" fill="white"/>
<path d="M50.2839 288.278L48.8603 289.098C48.8278 289.118 48.8278 289.163 48.8603 289.183L50.2629 290.001C50.3049 290.026 50.3565 290.026 50.4005 290.001L51.8259 289.181C51.8584 289.162 51.8584 289.116 51.8259 289.097L50.4215 288.28C50.3794 288.256 50.3278 288.256 50.2839 288.28V288.278Z" fill="white"/>
<path d="M48.4178 287.191L47.0038 288.005C46.9675 288.026 46.9675 288.077 47.0038 288.098L48.3987 288.911C48.4408 288.936 48.4923 288.936 48.5363 288.911L49.9522 288.097C49.9886 288.076 49.9886 288.024 49.9522 288.003L48.5554 287.191C48.5134 287.166 48.4618 287.166 48.4178 287.191Z" fill="white"/>
<path d="M46.5427 286.085L45.121 286.903C45.0847 286.924 45.0847 286.976 45.121 286.997L46.5236 287.815C46.5599 287.836 46.6076 287.836 46.6439 287.815L48.0694 286.995C48.1057 286.974 48.1057 286.922 48.0694 286.901L46.665 286.085C46.6286 286.064 46.5809 286.064 46.5446 286.085H46.5427Z" fill="white"/>
<path d="M44.6833 285.006L43.2616 285.824C43.2253 285.845 43.2253 285.897 43.2616 285.918L44.6642 286.736C44.7005 286.757 44.7483 286.757 44.7846 286.736L46.2101 285.916C46.2464 285.895 46.2464 285.843 46.2101 285.822L44.8056 285.006C44.7693 284.985 44.7215 284.985 44.6852 285.006H44.6833Z" fill="white"/>
<path d="M42.7927 283.91L41.371 284.728C41.3347 284.749 41.3347 284.801 41.371 284.822L42.7736 285.64C42.8099 285.661 42.8576 285.661 42.8939 285.64L44.3194 284.82C44.3557 284.799 44.3557 284.748 44.3194 284.726L42.915 283.91C42.8786 283.889 42.8309 283.889 42.7946 283.91H42.7927Z" fill="white"/>
<path d="M40.9567 282.838L39.535 283.656C39.4987 283.677 39.4987 283.729 39.535 283.75L40.9376 284.568C40.9739 284.589 41.0217 284.589 41.058 284.568L42.4835 283.748C42.5198 283.727 42.5198 283.675 42.4835 283.654L41.079 282.838C41.0427 282.817 40.9949 282.817 40.9586 282.838H40.9567Z" fill="white"/>
<path d="M61.8185 292.779L60.3681 293.615C60.3356 293.634 60.3356 293.682 60.3681 293.701L61.7993 294.536C61.8242 294.549 61.8548 294.551 61.8796 294.536L63.3319 293.699C63.3643 293.68 63.3643 293.632 63.3319 293.613L61.8987 292.779C61.8739 292.766 61.8433 292.764 61.8185 292.779Z" fill="white"/>
<path d="M59.9435 291.689L58.4931 292.525C58.4606 292.544 58.4606 292.592 58.4931 292.611L59.9243 293.446C59.9492 293.461 59.9798 293.461 60.0046 293.446L61.4588 292.609C61.4912 292.59 61.4912 292.542 61.4588 292.523L60.0256 291.689C60.0008 291.676 59.9702 291.674 59.9454 291.689H59.9435Z" fill="white"/>
<path d="M58.0554 290.629L56.6337 291.447C56.6013 291.466 56.6013 291.512 56.6337 291.531L58.0344 292.349C58.0783 292.374 58.1319 292.374 58.1758 292.349L59.5994 291.529C59.6319 291.51 59.6319 291.464 59.5994 291.445L58.1968 290.629C58.1529 290.604 58.0994 290.604 58.0554 290.629Z" fill="white"/>
<path d="M56.1863 289.547L54.7666 290.365C54.7341 290.384 54.7341 290.43 54.7666 290.449L56.1672 291.265C56.2112 291.29 56.2647 291.29 56.3086 291.265L57.7322 290.445C57.7647 290.426 57.7647 290.38 57.7322 290.361L56.3296 289.545C56.2857 289.52 56.2322 289.52 56.1882 289.545L56.1863 289.547Z" fill="white"/>
<path d="M54.3151 288.457L52.8916 289.277C52.8591 289.296 52.8591 289.342 52.8916 289.361L54.2941 290.179C54.3362 290.204 54.3878 290.204 54.4317 290.179L55.8572 289.359C55.8897 289.34 55.8897 289.294 55.8572 289.275L54.4527 288.459C54.4107 288.434 54.3591 288.434 54.3151 288.459V288.457Z" fill="white"/>
<path d="M52.4558 287.378L51.0322 288.198C50.9997 288.217 50.9997 288.263 51.0322 288.282L52.4347 289.1C52.4768 289.125 52.5284 289.125 52.5723 289.1L53.9978 288.28C54.0303 288.261 54.0303 288.215 53.9978 288.196L52.5933 287.38C52.5513 287.355 52.4997 287.355 52.4558 287.38V287.378Z" fill="white"/>
<path d="M50.5897 286.29L49.1757 287.104C49.1394 287.125 49.1394 287.177 49.1757 287.198L50.5706 288.01C50.6126 288.035 50.6642 288.035 50.7082 288.01L52.1241 287.196C52.1604 287.175 52.1604 287.124 52.1241 287.102L50.7273 286.29C50.6852 286.265 50.6336 286.265 50.5897 286.29Z" fill="white"/>
<path d="M48.7145 285.186L47.2929 286.004C47.2565 286.025 47.2565 286.076 47.2929 286.097L48.6954 286.916C48.7317 286.937 48.7795 286.937 48.8158 286.916L50.2413 286.096C50.2776 286.075 50.2776 286.023 50.2413 286.002L48.8368 285.186C48.8005 285.165 48.7528 285.165 48.7164 285.186H48.7145Z" fill="white"/>
<path d="M46.8547 284.106L45.4349 284.924C45.3967 284.945 45.3967 284.998 45.4349 285.021L46.8356 285.837C46.8719 285.858 46.9196 285.858 46.956 285.837L48.3795 285.017C48.4178 284.996 48.4178 284.943 48.3795 284.92L46.977 284.104C46.9407 284.083 46.8929 284.083 46.8566 284.104L46.8547 284.106Z" fill="white"/>
<path d="M44.9875 283.022L43.5677 283.84C43.5295 283.861 43.5295 283.914 43.5677 283.937L44.9684 284.753C45.0047 284.774 45.0525 284.774 45.0888 284.753L46.5124 283.933C46.5506 283.912 46.5506 283.859 46.5124 283.836L45.1098 283.02C45.0735 282.999 45.0257 282.999 44.9894 283.02L44.9875 283.022Z" fill="white"/>
<path d="M43.1203 281.938L41.7005 282.756C41.6623 282.777 41.6623 282.83 41.7005 282.853L43.1012 283.669C43.1375 283.69 43.1853 283.69 43.2216 283.669L44.6452 282.849C44.6834 282.828 44.6834 282.775 44.6452 282.752L43.2426 281.936C43.2063 281.915 43.1585 281.915 43.1222 281.936L43.1203 281.938Z" fill="white"/>
<path d="M41.2686 280.85L39.8412 281.672C39.8029 281.693 39.8029 281.747 39.8412 281.77L41.2495 282.592C41.2819 282.611 41.3221 282.611 41.3546 282.592L42.7858 281.768C42.824 281.747 42.824 281.693 42.7858 281.67L41.3756 280.85C41.3431 280.831 41.303 280.831 41.2705 280.85H41.2686Z" fill="white"/>
<path d="M65.5919 290.593L64.1416 291.428C64.1091 291.447 64.1091 291.495 64.1416 291.514L65.5728 292.349C65.5976 292.363 65.6282 292.365 65.653 292.349L67.1053 291.512C67.1378 291.493 67.1378 291.445 67.1053 291.426L65.6721 290.593C65.6473 290.579 65.6167 290.578 65.5919 290.593Z" fill="white"/>
<path d="M63.7169 289.503L62.2666 290.338C62.2341 290.357 62.2341 290.405 62.2666 290.424L63.6978 291.26C63.7226 291.275 63.7532 291.275 63.778 291.26L65.2322 290.422C65.2647 290.403 65.2647 290.355 65.2322 290.336L63.7991 289.503C63.7742 289.49 63.7436 289.488 63.7188 289.503H63.7169Z" fill="white"/>
<path d="M61.8653 288.423L60.415 289.258C60.3825 289.277 60.3825 289.325 60.415 289.344L61.8156 290.16C61.8596 290.185 61.9131 290.185 61.957 290.16L63.3806 289.34C63.4131 289.321 63.4131 289.273 63.3806 289.254L61.9475 288.421C61.9227 288.408 61.8921 288.406 61.8672 288.421L61.8653 288.423Z" fill="white"/>
<path d="M59.9598 287.36L58.54 288.179C58.5075 288.198 58.5075 288.243 58.54 288.263L59.9406 289.079C59.9846 289.104 60.0381 289.104 60.0821 289.079L61.5056 288.259C61.5381 288.24 61.5381 288.194 61.5056 288.175L60.1031 287.358C60.0591 287.334 60.0056 287.334 59.9617 287.358L59.9598 287.36Z" fill="white"/>
<path d="M58.0886 286.269L56.665 287.089C56.6325 287.108 56.6325 287.154 56.665 287.173L58.0676 287.991C58.1096 288.016 58.1612 288.016 58.2051 287.991L59.6306 287.171C59.6631 287.152 59.6631 287.106 59.6306 287.087L58.2262 286.271C58.1841 286.246 58.1325 286.246 58.0886 286.271V286.269Z" fill="white"/>
<path d="M56.2298 285.189L54.8177 286.001C54.7795 286.022 54.7795 286.075 54.8177 286.098L56.2088 286.911C56.2509 286.936 56.3025 286.936 56.3464 286.911L57.7604 286.097C57.7987 286.075 57.7987 286.022 57.7604 285.999L56.3655 285.189C56.3235 285.164 56.2719 285.164 56.2279 285.189H56.2298Z" fill="white"/>
<path d="M54.4315 284.063L52.9505 284.916C52.9123 284.937 52.9123 284.991 52.9505 285.013L54.3436 285.826C54.3856 285.851 54.4372 285.851 54.4811 285.826L55.8952 285.012C55.9334 284.991 55.9334 284.937 55.8952 284.914L54.4334 284.063H54.4315Z" fill="white"/>
<path d="M52.4799 283.002L51.0677 283.814C51.0295 283.835 51.0295 283.889 51.0677 283.912L52.4588 284.724C52.5009 284.749 52.5525 284.749 52.5964 284.724L54.0104 283.91C54.0487 283.889 54.0487 283.835 54.0104 283.812L52.6155 283.002C52.5735 282.977 52.5219 282.977 52.4779 283.002H52.4799Z" fill="white"/>
<path d="M50.6281 281.916L49.2084 282.734C49.1701 282.755 49.1701 282.809 49.2084 282.832L50.609 283.648C50.6453 283.669 50.6931 283.669 50.7294 283.648L52.153 282.828C52.1912 282.807 52.1912 282.753 52.153 282.73L50.7504 281.914C50.7141 281.893 50.6663 281.893 50.63 281.914L50.6281 281.916Z" fill="white"/>
<path d="M48.7609 280.833L47.3412 281.651C47.3029 281.672 47.3029 281.726 47.3412 281.749L48.7418 282.565C48.7781 282.586 48.8259 282.586 48.8622 282.565L50.2858 281.745C50.324 281.724 50.324 281.67 50.2858 281.647L48.8832 280.831C48.8469 280.81 48.7991 280.81 48.7628 280.831L48.7609 280.833Z" fill="white"/>
<path d="M46.9016 279.749L45.4818 280.567C45.4436 280.588 45.4436 280.642 45.4818 280.665L46.8824 281.481C46.9188 281.502 46.9665 281.502 47.0028 281.481L48.4264 280.661C48.4646 280.64 48.4646 280.586 48.4264 280.563L47.0238 279.747C46.9875 279.726 46.9398 279.726 46.9035 279.747L46.9016 279.749Z" fill="white"/>
<path d="M45.042 278.664L43.6146 279.486C43.5764 279.507 43.5764 279.56 43.6146 279.583L45.0229 280.405C45.0554 280.424 45.0955 280.424 45.128 280.405L46.5592 279.581C46.5974 279.56 46.5974 279.507 46.5592 279.484L45.149 278.664C45.1165 278.645 45.0764 278.645 45.0439 278.664H45.042Z" fill="white"/>
<path d="M39.7048 279.94L38.285 280.768C38.2487 280.789 38.2487 280.842 38.285 280.865L39.3857 281.508C39.4182 281.527 39.4583 281.527 39.4908 281.508L40.922 280.684C40.9602 280.663 40.9602 280.609 40.922 280.586L39.8118 279.94C39.7793 279.921 39.7392 279.921 39.7067 279.94H39.7048Z" fill="white"/>
<path d="M43.4782 277.752L42.0585 278.579C42.0222 278.6 42.0222 278.654 42.0585 278.677L43.1591 279.319C43.1916 279.338 43.2317 279.338 43.2642 279.319L44.6955 278.495C44.7337 278.474 44.7337 278.421 44.6955 278.398L43.5853 277.752C43.5528 277.733 43.5126 277.733 43.4802 277.752H43.4782Z" fill="white"/>
<path d="M64.4122 292.124L62.9619 292.959C62.9294 292.978 62.9294 293.026 62.9619 293.045L64.3931 293.881C64.4179 293.894 64.4485 293.896 64.4734 293.881L65.9256 293.043C65.9581 293.024 65.9581 292.977 65.9256 292.957L64.4925 292.124C64.4676 292.111 64.437 292.109 64.4122 292.124Z" fill="white"/>
<path d="M62.5372 291.034L61.0869 291.87C61.0544 291.889 61.0544 291.936 61.0869 291.956L62.5181 292.791C62.5429 292.806 62.5735 292.806 62.5984 292.791L64.0525 291.954C64.085 291.935 64.085 291.887 64.0525 291.868L62.6194 291.034C62.5945 291.021 62.564 291.019 62.5391 291.034H62.5372Z" fill="white"/>
<path d="M60.6797 289.954L59.2275 290.789C59.195 290.809 59.195 290.854 59.2275 290.874L60.6587 291.709C60.6836 291.724 60.7141 291.724 60.739 291.709L62.1931 290.872C62.2256 290.852 62.2256 290.807 62.1931 290.788L60.76 289.954C60.7352 289.941 60.7046 289.939 60.6797 289.954Z" fill="white"/>
<path d="M58.7801 288.892L57.3603 289.71C57.3278 289.729 57.3278 289.775 57.3603 289.794L58.761 290.61C58.8049 290.635 58.8584 290.635 58.9024 290.61L60.3355 289.784C60.3623 289.769 60.3623 289.729 60.3355 289.714L58.9215 288.892C58.8775 288.867 58.824 288.867 58.7801 288.892Z" fill="white"/>
<path d="M56.9089 287.8L55.4853 288.62C55.4528 288.639 55.4528 288.685 55.4853 288.704L56.8879 289.522C56.9299 289.547 56.9815 289.547 57.0255 289.522L58.4509 288.702C58.4834 288.683 58.4834 288.637 58.4509 288.618L57.0465 287.802C57.0044 287.777 56.9528 287.777 56.9089 287.802V287.8Z" fill="white"/>
<path d="M55.0495 286.72L53.6259 287.54C53.5934 287.559 53.5934 287.605 53.6259 287.624L55.0285 288.442C55.0705 288.467 55.1221 288.467 55.1661 288.442L56.5916 287.622C56.6241 287.603 56.6241 287.557 56.5916 287.538L55.1871 286.722C55.1451 286.697 55.0935 286.697 55.0495 286.722V286.72Z" fill="white"/>
<path d="M53.183 285.633L51.7709 286.445C51.7326 286.466 51.7326 286.52 51.7709 286.543L53.1639 287.355C53.2059 287.38 53.2575 287.38 53.3014 287.355L54.7155 286.541C54.7537 286.52 54.7537 286.466 54.7155 286.443L53.3206 285.633C53.2785 285.608 53.2269 285.608 53.183 285.633Z" fill="white"/>
<path d="M51.3002 284.533L49.888 285.346C49.8498 285.367 49.8498 285.42 49.888 285.443L51.2791 286.255C51.3212 286.28 51.3728 286.28 51.4167 286.255L52.8308 285.441C52.869 285.42 52.869 285.367 52.8308 285.344L51.4358 284.533C51.3938 284.508 51.3422 284.508 51.2983 284.533H51.3002Z" fill="white"/>
<path d="M49.4484 283.447L48.0287 284.265C47.9904 284.287 47.9904 284.34 48.0287 284.363L49.4293 285.179C49.4656 285.2 49.5134 285.2 49.5497 285.179L50.9733 284.359C51.0115 284.338 51.0115 284.285 50.9733 284.262L49.5707 283.445C49.5344 283.424 49.4866 283.424 49.4503 283.445L49.4484 283.447Z" fill="white"/>
<path d="M47.5812 282.364L46.1615 283.182C46.1233 283.204 46.1233 283.257 46.1615 283.28L47.5621 284.096C47.5984 284.117 47.6462 284.117 47.6825 284.096L49.1061 283.276C49.1443 283.255 49.1443 283.202 49.1061 283.179L47.7035 282.362C47.6672 282.341 47.6195 282.341 47.5832 282.362L47.5812 282.364Z" fill="white"/>
<path d="M45.7219 281.28L44.3021 282.098C44.2639 282.119 44.2639 282.173 44.3021 282.196L45.7028 283.012C45.7391 283.033 45.7868 283.033 45.8231 283.012L47.2467 282.192C47.2849 282.171 47.2849 282.118 47.2467 282.095L45.8442 281.278C45.8079 281.257 45.7601 281.257 45.7238 281.278L45.7219 281.28Z" fill="white"/>
<path d="M43.8547 280.198L42.4349 281.016C42.3967 281.037 42.3967 281.091 42.4349 281.114L43.8356 281.93C43.8719 281.951 43.9196 281.951 43.956 281.93L45.3795 281.11C45.4178 281.089 45.4178 281.036 45.3795 281.013L43.977 280.196C43.9407 280.175 43.8929 280.175 43.8566 280.196L43.8547 280.198Z" fill="white"/>
<path d="M41.5758 278.862L40.1522 279.686C40.1159 279.707 40.1159 279.76 40.1522 279.783L41.9809 280.85C42.0134 280.869 42.0535 280.869 42.086 280.85L43.5172 280.026C43.5555 280.005 43.5555 279.952 43.5172 279.929L41.6809 278.862C41.6484 278.843 41.6083 278.843 41.5758 278.862Z" fill="white"/>
<path d="M41.6696 287.594L40.246 288.414C40.2097 288.435 40.2097 288.487 40.246 288.508L41.9963 289.53C42.0345 289.551 42.0804 289.551 42.1167 289.53L43.5422 288.708C43.5785 288.687 43.5785 288.636 43.5422 288.615L41.79 287.594C41.7536 287.573 41.7059 287.573 41.6696 287.594Z" fill="white"/>
<path d="M39.8043 286.51L38.3788 287.33C38.3425 287.351 38.3425 287.404 38.3788 287.424L39.7986 288.232C39.8349 288.253 39.8807 288.253 39.9189 288.232L41.3311 287.42C41.3674 287.399 41.3674 287.347 41.3311 287.326L39.9266 286.51C39.8903 286.489 39.8425 286.489 39.8062 286.51H39.8043Z" fill="white"/>
<path d="M37.8729 285.394L36.4569 286.216C36.4206 286.237 36.4206 286.288 36.4569 286.309L37.8614 287.125C37.8996 287.147 37.9455 287.147 37.9818 287.125L39.3977 286.304C39.434 286.283 39.434 286.231 39.3977 286.21L37.9932 285.394C37.955 285.373 37.9092 285.373 37.8729 285.394Z" fill="white"/>
<path d="M35.0803 284.822L34.5663 285.116C34.53 285.137 34.53 285.189 34.5663 285.21L35.9841 286.028C36.0166 286.047 36.0568 286.047 36.0892 286.028L36.5975 285.738C36.6338 285.717 36.6338 285.665 36.5975 285.644L35.1854 284.822C35.1529 284.803 35.1128 284.803 35.0803 284.822Z" fill="white"/>
<path d="M35.9709 284.281L35.4569 284.575C35.4206 284.596 35.4206 284.648 35.4569 284.669L36.8748 285.487C36.9073 285.506 36.9474 285.506 36.9799 285.487L37.4882 285.197C37.5245 285.176 37.5245 285.124 37.4882 285.103L36.076 284.281C36.0436 284.262 36.0034 284.262 35.9709 284.281Z" fill="white"/>
<path d="M34.105 283.191L32.6757 284.017C32.6394 284.038 32.6394 284.089 32.6757 284.11L34.0878 284.932C34.1203 284.952 34.1604 284.952 34.1929 284.932L35.6222 284.107C35.6585 284.086 35.6585 284.034 35.6222 284.013L34.2101 283.191C34.1776 283.172 34.1375 283.172 34.105 283.191Z" fill="white"/>
<path d="M43.8815 288.88L42.4541 289.702C42.4216 289.721 42.4216 289.767 42.4541 289.786L51.3281 294.945C51.3701 294.97 51.4217 294.97 51.4656 294.945L52.8931 294.123C52.9255 294.104 52.9255 294.058 52.8931 294.039L44.019 288.88C43.977 288.855 43.9254 288.855 43.8815 288.88Z" fill="white"/>
<path d="M58.8301 295.373L57.3759 296.21C57.3434 296.229 57.3434 296.277 57.3759 296.296L60.6702 298.212C60.6951 298.225 60.7257 298.227 60.7505 298.212L62.2047 297.374C62.2371 297.355 62.2371 297.307 62.2047 297.288L58.9103 295.373C58.8855 295.36 58.8549 295.358 58.8301 295.373Z" fill="white"/>
<path d="M35.9813 282.102L34.5692 282.93C34.529 282.953 34.529 283.012 34.5692 283.035L38.1883 285.142C38.2208 285.161 38.2609 285.161 38.2934 285.142L39.7266 284.316C39.7629 284.295 39.7629 284.243 39.7266 284.222L36.0864 282.104C36.0539 282.085 36.0138 282.085 35.9813 282.104V282.102Z" fill="white"/>
<path d="M37.851 281.026L36.4179 281.852C36.3815 281.873 36.3815 281.924 36.4179 281.945L39.0701 283.488C39.1026 283.507 39.1427 283.507 39.1752 283.488L40.6084 282.662C40.6447 282.641 40.6447 282.59 40.6084 282.569L37.9561 281.026C37.9236 281.007 37.8835 281.007 37.851 281.026Z" fill="white"/>
<path d="M61.502 294.76L60.0478 295.597C60.0153 295.616 60.0153 295.664 60.0478 295.683L62.5281 297.125C62.5529 297.138 62.5835 297.138 62.6083 297.125L64.0625 296.287C64.095 296.268 64.095 296.22 64.0625 296.201L61.5822 294.76C61.5574 294.747 61.5268 294.747 61.502 294.76Z" fill="white"/>
<path d="M63.6895 293.869L62.2353 294.706C62.2028 294.725 62.2028 294.773 62.2353 294.792L64.3907 296.046C64.4156 296.06 64.4462 296.062 64.471 296.046L65.9252 295.209C65.9576 295.19 65.9576 295.142 65.9252 295.123L63.7697 293.869C63.7449 293.856 63.7143 293.854 63.6895 293.869Z" fill="white"/>
<path d="M66.2754 293.208L64.8212 294.045C64.7888 294.064 64.7888 294.112 64.8212 294.131L66.2544 294.965C66.2792 294.978 66.3098 294.98 66.3346 294.965L67.7888 294.127C67.8213 294.108 67.8213 294.061 67.7888 294.041L66.3557 293.208C66.3308 293.195 66.3002 293.193 66.2754 293.208Z" fill="white"/>
<path d="M67.4629 291.68L66.0087 292.517C65.9763 292.536 65.9763 292.584 66.0087 292.603L68.1699 293.859C68.1948 293.872 68.2253 293.872 68.2502 293.859L69.7043 293.022C69.7368 293.003 69.7368 292.955 69.7043 292.936L67.5432 291.68C67.5183 291.667 67.4877 291.667 67.4629 291.68Z" fill="white"/>
<path d="M58.8371 299.875L70.7341 292.998V293.388L58.8371 300.265L31.6953 284.455V284.065L58.8371 299.875Z" fill="#B98CFF"/>
<path d="M17.2773 208.648C17.497 207.137 20.7646 151.278 20.7646 151.278L21.9551 150.681L23.2716 201.783C23.2716 201.783 28.4462 204.046 31.2093 200.433C31.3679 200.116 33.3514 135.705 33.3514 135.705C33.3514 135.705 16.1155 138.035 8.17969 138.035L9.34149 209.998C9.34149 209.998 14.4932 212.225 17.2792 208.648H17.2773Z" fill="#914BFF"/>
<path d="M8.17963 138.036C8.17963 138.036 24.3034 143.578 33.3513 135.706V97.5667C33.3513 97.5667 32.9539 84.7847 15.4925 92.4058C15.4925 92.4058 6.74267 96.9512 6.74267 99.1743C6.71401 101.629 7.97517 132.902 8.17963 138.036Z" fill="#E8D9FF"/>
<path d="M15.4927 92.4062C15.4927 92.4062 3.50781 96.2177 3.50781 105.825V126.243C3.50781 129.672 5.76262 132.698 9.05121 133.671C15.8806 135.691 21.2883 137.027 24.5406 137.851C24.3381 137.077 23.7744 134.806 26.4515 133.034L12.6895 124.721V108.604L15.4927 92.4082V92.4062Z" fill="#50CEFF"/>
<path d="M19.3395 77.3438C16.7847 76.887 16.2573 79.3299 17.272 81.2929C17.528 81.788 17.614 82.3614 17.4879 82.9024C17.442 83.0993 17.2548 83.6498 17.1382 83.8486C17.1382 83.8486 16.4388 81.4286 15.1585 81.9142C13.8802 82.3978 14.8394 85.2401 15.9057 85.1273C15.9057 85.1273 15.8713 87.8569 14.998 88.4609C15.1012 90.6801 15.1528 93.8111 15.1528 93.8111C21.4548 96.8178 24.1568 93.6123 24.1568 93.6123V90.4622C27.8141 87.941 26.0714 79.2706 25.7294 77.7395C23.7765 78.6666 21.6669 77.7605 19.3395 77.3458V77.3438Z" fill="#B1E9FF"/>
<path d="M17.52 77.6631C17.8124 77.4394 18.1946 77.3018 18.6704 77.2904C18.8748 77.2846 19.0965 77.3018 19.3354 77.3458C21.6609 77.7606 23.7705 78.6666 25.7234 77.7396C28.9986 76.6462 27.4145 72.4639 26.2469 72.7372C25.0565 73.0144 21.9609 71.5464 21.9609 71.5464C13.9831 68.6888 11.8811 75.5567 11.8811 75.5567C7.75366 79.0508 14.9939 88.4629 14.9939 88.4629C15.3226 88.2373 15.5308 87.7117 15.6646 87.144C15.6875 87.0484 15.7066 86.9528 15.7258 86.8572C15.8901 85.9933 15.9016 85.1312 15.9016 85.1293C15.7965 85.1407 15.6914 85.1216 15.5901 85.0796C14.6671 84.7011 14.0003 82.3519 15.1544 81.9161C15.2748 81.8702 15.3894 81.8511 15.4984 81.853C15.5652 81.853 15.6283 81.8626 15.6914 81.8779C15.6971 81.8779 15.7047 81.8798 15.7105 81.8817C16.1825 82.0079 16.5436 82.5201 16.7825 82.9884L16.9143 87.2281C16.9487 88.3119 17.4818 89.3173 18.3627 89.9481C19.7175 90.921 21.8902 91.8844 24.1526 90.4623C25.4157 89.5906 26.0348 87.985 26.289 86.194C26.289 86.194 22.0602 85.2516 21.7469 88.9656C21.7469 88.9656 18.3475 88.8891 17.4837 82.9043C17.5659 82.5507 17.5564 82.1837 17.4704 81.8358C17.4245 81.6485 17.3576 81.4669 17.2678 81.2949C17.1723 81.1114 17.092 80.9221 17.0232 80.7329C16.9334 80.4806 16.8684 80.2245 16.8283 79.9741C16.729 79.3452 16.7901 78.7431 17.029 78.269C17.1474 78.032 17.3099 77.8275 17.5181 77.6669L17.52 77.6631ZM24.0877 87.0541C24.8386 86.8267 25.5456 86.9738 25.6699 87.3829C25.7578 87.6753 25.5208 88.0194 25.1081 88.2775C25.0221 88.0882 24.6781 88.0232 24.3093 88.1341C23.9768 88.2354 23.7399 88.4457 23.7208 88.6368C23.3291 88.6101 23.031 88.459 22.9545 88.2067C22.8303 87.7977 23.3386 87.2816 24.0877 87.0541Z" fill="#D6BCFF"/>
<path d="M14.7184 96.3109C13.5642 95.0398 13.9043 93.6139 14.5464 92.9238C13.3082 92.9238 11.5807 94.5964 10.6635 97.1692C8.38005 103.573 4.99975 114 5.98957 115.586C9.79982 121.699 9.08516 125.986 9.08516 125.986C5.89403 134.372 7.18577 141.735 7.18577 141.735C16.4725 138.321 19.2452 131.384 19.2452 131.384C19.2452 131.384 21.5478 126.606 20.277 112.235C19.8108 106.962 16.2203 100.05 14.7184 96.309V96.3109Z" fill="#914BFF"/>
<path d="M12.6875 107.283C12.6894 107.679 12.6875 124.72 12.6875 124.72L19.5685 128.877L14.4665 123.368L12.6875 107.283Z" fill="#1B2228"/>
<path d="M15.1231 92.542C13.6364 92.9816 12.0294 97.6265 20.8289 98.5994C20.8442 98.4006 20.5537 95.2199 21.6028 94.9332C21.8283 94.8873 22.4569 94.7879 22.9729 98.0432C23.2117 97.8042 28.4245 94.7879 24.1519 90.6592V92.24C24.1519 93.2874 23.5308 94.2489 22.5601 94.6408C21.3085 95.1454 19.0652 95.5219 16.4855 94.1514C15.6027 93.6831 15.1422 93.3524 15.125 92.563C15.125 92.563 15.125 92.5496 15.125 92.5401L15.1231 92.542Z" fill="#F8F8F8"/>
<path d="M24.7715 89.9865C24.7505 89.9865 24.7314 89.9865 24.7104 89.9884C24.5422 90.1604 24.3607 90.3191 24.162 90.4567C24.162 90.5236 24.1582 90.5924 24.1562 90.6593C26.5353 92.9244 25.9563 94.9831 24.934 96.279C24.934 96.279 28.8914 102.962 28.1117 119.874C28.1117 119.874 27.1601 134.726 33.4296 135.705V97.5635C33.4296 97.5635 33.1812 89.782 24.7715 89.9884V89.9865Z" fill="#914BFF"/>
<path d="M38.1293 209.642C38.0777 209.221 37.8617 208.839 37.5598 208.541L30.9559 202.29V200.738C28.7756 203.2 25.3571 202.476 23.9297 202.025V204.36C23.9297 204.819 24.2029 205.232 24.6252 205.41C25.0017 205.569 25.5539 205.804 26.3431 206.142C26.7329 206.308 27.096 206.538 27.4151 206.817C29.4712 208.612 30.8928 209.651 33.1916 210.538C34.8483 211.177 38.3758 211.658 38.1293 209.642Z" fill="#8A40FF"/>
<path d="M23.638 216.697L17.034 210.447V208.94C14.8423 211.383 11.4352 210.678 10.0078 210.234V212.515C10.0078 212.974 10.2811 213.387 10.7034 213.564C11.0798 213.723 11.632 213.958 12.4212 214.296C12.811 214.463 13.1741 214.692 13.4932 214.971C15.5493 216.766 16.971 217.806 19.2697 218.693C20.9264 219.331 24.4539 219.813 24.2074 217.796C24.1558 217.376 23.9399 216.993 23.638 216.695V216.697Z" fill="#8A40FF"/>
<path d="M34.6712 135.921L32.5406 135.106L30.2304 134.166L31.3215 134.03C31.6559 133.988 31.8909 133.847 31.8852 133.508L31.8985 133.363C31.8947 133.136 31.7342 132.941 31.5125 132.893L29.6571 132.576C29.3991 132.532 29.1354 132.564 28.8966 132.671L27.259 133.401L26.4469 133.034C23.7831 134.797 24.3258 137.054 24.5322 137.838L25.2449 138.039L26.5883 138.564L27.8342 139.881C28.0061 140.063 28.2335 140.183 28.4781 140.223C29.1259 140.33 29.1469 140.3 30.0947 140.464C30.8189 140.59 30.6087 139.661 31.2756 139.35C31.8641 139.075 31.4208 138.023 31.9597 137.792C32.3552 137.624 32.3935 137.138 32.3935 136.708L35.9897 137.7C36.4177 137.823 36.7674 137.362 36.5457 136.976C36.2973 136.542 35.1948 136.066 34.6674 135.919L34.6712 135.921Z" fill="#B1E9FF"/>
<path d="M27.2324 133.384L26.4547 133.032C23.7909 134.795 24.3336 137.052 24.54 137.836L25.2528 138.036L25.3636 138.08C25.1496 137.251 24.7063 135.093 27.2324 133.382V133.384Z" fill="#F8F8F8"/>
<path d="M26.4534 133.032L12.6914 124.719V108.602L14.7991 96.4221C13.2436 94.8375 14.094 92.97 14.9959 92.5801C12.7334 93.4269 3.50781 97.3931 3.50781 105.823V126.241C3.50781 129.67 5.76262 132.696 9.05121 133.669C15.8806 135.689 21.2883 137.025 24.5406 137.849C24.3381 137.075 23.7744 134.804 26.4515 133.032H26.4534Z" fill="#914BFF"/>
<path d="M22.6555 96.6455C22.2083 94.8163 21.7459 94.8889 21.5586 94.9271C20.9529 95.0934 20.7943 96.225 20.7656 97.1903C20.7656 97.1903 20.9395 97.4503 21.3064 97.8096C22.6918 104.389 22.2943 120.826 22.2943 120.826L24.251 125.319L26.5345 120.491C26.5345 120.491 24.251 103.359 22.4529 97.6548C22.5485 97.4311 22.6574 96.6474 22.6574 96.6474L22.6555 96.6455Z" fill="#64D4FF"/>
<path d="M22.9803 137.455C22.9631 137.451 22.9459 137.446 22.9287 137.442C22.858 137.425 22.7873 137.406 22.7166 137.388C22.6612 137.375 22.6077 137.36 22.5503 137.346C22.4892 137.331 22.428 137.316 22.365 137.3C22.3 137.283 22.2331 137.268 22.1682 137.251C22.1089 137.235 22.0478 137.22 21.9866 137.205C21.9178 137.188 21.851 137.17 21.7803 137.153C21.7229 137.138 21.6656 137.125 21.6064 137.109C21.5299 137.09 21.4535 137.071 21.3752 137.05C21.3159 137.035 21.2567 137.019 21.1974 137.004C21.1229 136.985 21.0503 136.966 20.9739 136.947C20.9108 136.93 20.8458 136.914 20.7809 136.897C20.7064 136.878 20.6318 136.859 20.5554 136.84C20.4866 136.823 20.4178 136.805 20.349 136.786C20.2764 136.767 20.2038 136.748 20.1312 136.731C20.0605 136.714 19.9898 136.694 19.9191 136.675C19.8407 136.654 19.7605 136.633 19.6802 136.614C19.6133 136.597 19.5484 136.58 19.4815 136.563C19.3955 136.54 19.3095 136.519 19.2235 136.496C19.1566 136.478 19.0917 136.461 19.0229 136.444C18.9369 136.421 18.849 136.398 18.7611 136.375C18.6942 136.358 18.6293 136.341 18.5624 136.324C18.4649 136.299 18.3675 136.272 18.27 136.247C18.2089 136.232 18.1477 136.215 18.0866 136.199C17.9891 136.173 17.8898 136.148 17.7904 136.121C17.7273 136.104 17.6624 136.087 17.5993 136.069C17.4942 136.041 17.3872 136.012 17.2802 135.983C17.2229 135.968 17.1655 135.953 17.1063 135.938C16.9878 135.907 16.8694 135.874 16.7509 135.842C16.7012 135.829 16.6515 135.815 16.6018 135.802C16.4814 135.769 16.3592 135.737 16.2388 135.704C16.1853 135.691 16.1337 135.676 16.0802 135.662C15.9311 135.622 15.7802 135.58 15.6292 135.54C15.6063 135.534 15.5833 135.527 15.5585 135.521C15.2012 135.423 14.8381 135.324 14.4693 135.223C14.4407 135.215 14.4101 135.207 14.3814 135.198C14.2266 135.156 14.0719 135.112 13.9133 135.068C13.8655 135.054 13.8177 135.041 13.7699 135.028C13.6324 134.989 13.4929 134.951 13.3534 134.911C13.2903 134.894 13.2253 134.875 13.1604 134.858C13.0362 134.823 12.9101 134.787 12.7839 134.752C12.7113 134.731 12.6368 134.71 12.5642 134.689C12.4457 134.655 12.3253 134.622 12.205 134.588C12.1285 134.567 12.0502 134.544 11.9737 134.523C11.8534 134.489 11.7349 134.454 11.6145 134.42C11.5342 134.397 11.4521 134.374 11.3718 134.349C11.2572 134.317 11.1406 134.282 11.024 134.25C10.9361 134.225 10.8502 134.2 10.7623 134.173C10.6476 134.141 10.533 134.106 10.4164 134.074C10.3285 134.049 10.2406 134.022 10.1527 133.997C10.082 133.976 10.0113 133.955 9.93868 133.934C9.93677 133.934 9.93294 133.934 9.93103 133.932C9.64058 133.848 9.35013 133.762 9.05395 133.674C8.41955 133.487 7.82336 133.221 7.27494 132.893L7.07812 134.751L24.5453 137.853C24.0695 137.732 23.5478 137.601 22.9841 137.459L22.9803 137.455Z" fill="#1B2228"/>
<path d="M30.7344 91.8457C30.7344 91.8457 30.742 91.8533 30.7458 91.8553C30.742 91.8514 30.7382 91.8476 30.7363 91.8457H30.7344Z" fill="#1B2228"/>
<path d="M20.6016 383.241V387.588C20.6016 388.28 20.9799 389.209 21.6105 389.497C22.9366 390.103 24.7481 390.209 25.7838 389.563C27.2609 388.641 30.3584 387.567 31.931 386.714C31.931 386.714 34.6884 385.516 35.4183 384.883C36.2591 384.155 36.7617 382.532 35.8808 381.731C35.1623 381.078 34.4706 381.416 31.996 382.022C31.996 382.022 29.0705 382.524 28.6119 382.454C28.1552 382.381 20.6035 383.243 20.6035 383.243L20.6016 383.241Z" fill="#8A40FF"/>
<path d="M6.57812 376.748V381.095C6.57812 381.787 6.95647 382.716 7.58706 383.004C8.91319 383.61 10.7247 383.715 11.7604 383.069C13.2375 382.148 16.335 381.074 17.9076 380.221C17.9076 380.221 20.665 379.023 21.3949 378.39C22.2357 377.662 22.7382 376.039 21.8573 375.238C21.1389 374.584 20.4471 374.923 17.9726 375.529C17.9726 375.529 15.047 376.031 14.5884 375.961C14.1317 375.888 6.58004 376.75 6.58004 376.75L6.57812 376.748Z" fill="#8A40FF"/>
<path d="M14.2094 375.908C14.4368 374.342 16.405 325.51 16.405 325.51L17.454 325.659L20.5974 383.24C20.5974 383.24 25.4242 386.457 28.2867 382.714C28.5255 379.811 30.0046 313.573 30.081 310.981C30.081 310.981 13.5693 313.217 4.78125 308.76L6.57554 376.657C6.57554 376.657 11.3221 379.608 14.2094 375.904V375.908Z" fill="#914BFF"/>
<path d="M30.081 310.984V269.631C30.081 268.635 30.2415 268.007 29.4007 267.475C26.8727 265.871 8.45009 259.537 4.78125 265.42V308.765C4.78125 308.765 15.9808 316.453 30.081 310.986V310.984Z" fill="#50CEFF"/>
<path d="M24.1172 276.647L26.3605 266.469L29.5039 267.577C29.5039 267.577 33.7383 269.47 38.3015 288.902L51.2513 283.146L54.2934 288.41L41.1353 297.7C37.4741 300.284 32.3587 298.706 30.7899 294.506L24.1191 276.649L24.1172 276.647Z" fill="#50CEFF"/>
<path d="M4.78227 265.419C4.05614 266.342 -5.60515 289.763 4.78227 297.126C4.78227 297.126 4.78227 269.768 4.78227 265.419Z" fill="#1FC0FF"/>
<path d="M14.0223 260.585C13.451 258.826 13.1089 257.718 12.3828 255.659C11.7274 254.013 10.9707 252.323 10.5083 251.146C9.74775 249.271 10.1089 246.044 12.6905 245.553C12.7459 244.018 14.4714 242.472 16.2714 242.174C16.7778 242.089 17.4237 242.063 18.1651 242.133C19.4205 242.252 19.8103 242.16 20.6091 242.166C22.2543 242.179 22.9938 242.349 24.4308 243.229C25.2486 243.729 25.9079 244.378 26.7238 245.014C27.4958 245.616 28.4225 246.018 28.5506 246.989C28.7054 248.145 28.1588 249.433 26.2136 250.083C26.0875 249.959 22.8772 250.253 22.8084 252.906C22.7397 255.56 22.4072 255.81 21.618 256.009C21.618 256.009 20.8785 255.175 20.1848 255.81C19.2084 256.701 20.0492 258.13 20.825 258.002C20.825 258.002 19.8944 265.266 14.0262 260.587L14.0223 260.585Z" fill="#D6BCFF"/>
<path d="M14.0109 262.282C14.0109 262.282 14.0204 262.282 14.0242 262.282C14.0242 262.41 14.0242 262.529 14.0223 262.632C14.0185 263.049 14.1026 263.484 14.3644 263.807C16.3192 266.227 19.7473 265.887 21.6237 265.356C22.1951 265.193 22.6154 264.74 22.7607 264.186H22.7645C22.7645 264.186 23.1008 264.237 24.4881 265.491C24.1193 267.151 14.5306 270.05 12.3828 262.984C12.3828 262.984 12.9694 262.165 14.009 262.278L14.0109 262.282Z" fill="#1FC0FF"/>
<path d="M14.0196 260.586C19.8878 265.264 20.8184 258 20.8184 258C20.0426 258.128 19.2018 256.7 20.1783 255.808C20.8738 255.173 21.6114 256.006 21.6114 256.006C22.4006 255.808 22.7331 255.557 22.8019 252.904C22.8707 250.251 26.079 249.957 26.207 250.081C26.2242 250.219 28.6892 261.594 22.8133 262.754V263.769C22.8133 264.507 22.3261 265.155 21.6171 265.355C19.7407 265.887 16.3126 266.227 14.3578 263.807C14.096 263.482 14.0119 263.048 14.0157 262.632C14.0196 262.158 14.0196 261.422 14.0196 260.584V260.586Z" fill="#A5E6FF"/>
<path d="M51.2519 283.144L53.1322 282.392C53.1322 282.392 54.7259 279.709 56.3176 280.448L60.0954 278.08C60.2884 277.96 60.531 277.925 60.7393 278.017C60.9189 278.097 61.0336 278.262 60.7756 278.598C60.0055 279.607 57.6227 281.744 57.6227 281.744C57.6227 281.744 60.3457 284.508 58.3928 285.865C57.9036 286.206 56.0252 286.917 56.0252 286.917L54.2921 288.41L51.25 283.145L51.2519 283.144Z" fill="#A5E6FF"/>
<path d="M24.1172 276.646C24.3446 277.254 30.0791 292.607 30.0791 292.607C30.0791 292.607 30.0791 297.988 30.0791 297.741C30.0791 297.495 24.1172 276.646 24.1172 276.646Z" fill="#1FC0FF"/>
<path d="M310.604 264.297L307.086 262.279C307.397 253.902 307.822 243.24 308.057 240.625C308.454 236.164 311.204 234.207 311.374 234.014L314.349 242.856C314.349 242.856 312.331 255.214 310.835 264.461C310.762 264.4 310.688 264.345 310.604 264.297Z" fill="#AE7BFF"/>
<path d="M325.378 350.645C325.156 349.129 321.879 293.081 321.879 293.081L320.685 292.483L319.364 343.756C319.364 343.756 314.172 346.027 311.4 342.403C311.241 342.084 309.25 277.457 309.25 277.457C309.25 277.457 326.543 279.795 334.508 279.795L333.342 351.998C333.342 351.998 328.173 354.233 325.378 350.645Z" fill="#914BFF"/>
<path d="M334.508 279.796C334.508 279.796 318.328 285.355 309.25 277.459V239.191C309.25 239.191 309.647 226.365 327.168 234.013C327.168 234.013 335.948 238.574 335.948 240.804C335.977 243.266 334.712 274.647 334.508 279.796Z" fill="#BC92FF"/>
<path d="M327.166 234.014C327.166 234.014 339.191 237.837 339.191 247.476V267.963C339.191 271.404 336.928 274.439 333.628 275.416C326.776 277.444 321.351 278.784 318.087 279.61C318.292 278.834 319.362 276.114 315.938 274.441L329.978 266.436V250.265L327.166 234.014Z" fill="#BC92FF"/>
<path d="M329.978 250.265C329.977 250.662 329.978 266.436 329.978 266.436L315.938 274.441L328.31 265.325L329.978 250.263V250.265Z" fill="#AE7BFF"/>
<path d="M334.701 274.835L334.622 276.802L318.086 279.608C321.208 278.818 326.306 277.557 332.738 275.676C333.438 275.471 334.093 275.187 334.701 274.835Z" fill="#AE7BFF"/>
<path d="M323.313 218.901C325.877 218.445 326.405 220.893 325.386 222.862C325.13 223.357 325.044 223.934 325.17 224.477C325.216 224.676 325.403 225.226 325.522 225.427C325.522 225.427 326.225 223 327.507 223.485C328.791 223.971 327.826 226.821 326.758 226.71C326.758 226.71 326.792 229.449 327.67 230.055C327.566 232.282 327.515 235.422 327.515 235.422C321.192 238.44 318.482 235.221 318.482 235.221V232.062C314.811 229.533 316.562 220.834 316.904 219.297C318.862 220.228 320.98 219.318 323.315 218.901H323.313Z" fill="#B1E9FF"/>
<path d="M320.969 232.919C319.779 232.919 318.852 232.487 318.422 232.158L318.582 231.949C318.611 231.972 321.617 234.115 325.026 230.795L325.209 230.982C323.686 232.466 322.19 232.919 320.969 232.919Z" fill="#45464C"/>
<path d="M330.793 217.107C330.793 217.107 328.683 210.216 320.678 213.083C320.678 213.083 317.573 214.557 316.377 214.278C315.206 214.004 313.616 218.2 316.903 219.297C318.861 220.228 320.978 219.318 323.312 218.901C323.552 218.859 323.774 218.842 323.979 218.846C324.456 218.859 324.84 218.995 325.133 219.221C325.341 219.381 325.505 219.588 325.624 219.825C325.863 220.301 325.924 220.907 325.824 221.535C325.784 221.788 325.719 222.044 325.629 222.298C325.561 222.489 325.48 222.677 325.385 222.862C325.295 223.034 325.228 223.217 325.182 223.405C325.104 223.718 325.093 224.045 325.15 224.362C325.15 224.362 325.2 224.75 325.521 225.427C325.746 224.741 325.981 224.362 325.981 224.362C326.218 223.955 326.541 223.56 326.948 223.451C326.954 223.451 326.961 223.449 326.967 223.447C327.03 223.432 327.095 223.422 327.16 223.422C327.271 223.422 327.386 223.441 327.506 223.487C328.662 223.925 327.995 226.282 327.068 226.662C326.967 226.704 326.862 226.723 326.757 226.712C326.757 226.712 326.768 227.579 326.933 228.445C326.952 228.541 326.971 228.638 326.994 228.732C327.128 229.302 327.338 229.829 327.668 230.057C327.668 230.057 334.933 220.612 330.793 217.107Z" fill="#D6BCFF"/>
<path d="M310.368 264.795L298.364 257.906C297.922 257.652 297.387 258.032 297.479 258.533L300.684 275.767C300.726 275.989 300.861 276.182 301.056 276.295L312.951 283.195C313.391 283.451 313.928 283.073 313.838 282.572L310.742 265.329C310.702 265.103 310.565 264.908 310.366 264.795H310.368Z" fill="#D6BCFF"/>
<path d="M306.276 271.119C306.575 270.979 306.668 270.547 306.484 270.153C306.3 269.759 305.909 269.552 305.611 269.691C305.312 269.83 305.219 270.263 305.403 270.657C305.587 271.051 305.978 271.258 306.276 271.119Z" fill="white"/>
<path d="M313.838 282.567L310.692 265.056C310.683 265.004 310.652 264.96 310.606 264.935L298.367 257.911C298.121 257.769 297.844 257.825 297.664 257.989C297.976 257.657 298.61 257.416 298.923 257.595L310.601 264.297C311.002 264.528 311.281 264.924 311.363 265.379L314.399 282.341C314.485 282.821 313.553 283.416 313.083 283.247C313.492 283.37 313.922 283.02 313.839 282.565L313.838 282.567Z" fill="#636469"/>
<path d="M327.553 234.149C329.043 234.591 330.656 239.251 321.828 240.226C321.812 240.027 322.103 236.835 321.052 236.548C320.824 236.502 320.196 236.403 319.678 239.67C319.439 239.431 314.207 236.403 318.495 232.261V233.847C318.495 234.899 319.118 235.864 320.093 236.258C321.348 236.764 323.599 237.141 326.188 235.766C327.073 235.296 327.535 234.965 327.553 234.172C327.553 234.172 327.553 234.159 327.553 234.149Z" fill="#F8F8F8"/>
<path d="M304.452 351.641C304.503 351.219 304.721 350.835 305.023 350.536L311.648 344.265V342.707C313.836 345.179 317.266 344.45 318.697 343.997V346.341C318.697 346.801 318.424 347.216 318 347.394C317.623 347.553 317.067 347.79 316.276 348.13C315.886 348.298 315.521 348.527 315.2 348.807C313.138 350.607 311.711 351.651 309.405 352.54C307.742 353.18 304.203 353.664 304.45 351.641H304.452Z" fill="#8A40FF"/>
<path d="M319 358.721L325.625 352.45V350.939C327.824 353.39 331.242 352.683 332.674 352.237V354.525C332.674 354.986 332.4 355.401 331.976 355.579C331.6 355.737 331.044 355.974 330.253 356.314C329.863 356.483 329.498 356.712 329.177 356.991C327.115 358.792 325.688 359.835 323.381 360.724C321.719 361.365 318.18 361.848 318.426 359.826C318.478 359.403 318.696 359.019 318.998 358.721H319Z" fill="#8A40FF"/>
<path d="M309.288 275.458C310.616 276.488 313.203 275.634 313.203 275.634L312.989 274.441C313.845 274.248 314.342 275.293 314.342 275.293L315.935 274.441C319.36 276.113 318.29 278.833 318.085 279.609L314.04 280.288C308.59 280.999 308.735 277.189 309.289 275.458H309.288Z" fill="#B1E9FF"/>
<path d="M52.5625 4.98569V112.723C52.5625 114.486 53.474 116.114 54.9492 116.99L194.507 199.789C196.658 201.066 199.335 199.454 199.335 196.885V89.4017C199.335 87.6413 198.428 86.0146 196.954 85.1391L57.3951 2.08408C55.2434 0.803401 52.5625 2.41285 52.5625 4.98569Z" fill="#F4EEFF"/>
<path d="M52.5625 4.98569V9.27501L199.335 96.3556V89.4036C199.335 87.6432 198.428 86.0165 196.954 85.1411L57.3951 2.08408C55.2434 0.803401 52.5625 2.41285 52.5625 4.98569Z" fill="#D6BCFF"/>
<path d="M72.2886 18.4076C72.9709 18.1686 73.192 17.0266 72.7825 15.8569C72.373 14.6872 71.488 13.9327 70.8057 14.1717C70.1234 14.4107 69.9023 15.5527 70.3118 16.7224C70.7213 17.8921 71.6063 18.6466 72.2886 18.4076Z" fill="white"/>
<path d="M65.2027 14.227C65.8849 13.988 66.1061 12.846 65.6966 11.6763C65.2871 10.5065 64.402 9.75206 63.7197 9.99107C63.0375 10.2301 62.8163 11.3721 63.2258 12.5418C63.6353 13.7115 64.5204 14.466 65.2027 14.227Z" fill="white"/>
<path d="M58.6402 10.3334C59.3224 10.0944 59.5436 8.95241 59.1341 7.7827C58.7246 6.61299 57.8395 5.85851 57.1573 6.09751C56.475 6.33652 56.2538 7.47851 56.6633 8.64822C57.0728 9.81793 57.9579 10.5724 58.6402 10.3334Z" fill="white"/>
<path d="M199.997 83.3573L60.4376 0.302265C58.3146 -0.771979 54.0305 1.21786 53.0234 3.25357C53.8833 1.78556 55.7865 1.12802 57.3955 2.08566L196.955 85.1407C198.428 86.0181 199.336 87.6428 199.336 89.4033V196.887C199.336 198.716 197.977 200.058 196.42 200.219C198.722 200.152 202.196 198.842 202.284 195.966L202.378 87.6218C202.378 85.8613 201.47 84.2347 199.997 83.3592V83.3573Z" fill="#CDADFF"/>
<path d="M175.548 173.042L173.926 167.9C173.089 167.756 172.321 167.573 171.589 167.344L170.11 171.382L164.079 167.936V163.36C162.652 162.309 161.731 161.517 160.458 160.242L157.976 162.897L152.427 156.492L153.927 152.944L151.324 147.839L147.272 147.355L147.218 147.214C144.906 141.091 144.906 141.004 144.906 140.944C144.906 140.784 144.906 140.744 147.776 138.419C147.354 136.737 147.052 135.072 146.876 133.465L142.859 131.274L143.859 124.047H147.468C147.617 123.516 147.789 122.996 147.982 122.501L144.686 118.722L149.07 113.975L152.863 116.539C152.966 116.472 153.088 116.39 153.216 116.304C153.476 116.128 153.744 115.946 153.961 115.83L154.347 110.34L160.223 110.609L160.925 115.004C162.01 115.17 163.114 115.451 164.215 115.839L166.191 112.14L172.212 115.411L171.996 120.272C172.365 120.583 173.722 121.734 174.524 122.487L177.52 121.021L183.125 127.08L181.562 131.129L181.625 131.228C181.95 131.739 182.284 132.268 182.599 132.811C183.085 133.654 183.549 134.52 184.015 135.455L187.476 136.101L190.285 143.691L187.73 145.901C187.965 147.009 188.149 148.168 188.288 149.435L191.456 152.147V159.013L187.745 158.765C187.495 159.7 187.237 160.464 186.939 161.145L190.228 165.887L185.974 170.088L181.992 166.789C181.701 166.944 181.403 167.074 181.109 167.198V172.552L175.552 173.051L175.548 173.042ZM163.64 129.271C162.631 129.271 161.677 129.504 160.827 129.994C158.932 131.087 157.825 133.302 157.711 136.227C157.594 139.195 158.509 142.529 160.29 145.612C162.071 148.697 164.498 151.157 167.125 152.539C169.716 153.902 172.185 154.051 174.081 152.956C175.976 151.863 177.083 149.647 177.197 146.723C177.314 143.754 176.399 140.421 174.618 137.337C171.75 132.368 167.32 129.269 163.638 129.269L163.64 129.271Z" fill="#B88AFF"/>
<path d="M136.692 117.276L135.797 114.439C135.419 114.37 135.064 114.288 134.725 114.187L133.906 116.425L130.386 114.413V111.901C129.673 111.373 129.188 110.958 128.559 110.335L127.195 111.794L123.996 108.101L124.825 106.142L123.47 103.485L121.246 103.219L121.185 103.058C119.912 99.6885 119.912 99.6483 119.912 99.5814C119.912 99.4094 119.912 99.4018 121.462 98.1478C121.248 97.28 121.093 96.4218 120.998 95.5884L118.781 94.3784L119.358 90.2019H121.348C121.414 89.9744 121.489 89.7508 121.569 89.5348L119.739 87.4379L122.309 84.6548L124.405 86.0712C124.439 86.0483 124.476 86.0234 124.514 85.9967C124.632 85.9164 124.753 85.8342 124.862 85.7711L125.078 82.707L128.551 82.8657L128.937 85.2799C129.465 85.3678 130.002 85.5035 130.537 85.6851L131.626 83.6456L135.127 85.5475L135.008 88.2235C135.251 88.43 135.853 88.9422 136.266 89.3226L137.909 88.5179L141.108 91.9757L140.248 94.2045C140.426 94.4817 140.607 94.7703 140.779 95.0666C141.035 95.51 141.28 95.965 141.524 96.4524L143.426 96.806L145.025 101.126L143.619 102.344C143.735 102.911 143.829 103.504 143.901 104.146L145.638 105.633V109.609L143.575 109.471C143.456 109.903 143.33 110.268 143.191 110.599L145.01 113.224L142.503 115.699L140.299 113.873C140.194 113.927 140.089 113.973 139.984 114.019V116.982L136.696 117.276H136.692ZM130.298 93.352C129.771 93.352 129.272 93.4743 128.829 93.7304C127.839 94.302 127.26 95.468 127.199 97.0143C127.136 98.6085 127.629 100.401 128.588 102.063C129.547 103.724 130.852 105.048 132.262 105.79C133.631 106.511 134.93 106.591 135.92 106.021C136.91 105.45 137.489 104.284 137.55 102.737C137.613 101.143 137.12 99.3502 136.16 97.6891C134.62 95.0207 132.253 93.352 130.296 93.352H130.298Z" fill="#6BD5FF"/>
<path d="M157.353 104.617L156.797 102.854C156.562 102.812 156.342 102.761 156.13 102.698L155.62 104.089L153.432 102.839V101.279C152.989 100.951 152.689 100.695 152.297 100.306L151.449 101.213L149.461 98.9187L149.975 97.7011L149.133 96.0496L147.751 95.8853L147.713 95.7859C146.922 93.6928 146.922 93.668 146.922 93.6259C146.922 93.5189 146.922 93.515 147.885 92.7352C147.751 92.1961 147.656 91.6628 147.596 91.1448L146.219 90.3936L146.578 87.7978H147.814C147.856 87.6564 147.902 87.5169 147.952 87.3831L146.815 86.0794L148.412 84.3496L149.714 85.2288C149.735 85.2135 149.758 85.1983 149.781 85.183C149.853 85.1333 149.93 85.0817 149.997 85.0415L150.13 83.1377L152.29 83.2371L152.528 84.7376C152.857 84.7911 153.19 84.8752 153.522 84.988L154.198 83.7207L156.373 84.902L156.299 86.565C156.449 86.693 156.822 87.0103 157.08 87.2473L158.102 86.7465L160.09 88.895L159.555 90.2789C159.664 90.451 159.778 90.6306 159.883 90.8141C160.042 91.0894 160.195 91.3723 160.346 91.6762L161.527 91.896L162.52 94.5797L161.647 95.3367C161.72 95.6884 161.777 96.0573 161.823 96.4568L162.902 97.3819V99.8515L161.62 99.7655C161.546 100.033 161.469 100.261 161.381 100.467L162.513 102.098L160.955 103.636L159.587 102.503C159.522 102.535 159.455 102.566 159.39 102.593V104.433L157.348 104.617H157.353ZM153.381 89.7533C153.052 89.7533 152.742 89.8297 152.467 89.9884C151.852 90.3439 151.493 91.0684 151.454 92.0279C151.416 93.0181 151.722 94.1324 152.318 95.1646C152.914 96.1968 153.725 97.0188 154.602 97.4813C155.452 97.9286 156.258 97.9802 156.874 97.6247C157.489 97.2692 157.848 96.5447 157.886 95.5852C157.925 94.595 157.619 93.4806 157.023 92.4484C156.065 90.7912 154.594 89.7533 153.381 89.7533Z" fill="#AD2EFF"/>
<path d="M62.6484 104.662V106.923L89.7195 122.473L89.6488 120.248L62.6484 104.662Z" fill="#D4B8FF"/>
<path d="M62.6484 100.65V102.91L110.162 130.421L110.091 128.197L62.6484 100.65Z" fill="#D4B8FF"/>
<path d="M62.6484 94.7627V97.024L110.162 124.534L110.091 122.309L62.6484 94.7627Z" fill="#50CEFF"/>
<path d="M85.1425 52.2402V70.3705C85.1425 70.5692 85.303 70.7298 85.5018 70.7298H86.6617C86.8604 70.7298 87.0209 70.5692 87.0209 70.3705V53.4024C87.0209 52.5633 86.3406 51.8809 85.5018 51.8809C85.303 51.8809 85.1406 52.0414 85.1406 52.2402H85.1425Z" fill="#D4B8FF"/>
<path d="M74.2352 79.4276L86.0462 72.7891C86.1761 72.7164 86.1742 72.4679 86.0424 72.2328L85.2742 70.8661C85.1424 70.6329 84.9322 70.501 84.8022 70.5737L73.7498 76.7859C73.2033 77.0937 73.2091 78.1431 73.7632 79.1332C73.8951 79.3683 74.1072 79.4983 74.2352 79.4257V79.4276Z" fill="#D4B8FF"/>
<path d="M87.0842 70.421C87.7129 71.5105 87.7511 72.7491 87.1243 73.1123C86.4956 73.4755 85.4389 72.8237 84.8103 71.7342C84.1816 70.6446 84.1606 69.4175 84.7893 69.0543C85.4179 68.6911 86.4555 69.3314 87.0842 70.421Z" fill="#C6A1FF"/>
<path d="M104.403 60.2839C99.6911 52.1182 93.3643 45.5293 86.5903 41.7293C79.7379 37.8854 73.2353 37.3444 68.2785 40.2059C63.3218 43.0674 60.5396 48.9719 60.4402 56.8299C60.3427 64.5981 62.8861 73.3736 67.5983 81.5394C72.3104 89.7052 78.6373 96.294 85.4113 100.094C89.3648 102.311 93.1999 103.43 96.6911 103.43C99.2516 103.43 101.627 102.827 103.723 101.616C108.68 98.7541 111.462 92.8496 111.561 84.9915C111.659 77.2233 109.115 68.4478 104.403 60.282V60.2839ZM101.543 98.0468C99.93 98.9777 98.0955 99.4403 96.0987 99.4403C93.0107 99.4403 89.5387 98.3355 85.9119 96.1507C80.08 92.6393 74.636 86.8399 70.583 79.8172C66.5416 72.8136 64.2753 65.2289 64.2008 58.4585C64.1243 51.5524 66.3505 46.4392 70.4684 44.0613C74.5767 41.6892 80.0857 42.3353 85.9826 45.881C91.74 49.3446 97.142 55.1172 101.193 62.1381C105.248 69.1646 107.558 76.7761 107.694 83.5694C107.833 90.5329 105.649 95.6747 101.543 98.0468Z" fill="#D4B8FF"/>
</g>
<defs>
<clipPath id="clip0_2987_7883">
<rect width="387" height="390" fill="white"/>
</clipPath>
</defs>
</svg>
