<svg width="100" height="100" viewBox="0 0 100 100" fill="none" xmlns="http://www.w3.org/2000/svg">
<path d="M15.5 72C17.1813 72 18.8248 71.5307 20.2227 70.6515C21.6206 69.7724 22.71 68.5227 23.3533 67.0608C23.9965 65.5988 24.1647 63.9901 23.8364 62.4382C23.5082 60.8862 22.6983 59.4608 21.5093 58.3421C20.3202 57.2234 18.8053 56.4617 17.1563 56.1533C15.5072 55.845 13.7981 56.0039 12.2449 56.6098C10.6918 57.2158 9.36454 58.2417 8.43093 59.5577C7.49733 60.8737 6.99936 62.4207 7 64.003C7.00086 66.1243 7.89677 68.1583 9.49074 69.6579C11.0847 71.1576 13.2462 72 15.5 72Z" stroke="black" stroke-width="3" stroke-linecap="round" stroke-linejoin="round"/>
<path d="M26 79C23.6031 76.7618 20.3514 75.3613 16.8539 75.0608C13.3563 74.7603 9.85298 75.5805 7 77.3676" stroke="black" stroke-width="3" stroke-linecap="round" stroke-linejoin="round"/>
<path d="M70.5 72C72.1813 72 73.8248 71.5307 75.2227 70.6515C76.6206 69.7724 77.71 68.5227 78.3533 67.0608C78.9965 65.5988 79.1647 63.9901 78.8364 62.4382C78.5082 60.8862 77.6983 59.4608 76.5093 58.3421C75.3202 57.2234 73.8053 56.4617 72.1563 56.1533C70.5072 55.845 68.7981 56.0039 67.2449 56.6098C65.6918 57.2158 64.3645 58.2417 63.4309 59.5577C62.4973 60.8737 61.9994 62.4207 62 64.003C62.0009 66.1243 62.8968 68.1583 64.4907 69.6579C66.0847 71.1576 68.2462 72 70.5 72Z" stroke="black" stroke-width="3" stroke-linecap="round" stroke-linejoin="round"/>
<path d="M60 79C62.3969 76.7618 65.6486 75.3613 69.1461 75.0608C72.6437 74.7603 76.147 75.5805 79 77.3676" stroke="black" stroke-width="3" stroke-linecap="round" stroke-linejoin="round"/>
<path d="M62 86C61.3814 81.2932 59.1146 76.9759 55.6204 73.8495C52.1262 70.7231 47.6419 69 43 69C38.3581 69 33.8738 70.7231 30.3796 73.8495C26.8854 76.9759 24.6186 81.2932 24 86" stroke="black" stroke-width="3" stroke-linecap="round" stroke-linejoin="round"/>
<path d="M43 64C49.0751 64 54 59.0751 54 53C54 46.9249 49.0751 42 43 42C36.9249 42 32 46.9249 32 53C32 59.0751 36.9249 64 43 64Z" stroke="black" stroke-width="3" stroke-linecap="round" stroke-linejoin="round"/>
<path d="M57 32.704C47.8962 35.7653 38.1038 35.7653 29 32.704V14L36.7778 23.7603L43 14L49.2222 23.7603L57 14V32.704Z" stroke="#00CCF5" stroke-width="3" stroke-linecap="round" stroke-linejoin="round"/>
</svg>
