<svg width="100" height="100" viewBox="0 0 100 100" fill="none" xmlns="http://www.w3.org/2000/svg">
<path d="M41.9299 28.9521C41.594 28.952 41.2641 28.8638 40.9736 28.6966C40.6832 28.5293 40.4425 28.289 40.276 27.9999C40.1094 27.7108 40.023 27.3832 40.0254 27.0503C40.0279 26.7174 40.119 26.3911 40.2897 26.1044L48.3838 11.8793C48.5523 11.5968 48.7922 11.3628 49.0798 11.2002C49.3674 11.0376 49.6928 10.9521 50.0239 10.9521C50.3551 10.9521 50.6805 11.0376 50.9681 11.2002C51.2557 11.3628 51.4956 11.5968 51.6641 11.8793L59.7616 26.101C59.9322 26.3882 60.0232 26.715 60.0254 27.0482C60.0275 27.3815 59.9408 27.7094 59.774 27.9988C59.6072 28.2882 59.3662 28.5287 59.0754 28.6962C58.7846 28.8636 58.4543 28.9519 58.118 28.9521H41.9299Z" stroke="#00CCF5" stroke-width="3" stroke-linecap="round" stroke-linejoin="round"/>
<path d="M30.8791 46.6178C31.0092 46.3038 31.0537 45.9613 31.0079 45.6248C30.9622 45.2883 30.8279 44.9697 30.6186 44.7012C30.4093 44.4327 30.1324 44.2237 29.8158 44.0954C29.4992 43.967 29.1541 43.9239 28.8154 43.9702L12.6981 46.2212C12.3631 46.2671 12.046 46.3993 11.7784 46.6046C11.5108 46.8098 11.302 47.0811 11.1726 47.3914C11.0433 47.7017 10.998 48.0401 11.0413 48.3732C11.0846 48.7062 11.2149 49.0222 11.4192 49.2897L21.2017 62.1867C21.4083 62.4577 21.6832 62.6697 21.9987 62.8013C22.3142 62.933 22.6591 62.9796 22.9985 62.9366C23.338 62.8935 23.66 62.7623 23.932 62.5561C24.2041 62.3499 24.4165 62.0761 24.5478 61.7623L27.7012 54.1918L30.8791 46.6178Z" stroke="black" stroke-width="3" stroke-linecap="round" stroke-linejoin="round"/>
<path d="M27.0254 54.9521C41.4403 59.4536 50.0254 68.1103 50.0254 84.4507V88.9521" stroke="black" stroke-width="3" stroke-linecap="round" stroke-linejoin="round"/>
<path d="M69.1717 46.6178C69.0416 46.3038 68.9971 45.9613 69.0429 45.6248C69.0886 45.2883 69.2229 44.9697 69.4322 44.7012C69.6415 44.4327 69.9184 44.2237 70.235 44.0954C70.5516 43.967 70.8966 43.9239 71.2354 43.9702L87.3527 46.2212C87.6877 46.2671 88.0048 46.3993 88.2724 46.6046C88.54 46.8098 88.7488 47.0811 88.8781 47.3914C89.0075 47.7017 89.0527 48.0401 89.0095 48.3732C88.9662 48.7062 88.8359 49.0222 88.6316 49.2897L78.8491 62.1867C78.6425 62.4577 78.3676 62.6697 78.0521 62.8013C77.7366 62.933 77.3917 62.9796 77.0522 62.9366C76.7128 62.8935 76.3908 62.7623 76.1187 62.5561C75.8467 62.3499 75.6343 62.0761 75.503 61.7623L72.3496 54.1918L69.1717 46.6178Z" stroke="black" stroke-width="3" stroke-linecap="round" stroke-linejoin="round"/>
<path d="M50.0254 28.9521V84.9521" stroke="#00CCF5" stroke-width="3" stroke-linecap="round" stroke-linejoin="round"/>
<path d="M73.0254 54.9521C58.6104 59.4536 50.0254 68.1103 50.0254 84.4507V88.9521" stroke="black" stroke-width="3" stroke-linecap="round" stroke-linejoin="round"/>
</svg>
