<svg width="100" height="100" viewBox="0 0 100 100" fill="none" xmlns="http://www.w3.org/2000/svg">
<path d="M40 40.625C40 45.7636 42.0413 50.6917 45.6748 54.3252C49.3083 57.9587 54.2364 60 59.375 60C64.5136 60 69.4417 57.9587 73.0752 54.3252C76.7087 50.6917 78.75 45.7636 78.75 40.625C78.75 35.4864 76.7087 30.5583 73.0752 26.9248C69.4417 23.2913 64.5136 21.25 59.375 21.25C54.2364 21.25 49.3083 23.2913 45.6748 26.9248C42.0413 30.5583 40 35.4864 40 40.625Z" stroke="black" stroke-width="3" stroke-linecap="round" stroke-linejoin="round"/>
<path d="M35 55C35.0001 55.7192 35.2144 56.4219 35.6153 57.0174C36.0162 57.6129 36.5853 58.0739 37.2492 58.341L42.756 60.5576C43.5272 60.8697 44.1664 61.442 44.564 62.1763C44.9615 62.9106 45.0927 63.7611 44.9349 64.5821C44.7772 65.403 44.3404 66.1431 43.6994 66.6755C43.0584 67.2079 42.2533 67.4994 41.422 67.5H36.0005" stroke="#20D3F6" stroke-width="3" stroke-linecap="round" stroke-linejoin="round"/>
<path d="M40 71.25V67.5" stroke="#20D3F6" stroke-width="3" stroke-linecap="round" stroke-linejoin="round"/>
<path d="M33.0739 41.25C30.1415 42.5109 27.5625 44.471 25.5624 46.9587C23.5624 49.4465 22.202 52.3863 21.6003 55.5212C20.9987 58.656 21.174 61.8906 22.1109 64.9421C23.0478 67.9936 24.7179 70.7691 26.9751 73.0262C29.2323 75.2832 32.008 76.953 35.0595 77.8897C38.1111 78.8263 41.3455 79.0013 44.4803 78.3993C47.6151 77.7973 50.5546 76.4366 53.0422 74.4362C55.5297 72.4358 57.4894 69.8566 58.75 66.924" stroke="#20D3F6" stroke-width="3" stroke-linecap="round" stroke-linejoin="round"/>
<path d="M62.881 32.5H58.1324C57.4046 32.5005 56.6997 32.7721 56.1386 33.2681C55.5775 33.7641 55.1951 34.4536 55.057 35.2183C54.9189 35.9831 55.0337 36.7755 55.3817 37.4596C55.7298 38.1436 56.2894 38.6767 56.9645 38.9675L61.7855 41.0325C62.4606 41.3233 63.0202 41.8564 63.3683 42.5404C63.7163 43.2245 63.8311 44.0169 63.693 44.7817C63.5549 45.5464 63.1725 46.2359 62.6114 46.7319C62.0503 47.2279 61.3454 47.4995 60.6176 47.5H55.8737" stroke="black" stroke-width="3" stroke-linecap="round" stroke-linejoin="round"/>
<path d="M60 32.5V28.75" stroke="black" stroke-width="3" stroke-linecap="round" stroke-linejoin="round"/>
<path d="M60 52.5V47.5" stroke="black" stroke-width="3" stroke-linecap="round" stroke-linejoin="round"/>
</svg>
