<svg width="353" height="372" viewBox="0 0 353 372" fill="none" xmlns="http://www.w3.org/2000/svg">
<path d="M112.184 372L110.488 371.96L112.91 319.398L114.606 319.439L112.184 372Z" fill="#CA65FF"/>
<path d="M120.581 320.266C113.355 320.266 89.8203 319.983 89.8203 316.375C89.8203 312.766 113.375 312.483 120.581 312.483C127.787 312.483 151.342 312.766 151.342 316.375C151.342 319.983 127.787 320.266 120.581 320.266ZM91.9396 316.375C94.4425 317.362 104.736 318.552 120.581 318.552C136.425 318.552 146.719 317.362 149.222 316.375C146.719 315.366 136.425 314.177 120.581 314.177C104.736 314.177 94.4425 315.366 91.9396 316.375Z" fill="#CA65FF"/>
<path d="M91.536 288.995C90.0828 292.604 89.2754 296.515 89.2754 300.648C89.2754 317.927 103.303 331.919 120.581 331.919C137.859 331.919 151.887 317.907 151.887 300.648C151.887 296.536 151.079 292.604 149.626 288.995H91.4956H91.536Z" fill="#F4DEFF"/>
<path d="M149.646 288.995C149.646 291.536 136.627 293.592 120.581 293.592C104.534 293.592 91.5156 291.536 91.5156 288.995C91.5156 286.455 104.534 284.398 120.581 284.398C136.627 284.398 149.646 286.455 149.646 288.995Z" fill="#CD6EFF"/>
<path d="M146.8 288.995C146.8 290.87 135.073 292.402 120.601 292.402C106.129 292.402 94.4023 290.89 94.4023 288.995C94.4023 287.1 106.129 285.588 120.601 285.588C135.073 285.588 146.8 287.1 146.8 288.995Z" fill="#9931F4"/>
<path opacity="0.42" d="M146.8 299.56C146.719 297.222 143.086 297.202 143.146 299.56C143.308 305.125 142.602 310.669 138.565 314.843C136.93 316.536 139.513 319.117 141.148 317.424C145.831 312.565 146.981 306.093 146.8 299.56Z" fill="white"/>
<path d="M120.581 320.266C113.355 320.266 89.8203 319.984 89.8203 316.375H91.5158C91.5158 316.214 91.4552 316.113 91.4149 316.093C92.4442 317.141 103.142 318.573 120.581 318.573C138.02 318.573 148.718 317.141 149.747 316.093C149.727 316.113 149.646 316.234 149.646 316.375H151.342C151.342 319.984 127.787 320.266 120.581 320.266Z" fill="#CA65FF"/>
<path d="M85.4403 371.96L83.7246 371.859L90.2441 316.818L91.9395 316.939L85.4403 371.96Z" fill="#CA65FF"/>
<path d="M154.249 371.98L148.799 317.161L150.494 317.04L155.944 371.839L154.249 371.98Z" fill="#CA65FF"/>
<path d="M125.691 319.399L123.996 319.434L125.071 371.984L126.766 371.949L125.691 319.399Z" fill="#CA65FF"/>
<path d="M146.78 288.995C146.78 290.387 140.483 291.556 131.42 292.08C130.895 292.1 130.35 292.141 129.785 292.161C129.018 292.201 128.251 292.241 127.464 292.262C126.959 292.302 126.414 292.302 125.869 292.322C124.679 292.362 123.467 292.362 122.236 292.362C121.691 292.362 121.146 292.362 120.601 292.362C118.179 292.362 115.818 292.322 113.597 292.241C113.032 292.241 112.487 292.201 111.942 292.181C101.729 291.717 94.4023 290.467 94.4023 288.975C94.4023 287.624 100.518 286.435 109.359 285.891C109.944 285.85 110.509 285.83 111.095 285.79C113.739 285.649 116.585 285.568 119.552 285.548H121.207C123.003 285.548 124.759 285.588 126.475 285.628C127.02 285.628 127.524 285.669 128.069 285.689C128.958 285.729 129.825 285.77 130.673 285.81C131.218 285.81 131.763 285.87 132.288 285.891C140.886 286.475 146.78 287.624 146.78 288.955V288.995Z" fill="#F4DEFF"/>
<path d="M138.564 259.438C135.657 265.043 141.148 270.487 146.395 272.1C149.726 273.128 153.298 273.39 156.77 272.926C155.276 270.991 153.843 269.015 152.491 266.999C151.078 264.902 149.484 262.987 148.03 260.93C147.041 259.539 145.951 257.745 146.355 255.95C146.577 254.902 147.425 253.41 148.636 253.33C151.361 253.148 152.733 258.43 153.379 260.346C155.014 265.124 157.799 268.652 161.473 271.818C163.37 271.172 165.187 270.305 166.862 269.217C171.868 265.91 175.461 260.467 176.389 254.539C176.571 253.39 176.732 251.838 176.833 250.063C174.007 251.454 171.121 252.483 167.891 252.906C166.277 253.108 163.35 253.39 162.038 252.221C160.504 250.85 162.644 249.176 164.016 248.975C165.651 248.733 167.326 249.116 168.941 249.257C171.464 249.499 174.229 249.055 176.55 248.067C176.672 248.007 176.813 248.027 176.914 248.067C177.035 241.979 176.268 233.753 172.938 226.616C169.91 230.043 166.297 232.785 162.644 235.608C161.049 236.837 159.233 238.47 157.194 238.833C156.407 238.975 154.711 238.975 154.388 237.966C153.783 236.051 158.506 233.853 159.777 233.208C163.834 231.152 170.677 229.297 171.343 223.954C171.343 223.874 171.383 223.813 171.424 223.753C169.506 220.567 166.983 217.724 163.673 215.547C161.735 214.277 159.798 213.329 157.9 212.644C157.638 214.559 157.497 219.458 155.398 219.317C153.803 219.216 153.056 216.414 153.258 215.204C153.46 213.894 154.267 212.785 155.276 211.877C151.785 211.071 148.414 211.172 145.164 211.938C143.832 213.853 142.621 215.849 141.874 218.067C141.006 220.648 141.006 222.926 140.946 225.567C140.946 226.656 141.067 229.055 139.896 229.72C139.19 230.124 138.241 229.741 137.777 229.156C136.102 226.999 137.898 222.301 138.584 220.103C139.25 217.946 139.977 215.486 141.026 213.309C135.859 215.507 131.217 219.297 127.342 223.652C127.725 225.063 128.088 226.454 128.694 227.825C129.501 229.66 130.571 231.374 131.5 233.148C131.58 233.188 131.641 233.269 131.681 233.37C131.722 233.47 131.762 233.591 131.782 233.692C131.822 233.753 131.822 233.833 131.822 233.894C132.085 235.164 131.742 236.716 130.046 236.112C128.452 235.547 127.12 232.926 126.292 231.555C125.646 230.507 124.819 228.974 124.253 227.402C119.833 233.349 116.886 239.7 116.018 244.176C115.251 248.047 115.635 252.463 117.895 255.668C119.551 255.003 121.145 253.995 122.154 252.704C122.962 251.656 123.406 250.325 124.435 249.438C125.586 248.45 127.342 248.833 127.362 250.507C127.382 252.543 125.323 254.7 124.011 256.051C123.204 256.878 122.154 257.866 121.004 258.531C126.03 261.475 132.953 260.648 138.584 259.398L138.564 259.438ZM165.833 241.313C165.954 240.204 167.024 239.075 168.134 238.894C169.103 238.712 169.486 239.64 169.486 240.466C169.486 240.809 169.425 241.152 169.365 241.495C169.425 241.595 169.466 241.716 169.425 241.858C169.264 242.503 168.901 243.229 168.356 243.571C168.295 243.652 168.214 243.733 168.134 243.793C167.912 243.995 167.629 243.914 167.488 243.733C167.407 243.733 167.326 243.733 167.246 243.692C166.277 243.39 165.752 242.261 165.853 241.313H165.833ZM132.933 242.422C133.659 241.817 134.79 241.837 135.617 242.18C135.617 242.18 135.637 242.18 135.657 242.2C135.779 242.241 135.879 242.321 135.94 242.483C136.202 243.41 136.001 244.519 135.254 245.204C134.547 245.829 133.578 245.749 132.993 245.023C132.388 244.277 132.125 243.128 132.933 242.442V242.422Z" fill="#03FFFF"/>
<path d="M76.499 228.551C73.6531 229.62 70.7062 230.345 67.6988 230.708C67.6988 230.769 67.7391 230.829 67.7593 230.87C68.0822 231.817 68.4657 232.745 68.9098 233.652C72.6035 234.116 76.1357 233.35 79.567 231.555C82.4332 230.063 85.5011 229.196 88.7508 229.438C89.0939 229.458 89.2756 229.781 89.1343 230.104C87.8425 232.926 83.5836 233.632 80.879 234.096C77.1651 234.741 73.4109 235.003 69.6566 235.104C71.6548 238.713 74.4806 241.858 77.8514 244.237C78.2954 244.559 78.7596 244.842 79.2441 245.124C83.6442 245.346 88.0847 243.43 91.8793 241.334C92.9894 240.729 95.9767 238.854 96.3602 241.172C96.7841 243.854 93.8776 245.164 91.7784 245.588C89.8407 245.971 87.8627 246.092 85.925 246.394C84.936 246.555 83.9671 246.737 82.9781 246.918C92.7271 250.547 108.551 250.406 108.43 234.902C108.43 234.821 123.185 243.571 122.922 226.656C122.277 226.979 121.631 227.261 120.944 227.543C119.289 228.229 116.06 229.761 114.344 228.511C112.205 226.958 114.667 223.934 116.12 222.987C118.139 221.636 120.177 220.849 121.933 219.075C123.649 217.341 125.123 215.406 126.495 213.41C126.798 210.567 126.717 207.704 125.99 204.942C124.356 198.692 119.289 194.579 113.941 191.414C113.86 191.373 113.779 191.313 113.698 191.273C114.324 193.067 114.667 194.922 114.808 196.898C115.031 200.164 115.475 203.511 114.728 206.757C114.223 208.934 111.902 214.761 108.935 214.257C105.403 213.652 109.762 208.107 110.529 206.918C113.981 201.474 114.344 195.708 111.68 190.164C104.595 186.393 96.885 184.176 89.0132 182.623C91.3747 185.809 93.3528 189.216 94.5436 193.047C95.3106 195.466 97.1474 202.765 93.2317 203.813C89.538 204.801 90.5068 196.696 90.3655 195.144C89.9215 189.7 87.237 185.325 83.4625 181.615C79.9909 181.051 76.5192 180.567 73.0677 180.083C72.8457 180.043 72.5833 180.143 72.5228 180.385C71.7154 183.853 70.9282 187.321 70.1814 190.789C70.3832 191.454 70.6053 192.119 70.8677 192.744C71.3117 193.813 72.3815 194.7 72.664 195.809C72.8457 196.535 72.5026 197.644 71.5741 197.482C70.5649 197.321 69.8585 195.708 69.4951 194.942C69.4548 194.861 69.4144 194.781 69.374 194.7C68.4859 199.075 67.7189 203.47 67.174 207.906C67.1134 208.39 67.0529 208.894 66.9923 209.398C68.8694 211.797 71.7961 213.632 74.5613 214.499C77.3266 215.365 80.4349 215.164 82.7763 217.099C82.9781 217.261 82.9176 217.563 82.7763 217.724C80.6166 220.245 76.4788 218.329 74.0567 217.2C71.1704 215.849 68.8492 213.974 66.7299 211.817C66.084 217.805 65.8216 224.075 67.4969 229.841C70.5245 229.499 73.4714 228.773 76.3376 227.684C76.8623 227.483 77.1045 228.329 76.5798 228.531L76.499 228.551ZM81.0808 198.309C80.2533 198.591 79.2642 198.269 78.5982 197.724C76.8825 196.313 78.3156 193.893 80.3744 194.196C81.2423 194.337 81.7469 194.902 81.8882 195.607C81.9891 195.648 82.0698 195.748 82.09 195.889C82.2313 196.837 82.1102 197.946 81.0808 198.309ZM100.619 235.547C101.043 234.842 102.032 234.7 102.597 235.305C102.96 235.688 103.182 236.313 103.182 236.898C103.425 237.039 103.546 237.342 103.263 237.543C102.597 238.067 101.77 237.946 101.144 237.442C100.599 236.999 100.215 236.212 100.619 235.567V235.547ZM100.579 200.769C101.85 200.023 103.404 200.426 103.606 201.998C103.727 202.986 103.465 204.196 102.92 205.184C102.92 205.244 102.92 205.305 102.92 205.386C102.779 206.293 102.274 207.825 101.043 207.24C100.014 206.736 99.5089 205.224 99.3474 204.176C99.1456 202.926 99.3676 201.474 100.558 200.769H100.579ZM88.1453 218.007C88.8315 217.341 89.8205 217.503 90.3857 218.228C90.6279 218.128 91.0114 218.228 91.072 218.612C91.1931 219.579 90.8297 220.567 89.8811 220.97C89.1746 221.273 88.2462 221.212 87.7214 220.587C87.0553 219.821 87.4994 218.611 88.1654 218.007H88.1453Z" fill="#03FFFF"/>
<path d="M150.574 293.653C149.726 295.407 149.101 297.221 148.717 299.116C148.677 299.116 148.636 299.096 148.596 299.076C147.991 298.834 147.385 298.532 146.8 298.209C146.679 295.85 147.365 293.673 148.697 291.576C149.827 289.842 150.554 287.947 150.534 285.89C150.534 285.669 150.332 285.548 150.11 285.608C148.192 286.274 147.506 288.935 147.062 290.608C146.457 292.927 146.093 295.286 145.851 297.645C143.55 296.213 141.612 294.257 140.199 292.02C140.018 291.717 139.836 291.415 139.675 291.092C139.735 288.29 141.229 285.588 142.783 283.31C143.247 282.644 144.62 280.85 143.106 280.487C141.35 280.084 140.341 281.858 139.957 283.169C139.614 284.358 139.453 285.608 139.13 286.818C138.968 287.423 138.807 288.048 138.645 288.653C136.708 282.322 137.576 272.322 147.829 273.169C147.89 273.169 142.783 263.41 153.985 264.439C153.743 264.822 153.521 265.225 153.299 265.628C152.774 266.636 151.604 268.592 152.35 269.741C153.279 271.173 155.398 269.741 156.105 268.894C157.094 267.685 157.719 266.435 158.971 265.426C160.202 264.418 161.554 263.592 162.947 262.826C164.844 262.785 166.742 262.967 168.538 263.572C172.615 264.922 175.078 268.33 176.935 271.858C176.955 271.919 176.995 271.979 177.015 272.019C175.845 271.535 174.634 271.233 173.342 271.031C171.182 270.729 168.982 270.285 166.802 270.588C165.329 270.789 161.352 271.959 161.554 273.874C161.796 276.132 165.672 273.652 166.499 273.229C170.274 271.314 174.109 271.374 177.661 273.35C179.821 278.007 180.911 283.007 181.557 288.048C179.559 286.394 177.399 284.983 174.916 284.036C173.342 283.431 168.599 281.898 167.71 284.318C166.883 286.596 172.292 286.394 173.322 286.556C176.914 287.12 179.68 289.036 181.96 291.616C182.162 293.834 182.324 296.072 182.465 298.27C182.465 298.411 182.404 298.572 182.243 298.592C179.902 298.915 177.58 299.258 175.239 299.54C174.815 299.379 174.391 299.197 173.968 298.995C173.281 298.653 172.736 297.947 172.03 297.705C171.566 297.544 170.819 297.705 170.859 298.31C170.92 298.955 171.949 299.479 172.454 299.762C172.514 299.782 172.555 299.822 172.615 299.842C169.668 300.185 166.721 300.447 163.754 300.568C163.431 300.568 163.088 300.588 162.765 300.608C161.272 299.298 160.182 297.362 159.758 295.568C159.314 293.774 159.596 291.818 158.426 290.245C158.325 290.124 158.123 290.124 158.002 290.205C156.226 291.435 157.295 294.157 157.921 295.749C158.668 297.645 159.798 299.197 161.13 300.649C157.114 300.749 152.956 300.588 149.222 299.258C149.605 297.362 150.231 295.528 151.079 293.794C151.24 293.471 150.675 293.29 150.534 293.592L150.574 293.653ZM170.859 292.282C170.617 292.786 170.799 293.431 171.122 293.874C171.969 295.024 173.645 294.237 173.544 292.927C173.503 292.382 173.14 292.02 172.676 291.899C172.656 291.838 172.595 291.778 172.494 291.757C171.868 291.616 171.142 291.636 170.839 292.282H170.859ZM147.102 278.048C147.587 277.806 147.728 277.201 147.365 276.818C147.123 276.556 146.719 276.394 146.335 276.374C146.255 276.213 146.053 276.132 145.912 276.294C145.528 276.697 145.568 277.221 145.871 277.644C146.134 278.007 146.638 278.29 147.082 278.068L147.102 278.048ZM170.173 279.822C170.718 279.056 170.536 278.048 169.507 277.846C168.861 277.705 168.054 277.846 167.367 278.108C167.327 278.108 167.287 278.108 167.246 278.108C166.641 278.148 165.591 278.39 165.934 279.197C166.217 279.882 167.206 280.265 167.872 280.427C168.699 280.608 169.668 280.548 170.193 279.842L170.173 279.822ZM158.143 286.798C158.607 286.394 158.567 285.769 158.103 285.366C158.184 285.225 158.103 284.963 157.881 284.923C157.235 284.802 156.569 284.983 156.246 285.548C156.004 285.971 156.004 286.576 156.387 286.939C156.872 287.382 157.679 287.181 158.123 286.798H158.143Z" fill="#03FFFF"/>
<path d="M65.3772 263.068C65.7001 263.35 66.0433 263.612 66.4066 263.874C68.1021 264.338 69.8177 264.56 71.5939 264.439C73.6931 264.298 75.6509 263.632 77.7097 263.31C79.2437 263.068 83.8053 263.249 82.7153 266.253C82.0695 268.048 79.1831 268.39 77.2051 268.572C78.2143 268.955 79.2235 269.378 80.1722 269.882C82.675 271.173 84.3906 273.048 86.1466 275.144C87.7008 275.769 89.3155 276.273 90.9303 276.253C92.3835 276.233 93.1909 275.528 94.4625 275.044C95.4919 274.661 96.9653 274.741 96.4002 276.354C95.835 278.028 93.4533 278.148 92.0404 278.189C90.9505 278.229 89.8605 278.189 88.7706 278.068C90.0018 279.197 91.3945 280.044 93.09 280.286C97.7727 280.951 101.386 277.019 101.184 272.201C106.008 275.931 112.225 274.6 116.181 270.487C118.017 268.592 118.865 266.495 118.663 263.874C116.06 266.656 111.417 270.427 109.358 267.181C108.369 265.608 110.408 264.378 111.437 263.773C113.637 262.523 116.019 261.939 118.058 260.507C117.432 257.624 116.604 254.761 115.575 252.019C114.526 249.217 113.173 246.535 111.498 244.116C111.336 248.209 110.872 252.382 109.782 256.253C109.439 257.503 108.45 260.447 106.815 258.894C104.413 256.636 106.876 252.564 107.764 250.406C108.995 247.402 109.116 244.035 108.692 240.688C107.744 239.721 106.734 238.834 105.604 238.047C102.274 235.709 98.4791 234.338 94.6038 233.551C95.0478 234.68 95.4313 235.83 95.7947 236.918C96.6828 239.499 97.9544 242.947 97.4296 245.688C97.147 247.18 95.1891 248.713 94.1396 246.858C93.4735 245.688 93.9983 244.035 93.8973 242.785C93.5946 239.398 91.8587 236.031 90.3449 233.088C90.3046 233.027 90.3046 232.967 90.2844 232.906C89.699 232.846 89.1339 232.785 88.5687 232.745C85.4806 232.503 82.1906 232.503 78.9409 232.866C80.7171 234.156 82.1906 236.213 82.0291 238.511C81.8878 240.487 80.5355 242.987 78.3959 242.402C75.3683 241.596 74.8435 236.717 75.328 233.45C73.1884 233.914 71.1499 234.559 69.2525 235.467C66.5681 236.757 64.6506 238.854 63.3991 241.394C65.8818 244.539 69.0507 246.636 72.2802 248.773C73.0673 249.297 75.6307 251.031 74.1573 252.12C72.8251 253.108 70.181 250.668 69.1718 249.842C66.6286 247.785 64.913 244.963 62.9753 242.322C62.2688 244.055 61.845 245.951 61.6633 247.967C61.4615 250.326 61.4009 253.148 61.845 255.85C65.3368 255.709 68.9094 252.685 72.1792 255.426C72.4214 255.628 72.3407 255.991 72.1389 256.152C70.403 257.584 67.436 257.241 65.3368 257.402C64.2872 257.483 63.2579 257.564 62.2083 257.624C62.7734 259.761 63.7423 261.697 65.3368 263.088L65.3772 263.068ZM97.1066 257.382C96.9048 256.293 97.1874 254.983 97.914 254.217C98.2369 253.894 98.6608 253.652 99.125 253.793C99.7306 253.975 100.053 254.66 100.255 255.245C100.276 255.326 100.296 255.386 100.276 255.447C100.619 256.172 100.76 256.999 100.659 257.826C100.558 258.672 100.114 259.781 99.1856 259.802C98.1158 259.842 97.2681 258.35 97.1066 257.382ZM85.2585 249.297C84.2897 248.612 83.886 247.261 84.4108 246.193C84.8952 245.205 85.8641 245.104 86.6916 245.668C86.7724 245.668 86.8733 245.688 86.954 245.769C87.7816 246.495 88.1651 247.705 87.6403 248.713C87.1558 249.62 86.1265 249.922 85.2585 249.297ZM92.4037 267.08C92.6459 267.281 92.5854 267.564 92.4037 267.725C92.7267 268.552 92.6863 269.519 92.101 270.185C91.334 271.011 90.022 270.608 89.4367 269.64C88.266 267.705 90.8092 265.709 92.3835 267.06L92.4037 267.08Z" fill="#03FFFF"/>
<path d="M113.596 292.262C113.031 292.262 112.486 292.221 111.941 292.201C111.356 290.528 110.75 288.855 110.004 287.221C109.802 286.778 109.6 286.354 109.378 285.911C105.381 277.665 99.5079 270.528 92.3021 264.822C91.4948 264.177 92.6453 263.028 93.4526 263.673C100.779 269.479 106.774 276.778 110.851 285.205C110.952 285.407 111.033 285.609 111.114 285.81C112.103 287.887 112.91 290.044 113.596 292.242V292.262Z" fill="#03FFFF"/>
<path d="M122.235 292.383C121.69 292.383 121.145 292.383 120.6 292.383C120.297 290.125 119.954 287.846 119.551 285.588C118.885 281.677 118.097 277.765 117.229 273.915C115.393 265.749 113.233 257.644 111.053 249.56C108.914 241.656 106.633 233.773 101.748 227.059C101.123 226.213 102.535 225.406 103.141 226.253C107.844 232.684 110.185 240.184 112.264 247.805C114.727 256.838 117.129 265.89 119.127 275.024C119.894 278.532 120.6 282.06 121.206 285.608C121.589 287.866 121.932 290.125 122.235 292.383Z" fill="#03FFFF"/>
<path d="M141.612 255.164C139.473 259.499 137.737 263.955 136.324 268.491C136.102 269.136 135.92 269.802 135.739 270.447C134.265 275.507 133.135 280.689 132.308 285.931C131.964 287.967 131.682 290.044 131.44 292.08C130.915 292.1 130.37 292.14 129.805 292.161C130.067 290.044 130.35 287.947 130.693 285.85C131.44 281.173 132.388 276.535 133.64 271.979C133.882 271.132 134.104 270.285 134.366 269.439C135.9 264.297 137.818 259.237 140.24 254.317C140.684 253.37 142.097 254.197 141.633 255.144L141.612 255.164Z" fill="#03FFFF"/>
<path d="M156.669 280.064C152.471 277.282 148.293 274.439 144.054 271.697C141.693 270.185 139.351 269.036 136.526 270.084C136.243 270.185 135.981 270.326 135.739 270.467C134.951 270.85 134.265 271.395 133.619 272C132.792 272.786 132.085 273.734 131.5 274.681C129.562 277.887 128.593 281.738 128.069 285.75C127.766 287.907 127.604 290.125 127.483 292.282C126.979 292.322 126.434 292.322 125.889 292.343C126.03 290.165 126.191 287.907 126.474 285.689C127.18 280.185 128.634 274.883 132.166 271.254C132.832 270.568 133.559 269.963 134.346 269.479C134.992 269.076 135.638 268.754 136.324 268.512C138.019 267.927 139.856 267.867 141.713 268.592C144.155 269.54 146.436 271.435 148.616 272.887C151.563 274.842 154.49 276.778 157.436 278.754C158.284 279.298 157.497 280.649 156.669 280.084V280.064Z" fill="#03FFFF"/>
<path d="M97.3891 45.5449C97.3891 45.5449 8.9423 49.2546 12.636 81.634V148.248C12.636 148.248 14.0287 118.651 97.3891 114.013V45.5449Z" fill="#F4DEFF"/>
<path d="M18.4482 90.6063L15.582 89.1748C16.0866 88.1667 28.621 64.6181 90.5862 61.9971L90.7275 65.2028C30.6192 67.7431 18.5693 90.3845 18.4482 90.6264V90.6063Z" fill="#C351FF"/>
<path d="M67.8796 79.1336L67.3145 75.9682C74.4394 74.7182 82.2507 73.9117 90.5666 73.5488L90.7078 76.7545C82.5333 77.0973 74.8431 77.9037 67.8796 79.1336Z" fill="#C351FF"/>
<path d="M21.7587 105.022L18.7109 104.014C18.9531 103.248 25.19 85.2635 61.3196 77.1787L62.026 80.3038C27.8745 87.945 21.8193 104.84 21.7587 105.002V105.022Z" fill="#C351FF"/>
<path d="M59.3009 94.7189L58.5137 91.614C67.8791 89.2551 78.6574 87.7833 90.5862 87.2793L90.7275 90.485C79.0207 90.989 68.4644 92.4003 59.321 94.7189H59.3009Z" fill="#C351FF"/>
<path d="M22.5667 118.933L19.4785 118.025C19.64 117.481 23.5759 104.779 45.5968 95.7871L46.8078 98.7509C26.1998 107.158 22.6071 118.791 22.5667 118.912V118.933Z" fill="#C351FF"/>
<path d="M69.2123 104.377L68.6875 101.211C75.4088 100.082 82.776 99.3363 90.5873 99.0137L90.7286 102.219C83.0586 102.542 75.8327 103.268 69.2325 104.377H69.2123Z" fill="#C351FF"/>
<path d="M22.5667 130.646L19.4785 129.739C19.7005 128.973 25.3925 110.807 61.2798 102.662L61.9863 105.787C28.1375 113.489 22.6071 130.485 22.5667 130.646Z" fill="#C351FF"/>
<path d="M12.5352 77.9245C12.5352 77.9245 15.6637 91.3319 31.4073 95.2634V165.345C31.4073 165.345 18.9133 161.877 12.5352 148.228V77.9043V77.9245Z" fill="#DC99FF"/>
<path d="M0.0606608 208.611C0.0606608 208.611 -3.02751 191.333 34.1718 184.72V249.075L4.80393 251.212L0.0606608 208.611Z" fill="#F4DEFF"/>
<path d="M30.4584 193.752V197.099C25.7353 198.49 11.2835 203.429 3.8557 213.752L1.25195 211.877C9.89076 199.861 26.583 194.8 30.4584 193.752Z" fill="#C351FF"/>
<path d="M30.4584 202.341V205.688C25.7353 207.079 11.2835 212.039 3.8557 222.341L1.25195 220.466C9.89076 208.45 26.583 203.389 30.4584 202.341Z" fill="#C351FF"/>
<path d="M30.4584 210.93V214.276C25.7353 215.668 11.2835 220.607 3.8557 230.93L1.25195 229.055C9.89076 217.039 26.583 211.978 30.4584 210.93Z" fill="#C351FF"/>
<path d="M0.0605469 208.611C0.0605469 208.611 10.0113 230.386 93.6341 230.849V298.532C93.6341 298.532 13.8059 296.636 0.0605469 273.693V208.631V208.611Z" fill="#DC99FF"/>
<path d="M325.087 220.043C325.087 220.043 327.913 204.196 293.781 198.107V242.402L320.747 244.358L325.087 220.043Z" fill="#F4DEFF"/>
<path d="M324.138 223.229L321.716 224.963C314.409 214.801 299.776 210.265 296.385 209.338V206.253C297.515 206.535 315.358 210.991 324.158 223.229H324.138Z" fill="#C351FF"/>
<path d="M324.138 231.193L321.716 232.927C314.409 222.785 299.776 218.249 296.385 217.302V214.217C297.515 214.499 315.358 218.955 324.158 231.193H324.138Z" fill="#C351FF"/>
<path d="M324.138 239.157L321.716 240.891C314.429 230.769 299.796 226.213 296.385 225.265V222.181C297.515 222.463 315.358 226.919 324.158 239.157H324.138Z" fill="#C351FF"/>
<path d="M325.086 220.043C325.086 220.043 315.963 240.023 239.223 240.446V287.786C239.223 287.786 312.491 286.052 325.086 264.983V220.043Z" fill="#DC99FF"/>
<path d="M123.426 4.39561C123.426 4.39561 187.753 -5.48353 248.527 4.39561V80.1827C248.527 80.1827 203.537 65.8277 123.426 80.1827V4.39561Z" fill="#F4DEFF"/>
<path d="M171.626 40.1826C171.868 45.1625 170.152 49.598 167.125 52.965C163.855 56.5941 159.071 58.9328 153.621 59.2352C148.172 59.5376 143.146 57.7029 139.533 54.3965C136.182 51.3521 134.043 47.0577 133.78 42.0173C133.276 31.5131 141.309 21.8558 151.764 21.4525C162.22 21.009 171.101 29.8397 171.605 40.1826H171.626Z" fill="#03FFFF"/>
<path d="M159.374 33.7913C159.495 37.4607 156.609 40.4648 152.915 40.5857C149.221 40.7067 146.113 37.9244 145.992 34.2147C145.871 30.5251 148.757 27.3396 152.451 27.2388C156.145 27.138 159.253 30.1219 159.374 33.7913Z" fill="#CD6EFF"/>
<path d="M167.144 52.965C163.875 56.5941 159.091 58.9328 153.641 59.2352C148.192 59.5377 143.166 57.703 139.553 54.3965C140.582 48.0859 146.133 42.8843 153.016 42.6625C159.757 42.4205 165.55 46.9972 167.144 52.965Z" fill="#CD6EFF"/>
<path d="M182.403 23.126C182.403 23.993 182.403 24.8398 182.383 25.7067C193.101 25.0616 203.839 24.8801 214.576 25.1422C214.597 24.2954 214.617 23.4486 214.637 22.5817C203.879 22.2994 193.141 22.4607 182.403 23.1059V23.126Z" fill="#C351FF"/>
<path d="M182.324 30.9084C182.324 31.7754 182.303 32.6222 182.283 33.4891C201.64 32.2593 221.097 32.5415 240.454 34.3359C240.474 33.4891 240.494 32.6625 240.514 31.8157C221.138 30.0012 201.68 29.6987 182.303 30.9084H182.324Z" fill="#C351FF"/>
<path d="M182.222 38.6709C182.222 39.5378 182.202 40.3846 182.182 41.2515C200.166 40.062 218.21 40.1628 236.194 41.5741C236.215 40.7273 236.235 39.8806 236.255 39.0539C218.251 37.6225 200.186 37.5015 182.202 38.6709H182.222Z" fill="#C351FF"/>
<path d="M217.947 25.263C221.257 25.384 224.568 25.5453 227.898 25.7469C227.918 24.9001 227.938 24.0533 227.959 23.2065C224.648 23.0049 221.338 22.8436 218.008 22.7227C217.988 23.5694 217.967 24.4162 217.947 25.263Z" fill="#C351FF"/>
<path d="M182.142 45.9491C182.142 46.8161 182.122 47.6629 182.102 48.5298C192.819 47.7838 203.557 47.5217 214.295 47.7032C214.315 46.8564 214.336 46.0096 214.356 45.1427C203.598 44.9411 192.86 45.2032 182.122 45.9491H182.142Z" fill="#C351FF"/>
<path d="M182.04 53.7112C182.04 54.5782 182.04 55.4249 182 56.2919C201.357 54.9007 220.814 55.0217 240.171 56.6548C240.191 55.808 240.211 54.9814 240.231 54.1346C220.854 52.4814 201.397 52.3402 182.02 53.7314L182.04 53.7112Z" fill="#C351FF"/>
<path d="M217.666 47.764C220.976 47.8446 224.286 47.9858 227.617 48.1672C227.637 47.3204 227.657 46.4736 227.677 45.6269C224.367 45.4454 221.057 45.3043 217.727 45.2236C217.706 46.0704 217.686 46.9172 217.666 47.764Z" fill="#C351FF"/>
<path d="M267.238 70.1016C267.238 70.1016 356.654 73.8314 352.9 106.574V173.913C352.9 173.913 351.487 143.993 267.238 139.316V70.1217V70.1016Z" fill="#F4DEFF"/>
<path d="M314.267 115.707C314.509 120.707 312.793 124.92 309.766 127.864C306.496 131.029 301.712 132.723 296.283 132.259C290.833 131.796 285.807 129.255 282.194 125.425C278.844 121.916 276.704 117.299 276.462 112.239C275.957 101.674 283.991 93.1661 294.446 94.2145C304.901 95.2427 313.782 105.283 314.287 115.707H314.267Z" fill="#03FFFF"/>
<path d="M302.016 107.602C302.137 111.291 299.251 113.892 295.557 113.489C291.863 113.106 288.755 109.86 288.634 106.15C288.493 102.441 291.399 99.6583 295.093 100.082C298.786 100.485 301.895 103.912 302.016 107.602Z" fill="#CD6EFF"/>
<path d="M309.765 127.864C306.495 131.029 301.711 132.723 296.282 132.259C290.832 131.795 285.806 129.255 282.193 125.424C283.223 119.255 288.773 114.859 295.656 115.585C302.398 116.291 308.19 121.674 309.785 127.843L309.765 127.864Z" fill="#CD6EFF"/>
<path d="M347.814 113.227L345.392 114.961C338.085 104.799 323.451 100.263 320.061 99.3357V96.251C321.191 96.5332 339.034 100.989 347.834 113.207L347.814 113.227Z" fill="#C351FF"/>
<path d="M347.814 123.267L345.392 125.001C338.085 114.86 323.451 110.323 320.061 109.376V106.291C321.191 106.573 339.034 111.029 347.834 123.267H347.814Z" fill="#C351FF"/>
<path d="M347.814 133.308L345.392 135.042C338.105 124.921 323.472 120.364 320.061 119.417V116.332C321.191 116.614 339.034 121.07 347.834 133.308H347.814Z" fill="#C351FF"/>
<path d="M347.814 143.348L345.392 145.082C338.085 134.921 323.451 130.384 320.061 129.457V126.372C321.191 126.654 339.034 131.11 347.834 143.348H347.814Z" fill="#C351FF"/>
<path d="M347.814 153.409L345.392 155.142C338.105 145.021 323.472 140.465 320.061 139.517V136.433C321.191 136.715 339.034 141.171 347.834 153.409H347.814Z" fill="#C351FF"/>
<path d="M353 102.823C353 102.823 349.851 116.392 333.926 120.364V191.211C333.926 191.211 346.561 187.703 353 173.913V102.843V102.823Z" fill="#DC99FF"/>
<path d="M210.258 364.541C204.647 362.646 207.21 353.694 206.585 348.634L198.43 351.658C198.43 351.658 197.744 360.731 196.513 366.638C195.281 372.545 197.058 371.981 197.058 371.981L222.671 371.719C222.671 371.719 215.869 366.416 210.258 364.541Z" fill="#E7C7FF"/>
<path d="M210.259 364.541C208.543 364.017 208.16 362.888 207.13 361.275C206.484 360.126 204.486 362.122 203.497 364.36C203.497 364.36 199.097 366.154 196.735 365.448C196.675 365.851 196.634 366.255 196.554 366.658C195.322 372.565 197.099 372.001 197.099 372.001L222.712 371.739C221.4 366.92 215.708 366.214 210.299 364.561L210.259 364.541Z" fill="#03FFFF"/>
<path d="M196.088 370.449C196.189 372.263 197.037 371.981 197.037 371.981L222.65 371.719C222.65 371.719 222.549 371.074 222.024 370.187L196.088 370.449Z" fill="#03FFFF"/>
<path d="M206.806 294.44C206.867 293.714 206.867 292.948 206.806 292.161C205.514 275.548 206.988 217.362 204.142 204.277C201.679 192.967 194.978 185.406 192.718 183.491C189.004 180.346 178.669 180.648 174.471 189.237C170.293 197.826 168.739 203.027 169.909 218.491C171.08 233.955 183.897 286.819 183.937 298.432C183.937 298.593 183.958 298.754 183.978 298.916C182.181 311.416 194.877 358.069 194.877 358.069C199.822 360.307 208.421 357.767 208.421 357.767C207.27 335.368 209.269 305.609 206.826 294.44H206.806Z" fill="#A129FF"/>
<path d="M184.2 297.706C184.806 295.568 185.593 293.754 186.481 292.222C186.481 292.887 195.867 337.061 196.957 358.694C196.493 358.614 196.028 358.493 195.605 358.331C195.342 358.251 195.1 358.15 194.858 358.049C194.858 358.049 190.538 341.718 187.006 325.024C184.645 313.351 182.969 302.02 184.2 297.685V297.706Z" fill="#A129FF"/>
<path d="M128.431 363.977C134.022 362.041 135.395 353.493 135.96 348.412L144.135 351.356C144.135 351.356 140.905 360.025 142.197 365.932C143.489 371.84 141.713 371.275 141.713 371.275H116.604C116.604 371.275 122.861 365.912 128.452 363.977H128.431Z" fill="#E7C7FF"/>
<path d="M116.078 371.98H141.53C141.53 371.98 142.459 372.283 142.842 370.368C143.044 369.38 143.165 369.4 142.842 366.839C142.782 366.355 142.721 365.851 142.701 365.327C140.279 365.549 136.666 363.734 136.666 363.734C135.616 360.912 131.923 359.621 130.994 361.093C129.48 363.674 126.291 364.279 124.091 365.025C119.267 366.658 118.097 368.513 116.926 370.388C116.32 371.335 116.078 372.001 116.078 372.001V371.98Z" fill="#03FFFF"/>
<path d="M116.078 371.981H141.53C141.53 371.981 142.459 372.284 142.842 370.368H116.926C116.32 371.316 116.078 371.981 116.078 371.981Z" fill="#03FFFF"/>
<path d="M169.565 207.563C169.828 199.821 171.463 195.406 174.47 189.216C176.812 184.418 181.07 182.2 185.006 181.737C185.249 181.696 185.511 181.676 185.753 181.656C185.975 181.656 186.197 181.636 186.399 181.636C187.045 181.636 187.671 181.656 188.276 181.737C189.083 181.837 189.83 182.019 190.517 182.261C190.86 182.382 191.183 182.523 191.485 182.684C191.647 182.765 191.788 182.845 191.929 182.926C192.212 183.087 192.474 183.269 192.696 183.47C192.838 183.591 192.999 183.733 193.181 183.914C193.282 183.995 193.383 184.095 193.484 184.196C193.524 184.237 193.564 184.277 193.585 184.297C193.665 184.378 193.746 184.458 193.827 184.539C193.867 184.579 193.907 184.62 193.948 184.66C194.029 184.741 194.109 184.841 194.21 184.942C194.251 184.983 194.291 185.023 194.331 185.063C194.594 185.345 194.856 185.648 195.139 185.991C195.179 186.031 195.219 186.091 195.26 186.132C195.361 186.253 195.462 186.374 195.583 186.515C195.623 186.575 195.684 186.636 195.724 186.696C195.825 186.837 195.946 186.958 196.047 187.1C196.087 187.16 196.128 187.22 196.188 187.261C196.491 187.664 196.814 188.087 197.137 188.531C197.177 188.591 197.218 188.652 197.258 188.712C197.379 188.874 197.5 189.055 197.621 189.216C197.682 189.297 197.722 189.378 197.783 189.438C197.904 189.62 198.025 189.781 198.126 189.962C198.166 190.043 198.227 190.104 198.267 190.184C198.59 190.688 198.913 191.212 199.236 191.777C199.276 191.858 199.337 191.938 199.377 192.019C199.498 192.221 199.62 192.422 199.721 192.624C199.781 192.725 199.821 192.825 199.882 192.906C200.003 193.108 200.104 193.329 200.225 193.531C200.265 193.632 200.326 193.712 200.366 193.793C200.528 194.096 200.669 194.398 200.831 194.721C200.992 195.043 201.133 195.366 201.275 195.688C201.315 195.789 201.355 195.89 201.416 195.971C201.517 196.213 201.618 196.434 201.719 196.676C201.759 196.797 201.82 196.898 201.86 197.019C201.961 197.261 202.062 197.503 202.163 197.745C202.203 197.846 202.244 197.967 202.284 198.067C202.425 198.41 202.546 198.773 202.667 199.136C202.789 199.499 202.91 199.862 203.031 200.225C203.071 200.346 203.111 200.467 203.132 200.567C203.212 200.83 203.293 201.092 203.374 201.354C203.414 201.495 203.455 201.616 203.495 201.757C203.576 202.019 203.636 202.301 203.717 202.563C203.757 202.684 203.778 202.805 203.818 202.946C203.919 203.33 204 203.733 204.1 204.136C204.141 204.358 204.201 204.58 204.242 204.821C204.242 204.902 204.262 204.983 204.282 205.084C204.302 205.265 204.343 205.426 204.363 205.628C204.363 205.729 204.403 205.85 204.403 205.951C204.423 206.132 204.464 206.313 204.484 206.495C204.484 206.616 204.504 206.717 204.524 206.838C204.545 207.039 204.585 207.241 204.605 207.442C204.605 207.563 204.625 207.664 204.645 207.785C204.666 208.027 204.706 208.289 204.726 208.531C204.726 208.632 204.726 208.713 204.746 208.793C204.827 209.519 204.888 210.285 204.948 211.092C204.948 211.172 204.948 211.253 204.948 211.334C204.968 211.656 205.009 211.999 205.029 212.322C205.029 212.422 205.029 212.543 205.049 212.644C205.069 212.967 205.089 213.309 205.11 213.632C205.11 213.733 205.11 213.854 205.11 213.955C205.13 214.318 205.15 214.68 205.17 215.043C205.17 215.144 205.17 215.225 205.17 215.326C205.19 215.769 205.231 216.233 205.251 216.697C205.332 218.209 205.392 219.801 205.453 221.455C205.453 221.495 205.453 221.535 205.453 221.576C205.453 222.08 205.493 222.604 205.513 223.128C205.513 223.168 205.513 223.209 205.513 223.249C205.513 223.793 205.554 224.358 205.574 224.923C195.32 232.241 177.639 232.1 178.204 237.322C178.467 239.681 185.935 289.863 186.823 291.818C186.924 292.04 185.45 299.218 183.856 299.157C183.815 298.855 183.795 298.552 183.795 298.23C183.775 286.818 171.342 235.467 169.848 219.076C169.848 219.076 169.848 219.056 169.848 219.035C169.828 218.773 169.808 218.531 169.787 218.289C169.606 215.87 169.485 213.713 169.444 211.737C169.404 210.164 169.404 208.713 169.444 207.362L169.565 207.563Z" fill="#A129FF"/>
<path d="M180.788 188.873C178.104 180.325 167.81 180.204 163.551 183.41C160.947 185.365 152.914 193.067 148.494 204.458C143.407 217.503 141.106 264.096 138.381 283.249C132.73 293.249 135.455 332.806 131.963 359.722C131.963 359.722 140.501 361.637 145.668 359.399C145.668 359.399 158.606 312.746 159.635 298.572C159.635 298.512 159.676 298.471 159.676 298.411C161.734 286.778 176.368 233.713 180.223 218.168C184.098 202.623 183.453 197.442 180.768 188.893L180.788 188.873Z" fill="#A129FF"/>
<path d="M172.351 227.503C166.962 226.616 158.525 225.204 156.588 225.789C152.531 227.019 149.342 230.608 149.321 235.003C149.281 240.084 141.328 288.874 141.349 289.096C140.541 288.411 139.31 287.383 138.119 286.092C138.119 285.346 138.2 284.58 138.321 283.794C141.086 264.983 143.387 217.644 148.514 204.478C152.531 194.156 159.514 186.857 162.703 184.115C163.026 183.833 163.329 183.591 163.571 183.41C167.83 180.184 178.124 180.325 180.809 188.873C183.493 197.422 184.139 202.603 180.264 218.148C180.082 218.894 179.214 221.495 178.386 223.894C177.539 226.414 174.996 227.926 172.372 227.503H172.351Z" fill="#A129FF"/>
<path d="M139.693 281.596C140.642 280.83 141.651 280.165 142.681 279.641C141.712 283.612 137.836 300.064 138.099 311.818C138.381 324.903 135.899 356.053 134.829 360.206C133.113 359.984 131.963 359.742 131.963 359.742C135.677 330.952 132.306 287.645 139.693 281.616V281.596Z" fill="#A129FF"/>
<path d="M168.173 84.8601C169.202 92.6425 159.635 95.7474 159.635 95.7474C158.868 89.9812 152.349 86.715 150.229 79.6786C148.029 72.4003 152.429 64.6583 162.663 64.9607C168.96 65.1422 167.144 77.0778 168.173 84.8601Z" fill="#C351FF"/>
<path d="M178.446 125.304C181.151 133.974 211.265 169.337 205.654 164.962C204.988 164.458 219.319 165.164 218.592 156.555C217.825 147.321 198.569 119.962 194.957 116.393C188.437 109.941 175.055 114.457 178.446 125.304Z" fill="#DCB0FF"/>
<path d="M189.547 109.659C194.068 113.046 210.216 132.421 216.11 148.651C216.11 148.692 216.11 148.752 216.13 148.792C215.484 148.933 214.636 149.054 214.031 149.317C209.832 151.171 206.784 155.688 205.594 160.002C205.069 161.877 204.887 163.833 205.049 165.708C194.573 157.603 176.266 124.719 174.954 120.526C171.563 109.679 182.2 104.135 189.527 109.639L189.547 109.659Z" fill="#C351FF"/>
<path d="M159.857 106.917C154.387 107.623 144.396 110.103 141.429 115.304C138.462 120.526 140.622 170.305 144.416 202.866C144.416 202.866 189.71 221.979 205.776 201.454C205.776 201.454 194.574 117.562 188.155 109.78C182.807 103.288 165.347 106.211 159.857 106.917Z" fill="#CD6EFF"/>
<path d="M158.727 107.058C158.727 107.058 177.841 133.611 180.061 135.788C180.061 135.788 179.355 113.006 178.951 106.171L158.727 107.058Z" fill="url(#paint0_linear_2119_10726)"/>
<path d="M162.24 95.828C162.018 94.8199 161.836 94.1747 161.836 94.1747C161.836 94.1747 172.695 85.5255 174.128 94.2957L162.24 95.828Z" fill="url(#paint1_linear_2119_10726)"/>
<path d="M173.864 112.603L177.154 106.333C177.154 106.333 173.743 104.034 174.207 98.0464C175.317 83.4091 161.814 94.1552 161.814 94.1552C161.814 94.1552 164.276 106.333 159.836 106.917L173.844 112.603H173.864Z" fill="#E7C7FF"/>
<path d="M173.783 109.74C166.174 110.728 166.557 101.212 166.194 99.4174C165.851 97.744 161.814 94.1553 161.814 94.1553C161.814 94.1553 164.276 106.333 159.836 106.918L173.844 112.603L175.781 108.893C175.257 109.317 174.591 109.619 173.763 109.72L173.783 109.74Z" fill="#DCB0FF"/>
<path d="M155.295 115.728C155.295 115.728 167.607 138.752 171.826 142.482C175.237 145.506 193.161 157.281 199.862 161.676C200.185 163.692 200.508 165.688 200.81 167.644C196.854 167.059 186.52 165.507 182.241 164.357C182.241 164.357 176.65 170.043 169.525 169.942C162.38 169.841 156.304 163.369 152.853 159.236C152.853 159.236 149.321 159.418 146.475 157.261C144.638 155.89 142.297 154.982 140.621 154.7C140.218 146.031 139.996 137.986 140.036 131.393C140.319 127.926 140.561 125.446 140.581 125.365C140.682 125.063 155.295 115.688 155.295 115.688V115.728Z" fill="#C351FF"/>
<path d="M140.461 150.97L148.353 153.772V158.369C148.353 158.369 146.395 209.741 195.967 208.551C176.207 216.273 144.417 202.865 144.417 202.865C142.6 187.26 141.167 167.684 140.481 150.97H140.461Z" fill="#C351FF"/>
<path d="M177.962 73.167L181.717 90.0825C182.383 95.1229 177.094 99.9818 171.786 100.687C166.457 101.393 161.613 97.8648 160.947 92.8245L160.887 92.4011C160.887 92.4011 155.316 92.7438 154.589 87.1389C153.842 81.534 157.839 83.3486 157.839 83.3486L157.516 80.9493C157.152 78.1872 159.09 75.667 161.855 75.3041L177.982 73.1872L177.962 73.167Z" fill="#E7C7FF"/>
<path d="M157.819 83.3286L157.475 80.7076C157.132 78.0664 158.989 75.6471 161.633 75.3043L164.358 74.9414C164.358 74.9414 164.358 75.0422 164.358 75.1027L166.901 94.4779C167.345 97.865 170.979 100.063 174.248 99.5183C175.258 99.357 177.256 98.4699 178.023 97.8852C175.782 99.6796 173.724 100.405 171.786 100.667C166.457 101.373 161.613 97.8449 160.947 92.8045L160.887 92.3811C160.887 92.3811 155.316 92.7239 154.589 87.119C153.842 81.5141 157.839 83.3286 157.839 83.3286H157.819Z" fill="#DCB0FF"/>
<path d="M175.52 104.438C175.944 108.349 173.865 112.603 173.865 112.603C173.865 112.603 176.106 111.252 178.508 113.792C179.517 114.881 180.486 114.901 180.486 114.901C180.486 114.901 180.465 111.776 178.931 105.909L175.52 104.438Z" fill="#F4DEFF"/>
<path d="M165.044 153.853C165.165 143.107 175.56 113.107 173.501 106.816C172.108 102.542 170.958 102.623 171.16 98.9937C171.301 96.3122 175.419 103.893 175.782 102.804C177.76 96.6952 181.736 91.7154 184.522 89.3766C186.56 87.6629 187.065 89.0339 185.854 90.4653C180.566 96.7557 187.59 98.3888 187.226 101.796C186.722 106.534 184.421 107.078 183.29 110.082C180.687 116.998 181.797 148.611 180.626 159.357C179.637 168.511 164.943 161.111 165.024 153.853H165.044Z" fill="#E7C7FF"/>
<path d="M215.121 148.934C203.011 146.495 158.747 149.68 152.671 145.85C146.576 142.019 141.772 157.705 150.613 156.999C159.473 156.293 193.302 165.043 206.018 165.326C224.708 165.749 218.209 149.579 215.121 148.954V148.934Z" fill="#E7C7FF"/>
<path d="M139.229 152.986C145.425 153.168 147.888 158.934 153.116 156.837C158.343 154.74 160.725 154.922 160.604 150.627C160.483 146.333 157.011 146.575 149.987 146.353C143.124 146.152 130.025 152.704 139.229 152.986Z" fill="#DCB0FF"/>
<path d="M175.904 162.422C168.758 157.624 164.076 145.003 167.305 139.398C167.002 138.894 166.7 138.41 166.357 137.926C160.301 129.035 156.507 117.281 155.296 115.748C150.714 109.942 135.031 109.579 137.695 125.345C140.117 139.68 156.608 163.632 166.296 167.503C169.929 168.955 177.478 166.535 179.295 163.672C178.891 163.269 177.155 163.309 175.904 162.463V162.422Z" fill="#CD6EFF"/>
<path d="M162.178 104.115C164.641 107.906 173.865 112.603 173.865 112.603C173.865 112.603 171.039 111.998 168.334 115.668C167.184 117.22 165.387 117.765 165.387 117.765C165.387 117.765 159.534 113.289 158.727 107.059L162.178 104.115Z" fill="#F4DEFF"/>
<path d="M163.773 73.308C163.773 73.308 168.012 77.5621 174.874 75.9694C181.737 74.3766 182.807 77.9452 182.807 77.9452C182.807 77.9452 184.421 64.8604 174.955 61.5136C165.489 58.1667 160.766 64.9813 160.766 64.9813L163.773 73.2879V73.308Z" fill="#C351FF"/>
<path d="M203.959 147.301C203.959 147.301 208.48 156.717 203.959 166.636C203.959 166.636 213.284 167.624 217.321 162.705C221.358 157.805 218.895 150.829 216.836 148.773C214.778 146.716 206.522 146.555 203.959 147.301Z" fill="#CD6EFF"/>
<path d="M284.113 336.133L260.821 336.073C257.834 336.073 255.412 333.472 255.432 330.287V316.859C255.452 313.19 258.258 310.186 261.709 310.186L283.306 310.226C284.981 310.226 286.535 310.932 287.726 312.202C288.897 313.472 289.543 315.145 289.543 316.94V330.367C289.523 331.899 288.958 333.351 287.928 334.44C286.899 335.529 285.546 336.133 284.113 336.133ZM258.984 313.956C258.258 314.742 257.854 315.77 257.854 316.859V330.287C257.834 332.061 259.166 333.492 260.821 333.492L284.113 333.553C284.921 333.553 285.668 333.21 286.233 332.605C286.798 332 287.121 331.194 287.121 330.347V316.919C287.141 314.661 285.425 312.807 283.306 312.807L261.709 312.766C260.68 312.766 259.731 313.19 259.004 313.956H258.984Z" fill="#F4DEFF"/>
<path d="M234.983 371.86L302.56 372.001C305.083 372.001 307.122 369.824 307.142 367.122L307.243 324.259C307.243 321.557 305.204 319.379 302.681 319.379L235.105 319.238C232.582 319.238 230.543 321.416 230.523 324.117L230.422 366.981C230.422 369.682 232.46 371.86 234.983 371.88V371.86Z" fill="#F4DEFF"/>
<path d="M232.986 348.493L304.66 348.634C307.203 348.634 309.262 346.436 309.262 343.735L309.302 324.299C309.302 321.577 307.243 319.379 304.72 319.379L233.047 319.238C230.503 319.238 228.445 321.436 228.445 324.138L228.404 343.573C228.404 346.295 230.463 348.493 232.986 348.493Z" fill="#F4DEFF"/>
<path d="M238.577 371.859L306.154 372C308.677 372 310.715 369.823 310.735 367.141L310.836 324.278C310.836 321.576 308.798 319.399 306.275 319.399L238.698 319.258C236.175 319.258 234.117 321.435 234.117 324.137L234.016 367C234.016 369.702 236.054 371.879 238.577 371.9V371.859Z" fill="#A129FF"/>
<path d="M236.6 348.493L308.274 348.634C310.817 348.634 312.876 346.436 312.876 343.735L312.916 324.299C312.916 321.577 310.878 319.379 308.334 319.379L236.64 319.238C234.097 319.238 232.038 321.436 232.038 324.138L231.998 343.573C231.998 346.295 234.037 348.493 236.58 348.493H236.6Z" fill="#F4DEFF"/>
<path d="M236.599 345.549L308.273 345.69C310.816 345.69 312.875 343.714 312.875 341.274L312.915 323.794C312.915 321.355 310.857 319.379 308.334 319.359L236.64 319.218C234.096 319.218 232.038 321.194 232.038 323.633V341.113C231.997 343.553 234.056 345.529 236.599 345.549Z" fill="#A129FF"/>
<path d="M288.451 348.613C288.451 346.234 290.268 344.299 292.488 344.299C294.708 344.299 296.545 346.234 296.545 348.613C296.545 350.992 294.728 352.948 292.488 352.948C290.248 352.948 288.451 351.013 288.451 348.613Z" fill="#F4DEFF"/>
<path d="M248.549 348.613C248.549 346.234 250.365 344.299 252.586 344.299C254.806 344.299 256.622 346.234 256.622 348.613C256.622 350.992 254.806 352.948 252.586 352.948C250.365 352.948 248.549 351.013 248.549 348.613Z" fill="#F4DEFF"/>
<defs>
<linearGradient id="paint0_linear_2119_10726" x1="158.727" y1="120.969" x2="180.061" y2="120.969" gradientUnits="userSpaceOnUse">
<stop stop-color="white"/>
<stop offset="1" stop-color="#F6E4FF"/>
</linearGradient>
<linearGradient id="paint1_linear_2119_10726" x1="197.205" y1="89.4119" x2="130.346" y2="98.0457" gradientUnits="userSpaceOnUse">
<stop stop-color="#93FEFF"/>
<stop offset="1" stop-color="#B658FF"/>
</linearGradient>
</defs>
</svg>
