<svg width="24" height="25" viewBox="0 0 24 25" fill="none" xmlns="http://www.w3.org/2000/svg">
<g clip-path="url(#clip0_1759_14495)">
<path fill-rule="evenodd" clip-rule="evenodd" d="M21.68 19.1555C22.4061 18.745 23 17.7375 23 16.9166V7.46333C23 6.64239 22.4061 5.63488 21.68 5.22441L13.32 0.497793C12.5939 0.0873241 11.4061 0.0873241 10.68 0.497793L2.31997 5.22441C1.59394 5.63488 1 6.64239 1 7.46333V16.9166C1 17.7375 1.59394 18.745 2.31997 19.1555L10.68 23.8821C11.4061 24.2926 12.5939 24.2926 13.32 23.8821L21.68 19.1555Z" fill="url(#paint0_linear_1759_14495)"/>
<path d="M14.5516 4.23205C17.8013 5.3777 19.994 8.58027 20 12.1897C20.0031 15.8036 17.8131 19.0152 14.5607 20.1664C14.4313 20.2123 14.2888 20.1902 14.1775 20.107C14.0661 20.0238 13.9993 19.8894 13.9977 19.7456V19.583C14.0071 19.2119 14.2195 18.8801 14.5426 18.7318C17.0637 17.6543 18.7131 15.0746 18.7131 12.2088C18.7131 9.34302 17.0637 6.76331 14.5426 5.68585C14.213 5.53894 13.9961 5.20188 13.9886 4.82505V4.68158C13.9886 4.43331 14.1797 4.23205 14.4154 4.23205H14.5516ZM9.47559 4.21292C9.59293 4.16922 9.72314 4.18857 9.82442 4.26477C9.92569 4.34096 9.9853 4.46442 9.98412 4.5955V4.81549C9.98351 5.1769 9.77534 5.50201 9.45743 5.63803C6.93032 6.71241 5.27565 9.29534 5.27565 12.1658C5.27565 15.0362 6.93032 17.6191 9.45743 18.6935C9.77677 18.8329 9.98472 19.1615 9.98412 19.5256V19.7265C9.98412 19.9642 9.80116 20.1569 9.57548 20.1569H9.44835C6.19558 19.0101 4.00213 15.8026 4 12.1897C4.00213 8.56561 6.20888 5.35085 9.47559 4.21292ZM12.0045 6.63751C12.3581 6.63751 12.6447 6.9394 12.6447 7.31181V7.97175C13.6818 8.0506 14.5535 8.82217 14.8059 9.88464C14.8514 10.0982 14.7263 10.3109 14.5244 10.3629H14.0976C13.8173 10.3613 13.5629 10.1901 13.4438 9.9229C13.1497 9.38734 12.5842 9.08391 12 9.14818C11.0919 9.14818 10.5471 9.74117 10.5471 10.2768C10.5471 10.8124 10.9739 11.128 11.8819 11.3671L12.79 11.5775C14.3609 11.9314 15.0238 12.6296 15.0238 13.8443C15.0042 15.2022 13.9612 16.2966 12.672 16.3119V17.1249C12.672 17.4973 12.3853 17.7992 12.0318 17.7992C11.6782 17.7992 11.3916 17.4973 11.3916 17.1249V16.3215C10.2639 16.3034 9.28996 15.4859 9.02156 14.3321C9.00564 14.2446 9.02352 14.1539 9.07125 14.0803C9.11898 14.0067 9.19261 13.9562 9.27582 13.94H9.81157C10.0489 13.9418 10.2643 14.0868 10.3655 14.313C10.7071 14.9089 11.3419 15.2469 12 15.1833C12.9081 15.1833 13.6073 14.6095 13.6073 14.026C13.6073 13.4426 13.2077 13.0983 12.2361 12.8592L11.2372 12.6105C9.81158 12.2949 9.13961 11.5393 9.13961 10.382C9.18977 9.10712 10.1544 8.08277 11.3644 8.01957V7.31181C11.3644 6.9394 11.651 6.63751 12.0045 6.63751Z" fill="white"/>
</g>
<defs>
<linearGradient id="paint0_linear_1759_14495" x1="1101" y1="221.341" x2="1169.18" y2="2335.68" gradientUnits="userSpaceOnUse">
<stop stop-color="#2D95FF"/>
<stop offset="1" stop-color="#2775C9"/>
</linearGradient>
<clipPath id="clip0_1759_14495">
<rect width="24" height="24" fill="white" transform="translate(0 0.189941)"/>
</clipPath>
</defs>
</svg>
