<svg width="24" height="25" viewBox="0 0 24 25" fill="none" xmlns="http://www.w3.org/2000/svg">
<rect x="0.25" y="0.189941" width="23" height="24" rx="11.5" fill="#1AC998"/>
<path d="M9.36596 17.1399V6.77989H11.97C15.232 6.77989 15.358 9.11789 15.358 9.53789C15.358 10.7559 14.588 11.3299 14.224 11.6239C15.26 12.0439 15.946 12.9819 15.946 14.1719C15.946 15.1659 15.484 16.0759 14.756 16.5659C13.874 17.0839 13.188 17.1539 11.97 17.1399H9.36596ZM10.402 12.1839V16.2019H11.858C12.726 16.2019 13.258 16.1599 13.818 15.9359C14.462 15.6699 14.91 14.9559 14.91 14.1719C14.91 13.3739 14.378 12.6879 13.692 12.4219C13.202 12.2259 12.782 12.1839 11.676 12.1839H10.402ZM10.402 7.71789V11.2459H11.704C12.516 11.2459 12.978 11.2039 13.482 10.9519C13.972 10.6999 14.322 10.1119 14.322 9.49589C14.322 9.01989 14.154 8.68389 13.888 8.36189C13.482 7.89989 12.852 7.71789 11.788 7.71789H10.402Z" fill="white"/>
</svg>
