<svg width="80" height="80" viewBox="0 0 80 80" fill="none" xmlns="http://www.w3.org/2000/svg">
<path d="M11.3333 42.9997C12.6666 43.9997 18.3333 48.333 20.3333 49.6663C26.6666 54.9997 33.9999 60.333 35.3333 61.333C36.6666 62.333 38.3333 62.9997 40.3333 62.9997C41.6666 62.9997 43.3333 62.6663 43.6666 61.333C45.6666 62.6663 48.3333 62.333 49.6666 60.333C50.3333 59.6663 50.3333 58.6663 50.3333 57.9997C52.3333 59.9997 57.3333 57.9997 56.9999 54.6663C58.9999 56.6663 63.9999 53.333 61.9999 49.6663C59.3333 45.333 46.9999 36.333 41.9999 31.333C40.3333 32.333 38.6666 32.9997 36.9999 32.9997C34.9999 35.6663 31.6666 36.9997 28.6666 35.9997C24.9999 33.6663 28.3333 28.9997 31.3332 25.9997C36.6666 20.333 41.6666 17.9997 48.3333 21.333C52.6666 23.333 56.9999 24.9997 61.3333 26.333" stroke="#B8B2FF" stroke-width="3" stroke-linecap="round" stroke-linejoin="round"/>
<path d="M33.9999 23C29.9999 23 21.6666 24 18.3333 24" stroke="#B8B2FF" stroke-width="3" stroke-linecap="round" stroke-linejoin="round"/>
<path d="M61.9999 49.9997L68.6665 46.333" stroke="#B8B2FF" stroke-width="3" stroke-linecap="round" stroke-linejoin="round"/>
<path d="M56.6666 54.666C55 53.3327 46.6666 44.666 46.6666 44.666" stroke="#B8B2FF" stroke-width="3" stroke-linecap="round" stroke-linejoin="round"/>
<path d="M50 57.9993C48 56.3327 42.6666 50.666 41.6666 49.666" stroke="#B8B2FF" stroke-width="3" stroke-linecap="round" stroke-linejoin="round"/>
<path d="M43.3332 61.3333C40.9999 59.3333 36.6665 55 34.9999 53" stroke="#B8B2FF" stroke-width="3" stroke-linecap="round" stroke-linejoin="round"/>
<path d="M1.66663 13L15.3333 18C18 19 19.3333 21.6667 18.3333 24.3333L11.3333 43C10.6666 45 8.66663 46.3333 6.66663 46.3333H1.66663V13Z" stroke="#B8B2FF" stroke-width="3" stroke-linecap="round" stroke-linejoin="round"/>
<path d="M78.3333 16.333L64.6666 21.333C61.9999 22.333 60.6666 24.9997 61.6666 27.6663L68.6666 46.333C69.3333 48.333 71.3333 49.6663 73.3333 49.6663H78.3333V16.333Z" stroke="#B8B2FF" stroke-width="3" stroke-linecap="round" stroke-linejoin="round"/>
</svg>
