<svg width="311" height="311" viewBox="0 0 311 311" fill="none" xmlns="http://www.w3.org/2000/svg">
<path d="M144.971 269.006C208.548 269.006 260.089 217.467 260.089 153.889C260.089 90.3114 208.548 38.7715 144.971 38.7715C81.3935 38.7715 29.8535 90.3114 29.8535 153.889C29.8535 217.467 81.3935 269.006 144.971 269.006Z" fill="url(#paint0_linear_1108_540)"/>
<path d="M142.162 269.598C141.816 269.598 141.467 269.579 141.125 269.567L141.165 268.323L142.201 268.352L142.162 269.598ZM148.413 269.577L148.376 268.333C148.72 268.323 149.064 268.312 149.412 268.298L149.462 269.542L148.413 269.577ZM134.88 269.196L133.844 269.1L133.964 267.856C134.307 267.889 134.652 267.921 135 267.95L134.88 269.196ZM155.694 269.129L155.578 267.885L156.605 267.786L156.731 269.03L155.694 269.129ZM127.638 268.337C127.294 268.285 126.952 268.234 126.601 268.178L126.798 266.95L127.816 267.108L127.638 268.337ZM162.932 268.227L162.74 266.998C163.08 266.946 163.42 266.89 163.758 266.834L163.965 268.062L162.932 268.227ZM120.473 267.025C120.133 266.952 119.795 266.878 119.455 266.801L119.728 265.588L120.734 265.81L120.473 267.025ZM170.108 266.874L169.839 265.659C170.175 265.584 170.51 265.509 170.844 265.43L171.124 266.643C170.781 266.722 170.44 266.799 170.1 266.874H170.108ZM113.396 265.265L112.387 264.976L112.735 263.782L113.724 264.066L113.396 265.265ZM177.176 265.072L176.832 263.878L177.823 263.587L178.178 264.779L177.176 265.072ZM106.438 263.069C106.113 262.953 105.785 262.837 105.46 262.716L105.874 261.547C106.198 261.667 106.521 261.783 106.845 261.895L106.438 263.069ZM184.112 262.841L183.697 261.669L184.667 261.317L185.098 262.484L184.112 262.841ZM99.6439 260.425C99.3246 260.291 99.0074 260.154 98.6881 260.011L99.1857 258.87C99.5009 259.007 99.8077 259.144 100.131 259.285L99.6439 260.425ZM190.898 260.164L190.406 259.022L191.352 258.607L191.855 259.745L190.898 260.164ZM93.0362 257.359C92.7252 257.206 92.4163 257.048 92.1095 256.888L92.6775 255.781C92.9823 255.939 93.2892 256.094 93.594 256.248L93.0362 257.359ZM197.503 257.056L196.939 255.947C197.246 255.792 197.561 255.634 197.858 255.474L198.43 256.577C198.123 256.737 197.808 256.897 197.503 257.056ZM86.6276 253.87C86.329 253.695 86.0304 253.519 85.7319 253.341L86.3705 252.273L87.2558 252.798L86.6276 253.87ZM203.897 253.532L203.275 252.462L204.161 251.931L204.805 252.997C204.497 253.185 204.196 253.364 203.897 253.532ZM80.4573 249.992C80.1691 249.798 79.883 249.605 79.5969 249.408L80.3018 248.381C80.5838 248.576 80.8678 248.769 81.1498 248.96L80.4573 249.992ZM210.058 249.63L209.357 248.593C209.643 248.4 209.925 248.205 210.209 248.008L210.918 249.03L210.058 249.63ZM74.5421 245.736C74.2657 245.524 73.9894 245.313 73.7128 245.097L74.4799 244.117C74.7494 244.324 75.021 244.531 75.2926 244.749L74.5421 245.736ZM215.956 245.334L215.193 244.351L216.006 243.712L216.779 244.687C216.506 244.904 216.232 245.118 215.956 245.334ZM221.573 240.671L220.744 239.74C221.001 239.512 221.26 239.282 221.515 239.051L222.344 239.974C222.093 240.208 221.832 240.441 221.573 240.677V240.671ZM226.883 235.666L226.002 234.789L226.725 234.055L227.615 234.923C227.372 235.172 227.127 235.421 226.883 235.666ZM231.859 230.341L230.926 229.512L231.604 228.735L232.545 229.547C232.321 229.817 232.095 230.082 231.865 230.341H231.859ZM236.505 224.719L235.52 223.956C235.728 223.684 235.935 223.414 236.142 223.141L237.133 223.895L236.505 224.719ZM240.787 218.822L239.75 218.123C239.943 217.839 240.135 217.555 240.324 217.271L241.361 217.962C241.18 218.248 240.988 218.536 240.793 218.822H240.787ZM244.689 212.668L243.619 212.036C243.793 211.742 243.967 211.445 244.137 211.149L245.213 211.771C245.045 212.071 244.871 212.37 244.695 212.668H244.689ZM248.197 206.281L247.089 205.717C247.243 205.412 247.398 205.095 247.55 204.799L248.665 205.352C248.514 205.663 248.36 205.973 248.203 206.281H248.197ZM251.3 199.682L250.158 199.19C250.297 198.875 250.43 198.559 250.56 198.243L251.707 198.726C251.574 199.049 251.439 199.368 251.3 199.682ZM253.971 192.9L252.799 192.485C252.916 192.162 253.03 191.838 253.141 191.515L254.317 191.929C254.203 192.247 254.089 192.576 253.971 192.9ZM256.208 185.96L255.014 185.616L255.294 184.625L256.492 184.959C256.399 185.293 256.303 185.627 256.208 185.96ZM258.001 178.892L256.786 178.625C256.861 178.289 256.932 177.953 256.994 177.617L258.211 177.874C258.142 178.214 258.076 178.554 258.001 178.892ZM259.345 171.725L258.115 171.534C258.167 171.196 258.219 170.856 258.269 170.516L259.5 170.696L259.345 171.725ZM260.234 164.487L258.99 164.375C259.021 164.033 259.053 163.691 259.08 163.338L260.324 163.44C260.297 163.794 260.265 164.14 260.234 164.487ZM260.668 157.207L259.424 157.172C259.424 156.828 259.442 156.486 259.449 156.135L260.693 156.16C260.684 156.513 260.678 156.859 260.668 157.207ZM259.401 149.951C259.388 149.606 259.374 149.264 259.359 148.914L260.603 148.86C260.618 149.206 260.63 149.555 260.643 149.897L259.401 149.951ZM258.924 142.75C258.891 142.408 258.856 142.066 258.82 141.713L260.064 141.583C260.102 141.927 260.137 142.273 260.17 142.619L258.924 142.75ZM257.999 135.593C257.945 135.255 257.887 134.915 257.831 134.577L259.057 134.369C259.115 134.712 259.173 135.054 259.227 135.406L257.999 135.593ZM256.627 128.51C256.552 128.174 256.473 127.841 256.395 127.505L257.605 127.221C257.686 127.559 257.763 127.897 257.84 128.237L256.627 128.51ZM254.813 121.525C254.717 121.196 254.618 120.866 254.518 120.536L255.708 120.175C255.81 120.509 255.916 120.841 256.007 121.175L254.813 121.525ZM252.563 114.669C252.445 114.345 252.327 114.022 252.206 113.7L253.372 113.265C253.494 113.59 253.612 113.916 253.732 114.244L252.563 114.669ZM249.884 107.968C249.745 107.652 249.609 107.337 249.47 107.022L250.604 106.514C250.743 106.832 250.88 107.151 251.018 107.47L249.884 107.968ZM246.787 101.449C246.629 101.142 246.472 100.827 246.31 100.531L247.413 99.9521C247.575 100.262 247.734 100.571 247.894 100.879L246.787 101.449ZM243.283 95.1379C243.107 94.8434 242.93 94.549 242.75 94.2546L243.812 93.6057C243.992 93.9042 244.172 94.2007 244.351 94.4993L243.283 95.1379ZM239.385 89.063L238.796 88.215L239.814 87.4997C240.021 87.7858 240.212 88.0719 240.411 88.3601L239.385 89.063ZM235.11 83.2577C234.896 82.9813 234.683 82.7109 234.467 82.447L235.437 81.6695C235.655 81.9459 235.873 82.2189 236.088 82.4885L235.11 83.2577ZM230.472 77.7136C230.244 77.4565 230.011 77.1994 229.779 76.9444L230.7 76.115C230.934 76.3742 231.168 76.6313 231.401 76.8925L230.472 77.7136ZM225.496 72.4825C225.251 72.2393 225.006 71.9988 224.76 71.761L225.624 70.8674C225.875 71.11 226.122 71.3526 226.371 71.5972L225.496 72.4825ZM220.2 67.5812C219.943 67.3552 219.682 67.1313 219.421 66.9074L220.229 65.9619C220.495 66.1879 220.756 66.416 221.019 66.644L220.2 67.5812Z" fill="#2007BD"/>
<path d="M69.7113 241.815C46.3917 221.855 31.9565 193.448 29.5813 162.844C27.2061 132.24 37.0855 101.946 57.0463 78.6267C77.0071 55.3071 105.414 40.8719 136.018 38.4967C166.622 36.1215 196.916 46.0009 220.236 65.9617L219.427 66.9072C196.191 47.028 166.604 37.3705 136.112 39.7382C105.619 42.1059 77.8761 56.2025 57.9907 79.4363C38.1054 102.67 28.454 132.259 30.8301 162.749C33.2061 193.24 47.284 220.98 70.5199 240.87L69.7113 241.815Z" fill="#2007BD"/>
<path d="M267.251 184.182L46.0122 230.764L46.2685 231.982L267.506 185.399L267.251 184.182Z" fill="#2007BD"/>
<path d="M234.766 272.948C234.656 272.948 234.548 272.919 234.455 272.863L187.006 245.47C186.917 245.421 186.842 245.346 186.788 245.259C186.734 245.172 186.702 245.072 186.696 244.969C186.69 244.867 186.709 244.763 186.752 244.67C186.796 244.577 186.861 244.496 186.944 244.434L242.626 202.777C242.723 202.704 242.839 202.661 242.961 202.653C243.084 202.646 243.204 202.675 243.31 202.736C243.416 202.797 243.501 202.887 243.554 202.996C243.61 203.105 243.631 203.228 243.617 203.349L235.381 272.391C235.363 272.544 235.29 272.683 235.176 272.785C235.06 272.886 234.913 272.942 234.759 272.94L234.766 272.948ZM188.445 244.863L234.266 271.315L242.215 204.643L188.445 244.863Z" fill="#7764F0"/>
<path d="M231.289 94.1282C231.179 94.1278 231.073 94.0992 230.978 94.0453L209.91 81.881C209.84 81.8402 209.778 81.7859 209.728 81.721C209.678 81.6563 209.641 81.5823 209.62 81.5033C209.599 81.4243 209.593 81.342 209.604 81.2609C209.614 81.1798 209.641 81.1017 209.682 81.031L221.847 59.9638C221.886 59.8929 221.942 59.8309 222.006 59.7812C222.071 59.7314 222.145 59.6947 222.224 59.6736C222.303 59.6524 222.386 59.647 222.467 59.6576C222.547 59.6684 222.626 59.6949 222.697 59.7358L243.764 71.9083C243.907 71.9906 244.011 72.1262 244.052 72.2852C244.096 72.4441 244.073 72.6135 243.992 72.7563L231.828 93.8255C231.786 93.8962 231.732 93.9584 231.668 94.0082C231.602 94.0579 231.529 94.0946 231.45 94.1158C231.396 94.1262 231.343 94.1303 231.289 94.1282ZM211.078 81.1139L231.069 92.6562L242.609 72.6651L222.614 61.127L211.078 81.1139ZM154.513 237.714L94.1414 249.563L94.272 246.211C94.323 244.89 94.8189 243.625 95.6791 242.62C96.5394 241.616 97.7137 240.932 99.0116 240.677L149.744 230.725C150.35 230.607 150.975 230.628 151.572 230.783C152.169 230.941 152.723 231.231 153.192 231.633C153.661 232.033 154.033 232.537 154.28 233.103C154.528 233.667 154.644 234.283 154.62 234.899L154.513 237.714ZM94.1434 249.563L97.8982 251.95L158.265 240.101L154.513 237.714L94.1434 249.563Z" fill="#12017C"/>
<path d="M152.334 231.057L156.588 233.737L158.265 240.101L150.422 236.292L152.334 231.057Z" fill="#12017C"/>
<path d="M190.344 50.9676L74.7557 67.8486C72.4129 68.1895 70.2661 69.3481 68.6952 71.1193C67.1244 72.8904 66.2306 75.1602 66.1721 77.527L63.1948 197.001C63.1799 197.618 63.3037 198.23 63.5568 198.792C63.81 199.355 64.1863 199.854 64.6578 200.252C65.1294 200.65 65.6843 200.937 66.2814 201.092C66.8787 201.247 67.503 201.266 68.1086 201.147L183.262 178.604C185.487 178.166 187.498 176.986 188.967 175.258C190.435 173.53 191.274 171.354 191.348 169.087L195.044 55.1826C195.064 54.5814 194.951 53.9832 194.715 53.4301C194.478 52.8769 194.124 52.3822 193.676 51.9806C193.228 51.5788 192.698 51.28 192.122 51.105C191.547 50.93 190.94 50.8832 190.344 50.9676ZM188.231 63.109L184.955 164.08C184.885 166.277 184.071 168.385 182.647 170.059C181.222 171.733 179.271 172.874 177.114 173.294L75.019 193.281C74.403 193.401 73.768 193.382 73.1605 193.224C72.553 193.066 71.9889 192.774 71.5093 192.369C71.0297 191.964 70.6472 191.457 70.3899 190.885C70.1326 190.312 70.007 189.689 70.0223 189.062L72.6596 83.2659C72.7178 80.9448 73.5951 78.7191 75.1358 76.9823C76.6767 75.2452 78.7817 74.1091 81.0794 73.7742L183.432 58.8255C184.038 58.7372 184.657 58.7832 185.244 58.96C185.832 59.1369 186.373 59.4406 186.83 59.8495C187.287 60.2584 187.649 60.7624 187.89 61.3263C188.131 61.8903 188.245 62.5003 188.225 63.1131L188.231 63.109Z" fill="#7764F0"/>
<path d="M148.027 114.042C148.027 114.042 158.531 120.954 169.312 121.23C180.093 121.506 187.282 118.742 190.875 121.23L211.886 149.036L213.267 151.822C213.267 151.822 228.195 167.488 229.669 171.359C231.143 175.23 228.195 180.389 221.194 178.178C221.194 178.178 221.376 187.023 211.242 184.26C211.242 184.26 208.66 190.525 201.289 188.13C201.289 188.13 198.892 194.027 184.885 185.365C170.877 176.702 152.817 161.384 152.817 161.384C152.817 161.384 147.648 150.118 131.988 149.036L148.027 114.042Z" fill="#7764F0"/>
<path d="M183.547 69.1645L80.2531 84.3256L80.4339 85.5565L183.728 70.3955L183.547 69.1645ZM167.141 69.7679C167.069 69.7683 166.996 69.7633 166.924 69.7533C165.68 69.5958 164.89 68.1569 165.103 66.4796C165.317 64.8022 166.457 63.6101 167.687 63.7656C168.916 63.9211 169.721 65.362 169.507 67.0393C169.306 68.6192 168.29 69.7679 167.141 69.7679ZM167.475 64.9992C167.025 64.9992 166.461 65.671 166.337 66.6392C166.208 67.6448 166.623 68.4637 167.081 68.5218C167.539 68.5798 168.145 67.8998 168.273 66.8859C168.402 65.8721 167.985 65.0614 167.529 65.0013L167.475 64.9992ZM174.023 68.9033C173.953 68.9031 173.884 68.8989 173.815 68.8908C173.486 68.8349 173.175 68.6978 172.911 68.4917C172.648 68.2858 172.44 68.0176 172.306 67.7111C172.013 67.0543 171.906 66.3297 171.997 65.6162C172.088 64.9028 172.374 64.2281 172.822 63.666C173.018 63.3899 173.284 63.172 173.594 63.0357C173.904 62.8995 174.245 62.85 174.58 62.8925C174.916 62.9352 175.234 63.0683 175.5 63.2775C175.766 63.4869 175.97 63.7645 176.09 64.0807C176.395 64.7336 176.502 65.4615 176.399 66.1748C176.319 66.8921 176.03 67.5703 175.569 68.1258C175.383 68.3592 175.148 68.5496 174.881 68.6837C174.614 68.8179 174.321 68.8927 174.023 68.9033ZM174.357 64.1346C174.238 64.1497 174.124 64.1883 174.021 64.248C173.917 64.3079 173.827 64.3878 173.755 64.4829C173.468 64.8597 173.285 65.3054 173.225 65.7754C173.165 66.2453 173.23 66.7228 173.413 67.1596C173.498 67.3296 173.683 67.622 173.967 67.6593C174.251 67.6966 174.504 67.4519 174.628 67.3151C174.925 66.9436 175.109 66.4945 175.159 66.0213C175.229 65.5515 175.162 65.0718 174.968 64.6384C174.885 64.4663 174.699 64.1761 174.417 64.1388L174.357 64.1346ZM180.917 67.707C180.843 67.7074 180.77 67.7026 180.697 67.6925C179.453 67.5349 178.663 66.0981 178.876 64.4187C179.09 62.7393 180.226 61.5409 181.46 61.7067C182.693 61.8726 183.494 63.3011 183.28 64.9805C183.087 66.5583 182.063 67.707 180.917 67.707ZM181.248 62.9383C180.798 62.9383 180.234 63.6101 180.11 64.5783C179.984 65.5859 180.398 66.4028 180.854 66.4609C181.311 66.5189 181.918 65.8389 182.047 64.825C182.173 63.8174 181.758 63.0005 181.302 62.9424L181.248 62.9383ZM220.868 178.709C217.53 176.667 202.948 162.433 202.328 161.828L203.197 160.939C203.348 161.086 218.297 175.68 221.517 177.648L220.868 178.709ZM210.87 184.755C204.09 179.626 194.659 169.908 194.563 169.81L195.457 168.944C195.552 169.041 204.917 178.688 211.629 183.764L210.87 184.755ZM200.957 188.657C194.555 184.631 186.954 178.728 186.877 178.668L187.642 177.687C187.717 177.745 195.27 183.613 201.619 187.604L200.957 188.657ZM230.509 123.625C230.509 123.625 228.38 128.34 222.299 126.075C216.218 123.811 203.499 118.097 200.367 116.808C197.234 115.518 191.337 120.861 182.859 123.809C174.381 126.758 180.463 127.865 171.433 141.134C171.433 141.134 173.934 144.271 179.357 142.608C183.964 141.196 186.728 136.687 186.728 136.687C186.728 136.687 193.504 134.935 196.373 133.332C196.373 133.332 198.959 135.714 201.289 140.336C202.326 142.391 207.433 152.067 215.158 153.831L227.893 168.498C227.893 168.498 239.621 166.383 246.256 156.616L230.509 123.625Z" fill="white"/>
<path d="M215.017 154.439C207.346 152.685 202.141 143.415 200.731 140.616C198.948 137.079 196.999 134.869 196.257 134.098C193.483 135.499 188.302 136.915 187.118 137.228C186.486 138.176 183.784 141.902 179.538 143.204C173.774 144.97 171.056 141.663 170.944 141.522L171.916 140.747L171.431 141.135L171.914 140.745C172.007 140.859 174.253 143.523 179.171 142.014C183.49 140.689 186.168 136.416 186.195 136.362C186.279 136.225 186.413 136.127 186.568 136.086C186.637 136.069 193.299 134.336 196.066 132.789C196.181 132.725 196.313 132.699 196.443 132.714C196.574 132.73 196.696 132.786 196.792 132.874C196.9 132.976 199.487 135.387 201.839 140.057C203.188 142.733 208.148 151.593 215.293 153.226L215.017 154.439Z" fill="#2007BD"/>
<path d="M200.053 131.058L196.121 132.777L196.619 133.917L200.552 132.197L200.053 131.058ZM216.338 154.514C215.915 154.519 215.494 154.496 215.075 154.448L215.241 153.216C215.285 153.216 219.802 153.776 224.693 150.977L225.315 152.057C222.585 153.636 219.491 154.482 216.338 154.514Z" fill="#2007BD"/>
<path d="M164.081 156.009C161.166 153.832 158.174 153.898 152.817 160.854C147.059 168.318 155.641 172.465 159.211 169.377C164.081 165.158 168.159 159.052 164.081 156.009ZM189.401 178.21C187.582 176.955 184.425 176.694 180.228 183.032C175.715 189.847 183.386 192.893 186.28 190.003C190.228 186.062 193.294 180.897 189.401 178.21ZM182.339 170.404C180.212 168.787 176.604 168.218 170.996 175.498C164.964 183.327 173.952 187.66 177.69 184.426C182.791 180.014 186.452 173.524 182.339 170.404Z" fill="white"/>
<path d="M173.791 162.477C171.665 160.671 167.334 160.169 161.481 167.766C155.187 175.937 164.568 180.459 168.468 177.081C173.791 172.479 177.637 165.747 173.791 162.477Z" fill="white"/>
<path d="M159.205 164.097C158.651 164.105 158.111 163.919 157.681 163.57C157.371 163.327 157.117 163.021 156.936 162.672C156.754 162.323 156.649 161.939 156.627 161.546C156.42 158.768 159.713 155.136 159.854 154.982C159.956 154.866 160.098 154.792 160.252 154.775C160.347 154.775 162.595 154.568 164.191 155.93C165.101 156.703 165.611 157.796 165.709 159.197C165.719 159.354 165.671 159.509 165.572 159.631C164.758 160.621 163.856 161.535 162.877 162.361C161.301 163.665 160.102 164.097 159.205 164.097ZM160.6 156.011C159.657 157.095 157.735 159.701 157.867 161.449C157.878 161.672 157.937 161.89 158.039 162.088C158.141 162.286 158.285 162.46 158.46 162.598C159.371 163.33 160.932 162.353 162.082 161.405C162.935 160.687 163.726 159.899 164.448 159.05C164.34 158.121 163.988 157.392 163.397 156.892C162.456 156.085 161.131 156.011 160.6 156.015V156.011ZM185.638 185.883C185.198 185.886 184.769 185.752 184.41 185.5C184.118 185.302 183.872 185.044 183.687 184.744C183.502 184.444 183.383 184.108 183.338 183.758C182.986 181.378 185.455 178.181 185.737 177.824C185.814 177.727 185.919 177.654 186.038 177.617C186.108 177.596 187.792 177.078 189.278 177.967C190.278 178.564 190.927 179.626 191.207 181.125C191.221 181.206 191.22 181.288 191.202 181.368C191.185 181.448 191.152 181.524 191.105 181.591C190.459 182.504 189.73 183.355 188.928 184.133C187.537 185.456 186.454 185.883 185.638 185.883ZM185.119 184.478C185.949 185.048 187.315 183.949 188.059 183.234C188.739 182.571 189.364 181.853 189.925 181.088C189.695 180.095 189.262 179.402 188.636 179.027C187.862 178.562 186.952 178.678 186.581 178.753C185.843 179.736 184.346 182.091 184.566 183.569C184.586 183.75 184.645 183.925 184.74 184.08C184.835 184.236 184.963 184.369 185.115 184.469L185.119 184.478ZM177.406 179.143C176.834 179.151 176.276 178.958 175.831 178.598C175.509 178.346 175.246 178.028 175.057 177.666C174.869 177.303 174.76 176.905 174.738 176.497C174.516 173.595 177.96 169.807 178.107 169.655C178.19 169.564 178.299 169.5 178.418 169.471C178.507 169.448 180.589 168.959 182.266 170.153C183.376 170.943 184.022 172.253 184.192 174.045C184.207 174.206 184.159 174.366 184.058 174.492C183.204 175.528 182.258 176.483 181.232 177.347C179.59 178.685 178.342 179.143 177.406 179.143ZM176.61 177.629C177.576 178.407 179.221 177.383 180.427 176.385C181.329 175.628 182.165 174.796 182.926 173.897C182.762 172.618 182.304 171.7 181.551 171.163C180.579 170.464 179.341 170.568 178.889 170.636C177.914 171.745 175.835 174.536 175.986 176.402C175.996 176.639 176.057 176.871 176.164 177.082C176.272 177.293 176.423 177.479 176.608 177.627L176.61 177.629ZM168.327 171.484C167.735 171.492 167.159 171.294 166.698 170.922C166.366 170.661 166.093 170.332 165.898 169.958C165.704 169.583 165.591 169.171 165.568 168.749C165.338 165.739 168.924 161.785 169.078 161.619C169.168 161.52 169.288 161.452 169.42 161.428C169.528 161.408 172.082 160.939 173.836 162.388C174.873 163.236 175.383 164.534 175.383 166.243C175.383 166.384 175.335 166.522 175.246 166.632C174.358 167.712 173.374 168.709 172.306 169.61C170.591 171.013 169.296 171.484 168.327 171.484ZM169.849 162.623C168.829 163.784 166.658 166.701 166.808 168.656C166.82 168.907 166.886 169.153 167.001 169.377C167.117 169.601 167.279 169.796 167.477 169.952C168.499 170.781 170.229 169.703 171.497 168.658C172.45 167.856 173.332 166.974 174.135 166.023C174.095 164.814 173.72 163.914 173.044 163.346C171.974 162.463 170.397 162.556 169.849 162.623Z" fill="#2007BD"/>
<path d="M104.533 149.036L117.893 163.155L116.79 165.168L126.205 170.263L154.345 114.042L144.623 111.817L123.288 154.657L104.533 149.036Z" fill="white"/>
<path d="M174.012 143.176C173.859 143.176 172.474 143.131 170.981 141.563C170.891 141.468 170.833 141.346 170.815 141.216C170.798 141.086 170.823 140.953 170.886 140.838L175.594 132.175C175.644 132.085 175.716 132.009 175.803 131.953C175.889 131.897 175.988 131.864 176.091 131.856C176.194 131.849 176.297 131.866 176.392 131.908C176.486 131.95 176.568 132.015 176.631 132.097C176.666 132.142 180.096 136.82 174.464 142.973C174.407 143.036 174.337 143.087 174.259 143.122C174.182 143.157 174.098 143.175 174.012 143.176ZM172.204 141.016C172.644 141.436 173.182 141.738 173.77 141.893C177.056 138.161 176.672 135.227 176.129 133.807L172.204 141.016Z" fill="#2007BD"/>
<path d="M234.554 118.188L225.002 123.718L244.506 165.168L252.468 166.839L246.256 169.781L249.758 176.611L263.305 170.262L234.554 118.188Z" fill="#12017C"/>
<path d="M230.041 116.609L263.305 173.585L281.273 165.169L256.361 103.402L230.041 116.609Z" fill="#CEC7FD"/>
<path d="M263.305 174.209C263.195 174.209 263.089 174.18 262.994 174.126C262.901 174.072 262.822 173.994 262.768 173.9L229.504 116.924C229.46 116.851 229.433 116.77 229.423 116.685C229.412 116.6 229.418 116.515 229.443 116.433C229.468 116.351 229.508 116.276 229.564 116.21C229.618 116.145 229.686 116.092 229.763 116.054L256.094 102.847C256.171 102.808 256.254 102.786 256.341 102.782C256.426 102.778 256.511 102.791 256.592 102.821C256.672 102.852 256.745 102.899 256.805 102.958C256.867 103.018 256.915 103.091 256.948 103.17L281.861 164.937C281.922 165.084 281.922 165.249 281.863 165.397C281.805 165.545 281.691 165.665 281.548 165.733L263.579 174.148C263.494 174.189 263.398 174.21 263.305 174.209ZM230.911 116.868L263.556 172.782L280.476 164.856L256.038 104.252L230.911 116.868Z" fill="#2007BD"/>
<path d="M266.861 166.869C268.055 166.869 269.025 165.9 269.025 164.705C269.025 163.509 268.055 162.54 266.861 162.54C265.665 162.54 264.696 163.509 264.696 164.705C264.696 165.9 265.665 166.869 266.861 166.869Z" fill="#12017C"/>
<path d="M158.265 240.1L97.8983 251.949L98.0268 248.599C98.078 247.278 98.5737 246.013 99.4333 245.008C100.293 244.004 101.467 243.318 102.764 243.063L153.499 233.111C154.105 232.993 154.73 233.013 155.327 233.169C155.924 233.326 156.478 233.617 156.947 234.019C157.416 234.419 157.788 234.923 158.035 235.489C158.283 236.053 158.399 236.669 158.375 237.284L158.265 240.1ZM133.309 235.578L125.936 237.069V186.163L133.309 185.425V235.578Z" fill="#7764F0"/>
<path d="M70.8993 153.89L113.747 170.866L117.893 163.156L104.533 149.036L123.288 154.657L147.749 105.536L72.5621 87.2344L70.8993 153.89Z" fill="#12017C"/>
<path d="M79.0993 138.44L86.4057 148.425L98.4912 145.775L91.1848 135.792L79.0993 138.44Z" fill="#CEC7FD"/>
<path d="M93.2936 138.248L81.1428 140.806L81.3991 142.024L93.5501 139.465L93.2936 138.248Z" fill="white"/>
<defs>
<linearGradient id="paint0_linear_1108_540" x1="46.7607" y1="191.651" x2="261.711" y2="108.996" gradientUnits="userSpaceOnUse">
<stop stop-color="white"/>
<stop offset="0.47" stop-color="#E1DCFE"/>
<stop offset="1" stop-color="#C1B8FD"/>
</linearGradient>
</defs>
</svg>
