<svg width="530" height="450" viewBox="0 0 530 450" fill="none" xmlns="http://www.w3.org/2000/svg">
<path d="M481.389 340.651L232.883 197.001V15.9082L481.389 159.558V340.651Z" fill="#BC6EFA"/>
<path d="M237.578 24.0596V194.285L476.693 332.501V162.275L237.578 24.0596Z" fill="white"/>
<path d="M445.537 186.643L437.99 197.395C437.439 198.18 437.672 199.284 438.51 199.761L453.593 208.485C454.94 209.26 456.508 207.912 455.947 206.469L448.399 187.004C447.922 185.784 446.279 185.582 445.527 186.654L445.537 186.643Z" fill="#D7A7FC"/>
<path d="M481.387 159.558L486.379 156.671V337.764L481.387 340.651V159.558Z" fill="#AA46F8"/>
<path d="M481.017 159.494L486.01 156.618L237.874 13.0215L232.871 15.9083L481.017 159.494Z" fill="#CA8DFB"/>
<path d="M274.486 27.1477L268.73 30.4803C267.182 31.3718 265.91 30.4166 265.91 28.347C265.91 26.2774 267.182 23.847 268.73 22.9555L274.486 19.623C276.033 18.7315 277.305 19.6866 277.305 21.7562C277.305 23.8258 276.033 26.2562 274.486 27.1477Z" fill="#BE72FA"/>
<path d="M259.297 28.2945C260.24 22.7438 264.84 20.7697 270.384 23.9749C275.928 27.1801 280.529 34.4714 281.472 41.1153L286.571 44.0657C285.585 34.1636 278.716 22.9561 270.384 18.1377C262.042 13.3193 255.173 16.5775 254.188 25.344L259.297 28.2945Z" fill="#A63DF8"/>
<path d="M268.444 29.4934L267.765 30.8094C266.366 30.8094 265.91 30.2681 265.91 28.8778V17.1821C265.91 15.7811 267.055 14.6455 268.444 14.6455C269.843 14.6455 270.977 15.7917 270.977 17.1821V25.0571C270.977 26.458 269.832 29.4934 268.444 29.4934Z" fill="#BE72FA"/>
<path d="M453.775 130.616L448.019 133.948C446.471 134.84 445.199 133.884 445.199 131.815C445.199 129.745 446.471 127.315 448.019 126.423L453.775 123.091C455.322 122.199 456.594 123.154 456.594 125.224C456.594 127.294 455.322 129.724 453.775 130.616Z" fill="#BE72FA"/>
<path d="M438.586 131.752C439.529 126.201 444.13 124.227 449.673 127.432C455.217 130.637 459.818 137.928 460.761 144.572L465.86 147.523C464.874 137.621 458.005 126.413 449.673 121.595C441.331 116.776 434.462 120.035 433.477 128.801L438.586 131.752Z" fill="#A63DF8"/>
<path d="M447.733 132.95L447.054 134.266C445.655 134.266 445.199 133.725 445.199 132.335V120.639C445.199 119.238 446.344 118.103 447.733 118.103C449.132 118.103 450.266 119.249 450.266 120.639V128.514C450.266 129.915 449.121 132.95 447.733 132.95Z" fill="#BE72FA"/>
<path d="M277.763 73.5698C277.127 73.5698 276.481 73.4106 275.887 73.0603L252.016 59.2632C250.214 58.2231 249.599 55.92 250.638 54.1158C251.677 52.3115 253.977 51.6959 255.779 52.736L279.65 66.5332C281.452 67.5733 282.067 69.8764 281.028 71.6806C280.328 72.8905 279.067 73.5592 277.763 73.5592V73.5698Z" fill="#C6E8F2"/>
<path d="M314.279 94.6899C313.643 94.6899 312.996 94.5307 312.403 94.1805L288.531 80.3833C286.729 79.3432 286.115 77.0401 287.153 75.2359C288.192 73.4316 290.492 72.8161 292.284 73.8562L316.155 87.6533C317.957 88.6934 318.572 90.9965 317.533 92.8007C316.833 94.0106 315.572 94.6793 314.268 94.6793L314.279 94.6899Z" fill="#976FF7"/>
<path d="M350.81 115.799C350.174 115.799 349.527 115.64 348.934 115.29L325.063 101.493C323.261 100.453 322.646 98.1495 323.685 96.3453C324.723 94.541 327.024 93.9254 328.826 94.9655L352.697 108.763C354.499 109.803 355.114 112.106 354.075 113.91C353.375 115.12 352.114 115.789 350.821 115.789L350.81 115.799Z" fill="#CA8DFB"/>
<path d="M387.333 136.91C386.697 136.91 386.051 136.75 385.457 136.4L361.586 122.603C359.784 121.563 359.169 119.26 360.208 117.456C361.247 115.651 363.547 115.036 365.349 116.076L389.22 129.873C391.022 130.913 391.637 133.216 390.598 135.02C389.899 136.23 388.637 136.899 387.333 136.899V136.91Z" fill="#BE72FA"/>
<path d="M423.853 158.019C423.217 158.019 422.57 157.86 421.977 157.51L398.106 143.712C396.304 142.672 395.689 140.369 396.728 138.565C397.766 136.761 400.067 136.145 401.869 137.185L425.74 150.982C427.542 152.023 428.157 154.326 427.118 156.13C426.418 157.34 425.157 158.008 423.853 158.008V158.019Z" fill="#C6E8F2"/>
<path d="M460.376 179.14C459.74 179.14 459.094 178.981 458.5 178.631L434.629 164.833C432.827 163.793 432.212 161.49 433.251 159.686C434.29 157.882 436.59 157.266 438.392 158.306L462.263 172.104C464.065 173.144 464.68 175.447 463.641 177.251C462.942 178.461 461.68 179.129 460.376 179.129V179.14Z" fill="#976FF7"/>
<path d="M248.855 65.918V187.758" stroke="#E0BBFD" stroke-width="0.89" stroke-miterlimit="10"/>
<path d="M284.949 86.7842V208.624" stroke="#E0BBFD" stroke-width="0.89" stroke-miterlimit="10"/>
<path d="M321.043 107.649V229.489" stroke="#E0BBFD" stroke-width="0.89" stroke-miterlimit="10"/>
<path d="M357.133 128.516V250.355" stroke="#E0BBFD" stroke-width="0.89" stroke-miterlimit="10"/>
<path d="M393.227 149.38V271.219" stroke="#E0BBFD" stroke-width="0.89" stroke-miterlimit="10"/>
<path d="M429.32 170.246V292.075" stroke="#E0BBFD" stroke-width="0.89" stroke-miterlimit="10"/>
<path d="M465.414 191.101V312.94" stroke="#E0BBFD" stroke-width="0.89" stroke-miterlimit="10"/>
<path d="M465.413 191.101L248.855 65.918" stroke="#E0BBFD" stroke-width="0.89" stroke-miterlimit="10"/>
<path d="M465.413 221.561L248.855 96.3779" stroke="#E0BBFD" stroke-width="0.89" stroke-miterlimit="10"/>
<path d="M465.413 252.021L248.855 126.838" stroke="#E0BBFD" stroke-width="0.89" stroke-miterlimit="10"/>
<path d="M465.413 282.469L248.855 157.297" stroke="#E0BBFD" stroke-width="0.89" stroke-miterlimit="10"/>
<path d="M465.413 312.93L248.855 187.747" stroke="#E0BBFD" stroke-width="0.89" stroke-miterlimit="10"/>
<path d="M264.569 83.0691L257.021 93.8203C256.47 94.6057 256.703 95.7095 257.541 96.1871L272.635 104.911C273.981 105.686 275.55 104.338 274.988 102.895L267.441 83.43C266.964 82.2095 265.321 82.0078 264.569 83.0798V83.0691Z" fill="#D7A7FC"/>
<path d="M336.39 183.842L328.843 194.593C328.292 195.378 328.536 196.482 329.362 196.96L344.457 205.684C345.803 206.458 347.372 205.11 346.81 203.667L339.263 184.202C338.786 182.982 337.143 182.78 336.39 183.852V183.842Z" fill="#D6A5FC"/>
<path d="M381.292 166.711L369.494 159.886C368.445 159.281 367.586 157.647 367.586 156.246V143.287C367.586 141.886 368.434 141.239 369.494 141.844L381.292 148.668C382.341 149.273 383.2 150.908 383.2 152.309V165.267C383.2 166.668 382.352 167.316 381.292 166.711Z" fill="#C6E8F2"/>
<path d="M452.78 298.272L440.982 291.448C439.933 290.843 439.074 289.209 439.074 287.808V274.849C439.074 273.448 439.922 272.801 440.982 273.405L452.78 280.23C453.829 280.835 454.688 282.469 454.688 283.87V296.829C454.688 298.23 453.84 298.877 452.78 298.272Z" fill="#CA8DFB"/>
<path d="M284.951 117.243L321.044 138.109C321.044 138.109 316.242 161.638 309.416 166.934L277.309 149.38C277.309 149.38 284.951 136.92 284.951 117.243Z" fill="#976FF7"/>
<path d="M274.698 186.834C274.698 192.502 270.723 194.794 265.825 191.961C260.928 189.127 256.953 182.25 256.953 176.582C256.953 170.915 260.928 168.622 265.825 171.456C270.723 174.29 274.698 181.167 274.698 186.834Z" fill="#CA8DFB"/>
<path d="M284.951 117.243L321.044 138.109C321.044 138.109 316.242 161.638 309.416 166.934L277.309 149.38C277.309 149.38 284.951 136.92 284.951 117.243Z" fill="#976FF7"/>
<path d="M357.142 189.434L393.235 210.299C393.235 210.299 392.79 228.766 380.017 240.419L346.277 218.779C346.277 218.779 357.153 207.932 357.142 189.434Z" fill="#BE72FA"/>
<path d="M18.1562 150.134L178.216 57.6083V18.2227L18.1562 110.749V150.134Z" fill="#AA46F8"/>
<path d="M175.194 23.4658V55.8573L21.1758 144.881V112.5L175.194 23.4658Z" fill="white"/>
<path d="M55.9719 105.444L57.978 104.284C58.5206 103.971 58.9615 103.773 59.3009 103.69C59.6434 103.606 59.9336 103.602 60.1715 103.679C60.4126 103.754 60.6248 103.893 60.8081 104.094C60.9928 104.29 61.2235 104.628 61.5001 105.108L61.8851 105.775C62.1672 106.265 62.3224 106.651 62.3506 106.933C62.3789 107.215 62.292 107.495 62.0899 107.772C61.8909 108.047 61.5738 108.31 61.1385 108.562L60.6038 108.871L62.3838 111.958L60.3919 113.109L55.9719 105.444ZM58.7201 105.604L59.8449 107.555C59.9035 107.525 59.9533 107.498 59.9943 107.474C60.1772 107.369 60.2779 107.252 60.2964 107.123C60.3161 106.99 60.2441 106.781 60.0803 106.497L59.7172 105.867C59.5661 105.605 59.4269 105.458 59.2993 105.427C59.1718 105.395 58.9787 105.454 58.7201 105.604ZM62.6815 100.828L66.4719 107.402L67.7705 106.651L68.7189 108.296L65.2846 110.281L60.5458 102.063L62.6815 100.828ZM68.1905 97.6437L74.1518 105.155L71.9654 106.419L71.0072 105.003L70.2412 105.446L70.9661 106.996L68.7544 108.275L65.1012 99.4295L68.1905 97.6437ZM70.1063 103.582C69.4614 102.714 68.6907 101.627 67.7942 100.323C68.4832 102.018 69.0104 103.245 69.3758 104.004L70.1063 103.582ZM74.5467 93.9694L79.2855 102.187L77.4136 103.269L74.1484 100.176L76.3027 103.912L74.517 104.944L69.7783 96.7258L71.5639 95.6936L74.8949 98.7019L72.7611 95.0016L74.5467 93.9694ZM80.1775 90.7144L84.9163 98.9323L83.0444 100.014L79.7792 96.9207L81.9335 100.657L80.1478 101.689L75.4091 93.4708L77.1947 92.4386L80.5257 95.4469L78.3919 91.7466L80.1775 90.7144ZM83.1755 88.9813L87.9143 97.1993L85.7786 98.4338L81.0399 90.2159L83.1755 88.9813ZM88.8013 85.7292L93.54 93.9472L91.6681 95.0293L88.403 91.9356L90.5572 95.6715L88.7716 96.7037L84.0328 88.4857L85.8185 87.4535L89.1494 90.4618L87.0156 86.7615L88.8013 85.7292ZM96.3084 85.4233L94.1728 86.6578L93.7425 85.9117C93.4713 85.4413 93.2812 85.1586 93.1723 85.0636C93.0635 84.9687 92.9329 84.9652 92.7808 85.0531C92.6489 85.1294 92.5885 85.2319 92.5997 85.3608C92.6109 85.4897 92.7375 85.764 92.9794 86.1836L95.2537 90.1276C95.4664 90.4964 95.6305 90.7264 95.7462 90.8175C95.8599 90.9052 95.9877 90.9079 96.1298 90.8258C96.2853 90.7359 96.3521 90.6093 96.3301 90.4461C96.3115 90.2809 96.192 90.0071 95.9715 89.6247L95.4095 88.6501L94.9783 88.8993L94.2583 87.6507L96.7592 86.205L99.3027 90.616L97.9584 91.3931L97.421 90.9186C97.422 91.2565 97.3479 91.5542 97.1988 91.8118C97.0512 92.0641 96.8269 92.2772 96.5259 92.4512C96.1675 92.6585 95.7812 92.7667 95.3672 92.7759C94.9546 92.7798 94.593 92.7001 94.2823 92.5367C93.9717 92.3734 93.7151 92.163 93.5126 91.9056C93.3081 91.6448 93.0429 91.2319 92.717 90.6667L91.3092 88.2252C90.8565 87.4401 90.57 86.8455 90.4496 86.4413C90.3293 86.0371 90.3838 85.5725 90.613 85.0474C90.8438 84.517 91.277 84.068 91.9128 83.7004C92.5385 83.3388 93.1317 83.1673 93.6926 83.186C94.2535 83.2046 94.699 83.3555 95.029 83.6384C95.357 83.918 95.7152 84.3946 96.1035 85.068L96.3084 85.4233Z" fill="#A63DF8"/>
<path d="M103.191 80.7271L101.208 81.8736L100.857 81.2645C100.693 80.9803 100.563 80.8139 100.467 80.7654C100.372 80.7169 100.265 80.7268 100.146 80.7952C100.018 80.8695 99.9501 80.9787 99.943 81.1227C99.9392 81.2647 99.9988 81.4423 100.122 81.6555C100.28 81.9296 100.436 82.1146 100.59 82.2103C100.741 82.308 101.039 82.3592 101.484 82.3639C102.76 82.3796 103.626 82.4972 104.082 82.7166C104.537 82.936 104.997 83.4483 105.462 84.2537C105.799 84.8391 105.979 85.3107 106 85.6683C106.025 86.024 105.896 86.41 105.613 86.8263C105.328 87.2391 104.925 87.5961 104.404 87.8972C103.832 88.2276 103.281 88.4018 102.751 88.4198C102.223 88.4359 101.8 88.3126 101.482 88.0499C101.164 87.7872 100.827 87.3479 100.472 86.732L100.162 86.194L102.145 85.0474L102.722 86.0474C102.899 86.3553 103.041 86.5376 103.145 86.5943C103.254 86.6491 103.379 86.6354 103.521 86.5533C103.663 86.4712 103.735 86.3547 103.739 86.204C103.745 86.0513 103.685 85.8649 103.558 85.645C103.279 85.161 103.031 84.8828 102.813 84.8101C102.592 84.7394 102.116 84.6833 101.384 84.6416C100.65 84.5966 100.151 84.5445 99.8865 84.4851C99.6224 84.4258 99.3518 84.2889 99.0748 84.0745C98.8013 83.8581 98.5387 83.5317 98.2869 83.0952C97.924 82.4657 97.7381 81.9596 97.7292 81.5767C97.7237 81.1918 97.8534 80.8146 98.1182 80.4449C98.3811 80.0719 98.7662 79.7387 99.2734 79.4455C99.8281 79.1249 100.352 78.9418 100.844 78.8964C101.34 78.8489 101.729 78.9261 102.012 79.1279C102.297 79.3243 102.627 79.7491 103.004 80.4022L103.191 80.7271ZM109.662 78.4482L107.527 79.6828L106.701 78.2514C106.461 77.8351 106.288 77.59 106.182 77.5158C106.078 77.4363 105.948 77.4415 105.792 77.5315C105.617 77.6331 105.541 77.7602 105.566 77.9128C105.591 78.0654 105.723 78.3498 105.963 78.766L108.164 82.5831C108.395 82.9824 108.568 83.2293 108.686 83.3238C108.804 83.4182 108.945 83.4176 109.111 83.3218C109.27 83.2299 109.338 83.1093 109.315 82.9601C109.296 82.809 109.156 82.5084 108.897 82.0583L108.302 81.0279L110.438 79.7934L110.622 80.1131C111.112 80.9625 111.399 81.6001 111.482 82.0257C111.568 82.4495 111.482 82.9143 111.224 83.4201C110.969 83.924 110.54 84.3499 109.938 84.6979C109.313 85.0596 108.732 85.2443 108.195 85.2522C107.659 85.2601 107.209 85.1025 106.847 84.7794C106.483 84.453 106.069 83.887 105.604 83.0817L104.22 80.6807C103.878 80.0886 103.643 79.6335 103.514 79.3157C103.383 78.9944 103.338 78.6391 103.379 78.2496C103.424 77.8582 103.579 77.4821 103.845 77.1211C104.111 76.7549 104.476 76.4378 104.94 76.17C105.569 75.8064 106.158 75.6281 106.708 75.6352C107.258 75.6423 107.702 75.7914 108.041 76.0826C108.379 76.3704 108.769 76.8984 109.212 77.6665L109.662 78.4482ZM113.272 71.5832L118.011 79.8012L115.875 81.0357L113.885 77.5841L113.246 77.9536L115.236 81.4052L113.101 82.6398L108.362 74.4218L110.498 73.1873L112.192 76.1262L112.831 75.7568L111.137 72.8178L113.272 71.5832ZM114.135 71.0847L117.696 69.0262L118.644 70.6708L117.219 71.4948L118.117 73.0531L119.451 72.2819L120.353 73.8453L119.019 74.6165L120.061 76.4235L121.628 75.5174L122.577 77.162L118.873 79.3027L114.135 71.0847ZM118.457 68.5863L120.055 67.6626C121.086 67.0663 121.81 66.711 122.227 66.5966C122.647 66.4802 123.014 66.4755 123.328 66.5826C123.642 66.6897 123.9 66.8632 124.102 67.1032C124.301 67.3398 124.625 67.8472 125.074 68.6256L126.734 71.5036C127.159 72.2413 127.408 72.7559 127.482 73.0474C127.557 73.3335 127.549 73.5975 127.458 73.8393C127.366 74.0778 127.209 74.299 126.989 74.5032C126.766 74.704 126.4 74.9519 125.889 75.2471L123.196 76.8043L118.457 68.5863ZM121.403 68.7578L124.52 74.1637C124.828 73.9858 124.982 73.8154 124.983 73.6525C124.982 73.4862 124.823 73.129 124.507 72.5808L122.666 69.388C122.452 69.0158 122.302 68.7841 122.218 68.6929C122.134 68.6016 122.036 68.5568 121.924 68.5583C121.81 68.5564 121.637 68.6229 121.403 68.7578ZM129.054 62.4605L132.221 67.9526C132.58 68.5753 132.812 69.0252 132.918 69.3025C133.022 69.5764 133.051 69.9046 133.006 70.2873C132.958 70.6666 132.811 71.0204 132.563 71.3488C132.316 71.6718 131.971 71.9614 131.528 72.2175C131.038 72.501 130.558 72.67 130.089 72.7246C129.62 72.7791 129.217 72.7299 128.881 72.5769C128.545 72.4238 128.277 72.2133 128.077 71.9452C127.876 71.6737 127.507 71.0744 126.973 70.1471L124.169 65.2844L126.304 64.0498L129.858 70.212C130.065 70.5707 130.216 70.7901 130.312 70.8701C130.409 70.9448 130.516 70.9479 130.635 70.8795C130.77 70.8013 130.825 70.6973 130.8 70.5675C130.776 70.4324 130.646 70.1601 130.41 69.7506L126.918 63.695L129.054 62.4605ZM132.016 60.7479L135.807 67.3213L137.105 66.5706L138.054 68.2152L134.619 70.2004L129.881 61.9825L132.016 60.7479ZM133.837 59.6952L137.399 57.6366L138.347 59.2812L136.921 60.1052L137.82 61.6636L139.154 60.8923L140.056 62.4557L138.722 63.227L139.764 65.034L141.331 64.1279L142.279 65.7725L138.576 67.9131L133.837 59.6952Z" fill="#BE72FA"/>
<path d="M18.156 110.748L14.9336 108.891V148.276L18.156 150.134V110.748Z" fill="#BC6EFA"/>
<path d="M18.4021 110.706L15.1797 108.849L175.007 16.3652L178.218 18.2225L18.4021 110.706Z" fill="#CA8DFB"/>
<path d="M151.422 25.462L155.132 27.6059C156.128 28.179 156.945 27.5634 156.945 26.2261C156.945 24.8889 156.128 23.3287 155.132 22.7556L151.422 20.6118C150.426 20.0386 149.609 20.6542 149.609 21.9915C149.609 23.3287 150.426 24.8889 151.422 25.462Z" fill="#BE72FA"/>
<path d="M161.204 26.2048C160.6 22.6281 157.632 21.3546 154.059 23.4241C150.487 25.4937 147.53 30.1847 146.915 34.4619L143.629 36.3616C144.265 29.9831 148.685 22.7661 154.059 19.6671C159.434 16.5574 163.854 18.6588 164.49 24.305L161.193 26.2048H161.204Z" fill="#A63DF8"/>
<path d="M155.312 26.9688L155.747 27.8178C156.648 27.8178 156.944 27.4676 156.944 26.5761V19.0407C156.944 18.1386 156.213 17.4062 155.312 17.4062C154.411 17.4062 153.68 18.1386 153.68 19.0407V24.1138C153.68 25.0159 154.411 26.9688 155.312 26.9688Z" fill="#BE72FA"/>
<path d="M35.9415 92.1007L39.6515 94.2445C40.6479 94.8177 41.4641 94.2021 41.4641 92.8648C41.4641 91.5276 40.6479 89.9674 39.6515 89.3943L35.9415 87.2504C34.9451 86.6773 34.1289 87.2929 34.1289 88.6301C34.1289 89.9674 34.9451 91.5276 35.9415 92.1007Z" fill="#BE72FA"/>
<path d="M45.7154 92.8327C45.1112 89.2561 42.1432 87.9825 38.571 90.0521C34.9988 92.1216 32.0414 96.8127 31.4266 101.09L28.1406 102.99C28.7766 96.611 33.1968 89.394 38.571 86.295C43.9452 83.1853 48.3654 85.2867 49.0014 90.933L45.7048 92.8327H45.7154Z" fill="#A63DF8"/>
<path d="M39.8316 93.6074L40.2662 94.4565C41.1672 94.4565 41.464 94.1062 41.464 93.2147V85.6794C41.464 84.7772 40.7326 84.0449 39.8316 84.0449C38.9306 84.0449 38.1992 84.7772 38.1992 85.6794V90.7525C38.1992 91.6546 38.9306 93.6074 39.8316 93.6074Z" fill="#BE72FA"/>
<path d="M411.109 379.442C411.109 379.442 410.367 385.131 411.84 386.617C413.314 388.103 428.111 390.077 428.896 386.978C429.68 383.889 421.041 381.745 421.041 381.745L411.109 379.432V379.442Z" fill="#9B25F7"/>
<path d="M413.463 318.195L411.109 379.433C411.109 379.433 414.512 383.232 421.042 381.746L429.299 317.144C429.299 317.144 422.685 316.221 416.876 314.215C414.904 313.535 415.89 312.824 414.321 312.188L413.463 318.205V318.195Z" fill="#B258F9"/>
<path d="M424.56 383.179C424.56 383.179 424.104 388.984 425.63 390.417C427.157 391.86 441.806 393.145 442.421 389.971C443.046 386.798 434.439 385.047 434.439 385.047L424.56 383.179Z" fill="#A030F7"/>
<path d="M431.418 234.605C430.951 233.236 430.178 231.962 429.181 230.869C427.92 229.5 426.245 228.025 425.291 228.746C423.786 229.882 423.86 236.398 423.86 236.398H423.871C423.775 238.436 425.302 240.368 427.517 240.686C429.944 241.036 431.619 239.784 431.725 237.449C431.768 236.589 431.821 235.762 431.428 234.615C431.428 234.615 431.428 234.615 431.428 234.605H431.418Z" fill="#E9CFFD"/>
<path d="M427.974 239.009C430.518 237.831 432.447 238.043 432.447 238.043L439.771 255.969C440.068 257.932 439.241 259.79 437.63 260.755L424.02 275.115C421.614 276.495 418.317 275.529 416.695 272.961C415.073 270.392 415.72 267.155 418.126 265.765L430.465 253.836L425.599 240.941C425.599 240.941 426.044 239.901 427.974 238.998V239.009Z" fill="#B258F9"/>
<path d="M426.725 228.619L456.713 240.05C456.713 240.05 462.998 265.755 456.819 275.636L425.453 263.494C425.453 263.494 433.371 248.222 426.725 228.619Z" fill="#D7A7FC"/>
<path d="M423.852 320.954L424.562 383.179C424.562 383.179 428.102 386.872 434.441 385.047L439.37 319.128C439.37 319.128 432.819 318.502 427.01 316.751C425.039 316.156 423.237 315.541 421.668 314.968L423.852 320.943V320.954Z" fill="#B967F9"/>
<path d="M428.504 263.95C424.01 265.723 418.519 263.303 416.304 258.58L413.77 253.157C411.565 248.434 413.431 243.127 417.936 241.355C422.43 239.582 427.921 242.002 430.137 246.725L432.67 252.148C434.875 256.871 433.009 262.178 428.504 263.95Z" fill="#E9CFFD"/>
<path d="M422.597 260.363L421.145 267.357C421.145 267.357 425.607 272.982 432.328 268.758L431.151 261.318C430.854 259.44 429.614 257.975 428.13 257.742L426.052 257.423C424.452 257.179 423 258.41 422.597 260.363Z" fill="#E9CFFD"/>
<path d="M430.634 237.417C424.677 237.194 420.596 237.948 417.797 239.083C416.716 239.423 415.709 239.996 414.819 240.75C411.692 243.138 411.713 245.918 411.713 245.929C411.119 248.476 411.48 251.458 413.292 254.483C413.292 254.483 417.596 262.676 421.613 263.727C425.631 264.778 430.92 257.816 427.56 253.231C424.2 248.646 426.934 245.557 428.302 248.317C429.669 251.066 430.676 252.785 431.259 252.233C431.429 252.074 431.588 251.384 431.535 250.386C431.333 245.186 430.644 237.417 430.644 237.417H430.634Z" fill="#A337F8"/>
<path d="M421.663 264.683C421.663 264.683 428.659 264.396 433.037 266.54L433.896 270.021L419.066 268.556L421.674 264.683H421.663Z" fill="white"/>
<path d="M418.455 267.272C418.455 267.272 439.379 267.601 439.644 275.847C440.407 300.014 440.036 323.182 440.036 323.182C440.036 323.182 420.437 324.923 410.77 318.215C410.77 318.215 415.01 266.476 418.455 267.272Z" fill="#BE72FA"/>
<path d="M440.12 304.386L432.848 304.174C431.481 304.132 430.442 305.225 430.537 306.604C430.633 307.984 431.82 309.141 433.187 309.183L440.13 309.396C440.13 307.825 440.13 306.159 440.13 304.408L440.12 304.386Z" fill="#B258F9"/>
<path d="M461.021 247.235C461.17 245.855 460.979 244.422 460.502 243.053C459.887 241.334 458.944 239.328 457.735 239.54C455.817 239.869 453.114 245.515 453.114 245.515H453.124C452.16 247.234 452.775 249.559 454.736 250.79C456.877 252.148 458.997 251.788 460.099 249.824C460.502 249.102 460.905 248.413 461.032 247.256C461.032 247.256 461.032 247.256 461.032 247.245L461.021 247.235Z" fill="#E9CFFD"/>
<path d="M455.882 249.548C458.797 249.633 460.525 250.652 460.525 250.652L459.783 269.268C459.221 271.093 457.641 272.335 455.712 272.462L436.696 278.947C433.823 279.096 431.12 276.835 430.696 273.916C430.262 270.998 432.254 268.493 435.127 268.344L451.896 263.409L452.808 250.185C452.808 250.185 453.677 249.474 455.882 249.548Z" fill="#BE72FA"/>
<path d="M113.698 349.492C113.698 349.492 113.518 352.283 114.642 353.313C118.415 356.751 127.987 361.825 132.322 359.001C137.962 355.34 121.977 346.987 121.977 346.987L113.698 349.492Z" fill="#A030F7"/>
<path d="M108.462 281.09L113.698 349.481C113.698 349.481 117.684 353.143 124.637 348.728L125.401 277.97C125.401 277.97 118.15 277.757 111.631 276.24C109.416 275.73 107.402 275.189 105.621 274.669L108.451 281.09H108.462Z" fill="#9A23F7"/>
<path d="M99.9364 354.48C99.9364 354.48 99.7562 357.271 100.88 358.301C104.653 361.739 114.225 366.812 118.571 363.989C124.21 360.317 111.861 351.455 111.861 351.455L99.947 354.49L99.9364 354.48Z" fill="#A030F7"/>
<path d="M96.9297 281.886L99.9401 354.48C99.9401 354.48 106.046 356.847 111.854 351.445L114.271 279.593C114.271 279.593 106.925 279.052 100.396 277.258C98.1805 276.653 99.2087 275.794 97.4385 275.21L96.9297 281.886Z" fill="#A337F8"/>
<path d="M113.549 236.218L121.976 256.266C122.739 258.071 123.693 259.779 124.849 261.371L133.233 280.624L143.399 275.816L133.011 259.037C131.908 257.254 131.018 255.333 130.382 253.337L123.704 232.461C122.877 229.893 120.291 228.311 117.63 228.768C114.196 229.351 112.203 232.992 113.549 236.218Z" fill="#A337F8"/>
<path d="M142.136 285.176C144.818 283.86 145.782 280.506 144.182 277.98C143.715 277.259 143.355 276.781 143.355 276.781V276.802C141.765 274.712 138.818 274.213 136.56 275.922C134.08 277.8 133.592 280.559 135.416 282.947C135.511 283.075 135.628 283.245 135.755 283.425C137.143 285.526 139.889 286.28 142.147 285.166L142.136 285.176Z" fill="#E9CFFD"/>
<path d="M151.794 317.516L131.527 305.799C129.725 304.759 128.262 301.957 128.262 299.547V277.292C128.262 274.882 129.725 273.768 131.527 274.819L151.794 286.536C153.596 287.576 155.059 290.378 155.059 292.787V315.043C155.059 317.452 153.596 318.566 151.794 317.516Z" fill="#C684FB"/>
<path d="M140.93 277.333C140.93 277.333 142.308 280.453 140.813 281.716C139.318 282.979 138.937 286.163 141.502 284.815C145.594 282.661 146.155 281.504 144.83 278.458L140.93 277.322V277.333Z" fill="#E9CFFD"/>
<path d="M99.5996 227.896C99.5996 227.896 121.913 224.214 122.792 233.267C125.368 259.8 126.29 283.276 126.29 283.276C126.29 283.276 105.186 288.625 94.0664 281.949C94.0664 281.949 95.7518 227.27 99.5996 227.907V227.896Z" fill="#48A0D9"/>
<path d="M110.963 228.958C110.963 228.958 111.609 251.235 109.277 262.952L112.722 273.162L116.878 263.578C116.878 263.578 114.895 241.068 113.104 228.81L110.963 228.948V228.958Z" fill="#BC6EFA"/>
<path d="M104.51 217.347L103.418 225.148C103.418 225.148 108.813 232.217 115.894 227.09L113.986 217.783C113.52 215.734 112.057 214.217 110.403 214.068L108.093 213.866C106.322 213.707 104.807 215.172 104.499 217.347H104.51Z" fill="#E9CFFD"/>
<path d="M103.743 222.812L111.682 226.113L108.269 232.98L101.156 225.89L103.743 222.812Z" fill="white"/>
<path d="M112.775 223.535C107.454 223.811 102.557 219.364 101.9 213.654L101.136 207.095C100.479 201.385 104.285 196.492 109.606 196.216C114.927 195.94 119.824 200.387 120.481 206.097L121.245 212.656C121.902 218.366 118.096 223.259 112.775 223.535Z" fill="#E9CFFD"/>
<path d="M101.888 213.654C101.888 213.654 103.923 212.731 103.563 208.793C103.203 204.856 106.351 202.606 107.527 205.981C108.704 209.356 109.181 210.746 110.177 209.876C111.174 209.016 111.184 205.078 111.184 205.078C111.184 205.078 118.191 205.301 121.318 200.122C121.318 200.122 115.435 192.619 107.602 194.327C102.143 195.516 98.4007 200.77 98.9095 206.341C99.1215 208.602 99.9271 211.149 101.888 213.654Z" fill="#A337F8"/>
<path d="M106.013 232.503C106.013 232.503 108.271 232.97 106.427 289.549C106.427 289.549 95.2861 290.324 91.2369 286.62C91.2369 286.62 89.8377 248.147 92.9011 229.256C92.9011 228.683 99.6003 225.828 101.158 225.881C102.399 225.912 105.282 231.049 106.003 232.503H106.013Z" fill="#AE4FF9"/>
<path d="M90.9501 232.694L87.1553 255.406C86.8161 257.454 85.3851 263.493 85.5123 265.563L83.4453 283.573L95.2537 285.038L96.7589 265.456C96.7801 263.228 97.0663 261.02 97.6281 258.866L102.133 235.081C102.854 232.311 101.423 229.435 98.7835 228.342C95.3809 226.92 91.5331 229.053 90.9289 232.694H90.9501Z" fill="#BE72FA"/>
<path d="M91.1602 294.749C91.1602 294.749 95.4956 291.002 95.8666 288.126C96.2376 285.25 91.616 284.847 91.616 284.847L91.1602 294.749Z" fill="#E9CFFD"/>
<path d="M87.0492 285.749L75.0606 302.837C74.1808 304.089 74.5624 305.829 75.8874 306.604L99.8752 320.465C102.006 321.696 104.497 319.552 103.606 317.26L91.6178 286.312C90.8652 284.37 88.247 284.051 87.0492 285.749Z" fill="#BC6EFA"/>
<path d="M88.4186 295.343C91.5668 295.651 94.4288 292.573 94.5242 288.731C94.556 287.627 94.5242 286.863 94.5242 286.863H94.503C94.3758 283.52 92.0756 281.036 89.0546 281.439C85.7474 281.885 83.6698 284.613 83.8288 288.455C83.8288 288.667 83.8288 288.922 83.8288 289.208C83.7864 292.445 85.7474 295.077 88.408 295.332L88.4186 295.343Z" fill="#E9CFFD"/>
<path d="M128.791 284.168C127.032 289.422 122.823 285.76 122.823 285.76C122.823 285.76 119.601 248.688 117.152 227.536C117.152 227.536 122.717 225.191 125.802 238.277C128.028 247.733 128.791 284.179 128.791 284.179V284.168Z" fill="#AE4FF9"/>
<path d="M104.134 229.064L99.5977 242.002L102.258 245.143L100.149 250.429L107.049 261.201C107.049 261.201 109.275 233.405 104.134 229.054V229.064Z" fill="#A337F8"/>
<path d="M117.143 227.536C117.143 227.536 117.779 246.81 120.334 258.633L123.503 248.911L120.843 243.934L123.037 241.853L117.133 227.547L117.143 227.536Z" fill="#A337F8"/>
<path d="M111.684 226.115L115.468 232.504L117.948 227.378L115.341 224.374L111.684 226.115Z" fill="white"/>
<path d="M114.61 228.672C114.705 230.189 113.56 231.495 112.044 231.601C110.529 231.696 109.225 230.55 109.119 229.032C109.023 227.515 110.168 226.209 111.684 226.103C113.2 226.008 114.504 227.154 114.61 228.672Z" fill="#BC6EFA"/>
<path d="M324.021 257.815C321.932 258.929 322.028 259.481 322.028 259.481L317.385 243.169C316.495 241.418 316.675 239.316 317.851 237.756L327.731 217.888C329.511 215.596 332.84 215.171 335.129 216.954C337.419 218.737 337.843 222.07 336.062 224.362L324.052 240.696L326.512 257.337C326.512 257.337 326.088 256.701 323.999 257.815H324.021Z" fill="#E9CFFD"/>
<path d="M322.664 225.179C322.664 225.179 324.54 232.078 331.388 234.275C331.388 234.275 341.68 220.212 334.939 215.224C328.197 210.236 322.664 225.179 322.664 225.179Z" fill="#C684FB"/>
<path d="M323.471 262.771C324.531 263.514 325.76 264.003 327.043 264.194C328.654 264.448 330.615 264.523 330.901 263.408C331.346 261.625 327.785 256.796 327.785 256.796C326.757 255.215 324.658 254.705 322.941 255.82C321.054 257.04 320.566 259.004 321.753 260.829C322.188 261.498 322.591 262.145 323.481 262.771C323.481 262.771 323.481 262.771 323.492 262.771H323.471Z" fill="#E9CFFD"/>
<path d="M334.866 204.368L333.414 213.899C333.414 213.899 336.499 219.577 343.208 214.695L343.42 204.485C343.124 202.628 341.883 201.29 340.399 201.205L338.322 201.089C336.721 201.004 335.269 202.373 334.866 204.368Z" fill="#E9CFFD"/>
<path d="M341.353 208.656C336.752 210.641 331.357 208.487 329.385 203.88L327.117 198.584C325.135 193.978 327.286 188.576 331.887 186.602C336.487 184.617 341.883 186.772 343.854 191.378L346.123 196.674C348.105 201.28 345.953 206.682 341.353 208.656Z" fill="#E9CFFD"/>
<path d="M345.339 190.083L342.689 191.887C342.689 191.887 339.191 191.091 339.531 194.456C339.859 197.82 342.424 199.231 342.424 199.231C342.424 199.231 344.513 203.689 343.336 208.889C343.336 208.889 335.142 211.468 326.376 208.889C326.376 208.889 320.08 185.859 335.1 184.776C342.87 184.214 345.35 190.083 345.35 190.083H345.339Z" fill="#A337F8"/>
<path d="M317.396 306.445L314.121 299.78C314.121 299.78 312.276 300.895 310.792 302.211V302.136L305.492 306.562C305.492 306.562 306.075 308.09 307.252 308.993L309.87 308.717C311.471 313.556 314.778 320.763 316.94 319.776C319.929 318.406 317.396 306.445 317.396 306.445Z" fill="#C684FB"/>
<path d="M338.488 320.752L331.895 320.094C331.895 320.094 331.853 320.593 331.832 321.325C331.8 322.344 331.8 323.808 332.012 325.061L332.33 331.63C332.33 331.63 333.909 332.055 335.319 331.63L336.655 328.988C341.51 330.834 349.248 332.925 349.714 330.601C350.371 327.374 338.488 320.752 338.488 320.752Z" fill="#D6A5FC"/>
<path d="M337.144 279C333.954 279.796 330.774 280.603 327.604 281.452L328.94 283.808C330.572 286.695 329.618 290.367 326.788 292.086L312.383 300.853C312.383 300.853 313.443 305.246 317.407 306.456L338.236 296.353C341.194 294.92 342.497 291.407 341.194 288.382L337.155 279H337.144Z" fill="#DDB4FC"/>
<path d="M333.594 276.156L332.778 297.35L331.898 320.094C331.898 320.094 332.121 323.14 338.492 320.752L342.223 296.926L346.166 271.719C342.308 269.83 337.527 268.907 333.223 267.898L333.584 276.166L333.594 276.156Z" fill="#E9CFFD"/>
<path d="M331.844 213.899C331.844 213.899 344.554 208.942 347.458 216.499C352.355 229.213 349.822 219.938 347.564 240.018C347.405 241.408 347.628 244.008 347.893 245.356C352.048 267.103 351.592 283.107 351.592 283.107C351.592 283.107 331.653 287.172 322.951 281.43C322.951 281.43 321.202 263.229 329.205 244.55C329.788 243.18 328.728 239.699 328.579 238.182C326.438 216.371 328.579 215.989 331.855 213.888L331.844 213.899Z" fill="#D6A5FC"/>
<path d="M369.178 200.95C369.178 200.95 366.528 196.015 367.238 192.268C367.948 188.522 368.605 190.188 369.178 192.852C369.761 195.58 372.411 198.87 372.411 198.87L369.178 200.95Z" fill="#E9CFFD"/>
<path d="M379.706 188.565C379.706 194.816 375.318 197.353 369.912 194.232C364.506 191.101 360.117 183.502 360.117 177.24C360.117 170.979 364.506 168.453 369.912 171.573C375.318 174.704 379.706 182.303 379.706 188.565Z" fill="#976FF7"/>
<path d="M376.884 200.218C377.424 198.933 377.668 197.511 377.604 196.057C377.53 194.232 377.202 192.046 375.983 191.886C374.053 191.642 369.813 196.248 369.813 196.248H369.824C368.393 197.617 368.308 200.016 369.824 201.767C371.478 203.699 373.608 203.975 375.241 202.415C375.834 201.842 376.428 201.3 376.884 200.228C376.884 200.228 376.884 200.228 376.884 200.218Z" fill="#E9CFFD"/>
<path d="M374.39 203.03L368.231 219.555C367.617 220.945 366.037 221.19 363.398 221.412L344.339 222.346C340.512 222.198 339.156 221.083 339.601 218.175C340.035 215.257 341.615 213.622 345.632 213.824L363.112 214.026L369.175 200.95L374.39 203.041V203.03Z" fill="#E9CFFD"/>
<path d="M354.838 224.512C354.838 224.512 337.857 226.358 338.927 217.38C339.998 208.411 354.838 212.296 354.838 212.296C357.223 215.809 357.34 220.394 355.135 224.023L354.838 224.512Z" fill="#D6A5FC"/>
<path d="M207.133 320.422L242.558 299.939V279.466L207.133 299.939V320.422Z" fill="#B258F9"/>
<path d="M207.132 320.422V299.939L171.707 279.466V299.939L207.132 320.422Z" fill="#B967F9"/>
<path d="M207.132 299.939L242.557 279.466L207.132 258.982L171.707 279.466L207.132 299.939Z" fill="#AA46F8"/>
<path d="M207.132 258.982L171.707 279.466C171.707 279.466 196.161 295.269 210.863 295.662L245.822 273.385C245.822 273.385 229.233 271.23 207.132 258.982Z" fill="#BE72FA"/>
<path d="M206.288 397.677L170.047 376.727L206.288 355.776L242.53 376.727L206.288 397.677Z" fill="#6AC3DE"/>
<path d="M206.289 355.776L242.53 376.727L206.289 397.677V355.776Z" fill="#89D0E5"/>
<path d="M194.71 351.637L180.167 389.176C179.086 391.967 182.107 394.557 184.704 393.061L213.801 376.239C215.412 375.305 215.878 373.193 214.808 371.675L200.264 350.947C198.812 348.878 195.643 349.26 194.731 351.627L194.71 351.637Z" fill="#682FF4"/>
<path d="M210.834 391.513C216.279 382.071 216.278 371.865 210.833 368.718C205.388 365.57 196.56 370.672 191.116 380.114C185.671 389.556 185.672 399.762 191.117 402.909C196.562 406.057 205.39 400.954 210.834 391.513Z" fill="#B258F9"/>
<path d="M225.699 394.706L206.152 405.998C204.414 407.006 203.004 405.934 203.004 403.61V382.15C203.004 379.826 204.414 377.13 206.152 376.122L225.699 364.829C227.437 363.821 228.847 364.893 228.847 367.217V388.677C228.847 391.002 227.437 393.697 225.699 394.706Z" fill="#D7A7FC"/>
<path d="M206.289 397.677V420.315L242.53 399.365V376.727L206.289 397.677Z" fill="#9CD8E9"/>
<path d="M170.047 399.365V376.727L206.288 397.677V420.315L170.047 399.365Z" fill="#C6E8F2"/>
<path d="M278.546 361.804C270.426 366.495 257.272 366.495 249.152 361.804C241.033 357.113 241.033 349.503 249.152 344.812C257.272 340.121 270.426 340.121 278.546 344.812C286.666 349.503 286.666 357.113 278.546 361.804Z" fill="#C6E8F2"/>
<path d="M380.224 375.644L348.255 380.6C342.976 381.417 341.661 388.433 346.294 391.118L369.698 404.65C372.582 406.316 376.27 405.149 377.67 402.124L386.234 383.646C388.142 379.539 384.697 374.965 380.235 375.654L380.224 375.644Z" fill="#BE72FA"/>
<path d="M90.577 445.234L64.4268 430.12C61.5012 428.422 61.8616 425.472 65.243 423.508L89.7502 409.34C93.1316 407.387 98.2514 407.175 101.177 408.862L127.327 423.975C130.253 425.674 129.892 428.624 126.511 430.587L102.004 444.756C98.6224 446.709 93.5026 446.921 90.577 445.234Z" fill="#C37DFA"/>
<path d="M313.803 397.272L349.228 417.756C349.228 417.756 324.774 433.559 310.072 433.952L275.113 411.675C275.113 411.675 291.702 409.52 313.803 397.272Z" fill="#D6A5FC"/>
</svg>
