<svg width="100" height="100" viewBox="0 0 100 100" fill="none" xmlns="http://www.w3.org/2000/svg">
<path d="M27.0391 66.9502C31.7335 66.9502 35.5391 63.3685 35.5391 58.9502C35.5391 54.5319 31.7335 50.9502 27.0391 50.9502C22.3446 50.9502 18.5391 54.5319 18.5391 58.9502C18.5391 63.3685 22.3446 66.9502 27.0391 66.9502Z" stroke="black" stroke-width="3" stroke-linecap="round" stroke-linejoin="round"/>
<path d="M40.5391 79.9502C39.5438 77.3366 37.7258 75.0734 35.3294 73.4647C32.9329 71.856 30.0728 70.9788 27.1333 70.9509C24.1937 70.923 21.3156 71.7458 18.8854 73.3088C16.4553 74.8718 14.5896 77.1 13.5391 79.6942" stroke="black" stroke-width="3" stroke-linecap="round" stroke-linejoin="round"/>
<path d="M72.5391 66.9502C76.9573 66.9502 80.5391 63.3685 80.5391 58.9502C80.5391 54.5319 76.9573 50.9502 72.5391 50.9502C68.1208 50.9502 64.5391 54.5319 64.5391 58.9502C64.5391 63.3685 68.1208 66.9502 72.5391 66.9502Z" stroke="#3DD3F2" stroke-width="3" stroke-linecap="round" stroke-linejoin="round"/>
<path d="M84.5391 78.9502C83.5266 76.7466 81.9816 74.8519 80.0542 73.4501C78.1268 72.0483 75.8824 71.1872 73.5391 70.9502" stroke="#3DD3F2" stroke-width="3" stroke-linecap="round" stroke-linejoin="round"/>
<path d="M74.5391 86.9502H51.6322L48.5808 73.112C48.5237 72.8522 48.5252 72.5829 48.5853 72.3239C48.6453 72.0648 48.7624 71.8226 48.9278 71.6152C49.0932 71.4077 49.3027 71.2403 49.5409 71.1252C49.7792 71.0101 50.04 70.9503 50.3042 70.9502H68.1749C68.9783 70.9503 69.7576 71.2262 70.3843 71.7324C71.011 72.2385 71.4475 72.9446 71.6218 73.7342L74.5391 86.9502Z" stroke="#3DD3F2" stroke-width="3" stroke-linecap="round" stroke-linejoin="round"/>
<path d="M48.5391 12.9502V26.9502" stroke="black" stroke-width="3" stroke-linecap="round" stroke-linejoin="round"/>
<path d="M40.5391 37.9502L42.4141 26.9502H53.6641L55.5391 37.9502H40.5391Z" stroke="black" stroke-width="3" stroke-linecap="round" stroke-linejoin="round"/>
<path d="M10.5391 86.9502H89.5391" stroke="black" stroke-width="3" stroke-linecap="round" stroke-linejoin="round"/>
</svg>
