<svg width="100" height="100" viewBox="0 0 100 100" fill="none" xmlns="http://www.w3.org/2000/svg">
<path d="M63.7334 80C72.57 80 79.7334 72.8366 79.7334 64C79.7334 55.1634 72.57 48 63.7334 48C54.8968 48 47.7334 55.1634 47.7334 64C47.7334 72.8366 54.8968 80 63.7334 80Z" stroke="#00CCF5" stroke-width="3" stroke-linecap="round" stroke-linejoin="round"/>
<path d="M58.0771 69.6562L69.3909 58.3425" stroke="#00CCF5" stroke-width="3" stroke-linecap="round" stroke-linejoin="round"/>
<path d="M69.3916 69.6562L58.0779 58.3425" stroke="#00CCF5" stroke-width="3" stroke-linecap="round" stroke-linejoin="round"/>
<path d="M40 72H24C21.8667 72 20 70.1333 20 68V24C20 21.8667 21.8667 20 24 20H52.2667C53.3333 20 54.4 20.5333 55.2 21.0667L62.9333 28.8C63.7333 29.6 64 30.6667 64 31.7333V40" stroke="black" stroke-width="3" stroke-linecap="round" stroke-linejoin="round"/>
<path d="M41.8672 33.8667L48.0005 40L41.8672 45.8667" stroke="black" stroke-width="3" stroke-linecap="round" stroke-linejoin="round"/>
<path d="M33.8667 33.8667L28 40L33.8667 45.8667" stroke="black" stroke-width="3" stroke-linecap="round" stroke-linejoin="round"/>
</svg>
