<svg width="100" height="100" viewBox="0 0 100 100" fill="none" xmlns="http://www.w3.org/2000/svg">
<path d="M26.4531 38.7334V28.7334C26.4531 27.4073 26.9272 26.1355 27.7711 25.1979C28.6151 24.2602 29.7597 23.7334 30.9531 23.7334C32.1466 23.7334 33.2912 24.2602 34.1351 25.1979C34.979 26.1355 35.4531 27.4073 35.4531 28.7334V38.7334" stroke="black" stroke-width="3" stroke-linecap="round" stroke-linejoin="round"/>
<path d="M26.4531 33.7334H35.4531" stroke="black" stroke-width="3" stroke-linecap="round" stroke-linejoin="round"/>
<path d="M64.4531 45.7334V49.7334" stroke="#00CCF5" stroke-width="3" stroke-linecap="round" stroke-linejoin="round"/>
<path d="M54.4531 49.7334H73.4531" stroke="#00CCF5" stroke-width="3" stroke-linecap="round" stroke-linejoin="round"/>
<path d="M68.4531 49.7334C68.4531 49.7334 63.7865 63.7334 54.4531 63.7334" stroke="#00CCF5" stroke-width="3" stroke-linecap="round" stroke-linejoin="round"/>
<path d="M64.4531 58.7334C65.4566 60.1725 66.7895 61.3714 68.3496 62.2381C69.9097 63.1048 71.6555 63.6163 73.4531 63.7334" stroke="#00CCF5" stroke-width="3" stroke-linecap="round" stroke-linejoin="round"/>
<path d="M47.2309 71.6334C45.9638 71.6334 44.7485 71.1382 43.8525 70.2568C42.9565 69.3754 42.4531 68.1799 42.4531 66.9334V43.4334C42.4531 42.1869 42.9565 40.9914 43.8525 40.11C44.7485 39.2286 45.9638 38.7334 47.2309 38.7334H80.6753C81.9425 38.7334 83.1577 39.2286 84.0537 40.11C84.9498 40.9914 85.4531 42.1869 85.4531 43.4334V66.9334C85.4531 68.1799 84.9498 69.3754 84.0537 70.2568C83.1577 71.1382 81.9425 71.6334 80.6753 71.6334H75.8976V85.7334L61.5642 71.6334H47.2309Z" stroke="#00CCF5" stroke-width="3" stroke-linecap="round" stroke-linejoin="round"/>
<path d="M33.5642 52.3334L24.0087 61.7334V47.6334H19.2309C17.9638 47.6334 16.7485 47.1382 15.8525 46.2568C14.9565 45.3754 14.4531 44.1799 14.4531 42.9334V19.4334C14.4531 18.1869 14.9565 16.9914 15.8525 16.11C16.7485 15.2286 17.9638 14.7334 19.2309 14.7334H52.6753C53.9425 14.7334 55.1577 15.2286 56.0537 16.11C56.9498 16.9914 57.4531 18.1869 57.4531 19.4334V28.8334" stroke="black" stroke-width="3" stroke-linecap="round" stroke-linejoin="round"/>
</svg>
