<svg width="100" height="100" viewBox="0 0 100 100" fill="none" xmlns="http://www.w3.org/2000/svg">
<path d="M37.5 42.7666C37.5 46.0818 38.817 49.2612 41.1612 51.6054C43.5054 53.9496 46.6848 55.2666 50 55.2666C53.3152 55.2666 56.4946 53.9496 58.8388 51.6054C61.183 49.2612 62.5 46.0818 62.5 42.7666C62.5 39.4514 61.183 36.272 58.8388 33.9278C56.4946 31.5836 53.3152 30.2666 50 30.2666C46.6848 30.2666 43.5054 31.5836 41.1612 33.9278C38.817 36.272 37.5 39.4514 37.5 42.7666Z" stroke="#00CCF5" stroke-width="3" stroke-linecap="round" stroke-linejoin="round"/>
<path d="M26.8733 38.2586C25.584 37.9383 24.3806 37.3392 23.3478 36.5035C22.315 35.6679 21.478 34.6159 20.8958 33.4218C20.3136 32.2276 20.0002 30.9204 19.9779 29.592C19.9555 28.2637 20.2246 26.9466 20.7664 25.7336C21.3081 24.5205 22.1092 23.441 23.1132 22.571C24.1173 21.701 25.2999 21.0618 26.5777 20.6983C27.8555 20.3348 29.1975 20.2559 30.5091 20.4672C31.8208 20.6785 33.0701 21.1747 34.1692 21.9211" stroke="black" stroke-width="3" stroke-linecap="round" stroke-linejoin="round"/>
<path d="M15.3792 66.9502V56.5335L5.20835 48.9043C4.10329 48.0755 3.37272 46.8417 3.17737 45.4742C2.98202 44.1068 3.33789 42.7177 4.16669 41.6126C4.99549 40.5076 6.22933 39.777 7.59679 39.5817C8.96424 39.3863 10.3533 39.7422 11.4584 40.571L20.5 47.3502C21.8634 46.2209 23.5639 45.5773 25.3334 45.521" stroke="black" stroke-width="3" stroke-linecap="round" stroke-linejoin="round"/>
<path d="M73.1318 38.2586C74.4211 37.9383 75.6246 37.3392 76.6573 36.5035C77.6901 35.6679 78.5271 34.6159 79.1093 33.4218C79.6916 32.2276 80.0049 30.9204 80.0273 29.592C80.0496 28.2637 79.7805 26.9466 79.2388 25.7336C78.697 24.5205 77.8959 23.441 76.8919 22.571C75.8878 21.701 74.7052 21.0618 73.4274 20.6983C72.1496 20.3348 70.8076 20.2559 69.496 20.4672C68.1844 20.6785 66.935 21.1747 65.8359 21.9211" stroke="black" stroke-width="3" stroke-linecap="round" stroke-linejoin="round"/>
<path d="M84.6182 66.9502V56.5335L94.7891 48.9043C95.8941 48.0755 96.6247 46.8417 96.82 45.4742C97.0154 44.1068 96.6595 42.7177 95.8307 41.6126C95.0019 40.5076 93.7681 39.777 92.4006 39.5817C91.0332 39.3863 89.6441 39.7422 88.5391 40.571L79.4974 47.3502C78.134 46.2209 76.4335 45.5773 74.6641 45.521" stroke="black" stroke-width="3" stroke-linecap="round" stroke-linejoin="round"/>
<path d="M35.4141 78.1833V69.8499C35.4141 65.9822 36.9505 62.2729 39.6854 59.538C42.4203 56.8031 46.1297 55.2666 49.9974 55.2666C53.8651 55.2666 57.5745 56.8031 60.3094 59.538C63.0443 62.2729 64.5807 65.9822 64.5807 69.8499V78.1833" stroke="#00CCF5" stroke-width="3" stroke-linecap="round" stroke-linejoin="round"/>
</svg>
