<svg width="34" height="34" viewBox="0 0 34 34" fill="none" xmlns="http://www.w3.org/2000/svg">
<path d="M17.0001 33.4313C7.9251 33.4313 0.568848 26.075 0.568848 17C0.568848 7.92501 7.9251 0.568756 17.0001 0.568756C26.0751 0.568756 33.4314 7.92501 33.4314 17C33.4314 26.075 26.0751 33.4313 17.0001 33.4313ZM17.0001 2.35626C8.95635 2.35626 2.35635 8.95626 2.35635 17C2.35635 25.0438 8.95635 31.6438 17.0001 31.6438C25.0438 31.6438 31.6438 25.0438 31.6438 17C31.6438 8.95626 25.0438 2.35626 17.0001 2.35626Z" fill="#134563" fill-opacity="0.6"/>
<path d="M17.3438 26.4188L7.92505 17L17.3438 7.58127L18.5813 8.88752L10.5375 17L18.5813 25.1125L17.3438 26.4188Z" fill="#134563" fill-opacity="0.6"/>
<path d="M9.23145 16.0375H25.7314V17.9625H9.23145V16.0375Z" fill="#134563" fill-opacity="0.6"/>
</svg>
