<svg width="18" height="19" viewBox="0 0 18 19" fill="none" xmlns="http://www.w3.org/2000/svg">
<path d="M12 9V3.83C12 3.3 11.79 2.79 11.41 2.42L9.7 0.710003C9.31 0.320003 8.68 0.320003 8.29 0.710003L6.59 2.41C6.21 2.79 6 3.3 6 3.83V5H2C0.9 5 0 5.9 0 7V17C0 18.1 0.9 19 2 19H16C17.1 19 18 18.1 18 17V11C18 9.9 17.1 9 16 9H12ZM4 17H2V15H4V17ZM4 13H2V11H4V13ZM4 9H2V7H4V9ZM10 17H8V15H10V17ZM10 13H8V11H10V13ZM10 9H8V7H10V9ZM10 5H8V3H10V5ZM16 17H14V15H16V17ZM16 13H14V11H16V13Z" fill="#796EF5"/>
</svg>
