<svg width="16" height="9" viewBox="0 0 16 9" fill="none" xmlns="http://www.w3.org/2000/svg">
<path fill-rule="evenodd" clip-rule="evenodd" d="M0.719105 0.274401C0.426605 0.578151 0.426605 1.0694 0.719105 1.3724L6.91711 7.79465C7.05373 7.93841 7.21816 8.05288 7.40041 8.1311C7.58265 8.20932 7.77891 8.24966 7.97723 8.24966C8.17555 8.24966 8.37181 8.20932 8.55405 8.1311C8.7363 8.05288 8.90073 7.93841 9.03736 7.79465L15.2811 1.3259C15.4206 1.17909 15.4991 0.984674 15.5005 0.782134C15.5019 0.579594 15.4261 0.384117 15.2886 0.235401C15.2207 0.16173 15.1384 0.102784 15.0468 0.0622118C14.9552 0.02164 14.8562 0.000306922 14.756 -0.000466471C14.6558 -0.00123986 14.5565 0.0185629 14.4643 0.0577156C14.3721 0.0968683 14.2889 0.154537 14.2199 0.227151L8.50711 6.14765C8.43879 6.21959 8.35655 6.27688 8.26539 6.31602C8.17423 6.35517 8.07606 6.37535 7.97686 6.37535C7.87765 6.37535 7.77948 6.35517 7.68832 6.31602C7.59716 6.27688 7.51492 6.21959 7.44661 6.14765L1.77886 0.274401C1.7106 0.202484 1.62843 0.145213 1.53733 0.106076C1.44624 0.066939 1.34813 0.0467559 1.24898 0.0467559C1.14983 0.0467559 1.05172 0.066939 0.960627 0.106076C0.869531 0.145213 0.787355 0.202484 0.719105 0.274401Z" fill="#2D22AA"/>
</svg>
