<svg width="24" height="24" viewBox="0 0 24 24" fill="none" xmlns="http://www.w3.org/2000/svg">
<path d="M19.8535 19.1466L12.7069 12L19.8535 4.85346C20.0406 4.65974 20.0406 4.35255 19.8535 4.15876C19.6616 3.96015 19.3451 3.95466 19.1465 4.14649L11.9999 11.293L4.85345 4.14655C4.65973 3.95942 4.35254 3.95942 4.15875 4.14655C3.96014 4.33839 3.95465 4.65491 4.14648 4.85352L11.293 12L4.14648 19.1465C4.05273 19.2402 4.00006 19.3674 4.00006 19.4999C4 19.7761 4.22388 19.9999 4.5 20C4.63263 20.0001 4.75983 19.9474 4.85345 19.8535L11.9999 12.707L19.1465 19.8535C19.2401 19.9475 19.3674 20.0002 19.5 20C19.6325 19.9999 19.7596 19.9473 19.8533 19.8536C20.0486 19.6584 20.0487 19.3418 19.8535 19.1466Z" fill="black"/>
</svg>
