<svg width="19" height="19" viewBox="0 0 19 19" fill="none" xmlns="http://www.w3.org/2000/svg">
<path d="M9.49984 1.58333C7.82071 1.58521 6.2109 2.25308 5.02358 3.4404C3.83626 4.62772 3.16839 6.23754 3.1665 7.91666C3.1665 10.4935 5.03721 12.6334 7.01875 14.8984C7.64575 15.6156 8.29492 16.3574 8.87284 17.1079C8.94679 17.2039 9.04178 17.2815 9.15048 17.335C9.25918 17.3885 9.3787 17.4163 9.49984 17.4163C9.62097 17.4163 9.74049 17.3885 9.84919 17.335C9.9579 17.2815 10.0529 17.2039 10.1268 17.1079C10.7048 16.3574 11.3539 15.6156 11.9809 14.8984C13.9625 12.6334 15.8332 10.4935 15.8332 7.91666C15.8313 6.23754 15.1634 4.62772 13.9761 3.4404C12.7888 2.25308 11.179 1.58521 9.49984 1.58333ZM9.49984 10.2917C9.03011 10.2917 8.57092 10.1524 8.18036 9.8914C7.78979 9.63043 7.48538 9.25951 7.30562 8.82554C7.12586 8.39156 7.07883 7.91403 7.17047 7.45332C7.26211 6.99262 7.48831 6.56943 7.82046 6.23728C8.15261 5.90513 8.57579 5.67894 9.0365 5.5873C9.4972 5.49566 9.97474 5.54269 10.4087 5.72245C10.8427 5.90221 11.2136 6.20662 11.4746 6.59718C11.7355 6.98775 11.8748 7.44693 11.8748 7.91666C11.8748 8.54655 11.6246 9.15064 11.1792 9.59604C10.7338 10.0414 10.1297 10.2917 9.49984 10.2917Z" fill="#606060"/>
</svg>
