<svg width="9" height="15" viewBox="0 0 9 15" fill="none" xmlns="http://www.w3.org/2000/svg">
<path d="M9 7.49951C9 7.93055 8.82081 8.30002 8.52217 8.54633L1.83255 14.5809C1.35472 15.0119 0.697699 14.9504 0.279597 14.4577C-0.0787755 13.9651 -0.0787746 13.2878 0.399055 12.9183L6.25248 7.62267C6.3122 7.56109 6.3122 7.49951 6.25248 7.43794L0.399054 2.1423C-0.0787756 1.71126 -0.138505 1.03391 0.279596 0.541292C0.697697 0.0486743 1.35471 -0.0129035 1.83254 0.418137C1.83254 0.418137 1.83254 0.418137 1.89227 0.479714L8.52217 6.4527C8.82081 6.69901 9 7.13005 9 7.49951Z" fill="#00C1EB"/>
</svg>
