<svg width="79" height="79" viewBox="0 0 79 79" fill="none" xmlns="http://www.w3.org/2000/svg">
<path d="M65.8657 59.4023V73.3391L55.0448 76.5665L44.2239 73.3391V59.4023" stroke="black" stroke-width="3.5" stroke-linecap="round" stroke-linejoin="round"/>
<path d="M76.3134 55.2952L55.0447 47.4609L33.7761 55.2952L55.0447 63.1326L76.3134 55.2952Z" stroke="black" stroke-width="3.5" stroke-linecap="round" stroke-linejoin="round"/>
<path d="M33.7761 54.9238V66.1179" stroke="black" stroke-width="3.5" stroke-linecap="round" stroke-linejoin="round"/>
<path d="M23.6097 51.193C20.9773 45.7324 19.6104 39.8222 19.597 33.8431C19.7719 22.1479 24.8568 10.9742 33.7761 2.68555" stroke="black" stroke-width="3.5" stroke-linecap="round" stroke-linejoin="round"/>
<path d="M46.1201 39.2527C46.3478 37.4482 46.4622 35.6305 46.4626 33.8107C46.3061 22.1277 41.7565 10.9656 33.7761 2.68555" stroke="black" stroke-width="3.5" stroke-linecap="round" stroke-linejoin="round"/>
<path d="M2.4328 34.0293H64.3731" stroke="black" stroke-width="3.5" stroke-linecap="round" stroke-linejoin="round"/>
<path d="M6.16412 19.1035H60.6417" stroke="black" stroke-width="3.5" stroke-linecap="round" stroke-linejoin="round"/>
<path d="M6.16412 48.207H28.5522" stroke="black" stroke-width="3.5" stroke-linecap="round" stroke-linejoin="round"/>
<path d="M23.8224 63.8796C18.1719 62.0179 13.1694 58.5492 9.41176 53.8873C5.65413 49.2255 3.3 43.5672 2.63021 37.5875C1.96041 31.6079 3.00323 25.5593 5.63426 20.1633C8.26528 14.7674 12.3734 10.252 17.4686 7.15566C22.5638 4.05936 28.4309 2.51292 34.3701 2.70085C40.3092 2.88877 46.0695 4.80312 50.9639 8.21552C55.8584 11.6279 59.6802 16.3943 61.9735 21.946C64.2668 27.4978 64.9348 33.6005 63.8978 39.5261" stroke="black" stroke-width="3.5" stroke-linecap="round" stroke-linejoin="round"/>
</svg>
