<svg width="100" height="100" viewBox="0 0 100 100" fill="none" xmlns="http://www.w3.org/2000/svg">
<path d="M25.5559 81.4256L19.1895 73.858C17.2583 71.4684 16.1991 68.492 16.1865 65.4196V49.8941C16.1865 48.6995 16.6611 47.5537 17.5059 46.709C18.3506 45.8642 19.4964 45.3896 20.691 45.3896C21.8857 45.3896 23.0314 45.8642 23.8762 46.709C24.7209 47.5537 25.1955 48.6995 25.1955 49.8941V61.5758" stroke="black" stroke-width="3" stroke-linecap="round" stroke-linejoin="round"/>
<path d="M38.74 81.4247V71.9953C38.7458 69.3211 37.9509 66.7064 36.4577 64.4878L33.0343 59.3527C32.7408 58.8562 32.3482 58.4254 31.881 58.0871C31.4138 57.7488 30.8819 57.5102 30.3186 57.3863C29.7552 57.2623 29.1724 57.2557 28.6064 57.3666C28.0403 57.4776 27.5032 57.7039 27.0283 58.0314C26.1793 58.6022 25.5676 59.4631 25.3078 60.4526C25.0479 61.4421 25.1579 62.4925 25.6169 63.4068L29.671 70.1635" stroke="black" stroke-width="3" stroke-linecap="round" stroke-linejoin="round"/>
<path d="M74.415 81.4256L80.8114 73.858C82.7426 71.4684 83.8018 68.492 83.8144 65.4196V49.8941C83.8144 48.6995 83.3398 47.5537 82.4951 46.709C81.6503 45.8642 80.5046 45.3896 79.3099 45.3896C78.1153 45.3896 76.9695 45.8642 76.1248 46.709C75.28 47.5537 74.8054 48.6995 74.8054 49.8941V61.4857" stroke="black" stroke-width="3" stroke-linecap="round" stroke-linejoin="round"/>
<path d="M61.2618 81.4257V71.9963C61.2559 69.3221 62.0508 66.7073 63.544 64.4888L66.9674 59.3537C67.261 58.8571 67.6536 58.4263 68.1208 58.088C68.588 57.7497 69.1198 57.5112 69.6832 57.3873C70.2465 57.2633 70.8293 57.2566 71.3954 57.3676C71.9614 57.4786 72.4986 57.7049 72.9734 58.0324C73.8224 58.6032 74.4342 59.464 74.694 60.4536C74.9538 61.4431 74.8439 62.4934 74.3848 63.4077L70.3308 70.1645" stroke="black" stroke-width="3" stroke-linecap="round" stroke-linejoin="round"/>
<path d="M50.0029 48.75L42.5466 41.1284C41.8908 40.4876 41.4575 39.6609 41.3079 38.7654C41.1584 37.8699 41.3002 36.951 41.7133 36.1388C42.0262 35.5263 42.483 34.9954 43.0463 34.5898C43.6095 34.1842 44.2631 33.9155 44.9531 33.8058C45.6431 33.6961 46.3499 33.7486 47.0151 33.9589C47.6804 34.1692 48.2852 34.5314 48.7796 35.0155L50.0029 36.209L51.2211 35.0155C51.7156 34.5314 52.3203 34.1692 52.9856 33.9589C53.6509 33.7486 54.3576 33.6961 55.0476 33.8058C55.7377 33.9155 56.3912 34.1842 56.9545 34.5898C57.5177 34.9954 57.9746 35.5263 58.2874 36.1388C58.7 36.9511 58.8416 37.8699 58.692 38.7653C58.5425 39.6607 58.1094 40.4873 57.4541 41.1284L50.0029 48.75Z" stroke="#20D3F6" stroke-width="3" stroke-linecap="round" stroke-linejoin="round"/>
<path d="M50.9386 21.6874L53.9989 25.2895C54.1472 25.4635 54.3389 25.593 54.5536 25.6643C54.7682 25.7356 54.9978 25.746 55.2178 25.6943L59.7642 24.6197C59.9377 24.579 60.1177 24.5768 60.2921 24.6133C60.4665 24.6497 60.6312 24.724 60.7751 24.831C60.919 24.9381 61.0389 25.0754 61.1265 25.2338C61.2141 25.3922 61.2674 25.568 61.2829 25.7493L61.6903 30.5009C61.7096 30.7309 61.7899 30.9511 61.9226 31.1378C62.0552 31.3245 62.2353 31.4707 62.4432 31.5605L66.7387 33.4249C66.9035 33.4957 67.0515 33.6021 67.1724 33.7368C67.2934 33.8715 67.3845 34.0313 67.4396 34.2052C67.4947 34.3792 67.5124 34.5633 67.4915 34.7449C67.4707 34.9265 67.4117 35.1013 67.3188 35.2575L64.9152 39.346C64.7992 39.5438 64.7379 39.7701 64.7379 40.0008C64.7379 40.2314 64.7992 40.4578 64.9152 40.6556L67.3188 44.7441C67.4117 44.9003 67.4707 45.0751 67.4915 45.2567C67.5124 45.4383 67.4947 45.6224 67.4396 45.7964C67.3845 45.9703 67.2934 46.1301 67.1724 46.2648C67.0515 46.3995 66.9035 46.5059 66.7387 46.5767L62.4432 48.4411C62.2353 48.5309 62.0552 48.6771 61.9226 48.8638C61.7899 49.0505 61.7096 49.2707 61.6903 49.5007L61.2829 54.2523C61.2674 54.4336 61.2141 54.6094 61.1265 54.7678C61.0389 54.9262 60.919 55.0635 60.7751 55.1706C60.6312 55.2776 60.4665 55.3519 60.2921 55.3883C60.1177 55.4248 59.9377 55.4226 59.7642 55.3819L55.2178 54.3073C54.9978 54.2556 54.7682 54.266 54.5536 54.3373C54.3389 54.4086 54.1472 54.5381 53.9989 54.7121L50.9386 58.3125C50.8219 58.4498 50.6777 58.56 50.5158 58.6355C50.3539 58.7109 50.178 58.75 50 58.75C49.822 58.75 49.6461 58.7109 49.4842 58.6355C49.3223 58.56 49.1781 58.4498 49.0614 58.3125L46.0011 54.6988C45.8528 54.5248 45.6611 54.3953 45.4464 54.324C45.2318 54.2527 45.0022 54.2423 44.7822 54.2939L40.2358 55.3686C40.0623 55.4093 39.8823 55.4115 39.7079 55.375C39.5335 55.3386 39.3688 55.2643 39.2249 55.1573C39.081 55.0502 38.9611 54.9128 38.8735 54.7544C38.7859 54.596 38.7326 54.4202 38.7171 54.239L38.3097 49.4907C38.2904 49.2607 38.2101 49.0405 38.0774 48.8538C37.9448 48.6671 37.7647 48.5209 37.5568 48.4311L33.2613 46.5634C33.0965 46.4925 32.9485 46.3861 32.8276 46.2514C32.7066 46.1168 32.6155 45.957 32.5604 45.783C32.5053 45.6091 32.4876 45.425 32.5085 45.2434C32.5293 45.0618 32.5883 44.8869 32.6812 44.7307L35.0848 40.6422C35.2015 40.4447 35.2632 40.2183 35.2632 39.9875C35.2632 39.7567 35.2015 39.5303 35.0848 39.3327L32.6812 35.2509C32.5883 35.0947 32.5293 34.9198 32.5085 34.7382C32.4876 34.5566 32.5053 34.3725 32.5604 34.1986C32.6155 34.0246 32.7066 33.8648 32.8276 33.7302C32.9485 33.5955 33.0965 33.4891 33.2613 33.4182L37.5568 31.5605C37.7652 31.4704 37.9455 31.3238 38.0782 31.1364C38.2109 30.949 38.291 30.7281 38.3097 30.4976L38.7171 25.746C38.7326 25.5647 38.7859 25.3889 38.8735 25.2305C38.9611 25.0721 39.081 24.9347 39.2249 24.8277C39.3688 24.7206 39.5335 24.6464 39.7079 24.6099C39.8823 24.5735 40.0623 24.5757 40.2358 24.6164L44.7822 25.691C45.0022 25.7427 45.2318 25.7323 45.4464 25.661C45.6611 25.5897 45.8528 25.4601 46.0011 25.2861L49.0614 21.6841C49.1786 21.5475 49.3231 21.438 49.4851 21.3631C49.6471 21.2883 49.8229 21.2497 50.0007 21.25C50.1785 21.2503 50.3542 21.2895 50.516 21.365C50.6777 21.4404 50.8218 21.5504 50.9386 21.6874Z" stroke="#20D3F6" stroke-width="3" stroke-linecap="round" stroke-linejoin="round"/>
</svg>
