<svg width="139" height="42" viewBox="0 0 139 42" fill="none" xmlns="http://www.w3.org/2000/svg">
<path d="M19.2885 5.0188H22.278C22.4371 5.0188 22.5849 5.08083 22.6929 5.19361L57.6233 40.2801L53.4006 40.3252C53.2414 40.3252 53.0936 40.2632 52.98 40.156L23.5227 10.9004C23.1533 10.5338 22.5224 10.7932 22.5224 11.312V20.1372C22.5224 20.4586 22.261 20.718 21.937 20.718H19.2885C18.9646 20.718 18.7031 20.4586 18.7031 20.1372V5.59963C18.7031 5.2782 18.9646 5.0188 19.2885 5.0188ZM54.3895 24.9812H57.038C57.3619 24.9812 57.6233 25.2406 57.6233 25.562V35.0583C57.6233 35.5771 56.9868 35.8365 56.6174 35.4643L53.9689 32.7688C53.8609 32.6617 53.8041 32.515 53.8041 32.3628V25.562C53.8041 25.2406 54.0655 24.9812 54.3895 24.9812Z" fill="#0583E3"/>
<path d="M32.8334 5.0188H35.4819C35.8059 5.0188 36.0673 5.2782 36.0673 5.59963V15.0056C36.0673 15.5414 35.4024 15.7895 35.0443 15.3947L32.3958 12.4568C32.2992 12.3496 32.248 12.2143 32.248 12.0677V5.60526C32.248 5.28384 32.5095 5.02444 32.8334 5.02444V5.0188Z" fill="#0583E3"/>
<path d="M54.8457 18.5752V20.6842C54.8457 21.0056 54.5842 21.265 54.2603 21.265H40.6655C40.3415 21.265 40.0801 21.0056 40.0801 20.6842V5.59963C40.0801 5.2782 40.3415 5.0188 40.6655 5.0188H54.0955C54.4194 5.0188 54.6808 5.2782 54.6808 5.59963V7.71429C54.6808 8.03572 54.4194 8.29511 54.0955 8.29511H44.6212C44.2972 8.29511 44.0358 8.55451 44.0358 8.87594V10.9399C44.0358 11.2613 44.2972 11.5207 44.6212 11.5207H52.5268C52.8508 11.5207 53.1122 11.7801 53.1122 12.1015V14.188C53.1122 14.5094 52.8508 14.7688 52.5268 14.7688H44.6212C44.2972 14.7688 44.0358 15.0282 44.0358 15.3496V17.4135C44.0358 17.735 44.2972 17.9944 44.6212 17.9944H54.2603C54.5842 17.9944 54.8457 18.2538 54.8457 18.5752Z" fill="#0583E3"/>
<path d="M57.5893 6.91343C58.0213 6.42847 57.9758 6.80629 57.8849 7.03186C56.5379 10.3871 56.4867 13.5901 57.7144 16.6127C57.8451 16.9341 57.5325 16.9285 57.5097 16.889C55.6058 14.0525 55.7877 9.74426 57.5893 6.91343Z" fill="#007EDD"/>
<path d="M85.0233 3.69351C84.9778 3.61456 84.5288 3.5187 84.6368 3.85141C86.3134 8.84201 85.5405 13.8495 82.9886 18.0112C82.7158 18.4567 83.2386 18.4849 83.2841 18.4398C86.9215 14.639 87.5353 8.00178 85.0176 3.69915L85.0233 3.69351Z" fill="#FF9B00"/>
<path d="M84.8929 1.77068C84.2734 0.671053 83.2504 0 80.8974 0C78.5388 0 76.3564 1.48308 76.3564 1.48308C76.3564 1.48308 72.8042 3.96992 68.5701 9.36654C66.9673 7.68045 64.7792 5.59398 64.7792 5.59398C64.7792 5.59398 63.0401 4.1109 61.6363 4.1109C60.2381 4.1109 57.8511 4.51128 57.8454 5.56579C57.8454 6.08459 59.755 6.25376 60.5791 7.08271C61.4032 7.91165 65.7681 12.5695 65.7681 12.5695C65.7681 12.5695 62.3922 17.1372 60.5393 17.8985C58.6865 18.6541 58.3228 17.6222 57.8454 18.5301C57.5953 19.0094 60.096 20.8929 63.0401 20.188C65.9898 19.4831 68.7065 15.5921 68.7065 15.5921C68.7065 15.5921 71.9062 19.1842 74.2023 20.718C76.4985 22.2519 79.0958 22.2011 80.1927 21.9135C82.0171 21.4398 83.33 20.515 83.1197 20.2556C82.5059 19.4944 81.1816 20.6391 79.2549 19.5564C78.2319 18.9812 76.6917 17.9041 75.3561 16.6748C73.2532 14.7293 71.3663 12.4906 71.3663 12.4906C71.3663 12.4906 75.5323 7.33083 77.118 5.7406C78.3058 4.54511 80.17 3.1015 82.4092 2.04135C83.3925 1.57895 85.1941 2.30639 84.8872 1.76504L84.8929 1.77068Z" fill="url(#paint0_linear_159_2735)"/>
<path d="M90.1443 5.0188H92.9292C93.2532 5.0188 93.5146 5.2782 93.5146 5.59963V14.6278C93.5146 16.9737 95.663 18.1579 97.8454 18.1579C100.028 18.1579 102.176 16.9737 102.176 14.6278V5.59963C102.176 5.2782 102.438 5.0188 102.762 5.0188H105.546C105.87 5.0188 106.132 5.2782 106.132 5.59963V14.6278C106.132 19.4323 101.989 21.8459 97.8511 21.8459C93.7135 21.8459 89.5703 19.4323 89.5703 14.6278V5.59963C89.5703 5.2782 89.8318 5.0188 90.1557 5.0188H90.1443Z" fill="#0583E3"/>
<path d="M122.983 10.015C122.801 10.3083 122.426 10.3703 122.136 10.1729C120.568 9.10151 118.09 8.45301 116.118 8.45301C114.384 8.45301 113.077 8.93797 113.077 10.0545C113.077 12.8853 124.609 10.7538 124.609 17.2274C124.609 20.8026 120.863 22.2406 116.794 22.2406C113.702 22.2406 110.411 21.4173 108.365 20.0696C108.11 19.9004 108.047 19.5508 108.206 19.2914L109.525 17.0808C109.707 16.7763 110.099 16.7199 110.389 16.9229C112.071 18.0959 114.964 18.8064 117.192 18.8064C118.925 18.8064 120.278 18.344 120.278 17.3233C120.278 14.3741 108.792 16.4154 108.792 9.98684C108.792 6.41166 112.162 5.0188 115.953 5.0188C118.863 5.0188 122.011 5.81955 124.091 7.09963C124.364 7.2688 124.432 7.62406 124.268 7.89474L122.977 10.015H122.983Z" fill="#0583E3"/>
<path d="M9.1729 24.688C12.2249 24.688 14.8734 25.8384 16.6353 27.8177C16.8512 28.0545 16.8115 28.4324 16.5671 28.641L14.5153 30.4117C14.271 30.6203 13.9243 30.5865 13.6969 30.3609C12.6057 29.25 10.9291 28.4436 9.33204 28.4436C5.84809 28.4436 4.0919 30.8797 4.0919 33.344C4.0919 35.8083 5.84809 38.2162 9.33204 38.2162C11.3497 38.2162 12.7137 37.3534 13.6969 36.2763C13.9186 36.0339 14.2823 36 14.5267 36.2143L16.5557 37.9681C16.8001 38.1824 16.8342 38.5602 16.6182 38.8026C14.8166 40.7538 12.1738 42 9.14449 42C4.93305 42 -0.00585938 39.0508 -0.00585938 33.344C-0.00585938 27.6372 4.95579 24.688 9.16722 24.688H9.1729Z" fill="#FFA200"/>
<path d="M28.6662 42C24.3638 42 19.334 39.1466 19.334 33.344C19.334 27.5414 24.3638 24.688 28.6662 24.688C32.9686 24.688 38.0041 27.5414 38.0041 33.344C38.0041 39.1466 32.9515 42 28.6662 42ZM28.6662 28.3985C26.211 28.3985 23.3579 30.0226 23.3579 33.344C23.3579 36.6654 26.211 38.2669 28.6662 38.2669C31.1214 38.2669 33.9518 36.6654 33.9518 33.344C33.9518 30.0226 31.0987 28.3985 28.6662 28.3985Z" fill="#FFA200"/>
<path d="M43.4333 40.5958H40.6655C40.3415 40.5958 40.0801 40.3364 40.0801 40.015V31.4097C40.0801 30.8966 40.7053 30.6372 41.0747 30.9924L43.8425 33.671C43.9562 33.7781 44.0187 33.9304 44.0187 34.0883V40.015C44.0187 40.3364 43.7573 40.5958 43.4333 40.5958Z" fill="#FFA200"/>
<path d="M61.4327 24.688H64.5302C64.7007 24.688 64.8655 24.7613 64.9735 24.891L78.8127 40.9343L74.6183 40.9794C74.4421 40.9794 74.2773 40.9061 74.1636 40.7707L65.826 30.9587C65.4736 30.5471 64.7916 30.7895 64.7916 31.3309V40.3478C64.7916 40.6692 64.5302 40.9286 64.2062 40.9286H61.4213C61.0974 40.9286 60.8359 40.6692 60.8359 40.3478V25.2576C60.8359 24.9362 61.0974 24.6768 61.4213 24.6768L61.4327 24.688ZM75.4481 24.688H78.233C78.5569 24.688 78.8183 24.9474 78.8183 25.2689V35.0753C78.8183 35.611 78.1534 35.8591 77.7953 35.4644L75.0104 32.3741C74.9138 32.267 74.8627 32.1316 74.8627 31.985V25.2632C74.8627 24.9418 75.1241 24.6824 75.4481 24.6824V24.688Z" fill="#FFA200"/>
<path d="M98.2894 38.5544V40.6634C98.2894 40.9849 98.0279 41.2443 97.704 41.2443H84.1206C83.7966 41.2443 83.5352 40.9849 83.5352 40.6634V25.5845C83.5352 25.2631 83.7966 25.0037 84.1206 25.0037H97.5392C97.8631 25.0037 98.1246 25.2631 98.1246 25.5845V27.6935C98.1246 28.0149 97.8631 28.2743 97.5392 28.2743H88.0706C87.7466 28.2743 87.4851 28.5337 87.4851 28.8552V30.9191C87.4851 31.2405 87.7466 31.4999 88.0706 31.4999H95.9705C96.2945 31.4999 96.5559 31.7593 96.5559 32.0807V34.1672C96.5559 34.4886 96.2945 34.748 95.9705 34.748H88.0706C87.7466 34.748 87.4851 35.0074 87.4851 35.3289V37.3928C87.4851 37.7142 87.7466 37.9736 88.0706 37.9736H97.704C98.0279 37.9736 98.2894 38.233 98.2894 38.5544Z" fill="#FFA200"/>
<path d="M110.599 24.688C113.651 24.688 116.299 25.8384 118.061 27.8177C118.277 28.0545 118.237 28.4324 117.993 28.641L115.941 30.4117C115.697 30.6203 115.35 30.5865 115.123 30.3609C114.031 29.25 112.355 28.4436 110.758 28.4436C107.274 28.4436 105.518 30.8797 105.518 33.344C105.518 35.8083 107.274 38.2162 110.758 38.2162C112.775 38.2162 114.139 37.3534 115.123 36.2763C115.344 36.0339 115.708 36 115.952 36.2143L117.981 37.9681C118.226 38.1824 118.26 38.5602 118.044 38.8026C116.242 40.7538 113.6 42 110.57 42C106.359 42 101.42 39.0508 101.42 33.344C101.42 27.6372 106.376 24.688 110.593 24.688H110.599Z" fill="#FFA200"/>
<path d="M138.999 25.2688V27.3553C138.999 27.6767 138.737 27.9361 138.413 27.9361H121.312C120.988 27.9361 120.727 27.6767 120.727 27.3553V25.2688C120.727 24.9474 120.988 24.688 121.312 24.688H138.413C138.737 24.688 138.999 24.9474 138.999 25.2688ZM128.473 30.4906H131.258C131.582 30.4906 131.843 30.75 131.843 31.0714V40.3534C131.843 40.6748 131.582 40.9342 131.258 40.9342H128.473C128.149 40.9342 127.888 40.6748 127.888 40.3534V31.0714C127.888 30.75 128.149 30.4906 128.473 30.4906Z" fill="#FFA200"/>
<defs>
<linearGradient id="paint0_linear_159_2735" x1="83.1481" y1="11.0019" x2="57.0952" y2="11.0821" gradientUnits="userSpaceOnUse">
<stop offset="0.11" stop-color="#FF9B00"/>
<stop offset="0.4" stop-color="#FF9F00"/>
<stop offset="0.43" stop-color="#F29D0C"/>
<stop offset="0.49" stop-color="#D09A2E"/>
<stop offset="0.57" stop-color="#999465"/>
<stop offset="0.66" stop-color="#4E8CB0"/>
<stop offset="0.75" stop-color="#0085FF"/>
</linearGradient>
</defs>
</svg>
