<svg width="523" height="383" viewBox="0 0 523 383" fill="none" xmlns="http://www.w3.org/2000/svg">
<path d="M440.412 230.873C436.843 230.873 433.571 229.631 430.72 227.67C430.621 233.654 430.993 239.664 432.158 245.525C435.975 251.683 446.534 263.007 445.84 262.933C442.891 262.684 440.09 261.914 437.363 260.946C439.173 264.671 441.329 268.222 443.833 271.525C448.963 278.379 456.275 283.867 459.052 292.236C459.101 292.434 459.225 292.558 459.374 292.608C459.423 293.08 459.944 293.452 460.365 293.055C474.171 279.918 476.625 259.977 478.658 241.998C478.757 241.154 478.856 240.31 478.931 239.44C475.113 243.265 471.048 246.766 466.215 249.374C465.546 249.746 474.866 234.822 479.402 227.943C479.253 223.622 478.584 219.351 477.022 215.179C473.8 206.512 468.247 198.391 462.894 190.942C462.67 190.644 462.423 190.346 462.2 190.023C460.737 193.872 458.804 197.522 456.251 200.8C455.805 201.371 457.217 189.899 458.11 184.634C456.771 182.945 455.408 181.282 454.02 179.667C452.186 177.482 449.905 173.807 446.609 174.303C443.411 174.75 436.099 187.912 435.182 191.687C434.785 193.301 434.414 194.94 434.091 196.579C433.943 197.274 433.794 198.019 433.67 198.714C432.455 205.32 431.737 212.099 431.216 218.73C431.439 219.077 431.662 219.45 431.935 219.773C434.612 223.423 441.106 230.848 440.462 230.848L440.412 230.873Z" fill="#03F3FF"/>
<path d="M453.003 224.243C446.187 223.224 440.982 218.904 436 214.458C435.256 213.788 436.173 212.546 436.942 213.217C441.626 217.389 446.509 221.536 452.855 222.628C451.417 212.472 449.707 202.34 447.724 192.282C447.525 191.289 449.062 191.066 449.261 192.034C451.888 205.394 454.044 218.804 455.705 232.289C459.621 226.701 462.621 220.667 464.727 214.136C465.025 213.167 466.487 213.763 466.165 214.707C463.959 221.61 460.712 227.992 456.498 233.878C456.35 234.101 456.126 234.176 455.928 234.176C456.275 237.131 456.622 240.086 456.92 243.041C459.77 239.49 462.001 235.616 463.612 231.32C463.959 230.376 465.397 230.948 465.05 231.891C463.265 236.659 460.737 241.005 457.44 244.879C457.341 245.003 457.242 245.053 457.118 245.102C458.109 254.837 458.878 264.571 459.374 274.331C459.423 274.43 459.448 274.53 459.473 274.654C459.671 278.23 459.795 281.806 459.844 285.357C459.919 287.691 459.993 290.025 460.043 292.335C460.043 292.583 459.968 292.757 459.82 292.856C459.423 314.858 456.176 336.612 451.541 358.167C451.045 358.043 450.525 357.944 450.029 357.82C455.259 333.483 458.729 308.849 458.258 283.916C458.159 281.284 458.06 278.652 457.936 276.02C457.738 276.094 457.49 276.094 457.242 275.92C454.391 273.958 451.987 271.5 450.103 268.619C449.558 267.775 450.773 266.806 451.318 267.651C453.053 270.333 455.234 272.593 457.837 274.43C456.969 257.618 455.358 240.856 453.028 224.168C453.028 224.168 452.979 224.168 452.954 224.168L453.003 224.243Z" fill="#AD16FF"/>
<path d="M507.113 269.464C510.162 270.656 513.285 270.78 516.284 270.259C514.648 274.803 512.591 279.174 509.889 283.197C504.857 286.574 492.588 291.59 493.207 291.789C495.785 292.584 498.388 292.906 500.99 293.105C498.363 295.315 495.513 297.277 492.414 298.941C486.069 302.393 478.261 304.106 473.477 309.495C473.378 309.619 473.229 309.669 473.105 309.669C472.932 309.992 472.362 310.116 472.114 309.669C464.182 295.266 467.875 279.472 471.37 265.292C471.544 264.622 471.693 263.951 471.891 263.281C474.023 267.428 476.476 271.376 479.823 274.952C480.294 275.449 476.7 261.17 474.816 254.49C476.204 251.311 478.013 248.306 480.541 245.674C485.796 240.236 492.86 235.964 499.602 232.115C499.875 231.966 500.173 231.817 500.445 231.668C500.569 235.046 501.164 238.423 502.379 241.726C502.577 242.297 504.709 233.208 505.502 228.986C507.138 228.167 508.774 227.347 510.434 226.602C512.64 225.584 515.639 223.548 518.292 225.013C520.894 226.404 523.274 238.696 522.976 241.825C522.852 243.166 522.679 244.507 522.481 245.848C522.406 246.419 522.307 247.015 522.208 247.586C521.316 252.95 519.977 258.289 518.49 263.43C518.192 263.628 517.895 263.827 517.573 264.001C514.227 265.863 506.568 269.29 507.113 269.514V269.464Z" fill="#03F3FF"/>
<path d="M460.712 361.495C463.042 343.789 466.586 326.356 472.609 309.693C472.535 309.569 472.485 309.395 472.56 309.221C473.279 307.483 473.997 305.769 474.741 304.031C475.807 301.374 476.947 298.717 478.162 296.109C478.211 296.01 478.261 295.935 478.335 295.886C481.607 288.709 485.077 281.632 488.745 274.653C488.671 274.579 488.597 274.504 488.547 274.38C486.886 270.382 485.969 266.285 485.845 262.113C485.845 261.293 487.209 261.318 487.233 262.162C487.357 265.912 488.126 269.563 489.514 273.163C490.629 271.053 491.769 268.942 492.934 266.831C492.761 266.757 492.612 266.632 492.538 266.409C490.654 260.598 489.762 254.737 489.886 248.827C489.886 248.008 491.298 248.057 491.274 248.877C491.15 254.464 491.968 259.977 493.678 265.49C499.032 255.905 504.733 246.518 510.855 237.354C511.301 236.684 512.541 237.354 512.095 238.05C507.484 244.953 503.122 252.006 498.933 259.158C504.634 260.424 510.012 258.909 515.193 257.32C516.036 257.072 516.457 258.313 515.614 258.562C510.062 260.25 504.411 261.79 498.313 260.3C498.313 260.3 498.288 260.3 498.264 260.3C491.447 272.071 485.201 284.14 479.599 296.482C482.35 295.96 484.854 294.967 487.11 293.527C487.828 293.08 488.572 294.222 487.853 294.669C485.424 296.233 482.648 297.276 479.674 297.823C479.426 297.872 479.227 297.798 479.054 297.649C478.186 299.586 477.319 301.523 476.476 303.46C468.842 322.06 464.653 341.703 462.05 361.718C461.579 361.644 461.133 361.569 460.662 361.495H460.712Z" fill="#AD16FF"/>
<path d="M510.334 250.541C514.771 249.647 518.836 248.082 522.455 245.798C522.381 246.369 522.282 246.965 522.182 247.536C518.712 249.523 514.895 250.963 510.756 251.783C509.888 251.956 509.467 250.715 510.31 250.541H510.334Z" fill="#C0B7DD"/>
<path d="M378.717 262.262C378.791 267.899 391.779 270.606 395.919 272.146C405.04 275.523 413.964 278.95 420.706 286.3C428.662 294.967 435.528 304.975 442.394 314.536C442.84 315.156 443.435 315.33 444.005 315.231C444.104 315.231 444.873 313.617 445.889 311.109C448.244 305.273 451.887 294.57 450.97 288.486C450.35 284.214 448.863 280.117 446.831 276.342C446.36 278.254 445.591 280.092 444.228 281.483C443.906 281.806 443.187 273.809 442.741 270.159C442.146 269.414 441.526 268.694 440.882 268.023C439.42 266.434 437.808 264.944 436.073 263.603C435.701 263.305 435.354 263.007 434.958 262.759C433.57 261.716 432.107 260.747 430.595 259.853C430.199 259.63 429.802 259.381 429.381 259.158C427.968 258.363 426.506 257.643 425.018 256.997C424.547 259.754 423.853 262.436 422.614 265.018C422.366 265.54 421.747 258.686 421.672 255.656C420.259 255.135 418.822 254.688 417.359 254.266C416.938 256.054 416.393 257.792 415.575 259.431C415.376 259.828 413.443 255.185 412.749 253.123C408.114 252.18 403.38 251.807 398.844 252.031C398.447 252.031 398.05 252.056 397.654 252.105C396.415 252.18 395.175 252.329 393.961 252.527C389.474 253.223 378.94 256.054 378.742 262.113C378.742 262.163 378.742 262.237 378.742 262.287L378.717 262.262Z" fill="#03F3FF"/>
<path d="M428.663 277.038C439.693 287.939 443.113 307.98 443.832 313.667C444.923 315.951 445.716 318.385 446.113 321.067C447.426 330.056 447.03 339.543 446.807 348.607C446.732 351.587 446.608 354.567 446.435 357.547C445.914 357.447 445.419 357.348 444.898 357.249C444.997 355.361 445.072 353.499 445.146 351.611C445.419 343.491 445.419 335.371 445.047 327.25C444.849 323.053 444.477 318.857 442.841 314.958C442.667 314.834 442.494 314.71 442.345 314.511C435.479 304.95 428.613 294.942 420.657 286.276C413.915 278.925 404.991 275.498 395.87 272.121C391.755 270.581 378.767 267.874 378.668 262.237C395.969 264.249 415.922 264.472 428.613 277.013L428.663 277.038Z" fill="#03F3FF"/>
<path d="M429.158 271.674C429.976 267.477 430.05 263.305 429.381 259.108C429.802 259.332 430.199 259.58 430.595 259.804C431.141 263.827 431.017 267.874 430.248 271.897C430.1 272.618 429.009 272.369 429.133 271.649L429.158 271.674Z" fill="#6C56B0"/>
<path d="M433.372 273.934C434.364 270.234 434.884 266.534 434.983 262.734C435.355 263.008 435.727 263.306 436.099 263.579C435.95 267.155 435.429 270.681 434.488 274.182C434.289 274.878 433.199 274.629 433.372 273.934Z" fill="#6C56B0"/>
<path d="M414.906 349.079C414.906 352.009 415.204 354.84 415.799 357.597C417.93 367.555 423.706 376.172 431.662 381.958H479.178C487.135 376.172 492.91 367.579 495.017 357.597C495.612 354.865 495.909 352.009 495.909 349.079C495.909 346.149 495.562 343.069 494.943 340.238C494.422 337.805 493.654 335.47 492.712 333.235H418.104C417.162 335.47 416.393 337.805 415.873 340.238C415.228 343.094 414.906 346.049 414.906 349.079Z" fill="#E0DBEE"/>
<path d="M414.906 349.078C414.906 352.009 415.204 354.84 415.799 357.596C417.93 367.554 423.706 376.171 431.662 381.957H479.178C417.088 385.037 418.129 333.26 418.129 333.26C417.187 335.495 416.418 337.829 415.898 340.263C415.253 343.119 414.931 346.074 414.931 349.103L414.906 349.078Z" fill="#DAD5EB"/>
<path d="M44.5179 383H340.025C348.825 383 354.947 375.848 353.708 367.057L327.508 165.289C326.269 156.473 318.139 149.346 309.364 149.346H13.8319C5.03261 149.346 -1.08971 156.473 0.149629 165.289L26.3492 367.057C27.5885 375.873 35.7186 383 44.4931 383H44.5179Z" fill="#6C56B0"/>
<path d="M56.3656 367.951H351.873C360.672 367.951 366.795 360.824 365.555 352.009L339.356 165.264C338.116 156.448 329.986 149.321 321.212 149.321H25.7044C16.9299 149.321 10.7828 156.448 12.0222 165.264L38.2217 352.009C39.4611 360.824 47.5911 367.951 56.3656 367.951Z" fill="#9D8ECA"/>
<path d="M351.724 344.708L327.582 172.565C326.442 164.445 318.956 157.864 310.851 157.864H38.4697C30.3645 157.864 24.7131 164.445 25.8533 172.565L49.9955 344.708H351.724Z" fill="url(#paint0_linear_2122_13122)"/>
<path d="M458.133 382.975L56.6623 382.975C45.7313 382.975 36.8824 374.084 36.8824 363.158V348.854L477.938 348.854V363.158C477.938 374.109 469.064 382.975 458.158 382.975H458.133Z" fill="#6C56B0"/>
<path d="M39.1634 361.445H478.409V348.854H37.7754L39.1634 361.445Z" fill="#9D8ECA"/>
<path d="M283.362 236.336L283.461 237.106C284.453 244.63 279.669 250.789 272.555 251.435C272.134 251.484 271.712 251.484 271.266 251.484H270.498L211.381 251.261L117.737 250.888H116.746C108.888 250.863 101.65 244.332 100.56 236.286L100.089 232.835L99.3949 227.744L97.4367 213.142L84.498 116.393L111.045 116.492L240.927 117.013L267.399 117.113L283.362 236.336Z" fill="#AD16FF"/>
<path d="M267.399 117.113L84.498 116.392L159.503 41.5952C162.725 38.3669 168.153 38.3918 172.268 41.6449L267.375 117.088L267.399 117.113Z" fill="url(#paint1_linear_2122_13122)"/>
<path d="M252.181 200.974L122.298 200.477L100.387 36.7031L230.269 37.2246L252.181 200.974Z" fill="white"/>
<path d="M175.068 77.5782L225.386 77.7768L224.989 74.8217L174.672 74.623L175.068 77.5782Z" fill="#9D8ECA"/>
<path d="M176.58 88.8272L226.897 89.0259L226.501 86.0707L176.184 85.8721L176.58 88.8272Z" fill="#9D8ECA"/>
<path d="M178.092 100.077L228.409 100.276L228.012 97.3207L177.695 97.1221L178.092 100.077Z" fill="#9D8ECA"/>
<path d="M179.58 111.351L229.922 111.525L229.525 108.57L179.184 108.371L179.58 111.351Z" fill="#9D8ECA"/>
<path d="M181.092 122.6L231.409 122.799L231.012 119.819L180.695 119.62L181.092 122.6Z" fill="#9D8ECA"/>
<path d="M125.371 134.818L233.045 135.215L232.648 132.26L124.975 131.838L125.371 134.818Z" fill="#9D8ECA"/>
<path d="M126.882 146.067L234.556 146.489L234.159 143.509L126.461 143.087L126.882 146.067Z" fill="#9D8ECA"/>
<path d="M128.371 157.317L236.07 157.739L235.673 154.759L127.975 154.337L128.371 157.317Z" fill="#9D8ECA"/>
<path d="M129.883 168.566L237.581 168.988L237.185 166.008L129.486 165.586L129.883 168.566Z" fill="#9D8ECA"/>
<path d="M131.395 179.815L239.068 180.237L238.672 177.257L130.998 176.835L131.395 179.815Z" fill="#9D8ECA"/>
<path d="M132.981 191.785L240.679 192.207L240.282 189.227L132.584 188.805L132.981 191.785Z" fill="#9D8ECA"/>
<path d="M134.492 203.134L242.191 203.556L241.794 200.601L134.096 200.179L134.492 203.134Z" fill="#9D8ECA"/>
<path d="M120.091 62.43L117.91 46.0898H124.702C126.412 46.1395 127.676 46.2885 128.494 46.5865C129.312 46.8845 130.006 47.406 130.576 48.151C131.146 48.896 131.493 49.7651 131.617 50.7336C131.791 51.9504 131.568 52.9686 130.973 53.7633C130.378 54.5579 129.386 55.0546 127.998 55.2532C128.742 55.6754 129.386 56.1224 129.907 56.6439C130.427 57.1405 131.146 58.0345 132.088 59.301L134.468 62.5045H130.601L127.8 58.9285C126.809 57.662 126.139 56.8426 125.768 56.5197C125.421 56.1969 125.074 55.9486 124.702 55.8244C124.33 55.7002 123.785 55.6257 123.041 55.6257H122.397L123.314 62.4548H120.091V62.43ZM122.074 53.0183H124.454C125.991 53.0183 126.957 52.9686 127.329 52.8444C127.701 52.7203 127.974 52.4968 128.147 52.1491C128.321 51.8263 128.37 51.4041 128.321 50.9323C128.246 50.386 128.048 49.939 127.701 49.5913C127.379 49.2436 126.933 49.045 126.387 48.9456C126.115 48.9208 125.321 48.896 124.032 48.8711H121.504L122.05 53.0183H122.074Z" fill="#6C56B0"/>
<path d="M136.228 62.5052L134.047 46.165L145.92 46.2147L146.292 48.9712L137.666 48.9215L138.137 52.5471H146.168L146.539 55.3284H138.508L139.103 59.7487L148.051 59.7984L148.423 62.5548L136.253 62.5052H136.228Z" fill="#6C56B0"/>
<path d="M149.613 57.2401L152.711 56.9422C153.034 58.01 153.529 58.8046 154.174 59.3261C154.818 59.8228 155.636 60.0959 156.603 60.0959C157.644 60.0959 158.387 59.8724 158.858 59.4255C159.329 58.9785 159.528 58.457 159.429 57.861C159.379 57.4636 159.23 57.1408 158.958 56.8676C158.71 56.5945 158.288 56.3462 157.693 56.1475C157.297 56.0233 156.405 55.775 155.016 55.4273C153.232 54.9803 151.943 54.434 151.15 53.7884C150.059 52.8944 149.415 51.7769 149.241 50.4856C149.142 49.6661 149.241 48.8714 149.613 48.1513C149.985 47.4311 150.58 46.8848 151.398 46.5123C152.216 46.1398 153.232 45.9411 154.471 45.9659C156.479 45.9659 158.04 46.4378 159.181 47.3318C160.321 48.2258 161.015 49.4426 161.263 50.9326L158.04 51.0567C157.793 50.2124 157.421 49.6164 156.9 49.2439C156.405 48.8714 155.686 48.6976 154.769 48.6727C153.827 48.6727 153.133 48.8714 152.637 49.2439C152.34 49.4922 152.216 49.8399 152.265 50.2621C152.315 50.6594 152.513 50.9822 152.885 51.2554C153.331 51.603 154.372 51.9755 156.008 52.348C157.619 52.7454 158.834 53.1427 159.652 53.54C160.47 53.9622 161.114 54.5085 161.635 55.2038C162.155 55.8992 162.477 56.7683 162.626 57.8113C162.75 58.755 162.626 59.6241 162.205 60.4436C161.808 61.2631 161.164 61.8591 160.296 62.2564C159.429 62.6537 158.288 62.8524 156.9 62.8276C154.868 62.8276 153.257 62.3309 152.042 61.3873C150.828 60.4188 150.01 59.0281 149.539 57.2153L149.613 57.2401Z" fill="#6C56B0"/>
<path d="M163.865 46.2889H167.088L168.277 55.1543C168.476 56.5698 168.624 57.4638 168.773 57.886C168.996 58.5564 169.393 59.1028 169.963 59.5001C170.533 59.8974 171.276 60.1209 172.169 60.1209C173.086 60.1209 173.755 59.9471 174.177 59.5498C174.598 59.1773 174.796 58.7054 174.821 58.1343C174.821 57.588 174.771 56.6443 174.598 55.353L173.383 46.3138H176.606L177.746 54.906C178.018 56.8678 178.093 58.2585 178.043 59.0531C177.969 59.8726 177.746 60.5431 177.349 61.0894C176.953 61.6357 176.383 62.0827 175.639 62.4056C174.895 62.7284 173.904 62.9022 172.64 62.8774C171.103 62.8774 169.938 62.6787 169.095 62.3311C168.252 61.9586 167.583 61.4867 167.038 60.9156C166.493 60.3444 166.121 59.7236 165.898 59.1028C165.576 58.1591 165.278 56.7685 165.03 54.9557L163.865 46.2393V46.2889Z" fill="#6C56B0"/>
<path d="M182.158 62.7034L179.977 46.3633H184.81L189.197 57.5382L190.585 46.4129H195.443L197.625 62.7779H194.626L192.915 49.9144L191.453 62.7531H188.354L183.471 49.8647L185.182 62.7283H182.183L182.158 62.7034Z" fill="#6C56B0"/>
<path d="M200.822 62.7776L198.641 46.4375L210.513 46.4872L210.885 49.2436L202.259 49.194L202.73 52.8196H210.761L211.133 55.6009H203.102L203.697 60.0212L212.645 60.0708L213.017 62.8273L200.847 62.7776H200.822Z" fill="#6C56B0"/>
<path d="M283.362 236.337C284.328 243.737 280.016 249.871 273.348 251.212C272.431 251.41 271.489 251.485 270.497 251.485L211.381 251.261L117.737 250.889C112.978 250.839 110.177 244.606 113.672 241.775L156.528 207.034L163.097 201.719L164.832 200.329L166.765 198.764L176.68 190.718L176.928 190.52L177.993 189.651L180.571 187.565L184.983 183.989L190.734 179.345L194.377 176.39L204.54 168.145L208.184 165.19L218.346 156.945L221.99 153.99L233.615 144.554L234.284 144.007L243.579 136.458L267.449 117.113L283.411 236.337H283.362Z" fill="url(#paint2_linear_2122_13122)"/>
<path d="M117.762 251.162C115.482 251.162 113.375 249.696 112.384 247.462C111.392 245.227 111.838 242.917 113.499 241.551L176.705 190.296L194.155 176.166L267.598 116.616L267.673 117.113L283.635 236.361C284.602 243.712 280.339 250.069 273.448 251.46C272.531 251.658 271.539 251.758 270.548 251.758L117.787 251.162H117.762ZM267.226 117.634L113.846 241.998C112.334 243.215 111.938 245.301 112.83 247.312C113.722 249.324 115.631 250.615 117.688 250.64L270.449 251.236C271.415 251.236 272.357 251.137 273.25 250.963C279.892 249.622 284.032 243.488 283.09 236.361L267.202 117.634H267.226Z" fill="#AD16FF"/>
<path d="M273.374 251.211C273.126 251.311 272.853 251.385 272.556 251.435C272.332 251.484 272.06 251.484 271.812 251.484H270.498L211.382 251.261L117.738 250.888H117.391C109.186 250.839 101.601 244.01 100.486 235.616L100.114 232.835L99.4203 227.744L97.4621 213.142L84.5234 116.393L113.673 136.011L115.333 137.128L136.972 151.68L139.897 153.642L144.309 156.622L156.702 164.941L161.139 167.921L173.508 176.24L177.945 179.22L184.934 183.914L190.313 187.539L194.75 190.519L195.047 190.718L207.119 198.838L211.555 201.818L273.25 243.314C276.521 245.524 276.224 249.969 273.324 251.137L273.374 251.211Z" fill="url(#paint3_linear_2122_13122)"/>
<path d="M117.762 251.161H117.415C109.087 251.111 101.354 244.158 100.213 235.64L97.2142 213.167L84.2012 115.896L273.398 243.19C274.96 244.233 275.877 245.896 275.877 247.635C275.877 249.398 274.96 250.863 273.473 251.459C273.2 251.558 272.927 251.658 272.605 251.707C272.357 251.757 272.085 251.782 271.812 251.782H270.523L117.762 251.186V251.161ZM84.8456 116.914L100.734 235.64C101.825 243.86 109.285 250.59 117.341 250.64H117.688L271.762 251.26C272.01 251.26 272.258 251.26 272.456 251.211C272.729 251.161 272.977 251.087 273.225 251.012C274.563 250.491 275.381 249.174 275.356 247.61C275.356 246.045 274.538 244.605 273.15 243.662L194.924 191.04L194.626 190.842L84.8208 116.963L84.8456 116.914Z" fill="#AD16FF"/>
<path d="M215.596 303.757L215.671 304.403C216.514 310.686 212.498 315.826 206.549 316.372C206.202 316.397 205.831 316.422 205.484 316.422H204.839L155.464 316.223L77.2617 315.925H76.4438C69.8753 315.9 63.8273 310.437 62.935 303.732L62.5384 300.852L61.9683 296.605L60.3324 284.412L49.5254 203.605L71.6847 203.68L180.151 204.102L202.261 204.177L215.596 303.757Z" fill="#AD16FF"/>
<path d="M202.261 204.202L49.5254 203.606L112.186 141.151C114.888 138.469 119.424 138.469 122.845 141.2L202.286 204.227L202.261 204.202Z" fill="url(#paint4_linear_2122_13122)"/>
<path d="M189.544 274.231L81.0772 273.809L62.7598 137.028L171.251 137.475L189.544 274.231Z" fill="white"/>
<path d="M125.148 171.174L167.187 171.348L166.84 168.865L124.826 168.716L125.148 171.174Z" fill="#9D8ECA"/>
<path d="M126.413 180.586L168.427 180.735L168.105 178.252L126.066 178.103L126.413 180.586Z" fill="#9D8ECA"/>
<path d="M127.652 189.973L169.691 190.146L169.368 187.663L127.33 187.489L127.652 189.973Z" fill="#9D8ECA"/>
<path d="M128.916 199.36L170.954 199.534L170.607 197.05L128.594 196.901L128.916 199.36Z" fill="#9D8ECA"/>
<path d="M130.18 208.771L172.193 208.945L171.871 206.462L129.857 206.288L130.18 208.771Z" fill="#9D8ECA"/>
<path d="M83.6289 218.977L173.58 219.325L173.233 216.842L83.3066 216.494L83.6289 218.977Z" fill="#9D8ECA"/>
<path d="M84.8925 228.364L174.819 228.712L174.497 226.253L84.5703 225.881L84.8925 228.364Z" fill="#9D8ECA"/>
<path d="M86.1576 237.751L176.084 238.124L175.762 235.641L85.8105 235.293L86.1576 237.751Z" fill="#9D8ECA"/>
<path d="M87.3964 247.163L177.347 247.511L177 245.027L87.0742 244.68L87.3964 247.163Z" fill="#9D8ECA"/>
<path d="M88.6601 256.55L178.611 256.923L178.264 254.439L88.3379 254.092L88.6601 256.55Z" fill="#9D8ECA"/>
<path d="M89.9994 266.558L179.926 266.905L179.603 264.422L89.6523 264.074L89.9994 266.558Z" fill="#9D8ECA"/>
<path d="M91.263 276.044L181.189 276.392L180.867 273.908L90.916 273.561L91.263 276.044Z" fill="#9D8ECA"/>
<path d="M75.6732 187.241C77.4083 200.204 89.0829 210.758 101.798 210.808C114.489 210.857 123.388 200.403 121.653 187.44C119.918 174.477 108.243 163.923 95.5274 163.873C82.8366 163.824 73.9382 174.278 75.6732 187.241Z" fill="#9D8ECA"/>
<path d="M77.9285 187.241C79.4901 198.937 90.0492 208.448 101.501 208.498C112.952 208.547 120.983 199.111 119.421 187.414C117.86 175.718 107.326 166.207 95.8493 166.157C84.3978 166.108 76.3669 175.544 77.9285 187.241Z" fill="#03F3FF"/>
<mask id="mask0_2122_13122" style="mask-type:luminance" maskUnits="userSpaceOnUse" x="77" y="166" width="43" height="43">
<path d="M77.9285 187.241C79.4901 198.937 90.0492 208.448 101.501 208.498C112.952 208.547 120.983 199.111 119.421 187.414C117.86 175.718 107.326 166.207 95.8493 166.157C84.3978 166.108 76.3669 175.544 77.9285 187.241Z" fill="white"/>
</mask>
<g mask="url(#mask0_2122_13122)">
<path d="M98.0048 182.522C98.1536 186.918 103.681 188.532 103.681 188.532C103.582 185.279 106.854 183.342 107.374 179.344C107.92 175.196 104.821 170.9 99.2194 171.223C95.774 171.422 97.8561 178.102 98.0048 182.522Z" fill="#5940A6"/>
<path d="M95.849 205.742C93.6926 210.013 78.6471 222.529 77.6804 222.901C77.259 223.05 70.4674 221.188 71.5333 216.618C72.6734 211.726 85.1907 199.732 87.4463 198.341C91.5361 195.858 98.5756 200.378 95.849 205.717V205.742Z" fill="#AD16FF"/>
<path d="M90.9422 195.535C88.1909 196.677 77.9044 205.071 73.418 212.943C73.418 212.943 75.1283 217.413 75.4505 219.946C75.5992 221.038 77.9292 221.883 77.6813 222.901C84.0763 220.12 97.0893 205.766 98.1551 203.705C100.857 198.341 95.4286 193.697 90.967 195.535H90.9422Z" fill="#7560B5"/>
<path d="M104.574 194.84C107.648 195.162 113.349 196.429 115.455 199.309C117.562 202.215 120.884 230.301 121.751 248.702C121.751 248.702 98.6253 260.076 87.9174 248.702C87.9174 248.702 86.455 201.271 89.2807 196.801C91.6354 193.076 101.501 194.492 104.549 194.815L104.574 194.84Z" fill="#7560B5"/>
<path d="M105.217 194.914C105.217 194.914 97.1368 210.137 96.0958 211.379C96.0958 211.379 94.4103 198.54 94.0137 194.666L105.217 194.89V194.914Z" fill="url(#paint5_linear_2122_13122)"/>
<path d="M102.269 188.631C102.294 188.06 102.344 187.687 102.344 187.687C102.344 187.687 95.6016 182.969 95.6016 187.936L102.269 188.631Z" fill="url(#paint6_linear_2122_13122)"/>
<path d="M97.4108 198.242L95.0312 194.765C95.0312 194.765 96.692 193.424 95.8988 190.047C93.9654 181.802 102.343 187.688 102.343 187.688C102.343 187.688 102.095 194.591 104.574 194.84L97.386 198.242H97.4108Z" fill="#EAC2FF"/>
<path d="M97.1872 196.627C101.451 197.074 100.385 191.735 100.409 190.717C100.459 189.773 102.343 187.688 102.343 187.688C102.343 187.688 102.095 194.591 104.574 194.839L97.3855 198.242L95.9727 196.18C96.2949 196.404 96.6915 196.578 97.1624 196.627H97.1872Z" fill="#E1A9FF"/>
<path d="M91.585 176.066L91.0645 185.652C91.1636 188.508 94.485 191.165 97.4842 191.488C100.483 191.811 102.813 189.749 102.714 186.918V186.67C102.714 186.67 105.788 186.794 105.689 183.616C105.589 180.462 103.557 181.53 103.557 181.53L103.507 180.189C103.458 178.624 102.169 177.234 100.607 177.06L91.5602 176.091L91.585 176.066Z" fill="#EAC2FF"/>
<path d="M103.558 181.53L103.509 180.04C103.459 178.55 102.22 177.209 100.733 177.06L99.1959 176.886C99.1959 176.886 99.1959 176.935 99.1959 176.985L99.5429 187.936C99.5925 189.849 97.8078 191.14 95.9736 190.867C95.4035 190.792 94.2385 190.32 93.7676 189.998C95.1556 190.991 96.3454 191.363 97.436 191.488C100.435 191.81 102.765 189.749 102.666 186.918V186.67C102.666 186.67 105.74 186.794 105.64 183.615C105.541 180.462 103.509 181.53 103.509 181.53H103.558Z" fill="#E1A9FF"/>
<path d="M95.7504 193.673C95.8743 195.883 97.3863 198.242 97.3863 198.242C97.3863 198.242 96.0478 197.497 94.9572 198.987C94.4862 199.608 93.9657 199.633 93.9657 199.633C93.9657 199.633 93.6931 197.87 93.9905 194.542L95.7256 193.673H95.7504Z" fill="#E0DBEE"/>
<path d="M134.168 222.156C132.384 219.598 130.376 217.81 124.601 211.974C124.377 211.701 124.154 211.428 123.931 211.18C119.643 206.362 116.297 199.88 115.479 199.061C112.356 195.932 103.755 196.255 106.928 205.046C109.828 213.042 121.428 225.98 127.129 227.842C129.26 228.538 133.127 226.949 133.821 225.26C133.573 225.036 134.714 222.926 134.193 222.181L134.168 222.156Z" fill="#7560B5"/>
<path d="M103.062 193.3C102.045 195.485 97.4102 198.242 97.4102 198.242C97.4102 198.242 98.8974 197.869 100.732 199.881C101.5 200.75 102.541 201.023 102.541 201.023C102.541 201.023 105.342 198.415 105.218 194.914L103.062 193.3Z" fill="#E0DBEE"/>
<path d="M99.3933 175.967C99.3933 175.967 97.46 178.425 93.5437 177.606C89.6274 176.786 89.3547 178.822 89.3547 178.822C89.3547 178.822 87.2726 171.472 92.1804 169.46C97.0634 167.449 100.286 171.224 100.286 171.224L99.3933 175.942V175.967Z" fill="#5940A6"/>
<path d="M78.2256 216.867C72.6981 211.974 54.926 202.761 52.0508 199.533C49.3986 196.553 44.7883 200.949 48.8285 203.854C53.1166 206.958 63.4279 217.711 69.7485 221.759C79.0683 227.719 79.6384 218.083 78.2256 216.842V216.867Z" fill="#EAC2FF"/>
</g>
<path d="M215.596 303.757C216.414 309.94 212.795 315.056 207.243 316.173C206.474 316.322 205.681 316.422 204.863 316.397L155.488 316.198L77.2858 315.9C73.32 315.875 70.99 310.66 73.8901 308.301L109.682 279.296L115.16 274.851L116.598 273.684L118.209 272.393L126.487 265.663L126.686 265.489L127.578 264.769L129.735 263.031L133.428 260.026L138.212 256.127L141.26 253.669L149.737 246.79L152.786 244.331L161.263 237.453L164.287 234.994L174.004 227.122L174.574 226.675L182.357 220.367L202.285 204.201L215.621 303.782L215.596 303.757Z" fill="#03F3FF"/>
<path d="M77.2862 316.149C75.3776 316.149 73.6177 314.932 72.775 313.07C71.957 311.207 72.304 309.27 73.7169 308.153L126.513 265.34L141.087 253.52L202.41 203.779L202.459 204.201L215.794 303.782C216.612 309.941 213.043 315.23 207.293 316.397C206.524 316.571 205.706 316.646 204.863 316.646L77.2614 316.149H77.2862ZM202.112 204.624L74.0143 308.475C72.7502 309.494 72.428 311.232 73.1716 312.921C73.9152 314.584 75.5015 315.677 77.2366 315.702L204.814 316.199C205.632 316.199 206.4 316.124 207.169 315.975C212.721 314.858 216.166 309.717 215.373 303.782L202.112 204.648V204.624Z" fill="#AD16FF"/>
<path d="M207.243 316.199C207.045 316.298 206.822 316.348 206.574 316.398C206.376 316.423 206.178 316.447 205.954 316.447H204.864L155.489 316.249L77.2865 315.951H76.9891C70.1232 315.926 63.8025 310.214 62.8607 303.211L62.5384 300.877L61.9683 296.631L60.3324 284.438L49.5254 203.631L73.866 219.996L75.254 220.939L93.3235 233.108L95.7774 234.747L99.4707 237.23L109.807 244.183L113.5 246.667L123.836 253.62L127.529 256.103L133.379 260.027L137.865 263.056L141.583 265.54L141.831 265.713L151.919 272.493L155.637 274.976L207.144 309.643C209.871 311.481 209.623 315.206 207.219 316.174L207.243 316.199Z" fill="#03F3FF"/>
<path d="M77.2857 316.149H76.9883C70.0232 316.124 63.5787 310.288 62.6368 303.186L60.1333 284.412L49.252 203.184L207.267 309.494C208.556 310.363 209.349 311.754 209.349 313.194C209.349 314.659 208.581 315.876 207.342 316.397C207.119 316.497 206.871 316.546 206.623 316.596C206.425 316.621 206.201 316.646 205.954 316.646H204.863L77.261 316.149H77.2857ZM49.7973 204.028L63.0582 303.186C63.9753 310.065 70.1967 315.677 76.9387 315.702H77.2362L205.904 316.224C206.102 316.224 206.301 316.224 206.499 316.174C206.722 316.149 206.945 316.075 207.143 316C208.259 315.553 208.928 314.46 208.928 313.144C208.928 311.828 208.259 310.636 207.069 309.842L141.756 265.912L141.508 265.738L49.7973 204.028Z" fill="#AD16FF"/>
<path d="M333.656 319.701L333.73 320.322C334.524 326.207 330.756 331.025 325.204 331.522C324.882 331.546 324.534 331.571 324.187 331.571H323.593L277.341 331.397L204.071 331.099H203.303C197.155 331.075 191.479 325.959 190.637 319.676L190.265 316.969L189.719 312.996L188.183 301.573L178.045 225.882L198.816 225.956L300.417 226.354L321.114 226.428L333.606 319.701H333.656Z" fill="#AD16FF"/>
<path d="M321.163 226.453L178.094 225.882L236.789 167.375C239.317 164.867 243.556 164.867 246.778 167.425L321.188 226.453H321.163Z" fill="url(#paint7_linear_2122_13122)"/>
<path d="M309.265 292.062L207.639 291.64L190.512 163.551L292.113 163.948L309.265 292.062Z" fill="white"/>
<path d="M248.934 195.511L288.295 195.66L287.998 193.35L248.637 193.201L248.934 195.511Z" fill="#9D8ECA"/>
<path d="M250.123 204.326L289.484 204.475L289.162 202.141L249.801 201.992L250.123 204.326Z" fill="#9D8ECA"/>
<path d="M251.29 213.117L290.651 213.266L290.354 210.957L250.992 210.808L251.29 213.117Z" fill="#9D8ECA"/>
<path d="M252.478 221.933L291.84 222.082L291.518 219.748L252.156 219.599L252.478 221.933Z" fill="#9D8ECA"/>
<path d="M253.643 230.724L293.004 230.873L292.707 228.563L253.346 228.414L253.643 230.724Z" fill="#9D8ECA"/>
<path d="M210.044 240.285L294.294 240.607L293.996 238.298L209.746 237.95L210.044 240.285Z" fill="#9D8ECA"/>
<path d="M211.232 249.075L295.482 249.423L295.16 247.088L210.91 246.766L211.232 249.075Z" fill="#9D8ECA"/>
<path d="M212.399 257.891L296.649 258.214L296.352 255.904L212.102 255.557L212.399 257.891Z" fill="#9D8ECA"/>
<path d="M213.588 266.682L297.838 267.029L297.516 264.695L213.266 264.372L213.588 266.682Z" fill="#9D8ECA"/>
<path d="M214.753 275.497L299.003 275.82L298.705 273.511L214.455 273.163L214.753 275.497Z" fill="#9D8ECA"/>
<path d="M216.018 284.86L300.268 285.183L299.945 282.848L215.695 282.525L216.018 284.86Z" fill="#9D8ECA"/>
<path d="M217.207 293.75L301.432 294.073L301.135 291.739L216.885 291.416L217.207 293.75Z" fill="#9D8ECA"/>
<path d="M202.582 210.56C204.193 222.703 215.149 232.587 227.047 232.636C238.944 232.686 247.273 222.902 245.637 210.758C244.025 198.615 233.07 188.731 221.172 188.682C209.274 188.632 200.946 198.416 202.582 210.56Z" fill="#9D8ECA"/>
<path d="M204.69 210.584C206.152 221.536 216.042 230.451 226.75 230.5C237.483 230.55 244.993 221.709 243.531 210.758C242.068 199.807 232.178 190.892 221.47 190.842C210.738 190.792 203.227 199.633 204.69 210.584Z" fill="#03F3FF"/>
<mask id="mask1_2122_13122" style="mask-type:luminance" maskUnits="userSpaceOnUse" x="204" y="190" width="40" height="41">
<path d="M204.69 210.584C206.152 221.536 216.042 230.451 226.75 230.5C237.483 230.55 244.993 221.709 243.531 210.758C242.068 199.807 232.178 190.892 221.47 190.842C210.738 190.792 203.227 199.633 204.69 210.584Z" fill="white"/>
</mask>
<g mask="url(#mask1_2122_13122)">
<path d="M216.71 217.984C218.495 221.287 223.279 220.319 224.245 217.637C224.592 216.693 224.568 215.625 224.642 214.607C224.741 213.216 225.237 211.9 225.262 210.534C225.286 209.591 225.063 208.771 224.716 207.852C224.518 207.331 224.345 206.834 224.171 206.338C223.898 204.078 223.824 201.892 223.998 199.657C224.022 199.31 223.775 198.838 223.378 198.764C221.717 198.54 219.561 197.596 218.148 198.664C217.231 199.335 217.256 200.452 216.76 201.445C216.462 202.041 215.768 202.786 215.57 203.432C214.802 205.866 216.438 207.331 217.107 209.665C217.801 212.149 216.76 213.713 216.512 215.873C216.438 216.544 216.338 217.339 216.71 218.009V217.984Z" fill="#5940A6"/>
<path d="M223.353 221.586C222.213 224.69 213.265 234.052 211.604 235.84C209.621 238.001 204.465 235.542 205.159 232.836C205.779 230.452 215.173 217.911 216.586 216.793C219.139 214.782 224.791 217.712 223.353 221.586Z" fill="#EAC2FF"/>
<path d="M219.264 228.961C222.189 225.708 224.271 221.039 224.915 219.351C226.427 215.328 222.536 212.298 218.719 213.838C217.95 214.136 213.365 217.513 210.936 221.188C212.621 224.913 218.57 228.738 219.264 228.986V228.961Z" fill="#E0DBEE"/>
<path d="M215.422 242.023C215.422 242.023 225.832 248.678 239.936 245.251C239.688 240.831 239.515 237.255 239.316 234.201C239.044 229.88 238.697 226.552 238.003 223.2C237.606 221.263 237.085 219.301 236.391 217.14C235.251 213.515 230.69 213.068 229.798 212.993C228.906 212.919 223.849 212.621 220.454 213.589C219.536 214.31 215.893 217.066 216.463 223.274C216.736 226.205 219.809 229.557 219.512 234.201C219.214 238.671 215.422 242.048 215.422 242.048V242.023Z" fill="url(#paint8_linear_2122_13122)"/>
<path d="M222.287 209.566C222.287 209.566 222.957 212.794 222.139 213.117C221.469 213.365 220.453 213.614 220.453 213.614C220.453 213.614 225.757 220.344 229.922 212.968C229.922 212.968 228.385 212.968 227.815 212.347C227.245 211.702 226.501 208.548 226.452 206.462L222.287 209.566Z" fill="#EAC2FF"/>
<path d="M227.815 212.323C227.245 211.677 226.501 208.523 226.452 206.438L223.973 208.474C224.593 208.97 225.609 210.386 225.609 210.46C226.526 211.851 227.195 213.788 225.931 214.856C224.964 215.675 223.527 215.651 222.139 215.228C224.122 216.594 227.294 217.588 229.922 212.919C229.922 212.919 228.385 212.919 227.815 212.298V212.323Z" fill="#E1A9FF"/>
<path d="M239.489 237.081C239.217 232.76 238.696 226.552 238.002 223.199L232.202 217.811C232.202 217.811 230.343 233.828 239.489 237.081Z" fill="#E0DBEE"/>
<path d="M238.921 218.804C241.152 221.486 246.506 234.747 247.571 237.231C248.836 240.211 246.456 243.042 244.2 241.427C242.267 240.037 233.939 224.566 233.393 222.654C232.402 219.202 236.145 215.452 238.921 218.804Z" fill="#EAC2FF"/>
<path d="M243.853 225.137C241.796 220.791 238.425 216.619 237.16 215.228C234.161 211.901 231.385 215.104 231.286 218.556C231.261 219.649 231.806 224.292 234.285 228.34C237.73 228.464 243.506 225.683 243.853 225.137Z" fill="url(#paint9_linear_2122_13122)"/>
<path d="M228.757 202.439C228.683 202.216 226.972 200.925 226.799 200.999C226.799 200.999 227.642 206.438 227.468 206.934C227.344 207.307 227.171 208.126 227.716 208.325C228.212 208.524 228.782 208.25 228.98 207.828C230.294 205.246 228.93 203.036 228.757 202.415V202.439Z" fill="#5036A1"/>
<path d="M218.025 197.497L219.388 207.356C219.686 209.566 221.867 211.379 224.221 211.379C226.601 211.379 228.262 209.566 227.939 207.356V207.182C227.939 207.182 230.195 207.679 229.848 205.195C229.501 202.737 228.163 203.085 228.163 203.085L227.394 197.497H218H218.025Z" fill="#EAC2FF"/>
<path d="M228.188 203.06L227.494 198.068H224.148C224.148 198.068 224.396 199.881 224.396 199.906L225.585 208.424C225.784 209.914 224.544 211.131 223.082 211.081C222.636 211.081 222.19 210.932 221.793 210.733C222.512 211.155 223.355 211.379 224.222 211.379C226.602 211.379 228.262 209.566 227.94 207.356V207.182C227.94 207.182 230.196 207.679 229.849 205.195C229.502 202.737 228.163 203.085 228.163 203.085L228.188 203.06Z" fill="#E1A9FF"/>
<path d="M226.08 200.254C225.486 200.9 225.039 201.719 224.816 202.712C223.949 206.537 227.196 209.641 227.245 213.366C227.295 216.47 223.726 218.655 225.064 222.057C225.808 223.945 227.692 224.665 229.427 224.59C231.757 224.466 236.119 223.15 237.383 221.312C238.647 219.524 238.152 217.339 237.185 215.228C236.441 213.589 235.301 212.124 234.533 210.485C233.566 208.399 233.517 206.586 233.591 204.476C233.814 198.093 227.816 195.064 226.725 194.493C223.478 192.829 220.181 194.269 220.181 194.269C215.15 193.251 213.563 199.186 215.422 200.279C219.562 202.737 225.238 199.832 226.056 200.279L226.08 200.254Z" fill="#5940A6"/>
</g>
<path d="M333.657 319.701C334.425 325.487 331.029 330.28 325.824 331.323C325.105 331.472 324.362 331.546 323.593 331.546L277.341 331.373L204.072 331.075C200.354 331.05 198.172 326.158 200.899 323.948L234.411 296.78L239.541 292.608L240.88 291.516L242.392 290.299L250.15 283.991L250.348 283.842L251.191 283.172L253.199 281.533L256.669 278.727L261.155 275.076L264.006 272.767L271.962 266.31L274.813 264.001L282.77 257.544L285.62 255.234L294.717 247.859L295.237 247.437L302.525 241.527L321.189 226.403L333.681 319.676L333.657 319.701Z" fill="#03F3FF"/>
<path d="M204.12 331.298C202.336 331.298 200.675 330.156 199.907 328.417C199.138 326.679 199.46 324.866 200.774 323.799L250.224 283.693L263.881 272.642L321.337 226.056L321.386 226.453L333.879 319.726C334.647 325.487 331.301 330.454 325.922 331.546C325.204 331.695 324.435 331.77 323.642 331.77L204.12 331.298ZM321.039 226.85L201.047 324.146C199.857 325.09 199.56 326.729 200.254 328.293C200.948 329.858 202.435 330.876 204.046 330.901L323.568 331.373C324.311 331.373 325.055 331.298 325.774 331.149C330.979 330.106 334.201 325.289 333.457 319.726L321.039 226.85Z" fill="#03F3FF"/>
<path d="M325.822 331.348C325.624 331.422 325.425 331.497 325.202 331.522C325.029 331.546 324.831 331.571 324.608 331.571H323.591L277.339 331.397L204.07 331.099H203.797C197.377 331.075 191.453 325.711 190.586 319.155L190.288 316.969L189.743 312.996L188.206 301.573L178.068 225.882L200.872 241.229L202.186 242.123L219.115 253.521L221.42 255.061L224.891 257.395L234.582 263.901L238.052 266.236L247.744 272.742L251.214 275.076L256.692 278.751L260.906 281.582L264.376 283.917L264.599 284.066L274.043 290.423L277.513 292.757L325.772 325.214C328.326 326.952 328.102 330.429 325.822 331.323V331.348Z" fill="#03F3FF"/>
<path d="M204.12 331.298H203.847C197.328 331.273 191.28 325.81 190.388 319.155L188.033 301.573L177.846 225.484L325.872 325.065C327.087 325.884 327.805 327.176 327.83 328.542C327.83 329.907 327.111 331.074 325.946 331.546C325.748 331.646 325.5 331.695 325.277 331.745C325.079 331.77 324.881 331.795 324.657 331.795H323.641L204.12 331.323V331.298ZM178.366 226.279L190.784 319.155C191.652 325.586 197.477 330.851 203.773 330.901H204.045L324.583 331.372C324.781 331.372 324.955 331.372 325.128 331.323C325.327 331.298 325.525 331.223 325.723 331.149C326.764 330.727 327.409 329.709 327.409 328.492C327.409 327.275 326.764 326.133 325.674 325.388L264.475 284.239L264.252 284.09L178.341 226.304L178.366 226.279Z" fill="#AD16FF"/>
<path d="M311.966 98.5619C302.1 104.696 278.28 132.26 271.291 133.8C264.301 135.315 309.586 121.483 318.509 113.958C327.358 106.508 318.633 94.4148 311.966 98.5619Z" fill="#EAC2FF"/>
<path d="M368.876 75.3439C366.992 77.6782 361.316 82.5206 354.45 87.8845C351.525 90.1692 348.378 92.578 345.23 94.9123C334.621 102.809 324.087 111.749 320.939 111.252C316.452 110.557 312.734 109.961 310.057 108.024C308.496 106.882 307.281 105.243 306.463 102.884C304.629 97.4949 343.519 65.8328 348.923 63.0018C349.022 63.0018 349.096 62.9273 349.171 62.9025C349.443 62.7783 349.741 62.679 350.014 62.5797C350.063 62.5797 350.113 62.5548 350.187 62.53C351.03 62.2568 351.873 62.1327 352.715 62.1078C352.963 62.083 353.211 62.083 353.434 62.083C355.417 62.1575 357.375 62.7535 359.209 63.6972C365.431 66.8758 370.091 73.8042 368.876 75.3439Z" fill="url(#paint10_linear_2122_13122)"/>
<path d="M359.903 63.1506C359.68 63.3244 359.432 63.4982 359.209 63.6969C332.043 84.4822 310.925 101.344 310.057 108.024C308.496 106.882 307.281 105.243 306.463 102.883C304.629 97.4947 343.519 65.8325 348.923 63.0016C349.022 63.0016 349.096 62.9271 349.171 62.9022C349.443 62.7781 349.741 62.6787 350.014 62.5794C350.063 62.5794 350.113 62.5546 350.187 62.5297C350.931 62.3311 351.798 62.1821 352.715 62.1076C352.963 62.0828 353.211 62.0828 353.434 62.0828C355.64 61.9834 358.094 62.2814 359.903 63.1506Z" fill="#AD16FF"/>
<path d="M463.437 372.123C453.671 368.82 449.978 352.753 448.268 344.161L437.535 348.184C437.535 348.184 441.6 363.879 440.311 373.886C439.022 383.919 441.922 382.975 441.922 382.975H475.93C475.93 382.975 473.203 375.426 463.437 372.123Z" fill="#EAC2FF"/>
<path d="M463.437 372.124C460.487 371.13 458.108 368.97 456.149 366.189C454.885 364.227 447.97 366.387 446.582 370.162C446.582 370.162 443.731 372.148 440.509 371.85C440.459 372.546 440.41 373.216 440.311 373.887C439.022 383.919 441.922 382.976 441.922 382.976H475.929C475.929 382.976 473.203 375.426 463.437 372.124Z" fill="#5940A6"/>
<path d="M321.557 372.893C339.404 372.893 341.783 362.613 340.197 351.661H352.119C351.97 356.528 352.045 364.202 353.383 371.031C355.391 381.212 350.335 382.976 350.335 382.976H306.908C306.908 382.976 313.204 372.918 321.557 372.918V372.893Z" fill="#EAC2FF"/>
<path d="M338.784 373.613C337.123 371.08 342.155 366.263 338.387 366.039C335.834 370.186 330.753 372.918 321.557 372.918C313.179 372.918 306.908 382.975 306.908 382.975H350.335C350.335 382.975 355.094 381.311 353.557 371.974C348.996 371.974 341.312 377.462 338.784 373.638V373.613Z" fill="#5940A6"/>
<path d="M341.189 242.047C342.403 223.746 365.281 249.224 365.108 254.091C364.909 260.225 364.761 263.056 365.281 284.562C365.827 306.042 361.91 316.845 358.391 326.827C354.871 336.81 355.094 359.11 355.094 359.11C342.651 360.302 337.223 357 337.223 357C337.223 357 339.354 324.543 338.536 306.017C337.718 287.492 340.891 246.368 341.189 242.072V242.047Z" fill="#7560B5"/>
<path d="M351.029 359.334C351.128 352.158 351.674 336.761 354.301 328.765C357.821 318.136 356.532 296.78 356.011 273.859C355.466 250.938 360.82 257.767 361.018 251.211C361.093 249.15 357.523 243.612 353.111 238.919C359.159 243.563 365.183 251.559 365.108 254.067C364.91 260.201 364.761 263.032 365.282 284.537C365.827 306.018 361.911 316.82 358.391 326.803C354.871 336.786 355.094 359.086 355.094 359.086C353.632 359.235 352.293 359.31 351.029 359.334Z" fill="#5940A6"/>
<path d="M338.586 185.751C339.329 210.038 342.254 241.973 341.064 257.196C339.998 270.903 348.946 275.771 356.011 273.883C360.076 272.791 363.521 269.438 364.042 264.223C364.042 264 364.066 263.776 364.091 263.578C364.091 263.354 364.091 263.131 364.091 262.907C364.091 262.435 364.091 261.889 364.141 261.368C364.959 249.001 374.452 221.014 380.178 198.888C380.426 197.919 380.673 196.951 380.921 195.982C381.169 195.014 381.392 194.07 381.615 193.151C381.938 191.761 382.26 190.395 382.532 189.079C382.731 188.209 382.904 187.34 383.078 186.496C383.747 183.143 384.193 180.114 384.391 177.506C385.953 156.771 383.896 149.818 378.294 138.295C372.692 126.772 358.886 126.35 353.929 130.572C353.829 130.646 353.73 130.746 353.631 130.845C350.409 133.85 342.775 144.652 339.602 159.329C338.387 164.891 338.288 174.502 338.635 185.776L338.586 185.751Z" fill="#7560B5"/>
<path d="M373.113 202.961C372.766 206.114 357.176 271.252 356.011 273.859C355.788 274.38 363.323 272.766 364.042 264.199C364.042 263.975 364.066 263.752 364.091 263.553C364.091 263.33 364.091 263.106 364.091 262.883C364.091 262.411 364.091 261.865 364.141 261.343C364.934 248.976 374.427 220.989 380.178 198.863C380.426 197.895 380.673 196.926 380.921 195.958C381.169 194.989 381.392 194.046 381.615 193.127C381.938 191.736 382.26 190.37 382.532 189.054C382.731 188.185 382.904 187.316 383.078 186.472C383.747 183.119 384.193 180.089 384.391 177.482C385.953 156.746 383.896 149.793 378.294 138.271C372.692 126.748 358.886 126.326 353.929 130.548C353.829 130.622 353.73 130.721 353.631 130.821C350.409 133.825 342.775 144.628 339.602 159.304C338.387 164.867 338.288 174.477 338.635 185.751C352.094 196.181 373.931 195.834 373.163 202.961H373.113Z" fill="#5940A6"/>
<path d="M431.189 260.549C429.752 256.377 428.958 253.297 427.868 249.001C423.158 230.699 404.742 249.225 405.857 254.117C407.245 260.251 409.501 263.082 413.07 284.587C416.664 306.068 422.613 316.87 428.041 326.853C433.47 336.836 437.535 355.883 437.535 355.883C447.995 356.503 452.233 351.313 452.233 351.313C452.233 351.313 446.656 324.568 443.93 306.043C441.203 287.517 434.585 270.382 431.189 260.598V260.549Z" fill="#7560B5"/>
<path d="M436.668 310.785C433.942 292.26 430.447 281.408 427.076 271.648C425.638 267.476 421.722 258.089 420.606 253.793C418.673 246.294 414.459 244.978 410.221 246.368C415.723 240.88 424.771 236.957 427.869 249.025C428.984 253.322 429.753 256.401 431.19 260.573C434.561 270.332 441.179 287.492 443.931 306.017C446.657 324.543 452.234 351.288 452.234 351.288C452.234 351.288 450.003 353.995 444.798 355.261C443.856 350.717 439.122 327.423 436.643 310.785H436.668Z" fill="#5940A6"/>
<path d="M415.549 158.435C409.353 143.286 398.446 133.155 394.927 130.572C389.151 126.35 375.42 126.772 372.024 138.295C368.628 149.818 367.909 156.771 373.437 177.506C378.964 198.242 405.511 247.337 408.535 262.882C411.559 278.428 435.428 278.602 429.455 256.326C423.456 234.051 422.688 175.967 415.549 158.435Z" fill="#7560B5"/>
<path d="M415.178 199.335C415.029 193.449 410.716 188.731 405.239 187.167C402.611 186.422 391.408 188.508 384.219 189.824C380.725 190.469 377.304 188.483 376.089 185.13C374.949 181.927 373.735 178.475 373.462 177.482C367.935 156.746 368.653 149.793 372.049 138.27C375.445 126.748 389.177 126.351 394.952 130.547C398.472 133.105 409.378 143.262 415.575 158.41C422.738 175.942 423.506 234.027 429.48 256.302C431.537 263.975 430.05 268.991 427.1 271.624C427.1 271.326 415.352 206.114 415.178 199.335Z" fill="#5940A6"/>
<path d="M385.383 59.1523C385.383 59.1523 370.809 55.9489 360.547 59.202V62.4551L384.689 63.1008L385.358 59.1523H385.383Z" fill="#AD16FF"/>
<path d="M340.05 98.8111C343.495 96.154 349.841 94.0183 353.038 91.4108L348.849 69.4336C348.849 69.4336 345.057 78.2493 342.479 81.3535C339.331 85.1777 337.274 87.9342 340.05 98.8111Z" fill="#AD16FF"/>
<path d="M389.647 0C383.549 0 378.592 4.96661 378.592 11.0755C378.592 17.1845 383.549 22.1511 389.647 22.1511C395.744 22.1511 400.702 17.1845 400.702 11.0755C400.726 4.96661 395.769 0 389.647 0Z" fill="#5940A6"/>
<path d="M390.887 43.0854C393.093 32.4817 402.809 33.4998 396.935 20.3135C391.06 7.10231 384.938 9.66011 378.593 7.6238C362.457 2.4337 349.567 24.0136 355.516 38.4416C361.044 51.8018 388.532 54.4589 390.887 43.0854Z" fill="#5940A6"/>
<path d="M390.664 105.814C391.209 101.12 392.895 96.8243 397.134 80.6828C398.794 74.4001 401.322 70.7993 399.761 67.9931C397.778 64.442 390.937 62.5547 386.45 62.5547C378.37 62.5547 382.261 43.0607 382.261 43.0607C381.022 38.9881 367.612 39.7083 368.232 52.7208C368.852 65.7333 356.037 59.8727 352.988 62.2815C348.799 65.5843 349.122 72.6617 348.279 76.5109C347.436 80.3351 341.76 84.9044 342.528 91.957C343.297 99.0096 349.964 98.7861 349.964 98.7861C352.344 101.518 354.55 106.509 354.798 110.035C355.318 118.23 351.278 126.425 351.278 126.425C374.974 136.83 395.126 127.692 395.126 127.692C395.126 127.692 389.053 119.845 390.664 105.839V105.814Z" fill="#EAC2FF"/>
<path d="M386.474 62.5545C378.393 62.5545 382.285 43.0606 382.285 43.0606C381.591 40.8008 377.154 40.031 373.461 41.9928C375.964 42.6384 381.938 53.6891 378.344 69.8306C377.327 74.4247 372.37 77.1315 367.834 78.0255C367.834 78.0255 396.537 83.0666 397.157 80.7075C398.817 74.4247 390.96 62.5545 386.474 62.5545Z" fill="#E1A9FF"/>
<path d="M353.484 184.385C354.773 184.51 356.087 184.609 357.401 184.683C358.169 184.733 358.962 184.758 359.731 184.808C360.449 184.832 361.168 184.857 361.912 184.882L368.629 174.775L376.784 184.683C399.736 185.577 422.639 179.344 422.639 179.344C421.623 171.646 420.012 165.289 418.153 159.677C418.153 159.677 418.153 159.677 418.153 159.627C410.32 135.837 398.373 125.779 409.725 84.7801C409.725 84.7801 409.725 84.7801 409.725 84.7304C411.46 78.4725 404.694 70.1286 400.653 65.9567C398.1 63.3244 390.714 62.6787 386.426 62.5297C379.51 71.1964 368.654 77.5785 368.654 77.5785C368.654 77.5785 361.193 65.3855 360.202 61.4867C358.293 61.4371 353.856 61.4122 352.964 62.1075C348.775 65.4103 348.329 72.1401 347.486 75.9644C346.643 79.7887 341.215 85.2271 341.983 92.2797C342.727 99.0343 348.403 102.585 348.899 102.883H348.948C356.384 143.883 338.364 134.521 336.406 180.586C340.917 182.548 346.817 183.74 353.435 184.361L353.484 184.385Z" fill="url(#paint11_linear_2122_13122)"/>
<path d="M348.848 102.833C348.848 102.833 348.922 102.883 348.947 102.908H348.996C348.996 103.529 389.076 113.884 393.365 119.745C396.587 124.165 411.285 164.767 406.279 169.709C401.296 174.626 381.64 160.868 379.583 162.458C378.146 163.575 354.673 181.802 353.508 184.36C354.796 184.484 356.11 184.584 357.449 184.658C358.217 184.708 359.01 184.733 359.779 184.782C360.497 184.807 361.216 184.832 361.96 184.857L368.677 174.75L376.832 184.658C399.784 185.552 422.687 179.319 422.687 179.319C421.721 172.515 420.06 166.158 418.201 159.651C418.201 159.651 418.201 159.651 418.201 159.602C410.368 135.812 398.421 125.754 409.773 84.7549C407.047 84.2831 386.548 77.9755 380.823 80.3843C380.649 80.4588 384.02 82.9918 389.25 86.0959C394.158 89.0014 398.694 91.4102 396.934 97.5439C394.802 105.019 388.581 107.899 381.343 107.154C379.434 106.956 377.526 106.707 375.617 106.459C374.923 106.36 364.637 106.062 360.795 105.59C356.73 105.093 352.739 104.1 348.872 102.809L348.848 102.833Z" fill="#AD16FF"/>
<path d="M382.905 32.2584C382.905 32.2584 377.824 15.6451 372.42 14.925C367.017 14.2296 362.704 14.478 359.779 20.3137C359.779 20.3137 356.433 25.4542 357.301 31.8114C357.301 31.8114 349.865 37.9204 357.152 47.6301C364.439 57.3646 377.65 51.504 382.286 43.036C382.286 43.036 389.424 45.6931 390.664 38.9634C391.903 32.2336 387.491 31.7121 382.905 32.2336V32.2584Z" fill="#EAC2FF"/>
<path d="M382.905 32.2576C382.905 32.2576 377.824 15.6443 372.42 14.9242C368.107 14.353 364.464 14.4275 361.687 17.4571C365.356 16.6873 377.551 31.6616 377.278 40.2787C376.981 49.0448 367.463 54.0362 360.101 49.9139C359.209 49.4173 358.391 48.8461 357.598 48.1756C364.984 57.1155 377.749 51.3294 382.285 43.0352C382.285 43.0352 389.424 45.6923 390.663 38.9626C391.902 32.2328 387.49 31.7113 382.905 32.2328V32.2576Z" fill="#E1A9FF"/>
<path d="M353.855 23.0697C353.855 23.0697 362.456 22.126 367.513 17.5319C372.569 12.9378 375.048 13.8815 375.048 13.8815C360.697 6.80404 353.855 23.0945 353.855 23.0945V23.0697Z" fill="#5940A6"/>
<path d="M372.049 13.9808C369.644 15.7687 368.876 21.4803 374.527 28.1853C380.179 34.915 377.874 42.6877 382.831 38.6151C387.764 34.5425 387.863 33.8472 388.557 28.0114C389.251 22.1757 377.353 10.0571 372.049 13.9808Z" fill="#5940A6"/>
<path d="M392.646 62.4796C392.646 62.4796 388.977 71.2456 381.963 75.9142C374.973 80.5828 371.998 86.7911 371.726 89.8207L366.744 93.1732L369.718 96.8237C369.718 96.8237 365.157 100.946 365.281 106.037C365.281 106.037 361.538 98.1398 362.629 92.0309C363.744 85.9219 369.668 75.7156 372.94 72.1644C376.237 68.5885 384.441 62.6286 385.334 59.1768C385.334 59.1768 388.531 59.8472 392.596 62.4796H392.646Z" fill="#AD16FF"/>
<path d="M361.366 59.1523C361.366 59.1523 362.11 65.6834 364.985 70.352C367.86 75.0207 368.951 75.5173 368.257 78.8698C367.563 82.2222 360.523 87.8345 364.291 103.529C364.291 103.529 359.507 99.5805 358.739 96.0791L360.498 92.5776L358.59 90.3178C358.59 90.3178 359.631 83.6129 361.589 79.8631C363.522 76.1133 355.467 66.7016 355.467 60.5927C355.467 60.5927 359.16 59.1523 361.391 59.1523H361.366Z" fill="#AD16FF"/>
<path d="M368.678 80.558C369.609 80.558 370.363 79.8019 370.363 78.8693C370.363 77.9367 369.609 77.1807 368.678 77.1807C367.747 77.1807 366.992 77.9367 366.992 78.8693C366.992 79.8019 367.747 80.558 368.678 80.558Z" fill="#5940A6"/>
<path d="M364.34 90.3176C364.34 91.2612 363.571 92.0062 362.654 92.0062C361.737 92.0062 360.969 91.2364 360.969 90.3176C360.969 89.3987 361.737 88.6289 362.654 88.6289C363.571 88.6289 364.34 89.3987 364.34 90.3176Z" fill="#5940A6"/>
<path d="M366.67 103.951C366.67 104.895 365.901 105.64 364.984 105.64C364.067 105.64 363.299 104.87 363.299 103.951C363.299 103.033 364.067 102.263 364.984 102.263C365.901 102.263 366.67 103.033 366.67 103.951Z" fill="#5940A6"/>
<path d="M367.314 120.365C367.314 121.309 366.546 122.054 365.629 122.054C364.712 122.054 363.943 121.284 363.943 120.365C363.943 119.447 364.712 118.677 365.629 118.677C366.546 118.677 367.314 119.447 367.314 120.365Z" fill="#5940A6"/>
<path d="M368.381 137.153C368.381 138.096 367.612 138.841 366.695 138.841C365.778 138.841 365.01 138.071 365.01 137.153C365.01 136.234 365.778 135.464 366.695 135.464C367.612 135.464 368.381 136.234 368.381 137.153Z" fill="#5940A6"/>
<path d="M369.422 153.94C369.422 154.883 368.653 155.628 367.736 155.628C366.819 155.628 366.051 154.858 366.051 153.94C366.051 153.021 366.819 152.251 367.736 152.251C368.653 152.251 369.422 153.021 369.422 153.94Z" fill="#5940A6"/>
<path d="M408.51 173.484L406.601 178.078C404.816 182.374 399.909 184.41 395.621 182.623L244.645 119.869L256.988 90.0449L398.322 148.8C407.94 152.798 412.5 163.874 408.51 173.509V173.484Z" fill="#6C56B0"/>
<mask id="mask2_2122_13122" style="mask-type:luminance" maskUnits="userSpaceOnUse" x="126" y="27" width="119" height="119">
<path d="M207.985 31.7617C177.993 19.2955 143.614 33.5497 131.171 63.5977C118.728 93.6456 132.956 128.089 162.948 140.555C192.94 153.021 227.319 138.767 239.762 108.719C252.205 78.6713 237.977 44.2279 207.985 31.7617Z" fill="white"/>
</mask>
<g mask="url(#mask2_2122_13122)">
<path d="M346.419 273.81L346.567 274.853C347.931 285.01 341.436 293.329 331.819 294.198C331.249 294.247 330.679 294.272 330.084 294.272H329.068L249.155 293.949L122.594 293.453H121.256C110.622 293.403 100.832 284.587 99.3941 273.735L98.7744 269.067L97.8573 262.188L95.2299 242.471L77.7305 111.725L113.597 111.874L289.136 112.569L324.904 112.718L346.468 273.835L346.419 273.81Z" fill="#AD16FF"/>
<path d="M324.853 112.693L77.6797 111.724L179.057 10.6539C183.42 6.30812 190.757 6.33295 196.309 10.7284L324.853 112.693Z" fill="url(#paint12_linear_2122_13122)"/>
<path d="M324.754 227.471L149.215 226.776L119.619 5.46387L295.134 6.15919L324.754 227.471Z" fill="white"/>
<path d="M220.55 60.7183L288.565 60.9914L288.019 56.9685L220.029 56.6953L220.55 60.7183Z" fill="#9D8ECA"/>
<path d="M222.583 75.9161L290.598 76.1893L290.052 72.1663L222.062 71.918L222.583 75.9161Z" fill="#9D8ECA"/>
<path d="M224.614 91.1143L292.629 91.3875L292.084 87.3894L224.094 87.1162L224.614 91.1143Z" fill="#9D8ECA"/>
<path d="M226.672 106.336L294.662 106.61L294.142 102.587L226.127 102.313L226.672 106.336Z" fill="#9D8ECA"/>
<path d="M228.705 121.534L296.695 121.807L296.175 117.784L228.16 117.536L228.705 121.534Z" fill="#9D8ECA"/>
<path d="M153.379 138.048L298.902 138.619L298.382 134.596L152.834 134.05L153.379 138.048Z" fill="#9D8ECA"/>
<path d="M140.489 86.6932C143.29 107.677 162.203 124.737 182.751 124.837C203.299 124.936 217.675 108 214.874 87.0161C212.073 66.0321 193.161 48.9718 172.613 48.8725C152.065 48.7732 137.688 65.7093 140.489 86.6932Z" fill="#9D8ECA"/>
<path d="M144.134 86.7185C146.662 105.641 163.715 121.063 182.256 121.137C200.796 121.212 213.76 105.939 211.256 87.0165C208.728 68.0937 191.675 52.6724 173.134 52.5979C154.594 52.5234 141.63 67.7957 144.134 86.7185Z" fill="#03F3FF"/>
<mask id="mask3_2122_13122" style="mask-type:luminance" maskUnits="userSpaceOnUse" x="143" y="52" width="69" height="70">
<path d="M144.134 86.7185C146.662 105.641 163.715 121.063 182.256 121.137C200.796 121.212 213.76 105.939 211.256 87.0165C208.728 68.0937 191.675 52.6724 173.134 52.5979C154.594 52.5234 141.63 67.7957 144.134 86.7185Z" fill="white"/>
</mask>
<g mask="url(#mask3_2122_13122)">
<path d="M188.031 107.032C191.377 112.52 209.794 127.295 213.437 130.499C217.825 134.348 223.377 131.294 221.84 126.277C220.551 122.006 199.557 100.575 196.607 98.5884C191.303 94.9876 183.842 100.203 188.031 107.056V107.032Z" fill="#EAC2FF"/>
<path d="M202.655 123.943C196.533 118.381 187.486 106.982 185.775 104.201C181.586 97.3471 189.047 92.1322 194.351 95.733C196.012 96.8505 205.58 105.691 212.495 113.687C213.016 116.717 208.282 123.67 202.655 123.918V123.943Z" fill="#AD16FF"/>
<path d="M222.137 131.418C226.004 124.216 229.623 97.8189 233.291 94.5161C234.333 93.5725 226.996 91.71 225.905 96.3786C224.542 102.14 214.924 114.854 212.173 122.726C209.447 130.524 219.51 136.285 222.137 131.418Z" fill="#EAC2FF"/>
<path d="M168.398 166.556C168.398 166.556 201.513 179.668 211.701 163.725C211.701 163.725 202.554 103.555 196.977 97.3962C192.318 92.2558 184.163 93.5223 184.163 93.5223C184.163 93.5223 181.387 91.6846 181.164 86.9912C180.618 75.5183 171.447 83.8126 171.447 83.8126C171.447 83.8126 175.239 93.2988 171.174 93.7954C169.762 93.9693 167.803 94.3914 165.92 94.7143C163.565 95.1116 159.996 97.3466 159.996 97.3466C158.855 98.1412 157.814 101.196 157.814 101.37C157.814 101.494 157.79 101.618 157.79 101.742C157.79 101.941 157.765 102.139 157.765 102.363C157.368 111.675 162.226 144.852 168.448 166.556H168.398Z" fill="url(#paint13_linear_2122_13122)"/>
<path d="M157.716 102.363C157.716 102.14 157.716 101.941 157.741 101.742C157.741 101.618 157.741 101.494 157.766 101.37C157.766 101.221 161.979 96.6515 165.251 106.014C168.474 115.227 176.356 147.261 211.602 163.825C201.316 179.594 168.399 166.532 168.399 166.532C162.153 144.828 157.32 111.651 157.716 102.338V102.363Z" fill="#AD16FF"/>
<path d="M171.895 85.1291C171.622 84.3345 171.424 83.813 171.424 83.813C171.424 83.813 178.785 77.1329 180.719 84.0365L171.895 85.1291Z" fill="url(#paint14_linear_2122_13122)"/>
<path d="M167.953 94.367C172.514 100.079 178.884 102.835 183.47 100.65C186.122 99.4081 187.683 96.751 188.13 93.4482C185.849 93.2495 184.139 93.4979 184.139 93.4979C184.139 93.4979 181.363 91.6602 181.14 86.9668C180.594 75.4939 171.423 83.7881 171.423 83.7881C171.423 83.7881 175.216 93.2744 171.151 93.771C170.234 93.8952 169.118 94.069 167.953 94.3422V94.367Z" fill="#EAC2FF"/>
<path d="M182.75 75.4437L182.676 75.0712L185.997 74.6738L186.096 75.0463L182.75 75.4437Z" fill="#6750AD"/>
<path d="M182.479 68.2422L185.775 81.6769C186.742 85.6501 184.338 89.2509 180.372 89.7476C176.406 90.2443 172.415 87.4133 171.448 83.44L171.374 83.1172C171.374 83.1172 167.21 83.3158 166.119 78.9204C165.053 74.5249 168.226 75.9901 168.226 75.9901L166.813 70.1792L182.503 68.2422H182.479Z" fill="#EAC2FF"/>
<path d="M168.201 75.9652L166.788 70.1543L172.365 69.459C172.365 69.459 172.365 69.5335 172.39 69.5832L176.108 84.8058C176.752 87.4629 179.652 89.3254 182.057 88.9529C182.8 88.8288 183.445 88.5308 183.965 88.0838C183.023 88.9529 181.784 89.5489 180.346 89.7476C176.38 90.2442 172.39 87.4133 171.423 83.44L171.349 83.1172C171.349 83.1172 167.185 83.3158 166.094 78.9204C165.028 74.5249 168.201 75.9901 168.201 75.9901V75.9652Z" fill="#E1A9FF"/>
<path d="M168.326 76.1146C168.326 76.1146 170.482 79.914 170.11 75.0219C169.739 70.1298 171.176 70.1795 176.332 69.9063C181.487 69.6331 188.13 66.7525 183.768 60.4946C179.505 54.336 169.838 60.4697 169.838 60.4697C169.838 60.4697 161.286 58.9053 161.584 65.6847C161.881 72.4641 168.326 76.0897 168.326 76.0897V76.1146Z" fill="#5940A6"/>
<path d="M176.134 80.2616C173.952 80.485 172.341 78.1756 171.945 76.5366C171.573 74.9969 172.515 74.0036 174.622 73.7553C176.728 73.507 178.092 74.2023 178.463 75.7419C178.687 76.6856 178.637 77.7286 178.315 78.5481C178.042 79.2434 177.472 80.1126 176.208 80.2616C176.208 80.2616 176.158 80.2616 176.134 80.2616ZM174.869 74.103C174.869 74.103 174.745 74.103 174.696 74.103C173.357 74.2768 171.87 74.8231 172.292 76.4869C172.663 77.9769 174.101 80.0877 176.059 79.8891C176.059 79.8891 176.109 79.8891 176.134 79.8891C177.224 79.7649 177.745 78.9951 177.993 78.3742C178.29 77.6292 178.34 76.6608 178.116 75.7916C177.72 74.2023 176.183 73.9788 174.894 74.103H174.869Z" fill="#6750AD"/>
<path d="M183.891 79.2928C181.71 79.5163 180.099 77.2068 179.702 75.5678C179.331 74.0282 180.272 73.0349 182.379 72.7865C184.486 72.5382 185.849 73.2335 186.221 74.7732C186.618 76.437 186.197 79.0196 183.966 79.2928C183.966 79.2928 183.916 79.2928 183.891 79.2928ZM182.627 73.1342C182.627 73.1342 182.503 73.1342 182.454 73.1342C181.14 73.308 179.628 73.8295 180.049 75.5182C180.421 77.033 181.884 79.1686 183.867 78.9203C185.85 78.672 186.221 76.3128 185.85 74.798C185.453 73.2087 183.916 72.9852 182.627 73.1094V73.1342Z" fill="#6750AD"/>
<path d="M178.214 75.5932L178.115 75.2455L179.751 75.0469L179.826 75.3945L178.214 75.5932Z" fill="#6750AD"/>
<path d="M168.97 77.1579L168.871 76.7854L172.217 76.3633L172.292 76.7358L168.97 77.1579Z" fill="#6750AD"/>
<path d="M159.649 108.372C161.657 114.357 176.454 132.981 179.305 136.905C182.75 141.648 189.071 140.258 188.774 135.167C188.526 130.846 172.786 105.342 170.332 102.71C165.895 97.9669 157.146 100.872 159.649 108.347V108.372Z" fill="#EAC2FF"/>
<path d="M170.134 127.99C165.375 121.211 159.104 108.198 158.088 105.144C155.584 97.6443 164.359 94.7389 168.771 99.5068C170.159 100.997 177.545 111.725 182.503 121.012C182.279 123.967 175.81 129.232 170.109 127.99H170.134Z" fill="url(#paint15_linear_2122_13122)"/>
</g>
<path d="M346.418 273.809C347.732 283.817 341.882 292.087 332.885 293.899C331.646 294.148 330.357 294.272 329.018 294.272L249.106 293.949L122.545 293.452C116.1 293.403 112.333 284.96 117.067 281.135L174.969 234.176L183.842 226.974L186.172 225.087L188.775 222.976L202.184 212.099L202.507 211.826L203.944 210.659L207.439 207.828L213.413 202.986L221.171 196.703L226.079 192.705L239.811 181.555L244.743 177.581L258.475 166.456L263.383 162.458L279.098 149.719L280.015 148.974L292.582 138.767L324.829 112.618L346.394 273.735L346.418 273.809Z" fill="url(#paint16_linear_2122_13122)"/>
<path d="M122.619 293.825C119.545 293.8 116.67 291.838 115.332 288.834C113.993 285.829 114.588 282.7 116.844 280.862L202.284 211.578L225.856 192.457L325.102 111.973L325.201 112.668L346.765 273.81C348.079 283.768 342.304 292.36 333.009 294.222C331.745 294.496 330.431 294.62 329.093 294.62L122.644 293.8L122.619 293.825ZM324.606 113.363L117.315 281.433C115.282 283.097 114.737 285.903 115.951 288.61C117.166 291.317 119.744 293.08 122.52 293.105L328.969 293.924C330.282 293.924 331.546 293.8 332.761 293.552C341.734 291.739 347.336 283.445 346.047 273.81L324.581 113.363H324.606Z" fill="#AD16FF"/>
<path d="M332.884 293.925C332.562 294.074 332.19 294.173 331.793 294.223C331.471 294.272 331.124 294.297 330.777 294.297H329.017L249.105 293.974L122.544 293.478H122.073C110.968 293.428 100.756 284.19 99.2194 272.841L98.7236 269.067L97.8065 262.188L95.1791 242.471L77.6797 111.725L117.066 138.221L119.321 139.736L148.57 159.404L152.536 162.061L158.509 166.084L175.24 177.334L181.239 181.356L197.97 192.606L203.968 196.629L213.412 202.986L220.699 207.878L226.698 211.926L227.094 212.199L243.429 223.175L249.427 227.198L332.785 283.271C337.222 286.251 336.8 292.261 332.884 293.825V293.925Z" fill="url(#paint17_linear_2122_13122)"/>
<path d="M122.619 293.825H122.123C110.845 293.776 100.435 284.364 98.898 272.841L94.8329 242.471L77.2344 111.029L332.934 283.048C335.041 284.463 336.28 286.698 336.305 289.057C336.305 291.441 335.066 293.428 333.058 294.223C332.686 294.372 332.315 294.496 331.893 294.545C331.571 294.595 331.199 294.62 330.827 294.62H329.068L122.619 293.8V293.825ZM78.1267 112.42L99.592 272.866C101.079 283.991 111.143 293.08 122.049 293.13H122.52L330.728 293.949C331.075 293.949 331.373 293.949 331.67 293.875C332.042 293.825 332.389 293.726 332.686 293.577C334.471 292.857 335.586 291.094 335.586 288.958C335.586 286.847 334.496 284.885 332.587 283.619L226.872 212.522L226.475 212.249L78.1267 112.42Z" fill="#AD16FF"/>
</g>
<path d="M116.176 48.9706C99.6182 88.9518 118.555 134.794 158.437 151.382C198.344 167.97 244.1 148.998 260.658 109.042C277.215 69.0605 258.278 23.2187 218.396 6.63025C178.49 -9.95821 132.708 9.01422 116.176 48.9706ZM242.712 101.567C230.269 131.615 195.865 145.869 165.898 133.403C135.906 120.937 121.703 86.4685 134.146 56.4453C146.589 26.3974 180.993 12.168 210.96 24.6094C240.952 37.0756 255.18 71.5438 242.737 101.567H242.712Z" fill="#6C56B0"/>
<path d="M113.201 56.1229C96.6436 96.1041 115.581 141.946 155.462 158.534C195.369 175.123 241.125 156.15 257.683 116.194C274.24 76.2129 255.303 30.3711 215.422 13.7826C175.515 -2.80587 129.759 16.1666 113.201 56.1229ZM239.737 108.719C227.294 138.767 192.89 153.021 162.923 140.555C132.931 128.089 118.729 93.6457 131.171 63.5977C143.614 33.5497 177.994 19.2955 207.986 31.7617C237.977 44.2279 252.18 78.6962 239.762 108.719H239.737Z" fill="#9D8ECA"/>
<path d="M406.601 178.102C403.18 186.347 393.761 190.246 385.532 186.819L241.67 127.021L254.014 97.1963L397.876 156.994C406.105 160.421 409.997 169.858 406.576 178.102H406.601Z" fill="#9D8ECA"/>
<path d="M390.689 125.307C379.931 129.678 351.799 152.847 344.66 153.17C337.521 153.493 326.442 157.814 324.682 163.078C322.872 168.467 327.111 169.734 332.514 169.56C335.935 169.46 339.653 168.84 345.874 163.898C352.121 158.931 384.467 147.483 394.531 141.573C404.52 135.737 397.927 122.327 390.664 125.307H390.689Z" fill="#EAC2FF"/>
<path d="M258.402 130.026C258.823 135.241 257.609 136.557 262.963 140.481C268.317 144.404 269.482 142.02 272.654 137.848C275.753 133.776 257.981 124.836 258.402 130.051V130.026Z" fill="#EAC2FF"/>
<path d="M410.791 77.2303C410.791 77.2303 410.791 77.3048 410.791 77.3296C410.741 78.3229 410.667 79.4156 410.568 80.5827C410.518 81.2781 410.468 82.0231 410.394 82.768C410.27 84.2829 410.121 85.897 409.948 87.6105C409.874 88.4796 409.774 89.3488 409.7 90.2428C409.551 91.5589 409.403 92.9496 409.254 94.3651C409.105 95.7557 408.956 97.196 408.783 98.6612C408.163 104 407.444 109.588 406.701 114.877C404.916 127.393 403.206 135.687 401.669 137.897C401.173 138.618 400.603 139.189 399.959 139.636C399.86 139.71 399.736 139.785 399.637 139.834C398.224 140.679 396.563 140.902 394.878 140.604C394.878 140.629 394.828 140.604 394.828 140.604C390.49 139.834 385.186 136.507 384.318 132.831C382.658 125.953 385.285 82.6935 388.259 73.3563C388.929 71.2455 397.778 62.7526 404.346 65.2856C407.296 66.4031 409.675 68.1662 410.568 70.6992C410.617 70.7985 410.642 70.873 410.667 70.9723C410.667 71.0717 410.716 71.171 410.741 71.2703C410.791 71.4442 410.815 71.618 410.84 71.767C410.989 72.5368 410.939 74.4738 410.766 77.2303H410.791Z" fill="url(#paint18_linear_2122_13122)"/>
<defs>
<linearGradient id="paint0_linear_2122_13122" x1="25.7045" y1="251.286" x2="351.724" y2="251.286" gradientUnits="userSpaceOnUse">
<stop stop-color="white"/>
<stop offset="1" stop-color="#E5E1F1"/>
</linearGradient>
<linearGradient id="paint1_linear_2122_13122" x1="84.5228" y1="78.1743" x2="267.399" y2="78.1743" gradientUnits="userSpaceOnUse">
<stop stop-color="#B674FF"/>
<stop offset="1" stop-color="#C04EFF"/>
</linearGradient>
<linearGradient id="paint2_linear_2122_13122" x1="112.11" y1="184.311" x2="283.511" y2="184.311" gradientUnits="userSpaceOnUse">
<stop stop-color="#B674FF"/>
<stop offset="1" stop-color="#C04EFF"/>
</linearGradient>
<linearGradient id="paint3_linear_2122_13122" x1="0.000695679" y1="183.938" x2="275.629" y2="183.938" gradientUnits="userSpaceOnUse">
<stop stop-color="#B674FF"/>
<stop offset="1" stop-color="#C04EFF"/>
</linearGradient>
<linearGradient id="paint4_linear_2122_13122" x1="49.5254" y1="171.671" x2="202.261" y2="171.671" gradientUnits="userSpaceOnUse">
<stop stop-color="#B674FF"/>
<stop offset="1" stop-color="#C04EFF"/>
</linearGradient>
<linearGradient id="paint5_linear_2122_13122" x1="73.7211" y1="203.076" x2="85.4718" y2="202.789" gradientUnits="userSpaceOnUse">
<stop stop-color="white"/>
<stop offset="1" stop-color="#E5E1F1"/>
</linearGradient>
<linearGradient id="paint6_linear_2122_13122" x1="-59.0636" y1="176.369" x2="-21.7412" y2="180.291" gradientUnits="userSpaceOnUse">
<stop stop-color="#00FFF8"/>
<stop offset="1" stop-color="#BF49FF"/>
</linearGradient>
<linearGradient id="paint7_linear_2122_13122" x1="178.094" y1="195.983" x2="321.163" y2="195.983" gradientUnits="userSpaceOnUse">
<stop stop-color="#B674FF"/>
<stop offset="1" stop-color="#C04EFF"/>
</linearGradient>
<linearGradient id="paint8_linear_2122_13122" x1="208.617" y1="229.334" x2="183.317" y2="229.361" gradientUnits="userSpaceOnUse">
<stop stop-color="white"/>
<stop offset="1" stop-color="#E5E1F1"/>
</linearGradient>
<linearGradient id="paint9_linear_2122_13122" x1="214.081" y1="220.851" x2="202.351" y2="220.864" gradientUnits="userSpaceOnUse">
<stop stop-color="white"/>
<stop offset="1" stop-color="#E5E1F1"/>
</linearGradient>
<linearGradient id="paint10_linear_2122_13122" x1="337.422" y1="57.7372" x2="338.666" y2="185.007" gradientUnits="userSpaceOnUse">
<stop stop-color="#B674FF"/>
<stop offset="1" stop-color="#C04EFF"/>
</linearGradient>
<linearGradient id="paint11_linear_2122_13122" x1="378.37" y1="57.3396" x2="379.614" y2="184.609" gradientUnits="userSpaceOnUse">
<stop stop-color="#B674FF"/>
<stop offset="1" stop-color="#C04EFF"/>
</linearGradient>
<linearGradient id="paint12_linear_2122_13122" x1="77.6797" y1="60.0468" x2="324.853" y2="60.0468" gradientUnits="userSpaceOnUse">
<stop stop-color="#B674FF"/>
<stop offset="1" stop-color="#C04EFF"/>
</linearGradient>
<linearGradient id="paint13_linear_2122_13122" x1="175.802" y1="162.458" x2="156.589" y2="81.8199" gradientUnits="userSpaceOnUse">
<stop stop-color="#B674FF"/>
<stop offset="1" stop-color="#C04EFF"/>
</linearGradient>
<linearGradient id="paint14_linear_2122_13122" x1="-164.003" y1="111.6" x2="-213.858" y2="117.71" gradientUnits="userSpaceOnUse">
<stop stop-color="#00FFF8"/>
<stop offset="1" stop-color="#BF49FF"/>
</linearGradient>
<linearGradient id="paint15_linear_2122_13122" x1="170.106" y1="163.826" x2="150.893" y2="83.1877" gradientUnits="userSpaceOnUse">
<stop stop-color="#B674FF"/>
<stop offset="1" stop-color="#C04EFF"/>
</linearGradient>
<linearGradient id="paint16_linear_2122_13122" x1="114.985" y1="203.482" x2="346.592" y2="203.482" gradientUnits="userSpaceOnUse">
<stop stop-color="#B674FF"/>
<stop offset="1" stop-color="#C04EFF"/>
</linearGradient>
<linearGradient id="paint17_linear_2122_13122" x1="77.6797" y1="203.011" x2="335.957" y2="203.011" gradientUnits="userSpaceOnUse">
<stop stop-color="#B674FF"/>
<stop offset="1" stop-color="#C04EFF"/>
</linearGradient>
<linearGradient id="paint18_linear_2122_13122" x1="396.96" y1="57.1652" x2="398.204" y2="184.434" gradientUnits="userSpaceOnUse">
<stop stop-color="#B674FF"/>
<stop offset="1" stop-color="#C04EFF"/>
</linearGradient>
</defs>
</svg>
