<svg width="80" height="80" viewBox="0 0 80 80" fill="none" xmlns="http://www.w3.org/2000/svg">
<path d="M68.75 8.75V36.25H78.75V8.75H68.75ZM76.25 33.75H71.25V11.25H76.25V33.75Z" fill="#B8B2FF"/>
<path d="M56.25 21.395C55.45 20.68 54.6162 20.01 53.75 19.3887V18.75H52.8088C47.9375 15.5275 42.1788 13.75 36.25 13.75H35V45H66.25V43.75C66.25 41.21 65.9138 38.6975 65.2825 36.25H66.25V13.75H56.25V21.395ZM63.7225 42.5H37.5V16.2775C41.0375 16.44 44.4838 17.2987 47.6613 18.75H43.75V36.25H53.75V22.5837C54.625 23.3062 55.465 24.0725 56.25 24.905V36.25H62.695C63.2725 38.2887 63.6263 40.3813 63.7225 42.5ZM51.25 21.25V33.75H46.25V21.25H51.25ZM58.75 16.25H63.75V33.75H58.75V16.25Z" fill="#B8B2FF"/>
<path d="M21.6163 39.1152L10.9912 49.7402L12.759 51.508L23.384 40.8829L21.6163 39.1152Z" fill="#B8B2FF"/>
<path d="M16.25 40C16.25 37.9325 14.5675 36.25 12.5 36.25C10.4325 36.25 8.75 37.9325 8.75 40C8.75 42.0675 10.4325 43.75 12.5 43.75C14.5675 43.75 16.25 42.0675 16.25 40ZM11.25 40C11.25 39.31 11.81 38.75 12.5 38.75C13.19 38.75 13.75 39.31 13.75 40C13.75 40.69 13.19 41.25 12.5 41.25C11.81 41.25 11.25 40.69 11.25 40Z" fill="#B8B2FF"/>
<path d="M22.5 46.25C20.4325 46.25 18.75 47.9325 18.75 50C18.75 52.0675 20.4325 53.75 22.5 53.75C24.5675 53.75 26.25 52.0675 26.25 50C26.25 47.9325 24.5675 46.25 22.5 46.25ZM22.5 51.25C21.81 51.25 21.25 50.69 21.25 50C21.25 49.31 21.81 48.75 22.5 48.75C23.19 48.75 23.75 49.31 23.75 50C23.75 50.69 23.19 51.25 22.5 51.25Z" fill="#B8B2FF"/>
<path d="M56.0712 65.5537C59.4487 60.5775 61.25 54.7988 61.25 48.75V47.5H32.5V18.75H31.25C30.015 18.75 28.7587 18.8587 27.5 19.0175V1.25H1.25V18.75H16.9825L19.4237 21.1912C8.48125 25.89 1.25 36.7225 1.25 48.75C1.25 65.2913 14.7087 78.75 31.25 78.75C38.5037 78.75 45.4137 76.1275 50.8737 71.3913L54.7412 75.2588C55.5012 76.0188 56.5012 76.4 57.5 76.4C58.4987 76.4 59.4987 76.0188 60.2587 75.2588C61.78 73.7375 61.78 71.2625 60.2587 69.7412L56.0712 65.5537ZM3.75 16.25V3.75H25V23.2325L18.0175 16.25H3.75ZM31.25 76.25C16.0862 76.25 3.75 63.9137 3.75 48.75C3.75 37.3862 10.795 27.1912 21.3462 23.1137L27.5 29.2675V21.525C28.3362 21.41 29.1725 21.3175 30 21.2788V50H58.7225C58.5037 54.9313 56.9725 59.635 54.275 63.7575L52.2812 61.7637C52.4187 61.1975 52.5 60.6087 52.5 60C52.5 55.8638 49.1362 52.5 45 52.5C40.8637 52.5 37.5 55.8638 37.5 60C37.5 64.1362 40.8637 67.5 45 67.5C45.6087 67.5 46.1975 67.4188 46.7637 67.2812L49.1012 69.6188C44.1187 73.8887 37.84 76.25 31.25 76.25ZM45 65C42.2425 65 40 62.7575 40 60C40 57.2425 42.2425 55 45 55C47.7575 55 50 57.2425 50 60C50 62.7575 47.7575 65 45 65ZM58.4912 73.4912C57.9437 74.0387 57.0562 74.0387 56.5087 73.4912L49.2162 66.1987C49.995 65.6675 50.6675 64.995 51.1987 64.2163L58.4912 71.5088C59.0375 72.0563 59.0375 72.9437 58.4912 73.4912Z" fill="#B8B2FF"/>
<path d="M22.5 6.25H6.25V8.75H22.5V6.25Z" fill="#B8B2FF"/>
<path d="M22.5 11.25H6.25V13.75H22.5V11.25Z" fill="#B8B2FF"/>
<path d="M46.25 58.75H43.75V61.25H46.25V58.75Z" fill="#B8B2FF"/>
<path d="M35 58.75H32.5V61.25H35V58.75Z" fill="#B8B2FF"/>
<path d="M30 58.75H27.5V61.25H30V58.75Z" fill="#B8B2FF"/>
<path d="M25 58.75H22.5V61.25H25V58.75Z" fill="#B8B2FF"/>
</svg>
