<svg width="100" height="100" viewBox="0 0 100 100" fill="none" xmlns="http://www.w3.org/2000/svg">
<path d="M13 67C13.0025 63.3621 13.917 59.7815 15.6616 56.5784C17.4062 53.3753 19.9266 50.6495 22.9975 48.6447C26.0683 46.6399 29.5939 45.4186 33.259 45.09C36.9241 44.7614 40.6144 45.3358 44 46.7617" stroke="black" stroke-width="3" stroke-linecap="round" stroke-linejoin="round"/>
<path d="M35.5 40C39.0804 40 42.5142 38.5777 45.0459 36.0459C47.5777 33.5142 49 30.0804 49 26.5C49 22.9196 47.5777 19.4858 45.0459 16.9541C42.5142 14.4223 39.0804 13 35.5 13C31.9196 13 28.4858 14.4223 25.9541 16.9541C23.4223 19.4858 22 22.9196 22 26.5C22 30.0804 23.4223 33.5142 25.9541 36.0459C28.4858 38.5777 31.9196 40 35.5 40Z" stroke="black" stroke-width="3" stroke-linecap="round" stroke-linejoin="round"/>
<path d="M69.5 50C72.8152 50 75.9946 51.293 78.3388 53.5946C80.683 55.8962 82 59.0178 82 62.2727V72.0909C82 73.3929 82.5268 74.6415 83.4645 75.5622C84.4021 76.4828 85.6739 77 87 77H52C53.3261 77 54.5979 76.4828 55.5355 75.5622C56.4732 74.6415 57 73.3929 57 72.0909V62.2727C57 59.0178 58.317 55.8962 60.6612 53.5946C63.0054 51.293 66.1848 50 69.5 50Z" stroke="#00CCF5" stroke-width="3" stroke-linecap="round" stroke-linejoin="round"/>
<path d="M70 87C69.4696 87 68.9609 86.8946 68.5858 86.7071C68.2107 86.5196 68 86.2652 68 86C68 85.7348 68.2107 85.4804 68.5858 85.2929C68.9609 85.1054 69.4696 85 70 85" stroke="#00CCF5" stroke-width="3"/>
<path d="M70 87C70.2652 87 70.5196 86.8946 70.7071 86.7071C70.8946 86.5196 71 86.2652 71 86C71 85.7348 70.8946 85.4804 70.7071 85.2929C70.5196 85.1054 70.2652 85 70 85" stroke="#00CCF5" stroke-width="3"/>
</svg>
