<svg width="100" height="100" viewBox="0 0 100 100" fill="none" xmlns="http://www.w3.org/2000/svg">
<path d="M19.0001 24.1562V48.52C19.0002 56.2209 21.319 63.7411 25.6508 70.0892C29.9826 76.4372 36.1242 81.3152 43.2659 84.0801L46.5757 85.3601C48.7799 86.2133 51.2201 86.2133 53.4243 85.3601L56.7341 84.0801C63.8758 81.3152 70.0173 76.4372 74.3492 70.0892C78.681 63.7411 80.9998 56.2209 80.9999 48.52V24.1562C81.006 23.2394 80.7488 22.3403 80.2592 21.5671C79.7696 20.7939 79.0684 20.1796 78.2401 19.798C69.3371 15.887 59.7138 13.9123 50 14.003C40.2862 13.9123 30.6629 15.887 21.7599 19.798C20.9316 20.1796 20.2304 20.7939 19.7408 21.5671C19.2512 22.3403 18.994 23.2394 19.0001 24.1562Z" stroke="black" stroke-width="3" stroke-linecap="round" stroke-linejoin="round"/>
<path d="M67 47.4286C66.5322 50.6532 65.1428 53.6762 62.9973 56.1376C60.8517 58.5991 58.0404 60.3953 54.898 61.3125C51.7556 62.2297 48.4145 62.2292 45.2724 61.3111C42.1303 60.3929 39.3195 58.5959 37.1747 56.1338C35.0299 53.6717 33.6414 50.6484 33.1746 47.4236C32.7077 44.1988 33.1821 40.9085 34.5413 37.9443C35.9004 34.9801 38.0872 32.467 40.8411 30.704C43.5951 28.9409 46.8003 28.0024 50.0751 28" stroke="#00CCF5" stroke-width="3" stroke-linecap="round" stroke-linejoin="round"/>
<path d="M67 33L51.7411 48.3833C51.3484 48.7782 50.8164 49 50.2617 49C49.7071 49 49.175 48.7782 48.7824 48.3833L44 43.5459" stroke="#00CCF5" stroke-width="3" stroke-linecap="round" stroke-linejoin="round"/>
</svg>
