<svg width="89" height="27" viewBox="0 0 89 27" fill="none" xmlns="http://www.w3.org/2000/svg">
<g clip-path="url(#clip0_1129_22940)">
<path d="M11.9313 3.18555H13.8348C13.9362 3.18555 14.0302 3.22535 14.099 3.29773L37.0495 26.9214C37.0495 26.9214 37.14 27.0046 37.0278 27.0046C37.0242 27.0046 34.368 27.0046 34.368 27.0046C34.2667 27.0046 34.1726 26.9395 34.1002 26.8707L14.6274 6.95997C14.3921 6.72475 13.9904 6.89122 13.9904 7.22415V12.8876C13.9904 13.0939 13.824 13.2603 13.6177 13.2603H11.9313C11.7251 13.2603 11.5586 13.0939 11.5586 12.8876V3.55829C11.5586 3.35201 11.7251 3.18555 11.9313 3.18555ZM34.6973 15.9962H36.3837C36.59 15.9962 36.7564 16.1626 36.7564 16.3689V23.0022C36.7564 23.3351 36.3511 23.5016 36.1159 23.2627L34.4295 21.533C34.3608 21.4642 34.3246 21.3701 34.3246 21.2724V16.3689C34.3246 16.1626 34.491 15.9962 34.6973 15.9962Z" fill="#007EDD"/>
<path d="M20.5876 3.01758H22.274C22.4802 3.01758 22.6467 3.18404 22.6467 3.39032V9.4265C22.6467 9.77029 22.2233 9.92952 21.9953 9.6762L20.3089 7.7908C20.2474 7.72204 20.2148 7.63519 20.2148 7.5411V3.39394C20.2148 3.18766 20.3813 3.0212 20.5876 3.0212V3.01758Z" fill="#007EDD"/>
<path d="M36.839 4.43654C37.114 4.12532 37.085 4.36778 37.0271 4.51253C36.1695 6.66573 36.1369 8.72122 36.9186 10.6609C37.0018 10.8672 36.8028 10.8636 36.7883 10.8382C35.576 9.01796 35.6918 6.25318 36.839 4.43654Z" fill="#007EDD"/>
<path d="M54.3084 2.36929C54.2794 2.31863 53.9935 2.25711 54.0623 2.47062C55.1298 5.67327 54.6377 8.88678 53.0128 11.5575C52.8391 11.8434 53.1721 11.8615 53.201 11.8325C55.517 9.39342 55.9079 5.13407 54.3047 2.37291L54.3084 2.36929Z" fill="#FF9B00"/>
<path d="M54.2251 1.13631C53.8307 0.430639 53.1829 0 51.6811 0C50.1793 0 48.7897 0.951749 48.7897 0.951749C48.7897 0.951749 46.5279 2.54765 43.8319 6.01086C42.8114 4.92883 41.4181 3.58987 41.4181 3.58987C41.4181 3.58987 40.3108 2.63812 39.4169 2.63812C38.5267 2.63812 37.0068 2.89505 37.0032 3.57177C37.0032 3.9047 38.2191 4.01327 38.7438 4.54524C39.2686 5.0772 42.0478 8.06635 42.0478 8.06635C42.0478 8.06635 39.8982 10.9976 38.7185 11.4861C37.5388 11.971 37.3072 11.3088 37.0032 11.8914C36.844 12.199 38.4362 13.4077 40.3108 12.9554C42.189 12.503 43.9187 10.006 43.9187 10.006C43.9187 10.006 45.9561 12.3112 47.4181 13.2955C48.8801 14.2799 50.5339 14.2473 51.2324 14.0627C52.394 13.7587 53.23 13.1653 53.0961 12.9988C52.7052 12.5103 51.8621 13.2449 50.6353 12.5501C49.9839 12.1809 49.0032 11.4897 48.1528 10.7008C46.8138 9.45235 45.6124 8.01568 45.6124 8.01568C45.6124 8.01568 48.2649 4.70446 49.2746 3.68396C50.0309 2.91677 51.2179 1.99035 52.6437 1.31001C53.2698 1.01327 54.4169 1.4801 54.2215 1.13269L54.2251 1.13631Z" fill="url(#paint0_linear_1129_22940)"/>
<path d="M57.5686 3.01758H59.3418C59.5481 3.01758 59.7146 3.18404 59.7146 3.39032V9.18404C59.7146 10.6895 61.0825 11.4494 62.4721 11.4494C63.8617 11.4494 65.2297 10.6895 65.2297 9.18404V3.39032C65.2297 3.18404 65.3961 3.01758 65.6024 3.01758H67.3756C67.5819 3.01758 67.7484 3.18404 67.7484 3.39032V9.18404C67.7484 12.2673 65.1102 13.8161 62.4757 13.8161C59.8412 13.8161 57.2031 12.2673 57.2031 9.18404V3.39032C57.2031 3.18404 57.3696 3.01758 57.5759 3.01758H57.5686Z" fill="#007EDD"/>
<path d="M78.478 6.22385C78.3622 6.41203 78.1234 6.45184 77.9388 6.32518C76.94 5.6376 75.3622 5.22144 74.1065 5.22144C73.0028 5.22144 72.1704 5.53266 72.1704 6.24918C72.1704 8.06583 79.513 6.69792 79.513 10.8523C79.513 13.1466 77.1282 14.0694 74.5371 14.0694C72.5685 14.0694 70.4732 13.5411 69.1704 12.6762C69.0076 12.5676 68.9678 12.3433 69.0691 12.1768L69.9087 10.7582C70.0245 10.5628 70.2742 10.5266 70.4587 10.6569C71.5299 11.4096 73.3719 11.8656 74.7905 11.8656C75.8942 11.8656 76.7555 11.5688 76.7555 10.9138C76.7555 9.0212 69.4418 10.3312 69.4418 6.20576C69.4418 3.91143 71.5878 3.01758 74.0016 3.01758C75.8544 3.01758 77.8592 3.53145 79.1837 4.35292C79.3574 4.46149 79.4008 4.68947 79.2959 4.86318L78.4744 6.22385H78.478Z" fill="#007EDD"/>
<path d="M5.84048 15.8438C7.78379 15.8438 9.47016 16.582 10.592 17.8522C10.7295 18.0042 10.7042 18.2466 10.5486 18.3805L9.24217 19.5169C9.08657 19.6507 8.86582 19.629 8.72106 19.4843C8.02625 18.7714 6.9587 18.2539 5.94181 18.2539C3.72348 18.2539 2.60526 19.8172 2.60526 21.3986C2.60526 22.9801 3.72348 24.5253 5.94181 24.5253C7.22649 24.5253 8.09501 23.9716 8.72106 23.2804C8.8622 23.1248 9.0938 23.1031 9.24941 23.2406L10.5413 24.3661C10.6969 24.5036 10.7187 24.746 10.5811 24.9017C9.43397 26.1538 7.75122 26.9535 5.82239 26.9535C3.14085 26.9535 -0.00390625 25.0609 -0.00390625 21.3986C-0.00390625 17.7364 3.15532 15.8438 5.83687 15.8438H5.84048Z" fill="#FF9B00"/>
<path d="M17.6159 26.9535C14.8765 26.9535 11.6738 25.1224 11.6738 21.3986C11.6738 17.6749 14.8765 15.8438 17.6159 15.8438C20.3554 15.8438 23.5616 17.6749 23.5616 21.3986C23.5616 25.1224 20.3445 26.9535 17.6159 26.9535ZM17.6159 18.2249C16.0526 18.2249 14.236 19.2672 14.236 21.3986C14.236 23.5301 16.0526 24.5579 17.6159 24.5579C19.1793 24.5579 20.9814 23.5301 20.9814 21.3986C20.9814 19.2672 19.1648 18.2249 17.6159 18.2249Z" fill="#FF9B00"/>
<path d="M63.083 16.2379V17.6818C63.083 17.9026 62.9056 18.0799 62.6849 18.0799H53.5582C53.3375 18.0799 53.1602 17.9026 53.1602 17.6818V16.2379C53.1602 16.0172 53.3375 15.8398 53.5582 15.8398H62.6849C62.9056 15.8398 63.083 16.0172 63.083 16.2379ZM63.083 20.6818V22.1113C63.083 22.332 62.9056 22.5093 62.6849 22.5093H53.5582C53.3375 22.5093 53.1602 22.332 53.1602 22.1113V20.6818C53.1602 20.4611 53.3375 20.2838 53.5582 20.2838H62.6849C62.9056 20.2838 63.083 20.4611 63.083 20.6818ZM63.083 25.1113V26.5552C63.083 26.7759 62.9056 26.9532 62.6849 26.9532H53.6053C53.3845 26.9532 53.2072 26.7759 53.2072 26.5552V25.1113C53.2072 24.8905 53.3845 24.7132 53.6053 24.7132H62.6849C62.9056 24.7132 63.083 24.8905 63.083 25.1113Z" fill="#FF9B00"/>
<path d="M34.8894 3.40479V4.80889C34.8894 5.0224 34.7157 5.19611 34.5022 5.19611H25.6216C25.4081 5.19611 25.2344 5.0224 25.2344 4.80889V3.40479C25.2344 3.19128 25.4081 3.01758 25.6216 3.01758H34.5022C34.7157 3.01758 34.8894 3.19128 34.8894 3.40479ZM34.8894 7.72928V9.11891C34.8894 9.33242 34.7157 9.50612 34.5022 9.50612H25.6216C25.4081 9.50612 25.2344 9.33242 25.2344 9.11891V7.72928C25.2344 7.51577 25.4081 7.34207 25.6216 7.34207H34.5022C34.7157 7.34207 34.8894 7.51577 34.8894 7.72928ZM34.8894 12.0393V13.4434C34.8894 13.6569 34.7157 13.8306 34.5022 13.8306H25.6686C25.4551 13.8306 25.2814 13.6569 25.2814 13.4434V12.0393C25.2814 11.8258 25.4551 11.6521 25.6686 11.6521H34.5022C34.7157 11.6521 34.8894 11.8258 34.8894 12.0393Z" fill="#007EDD"/>
<path d="M27.3695 26.9814H25.6071C25.4008 26.9814 25.2344 26.8149 25.2344 26.6086V20.1563C25.2344 19.827 25.6324 19.6605 25.8677 19.8885L27.63 21.6074C27.7024 21.6762 27.7422 21.7739 27.7422 21.8752V26.6086C27.7422 26.8149 27.5757 26.9814 27.3695 26.9814Z" fill="#FF9B00"/>
<path d="M38.953 15.8438H41.0483C41.1641 15.8438 41.2727 15.8944 41.3487 15.9813L50.7142 26.9825H47.8698C47.7504 26.9825 47.6454 26.9065 47.5694 26.816L41.9277 20.1248C41.6889 19.8425 41.2293 20.009 41.2293 20.3817V26.588C41.2293 26.8051 41.052 26.9825 40.8348 26.9825H38.953C38.7359 26.9825 38.5586 26.8051 38.5586 26.588V16.2418C38.5586 16.0247 38.7359 15.8474 38.953 15.8474V15.8438ZM48.438 15.8438H50.3234C50.5405 15.8438 50.7178 16.0211 50.7178 16.2382V23.8992C50.7178 24.2611 50.2691 24.4348 50.0266 24.1634L48.1412 22.0573C48.0761 21.9849 48.0399 21.8908 48.0399 21.7931V16.2418C48.0399 16.0247 48.2172 15.8474 48.4343 15.8474L48.438 15.8438Z" fill="#FF9B00"/>
<path d="M70.5963 15.8438C72.5397 15.8438 74.226 16.582 75.3479 17.8522C75.4854 18.0042 75.46 18.2466 75.3044 18.3805L73.998 19.5169C73.8424 19.6507 73.6217 19.629 73.4769 19.4843C72.7821 18.7714 71.7146 18.2539 70.6977 18.2539C68.4793 18.2539 67.3611 19.8172 67.3611 21.3986C67.3611 22.9801 68.4793 24.5253 70.6977 24.5253C71.9824 24.5253 72.8509 23.9716 73.4769 23.2804C73.6181 23.1248 73.8497 23.1031 74.0053 23.2406L75.2972 24.3661C75.4528 24.5036 75.4745 24.746 75.337 24.9017C74.1898 26.1538 72.5071 26.9535 70.5783 26.9535C67.8967 26.9535 64.752 25.0609 64.752 21.3986C64.752 17.7364 67.9076 15.8438 70.5927 15.8438H70.5963Z" fill="#FF9B00"/>
<path d="M88.6755 16.2165V17.5555C88.6755 17.7617 88.509 17.9282 88.3028 17.9282H77.4138C77.2075 17.9282 77.041 17.7617 77.041 17.5555V16.2165C77.041 16.0102 77.2075 15.8438 77.4138 15.8438H88.3028C88.509 15.8438 88.6755 16.0102 88.6755 16.2165ZM81.9735 19.1948H83.7467C83.953 19.1948 84.1194 19.3612 84.1194 19.5675V26.6097C84.1194 26.816 83.953 26.9825 83.7467 26.9825H81.9735C81.7672 26.9825 81.6007 26.816 81.6007 26.6097V19.5675C81.6007 19.3612 81.7672 19.1948 81.9735 19.1948Z" fill="#FF9B00"/>
</g>
<defs>
<linearGradient id="paint0_linear_1129_22940" x1="53.1142" y1="7.06031" x2="36.5291" y2="7.11098" gradientUnits="userSpaceOnUse">
<stop offset="0.11" stop-color="#FF9B00"/>
<stop offset="0.4" stop-color="#FF9F00"/>
<stop offset="0.43" stop-color="#F29D0C"/>
<stop offset="0.49" stop-color="#D09A2E"/>
<stop offset="0.57" stop-color="#999465"/>
<stop offset="0.66" stop-color="#4E8CB0"/>
<stop offset="0.75" stop-color="#0085FF"/>
</linearGradient>
<clipPath id="clip0_1129_22940">
<rect width="88.6755" height="27" fill="white"/>
</clipPath>
</defs>
</svg>
