<svg width="439" height="365" viewBox="0 0 439 365" fill="none" xmlns="http://www.w3.org/2000/svg">
<path style="mix-blend-mode:multiply" d="M39.2356 152.15L64.1214 167.409C64.6242 167.706 65.1974 167.862 65.7814 167.862C66.3653 167.862 66.9385 167.706 67.4413 167.409L169.838 108.24C170.333 107.946 170.742 107.528 171.027 107.028C171.311 106.528 171.461 105.962 171.461 105.386C171.461 104.811 171.311 104.245 171.027 103.745C170.742 103.244 170.333 102.826 169.838 102.532L146.214 88.2615C145.717 87.9775 145.154 87.8281 144.582 87.8281C144.009 87.8281 143.447 87.9775 142.949 88.2615L39.2904 146.442C38.7861 146.726 38.3655 147.138 38.071 147.636C37.7765 148.134 37.6185 148.701 37.6129 149.28C37.6074 149.859 37.7544 150.429 38.0393 150.933C38.3242 151.437 38.7368 151.857 39.2356 152.15Z" fill="url(#paint0_linear_1320_1822)"/>
<path style="mix-blend-mode:multiply" d="M374.412 126.737L331.116 99.7054C330.654 99.4353 330.128 99.293 329.593 99.293C329.058 99.293 328.532 99.4353 328.07 99.7054L173.048 186.18C172.541 186.436 172.114 186.829 171.816 187.313C171.517 187.798 171.359 188.356 171.359 188.925C171.359 189.494 171.517 190.051 171.816 190.536C172.114 191.02 172.541 191.413 173.048 191.669L217.772 219.552C218.242 219.827 218.777 219.971 219.322 219.971C219.867 219.971 220.402 219.827 220.872 219.552L374.385 132.007C374.834 131.731 375.206 131.345 375.465 130.885C375.724 130.425 375.861 129.907 375.864 129.38C375.866 128.852 375.734 128.333 375.481 127.87C375.227 127.408 374.859 127.018 374.412 126.737Z" fill="url(#paint1_linear_1320_1822)"/>
<path d="M143.855 270.295L142.675 268.347L173.021 250.371C173.872 249.895 174.58 249.2 175.074 248.358C175.567 247.516 175.827 246.558 175.827 245.582C175.827 244.607 175.567 243.649 175.074 242.807C174.58 241.965 173.872 241.27 173.021 240.794L150.083 227.072C149.25 226.59 148.557 225.898 148.076 225.065C147.594 224.232 147.34 223.287 147.339 222.324C147.335 221.357 147.587 220.406 148.069 219.567C148.551 218.729 149.246 218.032 150.083 217.549L167.835 206.846L168.987 208.767L151.29 219.552C150.817 219.84 150.424 220.243 150.146 220.722C149.868 221.201 149.714 221.743 149.699 222.297C149.715 222.854 149.871 223.398 150.154 223.878C150.437 224.358 150.838 224.758 151.318 225.041L174.255 238.763C175.421 239.456 176.387 240.44 177.057 241.618C177.728 242.797 178.08 244.13 178.08 245.486C178.08 246.843 177.728 248.176 177.057 249.354C176.387 250.533 175.421 251.517 174.255 252.21L143.855 270.295ZM150.742 182.201L95.208 149.187L96.3604 147.238L151.894 180.253L150.742 182.201ZM284.938 236.924L265.732 225.947C264.764 225.388 263.667 225.094 262.549 225.094C261.432 225.094 260.334 225.388 259.367 225.947L245.84 233.905C244.852 234.492 243.724 234.802 242.575 234.802C241.426 234.802 240.298 234.492 239.31 233.905L212.366 217.549L213.546 215.628L240.517 231.929C241.155 232.314 241.885 232.518 242.63 232.518C243.374 232.518 244.105 232.314 244.742 231.929L258.296 223.998C259.604 223.236 261.091 222.835 262.604 222.835C264.118 222.835 265.604 223.236 266.912 223.998L286.118 234.976L284.938 236.924Z" fill="#383838"/>
<path style="mix-blend-mode:multiply" d="M271.466 256.217L296.325 271.393C296.828 271.69 297.401 271.846 297.985 271.846C298.569 271.846 299.142 271.69 299.645 271.393L402.041 212.279C402.537 211.989 402.947 211.574 403.232 211.076C403.518 210.577 403.668 210.013 403.668 209.439C403.668 208.865 403.518 208.301 403.232 207.802C402.947 207.304 402.537 206.889 402.041 206.599L378.418 192.328C377.92 192.044 377.358 191.895 376.785 191.895C376.213 191.895 375.65 192.044 375.153 192.328L271.631 250.508C271.121 250.782 270.692 251.186 270.387 251.679C270.083 252.172 269.914 252.736 269.897 253.315C269.881 253.894 270.017 254.467 270.292 254.976C270.568 255.486 270.973 255.914 271.466 256.217Z" fill="url(#paint2_linear_1320_1822)"/>
<path d="M268.092 234.646L298.575 252.566L357.181 219.222L326.259 201.082L268.092 234.646Z" fill="#C2C1CC"/>
<path d="M298.575 252.893L267.543 234.643L267.955 234.423L326.259 200.75L357.593 219.137L357.181 219.384L298.575 252.893ZM268.64 234.67L298.575 252.234L356.605 219.302L326.232 201.464L268.64 234.67Z" fill="#383838"/>
<path d="M268.092 254.047L298.575 271.94V252.565L268.092 234.645V254.047Z" fill="#7764F0"/>
<path d="M298.849 272.436L298.438 272.189L267.817 254.214V234.18L268.229 234.427L298.849 252.485V272.436ZM268.366 253.884L298.3 271.448V252.732L268.366 235.14V253.884Z" fill="#383838"/>
<path d="M298.575 272.021L357.456 238.43V218.973L298.575 252.564V272.021Z" fill="#DDDBE7"/>
<path d="M298.3 272.516V252.483L357.593 218.645V238.761L298.3 272.516ZM298.849 252.729V271.528L357.181 238.267V219.55L298.849 252.729Z" fill="#383838"/>
<path d="M302.087 265.984L332.899 248.42V237.031L302.087 254.595V265.984Z" fill="#5439FE"/>
<path d="M301.95 266.205V254.514L332.982 236.812V248.531L301.95 266.205ZM302.224 254.651V265.628L332.762 248.229V237.252L302.224 254.651Z" fill="#383838"/>
<path d="M331.829 247.35L302.087 264.31V265.984L332.899 248.42V237.031L331.829 237.635V247.35ZM272.811 253.333L295.31 266.149V254.76L272.811 241.916V253.333Z" fill="#383838"/>
<path d="M275.28 254.733L277.009 255.693V244.304L275.28 243.344V254.733Z" fill="#DDDBE7"/>
<path d="M277.283 256.189L275.006 254.899V242.852L277.283 244.141V256.189ZM275.582 254.57L276.707 255.229V244.471L275.582 243.812V254.57Z" fill="#383838"/>
<path d="M275.28 254.734L277.009 255.695V252.484L275.28 251.496V254.734Z" fill="#5439FE"/>
<path d="M277.119 255.939L275.116 254.814V251.246L277.119 252.481V255.939ZM275.418 254.649L276.817 255.472V252.481L275.418 251.658V254.649Z" fill="#383838"/>
<path d="M275.28 248.146L277.009 249.134V244.304L275.28 243.344V248.146Z" fill="#5439FE"/>
<path d="M277.119 249.382L275.116 248.23V243.098L277.119 244.25V249.382ZM275.418 248.065L276.817 248.888V244.388L275.418 243.592V248.065Z" fill="#383838"/>
<path d="M278.106 256.327L279.808 257.315V245.925L278.106 244.938V256.327Z" fill="#DDDBE7"/>
<path d="M280.082 257.779L277.832 256.489V244.441L280.082 245.759V257.779ZM278.381 256.16L279.533 256.818V246.061L278.381 245.429V256.16Z" fill="#383838"/>
<path d="M278.106 248.176L279.808 249.136V245.925L278.106 244.938V248.176Z" fill="#5439FE"/>
<path d="M279.862 249.38L277.887 248.255V244.688L279.862 245.813V249.38ZM278.161 248.091L279.588 248.886V245.977L278.161 245.181V248.091Z" fill="#383838"/>
<path d="M278.106 256.326L279.808 257.314V252.484L278.106 251.523V256.326Z" fill="#5439FE"/>
<path d="M279.862 257.534L277.887 256.409V251.277L279.862 252.485V257.534ZM278.161 256.245L279.588 257.068V252.485L278.161 251.689V256.245Z" fill="#383838"/>
<path d="M280.877 257.917L282.606 258.877V247.488L280.877 246.5V257.917Z" fill="#DDDBE7"/>
<path d="M282.88 259.373L280.603 258.083V246.035L282.88 247.325V259.373ZM281.179 257.754L282.304 258.385V247.654L281.179 246.996V257.754Z" fill="#383838"/>
<path d="M280.877 257.918L282.606 258.879V255.64L280.877 254.68V257.918Z" fill="#5439FE"/>
<path d="M282.743 259.123L280.74 257.997V254.43L282.743 255.555V259.123ZM281.042 257.833L282.441 258.629V255.72L281.042 254.924V257.833Z" fill="#383838"/>
<path d="M280.877 251.33L282.606 252.291V247.488L280.877 246.5V251.33Z" fill="#5439FE"/>
<path d="M282.743 252.484L280.74 251.358V246.281L282.743 247.406V252.484ZM281.042 251.194L282.441 252.017V247.571L281.042 246.748V251.194Z" fill="#383838"/>
<path d="M283.704 259.51L285.405 260.471V249.082L283.704 248.121V259.51Z" fill="#DDDBE7"/>
<path d="M285.679 260.963L283.429 259.673V247.625L285.679 248.915V260.963ZM283.978 259.343L285.13 260.002V249.244L283.978 248.586V259.343Z" fill="#383838"/>
<path d="M283.704 251.332L285.405 252.32V249.082L283.704 248.121V251.332Z" fill="#5439FE"/>
<path d="M285.542 252.482L283.566 251.329V247.871L285.542 248.996V252.482ZM283.841 251.164L285.268 251.988V249.161L283.841 248.338V251.164Z" fill="#383838"/>
<path d="M283.704 259.51L285.405 260.47V255.668L283.704 254.68V259.51Z" fill="#5439FE"/>
<path d="M285.542 260.714L283.566 259.589V254.43L285.542 255.582V260.714ZM283.841 259.424L285.268 260.22V255.747L283.841 254.924V259.424Z" fill="#383838"/>
<path d="M286.475 261.073L288.176 262.061V250.644L286.475 249.684V261.073Z" fill="#DDDBE7"/>
<path d="M288.478 262.529L286.201 261.239V249.191L288.478 250.509V262.529ZM286.749 260.91L287.902 261.568V250.811L286.749 250.179V260.91Z" fill="#383838"/>
<path d="M286.475 261.074L288.176 262.062V258.824L286.475 257.836V261.074Z" fill="#5439FE"/>
<path d="M288.341 262.279L286.338 261.154V257.613L288.341 258.738V262.279ZM286.612 260.989L288.039 261.812V258.903L286.612 258.08V260.989Z" fill="#383838"/>
<path d="M286.475 254.514L288.176 255.474V250.644L286.475 249.684V254.514Z" fill="#5439FE"/>
<path d="M288.341 255.722L286.338 254.597V249.438L288.341 250.563V255.722ZM286.612 254.432L288.094 255.228V250.727L286.667 249.931L286.612 254.432Z" fill="#383838"/>
<path d="M289.301 262.666L291.002 263.654V252.265L289.301 251.277V262.666Z" fill="#DDDBE7"/>
<path d="M291.276 264.119L289.026 262.829V250.809L291.276 252.098V264.119ZM289.575 262.5L290.727 263.158V252.483L289.575 251.824V262.5Z" fill="#383838"/>
<path d="M289.301 254.516L291.002 255.476V252.265L289.301 251.277V254.516Z" fill="#5439FE"/>
<path d="M291.139 255.72L289.164 254.595V251.027L291.139 252.18V255.72ZM289.438 254.43L290.865 255.254V252.482L289.438 251.659V254.43Z" fill="#383838"/>
<path d="M289.301 262.666L291.002 263.654V258.824L289.301 257.863V262.666Z" fill="#5439FE"/>
<path d="M291.139 263.898L289.164 262.745V257.613L291.139 258.738V263.898ZM289.438 262.581L290.865 263.404V258.903L289.438 258.107V262.581Z" fill="#383838"/>
<path d="M292.072 264.256L293.773 265.217V253.828L292.072 252.867V264.256Z" fill="#DDDBE7"/>
<path d="M294.075 265.712L291.798 264.422V252.484L294.075 253.774V265.712ZM292.347 264.093L293.499 264.752V253.994L292.347 253.335V264.093Z" fill="#383838"/>
<path d="M292.072 264.258L293.773 265.218V262.008L292.072 261.02V264.258Z" fill="#5439FE"/>
<path d="M293.911 265.463L291.935 264.337V260.715L293.911 261.867V265.463ZM292.209 264.173L293.636 264.969V262.224L292.209 261.401V264.173Z" fill="#383838"/>
<path d="M292.072 257.67L293.773 258.658V253.828L292.072 252.867V257.67Z" fill="#5439FE"/>
<path d="M293.91 258.878L291.935 257.753V252.621L293.91 253.746V258.878ZM292.209 257.588L293.636 258.412V253.911L292.209 253.088V257.588ZM273.881 242.549L272.811 241.918V253.334L295.31 266.151V264.477L273.881 252.264V242.549ZM304.035 256.71L305.709 255.75V254.048L304.035 255.009V256.71Z" fill="#383838"/>
<path d="M304.035 259.178L305.708 258.217V256.516L304.035 257.476V259.178Z" fill="#5439FE"/>
<path d="M303.897 259.427V257.396L305.791 256.298V258.329L303.897 259.427ZM304.172 257.561V258.933L305.571 258.137V256.765L304.172 257.561ZM304.035 261.65L305.708 260.689V258.988L304.035 259.948V261.65ZM306.449 255.365L308.123 254.405V252.703L306.449 253.664V255.365ZM306.449 257.835L308.123 256.875V255.173L306.449 256.134V257.835Z" fill="#383838"/>
<path d="M306.449 260.303L308.123 259.342V257.641L306.449 258.601V260.303Z" fill="#5439FE"/>
<path d="M306.285 260.551V258.52L308.26 257.395V259.425L306.285 260.551ZM306.586 258.684V260.057L307.986 259.261V257.971L306.586 258.684Z" fill="#383838"/>
<path d="M308.836 254.021L310.51 253.061V251.359L308.836 252.32V254.021Z" fill="#5439FE"/>
<path d="M308.699 254.265V252.234L310.592 251.164V253.167L308.699 254.265ZM308.974 252.399V253.771L310.373 252.975V251.603L308.974 252.399ZM308.836 256.488L310.51 255.528V253.826L308.836 254.787V256.488ZM308.836 258.958L310.51 257.998V256.296L308.836 257.257V258.958Z" fill="#383838"/>
<path d="M311.224 252.674L312.897 251.713V250.012L311.224 250.972V252.674Z" fill="#5439FE"/>
<path d="M311.086 252.922V250.891L313.034 249.793V251.796L311.086 252.922ZM311.361 251.055V252.482L312.76 251.687V250.314L311.361 251.055ZM311.224 255.144L312.897 254.184V252.482L311.224 253.443V255.144Z" fill="#383838"/>
<path d="M311.224 257.615L312.897 256.655V254.953L311.224 255.914V257.615Z" fill="#5439FE"/>
<path d="M311.086 257.971V255.94L313.034 254.843V256.846L311.086 257.971ZM311.361 256.105V257.477L312.76 256.681V255.227L311.361 256.105ZM313.556 251.357L315.229 250.397V248.695L313.556 249.656V251.357ZM313.556 256.297L315.229 255.337V253.635L313.556 254.596V256.297ZM315.943 252.483L317.617 251.522V249.82L315.943 250.781V252.483Z" fill="#383838"/>
<path d="M315.943 254.951L317.617 253.991V252.289L315.943 253.25V254.951Z" fill="#5439FE"/>
<path d="M315.806 255.226V253.195L317.699 252.125V254.156L315.806 255.226ZM316.08 253.36V254.732L317.479 253.936V252.482L316.08 253.36Z" fill="#383838"/>
<path d="M318.33 248.67L320.003 247.709V246.008L318.33 246.968V248.67Z" fill="#5439FE"/>
<path d="M318.275 248.913V246.992L320.223 245.867V247.898L318.275 248.913ZM318.549 247.047V248.419L319.949 247.624V246.251L318.549 247.047ZM318.33 253.606L320.003 252.646V250.944L318.33 251.905V253.606ZM320.717 249.792L322.391 248.831V247.13L320.717 248.09V249.792Z" fill="#383838"/>
<path style="mix-blend-mode:multiply" d="M77.264 282.672L133.566 315.604C134.074 315.901 134.651 316.057 135.239 316.057C135.828 316.057 136.405 315.901 136.913 315.604L209.321 273.231C209.816 272.941 210.226 272.526 210.512 272.027C210.797 271.529 210.947 270.965 210.947 270.391C210.947 269.817 210.797 269.252 210.512 268.754C210.226 268.256 209.816 267.841 209.321 267.55L154.281 235.414C153.784 235.13 153.221 234.98 152.649 234.98C152.076 234.98 151.513 235.13 151.016 235.414L77.3189 276.909C76.8086 277.194 76.3829 277.61 76.0848 278.113C75.7867 278.616 75.6268 279.189 75.6212 279.774C75.6157 280.359 75.7647 280.935 76.0531 281.444C76.3416 281.953 76.7593 282.376 77.264 282.672Z" fill="url(#paint3_linear_1320_1822)"/>
<path d="M165.695 277.017L135.212 294.91L76.6328 261.566L107.555 243.426L165.695 277.017Z" fill="#C2C1CC"/>
<path d="M135.212 295.241H135.075L76.0566 261.567L107.527 243.098H107.692L166.244 276.936L135.212 295.241ZM77.1816 261.567L135.212 294.5L165.146 276.936L107.527 243.674L77.1816 261.567Z" fill="#383838"/>
<path d="M165.695 296.391L135.212 314.284V294.909L165.695 277.016V296.391Z" fill="#7764F0"/>
<path d="M134.938 314.78V294.746L165.832 276.605V296.639H165.695L134.938 314.78ZM135.486 295.075V313.792L165.421 296.228V277.511L135.486 295.075Z" fill="#383838"/>
<path d="M135.212 314.369L76.3311 280.805V261.32L135.212 294.911V314.369Z" fill="#DDDBE7"/>
<path d="M135.486 314.861L76.0566 280.968V260.852L135.486 294.744V314.861ZM76.6054 280.638L134.938 313.9V295.074L76.6054 261.812V280.638Z" fill="#383838"/>
<path d="M131.7 308.332L100.888 290.768V279.379L131.7 296.943V308.332Z" fill="#5439FE"/>
<path d="M131.837 308.58H131.645L100.75 290.906V279.188H100.97L131.837 296.806V308.58ZM101.025 290.686L131.7 308.113V297.136L101.162 279.736L101.025 290.686Z" fill="#383838"/>
<path d="M101.958 289.698L131.7 306.658V308.332L100.888 290.768V279.379L101.958 279.983V289.698ZM160.976 295.68L138.477 308.497V297.107L160.976 284.291V295.68Z" fill="#383838"/>
<path d="M158.506 297.081L156.778 298.068V286.652L158.506 285.691V297.081Z" fill="#DDDBE7"/>
<path d="M156.394 298.533V286.513L158.671 285.195V297.243L156.394 298.533ZM156.97 286.814V297.572L158.095 296.914V286.183L156.97 286.814Z" fill="#383838"/>
<path d="M158.506 297.078L156.778 298.066V294.828L158.506 293.84V297.078Z" fill="#5439FE"/>
<path d="M156.641 298.287V294.746L158.644 293.621V297.161L156.641 298.287ZM156.915 294.911V297.82L158.342 296.997V294.088L156.915 294.911Z" fill="#383838"/>
<path d="M158.506 290.521L156.778 291.482V286.652L158.506 285.691V290.521Z" fill="#5439FE"/>
<path d="M156.641 291.726V286.567L158.644 285.441V290.601L156.641 291.726ZM156.915 286.731V291.232L158.342 290.436V285.935L156.915 286.731Z" fill="#383838"/>
<path d="M155.68 298.67L153.979 299.658V288.269L155.68 287.281V298.67Z" fill="#DDDBE7"/>
<path d="M153.65 300.154V288.161L155.9 286.871V298.891L153.65 300.154ZM154.199 288.435V299.138L155.351 298.48V287.749L154.199 288.435Z" fill="#383838"/>
<path d="M155.68 290.52L153.979 291.48V288.269L155.68 287.281V290.52Z" fill="#5439FE"/>
<path d="M153.842 291.728V288.16L155.817 287.008V290.575L153.842 291.728ZM154.116 288.353V291.262L155.543 290.438V287.529L154.116 288.353Z" fill="#383838"/>
<path d="M155.68 298.67L153.979 299.658V294.828L155.68 293.867V298.67Z" fill="#5439FE"/>
<path d="M153.842 299.906V294.746L155.817 293.621V298.753L153.842 299.906ZM154.116 294.911V299.412L155.543 298.588V294.115L154.116 294.911Z" fill="#383838"/>
<path d="M152.909 300.264L151.181 301.225V289.836L152.909 288.875V300.264Z" fill="#DDDBE7"/>
<path d="M150.906 301.717V289.669L153.184 288.379V300.427L150.906 301.717ZM151.482 289.998V300.756L152.607 300.097V289.339L151.482 289.998Z" fill="#383838"/>
<path d="M152.909 300.262L151.181 301.222V297.984L152.909 297.023V300.262Z" fill="#5439FE"/>
<path d="M151.043 301.47V297.903L153.046 296.777V300.345L151.043 301.47ZM151.345 298.095V300.839L152.772 300.043V297.134L151.345 298.095Z" fill="#383838"/>
<path d="M152.909 293.678L151.181 294.666V289.836L152.909 288.875V293.678Z" fill="#5439FE"/>
<path d="M151.043 294.882V289.75L153.046 288.625V293.647L151.043 294.882ZM151.345 289.915V294.416L152.772 293.592V289.092L151.345 289.915Z" fill="#383838"/>
<path d="M150.083 301.854L148.382 302.814V291.425L150.083 290.465V301.854Z" fill="#DDDBE7"/>
<path d="M148.163 303.31V291.262L150.412 289.973V302.02L148.163 303.31ZM148.711 291.592V302.35L149.864 301.691V290.906L148.711 291.592Z" fill="#383838"/>
<path d="M150.083 293.703L148.382 294.664V291.425L150.083 290.465V293.703Z" fill="#5439FE"/>
<path d="M148.163 294.912V291.344L150.138 290.219V293.786L148.163 294.912ZM148.437 291.509V294.418L149.864 293.622V290.713L148.437 291.509Z" fill="#383838"/>
<path d="M150.083 301.853L148.382 302.814V298.011L150.083 297.051V301.853Z" fill="#5439FE"/>
<path d="M148.163 303.062V297.93L150.138 296.805V301.882L148.163 303.062ZM148.437 298.095V302.595L149.864 301.772V297.271L148.437 298.095Z" fill="#383838"/>
<path d="M147.312 303.416L145.611 304.404V293.015L147.312 292.027V303.416Z" fill="#DDDBE7"/>
<path d="M145.418 304.9V292.852L147.696 291.562V303.583L145.418 304.9ZM145.995 293.182V303.912L147.12 303.281V292.523L145.995 293.182Z" fill="#383838"/>
<path d="M147.312 303.418L145.611 304.406V301.168L147.312 300.207V303.418Z" fill="#5439FE"/>
<path d="M145.418 304.626V301.059L147.421 299.934V303.474L145.418 304.626ZM145.72 301.223V304.132L147.147 303.309V300.565L145.72 301.223Z" fill="#383838"/>
<path d="M147.312 296.857L145.611 297.818V293.015L147.312 292.027V296.857Z" fill="#5439FE"/>
<path d="M145.418 298.066V292.934L147.421 291.781V296.941L145.418 298.066ZM145.72 293.099V297.572L147.147 296.776V292.275L145.72 293.099Z" fill="#383838"/>
<path d="M144.486 305.038L142.785 305.998V294.609L144.486 293.648V305.038Z" fill="#DDDBE7"/>
<path d="M142.51 306.494V294.446L144.76 293.156V305.204L142.51 306.494ZM143.059 294.775V305.506L144.211 304.875V294.117L143.059 294.775Z" fill="#383838"/>
<path d="M144.486 296.859L142.785 297.847V294.609L144.486 293.648V296.859Z" fill="#5439FE"/>
<path d="M142.675 298.095V294.528L144.65 293.402V296.943L142.675 298.095ZM142.949 294.692V297.601L144.376 296.778V293.869L142.949 294.692Z" fill="#383838"/>
<path d="M144.486 305.037L142.785 305.998V301.195L144.486 300.207V305.037Z" fill="#5439FE"/>
<path d="M142.675 306.246V301.114L144.65 299.961V305.12L142.675 306.246ZM142.949 301.278V305.752L144.376 304.956V300.455L142.949 301.278Z" fill="#383838"/>
<path d="M141.715 306.6L140.014 307.588V296.171L141.715 295.211V306.6Z" fill="#DDDBE7"/>
<path d="M139.712 308.056V296.009L141.989 294.719V306.766L139.712 308.056ZM140.288 296.338V307.096L141.44 306.437V295.707L140.288 296.338Z" fill="#383838"/>
<path d="M141.715 306.602L140.014 307.59V304.351L141.715 303.363V306.602Z" fill="#5439FE"/>
<path d="M139.931 307.81V304.27L141.852 303.199V306.739L139.931 307.81ZM140.206 304.434V307.371L141.632 306.547V303.638L140.206 304.434Z" fill="#383838"/>
<path d="M141.715 300.014L140.014 301.002V296.171L141.715 295.211V300.014Z" fill="#5439FE"/>
<path d="M139.931 301.249V296.09L141.852 294.992V300.124L139.931 301.249ZM140.206 296.254V300.755L141.632 299.932V295.459L140.206 296.254ZM159.906 284.893L160.976 284.289V295.678L138.477 308.494V306.82L159.906 294.608V284.893ZM129.752 299.054L128.051 298.093V296.392L129.752 297.352V299.054Z" fill="#383838"/>
<path d="M129.752 301.525L128.051 300.565V298.863L129.752 299.824V301.525Z" fill="#5439FE"/>
<path d="M129.889 301.88L127.913 300.755V298.752L129.889 299.849V301.88ZM128.215 300.59L129.615 301.386V300.014L128.215 299.218V300.59ZM129.752 303.993L128.051 303.033V301.359L129.752 302.292V303.993ZM127.337 297.709L125.664 296.748V295.074L127.337 296.007V297.709ZM127.337 300.179L125.664 299.218V297.544L127.337 298.477V300.179Z" fill="#383838"/>
<path d="M127.337 302.65L125.664 301.69V300.016L127.337 300.949V302.65Z" fill="#5439FE"/>
<path d="M127.502 302.898L125.526 301.773V299.77L127.502 300.867V302.898ZM125.801 301.608L127.2 302.404V301.032L125.801 300.236V301.608Z" fill="#383838"/>
<path d="M124.951 296.365L123.277 295.405V293.73L124.951 294.664V296.365Z" fill="#5439FE"/>
<path d="M125.115 296.613L123.14 295.488V293.484L125.115 294.582V296.613ZM123.414 295.323L124.813 296.146V294.747L123.414 293.951V295.323ZM124.951 298.836L123.277 297.875V296.174L124.951 297.162V298.836ZM124.951 301.306L123.277 300.345V298.671L124.951 299.604V301.306Z" fill="#383838"/>
<path d="M122.563 295.021L120.89 294.061V292.359L122.563 293.347V295.021Z" fill="#5439FE"/>
<path d="M122.701 295.269L120.752 294.144V292.141L122.701 293.238V295.269ZM121.027 293.979L122.426 294.803V293.403L121.027 292.607V293.979ZM122.563 297.492L120.89 296.532V294.858L122.563 295.791V297.492Z" fill="#383838"/>
<path d="M122.563 299.959L120.89 298.998V297.324L122.563 298.285V299.959Z" fill="#5439FE"/>
<path d="M122.701 300.209L120.725 299.139V297.135L122.673 298.233L122.701 300.209ZM121.027 298.919L122.426 299.715V298.343L121.027 297.547V298.919ZM120.231 293.705L118.557 292.744V291.043L120.231 292.003V293.705ZM120.231 298.645L118.557 297.684V295.983L120.231 296.943V298.645ZM117.844 294.83L116.17 293.87V292.168L117.844 293.129V294.83Z" fill="#383838"/>
<path d="M117.844 297.299L116.17 296.338V294.637L117.844 295.597V297.299Z" fill="#5439FE"/>
<path d="M117.981 297.547L116.033 296.421V294.391L117.981 295.516V297.547ZM116.308 296.257L117.707 297.053V295.68L116.308 294.885V296.257Z" fill="#383838"/>
<path d="M115.457 291.014L113.783 290.053V288.352L115.457 289.312V291.014Z" fill="#5439FE"/>
<path d="M115.594 291.261L113.646 290.136V288.16L115.594 289.285V291.261ZM113.92 289.971L115.237 290.905V289.532L113.838 288.736L113.92 289.971ZM115.457 295.954L113.783 294.994V293.292L115.457 294.253V295.954ZM113.07 292.139L111.396 291.179V289.477L113.07 290.438V292.139Z" fill="#383838"/>
<path d="M35.8608 130.607L66.3439 148.5L124.95 115.156L94.0283 97.0156L35.8608 130.607Z" fill="#C2C1CC"/>
<path d="M66.3438 148.83H66.2066L35.312 130.608L35.6687 130.361L94.0283 96.6875L125.499 115.267L125.088 115.514L66.3438 148.83ZM36.4095 130.608L66.3438 148.199L124.374 115.267L94.0283 97.4285L36.4095 130.608Z" fill="#383838"/>
<path d="M35.8608 149.981L66.3439 167.874V148.499L35.8608 130.605V149.981Z" fill="#7764F0"/>
<path d="M66.6454 168.37L66.2064 168.123L35.6685 150.147V130.113L36.08 130.36L66.7277 148.336L66.6454 168.37ZM36.1349 149.818L66.0692 167.409V148.665L36.1349 131.101V149.818Z" fill="#383838"/>
<path d="M66.3438 167.955L125.225 134.391V114.906L66.3438 148.497V167.955Z" fill="#DDDBE7"/>
<path d="M66.0693 168.45V148.334H66.2065L125.499 114.441V134.475H125.362L66.0693 168.45ZM66.6455 148.664V167.408L124.95 134.228V115.402L66.6455 148.664Z" fill="#383838"/>
<path d="M69.856 161.918L100.668 144.354V132.965L69.856 150.529V161.918Z" fill="#5439FE"/>
<path d="M69.7188 162.166V150.447L100.751 132.746V144.465L69.7188 162.166ZM69.9931 150.612V161.589L100.531 144.163V133.185L69.9931 150.612Z" fill="#383838"/>
<path d="M99.5981 143.284L69.8559 160.244V161.918L100.668 144.354V132.965L99.5981 133.569V143.284ZM40.5801 149.266L63.0788 162.083V150.693L40.5801 137.877V149.266Z" fill="#383838"/>
<path d="M43.0767 150.666L44.7778 151.654V140.238L43.0767 139.277V150.666Z" fill="#DDDBE7"/>
<path d="M45.0522 152.123L42.7749 150.943V138.785L45.0522 140.102V152.123ZM43.3511 150.504L44.5035 151.162V140.404L43.3511 139.773V150.504Z" fill="#383838"/>
<path d="M43.0767 150.668L44.7778 151.656V148.418L43.0767 147.457V150.668Z" fill="#5439FE"/>
<path d="M44.915 151.876L42.9121 150.751V147.211L44.915 148.336V151.876ZM43.2139 150.586L44.6407 151.41V148.501L43.2139 147.677V150.586Z" fill="#383838"/>
<path d="M43.0767 144.107L44.7778 145.068V140.238L43.0767 139.277V144.107Z" fill="#5439FE"/>
<path d="M44.915 145.453L42.9121 144.328V139.031L44.915 140.156V145.453ZM43.2139 144.163L44.6407 144.959V140.321L43.2139 139.525V144.163Z" fill="#383838"/>
<path d="M45.8755 152.26L47.5766 153.248V141.859L45.8755 140.871V152.26Z" fill="#DDDBE7"/>
<path d="M47.8509 153.685L45.6011 152.395V140.402L47.8509 141.692V153.685ZM46.1498 152.066L47.3022 152.725V142.022L46.1498 141.363V152.066Z" fill="#383838"/>
<path d="M45.8755 144.109L47.5766 145.07V141.859L45.8755 140.871V144.109Z" fill="#5439FE"/>
<path d="M47.7138 145.455L45.7383 144.329V140.762L47.7138 141.914V145.455ZM46.0127 144.165L47.4394 144.988V141.942L46.0127 141.118V144.165Z" fill="#383838"/>
<path d="M45.8755 152.26L47.5766 153.248V148.418L45.8755 147.457V152.26Z" fill="#5439FE"/>
<path d="M47.7138 153.496L45.7383 152.343V147.211L47.7138 148.336V153.496ZM46.0127 152.178L47.4394 153.002V148.501L46.0127 147.705V152.178Z" fill="#383838"/>
<path d="M48.6738 153.85L50.375 154.811V143.421L48.6738 142.461V153.85Z" fill="#DDDBE7"/>
<path d="M50.6494 155.306L48.3721 154.016V141.969L50.6494 143.259V155.306ZM48.9483 153.687L50.0732 154.346V143.588L48.9483 142.929V153.687Z" fill="#383838"/>
<path d="M48.6738 153.852L50.375 154.812V151.574L48.6738 150.613V153.852Z" fill="#5439FE"/>
<path d="M50.5122 155.06L48.5093 153.935V150.367L50.5122 151.52V155.06ZM48.8111 153.688L50.2378 154.484V151.657L48.8111 150.944V153.688Z" fill="#383838"/>
<path d="M48.6738 147.264L50.375 148.252V143.421L48.6738 142.461V147.264Z" fill="#5439FE"/>
<path d="M50.5122 148.472L48.5093 147.347V142.215L50.5122 143.34V148.472ZM48.8111 147.182L50.2378 148.005V143.505L48.8111 142.681V147.182Z" fill="#383838"/>
<path d="M51.4727 155.444L53.1738 156.404V145.015L51.4727 144.055V155.444Z" fill="#DDDBE7"/>
<path d="M53.4481 156.896L51.1982 155.606V143.559L53.4481 144.848V156.896ZM51.747 155.277L52.8994 155.936V145.178L51.747 144.519V155.277Z" fill="#383838"/>
<path d="M51.4727 147.293L53.1738 148.254V145.015L51.4727 144.055V147.293Z" fill="#5439FE"/>
<path d="M53.311 148.498L51.3354 147.372V143.805L53.311 144.93V148.498ZM51.6098 147.208L53.0366 148.004V145.095L51.6098 144.299V147.208Z" fill="#383838"/>
<path d="M51.4727 155.443L53.1738 156.404V151.601L51.4727 150.613V155.443Z" fill="#5439FE"/>
<path d="M53.311 156.652L51.3354 155.526V150.395L53.311 151.52V156.652ZM51.6098 155.362L53.0366 156.185V151.684L51.6098 150.861V155.362Z" fill="#383838"/>
<path d="M54.2437 157.006L55.9722 157.994V146.605L54.2437 145.617V157.006Z" fill="#DDDBE7"/>
<path d="M56.247 158.49L53.9697 157.173V145.152L56.247 146.442V158.49ZM54.5459 156.843L55.6709 157.502V146.772L54.5459 146.113V156.843Z" fill="#383838"/>
<path d="M54.2437 157.008L55.9722 157.996V154.757L54.2437 153.797V157.008Z" fill="#5439FE"/>
<path d="M56.1099 158.243L54.1069 157.091V153.688L56.1099 154.813V158.243ZM54.4087 156.926L55.8355 157.749V154.84L54.4087 154.044V156.926Z" fill="#383838"/>
<path d="M54.2437 150.447L55.9722 151.408V146.605L54.2437 145.617V150.447Z" fill="#5439FE"/>
<path d="M56.1099 151.655L54.1069 150.53V145.453L56.1099 146.606V151.655ZM54.4087 150.366L55.8355 151.161V146.688L54.4087 145.865V150.366Z" fill="#383838"/>
<path d="M57.0698 158.627L58.771 159.588V148.199L57.0698 147.238V158.627Z" fill="#DDDBE7"/>
<path d="M59.0453 160.08L56.7954 158.79V146.742L59.0453 148.032V160.08ZM57.3442 158.461L58.4965 159.092V148.361L57.3442 147.703V158.461Z" fill="#383838"/>
<path d="M57.0698 150.449L58.771 151.437V148.199L57.0698 147.238V150.449Z" fill="#5439FE"/>
<path d="M58.9081 151.654L56.9326 150.528V146.988L58.9081 148.113V151.654ZM57.207 150.364L58.6337 151.187V148.196L57.207 147.372V150.364Z" fill="#383838"/>
<path d="M57.0698 158.627L58.771 159.587V154.785L57.0698 153.797V158.627Z" fill="#5439FE"/>
<path d="M58.9081 159.835L56.9326 158.71V153.688L58.9081 154.84V159.835ZM57.207 158.545L58.6337 159.341V154.868L57.207 154.044V158.545Z" fill="#383838"/>
<path d="M59.8413 160.19L61.5424 161.178V149.761L59.8413 148.801V160.19Z" fill="#DDDBE7"/>
<path d="M61.8442 161.643L59.5669 160.353V148.195L61.8442 149.485V161.643ZM60.1431 160.024L61.268 160.682V149.924L60.1431 149.266V160.024Z" fill="#383838"/>
<path d="M59.8413 160.191L61.5424 161.179V157.941L59.8413 156.953V160.191Z" fill="#5439FE"/>
<path d="M61.707 161.396L59.7041 160.271V156.703L61.707 157.856V161.396ZM59.9785 160.106L61.4052 160.929V158.02L59.9785 157.197V160.106Z" fill="#383838"/>
<path d="M59.8413 153.603L61.5424 154.591V149.761L59.8413 148.801V153.603Z" fill="#5439FE"/>
<path d="M61.707 154.839L59.704 153.686V148.554L61.707 149.68V154.839ZM59.9784 153.522L61.4051 154.345V149.844L59.9784 149.048V153.522ZM41.6501 138.483L40.5801 137.879V149.268L63.0788 162.084V160.41L41.6501 148.198V138.483ZM71.8314 152.644L73.5051 151.683V149.982L71.8314 150.942V152.644Z" fill="#383838"/>
<path d="M71.8315 155.111L73.5052 154.151V152.449L71.8315 153.41V155.111Z" fill="#5439FE"/>
<path d="M71.6665 155.36V153.33L73.642 152.232V154.235L71.6665 155.36ZM71.9683 153.494V154.866L73.3676 154.071V152.698L71.9683 153.494ZM71.8311 157.583L73.5048 156.623V154.921L71.8311 155.882V157.583ZM74.2182 151.299L75.8919 150.338V148.637L74.2182 149.597V151.299ZM74.2182 153.769L75.8919 152.808V151.107L74.2182 152.067V153.769Z" fill="#383838"/>
<path d="M74.2183 156.24L75.892 155.28V153.605L74.2183 154.539V156.24Z" fill="#5439FE"/>
<path d="M74.0811 156.429V154.399L76.0291 153.301V155.304L74.0811 156.429ZM74.3554 154.563V155.935L75.7547 155.139V153.767L74.3554 154.563Z" fill="#383838"/>
<path d="M76.6055 149.955L78.2792 148.994V147.293L76.6055 148.254V149.955Z" fill="#5439FE"/>
<path d="M76.4683 150.199V148.195L78.3614 147.125V149.128L76.4683 150.199ZM76.7426 148.333V149.705L78.1419 148.909V147.537L76.7426 148.333ZM76.6054 152.422L78.2791 151.461V149.787L76.6054 150.72V152.422ZM76.6054 154.892L78.2791 153.931V152.257L76.6054 153.19V154.892Z" fill="#383838"/>
<path d="M78.9927 148.607L80.6664 147.647V145.973L78.9927 146.906V148.607Z" fill="#5439FE"/>
<path d="M78.8555 148.855V146.824L80.8035 145.727V147.73L78.8555 148.855ZM79.1298 146.989V148.361L80.5292 147.565V146.193L79.1298 146.989ZM78.9927 151.078L80.6663 150.118V148.443L78.9927 149.404V151.078Z" fill="#383838"/>
<path d="M78.9927 153.549L80.6664 152.588V150.914L78.9927 151.875V153.549Z" fill="#5439FE"/>
<path d="M78.8555 153.685V151.764L80.8035 150.667V152.67L78.8555 153.685ZM79.1298 151.819V153.219L80.5292 152.395V151.023L79.1298 151.819ZM81.3248 147.291L82.9985 146.33V144.629L81.3248 145.589V147.291ZM81.3248 152.231L82.9985 151.27V149.569L81.3248 150.529V152.231ZM83.7119 148.416L85.3856 147.456V145.754L83.7119 146.715V148.416Z" fill="#383838"/>
<path d="M83.7119 150.889L85.3856 149.928V148.227L83.7119 149.187V150.889Z" fill="#5439FE"/>
<path d="M83.5747 151.133V149.102L85.5228 147.977V150.007L83.5747 151.133ZM83.8491 149.266V150.639L85.2484 149.843V148.471L83.8491 149.266Z" fill="#383838"/>
<path d="M86.0986 144.603L87.7723 143.643V141.941L86.0986 142.902V144.603Z" fill="#5439FE"/>
<path d="M85.9614 144.848V142.707L87.9095 141.582V143.613L85.9614 144.848ZM86.2358 142.982V144.354L87.6351 143.558V142.186L86.2358 142.982ZM86.0986 149.541L87.7723 148.58V146.879L86.0986 147.839V149.541ZM88.4857 145.726L90.1594 144.765V143.064L88.4857 144.025V145.726ZM191.815 192.682C186.488 192.659 181.17 193.128 175.929 194.082H147.394V205.059C148.107 214.472 166.134 224.681 191.788 224.681C217.442 224.681 235.441 214.472 236.154 205.059V194.082H207.702C202.46 193.129 197.142 192.661 191.815 192.682Z" fill="#383838"/>
<path d="M190.745 181.871C184.599 181.848 178.464 182.39 172.417 183.49L139.492 177.672V196.087C140.288 207.064 161.113 218.755 190.718 218.755C220.323 218.755 241.203 206.927 241.999 196.087V177.672L209.074 183.49C203.027 182.39 196.892 181.848 190.745 181.871Z" fill="#7764F0"/>
<path d="M190.745 219.082C161.223 219.082 140.398 207.446 139.19 196.441V177.258H139.602L172.527 183.049C184.66 180.89 197.078 180.89 209.211 183.049L242.493 177.176V196.386C241.121 207.446 220.296 219.082 190.745 219.082ZM139.931 195.865V196.057C140.754 206.842 161.387 218.396 190.828 218.396C220.268 218.396 240.929 206.842 241.724 196.057V178.081L209.101 183.872C197.002 181.75 184.626 181.75 172.527 183.872L139.931 178.081V195.865Z" fill="#383838"/>
<path d="M190.746 153.688C160.564 153.688 139.465 165.955 139.465 176.987C139.465 188.019 160.537 200.342 190.746 200.342C220.954 200.342 242.026 188.047 242.026 177.015C242.026 165.982 220.982 153.688 190.746 153.688Z" fill="#DDDBE7"/>
<path d="M190.745 200.668C160.317 200.668 139.108 188.182 139.108 176.985C139.108 165.788 160.317 153.328 190.745 153.328C221.173 153.328 242.383 165.815 242.383 176.985C242.383 188.154 221.173 200.668 190.745 200.668ZM190.745 154.014C160.729 154.042 139.931 166.144 139.931 176.985C139.931 187.825 160.838 199.955 190.855 199.955C220.872 199.955 241.806 187.852 241.806 176.985C241.806 166.117 220.762 154.042 190.745 154.042V154.014Z" fill="#383838"/>
<path d="M191.815 161.645C186.49 161.627 181.173 162.087 175.929 163.017H147.394V173.995C148.107 183.38 166.134 193.617 191.788 193.617C217.442 193.617 235.441 183.38 236.154 173.995V163.017H207.702C202.458 162.088 197.141 161.629 191.815 161.645Z" fill="#383838"/>
<path d="M190.745 149.351C184.599 149.328 178.464 149.87 172.417 150.97L139.492 145.152V163.567C140.288 174.407 161.113 186.208 190.718 186.208C220.323 186.208 241.176 174.407 241.971 163.567V145.152L209.101 150.943C203.044 149.851 196.9 149.318 190.745 149.351Z" fill="#7764F0"/>
<path d="M190.745 186.617C161.223 186.617 140.398 174.954 139.19 163.949V144.738H139.602L172.527 150.557C184.66 148.398 197.078 148.398 209.211 150.557L242.493 144.684V163.894C241.121 174.899 220.296 186.617 190.745 186.617ZM139.931 163.345V163.537C140.754 174.323 161.387 185.849 190.828 185.849C220.268 185.849 240.929 174.323 241.724 163.537V145.452L209.101 151.298C197.002 149.175 184.626 149.175 172.527 151.298L139.931 145.452V163.345Z" fill="#383838"/>
<path d="M190.746 121.137C160.564 121.137 139.465 133.431 139.465 144.464C139.465 155.496 160.537 167.763 190.746 167.763C220.954 167.763 242.026 155.496 242.026 144.464C242.026 133.431 220.982 121.137 190.746 121.137Z" fill="#DDDBE7"/>
<path d="M190.745 168.122C160.317 168.122 139.108 155.662 139.108 144.465C139.108 133.268 160.317 120.754 190.745 120.754C221.173 120.754 242.383 133.213 242.383 144.41C242.383 155.607 221.173 168.122 190.745 168.122ZM190.745 121.467C160.729 121.495 139.931 133.598 139.931 144.465C139.931 155.333 160.729 167.408 190.745 167.408C220.762 167.408 241.697 155.305 241.697 144.438C241.697 133.57 220.762 121.495 190.745 121.495V121.467Z" fill="#383838"/>
<path d="M191.815 126.078C186.489 126.069 181.172 126.538 175.929 127.478H147.394V138.455C148.107 147.841 166.134 158.05 191.788 158.05C217.442 158.05 235.441 147.841 236.154 138.455V127.478H207.702C202.458 126.539 197.142 126.07 191.815 126.078Z" fill="#383838"/>
<path d="M190.745 113.699C184.599 113.676 178.464 114.218 172.417 115.318L139.492 109.5V127.915C140.288 138.892 161.113 150.556 190.718 150.556C220.323 150.556 241.176 138.755 241.971 127.915V109.5L209.101 115.263C203.043 114.18 196.899 113.657 190.745 113.699Z" fill="#7764F0"/>
<path d="M190.745 150.942C161.223 150.942 140.398 139.305 139.19 128.301V109.09H139.602L172.527 114.908C184.66 112.749 197.078 112.749 209.211 114.908L242.493 109.035V128.246C241.121 139.278 220.296 150.942 190.745 150.942ZM139.931 127.697V127.889C140.754 138.674 161.387 150.228 190.828 150.228C220.268 150.228 240.929 138.674 241.724 127.889V109.913L209.129 115.677C197.03 113.554 184.654 113.554 172.554 115.677L139.931 109.913V127.697Z" fill="#383838"/>
<path d="M190.746 85.5156C160.564 85.5156 139.465 97.7829 139.465 108.815C139.465 119.848 160.537 132.142 190.746 132.142C220.954 132.142 242.026 119.848 242.026 108.815C242.026 97.7829 220.982 85.5156 190.746 85.5156Z" fill="#DDDBE7"/>
<path d="M190.745 132.473C160.317 132.473 139.108 120.014 139.108 108.817C139.108 97.6199 160.317 85.0781 190.745 85.0781C221.173 85.0781 242.383 97.5375 242.383 108.735C242.383 119.932 221.173 132.473 190.745 132.473ZM190.745 85.8191C160.729 85.8465 139.931 97.9492 139.931 108.817C139.931 119.685 160.729 131.732 190.745 131.732C220.762 131.732 241.697 119.63 241.697 108.762C241.697 97.8943 220.762 85.8465 190.745 85.8465V85.8191Z" fill="#383838"/>
<path d="M191.815 89.8243C186.489 89.8152 181.172 90.2836 175.929 91.224H147.394V102.201C148.107 111.587 166.134 121.824 191.788 121.824C217.442 121.824 235.441 111.587 236.154 102.201V91.224H207.702C202.458 90.2848 197.142 89.8164 191.815 89.8243Z" fill="#383838"/>
<path d="M190.745 77.4489C184.599 77.426 178.464 77.968 172.417 79.068L139.492 73.25V91.6647C140.288 102.642 161.113 114.306 190.718 114.306C220.323 114.306 241.176 102.505 241.971 91.6647V73.25L209.046 79.068C203.008 77.9701 196.882 77.4281 190.745 77.4489Z" fill="#7764F0"/>
<path d="M190.745 114.66C161.223 114.66 140.398 103.024 139.19 92.0192V72.8361H139.602L172.527 78.6542C184.66 76.4954 197.078 76.4954 209.211 78.6542L242.493 72.7812V91.9918C241.121 103.024 220.296 114.66 190.745 114.66ZM139.931 91.4429V91.635C140.754 102.42 161.387 113.974 190.828 113.974C220.268 113.974 240.929 102.42 241.724 91.635V73.6594L209.129 79.4226C197.03 77.3006 184.654 77.3006 172.554 79.4226L139.931 73.6594V91.4429Z" fill="#383838"/>
<path d="M190.746 49.3984C160.564 49.3984 139.465 61.6657 139.465 72.6981C139.465 83.7304 160.537 96.0251 190.746 96.0251C220.954 96.0251 242.026 83.7304 242.026 72.6981C242.026 61.6657 220.982 49.3984 190.746 49.3984Z" fill="#DDDBE7"/>
<path d="M190.745 96.219C160.317 96.219 139.108 83.7596 139.108 72.5626C139.108 61.3657 160.317 48.9062 190.745 48.9062C221.173 48.9062 242.383 61.3657 242.383 72.5626C242.383 83.7596 221.173 96.219 190.745 96.219ZM190.745 49.5649C160.729 49.5923 139.931 61.695 139.931 72.5626C139.931 83.4303 160.838 95.5329 190.855 95.5329C220.872 95.5329 241.806 83.4303 241.806 72.5626C241.806 61.695 220.762 49.5923 190.745 49.5923V49.5649Z" fill="#383838"/>
<path d="M233.356 127.449C232.816 127.853 232.396 128.395 232.14 129.019C231.884 129.642 231.802 130.323 231.901 130.989C232.148 132.307 233.164 132.856 234.206 132.224C234.745 131.821 235.163 131.278 235.415 130.654C235.666 130.03 235.742 129.348 235.633 128.684C235.386 127.367 234.371 126.818 233.356 127.449Z" fill="#5439FE"/>
<path d="M233.218 132.802C233.01 132.841 232.796 132.841 232.587 132.802C232.288 132.641 232.031 132.409 231.84 132.128C231.649 131.846 231.529 131.522 231.49 131.183C231.375 130.458 231.463 129.716 231.744 129.038C232.025 128.36 232.488 127.772 233.081 127.341C233.317 127.171 233.591 127.065 233.879 127.031C234.168 126.997 234.46 127.038 234.728 127.149C235.027 127.31 235.284 127.542 235.475 127.824C235.666 128.106 235.786 128.43 235.825 128.768C235.946 129.491 235.864 130.233 235.588 130.911C235.311 131.589 234.852 132.178 234.261 132.61C233.938 132.77 233.577 132.836 233.218 132.802ZM234.096 127.506C233.844 127.519 233.599 127.595 233.383 127.725C232.898 128.094 232.523 128.588 232.296 129.153C232.069 129.718 231.999 130.334 232.094 130.936C232.117 131.173 232.197 131.401 232.326 131.601C232.454 131.802 232.629 131.969 232.834 132.089C233.013 132.165 233.209 132.193 233.402 132.169C233.594 132.145 233.777 132.07 233.932 131.952C234.421 131.587 234.8 131.094 235.028 130.528C235.255 129.961 235.322 129.343 235.221 128.741C235.198 128.504 235.118 128.276 234.989 128.076C234.861 127.875 234.686 127.708 234.481 127.588C234.394 127.547 234.301 127.519 234.206 127.506H234.096Z" fill="#383838"/>
<path d="M227.045 130.935C226.507 131.338 226.089 131.882 225.837 132.506C225.585 133.13 225.51 133.811 225.619 134.476C225.838 135.765 226.881 136.314 227.896 135.683C228.438 135.281 228.859 134.739 229.116 134.115C229.372 133.491 229.453 132.809 229.35 132.143C229.103 130.826 228.088 130.277 227.045 130.935Z" fill="white"/>
<path d="M227.045 136.26C226.837 136.301 226.623 136.301 226.414 136.26C226.108 136.106 225.847 135.877 225.655 135.593C225.463 135.31 225.346 134.982 225.317 134.641C225.196 133.918 225.278 133.176 225.554 132.498C225.831 131.819 226.29 131.231 226.881 130.798C227.117 130.631 227.392 130.526 227.679 130.492C227.967 130.459 228.259 130.498 228.527 130.606C228.834 130.762 229.097 130.992 229.293 131.275C229.489 131.557 229.613 131.884 229.652 132.225C229.77 132.951 229.684 133.694 229.403 134.373C229.121 135.052 228.657 135.638 228.061 136.068C227.747 136.226 227.395 136.293 227.045 136.26ZM227.923 130.963C227.67 130.972 227.424 131.047 227.21 131.183C226.709 131.556 226.323 132.063 226.095 132.645C225.867 133.227 225.807 133.861 225.921 134.476C225.944 134.709 226.024 134.933 226.153 135.129C226.282 135.325 226.456 135.487 226.661 135.601C226.823 135.698 227.008 135.749 227.196 135.749C227.385 135.749 227.57 135.698 227.731 135.601C228.219 135.233 228.598 134.741 228.83 134.176C229.062 133.611 229.137 132.994 229.048 132.39C229.024 132.15 228.941 131.919 228.807 131.718C228.673 131.518 228.492 131.352 228.28 131.237C228.188 131.116 228.065 131.021 227.923 130.963Z" fill="#383838"/>
<path d="M219.006 134.119C218.467 134.522 218.049 135.065 217.797 135.689C217.546 136.314 217.47 136.995 217.579 137.659C217.799 138.976 218.841 139.525 219.856 138.867C220.4 138.468 220.822 137.925 221.074 137.3C221.326 136.674 221.398 135.991 221.283 135.326C221.064 134.009 220.049 133.46 219.006 134.119Z" fill="#DDDBE7"/>
<path d="M219.006 139.498C218.788 139.537 218.565 139.537 218.348 139.498C218.041 139.336 217.778 139.101 217.582 138.814C217.386 138.527 217.262 138.197 217.223 137.852C217.104 137.118 217.189 136.367 217.47 135.679C217.751 134.991 218.216 134.395 218.814 133.955C219.061 133.787 219.344 133.682 219.641 133.648C219.937 133.615 220.237 133.654 220.515 133.762C220.822 133.925 221.085 134.16 221.281 134.447C221.477 134.734 221.6 135.064 221.64 135.409C221.766 136.142 221.683 136.896 221.402 137.585C221.12 138.274 220.652 138.87 220.049 139.306C219.725 139.463 219.365 139.529 219.006 139.498ZM219.857 134.202C219.619 134.202 219.388 134.279 219.198 134.421C218.718 134.788 218.345 135.277 218.118 135.836C217.891 136.396 217.819 137.007 217.909 137.605C217.927 137.836 218.005 138.059 218.135 138.251C218.264 138.443 218.442 138.599 218.649 138.702C218.805 138.786 218.98 138.83 219.157 138.83C219.334 138.83 219.509 138.786 219.665 138.702C220.149 138.34 220.526 137.851 220.753 137.29C220.98 136.729 221.05 136.117 220.954 135.519C220.934 135.292 220.858 135.073 220.734 134.881C220.609 134.69 220.44 134.532 220.241 134.421C220.132 134.319 220 134.244 219.857 134.202Z" fill="#383838"/>
<path d="M233.356 163.482C232.814 163.883 232.393 164.426 232.136 165.049C231.88 165.673 231.799 166.355 231.902 167.022C232.149 168.339 233.164 168.888 234.206 168.229C234.75 167.824 235.171 167.276 235.423 166.647C235.675 166.017 235.747 165.33 235.633 164.662C235.386 163.399 234.371 162.85 233.356 163.482Z" fill="#5439FE"/>
<path d="M233.219 168.806C233.012 168.857 232.795 168.857 232.588 168.806C232.288 168.651 232.032 168.425 231.841 168.147C231.649 167.87 231.529 167.549 231.49 167.215C231.372 166.489 231.459 165.746 231.74 165.067C232.021 164.388 232.486 163.802 233.082 163.372C233.317 163.203 233.592 163.096 233.88 163.062C234.168 163.029 234.46 163.069 234.728 163.18C235.039 163.308 235.314 163.509 235.53 163.768C235.745 164.026 235.893 164.333 235.963 164.662C236.086 165.389 236.005 166.135 235.729 166.819C235.452 167.502 234.992 168.095 234.399 168.532C234.039 168.734 233.63 168.829 233.219 168.806ZM234.097 163.537C233.842 163.537 233.594 163.613 233.383 163.757C232.897 164.124 232.519 164.617 232.292 165.183C232.065 165.748 231.996 166.366 232.094 166.968C232.118 167.204 232.197 167.432 232.326 167.633C232.455 167.833 232.629 168 232.835 168.12C233.005 168.205 233.193 168.249 233.383 168.249C233.574 168.249 233.762 168.205 233.932 168.12C234.482 167.748 234.909 167.22 235.158 166.604C235.407 165.988 235.468 165.312 235.332 164.662C235.304 164.426 235.222 164.2 235.094 164C234.966 163.801 234.794 163.633 234.591 163.51C234.462 163.492 234.331 163.501 234.207 163.537H234.097Z" fill="#383838"/>
<path d="M227.045 166.942C226.507 167.345 226.089 167.888 225.837 168.512C225.585 169.137 225.51 169.818 225.619 170.482C225.838 171.8 226.881 172.348 227.896 171.69C228.44 171.29 228.863 170.748 229.12 170.124C229.376 169.499 229.456 168.816 229.35 168.15C229.103 166.86 228.088 166.311 227.045 166.942Z" fill="white"/>
<path d="M227.045 172.264C226.837 172.305 226.622 172.305 226.414 172.264C226.114 172.102 225.858 171.871 225.667 171.589C225.476 171.307 225.355 170.983 225.316 170.644C225.192 169.922 225.273 169.179 225.549 168.5C225.826 167.821 226.287 167.233 226.88 166.802C227.117 166.635 227.391 166.53 227.679 166.496C227.967 166.462 228.258 166.502 228.527 166.61C228.836 166.762 229.102 166.991 229.299 167.274C229.496 167.557 229.617 167.886 229.652 168.229C229.766 168.954 229.678 169.697 229.398 170.375C229.117 171.053 228.654 171.64 228.06 172.071C227.748 172.233 227.395 172.3 227.045 172.264ZM227.21 167.214C226.72 167.579 226.341 168.072 226.114 168.638C225.886 169.205 225.819 169.823 225.92 170.425C225.939 170.663 226.017 170.893 226.146 171.094C226.275 171.295 226.452 171.461 226.661 171.577C226.837 171.641 227.026 171.662 227.213 171.638C227.399 171.615 227.576 171.547 227.731 171.44C228.221 171.068 228.601 170.571 228.833 170.001C229.065 169.432 229.139 168.81 229.048 168.202C229.019 167.967 228.934 167.742 228.801 167.546C228.667 167.35 228.488 167.189 228.28 167.077C228.118 166.98 227.933 166.929 227.745 166.929C227.556 166.929 227.371 166.98 227.21 167.077V167.214Z" fill="#383838"/>
<path d="M219.006 170.151C218.467 170.554 218.049 171.097 217.797 171.722C217.546 172.346 217.47 173.027 217.579 173.691C217.799 174.981 218.841 175.53 219.856 174.899C220.4 174.5 220.822 173.957 221.074 173.332C221.326 172.707 221.398 172.023 221.283 171.359C221.064 170.151 220.049 169.493 219.006 170.151Z" fill="#DDDBE7"/>
<path d="M219.006 175.642C218.779 175.649 218.553 175.602 218.348 175.505C218.041 175.349 217.778 175.119 217.582 174.837C217.385 174.554 217.262 174.227 217.223 173.886C217.1 173.152 217.184 172.4 217.465 171.711C217.746 171.023 218.213 170.427 218.814 169.989C219.058 169.814 219.342 169.705 219.64 169.671C219.937 169.638 220.239 169.681 220.515 169.797C220.825 169.955 221.091 170.189 221.287 170.477C221.484 170.764 221.605 171.097 221.64 171.443C221.762 172.176 221.678 172.929 221.397 173.618C221.116 174.306 220.649 174.902 220.049 175.34C219.731 175.524 219.373 175.628 219.006 175.642ZM219.884 170.153C219.642 170.152 219.404 170.218 219.198 170.345C218.722 170.716 218.353 171.205 218.126 171.764C217.9 172.323 217.825 172.932 217.909 173.529C217.932 173.762 218.012 173.987 218.141 174.182C218.27 174.378 218.444 174.54 218.649 174.654C218.817 174.718 218.997 174.739 219.174 174.715C219.352 174.691 219.52 174.623 219.665 174.517C220.147 174.152 220.521 173.664 220.749 173.103C220.976 172.543 221.047 171.931 220.954 171.333C220.931 171.103 220.855 170.882 220.731 170.686C220.607 170.491 220.439 170.327 220.241 170.208C220.127 170.165 220.005 170.147 219.884 170.153Z" fill="#383838"/>
<path d="M233.356 196.197C232.812 196.597 232.389 197.139 232.132 197.763C231.876 198.387 231.796 199.071 231.902 199.737C232.149 201.027 233.164 201.576 234.207 200.945C234.746 200.542 235.164 199.999 235.415 199.374C235.667 198.75 235.742 198.069 235.633 197.405C235.387 196.087 234.371 195.538 233.356 196.197Z" fill="#5439FE"/>
<path d="M233.219 201.522C233.002 201.515 232.788 201.469 232.588 201.384C232.288 201.229 232.032 201.003 231.84 200.726C231.649 200.448 231.529 200.128 231.49 199.793C231.388 199.051 231.496 198.295 231.801 197.611C232.107 196.927 232.598 196.342 233.219 195.923C233.454 195.753 233.729 195.647 234.017 195.613C234.305 195.579 234.597 195.62 234.865 195.731C235.165 195.893 235.421 196.124 235.612 196.406C235.803 196.688 235.924 197.012 235.963 197.35C236.087 198.073 236.006 198.816 235.73 199.495C235.453 200.174 234.992 200.762 234.399 201.192C234.051 201.426 233.637 201.542 233.219 201.522ZM234.097 196.225C233.845 196.238 233.6 196.314 233.383 196.445C232.897 196.818 232.52 197.316 232.293 197.886C232.066 198.456 231.997 199.077 232.094 199.683C232.122 199.915 232.203 200.138 232.332 200.333C232.46 200.528 232.632 200.691 232.835 200.808C233.001 200.904 233.191 200.955 233.383 200.955C233.576 200.955 233.765 200.904 233.932 200.808C234.441 200.457 234.842 199.97 235.089 199.402C235.337 198.835 235.421 198.21 235.331 197.597C235.308 197.36 235.228 197.132 235.099 196.932C234.971 196.732 234.796 196.565 234.591 196.445C234.481 196.343 234.35 196.267 234.207 196.225H234.097Z" fill="#383838"/>
<path d="M227.045 199.653C226.524 200.046 226.118 200.572 225.867 201.175C225.616 201.777 225.53 202.436 225.619 203.083C225.838 204.373 226.881 204.922 227.896 204.291C228.437 203.889 228.859 203.347 229.115 202.723C229.372 202.099 229.453 201.417 229.35 200.751C229.103 199.543 228.088 198.994 227.045 199.653Z" fill="white"/>
<path d="M227.045 204.979C226.837 205.021 226.622 205.021 226.414 204.979C226.112 204.828 225.853 204.603 225.661 204.325C225.469 204.046 225.35 203.724 225.317 203.388C225.194 202.661 225.275 201.914 225.551 201.231C225.827 200.548 226.287 199.955 226.881 199.518C227.119 199.355 227.393 199.253 227.68 199.219C227.967 199.186 228.257 199.222 228.527 199.326C228.83 199.486 229.091 199.716 229.287 199.998C229.483 200.28 229.608 200.605 229.652 200.945C229.77 201.67 229.683 202.414 229.402 203.092C229.121 203.771 228.656 204.358 228.06 204.787C227.747 204.946 227.395 205.012 227.045 204.979ZM227.923 199.683C227.67 199.691 227.424 199.767 227.21 199.902C226.727 200.267 226.353 200.755 226.126 201.316C225.899 201.876 225.828 202.488 225.92 203.086C225.944 203.323 226.024 203.551 226.152 203.751C226.281 203.951 226.455 204.118 226.661 204.238C226.838 204.306 227.03 204.326 227.218 204.297C227.405 204.268 227.582 204.191 227.731 204.074C228.219 203.706 228.598 203.214 228.83 202.649C229.061 202.084 229.137 201.467 229.048 200.863C229.024 200.623 228.941 200.392 228.807 200.191C228.673 199.99 228.492 199.825 228.28 199.71C228.164 199.676 228.043 199.666 227.923 199.683Z" fill="#383838"/>
<path d="M219.006 202.837C218.467 203.24 218.049 203.784 217.797 204.408C217.546 205.032 217.47 205.713 217.579 206.378C217.799 207.695 218.841 208.244 219.856 207.585C220.4 207.186 220.822 206.644 221.074 206.018C221.326 205.393 221.398 204.709 221.283 204.045C221.064 202.728 220.049 202.206 219.006 202.837Z" fill="#DDDBE7"/>
<path d="M219.006 208.217C218.78 208.211 218.557 208.165 218.348 208.08C218.038 207.922 217.772 207.688 217.576 207.4C217.379 207.112 217.258 206.78 217.223 206.434C217.107 205.701 217.194 204.95 217.474 204.263C217.755 203.576 218.218 202.979 218.814 202.537C219.061 202.369 219.345 202.264 219.641 202.23C219.937 202.197 220.237 202.236 220.515 202.344C220.822 202.507 221.085 202.742 221.281 203.029C221.477 203.316 221.6 203.646 221.64 203.991C221.766 204.725 221.683 205.478 221.402 206.167C221.121 206.856 220.652 207.452 220.049 207.888C219.739 208.092 219.378 208.206 219.006 208.217ZM219.198 203.085C218.718 203.452 218.345 203.941 218.118 204.501C217.892 205.061 217.819 205.671 217.909 206.269C217.932 206.502 218.012 206.727 218.141 206.922C218.27 207.118 218.444 207.28 218.65 207.394C218.819 207.452 219.001 207.467 219.178 207.438C219.355 207.409 219.522 207.338 219.665 207.229C220.147 206.871 220.522 206.388 220.75 205.831C220.977 205.275 221.048 204.667 220.954 204.073C220.934 203.843 220.858 203.62 220.734 203.424C220.61 203.229 220.441 203.065 220.241 202.948C220.08 202.864 219.901 202.82 219.72 202.82C219.538 202.82 219.359 202.864 219.198 202.948V203.085Z" fill="#383838"/>
<path d="M233.356 91.8561C232.814 92.2579 232.393 92.7999 232.136 93.4238C231.88 94.0477 231.799 94.7297 231.902 95.3963C232.149 96.7136 233.164 97.2625 234.206 96.6038C234.745 96.2008 235.163 95.6576 235.415 95.0333C235.667 94.4091 235.742 93.7278 235.633 93.0636C235.386 91.7737 234.371 91.2249 233.356 91.8561Z" fill="#5439FE"/>
<path d="M233.219 97.1813C233.01 97.2207 232.796 97.2207 232.588 97.1813C232.291 97.0164 232.037 96.7839 231.846 96.5026C231.655 96.2213 231.534 95.8992 231.49 95.5622C231.372 94.8371 231.459 94.0935 231.74 93.4148C232.021 92.7361 232.486 92.1492 233.082 91.7201C233.317 91.5503 233.592 91.4435 233.88 91.4099C234.168 91.3763 234.46 91.4169 234.728 91.5279C235.027 91.6831 235.284 91.9093 235.475 92.1869C235.667 92.4644 235.787 92.7848 235.825 93.1197C235.948 93.8463 235.867 94.5928 235.591 95.276C235.315 95.9592 234.855 96.5523 234.261 96.9892C233.939 97.1513 233.578 97.2179 233.219 97.1813ZM234.097 91.9122C233.842 91.9117 233.594 91.9883 233.383 92.1317C232.897 92.4987 232.519 92.9917 232.292 93.5576C232.065 94.1235 231.996 94.7407 232.094 95.3426C232.118 95.5796 232.197 95.8075 232.326 96.0079C232.455 96.2082 232.629 96.3752 232.835 96.4952C233.005 96.5799 233.193 96.6239 233.383 96.6239C233.574 96.6239 233.762 96.5799 233.932 96.4952C234.424 96.126 234.804 95.6284 235.032 95.0572C235.259 94.4859 235.325 93.8631 235.222 93.2569C235.194 93.0211 235.113 92.7948 234.984 92.5951C234.856 92.3954 234.684 92.2276 234.481 92.1043L234.097 91.9122Z" fill="#383838"/>
<path d="M227.045 95.3137C226.515 95.7121 226.103 96.2463 225.852 96.8598C225.601 97.4734 225.52 98.1434 225.618 98.7991C225.838 100.116 226.88 100.665 227.896 100.007C228.437 99.6112 228.86 99.0742 229.116 98.4545C229.373 97.8348 229.454 97.1564 229.35 96.4938C229.103 95.2314 228.088 94.6825 227.045 95.3137Z" fill="white"/>
<path d="M227.045 100.666C226.837 100.707 226.622 100.707 226.414 100.666C226.111 100.508 225.852 100.278 225.661 99.9951C225.469 99.7124 225.351 99.3865 225.316 99.0467C225.192 98.3241 225.273 97.5812 225.549 96.9021C225.826 96.223 226.287 95.635 226.88 95.2046C227.117 95.0372 227.391 94.9319 227.679 94.8984C227.967 94.8648 228.258 94.9041 228.527 95.0125C228.833 95.1687 229.096 95.3983 229.292 95.6808C229.489 95.9633 229.612 96.29 229.652 96.6317C229.766 97.3566 229.678 98.0992 229.398 98.7772C229.117 99.4553 228.654 100.042 228.06 100.474C227.747 100.632 227.395 100.699 227.045 100.666ZM227.923 95.3693C227.668 95.3653 227.418 95.4421 227.21 95.5889C226.72 95.9538 226.341 96.4466 226.114 97.013C225.886 97.5795 225.819 98.1977 225.92 98.7998C225.939 99.038 226.017 99.2678 226.146 99.4688C226.275 99.6698 226.452 99.8359 226.661 99.9524C226.836 100.024 227.026 100.048 227.214 100.024C227.401 100 227.58 99.9283 227.731 99.8152C228.218 99.4474 228.598 98.9552 228.829 98.3903C229.061 97.8253 229.137 97.2084 229.048 96.6043C229.023 96.3641 228.941 96.1335 228.807 95.9326C228.673 95.7317 228.492 95.5666 228.28 95.4516C228.168 95.3986 228.046 95.3705 227.923 95.3693Z" fill="#383838"/>
<path d="M219.006 98.5252C218.467 98.9282 218.049 99.4714 217.797 100.096C217.546 100.72 217.47 101.401 217.579 102.065C217.799 103.355 218.841 103.904 219.856 103.273C220.4 102.874 220.822 102.331 221.074 101.706C221.326 101.081 221.398 100.397 221.283 99.7327C221.064 98.4154 220.049 97.8665 219.006 98.5252Z" fill="#DDDBE7"/>
<path d="M219.006 103.876C218.779 103.884 218.553 103.837 218.348 103.739C218.041 103.583 217.778 103.354 217.582 103.071C217.385 102.788 217.262 102.462 217.223 102.12C217.1 101.387 217.184 100.634 217.465 99.9457C217.746 99.2575 218.213 98.661 218.814 98.2231C219.058 98.0485 219.342 97.9392 219.64 97.9056C219.937 97.872 220.239 97.9151 220.515 98.031C220.825 98.1896 221.091 98.4234 221.287 98.7111C221.484 98.9987 221.605 99.331 221.64 99.6776C221.762 100.411 221.678 101.164 221.397 101.852C221.116 102.54 220.649 103.137 220.049 103.575C219.731 103.759 219.373 103.862 219.006 103.876ZM219.857 98.5798C219.617 98.5915 219.386 98.6779 219.198 98.8268C218.72 99.1891 218.348 99.6732 218.122 100.228C217.895 100.784 217.821 101.389 217.909 101.983C217.932 102.216 218.012 102.44 218.141 102.636C218.27 102.832 218.444 102.994 218.649 103.108C218.805 103.192 218.98 103.236 219.157 103.236C219.334 103.236 219.509 103.192 219.665 103.108C220.149 102.745 220.525 102.257 220.753 101.696C220.98 101.135 221.05 100.522 220.954 99.9246C220.931 99.6943 220.855 99.4727 220.731 99.2773C220.607 99.0819 220.439 98.9182 220.241 98.7994C220.131 98.6973 220 98.6221 219.857 98.5798Z" fill="#383838"/>
<defs>
<linearGradient id="paint0_linear_1320_1822" x1="74.3556" y1="176.548" x2="132.322" y2="82.0707" gradientUnits="userSpaceOnUse">
<stop stop-color="#CDCCD3"/>
<stop offset="1" stop-color="#B2B1B8" stop-opacity="0"/>
</linearGradient>
<linearGradient id="paint1_linear_1320_1822" x1="229.597" y1="230.996" x2="314.269" y2="93.0534" gradientUnits="userSpaceOnUse">
<stop stop-color="#CDCCD3"/>
<stop offset="1" stop-color="#B2B1B8" stop-opacity="0"/>
</linearGradient>
<linearGradient id="paint2_linear_1320_1822" x1="306.559" y1="280.614" x2="364.553" y2="186.137" gradientUnits="userSpaceOnUse">
<stop stop-color="#CDCCD3"/>
<stop offset="1" stop-color="#B2B1B8" stop-opacity="0"/>
</linearGradient>
<linearGradient id="paint3_linear_1320_1822" x1="120.917" y1="311.542" x2="163.871" y2="241.542" gradientUnits="userSpaceOnUse">
<stop stop-color="#CDCCD3"/>
<stop offset="1" stop-color="#B2B1B8" stop-opacity="0"/>
</linearGradient>
</defs>
</svg>
