<svg width="80" height="80" viewBox="0 0 80 80" fill="none" xmlns="http://www.w3.org/2000/svg">
<path d="M75 73.75H6.25V5C6.25 4.66848 6.1183 4.35054 5.88388 4.11612C5.64946 3.8817 5.33152 3.75 5 3.75C4.66848 3.75 4.35054 3.8817 4.11612 4.11612C3.8817 4.35054 3.75 4.66848 3.75 5V75C3.75 75.3315 3.8817 75.6495 4.11612 75.8839C4.35054 76.1183 4.66848 76.25 5 76.25H75C75.3315 76.25 75.6495 76.1183 75.8839 75.8839C76.1183 75.6495 76.25 75.3315 76.25 75C76.25 74.6685 76.1183 74.3505 75.8839 74.1161C75.6495 73.8817 75.3315 73.75 75 73.75Z" fill="#A193FF"/>
<path d="M24.6251 65.9102H18.0751C17.295 65.9102 16.6626 66.5426 16.6626 67.3227V67.3352C16.6626 68.1153 17.295 68.7477 18.0751 68.7477H24.6251C25.4052 68.7477 26.0376 68.1153 26.0376 67.3352V67.3227C26.0376 66.5426 25.4052 65.9102 24.6251 65.9102Z" fill="#A193FF"/>
<path d="M44.7125 65.9102H38.1625C37.3824 65.9102 36.75 66.5426 36.75 67.3227V67.3352C36.75 68.1153 37.3824 68.7477 38.1625 68.7477H44.7125C45.4926 68.7477 46.125 68.1153 46.125 67.3352V67.3227C46.125 66.5426 45.4926 65.9102 44.7125 65.9102Z" fill="#A193FF"/>
<path d="M64.3873 65.9102H57.8373C57.0572 65.9102 56.4248 66.5426 56.4248 67.3227V67.3352C56.4248 68.1153 57.0572 68.7477 57.8373 68.7477H64.3873C65.1674 68.7477 65.7998 68.1153 65.7998 67.3352V67.3227C65.7998 66.5426 65.1674 65.9102 64.3873 65.9102Z" fill="#A193FF"/>
<path d="M25.1001 46.25H17.6001C16.9097 46.25 16.3501 46.8096 16.3501 47.5V61.25C16.3501 61.9404 16.9097 62.5 17.6001 62.5H25.1001C25.7905 62.5 26.3501 61.9404 26.3501 61.25V47.5C26.3501 46.8096 25.7905 46.25 25.1001 46.25Z" fill="#A193FF"/>
<path d="M45.1875 35H37.6875C36.9971 35 36.4375 35.5596 36.4375 36.25V61.25C36.4375 61.9404 36.9971 62.5 37.6875 62.5H45.1875C45.8779 62.5 46.4375 61.9404 46.4375 61.25V36.25C46.4375 35.5596 45.8779 35 45.1875 35Z" fill="#A193FF"/>
<path d="M64.8623 23.75H57.3623C56.6719 23.75 56.1123 24.3096 56.1123 25V61.25C56.1123 61.9404 56.6719 62.5 57.3623 62.5H64.8623C65.5527 62.5 66.1123 61.9404 66.1123 61.25V25C66.1123 24.3096 65.5527 23.75 64.8623 23.75Z" fill="#A193FF"/>
<path d="M21.3499 38.5616C20.7855 38.596 20.2303 38.4067 19.8045 38.0348C19.3787 37.6628 19.1166 37.138 19.0749 36.5741C19.0407 36.335 18.9143 36.1188 18.7228 35.9716C18.5312 35.8245 18.2897 35.7581 18.0499 35.7866C17.8101 35.7581 17.5686 35.8245 17.377 35.9716C17.1855 36.1188 17.0591 36.335 17.0249 36.5741C17.0882 37.3648 17.4006 38.1151 17.9172 38.717C18.4338 39.3189 19.128 39.7416 19.8999 39.9241L20.3374 40.0491V41.7116C20.3988 41.9364 20.5323 42.1349 20.7176 42.2763C20.9028 42.4177 21.1294 42.4943 21.3624 42.4943C21.5954 42.4943 21.822 42.4177 22.0072 42.2763C22.1925 42.1349 22.326 41.9364 22.3874 41.7116V39.9991L22.8249 39.8616C23.588 39.6729 24.2725 39.2492 24.7817 38.6503C25.2908 38.0514 25.5989 37.3076 25.6624 36.5241C25.6624 34.5616 23.7249 32.9741 21.3374 32.9741C20.773 33.0085 20.2178 32.8193 19.792 32.4473C19.3662 32.0753 19.1041 31.5505 19.0624 30.9866C19.1041 30.4228 19.3662 29.898 19.792 29.526C20.2178 29.154 20.773 28.9647 21.3374 28.9991C21.9018 28.9647 22.457 29.154 22.8828 29.526C23.3086 29.898 23.5707 30.4228 23.6124 30.9866C23.6738 31.2114 23.8073 31.4099 23.9926 31.5513C24.1778 31.6927 24.4044 31.7693 24.6374 31.7693C24.8704 31.7693 25.097 31.6927 25.2822 31.5513C25.4675 31.4099 25.601 31.2114 25.6624 30.9866C25.5989 30.2031 25.2908 29.4594 24.7817 28.8605C24.2725 28.2616 23.588 27.8378 22.8249 27.6491L22.3874 27.5116V25.7866C22.326 25.5618 22.1925 25.3634 22.0072 25.222C21.822 25.0805 21.5954 25.0039 21.3624 25.0039C21.1294 25.0039 20.9028 25.0805 20.7176 25.222C20.5323 25.3634 20.3988 25.5618 20.3374 25.7866V27.4991L19.8999 27.6241C19.128 27.8067 18.4338 28.2293 17.9172 28.8312C17.4006 29.4332 17.0882 30.1834 17.0249 30.9741C17.0249 32.9366 18.9624 34.5241 21.3499 34.5241C21.6373 34.4784 21.9312 34.4955 22.2114 34.5744C22.4915 34.6532 22.7512 34.7919 22.9726 34.9809C23.194 35.1698 23.3717 35.4045 23.4936 35.6688C23.6155 35.933 23.6786 36.2206 23.6786 36.5116C23.6786 36.8027 23.6155 37.0902 23.4936 37.3545C23.3717 37.6188 23.194 37.8535 22.9726 38.0424C22.7512 38.2313 22.4915 38.37 22.2114 38.4489C21.9312 38.5277 21.6373 38.5449 21.3499 38.4991V38.5616ZM41.4374 27.6241C40.873 27.6585 40.3178 27.4692 39.892 27.0973C39.4662 26.7253 39.2041 26.2005 39.1624 25.6366C39.101 25.4118 38.9674 25.2134 38.7822 25.072C38.597 24.9305 38.3704 24.8539 38.1374 24.8539C37.9044 24.8539 37.6778 24.9305 37.4926 25.072C37.3073 25.2134 37.1738 25.4118 37.1124 25.6366C37.1765 26.429 37.4907 27.1805 38.0097 27.7826C38.5287 28.3848 39.2257 28.8064 39.9999 28.9866L40.4374 29.1116V30.7741C40.4988 30.9989 40.6323 31.1974 40.8176 31.3388C41.0028 31.4802 41.2294 31.5568 41.4624 31.5568C41.6954 31.5568 41.922 31.4802 42.1072 31.3388C42.2925 31.1974 42.426 30.9989 42.4874 30.7741V29.1116L42.9249 28.9741C43.688 28.7854 44.3725 28.3617 44.8817 27.7628C45.3908 27.1639 45.6989 26.4201 45.7624 25.6366C45.7624 23.6741 43.8249 22.0866 41.4374 22.0866C40.873 22.121 40.3178 21.9317 39.892 21.5597C39.4662 21.1878 39.2041 20.663 39.1624 20.0991C39.2435 19.5537 39.5178 19.0556 39.9354 18.6955C40.353 18.3354 40.886 18.1373 41.4374 18.1373C41.9888 18.1373 42.5218 18.3354 42.9394 18.6955C43.357 19.0556 43.6313 19.5537 43.7124 20.0991C43.7738 20.3239 43.9073 20.5223 44.0926 20.6638C44.2778 20.8052 44.5044 20.8818 44.7374 20.8818C44.9704 20.8818 45.197 20.8052 45.3822 20.6638C45.5675 20.5223 45.701 20.3239 45.7624 20.0991C45.6989 19.3156 45.3908 18.5719 44.8817 17.973C44.3725 17.3741 43.688 16.9503 42.9249 16.7616L42.4999 16.6241V14.8491C42.4385 14.6243 42.305 14.4259 42.1197 14.2845C41.9345 14.143 41.7079 14.0664 41.4749 14.0664C41.2419 14.0664 41.0153 14.143 40.8301 14.2845C40.6448 14.4259 40.5113 14.6243 40.4499 14.8491V16.6241L40.0124 16.7491C39.2405 16.9317 38.5463 17.3543 38.0297 17.9562C37.5131 18.5582 37.2007 19.3084 37.1374 20.0991C37.1374 22.0616 39.0749 23.6491 41.4624 23.6491C42.0288 23.6113 42.5873 23.799 43.0158 24.1714C43.4444 24.5437 43.7083 25.0704 43.7499 25.6366C43.7293 25.9193 43.6531 26.195 43.5256 26.4481C43.3981 26.7012 43.2218 26.9265 43.0069 27.1112C42.792 27.2959 42.5427 27.4364 42.2734 27.5244C42.004 27.6124 41.7199 27.6463 41.4374 27.6241ZM61.3249 15.7491C60.7585 15.7834 60.2015 15.5924 59.7754 15.2178C59.3492 14.8431 59.0884 14.3152 59.0499 13.7491C58.9885 13.5243 58.8549 13.3259 58.6697 13.1845C58.4845 13.043 58.2579 12.9664 58.0249 12.9664C57.7919 12.9664 57.5653 13.043 57.3801 13.1845C57.1948 13.3259 57.0613 13.5243 56.9999 13.7491C57.0632 14.5398 57.3756 15.2901 57.8922 15.892C58.4088 16.4939 59.103 16.9166 59.8749 17.0991L60.3124 17.2241V18.8866C60.3738 19.1114 60.5073 19.3098 60.6926 19.4513C60.8778 19.5927 61.1044 19.6693 61.3374 19.6693C61.5704 19.6693 61.797 19.5927 61.9822 19.4513C62.1674 19.3098 62.301 19.1114 62.3624 18.8866V17.2366L62.7999 17.0991C63.5672 16.912 64.2558 16.4874 64.7676 15.8858C65.2794 15.2843 65.5881 14.5365 65.6499 13.7491C65.6499 11.7866 63.7124 10.1991 61.3249 10.1991C60.7605 10.2335 60.2053 10.0442 59.7795 9.67225C59.3537 9.30025 59.0916 8.77549 59.0499 8.21162C59.131 7.66622 59.4053 7.16809 59.8229 6.808C60.2404 6.4479 60.7735 6.24981 61.3249 6.24981C61.8763 6.24981 62.4093 6.4479 62.8269 6.808C63.2445 7.16809 63.5188 7.66622 63.5999 8.21162C63.6613 8.43644 63.7948 8.63484 63.9801 8.77628C64.1653 8.91771 64.3919 8.99433 64.6249 8.99433C64.8579 8.99433 65.0845 8.91771 65.2697 8.77628C65.4549 8.63484 65.5885 8.43644 65.6499 8.21162C65.5864 7.42811 65.2783 6.68435 64.7692 6.08546C64.26 5.48657 63.5755 5.06283 62.8124 4.87412L62.3749 4.73662V2.97412C62.3135 2.7493 62.18 2.55089 61.9947 2.40946C61.8095 2.26802 61.5829 2.19141 61.3499 2.19141C61.1169 2.19141 60.8903 2.26802 60.7051 2.40946C60.5198 2.55089 60.3863 2.7493 60.3249 2.97412V4.74912L59.8874 4.87412C59.1155 5.05667 58.4213 5.4793 57.9047 6.08124C57.3881 6.68318 57.0757 7.43343 57.0124 8.22412C57.0124 10.1866 58.9499 11.7741 61.3374 11.7741C61.8977 11.743 62.4479 11.9321 62.8706 12.3011C63.2934 12.6701 63.5551 13.1898 63.5999 13.7491C63.5613 14.3152 63.3006 14.8431 62.8744 15.2178C62.4483 15.5924 61.8913 15.7834 61.3249 15.7491Z" fill="#A193FF"/>
</svg>
