<svg width="450" height="450" viewBox="0 0 450 450" fill="none" xmlns="http://www.w3.org/2000/svg">
<path d="M346.386 339.889C361.151 348.407 361.219 362.229 346.558 370.747L221.146 443.609C206.485 452.126 182.628 452.126 167.875 443.609L41.6401 370.747C26.8757 362.229 26.7956 348.418 41.4571 339.901L166.869 267.039C181.53 258.521 205.387 258.521 220.151 267.039L346.386 339.901V339.889Z" fill="#F4EFFF"/>
<path d="M361.813 324.008L223.856 404.153C207.73 413.528 181.484 413.517 165.256 404.153L26.4061 324.008C18.2291 319.286 14.1463 313.101 14.1692 306.916L14.1349 319.492C14.112 325.677 18.1948 331.863 26.3718 336.584L165.221 416.729C181.461 426.104 207.696 426.104 223.822 416.729L361.779 336.584C369.796 331.931 373.799 325.837 373.822 319.732L373.856 307.156C373.833 313.261 369.83 319.355 361.813 324.008Z" fill="url(#paint0_linear_2168_6688)"/>
<path d="M361.619 290.076C377.859 299.451 377.939 314.645 361.814 324.02L223.856 404.165C207.719 413.54 181.484 413.529 165.256 404.165L26.4066 324.02C10.1669 314.645 10.0754 299.451 26.2122 290.087L164.17 209.942C180.306 200.567 206.542 200.567 222.781 209.942L361.631 290.087L361.619 290.076Z" fill="url(#paint1_linear_2168_6688)"/>
<g style="mix-blend-mode:multiply" opacity="0.32">
<path d="M245.186 263.174L246.569 262.374L270.975 276.459L269.591 277.26L245.186 263.174Z" fill="url(#paint2_radial_2168_6688)"/>
<path d="M117.041 337.626L118.425 336.825L142.819 350.911L141.435 351.711L117.041 337.626Z" fill="url(#paint3_radial_2168_6688)"/>
<path d="M39.9473 293.14L41.3311 292.328L65.439 306.242L64.0552 307.042L39.9473 293.14Z" fill="url(#paint4_radial_2168_6688)"/>
<path d="M168.104 218.677L169.487 217.877L193.595 231.791L192.211 232.591L168.104 218.677Z" fill="url(#paint5_radial_2168_6688)"/>
<path d="M142.475 233.574L143.858 232.763L167.966 246.677L166.583 247.477L142.475 233.574Z" fill="url(#paint6_radial_2168_6688)"/>
<path d="M219.396 248.288L220.78 247.477L245.186 261.562L243.802 262.374L219.396 248.288Z" fill="url(#paint7_radial_2168_6688)"/>
<path d="M116.846 248.46L118.23 247.66L142.337 261.563L140.954 262.374L116.846 248.46Z" fill="url(#paint8_radial_2168_6688)"/>
<path d="M193.768 263.174L195.151 262.374L219.557 276.459L218.173 277.26L193.768 263.174Z" fill="url(#paint9_radial_2168_6688)"/>
<path d="M142.35 263.174L143.733 262.374L168.127 276.459L166.743 277.26L142.35 263.174Z" fill="url(#paint10_radial_2168_6688)"/>
<path d="M91.2051 263.357L92.6118 262.545L116.708 276.459L115.302 277.271L91.2051 263.357Z" fill="url(#paint11_radial_2168_6688)"/>
<path d="M270.986 278.06L272.37 277.26L296.775 291.345L295.392 292.145L270.986 278.06Z" fill="url(#paint12_radial_2168_6688)"/>
<path d="M219.568 278.06L220.952 277.26L245.346 291.345L243.962 292.145L219.568 278.06Z" fill="url(#paint13_radial_2168_6688)"/>
<path d="M168.139 278.06L169.522 277.26L193.928 291.345L192.544 292.145L168.139 278.06Z" fill="url(#paint14_radial_2168_6688)"/>
<path d="M116.697 278.072L118.104 277.26L142.498 291.345L141.103 292.157L116.697 278.072Z" fill="url(#paint15_radial_2168_6688)"/>
<path d="M65.5762 278.242L66.9829 277.431L91.0794 291.345L89.6841 292.156L65.5762 278.242Z" fill="url(#paint16_radial_2168_6688)"/>
<path d="M245.357 292.946L246.741 292.146L271.147 306.231L269.763 307.031L245.357 292.946Z" fill="url(#paint17_radial_2168_6688)"/>
<path d="M193.939 292.946L195.323 292.146L219.717 306.231L218.333 307.031L193.939 292.946Z" fill="url(#paint18_radial_2168_6688)"/>
<path d="M142.498 292.957L143.893 292.146L168.299 306.231L166.903 307.043L142.498 292.957Z" fill="url(#paint19_radial_2168_6688)"/>
<path d="M91.0684 292.957L92.475 292.146L116.88 306.231L115.474 307.043L91.0684 292.957Z" fill="url(#paint20_radial_2168_6688)"/>
<path d="M219.729 307.843L221.112 307.031L245.518 321.117L244.134 321.928L219.729 307.843Z" fill="url(#paint21_radial_2168_6688)"/>
<path d="M168.287 307.854L169.694 307.031L194.099 321.117L192.692 321.94L168.287 307.854Z" fill="url(#paint22_radial_2168_6688)"/>
<path d="M116.869 307.854L118.264 307.031L142.67 321.117L141.274 321.94L116.869 307.854Z" fill="url(#paint23_radial_2168_6688)"/>
<path d="M218.927 218.677L194.979 232.591L193.596 233.391L169.362 247.477L167.967 248.289L143.733 262.374L142.349 263.174L118.104 277.26L116.697 278.071L92.4748 292.145L91.0681 292.957L66.8343 307.042L65.4391 307.854L41.5027 321.757L40.1074 320.956L64.0553 307.042L65.4391 306.242L89.6843 292.157L91.0795 291.345L115.302 277.271L116.709 276.459L140.954 262.374L142.338 261.562L166.583 247.477L167.967 246.676L192.212 232.591L193.596 231.791L217.532 217.877L218.927 218.677Z" fill="url(#paint24_radial_2168_6688)"/>
<path d="M245.539 322.739L246.923 321.928L271.317 336.013L269.933 336.813L245.539 322.739Z" fill="url(#paint25_radial_2168_6688)"/>
<path d="M194.088 322.739L195.483 321.928L219.888 336.013L218.493 336.825L194.088 322.739Z" fill="url(#paint26_radial_2168_6688)"/>
<path d="M142.658 322.739L144.065 321.928L168.47 336.013L167.064 336.825L142.658 322.739Z" fill="url(#paint27_radial_2168_6688)"/>
<path d="M244.728 233.574L220.78 247.477L219.396 248.289L195.151 262.374L193.767 263.174L169.522 277.26L168.138 278.06L143.893 292.145L142.498 292.957L118.264 307.031L116.869 307.854L92.6237 321.94L91.2399 322.74L67.292 336.654L65.9082 335.842L89.8446 321.94L91.2284 321.128L115.474 307.042L116.88 306.231L141.103 292.157L142.498 291.345L166.743 277.26L168.127 276.459L192.372 262.374L193.756 261.562L218.001 247.477L219.385 246.677L243.333 232.763L244.728 233.574Z" fill="url(#paint28_radial_2168_6688)"/>
<path d="M91.2402 322.74L92.624 321.939L117.029 336.013L115.646 336.825L91.2402 322.74Z" fill="url(#paint29_radial_2168_6688)"/>
<path d="M219.898 337.637L221.294 336.825L245.688 350.899L244.281 351.711L219.898 337.637Z" fill="url(#paint30_radial_2168_6688)"/>
<path d="M168.459 337.625L169.854 336.813L194.26 350.899L192.864 351.711L168.459 337.625Z" fill="url(#paint31_radial_2168_6688)"/>
<path d="M270.517 248.46L246.569 262.374L245.185 263.175L220.952 277.26L219.568 278.06L195.323 292.146L193.939 292.946L169.694 307.031L168.287 307.855L144.065 321.928L142.658 322.74L118.424 336.826L117.04 337.626L93.0925 351.54L91.6973 350.728L115.645 336.826L117.029 336.014L141.274 321.94L142.669 321.117L166.903 307.043L168.298 306.231L192.544 292.146L193.927 291.345L218.173 277.26L219.556 276.46L243.802 262.374L245.185 261.563L269.122 247.66L270.517 248.46Z" fill="url(#paint32_radial_2168_6688)"/>
<path d="M296.318 263.345L272.37 277.259L270.986 278.059L246.741 292.145L245.357 292.945L221.112 307.03L219.728 307.842L195.483 321.928L194.088 322.739L169.854 336.813L168.459 337.625L144.214 351.71L142.83 352.511L118.882 366.424L117.498 365.624L141.434 351.71L142.818 350.91L167.063 336.825L168.47 336.013L192.692 321.939L194.099 321.116L218.333 307.03L219.717 306.23L243.962 292.145L245.346 291.344L269.591 277.259L270.975 276.459L294.923 262.545L296.318 263.345Z" fill="url(#paint33_radial_2168_6688)"/>
<path d="M142.83 352.511L144.214 351.711L168.619 365.796L167.235 366.597L142.83 352.511Z" fill="url(#paint34_radial_2168_6688)"/>
<path d="M322.13 278.242L298.182 292.156L296.798 292.957L272.553 307.042L271.169 307.854L246.924 321.928L245.54 322.739L221.295 336.825L219.9 337.636L195.666 351.71L194.271 352.522L170.025 366.607L168.642 367.408L144.705 381.322L143.287 380.51L167.235 366.596L168.619 365.796L192.864 351.71L194.259 350.899L218.493 336.825L219.888 336.013L244.133 321.928L245.517 321.116L269.762 307.03L271.146 306.23L295.391 292.145L296.775 291.345L320.712 277.431L322.13 278.242Z" fill="url(#paint35_radial_2168_6688)"/>
<path d="M296.797 292.957L298.181 292.156L322.563 306.23L321.179 307.03L296.797 292.957Z" fill="url(#paint36_radial_2168_6688)"/>
<path d="M271.168 307.854L272.552 307.042L296.934 321.116L295.55 321.928L271.168 307.854Z" fill="url(#paint37_radial_2168_6688)"/>
<path d="M194.27 352.523L195.665 351.711L220.059 365.785L218.652 366.597L194.27 352.523Z" fill="url(#paint38_radial_2168_6688)"/>
<path d="M168.641 367.408L170.024 366.607L194.407 380.681L193.023 381.493L168.641 367.408Z" fill="url(#paint39_radial_2168_6688)"/>
<path d="M347.919 293.14L323.983 307.042L322.599 307.854L298.354 321.928L296.97 322.739L272.725 336.825L271.341 337.625L247.096 351.71L245.689 352.522L221.467 366.596L220.071 367.408L195.826 381.493L194.442 382.305L170.495 396.207L169.088 395.396L193.024 381.493L194.408 380.682L218.653 366.596L220.06 365.784L244.282 351.71L245.689 350.899L269.934 336.813L271.318 336.013L295.552 321.928L296.936 321.116L321.181 307.031L322.565 306.23L346.512 292.316L347.919 293.14Z" fill="url(#paint40_radial_2168_6688)"/>
<path d="M323.981 307.042L348.055 320.944L346.671 321.745L322.598 307.854L323.981 307.042Z" fill="url(#paint41_radial_2168_6688)"/>
<path d="M193.596 233.391L194.98 232.591L219.385 246.676L218.001 247.476L193.596 233.391Z" fill="url(#paint42_radial_2168_6688)"/>
<path d="M298.353 321.928L322.438 335.83L321.054 336.642L296.969 322.739L298.353 321.928Z" fill="url(#paint43_radial_2168_6688)"/>
<path d="M167.967 248.288L169.362 247.477L193.756 261.562L192.372 262.374L167.967 248.288Z" fill="url(#paint44_radial_2168_6688)"/>
<path d="M272.724 336.825L296.809 350.728L295.425 351.528L271.34 337.626L272.724 336.825Z" fill="url(#paint45_radial_2168_6688)"/>
<path d="M247.094 351.711L271.179 365.613L269.773 366.425L245.688 352.523L247.094 351.711Z" fill="url(#paint46_radial_2168_6688)"/>
<path d="M221.466 366.597L245.551 380.499L244.144 381.311L220.07 367.408L221.466 366.597Z" fill="url(#paint47_radial_2168_6688)"/>
<path d="M195.825 381.493L219.91 395.396L218.526 396.207L194.441 382.305L195.825 381.493Z" fill="url(#paint48_radial_2168_6688)"/>
<path d="M65.4395 307.854L66.8347 307.042L91.2286 321.127L89.8448 321.939L65.4395 307.854Z" fill="url(#paint49_radial_2168_6688)"/>
<path d="M197.986 230.018C200.433 231.436 200.433 233.734 198.02 235.129C195.584 236.546 191.616 236.558 189.169 235.129C186.733 233.723 186.721 231.425 189.157 230.007C191.57 228.601 195.562 228.601 197.986 230.007V230.018Z" fill="url(#paint50_radial_2168_6688)"/>
<path d="M223.787 244.904C226.234 246.322 226.234 248.608 223.821 250.015C221.385 251.432 217.417 251.444 214.969 250.015C212.533 248.608 212.522 246.31 214.958 244.893C217.371 243.486 221.362 243.486 223.787 244.893V244.904Z" fill="url(#paint51_radial_2168_6688)"/>
<path d="M249.6 259.801C252.036 261.207 252.047 263.517 249.634 264.911C247.198 266.329 243.218 266.329 240.782 264.911C238.335 263.494 238.335 261.207 240.771 259.789C243.184 258.383 247.152 258.372 249.6 259.789V259.801Z" fill="url(#paint52_radial_2168_6688)"/>
<path d="M275.389 274.698C277.836 276.116 277.836 278.414 275.423 279.809C272.987 281.227 269.019 281.238 266.571 279.809C264.124 278.38 264.124 276.093 266.56 274.687C268.973 273.281 272.941 273.269 275.389 274.687V274.698Z" fill="url(#paint53_radial_2168_6688)"/>
<path d="M301.188 289.584C303.635 291.002 303.635 293.3 301.222 294.695C298.786 296.112 294.818 296.124 292.37 294.695C289.923 293.277 289.923 290.979 292.359 289.573C294.772 288.166 298.74 288.155 301.188 289.573V289.584Z" fill="url(#paint54_radial_2168_6688)"/>
<path d="M326.977 304.47C329.424 305.888 329.424 308.186 327.011 309.58C324.575 310.998 320.607 311.009 318.159 309.58C315.712 308.151 315.712 305.865 318.148 304.458C320.561 303.052 324.529 303.041 326.977 304.458V304.47Z" fill="url(#paint55_radial_2168_6688)"/>
<path d="M172.345 244.915C174.793 246.333 174.804 248.62 172.38 250.026C169.944 251.444 165.998 251.444 163.551 250.026C161.115 248.62 161.092 246.322 163.517 244.915C165.952 243.498 169.921 243.509 172.345 244.915Z" fill="url(#paint56_radial_2168_6688)"/>
<path d="M198.134 259.801C200.582 261.219 200.593 263.505 198.169 264.912C195.733 266.329 191.787 266.329 189.34 264.912C186.904 263.505 186.881 261.207 189.306 259.801C191.742 258.383 195.71 258.395 198.134 259.801Z" fill="url(#paint57_radial_2168_6688)"/>
<path d="M223.947 274.698C226.383 276.104 226.406 278.402 223.982 279.809C221.546 281.226 217.577 281.215 215.153 279.809C212.705 278.391 212.694 276.104 215.118 274.698C217.554 273.28 221.5 273.28 223.947 274.698Z" fill="url(#paint58_radial_2168_6688)"/>
<path d="M249.748 289.595C252.196 291.013 252.207 293.3 249.782 294.706C247.346 296.124 243.401 296.124 240.954 294.706C238.506 293.288 238.495 291.002 240.919 289.595C243.355 288.178 247.301 288.178 249.748 289.595Z" fill="url(#paint59_radial_2168_6688)"/>
<path d="M275.537 304.481C277.985 305.899 277.996 308.186 275.572 309.592C273.136 311.009 269.19 311.009 266.743 309.592C264.295 308.174 264.284 305.887 266.708 304.481C269.144 303.064 273.09 303.064 275.537 304.481Z" fill="url(#paint60_radial_2168_6688)"/>
<path d="M301.338 319.367C303.785 320.784 303.797 323.071 301.372 324.477C298.948 325.883 294.991 325.895 292.543 324.477C290.096 323.059 290.085 320.773 292.509 319.367C294.934 317.96 298.891 317.949 301.338 319.367Z" fill="url(#paint61_radial_2168_6688)"/>
<path d="M69.8298 304.47C72.2772 305.887 72.2772 308.185 69.8641 309.58C67.4282 310.998 63.4826 310.998 61.0352 309.58C58.5993 308.174 58.5764 305.876 61.0009 304.47C63.414 303.063 67.4053 303.063 69.8298 304.47Z" fill="url(#paint62_radial_2168_6688)"/>
<path d="M95.6306 319.355C98.078 320.773 98.078 323.071 95.6649 324.466C93.2289 325.884 89.2834 325.884 86.836 324.466C84.4 323.06 84.3772 320.762 86.8017 319.355C89.2148 317.949 93.2061 317.949 95.6306 319.355Z" fill="url(#paint63_radial_2168_6688)"/>
<path d="M121.442 334.264C123.877 335.67 123.889 337.98 121.476 339.375C119.04 340.792 115.071 340.781 112.647 339.375C110.2 337.957 110.188 335.67 112.613 334.264C115.026 332.858 118.994 332.846 121.442 334.264Z" fill="url(#paint64_radial_2168_6688)"/>
<path d="M147.231 349.15C149.678 350.567 149.678 352.865 147.265 354.26C144.829 355.678 140.883 355.678 138.436 354.26C135.989 352.843 135.977 350.556 138.402 349.15C140.815 347.744 144.783 347.732 147.231 349.15Z" fill="url(#paint65_radial_2168_6688)"/>
<path d="M173.031 364.036C175.479 365.453 175.479 367.74 173.066 369.146C170.63 370.564 166.684 370.564 164.237 369.146C161.789 367.728 161.778 365.442 164.202 364.036C166.616 362.629 170.584 362.618 173.031 364.036Z" fill="url(#paint66_radial_2168_6688)"/>
<path d="M198.82 378.92C201.268 380.338 201.268 382.625 198.855 384.031C196.419 385.449 192.473 385.449 190.026 384.031C187.578 382.613 187.567 380.327 189.991 378.92C192.405 377.514 196.373 377.503 198.82 378.92Z" fill="url(#paint67_radial_2168_6688)"/>
<path d="M95.4587 289.583C97.9061 291.001 97.9175 293.288 95.493 294.694C93.0571 296.112 89.1115 296.112 86.6641 294.694C84.2282 293.288 84.2053 290.99 86.6298 289.583C89.0658 288.166 93.0342 288.177 95.4587 289.583Z" fill="url(#paint68_radial_2168_6688)"/>
<path d="M121.259 304.469C123.707 305.887 123.718 308.173 121.294 309.58C118.858 310.997 114.912 310.997 112.465 309.58C110.029 308.173 110.006 305.875 112.431 304.469C114.867 303.051 118.835 303.063 121.259 304.469Z" fill="url(#paint69_radial_2168_6688)"/>
<path d="M147.07 319.367C149.506 320.773 149.529 323.071 147.105 324.477C144.669 325.895 140.7 325.884 138.276 324.477C135.828 323.06 135.817 320.773 138.241 319.367C140.677 317.949 144.623 317.949 147.07 319.367Z" fill="url(#paint70_radial_2168_6688)"/>
<path d="M172.861 334.253C175.309 335.67 175.32 337.957 172.896 339.363C170.46 340.781 166.514 340.781 164.067 339.363C161.619 337.946 161.608 335.659 164.033 334.253C166.468 332.835 170.414 332.835 172.861 334.253Z" fill="url(#paint71_radial_2168_6688)"/>
<path d="M198.66 349.149C201.108 350.567 201.119 352.853 198.695 354.26C196.259 355.677 192.313 355.677 189.866 354.26C187.418 352.842 187.407 350.555 189.831 349.149C192.267 347.732 196.213 347.732 198.66 349.149Z" fill="url(#paint72_radial_2168_6688)"/>
<path d="M224.449 364.036C226.897 365.453 226.908 367.74 224.484 369.146C222.059 370.552 218.102 370.564 215.655 369.146C213.207 367.728 213.196 365.442 215.62 364.036C218.045 362.629 222.002 362.618 224.449 364.036Z" fill="url(#paint73_radial_2168_6688)"/>
<path d="M121.088 274.699C123.535 276.116 123.546 278.403 121.122 279.809C118.697 281.215 114.74 281.227 112.293 279.809C109.857 278.403 109.834 276.105 112.259 274.699C114.695 273.281 118.663 273.292 121.088 274.699Z" fill="url(#paint74_radial_2168_6688)"/>
<path d="M146.888 289.583C149.336 291.001 149.347 293.288 146.923 294.694C144.487 296.112 140.541 296.112 138.094 294.694C135.658 293.288 135.635 290.99 138.059 289.583C140.495 288.166 144.464 288.177 146.888 289.583Z" fill="url(#paint75_radial_2168_6688)"/>
<path d="M172.701 304.481C175.137 305.887 175.16 308.186 172.736 309.592C170.311 310.998 166.331 310.998 163.907 309.592C161.459 308.174 161.448 305.887 163.872 304.481C166.308 303.064 170.254 303.064 172.701 304.481Z" fill="url(#paint76_radial_2168_6688)"/>
<path d="M198.49 319.367C200.938 320.784 200.949 323.071 198.525 324.477C196.089 325.895 192.143 325.895 189.696 324.477C187.248 323.059 187.237 320.773 189.661 319.367C192.086 317.96 196.043 317.949 198.49 319.367Z" fill="url(#paint77_radial_2168_6688)"/>
<path d="M224.289 334.252C226.737 335.67 226.748 337.957 224.323 339.363C221.888 340.781 217.942 340.781 215.495 339.363C213.047 337.945 213.036 335.659 215.46 334.252C217.885 332.846 221.842 332.835 224.289 334.252Z" fill="url(#paint78_radial_2168_6688)"/>
<path d="M250.078 349.15C252.526 350.567 252.537 352.854 250.113 354.26C247.677 355.678 243.731 355.678 241.284 354.26C238.836 352.843 238.825 350.556 241.249 349.15C243.674 347.744 247.631 347.732 250.078 349.15Z" fill="url(#paint79_radial_2168_6688)"/>
<path d="M146.717 259.801C149.164 261.219 149.175 263.505 146.751 264.912C144.326 266.318 140.369 266.329 137.922 264.912C135.486 263.505 135.463 261.207 137.888 259.801C140.324 258.383 144.292 258.395 146.717 259.801Z" fill="url(#paint80_radial_2168_6688)"/>
<path d="M172.506 274.699C174.953 276.116 174.964 278.403 172.54 279.809C170.104 281.227 166.158 281.227 163.711 279.809C161.275 278.403 161.252 276.105 163.677 274.699C166.113 273.281 170.081 273.292 172.506 274.699Z" fill="url(#paint81_radial_2168_6688)"/>
<path d="M198.318 289.595C200.754 291.001 200.777 293.299 198.353 294.706C195.917 296.123 191.948 296.112 189.524 294.706C187.076 293.288 187.065 291.001 189.49 289.595C191.914 288.189 195.871 288.177 198.318 289.595Z" fill="url(#paint82_radial_2168_6688)"/>
<path d="M224.119 304.481C226.567 305.899 226.578 308.185 224.154 309.591C221.718 311.009 217.772 311.009 215.325 309.591C212.877 308.174 212.866 305.887 215.29 304.481C217.715 303.075 221.672 303.063 224.119 304.481Z" fill="url(#paint83_radial_2168_6688)"/>
<path d="M249.918 319.367C252.365 320.785 252.377 323.071 249.952 324.477C247.516 325.895 243.571 325.895 241.123 324.477C238.676 323.06 238.665 320.773 241.089 319.367C243.525 317.949 247.471 317.949 249.918 319.367Z" fill="url(#paint84_radial_2168_6688)"/>
<path d="M275.709 334.253C278.156 335.67 278.168 337.957 275.743 339.363C273.307 340.781 269.362 340.781 266.914 339.363C264.467 337.946 264.456 335.659 266.88 334.253C269.316 332.835 273.262 332.835 275.709 334.253Z" fill="url(#paint85_radial_2168_6688)"/>
</g>
<g style="mix-blend-mode:multiply" opacity="0.56">
<path d="M223.033 285.765C229.391 289.435 233.211 293.974 234.412 298.547C236.448 299.244 238.357 300.113 240.119 301.119C251.132 307.476 251.669 317.503 241.308 323.516C230.958 329.53 213.632 329.256 202.619 322.899C200.857 321.882 199.382 320.773 198.147 319.606C190.244 318.92 182.399 316.725 176.04 313.055C161.493 304.664 160.224 291.744 173.204 284.21C186.173 276.676 208.486 277.373 223.021 285.765H223.033Z" fill="#C9ADFF"/>
</g>
<path d="M256.267 145.506L256.965 143.894C256.965 143.894 257.262 138.76 257.217 138.029C257.159 137.308 259.252 135.479 259.492 135.262C259.733 135.045 261.071 133.547 261.071 133.547C261.071 133.547 264.158 129.123 265.05 128.505C265.931 127.888 266.251 129.02 265.496 130.78C264.742 132.552 264.021 135.365 264.021 135.365C264.021 135.365 267.532 137.217 267.932 138.017C268.333 138.818 267.795 143.162 267.418 143.528C267.04 143.894 266.64 143.219 266.64 143.219C266.64 143.219 266.251 145.334 264.479 145.769L262.992 149.062L256.256 145.472L256.267 145.506Z" fill="url(#paint86_linear_2168_6688)"/>
<path d="M179.449 183.738L183.258 188.208L189.513 182.754L183.658 177.381L179.449 183.738Z" fill="url(#paint87_linear_2168_6688)"/>
<path d="M183.051 129.488C183.051 129.488 179.403 130.769 173.765 137.606C168.126 144.454 157.651 156.401 157.925 162.038C158.2 167.674 178.934 185.704 180.558 185.978C182.17 186.241 186.562 180.616 185.99 177.93C185.418 175.243 174.176 162.449 173.776 161.912C173.376 161.375 186.802 150.125 186.802 150.125L183.062 129.488H183.051Z" fill="url(#paint88_linear_2168_6688)"/>
<path d="M204.335 310.86C204.335 310.86 203.214 316.005 203.329 319.389C203.443 322.773 206.645 325.117 210.362 325.38C214.09 325.643 217.006 322.282 225.435 318.063C234.253 313.65 237.363 310.803 236.345 304.961C235.545 300.33 224.875 302.537 216.984 304.458C209.95 306.161 204.335 310.872 204.335 310.872V310.86Z" fill="url(#paint89_linear_2168_6688)"/>
<path d="M181.964 294.717C181.964 294.717 180.043 300.788 180.157 304.172C180.272 307.557 182.181 311.067 185.91 311.318C189.638 311.581 194.087 310.541 197.117 301.611C198.776 296.73 204.86 288.91 198.181 284.885C194.155 282.461 193.652 290.624 185.761 292.545C178.728 294.249 181.964 294.717 181.964 294.717Z" fill="url(#paint90_linear_2168_6688)"/>
<path d="M205.465 239.519C204.676 241.554 198.844 279.98 196.511 296.249C195.253 302.434 180.751 303.44 180.122 298.376C180.122 298.376 178.853 261.013 182.135 244.675L182.204 219.214C181.243 213.886 180.854 202.648 182.272 195.193L213.642 204.74L205.477 239.519H205.465Z" fill="url(#paint91_linear_2168_6688)"/>
<path d="M193.367 206.466C194.133 209.862 194.614 216.424 197.576 220.94C198.045 221.638 198.456 222.358 198.857 223.078C198.937 223.41 200.126 227.846 201.59 233.791C203.077 239.736 201.842 252.027 203.111 258.372C202.413 265.94 203.157 307.934 203.111 311.443C204.392 316.2 220.46 316.966 222.118 308.928C222.118 308.928 222.221 268.799 224.303 258.257C224.703 256.245 224.897 254.21 225.035 252.175C225.423 245.727 226.121 233.962 226.338 229.046C226.75 219.477 227.036 207.289 226.704 203.711L206.633 208.113L193.367 206.478V206.466Z" fill="url(#paint92_linear_2168_6688)"/>
<path d="M188.963 206.238C188.963 206.238 194.738 212.103 204.265 211.703C213.803 211.303 194.064 190.403 194.064 190.403L188.963 206.238Z" fill="url(#paint93_linear_2168_6688)"/>
<path d="M227.503 203.688C227.503 206.375 226.348 214.789 215.781 216.653C205.214 218.539 195.813 212.903 195.813 212.903L194.475 195.719L191.479 210.056C191.479 210.056 182.398 204.042 181.403 201.356C180.42 198.68 180.591 193.478 182.673 182.914C184.754 172.35 183.107 162.084 179.974 149.096C176.84 136.131 180.248 130.129 183.473 129.351C186.698 128.562 193.903 130.952 193.903 130.952C193.903 130.952 205.854 132.884 208.199 135.09C210.555 137.308 220.767 144.9 220.767 144.9L226.097 156.436L225.399 165.113L224.919 171.264C224.53 176.215 224.576 181.188 225.045 186.127C225.205 187.899 225.433 189.683 225.708 191.455C226.6 197.046 227.515 203.025 227.515 203.688H227.503Z" fill="url(#paint94_linear_2168_6688)"/>
<path d="M219.831 109.927C219.831 109.927 220.082 119.885 219.362 125.19C218.641 130.495 212.5 129.889 212.5 129.889L211.962 138.681C211.962 138.681 202.07 139.424 198.445 133.308L199.074 127.031C199.074 127.031 191.263 118.948 193.676 110.304C196.089 101.673 203.339 99.2488 208.703 99.2946C214.078 99.3403 219.625 102.507 219.831 109.916V109.927Z" fill="url(#paint95_linear_2168_6688)"/>
<path d="M219.934 110.807C219.934 110.807 219.682 113.585 217.829 114.226C215.988 114.866 216.023 114.729 216.023 114.729V118.353L214.078 119.016C214.078 119.016 213.872 115.872 212.466 115.598C211.059 115.335 210.556 119.794 211.562 121.005C212.569 122.217 213.609 121.874 213.609 121.874C213.609 121.874 211.711 129.169 207.948 130.46C204.186 131.752 199.737 129.637 197.896 128.071C196.741 127.088 196.238 125.967 194.842 123.063C194.007 121.348 192.006 118.536 191.709 116.044C190.897 109.355 193.687 108.704 193.687 108.704C193.687 108.704 192.395 104.851 196.729 100.38C201.064 95.9102 208.577 95.3271 212.877 97.7852C217.178 100.243 220.711 101.272 222.278 100.781C223.845 100.289 223.754 104.005 221.924 105.034C221.924 105.034 225.103 104.988 224.829 106.063C224.566 107.137 223.616 111.196 219.945 110.796L219.934 110.807Z" fill="url(#paint96_linear_2168_6688)"/>
<path d="M214.558 140.178C214.558 140.178 213.644 135.548 213.312 134.896C212.98 134.233 211.699 133.901 205.844 132.895C199.977 131.889 198.33 129.282 197.255 128.905C196.18 128.528 193.904 130.952 193.904 130.952C193.904 130.952 196.352 136.622 204.243 138.234C212.122 139.846 214.581 140.178 214.581 140.178H214.558Z" fill="url(#paint97_linear_2168_6688)"/>
<g style="mix-blend-mode:multiply" opacity="0.29">
<path d="M195.059 192.381H195.036C194.876 192.37 194.761 192.233 194.773 192.072C194.784 191.901 196.282 174.74 195.093 159.237C193.892 143.643 196.374 137.103 196.477 136.829C196.534 136.68 196.706 136.611 196.843 136.668C196.991 136.726 197.06 136.897 197.003 137.034C196.98 137.103 194.464 143.757 195.653 159.191C196.854 174.74 195.345 191.947 195.333 192.118C195.322 192.267 195.196 192.381 195.047 192.381H195.059Z" fill="#8240FF"/>
</g>
<g style="mix-blend-mode:multiply" opacity="0.29">
<path d="M225.034 186.128C224.977 186.082 224.897 186.025 224.84 185.979C211.848 176.101 213.072 157.408 213.072 157.408L225.4 165.125L224.92 171.276C224.531 176.227 224.577 181.2 225.046 186.139L225.034 186.128Z" fill="#8240FF"/>
</g>
<path d="M255.398 146.421C255.398 146.421 256.29 144.763 256.519 144.592C256.748 144.409 259.07 144.569 261.288 145.872C263.507 147.176 263.93 147.976 263.999 148.182C264.067 148.388 263.392 150.777 263.392 150.777L255.41 146.432L255.398 146.421Z" fill="url(#paint98_linear_2168_6688)"/>
<path d="M242.681 164.439C242.681 164.439 224.028 145.209 219.362 144.34C214.696 143.471 211.345 149.965 213.072 157.408C214.799 164.851 224.554 171.207 230.547 176.124C236.54 181.04 241.823 183.372 246.295 182.835C250.767 182.297 264.182 152.812 263.667 150.605C262.958 147.553 255.353 144.306 254.369 146.649L242.67 164.439H242.681Z" fill="url(#paint99_linear_2168_6688)"/>
<path d="M262.374 151.085C262.374 151.417 262.1 151.691 261.768 151.691C261.437 151.691 261.162 151.417 261.162 151.085C261.162 150.754 261.437 150.479 261.768 150.479C262.1 150.479 262.374 150.754 262.374 151.085Z" fill="url(#paint100_linear_2168_6688)"/>
<path d="M261.767 153.201C261.767 153.532 261.492 153.807 261.161 153.807C260.829 153.807 260.555 153.532 260.555 153.201C260.555 152.869 260.829 152.595 261.161 152.595C261.492 152.595 261.767 152.869 261.767 153.201Z" fill="url(#paint101_linear_2168_6688)"/>
<g filter="url(#filter0_d_2168_6688)">
<path d="M345.574 6.30997L351.35 2.96012C356.61 -0.0924666 363.884 0.341985 371.924 4.97232L366.148 8.32217C358.109 3.6804 350.835 3.24595 345.574 6.30997Z" fill="url(#paint102_linear_2168_6688)"/>
<path d="M392.292 73.387L386.516 76.7368C391.709 73.7186 394.922 67.3047 394.945 58.1926C395.002 39.8542 382.102 17.5257 366.137 8.31078L371.912 4.96094C387.877 14.1759 400.766 36.5044 400.72 54.8428C400.698 63.9548 397.472 70.3687 392.292 73.387Z" fill="url(#paint103_linear_2168_6688)"/>
<path d="M366.147 8.32249C382.113 17.5374 395.001 39.8659 394.956 58.2043C394.899 76.5428 381.918 83.9513 365.964 74.7364C349.988 65.5214 337.099 43.1815 337.145 24.8431C337.19 6.50465 350.182 -0.892447 366.147 8.33392V8.32249Z" fill="url(#paint104_linear_2168_6688)"/>
<path d="M389.284 54.9339C389.273 62.6626 386.402 67.9675 381.828 70.2197C377.665 72.2548 372.095 71.7632 365.977 68.2304C353.122 60.8219 342.749 42.8493 342.795 28.1008C342.818 19.3089 346.535 13.6268 352.287 12.0719C352.287 12.0719 352.299 12.0604 352.31 12.0604C356.176 11.0086 360.956 11.8318 366.125 14.8158C378.957 22.2243 389.341 40.1969 389.284 54.9339Z" fill="#C09FFF"/>
<path d="M389.283 54.9339C389.272 62.6626 386.401 67.9675 381.827 70.2197C377.95 71.3173 373.124 70.517 367.909 67.4987C355.054 60.0902 344.693 42.1062 344.738 27.3691C344.75 19.6062 347.666 14.2784 352.275 12.0719C352.275 12.0719 352.286 12.0604 352.298 12.0604C356.163 11.0086 360.944 11.8318 366.113 14.8158C378.945 22.2243 389.329 40.1969 389.272 54.9339H389.283Z" fill="#D9C5FF"/>
<path d="M367.085 16.5308C367.325 16.6794 367.52 17.0338 367.52 17.3196V21.2754C367.508 21.5612 367.314 21.687 367.074 21.5384C366.833 21.4012 366.65 21.0353 366.65 20.7495V16.7937C366.65 16.4965 366.856 16.3821 367.085 16.5308Z" fill="#C09FFF"/>
<path d="M356.952 13.6614C357.1 13.7528 357.238 13.9358 357.318 14.1416L358.942 18.5661C359.067 18.8862 358.987 19.1606 358.782 19.1835C358.713 19.1835 358.644 19.172 358.564 19.1263C358.416 19.0348 358.267 18.8519 358.187 18.6347L356.563 14.2102C356.449 13.89 356.517 13.6156 356.723 13.5928C356.792 13.5928 356.872 13.6042 356.94 13.6499L356.952 13.6614Z" fill="#C09FFF"/>
<path d="M349.518 18.1205C349.587 18.1663 349.667 18.2349 349.735 18.3149L352.572 22.0192C352.766 22.2821 352.846 22.6594 352.72 22.8309C352.64 22.9567 352.492 22.9567 352.343 22.8652C352.274 22.8195 352.194 22.7509 352.126 22.6709L349.289 18.9666C349.084 18.6922 349.015 18.3263 349.129 18.1548C349.209 18.0405 349.358 18.0291 349.507 18.1205H349.518Z" fill="#C09FFF"/>
<path d="M350.045 30.6962C350.285 30.8334 350.468 31.1878 350.468 31.485C350.468 31.7709 350.274 31.8852 350.034 31.748L346.763 29.7587C346.523 29.61 346.328 29.2556 346.328 28.9812C346.328 28.684 346.523 28.5696 346.763 28.7183L350.034 30.7076L350.045 30.6962Z" fill="#C09FFF"/>
<path d="M352.298 42.3355C352.447 42.4269 352.595 42.6099 352.664 42.8271C352.79 43.1472 352.71 43.4216 352.515 43.4445L349.679 43.696C349.61 43.696 349.542 43.6846 349.462 43.6388C349.313 43.5474 349.164 43.3645 349.084 43.1472C348.97 42.8271 349.039 42.5527 349.245 42.5298L352.081 42.2783C352.149 42.2783 352.218 42.2898 352.298 42.3355Z" fill="#C09FFF"/>
<path d="M358.486 53.6198C358.554 53.6655 358.634 53.7341 358.703 53.8256C358.909 54.0885 358.989 54.4544 358.863 54.6259L357.216 57.0611C357.136 57.1869 356.987 57.1869 356.839 57.0954C356.77 57.0497 356.69 56.9811 356.621 56.901C356.416 56.6267 356.347 56.2608 356.461 56.0893L358.108 53.6655C358.188 53.5398 358.337 53.5398 358.486 53.6312V53.6198Z" fill="#C09FFF"/>
<path d="M366.96 61.5195C367.2 61.6681 367.395 62.0225 367.395 62.2969V66.2527C367.383 66.55 367.189 66.6643 366.949 66.5157C366.708 66.3785 366.525 66.0241 366.525 65.7268V61.771C366.525 61.4852 366.731 61.3709 366.96 61.5081V61.5195Z" fill="#C09FFF"/>
<path d="M375.457 63.9204C375.606 64.0119 375.754 64.1948 375.835 64.4121L377.458 68.8252C377.573 69.1453 377.504 69.4197 377.298 69.4426C377.23 69.4426 377.161 69.4197 377.081 69.3854C376.932 69.2939 376.784 69.111 376.704 68.8938L375.08 64.4807C374.954 64.1605 375.034 63.8861 375.24 63.8633C375.308 63.8633 375.377 63.8747 375.457 63.9204Z" fill="#C09FFF"/>
<path d="M381.69 60.1821C381.758 60.2278 381.839 60.2964 381.907 60.3879L384.743 64.0921C384.949 64.3551 385.018 64.7209 384.903 64.8924C384.823 65.0068 384.675 65.0182 384.526 64.9267C384.457 64.881 384.377 64.8124 384.309 64.7209L381.473 61.0167C381.278 60.7537 381.198 60.3879 381.312 60.2164C381.393 60.102 381.541 60.0906 381.69 60.1821Z" fill="#C09FFF"/>
<path d="M387.258 53.2994C387.499 53.448 387.693 53.8024 387.693 54.0883C387.693 54.3741 387.499 54.4884 387.258 54.3398L383.988 52.3505C383.747 52.2133 383.564 51.8588 383.564 51.573C383.564 51.2758 383.759 51.1614 383.999 51.3101L387.27 53.2994H387.258Z" fill="#C09FFF"/>
<path d="M384.583 39.4195C384.731 39.5109 384.88 39.6939 384.96 39.9111C385.074 40.2312 385.006 40.5056 384.8 40.5285L381.964 40.78C381.895 40.78 381.827 40.7571 381.746 40.7228C381.598 40.6314 381.449 40.4484 381.369 40.2312C381.255 39.9111 381.335 39.6253 381.529 39.6138L384.365 39.3623C384.434 39.3623 384.503 39.3852 384.583 39.4195Z" fill="#C09FFF"/>
<path d="M377.196 25.952C377.264 25.9977 377.344 26.0663 377.413 26.1578C377.619 26.4208 377.688 26.7866 377.573 26.9581L375.926 29.3933C375.846 29.5191 375.698 29.5191 375.549 29.4276C375.48 29.3819 375.4 29.3133 375.332 29.2333C375.126 28.9589 375.046 28.593 375.171 28.4215L376.807 25.9863C376.887 25.872 377.036 25.872 377.184 25.9634L377.196 25.952Z" fill="#C09FFF"/>
<path d="M355.135 31.9429L357.651 30.4795C357.719 30.4452 357.811 30.4452 357.902 30.5023C357.96 30.5366 358.005 30.5824 358.062 30.6395L355.546 32.1029C355.489 32.0343 355.432 32 355.386 31.9657C355.283 31.9086 355.192 31.9086 355.135 31.9429Z" fill="#A576FF"/>
<path d="M365.782 41.1462C365.782 41.615 366.125 42.2095 366.536 42.4496L364.02 43.913C363.609 43.6729 363.266 43.0898 363.266 42.6096C363.266 42.3695 363.346 42.2095 363.483 42.1294L365.999 40.666C365.862 40.746 365.782 40.9061 365.782 41.1462Z" fill="#A576FF"/>
<path d="M366.536 42.4502C366.741 42.576 366.936 42.576 367.073 42.5074L364.557 43.9708C364.42 44.0508 364.237 44.0394 364.02 43.9136C364.774 43.4792 365.781 42.8846 366.536 42.4502Z" fill="#A576FF"/>
<path d="M363.482 42.1293L365.998 40.6659C366.136 40.5858 366.33 40.5973 366.536 40.7116L364.02 42.175C363.814 42.0607 363.62 42.0492 363.482 42.1293Z" fill="white"/>
<path d="M367.063 42.4954L364.547 43.9589C364.685 43.8788 364.765 43.7073 364.765 43.4787C364.765 42.9985 364.433 42.4269 364.01 42.1753L366.526 40.7119C366.949 40.952 367.281 41.5351 367.281 42.0153C367.281 42.2554 367.201 42.4154 367.063 42.4954Z" fill="white"/>
<path d="M367.692 43.5818L365.176 45.0452C365.439 44.8966 365.61 44.5993 365.645 44.1763L368.161 42.7129C368.115 43.1359 367.943 43.4332 367.692 43.5818Z" fill="#A576FF"/>
<path d="M379.941 40.8372L377.425 42.3006C377.596 42.1977 377.448 41.7747 377.23 41.649L379.746 40.1855C379.975 40.3113 380.124 40.7343 379.941 40.8372Z" fill="#A576FF"/>
<path d="M377.218 41.6498C377.47 41.7984 377.618 42.2786 377.367 42.3243L365.644 44.1764C365.553 45.0682 364.867 45.4226 364.009 44.931C363.277 44.508 362.671 43.6048 362.465 42.7245L355.18 32.6292C354.848 32.1719 355.054 31.7603 355.386 31.9546C355.443 31.9889 355.489 32.0347 355.546 32.0918L363.643 40.9867C363.769 41.021 363.883 41.0667 364.02 41.1353C364.284 41.2839 364.524 41.5011 364.73 41.7527L377.081 41.5926C377.081 41.5926 377.172 41.604 377.218 41.6269V41.6498ZM364.009 43.9135C364.432 44.1536 364.764 43.9592 364.764 43.479C364.764 42.9988 364.432 42.4272 364.009 42.1757C363.597 41.9356 363.254 42.1299 363.254 42.6101C363.254 43.0789 363.597 43.6734 364.009 43.9135Z" fill="url(#paint105_linear_2168_6688)"/>
<path d="M364.02 42.1867C364.444 42.4268 364.775 43.0099 364.775 43.4901C364.775 43.9588 364.444 44.1646 364.02 43.9245C363.609 43.6845 363.266 43.1014 363.266 42.6212C363.266 42.141 363.609 41.9581 364.02 42.1867Z" fill="white"/>
<path d="M355.557 32.1031L358.073 30.6396L366.17 39.5345L363.654 40.9979L355.557 32.1031Z" fill="#A576FF"/>
<path d="M363.654 40.9976L366.17 39.5342C366.296 39.5685 366.41 39.6142 366.548 39.6828C366.811 39.8314 367.051 40.0487 367.257 40.3002L364.741 41.7636C364.523 41.5235 364.283 41.2948 364.032 41.1462C363.906 41.0662 363.78 41.0319 363.654 40.9976Z" fill="#A576FF"/>
<path d="M364.74 41.7641L367.256 40.3007L379.608 40.1406L377.092 41.604L364.74 41.7641Z" fill="#A576FF"/>
<path d="M377.092 41.604L379.608 40.1406C379.608 40.1406 379.699 40.1521 379.745 40.1749L377.229 41.6383C377.229 41.6383 377.138 41.604 377.092 41.604Z" fill="#A576FF"/>
</g>
<g filter="url(#filter1_d_2168_6688)">
<path d="M300.697 42.6557C303.178 44.0848 305.18 47.5604 305.18 50.4072L305.031 104.153C305.031 107 302.995 108.143 300.525 106.714L227.687 64.6755C225.205 63.2464 223.203 59.7822 223.215 56.9354L223.364 3.18921C223.364 0.342409 225.388 -0.800883 227.87 0.628233L300.708 42.6671L300.697 42.6557Z" fill="url(#paint106_linear_2168_6688)"/>
<path d="M242.85 18.3718V22.8535C239.111 20.7498 236.103 22.5105 236.092 26.8093C236.092 29.5417 237.304 32.6629 239.157 35.1439L237.064 37.7048C234.124 33.8062 232.192 28.8786 232.203 24.557C232.226 17.7887 236.972 15.0448 242.85 18.3718Z" fill="#D9C5FF"/>
<path d="M242.954 18.4285C248.867 21.847 253.659 30.1244 253.636 36.927C253.613 43.7296 248.798 46.4735 242.886 43.0551C240.724 41.8089 238.734 39.911 237.064 37.7045L239.157 35.1435C240.221 36.5726 241.513 37.7845 242.897 38.5848C246.671 40.7571 249.736 39.0078 249.747 34.6862C249.759 30.3531 246.717 25.0825 242.943 22.9103L242.84 22.8645V18.3828L242.954 18.44V18.4285Z" fill="url(#paint107_linear_2168_6688)"/>
<path d="M260.84 63.2571C261.892 63.863 262.727 65.3379 262.727 66.5383C262.727 67.7388 261.869 68.2304 260.828 67.6359C259.776 67.03 258.93 65.5551 258.93 64.3547C258.93 63.1542 259.787 62.6626 260.84 63.2685V63.2571Z" fill="#D9C5FF"/>
<path d="M270.95 34.5838V39.054C267.153 36.8704 264.099 38.6196 264.088 42.9527C264.076 47.2743 267.107 52.5563 270.892 54.7286C273.523 56.2492 275.821 55.849 276.965 53.9854L280.419 58.0213C278.623 60.9595 275.021 61.5883 270.881 59.1989C264.968 55.7804 260.176 47.4915 260.199 40.7004C260.222 33.8864 265.037 31.1539 270.95 34.5723V34.5838Z" fill="#D9C5FF"/>
<path d="M270.951 34.584C276.863 37.991 281.655 46.2799 281.632 53.0825C281.632 55.1175 281.175 56.7753 280.409 58.0329L276.955 53.9971C277.458 53.1968 277.732 52.1335 277.732 50.8416C277.744 46.5085 274.702 41.2379 270.928 39.0657V34.5954L270.951 34.584Z" fill="url(#paint108_linear_2168_6688)"/>
<path d="M300.456 73.501L300.444 76.0391L289.557 69.751V67.2129L300.456 73.501Z" fill="#D9C5FF"/>
<path d="M300.479 66.2989L300.467 68.8255L289.568 62.5374L289.58 60.0107L300.479 66.2989Z" fill="#D9C5FF"/>
<path d="M300.491 59.0957V61.6338L289.592 55.3457L289.603 52.8076L300.491 59.0957Z" fill="#D9C5FF"/>
<path d="M300.514 51.8936L300.503 54.4317L289.615 48.1436L289.627 45.6055L300.514 51.8936Z" fill="#D9C5FF"/>
<path d="M300.434 80.7041L300.423 83.2422L289.535 76.9541V74.416L300.434 80.7041Z" fill="#D9C5FF"/>
<path d="M229.814 45.3421C230.866 45.948 231.701 47.4229 231.701 48.6233C231.701 49.8238 230.843 50.3154 229.803 49.7209C228.751 49.1149 227.904 47.6401 227.904 46.4396C227.904 45.2392 228.762 44.7475 229.814 45.3535V45.3421Z" fill="#D9C5FF"/>
<path d="M254.264 60.5483L254.252 62.5376L234.719 51.2647L234.73 49.2754L254.264 60.5483Z" fill="#D9C5FF"/>
<path d="M229.779 55.2542C230.831 55.8601 231.666 57.335 231.666 58.5354C231.666 59.7359 230.808 60.2275 229.768 59.633C228.715 59.027 227.869 57.5522 227.869 56.3517C227.869 55.1513 228.727 54.6597 229.779 55.2656V55.2542Z" fill="#D9C5FF"/>
<path d="M254.242 70.4721L254.231 72.4614L234.697 61.1771V59.1992L254.242 70.4721Z" fill="#D9C5FF"/>
<path d="M285.258 88.3754V90.3647L265.725 79.0919L265.736 77.1025L285.258 88.3754Z" fill="#D9C5FF"/>
<path d="M285.291 78.4633L285.28 80.4412L265.758 69.1683V67.1904L285.291 78.4633Z" fill="#D9C5FF"/>
<path d="M260.818 73.1702C261.87 73.7761 262.705 75.251 262.705 76.4514C262.705 77.6519 261.847 78.1435 260.807 77.549C259.755 76.943 258.908 75.4682 258.908 74.2677C258.908 73.0673 259.766 72.5757 260.818 73.1816V73.1702Z" fill="#D9C5FF"/>
</g>
<g filter="url(#filter2_d_2168_6688)">
<path d="M336.652 63.7725C337.864 64.4699 338.836 66.162 338.836 67.5568L338.653 133.388C338.653 134.782 337.67 135.343 336.457 134.645L318.891 124.504C317.679 123.807 316.695 122.115 316.695 120.72L316.878 54.8891C316.878 53.4943 317.873 52.9455 319.086 53.643L336.652 63.784V63.7725Z" fill="url(#paint109_linear_2168_6688)"/>
<path d="M327.834 70.6443C328.668 71.1244 329.343 72.302 329.343 73.251C329.343 74.2113 328.657 74.6001 327.822 74.1199C326.987 73.6397 326.312 72.4735 326.312 71.5132C326.312 70.5528 326.987 70.1641 327.834 70.6443Z" fill="#D9C5FF"/>
<path d="M327.777 92.115C328.612 92.5951 329.287 93.7727 329.287 94.7217C329.287 95.682 328.6 96.0708 327.765 95.5906C326.931 95.1104 326.256 93.9442 326.256 92.9839C326.256 92.0235 326.931 91.6348 327.777 92.115Z" fill="#D9C5FF"/>
<path d="M327.709 113.597C328.543 114.078 329.218 115.255 329.218 116.204C329.218 117.164 328.532 117.553 327.697 117.073C326.862 116.593 326.188 115.427 326.188 114.466C326.188 113.506 326.862 113.117 327.709 113.597Z" fill="#D9C5FF"/>
<path d="M327.732 107.515C331.494 109.687 334.536 114.958 334.525 119.268C334.513 123.601 331.448 125.339 327.686 123.166C323.923 120.994 320.881 115.724 320.893 111.402C320.904 107.092 323.969 105.342 327.732 107.515ZM327.697 120.525C330.19 121.966 332.226 120.823 332.226 117.942C332.226 115.083 330.213 111.573 327.72 110.144C325.227 108.704 323.191 109.87 323.191 112.728C323.191 115.609 325.204 119.085 327.697 120.525Z" fill="url(#paint110_linear_2168_6688)"/>
<path d="M327.788 86.044C331.551 88.2163 334.593 93.4869 334.581 97.7971C334.57 102.13 331.505 103.868 327.742 101.696C323.98 99.5234 320.938 94.2529 320.949 89.9312C320.961 85.621 324.026 83.8718 327.788 86.044ZM327.754 99.0547C330.247 100.495 332.283 99.3405 332.283 96.4709C332.283 93.6126 330.27 90.1027 327.777 88.6736C325.284 87.2331 323.248 88.3992 323.248 91.2574C323.248 94.1271 325.261 97.6142 327.754 99.0547Z" fill="url(#paint111_linear_2168_6688)"/>
<path d="M327.857 64.5616C331.619 66.7339 334.661 72.0044 334.65 76.3147C334.638 80.6477 331.573 82.3855 327.811 80.2133C324.048 78.041 321.006 72.7705 321.018 68.4488C321.029 64.1386 324.094 62.3894 327.857 64.5616ZM327.822 77.5723C330.315 79.0128 332.351 77.8581 332.351 74.9884C332.351 72.1302 330.338 68.6203 327.845 67.1912C325.352 65.7506 323.316 66.9168 323.316 69.775C323.316 72.6447 325.329 76.1317 327.822 77.5723Z" fill="url(#paint112_linear_2168_6688)"/>
</g>
<g filter="url(#filter3_d_2168_6688)">
<path d="M284.845 113.266C287.35 114.706 289.363 118.205 289.363 121.074L289.306 139.39C289.306 142.259 287.27 143.426 284.765 141.974L227.721 109.047C225.227 107.606 223.203 104.108 223.203 101.238L223.26 82.9226C223.26 80.0529 225.307 78.8982 227.801 80.3387L284.845 113.266Z" fill="url(#paint113_linear_2168_6688)"/>
<path d="M241.696 97.2935C242.096 97.9909 242.29 98.6769 242.29 99.34L242.268 106.76C242.268 107.4 242.062 107.858 241.661 108.121C241.261 108.395 240.781 108.361 240.209 108.029L233.713 104.279C233.141 103.947 232.661 103.433 232.261 102.69C231.86 101.958 231.666 101.272 231.666 100.632L231.689 93.212C231.689 92.5489 231.895 92.0915 232.295 91.8515C232.695 91.6114 233.176 91.6571 233.747 91.9886L240.243 95.7386C240.804 96.0588 241.284 96.5733 241.684 97.2821L241.696 97.2935ZM233.633 99.7973L239.466 97.5794L234.171 94.5268C233.896 94.3667 233.736 94.2981 233.702 94.321C233.667 94.3438 233.645 94.5153 233.645 94.8354V99.7973M240.335 105.148V100.186L234.525 102.393L239.82 105.445C240.095 105.605 240.255 105.674 240.289 105.651C240.323 105.628 240.346 105.468 240.346 105.148" fill="#D9C5FF"/>
<path d="M255.808 109.515C255.808 109.721 255.774 109.904 255.728 110.098C255.671 110.281 255.591 110.441 255.488 110.578C255.602 110.83 255.671 111.081 255.728 111.31C255.774 111.55 255.797 111.767 255.797 111.984V114.66C255.797 115.311 255.591 115.757 255.191 115.986C254.79 116.215 254.299 116.157 253.738 115.837L247.242 112.087C246.682 111.767 246.202 111.253 245.801 110.567C245.401 109.869 245.195 109.206 245.195 108.543V105.868C245.195 105.662 245.241 105.479 245.298 105.296C245.355 105.125 245.435 104.965 245.516 104.816C245.424 104.576 245.355 104.324 245.298 104.084C245.241 103.844 245.207 103.604 245.207 103.387V100.952C245.207 100.3 245.424 99.8541 245.824 99.6369C246.225 99.4197 246.705 99.4654 247.277 99.797L253.773 103.547C254.264 103.833 254.71 104.279 255.099 104.873C255.488 105.479 255.728 106.074 255.82 106.657V109.504L255.808 109.515ZM253.841 113.059V111.356C253.841 111.036 253.841 110.841 253.795 110.784C253.761 110.715 253.601 110.613 253.327 110.452L247.666 107.183C247.391 107.023 247.231 106.954 247.197 106.977C247.162 106.988 247.14 107.16 247.14 107.48V109.183C247.14 109.504 247.151 109.698 247.185 109.755C247.22 109.824 247.38 109.927 247.654 110.087L253.315 113.356C253.59 113.516 253.75 113.585 253.784 113.562C253.818 113.551 253.841 113.379 253.841 113.059ZM253.853 108.097V106.451C253.853 106.142 253.853 105.948 253.807 105.879C253.773 105.822 253.613 105.708 253.338 105.548L247.677 102.278C247.403 102.118 247.242 102.049 247.208 102.072C247.174 102.095 247.151 102.266 247.151 102.575V104.222C247.151 104.53 247.162 104.725 247.197 104.782C247.231 104.85 247.391 104.953 247.666 105.113L253.327 108.383C253.601 108.543 253.761 108.612 253.795 108.589C253.83 108.566 253.853 108.406 253.853 108.086" fill="#D9C5FF"/>
<path d="M258.68 108.749L260.635 109.869L260.624 112.11L258.68 110.978V108.749Z" fill="#D9C5FF"/>
<path d="M258.656 118.684V116.455L260.612 117.576L260.6 119.805L258.656 118.684Z" fill="#D9C5FF"/>
<path d="M267.919 111.722L267.885 124.012L265.918 122.88L265.941 113.814L265.095 114.523L262.521 113.037L265.758 110.476L267.919 111.722Z" fill="#D9C5FF"/>
<path d="M280.888 119.21V121.439L272.757 116.752C272.482 116.592 272.322 116.523 272.288 116.546C272.254 116.569 272.231 116.741 272.231 117.061V118.524C272.231 118.844 272.231 119.027 272.276 119.096C272.311 119.153 272.471 119.267 272.745 119.427L278.83 122.937C279.39 123.257 279.87 123.772 280.271 124.458C280.671 125.155 280.865 125.818 280.865 126.47V129.145C280.865 129.797 280.659 130.243 280.259 130.472C279.859 130.7 279.378 130.654 278.807 130.323L272.311 126.573C271.75 126.253 271.259 125.738 270.858 125.041C270.458 124.343 270.264 123.68 270.264 123.029V122.228L272.219 123.349V123.669C272.219 123.989 272.231 124.183 272.265 124.241C272.299 124.309 272.459 124.412 272.734 124.572L278.395 127.842C278.669 128.002 278.83 128.071 278.864 128.048C278.898 128.036 278.921 127.865 278.921 127.545V125.841C278.921 125.521 278.91 125.327 278.875 125.27C278.841 125.201 278.681 125.098 278.406 124.938L270.275 120.239L270.298 113.082L280.888 119.199V119.21Z" fill="#D9C5FF"/>
</g>
<g filter="url(#filter4_d_2168_6688)">
<path d="M336.527 148.262C338.392 149.336 339.913 151.955 339.901 154.104L339.855 169.218C339.855 171.368 338.323 172.225 336.459 171.15L299.714 149.942C297.849 148.868 296.34 146.25 296.34 144.112L296.386 128.997C296.386 126.836 297.907 125.979 299.782 127.054L336.527 148.262Z" fill="url(#paint114_linear_2168_6688)"/>
<path d="M310.945 140.305C311.379 140.556 311.757 140.956 312.077 141.494C312.397 142.043 312.557 142.58 312.557 143.094V143.883L310.91 142.934V142.58C310.91 142.317 310.911 142.18 310.899 142.157C310.888 142.134 310.773 142.054 310.533 141.917L306.439 139.562C306.21 139.436 306.096 139.367 306.084 139.379C306.073 139.39 306.061 139.516 306.061 139.779V140.762C306.061 141.025 306.061 141.162 306.084 141.185C306.096 141.219 306.21 141.299 306.439 141.425L310.933 144.02C311.368 144.272 311.745 144.672 312.066 145.209C312.386 145.77 312.546 146.284 312.546 146.799V148.674C312.546 149.188 312.374 149.543 312.054 149.714C311.734 149.886 311.357 149.851 310.91 149.6L306.039 146.787C305.593 146.536 305.215 146.124 304.906 145.587C304.598 145.049 304.438 144.512 304.438 143.998V143.197L306.05 144.123V144.478C306.05 144.741 306.05 144.878 306.073 144.912C306.084 144.935 306.199 145.015 306.427 145.141L310.522 147.496C310.75 147.633 310.876 147.69 310.888 147.679C310.888 147.656 310.899 147.53 310.899 147.267V146.284C310.899 146.021 310.899 145.884 310.899 145.861C310.888 145.838 310.773 145.758 310.533 145.621L306.061 143.037C305.615 142.786 305.238 142.374 304.929 141.837C304.62 141.299 304.46 140.762 304.46 140.259V138.384C304.46 137.87 304.632 137.515 304.941 137.332C305.261 137.149 305.638 137.195 306.084 137.458L310.956 140.27L310.945 140.305Z" fill="white"/>
<path d="M322.129 146.764V148.628L316.285 145.255V147.118L320.986 149.828V151.692L316.274 148.971V150.834L322.118 154.207L322.106 156.07L314.627 151.76L314.661 142.442L322.129 146.764Z" fill="white"/>
<path d="M331.806 152.344L331.794 154.208L328.558 152.333L328.535 159.775L326.911 158.849L326.934 151.395L323.697 149.52V147.668L331.806 152.344Z" fill="white"/>
</g>
<g filter="url(#filter5_d_2168_6688)">
<path d="M168.824 21.5959C171.786 19.881 174.21 21.2643 174.222 24.6714L174.348 70.8489C174.348 74.2674 171.957 78.4175 168.984 80.1325L94.43 123.166C91.468 124.881 89.0435 123.509 89.0321 120.091L88.9062 73.913C88.9062 70.506 91.2965 66.3444 94.2699 64.6294L168.824 21.5959Z" fill="url(#paint115_linear_2168_6688)"/>
<path d="M105.982 84.3516L106.05 107.023L97.553 111.928L97.4844 89.2563L105.982 84.3516Z" fill="url(#paint116_linear_2168_6688)"/>
<path d="M119.145 66.4355L119.237 99.4081L110.74 104.313L110.637 71.3517L119.145 66.4355Z" fill="url(#paint117_linear_2168_6688)"/>
<path d="M134.173 52.4307L134.287 90.731L125.778 95.6357L125.664 57.3468L134.173 52.4307Z" fill="url(#paint118_linear_2168_6688)"/>
<path d="M150.503 84.374L150.515 86.3976L112.592 108.28L112.58 106.268L150.503 84.374Z" fill="#D9C5FF"/>
<path d="M149.165 49.1152L149.256 82.0878L140.748 86.9925L140.656 54.0314L149.165 49.1152Z" fill="url(#paint119_linear_2168_6688)"/>
<path d="M165.417 31.6797L165.531 72.6896L157.023 77.6058L156.908 36.5958L165.417 31.6797Z" fill="url(#paint120_linear_2168_6688)"/>
<path d="M105.936 66.9043L105.948 68.7336L96.707 74.0613V72.232L105.936 66.9043Z" fill="#D9C5FF"/>
<path d="M113.278 58.0898V59.9305L96.6953 69.4999V67.6706L113.278 58.0898Z" fill="#D9C5FF"/>
</g>
<g filter="url(#filter6_d_2168_6688)">
<path d="M130.764 116.215C133.2 114.809 135.178 115.941 135.19 118.73L135.361 180.697C135.361 183.498 133.406 186.893 130.97 188.3L93.5154 209.919C91.0794 211.325 89.101 210.194 89.0895 207.404L88.918 145.437C88.918 142.636 90.8736 139.241 93.3095 137.835L130.764 116.215Z" fill="url(#paint121_linear_2168_6688)"/>
<path d="M95.9509 148.135C96.923 147.575 97.7122 148.032 97.7122 149.141C97.7122 150.262 96.923 151.622 95.9624 152.182C94.9903 152.743 94.2012 152.297 94.2012 151.176C94.2012 150.067 94.9788 148.707 95.9509 148.135Z" fill="#D9C5FF"/>
<path d="M121.169 134.198V136.348L100.24 148.432V146.271L121.169 134.198Z" fill="#D9C5FF"/>
<path d="M133.005 121.794L133.462 122.537C132.524 123.646 131.701 125.029 131.049 126.356C130.82 126.813 130.615 127.27 130.42 127.705C129.562 129.648 129.094 131.215 129.082 131.249L128.853 132.015L126.475 131.603L127.012 130.346L128.407 130.597C128.659 129.854 129.094 128.642 129.711 127.27C129.883 126.893 130.054 126.516 130.249 126.127C130.981 124.652 131.907 123.097 132.993 121.805L133.005 121.794Z" fill="url(#paint122_linear_2168_6688)"/>
<path d="M130.077 139.687C130.145 139.641 130.225 139.607 130.294 139.584C130.099 139.973 129.916 140.361 129.756 140.727L126.039 142.865C125.834 142.98 125.674 143.254 125.674 143.494V148.136C125.685 148.376 125.845 148.467 126.051 148.342L130.088 146.009C130.294 145.895 130.454 145.621 130.454 145.38V141.173C130.637 140.739 130.843 140.281 131.072 139.824C131.14 139.95 131.174 140.11 131.174 140.304V144.946C131.186 145.655 130.694 146.501 130.088 146.844L126.051 149.176C125.433 149.531 124.942 149.256 124.942 148.547V143.906C124.93 143.197 125.422 142.339 126.039 141.985L130.077 139.653V139.687Z" fill="#D9C5FF"/>
<path d="M133.04 135.262L133.497 136.005C132.548 137.114 131.736 138.497 131.084 139.835C130.856 140.292 130.65 140.75 130.455 141.184C129.598 143.128 129.129 144.694 129.117 144.728L128.889 145.494L126.51 145.071L127.047 143.814L128.443 144.065C128.694 143.322 129.129 142.11 129.746 140.738C129.918 140.361 130.089 139.984 130.284 139.595C131.016 138.12 131.942 136.565 133.029 135.273L133.04 135.262Z" fill="url(#paint123_linear_2168_6688)"/>
<path d="M130.043 126.207C130.112 126.162 130.192 126.127 130.261 126.104C130.066 126.493 129.883 126.882 129.723 127.248L126.006 129.386C125.8 129.5 125.64 129.774 125.64 130.003V134.656C125.652 134.885 125.812 134.988 126.018 134.862L130.055 132.53C130.261 132.415 130.421 132.13 130.421 131.901V127.694C130.604 127.259 130.81 126.802 131.038 126.345C131.107 126.47 131.141 126.63 131.141 126.825V131.478C131.153 132.175 130.661 133.033 130.055 133.376L126.018 135.708C125.4 136.063 124.908 135.777 124.908 135.079V130.426C124.897 129.729 125.389 128.871 126.006 128.517L130.043 126.185V126.207Z" fill="#D9C5FF"/>
<path d="M95.9861 161.604C96.9582 161.044 97.7473 161.501 97.7473 162.61C97.7473 163.73 96.9582 165.091 95.9975 165.651C95.0254 166.211 94.2363 165.765 94.2363 164.645C94.2363 163.536 95.014 162.175 95.9861 161.604Z" fill="#D9C5FF"/>
<path d="M121.202 147.667L121.214 149.816L100.273 161.901V159.752L121.202 147.667Z" fill="#D9C5FF"/>
<path d="M96.0193 174.477C96.9914 173.917 97.7805 174.363 97.7805 175.483C97.7805 176.592 96.9914 177.964 96.0307 178.524C95.0586 179.084 94.2695 178.627 94.2695 177.518C94.2695 176.398 95.0472 175.049 96.0193 174.477Z" fill="#D9C5FF"/>
<path d="M123.261 182.286C124.657 181.486 125.789 182.126 125.789 183.726C125.789 185.316 124.668 187.271 123.273 188.071L104.494 198.909C103.099 199.71 101.967 199.069 101.967 197.48C101.967 195.88 103.088 193.925 104.483 193.124L123.261 182.286Z" fill="url(#paint124_linear_2168_6688)"/>
<path d="M121.282 173.402V175.552L100.353 187.636L100.342 185.476L121.282 173.402Z" fill="#D9C5FF"/>
<path d="M121.237 160.528L121.249 162.678L100.32 174.762L100.309 172.613L121.237 160.528Z" fill="#D9C5FF"/>
<path d="M130.123 152.548C130.192 152.502 130.272 152.468 130.341 152.445C130.146 152.834 129.975 153.211 129.803 153.577L126.086 155.727C125.881 155.841 125.72 156.127 125.72 156.355V160.997C125.732 161.237 125.892 161.329 126.098 161.203L130.135 158.871C130.341 158.756 130.501 158.482 130.501 158.242V154.046C130.684 153.611 130.89 153.154 131.118 152.697C131.187 152.823 131.221 152.983 131.221 153.177V157.819C131.233 158.528 130.741 159.385 130.135 159.728L126.098 162.06C125.48 162.415 124.988 162.129 124.988 161.42V156.778C124.977 156.081 125.469 155.224 126.086 154.869L130.123 152.537V152.548Z" fill="#D9C5FF"/>
<path d="M133.073 148.136L133.53 148.879C132.581 149.988 131.769 151.371 131.106 152.709C130.877 153.166 130.671 153.624 130.477 154.058C129.619 156.002 129.15 157.579 129.139 157.602L128.91 158.368L126.531 157.957L127.069 156.699L128.464 156.951C128.716 156.207 129.15 154.984 129.779 153.612C129.951 153.246 130.122 152.869 130.317 152.48C131.049 150.994 131.975 149.439 133.061 148.159L133.073 148.136Z" fill="url(#paint125_linear_2168_6688)"/>
<path d="M96.0662 187.339C97.0383 186.779 97.8274 187.236 97.8274 188.345C97.8274 189.466 97.0383 190.826 96.0776 191.386C95.1055 191.947 94.3164 191.501 94.3164 190.38C94.3164 189.271 95.0941 187.911 96.0662 187.339Z" fill="#D9C5FF"/>
<path d="M130.157 165.41C130.763 165.056 131.255 165.342 131.266 166.039V170.692C131.278 171.39 130.786 172.247 130.18 172.59L126.143 174.922C125.525 175.277 125.033 174.991 125.033 174.294V169.64C125.022 168.943 125.514 168.086 126.131 167.731L130.168 165.399L130.157 165.41ZM130.534 171.115V166.462C130.523 166.233 130.363 166.142 130.157 166.268L126.12 168.6C125.914 168.714 125.754 168.989 125.754 169.217V173.871C125.765 174.099 125.925 174.202 126.131 174.076L130.168 171.744C130.374 171.63 130.534 171.344 130.534 171.115Z" fill="#D9C5FF"/>
</g>
<g filter="url(#filter7_d_2168_6688)">
<path d="M149.669 112.865C150.755 112.236 151.636 112.739 151.636 113.985C151.636 115.22 150.766 116.741 149.68 117.369C148.593 117.998 147.713 117.495 147.713 116.249C147.713 115.003 148.582 113.482 149.669 112.865Z" fill="#D9C5FF"/>
<path d="M157.114 108.566C158.2 107.937 159.081 108.44 159.081 109.686C159.081 110.921 158.212 112.442 157.125 113.07C156.039 113.699 155.17 113.185 155.158 111.95C155.158 110.704 156.027 109.195 157.114 108.566Z" fill="#D9C5FF"/>
<path d="M164.387 104.37C165.474 103.742 166.343 104.256 166.354 105.491C166.354 106.726 165.485 108.246 164.399 108.875C163.312 109.504 162.432 109.001 162.432 107.755C162.432 106.508 163.301 104.988 164.387 104.359V104.37Z" fill="#D9C5FF"/>
<path d="M171.833 100.072C172.919 99.443 173.8 99.946 173.8 101.192C173.8 102.427 172.93 103.948 171.844 104.576C170.758 105.205 169.877 104.702 169.877 103.456C169.877 102.21 170.746 100.689 171.833 100.072Z" fill="#D9C5FF"/>
<path d="M177.31 89.3361C178.396 88.7073 179.288 89.2104 179.288 90.468L179.334 105.537C179.334 106.794 178.453 108.326 177.367 108.955L145.139 127.556C144.041 128.185 143.149 127.682 143.149 126.425L143.104 111.356C143.104 110.098 143.984 108.566 145.082 107.938L177.31 89.3361ZM149.679 117.37C150.766 116.741 151.635 115.22 151.635 113.986C151.635 112.739 150.743 112.236 149.668 112.865C148.582 113.494 147.712 115.014 147.712 116.249C147.712 117.484 148.604 117.987 149.679 117.37ZM171.843 104.576C172.93 103.947 173.799 102.427 173.799 101.192C173.799 99.9459 172.907 99.4428 171.832 100.072C170.745 100.7 169.876 102.221 169.876 103.456C169.876 104.691 170.768 105.194 171.843 104.576ZM157.125 113.071C158.211 112.442 159.08 110.922 159.08 109.687C159.08 108.441 158.188 107.938 157.113 108.566C156.027 109.195 155.157 110.704 155.157 111.95C155.157 113.185 156.038 113.7 157.125 113.071ZM164.398 108.875C165.485 108.246 166.354 106.737 166.354 105.491C166.354 104.245 165.473 103.742 164.387 104.37C163.3 104.999 162.431 106.52 162.431 107.766C162.431 109.001 163.323 109.504 164.398 108.886" fill="#F6F1FF"/>
</g>
<path d="M373.33 168.498V211.898L392.429 234.923L412.477 212.721V166.314L373.33 168.498Z" fill="url(#paint126_linear_2168_6688)"/>
<path d="M392.84 159.729L417.028 145.689L416.948 173.643L392.76 187.694L392.84 159.729Z" fill="url(#paint127_linear_2168_6688)"/>
<path d="M368.504 145.678L392.68 131.639L417.029 145.69L392.841 159.729L368.504 145.678Z" fill="url(#paint128_linear_2168_6688)"/>
<path d="M392.841 159.73L392.761 187.695L368.424 173.644L368.504 145.679L392.841 159.73Z" fill="url(#paint129_linear_2168_6688)"/>
<path d="M406.117 330.64V374.039L425.216 397.065L445.275 374.862V328.456L406.117 330.64Z" fill="url(#paint130_linear_2168_6688)"/>
<path d="M425.811 323.323L449.999 309.271L449.919 337.236L425.742 351.276L425.811 323.323Z" fill="url(#paint131_linear_2168_6688)"/>
<path d="M401.475 309.272L425.651 295.221L449.999 309.272L425.811 323.323L401.475 309.272Z" fill="url(#paint132_linear_2168_6688)"/>
<path d="M425.811 323.323L425.743 351.276L401.395 337.225L401.475 309.271L425.811 323.323Z" fill="url(#paint133_linear_2168_6688)"/>
<path d="M4.72266 200.956V244.355L23.8215 267.381L43.8809 245.167V198.761L4.72266 200.956Z" fill="url(#paint134_linear_2168_6688)"/>
<path d="M24.4277 190.198L48.6043 176.146L48.5242 204.111L24.3477 218.151L24.4277 190.198Z" fill="url(#paint135_linear_2168_6688)"/>
<path d="M0.0800781 176.147L24.2567 162.096L48.6048 176.147L24.4282 190.198L0.0800781 176.147Z" fill="url(#paint136_linear_2168_6688)"/>
<path d="M24.4282 190.198L24.3481 218.151L0 204.1L0.0800549 176.146L24.4282 190.198Z" fill="url(#paint137_linear_2168_6688)"/>
<defs>
<filter id="filter0_d_2168_6688" x="337.145" y="-2.98828" width="71.5762" height="81.6865" filterUnits="userSpaceOnUse" color-interpolation-filters="sRGB">
<feFlood flood-opacity="0" result="BackgroundImageFix"/>
<feColorMatrix in="SourceAlpha" type="matrix" values="0 0 0 0 0 0 0 0 0 0 0 0 0 0 0 0 0 0 127 0" result="hardAlpha"/>
<feOffset dx="8" dy="-4"/>
<feColorMatrix type="matrix" values="0 0 0 0 0.839216 0 0 0 0 0.756863 0 0 0 0 1 0 0 0 0.35 0"/>
<feBlend mode="normal" in2="BackgroundImageFix" result="effect1_dropShadow_2168_6688"/>
<feBlend mode="normal" in="SourceGraphic" in2="effect1_dropShadow_2168_6688" result="shape"/>
</filter>
<filter id="filter1_d_2168_6688" x="223.215" y="-3.9873" width="85.9648" height="111.317" filterUnits="userSpaceOnUse" color-interpolation-filters="sRGB">
<feFlood flood-opacity="0" result="BackgroundImageFix"/>
<feColorMatrix in="SourceAlpha" type="matrix" values="0 0 0 0 0 0 0 0 0 0 0 0 0 0 0 0 0 0 127 0" result="hardAlpha"/>
<feOffset dx="4" dy="-4"/>
<feColorMatrix type="matrix" values="0 0 0 0 0.839216 0 0 0 0 0.756863 0 0 0 0 1 0 0 0 0.35 0"/>
<feBlend mode="normal" in2="BackgroundImageFix" result="effect1_dropShadow_2168_6688"/>
<feBlend mode="normal" in="SourceGraphic" in2="effect1_dropShadow_2168_6688" result="shape"/>
</filter>
<filter id="filter2_d_2168_6688" x="316.695" y="49.3408" width="26.1406" height="85.6045" filterUnits="userSpaceOnUse" color-interpolation-filters="sRGB">
<feFlood flood-opacity="0" result="BackgroundImageFix"/>
<feColorMatrix in="SourceAlpha" type="matrix" values="0 0 0 0 0 0 0 0 0 0 0 0 0 0 0 0 0 0 127 0" result="hardAlpha"/>
<feOffset dx="4" dy="-4"/>
<feColorMatrix type="matrix" values="0 0 0 0 0.839216 0 0 0 0 0.756863 0 0 0 0 1 0 0 0 0.35 0"/>
<feBlend mode="normal" in2="BackgroundImageFix" result="effect1_dropShadow_2168_6688"/>
<feBlend mode="normal" in="SourceGraphic" in2="effect1_dropShadow_2168_6688" result="shape"/>
</filter>
<filter id="filter3_d_2168_6688" x="223.203" y="76.7188" width="69.1602" height="65.8799" filterUnits="userSpaceOnUse" color-interpolation-filters="sRGB">
<feFlood flood-opacity="0" result="BackgroundImageFix"/>
<feColorMatrix in="SourceAlpha" type="matrix" values="0 0 0 0 0 0 0 0 0 0 0 0 0 0 0 0 0 0 127 0" result="hardAlpha"/>
<feOffset dx="3" dy="-3"/>
<feColorMatrix type="matrix" values="0 0 0 0 0.839216 0 0 0 0 0.756863 0 0 0 0 1 0 0 0 0.35 0"/>
<feBlend mode="normal" in2="BackgroundImageFix" result="effect1_dropShadow_2168_6688"/>
<feBlend mode="normal" in="SourceGraphic" in2="effect1_dropShadow_2168_6688" result="shape"/>
</filter>
<filter id="filter4_d_2168_6688" x="296.34" y="123.591" width="46.5605" height="48.0225" filterUnits="userSpaceOnUse" color-interpolation-filters="sRGB">
<feFlood flood-opacity="0" result="BackgroundImageFix"/>
<feColorMatrix in="SourceAlpha" type="matrix" values="0 0 0 0 0 0 0 0 0 0 0 0 0 0 0 0 0 0 127 0" result="hardAlpha"/>
<feOffset dx="3" dy="-3"/>
<feColorMatrix type="matrix" values="0 0 0 0 0.494118 0 0 0 0 0.721569 0 0 0 0 1 0 0 0 0.35 0"/>
<feBlend mode="normal" in2="BackgroundImageFix" result="effect1_dropShadow_2168_6688"/>
<feBlend mode="normal" in="SourceGraphic" in2="effect1_dropShadow_2168_6688" result="shape"/>
</filter>
<filter id="filter5_d_2168_6688" x="85.9062" y="16.8594" width="88.4414" height="107.045" filterUnits="userSpaceOnUse" color-interpolation-filters="sRGB">
<feFlood flood-opacity="0" result="BackgroundImageFix"/>
<feColorMatrix in="SourceAlpha" type="matrix" values="0 0 0 0 0 0 0 0 0 0 0 0 0 0 0 0 0 0 127 0" result="hardAlpha"/>
<feOffset dx="-3" dy="-4"/>
<feColorMatrix type="matrix" values="0 0 0 0 0.839216 0 0 0 0 0.756863 0 0 0 0 1 0 0 0 0.35 0"/>
<feBlend mode="normal" in2="BackgroundImageFix" result="effect1_dropShadow_2168_6688"/>
<feBlend mode="normal" in="SourceGraphic" in2="effect1_dropShadow_2168_6688" result="shape"/>
</filter>
<filter id="filter6_d_2168_6688" x="85.918" y="111.61" width="49.4434" height="98.9131" filterUnits="userSpaceOnUse" color-interpolation-filters="sRGB">
<feFlood flood-opacity="0" result="BackgroundImageFix"/>
<feColorMatrix in="SourceAlpha" type="matrix" values="0 0 0 0 0 0 0 0 0 0 0 0 0 0 0 0 0 0 127 0" result="hardAlpha"/>
<feOffset dx="-3" dy="-4"/>
<feColorMatrix type="matrix" values="0 0 0 0 0.839216 0 0 0 0 0.756863 0 0 0 0 1 0 0 0 0.35 0"/>
<feBlend mode="normal" in2="BackgroundImageFix" result="effect1_dropShadow_2168_6688"/>
<feBlend mode="normal" in="SourceGraphic" in2="effect1_dropShadow_2168_6688" result="shape"/>
</filter>
<filter id="filter7_d_2168_6688" x="140.104" y="85.0654" width="39.2305" height="42.7617" filterUnits="userSpaceOnUse" color-interpolation-filters="sRGB">
<feFlood flood-opacity="0" result="BackgroundImageFix"/>
<feColorMatrix in="SourceAlpha" type="matrix" values="0 0 0 0 0 0 0 0 0 0 0 0 0 0 0 0 0 0 127 0" result="hardAlpha"/>
<feOffset dx="-3" dy="-4"/>
<feColorMatrix type="matrix" values="0 0 0 0 0.839216 0 0 0 0 0.756863 0 0 0 0 1 0 0 0 0.35 0"/>
<feBlend mode="normal" in2="BackgroundImageFix" result="effect1_dropShadow_2168_6688"/>
<feBlend mode="normal" in="SourceGraphic" in2="effect1_dropShadow_2168_6688" result="shape"/>
</filter>
<linearGradient id="paint0_linear_2168_6688" x1="381.918" y1="369.431" x2="-245.014" y2="344.149" gradientUnits="userSpaceOnUse">
<stop stop-color="#C5A7FF"/>
<stop offset="1" stop-color="#F4EFFF"/>
</linearGradient>
<linearGradient id="paint1_linear_2168_6688" x1="290.531" y1="410.064" x2="145.998" y2="255.71" gradientUnits="userSpaceOnUse">
<stop stop-color="#F3EDFF"/>
<stop offset="1" stop-color="#F7F3FF"/>
</linearGradient>
<radialGradient id="paint2_radial_2168_6688" cx="0" cy="0" r="1" gradientUnits="userSpaceOnUse" gradientTransform="translate(196.501 307.145) scale(399.497 399.375)">
<stop stop-color="#C5A7FF"/>
<stop offset="1" stop-color="#F4EFFF" stop-opacity="0"/>
</radialGradient>
<radialGradient id="paint3_radial_2168_6688" cx="0" cy="0" r="1" gradientUnits="userSpaceOnUse" gradientTransform="translate(196.501 307.145) scale(399.497 399.376)">
<stop stop-color="#C5A7FF"/>
<stop offset="1" stop-color="#F4EFFF" stop-opacity="0"/>
</radialGradient>
<radialGradient id="paint4_radial_2168_6688" cx="0" cy="0" r="1" gradientUnits="userSpaceOnUse" gradientTransform="translate(196.5 307.145) scale(399.497 399.375)">
<stop stop-color="#C5A7FF"/>
<stop offset="1" stop-color="#F4EFFF" stop-opacity="0"/>
</radialGradient>
<radialGradient id="paint5_radial_2168_6688" cx="0" cy="0" r="1" gradientUnits="userSpaceOnUse" gradientTransform="translate(196.5 307.145) scale(399.497 399.375)">
<stop stop-color="#C5A7FF"/>
<stop offset="1" stop-color="#F4EFFF" stop-opacity="0"/>
</radialGradient>
<radialGradient id="paint6_radial_2168_6688" cx="0" cy="0" r="1" gradientUnits="userSpaceOnUse" gradientTransform="translate(196.5 307.145) scale(399.497 399.375)">
<stop stop-color="#C5A7FF"/>
<stop offset="1" stop-color="#F4EFFF" stop-opacity="0"/>
</radialGradient>
<radialGradient id="paint7_radial_2168_6688" cx="0" cy="0" r="1" gradientUnits="userSpaceOnUse" gradientTransform="translate(196.501 307.145) scale(399.497 399.375)">
<stop stop-color="#C5A7FF"/>
<stop offset="1" stop-color="#F4EFFF" stop-opacity="0"/>
</radialGradient>
<radialGradient id="paint8_radial_2168_6688" cx="0" cy="0" r="1" gradientUnits="userSpaceOnUse" gradientTransform="translate(196.5 307.146) scale(399.497 399.375)">
<stop stop-color="#C5A7FF"/>
<stop offset="1" stop-color="#F4EFFF" stop-opacity="0"/>
</radialGradient>
<radialGradient id="paint9_radial_2168_6688" cx="0" cy="0" r="1" gradientUnits="userSpaceOnUse" gradientTransform="translate(196.501 307.145) scale(399.497 399.375)">
<stop stop-color="#C5A7FF"/>
<stop offset="1" stop-color="#F4EFFF" stop-opacity="0"/>
</radialGradient>
<radialGradient id="paint10_radial_2168_6688" cx="0" cy="0" r="1" gradientUnits="userSpaceOnUse" gradientTransform="translate(196.501 307.145) scale(399.497 399.375)">
<stop stop-color="#C5A7FF"/>
<stop offset="1" stop-color="#F4EFFF" stop-opacity="0"/>
</radialGradient>
<radialGradient id="paint11_radial_2168_6688" cx="0" cy="0" r="1" gradientUnits="userSpaceOnUse" gradientTransform="translate(196.5 307.145) scale(399.497 399.375)">
<stop stop-color="#C5A7FF"/>
<stop offset="1" stop-color="#F4EFFF" stop-opacity="0"/>
</radialGradient>
<radialGradient id="paint12_radial_2168_6688" cx="0" cy="0" r="1" gradientUnits="userSpaceOnUse" gradientTransform="translate(196.501 307.145) scale(399.497 399.375)">
<stop stop-color="#C5A7FF"/>
<stop offset="1" stop-color="#F4EFFF" stop-opacity="0"/>
</radialGradient>
<radialGradient id="paint13_radial_2168_6688" cx="0" cy="0" r="1" gradientUnits="userSpaceOnUse" gradientTransform="translate(196.501 307.145) scale(399.497 399.375)">
<stop stop-color="#C5A7FF"/>
<stop offset="1" stop-color="#F4EFFF" stop-opacity="0"/>
</radialGradient>
<radialGradient id="paint14_radial_2168_6688" cx="0" cy="0" r="1" gradientUnits="userSpaceOnUse" gradientTransform="translate(196.501 307.145) scale(399.497 399.375)">
<stop stop-color="#C5A7FF"/>
<stop offset="1" stop-color="#F4EFFF" stop-opacity="0"/>
</radialGradient>
<radialGradient id="paint15_radial_2168_6688" cx="0" cy="0" r="1" gradientUnits="userSpaceOnUse" gradientTransform="translate(196.501 307.145) scale(399.497 399.375)">
<stop stop-color="#C5A7FF"/>
<stop offset="1" stop-color="#F4EFFF" stop-opacity="0"/>
</radialGradient>
<radialGradient id="paint16_radial_2168_6688" cx="0" cy="0" r="1" gradientUnits="userSpaceOnUse" gradientTransform="translate(196.5 307.145) scale(399.497 399.375)">
<stop stop-color="#C5A7FF"/>
<stop offset="1" stop-color="#F4EFFF" stop-opacity="0"/>
</radialGradient>
<radialGradient id="paint17_radial_2168_6688" cx="0" cy="0" r="1" gradientUnits="userSpaceOnUse" gradientTransform="translate(196.501 307.145) scale(399.497 399.375)">
<stop stop-color="#C5A7FF"/>
<stop offset="1" stop-color="#F4EFFF" stop-opacity="0"/>
</radialGradient>
<radialGradient id="paint18_radial_2168_6688" cx="0" cy="0" r="1" gradientUnits="userSpaceOnUse" gradientTransform="translate(196.501 307.145) scale(399.497 399.375)">
<stop stop-color="#C5A7FF"/>
<stop offset="1" stop-color="#F4EFFF" stop-opacity="0"/>
</radialGradient>
<radialGradient id="paint19_radial_2168_6688" cx="0" cy="0" r="1" gradientUnits="userSpaceOnUse" gradientTransform="translate(196.501 307.146) scale(399.497 399.375)">
<stop stop-color="#C5A7FF"/>
<stop offset="1" stop-color="#F4EFFF" stop-opacity="0"/>
</radialGradient>
<radialGradient id="paint20_radial_2168_6688" cx="0" cy="0" r="1" gradientUnits="userSpaceOnUse" gradientTransform="translate(196.501 307.146) scale(399.497 399.375)">
<stop stop-color="#C5A7FF"/>
<stop offset="1" stop-color="#F4EFFF" stop-opacity="0"/>
</radialGradient>
<radialGradient id="paint21_radial_2168_6688" cx="0" cy="0" r="1" gradientUnits="userSpaceOnUse" gradientTransform="translate(196.501 307.146) scale(399.497 399.375)">
<stop stop-color="#C5A7FF"/>
<stop offset="1" stop-color="#F4EFFF" stop-opacity="0"/>
</radialGradient>
<radialGradient id="paint22_radial_2168_6688" cx="0" cy="0" r="1" gradientUnits="userSpaceOnUse" gradientTransform="translate(196.501 307.146) scale(399.497 399.375)">
<stop stop-color="#C5A7FF"/>
<stop offset="1" stop-color="#F4EFFF" stop-opacity="0"/>
</radialGradient>
<radialGradient id="paint23_radial_2168_6688" cx="0" cy="0" r="1" gradientUnits="userSpaceOnUse" gradientTransform="translate(196.501 307.146) scale(399.497 399.375)">
<stop stop-color="#C5A7FF"/>
<stop offset="1" stop-color="#F4EFFF" stop-opacity="0"/>
</radialGradient>
<radialGradient id="paint24_radial_2168_6688" cx="0" cy="0" r="1" gradientUnits="userSpaceOnUse" gradientTransform="translate(196.5 307.145) scale(399.497 399.375)">
<stop stop-color="#C5A7FF"/>
<stop offset="1" stop-color="#F4EFFF" stop-opacity="0"/>
</radialGradient>
<radialGradient id="paint25_radial_2168_6688" cx="0" cy="0" r="1" gradientUnits="userSpaceOnUse" gradientTransform="translate(196.5 307.145) scale(399.497 399.376)">
<stop stop-color="#C5A7FF"/>
<stop offset="1" stop-color="#F4EFFF" stop-opacity="0"/>
</radialGradient>
<radialGradient id="paint26_radial_2168_6688" cx="0" cy="0" r="1" gradientUnits="userSpaceOnUse" gradientTransform="translate(196.501 307.145) scale(399.497 399.375)">
<stop stop-color="#C5A7FF"/>
<stop offset="1" stop-color="#F4EFFF" stop-opacity="0"/>
</radialGradient>
<radialGradient id="paint27_radial_2168_6688" cx="0" cy="0" r="1" gradientUnits="userSpaceOnUse" gradientTransform="translate(196.501 307.145) scale(399.497 399.375)">
<stop stop-color="#C5A7FF"/>
<stop offset="1" stop-color="#F4EFFF" stop-opacity="0"/>
</radialGradient>
<radialGradient id="paint28_radial_2168_6688" cx="0" cy="0" r="1" gradientUnits="userSpaceOnUse" gradientTransform="translate(196.501 307.145) scale(399.497 399.375)">
<stop stop-color="#C5A7FF"/>
<stop offset="1" stop-color="#F4EFFF" stop-opacity="0"/>
</radialGradient>
<radialGradient id="paint29_radial_2168_6688" cx="0" cy="0" r="1" gradientUnits="userSpaceOnUse" gradientTransform="translate(196.501 307.145) scale(399.497 399.375)">
<stop stop-color="#C5A7FF"/>
<stop offset="1" stop-color="#F4EFFF" stop-opacity="0"/>
</radialGradient>
<radialGradient id="paint30_radial_2168_6688" cx="0" cy="0" r="1" gradientUnits="userSpaceOnUse" gradientTransform="translate(196.5 307.145) scale(399.497 399.376)">
<stop stop-color="#C5A7FF"/>
<stop offset="1" stop-color="#F4EFFF" stop-opacity="0"/>
</radialGradient>
<radialGradient id="paint31_radial_2168_6688" cx="0" cy="0" r="1" gradientUnits="userSpaceOnUse" gradientTransform="translate(196.501 307.145) scale(399.497 399.375)">
<stop stop-color="#C5A7FF"/>
<stop offset="1" stop-color="#F4EFFF" stop-opacity="0"/>
</radialGradient>
<radialGradient id="paint32_radial_2168_6688" cx="0" cy="0" r="1" gradientUnits="userSpaceOnUse" gradientTransform="translate(196.501 307.146) scale(399.497 399.375)">
<stop stop-color="#C5A7FF"/>
<stop offset="1" stop-color="#F4EFFF" stop-opacity="0"/>
</radialGradient>
<radialGradient id="paint33_radial_2168_6688" cx="0" cy="0" r="1" gradientUnits="userSpaceOnUse" gradientTransform="translate(196.501 307.145) scale(399.497 399.375)">
<stop stop-color="#C5A7FF"/>
<stop offset="1" stop-color="#F4EFFF" stop-opacity="0"/>
</radialGradient>
<radialGradient id="paint34_radial_2168_6688" cx="0" cy="0" r="1" gradientUnits="userSpaceOnUse" gradientTransform="translate(196.501 307.145) scale(399.497 399.375)">
<stop stop-color="#C5A7FF"/>
<stop offset="1" stop-color="#F4EFFF" stop-opacity="0"/>
</radialGradient>
<radialGradient id="paint35_radial_2168_6688" cx="0" cy="0" r="1" gradientUnits="userSpaceOnUse" gradientTransform="translate(196.501 307.145) scale(399.497 399.375)">
<stop stop-color="#C5A7FF"/>
<stop offset="1" stop-color="#F4EFFF" stop-opacity="0"/>
</radialGradient>
<radialGradient id="paint36_radial_2168_6688" cx="0" cy="0" r="1" gradientUnits="userSpaceOnUse" gradientTransform="translate(196.5 307.145) scale(399.497 399.375)">
<stop stop-color="#C5A7FF"/>
<stop offset="1" stop-color="#F4EFFF" stop-opacity="0"/>
</radialGradient>
<radialGradient id="paint37_radial_2168_6688" cx="0" cy="0" r="1" gradientUnits="userSpaceOnUse" gradientTransform="translate(196.5 307.145) scale(399.497 399.375)">
<stop stop-color="#C5A7FF"/>
<stop offset="1" stop-color="#F4EFFF" stop-opacity="0"/>
</radialGradient>
<radialGradient id="paint38_radial_2168_6688" cx="0" cy="0" r="1" gradientUnits="userSpaceOnUse" gradientTransform="translate(196.5 307.145) scale(399.497 399.375)">
<stop stop-color="#C5A7FF"/>
<stop offset="1" stop-color="#F4EFFF" stop-opacity="0"/>
</radialGradient>
<radialGradient id="paint39_radial_2168_6688" cx="0" cy="0" r="1" gradientUnits="userSpaceOnUse" gradientTransform="translate(196.5 307.145) scale(399.497 399.375)">
<stop stop-color="#C5A7FF"/>
<stop offset="1" stop-color="#F4EFFF" stop-opacity="0"/>
</radialGradient>
<radialGradient id="paint40_radial_2168_6688" cx="0" cy="0" r="1" gradientUnits="userSpaceOnUse" gradientTransform="translate(196.501 307.145) scale(399.497 399.375)">
<stop stop-color="#C5A7FF"/>
<stop offset="1" stop-color="#F4EFFF" stop-opacity="0"/>
</radialGradient>
<radialGradient id="paint41_radial_2168_6688" cx="0" cy="0" r="1" gradientUnits="userSpaceOnUse" gradientTransform="translate(196.5 307.145) scale(399.497 399.376)">
<stop stop-color="#C5A7FF"/>
<stop offset="1" stop-color="#F4EFFF" stop-opacity="0"/>
</radialGradient>
<radialGradient id="paint42_radial_2168_6688" cx="0" cy="0" r="1" gradientUnits="userSpaceOnUse" gradientTransform="translate(196.501 307.145) scale(399.497 399.375)">
<stop stop-color="#C5A7FF"/>
<stop offset="1" stop-color="#F4EFFF" stop-opacity="0"/>
</radialGradient>
<radialGradient id="paint43_radial_2168_6688" cx="0" cy="0" r="1" gradientUnits="userSpaceOnUse" gradientTransform="translate(196.5 307.145) scale(399.497 399.376)">
<stop stop-color="#C5A7FF"/>
<stop offset="1" stop-color="#F4EFFF" stop-opacity="0"/>
</radialGradient>
<radialGradient id="paint44_radial_2168_6688" cx="0" cy="0" r="1" gradientUnits="userSpaceOnUse" gradientTransform="translate(196.501 307.145) scale(399.497 399.375)">
<stop stop-color="#C5A7FF"/>
<stop offset="1" stop-color="#F4EFFF" stop-opacity="0"/>
</radialGradient>
<radialGradient id="paint45_radial_2168_6688" cx="0" cy="0" r="1" gradientUnits="userSpaceOnUse" gradientTransform="translate(196.5 307.145) scale(399.497 399.376)">
<stop stop-color="#C5A7FF"/>
<stop offset="1" stop-color="#F4EFFF" stop-opacity="0"/>
</radialGradient>
<radialGradient id="paint46_radial_2168_6688" cx="0" cy="0" r="1" gradientUnits="userSpaceOnUse" gradientTransform="translate(196.499 307.145) scale(399.497 399.375)">
<stop stop-color="#C5A7FF"/>
<stop offset="1" stop-color="#F4EFFF" stop-opacity="0"/>
</radialGradient>
<radialGradient id="paint47_radial_2168_6688" cx="0" cy="0" r="1" gradientUnits="userSpaceOnUse" gradientTransform="translate(196.5 307.145) scale(399.497 399.375)">
<stop stop-color="#C5A7FF"/>
<stop offset="1" stop-color="#F4EFFF" stop-opacity="0"/>
</radialGradient>
<radialGradient id="paint48_radial_2168_6688" cx="0" cy="0" r="1" gradientUnits="userSpaceOnUse" gradientTransform="translate(196.5 307.145) scale(399.497 399.375)">
<stop stop-color="#C5A7FF"/>
<stop offset="1" stop-color="#F4EFFF" stop-opacity="0"/>
</radialGradient>
<radialGradient id="paint49_radial_2168_6688" cx="0" cy="0" r="1" gradientUnits="userSpaceOnUse" gradientTransform="translate(196.501 307.145) scale(399.497 399.375)">
<stop stop-color="#C5A7FF"/>
<stop offset="1" stop-color="#F4EFFF" stop-opacity="0"/>
</radialGradient>
<radialGradient id="paint50_radial_2168_6688" cx="0" cy="0" r="1" gradientUnits="userSpaceOnUse" gradientTransform="translate(196.499 307.145) scale(399.497 399.376)">
<stop stop-color="#C5A7FF"/>
<stop offset="1" stop-color="#F4EFFF" stop-opacity="0"/>
</radialGradient>
<radialGradient id="paint51_radial_2168_6688" cx="0" cy="0" r="1" gradientUnits="userSpaceOnUse" gradientTransform="translate(196.5 307.145) scale(399.497 399.375)">
<stop stop-color="#C5A7FF"/>
<stop offset="1" stop-color="#F4EFFF" stop-opacity="0"/>
</radialGradient>
<radialGradient id="paint52_radial_2168_6688" cx="0" cy="0" r="1" gradientUnits="userSpaceOnUse" gradientTransform="translate(196.5 307.145) scale(399.497 399.376)">
<stop stop-color="#C5A7FF"/>
<stop offset="1" stop-color="#F4EFFF" stop-opacity="0"/>
</radialGradient>
<radialGradient id="paint53_radial_2168_6688" cx="0" cy="0" r="1" gradientUnits="userSpaceOnUse" gradientTransform="translate(196.5 307.145) scale(399.497 399.376)">
<stop stop-color="#C5A7FF"/>
<stop offset="1" stop-color="#F4EFFF" stop-opacity="0"/>
</radialGradient>
<radialGradient id="paint54_radial_2168_6688" cx="0" cy="0" r="1" gradientUnits="userSpaceOnUse" gradientTransform="translate(196.499 307.145) scale(399.497 399.376)">
<stop stop-color="#C5A7FF"/>
<stop offset="1" stop-color="#F4EFFF" stop-opacity="0"/>
</radialGradient>
<radialGradient id="paint55_radial_2168_6688" cx="0" cy="0" r="1" gradientUnits="userSpaceOnUse" gradientTransform="translate(196.499 307.145) scale(399.497 399.376)">
<stop stop-color="#C5A7FF"/>
<stop offset="1" stop-color="#F4EFFF" stop-opacity="0"/>
</radialGradient>
<radialGradient id="paint56_radial_2168_6688" cx="0" cy="0" r="1" gradientUnits="userSpaceOnUse" gradientTransform="translate(196.499 307.145) scale(399.497 399.375)">
<stop stop-color="#C5A7FF"/>
<stop offset="1" stop-color="#F4EFFF" stop-opacity="0"/>
</radialGradient>
<radialGradient id="paint57_radial_2168_6688" cx="0" cy="0" r="1" gradientUnits="userSpaceOnUse" gradientTransform="translate(196.499 307.145) scale(399.497 399.375)">
<stop stop-color="#C5A7FF"/>
<stop offset="1" stop-color="#F4EFFF" stop-opacity="0"/>
</radialGradient>
<radialGradient id="paint58_radial_2168_6688" cx="0" cy="0" r="1" gradientUnits="userSpaceOnUse" gradientTransform="translate(196.5 307.145) scale(399.497 399.375)">
<stop stop-color="#C5A7FF"/>
<stop offset="1" stop-color="#F4EFFF" stop-opacity="0"/>
</radialGradient>
<radialGradient id="paint59_radial_2168_6688" cx="0" cy="0" r="1" gradientUnits="userSpaceOnUse" gradientTransform="translate(196.5 307.145) scale(399.497 399.374)">
<stop stop-color="#C5A7FF"/>
<stop offset="1" stop-color="#F4EFFF" stop-opacity="0"/>
</radialGradient>
<radialGradient id="paint60_radial_2168_6688" cx="0" cy="0" r="1" gradientUnits="userSpaceOnUse" gradientTransform="translate(196.5 307.145) scale(399.497 399.375)">
<stop stop-color="#C5A7FF"/>
<stop offset="1" stop-color="#F4EFFF" stop-opacity="0"/>
</radialGradient>
<radialGradient id="paint61_radial_2168_6688" cx="0" cy="0" r="1" gradientUnits="userSpaceOnUse" gradientTransform="translate(196.501 307.145) scale(399.496 399.375)">
<stop stop-color="#C5A7FF"/>
<stop offset="1" stop-color="#F4EFFF" stop-opacity="0"/>
</radialGradient>
<radialGradient id="paint62_radial_2168_6688" cx="0" cy="0" r="1" gradientUnits="userSpaceOnUse" gradientTransform="translate(196.5 307.145) scale(399.497 399.375)">
<stop stop-color="#C5A7FF"/>
<stop offset="1" stop-color="#F4EFFF" stop-opacity="0"/>
</radialGradient>
<radialGradient id="paint63_radial_2168_6688" cx="0" cy="0" r="1" gradientUnits="userSpaceOnUse" gradientTransform="translate(196.5 307.145) scale(399.497 399.375)">
<stop stop-color="#C5A7FF"/>
<stop offset="1" stop-color="#F4EFFF" stop-opacity="0"/>
</radialGradient>
<radialGradient id="paint64_radial_2168_6688" cx="0" cy="0" r="1" gradientUnits="userSpaceOnUse" gradientTransform="translate(196.499 307.145) scale(399.497 399.375)">
<stop stop-color="#C5A7FF"/>
<stop offset="1" stop-color="#F4EFFF" stop-opacity="0"/>
</radialGradient>
<radialGradient id="paint65_radial_2168_6688" cx="0" cy="0" r="1" gradientUnits="userSpaceOnUse" gradientTransform="translate(196.499 307.145) scale(399.497 399.373)">
<stop stop-color="#C5A7FF"/>
<stop offset="1" stop-color="#F4EFFF" stop-opacity="0"/>
</radialGradient>
<radialGradient id="paint66_radial_2168_6688" cx="0" cy="0" r="1" gradientUnits="userSpaceOnUse" gradientTransform="translate(196.499 307.145) scale(399.497 399.375)">
<stop stop-color="#C5A7FF"/>
<stop offset="1" stop-color="#F4EFFF" stop-opacity="0"/>
</radialGradient>
<radialGradient id="paint67_radial_2168_6688" cx="0" cy="0" r="1" gradientUnits="userSpaceOnUse" gradientTransform="translate(196.499 307.144) scale(399.497 399.375)">
<stop stop-color="#C5A7FF"/>
<stop offset="1" stop-color="#F4EFFF" stop-opacity="0"/>
</radialGradient>
<radialGradient id="paint68_radial_2168_6688" cx="0" cy="0" r="1" gradientUnits="userSpaceOnUse" gradientTransform="translate(196.499 307.144) scale(399.497 399.376)">
<stop stop-color="#C5A7FF"/>
<stop offset="1" stop-color="#F4EFFF" stop-opacity="0"/>
</radialGradient>
<radialGradient id="paint69_radial_2168_6688" cx="0" cy="0" r="1" gradientUnits="userSpaceOnUse" gradientTransform="translate(196.5 307.144) scale(399.497 399.375)">
<stop stop-color="#C5A7FF"/>
<stop offset="1" stop-color="#F4EFFF" stop-opacity="0"/>
</radialGradient>
<radialGradient id="paint70_radial_2168_6688" cx="0" cy="0" r="1" gradientUnits="userSpaceOnUse" gradientTransform="translate(196.499 307.145) scale(399.497 399.375)">
<stop stop-color="#C5A7FF"/>
<stop offset="1" stop-color="#F4EFFF" stop-opacity="0"/>
</radialGradient>
<radialGradient id="paint71_radial_2168_6688" cx="0" cy="0" r="1" gradientUnits="userSpaceOnUse" gradientTransform="translate(196.5 307.145) scale(399.497 399.375)">
<stop stop-color="#C5A7FF"/>
<stop offset="1" stop-color="#F4EFFF" stop-opacity="0"/>
</radialGradient>
<radialGradient id="paint72_radial_2168_6688" cx="0" cy="0" r="1" gradientUnits="userSpaceOnUse" gradientTransform="translate(196.499 307.145) scale(399.497 399.373)">
<stop stop-color="#C5A7FF"/>
<stop offset="1" stop-color="#F4EFFF" stop-opacity="0"/>
</radialGradient>
<radialGradient id="paint73_radial_2168_6688" cx="0" cy="0" r="1" gradientUnits="userSpaceOnUse" gradientTransform="translate(196.499 307.145) scale(399.497 399.375)">
<stop stop-color="#C5A7FF"/>
<stop offset="1" stop-color="#F4EFFF" stop-opacity="0"/>
</radialGradient>
<radialGradient id="paint74_radial_2168_6688" cx="0" cy="0" r="1" gradientUnits="userSpaceOnUse" gradientTransform="translate(196.499 307.145) scale(399.497 399.375)">
<stop stop-color="#C5A7FF"/>
<stop offset="1" stop-color="#F4EFFF" stop-opacity="0"/>
</radialGradient>
<radialGradient id="paint75_radial_2168_6688" cx="0" cy="0" r="1" gradientUnits="userSpaceOnUse" gradientTransform="translate(196.5 307.144) scale(399.497 399.376)">
<stop stop-color="#C5A7FF"/>
<stop offset="1" stop-color="#F4EFFF" stop-opacity="0"/>
</radialGradient>
<radialGradient id="paint76_radial_2168_6688" cx="0" cy="0" r="1" gradientUnits="userSpaceOnUse" gradientTransform="translate(196.5 307.145) scale(399.497 399.375)">
<stop stop-color="#C5A7FF"/>
<stop offset="1" stop-color="#F4EFFF" stop-opacity="0"/>
</radialGradient>
<radialGradient id="paint77_radial_2168_6688" cx="0" cy="0" r="1" gradientUnits="userSpaceOnUse" gradientTransform="translate(196.5 307.145) scale(399.497 399.375)">
<stop stop-color="#C5A7FF"/>
<stop offset="1" stop-color="#F4EFFF" stop-opacity="0"/>
</radialGradient>
<radialGradient id="paint78_radial_2168_6688" cx="0" cy="0" r="1" gradientUnits="userSpaceOnUse" gradientTransform="translate(196.499 307.145) scale(399.497 399.375)">
<stop stop-color="#C5A7FF"/>
<stop offset="1" stop-color="#F4EFFF" stop-opacity="0"/>
</radialGradient>
<radialGradient id="paint79_radial_2168_6688" cx="0" cy="0" r="1" gradientUnits="userSpaceOnUse" gradientTransform="translate(196.499 307.145) scale(399.497 399.373)">
<stop stop-color="#C5A7FF"/>
<stop offset="1" stop-color="#F4EFFF" stop-opacity="0"/>
</radialGradient>
<radialGradient id="paint80_radial_2168_6688" cx="0" cy="0" r="1" gradientUnits="userSpaceOnUse" gradientTransform="translate(196.499 307.145) scale(399.497 399.375)">
<stop stop-color="#C5A7FF"/>
<stop offset="1" stop-color="#F4EFFF" stop-opacity="0"/>
</radialGradient>
<radialGradient id="paint81_radial_2168_6688" cx="0" cy="0" r="1" gradientUnits="userSpaceOnUse" gradientTransform="translate(196.499 307.145) scale(399.497 399.375)">
<stop stop-color="#C5A7FF"/>
<stop offset="1" stop-color="#F4EFFF" stop-opacity="0"/>
</radialGradient>
<radialGradient id="paint82_radial_2168_6688" cx="0" cy="0" r="1" gradientUnits="userSpaceOnUse" gradientTransform="translate(196.5 307.145) scale(399.497 399.374)">
<stop stop-color="#C5A7FF"/>
<stop offset="1" stop-color="#F4EFFF" stop-opacity="0"/>
</radialGradient>
<radialGradient id="paint83_radial_2168_6688" cx="0" cy="0" r="1" gradientUnits="userSpaceOnUse" gradientTransform="translate(196.5 307.145) scale(399.497 399.375)">
<stop stop-color="#C5A7FF"/>
<stop offset="1" stop-color="#F4EFFF" stop-opacity="0"/>
</radialGradient>
<radialGradient id="paint84_radial_2168_6688" cx="0" cy="0" r="1" gradientUnits="userSpaceOnUse" gradientTransform="translate(196.499 307.145) scale(399.497 399.375)">
<stop stop-color="#C5A7FF"/>
<stop offset="1" stop-color="#F4EFFF" stop-opacity="0"/>
</radialGradient>
<radialGradient id="paint85_radial_2168_6688" cx="0" cy="0" r="1" gradientUnits="userSpaceOnUse" gradientTransform="translate(196.5 307.145) scale(399.497 399.375)">
<stop stop-color="#C5A7FF"/>
<stop offset="1" stop-color="#F4EFFF" stop-opacity="0"/>
</radialGradient>
<linearGradient id="paint86_linear_2168_6688" x1="267.109" y1="144.088" x2="259.061" y2="134.711" gradientUnits="userSpaceOnUse">
<stop stop-color="#00AAFF"/>
<stop offset="1" stop-color="#54C6FF"/>
</linearGradient>
<linearGradient id="paint87_linear_2168_6688" x1="179.449" y1="182.8" x2="189.513" y2="182.8" gradientUnits="userSpaceOnUse">
<stop stop-color="#EBE1FF"/>
<stop offset="1" stop-color="#F4EFFF"/>
</linearGradient>
<linearGradient id="paint88_linear_2168_6688" x1="192.28" y1="165.376" x2="155.062" y2="138.475" gradientUnits="userSpaceOnUse">
<stop stop-color="#7B36FF"/>
<stop offset="1" stop-color="#9862FF"/>
</linearGradient>
<linearGradient id="paint89_linear_2168_6688" x1="203.329" y1="313.798" x2="236.54" y2="313.798" gradientUnits="userSpaceOnUse">
<stop stop-color="#7B36FF"/>
<stop offset="1" stop-color="#9862FF"/>
</linearGradient>
<linearGradient id="paint90_linear_2168_6688" x1="191.319" y1="310.301" x2="188.165" y2="243.361" gradientUnits="userSpaceOnUse">
<stop stop-color="#7B36FF"/>
<stop offset="1" stop-color="#9862FF"/>
</linearGradient>
<linearGradient id="paint91_linear_2168_6688" x1="213.928" y1="242.354" x2="160.396" y2="253.634" gradientUnits="userSpaceOnUse">
<stop stop-color="#A372FF"/>
<stop offset="1" stop-color="#B188FF"/>
</linearGradient>
<linearGradient id="paint92_linear_2168_6688" x1="193.367" y1="259.344" x2="226.842" y2="259.344" gradientUnits="userSpaceOnUse">
<stop stop-color="#AC80FF"/>
<stop offset="1" stop-color="#C4A5FF"/>
</linearGradient>
<linearGradient id="paint93_linear_2168_6688" x1="188.963" y1="201.059" x2="206.872" y2="201.059" gradientUnits="userSpaceOnUse">
<stop stop-color="#EBE1FF"/>
<stop offset="1" stop-color="#F4EFFF"/>
</linearGradient>
<linearGradient id="paint94_linear_2168_6688" x1="209.971" y1="214.115" x2="196.736" y2="139.948" gradientUnits="userSpaceOnUse">
<stop stop-color="#7B36FF"/>
<stop offset="1" stop-color="#9862FF"/>
</linearGradient>
<linearGradient id="paint95_linear_2168_6688" x1="193.207" y1="119.016" x2="219.876" y2="119.016" gradientUnits="userSpaceOnUse">
<stop stop-color="#00AAFF"/>
<stop offset="1" stop-color="#54C6FF"/>
</linearGradient>
<linearGradient id="paint96_linear_2168_6688" x1="214.776" y1="118.479" x2="196.837" y2="102.033" gradientUnits="userSpaceOnUse">
<stop stop-color="#7713D8"/>
<stop offset="1" stop-color="#1CB3FF"/>
</linearGradient>
<linearGradient id="paint97_linear_2168_6688" x1="210.807" y1="138.989" x2="196.549" y2="128.467" gradientUnits="userSpaceOnUse">
<stop stop-color="#EBE1FF"/>
<stop offset="1" stop-color="#F4EFFF"/>
</linearGradient>
<linearGradient id="paint98_linear_2168_6688" x1="255.398" y1="147.644" x2="263.987" y2="147.644" gradientUnits="userSpaceOnUse">
<stop stop-color="#EBE1FF"/>
<stop offset="1" stop-color="#F4EFFF"/>
</linearGradient>
<linearGradient id="paint99_linear_2168_6688" x1="247.885" y1="207.347" x2="234.638" y2="133.18" gradientUnits="userSpaceOnUse">
<stop stop-color="#7B36FF"/>
<stop offset="1" stop-color="#9862FF"/>
</linearGradient>
<linearGradient id="paint100_linear_2168_6688" x1="261.162" y1="151.085" x2="262.374" y2="151.085" gradientUnits="userSpaceOnUse">
<stop stop-color="#EBE1FF"/>
<stop offset="1" stop-color="#F4EFFF"/>
</linearGradient>
<linearGradient id="paint101_linear_2168_6688" x1="260.566" y1="153.201" x2="261.767" y2="153.201" gradientUnits="userSpaceOnUse">
<stop stop-color="#EBE1FF"/>
<stop offset="1" stop-color="#F4EFFF"/>
</linearGradient>
<linearGradient id="paint102_linear_2168_6688" x1="384.813" y1="93.4632" x2="353.3" y2="-12.7654" gradientUnits="userSpaceOnUse">
<stop stop-color="#7B36FF"/>
<stop offset="1" stop-color="#9862FF"/>
</linearGradient>
<linearGradient id="paint103_linear_2168_6688" x1="401.338" y1="88.5699" x2="369.837" y2="-17.6701" gradientUnits="userSpaceOnUse">
<stop stop-color="#7B36FF"/>
<stop offset="1" stop-color="#9862FF"/>
</linearGradient>
<linearGradient id="paint104_linear_2168_6688" x1="337.145" y1="41.5237" x2="394.956" y2="41.5237" gradientUnits="userSpaceOnUse">
<stop stop-color="#F3EDFF"/>
<stop offset="1" stop-color="#F7F3FF"/>
</linearGradient>
<linearGradient id="paint105_linear_2168_6688" x1="355.009" y1="38.54" x2="377.504" y2="38.54" gradientUnits="userSpaceOnUse">
<stop stop-color="#AC80FF"/>
<stop offset="1" stop-color="#C4A5FF"/>
</linearGradient>
<linearGradient id="paint106_linear_2168_6688" x1="264.066" y1="92.1945" x2="264.271" y2="31.2685" gradientUnits="userSpaceOnUse">
<stop stop-color="#F3EDFF"/>
<stop offset="1" stop-color="#F7F3FF"/>
</linearGradient>
<linearGradient id="paint107_linear_2168_6688" x1="237.064" y1="31.4506" x2="253.636" y2="31.4506" gradientUnits="userSpaceOnUse">
<stop stop-color="#AC80FF"/>
<stop offset="1" stop-color="#C4A5FF"/>
</linearGradient>
<linearGradient id="paint108_linear_2168_6688" x1="270.939" y1="46.3142" x2="281.632" y2="46.3142" gradientUnits="userSpaceOnUse">
<stop stop-color="#7713D8"/>
<stop offset="1" stop-color="#1CB3FF"/>
</linearGradient>
<linearGradient id="paint109_linear_2168_6688" x1="316.707" y1="94.1384" x2="338.836" y2="94.1384" gradientUnits="userSpaceOnUse">
<stop stop-color="#F3EDFF"/>
<stop offset="1" stop-color="#F7F3FF"/>
</linearGradient>
<linearGradient id="paint110_linear_2168_6688" x1="320.893" y1="115.346" x2="334.525" y2="115.346" gradientUnits="userSpaceOnUse">
<stop stop-color="#7713D8"/>
<stop offset="1" stop-color="#1CB3FF"/>
</linearGradient>
<linearGradient id="paint111_linear_2168_6688" x1="320.961" y1="93.8642" x2="334.581" y2="93.8642" gradientUnits="userSpaceOnUse">
<stop stop-color="#AC80FF"/>
<stop offset="1" stop-color="#C4A5FF"/>
</linearGradient>
<linearGradient id="paint112_linear_2168_6688" x1="321.018" y1="72.3817" x2="334.638" y2="72.3817" gradientUnits="userSpaceOnUse">
<stop stop-color="#53A1FF"/>
<stop offset="1" stop-color="#6EB0FF"/>
</linearGradient>
<linearGradient id="paint113_linear_2168_6688" x1="256.712" y1="140.956" x2="256.175" y2="103.468" gradientUnits="userSpaceOnUse">
<stop stop-color="#F3EDFF"/>
<stop offset="1" stop-color="#F7F3FF"/>
</linearGradient>
<linearGradient id="paint114_linear_2168_6688" x1="296.34" y1="149.096" x2="339.901" y2="149.096" gradientUnits="userSpaceOnUse">
<stop stop-color="#53A1FF"/>
<stop offset="1" stop-color="#6EB0FF"/>
</linearGradient>
<linearGradient id="paint115_linear_2168_6688" x1="88.9062" y1="72.381" x2="174.348" y2="72.381" gradientUnits="userSpaceOnUse">
<stop stop-color="#F3EDFF"/>
<stop offset="1" stop-color="#F7F3FF"/>
</linearGradient>
<linearGradient id="paint116_linear_2168_6688" x1="102.128" y1="112.122" x2="101.476" y2="86.4209" gradientUnits="userSpaceOnUse">
<stop stop-color="#7713D8"/>
<stop offset="1" stop-color="#1CB3FF"/>
</linearGradient>
<linearGradient id="paint117_linear_2168_6688" x1="115.577" y1="102.724" x2="114.377" y2="70.1627" gradientUnits="userSpaceOnUse">
<stop stop-color="#AC80FF"/>
<stop offset="1" stop-color="#C4A5FF"/>
</linearGradient>
<linearGradient id="paint118_linear_2168_6688" x1="131.645" y1="92.5717" x2="128.159" y2="53.8139" gradientUnits="userSpaceOnUse">
<stop stop-color="#7713D8"/>
<stop offset="1" stop-color="#1CB3FF"/>
</linearGradient>
<linearGradient id="paint119_linear_2168_6688" x1="144.853" y1="83.9628" x2="145.071" y2="52.1678" gradientUnits="userSpaceOnUse">
<stop stop-color="#AC80FF"/>
<stop offset="1" stop-color="#C4A5FF"/>
</linearGradient>
<linearGradient id="paint120_linear_2168_6688" x1="161.105" y1="75.1477" x2="161.323" y2="35.4068" gradientUnits="userSpaceOnUse">
<stop stop-color="#7713D8"/>
<stop offset="1" stop-color="#1CB3FF"/>
</linearGradient>
<linearGradient id="paint121_linear_2168_6688" x1="88.9065" y1="163.067" x2="135.361" y2="163.067" gradientUnits="userSpaceOnUse">
<stop stop-color="#F3EDFF"/>
<stop offset="1" stop-color="#F7F3FF"/>
</linearGradient>
<linearGradient id="paint122_linear_2168_6688" x1="132.81" y1="157.202" x2="129.599" y2="123.166" gradientUnits="userSpaceOnUse">
<stop stop-color="#53A1FF"/>
<stop offset="1" stop-color="#6EB0FF"/>
</linearGradient>
<linearGradient id="paint123_linear_2168_6688" x1="131.588" y1="157.316" x2="128.376" y2="123.28" gradientUnits="userSpaceOnUse">
<stop stop-color="#53A1FF"/>
<stop offset="1" stop-color="#6EB0FF"/>
</linearGradient>
<linearGradient id="paint124_linear_2168_6688" x1="114.238" y1="207.77" x2="113.781" y2="186.116" gradientUnits="userSpaceOnUse">
<stop stop-color="#7B36FF"/>
<stop offset="1" stop-color="#9862FF"/>
</linearGradient>
<linearGradient id="paint125_linear_2168_6688" x1="130.42" y1="157.431" x2="127.208" y2="123.395" gradientUnits="userSpaceOnUse">
<stop stop-color="#53A1FF"/>
<stop offset="1" stop-color="#6EB0FF"/>
</linearGradient>
<linearGradient id="paint126_linear_2168_6688" x1="393.001" y1="169.699" x2="392.795" y2="212.892" gradientUnits="userSpaceOnUse">
<stop stop-color="#C5A7FF"/>
<stop offset="1" stop-color="#F4EFFF" stop-opacity="0"/>
</linearGradient>
<linearGradient id="paint127_linear_2168_6688" x1="395.676" y1="157.66" x2="435.074" y2="196.258" gradientUnits="userSpaceOnUse">
<stop stop-color="#3B94FF"/>
<stop offset="1" stop-color="#6EB0FF"/>
</linearGradient>
<linearGradient id="paint128_linear_2168_6688" x1="420.242" y1="178.811" x2="383.293" y2="134.234" gradientUnits="userSpaceOnUse">
<stop stop-color="#53A1FF"/>
<stop offset="1" stop-color="#6EB0FF"/>
</linearGradient>
<linearGradient id="paint129_linear_2168_6688" x1="397.049" y1="205.633" x2="376.68" y2="157.279" gradientUnits="userSpaceOnUse">
<stop stop-color="#E1D1FF"/>
<stop offset="1" stop-color="#F7F3FF"/>
</linearGradient>
<linearGradient id="paint130_linear_2168_6688" x1="425.788" y1="331.84" x2="425.594" y2="375.034" gradientUnits="userSpaceOnUse">
<stop stop-color="#C5A7FF"/>
<stop offset="1" stop-color="#F4EFFF" stop-opacity="0"/>
</linearGradient>
<linearGradient id="paint131_linear_2168_6688" x1="428.647" y1="321.253" x2="468.045" y2="359.84" gradientUnits="userSpaceOnUse">
<stop stop-color="#7713D8"/>
<stop offset="1" stop-color="#1CB3FF"/>
</linearGradient>
<linearGradient id="paint132_linear_2168_6688" x1="453.213" y1="342.393" x2="416.264" y2="297.828" gradientUnits="userSpaceOnUse">
<stop stop-color="#7713D8"/>
<stop offset="1" stop-color="#1CB3FF"/>
</linearGradient>
<linearGradient id="paint133_linear_2168_6688" x1="430.02" y1="369.226" x2="409.651" y2="320.871" gradientUnits="userSpaceOnUse">
<stop stop-color="#E1D1FF"/>
<stop offset="1" stop-color="#F7F3FF"/>
</linearGradient>
<linearGradient id="paint134_linear_2168_6688" x1="24.4047" y1="202.156" x2="24.199" y2="245.35" gradientUnits="userSpaceOnUse">
<stop stop-color="#C5A7FF"/>
<stop offset="1" stop-color="#F4EFFF" stop-opacity="0"/>
</linearGradient>
<linearGradient id="paint135_linear_2168_6688" x1="27.2525" y1="188.128" x2="66.6506" y2="226.715" gradientUnits="userSpaceOnUse">
<stop stop-color="#A372FF"/>
<stop offset="1" stop-color="#B188FF"/>
</linearGradient>
<linearGradient id="paint136_linear_2168_6688" x1="51.8184" y1="209.268" x2="14.8693" y2="164.703" gradientUnits="userSpaceOnUse">
<stop stop-color="#AC80FF"/>
<stop offset="1" stop-color="#C4A5FF"/>
</linearGradient>
<linearGradient id="paint137_linear_2168_6688" x1="28.6253" y1="236.101" x2="8.25622" y2="187.746" gradientUnits="userSpaceOnUse">
<stop stop-color="#E1D1FF"/>
<stop offset="1" stop-color="#F7F3FF"/>
</linearGradient>
</defs>
</svg>
