<svg width="100" height="100" viewBox="0 0 100 100" fill="none" xmlns="http://www.w3.org/2000/svg">
<path d="M72.1914 22.7715H73.6914C74.4871 22.7715 75.2501 23.0899 75.8127 23.6566C76.3753 24.2234 76.6914 24.992 76.6914 25.7935V79.7494C76.6914 80.5509 76.3753 81.3196 75.8127 81.8863C75.2501 82.4531 74.4871 82.7715 73.6914 82.7715H25.6914C24.8958 82.7715 24.1327 82.4531 23.5701 81.8863C23.0075 81.3196 22.6914 80.5509 22.6914 79.7494V25.7935C22.6914 24.992 23.0075 24.2234 23.5701 23.6566C24.1327 23.0899 24.8958 22.7715 25.6914 22.7715H27.1914" stroke="black" stroke-width="3" stroke-linecap="round" stroke-linejoin="round"/>
<path d="M63.6914 22.7715H56.1914C56.1914 21.1802 55.5593 19.6541 54.434 18.5288C53.3088 17.4036 51.7827 16.7715 50.1914 16.7715C48.6001 16.7715 47.074 17.4036 45.9488 18.5288C44.8235 19.6541 44.1914 21.1802 44.1914 22.7715H36.6914" stroke="black" stroke-width="3" stroke-linecap="round" stroke-linejoin="round"/>
<path d="M39.1914 73.7715C43.3335 73.7715 46.6914 70.4136 46.6914 66.2715C46.6914 62.1293 43.3335 58.7715 39.1914 58.7715C35.0493 58.7715 31.6914 62.1293 31.6914 66.2715C31.6914 70.4136 35.0493 73.7715 39.1914 73.7715Z" stroke="#00CCF5" stroke-width="3" stroke-linecap="round" stroke-linejoin="round"/>
<path d="M57.6914 43.7715L69.6914 54.7715" stroke="#00CCF5" stroke-width="3" stroke-linecap="round" stroke-linejoin="round"/>
<path d="M69.6914 43.7715L57.6914 54.7715" stroke="#00CCF5" stroke-width="3" stroke-linecap="round" stroke-linejoin="round"/>
<path d="M33.6914 48.7715C34.7753 45.3395 36.9472 42.39 39.8528 40.404C42.7585 38.4179 46.2265 37.5126 49.6914 37.8355" stroke="black" stroke-width="3" stroke-linecap="round" stroke-linejoin="round"/>
<path d="M45.6914 32.7715L49.6914 38.0363L46.3426 43.7715" stroke="black" stroke-width="3" stroke-linecap="round" stroke-linejoin="round"/>
</svg>
