<svg width="100" height="100" viewBox="0 0 100 100" fill="none" xmlns="http://www.w3.org/2000/svg">
<path d="M33.2934 65.5869C25.2871 60.2536 19.5684 50.7298 19.5684 40.0631C19.5684 23.3012 33.2934 9.58691 50.0683 9.58691C66.8433 9.58691 80.5684 23.3012 80.5684 40.0631C80.5684 50.7298 75.2308 59.8726 66.8433 65.5869" stroke="black" stroke-width="3" stroke-miterlimit="10" stroke-linecap="round" stroke-linejoin="round"/>
<path d="M50.0684 63.5869C56.4198 63.5869 61.5684 58.4384 61.5684 52.0869C61.5684 45.7355 56.4198 40.5869 50.0684 40.5869C43.7169 40.5869 38.5684 45.7355 38.5684 52.0869C38.5684 58.4384 43.7169 63.5869 50.0684 63.5869Z" stroke="#00CCF5" stroke-width="3" stroke-miterlimit="10" stroke-linecap="round" stroke-linejoin="round"/>
<path d="M37.5684 33.5869C39.8184 17.7159 49.5684 9.58691 49.5684 9.58691" stroke="black" stroke-width="3" stroke-miterlimit="10" stroke-linecap="round" stroke-linejoin="round"/>
<path d="M62.5684 33.5869C60.1309 17.7159 49.5684 9.58691 49.5684 9.58691" stroke="black" stroke-width="3" stroke-miterlimit="10" stroke-linecap="round" stroke-linejoin="round"/>
<path d="M79.5684 31.5869H69.0086H27.1907H20.5684" stroke="black" stroke-width="3" stroke-miterlimit="10" stroke-linecap="round" stroke-linejoin="round"/>
<path d="M28.5684 50.5869H21.5684" stroke="black" stroke-width="3" stroke-miterlimit="10" stroke-linecap="round" stroke-linejoin="round"/>
<path d="M78.5684 50.5869H70.5684" stroke="black" stroke-width="3" stroke-miterlimit="10" stroke-linecap="round" stroke-linejoin="round"/>
<path d="M46.5684 63.5869L38.5684 90.5869" stroke="#00CCF5" stroke-width="3" stroke-miterlimit="10" stroke-linecap="round" stroke-linejoin="round"/>
<path d="M53.5684 63.5869L61.5684 90.5869" stroke="#00CCF5" stroke-width="3" stroke-miterlimit="10" stroke-linecap="round" stroke-linejoin="round"/>
<path d="M19.5684 70.5869C3.56836 53.9831 3.56836 27.1907 19.5684 10.5869" stroke="black" stroke-width="3" stroke-miterlimit="10" stroke-linecap="round" stroke-linejoin="round"/>
<path d="M80.5684 10.5869C96.5684 27.1907 96.5684 53.9831 80.5684 70.5869" stroke="black" stroke-width="3" stroke-miterlimit="10" stroke-linecap="round" stroke-linejoin="round"/>
</svg>
