<svg width="100" height="100" viewBox="0 0 100 100" fill="none" xmlns="http://www.w3.org/2000/svg">
<path d="M36.977 46.9289C30.4025 58.9845 39.0532 71.04 50.126 71.04C58.7767 71.04 65.6973 64.1511 65.6973 55.54C65.6973 46.9289 58.7767 40.04 50.126 40.04H48.7914" stroke="#00CCF5" stroke-width="3" stroke-miterlimit="10" stroke-linecap="round" stroke-linejoin="round"/>
<path d="M53.6973 34.04L48.6973 39.3734L52.0306 46.04" stroke="#00CCF5" stroke-width="3" stroke-miterlimit="10" stroke-linecap="round" stroke-linejoin="round"/>
<path d="M49.6974 25.04C53.5635 25.04 56.6973 21.906 56.6973 18.04C56.6973 14.174 53.5635 11.04 49.6974 11.04C45.8313 11.04 42.6973 14.174 42.6973 18.04C42.6973 21.906 45.8313 25.04 49.6974 25.04Z" stroke="black" stroke-width="3" stroke-miterlimit="10" stroke-linecap="round" stroke-linejoin="round"/>
<path d="M18.1972 51.04C22.3394 51.04 25.6973 47.9059 25.6973 44.0402C25.6973 40.1741 22.3394 37.04 18.1972 37.04C14.0551 37.04 10.6973 40.1741 10.6973 44.0402C10.6973 47.9059 14.0551 51.04 18.1972 51.04Z" stroke="black" stroke-width="3" stroke-miterlimit="10" stroke-linecap="round" stroke-linejoin="round"/>
<path d="M81.6974 51.04C85.5632 51.04 88.6973 47.9059 88.6973 44.0402C88.6973 40.1741 85.5632 37.04 81.6974 37.04C77.8313 37.04 74.6973 40.1741 74.6973 44.0402C74.6973 47.9059 77.8313 51.04 81.6974 51.04Z" stroke="black" stroke-width="3" stroke-miterlimit="10" stroke-linecap="round" stroke-linejoin="round"/>
<path d="M26.6973 89.04C30.5633 89.04 33.6973 85.906 33.6973 82.0399C33.6973 78.1738 30.5633 75.04 26.6973 75.04C22.8313 75.04 19.6973 78.1738 19.6973 82.0399C19.6973 85.906 22.8313 89.04 26.6973 89.04Z" stroke="black" stroke-width="3" stroke-miterlimit="10" stroke-linecap="round" stroke-linejoin="round"/>
<path d="M72.6971 89.04C76.5632 89.04 79.6973 85.906 79.6973 82.0399C79.6973 78.1738 76.5632 75.04 72.6971 75.04C68.8313 75.04 65.6973 78.1738 65.6973 82.0399C65.6973 85.906 68.8313 89.04 72.6971 89.04Z" stroke="black" stroke-width="3" stroke-miterlimit="10" stroke-linecap="round" stroke-linejoin="round"/>
<path d="M23.5 39L43.5 22" stroke="black" stroke-width="3" stroke-miterlimit="10" stroke-linecap="round" stroke-linejoin="round"/>
<path d="M76.6973 40.04L55.6973 22.04" stroke="black" stroke-width="3" stroke-miterlimit="10" stroke-linecap="round" stroke-linejoin="round"/>
<path d="M19.6973 51.04L25.6973 75.04" stroke="black" stroke-width="3" stroke-miterlimit="10" stroke-linecap="round" stroke-linejoin="round"/>
<path d="M79.6973 51.04L74.6973 75.04" stroke="black" stroke-width="3" stroke-miterlimit="10" stroke-linecap="round" stroke-linejoin="round"/>
<path d="M33.6973 82.04H65.6973" stroke="black" stroke-width="3" stroke-miterlimit="10" stroke-linecap="round" stroke-linejoin="round"/>
</svg>
