<svg width="100" height="100" viewBox="0 0 100 100" fill="none" xmlns="http://www.w3.org/2000/svg">
<path d="M8.68945 66.3154C8.68945 72.8132 11.3234 79.0449 16.0118 83.6395C20.7002 88.2342 27.059 90.8154 33.6895 90.8154C40.3199 90.8154 46.6787 88.2342 51.3671 83.6395C56.0555 79.0449 58.6895 72.8132 58.6895 66.3154C58.6895 59.8176 56.0555 53.586 51.3671 48.9913C46.6787 44.3967 40.3199 41.8154 33.6895 41.8154C27.059 41.8154 20.7002 44.3967 16.0118 48.9913C11.3234 53.586 8.68945 59.8176 8.68945 66.3154Z" stroke="black" stroke-width="3" stroke-linecap="round" stroke-linejoin="round"/>
<path d="M10.6895 74.8154H56.6895" stroke="black" stroke-width="3" stroke-linecap="round" stroke-linejoin="round"/>
<path d="M10.6895 57.8154H56.6895" stroke="black" stroke-width="3" stroke-linecap="round" stroke-linejoin="round"/>
<path d="M28.1239 41.8154C24.4095 57.9492 24.9566 75.0718 29.6895 90.8154" stroke="black" stroke-width="3" stroke-linecap="round" stroke-linejoin="round"/>
<path d="M38.6356 41.8154C40.6675 48.8374 41.6948 56.0919 41.6894 63.3796C41.7036 72.7347 40.0114 82.0201 36.6895 90.8154" stroke="black" stroke-width="3" stroke-linecap="round" stroke-linejoin="round"/>
<path d="M50.6895 27.8154C56.2215 27.9405 61.4938 30.2986 65.4065 34.3976C69.3192 38.4965 71.57 44.0199 71.6895 49.8154" stroke="#00CCF5" stroke-width="3" stroke-linecap="round" stroke-linejoin="round"/>
<path d="M56.6895 8.81543C65.5614 9.18918 73.9723 12.8868 80.2654 19.1799C86.5585 25.4729 90.2774 33.9052 90.6895 42.8154" stroke="#00CCF5" stroke-width="3" stroke-linecap="round" stroke-linejoin="round"/>
</svg>
