<svg width="100" height="100" viewBox="0 0 100 100" fill="none" xmlns="http://www.w3.org/2000/svg">
<path d="M44 41C42.5582 38.986 40.7152 37.3182 38.5964 36.1102C36.4776 34.9023 34.1329 34.1825 31.7219 34H16" stroke="black" stroke-width="3" stroke-linecap="round" stroke-linejoin="round"/>
<path d="M84 34H68.1333C56.8 34 50 50 50 50C50 50 43.2 66 31.8667 66H16" stroke="#00CCF5" stroke-width="3" stroke-linecap="round" stroke-linejoin="round"/>
<path d="M56 59C57.442 61.0163 59.2853 62.6855 61.4042 63.8935C63.5232 65.1016 65.8678 65.8201 68.2781 66H84" stroke="black" stroke-width="3" stroke-linecap="round" stroke-linejoin="round"/>
<path d="M75 25L84 34L75 43" stroke="#00CCF5" stroke-width="3" stroke-linecap="round" stroke-linejoin="round"/>
<path d="M75 57L84 66L75 75" stroke="black" stroke-width="3" stroke-linecap="round" stroke-linejoin="round"/>
</svg>
