<svg width="88" height="100" viewBox="0 0 88 100" fill="none" xmlns="http://www.w3.org/2000/svg">
<path d="M37.9268 53.5947L26.2862 75.8489C25.637 77.2086 24.7143 78.4198 23.5758 79.4068C22.4374 80.3938 21.1075 81.1353 19.6695 81.585C18.2314 82.0348 16.7161 82.1831 15.2181 82.0206C13.7202 81.8582 12.2718 81.3885 10.9636 80.641C9.65541 79.8934 8.51545 78.8841 7.61501 77.676C6.71456 76.4679 6.07298 75.0871 5.73036 73.6198C5.38775 72.1526 5.35146 70.6304 5.62378 69.1485C5.89609 67.6665 6.47116 66.2567 7.31302 65.0071L28.426 24.493C29.1443 23.2443 30.1019 22.1495 31.2438 21.2712C32.3858 20.393 33.6897 19.7486 35.081 19.375C36.4723 19.0013 37.9237 18.9057 39.352 19.0936C40.7803 19.2815 42.1575 19.7493 43.4048 20.4702" stroke="#00CCF5" stroke-width="3" stroke-linecap="round" stroke-linejoin="round"/>
<path d="M16.786 81.4406C22.8368 81.4406 27.7419 76.5355 27.7419 70.4847C27.7419 64.4339 22.8368 59.5288 16.786 59.5288C10.7352 59.5288 5.83008 64.4339 5.83008 70.4847C5.83008 76.5355 10.7352 81.4406 16.786 81.4406Z" stroke="#00CCF5" stroke-width="3" stroke-linecap="round" stroke-linejoin="round"/>
<path d="M49.5664 75.8491C50.2734 77.1186 51.2258 78.2348 52.3683 79.1327C53.5108 80.0307 54.8205 80.6923 56.2211 81.0792C57.6218 81.4662 59.0854 81.5706 60.5268 81.3864C61.9682 81.2022 63.3586 80.7332 64.6169 80.0066C65.8753 79.2799 66.9766 78.3102 67.8566 77.1539C68.7366 75.9975 69.3778 74.6777 69.7429 73.2712C70.1079 71.8647 70.1895 70.3996 69.983 68.9613C69.7764 67.5229 69.2857 66.14 68.5396 64.8931L47.4266 24.4932C45.9049 22.144 43.5418 20.4663 40.8222 19.8044C38.1027 19.1425 35.2329 19.5466 32.8018 20.9337C30.3707 22.3208 28.5627 24.5857 27.7488 27.2637C26.9349 29.9417 27.1768 32.8297 28.4249 35.335L49.5664 75.8491Z" stroke="black" stroke-width="3" stroke-linecap="round" stroke-linejoin="round"/>
</svg>
