<svg width="100" height="100" viewBox="0 0 100 100" fill="none" xmlns="http://www.w3.org/2000/svg">
<path d="M76.293 71.8232H23.293" stroke="black" stroke-width="3" stroke-linecap="round" stroke-linejoin="round"/>
<path d="M50.293 71.8232V47.8232" stroke="black" stroke-width="3" stroke-linecap="round" stroke-linejoin="round"/>
<path d="M68.293 42.3251C68.293 43.7833 67.6927 45.1818 66.6242 46.2129C65.5558 47.244 64.1066 47.8232 62.5956 47.8232H36.8467C35.3607 47.7861 33.9485 47.1904 32.911 46.163C31.8736 45.1356 31.293 43.7578 31.293 42.3232C31.293 40.8887 31.8736 39.5109 32.911 38.4835C33.9485 37.4561 35.3607 36.8603 36.8467 36.8232H62.5956C63.3441 36.8232 64.0853 36.9656 64.7768 37.2421C65.4682 37.5187 66.0965 37.924 66.6256 38.4349C67.1547 38.9459 67.5743 39.5524 67.8604 40.2199C68.1465 40.8874 68.2935 41.6027 68.293 42.3251Z" stroke="black" stroke-width="3" stroke-linecap="round" stroke-linejoin="round"/>
<path d="M8.29297 62.8232L22.293 62.1492L20.6062 49.8232" stroke="#00CCF5" stroke-width="3" stroke-linecap="round" stroke-linejoin="round"/>
<path d="M22.293 61.8232C7.35888 58.1848 1.69503 36.5413 14.0592 27.8232" stroke="#00CCF5" stroke-width="3" stroke-linecap="round" stroke-linejoin="round"/>
<path d="M91.293 27.8232L78.293 28.4972L79.8592 40.8232" stroke="#00CCF5" stroke-width="3" stroke-linecap="round" stroke-linejoin="round"/>
<path d="M78.293 28.8232C92.2314 32.4617 97.5177 54.1052 85.9778 62.8232" stroke="#00CCF5" stroke-width="3" stroke-linecap="round" stroke-linejoin="round"/>
</svg>
