<svg width="768" height="512" viewBox="0 0 768 512" fill="none" xmlns="http://www.w3.org/2000/svg">
<path d="M545.381 120.235C554.013 123.29 563.538 123.234 572.659 122.03C581.363 120.878 590.848 118.853 598.469 123.015C607.392 127.888 610.494 139.697 619.858 143.751C630.721 148.45 643.787 138.893 645.96 127.734C648.133 116.575 642.609 105.38 636.032 95.8982C614.777 65.2931 561.903 27.4281 520.175 41.7444C498.612 49.1323 506.062 63.1433 516.135 75.1261C528.695 90.0726 523.51 112.486 545.381 120.235Z" fill="#FEDFEE"/>
<path d="M83.3446 470.676H633.436C665.502 441.019 688.309 402.695 700.938 361.882C707.082 342.026 709.206 317.302 692.733 303.76C684.433 296.931 672.886 294.476 664.681 287.544C651.057 276.037 650.568 256.161 652.587 238.937C654.605 221.712 657.838 203.061 648.786 188.016C638.218 170.434 614.922 164.385 593.848 161.497C572.774 158.608 549.816 156.528 534.223 142.736C526.497 135.906 521.449 126.858 515.666 118.469C483.962 72.4448 425.354 44.4653 367.59 47.7834C344.438 49.0962 317.447 59.1689 313.436 80.9026C311.982 88.7992 313.965 96.8796 313.814 104.894C313.663 112.909 310.42 121.909 302.602 124.898C296.169 127.363 288.972 124.964 282.253 123.369C253.749 116.621 223.222 125.145 198.233 139.832C173.243 154.519 152.688 174.933 131.719 194.508C118.65 206.707 105.026 219.047 97.3327 234.854C89.6396 250.66 89.2884 271.065 101.534 284.009C107.77 290.603 116.808 294.896 121.226 302.717C130.117 318.425 115.926 336.194 107.596 352.187C96.0625 374.305 95.9247 401.493 107.228 423.716C109.64 428.455 112.584 433.119 113.247 438.347C114.951 451.804 101.59 462.215 89.7151 469.734C92.5147 465.792 80.545 474.608 83.3446 470.676Z" fill="#FEDFEE"/>
<path d="M242.76 103.545C253.197 106.066 263.664 110.11 274.353 108.853C285.749 107.517 296.031 99.6628 299.862 89.367C303.692 79.0712 300.895 66.8128 292.917 58.9523C289.664 55.749 285.677 53.2776 281.462 51.3445C267.934 45.1315 251.875 44.4522 237.545 48.7484C223.216 53.0446 210.665 62.1162 201.771 73.6329C196.677 80.2265 192.601 88.4021 194.475 96.3972C199.089 116.076 228.329 100.06 242.76 103.545Z" fill="#FEDFEE"/>
<path d="M165.76 392.497H153.646L153.502 391.91C153.462 391.746 149.465 375.309 145.7 353.313C142.717 335.869 144.115 323.446 149.747 317.397C152.727 314.191 156.83 312.802 161.94 313.314C164.779 313.59 167.129 315.018 168.921 317.552C180.195 333.493 166.492 389.534 165.905 391.913L165.76 392.497ZM154.857 390.958H164.549C166.006 384.847 177.94 332.971 167.667 318.425C166.121 316.239 164.198 315.064 161.789 314.814C157.194 314.365 153.512 315.576 150.873 318.425C145.582 324.112 144.309 336.082 147.22 353.034C150.574 372.667 154.115 387.843 154.857 390.958Z" fill="#D179C3"/>
<path d="M220.642 409.636C219.921 409.635 219.203 409.535 218.509 409.341C210.842 407.23 204.895 394.368 204.895 384.725C204.895 373.405 203.159 354.13 191.521 352.233C189.309 351.872 187.349 352.423 185.521 353.92C175.96 361.748 174.766 391.854 174.756 392.159L174.726 392.901H163.879V392.143C163.859 390.725 163.489 357.327 175.101 348.744C185.432 341.103 197.051 339.863 210.622 344.944C219.855 348.403 227.528 357.166 231.677 368.991C235.917 381.082 235.366 393.935 230.229 402.557C226.888 408.113 223.429 409.636 220.642 409.636ZM190.254 350.559C190.761 350.561 191.267 350.602 191.767 350.684C204.531 352.778 206.434 372.9 206.434 384.709C206.434 394.653 212.618 406.121 218.906 407.854C222.464 408.839 225.913 406.718 228.883 401.739C233.787 393.508 234.292 381.145 230.196 369.47C226.258 358.246 218.729 349.604 210.058 346.358C197.011 341.468 185.866 342.646 175.987 349.968C165.947 357.389 165.415 386.268 165.415 391.335H173.259C173.499 386.468 175.229 360.353 184.556 352.702C186.142 351.337 188.161 350.579 190.254 350.562V350.559Z" fill="#D179C3"/>
<path d="M158.45 392.802L150.613 392.343L150.469 391.808C150.403 391.555 143.507 366.382 131.82 352.945C128.866 349.561 124.757 345.538 120.398 341.281C106.761 327.956 89.79 311.368 88.8218 295.988C88.5953 292.359 89.662 290.12 91.9988 289.342C98.3167 287.239 111.809 297.682 117.317 302.27C127.842 311.04 138.295 322.291 143.95 330.896C161.552 357.74 158.552 391.719 158.519 392.061L158.45 392.802ZM151.804 390.869L157.056 391.178C157.384 386.097 158.546 355.945 142.674 331.743C130.871 313.764 100.933 287.987 92.4845 290.806C91.8905 291.003 90.0886 291.604 90.3577 295.897C91.2866 310.682 108.025 327.037 121.475 340.181C125.856 344.448 129.992 348.505 132.978 351.938C143.941 364.534 150.728 387.111 151.804 390.869Z" fill="#D179C3"/>
<path d="M173.64 468.047H147.117C143.603 468.068 140.21 466.761 137.618 464.388C135.025 462.014 133.425 458.75 133.136 455.247L128.813 405.166H191.944L187.621 455.247C187.333 458.75 185.733 462.015 183.14 464.388C180.548 466.762 177.155 468.069 173.64 468.047ZM130.491 406.699L134.672 455.109C134.927 458.228 136.351 461.136 138.659 463.25C140.967 465.363 143.988 466.527 147.117 466.508H173.64C176.77 466.527 179.792 465.364 182.101 463.25C184.41 461.136 185.835 458.229 186.092 455.109L190.27 406.699H130.491Z" fill="#D179C3"/>
<path d="M220.642 409.636C219.921 409.635 219.203 409.535 218.509 409.341C210.842 407.23 204.895 394.368 204.895 384.725C204.895 383.783 204.895 382.799 204.855 381.801V381.735C205.295 373.895 204.967 367.314 203.871 362.181C201.403 350.579 192.948 346.227 186.286 344.619L183.443 343.933L186.256 343.132C193.723 341.002 201.682 341.593 210.606 344.93C219.838 348.39 227.511 357.153 231.66 368.978C235.9 381.069 235.349 393.922 230.213 402.544C226.888 408.113 223.429 409.636 220.642 409.636ZM206.395 381.778C206.421 382.763 206.434 383.767 206.434 384.712C206.434 394.657 212.618 406.124 218.906 407.857C222.464 408.842 225.913 406.722 228.883 401.743C233.787 393.511 234.292 381.148 230.196 369.474C226.258 358.249 218.729 349.607 210.058 346.361C202.574 343.559 195.81 342.751 189.482 343.936C195.961 346.158 203.077 351.071 205.367 361.846C206.5 367.107 206.841 373.826 206.395 381.778Z" fill="#D179C3"/>
<path d="M150.975 380.954C150.149 374.18 148.774 367.485 146.862 360.934C146.363 359.293 145.897 357.652 145.317 356.05C145.031 355.246 144.772 354.432 144.466 353.635L143.554 351.239C142.295 348.051 140.827 344.951 139.159 341.957L138.532 340.835L137.853 339.745C137.394 339.026 136.951 338.294 136.481 337.579C135.497 336.177 134.571 334.75 133.527 333.404C131.49 330.688 129.317 328.076 127.016 325.58C122.476 320.556 117.502 315.943 112.151 311.795C117.077 316.394 121.737 321.269 126.11 326.397C127.213 327.667 128.25 328.993 129.317 330.289C130.383 331.586 131.387 332.938 132.349 334.313C133.311 335.688 134.279 337.06 135.221 338.448C135.677 339.154 136.107 339.873 136.534 340.585L137.19 341.655L137.797 342.754C141.106 348.58 143.547 354.898 145.694 361.315C147.788 367.767 149.55 374.322 150.975 380.954Z" fill="#D179C3"/>
<path d="M158.923 323.998C158.451 329.636 158.241 335.288 158.139 340.943C158.07 343.769 158.083 346.594 158.073 349.424C158.063 352.253 158.132 355.075 158.195 357.904C158.257 360.734 158.378 363.553 158.487 366.379C158.651 369.201 158.759 372.027 158.982 374.846C159.35 380.489 159.897 386.117 160.623 391.729C160.541 386.068 160.335 380.429 160.193 374.787L159.747 357.862L159.347 340.94C159.222 335.294 159.097 329.649 158.923 323.998Z" fill="#D179C3"/>
<path d="M195.315 406.646H124.39C123.195 406.644 122.049 406.169 121.204 405.323C120.36 404.478 119.885 403.332 119.884 402.137V395.865C119.886 394.67 120.362 393.526 121.207 392.681C122.051 391.837 123.196 391.361 124.39 391.358H195.315C196.511 391.36 197.657 391.836 198.502 392.681C199.347 393.526 199.823 394.672 199.825 395.868V402.14C199.822 403.335 199.346 404.48 198.501 405.325C197.656 406.169 196.51 406.644 195.315 406.646ZM124.39 392.898C123.605 392.902 122.854 393.217 122.3 393.773C121.747 394.33 121.436 395.083 121.436 395.868V402.14C121.441 402.922 121.753 403.671 122.306 404.224C122.859 404.777 123.608 405.089 124.39 405.094H195.315C196.097 405.089 196.845 404.776 197.398 404.223C197.951 403.67 198.264 402.922 198.269 402.14V395.868C198.268 395.083 197.957 394.331 197.404 393.774C196.851 393.218 196.1 392.903 195.315 392.898H124.39Z" fill="#D179C3"/>
<path d="M186.47 343.857C189.033 343.639 191.614 343.83 194.117 344.422C196.597 344.985 198.977 345.925 201.173 347.208C201.727 347.516 202.262 347.855 202.775 348.226L203.563 348.754C203.825 348.931 204.062 349.145 204.311 349.342C204.8 349.745 205.296 350.123 205.778 350.549L207.14 351.882C207.594 352.327 208.022 352.797 208.423 353.29C208.83 353.779 209.28 354.235 209.651 354.75L210.757 356.309C210.937 356.572 211.134 356.821 211.298 357.094L211.778 357.924L212.762 359.565L213.599 361.298L214.016 362.165C214.154 362.457 214.259 362.762 214.38 363.061L215.096 364.856C215.979 367.291 216.7 369.782 217.255 372.313C217.829 374.858 218.267 377.431 218.568 380.022C218.877 382.622 219.08 385.237 219.133 387.87C219.407 385.241 219.485 382.596 219.366 379.957C219.33 379.3 219.307 378.644 219.254 377.987L219.08 376.018C219.018 375.362 218.913 374.705 218.831 374.049L218.693 373.064L218.519 372.08C218.061 369.455 217.402 366.868 216.55 364.344L215.838 362.47C215.713 362.161 215.608 361.843 215.47 361.541L215.043 360.632L214.187 358.817L213.182 357.074C210.475 352.426 206.53 348.622 201.787 346.086C199.439 344.853 196.901 344.026 194.278 343.637C191.684 343.225 189.036 343.299 186.47 343.857Z" fill="#D179C3"/>
<path d="M185.265 200.655C162.695 200.655 144.335 182.275 144.335 159.655C144.335 137.035 162.695 118.656 185.265 118.656C207.836 118.656 226.193 137.035 226.193 159.655C226.193 182.275 207.833 200.655 185.265 200.655ZM185.265 119.811C163.331 119.811 145.49 137.685 145.49 159.655C145.49 181.625 163.331 199.499 185.265 199.499C207.199 199.499 225.041 181.625 225.041 159.655C225.041 137.685 207.196 119.811 185.265 119.811Z" fill="#D179C3"/>
<path d="M185.265 201.285C162.35 201.285 143.708 182.61 143.708 159.655C143.708 136.701 162.35 118.026 185.265 118.026C208.181 118.026 226.819 136.701 226.819 159.655C226.819 182.61 208.177 201.285 185.265 201.285ZM185.265 120.441C163.679 120.441 146.117 138.033 146.117 159.655C146.117 181.278 163.679 198.873 185.265 198.873C206.851 198.873 224.41 181.281 224.41 159.655C224.41 138.03 206.851 120.451 185.265 120.451V120.441Z" fill="#D179C3"/>
<path d="M182.328 164.02C182.137 164.021 181.951 163.964 181.793 163.856C181.688 163.786 181.597 163.695 181.527 163.59C181.456 163.485 181.407 163.366 181.383 163.242C181.358 163.118 181.358 162.99 181.383 162.865C181.408 162.741 181.457 162.623 181.527 162.517L197.281 138.998C197.425 138.788 197.646 138.642 197.896 138.594C198.146 138.546 198.405 138.599 198.617 138.741C198.828 138.883 198.975 139.103 199.025 139.353C199.074 139.603 199.023 139.862 198.883 140.075L183.129 163.594C183.042 163.726 182.923 163.834 182.783 163.909C182.643 163.983 182.487 164.022 182.328 164.02Z" fill="#D179C3"/>
<path d="M205.991 185.656C205.888 185.656 205.785 185.634 205.691 185.591C205.596 185.549 205.512 185.487 205.443 185.41L179.764 156.747C179.634 156.603 179.566 156.412 179.576 156.217C179.586 156.022 179.673 155.839 179.818 155.709C179.963 155.578 180.154 155.51 180.349 155.521C180.544 155.531 180.727 155.618 180.857 155.763L206.536 184.425C206.666 184.57 206.733 184.761 206.723 184.955C206.712 185.15 206.625 185.332 206.48 185.462C206.347 185.586 206.173 185.655 205.991 185.656Z" fill="#D179C3"/>
<path d="M185.998 128.942C185.901 128.942 185.806 128.923 185.717 128.886C185.628 128.849 185.547 128.795 185.479 128.726C185.411 128.658 185.357 128.577 185.32 128.488C185.284 128.399 185.265 128.303 185.266 128.207V124.531C185.266 124.336 185.343 124.15 185.48 124.012C185.617 123.874 185.803 123.797 185.998 123.796C186.094 123.796 186.19 123.815 186.279 123.852C186.368 123.889 186.449 123.943 186.517 124.011C186.586 124.079 186.64 124.16 186.677 124.249C186.714 124.339 186.733 124.434 186.733 124.531V128.207C186.733 128.402 186.655 128.589 186.517 128.727C186.38 128.864 186.193 128.942 185.998 128.942Z" fill="#D179C3"/>
<path d="M170.191 132.69C170.024 132.783 169.828 132.807 169.644 132.757C169.46 132.706 169.303 132.586 169.206 132.421L167.372 129.241C167.275 129.072 167.249 128.871 167.3 128.683C167.35 128.495 167.473 128.334 167.641 128.236C167.808 128.144 168.004 128.121 168.188 128.171C168.372 128.221 168.529 128.341 168.625 128.505L170.46 131.686C170.508 131.769 170.54 131.862 170.552 131.957C170.565 132.053 170.559 132.15 170.534 132.244C170.509 132.337 170.465 132.424 170.407 132.501C170.348 132.578 170.275 132.642 170.191 132.69Z" fill="#D179C3"/>
<path d="M158.376 143.856C158.328 143.939 158.264 144.012 158.188 144.071C158.111 144.13 158.024 144.173 157.931 144.198C157.838 144.223 157.741 144.229 157.646 144.217C157.55 144.204 157.458 144.173 157.375 144.125L154.198 142.287C154.114 142.238 154.041 142.174 153.982 142.098C153.923 142.021 153.88 141.934 153.855 141.84C153.83 141.747 153.824 141.65 153.836 141.554C153.849 141.458 153.88 141.366 153.929 141.282C153.977 141.199 154.041 141.126 154.118 141.067C154.194 141.008 154.282 140.965 154.375 140.94C154.468 140.915 154.566 140.908 154.661 140.921C154.757 140.934 154.849 140.965 154.933 141.013L158.107 142.851C158.19 142.9 158.264 142.964 158.322 143.04C158.381 143.117 158.424 143.204 158.449 143.298C158.474 143.391 158.481 143.488 158.468 143.584C158.455 143.68 158.424 143.772 158.376 143.856Z" fill="#D179C3"/>
<path d="M153.715 159.442C153.715 159.636 153.638 159.823 153.5 159.961C153.363 160.099 153.177 160.176 152.983 160.177H149.313C149.119 160.176 148.932 160.099 148.794 159.961C148.657 159.823 148.579 159.637 148.578 159.442C148.578 159.247 148.656 159.06 148.793 158.922C148.931 158.784 149.118 158.707 149.313 158.707H152.983C153.079 158.707 153.174 158.726 153.263 158.763C153.352 158.8 153.433 158.854 153.501 158.922C153.569 158.991 153.623 159.072 153.66 159.161C153.696 159.25 153.715 159.346 153.715 159.442Z" fill="#D179C3"/>
<path d="M157.46 175.262C157.508 175.345 157.539 175.437 157.552 175.533C157.565 175.629 157.558 175.726 157.533 175.819C157.508 175.913 157.465 176 157.406 176.077C157.348 176.153 157.274 176.218 157.191 176.266L154.014 178.101C153.931 178.149 153.839 178.181 153.743 178.194C153.648 178.207 153.551 178.201 153.458 178.176C153.365 178.152 153.277 178.109 153.201 178.05C153.124 177.991 153.06 177.918 153.013 177.835C152.964 177.751 152.933 177.659 152.92 177.563C152.908 177.467 152.914 177.37 152.939 177.277C152.964 177.184 153.007 177.096 153.066 177.02C153.125 176.943 153.198 176.879 153.282 176.83L156.459 174.992C156.542 174.944 156.634 174.913 156.73 174.9C156.825 174.888 156.922 174.894 157.015 174.919C157.108 174.944 157.195 174.987 157.272 175.046C157.348 175.105 157.412 175.178 157.46 175.262Z" fill="#D179C3"/>
<path d="M168.605 187.11C168.773 187.208 168.895 187.369 168.945 187.557C168.994 187.745 168.968 187.945 168.871 188.114L167.036 191.298C166.939 191.466 166.779 191.588 166.591 191.639C166.404 191.689 166.204 191.663 166.035 191.567C165.867 191.469 165.745 191.308 165.694 191.12C165.644 190.932 165.67 190.732 165.766 190.562L167.601 187.379C167.649 187.295 167.713 187.222 167.79 187.163C167.867 187.104 167.954 187.061 168.047 187.036C168.141 187.011 168.238 187.005 168.334 187.018C168.429 187.03 168.522 187.061 168.605 187.11Z" fill="#D179C3"/>
<path d="M184.163 191.78C184.259 191.78 184.355 191.799 184.444 191.836C184.533 191.873 184.614 191.927 184.682 191.995C184.751 192.064 184.805 192.145 184.842 192.234C184.879 192.323 184.898 192.419 184.898 192.515V196.188C184.898 196.284 184.879 196.38 184.842 196.469C184.805 196.558 184.751 196.64 184.682 196.708C184.614 196.776 184.533 196.83 184.444 196.867C184.355 196.904 184.259 196.923 184.163 196.923C184.066 196.923 183.971 196.904 183.882 196.867C183.793 196.83 183.712 196.776 183.644 196.708C183.576 196.639 183.522 196.558 183.485 196.469C183.449 196.38 183.43 196.284 183.431 196.188V192.515C183.43 192.419 183.449 192.323 183.485 192.234C183.522 192.145 183.576 192.064 183.644 191.996C183.712 191.927 183.793 191.873 183.882 191.836C183.971 191.799 184.066 191.78 184.163 191.78Z" fill="#D179C3"/>
<path d="M199.969 188.029C200.053 187.981 200.145 187.949 200.24 187.937C200.336 187.924 200.433 187.931 200.526 187.956C200.619 187.981 200.706 188.024 200.782 188.082C200.858 188.141 200.922 188.214 200.97 188.298L202.805 191.481C202.853 191.565 202.885 191.657 202.897 191.753C202.91 191.849 202.903 191.946 202.878 192.039C202.853 192.133 202.81 192.22 202.751 192.297C202.693 192.373 202.619 192.437 202.536 192.486C202.367 192.582 202.167 192.608 201.98 192.558C201.792 192.507 201.632 192.385 201.535 192.217L199.7 189.033C199.652 188.949 199.62 188.857 199.608 188.761C199.595 188.666 199.602 188.568 199.627 188.475C199.652 188.382 199.695 188.294 199.754 188.218C199.812 188.141 199.886 188.077 199.969 188.029Z" fill="#D179C3"/>
<path d="M211.784 176.866C211.831 176.783 211.895 176.709 211.972 176.65C212.048 176.591 212.135 176.548 212.228 176.523C212.321 176.498 212.418 176.491 212.514 176.504C212.61 176.517 212.702 176.549 212.785 176.597L215.962 178.432C216.046 178.48 216.119 178.545 216.178 178.621C216.236 178.698 216.279 178.785 216.304 178.878C216.329 178.972 216.336 179.069 216.323 179.165C216.311 179.26 216.279 179.353 216.231 179.436C216.183 179.52 216.119 179.593 216.043 179.652C215.966 179.71 215.879 179.754 215.786 179.779C215.693 179.804 215.596 179.81 215.501 179.797C215.405 179.785 215.313 179.754 215.23 179.705L212.053 177.867C211.969 177.82 211.896 177.756 211.837 177.679C211.779 177.603 211.736 177.516 211.711 177.423C211.686 177.33 211.679 177.233 211.692 177.137C211.704 177.042 211.736 176.95 211.784 176.866Z" fill="#D179C3"/>
<path d="M216.444 161.28C216.444 161.085 216.522 160.898 216.66 160.76C216.798 160.622 216.985 160.545 217.18 160.545H220.846C221.041 160.545 221.228 160.622 221.365 160.76C221.503 160.898 221.581 161.085 221.581 161.28C221.581 161.475 221.503 161.662 221.365 161.8C221.228 161.938 221.041 162.015 220.846 162.015H217.18C216.985 162.015 216.798 161.938 216.66 161.8C216.522 161.662 216.444 161.475 216.444 161.28Z" fill="#D179C3"/>
<path d="M212.703 145.447C212.605 145.279 212.578 145.078 212.628 144.89C212.678 144.702 212.8 144.541 212.969 144.443L216.146 142.605C216.229 142.557 216.322 142.525 216.417 142.513C216.513 142.5 216.61 142.507 216.704 142.532C216.797 142.557 216.884 142.6 216.961 142.659C217.037 142.717 217.102 142.791 217.15 142.874C217.247 143.043 217.273 143.244 217.222 143.432C217.172 143.62 217.049 143.78 216.881 143.879L213.704 145.716C213.535 145.813 213.335 145.839 213.148 145.788C212.96 145.738 212.8 145.615 212.703 145.447Z" fill="#D179C3"/>
<path d="M201.557 133.609C201.473 133.561 201.4 133.496 201.341 133.42C201.283 133.343 201.24 133.256 201.215 133.163C201.19 133.069 201.183 132.972 201.196 132.876C201.208 132.781 201.24 132.688 201.288 132.605L203.123 129.424C203.171 129.341 203.235 129.268 203.311 129.209C203.387 129.15 203.474 129.107 203.567 129.082C203.66 129.057 203.757 129.051 203.853 129.063C203.948 129.076 204.04 129.107 204.124 129.155C204.207 129.204 204.281 129.268 204.339 129.344C204.398 129.421 204.441 129.508 204.466 129.602C204.491 129.695 204.498 129.792 204.485 129.888C204.472 129.984 204.441 130.076 204.393 130.16L202.558 133.34C202.51 133.423 202.446 133.497 202.37 133.555C202.294 133.614 202.206 133.657 202.113 133.682C202.02 133.707 201.923 133.714 201.828 133.701C201.733 133.689 201.64 133.657 201.557 133.609Z" fill="#D179C3"/>
<path d="M552.347 160.994C551.886 160.994 551.43 160.913 550.998 160.755L544.181 158.293C543.192 157.933 542.386 157.196 541.939 156.244C541.492 155.291 541.44 154.2 541.795 153.209L565.196 88.1953C565.371 87.7042 565.642 87.2526 565.992 86.8664C566.343 86.4801 566.766 86.1669 567.238 85.9446C567.709 85.7223 568.22 85.5953 568.741 85.571C569.262 85.5466 569.783 85.6253 570.273 85.8026L577.09 88.2642C578.08 88.6241 578.886 89.3615 579.334 90.315C579.781 91.2684 579.832 92.3602 579.476 93.3514L556.078 158.366C555.8 159.132 555.292 159.795 554.625 160.265C553.958 160.734 553.163 160.988 552.347 160.991V160.994ZM568.928 87.1056C568.426 87.1051 567.936 87.2593 567.525 87.547C567.114 87.8348 566.801 88.2422 566.63 88.7138L543.229 153.731C543.012 154.338 543.043 155.007 543.318 155.591C543.592 156.175 544.087 156.626 544.693 156.846L551.506 159.307C551.807 159.416 552.125 159.464 552.444 159.449C552.763 159.434 553.076 159.357 553.364 159.221C553.653 159.085 553.912 158.893 554.127 158.657C554.341 158.42 554.507 158.144 554.615 157.844L578.016 92.8295C578.233 92.2218 578.201 91.5527 577.927 90.9685C577.653 90.3842 577.158 89.9323 576.552 89.7116L569.738 87.25C569.478 87.157 569.204 87.1081 568.928 87.1056Z" fill="#D179C3"/>
<path d="M645.419 143.849H594.613C594.004 143.849 593.419 143.607 592.988 143.176C592.557 142.745 592.315 142.161 592.315 141.552V135.079C592.315 134.47 592.557 133.886 592.988 133.455C593.419 133.024 594.004 132.782 594.613 132.782H645.419C646.028 132.782 646.613 133.024 647.044 133.455C647.474 133.886 647.716 134.47 647.716 135.079V141.565C647.713 142.172 647.469 142.753 647.039 143.181C646.608 143.609 646.026 143.849 645.419 143.849ZM594.613 134.331C594.415 134.332 594.225 134.411 594.086 134.551C593.946 134.692 593.868 134.882 593.868 135.079V141.565C593.868 141.762 593.946 141.952 594.086 142.092C594.226 142.231 594.415 142.31 594.613 142.31H645.419C645.617 142.31 645.806 142.231 645.946 142.092C646.086 141.952 646.164 141.762 646.164 141.565V135.079C646.164 134.882 646.086 134.692 645.946 134.551C645.806 134.411 645.617 134.332 645.419 134.331H594.613Z" fill="#D179C3"/>
<path d="M645.412 161.634H588.921C588.312 161.634 587.728 161.392 587.297 160.962C586.866 160.531 586.624 159.946 586.624 159.337V144.62C586.624 144.011 586.866 143.427 587.297 142.996C587.728 142.565 588.312 142.323 588.921 142.323H645.412C646.021 142.323 646.606 142.565 647.037 142.996C647.467 143.427 647.71 144.011 647.71 144.62V159.344C647.708 159.952 647.465 160.534 647.034 160.964C646.604 161.393 646.02 161.634 645.412 161.634ZM588.921 143.869C588.722 143.869 588.53 143.948 588.389 144.089C588.247 144.23 588.167 144.421 588.167 144.62V159.344C588.167 159.543 588.247 159.734 588.389 159.875C588.53 160.016 588.722 160.095 588.921 160.095H645.412C645.611 160.094 645.802 160.015 645.943 159.874C646.083 159.733 646.163 159.543 646.164 159.344V144.62C646.163 144.421 646.083 144.231 645.943 144.09C645.802 143.949 645.611 143.87 645.412 143.869H588.921Z" fill="#D179C3"/>
<path d="M640.548 161.634H629.885C629.499 161.634 629.13 161.48 628.857 161.208C628.585 160.935 628.432 160.566 628.431 160.18V143.77C628.432 143.385 628.585 143.016 628.857 142.743C629.13 142.471 629.499 142.317 629.885 142.316H640.548C640.934 142.316 641.303 142.469 641.576 142.742C641.849 143.015 642.002 143.385 642.002 143.77V160.18C642.002 160.566 641.849 160.936 641.576 161.209C641.303 161.481 640.934 161.634 640.548 161.634ZM629.97 160.095H640.472V143.869H629.97V160.095Z" fill="#D179C3"/>
<path d="M620.225 158.461H597.005C596.605 158.46 596.221 158.3 595.938 158.018C595.655 157.735 595.496 157.351 595.495 156.951V148.28C595.496 147.88 595.655 147.496 595.938 147.213C596.221 146.93 596.605 146.771 597.005 146.77H620.225C620.626 146.771 621.009 146.93 621.292 147.213C621.575 147.496 621.734 147.88 621.735 148.28V156.951C621.735 157.351 621.576 157.735 621.293 158.018C621.01 158.302 620.626 158.461 620.225 158.461ZM597.034 156.921H620.196V148.309H597.034V156.921Z" fill="#D179C3"/>
<path d="M578.813 161.746C578.52 161.747 578.23 161.705 577.949 161.621L566.436 158.195C565.668 157.965 565.023 157.44 564.641 156.735C564.259 156.03 564.171 155.203 564.398 154.434L580.667 99.4593C580.779 99.0781 580.965 98.7229 581.215 98.4139C581.465 98.1049 581.773 97.8482 582.122 97.6586C582.471 97.4689 582.854 97.35 583.25 97.3087C583.645 97.2674 584.044 97.3045 584.425 97.4178L595.938 100.834C596.706 101.065 597.352 101.59 597.734 102.294C598.116 102.999 598.203 103.827 597.977 104.596L581.707 159.573C581.595 159.955 581.409 160.31 581.159 160.618C580.909 160.927 580.6 161.183 580.25 161.372C579.811 161.617 579.316 161.746 578.813 161.746ZM578.386 160.144C578.573 160.2 578.769 160.218 578.963 160.198C579.156 160.177 579.344 160.119 579.516 160.026C579.687 159.933 579.838 159.807 579.961 159.656C580.084 159.504 580.175 159.33 580.23 159.143L596.5 104.166C596.611 103.79 596.571 103.386 596.387 103.04C596.202 102.694 595.889 102.435 595.515 102.318L584.002 98.898C583.815 98.8427 583.619 98.8248 583.425 98.8453C583.231 98.8659 583.043 98.9245 582.872 99.0178C582.701 99.1111 582.55 99.2373 582.428 99.3891C582.306 99.5409 582.215 99.7153 582.16 99.9023L565.891 154.877C565.778 155.253 565.818 155.658 566.003 156.005C566.187 156.351 566.501 156.611 566.876 156.728L578.386 160.144Z" fill="#D179C3"/>
<path d="M579.085 152.907C578.876 152.907 578.668 152.877 578.468 152.819L571.352 150.705C570.803 150.542 570.34 150.167 570.067 149.663C569.793 149.159 569.73 148.567 569.892 148.017L579.938 114.032C580.018 113.759 580.151 113.504 580.33 113.283C580.508 113.062 580.729 112.878 580.978 112.742C581.228 112.606 581.502 112.521 581.785 112.492C582.068 112.463 582.354 112.489 582.626 112.571L589.742 114.685C590.291 114.848 590.754 115.223 591.028 115.727C591.301 116.231 591.364 116.823 591.202 117.373L581.143 151.358C581.011 151.805 580.737 152.197 580.364 152.477C579.991 152.756 579.538 152.907 579.072 152.907H579.085ZM582.039 114.022C581.934 114.02 581.831 114.046 581.74 114.097C581.668 114.136 581.604 114.189 581.552 114.252C581.5 114.316 581.461 114.389 581.438 114.468L571.382 148.454C571.335 148.612 571.353 148.783 571.432 148.928C571.511 149.073 571.644 149.181 571.802 149.228L578.918 151.342C579.076 151.389 579.247 151.371 579.393 151.292C579.539 151.214 579.648 151.08 579.695 150.922L589.752 116.936C589.799 116.777 589.781 116.606 589.702 116.461C589.623 116.315 589.49 116.206 589.331 116.158L582.216 114.045C582.154 114.028 582.09 114.02 582.026 114.022H582.039Z" fill="#D179C3"/>
<path d="M658.117 176.995H509.079C507.977 176.993 506.921 176.554 506.142 175.774C505.364 174.995 504.927 173.938 504.927 172.836V143.321C504.928 142.253 505.352 141.23 506.106 140.475C506.86 139.72 507.883 139.295 508.951 139.294H516.375C517.442 139.295 518.465 139.72 519.219 140.475C519.973 141.23 520.397 142.253 520.398 143.321V160.23H646.163V143.321C646.164 142.256 646.586 141.234 647.338 140.48C648.089 139.725 649.109 139.299 650.174 139.294H658.235C659.302 139.295 660.324 139.72 661.078 140.475C661.832 141.23 662.255 142.254 662.255 143.321V172.836C662.255 173.936 661.82 174.99 661.044 175.77C660.269 176.549 659.216 176.989 658.117 176.995ZM508.951 140.833C508.291 140.834 507.659 141.096 507.194 141.563C506.728 142.029 506.466 142.661 506.466 143.321V172.836C506.466 173.533 506.743 174.2 507.235 174.693C507.727 175.185 508.395 175.462 509.092 175.462H658.13C658.826 175.462 659.494 175.185 659.986 174.693C660.479 174.2 660.755 173.533 660.755 172.836V143.321C660.755 142.662 660.494 142.03 660.029 141.564C659.564 141.097 658.933 140.835 658.274 140.833H650.174C649.515 140.835 648.884 141.097 648.418 141.564C647.952 142.03 647.69 142.662 647.689 143.321V161.769H518.859V143.321C518.859 142.661 518.597 142.029 518.132 141.563C517.666 141.096 517.034 140.834 516.375 140.833H508.951Z" fill="#D179C3"/>
<path d="M531.489 161.398C530.933 161.397 530.385 161.264 529.891 161.011L523.241 157.614C522.41 157.187 521.781 156.449 521.493 155.56C521.205 154.672 521.28 153.705 521.702 152.871L545.864 105.393C546.073 104.98 546.362 104.613 546.713 104.312C547.065 104.011 547.472 103.782 547.912 103.638C548.352 103.495 548.816 103.44 549.277 103.476C549.739 103.513 550.188 103.64 550.6 103.851L557.253 107.248C558.085 107.674 558.713 108.413 559.001 109.302C559.289 110.191 559.213 111.157 558.789 111.99L534.646 159.472C534.437 159.885 534.148 160.252 533.796 160.553C533.444 160.854 533.036 161.082 532.595 161.224C532.238 161.34 531.865 161.399 531.489 161.398ZM549.002 105.006C548.794 105.005 548.587 105.038 548.388 105.101C548.141 105.181 547.912 105.309 547.714 105.478C547.516 105.647 547.354 105.854 547.236 106.086L523.074 153.567C522.836 154.037 522.794 154.582 522.956 155.083C523.118 155.584 523.472 156.001 523.94 156.242L530.593 159.636C530.825 159.756 531.078 159.828 531.337 159.849C531.597 159.871 531.859 159.84 532.107 159.759C532.355 159.679 532.584 159.55 532.782 159.38C532.979 159.21 533.141 159.002 533.258 158.769L557.417 111.288C557.656 110.819 557.699 110.274 557.536 109.773C557.374 109.272 557.019 108.856 556.551 108.616L549.901 105.219C549.623 105.078 549.315 105.005 549.002 105.006Z" fill="#D179C3"/>
<path d="M551.887 125.555L538.962 118.955L541.099 114.757L554.01 121.357L551.887 125.555ZM541.03 118.285L551.204 123.484L551.946 122.03L541.771 116.828L541.03 118.285Z" fill="#D179C3"/>
<path d="M536.642 155.513L523.717 148.913L525.853 144.715L538.778 151.303L536.642 155.513ZM525.785 148.24L535.959 153.442L536.701 151.988L526.526 146.786L525.785 148.24Z" fill="#D179C3"/>
<path d="M386.501 120.921C386.172 121.692 384.567 146.097 383.09 153.127C381.614 160.158 361.531 176.522 370.034 193.68C373.645 200.953 383.163 200.953 383.163 200.953L407.932 158.09L406.518 102.449L386.501 120.921Z" fill="black"/>
<path d="M396.143 147.016C396.143 147.016 396.859 165.366 391.421 172.849C382.533 185.068 392.809 196.181 392.809 196.181L412.593 152.53L396.143 147.016Z" fill="black"/>
<path d="M411.898 99.3838C411.898 99.3838 411.668 97.897 416.634 97.4146C429.644 96.1214 452.815 104.783 452.707 133.218C452.628 153.895 442.362 168.901 436.234 177.585C430.106 186.27 402.291 173.41 402.291 173.41L403.932 144.857C403.932 144.857 415.971 128.118 415.971 117.858C415.914 111.484 414.527 105.191 411.898 99.3838Z" fill="black"/>
<path d="M441.964 180.483C442.061 180.483 442.157 180.457 442.241 180.408C442.325 180.359 442.395 180.289 442.443 180.204L442.496 180.106C444.258 176.945 450.209 165.586 452.814 152.123C454.436 143.754 454.475 136.087 452.929 129.329C451.113 121.098 446.525 113.741 439.932 108.488C436.217 105.475 433.431 104.199 431.649 104.694C431.359 104.764 431.09 104.901 430.862 105.093C430.634 105.285 430.454 105.527 430.336 105.8C430.285 105.936 430.29 106.086 430.349 106.217C430.409 106.349 430.519 106.452 430.654 106.503C430.789 106.553 430.939 106.549 431.071 106.489C431.203 106.429 431.306 106.32 431.356 106.184C431.425 106.065 431.52 105.962 431.633 105.885C431.747 105.807 431.877 105.756 432.013 105.735C432.82 105.538 434.839 105.735 439.273 109.345C451.167 118.991 455.371 133.304 451.767 151.926C449.194 165.228 443.313 176.459 441.57 179.584L441.514 179.686C441.479 179.748 441.457 179.817 441.448 179.889C441.44 179.96 441.446 180.032 441.466 180.101C441.486 180.17 441.519 180.235 441.564 180.291C441.609 180.347 441.665 180.393 441.728 180.427C441.801 180.464 441.882 180.483 441.964 180.483Z" fill="black"/>
<path d="M368.466 180.903C368.559 180.904 368.65 180.881 368.732 180.838C368.867 180.767 368.97 180.646 369.016 180.5C369.063 180.354 369.05 180.196 368.981 180.06C368.958 180.017 366.848 175.793 368.981 171.645C370.143 169.383 372.871 168.363 376.32 167.079C379.208 166.003 382.484 164.782 385.575 162.507C392.445 157.456 392.947 136.579 392.963 135.7C392.965 135.624 392.952 135.548 392.924 135.477C392.896 135.406 392.855 135.341 392.802 135.286C392.749 135.231 392.686 135.187 392.617 135.157C392.547 135.126 392.472 135.11 392.395 135.109C392.244 135.109 392.098 135.168 391.989 135.274C391.881 135.38 391.818 135.525 391.815 135.677C391.815 135.887 391.309 156.859 384.899 161.575C381.945 163.751 378.745 164.943 375.926 165.993C372.385 167.306 369.329 168.455 367.961 171.116C365.548 175.806 367.862 180.395 367.961 180.588C368.008 180.682 368.08 180.76 368.17 180.816C368.259 180.871 368.361 180.902 368.466 180.903Z" fill="black"/>
<path d="M432.003 167.884C431.872 164.273 432.177 159.449 433.149 153.114C439.25 113.211 427.241 105.416 425.416 106.302C425.127 105.39 419.692 100.021 419.692 100.021C419.692 100.021 420.982 97.9036 424.819 97.3949C434.872 96.1018 452.779 104.763 452.693 133.199C452.644 149.484 447.718 162.242 443.313 171.169C439.478 170.313 435.701 169.215 432.003 167.884Z" fill="black"/>
<path d="M276.188 383.117L282.144 414.064C282.144 414.064 309.825 414.809 309.385 413.345C308.946 411.881 308.23 402.573 308.23 402.573C308.23 402.573 310.57 384.522 310.495 383.117C310.419 381.712 276.188 383.117 276.188 383.117Z" fill="#F6AD83"/>
<path d="M428.583 312.865H414.91V405.655H428.583V312.865Z" fill="black"/>
<path d="M405.35 186.926C405.35 186.926 427.126 151.188 443.152 150.846C459.179 150.505 466.127 149.983 472.205 159.948C478.283 169.912 487.476 185.219 493.614 188.967C499.751 192.716 489.82 305.037 484.047 324.099C478.273 343.161 479.156 336.351 424.5 337.372C369.844 338.393 361.268 339.574 361.124 329.623C360.98 319.672 369.103 286.412 369.103 286.412C369.103 286.412 403.344 199.519 405.35 186.926Z" fill="black"/>
<path d="M406.163 164.857C406.163 164.857 392.448 168.287 383.744 176.975C375.04 185.662 357.189 216.615 357.189 216.615L333.601 244.378L383.744 251.271L406.163 164.857Z" fill="#FA9E0F"/>
<path d="M383.888 251.471L333.227 244.513L357.041 216.481C357.199 216.199 374.984 185.449 383.626 176.84C392.267 168.231 405.996 164.697 406.134 164.67L406.446 164.592L406.367 164.92L383.888 251.471ZM333.975 244.227L383.6 251.044L405.894 165.13C403.794 165.707 391.719 169.288 383.878 177.113C375.293 185.685 357.533 216.392 357.353 216.701L333.975 244.227Z" fill="black"/>
<path d="M356.782 324.838L378.824 261.425C389.11 234.726 404.047 195.128 405.35 186.923C405.35 186.923 425.581 153.728 441.39 151.02C441.367 152.005 441.485 152.858 441.932 153.108C443.117 153.764 447.816 153.108 452.516 159.816C455.47 164.034 455.913 167.513 455.913 167.513C455.913 167.513 466.088 170.007 470.797 176.19C475.169 181.927 479.826 190.999 476.433 215.247C475.094 224.82 473.656 230.938 472.57 234.64C471.537 238.152 471.239 241.839 471.693 245.471C473.502 260.014 476.193 297.771 454.482 321.401C442.332 334.635 356.782 324.838 356.782 324.838Z" fill="#CBC5C7"/>
<path d="M383.744 251.257L378.539 250.112C378.05 238.228 375.385 196.907 390.026 171.999C397.828 166.958 406.171 164.874 406.171 164.874L383.751 251.274L383.744 251.257Z" fill="black"/>
<path d="M458.329 291.305C458.557 291.404 458.805 291.451 459.054 291.443C459.303 291.434 459.547 291.371 459.769 291.258C459.991 291.144 460.184 290.983 460.337 290.786C460.489 290.589 460.596 290.36 460.649 290.117C462.221 283.034 467.361 258.429 467.361 239.685C467.361 217.561 473.84 182.935 462.766 174.891C451.692 166.846 407.106 158.09 393.252 174.891C379.399 191.692 383.153 257.385 383.153 257.385C383.153 257.385 426.427 277.681 458.329 291.305Z" fill="#FA9E0F"/>
<path d="M458.998 291.636C458.742 291.636 458.489 291.583 458.253 291.482C426.716 278.026 383.495 257.762 383.061 257.559L382.956 257.51V257.395C382.956 257.231 382.027 240.752 382.812 222.431C383.869 197.816 387.328 181.77 393.101 174.769C401.306 164.828 419.147 164.618 429.059 165.379C442.404 166.403 456.957 170.427 462.864 174.733C471.112 180.723 469.757 200.858 468.444 220.334C467.978 227.292 467.535 233.866 467.535 239.698C467.535 258.435 462.398 283.067 460.823 290.173C460.763 290.444 460.643 290.698 460.473 290.917C460.303 291.136 460.086 291.314 459.838 291.44C459.578 291.571 459.29 291.638 458.998 291.636ZM383.344 257.26C385.739 258.379 427.651 277.983 458.42 291.128C458.624 291.215 458.844 291.257 459.065 291.249C459.286 291.242 459.503 291.186 459.7 291.085C459.897 290.985 460.069 290.842 460.203 290.667C460.338 290.492 460.432 290.29 460.478 290.074C462.05 282.982 467.184 258.383 467.184 239.685C467.184 233.853 467.627 227.272 468.093 220.321C469.405 200.957 470.738 180.936 462.661 175.058C456.776 170.791 442.312 166.797 429.04 165.776C419.193 165.021 401.49 165.222 393.406 175.025C380.016 191.235 383.163 254.152 383.344 257.26Z" fill="black"/>
<path d="M444.259 244.368L382.688 235.723C382.707 231.864 382.789 229.74 382.96 225.447C387.922 225.119 402.761 225.447 411.822 226.911C418.699 228.068 425.45 229.878 431.984 232.317C431.984 232.317 430.582 221.138 432.992 202.585C435.401 184.031 439.483 178.317 450.311 171.609C450.947 171.14 451.532 170.604 452.054 170.01C456.685 171.51 460.449 173.214 462.756 174.891C467.246 178.15 468.854 185.774 469.176 195.164L444.259 244.368Z" fill="black"/>
<path d="M310.745 416.459C310.745 416.459 314.21 414.973 315.707 418.757C317.204 422.541 314.873 427.779 293.632 433.51C272.39 439.24 261.704 432.197 261.704 432.197L295.181 417.001L310.745 416.459Z" fill="black"/>
<path d="M310.154 392.182C309.911 397.762 309.261 395.963 310.929 408.313C312.045 416.584 315.008 421.547 309.944 423.759C304.88 425.971 271.268 437.399 261.002 434.957C250.736 432.515 254.733 411.297 269.969 410.775C285.204 410.253 282.824 395.261 282.824 395.261L310.154 392.182Z" fill="white"/>
<path d="M264.487 435.482C263.301 435.508 262.117 435.398 260.956 435.154C256.929 434.196 254.664 430.185 255.189 424.934C255.879 418.042 261.176 410.893 269.959 410.591C274.396 410.44 277.75 409.029 279.926 406.394C283.618 401.92 282.64 395.366 282.63 395.3L282.601 395.103L310.338 391.979V392.202C310.282 393.472 310.21 394.345 310.141 395.116C309.921 397.706 309.812 398.776 311.125 408.297C311.411 410.407 311.818 412.311 312.179 413.995C313.242 418.957 313.941 422.236 310.039 423.946C304.857 426.197 277.225 435.482 264.487 435.482ZM283.041 395.441C283.175 396.593 283.664 402.475 280.228 406.636C277.98 409.36 274.53 410.821 269.975 410.975C261.409 411.271 256.246 418.238 255.573 424.973C255.068 430.018 257.214 433.868 261.044 434.78C271.068 437.166 304.167 426.089 309.865 423.591C313.475 422.01 312.842 419.023 311.782 414.074C311.421 412.387 311.014 410.463 310.725 408.346C309.435 398.786 309.527 397.703 309.74 395.084C309.803 394.365 309.872 393.551 309.924 392.409L283.041 395.441Z" fill="black"/>
<path d="M293.632 433.516C293.632 433.516 290.633 423.26 283.737 416.423C276.841 409.587 275.174 409.203 263.346 411.572C251.517 413.942 244.871 426.9 247.126 432.01C249.984 438.482 256.542 445.542 293.632 433.516Z" fill="#6C47EF"/>
<path d="M262.318 440.241C260.71 440.251 259.103 440.134 257.513 439.89C250.762 438.8 248.386 435.335 246.951 432.085C246.006 429.945 246.541 426.545 248.389 422.994C251.523 416.958 257.1 412.62 263.309 411.382C275.217 409.009 276.946 409.413 283.871 416.286C290.724 423.079 293.786 433.352 293.816 433.46L293.868 433.641L293.691 433.697C280.176 438.082 269.837 440.241 262.318 440.241ZM272.696 410.44C270.398 410.44 267.53 410.936 263.385 411.753C257.29 412.967 251.812 417.234 248.73 423.165C246.965 426.562 246.416 429.919 247.303 431.925C248.694 435.079 251.005 438.443 257.575 439.503C265.16 440.727 276.877 438.725 293.392 433.385C292.956 431.99 289.887 422.784 283.602 416.555C279.142 412.14 276.94 410.44 272.696 410.44Z" fill="black"/>
<path d="M375.263 321.034C375.263 321.034 312.596 305.536 309.169 305.392C305.743 305.247 311.263 396.984 311.263 396.984C306.353 399.81 300.975 401.732 295.385 402.659L278.584 405.448C278.584 405.448 248.287 286.933 263.434 276.792C278.581 266.65 401.671 260.979 405.419 261.993C409.167 263.007 465.156 318.572 375.263 321.034Z" fill="#6C47EF"/>
<path d="M278.439 405.661L278.397 405.488C278.321 405.192 270.756 375.499 265.141 344.953C257.592 303.869 256.975 280.881 263.329 276.631C271.839 270.933 314.201 266.909 338.685 265.019C372.162 262.433 403.574 261.294 405.468 261.806C406.735 262.134 412.508 267.484 417.392 274.183C421.954 280.438 427.169 289.736 426.129 298.503C425.361 304.945 421.304 310.114 414.06 313.859C405.527 318.274 392.484 320.752 375.27 321.221H375.244H375.217C374.59 321.067 312.53 305.726 309.163 305.585C308.585 305.703 307.427 310.41 309.137 351.439C310.078 373.986 311.434 396.731 311.457 396.971V397.092L311.352 397.151C306.422 399.991 301.021 401.921 295.408 402.849L278.439 405.661ZM402.632 262.068C393.978 262.068 366.645 263.247 338.718 265.403C314.263 267.29 271.98 271.311 263.559 276.953C248.96 286.72 277.442 400.089 278.741 405.222L295.368 402.465C300.896 401.556 306.217 399.666 311.079 396.885C310.778 391.854 305.828 308.447 308.871 305.349C308.912 305.303 308.963 305.267 309.02 305.243C309.076 305.219 309.137 305.207 309.199 305.208C312.593 305.352 372.398 320.131 375.306 320.85C392.448 320.381 405.435 317.919 413.906 313.534C421.025 309.852 425.016 304.781 425.764 298.473C427.733 281.8 407.207 262.699 405.386 262.193C404.472 262.084 403.552 262.045 402.632 262.075V262.068Z" fill="black"/>
<path d="M305.037 290.012C313.153 291.725 327.302 294.758 341.139 297.948C359.798 302.247 413.532 294.708 425.816 292.89C425.816 292.966 425.839 293.048 425.852 293.126C427.743 306.717 417.956 319.862 375.266 321.024C375.266 321.024 312.599 305.526 309.172 305.382C305.746 305.237 311.266 396.974 311.266 396.974C309.182 398.757 306.696 400.007 304.023 400.617L301.706 401.149C300.268 388.575 299.526 368.02 297.738 350.297C295.726 330.371 296.845 307.033 297.626 295.601C297.687 294.723 297.936 293.869 298.356 293.096C298.775 292.322 299.356 291.648 300.058 291.118C300.761 290.588 301.569 290.216 302.427 290.025C303.286 289.834 304.176 289.829 305.037 290.012Z" fill="black"/>
<path d="M363.917 408.55C363.917 408.55 357.622 418.012 355.541 422.964C345.839 446.067 332.567 426.247 333.006 426.266L324.352 419.42C324.352 419.42 330.82 410.942 332.383 401.861C333.945 392.779 363.917 408.55 363.917 408.55Z" fill="#F6AD83"/>
<path d="M351.127 446.878C351.127 446.878 355.552 445.65 356.74 450.465C357.928 455.28 354.265 461.217 327.7 464.673C301.135 468.129 289.379 457.879 289.379 457.879L332.279 444.994L351.127 446.878Z" fill="black"/>
<path d="M359.775 415.271C359.775 415.271 352.433 426.834 352.433 436.933C352.433 447.032 355.18 453.451 348.767 455.286C342.354 457.121 300.216 465.375 288.309 460.8C276.401 456.225 284.62 431.436 302.966 433.273C321.313 435.111 328.307 409.525 328.307 409.525L359.775 415.271Z" fill="white"/>
<path d="M299.323 462.333C294.666 462.333 290.76 461.939 288.24 460.967C283.586 459.175 281.531 454.019 282.988 447.839C284.928 439.7 292.414 432.01 302.966 433.07C320.935 434.872 328.035 409.718 328.103 409.465L328.149 409.295L328.323 409.324L360.074 415.137L359.92 415.376C359.847 415.491 352.607 427.011 352.607 436.933C352.607 439.509 352.788 441.856 352.935 443.933C353.405 450.032 353.713 454.062 348.79 455.47C343.129 457.098 316.282 462.333 299.323 462.333ZM301.05 433.355C291.719 433.355 285.161 440.445 283.379 447.924C281.955 453.911 283.917 458.89 288.378 460.61C300.009 465.09 341.481 457.167 348.715 455.099C353.336 453.786 353.05 450.081 352.581 443.96C352.42 441.879 352.253 439.522 352.253 436.93C352.253 427.697 358.43 417.129 359.473 415.409L328.451 409.731C327.1 414.123 325.158 418.311 322.678 422.18C317.342 430.31 310.535 434.212 302.956 433.451C302.323 433.386 301.686 433.355 301.05 433.355Z" fill="black"/>
<path d="M327.699 464.673C327.699 464.673 325.73 451.807 318.539 442.437C311.348 433.067 309.376 432.341 294.721 433.247C280.067 434.153 269.925 448.735 271.819 455.27C274.215 463.56 280.979 473.147 327.699 464.673Z" fill="#6C47EF"/>
<path d="M297.485 468.172C291.663 468.172 286.884 467.597 283.084 466.445C275.131 464.036 272.834 459.477 271.633 455.335C270.845 452.611 272.046 448.607 274.842 444.633C279.601 437.872 287.029 433.549 294.709 433.067C309.445 432.144 311.447 432.922 318.691 442.319C325.849 451.62 327.88 464.515 327.88 464.637L327.907 464.824L327.723 464.857C315.556 467.072 305.526 468.172 297.485 468.172ZM302.133 433.149C300.085 433.149 297.666 433.267 294.732 433.451C287.183 433.923 279.851 438.187 275.158 444.856C272.466 448.679 271.258 452.654 272.004 455.23C273.172 459.271 275.417 463.721 283.195 466.061C292.162 468.782 306.649 468.27 327.477 464.506C327.204 462.897 325.015 451.157 318.385 442.539C312.632 435.075 310.351 433.149 302.133 433.149Z" fill="black"/>
<path d="M452.017 176.715C429.171 183.864 428.593 184.146 419.285 187.267C413.972 189.049 410.424 189.991 410.424 189.991C410.424 189.991 413.85 182.065 414.69 181.786C415.347 181.56 435.463 173.049 444.249 167.893C447.714 168.667 451.128 169.654 454.472 170.847C454.564 173.191 454.17 176.043 452.017 176.715Z" fill="black"/>
<path d="M399.849 179.098C398.819 177.162 395.064 176.177 394.142 173.89C395.078 172.914 396.109 172.034 397.22 171.264C397.368 171.425 397.456 171.54 397.456 171.54C397.456 171.54 406.22 179.299 407.125 184.13C408.031 188.961 410.407 189.982 410.407 189.982C410.407 189.982 407.46 193.385 399.849 179.098Z" fill="black"/>
<path d="M465.654 262C465.654 262 468.188 312.835 447.816 321.034C427.445 329.232 388.359 305.392 388.359 305.392C388.359 305.392 382.349 346.089 375.385 375.772C368.42 405.455 359.385 416.039 359.385 416.039L327.447 412.193C327.447 412.193 347.117 279.191 356.198 274.491C365.279 269.791 465.654 262 465.654 262Z" fill="#6C47EF"/>
<path d="M359.47 416.243H359.368L327.221 412.36L327.25 412.163C328.054 406.728 347.038 279.011 356.106 274.317C365.119 269.65 461.526 262.121 465.625 261.803H465.822V262C466.126 270.846 465.698 279.703 464.542 288.479C462.789 301.059 458.473 316.954 447.866 321.224C437.258 325.494 421.609 320.991 410.355 316.475C402.814 313.42 395.505 309.823 388.483 305.713C387.932 309.406 382.133 347.776 375.549 375.824C368.657 405.209 359.605 416.069 359.513 416.174L359.47 416.243ZM327.674 412.026L359.309 415.836C360.133 414.805 368.637 403.692 375.198 375.726C382.09 346.398 388.106 305.769 388.168 305.362L388.211 305.077L388.457 305.228C388.848 305.464 427.697 328.924 447.744 320.857C458.181 316.656 462.445 300.899 464.181 288.42C465.325 279.732 465.757 270.965 465.471 262.206C460.446 262.6 365.04 270.133 356.293 274.678C347.546 279.224 328.534 406.21 327.674 412.026Z" fill="black"/>
<path d="M352.079 415.271C354.616 407.883 359.493 394.204 366.192 372.605C374.164 346.867 382.694 292.523 382.694 292.523C382.694 292.523 430.241 318.027 443.645 307.774C454.614 299.379 455.848 275.459 453.163 263.024C460.807 262.387 465.635 262.013 465.635 262.013C465.635 262.013 468.169 312.848 447.797 321.047C427.425 329.246 388.339 305.405 388.339 305.405C388.339 305.405 382.33 346.102 375.365 375.785C368.401 405.468 359.385 416.039 359.385 416.039L352.079 415.271Z" fill="black"/>
<path d="M405.419 262C405.419 262 454.085 276.798 455.634 274.744C457.183 272.689 462.947 208.775 462.947 208.775L468.615 214.8C468.063 223.518 466.744 232.317 467.345 239.675C469.225 262.827 463.715 292.516 463.715 292.516C450.39 286.855 431.288 279.493 417.648 273.296L405.419 262Z" fill="black"/>
<path d="M410.421 189.991C416.311 187.185 422.343 184.685 428.492 182.502C439.188 178.787 449.119 177.579 450.311 171.609C451.837 163.998 450.859 156.682 432.43 153.679C414.001 150.676 393.104 160.292 392.688 165.494C392.008 174.001 396.134 171.73 401.549 179.108C403.722 182.055 405.304 188.665 410.421 189.991Z" fill="#FA9E0F"/>
<path d="M410.44 190.195L410.371 190.175C406.61 189.191 404.699 185.403 403.15 182.351C402.649 181.256 402.062 180.203 401.394 179.2C399.907 177.178 398.108 175.406 396.064 173.949C393.57 172.045 392.064 170.9 392.497 165.481C392.585 164.355 393.577 163.02 395.355 161.628C401.391 156.895 417.362 151.043 432.459 153.502C441.173 154.923 446.657 157.407 449.217 161.106C451.538 164.46 451.186 168.327 450.5 171.661C449.565 176.322 443.533 178.117 435.895 180.388C433.526 181.09 431.077 181.819 428.553 182.686C422.413 184.87 416.388 187.366 410.502 190.165L410.44 190.195ZM425.025 153.292C412.491 153.292 400.587 157.991 395.579 161.917C393.885 163.23 392.953 164.48 392.868 165.497C392.451 170.706 393.813 171.733 396.284 173.627C398.369 175.113 400.205 176.921 401.723 178.983C402.404 180 403.005 181.068 403.521 182.177C405.09 185.295 406.866 188.83 410.414 189.785C416.291 186.992 422.307 184.5 428.439 182.321C430.972 181.442 433.427 180.71 435.8 180.004C443.313 177.772 449.257 176.007 450.136 171.573C450.793 168.313 451.154 164.546 448.912 161.31C446.414 157.699 441.035 155.271 432.41 153.869C429.968 153.477 427.498 153.283 425.025 153.292Z" fill="black"/>
<path d="M412.666 181.33C412.666 181.33 397.644 169.262 398.753 165.15C400.394 159.058 406.328 158.73 414.835 156.925C423.342 155.12 439.26 155.51 441.804 160.036C444.347 164.562 414.477 178.235 412.666 181.33Z" fill="black"/>
<path d="M412.718 181.619L412.544 181.478C411.927 180.982 397.446 169.285 398.569 165.1C400.033 159.668 404.906 158.707 411.654 157.371C412.639 157.174 413.693 156.967 414.779 156.738C423.696 154.844 439.394 155.366 441.954 159.944C443.651 162.964 432.784 169.219 423.194 174.736C417.979 177.736 413.473 180.316 412.833 181.425L412.718 181.619ZM425.705 156.104C422.07 156.08 418.442 156.417 414.874 157.112C413.788 157.345 412.744 157.552 411.746 157.748C404.887 159.104 400.358 160 398.946 165.199C397.942 168.921 411.028 179.738 412.632 181.048C413.617 179.801 417.795 177.401 423.007 174.402C431.504 169.515 443.136 162.823 441.626 160.131C440.051 157.335 432.925 156.104 425.705 156.104Z" fill="black"/>
<path d="M403.919 272.899H299.412C298.436 272.898 297.5 272.51 296.81 271.82C296.12 271.129 295.732 270.193 295.732 269.217C295.732 268.733 295.827 268.255 296.012 267.808C296.196 267.361 296.467 266.955 296.809 266.613C297.151 266.271 297.556 266 298.003 265.815C298.449 265.63 298.928 265.534 299.412 265.534H403.919C404.895 265.534 405.832 265.922 406.523 266.613C407.213 267.304 407.601 268.24 407.601 269.217C407.601 270.194 407.213 271.13 406.523 271.821C405.832 272.511 404.895 272.899 403.919 272.899Z" fill="#060A09"/>
<path d="M399.888 230.538C399.888 230.538 395.743 225.615 379.451 225.989C363.159 226.363 357.188 234.338 357.188 234.338L360.858 244.375C360.858 244.375 372.772 244.375 384.292 246.453C396.425 248.632 399.888 230.538 399.888 230.538Z" fill="white"/>
<path d="M386.265 246.81C385.592 246.808 384.921 246.747 384.26 246.626C372.887 244.575 360.977 244.552 360.855 244.552H360.724L356.973 234.292L357.035 234.207C357.094 234.128 363.248 226.16 379.445 225.789C395.642 225.418 399.866 230.2 400.036 230.403L400.096 230.472V230.564C400.046 230.745 396.84 246.81 386.265 246.81ZM360.993 244.185C362.342 244.185 373.573 244.326 384.325 246.262C395.678 248.31 399.383 232.015 399.682 230.603C399.108 230.029 394.401 225.844 379.455 226.189C364.331 226.537 358.092 233.544 357.406 234.375L360.993 244.185Z" fill="black"/>
<path d="M359.628 241.008C363.645 240.374 372.474 239.179 379.56 239.636C389.052 240.243 391.145 243.856 391.145 243.856L390.551 245.639C388.61 246.587 386.411 246.871 384.293 246.446C372.773 244.368 360.859 244.368 360.859 244.368L359.628 241.008Z" fill="white"/>
<path d="M386.272 246.81C385.597 246.808 384.924 246.747 384.26 246.626C372.887 244.575 360.977 244.552 360.859 244.552H360.724L359.365 240.843L359.598 240.807C364.068 240.102 372.612 238.986 379.573 239.432C389.055 240.039 391.224 243.597 391.309 243.748L391.355 243.824L390.699 245.767L390.627 245.803C389.272 246.469 387.782 246.814 386.272 246.81ZM361 244.185C362.352 244.185 373.58 244.326 384.335 246.262C386.385 246.669 388.512 246.404 390.4 245.507L390.939 243.892C390.584 243.397 388.08 240.381 379.556 239.833C372.743 239.396 364.41 240.463 359.897 241.168L361 244.185Z" fill="black"/>
<path d="M383.744 246.013L390.535 226.511C390.535 226.511 423.788 231.204 435.456 237.808C435.107 229.037 435.515 220.252 436.674 211.551C438.587 197.471 440.94 175.225 454.482 174.878C468.024 174.53 472.888 183.568 472.018 211.203C471.148 238.838 456.921 257.785 453.215 261.261C449.51 264.737 400.286 255.084 383.744 246.013Z" fill="#FA9E0F"/>
<path d="M449.034 262.19C443.294 262.19 432.998 260.582 423.253 258.537C409.879 255.728 392.451 251.008 383.652 246.18L383.508 246.101L390.4 226.297L390.558 226.32C390.886 226.366 423.414 231.014 435.243 237.479C434.934 228.817 435.348 220.145 436.48 211.551L436.736 209.651C438.581 195.866 441.374 175.048 454.459 174.71C459.642 174.582 463.321 175.793 466.051 178.537C470.925 183.437 472.76 193.218 472.192 211.236C471.319 239.035 457.095 257.897 453.33 261.425C452.772 261.954 451.236 262.19 449.034 262.19ZM383.98 245.921C392.786 250.7 410.056 255.373 423.332 258.16C439.168 261.488 451.404 262.709 453.081 261.133C456.819 257.628 470.955 238.878 471.825 211.21C472.382 193.546 470.512 183.549 465.795 178.796C463.147 176.131 459.56 174.947 454.485 175.084C441.715 175.413 438.948 196.037 437.12 209.687L436.864 211.591C435.715 220.276 435.308 229.043 435.646 237.798L435.666 238.149L435.361 237.978C424.268 231.696 393.154 227.085 390.663 226.724L383.98 245.921Z" fill="black"/>
<path d="M403.168 178.087C402.055 179.377 401.756 180.94 402.511 181.583C403.266 182.226 404.763 181.698 405.875 180.408C406.988 179.118 407.287 177.556 406.532 176.916C405.777 176.276 404.28 176.801 403.168 178.087Z" fill="black"/>
<path d="M368.791 272.899H269.485C265.678 272.899 262.153 269.814 261.609 266.007L253.613 209.228C253.078 205.427 255.734 202.335 259.544 202.335H358.846C362.656 202.335 366.178 205.42 366.723 209.228L374.718 266.007C375.253 269.814 372.598 272.899 368.791 272.899Z" fill="#060A09"/>
<path d="M419.325 180.437C420.264 182.078 420.267 183.818 419.325 184.376C418.383 184.934 416.864 184.048 415.925 182.407C414.986 180.766 414.983 179.026 415.925 178.488C416.867 177.95 418.383 178.813 419.325 180.437Z" fill="black"/>
<path d="M418.508 230.538C418.694 230.538 418.875 230.477 419.023 230.365C419.171 230.252 419.278 230.094 419.328 229.914C419.781 228.156 420.083 226.361 420.231 224.551C420.316 223.459 420.126 221.388 419.856 218.519C419.377 213.389 418.655 205.634 418.954 197.051C419.417 183.739 418.471 180.434 418.432 180.313C418.4 180.205 418.347 180.104 418.277 180.017C418.206 179.93 418.119 179.857 418.02 179.804C417.921 179.75 417.813 179.716 417.701 179.705C417.589 179.693 417.476 179.703 417.369 179.735C417.261 179.767 417.161 179.82 417.073 179.89C416.986 179.961 416.913 180.048 416.86 180.147C416.806 180.246 416.772 180.354 416.761 180.466C416.749 180.578 416.759 180.691 416.791 180.798C416.811 180.864 417.69 184.208 417.244 197.005C416.942 205.696 417.671 213.517 418.153 218.693C418.403 221.368 418.599 223.481 418.524 224.43C418.384 226.131 418.102 227.817 417.68 229.471C417.65 229.579 417.641 229.692 417.655 229.803C417.668 229.914 417.704 230.021 417.759 230.119C417.814 230.216 417.888 230.301 417.977 230.37C418.065 230.439 418.166 230.489 418.275 230.518C418.351 230.537 418.429 230.543 418.508 230.538Z" fill="#F5F5F5"/>
<path d="M418.507 230.728C418.413 230.728 418.319 230.715 418.228 230.689C418.096 230.652 417.972 230.59 417.864 230.506C417.756 230.421 417.665 230.316 417.598 230.197C417.53 230.078 417.486 229.947 417.469 229.811C417.452 229.675 417.462 229.537 417.5 229.406C417.92 227.763 418.2 226.087 418.337 224.397C418.412 223.468 418.215 221.361 417.966 218.693C417.483 213.507 416.755 205.68 417.057 196.982C417.503 184.222 416.62 180.864 416.613 180.835C416.537 180.57 416.568 180.287 416.699 180.045C416.831 179.804 417.052 179.624 417.316 179.545C417.448 179.503 417.586 179.488 417.724 179.501C417.862 179.514 417.996 179.553 418.118 179.618C418.24 179.683 418.348 179.771 418.436 179.878C418.523 179.985 418.589 180.108 418.629 180.24C418.671 180.375 419.613 183.68 419.157 197.054C418.858 205.617 419.584 213.363 420.06 218.486C420.329 221.374 420.522 223.452 420.434 224.565C420.288 226.386 419.985 228.191 419.528 229.96C419.466 230.183 419.333 230.379 419.148 230.518C418.964 230.657 418.738 230.731 418.507 230.728ZM417.618 179.883C417.515 179.882 417.413 179.905 417.321 179.95C417.229 179.995 417.148 180.062 417.086 180.144C417.024 180.226 416.983 180.321 416.964 180.422C416.946 180.524 416.952 180.628 416.981 180.726C416.981 180.762 417.89 184.159 417.444 196.995C417.139 205.67 417.867 213.481 418.35 218.657C418.602 221.351 418.799 223.472 418.721 224.433C418.581 226.148 418.296 227.847 417.87 229.514C417.848 229.597 417.841 229.684 417.852 229.77C417.863 229.855 417.89 229.938 417.933 230.013C417.973 230.091 418.03 230.161 418.098 230.217C418.166 230.274 418.245 230.316 418.33 230.341C418.499 230.385 418.678 230.361 418.83 230.276C418.982 230.19 419.094 230.049 419.144 229.881C419.595 228.136 419.894 226.355 420.037 224.558C420.125 223.478 419.932 221.414 419.666 218.558C419.183 213.412 418.461 205.653 418.76 197.064C419.226 183.752 418.287 180.506 418.248 180.375C418.208 180.239 418.124 180.12 418.011 180.036C417.897 179.951 417.759 179.905 417.618 179.906V179.883Z" fill="black"/>
<path d="M395.12 225.103C395.343 225.102 395.557 225.015 395.717 224.86C399.623 221.04 403.414 202.653 403.634 193.565C403.857 184.218 405.311 179.554 405.327 179.508C405.396 179.291 405.375 179.055 405.27 178.852C405.165 178.65 404.983 178.497 404.766 178.429C404.548 178.36 404.312 178.38 404.11 178.486C403.907 178.591 403.755 178.772 403.686 178.99C403.624 179.184 402.143 183.897 401.91 193.526C401.684 202.988 397.742 220.478 394.506 223.645C394.385 223.764 394.303 223.915 394.268 224.081C394.234 224.247 394.25 224.419 394.315 224.575C394.379 224.732 394.488 224.865 394.628 224.959C394.769 225.053 394.934 225.103 395.103 225.103H395.12Z" fill="#F5F5F5"/>
<path d="M395.12 225.296C394.982 225.296 394.846 225.268 394.719 225.215C394.592 225.162 394.476 225.084 394.379 224.986C394.282 224.888 394.206 224.772 394.154 224.645C394.102 224.517 394.075 224.381 394.076 224.243C394.078 224.104 394.108 223.968 394.164 223.841C394.221 223.715 394.303 223.602 394.404 223.508C397.614 220.367 401.523 202.952 401.753 193.52C401.986 183.87 403.473 179.128 403.535 178.931C403.619 178.667 403.805 178.447 404.051 178.319C404.297 178.192 404.584 178.168 404.848 178.252C405.112 178.336 405.332 178.521 405.459 178.767C405.587 179.013 405.611 179.3 405.527 179.564C405.527 179.61 404.067 184.281 403.84 193.572C403.62 202.686 399.803 221.141 395.868 224.998C395.769 225.094 395.652 225.17 395.524 225.222C395.395 225.273 395.258 225.298 395.12 225.296ZM404.513 178.59C404.373 178.589 404.237 178.634 404.124 178.717C404.012 178.799 403.928 178.916 403.886 179.049C403.824 179.243 402.354 183.936 402.121 193.529C401.891 203.024 397.919 220.59 394.657 223.783C394.595 223.844 394.546 223.916 394.513 223.995C394.479 224.075 394.461 224.16 394.46 224.246C394.458 224.42 394.526 224.588 394.647 224.712C394.774 224.832 394.941 224.899 395.115 224.899C395.289 224.899 395.456 224.832 395.583 224.712C399.459 220.921 403.22 202.608 403.44 193.552C403.666 184.199 405.13 179.486 405.143 179.44C405.17 179.357 405.18 179.271 405.173 179.184C405.166 179.098 405.142 179.014 405.102 178.937C405.062 178.861 405.008 178.792 404.942 178.737C404.876 178.681 404.799 178.639 404.717 178.613C404.651 178.594 404.582 178.586 404.513 178.59Z" fill="black"/>
<path d="M421.744 467.984H421.764C428.049 467.984 433.146 461.831 433.146 454.239V381.768H410.358V454.236C410.352 461.831 415.449 467.984 421.744 467.984Z" fill="black"/>
<path d="M469.481 467.984C474.847 467.984 479.196 462.742 479.196 456.274C479.196 449.807 474.847 444.564 469.481 444.564C464.116 444.564 459.767 449.807 459.767 456.274C459.767 462.742 464.116 467.984 469.481 467.984Z" fill="#CBC5C7"/>
<path d="M375.263 467.984C380.628 467.984 384.978 462.742 384.978 456.274C384.978 449.807 380.628 444.564 375.263 444.564C369.897 444.564 365.548 449.807 365.548 456.274C365.548 462.742 369.897 467.984 375.263 467.984Z" fill="#CBC5C7"/>
<path d="M374.419 455.299H468.549C472.605 455.299 475.894 451.328 475.894 446.438C475.894 441.541 472.612 437.576 468.549 437.576H374.419C370.363 437.576 367.074 441.547 367.074 446.438C367.074 451.328 370.363 455.299 374.419 455.299Z" fill="black"/>
<path d="M429.049 97.2045C407.956 84.8377 390.836 104.235 389.734 114.599C389.179 119.775 394.985 107.051 405.202 102.062C411.287 99.1081 422.508 102.492 427.687 102.21C431.212 102 430.52 98.0644 429.049 97.2045Z" fill="black"/>
<path d="M309.546 244.815C304.243 244.815 299.927 241.017 299.927 236.35C299.927 231.683 304.243 227.886 309.546 227.886C314.85 227.886 319.166 231.683 319.166 236.35C319.166 241.017 314.85 244.815 309.546 244.815ZM309.546 228.657C304.666 228.657 300.685 232.107 300.685 236.35C300.685 240.594 304.653 244.047 309.546 244.047C314.44 244.047 318.408 240.594 318.408 236.35C318.408 232.107 314.42 228.657 309.546 228.657Z" fill="white"/>
<path d="M678.157 467.984H62.5234V473.37H678.157V467.984Z" fill="black"/>
<path d="M623.061 406.216H517.304V382.516H623.061V406.216ZM518.843 404.677H621.522V384.056H518.843V404.677Z" fill="#D179C3"/>
<path d="M596.536 467.984H544.079L532.766 404.677H608.673L596.536 467.984ZM545.375 466.491H595.262L606.828 406.17H534.594L545.375 466.491Z" fill="#D179C3"/>
<path d="M578.34 384.056H540.226L540.052 383.957C525.722 375.956 531.456 362.407 532.017 361.173C535.956 344.107 520.658 338.245 520.504 338.199L520.389 338.143C513.549 334.237 512.371 328.76 512.588 324.857C512.756 322.226 513.48 319.66 514.711 317.328L514.764 317.25C515.022 316.911 515.206 316.523 515.303 316.109C515.401 315.695 515.411 315.265 515.331 314.847C514.711 310.909 508.41 306.406 508.347 306.36L508.209 306.265L508.124 306.117C504.442 299.776 503.355 293.95 504.891 288.804C506.86 282.174 512.506 279.073 513.178 278.718C517.885 275.348 522.349 274.199 526.458 275.312C533.117 277.113 536.304 284.173 536.445 284.455L536.501 284.58V284.711C536.944 290.698 538.568 294.863 541.197 296.753C541.838 297.231 542.57 297.571 543.349 297.752C544.127 297.932 544.935 297.948 545.72 297.8L545.851 297.767H545.989C551.5 298.292 555.228 302.385 556.774 309.602C557.475 313.076 557.707 316.629 557.463 320.164L557.443 320.282C554.667 331.385 566.006 334.789 566.492 334.93L566.636 334.973L566.755 335.061C582.508 347.343 584.881 359.92 584.11 368.308C583.273 377.406 578.751 383.494 578.56 383.734L578.34 384.056ZM540.63 382.516H577.556C580.376 378.187 582.104 373.239 582.594 368.095C583.631 356.513 578.025 345.836 565.924 336.361C564.457 335.882 553.046 331.74 555.944 319.974C556.032 318.809 557.201 300.511 545.973 299.313C544.994 299.485 543.992 299.457 543.024 299.231C542.057 299.006 541.145 298.587 540.344 298C537.292 295.831 535.49 291.436 534.988 284.941C534.558 284.055 531.561 278.256 526.047 276.769C522.398 275.784 518.354 276.864 514.032 279.975L513.927 280.041C513.871 280.067 508.226 282.972 506.378 289.231C504.986 293.908 506.001 299.271 509.391 305.168C510.399 305.904 516.191 310.292 516.867 314.571C516.978 315.184 516.961 315.812 516.82 316.417C516.678 317.023 516.414 317.593 516.044 318.093C515.561 318.96 509.65 330.151 521.121 336.745C522.276 337.208 537.672 343.752 533.514 361.574L533.494 361.659L533.455 361.738C533.176 362.299 527.199 374.882 540.63 382.516Z" fill="#D179C3"/>
<path d="M600.251 384.056H564.004L563.774 383.8C559.716 378.905 556.725 373.216 554.995 367.097C552.445 357.954 552.189 344.205 565.438 330.64L565.53 330.549L565.645 330.489C565.734 330.447 574.415 326.023 576.341 318.897C577.224 315.615 576.548 312.241 574.329 308.838L574.303 308.792C574.034 308.309 567.768 296.862 571.195 288.318C572.659 284.669 575.665 282.119 580.135 280.73C583.332 279.746 585.308 277.97 586.178 275.325C589.243 266.004 577.172 249.446 577.05 249.278L576.991 249.2L576.955 249.104C576.738 248.563 571.776 235.724 578.12 224.624C582.436 217.075 590.92 212.267 603.307 210.327C623.921 207.107 631.732 219.468 634.555 227.121C639.078 239.383 636.902 255.432 631.979 258.462L631.893 258.508C631.788 258.553 621.489 263.319 619.3 270.7C618.44 273.592 618.952 276.556 620.813 279.503C623.485 282.683 625.594 286.296 627.049 290.186C630.095 298.506 628.746 306.13 623.15 312.231L623.048 312.346L622.907 312.412C622.822 312.451 614.374 316.439 611.453 325.281C609.382 331.556 610.534 338.757 614.872 346.68L614.915 346.768C615.132 347.32 620.13 360.399 614.991 371.574C612.326 377.367 607.406 381.552 600.369 384.013L600.251 384.056ZM564.703 382.517H599.988C606.552 380.196 611.128 376.3 613.596 370.937C618.322 360.671 613.816 348.203 613.504 347.372C608.968 339.069 607.79 331.468 610.005 324.779C612.959 315.848 620.902 311.677 622.123 311.083C627.282 305.382 628.463 298.545 625.624 290.754C624.218 287.015 622.189 283.541 619.622 280.481L619.546 280.379C617.406 277.022 616.829 273.615 617.826 270.261C620.163 262.384 630.298 257.543 631.207 257.132C634.722 254.881 637.748 240.24 633.111 227.66C629.862 218.847 622.093 208.952 603.543 211.853C591.639 213.714 583.522 218.263 579.462 225.382C573.745 235.372 577.93 247.319 578.353 248.455C579.423 249.928 590.868 265.997 587.641 275.807C586.617 278.919 584.248 281.058 580.591 282.204C576.587 283.448 573.906 285.696 572.623 288.893C569.534 296.599 575.33 307.466 575.636 308.027C578.094 311.805 578.829 315.602 577.825 319.311C575.819 326.715 567.595 331.215 566.452 331.809C556.278 342.256 552.937 353.989 556.478 366.687C558.141 372.458 560.937 377.839 564.703 382.517Z" fill="#D179C3"/>
<path d="M527.058 300.633L525.86 303.028L565.885 383.288H567.861L527.058 300.633Z" fill="#D179C3"/>
<path d="M520.471 325.189L521.669 327.585L540.209 329.475L539.109 327.332L520.471 325.189Z" fill="#D179C3"/>
<path d="M542.333 366.517C544.814 366.517 546.826 364.505 546.826 362.023C546.826 359.542 544.814 357.53 542.333 357.53C539.852 357.53 537.84 359.542 537.84 362.023C537.84 364.505 539.852 366.517 542.333 366.517Z" fill="#D179C3"/>
<path d="M524.961 320.397C526.449 320.397 527.656 319.191 527.656 317.703C527.656 316.214 526.449 315.008 524.961 315.008C523.473 315.008 522.267 316.214 522.267 317.703C522.267 319.191 523.473 320.397 524.961 320.397Z" fill="#D179C3"/>
<path d="M531.252 297.636C533.237 297.636 534.846 296.027 534.846 294.042C534.846 292.057 533.237 290.448 531.252 290.448C529.267 290.448 527.658 292.057 527.658 294.042C527.658 296.027 529.267 297.636 531.252 297.636Z" fill="#D179C3"/>
<path d="M527.659 288.052C528.65 288.052 529.454 287.249 529.454 286.257C529.454 285.266 528.65 284.462 527.659 284.462C526.667 284.462 525.863 285.266 525.863 286.257C525.863 287.249 526.667 288.052 527.659 288.052Z" fill="#D179C3"/>
<path d="M594.14 242.531C598.439 242.531 601.925 239.045 601.925 234.745C601.925 230.446 598.439 226.96 594.14 226.96C589.84 226.96 586.354 230.446 586.354 234.745C586.354 239.045 589.84 242.531 594.14 242.531Z" fill="#D179C3"/>
<path d="M586.952 249.721C588.937 249.721 590.546 248.112 590.546 246.128C590.546 244.143 588.937 242.534 586.952 242.534C584.967 242.534 583.358 244.143 583.358 246.128C583.358 248.112 584.967 249.721 586.952 249.721Z" fill="#D179C3"/>
<path d="M580.368 383.288L616.3 223.967H613.947L577.956 383.288H580.368Z" fill="#D179C3"/>
<path d="M574.976 333.575L573.774 335.97L584.556 359.329V355.735L574.976 333.575Z" fill="#D179C3"/>
<path d="M614.889 287.718L615.021 290.947L594.908 314.788L596.425 310.558L614.889 287.718Z" fill="#D179C3"/>
<path d="M423.713 126.333L424.662 138.191C424.662 138.191 425.134 126.809 433.674 129.657C442.214 132.506 439.582 140.931 439.582 140.931C439.582 140.931 433.674 150.052 427.497 142.937L428.426 169.79L410.257 156.475C410.257 156.475 399.994 157.637 395.724 152.422C391.454 147.207 391.93 145.306 391.93 141.985V115.548L409.955 112.105L423.713 126.333Z" fill="white"/>
<mask id="mask0_1678_38" style="mask-type:luminance" maskUnits="userSpaceOnUse" x="391" y="118" width="43" height="55">
<path d="M419.069 130.504L419.883 140.679C419.883 140.679 420.286 130.924 427.602 133.363C434.918 135.801 432.761 143.179 432.761 143.179C432.761 143.179 427.602 150.84 422.321 144.742L421.914 168.697C421.914 168.697 415.12 177.641 407.542 168.697V156.324C407.542 156.324 398.746 157.309 395.09 152.848C391.434 148.388 391.837 146.75 391.837 143.908V121.262L407.283 118.308L419.069 130.504Z" fill="white"/>
</mask>
<g mask="url(#mask0_1678_38)">
<path d="M394.361 145.29C397.055 145.29 399.239 143.106 399.239 140.413C399.239 137.719 397.055 135.536 394.361 135.536C391.668 135.536 389.484 137.719 389.484 140.413C389.484 143.106 391.668 145.29 394.361 145.29Z" fill="#FA85AF"/>
</g>
<path d="M416.305 144.86C419.091 144.86 421.35 142.601 421.35 139.815C421.35 137.029 419.091 134.771 416.305 134.771C413.519 134.771 411.261 137.029 411.261 139.815C411.261 142.601 413.519 144.86 416.305 144.86Z" fill="#FA85AF"/>
<path d="M411.861 133.475C413.433 133.475 414.707 132.201 414.707 130.629C414.707 129.057 413.433 127.783 411.861 127.783C410.29 127.783 409.016 129.057 409.016 130.629C409.016 132.201 410.29 133.475 411.861 133.475Z" fill="black"/>
<path d="M396.681 133.475C398.253 133.475 399.527 132.201 399.527 130.629C399.527 129.057 398.253 127.783 396.681 127.783C395.11 127.783 393.836 129.057 393.836 130.629C393.836 132.201 395.11 133.475 396.681 133.475Z" fill="black"/>
<path d="M404.824 145.168C403.863 145.168 401.733 144.761 400.614 141.381L400.456 140.898L409.518 140.534L409.495 140.958C409.425 141.706 409.214 142.435 408.871 143.104C408.551 143.773 408.033 144.327 407.387 144.691C406.741 145.055 405.999 145.211 405.261 145.139C405.117 145.161 404.971 145.17 404.824 145.168ZM401.519 141.624C402.813 144.866 405.13 144.384 405.13 144.377H405.182H405.238C407.798 144.532 408.484 142.306 408.658 141.345L401.519 141.624Z" fill="black"/>
<path d="M385.536 127.79C384.707 128.034 383.893 128.325 383.098 128.663C383.452 127.885 383.797 126.198 384.558 124.705C387.591 118.764 390.794 118.515 390.689 118.597C389.796 119.335 388.044 120.894 387.407 122.151C386.544 123.884 385.536 127.79 385.536 127.79Z" fill="black"/>
<path d="M427.162 119.562C427.162 119.562 427.31 119.756 427.517 120.074C427.514 120.078 427.513 120.082 427.513 120.087C427.513 120.092 427.514 120.096 427.517 120.1L427.74 121.764C428.035 123.987 427.605 126.245 426.512 128.204L426.319 128.551C426.152 128.85 425.882 129.076 425.56 129.188C425.237 129.3 424.885 129.29 424.569 129.159L422.833 128.433C423.161 128.079 424.399 128.02 425.574 126.359C427.284 123.924 427.162 120.363 427.162 119.562Z" fill="black"/>
<path d="M428.282 121.485L427.852 120.625C428.01 120.904 428.153 121.191 428.282 121.485Z" fill="black"/>
<path d="M405.363 129.287L406.452 136.14L403.111 134.768L405.363 129.287Z" fill="#FA85AF"/>
<path d="M410.421 154.256L407.582 176.948L412.666 181.34C412.666 181.34 424.422 174.044 429.316 170.959L427.514 142.943L410.421 154.256Z" fill="white"/>
<path d="M412.702 181.862L407.378 177.011V176.912L410.027 156.744C408.314 157.105 403.187 156.383 402.957 156.35C392.484 154.26 391.641 144.033 391.631 143.931V119.493L396.58 113.634C408.865 105.945 424.005 120.77 424.149 120.921L424.202 120.973V121.049L424.737 135.161C425.462 132.234 427.441 129.5 429.791 128.551C431.587 127.829 434.363 127.754 437.399 131.505C439.696 134.334 440.648 136.983 440.228 139.382C440.059 140.265 439.716 141.106 439.219 141.855C438.722 142.605 438.081 143.248 437.333 143.747C435.994 145.159 434.508 145.867 432.89 145.841C430.494 145.805 428.521 144.2 427.73 143.439L429.506 171.06L429.394 171.12C426.467 172.642 412.951 181.688 412.817 181.78L412.702 181.862ZM407.779 176.863L412.731 181.376C414.097 180.464 426.115 172.439 429.112 170.837L427.28 142.388L427.651 142.805C427.674 142.832 430.011 145.415 432.903 145.454C434.409 145.474 435.814 144.798 437.077 143.465L437.117 143.432C438.537 142.472 439.521 140.991 439.857 139.31C440.254 137.029 439.329 134.485 437.107 131.761C434.215 128.203 431.616 128.259 429.942 128.932C427.116 130.071 424.855 133.927 424.829 137.465L424.855 138.197L424.471 138.22C424.451 137.977 424.442 137.728 424.445 137.482L423.828 121.154C422.843 120.192 408.465 106.693 396.807 113.959L392.015 119.647V143.934C392.015 144.023 392.848 153.961 403.016 155.989C404.657 156.226 409.196 156.747 410.174 156.318L410.503 156.18L407.779 176.863Z" fill="black"/>
<path d="M413.539 139.553C409.534 139.553 406.275 135.549 406.275 130.629C406.275 125.709 409.534 121.705 413.539 121.705C417.543 121.705 420.798 125.709 420.798 130.629C420.798 135.549 417.526 139.553 413.539 139.553ZM413.539 122.486C409.958 122.486 407.043 126.142 407.043 130.639C407.043 135.135 409.958 138.791 413.539 138.791C417.119 138.791 420.03 135.135 420.03 130.639C420.03 126.142 417.103 122.476 413.539 122.476V122.486Z" fill="#6C47EF"/>
<path d="M395.733 139.815C391.729 139.815 388.47 135.811 388.47 130.891C388.47 125.972 391.729 121.971 395.733 121.971C399.737 121.971 402.996 125.972 402.996 130.891C402.996 135.811 399.753 139.815 395.733 139.815ZM395.733 122.749C392.152 122.749 389.241 126.408 389.241 130.901C389.241 135.394 392.152 139.054 395.733 139.054C399.314 139.054 402.225 135.398 402.225 130.901C402.225 126.405 399.314 122.749 395.733 122.749Z" fill="#6C47EF"/>
<path d="M427.639 130.245H420.398V131.013H427.639V130.245Z" fill="#6C47EF"/>
<path d="M421.268 103.864C421.268 103.864 417.365 110.464 417.139 115.873C417.037 118.279 417.024 120.56 417.044 122.352C417.056 123.447 417.388 124.514 418 125.422C418.612 126.331 419.476 127.04 420.487 127.462L424.56 129.159C424.875 129.29 425.228 129.3 425.55 129.188C425.873 129.076 426.143 128.85 426.309 128.551L426.503 128.203C427.595 126.245 428.026 123.987 427.73 121.764L427.507 120.1C427.506 120.091 427.508 120.082 427.512 120.075C427.517 120.068 427.524 120.062 427.533 120.06C427.541 120.057 427.55 120.058 427.558 120.062C427.566 120.066 427.573 120.072 427.576 120.08L428.373 121.669C428.986 122.888 429.293 124.237 429.27 125.601C429.246 126.965 428.893 128.303 428.239 129.5C428.177 129.613 428.14 129.737 428.13 129.866C428.119 129.994 428.136 130.123 428.178 130.244C428.22 130.366 428.288 130.477 428.376 130.571C428.464 130.665 428.57 130.739 428.689 130.79L429.985 131.341C432.043 132.217 438.847 131.046 436.858 118.653C434.951 106.831 421.268 103.864 421.268 103.864Z" fill="black"/>
<path d="M424.464 105.062C424.464 105.062 421.839 105.36 419.151 111.37C416.968 116.267 414.605 121.521 413.804 123.297C413.717 123.489 413.583 123.656 413.414 123.784C413.246 123.911 413.048 123.994 412.839 124.025L395.346 126.704C395.16 126.733 394.97 126.72 394.79 126.666C394.61 126.613 394.444 126.52 394.304 126.394C394.164 126.268 394.054 126.113 393.982 125.94C393.909 125.766 393.876 125.579 393.885 125.391C393.995 123.524 394.447 121.693 395.218 119.989C395.956 118.331 397.643 115.479 398.539 114.002C398.556 113.971 398.561 113.936 398.554 113.901C398.547 113.867 398.529 113.836 398.501 113.814C398.474 113.792 398.44 113.78 398.405 113.78C398.37 113.78 398.336 113.793 398.31 113.815C396.97 115.128 394.315 117.888 393.058 120.422C391.637 123.267 389.35 127.442 389.35 127.442L388.723 127.363C388.723 127.363 388.844 124.268 389.156 123.024C389.468 121.781 390.426 119.779 390.925 118.784C390.941 118.754 390.945 118.719 390.938 118.686C390.931 118.652 390.912 118.622 390.886 118.601C390.859 118.58 390.826 118.568 390.792 118.569C390.758 118.569 390.725 118.582 390.699 118.604C389.806 119.342 388.053 120.901 387.416 122.158C386.55 123.891 385.542 127.797 385.542 127.797C385.542 127.797 380.908 129.109 380.042 130.832C379.175 132.556 378.368 120.734 380.908 116.949C385.598 109.975 389.008 106.703 391.591 105.18C394.174 103.657 402.58 98.2581 410.883 99.8729C419.187 101.488 424.464 105.062 424.464 105.062Z" fill="black"/>
<path d="M429.653 131.2C430.307 130.685 430.996 130.216 431.714 129.795C435.866 127.235 432.758 118.764 432.758 118.764L435.003 119.864V119.88C435.765 122.913 435.394 126.27 434.852 128.814C434.742 129.327 434.52 129.809 434.202 130.226C433.883 130.644 433.477 130.985 433.011 131.227C432.545 131.468 432.032 131.604 431.507 131.624C430.983 131.643 430.461 131.547 429.978 131.341L429.653 131.2Z" fill="black"/>
<path d="M410.939 124.317C410.306 123.474 411.172 121.163 413.522 116.611C414.042 115.56 414.776 114.628 415.677 113.876C416.578 113.125 417.626 112.569 418.754 112.246C416.689 116.877 414.556 121.62 413.804 123.287C413.717 123.479 413.583 123.647 413.414 123.774C413.246 123.901 413.048 123.984 412.839 124.016L410.939 124.308V124.317Z" fill="black"/>
<path d="M388.959 127.386C388.959 127.347 388.959 127.314 388.959 127.271C389.13 124.99 391.184 121.164 393.183 117.563C395.182 113.963 398.461 113.73 398.306 113.808C397.774 114.152 397.325 114.611 396.993 115.151C395.641 116.592 393.974 118.564 393.055 120.402C391.634 123.248 389.346 127.422 389.346 127.422L388.959 127.386Z" fill="black"/>
<path d="M406.643 130.245H402.612V131.013H406.643V130.245Z" fill="#6C47EF"/>
</svg>
