<svg width="768" height="512" viewBox="0 0 768 512" fill="none" xmlns="http://www.w3.org/2000/svg">
<path d="M307.648 403.635C307.364 403.632 307.093 403.518 306.892 403.317C306.691 403.116 306.577 402.844 306.573 402.56V363.021C306.573 362.736 306.687 362.462 306.888 362.261C307.09 362.059 307.363 361.946 307.648 361.946H360.704V330.765C360.704 330.48 360.818 330.206 361.019 330.005C361.221 329.803 361.495 329.69 361.78 329.69H399.36V296.832C399.364 296.548 399.478 296.276 399.679 296.075C399.88 295.874 400.152 295.76 400.436 295.757H446.196V256.448C446.199 256.164 446.313 255.892 446.514 255.691C446.715 255.49 446.987 255.376 447.271 255.373H527.232C527.518 255.373 527.791 255.486 527.993 255.688C528.194 255.889 528.308 256.163 528.308 256.448C528.308 256.733 528.194 257.007 527.993 257.208C527.791 257.41 527.518 257.523 527.232 257.523H448.384V296.832C448.381 297.116 448.267 297.388 448.066 297.589C447.865 297.79 447.593 297.904 447.309 297.907H401.549V330.765C401.551 330.906 401.524 331.047 401.471 331.178C401.417 331.31 401.338 331.429 401.238 331.529C401.138 331.629 401.019 331.708 400.888 331.762C400.756 331.815 400.616 331.842 400.474 331.84H362.855V363.021C362.852 363.305 362.737 363.577 362.536 363.777C362.335 363.978 362.064 364.093 361.78 364.096H308.724V402.56C308.724 402.845 308.61 403.119 308.409 403.32C308.207 403.522 307.934 403.635 307.648 403.635Z" fill="#1B1C1C"/>
<path d="M385.331 364.698H573.222V428.083H385.331V364.698Z" fill="#4F266A"/>
<path d="M534.093 395.686C534.175 395.614 534.237 395.521 534.272 395.418C534.304 395.306 534.298 395.187 534.257 395.079C534.215 394.97 534.14 394.878 534.042 394.816L502.285 375.04L501.709 375.949L531.878 394.726H411.341V395.802H532.224L507.968 415.245L508.646 416.09L534.08 395.699L534.093 395.686Z" fill="white"/>
<path d="M511.295 361.818C522.243 357.659 531.09 349.321 535.891 338.639C540.692 327.957 541.053 315.806 536.895 304.858L454.399 336.179C458.552 347.119 466.875 355.963 477.543 360.77C488.211 365.577 500.35 365.954 511.295 361.818Z" fill="#57B9A2"/>
<path d="M375.104 430.771C378.954 432.002 383.01 432.46 387.038 432.12C391.067 431.78 394.988 430.648 398.578 428.79C402.168 426.931 405.356 424.382 407.959 421.289C410.562 418.196 412.529 414.62 413.747 410.765L355.097 392.115C353.865 395.967 353.405 400.024 353.744 404.053C354.083 408.083 355.214 412.006 357.073 415.598C358.932 419.189 361.481 422.378 364.576 424.982C367.67 427.586 371.247 429.553 375.104 430.771Z" fill="#1DAA6B"/>
<path d="M537.6 364.698H550.656C550.656 364.698 548.262 340.582 567.04 340.864C585.817 341.146 582.886 372.698 582.604 381.248C582.323 389.799 582.937 428.083 582.937 428.083H598.028C598.028 428.083 599.718 362.317 594.188 349.415C588.659 336.512 579.456 327.399 564.876 328.243C550.297 329.088 541.529 342.541 539.737 348.851C538.539 354.056 537.823 359.361 537.6 364.698Z" fill="#FFD141"/>
<path d="M699.073 269.914C699.073 269.914 686.272 281.69 686.874 281.894C687.476 282.099 701.594 285.734 701.594 285.734L699.073 269.914Z" fill="#1DAA6B"/>
<path d="M275.004 302.256C279 301.309 281.472 297.301 280.525 293.305C279.578 289.308 275.571 286.836 271.574 287.783C267.578 288.73 265.106 292.737 266.053 296.734C266.999 300.731 271.007 303.203 275.004 302.256Z" fill="#EE4266"/>
<path d="M382.105 163.059L394.624 153.28L395.251 168.32L382.105 163.059Z" fill="#57B9A2"/>
<path d="M704.166 392.218L709.414 405.069L704.793 408.73L696.768 397.888L704.166 392.218Z" fill="white"/>
<path d="M708.915 405.222L703.578 392.294C703.543 392.166 703.557 392.029 703.617 391.91C703.677 391.791 703.779 391.699 703.904 391.651C704.028 391.604 704.165 391.604 704.29 391.651C704.414 391.699 704.516 391.792 704.576 391.91L709.696 404.378C709.927 405.056 709.261 406.106 708.915 405.222ZM705.075 409.728C704.99 409.728 704.905 409.707 704.829 409.667C704.753 409.627 704.688 409.569 704.64 409.498L696.755 398.528C696.713 398.471 696.682 398.406 696.665 398.337C696.648 398.268 696.645 398.197 696.656 398.126C696.666 398.056 696.691 397.989 696.728 397.928C696.765 397.867 696.813 397.815 696.871 397.773C696.988 397.692 697.133 397.66 697.274 397.684C697.415 397.708 697.541 397.786 697.626 397.901L705.511 408.87C705.552 408.928 705.582 408.994 705.598 409.063C705.614 409.133 705.617 409.205 705.605 409.275C705.593 409.345 705.567 409.412 705.529 409.472C705.491 409.533 705.441 409.585 705.383 409.626C705.293 409.69 705.186 409.725 705.075 409.728Z" fill="#1B1C1C"/>
<path d="M627.712 408.32V415.795C627.712 415.795 629.274 418.112 630.899 417.331C632.525 416.55 634.739 414.118 635.955 413.862C637.171 413.606 637.235 414.182 637.235 414.182L638.515 408.102L627.712 408.32Z" fill="white"/>
<path d="M627.891 416.474C627.749 416.474 627.612 416.417 627.511 416.316C627.41 416.215 627.354 416.079 627.354 415.936V408.256C627.354 407.962 627.597 408.371 627.891 408.371C627.962 408.371 628.032 408.385 628.097 408.412C628.162 408.439 628.221 408.479 628.271 408.529C628.321 408.579 628.361 408.638 628.388 408.703C628.415 408.768 628.429 408.838 628.429 408.909V416C628.413 416.131 628.349 416.252 628.25 416.339C628.151 416.427 628.023 416.475 627.891 416.474ZM637.171 414.208H637.069C636.999 414.196 636.933 414.17 636.874 414.131C636.814 414.093 636.764 414.043 636.724 413.984C636.685 413.926 636.657 413.86 636.644 413.79C636.631 413.721 636.631 413.65 636.646 413.581L637.632 408.794C637.644 408.724 637.67 408.658 637.709 408.598C637.747 408.539 637.797 408.488 637.856 408.449C637.914 408.41 637.98 408.382 638.049 408.369C638.119 408.356 638.19 408.356 638.259 408.371C638.554 408.435 638.835 408.064 638.771 408.371L637.696 413.811C637.665 413.926 637.596 414.027 637.501 414.099C637.406 414.171 637.29 414.209 637.171 414.208Z" fill="#1B1C1C"/>
<path d="M663.796 290.893C663.796 290.893 674.189 310.579 676.429 326.426C678.669 342.272 679.092 348.57 680.922 349.837C682.752 351.104 684.839 350.682 684.98 354.88C685.12 359.078 684.455 359.194 687.194 362.56C689.933 365.926 702.016 384.115 703.181 387.482C704.346 390.848 704.653 392.218 704.653 392.218L696.768 398.528C696.768 398.528 666.471 356.544 659.648 344.704C655.659 337.918 652.234 330.816 649.408 323.469C649.408 323.469 647.296 337.779 644.352 350.682C641.408 363.584 638.464 367.219 638.746 371.43C639.028 375.642 642.676 382.093 642.112 388.672C641.549 395.251 638.72 408.73 638.72 408.73H627.38C627.38 408.73 626.33 347.29 627.38 331.93C628.429 316.57 630.81 290.266 630.81 290.266C630.81 290.266 650.1 282.086 654.298 284.403C657.603 286.355 660.776 288.522 663.796 290.893Z" fill="#4F266A"/>
<path d="M700.391 395.52C700.391 395.52 681.332 367.654 679.386 366.08C677.44 364.506 678.106 361.549 678.708 359.309C678.928 358.619 679.091 357.913 679.194 357.197C679.194 356.723 679.015 356.557 677.799 356.198C676.859 356.05 675.987 355.617 675.301 354.958C674.614 354.299 674.146 353.445 673.959 352.512C673.127 348.378 657.319 293.363 657.101 292.8C657.065 292.663 657.084 292.517 657.153 292.393C657.222 292.269 657.337 292.176 657.472 292.134C657.541 292.115 657.612 292.109 657.682 292.117C657.753 292.125 657.821 292.147 657.882 292.182C657.944 292.216 657.999 292.263 658.043 292.318C658.086 292.374 658.119 292.437 658.138 292.506C658.791 294.771 674.176 348.122 675.008 352.307C675.418 354.355 676.788 354.765 678.119 355.162C679.194 355.482 680.41 355.853 680.269 357.299C680.168 358.081 679.997 358.852 679.757 359.603C679.181 361.638 678.477 363.942 680.09 365.248C682.65 367.373 701.3 395.021 701.3 395.021L700.391 395.52ZM633.293 408.742C633.293 408.742 632.487 378.355 631.335 368.192C630.183 358.029 637.248 296.435 637.543 293.824C637.56 293.681 637.633 293.551 637.746 293.463C637.858 293.374 638.002 293.333 638.144 293.35C638.287 293.367 638.417 293.44 638.506 293.553C638.595 293.666 638.635 293.809 638.618 293.952C638.541 294.592 631.258 357.952 632.397 368.077C633.536 378.202 634.368 408.717 634.368 408.717L633.293 408.742ZM649.37 324.006C649.263 324.009 649.157 323.978 649.068 323.918C648.979 323.859 648.91 323.773 648.871 323.674L640.948 304.294C640.921 304.229 640.907 304.159 640.907 304.088C640.908 304.017 640.922 303.947 640.949 303.881C640.976 303.816 641.016 303.757 641.067 303.707C641.117 303.657 641.176 303.617 641.242 303.59C641.308 303.564 641.378 303.55 641.449 303.55C641.52 303.55 641.59 303.565 641.655 303.592C641.72 303.619 641.78 303.659 641.83 303.709C641.88 303.76 641.919 303.819 641.946 303.885L649.869 323.277C649.92 323.408 649.918 323.553 649.863 323.682C649.808 323.812 649.704 323.914 649.575 323.968C649.509 323.993 649.44 324.006 649.37 324.006Z" fill="#1B1C1C"/>
<path d="M630.234 255.194C630.234 255.194 623.22 265.613 618.624 267.174C615.885 268.339 606.464 268.339 606.464 268.339L604.852 276.979L626.829 275.699L640.82 261.709L630.234 255.194Z" fill="white"/>
<path d="M609.536 268.8C607.321 268.8 605.696 268.685 605.491 268.672C605.42 268.667 605.351 268.648 605.288 268.616C605.225 268.585 605.168 268.541 605.122 268.487C605.076 268.434 605.04 268.372 605.018 268.305C604.996 268.237 604.987 268.167 604.992 268.096C604.997 268.025 605.016 267.956 605.047 267.893C605.079 267.83 605.123 267.773 605.176 267.727C605.23 267.681 605.292 267.645 605.359 267.623C605.426 267.601 605.497 267.592 605.568 267.597C605.657 267.597 614.08 268.186 618.457 266.714C622.835 265.242 629.414 255.488 629.478 255.398C629.518 255.34 629.568 255.289 629.627 255.25C629.686 255.211 629.752 255.183 629.822 255.17C629.892 255.156 629.963 255.156 630.033 255.17C630.102 255.184 630.168 255.212 630.227 255.251C630.286 255.291 630.336 255.341 630.375 255.4C630.415 255.459 630.442 255.526 630.456 255.595C630.469 255.665 630.469 255.736 630.455 255.806C630.441 255.875 630.414 255.941 630.374 256C630.093 256.41 623.436 266.176 618.79 267.738C615.773 268.537 612.656 268.895 609.536 268.8ZM604.16 276.659C604.018 276.656 603.883 276.598 603.783 276.498C603.683 276.398 603.625 276.263 603.622 276.122C603.622 275.979 603.679 275.842 603.78 275.741C603.88 275.641 604.017 275.584 604.16 275.584L626.88 275.187L625.203 276.262L604.173 276.659H604.16Z" fill="#1B1C1C"/>
<path d="M572.108 230.784H606.464V255.322H572.108V230.784Z" fill="#1DAA6B"/>
<path d="M572.108 255.322H606.464V278.874H572.108V255.322Z" fill="#4F266A"/>
<path d="M565.095 201.126L581.709 230.784L610.317 199.654L565.095 201.126Z" fill="#57B9A2"/>
<path d="M573.04 147.768L616.663 166.663L602.367 199.668L558.744 180.772L573.04 147.768Z" fill="#EE4266"/>
<path d="M587.666 129.666C591.983 115.528 586.291 101.261 574.953 97.799C563.614 94.3369 550.923 102.991 546.606 117.128C542.29 131.266 547.982 145.533 559.32 148.995C570.658 152.457 583.349 143.803 587.666 129.666Z" fill="#FFD141"/>
<path d="M665.6 289.958C665.6 289.958 660.915 272.691 660.864 270.758C660.813 268.826 662.656 268.595 661.069 267.546C659.482 266.496 658.701 266.701 659.226 265.549C659.75 264.397 660.762 264.397 659.341 263.386C657.92 262.374 657.754 259.968 657.869 259.136C657.984 258.304 670.438 231.053 667.801 226.842C665.165 222.63 650.982 224.845 648.026 224.96C645.069 225.075 642.035 230.208 642.035 230.208C642.035 230.208 632.051 233.792 632.051 239.68C632.051 245.568 633.626 246.938 633.203 248.09C632.781 249.242 627.84 253.658 628.582 254.49C629.695 255.447 630.89 256.304 632.154 257.05L625.92 284.634C625.92 284.634 630.963 292.941 638.118 293.888C645.274 294.835 648.525 292.518 648.525 292.518L651.366 288.32L655.053 292.16C655.053 292.16 658.163 294.029 665.6 289.958Z" fill="#EE4266"/>
<path d="M648.486 267.174C648.486 267.174 635.034 284.634 632.922 285.683C630.81 286.733 587.917 286.31 586.547 286.31C585.177 286.31 575.744 284.736 573.325 281.997C572.237 280.717 567.59 279.91 567.142 279.283C565.504 276.186 568.422 270.106 569.254 269.414C573.939 265.574 575.539 275.11 578.598 276.058C580.672 276.595 578.598 273.088 579.2 270.771C579.418 269.491 580.045 269.491 581.107 270.899C582.169 272.307 584.435 277.299 589.913 278.669C595.392 280.038 625.459 276.838 626.829 275.699C628.198 274.56 636.71 262.899 636.71 262.899L648.486 267.174Z" fill="white"/>
<path d="M629.901 267.648H629.76C629.691 267.63 629.627 267.599 629.57 267.555C629.514 267.512 629.466 267.457 629.432 267.395C629.397 267.333 629.375 267.264 629.368 267.193C629.361 267.122 629.368 267.05 629.389 266.982C631.015 261.299 633.396 252.314 633.229 250.842C632.941 248.805 632.513 246.791 631.949 244.813C631.91 244.675 631.927 244.528 631.997 244.403C632.067 244.278 632.183 244.186 632.32 244.147C632.458 244.108 632.605 244.125 632.73 244.195C632.855 244.265 632.947 244.381 632.986 244.518C633.557 246.564 633.985 248.647 634.266 250.752C634.432 252.89 630.746 265.818 630.337 267.277C630.305 267.373 630.248 267.458 630.171 267.523C630.094 267.589 630.001 267.632 629.901 267.648ZM657.741 285.619C657.58 285.636 657.417 285.636 657.255 285.619C657.134 285.601 657.021 285.549 656.928 285.47C656.836 285.391 656.767 285.287 656.73 285.171C656.589 284.698 656.922 284.365 657.741 283.546C658.793 282.547 659.737 281.44 660.557 280.243C660.685 280.051 660.724 279.898 660.673 279.795C660.237 278.925 656.167 278.63 653.978 278.515C652.746 278.49 651.519 278.34 650.317 278.067C650.153 278.016 650.007 277.918 649.896 277.787C649.785 277.655 649.714 277.495 649.69 277.325C649.524 275.84 654.337 272.602 657.217 270.797C657.276 270.759 657.343 270.733 657.412 270.721C657.482 270.709 657.553 270.711 657.622 270.726C657.691 270.742 657.756 270.77 657.814 270.811C657.872 270.852 657.921 270.903 657.959 270.963C658.032 271.085 658.056 271.229 658.025 271.368C657.994 271.506 657.911 271.627 657.793 271.706C654.669 273.664 651.264 276.186 650.804 277.094C651.878 277.289 652.964 277.404 654.055 277.44C658.087 277.722 660.98 278.029 661.645 279.36C661.753 279.606 661.791 279.876 661.758 280.142C661.724 280.408 661.619 280.659 661.453 280.87C660.591 282.131 659.6 283.297 658.497 284.352L658.253 284.608C659.085 284.608 660.391 284.403 661.568 284.25C661.709 284.231 661.852 284.27 661.964 284.356C662.077 284.442 662.151 284.57 662.17 284.71C662.188 284.851 662.15 284.993 662.064 285.106C661.977 285.219 661.85 285.293 661.709 285.312C660.393 285.484 659.068 285.586 657.741 285.619Z" fill="#1B1C1C"/>
<path d="M653.99 194.189C653.99 194.189 649.856 200.589 649.651 204.006C649.446 207.424 648.947 207.514 648.947 207.514C648.947 207.514 645.926 207.514 646.208 208.499C646.49 209.485 648.768 209.408 648.87 209.613C648.973 209.818 646.067 211.085 647.053 212.352C648.038 213.619 650.099 212.774 650.099 212.774C650.099 212.774 648.986 217.741 650.496 218.24C651.009 218.357 651.541 218.368 652.058 218.271C652.576 218.174 653.068 217.972 653.504 217.677C653.504 217.677 653.414 222.49 651.52 224.179C649.626 225.869 646.989 228.762 646.989 228.762C646.989 228.762 647.13 234.368 649.37 232.678C654.413 228.902 659.392 224.346 659.392 224.346C659.6 222.664 659.929 221 660.378 219.366C661.005 217.254 663.949 215.078 664.794 214.733C665.638 214.387 674.893 212.416 676.826 207.936C679.283 202.189 675.981 196.48 674.086 195.136C672.46 194.229 670.647 193.708 668.787 193.613C668.787 193.613 673.69 192.845 674.394 189.338C675.098 185.83 673.203 187.52 667.392 188.058C663.437 189.901 656.896 182.618 653.99 186.304C650.138 188.928 650.982 192.998 653.99 194.189Z" fill="white"/>
<path d="M650.906 268.621C650.847 268.633 650.786 268.633 650.726 268.621L633.971 262.4C633.9 262.372 633.835 262.331 633.781 262.278C633.726 262.226 633.682 262.163 633.651 262.093C633.594 261.953 633.594 261.797 633.651 261.658C634.163 260.57 646.323 234.995 652.224 229.798C658.125 224.602 662.541 224.678 662.707 224.755C662.85 224.755 662.987 224.812 663.087 224.913C663.188 225.013 663.245 225.15 663.245 225.293C663.245 225.435 663.188 225.572 663.087 225.673C662.987 225.774 662.85 225.83 662.707 225.83C662.707 225.83 658.611 225.651 653.005 230.605C647.718 235.264 636.749 257.83 634.944 261.594L650.714 267.405C652.557 264.051 665.178 241.024 666.368 235.533C666.402 235.395 666.487 235.276 666.606 235.2C666.725 235.124 666.869 235.096 667.008 235.123C667.147 235.154 667.269 235.238 667.345 235.358C667.422 235.478 667.448 235.624 667.418 235.763C666.138 241.818 652.058 267.238 651.43 268.326C651.38 268.42 651.304 268.497 651.211 268.55C651.118 268.602 651.012 268.626 650.906 268.621ZM632.115 241.523C631.984 241.521 631.857 241.473 631.759 241.386C631.66 241.299 631.596 241.18 631.578 241.05C631.456 239.183 631.946 237.327 632.973 235.763C634.534 233.357 636.979 232.154 640.653 230.323L641.587 229.862C643.009 229.101 644.543 228.569 646.131 228.288C646.758 228.173 646.976 228.134 647.283 227.802C648.205 226.778 650.035 224.486 650.048 224.474C650.136 224.362 650.265 224.289 650.407 224.272C650.549 224.256 650.691 224.296 650.803 224.384C650.915 224.472 650.988 224.601 651.005 224.743C651.021 224.885 650.981 225.027 650.893 225.139C650.816 225.242 649.024 227.469 648.077 228.518C647.624 229.015 646.994 229.314 646.323 229.35C644.836 229.607 643.401 230.104 642.074 230.822L641.126 231.296C637.466 233.101 635.251 234.189 633.856 236.416C632.958 237.766 632.51 239.365 632.576 240.986C632.594 241.126 632.556 241.269 632.47 241.381C632.383 241.494 632.256 241.568 632.115 241.587V241.523ZM652.57 224.179H652.48C652.41 224.168 652.343 224.144 652.283 224.107C652.223 224.07 652.17 224.022 652.129 223.965C652.087 223.908 652.057 223.843 652.041 223.774C652.024 223.706 652.021 223.635 652.032 223.565L652.826 218.816C652.021 219.091 651.147 219.091 650.342 218.816C650.073 218.699 649.834 218.523 649.641 218.302C649.448 218.08 649.307 217.819 649.229 217.536C648.891 216.21 648.913 214.818 649.293 213.504C648.231 213.709 647.002 213.606 646.554 212.493C646.425 211.991 646.457 211.462 646.645 210.98C646.834 210.497 647.169 210.086 647.603 209.805C645.99 209.344 645.799 208.947 645.735 208.806C645.69 208.712 645.667 208.61 645.667 208.506C645.667 208.402 645.69 208.299 645.735 208.205C645.965 207.757 646.887 207.347 648.499 207.002C649.027 204.023 649.886 201.112 651.059 198.323L651.955 196.646C652.186 196.237 652.467 196.122 652.775 196.288C653.082 196.454 653.184 196.506 652.941 197.043L652.864 197.158C652.698 197.517 652.429 198.029 651.994 198.822C650.714 201.293 649.51 207.501 649.434 207.565C649.416 207.671 649.366 207.768 649.29 207.844C649.215 207.92 649.117 207.97 649.011 207.987C648.357 208.115 647.711 208.286 647.078 208.499C647.688 208.721 648.313 208.901 648.947 209.037C649.054 209.062 649.15 209.118 649.225 209.198C649.3 209.278 649.35 209.377 649.37 209.485C649.386 209.593 649.369 209.704 649.321 209.802C649.273 209.9 649.196 209.982 649.101 210.035C648.589 210.317 647.206 211.315 647.514 212.096C647.821 212.877 649.843 212.224 649.856 212.224C649.953 212.185 650.06 212.174 650.163 212.195C650.266 212.215 650.36 212.265 650.435 212.338C650.51 212.412 650.562 212.506 650.584 212.608C650.606 212.711 650.598 212.817 650.56 212.915C650.036 214.286 649.916 215.779 650.215 217.216C650.251 217.348 650.315 217.47 650.404 217.574C650.492 217.678 650.602 217.761 650.726 217.818C651.579 217.971 652.459 217.831 653.222 217.421C653.308 217.371 653.405 217.345 653.504 217.345C653.603 217.345 653.7 217.371 653.786 217.421C653.866 217.48 653.928 217.56 653.964 217.653C654.001 217.746 654.01 217.848 653.99 217.946L653.056 223.629C653.06 223.765 653.012 223.898 652.922 224C652.831 224.102 652.705 224.166 652.57 224.179Z" fill="#1B1C1C"/>
<path d="M653.504 218.496C653.396 218.495 653.29 218.462 653.201 218.4C653.112 218.339 653.044 218.252 653.005 218.15C652.978 218.085 652.965 218.015 652.966 217.944C652.967 217.874 652.983 217.804 653.012 217.739C653.04 217.675 653.082 217.617 653.133 217.569C653.185 217.52 653.246 217.483 653.312 217.459L660.429 214.822C660.563 214.773 660.711 214.779 660.841 214.839C660.971 214.899 661.071 215.008 661.12 215.142C661.169 215.276 661.163 215.425 661.103 215.554C661.043 215.684 660.934 215.784 660.8 215.834L653.683 218.394C653.633 218.442 653.572 218.478 653.504 218.496ZM654.579 195.149C654.106 195.149 653.043 194.944 651.93 193.357C650.816 191.77 650.061 188.966 653.645 185.869C656.205 183.603 658.317 184.794 660.506 186.061C661.292 186.541 662.108 186.968 662.951 187.341C666.253 188.723 672.115 186.829 672.179 186.803C672.315 186.759 672.463 186.771 672.59 186.835C672.717 186.9 672.814 187.013 672.858 187.149C672.902 187.285 672.89 187.432 672.826 187.56C672.761 187.687 672.648 187.783 672.512 187.827C672.256 187.917 666.189 189.875 662.541 188.339C661.66 187.969 660.805 187.542 659.981 187.059C657.818 185.779 656.384 184.986 654.362 186.739C651.93 188.838 651.431 190.822 652.826 192.806C653.811 194.202 654.631 194.086 654.618 194.086C654.758 194.068 654.9 194.104 655.015 194.187C655.129 194.271 655.207 194.395 655.232 194.534C655.255 194.672 655.224 194.812 655.145 194.927C655.066 195.041 654.946 195.121 654.81 195.149C654.734 195.163 654.656 195.163 654.579 195.149Z" fill="#1B1C1C"/>
<path d="M657.063 193.357C656.978 193.359 656.894 193.341 656.818 193.303C656.742 193.265 656.677 193.209 656.628 193.139C656.444 192.908 656.326 192.631 656.285 192.339C656.245 192.046 656.283 191.748 656.397 191.475C656.743 190.848 657.677 190.592 659.047 190.707C660.119 190.806 661.181 190.995 662.221 191.27C663.786 191.744 665.444 191.823 667.047 191.501C668.67 191.263 670.192 190.571 671.437 189.504C671.532 189.397 671.666 189.332 671.809 189.324C671.952 189.315 672.092 189.364 672.199 189.459C672.306 189.554 672.371 189.688 672.379 189.831C672.387 189.973 672.339 190.114 672.244 190.221C670.853 191.476 669.119 192.287 667.265 192.55C665.505 192.912 663.684 192.828 661.965 192.307C660.983 192.052 659.981 191.877 658.97 191.782C657.537 191.667 657.332 192 657.332 192C657.332 192 657.396 192.371 657.498 192.499C657.577 192.616 657.609 192.759 657.588 192.899C657.567 193.039 657.494 193.166 657.383 193.254C657.291 193.324 657.178 193.361 657.063 193.357ZM674.151 199.68C674.076 199.682 674.001 199.667 673.932 199.636C673.863 199.605 673.802 199.559 673.754 199.501C672.289 197.893 670.412 196.716 668.327 196.096C665.293 195.52 663.681 195.136 663.668 195.136C663.53 195.1 663.412 195.011 663.338 194.89C663.264 194.768 663.24 194.622 663.271 194.483C663.287 194.414 663.317 194.349 663.359 194.292C663.401 194.234 663.454 194.186 663.515 194.149C663.575 194.112 663.643 194.087 663.713 194.077C663.783 194.066 663.855 194.069 663.924 194.086C663.924 194.086 665.524 194.47 668.519 195.046C670.842 195.696 672.933 196.992 674.548 198.784C674.648 198.887 674.704 199.024 674.704 199.168C674.704 199.311 674.648 199.449 674.548 199.552C674.493 199.599 674.43 199.634 674.362 199.656C674.294 199.678 674.222 199.686 674.151 199.68Z" fill="#1B1C1C"/>
<path d="M664.729 215.283C664.185 215.198 663.688 214.926 663.321 214.515C662.336 213.619 662.681 210.573 662.937 209.766C662.937 209.587 663.129 209.126 663.565 209.062C663.789 209.051 664.014 209.095 664.217 209.19C665.357 209.607 666.612 209.57 667.725 209.088C668.202 208.938 668.631 208.663 668.966 208.292C669.302 207.921 669.531 207.466 669.632 206.976C669.762 206.28 669.713 205.562 669.489 204.89C669.265 204.219 668.874 203.615 668.352 203.136C667.302 202.112 666.176 202.688 664.819 203.558C664.128 203.994 663.642 204.314 663.155 204.134C663.036 204.094 662.928 204.027 662.839 203.938C662.751 203.849 662.683 203.741 662.643 203.622C662.52 202.86 662.577 202.08 662.809 201.344C663.155 199.565 663.629 197.133 662.131 195.968C659.865 194.202 656.742 195.75 656.717 195.763C656.587 195.826 656.439 195.836 656.302 195.79C656.166 195.745 656.053 195.648 655.987 195.52C655.925 195.393 655.916 195.246 655.961 195.112C656.007 194.977 656.103 194.866 656.23 194.803C656.384 194.726 659.981 192.934 662.797 195.123C664.806 196.685 664.243 199.616 663.859 201.523C663.75 202.008 663.673 202.5 663.629 202.995L664.243 202.624C665.408 201.882 667.366 200.64 669.094 202.342C669.742 202.949 670.227 203.709 670.502 204.553C670.777 205.396 670.835 206.296 670.669 207.168C670.527 207.831 670.217 208.447 669.769 208.956C669.32 209.464 668.749 209.849 668.109 210.074C666.784 210.624 665.302 210.665 663.949 210.189C663.718 211.072 663.68 213.312 664.089 213.683C664.283 213.884 664.513 214.045 664.768 214.157C666.701 213.99 673.523 211.021 675.481 209.037C677.44 207.053 678.041 202.739 675.891 197.901C675.289 196.632 674.309 195.581 673.084 194.893C671.86 194.206 670.453 193.915 669.056 194.061C668.924 194.06 668.796 194.011 668.698 193.923C668.599 193.834 668.537 193.713 668.523 193.581C668.509 193.45 668.543 193.317 668.62 193.21C668.698 193.102 668.811 193.027 668.941 192.998C668.941 192.998 674.637 192.397 676.877 197.491C678.95 202.189 678.681 207.373 676.237 209.805C674.086 211.955 667.161 214.925 664.921 215.194L664.729 215.283Z" fill="#1B1C1C"/>
<path d="M659.533 223.923C659.39 223.923 659.253 223.867 659.153 223.766C659.052 223.665 658.995 223.528 658.995 223.386C658.995 223.219 658.995 219.43 660.697 217.6C661.875 216.386 663.16 215.28 664.537 214.298C664.781 214.118 665.408 215.002 665.165 215.168C663.871 216.109 662.663 217.163 661.555 218.317C660.16 219.853 660.134 223.347 660.134 223.437C660.128 223.509 660.107 223.579 660.073 223.642C660.039 223.706 659.993 223.762 659.937 223.808C659.881 223.853 659.816 223.887 659.746 223.907C659.677 223.926 659.604 223.932 659.533 223.923ZM667.661 208.115C667.535 208.112 667.413 208.067 667.315 207.987C667.26 207.943 667.214 207.888 667.181 207.825C667.148 207.762 667.128 207.694 667.122 207.623C667.116 207.553 667.124 207.482 667.147 207.414C667.169 207.347 667.204 207.285 667.251 207.232C667.471 206.955 667.623 206.63 667.695 206.283C667.766 205.936 667.754 205.577 667.661 205.235C667.289 204.365 666.701 204.493 666.701 204.493C666.633 204.51 666.562 204.513 666.492 204.502C666.423 204.491 666.356 204.467 666.297 204.43C666.237 204.393 666.185 204.344 666.145 204.287C666.104 204.23 666.076 204.165 666.061 204.096C666.043 204.027 666.04 203.955 666.051 203.885C666.062 203.815 666.086 203.748 666.123 203.687C666.16 203.626 666.208 203.573 666.266 203.532C666.323 203.49 666.388 203.46 666.457 203.443C666.926 203.373 667.404 203.472 667.805 203.723C668.207 203.974 668.505 204.361 668.646 204.813C668.824 205.337 668.865 205.899 668.764 206.443C668.663 206.988 668.424 207.497 668.07 207.923C668.021 207.984 667.958 208.032 667.887 208.066C667.816 208.099 667.739 208.116 667.661 208.115Z" fill="#1B1C1C"/>
<path d="M664.768 207.501C664.682 207.5 664.598 207.478 664.523 207.438C664.448 207.398 664.383 207.341 664.334 207.27C664.285 207.2 664.254 207.12 664.243 207.035C664.231 206.951 664.24 206.864 664.268 206.784C664.395 206.432 664.597 206.113 664.86 205.847C665.123 205.582 665.441 205.377 665.792 205.248C666.639 205.1 667.505 205.1 668.352 205.248C668.425 205.254 668.495 205.275 668.56 205.31C668.624 205.345 668.681 205.392 668.726 205.45C668.772 205.507 668.805 205.573 668.824 205.644C668.843 205.714 668.848 205.788 668.837 205.861C668.827 205.933 668.802 206.002 668.763 206.065C668.725 206.127 668.675 206.181 668.615 206.223C668.555 206.265 668.487 206.295 668.415 206.31C668.344 206.325 668.27 206.325 668.198 206.31C667.49 206.194 666.768 206.194 666.06 206.31C665.87 206.395 665.698 206.516 665.555 206.668C665.412 206.82 665.301 206.998 665.228 207.194C665.187 207.282 665.122 207.357 665.041 207.411C664.959 207.465 664.865 207.496 664.768 207.501ZM655.168 202.931C655.168 203.111 655.096 203.284 654.969 203.411C654.842 203.538 654.669 203.61 654.489 203.61C654.309 203.61 654.137 203.538 654.01 203.411C653.882 203.284 653.811 203.111 653.811 202.931C653.811 202.751 653.882 202.579 654.01 202.452C654.137 202.324 654.309 202.253 654.489 202.253C654.669 202.253 654.842 202.324 654.969 202.452C655.096 202.579 655.168 202.751 655.168 202.931ZM657.92 202.112C657.814 202.113 657.711 202.084 657.622 202.027C657.533 201.97 657.463 201.888 657.42 201.792C657.171 201.354 656.841 200.967 656.448 200.653C655.838 200.282 655.118 200.137 654.412 200.243C654.278 200.25 654.145 200.206 654.041 200.12C653.937 200.033 653.87 199.911 653.852 199.777C653.834 199.643 653.868 199.507 653.945 199.397C654.023 199.286 654.14 199.209 654.272 199.181C655.275 199.031 656.299 199.264 657.139 199.834C657.676 200.243 658.113 200.768 658.419 201.37C658.475 201.499 658.479 201.645 658.428 201.777C658.378 201.908 658.278 202.015 658.15 202.074L657.92 202.112ZM605.196 287.309C595.136 287.309 585.664 287.053 583.27 286.49L580.812 285.939C577.139 285.12 575.296 284.659 573.132 282.867C571.249 281.486 569.134 280.454 566.886 279.821C566.749 279.785 566.632 279.696 566.56 279.573C566.488 279.451 566.467 279.305 566.502 279.168C566.541 279.03 566.632 278.912 566.757 278.841C566.881 278.769 567.029 278.749 567.168 278.784C569.568 279.455 571.824 280.561 573.824 282.048C575.82 283.712 577.472 284.083 581.094 284.89L583.564 285.44C588.62 286.63 630.4 286.451 632.678 285.235C634.163 284.237 644.313 271.616 648.102 266.842C648.192 266.732 648.321 266.662 648.462 266.645C648.602 266.629 648.744 266.667 648.857 266.752C648.914 266.795 648.962 266.848 648.997 266.91C649.033 266.972 649.056 267.04 649.064 267.11C649.072 267.181 649.066 267.253 649.046 267.321C649.026 267.389 648.992 267.452 648.947 267.507C647.552 269.286 635.174 284.864 633.267 286.131C632.102 286.886 618.15 287.309 605.196 287.309Z" fill="#1B1C1C"/>
<path d="M573.619 279.91C573.539 279.91 573.46 279.893 573.387 279.86C573.314 279.827 573.249 279.779 573.197 279.718C573.197 279.718 571.776 278.029 570.278 276.493C569.584 275.694 568.65 275.142 567.616 274.918C567.473 274.903 567.343 274.832 567.253 274.72C567.163 274.609 567.121 274.466 567.136 274.323C567.151 274.181 567.222 274.05 567.334 273.96C567.446 273.87 567.589 273.828 567.731 273.843C569.015 274.101 570.182 274.765 571.059 275.738C572.569 277.312 574.016 279.014 574.029 279.027C574.128 279.128 574.184 279.263 574.184 279.405C574.184 279.546 574.128 279.682 574.029 279.782C573.973 279.831 573.908 279.868 573.838 279.89C573.767 279.912 573.693 279.919 573.619 279.91ZM576.141 277.414H576C574.766 276.978 573.665 276.233 572.8 275.251C571.314 273.559 570.006 271.719 568.896 269.76C568.825 269.636 568.805 269.489 568.843 269.351C568.88 269.213 568.97 269.095 569.094 269.024C569.218 268.953 569.365 268.934 569.503 268.971C569.641 269.008 569.759 269.098 569.83 269.222C570.894 271.095 572.142 272.858 573.555 274.483C574.289 275.321 575.216 275.966 576.256 276.365C576.386 276.394 576.501 276.47 576.578 276.579C576.656 276.688 576.69 276.821 576.674 276.954C576.658 277.087 576.593 277.208 576.492 277.296C576.391 277.383 576.261 277.43 576.128 277.427L576.141 277.414ZM592.947 279.475C591.795 279.475 590.873 279.475 590.272 279.386C586.432 278.976 583.501 275.123 581.529 272.563C580.986 271.789 580.364 271.072 579.673 270.426C579.63 271.232 579.69 272.041 579.853 272.832C580.109 274.611 580.339 276.134 579.507 276.672C579.399 276.739 579.279 276.784 579.154 276.804C579.029 276.823 578.901 276.818 578.777 276.787C577.216 276.454 574.08 271.667 573.158 270.118C573.082 269.998 573.057 269.852 573.088 269.713C573.119 269.573 573.204 269.452 573.325 269.376C573.445 269.3 573.591 269.274 573.73 269.305C573.87 269.337 573.991 269.422 574.067 269.542C576.038 272.717 578.214 275.469 578.944 275.725C579.035 274.805 578.983 273.877 578.79 272.973C578.534 271.245 578.406 270.157 578.905 269.606C578.997 269.501 579.111 269.418 579.24 269.365C579.369 269.312 579.509 269.289 579.648 269.299C580.365 269.299 581.043 270.157 582.374 271.859C584.243 274.266 587.046 277.914 590.387 278.259C595.75 278.822 624.486 276.698 626.88 274.829C629.273 272.96 636.198 262.618 636.262 262.515C636.302 262.456 636.352 262.406 636.411 262.367C636.47 262.327 636.537 262.3 636.606 262.287C636.676 262.273 636.747 262.273 636.817 262.287C636.886 262.301 636.952 262.328 637.011 262.368C637.07 262.407 637.12 262.458 637.16 262.517C637.199 262.576 637.226 262.642 637.24 262.712C637.253 262.781 637.253 262.853 637.239 262.922C637.225 262.992 637.198 263.058 637.158 263.117C636.877 263.539 630.195 273.613 627.545 275.686C624.896 277.76 601.856 279.475 592.947 279.475ZM627.353 413.914C627.353 413.914 617.19 421.274 614.029 422.477C610.88 423.511 607.675 424.366 604.429 425.037L639.488 425.523L637.709 413.555L627.353 413.914ZM709.657 404.378L720.102 410.483C720.102 410.483 715.277 416 714.88 421.12C714.483 426.24 714.24 430.08 714.24 430.08H699.072C699.072 430.08 708.467 425.306 708.262 423.552C708.057 421.798 706.713 417.242 706.022 414.374C705.53 412.444 704.919 410.546 704.192 408.691L709.657 404.378Z" fill="#1B1C1C"/>
<path d="M401.357 275.379L400.832 279.219C400.832 279.219 404.506 277.645 406.08 278.694C407.654 279.744 407.142 280.998 409.446 280.896C410.02 280.932 410.595 280.835 411.125 280.613C411.656 280.391 412.128 280.05 412.506 279.616V275.405L401.357 275.379Z" fill="white"/>
<path d="M411.918 281.37C411.776 281.347 411.648 281.271 411.562 281.156C411.476 281.041 411.438 280.897 411.457 280.755L412.34 274.355C412.344 274.281 412.363 274.208 412.396 274.142C412.429 274.076 412.476 274.017 412.533 273.969C412.59 273.922 412.656 273.887 412.728 273.866C412.799 273.845 412.874 273.84 412.948 273.85C413.021 273.859 413.092 273.884 413.155 273.923C413.219 273.961 413.274 274.012 413.317 274.073C413.359 274.134 413.389 274.203 413.404 274.276C413.419 274.348 413.418 274.423 413.402 274.496L412.519 280.896C412.511 280.967 412.489 281.035 412.455 281.098C412.42 281.16 412.373 281.215 412.317 281.259C412.262 281.303 412.197 281.335 412.129 281.354C412.06 281.373 411.988 281.379 411.918 281.37ZM401.383 280.845C401.243 280.855 401.103 280.81 400.996 280.719C400.888 280.629 400.82 280.499 400.807 280.358L400.321 274.483C400.316 274.413 400.324 274.342 400.347 274.274C400.369 274.207 400.404 274.145 400.451 274.091C400.497 274.038 400.554 273.994 400.617 273.962C400.68 273.931 400.749 273.912 400.82 273.907C400.961 273.897 401.1 273.942 401.208 274.033C401.315 274.124 401.383 274.253 401.396 274.394L401.921 280.32C401.917 280.46 401.859 280.594 401.759 280.692C401.658 280.79 401.524 280.845 401.383 280.845Z" fill="#1B1C1C"/>
<path d="M316.275 339.2L316.621 347.75C316.621 347.75 319.565 345.779 321.6 346.97C323.635 348.16 323.84 350.413 325.043 350.413C326.247 350.413 327.603 348.723 327.603 348.723L328.883 340.8L316.275 339.2Z" fill="white"/>
<path d="M316.685 348.941L316.084 339.264C316.08 339.193 316.091 339.123 316.115 339.056C316.138 338.99 316.175 338.929 316.223 338.876C316.27 338.824 316.328 338.781 316.392 338.751C316.456 338.721 316.525 338.704 316.596 338.701C316.667 338.694 316.739 338.702 316.807 338.724C316.875 338.747 316.938 338.783 316.991 338.831C317.044 338.88 317.087 338.939 317.116 339.004C317.144 339.07 317.159 339.141 317.159 339.213L317.581 347.456L316.685 348.941ZM326.72 351.501H326.644C326.502 351.479 326.374 351.402 326.288 351.287C326.202 351.173 326.164 351.029 326.183 350.886L327.872 339.917C327.882 339.846 327.905 339.778 327.941 339.717C327.978 339.656 328.026 339.603 328.084 339.561C328.141 339.519 328.206 339.489 328.276 339.474C328.345 339.458 328.417 339.456 328.487 339.469C328.626 339.494 328.751 339.572 328.834 339.686C328.917 339.801 328.954 339.943 328.935 340.083L327.245 351.053C327.224 351.177 327.16 351.29 327.064 351.372C326.968 351.454 326.847 351.5 326.72 351.501Z" fill="#1B1C1C"/>
<path d="M363.597 201.549C363.597 201.549 414.503 188.16 419.264 191.04C424.026 193.92 413.235 275.379 413.235 275.379H400.435C400.435 275.379 398.119 250.982 397.696 240.883C397.274 230.784 398.746 224.243 398.119 224.243C397.491 224.243 397.914 224.87 395.277 223.398C392.64 221.926 376.077 242.125 359.834 243.174C343.591 244.224 340.275 244.224 340.275 244.224C340.275 244.224 337.549 291.341 335.859 299.123C334.17 306.906 328.96 340.787 328.96 340.787L315.712 339.11L306.253 207.616L335.834 195.84L363.597 201.549Z" fill="#FFD141"/>
<path d="M398.823 296.832C398.823 296.358 400.833 279.168 400.833 279.168C400.833 279.168 401.934 276.749 407.028 277.171C412.122 277.594 412.506 279.59 412.506 279.59C412.506 279.59 415.502 288.55 424.026 291.52C432.551 294.49 439.015 296.832 439.015 296.832H398.823ZM315.854 363.021C315.918 362.458 316.622 347.738 316.622 347.738C316.622 347.738 317.121 344.576 320.897 345.178C323.437 345.699 325.773 346.939 327.63 348.749C330.903 352.538 334.799 355.742 339.15 358.221C343.293 360.276 347.639 361.898 352.116 363.059L315.854 363.021ZM338.599 244.877C336.18 244.877 331.764 244.263 326.145 239.949C318.874 234.355 316.622 229.632 316.519 229.44C316.462 229.309 316.458 229.161 316.508 229.027C316.559 228.894 316.659 228.785 316.788 228.723C316.851 228.693 316.919 228.676 316.989 228.673C317.058 228.669 317.128 228.68 317.194 228.704C317.259 228.727 317.319 228.764 317.371 228.811C317.422 228.859 317.463 228.916 317.492 228.979C317.492 228.979 319.758 233.677 326.798 239.091C333.543 244.211 338.202 243.878 339.969 243.738H340.212C340.283 243.732 340.354 243.741 340.421 243.764C340.488 243.786 340.55 243.821 340.604 243.868C340.657 243.914 340.701 243.97 340.733 244.034C340.764 244.097 340.783 244.166 340.788 244.237C340.793 244.308 340.784 244.379 340.762 244.446C340.74 244.513 340.704 244.575 340.658 244.629C340.612 244.682 340.555 244.726 340.492 244.758C340.428 244.789 340.359 244.808 340.289 244.813H340.058C339.573 244.861 339.086 244.882 338.599 244.877ZM406.708 275.341C406.708 275.341 410.548 209.715 408.615 207.373C407.335 205.837 399.284 208.768 391.514 211.61C383.988 214.362 375.463 217.485 368.41 218.598C352.884 221.056 349.646 210.253 349.62 210.15C349.6 210.082 349.595 210.011 349.603 209.941C349.611 209.87 349.633 209.802 349.667 209.741C349.702 209.679 349.748 209.624 349.804 209.58C349.859 209.537 349.923 209.504 349.991 209.485C350.129 209.449 350.275 209.467 350.399 209.537C350.523 209.606 350.615 209.72 350.657 209.856C350.772 210.266 353.678 219.853 368.244 217.536C375.182 216.435 383.668 213.338 391.143 210.598C401.69 206.758 407.783 204.659 409.434 206.669C412.34 210.112 407.783 275.418 407.783 275.418L406.708 275.341Z" fill="#1B1C1C"/>
<path d="M322.049 339.994L321.127 235.29C321.13 235.147 321.187 235.011 321.287 234.908C321.387 234.806 321.522 234.746 321.665 234.739C321.807 234.739 321.944 234.796 322.045 234.897C322.146 234.998 322.202 235.134 322.202 235.277L323.124 339.981L322.049 339.994Z" fill="#1B1C1C"/>
<path d="M418.663 94.72C418.663 94.72 426.202 92.6976 428.174 91.8528C430.334 90.712 432.416 89.4292 434.407 88.0128L436.02 93.312C430.132 96.6144 424.5 99.5968 420.033 100.915L418.663 94.72Z" fill="white"/>
<path d="M418.663 95.2321C418.52 95.2321 418.383 95.1755 418.282 95.0747C418.182 94.9738 418.125 94.8371 418.125 94.6945C418.125 94.5519 418.182 94.4152 418.282 94.3144C418.383 94.2136 418.52 94.1569 418.663 94.1569C421.279 93.7886 423.83 93.0517 426.24 91.9681C428.481 90.951 430.623 89.7299 432.64 88.3201C432.755 88.2364 432.898 88.2004 433.038 88.2195C433.179 88.2386 433.307 88.3113 433.395 88.4225C433.438 88.4795 433.468 88.5444 433.486 88.6133C433.503 88.6823 433.506 88.7539 433.495 88.8241C433.485 88.8944 433.46 88.9618 433.423 89.0224C433.386 89.0831 433.338 89.1359 433.28 89.1777C431.198 90.6345 428.982 91.8903 426.663 92.9281C424.15 94.0663 421.485 94.8338 418.752 95.2065L418.663 95.2321Z" fill="#1B1C1C"/>
<path d="M427.637 72.0581L468.532 59.0776L482.786 103.986L441.891 116.967L427.637 72.0581Z" fill="#57B9A2"/>
<path d="M426.522 107.968C426.522 107.968 438.823 101.568 442.266 99.8912C445.709 98.2144 460.186 98.4192 461.543 97.2288C462.9 96.0384 461.543 83.6224 458.701 84.8128C457.908 86.0032 447.053 90.7904 446.042 88.96C445.62 88 449.69 81.28 448.794 81.152C445.978 79.5008 443.239 89.3824 438.682 91.5456C434.241 95.232 423.565 99.9936 423.565 99.9936L426.522 107.968Z" fill="white"/>
<path d="M424.448 100.147C424.326 100.148 424.207 100.106 424.112 100.03C424.016 99.9536 423.949 99.847 423.922 99.7277C423.895 99.6083 423.91 99.4834 423.964 99.3735C424.018 99.2636 424.107 99.1754 424.218 99.1233C427.84 97.4209 437.543 92.5953 439.04 90.7777C439.463 90.2657 440.09 89.4209 440.832 88.4353C444.672 83.3153 446.899 80.6145 448.179 80.5633C448.317 80.5532 448.454 80.5757 448.581 80.6291C448.708 80.6825 448.82 80.7652 448.909 80.8705C449.703 81.7793 448.819 83.5457 447.808 85.6065C447.249 86.5235 446.858 87.5337 446.656 88.5889C447.821 89.0625 452.583 87.9873 454.951 86.6689C456.223 85.9912 457.388 85.1285 458.407 84.1089C458.507 84.0096 458.643 83.9539 458.784 83.9539C458.926 83.9539 459.061 84.0096 459.162 84.1089C459.213 84.1578 459.253 84.2165 459.28 84.2814C459.308 84.3462 459.322 84.416 459.322 84.4865C459.322 84.5569 459.308 84.6267 459.28 84.6916C459.253 84.7565 459.213 84.8151 459.162 84.8641C458.07 85.9809 456.809 86.9183 455.424 87.6417C453.12 88.9217 447.936 90.3297 446.144 89.5745C446.019 89.5228 445.906 89.4462 445.811 89.3494C445.717 89.2526 445.643 89.1376 445.594 89.0113C445.312 88.2305 445.863 87.0401 446.797 85.1713C447.283 84.1985 448.256 82.2145 448.077 81.7025C446.963 81.9841 443.239 86.9633 441.677 89.1265C440.935 90.1249 440.282 90.9953 439.859 91.5201C437.901 93.8881 425.203 99.8913 424.666 100.147C424.594 100.164 424.52 100.164 424.448 100.147ZM450.675 92.0193C450.533 92.0193 450.396 91.9626 450.295 91.8618C450.194 91.761 450.138 91.6243 450.138 91.4817C450.138 91.3391 450.194 91.2023 450.295 91.1015C450.396 91.0007 450.533 90.9441 450.675 90.9441C452.592 90.8193 454.485 90.4493 456.307 89.8433C458.204 89.3054 459.892 88.2026 461.146 86.6817C461.187 86.6237 461.239 86.5744 461.299 86.5365C461.36 86.4987 461.427 86.4731 461.497 86.4613C461.567 86.4494 461.639 86.4514 461.708 86.4673C461.777 86.4831 461.843 86.5125 461.901 86.5537C461.959 86.5949 462.008 86.6471 462.046 86.7073C462.084 86.7675 462.11 86.8346 462.121 86.9048C462.133 86.9749 462.131 87.0467 462.115 87.116C462.1 87.1853 462.07 87.2509 462.029 87.3089C460.631 89.0245 458.742 90.2708 456.615 90.8801C454.698 91.5223 452.706 91.9097 450.688 92.0321L450.675 92.0193ZM454.49 95.0785C453.095 95.0682 451.704 94.9441 450.33 94.7073C450.19 94.6793 450.067 94.5983 449.986 94.4814C449.905 94.3644 449.872 94.2206 449.895 94.0801C449.925 93.942 450.007 93.8206 450.123 93.74C450.239 93.6594 450.382 93.6254 450.522 93.6449C450.522 93.6449 454.887 94.4257 457.357 93.6449C459.23 92.9791 461.017 92.094 462.682 91.0081C462.74 90.9679 462.806 90.9399 462.875 90.9259C462.945 90.9119 463.016 90.912 463.086 90.9264C463.155 90.9407 463.221 90.969 463.279 91.0094C463.337 91.0498 463.387 91.1016 463.424 91.1617C463.503 91.2791 463.533 91.4228 463.506 91.5618C463.48 91.7007 463.4 91.8237 463.283 91.9041C461.532 93.068 459.645 94.0136 457.664 94.7201C456.628 94.9877 455.56 95.1084 454.49 95.0785ZM427.008 108.275C426.885 108.279 426.764 108.239 426.666 108.164C426.568 108.089 426.499 107.982 426.471 107.862C426.442 107.742 426.456 107.616 426.509 107.504C426.563 107.393 426.653 107.304 426.765 107.251C426.855 107.251 436.045 102.733 439.04 100.851C442.279 98.8929 449.767 97.6513 454.272 97.8561C457.282 97.8991 460.265 97.2877 463.015 96.0641L463.296 96.5377L463.463 97.0497C460.56 98.3559 457.403 98.9986 454.221 98.9313C449.383 98.7265 442.407 100.058 439.603 101.773C436.557 103.616 427.623 107.968 427.239 108.173C427.172 108.226 427.093 108.261 427.008 108.275Z" fill="#1B1C1C"/>
<path d="M475.597 216.691C471.666 216.691 467.822 217.857 464.553 220.041C461.284 222.226 458.736 225.33 457.232 228.963C455.727 232.595 455.334 236.592 456.101 240.448C456.868 244.304 458.761 247.846 461.541 250.626C464.321 253.406 467.863 255.299 471.719 256.066C475.575 256.833 479.572 256.439 483.204 254.935C486.837 253.43 489.941 250.883 492.125 247.614C494.31 244.345 495.476 240.501 495.476 236.57C495.472 231.299 493.377 226.244 489.65 222.517C485.922 218.79 480.868 216.695 475.597 216.691ZM475.597 251.328C472.678 251.328 469.825 250.463 467.398 248.841C464.971 247.219 463.079 244.914 461.962 242.217C460.845 239.521 460.553 236.553 461.122 233.69C461.692 230.828 463.097 228.198 465.161 226.134C467.225 224.07 469.855 222.664 472.718 222.095C475.581 221.525 478.548 221.818 481.245 222.935C483.942 224.052 486.247 225.943 487.868 228.37C489.49 230.797 490.356 233.651 490.356 236.57C490.356 240.484 488.801 244.238 486.033 247.005C483.265 249.773 479.511 251.328 475.597 251.328Z" fill="#4F266A"/>
<path d="M466.867 164.531L452.147 217.536L496.947 216.691L466.867 164.531Z" fill="#FFD141"/>
<path d="M431.604 128.282H495.476V164.531H431.604V128.282Z" fill="#EE4266"/>
<path d="M303.719 205.133C303.719 205.133 311.719 189.427 314.804 180.736C317.888 172.045 324.903 130.675 332.045 125.76C339.188 120.845 342.567 120.717 342.567 120.717V116.262C342.567 116.262 343.847 115.213 349.133 115.482C354.42 115.75 368.858 113.267 368.858 113.267L418.663 93.0817L420.25 100.762L424.32 98.8929L427.648 109.837C427.648 109.837 386.842 124.877 374.119 143.706C361.396 162.534 360.333 174.618 361.6 185.664C362.868 196.71 363.597 201.536 363.597 201.536C360.72 204.271 357.46 206.574 353.92 208.371C348.25 211.213 338.458 213.427 338.458 213.427L333.837 202.586L329.421 213.427C324.278 213.604 319.138 212.999 314.176 211.635C306.804 209.446 303.719 205.133 303.719 205.133Z" fill="#4F266A"/>
<path d="M347.059 106.637C347.059 106.637 343.565 106.215 343.667 103.168C343.77 100.122 347.046 100.224 347.046 100.224C347.046 100.224 343.616 95.7057 346.56 93.6065C349.504 91.5073 351.245 93.0177 351.245 93.0177C351.158 92.3343 351.323 91.6426 351.709 91.0722C352.096 90.5019 352.677 90.0922 353.344 89.9201C354.892 89.4706 356.553 89.6404 357.978 90.3937C357.978 90.2401 358.81 86.3489 361.971 86.5537C365.133 86.7585 365.542 88.7681 365.542 88.7681C365.542 88.7681 367.885 85.8753 370.47 87.8209C371.18 88.2954 371.674 89.0309 371.844 89.8675C372.014 90.7041 371.847 91.574 371.379 92.2881C371.379 92.2881 375.014 93.0689 373.939 95.7057C372.864 98.3425 371.738 98.6497 371.738 98.6497C371.738 98.6497 372.838 99.9297 372.211 100.903C372.045 101.187 371.775 101.397 371.458 101.488C371.141 101.578 370.801 101.543 370.509 101.389C370.509 101.389 359.846 108.058 355.277 107.904C352.498 107.796 349.741 107.371 347.059 106.637Z" fill="#1B1C1C"/>
<path d="M370.471 100.032C370.471 100.032 370.752 111.36 367.36 114.829C363.968 118.298 361.191 117.696 359.578 117.21C358.735 116.984 357.932 116.63 357.197 116.16L356.288 117.146L347.661 116.864L350.541 110.695C350.541 110.695 344.717 107.674 348.224 104.295C351.731 100.915 353.626 102.259 354.624 103.45C355.22 104.219 355.584 105.143 355.674 106.112C356.979 106.18 358.266 105.786 359.309 104.999C359.869 104.54 360.332 103.975 360.671 103.335C361.009 102.696 361.217 101.995 361.28 101.274C361.28 101.274 363.84 101.274 364.711 99.6609C365.581 98.0481 364.992 97.3441 364.992 97.3441C364.992 97.3441 366.259 102.4 370.471 100.032Z" fill="white"/>
<path d="M347.802 116.979C347.73 116.992 347.656 116.992 347.584 116.979C347.519 116.95 347.46 116.909 347.412 116.857C347.363 116.805 347.325 116.744 347.3 116.677C347.275 116.61 347.263 116.539 347.266 116.468C347.268 116.397 347.285 116.327 347.315 116.262L349.658 111.232C348.59 110.69 347.754 109.781 347.302 108.672C346.957 107.957 346.691 107.205 346.509 106.432C346.509 106.29 346.563 106.154 346.661 106.052C346.759 105.949 346.892 105.888 347.034 105.882C347.104 105.88 347.174 105.892 347.24 105.918C347.306 105.943 347.366 105.981 347.418 106.03C347.469 106.079 347.51 106.137 347.538 106.202C347.567 106.266 347.582 106.336 347.584 106.406C347.584 106.406 347.699 106.778 348.301 108.262C348.512 108.747 348.82 109.185 349.205 109.548C349.59 109.911 350.044 110.192 350.541 110.374C350.614 110.4 350.682 110.44 350.739 110.493C350.797 110.546 350.842 110.61 350.874 110.682C350.906 110.75 350.922 110.824 350.922 110.899C350.922 110.974 350.906 111.049 350.874 111.117L348.314 116.646C348.275 116.75 348.205 116.838 348.113 116.897C348.02 116.957 347.911 116.986 347.802 116.979ZM357.12 116.698C356.993 116.698 356.87 116.653 356.774 116.57L353.101 113.485C353.04 113.442 352.99 113.386 352.952 113.323C352.914 113.259 352.89 113.188 352.88 113.114C352.871 113.041 352.877 112.966 352.899 112.895C352.92 112.824 352.955 112.758 353.003 112.701C353.051 112.644 353.11 112.598 353.176 112.566C353.243 112.533 353.316 112.514 353.39 112.511C353.464 112.507 353.538 112.519 353.607 112.546C353.676 112.573 353.739 112.613 353.792 112.666L357.466 115.75C357.516 115.799 357.557 115.858 357.584 115.923C357.612 115.988 357.626 116.058 357.626 116.128C357.626 116.198 357.612 116.268 357.584 116.333C357.557 116.398 357.516 116.457 357.466 116.506C357.38 116.612 357.256 116.681 357.12 116.698ZM353.997 106.816C353.869 106.815 353.746 106.77 353.648 106.688C353.55 106.607 353.483 106.493 353.459 106.368C353.459 106.368 353.178 104.973 352.256 104.602C352.008 104.499 351.735 104.472 351.472 104.522C351.208 104.572 350.965 104.697 350.771 104.883C350.671 104.969 350.542 105.015 350.41 105.013C350.278 105.01 350.151 104.958 350.054 104.868C349.958 104.778 349.898 104.655 349.886 104.523C349.874 104.391 349.911 104.26 349.99 104.154C350.328 103.806 350.762 103.567 351.237 103.469C351.712 103.371 352.205 103.418 352.653 103.603C353.154 103.864 353.587 104.239 353.918 104.696C354.249 105.154 354.469 105.683 354.56 106.24C354.583 106.379 354.552 106.521 354.474 106.638C354.395 106.754 354.275 106.836 354.138 106.867L353.997 106.816Z" fill="#1B1C1C"/>
<path d="M351.219 108.173H351.155C351.083 108.161 351.014 108.134 350.952 108.094C350.89 108.054 350.837 108.002 350.796 107.941C350.756 107.88 350.728 107.811 350.715 107.738C350.702 107.666 350.703 107.592 350.72 107.52C350.82 106.626 351.084 105.758 351.501 104.96C351.764 104.528 352.092 104.14 352.474 103.808C352.53 103.765 352.594 103.734 352.663 103.716C352.731 103.698 352.802 103.693 352.873 103.703C352.943 103.712 353.01 103.736 353.071 103.771C353.133 103.807 353.186 103.854 353.229 103.91C353.272 103.967 353.303 104.031 353.321 104.099C353.339 104.168 353.344 104.239 353.334 104.309C353.325 104.379 353.301 104.447 353.266 104.508C353.23 104.569 353.183 104.623 353.127 104.666C352.847 104.928 352.602 105.225 352.397 105.549C352.073 106.217 351.865 106.936 351.783 107.674C351.773 107.814 351.708 107.945 351.603 108.038C351.498 108.132 351.36 108.18 351.219 108.173ZM362.867 118.042C361.583 118.058 360.308 117.836 359.104 117.389C358.976 117.33 358.876 117.223 358.826 117.092C358.776 116.96 358.779 116.814 358.835 116.685C358.862 116.619 358.901 116.559 358.952 116.509C359.002 116.459 359.061 116.42 359.127 116.394C359.193 116.367 359.263 116.355 359.334 116.356C359.405 116.358 359.475 116.374 359.539 116.403C360.61 116.791 361.742 116.982 362.88 116.966C364.775 116.966 365.875 116.006 368.307 112.282C370.586 108.762 369.971 100.16 369.971 100.07C369.961 99.9278 370.008 99.787 370.102 99.679C370.195 99.571 370.328 99.5046 370.471 99.4944C370.613 99.4842 370.754 99.5311 370.862 99.6247C370.97 99.7183 371.036 99.851 371.047 99.9936C371.047 100.365 371.687 109.043 369.203 112.87C366.81 116.48 365.402 118.042 362.867 118.042Z" fill="#1B1C1C"/>
<path d="M365.274 111.501C364.87 111.489 364.47 111.424 364.083 111.309C364.015 111.29 363.952 111.257 363.896 111.213C363.84 111.169 363.794 111.115 363.759 111.053C363.725 110.991 363.703 110.923 363.695 110.853C363.687 110.783 363.693 110.711 363.712 110.643C363.731 110.575 363.764 110.512 363.808 110.457C363.852 110.402 363.907 110.356 363.969 110.323C364.031 110.289 364.099 110.268 364.169 110.262C364.24 110.256 364.311 110.263 364.378 110.285C364.714 110.386 365.064 110.433 365.415 110.426C365.29 109.468 365.071 108.525 364.762 107.61C364.719 107.472 364.733 107.323 364.8 107.196C364.868 107.069 364.983 106.974 365.12 106.931C365.258 106.889 365.406 106.903 365.534 106.97C365.661 107.037 365.756 107.152 365.799 107.29C366.797 110.528 366.439 110.95 366.298 111.13C366.165 111.263 366.004 111.365 365.827 111.43C365.65 111.494 365.461 111.518 365.274 111.501ZM363.904 114.33C363.306 114.336 362.71 114.25 362.138 114.074C361.269 113.774 360.531 113.181 360.051 112.397C360.015 112.336 359.99 112.268 359.98 112.197C359.97 112.126 359.974 112.054 359.992 111.985C360.01 111.916 360.041 111.851 360.084 111.795C360.127 111.738 360.182 111.69 360.243 111.654C360.369 111.585 360.518 111.567 360.656 111.605C360.795 111.644 360.913 111.735 360.986 111.859C361.329 112.415 361.854 112.835 362.471 113.05C363.172 113.257 363.909 113.314 364.634 113.216C364.707 113.193 364.784 113.185 364.861 113.194C364.937 113.204 365.011 113.229 365.076 113.269C365.142 113.309 365.198 113.363 365.242 113.426C365.285 113.49 365.314 113.562 365.327 113.638C365.34 113.714 365.336 113.791 365.317 113.866C365.297 113.94 365.262 114.009 365.213 114.069C365.164 114.128 365.103 114.177 365.034 114.211C364.965 114.245 364.89 114.263 364.813 114.266C364.513 114.315 364.208 114.336 363.904 114.33Z" fill="#1B1C1C"/>
<path d="M362.24 109.747C360.589 109.747 359.283 107.866 359.283 105.459C359.283 103.053 360.55 101.12 362.24 101.12C363.93 101.12 365.21 103.002 365.21 105.408C365.21 107.815 363.866 109.747 362.24 109.747ZM362.24 102.247C361.229 102.247 360.358 103.719 360.358 105.459C360.358 107.2 361.229 108.672 362.24 108.672C363.251 108.672 364.134 107.2 364.134 105.459C364.134 103.719 363.226 102.247 362.24 102.247ZM370.304 109.747C368.653 109.747 367.347 107.866 367.347 105.459C367.347 103.053 368.64 101.12 370.304 101.12C371.968 101.12 373.274 103.002 373.274 105.408C373.274 107.815 371.968 109.747 370.304 109.747ZM370.304 102.247C369.293 102.247 368.422 103.719 368.422 105.459C368.422 107.2 369.293 108.672 370.304 108.672C371.315 108.672 372.198 107.2 372.198 105.459C372.198 103.719 371.328 102.247 370.304 102.247Z" fill="#1B1C1C"/>
<path d="M367.885 105.779L364.634 105.702C364.562 105.703 364.492 105.688 364.427 105.66C364.361 105.632 364.302 105.591 364.253 105.54C364.204 105.488 364.166 105.427 364.141 105.361C364.116 105.294 364.105 105.223 364.109 105.152C364.11 105.081 364.126 105.012 364.155 104.947C364.183 104.883 364.224 104.824 364.275 104.776C364.326 104.727 364.387 104.689 364.452 104.663C364.518 104.638 364.589 104.626 364.659 104.627L367.91 104.704C368.053 104.704 368.19 104.761 368.291 104.861C368.391 104.962 368.448 105.099 368.448 105.242C368.448 105.384 368.391 105.521 368.291 105.622C368.19 105.723 368.053 105.779 367.91 105.779H367.885ZM362.803 105.728C362.805 105.781 362.796 105.834 362.777 105.884C362.758 105.933 362.729 105.979 362.692 106.017C362.655 106.055 362.61 106.086 362.561 106.106C362.512 106.127 362.46 106.138 362.406 106.138C362.347 106.148 362.287 106.146 362.229 106.13C362.171 106.115 362.117 106.087 362.071 106.049C362.025 106.01 361.989 105.962 361.963 105.908C361.938 105.853 361.925 105.794 361.925 105.734C361.925 105.675 361.938 105.615 361.963 105.561C361.989 105.507 362.025 105.459 362.071 105.42C362.117 105.382 362.171 105.354 362.229 105.339C362.287 105.323 362.347 105.321 362.406 105.331C362.512 105.331 362.613 105.373 362.687 105.447C362.761 105.522 362.803 105.623 362.803 105.728ZM369.677 105.574C369.66 105.669 369.61 105.755 369.537 105.816C369.463 105.878 369.37 105.912 369.274 105.912C369.177 105.912 369.084 105.878 369.011 105.816C368.937 105.755 368.887 105.669 368.87 105.574C368.86 105.515 368.862 105.455 368.878 105.397C368.893 105.339 368.921 105.285 368.96 105.239C368.998 105.193 369.046 105.157 369.1 105.131C369.155 105.106 369.214 105.093 369.274 105.093C369.334 105.093 369.393 105.106 369.447 105.131C369.501 105.157 369.549 105.193 369.588 105.239C369.626 105.285 369.654 105.339 369.669 105.397C369.685 105.455 369.687 105.515 369.677 105.574ZM352 127.565C351.922 127.565 351.844 127.548 351.773 127.515C351.703 127.482 351.64 127.433 351.59 127.373C351.544 127.32 351.508 127.258 351.486 127.19C351.464 127.123 351.455 127.052 351.461 126.982C351.467 126.911 351.487 126.842 351.521 126.78C351.554 126.717 351.599 126.662 351.654 126.618C352 126.323 360.166 119.373 364.774 118.093C369.382 116.813 419.366 100.595 419.814 100.429C419.95 100.385 420.098 100.396 420.225 100.461C420.352 100.526 420.449 100.639 420.493 100.774C420.537 100.91 420.525 101.058 420.461 101.185C420.396 101.312 420.283 101.409 420.147 101.453C419.648 101.619 369.51 117.875 365.018 119.13C360.525 120.384 352.384 127.36 352.294 127.437C352.213 127.511 352.11 127.556 352 127.565ZM352.781 121.254H342.541C342.398 121.254 342.262 121.198 342.161 121.097C342.06 120.996 342.003 120.859 342.003 120.717C342.003 120.574 342.06 120.438 342.161 120.337C342.262 120.236 342.398 120.179 342.541 120.179H352.781C352.923 120.179 353.06 120.236 353.161 120.337C353.262 120.438 353.318 120.574 353.318 120.717C353.318 120.859 353.262 120.996 353.161 121.097C353.06 121.198 352.923 121.254 352.781 121.254ZM342.566 165.12C342.451 165.125 342.338 165.089 342.246 165.018C339.337 162.599 337.256 159.332 336.294 155.674C334.733 149.734 335.424 146.483 335.45 146.342C335.486 146.207 335.572 146.089 335.69 146.013C335.809 145.938 335.951 145.909 336.09 145.933C336.229 145.963 336.35 146.048 336.427 146.168C336.504 146.288 336.53 146.434 336.499 146.573C336.156 149.543 336.439 152.551 337.331 155.405C338.248 158.821 340.186 161.875 342.886 164.16C342.973 164.228 343.037 164.322 343.069 164.428C343.101 164.534 343.099 164.648 343.064 164.753C343.029 164.858 342.962 164.949 342.873 165.015C342.784 165.081 342.677 165.117 342.566 165.12Z" fill="#1B1C1C"/>
<path d="M285.35 434.176L297.549 433.229L295.245 420.186L284.301 420.083L285.35 434.176Z" fill="white"/>
<path d="M285.351 434.176C285.208 434.176 285.072 434.119 284.971 434.019C284.87 433.918 284.813 433.781 284.813 433.638C284.813 433.496 284.87 433.359 284.971 433.258C285.072 433.158 285.208 433.101 285.351 433.101L297.549 432.154C297.62 432.147 297.692 432.154 297.76 432.176C297.828 432.197 297.891 432.233 297.945 432.279C297.999 432.326 298.043 432.383 298.074 432.448C298.105 432.512 298.122 432.582 298.125 432.653C298.136 432.794 298.091 432.933 298 433.04C297.909 433.148 297.78 433.216 297.639 433.229L285.441 434.176H285.351Z" fill="#1B1C1C"/>
<path d="M288.295 415.667H299.687L295.245 420.186L289.562 420.083L288.295 415.667Z" fill="white"/>
<path d="M299.686 416.742H288.294C288.224 416.742 288.154 416.729 288.089 416.702C288.023 416.675 287.964 416.635 287.914 416.585C287.864 416.535 287.825 416.476 287.798 416.411C287.771 416.345 287.757 416.275 287.757 416.205C287.757 416.134 287.771 416.064 287.798 415.999C287.825 415.934 287.864 415.875 287.914 415.825C287.964 415.775 288.023 415.735 288.089 415.708C288.154 415.681 288.224 415.667 288.294 415.667H299.686C299.829 415.667 299.966 415.724 300.067 415.825C300.167 415.926 300.224 416.062 300.224 416.205C300.224 416.347 300.167 416.484 300.067 416.585C299.966 416.686 299.829 416.742 299.686 416.742Z" fill="#1B1C1C"/>
<path d="M288.294 415.667L260.326 413.35C260.326 413.35 273.126 351.104 265.869 337.421C258.611 323.738 249.318 320.614 249.318 320.614C249.318 320.614 227.929 349.632 226.457 358.669C225.565 364.022 226.005 369.513 227.737 374.656C227.737 374.656 216.998 433.92 222.72 437.76C228.441 441.6 285.44 434.176 285.44 434.176L284.39 420.096H289.651L288.294 415.667Z" fill="#EE4266"/>
<path d="M284.301 420.621C281.241 420.621 254.246 419.994 251.379 417.702C249.766 416.422 252.454 406.669 259.059 384.742C263.078 371.264 267.238 357.338 267.545 352.333C268.147 342.323 264.384 334.413 260.659 330.304C259.055 328.435 257.183 326.813 255.104 325.491C254.978 325.422 254.885 325.305 254.846 325.167C254.806 325.029 254.823 324.881 254.893 324.755C254.962 324.63 255.079 324.537 255.217 324.497C255.355 324.458 255.503 324.474 255.629 324.544C257.815 325.914 259.779 327.611 261.453 329.574C265.293 333.824 269.248 342.054 268.621 352.397C268.301 357.517 264.128 371.52 260.096 385.05C256.064 398.579 251.046 415.373 252.134 416.883C254.067 418.419 272.486 419.328 284.39 419.546C284.461 419.547 284.53 419.563 284.595 419.591C284.66 419.62 284.718 419.661 284.767 419.712C284.815 419.763 284.854 419.823 284.879 419.889C284.904 419.955 284.917 420.025 284.915 420.096C284.916 420.173 284.9 420.25 284.868 420.32C284.837 420.39 284.79 420.453 284.731 420.503C284.672 420.553 284.603 420.589 284.529 420.61C284.455 420.63 284.377 420.634 284.301 420.621Z" fill="#1B1C1C"/>
<path d="M250.88 429.504C243.2 429.504 237.043 429.286 236.275 428.634C235.123 427.648 236.455 420.173 241.306 396.634C243.955 383.744 246.707 370.406 247.591 362.918C249.498 346.483 244.237 339.059 244.186 338.982C244.144 338.926 244.113 338.863 244.096 338.795C244.08 338.727 244.076 338.656 244.087 338.587C244.098 338.518 244.122 338.451 244.159 338.392C244.196 338.332 244.244 338.281 244.301 338.24C244.358 338.198 244.423 338.167 244.492 338.15C244.561 338.133 244.632 338.129 244.703 338.14C244.773 338.151 244.84 338.175 244.901 338.212C244.962 338.249 245.014 338.298 245.056 338.355C245.287 338.662 250.624 346.202 248.653 363.046C247.77 370.586 245.018 383.936 242.355 396.851C239.501 410.701 236.263 426.381 237.018 427.827C238.733 428.877 284.954 427.648 284.954 427.648V428.723C284.954 428.723 263.36 429.504 250.88 429.504ZM295.437 420.736L284.288 420.621V419.546L295.911 419.661L295.437 420.736Z" fill="#1B1C1C"/>
<path d="M342.772 425.446L311.86 409.997L304.922 416.512L301.44 413.888L295.245 420.186L297.549 433.229L339.405 432.218L325.952 427.136L342.772 425.446Z" fill="#1B1C1C"/>
<path d="M140.646 313.446C138.778 312.693 137.083 311.564 135.667 310.131C134.195 308.237 133.811 308.07 133.811 308.07C133.811 308.07 139.533 303.386 137.562 300.25C136.614 295.731 131.546 296.41 131.648 295.885C131.75 295.36 132.16 284.749 123.098 284.57C118.118 283.469 113.382 286.413 110.784 288.922C108.659 290.957 108.454 292.582 106.611 292.634C102.771 292.058 108.006 285.875 100.685 287.68C96.4736 288.845 93.2992 290.893 92.7744 294.784C93.0432 301.594 95.5008 305.664 100.57 307.277C105.088 307.802 105.69 306.931 105.69 306.931C105.69 306.931 106.97 316.493 114.522 319.731C116.805 320.683 119.254 321.172 121.728 321.172C124.202 321.172 126.651 320.683 128.934 319.731L136.717 326.259L140.646 313.446Z" fill="white"/>
<path d="M122.688 321.741H122.112C112.883 321.472 109.901 317.338 107.942 314.598L107.763 314.355C106.476 312.315 105.606 310.039 105.203 307.661C103.645 308.118 101.994 308.152 100.419 307.758C98.8438 307.364 97.4024 306.557 96.2431 305.421C91.6735 301.21 92.4031 294.349 92.4031 294.054C92.4192 293.914 92.49 293.785 92.6003 293.697C92.7105 293.608 92.8512 293.566 92.9919 293.581C93.0626 293.587 93.1314 293.608 93.1942 293.641C93.257 293.674 93.3126 293.719 93.3578 293.774C93.403 293.829 93.437 293.892 93.4577 293.96C93.4783 294.028 93.4853 294.099 93.4783 294.17C93.4783 294.234 92.8255 300.787 96.9983 304.627C98.0786 305.712 99.4494 306.462 100.946 306.787C102.442 307.112 104.001 306.997 105.433 306.458C105.509 306.419 105.592 306.399 105.677 306.399C105.761 306.399 105.845 306.419 105.92 306.458C105.995 306.497 106.059 306.553 106.108 306.622C106.157 306.691 106.189 306.771 106.201 306.854C106.558 309.284 107.398 311.616 108.672 313.715L108.851 313.958C110.809 316.672 113.485 320.358 122.189 320.653C130.893 320.947 131.737 314.701 131.737 314.65C131.739 314.575 131.757 314.501 131.788 314.433C131.82 314.365 131.866 314.305 131.923 314.255C131.979 314.206 132.046 314.17 132.118 314.148C132.189 314.126 132.265 314.119 132.339 314.128C132.414 314.137 132.486 314.161 132.55 314.2C132.614 314.238 132.67 314.289 132.714 314.351C132.757 314.412 132.787 314.481 132.802 314.555C132.817 314.629 132.816 314.704 132.8 314.778C132.761 314.88 131.84 321.741 122.688 321.741Z" fill="#1B1C1C"/>
<path d="M102.951 302.413H102.657C101.159 302.285 99.5717 301.133 97.9461 299.072C96.8398 297.749 96.1389 296.134 95.9277 294.422C95.7166 292.71 96.0041 290.973 96.7557 289.421C96.7857 289.351 96.8302 289.288 96.8864 289.236C96.9425 289.185 97.0089 289.146 97.0813 289.122C97.1537 289.098 97.2303 289.09 97.3061 289.098C97.3819 289.105 97.4551 289.129 97.5209 289.168C97.5868 289.206 97.6437 289.258 97.6879 289.32C97.7321 289.382 97.7627 289.453 97.7774 289.528C97.7922 289.603 97.791 289.68 97.7737 289.754C97.7564 289.828 97.7236 289.898 97.6773 289.958C97.0082 291.319 96.7569 292.848 96.9551 294.351C97.1532 295.854 97.792 297.266 98.7909 298.406C100.557 300.685 101.901 301.261 102.708 301.338C103.128 301.407 103.56 301.31 103.911 301.069C103.962 301.015 104.025 300.972 104.094 300.943C104.163 300.914 104.237 300.9 104.312 300.901C104.387 300.903 104.461 300.92 104.528 300.952C104.596 300.983 104.657 301.029 104.706 301.085C104.755 301.142 104.792 301.208 104.814 301.279C104.836 301.351 104.844 301.426 104.835 301.5C104.826 301.575 104.802 301.646 104.765 301.711C104.727 301.776 104.676 301.832 104.615 301.875C104.141 302.244 103.552 302.435 102.951 302.413Z" fill="#1B1C1C"/>
<path d="M104.115 296.525C103.406 296.537 102.709 296.343 102.109 295.966C101.509 295.588 101.032 295.044 100.736 294.4C99.2384 291.43 101.786 287.514 101.901 287.347C101.938 287.287 101.988 287.235 102.046 287.195C102.104 287.154 102.17 287.126 102.239 287.112C102.309 287.098 102.38 287.097 102.45 287.111C102.519 287.125 102.585 287.153 102.643 287.194C102.762 287.272 102.844 287.394 102.873 287.533C102.902 287.672 102.874 287.817 102.797 287.936C102.797 287.936 100.48 291.507 101.696 293.926C101.973 294.561 102.485 295.064 103.125 295.329C103.764 295.594 104.482 295.6 105.126 295.347C105.192 295.321 105.262 295.307 105.333 295.309C105.403 295.31 105.473 295.325 105.537 295.354C105.602 295.382 105.66 295.424 105.708 295.475C105.756 295.527 105.794 295.588 105.818 295.654C105.868 295.787 105.864 295.934 105.806 296.063C105.749 296.193 105.642 296.294 105.51 296.346C105.06 296.491 104.587 296.551 104.115 296.525ZM131.072 295.936C131.177 293.883 130.913 291.828 130.291 289.869C129.318 287.194 127.437 284.749 120.269 285.082C115.226 285.299 111.808 288.781 109.542 291.085C108.467 292.173 107.776 292.877 107.123 293.043C106.872 293.114 106.608 293.13 106.349 293.09C106.091 293.05 105.844 292.956 105.626 292.813C104.969 292.267 104.54 291.495 104.422 290.65C104.404 290.507 104.442 290.364 104.528 290.249C104.614 290.134 104.741 290.057 104.883 290.035C105.022 290.017 105.163 290.053 105.275 290.137C105.387 290.221 105.463 290.345 105.485 290.483C105.559 291.03 105.816 291.535 106.214 291.917C106.309 291.981 106.418 292.021 106.531 292.034C106.645 292.048 106.76 292.034 106.867 291.994C107.587 291.543 108.23 290.981 108.774 290.33C111.014 288.051 114.752 284.25 120.218 284.006C128.102 283.648 130.24 286.566 131.302 289.498C131.981 291.599 132.263 293.808 132.134 296.013C132.122 296.294 131.046 296.243 131.072 295.936ZM136.806 326.72L128.538 320.179C128.482 320.135 128.436 320.081 128.401 320.02C128.367 319.958 128.345 319.89 128.336 319.82C128.328 319.75 128.334 319.679 128.353 319.611C128.372 319.543 128.404 319.479 128.448 319.424C128.492 319.369 128.546 319.322 128.607 319.288C128.669 319.253 128.737 319.231 128.807 319.223C128.877 319.214 128.948 319.22 129.016 319.239C129.084 319.258 129.148 319.291 129.203 319.334L136.602 325.12C136.845 325.325 136.819 326.733 136.806 326.72Z" fill="#1B1C1C"/>
<path d="M138.701 312.768C138.602 312.766 138.505 312.74 138.419 312.691C136.486 311.501 133.299 309.338 133.376 308.032C133.466 307.136 134.144 306.547 135.014 305.805C135.651 305.284 136.242 304.711 136.781 304.09C137.098 303.598 137.299 303.04 137.368 302.459C137.436 301.878 137.371 301.288 137.178 300.736C136.82 299.697 136.208 298.764 135.396 298.024C134.584 297.284 133.599 296.759 132.531 296.499C132.023 296.283 131.471 296.193 130.921 296.235C130.371 296.278 129.839 296.452 129.37 296.742C128.938 297.208 128.603 297.754 128.383 298.349C128.164 298.944 128.064 299.577 128.09 300.211C128.094 300.348 128.045 300.48 127.955 300.582C127.865 300.685 127.739 300.749 127.603 300.762C127.468 300.776 127.332 300.738 127.225 300.654C127.117 300.571 127.046 300.448 127.027 300.314C127.027 300.314 126.528 297.549 124.864 297.024C124.224 296.832 123.674 297.178 122.586 297.946C120.726 299.355 118.574 300.331 116.288 300.8C110.362 302.08 108.429 299.405 108.339 299.302C108.298 299.244 108.269 299.179 108.253 299.11C108.237 299.04 108.235 298.968 108.247 298.898C108.259 298.828 108.284 298.761 108.322 298.701C108.36 298.641 108.409 298.588 108.467 298.547C108.525 298.506 108.591 298.477 108.66 298.461C108.729 298.445 108.801 298.443 108.871 298.455C108.942 298.467 109.009 298.492 109.069 298.53C109.129 298.568 109.181 298.617 109.222 298.675C109.222 298.675 110.912 300.838 116.07 299.75C118.19 299.312 120.188 298.412 121.92 297.114C123.059 296.32 123.968 295.68 125.146 296.051C125.62 296.23 126.054 296.5 126.423 296.848C126.792 297.195 127.089 297.611 127.296 298.074C127.543 297.234 128.038 296.488 128.717 295.936C129.317 295.535 130.007 295.287 130.725 295.213C131.444 295.14 132.169 295.243 132.838 295.514C134.079 295.822 135.221 296.439 136.158 297.307C137.096 298.176 137.799 299.267 138.202 300.48C138.456 301.203 138.534 301.976 138.43 302.735C138.325 303.495 138.041 304.218 137.6 304.845C137.022 305.508 136.388 306.12 135.706 306.675C135.002 307.277 134.426 307.712 134.426 308.186C134.426 308.659 136.614 310.387 138.957 311.821C139.058 311.882 139.136 311.974 139.18 312.084C139.223 312.193 139.229 312.314 139.197 312.428C139.165 312.541 139.097 312.641 139.003 312.712C138.908 312.782 138.793 312.82 138.675 312.819L138.701 312.768ZM117.76 316.454C117.609 316.452 117.461 316.417 117.325 316.352C116.342 315.375 115.548 314.225 114.982 312.96C114.919 312.832 114.907 312.685 114.95 312.549C114.993 312.413 115.087 312.298 115.213 312.23C115.341 312.17 115.488 312.16 115.623 312.203C115.758 312.245 115.872 312.338 115.942 312.461C116.435 313.515 117.063 314.501 117.811 315.392C117.97 315.148 118.107 314.891 118.221 314.624C118.281 314.505 118.383 314.413 118.507 314.365C118.632 314.317 118.769 314.317 118.894 314.365C119.018 314.413 119.12 314.505 119.18 314.624C119.24 314.743 119.254 314.88 119.219 315.008C119.031 315.59 118.635 316.083 118.106 316.39C117.995 316.43 117.878 316.452 117.76 316.454ZM122.56 319.04C122.439 319.036 122.322 318.992 122.228 318.916C122.133 318.84 122.066 318.735 122.035 318.618C122.004 318.48 122.029 318.336 122.103 318.217C122.177 318.097 122.295 318.011 122.432 317.978C122.788 317.873 123.117 317.694 123.399 317.454C123.682 317.214 123.91 316.917 124.07 316.582C124.407 315.551 124.407 314.439 124.07 313.408C124.049 313.341 124.04 313.27 124.046 313.199C124.051 313.129 124.07 313.06 124.103 312.997C124.135 312.934 124.179 312.878 124.233 312.832C124.286 312.786 124.349 312.751 124.416 312.73C124.483 312.706 124.555 312.696 124.626 312.701C124.697 312.705 124.766 312.724 124.83 312.757C124.893 312.789 124.949 312.834 124.995 312.889C125.04 312.943 125.074 313.007 125.094 313.075C125.524 314.363 125.524 315.755 125.094 317.043C124.864 317.524 124.533 317.949 124.125 318.291C123.717 318.634 123.24 318.884 122.726 319.027L122.56 319.04Z" fill="#1B1C1C"/>
<path d="M135.565 301.338C135.443 301.333 135.327 301.29 135.232 301.213C135.138 301.137 135.07 301.033 135.04 300.915C134.691 299.963 134.027 299.159 133.158 298.637C131.75 297.677 129.997 299.366 129.984 299.392C129.881 299.492 129.743 299.548 129.6 299.548C129.457 299.548 129.319 299.492 129.216 299.392C129.165 299.343 129.125 299.284 129.097 299.219C129.07 299.155 129.056 299.085 129.056 299.014C129.056 298.944 129.07 298.874 129.097 298.809C129.125 298.744 129.165 298.686 129.216 298.637C129.318 298.534 131.622 296.307 133.747 297.766C134.846 298.431 135.672 299.466 136.077 300.685C136.107 300.824 136.081 300.97 136.004 301.09C135.928 301.21 135.806 301.294 135.667 301.325L135.565 301.338Z" fill="#1B1C1C"/>
<path d="M131.623 304.499C131.512 304.5 131.405 304.465 131.315 304.401C131.226 304.336 131.158 304.245 131.123 304.141C130.774 302.994 130.774 301.768 131.123 300.621C131.524 299.509 132.218 298.527 133.133 297.779C133.189 297.736 133.252 297.703 133.32 297.684C133.388 297.665 133.459 297.659 133.529 297.668C133.599 297.676 133.667 297.698 133.729 297.732C133.79 297.767 133.845 297.813 133.888 297.869C133.973 297.982 134.012 298.124 133.995 298.264C133.978 298.405 133.908 298.534 133.799 298.624C133.054 299.251 132.481 300.057 132.135 300.966C131.869 301.891 131.869 302.871 132.135 303.795C132.18 303.929 132.17 304.076 132.108 304.203C132.045 304.33 131.935 304.427 131.802 304.474C131.745 304.495 131.684 304.503 131.623 304.499ZM112.013 307.046C111.885 307.047 111.76 307.002 111.662 306.918C111.565 306.835 111.5 306.72 111.48 306.593C111.459 306.466 111.485 306.336 111.553 306.227C111.62 306.118 111.724 306.036 111.847 305.997L115.354 304.896C115.423 304.869 115.496 304.857 115.569 304.86C115.643 304.863 115.715 304.881 115.781 304.913C115.848 304.945 115.907 304.99 115.955 305.046C116.003 305.102 116.039 305.167 116.061 305.237C116.083 305.307 116.09 305.381 116.082 305.454C116.075 305.528 116.052 305.598 116.016 305.663C115.979 305.727 115.93 305.782 115.871 305.827C115.813 305.871 115.745 305.903 115.674 305.92L112.167 307.021L112.013 307.046ZM105.165 313.779C105.081 313.795 104.994 313.795 104.909 313.779C104.788 313.707 104.699 313.591 104.661 313.455C104.623 313.32 104.638 313.174 104.704 313.05L107.021 308.838C107.049 308.767 107.091 308.702 107.146 308.648C107.2 308.594 107.266 308.553 107.338 308.526C107.41 308.5 107.487 308.489 107.563 308.495C107.64 308.501 107.714 308.523 107.781 308.56C107.849 308.597 107.907 308.647 107.953 308.709C107.999 308.77 108.031 308.841 108.048 308.916C108.064 308.99 108.065 309.068 108.049 309.143C108.033 309.218 108.001 309.289 107.955 309.35L105.639 313.562C105.586 313.636 105.514 313.695 105.431 313.733C105.348 313.772 105.256 313.787 105.165 313.779ZM115.392 309.043C115.389 309.258 115.301 309.463 115.148 309.614C114.995 309.765 114.788 309.85 114.573 309.85C114.359 309.85 114.154 309.765 114.003 309.613C113.852 309.462 113.767 309.257 113.767 309.043C113.767 308.828 113.851 308.622 114.002 308.468C114.153 308.315 114.358 308.227 114.573 308.224C114.79 308.224 114.999 308.31 115.152 308.464C115.306 308.618 115.392 308.826 115.392 309.043ZM110.157 312.55C110.157 312.712 110.109 312.871 110.019 313.006C109.929 313.14 109.801 313.245 109.651 313.307C109.502 313.369 109.337 313.386 109.178 313.354C109.019 313.322 108.873 313.244 108.759 313.13C108.644 313.015 108.566 312.869 108.534 312.71C108.503 312.551 108.519 312.387 108.581 312.237C108.643 312.087 108.748 311.959 108.883 311.869C109.017 311.779 109.176 311.731 109.338 311.731C109.555 311.731 109.764 311.818 109.917 311.971C110.071 312.125 110.157 312.333 110.157 312.55Z" fill="#1B1C1C"/>
<path d="M133.875 393.894L108.365 404.941L105.203 397.683L128.653 381.491L133.875 393.894Z" fill="white"/>
<path d="M110.08 404.634C109.96 404.628 109.845 404.583 109.753 404.505C109.662 404.427 109.599 404.32 109.576 404.202C109.552 404.084 109.569 403.961 109.623 403.854C109.677 403.747 109.766 403.661 109.875 403.61L133.658 393.37C133.789 393.317 133.935 393.317 134.066 393.37C134.197 393.422 134.303 393.523 134.362 393.651C134.417 393.782 134.419 393.929 134.366 394.061C134.313 394.193 134.21 394.299 134.08 394.355L110.298 404.595C110.228 404.62 110.154 404.633 110.08 404.634Z" fill="#1B1C1C"/>
<path d="M108.75 422.073C115.499 405.946 107.897 387.402 91.7706 380.652C75.6438 373.903 57.0989 381.505 50.3496 397.632C43.6003 413.759 51.2023 432.303 67.3292 439.053C83.456 445.802 102.001 438.2 108.75 422.073Z" fill="#FFD141"/>
<path d="M112.025 377.843C112.025 377.843 95.8846 391.821 89.1518 393.818C82.419 395.814 73.7918 392.896 72.1662 394.266C70.3358 396.506 82.4062 399.219 81.6126 400.589C79.2446 405.555 68.8126 406.566 67.7118 407.258C66.7646 408.934 76.0702 417.242 80.2814 416.512C84.4926 415.782 88.691 411.789 94.9246 405.338C101.824 397.376 119.974 389.581 119.974 389.581L112.025 377.843Z" fill="white"/>
<path d="M66.6753 407.795C66.5327 407.795 66.396 407.739 66.2952 407.638C66.1943 407.537 66.1377 407.4 66.1377 407.258C66.1377 407.115 66.1943 406.978 66.2952 406.877C66.396 406.777 66.5327 406.72 66.6753 406.72C67.6999 406.592 68.7169 406.408 69.7217 406.17C72.4481 405.606 79.5521 403.302 80.9729 400.883C81.0102 400.837 81.0356 400.783 81.0467 400.725C81.0579 400.667 81.0545 400.607 81.0369 400.55C80.7681 399.795 78.4769 398.989 76.6849 398.349C73.9073 397.363 71.2833 396.429 71.3345 394.765C71.3345 394.58 71.3745 394.397 71.4519 394.229C71.5292 394.061 71.642 393.912 71.7825 393.792C72.7425 392.947 74.9441 393.126 78.7457 393.523C82.0481 393.869 85.7857 394.253 88.5761 393.626C94.5409 392.269 111.104 377.933 111.271 377.792C111.371 377.693 111.507 377.637 111.648 377.637C111.789 377.637 111.925 377.693 112.026 377.792C112.123 377.896 112.177 378.034 112.177 378.176C112.177 378.319 112.123 378.456 112.026 378.56C111.334 379.149 95.0913 393.203 88.8705 394.624C85.9009 395.29 82.0737 394.893 78.6305 394.547C75.9297 394.266 73.1393 393.971 72.4865 394.547C72.4564 394.569 72.4324 394.598 72.4168 394.632C72.4011 394.665 72.3942 394.702 72.3969 394.739C72.3969 395.622 75.0593 396.582 77.0305 397.299C79.4753 398.17 81.5873 398.925 82.0353 400.141C82.1076 400.351 82.1325 400.575 82.1081 400.797C82.0838 401.018 82.0108 401.231 81.8945 401.421C80.0385 404.544 71.8593 406.81 69.9265 407.206C68.8572 407.476 67.771 407.672 66.6753 407.795ZM68.7617 412.416C68.6349 412.417 68.5118 412.373 68.4153 412.29C68.3188 412.208 68.2555 412.094 68.2369 411.968C68.226 411.898 68.2289 411.827 68.2455 411.758C68.2621 411.69 68.292 411.625 68.3336 411.568C68.3752 411.511 68.4277 411.463 68.4879 411.426C68.5482 411.389 68.6151 411.365 68.6849 411.354C70.8953 410.98 73.0471 410.317 75.0849 409.382C76.8735 408.381 78.5849 407.247 80.2049 405.99C80.2604 405.947 80.3239 405.914 80.3919 405.895C80.4598 405.876 80.5309 405.87 80.6011 405.879C80.6712 405.887 80.739 405.909 80.8006 405.944C80.8622 405.978 80.9164 406.025 80.9601 406.08C81.0038 406.135 81.0362 406.199 81.0553 406.267C81.0745 406.335 81.08 406.406 81.0717 406.476C81.0634 406.546 81.0413 406.614 81.0068 406.676C80.9723 406.737 80.926 406.792 80.8705 406.835C79.1793 408.129 77.3953 409.297 75.5329 410.33C73.3742 411.335 71.087 412.037 68.7361 412.416H68.7617ZM70.8737 416.576C70.746 416.575 70.6226 416.53 70.5245 416.448C70.4265 416.367 70.3598 416.253 70.3361 416.128C70.3234 416.058 70.325 415.986 70.3408 415.917C70.3567 415.848 70.3865 415.782 70.4284 415.725C70.4703 415.667 70.5234 415.619 70.5845 415.583C70.6457 415.546 70.7136 415.523 70.7841 415.514C72.5105 415.18 74.1878 414.63 75.7761 413.875C77.6229 412.693 79.2656 411.219 80.6401 409.51C80.7321 409.403 80.8618 409.335 81.0023 409.321C81.1429 409.307 81.2836 409.347 81.3953 409.434C81.5054 409.524 81.5754 409.654 81.5898 409.795C81.6042 409.937 81.5618 410.078 81.4721 410.189C80.003 412.018 78.2378 413.589 76.2497 414.835C74.5698 415.649 72.787 416.23 70.9505 416.563L70.8737 416.576ZM76.5953 417.946C76.4699 417.942 76.3494 417.896 76.254 417.814C76.1585 417.733 76.0938 417.621 76.0705 417.498C76.0576 417.428 76.0586 417.356 76.0736 417.287C76.0885 417.217 76.117 417.152 76.1574 417.093C76.1979 417.035 76.2495 416.985 76.3093 416.947C76.369 416.909 76.4358 416.883 76.5057 416.87C76.5825 416.87 83.6609 415.59 87.8977 411.494C89.1777 410.304 90.3297 409.101 91.5201 407.91C94.5115 404.771 97.7194 401.846 101.12 399.155C105.843 395.584 119.04 389.363 119.565 389.107C119.694 389.046 119.842 389.039 119.976 389.087C120.111 389.135 120.221 389.234 120.282 389.363C120.343 389.492 120.35 389.64 120.302 389.775C120.254 389.909 120.155 390.019 120.026 390.08C119.885 390.144 106.407 396.48 101.773 400.013C98.4189 402.669 95.2578 405.561 92.3137 408.666C91.1105 409.869 89.9073 411.085 88.6785 412.275C84.1857 416.589 77.0177 417.882 76.7233 417.933L76.5953 417.946Z" fill="#1B1C1C"/>
<path d="M111.207 377.6C111.207 377.6 125.505 371.008 125.287 368.768C125.069 366.528 122.727 366.106 125.287 365.824C127.847 365.542 128.794 364.275 129.357 360.358C129.921 356.442 136.359 332.032 136.359 332.032C136.359 332.032 136.231 330.752 136.359 323.341C136.487 315.93 137.767 311.552 140.711 311.13C142.43 310.88 144.176 310.88 145.895 311.13C145.895 311.13 147.303 307.776 158.695 307.072C170.087 306.368 220.532 309.734 234.42 313.805C248.308 317.875 249.421 317.862 249.421 317.862C249.421 317.862 249.985 328.243 245.581 336.934C241.178 345.626 230.221 354.048 229.453 357.683C228.685 361.318 227.777 374.656 227.777 374.656C227.777 374.656 189.441 348.429 178.228 346.33C167.015 344.23 161.818 344.653 161.818 344.653C161.818 344.653 156.698 379.699 149.479 386.432C145.33 390.386 140.718 393.824 135.745 396.672L128.308 385.587L120.871 391.488L111.207 377.6Z" fill="#1DAA6B"/>
<path d="M83.0213 452.902C100.68 452.902 114.996 451.584 114.996 449.958C114.996 448.332 100.68 447.014 83.0213 447.014C65.3623 447.014 51.0469 448.332 51.0469 449.958C51.0469 451.584 65.3623 452.902 83.0213 452.902Z" fill="#1B1C1C"/>
<path d="M128.307 386.125C128.21 386.125 128.115 386.099 128.032 386.049C127.948 386 127.88 385.929 127.834 385.843C127.8 385.782 127.779 385.715 127.772 385.645C127.765 385.576 127.772 385.506 127.792 385.439C127.812 385.372 127.846 385.31 127.89 385.257C127.935 385.203 127.99 385.159 128.051 385.126C128.167 385.062 139.866 378.534 145.971 360.602C153.088 339.891 156.211 328.448 155.904 323.482C155.635 318.221 153.447 316.275 153.434 316.25C153.373 316.206 153.323 316.151 153.285 316.087C153.247 316.024 153.223 315.953 153.213 315.879C153.204 315.806 153.21 315.731 153.232 315.66C153.253 315.589 153.288 315.523 153.336 315.466C153.384 315.409 153.443 315.363 153.509 315.33C153.576 315.298 153.649 315.279 153.723 315.276C153.797 315.272 153.871 315.284 153.94 315.311C154.009 315.338 154.072 315.378 154.125 315.43C154.227 315.52 156.685 317.645 156.979 323.418C157.235 328.538 154.253 339.802 146.995 360.922C140.685 379.277 128.64 385.971 128.512 386.035C128.453 386.082 128.382 386.113 128.307 386.125ZM161.818 345.19H156.16C156.018 345.19 155.881 345.134 155.78 345.033C155.679 344.932 155.623 344.795 155.623 344.653C155.623 344.51 155.679 344.374 155.78 344.273C155.881 344.172 156.018 344.115 156.16 344.115H161.869C162.012 344.115 162.148 344.172 162.249 344.273C162.35 344.374 162.407 344.51 162.407 344.653C162.407 344.728 162.392 344.802 162.361 344.871C162.331 344.94 162.287 345.002 162.231 345.052C162.176 345.103 162.111 345.141 162.039 345.165C161.968 345.189 161.893 345.198 161.818 345.19ZM208.013 349.568C207.859 349.561 207.707 349.526 207.565 349.466C204.723 348.186 206.285 329.267 206.784 323.494C206.798 323.352 206.867 323.22 206.978 323.129C207.088 323.038 207.23 322.994 207.373 323.008C207.516 323.022 207.647 323.091 207.738 323.202C207.829 323.312 207.873 323.454 207.859 323.597C206.643 336.704 206.707 348.096 208.013 348.493C208.013 348.493 208.141 348.493 208.41 348.198C209.997 346.534 211.994 342.861 213.927 339.302C217.011 333.632 218.842 330.432 220.327 330.662C221.21 330.79 221.44 331.942 221.517 332.275C222.119 335.13 221.248 338.278 220.557 340.813C220.199 342.093 219.699 343.936 219.994 344.218C219.994 344.218 220.147 344.358 220.826 344.141C224.768 342.861 228.659 336.09 228.698 336.026C228.732 335.963 228.779 335.907 228.836 335.863C228.892 335.818 228.957 335.786 229.026 335.767C229.095 335.748 229.167 335.743 229.238 335.752C229.31 335.761 229.378 335.785 229.44 335.821C229.502 335.855 229.555 335.902 229.598 335.957C229.642 336.013 229.673 336.077 229.691 336.145C229.709 336.213 229.713 336.284 229.703 336.354C229.693 336.423 229.669 336.49 229.632 336.55C229.466 336.845 225.485 343.782 221.159 345.165C220.853 345.301 220.517 345.358 220.183 345.329C219.85 345.3 219.529 345.186 219.251 344.998C218.496 344.269 218.906 342.784 219.52 340.518C220.135 338.253 221.018 335.091 220.467 332.493C220.327 331.827 220.16 331.725 220.16 331.725C219.264 331.725 216.615 336.589 214.861 339.814C212.89 343.437 210.855 347.174 209.165 348.941C209.026 349.119 208.852 349.266 208.654 349.374C208.456 349.482 208.238 349.548 208.013 349.568ZM146.24 310.784C146.146 310.679 146.016 310.613 145.875 310.601C145.735 310.589 145.595 310.632 145.485 310.72C143.768 312.516 142.535 314.718 141.901 317.12C141.901 317.274 138.163 328.87 138.163 329.037C138.167 329.182 138.226 329.32 138.328 329.422C138.431 329.525 138.569 329.584 138.714 329.587C138.848 329.588 138.977 329.538 139.077 329.448C139.176 329.358 139.239 329.234 139.251 329.101C139.559 328.141 141.581 321.638 142.925 317.453C143.501 315.225 144.623 313.175 146.189 311.488C146.281 311.397 146.337 311.275 146.346 311.146C146.356 311.016 146.318 310.888 146.24 310.784Z" fill="#1B1C1C"/>
<path d="M195.405 260.058H194.432C194.291 260.051 194.153 260.017 194.026 259.956C193.899 259.896 193.785 259.811 193.691 259.706C193.597 259.601 193.524 259.479 193.478 259.346C193.432 259.213 193.412 259.072 193.421 258.931C193.437 258.647 193.565 258.381 193.775 258.189C193.986 257.998 194.263 257.897 194.547 257.907C194.778 257.907 217.587 258.931 239.693 242.214C261.799 225.498 262.823 184.499 262.823 184.09C262.829 183.808 262.945 183.539 263.146 183.341C263.346 183.143 263.616 183.03 263.898 183.027C264.182 183.037 264.451 183.158 264.647 183.364C264.843 183.569 264.951 183.844 264.947 184.128C264.947 185.856 263.834 226.637 240.973 243.93C227.843 253.937 211.907 259.577 195.405 260.058ZM502.413 145.677C496.983 145.86 491.618 144.454 486.976 141.632C473.383 132.672 476.608 113.114 476.647 112.909C476.657 112.838 476.682 112.77 476.72 112.71C476.758 112.649 476.808 112.597 476.866 112.556C476.925 112.515 476.991 112.487 477.062 112.473C477.132 112.459 477.204 112.459 477.274 112.474C477.413 112.502 477.537 112.583 477.618 112.699C477.699 112.816 477.732 112.96 477.709 113.101C477.709 113.28 474.56 132.211 487.565 140.736C500.57 149.261 521.984 140.736 522.125 140.736C522.258 140.685 522.405 140.686 522.536 140.741C522.668 140.796 522.772 140.9 522.829 141.03C522.856 141.096 522.87 141.166 522.87 141.237C522.87 141.308 522.856 141.378 522.828 141.444C522.801 141.509 522.761 141.568 522.711 141.618C522.66 141.668 522.6 141.708 522.535 141.734C516.105 144.2 509.297 145.534 502.413 145.677Z" fill="#1B1C1C"/>
</svg>
