<svg width="512" height="512" viewBox="0 0 512 512" fill="none" xmlns="http://www.w3.org/2000/svg">
<path d="M318.829 117.077H279.132V75.2264H318.829V117.077ZM282.255 113.954H315.706V78.3496H282.255V113.954Z" fill="#131CA7"/>
<path d="M355.407 117.077H315.706V75.2264H355.407V117.077ZM318.829 113.954H352.28V78.3496H318.829V113.954Z" fill="#131CA7"/>
<path d="M391.981 117.077H352.28V75.2264H391.981V117.077ZM355.407 113.954H388.858V78.3496H355.407V113.954Z" fill="#131CA7"/>
<path d="M428.554 117.077H388.854V75.2264H428.554V117.077ZM391.98 113.954H425.431V78.3496H391.98V113.954Z" fill="#131CA7"/>
<path d="M318.829 155.832H279.132V113.968H318.829V155.832ZM282.255 152.706H315.706V117.077H282.255V152.706Z" fill="#131CA7"/>
<path d="M355.407 155.832H315.706V113.968H355.407V155.832ZM318.829 152.706H352.28V117.077H318.829V152.706Z" fill="#131CA7"/>
<path d="M391.981 155.832H352.28V113.968H391.981V155.832ZM355.407 152.706H388.858V117.077H355.407V152.706Z" fill="#131CA7"/>
<path d="M428.554 155.832H388.854V113.968H428.554V155.832ZM391.98 152.706H425.431V117.077H391.98V152.706Z" fill="#131CA7"/>
<path d="M318.829 194.56H279.132V152.706H318.829V194.56ZM282.255 191.433H315.706V155.832H282.255V191.433Z" fill="#131CA7"/>
<path d="M355.407 194.56H315.706V152.706H355.407V194.56ZM318.829 191.433H352.28V155.832H318.829V191.433Z" fill="#131CA7"/>
<path d="M391.981 194.56H352.28V152.706H391.981V194.56ZM355.407 191.433H388.858V155.832H355.407V191.433Z" fill="#131CA7"/>
<path d="M428.554 194.56H388.854V152.706H428.554V194.56ZM391.98 191.433H425.431V155.832H391.98V191.433Z" fill="#131CA7"/>
<path d="M318.829 233.315H279.132V191.447H318.829V233.315ZM282.255 230.188H315.706V194.56H282.255V230.188Z" fill="#131CA7"/>
<path d="M355.407 233.315H315.706V191.447H355.407V233.315ZM318.829 230.188H352.28V194.56H318.829V230.188Z" fill="#131CA7"/>
<path d="M391.981 233.315H352.28V191.447H391.981V233.315ZM355.407 230.188H388.858V194.56H355.407V230.188Z" fill="#131CA7"/>
<path d="M428.554 233.315H388.854V191.447H428.554V233.315ZM391.98 230.188H425.431V194.56H391.98V230.188Z" fill="#131CA7"/>
<path d="M305.552 118.122L331.117 117.552C331.278 123.286 331.206 129.498 330.776 136.161C330.462 140.861 329.995 145.319 329.428 149.511L303.292 152.351C306.864 141.304 307.645 129.544 305.565 118.122H305.552Z" fill="#F4AB5D"/>
<path d="M280.747 178.859C278.532 178.084 272.76 186.109 274.477 188.942C275.04 189.709 275.84 190.27 276.753 190.539C277.667 190.842 278.655 190.842 279.569 190.539C282.73 189.232 282.921 179.627 280.747 178.859Z" fill="#A1AB3B"/>
<path d="M279.289 171.54C277.709 169.803 268.81 174.107 268.971 177.415C269.101 178.358 269.536 179.234 270.21 179.907C270.873 180.605 271.743 181.072 272.691 181.238C276.091 181.589 280.836 173.244 279.289 171.54Z" fill="#A1AB3B"/>
<path d="M278.467 167.673C277.784 169.919 286.054 175.343 288.809 173.503C289.551 172.907 290.077 172.085 290.307 171.162C290.567 170.233 290.519 169.245 290.171 168.346C288.734 165.246 279.132 165.472 278.467 167.673Z" fill="#A1AB3B"/>
<path d="M275.797 151.805C274.22 150.067 265.318 154.371 265.479 157.679C265.608 158.623 266.045 159.499 266.721 160.171C267.383 160.869 268.254 161.335 269.203 161.498C272.602 161.86 277.347 153.508 275.797 151.805Z" fill="#A1AB3B"/>
<path d="M274.974 147.937C274.292 150.183 282.562 155.607 285.32 153.767C286.062 153.171 286.588 152.347 286.815 151.422C287.077 150.495 287.031 149.508 286.682 148.61C285.245 145.51 275.64 145.749 274.974 147.937Z" fill="#A1AB3B"/>
<path d="M275.678 140.312C274.09 138.581 265.216 142.879 265.359 146.186C265.489 147.131 265.925 148.006 266.602 148.678C267.264 149.377 268.134 149.843 269.083 150.006C272.479 150.368 277.224 142.015 275.678 140.312Z" fill="#A1AB3B"/>
<path d="M274.855 136.445C274.173 138.691 282.443 144.114 285.198 142.275C285.94 141.678 286.466 140.854 286.696 139.93C286.956 139.002 286.909 138.016 286.563 137.117C285.126 134.018 275.521 134.24 274.855 136.445Z" fill="#A1AB3B"/>
<path d="M276.329 129.096C275.411 126.935 265.591 128.072 264.652 131.243C264.462 132.175 264.582 133.143 264.994 134.001C265.386 134.881 266.055 135.609 266.898 136.076C269.994 137.537 277.231 131.212 276.329 129.096Z" fill="#A1AB3B"/>
<path d="M276.822 125.174C275.456 127.072 281.46 134.915 284.672 134.086C285.569 133.771 286.337 133.172 286.86 132.379C287.411 131.589 287.691 130.642 287.659 129.679C287.325 126.266 278.187 123.31 276.822 125.174Z" fill="#A1AB3B"/>
<path d="M281.085 118.204C280.166 116.043 270.346 117.18 269.408 120.351C269.216 121.283 269.335 122.252 269.749 123.109C270.141 123.989 270.81 124.717 271.653 125.184C274.753 126.635 281.986 120.323 281.085 118.204Z" fill="#A1AB3B"/>
<path d="M281.6 114.282C280.218 116.18 286.236 124.023 289.451 123.194C290.347 122.879 291.116 122.28 291.639 121.487C292.19 120.697 292.47 119.75 292.438 118.787C292.079 115.371 282.938 112.422 281.6 114.282Z" fill="#A1AB3B"/>
<path d="M282.347 108.455C281.429 106.295 271.609 107.431 270.67 110.602C270.478 111.535 270.598 112.505 271.011 113.364C271.406 114.242 272.074 114.969 272.916 115.435C276.015 116.896 283.248 110.592 282.347 108.455Z" fill="#A1AB3B"/>
<path d="M282.846 104.533C281.481 106.431 287.485 114.275 290.697 113.449C291.592 113.132 292.359 112.533 292.885 111.742C293.435 110.952 293.715 110.005 293.683 109.042C293.342 105.626 284.201 102.673 282.846 104.533Z" fill="#A1AB3B"/>
<path d="M282.467 99.0686C281.552 96.908 271.729 98.0446 270.79 101.216C270.6 102.149 270.72 103.118 271.131 103.977C271.526 104.855 272.194 105.582 273.036 106.049C276.139 107.52 283.368 101.188 282.467 99.0686Z" fill="#A1AB3B"/>
<path d="M282.965 95.1466C281.6 97.0444 287.604 104.888 290.816 104.062C291.711 103.745 292.478 103.146 293.004 102.356C293.556 101.566 293.837 100.618 293.803 99.6556C293.461 96.2559 284.331 93.2863 282.965 95.1466Z" fill="#A1AB3B"/>
<path d="M281.084 89.0198C280.166 86.8591 270.346 87.9958 269.407 91.1668C269.216 92.0998 269.336 93.0699 269.749 93.9281C270.142 94.8072 270.81 95.5344 271.653 96C274.753 97.461 281.985 91.136 281.084 89.0198Z" fill="#A1AB3B"/>
<path d="M281.6 85.0978C280.218 86.9956 286.236 94.8394 289.451 94.0134C290.346 93.6963 291.114 93.0974 291.639 92.3067C292.189 91.5163 292.469 90.5693 292.438 89.6068C292.079 86.19 282.938 83.2375 281.6 85.0978Z" fill="#A1AB3B"/>
<path d="M279.821 81.0154C278.903 78.8582 269.079 79.9914 268.141 83.1658C267.951 84.0978 268.07 85.0663 268.482 85.9238C268.878 86.8022 269.545 87.5298 270.387 87.9991C273.489 89.46 280.719 83.1351 279.821 81.0154Z" fill="#A1AB3B"/>
<path d="M280.317 77.097C278.952 78.9914 284.956 86.8352 288.168 86.0092C289.062 85.693 289.829 85.0938 290.352 84.3025C290.912 83.5074 291.195 82.5504 291.158 81.5787C290.816 78.1892 281.672 75.2333 280.317 77.097Z" fill="#A1AB3B"/>
<path d="M283.989 73.9806C284.972 71.8507 277.542 65.3278 274.558 66.7648C273.741 67.253 273.106 67.995 272.749 68.8777C272.362 69.7603 272.271 70.7447 272.49 71.6834C273.49 74.9534 283.034 76.0696 283.989 73.9806Z" fill="#A1AB3B"/>
<path d="M287.239 71.7176C284.908 71.9668 283.143 81.6948 285.901 83.5141C286.736 83.9625 287.695 84.1267 288.632 83.9817C289.588 83.8612 290.48 83.4322 291.171 82.7597C293.475 80.2305 289.529 71.4718 287.239 71.7176Z" fill="#A1AB3B"/>
<path d="M276.238 157.505C275.555 159.751 283.829 165.175 286.584 163.335C287.326 162.738 287.853 161.914 288.082 160.99C288.341 160.062 288.293 159.076 287.946 158.177C286.509 155.078 276.904 155.307 276.238 157.505Z" fill="#A1AB3B"/>
<path d="M277.927 163.424C276.538 161.533 267.24 164.895 267.056 168.202C267.089 169.154 267.433 170.069 268.035 170.807C268.621 171.572 269.439 172.126 270.367 172.387C273.708 173.094 279.289 165.277 277.927 163.424Z" fill="#A1AB3B"/>
<path d="M307.855 78.6944C307.613 78.551 307.37 78.4145 307.125 78.2745C306.699 78.0333 306.269 77.7944 305.834 77.5577C304.561 76.875 303.268 76.1924 301.954 75.5916C299.324 74.3264 296.591 73.2872 293.785 72.4855C292.361 72.0854 290.905 71.8056 289.433 71.6492C288.683 71.5717 287.928 71.5489 287.174 71.581C286.4 71.6142 285.633 71.7286 284.883 71.9223C284.5 72.0268 284.124 72.1556 283.757 72.308L283.484 72.4343C283.392 72.4787 283.3 72.5196 283.214 72.5708L282.948 72.7176L282.88 72.7552L282.818 72.7961L282.689 72.8814C282.603 72.9395 282.518 72.9907 282.436 73.0521L282.19 73.2398C282.149 73.2706 282.108 73.3013 282.071 73.3354L281.955 73.4378L281.726 73.6426C281.651 73.7177 281.583 73.7962 281.511 73.8713C281.436 73.9438 281.367 74.0213 281.303 74.1034C281.168 74.2608 281.043 74.4261 280.927 74.5984C280.474 75.2686 280.129 76.0057 279.903 76.7829C279.686 77.5267 279.536 78.2887 279.456 79.0596C279.314 80.5481 279.292 82.0457 279.388 83.5379C279.466 85.009 279.617 86.4631 279.777 87.9069C280.098 90.8014 280.501 93.655 280.801 96.512C281.101 99.3689 281.34 102.212 281.368 105.045C281.368 106.465 281.368 107.882 281.262 109.291C281.171 110.696 281.009 112.095 280.777 113.483L280.736 113.742L280.688 114.002L280.589 114.521C280.562 114.691 280.521 114.862 280.484 115.033L280.374 115.548L280.234 116.053C280.194 116.224 280.156 116.395 280.108 116.562C280.016 116.903 279.934 117.245 279.828 117.586C279.434 118.924 278.948 120.233 278.374 121.504C278.306 121.665 278.227 121.818 278.152 121.975L277.93 122.453L277.688 122.965C277.61 123.139 277.524 123.307 277.453 123.481C277.156 124.163 276.883 124.877 276.644 125.587C276.165 126.999 275.778 128.442 275.487 129.905C275.193 131.355 274.978 132.82 274.804 134.284C274.63 135.748 274.551 137.213 274.5 138.677C274.449 140.141 274.442 141.606 274.476 143.066C274.51 144.527 274.579 145.985 274.678 147.439C274.777 148.893 274.91 150.344 275.07 151.787C275.231 153.231 275.411 154.679 275.616 156.116C275.821 157.553 276.053 158.99 276.299 160.416C276.545 161.843 276.821 163.273 277.111 164.693C277.401 166.113 277.709 167.53 278.036 168.943C278.364 170.356 278.719 171.762 279.06 173.162C279.402 174.561 279.804 175.961 280.207 177.353C280.61 178.746 281.026 180.128 281.487 181.501C281.146 180.094 280.835 178.685 280.531 177.271C280.381 176.565 280.231 175.858 280.088 175.152C279.944 174.445 279.801 173.735 279.664 173.025C279.116 170.192 278.619 167.348 278.173 164.492C277.954 163.069 277.746 161.642 277.562 160.215C277.377 158.788 277.2 157.358 277.053 155.928C276.906 154.498 276.77 153.064 276.661 151.634C276.551 150.204 276.47 148.767 276.412 147.336C276.353 145.906 276.323 144.469 276.326 143.043C276.33 141.616 276.36 140.182 276.442 138.759C276.582 135.926 276.943 133.108 277.521 130.331C277.831 128.963 278.223 127.615 278.695 126.293C278.924 125.638 279.183 124.993 279.463 124.361C279.528 124.201 279.606 124.047 279.678 123.894L279.903 123.426L280.146 122.924C280.228 122.757 280.313 122.583 280.388 122.419C281.009 121.056 281.536 119.652 281.965 118.217C282.078 117.859 282.166 117.497 282.265 117.139C282.317 116.958 282.358 116.777 282.405 116.596L282.535 116.053L282.655 115.507C282.692 115.323 282.736 115.142 282.771 114.961L282.873 114.411L282.924 114.138L282.969 113.862C283.211 112.394 283.371 110.92 283.467 109.442C283.562 107.964 283.586 106.493 283.559 105.004C283.532 103.516 283.45 102.069 283.334 100.608C283.218 99.147 283.071 97.6998 282.89 96.2525C282.549 93.3649 282.098 90.5011 281.712 87.6543C281.521 86.231 281.351 84.811 281.238 83.3979C281.109 82.0066 281.091 80.6072 281.187 79.2132C281.245 78.5426 281.359 77.8781 281.528 77.2266C281.685 76.6072 281.936 76.0155 282.272 75.4722C282.353 75.3405 282.442 75.214 282.538 75.0933C282.583 75.0284 282.637 74.9738 282.685 74.9158L282.839 74.7451L283.006 74.5813L283.091 74.4994C283.119 74.4755 283.153 74.4516 283.18 74.4243L283.361 74.2775C283.423 74.2263 283.491 74.1853 283.552 74.1376C283.814 73.9567 284.089 73.7958 284.375 73.6563L284.597 73.5607C284.67 73.525 284.745 73.4942 284.822 73.4685C284.976 73.4139 285.126 73.3525 285.286 73.3081C285.931 73.1153 286.595 72.9917 287.266 72.9395C287.955 72.8837 288.647 72.8757 289.338 72.9156C290.749 73.0026 292.15 73.2081 293.526 73.53C294.919 73.8372 296.294 74.2297 297.66 74.6734C299.025 75.1172 300.39 75.6121 301.711 76.1446C303.032 76.6771 304.377 77.2437 305.688 77.8513C306.08 78.0288 306.469 78.1926 306.858 78.394L307.48 78.6875L307.661 78.7729L307.855 78.6944Z" fill="#6F722B"/>
<path d="M425.605 220.198C427.82 219.423 433.592 227.451 431.875 230.281C431.312 231.048 430.512 231.609 429.599 231.878C428.685 232.184 427.696 232.184 426.783 231.878C423.622 230.564 423.431 220.959 425.605 220.198Z" fill="#A1AB3B"/>
<path d="M427.063 212.873C428.643 211.135 437.542 215.439 437.381 218.75C437.251 219.693 436.816 220.566 436.142 221.239C435.48 221.94 434.608 222.407 433.657 222.57C430.261 222.932 425.517 214.576 427.063 212.873Z" fill="#A1AB3B"/>
<path d="M427.885 209.009C428.568 211.255 420.297 216.675 417.543 214.839C416.801 214.242 416.274 213.418 416.044 212.494C415.786 211.566 415.833 210.58 416.178 209.681C417.618 206.578 427.22 206.804 427.885 209.009Z" fill="#A1AB3B"/>
<path d="M430.554 193.137C432.131 191.399 441.033 195.703 440.873 199.014C440.741 199.957 440.304 200.831 439.63 201.503C438.968 202.202 438.098 202.669 437.149 202.834C433.749 203.192 429.005 194.84 430.554 193.137Z" fill="#A1AB3B"/>
<path d="M431.377 189.269C432.06 191.515 423.79 196.939 421.032 195.103C420.291 194.505 419.766 193.682 419.537 192.758C419.274 191.831 419.321 190.843 419.67 189.945C421.107 186.842 430.712 187.068 431.377 189.269Z" fill="#A1AB3B"/>
<path d="M430.674 181.644C432.251 179.907 441.153 184.211 440.993 187.522C440.862 188.465 440.426 189.339 439.75 190.01C439.088 190.709 438.218 191.176 437.269 191.341C433.872 191.7 429.128 183.347 430.674 181.644Z" fill="#A1AB3B"/>
<path d="M431.497 177.777C432.179 180.023 423.909 185.446 421.154 183.607C420.413 183.01 419.886 182.188 419.656 181.265C419.394 180.338 419.44 179.351 419.789 178.452C421.226 175.35 430.831 175.575 431.497 177.777Z" fill="#A1AB3B"/>
<path d="M430.022 170.428C430.937 168.267 440.761 169.404 441.699 172.575C441.89 173.507 441.77 174.475 441.358 175.333C440.965 176.213 440.297 176.941 439.453 177.408C436.354 178.859 429.121 172.547 430.022 170.428Z" fill="#A1AB3B"/>
<path d="M429.523 166.506C430.889 168.404 424.885 176.247 421.673 175.418C420.777 175.103 420.009 174.503 419.485 173.711C418.934 172.92 418.654 171.972 418.686 171.008C419.027 167.595 428.168 164.646 429.523 166.506Z" fill="#A1AB3B"/>
<path d="M425.268 159.536C426.186 157.375 436.006 158.512 436.945 161.683C437.136 162.616 437.016 163.586 436.603 164.444C436.21 165.323 435.541 166.05 434.699 166.516C431.599 167.977 424.366 161.655 425.268 159.536Z" fill="#A1AB3B"/>
<path d="M424.768 155.614C426.134 157.512 420.133 165.356 416.918 164.53C416.022 164.213 415.254 163.614 414.73 162.823C414.18 162.032 413.9 161.085 413.931 160.123C414.272 156.706 423.413 153.754 424.768 155.614Z" fill="#A1AB3B"/>
<path d="M424.004 149.787C424.922 147.63 434.742 148.763 435.681 151.934C435.871 152.867 435.751 153.837 435.34 154.696C434.944 155.574 434.276 156.302 433.435 156.771C430.336 158.228 423.103 151.893 424.004 149.787Z" fill="#A1AB3B"/>
<path d="M423.506 145.865C424.871 147.763 418.867 155.607 415.655 154.781C414.76 154.465 413.992 153.866 413.467 153.074C412.917 152.284 412.637 151.337 412.668 150.374C413.013 146.961 422.151 144.005 423.506 145.865Z" fill="#A1AB3B"/>
<path d="M423.885 140.401C424.799 138.24 434.623 139.377 435.562 142.548C435.752 143.481 435.632 144.45 435.22 145.309C434.825 146.187 434.157 146.915 433.316 147.384C430.216 148.842 422.984 142.52 423.885 140.401Z" fill="#A1AB3B"/>
<path d="M423.386 136.479C424.752 138.377 418.748 146.22 415.536 145.394C414.641 145.078 413.875 144.479 413.351 143.688C412.799 142.898 412.519 141.951 412.553 140.988C412.89 137.574 422.031 134.618 423.386 136.479Z" fill="#A1AB3B"/>
<path d="M425.268 130.352C426.186 128.195 436.006 129.328 436.945 132.499C437.136 133.432 437.017 134.402 436.603 135.26C436.209 136.139 435.541 136.867 434.699 137.335C431.599 138.793 424.366 132.471 425.268 130.352Z" fill="#A1AB3B"/>
<path d="M424.768 126.43C426.134 128.328 420.133 136.172 416.918 135.346C416.022 135.029 415.254 134.43 414.73 133.639C414.18 132.848 413.9 131.901 413.931 130.939C414.272 127.526 423.413 124.587 424.768 126.43Z" fill="#A1AB3B"/>
<path d="M426.53 122.351C427.448 120.19 437.272 121.327 438.211 124.498C438.399 125.43 438.279 126.398 437.869 127.256C437.475 128.136 436.805 128.864 435.961 129.331C432.862 130.792 425.643 124.467 426.53 122.351Z" fill="#A1AB3B"/>
<path d="M426.031 118.443C427.397 120.34 421.396 128.184 418.181 127.355C417.285 127.041 416.517 126.441 415.996 125.648C415.443 124.859 415.161 123.911 415.194 122.948C415.535 119.521 424.676 116.569 426.031 118.443Z" fill="#A1AB3B"/>
<path d="M422.352 115.313C421.366 113.183 428.8 106.663 431.783 108.1C432.601 108.587 433.237 109.33 433.592 110.213C433.981 111.094 434.072 112.078 433.852 113.015C432.858 116.285 423.318 117.419 422.352 115.313Z" fill="#A1AB3B"/>
<path d="M419.113 113.05C421.444 113.299 423.209 123.027 420.451 124.85C419.846 125.249 418.744 125.454 417.72 125.314C416.764 125.191 415.874 124.764 415.18 124.095C412.876 121.562 416.822 112.804 419.113 113.05Z" fill="#A1AB3B"/>
<path d="M430.114 198.837C430.797 201.083 422.523 206.507 419.768 204.667C419.027 204.071 418.501 203.248 418.27 202.325C418.011 201.398 418.059 200.411 418.407 199.513C419.84 196.41 429.445 196.635 430.114 198.837Z" fill="#A1AB3B"/>
<path d="M428.425 204.756C429.814 202.865 439.112 206.227 439.296 209.534C439.261 210.486 438.917 211.4 438.317 212.139C437.73 212.903 436.912 213.457 435.985 213.719C432.644 214.429 427.059 206.609 428.425 204.756Z" fill="#A1AB3B"/>
<path d="M398.708 120.108L398.889 120.02L399.51 119.726L400.678 119.183C401.993 118.583 403.32 118.014 404.658 117.477C405.996 116.948 407.344 116.453 408.709 116.005C410.075 115.558 411.44 115.169 412.843 114.862C414.218 114.542 415.618 114.336 417.028 114.248C417.719 114.209 418.412 114.217 419.103 114.272C419.774 114.324 420.438 114.447 421.083 114.64C421.24 114.685 421.393 114.746 421.547 114.801C421.625 114.828 421.697 114.862 421.772 114.893L421.994 114.992C422.281 115.129 422.556 115.29 422.817 115.473C422.878 115.517 422.946 115.562 423.008 115.61L423.189 115.76C423.216 115.784 423.25 115.808 423.277 115.835L423.363 115.917L423.53 116.077L423.684 116.248C423.731 116.306 423.786 116.36 423.83 116.425C423.927 116.546 424.016 116.673 424.097 116.804C424.433 117.348 424.684 117.939 424.841 118.559C425.004 119.211 425.112 119.875 425.165 120.545C425.26 121.939 425.243 123.339 425.114 124.73C425.001 126.143 424.83 127.563 424.639 128.986C424.254 131.833 423.813 134.697 423.462 137.588C423.282 139.031 423.134 140.483 423.018 141.943C422.902 143.401 422.82 144.865 422.793 146.336C422.765 147.808 422.793 149.282 422.885 150.774C422.977 152.265 423.141 153.723 423.383 155.191L423.428 155.467L423.479 155.74L423.581 156.29C423.615 156.471 423.66 156.655 423.697 156.836L423.813 157.382L423.946 157.925C423.991 158.106 424.032 158.286 424.083 158.467C424.185 158.826 424.274 159.191 424.387 159.546C424.815 160.981 425.342 162.385 425.964 163.748C426.039 163.918 426.124 164.089 426.206 164.256L426.448 164.758L426.667 165.205C426.742 165.362 426.82 165.512 426.885 165.673C427.165 166.308 427.425 166.949 427.653 167.608C428.11 168.932 428.488 170.281 428.783 171.65C429.359 174.427 429.72 177.244 429.862 180.077C429.944 181.501 429.974 182.931 429.978 184.361C429.981 185.791 429.95 187.221 429.892 188.655C429.834 190.088 429.752 191.519 429.643 192.952C429.534 194.386 429.401 195.816 429.251 197.246C429.1 198.676 428.93 200.107 428.742 201.533C428.554 202.96 428.35 204.387 428.128 205.814C427.691 208.66 427.189 211.504 426.639 214.347C426.503 215.054 426.356 215.76 426.216 216.47C426.076 217.18 425.923 217.883 425.769 218.59C425.469 220.003 425.155 221.413 424.817 222.822C425.278 221.457 425.694 220.061 426.097 218.672C426.5 217.283 426.882 215.883 427.244 214.484C427.605 213.084 427.95 211.674 428.268 210.261C428.585 208.848 428.899 207.432 429.193 206.012C429.486 204.592 429.752 203.165 430.005 201.735C430.258 200.305 430.483 198.874 430.688 197.434C430.892 195.994 431.077 194.553 431.234 193.109C431.391 191.665 431.527 190.211 431.623 188.757C431.719 187.303 431.794 185.846 431.828 184.385C431.862 182.924 431.855 181.463 431.804 179.999C431.753 178.534 431.66 177.067 431.5 175.602C431.34 174.138 431.125 172.677 430.817 171.223C430.526 169.76 430.139 168.318 429.66 166.905C429.421 166.195 429.148 165.495 428.848 164.803C428.78 164.628 428.694 164.461 428.616 164.284L428.373 163.772L428.148 163.297C428.076 163.137 427.998 162.983 427.93 162.823C427.356 161.553 426.87 160.244 426.476 158.908C426.37 158.566 426.288 158.225 426.196 157.884C426.148 157.716 426.11 157.542 426.069 157.375L425.947 156.863L425.837 156.351C425.8 156.177 425.759 156.01 425.732 155.836L425.633 155.317L425.585 155.061L425.544 154.801C425.312 153.412 425.15 152.012 425.059 150.606C424.967 149.197 424.94 147.78 424.953 146.36C424.981 143.52 425.216 140.67 425.52 137.827C425.824 134.984 426.226 132.116 426.544 129.225C426.704 127.778 426.855 126.324 426.933 124.853C427.029 123.361 427.007 121.863 426.865 120.375C426.785 119.604 426.635 118.842 426.418 118.098C426.192 117.321 425.846 116.584 425.394 115.913C425.277 115.742 425.152 115.577 425.018 115.418C424.953 115.337 424.884 115.26 424.81 115.186C424.738 115.111 424.667 115.033 424.595 114.961L424.366 114.753L424.25 114.65C424.213 114.616 424.168 114.589 424.131 114.555L423.885 114.367C423.803 114.306 423.718 114.254 423.632 114.196L423.503 114.115L423.438 114.07L423.373 114.033L423.107 113.886C423.021 113.835 422.929 113.794 422.837 113.749L422.564 113.623C422.198 113.47 421.821 113.342 421.438 113.241C420.689 113.045 419.921 112.931 419.147 112.899C418.393 112.866 417.638 112.888 416.888 112.964C415.416 113.121 413.96 113.4 412.536 113.8C409.73 114.603 406.998 115.642 404.367 116.907C403.053 117.524 401.76 118.183 400.487 118.873C400.054 119.1 399.624 119.339 399.196 119.589L398.466 120.009L398.708 120.108Z" fill="#6F722B"/>
<path d="M364.496 153.061L390.062 152.494C390.226 158.229 390.151 164.441 389.721 171.1C389.407 175.804 388.939 180.262 388.356 184.453L362.22 187.293C365.796 176.246 366.577 164.484 364.493 153.061H364.496Z" fill="#F4AB5D"/>
<path d="M341.487 96.4164L367.053 95.9624C367.232 100.927 367.118 105.897 366.711 110.848C366.397 114.603 365.93 118.176 365.346 121.528L339.21 123.802C341.37 118.493 342.527 112.83 342.623 107.1C342.67 103.506 342.288 99.9199 341.487 96.4164Z" fill="#A1AB3B"/>
<path d="M353.194 367.633L352.816 367.083L352.181 243.333L350.037 243.313L350.669 366.531L309.521 393.035L309.005 263.898L306.858 263.878L307.381 394.414L306.521 394.967L307.391 396.23L307.394 396.954L309.538 396.974L309.534 395.759L350.682 369.251L350.686 370.046L352.833 370.067L352.819 367.875L353.194 367.633Z" fill="#EF9B3F"/>
<path d="M166.571 367.633L166.192 367.083L165.557 243.333L163.414 243.313L164.045 366.531L122.897 393.035L122.378 263.898L120.235 263.878L120.757 394.414L119.894 394.967L120.767 396.23V396.954L122.914 396.974L122.908 395.759L164.059 369.251L164.062 370.046L166.209 370.067L166.195 367.875L166.571 367.633Z" fill="#EF9B3F"/>
<path d="M241.059 214.736H229.867V244.333H241.059V214.736Z" fill="#F4AB5D"/>
<path d="M241.322 244.582H229.618V214.484H241.322V244.582ZM230.13 244.081H240.81V214.985H230.12L230.13 244.081Z" fill="#F4AB5D"/>
<path d="M241.059 226.56H229.867V236.117H241.059V226.56Z" fill="#F4AB5D"/>
<path d="M290.833 232.38H189.314C188.304 232.379 187.305 232.163 186.386 231.746C185.466 231.329 184.645 230.721 183.979 229.962C183.312 229.203 182.816 228.31 182.521 227.344C182.227 226.378 182.142 225.36 182.272 224.358C184.832 204.582 187.391 184.805 189.949 165.028C190.171 163.315 191.009 161.741 192.307 160.601C193.605 159.461 195.273 158.832 197.001 158.833H296.134C297.121 158.833 298.096 159.038 298.999 159.435C299.902 159.833 300.712 160.414 301.378 161.142C302.044 161.87 302.551 162.729 302.867 163.663C303.183 164.598 303.301 165.588 303.213 166.571C301.445 186.348 299.678 206.124 297.912 225.901C297.755 227.67 296.942 229.317 295.631 230.516C294.321 231.715 292.609 232.38 290.833 232.38Z" fill="#F4AB5D"/>
<path d="M290.833 232.629H189.313C188.267 232.63 187.233 232.408 186.279 231.977C185.326 231.546 184.475 230.917 183.785 230.131C183.094 229.345 182.579 228.421 182.274 227.42C181.969 226.42 181.881 225.365 182.016 224.328L189.692 164.994C189.926 163.222 190.795 161.595 192.138 160.415C193.481 159.236 195.206 158.584 196.993 158.58H296.134C297.155 158.58 298.166 158.793 299.101 159.205C300.036 159.617 300.874 160.219 301.564 160.973C302.254 161.727 302.779 162.616 303.106 163.584C303.434 164.552 303.556 165.577 303.465 166.595L298.161 225.925C298.007 227.759 297.166 229.468 295.808 230.711C294.45 231.953 292.673 232.638 290.833 232.629ZM196.993 159.082C195.328 159.086 193.721 159.694 192.47 160.793C191.218 161.892 190.409 163.408 190.191 165.059L182.514 224.389C182.389 225.356 182.471 226.338 182.756 227.271C183.04 228.203 183.52 229.064 184.163 229.796C184.807 230.528 185.599 231.115 186.487 231.517C187.375 231.919 188.339 232.127 189.313 232.127H290.833C292.547 232.133 294.201 231.494 295.466 230.337C296.731 229.18 297.514 227.589 297.659 225.881L302.964 166.55C303.048 165.602 302.934 164.647 302.629 163.746C302.325 162.844 301.836 162.016 301.194 161.314C300.552 160.611 299.771 160.05 298.9 159.666C298.03 159.282 297.089 159.083 296.137 159.082H196.993Z" fill="#F4AB5D"/>
<path opacity="0.28" d="M287.863 227.905H192.932C192.291 227.905 191.657 227.768 191.073 227.504C190.489 227.239 189.968 226.854 189.545 226.372C189.121 225.89 188.806 225.324 188.619 224.711C188.432 224.097 188.378 223.451 188.46 222.816L195.833 165.84C195.973 164.753 196.505 163.754 197.329 163.03C198.152 162.306 199.212 161.907 200.308 161.908H292.956C293.582 161.908 294.201 162.039 294.774 162.292C295.347 162.544 295.861 162.913 296.283 163.375C296.706 163.837 297.027 164.382 297.228 164.975C297.429 165.568 297.503 166.196 297.448 166.82C295.757 185.812 294.06 204.805 292.355 223.799C292.255 224.92 291.738 225.964 290.907 226.724C290.075 227.484 288.99 227.905 287.863 227.905Z" fill="#131CA7"/>
<path d="M107.032 262.055L309.177 262.185L362.155 240.981H170.814L107.032 262.055Z" fill="#F6DE24"/>
<path d="M309.047 262.055H107.032V269.605H309.047V262.055Z" fill="#F4AB5D"/>
<path d="M236.51 247.794C247.078 247.794 255.645 246.211 255.645 244.258C255.645 242.305 247.078 240.722 236.51 240.722C225.942 240.722 217.375 242.305 217.375 244.258C217.375 246.211 225.942 247.794 236.51 247.794Z" fill="#F4AB5D"/>
<path d="M244.821 169.025H202.649V172.408H244.821V169.025Z" fill="white"/>
<path d="M242.288 178.415H201.734V181.798H242.288V178.415Z" fill="white"/>
<path d="M240.343 188.102H199.8V191.355H240.343V188.102Z" fill="white"/>
<path d="M309.047 262.055L362.155 240.971V247.217L309.047 269.606V262.055Z" fill="#F4AB5D"/>
<path d="M255.696 167.834H290.495L286.092 205.039L250.439 204.896C252.192 192.544 253.944 180.19 255.696 167.834Z" fill="white"/>
<path d="M202.571 207.036H222.027L207.968 220.105C208.157 217.357 208.346 214.61 208.534 211.866L202.571 207.036Z" fill="#131CA7"/>
<path d="M433.688 280.34H349.096V378.19H433.688V280.34Z" fill="#131C53"/>
<path d="M457.246 272.23V357.154L433.688 378.191V280.341L457.246 272.23Z" fill="#F4AB5D"/>
<path d="M347.928 281.259L434.544 281.313L457.247 272.22H375.258L347.928 281.259Z" fill="#F4AB5D"/>
<path d="M431.333 319.952H350.683V284.672H431.333V319.952ZM353.205 317.44H428.81V287.188H353.205V317.44Z" fill="#F4AB5D"/>
<path d="M431.685 375.31H350.447V322.219H431.685V375.31ZM353.553 372.197H428.572V325.345H353.553V372.197Z" fill="#F4AB5D"/>
<path d="M392.103 302.254C395.279 302.254 397.854 299.679 397.854 296.503C397.854 293.326 395.279 290.751 392.103 290.751C388.927 290.751 386.352 293.326 386.352 296.503C386.352 299.679 388.927 302.254 392.103 302.254Z" fill="white"/>
<path d="M392.103 338.633C395.279 338.633 397.854 336.058 397.854 332.882C397.854 329.706 395.279 327.13 392.103 327.13C388.927 327.13 386.352 329.706 386.352 332.882C386.352 336.058 388.927 338.633 392.103 338.633Z" fill="white"/>
<path d="M412.624 189.348C411.754 191.737 409.552 191.222 408.617 193.812L408.59 193.884C407.648 196.635 409.552 198.588 409.296 201.394C409.266 201.726 409.208 202.054 409.122 202.377C408.324 205.36 406.098 204.728 404.555 207.892C402.323 212.473 405.395 217.057 403.436 219.238C402.852 219.887 402.046 220.075 395.209 218.262C388.69 216.528 387.772 215.917 387.7 215.142C387.547 213.374 392.015 212.965 393.213 208.835C393.728 207.053 393.213 206.056 392.929 204.653C392.751 203.788 392.726 202.899 392.854 202.025C393.537 197.106 397.541 197.123 399.039 191.618C399.239 190.903 399.362 190.17 399.408 189.43C399.548 186.979 398.725 185.556 399.8 183.04C401.063 180.125 404.204 177.364 407.46 178.224C411.72 179.347 413.819 186.051 412.624 189.348Z" fill="#A1AB3B"/>
<path d="M431.985 210.603C430.496 212.285 429.462 211.702 427.517 212.746C427.342 212.838 427.175 212.944 426.97 213.067C425.816 213.815 424.863 214.835 424.195 216.037C423.765 216.781 423.434 217.539 423.103 218.249C422.42 219.672 421.769 220.914 420.287 221.508C419.591 221.799 418.818 221.85 418.089 221.655C416.502 221.256 415.239 220.017 413.341 221.01C410.324 222.587 409.928 227.584 408.59 227.376C407.415 227.191 406.934 223.211 406.845 222.474C406.671 221.037 405.582 212.016 410.859 205.298C411.395 204.616 413.082 202.472 415.351 201.202C416.614 200.428 418.099 200.099 419.57 200.267C420.936 200.468 421.093 201.025 422.642 201.769C422.823 201.854 423.028 201.946 423.253 202.039C428.909 204.356 432.623 201.168 433.91 203.36C434.9 205.042 433.684 208.684 431.985 210.603Z" fill="#6F722B"/>
<path d="M384.662 227.591C384.615 227.693 384.577 227.765 384.526 227.867C383.017 230.769 378.781 235.407 375.651 234.124C374.801 233.783 374.709 233.271 373.457 231.854C371.654 229.827 368.647 227.267 366.289 226.785C365.887 226.7 365.475 226.679 365.067 226.72C363.019 226.946 361.653 228.854 359.892 230.475C358.632 231.632 357.161 232.646 355.137 232.793C351.041 233.09 346.263 229.803 345.993 225.983C345.781 223.017 348.328 220.249 350.208 219.01C352.83 217.283 354.161 218.518 357.694 217.849H357.755C359.82 217.438 361.752 216.525 363.38 215.19C365.951 213.169 367.476 210.964 370.088 211.661C372.818 212.384 372.262 215.074 376.337 217.252C380.3 219.382 382.457 217.719 384.045 220.242C385.134 221.986 385.707 225.331 384.662 227.591Z" fill="#6F722B"/>
<path d="M359.939 220.297C360.441 219.877 360.936 219.436 361.482 219.061L361.892 218.774L362.315 218.518C362.596 218.338 362.887 218.173 363.186 218.023C364.381 217.377 365.668 216.917 367.002 216.658C368.366 216.432 369.757 216.432 371.122 216.658C372.481 216.89 373.803 217.307 375.05 217.897C375.357 218.051 375.668 218.194 375.972 218.354L376.866 218.856L377.73 219.406L378.559 219.993C379.645 220.797 380.678 221.671 381.652 222.607C382.614 223.539 383.525 224.521 384.382 225.55C385.239 226.574 386.065 227.618 386.847 228.697C388.375 230.859 389.79 233.099 391.086 235.407C392.352 237.722 393.561 240.067 394.622 242.473C395.684 244.879 396.687 247.31 397.585 249.774C398.017 251.012 398.433 252.257 398.831 253.508C399.029 254.133 399.227 254.758 399.415 255.386C399.602 256.014 399.756 256.649 399.923 257.287L399.804 257.324C398.06 252.405 396.037 247.589 393.745 242.9C391.492 238.194 388.846 233.686 385.836 229.424C384.332 227.296 382.656 225.295 380.826 223.44C379.012 221.575 376.916 220.007 374.613 218.795C373.455 218.206 372.225 217.771 370.954 217.501C369.681 217.238 368.374 217.184 367.084 217.341C365.794 217.506 364.537 217.866 363.356 218.409C362.174 218.954 361.054 219.623 360.015 220.406L359.939 220.297Z" fill="#A1AB3B"/>
<path d="M398.39 255.959C398.168 255.276 397.933 254.594 397.708 253.911C397.482 253.228 397.298 252.525 397.114 251.825C396.731 250.433 396.379 249.03 396.056 247.617C395.434 244.782 394.956 241.918 394.622 239.036C394.281 236.151 394.124 233.233 394.042 230.342C393.96 227.451 394.117 224.539 394.308 221.621L394.526 219.45L394.639 218.365L394.782 217.283L395.073 215.122C395.189 214.402 395.298 213.685 395.414 212.968C395.946 210.111 396.564 207.268 397.377 204.476C398.934 198.891 401.09 193.49 403.807 188.368L403.923 188.416C401.61 193.68 399.741 199.129 398.336 204.704C397.653 207.499 397.073 210.312 396.595 213.146L396.254 215.279L395.984 217.416L395.851 218.487L395.745 219.559L395.547 221.706C395.335 224.573 395.206 227.447 395.206 230.321C395.206 233.195 395.346 236.07 395.588 238.937C396.095 244.67 397.065 250.352 398.489 255.928L398.39 255.959Z" fill="#6F722B"/>
<path d="M396.08 255.932C396.131 255.317 396.193 254.703 396.258 254.088C396.322 253.474 396.421 252.867 396.507 252.256C396.684 251.034 396.872 249.812 397.08 248.593C397.527 246.166 398.039 243.746 398.65 241.35C399.261 238.954 399.961 236.571 400.719 234.219C401.477 231.868 402.378 229.543 403.34 227.249C404.326 224.959 405.428 222.721 406.641 220.542C407.868 218.355 409.274 216.273 410.843 214.316C412.414 212.336 414.252 210.583 416.304 209.108C417.341 208.388 418.446 207.772 419.605 207.271L420.479 206.93C420.776 206.834 421.072 206.732 421.369 206.64L422.281 206.421L423.199 206.261L423.226 206.384C420.84 206.972 418.614 208.08 416.707 209.63C414.798 211.17 413.094 212.946 411.635 214.917C410.164 216.88 408.842 218.951 407.682 221.112C406.508 223.266 405.457 225.488 404.497 227.744C402.585 232.268 400.953 236.906 399.609 241.63C398.244 246.347 397.094 251.129 396.217 255.966L396.08 255.932Z" fill="#A1AB3B"/>
<path d="M412.894 245.415L411.901 251.89L411.071 257.318L407.962 277.63H386.898L383.45 257.318L382.529 251.89L381.43 245.415H412.894Z" fill="#F74843"/>
<path d="M411.901 251.89H382.529L383.451 257.318H411.072L411.901 251.89Z" fill="#131CA7"/>
<path d="M215.699 111.616C215.535 112.647 215.373 113.677 215.211 114.705C215.023 115.876 214.839 117.043 214.651 118.214C214.461 119.466 214.081 120.681 213.525 121.818C212.081 124.74 209.579 126.635 206.814 126.635H185.757C181.951 126.635 178.671 123.102 177.907 118.18C177.568 115.977 177.226 113.777 176.883 111.578C176.742 110.665 176.691 109.74 176.729 108.817C176.804 106.278 177.668 103.825 179.2 101.799C179.448 101.482 179.719 101.183 180.009 100.905C181.253 99.6349 182.949 98.9075 184.726 98.8809H207.872C210.006 98.8809 211.903 99.9595 213.313 101.697C214.927 103.773 215.826 106.315 215.877 108.943C215.906 109.838 215.846 110.733 215.699 111.616Z" fill="#131CA7"/>
<path d="M215.863 108.943C215.809 107.181 215.397 105.448 214.651 103.851C214.401 105.428 214.15 107.005 213.9 108.582C213.125 113.48 209.852 116.989 206.049 116.989H185.003C181.197 116.989 177.917 113.452 177.152 108.53C177.077 108.039 176.999 107.551 176.923 107.059C176.822 107.635 176.757 108.216 176.729 108.8C176.689 109.724 176.74 110.651 176.883 111.565C177.222 113.763 177.563 115.962 177.907 118.163C178.668 123.085 181.948 126.618 185.757 126.618H206.811C210.603 126.618 213.876 123.112 214.661 118.211C215.009 116.012 215.359 113.813 215.709 111.613C215.843 110.73 215.894 109.836 215.863 108.943Z" fill="#F6DE24"/>
<path opacity="0.53" d="M215.21 114.688C215.023 115.859 214.838 117.026 214.651 118.197C214.46 119.449 214.08 120.664 213.524 121.801L213.183 121.853C203.837 123.143 195.983 113.568 194.601 109.295C193.491 105.882 194.799 100.762 195.369 98.8671C195.509 98.3893 195.604 98.1128 195.604 98.1128C195.69 98.3688 195.768 98.6214 195.85 98.8671C197.748 104.697 198.666 106.848 205.68 111.377C209.623 113.944 212.968 114.62 215.21 114.688Z" fill="white"/>
<path opacity="0.56" d="M202.24 126.597L185.757 126.618C181.951 126.618 178.671 123.085 177.907 118.163C177.568 115.96 177.226 113.76 176.883 111.561C176.742 110.648 176.691 109.723 176.729 108.8C176.807 106.267 177.671 103.82 179.2 101.799C179.448 101.482 179.719 101.183 180.009 100.905C180.063 107.127 182.327 113.128 186.398 117.835C190.468 122.541 196.08 125.647 202.23 126.597H202.24Z" fill="white"/>
<path d="M213.296 101.697C212.832 102.782 211.589 103.81 211.282 104.055C207.893 106.837 204.455 105.667 196.376 105.53C186.962 105.373 182.842 106.807 180.289 103.711C179.809 103.149 179.442 102.5 179.207 101.799C180.634 100 182.566 98.8809 184.737 98.8809H207.872C209.988 98.8809 211.886 99.9595 213.296 101.697Z" fill="#F6DE24"/>
<path d="M207.933 101.629C207.592 102.4 206.711 103.134 206.496 103.308C204.08 105.295 201.636 104.458 195.867 104.359C189.153 104.25 186.218 105.271 184.395 103.062C184.052 102.662 183.791 102.198 183.627 101.697C184.651 100.417 186.016 99.6147 187.566 99.6147H204.052C205.571 99.6182 206.926 100.39 207.933 101.629Z" fill="#6F722B"/>
<path d="M185.201 101.035C185.201 101.717 184.221 102.721 183.102 103.1C181.907 103.502 180.552 103.195 180.03 101.035C180.03 100.983 180.006 100.932 179.996 100.878C179.716 99.5772 178.572 98.5634 177.101 97.7783C176.722 97.5769 176.323 97.3926 175.91 97.2185C175.302 96.966 174.667 96.7475 174.033 96.5529C172.115 95.986 170.152 95.5851 168.165 95.3549C168.165 95.3549 170.138 93.3854 174.903 94.3684C175.997 94.6041 177.068 94.9342 178.105 95.3549C178.497 95.5119 178.866 95.6689 179.217 95.8259L179.412 95.9146L182.231 97.4575C184.385 98.8979 184.962 100.13 185.143 100.697C185.176 100.807 185.196 100.92 185.201 101.035Z" fill="#A1AB3B"/>
<path d="M186.156 103.137C186.156 103.137 184.515 103.96 183.084 103.103C182.566 102.762 182.154 102.282 181.897 101.717C181.897 101.717 181.958 101.468 182.03 101.035C182.225 99.853 182.292 98.6535 182.228 97.4575C182.228 97.2015 182.194 96.942 182.163 96.6758C182.115 96.232 182.043 95.791 181.948 95.3548C181.689 94.08 181.189 92.8661 180.477 91.7777C180.081 91.1724 179.678 90.6171 179.268 90.112C176.879 87.1287 174.797 86.0876 174.797 86.0876C174.797 86.0876 183.078 88.8456 184.672 93.0065C184.696 93.0645 184.716 93.1259 184.736 93.1874C184.928 93.7608 185.078 94.3582 185.235 94.9691C185.505 96.1483 185.71 97.3413 185.849 98.5429C185.921 99.1471 185.976 99.7205 186.02 100.25C186.156 101.953 186.156 103.137 186.156 103.137Z" fill="#A1AB3B"/>
<path d="M216.446 88.3098C216.361 88.3542 213.576 89.7912 210.784 93.9657V93.9896C210.196 94.8825 209.755 95.8645 209.48 96.8978C209.347 97.3803 209.243 97.8704 209.169 98.3655C209.145 98.5123 209.128 98.6556 209.111 98.8024C208.983 99.9363 208.978 101.081 209.094 102.216C209.148 102.771 209.234 103.323 209.354 103.868C209.352 103.885 209.352 103.902 209.354 103.919C207.934 106.759 205.094 105.339 205.094 105.339V105.086C205.094 104.496 205.152 102.929 205.363 101.038C205.428 100.475 205.507 99.881 205.602 99.2734C205.623 99.1437 205.647 99.014 205.667 98.8809C205.858 97.732 206.131 96.5981 206.483 95.4881L206.514 95.3993C206.698 94.8671 206.966 94.3681 207.309 93.9213C209.831 90.5387 216.313 88.3542 216.446 88.3098Z" fill="#A1AB3B"/>
<path d="M205.226 95.3618C205.21 96.5526 205.357 97.7401 205.663 98.8911C205.704 99.0482 205.749 99.2052 205.793 99.3554C205.974 99.9724 206.189 100.579 206.438 101.171C206.532 101.399 206.62 101.597 206.704 101.765C206.96 102.311 207.145 102.622 207.145 102.622C207.107 102.854 207.049 103.083 206.971 103.305C206.831 103.737 206.585 104.128 206.256 104.441C205.927 104.755 205.525 104.981 205.087 105.1C204.564 105.249 204.017 105.289 203.479 105.216C202.989 103.506 202.605 101.768 202.329 100.011C202.277 99.6865 202.233 99.3554 202.189 99.0209C202.083 98.2085 202.004 97.3688 201.977 96.5394C201.96 96.1161 201.957 95.6963 201.977 95.2833C201.989 94.9224 202.042 94.564 202.134 94.2149C202.284 93.6598 202.497 93.1239 202.769 92.6174C202.885 92.399 203.011 92.1771 203.148 91.9621C205.22 88.6204 209.336 85.685 209.442 85.6133C209.37 85.6815 207.111 87.8695 205.646 92.6925C205.561 92.969 205.493 93.2489 205.435 93.5254C205.308 94.1297 205.239 94.7445 205.226 95.3618Z" fill="#A1AB3B"/>
<path d="M185.2 88.2585C185.318 88.2674 185.434 88.2974 185.542 88.3473L185.2 88.2585Z" fill="#A1AB3B"/>
<path d="M186.505 99.9663C186.725 100.9 187.026 101.814 187.402 102.697C187.402 105.086 191.805 103.898 190.703 101.492C190.503 101.03 190.372 100.541 190.314 100.041C190.178 98.7692 190.184 97.4859 190.331 96.215C190.382 95.6075 190.447 95.0033 190.508 94.4299C190.611 93.4536 190.703 92.5593 190.703 91.8699C190.686 91.3905 190.49 90.935 190.153 90.5933C189.03 89.3406 186.501 88.5931 185.562 88.3473C186.112 88.5896 187.027 89.4566 186.395 92.631C186.368 92.771 186.337 92.9212 186.303 93.0714C186.19 93.5615 186.109 94.0587 186.061 94.5596C185.942 95.8422 185.986 97.1347 186.191 98.4064L186.505 99.9663Z" fill="#A1AB3B"/>
<path d="M201.458 101.117C201.458 101.117 203.66 96.3072 202.558 91.4944C201.455 86.6816 203.66 86.6816 203.66 86.6816C203.66 86.6816 198.158 87.8865 198.158 90.2929C198.158 92.6993 199.257 97.5087 198.158 99.9151C197.059 102.322 201.458 103.523 201.458 101.117Z" fill="#A1AB3B"/>
<path d="M198.619 103.956C199.776 101.168 200.195 98.1275 199.837 95.1293C199.478 92.1311 198.353 89.2759 196.571 86.8386C195.819 88.8546 195.399 90.9791 195.328 93.1294C195.212 97.2049 196.461 100.383 195.328 102.755C195.233 102.95 194.987 103.438 195.181 103.817C195.55 104.489 197.226 104.264 198.619 103.956Z" fill="#A1AB3B"/>
<path d="M197.513 102.834C197.513 102.834 196.332 103.765 195.168 103.806C194.43 103.83 193.696 103.496 193.28 102.339C193.011 101.985 192.764 101.616 192.539 101.233C191.797 100.026 191.281 98.693 191.017 97.3005C190.855 96.4232 190.872 95.5222 191.068 94.6518C191.157 94.2719 191.285 93.9024 191.45 93.5493C191.829 92.7369 192.133 92.0303 192.399 91.3989C193.423 88.8628 193.587 87.5077 193.85 85.2549C193.85 85.2549 195.389 87.2005 195.97 88.7194C196.121 89.0643 196.192 89.4389 196.178 89.8151C196.138 90.0869 196.053 90.35 195.925 90.5933C195.782 90.8903 195.584 91.1873 195.434 91.5183C195.241 91.8795 195.099 92.2654 195.011 92.6652C194.854 93.4998 194.974 94.3624 195.352 95.1228C195.4 95.2321 195.454 95.3413 195.512 95.4642C195.642 95.7202 195.765 95.9864 195.881 96.2595C196.113 96.8095 196.317 97.3712 196.492 97.9422C196.973 99.5401 197.314 101.177 197.513 102.834Z" fill="#A1AB3B"/>
<path d="M223.539 96.7783C223.539 96.7783 221.15 96.7783 217.477 97.8739C217.136 97.9729 216.794 98.0822 216.453 98.1982C216.033 98.3394 215.623 98.507 215.224 98.7C214.112 99.2565 213.078 99.959 212.152 100.789C211.38 101.47 210.667 102.215 210.019 103.014C209.595 103.537 209.367 103.878 209.367 103.878C209.285 103.878 207.79 103.878 207.005 103.301C206.862 103.211 206.744 103.086 206.662 102.939C206.579 102.792 206.534 102.627 206.53 102.458C206.549 102.218 206.62 101.985 206.738 101.775C206.82 101.609 206.912 101.448 207.015 101.294C207.628 100.394 208.335 99.5622 209.124 98.8126L209.466 98.4884C209.78 98.188 210.107 97.8944 210.442 97.6077C211.253 96.8982 212.123 96.2588 213.043 95.6962C213.248 95.5734 213.446 95.4675 213.64 95.3549C216.439 93.9384 223.539 96.7783 223.539 96.7783Z" fill="#A1AB3B"/>
<path opacity="0.73" d="M179.466 95.7406C179.451 95.8009 179.431 95.8601 179.408 95.9181C179.392 95.9701 179.37 96.0204 179.343 96.0683C179.231 96.2972 179.052 96.4871 178.831 96.6137C178.61 96.7402 178.355 96.7975 178.101 96.7782C177.351 96.8027 176.61 96.9527 175.91 97.222C175.302 96.9694 174.667 96.7509 174.032 96.5564C174.173 95.7772 174.469 95.0343 174.903 94.3718C175.996 94.6076 177.068 94.9376 178.104 95.3583C178.497 95.5153 178.866 95.6723 179.217 95.8293C179.296 95.7885 179.38 95.7586 179.466 95.7406Z" fill="#F6DE24"/>
<path d="M184.737 93.2011C184.928 93.7745 185.078 94.3718 185.235 94.9828C184.767 95.1661 184.279 95.2921 183.781 95.3583H181.948C181.689 94.0834 181.19 92.8695 180.477 91.7811C180.081 91.1736 179.678 90.6172 179.269 90.112C179.88 89.8458 180.531 90.17 182.361 91.0848C184.017 91.9142 184.225 92.7403 184.672 93.0065C184.696 93.0782 184.716 93.1396 184.737 93.2011Z" fill="#F6DE24"/>
<path opacity="0.73" d="M190.153 90.5933C190.49 90.9349 190.686 91.3905 190.703 91.8698C190.703 92.5525 190.611 93.4536 190.508 94.4298C189.713 94.1483 188.882 93.9828 188.04 93.9383C187.04 93.8871 186.644 94.2012 186.061 94.5596C186.108 94.0587 186.189 93.5615 186.303 93.0713C186.337 92.9212 186.368 92.771 186.395 92.631L186.62 92.5184C188.289 91.6855 189.464 90.8527 190.153 90.5933Z" fill="#F6DE24"/>
<path opacity="0.73" d="M203.137 91.9688C203.806 92.6154 204.579 93.144 205.424 93.5321C205.302 94.1345 205.236 94.747 205.226 95.3617H205.08C205.08 95.3617 205.08 96.7816 203.66 95.3617C203.412 95.113 203.145 94.8847 202.861 94.679C202.627 94.5063 202.381 94.3511 202.124 94.2148C201.008 93.6209 199.929 93.5014 199.714 94.2489C199.715 94.2557 199.715 94.2627 199.714 94.2694C199.519 94.8975 198.946 94.6585 198.512 94.3616C198.325 94.2327 198.149 94.0876 197.987 93.9281C197.987 93.9281 196.707 91.3715 195.362 92.3272C195.233 92.4247 195.118 92.5395 195.021 92.6685C194.017 93.7984 193.768 95.6313 193.058 95.7405C192.785 95.7849 192.566 95.5665 192.31 95.3583C191.929 95.0745 191.516 94.8373 191.078 94.6517C191.167 94.2718 191.295 93.9023 191.46 93.5492C191.839 92.7368 192.143 92.0303 192.409 91.3988C192.828 91.2212 193.276 91.1195 193.73 91.0984C194.724 91.0984 195.021 90.4157 195.594 90.4738C195.714 90.4895 195.83 90.529 195.935 90.5898C196.169 90.7295 196.383 90.9006 196.57 91.0984C197.533 92.061 197.843 93.027 198.386 93.102C198.632 93.1396 198.922 92.9928 199.342 92.5866L199.41 92.5184C200.827 91.1018 200.045 88.9036 202.547 91.3988V91.4159C202.754 91.6184 202.951 91.8027 203.137 91.9688Z" fill="#F6DE24"/>
<path opacity="0.73" d="M210.767 93.9895C210.178 94.8824 209.738 95.8644 209.463 96.8977L209.34 96.7782C208.575 96.017 207.405 95.6655 206.479 95.4982L206.51 95.4095C206.694 94.8773 206.963 94.3782 207.306 93.9315C207.51 93.9315 207.715 93.9315 207.92 93.9315C209.34 93.9315 207.92 91.0916 210.76 93.9315L210.784 93.9588L210.767 93.9895Z" fill="#F6DE24"/>
<path opacity="0.73" d="M217.477 97.8739C217.136 97.9728 216.795 98.0821 216.453 98.1981C216.033 98.3394 215.623 98.5069 215.224 98.6999C214.723 98.4347 214.177 98.2646 213.613 98.1981C212.545 98.1981 211.48 98.1981 210.415 97.5974C211.226 96.8879 212.097 96.2484 213.016 95.6859C214.784 96.7475 216.405 97.0854 217.477 97.8739Z" fill="#F6DE24"/>
<path d="M186.504 99.9663C186.966 99.6903 187.505 99.5706 188.04 99.625C188.813 99.666 189.578 99.8083 190.314 100.048C190.178 98.7761 190.184 97.4928 190.331 96.2219C189.679 96.3857 188.44 97.2971 186.62 98.205C186.467 98.2835 186.323 98.3518 186.19 98.4132C186.057 98.4747 185.955 98.5225 185.849 98.5634C184.03 99.3246 184.897 98.0548 182.357 96.7851L182.159 96.6861C182.19 96.9523 182.21 97.2117 182.224 97.4677L179.408 95.9147C179.431 95.8567 179.45 95.7975 179.466 95.7372C179.378 95.7549 179.293 95.7848 179.213 95.8259C178.799 96.0867 178.424 96.4064 178.101 96.7748L177.101 97.7783C178.572 98.5634 179.715 99.5772 179.995 100.878C179.995 100.932 180.019 100.983 180.029 101.035H183.784C184.25 100.971 184.708 100.857 185.149 100.693C185.458 100.576 185.754 100.428 186.033 100.253L186.504 99.9663Z" fill="#6F722B"/>
<path opacity="0.62" d="M212.125 100.789C211.353 101.47 210.64 102.214 209.992 103.014C209.759 102.848 209.541 102.662 209.34 102.458C209.256 102.376 209.169 102.299 209.077 102.226C208.455 101.765 207.742 101.444 206.985 101.284C206.798 101.241 206.617 101.203 206.442 101.171C206.085 101.109 205.725 101.068 205.363 101.048C205.186 101.048 205.083 101.048 205.083 101.048C205.083 101.048 205.083 102.468 203.663 101.048C203.265 100.652 202.818 100.308 202.332 100.024C202.205 99.9492 202.079 99.8809 201.953 99.8195C200.964 99.3348 200.035 99.2426 199.762 99.8195C199.745 99.8574 199.73 99.8961 199.718 99.9355C199.482 100.768 198.615 100.164 198.202 99.8195C198.069 99.7034 197.984 99.6181 197.984 99.6181C197.984 99.6181 197.345 98.3449 196.499 97.9319C196.366 97.8597 196.219 97.8168 196.069 97.8062C195.918 97.7956 195.767 97.8175 195.625 97.8705C195.443 97.9493 195.279 98.0656 195.144 98.2118C194.031 99.328 193.778 101.315 193.051 101.434C192.958 101.441 192.865 101.427 192.777 101.395C192.689 101.363 192.609 101.312 192.543 101.246C191.8 100.039 191.284 98.7065 191.021 97.3141C191.403 97.7408 192.563 96.7919 193.724 96.7919C194.628 96.7919 194.956 96.2184 195.431 96.1638C195.586 96.1525 195.741 96.1869 195.878 96.2628C196.132 96.4014 196.363 96.5801 196.56 96.7919C197.584 97.8159 197.874 98.8569 198.496 98.7989C198.853 98.7075 199.171 98.5012 199.4 98.2118C199.62 97.9892 199.806 97.7363 199.953 97.4609C200.578 96.3174 200.482 95.2559 201.977 96.5666C202.148 96.7168 202.339 96.9079 202.554 97.1161L202.616 97.1742C203.824 98.3722 204.776 98.9866 205.599 99.3041L205.793 99.3758C206.482 99.5856 207.201 99.6745 207.92 99.6386C208.91 99.6386 208.517 98.2732 209.152 98.3859C209.249 98.4086 209.341 98.4466 209.425 98.4985C209.914 98.8245 210.362 99.2072 210.76 99.6386C211.184 100.057 211.641 100.442 212.125 100.789Z" fill="#6F722B"/>
<path d="M224.956 126.597H168.161V130.857H224.956V126.597Z" fill="#F74843"/>
<path d="M88.5452 142.756C86.8761 141.78 84.4902 140.462 81.5342 139.083C77.9502 137.411 76.0558 136.526 73.4071 135.851C67.5737 134.366 61.3921 134.731 61.3102 135.366C61.31 135.39 61.3151 135.415 61.3251 135.437C61.3351 135.459 61.3498 135.479 61.3683 135.496C62.7984 137.001 69.9016 137.885 69.9016 137.885C67.5523 137.636 65.2363 137.137 62.993 136.397C61.1532 135.765 60.4159 135.26 58.699 135.147C57.7535 135.086 56.0912 135.113 55.9684 135.612C55.8455 136.11 57.5009 136.977 58.3133 137.373C60.3613 138.376 63.6176 139.619 68.5977 140.189C62.6312 138.257 55.4837 136.226 54.8624 137.554C54.6884 137.926 55.0877 138.445 55.4393 138.888C55.6134 139.11 69.178 142.674 67.9901 142.551C58.1734 139.704 55.5588 139.578 55.3198 140.162C55.2379 140.356 55.4018 140.667 55.4905 140.844C56.1015 142.012 57.7808 142.254 58.2758 142.339C60.0097 142.633 62.8735 143.609 67.444 145.596L71.8813 148.668C70.8676 148.652 69.8785 148.98 69.0756 149.6C68.2052 150.282 67.0958 151.685 67.4679 152.395C68.0311 153.474 71.4376 151.781 76.5132 151.504C83.5071 151.125 86.429 153.835 88.4599 152.101C89.4873 151.211 90.3952 148.985 88.5452 142.756Z" fill="#FFA591"/>
<path d="M88.297 209.455C96.381 206.902 100.219 196.234 96.8692 185.626C93.5195 175.019 84.2507 168.489 76.1667 171.042C68.0827 173.595 64.2448 184.264 67.5944 194.871C70.9441 205.478 80.213 212.008 88.297 209.455Z" fill="#FFA591"/>
<path d="M93.9446 200.725L80.7305 204.912L87.1317 225.115L100.346 220.929L93.9446 200.725Z" fill="#FFA591"/>
<path d="M80.9337 164.236C83.2821 163.854 83.8931 163.355 84.9341 163.212C89.607 162.55 96.4097 169.837 97.3655 177.418C97.5157 178.61 97.0788 181.955 96.2015 188.648C95.7885 191.812 95.5189 193.717 95.0239 196.219C94.3297 199.627 93.3932 202.982 92.2216 206.258L82.4902 210.49C76.5271 210.951 73.834 209.575 72.4891 208.131C72.4891 208.131 69.7141 205.199 67.5466 204.288C65.2392 203.315 64.7545 204.08 62.9966 203.206C59.9519 201.694 58.4091 197.912 58.0814 195.27C57.9415 194.144 58.0575 193.809 57.8596 190.898C57.7947 189.914 57.6786 188.74 57.4773 187.29C56.8151 182.617 56.1973 182.17 56.7059 180.685C57.8971 177.227 61.9078 178.036 64.7067 173.705C66.3895 171.104 65.3211 170.216 67.1438 168.127C69.7994 165.079 74.148 164.56 74.8819 164.475C77.179 164.181 77.9436 164.721 80.9337 164.236Z" fill="#131C53"/>
<path d="M78.6667 172.032C77.4434 172.216 76.2447 172.537 75.0929 172.988C74.5702 173.185 74.0747 173.447 73.6184 173.769C73.211 174.047 72.8494 174.387 72.5466 174.776L72.3589 175.063C72.3077 175.166 72.2496 175.258 72.2019 175.36C72.1055 175.562 72.0245 175.771 71.9595 175.985C71.8977 176.21 71.8475 176.437 71.8093 176.667L71.7649 177.009L71.7172 177.483C71.6899 177.804 71.6455 178.118 71.6011 178.446L71.5363 178.934L71.4577 179.439L71.4134 179.692L71.3553 179.961C71.311 180.149 71.2871 180.303 71.2188 180.521C71.1633 180.737 71.0926 180.95 71.0072 181.156L70.857 181.497C70.7853 181.63 70.7068 181.763 70.6215 181.89C70.2794 182.381 69.8224 182.782 69.2903 183.057C69.1742 183.122 69.1094 183.149 69.0172 183.194L68.7646 183.313L68.3345 183.508C67.7884 183.736 67.3105 183.999 66.7951 184.272L66.4163 184.484L66.2251 184.59L66.1022 184.672C65.9352 184.769 65.7785 184.884 65.6346 185.013C65.3371 185.311 65.1047 185.668 64.9519 186.061C64.7722 186.543 64.6574 187.047 64.6106 187.559C64.5493 188.135 64.5379 188.715 64.5765 189.293C64.6513 190.547 64.8109 191.795 65.0543 193.027L64.8803 193.12C64.2988 191.976 63.8532 190.769 63.5525 189.522C63.2228 188.266 63.1889 186.95 63.4535 185.679C63.6053 185.034 63.9005 184.432 64.317 183.917C64.5275 183.662 64.7682 183.432 65.0339 183.235C65.2933 183.023 65.5697 182.876 65.836 182.695C66.3803 182.355 66.9433 182.045 67.5222 181.767C68.0922 181.484 68.71 181.272 69.0138 180.798C69.3018 180.26 69.4914 179.675 69.5736 179.07C69.6965 178.456 69.792 177.828 69.8944 177.2C69.9388 176.889 69.9934 176.572 70.0617 176.251C70.138 175.932 70.2384 175.619 70.3621 175.316C70.6112 174.707 70.9764 174.153 71.4373 173.684C72.3823 172.786 73.5683 172.182 74.8506 171.947C76.1128 171.697 77.407 171.651 78.6838 171.81L78.6667 172.032Z" fill="#131C53"/>
<path d="M83.9991 173.909C83.0532 174.714 82.2002 175.622 81.4562 176.616C81.1163 177.059 80.8331 177.543 80.6131 178.056C80.4076 178.505 80.2729 178.983 80.2137 179.473V179.814C80.2137 179.927 80.2137 180.036 80.2376 180.156C80.2589 180.378 80.2989 180.599 80.3571 180.814C80.4151 181.033 80.5004 181.248 80.5824 181.466L80.7326 181.808L80.9408 182.234C81.0841 182.525 81.2138 182.818 81.347 183.118L81.5483 183.569L81.7463 184.04L81.8385 184.279L81.9306 184.538C81.9921 184.719 82.0535 184.88 82.1081 185.085C82.1743 185.298 82.2256 185.516 82.2617 185.736L82.3163 186.112C82.3163 186.262 82.3163 186.419 82.3163 186.569C82.2816 187.162 82.1023 187.738 81.7941 188.245C81.7451 188.334 81.6915 188.421 81.6337 188.505L81.4835 188.74L81.2377 189.099C80.8964 189.58 80.6165 190.054 80.323 190.556L80.1113 190.935L80.0089 191.126L79.9441 191.259C79.8548 191.433 79.7838 191.616 79.7324 191.805C79.6324 192.217 79.6184 192.644 79.6915 193.061C79.7894 193.568 79.9559 194.058 80.1864 194.519C80.4366 195.042 80.7313 195.542 81.0671 196.014C81.787 197.043 82.5762 198.021 83.4291 198.943L83.3301 199.11C82.2353 198.442 81.2226 197.648 80.3127 196.744C79.3748 195.846 78.6566 194.743 78.2135 193.522C78.0048 192.894 77.9406 192.227 78.0258 191.57C78.0482 191.405 78.0813 191.242 78.1248 191.082C78.162 190.921 78.2134 190.763 78.2784 190.611C78.3876 190.293 78.5446 190.024 78.6777 189.73C78.9623 189.155 79.2803 188.596 79.63 188.058C79.9714 187.515 80.381 187.01 80.3912 186.45C80.3526 185.841 80.207 185.244 79.9611 184.685C79.7461 184.095 79.4969 183.511 79.2546 182.924C79.1283 182.637 79.0122 182.337 78.9132 182.026C78.8108 181.715 78.7321 181.397 78.6777 181.074C78.5718 180.424 78.5926 179.76 78.7392 179.118C79.0772 177.854 79.7758 176.715 80.7496 175.841C81.6961 174.97 82.7743 174.253 83.9445 173.718L83.9991 173.909Z" fill="#131C53"/>
<path d="M174.158 427.691C173.759 430.223 158.191 429.107 148.022 427.452C142.175 426.503 138.991 425.513 138.124 423.178C137.342 421.062 139.202 419.82 141.517 415.229C141.711 414.843 141.909 414.433 142.11 413.996C143.677 410.583 147.759 401.664 147.405 392.438C147.364 391.376 147.258 390.178 148.029 389.513C150.122 387.704 156.539 391.687 161.713 395.407C157.897 400.807 152.627 409.788 155.839 415.126C155.915 415.259 156.002 415.386 156.098 415.505C156.593 416.13 157.685 417.034 161.614 419.574C171.349 425.875 174.336 426.581 174.158 427.691Z" fill="#FFA591"/>
<path d="M118.405 339.135L148.582 324.045C146.905 351.986 145.228 379.928 143.551 407.87C149.457 411.278 156.435 412.326 163.082 410.802C164.755 405.279 186.859 330.991 176.735 306.78C175.469 303.746 172.639 296.929 165.946 293.755C160.747 291.284 155.433 292.076 145.05 294.707C134.474 297.396 124.04 300.613 113.787 304.347C113.787 304.347 92.7573 325.554 118.405 339.135Z" fill="#F74843"/>
<path d="M176.746 306.78C175.48 303.746 172.65 296.929 165.956 293.755C160.758 291.284 155.443 292.076 145.06 294.707C134.485 297.396 124.051 300.613 113.797 304.347C113.797 304.347 113.309 304.838 112.575 305.712C123.088 302.053 132.219 299.469 139.445 297.636C149.828 295.004 155.146 294.223 160.341 296.684C167.018 299.855 169.865 306.674 171.131 309.705C180.501 332.141 162.208 397.571 158.143 411.447C159.806 411.379 161.459 411.161 163.082 410.795C164.755 405.279 186.86 330.991 176.746 306.78Z" fill="#B64843"/>
<path d="M174.159 427.691C171.834 432.159 159.516 429.322 148.023 427.452C142.176 426.503 138.991 425.513 138.124 423.178C137.735 422.127 137.998 421.294 138.647 420.158C139.295 419.021 140.353 417.543 141.517 415.229C142.857 416.691 144.549 417.785 146.432 418.406C147.798 418.84 150.887 419.833 153.474 418.133C154.547 417.396 155.374 416.353 155.846 415.14C157.563 416.873 159.505 418.365 161.622 419.577C167.657 423.025 173.51 423.175 174.418 425.656C174.461 425.775 174.492 425.897 174.511 426.022C174.579 426.601 174.456 427.188 174.159 427.691Z" fill="#F74843"/>
<path d="M174.159 427.691C171.834 432.159 159.516 429.322 148.023 427.452C142.176 426.503 138.991 425.513 138.124 423.178C137.735 422.127 137.998 421.294 138.647 420.157C140.353 421.42 142.777 422.864 145.378 423.407L167.117 427.96C170.428 428.643 172.742 426.854 174.412 425.653C174.455 425.771 174.485 425.894 174.504 426.018C174.575 426.598 174.454 427.186 174.159 427.691Z" fill="#F6DE24"/>
<path d="M124.702 351.416L92.0983 445.44L90.75 445.068L120.811 350.348L124.702 351.416Z" fill="#131CA7"/>
<path d="M129.529 352.529L153.645 445.095L152.279 445.413L124.614 353.673L129.529 352.529Z" fill="#131CA7"/>
<path d="M125.376 352.898C126.007 353.758 125.853 354.649 125.935 355.533L126.065 358.182L126.324 363.482L126.843 374.088C127.185 381.153 127.557 388.222 127.867 395.291L128.826 416.502L129.697 437.712L128.209 437.777L126.918 416.58L125.72 395.383C125.311 388.318 124.966 381.249 124.584 374.18L124.024 363.598L123.744 358.298L123.604 355.645C123.604 354.761 123.351 353.888 123.891 352.98L125.376 352.898Z" fill="#131CA7"/>
<path d="M156.358 340.617H99.8465C95.8161 340.617 92.5488 343.884 92.5488 347.914V348.327C92.5488 352.358 95.8161 355.625 99.8465 355.625H156.358C160.388 355.625 163.655 352.358 163.655 348.327V347.914C163.655 343.884 160.388 340.617 156.358 340.617Z" fill="#131CA7"/>
<path d="M161.29 349.621H94.9143C93.6079 349.621 92.5488 350.68 92.5488 351.986V353.259C92.5488 354.566 93.6079 355.625 94.9143 355.625H161.29C162.596 355.625 163.655 354.566 163.655 353.259V351.986C163.655 350.68 162.596 349.621 161.29 349.621Z" fill="#131C53"/>
<path d="M112.425 273.364L127.15 270.872C127.15 270.872 141.35 273.108 142.415 274.753C143.48 276.398 129.598 273.821 129.598 273.821C129.598 273.821 144.493 276.705 142.52 278.115C140.548 279.525 129.707 276.845 129.707 276.845C129.707 276.845 142.869 278.105 141.903 279.48C140.937 280.856 129.802 279.869 129.802 279.869L124.133 281.399C124.133 281.399 130.151 280.194 131.233 282.515C132.315 284.836 125.611 285.389 121.515 284.174C117.419 282.958 108.343 282.576 108.343 282.576L112.425 273.364Z" fill="#6F722B"/>
<path d="M91.4774 291.195C88.3064 291.519 69.8505 293.161 60.5697 282.095C49.4934 268.916 53.5894 240.224 78.476 220.419C92.8837 232.448 89.6854 255.024 82.8417 263.547C87.535 264.311 102.776 266.848 106.226 268.851C110.896 271.582 116.931 277.105 116.224 281.771C115.401 287.201 105.472 292.048 91.4774 291.195Z" fill="#6F722B"/>
<path d="M238.37 433.381C238.346 435.944 222.781 437.108 212.48 436.951C206.558 436.859 203.264 436.347 202.066 434.162C200.987 432.183 202.646 430.681 204.267 425.803C204.404 425.393 204.54 424.957 204.673 424.496C205.728 420.881 208.469 411.474 206.776 402.398C206.581 401.353 206.302 400.183 206.967 399.411C208.773 397.319 215.702 400.326 221.365 403.255C218.375 409.153 214.466 418.802 218.422 423.615C218.516 423.737 218.62 423.851 218.733 423.956C219.317 424.503 220.525 425.236 224.785 427.179C235.335 431.981 238.384 432.247 238.37 433.381Z" fill="#FFA591"/>
<path d="M227.963 365.537C227.089 377.317 225.713 392.161 223.437 409.293C220.918 410.911 215.064 414.181 207.582 413.983C206.845 413.965 206.094 413.91 205.329 413.819C203.262 413.57 201.235 413.063 199.294 412.31C197.958 384.674 196.616 357.032 195.267 329.387C195.239 328.844 195.215 328.298 195.188 327.755V327.728C170.376 340.101 149.159 343.002 135.997 343.634C118.299 344.487 102.888 345.228 94.9213 334.619C94.1405 333.571 93.455 332.455 92.8733 331.284C87.8079 321.174 89.8013 306.613 98.0411 297.277C108.991 284.88 129.744 282.924 144.998 294.7C144.998 294.7 153.071 297.714 158.286 302.227L186.061 294.451C191.522 292.632 205.254 288.85 214.733 295.96C217.002 298.308 219.048 300.864 220.843 303.592C229.144 316.204 230.564 330.435 227.963 365.537Z" fill="#F74843"/>
<path d="M238.37 433.381C236.725 438.139 224.123 437.135 212.48 436.951C206.558 436.859 203.264 436.347 202.066 434.162C201.53 433.179 201.67 432.312 202.144 431.09C202.619 429.868 203.452 428.254 204.267 425.796C205.804 427.042 207.635 427.873 209.585 428.21C210.992 428.445 214.2 428.978 216.511 426.916C217.466 426.03 218.132 424.878 218.422 423.608C220.372 425.078 222.513 426.275 224.785 427.168C231.27 429.701 237.073 428.998 238.329 431.323C238.387 431.432 238.436 431.546 238.476 431.664C238.63 432.232 238.593 432.836 238.37 433.381Z" fill="#F74843"/>
<path d="M238.37 433.381C236.725 438.139 224.123 437.135 212.48 436.951C206.558 436.859 203.264 436.347 202.066 434.162C201.53 433.179 201.67 432.312 202.144 431.09C204.028 432.09 206.626 433.166 209.275 433.326L231.461 434.667C234.837 434.872 236.865 432.756 238.343 431.322C238.4 431.432 238.449 431.546 238.489 431.664C238.639 432.234 238.597 432.837 238.37 433.381Z" fill="#F6DE24"/>
<path opacity="0.61" d="M220.842 303.592C219.045 300.866 216.997 298.313 214.726 295.967C205.25 288.857 191.515 292.639 186.054 294.458L158.276 302.234C157.375 301.431 150.917 295.721 149.678 296.772C148.384 297.875 153.463 305.725 154.044 306.613C165.707 303.923 174.814 301.694 180.35 300.319C196.369 296.339 201.328 294.83 206.943 297.277C209.237 298.274 214.402 301.138 219.392 312.835C225.98 328.281 225.041 342.19 222.262 371.398C220.689 387.935 219.242 401.824 218.146 412.017C219.993 411.277 221.764 410.363 223.437 409.286C225.713 392.141 227.089 377.31 227.963 365.53C230.564 330.434 229.144 316.204 220.842 303.592Z" fill="white"/>
<path d="M153.286 298.226C149.579 307.804 136.5 310.856 121.003 314.436C110.886 316.772 100.555 318.054 90.1738 318.263C90.3253 313.61 90.0362 308.954 89.3102 304.357C88.5541 299.587 87.2885 294.913 85.5351 290.413C82.0705 281.559 79.0702 279.511 73.1754 267.544C65.9494 252.867 62.3346 245.531 63.543 238.155C65.9698 223.351 83.0365 213.395 96.0515 210.534C100.148 209.633 106.943 208.145 114.671 210.647C127.12 214.678 132.834 226.096 140.643 241.708C143.947 248.303 146.043 254.187 147.893 261.287C149.463 267.319 150.859 274.227 152.672 283.194C154.484 292.161 154.525 295.018 153.286 298.226Z" fill="#A1AB3B"/>
<path opacity="0.3" d="M199.755 325.175C199.592 327.765 197.492 329.1 195.912 329.783C195.714 329.673 195.485 329.54 195.267 329.393C195.243 328.851 195.216 328.305 195.188 327.762C195.315 327.714 195.434 327.67 195.53 327.622C196.554 327.178 197.097 326.164 197.619 325.195C198.365 323.755 198.626 322.112 198.363 320.512C199.141 321.83 199.865 323.516 199.755 325.175Z" fill="#A5A5AF"/>
<path d="M176.661 207.111L176.429 207.019C176.569 207.07 176.647 207.104 176.661 207.111Z" fill="#DB664A"/>
<path d="M199.294 412.31C197.958 384.674 196.616 357.032 195.266 329.387C195.239 328.844 195.215 328.298 195.188 327.755V327.728C170.376 340.101 149.159 343.002 135.997 343.634C118.299 344.487 102.888 345.228 94.921 334.619C94.1402 333.571 93.4548 332.455 92.873 331.284C104.956 336.5 125.982 342.084 153.344 335.636C176.336 330.213 189.368 313.47 198.011 318.969C203.301 322.335 202.878 331.056 202.008 350.3C201.475 361.899 200.577 382.075 199.294 412.31Z" fill="#B64843"/>
<path d="M136.117 237.459C144.166 215.552 148.064 197.994 150.112 186.081C151.269 179.35 152.269 171.844 148.296 164.854C144.882 158.836 139.244 155.788 129.953 152.023C116.447 146.585 102.441 142.483 88.1358 139.776L82.4492 154.945L120.976 178.736L110.551 206.848C108.888 210.642 108.316 214.826 108.9 218.928C109.484 223.029 111.201 226.887 113.857 230.066C116.513 233.246 120.004 235.621 123.936 236.925C127.869 238.229 132.087 238.411 136.117 237.449V237.459Z" fill="#A1AB3B"/>
<path d="M107.049 210.183C106.579 214.076 106.96 218.025 108.166 221.757C108.768 223.568 109.583 225.3 110.592 226.918C111.592 228.538 112.778 230.035 114.125 231.38C114.764 232.09 115.491 232.704 116.204 233.356C116.962 233.943 117.692 234.568 118.494 235.11C120.077 236.237 121.729 237.263 123.44 238.182C126.895 240.039 130.578 241.524 134.332 242.981L134.298 243.118C130.396 242.194 126.597 240.877 122.959 239.189L121.618 238.507L120.935 238.165C120.713 238.049 120.501 237.916 120.283 237.79L118.986 237.029C118.556 236.769 118.15 236.476 117.73 236.199C116.88 235.663 116.112 235.011 115.31 234.407C114.562 233.725 113.784 233.1 113.098 232.359C111.687 230.92 110.455 229.315 109.429 227.581C106.347 222.311 105.444 216.047 106.909 210.121L107.049 210.183Z" fill="#6F722B"/>
<path d="M129.707 243.306C131.693 248.323 133.462 253.406 135.127 258.512L135.759 260.427L136.366 262.349L137.578 266.192L139.896 273.91C140.626 276.494 141.374 279.074 142.087 281.665C142.8 284.256 143.507 286.846 144.152 289.454C145.487 294.659 146.739 299.892 147.767 305.186L147.63 305.227L138.534 274.306L129.57 243.347L129.707 243.306Z" fill="#6F722B"/>
<path d="M148.299 164.864C144.885 158.846 139.246 155.798 129.955 152.033C116.449 146.591 102.442 142.486 88.1352 139.776C87.77 140.756 87.4014 141.732 87.0361 142.711C98.4874 145.26 109.71 148.747 120.589 153.136C129.617 156.791 135.089 159.754 138.414 165.601C142.271 172.394 141.298 179.681 140.175 186.225C138.188 197.796 134.393 214.852 126.576 236.134C125.46 236.393 124.326 236.566 123.183 236.65C127.321 238.185 131.82 238.466 136.116 237.459C144.165 215.552 148.063 197.994 150.111 186.081C151.272 179.35 152.272 171.844 148.299 164.864Z" fill="#6F722B"/>
<path d="M153.286 298.226C149.579 307.804 136.499 310.856 121.002 314.436C110.886 316.772 100.554 318.054 90.1731 318.263C90.3247 313.61 90.0355 308.954 89.3096 304.357C113.015 310.815 141.056 271.517 147.893 261.274C149.463 267.305 150.859 274.214 152.671 283.18C154.484 292.147 154.525 295.018 153.286 298.226Z" fill="#6F722B"/>
<path d="M159.546 207.008C159.727 205.462 159.836 203.902 159.914 202.349C159.993 200.796 160.068 199.24 160.095 197.687C160.123 196.134 160.126 194.584 160.095 193.034C160.065 191.485 160.007 189.938 159.921 188.396C159.764 185.324 159.484 182.252 159.054 179.18C158.832 177.661 158.597 176.145 158.331 174.64L157.89 172.387C157.72 171.643 157.549 170.895 157.385 170.155C157.023 168.67 156.631 167.199 156.187 165.748C155.743 164.297 155.289 162.847 154.771 161.423C153.745 158.586 152.514 155.828 151.088 153.17C149.69 150.529 148.088 148.003 146.295 145.613C144.498 143.231 142.493 141.013 140.305 138.984C135.918 134.901 130.886 131.571 125.412 129.13C119.951 126.594 114.077 124.901 108.08 123.727L105.813 123.303L103.54 122.962L102.403 122.795C102.021 122.737 101.639 122.706 101.256 122.658C100.495 122.58 99.7305 122.477 98.966 122.385C98.2014 122.293 97.4334 122.238 96.6654 122.167L94.358 121.972L89.7261 121.74C83.5343 121.487 77.3049 121.668 71.0517 121.948L71.0176 121.679C77.2188 120.864 83.462 120.408 89.7158 120.313C95.9748 120.216 102.231 120.657 108.414 121.631C109.967 121.846 111.486 122.201 113.029 122.498C113.793 122.662 114.551 122.863 115.312 123.044L116.452 123.324C116.835 123.419 117.207 123.542 117.582 123.648L119.838 124.31L122.061 125.071C122.808 125.31 123.528 125.618 124.259 125.904C124.989 126.191 125.72 126.467 126.43 126.805C129.308 128.051 132.077 129.535 134.707 131.243C142.685 136.352 149.127 143.531 153.347 152.013C156.174 157.615 158.233 163.572 159.467 169.725C160.706 175.865 161.337 182.111 161.351 188.375C161.351 191.502 161.252 194.632 161.01 197.748C160.772 200.869 160.37 203.975 159.805 207.053L159.546 207.008Z" fill="#F6DE24"/>
<path d="M169.158 163.526C169.09 162.57 168.981 161.618 168.848 160.672C168.715 159.727 168.595 158.788 168.425 157.856C168.083 155.993 167.721 154.146 167.223 152.334C166.767 150.524 166.219 148.739 165.581 146.985C164.943 145.241 164.277 143.514 163.485 141.848C163.079 141.022 162.676 140.196 162.233 139.39C162.021 138.985 161.803 138.583 161.577 138.182C161.352 137.783 161.137 137.376 160.895 136.991C159.963 135.419 158.938 133.905 157.823 132.458C155.645 129.539 153.143 126.878 150.365 124.525C147.618 122.139 144.606 120.078 141.388 118.381C139.782 117.514 138.13 116.736 136.438 116.053C135.581 115.729 134.732 115.398 133.858 115.104C132.984 114.811 132.113 114.517 131.233 114.244C129.465 113.708 127.656 113.319 125.833 112.94C124.01 112.562 122.16 112.295 120.293 112.097C116.524 111.671 112.725 111.562 108.937 111.773L108.886 111.51C110.77 111.149 112.675 110.906 114.589 110.783C116.505 110.653 118.423 110.617 120.341 110.674C126.11 110.819 131.819 111.887 137.251 113.838C139.053 114.504 140.818 115.267 142.538 116.125C144.256 116.989 145.919 117.958 147.518 119.026C148.334 119.538 149.095 120.125 149.873 120.689C150.269 120.965 150.627 121.286 151.006 121.58C151.385 121.873 151.764 122.173 152.122 122.494C155.036 125.009 157.643 127.86 159.888 130.987C162.125 134.116 163.992 137.494 165.452 141.053C166.892 144.607 167.954 148.304 168.619 152.081C168.956 153.97 169.194 155.875 169.332 157.788C169.478 159.702 169.505 161.623 169.414 163.54L169.158 163.526Z" fill="#F6DE24"/>
</svg>
