<svg width="512" height="512" viewBox="0 0 512 512" fill="none" xmlns="http://www.w3.org/2000/svg">
<path d="M245.12 270.422L92 358.832L245.12 447.177L398.24 358.832L245.12 270.422Z" fill="#DEF4FC"/>
<path d="M92.004 358.807L245.075 270.374L245.119 112.964L92 201.36L92.004 358.807ZM245.12 112.963L245.126 112.96V93.595L245.12 112.963Z" fill="#AFD8F9"/>
<path d="M245.075 270.374L245.119 112.969L92.0039 358.807L245.075 270.374ZM245.119 112.969L245.125 112.96V93.595L245.119 112.969Z" fill="#AAD2F9"/>
<path d="M97.7666 162.596L115.063 152.602L116.599 155.261L99.3026 165.254L97.7666 162.596ZM97.7696 176.419L106.683 171.273L108.217 173.931L99.3026 179.077L97.7696 176.419ZM97.7666 189.436L115.063 179.443L116.598 182.101L99.3026 192.094L97.7666 189.436Z" fill="#C8DFF5"/>
<path d="M108.778 198.676C108.678 198.501 108.544 198.348 108.384 198.225C108.224 198.103 108.042 198.012 107.847 197.96C107.652 197.908 107.449 197.894 107.25 197.921C107.05 197.947 106.857 198.012 106.682 198.113L97.7695 203.258C97.5892 203.356 97.4303 203.488 97.3022 203.649C97.1741 203.809 97.0794 203.993 97.0237 204.19C96.9679 204.387 96.9522 204.594 96.9776 204.797C97.003 205.001 97.0688 205.197 97.1713 205.375C97.2738 205.552 97.4109 205.708 97.5744 205.831C97.7378 205.955 97.9245 206.045 98.1232 206.095C98.3219 206.146 98.5288 206.156 98.7315 206.125C98.9342 206.094 99.1287 206.023 99.3035 205.916L108.216 200.772C108.569 200.568 108.826 200.233 108.931 199.84C109.036 199.447 108.981 199.029 108.778 198.676ZM117.158 206.843C116.955 206.491 116.62 206.234 116.227 206.129C115.834 206.024 115.416 206.08 115.063 206.283L97.7675 216.276C97.5876 216.374 97.4292 216.507 97.3016 216.667C97.1739 216.827 97.0796 217.011 97.0243 217.209C96.9689 217.406 96.9535 217.612 96.9791 217.815C97.0047 218.019 97.0706 218.215 97.1732 218.392C97.2757 218.569 97.4126 218.724 97.576 218.848C97.7393 218.972 97.9258 219.061 98.1243 219.112C98.3228 219.162 98.5294 219.172 98.7319 219.141C98.9345 219.111 99.1288 219.04 99.3035 218.933L116.599 208.94C116.774 208.839 116.927 208.705 117.05 208.545C117.172 208.385 117.262 208.202 117.314 208.008C117.366 207.813 117.379 207.61 117.353 207.41C117.326 207.21 117.259 207.017 117.158 206.843ZM108.778 225.516C108.678 225.341 108.544 225.188 108.384 225.066C108.224 224.943 108.042 224.853 107.847 224.801C107.652 224.748 107.449 224.735 107.249 224.761C107.05 224.788 106.857 224.853 106.682 224.954L97.7695 230.097C97.5892 230.195 97.4303 230.327 97.3022 230.488C97.1741 230.648 97.0794 230.832 97.0237 231.029C96.9679 231.226 96.9522 231.433 96.9776 231.636C97.003 231.84 97.0688 232.036 97.1713 232.214C97.2738 232.391 97.4109 232.547 97.5744 232.67C97.7378 232.794 97.9245 232.884 98.1232 232.934C98.3219 232.985 98.5288 232.995 98.7315 232.964C98.9342 232.933 99.1287 232.862 99.3035 232.755L108.216 227.612C108.569 227.408 108.826 227.073 108.931 226.68C109.036 226.287 108.981 225.869 108.778 225.516ZM117.158 233.683C117.058 233.509 116.924 233.356 116.764 233.233C116.604 233.11 116.422 233.02 116.227 232.968C116.033 232.916 115.83 232.903 115.63 232.929C115.43 232.956 115.238 233.021 115.063 233.122L97.7675 243.116C97.4151 243.32 97.1581 243.655 97.053 244.048C96.9479 244.441 97.0033 244.86 97.207 245.212C97.4107 245.565 97.746 245.822 98.1391 245.927C98.5323 246.032 98.9511 245.977 99.3035 245.773L116.599 235.779C116.774 235.678 116.927 235.544 117.049 235.384C117.172 235.224 117.262 235.042 117.314 234.847C117.366 234.652 117.379 234.449 117.352 234.25C117.326 234.05 117.259 233.857 117.158 233.683ZM108.778 252.356C108.575 252.004 108.24 251.746 107.847 251.641C107.454 251.536 107.035 251.591 106.682 251.794L97.7695 256.937C97.5892 257.035 97.4303 257.167 97.3022 257.328C97.1741 257.488 97.0794 257.672 97.0237 257.869C96.9679 258.066 96.9522 258.273 96.9776 258.476C97.003 258.68 97.0688 258.876 97.1713 259.054C97.2738 259.231 97.4109 259.387 97.5744 259.51C97.7378 259.634 97.9245 259.724 98.1232 259.774C98.3219 259.825 98.5288 259.835 98.7315 259.804C98.9342 259.773 99.1287 259.702 99.3035 259.595L108.216 254.452C108.569 254.248 108.826 253.913 108.931 253.52C109.036 253.127 108.981 252.709 108.778 252.356ZM117.158 260.523C116.955 260.171 116.62 259.914 116.227 259.809C115.834 259.704 115.416 259.76 115.063 259.963L97.7675 269.955C97.5876 270.053 97.4292 270.186 97.3016 270.346C97.1739 270.506 97.0796 270.691 97.0243 270.888C96.9689 271.085 96.9535 271.291 96.9791 271.494C97.0047 271.698 97.0706 271.894 97.1732 272.071C97.2757 272.248 97.4126 272.403 97.576 272.527C97.7393 272.651 97.9258 272.74 98.1243 272.791C98.3228 272.841 98.5294 272.851 98.7319 272.82C98.9345 272.79 99.1288 272.719 99.3035 272.612L116.599 262.62C116.774 262.519 116.927 262.385 117.05 262.225C117.172 262.065 117.262 261.882 117.314 261.688C117.366 261.493 117.379 261.29 117.353 261.09C117.326 260.89 117.259 260.697 117.158 260.523ZM108.778 279.196C108.678 279.021 108.544 278.868 108.384 278.746C108.224 278.623 108.042 278.533 107.847 278.481C107.652 278.428 107.449 278.415 107.249 278.441C107.05 278.468 106.857 278.533 106.682 278.634L97.7695 283.777C97.5892 283.875 97.4303 284.007 97.3022 284.168C97.1741 284.328 97.0794 284.512 97.0237 284.709C96.9679 284.906 96.9522 285.113 96.9776 285.316C97.003 285.52 97.0688 285.716 97.1713 285.894C97.2738 286.071 97.4109 286.227 97.5744 286.35C97.7378 286.474 97.9245 286.564 98.1232 286.614C98.3219 286.665 98.5288 286.675 98.7315 286.644C98.9342 286.613 99.1287 286.542 99.3035 286.435L108.216 281.292C108.569 281.088 108.826 280.753 108.931 280.36C109.036 279.967 108.981 279.549 108.778 279.196ZM117.158 287.363C116.955 287.011 116.62 286.754 116.227 286.648C115.834 286.543 115.416 286.598 115.063 286.801L97.7675 296.795C97.5876 296.893 97.4292 297.026 97.3016 297.186C97.1739 297.346 97.0796 297.531 97.0243 297.728C96.9689 297.925 96.9535 298.131 96.9791 298.334C97.0047 298.538 97.0706 298.734 97.1732 298.911C97.2757 299.088 97.4126 299.243 97.576 299.367C97.7393 299.491 97.9258 299.58 98.1243 299.631C98.3228 299.681 98.5294 299.691 98.7319 299.66C98.9345 299.63 99.1288 299.559 99.3035 299.452L116.599 289.459C116.774 289.358 116.927 289.224 117.049 289.064C117.172 288.904 117.262 288.722 117.314 288.527C117.366 288.332 117.379 288.129 117.352 287.93C117.326 287.73 117.259 287.537 117.158 287.363ZM108.778 306.035C108.678 305.86 108.544 305.707 108.384 305.585C108.224 305.462 108.042 305.372 107.847 305.32C107.652 305.267 107.449 305.254 107.249 305.28C107.05 305.307 106.857 305.372 106.682 305.473L97.7695 310.616C97.5892 310.714 97.4303 310.846 97.3022 311.007C97.1741 311.167 97.0794 311.351 97.0237 311.548C96.9679 311.745 96.9522 311.952 96.9776 312.155C97.003 312.359 97.0688 312.555 97.1713 312.733C97.2738 312.91 97.4109 313.066 97.5744 313.189C97.7378 313.313 97.9245 313.403 98.1232 313.453C98.3219 313.504 98.5288 313.514 98.7315 313.483C98.9342 313.452 99.1287 313.381 99.3035 313.274L108.216 308.131C108.569 307.927 108.826 307.592 108.931 307.199C109.036 306.806 108.981 306.388 108.778 306.035ZM117.158 314.202C116.955 313.85 116.62 313.593 116.227 313.488C115.834 313.383 115.416 313.439 115.063 313.642L97.7675 323.634C97.4186 323.839 97.165 324.174 97.062 324.566C96.9589 324.958 97.0148 325.374 97.2174 325.725C97.42 326.075 97.7529 326.332 98.1436 326.438C98.5343 326.544 98.9512 326.492 99.3035 326.292L116.599 316.299C116.774 316.198 116.927 316.064 117.05 315.904C117.172 315.744 117.262 315.561 117.314 315.367C117.366 315.172 117.379 314.969 117.353 314.769C117.326 314.569 117.259 314.376 117.158 314.202ZM108.778 332.875C108.678 332.7 108.544 332.547 108.384 332.425C108.224 332.302 108.042 332.212 107.847 332.16C107.652 332.107 107.449 332.094 107.249 332.12C107.05 332.147 106.857 332.212 106.682 332.313L97.7695 337.456C97.5922 337.555 97.4365 337.689 97.3112 337.849C97.186 338.009 97.0937 338.192 97.0399 338.388C96.986 338.584 96.9715 338.789 96.9974 338.99C97.0232 339.192 97.0888 339.386 97.1903 339.562C97.2918 339.738 97.4273 339.892 97.5889 340.015C97.7504 340.139 97.9348 340.229 98.1314 340.28C98.3279 340.331 98.5328 340.343 98.734 340.315C98.9352 340.287 99.1288 340.219 99.3035 340.115L108.216 334.971C108.569 334.767 108.826 334.432 108.931 334.039C109.036 333.646 108.981 333.228 108.778 332.875Z" fill="#2481D7"/>
<path d="M124.644 219.607V358.807L157.066 377.515L189.489 358.807V219.607H124.644Z" fill="#288DE8"/>
<path d="M245.123 377.515L212.691 358.807V428.47L245.123 447.177L277.538 428.47V358.807L245.123 377.515Z" fill="#AFD8F9"/>
<path d="M212.691 257.759V288.741L245.123 307.448V257.759H212.691Z" fill="#DEF4FC"/>
<path d="M212.691 358.403V428.47L245.123 447.177V377.111L212.691 358.403Z" fill="#C8DFF5"/>
<path d="M333.182 377.515L300.75 358.807V415.081L365.597 377.666V358.807L333.182 377.515Z" fill="#AFD8F9"/>
<path d="M300.75 358.403V415.081L333.182 396.368V377.111L300.75 358.403Z" fill="#C8DFF5"/>
<path d="M157.075 377.515L124.643 358.807V377.666L189.489 415.081V358.807L157.075 377.515Z" fill="#AFD8F9"/>
<path d="M124.643 358.403V377.666L157.075 396.378V377.111L124.643 358.403Z" fill="#C8DFF5"/>
<path d="M212.691 188.096V358.807L245.123 377.515L277.538 358.807V188.096H212.691Z" fill="#288DE8"/>
<path d="M212.691 188.096V358.807L245.123 377.515V188.096H212.691Z" fill="#5BA1E1"/>
<path d="M245.123 169.376L212.691 188.096L245.123 206.806L277.538 188.096L245.123 169.376ZM245.123 340.085L212.691 358.805L245.123 377.515L277.538 358.805L245.123 340.085Z" fill="#6AB0E5"/>
<path d="M124.644 219.607V358.807L157.066 377.515V219.607H124.644Z" fill="#5BA1E1"/>
<path d="M157.066 200.886L124.644 219.607L157.066 238.314L189.489 219.607L157.066 200.886ZM157.066 340.086L124.644 358.807L157.066 377.515L189.489 358.807L157.066 340.086Z" fill="#6AB0E5"/>
<path d="M341.235 180.978H362.808V184.047H341.235V180.978ZM327.12 180.978H329.502V184.047H327.12V180.978ZM315.7 180.978H318.08V184.047H315.7V180.978ZM304.283 180.978H306.661V184.047H304.283V180.978ZM127.431 180.978H149.004V184.047H127.431V180.978ZM160.738 180.978H163.118V184.047H160.738V180.978ZM172.16 180.978H174.539V184.047H172.16V180.978ZM183.58 180.978H185.961V184.047H183.58V180.978ZM302.019 241.578L304.192 239.41L305.87 241.092L303.698 243.26L302.019 241.578ZM293.944 233.507L296.114 231.337L297.795 233.019L295.626 235.189L293.944 233.507ZM285.865 225.428L288.035 223.258L289.72 224.943L287.55 227.113L285.865 225.428ZM160.817 100.378L162.987 98.208L178.237 113.461L176.068 115.631L160.817 100.378ZM184.371 123.93L186.542 121.761L188.221 123.443L186.05 125.611L184.371 123.93ZM192.447 132.009L194.614 129.838L196.295 131.516L194.127 133.686L192.447 132.009ZM200.517 140.08L202.689 137.911L204.369 139.593L202.197 141.762L200.517 140.08ZM243.585 278.629H246.654V300.2H243.585V278.629ZM243.587 264.508H246.656V266.888H243.587V264.508ZM243.586 253.093H246.655V255.471H243.586V253.093ZM243.585 241.67H246.654V244.053H243.585V241.67ZM243.585 64.823H246.654V86.393H243.585V64.823ZM243.584 98.129H246.653V100.51H243.584V98.129ZM243.584 109.551H246.653V111.93H243.584V109.551ZM243.585 123.35L243.587 120.967L246.657 120.971L246.654 123.353L243.585 123.35ZM160.817 264.647L176.069 249.394L178.239 251.564L162.987 266.816L160.817 264.647ZM184.37 241.094L186.049 239.411L188.222 241.578L186.543 243.261L184.37 241.094ZM192.446 233.02L194.126 231.337L196.298 233.507L194.618 235.188L192.446 233.02ZM200.516 224.943L202.202 223.258L204.372 225.428L202.685 227.114L200.516 224.943ZM312 113.461L317.729 107.731L319.899 109.899L314.17 115.63L312 113.461ZM302.016 123.444L303.696 121.758L305.87 123.924L304.19 125.61L302.016 123.444ZM293.944 131.514L295.627 129.836L297.794 132.01L296.11 133.688L293.944 131.514ZM285.867 139.59L287.554 137.91L289.721 140.083L288.034 141.763L285.867 139.59Z" fill="#C8DFF5"/>
<path d="M138.874 182.512H135.804C135.837 211.494 147.365 239.279 167.858 259.772C188.352 280.266 216.138 291.793 245.12 291.825V288.755C216.952 288.723 189.947 277.52 170.029 257.602C150.111 237.685 138.906 210.68 138.874 182.512ZM245.12 73.1949V76.2639C273.288 76.2962 300.294 87.5006 320.212 107.419C340.13 127.337 351.334 154.343 351.366 182.512H354.435C354.402 153.53 342.875 125.744 322.381 105.25C301.888 84.756 274.102 73.228 245.12 73.1949Z" fill="#C8DFF5"/>
<path d="M351.366 182.509C351.366 183.014 351.362 183.519 351.356 184.023L354.424 184.063C354.43 183.546 354.434 183.028 354.434 182.509H351.366ZM295.208 276.231L296.655 278.937C297.555 278.456 298.447 277.962 299.333 277.455L297.809 274.792C296.949 275.284 296.082 275.764 295.208 276.232V276.231ZM289.893 278.889L291.187 281.672C292.112 281.241 293.03 280.798 293.942 280.342L292.569 277.598C291.684 278.04 290.792 278.47 289.893 278.889ZM300.369 273.278L301.965 275.899C302.838 275.368 303.702 274.824 304.557 274.269L302.886 271.695C302.055 272.234 301.216 272.762 300.369 273.278ZM284.441 281.242L285.577 284.093C286.524 283.716 287.465 283.326 288.4 282.923L287.183 280.104C286.276 280.496 285.362 280.875 284.441 281.242ZM305.359 270.04L307.101 272.567C307.941 271.988 308.772 271.398 309.596 270.795L307.784 268.318C306.984 268.903 306.175 269.477 305.359 270.04ZM314.763 262.749L316.775 265.066C317.545 264.396 318.307 263.716 319.06 263.025L316.982 260.765C316.252 261.436 315.512 262.098 314.762 262.749H314.763ZM255.603 288.246L255.901 291.3C256.921 291.2 257.936 291.086 258.947 290.959L258.562 287.914C257.58 288.038 256.594 288.149 255.603 288.246ZM261.512 287.499L261.981 290.532C262.993 290.375 264 290.205 265.003 290.021L264.449 287.003C263.475 287.182 262.496 287.347 261.512 287.499ZM319.148 258.719L321.286 260.92C322.018 260.209 322.741 259.487 323.454 258.755L321.255 256.615C320.562 257.326 319.86 258.027 319.148 258.719ZM249.662 288.661L249.792 291.727C250.814 291.684 251.833 291.627 252.848 291.556L252.634 288.494C251.647 288.563 250.656 288.619 249.662 288.661ZM278.858 283.287L279.831 286.198C280.801 285.873 281.766 285.535 282.725 285.184L281.669 282.303C280.738 282.644 279.801 282.972 278.859 283.287H278.858ZM267.371 286.422L268.009 289.424C269.011 289.211 270.007 288.984 270.999 288.743L270.274 285.761C269.312 285.994 268.344 286.214 267.371 286.421V286.422ZM273.158 285.017L273.965 287.978C274.953 287.709 275.935 287.426 276.911 287.129L276.02 284.193C275.072 284.481 274.118 284.756 273.158 285.017ZM310.161 266.527L312.041 268.952C312.847 268.327 313.645 267.69 314.435 267.042L312.488 264.67C311.721 265.299 310.945 265.918 310.161 266.527ZM348.382 207.617L351.364 208.34C351.604 207.349 351.83 206.352 352.044 205.351L349.043 204.714C348.835 205.687 348.615 206.654 348.383 207.617H348.382ZM349.62 201.791L352.638 202.345C352.822 201.342 352.993 200.335 353.149 199.323L350.116 198.853C349.964 199.837 349.798 200.816 349.62 201.791ZM346.816 213.365L349.753 214.255C350.049 213.278 350.331 212.296 350.6 211.309L347.64 210.502C347.378 211.462 347.103 212.416 346.816 213.365ZM323.304 254.451L325.561 256.53C326.253 255.778 326.934 255.017 327.606 254.246L325.291 252.231C324.639 252.98 323.976 253.72 323.304 254.451ZM344.922 219.032L347.804 220.087C348.156 219.126 348.495 218.159 348.82 217.185L345.91 216.212C345.594 217.159 345.264 218.099 344.922 219.032ZM350.53 195.905L353.574 196.287C353.7 195.276 353.814 194.261 353.914 193.242L350.86 192.944C350.763 193.935 350.653 194.922 350.53 195.905ZM351.273 187.001C351.231 187.996 351.176 188.988 351.107 189.976L354.168 190.189C354.239 189.172 354.296 188.152 354.338 187.129L351.273 187.001ZM330.873 245.248L333.349 247.062C333.952 246.238 334.544 245.405 335.126 244.562L332.602 242.819C332.036 243.637 331.46 244.447 330.873 245.248ZM327.216 249.956L329.585 251.906C330.235 251.117 330.873 250.318 331.501 249.51L329.077 247.628C328.467 248.413 327.847 249.189 327.217 249.956H327.216ZM334.263 240.34L336.834 242.015C337.392 241.158 337.938 240.292 338.472 239.418L335.852 237.818C335.334 238.667 334.804 239.508 334.262 240.34H334.263ZM337.373 235.25L340.033 236.778C340.542 235.891 341.039 234.995 341.523 234.092L338.818 232.642C338.348 233.519 337.867 234.389 337.373 235.25ZM342.71 224.58L345.528 225.796C345.933 224.856 346.326 223.91 346.706 222.959L343.856 221.821C343.486 222.748 343.104 223.667 342.71 224.58ZM340.191 229.991L342.935 231.366C343.393 230.451 343.839 229.529 344.272 228.599L341.489 227.304C341.069 228.207 340.636 229.102 340.191 229.991ZM246.635 288.745C246.131 288.752 245.626 288.755 245.122 288.755V291.825C245.642 291.825 246.16 291.821 246.678 291.814L246.635 288.745ZM135.815 180.954C135.808 181.471 135.805 181.99 135.805 182.509H138.874C138.874 182.003 138.877 181.498 138.884 180.994L135.815 180.954ZM158.741 115.505L161.164 117.389C161.773 116.604 162.393 115.828 163.025 115.061L160.656 113.111C160.006 113.9 159.368 114.698 158.741 115.505ZM143.534 142.058L146.384 143.195C146.753 142.269 147.135 141.349 147.529 140.436L144.71 139.221C144.306 140.16 143.914 141.106 143.534 142.058ZM162.634 110.771L164.95 112.785C165.602 112.036 166.264 111.296 166.937 110.565L164.68 108.487C163.988 109.238 163.305 110 162.634 110.771ZM145.969 136.418L148.751 137.712C149.171 136.81 149.603 135.915 150.049 135.026L147.305 133.651C146.846 134.566 146.401 135.488 145.969 136.418ZM151.769 125.598L154.389 127.198C154.907 126.349 155.437 125.508 155.979 124.676L153.406 123C152.848 123.857 152.302 124.723 151.768 125.597L151.769 125.598ZM155.114 120.454L157.639 122.198C158.204 121.38 158.78 120.571 159.368 119.77L156.894 117.954C156.288 118.778 155.694 119.611 155.114 120.454ZM148.717 130.924L151.421 132.374C151.891 131.497 152.374 130.628 152.868 129.767L150.208 128.239C149.697 129.126 149.2 130.021 148.717 130.924ZM136.325 171.774L139.379 172.074C139.475 171.083 139.585 170.095 139.709 169.112L136.665 168.73C136.538 169.741 136.425 170.755 136.325 171.774ZM137.09 165.694L140.123 166.164C140.275 165.18 140.441 164.201 140.619 163.226L137.602 162.672C137.417 163.674 137.246 164.681 137.09 165.694ZM141.42 147.832L144.331 148.804C144.647 147.859 144.976 146.919 145.319 145.986L142.437 144.928C142.084 145.889 141.745 146.857 141.421 147.832H141.42ZM135.9 177.889L138.966 178.016C139.008 177.021 139.063 176.03 139.132 175.042L136.071 174.829C136 175.845 135.943 176.865 135.901 177.889H135.9ZM138.195 159.666L141.197 160.304C141.403 159.331 141.623 158.363 141.857 157.401L138.875 156.676C138.634 157.667 138.407 158.664 138.195 159.666ZM139.639 153.708L142.6 154.515C142.861 153.555 143.135 152.601 143.423 151.652L140.486 150.763C140.19 151.739 139.907 152.721 139.639 153.708ZM207.519 79.834L208.576 82.715C209.506 82.3743 210.443 82.0463 211.386 81.731L210.414 78.821C209.442 79.145 208.478 79.4826 207.52 79.834H207.519ZM219.246 76.276L219.97 79.257C220.932 79.0236 221.9 78.8036 222.874 78.597L222.235 75.595C221.233 75.8083 220.237 76.036 219.246 76.276ZM213.332 77.889L214.223 80.826C215.171 80.538 216.124 80.263 217.084 80.001L216.278 77.041C215.29 77.3096 214.308 77.5923 213.332 77.889ZM225.241 74.999L225.795 78.016C226.769 77.8373 227.748 77.672 228.732 77.52L228.262 74.487C227.25 74.6436 226.243 74.8143 225.241 74.999ZM240.453 73.292C239.431 73.3353 238.412 73.3923 237.397 73.463L237.612 76.525C238.598 76.4556 239.589 76.4 240.583 76.358L240.453 73.292ZM201.843 82.096L203.06 84.913C203.966 84.5216 204.88 84.1426 205.801 83.776L204.667 80.924C203.719 81.3013 202.777 81.692 201.843 82.096ZM231.297 74.06L231.683 77.105C232.665 76.981 233.651 76.871 234.642 76.775L234.344 73.72C233.324 73.8193 232.308 73.9326 231.297 74.06ZM190.91 87.562L192.434 90.226C193.293 89.734 194.16 89.254 195.034 88.786L193.587 86.08C192.687 86.562 191.794 87.056 190.91 87.562ZM180.646 94.222L182.458 96.699C183.258 96.1143 184.066 95.5403 184.884 94.977L183.143 92.45C182.301 93.0293 181.469 93.62 180.646 94.222ZM175.808 97.974L177.754 100.346C178.521 99.7166 179.297 99.098 180.081 98.49L178.201 96.065C177.394 96.6903 176.596 97.326 175.808 97.974ZM171.184 101.991L173.259 104.251C173.99 103.58 174.73 102.919 175.48 102.268L173.468 99.951C172.697 100.62 171.936 101.3 171.184 101.991ZM196.3 84.674L197.673 87.419C198.557 86.977 199.449 86.547 200.349 86.129L199.054 83.346C198.128 83.776 197.21 84.2186 196.3 84.674ZM166.787 106.262L168.985 108.402C169.678 107.691 170.381 106.989 171.093 106.297L168.955 104.096C168.221 104.808 167.499 105.53 166.787 106.262ZM185.686 90.748L187.356 93.322C188.187 92.7826 189.026 92.255 189.873 91.739L188.277 89.118C187.403 89.6493 186.54 90.1926 185.686 90.748ZM243.566 73.205L243.61 76.274C244.112 76.2673 244.617 76.264 245.123 76.264V73.194C244.603 73.194 244.084 73.1976 243.566 73.205ZM173.602 182.51H176.67C176.69 164.362 183.908 146.963 196.741 134.131C209.573 121.299 226.972 114.08 245.12 114.06V110.991C226.158 111.012 207.98 118.554 194.572 131.962C181.165 145.37 173.623 163.549 173.602 182.51ZM313.568 182.51C313.547 200.657 306.328 218.056 293.496 230.888C280.664 243.72 263.265 250.938 245.118 250.958V254.028C264.079 254.007 282.258 246.465 295.666 233.058C309.074 219.65 316.616 201.471 316.638 182.51H313.568Z" fill="#C8DFF5"/>
<path d="M243.62 250.942L243.553 254.01C244.074 254.021 244.596 254.027 245.12 254.027V250.958C244.619 250.958 244.119 250.953 243.62 250.942ZM188.192 220.53L185.641 222.235C186.215 223.095 186.817 223.954 187.431 224.789L189.903 222.972C189.315 222.17 188.744 221.356 188.192 220.53ZM191.722 225.34L189.33 227.26C189.98 228.071 190.649 228.867 191.334 229.649L193.642 227.625C192.985 226.877 192.345 226.116 191.722 225.34ZM185.094 215.435L182.405 216.915C182.905 217.825 183.425 218.724 183.965 219.611L186.587 218.016C186.071 217.167 185.573 216.307 185.094 215.436V215.435ZM193.441 231.948C194.161 232.698 194.901 233.441 195.646 234.154L197.77 231.938C197.051 231.249 196.348 230.545 195.66 229.826L193.441 231.948ZM182.455 210.094L179.647 211.331C180.063 212.276 180.507 213.226 180.965 214.152L183.715 212.792C183.275 211.902 182.855 211.002 182.455 210.094ZM176.818 187.027L173.756 187.225C173.822 188.251 173.913 189.297 174.026 190.333L177.076 190.002C176.968 189.012 176.882 188.02 176.818 187.027ZM178.625 198.816L175.643 199.543C175.89 200.553 176.161 201.566 176.45 202.557L179.396 201.699C179.118 200.744 178.861 199.782 178.625 198.816ZM180.294 204.546L177.389 205.532C177.719 206.509 178.079 207.492 178.454 208.457L181.313 207.342C180.952 206.418 180.613 205.485 180.294 204.546ZM177.462 192.96L174.429 193.426C174.586 194.453 174.769 195.486 174.969 196.498L177.979 195.901C177.785 194.925 177.613 193.944 177.462 192.96ZM231.163 252.666C232.178 252.866 233.211 253.048 234.236 253.204L234.699 250.17C233.719 250.02 232.729 249.847 231.759 249.655L231.163 252.666ZM197.945 236.262C198.723 236.946 199.526 237.622 200.334 238.27L202.256 235.878C201.48 235.254 200.719 234.614 199.971 233.957L197.945 236.262ZM219.182 249.177C220.148 249.554 221.136 249.914 222.12 250.247L223.106 247.342C222.162 247.021 221.225 246.68 220.296 246.318L219.182 249.177ZM237.66 250.557L237.33 253.607C238.354 253.719 239.398 253.809 240.437 253.876L240.634 250.814C239.641 250.75 238.649 250.664 237.66 250.557ZM225.104 251.187C226.101 251.477 227.114 251.749 228.118 251.993L228.844 249.012C227.884 248.778 226.914 248.519 225.96 248.241L225.104 251.187ZM213.463 246.657C214.387 247.115 215.34 247.56 216.295 247.981L217.533 245.173C216.621 244.771 215.718 244.349 214.825 243.907L213.463 246.657ZM202.807 240.173C203.637 240.783 204.497 241.387 205.361 241.966L207.07 239.416C206.242 238.862 205.426 238.29 204.624 237.7L202.807 240.173ZM207.993 243.646C208.874 244.183 209.783 244.71 210.696 245.212L212.175 242.522C211.302 242.042 210.44 241.544 209.59 241.026L207.993 243.646ZM176.67 182.51H173.602C173.602 183.033 173.607 183.555 173.618 184.076L176.687 184.013C176.676 183.513 176.67 183.012 176.67 182.51ZM245.12 110.991V114.061C245.621 114.061 246.121 114.066 246.621 114.076L246.689 111.008C246.167 110.997 245.644 110.991 245.12 110.991ZM272.708 119.847C273.626 120.252 274.538 120.677 275.415 121.113L276.777 118.363C275.858 117.908 274.907 117.462 273.946 117.039L272.708 119.847ZM278.066 122.496C278.938 122.976 279.809 123.48 280.65 123.993L282.248 121.373C281.358 120.831 280.457 120.309 279.545 119.807L278.066 122.496ZM267.135 117.676C268.075 117.996 269.021 118.34 269.945 118.7L271.059 115.841C270.087 115.463 269.108 115.106 268.121 114.771L267.135 117.676ZM283.17 125.603C283.997 126.157 284.812 126.73 285.615 127.32L287.435 124.848C286.595 124.231 285.743 123.633 284.878 123.053L283.17 125.603ZM316.215 174.688L313.165 175.019C313.271 176.011 313.358 177.012 313.421 177.994L316.484 177.796C316.416 176.758 316.326 175.722 316.214 174.688H316.215ZM287.985 129.141C288.76 129.765 289.522 130.406 290.27 131.063L292.296 128.758C291.515 128.071 290.719 127.402 289.909 126.75L287.985 129.141ZM255.541 114.848C256.524 114.998 257.514 115.172 258.481 115.364L259.078 112.354C258.057 112.152 257.033 111.972 256.005 111.814L255.541 114.848ZM261.397 116.006C262.356 116.24 263.327 116.5 264.28 116.777L265.137 113.831C264.138 113.54 263.133 113.271 262.123 113.025L261.397 116.006ZM249.607 114.204C250.6 114.269 251.601 114.355 252.581 114.462L252.911 111.411C251.877 111.299 250.842 111.209 249.805 111.142L249.607 114.204ZM309.275 150.869L306.524 152.229C306.964 153.119 307.384 154.018 307.784 154.927L310.592 153.69C310.173 152.74 309.734 151.8 309.274 150.869H309.275ZM311.785 156.564L308.926 157.679C309.286 158.601 309.629 159.542 309.944 160.475L312.852 159.49C312.518 158.507 312.162 157.531 311.785 156.564ZM313.789 162.464L310.843 163.322C311.118 164.27 311.379 165.24 311.613 166.205L314.596 165.478C314.349 164.467 314.08 163.463 313.789 162.464ZM315.271 168.524L312.261 169.12C312.452 170.088 312.626 171.077 312.777 172.06L315.81 171.595C315.652 170.567 315.472 169.543 315.27 168.523L315.271 168.524ZM298.906 135.371L296.599 137.395C297.253 138.141 297.899 138.91 298.517 139.681L300.91 137.76C300.259 136.949 299.591 136.153 298.906 135.371ZM294.596 130.866L292.472 133.082C293.19 133.77 293.894 134.475 294.582 135.194L296.8 133.072C296.081 132.321 295.345 131.585 294.595 130.866H294.596ZM302.809 140.232L300.335 142.048C300.921 142.846 301.496 143.668 302.047 144.491L304.597 142.785C304.019 141.921 303.423 141.07 302.809 140.232ZM306.274 145.41L303.652 147.005C304.168 147.854 304.665 148.714 305.144 149.585L307.834 148.107C307.334 147.197 306.813 146.297 306.274 145.41ZM316.621 180.943L313.551 181.01C313.563 181.509 313.568 182.01 313.568 182.511H316.638C316.638 181.987 316.632 181.464 316.621 180.943ZM138.874 182.512H135.804C135.837 211.494 147.365 239.279 167.858 259.772C188.352 280.266 216.138 291.793 245.12 291.825V288.755C216.952 288.723 189.947 277.52 170.029 257.602C150.111 237.685 138.906 210.68 138.874 182.512ZM245.12 73.1949V76.2639C273.288 76.2962 300.294 87.5006 320.212 107.419C340.13 127.337 351.334 154.343 351.366 182.512H354.435C354.402 153.53 342.875 125.744 322.381 105.25C301.888 84.756 274.102 73.228 245.12 73.1949Z" fill="#C8DFF5"/>
<path d="M351.366 182.509C351.366 183.014 351.362 183.519 351.356 184.023L354.424 184.063C354.43 183.546 354.434 183.028 354.434 182.509H351.366ZM300.369 273.278L301.965 275.899C302.838 275.368 303.702 274.824 304.557 274.269L302.886 271.695C302.055 272.234 301.216 272.762 300.369 273.278ZM289.893 278.889L291.188 281.672C292.112 281.241 293.03 280.798 293.942 280.342L292.569 277.598C291.684 278.04 290.792 278.47 289.893 278.889ZM319.148 258.719L321.286 260.92C322.018 260.209 322.741 259.487 323.454 258.755L321.255 256.615C320.562 257.326 319.86 258.027 319.148 258.719ZM305.359 270.04L307.101 272.567C307.941 271.988 308.772 271.398 309.596 270.795L307.784 268.318C306.984 268.903 306.175 269.477 305.359 270.04ZM310.161 266.527L312.041 268.952C312.847 268.327 313.645 267.69 314.435 267.042L312.488 264.67C311.721 265.299 310.945 265.918 310.161 266.527ZM314.763 262.749L316.775 265.066C317.545 264.396 318.307 263.716 319.06 263.025L316.982 260.765C316.252 261.436 315.512 262.098 314.762 262.749H314.763ZM295.208 276.231L296.655 278.937C297.555 278.456 298.447 277.962 299.333 277.455L297.809 274.792C296.949 275.284 296.082 275.764 295.208 276.232V276.231ZM255.603 288.246L255.901 291.3C256.921 291.2 257.936 291.086 258.947 290.959L258.562 287.914C257.58 288.038 256.594 288.149 255.603 288.246ZM261.512 287.499L261.981 290.532C262.993 290.375 264 290.205 265.003 290.021L264.449 287.003C263.475 287.182 262.496 287.347 261.512 287.499ZM284.441 281.242L285.577 284.093C286.524 283.716 287.465 283.326 288.4 282.923L287.183 280.104C286.276 280.496 285.362 280.875 284.441 281.242ZM249.662 288.662L249.792 291.727C250.814 291.684 251.832 291.627 252.848 291.556L252.634 288.494C251.647 288.563 250.656 288.62 249.662 288.662ZM278.858 283.287L279.831 286.198C280.801 285.873 281.766 285.535 282.725 285.184L281.669 282.303C280.738 282.644 279.801 282.972 278.859 283.287H278.858ZM273.158 285.017L273.965 287.978C274.953 287.709 275.935 287.426 276.911 287.129L276.02 284.193C275.072 284.481 274.118 284.756 273.158 285.017ZM267.371 286.422L268.009 289.424C269.011 289.211 270.007 288.984 270.999 288.743L270.274 285.761C269.312 285.994 268.344 286.214 267.371 286.421V286.422ZM344.922 219.032L347.804 220.087C348.156 219.126 348.495 218.159 348.82 217.185L345.91 216.212C345.594 217.159 345.264 218.099 344.922 219.032ZM348.382 207.617L351.364 208.34C351.604 207.349 351.83 206.352 352.044 205.351L349.043 204.714C348.835 205.687 348.615 206.654 348.383 207.617H348.382ZM346.816 213.365L349.753 214.255C350.049 213.278 350.331 212.296 350.6 211.309L347.64 210.502C347.378 211.462 347.103 212.416 346.816 213.365ZM349.62 201.791L352.638 202.345C352.822 201.342 352.993 200.335 353.149 199.323L350.116 198.854C349.964 199.837 349.798 200.816 349.62 201.791ZM351.273 187.001C351.231 187.996 351.176 188.988 351.107 189.976L354.168 190.189C354.239 189.172 354.296 188.152 354.338 187.129L351.273 187.001ZM350.53 195.905L353.574 196.287C353.7 195.276 353.814 194.261 353.914 193.242L350.86 192.944C350.763 193.935 350.653 194.922 350.53 195.905ZM337.372 235.25L340.033 236.778C340.542 235.891 341.039 234.995 341.523 234.092L338.818 232.642C338.348 233.519 337.866 234.389 337.372 235.25ZM334.262 240.34L336.834 242.015C337.392 241.158 337.938 240.292 338.472 239.418L335.852 237.818C335.334 238.667 334.804 239.508 334.262 240.34ZM330.873 245.248L333.349 247.062C333.952 246.238 334.544 245.405 335.126 244.562L332.602 242.819C332.036 243.637 331.46 244.447 330.873 245.248ZM327.216 249.956L329.585 251.906C330.235 251.117 330.873 250.318 331.501 249.51L329.077 247.628C328.467 248.413 327.847 249.189 327.217 249.956H327.216ZM342.71 224.58L345.528 225.796C345.933 224.856 346.326 223.91 346.706 222.959L343.856 221.821C343.486 222.748 343.104 223.667 342.71 224.58ZM323.304 254.45L325.561 256.53C326.253 255.778 326.934 255.017 327.606 254.246L325.291 252.231C324.639 252.98 323.976 253.72 323.304 254.451V254.45ZM340.191 229.991L342.935 231.366C343.393 230.451 343.839 229.529 344.272 228.599L341.489 227.304C341.069 228.207 340.636 229.102 340.191 229.991ZM246.635 288.745C246.131 288.752 245.626 288.755 245.122 288.755V291.825C245.642 291.825 246.16 291.821 246.678 291.814L246.635 288.745ZM135.815 180.954C135.808 181.471 135.805 181.99 135.805 182.509H138.874C138.874 182.003 138.877 181.498 138.884 180.994L135.815 180.954ZM148.717 130.924L151.421 132.374C151.891 131.497 152.374 130.628 152.868 129.766L150.207 128.239C149.697 129.126 149.2 130.021 148.717 130.924ZM145.969 136.418L148.751 137.712C149.171 136.81 149.603 135.915 150.049 135.026L147.305 133.651C146.846 134.566 146.401 135.488 145.969 136.418ZM143.534 142.058L146.384 143.195C146.753 142.269 147.135 141.349 147.529 140.436L144.71 139.221C144.306 140.16 143.914 141.106 143.534 142.058ZM151.769 125.598L154.389 127.198C154.907 126.349 155.436 125.508 155.978 124.676L153.407 123C152.849 123.857 152.303 124.724 151.769 125.598ZM155.114 120.454L157.639 122.198C158.204 121.38 158.78 120.571 159.368 119.77L156.894 117.953C156.288 118.778 155.694 119.611 155.114 120.454ZM158.741 115.505L161.164 117.389C161.773 116.604 162.393 115.828 163.025 115.061L160.656 113.111C160.006 113.9 159.368 114.698 158.741 115.505ZM138.195 159.666L141.197 160.304C141.403 159.331 141.623 158.363 141.857 157.401L138.875 156.676C138.634 157.667 138.407 158.664 138.195 159.666ZM136.325 171.775L139.379 172.073C139.475 171.082 139.585 170.095 139.709 169.112L136.665 168.73C136.538 169.741 136.425 170.756 136.325 171.775ZM137.09 165.695L140.123 166.163C140.275 165.18 140.441 164.201 140.619 163.226L137.602 162.672C137.417 163.674 137.246 164.681 137.09 165.694V165.695ZM135.9 177.889L138.966 178.016C139.008 177.021 139.063 176.03 139.132 175.042L136.071 174.829C136 175.845 135.943 176.865 135.901 177.889H135.9ZM139.64 153.709L142.6 154.515C142.861 153.555 143.135 152.601 143.423 151.652L140.486 150.763C140.19 151.739 139.907 152.721 139.639 153.708L139.64 153.709ZM141.42 147.832L144.331 148.804C144.647 147.859 144.976 146.919 145.319 145.986L142.437 144.928C142.084 145.889 141.745 146.857 141.421 147.832H141.42ZM162.635 110.771L164.95 112.785C165.602 112.036 166.264 111.296 166.937 110.565L164.68 108.487C163.988 109.238 163.306 110 162.635 110.771ZM231.297 74.061L231.683 77.105C232.665 76.981 233.651 76.871 234.642 76.775L234.344 73.72C233.324 73.8193 232.308 73.9336 231.297 74.061ZM213.332 77.889L214.223 80.826C215.171 80.538 216.124 80.263 217.084 80.001L216.278 77.041C215.29 77.3096 214.308 77.5923 213.332 77.889ZM219.246 76.276L219.97 79.257C220.932 79.0236 221.9 78.8036 222.874 78.597L222.235 75.595C221.233 75.8083 220.237 76.036 219.246 76.276ZM207.52 79.834L208.576 82.715C209.506 82.3743 210.443 82.0463 211.386 81.731L210.414 78.821C209.442 79.145 208.478 79.4826 207.52 79.834ZM201.843 82.096L203.06 84.913C203.966 84.5216 204.88 84.1426 205.801 83.776L204.667 80.924C203.719 81.3013 202.777 81.692 201.843 82.096ZM240.453 73.292C239.431 73.3353 238.412 73.3923 237.397 73.463L237.612 76.525C238.598 76.4556 239.589 76.4 240.583 76.358L240.453 73.292ZM225.24 75L225.794 78.017C226.768 77.8383 227.747 77.673 228.731 77.521L228.261 74.488C227.249 74.6446 226.242 74.8153 225.24 75ZM185.686 90.75L187.356 93.323C188.187 92.7836 189.026 92.256 189.873 91.74L188.277 89.119C187.403 89.6503 186.54 90.1946 185.686 90.75ZM180.645 94.223L182.457 96.7C183.257 96.1153 184.065 95.5413 184.883 94.978L183.142 92.451C182.3 93.0303 181.468 93.621 180.645 94.223ZM175.807 97.975L177.753 100.347C178.52 99.7176 179.296 99.099 180.08 98.491L178.2 96.066C177.393 96.6913 176.595 97.327 175.807 97.975ZM171.183 101.992L173.258 104.252C173.989 103.581 174.729 102.92 175.479 102.269L173.467 99.952C172.696 100.621 171.935 101.301 171.183 101.992ZM196.3 84.674L197.673 87.419C198.557 86.977 199.449 86.547 200.349 86.129L199.054 83.346C198.128 83.776 197.21 84.2186 196.3 84.674ZM190.909 87.562L192.433 90.226C193.292 89.734 194.159 89.254 195.033 88.786L193.586 86.08C192.686 86.562 191.793 87.056 190.909 87.562ZM166.787 106.262L168.985 108.402C169.678 107.691 170.381 106.989 171.093 106.297L168.955 104.096C168.221 104.808 167.499 105.53 166.787 106.262ZM243.567 73.205L243.61 76.274C244.112 76.2673 244.617 76.264 245.123 76.264V73.194C244.603 73.194 244.084 73.1976 243.566 73.205H243.567ZM194.81 182.512H197.878C197.892 169.987 202.874 157.978 211.731 149.122C220.587 140.265 232.595 135.283 245.121 135.268V132.198C231.782 132.214 218.993 137.52 209.562 146.952C200.13 156.384 194.825 169.173 194.81 182.512ZM292.362 182.512C292.347 195.037 287.365 207.045 278.508 215.901C269.652 224.757 257.644 229.738 245.119 229.752V232.821C258.457 232.806 271.245 227.501 280.678 218.07C290.11 208.638 295.415 195.851 295.431 182.512H292.362Z" fill="#C8DFF5"/>
<path d="M191.023 216.95L158.601 198.23C158.134 197.96 157.605 197.818 157.066 197.818C156.527 197.818 155.998 197.96 155.531 198.23L123.109 216.95C122.643 217.219 122.255 217.607 121.986 218.073C121.717 218.54 121.575 219.069 121.575 219.607C121.575 220.146 121.717 220.675 121.986 221.142C122.255 221.608 122.643 221.996 123.109 222.265L155.532 240.972C155.999 241.241 156.528 241.383 157.066 241.383C157.605 241.383 158.134 241.241 158.6 240.972L191.023 222.265C191.49 221.996 191.877 221.608 192.147 221.142C192.416 220.675 192.558 220.146 192.558 219.607C192.558 219.068 192.416 218.539 192.147 218.072C191.877 217.606 191.49 217.219 191.023 216.95ZM157.066 234.77L130.783 219.606L157.066 204.43L183.35 219.606L157.066 234.77Z" fill="#2481D7"/>
<path d="M189.49 216.538C189.087 216.538 188.688 216.617 188.315 216.771C187.943 216.925 187.605 217.152 187.319 217.437C187.034 217.722 186.808 218.06 186.654 218.432C186.5 218.805 186.42 219.204 186.42 219.607V357.035L157.066 373.972L127.712 357.035V219.607C127.698 218.803 127.368 218.036 126.794 217.473C126.22 216.909 125.448 216.593 124.644 216.593C123.839 216.593 123.067 216.909 122.493 217.473C121.919 218.036 121.59 218.803 121.575 219.607V358.807C121.575 359.346 121.717 359.875 121.987 360.342C122.256 360.808 122.644 361.196 123.11 361.465L155.532 380.173C155.999 380.442 156.528 380.584 157.066 380.584C157.605 380.584 158.134 380.442 158.6 380.173L191.023 361.465C191.49 361.196 191.877 360.808 192.147 360.342C192.416 359.875 192.558 359.346 192.558 358.807V219.607C192.558 218.793 192.235 218.012 191.659 217.437C191.084 216.861 190.303 216.538 189.489 216.538H189.49Z" fill="#2481D7"/>
<path d="M157.066 235.245C156.252 235.245 155.472 235.568 154.896 236.143C154.321 236.719 153.997 237.499 153.997 238.313V377.515C153.997 378.329 154.32 379.11 154.896 379.685C155.472 380.261 156.252 380.584 157.066 380.584C157.88 380.584 158.661 380.261 159.236 379.685C159.812 379.11 160.135 378.329 160.135 377.515V238.313C160.135 237.91 160.055 237.511 159.901 237.139C159.747 236.766 159.521 236.428 159.235 236.143C158.95 235.858 158.612 235.632 158.24 235.478C157.867 235.324 157.469 235.245 157.066 235.245ZM279.072 185.438L246.658 166.718C246.191 166.448 245.662 166.307 245.123 166.307C244.584 166.307 244.055 166.448 243.588 166.718L211.157 185.438C210.69 185.707 210.303 186.095 210.034 186.561C209.764 187.028 209.622 187.557 209.622 188.096C209.622 188.635 209.764 189.164 210.034 189.631C210.303 190.097 210.69 190.485 211.157 190.754L243.59 209.464C244.057 209.733 244.586 209.875 245.124 209.875C245.663 209.875 246.192 209.733 246.658 209.464L279.072 190.754C279.538 190.484 279.926 190.097 280.195 189.63C280.464 189.164 280.606 188.635 280.606 188.096C280.606 187.557 280.464 187.028 280.195 186.562C279.926 186.095 279.538 185.707 279.072 185.438ZM245.122 203.263L218.831 188.095L245.123 172.919L271.4 188.095L245.122 203.263Z" fill="#2481D7"/>
<path d="M277.538 185.027C277.135 185.027 276.736 185.106 276.363 185.26C275.991 185.415 275.652 185.641 275.367 185.926C275.082 186.211 274.856 186.549 274.702 186.921C274.548 187.294 274.468 187.693 274.468 188.096V357.036L245.123 373.972L215.76 357.035V188.095C215.76 187.281 215.437 186.5 214.861 185.925C214.286 185.349 213.505 185.026 212.691 185.026C211.877 185.026 211.097 185.349 210.521 185.925C209.945 186.5 209.622 187.281 209.622 188.095V358.807C209.622 359.346 209.764 359.875 210.034 360.342C210.303 360.808 210.69 361.196 211.157 361.465L243.59 380.173C244.056 380.442 244.585 380.584 245.124 380.584C245.662 380.584 246.191 380.442 246.657 380.173L279.071 361.465C279.538 361.196 279.925 360.808 280.195 360.342C280.464 359.875 280.606 359.346 280.606 358.807V188.096C280.606 187.282 280.283 186.502 279.708 185.926C279.132 185.351 278.352 185.027 277.538 185.027Z" fill="#2481D7"/>
<path d="M245.124 203.737C244.721 203.737 244.321 203.816 243.949 203.97C243.576 204.125 243.238 204.351 242.953 204.636C242.668 204.921 242.442 205.259 242.287 205.631C242.133 206.004 242.054 206.403 242.054 206.806V377.515C242.054 378.329 242.377 379.11 242.953 379.685C243.528 380.261 244.309 380.584 245.123 380.584C245.937 380.584 246.717 380.261 247.293 379.685C247.868 379.11 248.192 378.329 248.192 377.515V206.805C248.191 205.991 247.868 205.211 247.293 204.636C246.718 204.061 245.937 203.737 245.124 203.737Z" fill="#2481D7"/>
<path d="M382.35 305.123L375.208 312.272L377.379 314.441L382.348 309.466L387.313 314.441L389.485 312.272L382.35 305.123Z" fill="#C8DFF5"/>
<path d="M380.814 307.295H383.883V321.058H380.814V307.295ZM380.814 324.406H383.883V327.7H380.814V324.406ZM380.814 329.757H383.883V333.05H380.814V329.757ZM380.814 335.105H383.883V338.4H380.814V335.105ZM380.814 341.159H383.883V349.878H380.814V341.159ZM382.35 245.164L375.208 252.313L377.379 254.482L382.348 249.508L387.313 254.481L389.484 252.313L382.35 245.164Z" fill="#C8DFF5"/>
<path d="M380.814 247.336H383.883V261.098H380.814V247.336ZM380.814 264.448H383.883V267.741H380.814V264.448ZM380.814 269.797H383.883V273.09H380.814V269.797ZM380.814 275.146H383.883V278.441H380.814V275.146ZM380.814 281.2H383.883V289.919H380.814V281.2ZM382.35 185.205L375.208 192.353L377.379 194.522L382.348 189.548L387.313 194.522L389.484 192.354L382.35 185.205Z" fill="#C8DFF5"/>
<path d="M380.814 187.377H383.883V201.139H380.814V187.377ZM380.814 204.488H383.883V207.782H380.814V204.488ZM380.814 209.838H383.883V213.131H380.814V209.838ZM380.814 215.187H383.883V218.481H380.814V215.187ZM380.814 221.24H383.883V229.96H380.814V221.24ZM382.35 125.246L375.208 132.394L377.379 134.563L382.348 129.589L387.313 134.563L389.484 132.394L382.35 125.246Z" fill="#C8DFF5"/>
<path d="M380.814 127.418H383.883V141.18H380.814V127.418ZM380.814 144.529H383.883V147.822H380.814V144.529ZM380.814 149.879H383.883V153.173H380.814V149.879ZM380.814 155.228H383.883V158.523H380.814V155.228ZM380.814 161.281H383.883V170H380.814V161.281Z" fill="#C8DFF5"/>
<path d="M300.75 156.587V358.807L333.173 377.515L365.597 358.807V156.587H300.75Z" fill="#288DE8"/>
<path d="M300.75 156.587V358.807L333.173 377.515V156.587H300.75Z" fill="#5BA1E1"/>
<path d="M333.173 137.867L300.75 156.587L333.173 175.295L365.597 156.587L333.173 137.867ZM333.173 340.086L300.75 358.805L333.173 377.515L365.597 358.805L333.173 340.086Z" fill="#6AB0E5"/>
<path d="M325.704 183.074L317.454 174.826C317.389 174.761 317.312 174.71 317.228 174.675C317.144 174.64 317.053 174.621 316.962 174.621C316.87 174.621 316.78 174.64 316.695 174.675C316.611 174.71 316.534 174.761 316.47 174.826L308.22 183.074C308.09 183.205 308.016 183.382 308.016 183.567V190.194C308.016 190.332 308.057 190.467 308.134 190.581C308.211 190.696 308.32 190.785 308.447 190.838C308.575 190.891 308.715 190.904 308.851 190.877C308.986 190.85 309.11 190.784 309.208 190.686L316.961 182.929L324.714 190.686C324.811 190.783 324.936 190.85 325.071 190.877C325.206 190.904 325.347 190.89 325.474 190.837C325.602 190.785 325.711 190.696 325.788 190.581C325.865 190.467 325.907 190.332 325.908 190.194V183.567C325.907 183.382 325.834 183.205 325.704 183.074Z" fill="#288DE8"/>
<path d="M325.704 194.599L317.454 186.355C317.389 186.29 317.313 186.238 317.228 186.203C317.144 186.168 317.053 186.15 316.962 186.15C316.87 186.15 316.78 186.168 316.695 186.203C316.611 186.238 316.534 186.29 316.47 186.355L308.22 194.599C308.09 194.731 308.016 194.908 308.016 195.093V201.717C308.016 201.855 308.057 201.99 308.133 202.105C308.21 202.22 308.319 202.309 308.447 202.362C308.574 202.415 308.715 202.428 308.85 202.401C308.986 202.374 309.11 202.308 309.208 202.21L316.961 194.457L324.714 202.21C324.846 202.34 325.024 202.414 325.21 202.415C325.301 202.414 325.392 202.396 325.477 202.362C325.604 202.309 325.713 202.219 325.789 202.104C325.866 201.99 325.907 201.855 325.908 201.717V195.093C325.907 194.908 325.834 194.73 325.704 194.599Z" fill="#288DE8"/>
<path d="M325.704 210.022L317.454 201.775C317.389 201.71 317.313 201.659 317.228 201.624C317.144 201.589 317.053 201.571 316.962 201.571C316.87 201.571 316.78 201.589 316.696 201.624C316.611 201.659 316.534 201.71 316.47 201.775L308.22 210.022C308.089 210.153 308.016 210.331 308.016 210.516C308.016 210.701 308.089 210.879 308.22 211.01C308.351 211.14 308.529 211.214 308.714 211.214C308.899 211.214 309.077 211.14 309.208 211.009L316.961 203.255L324.714 211.009C324.845 211.139 325.022 211.211 325.207 211.21C325.391 211.21 325.568 211.137 325.698 211.006C325.829 210.876 325.903 210.7 325.904 210.515C325.905 210.331 325.833 210.154 325.704 210.022Z" fill="#288DE8"/>
<path d="M325.704 218.159L317.454 209.912C317.389 209.847 317.312 209.796 317.228 209.761C317.144 209.726 317.053 209.708 316.962 209.708C316.87 209.708 316.78 209.726 316.695 209.761C316.611 209.796 316.534 209.847 316.47 209.912L308.22 218.159C308.098 218.292 308.033 218.466 308.037 218.646C308.042 218.826 308.115 218.997 308.242 219.124C308.369 219.252 308.541 219.325 308.721 219.329C308.9 219.333 309.075 219.267 309.208 219.146L316.961 211.393L324.714 219.146C324.845 219.276 325.022 219.348 325.206 219.347C325.391 219.347 325.567 219.274 325.698 219.143C325.829 219.013 325.902 218.837 325.904 218.652C325.905 218.468 325.833 218.291 325.704 218.159ZM325.704 228.973L317.454 220.725C317.389 220.66 317.312 220.609 317.228 220.574C317.144 220.539 317.053 220.521 316.962 220.521C316.87 220.521 316.78 220.539 316.695 220.574C316.611 220.609 316.534 220.66 316.47 220.725L308.22 228.973C308.09 229.104 308.016 229.281 308.016 229.466V236.092C308.016 236.23 308.057 236.365 308.134 236.48C308.211 236.594 308.32 236.683 308.447 236.736C308.575 236.789 308.715 236.802 308.851 236.775C308.986 236.748 309.11 236.682 309.208 236.584L316.961 228.828L324.714 236.584C324.811 236.682 324.936 236.749 325.071 236.776C325.207 236.803 325.347 236.789 325.475 236.737C325.603 236.684 325.712 236.595 325.789 236.48C325.866 236.365 325.907 236.23 325.908 236.092V229.466C325.907 229.281 325.834 229.104 325.704 228.973Z" fill="#288DE8"/>
<path d="M325.704 240.497L317.454 232.254C317.389 232.189 317.312 232.138 317.228 232.103C317.144 232.068 317.053 232.049 316.962 232.049C316.87 232.049 316.78 232.068 316.695 232.103C316.611 232.138 316.534 232.189 316.47 232.254L308.22 240.497C308.09 240.629 308.016 240.806 308.016 240.991V247.615C308.015 247.753 308.056 247.888 308.133 248.003C308.21 248.118 308.319 248.207 308.447 248.26C308.574 248.312 308.715 248.325 308.85 248.299C308.985 248.272 309.109 248.206 309.208 248.109L316.961 240.355L324.714 248.109C324.812 248.206 324.937 248.273 325.072 248.299C325.208 248.326 325.349 248.312 325.477 248.259C325.604 248.206 325.713 248.117 325.79 248.002C325.866 247.888 325.907 247.753 325.908 247.615V240.991C325.907 240.806 325.834 240.628 325.704 240.497Z" fill="#288DE8"/>
<path d="M325.704 255.921L317.454 247.673C317.323 247.543 317.146 247.469 316.962 247.469C316.777 247.469 316.6 247.543 316.47 247.673L308.22 255.921C308.092 256.053 308.022 256.229 308.023 256.412C308.025 256.596 308.099 256.771 308.228 256.9C308.358 257.03 308.533 257.103 308.717 257.104C308.9 257.105 309.076 257.035 309.208 256.907L316.961 249.155L324.714 256.907C324.844 257.038 325.022 257.112 325.207 257.113C325.393 257.113 325.57 257.04 325.702 256.909C325.833 256.778 325.907 256.601 325.907 256.415C325.908 256.23 325.834 256.052 325.704 255.921Z" fill="#288DE8"/>
<path d="M325.704 264.058L317.454 255.809C317.323 255.679 317.146 255.605 316.962 255.605C316.777 255.605 316.6 255.679 316.47 255.809L308.22 264.058C308.153 264.122 308.1 264.2 308.064 264.285C308.028 264.37 308.008 264.461 308.008 264.554C308.007 264.647 308.025 264.738 308.06 264.824C308.095 264.91 308.147 264.987 308.213 265.053C308.278 265.118 308.356 265.17 308.442 265.205C308.528 265.24 308.619 265.257 308.712 265.257C308.805 265.256 308.896 265.237 308.981 265.2C309.066 265.164 309.143 265.11 309.208 265.044L316.961 257.292L324.714 265.044C324.846 265.168 325.021 265.236 325.202 265.234C325.384 265.231 325.557 265.158 325.686 265.03C325.814 264.902 325.888 264.729 325.891 264.548C325.895 264.366 325.827 264.191 325.704 264.058ZM325.704 274.871L317.454 266.623C317.389 266.558 317.312 266.507 317.228 266.472C317.144 266.436 317.053 266.418 316.962 266.418C316.87 266.418 316.78 266.436 316.695 266.472C316.611 266.507 316.534 266.558 316.47 266.623L308.22 274.871C308.089 275.002 308.016 275.179 308.016 275.364V281.99C308.015 282.128 308.056 282.263 308.133 282.378C308.21 282.493 308.319 282.583 308.446 282.636C308.574 282.689 308.714 282.702 308.85 282.675C308.985 282.648 309.11 282.582 309.208 282.484L316.961 274.726L324.714 282.484C324.811 282.581 324.936 282.648 325.071 282.675C325.207 282.702 325.347 282.688 325.475 282.635C325.603 282.582 325.712 282.493 325.789 282.378C325.866 282.263 325.907 282.128 325.908 281.99V275.364C325.907 275.179 325.834 275.002 325.704 274.871Z" fill="#288DE8"/>
<path d="M325.704 286.396L317.454 278.153C317.389 278.088 317.313 278.036 317.228 278.001C317.144 277.966 317.053 277.948 316.962 277.948C316.87 277.948 316.78 277.966 316.695 278.001C316.611 278.036 316.534 278.088 316.47 278.153L308.22 286.396C308.09 286.528 308.016 286.705 308.016 286.89V293.514C308.016 293.652 308.057 293.787 308.133 293.901C308.21 294.016 308.319 294.105 308.447 294.158C308.574 294.21 308.714 294.224 308.85 294.197C308.985 294.171 309.109 294.105 309.208 294.008L316.961 286.254L324.714 294.008C324.812 294.105 324.937 294.172 325.072 294.198C325.208 294.225 325.349 294.211 325.477 294.158C325.604 294.105 325.713 294.016 325.789 293.901C325.866 293.786 325.907 293.652 325.908 293.514V286.89C325.907 286.705 325.834 286.528 325.704 286.396Z" fill="#288DE8"/>
<path d="M325.704 301.819L317.454 293.572C317.323 293.442 317.146 293.368 316.962 293.368C316.777 293.368 316.6 293.442 316.47 293.572L308.22 301.819C308.089 301.95 308.016 302.128 308.016 302.313C308.016 302.498 308.089 302.676 308.22 302.806C308.351 302.937 308.529 303.011 308.714 303.011C308.899 303.011 309.077 302.937 309.208 302.806L316.961 295.052L324.714 302.806C324.845 302.935 325.022 303.008 325.207 303.007C325.391 303.007 325.568 302.934 325.698 302.803C325.829 302.673 325.903 302.497 325.904 302.312C325.905 302.128 325.833 301.951 325.704 301.819Z" fill="#288DE8"/>
<path d="M325.704 309.956L317.454 301.708C317.389 301.643 317.312 301.592 317.228 301.557C317.144 301.522 317.053 301.504 316.962 301.504C316.87 301.504 316.78 301.522 316.695 301.557C316.611 301.592 316.534 301.643 316.47 301.708L308.22 309.956C308.098 310.089 308.033 310.263 308.037 310.443C308.042 310.623 308.115 310.794 308.242 310.921C308.369 311.049 308.541 311.122 308.721 311.126C308.9 311.13 309.075 311.064 309.208 310.943L316.961 303.19L324.714 310.943C324.845 311.073 325.022 311.145 325.206 311.144C325.391 311.144 325.567 311.071 325.698 310.94C325.829 310.81 325.902 310.634 325.904 310.449C325.905 310.265 325.833 310.088 325.704 309.956ZM325.704 320.769L317.454 312.522C317.389 312.457 317.312 312.406 317.228 312.371C317.144 312.336 317.053 312.318 316.962 312.318C316.87 312.318 316.78 312.336 316.695 312.371C316.611 312.406 316.534 312.457 316.47 312.522L308.22 320.769C308.09 320.901 308.016 321.078 308.016 321.263V327.889C308.016 328.027 308.057 328.162 308.134 328.276C308.211 328.391 308.32 328.48 308.447 328.532C308.575 328.585 308.715 328.599 308.85 328.572C308.986 328.545 309.11 328.479 309.208 328.382L316.961 320.624L324.714 328.382C324.811 328.479 324.936 328.546 325.071 328.573C325.207 328.6 325.347 328.586 325.475 328.533C325.602 328.48 325.712 328.391 325.789 328.277C325.866 328.162 325.907 328.027 325.908 327.889V321.263C325.907 321.078 325.834 320.901 325.704 320.769Z" fill="#288DE8"/>
<path d="M325.704 332.294L317.454 324.051C317.389 323.986 317.313 323.935 317.228 323.899C317.144 323.864 317.053 323.846 316.962 323.846C316.87 323.846 316.78 323.864 316.695 323.899C316.611 323.935 316.534 323.986 316.47 324.051L308.22 332.294C308.09 332.426 308.016 332.603 308.016 332.788V339.412C308.016 339.55 308.058 339.684 308.135 339.799C308.211 339.913 308.32 340.002 308.448 340.055C308.575 340.108 308.715 340.122 308.85 340.095C308.985 340.069 309.11 340.003 309.208 339.906L316.961 332.152L324.714 339.906C324.846 340.036 325.024 340.109 325.21 340.11C325.395 340.109 325.572 340.035 325.702 339.905C325.833 339.774 325.907 339.597 325.908 339.412V332.788C325.907 332.603 325.834 332.426 325.704 332.294Z" fill="#288DE8"/>
<path d="M325.704 347.718L317.454 339.47C317.389 339.405 317.313 339.354 317.228 339.319C317.144 339.284 317.053 339.266 316.962 339.266C316.87 339.266 316.78 339.284 316.695 339.319C316.611 339.354 316.534 339.405 316.47 339.47L308.22 347.718C308.092 347.85 308.022 348.026 308.023 348.209C308.025 348.393 308.099 348.568 308.228 348.697C308.358 348.827 308.533 348.9 308.717 348.901C308.9 348.903 309.076 348.832 309.208 348.704L316.961 340.951L324.714 348.704C324.844 348.835 325.022 348.909 325.207 348.91C325.393 348.91 325.57 348.837 325.702 348.706C325.833 348.575 325.907 348.398 325.907 348.212C325.908 348.027 325.834 347.849 325.704 347.718Z" fill="#288DE8"/>
<path d="M325.704 355.854L317.454 347.607C317.389 347.542 317.313 347.491 317.228 347.456C317.144 347.421 317.053 347.402 316.962 347.402C316.871 347.402 316.78 347.421 316.696 347.456C316.611 347.491 316.534 347.542 316.47 347.607L308.22 355.854C308.096 355.986 308.028 356.162 308.031 356.343C308.034 356.525 308.108 356.698 308.236 356.826C308.364 356.954 308.537 357.028 308.719 357.031C308.9 357.034 309.076 356.966 309.208 356.842L316.961 349.088L324.714 356.842C324.845 356.973 325.023 357.047 325.208 357.047C325.394 357.048 325.572 356.974 325.703 356.843C325.834 356.712 325.908 356.534 325.908 356.349C325.908 356.163 325.835 355.985 325.704 355.854Z" fill="#288DE8"/>
<path d="M367.13 153.93L334.708 135.21C334.241 134.94 333.712 134.798 333.173 134.798C332.634 134.798 332.104 134.94 331.638 135.21L299.216 153.93C298.749 154.199 298.361 154.586 298.092 155.053C297.823 155.519 297.681 156.049 297.681 156.587C297.681 157.126 297.823 157.655 298.092 158.122C298.361 158.588 298.749 158.976 299.216 159.245L331.64 177.953C332.106 178.222 332.635 178.364 333.173 178.364C333.711 178.364 334.24 178.222 334.707 177.953L367.13 159.245C367.596 158.976 367.984 158.588 368.253 158.122C368.523 157.655 368.664 157.126 368.664 156.587C368.664 156.048 368.523 155.519 368.253 155.052C367.984 154.586 367.596 154.199 367.13 153.93ZM333.173 171.752L306.889 156.586L333.173 141.41L359.458 156.586L333.173 171.752Z" fill="#2481D7"/>
<path d="M365.597 153.518C365.194 153.518 364.794 153.597 364.422 153.751C364.049 153.905 363.711 154.132 363.426 154.417C363.141 154.701 362.915 155.04 362.76 155.412C362.606 155.785 362.527 156.184 362.527 156.587V357.035L333.173 373.972L303.819 357.035V156.587C303.819 155.773 303.495 154.992 302.92 154.417C302.344 153.841 301.564 153.518 300.75 153.518C299.936 153.518 299.155 153.841 298.58 154.417C298.004 154.992 297.681 155.773 297.681 156.587V358.807C297.681 359.346 297.822 359.875 298.092 360.342C298.361 360.808 298.749 361.196 299.216 361.465L331.64 380.173C332.106 380.442 332.635 380.583 333.173 380.583C333.711 380.583 334.24 380.442 334.707 380.173L367.13 361.465C367.596 361.196 367.984 360.808 368.253 360.342C368.523 359.875 368.665 359.346 368.665 358.807V156.587C368.665 156.184 368.586 155.785 368.431 155.412C368.277 155.04 368.051 154.702 367.766 154.417C367.482 154.131 367.143 153.905 366.771 153.751C366.399 153.597 366 153.517 365.597 153.517V153.518Z" fill="#2481D7"/>
<path d="M333.173 172.227C332.359 172.227 331.578 172.55 331.003 173.126C330.427 173.701 330.104 174.481 330.104 175.295V377.515C330.104 378.329 330.427 379.11 331.002 379.685C331.578 380.261 332.359 380.584 333.173 380.584C333.986 380.584 334.767 380.261 335.343 379.685C335.918 379.11 336.242 378.329 336.242 377.515V175.295C336.241 174.481 335.918 173.701 335.342 173.126C334.767 172.55 333.986 172.227 333.173 172.227Z" fill="#2481D7"/>
<path d="M333.173 66.3571C327.611 66.3571 322.174 68.0064 317.549 71.0966C312.924 74.1868 309.32 78.5789 307.191 83.7177C305.063 88.8564 304.506 94.5109 305.591 99.9661C306.677 105.421 309.355 110.432 313.288 114.365C317.221 118.298 322.232 120.976 327.688 122.061C333.143 123.146 338.797 122.589 343.936 120.46C349.075 118.331 353.467 114.726 356.556 110.101C359.646 105.476 361.295 100.039 361.295 94.4771C361.294 87.0191 358.331 79.8668 353.057 74.5934C347.783 69.32 340.631 66.3573 333.173 66.3571Z" fill="#5BA1E1"/>
<path d="M333.173 64.823C327.307 64.8232 321.574 66.5627 316.697 69.8215C311.82 73.0803 308.019 77.7121 305.775 83.1311C303.53 88.5501 302.943 94.5129 304.088 100.266C305.232 106.018 308.057 111.302 312.204 115.45C316.352 119.597 321.636 122.421 327.389 123.565C333.142 124.709 339.105 124.122 344.523 121.877C349.942 119.632 354.574 115.831 357.832 110.954C361.091 106.077 362.83 100.343 362.83 94.478C362.82 86.6155 359.693 79.0777 354.133 73.5183C348.573 67.9588 341.035 64.8317 333.173 64.823ZM333.172 121.066C327.913 121.066 322.773 119.506 318.401 116.584C314.029 113.663 310.622 109.51 308.61 104.652C306.598 99.7941 306.072 94.4485 307.098 89.2913C308.124 84.1341 310.656 79.3969 314.374 75.6788C318.092 71.9607 322.83 69.4287 327.987 68.4028C333.144 67.377 338.49 67.9035 343.348 69.9157C348.206 71.9279 352.358 75.3355 355.28 79.7075C358.201 84.0796 359.76 89.2197 359.761 94.478C359.753 101.528 356.949 108.286 351.964 113.271C346.979 118.255 340.22 121.059 333.171 121.066H333.172Z" fill="#C8DFF5"/>
<path d="M325.76 81.657C324.325 81.6551 322.949 82.2232 321.933 83.2363C320.917 84.2494 320.346 85.6244 320.344 87.059C320.342 88.4935 320.91 89.8701 321.923 90.8858C322.936 91.9015 324.311 92.4731 325.746 92.475H325.763C327.196 92.4731 328.57 91.903 329.584 90.8896C330.597 89.8762 331.168 88.5023 331.17 87.069V87.064C331.165 85.6311 330.593 84.2584 329.579 83.2454C328.566 82.2325 327.193 81.6615 325.76 81.657ZM327.413 88.72C327.196 88.9382 326.938 89.1112 326.654 89.229C326.37 89.3467 326.065 89.4069 325.758 89.406C325.755 89.4055 325.752 89.4055 325.75 89.406C325.129 89.4047 324.534 89.1569 324.097 88.7171C323.659 88.2773 323.413 87.6816 323.415 87.061C323.416 86.4404 323.664 85.8457 324.104 85.4078C324.543 84.9699 325.139 84.7247 325.76 84.726C326.381 84.7286 326.975 84.9766 327.414 85.4159C327.853 85.8552 328.1 86.4501 328.102 87.071C328.102 87.3778 328.041 87.6815 327.923 87.9646C327.804 88.2477 327.631 88.5045 327.413 88.72ZM340.586 96.485C339.516 96.4852 338.47 96.8027 337.581 97.3974C336.691 97.9922 335.998 98.8373 335.589 99.826C335.18 100.815 335.074 101.902 335.283 102.952C335.493 104.001 336.009 104.964 336.766 105.72C337.523 106.476 338.487 106.99 339.537 107.198C340.587 107.406 341.674 107.298 342.662 106.887C343.65 106.476 344.494 105.782 345.087 104.892C345.681 104.001 345.996 102.955 345.995 101.885C345.997 101.174 345.859 100.47 345.588 99.8132C345.317 99.1563 344.918 98.5595 344.415 98.0575C343.912 97.5554 343.315 97.1579 342.657 96.888C342 96.6181 341.295 96.4812 340.585 96.485H340.586ZM340.584 104.232C340.121 104.232 339.669 104.094 339.285 103.837C338.9 103.58 338.601 103.215 338.424 102.787C338.247 102.36 338.201 101.89 338.291 101.436C338.381 100.983 338.603 100.566 338.93 100.239C339.256 99.9115 339.673 99.6883 340.126 99.5975C340.58 99.5067 341.05 99.5523 341.478 99.7286C341.905 99.9048 342.271 100.204 342.529 100.588C342.786 100.972 342.925 101.424 342.926 101.886C342.925 102.507 342.679 103.103 342.24 103.543C341.801 103.983 341.205 104.231 340.584 104.232ZM322.739 102.743L341.44 84.044L343.61 86.214L324.909 104.914L322.739 102.743ZM333.173 121.09C332.766 121.09 332.376 121.252 332.088 121.54C331.801 121.827 331.639 122.217 331.639 122.624V156.587C331.639 156.994 331.8 157.384 332.088 157.672C332.376 157.96 332.766 158.121 333.173 158.121C333.58 158.121 333.971 157.96 334.258 157.672C334.546 157.384 334.708 156.994 334.708 156.587V122.624C334.708 122.422 334.668 122.223 334.591 122.036C334.514 121.85 334.401 121.681 334.258 121.538C334.116 121.396 333.947 121.283 333.76 121.206C333.574 121.128 333.374 121.09 333.173 121.09ZM408.259 322.84C405.541 322.84 402.885 323.646 400.625 325.156C398.366 326.666 396.605 328.812 395.565 331.323C394.526 333.834 394.254 336.596 394.784 339.262C395.314 341.927 396.623 344.375 398.545 346.296C400.467 348.218 402.915 349.526 405.58 350.056C408.246 350.586 411.008 350.314 413.519 349.274C416.029 348.234 418.175 346.472 419.685 344.213C421.194 341.953 422 339.297 422 336.579C421.996 332.936 420.546 329.444 417.97 326.868C415.394 324.292 411.902 322.843 408.259 322.839V322.84ZM408.259 347.252C406.148 347.252 404.085 346.626 402.33 345.454C400.575 344.281 399.207 342.614 398.399 340.664C397.591 338.714 397.38 336.568 397.792 334.498C398.203 332.428 399.22 330.527 400.712 329.034C402.205 327.542 404.106 326.525 406.176 326.113C408.246 325.701 410.392 325.912 412.342 326.72C414.292 327.528 415.959 328.895 417.132 330.65C418.304 332.405 418.931 334.468 418.931 336.579C418.928 339.409 417.803 342.121 415.802 344.122C413.801 346.123 411.088 347.249 408.259 347.252Z" fill="#C8DFF5"/>
<path d="M408.259 328.926C408.057 328.926 407.857 328.966 407.671 329.043C407.485 329.12 407.316 329.233 407.173 329.375C407.03 329.518 406.917 329.687 406.84 329.873C406.763 330.06 406.724 330.259 406.724 330.461V336.585C406.724 336.992 406.885 337.382 407.173 337.67C407.461 337.958 407.851 338.12 408.258 338.12C408.665 338.12 409.055 337.958 409.343 337.67C409.631 337.382 409.793 336.992 409.793 336.585V330.461C409.793 330.259 409.753 330.06 409.676 329.874C409.599 329.687 409.486 329.518 409.344 329.376C409.201 329.233 409.032 329.12 408.846 329.043C408.66 328.966 408.46 328.926 408.259 328.926Z" fill="#C8DFF5"/>
<path d="M408.259 327.592C408.057 327.592 407.858 327.631 407.671 327.709C407.485 327.786 407.316 327.899 407.173 328.041C407.031 328.183 406.918 328.353 406.84 328.539C406.763 328.725 406.724 328.925 406.724 329.126V336.586C406.724 336.993 406.885 337.383 407.173 337.671C407.461 337.959 407.851 338.121 408.258 338.121C408.665 338.121 409.055 337.959 409.343 337.671C409.631 337.383 409.793 336.993 409.793 336.586V329.126C409.793 328.719 409.631 328.329 409.343 328.041C409.056 327.754 408.665 327.592 408.259 327.592Z" fill="#C8DFF5"/>
<path d="M413.092 335.05H408.255C407.848 335.05 407.458 335.212 407.17 335.499C406.882 335.787 406.721 336.177 406.721 336.584C406.721 336.991 406.882 337.381 407.17 337.669C407.458 337.956 407.848 338.118 408.255 338.118H413.092C413.499 338.118 413.889 337.956 414.177 337.669C414.465 337.381 414.626 336.991 414.626 336.584C414.626 336.177 414.465 335.786 414.177 335.499C413.889 335.211 413.499 335.05 413.092 335.05Z" fill="#C8DFF5"/>
<path d="M408.259 334.401C407.828 334.401 407.407 334.529 407.049 334.768C406.691 335.007 406.412 335.348 406.247 335.746C406.082 336.143 406.039 336.581 406.123 337.004C406.207 337.426 406.414 337.814 406.719 338.119C407.024 338.424 407.412 338.631 407.834 338.715C408.257 338.799 408.695 338.756 409.093 338.591C409.491 338.426 409.831 338.147 410.07 337.789C410.309 337.431 410.437 337.01 410.437 336.579C410.437 336.002 410.207 335.448 409.799 335.04C409.39 334.631 408.837 334.402 408.259 334.401ZM408.259 337.471C408.083 337.471 407.911 337.419 407.765 337.321C407.618 337.223 407.504 337.085 407.437 336.922C407.37 336.76 407.352 336.581 407.386 336.408C407.42 336.236 407.505 336.077 407.629 335.952C407.753 335.828 407.912 335.743 408.084 335.708C408.257 335.674 408.436 335.691 408.598 335.758C408.761 335.825 408.9 335.939 408.998 336.085C409.096 336.231 409.149 336.403 409.149 336.579C409.149 336.815 409.055 337.041 408.888 337.208C408.721 337.375 408.495 337.469 408.259 337.47V337.471Z" fill="#C8DFF5"/>
</svg>
