<svg width="100" height="100" viewBox="0 0 100 100" fill="none" xmlns="http://www.w3.org/2000/svg">
<path d="M24.2513 52C20.3185 50.2018 17.0383 47.2357 14.8591 43.507C12.6798 39.7784 11.708 35.4692 12.0763 31.1686C12.4446 26.868 14.1351 22.7859 16.9167 19.4801C19.6984 16.1744 23.4354 13.8065 27.6169 12.7001C31.7984 11.5937 36.2204 11.8027 40.2783 13.2987C44.3363 14.7946 47.8321 17.5045 50.288 21.0578C52.7439 24.6112 54.04 28.8345 53.9991 33.1506C53.9581 37.4667 52.5822 41.6649 50.0594 45.1712" stroke="#00CCF5" stroke-width="3" stroke-linecap="round" stroke-linejoin="round"/>
<path d="M28 38C28 38.9889 28.2932 39.9556 28.8427 40.7778C29.3921 41.6001 30.173 42.241 31.0866 42.6194C32.0002 42.9978 33.0055 43.0969 33.9755 42.9039C34.9454 42.711 35.8363 42.2348 36.5355 41.5355C37.2348 40.8363 37.711 39.9454 37.9039 38.9754C38.0969 38.0055 37.9978 37.0002 37.6194 36.0866C37.241 35.173 36.6001 34.3921 35.7778 33.8427C34.9556 33.2932 33.9889 33 33 33C32.0111 33 31.0444 32.7068 30.2222 32.1573C29.3999 31.6079 28.759 30.827 28.3806 29.9134C28.0022 28.9998 27.9031 27.9945 28.0961 27.0245C28.289 26.0546 28.7652 25.1637 29.4645 24.4645C30.1637 23.7652 31.0546 23.289 32.0245 23.0961C32.9945 22.9031 33.9998 23.0022 34.9134 23.3806C35.827 23.759 36.6079 24.3999 37.1573 25.2221C37.7068 26.0444 38 27.0111 38 28" stroke="#00CCF5" stroke-width="3" stroke-linecap="round" stroke-linejoin="round"/>
<path d="M33 23V20" stroke="#00CCF5" stroke-width="3" stroke-linecap="round" stroke-linejoin="round"/>
<path d="M33 47V43" stroke="#00CCF5" stroke-width="3" stroke-linecap="round" stroke-linejoin="round"/>
<path d="M81 60.5954C79.9288 58.8812 78.4451 57.469 76.6873 56.4906C74.9296 55.5121 72.9551 54.9993 70.948 55H48.8818C45.7305 55 42.7084 56.2643 40.4801 58.5147C38.2518 60.7652 37 63.8174 37 67C37 70.1826 38.2518 73.2348 40.4801 75.4853C42.7084 77.7357 45.7305 79 48.8818 79H59.0662" stroke="black" stroke-width="3" stroke-linecap="round" stroke-linejoin="round"/>
<path d="M69 69L74.4528 87L87 74.4528L69 69Z" stroke="black" stroke-width="3" stroke-linecap="round" stroke-linejoin="round"/>
<path d="M88 88L81 81" stroke="black" stroke-width="3" stroke-linecap="round" stroke-linejoin="round"/>
</svg>
