<svg width="100" height="100" viewBox="0 0 100 100" fill="none" xmlns="http://www.w3.org/2000/svg">
<path d="M60.0581 67.2716L79.2908 61.1484L79.4248 61.1098C80.5136 60.8659 81.653 61.0315 82.6296 61.5755C83.6062 62.1196 84.3529 63.0047 84.73 64.0652C85.1071 65.1256 85.0886 66.2886 84.678 67.3362C84.2674 68.3839 83.4929 69.2443 82.4995 69.7564C44.7517 89.5085 54.3808 88.6191 15 75.3543" stroke="black" stroke-width="3" stroke-linecap="round" stroke-linejoin="round"/>
<path d="M37 69L56.25 68.8988C57.5098 68.8988 58.718 68.3826 59.6088 67.4639C60.4996 66.5453 61 65.2992 61 64" stroke="black" stroke-width="3" stroke-linecap="round" stroke-linejoin="round"/>
<path d="M15 52H22.0355C25.7569 51.9969 29.4564 52.3343 33 53" stroke="black" stroke-width="3" stroke-linecap="round" stroke-linejoin="round"/>
<path d="M68.0042 30H62.5864C61.754 29.9976 60.9468 30.2676 60.3039 30.7636C59.6611 31.2596 59.2229 31.9504 59.0649 32.7169C58.907 33.4835 59.0392 34.2777 59.4388 34.9626C59.8383 35.6475 60.4802 36.1802 61.2537 36.4688L66.7547 38.5344C67.526 38.8243 68.1656 39.3571 68.5635 40.0413C68.9614 40.7254 69.0927 41.5182 68.935 42.2834C68.7773 43.0485 68.3403 43.7382 67.6992 44.234C67.0581 44.7298 66.2529 45.0006 65.4219 45H60.0075" stroke="#00CCF5" stroke-width="3" stroke-linecap="round" stroke-linejoin="round"/>
<path d="M64 30V26" stroke="#00CCF5" stroke-width="3" stroke-linecap="round" stroke-linejoin="round"/>
<path d="M64 48V45" stroke="#00CCF5" stroke-width="3" stroke-linecap="round" stroke-linejoin="round"/>
<path d="M47 37.5C47 39.7981 47.4527 42.0738 48.3321 44.197C49.2116 46.3202 50.5006 48.2493 52.1256 49.8744C53.7507 51.4994 55.6798 52.7884 57.803 53.6679C59.9262 54.5473 62.2019 55 64.5 55C66.7981 55 69.0738 54.5473 71.197 53.6679C73.3202 52.7884 75.2493 51.4994 76.8744 49.8744C78.4994 48.2493 79.7884 46.3202 80.6679 44.197C81.5473 42.0738 82 39.7981 82 37.5C82 32.8587 80.1563 28.4075 76.8744 25.1256C73.5925 21.8437 69.1413 20 64.5 20C59.8587 20 55.4075 21.8437 52.1256 25.1256C48.8437 28.4075 47 32.8587 47 37.5Z" stroke="#00CCF5" stroke-width="3" stroke-linecap="round" stroke-linejoin="round"/>
<path d="M18 24.5C18 25.7476 18.2457 26.9829 18.7231 28.1355C19.2006 29.2881 19.9003 30.3354 20.7825 31.2175C21.6646 32.0997 22.7119 32.7994 23.8645 33.2769C25.0171 33.7543 26.2524 34 27.5 34C28.7476 34 29.9829 33.7543 31.1355 33.2769C32.2881 32.7994 33.3354 32.0997 34.2175 31.2175C35.0997 30.3354 35.7994 29.2881 36.2769 28.1355C36.7543 26.9829 37 25.7476 37 24.5C37 23.2524 36.7543 22.0171 36.2769 20.8645C35.7994 19.7119 35.0997 18.6646 34.2175 17.7825C33.3354 16.9003 32.2881 16.2006 31.1355 15.7231C29.9829 15.2457 28.7476 15 27.5 15C26.2524 15 25.0171 15.2457 23.8645 15.7231C22.7119 16.2006 21.6646 16.9003 20.7825 17.7825C19.9003 18.6646 19.2006 19.7119 18.7231 20.8645C18.2457 22.0171 18 23.2524 18 24.5Z" stroke="black" stroke-width="3" stroke-linecap="round" stroke-linejoin="round"/>
</svg>
