<svg width="100" height="100" viewBox="0 0 100 100" fill="none" xmlns="http://www.w3.org/2000/svg">
<path d="M55.4882 12.4145C54.9964 11.424 54.2378 10.5904 53.2979 10.0077C52.3579 9.42496 51.2739 9.11621 50.168 9.11621C49.062 9.11621 47.978 9.42496 47.0381 10.0077C46.0981 10.5904 45.3395 11.424 44.8478 12.4145L9.79269 82.4809C9.34095 83.3896 9.12807 84.3983 9.17413 85.412C9.22019 86.4257 9.52366 87.411 10.056 88.2749C10.5882 89.1389 11.3318 89.8531 12.2165 90.3502C13.1013 90.8473 14.0981 91.1109 15.1129 91.1162H85.223C86.2379 91.1109 87.2346 90.8473 88.1194 90.3502C89.0041 89.8531 89.7477 89.1389 90.28 88.2749C90.8123 87.411 91.1157 86.4257 91.1618 85.412C91.2079 84.3983 90.995 83.3896 90.5432 82.4809L55.4882 12.4145Z" stroke="black" stroke-width="3" stroke-linecap="round" stroke-linejoin="round"/>
<path d="M55.4485 52.7232C58.4576 52.7232 60.897 50.2838 60.897 47.2747C60.897 44.2655 58.4576 41.8262 55.4485 41.8262C52.4394 41.8262 50 44.2655 50 47.2747C50 50.2838 52.4394 52.7232 55.4485 52.7232Z" stroke="#3DD3F2" stroke-width="3" stroke-linecap="round" stroke-linejoin="round"/>
<path d="M30.9297 58.1718C33.3421 55.7649 36.4184 54.1333 39.7642 53.4861C43.11 52.839 46.5728 53.2058 49.7088 54.5395C55.4295 56.9832 60.2785 61.0979 63.6206 66.3446" stroke="#3DD3F2" stroke-width="3" stroke-linecap="round" stroke-linejoin="round"/>
<path d="M50.5435 54.9023L39.1017 66.3442L37.1039 72.3738C36.6355 73.7495 35.6436 74.8849 34.3433 75.534L25.4805 79.9654" stroke="#3DD3F2" stroke-width="3" stroke-linecap="round" stroke-linejoin="round"/>
<path d="M41.8242 63.6201L47.5996 69.3955C48.3232 70.1097 48.8326 71.012 49.0701 72.0006C49.3076 72.9891 49.2638 74.0244 48.9436 74.9893L47.2727 79.9656" stroke="#3DD3F2" stroke-width="3" stroke-linecap="round" stroke-linejoin="round"/>
<path d="M58.1719 79.9655L60.8961 77.2412L63.6204 79.9655" stroke="#3DD3F2" stroke-width="3" stroke-linecap="round" stroke-linejoin="round"/>
</svg>
