<svg width="100" height="100" viewBox="0 0 100 100" fill="none" xmlns="http://www.w3.org/2000/svg">
<path d="M30.5 35C36.8513 35 42 29.8513 42 23.5C42 17.1487 36.8513 12 30.5 12C24.1487 12 19 17.1487 19 23.5C19 29.8513 24.1487 35 30.5 35Z" stroke="black" stroke-width="3" stroke-linecap="round" stroke-linejoin="round"/>
<path d="M41 43.9143C38.1374 42.1073 34.8456 41.1036 31.4666 41.0076C28.0877 40.9116 24.7448 41.7267 21.7851 43.3684C18.8255 45.01 16.3571 47.4183 14.6364 50.343C12.9157 53.2677 12.0054 56.6021 12 60" stroke="black" stroke-width="3" stroke-linecap="round" stroke-linejoin="round"/>
<path d="M69 54C72.866 54 76 50.866 76 47C76 43.134 72.866 40 69 40C65.134 40 62 43.134 62 47C62 50.866 65.134 54 69 54Z" stroke="#00CCF5" stroke-width="3" stroke-linecap="round" stroke-linejoin="round"/>
<path d="M58 63V87L68.9983 78.2739L80 87V63" stroke="#00CCF5" stroke-width="3" stroke-linecap="round" stroke-linejoin="round"/>
<path d="M88 47.4959C87.9971 46.1552 87.6231 44.8428 86.9215 43.7118C86.2199 42.5808 85.2197 41.6775 84.0372 41.1073C84.4832 39.846 84.5694 38.4803 84.2857 37.1704C84.002 35.8606 83.3603 34.6609 82.4358 33.7121C81.5112 32.7633 80.3422 32.1047 79.0658 31.8137C77.7895 31.5226 76.4587 31.611 75.2296 32.0686C74.676 30.8527 73.7959 29.8241 72.6926 29.1034C71.5894 28.3828 70.3087 28 69.0009 28C67.6932 28 66.4125 28.3828 65.3092 29.1034C64.206 29.8241 63.3259 30.8527 62.7723 32.0686C61.5431 31.6095 60.2117 31.5199 58.9346 31.8105C57.6576 32.101 56.4878 32.7596 55.5629 33.7088C54.6379 34.658 53.9962 35.8584 53.713 37.169C53.4299 38.4796 53.5172 39.8459 53.9646 41.1073C52.7798 41.6755 51.7775 42.5786 51.0752 43.7108C50.373 44.843 50 46.1573 50 47.4994C50 48.8415 50.373 50.1557 51.0752 51.2879C51.7775 52.4201 52.7798 53.3233 53.9646 53.8914C53.5181 55.1527 53.4315 56.5185 53.715 57.8285C53.9986 59.1385 54.6404 60.3382 55.5652 61.2869C56.49 62.2356 57.6594 62.8938 58.936 63.1843C60.2126 63.4747 61.5434 63.3854 62.7723 62.9266C63.3249 64.1437 64.2046 65.1735 65.308 65.8951C66.4114 66.6167 67.6926 67 69.0009 67C70.3093 67 71.5905 66.6167 72.6939 65.8951C73.7972 65.1735 74.677 64.1437 75.2296 62.9266C76.4583 63.3838 77.7886 63.4721 79.0645 63.1811C80.3404 62.8901 81.5091 62.2319 82.4334 61.2836C83.3578 60.3353 83.9997 59.1363 84.2837 57.8271C84.5678 56.5178 84.4823 55.1526 84.0372 53.8914C85.2205 53.3204 86.2212 52.416 86.9228 51.2837C87.6244 50.1514 87.998 48.8378 88 47.4959Z" stroke="#00CCF5" stroke-width="3" stroke-linecap="round" stroke-linejoin="round"/>
</svg>
