<svg width="100" height="100" viewBox="0 0 100 100" fill="none" xmlns="http://www.w3.org/2000/svg">
<path d="M51.4895 43.7925L55.2835 52.3404H62.6736C63.0812 52.2799 63.4978 52.3564 63.8548 52.5572C64.2118 52.7581 64.4879 53.0714 64.6377 53.4455C64.7875 53.8196 64.802 54.2323 64.6789 54.6155C64.5558 54.9988 64.3023 55.3298 63.9603 55.554L57.5599 61.1455L61.09 69.0829C61.2418 69.4456 61.2745 69.8451 61.1836 70.2266C61.0928 70.6082 60.8829 70.9529 60.5828 71.2135C60.2827 71.4742 59.9071 71.6379 59.5076 71.6822C59.1081 71.7265 58.7043 71.6492 58.3517 71.4609L49.7079 66.6085L41.1301 71.3324C40.7769 71.5325 40.3681 71.6193 39.9615 71.5805C39.5549 71.5417 39.1711 71.3793 38.8645 71.1162C38.558 70.8531 38.3442 70.5028 38.2534 70.1148C38.1626 69.7268 38.1995 69.3208 38.3588 68.9544L41.9219 61.017L35.5545 55.4254C35.2175 55.2018 34.9677 54.8741 34.8453 54.4952C34.723 54.1163 34.7352 53.7083 34.8801 53.337C35.0249 52.9657 35.2939 52.6528 35.6437 52.4487C35.9935 52.2446 36.4037 52.1611 36.8082 52.2119H44.1983L48.0253 43.6639C48.2005 43.3592 48.4588 43.1075 48.7715 42.9366C49.0843 42.7658 49.4394 42.6824 49.7978 42.6957C50.1561 42.709 50.5037 42.8185 50.8022 43.012C51.1007 43.2055 51.3386 43.4756 51.4895 43.7925Z" stroke="#00CCF5" stroke-width="3" stroke-linecap="round" stroke-linejoin="round"/>
<path d="M81.4974 17.6943H18.502C15.8258 17.6943 13.6562 19.8639 13.6562 22.5401V77.4591C13.6562 80.1354 15.8258 82.3049 18.502 82.3049H81.4974C84.1736 82.3049 86.3432 80.1354 86.3432 77.4591V22.5401C86.3432 19.8639 84.1736 17.6943 81.4974 17.6943Z" stroke="black" stroke-width="3" stroke-linecap="round" stroke-linejoin="round"/>
<path d="M13.6562 32.2314H86.3432" stroke="black" stroke-width="3" stroke-linecap="round" stroke-linejoin="round"/>
</svg>
