<svg width="74" height="74" viewBox="0 0 74 74" fill="none" xmlns="http://www.w3.org/2000/svg">
<g clip-path="url(#clip0_1068_1568)">
<path d="M70.5312 8.09375H3.46875C2.54878 8.09375 1.66649 8.45921 1.01597 9.10972C0.365457 9.76024 0 10.6425 0 11.5625L0 50.875C0 51.795 0.365457 52.6773 1.01597 53.3278C1.66649 53.9783 2.54878 54.3438 3.46875 54.3438H4.04688V56.6562C4.04688 57.5762 4.41233 58.4585 5.06285 59.109C5.71337 59.7595 6.59566 60.125 7.51562 60.125H8.09375V62.4375C8.09375 63.3575 8.45921 64.2398 9.10972 64.8903C9.76024 65.5408 10.6425 65.9062 11.5625 65.9062H62.4375C63.3575 65.9062 64.2398 65.5408 64.8903 64.8903C65.5408 64.2398 65.9062 63.3575 65.9062 62.4375V60.125H66.4844C67.4043 60.125 68.2866 59.7595 68.9371 59.109C69.5877 58.4585 69.9531 57.5762 69.9531 56.6562V54.3438H70.5312C71.4512 54.3438 72.3335 53.9783 72.984 53.3278C73.6345 52.6773 74 51.795 74 50.875V11.5625C74 10.6425 73.6345 9.76024 72.984 9.10972C72.3335 8.45921 71.4512 8.09375 70.5312 8.09375ZM63.5938 62.4375C63.5938 62.7442 63.4719 63.0383 63.2551 63.2551C63.0383 63.4719 62.7442 63.5938 62.4375 63.5938H11.5625C11.2558 63.5938 10.9617 63.4719 10.7449 63.2551C10.5281 63.0383 10.4062 62.7442 10.4062 62.4375V60.125H63.5938V62.4375ZM67.6406 56.6562C67.6406 56.9629 67.5188 57.257 67.302 57.4738C67.0851 57.6907 66.791 57.8125 66.4844 57.8125H7.51562C7.20897 57.8125 6.91487 57.6907 6.69803 57.4738C6.48119 57.257 6.35938 56.9629 6.35938 56.6562V54.3438H67.6406V56.6562ZM71.6875 50.875C71.6875 51.1817 71.5657 51.4758 71.3488 51.6926C71.132 51.9094 70.8379 52.0312 70.5312 52.0312H3.46875C3.16209 52.0312 2.868 51.9094 2.65116 51.6926C2.43432 51.4758 2.3125 51.1817 2.3125 50.875V11.5625C2.3125 11.2558 2.43432 10.9617 2.65116 10.7449C2.868 10.5281 3.16209 10.4062 3.46875 10.4062H70.5312C70.8379 10.4062 71.132 10.5281 71.3488 10.7449C71.5657 10.9617 71.6875 11.2558 71.6875 11.5625V50.875Z" fill="#B8B3FF"/>
<path d="M64.75 24.2812C62.9101 24.2812 61.1455 23.5503 59.8444 22.2493C58.5434 20.9483 57.8125 19.1837 57.8125 17.3438C57.8125 17.0371 57.6907 16.743 57.4738 16.5262C57.257 16.3093 56.9629 16.1875 56.6562 16.1875H17.3438C17.0371 16.1875 16.743 16.3093 16.5262 16.5262C16.3093 16.743 16.1875 17.0371 16.1875 17.3438C16.1875 19.1837 15.4566 20.9483 14.1556 22.2493C12.8545 23.5503 11.0899 24.2812 9.25 24.2812C8.94334 24.2812 8.64925 24.4031 8.43241 24.6199C8.21557 24.8367 8.09375 25.1308 8.09375 25.4375V37C8.09375 37.3067 8.21557 37.6008 8.43241 37.8176C8.64925 38.0344 8.94334 38.1562 9.25 38.1562C11.0899 38.1562 12.8545 38.8872 14.1556 40.1882C15.4566 41.4892 16.1875 43.2538 16.1875 45.0938C16.1875 45.4004 16.3093 45.6945 16.5262 45.9113C16.743 46.1282 17.0371 46.25 17.3438 46.25H56.6562C56.9629 46.25 57.257 46.1282 57.4738 45.9113C57.6907 45.6945 57.8125 45.4004 57.8125 45.0938C57.8125 43.2538 58.5434 41.4892 59.8444 40.1882C61.1455 38.8872 62.9101 38.1562 64.75 38.1562C65.0567 38.1562 65.3508 38.0344 65.5676 37.8176C65.7844 37.6008 65.9062 37.3067 65.9062 37V25.4375C65.9062 25.1308 65.7844 24.8367 65.5676 24.6199C65.3508 24.4031 65.0567 24.2812 64.75 24.2812ZM63.5938 35.9131C61.5549 36.1694 59.6595 37.0972 58.2064 38.5502C56.7534 40.0032 55.8256 41.8987 55.5694 43.9375H18.4306C18.1744 41.8987 17.2466 40.0032 15.7936 38.5502C14.3405 37.0972 12.4451 36.1694 10.4062 35.9131V26.5244C12.4451 26.2681 14.3405 25.3403 15.7936 23.8873C17.2466 22.4343 18.1744 20.5388 18.4306 18.5H55.5694C55.8256 20.5388 56.7534 22.4343 58.2064 23.8873C59.6595 25.3403 61.5549 26.2681 63.5938 26.5244V35.9131Z" fill="#B8B3FF"/>
<path d="M37 20.8125C34.9418 20.8125 32.9299 21.4228 31.2186 22.5663C29.5073 23.7097 28.1735 25.335 27.3859 27.2365C26.5983 29.1379 26.3922 31.2303 26.7937 33.2489C27.1952 35.2675 28.1863 37.1217 29.6417 38.5771C31.097 40.0324 32.9512 41.0235 34.9698 41.425C36.9885 41.8266 39.0808 41.6205 40.9823 40.8329C42.8838 40.0452 44.509 38.7115 45.6525 37.0002C46.7959 35.2889 47.4063 33.2769 47.4063 31.2188C47.4063 28.4588 46.3099 25.812 44.3583 23.8604C42.4068 21.9089 39.7599 20.8125 37 20.8125ZM37 39.3125C35.3992 39.3125 33.8344 38.8378 32.5034 37.9485C31.1723 37.0591 30.135 35.795 29.5224 34.3161C28.9098 32.8372 28.7495 31.2098 29.0618 29.6397C29.3741 28.0697 30.1449 26.6275 31.2769 25.4956C32.4088 24.3637 33.851 23.5928 35.421 23.2805C36.991 22.9682 38.6184 23.1285 40.0973 23.7411C41.5763 24.3537 42.8404 25.3911 43.7297 26.7221C44.6191 28.0531 45.0938 29.618 45.0938 31.2188C45.0938 33.3653 44.241 35.424 42.7232 36.9419C41.2053 38.4598 39.1466 39.3125 37 39.3125Z" fill="#B8B3FF"/>
</g>
<defs>
<clipPath id="clip0_1068_1568">
<rect width="74" height="74" fill="white"/>
</clipPath>
</defs>
</svg>
