<svg width="381" height="381" viewBox="0 0 381 381" fill="none" xmlns="http://www.w3.org/2000/svg">
<g clip-path="url(#clip0_947_3864)">
<path opacity="0.2" d="M299.797 295.886C359.313 236.37 359.313 139.876 299.797 80.3602C240.281 20.8443 143.787 20.8443 84.2706 80.3602C24.7547 139.876 24.7547 236.37 84.2706 295.886C143.787 355.402 240.281 355.402 299.797 295.886Z" fill="#6556FF"/>
<path d="M295.906 112.971H156.522C153.249 112.971 150.596 115.624 150.596 118.897V224.544C150.596 227.816 153.249 230.469 156.522 230.469H295.906C299.178 230.469 301.831 227.816 301.831 224.544V118.897C301.831 115.624 299.178 112.971 295.906 112.971Z" fill="white"/>
<path d="M295.906 231.231H156.521C154.748 231.229 153.048 230.524 151.795 229.27C150.541 228.016 149.836 226.317 149.834 224.544V118.896C149.836 117.123 150.541 115.424 151.795 114.17C153.048 112.916 154.748 112.211 156.521 112.209H295.906C297.679 112.211 299.378 112.916 300.632 114.17C301.886 115.424 302.591 117.123 302.593 118.896V224.544C302.591 226.317 301.886 228.017 300.632 229.27C299.378 230.524 297.679 231.229 295.906 231.231ZM156.521 113.733C155.152 113.735 153.84 114.279 152.872 115.247C151.904 116.215 151.359 117.528 151.358 118.896V224.544C151.359 225.913 151.904 227.225 152.872 228.193C153.84 229.161 155.152 229.706 156.521 229.707H295.906C297.275 229.706 298.587 229.161 299.555 228.193C300.523 227.225 301.068 225.913 301.069 224.544V118.896C301.068 117.528 300.523 116.215 299.555 115.247C298.587 114.279 297.275 113.735 295.906 113.733H156.521Z" fill="#090817"/>
<path d="M292.339 132.344H160.088C158.718 132.344 157.607 133.456 157.607 134.826V196.786C157.607 198.157 158.718 199.268 160.088 199.268H292.339C293.709 199.268 294.82 198.157 294.82 196.786V134.826C294.82 133.456 293.709 132.344 292.339 132.344Z" fill="white"/>
<path d="M292.339 200.03H160.088C159.228 200.029 158.404 199.687 157.796 199.079C157.188 198.471 156.846 197.647 156.845 196.787V134.826C156.846 133.966 157.188 133.142 157.796 132.534C158.404 131.926 159.228 131.584 160.088 131.583H292.339C293.199 131.584 294.023 131.926 294.631 132.534C295.239 133.142 295.581 133.966 295.582 134.826V196.787C295.581 197.647 295.239 198.471 294.631 199.079C294.023 199.687 293.199 200.029 292.339 200.03ZM160.088 133.107C159.632 133.107 159.195 133.289 158.873 133.611C158.551 133.933 158.369 134.37 158.369 134.826V196.787C158.369 197.242 158.551 197.68 158.873 198.002C159.195 198.324 159.632 198.506 160.088 198.506H292.339C292.795 198.506 293.232 198.324 293.554 198.002C293.876 197.68 294.058 197.242 294.058 196.787V134.826C294.058 134.37 293.876 133.933 293.554 133.611C293.232 133.289 292.795 133.107 292.339 133.107H160.088Z" fill="#090817"/>
<path d="M163.323 126.173C165.039 126.173 166.431 124.782 166.431 123.066C166.431 121.35 165.039 119.959 163.323 119.959C161.607 119.959 160.216 121.35 160.216 123.066C160.216 124.782 161.607 126.173 163.323 126.173Z" fill="#080717"/>
<path d="M179.232 126.173C180.948 126.173 182.339 124.782 182.339 123.066C182.339 121.35 180.948 119.959 179.232 119.959C177.516 119.959 176.125 121.35 176.125 123.066C176.125 124.782 177.516 126.173 179.232 126.173Z" fill="#080717"/>
<path d="M195.141 126.173C196.857 126.173 198.248 124.782 198.248 123.066C198.248 121.35 196.857 119.959 195.141 119.959C193.425 119.959 192.034 121.35 192.034 123.066C192.034 124.782 193.425 126.173 195.141 126.173Z" fill="#080717"/>
<path d="M292.576 203.046H159.851C158.611 203.046 157.607 204.051 157.607 205.29V223.478C157.607 224.717 158.611 225.722 159.851 225.722H292.576C293.816 225.722 294.82 224.717 294.82 223.478V205.29C294.82 204.051 293.816 203.046 292.576 203.046Z" fill="white"/>
<path d="M292.576 226.486H159.851C159.054 226.485 158.29 226.167 157.726 225.604C157.163 225.04 156.846 224.276 156.845 223.479V205.292C156.846 204.495 157.163 203.731 157.726 203.167C158.29 202.604 159.054 202.286 159.851 202.285H292.576C293.373 202.286 294.137 202.604 294.701 203.167C295.264 203.731 295.581 204.495 295.582 205.292V223.479C295.581 224.276 295.264 225.04 294.701 225.604C294.137 226.167 293.373 226.485 292.576 226.486ZM159.851 203.808C159.458 203.809 159.081 203.965 158.803 204.243C158.525 204.521 158.369 204.898 158.369 205.291V223.478C158.369 223.871 158.525 224.248 158.803 224.526C159.081 224.804 159.458 224.96 159.851 224.961H292.576C292.969 224.96 293.346 224.804 293.624 224.526C293.902 224.248 294.058 223.871 294.058 223.478V205.291C294.058 204.898 293.902 204.521 293.624 204.243C293.346 203.965 292.969 203.809 292.576 203.808H159.851Z" fill="#090817"/>
<path d="M333.786 72.5354H238.402C236.406 72.5354 234.788 74.1536 234.788 76.1498V139.896C234.788 141.892 236.406 143.511 238.402 143.511H333.786C335.782 143.511 337.4 141.892 337.4 139.896V76.1498C337.4 74.1536 335.782 72.5354 333.786 72.5354Z" fill="white"/>
<path d="M333.786 144.273H238.402C237.242 144.271 236.13 143.81 235.309 142.989C234.489 142.169 234.027 141.057 234.026 139.896V76.1495C234.027 74.9893 234.489 73.8769 235.309 73.0565C236.13 72.2361 237.242 71.7746 238.402 71.7732H333.786C334.946 71.7746 336.058 72.2361 336.879 73.0565C337.699 73.8769 338.161 74.9893 338.162 76.1495V139.896C338.161 141.057 337.699 142.169 336.879 142.989C336.058 143.81 334.946 144.271 333.786 144.273ZM238.402 73.2972C237.646 73.298 236.921 73.5988 236.386 74.1335C235.852 74.6683 235.551 75.3933 235.55 76.1495V139.896C235.551 140.653 235.852 141.378 236.386 141.912C236.921 142.447 237.646 142.748 238.402 142.749H333.786C334.542 142.748 335.267 142.447 335.802 141.912C336.336 141.378 336.637 140.653 336.638 139.896V76.1495C336.637 75.3933 336.336 74.6683 335.802 74.1335C335.267 73.5988 334.542 73.298 333.786 73.2972H238.402Z" fill="#090817"/>
<path d="M243.886 82.5529C245.602 82.5529 246.993 81.1617 246.993 79.4456C246.993 77.7295 245.602 76.3384 243.886 76.3384C242.17 76.3384 240.778 77.7295 240.778 79.4456C240.778 81.1617 242.17 82.5529 243.886 82.5529Z" fill="#080717"/>
<path d="M256.016 82.5529C257.732 82.5529 259.123 81.1617 259.123 79.4456C259.123 77.7295 257.732 76.3384 256.016 76.3384C254.3 76.3384 252.909 77.7295 252.909 79.4456C252.909 81.1617 254.3 82.5529 256.016 82.5529Z" fill="#080717"/>
<path d="M268.544 82.5529C270.26 82.5529 271.652 81.1617 271.652 79.4456C271.652 77.7295 270.26 76.3384 268.544 76.3384C266.828 76.3384 265.437 77.7295 265.437 79.4456C265.437 81.1617 266.828 82.5529 268.544 82.5529Z" fill="#080717"/>
<path d="M337.4 86.1739H234.788C234.586 86.1739 234.392 86.0936 234.249 85.9507C234.106 85.8078 234.026 85.614 234.026 85.4119C234.026 85.2098 234.106 85.016 234.249 84.8731C234.392 84.7302 234.586 84.6499 234.788 84.6499H337.4C337.602 84.6499 337.796 84.7302 337.939 84.8731C338.082 85.016 338.162 85.2098 338.162 85.4119C338.162 85.614 338.082 85.8078 337.939 85.9507C337.796 86.0936 337.602 86.1739 337.4 86.1739Z" fill="#080717"/>
<mask id="mask0_947_3864" style="mask-type:luminance" maskUnits="userSpaceOnUse" x="240" y="93" width="46" height="39">
<path d="M284.877 93.4319H241.744C241.211 93.4319 240.778 93.8642 240.778 94.3975V130.159C240.778 130.692 241.211 131.125 241.744 131.125H284.877C285.41 131.125 285.842 130.692 285.842 130.159V94.3975C285.842 93.8642 285.41 93.4319 284.877 93.4319Z" fill="white"/>
</mask>
<g mask="url(#mask0_947_3864)">
<path d="M284.877 93.4319H241.744C241.211 93.4319 240.778 93.8642 240.778 94.3975V130.159C240.778 130.692 241.211 131.125 241.744 131.125H284.877C285.41 131.125 285.842 130.692 285.842 130.159V94.3975C285.842 93.8642 285.41 93.4319 284.877 93.4319Z" fill="white"/>
<path d="M284.877 131.886H241.744C241.286 131.886 240.847 131.704 240.523 131.38C240.199 131.056 240.017 130.617 240.017 130.159V94.3974C240.017 93.9394 240.199 93.5004 240.523 93.1765C240.847 92.8527 241.286 92.6706 241.744 92.6702H284.877C285.335 92.6707 285.774 92.8528 286.098 93.1766C286.422 93.5004 286.604 93.9395 286.605 94.3974V130.159C286.604 130.617 286.422 131.056 286.098 131.38C285.774 131.704 285.335 131.886 284.877 131.886ZM241.744 94.1942C241.718 94.1941 241.691 94.1994 241.666 94.2096C241.642 94.2198 241.619 94.2347 241.6 94.2536C241.582 94.2725 241.567 94.2949 241.556 94.3196C241.546 94.3443 241.541 94.3707 241.541 94.3974V130.159C241.541 130.186 241.546 130.212 241.556 130.237C241.567 130.262 241.582 130.284 241.6 130.303C241.619 130.322 241.642 130.337 241.666 130.347C241.691 130.357 241.718 130.363 241.744 130.362H284.877C284.931 130.362 284.983 130.341 285.021 130.303C285.059 130.265 285.081 130.213 285.081 130.159V94.3974C285.081 94.3435 285.059 94.2918 285.021 94.2537C284.983 94.2156 284.931 94.1942 284.877 94.1942H241.744Z" fill="#090817"/>
<path d="M230.448 119.72C230.448 119.72 247.959 111.664 253.563 110.789C259.166 109.913 261.618 118.385 266.171 116.425C270.724 114.466 274.869 104.134 280.356 103.433C285.842 102.732 288.761 109.562 288.761 109.562V134.779H234.826L230.448 119.72Z" fill="#080717"/>
</g>
<path d="M263.603 107.753C266.214 107.753 268.331 105.636 268.331 103.025C268.331 100.414 266.214 98.2971 263.603 98.2971C260.992 98.2971 258.875 100.414 258.875 103.025C258.875 105.636 260.992 107.753 263.603 107.753Z" fill="#080717"/>
<path d="M330.239 99.0599H292.257C292.055 99.0599 291.861 98.9796 291.718 98.8367C291.575 98.6938 291.495 98.5 291.495 98.2979C291.495 98.0958 291.575 97.902 291.718 97.7591C291.861 97.6162 292.055 97.5359 292.257 97.5359H330.239C330.441 97.5359 330.635 97.6162 330.778 97.7591C330.921 97.902 331.001 98.0958 331.001 98.2979C331.001 98.5 330.921 98.6938 330.778 98.8367C330.635 98.9796 330.441 99.0599 330.239 99.0599ZM330.239 105.831H292.257C292.055 105.831 291.861 105.751 291.718 105.608C291.575 105.465 291.495 105.271 291.495 105.069C291.495 104.867 291.575 104.673 291.718 104.53C291.861 104.387 292.055 104.307 292.257 104.307H330.239C330.441 104.307 330.635 104.387 330.778 104.53C330.921 104.673 331.001 104.867 331.001 105.069C331.001 105.271 330.921 105.465 330.778 105.608C330.635 105.751 330.441 105.831 330.239 105.831ZM330.239 112.603H292.257C292.055 112.603 291.861 112.523 291.718 112.38C291.575 112.237 291.495 112.043 291.495 111.841C291.495 111.639 291.575 111.445 291.718 111.302C291.861 111.16 292.055 111.079 292.257 111.079H330.239C330.441 111.079 330.635 111.16 330.778 111.302C330.921 111.445 331.001 111.639 331.001 111.841C331.001 112.043 330.921 112.237 330.778 112.38C330.635 112.523 330.441 112.603 330.239 112.603ZM330.239 119.375H292.257C292.055 119.375 291.861 119.295 291.718 119.152C291.575 119.009 291.495 118.815 291.495 118.613C291.495 118.411 291.575 118.217 291.718 118.074C291.861 117.931 292.055 117.851 292.257 117.851H330.239C330.441 117.851 330.635 117.931 330.778 118.074C330.921 118.217 331.001 118.411 331.001 118.613C331.001 118.815 330.921 119.009 330.778 119.152C330.635 119.295 330.441 119.375 330.239 119.375ZM330.239 126.147H292.257C292.055 126.147 291.861 126.067 291.718 125.924C291.575 125.781 291.495 125.588 291.495 125.385C291.495 125.183 291.575 124.99 291.718 124.847C291.861 124.704 292.055 124.623 292.257 124.623H330.239C330.441 124.623 330.635 124.704 330.778 124.847C330.921 124.99 331.001 125.183 331.001 125.385C331.001 125.588 330.921 125.781 330.778 125.924C330.635 126.067 330.441 126.147 330.239 126.147Z" fill="#080717"/>
<path d="M328.931 172.697H201.788C198.515 172.697 195.862 175.35 195.862 178.623V274.759C195.862 278.032 198.515 280.685 201.788 280.685H328.931C332.204 280.685 334.857 278.032 334.857 274.759V178.623C334.857 175.35 332.204 172.697 328.931 172.697Z" fill="white"/>
<path d="M328.931 281.447H201.788C200.015 281.445 198.315 280.739 197.061 279.486C195.807 278.232 195.102 276.532 195.1 274.759V178.623C195.102 176.85 195.807 175.15 197.061 173.896C198.315 172.643 200.014 171.937 201.788 171.935H328.931C330.704 171.937 332.404 172.643 333.658 173.896C334.911 175.15 335.617 176.85 335.619 178.623V274.759C335.616 276.532 334.911 278.232 333.658 279.486C332.404 280.739 330.704 281.445 328.931 281.447ZM201.788 173.459C200.419 173.461 199.106 174.005 198.138 174.973C197.17 175.941 196.625 177.254 196.624 178.623V274.759C196.625 276.128 197.17 277.441 198.138 278.409C199.106 279.377 200.419 279.921 201.788 279.923H328.931C330.3 279.921 331.612 279.377 332.58 278.409C333.548 277.441 334.093 276.128 334.095 274.759V178.623C334.093 177.254 333.548 175.942 332.58 174.974C331.612 174.005 330.3 173.461 328.931 173.459H201.788Z" fill="#090817"/>
<path d="M277.237 190.502H207.235C204.842 190.502 202.902 192.442 202.902 194.835V239.077C202.902 241.47 204.842 243.41 207.235 243.41H277.237C279.631 243.41 281.571 241.47 281.571 239.077V194.835C281.571 192.442 279.631 190.502 277.237 190.502Z" fill="white"/>
<path d="M277.238 244.173H207.235C205.884 244.171 204.589 243.634 203.634 242.679C202.678 241.723 202.141 240.428 202.14 239.077V194.835C202.141 193.485 202.678 192.189 203.634 191.234C204.589 190.279 205.884 189.742 207.235 189.74H277.237C278.588 189.742 279.883 190.279 280.839 191.234C281.794 192.189 282.331 193.485 282.333 194.835V239.077C282.331 240.428 281.794 241.723 280.839 242.678C279.883 243.634 278.588 244.171 277.238 244.173ZM207.235 191.264C206.288 191.265 205.38 191.642 204.711 192.311C204.041 192.981 203.665 193.889 203.664 194.835V239.077C203.665 240.024 204.041 240.932 204.711 241.601C205.38 242.271 206.288 242.647 207.235 242.649H277.238C278.184 242.647 279.092 242.271 279.762 241.601C280.431 240.932 280.808 240.024 280.809 239.077V194.835C280.808 193.889 280.431 192.981 279.762 192.311C279.092 191.642 278.184 191.265 277.238 191.264H207.235Z" fill="#090817"/>
<path d="M208.156 184.83C209.733 184.83 211.012 183.552 211.012 181.975C211.012 180.397 209.733 179.119 208.156 179.119C206.579 179.119 205.3 180.397 205.3 181.975C205.3 183.552 206.579 184.83 208.156 184.83Z" fill="#080717"/>
<path d="M222.777 184.83C224.354 184.83 225.633 183.552 225.633 181.975C225.633 180.397 224.354 179.119 222.777 179.119C221.2 179.119 219.921 180.397 219.921 181.975C219.921 183.552 221.2 184.83 222.777 184.83Z" fill="#080717"/>
<path d="M237.398 184.83C238.975 184.83 240.254 183.552 240.254 181.975C240.254 180.397 238.975 179.119 237.398 179.119C235.821 179.119 234.542 180.397 234.542 181.975C234.542 183.552 235.821 184.83 237.398 184.83Z" fill="#080717"/>
<path d="M304.207 190.502H287.471C286.546 190.502 285.797 191.252 285.797 192.177V196.385C285.797 197.309 286.546 198.059 287.471 198.059H304.207C305.132 198.059 305.881 197.309 305.881 196.385V192.177C305.881 191.252 305.132 190.502 304.207 190.502Z" fill="white"/>
<path d="M304.207 198.821H287.471C286.825 198.82 286.206 198.563 285.749 198.107C285.292 197.65 285.035 197.031 285.034 196.385V192.176C285.035 191.53 285.292 190.911 285.749 190.454C286.206 189.998 286.825 189.741 287.471 189.74H304.207C304.853 189.741 305.472 189.997 305.929 190.454C306.386 190.911 306.643 191.53 306.643 192.176V196.384C306.643 197.03 306.386 197.65 305.929 198.107C305.473 198.564 304.853 198.82 304.207 198.821ZM287.471 191.264C287.229 191.264 286.997 191.36 286.826 191.532C286.655 191.703 286.559 191.935 286.558 192.176V196.385C286.559 196.627 286.655 196.859 286.826 197.03C286.997 197.201 287.229 197.297 287.471 197.297H304.207C304.449 197.297 304.681 197.2 304.852 197.029C305.023 196.858 305.119 196.627 305.119 196.385V192.176C305.119 191.934 305.023 191.703 304.852 191.531C304.681 191.36 304.449 191.264 304.207 191.264L287.471 191.264Z" fill="#090817"/>
<path d="M304.207 205.512H287.471C286.546 205.512 285.797 206.262 285.797 207.187V211.395C285.797 212.319 286.546 213.069 287.471 213.069H304.207C305.132 213.069 305.881 212.319 305.881 211.395V207.187C305.881 206.262 305.132 205.512 304.207 205.512Z" fill="white"/>
<path d="M304.207 213.831H287.471C286.825 213.831 286.206 213.574 285.749 213.117C285.292 212.66 285.035 212.041 285.034 211.395V207.187C285.035 206.541 285.292 205.922 285.749 205.465C286.206 205.008 286.825 204.751 287.471 204.75H304.207C304.853 204.751 305.472 205.008 305.929 205.465C306.386 205.921 306.643 206.541 306.643 207.187V211.395C306.643 212.041 306.386 212.66 305.929 213.117C305.472 213.574 304.853 213.831 304.207 213.831ZM287.471 206.274C287.229 206.275 286.997 206.371 286.826 206.542C286.655 206.713 286.559 206.945 286.558 207.187V211.395C286.559 211.637 286.655 211.869 286.826 212.04C286.997 212.211 287.229 212.307 287.471 212.307H304.207C304.449 212.307 304.681 212.21 304.852 212.039C305.023 211.868 305.119 211.637 305.119 211.395V207.187C305.119 206.945 305.023 206.713 304.852 206.542C304.681 206.371 304.449 206.275 304.207 206.274H287.471Z" fill="#090817"/>
<path d="M327.11 195.042H310.853C310.651 195.042 310.457 194.962 310.314 194.819C310.171 194.676 310.091 194.482 310.091 194.28C310.091 194.078 310.171 193.884 310.314 193.741C310.457 193.599 310.651 193.518 310.853 193.518H327.11C327.312 193.518 327.506 193.599 327.649 193.741C327.792 193.884 327.872 194.078 327.872 194.28C327.872 194.482 327.792 194.676 327.649 194.819C327.506 194.962 327.312 195.042 327.11 195.042ZM327.11 210.052H310.853C310.651 210.052 310.457 209.972 310.314 209.829C310.171 209.686 310.091 209.492 310.091 209.29C310.091 209.088 310.171 208.894 310.314 208.752C310.457 208.609 310.651 208.528 310.853 208.528H327.11C327.312 208.528 327.506 208.609 327.649 208.752C327.792 208.894 327.872 209.088 327.872 209.29C327.872 209.492 327.792 209.686 327.649 209.829C327.506 209.972 327.312 210.052 327.11 210.052Z" fill="#080717"/>
<path d="M304.207 217.925H287.471C286.546 217.925 285.797 218.675 285.797 219.599V223.808C285.797 224.732 286.546 225.482 287.471 225.482H304.207C305.132 225.482 305.881 224.732 305.881 223.808V219.599C305.881 218.675 305.132 217.925 304.207 217.925Z" fill="white"/>
<path d="M304.207 226.244H287.471C286.825 226.243 286.206 225.986 285.749 225.53C285.292 225.073 285.035 224.454 285.034 223.808V219.6C285.035 218.954 285.292 218.334 285.749 217.878C286.206 217.421 286.825 217.164 287.471 217.163H304.207C304.853 217.164 305.472 217.421 305.929 217.878C306.386 218.334 306.643 218.954 306.643 219.6V223.808C306.643 224.454 306.386 225.073 305.929 225.53C305.472 225.987 304.853 226.244 304.207 226.244ZM287.471 218.687C287.229 218.688 286.997 218.784 286.826 218.955C286.655 219.126 286.559 219.358 286.558 219.6V223.808C286.559 224.05 286.655 224.282 286.826 224.453C286.997 224.624 287.229 224.72 287.471 224.72H304.207C304.449 224.72 304.681 224.624 304.852 224.453C305.023 224.282 305.119 224.05 305.119 223.808V219.6C305.119 219.358 305.023 219.126 304.852 218.955C304.681 218.784 304.449 218.688 304.207 218.687H287.471Z" fill="#090817"/>
<path d="M327.11 222.466H310.853C310.651 222.466 310.457 222.386 310.314 222.243C310.171 222.1 310.091 221.906 310.091 221.704C310.091 221.502 310.171 221.308 310.314 221.165C310.457 221.022 310.651 220.942 310.853 220.942H327.11C327.312 220.942 327.506 221.022 327.649 221.165C327.792 221.308 327.872 221.502 327.872 221.704C327.872 221.906 327.792 222.1 327.649 222.243C327.506 222.386 327.312 222.466 327.11 222.466Z" fill="#080717"/>
<path d="M304.207 230.338H287.471C286.546 230.338 285.797 231.088 285.797 232.013V236.221C285.797 237.146 286.546 237.895 287.471 237.895H304.207C305.132 237.895 305.881 237.146 305.881 236.221V232.013C305.881 231.088 305.132 230.338 304.207 230.338Z" fill="white"/>
<path d="M304.207 238.657H287.471C286.825 238.656 286.206 238.399 285.749 237.942C285.292 237.485 285.035 236.866 285.034 236.22V232.012C285.035 231.366 285.292 230.747 285.749 230.29C286.206 229.833 286.825 229.576 287.471 229.575H304.207C304.853 229.576 305.472 229.833 305.929 230.29C306.386 230.746 306.643 231.366 306.643 232.012V236.22C306.643 236.866 306.386 237.486 305.929 237.943C305.473 238.399 304.853 238.656 304.207 238.657ZM287.471 231.1C287.229 231.101 286.997 231.197 286.826 231.368C286.655 231.539 286.559 231.771 286.558 232.012V236.22C286.559 236.462 286.655 236.694 286.826 236.865C286.997 237.036 287.229 237.132 287.471 237.132H304.207C304.449 237.132 304.681 237.036 304.852 236.865C305.023 236.694 305.119 236.462 305.119 236.22V232.012C305.119 231.77 305.023 231.538 304.852 231.367C304.681 231.196 304.449 231.1 304.207 231.099L287.471 231.1Z" fill="#090817"/>
<path d="M327.11 234.878H310.853C310.651 234.878 310.457 234.798 310.314 234.655C310.171 234.512 310.091 234.318 310.091 234.116C310.091 233.914 310.171 233.72 310.314 233.577C310.457 233.435 310.651 233.354 310.853 233.354H327.11C327.312 233.354 327.506 233.435 327.649 233.577C327.792 233.72 327.872 233.914 327.872 234.116C327.872 234.318 327.792 234.512 327.649 234.655C327.506 234.798 327.312 234.878 327.11 234.878Z" fill="#080717"/>
<path d="M325.486 248.78H204.525C203.629 248.78 202.902 249.507 202.902 250.403V254.912C202.902 255.809 203.629 256.535 204.525 256.535H325.486C326.383 256.535 327.11 255.809 327.11 254.912V250.403C327.11 249.507 326.383 248.78 325.486 248.78Z" fill="#080717"/>
<path d="M327.11 263.96H202.902C202.699 263.96 202.506 263.879 202.363 263.736C202.22 263.593 202.14 263.4 202.14 263.198C202.14 262.995 202.22 262.802 202.363 262.659C202.506 262.516 202.699 262.436 202.902 262.436H327.11C327.312 262.436 327.506 262.516 327.649 262.659C327.792 262.802 327.872 262.995 327.872 263.198C327.872 263.4 327.792 263.593 327.649 263.736C327.506 263.879 327.312 263.96 327.11 263.96ZM327.11 272.51H202.902C202.699 272.51 202.506 272.43 202.363 272.287C202.22 272.144 202.14 271.95 202.14 271.748C202.14 271.546 202.22 271.352 202.363 271.21C202.506 271.067 202.699 270.986 202.902 270.986H327.11C327.312 270.986 327.506 271.067 327.649 271.21C327.792 271.352 327.872 271.546 327.872 271.748C327.872 271.95 327.792 272.144 327.649 272.287C327.506 272.43 327.312 272.51 327.11 272.51Z" fill="#080717"/>
<path d="M199.057 344.705H255.696C256.261 344.705 256.82 344.594 257.341 344.378C257.862 344.162 258.336 343.846 258.735 343.447C259.134 343.048 259.451 342.574 259.667 342.053C259.883 341.531 259.994 340.972 259.994 340.408V303.786C259.994 302.647 259.541 301.554 258.735 300.748C257.929 299.942 256.836 299.489 255.696 299.489H213.058L205.933 287.911C205.854 287.782 205.735 287.682 205.595 287.625C205.455 287.569 205.3 287.558 205.154 287.595C205.007 287.633 204.877 287.716 204.781 287.833C204.685 287.95 204.629 288.094 204.621 288.245L204.029 299.489H199.057C197.917 299.489 196.824 299.942 196.018 300.748C195.212 301.554 194.759 302.647 194.759 303.786V340.408C194.759 340.972 194.871 341.531 195.086 342.053C195.302 342.574 195.619 343.048 196.018 343.447C196.417 343.846 196.891 344.162 197.412 344.378C197.934 344.594 198.493 344.705 199.057 344.705Z" fill="white"/>
<path d="M255.696 345.467H199.057C197.716 345.466 196.43 344.932 195.481 343.984C194.532 343.035 193.999 341.749 193.997 340.408V303.787C193.999 302.445 194.532 301.159 195.481 300.211C196.43 299.262 197.716 298.729 199.057 298.727H203.305L203.859 288.205C203.876 287.892 203.993 287.593 204.192 287.35C204.391 287.108 204.662 286.936 204.966 286.859C205.269 286.781 205.59 286.803 205.881 286.921C206.171 287.038 206.417 287.245 206.581 287.512L213.482 298.727H255.696C257.037 298.729 258.323 299.262 259.272 300.211C260.22 301.159 260.754 302.445 260.755 303.787V340.408C260.754 341.749 260.22 343.035 259.272 343.984C258.323 344.932 257.038 345.466 255.696 345.467ZM199.057 300.251C198.12 300.252 197.221 300.625 196.558 301.288C195.895 301.951 195.522 302.849 195.521 303.787V340.408C195.522 341.345 195.895 342.244 196.558 342.907C197.221 343.57 198.12 343.942 199.057 343.943H255.696C256.634 343.942 257.532 343.569 258.195 342.907C258.858 342.244 259.231 341.345 259.232 340.408V303.787C259.231 302.849 258.858 301.951 258.195 301.288C257.532 300.625 256.634 300.252 255.696 300.251H213.058C212.927 300.251 212.8 300.218 212.686 300.155C212.572 300.091 212.477 300 212.409 299.889L205.372 288.455L204.79 299.53C204.779 299.725 204.695 299.908 204.553 300.043C204.412 300.177 204.224 300.252 204.029 300.252L199.057 300.251Z" fill="#090817"/>
<path d="M227.278 338.431C224.095 338.432 220.983 337.488 218.336 335.719C215.689 333.95 213.626 331.437 212.407 328.496C211.189 325.554 210.87 322.318 211.491 319.196C212.112 316.074 213.645 313.206 215.896 310.954C218.147 308.703 221.015 307.17 224.138 306.549C227.26 305.928 230.496 306.247 233.437 307.465C236.378 308.683 238.892 310.746 240.661 313.393C242.43 316.04 243.374 319.152 243.374 322.336C243.369 326.603 241.672 330.694 238.654 333.712C235.637 336.729 231.546 338.427 227.278 338.431ZM227.278 311.574C225.15 311.574 223.069 312.205 221.299 313.387C219.529 314.57 218.15 316.251 217.335 318.217C216.521 320.184 216.308 322.347 216.723 324.435C217.138 326.523 218.163 328.44 219.668 329.945C221.173 331.45 223.091 332.475 225.178 332.891C227.266 333.306 229.43 333.093 231.396 332.278C233.363 331.464 235.043 330.084 236.226 328.315C237.408 326.545 238.04 324.464 238.04 322.336C238.036 319.483 236.901 316.747 234.884 314.73C232.867 312.712 230.131 311.577 227.278 311.574Z" fill="#080717"/>
<path d="M227.787 334.893H226.77C225.94 334.893 225.268 335.565 225.268 336.394V340.273C225.268 341.102 225.94 341.775 226.77 341.775H227.787C228.617 341.775 229.289 341.102 229.289 340.273V336.394C229.289 335.565 228.617 334.893 227.787 334.893Z" fill="#080717"/>
<path d="M227.787 303.192H226.77C225.94 303.192 225.268 303.864 225.268 304.693V308.573C225.268 309.402 225.94 310.074 226.77 310.074H227.787C228.617 310.074 229.289 309.402 229.289 308.573V304.693C229.289 303.864 228.617 303.192 227.787 303.192Z" fill="#080717"/>
<path d="M214.869 322.992V321.974C214.869 321.145 214.197 320.473 213.368 320.473H209.489C208.66 320.473 207.987 321.145 207.987 321.974V322.992C207.987 323.821 208.66 324.494 209.489 324.494H213.368C214.197 324.494 214.869 323.821 214.869 322.992Z" fill="#080717"/>
<path d="M246.57 322.992V321.974C246.57 321.145 245.898 320.473 245.068 320.473H241.189C240.36 320.473 239.688 321.145 239.688 321.974V322.992C239.688 323.821 240.36 324.493 241.189 324.493H245.068C245.898 324.493 246.57 323.821 246.57 322.992Z" fill="#080717"/>
<path d="M218.864 331.618L218.144 330.898C217.558 330.312 216.607 330.312 216.021 330.898L213.278 333.641C212.691 334.227 212.691 335.178 213.278 335.764L213.997 336.484C214.584 337.07 215.534 337.07 216.121 336.484L218.864 333.741C219.45 333.155 219.45 332.204 218.864 331.618Z" fill="#080717"/>
<path d="M241.279 309.202L240.559 308.482C239.973 307.896 239.023 307.896 238.436 308.482L235.693 311.225C235.107 311.812 235.107 312.762 235.693 313.349L236.413 314.068C236.999 314.655 237.95 314.655 238.536 314.068L241.279 311.325C241.865 310.739 241.865 309.788 241.279 309.202Z" fill="#080717"/>
<path d="M218.144 314.068L218.863 313.349C219.45 312.762 219.45 311.812 218.863 311.226L216.12 308.482C215.534 307.896 214.583 307.896 213.997 308.482L213.277 309.202C212.691 309.788 212.691 310.739 213.277 311.325L216.021 314.068C216.607 314.655 217.557 314.655 218.144 314.068Z" fill="#080717"/>
<path d="M240.56 336.484L241.279 335.765C241.866 335.178 241.866 334.228 241.279 333.642L238.536 330.898C237.95 330.312 236.999 330.312 236.413 330.898L235.693 331.618C235.107 332.204 235.107 333.155 235.693 333.741L238.437 336.484C239.023 337.071 239.973 337.071 240.56 336.484Z" fill="#080717"/>
<path d="M258.521 201.206C257.334 199.911 238.018 200.666 233.593 201.206C229.168 201.746 218.002 204.345 218.002 204.345C218.078 204.345 217.695 204.398 167.334 212.969C156.503 204.405 149.499 196.21 145.104 190.307C140.026 183.487 137.669 178.704 131.506 174.551C123.962 169.469 115.614 168.633 109.844 168.696C105.023 175.245 103.96 180.778 104.714 185.26C106.335 194.901 114.793 198.927 115.535 199.268C117.818 202.229 121.384 206.647 126.111 211.674C138.188 224.517 147.593 234.519 160.427 237.358C167.507 238.924 175.028 236.84 189.78 232.609C202.572 228.93 215.117 224.444 227.341 219.177C228.23 219.615 229.119 219.87 229.924 219.768C233.323 219.336 244.061 215.073 246.002 213.185C247.944 211.297 245.085 210.217 245.085 210.217C247.567 208.545 244.599 207.142 244.599 207.142C247.19 205.469 243.952 204.345 243.952 204.345C243.952 204.345 259.709 202.502 258.521 201.206Z" fill="white"/>
<path d="M165.354 238.638C149.679 238.638 136.343 223.667 125.557 212.197C121.861 208.266 118.325 204.123 115.045 199.879C113.493 199.127 105.554 194.845 103.963 185.387C103.056 179.992 104.828 174.225 109.231 168.245C109.301 168.149 109.392 168.072 109.497 168.018C109.602 167.964 109.719 167.936 109.837 167.934C118.465 167.841 125.898 169.853 131.933 173.92C136.773 177.182 139.315 180.811 142.533 185.407C149.324 195.111 156.465 203.358 167.542 212.161C191.909 208.014 204.499 205.875 210.995 204.77C216.206 203.884 217.559 203.654 217.803 203.61C220.362 202.97 229.995 200.878 233.502 200.45C235.499 200.205 257.376 198.828 259.084 200.691C259.207 200.82 259.292 200.981 259.328 201.156C259.364 201.331 259.35 201.512 259.288 201.679C259.122 202.126 258.695 203.276 246.029 204.861C246.495 205.507 246.516 206.321 245.87 207.065C246.871 207.909 247.191 209.046 246.38 210.073C247.678 211.042 247.852 212.45 246.535 213.73C244.467 215.741 233.509 220.08 230.02 220.523C229.213 220.625 228.33 220.459 227.328 220.011C215.172 225.229 202.702 229.681 189.99 233.341C178.804 236.55 171.523 238.637 165.354 238.638ZM110.234 169.455C106.248 174.98 104.644 180.253 105.465 185.133C106.999 194.257 114.952 198.161 115.854 198.576C116.471 198.859 118.813 202.801 126.666 211.152C138.578 223.82 147.987 233.825 160.592 236.614C167.344 238.108 174.354 236.24 189.57 231.877C202.33 228.203 214.845 223.727 227.041 218.477C227.142 218.433 227.252 218.412 227.362 218.415C227.472 218.418 227.58 218.445 227.679 218.493C228.526 218.911 229.249 219.084 229.828 219.011C233.248 218.577 243.775 214.289 245.472 212.638C245.66 212.455 245.968 212.109 245.911 211.837C245.832 211.457 245.16 211.059 244.817 210.93C244.687 210.88 244.572 210.796 244.486 210.686C244.4 210.576 244.346 210.444 244.33 210.305C244.313 210.166 244.336 210.026 244.394 209.899C244.452 209.772 244.544 209.663 244.66 209.585C245.083 209.299 245.327 209.014 245.313 208.818C245.29 208.492 244.683 208.026 244.273 207.829C244.151 207.77 244.046 207.68 243.971 207.568C243.895 207.456 243.85 207.325 243.842 207.19C243.833 207.055 243.86 206.92 243.921 206.799C243.982 206.678 244.074 206.575 244.187 206.501C244.752 206.137 244.848 205.896 244.843 205.851C244.819 205.652 244.243 205.255 243.702 205.064C243.54 205.007 243.402 204.896 243.311 204.75C243.219 204.605 243.18 204.433 243.199 204.262C243.218 204.091 243.294 203.931 243.415 203.809C243.535 203.687 243.694 203.609 243.865 203.588C248.837 203.006 254.246 202.151 256.695 201.478C252.168 200.958 238.228 201.409 233.686 201.962C228.877 202.549 218.188 205.142 218.171 205.066C217.774 205.178 220.969 204.614 167.462 213.72C167.357 213.738 167.249 213.734 167.145 213.708C167.042 213.682 166.945 213.634 166.862 213.567C158.168 206.694 150.642 199.022 144.493 190.764C139.455 183.997 137.097 179.239 131.082 175.185C124.871 171 117.693 169.455 110.234 169.455Z" fill="#090817"/>
<path d="M69.5596 252.176C66.7215 258.884 64.8342 265.955 63.9524 273.185C61.5755 292.953 68.2341 301.203 66.8661 340.199H109.762C110.139 329.678 110.517 319.156 110.895 308.634C115.176 319.263 119.456 329.893 123.737 340.522L167.334 339.874C158.989 310.522 150.643 281.17 142.298 251.818L69.5596 252.176Z" fill="#080717"/>
<path d="M128.992 181.736C126.856 175.803 121.086 171.761 113.953 169.666C112.772 169.325 111.733 168.611 110.992 167.63C110.251 166.649 109.849 165.455 109.844 164.226V163.258C118.242 163.837 127.396 161.757 133.257 155.106C139.742 147.746 139.345 138.027 139.043 130.648C138.887 126.859 138.309 123.1 137.322 119.438C136.376 115.863 134.438 112.63 131.73 110.111C129.023 107.592 125.658 105.891 122.025 105.205C115.725 101.62 108.331 100.465 101.238 101.957C76.2275 107.188 67.6069 140.628 92.2456 157.357V164.525C92.2538 165.732 91.8769 166.911 91.1696 167.889C90.4623 168.868 89.4614 169.595 88.3124 169.966C85.405 170.846 82.6325 172.121 80.0727 173.757C64.8599 183.675 69.9309 259.291 69.9309 259.291L141.542 260.721C141.542 260.721 134.361 196.65 128.992 181.736Z" fill="white"/>
<path d="M141.541 261.483C140.478 261.483 148.838 261.63 69.9135 260.053C69.7229 260.049 69.5407 259.974 69.4029 259.843C69.265 259.711 69.1814 259.533 69.1686 259.343C68.961 256.236 64.2461 183.166 79.6557 173.118C82.2741 171.444 85.1107 170.138 88.0853 169.238C89.0768 168.912 89.9396 168.28 90.55 167.434C91.1604 166.587 91.487 165.569 91.483 164.525V157.758C80.1624 149.907 74.8905 137.769 77.3719 125.214C81.4237 104.713 104.254 94.3481 122.292 104.479C126.043 105.206 129.513 106.977 132.302 109.588C135.092 112.199 137.087 115.545 138.059 119.24C139.059 122.956 139.645 126.772 139.805 130.617C140.106 137.961 140.517 148.021 133.829 155.609C128.661 161.475 120.233 164.533 110.607 164.067C110.607 166.561 112.128 168.335 114.169 168.934C122.12 171.271 127.639 175.725 129.71 181.477C135.048 196.306 142.007 258.017 142.3 260.637C142.312 260.743 142.302 260.851 142.269 260.954C142.236 261.056 142.182 261.15 142.111 261.23C142.039 261.31 141.951 261.374 141.853 261.418C141.755 261.461 141.649 261.484 141.541 261.483ZM70.6463 258.543L140.686 259.942C139.805 252.248 133.215 195.717 128.274 181.994C126.372 176.71 121.21 172.591 113.738 170.396C112.395 170.016 111.214 169.207 110.373 168.093C109.533 166.979 109.079 165.621 109.081 164.226V163.258C109.081 163.154 109.103 163.051 109.144 162.955C109.186 162.859 109.247 162.773 109.323 162.701C109.4 162.63 109.49 162.575 109.588 162.54C109.687 162.505 109.791 162.491 109.896 162.498C119.381 163.148 127.687 160.273 132.684 154.602C138.968 147.471 138.587 138.162 138.281 130.679C138.126 126.947 137.557 123.243 136.586 119.636C135.682 116.197 133.82 113.086 131.217 110.663C128.614 108.241 125.377 106.608 121.882 105.953C121.332 105.848 113.179 100.238 101.394 102.702C77.1169 107.781 68.5211 140.327 92.6731 156.726C92.776 156.796 92.8602 156.89 92.9185 157C92.9767 157.11 93.0072 157.232 93.0072 157.357V164.525C93.0072 167.338 91.1697 169.875 88.5387 170.693C85.6979 171.551 82.9889 172.797 80.4881 174.394C66.5818 183.461 70.1914 250.912 70.6471 258.543H70.6463Z" fill="#090817"/>
<path d="M112.082 167.753C116.991 169.08 123.836 171.756 129.348 177.681C139.035 188.091 138.668 202.151 139.06 213.293C139.587 228.253 141.838 249.271 149.528 275.883C123.491 287.172 93.7828 290.194 63.7019 282.573C64.0618 268.581 65.2278 256.614 66.0529 247.195C67.6936 228.46 70.2654 207.633 73.9883 199.268C81.4344 182.537 82.0009 170.073 82.0009 170.073L90.8836 167.018C93.3087 171.095 97.7126 173.528 102.316 173.31C108.366 173.024 111.708 168.301 112.082 167.753Z" fill="#6556FF"/>
<path d="M112.082 167.753C112.082 167.753 124.654 167.726 132.99 174.443C141.327 181.161 158.404 204.349 158.404 204.349L144.159 230.168L135.244 224.34C115.163 175.361 120.643 188.759 112.082 167.753Z" fill="#6556FF"/>
<path d="M78.4323 173.773C73.6772 175.501 68.7771 178.276 65.2005 182.729C56.3104 193.797 42.1338 270.508 39.9034 282.817C38.6404 288.513 37.1376 296.06 37.1376 299.723C37.1376 306.039 39.2041 315.118 40.598 314.723C41.9919 314.329 41.8475 311.269 41.8475 311.269C41.8475 311.269 42.8571 315.759 44.5389 315.414C46.2206 315.069 45.5962 310.825 45.5962 310.825C46.6058 314.083 49.0564 315.414 49.8253 314.476C50.5941 313.539 49.2484 309.592 49.2484 309.592C49.5368 310.48 51.6034 312.232 52.3568 311.713C53.1102 311.195 52.9731 309.863 52.4684 306.384C51.9638 302.905 53.3335 295.43 53.3335 295.43C53.3335 295.43 55.6405 304.608 56.9381 301.796C58.2835 298.88 56.9561 293.215 58.2741 288.026C58.4298 288.055 56.8758 292.941 89.8329 185.237C92.0545 177.977 85.3428 171.261 78.4323 173.773Z" fill="white"/>
<path d="M44.337 316.198C43.3536 316.198 42.6187 315.327 42.0944 314.303C41.6125 315.263 40.6108 315.871 39.7703 315.234C38.0215 313.913 36.3752 305.375 36.3752 299.723C36.3752 295.992 37.8888 288.381 39.159 282.652C41.8392 267.859 55.6898 193.353 64.6056 182.252C67.8152 178.255 72.3794 175.162 78.1717 173.057C85.7144 170.31 92.953 177.644 90.5609 185.46C58.988 288.641 59.5448 287.036 59.0068 288.235C57.7286 293.299 59.0699 298.991 57.6297 302.115C57.206 303.033 56.5936 303.115 56.2688 303.088C55.3702 303.004 54.463 301.62 53.5612 298.962C53.2467 301.348 52.9547 304.431 53.2221 306.275C53.729 309.767 53.9841 311.52 52.788 312.341C52.1544 312.775 51.3548 312.525 50.698 312.14C50.8826 313.264 50.8931 314.376 50.4138 314.959C50.0276 315.431 49.4125 315.624 48.7273 315.49C48.0106 315.349 47.1425 314.815 46.3717 313.893C46.1639 315.113 45.5733 316.198 44.337 316.198ZM41.8481 310.508C42.0209 310.508 42.1886 310.566 42.3236 310.674C42.4586 310.782 42.5529 310.933 42.5911 311.101C43.0115 312.964 43.9208 314.737 44.386 314.668C44.8763 314.567 45.1024 312.719 44.8432 310.936C44.8154 310.746 44.8602 310.553 44.9687 310.395C45.0773 310.237 45.2414 310.125 45.4285 310.083C45.6156 310.04 45.8118 310.07 45.9779 310.166C46.1441 310.262 46.268 310.417 46.3249 310.6C47.1796 313.358 48.9654 314.176 49.2359 313.995C49.4702 313.608 49.1391 311.638 48.536 309.86C48.4716 309.669 48.4859 309.459 48.5758 309.278C48.6657 309.097 48.8238 308.959 49.0154 308.895C49.207 308.83 49.4163 308.845 49.5974 308.935C49.7784 309.025 49.9163 309.183 49.9808 309.374C50.1756 309.91 51.4758 310.992 51.9709 311.044C52.3159 310.63 52.0107 308.53 51.7153 306.494C51.199 302.931 52.5283 295.602 52.5853 295.292C52.7266 294.52 53.8647 294.414 54.0735 295.244C54.7608 297.977 55.7078 300.553 56.2955 301.367C57.4384 298.67 56.2295 292.985 57.5367 287.838C57.5667 287.72 57.6249 287.61 57.7065 287.519C58.3395 285.682 62.9092 270.622 89.1055 185.014C91.1318 178.392 85.0467 172.18 78.6939 174.489C73.1678 176.498 68.8284 179.43 65.797 183.206C56.9275 194.249 42.2947 273.906 40.6554 282.954C39.3964 288.637 37.9021 296.13 37.9021 299.723C37.9021 305.426 39.5585 312.64 40.5575 313.885C40.9208 313.514 41.1343 312.319 41.0884 311.304C41.0838 311.201 41.0999 311.099 41.136 311.002C41.1721 310.906 41.2272 310.818 41.2982 310.744C41.3692 310.669 41.4545 310.61 41.549 310.569C41.6435 310.529 41.7453 310.508 41.8481 310.508Z" fill="#090817"/>
<path d="M87.6013 167.958C87.6013 167.958 74.2042 171.314 66.0028 178.544C57.8014 185.774 51.7311 217.097 51.7311 217.097C51.7311 217.097 70.4317 230.289 81.5986 228.831C81.5986 228.831 85.5639 219.402 89.5089 209.002C94.7587 195.162 98.0824 190.459 97.2977 183.346C97.1368 181.885 95.5358 177.974 92.3337 170.153C92.1502 169.705 91.3134 167.72 90.0667 167.562C89.2252 167.497 88.3803 167.633 87.6013 167.958Z" fill="#6556FF"/>
<path d="M91.1367 140.966C91.1367 140.966 83.8244 132.029 89.2978 127.745C94.7713 123.461 96.5559 128.478 97.2885 131.045C98.0212 133.612 99.5673 132.212 100.621 127.318C101.675 122.425 103.925 119.435 112.486 118.749C121.047 118.062 121.369 108.172 121.369 108.172C121.369 108.172 135.614 109.71 138.097 122.756C138.097 122.756 142.059 116.075 137.583 107.152C133.106 98.2299 122.745 100.798 122.745 100.798C122.745 100.798 94.5951 91.8857 81.3568 103.011C68.1186 114.136 69.5817 155.577 92.4306 157.484C94.366 155.445 95.5247 152.792 95.7046 149.986C95.8846 147.181 95.0745 144.401 93.4155 142.132L91.1367 140.966Z" fill="#080717"/>
<path d="M102.595 130.714C102.433 130.714 102.276 130.663 102.145 130.568C102.015 130.473 101.918 130.339 101.868 130.185C101.819 130.032 101.82 129.866 101.87 129.713C101.921 129.56 102.019 129.426 102.151 129.332C108.108 125.069 113.733 128.057 113.971 128.188C114.148 128.285 114.279 128.448 114.336 128.642C114.393 128.836 114.37 129.044 114.273 129.221C113.924 129.861 113.165 129.526 113.241 129.526C113.038 129.416 108.197 126.879 103.038 130.572C102.909 130.665 102.754 130.714 102.595 130.714Z" fill="#080717"/>
<path d="M108.449 138.675C109.987 138.675 111.233 137.428 111.233 135.891C111.233 134.353 109.987 133.106 108.449 133.106C106.911 133.106 105.664 134.353 105.664 135.891C105.664 137.428 106.911 138.675 108.449 138.675Z" fill="#080717"/>
<path d="M135.925 132.654C135.816 132.654 135.709 132.631 135.61 132.586C135.511 132.541 135.423 132.476 135.352 132.395C134.308 131.201 132.933 130.345 131.402 129.936C129.871 129.526 128.252 129.582 126.752 130.095C126.561 130.16 126.351 130.146 126.17 130.057C125.989 129.967 125.85 129.81 125.785 129.618C125.721 129.427 125.734 129.217 125.824 129.036C125.913 128.855 126.071 128.716 126.263 128.652C128.048 128.043 129.973 127.977 131.795 128.465C133.618 128.952 135.254 129.969 136.497 131.388C136.594 131.498 136.657 131.634 136.679 131.779C136.7 131.924 136.68 132.072 136.619 132.206C136.559 132.339 136.461 132.452 136.338 132.532C136.215 132.611 136.071 132.654 135.925 132.654Z" fill="#080717"/>
<path d="M130.199 139.881C131.737 139.881 132.983 138.634 132.983 137.096C132.983 135.559 131.737 134.312 130.199 134.312C128.661 134.312 127.415 135.559 127.415 137.096C127.415 138.634 128.661 139.881 130.199 139.881Z" fill="#080717"/>
<path d="M117.382 143.493C117.184 143.462 117.006 143.353 116.887 143.192C116.769 143.03 116.719 142.828 116.748 142.63C116.777 142.431 116.883 142.253 117.044 142.132C117.204 142.011 117.405 141.959 117.604 141.986C119.071 142.202 120.697 142.119 120.949 141.814C121.142 141.224 120.276 137.792 119.324 134.993C119.259 134.801 119.272 134.592 119.361 134.411C119.451 134.229 119.608 134.091 119.8 134.026C119.991 133.961 120.2 133.974 120.382 134.063C120.563 134.153 120.701 134.31 120.767 134.502C121.842 137.662 122.959 141.652 122.176 142.717C121.336 143.863 118.79 143.702 117.382 143.493Z" fill="#080717"/>
<path d="M135.9 144.919C136.008 143.536 134.379 142.281 132.261 142.116C130.143 141.95 128.338 142.937 128.23 144.319C128.122 145.702 129.751 146.957 131.869 147.123C133.987 147.288 135.792 146.302 135.9 144.919Z" fill="#6556FF"/>
<path d="M109.128 143.064C109.236 141.682 107.607 140.426 105.489 140.26C103.371 140.094 101.566 141.081 101.458 142.463C101.35 143.846 102.979 145.101 105.097 145.267C107.215 145.433 109.02 144.447 109.128 143.064Z" fill="#6556FF"/>
<path d="M110.147 164.038C104.69 163.261 101.479 160.995 101.346 160.899C101.188 160.779 101.083 160.602 101.054 160.406C101.025 160.21 101.073 160.01 101.188 159.849C101.304 159.688 101.477 159.578 101.673 159.543C101.868 159.508 102.069 159.55 102.233 159.661C102.263 159.682 105.298 161.809 110.362 162.53C110.562 162.559 110.743 162.665 110.864 162.827C110.985 162.989 111.038 163.192 111.009 163.392C110.981 163.592 110.874 163.773 110.712 163.894C110.55 164.016 110.347 164.068 110.147 164.039L110.147 164.038ZM118.239 154.702C115.213 154.702 112.843 153.159 112.843 151.188C112.843 149.217 115.213 147.674 118.239 147.674C121.265 147.674 123.635 149.217 123.635 151.188C123.635 153.158 121.265 154.702 118.239 154.702ZM118.239 149.198C115.957 149.198 114.367 150.246 114.367 151.188C114.367 152.13 115.957 153.178 118.239 153.178C120.521 153.178 122.111 152.129 122.111 151.188C122.111 150.247 120.521 149.198 118.239 149.198Z" fill="#080717"/>
<path d="M139.714 226.485C139.528 226.485 139.348 226.417 139.209 226.293C139.069 226.169 138.98 225.998 138.958 225.813L134.203 185.866C134.179 185.665 134.236 185.463 134.361 185.304C134.486 185.145 134.669 185.043 134.87 185.019C135.071 184.995 135.273 185.052 135.431 185.177C135.59 185.302 135.693 185.485 135.717 185.685L140.472 225.633C140.485 225.74 140.475 225.849 140.442 225.952C140.41 226.054 140.356 226.149 140.285 226.23C140.213 226.31 140.125 226.375 140.027 226.419C139.929 226.463 139.822 226.486 139.714 226.485ZM78.3717 229.648C78.2492 229.648 78.1285 229.618 78.0198 229.562C77.9111 229.505 77.8177 229.423 77.7474 229.323C77.6771 229.223 77.6321 229.107 77.616 228.985C77.6 228.864 77.6135 228.74 77.6554 228.625L89.5498 195.874C89.584 195.78 89.6364 195.694 89.704 195.62C89.7716 195.546 89.8531 195.486 89.9438 195.444C90.0345 195.402 90.1326 195.378 90.2326 195.373C90.3326 195.369 90.4325 195.384 90.5265 195.419C90.6206 195.453 90.707 195.505 90.7808 195.573C90.8546 195.64 90.9143 195.722 90.9566 195.812C90.9989 195.903 91.023 196.001 91.0274 196.101C91.0317 196.201 91.0164 196.301 90.9822 196.395L79.0879 229.146C79.0346 229.293 78.9372 229.42 78.809 229.51C78.6809 229.6 78.5282 229.648 78.3717 229.648ZM110.894 309.397C110.75 309.396 110.608 309.355 110.485 309.277C110.363 309.199 110.266 309.088 110.205 308.957C110.143 308.826 110.121 308.68 110.139 308.536C110.158 308.392 110.218 308.257 110.311 308.146L116.138 301.185C116.201 301.106 116.28 301.04 116.369 300.991C116.458 300.942 116.556 300.912 116.657 300.902C116.759 300.891 116.861 300.901 116.958 300.931C117.055 300.961 117.145 301.01 117.223 301.075C117.301 301.141 117.365 301.221 117.412 301.311C117.458 301.401 117.486 301.5 117.494 301.602C117.502 301.703 117.489 301.805 117.457 301.901C117.425 301.998 117.373 302.087 117.306 302.163L111.479 309.124C111.407 309.209 111.318 309.278 111.217 309.325C111.116 309.372 111.006 309.397 110.894 309.397ZM95.8946 118.982C95.6925 118.982 95.4987 118.902 95.3558 118.759C95.2129 118.616 95.1326 118.422 95.1326 118.22C95.1326 118.018 95.2129 117.824 95.3558 117.681C95.4987 117.538 95.6925 117.458 95.8946 117.458C106.772 117.458 111.737 110.723 111.786 110.655C111.903 110.49 112.081 110.379 112.28 110.346C112.48 110.312 112.684 110.36 112.849 110.477C113.013 110.594 113.124 110.772 113.158 110.972C113.191 111.171 113.144 111.376 113.026 111.54C112.81 111.844 107.592 118.982 95.8946 118.982ZM87.1808 114.174C86.9973 114.094 86.853 113.944 86.779 113.758C86.705 113.572 86.7073 113.364 86.7853 113.18C86.8634 112.995 87.011 112.849 87.1961 112.772C87.3812 112.696 87.589 112.695 87.7745 112.771C93.0133 114.988 102.193 110.981 102.286 110.941C102.378 110.898 102.477 110.874 102.578 110.87C102.68 110.865 102.781 110.882 102.876 110.917C102.971 110.953 103.058 111.007 103.132 111.076C103.205 111.146 103.265 111.23 103.306 111.322C103.347 111.415 103.369 111.515 103.371 111.617C103.373 111.718 103.354 111.819 103.317 111.913C103.279 112.007 103.223 112.093 103.152 112.165C103.081 112.238 102.996 112.295 102.903 112.334C98.6464 114.224 91.5733 116.034 87.1808 114.174ZM87.2021 150.55C79.1348 147.419 78.5364 134.875 78.5153 134.342C78.511 134.142 78.5851 133.949 78.7218 133.804C78.8585 133.658 79.0468 133.572 79.2462 133.564C79.4457 133.556 79.6403 133.627 79.7883 133.76C79.9363 133.894 80.0259 134.081 80.0378 134.28C80.0431 134.401 80.619 146.36 87.753 149.129C88.6777 149.488 88.1594 150.919 87.2021 150.55ZM137.441 113.733C137.268 113.733 137.1 113.674 136.965 113.566C136.83 113.458 136.736 113.307 136.698 113.138C135.206 106.472 128.456 105.838 128.17 105.815C127.968 105.798 127.781 105.703 127.65 105.549C127.519 105.395 127.454 105.196 127.47 104.994C127.487 104.793 127.582 104.606 127.736 104.475C127.89 104.344 128.089 104.279 128.291 104.295C128.372 104.302 136.444 105.028 138.185 112.804C138.21 112.916 138.21 113.032 138.184 113.143C138.158 113.254 138.108 113.359 138.036 113.448C137.965 113.537 137.874 113.609 137.771 113.658C137.668 113.708 137.555 113.733 137.441 113.733Z" fill="white"/>
<path d="M92.606 139.438C92.5005 139.438 92.3961 139.416 92.2994 139.374C92.2028 139.332 92.1161 139.269 92.0448 139.192C89.062 135.949 89.8684 133.49 92.7053 132.303L89.8779 131.101C89.7832 131.063 89.6969 131.007 89.6241 130.936C89.5514 130.865 89.4936 130.78 89.4543 130.686C89.4149 130.592 89.3948 130.492 89.395 130.39C89.3953 130.288 89.4159 130.187 89.4557 130.094C89.4955 130 89.5537 129.915 89.6268 129.844C89.6999 129.774 89.7865 129.718 89.8814 129.681C89.9763 129.644 90.0776 129.627 90.1793 129.63C90.2811 129.633 90.3812 129.656 90.4738 129.699L95.3346 131.764C95.489 131.83 95.6174 131.945 95.6999 132.091C95.7824 132.237 95.8143 132.407 95.7907 132.573C95.7672 132.739 95.6894 132.893 95.5695 133.01C95.4496 133.127 95.2943 133.202 95.1277 133.222C94.3891 133.312 92.1843 133.832 91.7558 134.995C91.4017 135.958 92.3273 137.247 93.1671 138.16C93.2668 138.269 93.3327 138.405 93.3567 138.551C93.3807 138.697 93.3619 138.846 93.3025 138.982C93.2431 139.117 93.1456 139.232 93.022 139.313C92.8983 139.394 92.7538 139.437 92.606 139.438ZM230.033 210.011C229.863 210.012 229.699 209.955 229.565 209.851C229.431 209.747 229.336 209.602 229.294 209.438C229.252 209.274 229.266 209.1 229.334 208.945C229.402 208.79 229.519 208.662 229.668 208.58C231.976 207.324 232.35 204.893 232.354 204.868C232.375 204.724 232.436 204.589 232.531 204.479C232.626 204.369 232.75 204.288 232.889 204.247C233.029 204.205 233.177 204.204 233.317 204.244C233.456 204.284 233.582 204.363 233.678 204.471C235.237 206.231 236.929 207.813 237.762 208.322C237.706 207.042 236.812 203.858 235.868 201.205C235.834 201.111 235.819 201.011 235.824 200.911C235.829 200.811 235.854 200.713 235.897 200.623C235.983 200.44 236.139 200.3 236.329 200.232C236.52 200.164 236.729 200.174 236.912 200.261C237.094 200.347 237.235 200.503 237.303 200.693C237.875 202.299 239.7 207.661 239.172 209.244C239.115 209.43 239.009 209.598 238.865 209.728C238.721 209.859 238.544 209.949 238.353 209.987C237.445 210.174 235.793 208.997 233.447 206.483C232.856 207.945 231.779 209.159 230.396 209.918C230.285 209.979 230.16 210.012 230.033 210.011Z" fill="#080717"/>
<path d="M238.514 205.861C238.321 205.862 238.134 205.788 237.993 205.656C237.851 205.524 237.765 205.344 237.752 205.15C237.739 204.957 237.8 204.767 237.923 204.617C238.045 204.467 238.22 204.369 238.412 204.344L244.562 203.503C244.661 203.49 244.762 203.496 244.859 203.521C244.955 203.547 245.046 203.591 245.126 203.651C245.206 203.712 245.273 203.788 245.323 203.874C245.374 203.961 245.407 204.056 245.42 204.155C245.434 204.255 245.428 204.355 245.402 204.452C245.377 204.549 245.332 204.64 245.272 204.72C245.211 204.799 245.136 204.866 245.049 204.917C244.963 204.967 244.867 205 244.768 205.014C240.49 205.599 238.6 205.861 238.514 205.861ZM238.853 208.47C238.658 208.47 238.47 208.394 238.329 208.259C238.188 208.124 238.103 207.94 238.094 207.745C238.084 207.55 238.15 207.359 238.278 207.211C238.405 207.063 238.585 206.97 238.779 206.95L244.525 206.383C244.625 206.372 244.727 206.381 244.823 206.41C244.92 206.438 245.01 206.485 245.088 206.549C245.166 206.612 245.231 206.691 245.279 206.779C245.326 206.868 245.356 206.965 245.366 207.066C245.376 207.166 245.366 207.267 245.336 207.363C245.307 207.46 245.258 207.549 245.194 207.627C245.13 207.704 245.051 207.768 244.962 207.815C244.873 207.862 244.775 207.891 244.675 207.899C238.132 208.545 238.938 208.47 238.853 208.47Z" fill="#080717"/>
<path d="M238.103 211.646C237.293 211.646 236.575 211.531 236.213 210.798C235.759 209.881 236.426 208.699 236.564 208.471C236.67 208.301 236.838 208.18 237.033 208.133C237.228 208.087 237.433 208.119 237.605 208.222C237.776 208.326 237.9 208.493 237.949 208.687C237.998 208.881 237.969 209.087 237.867 209.26C237.712 209.511 237.613 209.794 237.577 210.087C238.341 210.313 244.031 209.59 244.984 209.461C245.083 209.447 245.184 209.454 245.281 209.479C245.378 209.505 245.469 209.549 245.548 209.61C245.628 209.671 245.695 209.746 245.745 209.833C245.795 209.919 245.828 210.015 245.841 210.114C245.855 210.213 245.849 210.314 245.823 210.411C245.797 210.508 245.753 210.598 245.692 210.678C245.632 210.758 245.556 210.825 245.469 210.875C245.383 210.925 245.287 210.958 245.188 210.971C244.629 211.047 240.133 211.646 238.103 211.646Z" fill="#080717"/>
<path d="M236.842 213.156C236.137 211.913 237.282 210.537 237.415 210.384C237.547 210.231 237.735 210.137 237.936 210.123C238.138 210.108 238.337 210.174 238.49 210.306C238.643 210.439 238.737 210.626 238.751 210.828C238.766 211.029 238.7 211.228 238.568 211.381C238.354 211.632 238.113 212.086 238.143 212.326C238.684 212.547 240.748 212.608 242.733 212.452C242.935 212.436 243.134 212.501 243.288 212.633C243.442 212.764 243.537 212.951 243.552 213.153C243.568 213.354 243.503 213.553 243.372 213.707C243.241 213.861 243.054 213.956 242.852 213.972C241.446 214.081 237.526 214.362 236.842 213.156ZM162.047 223.659C161.937 223.659 161.829 223.635 161.729 223.59C161.629 223.544 161.54 223.477 161.469 223.394C161.397 223.311 161.344 223.213 161.314 223.107C161.283 223.002 161.276 222.891 161.293 222.783C161.334 222.51 162.36 216.085 166.849 212.381C166.926 212.318 167.015 212.27 167.111 212.241C167.206 212.211 167.307 212.201 167.407 212.211C167.506 212.22 167.603 212.249 167.691 212.296C167.78 212.343 167.858 212.407 167.922 212.484C167.985 212.562 168.033 212.651 168.062 212.746C168.092 212.842 168.102 212.942 168.092 213.042C168.083 213.142 168.054 213.238 168.007 213.327C167.96 213.415 167.896 213.493 167.818 213.557C163.785 216.885 162.808 222.952 162.799 223.013C162.772 223.193 162.681 223.356 162.543 223.475C162.405 223.593 162.229 223.659 162.047 223.659ZM41.9847 312.567C41.8024 312.566 41.6263 312.501 41.4882 312.382C41.3502 312.263 41.2594 312.098 41.2324 311.918L39.7817 302.273C39.7649 302.173 39.7681 302.071 39.7912 301.972C39.8143 301.874 39.8568 301.781 39.9162 301.699C39.9756 301.617 40.0508 301.548 40.1373 301.495C40.2238 301.443 40.3198 301.408 40.4199 301.393C40.52 301.378 40.6221 301.383 40.7202 301.408C40.8184 301.432 40.9105 301.477 40.9914 301.537C41.0723 301.598 41.1402 301.675 41.1912 301.762C41.2422 301.85 41.2753 301.946 41.2886 302.047L42.7392 311.691C42.7555 311.8 42.7482 311.911 42.7177 312.016C42.6873 312.121 42.6344 312.219 42.5628 312.302C42.4911 312.385 42.4024 312.452 42.3026 312.498C42.2028 312.543 42.0944 312.567 41.9847 312.567ZM45.6303 311.87C45.4539 311.87 45.283 311.809 45.1468 311.696C45.0107 311.584 44.9176 311.428 44.8835 311.255L43.025 301.821C43.0039 301.722 43.0027 301.62 43.0214 301.521C43.0401 301.422 43.0784 301.327 43.134 301.243C43.1897 301.158 43.2615 301.086 43.3455 301.03C43.4294 300.973 43.5237 300.934 43.6228 300.915C43.722 300.895 43.824 300.895 43.9231 300.916C44.0221 300.936 44.1161 300.976 44.1996 301.033C44.2831 301.09 44.3544 301.163 44.4094 301.247C44.4644 301.332 44.502 301.427 44.52 301.527L46.3785 310.961C46.4003 311.071 46.3974 311.185 46.3698 311.294C46.3423 311.404 46.2909 311.505 46.2194 311.592C46.1478 311.679 46.0579 311.749 45.956 311.797C45.8541 311.845 45.7429 311.87 45.6303 311.87ZM49.2479 310.354C49.0712 310.353 48.9001 310.292 48.7638 310.179C48.6275 310.067 48.5345 309.911 48.5007 309.737L46.8015 301.011C46.7628 300.812 46.8044 300.607 46.9173 300.439C47.0302 300.272 47.2051 300.156 47.4034 300.117C47.6018 300.078 47.8074 300.12 47.975 300.233C48.1426 300.346 48.2586 300.521 48.2973 300.719L49.9965 309.446C50.0181 309.556 50.0149 309.67 49.9872 309.779C49.9596 309.888 49.9081 309.99 49.8365 310.076C49.765 310.163 49.675 310.233 49.5733 310.281C49.4715 310.329 49.3604 310.354 49.2479 310.354Z" fill="#080717"/>
</g>
<defs>
<clipPath id="clip0_947_3864">
<rect width="381" height="381" fill="white"/>
</clipPath>
</defs>
</svg>
