<svg width="80" height="80" viewBox="0 0 80 80" fill="none" xmlns="http://www.w3.org/2000/svg">
<path d="M48.75 70C62.5571 70 73.75 58.8071 73.75 45C73.75 31.1929 62.5571 20 48.75 20C34.9429 20 23.75 31.1929 23.75 45C23.75 58.8071 34.9429 70 48.75 70Z" stroke="#B8B2FF" stroke-width="2" stroke-miterlimit="10"/>
<path d="M47.5 43.75L37.5 32.5" stroke="#B8B2FF" stroke-width="2" stroke-miterlimit="10"/>
<path d="M48.75 47.5C50.1307 47.5 51.25 46.3807 51.25 45C51.25 43.6193 50.1307 42.5 48.75 42.5C47.3693 42.5 46.25 43.6193 46.25 45C46.25 46.3807 47.3693 47.5 48.75 47.5Z" stroke="#B8B2FF" stroke-width="2" stroke-miterlimit="10"/>
<path d="M55 10H42.5V15H55V10Z" stroke="#B8B2FF" stroke-width="2" stroke-miterlimit="10"/>
<path d="M51.875 15H45.625V20H51.875V15Z" stroke="#B8B2FF" stroke-width="2" stroke-miterlimit="10"/>
<path d="M77.4989 25.0878L68.6602 16.249L65.1247 19.7845L73.9634 28.6233L77.4989 25.0878Z" stroke="#B8B2FF" stroke-width="2" stroke-miterlimit="10"/>
<path d="M71.7549 26.415L68.5024 29.6663" stroke="#B8B2FF" stroke-width="2" stroke-miterlimit="10"/>
<path d="M64.0801 25.2501L67.3351 21.9951" stroke="#B8B2FF" stroke-width="2" stroke-miterlimit="10"/>
<path d="M23.5851 28.6249L32.4238 19.7861L28.8883 16.2506L20.0496 25.0894L23.5851 28.6249Z" stroke="#B8B2FF" stroke-width="2" stroke-miterlimit="10"/>
<path d="M25.7949 26.415L29.0224 29.6425" stroke="#B8B2FF" stroke-width="2" stroke-miterlimit="10"/>
<path d="M33.4423 25.2239L30.2148 21.9951" stroke="#B8B2FF" stroke-width="2" stroke-miterlimit="10"/>
<path d="M20 35H2.5" stroke="#B8B2FF" stroke-width="2" stroke-miterlimit="10"/>
<path d="M20 41.25H5" stroke="#B8B2FF" stroke-width="2" stroke-miterlimit="10"/>
<path d="M20 47.5H7.5" stroke="#B8B2FF" stroke-width="2" stroke-miterlimit="10"/>
<path d="M20 53.75H10" stroke="#B8B2FF" stroke-width="2" stroke-miterlimit="10"/>
<path d="M20 60H12.5" stroke="#B8B2FF" stroke-width="2" stroke-miterlimit="10"/>
</svg>
