<svg width="80" height="80" viewBox="0 0 80 80" fill="none" xmlns="http://www.w3.org/2000/svg">
<path d="M76.4712 62.5225L77.5374 56.125L73.3662 45H56.6949L57.6737 37.5H18.9024L14.8262 68.75H17.5999C17.5412 69.16 17.4999 69.575 17.4999 70C17.4999 74.825 21.4262 78.75 26.2499 78.75C31.0737 78.75 34.9999 74.825 34.9999 70C34.9999 69.575 34.9587 69.16 34.8999 68.75H51.3499C51.2912 69.16 51.2499 69.575 51.2499 70C51.2499 74.825 55.1762 78.75 59.9999 78.75C64.8237 78.75 68.7499 74.825 68.7499 70H76.2499C77.6287 70 78.7499 68.8787 78.7499 67.5V65C78.7499 63.6975 77.7449 62.6363 76.4712 62.5225ZM74.4462 55H63.5587C62.9749 55 62.4999 54.525 62.4999 53.9412C62.4999 53.8825 62.5049 53.8237 62.5149 53.7675L63.5587 47.5H71.6337L74.4462 55ZM54.8262 40L53.8474 47.5H20.1187L21.0974 40H54.8262ZM26.2499 76.25C22.8037 76.25 19.9999 73.4463 19.9999 70C19.9999 66.5537 22.8037 63.75 26.2499 63.75C29.6962 63.75 32.4999 66.5537 32.4999 70C32.4999 73.4463 29.6962 76.25 26.2499 76.25ZM26.2499 61.25C22.7687 61.25 19.7649 63.2987 18.3562 66.25H17.6737L18.8149 57.5H21.2499V55H19.1412L19.7937 50H53.5224L52.8699 55H23.7499V57.5H52.5437L51.4024 66.25H34.1437C32.7349 63.2987 29.7312 61.25 26.2499 61.25ZM59.9999 76.25C56.5537 76.25 53.7499 73.4463 53.7499 70C53.7499 66.5537 56.5537 63.75 59.9999 63.75C63.4462 63.75 66.2499 66.5537 66.2499 70C66.2499 73.4463 63.4462 76.25 59.9999 76.25ZM66.2499 62.5V63.8888C64.6599 62.2625 62.4474 61.25 59.9999 61.25C57.8212 61.25 55.8312 62.055 54.2987 63.3775L56.3687 47.5H61.0237L60.0474 53.3588C60.0174 53.5513 59.9999 53.7463 59.9999 53.9412C59.9999 55.9037 61.5962 57.5 63.5587 57.5H74.7749L73.9412 62.5H66.2499ZM76.2499 67.5H68.7499V65H76.2499V67.5Z" fill="#B8B2FF"/>
<path d="M3.75 37.5H1.25V40H3.75V37.5Z" fill="#B8B2FF"/>
<path d="M16.25 37.5H6.25V40H16.25V37.5Z" fill="#B8B2FF"/>
<path d="M3.75 51.25H1.25V53.75H3.75V51.25Z" fill="#B8B2FF"/>
<path d="M15 51.25H6.25V53.75H15V51.25Z" fill="#B8B2FF"/>
<path d="M12.5 63.75H1.25V66.25H12.5V63.75Z" fill="#B8B2FF"/>
<path d="M28.75 17.5H31.25C31.25 16.1212 32.3712 15 33.75 15C35.1287 15 36.25 16.1212 36.25 17.5V17.9775L28.75 21.7275V25H38.75V22.5H32.795L38.75 19.5225V17.5C38.75 14.7425 36.5075 12.5 33.75 12.5C30.9925 12.5 28.75 14.7425 28.75 17.5Z" fill="#B8B2FF"/>
<path d="M45.625 12.5L41.25 18.3337V21.25H46.25V25H48.75V21.25H51.25V18.75H48.75V12.5H45.625ZM46.25 18.75H44.0625L46.25 15.8337V18.75Z" fill="#B8B2FF"/>
<path d="M40 36.25C49.65 36.25 57.5 28.4 57.5 18.75C57.5 11.1363 52.63 4.44629 45.385 2.10254L44.6163 4.48129C50.8263 6.49004 55 12.2238 55 18.75C55 27.0213 48.2712 33.75 40 33.75C31.7288 33.75 25 27.0213 25 18.75C25 15.0963 26.3563 11.6263 28.75 8.90629V12.5H31.25V5.00004H22.5V7.50004H26.6637C24.0025 10.6363 22.5 14.59 22.5 18.75C22.5 28.4 30.35 36.25 40 36.25Z" fill="#B8B2FF"/>
<path d="M42.6912 1.47625C41.7062 1.32375 40.825 1.25 40 1.25V3.75C40.6962 3.75 41.4513 3.815 42.3088 3.9475L42.6912 1.47625Z" fill="#B8B2FF"/>
</svg>
