<svg width="100" height="100" viewBox="0 0 100 100" fill="none" xmlns="http://www.w3.org/2000/svg">
<path d="M71.093 89.9999H28.9171L23.4344 65.2212C23.3138 64.6842 23.3039 64.1281 23.4054 63.5871C23.5068 63.0461 23.7175 62.5314 24.0246 62.0746C24.3032 61.6469 24.682 61.2937 25.1282 61.0459C25.5743 60.798 26.0743 60.6629 26.5846 60.6523H73.4255C73.9358 60.6629 74.4357 60.798 74.8819 61.0459C75.3281 61.2937 75.7069 61.6469 75.9855 62.0746C76.2925 62.5314 76.5032 63.0461 76.6047 63.5871C76.7062 64.1281 76.6963 64.6842 76.5757 65.2212L71.093 89.9999Z" stroke="#00CCF5" stroke-width="3" stroke-linecap="round" stroke-linejoin="round"/>
<path d="M10 90H89.9999" stroke="black" stroke-width="3" stroke-linecap="round" stroke-linejoin="round"/>
<path d="M44.6641 74.0003C44.6641 75.4148 45.226 76.7714 46.2262 77.7716C47.2264 78.7717 48.5829 79.3337 49.9974 79.3337C51.4119 79.3337 52.7684 78.7717 53.7686 77.7716C54.7688 76.7714 55.3307 75.4148 55.3307 74.0003C55.3307 72.5858 54.7688 71.2293 53.7686 70.2291C52.7684 69.2289 51.4119 68.667 49.9974 68.667C48.5829 68.667 47.2264 69.2289 46.2262 70.2291C45.226 71.2293 44.6641 72.5858 44.6641 74.0003Z" stroke="#00CCF5" stroke-width="3" stroke-linecap="round" stroke-linejoin="round"/>
<path d="M37.3672 17.2227C39.6388 19.5778 42.3618 21.451 45.3735 22.7302C48.3852 24.0094 51.6239 24.6685 54.8961 24.668C58.213 24.6703 61.4955 23.9952 64.5423 22.684" stroke="black" stroke-width="3" stroke-linecap="round" stroke-linejoin="round"/>
<path d="M35.3359 24.6667C35.3359 28.5565 36.8812 32.287 39.6317 35.0375C42.3822 37.7881 46.1128 39.3333 50.0026 39.3333C53.8924 39.3333 57.623 37.7881 60.3735 35.0375C63.124 32.287 64.6693 28.5565 64.6693 24.6667C64.6693 20.7768 63.124 17.0463 60.3735 14.2958C57.623 11.5452 53.8924 10 50.0026 10C46.1128 10 42.3822 11.5452 39.6317 14.2958C36.8812 17.0463 35.3359 20.7768 35.3359 24.6667Z" stroke="black" stroke-width="3" stroke-linecap="round" stroke-linejoin="round"/>
<path d="M67.7743 52.6684C65.547 50.1509 62.8104 48.1352 59.7456 46.7546C56.6809 45.3741 53.3579 44.6602 49.9965 44.6602C46.6352 44.6602 43.3122 45.3741 40.2474 46.7546C37.1827 48.1352 34.4461 50.1509 32.2188 52.6684" stroke="black" stroke-width="3" stroke-linecap="round" stroke-linejoin="round"/>
</svg>
