<svg width="100" height="100" viewBox="0 0 100 100" fill="none" xmlns="http://www.w3.org/2000/svg">
<path d="M63.7266 11.9711C63.7266 14.1468 64.5909 16.2334 66.1293 17.7718C67.6678 19.3103 69.7544 20.1746 71.9301 20.1746C74.1058 20.1746 76.1924 19.3103 77.7308 17.7718C79.2693 16.2334 80.1336 14.1468 80.1336 11.9711C80.1336 9.79537 79.2693 7.70878 77.7308 6.17033C76.1924 4.63187 74.1058 3.76758 71.9301 3.76758C69.7544 3.76758 67.6678 4.63187 66.1293 6.17033C64.5909 7.70878 63.7266 9.79537 63.7266 11.9711Z" stroke="black" stroke-width="3" stroke-linecap="round" stroke-linejoin="round"/>
<path d="M84.2199 37.608C84.2199 34.3444 82.9234 31.2145 80.6157 28.9069C78.3081 26.5992 75.1782 25.3027 71.9146 25.3027C68.6511 25.3027 65.5212 26.5992 63.2135 28.9069C60.9058 31.2145 59.6094 34.3444 59.6094 37.608" stroke="black" stroke-width="3" stroke-linecap="round" stroke-linejoin="round"/>
<path d="M63.7266 58.1166C63.7266 60.2923 64.5909 62.3789 66.1293 63.9173C67.6678 65.4558 69.7544 66.3201 71.9301 66.3201C74.1058 66.3201 76.1924 65.4558 77.7308 63.9173C79.2693 62.3789 80.1336 60.2923 80.1336 58.1166C80.1336 55.9409 79.2693 53.8543 77.7308 52.3158C76.1924 50.7774 74.1058 49.9131 71.9301 49.9131C69.7544 49.9131 67.6678 50.7774 66.1293 52.3158C64.5909 53.8543 63.7266 55.9409 63.7266 58.1166Z" stroke="black" stroke-width="3" stroke-linecap="round" stroke-linejoin="round"/>
<path d="M84.2199 83.7672C84.2199 80.5036 82.9234 77.3737 80.6157 75.066C78.3081 72.7584 75.1782 71.4619 71.9146 71.4619C68.6511 71.4619 65.5212 72.7584 63.2135 75.066C60.9058 77.3737 59.6094 80.5036 59.6094 83.7672" stroke="black" stroke-width="3" stroke-linecap="round" stroke-linejoin="round"/>
<path d="M3.125 51.1785C3.125 54.3252 3.74479 57.4411 4.94898 60.3483C6.15317 63.2554 7.91817 65.897 10.1432 68.122C12.3683 70.3471 15.0098 72.1121 17.917 73.3162C20.8241 74.5204 23.94 75.1402 27.0867 75.1402C30.2334 75.1402 33.3493 74.5204 36.2565 73.3162C39.1636 72.1121 41.8052 70.3471 44.0302 68.122C46.2553 65.897 48.0203 63.2554 49.2245 60.3483C50.4286 57.4411 51.0484 54.3252 51.0484 51.1785C51.0484 48.0318 50.4286 44.9159 49.2245 42.0088C48.0203 39.1016 46.2553 36.4601 44.0302 34.235C41.8052 32.01 39.1636 30.245 36.2565 29.0408C33.3493 27.8366 30.2334 27.2168 27.0867 27.2168C23.94 27.2168 20.8241 27.8366 17.917 29.0408C15.0098 30.245 12.3683 32.01 10.1432 34.235C7.91817 36.4601 6.15317 39.1016 4.94898 42.0088C3.74479 44.9159 3.125 48.0318 3.125 51.1785Z" stroke="#00CCF5" stroke-width="3" stroke-linecap="round" stroke-linejoin="round"/>
<path d="M11.3125 69.2084L27.0923 51.1795V27.2178" stroke="#00CCF5" stroke-width="3" stroke-linecap="round" stroke-linejoin="round"/>
<path d="M27.0859 51.1768H51.0441" stroke="#00CCF5" stroke-width="3" stroke-linecap="round" stroke-linejoin="round"/>
</svg>
