<svg width="409" height="418" viewBox="0 0 409 418" fill="none" xmlns="http://www.w3.org/2000/svg">
<path d="M361.211 168.776L395.527 188.6L395.516 190.582L361.199 170.77L361.211 168.776Z" fill="url(#paint0_linear_2211_20693)"/>
<path d="M395.446 214.451V216.445L330.246 178.792V176.798L395.446 214.451Z" fill="url(#paint1_linear_2211_20693)"/>
<path d="M330.27 170.344L395.469 207.985V209.979L330.27 172.326V170.344Z" fill="url(#paint2_linear_2211_20693)"/>
<path d="M330.305 157.412L395.504 195.054V197.048L330.305 159.406V157.412Z" fill="url(#paint3_linear_2211_20693)"/>
<path d="M330.293 163.878L395.481 201.531V203.513L330.281 165.86L330.293 163.878Z" fill="url(#paint4_linear_2211_20693)"/>
<path d="M372.899 270.084C372.899 265.981 371.436 263.088 369.097 261.729C351.039 251.24 303.448 223.05 285.391 212.562C287.73 213.922 289.193 216.814 289.205 220.917V283.753L372.911 332.932V270.096L372.899 270.084Z" fill="url(#paint5_linear_2211_20693)"/>
<path d="M288.915 206.464C285.631 204.551 281.091 204.828 276.078 207.709L177.449 264.667C167.493 270.418 159.426 284.387 159.461 295.831V358.667L243.167 407.846V345.01C243.132 333.577 251.199 319.597 261.144 313.846L359.772 256.899C364.785 254.006 369.325 253.741 372.609 255.654C354.552 245.166 306.961 216.975 288.915 206.476V206.464Z" fill="url(#paint6_linear_2211_20693)"/>
<g style="mix-blend-mode:overlay">
<path d="M276.47 291.026L274.361 289.804C273.866 289.516 273.059 289.516 272.564 289.804L270.547 290.98C270.052 291.268 270.063 291.729 270.547 292.028L272.656 293.25C273.151 293.538 273.958 293.538 274.453 293.25L276.47 292.074C276.966 291.786 276.954 291.325 276.47 291.037V291.026Z" fill="#E4C9FF"/>
<path d="M267.031 296.511L264.922 295.289C264.426 295.001 263.62 295.001 263.124 295.289L259.817 297.203C259.321 297.491 259.321 297.963 259.817 298.24L261.926 299.461C262.421 299.75 263.228 299.75 263.723 299.461L267.031 297.537C267.526 297.249 267.515 296.776 267.031 296.5V296.511Z" fill="#E4C9FF"/>
<path d="M271.883 293.688L269.774 292.466C269.279 292.178 268.472 292.178 267.977 292.466L265.695 293.792C265.211 294.08 265.211 294.541 265.695 294.829L267.804 296.05C268.299 296.339 269.106 296.339 269.601 296.05L271.883 294.725C272.379 294.437 272.367 293.976 271.883 293.688Z" fill="#E4C9FF"/>
<path d="M258.748 281.367L256.731 282.543C256.235 282.831 256.235 283.292 256.731 283.58L259.024 284.906C259.52 285.194 260.326 285.194 260.822 284.906L262.838 283.73C263.334 283.442 263.322 282.981 262.838 282.693L260.545 281.367C260.05 281.079 259.243 281.079 258.748 281.367Z" fill="#E4C9FF"/>
<path d="M275.938 263.606L276.272 263.802C276.768 264.09 277.575 264.09 278.07 263.802L279.833 262.776C280.317 262.488 280.317 262.027 279.833 261.739L279.499 261.543C279.003 261.255 278.197 261.255 277.713 261.543L275.95 262.569C275.454 262.846 275.454 263.318 275.95 263.606H275.938Z" fill="#E4C9FF"/>
<path d="M280.677 263.249L278.914 264.275C278.419 264.563 278.43 265.024 278.914 265.312L280.965 266.488C281.461 266.776 282.268 266.776 282.751 266.488L284.515 265.462C284.999 265.174 284.999 264.713 284.515 264.425L282.463 263.249C281.968 262.961 281.161 262.961 280.677 263.249Z" fill="#E4C9FF"/>
<path d="M257.18 274.521L257.514 274.717C258.01 275.005 258.816 275.005 259.312 274.717L261.386 273.519C261.881 273.231 261.87 272.758 261.386 272.481L261.052 272.285C260.556 271.997 259.75 271.997 259.254 272.285L257.18 273.496C256.684 273.784 256.696 274.245 257.18 274.533V274.521Z" fill="#E4C9FF"/>
<path d="M261.824 271.813L262.158 272.009C262.653 272.297 263.46 272.297 263.944 272.009L266.226 270.684C266.721 270.396 266.71 269.935 266.226 269.646L265.891 269.45C265.396 269.162 264.589 269.162 264.094 269.45L261.812 270.776C261.328 271.064 261.328 271.525 261.812 271.813H261.824Z" fill="#E4C9FF"/>
<path d="M266.676 268.99L267.011 269.185C267.506 269.474 268.313 269.474 268.808 269.185L270.825 268.01C271.32 267.722 271.309 267.261 270.825 266.973L270.491 266.777C269.995 266.489 269.188 266.489 268.693 266.777L266.676 267.941C266.181 268.229 266.181 268.69 266.676 268.978V268.99Z" fill="#E4C9FF"/>
<path d="M271.262 266.327L271.596 266.523C272.091 266.811 272.898 266.811 273.393 266.523L275.502 265.301C275.986 265.013 275.986 264.552 275.502 264.264L275.168 264.068C274.673 263.78 273.866 263.78 273.382 264.068L271.273 265.289C270.789 265.577 270.789 266.038 271.273 266.327H271.262Z" fill="#E4C9FF"/>
<path d="M276.331 265.774L274.234 266.995C273.75 267.284 273.75 267.745 274.234 268.033L276.274 269.22C276.769 269.508 277.576 269.508 278.071 269.22L280.169 267.998C280.664 267.71 280.664 267.249 280.169 266.961L278.129 265.774C277.633 265.486 276.827 265.486 276.331 265.774Z" fill="#E4C9FF"/>
<path d="M242.602 283.373L242.268 283.177C241.773 282.889 240.966 282.889 240.482 283.177L238.016 284.606C237.521 284.894 237.521 285.355 238.016 285.643L238.35 285.839C238.846 286.128 239.652 286.128 240.148 285.839L242.614 284.399C243.109 284.111 243.098 283.65 242.614 283.361L242.602 283.373Z" fill="#E4C9FF"/>
<path d="M247.28 286.069L245.241 284.894C244.745 284.606 243.939 284.606 243.443 284.894L240.977 286.323C240.482 286.611 240.482 287.072 240.977 287.36L243.017 288.536C243.512 288.824 244.319 288.824 244.814 288.536L247.28 287.095C247.764 286.819 247.764 286.346 247.28 286.058V286.069Z" fill="#E4C9FF"/>
<path d="M252.5 277.23L252.834 277.426C253.33 277.714 254.136 277.714 254.62 277.426L256.729 276.204C257.225 275.916 257.225 275.455 256.729 275.167L256.395 274.971C255.899 274.683 255.093 274.683 254.597 274.971L252.488 276.193C251.993 276.481 252.004 276.942 252.488 277.23H252.5Z" fill="#E4C9FF"/>
<path d="M282.199 267.744L280.09 268.966C279.594 269.254 279.606 269.715 280.09 270.003L282.383 271.329C282.879 271.617 283.685 271.617 284.181 271.329L286.278 270.107C286.774 269.819 286.774 269.346 286.278 269.07L283.985 267.744C283.489 267.456 282.683 267.456 282.187 267.744H282.199Z" fill="#E4C9FF"/>
<path d="M271.653 268.493L269.637 269.657C269.141 269.945 269.153 270.406 269.637 270.695L271.676 271.87C272.172 272.158 272.979 272.158 273.474 271.87L275.491 270.695C275.986 270.406 275.975 269.934 275.491 269.657L273.451 268.482C272.956 268.194 272.149 268.194 271.653 268.482V268.493Z" fill="#E4C9FF"/>
<path d="M290.424 273.046L292.532 271.825C293.028 271.536 293.016 271.075 292.532 270.787L290.504 269.612C290.009 269.335 289.202 269.335 288.707 269.612L286.598 270.833C286.102 271.122 286.114 271.594 286.598 271.871L288.626 273.046C289.121 273.334 289.928 273.334 290.412 273.046H290.424Z" fill="#E4C9FF"/>
<path d="M277.517 270.464L275.5 271.64C275.005 271.928 275.016 272.389 275.5 272.677L277.793 274.002C278.289 274.291 279.095 274.291 279.591 274.002L281.608 272.838C282.103 272.55 282.103 272.078 281.608 271.79L279.314 270.464C278.819 270.176 278.012 270.176 277.517 270.464Z" fill="#E4C9FF"/>
<path d="M297.11 274.625L299.207 273.404C299.703 273.115 299.703 272.643 299.207 272.355L297.087 271.133C296.591 270.845 295.785 270.845 295.289 271.133L293.192 272.355C292.696 272.643 292.696 273.115 293.192 273.392L295.312 274.614C295.808 274.902 296.614 274.902 297.11 274.614V274.625Z" fill="#E4C9FF"/>
<path d="M267.066 271.155L264.785 272.481C264.301 272.769 264.301 273.241 264.785 273.518L266.825 274.694C267.32 274.982 268.127 274.982 268.611 274.694L270.892 273.368C271.388 273.08 271.376 272.619 270.892 272.331L268.841 271.144C268.346 270.856 267.539 270.856 267.043 271.144L267.066 271.155Z" fill="#E4C9FF"/>
<path d="M285.838 275.72L287.854 274.556C288.35 274.268 288.338 273.795 287.854 273.519L285.826 272.355C285.331 272.067 284.524 272.067 284.028 272.355L282.012 273.519C281.516 273.807 281.528 274.28 282.012 274.556L284.04 275.72C284.535 276.008 285.342 276.008 285.838 275.72Z" fill="#E4C9FF"/>
<path d="M272.93 273.126L270.649 274.452C270.153 274.74 270.165 275.212 270.649 275.489L272.942 276.814C273.437 277.102 274.244 277.102 274.739 276.814L277.021 275.489C277.517 275.201 277.505 274.74 277.021 274.452L274.728 273.126C274.232 272.838 273.426 272.838 272.942 273.126H272.93Z" fill="#E4C9FF"/>
<path d="M292.509 277.299L294.525 276.124C295.009 275.835 295.009 275.374 294.525 275.086L292.405 273.865C291.909 273.576 291.103 273.576 290.619 273.865L288.602 275.04C288.107 275.328 288.107 275.789 288.602 276.077L290.722 277.299C291.218 277.587 292.025 277.587 292.52 277.299H292.509Z" fill="#E4C9FF"/>
<path d="M262.203 273.991L260.129 275.19C259.634 275.478 259.645 275.939 260.129 276.227L262.169 277.403C262.664 277.691 263.471 277.691 263.966 277.403L266.041 276.204C266.536 275.916 266.525 275.444 266.041 275.167L264.001 273.991C263.505 273.703 262.699 273.703 262.203 273.991Z" fill="#E4C9FF"/>
<path d="M280.986 278.543L283.268 277.218C283.763 276.93 283.752 276.457 283.268 276.169L281.24 275.005C280.744 274.717 279.938 274.717 279.454 275.005L277.172 276.331C276.677 276.619 276.688 277.08 277.172 277.368L279.2 278.543C279.696 278.832 280.502 278.832 280.998 278.543H280.986Z" fill="#E4C9FF"/>
<path d="M268.071 275.95L265.997 277.149C265.501 277.437 265.501 277.898 265.997 278.186L268.29 279.512C268.785 279.8 269.592 279.8 270.087 279.512L272.162 278.313C272.657 278.025 272.657 277.564 272.162 277.276L269.868 275.95C269.373 275.662 268.566 275.662 268.082 275.95H268.071Z" fill="#E4C9FF"/>
<path d="M287.661 280.123L289.942 278.797C290.438 278.509 290.426 278.048 289.942 277.76L287.822 276.538C287.327 276.25 286.52 276.25 286.024 276.538L283.743 277.864C283.247 278.152 283.247 278.624 283.743 278.901L285.863 280.123C286.359 280.411 287.165 280.411 287.661 280.123Z" fill="#E4C9FF"/>
<path d="M257.562 276.688L255.453 277.909C254.969 278.198 254.969 278.659 255.453 278.947L257.492 280.122C257.988 280.41 258.795 280.41 259.29 280.122L261.399 278.901C261.894 278.613 261.883 278.151 261.399 277.863L259.348 276.688C258.852 276.4 258.046 276.4 257.55 276.688H257.562Z" fill="#E4C9FF"/>
<path d="M276.33 281.241L278.404 280.031C278.9 279.742 278.888 279.281 278.404 278.993L276.376 277.818C275.88 277.53 275.074 277.53 274.578 277.818L272.504 279.016C272.009 279.304 272.02 279.777 272.504 280.054L274.532 281.218C275.028 281.506 275.834 281.506 276.318 281.218L276.33 281.241Z" fill="#E4C9FF"/>
<path d="M263.426 278.647L261.317 279.868C260.821 280.157 260.821 280.629 261.317 280.906L263.61 282.231C264.106 282.519 264.912 282.519 265.408 282.231L267.517 281.009C268.012 280.721 268.001 280.26 267.517 279.972L265.223 278.647C264.728 278.359 263.921 278.359 263.437 278.647H263.426Z" fill="#E4C9FF"/>
<path d="M252.88 279.408L250.864 280.583C250.368 280.871 250.368 281.344 250.864 281.62L252.915 282.796C253.41 283.084 254.217 283.084 254.713 282.796L256.729 281.62C257.213 281.332 257.213 280.871 256.729 280.583L254.69 279.408C254.194 279.119 253.387 279.119 252.892 279.408H252.88Z" fill="#E4C9FF"/>
<path d="M271.665 283.96L273.762 282.739C274.258 282.45 274.258 281.989 273.762 281.701L271.734 280.526C271.239 280.238 270.432 280.238 269.937 280.526L267.828 281.747C267.344 282.036 267.344 282.508 267.828 282.785L269.856 283.96C270.351 284.248 271.158 284.248 271.654 283.96H271.665Z" fill="#E4C9FF"/>
<path d="M278.336 285.539L280.445 284.318C280.94 284.03 280.929 283.557 280.445 283.269L278.325 282.047C277.829 281.759 277.022 281.759 276.527 282.047L274.418 283.269C273.923 283.557 273.934 284.029 274.418 284.306L276.538 285.528C277.034 285.816 277.841 285.816 278.336 285.528V285.539Z" fill="#E4C9FF"/>
<path d="M248.294 282.071L246.012 283.396C245.517 283.684 245.517 284.145 246.012 284.433L248.052 285.62C248.547 285.909 249.354 285.909 249.85 285.62L252.131 284.295C252.615 284.007 252.615 283.534 252.131 283.258L250.092 282.071C249.596 281.782 248.789 281.782 248.294 282.071Z" fill="#E4C9FF"/>
<path d="M263.251 285.459L265.279 286.623C265.774 286.911 266.581 286.911 267.076 286.623L269.093 285.459C269.588 285.171 269.588 284.698 269.093 284.41L267.065 283.235C266.569 282.947 265.763 282.947 265.267 283.235L263.251 284.41C262.755 284.698 262.755 285.171 263.251 285.459Z" fill="#E4C9FF"/>
<path d="M251.879 286.404L254.172 287.729C254.668 288.018 255.474 288.018 255.97 287.729L258.251 286.404C258.747 286.116 258.747 285.643 258.251 285.367L255.958 284.041C255.463 283.753 254.656 283.753 254.161 284.041L251.879 285.367C251.384 285.655 251.395 286.116 251.879 286.404Z" fill="#E4C9FF"/>
<path d="M273.75 288.201L275.767 287.026C276.262 286.738 276.251 286.277 275.767 285.989L273.647 284.767C273.151 284.479 272.344 284.479 271.86 284.767L269.844 285.931C269.348 286.219 269.36 286.68 269.844 286.968L271.964 288.19C272.46 288.478 273.266 288.478 273.762 288.19L273.75 288.201Z" fill="#E4C9FF"/>
<path d="M258.403 288.271L260.431 289.447C260.926 289.735 261.733 289.735 262.229 289.447L264.51 288.121C264.994 287.833 264.994 287.372 264.51 287.084L262.482 285.908C261.987 285.62 261.18 285.62 260.685 285.908L258.403 287.234C257.907 287.522 257.907 287.983 258.403 288.271Z" fill="#E4C9FF"/>
<path d="M264.981 289.803L267.101 291.025C267.597 291.313 268.403 291.313 268.899 291.025L271.18 289.7C271.676 289.412 271.664 288.951 271.18 288.662L269.06 287.441C268.565 287.153 267.758 287.153 267.274 287.441L264.992 288.766C264.497 289.054 264.508 289.515 264.992 289.803H264.981Z" fill="#E4C9FF"/>
<path d="M253.387 288.178L251.094 286.853C250.599 286.565 249.792 286.565 249.296 286.853L245.597 288.997C245.113 289.285 245.113 289.757 245.597 290.045L247.891 291.371C248.386 291.659 249.193 291.659 249.688 291.371L253.387 289.227C253.883 288.939 253.871 288.478 253.387 288.19V288.178Z" fill="#E4C9FF"/>
<path d="M259.634 289.907L257.606 288.732C257.11 288.444 256.304 288.444 255.82 288.732L250.496 291.82C250.012 292.109 250.012 292.581 250.496 292.858L252.524 294.033C253.019 294.321 253.826 294.321 254.322 294.033L259.645 290.945C260.141 290.656 260.129 290.195 259.645 289.907H259.634Z" fill="#E4C9FF"/>
<path d="M266.306 291.487L264.186 290.265C263.69 289.977 262.883 289.977 262.388 290.265L255.105 294.495C254.621 294.783 254.621 295.244 255.105 295.532L257.225 296.754C257.721 297.042 258.528 297.042 259.023 296.754L266.306 292.512C266.801 292.224 266.79 291.763 266.306 291.475V291.487Z" fill="#E4C9FF"/>
<path d="M301.786 271.905L303.549 270.879C304.044 270.591 304.044 270.13 303.549 269.842L301.428 268.62C300.933 268.332 300.126 268.332 299.631 268.62L297.868 269.646C297.372 269.934 297.372 270.407 297.868 270.695L299.988 271.917C300.484 272.205 301.29 272.205 301.786 271.917V271.905Z" fill="#E4C9FF"/>
<path d="M299.447 267.813L301.717 266.488C302.213 266.199 302.213 265.727 301.717 265.45L299.689 264.275C299.194 263.987 298.387 263.987 297.892 264.275L295.61 265.6C295.114 265.888 295.114 266.361 295.61 266.637L297.638 267.813C298.134 268.101 298.94 268.101 299.436 267.813H299.447Z" fill="#E4C9FF"/>
<path d="M306.121 269.392L308.403 268.067C308.898 267.779 308.887 267.318 308.403 267.03L306.283 265.808C305.787 265.52 304.98 265.52 304.485 265.808L302.203 267.133C301.708 267.421 301.719 267.882 302.203 268.171L304.324 269.392C304.819 269.68 305.626 269.68 306.121 269.392Z" fill="#E4C9FF"/>
<path d="M310.969 266.569L312.986 265.393C313.481 265.105 313.47 264.632 312.986 264.356L310.865 263.134C310.37 262.846 309.563 262.846 309.079 263.134L307.063 264.31C306.567 264.598 306.579 265.059 307.063 265.347L309.183 266.569C309.678 266.857 310.485 266.857 310.981 266.569H310.969Z" fill="#E4C9FF"/>
<path d="M321.098 251.828L323.127 253.003C323.622 253.292 324.429 253.292 324.924 253.003L327.425 251.551C327.92 251.263 327.909 250.802 327.425 250.514L325.397 249.35C324.901 249.062 324.094 249.062 323.61 249.35L321.11 250.802C320.614 251.09 320.614 251.551 321.11 251.839L321.098 251.828Z" fill="#E4C9FF"/>
<path d="M304.299 264.989L306.316 263.814C306.811 263.526 306.8 263.065 306.316 262.776L304.288 261.601C303.792 261.313 302.985 261.313 302.502 261.601L300.485 262.776C299.989 263.065 299.989 263.526 300.485 263.814L302.513 264.989C303.009 265.277 303.815 265.277 304.311 264.989H304.299Z" fill="#E4C9FF"/>
<path d="M316.215 249.016L318.508 250.342C319.003 250.63 319.81 250.63 320.306 250.342L322.806 248.889C323.302 248.601 323.29 248.14 322.806 247.852L320.513 246.527C320.017 246.239 319.211 246.239 318.727 246.527L316.226 247.979C315.742 248.267 315.742 248.74 316.226 249.016H316.215Z" fill="#E4C9FF"/>
<path d="M294.793 255.043L292.684 256.265C292.188 256.553 292.2 257.014 292.684 257.302L294.723 258.478C295.219 258.766 296.026 258.766 296.509 258.478L298.618 257.256C299.102 256.968 299.102 256.507 298.618 256.219L296.579 255.043C296.083 254.755 295.276 254.755 294.781 255.043H294.793Z" fill="#E4C9FF"/>
<path d="M289.722 255.596L290.057 255.792C290.552 256.08 291.359 256.08 291.843 255.792L293.951 254.57C294.435 254.282 294.435 253.821 293.951 253.533L293.617 253.337C293.122 253.049 292.315 253.049 291.831 253.337L289.722 254.559C289.238 254.847 289.238 255.308 289.722 255.596Z" fill="#E4C9FF"/>
<path d="M294.399 252.877L294.733 253.073C295.229 253.361 296.035 253.361 296.531 253.073L298.709 251.805C299.204 251.517 299.193 251.044 298.709 250.768L298.375 250.583C297.879 250.295 297.072 250.295 296.588 250.583L294.399 251.851C293.903 252.139 293.903 252.6 294.399 252.888V252.877Z" fill="#E4C9FF"/>
<path d="M312.838 247.979L310.799 246.803C310.303 246.515 309.496 246.515 309.001 246.803L302.133 250.791C301.637 251.079 301.649 251.54 302.133 251.828L304.173 253.004C304.668 253.292 305.475 253.292 305.959 253.004L312.827 249.016C313.322 248.728 313.311 248.267 312.827 247.979H312.838Z" fill="#E4C9FF"/>
<path d="M317.722 250.791L315.429 249.465C314.933 249.177 314.127 249.177 313.631 249.465L307.985 252.738C307.489 253.026 307.501 253.487 307.985 253.776L310.278 255.101C310.773 255.389 311.58 255.389 312.075 255.101L317.722 251.816C318.217 251.528 318.206 251.067 317.722 250.779V250.791Z" fill="#E4C9FF"/>
<path d="M299.553 252.278L297.363 253.545C296.868 253.834 296.879 254.295 297.363 254.583L299.415 255.758C299.91 256.046 300.717 256.046 301.212 255.758L303.402 254.49C303.897 254.202 303.886 253.73 303.402 253.453L301.362 252.278C300.867 251.989 300.06 251.989 299.564 252.278H299.553Z" fill="#E4C9FF"/>
<path d="M305.532 257.879C306.027 258.167 306.834 258.167 307.329 257.879L309.519 256.611C310.014 256.323 310.003 255.85 309.519 255.574L307.226 254.248C306.73 253.96 305.924 253.96 305.44 254.248L303.25 255.516C302.755 255.804 302.766 256.277 303.25 256.553L305.543 257.879H305.532Z" fill="#E4C9FF"/>
<path d="M324.82 258.524L327.056 257.222C327.551 256.934 327.54 256.473 327.056 256.185L324.936 254.963C324.44 254.675 323.634 254.675 323.138 254.963L320.902 256.266C320.407 256.554 320.418 257.026 320.902 257.303L323.023 258.524C323.518 258.813 324.325 258.813 324.82 258.524Z" fill="#E4C9FF"/>
<path d="M313.576 259.595L322.345 254.501C322.841 254.213 322.841 253.741 322.345 253.464L320.317 252.288C319.822 252 319.015 252 318.531 252.288L309.75 257.383C309.255 257.671 309.266 258.143 309.75 258.42L311.778 259.584C312.274 259.872 313.08 259.872 313.576 259.584V259.595Z" fill="#E4C9FF"/>
<path d="M300.656 257.014L298.559 258.236C298.063 258.524 298.075 258.985 298.559 259.273L300.852 260.598C301.347 260.886 302.154 260.886 302.65 260.598L304.758 259.377C305.254 259.089 305.242 258.627 304.758 258.339L302.465 257.014C301.97 256.726 301.163 256.726 300.668 257.014H300.656Z" fill="#E4C9FF"/>
<path d="M308.897 262.316L310.994 261.094C311.478 260.806 311.478 260.345 310.994 260.057L308.966 258.893C308.47 258.605 307.664 258.605 307.168 258.893L305.071 260.115C304.575 260.403 304.575 260.875 305.071 261.152L307.099 262.327C307.594 262.616 308.401 262.616 308.897 262.327V262.316Z" fill="#E4C9FF"/>
<path d="M315.567 263.895L322.25 260.011C322.734 259.723 322.734 259.262 322.25 258.974L320.13 257.752C319.635 257.464 318.828 257.464 318.344 257.752L311.672 261.636C311.177 261.924 311.188 262.385 311.672 262.674L313.792 263.895C314.288 264.183 315.094 264.183 315.59 263.895H315.567Z" fill="#E4C9FF"/>
<path d="M325.708 254.501L327.828 255.723C328.323 256.011 329.13 256.011 329.626 255.723L332.126 254.271C332.622 253.994 332.61 253.522 332.126 253.234L330.006 252.012C329.51 251.724 328.704 251.724 328.208 252.012L325.708 253.464C325.212 253.752 325.212 254.225 325.708 254.501Z" fill="#E4C9FF"/>
<path d="M336.818 255.943L334.709 254.721C334.214 254.433 333.407 254.433 332.923 254.721L330.422 256.173C329.927 256.461 329.927 256.934 330.422 257.21L332.531 258.432C333.027 258.72 333.833 258.72 334.329 258.432L336.829 256.98C337.313 256.692 337.313 256.231 336.829 255.943H336.818Z" fill="#E4C9FF"/>
<path d="M331.748 258.893L329.639 257.683C329.143 257.395 328.337 257.395 327.841 257.683L325.606 258.985C325.11 259.273 325.122 259.734 325.606 260.023L327.714 261.244C328.21 261.532 329.017 261.532 329.512 261.244L331.748 259.942C332.243 259.654 332.232 259.193 331.748 258.905V258.893Z" fill="#E4C9FF"/>
<path d="M281.148 288.305L279.039 287.083C278.543 286.795 277.737 286.795 277.241 287.083L275.133 288.305C274.649 288.593 274.649 289.054 275.133 289.342L277.241 290.564C277.737 290.852 278.543 290.852 279.039 290.564L281.148 289.342C281.643 289.054 281.632 288.593 281.148 288.305Z" fill="#E4C9FF"/>
<path d="M285.805 285.597L283.696 284.375C283.2 284.087 282.394 284.087 281.898 284.375L279.824 285.574C279.34 285.862 279.34 286.323 279.824 286.611L281.933 287.821C282.428 288.109 283.235 288.109 283.73 287.821L285.805 286.611C286.289 286.323 286.289 285.862 285.805 285.574V285.597Z" fill="#E4C9FF"/>
<path d="M283.015 282.819L285.09 281.609C285.585 281.321 285.574 280.86 285.09 280.572L282.969 279.35C282.474 279.062 281.667 279.062 281.172 279.35L279.097 280.549C278.613 280.837 278.613 281.298 279.097 281.586L281.218 282.807C281.713 283.096 282.52 283.096 283.015 282.807V282.819Z" fill="#E4C9FF"/>
<path d="M286.529 265.22L284.766 266.246C284.27 266.534 284.282 266.995 284.766 267.283L287.059 268.608C287.554 268.897 288.361 268.897 288.857 268.608L290.62 267.583C291.115 267.295 291.104 266.822 290.62 266.545L288.327 265.22C287.831 264.932 287.024 264.932 286.529 265.22Z" fill="#E4C9FF"/>
<path d="M313.09 269.738L310.981 268.528C310.485 268.239 309.679 268.239 309.183 268.528L284.465 282.9C283.97 283.188 283.97 283.649 284.465 283.937L286.574 285.159C287.07 285.447 287.876 285.447 288.372 285.159L313.09 270.787C313.585 270.498 313.574 270.037 313.09 269.749V269.738Z" fill="#E4C9FF"/>
<path d="M317.677 267.065L315.569 265.843C315.073 265.555 314.267 265.555 313.771 265.843L311.754 267.007C311.259 267.295 311.259 267.756 311.754 268.044L313.863 269.266C314.359 269.554 315.165 269.554 315.649 269.266L317.666 268.09C318.161 267.802 318.161 267.33 317.666 267.053L317.677 267.065Z" fill="#E4C9FF"/>
<path d="M322.067 264.517L319.959 263.295C319.463 263.007 318.656 263.007 318.161 263.295L316.352 264.344C315.856 264.632 315.868 265.093 316.352 265.381L318.46 266.591C318.956 266.88 319.763 266.88 320.258 266.591L322.067 265.543C322.563 265.255 322.551 264.782 322.067 264.505V264.517Z" fill="#E4C9FF"/>
<path d="M326.931 261.694L324.822 260.484C324.326 260.196 323.52 260.196 323.024 260.484L320.731 261.821C320.235 262.109 320.235 262.57 320.731 262.858L322.84 264.08C323.335 264.368 324.142 264.368 324.637 264.08L326.931 262.743C327.415 262.455 327.415 261.994 326.931 261.705V261.694Z" fill="#E4C9FF"/>
<path d="M291.391 262.397L289.109 263.722C288.625 264.01 288.625 264.471 289.109 264.759L291.402 266.085C291.898 266.373 292.704 266.373 293.2 266.085L295.482 264.759C295.977 264.471 295.966 263.999 295.482 263.722L293.188 262.397C292.693 262.109 291.886 262.109 291.391 262.397Z" fill="#E4C9FF"/>
<path d="M295.103 270.338L296.866 269.312C297.35 269.024 297.35 268.563 296.866 268.274L294.838 267.099C294.342 266.811 293.536 266.811 293.04 267.099L291.277 268.125C290.793 268.413 290.793 268.874 291.277 269.162L293.305 270.326C293.801 270.614 294.607 270.614 295.103 270.326V270.338Z" fill="#E4C9FF"/>
<path d="M285.134 258.259L285.468 258.455C285.963 258.743 286.77 258.743 287.265 258.455L289.282 257.279C289.777 256.991 289.766 256.53 289.282 256.242L288.948 256.046C288.452 255.758 287.646 255.758 287.162 256.046L285.145 257.222C284.65 257.51 284.65 257.982 285.145 258.259H285.134Z" fill="#E4C9FF"/>
<path d="M290.115 257.763L288.098 258.939C287.603 259.227 287.603 259.699 288.098 259.988L290.149 261.163C290.645 261.451 291.452 261.451 291.947 261.163L293.964 259.988C294.448 259.699 294.448 259.238 293.964 258.95L291.924 257.775C291.428 257.487 290.622 257.487 290.126 257.775L290.115 257.763Z" fill="#E4C9FF"/>
<path d="M295.978 259.735L293.961 260.91C293.466 261.198 293.466 261.659 293.961 261.948L296.255 263.273C296.75 263.561 297.557 263.561 298.052 263.273L300.069 262.109C300.564 261.821 300.564 261.348 300.069 261.06L297.776 259.735C297.28 259.447 296.474 259.447 295.978 259.735Z" fill="#E4C9FF"/>
<path d="M280.286 261.083L280.62 261.279C281.115 261.567 281.922 261.567 282.418 261.279L284.699 259.953C285.195 259.665 285.183 259.204 284.699 258.916L284.365 258.72C283.869 258.432 283.063 258.432 282.567 258.72L280.286 260.045C279.79 260.334 279.79 260.795 280.286 261.083Z" fill="#E4C9FF"/>
<path d="M285.528 260.437L283.258 261.762C282.763 262.051 282.763 262.512 283.258 262.8L285.298 263.987C285.794 264.263 286.6 264.263 287.096 263.987L289.366 262.661C289.861 262.373 289.861 261.912 289.366 261.624L287.326 260.449C286.831 260.16 286.024 260.16 285.528 260.449V260.437Z" fill="#E4C9FF"/>
<path d="M311.582 246.341L313.622 247.517C314.117 247.805 314.924 247.805 315.408 247.517L317.908 246.065C318.404 245.777 318.404 245.304 317.908 245.027L315.869 243.852C315.373 243.564 314.567 243.564 314.071 243.852L311.57 245.304C311.075 245.592 311.086 246.053 311.57 246.341H311.582Z" fill="#E4C9FF"/>
<path d="M299.161 250.111L299.495 250.307C299.99 250.595 300.797 250.595 301.293 250.307L303.574 248.982C304.07 248.693 304.058 248.221 303.574 247.944L303.24 247.748C302.744 247.46 301.938 247.46 301.442 247.748L299.161 249.074C298.665 249.362 298.665 249.823 299.161 250.111Z" fill="#E4C9FF"/>
<path d="M304.024 247.287L304.358 247.483C304.854 247.771 305.66 247.771 306.156 247.483L308.172 246.307C308.668 246.019 308.656 245.546 308.172 245.27L307.838 245.085C307.343 244.797 306.536 244.797 306.041 245.085L304.024 246.261C303.528 246.549 303.528 247.01 304.024 247.298V247.287Z" fill="#E4C9FF"/>
<path d="M243.051 282.727L243.386 282.923C243.881 283.211 244.688 283.211 245.183 282.923L247.465 281.598C247.96 281.31 247.96 280.837 247.465 280.56L247.131 280.365C246.635 280.076 245.828 280.076 245.333 280.365L243.051 281.69C242.556 281.978 242.556 282.439 243.051 282.727Z" fill="#E4C9FF"/>
<path d="M247.903 279.904L248.237 280.099C248.733 280.388 249.539 280.388 250.023 280.099L252.04 278.924C252.535 278.636 252.524 278.175 252.04 277.887L251.706 277.691C251.21 277.403 250.403 277.403 249.919 277.691L247.903 278.866C247.407 279.154 247.407 279.615 247.903 279.904Z" fill="#E4C9FF"/>
<path d="M308.61 244.625L308.944 244.82C309.44 245.109 310.246 245.109 310.742 244.82L313.242 243.368C313.738 243.08 313.726 242.619 313.242 242.331L312.908 242.135C312.413 241.847 311.606 241.847 311.122 242.135L308.622 243.587C308.126 243.875 308.126 244.336 308.622 244.625H308.61Z" fill="#E4C9FF"/>
</g>
<g style="mix-blend-mode:overlay">
<path d="M159.83 296.05C159.795 284.617 167.862 270.637 177.818 264.886L276.447 207.928C281.459 205.035 286 204.77 289.284 206.683C307.191 217.091 354.126 244.878 372.506 255.585C372.54 255.608 372.586 255.62 372.621 255.643C354.564 245.155 306.972 216.964 288.927 206.464C285.642 204.551 281.102 204.828 276.09 207.709L177.461 264.667C167.505 270.418 159.438 284.387 159.473 295.831V358.667L159.842 358.875V296.05H159.83Z" fill="white"/>
</g>
<path d="M359.785 256.888C369.73 251.137 377.854 255.77 377.888 267.214V330.05L372.899 332.932V270.096C372.875 261.832 366.999 258.478 359.796 262.639L261.168 319.597C253.977 323.758 248.135 333.865 248.158 342.129V404.965L243.168 407.846V345.01C243.134 333.577 251.2 319.597 261.145 313.846L359.773 256.899L359.785 256.888Z" fill="url(#paint7_linear_2211_20693)"/>
<path d="M300.275 351.798C300.275 351.798 290.146 351.395 287.115 350.715C284.073 350.035 280.535 347.649 279.187 347.903C277.228 348.26 275.027 350.542 276.191 354.818C277.113 358.218 283.312 361.007 286.401 362.597C289.477 364.199 293.557 366.597 297.002 367.68C300.448 368.763 303.087 368.406 304.642 367.403C306.198 366.401 307.247 365.444 307.247 364.361C307.247 363.277 307.569 353.757 307.569 353.757L300.286 351.798H300.275Z" fill="#36D9FF"/>
<path d="M300.436 349.804C300.436 349.804 290.307 349.401 287.276 348.721C284.234 348.041 282.736 346.992 281.388 347.246C279.429 347.603 275.914 348.652 277.067 352.928C277.989 356.328 283.474 359.013 286.55 360.615C289.627 362.217 293.718 364.614 297.152 365.698C300.586 366.781 303.236 366.424 304.792 365.421C306.359 364.418 307.396 363.462 307.396 362.379C307.396 361.295 307.719 351.775 307.719 351.775L300.436 349.816V349.804Z" fill="url(#paint8_linear_2211_20693)"/>
<path d="M281.388 347.246C279.429 347.603 275.914 348.652 277.067 352.928C277.458 354.368 278.668 355.671 280.155 356.823C285.098 352.87 285.917 349.897 285.917 348.364C283.762 347.73 282.506 347.027 281.376 347.234L281.388 347.246Z" fill="#EEE3FF"/>
<path d="M312.386 297.906C312.386 297.906 308.065 303.334 304.677 316.784C301.289 330.235 296.242 351.003 296.242 351.003C296.242 351.003 297.441 356.455 302.246 356.846C307.051 357.238 308.25 354.818 308.25 354.818C308.25 354.818 316.742 334.776 320.718 325.175C324.693 315.574 323.679 311.01 323.679 311.01L312.386 297.895V297.906Z" fill="#F3E6FF"/>
<path d="M279.97 361.307C279.97 361.307 269.852 360.904 266.81 360.224C263.768 359.544 260.23 357.158 258.882 357.411C256.923 357.769 254.734 360.051 255.886 364.327C256.808 367.727 263.007 370.516 266.084 372.106C269.161 373.708 273.252 376.105 276.686 377.189C280.131 378.272 282.77 377.915 284.337 376.912C285.893 375.91 286.93 374.953 286.93 373.87C286.93 372.786 287.253 363.266 287.253 363.266L279.97 361.307Z" fill="#36D9FF"/>
<path d="M280.131 359.302C280.131 359.302 270.002 358.899 266.96 358.219C263.918 357.539 262.42 356.49 261.083 356.732C259.124 357.089 255.598 358.138 256.762 362.414C257.683 365.814 263.169 368.499 266.245 370.101C269.322 371.703 273.401 374.1 276.847 375.184C280.292 376.267 282.931 375.898 284.487 374.907C286.043 373.905 287.091 372.948 287.091 371.865C287.091 370.781 287.414 361.261 287.414 361.261L280.131 359.302Z" fill="#36D9FF"/>
<path d="M261.083 356.743C259.124 357.1 255.598 358.149 256.762 362.425C257.153 363.866 258.363 365.168 259.85 366.332C264.793 362.379 265.612 359.405 265.612 357.873C263.445 357.239 262.201 356.536 261.071 356.743H261.083Z" fill="#EEE3FF"/>
<path d="M292.07 307.415C292.07 307.415 287.749 312.843 284.361 326.282C280.962 339.732 275.926 360.5 275.926 360.5C275.926 360.5 277.124 365.952 281.929 366.344C286.735 366.735 287.933 364.315 287.933 364.315C287.933 364.315 296.426 344.273 300.401 334.672C304.377 325.071 303.363 320.507 303.363 320.507L292.082 307.392L292.07 307.415Z" fill="url(#paint9_linear_2211_20693)"/>
<path d="M405.796 339.871C405.796 337.324 404.886 335.537 403.434 334.696C392.256 328.195 362.768 310.735 351.59 304.234C353.042 305.076 353.941 306.874 353.952 309.409L354.067 348.664L405.911 379.114L405.796 339.871Z" fill="url(#paint10_linear_2211_20693)"/>
<path d="M353.778 300.465C351.75 299.278 348.927 299.451 345.827 301.237L297.671 328.99C291.505 332.552 286.516 341.207 286.527 348.295L286.643 387.539L338.486 418L338.371 378.745C338.348 371.669 343.349 363.002 349.514 359.44L397.659 331.687C400.759 329.901 403.571 329.728 405.61 330.915C394.432 324.415 364.944 306.954 353.766 300.454L353.778 300.465Z" fill="#E4C9FF"/>
<path d="M397.671 331.699C403.836 328.137 408.86 331.007 408.883 338.095L408.998 377.339L405.91 379.125L405.795 339.882C405.783 334.764 402.142 332.69 397.682 335.26L349.538 363.013C345.078 365.583 341.471 371.841 341.483 376.97L341.598 416.214L338.51 418L338.395 378.745C338.372 371.669 343.373 363.001 349.538 359.44L397.682 331.687L397.671 331.699Z" fill="#E4C9FF"/>
<path fill-rule="evenodd" clip-rule="evenodd" d="M325.924 254.041C325.924 254.041 323.827 252.543 323.216 252.14C322.605 251.736 321.879 251.379 321.176 251.31C320.462 251.241 318.411 250.999 317.835 250.837C317.247 250.676 316.083 250.192 315.899 250.365C315.714 250.538 315.841 252.255 317.604 252.831C319.367 253.408 320.278 253.269 320.969 253.615C321.649 253.961 324.207 255.966 324.207 255.966L325.936 254.03L325.924 254.041Z" fill="url(#paint11_linear_2211_20693)"/>
<path fill-rule="evenodd" clip-rule="evenodd" d="M324.254 254.434C324.254 254.434 321.477 252.97 320.797 252.601C320.117 252.232 319.322 251.921 318.573 251.91C317.812 251.898 315.634 251.817 315 251.702C314.367 251.587 313.088 251.183 312.915 251.368C312.73 251.564 313.018 253.373 314.931 253.834C316.844 254.284 317.801 254.065 318.55 254.376C319.31 254.676 322.168 256.577 322.168 256.577L324.265 254.445L324.254 254.434Z" fill="url(#paint12_linear_2211_20693)"/>
<path fill-rule="evenodd" clip-rule="evenodd" d="M322.721 255.794C322.721 255.794 319.621 254.457 318.86 254.111C318.088 253.765 317.224 253.5 316.406 253.546C315.588 253.604 313.249 253.696 312.557 253.627C311.866 253.558 310.46 253.224 310.287 253.443C310.103 253.673 310.564 255.586 312.649 255.909C314.735 256.243 315.749 255.92 316.579 256.186C317.409 256.451 320.647 258.249 320.647 258.249L322.709 255.782L322.721 255.794Z" fill="url(#paint13_linear_2211_20693)"/>
<path fill-rule="evenodd" clip-rule="evenodd" d="M363.444 260.899L361.208 266.616C361.208 266.616 354.19 264.807 350.261 264.138C346.343 263.47 335.142 260.473 332.918 259.182C330.694 257.891 326.338 254.353 325.924 254.042C325.509 253.731 324.46 252.947 323.965 253.212C321.234 254.71 319.194 258.352 318.883 259.689C319.517 260.946 321.983 262.34 323.319 263.308C324.656 264.276 327.802 264.899 329.876 264.899C331.95 264.899 340.097 269.705 346.862 273.266C353.626 276.827 361.462 279.974 364.354 280.965C367.247 281.945 368.641 281.426 369.978 279.778C371.326 278.13 374.887 270.949 376.281 266.558L363.444 260.888V260.899Z" fill="#EBDFFF"/>
<path fill-rule="evenodd" clip-rule="evenodd" d="M361.957 264.703C361.957 264.703 365.702 271.606 372.478 275.467C373.907 272.655 375.462 269.128 376.281 266.558L363.444 260.888L361.957 264.691V264.703Z" fill="url(#paint14_linear_2211_20693)"/>
<path fill-rule="evenodd" clip-rule="evenodd" d="M321.638 257.949C321.638 257.949 318.896 256.762 318.216 256.462C317.547 256.162 316.764 255.92 316.049 255.966C315.323 256.013 313.249 256.105 312.638 256.036C312.028 255.978 310.795 255.678 310.633 255.874C310.472 256.082 310.887 257.776 312.731 258.064C314.586 258.352 315.473 258.064 316.222 258.306C316.96 258.537 319.829 260.127 319.829 260.127L321.661 257.949H321.638Z" fill="#EBDFFF"/>
<path fill-rule="evenodd" clip-rule="evenodd" d="M319.125 260.058C319.966 261.176 321.983 262.363 323.216 263.239C324.541 261.913 325.578 260.484 324.506 259.977C322.674 259.113 319.943 259.816 319.137 260.046L319.125 260.058Z" fill="url(#paint15_linear_2211_20693)"/>
<path fill-rule="evenodd" clip-rule="evenodd" d="M326.189 264.391C326.189 264.391 323.412 264.103 321.718 264.091C320.024 264.091 319.494 263.907 318.756 263.584C318.03 263.261 316.981 262.19 316.44 261.959C315.887 261.729 314.619 261.371 314.665 260.933C314.711 260.495 316.325 259.689 317.88 260.253C319.424 260.83 319.816 261.164 320.496 261.026C321.176 260.876 322.455 259.585 324.299 259.931C326.143 260.276 327.422 263.227 326.189 264.391Z" fill="#EBDFFF"/>
<path fill-rule="evenodd" clip-rule="evenodd" d="M372.813 196.726C365.23 196.403 361.047 199.906 358.893 206.995C356.726 214.083 358.109 215.212 356.369 219.004C354.629 222.784 355.113 226.023 356.669 230.172C358.224 234.31 358.893 236.177 360.333 236.177C361.773 236.177 365.979 235.093 365.979 235.093L381.225 232.927C381.225 232.927 387.471 227.164 389.326 213.956C391.158 200.921 382.85 197.152 372.824 196.726H372.813Z" fill="#EBDFFF"/>
<path fill-rule="evenodd" clip-rule="evenodd" d="M366.453 231.256C366.453 231.256 366.81 242.067 363.204 247.887C359.608 253.707 357.926 254.076 357.926 254.076C357.926 254.076 368.493 259.597 378.242 255.401C387.99 251.195 387.99 241.709 387.99 241.709C387.99 241.709 380.189 241.168 382.528 227.718L369.922 225.493C369.922 225.493 366.534 227.164 366.442 231.256H366.453Z" fill="url(#paint16_linear_2211_20693)"/>
<path d="M360.738 212.043C360.738 212.043 360.496 214.682 361.637 216.123C362.778 217.563 364.333 217.506 364.46 219.431C364.575 221.355 364.46 223.338 364.46 223.338L366.258 223.937C366.258 223.937 366.419 221.643 367.606 219.88C368.804 218.117 371.155 218.843 371.604 221.355C372.042 223.879 370.521 227.637 367.122 229.4C367.168 233.883 368.32 235.958 368.516 235.727C368.712 235.485 369.115 234.967 369.115 234.967C369.115 234.967 372.319 237.364 376.156 237.525C376.156 237.525 380.881 236.523 382.402 233.803C382.402 233.803 383.162 234.886 383.485 234.967C383.808 235.047 388.613 229.077 389.811 225.965C390.733 227.452 391.367 227.371 391.413 227.129C391.448 226.887 391.171 224.167 392.692 219.569C394.213 214.959 395.688 209.565 391.056 204.436C390.86 198.915 383.577 192.669 376.974 193.314C370.371 193.948 367.41 194.709 365.774 193.268C364.126 191.827 363.25 190.352 363.089 190.871C362.927 191.389 360.888 193.625 362.524 195.792C359.321 196.795 357.799 197.555 356.486 200.437C355.161 203.318 353.766 201.958 353.409 202.442C353.052 202.915 353.478 205.358 355.264 205.566C353.928 208.412 353.928 212.688 359.332 213.772C359.332 213.772 359.447 212.688 360.749 212.077L360.738 212.043Z" fill="#D87BFB"/>
<path d="M377.067 318.56C377.067 318.56 384.43 341.299 367.606 337.749C352.868 334.649 320.556 317.269 315.751 314.065C310.946 310.861 308.353 307.979 309.494 303.335C310.635 298.69 314.184 295.175 318.01 295.175C321.835 295.175 366.258 308.464 366.258 308.464L377.055 318.548L377.067 318.56Z" fill="url(#paint17_linear_2211_20693)"/>
<path d="M377.066 335.651C377.066 335.651 366.28 350.277 349.468 346.739C334.729 343.627 300.977 325.924 296.172 322.72C291.367 319.516 288.762 316.635 289.903 311.99C291.044 307.357 294.593 303.83 298.419 303.83C302.245 303.83 346.667 317.119 346.667 317.119L377.055 335.651H377.066Z" fill="url(#paint18_linear_2211_20693)"/>
<path d="M363.202 247.875C363.202 247.875 356.541 253.822 354.144 255.678C351.748 257.533 345.502 262.224 344.661 271.767C343.819 281.31 345.202 304.13 342.379 313.189C339.556 322.259 337.643 322.317 339.141 327.596C340.639 332.874 348.44 340.02 361.289 341.576C374.138 343.132 382.596 336.77 384.22 325.971C385.845 315.16 388.3 294.933 389.982 285.148C391.665 275.363 396.954 260.357 395.905 252.428C395.444 248.958 394.476 245.927 392.886 244.06C390.293 241.018 385.811 240.199 385.361 240.199C384.555 240.199 384.704 242.17 381.351 244.014C375.301 247.356 367.166 245.858 363.202 247.852V247.875Z" fill="#E4C9FF"/>
<path d="M343.484 307.403C352.496 300.822 358.891 287.533 360.309 277.241L344.337 281.137C344.268 289.481 344.383 299.935 343.484 307.403Z" fill="#E4C9FF"/>
<path fill-rule="evenodd" clip-rule="evenodd" d="M304.307 276.457C304.307 276.457 303.455 273.795 303.097 272.147C302.74 270.499 302.452 270.003 301.991 269.358C301.53 268.712 300.263 267.917 299.928 267.422C299.594 266.937 298.972 265.773 298.557 265.9C298.142 266.027 297.681 267.779 298.557 269.173C299.433 270.568 299.848 270.879 299.848 271.571C299.848 272.262 298.834 273.795 299.571 275.524C300.286 277.253 303.443 277.898 304.319 276.457H304.307Z" fill="url(#paint19_linear_2211_20693)"/>
<path fill-rule="evenodd" clip-rule="evenodd" d="M337.876 278.716L334.396 284.433C334.396 284.433 327.378 282.623 323.46 281.955C319.542 281.286 308.342 278.29 306.118 276.999C303.894 275.708 300.079 269.818 299.664 269.507C299.25 269.196 298.201 268.412 297.705 268.689C294.974 270.187 292.393 276.169 292.082 277.517C292.716 278.774 295.182 280.168 296.519 281.148C297.855 282.116 301.013 282.738 303.075 282.738C305.138 282.738 313.297 287.544 320.061 291.106C326.825 294.667 334.673 297.813 337.553 298.793C340.446 299.773 341.84 299.254 343.177 297.606C344.513 295.958 348.074 288.778 349.48 284.386L337.888 278.728L337.876 278.716Z" fill="#EBDFFF"/>
<path fill-rule="evenodd" clip-rule="evenodd" d="M305.979 279.984C305.979 279.984 305.392 281.794 305.449 283.442L307.293 284.445C307.293 284.445 307.535 282.289 308.307 280.78L305.979 279.984Z" fill="#B688FF"/>
<path fill-rule="evenodd" clip-rule="evenodd" d="M310.912 279.627C310.74 280.653 309.357 281.252 307.824 280.987C306.303 280.722 305.208 279.685 305.381 278.671C305.554 277.645 306.937 277.046 308.469 277.299C309.991 277.564 311.085 278.602 310.912 279.627Z" fill="#8436FF"/>
<path fill-rule="evenodd" clip-rule="evenodd" d="M310.429 279.362C310.291 280.204 309.15 280.699 307.894 280.48C306.638 280.261 305.739 279.409 305.877 278.567C306.027 277.726 307.156 277.23 308.412 277.449C309.669 277.668 310.567 278.521 310.429 279.362Z" fill="#DAC3FF"/>
<path fill-rule="evenodd" clip-rule="evenodd" d="M298.429 268.747C298.429 268.747 295.767 267.375 295.122 267.029C294.465 266.684 293.704 266.396 292.99 266.396C292.275 266.396 290.19 266.349 289.579 266.246C288.98 266.142 287.758 265.762 287.585 265.958C287.413 266.154 287.712 267.871 289.533 268.286C291.354 268.701 292.264 268.482 292.99 268.758C293.716 269.046 296.47 270.821 296.47 270.821L298.44 268.758L298.429 268.747Z" fill="#EBDFFF"/>
<path fill-rule="evenodd" clip-rule="evenodd" d="M296.83 270.775C296.83 270.775 293.73 269.427 292.97 269.093C292.209 268.758 291.333 268.482 290.515 268.539C289.697 268.585 287.346 268.689 286.667 268.62C285.975 268.551 284.569 268.205 284.396 268.436C284.212 268.666 284.673 270.579 286.759 270.914C288.844 271.236 289.858 270.914 290.688 271.19C291.518 271.455 294.756 273.242 294.756 273.242L296.819 270.775H296.83Z" fill="#EBDFFF"/>
<path fill-rule="evenodd" clip-rule="evenodd" d="M295.239 273.277C295.239 273.277 292.254 272.32 291.517 272.078C290.779 271.836 289.949 271.663 289.2 271.79C288.451 271.917 286.285 272.216 285.651 272.216C285.006 272.216 283.681 272.032 283.531 272.251C283.393 272.481 283.98 274.21 285.939 274.325C287.898 274.441 288.809 274.049 289.604 274.222C290.399 274.395 293.556 275.754 293.556 275.754L295.239 273.288V273.277Z" fill="#EBDFFF"/>
<path fill-rule="evenodd" clip-rule="evenodd" d="M295.469 275.904C295.469 275.904 292.588 275.235 291.874 275.063C291.159 274.89 290.364 274.797 289.673 274.97C288.981 275.143 286.976 275.604 286.365 275.65C285.766 275.696 284.499 275.627 284.383 275.846C284.268 276.077 284.959 277.644 286.815 277.61C288.67 277.563 289.488 277.126 290.249 277.229C291.009 277.333 294.086 278.359 294.086 278.359L295.48 275.904H295.469Z" fill="#EBDFFF"/>
<path d="M349.858 259.561C349.858 259.561 344.592 266.361 342.069 270.142C339.545 273.922 333.61 282.935 333.61 282.935C333.61 282.935 331.813 282.093 331.087 282.451C330.372 282.808 329.888 283.35 329.888 283.35C329.888 283.35 324.853 281.748 324.253 281.771C323.643 281.794 322.663 281.702 322.122 283.35C321.303 285.816 320.393 291.256 320.474 291.74C320.554 292.224 321.142 292.904 322.122 293.261C323.113 293.619 328.31 295.543 328.31 295.543C328.31 295.543 327.952 296.546 329.185 297.307C330.43 298.068 333.829 299.266 335.673 300.223C337.517 301.179 340.19 302.309 341.55 300.707C342.91 299.105 345.433 296.788 347.392 294.183C349.351 291.579 358.755 286.208 360.437 276.607C362.119 267.007 355.286 253.637 349.858 259.561Z" fill="url(#paint20_linear_2211_20693)"/>
<path opacity="0.7" d="M289.338 97.6191L285.247 95.291L285.282 54.8141L289.338 47.7722V4.26412L282.447 0.333984L215.358 39.0706L208.974 50.1349L155.528 80.9881L149.098 77.3231L82.0205 116.06L75.1641 127.942V171.45L79.2664 173.778L79.2318 214.267L75.1641 221.297L75.1756 264.874L82.0781 268.805L149.156 230.068L155.551 219.015L208.985 188.162L215.415 191.816L282.493 153.079L289.349 141.196L289.338 97.6191Z" fill="url(#paint21_linear_2211_20693)"/>
<g style="mix-blend-mode:overlay">
<path d="M289.338 97.6191L285.247 95.291L285.282 54.8141L289.338 47.7722V4.26412L282.447 0.333984L215.358 39.0706L208.974 50.1349L155.528 80.9881L149.098 77.3231L82.0205 116.06L75.1641 127.942V171.45L79.2664 173.778L79.2318 214.267L75.1641 221.297L75.1756 264.874L82.0781 268.805L149.156 230.068L155.551 219.015L208.985 188.162L215.415 191.816L282.493 153.079L289.349 141.196L289.338 97.6191Z" stroke="white" stroke-width="0.5" stroke-miterlimit="10"/>
</g>
<path d="M160.713 96.1436L106.715 127.32L106.726 130.443L160.713 99.2669V96.1436Z" fill="url(#paint22_linear_2211_20693)"/>
<path d="M182.863 138.626L182.886 145.634C191.264 141.058 198.005 145.035 198.028 154.704C198.028 158.554 196.979 162.714 195.193 166.668L200.079 168.062C202.626 162.495 204.124 156.617 204.112 151.201C204.078 137.658 194.606 132.103 182.863 138.626Z" fill="#E0C0FF"/>
<path d="M182.586 181.477C174.013 186.422 167.053 182.457 167.03 172.614C167.007 162.933 173.702 151.2 182.068 146.118L182.045 139.11C170.314 146.141 160.899 162.587 160.934 176.141C160.968 189.845 170.659 195.377 182.598 188.485C189.512 184.497 195.642 177.213 199.583 169.122L194.697 167.728C191.862 173.479 187.495 178.642 182.575 181.489L182.586 181.477Z" fill="#36D9FF"/>
<path d="M106.828 167.993L106.84 171.128L209.421 111.888L209.409 108.753L106.828 167.993Z" fill="url(#paint23_linear_2211_20693)"/>
<path d="M209.378 98.5869L106.809 157.827L106.82 160.95L209.39 101.722L209.378 98.5869Z" fill="url(#paint24_linear_2211_20693)"/>
<path d="M209.32 78.2568L106.75 137.485L106.762 140.62L209.331 81.3917L209.32 78.2568Z" fill="url(#paint25_linear_2211_20693)"/>
<path d="M142.415 178.965L147.958 172.834C144.501 166.645 137.264 165.135 128.875 169.802L128.898 176.81C134.833 173.56 139.926 174.62 142.415 178.965Z" fill="#E0C0FF"/>
<path d="M142.783 179.622C143.59 181.293 144.039 183.413 144.039 185.891C144.062 195.734 137.148 207.709 128.586 212.653C120.024 217.598 113.064 213.633 113.03 203.79C113.007 194.109 119.702 182.376 128.068 177.294L128.045 170.286C116.314 177.317 106.899 193.763 106.934 207.317C106.968 221.021 116.671 226.553 128.598 219.661C140.524 212.78 150.158 196.08 150.123 182.376C150.123 178.849 149.455 175.876 148.303 173.513L142.771 179.633L142.783 179.622Z" fill="url(#paint26_linear_2211_20693)"/>
<path d="M248.509 114.319L253.326 107.254C249.431 103.923 243.508 103.739 236.848 107.439L236.871 114.446C241.561 111.887 245.732 112.003 248.509 114.308V114.319Z" fill="#E0C0FF"/>
<path d="M234.946 97.1469L234.912 83.8467L229.691 86.8663L229.726 100.167L234.946 97.1469Z" fill="url(#paint27_linear_2211_20693)"/>
<path d="M253.844 107.727L249.016 114.792C250.883 116.659 252 119.621 252.012 123.528C252.046 133.37 245.121 145.345 236.559 150.29C227.997 155.234 221.037 151.269 221.014 141.427C220.991 131.745 227.686 120.013 236.052 114.93L236.029 107.922C224.298 114.953 214.883 131.4 214.918 144.953C214.953 158.657 224.655 164.189 236.582 157.297C248.509 150.416 258.142 133.716 258.108 120.013C258.096 114.492 256.506 110.32 253.844 107.727Z" fill="#36D9FF"/>
<path d="M209.355 88.4219L106.773 147.662L106.785 150.785L209.355 91.5568V88.4219Z" fill="url(#paint28_linear_2211_20693)"/>
<path d="M223.422 103.808L223.353 78.2451L218.133 81.2532L218.202 106.816L223.422 103.808Z" fill="url(#paint29_linear_2211_20693)"/>
<path d="M246.48 90.4854L246.377 56.8545L241.168 59.8626L241.26 93.505L246.48 90.4854Z" fill="url(#paint30_linear_2211_20693)"/>
<path d="M258.007 83.835L257.88 41.5947L252.672 44.6144L252.787 86.8431L258.007 83.835Z" fill="url(#paint31_linear_2211_20693)"/>
<g style="mix-blend-mode:overlay" opacity="0.2">
<path d="M263.02 164.328L282.495 153.079L289.351 141.196L289.34 97.6191L285.249 95.291L285.284 54.8141L289.34 47.7722V4.26412L282.449 0.333984L215.36 39.0706L208.976 50.1349L155.53 80.9881L149.1 77.3231L119.289 94.5534L263.02 164.328Z" fill="white"/>
</g>
<path d="M85 312.503V338.884L97.2724 346.019V319.649L85 312.503Z" fill="#36D9FF"/>
<path d="M97.2734 319.649V346.019L109.65 338.884L109.638 312.503L97.2734 319.649Z" fill="url(#paint32_linear_2211_20693)"/>
<g style="mix-blend-mode:overlay" opacity="0.7">
<path d="M97.2724 319.649L109.637 312.503L109.649 312.929L97.2724 320.064L85 312.929V312.503L97.2724 319.649Z" fill="white"/>
</g>
<path d="M85 312.503L97.2724 319.649L109.637 312.503L97.3646 305.369L85 312.503Z" fill="#D4A7FF"/>
<path d="M106.156 282.146V351.194L118.429 358.328V289.28L106.156 282.146Z" fill="#36D9FF"/>
<path d="M118.43 289.279V358.328L130.806 351.193V282.134L118.43 289.279Z" fill="url(#paint33_linear_2211_20693)"/>
<g style="mix-blend-mode:overlay" opacity="0.7">
<path d="M118.429 289.279L130.805 282.134V282.56L118.429 289.706L106.156 282.572V282.145L118.429 289.279Z" fill="white"/>
</g>
<path d="M106.156 282.146L118.429 289.28L130.805 282.134L118.521 275L106.156 282.146Z" fill="#D4A7FF"/>
<path d="M127.312 310.348V363.514L139.596 370.648V317.493L127.312 310.348Z" fill="#36D9FF"/>
<path d="M139.598 317.493V370.648L151.962 363.502V310.348L139.598 317.493Z" fill="url(#paint34_linear_2211_20693)"/>
<g style="mix-blend-mode:overlay" opacity="0.7">
<path d="M139.596 317.493L151.961 310.348V310.774L139.596 317.908L127.312 310.774V310.348L139.596 317.493Z" fill="white"/>
</g>
<path d="M127.312 310.348L139.596 317.494L151.961 310.348L139.677 303.214L127.312 310.348Z" fill="#D4A7FF"/>
<path d="M148.473 357.21V375.823L160.757 382.958V364.344L148.473 357.21Z" fill="#36D9FF"/>
<path d="M160.758 364.344V382.957L173.122 375.823V357.198L160.758 364.344Z" fill="url(#paint35_linear_2211_20693)"/>
<g style="mix-blend-mode:overlay" opacity="0.7">
<path d="M160.757 364.344L173.121 357.198V357.625L160.757 364.759L148.473 357.625V357.21L160.757 364.344Z" fill="white"/>
</g>
<path d="M148.473 357.21L160.757 364.344L173.121 357.199L160.837 350.064L148.473 357.21Z" fill="#D4A7FF"/>
<path opacity="0.7" d="M394.561 74.4767L381.574 66.9737L380.802 62.1331C380.548 60.5196 379.189 58.5948 377.76 57.7765L340.09 36.0283C338.672 35.21 337.301 35.5673 337.036 36.8696L336.241 40.7998L333.913 39.4513C332.484 38.6215 331.332 39.2784 331.32 40.915V134.708C331.32 136.333 332.461 138.327 333.89 139.157L394.526 174.171C395.944 174.989 397.107 174.332 397.107 172.695V78.9024C397.107 77.2658 395.967 75.2835 394.549 74.4652L394.561 74.4767Z" fill="url(#paint36_linear_2211_20693)"/>
<g style="mix-blend-mode:overlay">
<path d="M394.561 74.4767L381.574 66.9737L380.802 62.1331C380.548 60.5196 379.189 58.5948 377.76 57.7765L340.09 36.0283C338.672 35.21 337.301 35.5673 337.036 36.8696L336.241 40.7998L333.913 39.4513C332.484 38.6215 331.332 39.2784 331.32 40.915V134.708C331.32 136.333 332.461 138.327 333.89 139.157L394.526 174.171C395.944 174.989 397.107 174.332 397.107 172.695V78.9024C397.107 77.2658 395.967 75.2835 394.549 74.4652L394.561 74.4767Z" stroke="white" stroke-width="0.5" stroke-miterlimit="10"/>
</g>
<g style="mix-blend-mode:overlay" opacity="0.2">
<path d="M394.561 74.4767L381.574 66.9737L380.802 62.1331C380.548 60.5196 379.189 58.5948 377.76 57.7765L340.09 36.0283C338.672 35.21 337.301 35.5673 337.036 36.8696L336.241 40.7998L333.913 39.4513C332.484 38.6215 331.332 39.2784 331.32 40.915V72.1947L397.119 149.518V78.9024C397.119 77.2658 395.978 75.2835 394.561 74.4652V74.4767Z" fill="white"/>
</g>
<g style="mix-blend-mode:multiply">
<path d="M340.101 53.3851C341.519 54.2034 342.671 56.1972 342.66 57.8223L342.602 77.9801C341.887 76.6893 340.862 75.5598 339.733 74.9028C338.603 74.2574 337.589 74.2113 336.863 74.6608L336.921 54.5146C336.921 52.878 338.085 52.221 339.502 53.0393L340.101 53.3851Z" fill="#D4A7FF"/>
</g>
<g style="mix-blend-mode:overlay" opacity="0.2">
<path d="M339.711 84.0306C340.84 84.6875 341.866 84.7336 342.592 84.2726L342.454 134.431C342.454 136.067 341.29 136.724 339.872 135.906L339.273 135.56C337.856 134.742 336.703 132.748 336.715 131.111L336.853 80.9648C337.579 82.2442 338.593 83.3736 339.711 84.0306Z" fill="white"/>
</g>
<path d="M339.733 74.903C340.863 75.5599 341.888 76.6894 342.603 77.9803C343.282 79.1904 343.697 80.5389 343.686 81.7606C343.686 82.9822 343.259 83.8466 342.579 84.2731C341.854 84.7226 340.828 84.6765 339.699 84.0311C338.569 83.3856 337.555 82.2562 336.841 80.9653C336.161 79.7436 335.746 78.3952 335.746 77.1735C335.746 75.9518 336.172 75.0874 336.852 74.661C337.578 74.2115 338.604 74.2576 339.722 74.903H339.733Z" fill="url(#paint37_linear_2211_20693)"/>
<path d="M355.21 117.604C356.339 118.261 357.354 119.391 358.08 120.681C358.759 121.892 359.174 123.24 359.174 124.462C359.174 125.683 358.748 126.548 358.068 126.974C357.342 127.424 356.328 127.378 355.187 126.732C354.058 126.075 353.032 124.946 352.318 123.655C351.638 122.445 351.223 121.096 351.235 119.875C351.235 118.653 351.661 117.789 352.341 117.362C353.067 116.913 354.092 116.959 355.222 117.604H355.21Z" fill="url(#paint38_linear_2211_20693)"/>
<g style="mix-blend-mode:multiply">
<path d="M355.658 62.3634C357.087 63.1932 358.228 65.1756 358.228 66.8122L358.078 120.681C357.364 119.391 356.338 118.261 355.209 117.604C354.08 116.947 353.054 116.901 352.328 117.362L352.478 63.4929C352.478 61.8563 353.63 61.1994 355.071 62.0292L355.658 62.3634Z" fill="#D4A7FF"/>
</g>
<g style="mix-blend-mode:overlay" opacity="0.2">
<path d="M355.173 126.733C356.303 127.389 357.328 127.436 358.054 126.975L358.008 143.421C358.008 145.058 356.844 145.715 355.415 144.885L354.828 144.551C353.399 143.721 352.246 141.738 352.258 140.102L352.304 123.655C353.018 124.946 354.044 126.076 355.173 126.733Z" fill="white"/>
</g>
<path d="M370.87 90.3698C371.999 91.0152 373.013 92.1447 373.728 93.424C374.408 94.6342 374.823 95.9941 374.823 97.2158C374.823 98.4375 374.396 99.3134 373.705 99.7399C372.979 100.189 371.965 100.143 370.836 99.4863C369.706 98.8409 368.681 97.6999 367.966 96.4206C367.286 95.2104 366.872 93.862 366.883 92.6403C366.883 91.4186 367.309 90.5542 367.989 90.1278C368.715 89.6783 369.729 89.7244 370.87 90.3698Z" fill="url(#paint39_linear_2211_20693)"/>
<g style="mix-blend-mode:multiply">
<path d="M371.215 71.353C372.644 72.1713 373.785 74.1652 373.785 75.7903L373.739 93.4355C373.024 92.1562 372.01 91.0267 370.881 90.3813C369.752 89.7244 368.726 89.6783 368 90.1393L368.046 72.494C368.046 70.8575 369.21 70.2005 370.627 71.0188L371.227 71.3646L371.215 71.353Z" fill="#D4A7FF"/>
</g>
<g style="mix-blend-mode:overlay" opacity="0.2">
<path d="M370.847 99.4974C371.977 100.154 372.991 100.2 373.717 99.7509L373.567 152.399C373.567 154.035 372.415 154.692 370.986 153.874L370.386 153.528C368.969 152.71 367.817 150.727 367.828 149.091L367.978 96.4316C368.692 97.7225 369.718 98.852 370.847 99.4974Z" fill="white"/>
</g>
<g style="mix-blend-mode:multiply">
<path d="M386.784 80.3429C388.202 81.1612 389.354 83.1551 389.342 84.7801L389.239 122.802C388.524 121.511 387.499 120.382 386.369 119.725C385.24 119.079 384.226 119.033 383.5 119.471L383.604 81.4608C383.604 79.8242 384.768 79.1673 386.185 79.9856L386.784 80.3314V80.3429Z" fill="#D4A7FF"/>
</g>
<g style="mix-blend-mode:overlay" opacity="0.2">
<path d="M386.345 128.853C387.474 129.51 388.499 129.556 389.225 129.095L389.133 161.389C389.133 163.026 387.969 163.683 386.552 162.864L385.953 162.518C384.535 161.7 383.383 159.706 383.395 158.081L383.487 125.799C384.201 127.078 385.215 128.208 386.345 128.853Z" fill="white"/>
</g>
<path d="M386.37 119.725C387.5 120.382 388.514 121.512 389.24 122.802C389.92 124.013 390.334 125.361 390.334 126.571C390.334 127.793 389.908 128.657 389.228 129.084C388.502 129.533 387.477 129.499 386.347 128.842C385.218 128.185 384.204 127.067 383.489 125.787C382.81 124.577 382.383 123.217 382.395 121.984C382.395 120.762 382.821 119.898 383.513 119.472C384.239 119.022 385.253 119.068 386.382 119.725H386.37Z" fill="url(#paint40_linear_2211_20693)"/>
<path d="M19.2425 233.941C19.3577 233.78 19.4384 233.687 19.4384 233.687C19.4499 233.664 19.7495 233.272 20.0837 232.869C20.3833 232.443 20.6714 232.028 20.6829 232.005C20.9018 231.694 21.1553 231.428 21.4204 231.244C21.478 231.209 21.5356 231.163 21.5932 231.14C21.8006 231.025 21.9965 230.967 22.1463 230.99C22.1694 230.99 22.7225 231.094 23.3217 231.152C23.921 231.209 24.4971 231.233 24.5317 231.233C24.6124 231.233 24.7161 231.198 24.8198 231.14C25.2001 230.921 25.6956 230.345 26.0067 229.654C26.0067 229.642 26.145 229.354 26.3639 228.904C26.5829 228.455 26.8133 227.833 27.0668 227.222C27.3204 226.611 27.5163 226 27.6776 225.527C27.7582 225.297 27.8159 225.101 27.862 224.974C27.9081 224.836 27.9196 224.778 27.9196 224.767C28.1731 223.868 28.0809 223.084 27.7237 223.038C27.6891 223.038 27.1245 222.946 26.5252 222.9C25.9145 222.854 25.3383 222.854 25.3038 222.854C25.0963 222.854 24.9235 222.704 24.8313 222.485C24.7161 222.266 24.6585 221.978 24.7045 221.655C24.7045 221.655 24.7045 221.54 24.7391 221.367C24.7737 221.194 24.7737 220.963 24.7852 220.744C24.7967 220.307 24.8083 219.892 24.8083 219.869C24.8083 219.846 24.7967 219.454 24.7737 219.027C24.7622 218.82 24.7622 218.612 24.7276 218.462C24.7045 218.313 24.693 218.22 24.693 218.209C24.6469 217.921 24.7045 217.575 24.8198 217.218C24.912 216.883 25.0848 216.561 25.2922 216.319C25.3268 216.284 25.903 215.616 26.5137 214.867C27.1129 214.129 27.6776 213.391 27.7122 213.345C28.0694 212.884 28.1616 211.997 27.8965 211.397C27.8965 211.397 27.885 211.34 27.8389 211.259C27.7928 211.178 27.7237 211.052 27.6545 210.913C27.4932 210.637 27.2973 210.233 27.0438 209.922C26.7903 209.588 26.5598 209.254 26.3409 209.058C26.1219 208.839 25.9952 208.712 25.9836 208.701C25.661 208.378 25.1655 208.378 24.7852 208.608C24.6815 208.666 24.5778 208.758 24.4971 208.85C24.4626 208.885 23.8864 209.565 23.2987 210.314C22.6995 211.052 22.1579 211.789 22.1233 211.824C21.962 212.031 21.7661 212.216 21.5471 212.331C21.501 212.366 21.4434 212.389 21.3973 212.412C21.1323 212.527 20.8903 212.538 20.6598 212.492C20.6483 212.492 20.3602 212.412 20.0606 212.331C19.738 212.296 19.4384 212.262 19.4153 212.262C19.4153 212.262 19.3346 212.25 19.2194 212.239C19.0926 212.239 18.9198 212.239 18.7585 212.239C18.5856 212.239 18.4128 212.239 18.2975 212.239C18.1708 212.25 18.0786 212.273 18.0786 212.273C17.8366 212.308 17.6177 212.227 17.4563 212.066C17.3065 211.893 17.2028 211.697 17.2143 211.409C17.2143 211.363 17.2489 210.591 17.2604 209.795C17.2604 209.012 17.2259 208.263 17.2259 208.216C17.2259 207.986 17.0761 207.79 16.8456 207.732C16.6036 207.663 16.2925 207.698 15.9352 207.848C15.9352 207.848 15.8776 207.871 15.7739 207.917C15.6702 207.963 15.5204 208.021 15.336 208.113C14.9788 208.286 14.5063 208.539 14.0339 208.793C13.5499 209.081 13.089 209.392 12.7317 209.623C12.5589 209.738 12.3976 209.853 12.2938 209.922C12.1901 210.003 12.1325 210.037 12.1325 210.037C11.7868 210.291 11.4642 210.625 11.2337 210.971C11.0032 211.294 10.8649 211.651 10.8534 211.893C10.8534 211.939 10.8304 212.723 10.8304 213.507C10.8304 214.302 10.8765 215.028 10.8765 215.074C10.888 215.339 10.7843 215.662 10.6345 216.008C10.4847 216.342 10.2657 216.688 10.0122 216.941C10.0122 216.941 9.92002 217.033 9.79327 217.172C9.66651 217.31 9.50518 217.506 9.33233 217.702C9.15948 217.898 8.99815 218.082 8.87139 218.232C8.75616 218.382 8.6755 218.486 8.6755 218.497C8.66397 218.52 8.36436 218.9 8.03019 219.315C7.73058 219.742 7.44249 220.157 7.43097 220.18C7.21202 220.491 6.95851 220.768 6.69347 220.952C6.63585 220.987 6.58976 221.021 6.53214 221.056C6.32472 221.171 6.1173 221.229 5.95597 221.205C5.9214 221.205 5.3798 221.09 4.78059 221.044C4.18137 220.975 3.59368 220.975 3.57063 220.975C3.48997 220.975 3.38626 221.01 3.28255 221.067C2.9138 221.286 2.41829 221.851 2.09564 222.542C2.09564 222.554 1.95735 222.842 1.73841 223.303C1.51947 223.753 1.289 224.363 1.03548 224.974C0.781968 225.585 0.58607 226.207 0.424743 226.668C0.344079 226.899 0.286462 227.095 0.240368 227.233C0.194275 227.36 0.182751 227.441 0.182751 227.452C-0.0707633 228.34 0.0214239 229.123 0.378649 229.181C0.413219 229.181 0.977866 229.273 1.57708 229.319C2.18782 229.354 2.76399 229.365 2.79856 229.365C3.01751 229.365 3.17884 229.504 3.28255 229.723C3.38626 229.942 3.44387 230.218 3.39778 230.564C3.39778 230.564 3.39778 230.679 3.36321 230.852C3.34016 231.025 3.32864 231.244 3.31712 231.463C3.30559 231.913 3.29407 232.316 3.29407 232.339C3.29407 232.362 3.30559 232.765 3.32864 233.18C3.34016 233.388 3.35169 233.607 3.37473 233.745C3.39778 233.895 3.4093 233.987 3.4093 233.999C3.4554 234.275 3.39778 234.632 3.29407 234.967C3.19036 235.301 3.02903 235.635 2.82161 235.889C2.78704 235.923 2.21087 236.592 1.60013 237.341C1.00091 238.079 0.436266 238.816 0.401696 238.862C0.0444707 239.312 -0.0477165 240.199 0.217322 240.81C0.217322 240.81 0.228845 240.868 0.274939 240.948C0.321032 241.029 0.390173 241.156 0.459313 241.294C0.620641 241.571 0.816538 241.963 1.07005 242.285C1.32357 242.608 1.55404 242.954 1.77298 243.161C1.99193 243.369 2.11868 243.495 2.13021 243.507C2.45286 243.83 2.94837 243.83 3.31712 243.611C3.42083 243.542 3.52454 243.472 3.6052 243.369C3.63977 243.334 4.22746 242.643 4.81516 241.893C5.41437 241.156 5.95597 240.407 5.99054 240.372C6.15187 240.165 6.34777 239.992 6.54367 239.876C6.60128 239.842 6.6589 239.819 6.71652 239.784C6.98156 239.669 7.23507 239.646 7.45402 239.692C7.46554 239.692 7.75362 239.773 8.05323 239.865C8.37589 239.9 8.6755 239.946 8.69854 239.946C8.69854 239.946 8.77921 239.946 8.90596 239.969C9.03272 239.969 9.19405 239.969 9.3669 239.969C9.53975 239.969 9.70108 239.969 9.82784 239.969C9.95459 239.969 10.0468 239.946 10.0468 239.934C10.3003 239.9 10.5192 239.98 10.669 240.142C10.8188 240.303 10.9226 240.51 10.911 240.799C10.911 240.845 10.8765 241.617 10.8649 242.401C10.8649 243.196 10.8995 243.945 10.8995 243.991C10.8995 244.222 11.0493 244.406 11.2798 244.475C11.5218 244.533 11.8329 244.498 12.1901 244.36C12.1901 244.36 12.2478 244.337 12.3515 244.291C12.4552 244.245 12.605 244.175 12.7894 244.083C13.1466 243.91 13.619 243.657 14.0915 243.403C14.564 243.115 15.0364 242.815 15.3936 242.585C15.5665 242.47 15.7278 242.366 15.8315 242.285C15.9352 242.205 15.9929 242.17 15.9929 242.159C16.3386 241.893 16.6612 241.559 16.8917 241.225C17.1221 240.891 17.2604 240.545 17.272 240.303C17.272 240.257 17.295 239.473 17.295 238.678C17.295 237.894 17.2489 237.168 17.2489 237.122C17.2374 236.857 17.3296 236.534 17.4909 236.188C17.6522 235.843 17.8712 235.508 18.1132 235.255C18.1132 235.255 18.2053 235.174 18.3321 235.024C18.4589 234.875 18.6202 234.69 18.793 234.494C18.9659 234.298 19.1272 234.114 19.254 233.964L19.2425 233.941ZM14.0454 233.065C10.6921 235.001 7.96105 233.445 7.94952 229.584C7.94952 225.735 10.6575 221.033 14.0108 219.096C17.3641 217.16 20.0952 218.716 20.1067 222.565C20.1067 226.426 17.3987 231.129 14.0454 233.065Z" fill="url(#paint41_linear_2211_20693)"/>
<path d="M46.1147 235.128C46.1147 235.128 45.5155 235.047 44.9163 235.001C44.3055 234.955 43.7293 234.955 43.6948 234.955C43.4874 234.955 43.3145 234.817 43.2223 234.598C43.1186 234.379 43.0495 234.091 43.0956 233.757C43.0956 233.757 43.0956 233.641 43.1301 233.468C43.1647 233.296 43.1647 233.077 43.1762 232.858C43.1877 232.408 43.1993 232.005 43.1993 231.982C43.1993 231.959 43.1877 231.555 43.1647 231.14C43.1532 230.933 43.1532 230.714 43.1186 230.576C43.0956 230.426 43.084 230.334 43.084 230.322C43.0379 230.045 43.0956 229.7 43.2108 229.342C43.303 229.02 43.4758 228.674 43.6833 228.443C43.6833 228.443 44.294 227.74 44.9047 226.98C45.504 226.242 46.0686 225.504 46.1032 225.47C46.4604 225.02 46.5526 224.121 46.2875 223.522C46.2875 223.522 46.276 223.476 46.2299 223.395C46.1838 223.315 46.1262 223.188 46.0456 223.05C45.8842 222.773 45.6883 222.37 45.4348 222.058C45.1813 221.736 44.9508 221.39 44.7319 221.182C44.5129 220.975 44.3862 220.848 44.3747 220.837C44.052 220.514 43.5565 220.514 43.1762 220.733C43.0725 220.791 42.9688 220.871 42.8881 220.975C42.8536 221.01 42.2774 221.701 41.6897 222.45C41.0905 223.188 40.5489 223.937 40.5143 223.972C40.353 224.179 40.1571 224.352 39.9612 224.467C39.9036 224.502 39.846 224.525 39.7883 224.548C39.5233 224.675 39.2813 224.686 39.0508 224.64C39.0393 224.64 38.7512 224.559 38.4516 224.479C38.129 224.444 37.8294 224.398 37.8063 224.398C37.8063 224.398 37.7257 224.398 37.6104 224.386C37.4837 224.386 37.3108 224.386 37.1495 224.386C36.9766 224.386 36.8153 224.386 36.6886 224.386C36.5618 224.386 36.4696 224.421 36.4696 224.421C36.2276 224.444 36.0087 224.375 35.8473 224.214C35.6975 224.041 35.5938 223.845 35.6054 223.557C35.6054 223.522 35.6399 222.75 35.6514 221.955C35.6514 221.159 35.6169 220.41 35.6169 220.376C35.6169 220.145 35.4671 219.949 35.2366 219.892C34.9946 219.822 34.6835 219.857 34.3263 220.007C34.3263 220.007 34.2686 220.03 34.1649 220.076C34.0612 220.111 33.9114 220.18 33.727 220.272C33.3698 220.456 32.8974 220.698 32.4249 220.952C31.9524 221.24 31.48 221.551 31.1227 221.782C30.9499 221.897 30.7886 222.012 30.6964 222.081C30.5927 222.151 30.5351 222.197 30.5351 222.208C30.1894 222.462 29.8667 222.796 29.6362 223.142C29.4058 223.464 29.2675 223.822 29.256 224.064C29.256 224.11 29.2329 224.882 29.2329 225.677C29.2329 226.473 29.279 227.199 29.279 227.233C29.2905 227.498 29.1868 227.833 29.037 228.167C28.8872 228.501 28.6683 228.835 28.4148 229.1C28.4148 229.1 28.3226 229.181 28.1958 229.331C28.069 229.469 27.9077 229.665 27.7349 229.861C27.562 230.057 27.3892 230.241 27.2739 230.391C27.1587 230.541 27.078 230.633 27.078 230.645C27.0665 230.668 26.7669 231.06 26.4327 231.463C26.1331 231.901 25.845 232.304 25.8335 232.327C25.6146 232.639 25.3611 232.915 25.096 233.088C25.0384 233.134 24.9808 233.169 24.9232 233.192C24.7157 233.307 24.5198 233.365 24.37 233.342C24.347 233.342 23.7939 233.226 23.1947 233.18C22.5954 233.123 22.0077 233.111 21.9847 233.111C21.904 233.111 21.8118 233.134 21.6966 233.203C21.3279 233.422 20.8208 233.999 20.5097 234.679C20.5097 234.69 20.3714 234.978 20.1525 235.439C19.9335 235.889 19.7031 236.511 19.4495 237.122C19.196 237.733 19.0001 238.344 18.8388 238.816C18.7581 239.047 18.7005 239.243 18.6544 239.381C18.6083 239.519 18.5968 239.588 18.5968 239.588C18.3433 240.487 18.4355 241.271 18.7927 241.317C18.8273 241.317 19.3919 241.409 19.9911 241.455C20.6019 241.502 21.2126 241.502 21.2126 241.502C21.4316 241.502 21.5929 241.64 21.6966 241.859C21.8003 242.089 21.8579 242.366 21.8118 242.7C21.8118 242.7 21.8118 242.815 21.7773 242.988C21.7542 243.15 21.7427 243.38 21.7312 243.599C21.7197 244.037 21.7081 244.452 21.7081 244.475C21.7081 244.498 21.7197 244.89 21.7427 245.316C21.7542 245.524 21.7657 245.731 21.7888 245.881C21.8118 246.031 21.8234 246.123 21.8234 246.123C21.8695 246.411 21.8118 246.757 21.7081 247.103C21.6044 247.437 21.4431 247.771 21.2357 248.013C21.2011 248.048 20.6249 248.728 20.0142 249.477C19.415 250.215 18.8503 250.941 18.8158 250.987C18.4585 251.448 18.3663 252.335 18.6314 252.935C18.6314 252.935 18.6429 252.992 18.689 253.073C18.7351 253.154 18.8042 253.28 18.8734 253.419C19.0347 253.684 19.2306 254.087 19.4841 254.41C19.7376 254.733 19.9681 255.078 20.187 255.286C20.406 255.482 20.5327 255.62 20.5443 255.632C20.8669 255.954 21.3624 255.943 21.7312 255.724C21.8349 255.666 21.9386 255.585 22.0193 255.482C22.0538 255.447 22.6415 254.767 23.2292 254.018C23.8284 253.28 24.37 252.531 24.4046 252.497C24.5659 252.278 24.7734 252.105 24.9923 251.978C25.0384 251.955 25.0845 251.932 25.1306 251.909C25.3956 251.794 25.6491 251.782 25.8681 251.828C25.8796 251.828 26.1677 251.909 26.4673 252.001C26.79 252.036 27.0896 252.082 27.1126 252.082C27.1126 252.082 27.1933 252.082 27.3085 252.093C27.4353 252.093 27.6081 252.093 27.7694 252.093C27.9308 252.093 28.1036 252.093 28.2304 252.093C28.3571 252.093 28.4493 252.059 28.4493 252.059C28.7028 252.024 28.9218 252.105 29.0716 252.266C29.2214 252.439 29.3251 252.647 29.3136 252.935C29.3136 252.969 29.279 253.741 29.2675 254.537C29.2675 255.332 29.3021 256.081 29.3021 256.116C29.3021 256.346 29.4519 256.542 29.6823 256.6C29.9243 256.669 30.2354 256.634 30.5927 256.484C30.5927 256.484 30.6503 256.461 30.754 256.415C30.8577 256.369 31.0075 256.312 31.1919 256.219C31.5491 256.035 32.0216 255.793 32.494 255.539C32.978 255.251 33.4505 254.952 33.7962 254.721C33.969 254.606 34.1304 254.491 34.2341 254.421C34.3378 254.341 34.3954 254.306 34.3954 254.306C34.7411 254.053 35.0638 253.718 35.2942 253.373C35.5247 253.05 35.663 252.704 35.6745 252.451C35.6745 252.404 35.7091 251.632 35.6975 250.837C35.6975 250.042 35.6514 249.316 35.6514 249.281C35.6399 249.016 35.7321 248.693 35.8934 248.348C36.0548 248.002 36.2737 247.668 36.5157 247.414C36.5157 247.414 36.6079 247.333 36.7346 247.184C36.8614 247.045 37.0227 246.849 37.1956 246.653C37.3684 246.457 37.5298 246.273 37.6565 246.123C37.7718 245.973 37.8524 245.881 37.8524 245.881C37.8639 245.858 38.1635 245.466 38.4862 245.063C38.7858 244.625 39.0739 244.222 39.0854 244.198C39.3044 243.887 39.5579 243.622 39.8229 243.426C39.869 243.392 39.9151 243.369 39.9612 243.334C40.1801 243.207 40.376 243.138 40.5489 243.173C40.5835 243.173 41.1251 243.276 41.7243 243.334C42.3235 243.392 42.8997 243.403 42.9342 243.403C43.0149 243.403 43.1186 243.369 43.2223 243.311C43.6026 243.092 44.0981 242.527 44.4092 241.836C44.4092 241.824 44.5475 241.536 44.7665 241.087C44.9854 240.637 45.2159 240.015 45.4694 239.404C45.7229 238.793 45.9188 238.171 46.0801 237.71C46.1608 237.479 46.2184 237.283 46.2645 237.145C46.3106 237.007 46.3221 236.938 46.3221 236.926C46.5756 236.039 46.4834 235.255 46.1262 235.197L46.1147 235.128ZM32.4479 245.178C29.0946 247.114 26.3636 245.558 26.3521 241.697C26.3521 237.848 29.0601 233.134 32.4134 231.198C35.7667 229.262 38.4977 230.818 38.5092 234.679C38.5092 238.528 35.8012 243.242 32.4479 245.178Z" fill="url(#paint42_linear_2211_20693)"/>
<path d="M54.7239 200.379C54.7239 200.379 54.1247 200.287 53.5254 200.24C52.9147 200.206 52.3385 200.194 52.304 200.194C52.0965 200.194 51.9237 200.045 51.8315 199.826C51.7163 199.618 51.6586 199.33 51.7047 198.996C51.7047 198.996 51.7047 198.892 51.7393 198.708C51.7739 198.535 51.7739 198.316 51.7854 198.097C51.7969 197.659 51.8084 197.244 51.8084 197.221C51.8084 197.198 51.7969 196.794 51.7739 196.38C51.7624 196.172 51.7624 195.953 51.7278 195.815C51.7047 195.665 51.6932 195.573 51.6932 195.561C51.6471 195.273 51.7047 194.927 51.82 194.582C51.9122 194.259 52.085 193.913 52.2924 193.671C52.327 193.636 52.9032 192.956 53.5139 192.219C54.1131 191.481 54.6778 190.744 54.7123 190.698C55.0696 190.248 55.1618 189.361 54.8967 188.75C54.8967 188.75 54.8852 188.692 54.8391 188.611C54.793 188.519 54.7354 188.404 54.6547 188.266C54.4934 187.989 54.2975 187.586 54.044 187.263C53.7905 186.94 53.56 186.606 53.3411 186.399C53.1221 186.191 52.9954 186.064 52.9838 186.053C52.6612 185.73 52.1657 185.73 51.7854 185.949C51.6817 186.018 51.578 186.087 51.4973 186.191C51.4627 186.226 50.8866 186.917 50.2989 187.655C49.7112 188.392 49.1581 189.13 49.1235 189.165C48.9622 189.384 48.7663 189.557 48.5589 189.672C48.5128 189.706 48.4551 189.729 48.3975 189.752C48.1325 189.868 47.8905 189.891 47.66 189.845C47.6485 189.845 47.3604 189.764 47.0608 189.672C46.7382 189.626 46.4385 189.591 46.4155 189.591C46.4155 189.591 46.3348 189.591 46.2196 189.568C46.0928 189.568 45.9315 189.568 45.7587 189.568C45.5858 189.568 45.413 189.591 45.2977 189.591C45.171 189.591 45.0788 189.614 45.0788 189.614C44.8253 189.649 44.6179 189.568 44.4565 189.407C44.2952 189.234 44.203 189.038 44.2145 188.761C44.2145 188.715 44.2491 187.943 44.2606 187.148C44.2606 186.352 44.2261 185.603 44.2261 185.569C44.2261 185.338 44.0762 185.142 43.8458 185.085C43.6038 185.027 43.2927 185.05 42.9354 185.2C42.9354 185.2 42.8778 185.223 42.7741 185.269C42.6704 185.315 42.5206 185.384 42.3362 185.477C41.979 185.661 41.5065 185.891 41.0341 186.157C40.5501 186.445 40.0776 186.744 39.7319 186.986C39.5591 187.102 39.3977 187.205 39.294 187.275C39.1903 187.355 39.1327 187.401 39.1327 187.401C38.787 187.655 38.4644 188.001 38.2339 188.323C38.0034 188.658 37.8651 189.015 37.8536 189.245C37.8536 189.291 37.8306 190.075 37.8306 190.859C37.8306 191.654 37.8767 192.38 37.8767 192.415C37.8882 192.68 37.7845 193.003 37.6462 193.348C37.4964 193.694 37.2774 194.028 37.0239 194.282C37.0239 194.282 36.9317 194.374 36.805 194.512C36.6782 194.651 36.5169 194.847 36.344 195.031C36.1712 195.227 36.0099 195.411 35.8831 195.561C35.7679 195.723 35.6872 195.815 35.6872 195.815C35.6757 195.838 35.3761 196.218 35.0419 196.633C34.7423 197.06 34.4542 197.474 34.4427 197.497C34.2237 197.809 33.9702 198.074 33.7052 198.258C33.6476 198.293 33.6015 198.327 33.5439 198.362C33.3364 198.477 33.129 198.546 32.9677 198.512C32.9331 198.512 32.3915 198.408 31.7923 198.362C31.1931 198.304 30.6054 198.293 30.5824 198.293C30.5017 198.293 30.398 198.327 30.2943 198.385C29.9255 198.604 29.43 199.169 29.1074 199.86C29.1074 199.872 28.9691 200.16 28.7501 200.621C28.5312 201.07 28.3007 201.693 28.0472 202.304C27.7937 202.914 27.5978 203.525 27.4365 203.998C27.3558 204.228 27.2982 204.413 27.2521 204.562C27.206 204.701 27.1945 204.758 27.1945 204.77C26.941 205.669 27.0331 206.453 27.3904 206.499C27.4249 206.499 27.9896 206.591 28.5888 206.637C29.1995 206.672 29.7757 206.672 29.8103 206.683C30.0292 206.683 30.1906 206.833 30.2943 207.04C30.398 207.259 30.4556 207.548 30.4095 207.882C30.4095 207.882 30.4095 207.997 30.3749 208.17C30.3519 208.343 30.3404 208.562 30.3288 208.792C30.3173 209.23 30.3058 209.645 30.3058 209.668C30.3058 209.691 30.3173 210.083 30.3404 210.51C30.3519 210.717 30.3634 210.924 30.3865 211.074C30.4095 211.224 30.421 211.316 30.421 211.316C30.4671 211.604 30.4095 211.962 30.3058 212.284C30.2021 212.619 30.0407 212.953 29.8333 213.195C29.7988 213.23 29.2226 213.91 28.6118 214.647C28.0126 215.385 27.448 216.122 27.4134 216.168C27.0562 216.618 26.964 217.505 27.229 218.116C27.229 218.116 27.2406 218.162 27.2867 218.255C27.3328 218.335 27.3904 218.45 27.471 218.589C27.6324 218.865 27.8283 219.269 28.0818 219.591C28.3353 219.914 28.5658 220.26 28.7847 220.456C29.0036 220.663 29.1304 220.79 29.1419 220.802C29.4646 221.124 29.9601 221.124 30.3288 220.905C30.4325 220.848 30.5363 220.756 30.6169 220.663C30.6515 220.629 31.2392 219.937 31.8269 219.188C32.4261 218.45 32.9677 217.713 33.0023 217.678C33.1636 217.459 33.3595 217.286 33.5784 217.171C33.6245 217.137 33.6821 217.114 33.7398 217.09C34.0048 216.975 34.2583 216.952 34.4773 217.01C34.4888 217.01 34.7769 217.102 35.0765 217.183C35.3991 217.217 35.6987 217.252 35.7218 217.252C35.7218 217.252 35.8024 217.252 35.9177 217.275C36.0444 217.275 36.2173 217.275 36.3786 217.275C36.5515 217.275 36.7243 217.275 36.8396 217.275C36.9663 217.263 37.0585 217.24 37.0585 217.24C37.312 217.194 37.531 217.286 37.6808 217.448C37.8306 217.621 37.9343 217.817 37.9228 218.105C37.9228 218.139 37.8882 218.911 37.8767 219.718C37.8767 220.514 37.9112 221.263 37.9112 221.297C37.9112 221.528 38.061 221.724 38.2915 221.781C38.5335 221.839 38.8446 221.816 39.1903 221.666C39.1903 221.666 39.2479 221.643 39.3517 221.597C39.4554 221.551 39.6052 221.482 39.778 221.401C40.1352 221.217 40.6077 220.975 41.0802 220.721C41.5642 220.421 42.0251 220.122 42.3823 219.891C42.5552 219.776 42.7165 219.661 42.8202 219.591C42.9239 219.511 42.9815 219.476 42.9815 219.476C43.3272 219.223 43.6499 218.877 43.8804 218.543C44.1108 218.208 44.2491 217.863 44.2606 217.621C44.2606 217.575 44.2837 216.802 44.2837 216.007C44.2837 215.212 44.2376 214.486 44.2376 214.44C44.2261 214.175 44.3182 213.863 44.4796 213.506C44.6409 213.16 44.8598 212.826 45.1018 212.573C45.1018 212.573 45.194 212.48 45.3208 212.342C45.4475 212.204 45.6089 211.996 45.7817 211.812C45.9546 211.616 46.1274 211.432 46.2426 211.282C46.3579 211.132 46.4385 211.028 46.4385 211.028C46.4501 211.005 46.7497 210.625 47.0839 210.21C47.3835 209.772 47.6716 209.357 47.6831 209.334C47.902 209.023 48.1555 208.758 48.4206 208.573C48.4667 208.539 48.5243 208.504 48.5704 208.47C48.7778 208.354 48.9852 208.297 49.1465 208.32C49.1696 208.32 49.7227 208.423 50.3219 208.47C50.9211 208.527 51.4973 208.55 51.5319 208.55C51.6126 208.55 51.7163 208.516 51.82 208.458C52.2002 208.239 52.6958 207.663 53.0069 206.971C53.0069 206.96 53.1452 206.672 53.3641 206.211C53.5831 205.761 53.8135 205.139 54.067 204.539C54.3205 203.917 54.5165 203.306 54.6778 202.834C54.7584 202.603 54.8161 202.419 54.8622 202.28C54.9082 202.142 54.9198 202.073 54.9198 202.073C55.1733 201.174 55.0811 200.39 54.7239 200.344V200.379ZM41.0571 210.417C37.7038 212.354 34.9728 210.809 34.9612 206.948C34.9612 203.087 37.6692 198.385 41.0225 196.449C44.3759 194.512 47.1069 196.057 47.1184 199.929C47.1299 203.779 44.4104 208.481 41.0571 210.417Z" fill="url(#paint43_linear_2211_20693)"/>
<defs>
<linearGradient id="paint0_linear_2211_20693" x1="335.767" y1="202.546" x2="402.008" y2="167.011" gradientUnits="userSpaceOnUse">
<stop stop-color="white"/>
<stop offset="1" stop-color="#E4C7FF"/>
</linearGradient>
<linearGradient id="paint1_linear_2211_20693" x1="339.361" y1="209.23" x2="405.591" y2="173.695" gradientUnits="userSpaceOnUse">
<stop stop-color="white"/>
<stop offset="1" stop-color="#E4C7FF"/>
</linearGradient>
<linearGradient id="paint2_linear_2211_20693" x1="336.677" y1="204.217" x2="402.895" y2="168.682" gradientUnits="userSpaceOnUse">
<stop stop-color="white"/>
<stop offset="1" stop-color="#E4C7FF"/>
</linearGradient>
<linearGradient id="paint3_linear_2211_20693" x1="331.296" y1="194.201" x2="397.526" y2="158.666" gradientUnits="userSpaceOnUse">
<stop stop-color="white"/>
<stop offset="1" stop-color="#E4C7FF"/>
</linearGradient>
<linearGradient id="paint4_linear_2211_20693" x1="333.98" y1="199.203" x2="400.21" y2="163.68" gradientUnits="userSpaceOnUse">
<stop stop-color="white"/>
<stop offset="1" stop-color="#E4C7FF"/>
</linearGradient>
<linearGradient id="paint5_linear_2211_20693" x1="285.391" y1="272.735" x2="372.899" y2="272.735" gradientUnits="userSpaceOnUse">
<stop stop-color="#AC55FF"/>
<stop offset="1" stop-color="#BB74FF"/>
</linearGradient>
<linearGradient id="paint6_linear_2211_20693" x1="159.461" y1="306.538" x2="372.621" y2="306.538" gradientUnits="userSpaceOnUse">
<stop stop-color="#EDDBFF"/>
<stop offset="1" stop-color="#BB74FF"/>
</linearGradient>
<linearGradient id="paint7_linear_2211_20693" x1="243.168" y1="331.122" x2="377.888" y2="331.122" gradientUnits="userSpaceOnUse">
<stop stop-color="#BB74FF"/>
<stop offset="1" stop-color="#B466FF"/>
</linearGradient>
<linearGradient id="paint8_linear_2211_20693" x1="276.848" y1="356.777" x2="307.719" y2="356.777" gradientUnits="userSpaceOnUse">
<stop stop-color="#C098FF"/>
<stop offset="1" stop-color="#DC89FB"/>
</linearGradient>
<linearGradient id="paint9_linear_2211_20693" x1="275.926" y1="336.908" x2="303.478" y2="336.908" gradientUnits="userSpaceOnUse">
<stop stop-color="#C991FF"/>
<stop offset="1" stop-color="#BB74FF"/>
</linearGradient>
<linearGradient id="paint10_linear_2211_20693" x1="351.59" y1="341.68" x2="405.9" y2="341.68" gradientUnits="userSpaceOnUse">
<stop stop-color="#AC55FF"/>
<stop offset="1" stop-color="#BB74FF"/>
</linearGradient>
<linearGradient id="paint11_linear_2211_20693" x1="320.957" y1="252.025" x2="320.243" y2="254.364" gradientUnits="userSpaceOnUse">
<stop stop-color="#EBDFFF"/>
<stop offset="1" stop-color="#D5BBFF"/>
</linearGradient>
<linearGradient id="paint12_linear_2211_20693" x1="318.538" y1="253.004" x2="317.408" y2="257.177" gradientUnits="userSpaceOnUse">
<stop stop-color="#EBDFFF"/>
<stop offset="1" stop-color="#D5BBFF"/>
</linearGradient>
<linearGradient id="paint13_linear_2211_20693" x1="316.752" y1="253.927" x2="314.93" y2="258.986" gradientUnits="userSpaceOnUse">
<stop stop-color="#EBDFFF"/>
<stop offset="1" stop-color="#D5BBFF"/>
</linearGradient>
<linearGradient id="paint14_linear_2211_20693" x1="360.252" y1="269.267" x2="373.469" y2="267.412" gradientUnits="userSpaceOnUse">
<stop stop-color="#E5D5FF"/>
<stop offset="1" stop-color="#D5BBFF"/>
</linearGradient>
<linearGradient id="paint15_linear_2211_20693" x1="318.434" y1="261.971" x2="323.838" y2="261.21" gradientUnits="userSpaceOnUse">
<stop stop-color="#E5D5FF"/>
<stop offset="1" stop-color="#D5BBFF"/>
</linearGradient>
<linearGradient id="paint16_linear_2211_20693" x1="356.52" y1="251.794" x2="379.73" y2="236.964" gradientUnits="userSpaceOnUse">
<stop stop-color="#E5D5FF"/>
<stop offset="1" stop-color="#D5BBFF"/>
</linearGradient>
<linearGradient id="paint17_linear_2211_20693" x1="309.229" y1="316.658" x2="378.68" y2="316.658" gradientUnits="userSpaceOnUse">
<stop stop-color="#C991FF"/>
<stop offset="1" stop-color="#BB74FF"/>
</linearGradient>
<linearGradient id="paint18_linear_2211_20693" x1="289.65" y1="325.555" x2="377.066" y2="325.555" gradientUnits="userSpaceOnUse">
<stop stop-color="#C991FF"/>
<stop offset="1" stop-color="#BB74FF"/>
</linearGradient>
<linearGradient id="paint19_linear_2211_20693" x1="297.831" y1="271.974" x2="302.533" y2="271.306" gradientUnits="userSpaceOnUse">
<stop stop-color="#E5D5FF"/>
<stop offset="1" stop-color="#D5BBFF"/>
</linearGradient>
<linearGradient id="paint20_linear_2211_20693" x1="320.462" y1="279.811" x2="360.702" y2="279.811" gradientUnits="userSpaceOnUse">
<stop stop-color="#C991FF"/>
<stop offset="1" stop-color="#BB74FF"/>
</linearGradient>
<linearGradient id="paint21_linear_2211_20693" x1="168.146" y1="60.5422" x2="209.529" y2="277.596" gradientUnits="userSpaceOnUse">
<stop stop-color="#C991FF"/>
<stop offset="1" stop-color="#BB74FF"/>
</linearGradient>
<linearGradient id="paint22_linear_2211_20693" x1="106.715" y1="113.293" x2="160.713" y2="113.293" gradientUnits="userSpaceOnUse">
<stop stop-color="#C098FF"/>
<stop offset="1" stop-color="#DC89FB"/>
</linearGradient>
<linearGradient id="paint23_linear_2211_20693" x1="106.828" y1="139.94" x2="209.421" y2="139.94" gradientUnits="userSpaceOnUse">
<stop stop-color="#C098FF"/>
<stop offset="1" stop-color="#DC89FB"/>
</linearGradient>
<linearGradient id="paint24_linear_2211_20693" x1="106.809" y1="129.774" x2="209.39" y2="129.774" gradientUnits="userSpaceOnUse">
<stop stop-color="#C098FF"/>
<stop offset="1" stop-color="#DC89FB"/>
</linearGradient>
<linearGradient id="paint25_linear_2211_20693" x1="106.75" y1="109.433" x2="209.331" y2="109.433" gradientUnits="userSpaceOnUse">
<stop stop-color="#C098FF"/>
<stop offset="1" stop-color="#DC89FB"/>
</linearGradient>
<linearGradient id="paint26_linear_2211_20693" x1="106.945" y1="196.449" x2="150.135" y2="196.449" gradientUnits="userSpaceOnUse">
<stop stop-color="#C098FF"/>
<stop offset="1" stop-color="#DC89FB"/>
</linearGradient>
<linearGradient id="paint27_linear_2211_20693" x1="232.319" y1="98.2648" x2="232.319" y2="56.013" gradientUnits="userSpaceOnUse">
<stop stop-color="#C098FF"/>
<stop offset="1" stop-color="#DC89FB"/>
</linearGradient>
<linearGradient id="paint28_linear_2211_20693" x1="106.773" y1="119.609" x2="209.355" y2="119.609" gradientUnits="userSpaceOnUse">
<stop stop-color="#C098FF"/>
<stop offset="1" stop-color="#DC89FB"/>
</linearGradient>
<linearGradient id="paint29_linear_2211_20693" x1="220.783" y1="98.2646" x2="220.783" y2="56.0128" gradientUnits="userSpaceOnUse">
<stop stop-color="#C098FF"/>
<stop offset="1" stop-color="#DC89FB"/>
</linearGradient>
<linearGradient id="paint30_linear_2211_20693" x1="243.818" y1="98.2649" x2="243.818" y2="56.0131" gradientUnits="userSpaceOnUse">
<stop stop-color="#C098FF"/>
<stop offset="1" stop-color="#DC89FB"/>
</linearGradient>
<linearGradient id="paint31_linear_2211_20693" x1="255.334" y1="98.2647" x2="255.334" y2="56.0129" gradientUnits="userSpaceOnUse">
<stop stop-color="#C098FF"/>
<stop offset="1" stop-color="#DC89FB"/>
</linearGradient>
<linearGradient id="paint32_linear_2211_20693" x1="97.2043" y1="341.431" x2="116.615" y2="303.712" gradientUnits="userSpaceOnUse">
<stop stop-color="#C991FF"/>
<stop offset="1" stop-color="#BB74FF"/>
</linearGradient>
<linearGradient id="paint33_linear_2211_20693" x1="111.654" y1="345.442" x2="151.835" y2="267.341" gradientUnits="userSpaceOnUse">
<stop stop-color="#C991FF"/>
<stop offset="1" stop-color="#BB74FF"/>
</linearGradient>
<linearGradient id="paint34_linear_2211_20693" x1="135.311" y1="360.852" x2="167.758" y2="297.789" gradientUnits="userSpaceOnUse">
<stop stop-color="#C991FF"/>
<stop offset="1" stop-color="#BB74FF"/>
</linearGradient>
<linearGradient id="paint35_linear_2211_20693" x1="161.899" y1="379.892" x2="177.528" y2="349.501" gradientUnits="userSpaceOnUse">
<stop stop-color="#C991FF"/>
<stop offset="1" stop-color="#BB74FF"/>
</linearGradient>
<linearGradient id="paint36_linear_2211_20693" x1="363.793" y1="71.9872" x2="365.004" y2="169.192" gradientUnits="userSpaceOnUse">
<stop stop-color="#C991FF"/>
<stop offset="1" stop-color="#BB74FF"/>
</linearGradient>
<linearGradient id="paint37_linear_2211_20693" x1="335.758" y1="79.467" x2="343.697" y2="79.467" gradientUnits="userSpaceOnUse">
<stop stop-color="white"/>
<stop offset="1" stop-color="#F3E6FF"/>
</linearGradient>
<linearGradient id="paint38_linear_2211_20693" x1="351.223" y1="122.168" x2="359.163" y2="122.168" gradientUnits="userSpaceOnUse">
<stop stop-color="white"/>
<stop offset="1" stop-color="#F3E6FF"/>
</linearGradient>
<linearGradient id="paint39_linear_2211_20693" x1="366.895" y1="94.9338" x2="374.834" y2="94.9338" gradientUnits="userSpaceOnUse">
<stop stop-color="white"/>
<stop offset="1" stop-color="#F3E6FF"/>
</linearGradient>
<linearGradient id="paint40_linear_2211_20693" x1="382.383" y1="124.289" x2="390.334" y2="124.289" gradientUnits="userSpaceOnUse">
<stop stop-color="white"/>
<stop offset="1" stop-color="#F3E6FF"/>
</linearGradient>
<linearGradient id="paint41_linear_2211_20693" x1="-0.00162289" y1="226.081" x2="28.0463" y2="226.081" gradientUnits="userSpaceOnUse">
<stop stop-color="#C098FF"/>
<stop offset="1" stop-color="#DC89FB"/>
</linearGradient>
<linearGradient id="paint42_linear_2211_20693" x1="18.4124" y1="238.194" x2="46.4604" y2="238.194" gradientUnits="userSpaceOnUse">
<stop stop-color="#C098FF"/>
<stop offset="1" stop-color="#DC89FB"/>
</linearGradient>
<linearGradient id="paint43_linear_2211_20693" x1="27.0101" y1="203.433" x2="55.0696" y2="203.433" gradientUnits="userSpaceOnUse">
<stop stop-color="#C098FF"/>
<stop offset="1" stop-color="#DC89FB"/>
</linearGradient>
</defs>
</svg>
