<svg width="517" height="257" viewBox="0 0 517 257" fill="none" xmlns="http://www.w3.org/2000/svg">
<path d="M277.639 169.769C277.639 169.769 286.438 176.704 288.612 179.699C290.693 182.562 284.481 184.703 281.817 184.703C279.021 184.703 272.071 179.567 268.739 177.115C267.962 176.541 267.326 175.812 267.31 174.85L267.24 170.544L277.639 169.776V169.769Z" fill="#A743FF"/>
<path d="M253.487 181.646C253.487 181.646 262.286 188.581 264.461 191.576C266.542 194.438 260.329 196.58 257.665 196.58C254.87 196.58 247.919 191.444 244.588 188.992C243.811 188.418 243.174 187.689 243.159 186.727L243.089 182.421L253.487 181.653V181.646Z" fill="#A743FF"/>
<path d="M231.238 85.0814C225.856 81.9782 221.468 84.4763 221.453 90.6594L221.352 126.067C221.352 127.758 222.532 129.806 223.992 130.652L261.944 152.545C263.404 153.391 264.6 152.708 264.608 151.025L264.709 115.617C264.724 109.426 260.375 101.893 254.986 98.7821L231.238 85.0892V85.0814Z" fill="url(#paint0_linear_2337_6874)"/>
<path d="M235.827 77.7115C237.598 76.6797 240.06 76.8271 242.762 78.3865L266.51 92.0872C271.9 95.1981 276.249 102.731 276.233 108.922L276.132 144.33C276.132 145.168 275.837 145.757 275.356 146.036L263.823 152.732C264.297 152.452 264.6 151.863 264.6 151.025L264.701 115.617C264.716 109.426 260.368 101.893 254.978 98.7823L231.23 85.0894C228.52 83.5301 226.066 83.3827 224.295 84.4145L235.827 77.7193V77.7115Z" fill="url(#paint1_linear_2337_6874)"/>
<path d="M189.892 85.8343C184.502 88.9453 180.146 96.4783 180.161 102.661L180.309 155.307C180.309 156.983 181.505 157.666 182.98 156.82L235.447 126.711C236.907 125.866 238.095 123.818 238.087 122.134L237.94 69.4881C237.924 63.2972 233.536 60.8069 228.147 63.9179L189.892 85.8265V85.8343Z" fill="url(#paint2_linear_2337_6874)"/>
<path d="M178.36 79.1392L216.615 57.2306C219.333 55.6635 221.787 55.5161 223.565 56.5479L235.097 63.243C233.319 62.2112 230.865 62.3586 228.147 63.9258L189.892 85.8344C184.502 88.9454 180.146 96.4784 180.161 102.662L180.309 155.307C180.309 156.138 180.604 156.727 181.085 157.007L169.553 150.311C169.079 150.032 168.784 149.45 168.777 148.612L168.629 95.9664C168.613 89.7755 172.97 82.2424 178.36 79.1392Z" fill="url(#paint3_linear_2337_6874)"/>
<path d="M189.519 118.736C186.817 120.295 186.801 122.824 189.488 124.384L219.527 141.824C222.206 143.383 226.578 143.375 229.273 141.824L262.581 122.615C265.283 121.056 265.307 118.534 262.62 116.975L232.581 99.5348C229.902 97.9754 225.522 97.9754 222.827 99.5348L189.519 118.744V118.736Z" fill="url(#paint4_linear_2337_6874)"/>
<path d="M189.488 124.384L219.527 141.824C222.206 143.383 226.578 143.375 229.273 141.824L262.581 122.615C263.94 121.831 264.623 120.799 264.615 119.768L264.701 150.52C264.701 151.552 264.025 152.584 262.666 153.368L229.358 172.576C226.656 174.136 222.291 174.136 219.612 172.576L189.573 155.136C188.238 154.361 187.57 153.352 187.57 152.336L187.484 121.583C187.484 122.599 188.152 123.616 189.488 124.384Z" fill="url(#paint5_linear_2337_6874)"/>
<path d="M216.118 113.74L236.581 108.402C236.581 108.402 263.079 115.904 266.239 124.19C268.134 129.163 278.408 170.389 278.408 170.389C276.646 174.989 267.241 172.569 267.241 172.569C267.241 172.569 254.497 144.221 249.993 132.724L226.765 124.19L216.11 113.748L216.118 113.74Z" fill="url(#paint6_linear_2337_6874)"/>
<path d="M195.654 124.5L217.981 116.603C217.981 116.603 242.615 126.665 245.775 134.943C247.67 139.915 253.487 181.638 253.487 181.638C249.55 188.364 243.034 184.741 243.034 184.741C243.034 184.741 234.041 154.974 229.537 143.476L206.309 134.943L195.654 124.5Z" fill="url(#paint7_linear_2337_6874)"/>
<path d="M192.711 78.3713C193.698 73.8018 196.913 70.0237 201.269 68.3169L225.367 58.8832C225.616 58.7901 225.864 58.7047 226.113 58.6271C231.906 56.8583 237.901 60.8382 238.934 66.8041L241.792 83.2123L259.203 92.7935C259.203 92.7935 260.943 97.394 256.928 99.4266L236.604 96.2536V107.658C236.604 109 236.107 110.288 235.207 111.273C231.743 115.059 223.247 122.352 205.37 122.763C201.51 122.856 198.295 120.691 198.295 120.691L198.163 101.77L226.749 110.66C226.019 115.524 224.707 117.829 224.707 117.829L193.286 105.617C189.854 104.283 187.897 100.66 188.673 97.0604L192.704 78.3713H192.711Z" fill="url(#paint8_linear_2337_6874)"/>
<path d="M216.677 70.3103C213.672 70.3103 211.233 67.8743 211.233 64.8719V52.2341C211.233 51.9781 211.435 51.7764 211.692 51.7764H221.671C221.927 51.7764 222.129 51.9781 222.129 52.2341V64.8719C222.129 67.8743 219.69 70.3103 216.685 70.3103H216.677Z" fill="url(#paint9_linear_2337_6874)"/>
<path d="M224.925 37.5483C229.235 41.0084 226.626 47.626 226.626 47.626C226.626 47.626 224.622 52.6066 224.622 52.9092C224.622 53.2118 216.631 54.1427 211.614 55.6478C207.91 56.7649 204.796 46.8579 205.743 43.6927C207.203 38.8206 219.209 32.9556 224.917 37.5406L224.925 37.5483Z" fill="url(#paint10_linear_2337_6874)"/>
<path d="M214.518 49.1699C213.547 48.6579 212.359 49.4958 211.847 50.4655C211.645 50.8379 211.179 50.9853 210.806 50.7914C210.55 50.6595 210.395 50.3957 210.395 50.1087V48.0062C210.224 47.9364 210.138 47.8976 210.138 47.8976C209.284 47.4864 207.855 47.4709 207.933 49.0458C208.049 51.3344 210.138 52.7697 210.138 52.7697V55.0117C210.138 57.4555 211.707 59.62 214.037 60.3803L220.04 62.3431C220.902 62.6223 221.826 62.7154 222.719 62.5215C225.057 62.0172 226.641 59.9846 226.641 57.696V47.6416C224.567 50.1009 221.073 52.6455 214.534 49.1854L214.518 49.1699Z" fill="url(#paint11_linear_2337_6874)"/>
<path d="M204.104 99.2321C209.991 102.382 215.163 105.043 217.982 106.393C215.295 104.802 210.208 101.978 204.322 98.8287C203.685 98.4873 203.064 98.1615 202.489 97.8512C202.753 96.5013 203.002 95.1979 203.235 93.9644C203.475 92.6766 203.701 91.4663 203.903 90.3492C204.306 88.1071 204.633 86.2297 204.842 84.8643C204.516 86.2064 204.089 88.0606 203.607 90.2871C203.367 91.4043 203.11 92.6068 202.839 93.8868C202.567 95.2212 202.279 96.6254 201.977 98.0917C202.637 98.4486 203.359 98.8365 204.097 99.2321H204.104Z" fill="#FFE158"/>
<path d="M236.379 86.8657C236.379 90.8766 236.472 94.3755 236.604 96.2529C236.744 94.3755 236.829 90.8766 236.829 86.8657C236.829 82.8548 236.736 79.356 236.604 77.4785C236.464 79.356 236.379 82.8548 236.379 86.8657Z" fill="#FFE158"/>
<path d="M206.675 110.574C203.095 109.186 199.934 108.053 198.21 107.525C199.833 108.301 202.924 109.605 206.512 110.993C210.092 112.382 213.253 113.515 214.977 114.042C213.353 113.266 210.263 111.963 206.675 110.574Z" fill="#FFE158"/>
<path d="M178.515 115.439C173.133 112.336 168.745 114.834 168.73 121.017L168.629 156.424C168.629 158.116 169.809 160.164 171.269 161.009L209.221 182.903C210.681 183.748 211.877 183.066 211.885 181.382L211.986 145.974C212.002 139.784 207.653 132.25 202.263 129.139L178.515 115.447V115.439Z" fill="url(#paint12_linear_2337_6874)"/>
<path d="M183.105 108.069C184.875 107.037 187.337 107.185 190.04 108.744L213.788 122.445C219.177 125.556 223.526 133.089 223.511 139.279L223.41 174.687C223.41 175.525 223.115 176.115 222.633 176.394L211.101 183.089C211.574 182.81 211.877 182.22 211.877 181.382L211.978 145.975C211.994 139.784 207.645 132.251 202.255 129.14L178.507 115.447C175.797 113.887 173.343 113.74 171.572 114.772L183.105 108.077V108.069Z" fill="url(#paint13_linear_2337_6874)"/>
<path d="M258.488 91.5906C258.488 91.5906 254.683 94.624 254.885 97.4789C255.001 99.1392 257.424 102.747 259.342 103.111C261.02 103.429 265.835 101.459 266.479 100.024C267.116 98.5883 267.116 94.2749 266.083 92.9948C265.043 91.7147 260.492 91.4587 258.488 91.5906Z" fill="url(#paint14_linear_2337_6874)"/>
<path d="M257.386 99.3259C257.386 100.04 258.799 100.614 260.539 100.614C262.278 100.614 263.692 100.04 263.692 99.3259V91.7773H257.394V99.3259H257.386Z" fill="url(#paint15_linear_2337_6874)"/>
<path d="M257.386 91.7771C257.386 92.4908 258.799 93.0649 260.539 93.0649C262.278 93.0649 263.692 92.4908 263.692 91.7771C263.692 91.0634 262.278 90.4893 260.539 90.4893C258.799 90.4893 257.386 91.0634 257.386 91.7771Z" fill="url(#paint16_linear_2337_6874)"/>
<path d="M259.109 91.7772C259.109 92.103 259.746 92.359 260.538 92.359C261.33 92.359 261.967 92.0952 261.967 91.7772C261.967 91.4591 261.33 91.1953 260.538 91.1953C259.746 91.1953 259.109 91.4591 259.109 91.7772Z" fill="#DEB9FF"/>
<path d="M264.118 93.3672C264.118 93.3672 263.73 96.5557 259.878 96.804C257.207 96.9747 257.385 100.039 257.385 100.039C257.385 100.039 260.088 102.723 262.992 101.063C265.897 99.4029 264.126 93.3749 264.126 93.3749L264.118 93.3672Z" fill="url(#paint17_linear_2337_6874)"/>
<path d="M217.624 106.083C217.624 106.083 213.819 109.116 214.02 111.971C214.137 113.631 216.56 117.239 218.478 117.603C220.156 117.922 224.97 115.951 225.615 114.516C226.26 113.081 226.252 108.767 225.219 107.487C224.178 106.207 219.627 105.951 217.624 106.083Z" fill="url(#paint18_linear_2337_6874)"/>
<path d="M218.766 113.531C218.766 114.245 220.179 114.819 221.919 114.819C223.658 114.819 225.072 114.245 225.072 113.531V105.982H218.773V113.531H218.766Z" fill="url(#paint19_linear_2337_6874)"/>
<path d="M218.766 105.982C218.766 106.696 220.179 107.27 221.919 107.27C223.658 107.27 225.072 106.696 225.072 105.982C225.072 105.268 223.658 104.694 221.919 104.694C220.179 104.694 218.766 105.268 218.766 105.982Z" fill="url(#paint20_linear_2337_6874)"/>
<path d="M220.489 105.982C220.489 106.308 221.126 106.564 221.918 106.564C222.71 106.564 223.347 106.3 223.347 105.982C223.347 105.664 222.71 105.4 221.918 105.4C221.126 105.4 220.489 105.664 220.489 105.982Z" fill="#DEB9FF"/>
<path d="M225.064 107.393C225.064 107.393 223.704 110.66 218.354 108.146L216.117 113.119L220.948 116.874L225.46 114.399V110.784L225.071 107.386L225.064 107.393Z" fill="url(#paint21_linear_2337_6874)"/>
<path d="M217.841 52.8471C217.841 52.8471 211.365 53.1031 205.742 47.1992" stroke="#BA6CFF" stroke-width="1.5" stroke-miterlimit="10" stroke-linecap="round"/>
<path d="M224.823 48.9915C224.823 48.9915 225.367 37.5407 213.291 37.0752" stroke="#BA6CFF" stroke-width="1.5" stroke-miterlimit="10" stroke-linecap="round"/>
<path d="M216.49 51.5288V53.189C216.49 53.895 216.871 54.5467 217.484 54.8958L219.162 55.8423L228.807 47.1067L227.114 46.3154C227.114 46.3154 226.92 46.7654 226.788 47.1067C226.438 47.9989 223.138 49.9462 219.053 51.0323C218.393 51.2107 217.639 51.1099 217.119 50.9935C216.785 50.9237 216.475 51.1797 216.475 51.5211L216.49 51.5288Z" fill="#B25AFF"/>
<path d="M219.79 52.3511C219.456 52.1571 219.177 52.3123 219.177 52.7002V55.7568C219.169 56.1447 219.441 56.618 219.775 56.8119L223.464 58.9376C223.805 59.1316 224.077 58.9764 224.077 58.5885V55.5319C224.085 55.144 223.821 54.6707 223.479 54.4768L219.79 52.3511Z" fill="url(#paint22_linear_2337_6874)"/>
<path d="M232.938 48.9922C233.28 49.1861 233.544 49.6594 233.544 50.0473V53.1039C233.536 53.2979 233.466 53.4298 233.358 53.4918L223.899 58.9768C224.008 58.9147 224.077 58.7751 224.077 58.5889V55.5322C224.085 55.1443 223.821 54.6711 223.479 54.4771L232.938 48.9922Z" fill="url(#paint23_linear_2337_6874)"/>
<path d="M228.814 46.8272C228.923 46.7652 229.078 46.7729 229.249 46.866L232.938 48.9917L223.479 54.4766L219.79 52.3509C219.62 52.2501 219.472 52.2423 219.355 52.3121L228.814 46.8272Z" fill="url(#paint24_linear_2337_6874)"/>
<path d="M254.543 218.131C252.151 216.75 250.194 217.867 250.186 220.629L250.116 233.725C250.116 236.471 252.05 239.83 254.442 241.211L280.66 256.332C283.067 257.72 285.008 256.595 285.016 253.857L285.086 240.761C285.094 237.999 283.168 234.648 280.76 233.259L254.543 218.139V218.131Z" fill="url(#paint25_linear_2337_6874)"/>
<path d="M359.072 187.875C361.48 189.264 363.406 192.615 363.398 195.377L363.328 208.473C363.328 209.838 362.839 210.8 362.062 211.258L283.751 256.634C284.527 256.184 285.009 255.215 285.016 253.849L285.086 240.754C285.094 237.992 283.168 234.64 280.761 233.252L359.072 187.875Z" fill="url(#paint26_linear_2337_6874)"/>
<path d="M329.771 172.46C330.564 172.002 331.651 172.064 332.854 172.763L359.072 187.883L280.761 233.26L254.543 218.139C253.339 217.449 252.252 217.379 251.46 217.844L329.771 172.468V172.46Z" fill="url(#paint27_linear_2337_6874)"/>
<path d="M334.71 181.018L342.36 187.612L340.884 188.442L330.719 183.128L334.71 181.018Z" fill="#B25AFF"/>
<path d="M277.801 213.462L285.458 220.056L283.975 220.886L273.817 215.572L277.801 213.462Z" fill="#B25AFF"/>
<path d="M261.85 151.824C258.954 153.5 256.608 157.549 256.616 160.885L256.795 222.655C256.803 225.983 259.163 227.325 262.06 225.657L349.675 175.129C352.572 173.453 354.917 169.403 354.909 166.068L354.731 104.298C354.723 100.97 352.362 99.6278 349.465 101.296L261.85 151.824Z" fill="#B25AFF"/>
<path d="M252.788 158.418C252.788 158.333 252.788 158.248 252.804 158.162C252.804 158.077 252.819 157.992 252.827 157.906C252.835 157.821 252.842 157.736 252.858 157.65C252.866 157.565 252.881 157.472 252.897 157.386C252.897 157.386 252.897 157.386 252.897 157.379C252.912 157.293 252.928 157.208 252.943 157.13C252.959 157.037 252.982 156.952 252.998 156.859C253.021 156.766 253.037 156.673 253.06 156.587C253.083 156.494 253.106 156.401 253.13 156.308C253.153 156.238 253.169 156.161 253.192 156.091V156.075C253.192 156.06 253.2 156.044 253.207 156.037C253.238 155.943 253.262 155.858 253.293 155.765C253.324 155.672 253.355 155.587 253.386 155.501C253.417 155.416 253.448 155.331 253.479 155.245C253.51 155.16 253.549 155.075 253.58 154.989C253.603 154.927 253.635 154.857 253.666 154.795C253.666 154.795 253.666 154.788 253.666 154.78C253.666 154.764 253.673 154.757 253.681 154.741C253.72 154.656 253.759 154.57 253.798 154.485C253.844 154.392 253.883 154.299 253.93 154.206C253.984 154.097 254.038 153.996 254.093 153.888C254.155 153.779 254.217 153.663 254.279 153.554C254.287 153.531 254.302 153.515 254.31 153.492C254.326 153.469 254.333 153.445 254.349 153.422C254.473 153.213 254.605 153.003 254.737 152.801C254.846 152.639 254.955 152.483 255.071 152.328C255.149 152.227 255.227 152.119 255.304 152.026C255.374 151.94 255.436 151.855 255.506 151.777C255.576 151.7 255.638 151.615 255.708 151.537C255.778 151.459 255.84 151.382 255.91 151.312C255.926 151.296 255.933 151.281 255.949 151.273C255.949 151.273 255.957 151.258 255.964 151.258C256.019 151.203 256.065 151.149 256.12 151.095C256.19 151.017 256.267 150.947 256.345 150.877C256.423 150.808 256.5 150.73 256.578 150.66C256.656 150.59 256.733 150.521 256.811 150.459C256.85 150.428 256.888 150.397 256.927 150.365C256.935 150.365 256.943 150.35 256.951 150.342C256.982 150.319 257.013 150.296 257.044 150.272C257.121 150.21 257.199 150.156 257.277 150.094C257.354 150.04 257.432 149.985 257.502 149.931C257.58 149.877 257.65 149.83 257.727 149.784C257.797 149.737 257.875 149.691 257.952 149.644C257.968 149.636 257.983 149.621 258.007 149.613L345.622 99.0849C345.676 99.0539 345.731 99.0229 345.785 98.9918C345.855 98.9531 345.932 98.9143 346.002 98.8832C346.049 98.86 346.096 98.8367 346.142 98.8212C346.15 98.8212 346.165 98.8134 346.173 98.8057C346.189 98.8057 346.196 98.7901 346.212 98.7901C346.282 98.7591 346.352 98.7281 346.422 98.7048C346.492 98.6738 346.561 98.6505 346.631 98.6272C346.647 98.6272 346.655 98.6272 346.67 98.6117C346.678 98.6117 346.693 98.6117 346.701 98.6039C346.748 98.5884 346.794 98.5729 346.841 98.5574C346.911 98.5341 346.989 98.5186 347.058 98.4953C347.09 98.4876 347.128 98.4798 347.159 98.4721C347.175 98.4721 347.19 98.4721 347.206 98.4643C347.229 98.4643 347.253 98.4565 347.276 98.4488C347.354 98.4333 347.431 98.4177 347.509 98.41C347.556 98.41 347.602 98.4022 347.649 98.3945C347.664 98.3945 347.68 98.3945 347.695 98.3945C347.711 98.3945 347.726 98.3945 347.742 98.3945C347.827 98.3945 347.905 98.3867 347.99 98.3867C348.029 98.3867 348.06 98.3867 348.099 98.3867C348.13 98.3867 348.153 98.3867 348.185 98.3867C348.216 98.3867 348.239 98.3867 348.27 98.3867C348.371 98.3945 348.472 98.41 348.573 98.4333C348.596 98.4333 348.612 98.4488 348.635 98.4488C348.736 98.4721 348.837 98.4953 348.93 98.5341C348.93 98.5341 348.946 98.5341 348.953 98.5419C349.093 98.5962 349.225 98.6505 349.357 98.7281L353.186 100.955C353.062 100.877 352.922 100.823 352.782 100.768C352.681 100.73 352.572 100.699 352.464 100.675C352.44 100.675 352.425 100.66 352.401 100.66C352.277 100.637 352.145 100.621 352.005 100.613C351.974 100.613 351.951 100.613 351.92 100.613C351.788 100.613 351.656 100.613 351.524 100.621C351.508 100.621 351.493 100.621 351.477 100.621C351.337 100.637 351.19 100.66 351.042 100.691C351.027 100.691 351.011 100.691 350.996 100.699C350.848 100.73 350.693 100.776 350.53 100.83C350.522 100.83 350.507 100.83 350.499 100.838C350.336 100.893 350.173 100.962 350.002 101.04C349.994 101.04 349.978 101.048 349.971 101.055C349.8 101.133 349.629 101.226 349.45 101.327L261.835 151.855C261.478 152.064 261.129 152.305 260.787 152.577C260.779 152.577 260.771 152.592 260.764 152.6C260.43 152.871 260.111 153.174 259.801 153.5C259.801 153.5 259.793 153.515 259.785 153.515C259.475 153.849 259.179 154.206 258.9 154.578C258.628 154.95 258.372 155.338 258.139 155.742C258.131 155.765 258.115 155.781 258.108 155.804C257.883 156.2 257.673 156.611 257.494 157.022C257.494 157.022 257.494 157.03 257.494 157.037C257.308 157.464 257.153 157.891 257.02 158.325V158.341C256.888 158.775 256.788 159.21 256.718 159.636C256.648 160.071 256.617 160.497 256.617 160.909L256.795 222.678C256.795 223.089 256.834 223.462 256.904 223.811C256.904 223.818 256.904 223.834 256.904 223.842C256.974 224.183 257.075 224.493 257.199 224.765C257.199 224.765 257.199 224.773 257.199 224.78C257.308 225.013 257.448 225.207 257.595 225.393C257.642 225.455 257.688 225.517 257.743 225.572C257.914 225.758 258.108 225.921 258.317 226.045L254.489 223.818C254.279 223.694 254.085 223.531 253.914 223.345C253.86 223.291 253.813 223.229 253.767 223.167C253.704 223.089 253.635 223.019 253.58 222.934C253.51 222.818 253.44 222.701 253.378 222.577C253.378 222.577 253.378 222.569 253.378 222.562C253.378 222.562 253.378 222.554 253.378 222.546C253.339 222.461 253.301 222.368 253.262 222.282C253.231 222.189 253.2 222.104 253.169 222.003C253.145 221.918 253.122 221.825 253.099 221.732C253.091 221.693 253.083 221.654 253.075 221.615C253.075 221.607 253.075 221.592 253.075 221.584C253.075 221.545 253.06 221.514 253.052 221.476C253.037 221.39 253.029 221.313 253.013 221.227C253.006 221.142 252.998 221.064 252.99 220.971C252.99 220.894 252.974 220.808 252.974 220.723C252.974 220.638 252.974 220.552 252.974 220.467C252.974 220.467 252.974 220.459 252.974 220.451L252.796 158.682C252.796 158.604 252.796 158.527 252.796 158.442L252.788 158.418Z" fill="url(#paint28_linear_2337_6874)"/>
<path d="M290.079 160.256C288.906 160.931 287.951 162.576 287.959 163.926L288.029 188.961C288.029 190.311 288.992 190.854 290.165 190.179L325.678 169.698C326.851 169.023 327.806 167.378 327.798 166.028L327.728 140.993C327.728 139.643 326.765 139.1 325.593 139.775L290.079 160.256Z" fill="#B765FF"/>
<path opacity="0.44" d="M286.406 162.933C286.406 162.933 286.406 162.864 286.406 162.832C286.406 162.801 286.406 162.763 286.414 162.732C286.422 162.701 286.414 162.662 286.422 162.631C286.422 162.592 286.429 162.561 286.437 162.522C286.437 162.491 286.445 162.452 286.453 162.421C286.453 162.383 286.468 162.344 286.476 162.313C286.484 162.274 286.492 162.235 286.499 162.204C286.507 162.165 286.515 162.126 286.53 162.088C286.538 162.057 286.546 162.026 286.554 162.002C286.554 162.002 286.554 161.995 286.554 161.987C286.561 161.948 286.577 161.917 286.593 161.878C286.608 161.839 286.616 161.808 286.631 161.77C286.647 161.739 286.655 161.7 286.67 161.669C286.686 161.638 286.701 161.599 286.709 161.568C286.717 161.545 286.732 161.514 286.74 161.49C286.74 161.49 286.74 161.483 286.74 161.475C286.756 161.444 286.771 161.405 286.787 161.374C286.802 161.335 286.826 161.296 286.841 161.265C286.864 161.219 286.888 161.18 286.903 161.141C286.926 161.095 286.95 161.048 286.981 161.009C286.981 161.002 286.989 160.994 286.996 160.986C286.996 160.978 287.004 160.971 287.012 160.955C287.058 160.87 287.113 160.784 287.167 160.707C287.214 160.645 287.253 160.575 287.299 160.513C287.33 160.474 287.361 160.427 287.392 160.389C287.416 160.358 287.447 160.319 287.478 160.288C287.501 160.257 287.532 160.226 287.563 160.195C287.594 160.164 287.618 160.133 287.649 160.102C287.649 160.102 287.656 160.094 287.664 160.086C287.688 160.063 287.703 160.04 287.726 160.016C287.757 159.985 287.788 159.954 287.82 159.931C287.851 159.9 287.882 159.869 287.913 159.846C287.944 159.815 287.975 159.791 288.006 159.76C288.021 159.745 288.037 159.737 288.053 159.722C288.053 159.722 288.053 159.722 288.06 159.714C288.076 159.706 288.084 159.69 288.099 159.683C288.13 159.659 288.161 159.636 288.192 159.613C288.223 159.59 288.254 159.566 288.286 159.551C288.317 159.528 288.348 159.512 288.379 159.489C288.41 159.473 288.441 159.45 288.472 159.434C288.472 159.434 288.487 159.427 288.495 159.419L324.009 138.938C324.009 138.938 324.055 138.914 324.079 138.899C324.11 138.883 324.141 138.868 324.164 138.852C324.18 138.845 324.203 138.837 324.218 138.829C324.218 138.829 324.226 138.829 324.234 138.829C324.234 138.829 324.242 138.829 324.249 138.829C324.281 138.814 324.304 138.806 324.335 138.79C324.366 138.783 324.389 138.767 324.42 138.759C324.42 138.759 324.428 138.759 324.436 138.759C324.436 138.759 324.444 138.759 324.451 138.759C324.467 138.759 324.49 138.744 324.506 138.744C324.537 138.736 324.568 138.728 324.591 138.721C324.607 138.721 324.622 138.721 324.63 138.713H324.646C324.653 138.713 324.661 138.713 324.669 138.713C324.7 138.713 324.731 138.705 324.762 138.697C324.778 138.697 324.801 138.697 324.816 138.697C324.816 138.697 324.832 138.697 324.84 138.697H324.855C324.886 138.697 324.925 138.697 324.956 138.697C324.972 138.697 324.987 138.697 325.003 138.697C325.01 138.697 325.026 138.697 325.034 138.697C325.042 138.697 325.057 138.697 325.065 138.697C325.104 138.697 325.15 138.705 325.189 138.713C325.197 138.713 325.205 138.713 325.212 138.713C325.251 138.721 325.298 138.736 325.337 138.744C325.337 138.744 325.337 138.744 325.344 138.744C325.399 138.767 325.453 138.79 325.508 138.821L327.061 139.721C327.006 139.69 326.952 139.667 326.898 139.644C326.859 139.628 326.812 139.613 326.766 139.605C326.758 139.605 326.75 139.605 326.742 139.605C326.688 139.597 326.641 139.589 326.587 139.582C326.579 139.582 326.564 139.582 326.556 139.582C326.502 139.582 326.447 139.582 326.393 139.582C326.393 139.582 326.377 139.582 326.37 139.582C326.315 139.582 326.253 139.597 326.191 139.605H326.175C326.113 139.62 326.051 139.636 325.989 139.659C325.989 139.659 325.981 139.659 325.973 139.659C325.904 139.683 325.841 139.706 325.772 139.737C325.772 139.737 325.764 139.737 325.756 139.737C325.686 139.768 325.616 139.807 325.546 139.845L290.033 160.327C289.885 160.412 289.746 160.513 289.606 160.621C289.606 160.621 289.606 160.621 289.598 160.629C289.466 160.738 289.334 160.862 289.21 160.994C289.085 161.126 288.961 161.273 288.852 161.421C288.744 161.568 288.635 161.731 288.542 161.894C288.542 161.902 288.534 161.909 288.526 161.917C288.433 162.08 288.348 162.243 288.278 162.414C288.2 162.584 288.138 162.763 288.084 162.933C288.029 163.112 287.99 163.282 287.959 163.461C287.928 163.639 287.921 163.81 287.921 163.981L287.99 189.016C287.99 189.179 288.006 189.334 288.037 189.474C288.037 189.474 288.037 189.481 288.037 189.489C288.068 189.629 288.107 189.753 288.161 189.861C288.208 189.955 288.262 190.032 288.324 190.11C288.348 190.133 288.363 190.164 288.386 190.18C288.456 190.257 288.534 190.319 288.619 190.373L287.066 189.474C286.981 189.427 286.903 189.357 286.833 189.28C286.81 189.256 286.794 189.233 286.771 189.21C286.748 189.179 286.717 189.148 286.694 189.117C286.662 189.07 286.639 189.024 286.616 188.969C286.6 188.93 286.585 188.899 286.569 188.861C286.554 188.822 286.546 188.791 286.53 188.752C286.523 188.713 286.507 188.682 286.499 188.643C286.499 188.628 286.499 188.612 286.492 188.597C286.492 188.597 286.492 188.589 286.492 188.581C286.492 188.566 286.492 188.55 286.484 188.535C286.484 188.504 286.476 188.465 286.468 188.434C286.468 188.403 286.461 188.364 286.461 188.333C286.461 188.302 286.461 188.263 286.461 188.232C286.461 188.201 286.461 188.162 286.461 188.131L286.391 163.096C286.391 163.096 286.391 163.034 286.391 163.003L286.406 162.933Z" fill="url(#paint29_linear_2337_6874)"/>
<path d="M76.7043 129.31L77.776 124.888L73.2951 121.87L59.363 125.571C58.7728 125.703 58.4622 126.339 58.7185 126.882C58.8815 127.223 59.231 127.44 59.6115 127.425L65.0554 127.254L65.1875 128.589C65.2807 129.481 65.7155 130.295 66.4067 130.869L67.2066 131.529C67.9832 132.165 69.0394 132.336 69.9713 131.987L76.6888 129.326L76.7043 129.31Z" fill="url(#paint30_linear_2337_6874)"/>
<path d="M147.84 130.086L141.588 108.084C139.825 102.646 135.694 98.3093 130.343 96.2767L107.814 87.6498C107.527 87.5412 107.24 87.4481 106.952 87.3627C101.027 85.6094 94.9463 89.7289 93.8901 95.8112L90.9701 112.615L73.2949 121.878C73.2949 121.878 76.2848 125.571 76.0984 129.559L96.2898 125.998V137.697C96.2898 139.054 96.7868 140.373 97.7032 141.374C101.043 145.028 108.987 151.917 125.319 153.042L124.698 156.254C126.018 161.134 132.712 158.962 132.712 158.962L146.815 137.635C148.197 135.369 148.57 132.639 147.84 130.086Z" fill="url(#paint31_linear_2337_6874)"/>
<path d="M123.098 238.931C123.098 238.931 116.015 247.503 113.934 250.358C111.946 253.081 115.363 254.625 117.84 254.059C119.836 253.601 128.542 248.714 131.827 246.844C132.603 246.402 133.085 245.572 133.077 244.679L133.046 241.118L123.106 238.938L123.098 238.931Z" fill="#A743FF"/>
<path d="M94.7288 232.306C94.7288 232.306 86.8231 239.482 84.7496 242.345C82.7693 245.075 86.1941 246.611 88.6636 246.03C90.6595 245.564 99.7611 241.049 103.217 239.311C104.04 238.9 104.56 238.062 104.576 237.147L104.646 233.035L94.7211 232.306H94.7288Z" fill="#A743FF"/>
<path d="M96.2895 138.441C96.2895 138.441 90.6204 182.057 90.1001 192.267C89.7584 198.923 94.6509 232.329 94.6509 232.329C94.8218 238.132 104.638 234.974 104.638 234.974C104.638 234.974 109.313 201.421 109.926 193.345L111.915 163.112C111.915 163.112 115.386 196.06 115.332 198.008C115.254 200.7 122.717 240.157 122.717 240.157C123.462 245.549 133.046 241.871 133.046 241.871L134.156 197.255C134.156 197.255 134.661 169.132 134.661 163.477C134.661 157.177 134.777 148.488 134.777 148.488L96.2973 138.441H96.2895Z" fill="url(#paint32_linear_2337_6874)"/>
<path d="M126.662 155.315L132.82 158.434C132.82 158.434 132.083 162.755 129.8 166.72C128.021 169.807 125.218 170.288 123.921 169.699C123.082 169.319 121.909 168.163 122.515 164.082C122.725 162.67 123.377 160.855 123.377 160.855C123.377 160.855 120.814 162.336 120.061 161.359C119.067 160.063 123.618 156.417 126.662 155.323V155.315Z" fill="url(#paint33_linear_2337_6874)"/>
<path d="M116.737 99.3646C119.82 99.3646 122.321 96.8665 122.321 93.7866V80.8927C122.321 80.5979 122.08 80.3574 121.785 80.3574H111.681C111.386 80.3574 111.146 80.5979 111.146 80.8927V93.7866C111.146 96.8665 113.646 99.3646 116.729 99.3646H116.737Z" fill="url(#paint34_linear_2337_6874)"/>
<path d="M106.533 76.0979C107.457 78.9063 115.502 84.88 115.502 84.88C125.505 86.6023 127.47 80.6752 128.215 76.4005C130.094 65.741 120.255 63.6463 113.972 63.3981C110.517 63.2584 103.62 67.2693 106.525 76.0979H106.533Z" fill="#A743FF"/>
<path d="M118.958 77.6803C119.952 77.1527 121.179 78.0139 121.699 79.0069C121.901 79.3948 122.382 79.5422 122.771 79.3405C123.035 79.2009 123.198 78.9371 123.198 78.6423V76.4856C123.369 76.4157 123.462 76.3692 123.462 76.3692C124.332 75.9503 125.807 75.927 125.73 77.5484C125.613 79.8991 123.462 81.3654 123.462 81.3654V83.6617C123.462 86.1676 121.847 88.3864 119.462 89.1699L113.304 91.1793C112.419 91.4663 111.471 91.5594 110.555 91.3654C108.163 90.8534 106.532 88.7588 106.532 86.4158V76.0977C108.652 78.619 112.248 81.2335 118.95 77.6803H118.958Z" fill="url(#paint35_linear_2337_6874)"/>
<path d="M92.8495 101.839L90.978 112.607L73.3027 121.87C73.3027 121.87 76.2926 125.563 76.1062 129.551L96.2976 125.99V102.956C96.2976 102.956 95.1948 102.63 92.8495 101.839Z" fill="url(#paint36_linear_2337_6874)"/>
<path d="M132.712 158.961L146.815 137.634C148.197 135.369 148.57 132.638 147.84 130.086L143.755 115.718C140.998 117.401 134.614 120.59 128.961 118.301L135.267 133.243L124.689 156.253C126.01 161.133 132.704 158.961 132.704 158.961H132.712Z" fill="url(#paint37_linear_2337_6874)"/>
<path d="M115.433 82.3428C115.433 82.3428 121.645 82.5911 127.043 76.9277" stroke="#BA6CFF" stroke-width="1.5" stroke-miterlimit="10" stroke-linecap="round"/>
<path d="M108.731 78.6502C108.731 78.6502 109.073 64.8875 120.66 64.4375" stroke="#BA6CFF" stroke-width="1.5" stroke-miterlimit="10" stroke-linecap="round"/>
<path d="M116.73 81.0782V82.6764C116.73 83.3513 116.365 83.9797 115.775 84.3133L114.159 85.221L104.902 76.8423L106.525 76.082C106.525 76.082 106.712 76.5165 106.836 76.8423C107.17 77.7035 110.338 79.5731 114.26 80.6127C114.897 80.7834 115.619 80.6903 116.116 80.5739C116.435 80.5041 116.73 80.7524 116.73 81.0782Z" fill="#B25AFF"/>
<path d="M113.561 81.8774C113.888 81.6912 114.144 81.8386 114.152 82.2109V85.1435C114.159 85.5159 113.903 85.9658 113.577 86.152L110.044 88.1924C109.717 88.3786 109.461 88.2312 109.453 87.8588V84.9263C109.446 84.5539 109.702 84.1039 110.028 83.9177L113.561 81.8774Z" fill="url(#paint38_linear_2337_6874)"/>
<path d="M100.95 78.6494C100.623 78.8356 100.367 79.2856 100.367 79.658V82.5905C100.375 82.7767 100.445 82.9086 100.546 82.9629L109.624 88.2306C109.515 88.1685 109.453 88.0366 109.453 87.8582V84.9257C109.446 84.5533 109.702 84.1033 110.028 83.9171L100.95 78.6494Z" fill="url(#paint39_linear_2337_6874)"/>
<path d="M104.902 76.5704C104.793 76.5083 104.646 76.5161 104.483 76.6092L100.949 78.6495L110.028 83.9172L113.561 81.8769C113.724 81.7838 113.872 81.776 113.973 81.8381L104.894 76.5704H104.902Z" fill="url(#paint40_linear_2337_6874)"/>
<g opacity="0.64">
<path d="M57.1498 132.639L57.142 134.338L21.7295 113.911L21.7373 112.212L57.1498 132.639Z" fill="#D0BBFF"/>
<path d="M79.7718 150.218V151.917L21.7139 118.433L21.7216 116.734L79.7718 150.218Z" fill="#D0BBFF"/>
<path d="M50.8742 91.5051C56.5045 94.7557 61.0631 102.63 61.0398 109.1C61.0242 115.578 56.4346 118.185 50.8043 114.934C45.1662 111.684 40.6077 103.802 40.6309 97.3236C40.6465 90.8611 45.2361 88.2467 50.8742 91.5051ZM55.6968 106.881C56.2793 106.827 56.2793 105.873 55.6968 105.151L52.241 100.861L48.7852 96.5711C48.6454 96.3926 48.4978 96.2685 48.3503 96.1832C47.8921 95.9194 47.4805 96.0978 47.4727 96.6797L47.4572 101.265L47.4417 105.85C47.4417 106.439 47.861 107.099 48.3192 107.362C48.459 107.448 48.6065 107.487 48.7463 107.479L52.2099 107.169L55.6735 106.874" fill="#A379FF"/>
<path d="M48.358 96.1836C48.5055 96.2689 48.6531 96.393 48.7929 96.5715L52.2487 100.862L55.7045 105.152C56.287 105.873 56.2792 106.835 55.7045 106.882L52.2409 107.177L48.7773 107.487C48.6375 107.495 48.49 107.456 48.3502 107.371C47.892 107.107 47.4727 106.447 47.4727 105.858L47.4882 101.273L47.5037 96.6878C47.5037 96.106 47.9231 95.9275 48.3813 96.1913L48.358 96.1836Z" fill="#D0BBFF"/>
<path d="M107.473 161.39C108.575 162.026 109.461 163.562 109.453 164.819L109.422 175.556C109.422 176.821 108.529 177.325 107.426 176.689L90.7059 167.046C89.6032 166.409 88.7179 164.873 88.7256 163.616L88.7567 152.879C88.7567 151.615 89.6498 151.111 90.7525 151.747L107.473 161.39Z" fill="#D0BBFF"/>
<path d="M76.8434 96.7031C78.5519 97.6883 79.9187 100.062 79.9109 102.017L79.81 137.883C79.81 139.845 78.4277 140.637 76.7192 139.651L24.8273 109.721C23.1266 108.744 21.752 106.362 21.7598 104.399L21.8608 68.5337C21.8608 66.5864 23.2509 65.7951 24.9516 66.7726L76.8434 96.7031ZM50.8043 114.927C56.4346 118.177 61.0165 115.563 61.0398 109.093C61.0553 102.63 56.5045 94.7481 50.8742 91.4974C45.2362 88.2468 40.6465 90.8535 40.631 97.316C40.6154 103.794 45.1663 111.668 50.8043 114.927Z" fill="#D0BBFF"/>
<path d="M107.543 137.921C108.646 138.557 109.531 140.093 109.523 141.35L109.492 152.087C109.492 153.352 108.599 153.856 107.496 153.22L90.7763 143.577C89.6735 142.941 88.7882 141.405 88.7959 140.148L88.827 129.411C88.827 128.146 89.7201 127.642 90.8229 128.278L107.543 137.921Z" fill="#D0BBFF"/>
<path d="M114.206 111.358C115.906 112.336 117.281 114.717 117.273 116.68L117.079 185.843C117.079 187.79 115.689 188.581 113.988 187.604L17.0851 131.715C15.3766 130.73 14.002 128.348 14.0098 126.401L14.2039 57.2382C14.2039 55.2754 15.594 54.4918 17.3025 55.4771L114.206 111.366V111.358ZM79.8104 137.883L79.9113 102.017C79.9113 100.07 78.5523 97.6885 76.8438 96.7032L24.952 66.7728C23.2512 65.7953 21.8689 66.5788 21.8611 68.5338L21.7602 104.399C21.7602 106.362 23.127 108.744 24.8277 109.721L76.7195 139.652C78.428 140.637 79.8026 139.846 79.8104 137.883ZM109.492 152.088L109.523 141.351C109.523 140.086 108.637 138.55 107.542 137.922L90.8224 128.278C89.7197 127.642 88.8266 128.154 88.8266 129.411L88.7955 140.148C88.7955 141.413 89.6808 142.949 90.7758 143.577L107.496 153.22C108.599 153.857 109.492 153.345 109.492 152.088ZM109.422 175.556L109.453 164.819C109.453 163.554 108.568 162.018 107.473 161.39L90.7525 151.746C89.6498 151.11 88.7567 151.622 88.7567 152.879L88.7256 163.616C88.7256 164.881 89.611 166.417 90.7059 167.045L107.426 176.688C108.529 177.325 109.422 176.813 109.422 175.556ZM109.554 128.612L109.585 117.875C109.585 116.61 108.7 115.074 107.605 114.446L90.8846 104.803C89.7818 104.166 88.8887 104.678 88.8887 105.935L88.8577 116.672C88.8577 117.937 89.743 119.473 90.838 120.101L107.558 129.745C108.661 130.381 109.554 129.869 109.554 128.612ZM79.7405 160.963V159.256L21.6903 125.773V127.479L79.7405 160.963ZM79.7638 151.909V150.21L21.7136 116.727V118.426L79.7638 151.909ZM79.7482 156.432V154.733L21.6981 121.25V122.949L79.7482 156.432ZM21.7291 112.196V113.895L57.1417 134.322V132.623L21.7291 112.196Z" fill="#A379FF"/>
<path d="M79.7484 159.256L79.7406 160.971L21.6904 127.487L21.6982 125.78L79.7484 159.256Z" fill="#D0BBFF"/>
<path d="M79.764 154.748L79.7562 156.447L21.7061 122.964V121.265L79.764 154.748Z" fill="#D0BBFF"/>
<path d="M107.604 114.453C108.707 115.09 109.592 116.626 109.585 117.882L109.554 128.62C109.554 129.884 108.661 130.388 107.558 129.752L90.8378 120.109C89.735 119.473 88.8497 117.937 88.8575 116.68L88.8885 105.943C88.8885 104.678 89.7816 104.174 90.8844 104.81L107.604 114.453Z" fill="#D0BBFF"/>
</g>
<g opacity="0.74">
<path d="M61.0865 22.7153C69.4504 27.5408 76.2223 39.2477 76.199 48.8598C76.1679 58.4643 69.3572 62.3355 60.9856 57.51C52.6139 52.6768 45.8498 40.9777 45.8731 31.3733C45.9042 21.7611 52.7071 17.8821 61.0865 22.7153Z" fill="#ECD6FF"/>
<path d="M66.0646 34.4453C67.4935 35.2677 68.9147 36.7184 69.9942 38.5881C72.1608 42.343 72.1531 46.3927 69.9709 47.634L61.8943 52.2422C61.6458 52.3819 61.3196 52.3353 61.0012 52.1491C60.6751 51.9629 60.3567 51.6371 60.1082 51.2026L53.1421 39.1467L52.0782 37.308C49.9115 33.5609 49.9193 29.5112 52.1015 28.2622C53.1965 27.6415 54.6254 27.8355 56.0466 28.6578C57.4677 29.4802 58.8967 30.9309 59.9839 32.8084L61.0478 34.647L62.1195 34.0341C63.2145 33.4135 64.6434 33.6074 66.0646 34.4298V34.4453Z" fill="#A379FF"/>
</g>
<g opacity="0.74">
<path d="M22.141 159.435C23.3835 160.149 24.3853 161.887 24.3853 163.314L24.3543 174.447C24.3543 175.874 23.3369 176.456 22.0944 175.742L7.36247 167.247C6.11992 166.534 5.11035 164.78 5.11035 163.353L5.14142 152.22C5.14142 150.793 6.16652 150.226 7.40906 150.94L22.141 159.435Z" fill="#DAB0FF"/>
<path d="M53.1109 191.39L53.1031 193.694L27.9648 179.124L27.9726 176.82L53.1109 191.39Z" fill="#DAB0FF"/>
<path d="M53.1343 184.384L53.1265 186.68L27.9883 172.119V169.822L53.1343 184.384Z" fill="#DAB0FF"/>
<path d="M53.1499 177.387L53.1422 179.676L28.0039 165.114L28.0117 162.817L53.1499 177.387Z" fill="#DAB0FF"/>
<path d="M55.6272 171.677C57.0872 172.522 58.2676 174.571 58.2676 176.246L58.1977 200.707C58.1977 202.391 57.0018 203.058 55.5418 202.22L2.64041 171.646C1.17265 170.792 0 168.76 0 167.076L0.0698932 142.615C0.0698932 140.939 1.25808 140.257 2.72583 141.102L55.6272 171.677ZM24.3539 174.446L24.385 163.314C24.385 161.886 23.3832 160.148 22.1406 159.435L7.40868 150.94C6.16613 150.226 5.1488 150.792 5.14103 152.22L5.10997 163.352C5.10997 164.78 6.11954 166.525 7.36208 167.247L22.094 175.742C23.3366 176.456 24.3461 175.874 24.3539 174.446ZM53.1111 193.694V191.39L27.9806 176.828V179.132L53.1111 193.694ZM53.1344 186.681V184.384L28.0039 169.823V172.119L53.1344 186.681ZM53.1577 179.675V177.379L28.0272 162.817V165.113L53.1577 179.675Z" fill="#ECD6FF"/>
</g>
<g opacity="0.74">
<path d="M91.0863 225.409V226.619L73.8848 216.704L73.8925 215.494L91.0863 225.409Z" fill="#DAB0FF"/>
<path d="M99.8773 230.483V231.693L98.3008 230.785L98.3085 229.575L99.8773 230.483Z" fill="#DAB0FF"/>
<path d="M96.7552 228.676L96.7474 229.886L92.0879 227.201L92.0957 225.991L96.7552 228.676Z" fill="#DAB0FF"/>
<path d="M108.412 232.167V233.369L73.9004 213.462V212.26L108.412 232.167Z" fill="#DAB0FF"/>
<path d="M108.428 228.924L108.42 230.134L73.9082 210.227V209.017L108.428 228.924Z" fill="#DAB0FF"/>
<path d="M108.435 225.68L108.428 226.891L87.3896 214.757L87.3974 213.547L108.435 225.68Z" fill="#DAB0FF"/>
<path d="M99.5586 214.075V215.286L94.0293 212.097L94.0371 210.895L99.5586 214.075Z" fill="#DAB0FF"/>
<path d="M85.626 212.531V213.733L73.915 206.984V205.773L85.626 212.531Z" fill="#DAB0FF"/>
<path d="M108.442 222.446L108.435 223.649L73.9229 203.742L73.9306 202.539L108.442 222.446Z" fill="#DAB0FF"/>
<path d="M92.5533 210.041V211.243L73.9307 200.506L73.9384 199.296L92.5533 210.041Z" fill="#DAB0FF"/>
<path d="M111.852 217.093C112.621 217.535 113.242 218.606 113.234 219.49L113.172 241.825C113.172 242.702 112.543 243.059 111.782 242.617L70.483 218.8C69.7142 218.357 69.0929 217.287 69.1007 216.402L69.1628 194.067C69.1628 193.183 69.7918 192.826 70.5529 193.268L111.852 217.085V217.093ZM108.419 230.126V228.916L73.9078 209.009V210.219L108.419 230.126ZM108.435 223.648V222.438L73.9233 202.531V203.741L108.435 223.648ZM108.404 233.361V232.159L73.8922 212.252V213.454L108.404 233.361ZM108.419 226.883V225.681L87.3816 213.547V214.75L108.419 226.883ZM73.9233 199.296V200.498L92.5382 211.235V210.033L73.9233 199.296ZM91.0704 226.62V225.409L73.8767 215.487V216.697L91.0704 226.62ZM73.9 205.774V206.976L85.6032 213.734V212.531L73.9 205.774ZM94.0215 210.886V212.089L99.543 215.277V214.075L94.0215 210.886ZM96.7318 229.886V228.675L92.0722 225.991V227.201L96.7318 229.886ZM99.8614 231.693V230.483L98.2927 229.575V230.786L99.8614 231.693Z" fill="#ECD6FF"/>
</g>
<path d="M478.256 92.3361L511.245 85.6797" stroke="black" stroke-miterlimit="10"/>
<path d="M387.053 37.1143L418.334 64.7251L462.033 53.6621L478.256 92.3359" stroke="black" stroke-miterlimit="10"/>
<path d="M466.871 144.353C469.535 145.89 471.694 149.637 471.686 152.686C471.678 155.742 469.504 156.984 466.84 155.447C464.177 153.911 462.018 150.18 462.025 147.115C462.033 144.059 464.208 142.817 466.871 144.353ZM466.848 151.871C467.803 152.422 468.572 151.987 468.58 150.893C468.58 149.807 467.819 148.473 466.864 147.93C465.916 147.387 465.14 147.821 465.14 148.907C465.14 150.001 465.901 151.32 466.856 151.871" fill="url(#paint41_linear_2337_6874)"/>
<path d="M466.865 147.93C467.82 148.48 468.589 149.807 468.581 150.893C468.581 151.987 467.804 152.421 466.849 151.871C465.902 151.328 465.133 150.001 465.133 148.907C465.133 147.821 465.909 147.379 466.857 147.93H466.865Z" fill="white"/>
<path d="M466.879 143.166C470.117 145.036 472.742 149.574 472.727 153.29C472.719 157.006 470.078 158.511 466.84 156.642C463.602 154.772 460.977 150.233 460.992 146.517C461 142.801 463.648 141.296 466.879 143.166ZM466.848 155.447C469.511 156.983 471.686 155.749 471.694 152.685C471.701 149.628 469.543 145.889 466.879 144.353C464.215 142.817 462.041 144.058 462.033 147.115C462.025 150.171 464.184 153.911 466.848 155.447Z" fill="white"/>
<path d="M466.887 140.241C471.539 142.926 475.29 149.419 475.274 154.749C475.259 160.079 471.484 162.235 466.833 159.551C462.189 156.875 458.438 150.373 458.453 145.044C458.469 139.714 462.243 137.557 466.887 140.234V140.241ZM466.84 156.634C470.079 158.504 472.719 156.999 472.727 153.283C472.735 149.567 470.118 145.028 466.879 143.158C463.641 141.289 461 142.794 460.993 146.51C460.985 150.226 463.61 154.764 466.84 156.634Z" fill="url(#paint42_linear_2337_6874)"/>
<path d="M500.326 136.999C500.932 136.712 501.172 135.983 500.854 135.394L498.431 130.925C497.701 129.583 496.614 128.419 495.449 127.721C494.09 126.937 492.777 126.829 491.83 127.418L488.933 129.203C488.755 129.319 488.312 129.319 487.675 128.947C487.613 128.908 487.543 128.869 487.481 128.83C486.728 128.326 486.068 127.535 485.679 126.666L482.348 119.226C481.626 117.612 480.422 116.239 479.055 115.448C478.97 115.393 478.876 115.347 478.791 115.3C477.121 114.431 475.568 114.641 474.737 115.851L472.998 118.403C472.718 118.807 471.879 118.372 471.716 118.287L471.623 118.233C470.753 117.736 470.016 116.86 469.596 115.843C468.944 114.268 467.756 112.825 466.42 111.988C466.334 111.933 466.241 111.871 466.14 111.817C464.688 110.979 463.259 110.971 462.312 111.801L461.395 112.593C460.953 112.981 460.867 113.632 461.193 114.121L461.426 114.47C461.815 115.052 462.63 115.161 463.158 114.703L464.02 113.958C464.238 113.772 464.758 113.857 465.317 114.183L465.441 114.261C466.249 114.78 466.971 115.649 467.36 116.588C468.066 118.287 469.301 119.738 470.753 120.583L470.893 120.661C472.959 121.794 474.403 121.15 475.071 120.165L476.811 117.612C477.075 117.224 477.867 117.612 478.03 117.697C478.084 117.728 478.131 117.752 478.178 117.775C478.993 118.248 479.738 119.094 480.166 120.056L483.505 127.496C484.149 128.939 485.229 130.242 486.471 131.065C486.588 131.15 486.712 131.22 486.837 131.29C488.164 132.058 489.423 132.151 490.386 131.553L493.282 129.769C493.476 129.645 493.942 129.676 494.525 130.017C495.255 130.452 495.93 131.173 496.373 131.988L498.812 136.495C499.107 137.038 499.775 137.255 500.334 136.992L500.326 136.999Z" fill="#ECD6FF"/>
<path d="M406.382 134.004C406.987 133.717 407.228 132.988 406.91 132.398L404.487 127.93C403.757 126.588 402.669 125.424 401.505 124.726C400.146 123.942 398.833 123.834 397.886 124.423L394.989 126.207C394.81 126.324 394.368 126.324 393.731 125.951C393.669 125.913 393.599 125.874 393.537 125.835C392.783 125.331 392.123 124.54 391.735 123.671L388.403 116.231C387.681 114.617 386.478 113.244 385.111 112.453C385.025 112.398 384.932 112.352 384.847 112.305C383.177 111.436 381.624 111.646 380.793 112.856L379.053 115.408C378.774 115.812 377.935 115.377 377.772 115.292L377.679 115.238C376.809 114.741 376.071 113.864 375.652 112.848C375 111.273 373.811 109.83 372.476 108.992C372.39 108.938 372.297 108.876 372.196 108.822C370.744 107.984 369.315 107.976 368.367 108.806L367.451 109.598C367.008 109.985 366.923 110.637 367.249 111.126L367.482 111.475C367.87 112.057 368.686 112.165 369.214 111.708L370.076 110.963C370.293 110.777 370.814 110.862 371.373 111.188L371.497 111.266C372.305 111.785 373.027 112.654 373.415 113.593C374.122 115.292 375.357 116.743 376.809 117.588L376.949 117.666C379.015 118.799 380.459 118.155 381.127 117.169L382.866 114.617C383.13 114.229 383.923 114.617 384.086 114.702C384.14 114.733 384.187 114.757 384.233 114.78C385.049 115.253 385.794 116.099 386.221 117.061L389.561 124.508C390.205 125.951 391.285 127.255 392.527 128.077C392.644 128.163 392.768 128.232 392.892 128.302C394.22 129.07 395.478 129.163 396.441 128.566L399.338 126.782C399.532 126.657 399.998 126.688 400.58 127.03C401.31 127.464 401.986 128.186 402.429 129L404.867 133.508C405.162 134.051 405.83 134.268 406.389 134.004H406.382Z" fill="#ECD6FF"/>
<path d="M455.27 98.7087C458.771 96.1237 459.511 91.1931 456.923 87.6958C454.336 84.1986 449.4 83.4591 445.899 86.0441C442.398 88.6291 441.658 93.5597 444.246 97.0569C446.833 100.554 451.769 101.294 455.27 98.7087Z" fill="url(#paint43_linear_2337_6874)"/>
<path d="M387.052 42.8636C390.231 42.8636 392.807 40.2898 392.807 37.1149C392.807 33.94 390.231 31.3662 387.052 31.3662C383.874 31.3662 381.298 33.94 381.298 37.1149C381.298 40.2898 383.874 42.8636 387.052 42.8636Z" fill="url(#paint44_linear_2337_6874)"/>
<path d="M511.245 91.4281C514.423 91.4281 516.999 88.8543 516.999 85.6794C516.999 82.5044 514.423 79.9307 511.245 79.9307C508.067 79.9307 505.49 82.5044 505.49 85.6794C505.49 88.8543 508.067 91.4281 511.245 91.4281Z" fill="url(#paint45_linear_2337_6874)"/>
<path d="M385.717 77.3009C387.752 79.7447 387.418 83.3677 384.972 85.4003C382.525 87.4329 378.899 87.0993 376.864 84.6555C374.829 82.2117 375.163 78.5887 377.61 76.5561C380.056 74.5235 383.683 74.8571 385.717 77.3009Z" fill="url(#paint46_linear_2337_6874)"/>
<path d="M423.258 74.3165C428.562 71.5979 430.656 65.0984 427.935 59.7994C425.214 54.5005 418.707 52.4087 413.403 55.1273C408.099 57.8459 406.005 64.3455 408.726 69.6444C411.448 74.9434 417.954 77.0351 423.258 74.3165Z" fill="url(#paint47_linear_2337_6874)"/>
<path d="M462.032 67.2082C469.521 67.2082 475.591 61.1437 475.591 53.6627C475.591 46.1817 469.521 40.1172 462.032 40.1172C454.543 40.1172 448.473 46.1817 448.473 53.6627C448.473 61.1437 454.543 67.2082 462.032 67.2082Z" fill="url(#paint48_linear_2337_6874)"/>
<path d="M484.609 93.354C485.179 89.8349 482.785 86.5207 479.262 85.9513C475.74 85.382 472.422 87.7732 471.852 91.2922C471.282 94.8113 473.676 98.1256 477.199 98.6949C480.721 99.2643 484.039 96.873 484.609 93.354Z" fill="url(#paint49_linear_2337_6874)"/>
<path d="M429.696 25.6404C430.294 25.3533 430.534 24.6318 430.216 24.0422L427.808 19.6046C427.086 18.2702 426.007 17.1143 424.842 16.4238C423.498 15.648 422.186 15.5394 421.254 16.129L418.373 17.9056C418.194 18.022 417.759 18.022 417.123 17.6574C417.06 17.6186 416.991 17.5798 416.928 17.541C416.183 17.0367 415.531 16.2532 415.142 15.392L411.834 7.99861C411.112 6.3927 409.924 5.02729 408.565 4.24373C408.479 4.19718 408.394 4.14288 408.301 4.09633C406.646 3.22743 405.101 3.4369 404.27 4.64715L402.546 7.18402C402.274 7.58744 401.435 7.15299 401.272 7.06765L401.179 7.01334C400.317 6.51683 399.587 5.64793 399.168 4.63939C398.515 3.08003 397.335 1.64479 396.015 0.806926C395.929 0.75262 395.836 0.690556 395.735 0.63625C394.299 -0.193859 392.877 -0.201617 391.93 0.620734L391.021 1.41205C390.579 1.7922 390.493 2.44387 390.819 2.92487L391.052 3.27398C391.441 3.85583 392.248 3.95668 392.776 3.50672L393.631 2.76971C393.848 2.58351 394.368 2.66885 394.92 2.99469L395.044 3.07227C395.852 3.5843 396.566 4.4532 396.947 5.38416C397.646 7.07541 398.873 8.5184 400.317 9.34851L400.449 9.42609C402.499 10.551 403.936 9.90709 404.596 8.92958L406.32 6.40046C406.584 6.02032 407.369 6.40046 407.532 6.4858C407.586 6.51683 407.633 6.54011 407.679 6.56338C408.495 7.02886 409.225 7.87448 409.652 8.82872L412.968 16.2221C413.605 17.6574 414.684 18.9452 415.911 19.7675C416.028 19.8451 416.152 19.9227 416.276 19.9925C417.596 20.7528 418.847 20.8459 419.802 20.2485L422.683 18.4719C422.877 18.3478 423.335 18.3788 423.918 18.7124C424.648 19.1469 425.316 19.8606 425.758 20.6675L428.181 25.1438C428.476 25.6869 429.136 25.9041 429.696 25.6404Z" fill="#ECD6FF"/>
<path d="M359.53 47.3476C361.805 48.6587 363.646 51.8472 363.638 54.4539C363.638 57.0606 361.774 58.1157 359.507 56.8046C357.239 55.4935 355.399 52.3127 355.406 49.6982C355.406 47.0916 357.27 46.0365 359.538 47.3398L359.53 47.3476ZM359.514 53.7557C360.33 54.2212 360.982 53.8565 360.99 52.9178C360.99 51.9869 360.338 50.8542 359.522 50.3887C358.715 49.9232 358.054 50.2956 358.054 51.2266C358.054 52.1575 358.707 53.2902 359.514 53.7557Z" fill="url(#paint50_linear_2337_6874)"/>
<path d="M359.522 50.3967C360.338 50.8622 360.99 51.9948 360.99 52.9258C360.99 53.8568 360.33 54.2292 359.515 53.7637C358.707 53.2982 358.055 52.1733 358.055 51.2346C358.055 50.3036 358.715 49.9312 359.522 50.3967Z" fill="white"/>
<path d="M359.53 46.3387C362.295 47.9291 364.524 51.8004 364.516 54.9657C364.508 58.1309 362.256 59.4188 359.499 57.8206C356.743 56.2302 354.506 52.359 354.514 49.1937C354.521 46.0284 356.774 44.7484 359.53 46.3387ZM359.499 56.8121C361.775 58.1232 363.623 57.0681 363.631 54.4614C363.631 51.8547 361.798 48.6662 359.523 47.355C357.255 46.0439 355.399 47.1068 355.391 49.7135C355.391 52.3202 357.224 55.5087 359.492 56.8198" fill="white"/>
<path d="M359.538 43.8488C363.506 46.1374 366.698 51.6766 366.69 56.2228C366.675 60.769 363.46 62.6077 359.491 60.319C355.531 58.0382 352.331 52.499 352.347 47.9528C352.362 43.4066 355.577 41.5679 359.538 43.8565V43.8488ZM359.499 57.8287C362.264 59.4191 364.508 58.139 364.516 54.9738C364.524 51.8085 362.295 47.9372 359.53 46.3469C356.773 44.7565 354.521 46.0365 354.513 49.2018C354.506 52.3671 356.742 56.2383 359.499 57.8287Z" fill="url(#paint51_linear_2337_6874)"/>
<path d="M497.359 27.642C501.909 30.2642 505.591 36.6491 505.583 41.8702C505.567 47.0914 501.855 49.2016 497.312 46.5793C492.769 43.9571 489.088 37.58 489.096 32.3589C489.111 27.1455 492.823 25.0276 497.359 27.642ZM497.32 40.4738C498.943 41.4125 500.263 40.6677 500.271 38.8058C500.271 36.9516 498.966 34.6785 497.343 33.7398C495.728 32.8089 494.408 33.5614 494.4 35.4155C494.4 37.2852 495.705 39.5428 497.32 40.4738Z" fill="url(#paint52_linear_2337_6874)"/>
<path d="M497.344 33.747C498.967 34.6858 500.279 36.9511 500.271 38.813C500.271 40.6827 498.943 41.4197 497.32 40.481C495.705 39.55 494.393 37.2925 494.4 35.4228C494.4 33.5686 495.728 32.8161 497.344 33.747Z" fill="white"/>
<path d="M497.367 25.6172C502.897 28.8058 507.37 36.556 507.354 42.8943C507.339 49.2327 502.835 51.8083 497.305 48.612C491.784 45.4235 487.303 37.6732 487.318 31.3349C487.334 24.9966 491.846 22.4287 497.367 25.6172ZM497.305 46.5794C501.856 49.2016 505.568 47.0914 505.576 41.8703C505.592 36.6569 501.903 30.272 497.352 27.6421C492.809 25.0199 489.097 27.1456 489.089 32.359C489.073 37.5801 492.762 43.9572 497.305 46.5794Z" fill="white"/>
<path d="M497.382 20.6287C505.319 25.2059 511.718 36.2921 511.695 45.3923C511.672 54.4925 505.226 58.1698 497.289 53.5925C489.36 49.0231 482.961 37.9368 482.984 28.8289C483.008 19.7288 489.453 16.0515 497.382 20.6209V20.6287ZM497.305 48.6119C502.834 51.8004 507.338 49.2325 507.354 42.8942C507.369 36.5559 502.904 28.8057 497.367 25.6171C491.845 22.4286 487.333 24.9965 487.318 31.3348C487.302 37.6731 491.783 45.4233 497.305 48.6119Z" fill="url(#paint53_linear_2337_6874)"/>
<path d="M439.449 78.3326C439.775 78.1464 440.04 78.3016 440.04 78.6817L440.016 81.6453C440.016 82.0177 439.744 82.4754 439.418 82.6616L435.823 84.6864C435.489 84.8726 435.232 84.7175 435.232 84.3451L435.256 81.3815C435.256 81.0014 435.528 80.5514 435.854 80.3652L439.449 78.3404V78.3326Z" fill="url(#paint54_linear_2337_6874)"/>
<path d="M425.541 74.2207C425.207 74.4069 424.943 74.8569 424.943 75.237L424.92 78.2006C424.92 78.3868 424.982 78.5186 425.091 78.5807L435.404 84.7173C435.295 84.6552 435.233 84.5234 435.233 84.3372L435.256 81.3736C435.256 80.9935 435.528 80.5435 435.854 80.3573L425.541 74.2207Z" fill="url(#paint55_linear_2337_6874)"/>
<path d="M429.556 72.1573C429.447 72.0952 429.3 72.103 429.137 72.1961L425.541 74.2209L435.854 80.3575L439.45 78.3327C439.613 78.2396 439.76 78.2318 439.869 78.2939L429.556 72.1573Z" fill="url(#paint56_linear_2337_6874)"/>
<path d="M428.632 93.6396H420.408V111.615H428.632V93.6396Z" fill="url(#paint57_linear_2337_6874)"/>
<path d="M407.889 238C407.889 238 415.958 237.287 419.538 237.201C422.877 237.116 424.066 239.537 422.458 241.631C421.161 243.322 416.533 246.488 413.178 248.544C411.531 249.552 408.479 251.166 405.49 249.195C404.798 248.738 404.379 247.946 404.332 247.093L403.75 240.956L407.889 238Z" fill="url(#paint58_linear_2337_6874)"/>
<path d="M404.153 146.324C404.153 146.324 399.198 156.208 399.47 165.944C399.811 178.365 402.165 197.473 402.506 200.584C403.392 208.73 403.865 242.57 403.865 242.57C403.865 242.57 405.364 244.277 407.911 244.347C410.008 244.401 411.538 242.656 412.113 240.561C414.536 231.717 418.978 214.432 419.545 201.065C419.886 192.965 421.533 174.587 421.533 174.587L404.145 146.324H404.153Z" fill="url(#paint59_linear_2337_6874)"/>
<path d="M432.741 244.867C432.741 244.867 440.81 244.153 444.39 244.068C447.729 243.982 448.917 246.403 447.31 248.497C446.013 250.189 441.384 253.354 438.029 255.41C436.383 256.418 433.331 258.032 430.341 256.062C429.65 255.604 429.231 254.812 429.184 253.959L428.602 247.823L432.741 244.867Z" fill="url(#paint60_linear_2337_6874)"/>
<path d="M426.574 153.189C426.574 153.189 421.62 163.073 421.892 172.809C422.233 185.23 425.891 204.501 426.233 207.612C427.118 215.758 428.718 249.435 428.718 249.435C428.718 249.435 430.217 251.142 432.764 251.212C434.861 251.266 437.478 245.316 436.965 247.426C436.841 247.954 441.842 222.461 443.007 209.14C444.001 197.744 443.97 181.46 443.97 181.46L426.582 153.197L426.574 153.189Z" fill="url(#paint61_linear_2337_6874)"/>
<path d="M401.482 153.189C401.482 153.189 395.712 153.236 397.335 185.199C397.335 185.199 425.331 196.44 445.351 185.005C445.351 185.005 445.491 172.926 438.362 153.189H401.482Z" fill="url(#paint62_linear_2337_6874)"/>
<path d="M466.11 108.03L452.729 115.765C451.898 116.246 450.881 116.254 450.042 115.781L437.384 108.612C436.972 108.379 436.545 108.178 436.11 108.007L413.294 99.0388C413.038 98.938 412.781 98.8449 412.517 98.7595C406.576 96.8743 400.372 100.893 398.935 107.169L393.32 131.809C392.202 136.72 396.939 140.94 401.591 139.489C401.591 139.489 403.183 140.242 400.861 150.49C398.888 159.187 434.542 163.423 438.867 156.588C441.018 153.198 436.444 147.775 438.657 128.465L447.542 130.319C450.198 130.87 452.947 130.117 454.981 128.263L470.024 114.663C471.158 109.365 466.118 108.03 466.118 108.03H466.11Z" fill="url(#paint63_linear_2337_6874)"/>
<path d="M396.232 119.023L393.32 131.809C392.202 136.719 396.939 140.94 401.591 139.489V121.041C401.591 121.041 398.904 120.575 396.24 119.023H396.232Z" fill="url(#paint64_linear_2337_6874)"/>
<path d="M463.361 109.621L452.729 115.765C451.898 116.246 450.881 116.254 450.042 115.781L448 114.625C447.215 122.026 445.01 127.084 443.713 129.528L447.534 130.327C450.19 130.878 452.939 130.125 454.973 128.271L470.979 113.903C472.113 108.604 463.361 109.628 463.361 109.628V109.621Z" fill="url(#paint65_linear_2337_6874)"/>
<path d="M426.613 105.781C427.731 103.888 429.121 100.528 428.927 97.6501L433.307 80.2721C433.307 80.2721 434.767 70.1324 421.984 70.5746C415.647 70.7918 408.58 75.532 408.712 84.6399C408.845 93.7478 404.931 96.4864 398.104 102.623C388.024 111.692 412.145 130.203 426.605 105.781H426.613Z" fill="url(#paint66_linear_2337_6874)"/>
<path d="M428.927 97.6502L429.549 97.1848C432.391 95.0358 433.983 91.5292 433.765 87.8829L433.315 80.28C433.276 79.5896 432.337 79.4732 432.142 80.1326C431.381 82.7548 430.03 85.7805 427.755 86.8278C426.994 85.9046 425.425 84.8107 424.772 85.858C424.12 86.9054 424.508 88.8914 425.906 90.1793C427.188 91.3585 428.632 93.0187 428.927 97.6502Z" fill="url(#paint67_linear_2337_6874)"/>
<path d="M464.309 113.088L467.671 114.43C469.45 115.136 471.453 114.174 472.059 112.297C472.564 110.737 473.069 108.93 473.201 107.533C473.372 105.741 472.331 100.055 470.265 99.0073C468.836 98.2858 467.539 98.4487 466.064 101.971C465.52 103.266 465.225 106.331 465.225 106.331C465.225 106.331 464.689 102.956 463.509 102.894C462.274 102.832 461.979 106.61 462.15 110.055C462.22 111.42 463.074 112.607 464.309 113.096V113.088Z" fill="url(#paint68_linear_2337_6874)"/>
<path d="M432.609 83.0576C432.609 83.0576 422.692 92.2431 408.736 83.5774" stroke="#BA6CFF" stroke-width="1.5" stroke-miterlimit="10" stroke-linecap="round"/>
<path d="M412.829 85.6798C412.829 85.6798 411.494 71.9093 426.513 70.9473" stroke="#BA6CFF" stroke-width="1.5" stroke-miterlimit="10" stroke-linecap="round"/>
<path d="M432.709 84.7253L434.41 84.0426C434.619 83.9573 434.759 83.7478 434.759 83.5151V81.0403C434.759 80.823 434.658 80.6291 434.479 80.4972L433.353 79.6826C433.353 79.6826 433.353 80.6756 432.406 81.017C432.181 81.0946 431.994 81.2653 432.002 81.5058L432.018 84.2599C432.018 84.6167 432.383 84.8495 432.709 84.7176V84.7253Z" fill="#B25AFF"/>
<defs>
<linearGradient id="paint0_linear_2337_6874" x1="243.026" y1="110.419" x2="243.026" y2="39.1849" gradientUnits="userSpaceOnUse">
<stop stop-color="#AE52FF"/>
<stop offset="1" stop-color="#C481FF"/>
</linearGradient>
<linearGradient id="paint1_linear_2337_6874" x1="206.86" y1="87.7116" x2="258.313" y2="118.386" gradientUnits="userSpaceOnUse">
<stop stop-color="#AE52FF"/>
<stop offset="1" stop-color="#C481FF"/>
</linearGradient>
<linearGradient id="paint2_linear_2337_6874" x1="209.12" y1="71.2725" x2="209.12" y2="202.608" gradientUnits="userSpaceOnUse">
<stop stop-color="#AE52FF"/>
<stop offset="1" stop-color="#C481FF"/>
</linearGradient>
<linearGradient id="paint3_linear_2337_6874" x1="201.859" y1="119.752" x2="201.859" y2="78.953" gradientUnits="userSpaceOnUse">
<stop stop-color="#AE52FF"/>
<stop offset="1" stop-color="#C481FF"/>
</linearGradient>
<linearGradient id="paint4_linear_2337_6874" x1="226.05" y1="71.2723" x2="226.05" y2="202.608" gradientUnits="userSpaceOnUse">
<stop stop-color="#AE52FF"/>
<stop offset="1" stop-color="#C481FF"/>
</linearGradient>
<linearGradient id="paint5_linear_2337_6874" x1="226.096" y1="181.258" x2="226.096" y2="121.319" gradientUnits="userSpaceOnUse">
<stop stop-color="#AE52FF"/>
<stop offset="1" stop-color="#C481FF"/>
</linearGradient>
<linearGradient id="paint6_linear_2337_6874" x1="224.016" y1="98.8833" x2="281.301" y2="165" gradientUnits="userSpaceOnUse">
<stop offset="0.13" stop-color="#7231FF"/>
<stop offset="1" stop-color="#B08CFF"/>
</linearGradient>
<linearGradient id="paint7_linear_2337_6874" x1="205.626" y1="114.81" x2="263.089" y2="181.13" gradientUnits="userSpaceOnUse">
<stop offset="0.13" stop-color="#7231FF"/>
<stop offset="1" stop-color="#B08CFF"/>
</linearGradient>
<linearGradient id="paint8_linear_2337_6874" x1="232.729" y1="49.9382" x2="221.669" y2="109.679" gradientUnits="userSpaceOnUse">
<stop stop-color="#D9AEFF"/>
<stop offset="1" stop-color="#F7EEFF"/>
</linearGradient>
<linearGradient id="paint9_linear_2337_6874" x1="216.677" y1="59.2629" x2="216.677" y2="67.4631" gradientUnits="userSpaceOnUse">
<stop stop-color="#C0A2FF"/>
<stop offset="1" stop-color="#13BCE0"/>
</linearGradient>
<linearGradient id="paint10_linear_2337_6874" x1="216.491" y1="54.1582" x2="216.491" y2="33.584" gradientUnits="userSpaceOnUse">
<stop offset="0.13" stop-color="#7231FF"/>
<stop offset="1" stop-color="#B08CFF"/>
</linearGradient>
<linearGradient id="paint11_linear_2337_6874" x1="217.275" y1="49.7208" x2="217.275" y2="59.3485" gradientUnits="userSpaceOnUse">
<stop stop-color="#C0A2FF"/>
<stop offset="1" stop-color="#13BCE0"/>
</linearGradient>
<linearGradient id="paint12_linear_2337_6874" x1="190.304" y1="183.803" x2="190.304" y2="125.734" gradientUnits="userSpaceOnUse">
<stop stop-color="#AE52FF"/>
<stop offset="1" stop-color="#C481FF"/>
</linearGradient>
<linearGradient id="paint13_linear_2337_6874" x1="167.278" y1="124.477" x2="208.351" y2="150.248" gradientUnits="userSpaceOnUse">
<stop stop-color="#AE52FF"/>
<stop offset="1" stop-color="#C481FF"/>
</linearGradient>
<linearGradient id="paint14_linear_2337_6874" x1="260.896" y1="91.7768" x2="260.896" y2="101.723" gradientUnits="userSpaceOnUse">
<stop stop-color="#C0A2FF"/>
<stop offset="0.13" stop-color="#9CA7F8"/>
<stop offset="0.34" stop-color="#6BAEEF"/>
<stop offset="0.54" stop-color="#45B4E9"/>
<stop offset="0.72" stop-color="#29B8E4"/>
<stop offset="0.88" stop-color="#18BBE1"/>
<stop offset="1" stop-color="#13BCE0"/>
</linearGradient>
<linearGradient id="paint15_linear_2337_6874" x1="255.297" y1="96.1917" x2="266.417" y2="96.1917" gradientUnits="userSpaceOnUse">
<stop stop-color="#AE52FF"/>
<stop offset="1" stop-color="#C481FF"/>
</linearGradient>
<linearGradient id="paint16_linear_2337_6874" x1="264.352" y1="91.7771" x2="257.471" y2="91.7771" gradientUnits="userSpaceOnUse">
<stop stop-color="#AE52FF"/>
<stop offset="1" stop-color="#C481FF"/>
</linearGradient>
<linearGradient id="paint17_linear_2337_6874" x1="261.02" y1="91.7923" x2="261.02" y2="102.382" gradientUnits="userSpaceOnUse">
<stop stop-color="#C0A2FF"/>
<stop offset="0.13" stop-color="#9CA7F8"/>
<stop offset="0.34" stop-color="#6BAEEF"/>
<stop offset="0.54" stop-color="#45B4E9"/>
<stop offset="0.72" stop-color="#29B8E4"/>
<stop offset="0.88" stop-color="#18BBE1"/>
<stop offset="1" stop-color="#13BCE0"/>
</linearGradient>
<linearGradient id="paint18_linear_2337_6874" x1="220.031" y1="106.261" x2="220.031" y2="116.215" gradientUnits="userSpaceOnUse">
<stop stop-color="#C0A2FF"/>
<stop offset="0.13" stop-color="#9CA7F8"/>
<stop offset="0.34" stop-color="#6BAEEF"/>
<stop offset="0.54" stop-color="#45B4E9"/>
<stop offset="0.72" stop-color="#29B8E4"/>
<stop offset="0.88" stop-color="#18BBE1"/>
<stop offset="1" stop-color="#13BCE0"/>
</linearGradient>
<linearGradient id="paint19_linear_2337_6874" x1="216.684" y1="110.404" x2="227.805" y2="110.404" gradientUnits="userSpaceOnUse">
<stop stop-color="#AE52FF"/>
<stop offset="1" stop-color="#C481FF"/>
</linearGradient>
<linearGradient id="paint20_linear_2337_6874" x1="225.732" y1="105.982" x2="218.851" y2="105.982" gradientUnits="userSpaceOnUse">
<stop stop-color="#AE52FF"/>
<stop offset="1" stop-color="#C481FF"/>
</linearGradient>
<linearGradient id="paint21_linear_2337_6874" x1="220.784" y1="105.57" x2="220.784" y2="117.774" gradientUnits="userSpaceOnUse">
<stop stop-color="#C0A2FF"/>
<stop offset="0.13" stop-color="#9CA7F8"/>
<stop offset="0.34" stop-color="#6BAEEF"/>
<stop offset="0.54" stop-color="#45B4E9"/>
<stop offset="0.72" stop-color="#29B8E4"/>
<stop offset="0.88" stop-color="#18BBE1"/>
<stop offset="1" stop-color="#13BCE0"/>
</linearGradient>
<linearGradient id="paint22_linear_2337_6874" x1="221.623" y1="52.5683" x2="221.623" y2="59.822" gradientUnits="userSpaceOnUse">
<stop stop-color="#BA6CFF"/>
<stop offset="0.44" stop-color="#CD94FF"/>
<stop offset="0.79" stop-color="#D9AEFF"/>
<stop offset="1" stop-color="#DEB8FF"/>
</linearGradient>
<linearGradient id="paint23_linear_2337_6874" x1="228.504" y1="56.82" x2="228.504" y2="47.6035" gradientUnits="userSpaceOnUse">
<stop stop-color="#BA6CFF"/>
<stop offset="1" stop-color="#DEB8FF"/>
</linearGradient>
<linearGradient id="paint24_linear_2337_6874" x1="234.041" y1="45.6402" x2="225.076" y2="51.3429" gradientUnits="userSpaceOnUse">
<stop stop-color="#BA6CFF"/>
<stop offset="0.44" stop-color="#CD94FF"/>
<stop offset="0.79" stop-color="#D9AEFF"/>
<stop offset="1" stop-color="#DEB8FF"/>
</linearGradient>
<linearGradient id="paint25_linear_2337_6874" x1="267.597" y1="219.256" x2="267.597" y2="261.599" gradientUnits="userSpaceOnUse">
<stop offset="0.13" stop-color="#7231FF"/>
<stop offset="1" stop-color="#B08CFF"/>
</linearGradient>
<linearGradient id="paint26_linear_2337_6874" x1="322.075" y1="241.747" x2="322.075" y2="178.294" gradientUnits="userSpaceOnUse">
<stop offset="0.13" stop-color="#7231FF"/>
<stop offset="1" stop-color="#B08CFF"/>
</linearGradient>
<linearGradient id="paint27_linear_2337_6874" x1="368.982" y1="162.398" x2="296.677" y2="208.407" gradientUnits="userSpaceOnUse">
<stop offset="0.13" stop-color="#7231FF"/>
<stop offset="1" stop-color="#B08CFF"/>
</linearGradient>
<linearGradient id="paint28_linear_2337_6874" x1="302.987" y1="225.797" x2="302.987" y2="129.24" gradientUnits="userSpaceOnUse">
<stop stop-color="#BA6CFF"/>
<stop offset="0.44" stop-color="#CD94FF"/>
<stop offset="0.79" stop-color="#D9AEFF"/>
<stop offset="1" stop-color="#DEB8FF"/>
</linearGradient>
<linearGradient id="paint29_linear_2337_6874" x1="306.761" y1="190.242" x2="306.761" y2="151.11" gradientUnits="userSpaceOnUse">
<stop stop-color="#BA6CFF"/>
<stop offset="0.44" stop-color="#CD94FF"/>
<stop offset="0.79" stop-color="#D9AEFF"/>
<stop offset="1" stop-color="#DEB8FF"/>
</linearGradient>
<linearGradient id="paint30_linear_2337_6874" x1="95.4046" y1="100.148" x2="64.9309" y2="130.489" gradientUnits="userSpaceOnUse">
<stop stop-color="#C0A2FF"/>
<stop offset="0.13" stop-color="#9CA7F8"/>
<stop offset="0.34" stop-color="#6BAEEF"/>
<stop offset="0.54" stop-color="#45B4E9"/>
<stop offset="0.72" stop-color="#29B8E4"/>
<stop offset="0.88" stop-color="#18BBE1"/>
<stop offset="1" stop-color="#13BCE0"/>
</linearGradient>
<linearGradient id="paint31_linear_2337_6874" x1="105.943" y1="90.753" x2="113.197" y2="145.511" gradientUnits="userSpaceOnUse">
<stop stop-color="#AE52FF"/>
<stop offset="1" stop-color="#C481FF"/>
</linearGradient>
<linearGradient id="paint32_linear_2337_6874" x1="112.427" y1="124.035" x2="112.427" y2="207.356" gradientUnits="userSpaceOnUse">
<stop stop-color="#D9AEFF"/>
<stop offset="1" stop-color="#F7EEFF"/>
</linearGradient>
<linearGradient id="paint33_linear_2337_6874" x1="136.533" y1="112.072" x2="123.883" y2="171.403" gradientUnits="userSpaceOnUse">
<stop stop-color="#C0A2FF"/>
<stop offset="1" stop-color="#13BCE0"/>
</linearGradient>
<linearGradient id="paint34_linear_2337_6874" x1="116.737" y1="88.0301" x2="116.737" y2="96.4476" gradientUnits="userSpaceOnUse">
<stop stop-color="#C0A2FF"/>
<stop offset="1" stop-color="#13BCE0"/>
</linearGradient>
<linearGradient id="paint35_linear_2337_6874" x1="116.131" y1="78.2389" x2="116.131" y2="88.1226" gradientUnits="userSpaceOnUse">
<stop stop-color="#C0A2FF"/>
<stop offset="1" stop-color="#13BCE0"/>
</linearGradient>
<linearGradient id="paint36_linear_2337_6874" x1="101.874" y1="106.657" x2="71.3921" y2="136.998" gradientUnits="userSpaceOnUse">
<stop stop-color="#C0A2FF"/>
<stop offset="0.13" stop-color="#9CA7F8"/>
<stop offset="0.34" stop-color="#6BAEEF"/>
<stop offset="0.54" stop-color="#45B4E9"/>
<stop offset="0.72" stop-color="#29B8E4"/>
<stop offset="0.88" stop-color="#18BBE1"/>
<stop offset="1" stop-color="#13BCE0"/>
</linearGradient>
<linearGradient id="paint37_linear_2337_6874" x1="141.34" y1="113.096" x2="128.69" y2="172.426" gradientUnits="userSpaceOnUse">
<stop stop-color="#C0A2FF"/>
<stop offset="1" stop-color="#13BCE0"/>
</linearGradient>
<linearGradient id="paint38_linear_2337_6874" x1="111.799" y1="82.0791" x2="111.799" y2="89.0458" gradientUnits="userSpaceOnUse">
<stop stop-color="#BA6CFF"/>
<stop offset="0.44" stop-color="#CD94FF"/>
<stop offset="0.79" stop-color="#D9AEFF"/>
<stop offset="1" stop-color="#DEB8FF"/>
</linearGradient>
<linearGradient id="paint39_linear_2337_6874" x1="105.198" y1="86.1592" x2="105.198" y2="77.315" gradientUnits="userSpaceOnUse">
<stop stop-color="#BA6CFF"/>
<stop offset="1" stop-color="#DEB8FF"/>
</linearGradient>
<linearGradient id="paint40_linear_2337_6874" x1="99.8853" y1="75.43" x2="108.485" y2="80.8995" gradientUnits="userSpaceOnUse">
<stop stop-color="#BA6CFF"/>
<stop offset="0.44" stop-color="#CD94FF"/>
<stop offset="0.79" stop-color="#D9AEFF"/>
<stop offset="1" stop-color="#DEB8FF"/>
</linearGradient>
<linearGradient id="paint41_linear_2337_6874" x1="451.759" y1="159.668" x2="475.136" y2="144.526" gradientUnits="userSpaceOnUse">
<stop offset="0.13" stop-color="#7231FF"/>
<stop offset="1" stop-color="#B08CFF"/>
</linearGradient>
<linearGradient id="paint42_linear_2337_6874" x1="451.759" y1="159.667" x2="475.136" y2="144.525" gradientUnits="userSpaceOnUse">
<stop offset="0.13" stop-color="#7231FF"/>
<stop offset="1" stop-color="#B08CFF"/>
</linearGradient>
<linearGradient id="paint43_linear_2337_6874" x1="438.7" y1="106.037" x2="456.262" y2="85.7627" gradientUnits="userSpaceOnUse">
<stop stop-color="#D9AEFF"/>
<stop offset="1" stop-color="#F7EEFF"/>
</linearGradient>
<linearGradient id="paint44_linear_2337_6874" x1="381.29" y1="37.1149" x2="392.807" y2="37.1149" gradientUnits="userSpaceOnUse">
<stop stop-color="#D9AEFF"/>
<stop offset="1" stop-color="#F7EEFF"/>
</linearGradient>
<linearGradient id="paint45_linear_2337_6874" x1="502.562" y1="95.6872" x2="515.385" y2="80.8875" gradientUnits="userSpaceOnUse">
<stop offset="0.13" stop-color="#7231FF"/>
<stop offset="1" stop-color="#B08CFF"/>
</linearGradient>
<linearGradient id="paint46_linear_2337_6874" x1="381.049" y1="94.205" x2="381.451" y2="74.6419" gradientUnits="userSpaceOnUse">
<stop offset="0.13" stop-color="#7231FF"/>
<stop offset="1" stop-color="#B08CFF"/>
</linearGradient>
<linearGradient id="paint47_linear_2337_6874" x1="404.873" y1="77.0072" x2="426.482" y2="57.2411" gradientUnits="userSpaceOnUse">
<stop offset="0.13" stop-color="#7231FF"/>
<stop offset="1" stop-color="#B08CFF"/>
</linearGradient>
<linearGradient id="paint48_linear_2337_6874" x1="441.569" y1="77.2316" x2="471.774" y2="42.3677" gradientUnits="userSpaceOnUse">
<stop stop-color="#D9AEFF"/>
<stop offset="1" stop-color="#F7EEFF"/>
</linearGradient>
<linearGradient id="paint49_linear_2337_6874" x1="470.168" y1="99.6976" x2="483.102" y2="87.8691" gradientUnits="userSpaceOnUse">
<stop offset="0.13" stop-color="#7231FF"/>
<stop offset="1" stop-color="#B08CFF"/>
</linearGradient>
<linearGradient id="paint50_linear_2337_6874" x1="341.35" y1="55.7961" x2="368.016" y2="50.3315" gradientUnits="userSpaceOnUse">
<stop stop-color="#D9AEFF"/>
<stop offset="1" stop-color="#F7EEFF"/>
</linearGradient>
<linearGradient id="paint51_linear_2337_6874" x1="341.35" y1="55.7961" x2="368.016" y2="50.3316" gradientUnits="userSpaceOnUse">
<stop stop-color="#D9AEFF"/>
<stop offset="1" stop-color="#F7EEFF"/>
</linearGradient>
<linearGradient id="paint52_linear_2337_6874" x1="460.975" y1="44.5467" x2="514.346" y2="33.6176" gradientUnits="userSpaceOnUse">
<stop stop-color="#D9AEFF"/>
<stop offset="1" stop-color="#F7EEFF"/>
</linearGradient>
<linearGradient id="paint53_linear_2337_6874" x1="460.976" y1="44.5467" x2="514.347" y2="33.6176" gradientUnits="userSpaceOnUse">
<stop stop-color="#D9AEFF"/>
<stop offset="1" stop-color="#F7EEFF"/>
</linearGradient>
<linearGradient id="paint54_linear_2337_6874" x1="437.697" y1="78.4976" x2="437.622" y2="85.5415" gradientUnits="userSpaceOnUse">
<stop stop-color="#BA6CFF"/>
<stop offset="0.44" stop-color="#CD94FF"/>
<stop offset="0.79" stop-color="#D9AEFF"/>
<stop offset="1" stop-color="#DEB8FF"/>
</linearGradient>
<linearGradient id="paint55_linear_2337_6874" x1="430.379" y1="82.3997" x2="430.481" y2="72.8036" gradientUnits="userSpaceOnUse">
<stop stop-color="#BA6CFF"/>
<stop offset="1" stop-color="#DEB8FF"/>
</linearGradient>
<linearGradient id="paint56_linear_2337_6874" x1="424.305" y1="70.7597" x2="433.871" y2="76.9918" gradientUnits="userSpaceOnUse">
<stop stop-color="#BA6CFF"/>
<stop offset="0.44" stop-color="#CD94FF"/>
<stop offset="0.79" stop-color="#D9AEFF"/>
<stop offset="1" stop-color="#DEB8FF"/>
</linearGradient>
<linearGradient id="paint57_linear_2337_6874" x1="424.516" y1="97.7281" x2="424.516" y2="105.238" gradientUnits="userSpaceOnUse">
<stop stop-color="#C0A2FF"/>
<stop offset="1" stop-color="#13BCE0"/>
</linearGradient>
<linearGradient id="paint58_linear_2337_6874" x1="403.75" y1="243.664" x2="423.173" y2="243.664" gradientUnits="userSpaceOnUse">
<stop stop-color="#D9AEFF"/>
<stop offset="1" stop-color="#F7EEFF"/>
</linearGradient>
<linearGradient id="paint59_linear_2337_6874" x1="410.497" y1="168.124" x2="410.497" y2="225.572" gradientUnits="userSpaceOnUse">
<stop stop-color="#C0A2FF"/>
<stop offset="1" stop-color="#13BCE0"/>
</linearGradient>
<linearGradient id="paint60_linear_2337_6874" x1="428.602" y1="250.53" x2="448.024" y2="250.53" gradientUnits="userSpaceOnUse">
<stop stop-color="#D9AEFF"/>
<stop offset="1" stop-color="#F7EEFF"/>
</linearGradient>
<linearGradient id="paint61_linear_2337_6874" x1="432.919" y1="168.124" x2="432.919" y2="225.572" gradientUnits="userSpaceOnUse">
<stop stop-color="#C0A2FF"/>
<stop offset="1" stop-color="#13BCE0"/>
</linearGradient>
<linearGradient id="paint62_linear_2337_6874" x1="424.935" y1="152.142" x2="419.029" y2="189.662" gradientUnits="userSpaceOnUse">
<stop stop-color="#D9AEFF"/>
<stop offset="1" stop-color="#F7EEFF"/>
</linearGradient>
<linearGradient id="paint63_linear_2337_6874" x1="433.617" y1="166.425" x2="431.223" y2="113.306" gradientUnits="userSpaceOnUse">
<stop offset="0.13" stop-color="#7231FF"/>
<stop offset="1" stop-color="#B08CFF"/>
</linearGradient>
<linearGradient id="paint64_linear_2337_6874" x1="398.438" y1="120.746" x2="397.392" y2="136.037" gradientUnits="userSpaceOnUse">
<stop stop-color="#C0A2FF"/>
<stop offset="1" stop-color="#13BCE0"/>
</linearGradient>
<linearGradient id="paint65_linear_2337_6874" x1="441.826" y1="126.968" x2="472.168" y2="109.982" gradientUnits="userSpaceOnUse">
<stop stop-color="#C0A2FF"/>
<stop offset="1" stop-color="#13BCE0"/>
</linearGradient>
<linearGradient id="paint66_linear_2337_6874" x1="418.109" y1="70.916" x2="410.746" y2="117.699" gradientUnits="userSpaceOnUse">
<stop stop-color="#AE52FF"/>
<stop offset="1" stop-color="#C481FF"/>
</linearGradient>
<linearGradient id="paint67_linear_2337_6874" x1="424.462" y1="88.6665" x2="433.789" y2="88.6665" gradientUnits="userSpaceOnUse">
<stop stop-color="#C0A2FF"/>
<stop offset="1" stop-color="#13BCE0"/>
</linearGradient>
<linearGradient id="paint68_linear_2337_6874" x1="439.629" y1="123.166" x2="470.126" y2="106.087" gradientUnits="userSpaceOnUse">
<stop stop-color="#C0A2FF"/>
<stop offset="1" stop-color="#13BCE0"/>
</linearGradient>
</defs>
</svg>
