<svg width="662" height="579" viewBox="0 0 662 579" fill="none" xmlns="http://www.w3.org/2000/svg">
<path d="M59.2404 26.9555C171.409 -56.0341 347.457 130.503 474.455 26.9555C601.453 -76.5915 596.89 369.955 474.455 441.905C352.02 513.855 -85.6286 566.771 59.2404 441.905C204.109 317.039 -52.9282 109.945 59.2404 26.9555Z" fill="#FFFAEF"/>
<path d="M557.278 413.171C551.453 413.171 546.719 417.918 546.719 423.725C546.719 429.548 551.453 434.279 557.278 434.279C563.104 434.279 567.837 429.548 567.837 423.725C567.837 417.918 563.104 413.171 557.278 413.171ZM477.415 299.068C477.454 299.106 477.5 299.135 477.551 299.155C477.601 299.175 477.655 299.184 477.71 299.183C477.764 299.182 477.818 299.17 477.867 299.148C477.917 299.126 477.962 299.095 478 299.056C478.037 299.016 478.067 298.97 478.086 298.92C478.106 298.869 478.116 298.815 478.115 298.761C478.113 298.706 478.102 298.653 478.08 298.603C478.058 298.553 478.026 298.508 477.987 298.471C477.938 298.421 476.743 297.303 474.542 298.398C474.443 298.447 474.369 298.533 474.334 298.637C474.299 298.741 474.307 298.854 474.356 298.952C474.738 299.736 476.216 298.009 477.415 299.068ZM476.014 300.506C475.587 300.506 475.245 300.848 475.245 301.275C475.245 301.702 475.587 302.044 476.014 302.044C476.441 302.044 476.784 301.703 476.784 301.275C476.784 300.846 476.443 300.506 476.014 300.506ZM468.478 300.583C468.051 300.583 467.708 300.924 467.708 301.353C467.708 301.781 468.051 302.122 468.478 302.122C468.905 302.122 469.247 301.779 469.247 301.353C469.247 300.926 468.905 300.583 468.478 300.583ZM471.824 306.78L471.874 306.784C471.979 306.783 472.079 306.742 472.156 306.67C472.232 306.598 472.278 306.5 472.284 306.395C472.29 306.29 472.257 306.187 472.19 306.106C472.123 306.025 472.027 305.973 471.923 305.96C471.453 305.903 471.137 305.738 471.063 305.51C470.977 305.247 471.174 304.848 471.579 304.464C472.771 303.339 472.122 299.938 472.044 299.554C472.022 299.447 471.958 299.352 471.867 299.292C471.775 299.231 471.663 299.21 471.556 299.232C471.448 299.254 471.354 299.317 471.293 299.409C471.233 299.5 471.211 299.612 471.233 299.72C471.491 300.995 471.66 303.248 471.01 303.862C470.351 304.487 470.083 305.181 470.277 305.768C470.382 306.089 470.725 306.648 471.824 306.78ZM474.025 308.737C473.955 308.653 473.854 308.6 473.745 308.59C473.636 308.58 473.527 308.614 473.443 308.684C473.436 308.691 472.45 309.487 471.081 308.547C471.036 308.515 470.985 308.491 470.932 308.479C470.878 308.466 470.822 308.465 470.768 308.474C470.713 308.484 470.661 308.504 470.615 308.534C470.568 308.563 470.528 308.602 470.497 308.648C470.466 308.693 470.444 308.744 470.433 308.799C470.422 308.853 470.421 308.908 470.432 308.962C470.443 309.017 470.464 309.068 470.495 309.114C470.526 309.159 470.566 309.199 470.613 309.229C471.852 310.081 473.218 309.948 473.972 309.32C474.056 309.249 474.109 309.148 474.119 309.039C474.129 308.93 474.095 308.822 474.025 308.737ZM439.211 377.273C441.979 377.273 443.921 375.14 443.575 372.508C443.249 370.067 441.076 368.048 438.577 367.761C438.749 368.105 438.865 368.49 438.923 368.874C439.191 370.874 437.711 372.507 435.614 372.507C434.865 372.507 434.153 372.297 433.519 371.949C433.519 372.123 433.539 372.313 433.557 372.507C433.921 375.14 436.46 377.273 439.211 377.273Z" fill="#7764F0"/>
<path d="M583.275 499.867H561.376V447.094C572.608 445.13 580.991 435.214 580.991 423.735C580.991 410.653 570.349 400.011 557.271 400.011C554.574 400.011 551.989 400.489 549.567 401.326L543.785 377.185C543.801 377.169 543.801 377.136 543.801 377.119C545.109 367.513 537.306 353.56 529.481 342.343L529.472 342.326L529.453 342.303C526.929 338.699 524.291 335.177 521.542 331.742C513.181 321.229 502.228 318.683 488.706 317.929C488.061 315.699 488.071 313.353 488.683 310.976C491.308 308.216 493.436 296.85 493.436 296.85C494.938 286.82 489.266 287.478 489.266 287.478C482.879 279.394 474.397 286.358 469.53 286.502C464.664 286.645 463.666 281.223 462.445 282.78C457.882 288.597 465.02 294.99 465.02 294.99C465.1 295.05 465.191 295.091 465.272 295.148C464.623 300.011 464.918 306.706 467.82 310.483C468.962 311.973 470.435 312.898 472.19 313.245C472.355 315.216 472.074 317.217 471.395 318.771C469.591 319.004 467.688 319.302 465.669 319.633C454.155 321.56 444.561 329.433 440.546 339.831C439.771 341.327 438.911 345.529 438.775 346.697H405.99C405.866 346.694 405.743 346.719 405.631 346.77C405.518 346.822 405.419 346.899 405.341 346.994C405.262 347.09 405.207 347.203 405.179 347.323C405.151 347.444 405.151 347.569 405.179 347.689L406.354 353.496H371.483V204.379C371.483 203.932 371.119 203.551 370.655 203.551H344.19C344.637 197.751 344.821 194.089 344.821 194.089L344.25 194C344.258 193.945 344.281 193.894 344.278 193.837C343.75 183.257 345.119 183.161 348.887 180.107C351.394 178.08 353.985 175.984 354.243 173.725C355.141 165.906 344.692 150.877 337.3 149.359C336.106 149.115 334.656 149.256 333.097 149.646C332.12 149.527 330.512 149.706 329.548 149.862C329.716 149.823 337.865 146.172 347.841 148.495C348.018 148.536 364.76 152.439 363.718 152.192C376.345 157.761 378.866 137.908 368.668 114.139C358.845 91.2535 343.242 79.0118 338.03 90.6298C337.799 90.9044 339.275 88.5454 326.212 110.276C323.458 114.856 319.553 118.636 314.885 121.241L294.039 132.728C288.45 135.863 285.33 142.053 286.259 148.187C287.036 153.172 290.15 156.785 295.51 158.917C301.321 161.226 306.939 159.458 313.296 156.184L317.116 160.937C314.663 168.308 313.862 181.405 313.621 189.162L310.562 188.679C310.562 188.679 308.838 195.488 306.805 203.551H286.002C273.76 196.087 267.324 195.819 259.141 194.354C258.468 194.018 252.909 193.335 250.072 193.113C250.463 187.756 255.148 191.763 259.373 188.216C264.106 188.927 268.012 188.58 269.949 185.751C268.989 183.154 268.26 179.845 267.979 175.478C267.4 166.363 264.586 159.531 260.151 154.932C259.803 151.623 257.437 148.133 249.261 147.653C233.191 146.727 221.606 155.809 220.365 175.478C220.083 179.845 219.355 183.154 218.395 185.751C223.766 188.329 231.457 190.602 236.302 187.141L236.832 187.769L236.302 192.6C233.57 192.6 231.52 192.39 231.52 193.162C216.76 192.699 201.339 195.313 189.191 203.551H184.215L182.465 196.62L175.812 198.191C170.814 187.538 166.629 177.199 159.388 172.135C154.307 168.595 142.869 168.583 142.548 168.624C141.774 168.469 141.029 168.955 140.794 169.807C140.799 170.014 139.602 173.721 142.639 176.552C137.479 177.948 127.48 175.149 121.773 172.552C119.627 171.554 115.984 173.208 117.74 177.111C116.522 177.748 115.873 179.096 116.571 181.025C116.04 181.647 115.535 182.828 116.464 184.803C113.794 188.223 122.223 198.565 135.422 197.574C142.398 197.027 147.482 196.488 152.65 203.551C146.77 203.551 173.851 203.551 95.4189 203.556C94.9555 203.556 94.5914 203.92 94.5914 204.383V377.19C94.5914 377.653 94.9555 378.017 95.4189 378.017C149.455 378.012 140.827 378.011 311.373 378.012L305.789 401.325C290.289 395.973 274.384 407.604 274.384 423.737C274.384 433.922 280.981 442.857 290.315 446.121L293.996 452.308V499.867H194.767C195.513 489.119 201.026 478.841 209.597 472.302C209.772 472.169 209.886 471.972 209.915 471.754C209.945 471.537 209.886 471.316 209.753 471.142C209.62 470.968 209.423 470.853 209.205 470.824C208.988 470.795 208.767 470.853 208.593 470.987C199.618 477.837 193.855 488.608 193.107 499.867H180.135C183.121 494.496 186.998 491.576 187.038 491.546C187.328 491.331 187.445 490.95 187.328 490.61C187.272 490.443 187.163 490.298 187.019 490.198C186.874 490.097 186.701 490.046 186.525 490.052C182.685 490.151 179.208 491.518 176.229 494.062C180.648 486.734 185.894 482.788 185.961 482.737C186.25 482.525 186.368 482.146 186.25 481.806C186.192 481.64 186.083 481.497 185.939 481.397C185.795 481.297 185.623 481.244 185.448 481.246C174.98 481.493 168.14 487.938 163.81 494.759C169.629 478.345 181.548 469.311 181.681 469.211C181.97 468.996 182.088 468.619 181.97 468.278C181.911 468.114 181.801 467.972 181.658 467.872C181.514 467.772 181.343 467.718 181.168 467.719C169.831 467.992 160.441 473.719 153.24 484.749C146.057 473.721 136.671 467.992 125.323 467.719C125.147 467.714 124.974 467.765 124.83 467.866C124.685 467.967 124.577 468.111 124.522 468.278C124.465 468.445 124.462 468.625 124.514 468.792C124.566 468.96 124.67 469.107 124.812 469.211C124.944 469.311 136.865 478.343 142.682 494.759C138.353 487.938 131.511 481.493 121.043 481.246C120.867 481.24 120.694 481.291 120.549 481.392C120.405 481.493 120.297 481.638 120.242 481.806C120.185 481.972 120.183 482.152 120.235 482.32C120.288 482.487 120.392 482.634 120.534 482.739C120.598 482.788 125.844 486.724 130.267 494.067C127.288 491.52 123.807 490.151 119.968 490.052C119.79 490.041 119.614 490.09 119.468 490.191C119.322 490.292 119.215 490.44 119.163 490.61C119.106 490.776 119.103 490.956 119.155 491.124C119.207 491.293 119.311 491.44 119.453 491.544C119.494 491.574 123.349 494.477 126.354 499.865H94.5914C94.3719 499.865 94.1615 499.953 94.0063 500.108C93.8511 500.263 93.7639 500.473 93.7639 500.693C93.7639 500.912 93.8511 501.122 94.0063 501.277C94.1615 501.433 94.3719 501.52 94.5914 501.52H583.275C583.494 501.52 583.705 501.433 583.86 501.277C584.015 501.122 584.102 500.912 584.102 500.693C584.102 500.473 584.015 500.263 583.86 500.108C583.705 499.953 583.494 499.865 583.275 499.865V499.867ZM127.955 499.331C126.481 496.624 124.62 494.146 122.432 491.974C126.487 492.759 129.937 495.223 132.733 499.331H127.955ZM134.767 499.331C131.402 491.131 126.301 485.663 123.506 483.093C133.623 484.433 139.809 492.285 143.382 499.331H134.767ZM145.817 499.331C141.881 483.582 131.98 473.322 127.754 469.527C137.774 470.547 146.102 476.322 152.533 486.727C152.607 486.847 152.711 486.946 152.834 487.015C152.957 487.084 153.096 487.12 153.237 487.12C153.378 487.12 153.517 487.084 153.64 487.015C153.764 486.946 153.867 486.847 153.941 486.727C160.396 476.323 168.727 470.548 178.738 469.527C174.513 473.322 164.609 483.581 160.676 499.331H145.817ZM163.112 499.331C166.683 492.284 172.871 484.434 182.985 483.093C180.191 485.663 175.091 491.131 171.724 499.331H163.112ZM173.76 499.331C176.552 495.225 180.003 492.762 184.054 491.976C181.863 494.144 180.004 496.622 178.535 499.331H173.76ZM469.128 309.475C467.304 307.105 466.609 303.095 466.639 299.191C467.056 299.902 468.507 298.248 469.679 299.287C469.758 299.362 469.864 299.404 469.974 299.401C470.084 299.399 470.188 299.353 470.264 299.274C470.34 299.195 470.381 299.089 470.379 298.979C470.377 298.87 470.331 298.765 470.252 298.689C469.313 297.75 466.995 298.19 466.65 298.795C466.67 297.846 466.725 296.908 466.824 296.004C473.34 298.84 484.346 295.454 484.346 295.454C482.326 298.883 482.447 300.856 482.447 300.856C482.447 300.856 489.056 297.177 485.062 305.204C483.463 308.415 485.253 310.92 486.879 311.474C486.358 314.008 486.535 316.518 487.085 318.342L477.486 326.911L472.901 319.451C473.487 318.134 473.898 316.301 473.879 314.223C475.319 313.128 476.425 310.723 476.478 310.605C476.496 310.569 476.501 310.528 476.492 310.489C476.483 310.45 476.461 310.415 476.43 310.39C476.398 310.366 476.359 310.353 476.319 310.354C476.279 310.354 476.24 310.369 476.21 310.395C473.482 312.546 470.884 311.74 469.126 309.475H469.128ZM442.067 340.52C445.365 334.405 455.277 332.749 455.393 332.731C455.61 332.697 455.804 332.577 455.933 332.4C456.063 332.222 456.116 332 456.081 331.783C456.044 331.568 455.924 331.376 455.747 331.247C455.57 331.119 455.35 331.064 455.133 331.095C454.766 331.155 449.207 332.076 444.788 335.173C449.336 328.071 456.709 322.815 466.627 321.158L471.286 330.819C471.423 331.103 471.628 331.35 471.882 331.537C472.136 331.725 472.433 331.847 472.745 331.893C473.058 331.939 473.377 331.908 473.675 331.803C473.972 331.698 474.24 331.521 474.454 331.289L476.759 328.778C477.28 329.269 477.664 328.905 477.918 328.736L481.572 332.018C482.399 332.761 483.682 332.655 484.377 331.787L493.764 320.04C503.927 321.214 512.689 323.262 520.251 332.768C521.37 334.17 522.584 335.729 523.842 337.396C519.748 334.888 515.701 333.967 515.451 333.914C515.237 333.867 515.013 333.907 514.828 334.025C514.643 334.143 514.512 334.33 514.465 334.544C514.418 334.759 514.458 334.983 514.576 335.168C514.694 335.353 514.881 335.483 515.095 335.53C515.183 335.547 523.687 337.466 528.157 343.329C532.867 350.078 537.554 357.797 540.16 364.861C549.72 390.277 524.213 390.974 497.635 385.771C497.594 385.473 495.424 370.105 495.451 370.274L516.822 368.492L520.908 370.972C521.096 371.085 521.321 371.119 521.534 371.067C521.747 371.015 521.93 370.881 522.045 370.694C522.158 370.506 522.193 370.281 522.141 370.067C522.089 369.854 521.954 369.67 521.767 369.556L517.629 367.044L513.121 359.503C513.003 359.324 512.822 359.198 512.613 359.151C512.405 359.103 512.186 359.138 512.003 359.248C511.82 359.357 511.686 359.533 511.629 359.739C511.573 359.945 511.598 360.165 511.699 360.353L515.632 366.932L494.438 368.699C494.326 368.708 494.217 368.74 494.118 368.793C494.019 368.846 493.931 368.919 493.861 369.007C493.791 369.094 493.739 369.196 493.71 369.304C493.68 369.412 493.673 369.525 493.688 369.637L493.88 370.997C490.962 371.658 486.593 372.011 485.43 370.418C483.02 367.096 487.058 365.273 484.718 363.734C483.924 363.24 482.5 362.892 481.011 363.62C479.67 364.282 478.015 365.936 477.486 370.138L472.885 347.325C472.839 347.109 472.721 346.915 472.549 346.777C472.377 346.638 472.162 346.563 471.941 346.564C446.918 346.829 461.925 346.631 440.463 346.697C440.529 345.903 441.067 343.135 442.067 340.52ZM438.816 424.733C443.782 430.716 443.062 429.977 443.383 430.208L428.1 461.852L424.074 470.192L406.084 463.65C405.878 463.578 405.653 463.59 405.456 463.683C405.259 463.776 405.107 463.944 405.032 464.148C404.958 464.353 404.968 464.579 405.059 464.777C405.15 464.974 405.316 465.128 405.52 465.205L423.352 471.69L420.802 476.972C420.625 476.914 400.521 470.032 397.102 469.461C400.771 454.998 413.277 411.022 425.535 402.463C431.584 398.191 434.547 399.386 502.079 399.535C502.23 399.534 502.378 399.497 502.512 399.428C502.646 399.359 502.762 399.26 502.85 399.138H504.029C509.452 415.694 507.565 430.126 489.633 428.931C470.569 427.659 453.817 428.22 444.642 429.31C444.548 429.007 444.649 429.254 440.092 423.682C440.023 423.598 439.939 423.529 439.843 423.478C439.747 423.427 439.642 423.396 439.534 423.385C439.426 423.375 439.317 423.386 439.213 423.417C439.109 423.449 439.013 423.501 438.929 423.57C438.845 423.639 438.776 423.724 438.725 423.819C438.674 423.915 438.642 424.02 438.632 424.128C438.621 424.236 438.632 424.345 438.664 424.449C438.696 424.552 438.747 424.649 438.816 424.733ZM414.985 476.859L412.838 483.26C411.219 483.26 408.744 483.215 406.542 484.409C405.376 485.046 401.553 484.482 401.101 481.102C400.925 479.647 400.561 477.81 399.998 476.467L401.336 472.535L414.983 476.858L414.985 476.859ZM378.148 429.249L329.529 455.846C313.114 431.439 320.376 442.232 315.726 435.317C315.731 435.312 319.364 432.614 321.35 431.148L331.44 446.725C331.499 446.816 331.576 446.895 331.665 446.956C331.754 447.018 331.855 447.062 331.961 447.085C332.068 447.107 332.177 447.109 332.284 447.089C332.391 447.07 332.493 447.029 332.585 446.97C332.676 446.911 332.755 446.835 332.816 446.746C332.878 446.656 332.922 446.556 332.944 446.449C332.967 446.343 332.969 446.233 332.949 446.127C332.93 446.02 332.889 445.918 332.83 445.826L322.685 430.164C330.657 424.352 370.725 395.004 380.486 393.381C390.866 391.675 403.927 392.319 414.397 393.405C415.506 397.814 415.094 399.402 416.284 399.402H427.736C418.482 403.25 412.027 418.936 408.141 428.849H379.758L378.078 419.547C378.036 419.332 377.912 419.143 377.732 419.019C377.553 418.894 377.332 418.844 377.116 418.88C376.901 418.919 376.709 419.041 376.583 419.221C376.458 419.401 376.409 419.623 376.448 419.839L378.148 429.251V429.249ZM484.106 371.395C486.058 374.059 491.793 373.149 494.113 372.652L495.672 383.696C488.417 390.754 484.496 383.299 480.595 385.49L478.512 375.167C479.261 372.456 478.661 366.614 481.739 365.109C482.533 364.712 483.361 364.828 483.791 365.043C483.791 365.747 481.656 368.067 484.106 371.395ZM505.223 397.483C505.031 396.908 504.876 396.325 504.214 396.325H503.055C502.84 394.191 503.636 392.057 502.079 392.057H481.921L480.945 387.227C483.92 385.172 488.445 392.062 495.95 385.672C496.076 386.112 495.904 387.103 496.728 387.276C496.849 387.301 508.694 389.761 520.478 389.897C520.39 390.769 520.29 391.601 520.168 392.338C519.916 393.785 519.16 395.096 518.033 396.038C516.905 396.98 515.481 397.492 514.011 397.483H505.223ZM466.379 348.351C472.949 380.891 467.857 355.726 476.355 397.748H416.961C414.703 386.462 413.015 378.17 409.877 362.594L408.371 355.15L408.04 353.496L406.997 348.351H466.379ZM338.601 94.3073C341.352 79.1921 357.559 92.4545 367.145 114.792C374.457 131.831 375.432 148.46 369.272 151.101C362.701 153.923 353.14 140.771 349.293 134.197C356.121 132.688 359.176 126.07 357.265 120.493C355.312 114.72 348.521 110.956 341.031 115.244C339.197 109.156 337.449 100.584 338.601 94.3073ZM312.936 154.551L310.835 155.369C304.838 147.817 301.509 139.628 300.905 130.96L315.691 122.685C320.611 119.94 324.727 115.956 327.63 111.128L336.716 95.9881C335.268 112.236 346.908 139.334 359.42 149.496C351.72 148.338 342.261 143.177 329.186 148.225L327.645 148.826C327.473 148.792 327.295 148.804 327.129 148.861C312.523 154.614 313.25 154.133 312.936 154.551ZM317.695 166.098C317.849 164.376 318.184 162.492 318.966 160.949C320.654 157.62 327.801 152.828 333.1 151.349C333.952 151.958 334.825 154.293 333.981 156.768V156.785C333.583 157.976 332.822 159.2 331.531 160.341C330.009 161.698 327.592 166.611 327.311 167.157C327.162 167.488 327.228 167.885 327.51 168.133C332.445 172.621 326.252 175.415 326.252 176.587L327.063 176.735L327.162 176.719L327.625 177.232C328.122 176.785 328.618 176.305 329.082 175.809C329.749 176.416 331.736 180.342 336.86 180.888C347.019 181.96 351.558 168.715 343.364 163.27C340.377 161.279 338.922 161.352 335.288 158.025C336.405 155.478 336.12 152.723 334.929 150.952C342.514 149.976 353.432 166.284 352.598 173.536C352.416 175.124 349.988 177.089 347.848 178.825C343.376 182.439 342.284 182.835 342.585 192.904L315.297 188.592C316.025 169.263 317.689 166.264 317.695 166.098ZM306.388 205.206C305.28 209.606 304.111 214.258 303.098 218.308C303.593 218.556 303.032 217.884 310.115 233.312C310.297 233.726 310.115 234.222 309.702 234.404C309.603 234.45 309.496 234.477 309.387 234.481C309.278 234.485 309.17 234.468 309.068 234.429C308.966 234.391 308.872 234.332 308.794 234.256C308.715 234.181 308.652 234.09 308.609 233.99L301.973 219.366C301.926 219.269 301.899 219.163 301.893 219.055C301.888 218.947 301.904 218.838 301.941 218.737C301.978 218.635 302.035 218.542 302.109 218.462C302.182 218.383 302.271 218.319 302.37 218.275C302.453 218.241 302.536 218.225 302.618 218.225C297.862 212.992 293.021 208.422 288.501 205.206H306.388ZM237.875 193.526L238.52 187.588C238.535 187.475 238.524 187.36 238.49 187.251C238.456 187.143 238.398 187.043 238.322 186.959C238.057 186.661 237.792 186.347 237.56 186.049C239.255 184.295 240.23 181.969 240.291 179.531C240.49 172.418 241.731 166.876 243.932 163.633C245.455 161.4 247.457 160.259 249.89 160.474C257.751 161.169 258.91 161.169 258.91 161.169C258.91 161.169 258.926 161.135 258.959 161.053C259.787 164.163 260.234 169.986 260.234 175.296C260.234 179.217 260.002 182.84 259.472 184.891C259.042 186.562 258.066 187.356 256.824 187.769C253.084 189.104 248.367 186.889 248.367 193.841C248.367 194.287 248.698 194.651 249.145 194.684C252.19 194.916 254.921 195.247 257.304 195.66C251.355 202.542 238.123 201.722 233.621 194.254C236.662 194.254 237.756 194.554 237.875 193.526ZM184.832 206L184.632 205.206H186.906C186.47 205.54 186.037 205.877 185.61 206.231C185.83 206.42 185.522 205.252 190.409 224.875C190.509 225.322 190.244 225.768 189.797 225.884C189.582 225.934 189.356 225.898 189.168 225.783C188.979 225.669 188.843 225.486 188.787 225.272C187.275 219.176 185.753 213.083 184.22 206.992C184.104 206.562 184.385 206.099 184.832 206ZM135.294 195.925C124.289 196.736 116.758 188.542 117.672 186.049C119.751 187.429 126.551 191.554 133.639 191.554C134.351 191.554 134.901 191.417 134.882 190.703C134.872 190.246 134.527 189.956 134.037 189.895C126.427 190.056 118.799 184.83 118.071 184.32C117.756 183.715 117.449 182.886 117.699 182.324C122.361 185.263 128.582 187.733 134.201 187.611C135.24 187.586 135.329 186.023 134.162 185.956C126.93 186.123 119.61 181.597 118.23 180.696C117.801 179.677 117.73 178.793 118.794 178.462C125.828 182.724 136.486 185.018 136.428 182.707C136.417 182.251 136.114 181.897 135.581 181.9C128.208 182.039 120.631 177.64 119.522 176.97C119.102 176.218 118.609 175.055 119.163 174.443C119.637 173.921 120.702 173.875 121.081 174.054C127.208 176.845 138.75 180.199 144.326 177.682L151.899 181.311C148.415 188.143 152.315 193.037 153.637 191.703C153.792 191.548 153.878 191.337 153.877 191.118C153.877 190.899 153.789 190.688 153.634 190.534C150.209 187.123 153.713 181.445 153.749 181.387C153.811 181.289 153.852 181.178 153.868 181.062C153.885 180.947 153.876 180.829 153.844 180.717C153.812 180.605 153.756 180.502 153.681 180.413C153.605 180.324 153.512 180.252 153.407 180.201L144.718 176.034C141.438 174.165 142.404 170.438 142.389 170.264H142.398C142.53 170.226 153.789 170.254 158.44 173.49C165.169 178.193 168.932 187.478 173.914 198.039L154.31 203.009C149.074 195.432 143.444 195.296 135.294 195.925ZM124.441 364.414C124.441 364.877 124.06 365.241 123.614 365.241C123.15 365.241 122.786 364.877 122.786 364.414V352.536C122.786 352.09 123.15 351.709 123.614 351.709C124.06 351.709 124.441 352.09 124.441 352.536V364.414ZM134.52 364.414C134.52 364.877 134.156 365.241 133.692 365.241C133.229 365.241 132.865 364.877 132.865 364.414V352.536C132.865 352.09 133.229 351.709 133.692 351.709C134.156 351.709 134.52 352.09 134.52 352.536V364.414ZM107.532 338.938V205.206H148.384C148.702 210.984 151.982 265.559 163.185 282.08C172.961 296.976 191.369 282.08 191.204 282.08C195.672 278.044 199.926 273.941 199.926 273.941V312.827H163.759C163.539 312.827 163.329 312.914 163.174 313.069C163.019 313.224 162.931 313.435 162.931 313.654C162.931 313.873 163.019 314.084 163.174 314.239C163.329 314.394 163.539 314.481 163.759 314.481H327.165C327.385 314.481 327.595 314.394 327.75 314.239C327.906 314.084 327.993 313.873 327.993 313.654C327.993 313.435 327.906 313.224 327.75 313.069C327.595 312.914 327.385 312.827 327.165 312.827H286.747L288.7 264.776C288.7 264.776 296.247 272.303 304.042 277.498C313.215 284.868 322.88 283.288 327.989 276.423C338.573 265.844 342.86 220.147 344.06 205.206H369.828V338.955L107.532 338.938ZM151.417 376.358V340.609H369.828V353.496H334.03C329.242 353.483 324.591 355.09 320.832 358.054C317.073 361.018 314.428 365.166 313.326 369.824L311.77 376.358H151.417ZM314.948 370.204C317.05 361.337 324.911 355.15 334.03 355.15H406.685L408.191 362.594H334.03C328.37 362.594 323.504 366.432 322.18 371.941L315.908 398.145C323.62 403.488 328.552 412.058 329.181 421.686H331.548C327.89 424.299 324.564 426.715 321.816 428.733C321.788 426.526 321.892 423.863 321.709 421.697C320.956 412.919 315.516 405.356 307.368 401.9L314.948 370.204ZM276.039 423.737C276.039 411.561 285.936 401.669 298.1 401.669C310.178 401.669 320.105 411.515 320.145 423.621V429.973C316.752 432.471 314.518 434.142 314.104 434.457C313.756 434.721 313.657 435.218 313.905 435.582L316.517 439.462L313.49 441.448C312.947 439.702 310.983 440.089 309.303 441.183C304.437 444.334 302.272 438.331 296.3 434.116C296.882 434.215 297.478 434.28 298.089 434.28C303.914 434.28 308.647 429.548 308.647 423.725C308.647 417.919 303.914 413.171 298.089 413.171C292.263 413.171 287.53 417.919 287.53 423.725C287.532 425.533 287.998 427.31 288.885 428.885C289.772 430.46 291.049 431.781 292.594 432.721C290.067 432.768 287.751 434.366 287.025 437.027C286.111 440.392 288.319 442.439 288.922 443.779C281.282 440.25 276.039 432.488 276.039 423.737ZM289.451 435.888C290.514 434.62 292.19 434.16 293.225 434.414C294.216 434.62 295.376 435.419 296.563 436.425C295.879 437.757 296.506 438.098 299.515 441.957C304.116 447.858 304.061 444.657 309.814 447.406C309.768 447.572 308.502 449.19 309.738 451.886C311.896 456.599 315.276 454.396 318.753 458.222L318.758 458.229C317.649 459.683 310.643 465.107 309.692 465.876C309.142 466.315 308.492 466.61 307.8 466.735C296.827 448.133 300.467 454.404 289.451 435.888ZM320.161 499.52H295.651V455.092L300.397 463.072V488.032C300.397 488.252 300.484 488.462 300.64 488.617C300.795 488.772 301.005 488.859 301.225 488.859C301.444 488.859 301.655 488.772 301.81 488.617C301.965 488.462 302.052 488.252 302.052 488.032V465.797C302.493 466.474 303.068 467.053 303.741 467.5C304.414 467.946 305.171 468.251 305.966 468.394C308.576 468.857 310.001 467.733 311.719 466.383C317.381 461.923 319.456 460.07 320.16 459.091V499.52H320.161ZM319.532 456.624C318.95 456.053 318.03 455.377 316.785 454.765C313.756 453.233 313.301 454.192 311.82 452.174C309.404 448.89 312.197 447.863 313.475 443.423L317.437 440.832L325.375 452.67L319.532 456.624ZM321.816 499.52V461.852H397.4C396.175 466.335 395.431 469.312 395.315 469.825C394.967 471.064 396.985 470.942 399.757 472.035L398.794 474.874C397.802 474.193 396.851 474.667 396.116 475.59C394.944 477.069 395.474 479.4 392.405 480.156C387.435 481.377 378.437 476.361 375.246 482.73C373.267 491.453 377.292 489.625 400.351 499.52H321.816ZM409.682 498.42L376.349 485.086C376.37 484.436 376.543 483.8 376.855 483.228C377.166 482.657 377.606 482.167 378.141 481.796C379.237 481.073 381.034 481.149 382.326 481.213C382.517 482.206 383.046 482.487 383.958 482.715C396.341 486.054 391.376 484.067 399.487 481.863L399.524 481.85V481.867C399.863 485.238 404.604 487.096 407.155 485.926C408.858 485.147 411.466 484.591 413.205 485.007C413.207 486.856 410.902 495.579 410.662 496.587C410.496 497.28 410.147 497.898 409.682 498.42ZM533.554 499.52H410.907C412.049 498.243 412.196 497.253 412.583 495.731C415.153 485.66 415.105 484.797 414.404 483.792L416.56 477.357L420.984 478.758C421.173 478.825 421.381 478.818 421.565 478.738C421.749 478.659 421.896 478.512 421.977 478.328L429.937 461.852H533.554V499.52ZM533.554 429.13H499.961C503.428 427.609 505.71 424.974 506.961 421.686H526.176C526.788 412.074 531.72 403.488 539.449 398.145L536.701 386.664C540.177 384.825 541.901 382.787 542.875 380.477L548.005 401.9C544.488 403.374 541.383 405.681 538.957 408.623C536.531 411.564 534.858 415.052 534.082 418.784C533.249 422.638 533.671 426.003 533.554 429.13ZM559.719 446.387V499.526H535.212V429.957C535.343 425.964 534.889 422.959 535.708 419.088C537.857 409.149 546.724 401.665 557.273 401.665C569.437 401.665 579.336 411.565 579.336 423.734C579.336 434.637 571.21 444.023 560.429 445.568C560.232 445.597 560.053 445.696 559.922 445.846C559.792 445.996 559.721 446.189 559.721 446.387H559.719Z" fill="#7764F0"/>
<path d="M257.293 167.508C257.617 167.21 257.932 167.343 258.054 167.415C258.238 167.532 258.46 167.571 258.672 167.525C258.885 167.479 259.07 167.351 259.189 167.169C259.308 166.987 259.351 166.766 259.308 166.553C259.265 166.34 259.14 166.152 258.959 166.031C258.456 165.697 257.228 165.319 256.176 166.289C256.023 166.439 255.934 166.643 255.928 166.857C255.923 167.071 256 167.28 256.145 167.438C256.29 167.596 256.491 167.692 256.705 167.705C256.919 167.718 257.13 167.647 257.293 167.508ZM258.008 168.497C257.863 168.498 257.721 168.542 257.601 168.623C257.48 168.704 257.387 168.818 257.332 168.953C257.276 169.087 257.262 169.234 257.291 169.377C257.319 169.519 257.389 169.649 257.492 169.752C257.595 169.854 257.726 169.924 257.868 169.952C258.01 169.981 258.158 169.966 258.292 169.911C258.426 169.855 258.541 169.761 258.622 169.641C258.702 169.52 258.746 169.379 258.746 169.233C258.745 169.038 258.667 168.851 258.529 168.713C258.39 168.575 258.203 168.498 258.008 168.497ZM253.193 177.856C257.086 179.153 258.064 176.21 255.936 174.767C255.388 174.337 254.956 171 255.009 167.627C255.012 167.408 254.928 167.196 254.776 167.039C254.623 166.881 254.414 166.791 254.195 166.787C253.809 166.779 253.362 167.146 253.354 167.601C253.319 169.806 253.409 175.053 255.006 176.137C255.257 176.307 255.348 176.463 255.396 176.463C255.279 176.526 254.774 176.636 253.716 176.284C253.508 176.217 253.281 176.234 253.085 176.332C252.889 176.43 252.74 176.601 252.669 176.808C252.6 177.017 252.616 177.244 252.714 177.441C252.813 177.637 252.985 177.786 253.193 177.856ZM249.607 168.165C249.725 168.042 249.881 167.963 250.051 167.943C250.22 167.923 250.391 167.962 250.534 168.054C250.717 168.174 250.941 168.216 251.156 168.171C251.37 168.127 251.558 167.998 251.678 167.815C251.798 167.632 251.841 167.408 251.796 167.193C251.751 166.979 251.623 166.791 251.439 166.671C250.91 166.319 249.607 165.92 248.488 166.947C248.404 167.019 248.335 167.108 248.285 167.207C248.235 167.307 248.206 167.415 248.2 167.526C248.193 167.637 248.208 167.748 248.246 167.853C248.283 167.958 248.341 168.054 248.416 168.136C248.491 168.218 248.582 168.284 248.684 168.33C248.785 168.376 248.894 168.401 249.005 168.403C249.117 168.406 249.227 168.386 249.331 168.345C249.434 168.304 249.528 168.243 249.607 168.165ZM250.441 169.305C250.227 169.305 250.022 169.391 249.871 169.542C249.72 169.693 249.634 169.898 249.634 170.112C249.634 170.559 249.994 170.918 250.441 170.918C250.888 170.918 251.249 170.559 251.249 170.112C251.248 169.898 251.163 169.693 251.011 169.542C250.86 169.391 250.655 169.305 250.441 169.305ZM256.002 180.78C255.74 180.99 255.413 181.102 255.077 181.096C254.741 181.09 254.418 180.967 254.163 180.747C254.077 180.681 253.978 180.633 253.873 180.605C253.768 180.577 253.658 180.57 253.55 180.585C253.442 180.599 253.338 180.635 253.244 180.689C253.15 180.744 253.068 180.816 253.002 180.903C252.935 180.989 252.887 181.088 252.859 181.193C252.831 181.298 252.824 181.408 252.839 181.516C252.853 181.624 252.889 181.727 252.943 181.822C252.998 181.916 253.071 181.998 253.157 182.064C254.491 183.083 256.101 182.876 257.081 182.033C257.166 181.963 257.236 181.876 257.286 181.779C257.337 181.681 257.368 181.575 257.378 181.465C257.387 181.356 257.374 181.246 257.34 181.141C257.306 181.037 257.252 180.94 257.18 180.856C257.109 180.773 257.021 180.705 256.923 180.656C256.824 180.607 256.717 180.578 256.608 180.571C256.498 180.563 256.388 180.578 256.284 180.614C256.18 180.649 256.084 180.707 256.002 180.78ZM387.856 124.224H394.148V134.598C394.148 135.304 394.976 135.678 395.509 135.231L408.585 124.224L463.693 124.229C464.156 124.229 464.52 123.848 464.52 123.401V78.3057C464.52 77.8425 464.156 77.4785 463.693 77.4785H387.856C387.636 77.4785 387.426 77.5657 387.271 77.7208C387.116 77.8759 387.028 78.0863 387.028 78.3057V123.397C387.028 123.616 387.116 123.826 387.271 123.981C387.426 124.137 387.636 124.224 387.856 124.224ZM388.683 79.1345H453.647V122.569H408.284C408.088 122.569 407.899 122.638 407.749 122.763L395.803 132.819V123.397C395.803 123.177 395.716 122.967 395.561 122.812C395.406 122.657 395.195 122.569 394.976 122.569H388.683V79.1345Z" fill="#7764F0"/>
<path d="M407.595 114.948H412.941C413.917 114.948 414.756 114.328 415.087 113.454L418.111 114.662C418.21 114.7 418.313 114.72 418.419 114.72H430.954C433.593 114.72 435.116 111.924 433.799 109.779C435.99 109.206 436.981 106.725 435.747 104.86C438.218 103.947 438.666 100.551 436.301 99.087C438.075 97.0026 436.617 93.7519 433.746 93.7519H425.815C426.843 90.3474 426.576 91.9388 426.604 88.842C426.603 87.4579 426.052 86.1309 425.073 85.1522C424.094 84.1735 422.766 83.6228 421.381 83.6211C417.394 83.6211 418.91 89.0041 418.611 90.718L415.61 95.1994L415.19 95.3351C414.571 92.4517 410.882 93.8628 407.595 93.5088C406.986 93.5131 406.404 93.7567 405.973 94.187C405.543 94.6173 405.299 95.1997 405.295 95.8082V112.649C405.295 113.923 406.337 114.948 407.595 114.948ZM415.241 97.0555L416.391 96.685C416.569 96.6289 416.722 96.5139 416.825 96.3591C421.249 89.6377 420.193 92.7395 420.266 86.3887C420.266 84.2282 424.949 85.3333 424.949 88.842V90.9314C424.67 92.4781 422.904 95.4062 424.696 95.4062C431.775 95.8082 435.106 94.4302 435.401 96.7826C435.431 97.0062 435.413 97.2336 435.347 97.4495C435.282 97.6655 435.172 97.8651 435.023 98.0349C434.875 98.2047 434.691 98.3408 434.486 98.4341C434.281 98.5274 434.058 98.5757 433.832 98.5758H430.598C429.502 98.5758 429.504 100.23 430.598 100.23H434.515C436.761 100.23 436.683 103.406 434.615 103.406H430.01C429.791 103.406 429.58 103.493 429.425 103.649C429.27 103.804 429.183 104.014 429.183 104.233C429.183 104.453 429.27 104.663 429.425 104.818C429.58 104.973 429.791 105.061 430.01 105.061C431.358 105.272 434.689 104.308 434.628 106.695C434.567 108.806 431.579 108.129 431.035 108.234H427.948C427.729 108.234 427.518 108.321 427.363 108.476C427.208 108.631 427.121 108.841 427.121 109.061C427.121 109.28 427.208 109.49 427.363 109.646C427.518 109.801 427.729 109.888 427.948 109.888H431.035C433.112 109.888 433.198 113.064 430.954 113.064H418.576L415.241 111.736V97.0555ZM410.276 108.248C411.12 108.248 411.799 108.943 411.799 109.787C411.799 110.647 411.12 111.325 410.276 111.325C409.416 111.325 408.737 110.647 408.737 109.787C408.737 108.943 409.416 108.248 410.276 108.248ZM491.922 195.5H497.119C497.288 195.512 500.451 195.613 500.777 195.335C517.84 193.421 527.874 175.689 521.977 160.529C518.237 150.636 508.985 144.085 498.46 143.87C498.294 143.857 491.442 143.87 491.902 143.87C478.739 142.964 465.475 154.534 465.475 169.677C465.475 185.674 479.986 196.68 491.922 195.5ZM506.721 150.997C509.965 153.689 512.451 157.178 513.935 161.123C514.152 161.679 514.346 162.239 514.52 162.807C517.661 173.262 513.227 184.941 503.459 190.595C487.389 199.955 467.139 188.243 467.139 169.674C467.139 149.192 491.169 138.176 506.721 150.997Z" fill="#7764F0"/>
<path d="M484.435 173.204L482.962 181.81C482.903 182.187 483.293 182.433 483.586 182.27L491.328 178.205L499.062 182.27C499.134 182.308 499.215 182.326 499.297 182.32C499.379 182.314 499.457 182.286 499.523 182.238C499.589 182.19 499.64 182.124 499.671 182.049C499.702 181.973 499.71 181.89 499.696 181.81L498.223 173.204L504.472 167.103C504.531 167.047 504.573 166.976 504.593 166.897C504.613 166.819 504.611 166.736 504.587 166.658C504.563 166.581 504.517 166.512 504.456 166.459C504.394 166.406 504.319 166.371 504.239 166.359L495.585 165.101L491.719 157.267C491.571 156.972 491.087 156.972 490.939 157.267L487.072 165.101L478.419 166.359C478.05 166.415 477.928 166.837 478.176 167.103L484.437 173.204H484.435ZM440.602 206.224C436.932 196.513 426.96 191.044 419.175 191.823C418.233 191.823 416.506 191.83 416.362 191.815C402.857 190.508 391.656 201.128 391.656 214.128C391.656 226.505 401.735 236.575 414.126 236.575C414.592 236.575 415.701 236.515 416.372 236.447C420.598 236.524 422.073 236.481 422.28 236.305C436.877 234.667 445.764 219.486 440.602 206.222V206.224ZM415.59 234.821C415.101 234.856 414.614 234.919 414.119 234.919C402.65 234.919 393.319 225.592 393.319 214.126C393.319 194.94 417.239 186.18 429.704 200.368C441.008 213.236 432.786 233.612 415.59 234.821Z" fill="#7764F0"/>
<path d="M413.897 207.723C407.343 202.532 399.219 211.722 405.202 217.733L411.67 224.185C411.962 224.478 412.309 224.71 412.691 224.868C413.073 225.026 413.483 225.108 413.896 225.108C414.31 225.108 414.72 225.026 415.102 224.868C415.484 224.71 415.831 224.478 416.123 224.185L422.591 217.733C425.188 215.125 425.287 210.914 422.806 208.32C421.66 207.134 420.113 206.416 418.467 206.306C416.82 206.196 415.191 206.7 413.897 207.723ZM179.683 439.528C179.932 439.742 179.73 439.699 185.592 439.671C200.055 441.138 211.036 428.638 210.296 417.3C210.269 405.121 199.919 393.609 185.529 395.05C185.358 395.046 181.884 395.033 181.686 395.05C169.884 395.289 160.601 404.669 159.959 415.951C159.264 428.264 168.28 438.251 179.683 439.528ZM187.842 396.573C199.313 396.573 208.644 405.893 208.644 417.351C208.644 437.009 183.447 445.849 171.336 429.97C160.962 416.355 170.579 396.573 187.842 396.573Z" fill="#7764F0"/>
<path d="M185.84 427.409C186.449 428.035 187.257 428.331 188.066 428.331C188.875 428.331 189.683 428.033 190.294 427.409L196.761 420.958C199.356 418.35 199.456 414.139 196.973 411.545C196.362 410.908 195.629 410.4 194.818 410.051C194.006 409.703 193.133 409.521 192.25 409.517H192.194C190.676 409.517 189.23 410.028 188.066 410.949C186.896 410.022 185.447 409.517 183.953 409.517H183.882C182.999 409.521 182.126 409.703 181.315 410.051C180.503 410.4 179.77 410.908 179.159 411.545C176.676 414.139 176.776 418.35 179.371 420.958L185.84 427.409ZM508.001 268.146V295.998C508.001 296.217 508.088 296.428 508.243 296.583C508.398 296.738 508.609 296.825 508.828 296.825H539.777L545.543 304.857C546.018 305.518 547.186 305.045 551.262 305.196C551.527 305.196 551.775 305.063 551.941 304.848L557.699 296.825H563.029C563.493 296.825 563.857 296.461 563.857 295.998V268.14C563.857 267.676 563.493 267.312 563.029 267.312L508.828 267.319C508.609 267.319 508.398 267.406 508.243 267.561C508.088 267.717 508.001 267.927 508.001 268.146ZM509.656 268.973H557.154V295.171C548.972 295.336 553.884 293.47 546.211 302.949L540.874 295.515C540.797 295.408 540.696 295.321 540.58 295.262C540.463 295.202 540.333 295.171 540.202 295.171H509.656V268.973Z" fill="#7764F0"/>
<path d="M521.28 284.975C523.374 284.975 525.072 283.279 525.072 281.185C525.072 279.092 523.374 277.396 521.28 277.396C519.186 277.396 517.489 279.092 517.489 281.185C517.489 283.279 519.186 284.975 521.28 284.975Z" fill="#7764F0"/>
<path d="M533.407 277.396C532.401 277.396 531.437 277.795 530.726 278.506C530.014 279.216 529.615 280.18 529.615 281.185C529.615 282.191 530.014 283.155 530.726 283.865C531.437 284.576 532.401 284.975 533.407 284.975C533.904 284.975 534.397 284.877 534.857 284.687C535.317 284.496 535.735 284.217 536.087 283.865C536.439 283.513 536.718 283.096 536.909 282.636C537.099 282.176 537.197 281.683 537.197 281.185C537.196 280.181 536.796 279.218 536.086 278.507C535.375 277.797 534.412 277.397 533.407 277.396Z" fill="#7764F0"/>
<path d="M545.533 284.975C547.627 284.975 549.324 283.279 549.324 281.185C549.324 279.092 547.627 277.396 545.533 277.396C543.439 277.396 541.741 279.092 541.741 281.185C541.741 283.279 543.439 284.975 545.533 284.975Z" fill="#7764F0"/>
<path d="M104.98 168.681C105.129 168.876 105.356 168.997 105.597 168.997H110.425C110.523 169.038 110.624 169.071 110.734 169.071C110.866 169.071 110.995 169.04 111.112 168.98C111.229 168.92 111.33 168.834 111.406 168.727L121.611 154.514H175.708C175.928 154.514 176.138 154.426 176.293 154.271C176.448 154.116 176.536 153.906 176.536 153.686V105.284C176.536 105.064 176.448 104.854 176.293 104.699C176.138 104.544 175.928 104.457 175.708 104.457C175.541 104.457 86.588 104.438 85.1432 104.531C85.044 104.53 84.9456 104.549 84.8537 104.586C84.7619 104.623 84.6784 104.679 84.6083 104.749C84.5381 104.819 84.4827 104.902 84.4452 104.994C84.4078 105.086 84.3891 105.185 84.3902 105.284V153.686C84.3902 154.108 84.7212 154.439 85.1432 154.439C87.0018 154.456 93.1236 154.505 94.8084 154.514L104.98 168.681ZM91.1062 106.111H174.882V152.861H121.184C121.053 152.861 120.924 152.892 120.807 152.951C120.69 153.011 120.589 153.097 120.512 153.203L110.731 166.826L100.95 153.203C100.873 153.097 100.773 153.01 100.656 152.95C100.539 152.89 100.409 152.859 100.278 152.859H91.1078L91.1062 106.111Z" fill="#7764F0"/>
<path d="M154.067 134.531C154.933 134.532 155.79 134.362 156.589 134.031C157.389 133.7 158.115 133.215 158.727 132.604C159.339 131.992 159.824 131.266 160.155 130.467C160.486 129.667 160.656 128.811 160.656 127.946C160.655 126.199 159.96 124.525 158.725 123.29C157.49 122.055 155.814 121.36 154.067 121.358C152.32 121.36 150.645 122.055 149.41 123.29C148.175 124.525 147.48 126.199 147.479 127.946C147.479 128.811 147.649 129.667 147.98 130.466C148.311 131.265 148.796 131.991 149.408 132.602C150.02 133.214 150.746 133.699 151.546 134.03C152.345 134.36 153.202 134.532 154.067 134.531Z" fill="#7764F0"/>
<path d="M132.994 134.532C136.633 134.532 139.583 131.583 139.583 127.946C139.583 124.309 136.633 121.36 132.994 121.36C129.355 121.36 126.406 124.309 126.406 127.946C126.406 131.583 129.355 134.532 132.994 134.532Z" fill="#7764F0"/>
<path d="M111.921 134.531C112.786 134.531 113.643 134.361 114.442 134.03C115.242 133.699 115.968 133.214 116.58 132.603C117.191 131.991 117.676 131.265 118.007 130.466C118.338 129.667 118.508 128.81 118.508 127.945C118.507 126.199 117.812 124.525 116.577 123.29C115.342 122.055 113.668 121.36 111.921 121.358C110.174 121.36 108.499 122.055 107.263 123.29C106.028 124.525 105.334 126.199 105.332 127.945C105.332 128.81 105.502 129.666 105.833 130.465C106.164 131.264 106.649 131.99 107.261 132.602C107.873 133.213 108.599 133.698 109.398 134.029C110.198 134.36 111.054 134.53 111.919 134.53L111.921 134.531ZM307.82 357.651H204.641C204.446 356.601 203.891 355.652 203.07 354.967C202.25 354.283 201.216 353.907 200.147 353.904C197.908 353.904 196.045 355.526 195.652 357.651H179.433C179.214 357.651 179.003 357.738 178.848 357.894C178.693 358.049 178.606 358.259 178.606 358.478C178.606 358.698 178.693 358.908 178.848 359.063C179.003 359.218 179.214 359.306 179.433 359.306H195.652C195.844 360.358 196.398 361.309 197.22 361.994C198.041 362.68 199.077 363.055 200.146 363.055C201.216 363.055 202.252 362.68 203.073 361.994C203.895 361.309 204.449 360.358 204.641 359.306H307.818C308.038 359.306 308.248 359.218 308.403 359.063C308.559 358.908 308.646 358.698 308.646 358.478C308.646 358.259 308.559 358.049 308.403 357.894C308.248 357.738 308.038 357.651 307.818 357.651H307.82ZM155.864 471.728C156.012 471.89 156.218 471.987 156.437 471.997C156.656 472.008 156.87 471.931 157.033 471.784C163.658 465.772 170.933 459.249 180.173 458.533C180.281 458.525 180.387 458.496 180.484 458.447C180.581 458.398 180.667 458.33 180.738 458.248C180.809 458.165 180.863 458.07 180.896 457.967C180.93 457.863 180.943 457.755 180.934 457.646C180.901 457.19 180.478 456.819 180.047 456.885C170.389 457.63 162.863 464.258 155.921 470.56C155.758 470.707 155.661 470.913 155.651 471.132C155.64 471.351 155.717 471.565 155.864 471.728ZM373.49 420.534C373.467 420.428 373.423 420.327 373.361 420.238C373.299 420.149 373.219 420.073 373.128 420.015C373.036 419.956 372.934 419.916 372.827 419.897C372.72 419.878 372.61 419.88 372.504 419.904C372.398 419.927 372.297 419.971 372.208 420.033C372.119 420.096 372.043 420.175 371.984 420.266C371.926 420.358 371.886 420.46 371.867 420.567C371.848 420.674 371.85 420.784 371.873 420.89L372.845 425.298C373.082 426.367 374.697 426.01 374.46 424.943L373.49 420.534ZM436.261 426.375C436.196 426.285 436.114 426.21 436.019 426.152C435.924 426.095 435.819 426.057 435.709 426.041C435.599 426.026 435.487 426.032 435.38 426.06C435.273 426.088 435.173 426.138 435.085 426.205C434.997 426.273 434.924 426.358 434.869 426.454C434.815 426.551 434.781 426.658 434.768 426.768C434.756 426.878 434.766 426.989 434.797 427.096C434.829 427.202 434.882 427.301 434.952 427.386L437.016 430.058C437.082 430.144 437.165 430.216 437.259 430.27C437.354 430.324 437.458 430.358 437.566 430.372C437.674 430.386 437.783 430.378 437.888 430.35C437.993 430.321 438.091 430.272 438.177 430.206C438.263 430.139 438.335 430.057 438.389 429.962C438.443 429.868 438.478 429.764 438.491 429.656C438.505 429.548 438.498 429.439 438.469 429.334C438.44 429.229 438.391 429.131 438.325 429.045L436.261 426.375ZM553.647 459.206C553.428 459.206 553.217 459.293 553.062 459.449C552.907 459.604 552.82 459.814 552.82 460.033V488.032C552.82 488.252 552.907 488.462 553.062 488.617C553.217 488.772 553.428 488.859 553.647 488.859C553.866 488.859 554.077 488.772 554.232 488.617C554.387 488.462 554.475 488.252 554.475 488.032V460.033C554.475 459.814 554.387 459.604 554.232 459.449C554.077 459.293 553.866 459.206 553.647 459.206ZM516.272 370.904C516.186 370.838 516.087 370.789 515.982 370.761C515.877 370.733 515.767 370.726 515.66 370.741C515.552 370.755 515.448 370.791 515.354 370.845C515.26 370.9 515.177 370.972 515.111 371.058C515.045 371.145 514.997 371.243 514.969 371.348C514.941 371.453 514.934 371.563 514.948 371.671C514.962 371.779 514.998 371.882 515.052 371.976C515.107 372.07 515.18 372.153 515.266 372.219L517.78 374.138C518.652 374.805 519.653 373.488 518.784 372.824L516.272 370.904ZM420.767 388.358L415.749 360.836C415.707 360.622 415.582 360.432 415.402 360.308C415.223 360.184 415.001 360.135 414.786 360.171C414.57 360.211 414.379 360.334 414.254 360.515C414.13 360.695 414.081 360.918 414.121 361.134L419.137 388.654C419.336 389.736 420.962 389.442 420.767 388.357V388.358ZM464.092 485.594H516.14C516.359 485.594 516.57 485.507 516.725 485.352C516.88 485.196 516.967 484.986 516.967 484.767C516.967 484.547 516.88 484.337 516.725 484.182C516.57 484.027 516.359 483.939 516.14 483.939H464.092C463.872 483.939 463.662 484.027 463.507 484.182C463.351 484.337 463.264 484.547 463.264 484.767C463.264 484.986 463.351 485.196 463.507 485.352C463.662 485.507 463.872 485.594 464.092 485.594ZM363.464 483.939H337.264C337.045 483.939 336.834 484.027 336.679 484.182C336.524 484.337 336.437 484.547 336.437 484.767C336.437 484.986 336.524 485.196 336.679 485.352C336.834 485.507 337.045 485.594 337.264 485.594H363.463C363.682 485.594 363.893 485.507 364.048 485.352C364.203 485.196 364.29 484.986 364.29 484.767C364.29 484.547 364.203 484.337 364.048 484.182C363.893 484.027 363.684 483.939 363.464 483.939ZM569.287 368.675C571.804 366.591 574.543 364.79 577.456 363.307C577.553 363.258 577.639 363.19 577.709 363.108C577.78 363.025 577.833 362.93 577.867 362.827C577.9 362.724 577.913 362.615 577.905 362.507C577.896 362.399 577.867 362.293 577.817 362.196C577.768 362.1 577.7 362.014 577.618 361.943C577.535 361.873 577.44 361.819 577.337 361.786C577.233 361.752 577.125 361.739 577.017 361.748C576.908 361.756 576.803 361.786 576.706 361.835C573.685 363.372 570.843 365.239 568.233 367.4C568.063 367.54 567.957 367.741 567.936 367.959C567.915 368.178 567.982 368.396 568.122 368.565C568.261 368.734 568.463 368.84 568.681 368.861C568.9 368.882 569.118 368.815 569.287 368.675ZM197.221 121.15C197.399 121.272 197.618 121.321 197.831 121.284C198.045 121.247 198.235 121.129 198.362 120.954C198.488 120.778 198.541 120.561 198.51 120.347C198.478 120.133 198.363 119.94 198.191 119.81L192.24 115.514C192.152 115.447 192.052 115.399 191.945 115.371C191.838 115.344 191.727 115.338 191.618 115.355C191.509 115.371 191.404 115.409 191.31 115.466C191.216 115.523 191.134 115.599 191.069 115.688C191.005 115.777 190.959 115.878 190.934 115.986C190.909 116.093 190.906 116.204 190.924 116.313C190.943 116.421 190.983 116.525 191.042 116.618C191.102 116.711 191.179 116.791 191.27 116.853L197.221 121.15ZM222.086 94.5008C222.545 94.5006 223 94.4099 223.424 94.2341C223.848 94.0582 224.234 93.8005 224.558 93.4758C224.883 93.1511 225.14 92.7656 225.316 92.3414C225.491 91.9172 225.582 91.4627 225.581 91.0036C225.581 90.5446 225.49 90.0901 225.315 89.6661C225.139 89.2421 224.881 88.8568 224.556 88.5324C224.231 88.208 223.845 87.9507 223.421 87.7752C222.997 87.5998 222.542 87.5095 222.083 87.5098C221.155 87.5102 220.266 87.8789 219.61 88.5347C218.955 89.1906 218.587 90.0799 218.587 91.0069C218.588 91.934 218.957 92.8229 219.613 93.4781C220.269 94.1334 221.159 94.5012 222.086 94.5008ZM560.697 305.662C560.238 305.662 559.783 305.752 559.359 305.927C558.934 306.102 558.549 306.359 558.224 306.684C557.899 307.008 557.641 307.393 557.464 307.817C557.288 308.241 557.197 308.695 557.197 309.154C557.197 309.613 557.287 310.068 557.462 310.492C557.637 310.916 557.895 311.302 558.219 311.627C558.543 311.952 558.929 312.21 559.353 312.386C559.777 312.562 560.231 312.653 560.691 312.653C561.605 312.634 562.475 312.258 563.115 311.605C563.755 310.953 564.114 310.076 564.115 309.162C564.116 308.248 563.759 307.37 563.12 306.716C562.481 306.062 561.611 305.683 560.697 305.662ZM192.968 151.81C193.263 153.034 194.267 154.039 195.492 154.335C196.081 154.483 196.699 154.477 197.284 154.315C197.87 154.153 198.404 153.843 198.833 153.413C199.263 152.983 199.573 152.449 199.734 151.863C199.895 151.278 199.901 150.66 199.752 150.072C199.599 149.463 199.284 148.907 198.841 148.464C198.397 148.02 197.841 147.705 197.233 147.552C196.644 147.402 196.026 147.408 195.44 147.569C194.853 147.729 194.319 148.04 193.889 148.469C193.459 148.898 193.148 149.432 192.986 150.018C192.825 150.604 192.819 151.221 192.968 151.81ZM587.095 189.449C587.031 189.36 586.951 189.285 586.858 189.228C586.765 189.171 586.662 189.132 586.555 189.115C586.447 189.098 586.338 189.102 586.232 189.127C586.126 189.152 586.026 189.198 585.938 189.262L579.988 193.556C579.81 193.684 579.69 193.878 579.655 194.095C579.62 194.311 579.673 194.533 579.801 194.711C580.672 195.912 581.767 193.97 586.908 190.603C586.996 190.54 587.071 190.459 587.128 190.367C587.185 190.274 587.224 190.171 587.241 190.064C587.258 189.956 587.255 189.847 587.229 189.741C587.204 189.635 587.158 189.537 587.095 189.449ZM550.142 166.95C551.069 166.951 551.959 166.583 552.615 165.928C553.271 165.273 553.641 164.384 553.641 163.457C553.642 162.53 553.274 161.641 552.619 160.985C551.963 160.329 551.074 159.96 550.147 159.959C549.687 159.959 549.233 160.049 548.808 160.224C548.384 160.4 547.998 160.657 547.673 160.981C547.348 161.306 547.09 161.691 546.914 162.115C546.738 162.539 546.648 162.993 546.647 163.452C546.647 163.911 546.737 164.366 546.912 164.79C547.088 165.214 547.345 165.6 547.67 165.925C547.994 166.249 548.38 166.507 548.804 166.683C549.228 166.859 549.682 166.95 550.142 166.95ZM580.946 221.3C580.338 221.453 579.782 221.768 579.339 222.211C578.895 222.655 578.58 223.21 578.427 223.818C578.278 224.407 578.284 225.024 578.445 225.61C578.606 226.196 578.916 226.729 579.346 227.159C579.775 227.589 580.309 227.9 580.895 228.061C581.48 228.223 582.098 228.23 582.687 228.081C583.297 227.928 583.853 227.612 584.298 227.168C584.742 226.724 585.058 226.167 585.211 225.558C585.36 224.969 585.354 224.352 585.193 223.766C585.031 223.18 584.72 222.646 584.29 222.217C583.86 221.788 583.326 221.477 582.739 221.317C582.153 221.156 581.535 221.15 580.946 221.3ZM108.199 407.89L114.15 403.596C114.241 403.533 114.318 403.453 114.378 403.36C114.437 403.267 114.477 403.164 114.496 403.055C114.515 402.947 114.511 402.835 114.486 402.728C114.462 402.621 114.415 402.519 114.351 402.43C114.286 402.341 114.204 402.265 114.11 402.208C114.016 402.151 113.911 402.113 113.802 402.097C113.693 402.081 113.582 402.086 113.475 402.114C113.368 402.141 113.268 402.189 113.18 402.256L107.229 406.55C107.138 406.613 107.061 406.693 107.002 406.786C106.942 406.879 106.902 406.982 106.883 407.091C106.865 407.2 106.868 407.311 106.893 407.418C106.918 407.526 106.964 407.627 107.028 407.716C107.093 407.805 107.175 407.881 107.269 407.938C107.363 407.995 107.468 408.033 107.577 408.049C107.686 408.066 107.797 408.06 107.904 408.033C108.011 408.005 108.111 407.957 108.199 407.89ZM77.3827 372.952C76.9235 372.952 76.4688 373.043 76.0447 373.219C75.6205 373.395 75.2352 373.653 74.9107 373.977C74.5862 374.302 74.3289 374.688 74.1534 375.112C73.978 375.536 73.8879 375.991 73.8882 376.45C73.8885 376.909 73.9793 377.363 74.1553 377.787C74.3314 378.211 74.5892 378.596 74.9142 378.921C75.2392 379.245 75.6248 379.502 76.0492 379.678C76.4736 379.853 76.9284 379.943 77.3877 379.943C78.3151 379.942 79.2044 379.573 79.8597 378.917C80.5151 378.261 80.8829 377.372 80.8822 376.445C80.8816 375.518 80.5125 374.629 79.8562 373.974C79.1999 373.319 78.3102 372.951 77.3827 372.952ZM267.175 134.137C269.692 132.052 272.433 130.253 275.347 128.771C275.543 128.671 275.691 128.498 275.76 128.29C275.828 128.081 275.811 127.854 275.711 127.658C275.61 127.463 275.437 127.315 275.228 127.247C275.019 127.179 274.792 127.196 274.596 127.294C271.575 128.831 268.733 130.698 266.122 132.86C265.953 133 265.846 133.201 265.825 133.419C265.804 133.638 265.87 133.856 266.01 134.025C266.149 134.194 266.35 134.301 266.569 134.322C266.787 134.344 267.005 134.277 267.175 134.137ZM414.142 253.119C414.014 253.296 413.961 253.518 413.996 253.734C414.03 253.951 414.15 254.145 414.327 254.273L420.281 258.57C420.459 258.692 420.678 258.74 420.891 258.704C421.104 258.667 421.294 258.549 421.421 258.374C421.548 258.198 421.601 257.981 421.569 257.767C421.537 257.553 421.423 257.36 421.25 257.23L415.297 252.932C415.209 252.868 415.109 252.822 415.004 252.797C414.898 252.772 414.788 252.768 414.681 252.785C414.574 252.803 414.471 252.841 414.378 252.898C414.286 252.956 414.206 253.03 414.142 253.119ZM430.432 302.079C429.843 301.929 429.226 301.935 428.64 302.096C428.054 302.257 427.52 302.567 427.09 302.997C426.66 303.426 426.349 303.96 426.188 304.545C426.026 305.131 426.02 305.748 426.169 306.337C426.464 307.561 427.468 308.565 428.693 308.861C429.282 309.01 429.9 309.003 430.486 308.842C431.071 308.68 431.605 308.369 432.034 307.94C432.464 307.51 432.774 306.976 432.935 306.39C433.096 305.805 433.102 305.187 432.953 304.598C432.8 303.99 432.485 303.434 432.042 302.991C431.598 302.547 431.042 302.232 430.434 302.079H430.432ZM237.598 468.831C238.187 468.98 238.805 468.973 239.391 468.811C239.977 468.65 240.51 468.339 240.94 467.909C241.369 467.479 241.68 466.945 241.841 466.36C242.002 465.774 242.008 465.157 241.858 464.568C241.705 463.959 241.391 463.404 240.947 462.96C240.503 462.517 239.948 462.201 239.339 462.048C238.75 461.899 238.133 461.905 237.547 462.066C236.961 462.227 236.427 462.537 235.997 462.966C235.567 463.396 235.256 463.929 235.094 464.515C234.932 465.1 234.926 465.718 235.074 466.306C235.369 467.531 236.374 468.535 237.598 468.831ZM255.38 408.992C255.508 408.814 255.561 408.593 255.526 408.376C255.491 408.16 255.372 407.966 255.194 407.837L249.241 403.541C249.153 403.475 249.053 403.426 248.946 403.399C248.84 403.372 248.728 403.366 248.619 403.382C248.51 403.398 248.406 403.436 248.311 403.494C248.217 403.551 248.135 403.626 248.071 403.715C248.006 403.805 247.96 403.906 247.935 404.013C247.91 404.121 247.907 404.232 247.926 404.341C247.944 404.449 247.985 404.553 248.044 404.646C248.103 404.739 248.181 404.819 248.271 404.881L254.224 409.179C254.402 409.307 254.624 409.36 254.841 409.325C255.057 409.29 255.251 409.17 255.38 408.992ZM79.5061 187.255C79.4184 187.186 79.3177 187.136 79.2101 187.107C79.1024 187.077 78.99 187.07 78.8795 187.086C78.7691 187.101 78.6629 187.139 78.5674 187.197C78.4719 187.254 78.389 187.33 78.3237 187.421C78.2584 187.511 78.2121 187.614 78.1874 187.723C78.1628 187.831 78.1605 187.944 78.1805 188.053C78.2005 188.163 78.2425 188.268 78.3039 188.361C78.3653 188.454 78.4449 188.533 78.5379 188.595L84.4893 192.891C84.6673 193.014 84.8863 193.062 85.0994 193.025C85.3125 192.989 85.5028 192.87 85.6296 192.695C85.7564 192.52 85.8095 192.302 85.7776 192.088C85.7458 191.875 85.6314 191.682 85.4591 191.551L79.5061 187.255ZM439.258 164.267C439.322 164.179 439.368 164.079 439.393 163.973C439.418 163.867 439.422 163.757 439.405 163.65C439.388 163.543 439.349 163.44 439.292 163.347C439.235 163.255 439.16 163.174 439.071 163.111L433.122 158.816C433.034 158.75 432.934 158.701 432.827 158.674C432.72 158.647 432.609 158.641 432.5 158.657C432.391 158.673 432.286 158.711 432.192 158.768C432.098 158.826 432.016 158.901 431.951 158.99C431.887 159.08 431.841 159.181 431.816 159.288C431.791 159.396 431.787 159.507 431.806 159.615C431.825 159.724 431.865 159.828 431.924 159.921C431.984 160.013 432.061 160.094 432.152 160.156L438.102 164.452C438.19 164.516 438.289 164.562 438.395 164.587C438.501 164.613 438.611 164.617 438.718 164.599C438.826 164.582 438.929 164.544 439.022 164.487C439.114 164.43 439.195 164.355 439.258 164.267Z" fill="#7764F0"/>
</svg>
