<svg width="100" height="100" viewBox="0 0 100 100" fill="none" xmlns="http://www.w3.org/2000/svg">
<path d="M42.8812 82V70.7644H62.7558V79.1911C62.7558 79.9635 63.2414 80.1854 63.8348 79.6827L81.5544 64.6578C81.6934 64.5484 81.8056 64.4094 81.8828 64.2511C81.9599 64.0928 82 63.9193 82 63.7435C82 63.5678 81.9599 63.3943 81.8828 63.236C81.8056 63.0777 81.6934 62.9387 81.5544 62.8292L63.8348 47.8044C63.2414 47.3016 62.7558 47.5235 62.7558 48.2932V56.7199H42.8812V37.0576H52.8185C53.5993 37.0576 53.8038 36.5941 53.2728 36.0295L36.7514 18.4261C36.6294 18.292 36.4803 18.1847 36.3138 18.1113C36.1472 18.0379 35.9669 18 35.7846 18C35.6023 18 35.422 18.0379 35.2554 18.1113C35.0889 18.1847 34.9398 18.292 34.8178 18.4261L18.2964 36.0267C17.7654 36.5885 17.967 37.0547 18.7478 37.0576H28.6851V82" stroke="black" stroke-width="3" stroke-linecap="round" stroke-linejoin="round"/>
</svg>
