<svg width="100" height="100" viewBox="0 0 100 100" fill="none" xmlns="http://www.w3.org/2000/svg">
<path d="M56 29.9958C63.4764 28.5193 69.4956 22.5343 71.0006 15C72.506 22.5343 78.5236 28.5193 86 29.9958M86 30.0044C78.5236 31.4808 72.5044 37.4658 70.9994 45C69.494 37.4658 63.4764 31.4808 56 30.0044" stroke="#3DD3F2" stroke-width="3" stroke-linecap="round" stroke-linejoin="round"/>
<path d="M63 62H27L30.9892 51.2001C32.1859 47.9999 35.3773 46 38.5687 46H51.4314C54.6227 46 57.814 47.9999 59.0108 51.2001L63 62Z" stroke="black" stroke-width="3" stroke-miterlimit="10" stroke-linecap="round" stroke-linejoin="round"/>
<path d="M64.1668 79H70.0667C72.4265 79 74 77.4356 74 75.0893V69.8215C74 65.5196 70.46 62 66.1333 62H22.8667C18.54 62 15 65.5196 15 69.8215V75.0893C15 77.4356 16.5733 79 18.9333 79H24.8333" stroke="black" stroke-width="3" stroke-miterlimit="10" stroke-linecap="round" stroke-linejoin="round"/>
<path d="M36 79H52" stroke="black" stroke-width="3" stroke-miterlimit="10" stroke-linecap="round" stroke-linejoin="round"/>
<path d="M58.0002 85C54.6863 85 52 82.3137 52 79.0002C52 75.6863 54.6863 73 58.0002 73C61.3137 73 64 75.6863 64 79.0002C64 82.3137 61.3137 85 58.0002 85Z" stroke="black" stroke-width="3" stroke-miterlimit="10" stroke-linecap="round" stroke-linejoin="round"/>
<path d="M30 85C26.6863 85 24 82.3137 24 79.0002C24 75.6863 26.6863 73 30 73C33.3137 73 36 75.6863 36 79.0002C36 82.3137 33.3137 85 30 85Z" stroke="black" stroke-width="3" stroke-miterlimit="10" stroke-linecap="round" stroke-linejoin="round"/>
</svg>
