<svg width="100" height="100" viewBox="0 0 100 100" fill="none" xmlns="http://www.w3.org/2000/svg">
<path d="M84 43.7652C84.0013 53.408 80.5872 62.7396 74.3633 70.1048C68.1394 77.4701 59.5079 82.3929 50 84C40.4921 82.3929 31.8606 77.4701 25.6367 70.1048C19.4128 62.7396 15.9987 53.408 16 43.7652V20.5333C16 19.331 16.4776 18.1779 17.3278 17.3278C18.1779 16.4776 19.331 16 20.5333 16H79.4667C80.669 16 81.8221 16.4776 82.6722 17.3278C83.5224 18.1779 84 19.331 84 20.5333V43.7652Z" stroke="black" stroke-width="3" stroke-linecap="round" stroke-linejoin="round"/>
<path d="M70.5 50C73.5376 50 76 47.5376 76 44.5C76 41.4624 73.5376 39 70.5 39C67.4624 39 65 41.4624 65 44.5C65 47.5376 67.4624 50 70.5 50Z" stroke="black" stroke-width="3" stroke-linecap="round" stroke-linejoin="round"/>
<path d="M80 57C78.0391 54.8849 75.1693 53.4886 71.9971 53.106C68.8249 52.7235 65.5986 53.3847 63 54.9499" stroke="black" stroke-width="3" stroke-linecap="round" stroke-linejoin="round"/>
<path d="M29.5 50C32.5376 50 35 47.5376 35 44.5C35 41.4624 32.5376 39 29.5 39C26.4624 39 24 41.4624 24 44.5C24 47.5376 26.4624 50 29.5 50Z" stroke="black" stroke-width="3" stroke-linecap="round" stroke-linejoin="round"/>
<path d="M20 57C21.9614 54.8849 24.8311 53.4887 28.0031 53.1061C31.175 52.7235 34.4011 53.3844 37 54.9494" stroke="black" stroke-width="3" stroke-linecap="round" stroke-linejoin="round"/>
<path d="M62.9985 62C63.0247 60.3022 62.7078 58.6162 62.0663 57.0401C61.4248 55.4641 60.4715 54.0294 59.2619 52.8197C58.0523 51.6099 56.6105 50.6492 55.0204 49.9935C53.4304 49.3377 51.7238 49 50 49C48.2762 49 46.5696 49.3377 44.9796 49.9935C43.3895 50.6492 41.9477 51.6099 40.7381 52.8197C39.5285 54.0294 38.5752 55.4641 37.9337 57.0401C37.2922 58.6162 36.9753 60.3022 37.0015 62" stroke="#3DD3F2" stroke-width="3" stroke-linecap="round" stroke-linejoin="round"/>
<path d="M49.5 46C53.6421 46 57 42.4183 57 38C57 33.5817 53.6421 30 49.5 30C45.3579 30 42 33.5817 42 38C42 42.4183 45.3579 46 49.5 46Z" stroke="#3DD3F2" stroke-width="3" stroke-linecap="round" stroke-linejoin="round"/>
</svg>
