<svg width="606" height="350" viewBox="0 0 606 350" fill="none" xmlns="http://www.w3.org/2000/svg">
<g clip-path="url(#clip0_2439_8306)">
<path d="M420.279 119.849L418.69 111.074L406.863 106.452L408.454 115.227L420.279 119.849Z" fill="#BF51FF"/>
<path d="M440.322 127.685L438.731 118.911L426.906 114.286L428.495 123.063L440.322 127.685Z" fill="#BF51FF"/>
<path d="M572.791 179.466V171.311L567.219 169.134L568.81 177.909L572.791 179.466Z" fill="#BF51FF"/>
<path d="M380.189 104.178L378.6 95.4034L366.773 90.7812L368.362 99.5562L380.189 104.178Z" fill="#BF51FF"/>
<path d="M400.232 112.016L398.643 103.241L386.816 98.6162L388.405 107.393L400.232 112.016Z" fill="#BF51FF"/>
<path d="M360.146 96.3447L358.555 87.5697L346.73 82.9453L348.319 91.7203L360.146 96.3447Z" fill="#BF51FF"/>
<path d="M325.675 82.2763L324.953 82.5877L340.1 88.5089L338.511 79.7339L325.675 74.7158V82.2763Z" fill="#BF51FF"/>
<path d="M460.368 135.519L458.78 126.744L446.953 122.122L448.542 130.897L460.368 135.519Z" fill="#BF51FF"/>
<path d="M560.587 174.697L558.999 165.922L547.172 161.3L548.76 170.075L560.587 174.697Z" fill="#BF51FF"/>
<path d="M540.544 166.862L538.956 158.085L527.129 153.463L528.718 162.238L540.544 166.862Z" fill="#BF51FF"/>
<path d="M480.411 143.356L478.823 134.581L466.996 129.959L468.585 138.734L480.411 143.356Z" fill="#BF51FF"/>
<path d="M500.454 151.192L498.866 142.415L487.039 137.793L488.63 146.568L500.454 151.192Z" fill="#BF51FF"/>
<path d="M520.501 159.026L518.91 150.251L507.086 145.629L508.675 154.404L520.501 159.026Z" fill="#BF51FF"/>
<path d="M340.1 88.5084L348.32 91.7203L346.731 82.9453L338.512 79.7334L340.1 88.5084Z" fill="#90E7FF"/>
<path d="M368.363 99.5562L366.774 90.7813L358.555 87.5693L360.146 96.3443L368.363 99.5562Z" fill="#90E7FF"/>
<path d="M388.407 107.393L386.819 98.6162L378.602 95.4043L380.19 104.179L388.407 107.393Z" fill="#90E7FF"/>
<path d="M408.453 115.227L406.862 106.452L398.645 103.24L400.233 112.015L408.453 115.227Z" fill="#90E7FF"/>
<path d="M428.496 123.063L426.907 114.286L418.688 111.074L420.276 119.849L428.496 123.063Z" fill="#90E7FF"/>
<path d="M448.542 130.897L446.954 122.122L438.734 118.91L440.325 127.685L448.542 130.897Z" fill="#90E7FF"/>
<path d="M468.583 138.733L466.995 129.958L458.777 126.744L460.366 135.519L468.583 138.733Z" fill="#90E7FF"/>
<path d="M488.632 146.568L487.041 137.793L478.824 134.581L480.413 143.356L488.632 146.568Z" fill="#90E7FF"/>
<path d="M508.675 154.404L507.087 145.629L498.867 142.415L500.456 151.192L508.675 154.404Z" fill="#90E7FF"/>
<path d="M528.718 162.238L527.13 153.463L518.91 150.251L520.501 159.026L528.718 162.238Z" fill="#90E7FF"/>
<path d="M548.763 170.074L547.174 161.299L538.957 158.085L540.546 166.862L548.763 170.074Z" fill="#90E7FF"/>
<path d="M568.808 177.909L567.217 169.134L559 165.922L560.589 174.697L568.808 177.909Z" fill="#90E7FF"/>
<path d="M122.684 161.458L127.481 167.61L137.734 163.188L132.922 157.014L122.684 161.458Z" fill="#BF51FF"/>
<path d="M226.809 116.27L231.766 122.632L242.022 118.207L237.047 111.828L226.809 116.27Z" fill="#BF51FF"/>
<path d="M244.16 108.741L249.147 115.136L259.403 110.712L254.4 104.297L244.16 108.741Z" fill="#BF51FF"/>
<path d="M87.9727 176.518L92.7163 182.604L102.972 178.18L98.2107 172.074L87.9727 176.518Z" fill="#BF51FF"/>
<path d="M105.328 168.987L110.098 175.108L120.354 170.684L115.566 164.545L105.328 168.987Z" fill="#BF51FF"/>
<path d="M140.035 153.926L144.861 160.114L155.115 155.692L150.275 149.481L140.035 153.926Z" fill="#BF51FF"/>
<path d="M157.391 146.394L162.243 152.618L172.497 148.194L167.631 141.952L157.391 146.394Z" fill="#BF51FF"/>
<path d="M209.453 123.802L214.384 130.128L224.64 125.706L219.691 119.357L209.453 123.802Z" fill="#BF51FF"/>
<path d="M192.098 131.334L197.002 137.624L207.258 133.202L202.336 126.89L192.098 131.334Z" fill="#BF51FF"/>
<path d="M46.1485 194.669L40.3555 197.182V205.188L50.8275 200.67L46.1485 194.669Z" fill="#BF51FF"/>
<path d="M323.887 74.264L323.816 74.1729L313.578 78.6171L318.669 85.1499L324.772 82.5163L323.887 82.1715V74.264Z" fill="#BF51FF"/>
<path d="M324.951 82.5878L324.771 82.5166L318.668 85.1502L311.543 88.222L301.289 92.6462L294.161 95.7202L283.908 100.142L276.78 103.216L266.526 107.638L259.401 110.712L249.145 115.136L242.02 118.208L231.764 122.632L224.638 125.706L214.383 130.128L207.257 133.202L197.001 137.624L189.876 140.698L179.622 145.122L172.494 148.194L162.241 152.618L155.113 155.692L144.86 160.114L137.732 163.188L127.478 167.61L120.353 170.684L110.097 175.109L102.971 178.18L92.7155 182.605L85.5901 185.679L75.3342 190.101L68.2088 193.175L57.9529 197.597L50.8275 200.671L40.3555 205.188V205.337L324.951 82.5878Z" fill="#BF51FF"/>
<path d="M325.675 74.7154V73.3652L325.332 73.5165V74.5819L325.675 74.7154Z" fill="#BF51FF"/>
<path d="M174.746 138.863L179.626 145.122L189.879 140.698L184.986 134.421L174.746 138.863Z" fill="#BF51FF"/>
<path d="M70.6172 184.05L75.334 190.1L85.5899 185.678L80.8575 179.605L70.6172 184.05Z" fill="#BF51FF"/>
<path d="M296.223 86.1461L301.289 92.6456L311.543 88.2214L306.461 81.7041L296.223 86.1461Z" fill="#BF51FF"/>
<path d="M278.871 93.6773L283.911 100.141L294.165 95.7193L289.111 89.2354L278.871 93.6773Z" fill="#BF51FF"/>
<path d="M261.516 101.21L266.529 107.638L276.782 103.216L271.756 96.7656L261.516 101.21Z" fill="#BF51FF"/>
<path d="M53.2656 191.58L57.9558 197.596L68.2116 193.175L63.5059 187.138L53.2656 191.58Z" fill="#BF51FF"/>
<path d="M325.331 76.1143L323.887 74.2637V82.1712L324.771 82.5159L325.331 82.2757V76.1143Z" fill="#BF51FF"/>
<path d="M325.333 76.1146V82.276L324.773 82.5162L324.954 82.5874L325.676 82.276V74.7155L325.333 74.582V76.1146Z" fill="#BF51FF"/>
<path d="M53.2637 191.579L53.1768 191.468L46.0625 194.555L46.1494 194.669L53.2637 191.579Z" fill="#90E7FF"/>
<path d="M46.1484 194.669L50.8274 200.67L57.9529 197.596L53.2627 191.579L46.1484 194.669Z" fill="#90E7FF"/>
<path d="M70.6192 184.05L70.5323 183.937L63.418 187.026L63.5049 187.137L70.6192 184.05Z" fill="#90E7FF"/>
<path d="M63.5039 187.137L68.2096 193.174L75.3351 190.1L70.6182 184.05L63.5039 187.137Z" fill="#90E7FF"/>
<path d="M87.9729 176.518L87.886 176.407L80.7695 179.495L80.8587 179.606L87.9729 176.518Z" fill="#90E7FF"/>
<path d="M80.8594 179.606L85.5918 185.678L92.7173 182.604L87.9737 176.519L80.8594 179.606Z" fill="#90E7FF"/>
<path d="M105.328 168.987L105.242 168.876L98.125 171.963L98.2119 172.075L105.328 168.987Z" fill="#90E7FF"/>
<path d="M98.2109 172.074L102.972 178.179L110.098 175.108L105.327 168.986L98.2109 172.074Z" fill="#90E7FF"/>
<path d="M122.684 161.457L122.597 161.344L115.48 164.431L115.567 164.545L122.684 161.457Z" fill="#90E7FF"/>
<path d="M115.566 164.544L120.355 170.684L127.48 167.61L122.683 161.457L115.566 164.544Z" fill="#90E7FF"/>
<path d="M140.033 153.926L139.946 153.814L132.832 156.902L132.919 157.013L140.033 153.926Z" fill="#90E7FF"/>
<path d="M132.922 157.013L137.735 163.188L144.862 160.114L140.036 153.926L132.922 157.013Z" fill="#90E7FF"/>
<path d="M157.389 146.394L157.302 146.283L150.188 149.371L150.274 149.482L157.389 146.394Z" fill="#90E7FF"/>
<path d="M150.273 149.482L155.113 155.692L162.24 152.618L157.388 146.395L150.273 149.482Z" fill="#90E7FF"/>
<path d="M174.744 138.863L174.657 138.752L167.543 141.839L167.63 141.953L174.744 138.863Z" fill="#90E7FF"/>
<path d="M167.629 141.952L172.495 148.193L179.623 145.122L174.743 138.862L167.629 141.952Z" fill="#90E7FF"/>
<path d="M192.098 131.333L192.011 131.22L184.895 134.309L184.984 134.421L192.098 131.333Z" fill="#90E7FF"/>
<path d="M184.984 134.42L189.877 140.697L197.003 137.623L192.099 131.333L184.984 134.42Z" fill="#90E7FF"/>
<path d="M209.453 123.802L209.367 123.69L202.25 126.778L202.337 126.889L209.453 123.802Z" fill="#90E7FF"/>
<path d="M202.336 126.889L207.258 133.202L214.383 130.128L209.452 123.802L202.336 126.889Z" fill="#90E7FF"/>
<path d="M226.809 116.27L226.72 116.159L219.605 119.247L219.692 119.358L226.809 116.27Z" fill="#90E7FF"/>
<path d="M219.691 119.358L224.64 125.706L231.765 122.632L226.808 116.271L219.691 119.358Z" fill="#90E7FF"/>
<path d="M244.162 108.741L244.075 108.628L236.961 111.715L237.048 111.829L244.162 108.741Z" fill="#90E7FF"/>
<path d="M237.047 111.829L242.022 118.208L249.148 115.136L244.161 108.741L237.047 111.829Z" fill="#90E7FF"/>
<path d="M261.514 101.209L261.427 101.098L254.312 104.185L254.399 104.296L261.514 101.209Z" fill="#90E7FF"/>
<path d="M254.402 104.296L259.404 110.711L266.53 107.637L261.517 101.209L254.402 104.296Z" fill="#90E7FF"/>
<path d="M278.869 93.6776L278.782 93.5664L271.668 96.6538L271.755 96.765L278.869 93.6776Z" fill="#90E7FF"/>
<path d="M271.754 96.7651L276.78 103.216L283.908 100.142L278.868 93.6777L271.754 96.7651Z" fill="#90E7FF"/>
<path d="M296.223 86.1464L296.136 86.0352L289.02 89.1225L289.109 89.236L296.223 86.1464Z" fill="#90E7FF"/>
<path d="M289.109 89.2361L294.163 95.72L301.29 92.646L296.224 86.1465L289.109 89.2361Z" fill="#90E7FF"/>
<path d="M313.578 78.6173L313.492 78.5039L306.375 81.5913L306.462 81.7047L313.578 78.6173Z" fill="#90E7FF"/>
<path d="M306.461 81.7046L311.543 88.2218L318.669 85.15L313.577 78.6172L306.461 81.7046Z" fill="#90E7FF"/>
<path d="M323.889 74.1415V74.017L324.04 74.077L325.332 73.5165V73.3652L323.73 74.0614L323.817 74.1727L323.889 74.1415Z" fill="#90E7FF"/>
<path d="M323.887 74.0166V74.1412L324.038 74.0767L323.887 74.0166Z" fill="#90E7FF"/>
<path d="M323.888 74.1416L323.816 74.1727L323.888 74.2639V74.1416Z" fill="#90E7FF"/>
<path d="M325.331 74.582V73.5166L324.039 74.0771L325.331 74.582Z" fill="#90E7FF"/>
<path d="M325.331 76.1146V74.5821L324.038 74.0771L323.887 74.1417V74.264L325.331 76.1146Z" fill="#90E7FF"/>
<path d="M151.46 265.488L56.5586 224.892L332.445 118.096L561.902 191.49" fill="#EEE9FF"/>
<path d="M330.51 50.7654L297.075 36.999L229.312 59.8073L239.446 85.4582L330.51 50.7654Z" fill="#E5DCFF"/>
<path d="M249.707 78.5544L330.159 50.5635V124.353L249.707 164.384V78.5544Z" fill="#AE93FF"/>
<path d="M258.645 88.2036L318.801 68.0957V92.5121L258.645 112.538V88.2036Z" fill="#B3EFFF"/>
<path d="M274.525 77.9092H270.559V113.683H274.525V77.9092Z" fill="#AE93FF"/>
<path d="M290.704 73.2158H286.738V108.99H290.704V73.2158Z" fill="#AE93FF"/>
<path d="M307.111 67.5703H303.145V103.344H307.111V67.5703Z" fill="#AE93FF"/>
<path d="M183.419 36.2739L150.207 23.5107V145.048L182.771 157.122L183.419 36.2739Z" fill="#9876FF"/>
<path d="M181.969 173.266V36.2744L249.484 12.2383V166.84L181.969 173.266Z" fill="#B39AFF"/>
<path d="M234.043 296.926V163.927L305.299 134.581L305.072 300.153L234.043 296.926Z" fill="#E3B2FF"/>
<path d="M409.133 161.577L490.193 73.4092L522.222 81.8016L448.753 172.941L409.133 161.577Z" fill="#C9B7FF"/>
<path d="M448.754 172.149V245.107L562.402 193.881V102.059L522.223 81.0098L448.754 172.149Z" fill="#DDA4FF"/>
<path d="M316.812 181.074L361.793 212.554L448.934 172.492L385.406 154.735" fill="#D9CCFF"/>
<path d="M372.901 278.935L450.148 244.587L448.934 172.492L368.246 207.83L372.901 278.935Z" fill="#AE93FF"/>
<path d="M276.508 320.761L372.899 278.737V177.628L276.508 220.831V320.761Z" fill="#B39AFF"/>
<path d="M276.506 320.627L234.043 301.765V203.525L276.506 220.697V320.627Z" fill="#9876FF"/>
<path d="M234.172 203.526L328.026 162.888L373.029 177.493L276.635 220.698L234.172 203.526Z" fill="#F1D9FF"/>
<path d="M132.149 202.271C143.033 202.271 151.856 193.463 151.856 182.597C151.856 171.731 143.033 162.923 132.149 162.923C121.265 162.923 112.441 171.731 112.441 182.597C112.441 193.463 121.265 202.271 132.149 202.271Z" fill="#D7C9FF"/>
<path d="M97.4887 200.17C105.987 200.17 112.876 193.292 112.876 184.808C112.876 176.325 105.987 169.447 97.4887 169.447C88.9906 169.447 82.1016 176.325 82.1016 184.808C82.1016 193.292 88.9906 200.17 97.4887 200.17Z" fill="#D7C9FF"/>
<path d="M110.166 178.804C122.409 178.804 132.335 168.895 132.335 156.672C132.335 144.449 122.409 134.54 110.166 134.54C97.9217 134.54 87.9961 144.449 87.9961 156.672C87.9961 168.895 97.9217 178.804 110.166 178.804Z" fill="#D7C9FF"/>
<path d="M112.656 147.551C119.001 147.551 124.144 142.416 124.144 136.082C124.144 129.748 119.001 124.613 112.656 124.613C106.311 124.613 101.168 129.748 101.168 136.082C101.168 142.416 106.311 147.551 112.656 147.551Z" fill="#D7C9FF"/>
<path d="M113.054 199.115C119.399 199.115 124.542 193.98 124.542 187.646C124.542 181.312 119.399 176.178 113.054 176.178C106.71 176.178 101.566 181.312 101.566 187.646C101.566 193.98 106.71 199.115 113.054 199.115Z" fill="#D7C9FF"/>
<path d="M129.062 176.644C135.407 176.644 140.55 171.51 140.55 165.176C140.55 158.842 135.407 153.707 129.062 153.707C122.718 153.707 117.574 158.842 117.574 165.176C117.574 171.51 122.718 176.644 129.062 176.644Z" fill="#D7C9FF"/>
<path d="M115.871 180.479H112.719V218.097H115.871V180.479Z" fill="#B639FF"/>
<path d="M147.615 264.381L56.4258 224.813L87.0731 212.948L163.904 243.003L147.615 264.381Z" fill="#842EFF"/>
<path d="M147.335 262.061L56.1484 222.492L86.7958 210.628L163.625 240.683L147.335 262.061Z" fill="#D7C9FF"/>
<mask id="mask0_2439_8306" style="mask-type:luminance" maskUnits="userSpaceOnUse" x="57" y="212" width="108" height="49">
<path d="M143.192 260.377L57.3789 224.176L88.0263 212.312L164.857 242.367L143.192 260.377Z" fill="white"/>
</mask>
<g mask="url(#mask0_2439_8306)">
<path d="M66.4705 234.868C72.4685 232.283 78.4643 229.701 84.4623 227.116C91.6434 224.022 98.8245 220.928 106.003 217.834C108.735 216.657 111.464 215.481 114.196 214.304C115.508 213.739 114.377 211.822 113.071 212.384C108.089 214.531 103.107 216.677 98.1249 218.824C89.4666 222.554 80.8082 226.284 72.1498 230.014C69.8817 230.991 67.6135 231.97 65.3453 232.946C64.0329 233.511 65.1648 235.429 66.4705 234.866V234.868Z" fill="#AE93FF"/>
<path d="M84.8923 243.888C90.8903 241.303 96.8861 238.72 102.884 236.136C110.065 233.042 117.246 229.948 124.425 226.854C127.157 225.677 129.886 224.5 132.618 223.324C133.93 222.759 132.798 220.841 131.493 221.404C126.511 223.55 121.529 225.697 116.547 227.843C107.888 231.574 99.2301 235.304 90.5717 239.034C88.3035 240.011 86.0353 240.989 83.7671 241.966C82.4548 242.531 83.5867 244.448 84.8923 243.885V243.888Z" fill="#AE93FF"/>
<path d="M103.467 255.494C109.465 252.909 115.46 250.327 121.458 247.742C128.639 244.648 135.821 241.554 143 238.46C145.731 237.283 148.461 236.107 151.192 234.93C152.505 234.365 151.373 232.448 150.067 233.01C145.085 235.157 140.103 237.303 135.121 239.45C126.463 243.18 117.804 246.91 109.146 250.64C106.878 251.617 104.61 252.596 102.341 253.572C101.029 254.137 102.161 256.054 103.467 255.492V255.494Z" fill="#AE93FF"/>
</g>
<path d="M183.128 123.946C183.734 123.728 184.338 123.51 184.944 123.292C186.591 122.698 188.237 122.105 189.884 121.511C192.301 120.639 194.719 119.767 197.136 118.895C200.104 117.825 203.072 116.753 206.04 115.683C209.291 114.511 212.541 113.339 215.792 112.164C219.063 110.985 222.334 109.804 225.605 108.625C228.655 107.524 231.703 106.425 234.753 105.324C237.338 104.392 239.922 103.46 242.509 102.526L248.066 100.522C248.944 100.206 249.824 99.8925 250.7 99.5721C250.737 99.5588 250.775 99.5455 250.813 99.5321C251.633 99.2363 252.273 98.3844 251.981 97.4791C251.72 96.6739 250.804 95.9954 249.924 96.3135C249.318 96.5315 248.714 96.7495 248.108 96.9675C246.462 97.5614 244.815 98.1553 243.169 98.7492C240.751 99.6211 238.334 100.493 235.916 101.365C232.948 102.435 229.981 103.507 227.013 104.577C223.762 105.749 220.511 106.921 217.26 108.096C213.99 109.275 210.719 110.456 207.448 111.635C204.398 112.736 201.35 113.835 198.299 114.936C195.715 115.868 193.13 116.8 190.543 117.734L184.987 119.738C184.109 120.054 183.229 120.367 182.353 120.688C182.315 120.701 182.277 120.714 182.239 120.728C181.419 121.024 180.78 121.875 181.072 122.781C181.332 123.586 182.248 124.264 183.128 123.946Z" fill="#BA43FF"/>
<path d="M181.949 69.1807C182.555 68.9627 183.159 68.7447 183.765 68.5267C185.411 67.9328 187.058 67.339 188.704 66.7451C191.122 65.8731 193.539 65.0012 195.957 64.1293C198.924 63.0593 201.892 61.9872 204.86 60.9173C208.111 59.7451 211.362 58.5729 214.612 57.3984C217.883 56.2195 221.154 55.0384 224.425 53.8595C227.475 52.7585 230.523 51.6597 233.573 50.5586C236.158 49.6266 238.743 48.6947 241.329 47.7604C243.181 47.0931 245.035 46.4236 246.886 45.7563C247.764 45.4405 248.644 45.1268 249.52 44.8065C249.558 44.7932 249.596 44.7798 249.634 44.7665C250.453 44.4707 251.093 43.6187 250.801 42.7134C250.54 41.9082 249.625 41.2298 248.745 41.5479C248.138 41.7659 247.535 41.9839 246.929 42.2018C245.282 42.7957 243.635 43.3896 241.989 43.9835C239.571 44.8555 237.154 45.7274 234.737 46.5993C231.769 47.6692 228.801 48.7414 225.833 49.8113C222.582 50.9835 219.332 52.1557 216.081 53.3301C212.81 54.509 209.539 55.6902 206.268 56.869C203.218 57.9701 200.17 59.0689 197.12 60.17C194.535 61.1019 191.951 62.0339 189.364 62.9682L183.807 64.9723C182.929 65.2881 182.049 65.6018 181.173 65.9221C181.135 65.9354 181.098 65.9487 181.06 65.9621C180.24 66.2579 179.6 67.1098 179.892 68.0152C180.153 68.8204 181.069 69.4988 181.949 69.1807Z" fill="#BA43FF"/>
<path d="M182.035 96.2334C182.641 96.0154 183.244 95.7975 183.85 95.5795C185.497 94.9856 187.144 94.3917 188.79 93.7978C191.208 92.9259 193.625 92.0539 196.043 91.182C199.01 90.1121 201.978 89.04 204.946 87.9701C208.197 86.7978 211.448 85.6256 214.698 84.4512C217.969 83.2723 221.24 82.0912 224.511 80.9123C227.561 79.8112 230.609 78.7124 233.659 77.6114C236.244 76.6794 238.829 75.7474 241.415 74.8132C243.267 74.1459 245.121 73.4763 246.972 72.809C247.85 72.4932 248.73 72.1796 249.606 71.8593C249.644 71.8459 249.682 71.8326 249.719 71.8192C250.539 71.5234 251.179 70.6715 250.887 69.7662C250.626 68.961 249.711 68.2825 248.83 68.6006C248.224 68.8186 247.621 69.0366 247.015 69.2546C245.368 69.8485 243.721 70.4424 242.075 71.0363C239.657 71.9082 237.24 72.7801 234.822 73.6521C231.855 74.722 228.887 75.7941 225.919 76.864C222.668 78.0362 219.417 79.2084 216.167 80.3829C212.896 81.5618 209.625 82.7429 206.354 83.9218C203.304 85.0228 200.256 86.1216 197.206 87.2227C194.621 88.1547 192.036 89.0867 189.45 90.0209C187.598 90.6882 185.744 91.3577 183.893 92.025C183.015 92.3409 182.135 92.6545 181.259 92.9748C181.221 92.9881 181.183 93.0015 181.146 93.0148C180.326 93.3107 179.686 94.1626 179.978 95.0679C180.239 95.8731 181.154 96.5515 182.035 96.2334Z" fill="#BA43FF"/>
<path d="M234.045 164.365L142.504 128.655L143.266 262.5L234.045 301.766V164.365Z" fill="#D182FF"/>
<path d="M305.301 134.58L234.096 166.028L142.504 128.655L217.575 101.763L305.301 134.58Z" fill="#E5DCFF"/>
<path d="M150.207 23.5111L217.179 0L250.937 12.2382L183.419 36.2743L150.207 23.5111Z" fill="#F1D9FF"/>
<mask id="mask1_2439_8306" style="mask-type:luminance" maskUnits="userSpaceOnUse" x="142" y="101" width="164" height="66">
<path d="M305.301 134.58L234.096 166.028L142.504 128.655L217.575 101.763L305.301 134.58Z" fill="white"/>
</mask>
<g mask="url(#mask1_2439_8306)">
<path d="M217.698 92.3467V110.468L155.32 134.422" stroke="#BA43FF" stroke-width="5" stroke-miterlimit="10"/>
<path d="M217.699 110.469L294.127 140.172" stroke="#BA43FF" stroke-width="5" stroke-miterlimit="10"/>
</g>
<path d="M266.41 190.841C268.614 189.886 308.468 206.805 308.468 206.805V179.374L266.41 163.241V190.843V190.841Z" fill="#9774FF"/>
<path d="M263.477 191.347C265.68 190.393 305.534 207.311 305.534 207.311V179.881L263.477 163.748V191.35V191.347Z" fill="#BCA5FF"/>
<path d="M276.508 320.627L562.401 193.881L561.904 212.554L276.508 339.87V320.627Z" fill="#BCA5FF"/>
<path d="M276.681 339.697L56.6016 242.202V223.044L276.681 320.452V339.697Z" fill="#9774FF"/>
<path d="M288.199 260.184V233.116L307.256 224.497V251.231L288.199 260.184Z" fill="#EEE9FF"/>
<path d="M316.27 247.774V220.706L335.326 212.085V238.821L316.27 247.774Z" fill="#EEE9FF"/>
<path d="M341.039 235.953V208.887L360.096 200.266V227L341.039 235.953Z" fill="#EEE9FF"/>
<path d="M302.996 226.426V249.392L307.258 251.231V224.497L302.996 226.426Z" fill="#A0EBFF"/>
<path d="M120.586 164.954C120.826 161.566 118.777 158.661 116.011 158.466C113.244 158.271 110.807 160.86 110.567 164.248C110.327 167.636 112.376 170.541 115.142 170.736C117.909 170.931 120.346 168.343 120.586 164.954Z" fill="#F7E9FF"/>
<path d="M129.813 169.016C130.052 165.628 128.004 162.723 125.237 162.528C122.47 162.333 120.033 164.921 119.793 168.309C119.554 171.698 121.602 174.602 124.369 174.798C127.136 174.993 129.573 172.404 129.813 169.016Z" fill="#F7E9FF"/>
<path d="M139.293 173.189C139.533 169.8 137.484 166.896 134.718 166.7C131.951 166.505 129.514 169.094 129.274 172.482C129.034 175.87 131.083 178.775 133.849 178.97C136.616 179.165 139.053 176.577 139.293 173.189Z" fill="#F7E9FF"/>
<path d="M148.949 177.438C149.189 174.049 147.141 171.145 144.374 170.949C141.607 170.754 139.17 173.343 138.93 176.731C138.69 180.119 140.739 183.024 143.506 183.219C146.272 183.415 148.71 180.826 148.949 177.438Z" fill="#F7E9FF"/>
<path d="M158.469 181.627C158.709 178.239 156.66 175.334 153.893 175.139C151.127 174.944 148.689 177.532 148.45 180.921C148.21 184.309 150.259 187.214 153.025 187.409C155.792 187.604 158.229 185.015 158.469 181.627Z" fill="#F7E9FF"/>
<path d="M167.793 185.73C168.033 182.341 165.984 179.437 163.218 179.241C160.451 179.046 158.014 181.635 157.774 185.023C157.534 188.411 159.583 191.316 162.349 191.511C165.116 191.707 167.553 189.118 167.793 185.73Z" fill="#F7E9FF"/>
<path d="M177.309 189.921C177.548 186.533 175.5 183.628 172.733 183.433C169.966 183.238 167.529 185.826 167.29 189.215C167.05 192.603 169.098 195.508 171.865 195.703C174.632 195.898 177.069 193.309 177.309 189.921Z" fill="#F7E9FF"/>
<path d="M186.844 194.114C187.084 190.726 185.035 187.821 182.268 187.626C179.502 187.431 177.064 190.02 176.825 193.408C176.585 196.796 178.634 199.701 181.4 199.896C184.167 200.091 186.604 197.503 186.844 194.114Z" fill="#F7E9FF"/>
<path d="M196.266 198.263C196.506 194.875 194.457 191.97 191.69 191.775C188.923 191.58 186.486 194.168 186.247 197.556C186.007 200.945 188.055 203.85 190.822 204.045C193.589 204.24 196.026 201.651 196.266 198.263Z" fill="#F7E9FF"/>
<path d="M205.914 202.51C206.154 199.122 204.105 196.217 201.339 196.022C198.572 195.827 196.135 198.415 195.895 201.803C195.655 205.192 197.704 208.097 200.471 208.292C203.237 208.487 205.675 205.898 205.914 202.51Z" fill="#F7E9FF"/>
<path d="M288.199 260.184L307.256 251.231L302.994 249.392L288.199 255.871V260.184Z" fill="#59DBFF"/>
<path d="M331.027 214.013V236.982L335.29 238.821V212.085L331.027 214.013Z" fill="#A0EBFF"/>
<path d="M316.23 247.775L335.287 238.822L331.025 236.982L316.23 243.46V247.775Z" fill="#59DBFF"/>
<path d="M355.832 202.194V225.16L360.094 227V200.266L355.832 202.194Z" fill="#A0EBFF"/>
<path d="M341.039 235.953L360.096 227L355.834 225.16L341.039 231.64V235.953Z" fill="#59DBFF"/>
<path d="M233.999 165.931L205.559 204.647L111.828 160.732L142.406 128.558L233.999 165.931Z" fill="#F7E9FF"/>
<mask id="mask2_2439_8306" style="mask-type:luminance" maskUnits="userSpaceOnUse" x="113" y="129" width="123" height="77">
<path d="M235.436 167.28L206.997 205.997L113.266 162.08L143.844 129.907L235.436 167.28Z" fill="white"/>
</mask>
<g mask="url(#mask2_2439_8306)">
<path d="M156.734 129.955L154.582 128.107L112.239 177.252L114.391 179.1L156.734 129.955Z" fill="#CA70FF"/>
<path d="M168.875 134.869L166.723 133.021L124.38 182.166L126.532 184.014L168.875 134.869Z" fill="#CA70FF"/>
<path d="M181.148 139.786L178.996 137.938L136.653 187.083L138.805 188.931L181.148 139.786Z" fill="#CA70FF"/>
<path d="M191.812 144.7L189.66 142.853L147.317 191.997L149.469 193.845L191.812 144.7Z" fill="#CA70FF"/>
<path d="M203.62 149.066L201.422 147.272L160.33 197.464L162.527 199.258L203.62 149.066Z" fill="#CA70FF"/>
<path d="M217.046 152.863L214.848 151.069L173.755 201.261L175.953 203.054L217.046 152.863Z" fill="#CA70FF"/>
<path d="M228.964 157.774L226.695 156.071L187.672 207.882L189.941 209.586L228.964 157.774Z" fill="#CA70FF"/>
</g>
<path d="M154.762 267.735V203.61L218.273 229.481V295.208L154.762 267.735Z" fill="#EEE9FF"/>
<path d="M154.762 267.735V203.61L218.273 229.481V295.208" stroke="#842EFF" stroke-width="2" stroke-miterlimit="10"/>
<path d="M156.645 268.55V208.028L180.572 217.368V279.073" stroke="#BA43FF" stroke-width="3" stroke-miterlimit="10"/>
<path d="M183.418 280.132V218.892L215.725 232.266V293.653" stroke="#BA43FF" stroke-width="3" stroke-miterlimit="10"/>
<path d="M409.133 161.974L448.753 172.546L522.222 81.4062L490.193 73.8057L409.133 161.974Z" stroke="#BA43FF" stroke-width="5" stroke-miterlimit="10"/>
<path d="M419.996 164.785L498.394 76.2568" stroke="#BA43FF" stroke-width="5" stroke-miterlimit="10"/>
<path d="M435.559 169.232L511.151 78.3057" stroke="#BA43FF" stroke-width="5" stroke-miterlimit="10"/>
<path d="M239.469 304.177V230.557L266.409 240.68V315.895" fill="#EEE9FF"/>
<path d="M385.738 273.225V222.644L435.558 202.271V251.073" stroke="#BA43FF" stroke-width="3" stroke-miterlimit="10"/>
<path d="M385.738 241.422L435.558 220.698" stroke="#BA43FF" stroke-width="6" stroke-miterlimit="10"/>
<path d="M385.738 239.135L435.558 218.411" stroke="#BA43FF" stroke-width="3" stroke-miterlimit="10"/>
<path d="M385.914 255.471L435.734 234.747" stroke="#BA43FF" stroke-width="3" stroke-miterlimit="10"/>
<path d="M385.738 258.135L435.558 237.411" stroke="#BA43FF" stroke-width="6" stroke-miterlimit="10"/>
<path d="M484.992 228.774V168.666L539.005 147.551V204.792" fill="#B3EFFF"/>
<path d="M371.08 269.808L367.061 263.611L357.008 267.973L361.014 274.15L371.08 269.808Z" fill="#BF51FF"/>
<path d="M288.434 297.301V297.733L288.855 297.55L298.908 293.188L305.893 290.157L315.946 285.793L322.933 282.761L332.986 278.399L339.971 275.367L350.025 271.005L357.01 267.973L367.063 263.612L374.05 260.58L384.103 256.216L391.088 253.184L401.141 248.822L408.129 245.79L418.182 241.428L425.167 238.397L435.22 234.035L442.205 231.003L452.258 226.639L459.246 223.607L469.299 219.245L476.284 216.213L486.337 211.852L493.324 208.82L503.377 204.458L510.362 201.426L520.415 197.062L527.401 194.03L537.454 189.668L544.441 186.637L554.494 182.275L561.479 179.243L573.751 173.918V173.486L288.434 297.301Z" fill="#BF51FF"/>
<path d="M565.761 185.843L573.753 182.397V173.918L561.48 179.243L565.761 185.843Z" fill="#BF51FF"/>
<path d="M354.023 277.166L350.026 271.005L339.973 275.367L343.956 281.508L354.023 277.166Z" fill="#BF51FF"/>
<path d="M302.837 299.243L298.909 293.188L288.855 297.55L292.77 303.585L302.837 299.243Z" fill="#BF51FF"/>
<path d="M319.894 291.885L315.944 285.793L305.891 290.157L309.828 296.227L319.894 291.885Z" fill="#BF51FF"/>
<path d="M336.959 284.526L332.987 278.398L322.934 282.76L326.893 288.868L336.959 284.526Z" fill="#BF51FF"/>
<path d="M439.332 240.372L435.221 234.035L425.168 238.397L429.265 244.714L439.332 240.372Z" fill="#BF51FF"/>
<path d="M558.766 188.861L554.495 182.274L544.441 186.636L548.699 193.203L558.766 188.861Z" fill="#BF51FF"/>
<path d="M541.701 196.219L537.452 189.668L527.398 194.03L531.634 200.56L541.701 196.219Z" fill="#BF51FF"/>
<path d="M422.268 247.732L418.182 241.429L408.129 245.791L412.202 252.074L422.268 247.732Z" fill="#BF51FF"/>
<path d="M473.455 225.656L469.299 219.245L459.246 223.607L463.388 229.998L473.455 225.656Z" fill="#BF51FF"/>
<path d="M456.392 233.014L452.256 226.639L442.203 231.003L446.325 237.355L456.392 233.014Z" fill="#BF51FF"/>
<path d="M524.641 203.577L520.416 197.062L510.363 201.426L514.574 207.918L524.641 203.577Z" fill="#BF51FF"/>
<path d="M388.146 262.451L384.104 256.216L374.051 260.58L378.079 266.793L388.146 262.451Z" fill="#BF51FF"/>
<path d="M490.518 218.295L486.338 211.852L476.285 216.213L480.452 222.637L490.518 218.295Z" fill="#BF51FF"/>
<path d="M405.209 255.09L401.143 248.822L391.09 253.184L395.14 259.432L405.209 255.09Z" fill="#BF51FF"/>
<path d="M507.58 210.937L503.377 204.458L493.324 208.82L497.513 215.279L507.58 210.937Z" fill="#BF51FF"/>
<path d="M288.432 305.455V297.732L288.398 297.746V305.902L292.986 303.925L292.768 303.585L288.432 305.455Z" fill="#90E7FF"/>
<path d="M292.769 303.585L288.855 297.551L288.434 297.733V305.456L292.769 303.585Z" fill="#90E7FF"/>
<path d="M302.836 299.243L303.054 299.583L310.05 296.565L309.83 296.227L302.836 299.243Z" fill="#90E7FF"/>
<path d="M309.828 296.226L305.891 290.156L298.906 293.188L302.834 299.243L309.828 296.226Z" fill="#90E7FF"/>
<path d="M319.895 291.885L320.115 292.223L327.109 289.207L326.891 288.869L319.895 291.885Z" fill="#90E7FF"/>
<path d="M326.892 288.869L322.933 282.761L315.945 285.793L319.896 291.885L326.892 288.869Z" fill="#90E7FF"/>
<path d="M336.957 284.527L337.175 284.865L344.172 281.847L343.953 281.509L336.957 284.527Z" fill="#90E7FF"/>
<path d="M343.953 281.509L339.969 275.367L332.984 278.399L336.957 284.527L343.953 281.509Z" fill="#90E7FF"/>
<path d="M354.023 277.167L354.242 277.507L361.238 274.488L361.017 274.15L354.023 277.167Z" fill="#90E7FF"/>
<path d="M361.015 274.151L357.009 267.974L350.023 271.005L354.021 277.167L361.015 274.151Z" fill="#90E7FF"/>
<path d="M371.082 269.808L371.303 270.146L378.297 267.13L378.078 266.792L371.082 269.808Z" fill="#90E7FF"/>
<path d="M378.078 266.793L374.05 260.58L367.062 263.612L371.082 269.809L378.078 266.793Z" fill="#90E7FF"/>
<path d="M388.145 262.45L388.363 262.788L395.359 259.77L395.138 259.432L388.145 262.45Z" fill="#90E7FF"/>
<path d="M395.137 259.432L391.087 253.184L384.102 256.215L388.143 262.45L395.137 259.432Z" fill="#90E7FF"/>
<path d="M405.207 255.09L405.425 255.428L412.422 252.412L412.201 252.074L405.207 255.09Z" fill="#90E7FF"/>
<path d="M412.201 252.074L408.128 245.79L401.141 248.822L405.207 255.09L412.201 252.074Z" fill="#90E7FF"/>
<path d="M422.27 247.732L422.49 248.07L429.484 245.054L429.266 244.714L422.27 247.732Z" fill="#90E7FF"/>
<path d="M429.262 244.714L425.165 238.396L418.18 241.428L422.266 247.732L429.262 244.714Z" fill="#90E7FF"/>
<path d="M439.332 240.372L439.55 240.712L446.547 237.694L446.328 237.355L439.332 240.372Z" fill="#90E7FF"/>
<path d="M446.326 237.356L442.204 231.003L435.219 234.035L439.33 240.372L446.326 237.356Z" fill="#90E7FF"/>
<path d="M456.395 233.014L456.613 233.352L463.609 230.336L463.388 229.998L456.395 233.014Z" fill="#90E7FF"/>
<path d="M463.387 229.998L459.245 223.607L452.258 226.639L456.393 233.014L463.387 229.998Z" fill="#90E7FF"/>
<path d="M473.453 225.656L473.674 225.994L480.668 222.976L480.449 222.638L473.453 225.656Z" fill="#90E7FF"/>
<path d="M480.448 222.638L476.282 216.214L469.297 219.246L473.452 225.656L480.448 222.638Z" fill="#90E7FF"/>
<path d="M490.516 218.295L490.734 218.634L497.73 215.617L497.512 215.279L490.516 218.295Z" fill="#90E7FF"/>
<path d="M497.512 215.279L493.323 208.819L486.336 211.851L490.516 218.295L497.512 215.279Z" fill="#90E7FF"/>
<path d="M507.578 210.937L507.796 211.275L514.793 208.259L514.572 207.919L507.578 210.937Z" fill="#90E7FF"/>
<path d="M514.571 207.919L510.36 201.426L503.375 204.458L507.577 210.937L514.571 207.919Z" fill="#90E7FF"/>
<path d="M524.641 203.577L524.861 203.917L531.855 200.899L531.637 200.561L524.641 203.577Z" fill="#90E7FF"/>
<path d="M531.635 200.561L527.399 194.03L520.414 197.062L524.639 203.577L531.635 200.561Z" fill="#90E7FF"/>
<path d="M541.703 196.219L541.921 196.557L548.918 193.541L548.699 193.203L541.703 196.219Z" fill="#90E7FF"/>
<path d="M548.698 193.203L544.44 186.637L537.453 189.668L541.702 196.219L548.698 193.203Z" fill="#90E7FF"/>
<path d="M558.766 188.861L558.984 189.199L565.98 186.181L565.76 185.843L558.766 188.861Z" fill="#90E7FF"/>
<path d="M565.757 185.843L561.477 179.243L554.492 182.275L558.763 188.861L565.757 185.843Z" fill="#90E7FF"/>
<path d="M46.3648 198.975L40.545 196.608L40.4336 204.763L47.8353 207.77L46.3648 198.975Z" fill="#BF51FF"/>
<path d="M167.455 256.392L165.985 247.597L154.223 242.814L155.693 251.612L167.455 256.392Z" fill="#BF51FF"/>
<path d="M187.393 264.497L185.922 255.7L174.16 250.92L175.631 259.715L187.393 264.497Z" fill="#BF51FF"/>
<path d="M147.522 248.288L146.051 239.493L134.289 234.711L135.76 243.508L147.522 248.288Z" fill="#BF51FF"/>
<path d="M87.7092 223.979L86.2386 215.181L74.4766 210.401L75.9471 219.196L87.7092 223.979Z" fill="#BF51FF"/>
<path d="M67.7717 215.873L66.3011 207.078L54.5391 202.296L56.0096 211.093L67.7717 215.873Z" fill="#BF51FF"/>
<path d="M107.647 232.082L106.176 223.285L94.4141 218.505L95.8846 227.3L107.647 232.082Z" fill="#BF51FF"/>
<path d="M207.33 272.6L205.86 263.803L194.098 259.022L195.568 267.817L207.33 272.6Z" fill="#BF51FF"/>
<path d="M127.584 240.185L126.114 231.39L114.352 226.607L115.822 235.402L127.584 240.185Z" fill="#BF51FF"/>
<path d="M247.208 288.807L245.735 280.012L233.973 275.229L235.443 284.027L247.208 288.807Z" fill="#BF51FF"/>
<path d="M287.082 305.015L285.612 296.218L273.848 291.438L275.318 300.232L287.082 305.015Z" fill="#BF51FF"/>
<path d="M267.145 296.912L265.674 288.115L253.91 283.335L255.381 292.13L267.145 296.912Z" fill="#BF51FF"/>
<path d="M227.27 280.703L225.797 271.908L214.035 267.126L215.506 275.923L227.27 280.703Z" fill="#BF51FF"/>
<path d="M56.0087 211.093L54.5381 202.296L46.3633 198.975L47.8338 207.77L56.0087 211.093Z" fill="#90E7FF"/>
<path d="M75.9462 219.196L74.4756 210.401L66.3008 207.078L67.7713 215.873L75.9462 219.196Z" fill="#90E7FF"/>
<path d="M95.8837 227.3L94.4131 218.505L86.2383 215.182L87.7088 223.979L95.8837 227.3Z" fill="#90E7FF"/>
<path d="M115.821 235.402L114.351 226.607L106.176 223.284L107.646 232.081L115.821 235.402Z" fill="#90E7FF"/>
<path d="M135.759 243.508L134.288 234.711L126.113 231.39L127.584 240.185L135.759 243.508Z" fill="#90E7FF"/>
<path d="M155.696 251.611L154.226 242.814L146.051 239.493L147.521 248.288L155.696 251.611Z" fill="#90E7FF"/>
<path d="M175.634 259.715L174.163 250.92L165.988 247.597L167.459 256.392L175.634 259.715Z" fill="#90E7FF"/>
<path d="M195.567 267.817L194.097 259.022L185.922 255.699L187.392 264.496L195.567 267.817Z" fill="#90E7FF"/>
<path d="M215.505 275.923L214.034 267.126L205.859 263.803L207.33 272.6L215.505 275.923Z" fill="#90E7FF"/>
<path d="M235.442 284.026L233.972 275.229L225.797 271.908L227.27 280.703L235.442 284.026Z" fill="#90E7FF"/>
<path d="M255.38 292.13L253.909 283.335L245.734 280.012L247.207 288.807L255.38 292.13Z" fill="#90E7FF"/>
<path d="M275.315 300.233L273.845 291.438L265.672 288.115L267.142 296.912L275.315 300.233Z" fill="#90E7FF"/>
<path d="M288 305.389L288.112 297.237L285.609 296.218L287.08 305.015L288 305.389Z" fill="#90E7FF"/>
<path d="M164.676 223.376C140.762 211.272 118.329 214.283 113.089 228.75C108.042 242.683 120.339 263.661 141.78 276.929C164.939 291.258 191.074 292.021 198.71 276.994C206.687 261.297 190.653 236.527 164.674 223.376H164.676ZM143.177 273.666C124.312 262.129 113.45 243.702 117.966 231.497C122.634 218.881 142.33 216.454 163.078 227.115C185.368 238.568 199.049 259.855 192.324 273.395C185.847 286.436 163.355 286.009 143.177 273.668V273.666Z" fill="#BA45FF"/>
<path d="M183.326 236.344L123.945 257.755L125.634 263.234L185.285 242.561L183.326 236.344Z" fill="#BA45FF"/>
<path d="M592.479 226.261C601.161 222.958 607.135 217.491 605.822 214.049C604.508 210.608 596.404 210.495 587.722 213.799C579.039 217.102 573.065 222.569 574.379 226.011C575.692 229.452 583.796 229.564 592.479 226.261Z" fill="#BA45FF"/>
<path d="M592.08 225.22C600.763 221.917 606.737 216.45 605.423 213.008C604.11 209.567 596.006 209.454 587.323 212.758C578.64 216.061 572.666 221.528 573.98 224.97C575.294 228.411 583.397 228.523 592.08 225.22Z" fill="#F6E5FF"/>
<path d="M592.042 161.803H588.156V217.462H592.042V161.803Z" fill="#F6E5FF"/>
<mask id="mask3_2439_8306" style="mask-type:luminance" maskUnits="userSpaceOnUse" x="588" y="161" width="5" height="57">
<path d="M592.025 161.805H588.18V217.46H592.025V161.805Z" fill="white"/>
</mask>
<g mask="url(#mask3_2439_8306)">
<path d="M580.888 202.296C589.631 196.186 598.372 190.076 607.115 183.966C608.514 182.987 607.18 180.674 605.765 181.661C597.022 187.771 588.281 193.882 579.538 199.992C578.139 200.971 579.474 203.284 580.888 202.296Z" fill="#BA45FF"/>
<path d="M583.3 213.869C593.694 206.418 604.492 199.544 615.641 193.278C617.776 192.08 618.674 188.983 617.319 186.888C615.926 184.733 613.201 183.93 610.918 185.213C599.766 191.477 588.969 198.352 578.577 205.804C576.594 207.225 575.44 209.936 576.899 212.194C578.167 214.158 581.175 215.395 583.3 213.869Z" fill="#BA45FF"/>
<path d="M587.154 221.493C594.377 216.403 601.598 211.314 608.822 206.223C609.902 205.462 610.41 204.085 609.702 202.875C609.078 201.81 607.436 201.231 606.348 201.996C599.125 207.086 591.904 212.175 584.68 217.266C583.6 218.027 583.092 219.404 583.8 220.614C584.424 221.679 586.066 222.258 587.154 221.493Z" fill="#BA45FF"/>
</g>
<path d="M603.565 158.015C604.416 144.288 598.681 132.762 590.755 132.273C582.83 131.783 575.715 142.515 574.864 156.243C574.014 169.97 579.749 181.495 587.675 181.985C595.6 182.474 602.715 171.743 603.565 158.015Z" fill="#BA45FF"/>
<path d="M601.763 157.904C602.476 146.396 597.668 136.735 591.023 136.325C584.379 135.915 578.414 144.91 577.701 156.417C576.988 167.925 581.797 177.586 588.441 177.996C595.086 178.406 601.05 169.411 601.763 157.904Z" fill="#FBF3FF"/>
<path d="M602.753 146.279L577.696 170.944L576.648 168.021L601.706 143.354L602.753 146.279Z" fill="#BA45FF"/>
<path d="M303.737 347.564C312.419 344.261 318.393 338.793 317.079 335.352C315.766 331.91 307.662 331.798 298.979 335.101C290.297 338.404 284.323 343.872 285.636 347.313C286.95 350.755 295.054 350.867 303.737 347.564Z" fill="#BA45FF"/>
<path d="M303.338 346.523C312.021 343.22 317.995 337.752 316.681 334.311C315.367 330.869 307.264 330.757 298.581 334.06C289.898 337.363 283.924 342.831 285.238 346.272C286.552 349.714 294.655 349.826 303.338 346.523Z" fill="#F6E5FF"/>
<path d="M303.284 283.088H299.398V338.747H303.284V283.088Z" fill="#F6E5FF"/>
<mask id="mask4_2439_8306" style="mask-type:luminance" maskUnits="userSpaceOnUse" x="299" y="283" width="5" height="56">
<path d="M303.268 283.093H299.422V338.748H303.268V283.093Z" fill="white"/>
</mask>
<g mask="url(#mask4_2439_8306)">
<path d="M292.134 323.582C300.877 317.472 309.618 311.362 318.361 305.252C319.761 304.273 318.426 301.96 317.011 302.947C308.268 309.058 299.527 315.168 290.784 321.278C289.385 322.257 290.72 324.57 292.134 323.582Z" fill="#BA45FF"/>
<path d="M294.547 335.155C304.941 327.704 315.738 320.831 326.887 314.565C329.022 313.366 329.92 310.269 328.565 308.174C327.172 306.019 324.448 305.216 322.164 306.499C311.012 312.763 300.215 319.638 289.823 327.09C287.84 328.511 286.686 331.223 288.145 333.48C289.413 335.444 292.421 336.681 294.547 335.155Z" fill="#BA45FF"/>
<path d="M298.4 342.779C305.623 337.69 312.844 332.6 320.068 327.509C321.148 326.748 321.656 325.371 320.948 324.161C320.324 323.096 318.682 322.517 317.595 323.283C310.371 328.372 303.15 333.461 295.926 338.553C294.846 339.313 294.338 340.69 295.046 341.9C295.67 342.966 297.312 343.544 298.4 342.779Z" fill="#BA45FF"/>
</g>
<path d="M314.792 279.306C315.643 265.579 309.907 254.053 301.982 253.564C294.056 253.074 286.942 263.806 286.091 277.534C285.24 291.261 290.976 302.786 298.901 303.276C306.827 303.765 313.941 293.034 314.792 279.306Z" fill="#BA45FF"/>
<path d="M312.99 279.195C313.703 267.688 308.894 258.027 302.25 257.617C295.605 257.207 289.641 266.202 288.928 277.709C288.215 289.217 293.023 298.878 299.668 299.288C306.312 299.698 312.277 290.703 312.99 279.195Z" fill="#FBF3FF"/>
<path d="M313.995 267.565L288.938 292.232L287.891 289.307L312.948 264.64L313.995 267.565Z" fill="#BA45FF"/>
<path d="M36.4183 260.926C37.927 257.565 32.2763 251.765 23.7971 247.972C15.3179 244.178 7.22104 243.827 5.7123 247.188C4.20355 250.549 9.85424 256.349 18.3335 260.142C26.8127 263.936 34.9095 264.287 36.4183 260.926Z" fill="#BA45FF"/>
<path d="M36.4183 259.251C37.927 255.89 32.2763 250.091 23.7971 246.297C15.3179 242.503 7.22104 242.152 5.7123 245.513C4.20355 248.874 9.85424 254.674 18.3335 258.468C26.8127 262.261 34.9095 262.612 36.4183 259.251Z" fill="#F6E5FF"/>
<path d="M23.003 195.31H19.1172V250.969H23.003V195.31Z" fill="#F6E5FF"/>
<mask id="mask5_2439_8306" style="mask-type:luminance" maskUnits="userSpaceOnUse" x="19" y="195" width="4" height="56">
<path d="M22.9824 195.312H19.1367V250.966H22.9824V195.312Z" fill="white"/>
</mask>
<g mask="url(#mask5_2439_8306)">
<path d="M11.8493 235.803C20.5923 229.693 29.3331 223.583 38.0761 217.472C39.4754 216.494 38.1407 214.18 36.7259 215.168C27.9829 221.278 19.2421 227.388 10.4991 233.499C9.09983 234.477 10.4345 236.791 11.8493 235.803Z" fill="#BA45FF"/>
<path d="M14.2614 247.376C24.6554 239.924 35.4527 233.051 46.6021 226.785C48.7366 225.586 49.6345 222.49 48.2798 220.395C46.8873 218.239 44.1623 217.436 41.8785 218.72C30.727 224.984 19.9296 231.859 9.53784 239.311C7.55484 240.732 6.40069 243.443 7.86009 245.701C9.12787 247.665 12.1358 248.902 14.2614 247.376Z" fill="#BA45FF"/>
<path d="M18.1145 254.999C25.3379 249.91 32.5591 244.821 39.7826 239.729C40.8632 238.969 41.3712 237.592 40.6627 236.382C40.0388 235.316 38.3967 234.738 37.3094 235.503C30.086 240.593 22.8647 245.682 15.6413 250.773C14.5606 251.534 14.0526 252.911 14.7612 254.121C15.385 255.186 17.0271 255.765 18.1145 254.999Z" fill="#BA45FF"/>
</g>
<path d="M36.0032 204.052C32.9329 212.844 25.3863 215.304 18.5416 212.355C12.0312 209.55 5.11295 201.427 1.9201 191.273C-2.99061 175.66 1.42101 157.741 16.2757 161.32C33.0175 165.353 41.0208 189.678 36.0009 204.049L36.0032 204.052Z" fill="#BA45FF"/>
<path d="M33.1101 201.226C30.5545 208.545 24.2735 210.593 18.5763 208.14C13.1576 205.806 7.39798 199.044 4.7421 190.592C0.655781 177.595 4.32767 162.681 16.6913 165.66C30.628 169.016 37.2878 189.264 33.1101 201.226Z" fill="#FBF3FF"/>
<path d="M32.6702 176.406L30.2188 173.959L5.30857 198.827L7.76004 201.274L32.6702 176.406Z" fill="#BA45FF"/>
</g>
<defs>
<clipPath id="clip0_2439_8306">
<rect width="606" height="350" fill="white"/>
</clipPath>
</defs>
</svg>
