<svg width="100" height="100" viewBox="0 0 100 100" fill="none" xmlns="http://www.w3.org/2000/svg">
<path d="M19 86C19 68.9184 32.9184 55 50 55C67.0816 55 81 68.9184 81 86" stroke="black" stroke-width="3" stroke-miterlimit="10" stroke-linecap="round" stroke-linejoin="round"/>
<path d="M67 30.5C67 39.702 59.1539 47 50 47C40.5192 47 33 39.3846 33 30.5C33 21.2981 40.8461 14 50 14C51.9616 14 53.9231 14.3173 55.8846 14.9519" stroke="black" stroke-width="3" stroke-miterlimit="10" stroke-linecap="round" stroke-linejoin="round"/>
<path d="M61 23L52.0363 35.0715C51.7272 35.6905 51.109 36 50.4908 36C49.8726 36 49.2545 35.6905 48.6363 35.381L44 30.7381" stroke="#3DD3F2" stroke-width="3" stroke-miterlimit="10" stroke-linecap="round" stroke-linejoin="round"/>
</svg>
