<svg width="100" height="100" viewBox="0 0 100 100" fill="none" xmlns="http://www.w3.org/2000/svg">
<path d="M56.2665 57.2407H48.5933C47.0041 57.2407 45.7158 58.529 45.7158 60.1182V76.4238C45.7158 78.013 47.0041 79.3012 48.5933 79.3012H56.2665C57.8557 79.3012 59.144 78.013 59.144 76.4238V60.1182C59.144 58.529 57.8557 57.2407 56.2665 57.2407Z" stroke="#00CCF5" stroke-width="3" stroke-linecap="round" stroke-linejoin="round"/>
<path d="M82.1637 57.2407H68.7355C66.6166 57.2407 64.8989 58.9584 64.8989 61.0773V68.7506C64.8989 70.8695 66.6166 72.5872 68.7355 72.5872H82.1637C84.2826 72.5872 86.0003 70.8695 86.0003 68.7506V61.0773C86.0003 58.9584 84.2826 57.2407 82.1637 57.2407Z" stroke="#00CCF5" stroke-width="3" stroke-linecap="round" stroke-linejoin="round"/>
<path d="M75.4482 72.5874V79.3015" stroke="#00CCF5" stroke-width="3" stroke-linecap="round" stroke-linejoin="round"/>
<path d="M70.6519 79.3022H80.2434" stroke="#00CCF5" stroke-width="3" stroke-linecap="round" stroke-linejoin="round"/>
<path d="M18.8584 61.0773V62.9956C18.8584 63.7588 19.1616 64.4907 19.7012 65.0303C20.2408 65.5699 20.9727 65.8731 21.7359 65.8731H22.1138C22.5881 65.8737 23.0552 65.757 23.4736 65.5335C23.8919 65.3099 24.2485 64.9864 24.5116 64.5917L24.7217 64.2771C24.9842 63.8833 25.3397 63.5604 25.7568 63.3369C26.1739 63.1133 26.6397 62.9961 27.1129 62.9956H31.7063C32.1806 62.995 32.6477 63.1117 33.0661 63.3353C33.4844 63.5589 33.841 63.8824 34.1041 64.2771L34.3142 64.5917C34.5766 64.9853 34.9319 65.3081 35.3489 65.5316C35.7658 65.7552 36.2314 65.8724 36.7044 65.8731H37.0823C37.8455 65.8731 38.5773 65.5699 39.117 65.0303C39.6566 64.4907 39.9598 63.7588 39.9598 62.9956V61.0773C39.9598 60.0598 39.5555 59.0839 38.836 58.3644C38.1165 57.6449 37.1407 57.2407 36.1231 57.2407H22.695C21.6775 57.2407 20.7016 57.6449 19.9821 58.3644C19.2626 59.0839 18.8584 60.0598 18.8584 61.0773ZM32.3911 70.3466L32.181 70.032C31.9183 69.6378 31.5623 69.3146 31.1447 69.0911C30.727 68.8676 30.2607 68.7506 29.787 68.7506H29.0302C28.5559 68.75 28.0887 68.8666 27.6704 69.0902C27.252 69.3138 26.8954 69.6373 26.6323 70.032L26.4223 70.3466C26.1599 70.7402 25.8045 71.063 25.3876 71.2866C24.9707 71.5101 24.5051 71.6273 24.0321 71.628H21.7359C20.9727 71.628 20.2408 71.9312 19.7012 72.4708C19.1616 73.0104 18.8584 73.7423 18.8584 74.5055V76.4238C18.8584 77.1869 19.1616 77.9188 19.7012 78.4584C20.2408 78.9981 20.9727 79.3012 21.7359 79.3012H37.0823C37.8455 79.3012 38.5773 78.9981 39.117 78.4584C39.6566 77.9188 39.9598 77.1869 39.9598 76.4238V74.5055C39.9598 73.7423 39.6566 73.0104 39.117 72.4708C38.5773 71.9312 37.8455 71.628 37.0823 71.628H34.7861C34.3122 71.6281 33.8457 71.5112 33.4279 71.2877C33.0101 71.0641 32.6539 70.7409 32.3911 70.3466Z" stroke="#00CCF5" stroke-width="3" stroke-linecap="round" stroke-linejoin="round"/>
<path d="M52.4287 45.7305C55.6071 45.7305 58.1837 43.154 58.1837 39.9756C58.1837 36.7973 55.6071 34.2207 52.4287 34.2207C49.2504 34.2207 46.6738 36.7973 46.6738 39.9756C46.6738 43.154 49.2504 45.7305 52.4287 45.7305Z" stroke="black" stroke-width="3" stroke-miterlimit="10" stroke-linecap="round"/>
<path d="M52.4282 51.4869V45.7319" stroke="black" stroke-width="3" stroke-miterlimit="10" stroke-linecap="round"/>
<path d="M30.3687 51.4864V43.8132C30.3687 42.7956 30.7729 41.8198 31.4924 41.1003C32.2119 40.3808 33.1877 39.9766 34.2053 39.9766H40.9424M74.4897 51.4864V43.8132C74.4897 42.7956 74.0855 41.8198 73.366 41.1003C72.6465 40.3808 71.6706 39.9766 70.6531 39.9766H58.1611" stroke="black" stroke-width="3" stroke-miterlimit="10" stroke-linecap="round"/>
<path d="M46.6738 25.5889L52.4287 19.834L58.1837 25.5889" stroke="black" stroke-width="3" stroke-linecap="round" stroke-linejoin="round"/>
<path d="M52.4282 34.2213V19.834" stroke="black" stroke-width="3" stroke-miterlimit="10" stroke-linecap="round"/>
</svg>
