<svg width="100" height="100" viewBox="0 0 100 100" fill="none" xmlns="http://www.w3.org/2000/svg">
<path d="M58.75 61.25L66.25 70L58.75 78.75" stroke="#00CCF5" stroke-width="2.6" stroke-linecap="round" stroke-linejoin="round"/>
<path d="M37.5 61.25L28.75 70L37.5 78.75" stroke="#00CCF5" stroke-width="2.6" stroke-linecap="round" stroke-linejoin="round"/>
<path d="M52.5 61.25L43.75 78.75" stroke="#00CCF5" stroke-width="2.6" stroke-linecap="round" stroke-linejoin="round"/>
<path d="M27.5 43.0784C27.5 36.9577 29.9315 31.0876 34.2595 26.7596C38.5875 22.4316 44.4576 20.0001 50.5783 20.0001C53.6099 19.9901 56.6131 20.5835 59.4131 21.7457C62.213 22.908 64.7537 24.6158 66.887 26.7698" stroke="black" stroke-width="3.6" stroke-linecap="round" stroke-linejoin="round"/>
<path d="M53.1124 52.6766C56.2988 52.6766 58.8819 50.0935 58.8819 46.907C58.8819 43.7206 56.2988 41.1375 53.1124 41.1375C49.9259 41.1375 47.3428 43.7206 47.3428 46.907C47.3428 50.0935 49.9259 52.6766 53.1124 52.6766Z" stroke="black" stroke-width="3.6" stroke-linecap="round" stroke-linejoin="round"/>
<path d="M48.4609 41.8228L31.383 24.7449" stroke="black" stroke-width="3.6" stroke-linecap="round" stroke-linejoin="round"/>
</svg>
