<svg width="143" height="67" viewBox="0 0 143 67" fill="none" xmlns="http://www.w3.org/2000/svg">
<g clip-path="url(#clip0_1024_58)">
<path d="M85.2992 9H56.6948C51.3375 9 47 13.338 47 18.696V47.31C47 52.662 51.3375 57 56.6948 57H85.3052C90.6565 57 95 52.662 95 47.304V18.696C94.994 13.338 90.6565 9 85.2992 9Z" fill="url(#paint0_linear_1024_58)"/>
<path d="M70.7933 20.028L71.7652 18.3479C72.3651 17.2979 73.7029 16.9439 74.7528 17.5439C75.8027 18.1439 76.1566 19.482 75.5567 20.532L66.1919 36.744H72.965C75.1608 36.744 76.3906 39.324 75.4367 41.112H55.5792C54.3674 41.112 53.3955 40.14 53.3955 38.928C53.3955 37.716 54.3674 36.744 55.5792 36.744H61.1465L68.2736 24.39L66.0479 20.526C65.448 19.476 65.8019 18.1499 66.8518 17.5379C67.9017 16.9379 69.2275 17.2919 69.8394 18.3419L70.7933 20.028ZM62.3704 43.362L60.2706 47.004C59.6707 48.054 58.3329 48.408 57.283 47.808C56.2331 47.208 55.8792 45.87 56.4791 44.82L58.0389 42.12C59.8027 41.574 61.2365 41.994 62.3704 43.362ZM80.4521 36.756H86.1334C87.3452 36.756 88.3171 37.728 88.3171 38.94C88.3171 40.152 87.3452 41.124 86.1334 41.124H82.9778L85.1075 44.82C85.7074 45.87 85.3535 47.196 84.3036 47.808C83.2537 48.408 81.9279 48.054 81.316 47.004C77.7284 40.782 75.0348 36.126 73.247 33.024C71.4172 29.868 72.7251 26.7 74.0149 25.626C75.4487 28.086 77.5905 31.8 80.4521 36.756Z" fill="white"/>
</g>
<defs>
<linearGradient id="paint0_linear_1024_58" x1="70.997" y1="9" x2="70.997" y2="57" gradientUnits="userSpaceOnUse">
<stop stop-color="#0ED4FC"/>
<stop offset="1" stop-color="#0C57EF"/>
</linearGradient>
<clipPath id="clip0_1024_58">
<rect width="48" height="48" fill="white" transform="translate(47 9)"/>
</clipPath>
</defs>
</svg>
