<svg width="64" height="64" viewBox="0 0 64 64" fill="none" xmlns="http://www.w3.org/2000/svg">
<path d="M16.6148 33.3096C20.3738 33.3096 23.4212 30.2623 23.4212 26.5032C23.4212 22.7441 20.3738 19.6968 16.6148 19.6968C12.8557 19.6968 9.80835 22.7441 9.80835 26.5032C9.80835 30.2623 12.8557 33.3096 16.6148 33.3096Z" stroke="black" stroke-width="3" stroke-linecap="round" stroke-linejoin="round"/>
<path d="M25.5611 62V52.0327L41.7413 31.069L41.8039 30.99C42.4145 30.161 42.6753 29.1254 42.5301 28.106C42.3849 27.0867 41.8453 26.1651 41.0274 25.5396C40.2096 24.914 39.1788 24.6346 38.157 24.7613C37.1352 24.8881 36.204 25.411 35.5638 26.2174L26.3642 37.9244C25.7553 38.7007 24.9779 39.3284 24.0907 39.76C23.2035 40.1916 22.2297 40.4157 21.2431 40.4155H9.8546C8.82302 40.4152 7.80148 40.6181 6.84835 41.0127C5.89523 41.4073 5.0292 41.9859 4.29976 42.7153C3.57032 43.4447 2.99177 44.3108 2.59717 45.2639C2.20256 46.217 1.99964 47.2386 2 48.2702V57.4398C2.02696 58.4634 2.45255 59.4361 3.18612 60.1506C3.9197 60.8652 4.90326 61.265 5.9273 61.265C6.95134 61.265 7.93491 60.8652 8.66848 60.1506C9.40205 59.4361 9.82765 58.4634 9.8546 57.4398V49.5797" stroke="black" stroke-width="3" stroke-linecap="round" stroke-linejoin="round"/>
<path d="M9.80835 57.3145V62" stroke="black" stroke-width="3" stroke-linecap="round" stroke-linejoin="round"/>
<path d="M25.0275 12.4955V2H59.0595V33.3095H48.7138" stroke="#00CCF5" stroke-width="3" stroke-linecap="round" stroke-linejoin="round"/>
<path d="M32.9855 17.3395L38.398 13.5714L47.5186 17.6553L51.303 12.1176" stroke="#00CCF5" stroke-width="3" stroke-linecap="round" stroke-linejoin="round"/>
<path d="M22.3049 2H61.7821" stroke="#00CCF5" stroke-width="3" stroke-linecap="round" stroke-linejoin="round"/>
</svg>
