<svg width="100" height="100" viewBox="0 0 100 100" fill="none" xmlns="http://www.w3.org/2000/svg">
<path d="M71.8594 69.2007C77.1061 69.2007 81.3594 64.9474 81.3594 59.7007C81.3594 54.454 77.1061 50.2007 71.8594 50.2007C66.6127 50.2007 62.3594 54.454 62.3594 59.7007C62.3594 64.9474 66.6127 69.2007 71.8594 69.2007Z" stroke="black" stroke-width="3" stroke-linecap="round" stroke-linejoin="round"/>
<path d="M87.3594 88.2007C86.804 84.3133 84.8809 80.7584 81.9423 78.1872C79.0038 75.616 75.2467 74.2007 71.3594 74.2007C67.4721 74.2007 63.715 75.616 60.7764 78.1872C57.8379 80.7584 55.9148 84.3133 55.3594 88.2007H87.3594Z" stroke="black" stroke-width="3" stroke-linecap="round" stroke-linejoin="round"/>
<path d="M47.0822 22.2007H14.6366C13.3789 22.2007 12.3594 23.2041 12.3594 24.4418V43.9596C12.3594 45.1973 13.3789 46.2007 14.6366 46.2007H47.0822C48.3398 46.2007 49.3594 45.1973 49.3594 43.9596V24.4418C49.3594 23.2041 48.3398 22.2007 47.0822 22.2007Z" stroke="#00CCF5" stroke-width="3" stroke-linecap="round" stroke-linejoin="round"/>
<path d="M21.3594 22.2007L24.7663 15.4652C25.126 14.4686 25.8013 13.6134 26.6919 13.0264C27.5825 12.4395 28.6409 12.1523 29.7098 12.2074H33.0055C34.0748 12.1526 35.1335 12.44 36.0246 13.0268C36.9156 13.6136 37.5917 14.4687 37.9525 15.4652L41.3594 22.2007" stroke="#00CCF5" stroke-width="3" stroke-linecap="round" stroke-linejoin="round"/>
<path d="M12.3594 32.2007H49.3594" stroke="#00CCF5" stroke-width="3" stroke-linecap="round" stroke-linejoin="round"/>
<path d="M30.3594 32.2007V37.2007" stroke="#00CCF5" stroke-width="3" stroke-linecap="round" stroke-linejoin="round"/>
<path d="M67.3594 25.2007H68.1927C71.9499 25.2007 75.5533 26.6757 78.2101 29.3012C80.8668 31.9267 82.3594 35.4877 82.3594 39.2007" stroke="black" stroke-width="3" stroke-linecap="round" stroke-linejoin="round"/>
<path d="M68.3594 18.2007L61.3594 25.2007L68.3594 32.2007" stroke="black" stroke-width="3" stroke-linecap="round" stroke-linejoin="round"/>
<path d="M32.3594 75.2007C28.3811 75.2007 24.5658 73.6203 21.7528 70.8073C18.9397 67.9942 17.3594 64.1789 17.3594 60.2007" stroke="black" stroke-width="3" stroke-linecap="round" stroke-linejoin="round"/>
<path d="M31.3594 82.2007L38.3594 75.7007L31.3594 69.2007" stroke="black" stroke-width="3" stroke-linecap="round" stroke-linejoin="round"/>
</svg>
