<svg width="100" height="100" viewBox="0 0 100 100" fill="none" xmlns="http://www.w3.org/2000/svg">
<path d="M58.6852 26.2051C58.9804 26.5815 59.1406 27.0428 59.1406 27.5173C59.1406 27.9919 58.9804 28.4532 58.6852 28.8296C56.4081 31.7506 50.1559 38.5173 41.1406 38.5173C32.1253 38.5173 25.8701 31.7477 23.5961 28.8296C23.3007 28.4532 23.1406 27.9919 23.1406 27.5173C23.1406 27.0428 23.3007 26.5815 23.5961 26.2051C25.8731 23.2694 32.1253 16.5173 41.1406 16.5173C50.1559 16.5173 56.4111 23.287 58.6852 26.2051Z" stroke="#00CCF5" stroke-width="3" stroke-linecap="round" stroke-linejoin="round"/>
<path d="M40.6406 23.5173C41.5307 23.5173 42.4007 23.7812 43.1408 24.2757C43.8806 24.7702 44.4575 25.473 44.798 26.2952C45.1385 27.1175 45.2279 28.0223 45.0542 28.8953C44.8805 29.7682 44.4518 30.57 43.8227 31.1993C43.1933 31.8287 42.3914 32.2572 41.5184 32.4309C40.6457 32.6045 39.7409 32.5154 38.9186 32.1748C38.0963 31.8342 37.3934 31.2574 36.899 30.5174C36.4046 29.7774 36.1406 28.9073 36.1406 28.0173C36.1406 26.8238 36.6146 25.6793 37.4585 24.8354C38.3024 23.9915 39.4472 23.5173 40.6406 23.5173Z" stroke="#00CCF5" stroke-width="3" stroke-linecap="round" stroke-linejoin="round"/>
<path d="M64.1406 69.5173L52.1406 70.5173" stroke="black" stroke-width="3" stroke-linecap="round" stroke-linejoin="round"/>
<path d="M47.931 53.024L38.332 56.3493C37.5888 56.6062 36.7815 56.5674 36.0635 56.2407C35.3458 55.914 34.7677 55.3219 34.4396 54.5775C34.0882 53.7823 34.0449 52.8754 34.3186 52.0477C34.5924 51.2196 35.1619 50.5354 35.9073 50.1386L45.2069 45.2414C46 44.8237 46.8663 44.581 47.7522 44.5284C48.6384 44.4755 49.5255 44.6133 50.3586 44.9338L64.1406 50.2094" stroke="black" stroke-width="3" stroke-linecap="round" stroke-linejoin="round"/>
<path d="M18.1406 69.3825H24.8722L34.5361 80.2317C34.853 80.6006 35.2393 80.9031 35.6732 81.122C36.1068 81.3409 36.5795 81.4719 37.0639 81.5075C37.5483 81.5429 38.035 81.4824 38.496 81.3292C38.957 81.1761 39.3833 80.9332 39.7504 80.6146L51.9587 70.8935C52.6459 70.2049 53.062 69.291 53.1306 68.3198C53.1991 67.3485 52.9158 66.3852 52.3322 65.6063L43.6924 54.5173" stroke="black" stroke-width="3" stroke-linecap="round" stroke-linejoin="round"/>
<path d="M37.1406 49.3406L36.1447 48.5773C35.3455 48.0282 34.409 47.6784 33.424 47.5611C32.439 47.4439 31.4382 47.563 30.5166 47.9073L18.1406 52.5173" stroke="black" stroke-width="3" stroke-linecap="round" stroke-linejoin="round"/>
<path d="M9.14062 48.5197H15.1406C15.9031 48.4901 16.6471 48.7425 17.2095 49.2218C17.7719 49.7008 18.1067 50.3677 18.1406 51.0757V68.9589C18.1067 69.6672 17.7719 70.3339 17.2095 70.8132C16.6471 71.2922 15.9031 71.5448 15.1406 71.515H9.14062" stroke="black" stroke-width="3" stroke-linecap="round" stroke-linejoin="round"/>
<path d="M72.1406 71.515H66.8073C66.1295 71.5448 65.4683 71.2922 64.9683 70.8132C64.4684 70.3339 64.1706 69.6672 64.1406 68.9589V51.0757C64.1706 50.3677 64.4684 49.7008 64.9683 49.2218C65.4683 48.7425 66.1295 48.4901 66.8073 48.5197H72.1406" stroke="black" stroke-width="3" stroke-linecap="round" stroke-linejoin="round"/>
</svg>
