<svg width="100" height="100" viewBox="0 0 100 100" fill="none" xmlns="http://www.w3.org/2000/svg">
<path d="M13 57V87" stroke="#00CCF5" stroke-width="3" stroke-linecap="round" stroke-linejoin="round"/>
<path d="M13 82H62C62 79.3478 60.9675 76.8043 59.1296 74.9289C57.2918 73.0536 54.7991 72 52.2 72H39.95C39.95 69.3478 38.9175 66.8043 37.0796 64.9289C35.2418 63.0536 32.7491 62 30.15 62H13" stroke="#00CCF5" stroke-width="3" stroke-linecap="round" stroke-linejoin="round"/>
<path d="M30 72H40" stroke="#00CCF5" stroke-width="3" stroke-linecap="round" stroke-linejoin="round"/>
<path d="M68.7931 72H83.6897C84.5676 72 85.4096 71.6547 86.0304 71.04C86.6512 70.4253 87 69.5915 87 68.7222V16.2778C87 15.4085 86.6512 14.5747 86.0304 13.96C85.4096 13.3453 84.5676 13 83.6897 13H42.3103C41.4324 13 40.5904 13.3453 39.9696 13.96C39.3488 14.5747 39 15.4085 39 16.2778V52.3333" stroke="black" stroke-width="3" stroke-linecap="round" stroke-linejoin="round"/>
<path d="M64 28H76" stroke="black" stroke-width="3" stroke-linecap="round" stroke-linejoin="round"/>
<path d="M64 42H76" stroke="black" stroke-width="3" stroke-linecap="round" stroke-linejoin="round"/>
<path d="M64 55H76" stroke="black" stroke-width="3" stroke-linecap="round" stroke-linejoin="round"/>
<path d="M52 28H54" stroke="black" stroke-width="3" stroke-linecap="round" stroke-linejoin="round"/>
<path d="M52 42H54" stroke="black" stroke-width="3" stroke-linecap="round" stroke-linejoin="round"/>
<path d="M52 55H54" stroke="black" stroke-width="3" stroke-linecap="round" stroke-linejoin="round"/>
</svg>
