<svg width="100" height="100" viewBox="0 0 100 100" fill="none" xmlns="http://www.w3.org/2000/svg">
<path d="M50 33C54.9707 33 59 28.9705 59 24C59 19.0295 54.9707 15 50 15C45.0296 15 41 19.0295 41 24C41 28.9705 45.0296 33 50 33Z" stroke="black" stroke-width="3" stroke-miterlimit="10" stroke-linecap="round" stroke-linejoin="round"/>
<path d="M34 62V52.8057C34 44.1845 41.2727 37 50 37C58.7273 37 66 44.1845 66 52.8057V61.1247" stroke="black" stroke-width="3" stroke-miterlimit="10" stroke-linecap="round" stroke-linejoin="round"/>
<path d="M43 57V65" stroke="black" stroke-width="3" stroke-miterlimit="10" stroke-linecap="round" stroke-linejoin="round"/>
<path d="M57 57V64" stroke="black" stroke-width="3" stroke-miterlimit="10" stroke-linecap="round" stroke-linejoin="round"/>
<path d="M53.5433 68.4373L34.1931 62.3116C30.9681 61.2305 27.3848 63.0322 26.3098 66.6356C25.2348 69.8785 27.0265 73.4819 30.6098 74.5627L49.9599 80.6884C53.1848 81.7695 56.7683 79.9678 57.843 76.3644C58.56 73.1215 56.7683 69.5181 53.5433 68.4373Z" stroke="#00CCF5" stroke-width="3" stroke-miterlimit="10" stroke-linecap="round" stroke-linejoin="round"/>
<path d="M65.4574 75L69.547 73.6507C73.0083 72.562 74.739 68.9335 73.7008 65.6679C72.6623 62.0396 69.2008 60.2253 66.0855 61.3136L59 63.652" stroke="#00CCF5" stroke-width="3" stroke-miterlimit="10" stroke-linecap="round" stroke-linejoin="round"/>
</svg>
