<svg width="100" height="100" viewBox="0 0 100 100" fill="none" xmlns="http://www.w3.org/2000/svg">
<path d="M50 34.8824C34.3478 34.8824 26 40 26 40V16.1176C26 16.1176 32.9565 11 50 11" stroke="#00CCF5" stroke-width="3" stroke-miterlimit="10" stroke-linecap="round" stroke-linejoin="round"/>
<path d="M50 34.8824C65.6522 34.8824 74 40 74 40V16.1176C74 16.1176 67.0435 11 50 11" stroke="#00CCF5" stroke-width="3" stroke-miterlimit="10" stroke-linecap="round" stroke-linejoin="round"/>
<path d="M11 20.7333C11 20.7333 13.6667 19 15 19V43.2667C15 43.2667 12.3333 43.2667 11 45" stroke="black" stroke-width="3" stroke-miterlimit="10" stroke-linecap="round" stroke-linejoin="round"/>
<path d="M89 20.7333C89 20.7333 86.3333 19 85 19V43.2667C85 43.2667 87.6667 43.2667 89 45" stroke="black" stroke-width="3" stroke-miterlimit="10" stroke-linecap="round" stroke-linejoin="round"/>
<path d="M34.5171 89C20.4105 83.0732 13.1851 71.9168 12.841 71.2195C11.1207 68.4304 12.1529 64.5954 14.9054 62.8522C17.6579 61.109 21.4427 62.1549 23.163 64.944C23.5071 65.2927 32.7968 79.5868 50 80.2841C67.2032 79.5868 76.4929 65.2927 76.837 64.944C78.5573 62.1549 82.342 61.109 85.0946 62.8522C87.8471 64.5954 88.8793 68.4304 87.159 71.2195C86.8149 71.9168 79.5895 83.0732 65.4829 89" stroke="black" stroke-width="3" stroke-miterlimit="10" stroke-linecap="round" stroke-linejoin="round"/>
<path d="M50 69C56.6274 69 62 63.6274 62 57C62 50.3726 56.6274 45 50 45C43.3725 45 38 50.3726 38 57C38 63.6274 43.3725 69 50 69Z" stroke="black" stroke-width="3" stroke-miterlimit="10" stroke-linecap="round" stroke-linejoin="round"/>
</svg>
