<svg width="80" height="80" viewBox="0 0 80 80" fill="none" xmlns="http://www.w3.org/2000/svg">
<path d="M45.2031 28.4463L76.7184 58.1376C77.5456 58.967 78.01 60.0907 78.01 61.2621C78.01 62.4335 77.5456 63.5571 76.7184 64.3866L73.577 67.528C72.7475 68.3551 71.6239 68.8196 70.4525 68.8196C69.2811 68.8196 68.1575 68.3551 67.328 67.528L37.6367 36.0127" stroke="black" stroke-width="3" stroke-linecap="round" stroke-linejoin="round"/>
<path d="M12.4713 28.3117C22.9894 22.471 31.6604 13.7999 37.5012 3.28186C38.3306 2.45472 39.4543 1.99023 40.6257 1.99023C41.7971 1.99023 42.9207 2.45472 43.7502 3.28186L55.6064 15.1381C56.4356 15.9733 56.901 17.1026 56.901 18.2795C56.901 19.4565 56.4356 20.5857 55.6064 21.4209C44.9812 27.1029 36.2729 35.7994 30.5766 46.417C29.7471 47.2441 28.6235 47.7086 27.4521 47.7086C26.2807 47.7086 25.157 47.2441 24.3276 46.417L12.4713 34.5607C11.6442 33.7312 11.1797 32.6076 11.1797 31.4362C11.1797 30.2648 11.6442 29.1412 12.4713 28.3117Z" stroke="black" stroke-width="3" stroke-linecap="round" stroke-linejoin="round"/>
<path d="M42.5338 69.5551C42.5338 68.2113 42 66.9225 41.0498 65.9723C40.0996 65.0221 38.8108 64.4883 37.467 64.4883H12.1332C10.7894 64.4883 9.50063 65.0221 8.55043 65.9723C7.60023 66.9225 7.06641 68.2113 7.06641 69.5551V77.9997H42.5338V69.5551Z" stroke="#20D3F6" stroke-width="3" stroke-linecap="round" stroke-linejoin="round"/>
<path d="M2 78H47.6009" stroke="#20D3F6" stroke-width="3" stroke-linecap="round" stroke-linejoin="round"/>
</svg>
