<svg width="416" height="405" viewBox="0 0 416 405" fill="none" xmlns="http://www.w3.org/2000/svg">
<path d="M380.466 215.851C380.422 215.475 379.935 215.166 379.581 215.166C370.891 215.299 359.99 215.343 352.626 220.714C345.772 225.732 344.732 234.574 344.887 242.443C344.887 243.283 345.838 243.526 346.369 243.173C346.391 243.173 346.413 243.195 346.435 243.217C364.722 250.047 383.075 235.038 380.466 215.873V215.851Z" fill="#D398FD"/>
<path d="M338.343 251.418C338.409 245.361 336.994 239.238 332.35 235.038C327.021 230.219 319.304 227.478 313.002 224.207C312.361 223.875 311.343 224.45 311.653 225.246C314.505 232.496 314.107 241.36 319.149 247.66C323.439 253.009 330.67 254.822 337.082 252.832C337.414 252.744 337.591 252.501 337.657 252.258C338.011 252.169 338.32 251.882 338.32 251.418H338.343Z" fill="#D398FD"/>
<path d="M394.573 271.157C390.306 267.841 384.777 268.173 379.603 268.394C373.854 268.637 368.083 269.521 362.864 271.997C353.754 276.329 347.341 285.901 350.658 296.003C350.57 296.423 350.746 296.909 351.277 297.086C359.967 299.827 364.147 294.035 369.387 288.266C376.087 280.883 384.667 275.6 394.175 272.682C394.772 272.505 395.17 271.599 394.573 271.135V271.157Z" fill="#D398FD"/>
<path d="M415.337 292.775C415.227 292.731 415.116 292.686 415.005 292.62C411.313 291.028 408.018 288.022 404.657 285.149C404.657 285.149 404.657 285.149 404.613 285.104C400.942 281.943 397.205 278.937 392.827 278.142C392.783 278.142 392.76 278.142 392.716 278.142C390.704 277.766 388.559 277.898 386.237 278.672C376.95 281.767 371.223 291.448 370.316 300.754C370.316 300.976 370.383 301.152 370.471 301.285C370.471 301.351 370.427 301.373 370.427 301.44C370.272 301.948 370.56 302.633 371.245 302.722C379.206 303.65 387.033 302.722 394.817 301.108C401.738 299.649 409.544 298.478 415.558 294.477C416.266 294.013 416.067 293.084 415.337 292.797V292.775Z" fill="#D398FD"/>
<path d="M401.516 310.591C391.345 308.558 370.338 303.385 368.9 319.588C368.856 320.096 369.188 320.384 369.586 320.45C378.807 331.281 396.762 322.683 402.069 311.962C402.312 311.476 402.135 310.724 401.516 310.613V310.591Z" fill="#D398FD"/>
<path d="M337.104 278.009C334.406 272.041 328.148 265.874 321.979 263.619C321.404 263.42 320.807 263.95 320.807 264.503C320.918 276.263 318.021 294.764 330.824 301.263C330.912 301.307 331.001 301.329 331.089 301.329C331.421 301.838 332.261 302.037 332.637 301.329C336.595 294.278 340.73 286.011 337.104 277.965V278.009Z" fill="#D398FD"/>
<path d="M303.78 285.503C297.522 280.397 287.66 279.292 280.385 282.983C270.302 288.111 272.115 300.247 270.567 309.597C270.412 310.503 271.385 311.122 272.115 310.503C282.088 301.772 295.974 298.346 303.581 286.896C304.067 286.608 304.311 285.967 303.78 285.525V285.503Z" fill="#D398FD"/>
<path d="M303.846 294.742C303.558 294.3 303.094 294.256 302.696 294.411C302.431 294.079 302.01 293.902 301.546 294.145C296.549 296.886 290.689 300.71 289.716 306.745C288.544 313.951 292.591 320.958 293.055 328.054C293.121 329.026 294.669 329.38 294.868 328.297C296.151 321.489 303.205 318.372 305.814 312.249C307.959 307.209 306.831 299.251 303.846 294.72V294.742Z" fill="#D398FD"/>
<path d="M334.649 336.564C328.789 328.341 322.753 321.29 312.559 318.704C311.829 318.505 311.055 319.367 311.52 320.052C313.819 323.501 313.775 327.413 315.699 330.884C316.826 332.939 318.706 334.487 320.674 335.724C325.008 338.465 330.625 340.963 335.467 338.178C336.462 337.603 335.644 336.144 334.671 336.542L334.649 336.564Z" fill="#D398FD"/>
<path d="M347.872 326.838C347.872 326.838 347.828 326.661 347.783 326.573C343.759 320.14 343.582 311.961 338.01 306.413C337.59 305.993 336.882 306.104 336.572 306.59C333.853 310.967 332.526 316.206 334.693 321.113C337.037 326.418 341.968 327.855 347.363 328.407C348.314 328.496 348.469 327.346 347.916 326.816L347.872 326.838Z" fill="#D398FD"/>
<path d="M359.193 254.91C358.043 253.938 356.518 254.91 355.368 255.397C353.223 256.303 351.144 257.342 349.287 258.734C345.793 261.321 343.405 265.012 343.184 269.367C343.162 269.477 343.14 269.588 343.184 269.698C343.184 269.831 343.162 269.941 343.162 270.074C343.162 271.113 344.599 271.246 344.931 270.428C349.397 269.455 352.913 266.582 355.854 263.133C357.203 261.542 361.891 257.165 359.215 254.91H359.193Z" fill="#D398FD"/>
<path d="M361.205 327.568C361.072 327.435 360.962 327.28 360.807 327.148C361.957 319.278 362.443 310.193 354.704 305.574C354.196 305.264 353.488 305.552 353.355 306.126C351.232 314.438 353.665 322.97 359.901 328.872C360.763 329.69 362.068 328.386 361.205 327.568Z" fill="#D398FD"/>
<path d="M414.563 291.847C411.157 290.344 407.951 287.713 404.678 285.127C404.678 285.127 404.678 285.127 404.634 285.083C400.897 282.121 397.094 279.203 392.848 278.12C392.804 278.12 392.782 278.12 392.738 278.12C390.726 277.744 388.581 277.877 386.259 278.651C376.972 281.745 371.244 291.427 370.338 300.733C370.338 300.954 370.404 301.131 370.493 301.264C370.493 301.33 370.448 301.352 370.448 301.418C370.758 301.418 371.068 301.241 371.245 300.976C371.421 300.932 371.598 300.888 371.753 300.711C374.782 297.484 378.011 294.477 381.173 291.405C382.699 289.924 384.202 288.067 385.927 286.829C389.62 284.199 392.782 284.685 396.652 285.812C401.273 287.161 405.497 289.548 409.698 291.847C411.268 292.731 412.794 294.234 414.585 293.416C414.894 293.284 415.049 292.93 415.049 292.599C415.049 292.267 414.872 291.958 414.585 291.825L414.563 291.847Z" fill="#D398FD"/>
<path d="M332.947 322.86C332.063 319.279 331.09 315.676 329.873 312.139C329.873 312.117 329.918 312.095 329.918 312.05C331.576 306.392 332.195 300.622 331.864 294.897C332.173 294.853 332.461 294.654 332.571 294.278C333.633 290.896 334.075 287.426 333.92 283.889C333.854 282.718 332.018 282.696 332.085 283.889C332.195 286.343 331.996 288.752 331.51 291.095C331.134 288.376 330.559 285.658 329.741 282.961C329.387 281.834 327.618 282.32 327.972 283.447C330.581 291.913 330.824 300.556 328.79 309.088C327.065 304.69 324.898 300.49 322.001 296.776C315.169 288.045 302.764 282.718 292.924 286.851C292.902 286.52 292.703 286.21 292.26 286.1C288.457 285.193 284.632 285.746 281.27 287.78C280.253 288.399 281.182 289.99 282.199 289.371C284.941 287.735 287.97 287.161 291.088 287.735C288.811 289.018 286.71 290.874 284.919 293.372C284.234 294.345 285.826 295.251 286.511 294.301C291.221 287.758 299.801 285.702 307.297 288.133C309.486 288.841 311.476 289.88 313.333 291.117C305.483 290.963 299.513 296.224 294.14 301.44C293.3 302.28 294.604 303.562 295.444 302.744C296.506 301.706 297.589 300.667 298.717 299.672C298.408 301.529 298.341 303.408 298.54 305.286C298.651 306.458 300.508 306.458 300.376 305.286C300.132 302.855 300.287 300.512 300.906 298.147C300.95 298.014 300.928 297.904 300.906 297.793C304.71 294.787 308.955 292.621 314.152 292.974C314.638 293.018 314.903 292.709 314.992 292.355C319.171 295.649 322.466 300.136 324.854 304.866C329.586 314.283 332.306 325.048 333.832 335.835C330.028 334.84 326.689 332.851 324.036 329.933C323.24 329.049 321.935 330.353 322.731 331.237C324.08 332.718 325.606 333.956 327.242 334.995C326.181 334.995 325.119 334.951 324.058 334.774C322.908 334.597 322.399 336.366 323.571 336.542C325.34 336.808 327.087 336.918 328.878 336.808C329.254 336.785 329.52 336.564 329.652 336.299C331.001 336.918 332.438 337.427 333.942 337.758C334.008 337.758 334.053 337.758 334.119 337.758C334.805 342.975 335.203 348.191 335.446 353.231C335.512 354.425 337.347 354.425 337.281 353.231C336.795 342.975 335.402 332.785 332.947 322.815V322.86Z" fill="#03F3FF"/>
<path d="M363.528 284.994C361.87 286.188 360.278 287.47 358.774 288.818C359.659 285.547 361.052 282.518 363.02 279.711C363.705 278.738 362.113 277.81 361.428 278.783C359.017 282.209 357.381 285.989 356.519 290.1C356.452 290.365 356.519 290.609 356.651 290.807C352.539 294.831 349.045 299.384 346.214 304.446C345.706 298.102 345.308 291.736 344.976 285.37C344.755 280.838 344.401 275.776 344.269 270.582C346.391 267.708 348.669 264.879 351.964 263.331C353.025 262.823 352.096 261.232 351.035 261.74C348.227 263.066 346.104 265.255 344.224 267.62C344.224 265.166 344.246 262.713 344.401 260.281C344.556 260.038 344.578 259.728 344.445 259.441C345.374 246.444 349.288 234.131 361.737 228.384C362.821 227.898 361.87 226.306 360.809 226.793C357.647 228.252 355.037 230.108 352.848 232.275C352.738 230.484 353.025 228.738 353.688 227.036C354.109 225.931 352.34 225.444 351.919 226.549C350.991 228.937 350.77 231.435 351.168 233.955C351.168 233.999 351.19 234.021 351.212 234.065C345.905 240.387 343.716 248.831 342.92 257.584C340.244 254.49 337.569 251.395 334.915 248.3C335.18 248.168 335.357 247.925 335.335 247.527C335.158 244.941 334.362 242.509 332.859 240.387C332.173 239.436 330.581 240.343 331.266 241.315C332.372 242.885 333.058 244.609 333.345 246.488C332.35 245.338 331.355 244.189 330.36 243.039C329.586 242.133 328.281 243.437 329.055 244.344C333.61 249.627 338.166 254.91 342.721 260.193C342.522 263.42 342.5 266.647 342.544 269.808C342.5 269.874 342.455 269.919 342.411 269.963C342.102 270.383 342.256 270.781 342.544 271.046C342.61 274.141 342.721 277.169 342.853 280.02C343.45 294.72 344.556 309.375 346.17 323.986C342.853 322.152 341.018 318.703 339.382 315.388C338.851 314.327 337.259 315.255 337.79 316.316C339.691 320.118 341.858 324.097 345.905 325.932C346.082 326.02 346.237 326.02 346.391 325.998C347.453 335.37 348.713 344.743 350.173 354.071C350.349 355.242 352.141 354.734 351.942 353.584C349.553 338.266 347.696 322.859 346.413 307.408C346.59 307.342 346.745 307.231 346.834 307.032C351.057 298.898 356.961 291.979 364.391 286.585C365.342 285.9 364.413 284.287 363.462 284.994H363.528Z" fill="#03F3FF"/>
<path d="M394.021 286.453C390.151 286.387 386.613 287.315 383.407 288.907C384.778 287.448 386.237 286.1 387.829 284.884C388.758 284.177 387.829 282.585 386.9 283.292C383.805 285.658 381.129 288.399 378.829 291.56C378.741 291.692 378.697 291.803 378.675 291.913C372.439 296.798 367.817 304.27 364.965 311.409C363.218 315.742 361.935 320.207 360.918 324.783C359.901 323.059 359.326 321.113 358.685 319.212C358.176 317.687 357.712 316.317 356.297 315.432C355.28 314.791 354.373 316.405 355.368 317.024C356.85 317.952 357.203 320.649 357.734 322.196C358.265 323.7 358.84 325.136 359.768 326.441C359.967 326.706 360.211 326.816 360.476 326.838C358.243 337.979 357.624 349.562 356.562 360.703C356.452 361.874 358.287 361.874 358.397 360.703C359.393 350.313 360.034 339.703 361.913 329.358C362.046 329.314 362.179 329.248 362.289 329.115C365.761 325.269 369.387 321.401 373.766 318.726C375.092 319.964 376.64 320.892 378.365 321.467C379.493 321.843 379.979 320.074 378.851 319.699C377.591 319.279 376.463 318.638 375.468 317.798C376.684 317.179 377.945 316.626 379.316 316.206C380.443 315.875 379.957 314.084 378.829 314.438C377.038 314.968 375.38 315.72 373.81 316.582C373.522 316.582 373.279 316.759 373.102 317.002C369.122 319.367 365.739 322.639 362.555 326.109C363.174 323.213 363.859 320.318 364.744 317.488C366.513 311.741 369.343 305.375 373.257 300.07C373.301 300.07 373.323 300.07 373.345 300.07C375.446 299.362 377.591 298.876 379.78 298.589C380.952 298.434 380.444 296.644 379.294 296.82C377.923 296.997 376.574 297.307 375.225 297.638C380.045 292.09 386.259 288.2 393.976 288.332C395.17 288.332 395.17 286.52 393.976 286.498L394.021 286.453Z" fill="#03F3FF"/>
<path d="M378.653 343.858L377.194 352.988L374.54 369.345L368.813 405H326.888L321.161 369.345L318.53 352.988L317.07 343.858H378.653Z" fill="#03F3FF"/>
<path opacity="0.3" d="M334.561 352.988L333.102 343.858H317.07L318.53 352.988L321.161 369.345L326.888 405H342.942L337.193 369.345L334.561 352.988Z" fill="#B550FC"/>
<path opacity="0.64" d="M363.904 402.06C363.904 402.06 363.794 402.06 363.728 402.06C362.644 401.994 361.848 401.397 361.936 400.712L369.145 346.467C369.234 345.782 370.162 345.273 371.268 345.34C372.351 345.406 373.147 346.003 373.059 346.688L365.85 400.933C365.762 401.574 364.899 402.06 363.904 402.06Z" fill="white"/>
<path d="M157.884 164.834C155.783 162.27 149.99 149.957 144.572 137.181C142.958 133.401 141.388 129.555 139.951 125.93C136.589 117.419 133.98 109.992 133.516 106.853C133.074 103.781 151.007 96.0222 157.862 105.218C160.78 109.13 176.348 158.224 175.397 164.37C174.269 171.554 163.279 171.421 157.906 164.856L157.884 164.834Z" fill="url(#paint0_linear_2122_12975)"/>
<path d="M170.731 169.409C173.141 168.724 174.954 167.066 175.397 164.347C176.347 158.224 160.714 109.174 157.861 105.218C156.247 102.963 151.714 100.222 148.021 100.001C163.323 137.358 177.055 167 170.731 169.409Z" fill="#9F1AFF"/>
<path d="M172.234 157.473C179.796 164.657 194.545 191.934 200.405 194.52C206.265 197.128 214.115 204.357 213.872 209.33C213.606 214.414 209.648 214.083 205.204 212.182C202.373 210.966 199.454 209.242 195.872 203.074C192.268 196.885 169.824 177.765 163.345 169.542C156.91 161.385 167.148 152.588 172.256 157.451L172.234 157.473Z" fill="#E6C4FF"/>
<path d="M49.7969 394.721C59.0399 391.605 62.5336 376.419 64.17 368.284L74.3416 372.108C74.3416 372.108 70.472 386.918 71.7103 396.401C72.9486 405.884 70.1845 404.978 70.1845 404.978H37.9668C37.9668 404.978 40.5539 397.838 49.7969 394.721Z" fill="#E6C4FF"/>
<path d="M49.7975 394.722C52.5837 393.771 54.8613 391.738 56.6966 389.129C57.8907 387.295 64.4359 389.328 65.7627 392.887C65.7627 392.887 68.4604 394.766 71.5119 394.479C71.5561 395.142 71.6003 395.783 71.6888 396.402C72.9271 405.885 70.163 404.978 70.163 404.978H37.9453C37.9453 404.978 40.5325 397.838 49.7754 394.722H49.7975Z" fill="#03F3FF"/>
<path d="M184.175 395.451C167.281 395.451 165.003 385.747 166.529 375.402H155.23C155.362 380 155.296 387.25 154.036 393.705C152.134 403.32 156.932 404.978 156.932 404.978H198.061C198.061 404.978 192.113 395.473 184.175 395.473V395.451Z" fill="#E6C4FF"/>
<path d="M167.855 396.137C169.447 393.727 164.648 389.174 168.23 388.975C170.663 392.887 175.461 395.473 184.174 395.473C192.09 395.473 198.06 404.978 198.06 404.978H156.931C156.931 404.978 152.442 403.409 153.88 394.567C158.191 394.567 165.489 399.74 167.877 396.137H167.855Z" fill="#03F3FF"/>
<path d="M165.579 271.82C164.429 254.512 142.759 278.606 142.914 283.204C143.113 288.995 143.245 291.692 142.737 311.984C142.228 332.298 145.921 342.488 149.26 351.927C152.599 361.344 152.4 382.431 152.4 382.431C164.186 383.559 169.338 380.42 169.338 380.42C169.338 380.42 167.326 349.739 168.1 332.232C168.873 314.725 165.866 275.865 165.601 271.798L165.579 271.82Z" fill="#C16EFD"/>
<path d="M156.269 382.652C156.181 375.888 155.672 361.321 153.152 353.761C149.813 343.704 151.029 323.522 151.537 301.882C152.046 280.242 146.982 286.674 146.805 280.485C146.739 278.54 150.122 273.323 154.279 268.88C148.552 273.257 142.847 280.816 142.914 283.204C143.113 288.995 143.245 291.692 142.737 311.984C142.228 332.298 145.921 342.488 149.26 351.927C152.599 361.343 152.4 382.431 152.4 382.431C153.771 382.564 155.053 382.63 156.269 382.652Z" fill="#B550FC"/>
<path d="M168.032 218.614C167.324 241.559 164.56 271.754 165.688 286.122C166.683 299.075 158.214 303.673 151.536 301.882C147.666 300.843 144.416 297.682 143.929 292.753C143.929 292.554 143.907 292.333 143.885 292.134C143.885 291.935 143.885 291.714 143.885 291.493C143.885 291.029 143.885 290.543 143.841 290.034C143.067 278.341 134.089 251.882 128.672 231.015C128.428 230.087 128.207 229.18 127.964 228.274C127.743 227.368 127.522 226.483 127.301 225.599C126.991 224.273 126.704 222.991 126.438 221.753C126.261 220.935 126.085 220.117 125.93 219.322C125.311 216.139 124.868 213.287 124.691 210.833C123.21 191.227 125.178 184.662 130.463 173.786C135.77 162.911 148.86 162.513 153.548 166.492C153.637 166.558 153.725 166.646 153.836 166.735C156.887 169.586 164.118 179.776 167.125 193.636C168.275 198.897 168.385 207.982 168.054 218.636L168.032 218.614Z" fill="#C16EFD"/>
<path d="M135.35 234.883C135.681 237.867 150.43 299.406 151.536 301.882C151.757 302.368 144.593 300.843 143.929 292.753C143.929 292.554 143.907 292.333 143.885 292.134C143.885 291.935 143.885 291.714 143.885 291.493C143.885 291.029 143.885 290.543 143.841 290.034C143.089 278.341 134.089 251.882 128.672 231.015C128.428 230.087 128.207 229.18 127.964 228.274C127.743 227.368 127.522 226.483 127.301 225.599C126.991 224.273 126.704 222.991 126.438 221.753C126.261 220.935 126.085 220.117 125.93 219.322C125.311 216.139 124.868 213.287 124.691 210.833C123.21 191.227 125.178 184.662 130.463 173.786C135.77 162.911 148.86 162.513 153.548 166.492C153.637 166.558 153.725 166.646 153.836 166.735C156.887 169.586 164.118 179.776 167.125 193.636C168.275 198.897 168.385 207.982 168.054 218.636C155.317 228.495 134.62 228.163 135.372 234.905L135.35 234.883Z" fill="#B550FC"/>
<path d="M80.3354 289.305C81.7063 285.349 82.436 282.453 83.4974 278.386C87.9641 261.078 105.389 278.607 104.349 283.204C103.045 288.996 100.9 291.693 97.5167 311.985C94.1114 332.299 88.4727 342.489 83.3205 351.927C78.1683 361.344 74.3429 379.359 74.3429 379.359C64.4366 379.956 60.4121 375.027 60.4121 375.027C60.4121 375.027 65.697 349.739 68.2841 332.232C70.8713 314.725 77.1512 298.523 80.3575 289.305H80.3354Z" fill="#C16EFD"/>
<path d="M75.1383 336.741C77.7254 319.234 81.0201 308.977 84.2264 299.76C85.5974 295.803 89.3123 286.961 90.3516 282.894C92.1869 275.821 96.1671 274.561 100.192 275.887C94.9952 270.714 86.4156 267.001 83.4746 278.385C82.4353 282.452 81.6835 285.37 80.3125 289.304C77.1063 298.544 70.8485 314.725 68.2392 332.232C65.652 349.738 60.3672 375.026 60.3672 375.026C60.3672 375.026 62.49 377.59 67.3989 378.784C68.2834 374.495 72.7943 352.479 75.1161 336.741H75.1383Z" fill="#B550FC"/>
<path d="M95.1494 192.774C101.009 178.45 111.336 168.879 114.675 166.447C120.136 162.469 133.138 162.844 136.345 173.742C139.551 184.617 140.237 191.205 134.996 210.789C129.755 230.374 104.614 276.771 101.761 291.471C98.9085 306.17 76.2876 306.325 81.9484 285.26C87.6091 264.216 88.3388 209.33 95.1273 192.752L95.1494 192.774Z" fill="#C16EFD"/>
<path d="M95.526 231.435C95.6587 225.887 99.7495 221.422 104.924 219.941C107.4 219.233 118.036 221.223 124.825 222.461C128.142 223.058 131.392 221.179 132.52 218.018C133.604 215.011 134.753 211.74 135.019 210.789C140.259 191.205 139.574 184.618 136.368 173.742C133.161 162.867 120.137 162.469 114.697 166.448C111.381 168.879 101.032 178.45 95.1722 192.774C88.4058 209.331 87.6761 264.216 81.9933 285.282C80.0474 292.532 81.4404 297.263 84.2487 299.76C84.2487 299.473 95.3712 237.868 95.526 231.435Z" fill="#B550FC"/>
<path d="M123.719 98.9843C123.719 98.9843 137.517 95.956 147.224 99.0285V102.101L124.36 102.698L123.719 98.9622V98.9843Z" fill="#9F1AFF"/>
<path d="M119.673 43.082C125.466 43.082 130.154 47.7682 130.154 53.5596C130.154 59.351 125.466 64.0372 119.673 64.0372C113.879 64.0372 109.191 59.351 109.191 53.5596C109.191 47.7682 113.879 43.082 119.673 43.082Z" fill="#B550FC"/>
<path d="M118.523 83.7984C116.444 73.7629 107.223 74.7576 112.796 62.2686C118.368 49.8016 124.139 52.211 130.176 50.2879C145.456 45.3807 157.684 65.7832 152.023 79.4217C146.805 92.0434 120.756 94.5633 118.523 83.7984Z" fill="#B550FC"/>
<path d="M118.722 143.061C118.213 138.64 116.621 134.573 112.597 119.321C111.027 113.374 108.616 109.97 110.098 107.318C111.977 103.958 118.456 102.167 122.702 102.167C130.353 102.167 126.66 83.7322 126.66 83.7322C127.832 79.886 140.547 80.5491 139.95 92.8614C139.353 105.152 151.492 99.6254 154.389 101.902C158.347 105.041 158.037 111.717 158.834 115.342C159.63 118.967 165.025 123.277 164.273 129.931C163.543 136.606 157.219 136.385 157.219 136.385C154.964 138.972 152.863 143.68 152.642 147.018C152.133 154.776 155.981 162.491 155.981 162.491C133.537 172.327 114.454 163.684 114.454 163.684C114.454 163.684 120.225 156.279 118.677 143.017L118.722 143.061Z" fill="#E6C4FF"/>
<path d="M122.703 102.19C130.353 102.19 126.661 83.7545 126.661 83.7545C127.302 81.6104 131.525 80.8809 135.019 82.7598C132.653 83.3787 126.992 93.8121 130.398 109.064C131.371 113.397 136.036 115.961 140.348 116.801C140.348 116.801 113.172 121.575 112.575 119.343C111.005 113.397 118.457 102.19 122.68 102.19H122.703Z" fill="#DBAAFF"/>
<path d="M153.946 217.311C152.73 217.421 151.492 217.51 150.231 217.598C149.501 217.642 148.75 217.686 148.02 217.709C147.334 217.731 146.649 217.753 145.963 217.775L139.595 208.226L131.878 217.598C110.141 218.438 88.4492 212.558 88.4492 212.558C89.4222 205.286 90.9479 199.273 92.6948 193.968C92.6948 193.968 92.6948 193.968 92.6948 193.924C100.102 171.444 111.446 161.939 100.677 123.189C100.677 123.189 100.677 123.167 100.677 123.145C99.041 117.221 105.432 109.352 109.257 105.417C111.667 102.919 118.677 102.301 122.723 102.19C129.269 110.369 139.573 116.425 139.573 116.425C139.573 116.425 146.649 104.909 147.578 101.217C149.391 101.173 153.592 101.151 154.433 101.792C158.413 104.931 158.833 111.275 159.629 114.9C160.425 118.525 165.577 123.631 164.847 130.329C164.14 136.717 158.767 140.055 158.302 140.343C158.28 140.343 158.258 140.365 158.258 140.365C151.226 179.092 168.275 170.25 170.132 213.774C165.865 215.631 160.27 216.758 153.99 217.333L153.946 217.311Z" fill="#D398FD"/>
<path d="M158.326 140.254C158.326 140.254 158.259 140.298 158.237 140.32C158.215 140.32 158.193 140.343 158.193 140.343C158.193 140.917 120.226 150.71 116.179 156.258C113.128 160.436 99.2192 198.809 103.951 203.473C108.661 208.115 127.28 195.118 129.226 196.621C130.597 197.682 152.82 214.901 153.925 217.333C152.709 217.443 151.449 217.532 150.188 217.62C149.458 217.664 148.707 217.709 147.977 217.731C147.291 217.753 146.606 217.775 145.921 217.797L139.552 208.248L131.835 217.62C110.098 218.46 88.4062 212.58 88.4062 212.58C89.3129 206.148 90.8828 200.135 92.6518 193.99C92.6518 193.99 92.6518 193.99 92.6518 193.946C100.059 171.466 111.403 161.961 100.634 123.212C103.222 122.769 117.152 116.293 122.57 118.57C122.747 118.636 120.69 145.095 127.545 144.388C129.358 144.189 131.172 143.946 132.985 143.725C133.648 143.636 143.378 143.349 147.004 142.907C150.852 142.42 154.633 141.492 158.303 140.276L158.326 140.254Z" fill="#D398FD"/>
<path d="M126.085 73.5639C126.085 73.5639 130.905 57.8475 136.013 57.1844C141.121 56.5213 145.234 56.7644 147.976 62.2906C147.976 62.2906 151.16 67.1315 150.32 73.1439C150.32 73.1439 157.374 78.9132 150.453 88.1087C143.531 97.3042 131.038 91.7559 126.66 83.7541C126.66 83.7541 119.893 86.2519 118.721 79.9079C117.549 73.5639 121.729 73.0555 126.085 73.5639Z" fill="#E6C4FF"/>
<path d="M126.086 73.5643C126.086 73.5643 130.907 57.8479 136.015 57.1848C140.105 56.6543 143.555 56.7206 146.164 59.5942C142.693 58.8647 131.128 73.0117 131.415 81.1461C131.681 89.4133 140.725 94.1436 147.69 90.2532C148.53 89.789 149.304 89.2364 150.056 88.6175C143.068 97.0614 130.973 91.6016 126.683 83.7545C126.683 83.7545 119.917 86.2523 118.745 79.9083C117.573 73.5643 121.752 73.0559 126.108 73.5643H126.086Z" fill="#DBAAFF"/>
<path d="M153.57 64.8768C153.57 64.8768 145.433 63.9926 140.634 59.638C135.836 55.2834 133.492 56.1897 133.492 56.1897C147.091 49.5141 153.548 64.8768 153.548 64.8768H153.57Z" fill="#B550FC"/>
<path d="M136.367 56.2787C138.644 57.9586 139.374 63.3522 134.023 69.7183C128.671 76.0623 130.838 83.4231 126.173 79.5769C121.485 75.7307 121.419 75.0676 120.733 69.5414C120.07 64.0153 131.347 52.5872 136.367 56.2787Z" fill="#B550FC"/>
<path d="M116.842 102.101C116.842 102.101 120.313 110.39 126.947 114.811C133.581 119.232 136.389 125.09 136.632 127.941L141.364 131.102L138.556 134.551C138.556 134.551 142.868 138.441 142.735 143.26C142.735 143.26 146.295 135.811 145.234 130.041C144.195 124.272 138.578 114.634 135.46 111.252C132.343 107.87 124.581 102.234 123.719 98.9844C123.719 98.9844 120.689 99.6254 116.842 102.123V102.101Z" fill="#9F1AFF"/>
<path d="M146.473 98.9844C146.473 98.9844 145.765 105.152 143.046 109.572C140.304 113.993 139.286 114.458 139.928 117.619C140.591 120.779 147.247 126.107 143.687 140.917C143.687 140.917 148.22 137.181 148.95 133.865L147.291 130.55L149.104 128.428C149.104 128.428 148.109 122.084 146.274 118.547C144.439 115.01 152.067 106.102 152.067 100.333C152.067 100.333 148.574 98.9844 146.451 98.9844H146.473Z" fill="#9F1AFF"/>
<path d="M139.53 119.232C140.422 119.232 141.144 118.51 141.144 117.619C141.144 116.727 140.422 116.005 139.53 116.005C138.639 116.005 137.916 116.727 137.916 117.619C137.916 118.51 138.639 119.232 139.53 119.232Z" fill="#F3E2FF"/>
<path d="M143.643 128.428C143.643 129.312 144.35 130.042 145.257 130.042C146.163 130.042 146.871 129.334 146.871 128.428C146.871 127.522 146.163 126.814 145.257 126.814C144.35 126.814 143.643 127.544 143.643 128.428Z" fill="#F3E2FF"/>
<path d="M141.432 141.315C141.432 142.199 142.139 142.928 143.046 142.928C143.952 142.928 144.66 142.221 144.66 141.315C144.66 140.409 143.952 139.701 143.046 139.701C142.139 139.701 141.432 140.409 141.432 141.315Z" fill="#F3E2FF"/>
<path d="M140.834 156.832C140.834 157.717 141.542 158.446 142.448 158.446C143.355 158.446 144.062 157.717 144.062 156.832C144.062 155.948 143.355 155.219 142.448 155.219C141.542 155.219 140.834 155.926 140.834 156.832Z" fill="#F3E2FF"/>
<path d="M141.431 174.295C142.322 174.295 143.045 173.572 143.045 172.681C143.045 171.79 142.322 171.067 141.431 171.067C140.539 171.067 139.816 171.79 139.816 172.681C139.816 173.572 140.539 174.295 141.431 174.295Z" fill="#F3E2FF"/>
<path d="M140.436 190.166C141.328 190.166 142.051 189.443 142.051 188.552C142.051 187.661 141.328 186.938 140.436 186.938C139.545 186.938 138.822 187.661 138.822 188.552C138.822 189.443 139.545 190.166 140.436 190.166Z" fill="#F3E2FF"/>
<path d="M123.742 118.48C121.531 127.455 102.315 163.64 97.605 168.37C95.0841 170.912 89.158 170.957 85.2663 169.453C85.2663 169.453 85.2441 169.453 85.222 169.453C83.6963 168.857 82.4801 167.862 81.7504 166.469C81.7062 166.359 81.6398 166.248 81.5956 166.138C81.3081 165.475 81.1312 164.723 81.0649 163.905C80.9101 161.363 83.6078 153.825 88.362 142.862C90.3742 138.22 92.5412 133.357 94.6861 128.759C95.261 127.499 95.836 126.261 96.4109 125.045C96.9858 123.83 97.5386 122.658 98.0914 121.509C98.4673 120.735 98.8211 119.983 99.1749 119.254C99.8825 117.795 100.568 116.425 101.209 115.142C101.541 114.501 101.851 113.882 102.138 113.286C104.084 109.462 105.588 106.787 106.251 106.035C106.361 105.925 106.472 105.792 106.583 105.682C106.649 105.615 106.715 105.549 106.804 105.483C106.87 105.416 106.936 105.372 107.003 105.306C108.971 103.692 111.779 103.471 114.698 104.002C121.287 105.195 124.228 116.447 123.742 118.48Z" fill="#9F1AFF"/>
<path d="M85.2435 169.432C83.7178 168.835 82.5016 167.841 81.7719 166.448C81.7277 166.337 81.6613 166.227 81.6171 166.116C81.3296 165.453 81.1527 164.702 81.0864 163.884C80.9316 161.342 83.6293 153.804 88.3835 142.84C90.3957 138.198 92.5627 133.357 94.7076 128.738C95.2825 127.478 95.8575 126.24 96.4324 125.024C97.0073 123.808 97.5601 122.637 98.1129 121.487C98.4888 120.714 98.8426 119.984 99.1964 119.233C99.904 117.774 100.59 116.403 101.231 115.121C101.562 114.48 101.872 113.861 102.159 113.264C104.105 109.44 105.675 106.832 106.272 106.014C108.572 102.765 111.8 103.45 114.719 103.98C95.7911 139.635 79.2732 166.271 85.2435 169.41V169.432Z" fill="#9F1AFF"/>
<path d="M169.294 119.856L133.338 111.842C131.228 111.371 129.136 112.7 128.666 114.809L116.024 171.486C115.553 173.595 116.882 175.686 118.992 176.156L154.948 184.171C157.058 184.641 159.15 183.312 159.62 181.203L172.262 124.527C172.733 122.417 171.404 120.327 169.294 119.856Z" fill="#B550FC"/>
<path d="M154.721 118.149C154.301 118.149 153.88 118.104 153.46 118.016C150.365 117.331 148.419 114.258 149.104 111.164C149.436 109.661 150.342 108.378 151.625 107.561C152.93 106.743 154.455 106.477 155.959 106.809C159.055 107.494 161.001 110.567 160.315 113.661C159.983 115.165 159.077 116.447 157.794 117.265C156.866 117.861 155.804 118.171 154.721 118.171V118.149ZM154.721 108.268C153.947 108.268 153.195 108.489 152.51 108.909C151.581 109.506 150.94 110.412 150.696 111.495C150.21 113.728 151.603 115.938 153.836 116.425C154.92 116.668 156.025 116.469 156.954 115.872C157.883 115.275 158.524 114.369 158.767 113.286C159.254 111.053 157.861 108.843 155.627 108.356C155.318 108.29 155.03 108.246 154.721 108.246V108.268Z" fill="#B550FC"/>
<path d="M136.285 112.511L172.241 120.525C174.356 120.997 175.681 123.081 175.209 125.195L162.567 181.872C162.096 183.987 160.011 185.311 157.895 184.84L121.939 176.825C119.824 176.354 118.499 174.269 118.971 172.155L131.613 115.478C132.085 113.364 134.17 112.039 136.285 112.511Z" fill="#03F3FF"/>
<path d="M160.126 117.016L147.803 114.27L147.1 117.419L159.424 120.166L160.126 117.016Z" fill="#B550FC"/>
<path d="M85.1552 157.031C95.8133 154.312 130.242 156.058 135.859 152.279C141.475 148.499 152.333 145.559 156.644 148.565C161.045 151.637 158.524 154.997 154.323 157.915C151.647 159.772 148.485 161.386 140.967 161.142C133.426 160.899 102.359 170.382 91.3688 171.576C80.4895 172.747 77.9687 158.888 85.1552 157.031Z" fill="#E6C4FF"/>
<path d="M113.127 398.612C113.127 402.126 115.979 405 119.517 405C123.055 405 125.908 402.149 125.908 398.612C125.908 395.075 123.055 392.224 119.517 392.224C115.979 392.224 113.127 395.075 113.127 398.612Z" fill="#B550FC"/>
<path d="M84.9785 398.612C84.9785 402.126 87.831 405 91.369 405C94.907 405 97.7595 402.149 97.7595 398.612C97.7595 395.075 94.907 392.224 91.369 392.224C87.831 392.224 84.9785 395.075 84.9785 398.612Z" fill="#B550FC"/>
<path d="M56.8281 398.612C56.8281 402.126 59.6806 405 63.2186 405C66.7566 405 69.6091 402.149 69.6091 398.612C69.6091 395.075 66.7566 392.224 63.2186 392.224C59.6806 392.224 56.8281 395.075 56.8281 398.612Z" fill="#03F3FF"/>
<path d="M84.2707 395.186H98.4668L98.4668 240.564H84.2707L84.2707 395.186Z" fill="#D398FD"/>
<path d="M81.8831 321.202H100.855V296.732H81.8831V321.202Z" fill="#B550FC"/>
<path d="M78.7652 311.741H103.951V287.271H78.7652V311.741Z" fill="#D398FD"/>
<path d="M53.2246 394.368H129.534C129.534 389.659 125.731 385.857 121.021 385.857H61.7379C57.0279 385.857 53.2246 389.659 53.2246 394.368Z" fill="#D398FD"/>
<path d="M20.5645 174.295L21.5153 179.865L39.0504 287.205H116.532L99.771 184.242C98.798 178.495 93.8006 174.295 88.0072 174.295H20.5645Z" fill="#D398FD"/>
<path d="M21.4922 179.865L39.0273 287.205H112.175L96.3426 189.79C95.3696 184.043 90.3722 179.865 84.5788 179.865H21.4922Z" fill="#D398FD"/>
<path d="M31.4657 289.394L45.684 287.228L28.2373 180.308C27.6403 176.837 24.633 174.317 21.1172 174.317C16.6505 174.317 13.2451 178.34 13.997 182.761L31.4657 289.416V289.394Z" fill="#B550FC"/>
<path d="M169.092 297.262H78.7634C75.1591 297.262 72.2402 294.345 72.2402 290.742C72.2402 287.138 75.1591 284.221 78.7634 284.221H169.092C172.697 284.221 175.616 287.138 175.616 290.742C175.616 294.345 172.697 297.262 169.092 297.262Z" fill="#B550FC"/>
<path d="M89.5104 297.262H36.6618C33.0575 297.262 30.1387 294.345 30.1387 290.742C30.1387 287.138 33.0575 284.221 36.6618 284.221H89.5104C93.1147 284.221 96.0335 287.138 96.0335 290.742C96.0335 294.345 93.1147 297.262 89.5104 297.262Z" fill="#B550FC"/>
<path d="M38.8282 196.798H88.3599C89.3329 196.798 90.151 196.002 90.151 195.007C90.151 194.013 89.355 193.217 88.3599 193.217H38.8282C37.8332 193.217 37.0371 194.013 37.0371 195.007C37.0371 195.98 37.8332 196.798 38.8282 196.798Z" fill="#BD64FC"/>
<path d="M43.7833 219.852H93.315C94.3101 219.852 95.1061 219.057 95.1061 218.062C95.1061 217.067 94.3101 216.271 93.315 216.271H43.7833C42.8103 216.271 41.9922 217.067 41.9922 218.062C41.9922 219.057 42.7882 219.852 43.7833 219.852Z" fill="#BD64FC"/>
<path d="M48.7364 242.93H98.2681C99.2632 242.93 100.059 242.134 100.059 241.139C100.059 240.166 99.2632 239.349 98.2681 239.349H48.7364C47.7414 239.349 46.9453 240.144 46.9453 241.139C46.9453 242.134 47.7414 242.93 48.7364 242.93Z" fill="#BD64FC"/>
<path d="M307.914 405H315.211V260.016H307.914V405Z" fill="url(#paint1_linear_2122_12975)"/>
<path d="M317.201 260.016H315.211V405H317.201V260.016Z" fill="#B550FC"/>
<path d="M246.508 405H253.805L253.805 260.016H246.508L246.508 405Z" fill="url(#paint2_linear_2122_12975)"/>
<path d="M255.795 260.016H253.805V405H255.795V260.016Z" fill="#B550FC"/>
<path d="M77.5486 405H84.8457L84.8457 260.016H77.5486L77.5486 405Z" fill="#B550FC"/>
<path d="M86.8358 260.016H84.8457V405H86.8358V260.016Z" fill="url(#paint3_linear_2122_12975)"/>
<path d="M5.04081 405H12.3379L12.3379 260.016H5.04081L5.04081 405Z" fill="#B550FC"/>
<path d="M14.3495 260.016H12.3594V405H14.3495V260.016Z" fill="url(#paint4_linear_2122_12975)"/>
<path d="M0 261.431L326.047 261.431V252.655L0 252.655V261.431Z" fill="url(#paint5_linear_2122_12975)"/>
<path d="M0.000450134 261.431H94.752V252.655H0.000450134V261.431Z" fill="#B550FC"/>
<path d="M201.289 248.103H115.051V252.656H201.289V248.103Z" fill="#F1DEFE"/>
<path d="M115.051 252.656H75.3594V250.092C75.3594 248.987 76.2439 248.103 77.3495 248.103H115.051V252.656Z" fill="#F1DEFE"/>
<path d="M198.879 248.102H112.973L124.272 195.228C124.604 193.681 125.886 192.598 127.39 192.598H204.761C207.835 192.598 210.112 195.626 209.427 198.809L198.879 248.102Z" fill="#F1DEFE"/>
<path d="M200.957 248.102H115.051L126.35 195.228C126.682 193.681 127.964 192.598 129.468 192.598H208.453C210.687 192.598 212.345 194.808 211.859 197.129L200.957 248.102Z" fill="url(#paint6_linear_2122_12975)"/>
<path opacity="0.34" d="M167.236 192.598L191.427 248.102H180.349L155.273 192.598H167.236Z" fill="#F6EBFF"/>
<path opacity="0.34" d="M149.148 192.598L173.339 248.102H169.027L143.93 192.598H149.148Z" fill="#F6EBFF"/>
<path d="M351.454 395.628C344.953 393.373 343.383 383.426 342.719 377.524L333.211 380.951C333.211 380.951 336.97 391.03 335.466 397.905C333.985 404.779 336.019 404.116 336.019 404.116H365.782C365.782 404.116 357.955 397.883 351.432 395.628H351.454Z" fill="#E6C4FF"/>
<path d="M365.804 404.956H336.218C336.218 404.956 335.135 405.309 334.692 403.099C334.471 401.95 334.316 401.972 334.692 398.988C334.759 398.413 334.825 397.838 334.847 397.219C337.655 397.484 341.857 395.384 341.857 395.384C343.073 392.091 347.363 390.61 348.468 392.312C350.237 395.318 353.93 396.003 356.495 396.888C362.112 398.789 363.461 400.955 364.809 403.121C365.517 404.226 365.782 404.978 365.782 404.978L365.804 404.956Z" fill="#03F3FF"/>
<path d="M365.805 404.956H336.219C336.219 404.956 335.136 405.31 334.693 403.1H364.833C365.54 404.205 365.805 404.956 365.805 404.956Z" fill="#03F3FF"/>
<path d="M253.408 396.313C259.931 394.125 256.968 383.691 257.676 377.812L267.14 381.326C267.14 381.326 267.936 391.87 269.351 398.745C270.766 405.619 268.732 404.956 268.732 404.956L238.969 404.669C238.969 404.669 246.863 398.501 253.386 396.313H253.408Z" fill="#E6C4FF"/>
<path d="M253.407 396.313C255.398 395.694 255.862 394.39 257.056 392.511C257.808 391.185 260.13 393.506 261.28 396.092C261.28 396.092 266.387 398.192 269.152 397.352C269.218 397.838 269.284 398.303 269.373 398.745C270.788 405.619 268.753 404.956 268.753 404.956L238.99 404.669C240.516 399.054 247.128 398.236 253.407 396.313Z" fill="#03F3FF"/>
<path d="M269.859 403.165C269.726 405.265 268.753 404.956 268.753 404.956L238.99 404.668C238.99 404.668 239.101 403.917 239.72 402.878L269.859 403.187V403.165Z" fill="#B147FC"/>
<path d="M339.89 301.771C336.706 279.49 334.03 225.312 328.126 210.126C322.974 196.885 313.643 187.911 310.613 185.634C305.66 181.876 293.697 182.031 290.579 191.978C287.462 201.925 286.71 207.96 291.221 226.041C295.732 244.123 312.714 305.839 315.102 319.367C315.102 319.433 315.146 319.499 315.146 319.566C316.362 336.056 331.399 390.322 331.399 390.322C337.391 392.931 347.32 390.698 347.32 390.698C343.273 359.398 346.435 313.376 339.868 301.749L339.89 301.771Z" fill="#9F1AFF"/>
<path d="M300.287 226.417C301.636 208.424 299.844 202.367 294.98 192.376C290.115 182.385 278.086 182.031 273.774 185.678C271.143 187.911 263.337 196.708 260.484 209.861C257.19 225.069 258.87 292.753 257.389 312.072C257.322 313.001 257.344 313.885 257.389 314.725C254.536 327.722 256.858 362.338 255.531 388.377C255.531 388.377 265.526 391.317 271.275 388.731C271.275 388.731 286.024 334.486 283.946 319.941C283.946 319.765 283.99 319.588 283.99 319.389C284.012 305.883 298.938 244.41 300.287 226.417Z" fill="#9F1AFF"/>
<path d="M300.707 213.73C300.419 204.711 298.496 199.583 295.002 192.399C292.282 186.828 287.329 184.242 282.752 183.69C282.464 183.645 282.177 183.623 281.889 183.601C281.624 183.601 281.381 183.579 281.137 183.579C280.386 183.579 279.656 183.601 278.948 183.69C278.02 183.8 277.135 184.021 276.339 184.309C275.941 184.441 275.565 184.618 275.211 184.795C275.034 184.883 274.858 184.972 274.703 185.082C274.371 185.281 274.084 185.502 273.818 185.723C273.641 185.856 273.465 186.033 273.265 186.232C273.155 186.342 273.044 186.453 272.912 186.563C272.867 186.607 272.823 186.652 272.779 186.696C272.691 186.784 272.602 186.873 272.492 186.983C272.447 187.027 272.403 187.094 272.337 187.138C272.248 187.248 272.138 187.359 272.027 187.469C271.983 187.514 271.939 187.558 271.895 187.624C271.585 187.956 271.275 188.309 270.944 188.707C270.899 188.774 270.855 188.818 270.789 188.884C270.678 189.017 270.546 189.172 270.435 189.326C270.369 189.393 270.325 189.459 270.258 189.547C270.126 189.702 270.015 189.857 269.882 190.034C269.838 190.1 269.772 190.166 269.728 190.233C269.374 190.697 268.998 191.183 268.622 191.714C268.578 191.78 268.511 191.868 268.467 191.935C268.334 192.134 268.202 192.333 268.047 192.531C267.981 192.62 267.936 192.708 267.87 192.797C267.737 192.996 267.605 193.217 267.45 193.416C267.406 193.504 267.339 193.57 267.295 193.659C266.919 194.256 266.543 194.875 266.167 195.516C266.123 195.604 266.057 195.692 266.013 195.803C265.88 196.046 265.747 196.267 265.615 196.51C265.548 196.621 265.482 196.731 265.438 196.842C265.305 197.085 265.172 197.328 265.04 197.571C264.995 197.682 264.929 197.77 264.885 197.881C264.708 198.234 264.531 198.588 264.354 198.964C264.177 199.34 264 199.693 263.823 200.091C263.779 200.202 263.713 200.312 263.669 200.423C263.558 200.688 263.425 200.975 263.315 201.241C263.249 201.373 263.204 201.506 263.138 201.639C263.027 201.926 262.917 202.191 262.784 202.479C262.74 202.611 262.696 202.722 262.629 202.854C262.475 203.252 262.32 203.672 262.165 204.092C262.01 204.512 261.878 204.932 261.745 205.374C261.701 205.507 261.656 205.639 261.612 205.772C261.524 206.082 261.435 206.391 261.325 206.7C261.281 206.855 261.236 207.01 261.192 207.165C261.104 207.474 261.015 207.784 260.949 208.115C260.905 208.27 260.883 208.403 260.838 208.557C260.728 208.999 260.617 209.464 260.507 209.928C260.462 210.193 260.396 210.458 260.352 210.746C260.352 210.834 260.308 210.945 260.308 211.033C260.263 211.232 260.241 211.431 260.197 211.652C260.197 211.762 260.153 211.895 260.131 212.028C260.109 212.227 260.064 212.448 260.042 212.669C260.042 212.801 259.998 212.934 259.998 213.067C259.976 213.288 259.932 213.531 259.91 213.774C259.91 213.907 259.887 214.039 259.865 214.172C259.843 214.459 259.799 214.747 259.777 215.034C259.777 215.144 259.755 215.233 259.733 215.343C259.644 216.183 259.578 217.068 259.489 217.996C259.489 218.084 259.489 218.195 259.489 218.283C259.467 218.659 259.423 219.035 259.401 219.433C259.401 219.565 259.401 219.698 259.379 219.808C259.357 220.184 259.335 220.582 259.313 220.958C259.313 221.091 259.313 221.223 259.29 221.334C259.268 221.754 259.246 222.174 259.224 222.594C259.224 222.704 259.224 222.815 259.224 222.925C259.202 223.456 259.158 223.986 259.136 224.539C259.047 226.285 258.959 228.12 258.892 230.065C258.892 230.109 258.892 230.153 258.892 230.198C258.892 230.794 258.848 231.391 258.826 232.01C258.826 232.054 258.826 232.099 258.826 232.143C258.826 232.784 258.782 233.425 258.76 234.088C270.678 242.598 291.221 242.444 290.557 248.5C290.248 251.241 281.558 309.619 280.54 311.896C280.43 312.161 282.133 320.517 283.99 320.451C284.034 320.097 284.056 319.743 284.056 319.367C284.078 306.083 298.518 246.356 300.287 227.302C300.287 227.302 300.287 227.28 300.287 227.258C300.309 226.97 300.331 226.683 300.353 226.396C300.574 223.588 300.707 221.068 300.751 218.77C300.795 216.935 300.795 215.255 300.751 213.686L300.707 213.73Z" fill="#9F1AFF"/>
<path d="M300.397 236.895C306.677 235.856 316.451 234.22 318.728 234.906C323.46 236.343 327.153 240.52 327.175 245.604C327.22 251.506 336.463 308.271 336.44 308.536C337.391 307.718 338.829 306.547 340.2 305.044C340.2 304.181 340.111 303.275 339.978 302.369C336.772 280.485 334.097 225.423 328.126 210.104C323.46 198.102 315.345 189.613 311.63 186.43C311.254 186.099 310.901 185.834 310.613 185.613C305.66 181.855 293.697 182.009 290.579 191.957C287.462 201.904 286.71 207.938 291.221 226.02C291.442 226.904 292.437 229.91 293.388 232.695C294.383 235.613 297.346 237.381 300.375 236.895H300.397Z" fill="#9F1AFF"/>
<path d="M274.703 122.747C265.947 117.795 241.115 91.3141 238.063 84.0638C234.503 75.6198 238.815 69.0327 247.992 71.8178C257.809 74.802 285.185 102.212 288.214 106.942C293.698 115.496 285.671 128.936 274.725 122.747H274.703Z" fill="#E6C4FF"/>
<path d="M253.364 82.0962C255.354 69.6072 248.964 34.7704 252.701 27.94C256.438 21.1097 263.071 16.2909 259.157 11.6711C255.155 6.9628 249.937 6.78596 244.298 7.38279C240.583 7.78067 240.937 14.4341 242.02 23.0328C243.104 31.6536 236.249 63.8158 236.072 76.5259C235.873 89.1255 252.037 90.5402 253.386 82.0741L253.364 82.0962Z" fill="#E6C4FF"/>
<path d="M236.913 73.2105C243.723 78.1177 248.566 75.2662 256.062 73.2105C256.548 73.6968 257.013 74.2052 257.499 74.7578C265.99 84.4838 289.872 103.825 291.309 105.704C296.66 112.778 292.326 131.058 274.835 123.167C258.936 116.005 240.406 93.6793 235.343 82.2734C233.441 77.9851 231.915 72.7463 235.785 71.4863C236.139 72.061 236.36 72.7905 236.913 73.1884V73.2105Z" fill="url(#paint7_linear_2122_12975)"/>
<path d="M302.189 70.0722C302.498 79.2014 314.041 80.9476 314.041 80.9476C313.82 74.1836 320.675 69.188 321.78 60.7219C322.908 51.9464 316.429 43.9004 304.732 46.1992C297.567 47.6139 301.879 60.943 302.189 70.0722Z" fill="#B550FC"/>
<path d="M311.984 96.6414C318.352 97.4592 329.961 100.333 333.411 106.389C336.861 112.446 334.34 170.36 329.939 208.225C329.939 208.225 277.312 230.462 258.627 206.567C258.627 206.567 271.651 108.998 279.103 99.957C285.317 92.3973 305.616 95.8014 311.984 96.6192V96.6414Z" fill="#D398FD"/>
<path d="M312.581 132.097C304.665 146.133 258.627 206.611 258.627 206.611C277.312 230.506 328.79 210.568 328.79 210.568C337.878 175.156 321.05 117.088 312.581 132.097Z" fill="#D398FD"/>
<path d="M313.289 96.8179C313.289 96.8179 291.066 127.698 288.479 130.218C288.479 130.218 289.297 103.714 289.761 95.7568L313.266 96.7958L313.289 96.8179Z" fill="#03F3FF"/>
<path d="M309.22 83.7545C309.485 82.583 309.706 81.8093 309.706 81.8093C309.706 81.8093 297.102 71.7517 295.422 81.964L309.242 83.7545H309.22Z" fill="url(#paint8_linear_2122_12975)"/>
<path d="M295.687 103.273L291.861 95.9782C291.861 95.9782 295.819 93.3035 295.289 86.3406C294.006 69.3201 309.684 81.8091 309.684 81.8091C309.684 81.8091 306.831 95.9782 311.984 96.6413L295.709 103.251L295.687 103.273Z" fill="#E6C4FF"/>
<path d="M295.798 99.9353C304.643 101.085 304.201 90.0104 304.621 87.9325C305.019 85.9873 309.707 81.8096 309.707 81.8096C309.707 81.8096 306.855 95.9786 312.007 96.6417L295.732 103.251L293.477 98.9406C294.096 99.4269 294.87 99.7806 295.843 99.9132L295.798 99.9353Z" fill="#DBAAFF"/>
<path d="M288.744 58.5111L287.639 78.6262C287.838 84.5503 294.803 89.1259 301.039 88.9049C307.274 88.7059 312.183 83.7324 311.984 77.8084V77.3221C311.984 77.3221 318.419 76.6589 318.198 70.0939C317.977 63.5288 313.753 66.3582 313.753 66.3582L313.665 63.5509C313.554 60.3236 310.857 57.7816 307.606 57.8921L288.722 58.5111H288.744Z" fill="#E6C4FF"/>
<path d="M313.776 66.3805L313.665 63.3079C313.554 60.2133 310.967 57.7818 307.872 57.8923L304.687 58.0028C304.687 58.0028 304.687 58.1354 304.687 58.2018L305.439 80.9032C305.572 84.882 301.835 88.0871 297.965 88.0871C296.771 88.0871 294.317 87.4461 293.344 86.9377C296.263 88.5734 298.739 89.0155 301.017 88.9492C307.252 88.7503 312.161 83.7768 311.962 77.8527V77.3664C311.962 77.3664 318.397 76.7033 318.176 70.1382C317.955 63.5732 313.731 66.4026 313.731 66.4026L313.776 66.3805Z" fill="#DBAAFF"/>
<path d="M309.264 93.3916C306.39 97.8125 295.688 103.272 295.688 103.272C295.688 103.272 298.96 102.565 302.122 106.831C303.449 108.644 305.55 109.285 305.55 109.285C305.55 109.285 312.36 104.068 313.289 96.8399L309.264 93.4137V93.3916Z" fill="#EFD8FE"/>
<path d="M293.785 93.7676C293.299 98.3211 295.709 103.273 295.709 103.273C295.709 103.273 293.122 101.703 290.313 104.665C289.119 105.925 288.014 105.947 288.014 105.947C288.014 105.947 288.058 102.3 289.805 95.4917L293.763 93.7897L293.785 93.7676Z" fill="#EFD8FE"/>
<path d="M305.042 56.0137C305.042 56.0137 300.995 61.6945 292.814 61.164C284.654 60.6335 284.079 64.9439 284.079 64.9439C284.079 64.9439 279.745 50.2223 289.961 44.6077C300.177 38.9931 306.877 45.8898 306.877 45.8898L305.02 55.9915L305.042 56.0137Z" fill="#B550FC"/>
<path d="M345.618 74.139C340.045 62.7772 335.977 27.6088 330.404 22.1711C324.832 16.7334 317.071 14.0587 319.481 8.51048C321.935 2.82961 326.866 1.12755 332.439 0.0665353C336.109 -0.640811 337.724 5.83583 339.205 14.3682C340.687 22.9227 356.652 51.6807 360.566 63.7719C364.435 75.7526 349.399 81.8314 345.64 74.1611L345.618 74.139Z" fill="#E6C4FF"/>
<path d="M339.426 124.67C337.767 126.792 335.401 128.406 333.522 129.025C320.896 133.203 312.692 118.791 316.274 111.319C317.38 109.02 343.826 74.3604 344.224 73.7414C352.45 74.2719 357.315 73.6972 361.052 65.9827C361.096 65.8722 361.14 65.7838 361.184 65.6733C361.494 65.0101 361.781 64.3249 362.025 63.6396C366.403 64.1259 368.216 66.4911 368.592 71.5089C369.609 84.9042 351.588 109.065 339.426 124.648V124.67Z" fill="#D398FD"/>
<path d="M368.614 71.5304C368.238 66.5126 366.425 64.1474 362.047 63.6611C361.848 64.2137 361.627 64.7443 361.383 65.2969C363.152 66.5347 364.015 68.6568 364.28 71.9503C365.297 85.3457 347.276 109.506 335.114 125.09C333.455 127.212 331.576 129.533 331.244 129.621C332.925 129.754 331.642 129.688 333.544 129.046C335.445 128.428 337.789 126.814 339.448 124.692C351.61 109.108 369.653 84.9257 368.614 71.5525V71.5304Z" fill="url(#paint9_linear_2122_12975)"/>
<path d="M283.681 318.55C282.974 316.052 282.067 313.952 281.028 312.184C281.028 312.957 270.104 364.328 268.844 389.505C269.397 389.395 269.905 389.262 270.414 389.085C270.701 388.975 271.011 388.886 271.276 388.754C271.276 388.754 276.296 369.766 280.409 350.336C283.15 336.742 285.096 323.59 283.659 318.55H283.681Z" fill="#9F1AFF"/>
<path d="M338.364 299.827C337.259 298.92 336.087 298.169 334.893 297.55C336.02 302.17 340.509 321.312 340.222 334.973C339.89 350.181 342.787 386.41 344.025 391.251C346.015 391.008 347.342 390.698 347.342 390.698C343.008 357.21 346.944 306.834 338.364 299.827Z" fill="#9F1AFF"/>
<defs>
<linearGradient id="paint0_linear_2122_12975" x1="133.516" y1="135.302" x2="175.419" y2="135.302" gradientUnits="userSpaceOnUse">
<stop stop-color="#92F8FF"/>
<stop offset="1" stop-color="#B651FF"/>
</linearGradient>
<linearGradient id="paint1_linear_2122_12975" x1="311.562" y1="408.691" x2="311.562" y2="256.325" gradientUnits="userSpaceOnUse">
<stop stop-color="#D398FD"/>
<stop offset="1" stop-color="#BD64FC"/>
</linearGradient>
<linearGradient id="paint2_linear_2122_12975" x1="250.156" y1="-5.18536e-05" x2="250.156" y2="-5.18536e-05" gradientUnits="userSpaceOnUse">
<stop stop-color="#D398FD"/>
<stop offset="1" stop-color="#BD64FC"/>
</linearGradient>
<linearGradient id="paint3_linear_2122_12975" x1="85.8408" y1="-0.000509617" x2="85.8408" y2="-0.000509617" gradientUnits="userSpaceOnUse">
<stop stop-color="#D398FD"/>
<stop offset="1" stop-color="#BD64FC"/>
</linearGradient>
<linearGradient id="paint4_linear_2122_12975" x1="13.3544" y1="-0.000509617" x2="13.3544" y2="-0.000509617" gradientUnits="userSpaceOnUse">
<stop stop-color="#D398FD"/>
<stop offset="1" stop-color="#BD64FC"/>
</linearGradient>
<linearGradient id="paint5_linear_2122_12975" x1="0" y1="257.032" x2="326.047" y2="257.032" gradientUnits="userSpaceOnUse">
<stop stop-color="#D398FD"/>
<stop offset="1" stop-color="#BD64FC"/>
</linearGradient>
<linearGradient id="paint6_linear_2122_12975" x1="115.051" y1="220.339" x2="211.947" y2="220.339" gradientUnits="userSpaceOnUse">
<stop stop-color="white"/>
<stop offset="1" stop-color="#F3E3FF"/>
</linearGradient>
<linearGradient id="paint7_linear_2122_12975" x1="233.352" y1="98.3213" x2="293.432" y2="98.3213" gradientUnits="userSpaceOnUse">
<stop stop-color="#D398FD"/>
<stop offset="1" stop-color="#BD64FC"/>
</linearGradient>
<linearGradient id="paint8_linear_2122_12975" x1="268.805" y1="76.7795" x2="346.526" y2="86.8083" gradientUnits="userSpaceOnUse">
<stop stop-color="#AFFAFF"/>
<stop offset="1" stop-color="#B44DFF"/>
</linearGradient>
<linearGradient id="paint9_linear_2122_12975" x1="331.222" y1="96.6412" x2="368.658" y2="96.6412" gradientUnits="userSpaceOnUse">
<stop stop-color="#D398FD"/>
<stop offset="1" stop-color="#BD64FC"/>
</linearGradient>
</defs>
</svg>
