<svg width="100" height="100" viewBox="0 0 100 100" fill="none" xmlns="http://www.w3.org/2000/svg">
<path d="M83.1067 58C86.92 54.9348 89 50.5072 89 45.3986C89 36.2029 81.3733 28.7101 72.0133 28.7101C68.5467 28.7101 65.08 29.7319 62.3067 31.7754C60.5733 19.8551 49.8267 11 37 11C22.7867 11 11 22.5797 11 36.5435C11 42.6739 13.4266 48.4638 17.24 52.8913" stroke="black" stroke-width="3" stroke-miterlimit="10" stroke-linecap="round" stroke-linejoin="round"/>
<path d="M73 78.1429C73 81.9143 69.8846 85 66.0769 85H34.9231C31.1154 85 28 81.9143 28 78.1429V55.8571C28 52.0857 31.1154 49 34.9231 49H66.0769C69.8846 49 73 52.0857 73 55.8571V78.1429Z" stroke="#00CCF5" stroke-width="3" stroke-miterlimit="10" stroke-linecap="round" stroke-linejoin="round"/>
<path d="M43 59V75" stroke="#00CCF5" stroke-width="3" stroke-miterlimit="10" stroke-linecap="round" stroke-linejoin="round"/>
<path d="M40 70H47" stroke="#00CCF5" stroke-width="3" stroke-miterlimit="10" stroke-linecap="round" stroke-linejoin="round"/>
<path d="M57 75V59" stroke="#00CCF5" stroke-width="3" stroke-miterlimit="10" stroke-linecap="round" stroke-linejoin="round"/>
<path d="M54 64H60" stroke="#00CCF5" stroke-width="3" stroke-miterlimit="10" stroke-linecap="round" stroke-linejoin="round"/>
</svg>
