<svg width="100" height="100" viewBox="0 0 100 100" fill="none" xmlns="http://www.w3.org/2000/svg">
<path d="M71.8118 57H65.3021C64.303 56.9988 63.3348 57.36 62.5639 58.0216C61.7929 58.6831 61.2675 59.6036 61.078 60.6248C60.8885 61.6459 61.0467 62.7039 61.5254 63.6168C62.0042 64.5297 62.7735 65.2404 63.7011 65.6267L70.3069 68.3767C71.2324 68.7643 71.9996 69.4752 72.4767 70.3873C72.9538 71.2994 73.1112 72.3558 72.9219 73.3755C72.7326 74.3952 72.2084 75.3146 71.4391 75.9759C70.6698 76.6372 69.7035 76.9993 68.7059 77H62.2058" stroke="#00CCF5" stroke-width="3" stroke-linecap="round" stroke-linejoin="round"/>
<path d="M67 57V55" stroke="#00CCF5" stroke-width="3" stroke-linecap="round" stroke-linejoin="round"/>
<path d="M67 80V77" stroke="#00CCF5" stroke-width="3" stroke-linecap="round" stroke-linejoin="round"/>
<path d="M48 67.5C48 72.6717 50.0545 77.6316 53.7114 81.2886C57.3684 84.9455 62.3283 87 67.5 87C72.6717 87 77.6316 84.9455 81.2886 81.2886C84.9455 77.6316 87 72.6717 87 67.5C87 62.3283 84.9455 57.3684 81.2886 53.7114C77.6316 50.0545 72.6717 48 67.5 48C62.3283 48 57.3684 50.0545 53.7114 53.7114C50.0545 57.3684 48 62.3283 48 67.5Z" stroke="#00CCF5" stroke-width="3" stroke-linecap="round" stroke-linejoin="round"/>
<path d="M87 42.1027C86.355 39.6193 85.1111 37.3265 83.3744 35.42C81.6378 33.5134 79.4597 32.0495 77.026 31.153C74.5923 30.2566 71.9751 29.9541 69.3974 30.2715C66.8196 30.5888 64.3579 31.5166 62.2219 32.9757C61.3513 28.4027 59.1792 24.1689 55.9597 20.7697C52.7402 17.3705 48.6066 14.9464 44.0422 13.781C39.4779 12.6155 34.6716 12.757 30.1858 14.1887C25.6999 15.6205 21.7199 18.2834 18.7114 21.8659C15.7028 25.4484 13.7902 29.8023 13.1972 34.4184C12.6042 39.0344 13.3553 43.7217 15.3627 47.9318C17.3702 52.142 20.5509 55.7009 24.5327 58.1922C28.5146 60.6836 33.133 62.0043 37.8476 62" stroke="black" stroke-width="3" stroke-linecap="round" stroke-linejoin="round"/>
</svg>
