<svg width="104" height="100" viewBox="0 0 104 100" fill="none" xmlns="http://www.w3.org/2000/svg">
<path d="M67 16H26.0909C23.6799 16 21.3675 16.9482 19.6627 18.636C17.9578 20.3239 17 22.6131 17 25V79" stroke="black" stroke-width="3" stroke-linecap="round" stroke-linejoin="round"/>
<path d="M26 29H46" stroke="black" stroke-width="3" stroke-linecap="round" stroke-linejoin="round"/>
<path d="M26 39H46" stroke="black" stroke-width="3" stroke-linecap="round" stroke-linejoin="round"/>
<path d="M26 68H46" stroke="black" stroke-width="3" stroke-linecap="round" stroke-linejoin="round"/>
<path d="M26 50H36" stroke="black" stroke-width="3" stroke-linecap="round" stroke-linejoin="round"/>
<path d="M26 58H36" stroke="black" stroke-width="3" stroke-linecap="round" stroke-linejoin="round"/>
<path d="M60 59V22.8333C60 21.021 60.6848 19.2829 61.9038 18.0014C63.1228 16.7199 64.7761 16 66.5 16C68.2239 16 69.8772 16.7199 71.0962 18.0014C72.3152 19.2829 73 21.021 73 22.8333V27.3889H60" stroke="black" stroke-width="3" stroke-linecap="round" stroke-linejoin="round"/>
<path d="M82.2626 53L61.147 81.1542C60.909 81.4717 60.6057 81.7342 60.2574 81.9242C59.9092 82.1142 59.5242 82.2271 59.1285 82.2552C58.7328 82.2834 58.3357 82.2262 57.964 82.0875C57.5924 81.9488 57.2549 81.7319 56.9744 81.4514L51.4805 75.9574" stroke="#3DD3F2" stroke-width="3" stroke-linecap="round" stroke-linejoin="round"/>
<path d="M50.4303 81.6247C50.1743 81.8864 49.869 82.0948 49.5319 82.2377C49.1949 82.3806 48.8328 82.4553 48.4667 82.4574C48.1006 82.4594 47.7377 82.3888 47.3991 82.2497C47.0605 82.1106 46.7528 81.9056 46.4939 81.6468L41 76.1621" stroke="#3DD3F2" stroke-width="3" stroke-linecap="round" stroke-linejoin="round"/>
<path d="M71.522 53.1953L56.5 73.2259" stroke="#3DD3F2" stroke-width="3" stroke-linecap="round" stroke-linejoin="round"/>
</svg>
