<svg width="230" height="162" viewBox="0 0 230 162" fill="none" xmlns="http://www.w3.org/2000/svg">
<path d="M116.747 155.997C155.615 155.997 187.123 153.935 187.123 151.391C187.123 148.846 155.615 146.784 116.747 146.784C77.8795 146.784 46.3711 148.846 46.3711 151.391C46.3711 153.935 77.8795 155.997 116.747 155.997Z" fill="#CFC7FF"/>
<path d="M163.168 149.281H160.782C159.285 148.62 157.81 147.717 156.555 146.661C155.499 145.773 153.404 142.808 154.987 141.259C155.599 140.663 156.67 140.805 157.466 141.107C158.729 141.586 159.509 142.822 160.204 143.981C160.398 144.305 160.594 144.646 160.787 144.992C161.582 146.408 162.376 147.952 163.168 149.281Z" fill="#4132A0"/>
<path d="M155.435 143.498C156.786 143.512 157.946 144.401 158.997 145.248C159.292 145.486 159.59 145.737 159.894 145.994C160.809 146.775 161.748 147.624 162.664 148.409C162.038 147.302 161.413 146.107 160.787 144.992C160.593 144.646 160.398 144.305 160.204 143.981C159.509 142.821 158.728 141.586 157.465 141.107C156.67 140.805 155.597 140.661 154.987 141.259C154.351 141.88 154.309 142.73 154.553 143.581C154.848 143.52 155.152 143.495 155.435 143.498ZM172.225 132.919C171.92 134.131 171.326 135.246 170.824 136.389C170.318 137.541 169.847 138.756 169.444 140C168.463 143.016 167.861 146.229 168.014 149.28H165.016C164.318 147.076 164.819 144.87 164.782 142.558C164.767 141.637 164.807 140.717 164.859 139.796C164.875 139.499 164.893 139.2 164.912 138.903C165.116 135.594 165.381 132.102 167.261 129.374C167.628 128.842 168.073 128.333 168.665 128.076C169.807 127.578 171.225 128.225 171.876 129.288C172.527 130.354 172.533 131.711 172.225 132.919Z" fill="#5647B2"/>
<path d="M171.876 129.289C171.225 128.226 169.807 127.58 168.665 128.078C168.524 128.139 168.391 128.216 168.266 128.302C168.674 128.545 169.03 128.888 169.276 129.288C169.927 130.354 169.933 131.711 169.625 132.919C169.32 134.131 168.726 135.246 168.224 136.389C167.718 137.541 167.247 138.756 166.844 140C165.863 143.016 165.261 146.229 165.414 149.28H168.016C167.861 146.23 168.463 143.016 169.446 140C169.851 138.755 170.32 137.54 170.825 136.389C171.33 135.246 171.922 134.131 172.227 132.919C172.534 131.711 172.527 130.354 171.876 129.289Z" fill="#4132A0"/>
<path d="M178.531 137.217C178.331 137.641 178.026 138.005 177.714 138.351C176.275 139.958 174.629 141.374 173.262 143.039C172.994 143.37 172.734 143.728 172.49 144.109C171.835 145.135 171.297 146.321 170.996 147.508C170.91 147.835 170.844 148.163 170.798 148.487C170.761 148.755 170.736 149.021 170.728 149.281H167.763C167.649 147.464 167.883 145.378 168.161 144.121C168.488 142.648 168.896 141.272 169.443 140.002C170.409 137.744 171.817 135.818 173.99 134.258C174.476 133.912 175 133.599 175.58 133.48C176.543 133.279 177.602 133.665 178.211 134.435C178.82 135.206 178.95 136.328 178.531 137.217Z" fill="#362795"/>
<path d="M178.212 134.433C177.628 133.694 176.628 133.311 175.698 133.459C176.483 133.601 177.205 134.102 177.589 134.804C178.06 135.668 177.999 136.796 177.438 137.602C177.17 137.985 176.807 138.294 176.441 138.583C174.753 139.924 172.893 141.043 171.264 142.454C170.944 142.734 170.629 143.044 170.324 143.378C169.506 144.28 168.777 145.36 168.28 146.478C168.14 146.787 168.02 147.099 167.921 147.41C167.848 147.643 167.786 147.872 167.735 148.102C167.732 148.5 167.739 148.897 167.762 149.281H170.727C170.737 149.021 170.76 148.757 170.797 148.487C170.845 148.163 170.909 147.835 170.995 147.508C171.296 146.321 171.834 145.135 172.489 144.109C172.733 143.729 172.991 143.37 173.261 143.039C174.628 141.374 176.274 139.958 177.713 138.351C178.024 138.005 178.33 137.641 178.53 137.217C178.95 136.328 178.82 135.206 178.212 134.433Z" fill="#2B1D87"/>
<path d="M178.421 145.987C177.12 146.649 175.653 146.892 174.283 147.385C172.912 147.879 171.396 147.92 170.88 149.281H169.608C169.91 147.314 170.988 145.459 172.488 144.109C173.795 142.931 175.422 142.135 177.141 141.971C177.731 141.915 178.338 141.926 178.894 142.131C179.447 142.339 179.942 142.774 180.102 143.346C180.407 144.437 179.427 145.474 178.421 145.987Z" fill="#5647B2"/>
<path d="M180.103 143.345C179.943 142.773 179.449 142.337 178.896 142.13C178.82 142.101 178.743 142.077 178.665 142.057C178.684 142.104 178.704 142.152 178.717 142.202C179.021 143.292 178.041 144.332 177.035 144.845C175.734 145.506 174.267 145.749 172.897 146.242C171.951 146.583 170.935 146.708 170.229 147.201C169.93 147.867 169.718 148.568 169.608 149.283H170.88C171.396 147.92 172.912 147.881 174.283 147.386C175.653 146.895 177.12 146.651 178.421 145.989C179.427 145.474 180.407 144.437 180.103 143.345Z" fill="#4132A0"/>
<path d="M165.015 149.281H162.723C162.054 147.891 161.382 146.456 160.787 144.993C159.605 142.082 158.715 139.048 158.732 135.987C158.735 135.295 158.787 134.588 159.069 133.954C159.347 133.321 159.883 132.767 160.563 132.631C161.298 132.482 162.067 132.85 162.576 133.4C163.086 133.954 163.386 134.664 163.645 135.371C164.17 136.799 164.574 138.286 164.859 139.799C165.446 142.925 165.509 146.17 165.015 149.281Z" fill="#362795"/>
<path d="M164.858 139.798C164.574 138.284 164.17 136.797 163.644 135.37C163.384 134.662 163.086 133.952 162.575 133.399C162.398 133.208 162.188 133.039 161.961 132.906C162.055 133.024 162.138 133.15 162.21 133.28C162.571 133.94 162.689 134.703 162.769 135.452C162.932 136.964 162.964 138.505 162.873 140.042C162.736 142.368 162.31 144.683 161.608 146.895C161.973 147.702 162.347 148.498 162.723 149.281H165.015C165.509 146.17 165.446 142.924 164.858 139.798Z" fill="#2B1D87"/>
<path d="M161.619 149.281H161.281C161.248 149.182 161.207 149.081 161.163 148.981C160.636 147.727 159.894 146.527 159.034 145.478C158.187 144.445 157.187 143.549 156.027 142.889C155.853 142.79 156.009 142.525 156.182 142.622C156.852 143.002 157.479 143.463 158.047 143.983C159.072 144.916 159.921 146.035 160.615 147.228C160.991 147.869 161.362 148.561 161.619 149.281ZM169.131 132.503C168.603 134.008 168.149 135.537 167.775 137.084C167.111 139.831 166.694 142.636 166.527 145.457C166.45 146.73 166.426 148.007 166.456 149.28H166.144C166.144 149.227 166.141 149.175 166.141 149.123C166.092 146.293 166.296 143.463 166.743 140.665C167.19 137.862 167.891 135.1 168.831 132.422C168.9 132.234 169.195 132.314 169.131 132.503ZM177.378 143.809C176.489 143.917 175.613 144.173 174.8 144.556C173.343 145.245 172.092 146.333 171.233 147.702C171.077 147.955 170.932 148.218 170.798 148.487C170.672 148.746 170.561 149.011 170.461 149.281H170.131C170.353 148.66 170.643 148.065 170.996 147.508C171.505 146.705 172.141 145.987 172.886 145.392C174.179 144.359 175.739 143.701 177.378 143.5C177.575 143.475 177.572 143.783 177.378 143.809ZM163.715 149.281H163.406C163.313 144.831 162.474 140.407 160.931 136.232C160.863 136.043 161.162 135.964 161.231 136.149C161.678 137.366 162.071 138.603 162.401 139.853C163.209 142.928 163.651 146.1 163.715 149.281ZM175.191 137.098C173.968 137.533 173.162 138.674 172.471 139.712C171.159 141.674 170.159 143.839 169.503 146.111C169.203 147.148 168.976 148.211 168.82 149.281H168.512C168.52 149.199 168.534 149.118 168.546 149.035C168.906 146.63 169.648 144.286 170.729 142.108C171.272 141.011 171.903 139.958 172.616 138.962C173.265 138.058 174.033 137.182 175.11 136.802C175.299 136.733 175.38 137.032 175.191 137.098Z" fill="#271C6B"/>
<path d="M63.2227 150.913H66.0808C67.8732 150.122 69.6404 149.042 71.1428 147.776C72.4075 146.715 74.9183 143.163 73.0213 141.308C72.2894 140.594 71.0062 140.765 70.0518 141.127C68.5393 141.701 67.6034 143.181 66.7721 144.568C66.5394 144.956 66.3067 145.363 66.074 145.778C65.1213 147.472 64.172 149.322 63.2227 150.913Z" fill="#4132A0"/>
<path d="M72.4818 143.989C70.8647 144.005 69.4752 145.071 68.2156 146.085C67.8632 146.369 67.504 146.671 67.1415 146.98C66.0455 147.916 64.9208 148.932 63.823 149.87C64.5717 148.544 65.3204 147.115 66.0691 145.778C66.3018 145.363 66.5345 144.956 66.7672 144.568C67.5985 143.181 68.5343 141.701 70.0469 141.127C71.0013 140.765 72.2845 140.594 73.0163 141.308C73.7768 142.052 73.8274 143.07 73.5356 144.089C73.1849 144.016 72.8207 143.986 72.4818 143.989ZM52.3787 131.321C52.7446 132.771 53.4545 134.107 54.0565 135.476C54.6635 136.856 55.225 138.311 55.7089 139.801C56.8842 143.412 57.6059 147.26 57.4205 150.911H61.0104C61.8468 148.274 61.2465 145.631 61.292 142.864C61.3106 141.762 61.2633 140.658 61.1993 139.556C61.1807 139.2 61.1588 138.842 61.1369 138.486C60.8924 134.524 60.5754 130.343 58.3226 127.076C57.8825 126.439 57.3496 125.828 56.6397 125.521C55.2722 124.926 53.5742 125.699 52.7952 126.973C52.0161 128.25 52.0077 129.875 52.3787 131.321Z" fill="#5647B2"/>
<path d="M52.7959 126.974C53.5766 125.702 55.2729 124.929 56.6405 125.525C56.8108 125.599 56.9693 125.69 57.1193 125.795C56.6303 126.087 56.2054 126.495 55.9103 126.976C55.1296 128.252 55.1229 129.877 55.4921 131.323C55.8581 132.772 56.568 134.109 57.1699 135.477C57.777 136.858 58.3385 138.312 58.8224 139.803C59.9977 143.414 60.7194 147.261 60.5339 150.913H57.4178C57.6033 147.261 56.8816 143.414 55.7063 139.803C55.2223 138.311 54.6592 136.858 54.0538 135.477C53.4518 134.109 52.7419 132.772 52.376 131.323C52.0084 129.875 52.0169 128.25 52.7959 126.974Z" fill="#4132A0"/>
<path d="M44.8245 136.468C45.0656 136.974 45.4316 137.411 45.8042 137.827C47.5275 139.75 49.497 141.445 51.136 143.439C51.4581 143.836 51.7684 144.264 52.0601 144.72C52.8442 145.949 53.4866 147.369 53.8492 148.79C53.952 149.182 54.0296 149.575 54.0852 149.963C54.1291 150.285 54.1594 150.603 54.1695 150.915H57.719C57.8556 148.74 57.574 146.242 57.2418 144.735C56.8506 142.97 56.3616 141.323 55.7074 139.803C54.5506 137.098 52.8644 134.792 50.2609 132.924C49.6808 132.509 49.0519 132.136 48.3571 131.991C47.2038 131.75 45.9357 132.214 45.2073 133.134C44.4805 134.06 44.3254 135.403 44.8245 136.468Z" fill="#362795"/>
<path d="M45.2095 133.135C45.9093 132.251 47.1048 131.79 48.2211 131.969C47.2801 132.14 46.4151 132.739 45.9565 133.579C45.3933 134.614 45.4658 135.964 46.1369 136.931C46.459 137.39 46.8923 137.759 47.3307 138.105C49.3525 139.712 51.58 141.051 53.5293 142.741C53.912 143.076 54.2914 143.448 54.6557 143.848C55.6354 144.926 56.5071 146.219 57.104 147.558C57.2727 147.928 57.4143 148.301 57.534 148.676C57.6217 148.954 57.6942 149.231 57.7549 149.504C57.76 149.98 57.7499 150.456 57.7212 150.917H54.1717C54.1599 150.606 54.1312 150.287 54.0874 149.965C54.0318 149.577 53.9542 149.183 53.8513 148.792C53.4888 147.371 52.8463 145.95 52.0623 144.722C51.7705 144.266 51.4603 143.837 51.1382 143.441C49.5009 141.446 47.5297 139.752 45.8064 137.828C45.4337 137.413 45.0661 136.978 44.8267 136.47C44.3259 135.403 44.481 134.06 45.2095 133.135Z" fill="#2B1D87"/>
<path d="M44.958 146.969C46.5143 147.761 48.2714 148.053 49.9121 148.642C51.5528 149.234 53.3688 149.281 53.986 150.913H55.5086C55.1461 148.556 53.8561 146.337 52.0586 144.72C50.4955 143.311 48.5462 142.356 46.4874 142.16C45.7808 142.094 45.0524 142.104 44.388 142.352C43.727 142.6 43.1352 143.122 42.9429 143.807C42.5804 145.111 43.7523 146.355 44.958 146.969Z" fill="#5647B2"/>
<path d="M42.9429 143.805C43.1352 143.12 43.727 142.599 44.388 142.351C44.4791 142.317 44.5701 142.288 44.6646 142.263C44.6426 142.32 44.619 142.376 44.6022 142.437C44.2396 143.743 45.4116 144.987 46.6172 145.601C48.1736 146.392 49.9306 146.684 51.5713 147.273C52.7044 147.682 53.9185 147.832 54.7667 148.421C55.1242 149.219 55.3788 150.058 55.5103 150.913H53.9877C53.3705 149.281 51.5544 149.234 49.9138 148.642C48.2714 148.053 46.516 147.761 44.9596 146.969C43.7523 146.355 42.5804 145.111 42.9429 143.805Z" fill="#4132A0"/>
<path d="M61.0112 150.913H63.7547C64.5573 149.248 65.3599 147.531 66.0732 145.778C67.4896 142.293 68.5536 138.659 68.5351 134.993C68.5317 134.165 68.4693 133.318 68.1321 132.558C67.7999 131.801 67.1558 131.137 66.343 130.975C65.4628 130.798 64.5421 131.239 63.9317 131.897C63.3213 132.558 62.9621 133.41 62.6519 134.258C62.0229 135.967 61.539 137.747 61.1983 139.56C60.4935 143.303 60.421 147.187 61.0112 150.913Z" fill="#362795"/>
<path d="M61.1999 139.558C61.5405 137.746 62.0244 135.965 62.6534 134.256C62.9637 133.409 63.3228 132.558 63.9332 131.895C64.1457 131.666 64.3953 131.465 64.6684 131.304C64.5555 131.446 64.456 131.598 64.37 131.753C63.9383 132.545 63.7967 133.456 63.7005 134.354C63.5049 136.164 63.4662 138.009 63.5758 139.85C63.7393 142.634 64.2503 145.407 65.09 148.056C64.6549 149.023 64.2047 149.977 63.7545 150.913H61.011C60.4209 147.187 60.4934 143.303 61.1999 139.558Z" fill="#2B1D87"/>
<path d="M65.0775 150.913H65.4805C65.521 150.795 65.5699 150.672 65.6205 150.554C66.2528 149.052 67.1397 147.616 68.1717 146.359C69.1851 145.123 70.3823 144.05 71.7735 143.259C71.9809 143.141 71.7954 142.822 71.588 142.94C70.7853 143.395 70.035 143.946 69.3554 144.568C68.1279 145.685 67.1111 147.025 66.2798 148.453C65.8279 149.222 65.3844 150.051 65.0775 150.913ZM56.0832 130.822C56.7155 132.624 57.2585 134.455 57.7054 136.31C58.4996 139.599 58.9987 142.958 59.1993 146.337C59.2921 147.861 59.3207 149.389 59.2837 150.913H59.6563C59.6563 150.851 59.6597 150.787 59.6597 150.724C59.7187 147.336 59.4742 143.946 58.938 140.598C58.4018 137.241 57.562 133.934 56.439 130.726C56.3598 130.501 56.0056 130.597 56.0832 130.822ZM46.207 144.361C47.271 144.491 48.3216 144.798 49.2945 145.257C51.0397 146.082 52.5371 147.385 53.564 149.023C53.7529 149.327 53.9265 149.641 54.085 149.963C54.2368 150.274 54.37 150.593 54.4881 150.915H54.8843C54.6179 150.171 54.2705 149.457 53.849 148.79C53.2386 147.828 52.4781 146.97 51.5861 146.256C50.0364 145.02 48.1698 144.232 46.207 143.991C45.971 143.961 45.9743 144.332 46.207 144.361ZM62.5667 150.913H62.936C63.0473 145.586 64.0523 140.287 65.9004 135.289C65.9813 135.063 65.6238 134.966 65.5412 135.189C65.005 136.647 64.5362 138.127 64.14 139.626C63.1738 143.306 62.6443 147.106 62.5667 150.913ZM48.824 136.325C50.2877 136.846 51.2539 138.211 52.0818 139.455C53.6534 141.804 54.8506 144.398 55.6347 147.118C55.9938 148.362 56.267 149.634 56.4525 150.915H56.8218C56.81 150.815 56.7965 150.719 56.7813 150.62C56.3479 147.741 55.461 144.933 54.1677 142.324C53.5168 141.011 52.7631 139.749 51.9081 138.557C51.1325 137.474 50.2118 136.426 48.9202 135.97C48.6959 135.888 48.5998 136.247 48.824 136.325Z" fill="#271C6B"/>
<path d="M43.1891 78.6882C45.8938 58.9681 71.0286 42.3259 91.4031 50.1863C102.396 54.427 109.653 65.4447 108.243 76.5046C106.109 93.2648 93.9476 88.0977 82.5404 92.1224C75.6066 94.5692 74.1278 101.631 66.5584 104.622C54.4294 109.412 40.9043 95.3506 43.1891 78.6882ZM111.719 83.8891C110.046 88.7693 106.937 93.1349 105.923 98.194C103.129 112.141 115.703 122.126 129.267 117.97C133.122 116.789 135.594 115.857 140.539 113.618C158.152 105.641 171.281 120.877 178.301 100.664C183.074 86.9198 169.79 71.8454 153.812 69.7731C145.996 68.7606 139.422 71.8724 132.651 69.3766C126.896 67.2537 123.016 60.7804 115.187 63.1024C113.823 63.5074 110.646 65.7265 112.221 70.0178C113.838 74.4205 113.241 79.4476 111.719 83.8891ZM109.663 41.8804C120.878 44.6463 121.991 56.6022 131.645 61.5347C141.297 66.469 158.597 63.0721 162.988 54.8877C178.857 25.3075 135.44 -3.64325 101.709 9.08219C84.2198 15.6803 73.6321 36.1632 90.7944 43.9594C97.632 47.0661 103.648 40.3971 109.663 41.8804Z" fill="#CFC7FF"/>
<path d="M80.4727 131.858H118.311V116.522H80.4727C82.1875 121.633 82.1875 126.747 80.4727 131.858Z" fill="white"/>
<path d="M118.312 116.522H111.823L111.817 116.532C111.817 116.532 117.482 128.596 98.6084 131.858H118.314V116.522H118.312Z" fill="#DDD8FF"/>
<path d="M108.67 120.909H84.7291C84.4037 120.909 84.1406 120.736 84.1406 120.523C84.1406 120.31 84.4037 120.136 84.7291 120.136H108.67C108.995 120.136 109.259 120.309 109.259 120.523C109.259 120.737 108.994 120.909 108.67 120.909ZM108.67 124.656H93.7622C93.4367 124.656 93.1737 124.483 93.1737 124.269C93.1737 124.057 93.4367 123.883 93.7622 123.883H108.67C108.995 123.883 109.259 124.055 109.259 124.269C109.259 124.482 108.994 124.656 108.67 124.656ZM90.8315 124.656H84.4576C84.1322 124.656 83.8691 124.483 83.8691 124.269C83.8691 124.057 84.1322 123.883 84.4576 123.883H90.8315C91.157 123.883 91.42 124.055 91.42 124.269C91.42 124.482 91.157 124.656 90.8315 124.656ZM103.188 128.243H96.8142C96.4888 128.243 96.2257 128.071 96.2257 127.857C96.2257 127.644 96.4888 127.47 96.8142 127.47H103.188C103.514 127.47 103.777 127.642 103.777 127.857C103.777 128.069 103.512 128.243 103.188 128.243ZM93.0405 128.243H91.0221C90.6966 128.243 90.4336 128.071 90.4336 127.857C90.4336 127.644 90.6966 127.47 91.0221 127.47H93.0422C93.3676 127.47 93.6307 127.642 93.6307 127.857C93.629 128.069 93.3659 128.243 93.0405 128.243ZM87.54 128.243H85.5199C85.1945 128.243 84.9315 128.071 84.9315 127.857C84.9315 127.644 85.1945 127.47 85.5199 127.47H87.54C87.8655 127.47 88.1285 127.642 88.1285 127.857C88.1285 128.069 87.8638 128.243 87.54 128.243Z" fill="#DDD8FF"/>
<path d="M154.975 115.452C156.618 115.452 157.95 116.785 157.95 118.429V129.953C157.95 131.596 156.618 132.93 154.975 132.93H108.289C121.779 130.23 121.229 118.156 108.289 115.452H154.975Z" fill="#5338FF"/>
<path d="M154.975 132.928H129.438C154.778 130.285 155.952 119.804 155.306 115.471C156.793 115.634 157.95 116.895 157.95 118.427V129.951C157.95 131.596 156.618 132.928 154.975 132.928Z" fill="#C4BDF2"/>
<path d="M128.164 129.141C130.569 129.141 132.518 127.19 132.518 124.784C132.518 122.378 130.569 120.427 128.164 120.427C125.76 120.427 123.811 122.378 123.811 124.784C123.811 127.19 125.76 129.141 128.164 129.141Z" fill="white"/>
<path d="M80.473 132.901H110.705C115.504 132.901 119.409 128.993 119.409 124.19C119.409 119.387 115.504 115.479 110.705 115.479H80.473C79.898 115.479 79.4326 115.945 79.4326 116.52C79.4326 117.096 79.898 117.561 80.473 117.561H110.705C114.356 117.561 117.327 120.535 117.327 124.188C117.327 127.842 114.356 130.815 110.705 130.815H80.473C79.898 130.815 79.4326 131.281 79.4326 131.856C79.4309 132.433 79.898 132.901 80.473 132.901Z" fill="#4124F9"/>
<path d="M141.887 115.452H144.148C145.882 121.296 146.001 127.123 144.158 132.93H141.897C143.74 127.121 143.622 121.296 141.887 115.452ZM136.742 115.452H139.003C140.737 121.296 140.857 127.123 139.014 132.93H136.752C138.595 127.121 138.477 121.296 136.742 115.452ZM100.01 149.011H151.906L151.306 146.421C150.512 142.99 150.512 139.425 151.306 135.994L151.906 133.404H100.01C95.7031 133.404 92.2109 136.899 92.2109 141.208C92.2109 145.517 95.7014 149.011 100.01 149.011Z" fill="white"/>
<path d="M98.8901 133.442C95.1129 133.986 92.2109 137.236 92.2109 141.166C92.2109 145.476 95.7031 148.971 100.01 148.971H115.631C101.433 146.757 97.0285 140.562 98.8901 133.442Z" fill="#DDD8FF"/>
<path d="M115.167 143.269L116.867 142.302L118.568 143.269V139.143H115.167V143.269Z" fill="#5D47E6"/>
<path d="M121.232 138.89H147.289C147.439 138.89 147.563 138.768 147.563 138.616C147.563 138.466 147.441 138.343 147.289 138.343H121.232C121.082 138.343 120.959 138.465 120.959 138.616C120.959 138.768 121.081 138.89 121.232 138.89ZM107.06 144.069H136.533C136.683 144.069 136.806 143.947 136.806 143.795C136.806 143.645 136.685 143.522 136.533 143.522H107.06C106.91 143.522 106.786 143.643 106.786 143.795C106.786 143.946 106.908 144.069 107.06 144.069ZM121.232 141.536H137.722C137.872 141.536 137.995 141.414 137.995 141.262C137.995 141.112 137.874 140.989 137.722 140.989H121.232C121.082 140.989 120.959 141.111 120.959 141.262C120.959 141.413 121.081 141.536 121.232 141.536ZM140.123 141.536H147.574C147.724 141.536 147.848 141.414 147.848 141.262C147.848 141.112 147.726 140.989 147.574 140.989H140.123C139.973 140.989 139.85 141.111 139.85 141.262C139.852 141.413 139.973 141.536 140.123 141.536ZM105.748 141.536H113.197C113.348 141.536 113.471 141.414 113.471 141.262C113.471 141.112 113.349 140.989 113.197 140.989H105.748C105.598 140.989 105.475 141.111 105.475 141.262C105.476 141.413 105.598 141.536 105.748 141.536ZM110.36 139.163H113.199C113.349 139.163 113.472 139.042 113.472 138.89C113.472 138.74 113.351 138.616 113.199 138.616H110.36C110.21 138.616 110.086 138.738 110.086 138.89C110.086 139.042 110.21 139.163 110.36 139.163ZM139.12 144.069H141.959C142.109 144.069 142.232 143.947 142.232 143.795C142.232 143.645 142.111 143.522 141.959 143.522H139.12C138.97 143.522 138.847 143.643 138.847 143.795C138.848 143.946 138.97 144.069 139.12 144.069Z" fill="#DDD8FF"/>
<path d="M100.834 149.54H81.1357C77.9571 149.54 75.3789 146.961 75.3789 143.778V138.633C75.3789 135.452 77.9571 132.872 81.1357 132.872H100.834C96.6606 133.348 93.4063 136.904 93.4063 141.203C93.4063 145.508 96.6606 149.064 100.834 149.54Z" fill="#120087"/>
<path d="M101.335 148.697C81.8526 148.917 76.8748 139.983 75.7114 136.725C75.5006 137.324 75.3809 137.963 75.3809 138.633V143.778C75.3809 146.959 77.9574 149.538 81.1359 149.538H103.102C102.473 149.283 101.885 148.999 101.335 148.697Z" fill="#DFDCF4"/>
<path d="M153.417 149.594H101.787C97.1665 149.594 93.4062 145.83 93.4062 141.207C93.4062 136.583 97.1665 132.82 101.787 132.82H153.415C153.737 132.82 153.997 133.08 153.997 133.402C153.997 133.724 153.737 133.984 153.415 133.984H101.787C97.8073 133.984 94.5697 137.224 94.5697 141.207C94.5697 145.189 97.8073 148.429 101.787 148.429H153.415C153.737 148.429 153.997 148.689 153.997 149.011C153.997 149.334 153.737 149.594 153.417 149.594Z" fill="#0F0072"/>
<path d="M84.1781 114.06H139.274L138.678 111.257C137.887 107.538 137.887 103.695 138.678 99.976L139.274 97.1731H84.1781C79.519 97.1731 75.7402 100.953 75.7402 105.617C75.7419 110.28 79.519 114.06 84.1781 114.06Z" fill="white"/>
<path d="M119.385 102.734H86.9626C86.7754 102.734 86.6236 102.582 86.6236 102.394C86.6236 102.207 86.7754 102.055 86.9626 102.055H119.385C119.572 102.055 119.724 102.207 119.724 102.394C119.724 102.582 119.572 102.734 119.385 102.734ZM119.385 106.026H98.8689C98.6818 106.026 98.53 105.874 98.53 105.687C98.53 105.499 98.6818 105.347 98.8689 105.347H119.385C119.572 105.347 119.724 105.499 119.724 105.687C119.724 105.874 119.572 106.026 119.385 106.026ZM95.8793 106.026H86.6085C86.4213 106.026 86.2695 105.874 86.2695 105.687C86.2695 105.499 86.4213 105.347 86.6085 105.347H95.8793C96.0665 105.347 96.2182 105.499 96.2182 105.687C96.2182 105.872 96.0665 106.026 95.8793 106.026ZM134.101 106.026H124.83C124.643 106.026 124.491 105.874 124.491 105.687C124.491 105.499 124.643 105.347 124.83 105.347H134.101C134.288 105.347 134.44 105.499 134.44 105.687C134.44 105.872 134.288 106.026 134.101 106.026ZM130.631 103.074H127.098C126.911 103.074 126.759 102.923 126.759 102.735C126.759 102.548 126.911 102.396 127.098 102.396H130.631C130.818 102.396 130.969 102.548 130.969 102.735C130.969 102.921 130.818 103.074 130.631 103.074ZM102.164 109.176H98.6295C98.4423 109.176 98.2906 109.025 98.2906 108.837C98.2906 108.65 98.4423 108.498 98.6295 108.498H102.164C102.351 108.498 102.503 108.65 102.503 108.837C102.503 109.025 102.351 109.176 102.164 109.176ZM114.031 109.176H104.761C104.573 109.176 104.422 109.025 104.422 108.837C104.422 108.65 104.573 108.498 104.761 108.498H114.031C114.219 108.498 114.37 108.65 114.37 108.837C114.37 109.025 114.219 109.176 114.031 109.176ZM131.049 109.176H121.778C121.591 109.176 121.439 109.025 121.439 108.837C121.439 108.65 121.591 108.498 121.778 108.498H131.049C131.236 108.498 131.388 108.65 131.388 108.837C131.388 109.025 131.236 109.176 131.049 109.176ZM119.028 109.176H115.495C115.308 109.176 115.156 109.025 115.156 108.837C115.156 108.65 115.308 108.498 115.495 108.498H119.028C119.215 108.498 119.367 108.65 119.367 108.837C119.367 109.025 119.215 109.176 119.028 109.176Z" fill="#DDD8FF"/>
<path d="M83.0717 97.1731C80.4631 105.292 85.3312 112.42 102.32 114.539V114.993H83.0717C79.0737 114.993 75.8311 111.75 75.8311 107.747V104.419C75.8327 100.416 79.0737 97.1731 83.0717 97.1731Z" fill="#DDD8FF"/>
<path d="M83.9742 115.479H140.658C141.159 115.479 141.614 115.138 141.714 114.647C141.85 113.971 141.338 113.377 140.685 113.377H84.1378C79.9188 113.377 76.3474 110.072 76.221 105.85C76.0911 101.464 79.6187 98.4168 83.9725 98.4168H140.656C141.157 98.4168 141.612 98.076 141.712 97.5849C141.849 96.9082 141.336 96.3142 140.683 96.3142H84.158C78.7756 96.3142 74.2481 99.993 74.1199 105.378C73.9901 110.925 78.4603 115.479 83.9742 115.479Z" fill="#4731D3"/>
<path d="M79.1289 81.6463H111.732C113.494 77.7937 113.494 73.9378 111.732 70.0852H79.1289C80.891 73.9361 80.891 77.792 79.1289 81.6463Z" fill="#DDD8FF"/>
<path d="M111.732 81.6462H148.839C152.03 81.6462 154.616 79.0576 154.616 75.8649C154.616 72.6721 152.03 70.0835 148.839 70.0835H111.732C113.586 73.9361 113.586 77.792 111.732 81.6462Z" fill="white"/>
<path d="M150.756 70.4177C153.002 71.2108 154.614 73.3472 154.614 75.865C154.614 79.0577 152.027 81.6463 148.837 81.6463H142.773C151.581 78.786 151.194 72.5929 150.756 70.4177Z" fill="#DDD8FF"/>
<path d="M149.842 83.0166C152.478 83.0166 154.722 81.049 155.063 78.4418C155.291 76.7037 155.307 74.9858 155.114 73.3354C154.805 70.6995 152.557 68.7117 149.886 68.7117H78.3671C77.8831 68.7117 77.4902 69.1049 77.4902 69.5892C77.4902 70.0735 77.8831 70.4667 78.3671 70.4667H149.888C151.67 70.4667 153.169 71.788 153.373 73.5396C153.549 75.0465 153.534 76.6193 153.324 78.214C153.097 79.9504 151.601 81.2616 149.842 81.2616H78.3671C77.8831 81.2616 77.4902 81.6548 77.4902 82.1391C77.4902 82.6234 77.8831 83.0166 78.3671 83.0166H149.842Z" fill="#7764F0"/>
<path d="M122.253 76.4016L123.674 75.5933L125.096 76.4016V72.9524H122.253V76.4016Z" fill="#5D47E6"/>
<path d="M127.323 74.2772H149.106C149.232 74.2772 149.334 74.1759 149.334 74.0493C149.334 73.9228 149.232 73.8215 149.106 73.8215H127.323C127.197 73.8215 127.096 73.9245 127.096 74.0493C127.096 74.1759 127.197 74.2772 127.323 74.2772ZM115.476 78.6056H140.115C140.241 78.6056 140.343 78.5043 140.343 78.3778C140.343 78.2512 140.24 78.15 140.115 78.15H115.476C115.35 78.15 115.248 78.2512 115.248 78.3778C115.248 78.5043 115.35 78.6056 115.476 78.6056ZM127.323 76.4878H141.107C141.233 76.4878 141.334 76.3865 141.334 76.26C141.334 76.1334 141.233 76.0322 141.107 76.0322H127.323C127.197 76.0322 127.096 76.1351 127.096 76.26C127.096 76.3865 127.197 76.4878 127.323 76.4878ZM143.115 76.4878H149.344C149.47 76.4878 149.571 76.3865 149.571 76.26C149.571 76.1334 149.47 76.0322 149.344 76.0322H143.115C142.988 76.0322 142.887 76.1334 142.887 76.26C142.887 76.3865 142.99 76.4878 143.115 76.4878ZM114.38 76.4878H120.609C120.735 76.4878 120.837 76.3865 120.837 76.26C120.837 76.1334 120.735 76.0322 120.609 76.0322H114.38C114.254 76.0322 114.152 76.1334 114.152 76.26C114.152 76.3865 114.254 76.4878 114.38 76.4878ZM118.235 74.505H120.609C120.735 74.505 120.837 74.4037 120.837 74.2772C120.837 74.1506 120.734 74.0493 120.609 74.0493H118.235C118.108 74.0493 118.007 74.1506 118.007 74.2772C118.007 74.4037 118.108 74.505 118.235 74.505ZM142.277 78.6056H144.651C144.777 78.6056 144.879 78.5043 144.879 78.3778C144.879 78.2512 144.776 78.15 144.651 78.15H142.277C142.15 78.15 142.049 78.2512 142.049 78.3778C142.049 78.5043 142.15 78.6056 142.277 78.6056Z" fill="#DDD8FF"/>
<path d="M102.06 75.0989H81.8763C81.7599 75.0989 81.6655 75.0044 81.6655 74.8879C81.6655 74.7715 81.7599 74.677 81.8763 74.677H102.059C102.175 74.677 102.269 74.7715 102.269 74.8879C102.271 75.0044 102.177 75.0989 102.06 75.0989ZM102.06 77.1475H89.2889C89.1725 77.1475 89.0781 77.053 89.0781 76.9366C89.0781 76.8201 89.1725 76.7256 89.2889 76.7256H102.06C102.177 76.7256 102.271 76.8201 102.271 76.9366C102.271 77.053 102.177 77.1475 102.06 77.1475ZM87.4273 77.1475H81.6571C81.5407 77.1475 81.4463 77.053 81.4463 76.9366C81.4463 76.8201 81.5407 76.7256 81.6571 76.7256H87.4273C87.5436 76.7256 87.6381 76.8201 87.6381 76.9366C87.6381 77.053 87.5436 77.1475 87.4273 77.1475ZM111.22 77.1475H105.45C105.333 77.1475 105.239 77.053 105.239 76.9366C105.239 76.8201 105.333 76.7256 105.45 76.7256H111.22C111.336 76.7256 111.431 76.8201 111.431 76.9366C111.432 77.053 111.338 77.1475 111.22 77.1475ZM109.061 75.3115H106.863C106.746 75.3115 106.652 75.217 106.652 75.1006C106.652 74.9841 106.746 74.8896 106.863 74.8896H109.061C109.178 74.8896 109.272 74.9841 109.272 75.1006C109.272 75.2153 109.178 75.3115 109.061 75.3115ZM91.3393 79.1101H89.1405C89.0241 79.1101 88.9297 79.0156 88.9297 78.8991C88.9297 78.7827 89.0241 78.6882 89.1405 78.6882H91.3393C91.4557 78.6882 91.5501 78.7827 91.5501 78.8991C91.5501 79.0156 91.4557 79.1101 91.3393 79.1101ZM98.7266 79.1101H92.9564C92.8401 79.1101 92.7456 79.0156 92.7456 78.8991C92.7456 78.7827 92.8401 78.6882 92.9564 78.6882H98.7266C98.843 78.6882 98.9374 78.7827 98.9374 78.8991C98.9391 79.0156 98.843 79.1101 98.7266 79.1101ZM109.321 79.1101H103.551C103.435 79.1101 103.34 79.0156 103.34 78.8991C103.34 78.7827 103.435 78.6882 103.551 78.6882H109.321C109.437 78.6882 109.532 78.7827 109.532 78.8991C109.532 79.0156 109.437 79.1101 109.321 79.1101ZM101.838 79.1101H99.6389C99.5225 79.1101 99.4281 79.0156 99.4281 78.8991C99.4281 78.7827 99.5225 78.6882 99.6389 78.6882H101.838C101.954 78.6882 102.048 78.7827 102.048 78.8991C102.048 79.0156 101.954 79.1101 101.838 79.1101Z" fill="white"/>
<path d="M66.8603 83.0166H120.03V96.3141H66.8603C65.0308 96.3141 63.5469 94.8291 63.5469 92.9982V86.3325C63.5469 84.5016 65.0308 83.0166 66.8603 83.0166Z" fill="#4C3DA8"/>
<path d="M115.387 83.7405H153.723C151.915 87.7905 151.819 91.7477 153.723 95.5935H115.387C113.69 95.5935 112.314 94.2165 112.314 92.5189V86.8168C112.313 85.1175 113.689 83.7405 115.387 83.7405Z" fill="white"/>
<path d="M112.312 92.4176V86.7156C112.312 85.3993 113.14 84.2788 114.302 83.8401C114.204 87.9002 115.051 93.5668 124.114 95.4923H115.385C113.688 95.4923 112.312 94.1153 112.312 92.4176Z" fill="#DDD8FF"/>
<path d="M115.157 83.0166H155.432C155.766 83.0166 156.036 83.2866 156.036 83.6207C156.036 83.9548 155.766 84.2248 155.432 84.2248H154.829H115.157C113.994 84.2248 113.051 85.1682 113.051 86.3325V92.9982C113.051 94.1625 113.994 95.1059 115.157 95.1059H154.829H155.432C155.766 95.1059 156.036 95.3758 156.036 95.71C156.036 96.0441 155.766 96.3141 155.432 96.3141H115.157C113.328 96.3141 111.844 94.8291 111.844 92.9982V86.3325C111.844 84.5016 113.326 83.0166 115.157 83.0166Z" fill="#433694"/>
<path d="M130.822 87.7484H152.393C152.518 87.7484 152.619 87.6471 152.619 87.5223C152.619 87.3974 152.518 87.2961 152.393 87.2961H130.822C130.697 87.2961 130.596 87.3974 130.596 87.5223C130.596 87.6471 130.697 87.7484 130.822 87.7484ZM130.822 89.9388H144.473C144.598 89.9388 144.699 89.8375 144.699 89.7126C144.699 89.5878 144.598 89.4865 144.473 89.4865H130.822C130.697 89.4865 130.596 89.5878 130.596 89.7126C130.596 89.8375 130.697 89.9388 130.822 89.9388ZM146.461 89.9388H152.629C152.754 89.9388 152.855 89.8375 152.855 89.7126C152.855 89.5878 152.754 89.4865 152.629 89.4865H146.461C146.336 89.4865 146.235 89.5878 146.235 89.7126C146.235 89.8375 146.336 89.9388 146.461 89.9388ZM121.03 89.9388H127.198C127.323 89.9388 127.424 89.8375 127.424 89.7126C127.424 89.5878 127.323 89.4865 127.198 89.4865H121.03C120.905 89.4865 120.804 89.5878 120.804 89.7126C120.804 89.8375 120.905 89.9388 121.03 89.9388ZM123.338 87.9745H125.689C125.813 87.9745 125.915 87.8733 125.915 87.7484C125.915 87.6235 125.813 87.5223 125.689 87.5223H123.338C123.213 87.5223 123.112 87.6235 123.112 87.7484C123.114 87.8733 123.215 87.9745 123.338 87.9745ZM142.279 92.0346H144.63C144.755 92.0346 144.856 91.9334 144.856 91.8085C144.856 91.6836 144.755 91.5824 144.63 91.5824H142.279C142.155 91.5824 142.053 91.6836 142.053 91.8085C142.053 91.9351 142.155 92.0346 142.279 92.0346ZM134.383 92.0346H140.551C140.676 92.0346 140.777 91.9334 140.777 91.8085C140.777 91.6836 140.676 91.5824 140.551 91.5824H134.383C134.258 91.5824 134.157 91.6836 134.157 91.8085C134.159 91.9351 134.258 92.0346 134.383 92.0346ZM123.062 92.0346H129.23C129.355 92.0346 129.456 91.9334 129.456 91.8085C129.456 91.6836 129.355 91.5824 129.23 91.5824H123.062C122.937 91.5824 122.836 91.6836 122.836 91.8085C122.836 91.9351 122.937 92.0346 123.062 92.0346ZM131.059 92.0346H133.41C133.535 92.0346 133.636 91.9334 133.636 91.8085C133.636 91.6836 133.535 91.5824 133.41 91.5824H131.059C130.935 91.5824 130.833 91.6836 130.833 91.8085C130.833 91.9351 130.935 92.0346 131.059 92.0346Z" fill="#DDD8FF"/>
<path d="M105.297 92.5661C106.897 92.5661 108.194 91.2681 108.194 89.6669C108.194 88.0658 106.897 86.7678 105.297 86.7678C103.697 86.7678 102.4 88.0658 102.4 89.6669C102.4 91.2681 103.697 92.5661 105.297 92.5661Z" fill="white"/>
<path d="M63.5469 87.3755V88.496H93.6037C93.9123 88.496 94.1635 88.2445 94.1635 87.9357C94.1635 87.6269 93.9123 87.3755 93.6037 87.3755H63.5469ZM63.5469 90.8349V91.9554H93.6037C93.9123 91.9554 94.1635 91.7039 94.1635 91.3951C94.1635 91.0863 93.9123 90.8349 93.6037 90.8349H63.5469Z" fill="white"/>
<path d="M66.8603 96.3158C65.0308 96.3158 63.5469 94.8308 63.5469 92.9999V86.3342C63.5469 84.5033 65.0308 83.0183 66.8603 83.0183H67.3678C69.538 86.9046 75.5797 93.7593 91.7522 96.3158H66.8603Z" fill="#C3BFD9"/>
<path d="M69.4229 150.68V152.091H71.6503V150.68H71.3249L73.2809 142.285H88.6053L86.5649 151.075H85.9967V152.486H88.2242V151.075H87.8583L89.8986 142.285L90.0959 141.436L92.551 130.857L92.7483 130.008L94.8089 121.127L95.0061 120.278L97.264 110.548L97.4613 109.699L99.7191 99.9691L99.9164 99.1203L102.174 89.3902L102.372 88.5414L104.629 78.8112L104.827 77.9624L105.341 75.7501C105.948 75.61 106.4 75.0684 106.4 74.4187C106.4 73.6627 105.788 73.0501 105.032 73.0501C104.277 73.0501 103.667 73.6627 103.667 74.4187C103.667 74.822 103.842 75.1831 104.12 75.4329L103.533 77.9641H88.268L88.8245 75.5746C89.3826 75.4025 89.7873 74.8827 89.7873 74.2685C89.7873 73.5125 89.1752 72.9016 88.4215 72.9016C87.6677 72.9016 87.0556 73.5142 87.0556 74.2685C87.0556 74.7072 87.263 75.097 87.5851 75.3485L86.9747 77.9641L86.7774 78.8129L84.5094 88.5431L84.3122 89.3919L82.0442 99.122L81.8469 99.9708L79.5789 109.701L79.3816 110.55L77.1137 120.28L76.9164 121.129L74.8457 130.01L74.6484 130.859L72.1832 141.438L71.9859 142.287L70.0299 150.682H69.4229V150.68ZM101.078 88.5431H85.8044L88.0724 78.8129H103.338L101.078 88.5431ZM98.6231 99.122H83.3392L85.6072 89.3919H100.883L98.6231 99.122ZM96.1663 109.701H80.8723L83.1402 99.9708H98.4258L96.1663 109.701ZM93.7111 120.28H78.4087L80.6767 110.55H95.9707L93.7111 120.28ZM91.4533 130.008H76.1407L78.2114 121.127H93.5155L91.4533 130.008ZM73.4765 141.436L75.9418 130.857H91.256L88.8009 141.436H73.4765Z" fill="#3D1FFC"/>
<path d="M147.692 100.565C147.52 101.014 142.23 101.375 141.497 101.348C140.763 101.321 138.753 102.139 137.686 101.852C136.617 101.565 137.251 100.143 137.266 98.9532C137.266 98.9465 137.266 98.9397 137.268 98.933L137.266 98.9245C137.7 98.1719 136.875 94.7092 136.875 94.7092L140.01 94.3987C140.086 94.7919 139.73 96.8017 140.585 97.7652C141.376 98.6545 143.099 98.5212 143.915 98.6174C143.915 98.6174 144.006 98.6276 144.159 98.6444C144.212 98.6495 144.261 98.6562 144.313 98.663C144.389 98.6714 144.473 98.6816 144.562 98.6917C144.61 98.6951 144.657 98.7018 144.704 98.7069C145.055 98.744 145.389 98.7811 145.691 98.8216C145.93 98.8537 146.148 98.8891 146.336 98.9245C148.071 99.2688 147.864 100.116 147.692 100.565Z" fill="#ACA0FA"/>
<path d="M147.692 100.565C146.986 101.282 142.231 101.375 141.497 101.348C140.764 101.321 138.76 102.114 137.686 101.852C136.492 101.56 136.865 100.124 137.266 98.9532C137.266 98.9465 137.266 98.9397 137.268 98.933C137.339 99.4713 137.949 100.291 138.907 100.325C140.195 100.367 143.804 100.219 144.291 99.554C144.763 98.9094 143.915 98.6174 143.915 98.6174C143.915 98.6174 144.006 98.6276 144.16 98.6444C144.205 98.6495 144.257 98.6545 144.313 98.663C144.389 98.6714 144.473 98.6816 144.563 98.6917C144.608 98.6967 144.655 98.7035 144.704 98.7069C144.994 98.7406 145.34 98.7811 145.691 98.8216C145.93 98.8537 146.148 98.8891 146.336 98.9245C148.072 99.2688 148.029 100.222 147.692 100.565Z" fill="#4731D3"/>
<path d="M105.926 17.366C107.199 17.128 108.653 18.5928 108.653 18.5928C109.142 20.5132 108.709 22.0184 107.149 23.1811C107.149 23.1811 105.196 23.3245 104.254 22.42C102.739 20.9671 103.744 17.7727 105.926 17.366Z" fill="#2D2370"/>
<path d="M104.033 18.7581C104.362 18.0831 104.827 17.4065 105.717 17.1516C106.093 17.0436 106.53 17.015 106.965 17.1044C107.405 17.1955 107.812 17.4081 108.132 17.695C108.489 18.0156 108.744 18.4206 108.83 18.8138C108.847 18.8948 108.698 18.9016 108.677 18.8189C108.501 18.1625 107.919 17.474 107.063 17.2461C106.176 17.0099 105.365 17.312 104.856 17.7608C104.523 18.0528 104.291 18.4122 104.085 18.7801C104.072 18.8003 104.021 18.7818 104.033 18.7581ZM104.294 22.6326C104.087 22.4048 103.98 22.1703 103.955 21.9155C103.953 21.9036 103.975 21.9087 103.977 21.9188C104.068 22.55 104.852 23.0765 105.586 23.2452C106.441 23.441 107.213 23.2722 107.948 23.0916C108.058 23.0646 108.15 23.2115 108.041 23.2385C107.415 23.3886 106.742 23.5101 106.029 23.4275C105.392 23.3532 104.719 23.0967 104.294 22.6326Z" fill="#2D2370"/>
<path d="M113.089 30.9887C116.887 30.935 119.918 27.473 119.859 23.2562C119.799 19.0394 116.672 15.6646 112.873 15.7184C109.075 15.7721 106.044 19.2341 106.104 23.4508C106.164 27.6676 109.291 31.0425 113.089 30.9887Z" fill="#2D2370"/>
<path d="M117.773 33.7466C120.593 34.1583 125.424 42.4929 127.553 46.1868L127.82 52.0188C120.582 48.5156 115.6 39.3778 117.61 38.9188L117.773 33.7466Z" fill="#C6BDFF"/>
<path d="M125.074 41.3689C124.202 43.8259 121.377 45.4864 119.894 45.726C119.894 45.726 112.968 38.9811 113.698 35.9639C113.943 34.9497 115.555 33.0141 117.634 33.6047C119.905 34.251 122.647 37.9568 125.074 41.3689Z" fill="#5338FF"/>
<path d="M124.699 47.4323L127.21 49.7053C129.195 49.7948 135.253 44.0607 135.267 43.9122L134.398 42.363L124.699 47.4323Z" fill="#C6BDFF"/>
<path d="M140.593 95.8144C139.607 96.5451 138.347 96.8286 136.747 96.5553C136.29 89.8812 131.667 78.823 134.356 70.8125C134.385 70.7264 131.977 63.2794 137.391 65.0783C140.175 67.942 139.578 88.1144 140.593 95.8144Z" fill="#4731D3"/>
<path d="M137.895 65.9896C137.285 66.9954 138.396 73.2071 137.17 72.6316C130.977 69.7257 118.399 71.1044 112.295 63.5529C109.643 60.2724 110.211 56.9261 113.732 55.7009C121.261 56.8434 136.993 61.5785 137.895 65.9896Z" fill="#4731D3"/>
<path d="M135.42 68.0231C134.865 69.0609 131.835 73.283 130.584 72.77C124.255 70.178 105.825 72.657 106.312 61.29C106.364 60.075 106.762 58.2795 107.108 58.0601C108.142 57.407 110.492 60.809 113.076 59.7543C113.334 59.6581 133.283 62.91 135.42 68.0231Z" fill="#5D47E6"/>
<path d="M120.417 46.2323C119.756 49.4166 118.988 52.3073 119.273 53.6083C119.753 55.8274 121.458 57.3191 121.458 57.3191C121.009 59.3948 118.949 60.706 116.629 61.2865C115.907 61.467 115.162 61.5767 114.431 61.6172C111.349 61.7843 108.498 61.0806 106.521 58.5071C106.521 58.5071 108.071 56.4636 108.309 54.204C108.648 51.0653 106.926 48.5408 105.307 44.106C103.709 39.7253 105.892 36.1275 107.545 34.8467C109.083 33.6553 109.516 33.4511 109.783 33.2436L112.664 33.1069L115.544 32.9314C117.664 33.306 118.721 34.1093 119.559 34.8315C122.031 36.9595 121.325 41.8701 120.417 46.2323Z" fill="#3D1FFC"/>
<path d="M115.546 32.9315C115.955 36.2542 114.042 36.3875 109.782 33.242C110.103 33.0311 110.541 32.5974 110.895 32.0101C110.895 32.0101 110.895 32.0101 110.897 32.0084C111.313 31.3199 111.612 30.4171 111.47 29.4114L114.072 30.0273L114.811 30.2028C114.671 30.6483 114.558 31.0702 114.509 31.4414C114.397 32.2835 114.606 32.8775 115.546 32.9315Z" fill="#C6BDFF"/>
<path d="M114.511 31.4414C114.511 31.4414 112.938 31.7114 112.304 31.4836C111.687 31.2609 110.937 31.973 110.899 32.0084C111.316 31.3199 111.614 30.4171 111.473 29.4114L114.075 30.0273L114.511 31.4414Z" fill="#C7C1EB"/>
<path d="M108.041 24.0467C108.327 23.6451 108.845 23.7396 109.275 23.9218C109.675 24.0922 109.907 24.4196 109.848 24.7571C109.707 25.5705 110.326 26.4092 110.508 27.2445C107.586 27.2141 107.491 24.8212 108.041 24.0467Z" fill="#C3BAFF"/>
<path d="M108.518 24.6728C108.724 24.5901 109.033 24.612 109.152 24.774C109.205 24.8449 109.075 24.9158 109.009 24.8466C108.957 24.7943 108.866 24.7706 108.781 24.7943C108.707 24.8145 108.645 24.8803 108.613 24.9326C108.517 25.0913 108.63 25.2752 108.721 25.4203C108.812 25.5638 108.928 25.7004 109.063 25.8236C109.206 25.9553 109.399 26.0498 109.542 26.178C109.679 26.3012 109.451 26.4919 109.265 26.4143C109.122 26.3552 109.012 26.2573 108.908 26.1662C108.81 26.0818 108.721 25.9924 108.642 25.8979C108.478 25.7055 108.336 25.4912 108.271 25.2668C108.213 25.0693 108.242 24.7841 108.518 24.6728Z" fill="#CCC7ED"/>
<path d="M109.11 23.436C109.167 27.9855 111.487 31.4651 115.038 31.4212C118.416 31.3791 120.881 27.6058 120.53 22.8707C120.195 18.3347 118.126 16.0481 114.576 16.0937C111.025 16.1376 109.052 18.8865 109.11 23.436Z" fill="#D0C9FF"/>
<path d="M116.804 26.1376C116.661 25.7326 116.315 25.579 116.214 24.4973C116.059 25.1453 116.396 25.9671 116.524 26.3114C116.784 27.0117 115.553 26.9071 115.919 26.9796C116.358 27.0674 117.089 26.9408 116.804 26.1376Z" fill="#CCC7ED"/>
<path d="M117.766 23.2116C118.658 22.7053 119.745 23.4647 119.809 23.8427C119.826 23.9423 119.739 23.8461 119.334 23.5811C119.035 23.3921 118.464 23.355 118.132 23.4596C117.784 23.5676 117.339 23.4799 117.766 23.2116Z" fill="#362794"/>
<path d="M114.251 28.0513C114.238 28.3466 114.349 28.6217 114.545 28.8293C114.755 29.0554 115.06 29.2039 115.408 29.2208C115.78 29.2393 116.121 29.1009 116.354 28.8681C116.541 28.6841 116.659 28.4394 116.673 28.1678C116.703 27.5535 115.902 27.9788 115.45 27.9568C115.074 27.9383 114.281 27.4371 114.251 28.0513Z" fill="#342594"/>
<path d="M114.546 28.8292C114.757 29.0553 115.062 29.2038 115.409 29.2207C115.782 29.2392 116.123 29.1009 116.355 28.868C116.182 28.6756 115.861 28.5389 115.488 28.5204C115.084 28.5018 114.726 28.6284 114.546 28.8292Z" fill="#8A78FF"/>
<path d="M117.219 24.8989C117.364 25.5874 119.242 25.5942 119.527 25.3816C119.543 25.3697 119.558 25.3579 119.573 25.3461C119.575 25.3461 119.575 25.3444 119.575 25.3444C119.71 25.1284 119.826 24.7504 119.826 24.7504C119.826 24.7504 119.479 24.3961 119.29 24.2948C119.286 24.2948 119.286 24.2914 119.281 24.2914C119.234 24.2678 119.049 24.175 118.801 24.1126C118.46 24.0299 117.998 24.0029 117.617 24.2914C117.573 24.3252 117.312 24.5209 117.212 24.796C117.209 24.8281 117.212 24.8635 117.219 24.8989Z" fill="#362794"/>
<path d="M117.174 25.0677C117.219 25.5604 117.89 25.8574 118.373 25.8895C118.422 25.8928 118.558 25.8996 118.732 25.8642C118.894 25.8355 119.088 25.768 119.275 25.633C119.3 25.6178 119.393 25.5486 119.492 25.449C119.519 25.422 119.546 25.3866 119.572 25.3444C119.573 25.3444 119.573 25.3427 119.573 25.3427C119.708 25.1267 119.825 24.7487 119.825 24.7487C119.825 24.7487 119.477 24.3944 119.288 24.2931C119.285 24.2931 119.285 24.2897 119.28 24.2897C119.233 24.2661 119.047 24.1733 118.799 24.1109C118.459 24.0282 117.997 24.0012 117.616 24.2897C117.572 24.3235 117.31 24.5192 117.211 24.7943C117.181 24.8787 117.164 24.9715 117.174 25.0677Z" fill="white"/>
<path d="M118.453 25.9013C118.974 25.9013 119.396 25.4789 119.396 24.958C119.396 24.437 118.974 24.0146 118.453 24.0146C117.933 24.0146 117.511 24.437 117.511 24.958C117.511 25.4789 117.933 25.9013 118.453 25.9013Z" fill="#6053B5"/>
<path d="M118.473 25.5081C118.795 25.5081 119.055 25.2475 119.055 24.9259C119.055 24.6044 118.795 24.3438 118.473 24.3438C118.152 24.3438 117.892 24.6044 117.892 24.9259C117.892 25.2475 118.152 25.5081 118.473 25.5081Z" fill="#110C2E"/>
<path d="M118.064 24.7404C118.144 24.7404 118.209 24.6755 118.209 24.5953C118.209 24.5152 118.144 24.4502 118.064 24.4502C117.984 24.4502 117.919 24.5152 117.919 24.5953C117.919 24.6755 117.984 24.7404 118.064 24.7404Z" fill="white"/>
<path d="M117.907 25.1598C117.952 25.1598 117.989 25.1233 117.989 25.0783C117.989 25.0333 117.952 24.9968 117.907 24.9968C117.863 24.9968 117.826 25.0333 117.826 25.0783C117.826 25.1233 117.863 25.1598 117.907 25.1598Z" fill="white"/>
<path d="M117.211 24.7944C117.31 24.5193 117.572 24.3236 117.616 24.2898C117.998 24.0012 118.459 24.0283 118.799 24.1109C119.047 24.1734 119.233 24.2662 119.28 24.2898C119.283 24.2915 119.285 24.2932 119.288 24.2932C119.477 24.3944 119.825 24.7488 119.825 24.7488C119.825 24.7488 119.708 25.1251 119.573 25.3428C119.671 25.2601 119.722 25.1825 119.722 25.1825C119.745 25.1471 119.787 25.0745 119.83 24.9817C119.882 24.8652 119.89 24.8112 119.929 24.8011C119.961 24.7927 120.079 25.0762 120.433 25.0171C120.464 25.0121 120.497 24.9766 120.497 24.9766C120.357 25.0087 120.126 24.8433 119.865 24.5041C119.158 23.5861 117.767 23.603 117.314 24.4754C117.273 24.5564 117.216 24.6695 117.211 24.7944ZM114.678 24.9159C114.55 25.6077 112.673 25.6618 112.383 25.4559C112.368 25.4441 112.351 25.4322 112.338 25.4204C112.336 25.4204 112.336 25.4188 112.336 25.4188C112.196 25.2061 112.071 24.8315 112.071 24.8315C112.071 24.8315 112.409 24.4687 112.596 24.3624C112.599 24.3624 112.599 24.359 112.604 24.359C112.651 24.3337 112.833 24.2358 113.08 24.1683C113.419 24.0772 113.879 24.0384 114.268 24.3168C114.312 24.3489 114.579 24.5379 114.685 24.8112C114.687 24.8467 114.685 24.8804 114.678 24.9159Z" fill="#362794"/>
<path d="M114.729 25.0847C114.695 25.5791 114.032 25.893 113.55 25.9369C113.501 25.9419 113.365 25.9504 113.191 25.92C113.027 25.8947 112.833 25.8339 112.643 25.7023C112.618 25.6871 112.523 25.6213 112.42 25.5234C112.393 25.4981 112.365 25.4627 112.338 25.4222C112.336 25.4222 112.336 25.4205 112.336 25.4205C112.196 25.2079 112.071 24.8332 112.071 24.8332C112.071 24.8332 112.409 24.4704 112.596 24.3641C112.599 24.3641 112.599 24.3607 112.604 24.3607C112.651 24.3354 112.833 24.2375 113.08 24.17C113.419 24.0789 113.879 24.0401 114.268 24.3185C114.312 24.3506 114.579 24.5396 114.685 24.813C114.717 24.8957 114.736 24.9868 114.729 25.0847Z" fill="white"/>
<path d="M113.446 25.9503C113.966 25.9503 114.388 25.528 114.388 25.007C114.388 24.4861 113.966 24.0637 113.446 24.0637C112.925 24.0637 112.503 24.4861 112.503 25.007C112.503 25.528 112.925 25.9503 113.446 25.9503Z" fill="#6053B5"/>
<path d="M113.425 25.5572C113.746 25.5572 114.006 25.2965 114.006 24.975C114.006 24.6535 113.746 24.3928 113.425 24.3928C113.103 24.3928 112.843 24.6535 112.843 24.975C112.843 25.2965 113.103 25.5572 113.425 25.5572Z" fill="#110C2E"/>
<path d="M113.827 24.7793C113.907 24.7793 113.972 24.7143 113.972 24.6341C113.972 24.554 113.907 24.489 113.827 24.489C113.747 24.489 113.682 24.554 113.682 24.6341C113.682 24.7143 113.747 24.7793 113.827 24.7793Z" fill="white"/>
<path d="M113.995 25.1942C114.04 25.1942 114.076 25.158 114.076 25.1132C114.076 25.0685 114.04 25.0322 113.995 25.0322C113.95 25.0322 113.914 25.0685 113.914 25.1132C113.914 25.158 113.95 25.1942 113.995 25.1942Z" fill="white"/>
<path d="M114.682 24.813C114.576 24.5413 114.31 24.3506 114.266 24.3186C113.876 24.0384 113.416 24.0773 113.077 24.1701C112.831 24.2376 112.649 24.3354 112.602 24.3608C112.598 24.3624 112.597 24.3641 112.593 24.3641C112.408 24.4705 112.069 24.8333 112.069 24.8333C112.069 24.8333 112.195 25.2079 112.334 25.4205C112.234 25.3395 112.18 25.2653 112.18 25.2653C112.157 25.2298 112.111 25.159 112.067 25.0678C112.012 24.9531 112.003 24.8991 111.963 24.8906C111.931 24.8839 111.819 25.1691 111.463 25.1185C111.433 25.1134 111.399 25.0796 111.399 25.0796C111.541 25.1083 111.767 24.9362 112.02 24.5919C112.703 23.6571 114.096 23.6385 114.569 24.4991C114.615 24.5751 114.676 24.6864 114.682 24.813Z" fill="#362794"/>
<path d="M114.209 23.2048C113.305 22.7222 112.236 23.5069 112.18 23.8866C112.165 23.9862 112.251 23.8883 112.649 23.6132C112.944 23.4175 113.514 23.3652 113.848 23.4613C114.199 23.5626 114.641 23.463 114.209 23.2048Z" fill="#362794"/>
<path d="M114.06 26.8669C114.074 26.5691 113.59 26.3035 112.978 26.2738C112.366 26.2441 111.858 26.4616 111.843 26.7595C111.829 27.0573 112.314 27.3229 112.926 27.3526C113.538 27.3822 114.046 27.1648 114.06 26.8669Z" fill="#B8ADFF"/>
<path d="M119.615 26.9163C119.628 26.6482 119.191 26.4091 118.638 26.3823C118.086 26.3555 117.627 26.5512 117.614 26.8193C117.601 27.0874 118.039 27.3264 118.591 27.3532C119.144 27.38 119.602 27.1844 119.615 26.9163Z" fill="#B8ADFF"/>
<path d="M115.546 32.9314C115.546 32.9314 117.394 32.977 117.212 33.8764C117.03 34.7758 116.199 36.7148 114.455 35.6837C114.455 35.6837 113.009 37.1012 111.663 36.4481C111.058 36.1545 109.179 35.034 108.857 34.3185C108.599 33.7481 109.781 33.2419 109.781 33.2419C109.781 33.2419 112.988 35.3445 114.133 34.9564C115.926 34.3489 115.546 32.9314 115.546 32.9314Z" fill="white"/>
<path d="M114.588 15.8118C110.86 15.9907 107.695 19.8095 109.4 25.4508C110.084 23.5389 111.128 21.4666 112.89 19.877C112.89 19.877 112.595 21.3333 112.374 21.8649C114.232 21.497 117.058 21.0869 117.146 18.6367C117.492 19.7167 120.47 22.4386 120.596 21.6337C120.783 17.4571 117.406 15.6768 114.588 15.8118Z" fill="#2D2370"/>
<path d="M116.29 20.7393C115.848 21.2084 115.25 21.5088 114.646 21.7163C114.541 21.7518 114.435 21.7855 114.327 21.8159C115.437 21.2692 116.55 20.4473 116.941 19.4804C116.862 19.9529 116.619 20.3933 116.29 20.7393ZM118.657 21.1156C118.453 20.9519 118.263 20.7697 118.091 20.5722C117.748 20.174 117.479 19.7116 117.303 19.2172C117.243 19.045 117.192 18.8678 117.155 18.689C117.625 19.5682 118.291 20.6195 118.845 21.254C118.78 21.2101 118.718 21.1662 118.657 21.1156Z" fill="#2D2370"/>
<path d="M133.339 102.279C133.055 102.667 129.246 101.63 128.546 101.41C127.847 101.191 125.692 101.447 124.737 100.891C123.781 100.332 124.769 99.1271 125.098 97.9847C125.101 97.9779 125.101 97.9729 125.105 97.9661L125.107 97.9577C125.724 97.3468 125.842 93.7896 125.842 93.7896L128.948 94.3177C128.917 94.716 128.044 96.5621 128.614 97.7164C129.142 98.7829 130.84 99.1102 131.602 99.4191C131.602 99.4191 131.686 99.4528 131.829 99.5102C131.878 99.5287 131.924 99.549 131.973 99.5676C132.044 99.5962 132.123 99.6283 132.206 99.6621C132.251 99.6772 132.293 99.6958 132.339 99.7144C132.668 99.8426 132.979 99.9675 133.259 100.086C133.482 100.18 133.683 100.271 133.856 100.357C135.438 101.14 133.624 101.891 133.339 102.279Z" fill="#ACA0FA"/>
<path d="M133.243 102.337C131.584 102.608 128.847 101.888 128.147 101.668C127.447 101.449 125.706 101.427 124.739 100.891C123.664 100.293 124.402 99.0073 125.1 97.9846C125.104 97.9779 125.104 97.9728 125.107 97.9661C125.033 98.5044 125.407 99.4578 126.321 99.743C127.552 100.124 131.073 100.934 131.717 100.421C132.342 99.9253 131.602 99.419 131.602 99.419C131.602 99.419 131.687 99.4528 131.83 99.5101C131.874 99.527 131.921 99.5456 131.973 99.5675C132.044 99.5962 132.123 99.6283 132.206 99.662C132.25 99.6789 132.292 99.6974 132.339 99.7143C132.609 99.824 132.933 99.9539 133.26 100.086C133.482 100.18 133.683 100.271 133.857 100.357C135.438 101.14 134.427 102.143 133.243 102.337Z" fill="#4731D3"/>
<path d="M129.136 95.8331C127.991 96.2769 126.701 96.2179 125.23 95.531C126.551 88.9734 125.008 77.085 129.714 70.07C129.765 69.9941 130.485 64.5536 135.233 67.721C137.882 71.0825 130.188 88.1381 129.136 95.8331Z" fill="#5D47E6"/>
<path d="M137.666 38.3838L130.083 54.8436L134.705 55.4663C135.067 55.5153 135.418 55.3212 135.57 54.9888L141.426 42.1587L138.162 38.3146C138.022 38.1492 137.757 38.1863 137.666 38.3838Z" fill="#0F0072"/>
<path d="M138.103 38.9762L141.263 42.5216L137.624 49.302L134.062 46.5783L137.776 39.02C137.838 38.8935 138.008 38.8698 138.103 38.9762Z" fill="white"/>
<path d="M130.798 42.5384L125.28 54.6259C125.083 55.0563 125.399 55.5473 125.872 55.5473H134.782C135.106 55.5473 135.401 55.3583 135.536 55.063L141.426 42.1587H131.388C131.135 42.1587 130.902 42.3072 130.798 42.5384Z" fill="#120087"/>
<path d="M126.926 55.549H134.78C135.104 55.549 135.399 55.36 135.534 55.0647L141.424 42.1604H140.323C138.397 48.8227 133.824 53.1933 126.926 55.549Z" fill="#0F0072"/>
<path d="M133.725 53.3114C133.964 53.4329 133.577 53.8767 133.268 54.253C132.959 54.6293 132.103 54.7356 132.118 54.9162C132.15 55.3296 133.243 55.3296 134.001 55.3128C135.377 55.0276 135.853 54.1028 136.605 54.2193C137.14 54.302 135.625 55.5237 134.87 56.0519C134.037 56.6358 133.514 56.6864 132.959 56.9378C132.201 57.2787 131.047 56.9176 129.653 56.4788L129.506 54.6462C130.514 53.821 131.953 54.1686 132.958 53.4835C133.216 53.3046 133.484 53.1882 133.725 53.3114ZM106.688 40.5741C107.6 44.8908 115.779 56.8889 117.325 56.4974C119.025 56.0654 120.512 54.14 120.512 54.14C120.512 54.14 112.506 39.6325 110.981 38.4513C107.339 35.6298 106.228 38.3905 106.688 40.5741Z" fill="#C6BDFF"/>
<path d="M120.31 53.7991L115.872 55.5676C118.518 58.6523 125.345 57.1758 129.883 56.5598L129.713 54.4943L120.31 53.7991Z" fill="#C6BDFF"/>
<path d="M116.091 44.5432C114.841 46.0569 110.769 48.1933 109.225 47.984C109.225 47.984 104.808 42.0896 105.704 39.1837C106.006 38.2067 107.894 35.7108 109.892 36.4145C112.074 37.1823 113.924 41.0585 116.091 44.5432Z" fill="#5338FF"/>
<path d="M131.491 125.987C132.287 125.003 133.263 124.522 133.806 124.3C135.552 123.584 137.752 123.512 137.944 124.072C137.997 124.225 137.884 124.387 137.418 124.909C136.143 126.34 135.506 127.055 134.737 127.535C133.923 128.043 132.975 128.616 131.83 128.447C131.553 128.407 130.95 128.318 130.739 127.897C130.437 127.288 131.161 126.394 131.491 125.987Z" fill="#433694"/>
<path d="M137.275 124.338C137.137 124.266 136.74 124.176 136.027 124.227C135.235 124.283 134.359 124.487 133.629 124.786C132.739 125.15 132.007 125.685 131.451 126.372C131.323 126.53 131.145 126.748 130.992 126.993C130.737 127.398 130.648 127.723 130.741 127.909C130.871 128.169 131.363 128.242 131.574 128.274C132.618 128.427 133.521 127.864 134.248 127.41C134.975 126.956 135.602 126.25 136.853 124.846C137.056 124.62 137.204 124.446 137.275 124.338Z" fill="#4C3DA8"/>
<path d="M130.312 128.183C131.212 127.415 132.187 126.74 133.209 126.164C134.232 125.589 135.306 125.116 136.409 124.747C136.43 124.74 136.453 124.752 136.46 124.772C136.467 124.792 136.457 124.813 136.438 124.821C135.376 125.283 134.361 125.844 133.411 126.492C132.464 127.141 131.58 127.877 130.779 128.689C130.646 128.824 130.427 128.825 130.292 128.692C130.157 128.559 130.155 128.339 130.288 128.204C130.297 128.198 130.303 128.191 130.312 128.183Z" fill="#433694"/>
<path d="M139.659 131.058C136.851 129.381 133.58 131.556 130.476 131.905V131.904H130.344V131.905C128.661 132.015 126.277 130.434 124.441 130.464C119.332 130.111 117.188 134.72 117.182 139.551C117.175 143.645 118.827 147.607 121.76 150.463C124.336 152.974 127.162 153.649 129.515 152.844C130.058 152.658 130.646 152.651 131.174 152.874C134.722 154.366 140.229 150.866 142.551 145.479C144.49 140.609 144.006 133.162 139.659 131.058Z" fill="#5D47E6"/>
<path d="M132.29 151.907C131.762 151.684 131.172 151.691 130.631 151.877C128.28 152.683 125.454 152.007 122.876 149.496C119.944 146.64 118.293 142.678 118.298 138.584C118.301 135.817 119.008 133.123 120.571 131.392C118.224 132.945 117.187 136.193 117.182 139.551C117.175 143.645 118.827 147.607 121.76 150.463C124.338 152.974 127.162 153.649 129.515 152.844C130.058 152.658 130.646 152.651 131.174 152.874C133.521 153.861 136.722 152.663 139.295 150.182C136.954 151.99 134.307 152.756 132.29 151.907Z" fill="#4731D3"/>
<path d="M126.105 126.024C126.716 126.306 127.294 126.708 127.812 127.189C128.326 127.671 128.785 128.238 129.146 128.876C129.242 129.033 129.319 129.2 129.407 129.365C129.486 129.532 129.561 129.705 129.626 129.878C129.765 130.228 129.867 130.591 129.952 130.962C130.017 131.269 130.065 131.583 130.09 131.898C130.174 131.902 130.26 131.903 130.345 131.903V131.902H130.476V131.903C130.613 131.903 130.749 131.898 130.888 131.888C130.928 131.554 130.953 131.217 130.963 130.876C130.992 130.025 130.918 129.156 130.732 128.292C130.709 128.184 130.685 128.076 130.658 127.968L130.569 127.646C130.542 127.536 130.506 127.43 130.473 127.324C130.437 127.217 130.407 127.108 130.367 127.003C130.215 126.578 130.036 126.161 129.832 125.747C129.422 124.926 128.908 124.143 128.292 123.398L126.105 126.024Z" fill="#2C2557"/>
<path d="M141.396 139.779C141.769 139.779 142.071 139.477 142.071 139.104C142.071 138.731 141.769 138.429 141.396 138.429C141.024 138.429 140.722 138.731 140.722 139.104C140.722 139.477 141.024 139.779 141.396 139.779Z" fill="#9E8FFF"/>
<path d="M141.821 137.43C141.897 137.054 141.914 136.662 141.868 136.279C141.821 135.896 141.723 135.515 141.565 135.16C141.487 134.983 141.413 134.803 141.315 134.636L141.174 134.382L141.013 134.141C140.799 133.821 140.541 133.532 140.273 133.264C139.993 133.005 139.702 132.766 139.381 132.57C138.749 132.177 138.051 131.897 137.322 131.824C137.86 132.315 138.349 132.784 138.774 133.289L138.933 133.476L139.081 133.669C139.186 133.792 139.27 133.929 139.366 134.053C139.45 134.187 139.545 134.313 139.622 134.45C139.703 134.583 139.786 134.715 139.852 134.855L139.961 135.057L140.056 135.268C140.125 135.405 140.179 135.549 140.234 135.692C140.346 135.977 140.44 136.267 140.543 136.561L140.855 137.474C140.964 137.791 141.742 137.808 141.821 137.43Z" fill="#9E8FFF"/>
<path d="M127.215 132.138C127.68 132.386 128.201 132.541 128.737 132.604C129.006 132.633 129.277 132.638 129.547 132.622C129.817 132.604 130.088 132.565 130.355 132.506C130.618 132.444 130.877 132.359 131.13 132.263C131.378 132.172 131.629 132.059 131.864 131.922C132.032 131.824 132.196 131.715 132.349 131.596C132.102 131.676 131.864 131.738 131.634 131.784C131.376 131.838 131.129 131.871 130.886 131.888C130.849 131.892 130.812 131.892 130.776 131.893H130.774C130.599 131.963 130.42 132.025 130.24 132.076C130 132.148 129.754 132.204 129.506 132.239C129.259 132.282 129.006 132.3 128.751 132.307C128.243 132.317 127.729 132.253 127.215 132.131V132.138Z" fill="#3419E0"/>
<path d="M83.1022 36.2678L78.1377 39.0105L78.5411 39.7418L83.5056 36.9991L83.1022 36.2678Z" fill="#120087"/>
<path d="M82.9871 41.6628L82.7325 41.8028C81.4324 42.5217 79.7833 42.0256 79.0498 40.6975L84.014 37.9553C84.7475 39.2834 84.2872 40.9439 82.9871 41.6628Z" fill="#120087"/>
<path d="M81.9869 26.374L81.9886 26.3724C81.9886 26.3724 81.9869 26.3892 81.9819 26.4162C81.9735 26.558 81.96 26.6964 81.9431 26.8347C81.8301 28.2134 81.3782 32.5317 82.8553 35.2081L77.5117 38.1595C76.1189 35.6367 72.5576 33.8615 71.1226 33.1578C70.9051 33.0667 70.691 32.9671 70.4819 32.8574C70.4718 32.8507 70.4633 32.849 70.4633 32.849L70.465 32.8473C69.1531 32.1554 68.0217 31.0872 67.2528 29.69C65.1534 25.883 66.5328 21.0955 70.3369 18.9946C71.9438 18.107 73.7279 17.8404 75.4124 18.1188C77.7073 18.4968 79.8134 19.8856 81.0241 22.081C81.7728 23.4429 82.0746 24.9295 81.9869 26.374ZM67.6474 18.166C66.8515 17.2565 66.0539 16.3486 65.258 15.439C64.9848 15.1269 65.4705 14.705 65.7436 15.0172C66.5395 15.9267 67.3371 16.8346 68.133 17.7442C68.4062 18.0547 67.9205 18.4782 67.6474 18.166ZM64.2884 22.3848C62.5213 21.4803 60.7541 20.5775 58.9869 19.673C58.8318 19.5937 58.8133 19.3574 58.9009 19.2258C59.0089 19.0672 59.1927 19.0604 59.3478 19.1397C61.1149 20.0442 62.8821 20.947 64.6493 21.8515C64.8044 21.9309 64.8229 22.1671 64.7353 22.2987C64.6273 22.4574 64.4435 22.4641 64.2884 22.3848ZM60.1302 27.913C61.2212 27.7224 62.3122 27.5334 63.4031 27.3427C63.8112 27.2718 63.9394 27.9029 63.5313 27.9738C62.4403 28.1645 61.3493 28.3535 60.2584 28.5442C59.852 28.615 59.7221 27.9839 60.1302 27.913Z" fill="#5338FF"/>
<path d="M81.9868 26.3739L81.9885 26.3723C81.9885 26.3723 81.9868 26.3891 81.9818 26.4161C81.9734 26.5579 81.9599 26.6963 81.943 26.8346C81.83 28.2133 81.3781 32.5316 82.8552 35.208L81.572 35.9168C80.2281 33.6977 80.417 30.2687 80.4153 25.1151C80.4153 19.9631 75.4072 18.1238 75.4072 18.1238L75.4106 18.1221C77.7055 18.5001 79.8116 19.8889 81.0223 22.0843C81.7727 23.4428 82.0745 24.9294 81.9868 26.3739Z" fill="#492DF9"/>
<path d="M79.1841 28.0768C78.9514 27.8625 78.6951 27.773 78.4219 27.8102C78.3309 27.822 78.2499 27.8406 78.1791 27.8608C77.97 27.8034 77.5687 27.7815 77.1387 28.2388C77.0089 28.3772 76.9144 28.5274 76.8504 28.6809C76.5553 28.6539 76.2501 28.7062 75.9803 28.875C75.8049 28.983 75.6683 29.1382 75.5688 29.3171C75.0916 29.1635 74.6482 29.285 74.3126 29.6597C73.8624 30.1642 73.8169 30.5524 73.8624 30.7954C73.7106 31.008 73.6718 31.2965 73.7578 31.6172C74.0158 32.5959 76.9212 35.3162 78.341 36.602L78.002 36.7894L78.3916 37.4947L78.9767 37.1707C79.0441 37.2315 79.0913 37.272 79.1082 37.2855L79.1504 37.3226L80.7776 36.4552L80.7792 36.4097C80.7826 36.3557 80.7843 36.2747 80.7843 36.1717L81.3509 35.8579L80.9614 35.1525L80.7691 35.2588C80.6983 33.1984 80.3678 29.1652 79.1841 28.0768ZM78.1791 28.0329C78.4287 28.1207 78.5905 28.3367 78.6209 28.5122C78.6344 28.5915 78.631 28.6995 78.5332 28.7737C78.3157 28.9374 78.1218 28.8463 78.0493 28.7974C77.8924 28.6961 77.8031 28.5071 77.8385 28.3468C77.8621 28.2388 77.938 28.151 78.056 28.0852C78.0931 28.0667 78.1353 28.0481 78.1791 28.0329ZM76.9583 28.8632C77.3697 28.934 77.7491 29.1602 77.9413 29.4065C78.029 29.5196 78.1521 29.7322 77.9852 29.8942C77.7322 30.1389 77.4338 30.1423 77.1893 29.901C76.9498 29.6647 76.8419 29.2597 76.9583 28.8632ZM76.7256 30.8409C76.7323 31.0215 76.6581 31.1464 76.5047 31.2155C76.0427 31.4231 75.7914 31.1109 75.6835 30.9067C75.4811 30.5254 75.4626 29.96 75.6498 29.523C76.2433 29.7795 76.7104 30.4241 76.7256 30.8409ZM74.0377 30.8342C74.0698 30.797 74.1035 30.7684 74.1339 30.7464C74.3311 30.603 74.5723 30.5945 74.6903 30.6705C74.7611 30.716 74.7881 30.7886 74.7679 30.8882C74.7358 31.0502 74.6431 31.1514 74.5082 31.1717C74.3446 31.197 74.1659 31.0957 74.0748 30.927C74.063 30.9051 74.0495 30.873 74.0377 30.8342ZM73.913 31.575C73.8455 31.3219 73.8708 31.1362 73.9298 31.0012C73.9298 31.0029 73.9315 31.0046 73.9332 31.0063C74.0563 31.2341 74.3042 31.3708 74.5352 31.3354C74.7375 31.305 74.8842 31.1497 74.9298 30.9219C74.9618 30.7582 74.9078 30.6165 74.7797 30.5338C74.5858 30.4089 74.2738 30.4444 74.0394 30.6148C74.0293 30.6215 74.0209 30.6283 74.0108 30.6367C74.0125 30.4325 74.1018 30.1389 74.434 29.7677C74.7898 29.3694 75.1962 29.3745 75.4963 29.4639C75.2923 29.9466 75.3159 30.5574 75.5419 30.9827C75.7695 31.4096 76.1539 31.553 76.5738 31.364C76.788 31.2695 76.8993 31.0806 76.8908 30.8325C76.8706 30.3094 76.3276 29.6411 75.7256 29.3745C75.8116 29.226 75.9246 29.1011 76.068 29.0117C76.2922 28.8716 76.5468 28.826 76.7964 28.8412C76.675 29.2901 76.8031 29.7457 77.0763 30.0157C77.3832 30.3178 77.7845 30.3161 78.0998 30.0107C78.287 29.8301 78.2752 29.5669 78.0712 29.3036C77.8587 29.0302 77.4591 28.7855 77.019 28.7029C77.0746 28.5797 77.1539 28.4616 77.2584 28.3485C77.4608 28.1325 77.6817 28.0127 77.8975 27.9941C77.7542 28.1004 77.7002 28.2236 77.6817 28.3114C77.6311 28.5392 77.7474 28.794 77.9633 28.9341C78.1757 29.0707 78.427 29.0589 78.6344 28.902C78.7608 28.8058 78.8165 28.6522 78.7845 28.4801C78.749 28.281 78.6125 28.0937 78.427 27.9722C78.432 27.9722 78.4388 27.9705 78.4438 27.9705C78.6698 27.9401 78.8772 28.0144 79.0745 28.1949C80.1941 29.2243 80.5482 33.2659 80.6106 35.3466L78.491 36.5177C77.0982 35.2588 74.1592 32.5115 73.913 31.575ZM80.614 36.3574L79.1689 37.1269C79.1571 37.1167 79.1402 37.1015 79.1251 37.088L80.6157 36.2645C80.6174 36.2966 80.6157 36.3304 80.614 36.3574Z" fill="#C2B9FF"/>
<path d="M67.1706 23.485C66.6158 24.7692 66.6816 26.0332 67.3173 26.3065C67.953 26.5816 68.9158 25.7632 69.4706 24.479C70.0253 23.1948 69.9596 21.9308 69.3239 21.6575C68.6899 21.3824 67.7253 22.2008 67.1706 23.485Z" fill="#9C9AA6"/>
<path d="M83.1032 36.2655L78.1357 39.0098L78.2523 39.221L83.2198 36.4767L83.1032 36.2655Z" fill="#CCCCCC"/>
<path d="M84.1203 38.1696C84.0882 38.0971 84.0528 38.0245 84.014 37.9536L79.0498 40.6958C79.0886 40.7667 79.1307 40.8359 79.1763 40.9017L84.1203 38.1696Z" fill="#CCCCCC"/>
<path d="M82.8269 35.1829L77.3669 38.1985C77.1865 38.298 77.1207 38.5241 77.2202 38.7047L77.3821 39C77.4816 39.1806 77.7075 39.2464 77.888 39.1468L83.3479 36.1313C83.5284 36.0317 83.5941 35.8056 83.4946 35.625L83.3328 35.3297C83.2333 35.1491 83.0073 35.085 82.8269 35.1829ZM83.7526 36.862L78.2927 39.8775C78.1122 39.9771 78.0465 40.2032 78.146 40.3838L78.3078 40.6791C78.4073 40.8596 78.6333 40.9255 78.8137 40.8259L84.2737 37.8103C84.4541 37.7108 84.5199 37.4846 84.4204 37.3041L84.2585 37.0088C84.159 36.8282 83.9331 36.7624 83.7526 36.862Z" fill="#120087"/>
<path d="M78.5796 39.896C78.3907 40.0428 78.2929 40.2335 78.362 40.3229C78.4312 40.4124 78.6403 40.3651 78.8291 40.2166C79.018 40.0698 79.1158 39.8791 79.0466 39.7897C78.9775 39.7019 78.7684 39.7492 78.5796 39.896ZM79.3519 39.5197C79.2659 39.5855 79.222 39.6716 79.2541 39.7121C79.2844 39.7526 79.3788 39.7306 79.4648 39.6648C79.5508 39.599 79.5947 39.5129 79.5626 39.4724C79.5306 39.4319 79.4362 39.4522 79.3519 39.5197Z" fill="#17029E"/>
<path d="M77.6635 38.2371C77.4747 38.384 77.3769 38.5746 77.446 38.6641C77.5152 38.7535 77.7243 38.7063 77.9131 38.5578C78.102 38.411 78.1998 38.2203 78.1306 38.1308C78.0615 38.0431 77.8524 38.0903 77.6635 38.2371ZM78.4358 37.8591C78.3498 37.925 78.306 38.011 78.338 38.0515C78.3684 38.092 78.4628 38.0701 78.5488 38.0043C78.6348 37.9385 78.6787 37.8524 78.6466 37.8119C78.6146 37.7714 78.5201 37.7933 78.4358 37.8591Z" fill="#17029E"/>
</svg>
