<svg width="160" height="153" viewBox="0 0 160 153" fill="none" xmlns="http://www.w3.org/2000/svg">
<g style="mix-blend-mode:multiply">
<path d="M19.6348 149.066C19.6348 147.438 32.056 146.118 47.3777 146.118C62.6998 146.118 75.1206 147.438 75.1206 149.066C75.1206 150.695 62.6998 152.015 47.3777 152.015C32.056 152.015 19.6348 150.695 19.6348 149.066ZM82.9837 131.08C82.9837 129.677 95.2779 128.539 110.443 128.539C125.608 128.539 137.902 129.677 137.902 131.08C137.902 132.484 125.608 133.622 110.443 133.622C95.2779 133.622 82.9837 132.484 82.9837 131.08Z" fill="#EAE7FF"/>
</g>
<path d="M26.3855 116.913C22.7402 117.04 10.0141 119.553 3.19786 122.065M8.50681 117.488C8.40908 117.617 8.27542 117.713 8.12274 117.766C7.97005 117.819 7.80519 117.825 7.64901 117.784C7.49283 117.743 7.35233 117.656 7.24529 117.535C7.13826 117.414 7.06948 117.264 7.04767 117.104C7.02586 116.944 7.05198 116.781 7.12274 116.636C7.19351 116.491 7.30573 116.37 7.44522 116.289C7.5847 116.207 7.74519 116.169 7.90639 116.179C8.06759 116.189 8.22225 116.246 8.35083 116.344C8.52323 116.475 8.63651 116.669 8.66577 116.884C8.69502 117.098 8.63784 117.316 8.50681 117.488ZM8.50681 117.488C8.95567 117.829 10.7632 119.046 12.2463 119.442M15.168 121.264C15.0221 121.153 14.8466 121.088 14.6637 121.077C14.4807 121.066 14.2986 121.109 14.1403 121.202C13.982 121.294 13.8546 121.431 13.7743 121.596C13.694 121.761 13.6643 121.945 13.6891 122.127C13.7138 122.309 13.7919 122.479 13.9134 122.616C14.0348 122.753 14.1943 122.851 14.3715 122.898C14.5488 122.945 14.7359 122.938 14.9092 122.878C15.0825 122.818 15.2342 122.709 15.3451 122.563C15.4937 122.367 15.5586 122.12 15.5254 121.877C15.4922 121.633 15.3637 121.413 15.168 121.264ZM15.168 121.264C15.2981 120.761 16.5294 118.779 17.2098 118.338M4.95571 123.508C5.30926 122.979 6.36926 121.227 6.98938 120.832M17.9871 115.813C18.5315 116.088 21.1721 117.356 21.7327 117.492M2.89837 121.625C2.7656 121.524 2.60588 121.465 2.43941 121.455C2.27295 121.445 2.10721 121.484 1.96317 121.568C1.81912 121.652 1.70324 121.777 1.63017 121.927C1.55709 122.077 1.53012 122.245 1.55266 122.411C1.57519 122.576 1.64622 122.731 1.75676 122.856C1.86731 122.98 2.0124 123.07 2.17369 123.112C2.33498 123.155 2.50523 123.148 2.6629 123.094C2.82057 123.04 2.95859 122.94 3.05949 122.807C3.19478 122.629 3.25381 122.404 3.2236 122.183C3.19338 121.961 3.0764 121.761 2.89837 121.625ZM17.6158 114.632C17.4469 114.503 17.2438 114.428 17.032 114.415C16.8203 114.402 16.6095 114.452 16.4263 114.559C16.243 114.666 16.0956 114.825 16.0027 115.016C15.9097 115.206 15.8754 115.42 15.9041 115.631C15.9328 115.841 16.0231 116.038 16.1637 116.197C16.3043 116.355 16.4889 116.469 16.694 116.523C16.8992 116.577 17.1158 116.569 17.3163 116.5C17.5169 116.431 17.6924 116.303 17.8208 116.135C17.9928 115.908 18.0679 115.623 18.0295 115.341C17.9911 115.059 17.8423 114.804 17.6158 114.632ZM5.03924 123.561C4.92903 123.478 4.79645 123.428 4.65828 123.42C4.5201 123.412 4.38254 123.444 4.26297 123.514C4.1434 123.584 4.0472 123.688 3.98655 123.812C3.92589 123.936 3.90349 124.076 3.92219 124.213C3.94089 124.35 3.99983 124.479 4.09158 124.583C4.18333 124.686 4.30376 124.76 4.43764 124.796C4.57152 124.831 4.71283 124.825 4.84371 124.78C4.97459 124.735 5.08916 124.652 5.17292 124.542C5.28524 124.394 5.33425 124.208 5.30918 124.024C5.28411 123.84 5.18701 123.674 5.03924 123.561Z" stroke="#E1DDF8" stroke-width="2" stroke-linecap="round" stroke-linejoin="round"/>
<path d="M39.356 120.464C36.215 128.629 28.1249 129.878 19.1152 124.882C23.4227 118.08 32.7186 113.58 39.356 120.464Z" fill="#D4CEF8"/>
<path d="M39.3559 120.464C35.7229 121.042 27.1449 123.555 21.6191 124.458" stroke="#C1BBE6" stroke-width="2" stroke-linecap="round" stroke-linejoin="round"/>
<path d="M57.4863 128.218C60.6931 136.851 69.1942 138.266 78.7411 133.118C74.2899 125.904 64.5591 121.052 57.4863 128.218Z" fill="#D4CEF8"/>
<path d="M45.388 113.22C46.6491 110.133 47.2227 101.503 40.4681 98.738C37.4111 97.4861 36.5352 97.3376 35.3371 97.915C34.557 98.2906 34.0912 99.0034 33.3635 98.7448C32.0329 98.2717 33.8014 93.293 29.136 91.1131C24.4708 88.9333 22.1527 91.881 20.8992 91.278C19.6455 90.6746 19.9458 88.5127 17.4945 88.3127C15.043 88.1125 14.6342 92.1326 11.4484 92.3098C8.135 92.4947 2.7085 94.0172 2.88404 97.1631C3.05952 100.308 5.6111 100.04 7.00698 101.687C8.40289 103.334 8.59308 109.55 13.4885 109.277C18.3535 109.006 20.1174 108.192 22.5745 113.777C25.0317 119.362 31.0619 120.372 33.6737 118.922C36.2856 117.472 36.0653 119.189 34.8975 120.494C33.7292 121.801 36.3843 122.263 38.3509 121.312C40.3172 120.361 43.8055 117.095 45.388 113.22Z" fill="#E1DDF8"/>
<path d="M46.6776 114.284C35.1136 103.254 19.87 98.1091 8.53516 97.4159M17.6601 98.7952C17.4062 98.057 16.7518 94.8124 17.1182 92.8984M15.2723 98.2847C14.2572 98.9322 12.3216 101.096 11.8717 101.795M27.4593 101.949C26.987 100.868 26.1478 98.6425 26.839 95.1964M23.7003 100.535C22.6551 100.899 19.9142 103.429 18.8253 104.646M34.7024 105.461C33.2116 106.116 31.9984 107.74 31.0871 108.759M38.5693 107.829C37.7549 106.483 37.2438 103.546 37.3747 101.361" stroke="#D4CEF8" stroke-width="2" stroke-linecap="round" stroke-linejoin="round"/>
<path d="M57.5505 127.457C66.8841 131.645 74.6285 126.017 77.9909 114.448C68.812 112.351 57.3881 116.274 57.5505 127.457Z" fill="#EBE9F7"/>
<path d="M57.5508 127.457C61.0422 124.943 70.2325 119.961 75.5628 116.158" stroke="#D4CEF8" stroke-width="2" stroke-linecap="round" stroke-linejoin="round"/>
<path d="M139.495 116.013C139.632 115.805 139.71 115.563 139.721 115.313C139.732 115.064 139.675 114.816 139.557 114.596C139.806 114.613 140.055 114.561 140.277 114.447C140.499 114.334 140.687 114.162 140.82 113.951C141.019 113.656 141.094 113.294 141.027 112.944C140.96 112.594 140.757 112.285 140.462 112.085L130.32 105.574C130.015 105.389 129.649 105.333 129.303 105.418C128.958 105.503 128.659 105.721 128.474 106.026C128.337 106.234 128.259 106.476 128.249 106.725C128.238 106.975 128.295 107.223 128.413 107.442C128.164 107.429 127.916 107.481 127.694 107.595C127.473 107.708 127.285 107.879 127.15 108.088C127.016 108.298 126.939 108.539 126.928 108.788C126.918 109.037 126.973 109.284 127.089 109.505C126.84 109.489 126.591 109.54 126.369 109.654C126.146 109.768 125.959 109.939 125.826 110.151C125.626 110.446 125.552 110.808 125.619 111.158C125.686 111.507 125.889 111.816 126.183 112.017L136.326 118.528C136.631 118.712 136.996 118.768 137.342 118.684C137.688 118.599 137.986 118.38 138.171 118.076C138.308 117.867 138.386 117.625 138.397 117.376C138.408 117.127 138.351 116.879 138.233 116.659C138.482 116.675 138.731 116.624 138.953 116.51C139.175 116.396 139.363 116.225 139.495 116.013Z" fill="#7967E9"/>
<path d="M131.255 115.272L126.184 112.017C126.184 112.017 125.812 114.458 125.963 114.783C126.113 115.108 126.275 115.212 126.699 115.484C127.124 115.756 129.829 117.493 129.829 117.493C129.829 117.493 132.535 119.23 132.959 119.503C133.384 119.775 133.545 119.879 133.903 119.88C134.262 119.882 136.327 118.528 136.327 118.528L131.255 115.272Z" fill="#8E7DFB"/>
<path d="M138.484 113.907L129.487 108.132" stroke="#8E7DFB" stroke-width="2" stroke-linecap="round" stroke-linejoin="round"/>
<path d="M137.16 115.97L128.163 110.194" stroke="#8E7DFB" stroke-width="2" stroke-linecap="round" stroke-linejoin="round"/>
<path d="M157.124 102.169C158.404 100.175 159.183 97.901 159.394 95.5408C159.605 93.1806 159.242 90.8044 158.336 88.6148C157.43 86.4253 156.008 84.4874 154.191 82.9665C152.374 81.4457 150.216 80.387 147.901 79.8807C145.586 79.3744 143.183 79.4357 140.897 80.0592C138.61 80.6827 136.509 81.8499 134.772 83.4614C133.034 85.0728 131.713 87.0806 130.919 89.3135C130.126 91.5463 129.884 93.938 130.215 96.2844C130.221 96.3251 130.26 96.4962 130.269 96.5439C131.227 101.259 130.887 104.69 130.32 105.574L135.391 108.829L140.463 112.085C141.029 111.203 144.007 109.483 148.679 108.39C148.734 108.378 148.888 108.332 148.916 108.323C152.305 107.33 155.22 105.144 157.124 102.169Z" fill="#EBE9F7"/>
<path d="M130.889 105.939C131.659 104.065 131.638 100.914 130.927 97.1315L130.837 96.5311C130.443 93.9017 130.816 91.2146 131.91 88.7913C133.003 86.368 134.772 84.3112 137.004 82.8668C139.236 81.4225 141.837 80.6518 144.496 80.647C147.155 80.6422 149.759 81.4035 151.996 82.8398C154.233 84.2761 156.009 86.3265 157.112 88.7459C158.214 91.1652 158.596 93.8509 158.212 96.4817C157.829 99.1125 156.695 101.577 154.947 103.58C153.199 105.584 150.911 107.041 148.356 107.778L147.771 107.946C144.037 108.874 141.078 110.301 139.781 111.647L130.889 105.939Z" fill="#E1DDF8"/>
<path d="M157.131 88.8013C157.894 92.5792 157.155 96.5056 155.07 99.7476C153.122 102.783 149.818 104.796 146.356 105.793L145.727 105.974C141.714 106.972 138.534 108.505 137.14 109.952L139.781 111.647C141.078 110.301 144.037 108.874 147.771 107.946L148.356 107.778C150.261 107.228 152.026 106.276 153.531 104.985C155.036 103.693 156.246 102.094 157.078 100.294C157.91 98.4939 158.346 96.5362 158.355 94.5533C158.364 92.5704 157.946 90.6087 157.131 88.8013Z" fill="#D4CEF8"/>
<path d="M138.981 82.7365C137.906 83.2911 137.296 84.2464 137.618 84.8702C137.94 85.494 139.072 85.5502 140.147 84.9956C141.221 84.4411 141.831 83.4858 141.509 82.862C141.187 82.2381 140.055 82.182 138.981 82.7365Z" fill="white"/>
<path d="M134.546 107.24C134.546 107.24 138.613 100.905 139.313 99.8142C140.442 98.0562 140.602 95.739 139.992 93.0901M137.188 108.937L141.956 101.511C143.084 99.7526 145.124 98.6419 147.787 98.0945" stroke="#D4CEF8" stroke-width="3" stroke-linecap="round" stroke-linejoin="round"/>
<path d="M140.854 92.8136C140.722 92.1298 140.046 82.3366 142.335 91.7955C142.572 90.8922 146.525 82.5576 143.836 92.3024C144.794 91.1202 150.212 84.7252 145.479 92.587C146.888 91.2371 152.504 87.0235 146.858 93.3292C148.88 92.4017 154.367 89.9887 148.007 94.6948C149.057 94.1704 156.353 93.547 148.466 96.0169C149.513 96.2607 153.8 97.1294 147.724 97.2242" stroke="white" stroke-linecap="round" stroke-linejoin="round"/>
<path d="M94.7118 96.4269C94.5889 96.2923 94.4319 96.1934 94.2574 96.1406C94.0829 96.0879 93.8974 96.0832 93.7206 96.1272C93.7769 95.9539 93.7855 95.7685 93.7452 95.5908C93.7049 95.413 93.6174 95.2494 93.4918 95.1172C93.3193 94.9226 93.0766 94.8043 92.817 94.7885C92.5574 94.7726 92.3021 94.8604 92.1072 95.0326L85.667 101.032C85.4814 101.214 85.3757 101.462 85.3731 101.722C85.3705 101.982 85.4713 102.233 85.6533 102.419C85.7762 102.553 85.9331 102.652 86.1076 102.705C86.2821 102.758 86.4676 102.762 86.6445 102.718C86.5899 102.892 86.5824 103.077 86.6225 103.254C86.6627 103.432 86.7492 103.595 86.8732 103.728C86.9972 103.862 87.1542 103.959 87.3284 104.012C87.5025 104.065 87.6874 104.07 87.8644 104.028C87.808 104.201 87.7995 104.387 87.8398 104.565C87.88 104.742 87.9676 104.906 88.0931 105.038C88.2656 105.233 88.5083 105.351 88.7679 105.367C89.0275 105.383 89.2828 105.295 89.4777 105.123L95.918 99.1237C96.1036 98.9415 96.2093 98.693 96.2119 98.433C96.2144 98.1729 96.1137 97.9224 95.9317 97.7366C95.8088 97.602 95.6518 97.5031 95.4773 97.4503C95.3029 97.3975 95.1174 97.3929 94.9405 97.4369C94.9969 97.2635 95.0054 97.0782 94.9651 96.9004C94.9249 96.7226 94.8373 96.5591 94.7118 96.4269Z" fill="#7967E9"/>
<path d="M92.6977 102.123L89.4775 105.123C89.4775 105.123 91.1374 105.827 91.3947 105.779C91.6519 105.731 91.7545 105.635 92.024 105.384C92.2934 105.133 94.0113 103.533 94.0113 103.533C94.0113 103.533 95.7291 101.933 95.9986 101.682C96.268 101.431 96.3707 101.336 96.4367 101.082C96.5027 100.829 95.9178 99.1235 95.9178 99.1235L92.6977 102.123Z" fill="#8E7DFB"/>
<path d="M93.0386 96.7622L87.3262 102.083" stroke="#8E7DFB" stroke-linecap="round" stroke-linejoin="round"/>
<path d="M94.2583 98.072L88.5459 103.393" stroke="#8E7DFB" stroke-linecap="round" stroke-linejoin="round"/>
<path d="M88.103 81.4522C86.9236 80.186 85.4555 79.2239 83.8238 78.6479C82.1921 78.0719 80.4453 77.8992 78.7324 78.1444C77.0196 78.3897 75.3914 79.0457 73.9869 80.0564C72.5824 81.0671 71.4433 82.4026 70.6666 83.9488C69.89 85.4951 69.4989 87.2063 69.5268 88.9364C69.5546 90.6666 70.0006 92.3643 70.8267 93.8848C71.6527 95.4052 72.8343 96.7033 74.2706 97.6683C75.7069 98.6332 77.3553 99.2364 79.0752 99.4264C79.105 99.4296 79.2331 99.4333 79.2686 99.435C82.7779 99.6096 85.1438 100.471 85.6662 101.032L88.8863 98.0321L92.1064 95.0325C91.5849 94.4727 90.9061 92.055 90.978 88.5515C90.9788 88.5102 90.9741 88.3929 90.9733 88.3721C90.883 85.7947 89.8635 83.3369 88.103 81.4522Z" fill="#EBE9F7"/>
<path d="M86.0275 100.695C84.8412 99.8114 82.6078 99.2565 79.8031 99.076L79.362 99.0312C77.4306 98.8342 75.5968 98.085 74.08 96.8731C72.5633 95.6612 71.4278 94.038 70.8094 92.1977C70.1911 90.3574 70.116 88.3779 70.5932 86.496C71.0704 84.6141 72.0797 82.9096 73.5003 81.5863C74.9209 80.263 76.6927 79.377 78.6036 79.0344C80.5146 78.6917 82.4838 78.9068 84.2757 79.6541C86.0676 80.4013 87.6063 81.6489 88.7076 83.2477C89.809 84.8466 90.4264 86.7288 90.486 88.6693L90.4995 89.1137C90.4809 91.9236 90.9551 94.2749 91.6733 95.4359L86.0275 100.695Z" fill="#E1DDF8"/>
<path d="M78.6465 79.031C81.4572 79.1742 84.1016 80.4069 86.0185 82.4675C87.8136 84.3946 88.6407 87.0958 88.7206 89.726L88.735 90.2036C88.7151 93.2233 89.2247 95.7502 89.9965 96.998L91.6734 95.436C90.9553 94.275 90.4811 91.9237 90.4996 89.1138L90.4861 88.6694C90.442 87.2221 90.0871 85.8012 89.4455 84.5031C88.804 83.205 87.8907 82.0601 86.7678 81.1459C85.6449 80.2318 84.3385 79.5698 82.9372 79.2049C81.536 78.8399 80.0727 78.7806 78.6465 79.031Z" fill="#D4CEF8"/>
<path d="M71.0747 90.776C71.2728 91.6364 71.8384 92.2406 72.338 92.1256C72.8376 92.0105 73.0819 91.2198 72.8838 90.3594C72.6856 89.499 72.12 88.8949 71.6205 89.0099C71.1209 89.1249 70.8765 89.9157 71.0747 90.776Z" fill="white"/>
<path d="M87.6099 98.3432C87.6099 98.3432 83.8631 94.3208 83.2177 93.6279C82.1779 92.5116 80.5675 91.9791 78.583 91.9324M89.2878 96.7802C89.2878 96.7802 85.541 92.7578 84.8956 92.065C83.8558 90.9487 83.4387 89.3046 83.5328 87.3218" stroke="#D4CEF8" stroke-width="2" stroke-linecap="round" stroke-linejoin="round"/>
<path d="M78.5428 91.2724C78.0352 91.2419 70.9844 89.9497 78.0902 90.0405C77.4941 89.7091 72.3118 85.4063 78.7202 89.0703C78.057 88.1783 74.512 83.1891 79.2186 87.9589C78.5182 86.7182 76.5523 81.9835 79.9929 87.1179C79.7022 85.5195 78.9869 81.2014 81.1668 86.5516C80.9856 85.7139 81.8635 80.439 82.1852 86.4657C82.5469 85.7693 83.9364 82.8934 82.9052 87.2088" stroke="white" stroke-linecap="round" stroke-linejoin="round"/>
<path d="M123.2 82.1265C123.138 81.7028 122.963 81.3036 122.693 80.9713C122.423 80.6389 122.068 80.3856 121.666 80.2383C122.004 79.9752 122.264 79.6258 122.42 79.2269C122.576 78.828 122.621 78.3944 122.551 77.972C122.349 76.6828 121.193 75.7929 119.968 75.9844L99.5384 79.1777C98.3135 79.3691 97.4839 80.5694 97.6854 81.8586C97.7473 82.2823 97.9226 82.6815 98.1926 83.0139C98.4626 83.3462 98.8174 83.5995 99.2195 83.7468C98.8849 84.0127 98.6268 84.3624 98.4713 84.7606C98.3159 85.1587 98.2688 85.5908 98.3348 86.0131C98.4008 86.4353 98.5776 86.8325 98.847 87.1642C99.1165 87.4959 99.4691 87.7502 99.8689 87.9013C99.5309 88.1643 99.2703 88.5137 99.1146 88.9126C98.9589 89.3116 98.9138 89.7451 98.9842 90.1675C99.1857 91.4567 100.342 92.3466 101.567 92.1552L121.996 88.9619C123.221 88.7705 124.051 87.5702 123.849 86.281C123.787 85.8573 123.612 85.4581 123.342 85.1257C123.072 84.7934 122.717 84.5401 122.315 84.3928C122.653 84.1298 122.914 83.7803 123.07 83.3814C123.225 82.9825 123.27 82.5489 123.2 82.1265Z" fill="#7967E9"/>
<path d="M111.782 90.5585L101.567 92.1552C101.567 92.1552 103.87 95.7109 104.434 95.9564C104.997 96.2019 105.323 96.151 106.177 96.0174C107.032 95.8838 112.481 95.032 112.481 95.032C112.481 95.032 117.931 94.1802 118.786 94.0466C119.64 93.913 119.966 93.8622 120.428 93.4564C120.889 93.0507 121.997 88.9619 121.997 88.9619L111.782 90.5585Z" fill="#8E7DFB"/>
<path d="M119.503 80.5762L101.382 83.4087" stroke="#8E7DFB" stroke-width="2" stroke-linecap="round" stroke-linejoin="round"/>
<path d="M120.152 84.7307L102.031 87.5631" stroke="#8E7DFB" stroke-width="2" stroke-linecap="round" stroke-linejoin="round"/>
<path d="M130.059 44.2893C129.431 40.2728 127.841 36.4677 125.425 33.1987C123.008 29.9297 119.837 27.2937 116.181 25.5157C112.525 23.7377 108.493 22.8704 104.43 22.9878C100.366 23.1052 96.3916 24.2039 92.8445 26.19C89.2975 28.1762 86.2836 30.9909 84.0599 34.394C81.8362 37.7971 80.4687 41.6876 80.0741 45.7337C79.6795 49.7797 80.2695 53.8611 81.7937 57.6298C83.318 61.3984 85.7312 64.7424 88.8276 67.3765C88.8814 67.4222 89.1258 67.5977 89.1926 67.6479C95.7909 72.6081 99.2605 77.3986 99.5386 79.1776L109.753 77.581L119.968 75.9843C119.691 74.2083 121.553 68.6102 126.305 61.888C126.362 61.8087 126.507 61.5743 126.533 61.5328C129.75 56.3989 131.003 50.2743 130.059 44.2893Z" fill="#583EFF"/>
<path d="M100.618 79.0088C99.4503 75.6618 95.7627 71.5609 90.4382 67.4357L89.623 66.7543C85.1201 62.9909 82.1386 57.7191 81.2341 51.9208C79.1722 38.7292 88.2267 26.3197 101.418 24.2577C114.61 22.1959 127.019 31.2504 129.081 44.442C129.989 50.2398 128.759 56.17 125.619 61.1279L125.049 62.028C121.238 67.5803 119.021 72.8842 118.888 76.1532L100.618 79.0088Z" fill="#2706FC"/>
<path d="M115.065 26.0957C120.451 30.155 124.044 36.1532 125.082 42.8178C126.056 49.0538 124.07 55.5261 120.696 60.8539L120.083 61.8212C115.988 67.7882 113.606 73.4882 113.462 77.0013L118.888 76.1532C119.022 72.8842 121.239 67.5803 125.049 62.028L125.619 61.1279C127.476 58.1959 128.68 54.899 129.15 51.4609C129.62 48.0227 129.345 44.5236 128.344 41.201C127.343 37.8784 125.639 34.8099 123.348 32.2036C121.057 29.5974 118.232 27.5143 115.065 26.0957Z" fill="#2000ED"/>
<path d="M84.2611 39.2385C83.4988 41.2123 83.8099 43.1712 84.9561 43.6138C86.1021 44.0564 87.6492 42.8151 88.4114 40.8413C89.1737 38.8675 88.8626 36.9086 87.7165 36.466C86.5704 36.0234 85.0234 37.2647 84.2611 39.2385Z" fill="white"/>
<path d="M106.859 76.5051C106.859 76.5051 104.864 63.7454 104.521 61.5475C103.967 58.0066 101.535 54.8501 97.7354 52.1464M112.182 75.6732C112.182 75.6732 110.187 62.9134 109.844 60.7155C109.29 57.1746 110.643 53.4265 113.437 49.6921" stroke="#583EFF" stroke-width="4" stroke-linecap="round" stroke-linejoin="round"/>
<path d="M98.5271 50.8098C97.5794 50.0823 85.5617 38.2846 99.2684 47.8169C98.5446 46.3873 94.1264 31.1919 101.771 46.7585C101.656 44.1498 101.327 29.7746 104.205 45.2524C104.475 41.9162 106.884 30.1152 106.818 44.6354C108.357 41.1427 112.651 31.7989 109.848 45.0792C110.598 43.2107 119.252 34.1028 111.943 46.2528C113.563 45.374 120.053 41.6077 112.365 48.6468" stroke="white" stroke-width="2" stroke-linecap="round" stroke-linejoin="round"/>
<path d="M99.5184 21.2334L97.5186 12.3479" stroke="#583EFF" stroke-width="4" stroke-linecap="round" stroke-linejoin="round"/>
<path d="M116.045 18.976L118.229 12.3479" stroke="#583EFF" stroke-width="4" stroke-linecap="round" stroke-linejoin="round"/>
<path d="M135.29 45.8041L142.213 44.9209" stroke="#583EFF" stroke-width="4" stroke-linecap="round" stroke-linejoin="round"/>
<path d="M130.104 64.8738L138.752 69.8623" stroke="#583EFF" stroke-width="4" stroke-linecap="round" stroke-linejoin="round"/>
<path d="M129.373 29.8055L137.427 22.9749" stroke="#583EFF" stroke-width="4" stroke-linecap="round" stroke-linejoin="round"/>
<path d="M82.2265 27.7933L78.084 23.9651" stroke="#583EFF" stroke-width="4" stroke-linecap="round" stroke-linejoin="round"/>
<path d="M105.352 65.0481C115.01 64.9407 122.753 57.0239 122.646 47.3655C122.538 37.707 114.621 29.9643 104.963 30.0717C95.3044 30.1791 87.5617 38.0959 87.669 47.7543C87.7764 57.4128 95.6932 65.1555 105.352 65.0481Z" fill="#583EFF"/>
<path d="M105.362 64.25C114.58 64.1369 121.96 56.5729 121.847 47.3553C121.734 38.1377 114.17 30.7571 104.953 30.8702C95.735 30.9833 88.3544 38.5473 88.4675 47.7649C88.5806 56.9824 96.1446 64.3631 105.362 64.25Z" fill="#705AFF"/>
<path d="M105.347 61.2119C112.886 61.1072 118.914 54.9101 118.809 47.3704C118.704 39.8307 112.507 33.8035 104.967 33.9082C97.4276 34.013 91.4004 40.21 91.5051 47.7498C91.6099 55.2895 97.8069 61.3167 105.347 61.2119Z" fill="white"/>
<path d="M105.465 58.1708C111.325 58.0009 115.938 53.1127 115.768 47.2525C115.598 41.3924 110.71 36.7795 104.85 36.9493C98.9898 37.1192 94.3769 42.0074 94.5468 47.8676C94.7166 53.7277 99.6048 58.3406 105.465 58.1708Z" fill="#705AFF"/>
<path d="M97.5791 47.56C97.5791 46.0613 98.0236 44.5963 98.8562 43.3502C99.6889 42.1041 100.872 41.1329 102.257 40.5594C103.642 39.9859 105.165 39.8359 106.635 40.1283C108.105 40.4207 109.455 41.1424 110.515 42.2021C111.574 43.2618 112.296 44.612 112.589 46.0819C112.881 47.5518 112.731 49.0754 112.157 50.46C111.584 51.8445 110.613 53.028 109.366 53.8606C108.12 54.6932 106.655 55.1377 105.157 55.1377C103.147 55.1377 101.22 54.3393 99.7985 52.9182C98.3774 51.4971 97.5791 49.5697 97.5791 47.56Z" fill="white"/>
<path d="M100.617 47.5601C100.617 46.6622 100.883 45.7845 101.382 45.038C101.881 44.2915 102.59 43.7096 103.42 43.366C104.249 43.0224 105.162 42.9326 106.043 43.1078C106.923 43.283 107.732 43.7153 108.367 44.3503C109.002 44.9852 109.434 45.7941 109.609 46.6747C109.785 47.5553 109.695 48.4681 109.351 49.2976C109.007 50.1272 108.426 50.8362 107.679 51.335C106.932 51.8338 106.055 52.1 105.157 52.1C104.561 52.1 103.97 51.9826 103.42 51.7544C102.869 51.5263 102.368 51.1919 101.947 50.7703C101.525 50.3487 101.191 49.8482 100.963 49.2974C100.735 48.7466 100.617 48.1563 100.617 47.5601Z" fill="#705AFF"/>
<path style="mix-blend-mode:multiply" d="M93.8174 60.5799L94.7566 61.3308C98.4828 56.6951 102.263 51.9662 104.996 47.5601C101.299 51.1958 97.5189 55.9246 93.8174 60.5799Z" fill="url(#paint0_linear_1294_3)"/>
<path d="M61.8539 58.0851C62.0482 57.8662 63.1134 57.5757 63.995 56.8856C65.3176 55.8503 66.5697 54.1485 65.6277 53.3144C64.6857 52.4803 62.5081 55.323 62.1263 55.0814C61.8004 54.8751 61.9805 53.505 61.7444 53.3593C61.5082 53.2137 61.3878 54.941 61.0214 55.6585C60.8056 56.0811 60.8596 56.5907 60.5 56.9466C60.6313 57.0497 61.8539 58.0851 61.8539 58.0851Z" fill="#CFC9F7"/>
<path d="M43.9033 78.1691C45.1861 71.5327 47.2367 67.1709 49.5474 64.1042C50.6074 62.1058 60.4994 56.6709 60.4994 56.6709C61.0781 57.2449 62.1212 58.0852 62.1212 58.0852C62.1212 58.0852 54.7426 64.6211 53.0228 67.6883C51.6933 70.0594 50.5382 74.4726 50.8182 74.4217L43.9033 78.1691Z" fill="#6352CC"/>
<path d="M18.8711 61.2073C17.5674 65.3239 22.0466 71.0126 27.6932 70.1195C33.3399 69.2264 40.1451 57.8425 40.1451 57.8425L18.8711 61.2073Z" fill="#563FE8"/>
<path d="M18.8705 61.2073C16.3602 57.694 18.8651 50.9006 24.5118 50.0075C30.1584 49.1144 40.1446 57.8425 40.1446 57.8425L18.8705 61.2073Z" fill="#705AFF"/>
<path d="M18.1413 61.9356L60.8466 55.688L62.6629 54.4175L60.5011 53.5034L17.9521 60.7399L18.1413 61.9356Z" fill="#6352CC"/>
<path d="M18.9102 61.4544C19.0937 64.0515 21.44 67.1775 27.0867 66.2844C32.7333 65.3913 40.1842 58.0896 40.1842 58.0896L18.9102 61.4544Z" fill="#705AFF"/>
<path d="M18.8314 60.9599C18.2046 58.4329 19.4716 54.7354 25.1183 53.8423C30.765 52.9492 40.1055 57.5952 40.1055 57.5952L18.8314 60.9599Z" fill="#563FE8"/>
<path d="M88.124 49.6454L88.3119 50.8331C94.1889 49.9195 100.169 48.9737 105.157 47.5601C99.976 47.7549 93.9961 48.7007 88.124 49.6454Z" fill="#C1BBE6"/>
<path d="M61.1401 54.7747C60.393 54.5999 60.4162 55.3749 60.8467 55.6879C61.0557 55.4311 61.1604 55.1051 61.1401 54.7747ZM83.8288 50.9334C83.6601 49.8669 83.0167 48.2298 81.783 48.0254C79.7837 48.3416 67.9422 50.2145 66.5355 50.437C67.7692 50.6413 68.4127 52.2785 68.5813 53.345C68.7686 54.5292 68.7049 56.557 67.7123 56.714C69.9755 56.356 81.1764 54.5844 82.9597 54.3024C83.9523 54.1454 84.0161 52.1176 83.8288 50.9334Z" fill="#6352CC"/>
<path d="M68.5811 53.3451C68.4125 52.2787 67.769 50.6415 66.5353 50.4372C65.1287 50.6596 61.3503 52.8538 60.501 53.5034C61.1628 53.8178 61.3693 55.1236 60.8465 55.688C61.8985 56.1586 65.9641 56.9906 67.4644 56.7533C67.5279 56.7433 67.612 56.73 67.7121 56.7142C68.7047 56.5571 68.7684 54.5294 68.5811 53.3451ZM88.9348 49.5131C87.1239 48.7358 83.7821 47.7094 81.7828 48.0256C83.0165 48.2299 83.6599 49.8671 83.8286 50.9336C84.0159 52.1178 83.9521 54.1456 82.9595 54.3026C84.8217 54.008 87.6693 51.9518 89.1239 50.7088C89.437 50.3708 89.2112 49.6317 88.9348 49.5131Z" fill="#E1DDF8"/>
<path d="M83.9107 52.04C81.7337 52.3844 70.6874 54.1315 68.7537 54.4373C68.7249 54.4419 68.6933 54.4463 68.6632 54.4509C68.6627 55.4989 68.433 56.6 67.7119 56.714C69.9751 56.3561 81.1761 54.5845 82.9594 54.3025C83.6803 54.1884 83.91 53.0878 83.9107 52.04Z" fill="#4D3EAF"/>
<path d="M67.7123 56.7141C68.4333 56.6001 68.663 55.4989 68.6636 54.4509C66.6485 54.7532 61.8795 54.9488 61.1417 54.7751L61.1401 54.7748C61.1604 55.1053 61.0556 55.4313 60.8467 55.688C61.8987 56.1586 65.9643 56.9906 67.4646 56.7533C67.5281 56.7433 67.6122 56.73 67.7123 56.7141Z" fill="#D4CEF8"/>
<path d="M81.7832 48.0254C83.0169 48.2298 83.6603 49.8669 83.829 50.9334C83.8847 51.2996 83.9122 51.6695 83.9112 52.04C83.9409 52.0352 83.9754 52.0298 84.0018 52.0256C85.8521 51.733 88.2765 50.2015 89.2552 50.0618C89.2081 49.8068 89.0797 49.5749 88.9352 49.5129" fill="#E1DDF8"/>
<path d="M84.0018 52.0258C83.9754 52.03 83.9409 52.0354 83.9113 52.0401C83.9106 53.0879 83.6809 54.1885 82.96 54.3026C84.8221 54.008 87.6697 51.9518 89.1244 50.7088C89.1939 50.618 89.2418 50.5126 89.2645 50.4005C89.2872 50.2884 89.284 50.1727 89.2553 50.062C88.2765 50.2017 85.8522 51.7331 84.0018 52.0258Z" fill="#D4CEF8"/>
<path d="M24.7891 137.035L26.6873 138.253C28.8619 136.636 40.0017 130.583 44.3826 125.007L38.6098 121.404C34.2666 124.011 26.9329 134.474 24.7891 137.035ZM51.7114 97.1906C47.9112 96.6931 40.5761 95.7329 40.5761 95.7329C37.6134 103.33 39.4462 112.749 38.6098 121.404L44.3826 125.007C46.0074 120.069 51.5565 108.527 51.7114 97.1906Z" fill="#3C2E94"/>
<path d="M23.9014 137.446C24.2042 137.325 24.5005 137.188 24.7891 137.035L26.6873 138.253C26.1566 138.671 25.7519 139.057 25.6526 139.372C25.0375 139.245 24.6291 138.292 23.9014 137.446Z" fill="#C6C0F0"/>
<path d="M23.901 137.446C24.6287 138.292 25.0371 139.244 25.6522 139.372C25.7919 139.729 28.7524 143.584 28.9726 144.104C29.1967 144.635 28.8655 145.023 28.4409 144.75C27.8205 144.352 22.8532 140.848 22.8532 140.848C22.6777 140.894 22.5214 140.952 22.5214 140.952L21.3535 140.203C21.3925 139.376 22.6497 137.624 23.901 137.446Z" fill="#25196F"/>
<path d="M44.4303 96.2341C42.6868 107.853 48.4086 111.13 53.3731 122.117C53.7482 126.37 56.8742 142.944 57.0273 144.937H59.2823C60.5091 139.571 61.2897 119.821 57.0273 97.8716C53.2262 97.3775 44.4303 96.2341 44.4303 96.2341Z" fill="#4D3EAF"/>
<path d="M57.0335 145.762C57.0273 145.387 57.0273 144.937 57.0273 144.937H59.2823C59.1979 145.575 59.4607 146.118 59.5472 146.437C58.9608 146.662 58.1025 146.081 57.0335 145.762Z" fill="#C6C0F0"/>
<path d="M57.0337 145.762C58.1026 146.081 58.961 146.662 59.5474 146.437C59.8581 146.662 64.4313 148.308 64.8974 148.626C65.3733 148.952 65.304 149.458 64.7993 149.458C64.0621 149.458 57.989 149.191 57.989 149.191C57.8663 149.324 57.766 149.458 57.766 149.458H56.3776C55.9644 148.741 56.0762 146.588 57.0337 145.762Z" fill="#25196F"/>
<path d="M77.0123 57.9723C77.1484 57.7132 78.1128 57.1757 78.8031 56.2942C79.8387 54.9719 80.6461 53.0194 79.5315 52.4356C78.4169 51.8518 76.9848 55.134 76.5562 54.991C76.1903 54.8689 76.0365 53.4956 75.7723 53.4108C75.508 53.3261 75.8056 55.0319 75.622 55.8163C75.5139 56.2784 75.6885 56.7601 75.4248 57.1919C75.577 57.2604 77.0123 57.9723 77.0123 57.9723Z" fill="#CFC9F7"/>
<path d="M75.2238 57.1116C75.2238 57.1116 70.53 67.5634 69.6348 68.8729C67.889 70.0242 62.0536 73.7618 59.147 73.0218C56.4392 72.3324 54.9084 72.3471 53.3713 71.8427C47.8166 70.0199 45.6904 72.9229 44.1164 76.4836C42.9915 79.0282 40.9914 86.1957 40.5361 95.7277L57.0275 97.8714C57.1016 92.3116 58.1719 88.1078 58.3858 82.4881C66.1042 79.0002 72.5782 72.1271 72.9784 71.6824C74.1048 70.4309 76.9102 58.9186 77.2043 58.0712C77.2043 58.0712 75.5767 57.2244 75.2238 57.1116Z" fill="url(#paint1_linear_1294_3)"/>
<path d="M53.7654 70.5637C53.896 71.212 54.0497 72.1545 54.0497 72.1545C50.6805 72.3732 48.9926 72.0048 49.4578 71.3334C49.9222 70.0832 50.4738 67.2959 50.4738 67.2959L53.7654 70.5637Z" fill="#CFC9F7"/>
<path d="M57.4853 63.5105C57.4158 64.9385 57.3194 69.2357 56.1581 70.513C55.2057 71.562 53.7925 71.4387 51.7751 70.1662C49.7566 68.8934 50.6236 64.8819 50.6111 63.661C50.5924 61.7276 57.5864 61.4388 57.4853 63.5105Z" fill="#CFC9F7"/>
<path d="M50.5186 61.0475C53.4129 58.4366 53.1169 59.8783 52.73 60.3279C55.3951 58.9445 59.1161 58.4389 59.909 59.0398C60.702 59.6407 60.9535 61.5421 58.9965 62.8483C57.039 64.1554 56.7741 63.4225 55.8208 63.4895C54.8675 63.5577 55.2009 65.336 55.1812 65.7384C55.1762 65.8371 55.0145 65.9046 54.9287 65.8525C54.5111 65.6013 54.2861 65.5795 54.1289 65.8813C53.9521 66.2209 53.9411 66.8463 54.2629 67.0685C54.4167 67.1711 54.6024 67.2145 54.7857 67.1908C53.3967 70.05 50.7107 68.4375 50.2662 68.2634C49.5946 67.9996 47.6251 63.6583 50.5186 61.0475Z" fill="#181147"/>
<path d="M61.737 31.6561L61.1263 33.0236C60.6519 34.0859 59.5724 34.8703 58.0598 35.0829C55.3238 35.4675 52.189 33.838 51.0734 31.4514C50.5746 30.3843 50.5625 29.3434 50.9462 28.4843L51.5569 27.1167C51.1732 27.9758 51.1853 29.0167 51.6841 30.0839C52.7997 32.4704 55.9345 34.0999 58.6705 33.7154C60.1832 33.5028 61.2627 32.7184 61.737 31.6561Z" fill="#1F00E1"/>
<path d="M54.623 25.0574C57.359 24.6729 60.4938 26.3023 61.6094 28.6889C62.725 31.0755 61.4062 33.3308 58.6702 33.7154C55.9341 34.0999 52.7994 32.4705 51.6837 30.0839C50.5681 27.6973 51.887 25.4419 54.623 25.0574Z" fill="#2706FC"/>
<path d="M55.7307 25.939L55.9978 26.5258C56.8458 26.5829 57.7013 27.118 58.0346 27.8503L57.1935 27.9686C57.0712 27.7366 56.8817 27.547 56.6499 27.4244C56.4181 27.3018 56.1548 27.2519 55.8942 27.2814C55.3825 27.3533 55.1367 27.7787 55.3416 28.2288C55.4551 28.4637 55.6433 28.6543 55.8767 28.7708C56.1092 28.8986 56.3759 28.9503 56.6394 28.9186C57.6147 28.7815 58.7267 29.3711 59.1191 30.2333C59.4525 30.9657 59.1577 31.6624 58.4605 31.9367L58.7071 32.4787L57.8661 32.5969L57.6194 32.0549C56.7738 31.9974 55.9185 31.4623 55.5851 30.73L56.4262 30.6118C56.548 30.8436 56.7369 31.0333 56.9683 31.156C57.1997 31.2787 57.4627 31.3286 57.723 31.2993C58.2347 31.2274 58.483 30.8017 58.2781 30.3515C58.156 30.119 57.9665 29.9289 57.7345 29.8058C57.5025 29.6828 57.2388 29.6327 56.9778 29.6621C56.4747 29.7217 55.9656 29.6234 55.5209 29.3807C55.0768 29.1572 54.7183 28.794 54.5006 28.347C54.1672 27.6147 54.462 26.9179 55.1567 26.644L54.8896 26.0572L55.7307 25.939Z" fill="#583EFF"/>
<g style="mix-blend-mode:screen">
<path d="M54.623 25.0576C51.887 25.4421 50.5681 27.6975 51.6838 30.084C52.1717 31.0673 52.9152 31.9011 53.8363 32.4982L59.9843 26.6642C58.5161 25.4642 56.4787 24.7968 54.623 25.0576Z" fill="#4C4C4C"/>
</g>
<path d="M152.995 54.6599L153.828 55.8434C154.529 56.8386 154.386 58.3739 153.308 59.8408C151.79 61.9056 148.984 63.0645 147.053 62.4258C146.541 62.2697 146.095 61.9512 145.781 61.5185L144.948 60.3351C145.262 60.7677 145.709 61.0862 146.22 61.2423C148.151 61.8811 150.957 60.7222 152.475 58.6573C153.553 57.1904 153.696 55.6551 152.995 54.6599Z" fill="#1F00E1"/>
<path d="M151.725 53.7533C153.657 54.392 153.993 56.5924 152.476 58.6574C150.958 60.7222 148.152 61.8811 146.22 61.2424C144.289 60.6037 143.95 58.4052 145.468 56.3402C146.986 54.2754 149.794 53.1146 151.725 53.7533Z" fill="#2706FC"/>
<path d="M151.11 54.6824L150.747 55.187C151.195 55.5083 151.223 56.1709 150.77 56.8006L150.171 56.6059C150.449 56.2189 150.381 55.8069 150.016 55.6885C149.652 55.57 149.128 55.7897 148.85 56.1767C148.723 56.3347 148.663 56.5365 148.684 56.7382C148.697 56.8221 148.734 56.9005 148.791 56.964C148.848 57.0274 148.921 57.0733 149.003 57.0961C149.698 57.3218 149.829 58.1081 149.297 58.8475C148.842 59.4791 148.053 59.8736 147.398 59.8392L147.063 60.3052L146.464 60.1106L146.799 59.6446C146.353 59.3213 146.325 58.6612 146.779 58.0296L147.377 58.2237C147.097 58.6126 147.165 59.0246 147.53 59.143C147.894 59.2615 148.418 59.0418 148.698 58.6528C148.976 58.2658 148.907 57.8538 148.543 57.7354C148.387 57.6914 148.247 57.6036 148.14 57.4824C148.032 57.3612 147.962 57.2116 147.937 57.0516C147.917 56.8615 147.934 56.6692 147.988 56.4857C148.043 56.3023 148.132 56.1313 148.253 55.9827C148.706 55.353 149.495 54.956 150.148 54.9923L150.511 54.4878L151.11 54.6824Z" fill="#583EFF"/>
<g style="mix-blend-mode:screen">
<path d="M152.928 54.5761C152.619 54.1874 152.2 53.9007 151.726 53.7533C149.794 53.1146 146.987 54.2754 145.469 56.3402C144.944 57.0127 144.619 57.8188 144.529 58.667L152.928 54.5761Z" fill="#4C4C4C"/>
</g>
<path d="M109.205 117.299L109.288 118.482C109.354 119.4 108.893 120.35 107.916 121.063C106.15 122.352 103.354 122.384 101.685 121.134C100.938 120.575 100.542 119.853 100.489 119.111L100.405 117.928C100.458 118.671 100.855 119.393 101.601 119.952C103.27 121.202 106.066 121.17 107.832 119.881C108.809 119.168 109.27 118.218 109.205 117.299Z" fill="#1F00E1"/>
<path d="M105.034 120.855C107.466 120.683 109.334 119.092 109.207 117.302C109.08 115.511 107.006 114.2 104.575 114.372C102.144 114.544 100.276 116.135 100.403 117.926C100.53 119.716 102.603 121.028 105.034 120.855Z" fill="#2706FC"/>
<path d="M102.88 115.549L103.285 115.859C103.592 115.72 103.929 115.662 104.265 115.691C104.6 115.72 104.923 115.834 105.201 116.024L104.658 116.42C104.486 116.304 104.283 116.242 104.076 116.243C103.868 116.244 103.666 116.307 103.495 116.425C103.164 116.666 103.152 117.055 103.463 117.292C103.629 117.414 103.832 117.477 104.038 117.471C104.248 117.474 104.454 117.41 104.626 117.29C105.255 116.83 106.251 116.827 106.847 117.282C106.962 117.358 107.059 117.458 107.131 117.575C107.204 117.691 107.25 117.823 107.267 117.959C107.284 118.096 107.27 118.234 107.228 118.365C107.186 118.496 107.116 118.616 107.023 118.717L107.397 119.003L106.854 119.4L106.48 119.113C106.173 119.252 105.836 119.309 105.501 119.28C105.166 119.251 104.844 119.137 104.565 118.947L105.108 118.551C105.28 118.668 105.483 118.729 105.69 118.729C105.897 118.728 106.099 118.665 106.27 118.547C106.6 118.306 106.615 117.916 106.304 117.679C106.132 117.562 105.929 117.5 105.721 117.501C105.513 117.501 105.31 117.565 105.139 117.682C104.81 117.912 104.418 118.033 104.017 118.03C103.624 118.039 103.238 117.919 102.92 117.689C102.805 117.613 102.708 117.514 102.635 117.397C102.563 117.28 102.516 117.149 102.5 117.013C102.483 116.876 102.496 116.738 102.538 116.607C102.579 116.476 102.649 116.356 102.742 116.255L102.337 115.945L102.88 115.549Z" fill="#583EFF"/>
<g style="mix-blend-mode:screen">
<path d="M101.778 115.347C100.011 116.636 99.9321 118.702 101.601 119.952C102.308 120.456 103.139 120.761 104.004 120.834L106.119 114.468C104.647 114.178 102.976 114.473 101.778 115.347Z" fill="#4C4C4C"/>
</g>
<path d="M106.618 145.614L104.153 144.634C104.092 144.61 104.024 144.602 103.959 144.611C103.893 144.621 103.831 144.648 103.779 144.689L101.698 146.333C101.646 146.375 101.606 146.429 101.581 146.491C101.557 146.552 101.549 146.619 101.559 146.685L101.943 149.309C101.953 149.375 101.979 149.437 102.021 149.489C102.062 149.541 102.116 149.581 102.178 149.606L104.642 150.585C104.704 150.61 104.771 150.618 104.836 150.608C104.902 150.599 104.964 150.572 105.016 150.531L107.097 148.886C107.149 148.845 107.189 148.791 107.214 148.729C107.238 148.667 107.246 148.6 107.237 148.534L106.853 145.91C106.843 145.844 106.816 145.783 106.775 145.73C106.734 145.678 106.68 145.638 106.618 145.614Z" fill="#8E7DFB"/>
<path d="M31.7968 25.2625L34.7551 28.5949C34.8282 28.6772 34.9216 28.7388 35.026 28.7736C35.1304 28.8083 35.2422 28.815 35.35 28.7928C35.4578 28.7707 35.5578 28.7206 35.6401 28.6475C35.7224 28.5744 35.784 28.4809 35.8187 28.3765L37.2257 24.1486C37.2605 24.0442 37.2671 23.9324 37.2451 23.8246C37.223 23.7168 37.1729 23.6167 37.0998 23.5344C37.0268 23.4521 36.9333 23.3905 36.8289 23.3558C36.7245 23.321 36.6128 23.3144 36.505 23.3366L32.1395 24.2322C32.0317 24.2543 31.9316 24.3044 31.8493 24.3775C31.7671 24.4506 31.7054 24.544 31.6707 24.6484C31.636 24.7528 31.6293 24.8646 31.6515 24.9724C31.6736 25.0802 31.7238 25.1802 31.7968 25.2625Z" fill="#E1DDF8"/>
<path d="M136.905 1.26003L134.4 4.94449C134.338 5.03547 134.301 5.14115 134.293 5.25092C134.285 5.36068 134.306 5.47065 134.353 5.56976C134.401 5.66887 134.474 5.75362 134.565 5.81549C134.656 5.87736 134.762 5.91416 134.872 5.92219L139.316 6.24996C139.425 6.25807 139.535 6.23715 139.635 6.18929C139.734 6.14144 139.818 6.06833 139.88 5.97733C139.942 5.88634 139.979 5.78064 139.987 5.67088C139.995 5.56112 139.974 5.45115 139.927 5.35203L137.988 1.33987C137.94 1.24071 137.867 1.15589 137.776 1.09396C137.685 1.03202 137.58 0.995143 137.47 0.987048C137.36 0.978953 137.25 0.999922 137.151 1.04784C137.052 1.09577 136.967 1.16895 136.905 1.26003Z" fill="#8E7DFB"/>
<defs>
<linearGradient id="paint0_linear_1294_3" x1="105.1" y1="47.645" x2="94.2957" y2="60.911" gradientUnits="userSpaceOnUse">
<stop stop-color="#D4CEF8"/>
<stop offset="0.338" stop-color="#E7E4FB"/>
<stop offset="0.731" stop-color="#F9F8FE"/>
<stop offset="1" stop-color="white"/>
</linearGradient>
<linearGradient id="paint1_linear_1294_3" x1="40.5361" y1="77.4915" x2="77.2043" y2="77.4915" gradientUnits="userSpaceOnUse">
<stop stop-color="#8E7DFB"/>
<stop offset="0.463" stop-color="#8776F5"/>
<stop offset="1" stop-color="#7764F0"/>
</linearGradient>
</defs>
</svg>
