<svg width="554" height="554" viewBox="0 0 554 554" fill="none" xmlns="http://www.w3.org/2000/svg">
<path d="M107.958 301.423C107.789 301.146 92.7231 274.022 82.078 255.762C81.8335 255.138 81.3544 254.634 80.7431 254.358C80.1317 254.082 79.4367 254.056 78.8066 254.286C59.015 257.976 41.985 261.072 16.3403 266.036C24.2847 284.903 17.7253 270.862 37.758 313.927C38.0544 314.672 38.3507 315.265 39.3923 314.968C46.9793 313.481 54.5663 312.315 62.1478 310.813C74.6488 308.301 105.13 302.165 107.958 301.423Z" fill="#38A1FF"/>
<path d="M210.132 186.457C209.54 186.457 208.642 185.416 208.498 184.671C207.576 179.917 191.072 90.0861 190.651 88.5931C190.019 86.3771 190.945 84.9921 193.327 84.7151C201.637 83.7483 321.232 70.8651 328.076 70.1393C329.561 69.9842 330.478 70.2806 330.902 71.9232C332.162 76.815 352.297 161.463 353.954 168.746C354.064 169.181 354.075 169.635 353.986 170.075C353.896 170.515 353.709 170.929 353.437 171.286C353.166 171.643 352.817 171.935 352.417 172.138C352.017 172.342 351.577 172.453 351.128 172.463C345.178 172.92 212.215 186.604 210.132 186.457Z" fill="#191919"/>
<path d="M110.484 326.409C109.825 321.799 108.166 318.304 112.271 317.04C115.42 316.068 115.393 316.146 115.393 310.794C115.094 304.936 116.945 299.171 120.597 294.581C122.993 291.099 126.052 288.125 129.599 285.828C133.147 283.531 137.113 281.957 141.27 281.197C148.051 279.767 149.763 278.87 167.892 281.047C174.263 281.812 191.897 285.379 200.024 285.51C210.024 285.67 218.83 282.152 215.783 272.568C211.611 259.375 199.36 253.826 186.186 245.5C179.574 241.32 174.114 237.572 178.898 230.478C181.163 227.349 184.181 224.842 187.673 223.19C197.385 218.099 196.969 218.728 201.8 217.982C201.8 217.686 201.8 217.091 202.096 216.944C204.035 215.456 203.412 213.675 202.988 211.886C202.278 207.884 202.43 203.777 203.434 199.839C203.732 198.754 204.369 197.792 205.252 197.095C206.135 196.397 207.218 196 208.343 195.961C214.75 195.462 354.56 180.804 360.499 180.05C362.704 179.682 364.963 179.826 367.104 180.47C369.244 181.115 371.207 182.243 372.842 183.767C386.199 195.526 411.47 215.165 424.599 226.007C425.872 226.824 426.83 228.049 427.316 229.481C427.803 230.913 427.789 232.467 427.278 233.891C426.649 235.727 426.092 242.043 418.203 242.962C394.257 245.754 296.124 255.56 263.083 259.472C245.702 261.527 227.503 249.585 216.234 236.417C212.554 232.393 209.358 227.951 206.714 223.182C206.418 222.29 204.47 222.423 204.038 221.991C202.997 220.354 201.659 220.949 200.321 221.395C193.161 223.121 186.683 226.956 181.726 232.403C176.225 239.104 187.573 242.123 202.548 252.184C210.747 257.69 219.691 267.56 219.503 277.02C219.38 279.128 218.694 281.165 217.517 282.918C216.34 284.672 214.715 286.078 212.811 286.991C197.085 293.944 169.524 282.479 150.344 283.72C138.433 284.487 128.547 289.111 122.384 299.786C119.82 304.037 118.577 308.954 118.814 313.913C118.814 315.104 119.11 315.996 120.597 316.293C123.426 316.592 123.899 318.963 124.475 321.201C125.262 324.314 125.226 324.248 128.353 323.88C172.264 318.75 154.668 320.046 168.956 318.672C171.025 318.637 173.062 319.191 174.827 320.27C176.593 321.35 178.015 322.909 178.928 324.766C185.499 339.117 209.379 386.423 210.013 394.221C210.306 395.932 209.929 397.691 208.959 399.131C207.989 400.572 206.502 401.583 204.805 401.955C199.203 404.33 193.372 406.124 187.404 407.309C187.077 407.387 129.143 419.528 120.179 420.397C117.498 420.658 108.132 421.143 104.266 419.06C95.0248 416.17 88.0971 399.731 84.1886 390.806C67.07 351.713 67.347 350.641 66.6379 342.768C66.4299 340.947 66.9093 339.114 67.9823 337.628C69.0552 336.142 70.6443 335.111 72.4382 334.735C81.4961 332.447 90.5707 330.519 99.6563 328.489C105.465 327.187 109.944 326.952 110.484 326.409ZM74.6404 354.222C74.3685 354.27 74.1112 354.379 73.888 354.542C73.6648 354.704 73.4817 354.915 73.3526 355.159C73.2235 355.403 73.1519 355.674 73.1432 355.949C73.1345 356.225 73.189 356.5 73.3025 356.751C77.9367 367.216 98.1411 409.401 99.033 410.589C100.141 411.697 203.146 391.318 203.44 391.254C203.752 391.188 204.045 391.052 204.298 390.856C204.55 390.661 204.755 390.411 204.898 390.126C205.041 389.84 205.118 389.526 205.123 389.207C205.128 388.888 205.061 388.572 204.927 388.282C200.019 378.088 182.022 339.646 180.551 336.671C180.371 336.411 180.124 336.204 179.836 336.073C179.547 335.943 179.229 335.893 178.914 335.929C167.308 337.863 90.1081 351.397 74.6404 354.222ZM210.728 222.894C213.809 228.684 217.717 233.995 222.328 238.661C236.633 252.234 252.837 257.053 258.023 256.666C262.779 256.303 406.016 240.807 416.42 239.564C418.124 239.481 419.749 238.816 421.022 237.679C422.295 236.542 423.138 235.002 423.411 233.317C423.649 232.419 423.637 231.472 423.374 230.58C423.112 229.688 422.61 228.886 421.924 228.259C404.594 213.924 387.227 199.307 370.017 184.831C369.162 184.001 368.126 183.38 366.991 183.018C365.855 182.657 364.651 182.564 363.474 182.748C353.089 184.28 224.27 198 209.539 199.556C204.462 200.091 205.783 201.454 207.01 213.833C207.143 215.174 207.902 215.617 209.226 215.617C210.655 215.596 212.057 216.011 213.243 216.808C214.352 217.987 215.167 219.41 215.622 220.963C216.218 222.154 215.622 222.902 214.284 222.902C213.103 223.048 211.908 223.045 210.728 222.894Z" fill="#191919"/>
<path d="M404.974 119.825C403.636 115.362 402.445 111.049 400.957 106.886C400.443 100.312 400.894 93.6985 402.295 87.2552C404.511 86.1472 407.442 92.4877 411.37 96.6233C414.483 99.903 414.938 104.061 416.129 107.928C416.724 109.867 417.317 111.645 417.913 113.578C417.993 113.588 418.075 113.579 418.152 113.553C418.229 113.528 418.3 113.485 418.359 113.429C418.062 111.49 416.871 92.3104 416.871 85.1749C416.871 80.7429 420.22 76.1641 424.458 78.1834C428.522 80.1224 428.862 84.186 429.513 88.7427C432.638 88.4463 433.029 88.7427 433.668 91.8672C434.307 95.1084 434.307 98.443 433.668 101.684C433.361 102.908 432.962 103.413 432.181 103.022C431.882 99.144 430.99 91.2717 430.84 91.2717C430.572 92.2986 430.374 93.3425 430.247 94.3962C430.694 101.386 431.289 108.376 432.031 115.365C432.031 115.781 432.436 117.916 433.668 117.304C435.575 106.162 438.11 95.1363 441.261 84.2802C442.009 81.3689 444.086 78.6433 447.061 79.6682C447.856 80.1877 448.478 80.9317 448.849 81.8057C449.22 82.6796 449.323 83.6441 449.144 84.5766C449.144 84.873 448.995 85.0226 448.995 85.3217C449.74 85.601 450.374 86.1141 450.803 86.7843C451.232 87.4544 451.433 88.2455 451.374 89.0391C451.449 92.4628 451.449 95.7286 451.374 99.1523C451.346 99.5167 451.187 99.8584 450.925 100.113C450.663 100.368 450.318 100.519 449.953 100.538C449.588 100.556 449.229 100.441 448.943 100.213C448.657 99.9856 448.463 99.6616 448.399 99.3019C448.333 98.2009 448.184 97.1065 447.953 96.0278C440.139 135.101 445.71 116.141 455.092 96.4737C455.919 95.0218 456.918 93.6743 458.067 92.46C459.209 90.7573 460.508 89.1642 461.945 87.7012C462.162 87.3299 462.464 87.0151 462.826 86.7822C463.188 86.5493 463.6 86.4048 464.028 86.3605C465.365 86.3605 465.534 87.2524 465.662 88.5931C466.019 92.3049 466.557 95.881 467.003 99.5983C467.249 100.839 466.828 101.374 458.673 119.379C458.069 120.714 458.673 121.44 459.715 122.057C460.92 122.778 462.244 123.545 463.432 124.138C464.355 124.613 465.091 125.385 465.523 126.33C465.954 127.274 466.056 128.336 465.811 129.345C464.642 136.808 454.839 190.897 453.765 197.609C451.142 213.972 427.234 210.883 411.079 207.426C402.966 205.692 403.536 200.778 401.561 192.258C400.492 187.651 388.293 135.708 386.243 128.304C384.335 121.467 397.974 119.448 404.974 119.825ZM461.205 130.98C437.408 136.038 413.907 136.484 390.706 128.304C397.149 160.511 400.179 169.28 407.96 198.939C408.924 202.62 411.256 202.149 412.569 202.817C430.488 204.756 437.458 206.972 445.438 203.263C446.557 202.86 447.547 202.165 448.305 201.249C449.064 200.334 449.563 199.232 449.751 198.058C460.673 139.608 457.327 153.403 461.188 130.98H461.205ZM404.24 106.141C405.415 113.434 407.405 120.572 410.173 127.42C410.337 127.779 410.594 128.087 410.918 128.312C413.594 128.758 416.27 129.054 419.098 129.354C418.649 127.556 411.749 105.532 411.661 105.255C410.323 101.828 403.63 105.399 404.223 106.141H404.24ZM460.014 101.828C459.271 101.978 458.524 102.59 457.784 102.424C457.186 102.291 456.742 101.382 456.147 100.64C452.13 110.008 447.225 118.922 443.654 128.75C446.33 128.451 448.563 128.154 450.793 127.858C451.876 127.858 452.009 127.204 461.352 105.399C461.845 104.382 460.825 103.21 459.997 101.828H460.014ZM438.449 99.7479C436.366 109.997 434.571 119.528 432.499 129.492C434.582 129.345 435.92 129.196 437.408 129.196C439.873 129.196 438.472 129.259 444.843 101.382C442.596 100.789 440.513 100.341 438.433 99.7479H438.449ZM429.524 129.492C428.585 116.357 427.94 110.271 427.585 104.208C427.397 100.939 426.99 100.33 423.569 100.64C422.664 100.838 421.771 101.086 420.893 101.382C421.785 110.753 422.677 120.124 423.422 129.492H429.524ZM426.849 97.0831C426.253 92.4739 425.685 87.5599 424.766 82.8066C424.189 79.8288 421.195 81.3191 420.749 82.0614C420.157 82.8837 419.845 83.8739 419.857 84.8868C420.095 94.8755 420.749 95.8173 420.749 98.4211C422.816 97.9612 424.599 97.5042 426.832 97.0693L426.849 97.0831ZM408.553 99.6122C405.727 95.2993 405.727 95.2993 403.794 95.8948C402.902 102.587 402.306 101.546 404.24 101.546C405.812 101.264 407.289 100.595 408.536 99.5983L408.553 99.6122ZM459.122 98.1247C461.205 96.9363 461.205 96.9363 463.277 99.9085H463.723C463.577 97.9751 463.428 96.0416 463.277 94.1082C462.499 93.8148 461.704 93.5669 460.897 93.3658C458.064 96.4737 458.064 96.4737 459.105 98.1108L459.122 98.1247Z" fill="#191919"/>
<path d="M31.5088 469.933C30.0783 470.136 28.6264 470.136 27.1959 469.933C26.927 469.872 26.6775 469.745 26.4701 469.563C26.2626 469.381 26.1037 469.15 26.0076 468.892C25.858 468.595 26.4536 468 26.75 467.554C27.2689 467.026 27.898 466.619 28.5922 466.362C29.2864 466.105 30.0288 466.004 30.7665 466.066C56.8488 461.175 480.459 383.797 527.668 374.598C532.039 373.745 534.699 377.983 531.239 378.753C528.167 379.454 31.7858 469.883 31.5088 469.933Z" fill="#191919"/>
<path d="M537.336 391.108C537.853 390.907 538.425 390.903 538.945 391.095C539.465 391.286 539.898 391.661 540.161 392.149C539.865 393.783 538.527 394.088 537.189 394.529C368.496 434.94 50.777 493.285 35.5254 493.285C35.5254 486.922 136.085 478.933 537.336 391.108Z" fill="#191919"/>
<path d="M105.13 234.644C100.975 238.214 89.2302 236.406 85.053 233.752C82.1884 231.931 79.8462 229.397 78.2558 226.399C76.6655 223.4 75.8817 220.04 75.9812 216.647C75.5519 202.271 87.7565 197.501 95.4627 204.005C96.0582 204.451 96.6538 205.046 97.0997 204.005C98.2833 201.73 100.02 199.788 102.149 198.359C104.279 196.93 106.734 196.058 109.288 195.825C124.273 193.238 131.874 191.684 154.353 195.975C161.056 197.254 164.602 202.963 164.02 210.251C163.075 220.767 158.917 230.737 152.109 238.807C149.685 241.847 146.171 243.823 142.314 244.314C135.475 245.367 128.536 245.616 121.639 245.056C113.191 244.353 107.953 237.062 105.13 234.644ZM99.1828 208.171C98.7122 213.52 99.634 218.899 101.859 223.786C104.802 229.735 109.016 234.966 114.204 239.106C116.085 240.82 118.507 241.82 121.049 241.932C129.154 242.56 137.306 242.11 145.292 240.594C146.101 240.357 146.824 239.891 147.375 239.253C155.353 231.024 161.81 218.462 161.355 206.684C161.098 200.013 154.128 197.989 147.525 197.016C132.799 194.845 100.618 193.385 99.1828 208.171ZM123.722 197.609C147.985 195.116 163.535 202.661 157.187 205.492C145.874 210.537 126.994 213.445 105.429 207.872C103.194 207.296 99.4681 204.271 104.388 201.476C107.8 199.531 119.556 198.036 123.722 197.609ZM95.7618 209.359C95.9448 208.443 95.7861 207.491 95.3158 206.684C94.3644 205.516 93.1194 204.623 91.7086 204.095C90.2977 203.568 88.772 203.426 87.288 203.684C85.8041 203.941 84.4154 204.589 83.2647 205.561C82.1139 206.532 81.2426 207.793 80.7401 209.213C79.7888 211.426 79.3138 213.814 79.3459 216.223C79.378 218.632 79.9166 221.007 80.9265 223.194C81.9365 225.381 83.3953 227.331 85.2081 228.918C87.0209 230.504 89.1472 231.692 91.4489 232.403C95.383 233.967 99.7262 234.176 103.792 232.996C103.05 231.954 102.305 231.057 101.709 230.17C93.0361 233.256 76.2749 217.113 87.136 209.498C88.3549 208.521 89.8637 207.978 91.4252 207.953C92.9867 207.928 94.5122 208.423 95.7618 209.359ZM100.967 229.14C97.9143 224.271 96.2197 218.674 96.0582 212.93C95.8191 212.335 95.4493 211.801 94.9763 211.368C94.5033 210.934 93.9391 210.613 93.3252 210.427C92.7114 210.241 92.0636 210.195 91.4296 210.292C90.7956 210.39 90.1917 210.629 89.6623 210.991C81.4381 215.556 91.6456 229.14 100.967 229.14ZM122.085 202.371C117.93 200.288 110.484 201.03 108.105 204.75C112.864 203.872 117.171 203.113 122.085 202.371Z" fill="#191919"/>
<path d="M200.764 193.595C201.359 199.842 198.107 194.484 197.938 193.446C197.011 187.775 179.451 96.1826 178.751 91.2687C178.076 88.1319 178.385 84.8633 179.636 81.9087C180.888 78.9542 183.02 76.4576 185.742 74.7595C187.319 73.951 189.034 73.4464 190.797 73.272C194.656 72.6266 319.303 60.987 324.655 60.7793C341.347 60.1311 339.798 62.3471 364.066 175.599C364.066 178.723 361.72 177.673 361.391 176.341C360.983 174.696 360.31 173.081 359.903 171.435C338.336 84.2356 338.618 73.0836 336.702 69.5546C335.95 67.8074 334.672 66.3382 333.046 65.3516C331.42 64.365 329.527 63.9103 327.63 64.0506C323.167 64.3553 190.34 76.5156 188.122 77.884C182.931 81.0612 182.859 85.6012 182.172 89.7812C182.321 89.9308 199.276 184.969 200.764 193.595Z" fill="#191919"/>
<path d="M94.5703 307.074C91.1632 307.741 78.5043 310.47 75.5349 311.09C70.9062 312.057 59.6739 313.708 40.4335 317.932C39.6821 318.158 38.8928 318.228 38.1133 318.14C37.3339 318.051 36.5806 317.805 35.8991 317.416C35.2176 317.028 34.6221 316.505 34.1488 315.879C33.6755 315.254 33.3342 314.539 33.1456 313.777C12.8914 265.668 13.5728 267.1 13.9606 264.388C13.9606 263.468 13.1711 263.887 67.9479 253.383C71.8259 252.643 75.69 251.931 79.5486 251.003C81.3381 250.574 82.2272 251.599 82.9696 252.942C101.418 286.149 93.8668 273.994 107.659 296.37C108.85 298.309 109.767 300.221 110.93 302.024C111.692 303.201 111.077 304.093 109.891 304.403C108.861 304.667 98.8888 306.229 94.5703 307.074ZM107.958 301.423C107.789 301.146 92.7228 274.022 82.0776 255.762C81.8332 255.138 81.3541 254.633 80.7427 254.358C80.1314 254.082 79.4364 254.056 78.8063 254.286C59.0146 257.975 41.9847 261.072 16.34 266.036C24.2844 284.903 17.725 270.862 37.7576 313.927C38.054 314.672 38.3504 315.265 39.3919 314.968C46.979 313.481 54.566 312.315 62.1475 310.813C74.6485 308.301 105.13 302.165 107.958 301.423Z" fill="#191919"/>
<path d="M22.7362 180.05C19.5368 180.69 18.0106 176.396 21.2487 175.587C25.4037 175.089 179.731 161.571 184.701 161.161C186.781 160.989 187.526 161.308 187.676 162.795C187.825 164.283 187.377 165.028 185.737 165.028C180.166 165.039 23.6143 180.05 22.7362 180.05Z" fill="#191919"/>
<path d="M486.174 258.142C477.706 255.835 482.453 258.123 460.593 249.962C454.829 247.537 449.423 244.334 444.527 240.445C443.493 239.733 442.331 239.228 441.106 238.957C440.202 238.832 439.35 238.462 438.642 237.887C437.935 237.312 437.398 236.554 437.091 235.695C436.785 234.836 436.719 233.909 436.902 233.016C437.086 232.122 437.511 231.296 438.131 230.628C441.58 226.527 446.041 223.4 451.072 221.556C459.728 217.908 468.324 219.179 476.8 222.151C489.456 226.583 505.112 231.193 508.932 243.569C509.526 245.843 509.385 248.246 508.531 250.435C507.676 252.625 506.151 254.487 504.173 255.757C493.63 261.566 490.805 259.405 486.174 258.142ZM448.396 241.04C457.724 246.867 467.914 251.183 478.589 253.829C476.853 252.095 480.545 254.289 449.438 240.741C448.225 239.935 447.668 240.674 448.396 241.04ZM457.914 221.705C451.939 223.09 443.51 226.813 440.067 231.819C438.543 234.035 439.169 235.558 441.854 236.281C455.712 239.871 468.985 245.43 481.265 252.788C488.09 256.231 493.484 259.142 502.386 251.749C506.541 248.303 506.702 245.35 503.871 240.741C501.597 236.863 498.165 233.795 494.057 231.968C487.071 228.982 479.93 226.315 472.639 223.786C467.903 222.181 462.909 221.475 457.914 221.705Z" fill="#191919"/>
<path d="M433.97 294.88C434.267 289.227 438.563 287.025 443.488 289.822C443.765 289.986 481.767 310.932 511.458 328.048C514.09 330.935 516.431 334.074 518.447 337.419C519.131 338.455 518.796 339.635 517.109 339.635C503.924 338.17 515.621 342.815 437.837 299.193C436.499 298.002 434.566 296.814 433.97 294.88ZM509.525 329.533L453.449 297.706C452.999 297.325 452.472 297.047 451.904 296.891C451.335 296.736 450.74 296.707 450.159 296.806C449.578 296.905 449.026 297.13 448.542 297.466C448.057 297.801 447.652 298.239 447.355 298.747C446.136 300.21 446.172 300.963 447.801 301.869C473.457 316.082 505.436 334.738 506.104 334.738C507.145 333.104 508.187 331.317 509.525 329.533ZM514.284 334.588L512.054 331.02C509.226 332.209 508.037 333.696 508.176 336.076C510.267 335.779 512.647 337.267 514.284 334.588ZM437.832 296.218C439.02 294.432 440.061 292.797 441.253 291.011C440.895 290.812 440.5 290.69 440.092 290.65C439.685 290.611 439.274 290.655 438.885 290.781C438.495 290.906 438.136 291.11 437.828 291.381C437.521 291.651 437.272 291.981 437.098 292.351C436.053 294.135 436.499 295.623 437.837 296.218H437.832ZM443.482 299.786C444.97 297.847 446.308 296.365 447.637 294.731C446.588 294.661 445.547 294.966 444.702 295.593C443.857 296.22 443.263 297.127 443.025 298.152C443.042 298.606 443.477 299.34 443.477 299.786H443.482ZM440.507 298.298C441.848 296.082 442.887 294.42 443.782 292.648C441.549 293.094 440.061 294.285 439.904 296.218C439.986 296.941 440.192 297.645 440.513 298.298H440.507Z" fill="#191919"/>
<path d="M158.524 236.874C167.56 238.447 164.987 257.236 133.389 259.184C121.127 259.94 94.2327 255.128 98.8836 245.503C99.273 244.363 99.9876 243.362 100.939 242.624C101.891 241.886 103.037 241.442 104.238 241.348C104.012 241.798 103.646 242.163 103.196 242.389C102.44 242.788 101.812 243.392 101.384 244.133C100.956 244.873 100.745 245.719 100.777 246.573C100.808 247.427 101.08 248.256 101.561 248.963C102.042 249.669 102.712 250.226 103.496 250.569C116.886 258.707 144.406 259.588 158.228 248.353C158.985 247.794 159.619 247.086 160.092 246.273C160.564 245.459 160.866 244.558 160.977 243.624C161.088 242.69 161.007 241.743 160.739 240.841C160.47 239.939 160.02 239.102 159.416 238.381C158.97 238.065 158.821 237.47 158.524 236.874Z" fill="#191919"/>
<path d="M470.26 137.971C468.1 137.971 467.687 136.143 469.219 134.996C471.742 132.276 504.04 130.237 504.32 130.237C505.069 130.178 505.812 130.419 506.383 130.907C506.955 131.395 507.309 132.09 507.368 132.84C507.428 133.589 507.187 134.331 506.699 134.903C506.211 135.475 505.515 135.829 504.766 135.888C493.313 137.242 481.793 137.937 470.26 137.971Z" fill="#191919"/>
<path d="M371.355 143.026C382.989 141.699 384.911 141.5 386.526 142.431C386.831 142.571 387.088 142.8 387.262 143.087C387.436 143.375 387.521 143.707 387.505 144.043C387.489 144.379 387.373 144.702 387.172 144.972C386.971 145.241 386.694 145.444 386.376 145.555C384.303 146.309 382.161 146.858 379.981 147.192C374.781 147.835 369.421 148.234 364.067 148.53C361.837 148.826 357.809 144.572 371.355 143.026Z" fill="#191919"/>
<path d="M416.27 279.114C415.231 277.776 414.054 276.139 411.81 277.031C411.364 277.18 406.857 277.504 405.716 275.543C403.575 271.887 395.387 269.726 392.182 269.449C361.778 266.192 348.047 272.391 332.99 280.9C330.09 282.144 332.195 281.512 322.874 278.224C304.902 271.485 274.521 272.995 245.535 291.462C241.791 293.77 238.594 296.866 236.167 300.534C234.289 303.346 232.868 302.858 228.73 304.689C228.285 304.79 227.871 305 227.527 305.3C227.183 305.6 226.917 305.98 226.755 306.407C226.593 306.834 226.539 307.294 226.598 307.747C226.657 308.199 226.827 308.631 227.093 309.002C229.472 313.018 272.604 385.302 276.471 391.994C277.662 394.077 278.554 394.523 280.784 394.077C288.966 392.29 357.887 378.908 373.146 375.634C375.567 374.978 378.079 374.727 380.581 374.889C385.757 375.511 390.974 374.123 395.157 371.011C396.331 370.15 397.722 369.635 399.173 369.524C406.162 368.632 459.706 360.748 465.207 360.006C481.534 358.302 487.162 371.08 416.27 279.114ZM284.498 387.091C283.39 385.983 236.644 308.838 236.458 308.561C237.757 307.262 233.688 301.775 283.753 384.415C285.351 387.077 285.365 386.224 284.498 387.091ZM307.996 379.654C326.358 371.529 346.087 366.937 366.149 366.119L307.996 379.654ZM313.946 374.299C326.885 367.756 340.419 363.593 354.252 364.186C340.485 366.062 326.968 369.453 313.946 374.299ZM288.215 385.604C271.259 357.94 254.304 330.326 237.35 302.761C262.729 281.155 296.611 272.931 325.25 283.13C328.786 284.354 331.784 286.774 333.727 289.972C358.23 327.528 379.969 359.801 382.955 364.781C347.41 353.776 316.475 363.444 288.215 385.604ZM386.526 364.186C369.124 338.009 351.574 311.536 333.876 285.064C350.549 271.263 385.584 269.709 403.035 276.139C404.356 276.471 458.828 347.56 459.997 349.314C447.438 346.623 434.408 347.083 422.07 350.652C409.654 353.501 397.692 358.055 386.526 364.186ZM448.693 351.397C438.444 352.884 427.574 354.222 416.865 355.71C431.145 351.843 444.529 350.206 448.693 351.397ZM402.589 362.402C402.47 362.227 402.417 362.016 402.439 361.806C405.86 360.914 409.431 359.867 413.148 359.277C420.644 358.139 450.216 353.679 457.914 353.33C458.921 353.342 459.922 353.492 460.889 353.776C441.261 356.751 421.923 359.577 402.589 362.402Z" fill="#191919"/>
<path d="M437.837 296.218C434.79 294.861 437.347 289.13 441.109 291.011C440.067 292.789 438.879 294.432 437.837 296.218Z" fill="#38A1FF"/>
<path d="M176.075 391.553C175.776 393.188 174.881 393.963 173.397 393.783C166.386 392.933 175.552 396.969 145.586 379.208C137.772 374.576 105.726 357.305 105.726 351.397C106.454 350.668 114.828 351.951 116.138 352.735C182.424 392.772 171.316 385.606 176.075 391.553ZM144.99 376.382C145.741 377.133 159.569 385.365 169.53 391.254C170.563 391.867 171.017 391.404 171.613 390.662C172.208 389.767 171.613 389.326 170.87 388.875C168.073 387.177 151.384 376.964 146.032 373.853C145.737 374.717 145.389 375.561 144.99 376.382Z" fill="#191919"/>
<path d="M363.62 188.39C366.341 188.809 364.451 187.737 405.414 223.043C406.96 224.073 405.827 225.126 404.819 225.126C399.168 225.719 264.568 241.051 258.471 241.932C257.518 242.088 256.54 241.976 255.647 241.608C254.754 241.24 253.98 240.631 253.413 239.849C224.328 204.578 223.398 204.67 223.816 203.409C224.988 201.066 363.294 188.338 363.62 188.39ZM251.183 213.971C249.397 214.268 248.059 214.564 246.571 214.714C245.233 215.013 246.422 215.459 247.317 215.459C252.61 213.988 254.876 217.473 260.998 225.126C258.917 225.422 257.28 225.572 255.643 225.868C254.156 226.464 255.496 226.314 255.643 226.464C257.076 226.622 258.523 226.622 259.956 226.464C260.698 226.29 261.474 226.338 262.188 226.603C262.903 226.867 263.523 227.336 263.973 227.951C265.388 229.367 266.878 230.707 268.435 231.965C268.881 232.264 269.327 232.561 268.881 231.519C267.393 229.885 266.056 228.248 264.418 226.614C264.388 226.577 264.367 226.534 264.358 226.487C264.349 226.44 264.352 226.392 264.367 226.347C264.382 226.302 264.409 226.262 264.444 226.23C264.479 226.198 264.522 226.175 264.568 226.165C266.948 225.868 277.061 224.53 282.266 224.085C283.017 224.186 283.706 224.556 284.205 225.126C288.036 228.957 293.213 234.96 291.642 231.818C289.559 229.289 287.487 226.614 285.246 224.085C285.842 223.785 290.013 223.4 301.459 222.146C306.667 221.592 308.334 220.924 309.935 222.741C311.597 224.641 313.356 226.458 314.993 228.392C315.736 229.58 316.331 228.987 315.439 227.946C313.952 225.713 312.315 223.633 310.68 221.254C317.073 220.508 323.323 219.766 329.716 219.021C331.932 219.021 334.513 223.904 337.45 225.863L337.896 225.417C336.261 223.334 334.774 221.262 333.137 219.171C332.718 218.34 332.61 218.86 350.538 216.492C352.624 216.215 353.959 215.899 355.446 217.979C358.125 222.741 359.324 223.483 358.272 220.808C357.826 220.062 356.784 217.979 356.191 216.791C356.149 216.714 356.127 216.627 356.128 216.539C356.13 216.451 356.154 216.365 356.199 216.29C356.244 216.214 356.309 216.152 356.386 216.109C356.463 216.066 356.549 216.045 356.637 216.046C359.017 215.75 364.969 214.586 370.318 213.966C375.23 213.395 376.728 212.467 378.498 214.412C379.847 215.891 381.326 217.237 382.814 218.725C383.853 219.913 384.299 219.617 383.407 218.279L379.252 213.221C379.18 213.165 379.128 213.088 379.105 213.001C379.081 212.914 379.086 212.821 379.119 212.737C379.153 212.654 379.213 212.583 379.29 212.536C379.368 212.489 379.458 212.469 379.548 212.478L384.606 211.14C385.794 210.841 385.202 210.545 384.456 210.545C377.501 211.176 378.055 212.434 374.343 208.016C372.714 206.077 366.906 201.174 366.014 200.282C366.494 200.003 366.991 199.755 367.501 199.537C368.543 199.24 368.543 198.794 367.055 199.091C366.214 199.269 365.341 199.219 364.526 198.944C364.23 198.794 362 196.119 361.255 195.224C360.363 194.482 360.363 194.927 360.809 195.523L362.748 198.645C362.791 198.722 362.813 198.809 362.811 198.897C362.81 198.985 362.785 199.071 362.74 199.146C362.695 199.222 362.631 199.284 362.554 199.327C362.477 199.37 362.39 199.391 362.302 199.39C356.056 200.132 349.956 200.877 343.859 201.47C341.873 201.47 341.089 200.127 338.951 198.348C338.355 197.307 337.909 197.753 338.655 198.645C339.397 199.686 339.992 200.728 340.738 201.769C341.034 202.365 340.884 202.512 340.588 202.512C337.763 203.107 332.109 203.243 328.677 203.703C320.048 204.861 319.583 205.06 316.184 201.024C315.413 200.159 314.566 199.362 313.655 198.645C313.209 198.052 312.913 198.498 313.209 199.091C314.55 200.728 316.184 202.811 317.672 204.595C317.702 204.631 317.722 204.674 317.731 204.721C317.739 204.767 317.736 204.815 317.721 204.859C317.706 204.904 317.68 204.944 317.645 204.976C317.61 205.008 317.568 205.03 317.522 205.041C315.292 205.19 306.074 205.642 302.054 206.379C298.786 206.98 298.176 206.825 295.661 203.852C295 202.894 294.252 201.997 293.429 201.174C292.387 199.836 292.686 200.877 292.983 201.62C294.024 203.107 295.066 204.744 296.107 206.379C296.139 206.447 296.156 206.521 296.157 206.596C296.159 206.671 296.146 206.746 296.118 206.815C296.09 206.885 296.048 206.948 295.995 207.001C295.941 207.054 295.878 207.096 295.808 207.124C288.966 208.165 282.304 209.229 275.587 210.246C273.13 210.62 273.983 209.692 270.083 205.786L269.637 206.232C270.532 207.719 271.576 209.057 272.762 210.692C266.961 211.733 261.308 212.467 255.657 213.667C254.825 213.91 253.933 213.848 253.143 213.493C252.352 213.137 251.714 212.511 251.344 211.728C247.627 207.118 247.031 207.415 247.627 208.16C248.617 210.21 249.809 212.157 251.183 213.971Z" fill="#38A1FF"/>
<path d="M252.968 251.153C252.691 250.876 250.32 249.062 253.264 248.328C259.358 247.582 411.661 230.181 418.204 229.439C419.486 229.439 420.381 231.015 418.353 231.519C402.678 233.544 256.117 250.521 252.968 251.153Z" fill="#191919"/>
<path d="M209.24 202.817C249.934 248.522 250.895 247.234 249.1 248.774C248.059 249.666 247.325 248.616 246.721 247.882C238.946 238.409 207.01 204.011 207.01 203.41C207.01 202.964 206.999 200.296 209.24 202.817Z" fill="#191919"/>
<path d="M273.491 305.736C271.768 306.62 270.106 307.611 269.613 306.332C269.02 303.958 281.568 298.498 282.85 298.002C294.529 293.423 307.065 291.443 319.586 292.202C321.745 292.438 323.883 292.836 325.982 293.393C332.4 296.592 301.753 291.255 273.491 305.736Z" fill="#191919"/>
<path d="M327.184 303.357C330.752 304.844 327.331 305.295 326.735 305.295C319.507 305.338 312.312 306.287 305.32 308.121C304.874 308.27 301.304 307.825 304.725 306.182C317.996 301.93 320.926 301.913 327.184 303.357Z" fill="#191919"/>
<path d="M388.013 334.441C386.229 331.616 384.443 328.937 382.659 326.261C382.398 326.091 382.105 325.976 381.798 325.925C381.491 325.873 381.177 325.886 380.875 325.962C379.376 326.375 377.75 326.854 376.113 327.153C377.008 325.07 379.088 324.624 380.875 323.433C379.534 321.203 378.346 318.974 376.997 316.594C371.634 318.533 371.955 318.433 370.451 317.932C371.354 316.578 369.767 317.101 375.955 314.511C374.169 311.387 372.534 308.417 370.748 305.29C369.559 305.736 368.368 306.182 367.03 306.628C367.03 304.547 368.814 304.412 369.709 303.506C368.368 300.681 367.03 297.852 365.692 294.877C365.842 294.731 365.764 292.445 368.072 295.622C371.95 300.958 372.304 302.464 373.426 302.464C378.335 301.423 383.094 300.232 388.002 299.043C382.944 289.822 382.202 286.698 389.786 297.556C389.957 298.059 390.315 298.478 390.785 298.727C391.255 298.976 391.802 299.035 392.315 298.894C395.88 298.548 399.453 298.448 403.32 298.298C402.824 297.402 402.425 296.455 402.132 295.473C398.254 283.426 404.212 294.581 404.212 294.731C406.949 302.941 413.577 296.016 416.4 301.273C414.021 301.126 411.492 300.977 408.517 300.827C410.154 303.356 411.492 305.586 412.979 307.819C413.328 308.514 420.619 307.871 422.796 310.035C420.267 311.373 417.738 310.035 414.913 310.927C416.104 312.866 417.292 314.805 418.633 316.727C418.779 317.026 419.525 317.026 420.117 317.026C422.35 317.173 424.433 317.173 426.663 317.323C427.278 317.453 427.876 317.653 428.447 317.918C428.447 318.999 429.328 318.145 420.414 319.553C421.752 321.785 422.943 324.015 424.43 326.098C425.203 326.874 427.754 326.336 433.798 326.694C434.383 326.694 437.122 327.669 436.327 328.477C433.056 328.774 429.782 329.073 426.355 329.369C426.611 330.487 426.959 331.581 427.394 332.641C431.272 343.35 431.114 343.796 425.455 333.981C424.347 332.5 423.378 329.965 421.887 329.965C418.009 330.561 414.3 331.156 410.287 331.749C411.328 334.278 413.262 339.336 413.854 341.269C415.195 344.837 412.962 341.566 412.816 341.416C409.043 336.076 407.943 332.79 406.27 332.79C401.808 333.682 397.495 334.729 393.032 335.616C394.373 337.995 395.561 340.228 396.752 342.458C397.794 344.095 396.603 343.796 396.007 342.904C395.115 341.862 394.068 340.965 393.182 339.929C392.146 338.735 391.243 336.807 390.06 336.508C388.489 335.987 386.783 337.469 381.731 338.591C382.659 336.375 385.484 335.929 388.013 334.441ZM378.642 313.47C383.401 312.281 388.013 310.941 392.622 309.752C391.434 307.074 390.096 304.547 388.744 301.572C383.836 302.464 378.772 303.511 373.426 304.547C375.371 307.669 376.997 310.644 378.642 313.47ZM384.889 324.624C386.828 327.599 388.609 330.425 390.392 333.103C390.512 333.257 390.678 333.368 390.865 333.421C391.052 333.474 391.251 333.467 391.434 333.4C395.747 332.209 400.209 331.02 404.669 329.682C403.184 327.153 401.697 324.774 400.209 322.395C400.102 322.223 399.944 322.089 399.758 322.009C399.572 321.93 399.366 321.908 399.168 321.949C394.556 322.841 389.947 323.732 384.889 324.624ZM398.276 319.42C397.085 317.337 395.747 315.265 394.556 313.173C394.024 312.107 391.883 313.292 379.833 315.553C381.171 317.932 382.213 319.708 383.401 321.647C383.7 321.946 384.296 322.392 384.742 322.242C389.201 321.353 393.664 320.461 398.276 319.42ZM402.885 321.203C406.688 327.428 407.47 329.236 408.389 329.236C412.267 328.641 416.123 327.896 420.137 327.153C418.799 324.921 417.611 322.841 416.259 320.757C415.84 319.899 414.735 319.979 402.885 321.203ZM391.434 301.273C395.841 309.353 394.517 309.417 399.763 308.86C402.589 308.558 405.414 308.265 408.389 307.966C407.198 305.736 406.043 303.631 404.819 301.719C404.674 301.483 404.479 301.28 404.248 301.126C404.017 300.972 403.755 300.87 403.481 300.827C399.611 300.902 395.747 301.126 391.434 301.273ZM397.234 311.982C398.572 314.362 399.763 316.295 401.112 318.228C401.253 318.41 401.433 318.558 401.639 318.661C401.845 318.764 402.071 318.82 402.301 318.824C406.317 318.378 410.184 317.782 414.347 317.337C408.979 309.301 413.203 310.841 397.234 311.982Z" fill="#191919"/>
<path d="M361.837 287.294C361.391 285.956 362.432 285.211 363.474 284.914C378.59 279.346 394.063 280.405 396.936 283.277C398.229 284.571 396.803 285.352 395.897 285.064C385.091 281.623 372.579 284.609 361.837 287.294Z" fill="#191919"/>
<path d="M59.6185 259.929C64.3565 259.972 68.9758 261.416 72.8952 264.079C76.8145 266.742 79.859 270.504 81.6454 274.892C83.4319 279.281 83.8806 284.1 82.9351 288.742C81.9897 293.385 79.6922 297.645 76.3318 300.985C72.9715 304.326 68.6982 306.598 64.0498 307.516C59.4013 308.433 54.5852 307.956 50.2074 306.143C45.8296 304.331 42.0857 301.264 39.4465 297.329C36.8074 293.394 35.391 288.766 35.3755 284.028C35.407 277.621 37.9759 271.488 42.5196 266.971C47.0634 262.454 53.2118 259.922 59.6185 259.929ZM56.0508 280.305C56.0508 280.155 51.1423 270.488 48.6133 265.283C46.2339 267.513 44.1508 269.438 41.7714 271.529C46.6799 274.651 55.9012 280.305 56.0508 280.305ZM40.8795 294.728C43.2589 297.257 45.3419 299.338 47.5718 301.717C50.6964 296.662 56.6463 286.994 56.6463 286.845C56.2308 287.274 46.1259 292.108 40.8795 294.728ZM39.838 292.789C45.3419 289.964 55.3056 284.756 55.3056 284.609C49.6548 284.31 44.004 284.163 37.9045 283.864C38.5028 286.997 39.0956 289.673 39.838 292.789ZM78.5072 294.424C79.4019 291.451 80.2938 288.773 81.1857 285.947C75.0917 285.651 63.7846 285.202 63.635 285.352C68.5435 288.335 73.3023 291.31 78.5072 294.432V294.424ZM61.8512 262.596C61.552 268.69 61.106 279.997 61.2556 279.997C64.2306 275.239 67.2056 270.48 70.4769 265.275C67.5019 264.391 64.8178 263.496 61.8512 262.596ZM58.4302 279.551C58.5798 279.551 59.1726 268.397 59.4717 262.449C56.4967 263.042 53.6713 263.787 50.6964 264.388C53.3722 269.743 55.9012 274.651 58.4302 279.56V279.551ZM77.1692 296.507C72.2608 293.385 62.8927 287.731 62.7431 287.881C65.2721 292.64 67.7983 297.399 70.3273 302.457C72.7068 300.545 74.7898 298.606 77.1692 296.515V296.507ZM54.4137 282.676C54.4137 282.526 45.4915 276.582 40.5831 273.455C39.6911 276.28 38.7964 278.956 37.9045 281.784C43.8545 282.089 49.2089 282.385 54.4137 282.684V282.676ZM79.5487 275.535C74.3438 278.064 69.4354 280.443 64.6766 282.823C64.6766 282.972 75.535 283.568 81.3353 283.864C80.7398 280.898 80.1442 278.222 79.5487 275.543V275.535ZM68.2471 303.498C65.5685 298.44 60.5132 289.069 60.5132 289.069C60.3637 294.277 60.0645 299.631 59.9177 305.282C62.7431 304.7 65.2721 304.099 68.2471 303.506V303.498ZM72.5738 266.771C69.5988 271.529 66.7734 275.842 63.7985 280.155C63.9453 280.305 73.3162 275.543 78.3742 273.017C76.2773 270.934 74.4934 268.851 72.5738 266.771ZM57.253 305.141C57.6989 299.639 58.1449 289.227 57.9981 289.227C55.1727 293.54 52.4941 298.002 49.3723 302.761C52.1838 303.653 54.5688 304.398 57.2391 305.141H57.253Z" fill="#191919"/>
<path d="M452.56 225.719C454.792 225.719 456.875 225.572 458.956 225.719C460.147 225.869 463.111 229.29 464.014 230.032C462.075 229.736 457.767 228.993 457.468 228.844C455.981 227.952 454.493 226.91 452.56 225.719Z" fill="#191919"/>
<path d="M307.55 219.772C304.874 220.068 302.645 220.384 300.412 220.664C295.36 221.298 290.299 221.705 285.241 222.298C284.645 222.298 283.753 222.298 283.457 221.852C280.778 218.73 278.102 215.459 275.127 211.88C278.252 211.434 291.8 209.586 295.653 208.905C296.335 208.722 297.057 208.753 297.721 208.992C298.386 209.231 298.961 209.667 299.37 210.243C301.731 213.243 304.575 216.351 307.55 219.772Z" fill="#38A1FF"/>
<path d="M374.329 210.996C374.401 211.052 374.453 211.129 374.476 211.216C374.5 211.303 374.495 211.395 374.462 211.479C374.428 211.563 374.368 211.634 374.291 211.681C374.213 211.728 374.123 211.748 374.033 211.739C372.014 211.977 363.648 213.279 354.995 213.971C352.549 213.971 354.28 214.176 344.585 203.999C344.514 203.944 344.462 203.867 344.438 203.78C344.414 203.693 344.419 203.6 344.453 203.516C344.486 203.432 344.546 203.361 344.624 203.315C344.701 203.268 344.792 203.248 344.882 203.257C363.718 200.659 363.718 200.091 364.366 200.728C367.787 204.149 371.019 207.611 374.329 210.996Z" fill="#38A1FF"/>
<path d="M321.234 205.939C328.101 205.08 336.962 204.254 340.419 203.709C341.102 203.578 341.807 203.633 342.461 203.869C343.115 204.104 343.694 204.511 344.137 205.047C346.727 208.121 349.491 211.141 352.319 214.418C348.081 215.021 348.704 214.822 332.24 216.797C331.616 216.808 331.001 216.654 330.456 216.351C327.331 213.226 324.362 209.955 321.234 206.684V205.939Z" fill="#38A1FF"/>
<path d="M329.118 217.243C324.059 217.838 319.146 218.129 314.243 219.182C312.536 219.646 310.723 219.514 309.101 218.809C307.479 218.104 306.146 216.868 305.32 215.304C303.692 213.135 301.954 211.05 300.113 209.058C300.057 208.984 300.02 208.897 300.005 208.806C299.991 208.714 299.998 208.621 300.028 208.533C300.057 208.445 300.108 208.366 300.174 208.302C300.241 208.238 300.323 208.191 300.412 208.166C318.544 206.227 315.949 206.398 317.963 206.227C318.855 206.227 319.303 206.817 319.902 207.415C323.196 210.475 326.276 213.759 329.118 217.243Z" fill="#38A1FF"/>
<path d="M254.605 215.013C259.66 214.268 262.494 213.736 268.585 212.93C272.158 212.456 273.635 211.063 275.424 214.118C278.324 219.071 279.895 219.262 282.119 222.597C273.482 223.556 269.505 224.223 264.272 224.68C262.001 224.68 261.779 223.744 254.455 215.606C254.396 215.571 254.349 215.518 254.323 215.454C254.296 215.391 254.291 215.32 254.308 215.253C254.325 215.187 254.363 215.127 254.416 215.084C254.47 215.04 254.536 215.016 254.605 215.013Z" fill="#38A1FF"/>
</svg>
