<svg width="100" height="100" viewBox="0 0 100 100" fill="none" xmlns="http://www.w3.org/2000/svg">
<g id="Study Light Idea">
<g id="Group">
<g id="Group_2">
<path id="Vector" d="M62.5 72.209V81.2507C62.5 84.5659 61.183 87.7453 58.8388 90.0895C56.4946 92.4337 53.3152 93.7507 50 93.7507C46.6848 93.7507 43.5054 92.4337 41.1612 90.0895C38.817 87.7453 37.5 84.5659 37.5 81.2507V72.209" stroke="black" stroke-width="3.2" stroke-miterlimit="10" stroke-linecap="round"/>
<path id="Vector_2" d="M50 93.75V97.9167" stroke="black" stroke-width="3.2" stroke-miterlimit="10" stroke-linecap="round"/>
<path id="Vector_3" d="M54.1673 74.7083V50C54.1673 48.7639 54.5339 47.5555 55.2206 46.5277C55.9074 45.4999 56.8835 44.6988 58.0255 44.2258C59.1676 43.7527 60.4243 43.6289 61.6366 43.8701C62.849 44.1113 63.9627 44.7065 64.8367 45.5806C65.7108 46.4547 66.3061 47.5683 66.5472 48.7807C66.7884 49.9931 66.6646 51.2497 66.1916 52.3918C65.7185 53.5338 64.9174 54.5099 63.8896 55.1967C62.8618 55.8834 61.6535 56.25 60.4173 56.25H39.584C38.3479 56.25 37.1395 55.8834 36.1117 55.1967C35.0839 54.5099 34.2828 53.5338 33.8097 52.3918C33.3367 51.2497 33.2129 49.9931 33.4541 48.7807C33.6952 47.5683 34.2905 46.4547 35.1646 45.5806C36.0386 44.7065 37.1523 44.1113 38.3647 43.8701C39.5771 43.6289 40.8337 43.7527 41.9758 44.2258C43.1178 44.6988 44.0939 45.4999 44.7807 46.5277C45.4674 47.5555 45.834 48.7639 45.834 50V74.7083" stroke="black" stroke-width="3.2" stroke-miterlimit="10" stroke-linecap="round"/>
<path id="Vector_4" d="M37.668 83.334H62.3346" stroke="black" stroke-width="3.2" stroke-miterlimit="10" stroke-linecap="round"/>
</g>
<path id="Vector_5" d="M20.834 45.8346C20.834 49.6649 21.5884 53.4576 23.0542 56.9962C24.5199 60.5349 26.6683 63.7502 29.3767 66.4586C32.0851 69.167 35.3004 71.3154 38.839 72.7811C42.3777 74.2469 46.1704 75.0013 50.0007 75.0013C53.8309 75.0013 57.6236 74.2469 61.1623 72.7811C64.7009 71.3154 67.9162 69.167 70.6246 66.4586C73.333 63.7502 75.4814 60.5349 76.9471 56.9962C78.4129 53.4576 79.1673 49.6649 79.1673 45.8346C79.1673 38.0992 76.0944 30.6805 70.6246 25.2107C65.1548 19.7409 57.7361 16.668 50.0007 16.668C42.2652 16.668 34.8465 19.7409 29.3767 25.2107C23.9069 30.6805 20.834 38.0992 20.834 45.8346Z" stroke="black" stroke-width="3.2" stroke-miterlimit="10" stroke-linecap="round"/>
<path id="Vector_6" d="M50 2.08398V6.25065" stroke="black" stroke-width="3.2" stroke-miterlimit="10" stroke-linecap="round"/>
<path id="Vector_7" d="M19.084 14.918L22.0007 17.8346" stroke="black" stroke-width="3.2" stroke-miterlimit="10" stroke-linecap="round"/>
<path id="Vector_8" d="M6.25 45.834H10.4167" stroke="black" stroke-width="3.2" stroke-miterlimit="10" stroke-linecap="round"/>
<path id="Vector_9" d="M19.084 76.7923L22.0007 73.834" stroke="black" stroke-width="3.2" stroke-miterlimit="10" stroke-linecap="round"/>
<path id="Vector_10" d="M80.9167 76.7923L78 73.834" stroke="black" stroke-width="3.2" stroke-miterlimit="10" stroke-linecap="round"/>
<path id="Vector_11" d="M93.7507 45.834H89.584" stroke="black" stroke-width="3.2" stroke-miterlimit="10" stroke-linecap="round"/>
<path id="Vector_12" d="M80.9167 14.918L78 17.8346" stroke="black" stroke-width="3.2" stroke-miterlimit="10" stroke-linecap="round"/>
</g>
</g>
</svg>
