<svg width="44" height="61" viewBox="0 0 44 61" fill="none" xmlns="http://www.w3.org/2000/svg">
<g clip-path="url(#clip0_3064_14767)">
<path d="M4.06862 43.0859H6.6435C6.80793 43.0859 6.96701 43.1444 7.0923 43.2511C7.21759 43.3578 7.30093 43.5056 7.3274 43.6682L9.97273 59.9424C9.98936 60.0418 9.98416 60.1437 9.95749 60.2409C9.93082 60.3382 9.88332 60.4284 9.81829 60.5054C9.75327 60.5824 9.67228 60.6442 9.58097 60.6866C9.48966 60.729 9.39022 60.751 9.28957 60.751H7.93351C7.76689 60.7509 7.60588 60.6907 7.48 60.5813C7.35411 60.472 7.2718 60.3208 7.24815 60.1556L6.82989 57.2437V57.2945H4.27995C4.11374 57.2945 3.95309 57.3544 3.82737 57.4634C3.70166 57.5723 3.61929 57.7229 3.59532 57.8877L3.26438 60.157C3.24041 60.322 3.15795 60.4728 3.03211 60.5819C2.90626 60.691 2.74542 60.751 2.57902 60.751H1.42329C1.3226 60.7511 1.22309 60.7292 1.13172 60.6869C1.04035 60.6445 0.959303 60.5826 0.894253 60.5056C0.829202 60.4286 0.78171 60.3384 0.75509 60.2411C0.728469 60.1438 0.723362 60.0418 0.740126 59.9424L3.38179 43.6682C3.40834 43.5051 3.4921 43.3569 3.618 43.2501C3.74391 43.1434 3.90369 43.0852 4.06862 43.0859ZM5.70498 54.8943C5.80398 54.8943 5.90183 54.873 5.99193 54.8319C6.08202 54.7908 6.16226 54.7308 6.22723 54.656C6.29219 54.5811 6.34037 54.4932 6.36851 54.3981C6.39665 54.303 6.4041 54.203 6.39034 54.1047L5.26837 46.1654H5.21774L4.11705 54.1047C4.10341 54.203 4.11096 54.3031 4.13919 54.3981C4.16742 54.4932 4.21567 54.5812 4.28069 54.656C4.34572 54.7308 4.426 54.7908 4.51612 54.8319C4.60625 54.873 4.70412 54.8943 4.80315 54.8943H5.70498Z" fill="#0066FF"/>
<path d="M12.1322 43.0859H18.3026C18.4864 43.0859 18.6625 43.1591 18.7924 43.2892C18.9224 43.4193 18.9953 43.5958 18.9953 43.7799V44.9157C18.9953 45.0997 18.9224 45.2762 18.7924 45.4064C18.6625 45.5365 18.4864 45.6096 18.3026 45.6096H14.903C14.7192 45.6096 14.5431 45.6827 14.4131 45.8129C14.2832 45.943 14.2103 46.1195 14.2103 46.3036V49.5837C14.2102 49.6749 14.228 49.7652 14.2628 49.8494C14.2976 49.9336 14.3486 50.0102 14.4129 50.0746C14.4773 50.1391 14.5537 50.1902 14.6378 50.225C14.7219 50.2599 14.812 50.2778 14.903 50.2777H17.3245C17.5081 50.2779 17.6841 50.3511 17.8138 50.4812C17.9436 50.6113 18.0165 50.7877 18.0165 50.9716V52.1067C18.0166 52.1978 17.9987 52.288 17.964 52.3722C17.9293 52.4564 17.8783 52.5329 17.814 52.5973C17.7498 52.6618 17.6735 52.7129 17.5895 52.7478C17.5055 52.7827 17.4154 52.8006 17.3245 52.8006H14.903C14.812 52.8006 14.7219 52.8186 14.6379 52.8534C14.5538 52.8883 14.4775 52.9394 14.4131 53.0039C14.3488 53.0683 14.2978 53.1448 14.263 53.229C14.2282 53.3132 14.2103 53.4035 14.2103 53.4946V57.5319C14.2103 57.7159 14.2832 57.8925 14.4131 58.0226C14.5431 58.1527 14.7192 58.2259 14.903 58.2259H18.3026C18.4862 58.2259 18.6623 58.2989 18.7922 58.4288C18.9221 58.5588 18.9951 58.7352 18.9953 58.9191V60.0548C18.9953 60.2389 18.9224 60.4154 18.7924 60.5456C18.6625 60.6757 18.4864 60.7488 18.3026 60.7488H12.1322C11.9484 60.7488 11.7723 60.6757 11.6423 60.5456C11.5124 60.4154 11.4395 60.2389 11.4395 60.0548V43.7799C11.4395 43.5958 11.5124 43.4193 11.6423 43.2892C11.7723 43.1591 11.9484 43.0859 12.1322 43.0859Z" fill="#0066FF"/>
<path d="M21.437 59.8541C20.7321 59.0891 20.3794 57.9915 20.3789 56.5615V47.2768C20.3789 45.8468 20.7316 44.7492 21.437 43.9842C22.1425 43.2192 23.1668 42.8364 24.5102 42.8359C25.853 42.8359 26.8771 43.2187 27.5826 43.9842C28.288 44.7497 28.6405 45.8473 28.64 47.2768V48.0965C28.64 48.1876 28.622 48.2779 28.5872 48.3621C28.5524 48.4463 28.5014 48.5228 28.4371 48.5872C28.3728 48.6516 28.2964 48.7028 28.2123 48.7376C28.1283 48.7725 28.0382 48.7905 27.9473 48.7905H26.713C26.6221 48.7905 26.532 48.7725 26.4479 48.7376C26.3639 48.7028 26.2875 48.6516 26.2232 48.5872C26.1589 48.5228 26.1079 48.4463 26.073 48.3621C26.0382 48.2779 26.0203 48.1876 26.0203 48.0965V47.0997C26.0203 45.9396 25.5419 45.3594 24.585 45.3589C23.6281 45.3584 23.1497 45.9387 23.1497 47.0997V56.7636C23.1497 57.9075 23.6281 58.4794 24.585 58.4794C25.5419 58.4794 26.0203 57.9075 26.0203 56.7636V54.0003C26.0203 53.8164 25.9474 53.6401 25.8176 53.5101C25.6879 53.3801 25.5119 53.3071 25.3284 53.3071C25.1446 53.3071 24.9684 53.234 24.8385 53.1038C24.7086 52.9737 24.6356 52.7972 24.6356 52.6131V51.4773C24.6356 51.386 24.6537 51.2955 24.6887 51.2112C24.7237 51.1269 24.775 51.0503 24.8396 50.9859C24.9043 50.9214 24.981 50.8704 25.0654 50.8358C25.1497 50.8012 25.2401 50.7836 25.3313 50.7841H27.9502C28.0411 50.784 28.1312 50.8019 28.2152 50.8367C28.2993 50.8715 28.3756 50.9225 28.44 50.9869C28.5043 51.0513 28.5553 51.1277 28.5902 51.2119C28.625 51.296 28.6429 51.3862 28.6429 51.4773V56.5615C28.6429 57.992 28.2904 59.0896 27.5855 59.8541C26.8806 60.6186 25.8555 61.0014 24.5102 61.0024C23.1659 61.0024 22.1415 60.6196 21.437 59.8541Z" fill="#0066FF"/>
<path d="M31.1204 43.0859H32.5051C32.6888 43.0859 32.865 43.1591 32.9949 43.2892C33.1248 43.4193 33.1978 43.5958 33.1978 43.7799V60.0541C33.1978 60.2382 33.1248 60.4147 32.9949 60.5448C32.865 60.675 32.6888 60.7481 32.5051 60.7481H31.1204C30.9367 60.7481 30.7605 60.675 30.6306 60.5448C30.5007 60.4147 30.4277 60.2382 30.4277 60.0541V43.7799C30.4277 43.5958 30.5007 43.4193 30.6306 43.2892C30.7605 43.1591 30.9367 43.0859 31.1204 43.0859Z" fill="#0066FF"/>
<path d="M35.8176 59.8565C35.1293 59.0915 34.7852 57.994 34.7852 56.5639V56.2485C34.7854 56.0646 34.8584 55.8883 34.9883 55.7583C35.1182 55.6283 35.2943 55.5553 35.4779 55.5553H36.7121C36.8957 55.5553 37.0718 55.6283 37.2017 55.7583C37.3315 55.8883 37.4046 56.0646 37.4048 56.2485V56.7631C37.4048 57.907 37.8832 58.4789 38.8401 58.4789C39.3097 58.4789 39.6666 58.34 39.9107 58.0621C40.1548 57.7842 40.2771 57.3343 40.2776 56.7124C40.2776 55.9729 40.1098 55.3211 39.7742 54.757C39.4386 54.1929 38.8174 53.5158 37.9104 52.7258C36.7647 51.7192 35.9666 50.8081 35.516 49.9926C35.0655 49.1771 34.8387 48.2562 34.8358 47.23C34.8358 45.8338 35.1883 44.7531 35.8932 43.9881C36.5981 43.2231 37.6225 42.8403 38.9663 42.8398C40.2925 42.8398 41.2954 43.2226 41.9749 43.9881C42.6544 44.7536 42.9944 45.8512 42.9948 47.2807V47.3182C42.9949 47.4094 42.9771 47.4997 42.9423 47.5839C42.9075 47.6681 42.8565 47.7447 42.7922 47.8091C42.7278 47.8736 42.6514 47.9247 42.5673 47.9596C42.4833 47.9944 42.3931 48.0123 42.3022 48.0122H41.0686C40.9776 48.0123 40.8875 47.9944 40.8034 47.9596C40.7194 47.9247 40.643 47.8736 40.5786 47.8091C40.5143 47.7447 40.4632 47.6681 40.4285 47.5839C40.3937 47.4997 40.3758 47.4094 40.3759 47.3182V47.1036C40.3759 46.4988 40.2583 46.0577 40.023 45.7803C39.7877 45.503 39.4438 45.3633 38.9913 45.3613C38.0672 45.3613 37.6054 45.9249 37.6059 47.0521C37.6036 47.6861 37.7818 48.3075 38.1195 48.8436C38.462 49.3984 39.0874 50.071 39.9958 50.8615C41.1542 51.8706 41.9516 52.7876 42.388 53.6124C42.8244 54.4372 43.0428 55.4044 43.0433 56.5139C43.0433 57.9606 42.6864 59.0707 41.9727 59.844C41.2589 60.6174 40.2221 61.0043 38.8621 61.0048C37.5222 61.0048 36.5074 60.622 35.8176 59.8565Z" fill="#0066FF"/>
<path d="M0.382686 33.529L4.68126 40.1672C4.70346 40.2037 4.73466 40.2339 4.77186 40.2548C4.80906 40.2758 4.85102 40.2868 4.89369 40.2868C4.93636 40.2868 4.97831 40.2758 5.01552 40.2548C5.05272 40.2339 5.08392 40.2037 5.10612 40.1672L22.4604 13.3638L25.2084 9.11919C25.2179 9.10455 25.226 9.08904 25.2326 9.07288C25.3325 8.8218 25.4823 8.5937 25.6729 8.40244C25.9199 8.1553 26.228 7.97837 26.5657 7.88976C26.9034 7.80115 27.2585 7.80404 27.5947 7.89815C27.8266 7.96431 28.0056 7.67393 27.8677 7.46148L27.0752 6.23603L24.5458 2.3303L23.9199 1.36435C23.9052 1.34075 23.8869 1.31965 23.8656 1.30186C23.487 0.983214 23.0084 0.808544 22.5139 0.808594H22.4332C22.153 0.808528 21.8757 0.86648 21.6189 0.978814C21.362 1.09115 21.1311 1.25544 20.9407 1.46139C20.929 1.47415 20.9184 1.48793 20.9091 1.50255L20.5657 2.03331L17.847 6.23676L0.382686 33.2063C0.352152 33.2546 0.335938 33.3105 0.335938 33.3677C0.335938 33.4248 0.352152 33.4808 0.382686 33.529Z" fill="white"/>
<path d="M4.68095 40.6895L0.0448316 33.5294C0.0142761 33.4813 -0.00195312 33.4254 -0.00195312 33.3684C-0.00195312 33.3114 0.0142761 33.2555 0.0448316 33.2074L20.7078 1.29265L20.7232 1.27501C20.9394 1.03607 21.2032 0.845083 21.4975 0.714306C21.7918 0.583528 22.1102 0.515853 22.4322 0.515625H22.5129C23.085 0.515831 23.6377 0.723122 24.0693 1.09932L24.1001 1.12578L28.6283 8.11903C28.6666 8.17774 28.6827 8.24824 28.6737 8.3178C28.6647 8.38736 28.6312 8.45139 28.5792 8.49836L28.5139 8.5557C28.4696 8.59578 28.4121 8.61798 28.3524 8.61798C28.2928 8.61798 28.2352 8.59578 28.191 8.5557C27.9863 8.37212 27.7401 8.2411 27.4737 8.1739C27.2073 8.1067 26.9285 8.10533 26.6614 8.1699C26.3944 8.23448 26.1469 8.36307 25.9404 8.54462C25.7339 8.72617 25.5745 8.95525 25.4759 9.21216L25.4642 9.2423L22.689 13.5369L5.10581 40.6895C5.08361 40.726 5.05241 40.7562 5.0152 40.7771C4.978 40.7981 4.93605 40.8091 4.89338 40.8091C4.85071 40.8091 4.80876 40.7981 4.77155 40.7771C4.73435 40.7562 4.70315 40.726 4.68095 40.6895ZM0.718459 33.5294L4.68095 39.6464C4.70315 39.6829 4.73435 39.713 4.77155 39.734C4.80876 39.7549 4.85071 39.7659 4.89338 39.7659C4.93605 39.7659 4.978 39.7549 5.0152 39.734C5.05241 39.713 5.08361 39.6829 5.10581 39.6464L22.2326 13.1936L24.9638 8.97325C24.9725 8.95943 24.9801 8.94492 24.9865 8.92988C25.1016 8.65146 25.2698 8.39824 25.4818 8.18446C25.6883 7.9758 25.9341 7.81028 26.2049 7.69746C26.4757 7.58465 26.7662 7.5268 27.0595 7.52726H27.0653C27.1154 7.52477 27.1638 7.50901 27.2058 7.48157C27.2477 7.45414 27.2816 7.41603 27.304 7.37115C27.3265 7.32627 27.3365 7.27622 27.3333 7.22615C27.33 7.17607 27.3135 7.12777 27.2855 7.08618L23.7163 1.57641C23.7005 1.55083 23.6804 1.52819 23.6569 1.50951C23.3311 1.25156 22.9281 1.11118 22.5129 1.11108H22.4322C22.1936 1.11127 21.9574 1.15967 21.7379 1.25339C21.5184 1.34712 21.32 1.48423 21.1546 1.65654C21.1417 1.67007 21.1302 1.68485 21.1201 1.70065L18.0705 6.40986L0.719923 33.2074C0.689368 33.2555 0.673139 33.3114 0.673139 33.3684C0.673139 33.4254 0.689368 33.4813 0.719923 33.5294H0.718459Z" fill="#0066FF"/>
<path d="M9.88712 28.9936C9.88774 29.0619 9.91393 29.1275 9.9605 29.1774L20.4787 40.4138C20.5016 40.4381 20.5291 40.4575 20.5597 40.4707C20.5903 40.484 20.6233 40.4908 20.6567 40.4908C20.69 40.4908 20.723 40.484 20.7536 40.4707C20.7842 40.4575 20.8118 40.4381 20.8346 40.4138L30.2463 30.5535C30.2949 30.502 30.3213 30.4333 30.3196 30.3624L30.2463 26.0024L29.8992 6.53917L29.875 5.15566C29.8763 5.10528 29.8624 5.05566 29.8351 5.0133C29.8079 4.97093 29.7685 4.93778 29.7221 4.91818C29.6758 4.89857 29.6246 4.89342 29.5753 4.90339C29.526 4.91337 29.4808 4.938 29.4457 4.97409L19.8088 15.0666L19.7919 15.0519L19.8073 15.0681L11.9953 6.88615L10.2254 5.03216C10.1896 4.99547 10.1435 4.97062 10.0932 4.96094C10.0429 4.95127 9.9909 4.95723 9.9441 4.97804C9.8973 4.99884 9.85797 5.03348 9.83139 5.07732C9.80481 5.12116 9.79225 5.1721 9.7954 5.2233L9.82548 6.92805L9.88712 28.9936Z" fill="#FCFCFC"/>
<path d="M20.6574 40.8089C20.5843 40.8087 20.512 40.7936 20.4449 40.7645C20.3778 40.7355 20.3172 40.693 20.267 40.6398L9.74587 29.4012C9.64408 29.2919 9.58767 29.1478 9.5881 28.9984L9.52647 6.93576L9.49638 5.2332C9.49282 5.11976 9.52274 5.00778 9.58239 4.91128C9.64204 4.81479 9.72876 4.73805 9.83172 4.69068C9.93291 4.64558 10.0456 4.63324 10.1541 4.65538C10.2627 4.67752 10.3616 4.73303 10.4371 4.81418L19.8077 14.6296L29.234 4.75537C29.3084 4.67566 29.4054 4.62067 29.5119 4.5978C29.6184 4.57493 29.7294 4.58528 29.8298 4.62746C29.9319 4.67226 30.0188 4.74576 30.08 4.83906C30.1413 4.93235 30.1741 5.04143 30.1747 5.15308L30.1997 6.53585L30.5445 26.0005L30.6216 30.3605C30.6248 30.516 30.5668 30.6665 30.4602 30.7796L21.047 40.6398C20.9969 40.693 20.9365 40.7354 20.8696 40.7644C20.8026 40.7935 20.7304 40.8086 20.6574 40.8089ZM10.1876 28.9734L20.6574 40.1605L30.0265 30.351L29.9487 26.0137L29.6038 6.54908L29.5818 5.28319L19.8267 15.4941L19.6 15.2993L19.6484 15.2375L19.5934 15.2949L10.0974 5.34568L10.1252 6.93135L10.1876 28.9734Z" fill="#0066FF"/>
<path d="M41.723 37.9069L33.9682 33.9519L22.4476 13.8036L19.6886 9.18848C19.5913 8.91027 19.4388 8.65469 19.2402 8.43718C19.0578 8.23192 18.8323 8.06959 18.58 7.96181C18.3276 7.85403 18.0546 7.80346 17.7804 7.81371C17.5063 7.82397 17.2378 7.8948 16.9941 8.02113C16.7505 8.14747 16.5377 8.32619 16.3711 8.54451L17.8387 6.09434L20.3681 1.86957L21.0167 0.785993C21.3881 0.429906 21.8815 0.229735 22.3955 0.226562H22.4755C22.7656 0.228868 23.0516 0.29537 23.3131 0.42131C23.5745 0.54725 23.8049 0.729517 23.9879 0.955072L24.346 1.55273L27.0661 6.09654L40.7147 28.8935" fill="#0066FF"/>
<path d="M41.6345 38.1119L33.824 34.1289L33.7917 34.0723L22.2748 13.9233L19.5025 9.29199L19.4944 9.26994C19.4065 9.02237 19.27 8.79492 19.0931 8.60097C18.9298 8.41721 18.728 8.27187 18.5021 8.17535C18.2762 8.07883 18.0319 8.03351 17.7865 8.04264C17.5411 8.05177 17.3007 8.11513 17.0826 8.22817C16.8645 8.34121 16.674 8.50115 16.5248 8.69654L16.1953 8.42454L20.8542 0.636619L20.8762 0.616035C21.2853 0.223738 21.8288 0.00329613 22.3951 0H22.4751C22.7941 0.00323232 23.1084 0.0766852 23.3959 0.215156C23.6834 0.353627 23.9369 0.553728 24.1386 0.801287L24.1496 0.814519L40.8868 28.7691L40.5389 29.0169L24.1753 1.67535L23.8268 1.09313C23.6621 0.895124 23.4565 0.735313 23.2242 0.624758C22.9918 0.514203 22.7382 0.455544 22.481 0.452838H22.4649H22.3951C21.9402 0.455208 21.5027 0.628324 21.169 0.938021L17.103 7.72985C17.3398 7.63573 17.5923 7.58734 17.8471 7.58723C18.1376 7.58805 18.4247 7.6499 18.6899 7.7688C18.9551 7.8877 19.1924 8.06101 19.3866 8.27752C19.6018 8.51177 19.7682 8.78668 19.876 9.08615L22.627 13.6807L34.1131 33.7768L41.8128 37.7031L41.6345 38.1119Z" fill="#0066FF"/>
<path d="M43.53 40.4994L38.1234 37.8625L32.7168 35.2263L37.4652 31.4448L42.2121 27.6641L42.871 34.0817L43.53 40.4994Z" fill="#0066FF"/>
<path d="M43.7766 40.8692L32.3066 35.2756L42.3794 27.2539L43.7766 40.8692ZM33.1285 35.1815L43.2835 40.1333L42.0463 28.0772L33.1285 35.1815Z" fill="#0066FF"/>
<g opacity="0.15">
<path d="M18.1172 6.79688L21.0972 11.9317L29.7435 23.4725L30.4171 29.4983L15.4902 9.76825" fill="#636363"/>
</g>
<path d="M9.79616 5.22656C10.9959 6.74754 13.5657 31.4544 30.2492 30.5568L20.8354 40.417L9.96053 29.1843C9.88569 29.1843 9.72205 5.2273 9.79616 5.22656Z" fill="#0066FF"/>
<path d="M20.838 40.7239L9.83692 29.3552C9.80657 29.3252 9.7829 29.2892 9.76747 29.2494C9.75204 29.2096 9.7452 29.167 9.7474 29.1243C9.7474 29.0788 9.74226 29.0111 9.73933 28.9229C9.73419 28.7553 9.72905 28.5046 9.72318 28.1782C9.71217 27.56 9.70043 26.6668 9.68723 25.5237C9.66374 23.4007 9.63879 20.5248 9.61751 17.4307C9.5955 14.252 9.58009 11.277 9.57422 9.05394C9.57422 7.85937 9.56982 6.92576 9.57422 6.27811C9.57422 5.93628 9.57422 5.6731 9.58009 5.49667C9.58009 5.40478 9.58009 5.33347 9.58523 5.28569C9.59477 5.05707 9.70557 5.00781 9.79729 5.00781H9.89562L9.95873 5.08721C10.1928 5.38126 10.4144 6.22812 10.8532 7.9542C11.7264 11.3894 13.1867 17.1381 16.1432 21.9892C17.7736 24.6636 19.6654 26.7242 21.7699 28.1136C24.0285 29.6073 26.5858 30.3586 29.3815 30.3586C29.6653 30.3586 29.9512 30.3508 30.2393 30.3351L30.4742 30.6247L20.838 40.7239ZM10.1598 29.0788L20.8358 40.1093L29.7345 30.7916C24.0263 30.9173 19.3388 28.0371 15.7924 22.2237C12.8014 17.316 11.3302 11.5262 10.4511 8.06667C10.2779 7.38594 10.1231 6.77579 9.98808 6.30237C9.97634 10.7543 10.0989 27.8467 10.1598 29.0788Z" fill="#0066FF"/>
</g>
<defs>
<clipPath id="clip0_3064_14767">
<rect width="43.7789" height="61" fill="white"/>
</clipPath>
</defs>
</svg>
