<svg width="68" height="25" viewBox="0 0 68 25" fill="none" xmlns="http://www.w3.org/2000/svg">
<g clip-path="url(#clip0_3064_14810)">
<path d="M11.2001 16.7891L11.1777 16.8114V16.8089C11.1807 16.8 11.1897 16.796 11.2001 16.7891Z" fill="#CC2929"/>
<path d="M17.7748 12.9483L17.75 12.9731C17.7574 12.9637 17.7649 12.9547 17.7718 12.9453L17.7748 12.9483Z" fill="#CC2929"/>
<path d="M17.772 12.9473C17.765 12.9567 17.7576 12.9657 17.7501 12.9751L17.6702 13.0549L8.70376 22.0089L8.69184 22.0208C8.67895 22.0317 8.667 22.0437 8.65609 22.0565C8.39641 22.3541 8.81746 22.8282 9.14766 22.5728L15.0376 16.6909L15.044 16.6973C16.4879 15.591 18.203 17.3856 17.3698 18.7305C17.3371 18.8154 17.2863 18.892 17.2208 18.9552L11.5792 24.5901C11.523 24.6464 11.4562 24.6911 11.3827 24.7216C11.3091 24.752 11.2303 24.7677 11.1507 24.7676C10.6333 24.785 10.3354 24.0947 10.7222 23.7342L16.2486 18.2148L16.2417 18.2064C16.5922 17.9202 16.1543 17.3817 15.8057 17.6366L9.96496 23.4689L9.77925 23.2834L9.94808 23.4818C9.66608 23.7209 9.30807 23.852 8.93812 23.8517C7.53392 23.8973 6.82139 22.0169 7.88001 21.1188L16.831 12.1807C17.0237 11.8484 16.5331 11.4457 16.2466 11.7715L16.2347 11.7606L11.2257 16.7633L11.2003 16.7891C11.1924 16.796 11.1835 16.802 11.1755 16.8089C10.8981 17.0226 10.5576 17.1383 10.2073 17.1377C8.80505 17.1913 8.06621 15.281 9.15015 14.3785L16.9284 6.61169L16.9229 6.60574C17.2735 6.31911 16.8365 5.78502 16.4899 6.03446L2.70065 19.8056L2.71852 19.823C2.57059 19.9712 2.39475 20.0888 2.20114 20.1689C2.00752 20.249 1.79996 20.29 1.5904 20.2896C0.211518 20.3313 -0.544705 18.5178 0.462765 17.5701L10.6705 7.37984C10.9824 7.04362 10.4585 6.56607 10.1512 6.88394L10.1363 6.89832L1.65495 15.3673C1.59873 15.4236 1.53193 15.4682 1.45839 15.4986C1.38485 15.529 1.30602 15.5445 1.22644 15.5444C0.709543 15.5612 0.410629 14.8719 0.797926 14.5114L9.31053 6.00966C9.3282 5.99182 9.34712 5.97525 9.36713 5.96007C10.7758 4.70693 12.8811 6.67814 11.5703 8.18766L11.5266 8.14849L11.5703 8.19213L1.28652 18.4627C1.03378 18.7692 1.4176 19.1967 1.73985 19.0534L15.685 5.12597C17.2278 3.87927 19.1206 6.01859 17.8509 7.38678L17.8574 7.39323L9.96893 15.2746C9.96737 15.2757 9.96602 15.277 9.96496 15.2786L9.95801 15.284C9.62136 15.5776 10.0479 16.1052 10.4009 15.8746L15.4373 10.8452L15.4497 10.8576C16.8296 9.58511 18.8966 11.4462 17.772 12.9473Z" fill="#CC2929"/>
<path d="M8.70465 22.0089L8.69141 22.0205L8.70412 22.0078L8.70465 22.0089Z" fill="#CC2929"/>
<path d="M17.7499 12.9766C17.7275 13.0058 17.7037 13.0351 17.6784 13.0638L17.6699 13.0564L17.7499 12.9766Z" fill="#CC2929"/>
<path d="M11.229 16.7647C11.22 16.7726 11.2106 16.7801 11.2012 16.7875L11.2265 16.7617L11.229 16.7647Z" fill="#CC2929"/>
<path d="M10.1515 6.88281C10.1468 6.88809 10.1415 6.89337 10.1367 6.89917L10.1515 6.88281Z" fill="#CC2929"/>
<path d="M13.0456 5.30754C14.4148 5.30754 15.5248 4.19898 15.5248 2.83151C15.5248 1.46403 14.4148 0.355469 13.0456 0.355469C11.6764 0.355469 10.5664 1.46403 10.5664 2.83151C10.5664 4.19898 11.6764 5.30754 13.0456 5.30754Z" fill="#CC2929"/>
<path d="M22.5285 16.3983V15.6113H22.4982C22.3291 15.8591 22.122 16.0786 21.8845 16.262C21.6776 16.4137 21.3871 16.4894 21.013 16.4891C20.8255 16.4879 20.6392 16.4595 20.4599 16.4048C20.26 16.3422 20.0764 16.2364 19.9221 16.0949C19.7503 15.9534 19.6115 15.749 19.5056 15.4819C19.3996 15.2148 19.3458 14.8695 19.3442 14.446C19.3394 14.0631 19.375 13.6808 19.4504 13.3054C19.5096 13.0015 19.6451 12.7175 19.8442 12.4802C20.0445 12.2567 20.302 12.092 20.589 12.0037C20.9018 11.8979 21.3007 11.845 21.7856 11.845H21.9525C22.0084 11.8446 22.0643 11.8495 22.1193 11.8599C22.1792 11.871 22.2401 11.8762 22.301 11.8752C22.3771 11.8756 22.453 11.8805 22.5285 11.8901V11.0867C22.5285 10.8246 22.4728 10.6077 22.3616 10.4361C22.2504 10.2645 22.0483 10.1787 21.7554 10.1787C21.5537 10.1791 21.3584 10.2492 21.2027 10.3771C21.0372 10.5093 20.9286 10.7011 20.877 10.9524H19.3765C19.4168 10.2664 19.6486 9.71144 20.0716 9.28761C20.2799 9.08198 20.5272 8.91995 20.799 8.81105C21.1027 8.69133 21.4269 8.63219 21.7534 8.63699C22.063 8.63478 22.3708 8.68595 22.663 8.78824C22.9406 8.8855 23.1944 9.0403 23.4078 9.24249C23.6193 9.45915 23.7842 9.71666 23.8924 9.99923C24.02 10.3375 24.0816 10.6971 24.0742 11.0585V16.3983H22.5285ZM22.5285 13.0991C22.3884 13.0724 22.2464 13.0573 22.1039 13.054C21.7706 13.054 21.4852 13.1322 21.2479 13.2885C21.0106 13.4449 20.8919 13.7299 20.8919 14.1435C20.8919 14.4366 20.9624 14.6731 21.1039 14.8551C21.2454 15.0371 21.4425 15.1273 21.6948 15.1273C21.9573 15.1273 22.1619 15.0416 22.3085 14.87C22.4551 14.6984 22.5285 14.4562 22.5285 14.1435V13.0991Z" fill="black"/>
<path d="M25.209 16.3986V8.72598H26.7547V9.46983H26.785C26.9392 9.23495 27.1373 9.0319 27.3684 8.87178C27.5955 8.7154 27.8858 8.63721 28.2393 8.63721C28.573 8.63721 28.8509 8.71788 29.073 8.87921C29.2812 9.02692 29.4654 9.20572 29.6192 9.40933C29.8069 9.20075 30.0208 9.01739 30.2558 8.86384C30.4875 8.71276 30.8107 8.63705 31.2255 8.63672C31.4265 8.63856 31.6259 8.67203 31.8164 8.7359C32.0204 8.80245 32.207 8.91358 32.3626 9.06121C32.5329 9.22585 32.667 9.42412 32.7563 9.6434C32.8556 9.88077 32.9061 10.1709 32.9078 10.5137V16.3986H31.3591V11.087C31.3591 10.805 31.2929 10.583 31.1605 10.421C31.028 10.259 30.8412 10.1783 30.5999 10.179C30.3069 10.179 30.1048 10.2697 29.9936 10.4512C29.8824 10.6327 29.8269 10.8951 29.8273 11.2382V16.3986H28.285V11.087C28.285 10.805 28.2188 10.583 28.0864 10.421C27.954 10.259 27.7671 10.1783 27.5258 10.179C27.2329 10.179 27.0308 10.2697 26.9195 10.4512C26.8083 10.6327 26.7529 10.8951 26.7532 11.2382V16.3986H25.209Z" fill="black"/>
<path d="M34.1797 19.5005V8.72555H35.7249V9.41981C35.9013 9.21268 36.0994 9.02499 36.3158 8.85993C36.518 8.70885 36.811 8.63314 37.1946 8.63281C37.8312 8.63281 38.2807 8.87498 38.5432 9.35931C38.644 9.55888 38.7111 9.77368 38.7419 9.99505C38.7876 10.3309 38.8078 10.6698 38.8024 11.0087V13.9295C38.8024 14.4949 38.7874 14.9035 38.7572 15.1554C38.6967 15.6596 38.4649 16.0379 38.0621 16.2905C37.8598 16.4228 37.5669 16.4889 37.1832 16.4889C36.8996 16.4939 36.6197 16.4234 36.3724 16.2846C36.126 16.1398 35.9161 15.9407 35.7587 15.7024H35.7284V19.5005H34.1797ZM37.2552 11.2224C37.2552 10.91 37.1948 10.6579 37.074 10.4662C36.9532 10.2744 36.7612 10.1785 36.498 10.1785C36.3903 10.1753 36.2833 10.1976 36.1858 10.2436C36.0884 10.2896 36.0032 10.3581 35.9374 10.4433C35.7954 10.6199 35.7246 10.8495 35.7249 11.1322V14.113C35.7168 14.3333 35.7958 14.548 35.9449 14.7106C36.0149 14.787 36.1005 14.8474 36.1959 14.8879C36.2913 14.9284 36.3944 14.9479 36.498 14.9451C36.791 14.9451 36.9901 14.8549 37.0939 14.6729C37.2031 14.4791 37.258 14.2595 37.2527 14.0371L37.2552 11.2224Z" fill="black"/>
<path d="M39.983 5.625H41.5287V14.2353C41.5287 14.5284 41.5818 14.7273 41.6881 14.8334C41.7943 14.9395 41.9934 15.0075 42.2839 15.0372V16.4902C41.9637 16.4932 41.6439 16.4653 41.3291 16.4069C41.0637 16.3597 40.814 16.248 40.6021 16.0816C40.389 15.9158 40.2284 15.6919 40.1399 15.4369C40.0336 15.1599 39.9805 14.7942 39.9805 14.34L39.983 5.625Z" fill="black"/>
<path d="M42.2402 8.72656H43.8788L44.9394 13.5085H44.9697L46.0154 8.72656H47.6043L45.3922 17.7311C45.3287 18.0313 45.2133 18.3181 45.0511 18.5786C44.9156 18.789 44.7438 18.9737 44.5437 19.1241C44.3603 19.2621 44.1519 19.3632 43.9299 19.4217C43.7096 19.4776 43.483 19.5056 43.2556 19.505H42.8316V18.052H43.1792C43.3131 18.0547 43.4465 18.0343 43.5734 17.9915C43.6842 17.9513 43.7854 17.8606 43.8763 17.7192C43.9756 17.5306 44.0519 17.3308 44.1037 17.1242C44.1742 16.8666 44.255 16.5109 44.346 16.057L42.2402 8.72656Z" fill="black"/>
<path d="M48.4237 16.3985V9.93687H47.666V8.72588H48.4237V7.68449C48.4237 7.31091 48.4793 6.99551 48.5906 6.73831C48.6927 6.49264 48.8478 6.27251 49.0449 6.09363C49.2228 5.92448 49.4384 5.80005 49.674 5.73063C49.9124 5.66003 50.1598 5.62445 50.4084 5.62501H51.1224V7.0775H50.4272C50.1244 7.0775 49.9728 7.25404 49.9724 7.60713V8.72687H51.1224V9.93786H49.9704V16.3995L48.4237 16.3985Z" fill="#CC2929"/>
<path d="M56.2109 8.72656V16.3992H54.6652V15.6553H54.6349C54.4808 15.8914 54.2825 16.0956 54.051 16.2568C53.8236 16.4129 53.5331 16.4911 53.1796 16.4914C52.9836 16.4904 52.7891 16.4569 52.6041 16.3922C52.4094 16.3251 52.233 16.2137 52.0887 16.0669C51.9277 15.9005 51.8039 15.7019 51.7253 15.4842C51.6273 15.2048 51.5811 14.9099 51.5887 14.6139V8.72656H53.1344V14.0382C53.1344 14.3208 53.2006 14.5428 53.333 14.7042C53.4654 14.8655 53.6525 14.9462 53.8941 14.9462C54.1866 14.9462 54.3907 14.8559 54.4999 14.6739C54.6091 14.4919 54.6667 14.2276 54.6667 13.8869V8.72656H56.2109Z" fill="#CC2929"/>
<path d="M57.4844 16.3981V8.72549H59.0301V9.46934H59.0604C59.2146 9.23445 59.4127 9.03141 59.6438 8.87128C59.8709 8.71491 60.1612 8.63672 60.5147 8.63672C60.7109 8.63779 60.9055 8.6713 61.0907 8.7359C61.2853 8.80327 61.4617 8.9146 61.6061 9.06121C61.767 9.22754 61.8908 9.42593 61.9696 9.6434C62.0674 9.92287 62.1137 10.2177 62.1061 10.5137V16.3981H60.5604V11.0865C60.5604 10.8045 60.4942 10.5825 60.3618 10.4205C60.2294 10.2585 60.0425 10.1778 59.8012 10.1785C59.5083 10.1785 59.3062 10.2692 59.1949 10.4507C59.0837 10.6322 59.0283 10.8946 59.0286 11.2377V16.3981H57.4844Z" fill="#CC2929"/>
<path d="M66.4534 16.3995V15.7052C66.354 15.8159 66.2582 15.9193 66.1659 16.0151C66.0756 16.11 65.9738 16.1933 65.863 16.2631C65.7455 16.3367 65.6178 16.3928 65.4841 16.4297C65.321 16.4726 65.1528 16.493 64.9841 16.4902C64.337 16.4902 63.8874 16.248 63.6355 15.7637C63.535 15.5642 63.4679 15.3496 63.4369 15.1285C63.3909 14.7924 63.3707 14.4534 63.3763 14.1143V11.194C63.3702 10.7848 63.3853 10.3757 63.4215 9.9681C63.4827 9.46328 63.7203 9.0849 64.134 8.83299C64.3257 8.70075 64.6135 8.63463 64.9975 8.63463C65.2812 8.62966 65.561 8.70017 65.8084 8.83894C66.0546 8.98404 66.2645 9.18332 66.4221 9.42162H66.4519V5.625H67.9976V16.3995H66.4534ZM64.925 13.9026C64.925 14.2157 64.9856 14.4679 65.1068 14.6593C65.2279 14.8512 65.4196 14.9465 65.6822 14.9465C65.7899 14.9497 65.8969 14.9275 65.9943 14.8816C66.0918 14.8356 66.1769 14.7673 66.2428 14.6821C66.3842 14.5056 66.4548 14.276 66.4548 13.9933V11.012C66.4631 10.7917 66.3842 10.5771 66.2354 10.4144C66.1653 10.3381 66.0797 10.2777 65.9843 10.2372C65.8888 10.1968 65.7859 10.1772 65.6822 10.1799C65.3893 10.1799 65.1907 10.2706 65.0864 10.4521C64.9773 10.646 64.9224 10.8655 64.9275 11.0879L64.925 13.9026Z" fill="#CC2929"/>
</g>
<defs>
<clipPath id="clip0_3064_14810">
<rect width="68" height="24.4103" fill="white" transform="translate(0 0.355469)"/>
</clipPath>
</defs>
</svg>
