<svg width="59" height="62" viewBox="0 0 59 62" fill="none" xmlns="http://www.w3.org/2000/svg">
<g id="Asset 6 1" clip-path="url(#clip0_3064_14722)">
<g id="Layer_1-2">
<path id="Vector" d="M30.2789 38.757C39.1001 38.757 46.2511 31.606 46.2511 22.7848C46.2511 13.9635 39.1001 6.8125 30.2789 6.8125C21.4577 6.8125 14.3066 13.9635 14.3066 22.7848C14.3066 31.606 21.4577 38.757 30.2789 38.757Z" fill="white"/>
<path id="Vector_2" d="M30.2778 12.6523C24.6904 12.6523 20.1445 17.1982 20.1445 22.7864C20.1445 24.5648 20.6052 26.2377 21.4131 27.6917C21.6925 28.1941 22.0127 28.6712 22.3705 29.1164L26.3536 26.5645C26.6386 26.3815 26.9621 26.2908 27.2856 26.2908C27.6091 26.2908 27.9612 26.3896 28.2536 26.5881C28.8246 26.9762 29.1097 27.6656 28.9782 28.3444L28.1368 32.6926C28.6898 32.8119 29.2592 32.8854 29.8408 32.9107C29.9854 32.9164 30.1316 32.9197 30.2778 32.9197C35.866 32.9197 40.4119 28.3738 40.4119 22.7864C40.4119 17.199 35.866 12.6523 30.2778 12.6523ZM30.2778 24.9569C29.0811 24.9569 28.1066 23.9831 28.1066 22.7864C28.1066 21.5897 29.0811 20.6152 30.2778 20.6152C31.4745 20.6152 32.449 21.5889 32.449 22.7864C32.449 23.984 31.4753 24.9569 30.2778 24.9569Z" fill="#1F158E"/>
<path id="Vector_3" d="M30.2778 0.636719C18.046 0.636719 8.13086 10.5527 8.13086 22.7837C8.13086 26.9514 9.28183 30.8503 11.284 34.179C11.5789 34.6708 11.8925 35.1495 12.2242 35.6151L20.3676 30.3977C20.0188 29.9452 19.7002 29.4681 19.4159 28.969C18.3728 27.1441 17.7756 25.0325 17.7756 22.7845C17.7756 15.8901 23.3843 10.2815 30.2778 10.2815C37.1714 10.2815 42.7808 15.8901 42.7808 22.7845C42.7808 29.6789 37.1722 35.2867 30.2778 35.2867C29.978 35.2867 29.6815 35.2761 29.3866 35.2548C28.8083 35.214 28.2406 35.1339 27.6859 35.0163L25.852 44.4887C26.4091 44.6023 26.9744 44.6946 27.5462 44.764C28.4415 44.8751 29.3531 44.9315 30.2778 44.9315C42.5096 44.9315 52.4256 35.0155 52.4256 22.7837C52.4256 10.5519 42.5096 0.636719 30.2778 0.636719Z" fill="#1F158E"/>
<path id="Vector_4" d="M29.2172 25.1679C28.0768 24.3943 26.5893 24.3755 25.4286 25.1188L21.4136 27.6912L19.4164 28.9704L11.2845 34.1804L8.85753 35.7357C7.718 36.4676 7.11107 37.8048 7.3112 39.1429C7.51297 40.4817 8.48341 41.5829 9.78468 41.948L16.5467 43.8497L20.8116 49.4273C21.0346 49.7213 21.305 49.9762 21.6154 50.1869C22.1897 50.5766 22.8677 50.7808 23.553 50.7808C23.8144 50.7808 24.0774 50.7506 24.3364 50.6901C25.6524 50.3797 26.6702 49.3219 26.9275 47.9953L27.0353 47.4431L27.0296 47.439L27.5467 44.7654L29.3871 35.2562L29.8413 32.9101L30.6622 28.6698C30.9244 27.3162 30.3575 25.9414 29.2172 25.1679ZM27.6864 35.0177L25.8525 44.4901L25.2382 47.6653L25.2162 47.7894C25.0512 48.3972 24.5627 48.8742 23.9435 49.0204C23.4746 49.1299 22.9771 49.0384 22.5785 48.7672C22.4225 48.6618 22.2877 48.5352 22.1758 48.3882L17.5621 42.3532L10.2487 40.2963C9.59598 40.1133 9.10913 39.5603 9.00784 38.888C8.90736 38.2173 9.21205 37.5467 9.78386 37.1799L12.2247 35.6164L20.368 30.3991L22.371 29.1158L26.3541 26.5639C26.6392 26.3809 26.9626 26.2902 27.2861 26.2902C27.6096 26.2902 27.9617 26.3891 28.2541 26.5876C28.8251 26.9756 29.1102 27.665 28.9787 28.3438L28.1373 32.692L27.6864 35.0177Z" fill="#1F158E"/>
<path id="Vector_5" d="M28.9781 28.3427L28.1367 32.6909L27.6858 35.0165L25.8519 44.4889L25.2376 47.6641L25.2156 47.7883C25.0506 48.396 24.5621 48.8731 23.9429 49.0193C23.474 49.1287 22.9765 49.0372 22.5779 48.766C22.4219 48.6607 22.2871 48.5341 22.1752 48.387L17.5615 42.352L10.2481 40.2951C9.59539 40.1121 9.10853 39.5591 9.00724 38.8868C8.90677 38.2162 9.21146 37.5455 9.78327 37.1788L12.2241 35.6153L20.3674 30.3979L22.3704 29.1146L26.3535 26.5627C26.6386 26.3797 26.962 26.2891 27.2855 26.2891C27.609 26.2891 27.9611 26.3879 28.2535 26.5864C28.8245 26.9744 29.1096 27.6639 28.9781 28.3427Z" fill="white"/>
<path id="Vector_6" d="M1.24031 54.7331C1.59973 54.0347 2.08822 53.498 2.70659 53.1222C3.32414 52.7465 4.01358 52.5586 4.77653 52.5586C5.44228 52.5586 6.02471 52.6934 6.52464 52.9613C7.02374 53.2301 7.42401 53.5682 7.72462 53.9759V52.7032H9.99633V61.6275H7.72462V60.3229C7.43463 60.742 7.03436 61.0883 6.52464 61.362C6.01409 61.6357 5.42676 61.7729 4.76101 61.7729C4.00949 61.7729 3.32414 61.5793 2.7074 61.1929C2.08985 60.8065 1.60136 60.2617 1.24112 59.5575C0.880883 58.8542 0.701172 58.0463 0.701172 57.1331C0.701172 56.2198 0.880883 55.4307 1.24112 54.7331H1.24031ZM7.40195 55.7558C7.18712 55.3637 6.89713 55.0631 6.53199 54.854C6.16685 54.6441 5.77475 54.5395 5.3557 54.5395C4.93664 54.5395 4.55026 54.6416 4.19574 54.8458C3.84122 55.05 3.55368 55.3482 3.33394 55.7403C3.11339 56.1324 3.00393 56.5972 3.00393 57.1339C3.00393 57.6706 3.1142 58.1411 3.33394 58.5438C3.55368 58.9465 3.84367 59.2553 4.20391 59.4701C4.56333 59.685 4.94726 59.792 5.3557 59.792C5.76413 59.792 6.16685 59.6874 6.53199 59.4775C6.89713 59.2684 7.18712 58.9678 7.40195 58.5757C7.61679 58.1836 7.7238 57.7139 7.7238 57.1657C7.7238 56.6176 7.61597 56.1479 7.40195 55.7558Z" fill="#1F158E"/>
<path id="Vector_7" d="M15.5928 52.9769C16.0601 52.709 16.5943 52.5742 17.1955 52.5742V54.9423H16.5992C15.8902 54.9423 15.3559 55.109 14.9965 55.4414C14.6363 55.7747 14.4565 56.3547 14.4565 57.1814V61.6276H12.2012V52.7033H14.4565V54.0887C14.7465 53.6165 15.1247 53.2457 15.592 52.9769H15.5928Z" fill="#1F158E"/>
<path id="Vector_8" d="M20.3537 61.2011C19.6667 60.8196 19.1267 60.2805 18.7346 59.582C18.3425 58.8836 18.1465 58.079 18.1465 57.1657C18.1465 56.2525 18.3474 55.4479 18.751 54.7494C19.1537 54.0518 19.7043 53.5119 20.4019 53.1304C21.1003 52.7489 21.8788 52.5586 22.7381 52.5586C23.5975 52.5586 24.3759 52.7497 25.0744 53.1304C25.7728 53.5119 26.3225 54.0518 26.7252 54.7494C27.128 55.4479 27.3297 56.2533 27.3297 57.1657C27.3297 58.0782 27.1231 58.8844 26.7097 59.582C26.2964 60.2805 25.7377 60.8196 25.0343 61.2011C24.331 61.5826 23.5444 61.7729 22.6744 61.7729C21.8044 61.7729 21.0415 61.5826 20.3545 61.2011H20.3537ZM23.8254 59.5093C24.1848 59.3108 24.4723 59.0127 24.6872 58.6149C24.902 58.2179 25.009 57.7343 25.009 57.1649C25.009 56.3162 24.786 55.6643 24.3408 55.2077C23.8948 54.7511 23.3499 54.5232 22.7054 54.5232C22.0609 54.5232 21.5218 54.7511 21.0864 55.2077C20.6518 55.6643 20.4337 56.317 20.4337 57.1649C20.4337 58.0128 20.6453 58.6655 21.0701 59.1221C21.494 59.5788 22.0282 59.8067 22.6728 59.8067C23.0804 59.8067 23.4643 59.7078 23.8245 59.5085L23.8254 59.5093Z" fill="#1F158E"/>
<path id="Vector_9" d="M37.4143 52.7031V61.6274H35.1426V60.5001C34.8526 60.8865 34.4744 61.1904 34.0071 61.4101C33.5399 61.6299 33.0326 61.7402 32.4845 61.7402C31.786 61.7402 31.1685 61.5923 30.6318 61.2974C30.0943 61.0025 29.6736 60.5671 29.3673 59.9929C29.061 59.4186 28.9082 58.7341 28.9082 57.9384V52.7031H31.1636V57.6166C31.1636 58.3256 31.3408 58.8705 31.6954 59.252C32.0499 59.6334 32.5327 59.8238 33.1453 59.8238C33.758 59.8238 34.2571 59.6334 34.6116 59.252C34.9661 58.8713 35.1434 58.3256 35.1434 57.6166V52.7031H37.4151H37.4143Z" fill="#1F158E"/>
<path id="Vector_10" d="M47.159 53.5806C47.8141 54.2521 48.1416 55.189 48.1416 56.3915V61.6268H45.8863V56.697C45.8863 55.9879 45.709 55.4431 45.3545 55.0616C45 54.6801 44.5164 54.4898 43.9045 54.4898C43.2927 54.4898 42.7903 54.6809 42.4301 55.0616C42.0699 55.4431 41.8901 55.9879 41.8901 56.697V61.6268H39.6348V52.7025H41.8901V53.8142C42.1907 53.4278 42.5747 53.124 43.0419 52.9042C43.5092 52.6845 44.0222 52.5742 44.5801 52.5742C45.6437 52.5742 46.5022 52.91 47.1573 53.5814L47.159 53.5806Z" fill="#1F158E"/>
<path id="Vector_11" d="M50.2439 54.7324C50.6033 54.034 51.0951 53.4973 51.7183 53.1215C52.3408 52.7458 53.0335 52.5579 53.7965 52.5579C54.3764 52.5579 54.9295 52.6845 55.4555 52.9369C55.9816 53.1893 56.4006 53.5251 56.7119 53.9441V49.707H58.9991V61.6284H56.7119V60.3075C56.4325 60.7478 56.0404 61.1024 55.5356 61.3711C55.0307 61.6399 54.4451 61.7738 53.7793 61.7738C53.0278 61.7738 52.34 61.5802 51.7175 61.1939C51.0943 60.8075 50.6033 60.2626 50.2431 59.5585C49.8828 58.8552 49.7031 58.0473 49.7031 57.134C49.7031 56.2207 49.8828 55.4317 50.2431 54.734L50.2439 54.7324ZM56.4064 55.7551C56.1915 55.363 55.9015 55.0624 55.5364 54.8533C55.1712 54.6434 54.7792 54.5388 54.3601 54.5388C53.941 54.5388 53.5547 54.6409 53.2001 54.8451C52.8456 55.0494 52.5581 55.3475 52.3383 55.7396C52.1178 56.1317 52.0083 56.5965 52.0083 57.1332C52.0083 57.6699 52.1186 58.1404 52.3383 58.5431C52.5581 58.9458 52.8481 59.2546 53.2083 59.4694C53.5677 59.6843 53.9517 59.7913 54.3601 59.7913C54.7685 59.7913 55.1704 59.6867 55.5364 59.4768C55.9015 59.2677 56.1915 58.9671 56.4064 58.575C56.6212 58.1829 56.7282 57.7132 56.7282 57.1651C56.7282 56.6169 56.6204 56.1472 56.4064 55.7551Z" fill="#1F158E"/>
</g>
</g>
<defs>
<clipPath id="clip0_3064_14722">
<rect width="58.3" height="61.1353" fill="white" transform="translate(0.699219 0.636719)"/>
</clipPath>
</defs>
</svg>
