<svg width="61" height="48" viewBox="0 0 61 48" fill="none" xmlns="http://www.w3.org/2000/svg">
<g id="Frame 2388">
<path id="Vector" d="M40.5902 3.16056L37.9817 6.365H20.526L14.2121 14.119L9.9136 19.4L7.54834 22.3029H25.0029L20.5932 27.7191V27.726H3.33441C0.526677 27.726 -1.02313 24.4765 0.746759 22.3029L3.09696 19.4139L7.39544 14.134L13.7233 6.36153L18.2916 0.75H39.4423C39.7225 0.749817 39.9969 0.828946 40.2338 0.978191C40.4706 1.12743 40.6602 1.34067 40.7804 1.59312C40.9006 1.84556 40.9465 2.12686 40.9129 2.40432C40.8792 2.68178 40.7673 2.94402 40.5902 3.16056Z" fill="#E14446"/>
<path id="Vector_2" d="M37.3456 27.7197L41.6951 27.7266L41.7009 27.7197L46.1105 22.3011L48.558 19.2966L54.5453 11.9425H33.4375L37.9804 6.36328H57.5616C60.4504 6.36328 62.0454 9.70639 60.2257 11.9425L54.25 19.2816L51.7885 22.3011L47.3789 27.7197V27.7266L42.9692 33.144H19.9977C19.6538 33.144 19.3169 33.0469 19.0261 32.8638C18.7353 32.6806 18.5025 32.4191 18.3546 32.1093C18.2067 31.7996 18.1498 31.4544 18.1905 31.1138C18.2312 30.7731 18.3678 30.4509 18.5845 30.1845L20.5861 27.7324H30.5359" fill="#E14446"/>
<path id="Vector_3" d="M48.6587 14.0273L44.3602 19.3072L41.8907 22.3129L35.9556 24.95L34.9224 22.299L37.3479 19.3246L27.5717 19.3511L14.6543 19.3846L18.9528 14.1048L31.8702 14.0713L41.8409 14.0447L48.6587 14.0273Z" fill="#E14446"/>
<path id="Vector_4" d="M37.952 6.83594L20.6133 27.6157" stroke="#E14446" stroke-width="1.58462" stroke-miterlimit="10"/>
<path id="Vector_5" d="M5.56484 47.2361C4.46908 47.2361 3.50383 46.9977 2.66907 46.5208C1.85098 46.0606 1.17939 45.3797 0.731226 44.5563C0.265167 43.6832 0.0299542 42.706 0.0478221 41.717C0.038679 40.9318 0.176972 40.1518 0.455549 39.4174C0.710346 38.7473 1.098 38.1353 1.59532 37.6182C2.08987 37.111 2.68524 36.7127 3.34321 36.4487C4.04923 36.1659 4.80406 36.0241 5.56484 36.0315C6.81041 36.0315 7.83937 36.2938 8.65173 36.8185C9.4887 37.37 10.1467 38.1525 10.5456 39.0707L8.42354 39.9143C8.12916 39.3988 7.7057 38.9684 7.19458 38.6651C6.69416 38.3971 6.13268 38.2629 5.56484 38.2757C4.9958 38.2656 4.43489 38.4115 3.94321 38.6975C3.46726 38.9808 3.08042 39.3915 2.8266 39.8831C2.54365 40.4521 2.40598 41.0821 2.42583 41.717C2.41348 42.3226 2.55324 42.9217 2.83239 43.4596C3.08809 43.9478 3.47466 44.3554 3.949 44.6372C4.44045 44.9237 5.00151 45.0696 5.57063 45.059C6.0904 45.0701 6.60573 44.9614 7.07643 44.7412C7.50342 44.536 7.86713 44.2198 8.12934 43.826C8.40054 43.4101 8.55494 42.9292 8.57644 42.4335L9.24594 43.2424H5.39341V41.1623H10.6904C10.7339 41.3403 10.7656 41.521 10.7853 41.7031C10.8073 41.895 10.8181 42.0879 10.8178 42.2809C10.8268 42.98 10.6825 43.6726 10.395 44.3102C10.1212 44.9041 9.73046 45.437 9.24594 45.8771C8.76069 46.3177 8.19473 46.6606 7.57914 46.8871C6.9342 47.1233 6.25184 47.2416 5.56484 47.2361Z" fill="black"/>
<path id="Vector_6" d="M15.6838 47.2357C14.9382 47.2513 14.2014 47.0733 13.5456 46.7191C12.9392 46.3848 12.4409 45.885 12.1093 45.2781C11.7742 44.6198 11.5996 43.8919 11.5996 43.1536C11.5996 42.4153 11.7742 41.6874 12.1093 41.029C12.4409 40.4222 12.9392 39.9223 13.5456 39.588C14.2094 39.2478 14.945 39.0703 15.6913 39.0703C16.4377 39.0703 17.1732 39.2478 17.8371 39.588C18.4444 39.9239 18.9448 40.4232 19.2815 41.029C19.6221 41.6857 19.7999 42.4142 19.7999 43.1536C19.7999 43.8929 19.6221 44.6215 19.2815 45.2781C18.9464 45.8832 18.448 46.3824 17.8429 46.7191C17.1804 47.0754 16.4362 47.2535 15.6838 47.2357ZM15.6838 44.9765C15.9186 44.9856 16.1526 44.9457 16.371 44.8593C16.5894 44.773 16.7874 44.6421 16.9521 44.475C17.2765 44.1399 17.4386 43.7031 17.4386 43.1611C17.4386 42.6191 17.2765 42.1638 16.9521 41.8241C16.7886 41.6549 16.591 41.5222 16.3725 41.4346C16.1539 41.347 15.9192 41.3064 15.6838 41.3156C15.454 41.3084 15.2253 41.3491 15.0122 41.4353C14.7992 41.5215 14.6066 41.6511 14.4467 41.816C14.1224 42.1511 13.9602 42.5941 13.9602 43.1449C13.9602 43.6957 14.1224 44.1391 14.4467 44.475C14.6065 44.64 14.7991 44.7699 15.0121 44.8562C15.2252 44.9426 15.454 44.9836 15.6838 44.9765Z" fill="black"/>
<path id="Vector_7" d="M23.4032 47.0425H21.0762V36.2031H27.9206V38.4473H22.5924L23.4032 37.4766V47.0425ZM22.7175 42.9356V40.7076H27.1191V42.9356H22.7175Z" fill="#E14446"/>
<path id="Vector_8" d="M30.776 38.4165L31.5868 37.477V45.7695L30.6995 44.8346H36.1714V47.0464H29.2598V36.207H36.1679V38.42L30.776 38.4165ZM30.8235 42.7141V40.5012H35.2911V42.7141H30.8235Z" fill="#E14446"/>
<path id="Vector_9" d="M37.1738 47.0425L39.0885 36.2031H41.1735L43.7739 43.6208H43.658L46.2584 36.2031H48.3434L50.2743 47.0425H47.9287L47.1793 42.2041C47.0828 41.557 46.9951 40.9121 46.9163 40.2696C46.8376 39.6271 46.7708 38.9827 46.716 38.3363H47.3797C47.2098 39.0366 47.0422 39.6945 46.877 40.3101C46.7117 40.9256 46.5187 41.5462 46.2978 42.1717L44.638 46.9096H42.8055L41.1468 42.1717C40.9229 41.5354 40.7298 40.9121 40.5677 40.302C40.4055 39.6918 40.2379 39.037 40.065 38.3375H40.7194C40.6661 38.9846 40.602 39.6291 40.5271 40.2708C40.4522 40.9125 40.3619 41.5573 40.2561 42.2052L39.5032 47.0425H37.1738Z" fill="#E14446"/>
<path id="Vector_10" d="M50.7832 47.0425L54.6438 36.2031H57.213L60.8825 47.0425H58.5207L55.5531 37.7978H56.3188L53.1288 47.0425H50.7832ZM53.1601 42.8697H58.2682V45.0191H53.1601V42.8697Z" fill="#E14446"/>
</g>
</svg>
