<svg width="66" height="29" viewBox="0 0 66 29" fill="none" xmlns="http://www.w3.org/2000/svg">
<g id="Frame 16">
<g id="Group 5">
<g id="Layer 24">
<path id="Vector" d="M9.3897 5.82812H0.417969V14.5869H9.3897V5.82812Z" fill="#6FA8EC"/>
<g id="Vector_2" style="mix-blend-mode:multiply">
<path d="M7.82997 27.0862L16.6584 27.0616L9.35633 14.5508L0.4375 14.5877" fill="#336EB5"/>
</g>
<path id="Vector_3" d="M10.625 5.77734H22.9361L22.9491 11.934L10.6521 11.9205L10.625 5.77734Z" fill="#6FA8EC"/>
<path id="Vector_4" d="M22.9417 14.5833V11.75H17.8418V14.5833H22.9417Z" fill="#6FA8EC"/>
<path id="Vector_5" d="M16.2839 11.8945V14.5828L10.6504 14.6135V11.9173L16.2839 11.8945Z" fill="#6FA8EC"/>
<g id="Group" style="mix-blend-mode:multiply">
<path id="Vector_6" d="M17.7423 27.0755H30.1599L27.5489 22.582L20.4444 22.6423H15.1621L17.7423 27.0755Z" fill="#336EB5"/>
<path id="Vector_7" d="M16.2846 14.5781L21.0482 22.6847L15.1618 22.6434L10.6504 14.6089L16.2846 14.5781Z" fill="#336EB5"/>
<path id="Vector_8" d="M17.8418 14.582L22.6206 22.9403L27.5459 22.5678L22.9417 14.582H17.8418Z" fill="#336EB5"/>
</g>
<path id="Vector_9" d="M2.72235 5.31622C3.66387 5.31622 4.42712 4.55287 4.42712 3.61124C4.42712 2.6696 3.66387 1.90625 2.72235 1.90625C1.78083 1.90625 1.01758 2.6696 1.01758 3.61124C1.01758 4.55287 1.78083 5.31622 2.72235 5.31622Z" fill="#336EB5"/>
</g>
<path id="Vector_10" d="M27.5008 10C27.6317 10.0046 27.7556 10.0597 27.8465 10.1536C27.9374 10.2475 27.9882 10.373 27.9882 10.5036C27.9882 10.6341 27.9374 10.7596 27.8465 10.8535C27.7556 10.9475 27.6317 11.0025 27.5008 11.0071C27.3682 11.0055 27.2415 10.9521 27.1479 10.8584C27.0543 10.7646 27.0012 10.638 27.0001 10.5057C26.9989 10.4391 27.0115 10.373 27.0369 10.3114C27.0624 10.2499 27.1003 10.1942 27.1482 10.1478C27.1937 10.1004 27.2485 10.0628 27.3092 10.0374C27.3698 10.012 27.4351 9.99929 27.5008 10ZM27.1965 11.9536H27.8089V16.7002H27.1959L27.1965 11.9536Z" fill="black"/>
<path id="Vector_11" d="M29.0762 11.9502H29.6885V12.7705C29.9017 12.4684 30.1205 12.2473 30.3448 12.1072C30.6382 11.9259 30.9764 11.8293 31.3215 11.8284C31.5474 11.8275 31.7709 11.8736 31.9779 11.9638C32.172 12.0442 32.3454 12.1672 32.4854 12.3236C32.6392 12.5143 32.7551 12.7325 32.8269 12.9665C33.0045 12.6233 33.2674 12.3312 33.5905 12.1183C33.884 11.9284 34.2266 11.8277 34.5765 11.8284C34.8839 11.8227 35.1861 11.9089 35.4441 12.0757C35.6968 12.2446 35.8915 12.4867 36.0019 12.7693C36.1259 13.0661 36.1879 13.511 36.1879 14.104V16.6968H35.5625V14.1053C35.5625 13.5967 35.5262 13.2464 35.4534 13.0543C35.3822 12.8652 35.2518 12.7039 35.0816 12.5944C34.8941 12.4742 34.6747 12.4133 34.4519 12.4194C34.1598 12.418 33.8749 12.5098 33.6388 12.6815C33.3937 12.8554 33.2064 13.0985 33.1009 13.3795C32.9877 13.668 32.931 14.1535 32.931 14.836V16.6968H32.3187V14.2672C32.3187 13.6944 32.283 13.3053 32.2115 13.1001C32.1445 12.8994 32.014 12.7258 31.8397 12.6055C31.6529 12.4792 31.4312 12.4143 31.2056 12.42C30.921 12.4207 30.6437 12.51 30.4124 12.6753C30.166 12.8452 29.9757 13.0843 29.8657 13.3622C29.7476 13.6507 29.6885 14.0913 29.6885 14.6839V16.6968H29.0762V11.9502Z" fill="black"/>
<path id="Vector_12" d="M37.4902 11.9528H38.1038V12.8251C38.3206 12.5159 38.6061 12.2608 38.938 12.0796C39.2634 11.9117 39.6253 11.8268 39.9916 11.8323C40.3155 11.8278 40.6369 11.8901 40.9355 12.0155C41.2342 12.1408 41.5036 12.3264 41.7269 12.5605C41.9585 12.7893 42.1413 13.0624 42.2642 13.3635C42.3871 13.6647 42.4476 13.9875 42.4421 14.3126C42.4487 14.6414 42.3889 14.9683 42.2663 15.2737C42.1436 15.579 41.9606 15.8566 41.7281 16.0899C41.3772 16.4515 40.9211 16.6938 40.4245 16.7826C39.9279 16.8714 39.4159 16.8021 38.9609 16.5845C38.6286 16.4138 38.3364 16.1747 38.1038 15.8828V18.4348H37.4921L37.4902 11.9528ZM39.9389 12.4196C39.6895 12.4147 39.4417 12.4616 39.2115 12.5574C38.9812 12.6532 38.7735 12.7957 38.6015 12.976C38.2395 13.3469 38.0586 13.8058 38.0586 14.3527C38.0533 14.6921 38.1366 15.027 38.3003 15.3246C38.4627 15.613 38.7033 15.8499 38.9944 16.0083C39.2845 16.1742 39.6131 16.2614 39.9476 16.2612C40.2749 16.2623 40.5964 16.1742 40.8772 16.0065C41.1679 15.8353 41.4068 15.589 41.5688 15.2937C41.7367 15.0021 41.8251 14.6717 41.8251 14.3354C41.8251 13.9992 41.7367 13.6688 41.5688 13.3772C41.4089 13.0864 41.1731 12.8441 40.8863 12.6761C40.5996 12.508 40.2727 12.4205 39.9401 12.4227L39.9389 12.4196Z" fill="black"/>
<path id="Vector_13" d="M43.358 11.9538H43.9834V12.6475C44.1379 12.4067 44.3384 12.1985 44.5734 12.0348C44.7641 11.9046 44.9893 11.834 45.2204 11.832C45.4121 11.8384 45.5988 11.894 45.7627 11.9934L45.4435 12.5077C45.3422 12.4592 45.2322 12.4311 45.12 12.4249C44.9163 12.4249 44.7196 12.5086 44.53 12.6759C44.3403 12.8432 44.1957 13.1027 44.0962 13.4542C44.0206 13.725 43.9828 14.2717 43.9828 15.0943V16.7017H43.3574L43.358 11.9538Z" fill="black"/>
<path id="Vector_14" d="M50.2875 15.1255L50.8038 15.3956C50.6577 15.6961 50.4592 15.9682 50.2175 16.1993C49.9997 16.4002 49.7457 16.5579 49.4688 16.6642C49.1676 16.7742 48.8487 16.828 48.528 16.8231C47.7513 16.8231 47.1443 16.5694 46.7072 16.062C46.2829 15.5891 46.0491 14.9762 46.0509 14.3416C46.0457 13.7577 46.2427 13.1899 46.6087 12.7342C47.078 12.1354 47.7067 11.8359 48.4946 11.8359C49.3056 11.8359 49.9535 12.1426 50.4381 12.7558C50.7819 13.189 50.9569 13.7299 50.9631 14.3787H46.6806C46.6917 14.9301 46.8681 15.382 47.2098 15.7344C47.372 15.9058 47.5684 16.0414 47.7864 16.1325C48.0044 16.2235 48.2391 16.268 48.4754 16.263C48.7166 16.2639 48.956 16.222 49.1825 16.1393C49.3961 16.0642 49.5941 15.9509 49.7669 15.8049C49.9276 15.6602 50.1012 15.4337 50.2875 15.1255ZM50.2875 13.847C50.226 13.5643 50.1045 13.2981 49.9312 13.0662C49.7642 12.8633 49.552 12.7021 49.3114 12.5957C49.058 12.477 48.7814 12.4158 48.5014 12.4164C48.0574 12.4078 47.6269 12.5685 47.2978 12.8659C47.0524 13.0839 46.8665 13.4109 46.74 13.847H50.2875Z" fill="black"/>
<path id="Vector_15" d="M54.4939 12.4722L54.1004 12.8777C53.7723 12.5608 53.4523 12.4023 53.1404 12.4023C52.9507 12.3987 52.7672 12.4693 52.6291 12.5989C52.5628 12.6555 52.5095 12.7256 52.4728 12.8045C52.4361 12.8835 52.4169 12.9694 52.4165 13.0564C52.42 13.2196 52.4823 13.376 52.5919 13.4972C52.7084 13.6394 52.9538 13.8065 53.3282 13.9985C53.7826 14.2339 54.0925 14.4606 54.2578 14.6786C54.4168 14.8946 54.5014 15.1562 54.4989 15.4241C54.5022 15.6084 54.4672 15.7914 54.3963 15.9616C54.3254 16.1318 54.22 16.2856 54.0867 16.4133C53.9517 16.5468 53.7909 16.6516 53.614 16.7213C53.4372 16.791 53.248 16.8242 53.0579 16.8188C52.7858 16.8194 52.5171 16.7583 52.2721 16.6402C52.0294 16.5262 51.8171 16.3567 51.6523 16.1456L52.0372 15.7091C52.3496 16.0611 52.6811 16.2371 53.0319 16.2371C53.2634 16.2424 53.488 16.1579 53.6585 16.0016C53.7395 15.9331 53.8046 15.8479 53.8493 15.7518C53.8939 15.6557 53.917 15.5511 53.9169 15.4452C53.9181 15.2742 53.8576 15.1086 53.7465 14.9784C53.6325 14.8445 53.3753 14.6757 52.9749 14.4721C52.5456 14.2516 52.2535 14.0336 52.0986 13.818C51.9438 13.6036 51.8623 13.3453 51.8662 13.0811C51.8617 12.9137 51.8926 12.7472 51.9566 12.5924C52.0207 12.4376 52.1165 12.2978 52.238 12.1822C52.362 12.0635 52.5086 11.9708 52.6691 11.9094C52.8296 11.848 53.0008 11.8193 53.1726 11.8249C53.6097 11.829 54.0502 12.0448 54.4939 12.4722Z" fill="black"/>
<path id="Vector_16" d="M57.9705 12.4722L57.5769 12.8777C57.2493 12.5608 56.9293 12.4023 56.6169 12.4023C56.4273 12.3987 56.2438 12.4693 56.1056 12.5989C56.0394 12.6555 55.9861 12.7256 55.9494 12.8045C55.9127 12.8835 55.8935 12.9694 55.8931 13.0564C55.8966 13.2195 55.9589 13.376 56.0685 13.4972C56.185 13.6394 56.4304 13.8065 56.8047 13.9985C57.2592 14.2339 57.5691 14.4605 57.7344 14.6786C57.8934 14.8946 57.9779 15.1562 57.9754 15.4241C57.9787 15.6084 57.9438 15.7914 57.8729 15.9616C57.802 16.1318 57.6966 16.2856 57.5633 16.4133C57.4283 16.5468 57.2674 16.6516 57.0906 16.7213C56.9138 16.791 56.7246 16.8242 56.5345 16.8188C56.2624 16.8194 55.9937 16.7583 55.7487 16.6402C55.506 16.5262 55.2937 16.3567 55.1289 16.1456L55.5132 15.7091C55.8263 16.0611 56.1581 16.2371 56.5085 16.2371C56.74 16.2423 56.9646 16.1579 57.1351 16.0015C57.2161 15.9331 57.2812 15.8479 57.3258 15.7518C57.3705 15.6557 57.3936 15.5511 57.3935 15.4452C57.3947 15.2742 57.3342 15.1085 57.2231 14.9784C57.109 14.8445 56.8518 14.6757 56.4515 14.4721C56.0218 14.2516 55.7297 14.0336 55.5751 13.818C55.4204 13.6036 55.3389 13.3453 55.3427 13.0811C55.3384 12.9137 55.3693 12.7472 55.4333 12.5924C55.4974 12.4376 55.5932 12.2979 55.7146 12.1822C55.8388 12.0636 55.9855 11.9708 56.146 11.9095C56.3066 11.8481 56.4779 11.8193 56.6498 11.8249C57.0861 11.829 57.5263 12.0448 57.9705 12.4722Z" fill="black"/>
<path id="Vector_17" d="M59.2658 10C59.3323 10.0001 59.3981 10.0133 59.4595 10.0387C59.5208 10.0642 59.5766 10.1015 59.6235 10.1484C59.6704 10.1954 59.7075 10.2511 59.7329 10.3124C59.7582 10.3737 59.7711 10.4394 59.7709 10.5057C59.7709 10.6387 59.718 10.7662 59.6237 10.8602C59.5295 10.9543 59.4016 11.0071 59.2683 11.0071C59.135 11.0071 59.0072 10.9543 58.9129 10.8602C58.8186 10.7662 58.7657 10.6387 58.7657 10.5057C58.7646 10.4392 58.7771 10.3731 58.8024 10.3116C58.8278 10.25 58.8655 10.1943 58.9132 10.1478C58.9588 10.1005 59.0136 10.0629 59.0742 10.0375C59.1348 10.0121 59.2001 9.99936 59.2658 10ZM58.9622 11.9536H59.5745V16.7002H58.9622V11.9536Z" fill="black"/>
<path id="Vector_18" d="M63.0985 11.832C63.8319 11.832 64.4395 12.0966 64.9212 12.6258C65.3504 13.1009 65.5848 13.7196 65.578 14.3591C65.5711 14.9986 65.3234 15.6121 64.884 16.0779C64.4213 16.5725 63.8261 16.8198 63.0985 16.8198C62.3709 16.8198 61.7745 16.5725 61.3093 16.0779C60.87 15.613 60.6223 15.0001 60.6154 14.3613C60.6085 13.7224 60.843 13.1044 61.2721 12.6301C61.7543 12.0981 62.3631 11.832 63.0985 11.832ZM63.0985 12.4292C62.8526 12.4268 62.6088 12.4756 62.3829 12.5726C62.157 12.6696 61.9538 12.8126 61.7865 12.9924C61.6084 13.1709 61.4681 13.3833 61.3738 13.6169C61.2796 13.8505 61.2334 14.1007 61.238 14.3525C61.2356 14.6884 61.321 15.0191 61.4859 15.312C61.6432 15.5989 61.8773 15.8367 62.1621 15.9988C62.4479 16.1575 62.7696 16.2408 63.0967 16.2408C63.4238 16.2408 63.7455 16.1575 64.0313 15.9988C64.3159 15.8367 64.5497 15.5989 64.7068 15.312C64.8717 15.0191 64.9571 14.6884 64.9547 14.3525C64.9593 14.1005 64.9129 13.8501 64.8182 13.6164C64.7235 13.3827 64.5826 13.1705 64.4037 12.9924C64.2369 12.8133 64.0346 12.6707 63.8096 12.5737C63.5846 12.4768 63.3418 12.4276 63.0967 12.4292H63.0985Z" fill="black"/>
</g>
</g>
</svg>
