<svg width="53" height="58" viewBox="0 0 53 58" fill="none" xmlns="http://www.w3.org/2000/svg">
<g id="Layer_3" clip-path="url(#clip0_3064_14701)">
<path id="Vector" d="M38.7936 22.4733C35.994 29.2635 29.0229 45.33 28.3616 46.9093C28.3343 46.9761 28.3097 47.0456 28.2851 47.1084C28.1635 47.4452 27.7236 48.2989 27.6416 48.5308C27.4612 49.0381 26.9858 49.6791 26.7111 50.0227C26.5925 50.1693 26.4623 50.3061 26.3217 50.4319L25.9842 50.7387C25.6413 51.0552 25.236 51.2967 24.7942 51.4479C24.3748 51.5852 23.9362 51.6552 23.4948 51.6552C22.9116 51.6562 22.3347 51.5341 21.8021 51.297C21.2694 51.0598 20.793 50.713 20.4041 50.2791C20.1755 49.9318 19.9478 49.5841 19.721 49.2358L19.7101 49.2195C19.3854 48.7284 19.1901 48.1635 19.1424 47.577C19.0946 46.9906 19.1959 46.4016 19.4368 45.8646L23.3103 37.2729L23.5754 36.6851C24.6002 34.4117 29.7826 23.2207 30.8702 20.8123L30.7486 20.7946C31.0834 18.5171 35.539 14.5212 37.8207 14.8513C40.205 14.434 39.2212 21.4505 38.7936 22.4733Z" fill="#0B82F9"/>
<g id="Vector_2">
<path d="M23.1712 29.2435C24.4255 27.7502 28.2594 23.6098 29.9441 21.6064C30.9278 20.4336 33.2233 17.807 33.2233 17.807L33.2369 17.792L33.4692 17.496C33.6479 17.2765 33.8469 17.0742 34.0636 16.8919L34.2521 16.735L34.3245 16.6873L34.3983 16.6409C34.4325 16.6191 34.468 16.6 34.5022 16.5809C34.5177 16.5715 34.5336 16.5628 34.55 16.555C34.5828 16.5359 34.6142 16.5196 34.6483 16.5032L34.7249 16.465C34.9882 16.3409 35.2679 16.255 35.5556 16.21C35.7062 16.1876 35.8583 16.1762 36.0106 16.1759C37.1501 16.1759 38.168 16.8251 38.8293 17.8383C40.2257 13.8834 31.6206 9.03659 27.4888 14.3989L14.9336 29.8817L16.5103 31.7364C16.5103 31.7364 20.239 32.7279 23.1603 29.2489" fill="white"/>
<path d="M23.1712 29.2435C24.4255 27.7502 28.2594 23.6098 29.9441 21.6064C30.9278 20.4336 33.2233 17.807 33.2233 17.807L33.2369 17.792L33.4692 17.496C33.6479 17.2765 33.8469 17.0742 34.0636 16.8919L34.2521 16.735L34.3245 16.6873L34.3983 16.6409C34.4325 16.6191 34.468 16.6 34.5022 16.5809C34.5177 16.5715 34.5336 16.5628 34.55 16.555C34.5828 16.5359 34.6142 16.5196 34.6483 16.5032L34.7249 16.465C34.9882 16.3409 35.2679 16.255 35.5556 16.21C35.7062 16.1876 35.8583 16.1762 36.0106 16.1759C37.1501 16.1759 38.168 16.8251 38.8293 17.8383C40.2257 13.8834 31.6206 9.03659 27.4888 14.3989L14.9336 29.8817L16.5103 31.7364C16.5103 31.7364 20.239 32.7279 23.1603 29.2489" stroke="#0B82F9" stroke-width="0.814206" stroke-miterlimit="10"/>
</g>
<path id="Vector_3" d="M12.7875 25.8997C13.718 23.839 13.7754 24.0518 14.7004 21.9911C15.103 21.0992 15.5052 20.2073 15.9069 19.3154C17.6631 15.425 19.4175 11.5342 21.17 7.64295C21.2571 7.52283 21.337 7.39759 21.4091 7.26792C21.431 7.23246 21.4501 7.197 21.4692 7.16018C21.5929 6.92526 21.6914 6.67796 21.763 6.42238C21.7849 6.3501 21.804 6.27646 21.819 6.20282C21.8327 6.17009 21.8477 6.13872 21.8627 6.10599C21.8805 6.07326 21.8996 6.04189 21.9187 6.00916C21.9379 5.97643 21.9638 5.93415 21.9884 5.89733C22.013 5.86051 22.0363 5.82505 22.0608 5.78823L22.136 5.68186C22.162 5.6464 22.1879 5.61094 22.2152 5.57685C22.2426 5.54275 22.2535 5.52639 22.2754 5.50048L22.2822 5.49093L22.341 5.42138L22.3983 5.35455L22.4694 5.27682C22.494 5.24954 22.5199 5.22091 22.5473 5.195C22.5746 5.16908 22.6101 5.1309 22.6415 5.1009C22.673 5.07089 22.703 5.04225 22.7344 5.01361C22.7659 4.98497 22.7973 4.95634 22.8301 4.92906C22.8629 4.90178 22.8943 4.87315 22.9284 4.84587L23.0282 4.76677L23.1307 4.6904C23.1908 4.64676 23.2523 4.60449 23.3151 4.56494C23.3507 4.54039 23.3876 4.5172 23.4258 4.49538C23.4723 4.46675 23.5174 4.43947 23.5624 4.41356L23.6526 4.36582L23.7442 4.31946L23.8712 4.25809L23.9313 4.23218C23.971 4.21309 24.0106 4.19672 24.0516 4.18035L24.1472 4.14217C24.4773 4.01609 24.8214 3.93002 25.172 3.88578C25.3579 3.86339 25.5449 3.852 25.7322 3.85168C26.4026 3.84675 27.0655 3.99324 27.6713 4.28018C28.277 4.56713 28.8099 4.9871 29.23 5.50866C29.5654 6.0578 29.8472 6.63778 30.0716 7.24064C30.2442 7.70789 30.3813 8.18748 30.4815 8.67532C28.8929 12.1975 27.3044 15.7205 25.7158 19.2445C24.4861 21.972 23.2564 24.6996 22.0267 27.4271C21.9174 27.6671 21.809 27.9071 21.7015 28.1471C21.5512 28.479 21.4018 28.8108 21.2534 29.1427C20.4937 30.8269 18.8664 31.9957 17.0177 32.0761C16.9399 32.0761 16.8619 32.0761 16.7841 32.0761C15.3603 32.0761 13.9271 31.8566 12.9775 30.9415C12.3681 30.3551 11.5647 29.3541 11.7997 28.3503" fill="#0B82F9"/>
<g id="Vector_4">
<path d="M19.029 4.55182C23.1525 -0.8105 31.7577 4.03359 30.3627 7.99123C29.7014 6.97795 28.6834 6.3288 27.5425 6.3288C27.3907 6.32915 27.2391 6.34054 27.0889 6.36289C26.8014 6.40833 26.5217 6.49419 26.2582 6.61792L26.1803 6.65611C26.1475 6.67247 26.1161 6.68884 26.0833 6.70793L26.0341 6.73384L25.9317 6.79521L25.8579 6.84021L25.7841 6.88794L25.5969 7.04614C25.3796 7.22731 25.1806 7.42919 25.0026 7.64892L24.7607 7.94622L24.7457 7.96123C24.7457 7.96123 22.4584 10.5878 21.4665 11.762L16.411 17.7803C15.1568 19.2732 13.9025 20.7674 12.6482 22.263L12.6045 22.3162L11.5387 23.5845C11.3456 23.7255 11.1359 23.8423 10.9143 23.9323C10.5932 24.0625 10.2499 24.1297 9.90324 24.13C8.11061 24.13 6.6582 22.3489 6.6582 20.1505C6.6582 20.0783 6.6582 20.006 6.6582 19.9337C6.66861 19.6732 6.70106 19.4141 6.75521 19.1591L9.18181 16.2679C9.20777 16.2365 9.23374 16.2038 9.26107 16.1724L12.64 12.148L12.9966 11.7225L19.2052 4.3268" fill="white"/>
<path d="M19.029 4.55182C23.1525 -0.8105 31.7577 4.03359 30.3627 7.99123C29.7014 6.97795 28.6834 6.3288 27.5425 6.3288C27.3907 6.32915 27.2391 6.34054 27.0889 6.36289C26.8014 6.40833 26.5217 6.49419 26.2582 6.61792L26.1803 6.65611C26.1475 6.67247 26.1161 6.68884 26.0833 6.70793L26.0341 6.73384L25.9317 6.7952L25.8579 6.84021L25.7841 6.88794L25.5969 7.04614C25.3796 7.22731 25.1806 7.42919 25.0026 7.64892L24.7607 7.94622L24.7457 7.96123C24.7457 7.96123 22.4584 10.5878 21.4665 11.762L16.4111 17.7803C15.1568 19.2732 13.9025 20.7674 12.6482 22.263L12.6045 22.3162L11.5387 23.5845C11.3456 23.7255 11.1359 23.8423 10.9143 23.9323C10.5932 24.0625 10.2499 24.1297 9.90324 24.13C8.11061 24.13 6.6582 22.3489 6.6582 20.1505C6.6582 20.0783 6.6582 20.006 6.6582 19.9337C6.66861 19.6732 6.70106 19.4141 6.75521 19.1591L9.18181 16.2679C9.20777 16.2365 9.23374 16.2038 9.26107 16.1724L12.64 12.148L12.9966 11.7225L19.2052 4.3268" stroke="#0B82F9" stroke-width="0.814206" stroke-miterlimit="10"/>
</g>
<path id="Vector_5" d="M7.48914 19.9624C7.48914 22.1704 8.94836 23.9596 10.7478 23.9596C11.0964 23.9596 11.4416 23.892 11.7644 23.7605C10.5265 24.8515 8.12038 25.7325 5.43691 25.7325C2.75344 25.7325 -1.03677 22.7732 0.263973 17.4545C0.263973 17.4545 0.583694 16.1657 0.810505 15.5452C1.72048 13.0673 2.76982 10.6275 3.6798 8.14951L3.92164 7.49219H11.7425C11.6305 7.79767 11.5184 8.10451 11.405 8.41C10.5388 10.7748 9.12598 14.176 8.28569 16.1657C7.8617 17.1827 7.5932 18.2576 7.48914 19.3542" fill="#0B82F9"/>
<path id="Vector_6" d="M7.65707 6.69608C9.50962 6.69608 11.0114 5.19711 11.0114 3.34804C11.0114 1.49897 9.50962 0 7.65707 0C5.80452 0 4.30273 1.49897 4.30273 3.34804C4.30273 5.19711 5.80452 6.69608 7.65707 6.69608Z" fill="#0B82F9"/>
<path id="Vector_7" d="M28.8189 42.6754C28.8189 50.1761 23.4834 56.3785 16.5547 57.374C16.0147 57.4527 15.4703 57.4982 14.9247 57.5104C14.773 57.5104 12.3573 54.8688 12.207 54.8511C12.2303 54.7993 12.4953 54.667 12.9107 54.4419C15.3616 53.0852 17.2917 50.9544 18.3979 48.3841C18.846 47.344 19.2947 46.3044 19.7437 45.2652L27.8843 37.3867C28.5038 39.0813 28.8202 40.8715 28.8189 42.6754Z" fill="#0B82F9"/>
<path id="Vector_8" d="M51.5268 25C51.5268 25 23.0921 42.0471 15.6401 48.5699C15.1784 48.9652 14.8359 49.4808 14.6509 50.0592C14.0005 52.173 15.7535 54.2391 20.5165 55.847C12.5098 59.656 8.05287 56.4525 7.00899 52.1335C6.16733 48.6477 7.75639 45.0228 10.8156 43.1422C17.6595 38.9322 39.4197 25.9915 40.465 25.0505C45.6543 25 51.5268 25 51.5268 25Z" fill="white" stroke="#0B82F9" stroke-width="0.814206" stroke-miterlimit="10"/>
</g>
<defs>
<clipPath id="clip0_3064_14701">
<rect width="52.5163" height="57.8086" fill="white"/>
</clipPath>
</defs>
</svg>
