<svg width="44" height="59" viewBox="0 0 44 59" fill="none" xmlns="http://www.w3.org/2000/svg">
<g id="Layer_10" clip-path="url(#clip0_3064_14863)">
<path id="Vector" d="M12.9985 58.227V58.3206H11.6068C11.3522 58.3202 11.1079 58.22 10.9263 58.0415C10.729 57.8555 10.6303 57.534 10.6303 57.0769V52.5532C10.6467 52.0861 10.4877 51.6297 10.1846 51.2739C10.0133 51.0816 9.79704 50.9349 9.5551 50.8469C9.31274 50.7516 9.05502 50.7015 8.79464 50.6989C8.41686 50.707 8.04967 50.8253 7.73813 51.0391C7.44308 51.2172 7.17976 51.4431 6.95896 51.7077C7.12252 52.0946 7.20476 52.5109 7.20055 52.9309L7.21755 57.196C7.21653 57.3199 7.22278 57.4437 7.23627 57.5669C7.25333 57.6798 7.28776 57.7894 7.33834 57.8918C7.39983 58.0137 7.50675 58.1066 7.63606 58.1504C7.81136 58.2118 7.99653 58.2401 8.18216 58.2338V58.3274H4.84427V58.2338C5.48735 58.2338 5.8089 57.8935 5.8089 57.213V52.5532C5.81357 52.085 5.64928 51.6308 5.34615 51.2739C5.17654 51.0837 4.96352 50.9372 4.72519 50.8469C4.48595 50.7511 4.23091 50.7009 3.97322 50.6989C3.26889 50.6989 2.73753 50.9648 2.37913 51.4968V57.1892C2.37725 57.3131 2.3835 57.437 2.39784 57.5601C2.41505 57.6741 2.4525 57.7842 2.50842 57.885C2.57263 58.0048 2.67858 58.0968 2.80615 58.1436C2.97833 58.2057 3.16086 58.234 3.34375 58.227V58.3206H0.00585938V58.227C0.647239 58.227 0.970488 57.8867 0.970488 57.2062V51.4219H0.654033V51.33L2.37913 50.3467V51.216C2.66511 50.9293 3.00673 50.7041 3.38298 50.5543C3.75924 50.4045 4.16215 50.3333 4.56696 50.345C5.67959 50.345 6.45199 50.7527 6.88411 51.5682C7.1806 51.1822 7.56302 50.8707 8.00099 50.6583C8.43895 50.446 8.9204 50.3387 9.40709 50.345C9.85925 50.3341 10.3082 50.423 10.7222 50.6053C11.0576 50.747 11.3443 50.9835 11.5473 51.2858C11.7136 51.5409 11.842 51.8189 11.9284 52.1109C12.0014 52.3735 12.0386 52.6448 12.039 52.9173V57.0701C12.1461 57.7949 12.466 58.1777 12.9985 58.227Z" fill="#FFCA60"/>
<path id="Vector_2" d="M19.9139 57.3008C19.9139 57.8565 20.1861 58.1656 20.7305 58.228H20.8785V58.3385L19.0242 58.3215C18.6839 58.296 18.5053 58.0238 18.5053 57.5049C18.2195 57.7919 17.8779 58.0172 17.5016 58.1671C17.1253 58.3169 16.7223 58.388 16.3174 58.376C15.8614 58.3892 15.4081 58.3009 14.9904 58.1174C14.6588 57.974 14.3758 57.7376 14.1755 57.4369C14.0089 57.1819 13.8805 56.9039 13.7945 56.6117C13.7214 56.3492 13.6842 56.0779 13.6839 55.8053V51.4229H13.3691V51.331L15.0925 50.3477L15.0738 56.1694C15.0687 56.638 15.2337 57.0926 15.5383 57.4488C15.7079 57.6406 15.9249 57.7843 16.1677 57.8656C16.405 57.9547 16.656 58.0019 16.9095 58.0051C17.6161 58.0051 18.148 57.7459 18.5053 57.2276V51.4229H18.1888V51.331L19.8901 50.3477C19.906 53.9203 19.9139 56.238 19.9139 57.3008Z" fill="#FFCA60"/>
<path id="Vector_3" d="M24.7536 53.9258C24.9954 54.0038 25.2309 54.1005 25.4579 54.215C25.715 54.3459 25.9628 54.4942 26.1996 54.659C26.4576 54.8361 26.6727 55.0686 26.8291 55.3395C26.9889 55.6124 27.0724 55.9233 27.0707 56.2395C27.0678 56.4731 27.0204 56.7041 26.9312 56.92C26.8274 57.1708 26.6799 57.4012 26.4957 57.6005C26.2591 57.8495 25.9679 58.0399 25.645 58.1568C25.2406 58.3132 24.8094 58.3889 24.3759 58.3797C23.9111 58.3869 23.4492 58.3055 23.0149 58.1398C22.6696 58.016 22.3584 57.8126 22.1064 57.5461C21.9157 57.33 21.7448 57.0971 21.596 56.8502C21.4808 56.6697 21.3931 56.473 21.3357 56.2667L21.2812 56.0064L21.8376 55.8958C21.9294 56.5495 22.2274 57.1568 22.6882 57.6294C23.1203 58.0434 23.6954 58.2504 24.4133 58.2504C24.8073 58.2474 25.1937 58.1419 25.5344 57.9442C25.6999 57.8628 25.8462 57.7471 25.9635 57.6048C26.0808 57.4626 26.1665 57.297 26.2149 57.119C26.2757 56.9287 26.2854 56.7257 26.243 56.5304C26.2006 56.3351 26.1076 56.1544 25.9734 56.0064C25.7749 55.7853 25.5272 55.6139 25.2503 55.5062C24.8577 55.3293 24.4556 55.1742 24.0458 55.0418C23.612 54.8938 23.2854 54.7713 23.0625 54.6709C22.1722 54.2263 21.7332 53.5345 21.7457 52.5954C21.7514 52.0111 21.9845 51.4521 22.3956 51.037C22.8391 50.6287 23.4322 50.4251 24.1751 50.4262C24.9551 50.4128 25.7109 50.6976 26.2881 51.2224L25.9921 51.7056C25.9758 51.6595 25.9541 51.6155 25.9274 51.5746C25.8968 51.5253 25.8254 51.4334 25.7148 51.2973C25.6078 51.1664 25.4863 51.0483 25.3524 50.9451C25.1935 50.8307 25.0186 50.7402 24.8335 50.6763C24.6108 50.5942 24.375 50.5532 24.1377 50.5555C23.7239 50.531 23.3173 50.671 23.0063 50.9451C22.7432 51.1867 22.5785 51.5168 22.5436 51.8723C22.5191 52.062 22.5381 52.2548 22.5991 52.4361C22.6601 52.6173 22.7616 52.7823 22.8958 52.9186C23.1613 53.1934 23.4843 53.406 23.8417 53.5413C24.1372 53.6885 24.4418 53.817 24.7536 53.9258Z" fill="#FFCA60"/>
<path id="Vector_4" d="M35.5638 55.9797L35.6556 56.1278C35.1854 56.7338 34.6146 57.2546 33.968 57.6674C33.3186 58.0948 32.5575 58.3208 31.7801 58.3173C31.1426 58.3211 30.5123 58.1816 29.936 57.909C29.3382 57.617 28.8338 57.1639 28.4797 56.6007C28.0773 55.9738 27.8711 55.241 27.8876 54.4962C27.8866 54.1529 27.9237 53.8106 27.9982 53.4755C28.0186 53.3882 28.0635 53.3087 28.1278 53.2463C28.192 53.1838 28.2728 53.1412 28.3606 53.1233C28.563 53.0621 28.8574 53.1114 29.2401 53.2713C29.8194 53.5304 30.4214 53.7354 31.0384 53.8838C32.4981 54.1934 33.419 53.8101 33.8013 52.7337C33.9133 52.497 33.9552 52.2331 33.922 51.9733C33.892 51.7114 33.8208 51.4559 33.7111 51.2162C33.5737 50.9497 33.3474 50.7396 33.0714 50.6224C32.7079 50.4579 32.3116 50.3788 31.9129 50.3911C31.5834 50.3803 31.2554 50.4391 30.9502 50.5637C30.6451 50.6883 30.3696 50.8759 30.1418 51.1141C29.6626 51.6222 29.3637 52.2738 29.2912 52.9685C29.0738 52.986 28.8564 52.9342 28.6702 52.8205C28.6125 52.7804 28.5664 52.7258 28.5365 52.6621C28.5067 52.5985 28.4941 52.5281 28.5001 52.4581C28.519 52.3009 28.5775 52.151 28.6702 52.0226C29.0348 51.4719 29.5329 51.0224 30.118 50.716C30.672 50.4114 31.2856 50.2309 31.9162 50.1869C32.4269 50.1571 32.9387 50.2199 33.427 50.3724C33.8174 50.4842 34.1739 50.6912 34.4648 50.9746C34.6892 51.2042 34.8768 51.467 35.0211 51.7538C35.1413 51.9795 35.2083 52.2297 35.2167 52.4853C35.2204 52.8306 35.1304 53.1704 34.9564 53.4687C34.7871 53.7558 34.5292 53.9803 34.2215 54.1083C33.89 54.2526 33.5347 54.3339 33.1735 54.3482C32.7898 54.3746 32.4044 54.3558 32.0251 54.2921C31.6403 54.2261 31.2593 54.1398 30.8836 54.0335C30.4889 53.9212 30.1639 53.8208 29.9105 53.7273C29.6783 53.6446 29.451 53.5486 29.2299 53.4397C29.2299 53.4653 29.2299 53.5027 29.2299 53.552C29.2242 53.5886 29.2208 53.6256 29.2197 53.6626C29.2197 54.7968 29.535 55.7421 30.1656 56.4986C30.4649 56.8658 30.8449 57.1589 31.2761 57.3551C31.7072 57.5513 32.1778 57.6454 32.6512 57.63C32.9616 57.6269 33.2691 57.5693 33.5597 57.4599C33.8456 57.3605 34.1168 57.2232 34.3661 57.0515C34.5813 56.902 34.7886 56.7413 34.987 56.5701C35.1407 56.4426 35.283 56.302 35.4124 56.1499L35.5638 55.9797Z" fill="#FFCA60"/>
<path id="Vector_5" d="M42.9422 51.3871C43.6114 52.105 43.9641 53.0572 44.0004 54.2435C44.0103 54.7806 43.9138 55.3144 43.7164 55.814C43.519 56.3136 43.2247 56.7691 42.8504 57.1544C42.5104 57.5282 42.0951 57.8257 41.6317 58.0272C41.1684 58.2286 40.6676 58.3295 40.1624 58.3232C39.6687 58.3293 39.1792 58.2317 38.7256 58.0368C38.2719 57.842 37.8642 57.5541 37.5288 57.1918C36.8225 56.4334 36.443 55.4275 36.4723 54.3915C36.4466 53.3222 36.8314 52.2837 37.5475 51.4892C37.8897 51.1018 38.3129 50.7943 38.7871 50.5885C39.2613 50.3827 39.7749 50.2837 40.2917 50.2983C41.4043 50.3074 42.2878 50.6703 42.9422 51.3871ZM42.294 56.2272C42.5091 55.6135 42.6156 54.967 42.6088 54.3167C42.6177 53.6668 42.5111 53.0205 42.294 52.4079C42.1311 51.8838 41.8447 51.4065 41.4587 51.0162C41.2043 50.7526 40.8744 50.5743 40.5145 50.5058C40.422 50.4942 40.3288 50.4879 40.2355 50.4871C40.0057 50.4888 39.7788 50.5373 39.5684 50.6297C39.3581 50.7222 39.1689 50.8566 39.0123 51.0247C38.6262 51.4175 38.3352 51.8936 38.1617 52.4164C37.7635 53.656 37.767 54.9897 38.1719 56.2272C38.3468 56.7513 38.6376 57.2293 39.0225 57.6257C39.2753 57.8807 39.5979 58.0553 39.9497 58.1275C40.0465 58.1517 40.1459 58.1643 40.2457 58.165C40.4752 58.161 40.7016 58.1112 40.9117 58.0186C41.1217 57.926 41.3112 57.7924 41.4689 57.6257C41.853 57.2325 42.1361 56.752 42.294 56.2255V56.2272Z" fill="#FFCA60"/>
<path id="Vector_6" d="M14.7836 2.87177V38.9285L4.23576 47.4179C3.99574 47.6106 3.70616 47.7315 3.40039 47.7668C3.09462 47.802 2.78511 47.7502 2.50753 47.6172C2.22996 47.4842 1.99562 47.2754 1.83153 47.015C1.66744 46.7546 1.58027 46.4531 1.58008 46.1453V10.2315L12.2403 1.65196C12.4703 1.46777 12.7477 1.35226 13.0405 1.31875C13.3333 1.28523 13.6296 1.33506 13.8953 1.46251C14.161 1.58995 14.3854 1.78983 14.5425 2.03914C14.6997 2.28845 14.7833 2.57706 14.7836 2.87177Z" fill="#FFCA60"/>
<path id="Vector_7" d="M14.4342 47.8128C14.2988 47.8128 14.169 47.7591 14.0733 47.6634C13.9776 47.5676 13.9238 47.4378 13.9238 47.3025V9.70435L25.0978 0.713129C25.4025 0.467483 25.7706 0.313102 26.1594 0.267827C26.5482 0.222552 26.9419 0.288232 27.2949 0.457278C27.648 0.626325 27.9459 0.891838 28.1544 1.22312C28.3629 1.55439 28.4734 1.93791 28.4731 2.32934V47.1664C28.4731 47.3017 28.4193 47.4315 28.3236 47.5273C28.2279 47.623 28.0981 47.6767 27.9627 47.6767C27.8274 47.6767 27.6975 47.623 27.6018 47.5273C27.5061 47.4315 27.4523 47.3017 27.4523 47.1664V2.34125C27.4522 2.14252 27.3958 1.94788 27.2899 1.77977C27.1839 1.61165 27.0326 1.4769 26.8534 1.39102C26.6741 1.30515 26.4743 1.27165 26.2769 1.29438C26.0795 1.31712 25.8925 1.39517 25.7375 1.51954L14.9446 10.2045V47.3025C14.9446 47.4378 14.8908 47.5676 14.7951 47.6634C14.6994 47.7591 14.5696 47.8128 14.4342 47.8128Z" fill="#FFCA60"/>
<path id="Vector_8" d="M41.957 47.8146C41.8217 47.8146 41.6918 47.7609 41.5961 47.6652C41.5004 47.5694 41.4466 47.4396 41.4466 47.3043V2.07934C41.4464 1.88061 41.3901 1.68598 41.2841 1.51786C41.1782 1.34975 41.0269 1.21499 40.8476 1.12911C40.6684 1.04324 40.4686 1.00974 40.2712 1.03247C40.0737 1.05521 39.8868 1.13326 39.7318 1.25762L28.6327 10.1893C28.5809 10.2344 28.5205 10.2686 28.4552 10.2898C28.3899 10.311 28.3209 10.3188 28.2525 10.3128C28.1841 10.3067 28.1176 10.2869 28.057 10.2546C27.9964 10.2222 27.943 10.178 27.8999 10.1245C27.8569 10.071 27.8251 10.0093 27.8064 9.94324C27.7877 9.87715 27.7825 9.80798 27.7912 9.73985C27.7999 9.67172 27.8222 9.60604 27.8569 9.54675C27.8916 9.48746 27.9379 9.43578 27.993 9.39481L39.0921 0.463133C39.3968 0.217488 39.7649 0.0631014 40.1537 0.0178266C40.5425 -0.0274482 40.9362 0.0382361 41.2892 0.207283C41.6422 0.37633 41.9402 0.641837 42.1487 0.973115C42.3572 1.30439 42.4677 1.68792 42.4674 2.07934V47.3043C42.4674 47.4396 42.4136 47.5694 42.3179 47.6652C42.2222 47.7609 42.0924 47.8146 41.957 47.8146Z" fill="#FFCA60"/>
</g>
<defs>
<clipPath id="clip0_3064_14863">
<rect width="44" height="58.3928" fill="white"/>
</clipPath>
</defs>
</svg>
