<svg width="64" height="23" viewBox="0 0 64 23" fill="none" xmlns="http://www.w3.org/2000/svg">
<g id="Frame 2389">
<path id="Vector" d="M61.7819 15.3995H53.8307V19.6148H62.8917V22.5572H50.4883V6.16797H62.488V9.07115H53.8307V12.5519H61.7819V15.3995Z" fill="black"/>
<path id="Vector_2" d="M26.6128 15.3995H18.6627V19.6148H27.7237V22.5572H15.3203V6.16797H27.3244V9.07115H18.6627V12.5519H26.6128V15.3995Z" fill="black"/>
<path id="Vector_3" d="M47.8737 15.3995H39.9225V19.6148H48.9835V22.5572H36.5801V6.16797H48.5842V9.07115H39.9225V12.5519H47.8737V15.3995Z" fill="black"/>
<path id="Vector_4" d="M63.9998 6.03135C60.7608 8.52477 56.8298 9.21787 53.0217 9.66577C49.2136 10.1137 45.3088 10.3981 41.7858 12.2257C38.2628 14.0532 35.1249 17.8141 34.7604 22.4794C33.5342 22.426 30.2887 22.3704 29.0625 22.3192C29.6163 16.8878 33.9379 12.351 37.672 9.44128C41.4985 6.45963 44.7745 5.76871 49.2202 5.02112C54.2109 4.18308 60.4452 4.82823 63.7833 0.4375" fill="#67AF56"/>
<path id="Vector_5" d="M0.450439 0.4375C3.97126 4.59393 10.8497 6.2711 16.0145 6.42149C20.7506 6.55989 23.7329 7.31293 27.7651 10.1366C31.7026 12.8904 34.1311 17.4207 34.7153 22.5601C33.2672 22.511 30.3546 22.5099 29.0576 22.5601C28.6736 18.1443 27.1362 14.4957 23.4206 12.7706C19.7051 11.0454 15.5945 10.7708 11.5776 10.3491C7.56062 9.92732 3.41746 9.26909 0 6.90753L0.450439 0.4375Z" fill="#9AFF88"/>
<path id="Vector_6" d="M18.6627 12.4688H26.6128V15.3153H18.6627V19.5305H27.7237V22.4784H15.3203" fill="black"/>
<path id="Vector_7" d="M6.87409 16.1329H3.34239V22.5626H0V6.16797H8.02847C9.17596 6.18976 10.0587 6.33071 10.6767 6.5908C11.284 6.84189 11.8226 7.23457 12.2478 7.73617C12.6011 8.14788 12.8861 8.61368 13.0921 9.11583C13.3074 9.66421 13.4131 10.2496 13.4033 10.8388C13.397 11.6411 13.1949 12.4298 12.8147 13.136C12.4215 13.8894 11.7738 14.4216 10.8715 14.7326C11.6265 15.0355 12.1611 15.4674 12.4752 16.0283C12.7893 16.5892 12.9467 17.4436 12.9474 18.5915V19.6922C12.9474 20.4419 12.9771 20.9505 13.0366 21.2179C13.0684 21.4087 13.1402 21.5906 13.2473 21.7515C13.3544 21.9125 13.4943 22.0489 13.6579 22.1518V22.5626H9.89442C9.78997 22.1994 9.71562 21.9066 9.67137 21.6843C9.5824 21.2171 9.53434 20.7431 9.52775 20.2676L9.50491 18.7419C9.49113 17.6971 9.30072 17 8.9337 16.6506C8.56668 16.3011 7.88014 16.1286 6.87409 16.1329ZM8.95002 13.1524C9.63112 12.8414 9.97167 12.2261 9.97167 11.3063C9.97167 10.3124 9.64236 9.6451 8.98375 9.30436C8.61237 9.11111 8.05712 9.01484 7.31799 9.01557H3.34239V13.4194H7.21681C7.98785 13.4194 8.56559 13.3304 8.95002 13.1524Z" fill="black"/>
<path id="Vector_8" d="M47.8737 15.3995H39.9225V19.6148H48.9835V22.5572H36.5801V6.16797H48.5842V9.07115H39.9225V12.5519H47.8737V15.3995Z" fill="black"/>
</g>
</svg>
