<svg width="48" height="65" viewBox="0 0 48 65" fill="none" xmlns="http://www.w3.org/2000/svg">
<g id="Layer_25" clip-path="url(#clip0_3064_14838)">
<path id="Vector" d="M46.3007 3.93421C46.3007 4.4564 46.1898 4.97265 45.9753 5.44884C45.7607 5.92504 45.4474 6.35034 45.056 6.69665L24.8105 24.5995V14.7484L25.1445 14.4476L40.1543 1.17293C42.5421 -0.935344 46.3007 0.754306 46.3007 3.93421Z" fill="#C73732"/>
<path id="Vector_2" d="M46.3007 19.5352V28.7029L25.0032 47.5386L24.8105 47.3683V38.5388L46.3007 19.5352Z" fill="#C73732"/>
<path id="Vector_3" d="M24.8093 14.7115V47.3617L4.28711 29.5207V2.72766C4.28711 0.438639 6.98316 -0.786913 8.71242 0.714999L24.8093 14.7115Z" fill="#23549B"/>
<path id="Vector_4" d="M46.3007 8.44036V17.0938C46.3007 17.1212 46.2948 17.1482 46.2836 17.1731C46.2723 17.1981 46.2559 17.2203 46.2353 17.2384L25.1317 35.9051C25.0965 35.9365 25.051 35.9539 25.0038 35.9539C24.9566 35.9539 24.9111 35.9365 24.8759 35.9051C24.8552 35.8871 24.8386 35.8649 24.8273 35.84C24.816 35.815 24.8103 35.7879 24.8106 35.7605V27.1035C24.8105 27.0761 24.8163 27.049 24.8275 27.0241C24.8388 26.9991 24.8553 26.9769 24.8759 26.9589L45.9796 8.3016C46.0072 8.27757 46.0411 8.26183 46.0772 8.25621C46.1134 8.25059 46.1504 8.25531 46.184 8.26982C46.2176 8.28434 46.2464 8.30807 46.2671 8.33825C46.2877 8.36843 46.2994 8.40383 46.3007 8.44036Z" fill="#C73732"/>
<path id="Vector_5" d="M2.79106 13.6918C2.77588 18.9636 6.49712 25.4004 11.1034 28.0661C15.7097 30.7317 19.4508 28.5896 19.4671 23.3061C19.4835 18.0226 15.7646 11.5893 11.1583 8.93067C6.55199 6.27201 2.80741 8.41876 2.79106 13.6918Z" fill="white"/>
<path id="Vector_6" d="M0.000114921 14.5912C-0.0255729 20.6723 4.25845 28.0466 9.54196 31.0959C14.8255 34.1452 19.1107 31.7128 19.141 25.6317C19.1714 19.5505 14.892 12.1669 9.60268 9.12695C4.31333 6.08698 0.0258027 8.51009 0.000114921 14.5912ZM2.36222 20.6548C1.68132 18.9601 1.31722 17.1551 1.288 15.3293C1.30434 10.082 5.04543 7.95854 9.61202 10.595C14.1786 13.2316 17.8753 19.6473 17.8753 24.8935C17.9314 26.3318 17.5473 27.753 16.7742 28.9678C15.8817 27.0915 14.725 25.3523 13.3391 23.8032C12.405 24.4504 11.0692 24.4504 9.57232 23.5817C7.96357 22.5767 6.65997 21.1522 5.80205 19.4619C5.17795 19.4165 4.55111 19.4984 3.95973 19.7026C3.36835 19.9069 2.82481 20.2293 2.36222 20.6502V20.6548Z" fill="#23549B"/>
<path id="Vector_7" d="M6.04883 15.7574C6.0994 17.1917 6.56721 18.5803 7.39511 19.7535C7.94659 20.5976 8.67678 21.3105 9.53419 21.842C9.84975 22.0543 10.2062 22.1988 10.5807 22.266C10.9552 22.3333 11.3396 22.3219 11.7095 22.2326C12.5397 21.9726 13.0838 21.1295 13.0838 19.827C13.092 17.5939 11.518 14.8711 9.56923 13.7459C7.62046 12.6206 6.0535 13.5243 6.04883 15.7574Z" fill="#23549B"/>
<path id="Vector_8" d="M2.79102 8.46185C4.53078 7.44969 6.94077 7.59312 9.6018 9.12652C14.8911 12.1665 19.1401 19.5513 19.1401 25.6312C19.1401 28.6455 18.0893 30.762 16.3518 31.7648L18.8879 30.292C20.6055 29.2927 21.6797 27.1739 21.6797 24.1596C21.7054 18.0785 17.4261 10.6949 12.1379 7.65375C9.47569 6.12152 7.06688 5.9781 5.32711 6.99025L2.79102 8.46185Z" fill="white"/>
<path id="Vector_9" d="M9.7666 50.6558L6.90591 64.587H5.14161L2.30078 50.6523H4.41652L6.00449 60.3786H6.04303L7.65086 50.6523L9.7666 50.6558Z" fill="#23549B"/>
<path id="Vector_10" d="M10.8444 53.9436C10.8344 53.4327 10.9347 52.9256 11.1387 52.4569C11.3203 52.0466 11.5874 51.6797 11.9222 51.3806C12.2358 51.1068 12.5983 50.8944 12.9905 50.7544C13.578 50.5424 14.2111 50.4886 14.826 50.5985C15.441 50.7085 16.016 50.9782 16.4934 51.3806C16.8189 51.6838 17.0791 52.05 17.2582 52.4569C17.4618 52.9257 17.5617 53.4328 17.5513 53.9436V61.3028C17.5657 61.8204 17.4656 62.3348 17.2582 62.8094C17.079 63.205 16.8184 63.5586 16.4934 63.8472C16.1752 64.1292 15.8063 64.3484 15.4064 64.4932C14.6282 64.7793 13.7734 64.7793 12.9952 64.4932C12.5995 64.3512 12.2363 64.1315 11.9268 63.8472C11.5927 63.5627 11.3252 63.2085 11.1433 62.8094C10.9355 62.3349 10.8351 61.8205 10.8491 61.3028L10.8444 53.9436ZM12.8434 61.3028C12.8434 61.7855 12.9773 62.1412 13.2451 62.3697C13.5121 62.5913 13.8484 62.7125 14.1955 62.7125C14.5427 62.7125 14.8789 62.5913 15.146 62.3697C15.4145 62.1412 15.5488 61.7855 15.5488 61.3028V53.9436C15.5488 53.4624 15.4145 53.1072 15.146 52.8779C14.8789 52.6563 14.5427 52.5351 14.1955 52.5351C13.8484 52.5351 13.5121 52.6563 13.2451 52.8779C12.9781 53.1064 12.8442 53.4617 12.8434 53.9436V61.3028Z" fill="#23549B"/>
<path id="Vector_11" d="M20.3881 64.5874V52.5348H18.0762V50.6562H24.699V52.5348H22.3871V64.5874H20.3881Z" fill="#23549B"/>
<path id="Vector_12" d="M25.582 64.5874V50.6562H31.5369V52.5348H27.5787V56.6254H31.0278V58.504H27.5787V62.5946H31.5369V64.5874H25.582Z" fill="#23549B"/>
<path id="Vector_13" d="M36.5352 64.5874V50.6562H38.5341V64.5874H36.5352Z" fill="#C73732"/>
<path id="Vector_14" d="M40.3562 53.9433C40.3461 53.4324 40.4464 52.9253 40.6504 52.4566C40.8316 52.0461 41.0988 51.6791 41.4339 51.3803C41.7475 51.1065 42.11 50.8941 42.5023 50.7541C43.0898 50.5423 43.7228 50.4887 44.3377 50.5986C44.9526 50.7085 45.5277 50.9781 46.0051 51.3803C46.3302 51.6838 46.5904 52.0499 46.7699 52.4566C46.973 52.9255 47.0729 53.4325 47.063 53.9433V61.3025C47.0747 61.7946 46.9745 62.283 46.7699 62.7309L48.0041 63.7291L46.9778 64.943L45.8101 63.9833C45.217 64.4646 44.4726 64.7211 43.7084 64.7074C43.2973 64.7066 42.8895 64.634 42.5034 64.4929C42.1077 64.3508 41.7445 64.1312 41.435 63.8469C41.1006 63.5627 40.833 63.2084 40.6516 62.809C40.4437 62.3346 40.3433 61.8202 40.3573 61.3025L40.3562 53.9433ZM42.3551 61.3025C42.3551 61.7852 42.489 62.1409 42.7568 62.3694C43.0206 62.5965 43.359 62.7186 43.7072 62.7123C43.855 62.7191 44.0024 62.6919 44.1381 62.633L43.2414 61.9053L44.2607 60.6926L45.064 61.3386V53.9433C45.064 53.4621 44.9301 53.1069 44.6624 52.8775C44.3953 52.656 44.0591 52.5348 43.7119 52.5348C43.3648 52.5348 43.0285 52.656 42.7615 52.8775C42.4945 53.1061 42.3606 53.4613 42.3598 53.9433L42.3551 61.3025Z" fill="#C73732"/>
</g>
<defs>
<clipPath id="clip0_3064_14838">
<rect width="48" height="64.8889" fill="white" transform="translate(0 0.0546875)"/>
</clipPath>
</defs>
</svg>
