<svg width="100" height="100" viewBox="0 0 100 100" fill="none" xmlns="http://www.w3.org/2000/svg">
<path d="M38.8887 54.917C42.5203 59.2504 47.9675 61.917 53.7175 61.917C56.7441 61.917 59.4676 61.2502 61.8887 59.9169" stroke="black" stroke-width="3" stroke-miterlimit="10" stroke-linecap="round" stroke-linejoin="round"/>
<path d="M49.8887 72.917C56.5159 72.917 61.8887 67.5445 61.8887 60.917C61.8887 54.2895 56.5159 48.917 49.8887 48.917C43.2612 48.917 37.8887 54.2895 37.8887 60.917C37.8887 67.5445 43.2612 72.917 49.8887 72.917Z" stroke="black" stroke-width="3" stroke-miterlimit="10" stroke-linecap="round" stroke-linejoin="round"/>
<path d="M63.8887 82.917C60.097 79.9758 55.1387 77.917 49.8887 77.917C44.6387 77.917 39.6803 79.6817 35.8887 82.917" stroke="black" stroke-width="3" stroke-miterlimit="10" stroke-linecap="round" stroke-linejoin="round"/>
<path d="M40.8887 37.917C40.8887 39.717 39.6887 40.917 37.8887 40.917H19.8887C18.0887 40.917 16.8887 39.717 16.8887 37.917V19.917C16.8887 18.117 18.0887 16.917 19.8887 16.917H37.8887C39.6887 16.917 40.8887 18.117 40.8887 19.917V37.917Z" stroke="black" stroke-width="3" stroke-miterlimit="10" stroke-linecap="round" stroke-linejoin="round"/>
<path d="M24.8887 25.917C25.9932 25.917 26.8887 24.7977 26.8887 23.417C26.8887 22.0363 25.9932 20.917 24.8887 20.917C23.7841 20.917 22.8887 22.0363 22.8887 23.417C22.8887 24.7977 23.7841 25.917 24.8887 25.917Z" fill="black"/>
<path d="M40.8887 35.5268L36.581 28.8682C36.2733 28.2341 35.3502 27.917 34.7348 27.917C33.8117 27.917 33.1964 28.2341 32.8887 28.8682L24.8887 40.917" stroke="black" stroke-width="3" stroke-miterlimit="10" stroke-linecap="round" stroke-linejoin="round"/>
<path d="M50.8887 32.101H55.5013C55.7896 32.101 56.0779 31.8006 56.0779 31.8006L57.8076 27.8948C58.0575 27.2656 58.846 27.4886 58.9607 28.1952L62.7085 42.0157C62.9968 42.6165 63.2851 42.917 63.8616 42.917C64.4382 42.917 65.0148 42.3161 65.0148 41.7152L68.7625 22.1864C69.0373 20.7639 70.6589 20.3651 71.0689 21.8859L74.8166 35.1055C74.9639 35.7029 75.5448 36.1482 75.9698 35.4059L79.1409 30.8992C79.1409 30.5988 79.4292 30.5988 79.7175 30.5988H82.8887" stroke="#00CCF5" stroke-width="3" stroke-miterlimit="10" stroke-linecap="round" stroke-linejoin="round"/>
</svg>
