<svg width="100" height="100" viewBox="0 0 100 100" fill="none" xmlns="http://www.w3.org/2000/svg">
<path d="M30.9829 71.4204H28.7329C26.9427 71.4204 25.2258 70.6829 23.9599 69.3702C22.6941 68.0574 21.9829 66.2769 21.9829 64.4204" stroke="black" stroke-width="3" stroke-linecap="round" stroke-linejoin="round"/>
<path d="M77.9829 71.4204H68.9829" stroke="black" stroke-width="3" stroke-linecap="round" stroke-linejoin="round"/>
<path d="M59.3162 57.2776H75.6496C76.2684 57.2776 76.8619 57.0267 77.2995 56.5802C77.7371 56.1337 77.9829 55.5281 77.9829 54.8966V16.8014C77.9829 16.1699 77.7371 15.5643 77.2995 15.1178C76.8619 14.6713 76.2684 14.4204 75.6496 14.4204H31.3162C28.8409 14.4204 26.4669 15.4238 24.7166 17.2099C22.9662 18.9959 21.9829 21.4183 21.9829 23.9442V64.4204C21.9829 62.526 22.7204 60.7092 24.0332 59.3696C25.3459 58.0301 27.1264 57.2776 28.9829 57.2776H40.6496" stroke="black" stroke-width="3" stroke-linecap="round" stroke-linejoin="round"/>
<path d="M73.9829 71.4204V57.4204" stroke="black" stroke-width="3" stroke-linecap="round" stroke-linejoin="round"/>
<path d="M40.9829 75.9204L49.9829 85.4204V47.4204" stroke="#00CCF5" stroke-width="3" stroke-linecap="round" stroke-linejoin="round"/>
<path d="M59.9829 76.4204L49.9829 85.4204" stroke="#00CCF5" stroke-width="3" stroke-linecap="round" stroke-linejoin="round"/>
</svg>
