<svg width="100" height="100" viewBox="0 0 100 100" fill="none" xmlns="http://www.w3.org/2000/svg">
<path d="M55.5098 85.7275C62.531 85.7275 69.3946 83.6455 75.2325 79.7447C81.0704 75.8439 85.6206 70.2996 88.3075 63.8128C90.9944 57.326 91.6974 50.1882 90.3276 43.3018C88.9579 36.4155 85.5768 30.09 80.612 25.1253C75.6473 20.1605 69.3218 16.7795 62.4355 15.4097C55.5491 14.0399 48.4113 14.7429 41.9245 17.4298C35.4377 20.1167 29.8934 24.6669 25.9926 30.5048C22.0918 36.3428 20.0098 43.2063 20.0098 50.2275V52.9583" stroke="black" stroke-width="3" stroke-linecap="round" stroke-linejoin="round"/>
<path d="M9.00977 41.7275L20.0098 52.7275L31.0098 41.7275" stroke="black" stroke-width="3" stroke-linecap="round" stroke-linejoin="round"/>
<path d="M73.0098 65.7275C70.1752 64.5435 66.7505 63.3454 62.9529 61.9747C60.5925 61.1254 60.9799 55.1279 62.0261 54.0073C63.6901 52.2509 64.9541 50.172 65.7352 47.9069C66.5163 45.6417 66.7969 43.2416 66.5586 40.8635C66.7082 39.3492 66.5358 37.8212 66.0521 36.3745C65.5685 34.9279 64.7839 33.5938 63.7474 32.4552C62.7108 31.3166 61.4444 30.3981 60.0272 29.7567C58.6099 29.1154 57.0722 28.7651 55.5098 28.7275C53.9473 28.7651 52.4096 29.1154 50.9923 29.7567C49.5751 30.3981 48.3087 31.3166 47.2722 32.4552C46.2356 33.5938 45.4511 34.9279 44.9674 36.3745C44.4837 37.8212 44.3113 39.3492 44.4609 40.8635C44.2227 43.2416 44.5032 45.6417 45.2843 47.9069C46.0654 50.172 47.3294 52.2509 48.9934 54.0073C50.0397 55.1279 50.4415 61.1254 48.0667 61.9747C44.2691 63.3454 40.8263 64.5435 38.0098 65.7275" stroke="#00CCF5" stroke-width="3" stroke-linecap="round" stroke-linejoin="round"/>
</svg>
