<svg width="21" height="21" viewBox="0 0 21 21" fill="none" xmlns="http://www.w3.org/2000/svg">
<path d="M20.5 9.89559C20.4999 9.89548 20.5 9.89569 20.5 9.89559L11.1039 0.499543C10.7646 0.171827 10.2239 0.181211 9.89618 0.520501C9.5765 0.851553 9.5765 1.37634 9.89618 1.70728L17.8339 9.64513H1.10417C0.632457 9.64513 0.25 10.0276 0.25 10.4993C0.25 10.971 0.632457 11.3535 1.10417 11.3535H17.8339L9.89608 19.2912C9.55679 19.6189 9.5474 20.1597 9.87512 20.499C10.2028 20.8383 10.7437 20.8477 11.083 20.52C11.0901 20.5131 11.097 20.5061 11.1039 20.499L20.4998 11.1031C20.8333 10.7698 20.8333 10.2291 20.5 9.89559Z" fill="#4F4F4F"/>
</svg>
