<svg width="21" height="21" viewBox="0 0 21 21" fill="none" xmlns="http://www.w3.org/2000/svg">
<path d="M0.500034 9.89559C0.500139 9.89548 0.500034 9.89569 0.500034 9.89559L9.89608 0.499543C10.2354 0.171827 10.7761 0.181211 11.1038 0.520501C11.4235 0.851553 11.4235 1.37634 11.1038 1.70728L3.16607 9.64513H19.8958C20.3675 9.64513 20.75 10.0276 20.75 10.4993C20.75 10.971 20.3675 11.3535 19.8958 11.3535H3.16607L11.1039 19.2912C11.4432 19.6189 11.4526 20.1597 11.1249 20.499C10.7972 20.8383 10.2563 20.8477 9.91704 20.52C9.90994 20.5131 9.90296 20.5061 9.89608 20.499L0.500244 11.1031C0.166689 10.7698 0.166689 10.2291 0.500034 9.89559Z" fill="#4F4F4F"/>
</svg>
