<svg width="46" height="80" viewBox="0 0 46 80" fill="none" xmlns="http://www.w3.org/2000/svg">
<path d="M15.9763 1.94141V26.1573" stroke="black" stroke-width="3.2" stroke-linecap="round" stroke-linejoin="round"/>
<path d="M29.8137 1.94141V26.1573" stroke="black" stroke-width="3.2" stroke-linecap="round" stroke-linejoin="round"/>
<path d="M22.8951 1.94141V26.1573" stroke="black" stroke-width="3.2" stroke-linecap="round" stroke-linejoin="round"/>
<path d="M22.8846 1.94141H5.58758C4.67009 1.94141 3.79018 2.30588 3.14141 2.95464C2.49265 3.60341 2.12817 4.48332 2.12817 5.40082V10.1437C2.12811 10.4414 2.16648 10.7379 2.24233 11.0258L10.7767 43.4578" stroke="black" stroke-width="3.2" stroke-linecap="round" stroke-linejoin="round"/>
<path d="M22.8847 1.94141H40.1818C41.0992 1.94141 41.9792 2.30588 42.6279 2.95464C43.2767 3.60341 43.6412 4.48332 43.6412 5.40082V10.1437C43.6412 10.4414 43.6029 10.7379 43.527 11.0258L34.9926 43.4578" stroke="black" stroke-width="3.2" stroke-linecap="round" stroke-linejoin="round"/>
<path d="M25.3269 38.0291L30.6509 50.3792H41.0118C41.5346 50.3602 42.0505 50.5028 42.4893 50.7878C42.928 51.0727 43.2681 51.4861 43.4633 51.9714C43.6585 52.4568 43.6993 52.9905 43.58 53.4999C43.4607 54.0092 43.1873 54.4694 42.7969 54.8176L33.8024 62.8296L38.784 74.2906C39.0026 74.8148 39.0514 75.3944 38.9234 75.9478C38.7954 76.5011 38.4972 77.0004 38.0706 77.3755C37.6441 77.7505 37.1106 77.9823 36.5454 78.0383C35.9802 78.0943 35.4117 77.9717 34.9198 77.6878L22.8845 70.9039L10.8458 77.6878C10.3538 77.9757 9.78361 78.1014 9.21613 78.0472C8.64865 77.993 8.11261 77.7616 7.68397 77.3858C7.25534 77.01 6.95584 76.5088 6.82792 75.9533C6.7 75.3978 6.75014 74.8161 6.97124 74.2906L11.9528 62.8296L2.95832 54.8211C2.56714 54.4735 2.29271 54.0137 2.1725 53.5044C2.05228 52.9951 2.09213 52.4611 2.28661 51.9753C2.48108 51.4895 2.82071 51.0755 3.25915 50.7899C3.69759 50.5042 4.2135 50.3608 4.73646 50.3792H15.1147L20.4456 38.0291C20.6819 37.5872 21.0337 37.2177 21.4636 36.9601C21.8934 36.7025 22.3851 36.5664 22.8863 36.5664C23.3874 36.5664 23.8791 36.7025 24.3089 36.9601C24.7388 37.2177 25.0906 37.5872 25.3269 38.0291Z" stroke="black" stroke-width="3.2" stroke-linecap="round" stroke-linejoin="round"/>
</svg>
