<svg width="100" height="100" viewBox="0 0 100 100" fill="none" xmlns="http://www.w3.org/2000/svg">
<path d="M50.3507 63.1176C61.0501 63.1176 69.7236 54.3696 69.7236 43.5783C69.7236 32.7871 61.0501 24.0391 50.3507 24.0391C39.6514 24.0391 30.9779 32.7871 30.9779 43.5783C30.9779 54.3696 39.6514 63.1176 50.3507 63.1176Z" stroke="#231F20" stroke-width="3.2" stroke-linecap="round" stroke-linejoin="round"/>
<path d="M29.8943 22.1437C30.0376 20.1011 28.5122 18.328 26.487 18.1834C24.4618 18.0387 22.7038 19.5773 22.5604 21.6199C22.417 23.6625 23.9425 25.4356 25.9677 25.5802C27.9929 25.7248 29.7509 24.1862 29.8943 22.1437Z" stroke="#231F20" stroke-width="3.2" stroke-linecap="round" stroke-linejoin="round"/>
<path d="M20.8404 46.0462C22.8707 46.0462 24.5165 44.3862 24.5165 42.3385C24.5165 40.2908 22.8707 38.6309 20.8404 38.6309C18.8102 38.6309 17.1643 40.2908 17.1643 42.3385C17.1643 44.3862 18.8102 46.0462 20.8404 46.0462Z" stroke="#231F20" stroke-width="3.2" stroke-linecap="round" stroke-linejoin="round"/>
<path d="M55.8198 69.8729H44.8817C43.0324 69.8729 41.5326 68.3603 41.5326 66.495C41.5326 64.6298 43.0324 63.1172 44.8817 63.1172H55.8198C57.6691 63.1172 59.1689 64.6298 59.1689 66.495C59.1689 68.3603 57.6691 69.8729 55.8198 69.8729Z" stroke="#231F20" stroke-width="3.2" stroke-linecap="round" stroke-linejoin="round"/>
<path d="M55.3687 76.0718H45.344C43.6526 76.0718 42.2769 74.6843 42.2769 72.9783C42.2769 71.2723 43.6526 69.8848 45.344 69.8848H55.3687C57.0602 69.8848 58.4359 71.2723 58.4359 72.9783C58.4359 74.6843 57.0602 76.0718 55.3687 76.0718Z" stroke="#231F20" stroke-width="3.2" stroke-linecap="round" stroke-linejoin="round"/>
<path d="M54.7597 81.5185H45.9529C44.4644 81.5185 43.2578 80.3015 43.2578 78.8002C43.2578 77.299 44.4644 76.082 45.9529 76.082H54.7597C56.2482 76.082 57.4548 77.299 57.4548 78.8002C57.4548 80.3015 56.2482 81.5185 54.7597 81.5185Z" stroke="#231F20" stroke-width="3.2" stroke-linecap="round" stroke-linejoin="round"/>
<path d="M40.8109 31.4542H26.2192V25.5742" stroke="#231F20" stroke-width="3.2" stroke-linecap="round" stroke-linejoin="round"/>
<path d="M26.2193 65.847C28.2496 65.847 29.8954 64.187 29.8954 62.1393C29.8954 60.0916 28.2496 58.4316 26.2193 58.4316C24.1891 58.4316 22.5432 60.0916 22.5432 62.1393C22.5432 64.187 24.1891 65.847 26.2193 65.847Z" stroke="#231F20" stroke-width="3.2" stroke-linecap="round" stroke-linejoin="round"/>
<path d="M40.8109 52.5527H26.2192V58.4441" stroke="#231F20" stroke-width="3.2" stroke-linecap="round" stroke-linejoin="round"/>
<path d="M74.0236 25.5686C76.0488 25.424 77.5743 23.6509 77.4309 21.6083C77.2875 19.5657 75.5295 18.0271 73.5043 18.1717C71.4791 18.3164 69.9536 20.0894 70.097 22.132C70.2404 24.1746 71.9984 25.7132 74.0236 25.5686Z" stroke="#231F20" stroke-width="3.2" stroke-linecap="round" stroke-linejoin="round"/>
<path d="M59.1687 31.4542H73.7603V25.5742" stroke="#231F20" stroke-width="3.2" stroke-linecap="round" stroke-linejoin="round"/>
<path d="M73.7605 65.847C75.7907 65.847 77.4366 64.187 77.4366 62.1393C77.4366 60.0916 75.7907 58.4316 73.7605 58.4316C71.7302 58.4316 70.0844 60.0916 70.0844 62.1393C70.0844 64.187 71.7302 65.847 73.7605 65.847Z" stroke="#231F20" stroke-width="3.2" stroke-linecap="round" stroke-linejoin="round"/>
<path d="M59.1687 52.5527H73.7603V58.4441" stroke="#231F20" stroke-width="3.2" stroke-linecap="round" stroke-linejoin="round"/>
<path d="M31.0117 42.5547H24.5052" stroke="#231F20" stroke-width="3.2" stroke-linecap="round" stroke-linejoin="round"/>
<path d="M79.9061 46.0462C81.9363 46.0462 83.5822 44.3862 83.5822 42.3385C83.5822 40.2908 81.9363 38.6309 79.9061 38.6309C77.8758 38.6309 76.23 40.2908 76.23 42.3385C76.23 44.3862 77.8758 46.0462 79.9061 46.0462Z" stroke="#231F20" stroke-width="3.2" stroke-linecap="round" stroke-linejoin="round"/>
<path d="M69.7234 42.5547H76.2299" stroke="#231F20" stroke-width="3.2" stroke-linecap="round" stroke-linejoin="round"/>
</svg>
