<svg width="63" height="63" viewBox="0 0 63 63" fill="none" xmlns="http://www.w3.org/2000/svg">
<g clip-path="url(#clip0_1318_309)">
<path d="M46.5818 46.963L44.8636 44.4812C45.4364 43.4312 45.9136 42.2858 46.2 41.2358L49.1591 40.7585C49.6364 40.663 49.9227 40.2812 49.9227 39.8039V34.363C49.9227 33.8858 49.6364 33.5039 49.1591 33.4085L46.2 32.8358C45.9136 31.6903 45.4364 30.5449 44.8636 29.4949L46.5818 27.1085C46.8682 26.7267 46.7727 26.2494 46.4864 25.8676L42.6682 21.9539C42.3818 21.6676 41.8091 21.5721 41.4273 21.8585L38.9454 23.5767C37.8954 23.0039 36.8454 22.5267 35.7 22.2403L35.3182 19.2812C35.2227 18.8039 34.8409 18.5176 34.3636 18.5176H28.9227C28.4454 18.5176 28.0636 18.8039 27.9682 19.2812L27.3954 22.2403C26.25 22.5267 25.2 23.0039 24.0545 23.5767L21.5727 21.8585C21.1909 21.5721 20.7136 21.6676 20.3318 21.9539L16.4182 25.7721C16.1318 26.0585 16.0364 26.6312 16.3227 27.013L18.0409 29.4949C17.4682 30.5449 16.9909 31.5949 16.6091 32.7403L13.65 33.2176C13.1727 33.313 12.8864 33.6949 12.8864 34.1721V39.613C12.8864 40.0903 13.1727 40.4721 13.65 40.5676L16.6091 41.1403C16.8954 42.2858 17.3727 43.3358 17.9454 44.4812L16.3227 46.7721C16.0364 47.1539 16.1318 47.6312 16.4182 48.013L20.2364 51.9267C20.5227 52.213 21.0954 52.3085 21.4773 52.0221L23.9591 50.3039C25.0091 50.8767 26.0591 51.3539 27.2045 51.6403L27.6818 54.5994C27.7773 55.0767 28.1591 55.363 28.6364 55.363H34.0773C34.5545 55.363 34.9364 55.0767 35.0318 54.5994L35.6045 51.6403C36.75 51.3539 37.8954 50.8767 38.85 50.3039L41.2364 52.0221C41.6182 52.3085 42.0954 52.213 42.4773 51.9267L46.3909 48.1085C46.7727 47.8221 46.7727 47.3449 46.5818 46.963ZM44.5773 40.1858C44.2909 41.5221 43.7182 42.8585 42.9545 44.0994C42.7636 44.3858 42.7636 44.863 42.9545 45.1494L44.4818 47.4403L41.7136 50.113L39.4227 48.4903C39.1364 48.2994 38.6591 48.2994 38.3727 48.4903C37.1318 49.2539 35.8909 49.7312 34.4591 50.0176C34.0773 50.113 33.7909 50.3994 33.6954 50.7812L33.2182 53.5494H29.4L28.9227 50.7812C28.8273 50.3994 28.5409 50.113 28.1591 50.0176C26.8227 49.7312 25.4864 49.1585 24.2454 48.3949C23.9591 48.2039 23.4818 48.2039 23.1954 48.3949L20.9045 50.0176L18.2318 47.2494L19.8545 44.9585C20.0454 44.6721 20.0454 44.1949 19.8545 43.9085C19.0909 42.6676 18.6136 41.3312 18.2318 39.9949C18.1364 39.613 17.85 39.3267 17.4682 39.2312L14.7 38.7539V34.9358L17.4682 34.4585C17.85 34.363 18.1364 34.0767 18.2318 33.7903C18.6136 32.4539 19.0909 31.1176 19.8545 29.8767C20.0454 29.5903 20.0454 29.113 19.8545 28.8267L18.2318 26.5358L21 23.863L23.2909 25.4858C23.5773 25.6767 23.9591 25.6767 24.3409 25.4858C25.5818 24.7221 26.9182 24.2449 28.2545 23.9585C28.6364 23.863 28.9227 23.5767 29.0182 23.1949L29.4954 20.4267H33.3136L33.7909 23.1949C33.8864 23.5767 34.1727 23.863 34.5545 23.9585C35.8909 24.2449 37.2273 24.8176 38.3727 25.5812C38.6591 25.7721 39.1364 25.7721 39.4227 25.5812L41.7136 24.0539L44.3864 26.8221L42.7636 29.113C42.5727 29.3994 42.5727 29.8767 42.7636 30.163C43.5273 31.4039 44.0045 32.7403 44.3864 34.0767C44.4818 34.4585 44.7682 34.7449 45.15 34.8403L47.9182 35.3176V39.1358L45.15 39.613C44.9591 39.5176 44.5773 39.8039 44.5773 40.1858Z" fill="#7764F0"/>
<path d="M31.5 29.0176C27.1091 29.0176 23.5773 32.5494 23.5773 36.9403C23.5773 41.3312 27.1091 44.863 31.5 44.863C35.8909 44.863 39.4227 41.3312 39.4227 36.9403C39.4227 32.5494 35.8909 29.0176 31.5 29.0176ZM31.5 42.9539C28.1591 42.9539 25.4864 40.2812 25.4864 36.9403C25.4864 33.5994 28.1591 30.9267 31.5 30.9267C34.8409 30.9267 37.5136 33.5994 37.5136 36.9403C37.5136 40.2812 34.8409 42.9539 31.5 42.9539Z" fill="#7764F0"/>
<path d="M61.5682 0.476562H1.43184C0.859113 0.476562 0.477295 0.858381 0.477295 1.43111V61.5675C0.477295 62.1402 0.859113 62.522 1.43184 62.522H61.5682C62.1409 62.522 62.5228 62.1402 62.5228 61.5675V1.43111C62.5228 0.858381 62.1409 0.476562 61.5682 0.476562ZM2.38639 2.38565H60.6137V11.3584H2.38639V2.38565ZM2.38639 60.6129V13.2675H60.6137V60.6129H2.38639Z" fill="#7764F0"/>
<path d="M8.11362 3.72266C6.39544 3.72266 4.96362 5.15447 4.96362 6.87266C4.96362 8.59084 6.39544 10.0227 8.11362 10.0227C9.83181 10.0227 11.2636 8.59084 11.2636 6.87266C11.2636 5.15447 9.83181 3.72266 8.11362 3.72266ZM8.11362 8.11357C7.44544 8.11357 6.87271 7.54084 6.87271 6.87266C6.87271 6.20447 7.44544 5.63175 8.11362 5.63175C8.78181 5.63175 9.35453 6.20447 9.35453 6.87266C9.35453 7.54084 8.78181 8.11357 8.11362 8.11357ZM15.8454 3.72266C14.1273 3.72266 12.6954 5.15447 12.6954 6.87266C12.6954 8.59084 14.1273 10.0227 15.8454 10.0227C17.5636 10.0227 18.9954 8.59084 18.9954 6.87266C18.9954 5.15447 17.6591 3.72266 15.8454 3.72266ZM15.8454 8.11357C15.1773 8.11357 14.6045 7.54084 14.6045 6.87266C14.6045 6.20447 15.1773 5.63175 15.8454 5.63175C16.5136 5.63175 17.0864 6.20447 17.0864 6.87266C17.0864 7.54084 16.5136 8.11357 15.8454 8.11357ZM23.6727 3.72266C21.9545 3.72266 20.5227 5.15447 20.5227 6.87266C20.5227 8.59084 21.9545 10.0227 23.6727 10.0227C25.3909 10.0227 26.8227 8.59084 26.8227 6.87266C26.8227 5.15447 25.3909 3.72266 23.6727 3.72266ZM23.6727 8.11357C23.0045 8.11357 22.4318 7.54084 22.4318 6.87266C22.4318 6.20447 23.0045 5.63175 23.6727 5.63175C24.3409 5.63175 24.9136 6.20447 24.9136 6.87266C24.9136 7.54084 24.3409 8.11357 23.6727 8.11357ZM55.2682 5.91811H31.5C30.9273 5.91811 30.5454 6.29993 30.5454 6.87266C30.5454 7.44538 30.9273 7.8272 31.5 7.8272H55.2682C55.8409 7.8272 56.2227 7.44538 56.2227 6.87266C56.2227 6.29993 55.8409 5.91811 55.2682 5.91811ZM6.20453 27.6817C6.77726 27.6817 7.15908 27.2999 7.15908 26.7272V18.0408H17.6591C18.2318 18.0408 18.6136 17.659 18.6136 17.0863C18.6136 16.5136 18.2318 16.1317 17.6591 16.1317H6.20453C5.63181 16.1317 5.24999 16.5136 5.24999 17.0863V26.7272C5.24999 27.2045 5.72726 27.6817 6.20453 27.6817ZM17.7545 55.8408H7.25453V47.1545C7.25453 46.5817 6.87271 46.1999 6.29999 46.1999C5.72726 46.1999 5.34544 46.5817 5.34544 47.1545V56.7954C5.34544 57.3681 5.72726 57.7499 6.29999 57.7499H17.7545C18.3273 57.7499 18.7091 57.3681 18.7091 56.7954C18.7091 56.2227 18.2318 55.8408 17.7545 55.8408ZM56.7954 16.1317H45.3409C44.7682 16.1317 44.3864 16.5136 44.3864 17.0863C44.3864 17.659 44.7682 18.0408 45.3409 18.0408H55.9364V26.7272C55.9364 27.2999 56.3182 27.6817 56.8909 27.6817C57.4636 27.6817 57.8454 27.2999 57.8454 26.7272V17.0863C57.75 16.5136 57.3682 16.1317 56.7954 16.1317ZM56.7954 46.1999C56.2227 46.1999 55.8409 46.5817 55.8409 47.1545V55.8408H45.3409C44.7682 55.8408 44.3864 56.2227 44.3864 56.7954C44.3864 57.3681 44.7682 57.7499 45.3409 57.7499H56.8909C57.4636 57.7499 57.8454 57.3681 57.8454 56.7954V47.1545C57.75 46.6772 57.3682 46.1999 56.7954 46.1999Z" fill="#7764F0"/>
</g>
<defs>
<clipPath id="clip0_1318_309">
<rect width="63" height="63" fill="white"/>
</clipPath>
</defs>
</svg>
