<svg width="70" height="70" viewBox="0 0 70 70" fill="none" xmlns="http://www.w3.org/2000/svg">
<path d="M17.397 68.9702H52.7058C56.9264 68.9702 60.3234 65.5731 60.3234 61.3525V18.3231C60.3234 14.1025 56.9264 10.7055 52.7058 10.7055H45.7058V9.0584C45.6028 7.41134 44.2646 6.17605 42.7205 6.17605H40.4558C40.3528 4.63193 39.6323 3.2937 38.397 2.26428C34.9999 -0.515127 29.8528 1.74958 29.544 6.17605H27.2793C25.7352 6.17605 24.397 7.51428 24.397 9.0584V10.7055H17.397C13.1764 10.7055 9.77931 14.1025 9.77931 18.3231V61.3525C9.67637 65.5731 13.1764 68.9702 17.397 68.9702ZM26.4558 9.0584C26.4558 8.5437 26.8675 8.23487 27.2793 8.23487H31.6028V6.7937C31.294 3.8084 34.897 1.95546 37.1617 3.91134C38.9117 5.35252 38.397 7.20546 38.1911 8.23487H42.7205C43.1323 8.23487 43.544 8.64664 43.544 9.0584V14.2055H26.4558V9.0584ZM11.7352 18.3231C11.7352 15.2349 14.2058 12.7643 17.294 12.7643H24.294V16.2643H45.4999V12.7643H52.4999C55.5881 12.7643 58.0587 15.2349 58.0587 18.3231V61.3525C58.0587 64.4408 55.5881 66.9113 52.4999 66.9113H17.397C14.3087 66.9113 11.8381 64.4408 11.8381 61.3525V18.3231H11.7352Z" fill="#796EF5"/>
<path d="M19.9705 37.7793H49.9264C50.544 37.7793 50.9558 37.3675 50.9558 36.7499V33.2499C50.9558 30.8822 49.5146 28.8234 47.5587 27.8969C47.9705 27.2793 48.1764 26.6616 48.1764 25.8381C48.1764 23.8822 46.6322 22.3381 44.6764 22.3381C42.7205 22.3381 41.1764 23.8822 41.1764 25.8381C41.1764 26.5587 41.3822 27.2793 41.794 27.8969C41.3822 28.1028 40.9705 28.3087 40.6617 28.6175C40.044 27.3822 39.0146 26.4558 37.7793 25.8381C38.1911 25.2205 38.397 24.6028 38.397 23.7793C38.397 21.8234 36.8528 20.2793 34.897 20.2793C32.9411 20.2793 31.397 21.8234 31.397 23.7793C31.397 24.4999 31.6028 25.2205 32.0146 25.8381C30.7793 26.3528 29.8528 27.3822 29.2352 28.5146C28.9264 28.3087 28.5146 28.1028 28.2058 27.8969C28.6175 27.2793 28.8234 26.6616 28.8234 25.8381C28.8234 23.8822 27.2793 22.3381 25.3234 22.3381C23.3675 22.3381 21.8234 23.8822 21.8234 25.8381C21.8234 26.5587 22.0293 27.2793 22.4411 27.8969C20.3822 28.8234 19.044 30.8822 19.044 33.2499V36.7499C18.9411 37.2646 19.4558 37.7793 19.9705 37.7793ZM44.6764 24.3969C45.4999 24.3969 46.1175 25.0146 46.1175 25.8381C46.1175 26.5587 45.4999 27.2793 44.5734 27.2793C43.7499 27.2793 43.1322 26.6616 43.1322 25.8381C43.2352 25.0146 43.8528 24.3969 44.6764 24.3969ZM45.0881 29.3381C47.2499 29.3381 48.9999 31.0881 48.9999 33.2499V35.7205H41.2793V30.8822C42.5146 29.2352 44.0587 29.3381 45.0881 29.3381ZM34.897 22.3381C35.7205 22.3381 36.3381 22.9558 36.3381 23.7793C36.3381 24.4999 35.7205 25.2205 34.794 25.2205C33.9705 25.2205 33.3528 24.6028 33.3528 23.7793C33.4558 22.9558 34.0734 22.3381 34.897 22.3381ZM34.4852 27.2793H35.3087C37.4705 27.2793 39.2205 29.0293 39.2205 31.1911V35.7205H30.6764V31.1911C30.6764 29.0293 32.3234 27.2793 34.4852 27.2793ZM25.3234 24.3969C26.147 24.3969 26.7646 25.0146 26.7646 25.8381C26.7646 26.5587 26.147 27.2793 25.2205 27.2793C24.397 27.2793 23.7793 26.6616 23.7793 25.8381C23.8822 25.0146 24.4999 24.3969 25.3234 24.3969ZM20.9999 33.2499C20.9999 31.3969 22.3381 29.3381 25.2205 29.3381C26.2499 29.3381 27.4852 29.4411 28.5146 30.6764V35.7205H20.9999V33.2499ZM47.8675 43.4411H22.0293C21.4117 43.4411 20.9999 43.8528 20.9999 44.4705C20.9999 45.0881 21.4117 45.4999 22.0293 45.4999H47.9705C48.5881 45.4999 48.9999 45.0881 48.9999 44.4705C48.9999 43.8528 48.4852 43.4411 47.8675 43.4411ZM47.8675 47.8675H22.0293C21.4117 47.8675 20.9999 48.2793 20.9999 48.8969C20.9999 49.5146 21.4117 49.9264 22.0293 49.9264H47.9705C48.5881 49.9264 48.9999 49.5146 48.9999 48.8969C48.9999 48.2793 48.4852 47.8675 47.8675 47.8675ZM47.8675 52.294H22.0293C21.4117 52.294 20.9999 52.7058 20.9999 53.3234C20.9999 53.9411 21.4117 54.3528 22.0293 54.3528H47.9705C48.5881 54.3528 48.9999 53.9411 48.9999 53.3234C48.9999 52.7058 48.4852 52.294 47.8675 52.294Z" fill="#796EF5"/>
</svg>
