<svg width="70" height="70" viewBox="0 0 70 70" fill="none" xmlns="http://www.w3.org/2000/svg">
<path d="M9.29688 35V12.5781C9.29688 10.7187 10.8281 9.29687 12.5781 9.29687H17.5C17.1719 8.64062 16.9531 7.875 16.9531 7.10937C16.9531 4.26562 19.25 1.96875 22.2031 1.96875C25.0469 1.96875 27.3437 4.26562 27.3437 7.10937C27.3437 7.875 27.125 8.64062 26.7969 9.29687H35M35 9.29687V22.4219M35 9.29687H43.0938C42.7656 9.95312 42.6563 10.7187 42.6563 11.4844C42.6563 14.3281 44.9531 16.625 47.7969 16.625C50.6406 16.625 53.0469 14.3281 53.0469 11.4844C53.0469 10.7187 52.8281 9.95312 52.5 9.29687H57.3125C59.1719 9.29687 60.5938 10.8281 60.5938 12.5781V17.5C61.25 17.1719 62.0156 16.9531 62.7813 16.9531C65.625 16.9531 67.9219 19.25 67.9219 22.0937C67.9219 24.9375 65.625 27.2344 62.7813 27.2344C62.0156 27.2344 61.25 27.0156 60.5938 26.6875V35H52.6094C52.8281 35.5469 53.0469 36.3125 53.0469 36.9687C53.0469 39.8125 50.75 42.1094 47.7969 42.1094C46.1563 42.1094 44.625 41.3437 43.6406 40.0312M60.7031 35V57.4219C60.7031 59.2812 59.1719 60.7031 57.4219 60.7031H52.5C52.8281 61.3594 53.0469 62.125 53.0469 62.8906C53.0469 65.7344 50.75 68.0312 47.7969 68.0312C44.9531 68.0312 42.6563 65.7344 42.6563 62.8906C42.6563 62.125 42.875 61.3594 43.2031 60.7031H35M35 60.7031V47.5781M35 60.7031H26.9062C27.2344 60.0469 27.4531 59.2812 27.4531 58.5156C27.4531 55.6719 25.1562 53.375 22.3125 53.375C19.4687 53.375 17.1719 55.6719 17.1719 58.5156C17.1719 59.2812 17.3906 60.0469 17.7188 60.7031H12.9063C11.0469 60.7031 9.625 59.1719 9.625 57.4219V52.5C8.96875 52.8281 8.20313 53.0469 7.4375 53.0469C4.59375 53.0469 2.29688 50.75 2.29688 47.9062C2.29688 45.0625 4.59375 42.7656 7.4375 42.7656C8.20313 42.7656 8.96875 42.9844 9.625 43.3125V35H17.7188C17.5 34.3437 17.2813 33.6875 17.2813 33.0312C17.2813 30.1875 19.5781 27.8906 22.4219 27.8906C24.0625 27.8906 25.5937 28.6562 26.5781 29.8594" stroke="#796EF5" stroke-width="2" stroke-miterlimit="10" stroke-linecap="round" stroke-linejoin="round"/>
<path d="M47.4688 33.3594V36.75L44.8438 37.0781C44.625 38.3906 44.0781 39.4844 43.4219 40.5781L44.9531 42.6562L42.6563 45.0625L40.5781 43.5312C39.4844 44.1875 38.3906 44.7344 37.0781 44.9531L36.75 47.5781H33.3594L33.0313 44.9531C31.7188 44.7344 30.625 44.1875 29.5313 43.5312L27.3438 45.0625L24.9375 42.6562L26.4688 40.5781C25.8125 39.4844 25.2656 38.3906 25.0469 37.0781L22.4219 36.75V33.3594L25.0469 33.0313C25.2656 31.7188 25.8125 30.625 26.4688 29.5312L24.9375 27.3438L27.3438 24.9375L29.4219 26.4688C30.5156 25.8125 31.6094 25.2656 32.9219 25.0469L33.25 22.4219H36.6406L36.9688 25.0469C38.2813 25.2656 39.375 25.8125 40.4688 26.4688L42.5469 24.9375L44.9531 27.3438L43.4219 29.4219C44.0781 30.5156 44.625 31.6094 44.8438 32.9219L47.4688 33.3594Z" fill="#796EF5"/>
<path d="M38.9375 35.7656C39.4843 32.9218 37.0781 30.5156 34.2343 31.0625C32.7031 31.3906 31.3906 32.5937 31.0625 34.2343C30.5156 37.0781 32.9218 39.4843 35.7656 38.9375C37.4062 38.6093 38.6093 37.4062 38.9375 35.7656Z" fill="white"/>
</svg>
