<svg width="70" height="70" viewBox="0 0 70 70" fill="none" xmlns="http://www.w3.org/2000/svg">
<path d="M62.3438 2.1875H9.84375C6.82828 2.1875 4.375 4.64078 4.375 7.65625V48.7036C2.95029 50.7377 2.18651 53.1611 2.1875 55.6445C2.1875 62.3536 7.64641 67.8125 14.3555 67.8125C20.65 67.8125 25.842 63.0088 26.4611 56.875H37.1875V61.25C37.1875 63.6628 39.1497 65.625 41.5625 65.625C43.9753 65.625 45.9375 63.6628 45.9375 61.25V56.875H62.3438C65.3592 56.875 67.8125 54.4217 67.8125 51.4062V7.65625C67.8125 4.64078 65.3592 2.1875 62.3438 2.1875ZM14.3555 65.625C8.85172 65.625 4.375 61.1483 4.375 55.6445C4.375 53.4012 5.12859 51.3352 6.38203 49.6661C6.59313 49.385 6.81734 49.1181 7.0525 48.8644C7.08313 48.8316 7.11266 48.7966 7.14438 48.7637C7.38172 48.5133 7.63219 48.277 7.89141 48.055C7.91985 48.0309 7.945 48.0047 7.97234 47.9806C8.24209 47.7552 8.52358 47.5441 8.81563 47.3484C8.94578 47.2609 9.0836 47.1855 9.21813 47.1034C9.3786 47.0038 9.542 46.909 9.70813 46.8191C9.87219 46.7327 10.0417 46.6539 10.2113 46.5762C10.2845 46.5423 10.3578 46.5128 10.4322 46.4811C10.6848 46.3728 10.9408 46.2722 11.1989 46.1847C11.2963 46.1519 11.3947 46.1256 11.4931 46.0961C11.7266 46.0237 11.9627 45.9599 12.2008 45.9047L12.203 45.9036C12.3725 45.8664 12.5453 45.8413 12.7181 45.8128C12.8734 45.7866 13.0288 45.757 13.1852 45.7384C13.2092 45.7352 13.2333 45.7297 13.2573 45.7275C13.622 45.6865 13.9886 45.6653 14.3555 45.6641C14.9173 45.6678 15.4778 45.7187 16.0311 45.8161C16.4106 45.8806 16.7847 45.9637 17.15 46.0698C17.2058 46.0862 17.2638 46.0961 17.3195 46.1136C17.7056 46.2328 18.0775 46.3848 18.4439 46.55C18.8504 46.7339 19.244 46.9451 19.6219 47.1822C20.455 47.6957 21.2055 48.3325 21.8477 49.0711C21.9603 49.1991 22.0708 49.3281 22.1769 49.4616C22.4729 49.8362 22.7416 50.2317 22.9808 50.645C23.1973 51.0191 23.3986 51.403 23.5681 51.8098C24.0747 53.0218 24.336 54.3222 24.337 55.6358L24.3305 55.7692V55.7725C24.2605 61.2161 19.8166 65.625 14.3555 65.625ZM39.0261 45.8664C38.8106 45.7953 38.6228 45.6583 38.4892 45.4749C38.3556 45.2914 38.2829 45.0707 38.2812 44.8438V43.3913L38.3305 43.3989C38.7953 43.4995 39.2689 43.575 39.748 43.6319C39.8103 43.6395 39.8705 43.6537 39.9328 43.6603C40.4688 43.7172 41.0112 43.75 41.5625 43.75C42.1138 43.75 42.6562 43.7172 43.1922 43.6603C43.2545 43.6537 43.3158 43.6395 43.3781 43.6319C43.8572 43.575 44.3297 43.4995 44.7945 43.3989L44.8438 43.3913V44.8438C44.8421 45.0707 44.7694 45.2914 44.6358 45.4749C44.5022 45.6583 44.3144 45.7953 44.0989 45.8664C43.9874 45.9095 43.8695 45.9335 43.75 45.9375H39.375C39.2555 45.9335 39.1376 45.9095 39.0261 45.8664ZM37.1875 50.3125H25.293C25.2905 50.3068 25.2876 50.3013 25.2842 50.2961L25.2744 50.2775C25.2241 50.1747 25.1672 50.0773 25.1147 49.9756C25.0786 49.9067 25.0425 49.8367 25.0042 49.7689C24.9277 49.63 24.85 49.4933 24.7691 49.3587L24.6969 49.2428C24.5166 48.9509 24.3243 48.6667 24.1205 48.3908L24.1172 48.3853C22.8281 46.6453 21.096 45.283 19.1013 44.4402L19.0641 44.4248L18.9219 44.3669L18.8398 44.333C18.5774 44.2293 18.3115 44.1348 18.0425 44.0497C18.0053 44.0377 17.9692 44.0245 17.9309 44.0136C17.5722 43.9042 17.2091 43.8091 16.8383 43.7325L16.7497 43.715C16.6786 43.7008 16.6053 43.6909 16.5331 43.6778C16.2745 43.6311 16.0144 43.5928 15.7533 43.563C15.6909 43.5553 15.6308 43.5433 15.5684 43.5378C15.5192 43.5323 15.4689 43.5323 15.4197 43.528C15.0655 43.4954 14.7101 43.4783 14.3544 43.4766C13.9573 43.4766 13.5658 43.4995 13.1764 43.5367C13.0747 43.5466 12.9752 43.5641 12.8745 43.5761C12.8398 43.5803 12.8052 43.585 12.7706 43.5903C12.6886 43.6012 12.6066 43.61 12.5245 43.6231C12.3506 43.6494 12.1778 43.6767 12.0061 43.7106C11.9088 43.7292 11.8136 43.7533 11.7173 43.7752C11.4548 43.8331 11.1945 43.8966 10.9375 43.9709V32.8125H20.7812C21.2133 32.8125 21.6048 32.5577 21.7809 32.1628L25.1562 24.5678L26.3036 27.1502C26.2686 27.5811 26.25 28.012 26.25 28.4375C26.2531 29.0382 26.2915 29.6383 26.3648 30.2345C26.4031 30.5594 26.4534 30.882 26.5125 31.2025C26.5377 31.3414 26.5573 31.4825 26.5869 31.6203C26.7594 32.4149 26.9957 33.1944 27.2934 33.9511C27.382 34.1797 27.4706 34.4083 27.5702 34.6314C27.6281 34.7627 27.6948 34.8895 27.7572 35.0186C27.965 35.4517 28.1903 35.8728 28.4364 36.283C28.4944 36.3792 28.5458 36.4787 28.6059 36.5739L28.6114 36.5706C30.3777 39.3741 33.002 41.5323 36.0938 42.7241V44.8438C36.0938 45.8095 36.5214 46.6703 37.1875 47.2719V50.3125ZM54.3167 31.4825C54.2062 31.9452 54.0684 32.3991 53.9098 32.8464L53.8541 32.9984C53.7086 33.3922 53.5412 33.7772 53.3597 34.1545C53.3203 34.2366 53.282 34.3197 53.2405 34.4006C53.0709 34.7342 52.8828 35.0547 52.6859 35.3719C52.6214 35.4758 52.5634 35.583 52.4956 35.6847C50.8495 38.1653 48.4106 40.0142 45.5777 40.9292C45.3961 40.9872 45.2113 41.0331 45.0286 41.0834C44.8361 41.1359 44.6425 41.1895 44.4467 41.2333C44.0501 41.321 43.6498 41.3907 43.2469 41.4422C43.0719 41.4652 42.898 41.4881 42.723 41.5034C42.2615 41.5438 41.7982 41.5595 41.335 41.5505C41.025 41.5459 40.7153 41.5302 40.4064 41.5034C40.2314 41.4881 40.0564 41.4641 39.8825 41.4422C39.4796 41.3907 39.0793 41.321 38.6827 41.2333C38.4858 41.1895 38.2933 41.1359 38.1008 41.0834C37.917 41.0331 37.7333 40.9872 37.5517 40.9292C34.5466 39.9537 31.9926 37.93 30.3559 35.2275C30.0954 34.7998 29.8595 34.3576 29.6494 33.903C29.6275 33.8559 29.6034 33.8111 29.5827 33.7641C29.4897 33.5563 29.4077 33.3441 29.3256 33.133C29.0793 32.4942 28.8812 31.838 28.7328 31.1697C28.7066 31.0461 28.6891 30.9203 28.6661 30.7956C28.5936 30.4024 28.5388 30.006 28.502 29.6078C28.4607 29.2191 28.4391 28.8284 28.4375 28.4375C28.4375 27.9912 28.4616 27.5373 28.5075 27.0867C29.1856 20.4816 34.7812 15.3125 41.5625 15.3125C48.7998 15.3125 54.6875 21.2002 54.6875 28.4375C54.6875 29.4875 54.5508 30.5036 54.3167 31.4825ZM45.9375 47.2719C46.6036 46.6714 47.0312 45.8095 47.0312 44.8438V42.723C49.4833 41.7833 51.6537 40.2311 53.3356 38.2145L53.3411 38.2189C53.7163 37.7672 54.0564 37.2881 54.378 36.7938C55.1845 35.563 55.8085 34.222 56.2308 32.8125H61.25V50.3125H45.9375V47.2719ZM61.25 30.625H56.7C56.8028 29.9086 56.875 29.1823 56.875 28.4375C56.875 19.9937 50.0062 13.125 41.5625 13.125C34.8447 13.125 29.1375 17.4792 27.0791 23.508L26.1559 21.4309C26.0697 21.2379 25.9294 21.0739 25.752 20.9588C25.5746 20.8438 25.3677 20.7825 25.1562 20.7825C24.9448 20.7825 24.7379 20.8438 24.5605 20.9588C24.3831 21.0739 24.2428 21.2379 24.1566 21.4309L20.0703 30.625H10.9375V8.75H61.25V30.625ZM26.4862 54.6875C26.4819 54.6383 26.472 54.5902 26.4677 54.5409C26.4513 54.3594 26.4239 54.1811 26.3998 54.0017C26.3703 53.7852 26.3419 53.5686 26.3014 53.3564C26.2675 53.1792 26.2248 53.0064 26.1833 52.8314C26.1559 52.722 26.1363 52.6094 26.1078 52.5H37.1875V54.6875H26.4862ZM43.75 61.25C43.75 62.4564 42.7689 63.4375 41.5625 63.4375C40.3561 63.4375 39.375 62.4564 39.375 61.25V48.125H43.75V61.25ZM65.625 51.4062C65.625 53.2153 64.1528 54.6875 62.3438 54.6875H45.9375V52.5H62.3438C62.6338 52.5 62.912 52.3848 63.1171 52.1796C63.3223 51.9745 63.4375 51.6963 63.4375 51.4062V7.65625C63.4375 7.36617 63.3223 7.08797 63.1171 6.88285C62.912 6.67773 62.6338 6.5625 62.3438 6.5625H9.84375C9.55367 6.5625 9.27547 6.67773 9.07035 6.88285C8.86524 7.08797 8.75 7.36617 8.75 7.65625V44.8514L8.63078 44.9137L8.52797 44.9673C8.21406 45.1391 7.90891 45.325 7.61141 45.5252L7.54141 45.57C7.2483 45.7697 6.96402 45.9821 6.68938 46.2066C6.66313 46.2284 6.63469 46.247 6.60844 46.2689L6.5625 46.3039V7.65625C6.5625 5.84719 8.03469 4.375 9.84375 4.375H62.3438C64.1528 4.375 65.625 5.84719 65.625 7.65625V51.4062Z" fill="#796EF5"/>
<path d="M14.2188 49.2188H12.0312V56.875C12.0312 57.1651 12.1465 57.4433 12.3516 57.6484C12.5567 57.8535 12.8349 57.9688 13.125 57.9688H20.7812V55.7812H14.2188V49.2188Z" fill="#796EF5"/>
<path d="M41.5625 17.5C35.5316 17.5 30.625 22.4066 30.625 28.4375C30.625 29.2709 30.7267 30.0792 30.9039 30.8591V30.8678C30.9148 30.917 30.9313 30.9641 30.9433 31.0133C31.059 31.4927 31.207 31.9637 31.3862 32.4231C31.418 32.5062 31.4442 32.5916 31.4781 32.6736C31.4967 32.7184 31.5197 32.7611 31.5394 32.8048C31.663 33.0914 31.7975 33.3703 31.943 33.6427L31.9539 33.6623C33.2967 36.1555 35.5625 38.0236 38.2659 38.8664L38.3698 38.8981C38.6509 38.9834 38.9364 39.0567 39.2262 39.1191C39.3006 39.1355 39.3739 39.153 39.4494 39.1672C39.7119 39.2186 39.9788 39.258 40.2478 39.2897C40.3342 39.3006 40.4206 39.3148 40.5081 39.3236C40.8559 39.3542 41.207 39.375 41.5625 39.375C41.918 39.375 42.2691 39.3542 42.6158 39.3214C42.7033 39.3127 42.7886 39.2984 42.8761 39.2875C43.1452 39.2558 43.412 39.2164 43.6745 39.165C43.7489 39.1508 43.8233 39.1333 43.8977 39.1169C44.1875 39.0545 44.473 38.9813 44.7541 38.8959L44.858 38.8642C47.5615 38.0211 49.8274 36.1526 51.17 33.6591L51.1809 33.6394C51.3264 33.367 51.462 33.0881 51.5845 32.8016C51.6042 32.7567 51.6272 32.7152 51.6458 32.6703C51.6797 32.5883 51.7059 32.503 51.7377 32.4198C51.917 31.9638 52.0636 31.4934 52.1806 31.01C52.1927 30.9608 52.2091 30.9137 52.22 30.8645V30.8558C52.3983 30.0792 52.5 29.2709 52.5 28.4375C52.5 22.4066 47.5934 17.5 41.5625 17.5ZM41.5625 19.6875C46.387 19.6875 50.3125 23.613 50.3125 28.4375C50.3125 28.8083 50.2819 29.1725 50.237 29.5312H45.5656L42.5687 22.5378C42.4889 22.3507 42.3582 22.1897 42.1916 22.0729C42.025 21.9562 41.8291 21.8884 41.6259 21.8772C41.4232 21.8672 41.2216 21.9132 41.0432 22.01C40.8648 22.1068 40.7164 22.2508 40.6142 22.4262L36.5531 29.5312H32.8891C32.8403 29.1687 32.8147 28.8033 32.8125 28.4375C32.8125 23.613 36.738 19.6875 41.5625 19.6875ZM49.6584 31.7461C49.4624 32.2193 49.2256 32.6745 48.9508 33.1067C48.6684 33.5489 48.3482 33.9657 47.9938 34.3525C47.8964 34.4586 47.8002 34.5669 47.6984 34.6686C47.5393 34.8237 47.3747 34.9733 47.2052 35.117C47.1133 35.1947 47.0181 35.2669 46.9241 35.3402C46.6428 35.5585 46.3484 35.7594 46.0425 35.9417C45.9047 36.0238 45.7691 36.1069 45.6269 36.1813C45.109 36.4521 44.5657 36.6712 44.0048 36.8353C43.59 36.9557 43.1666 37.0442 42.7383 37.1C42.35 37.1503 41.9606 37.1875 41.5625 37.1875C41.1644 37.1875 40.775 37.1503 40.39 37.0989C39.9619 37.0419 39.5386 36.9534 39.1234 36.8342C38.9767 36.7908 38.8312 36.7434 38.687 36.692C38.2792 36.5523 37.8828 36.3812 37.5014 36.1802C37.3592 36.1058 37.2225 36.0227 37.0858 35.9406C36.7803 35.7577 36.4859 35.5568 36.2042 35.3391C36.1091 35.2658 36.0139 35.1936 35.9231 35.1159C35.753 34.9728 35.5885 34.8232 35.4298 34.6675C35.327 34.5658 35.2319 34.4586 35.1345 34.3514C34.9264 34.126 34.7307 33.8894 34.5483 33.6427C34.418 33.4684 34.2943 33.2892 34.1775 33.1056C34.1031 32.9875 34.0287 32.8694 33.9598 32.7469C33.7752 32.4238 33.6115 32.0891 33.4698 31.745L33.46 31.7177H37.1875C37.5802 31.7177 37.9422 31.5077 38.1369 31.1664L41.4225 25.4177L43.8386 31.0548C43.9225 31.2519 44.0626 31.42 44.2413 31.538C44.42 31.6561 44.6295 31.7189 44.8438 31.7188H49.6683L49.6584 31.7461Z" fill="#796EF5"/>
</svg>
