<svg width="350" height="350" viewBox="0 0 350 350" fill="none" xmlns="http://www.w3.org/2000/svg">
<path d="M318.451 44.7952V246.06C318.451 248.633 316.364 250.719 313.792 250.719H7.575C5.00367 250.719 2.9165 248.632 2.9165 246.06V44.7952C2.9165 42.2227 5.00367 40.1367 7.575 40.1367H313.792C316.364 40.1367 318.451 42.2239 318.451 44.7952Z" fill="#F3F3F3"/>
<path d="M318.451 44.7952V58.4195H2.9165V44.7952C2.9165 42.2227 5.00367 40.1367 7.575 40.1367H313.792C316.364 40.1367 318.451 42.2239 318.451 44.7952Z" fill="#7764F0"/>
<path d="M309.82 49.0687C309.82 51.1022 308.172 52.7507 306.138 52.7507C304.105 52.7507 302.456 51.1022 302.456 49.0687C302.456 47.0352 304.105 45.3867 306.138 45.3867C308.172 45.3867 309.82 47.0352 309.82 49.0687ZM299.853 49.0687C299.853 51.1022 298.205 52.7507 296.171 52.7507C294.138 52.7507 292.489 51.1022 292.489 49.0687C292.489 47.0352 294.138 45.3867 296.171 45.3867C298.205 45.3867 299.853 47.0352 299.853 49.0687ZM289.886 49.0687C289.886 51.1022 288.238 52.7507 286.204 52.7507C284.171 52.7507 282.522 51.1022 282.522 49.0687C282.522 47.0352 284.171 45.3867 286.204 45.3867C288.238 45.3867 289.886 47.0352 289.886 49.0687Z" fill="#F3F3F3"/>
<path d="M165.198 197.04C182.527 197.04 196.575 182.992 196.575 165.663C196.575 148.333 182.527 134.285 165.198 134.285C147.868 134.285 133.82 148.333 133.82 165.663C133.82 182.992 147.868 197.04 165.198 197.04Z" fill="#3A374C"/>
<path d="M135.966 165.664C135.966 177.093 142.552 187.01 152.136 191.808C156.067 193.785 160.51 194.895 165.197 194.895C174.57 194.895 182.932 190.453 188.274 183.567C192.14 178.613 194.427 172.394 194.427 165.664C194.427 149.539 181.312 136.422 165.197 136.422C149.071 136.423 135.966 149.539 135.966 165.664Z" fill="#F3F3F3"/>
<path d="M134.024 165.646L130.458 168.79L128.869 167.505C128.869 167.505 122.123 164.877 125.986 160.111C127.491 158.255 130.521 159.281 130.558 161.67C130.558 161.704 130.559 161.738 130.559 161.772C130.559 161.854 130.675 161.874 130.702 161.796L131.345 159.918C131.454 159.598 131.797 159.423 132.12 159.522C132.417 159.613 132.602 159.907 132.556 160.214L132.242 162.283C132.172 162.746 132.285 163.217 132.558 163.597L134.024 165.646Z" fill="#A79BF7"/>
<path d="M155.766 158.73C155.766 158.73 150.522 161.982 155.03 167.579L168.009 171.62L177.724 175.04L182.49 174.403C182.49 174.403 191.869 171.31 185.34 165.014C185.34 165.014 185.107 159.031 178.812 158.731C178.812 158.731 177.182 156.009 172.995 156.915" fill="#333333"/>
<path d="M150.781 178.215C150.693 182.402 150.97 186.589 151.87 190.687C151.948 191.065 152.037 191.441 152.136 191.809C156.067 193.785 160.51 194.896 165.197 194.896C174.57 194.896 182.932 190.453 188.274 183.568C188.264 183.546 188.252 183.534 188.242 183.512L179.334 169.408C177.846 167.042 175.625 165.231 173.004 164.255L169.227 162.834L160.575 162.5C160.575 162.5 153.834 163.455 151.957 168.609C150.926 171.474 150.859 175.305 150.781 178.215ZM175.326 181.947C175.426 181.625 175.881 181.603 176.014 181.913C177.28 184.768 178.891 186.356 179.557 186.934C179.712 187.067 179.724 187.322 179.568 187.467L176.258 190.788C176.069 190.977 175.758 190.911 175.658 190.677C174.038 187.1 174.815 183.557 175.326 181.947Z" fill="#6C56FA"/>
<path d="M162.031 159.258C162.033 160.081 161.965 161.175 161.661 162.052C161.504 162.509 161.722 163.01 162.163 163.208C163.355 163.745 165.7 164.461 168.419 163.496C168.886 163.331 169.152 162.838 169.021 162.359C168.567 160.697 167.629 156.894 168.13 155.473C168.13 155.473 171.742 141.555 160.315 145.577C160.113 145.649 159.806 145.812 159.632 145.938L158.683 146.618C157.874 147.197 157.362 148.103 157.287 149.095C157.063 152.071 157.074 158.165 160.931 158.17C161.536 158.172 162.029 158.652 162.031 159.258Z" fill="#A79BF7"/>
<path d="M162.03 159.072L162.005 158.583C161.991 158.314 161.749 158.143 161.48 158.163C160.253 158.252 156.78 158.058 157.291 149.376C157.316 148.962 157.521 148.578 157.85 148.326L160.991 145.916C161.116 145.82 161.295 145.861 161.368 146C161.757 146.747 162.946 148.877 164.474 150.11C165.387 150.846 165.936 151.94 165.936 153.113V154.969C165.936 155.865 166.154 156.749 166.579 157.538C167.411 159.081 169.133 161.16 172.209 160.554C173.198 160.359 173.748 159.29 173.35 158.365C173.096 157.77 172.964 157.131 172.964 156.483V148.742C172.964 148.167 172.892 147.594 172.744 147.038C172.005 144.258 169.073 136.992 159.129 140.914C159.129 140.914 155.726 142.476 155.726 146.549V152.711C155.726 152.951 155.747 153.187 155.792 153.422C155.948 154.249 156.295 156.537 155.764 158.468C155.741 158.554 155.74 158.644 155.765 158.729" fill="#333333"/>
<path d="M160.581 162.504C160.581 162.504 155.729 161.547 142.517 173.049L133.28 163.973L129.109 168.549L139.831 180.451C141.079 181.837 142.996 182.413 144.803 181.946L150.769 180.402" fill="#6C56FA"/>
<path d="M89.7856 227.67L91.8495 239.705L83.8543 235.501L81.0426 234.023L70.2358 239.705L72.2996 227.67L63.5566 219.149L75.6386 217.393L81.0193 206.494C81.0345 206.462 81.0426 206.445 81.0426 206.445L86.4466 217.393L98.5286 219.149L89.7856 227.67Z" fill="#4A2EFF"/>
<path d="M89.7858 227.672L91.8496 239.706L83.8544 235.502C71.7258 227.24 80.5096 207.607 81.0194 206.494C81.0346 206.462 81.0428 206.445 81.0428 206.445L86.4468 217.393L98.5288 219.149L89.7858 227.672Z" fill="#3112F7"/>
<path d="M89.7869 227.671L91.8496 239.704L91.3468 239.44L89.3086 227.558L98.0131 219.074L98.5288 219.149L89.7869 227.671Z" fill="#2E11EA"/>
<path d="M86.4465 217.393L86.0219 217.278L80.8594 206.819L81.0425 206.445L86.4465 217.393Z" fill="#2E11EA"/>
<path d="M81.0427 234.025L70.2358 239.707L70.2942 239.367L80.6238 233.938L81.0427 234.025Z" fill="#3112F7"/>
<path d="M129.606 227.67L131.67 239.705L123.675 235.501L120.863 234.023L110.057 239.705L112.12 227.67L103.377 219.149L115.459 217.393L120.84 206.494C120.855 206.462 120.863 206.445 120.863 206.445L126.267 217.393L138.349 219.149L129.606 227.67Z" fill="#4A2EFF"/>
<path d="M129.606 227.672L131.67 239.706L123.675 235.502C111.546 227.24 120.33 207.607 120.84 206.494C120.855 206.462 120.863 206.445 120.863 206.445L126.267 217.393L138.349 219.149L129.606 227.672Z" fill="#3112F7"/>
<path d="M129.606 227.671L131.67 239.704L131.167 239.44L129.129 227.558L137.833 219.074L138.349 219.149L129.606 227.671Z" fill="#2E11EA"/>
<path d="M126.268 217.393L125.842 217.278L120.679 206.819L120.864 206.445L126.268 217.393Z" fill="#2E11EA"/>
<path d="M120.863 234.025L110.057 239.707L110.115 239.367L120.445 233.938L120.863 234.025Z" fill="#3112F7"/>
<path d="M169.427 227.67L171.491 239.705L163.495 235.501L160.684 234.023L149.877 239.705L151.941 227.67L143.198 219.149L155.28 217.393L160.66 206.494C160.676 206.462 160.684 206.445 160.684 206.445L166.088 217.393L178.17 219.149L169.427 227.67Z" fill="#4A2EFF"/>
<path d="M169.427 227.672L171.491 239.706L163.496 235.502C151.367 227.24 160.151 207.607 160.661 206.494C160.676 206.462 160.684 206.445 160.684 206.445L166.088 217.393L178.17 219.149L169.427 227.672Z" fill="#3112F7"/>
<path d="M169.427 227.671L171.49 239.704L170.986 239.44L168.948 227.558L177.654 219.074L178.168 219.149L169.427 227.671Z" fill="#2E11EA"/>
<path d="M166.087 217.393L165.662 217.278L160.5 206.819L160.684 206.445L166.087 217.393Z" fill="#2E11EA"/>
<path d="M160.684 234.025L149.877 239.707L149.935 239.367L160.265 233.938L160.684 234.025Z" fill="#3112F7"/>
<path d="M209.248 227.67L211.311 239.705L203.316 235.501L200.505 234.023L189.698 239.705L191.762 227.67L183.019 219.149L195.101 217.393L200.481 206.494C200.496 206.462 200.505 206.445 200.505 206.445L205.909 217.393L217.991 219.149L209.248 227.67Z" fill="#4A2EFF"/>
<path d="M209.248 227.672L211.312 239.706L203.316 235.502C191.188 227.24 199.972 207.607 200.481 206.494C200.497 206.462 200.505 206.445 200.505 206.445L205.909 217.393L217.991 219.149L209.248 227.672Z" fill="#3112F7"/>
<path d="M209.247 227.671L211.311 239.704L210.807 239.44L208.769 227.558L217.474 219.074L217.989 219.149L209.247 227.671Z" fill="#2E11EA"/>
<path d="M205.907 217.393L205.483 217.278L200.32 206.819L200.505 206.445L205.907 217.393Z" fill="#2E11EA"/>
<path d="M200.505 234.025L189.698 239.707L189.756 239.367L200.086 233.938L200.505 234.025Z" fill="#3112F7"/>
<path d="M249.068 227.67L251.132 239.705L243.138 235.501L240.326 234.023L229.519 239.705L231.583 227.67L222.84 219.149L234.922 217.393L240.303 206.494C240.318 206.462 240.326 206.445 240.326 206.445L245.73 217.393L257.812 219.149L249.068 227.67Z" fill="#4A2EFF"/>
<path d="M249.068 227.672L251.132 239.706L243.138 235.502C231.009 227.24 239.793 207.607 240.303 206.494C240.318 206.462 240.326 206.445 240.326 206.445L245.73 217.393L257.812 219.149L249.068 227.672Z" fill="#3112F7"/>
<path d="M249.068 227.671L251.132 239.704L250.628 239.44L248.59 227.558L257.294 219.074L257.81 219.149L249.068 227.671Z" fill="#2E11EA"/>
<path d="M245.728 217.393L245.303 217.278L240.141 206.819L240.325 206.445L245.728 217.393Z" fill="#2E11EA"/>
<path d="M240.324 234.025L229.519 239.707L229.577 239.367L239.905 233.938L240.324 234.025Z" fill="#3112F7"/>
<path d="M285.935 76.8047H103.757V80.1903H285.935V76.8047Z" fill="#E2E1E8"/>
<path d="M285.935 90.3516H103.757V93.7372H285.935V90.3516Z" fill="#E2E1E8"/>
<path d="M285.935 103.895H103.757V107.28H285.935V103.895Z" fill="#E2E1E8"/>
<path d="M194.846 117.441H103.757V120.827H194.846V117.441Z" fill="#E2E1E8"/>
<path d="M59.9815 109.22C71.3694 109.22 80.6011 99.9881 80.6011 88.6001C80.6011 77.2122 71.3694 67.9805 59.9815 67.9805C48.5936 67.9805 39.3618 77.2122 39.3618 88.6001C39.3618 99.9881 48.5936 109.22 59.9815 109.22Z" fill="#C5C2D6"/>
<path d="M57.9946 105.361C57.9946 105.361 63.2575 121.069 71.5163 129.651L74.3921 124.226L81.3653 123.416C75.1878 116.007 69.7663 108.621 66.7983 101.312L57.9946 105.361Z" fill="#5138F2"/>
<path d="M58.8033 105.361C58.8033 105.361 53.5405 121.069 45.2816 129.651L42.4058 124.226L35.4326 123.416C41.6101 116.007 47.0316 108.621 49.9996 101.312L58.8033 105.361Z" fill="#5138F2"/>
<path d="M58.3985 109.22C69.7864 109.22 79.0181 99.9881 79.0181 88.6001C79.0181 77.2122 69.7864 67.9805 58.3985 67.9805C47.0105 67.9805 37.7788 77.2122 37.7788 88.6001C37.7788 99.9881 47.0105 109.22 58.3985 109.22Z" fill="#4A2EFF"/>
<path d="M58.4032 103.657C66.7189 103.657 73.4602 96.9157 73.4602 88.6C73.4602 80.2842 66.7189 73.543 58.4032 73.543C50.0874 73.543 43.3462 80.2842 43.3462 88.6C43.3462 96.9157 50.0874 103.657 58.4032 103.657Z" fill="#3112F7"/>
<path d="M73.4545 88.6003C73.4545 96.9128 66.7146 103.654 58.3986 103.654C54.033 103.654 50.1013 101.794 47.3491 98.8261C50.0325 101.313 53.6281 102.832 57.5785 102.832C65.8945 102.832 72.6343 96.0926 72.6343 87.7766C72.6343 83.8298 71.1141 80.2341 68.628 77.5508C71.5948 80.2994 73.4545 84.2346 73.4545 88.6003Z" fill="#7A67F4"/>
<path d="M69.001 77.9744C66.3643 75.7064 62.9343 74.3355 59.187 74.3355C50.871 74.3355 44.1311 81.0754 44.1311 89.389C44.1311 93.1399 45.5043 96.5722 47.7758 99.2089C47.6288 99.084 47.4888 98.9557 47.3476 98.8285C44.8603 96.1452 43.3413 92.5495 43.3413 88.6027C43.3413 80.2867 50.0846 73.5469 58.3971 73.5469C62.344 73.5469 65.9396 75.067 68.6265 77.5532C68.7548 77.6897 68.8796 77.8309 69.001 77.9744Z" fill="#2E11EA"/>
<path d="M63.6999 90.7707L64.9517 98.0682L60.1042 95.5202L58.3986 94.6242L51.8454 98.0693L53.0972 90.7718L47.7959 85.6047L55.1214 84.5395L58.3846 77.9315C58.3939 77.9117 58.3986 77.9023 58.3986 77.9023L61.6757 84.5407L69.0012 85.6058L63.6999 90.7707Z" fill="#4A2EFF"/>
<path d="M63.7 90.7713L64.9518 98.0676L64.6461 97.9066L63.4106 90.7024L68.6886 85.5586L69.0013 85.6029L63.7 90.7713Z" fill="#2E11EA"/>
<path d="M61.6756 84.5407L61.4178 84.4707L58.2876 78.1287L58.3984 77.9023L61.6756 84.5407Z" fill="#2E11EA"/>
<path d="M58.3987 94.624L51.8467 98.0692L51.8817 97.8626L58.1455 94.5703L58.3987 94.624Z" fill="#3112F7"/>
<path d="M334.474 291.438L335.944 302.544L343.929 301.564L342.656 290.879L334.474 291.438Z" fill="#A79BF7"/>
<path d="M344.42 309.861L325.763 309.855C324.818 309.855 324.052 309.089 324.052 308.144V307.345C324.052 307.101 324.303 306.576 324.493 306.423L334.283 298.844C334.625 298.569 335.067 298.689 335.418 298.952C337.579 300.564 340.592 300.607 343.65 300.453C344.019 300.434 344.365 300.633 344.527 300.964C345.91 303.783 345.666 306.391 345.563 308.76C345.536 309.373 345.035 309.861 344.42 309.861Z" fill="#333333"/>
<path d="M303.663 291.129L303.519 302.309L311.778 301.876L312.094 291.129H303.663Z" fill="#A79BF7"/>
<path d="M312.692 309.861L294.035 309.855C293.09 309.855 292.325 309.089 292.325 308.144V307.345C292.325 307.101 292.576 306.576 292.765 306.423L302.554 298.844C302.895 298.569 303.338 298.689 303.689 298.952C305.85 300.564 308.863 300.607 311.921 300.453C312.29 300.434 312.636 300.633 312.799 300.964C314.18 303.783 313.937 306.391 313.835 308.76C313.809 309.373 313.308 309.861 312.692 309.861Z" fill="#333333"/>
<path d="M302.659 195.877L301.61 293.913H313.218L320.696 221.911L333.861 293.913H344.123L339.185 200.338L318.602 190.621L302.659 195.877Z" fill="#333333"/>
<path d="M320.577 138.139C320.494 138.233 320.411 138.329 320.315 138.412L320.363 138.02C320.434 138.056 320.506 138.091 320.577 138.139Z" fill="#1C0995"/>
<path d="M320.696 138.209C320.66 138.173 320.625 138.149 320.577 138.138C320.6 138.114 320.625 138.09 320.648 138.066L320.696 138.209Z" fill="#EDECF1"/>
<path d="M342.389 204.625L339.397 184.049C351.259 181.865 348.27 161.165 338.058 146.422C335.614 142.893 331.853 140.494 327.641 139.665L320.318 138.223L312.606 138.787C305.05 139.34 298.402 144.169 295.768 151.274C293.856 156.43 293.16 163.626 295.627 173.575C295.627 173.575 298.994 180.121 296.375 204.625L304.574 206.61C310.834 208.126 317.39 207.898 323.53 205.951C327.467 204.703 331.594 204.156 335.72 204.335L342.389 204.625Z" fill="#7764F0"/>
<path d="M312.052 134.708C312.276 134.651 312.481 134.852 312.428 135.077L311.478 139.168C311.426 139.381 311.38 139.545 311.497 139.679C311.819 140.026 312.156 140.294 312.515 140.496C314.066 141.375 315.903 141 317.44 140.329C319.02 139.648 320.272 138.656 320.556 138.381C320.607 138.334 320.628 138.268 320.626 138.2L320.027 131.897C320.019 131.797 320.061 131.702 320.138 131.638C323.735 128.495 322.748 122.862 322.748 122.862C319.86 110.635 310.996 113.645 306.843 115.84C305.456 116.574 304.529 117.962 304.376 119.522C302.749 136.087 310.059 135.241 312.052 134.708Z" fill="#A79BF7"/>
<path d="M317.029 123.848L316.847 127.683C316.826 128.127 316.359 128.406 315.958 128.216C315.754 128.119 315.618 127.919 315.604 127.693L315.425 124.857C315.385 124.231 315.009 123.68 314.447 123.4C313.376 122.866 311.756 121.703 311.876 119.594C311.901 119.141 311.535 118.759 311.08 118.773C309.5 118.821 306.342 118.749 304.964 117.511C304.711 117.283 304.438 117.078 304.148 116.899C303.336 116.4 301.898 115.209 302.541 113.308C302.647 112.993 302.951 112.787 303.282 112.802L306.079 112.935C306.273 112.944 306.443 112.806 306.474 112.613L306.854 110.228C306.895 109.971 307.176 109.829 307.407 109.95L310.466 111.543C311.131 111.89 311.933 111.831 312.543 111.396C313.811 110.492 316.404 109.281 320.097 110.69C323.381 111.943 325.245 115.337 326.198 117.8C326.824 119.415 326.694 121.224 325.859 122.742L323.905 126.297C323.833 126.429 323.771 126.565 323.719 126.706C323.325 127.769 322.058 132.599 320.103 131.781C320.049 131.759 320.017 131.703 320.02 131.645L319.485 129.237C319.512 128.672 319.701 128.129 320.034 127.671C320.93 126.442 322.503 123.796 320.266 122.845C319.521 122.527 318.667 122.534 317.926 122.862C317.475 123.063 317.052 123.376 317.029 123.848Z" fill="#333333"/>
<path d="M304.79 167.248L325.574 157.224C325.97 157.033 326.449 157.197 326.642 157.598C326.835 157.998 326.666 158.475 326.269 158.665L305.485 168.689L303.679 169.059L302.275 169.348L303.376 168.431L304.79 167.248Z" fill="#6C56FA"/>
<path d="M304.79 167.248L325.574 157.224C325.97 157.033 326.449 157.197 326.642 157.598C326.669 157.652 326.687 157.707 326.7 157.761C326.471 157.472 326.066 157.374 325.725 157.538L304.941 167.562L303.527 168.745L302.978 169.201L302.275 169.348L303.376 168.431L304.79 167.248Z" fill="#5138F2"/>
<path d="M324.564 157.712L325.575 157.224C325.971 157.033 326.45 157.197 326.643 157.598C326.836 157.998 326.667 158.475 326.27 158.666L325.26 159.154L324.564 157.712Z" fill="#EDECF1"/>
<path d="M304.79 167.25L305.485 168.692L303.678 169.061L302.275 169.351L303.376 168.434L304.79 167.25Z" fill="#A094EA"/>
<path d="M303.376 168.434L303.678 169.06L302.275 169.351L303.376 168.434Z" fill="#3A374C"/>
<path d="M326.106 168.311C324.666 167.614 323.233 166.886 321.982 166.166C320.205 165.149 318.805 164.155 318.21 163.31C315.768 159.828 313.851 161.424 313.851 161.424C311.933 160.007 311.143 161.62 311.143 161.62C311.143 161.62 310.329 160.86 309.547 160.814C309.532 160.805 309.532 160.805 309.524 160.805C308.718 160.782 308.577 161.432 308.577 161.432C308.577 161.432 308.538 161.432 308.623 161.51C308.318 161.276 306.652 160.07 305.767 160.884C305.704 160.945 305.658 160.993 305.634 161.055C305.619 161.071 305.611 161.087 305.595 161.102C305.485 161.329 305.579 161.532 305.806 161.727C305.821 161.75 305.844 161.767 305.861 161.782C306.439 162.244 307.653 162.721 308.529 163.418C309.107 163.871 310.133 164.716 311.087 165.617C312.409 166.892 313.622 168.293 313.31 168.911C313.13 169.279 312.738 169.31 312.246 169.224C311.283 169.021 309.945 168.348 309.17 168.731C307.997 169.286 308.193 169.545 309.898 170.202C310.822 170.554 311.745 171.078 312.982 171.5C314.054 171.861 315.329 172.127 316.996 172.134C317.357 172.134 317.716 172.149 318.053 172.165C319.799 172.236 321.23 172.494 322.686 173.151C323.187 173.37 323.218 173.353 323.735 173.69L327.202 168.775C326.684 168.536 326.63 168.568 326.106 168.311Z" fill="#A79BF7"/>
<path d="M288.275 154.629H309.733L317.678 181.41L296.957 181.901L288.275 154.629Z" fill="#EDECF1"/>
<path d="M302.649 156.47H295.114L294.759 155.266C294.507 154.415 295.145 153.562 296.031 153.562H300.742C301.318 153.562 301.827 153.933 302.005 154.481L302.649 156.47Z" fill="#333333"/>
<path d="M294.235 163.839C293.853 163.634 293.383 163.726 293.109 164.061C291.604 165.903 287.188 171.791 289.058 175.394C289.058 175.394 289.825 178.293 292.66 178.312C294.2 178.322 295.609 177.435 296.411 176.121L298.987 171.898C299.327 171.34 299.171 170.612 298.632 170.241C298.016 169.818 297.169 170.038 296.834 170.706L295.829 172.717L297.324 169.639C297.539 169.195 297.446 168.664 297.092 168.321C296.544 167.791 295.64 167.939 295.288 168.615L294.102 170.901L295.913 167.348C296.175 166.834 296.001 166.204 295.512 165.896C294.952 165.544 294.21 165.754 293.918 166.346L292.227 169.769L294.615 165.04C294.833 164.604 294.665 164.071 294.235 163.839Z" fill="#A79BF7"/>
<path d="M339.397 184.051L322.867 175.988L339.616 185.563L339.397 184.051Z" fill="#2F19BC"/>
<path d="M328.618 167.732L327.679 169.062L324.211 173.976L322.795 175.988L321.387 174.994L322.685 173.155L326.106 168.311L327.217 166.738L328.618 167.732Z" fill="#2F19BC"/>
<path d="M328.618 167.73L336.21 172.654L328.162 168.376" fill="#2F19BC"/>
<path d="M336.21 172.657C336.21 172.657 334.627 164.181 331.241 157.145C331.241 157.145 335.172 163.103 336.21 172.657Z" fill="#2F19BC"/>
</svg>
