<svg width="509" height="339" viewBox="0 0 509 339" fill="none" xmlns="http://www.w3.org/2000/svg">
<path opacity="0.3" d="M237.662 31.051C202.328 50.1413 195.859 104.566 91.23 97.1386C70.848 95.6918 12.2036 84.907 56.623 171.111C101.042 257.315 84.08 264.226 68.9938 278.907C53.9074 293.589 43.8007 349.406 130.238 323.539C216.675 297.673 312.764 301.852 336.407 315.425C360.05 328.999 475.013 348.016 476.92 264.076C478.49 194.972 455.327 198.056 435.434 187.584C420.412 179.676 417.852 162.746 439.279 119.839C460.704 76.9327 374.351 -42.7986 237.662 31.051Z" fill="#E1DEF3"/>
<path opacity="0.5" d="M168.378 87.768L156.405 85.0977L155.715 88.1871L167.688 90.8575L168.378 87.768Z" fill="#7764F0"/>
<path opacity="0.5" d="M448.252 85.449L438.414 92.7695L440.306 95.3083L450.145 87.9877L448.252 85.449Z" fill="#664EFE"/>
<path opacity="0.5" d="M161.632 303.01L149.659 300.34L148.968 303.429L160.941 306.1L161.632 303.01Z" fill="#664EFE"/>
<path opacity="0.5" d="M264.951 254.423C373.86 254.423 462.149 251.22 462.149 247.27C462.149 243.32 373.86 240.117 264.951 240.117C156.043 240.117 67.7544 243.32 67.7544 247.27C67.7544 251.22 156.043 254.423 264.951 254.423Z" fill="#E6E6E8"/>
<path d="M313.365 211.991H288.193C285.8 211.991 283.843 210.036 283.843 207.645V182.498C283.843 180.108 285.8 178.152 288.193 178.152H313.365C315.757 178.152 317.715 180.108 317.715 182.498V207.645C317.715 210.036 315.757 211.991 313.365 211.991Z" fill="#664EFE"/>
<path d="M441.132 232.62H83.526C77.6984 232.62 72.9575 227.884 72.9575 222.062C72.9575 216.24 77.6984 211.504 83.526 211.504H441.132C446.96 211.504 451.701 216.24 451.701 222.062C451.701 227.884 446.96 232.62 441.132 232.62ZM83.526 214.436C79.3168 214.436 75.8928 217.857 75.8928 222.062C75.8928 226.267 79.317 229.688 83.526 229.688H441.132C445.341 229.688 448.766 226.267 448.766 222.062C448.766 217.857 445.341 214.436 441.132 214.436H83.526Z" fill="#D9D6EC"/>
<path d="M86.5715 227.455C89.555 225.905 90.7156 222.232 89.1636 219.251C87.6117 216.27 83.935 215.111 80.9515 216.661C77.9679 218.212 76.8074 221.885 78.3593 224.866C79.9113 227.846 83.588 229.006 86.5715 227.455Z" fill="#D9D6EC"/>
<path d="M113.567 223.258C114.231 219.965 112.097 216.757 108.8 216.094C105.503 215.431 102.292 217.563 101.628 220.857C100.964 224.15 103.099 227.358 106.396 228.021C109.693 228.684 112.903 226.552 113.567 223.258Z" fill="#D9D6EC"/>
<path d="M133.822 227.662C136.92 226.354 138.369 222.785 137.06 219.691C135.751 216.596 132.178 215.148 129.081 216.456C125.983 217.764 124.533 221.333 125.842 224.428C127.152 227.522 130.724 228.97 133.822 227.662Z" fill="#D9D6EC"/>
<path d="M159.604 226.364C161.982 223.988 161.982 220.136 159.604 217.761C157.226 215.385 153.37 215.385 150.992 217.761C148.614 220.137 148.614 223.988 150.992 226.364C153.37 228.74 157.226 228.74 159.604 226.364Z" fill="#D9D6EC"/>
<path d="M185.076 223.435C185.839 220.163 183.803 216.892 180.528 216.13C177.253 215.367 173.979 217.401 173.215 220.673C172.452 223.945 174.488 227.216 177.763 227.979C181.039 228.741 184.313 226.707 185.076 223.435Z" fill="#D9D6EC"/>
<path d="M207.299 226.364C209.677 223.988 209.677 220.136 207.299 217.761C204.921 215.385 201.066 215.385 198.688 217.761C196.31 220.137 196.31 223.988 198.688 226.364C201.066 228.74 204.921 228.74 207.299 226.364Z" fill="#D9D6EC"/>
<path d="M232.778 223.489C233.551 220.219 231.524 216.942 228.251 216.17C224.978 215.398 221.699 217.423 220.926 220.693C220.153 223.963 222.18 227.239 225.453 228.011C228.726 228.783 232.006 226.759 232.778 223.489Z" fill="#D9D6EC"/>
<path d="M253.025 227.678C256.132 226.392 257.607 222.834 256.32 219.73C255.033 216.626 251.471 215.152 248.364 216.438C245.257 217.723 243.782 221.282 245.069 224.386C246.356 227.49 249.918 228.964 253.025 227.678Z" fill="#D9D6EC"/>
<path d="M280.478 223.493C281.25 220.223 279.224 216.946 275.951 216.174C272.678 215.402 269.398 217.427 268.625 220.697C267.852 223.966 269.879 227.243 273.152 228.015C276.425 228.787 279.705 226.763 280.478 223.493Z" fill="#D9D6EC"/>
<path d="M300.719 227.678C303.826 226.392 305.302 222.834 304.015 219.73C302.728 216.626 299.166 215.152 296.059 216.438C292.952 217.723 291.476 221.282 292.763 224.386C294.05 227.49 297.612 228.964 300.719 227.678Z" fill="#D9D6EC"/>
<path d="M326.537 226.364C328.915 223.988 328.915 220.136 326.537 217.761C324.159 215.385 320.303 215.385 317.925 217.761C315.547 220.137 315.547 223.988 317.925 226.364C320.304 228.74 324.159 228.74 326.537 226.364Z" fill="#D9D6EC"/>
<path d="M352.027 223.497C352.8 220.227 350.773 216.95 347.5 216.178C344.227 215.406 340.947 217.431 340.174 220.701C339.401 223.97 341.428 227.247 344.701 228.019C347.974 228.791 351.254 226.766 352.027 223.497Z" fill="#D9D6EC"/>
<path d="M374.232 226.364C376.61 223.988 376.61 220.136 374.232 217.761C371.854 215.385 367.998 215.385 365.62 217.761C363.242 220.137 363.242 223.988 365.62 226.364C367.998 228.74 371.854 228.74 374.232 226.364Z" fill="#D9D6EC"/>
<path d="M399.727 223.501C400.499 220.231 398.473 216.954 395.2 216.182C391.927 215.41 388.647 217.435 387.874 220.705C387.101 223.974 389.128 227.251 392.401 228.023C395.674 228.795 398.954 226.77 399.727 223.501Z" fill="#D9D6EC"/>
<path d="M419.958 227.674C423.065 226.389 424.54 222.83 423.253 219.726C421.966 216.622 418.404 215.148 415.297 216.434C412.19 217.719 410.715 221.278 412.002 224.382C413.289 227.486 416.851 228.96 419.958 227.674Z" fill="#D9D6EC"/>
<path d="M445.775 226.364C448.153 223.988 448.153 220.136 445.775 217.761C443.397 215.385 439.541 215.385 437.163 217.761C434.785 220.137 434.785 223.988 437.163 226.364C439.541 228.74 443.397 228.74 445.775 226.364Z" fill="#D9D6EC"/>
<path d="M289.561 147.992H236.909V249.944H289.561V147.992Z" fill="#D9D6EC"/>
<path d="M278.5 147.992H244.524V249.944H278.5V147.992Z" fill="#A59FCC"/>
<path d="M139.725 211.989H114.553C112.161 211.989 110.203 210.033 110.203 207.643V182.496C110.203 180.106 112.161 178.15 114.553 178.15H139.725C142.117 178.15 144.075 180.106 144.075 182.496V207.643C144.075 210.033 142.117 211.989 139.725 211.989ZM102.958 158.974L99.5277 177.842C98.8086 181.808 94.9711 184.465 90.9976 183.747L86.2537 182.886L80.2258 181.793L72.1103 180.32C68.1405 179.602 65.4806 175.768 66.2035 171.798L69.6303 152.93C70.3494 148.964 74.1906 146.306 78.1604 147.029L97.0478 150.452C101.021 151.17 103.677 155.008 102.958 158.974ZM181.059 211.989H155.888C153.495 211.989 151.537 210.033 151.537 207.643V182.496C151.537 180.106 153.495 178.15 155.888 178.15H181.059C183.452 178.15 185.409 180.106 185.409 182.496V207.643C185.409 210.033 183.452 211.989 181.059 211.989ZM226.429 211.989H201.257C198.865 211.989 196.907 210.033 196.907 207.643V182.496C196.907 180.106 198.865 178.15 201.257 178.15H226.429C228.822 178.15 230.779 180.106 230.779 182.496V207.643C230.779 210.033 228.822 211.989 226.429 211.989Z" fill="#4D40A0"/>
<path d="M364.758 211.989H339.586C337.194 211.989 335.236 210.034 335.236 207.643V182.497C335.236 180.106 337.194 178.15 339.586 178.15H364.758C367.15 178.15 369.108 180.106 369.108 182.497V207.643C369.108 210.034 367.15 211.989 364.758 211.989ZM410.058 211.989H384.887C382.494 211.989 380.536 210.034 380.536 207.643V182.497C380.536 180.106 382.494 178.15 384.887 178.15H410.058C412.451 178.15 414.409 180.106 414.409 182.497V207.643C414.409 210.034 412.451 211.989 410.058 211.989ZM452.499 214.603L428.132 208.294C425.816 207.694 424.412 205.31 425.013 202.996L431.328 178.654C431.928 176.34 434.315 174.937 436.631 175.537L460.997 181.846C463.313 182.446 464.717 184.83 464.117 187.144L457.801 211.486C457.201 213.8 454.815 215.202 452.499 214.603Z" fill="#664EFE"/>
<path d="M96.4738 158.678C96.2034 159.864 95.9302 161.051 95.6631 162.241C95.6096 162.478 95.5234 162.535 95.2918 162.481C94.4721 162.28 93.6406 162.096 92.8148 161.915C92.6189 161.876 92.4198 161.852 92.2238 161.855C91.3803 161.855 90.8517 162.193 90.5816 163.099C90.2579 164.214 90.0469 165.362 89.7796 166.537L90.0497 166.6C91.297 166.885 92.5445 167.17 93.7948 167.463C93.8809 167.484 93.9729 167.511 94.0649 167.531C94.2461 167.567 94.2609 167.668 94.2046 167.813C93.9699 168.445 93.7354 169.077 93.5068 169.709C93.2394 170.409 92.9662 171.116 92.7198 171.819C92.6484 172.036 92.5564 172.083 92.3426 172.027C91.2052 171.76 90.0647 171.504 88.9243 171.243C88.8618 171.228 88.7935 171.222 88.6867 171.205L86.6285 180.177L81.7489 179.293L83.8575 170.098C83.7446 170.065 83.6468 170.036 83.5517 170.015C82.4291 169.757 81.3064 169.493 80.1866 169.244C79.955 169.199 79.8867 169.107 79.9461 168.879C80.2639 167.52 80.5758 166.161 80.8727 164.805C80.9262 164.576 81.0271 164.532 81.2379 164.588C82.3695 164.846 83.4982 165.09 84.6267 165.371C84.8821 165.431 84.9504 165.371 85.0039 165.134C85.2414 164.036 85.4909 162.941 85.7493 161.847C85.981 160.915 86.3523 160.043 86.9372 159.271C88.0955 157.767 89.6547 157.123 91.5347 157.17C92.4198 157.197 93.2632 157.399 94.1067 157.63C94.8165 157.823 95.5206 158.043 96.2273 158.244C96.5451 158.34 96.551 158.348 96.4738 158.678ZM138.711 193.255C138.19 193.737 137.582 194.088 136.953 194.405C136.844 194.46 136.735 194.531 136.618 194.555C136.276 194.626 136.158 194.848 136.072 195.169C135.627 196.826 134.813 198.295 133.722 199.616C132.723 200.824 131.539 201.81 130.155 202.548C128.124 203.631 125.958 204.047 123.664 203.817C122.909 203.742 122.158 203.621 121.436 203.41C120.601 203.166 119.791 202.834 119.023 202.411C117.922 201.803 116.93 201.054 116.07 200.135C116.015 200.076 115.963 200.016 115.917 199.927C118.003 200.686 120.076 200.702 122.203 199.88C121.32 199.596 120.635 199.115 120.108 198.421C119.583 197.729 119.292 196.95 119.26 196.044C119.819 196.308 120.381 196.465 121.042 196.478C120.75 196.299 120.51 196.15 120.297 195.962C119.165 194.96 118.695 193.705 118.864 192.208C118.88 192.067 118.917 191.927 118.941 191.786C118.966 191.643 119.017 191.61 119.134 191.723C119.507 192.083 119.95 192.335 120.424 192.537C120.477 192.559 120.53 192.594 120.611 192.57C120.466 192.358 120.313 192.159 120.195 191.939C119.622 190.874 119.518 189.762 119.885 188.615C120.073 188.025 120.395 187.503 120.824 187.05C120.934 186.933 120.967 186.962 121.026 187.091C122.211 189.673 124.067 191.606 126.62 192.864C127.011 193.057 127.411 193.231 127.824 193.373C127.954 193.417 128.01 193.418 128.025 193.25C128.107 192.37 128.431 191.583 129.021 190.923C130.021 189.805 131.277 189.33 132.768 189.529C134.135 189.712 135.122 190.465 135.818 191.628C135.868 191.713 135.928 191.728 136.016 191.735C136.847 191.802 137.665 191.71 138.475 191.53C138.527 191.518 138.58 191.511 138.675 191.494C138.102 192.337 137.344 192.867 136.42 193.187C136.899 193.279 137.378 193.296 137.858 193.291C138.143 193.288 138.425 193.217 138.711 193.255L138.711 193.255ZM175.425 188.707C174.122 188.7 172.82 188.7 171.518 188.697C168.181 188.69 164.845 188.679 161.508 188.677C160.222 188.676 159.395 189.507 159.392 190.781C159.386 193.31 159.379 195.839 159.375 198.368C159.373 199.681 160.188 200.493 161.509 200.497C164.348 200.504 167.187 200.516 170.026 200.509C170.374 200.508 170.632 200.615 170.888 200.838C171.903 201.719 172.931 202.585 174.026 203.517C174.04 203.325 174.055 203.214 174.056 203.103C174.059 202.489 174.059 201.875 174.061 201.261C174.064 200.59 174.127 200.526 174.777 200.527C174.997 200.527 175.216 200.529 175.436 200.528C176.717 200.527 177.547 199.702 177.551 198.42C177.559 195.906 177.564 193.391 177.569 190.877C177.571 189.538 176.757 188.714 175.425 188.707ZM174.653 197.568C172.591 197.565 170.529 197.56 168.468 197.555C166.421 197.551 164.374 197.546 162.327 197.541C162.195 197.54 162.043 197.572 161.938 197.518C161.815 197.454 161.653 197.312 161.654 197.205C161.655 197.07 161.775 196.888 161.896 196.815C162.019 196.742 162.208 196.767 162.367 196.767C166.432 196.775 170.497 196.784 174.562 196.793C174.591 196.793 174.62 196.792 174.649 196.794C174.937 196.808 175.292 196.753 175.294 197.187C175.297 197.631 174.939 197.568 174.653 197.568ZM174.741 195.005C172.635 194.995 170.53 194.993 168.424 194.988C166.333 194.983 164.242 194.976 162.15 194.976C161.861 194.976 161.639 194.892 161.642 194.577C161.645 194.262 161.872 194.168 162.159 194.185C162.246 194.191 162.334 194.187 162.422 194.187C165.537 194.194 168.651 194.201 171.766 194.208C172.76 194.21 173.755 194.217 174.749 194.212C175.045 194.21 175.303 194.268 175.301 194.614C175.299 194.965 175.033 195.006 174.741 195.005ZM175.056 192.388C174.906 192.433 174.739 192.433 174.58 192.432C170.513 192.426 166.445 192.416 162.378 192.407C162.319 192.406 162.261 192.407 162.202 192.406C161.924 192.401 161.649 192.371 161.646 192.005C161.644 191.629 161.917 191.619 162.199 191.62C164.292 191.627 166.384 191.63 168.476 191.635C170.554 191.64 172.631 191.642 174.709 191.653C174.875 191.654 175.075 191.67 175.201 191.76C175.421 191.918 175.324 192.306 175.056 192.388ZM204.324 189.824C205.1 190.361 205.869 190.908 206.647 191.442C208.415 192.657 210.187 193.864 211.955 195.078C212.471 195.432 213.005 195.728 213.649 195.76C214.21 195.788 214.746 195.716 215.225 195.396C215.544 195.183 215.866 194.972 216.178 194.749C218.538 193.058 220.895 191.363 223.255 189.673C223.34 189.612 223.357 189.554 223.334 189.46C223.17 188.807 222.611 188.379 221.929 188.385C220.888 188.395 219.848 188.402 218.807 188.412C217.124 188.427 215.441 188.443 213.758 188.459C213.758 188.451 213.758 188.444 213.757 188.436C213.253 188.446 212.748 188.461 212.243 188.467C211.295 188.48 210.347 188.489 209.399 188.497C208.125 188.508 206.85 188.511 205.576 188.528C204.934 188.536 204.381 189.013 204.253 189.637C204.237 189.719 204.248 189.771 204.324 189.824Z" fill="white"/>
<path d="M223.382 200.334C221.06 198.731 218.74 197.126 216.421 195.52C216.357 195.476 216.316 195.476 216.252 195.52C215.965 195.714 215.686 195.927 215.38 196.086C214.455 196.565 213.492 196.56 212.542 196.182C212.161 196.031 211.82 195.777 211.466 195.562C211.383 195.511 211.332 195.51 211.253 195.567C208.974 197.207 206.694 198.845 204.413 200.481C204.347 200.529 204.326 200.577 204.346 200.653C204.485 201.201 204.821 201.571 205.373 201.706C205.592 201.76 205.829 201.751 206.058 201.75C207.112 201.746 208.167 201.735 209.221 201.726C210.788 201.711 212.354 201.697 213.921 201.682C213.921 201.681 213.921 201.681 213.921 201.68C213.966 201.681 214.01 201.684 214.055 201.684C215.683 201.67 217.311 201.656 218.939 201.643C219.984 201.634 221.028 201.623 222.072 201.616C222.742 201.611 223.329 201.119 223.437 200.468C223.448 200.405 223.436 200.371 223.382 200.334ZM216.953 195.049C219.114 196.545 221.277 198.042 223.452 199.548C223.426 196.5 223.4 193.47 223.374 190.43C221.223 191.977 219.086 193.514 216.953 195.049ZM204.234 190.594C204.26 193.64 204.286 196.67 204.313 199.711C206.462 198.165 208.598 196.629 210.733 195.092C208.569 193.595 206.406 192.097 204.234 190.594Z" fill="white"/>
<path d="M360.473 197.474C361.231 192.812 358.061 188.419 353.394 187.662C348.727 186.905 344.33 190.072 343.573 194.734C342.815 199.396 345.984 203.789 350.651 204.546C355.318 205.303 359.716 202.137 360.473 197.474Z" fill="#9281FF"/>
<path d="M309.236 197.474C309.994 192.812 306.824 188.419 302.158 187.662C297.491 186.905 293.093 190.072 292.336 194.734C291.578 199.396 294.748 203.789 299.415 204.546C304.081 205.303 308.479 202.137 309.236 197.474Z" fill="#9281FF"/>
<path d="M405.932 197.474C406.69 192.812 403.52 188.419 398.853 187.662C394.186 186.905 389.789 190.072 389.032 194.734C388.274 199.396 391.443 203.789 396.11 204.546C400.777 205.303 405.175 202.137 405.932 197.474Z" fill="#9281FF"/>
<path d="M452.655 198.107C453.742 193.51 450.892 188.904 446.291 187.819C441.689 186.733 437.078 189.58 435.992 194.177C434.905 198.773 437.755 203.38 442.356 204.465C446.957 205.551 451.569 202.704 452.655 198.107Z" fill="#9281FF"/>
<path d="M300.779 189.77L302.203 194.148H306.811L303.083 196.854L304.507 201.232L300.779 198.526L297.051 201.232L298.475 196.854L294.747 194.148H299.355L300.779 189.77Z" fill="#664EFE"/>
<path d="M352.172 189.77L353.596 194.148H358.204L354.476 196.854L355.9 201.232L352.172 198.526L348.444 201.232L349.868 196.854L346.14 194.148H350.748L352.172 189.77Z" fill="#664EFE"/>
<path d="M398.033 189.77L399.457 194.148H404.065L400.337 196.854L401.761 201.232L398.033 198.526L394.305 201.232L395.729 196.854L392.001 194.148H396.609L398.033 189.77Z" fill="#664EFE"/>
<path d="M444.564 189.77L445.988 194.148H450.596L446.868 196.854L448.292 201.232L444.564 198.526L440.836 201.232L442.26 196.854L438.532 194.148H443.14L444.564 189.77Z" fill="#664EFE"/>
<path d="M107.845 74.9346L80.8994 72.8711L85.9659 77.7158L83.199 84.6735L90.9145 82.4474L96.6949 87.9748L107.845 74.9346Z" fill="#D9D6EC"/>
<path d="M107.845 74.9336L85.9661 77.7147L83.1992 84.6725L89.5891 81.2755L107.845 74.9336Z" fill="#A59FCC"/>
<path d="M133.578 310.672L154.572 322.042L148.486 323.213L147.202 329.703L142.542 324.356L135.599 325.692L133.578 310.672Z" fill="#D9D6EC"/>
<path d="M133.578 310.672L148.486 323.213L147.202 329.703L144.088 324.121L133.578 310.672Z" fill="#A59FCC"/>
<path d="M437.5 135.766L451.093 143.128L447.152 143.886L446.321 148.088L443.304 144.626L438.808 145.491L437.5 135.766Z" fill="#D9D6EC"/>
<path d="M437.5 135.766L447.152 143.886L446.321 148.088L444.305 144.474L437.5 135.766Z" fill="#A59FCC"/>
<path d="M90.464 82.6367C90.464 82.6367 70.5282 111.913 88.2201 148.851" stroke="#A59FCC" stroke-width="5" stroke-miterlimit="10" stroke-dasharray="5 5"/>
<path d="M320.009 161.975H203.016C202.396 161.975 201.893 161.473 201.893 160.854V108.067C201.893 107.448 202.396 106.945 203.016 106.945H320.009C320.629 106.945 321.132 107.448 321.132 108.067V160.854C321.132 161.473 320.629 161.975 320.009 161.975Z" fill="#A59FCC"/>
<path d="M319.084 160.92H203.941C203.321 160.92 202.818 160.418 202.818 159.798V109.02C202.818 108.401 203.321 107.898 203.941 107.898H319.084C319.704 107.898 320.207 108.401 320.207 109.02V159.798C320.206 160.418 319.704 160.92 319.084 160.92Z" fill="#D9D6EC"/>
<path d="M258.693 109.773H204.247V134.41H258.693V109.773Z" fill="white"/>
<path opacity="0.5" d="M301.524 127.246H261.512V134.409H301.524V127.246Z" fill="#A59FCC"/>
<path d="M301.524 109.961H261.512V124.569H301.524V109.961Z" fill="white"/>
<g opacity="0.5">
<path d="M213.103 135.547H204.338V138.426H213.103V135.547Z" fill="#A59FCC"/>
<path d="M223.687 135.547H214.922V138.426H223.687V135.547Z" fill="#A59FCC"/>
<path d="M234.271 135.547H225.507V138.426H234.271V135.547Z" fill="#A59FCC"/>
<path d="M244.855 135.547H236.091V138.426H244.855V135.547Z" fill="#A59FCC"/>
<path d="M255.439 135.547H246.675V138.426H255.439V135.547Z" fill="#A59FCC"/>
<path d="M266.023 135.547H257.258V138.426H266.023V135.547Z" fill="#A59FCC"/>
<path d="M276.607 135.547H267.843V138.426H276.607V135.547Z" fill="#A59FCC"/>
<path d="M287.191 135.547H278.427V138.426H287.191V135.547Z" fill="#A59FCC"/>
<path d="M297.775 135.547H289.011V138.426H297.775V135.547Z" fill="#A59FCC"/>
<path d="M308.359 135.547H299.595V138.426H308.359V135.547Z" fill="#A59FCC"/>
<path d="M318.943 135.547H310.179V138.426H318.943V135.547Z" fill="#A59FCC"/>
<path d="M213.103 139.762H204.338V142.64H213.103V139.762Z" fill="#A59FCC"/>
<path d="M223.687 139.762H214.922V142.64H223.687V139.762Z" fill="#A59FCC"/>
<path d="M234.271 139.762H225.507V142.64H234.271V139.762Z" fill="#A59FCC"/>
<path d="M244.855 139.762H236.091V142.64H244.855V139.762Z" fill="#A59FCC"/>
<path d="M255.439 139.762H246.675V142.64H255.439V139.762Z" fill="#A59FCC"/>
<path d="M266.023 139.762H257.258V142.64H266.023V139.762Z" fill="#A59FCC"/>
<path d="M276.607 139.762H267.843V142.64H276.607V139.762Z" fill="#A59FCC"/>
<path d="M287.191 139.762H278.427V142.64H287.191V139.762Z" fill="#A59FCC"/>
<path d="M297.775 139.762H289.011V142.64H297.775V139.762Z" fill="#A59FCC"/>
<path d="M308.359 139.762H299.595V142.64H308.359V139.762Z" fill="#A59FCC"/>
<path d="M318.943 139.762H310.179V142.64H318.943V139.762Z" fill="#A59FCC"/>
<path d="M223.687 143.875H214.922V146.754H223.687V143.875Z" fill="#A59FCC"/>
<path d="M234.271 143.875H225.507V146.754H234.271V143.875Z" fill="#A59FCC"/>
<path d="M244.855 143.875H236.091V146.754H244.855V143.875Z" fill="#A59FCC"/>
<path d="M255.439 143.875H246.675V146.754H255.439V143.875Z" fill="#A59FCC"/>
<path d="M266.023 143.875H257.258V146.754H266.023V143.875Z" fill="#A59FCC"/>
<path d="M276.607 143.875H267.843V146.754H276.607V143.875Z" fill="#A59FCC"/>
<path d="M287.191 143.875H278.427V146.754H287.191V143.875Z" fill="#A59FCC"/>
<path d="M297.775 143.875H289.011V146.754H297.775V143.875Z" fill="#A59FCC"/>
<path d="M308.359 143.875H299.595V146.754H308.359V143.875Z" fill="#A59FCC"/>
<path d="M234.271 147.992H225.507V150.871H234.271V147.992Z" fill="#A59FCC"/>
<path d="M244.855 147.992H236.091V150.871H244.855V147.992Z" fill="#A59FCC"/>
<path d="M255.439 147.992H246.675V150.871H255.439V147.992Z" fill="#A59FCC"/>
<path d="M266.023 147.992H257.258V150.871H266.023V147.992Z" fill="#A59FCC"/>
<path d="M276.607 147.992H267.843V150.871H276.607V147.992Z" fill="#A59FCC"/>
<path d="M287.191 147.992H278.427V150.871H287.191V147.992Z" fill="#A59FCC"/>
<path d="M297.775 147.992H289.011V150.871H297.775V147.992Z" fill="#A59FCC"/>
<path d="M244.855 152.379H236.091V155.258H244.855V152.379Z" fill="#A59FCC"/>
<path d="M255.439 152.379H246.675V155.258H255.439V152.379Z" fill="#A59FCC"/>
<path d="M266.023 152.379H257.258V155.258H266.023V152.379Z" fill="#A59FCC"/>
<path d="M276.607 152.379H267.843V155.258H276.607V152.379Z" fill="#A59FCC"/>
<path d="M287.191 152.379H278.427V155.258H287.191V152.379Z" fill="#A59FCC"/>
<path d="M255.439 156.848H246.675V159.726H255.439V156.848Z" fill="#A59FCC"/>
<path d="M266.023 156.848H257.258V159.726H266.023V156.848Z" fill="#A59FCC"/>
<path d="M276.607 156.848H267.843V159.726H276.607V156.848Z" fill="#A59FCC"/>
</g>
<path d="M318.943 130.828H304.669V134.41H318.943V130.828Z" fill="#A59FCC"/>
<path d="M318.943 125.609H304.669V129.191H318.943V125.609Z" fill="#A59FCC"/>
<path d="M318.943 120.395H304.669V123.976H318.943V120.395Z" fill="#A59FCC"/>
<path d="M272.095 270.479C290.419 270.479 305.272 268.562 305.272 266.197C305.272 263.831 290.419 261.914 272.095 261.914C253.772 261.914 238.918 263.831 238.918 266.197C238.918 268.562 253.772 270.479 272.095 270.479Z" fill="#E6E6E8"/>
<path d="M318.943 115.176H304.669V118.757H318.943V115.176Z" fill="#A59FCC"/>
<path d="M318.943 109.961H304.669V113.543H318.943V109.961Z" fill="#A59FCC"/>
<path opacity="0.2" d="M252.534 122.494L240.352 114.934V119.873H210.406V122.494V125.114H240.352V130.053L252.534 122.494Z" fill="#664EFE"/>
<path d="M307.639 149.74C307.408 154.933 305.925 160.569 301.981 165.768C301.981 165.768 296.708 172.88 293.116 174.893L290.158 173.159C290.158 173.159 290.999 171.412 291.937 168.551C294.067 162.059 296.703 149.82 291.174 139.211L291.096 138.154L290.158 125.645L303.645 130.91C303.645 130.91 306.156 135.73 307.212 142.486C307.564 144.727 307.755 147.18 307.639 149.74Z" fill="#7764F0"/>
<path d="M296.678 151.744C296.34 159.46 292.78 165.632 292.109 168.383C292.028 168.711 291.972 168.746 291.937 168.55C294.067 162.058 296.703 149.819 291.174 139.21L291.096 138.153L292.109 137.922C292.109 137.922 297.014 144.027 296.678 151.744Z" fill="#7D75AF"/>
<path d="M274.362 107.832C274.362 107.832 273.624 112.152 270.892 113.785C271.752 115.506 279.701 116.144 280.944 113.896C278.19 112.085 277.72 107.832 277.72 107.832H274.362Z" fill="#7764F0"/>
<path d="M297.347 205.891C296.349 192.887 290.134 155.384 290.134 155.384L279.368 155.537C279.355 155.486 279.343 155.433 279.329 155.383L261.818 155.332C261.818 155.332 243.643 187.104 256.293 260.321H260.685C260.685 260.321 267.534 214.827 273.764 193.157C273.764 193.157 273.957 192.61 274.274 191.643C274.275 191.645 274.276 191.646 274.276 191.648C274.279 191.654 274.282 191.662 274.282 191.667C277.57 201.53 279.432 211.477 279.432 211.477C279.305 215.451 279.821 220.269 280.683 225.312C282.075 233.457 284.372 242.193 286.333 248.924C288.321 255.757 289.965 260.526 289.965 260.526L294.318 259.965C295.026 255.403 298.365 219.146 297.347 205.891Z" fill="url(#paint0_linear_1349_2361)"/>
<path d="M291.116 140.904C291.116 140.936 291.114 140.966 291.114 140.998C291.044 142.756 290.958 144.452 290.869 146.027C290.85 146.385 290.829 146.739 290.807 147.082C290.797 146.835 290.625 143.303 289.572 143.148C289.553 143.18 289.534 143.212 289.518 143.244C289.539 143.378 290.292 145.212 290.802 147.066C290.805 147.069 290.805 147.074 290.805 147.077C290.805 147.079 290.805 147.079 290.807 147.082V147.085C290.807 147.09 290.807 147.096 290.807 147.096C289.921 152.067 290.16 155.735 290.16 155.735C289.389 155.952 288.618 156.146 287.847 156.312C274.898 159.159 262.398 155.504 261.836 155.34C261.831 155.34 261.828 155.338 261.822 155.335C261.82 155.335 261.82 155.332 261.817 155.332C261.817 155.332 261.812 155.319 261.806 155.292C261.804 155.284 261.799 155.273 261.798 155.262C261.542 151.973 260.866 144.972 261.111 137.702C261.425 128.115 262.333 118.349 262.927 117.428C262.932 117.418 262.94 117.41 262.946 117.401C264.281 116.894 265.409 116.443 266.357 116.046C269.858 114.581 270.892 113.786 270.892 113.786L280.944 113.897C282.11 114.649 283.65 115.512 285.122 116.194C287.594 117.337 289.877 118.207 289.877 118.207C289.888 118.239 289.896 118.271 289.907 118.303C291.377 123.166 291.425 132.686 291.116 140.904ZM284.945 100.525C284.945 99.5482 285.129 98.6238 284.235 98.3993C284.204 97.2893 284.094 96.1958 283.913 95.1614C282.768 88.6222 270.25 89.0022 269.105 95.1614C268.35 99.2227 267.121 109.609 275.059 110.977C280.446 111.906 283.177 107.592 283.983 102.483C285.002 102.362 284.945 101.591 284.945 100.525Z" fill="#7764F0"/>
<path d="M270.363 126.152L261.111 137.703L260.993 137.848V137.851C260.993 137.851 260.99 137.853 260.985 137.859L259.846 139.281L259.704 139.179L247.655 130.642C251.58 120.508 262.903 117.402 262.903 117.402L262.927 117.429L270.363 126.152ZM259.845 139.282C259.845 139.282 253.392 151.936 247.353 156.545C246.166 157.452 244.995 158.045 243.893 158.174C242.564 158.329 241.21 158.201 239.933 157.887C238.319 157.495 236.83 156.808 235.683 156.037C229.303 151.754 218.912 138.872 218.912 138.872L221.276 135.074L238.378 142.897C239.796 143.563 241.838 141.958 242.781 140.71L247.654 130.643L259.845 139.282Z" fill="#7764F0"/>
<path d="M307.641 149.739C306.55 148.821 305.857 147.447 305.857 145.909C305.857 144.586 306.373 143.381 307.214 142.484C307.566 144.725 307.756 147.178 307.641 149.739Z" fill="#7D75AF"/>
<path d="M282.672 106.607L282.637 106.905C281.715 108.757 280.369 110.18 278.535 110.783C278.709 111.197 278.921 111.621 279.177 112.029C279.026 111.948 278.484 111.723 276.721 111.097C276.477 111.012 276.208 110.918 275.915 110.816C275.045 110.512 274.365 110.131 273.831 109.723C272.006 108.322 271.91 106.607 271.91 106.607L277.291 104.664L282.672 106.607Z" fill="#7D75AF"/>
<path d="M260.684 260.321C260.684 260.321 262.099 266.22 260.751 266.502C259.265 266.814 250.329 266.914 247.961 266.435C247.729 264.205 255.406 261.957 255.406 261.957L256.293 260.32L260.684 260.321Z" fill="url(#paint1_linear_1349_2361)"/>
<path d="M294.318 259.965C294.318 259.965 295.815 265.773 294.466 266.055C292.98 266.367 287.76 265.717 285.393 265.237C285.383 262.151 289.288 262.05 289.288 262.05L289.966 260.526L294.318 259.965Z" fill="url(#paint2_linear_1349_2361)"/>
<path d="M217.222 136.842H217.162C217.181 136.84 217.2 136.84 217.219 136.84C217.219 136.842 217.219 136.842 217.222 136.842Z" fill="#8573F8"/>
<path d="M247.353 156.542C246.166 157.449 244.994 158.043 243.893 158.171C242.563 158.327 241.209 158.198 239.933 157.884C240.736 156.365 242.332 155.332 244.17 155.332C245.395 155.332 246.507 155.791 247.353 156.542Z" fill="#7D75AF"/>
<path d="M285.658 90.6893C284.379 88.5288 280.115 86.8759 280.115 86.8759C280.115 86.8759 272.677 84.5784 269.811 88.9858C269.464 89.4245 269.284 90.0828 269.42 91.0572C269.42 91.0572 267.638 91.4848 267.698 93.069H267.697C267.697 93.069 267.697 95.736 268.826 96.8941C268.826 96.8941 269.527 98.402 271.154 99.7004C271.494 99.395 271.942 99.2075 272.435 99.2075C272.551 99.2075 272.664 99.2195 272.774 99.2392C272.778 99.2397 272.781 99.2397 272.784 99.2401V99.2408C273.677 99.4048 274.354 100.185 274.354 101.124C274.354 102.183 273.495 103.041 272.435 103.041C272.397 103.041 272.36 103.038 272.322 103.035C272.189 103.659 272.025 104.351 271.819 105.125C271.529 106.22 272.056 107.374 273.087 107.845C274.846 108.648 277.798 109.637 281.399 109.444C281.894 109.467 282.434 109.411 282.96 109.288C282.961 109.288 282.962 109.288 282.963 109.288V109.288C284.618 108.9 286.112 107.857 285.473 106.596C283.791 103.276 286.624 96.6313 286.624 96.6313C288.157 92.8467 285.658 90.6893 285.658 90.6893Z" fill="#664EFE"/>
<path d="M294.535 120.456C291.206 118.398 288.369 117.603 288.369 117.603C287.034 117.096 285.965 116.541 285.016 116.143C285.018 116.146 285.022 116.156 285.025 116.171L285.016 116.144C279.394 119.06 266.357 116.047 266.357 116.047L266.352 116.057C266.354 116.052 266.355 116.048 266.356 116.047C265.408 116.444 264.279 116.895 262.944 117.402C262.939 117.41 262.931 117.418 262.925 117.429L262.901 117.402C262.901 117.402 251.578 120.507 247.653 130.641C252.811 131.578 255.747 133.438 257.448 135.185C258.066 135.821 258.522 136.444 258.858 137.002C259.449 137.971 259.68 138.744 259.809 139.055C259.839 139.125 259.831 139.208 259.825 139.259C259.82 139.305 259.815 139.326 259.833 139.299C259.836 139.294 259.841 139.289 259.844 139.281C260.363 138.631 260.892 137.947 260.983 137.858C260.989 137.853 260.991 137.85 260.991 137.85V137.848L261.109 137.703C261.104 137.842 261.101 137.982 261.096 138.119C260.889 145.223 261.528 151.562 261.797 155.263C261.8 155.274 261.802 155.284 261.805 155.292C261.81 155.319 261.808 155.325 261.816 155.333C261.818 155.333 261.818 155.335 261.821 155.335C261.827 155.338 261.829 155.34 261.835 155.34C262.305 155.553 262.772 155.754 263.231 155.942C275.116 160.848 283.772 158.631 287.74 156.97C287.74 156.97 287.743 156.97 287.746 156.967C287.754 156.964 287.772 156.956 287.802 156.943C287.834 156.932 287.875 156.913 287.926 156.892C287.985 156.865 288.044 156.838 288.1 156.814C288.13 156.801 288.159 156.787 288.189 156.776C288.224 156.763 288.259 156.744 288.296 156.728C288.305 156.726 288.313 156.723 288.318 156.72C288.374 156.693 288.431 156.669 288.482 156.642C288.482 156.642 288.482 156.642 288.485 156.642C288.541 156.618 288.598 156.589 288.659 156.559C288.716 156.532 288.772 156.505 288.826 156.479L288.85 156.468C288.928 156.428 289.008 156.388 289.089 156.347C289.162 156.31 289.229 156.272 289.296 156.24C289.315 156.232 289.336 156.221 289.358 156.208C289.505 156.127 289.634 156.055 289.742 155.993C289.884 155.91 290.024 155.824 290.158 155.735C290.158 155.735 290.156 155.612 290.153 155.384C290.787 152.614 291.155 140.037 291.174 139.211C291.287 139.353 291.255 139.415 291.37 139.56C291.475 139.289 291.725 138.599 292.109 137.858C292.211 137.662 292.321 137.466 292.439 137.27C292.775 136.712 293.232 136.089 293.85 135.453C295.55 133.706 298.487 131.846 303.645 130.91C301.683 125.843 297.863 122.515 294.535 120.456Z" fill="url(#paint3_linear_1349_2361)"/>
<path d="M281.212 215.956C280.342 220.543 280.554 224.037 280.683 225.312C279.821 220.269 279.305 215.452 279.431 211.477C279.431 211.477 277.57 201.53 274.281 191.667C274.566 191.09 277.341 185.261 278.015 178.047C277.972 178.79 277.153 193.232 278.593 196.565C280.071 199.987 282.316 210.132 281.212 215.956Z" fill="url(#paint4_linear_1349_2361)"/>
<path d="M272.868 166.484L263.674 164.434L263.415 165.59L272.609 167.64L272.868 166.484Z" fill="black"/>
<path d="M289.469 164.743L280.155 166.152L280.333 167.324L289.647 165.915L289.469 164.743Z" fill="black"/>
<path opacity="0.5" d="M262.557 145.552C262.998 152.369 263.224 155.831 263.232 155.944C262.772 155.756 262.305 155.555 261.835 155.343C261.829 155.343 261.827 155.34 261.821 155.337C261.819 155.337 261.819 155.335 261.816 155.335C261.808 155.327 261.811 155.321 261.805 155.295C261.803 155.287 261.8 155.276 261.797 155.265C261.529 151.564 260.889 145.225 261.096 138.121L261.279 137.495L265.948 131.422C265.838 131.628 262.114 138.719 262.557 145.552ZM292.109 137.86C291.725 138.601 291.475 139.291 291.37 139.562C291.255 139.417 291.287 139.355 291.174 139.213C291.174 139.213 289.127 133.577 287.682 132.627C287.824 132.702 290.97 134.401 292.109 137.86Z" fill="#574BA0"/>
<path d="M221.574 134.95C221.574 134.95 215.836 126.449 214.524 127.316C214.074 127.613 213.651 127.656 217.595 131.457C217.595 131.457 212.192 133.136 215.63 136.101C219.069 139.066 219.069 139.066 219.069 139.066C219.069 139.066 222.038 138.006 221.574 134.95Z" fill="#7764F0"/>
<path d="M221.349 134.621C221.349 134.621 222.713 135.892 223.509 136.094C224.305 136.296 222.361 136.843 222.361 136.843L219.815 135.978L220.485 134.94L221.349 134.621Z" fill="#7764F0"/>
<path d="M279.824 86.8398C279.587 87.0708 279.178 87.4855 278.686 88.0718C278.496 88.2967 278.294 88.5455 278.087 88.818C276.972 90.275 275.626 92.4427 274.72 95.2618C274.665 95.4296 274.613 95.6023 274.561 95.7744C272.716 95.4326 270.855 96.8838 270.371 99.0701C270.014 100.686 270.511 102.253 271.526 103.151C271.06 103.727 270.387 104.351 269.564 104.52C268.967 104.645 268.353 104.504 267.732 104.112C267.791 104 267.816 103.869 267.783 103.736C267.712 103.447 267.42 103.27 267.131 103.342C266.841 103.413 266.665 103.704 266.736 103.993C266.779 104.168 266.907 104.293 267.062 104.355C267.746 104.879 268.438 105.158 269.129 105.158C269.315 105.158 269.501 105.139 269.686 105.1C270.691 104.893 271.478 104.161 272.007 103.501C272.275 103.659 272.565 103.78 272.878 103.849C274.755 104.263 276.675 102.795 277.167 100.57C277.559 98.7959 276.924 97.0798 275.7 96.2451C275.72 96.1795 275.737 96.1165 275.757 96.0496C276.646 93.1061 278.128 90.7546 279.308 89.2209C279.533 88.9247 279.747 88.6583 279.948 88.4214C280.405 87.8766 280.761 87.5035 280.944 87.3199C280.583 87.1421 280.209 86.9822 279.824 86.8398Z" fill="#58585B"/>
<path opacity="0.5" d="M342.754 26.4001L352.635 21.8284L350.201 20.7477L343.873 23.8859L341.964 17.0904L339.53 16.0098L342.754 26.4001Z" fill="#4328F2"/>
<path opacity="0.5" d="M401.85 300.617L395.847 309.693L398.486 309.335L402.22 303.344L407.418 308.124L410.057 307.766L401.85 300.617Z" fill="#7764F0"/>
<path opacity="0.5" d="M261.43 55.5938C263.426 54.0898 263.823 51.2544 262.318 49.2608C260.812 47.2672 257.974 46.8704 255.978 48.3744C253.983 49.8784 253.586 52.7138 255.091 54.7074C256.597 56.7009 259.435 57.0978 261.43 55.5938Z" stroke="#938BC3" stroke-width="10" stroke-miterlimit="10"/>
<path opacity="0.5" d="M80.1428 301.824C82.64 301.713 84.5738 299.6 84.462 297.105C84.3502 294.61 82.2352 292.678 79.738 292.79C77.2407 292.902 75.3069 295.015 75.4187 297.509C75.5305 300.004 77.6455 301.936 80.1428 301.824Z" stroke="#938BC3" stroke-width="10" stroke-miterlimit="10"/>
<path opacity="0.5" d="M395.677 115.865C397.949 114.823 398.944 112.138 397.9 109.869C396.857 107.6 394.17 106.605 391.898 107.648C389.627 108.69 388.631 111.375 389.675 113.644C390.718 115.913 393.406 116.908 395.677 115.865Z" stroke="#938BC3" stroke-width="10" stroke-miterlimit="10"/>
<path d="M109.767 259.801C109.767 259.801 159.65 245.56 223.644 287.024C287.638 328.489 371.671 295.513 384.94 249.942M194.099 41.8173C194.099 41.8173 240.539 98.8558 311.806 62.3029C383.074 25.75 430.92 56.3332 419.662 79.8035C408.404 103.274 379.053 92.7872 373.022 74.9341C366.991 57.081 354.55 30.5701 287.191 28.1602" stroke="#4328F2" stroke-width="5" stroke-miterlimit="10" stroke-dasharray="5 5"/>
<defs>
<linearGradient id="paint0_linear_1349_2361" x1="274.677" y1="260.526" x2="274.677" y2="155.332" gradientUnits="userSpaceOnUse">
<stop stop-color="#2F285C"/>
<stop offset="1" stop-color="#231A5F"/>
</linearGradient>
<linearGradient id="paint1_linear_1349_2361" x1="247.956" y1="263.543" x2="261.333" y2="263.543" gradientUnits="userSpaceOnUse">
<stop stop-color="#2F285C"/>
<stop offset="1" stop-color="#231A5F"/>
</linearGradient>
<linearGradient id="paint2_linear_1349_2361" x1="285.393" y1="263.051" x2="295.029" y2="263.051" gradientUnits="userSpaceOnUse">
<stop stop-color="#2F285C"/>
<stop offset="1" stop-color="#231A5F"/>
</linearGradient>
<linearGradient id="paint3_linear_1349_2361" x1="275.649" y1="158.938" x2="275.649" y2="116.047" gradientUnits="userSpaceOnUse">
<stop stop-color="#8B83BD"/>
<stop offset="1" stop-color="#B9B4D7"/>
</linearGradient>
<linearGradient id="paint4_linear_1349_2361" x1="277.894" y1="225.312" x2="277.894" y2="178.047" gradientUnits="userSpaceOnUse">
<stop stop-color="#2F285C"/>
<stop offset="1" stop-color="#08003A"/>
</linearGradient>
</defs>
</svg>
