<svg xmlns="http://www.w3.org/2000/svg" enable-background="new 0 0 2500 2500" viewBox="0 0 2500 2500" id="ContentSharing"><path d="M606.69 759.33c-1.64 0-3.28-.03-4.91-.1-2.65-.11-5.35-.32-8.02-.62l.41-3.63c2.58.29 5.2.49 7.77.6 4.59.2 9.21.1 13.78-.25l.29 3.64C612.92 759.21 609.79 759.33 606.69 759.33zM637.91 755.19l-.94-3.53c6.93-1.85 13.75-4.34 20.26-7.4l1.56 3.3C652.07 750.72 645.05 753.28 637.91 755.19zM571.99 754.09c-7.06-2.15-13.99-4.96-20.59-8.36l1.67-3.25c6.41 3.29 13.14 6.02 19.99 8.11L571.99 754.09zM677.97 736.35l-2.12-2.98c5.9-4.2 11.39-8.94 16.31-14.09l2.64 2.53C689.72 727.13 684.06 732.02 677.97 736.35zM532.61 733.87c-5.93-4.54-11.43-9.61-16.34-15.08l2.72-2.44c4.76 5.3 10.09 10.21 15.84 14.61L532.61 733.87zM503.14 700.79c-2.26-3.96-4.13-7.94-5.61-11.92-6.73-.8-13.42-2.33-19.92-4.58l1.2-3.45c5.69 1.97 11.53 3.37 17.42 4.19-.52-1.68-.97-3.37-1.34-5.04l3.57-.8c1.46 6.54 4.11 13.2 7.87 19.8L503.14 700.79zM521.72 688.46l-.57-3.61.6-.1c7.53-1.24 14.11-3.4 19.55-6.42l1.77 3.2c-5.81 3.22-12.79 5.52-20.74 6.83L521.72 688.46zM457.52 674.62c-6.38-4.04-12.19-8.8-17.28-14.12l2.64-2.53c4.88 5.11 10.47 9.68 16.59 13.57L457.52 674.62zM559.13 665.53l-3.24-1.68c2.07-3.99 3.17-8.26 3.17-12.34 0-.92-.06-1.85-.17-2.77-.19-1.57-.57-3.13-1.12-4.63l3.43-1.26c.64 1.76 1.08 3.59 1.31 5.44.13 1.07.19 2.14.19 3.21C562.71 656.17 561.47 661.02 559.13 665.53zM498.01 658.19l-3.58-.74c1.56-7.62 4.86-14.69 9.54-20.47l2.84 2.3C502.5 644.61 499.46 651.14 498.01 658.19zM426.97 642.55c-3.52-6.19-6.52-13.04-8.93-20.38l3.47-1.13c2.33 7.1 5.23 13.73 8.63 19.71L426.97 642.55zM543.85 629.79c-4.13-1.93-8.65-2.94-13.06-2.94-.01 0-.03 0-.04 0-2.43 0-4.79.31-7.03.92l-.96-3.53c2.55-.7 5.24-1.05 7.99-1.05.02 0 .03 0 .04 0 4.95 0 10 1.13 14.61 3.29L543.85 629.79zM412.8 600.63c-1.16-6.72-2.01-13.9-2.62-21.93l3.64-.28c.6 7.92 1.44 14.99 2.57 21.59L412.8 600.63zM409.16 556.69c-.14-5.73-.2-11.44-.27-17.08l-.07-4.85 3.65-.06.07 4.69c.07 5.81.13 11.51.27 17.22L409.16 556.69zM408.01 512.93c-.5-7.92-1.23-15-2.23-21.65l3.62-.54c1.01 6.76 1.75 13.94 2.26 21.96L408.01 512.93zM401.26 470.08c-2.09-7.26-4.71-14.02-7.79-20.09l3.26-1.65c3.18 6.28 5.89 13.25 8.04 20.73L401.26 470.08zM381.63 432.11l-.68-.79 2.73-2.43.74.85L381.63 432.11zM674.36 1263.68l-1.46-3.35c7.89-3.43 14.25-6.27 19.99-8.92l1.53 3.32C688.66 1257.39 682.28 1260.24 674.36 1263.68zM714.21 1245.09l-1.68-3.25c6.91-3.58 13.14-7.06 19.03-10.64l1.9 3.13C727.49 1237.95 721.2 1241.47 714.21 1245.09zM751.8 1222.05l-2.17-2.94c3.2-2.37 6.33-4.84 9.3-7.33 2.49-2.09 4.97-4.29 7.37-6.56l2.51 2.66c-2.45 2.32-4.98 4.57-7.53 6.7C758.25 1217.12 755.06 1219.63 751.8 1222.05zM783.85 1191.59l-2.85-2.28c4.61-5.74 8.72-11.75 12.22-17.84l3.17 1.82C792.79 1179.55 788.57 1185.71 783.85 1191.59zM805.74 1153.14l-3.44-1.23c2.47-6.92 4.19-13.94 5.11-20.89l3.62.49C810.08 1138.7 808.29 1145.98 805.74 1153.14zM793.3 1130.55l-.19-3.65c6.99-.36 14.08-1.65 21.07-3.83l1.09 3.49C807.99 1128.83 800.6 1130.17 793.3 1130.55zM771.03 1128.53c-7.29-1.75-14.29-4.52-20.8-8.23l1.81-3.18c6.21 3.54 12.89 6.18 19.85 7.85L771.03 1128.53zM835.67 1117.61l-1.82-3.17c6.16-3.53 12.06-7.74 17.53-12.51l2.4 2.76C848.14 1109.61 842.04 1113.96 835.67 1117.61zM807.79 1109.58c-.72-7.07-2.27-14.12-4.62-20.96l3.45-1.18c2.44 7.1 4.06 14.43 4.8 21.77L807.79 1109.58zM732.62 1106.45c-5.27-5.67-9.4-11.99-12.26-18.8l3.37-1.42c2.7 6.42 6.59 12.38 11.57 17.73L732.62 1106.45zM869.1 1088.57l-2.86-2.27c4.35-5.49 8.4-11.53 12.04-17.96l3.18 1.81C877.73 1076.73 873.57 1082.93 869.1 1088.57zM793.96 1069.23c-3.82-6.15-8.3-11.8-13.33-16.81l2.58-2.59c5.23 5.21 9.89 11.08 13.86 17.47L793.96 1069.23zM720.12 1065.64l-3.65-.21c.46-8.27 2.89-15.72 7.03-21.54l2.98 2.11C722.8 1051.19 720.54 1058.16 720.12 1065.64zM891.08 1050.19l-3.39-1.38c2.63-6.48 5.01-13.39 7.07-20.54l3.51 1.01C896.18 1036.56 893.76 1043.59 891.08 1050.19zM763.55 1039.78c-5.76-2.86-11.35-4.31-16.61-4.31-1.18-.06-2.37.07-3.52.22l-.48-3.63c1.32-.17 2.69-.22 4-.25 5.82 0 11.96 1.58 18.23 4.69L763.55 1039.78zM903.4 1007.8l-3.59-.69c1.37-7.09 2.45-14.33 3.21-21.53l3.63.39C905.87 993.26 904.78 1000.61 903.4 1007.8zM908.06 963.94l-3.65-.08c.04-1.98.07-3.95.07-5.92 0-5.25-.16-10.59-.48-15.85l3.65-.22c.32 5.34.48 10.74.48 16.07C908.13 959.94 908.11 961.94 908.06 963.94zM901.8 920.43c-1.03-7.17-2.37-14.37-3.98-21.41l3.56-.81c1.63 7.13 2.99 14.43 4.04 21.7L901.8 920.43zM892.07 878.03c-2.2-6.9-4.73-13.77-7.5-20.43l3.37-1.41c2.81 6.76 5.37 13.73 7.61 20.72L892.07 878.03zM1464.36 481.3c-.12-3.59-.35-7.24-.66-10.85l3.64-.32c.32 3.67.55 7.39.67 11.05L1464.36 481.3zM1143.09 802.47l-.73-3.58c7.27-1.48 14.61-3.24 21.82-5.25l.98 3.52C1157.87 799.19 1150.44 800.98 1143.09 802.47zM1186.8 790.33l-1.22-3.45c7-2.48 14.03-5.25 20.88-8.23l1.46 3.35C1200.99 785.01 1193.89 787.81 1186.8 790.33zM1228.42 772.26l-1.68-3.25c6.61-3.42 13.2-7.12 19.57-11l1.9 3.13C1241.76 765.05 1235.1 768.79 1228.42 772.26zM1267.19 748.69l-2.11-2.98c6.09-4.3 12.11-8.86 17.88-13.57l2.31 2.83C1279.43 739.73 1273.35 744.35 1267.19 748.69zM1302.37 720.03l-2.5-2.66c5.46-5.12 10.78-10.48 15.82-15.92l2.68 2.48C1313.27 709.43 1307.89 714.85 1302.37 720.03zM1333.17 686.72l-2.86-2.28c1.21-1.52 2.41-3.05 3.6-4.59 3.68-4.79 6.8-9.21 9.56-13.51l3.08 1.97c-2.81 4.39-5.99 8.89-9.74 13.77C1335.61 683.63 1334.4 685.18 1333.17 686.72zM1357.14 648l-3.4-1.33c.16-.41.32-.82.47-1.23-1.04-.28-2.07-.6-3.09-.94l1.17-3.46c1.03.35 2.07.66 3.13.94 1.85-5.68 2.95-11.26 3.29-16.65l3.65.23c-.35 5.6-1.48 11.37-3.36 17.24 4.78.91 9.82 1.17 14.83.75l.31 3.64c-5.52.46-11.08.16-16.34-.9C1357.58 646.85 1357.36 647.42 1357.14 648zM1396.33 640.68l-1.66-3.25c6.19-3.16 12.22-7.46 17.9-12.78l2.5 2.67C1409.14 632.87 1402.83 637.37 1396.33 640.68zM1331.63 631.79c-1.52-1.75-2.88-3.64-4.06-5.61-2.53-4.26-3.92-9.51-3.92-14.79 0-.52.01-1.05.04-1.57l3.65.2c-.03.46-.04.91-.04 1.37 0 4.63 1.21 9.21 3.41 12.92 1.06 1.79 2.3 3.5 3.68 5.08L1331.63 631.79zM1430.09 610.04l-2.96-2.14c2.6-3.6 5.17-7.52 7.64-11.65 1.44-2.41 2.83-4.84 4.17-7.3l3.21 1.75c-1.36 2.51-2.78 4.98-4.24 7.43C1435.38 602.35 1432.75 606.36 1430.09 610.04zM1355.03 604.4c-.54-.97-1.17-1.91-1.85-2.78-3.68-4.71-9.52-7.38-14.88-6.52l-.59-3.6c6.65-1.1 13.86 2.14 18.34 7.87.8 1.02 1.52 2.11 2.16 3.25L1355.03 604.4zM1451.93 570.14l-3.38-1.39c2.82-6.86 5.31-13.96 7.4-21.11l3.51 1.03C1457.33 555.94 1454.8 563.17 1451.93 570.14zM1464.69 526.51l-3.6-.65c1.33-7.32 2.28-14.78 2.82-22.19l3.64.27C1467 511.48 1466.04 519.07 1464.69 526.51zM1109.48 807.43l-.34-3.64c3.62-.33 7.23-.73 10.84-1.19l.46 3.63C1116.8 806.69 1113.14 807.09 1109.48 807.43z" fill="#000000" class="color000000 svgShape"></path><path fill="#ffffff" d="M1164.45,588.4H691.14c-33.79,0-61.18,27.39-61.18,61.18v170.54c0,33.79,27.39,61.18,61.18,61.18h473.31
				c33.79,0,61.18-27.39,61.18-61.18V649.58C1225.64,615.79,1198.24,588.4,1164.45,588.4z" class="colorffffff svgShape"></path><path d="M1164.45,883.13H691.14c-34.74,0-63.01-28.27-63.01-63.01V649.58c0-34.74,28.27-63.01,63.01-63.01h473.31
				c34.74,0,63.01,28.27,63.01,63.01v170.54C1227.46,854.87,1199.2,883.13,1164.45,883.13z M691.14,590.23
				c-32.73,0-59.35,26.63-59.35,59.35v170.54c0,32.73,26.63,59.35,59.35,59.35h473.31c32.73,0,59.35-26.63,59.35-59.35V649.58
				c0-32.73-26.63-59.35-59.35-59.35H691.14z" fill="#000000" class="color000000 svgShape"></path><path fill="#2200fd" d="M769.24 727.42c0 5.35-1 10.04-2.99 14.08-1.99 4.04-4.69 7.41-8.1 10.11-3.41 2.71-7.4 4.74-11.96 6.1-4.56 1.36-9.44 2.04-14.63 2.04-3.52 0-6.78-.29-9.79-.86-3.02-.58-5.68-1.27-7.99-2.09-2.31-.81-4.24-1.66-5.78-2.56s-2.66-1.68-3.34-2.36c-.68-.68-1.17-1.67-1.46-2.95-.29-1.28-.43-3.13-.43-5.55 0-1.63.05-2.99.16-4.09.1-1.1.27-1.99.51-2.68.24-.68.55-1.17.94-1.46.39-.29.85-.43 1.38-.43.73 0 1.77.43 3.11 1.3 1.34.86 3.05 1.82 5.15 2.87 2.1 1.05 4.6 2.01 7.51 2.87 2.91.86 6.28 1.3 10.11 1.3 2.52 0 4.77-.3 6.77-.91 1.99-.6 3.68-1.46 5.07-2.56 1.39-1.1 2.45-2.47 3.19-4.09.73-1.62 1.1-3.43 1.1-5.43 0-2.31-.63-4.29-1.89-5.94-1.26-1.65-2.9-3.12-4.92-4.4-2.02-1.28-4.31-2.49-6.88-3.62-2.57-1.13-5.22-2.32-7.95-3.58-2.73-1.26-5.38-2.69-7.95-4.29-2.57-1.6-4.87-3.51-6.88-5.74-2.02-2.23-3.66-4.86-4.92-7.91-1.26-3.04-1.89-6.68-1.89-10.94 0-4.88.9-9.16 2.71-12.86 1.81-3.7 4.25-6.77 7.32-9.2 3.07-2.44 6.69-4.26 10.86-5.47s8.59-1.81 13.26-1.81c2.41 0 4.83.19 7.24.55 2.41.37 4.67.87 6.77 1.5 2.1.63 3.96 1.34 5.59 2.12 1.62.79 2.7 1.45 3.22 1.97.52.52.88.97 1.06 1.34.18.37.34.85.47 1.46.13.6.22 1.36.27 2.28.05.92.08 2.06.08 3.42 0 1.52-.04 2.81-.12 3.85-.08 1.05-.21 1.92-.39 2.6-.18.68-.45 1.18-.79 1.5-.34.31-.8.47-1.38.47-.58 0-1.5-.37-2.76-1.1-1.26-.73-2.81-1.53-4.64-2.4-1.84-.87-3.96-1.65-6.37-2.36-2.41-.71-5.06-1.06-7.95-1.06-2.26 0-4.22.27-5.9.82-1.68.55-3.08 1.31-4.21 2.28-1.13.97-1.97 2.14-2.52 3.5-.55 1.36-.83 2.81-.83 4.33 0 2.26.62 4.21 1.85 5.86 1.23 1.65 2.88 3.12 4.96 4.41 2.07 1.28 4.42 2.49 7.04 3.62 2.62 1.13 5.3 2.32 8.02 3.58 2.73 1.26 5.4 2.69 8.02 4.29 2.62 1.6 4.96 3.52 7 5.74 2.05 2.23 3.7 4.85 4.96 7.87C768.61 719.78 769.24 723.33 769.24 727.42zM864.51 755.11c0 .52-.17 1-.51 1.42-.34.42-.9.76-1.69 1.02-.79.26-1.84.47-3.15.63-1.31.16-2.96.24-4.96.24-2.04 0-3.74-.08-5.07-.24-1.34-.16-2.39-.37-3.15-.63-.76-.26-1.31-.6-1.65-1.02-.34-.42-.51-.89-.51-1.42v-41.15h-38.08v41.15c0 .52-.16 1-.47 1.42-.31.42-.87.76-1.65 1.02-.79.26-1.84.47-3.15.63-1.31.16-2.99.24-5.04.24-1.99 0-3.66-.08-5-.24-1.34-.16-2.4-.37-3.19-.63-.79-.26-1.35-.6-1.69-1.02-.34-.42-.51-.89-.51-1.42v-96.14c0-.52.17-.99.51-1.41s.9-.76 1.69-1.02c.79-.26 1.85-.47 3.19-.63 1.34-.16 3-.24 5-.24 2.04 0 3.72.08 5.04.24 1.31.16 2.36.37 3.15.63.79.26 1.34.6 1.65 1.02.31.42.47.89.47 1.41v37.37h38.08v-37.37c0-.52.17-.99.51-1.41.34-.42.89-.76 1.65-1.02.76-.26 1.81-.47 3.15-.63 1.34-.16 3.03-.24 5.07-.24 1.99 0 3.65.08 4.96.24 1.31.16 2.36.37 3.15.63.79.26 1.35.6 1.69 1.02.34.42.51.89.51 1.41V755.11zM970.09 750.24c.63 1.89 1.02 3.38 1.18 4.48.16 1.1-.05 1.93-.63 2.48-.58.55-1.6.89-3.07 1.02-1.47.13-3.49.2-6.06.2-2.67 0-4.76-.04-6.25-.12-1.49-.08-2.64-.24-3.42-.47-.79-.24-1.34-.56-1.65-.98-.32-.42-.58-.97-.79-1.65l-6.85-20.45h-38.24l-6.45 19.9c-.21.74-.49 1.35-.83 1.85-.34.5-.89.89-1.65 1.18-.76.29-1.84.49-3.22.59-1.39.1-3.21.16-5.47.16-2.41 0-4.3-.08-5.66-.24-1.37-.16-2.31-.54-2.83-1.14-.52-.6-.71-1.45-.55-2.56s.55-2.57 1.18-4.4l31.39-90.32c.31-.89.68-1.61 1.1-2.16.42-.55 1.09-.97 2.01-1.26.92-.29 2.19-.47 3.82-.55 1.62-.08 3.78-.12 6.45-.12 3.09 0 5.56.04 7.39.12 1.84.08 3.27.26 4.29.55 1.02.29 1.76.72 2.2 1.3.45.58.83 1.36 1.14 2.36L970.09 750.24zM923.36 675.58h-.08l-14.4 43.27h28.87L923.36 675.58zM1059.86 755.27c0 .58-.11 1.06-.31 1.46-.21.4-.71.72-1.5.99-.79.26-1.94.45-3.46.55-1.52.1-3.59.16-6.22.16-2.2 0-3.96-.05-5.27-.16-1.31-.1-2.35-.3-3.11-.59-.76-.29-1.3-.66-1.61-1.1-.31-.44-.58-.98-.79-1.61l-9.13-22.73c-1.1-2.57-2.18-4.85-3.23-6.85-1.05-1.99-2.22-3.66-3.5-5s-2.77-2.35-4.45-3.03c-1.68-.68-3.62-1.02-5.82-1.02h-6.45v38.78c0 .52-.17 1-.51 1.42-.34.42-.9.76-1.69 1.02-.79.26-1.84.47-3.15.63-1.31.16-2.99.24-5.04.24-1.99 0-3.66-.08-5-.24-1.34-.16-2.4-.37-3.19-.63-.79-.26-1.34-.6-1.65-1.02-.31-.42-.47-.89-.47-1.42v-92.44c0-2.31.59-3.98 1.77-5 1.18-1.02 2.64-1.53 4.37-1.53h26.36c2.67 0 4.88.05 6.61.16 1.73.11 3.3.24 4.72.39 4.09.58 7.77 1.57 11.05 2.99 3.28 1.42 6.06 3.27 8.34 5.55 2.28 2.28 4.03 4.98 5.23 8.1 1.21 3.12 1.81 6.7 1.81 10.74 0 3.41-.43 6.52-1.3 9.32-.87 2.81-2.14 5.31-3.82 7.51-1.68 2.2-3.75 4.12-6.22 5.74-2.47 1.63-5.27 2.94-8.42 3.93 1.52.74 2.95 1.63 4.29 2.68 1.34 1.05 2.6 2.32 3.78 3.82 1.18 1.5 2.29 3.2 3.34 5.11 1.05 1.92 2.07 4.08 3.07 6.49l8.58 20.06c.79 1.99 1.31 3.45 1.57 4.36C1059.73 754.03 1059.86 754.75 1059.86 755.27zM1033.19 686.2c0-3.36-.76-6.19-2.28-8.5-1.52-2.31-4.01-3.93-7.48-4.88-1.05-.26-2.24-.47-3.58-.63-1.34-.16-3.19-.24-5.55-.24h-9.28v28.87h10.54c2.94 0 5.51-.35 7.71-1.06 2.2-.71 4.04-1.7 5.51-2.99s2.57-2.82 3.3-4.6C1032.82 690.39 1033.19 688.4 1033.19 686.2zM1135.38 749.84c0 1.52-.07 2.79-.2 3.82-.13 1.02-.33 1.85-.59 2.48s-.59 1.09-.98 1.38c-.39.29-.83.43-1.3.43h-51.14c-1.73 0-3.19-.51-4.37-1.53-1.18-1.02-1.77-2.69-1.77-5v-88.74c0-2.31.59-3.98 1.77-5 1.18-1.02 2.64-1.53 4.37-1.53H1132c.47 0 .89.13 1.26.39.37.26.68.72.94 1.38.26.66.46 1.5.59 2.52.13 1.02.2 2.32.2 3.89 0 1.47-.07 2.72-.2 3.74-.13 1.02-.33 1.85-.59 2.48-.26.63-.58 1.09-.94 1.38-.37.29-.79.43-1.26.43h-36.35v24.86h30.76c.47 0 .9.15 1.3.43.39.29.72.74.98 1.34.26.6.46 1.42.59 2.44.13 1.02.2 2.27.2 3.74 0 1.52-.07 2.78-.2 3.78s-.33 1.8-.59 2.4c-.26.6-.59 1.03-.98 1.3-.39.26-.83.39-1.3.39h-30.76v28.72h36.66c.47 0 .9.15 1.3.43.39.29.72.75.98 1.38.26.63.46 1.46.59 2.48C1135.32 747.05 1135.38 748.32 1135.38 749.84z" class="color007afd svgShape"></path><path fill="#cdc5ff" d="M1630.32,1042.33c0,0-132.87,74.3-181.24,70.03c-74.06-6.57-232.96-171.35-232.96-171.35
						s-89.29-24.46-99.51-51.93c-3.83-10.3,7.63-16.73,7.63-16.73s-11.08-6.23-7.73-14.13c3.28-7.77,13.34-6.47,13.34-6.47
						s-9.51-2.39-8.83-12.28c0.72-10.19,15.57-8.69,15.57-8.69s-53.16-22.61-47.89-36.88c8.04-21.86,106.73,36.74,109.09,38.14
						c-0.48-1.47-12.25-36.77,0.51-38.01c16.9-1.68,67.97,67.97,67.97,67.97c0.79,0.62,190.95,111.18,190.95,111.18l133.93-50.08
						L1630.32,1042.33z" class="colorffcfc5 svgShape"></path><path fill="#ac9fff" d="M1172.04,871.28c-13.24,0-43.83-16.08-47.61-18.09l1.72-3.23c15.12,8.06,41.53,19.9,48.02,17.38
							c0.59-0.23,0.76-0.51,0.84-0.75c0.7-1.98,0.55-3.95-0.46-6.03c-4.82-9.93-26.3-17.33-26.52-17.4l1.18-3.46
							c0.94,0.32,23.15,7.98,28.63,19.27c1.44,2.96,1.65,5.94,0.62,8.84c-0.48,1.36-1.5,2.37-2.97,2.94
							C1174.57,871.11,1173.39,871.28,1172.04,871.28z" class="colorffb29f svgShape"></path><path fill="#ac9fff" d="M1164.03,890.87c-14.59,0-41.3-16.48-44.63-18.57l1.95-3.1c9.7,6.09,36.86,21.12,46.01,17.5
							c1.33-0.52,2.12-1.42,2.49-2.83c1.61-6.07-7.37-12.79-10.97-14.86l1.82-3.17c0.63,0.36,15.33,8.96,12.68,18.97
							c-0.67,2.52-2.29,4.35-4.69,5.3C1167.36,890.63,1165.78,890.87,1164.03,890.87z" class="colorffb29f svgShape"></path><path fill="#ac9fff" d="M1161.67 907.87c-11.04 0-26.38-4.93-28.55-5.65l1.15-3.47c7.27 2.4 27.56 7.85 33.97 4.33.84-.46 1.32-1.03 1.51-1.78.5-1.99.27-3.76-.71-5.39-2.69-4.48-9.93-6.32-10.01-6.34l.87-3.55c.36.09 8.78 2.21 12.26 7.99 1.49 2.48 1.87 5.23 1.12 8.18-.44 1.76-1.55 3.13-3.29 4.09C1167.92 907.43 1164.99 907.87 1161.67 907.87zM1220.99 868.8c-23.62-3.67-28.75-35.11-28.96-36.45l3.61-.56c.05.3 4.93 30.14 25.9 33.39L1220.99 868.8z" class="colorffb29f svgShape"></path><path d="M1513.44,2187.04l100-54.05l27-23.84l108.94,16.4l-0.08,85.42c0.91,4.46-2.46,8.55-6.92,8.55h-233.22
																	c-3.92,0-7.1-3.18-7.1-7.1v-8.46C1502.07,2196.51,1506.52,2189.87,1513.44,2187.04z" fill="#000000" class="color000000 svgShape"></path><path fill="#cdc5ff" d="M1640.44,2109.15l0.63-79.05l109.22-14.15l-0.9,109.61
																	C1705.17,2144.19,1665.22,2137.77,1640.44,2109.15z" class="colorffcfc5 svgShape"></path><path fill="#ffffff" d="M1607.46 2166.4c-7.05-13.17-19.82-14.54-20.36-14.59l.34-3.64c.62.06 15.24 1.55 23.25 16.5L1607.46 2166.4zM1585.66 2178.56c-7.05-13.17-19.82-14.54-20.36-14.59l.34-3.64c.62.06 15.24 1.55 23.25 16.5L1585.66 2178.56z" class="colorffffff svgShape"></path><path fill="#5b41ff" d="M1726.85,1588.67l48.16,447.6l-157.92,5.83c0,0-0.14-1.28-0.44-3.71
																c-0.94-8.39-3.44-30.4-6.84-60.4c-13.15-116.05-40.41-370.82-41.49-397.14c-1.42-35.06,73.06-373.1,73.06-373.1
																l133.5-53.63l47.53,117.84L1726.85,1588.67z" class="colorff4148 svgShape"></path><path d="M1731.68,2037.92l-113.76,13.1c-0.94-8.39-3.44-30.4-6.84-60.4
																C1639.6,2020.72,1682.42,2033.27,1731.68,2037.92z" fill="#000000" class="color000000 svgShape"></path><path fill="#5b41ff" d="M1774.06,2063.73c-49.14,12.63-100.79,15.92-155.88,6.4c-10.32,0.42-18.99-7.57-19.41-17.88
																c-0.42-10.28,7.57-18.99,17.88-19.41c46.9,9.1,99.96,4.53,155.88-6.4c10.32-0.42,18.99,7.6,19.41,17.88
																c0.21,5.18-1.66,9.9-4.91,13.42C1783.79,2061.22,1779.2,2063.51,1774.06,2063.73z" class="colorff4148 svgShape"></path><path d="M2015.96,2193.61l32.09-109.05l2.1-35.96l88.39-65.76l60.57,60.24c3.81,2.49,4.34,7.77,1.2,10.93
																		L2036,2219.53c-2.76,2.78-7.25,2.8-10.04,0.04l-6.01-5.96C2014.66,2208.35,2013.09,2200.5,2015.96,2193.61z" fill="#000000" class="color000000 svgShape"></path><path fill="#cdc5ff" d="M2050.15,2048.6l-70.04-69.13l66.9-87.48l91.53,90.85
																		C2120.61,2027.34,2087.92,2051.17,2050.15,2048.6z" class="colorffcfc5 svgShape"></path><path fill="#ffffff" d="M2042.85 2116.51l-2.35-2.8c.47-.4 11.84-9.72 28.09-4.88l-1.05 3.5C2053.16 2108.04 2042.96 2116.43 2042.85 2116.51zM2036.12 2140.55l-2.35-2.8c.47-.4 11.83-9.73 28.09-4.88l-1.05 3.5C2046.44 2132.08 2036.22 2140.46 2036.12 2140.55z" class="colorffffff svgShape"></path><path fill="#5b41ff" d="M2047.33,1995.11c-26.86,21.67-52.75,37.18-56.76,29.16c0,0-6.4-24.76-30.05-47.52
																	c-25.01-24.07-167.5-268.67-181.87-299.55c-19.72-42.39-29.21-442.07-29.21-442.07s128.25-52.95,170.42-15.17
																	c22.45,20.09,17.65,396.43,17.65,396.43l174.64,301.74C2117.24,1930.16,2081.48,1967.64,2047.33,1995.11z" class="colorff4148 svgShape"></path><path fill="#ffffff" d="M1759.01,1476.24c-2.45-27.63-2.97-58.63-3.48-88.6c-0.39-23.09-0.76-44.91-2.01-62.65
																	l3.64-0.26c1.26,17.84,1.63,39.7,2.02,62.84c0.51,29.91,1.03,60.84,3.46,88.34L1759.01,1476.24z" class="colorffffff svgShape"></path><path d="M2085.12,1941.38l-37.79,53.73c-26.86,21.67-52.75,37.18-56.76,29.16c0,0-8.99-22.35-30.05-47.52
																	C1998.28,1984.34,2038.09,1971.74,2085.12,1941.38z" fill="#000000" class="color000000 svgShape"></path><path fill="#5b41ff" d="M2133.69,1942.8c-30.78,40.33-69.31,74.88-118.49,101.49c-7.84,6.72-19.6,5.81-26.32-2.03
																	c-6.69-7.81-5.81-19.6,2.03-26.32c42.47-21.87,81.32-58.3,118.49-101.49c7.84-6.72,19.62-5.78,26.31,2.03
																	c3.37,3.94,4.82,8.8,4.45,13.58C2139.78,1934.82,2137.6,1939.46,2133.69,1942.8z" class="colorff4148 svgShape"></path><path fill="#674fff" d="M1577.48,1051.75c7.69,17.68,15.04,29.91,19.14,28.07l36.29-18.61l81.74-41.95l34.49-154.55
																		c0,0-77.05-17.3-117.01-1.94c-34.7,13.34-91.35,53.05-91.35,53.05C1532.02,919.76,1561.15,1014.17,1577.48,1051.75
																		z" class="colorffd24f svgShape"></path><path d="M1577.48,1051.75c7.69,17.68,15.04,29.91,19.14,28.07l38.15-19.57c6.95-44.79,34.33-120.68,34.33-120.68
																		S1614.42,1027.56,1577.48,1051.75z" fill="#000000" class="color000000 svgShape"></path><path fill="#674fff" d="M1610.02,1299.57c20.29,19.62,326.54,31.14,341.76-9.26c13.81-36.78-13.81-51.93-13.81-51.93
																		c0.46-6.98,0.99-14.59,1.52-22.72c0.28-4.12,0.53-8.39,0.78-12.79c0.04-0.03,0.04-0.03,0.04-0.03
																		c0.85-13.63,1.69-28.43,2.5-43.97c0.85-16.77,1.62-34.38,2.22-52.21c0.53-15.57,0.95-31.32,1.13-46.89
																		c1.06-81.94-3.49-158.64-23.57-175.09c-59.04-48.33-247.77-36.46-272.36-5.67
																		c-48.58,60.77-23.96,234.87-28.25,338.06C1621.68,1223.3,1585.82,1276.22,1610.02,1299.57z" class="colorffd24f svgShape"></path><path fill="#17161c" d="M1703.13,570.16c0,0-30.22-12.84-43.06,6.8s12.05,95.98-12.8,150.37
																c-21.42,46.89-26.64,71.98,8.49,95.78c35.13,23.8,88.3,19.8,101.47-13.44
																C1770.41,776.44,1703.13,570.16,1703.13,570.16z" class="color161c1c svgShape"></path><path fill="#2402ff" d="M1711.39 937.86c19.07 10.35 36.48-29.51 36.48-29.51l6.22-57.74-7.19-16.61h-11.69l-27.75 22.04C1707.47 856.04 1692.32 927.51 1711.39 937.86zM1747.88 908.35c0 0 18.66 55.19 36.9 48.29 18.24-6.9 53.97-101.3 53.97-101.3l-22.16-18.75-40.03-2.59-10.43 37.17L1747.88 908.35z" class="colorffb902 svgShape"></path><path fill="#cdc5ff" d="M1816.58,836.59c-20.95,29.01-45.5,53-68.7,71.76c-7.38-22.64-15.66-37.45-13.48-64.06
																L1816.58,836.59z" class="colorffcfc5 svgShape"></path><polygon fill="#cdc5ff" points="1734.4 844.29 1816.58 836.59 1812.18 721.71 1805.49 733 1803.25 736.75 1802.24 738.45 1801.01 739.06 1737.44 770.91 1737.44 771.79 1736.67 822.57 1736.67 823.11" class="colorffcfc5 svgShape"></polygon><path fill="#9888fc" d="M1736.67,822.57v0.54c15.61-10.74,54.21-40.54,65.07-79.49c0.7-2.51,1.2-4.79,1.51-6.88
																c0.12-0.66,0.19-1.28,0.27-1.89l-2.51,4.21l-0.73,1.24l-62.83,31.49L1736.67,822.57z" class="colorfc9b88 svgShape"></path><path fill="#cdc5ff" d="M1722.32,795.31c34.25,4.91,72.52-25.03,87.9-71.74c7.67,0.13,16.33-3.79,23.01-11.07
																c10.6-11.59,12.24-27.45,3.53-35.29c-4.91-4.52-11.98-5.52-19.26-3.27c-0.73-45.8-22.53-82.94-54.89-88.37
																c-24.17-4.05-48.52,10.47-65.88,35.98c-10.69,15.68-18.7,35.5-22.36,57.69
																C1664.54,737.4,1688.45,790.4,1722.32,795.31z" class="colorffcfc5 svgShape"></path><path fill="#17161c" d="M1696.73,621.54c30.25,28.61,89.53,44.98,89.53,44.98s4.57,26.8,6.42,31.71
																c1.9,4.91,13.62,17.02,12.84,4.18c-0.73-12.84,11.98-28.48,11.98-28.48c7.28-2.24,14.35-1.25,19.26,3.27
																c8.7,7.84,7.07,23.7-3.53,35.29c-6.68,7.28-15.34,11.2-23.01,11.07l6.62,102.07c0,0,49.94,18.08,73.98-1.83
																c17.75-14.74,35.64-41.94,8.45-68.01c-27.19-26.07-21.19-120.99-41.61-165.58c-20.38-44.55-156.4-61.6-176.43-5.33
																C1675.02,602.34,1683.15,608.7,1696.73,621.54z" class="color161c1c svgShape"></path><polygon fill="#9888fc" points="1703.4 677.77 1684.88 729.19 1710.69 734.85" class="colorfc9b88 svgShape"></polygon><path d="M1829.15,1237.04c0,0,79.72,9.05,108.82,1.34c0.46-6.98,0.99-14.59,1.52-22.72c0.28-4.12,0.53-8.39,0.78-12.79
													C1938.32,1203.89,1875.97,1237.36,1829.15,1237.04z" fill="#000000" class="color000000 svgShape"></path><path fill="#ffffff" d="M1874.22,1327.23l-170.84,199.82c-15.68,18.34-43.25,20.49-61.58,4.81l-314.22-268.65
														c-18.32-15.67-20.48-43.22-4.81-61.54l170.88-199.87c15.67-18.32,43.22-20.48,61.54-4.81l314.22,268.65
														C1887.74,1281.32,1889.9,1308.89,1874.22,1327.23z" class="colorffffff svgShape"></path><path d="M1670.11,1544.17c-10.82,0-21.18-3.81-29.5-10.92l-314.22-268.64c-19.06-16.3-21.31-45.06-5.01-64.12
														l170.88-199.87c16.3-19.06,45.06-21.31,64.12-5.01l314.21,268.65c9.24,7.9,14.85,18.92,15.8,31.04
														c0.95,12.12-2.88,23.88-10.78,33.12l-170.84,199.82c-7.9,9.24-18.92,14.85-31.04,15.8
														C1672.52,1544.13,1671.31,1544.17,1670.11,1544.17z M1526.86,988.37c-11.81,0-23.56,4.96-31.82,14.63l-170.88,199.87
														c-14.98,17.53-12.92,43.98,4.61,58.97l314.22,268.64c8.5,7.27,19.33,10.82,30.46,9.91
														c11.15-0.87,21.28-6.03,28.55-14.53l170.84-199.82c7.26-8.5,10.79-19.31,9.91-30.46
														c-0.87-11.15-6.03-21.28-14.53-28.55l-314.22-268.65C1546.14,991.66,1536.47,988.37,1526.86,988.37z" fill="#000000" class="color000000 svgShape"></path><polygon fill="#1c04b5" points="1680.73 1461.83 1389.18 1212.57 1551.18 1174.51 1557.21 1252.12 1729.15 1224.79" class="color04b5a4 svgShape"></polygon><path fill="#674fff" d="M1638.04,1194.99c-10.88,17.77-35.51,19.69-49,3.79c-8.19-9.65-9.34-23.85-2.81-34.7
															c10.83-18.01,35.78-19.91,49.25-3.78C1643.59,1170.01,1644.65,1184.2,1638.04,1194.99z" class="colorffd24f svgShape"></path><path fill="#cdc5ff" d="M1860.09,1019.14c0,0-40.53,150.72-47.57,154.53c-7.04,3.82-194.85,126.17-194.85,126.17
													l31.16,60.91c0,0,172.43-43.93,236.83-96.22c42.35-34.39,93.67-197.09,93.67-197.09L1860.09,1019.14z" class="colorffcfc5 svgShape"></path><path fill="#674fff" d="M1917.63,880.98c0,0,60.41,29,69.6,95.6c7.29,52.79-24.79,139.02-24.79,139.02
													c-8.16,14.69-154.01-62.32-145.85-77.01c0,0,22.14-58.5,46.37-108.62C1877.77,899.35,1917.63,880.98,1917.63,880.98z" class="colorffd24f svgShape"></path><path fill="#cdc5ff" d="M1523.12,1364.41c2.61,8.71,12.98,0.71,21.07-3.15c-9.02,5.93-21.19,21.55-18.63,25.44
												c6.84,10.37,25.93-7.61,31.88-12.26c-5.63,4.68-18.86,22.9-15.72,25.86c5.88,5.43,22.66-8.51,30.56-14.17
												c-6.78,5.13-10.57,20.38-7.09,21.7c12.7,4.91,86.64-47.31,86.54-49.95c10.83-6.78-25.76-65.49-36.59-58.74
												c0,0-58.02,0.95-65.47,14.73c-7.45,13.78,28.12,10.17,28.12,10.17S1519.74,1352.94,1523.12,1364.41z" class="colorffcfc5 svgShape"></path><circle cx="1489.57" cy="427.93" r="103.34" fill="#ffffff" class="colorffffff svgShape"></circle><path fill="#c9c5e3" d="M1574.38,486.95c-32.6,46.86-97,58.41-143.82,25.79c-12.17-8.47-21.96-19.07-29.22-31
				c6.22,8.03,13.76,15.25,22.53,21.35c46.86,32.6,111.27,21.05,143.85-25.78c24.16-34.72,24.06-79.09,3.33-112.95
				C1598.22,399.15,1600.91,448.87,1574.38,486.95z" class="colorc5cde3 svgShape"></path><path d="M1489.43,533.06c-20.73,0-41.66-6.1-59.93-18.82c-47.59-33.12-59.36-98.79-26.24-146.38
				c33.13-47.6,98.79-59.36,146.39-26.24c47.59,33.13,59.36,98.79,26.24,146.39C1555.48,517.33,1522.71,533.06,1489.43,533.06z
				 M1489.72,326.46c-32.13,0-63.76,15.18-83.46,43.49c-31.97,45.94-20.61,109.33,25.33,141.3c45.94,31.97,109.33,20.61,141.3-25.32
				c31.97-45.94,20.61-109.33-25.33-141.31C1529.93,332.35,1509.73,326.46,1489.72,326.46z" fill="#000000" class="color000000 svgShape"></path><path fill="#7764f0" d="M1561.69,449.14c-5.5,18.7-17.63,33.64-33.06,43.03c-17.47,10.6-39.13,14.1-60.26,7.88
					c-21.13-6.21-37.45-20.88-46.4-39.25c-7.89-16.25-10.01-35.38-4.51-54.08c11.71-39.83,53.5-62.62,93.33-50.91
					C1550.61,367.53,1573.4,409.31,1561.69,449.14z" class="color444ba1 svgShape"></path><circle cx="1497.24" cy="401.85" r="19.9" fill="#ffffff" class="colorffffff svgShape"></circle><path fill="#ffffff" d="M1520.46,474.22c-13.41,8.14-30.05,10.82-46.27,6.05c-16.23-4.77-28.76-16.03-35.63-30.14
					c9.14-18.53,30.56-28.4,51.07-22.37C1510.13,433.79,1522.8,453.69,1520.46,474.22z" class="colorffffff svgShape"></path><circle cx="388.84" cy="447.82" r="89.17" fill="#ffffff" class="colorffffff svgShape"></circle><path fill="#c9c5e3" d="M477.88,443.12c2.61,49.19-35.15,91.17-84.33,93.74c-12.78,0.67-25.06-1.36-36.33-5.64
				c8.49,2.18,17.45,3.1,26.66,2.61c49.19-2.61,86.96-44.59,84.36-93.75c-1.92-36.45-25.49-66.63-57.55-78.72
				C447.62,370.67,475.78,403.13,477.88,443.12z" class="colorc5cde3 svgShape"></path><path d="M388.73,538.83c-22.5,0-43.91-8.2-60.76-23.36c-18.07-16.26-28.73-38.58-30.01-62.86
				c-2.64-50.11,35.97-93.03,86.08-95.67c24.27-1.33,47.59,6.96,65.66,23.22c18.07,16.26,28.73,38.58,30.01,62.86
				c2.64,50.11-35.97,93.03-86.08,95.67C391.99,538.79,390.36,538.83,388.73,538.83z M388.95,360.47c-1.57,0-3.14,0.04-4.71,0.12
				c-48.1,2.54-85.16,43.73-82.62,91.83c1.23,23.3,11.46,44.73,28.8,60.33c17.34,15.6,39.71,23.52,63.03,22.29
				c48.1-2.54,85.16-43.74,82.62-91.83c-1.23-23.3-11.46-44.73-28.8-60.33C431.09,368.34,410.54,360.47,388.95,360.47z" fill="#000000" class="color000000 svgShape"></path><path fill="#5b41ff" d="M449.21,424.08c6.16,15.65,5.8,32.26,0.26,46.83c-6.29,16.47-19.2,30.33-36.88,37.29
					c-17.69,6.96-36.58,5.61-52.4-2.17c-13.98-6.89-25.56-18.81-31.71-34.46c-13.11-33.34,3.28-71,36.62-84.11
					C398.43,374.34,436.09,390.74,449.21,424.08z" class="colorff4148 svgShape"></path><circle cx="380.25" cy="425.99" r="17.17" fill="#ffffff" class="colorffffff svgShape"></circle><path fill="#ffffff" d="M434.39,463c-4.83,12.65-14.74,23.29-28.32,28.63c-13.58,5.34-28.09,4.31-40.24-1.66
					c-3.59-17.47,5.78-35.54,22.95-42.29C405.95,440.93,425.12,447.77,434.39,463z" class="colorffffff svgShape"></path><circle cx="593.8" cy="1294.3" r="108.11" fill="#ffffff" class="colorffffff svgShape"></circle><path fill="#c9c5e3" d="M696.9,1261.82c17.96,56.96-13.67,117.67-70.62,135.58c-14.8,4.65-29.83,5.99-44.35,4.37
				c10.63-0.01,21.43-1.64,32.09-5c56.96-17.96,88.58-78.67,70.64-135.6c-13.29-42.21-50.1-70.5-91.39-74.99
				C639.45,1185.93,682.33,1215.5,696.9,1261.82z" class="colorc5cde3 svgShape"></path><path d="M593.67,1404.28c-17.45,0-34.75-4.2-50.67-12.49c-26.04-13.57-45.24-36.46-54.06-64.47
				c-18.21-57.82,14.01-119.68,71.83-137.88c57.83-18.2,119.67,14.02,137.88,71.83c18.21,57.82-14.02,119.67-71.83,137.88
				C615.94,1402.59,604.77,1404.28,593.67,1404.28z M593.73,1188c-10.55,0-21.27,1.58-31.86,4.92
				c-55.9,17.61-87.05,77.41-69.45,133.3c8.53,27.08,27.09,49.21,52.27,62.33c25.18,13.12,53.95,15.64,81.03,7.12
				c55.9-17.61,87.05-77.4,69.45-133.3C680.9,1217.06,638.9,1188,593.73,1188z" fill="#000000" class="color000000 svgShape"></path><path fill="#1c04b5" d="M657.48,1248.14c11.97,16.51,16.58,36.11,14.48,54.89c-2.39,21.24-13.35,41.41-32.01,54.94
					c-18.66,13.52-41.24,17.66-62.17,13.32c-18.5-3.86-35.69-14.34-47.66-30.85c-25.49-35.17-17.64-84.34,17.53-109.83
					C582.82,1205.13,631.99,1212.98,657.48,1248.14z" class="color04b5a4 svgShape"></path><circle cx="577.11" cy="1271.27" r="20.82" fill="#ffffff" class="colorffffff svgShape"></circle><path fill="#ffffff" d="M651.87 1298.32c-1.84 16.31-10.25 31.8-24.58 42.18-14.33 10.38-31.67 13.56-47.74 10.23-9.5-19.42-3.97-43.47 14.14-56.59C611.8 1281.02 636.38 1283.25 651.87 1298.32zM1189.69 1277.25l-18.55 13.7c-4.47 3.3-10.58 3.11-14.83-.46l-7.68-6.45c-3.11-2.61-7.35-3.43-11.25-2.26-3.11.94-6.24 1.72-9.42 2.33-3.99.78-7.36 3.47-8.9 7.26l-3.77 9.28c-2.07 5.14-7.41 8.18-12.88 7.34l-22.85-3.42c-5.47-.84-9.66-5.31-10.15-10.81l-.85-9.99c-.35-4.07-2.78-7.64-6.38-9.58-2.84-1.51-5.61-3.19-8.32-4.97-3.39-2.29-7.66-2.75-11.42-1.15l-9.22 3.89c-5.11 2.15-11.01.53-14.3-3.93l-13.71-18.57c-3.28-4.45-3.11-10.58.47-14.81l6.43-7.67c2.63-3.12 3.43-7.35 2.26-11.25-.92-3.13-1.71-6.27-2.32-9.43-.79-4.01-3.47-7.36-7.26-8.9l-9.3-3.76c-5.13-2.1-8.16-7.42-7.36-12.9l3.46-22.84c.81-5.47 5.29-9.68 10.81-10.15l9.98-.87c4.07-.35 7.66-2.77 9.56-6.37 1.54-2.84 3.19-5.61 5-8.31 2.27-3.38 2.75-7.66 1.15-11.42l-3.89-9.22c-2.15-5.11-.55-11.03 3.92-14.32l18.55-13.7c4.47-3.3 10.59-3.09 14.84.47l7.67 6.43c3.12 2.63 7.35 3.43 11.25 2.26 3.11-.94 6.25-1.7 9.42-2.33 4-.76 7.36-3.47 8.9-7.26l3.77-9.28c2.07-5.14 7.41-8.18 12.88-7.34l22.85 3.42c5.47.84 9.66 5.31 10.16 10.83l.85 9.99c.35 4.07 2.77 7.62 6.36 9.56 2.85 1.51 5.61 3.19 8.33 4.99 3.38 2.27 7.66 2.75 11.42 1.15l9.22-3.89c5.09-2.17 11.03-.55 14.31 3.9l13.71 18.57c3.3 4.46 3.09 10.59-.47 14.84l-6.43 7.67c-2.63 3.12-3.45 7.34-2.26 11.25.91 3.11 1.7 6.25 2.3 9.41.79 4 3.49 7.38 7.28 8.92l9.3 3.76c5.12 2.08 8.15 7.4 7.34 12.88l-3.46 22.84c-.81 5.47-5.29 9.68-10.81 10.15l-9.98.87c-4.07.35-7.62 2.77-9.56 6.37-1.53 2.86-3.19 5.61-5 8.31-2.27 3.38-2.73 7.68-1.15 11.42l3.91 9.24C1195.77 1268.05 1194.15 1273.95 1189.69 1277.25z" class="colorffffff svgShape"></path><path fill="#25242b" d="M1104.25,1309.97c-0.7,0-1.41-0.05-2.12-0.16l-22.84-3.43c-6.33-0.97-11.14-6.09-11.69-12.46l-0.85-10
				c-0.29-3.42-2.32-6.46-5.42-8.13c-2.71-1.43-5.48-3.09-8.46-5.06c-2.91-1.97-6.53-2.33-9.7-1l-9.22,3.89
				c-5.9,2.49-12.67,0.63-16.48-4.53l-13.71-18.57c-3.81-5.16-3.59-12.18,0.55-17.07l6.43-7.66c2.21-2.62,2.92-6.19,1.91-9.55
				c-1-3.39-1.77-6.53-2.36-9.61c-0.68-3.44-2.98-6.26-6.15-7.54l-9.3-3.76c-5.93-2.43-9.41-8.54-8.48-14.86l3.46-22.85
				c0.93-6.34,6.06-11.15,12.46-11.69l9.97-0.87c3.44-0.3,6.47-2.31,8.1-5.4c1.69-3.12,3.36-5.89,5.11-8.48
				c1.95-2.91,2.32-6.53,0.99-9.68l-3.89-9.22c-2.5-5.92-0.64-12.7,4.51-16.5l18.55-13.7c5.15-3.8,12.18-3.58,17.1,0.55l7.67,6.43
				c2.62,2.21,6.19,2.92,9.55,1.91c2.99-0.91,6.13-1.68,9.59-2.38c3.45-0.65,6.27-2.95,7.56-6.16l3.77-9.28
				c2.4-5.95,8.53-9.45,14.85-8.46l22.84,3.43c6.32,0.97,11.13,6.1,11.71,12.47l0.85,10c0.29,3.41,2.31,6.44,5.41,8.1
				c2.78,1.47,5.55,3.14,8.48,5.08c2.92,1.96,6.54,2.33,9.69,0.99l9.23-3.89c5.89-2.51,12.68-0.66,16.49,4.5l13.71,18.57
				c3.8,5.15,3.58,12.18-0.54,17.1l-6.44,7.67c-2.21,2.63-2.92,6.2-1.91,9.54c1,3.43,1.77,6.56,2.35,9.6
				c0.68,3.45,2.99,6.28,6.17,7.56l9.3,3.76c5.92,2.41,9.4,8.52,8.47,14.84l-3.46,22.85c-0.94,6.34-6.06,11.15-12.46,11.69
				l-9.97,0.87c-3.41,0.29-6.44,2.32-8.11,5.41c-1.55,2.91-3.22,5.68-5.1,8.47c-1.95,2.9-2.32,6.52-0.99,9.69l3.9,9.24
				c2.49,5.9,0.63,12.68-4.53,16.48l-18.55,13.7c-5.15,3.8-12.18,3.59-17.08-0.53l-7.68-6.45c-2.62-2.2-6.19-2.91-9.55-1.91
				c-3.2,0.97-6.34,1.75-9.6,2.38c-3.44,0.67-6.26,2.97-7.55,6.15l-3.77,9.28C1114.86,1306.63,1109.8,1309.97,1104.25,1309.97z
				 M1047.08,1265.3c2.73,0,5.45,0.81,7.81,2.41c2.86,1.89,5.53,3.48,8.15,4.87c4.2,2.27,6.94,6.39,7.34,11.04l0.85,9.99
				c0.41,4.68,3.95,8.45,8.6,9.16l22.84,3.43c4.66,0.7,9.15-1.84,10.91-6.22l3.77-9.29c1.75-4.33,5.58-7.46,10.24-8.37
				c3.14-0.61,6.16-1.36,9.24-2.29c4.54-1.36,9.38-0.39,12.96,2.61l7.68,6.45c3.61,3.03,8.77,3.19,12.56,0.39l18.55-13.7
				c3.79-2.8,5.16-7.78,3.33-12.12l-3.9-9.24c-1.81-4.3-1.32-9.21,1.32-13.15c1.81-2.69,3.42-5.35,4.91-8.15
				c2.26-4.19,6.37-6.92,11.02-7.32l9.97-0.87c4.71-0.4,8.47-3.93,9.16-8.59l3.46-22.85c0.69-4.65-1.87-9.14-6.23-10.91l-9.29-3.75
				c-4.33-1.75-7.46-5.58-8.38-10.26c-0.56-2.94-1.3-5.96-2.26-9.25c-1.37-4.52-0.39-9.36,2.62-12.94l6.43-7.66
				c3.03-3.62,3.2-8.79,0.4-12.58l-13.71-18.57c-2.8-3.79-7.78-5.15-12.12-3.3l-9.23,3.89c-4.29,1.82-9.21,1.33-13.14-1.32
				c-2.82-1.87-5.49-3.48-8.17-4.9c-4.19-2.26-6.93-6.37-7.33-11.01l-0.85-9.99c-0.42-4.69-3.96-8.47-8.62-9.18l-22.84-3.43
				c-4.67-0.7-9.15,1.85-10.91,6.22l-3.77,9.29c-1.77,4.35-5.6,7.48-10.25,8.37c-3.33,0.67-6.35,1.42-9.23,2.29
				c-4.54,1.37-9.38,0.4-12.96-2.61l-7.66-6.43c-3.62-3.03-8.79-3.2-12.58-0.4l-18.55,13.7c-3.79,2.79-5.15,7.79-3.32,12.14
				l3.89,9.22c1.82,4.29,1.32,9.21-1.32,13.15c-1.68,2.49-3.29,5.16-4.92,8.17c-2.21,4.17-6.33,6.91-11.01,7.31l-9.98,0.87
				c-4.71,0.4-8.47,3.93-9.16,8.59l-3.46,22.85c-0.69,4.65,1.88,9.14,6.24,10.93l9.29,3.75c4.32,1.75,7.45,5.58,8.37,10.24
				c0.57,2.97,1.31,6,2.28,9.27c1.37,4.54,0.39,9.38-2.61,12.94l-6.43,7.66c-3.04,3.6-3.2,8.75-0.4,12.55l13.71,18.57
				c2.8,3.79,7.79,5.17,12.12,3.33l9.22-3.89C1043.46,1265.65,1045.27,1265.3,1047.08,1265.3z" class="color242b2b svgShape"></path><circle cx="1108.92" cy="1187.25" r="72.36" fill="#c9c5e3" class="colorc5cde3 svgShape"></circle><circle cx="1108.92" cy="1187.25" r="54.02" fill="#ffffff" class="colorffffff svgShape"></circle><path fill="#25242b" d="M1109.03,1243.12c-2.8,0-5.61-0.21-8.43-0.64c-14.75-2.22-27.76-10.05-36.62-22.06s-12.52-26.74-10.3-41.49
				c2.22-14.75,10.06-27.76,22.06-36.62c24.77-18.29,59.81-13.02,78.1,11.76c8.86,12,12.52,26.74,10.3,41.49
				c-2.22,14.75-10.06,27.76-22.06,36.62l0,0C1132.38,1239.36,1120.88,1243.12,1109.03,1243.12z M1108.85,1135.08
				c-10.77,0-21.63,3.31-30.94,10.19c-11.22,8.28-18.54,20.43-20.61,34.22c-2.08,13.79,1.34,27.56,9.62,38.78
				c8.28,11.22,20.43,18.54,34.22,20.61c13.78,2.07,27.56-1.35,38.77-9.63l0,0c11.22-8.28,18.54-20.43,20.61-34.22
				c2.08-13.79-1.34-27.56-9.62-38.78C1140.69,1142.41,1124.87,1135.08,1108.85,1135.08z" class="color242b2b svgShape"></path><circle cx="846.34" cy="403.03" r="124.64" fill="#ffffff" class="colorffffff svgShape"></circle><path d="M846.42,529.52c-53.7,0-103.64-34.5-120.67-88.35l0,0c-21.02-66.49,15.97-137.69,82.46-158.72
				c66.48-21.03,137.69,15.97,158.72,82.46c21.03,66.49-15.96,137.69-82.46,158.72C871.83,527.62,859.02,529.52,846.42,529.52z
				 M729.24,440.06c20.42,64.57,89.57,100.48,154.13,80.08c64.57-20.42,100.49-89.56,80.08-154.13
				c-20.42-64.56-89.56-100.48-154.13-80.08C744.74,306.35,708.82,375.49,729.24,440.06L729.24,440.06z" fill="#000000" class="color000000 svgShape"></path><path fill="#ffffff" d="M817.25,496.37l50.7,44.36c5.06,4.45,12.98,2.48,15.41-3.79l24.27-62.82" class="colorffffff svgShape"></path><path d="M874.27,544.97c-2.74,0-5.39-0.99-7.53-2.87l-50.69-44.35l2.41-2.75l50.7,44.35c1.96,1.72,4.52,2.35,7.04,1.73
				c2.53-0.62,4.53-2.37,5.47-4.8l24.27-62.82l3.41,1.32l-24.27,62.82c-1.36,3.51-4.36,6.14-8.01,7.03
				C876.12,544.85,875.19,544.97,874.27,544.97z" fill="#000000" class="color000000 svgShape"></path><circle cx="424.16" cy="997.1" r="124.64" fill="#ffffff" class="colorffffff svgShape"></circle><path d="M423.9,1123.6c-25.29,0-49.97-7.6-71.28-22.22c-27.86-19.11-46.6-47.93-52.79-81.14c-6.18-33.21,0.94-66.85,20.05-94.7
				c19.11-27.86,47.92-46.6,81.13-52.79c33.21-6.18,66.84,0.93,94.7,20.05c27.86,19.11,46.6,47.93,52.79,81.13
				c6.18,33.21-0.94,66.84-20.05,94.7c-19.11,27.86-47.92,46.6-81.13,52.79C439.51,1122.88,431.67,1123.6,423.9,1123.6z
				 M424.42,874.24c-7.55,0-15.16,0.7-22.74,2.11c-32.25,6-60.23,24.21-78.79,51.26c-18.56,27.05-25.47,59.71-19.47,91.96
				c6,32.25,24.21,60.24,51.26,78.79c27.05,18.56,59.72,25.48,91.96,19.46c32.25-6,60.23-24.21,78.79-51.26l0,0
				c18.56-27.05,25.47-59.71,19.47-91.96c-6-32.25-24.21-60.24-51.26-78.79C472.95,881.63,448.98,874.24,424.42,874.24z" fill="#000000" class="color000000 svgShape"></path><path fill="#ffffff" d="M531.66,962.74l10.11-66.6c1.02-6.66-4.89-12.27-11.49-10.95l-66.01,13.34" class="colorffffff svgShape"></path><path d="M533.46,963.02l-3.61-0.55l10.11-66.6c0.39-2.57-0.46-5.07-2.33-6.86c-1.89-1.81-4.43-2.54-6.99-2.03l-66.01,13.34
				l-0.72-3.58l66.01-13.34c3.69-0.74,7.52,0.37,10.24,2.97c2.75,2.63,3.99,6.29,3.42,10.05L533.46,963.02z" fill="#000000" class="color000000 svgShape"></path><g fill="#000000" class="color000000 svgShape"><path fill="#5b41ff" d="M882.24,407.68l-40.68,30.09c-9.09,6.72-21.96,0.23-21.96-11.07v-60.16c0-11.31,12.87-17.8,21.96-11.08
				l40.68,30.07C889.68,391.04,889.68,402.18,882.24,407.68z" class="colorff4148 svgShape"></path></g><g fill="#000000" class="color000000 svgShape"><path fill="#25242b" d="M445.24,1054.39l-73.3-49.09c-1.01-0.68-1.62-1.82-1.62-3.04c0-1.22,0.61-2.36,1.62-3.04l73.3-49.13
				l4.07,6.07l-68.77,46.09l68.77,46.06L445.24,1054.39z" class="color242b2b svgShape"></path></g><g fill="#000000" class="color000000 svgShape"><circle cx="447.27" cy="954.65" r="20.7" fill="#1c04b5" class="color04b5a4 svgShape"></circle><path d="M447.27,977.18c-12.42,0-22.53-10.11-22.53-22.53c0-12.42,10.11-22.53,22.53-22.53c12.42,0,22.53,10.11,22.53,22.53
					C469.8,967.07,459.69,977.18,447.27,977.18z M447.27,935.78c-10.41,0-18.88,8.47-18.88,18.88s8.47,18.87,18.88,18.87
					c10.41,0,18.87-8.47,18.87-18.87S457.68,935.78,447.27,935.78z" fill="#000000" class="color000000 svgShape"></path></g><g fill="#000000" class="color000000 svgShape"><circle cx="373.97" cy="1002.25" r="20.7" fill="#674fff" class="colorffd24f svgShape"></circle><path d="M373.97,1024.78c-12.42,0-22.53-10.11-22.53-22.53s10.11-22.53,22.53-22.53c12.42,0,22.53,10.11,22.53,22.53
				S386.4,1024.78,373.97,1024.78z M373.97,983.37c-10.41,0-18.87,8.47-18.87,18.88s8.47,18.88,18.87,18.88
				c10.41,0,18.88-8.47,18.88-18.88S384.38,983.37,373.97,983.37z" fill="#000000" class="color000000 svgShape"></path></g><g fill="#000000" class="color000000 svgShape"><circle cx="448.48" cy="1049.82" r="20.7" fill="#5b41ff" class="colorff4148 svgShape"></circle><path d="M448.48,1072.35c-12.42,0-22.53-10.11-22.53-22.53c0-12.42,10.11-22.53,22.53-22.53c12.42,0,22.53,10.11,22.53,22.53
					C471.01,1062.24,460.9,1072.35,448.48,1072.35z M448.48,1030.95c-10.41,0-18.87,8.47-18.87,18.87s8.47,18.88,18.87,18.88
					c10.41,0,18.88-8.47,18.88-18.88S458.89,1030.95,448.48,1030.95z" fill="#000000" class="color000000 svgShape"></path></g><g fill="#000000" class="color000000 svgShape"><path fill="#120088" d="M1041.49,1892.54c0,0,28.52-16.46,32.36-44.43c3.84-27.98-41.69-46.08-41.69-46.08s10.42,52.66-2.74,52.11
				c-13.17-0.55-8.23-59.79-8.23-59.79s-41.14-20.3-65.28-20.3c0,0,24.69,46.63,15.36,51.02s-41.69-53.76-41.69-53.76
				s-34.01-14.26-56.5,13.71s6.58,55.95,6.58,55.95s50.47-3.29,54.86,7.68c4.39,10.97-47.72,10.42-47.72,10.42
				s23.04,43.88,38.4,48.82c15.36,4.94,35.33-25.23,51.08-27.43c16.25-2.26,31.75,3.29,27.91,11.52
				c-3.84,8.23-48.27,10.54-54.85,35.22C949.34,1927.21,1020.64,1952.33,1041.49,1892.54z" class="color00887d svgShape"></path></g><g fill="#000000" class="color000000 svgShape"><path d="M1072.26,2062.09c-0.1-1.35-9.78-135.31-32.29-168.53c-22.49-33.19-124.92-79.53-125.95-80l1.5-3.33
				c4.25,1.91,104.42,47.23,127.48,81.28c23.05,34.03,32.51,164.78,32.9,170.32L1072.26,2062.09z" fill="#000000" class="color000000 svgShape"></path></g><g fill="#000000" class="color000000 svgShape"><path fill="#120088" d="M1146.72,1963.35c0,0-25.42-19.42-24.72-44.32c0.7-24.9,48.36-32.28,48.36-32.28s-18.67,43.66-5.63,45.58
				c13.03,1.92,17.65-50.23,17.65-50.23s43.7-10.08,67.44-5.7c0,0-31.73,35.85-23.26,41.34c8.47,5.49,49.59-38.93,49.59-38.93
				s35.72-6.16,53.37,22.13c17.64,28.29-15.42,47.21-15.42,47.21s-49.1-12.02-55.17-3.33c-6.07,8.69,45.26,17.69,45.26,17.69
				s-29.67,33.78-45.56,35.26c-15.89,1.48-30.71-28.25-45.85-33.01c-15.62-4.91-31.75-2.92-29.28,4.89s45.78,17.89,48.3,40.44
				C1231.79,2010.09,1157.66,2018.86,1146.72,1963.35z" class="color00887d svgShape"></path></g><g fill="#000000" class="color000000 svgShape"><path d="M1116.25,2053.69l-3.65-0.24c0.17-2.68,4.57-66.02,32.89-91.46c28.14-25.28,133.88-46.28,138.37-47.16l0.7,3.58
				c-1.09,0.21-109.23,21.69-136.63,46.3C1120.73,1989.15,1116.29,2053.04,1116.25,2053.69z" fill="#000000" class="color000000 svgShape"></path></g><g fill="#000000" class="color000000 svgShape"><path fill="#1c04b5" d="M1095.57,1916.2c0,0-36.95-21.32-41.93-57.56s54.01-59.69,54.01-59.69s-13.5,68.22,3.55,67.51
				c17.06-0.71,10.66-77.46,10.66-77.46s53.3-26.29,84.57-26.29c0,0-31.98,60.41-19.9,66.09c12.08,5.69,54.01-69.64,54.01-69.64
				s44.06-18.48,73.2,17.77c29.14,36.24-8.53,72.49-8.53,72.49s-65.38-4.26-71.07,9.95c-5.69,14.21,61.83,13.5,61.83,13.5
				s-29.85,56.85-49.75,63.25s-45.77-32.69-66.18-35.53c-21.05-2.93-41.13,4.26-36.15,14.92c4.97,10.66,74.62,7.11,83.15,39.09
				C1227.04,1954.57,1122.58,1993.66,1095.57,1916.2z" class="color04b5a4 svgShape"></path></g><g fill="#000000" class="color000000 svgShape"><path d="M1073.86,2055.67c-0.41-3.92-9.68-96.4,20.2-140.5c29.8-43.99,159.42-102.63,164.93-105.11l1.5,3.33
				c-1.34,0.6-134.18,60.69-163.4,103.82c-29.13,43-19.69,137.13-19.59,138.07L1073.86,2055.67z" fill="#000000" class="color000000 svgShape"></path></g><g fill="#000000" class="color000000 svgShape"><path fill="#ffffff" d="M1202.07,2038.07v24.47c0,3.94-3.18,7.11-7.11,7.11h-192.43c-3.94,0-7.11-3.18-7.11-7.11v-24.47
					c0-3.94,3.18-7.11,7.11-7.11h192.43C1198.89,2030.95,1202.07,2034.13,1202.07,2038.07z" class="colorffffff svgShape"></path><path fill="#25242b" d="M1194.95,2071.48h-192.43c-4.93,0-8.94-4.01-8.94-8.94v-24.48c0-4.93,4.01-8.94,8.94-8.94h192.43
					c4.93,0,8.94,4.01,8.94,8.94v24.48C1203.9,2067.47,1199.88,2071.48,1194.95,2071.48z M1002.52,2032.78
					c-2.92,0-5.29,2.37-5.29,5.29v24.48c0,2.92,2.37,5.29,5.29,5.29h192.43c2.92,0,5.29-2.37,5.29-5.29v-24.48
					c0-2.92-2.37-5.29-5.29-5.29H1002.52z" class="color242b2b svgShape"></path></g><g fill="#000000" class="color000000 svgShape"><path fill="#ffffff" d="M1187.55,2069.67l-15.8,140.58c-0.74,6.48-6.23,11.38-12.75,11.38h-118.77c-4.46,0-8.44-2.28-10.79-5.78
				c-1.03-1.66-1.73-3.54-1.95-5.6l-14.07-125.07l-1.73-15.51H1187.55z" class="colorffffff svgShape"></path></g><g fill="#000000" class="color000000 svgShape"><path fill="#e9e5ff" d="M1187.55,2069.67l-15.8,140.58c-0.74,6.48-6.23,11.38-12.75,11.38h-118.77c-4.46,0-8.44-2.28-10.79-5.78
				c80.38-21.37,115.28-63.92,134.98-131.11l-151,0.44l-1.73-15.51H1187.55z" class="colore5e8ff svgShape"></path></g><g fill="#000000" class="color000000 svgShape"><path fill="#25242b" d="M1159,2223.45h-118.77c-4.93,0-9.53-2.46-12.31-6.59c-1.27-2.03-2.01-4.18-2.25-6.42l-16.03-142.6h179.96
				l-16.03,142.61C1172.72,2217.86,1166.46,2223.45,1159,2223.45z M1013.73,2071.49l15.58,138.55c0.18,1.71,0.75,3.33,1.69,4.84
				c2.06,3.06,5.53,4.92,9.24,4.92H1159c5.6,0,10.3-4.2,10.93-9.76l15.57-138.54H1013.73z" class="color242b2b svgShape"></path></g></svg>