<svg xmlns="http://www.w3.org/2000/svg" xmlns:xlink="http://www.w3.org/1999/xlink" enable-background="new 0 0 3345.427 2119.756" viewBox="0 0 3345.427 2119.756" id="CustomerUseGameConsole"><defs><path id="a" d="M0 0h3345.427v2119.756H0z" fill="#000000" class="color000000 svgShape"></path></defs><clipPath id="b"><use overflow="visible" xlink:href="#a"></use></clipPath><g clip-path="url(#b)" fill="#000000" class="color000000 svgShape"><ellipse cx="1721.844" cy="1554.197" fill="#6a5cc6" rx="466.517" ry="27.143" class="color5cbec6 svgShape"></ellipse><path fill="#d2d1db" d="M1619.459 1181.038c-1.791 12.802 8.16 24.227 21.087 24.207l247.986-.373c9.142-.014 17.297-7.486 17.449-16.628.158-9.488-7.493-17.22-16.94-17.206l-237.225.357 7.408-109.62h-32.246l-7.519 119.263z" class="colord1dbdb svgShape"></path><path fill="#634aff" d="m1933.581 901.638-331.643.499h-32.607l57.646 159.638h32.246l232.968-.351a18.248 18.248 0 0 0 17.503-13.181l37.244-128.868c2.569-8.885-4.107-17.751-13.357-17.737zm-258.086 125.394c-10.542 2.127-20.812-4.695-22.94-15.237l-12.444-61.678c-2.127-10.543 4.695-20.813 15.238-22.941 10.543-2.127 20.813 4.695 22.94 15.237l12.444 61.678c2.128 10.543-4.694 20.814-15.238 22.941zm111.922-16.18c0 10.413-8.519 18.932-18.932 18.932-10.412 0-18.932-8.519-18.932-18.932V945.72c0-10.413 8.519-18.932 18.932-18.932 10.413 0 18.932 8.519 18.932 18.932v65.132zm104.033-63.605-5.252 62.7c-.897 10.718-10.313 18.678-21.03 17.781-10.719-.897-18.679-10.314-17.782-21.032l5.252-62.701c.898-10.717 10.313-18.678 21.031-17.781 10.718.898 18.679 10.314 17.781 21.033zM1549.637 820.386l-32.994.1c-8.039.012-14.547 6.539-14.534 14.578.012 8.039 6.538 14.546 14.578 14.534l33.637-.101v-29.099c-.23-.004-.458-.012-.687-.012z" class="colorff5f4a svgShape"></path><path fill="#d2d1db" d="M1577.349 839.273a29.705 29.705 0 0 0-27.026-18.874v29.099l19.009 52.64h32.607l-24.59-62.865z" class="colord1dbdb svgShape"></path><path fill="#5b49ce" d="m1888.564 981.707-2.365 28.24c-.897 10.718-10.313 18.678-21.03 17.781-10.719-.897-18.679-10.314-17.782-21.032l2.093-24.99h-62.063v29.145c0 10.413-8.519 18.932-18.932 18.932-10.412 0-18.932-8.519-18.932-18.932v-29.145h-63.336l4.517 22.385c2.128 10.543-4.695 20.814-15.238 22.941-10.542 2.127-20.812-4.695-22.94-15.237l-6.071-30.088h-48.42l28.913 80.068h32.246l232.968-.351a18.248 18.248 0 0 0 17.503-13.181l19.23-66.536h-40.361z" class="colorce4949 svgShape"></path><circle cx="1637.758" cy="1241.837" r="24.785" fill="#464359" class="color434a59 svgShape"></circle><path fill="#d2d1db" d="M1648.693 1241.82c.009 6.039-4.879 10.942-10.918 10.951-6.039.009-10.943-4.879-10.952-10.919-.009-6.039 4.879-10.942 10.918-10.951 6.04-.008 10.943 4.88 10.952 10.919z" class="colord1dbdb svgShape"></path><path fill="#d2d1db" d="M1637.764 1250.504a8.665 8.665 0 0 1-8.405-10.797l10.236-40.349a8.665 8.665 0 0 1 16.797 4.261l-10.236 40.349a8.668 8.668 0 0 1-8.392 6.536z" class="colord1dbdb svgShape"></path><path fill="#464359" d="M1896.887 1241.8c.021 13.688-11.059 24.801-24.748 24.822-13.688.021-24.801-11.059-24.822-24.747-.021-13.688 11.059-24.801 24.747-24.822 13.69-.022 24.803 11.058 24.823 24.747z" class="color434a59 svgShape"></path><path fill="#d2d1db" d="M1883.038 1241.82c.009 6.039-4.879 10.942-10.919 10.951-6.039.009-10.942-4.879-10.951-10.919-.009-6.039 4.879-10.942 10.919-10.951 6.038-.008 10.941 4.88 10.951 10.919z" class="colord1dbdb svgShape"></path><path fill="#d2d1db" d="M1871.525 1250.504a8.665 8.665 0 0 0 8.405-10.797l-10.236-40.349a8.665 8.665 0 0 0-16.797 4.261l10.236 40.349a8.67 8.67 0 0 0 8.392 6.536z" class="colord1dbdb svgShape"></path><path fill="#5a41f7" d="M2231.144 1085.929c2.18-8.745-3.142-17.603-11.887-19.783l-79.631-19.854c-7.296-1.819-12.247-8.43-12.244-15.949v-.13c0-9.873-.346-19.667-1.021-29.372-.526-7.557 3.999-14.536 11.204-16.877l77.936-25.323c8.572-2.785 13.263-11.992 10.478-20.564l-41.742-128.473 15.261-20.855h-31.033a16.237 16.237 0 0 0-7.991.533l-78.072 25.367c-7.199 2.339-14.958-.644-18.979-7.057a422.668 422.668 0 0 0-34.096-46.88c-4.67-5.574-5.277-13.486-1.29-19.569l52.026-79.383c4.941-7.539 2.835-17.655-4.704-22.596l-108.094-70.844c4.173-2.707 7.306-6.409 7.528-11.454h-28.356c-5.867-.596-11.856 2.007-15.312 7.281l-46.192 70.482c-4.329 6.605-12.714 9.04-20.029 6.067a416.733 416.733 0 0 0-56.174-18.314c-7.352-1.832-12.599-8.29-12.599-15.867v-81.944c0-9.013-7.307-16.32-16.32-16.32h-145.436c-9.013 0-16.32 7.307-16.32 16.32v81.935c0 7.581-5.251 14.044-12.607 15.877a417.001 417.001 0 0 0-28.263 8.108c-7.213 2.348-15.094-.35-19.114-6.783l-34.5-55.21 7.999-21.721h-28.142c-3.772-.615-7.771.068-11.267 2.253l-123.334 77.071c-7.644 4.776-9.968 14.845-5.192 22.488l43.549 69.692c4.018 6.43 2.993 14.695-2.276 20.146a423.223 423.223 0 0 0-19.63 21.76c-4.875 5.796-12.977 7.673-19.783 4.353l-54.319-26.493 3.367-11.056h-28.096l.012.014c-6.712-.811-13.495 2.617-16.626 9.035l-63.753 130.717c-3.951 8.101-.587 17.871 7.514 21.822l73.641 35.917c6.814 3.323 10.323 10.873 8.747 18.289a417.92 417.92 0 0 0-5.098 28.959c-1.051 7.51-6.93 13.413-14.473 14.205l-81.5 8.566c-8.964.942-15.467 8.973-14.525 17.937l15.205 144.639c.819 7.788 6.989 13.711 14.472 14.515l-.007.003h.029c1.108.118 2.243.127 3.395.009l29.62.077-3.522-2.817 55.454-5.828c7.535-.792 14.509 3.748 17.103 10.866a417.79 417.79 0 0 0 11.029 27.242c3.094 6.929 1.236 15.054-4.744 19.726l-64.599 50.471c-7.103 5.549-8.362 15.806-2.812 22.908l89.542 114.604c3.451 4.417 8.722 6.57 13.922 6.236l-.001.002h31.759l-10.098-13.327 52.056-40.671c5.978-4.67 14.309-4.511 20.282.165a422.096 422.096 0 0 0 23.703 17.262c6.271 4.242 8.982 12.102 6.392 19.217l-28.083 77.157c-3.083 8.47 1.284 17.835 9.754 20.917l136.665 49.742a16.222 16.222 0 0 0 10.079.335h30.454l-20.599-7.941a16.3 16.3 0 0 0 .983-2.148l28.029-77.01c2.592-7.121 9.729-11.401 17.265-10.612a421.631 421.631 0 0 0 29.339 2.04c7.576.262 14.057 5.493 15.633 12.908l17.042 80.177c1.654 7.784 8.605 13.073 16.277 12.918l-.006.005h31.179l-4.783-5.307 118.946-25.282c8.816-1.874 14.444-10.54 12.57-19.356l-17.047-80.202c-1.574-7.404 2.205-14.806 9.001-18.137a419.723 419.723 0 0 0 25.899-13.843c6.567-3.81 14.849-2.81 20.123 2.651l57.006 59.031c3.206 3.32 7.48 4.976 11.758 4.971l-.004.007h31.413l-11.096-13.262 95.622-92.342c6.484-6.261 6.664-16.593.403-23.076l-57.018-59.044c-5.271-5.459-5.981-13.765-1.951-20.196a420.468 420.468 0 0 0 14.707-25.4c3.563-6.68 11.097-10.198 18.443-8.367l79.605 19.848c1.616.403 3.236.547 4.817.463l-.001.002h30.776l-16.062-11.516c.085-.279.183-.55.254-.836l35.186-141.117zm-525.179 272.557c-180.176 0-326.238-146.062-326.238-326.238s146.062-326.238 326.238-326.238 326.238 146.062 326.238 326.238c-.001 180.177-146.062 326.238-326.238 326.238z" class="colorf7ac41 svgShape"></path><path fill="#7b66ff" d="m2251.015 1066.146-79.631-19.854c-7.296-1.819-12.247-8.43-12.244-15.949v-.13c0-9.873-.346-19.667-1.021-29.372-.526-7.557 3.999-14.536 11.204-16.877l77.936-25.323c8.572-2.785 13.263-11.992 10.478-20.564l-44.94-138.317c-2.785-8.572-11.992-13.264-20.564-10.478l-78.072 25.367c-7.199 2.339-14.957-.644-18.979-7.057a422.668 422.668 0 0 0-34.096-46.88c-4.67-5.574-5.277-13.486-1.29-19.569l52.027-79.383c4.94-7.539 2.834-17.655-4.704-22.596l-121.638-79.721c-7.539-4.941-17.655-2.835-22.596 4.704l-46.192 70.482c-4.329 6.605-12.714 9.04-20.029 6.067a416.733 416.733 0 0 0-56.174-18.314c-7.352-1.832-12.599-8.29-12.599-15.867v-81.944c0-9.013-7.307-16.32-16.32-16.32h-145.436c-9.013 0-16.32 7.307-16.32 16.32v81.935c0 7.581-5.251 14.044-12.607 15.877a417.001 417.001 0 0 0-28.263 8.108c-7.213 2.348-15.094-.35-19.114-6.783l-43.421-69.487c-4.776-7.644-14.845-9.968-22.489-5.192L1400.587 626.1c-7.644 4.776-9.968 14.845-5.192 22.488l43.549 69.692c4.018 6.43 2.993 14.695-2.276 20.146a423.687 423.687 0 0 0-19.63 21.76c-4.875 5.796-12.977 7.673-19.783 4.353l-73.839-36.014c-8.101-3.951-17.872-.587-21.823 7.514l-63.753 130.717c-3.951 8.101-.587 17.871 7.514 21.822l73.641 35.917c6.814 3.323 10.323 10.873 8.747 18.289a417.92 417.92 0 0 0-5.098 28.959c-1.051 7.51-6.93 13.413-14.472 14.205l-81.5 8.566c-8.964.942-15.467 8.973-14.525 17.937l15.204 144.639c.942 8.964 8.973 15.467 17.937 14.525l81.505-8.567c7.535-.792 14.509 3.748 17.103 10.866a417.79 417.79 0 0 0 11.029 27.242c3.094 6.929 1.236 15.054-4.744 19.726l-64.599 50.471c-7.103 5.549-8.362 15.806-2.812 22.908l89.542 114.604c5.549 7.102 15.805 8.362 22.908 2.812l64.73-50.573c5.978-4.67 14.309-4.511 20.282.165a422.096 422.096 0 0 0 23.703 17.262c6.271 4.242 8.982 12.102 6.393 19.217l-28.083 77.157c-3.083 8.47 1.284 17.835 9.754 20.917l136.665 49.742c8.47 3.083 17.835-1.284 20.917-9.754l28.029-77.01c2.592-7.121 9.729-11.401 17.265-10.612a421.631 421.631 0 0 0 29.339 2.04c7.576.262 14.057 5.493 15.633 12.908l17.042 80.177c1.874 8.816 10.54 14.444 19.356 12.57l142.256-30.237c8.816-1.874 14.444-10.54 12.57-19.356l-17.047-80.202c-1.574-7.404 2.205-14.806 9.001-18.137a419.723 419.723 0 0 0 25.899-13.843c6.567-3.81 14.849-2.81 20.123 2.651l57.006 59.031c6.261 6.484 16.593 6.664 23.076.403l104.617-101.029c6.484-6.261 6.664-16.593.403-23.076l-57.018-59.044c-5.272-5.459-5.981-13.765-1.952-20.196a420.468 420.468 0 0 0 14.707-25.4c3.563-6.68 11.097-10.198 18.443-8.367l79.605 19.848c8.746 2.181 17.603-3.142 19.783-11.887l35.183-141.115c2.183-8.744-3.139-17.601-11.885-19.781zm-513.292 292.34c-180.176 0-326.238-146.062-326.238-326.238s146.062-326.238 326.238-326.238 326.238 146.062 326.238 326.238c0 180.177-146.062 326.238-326.238 326.238z" class="colorffd766 svgShape"></path><path fill="#6d57f7" d="M1221.025 464.635s-30.547.656-32.682-5.313c-1.99-5.563 5.877-11.427 9.54-22.018 3.399-9.827 2.478-21.526 2.478-21.526l39.845-4.179-19.181 53.036z" class="colorf76757 svgShape"></path><path fill="#eaeaea" d="M1238.964 401.732s-40.692 115.725-70.526 130.006c-29.834 14.282 38.151 35.799 60.526 15.125s66.264-131.071 66.264-131.071l-56.264-14.06z" class="coloreaeaea svgShape"></path><path fill="#634aff" d="M1315.896 315.507c-18.445-5.188-43.721-12.849-71.421-22.815l-31.599 126.454c25.795-.148 52.218 1.307 78.453 5.04 16.421 2.336 31.929-8.206 35.95-24.298l11.305-45.242c4.257-17.038-5.783-34.384-22.688-39.139z" class="colorff5f4a svgShape"></path><path fill="#eaeaea" d="m1056.026 160.848-75.503 298.098s106.157-39.076 232.353-39.801l31.599-126.454c-77.901-28.029-145.609-90.646-188.449-131.843z" class="coloreaeaea svgShape"></path><path fill="#634aff" d="M1056.026 160.848c15.066 14.488 33.21 31.625 53.788 48.975 3.477 19.25 5.547 55.249-5.229 116.029-9.362 52.804-31.287 91.186-51.968 112.719-44.191 10.107-72.094 20.375-72.094 20.375l75.503-298.098z" class="colorff5f4a svgShape"></path><ellipse cx="1013.268" cy="308.2" fill="#5b49ce" rx="155.527" ry="36.319" transform="rotate(-75.972 1013.231 308.193)" class="colorce4949 svgShape"></ellipse><path fill="#eaeaea" d="m906.276 276.058 1.697-6.79c4.232-16.936 20.631-27.891 37.897-25.316l114.033 17.005c-2.705 17.557-6.507 36.476-11.398 56.049-3.632 14.536-7.626 28.47-11.845 41.547l-109.772-42.671c-15.922-6.189-24.753-23.253-20.612-39.824z" class="coloreaeaea svgShape"></path><path fill="#d1d0d6" d="M1048.504 317.005c4.891-19.573 8.694-38.492 11.398-56.049l-14.225-2.121-34.969 89.63 25.951 10.088c4.219-13.078 8.212-27.011 11.845-41.548z" class="colord6d0d0 svgShape"></path><path fill="#ffffff" d="M975.831 462.058c13.613 2.214 28.25-20.187 38.233-39.633 13.873-27.025 27.089-64.218 37.212-104.727 10.123-40.509 15.956-79.547 16.426-109.921.346-22.372-2.156-49.768-16.036-53.236-8.996-2.247-19.505 6.229-31.219 25.2-10.727 17.373-21.302 41.244-31.136 70.688l5.742.856c9.559-28.619 19.908-51.781 30.257-68.542 9.824-15.91 18.926-24.173 24.971-22.658 4.573 1.143 7.246 7.834 8.683 13.246 2.229 8.395 3.247 19.954 3.024 34.357-.463 29.95-6.236 68.526-16.256 108.624-10.02 40.097-23.072 76.855-36.751 103.502-6.579 12.815-12.914 22.537-18.831 28.897-3.814 4.1-9.325 8.761-13.894 7.604-3.869-.967-6.334-6-7.72-10.052-2.18-6.373-3.489-15.249-3.888-26.381-.814-22.66 2.192-52.863 8.64-85.964l-5.444-2.116c-6.529 33.516-9.736 65.203-8.907 88.285.908 25.303 6.269 39.358 15.934 41.773.319.08.64.146.96.198z" class="colorffffff svgShape"></path><path fill="#5b49ce" d="m1265.033 331.172 41.806 8.204a2.9 2.9 0 0 0 3.406-2.289l.263-1.342a2.9 2.9 0 0 0-2.289-3.406l-41.806-8.204a2.9 2.9 0 0 0-3.406 2.289l-.263 1.342a2.901 2.901 0 0 0 2.289 3.406zM1262.703 343.048l41.805 8.204a2.9 2.9 0 0 0 3.406-2.289l.263-1.342a2.9 2.9 0 0 0-2.289-3.406l-41.806-8.204a2.9 2.9 0 0 0-3.406 2.289l-.263 1.342a2.903 2.903 0 0 0 2.29 3.406zM1260.372 354.923l41.806 8.205a2.9 2.9 0 0 0 3.406-2.289l.263-1.342a2.902 2.902 0 0 0-2.289-3.407l-41.805-8.204a2.902 2.902 0 0 0-3.407 2.289l-.263 1.342a2.902 2.902 0 0 0 2.289 3.406z" class="colorce4949 svgShape"></path><path fill="#ffffff" d="M1232.181 301.597a3.25 3.25 0 0 0 .722-6.345c-.478-.149-48.13-15.154-79.881-40.145a3.251 3.251 0 0 0-4.02 5.109c32.711 25.746 79.975 40.623 81.971 41.243.403.126.812.168 1.208.138zM1137.794 251.184a3.25 3.25 0 0 0 1.778-5.787l-13.962-11.088a3.25 3.25 0 0 0-4.043 5.091l13.962 11.088a3.24 3.24 0 0 0 2.265.696z" class="colorffffff svgShape"></path><path fill="#e8e7f2" d="M559.304 144h205.211c39.506 0 71.829 32.323 71.829 71.829v62.549c0 39.506-32.323 71.829-71.829 71.829H559.304c-39.506 0-71.83-32.323-71.83-71.83V215.83c0-39.507 32.323-71.83 71.83-71.83z" class="colore7f2f2 svgShape"></path><path fill="#e8e7f2" d="m779.534 348.613 77.753 3.218-28.796-59.89z" class="colore7f2f2 svgShape"></path><path fill="#464359" d="M581.246 224.773c.406 4.324 2.275 7.994 6.983 7.994 4.523 0 6.428-2.696 6.428-6.954 0-4.338-1.984-6.777-8.238-9.772-8.013-3.814-11.278-7.236-11.278-14.337 0-7.352 4.719-12.638 13.144-12.638 10.319 0 12.938 7.109 13.081 13.172h-7.349c-.264-2.612-.975-7.184-5.896-7.184-3.832 0-5.51 2.545-5.51 6.016 0 3.861 1.721 5.674 7.504 8.384 8.574 4.005 12.182 7.933 12.182 15.696 0 7.584-4.554 13.604-14.29 13.604-10.596 0-13.905-6.831-14.233-13.982h7.472zM637.441 213.498c0 17.219-4.491 25.279-15.372 25.279-10.225 0-14.958-7.881-14.958-25.315 0-17.062 5.523-24.417 15.3-24.417 10.326-.001 15.03 7.853 15.03 24.453zm-22.638-.129c0 12.225 2.09 19.07 7.46 19.07 5.612 0 7.488-6.445 7.488-19.027 0-12.167-2.011-17.98-7.51-17.98-5.406 0-7.438 6.381-7.438 17.937zM672.007 224.189c-.214 2.561-1.238 14.587-14.033 14.587-13.406 0-14.773-12.561-14.773-25.051 0-15.065 4.278-24.682 15.314-24.682 12.382 0 13.258 10.935 13.429 14.481h-7.442c-.121-1.637-.299-8.051-6.109-8.051-6.164 0-7.431 7.911-7.431 18.38 0 9.46.982 18.592 7.154 18.592 5.583 0 6.186-6.209 6.4-8.257h7.491zM685.28 189.785v48.202h-7.499v-48.202h7.499zM700.522 224.773l-2.773 13.213h-7.499l11.326-48.202h9.72l11.524 48.202h-7.882l-2.794-13.213h-11.622zm10.242-6.537c-2.14-10.118-3.704-17.132-4.423-21.474h-.192c-.612 4.355-2.29 12.086-4.267 21.474h8.882zM727.406 189.785h7.499v41.765h16.74l-.811 6.437h-23.427v-48.202zM614.92 279.308c0-8.486.142-17.757.284-23.094h-.171c-1.7 8.874-4.955 26.432-8.348 41.915h-6.864c-2.525-14.097-5.915-32.857-7.537-42.035h-.242c.285 5.621.498 15.9.498 24.203v17.832h-6.9v-48.202h11.187c2.993 13.941 5.736 29.078 6.767 35.86h.071c.953-6.086 4.543-22.489 7.514-35.86h10.959v48.202h-7.221v-18.821zM653.958 276.119h-15.68v15.522h17.537l-.947 6.487h-23.989v-48.202h23.833v6.587h-16.434v13.069h15.68v6.537zM661.298 249.926h11.928c11.962 0 16.836 7.884 16.836 23.017 0 16.306-4.582 25.185-17.54 25.185h-11.224v-48.202zm7.549 42.015h3.541c7.452 0 9.935-5.731 9.935-18.913 0-11.672-2.481-16.814-9.863-16.814h-3.612v35.727zM704.658 249.926v48.202h-7.498v-48.202h7.498zM719.9 284.915l-2.773 13.213h-7.498l11.326-48.202h9.72l11.524 48.202h-7.882l-2.794-13.213H719.9zm10.242-6.536c-2.14-10.119-3.704-17.132-4.423-21.474h-.192c-.612 4.355-2.29 12.086-4.267 21.474h8.882z" class="color434a59 svgShape"></path><path fill="#6a5cc6" d="M2547.689 1795.141s7.741 10.833 27.886 10.632c20.145-.201 428.086-1.893 428.086-1.893s85.262 3.742 103.072-1.686c17.81-5.427 29.796-15.814-30.26-16.937-60.056-1.124-234.232 2.467-295.85 2.122s-239.011-6.978-232.934 7.762z" class="color5cbec6 svgShape"></path><path fill="#464359" d="M2943.959 1380.716v53.221l-66.44 37.28h203.47v-78.071c0-6.865-5.565-12.43-12.43-12.43h-124.6z" class="color434a59 svgShape"></path><path fill="#6e58f9" d="M2921.381 1356.733h-309.934c-12.469 0-22.577 10.737-22.577 23.982v53.221h355.089v-53.221c0-13.244-10.108-23.982-22.578-23.982z" class="colorf95873 svgShape"></path><path fill="#5b49ce" d="M2921.381 1356.733h-8.344c12.469 0 22.577 10.737 22.577 23.982v53.221h8.344v-53.221c.001-13.244-10.107-23.982-22.577-23.982z" class="colorce4949 svgShape"></path><path fill="#634aff" d="M2595.141 1471.217h348.818v326.486h-348.818z" class="colorff5f4a svgShape"></path><path fill="#5c548c" d="M2586.815 1722.431h365.47v75.271h-365.47z" class="color54678c svgShape"></path><path fill="#5c4cc2" d="m2595.141 1711.805-8.326 10.626h365.47l-8.326-10.626z" class="color4c87c2 svgShape"></path><path fill="#e2dff2" d="M2844.333 1529.783h60.912v133.96h-60.912z" transform="rotate(-180 2874.79 1596.763)" class="colordfe9f2 svgShape"></path><path fill="#ffffff" d="m2844.333 1663.743-3.012 4.539v6.485h67.13v-8.106l-3.206-2.918zM2872.06 1529.783h5.459v133.96h-5.459zM2719.14 1515.282h100.819v282.421H2719.14z" class="colorffffff svgShape"></path><path fill="#e2dff2" d="M2735.788 1536.954h67.523v87.903h-67.523zM2735.788 1638.127h67.523v138.057h-67.523z" class="colordfe9f2 svgShape"></path><path fill="#e2dff2" d="M2633.758 1529.783h60.912v133.96h-60.912z" transform="rotate(-180 2664.214 1596.763)" class="colordfe9f2 svgShape"></path><path fill="#ffffff" d="m2633.758 1663.743-3.013 4.539v6.485h67.13v-8.106l-3.206-2.918zM2661.484 1529.783h5.459v133.96h-5.459z" class="colorffffff svgShape"></path><path fill="#5b49ce" d="M2943.248 1471.217h137.741v326.486h-137.741z" class="colorce4949 svgShape"></path><path fill="#464359" d="M2934.921 1722.431h154.393v75.271h-154.393z" class="color434a59 svgShape"></path><path fill="#7f78a8" d="M2595.141 1552.292h270.342l77.765-81.075v-37.28l-348.107 103.017z" class="color7892a8 svgShape"></path><path fill="#4132a4" d="m2943.248 1711.805-8.327 10.626h154.394l-8.326-10.626z" class="color325ba4 svgShape"></path><path fill="#634aff" d="M2488.436 1536.954h-23.602l125.105-103.017h23.601z" class="colorff5f4a svgShape"></path><path fill="#7964ff" d="M2512.037 1536.954h-23.601l125.104-103.017h23.602z" class="colorffe164 svgShape"></path><path fill="#634aff" d="M2535.638 1536.954h-23.601l125.105-103.017h23.601z" class="colorff5f4a svgShape"></path><path fill="#7964ff" d="M2559.24 1536.954h-23.602l125.105-103.017h23.601z" class="colorffe164 svgShape"></path><path fill="#634aff" d="M2582.841 1536.954h-23.601l125.104-103.017h23.602z" class="colorff5f4a svgShape"></path><path fill="#7964ff" d="M2606.442 1536.954h-23.601l125.105-103.017h23.601z" class="colorffe164 svgShape"></path><path fill="#634aff" d="M2630.044 1536.954h-23.602l125.105-103.017h23.601z" class="colorff5f4a svgShape"></path><path fill="#7964ff" d="M2653.645 1536.954h-23.601l125.104-103.017h23.602z" class="colorffe164 svgShape"></path><path fill="#634aff" d="M2677.246 1536.954h-23.601l125.105-103.017h23.601z" class="colorff5f4a svgShape"></path><path fill="#7964ff" d="M2700.847 1536.954h-23.601l125.105-103.017h23.601z" class="colorffe164 svgShape"></path><path fill="#634aff" d="M2724.449 1536.954h-23.602l125.105-103.017h23.601z" class="colorff5f4a svgShape"></path><path fill="#7964ff" d="M2748.05 1536.954h-23.601l125.104-103.017h23.602z" class="colorffe164 svgShape"></path><path fill="#634aff" d="M2771.651 1536.954h-23.601l125.105-103.017h23.601z" class="colorff5f4a svgShape"></path><path fill="#7964ff" d="M2795.253 1536.954h-23.602l125.105-103.017h23.601z" class="colorffe164 svgShape"></path><path fill="#634aff" d="M2818.854 1536.954h-23.601l125.104-103.017h23.602z" class="colorff5f4a svgShape"></path><path fill="#464359" d="M2695.696 1404.859c.975 4.31 3.922 6.64 9.131 6.64 5.607 0 7.827-2.63 7.827-6.025 0-3.606-1.771-5.625-8.978-7.369-8.469-2.058-11.41-4.958-11.41-10.012 0-5.338 3.937-9.69 11.961-9.69 8.56 0 12.083 4.948 12.566 9.668h-4.851c-.643-3.198-2.645-5.823-7.888-5.823-4.376 0-6.833 1.971-6.833 5.397 0 3.374 2.029 4.705 8.327 6.23 10.251 2.495 12.06 6.485 12.06 11.099 0 5.797-4.295 10.34-13.085 10.34-9.041 0-12.933-4.94-13.677-10.455h4.85zM2724.603 1378.92h4.765v15.007h18.734v-15.007h4.766v35.944h-4.766v-16.854h-18.734v16.854h-4.765v-35.944zM2793.682 1396.688c0 9.886-5.544 18.692-16.867 18.692-10.58 0-16.484-8.178-16.484-18.488 0-10.284 6.027-18.489 16.901-18.489 10.119 0 16.45 7.6 16.45 18.285zm-28.361.049c0 7.769 3.976 14.579 11.704 14.579 8.344 0 11.667-6.878 11.667-14.557 0-7.744-3.766-14.29-11.656-14.29-8.146-.001-11.715 6.599-11.715 14.268zM2801.145 1378.92h13.647c6.997 0 11.781 3.906 11.781 10.458 0 7.003-5.043 10.717-12.069 10.717h-8.56v14.769h-4.799v-35.944zm4.799 17.164h8.324c4.923 0 7.388-2.404 7.388-6.585 0-4.381-2.983-6.57-7.199-6.57h-8.512v13.155z" class="color434a59 svgShape"></path><path fill="#ffffff" d="M2691.33 1404.859c.975 4.31 3.922 6.64 9.132 6.64 5.606 0 7.827-2.63 7.827-6.025 0-3.606-1.772-5.625-8.978-7.369-8.469-2.058-11.409-4.958-11.409-10.012 0-5.338 3.937-9.69 11.961-9.69 8.56 0 12.082 4.948 12.566 9.668h-4.851c-.644-3.198-2.645-5.823-7.888-5.823-4.376 0-6.833 1.971-6.833 5.397 0 3.374 2.029 4.705 8.327 6.23 10.25 2.495 12.06 6.485 12.06 11.099 0 5.797-4.295 10.34-13.085 10.34-9.041 0-12.933-4.94-13.677-10.455h4.848zM2720.237 1378.92h4.766v15.007h18.734v-15.007h4.766v35.944h-4.766v-16.854h-18.734v16.854h-4.766v-35.944zM2789.316 1396.688c0 9.886-5.544 18.692-16.868 18.692-10.58 0-16.484-8.178-16.484-18.488 0-10.284 6.027-18.489 16.9-18.489 10.122 0 16.452 7.6 16.452 18.285zm-28.361.049c0 7.769 3.976 14.579 11.704 14.579 8.344 0 11.667-6.878 11.667-14.557 0-7.744-3.766-14.29-11.655-14.29-8.147-.001-11.716 6.599-11.716 14.268zM2796.779 1378.92h13.647c6.997 0 11.781 3.906 11.781 10.458 0 7.003-5.043 10.717-12.069 10.717h-8.56v14.769h-4.799v-35.944zm4.799 17.164h8.324c4.923 0 7.388-2.404 7.388-6.585 0-4.381-2.983-6.57-7.199-6.57h-8.512v13.155z" class="colorffffff svgShape"></path><circle cx="2668.482" cy="1395.335" r="4.912" fill="#464359" class="color434a59 svgShape"></circle><circle cx="2666.299" cy="1395.335" r="4.912" fill="#ffffff" class="colorffffff svgShape"></circle><circle cx="2846.754" cy="1395.335" r="4.912" fill="#464359" class="color434a59 svgShape"></circle><path fill="#ffffff" d="M2849.482 1395.335a4.912 4.912 0 1 1-9.824 0 4.912 4.912 0 0 1 9.824 0z" class="colorffffff svgShape"></path><path fill="#7b66ff" d="M3006.333 979.49h-273.456c-52.644 0-95.717 43.073-95.717 95.717v83.351c0 52.644 43.073 95.717 95.717 95.717h273.456c52.644 0 95.717-43.073 95.717-95.717v-83.35c.001-52.646-43.072-95.718-95.717-95.718z" class="colorffd766 svgShape"></path><path fill="#7b66ff" d="m2828.666 1237.13-84.093 82.102-2.914-82.102z" class="colorffd766 svgShape"></path><path fill="#ffffff" d="M2733.81 1061.344h15.892c9.019 0 15.604 5.492 15.604 16.159 0 10.438-5.953 16.306-16.415 16.306h-6.44v23.073h-8.64v-55.538zm8.64 25.451h5.481c5.908 0 8.685-3.007 8.685-9.406 0-5.754-2.984-8.972-8.095-8.972h-6.071v18.378zM2772.04 1061.344h8.64v22.466h14.969v-22.466h8.639v55.539h-8.639v-25.54h-14.969v25.54h-8.64v-55.539zM2822.975 1116.883v-20.171c0-.607-.105-1.099-.36-1.665l-14.035-33.703h9.649c3.343 8.942 7.669 20.455 9.332 26.179 2.001-6.323 6.375-17.671 9.44-26.179h9.115l-14.198 33.793c-.164.361-.303.943-.303 1.723v20.023h-8.64zM2856.008 1101.658c.467 4.982 2.621 9.211 8.046 9.211 5.213 0 7.407-3.107 7.407-8.013 0-4.998-2.286-7.809-9.491-11.259-9.232-4.395-12.995-8.338-12.995-16.519 0-8.471 5.437-14.562 15.145-14.562 11.89 0 14.908 8.191 15.072 15.177h-8.468c-.303-3.009-1.123-8.277-6.792-8.277-4.416 0-6.349 2.932-6.349 6.932 0 4.449 1.982 6.538 8.647 9.66 9.878 4.615 14.037 9.14 14.037 18.086 0 8.739-5.247 15.675-16.465 15.675-12.21 0-16.023-7.871-16.399-16.11h8.605zM2896.156 1061.344v55.539h-8.64v-55.539h8.64zM2937.64 1100.986c-.246 2.951-1.426 16.807-16.169 16.807-15.447 0-17.021-14.474-17.021-28.864 0-17.358 4.928-28.438 17.645-28.438 14.266 0 15.276 12.6 15.473 16.684h-8.574c-.14-1.885-.344-9.276-7.039-9.276-7.102 0-8.562 9.115-8.562 21.178 0 10.901 1.131 21.422 8.243 21.422 6.432 0 7.127-7.154 7.374-9.513h8.63zM2952.841 1101.659l-3.195 15.224h-8.64l13.05-55.539h11.2l13.279 55.539h-9.083l-3.219-15.224h-13.392zm11.799-7.532c-2.465-11.659-4.268-19.74-5.096-24.743h-.221c-.705 5.018-2.638 13.925-4.916 24.743h10.233zM2983.817 1061.344h8.64v48.121h19.288l-.935 7.417h-26.993v-55.538zM2788.113 1170.954c.467 4.982 2.621 9.211 8.046 9.211 5.212 0 7.407-3.107 7.407-8.013 0-4.998-2.286-7.809-9.491-11.259-9.232-4.395-12.995-8.338-12.995-16.52 0-8.47 5.437-14.561 15.145-14.561 11.89 0 14.908 8.191 15.072 15.177h-8.468c-.303-3.009-1.123-8.277-6.792-8.277-4.416 0-6.349 2.932-6.349 6.932 0 4.449 1.982 6.538 8.647 9.66 9.878 4.615 14.037 9.14 14.037 18.086 0 8.739-5.247 15.676-16.465 15.676-12.21 0-16.022-7.872-16.399-16.111h8.605zM2827.344 1138.229h-12.042v-7.589h32.722v7.589h-12.042v47.949h-8.639v-47.949zM2885.109 1157.962c0 19.841-5.175 29.126-17.711 29.126-11.781 0-17.235-9.081-17.235-29.168 0-19.66 6.364-28.134 17.629-28.134 11.897.001 17.317 9.051 17.317 28.176zm-26.084-.148c0 14.086 2.408 21.972 8.595 21.972 6.466 0 8.628-7.426 8.628-21.923 0-14.019-2.318-20.717-8.653-20.717-6.228 0-8.57 7.353-8.57 20.668zM2901.868 1161.852v24.326h-8.583v-55.539h16.147c9.83 0 15.267 5.271 15.267 14.889 0 8.123-4.222 11.615-7.278 12.763 4.589 1.952 6.475 5.909 6.475 13.968v2.213c0 5.921.255 8.73.762 11.706h-8.401c-.795-2.542-.91-7.123-.91-11.812v-1.976c0-7.59-1.672-10.538-8.368-10.538h-5.111zm0-7.072h5.497c6.261 0 8.679-3.006 8.679-8.907 0-5.056-2.385-8.161-7.834-8.161h-6.341v17.068zM2959.286 1160.819h-18.066v17.885h20.206l-1.091 7.475h-27.64v-55.539h27.46v7.589h-18.935v15.058h18.066v7.532z" class="colorffffff svgShape"></path><path fill="#464359" d="M2180.954 416.468c0-12.914 10.469-23.384 23.384-23.384h411.435c12.914 0 23.384 10.469 23.384 23.384v5.572h-458.202v-5.572z" class="color434a59 svgShape"></path><path fill="#e8e7f2" d="M2180.954 422.04h458.202v310.604h-458.202z" class="colore7f2f2 svgShape"></path><path fill="#7964ff" d="M2595.462 408.432a6.668 6.668 0 1 0 13.336 0 6.668 6.668 0 0 0-13.336 0z" class="colorffe164 svgShape"></path><path fill="#7b75a3" d="M2569.873 408.432a6.668 6.668 0 1 0 13.336 0 6.668 6.668 0 0 0-13.336 0z" class="color75a378 svgShape"></path><path fill="#634aff" d="M2544.283 408.432a6.668 6.668 0 1 0 13.336 0 6.668 6.668 0 0 0-13.336 0z" class="colorff5f4a svgShape"></path><path fill="#7964ff" d="M2232.354 472.887h355.402v192.89h-355.402z" transform="rotate(-180 2410.055 569.331)" class="colorffe164 svgShape"></path><path fill="#7b75a3" d="m2587.756 627.807-39.14-27.767-52.756 31.512-49.133-31.512-42.9 34.641-46.944-26.708-38.857 26.708-41.709-29.683-43.963 28.01v32.768h355.402z" class="color75a378 svgShape"></path><path fill="#ffffff" d="M2286.096 515.252h247.918v22.808h-247.918z" transform="rotate(-180 2410.055 526.656)" class="colorffffff svgShape"></path><path fill="#ffffff" d="M2422.947 549.464h111.067v22.809h-111.067z" transform="rotate(-180 2478.48 560.869)" class="colorffffff svgShape"></path><path fill="#ffffff" d="M2371.38 549.464h38.675v22.809h-38.675z" transform="rotate(-180 2390.718 560.869)" class="colorffffff svgShape"></path><path fill="#ffffff" d="M2286.096 549.464h74.375v22.809h-74.375z" transform="rotate(-180 2323.284 560.869)" class="colorffffff svgShape"></path><path fill="#b1a7f2" d="m2285.129 370.485 109.521-19.418c7.449-1.321 14.558 3.647 15.879 11.096l16.315 92.019c1.321 7.449-3.647 14.558-11.096 15.879l-37.205 6.596-2.654 29.918-10.029 1.778-22.501-25.458-37.133 6.584c-7.449 1.321-14.558-3.647-15.878-11.096l-16.315-92.019c-1.321-7.45 3.647-14.559 11.096-15.879z" class="colorf2c3a7 svgShape"></path><path fill="#634aff" d="m2295.157 368.707 109.521-19.418c7.449-1.321 14.558 3.647 15.878 11.096l16.315 92.019c1.321 7.449-3.647 14.558-11.096 15.879l-37.205 6.596-12.683 31.696-22.501-25.458-37.133 6.584c-7.449 1.321-14.558-3.647-15.878-11.096l-16.315-92.019c-1.319-7.45 3.648-14.559 11.097-15.879z" class="colorff5f4a svgShape"></path><path fill="#b1a7f2" d="M2336.924 399.718c15.356-5.472 20.379 7.87 20.379 7.87s.13-14.256 16.431-14.396c16.301-.141 12.095 23.248 2.824 37.345-9.271 14.097-11.833 18.918-11.833 18.918s-4.063-3.646-17.615-13.697c-13.552-10.051-25.542-30.568-10.186-36.04z" class="colorf2c3a7 svgShape"></path><ellipse cx="2714.289" cy="896.749" fill="#6a5cc6" rx="196.748" ry="24.724" class="color5cbec6 svgShape"></ellipse><path fill="#464359" d="M2818.687 657.683s-.096 20.75-9.301 28.679c-9.205 7.929-33.342-9.369-33.342-9.369l28.965-19.31h13.678zM2851.269 899.742a3.626 3.626 0 0 0 3.552-4.345l-32.585-179.301a3.625 3.625 0 0 0-4.271-2.824 3.621 3.621 0 0 0-2.824 4.271l32.585 179.302a3.62 3.62 0 0 0 3.543 2.897zM2650.936 899.742a3.621 3.621 0 0 1-3.552-4.345l32.585-179.301a3.625 3.625 0 0 1 4.271-2.824 3.621 3.621 0 0 1 2.824 4.271l-32.585 179.302a3.62 3.62 0 0 1-3.543 2.897zM2739.714 899.742a3.626 3.626 0 0 0 3.552-4.345l-32.585-179.301a3.625 3.625 0 0 0-4.271-2.824 3.621 3.621 0 0 0-2.824 4.271l32.585 179.302a3.621 3.621 0 0 0 3.543 2.897zM2768.687 899.742a3.626 3.626 0 0 1-3.552-4.345l32.585-179.301a3.625 3.625 0 0 1 4.271-2.824 3.621 3.621 0 0 1 2.824 4.271l-32.586 179.302a3.618 3.618 0 0 1-3.542 2.897z" class="color434a59 svgShape"></path><path fill="#464359" d="M2838.838 703.439s2.066-20.376-13.296-24.408c-15.362-4.033-49.442-7.781-90.822-3.636s-67.896 9.516-78.362 23.105c-10.467 13.589-5.975 33.048 53.13 33.598s134.488.434 129.35-28.659zM2756.743 517.686c9.46-17.011 34.524-52.313 80.145-33.599 56.208 23.056 43.095 159.033 9.302 183.021-16.919 12.01-79.944-3.301-103.802-14.985-23.858-11.685-9.18-92.116 14.355-134.437z" class="color434a59 svgShape"></path><path fill="#434059" d="M2584.228 886.503c.603-.863 1.771-9.504 1.967-9.887.846-1.657 9.839 3.032 9.924 7.265.158 7.933 6.051 5.174 6.666 2.666 2.222 4.891-3.713 19.03-7.234 20.291-6.734 2.412-16.232 13.436-32.695 8.991-6.303-1.701 16.007-21.645 21.372-29.326zM2475.508 805.784c6.057.67 8.123.524 12.142-1.114.271-.111 3.545-8.022 3.849-8.327 1.315-1.316 11.599 14.541 14.614 12.43.61 5.337-9.343 19.787-13.082 19.905-7.149.225-40.001-22.054-37.92-25.056 1.249-1.803 12.2 1.255 20.397 2.162z" class="color404859 svgShape"></path><path fill="#5b49ce" d="M2684.655 501.935s-24.829 29.942-43.204 61.065c5.617 9.429 16.764 25.663 39.77 26.236 12.562-20.334 26.374-41.67 26.374-41.67l-22.94-45.631z" class="colorce4949 svgShape"></path><path fill="#634aff" d="M2825.156 623.909s3.349-69.834-29.243-123.935c-31.811-52.805-103.979-21.737-111.258 1.961-7.279 23.697 26.209 68.781 27.453 94.136 1.346 27.441-22.889 38.546-22.339 49.559.55 11.013 68.678 5.173 88.924-7.333 20.245-12.506 46.463-14.388 46.463-14.388z" class="colorff5f4a svgShape"></path><path fill="#5c548c" d="M2649.264 713.095s93.874 6.285 90.853-14.839c-3.021-21.124-59.968-31.193-89.067-20.546-29.099 10.646-23.99 31.162-1.786 35.385z" class="color54678c svgShape"></path><path fill="#7764f0" d="M2820.222 674.732c-10.929 19.247-32.988 30.125-81.045 35.64-48.057 5.514-108.047-24.3-108.047-24.3L2517.438 820.42l-29.056-20.992s23.09-43.322 50.565-85.363c27.475-42.04 53.084-83.882 67.061-89.93 19.277-8.342 154.348 5.141 154.348 5.141l64.801-5.367c-.001 0 2.996 36.856-4.935 50.823z" class="color529ae3 svgShape"></path><path fill="#7764f0" d="M2663.221 699.245s-10.059 54.332-14.742 72.132c-15.778 59.976-42.125 119.58-42.125 119.58l-25.864-4.857s21.285-173.087 25.428-187.552c4.143-14.464 44.135-39.966 57.303.697z" class="color529ae3 svgShape"></path><path fill="#5c548c" d="M2602.108 721.283a.995.995 0 0 1-.587-1.746c12.577-10.891 29.222-35.912 29.389-36.164a1 1 0 0 1 1.248-.354c8.723 4.029 31.28 15.221 31.506 15.334a.996.996 0 0 1-.885 1.784c-.221-.109-21.503-10.669-30.688-14.952-2.834 4.196-17.697 25.839-29.266 35.858a.994.994 0 0 1-.717.24z" class="color54678c svgShape"></path><path fill="#5c548c" d="M2631.674 684.917a.987.987 0 0 1-.363-.095c-9.559-4.557-15.617-11.951-15.87-12.264a.996.996 0 0 1 1.546-1.254c.059.073 6.043 7.364 15.18 11.721a.995.995 0 0 1-.493 1.892z" class="color54678c svgShape"></path><path fill="#605d75" d="m2688.759 632.901 53.616-15.794.247-3.811-95.437-14.245-65.673 16.566z" class="color5d6575 svgShape"></path><path fill="#413f4c" d="m2581.512 615.617 107.247 17.284-9.227-82.639-107.248-17.285z" class="color3f434c svgShape"></path><path fill="#8c7aff" d="M2837.118 541.669c-7.453 12.448-27.513 20.79-35.497 23.707 7.484 9.76 13.11 16.939 13.11 16.939s-88.643 9.874-87.101 28.697c.653 7.968 43.157 16.361 79.219 14.225 25.253-1.496 47.083-6.529 50.301-27.435 2.696-17.512-6.843-37.638-20.032-56.133z" class="colorff867a svgShape"></path><path fill="#8c7aff" d="M2737.542 600.113s-30.2-3.696-32.399-.217c-2.199 3.479-8.414 11.024-6.435 11.719 1.979.695 5.843-5.412 5.843-5.412s-4.185 8.92-3.375 9.955c.81 1.035 2.172.083 2.172.083s.526 1.574 1.71 2.142c1.185.568 6.378-5.75 6.378-5.75s22.479 9.123 25.186-1.114c2.707-10.237.92-11.406.92-11.406z" class="colorff867a svgShape"></path><path fill="#ffffff" d="M2619.168 584.277c.531 3.83 2.954 6.658 5.414 6.318 2.46-.341 4.024-3.722 3.494-7.551-.53-3.83-2.955-6.659-5.414-6.318-2.46.34-4.024 3.721-3.494 7.551z" class="colorffffff svgShape"></path><path fill="#7467c6" d="M2832.952 582.569c.244-.102.445-.345.517-.666.113-.506-.135-1.016-.554-1.139-.363-.106-8.979-2.583-18.923-.362-.438.101-.72.589-.65 1.1.069.512.473.849.902.753 9.597-2.144 18.177.315 18.262.34a.656.656 0 0 0 .446-.026z" class="colorc66c67 svgShape"></path><path fill="#634aff" d="M2837.118 541.669c-22.917-32.138-56.865-59.351-56.865-59.351-13.858-7.163-24.828 12.826-14.942 32.454 4.04 8.021 24.22 36.271 37.45 53.526 7.985-2.917 26.904-14.181 34.357-26.629z" class="colorff5f4a svgShape"></path><path fill="#5b49ce" d="M2799.807 569.366c-.286 0-.539-.026-.754-.083-3.331-.884-15.92-22.971-16.047-23.194-5.431-9.553-25.896-32.041-26.103-32.267a1.02 1.02 0 0 1 1.508-1.375c.848.93 20.826 22.883 26.369 32.633 6.798 11.958 13.439 21.606 14.836 22.244.927.241 5.031-1.083 8.28-2.459a1.02 1.02 0 0 1 .795 1.879c-1.556.66-6.403 2.622-8.884 2.622z" class="colorce4949 svgShape"></path><path fill="#b1a7f2" d="M2694.663 449.548s-3.38.202-7.255-2.155c-8.833-5.374-.714-16.015 3.188-15.446 9.229 1.345 12.195-1.654 17.154-.589 6.14 1.319 7.447 5.338 9.271 9.062 7.274 14.844.601 18.938-6.133 23.354-13.323 8.738-16.08-14.119-16.225-14.226z" class="colorf2c3a7 svgShape"></path><path fill="#8c7aff" d="M2730.167 475.741c1.311 3.18-13.404 23.677-16.953 7.951l-1.159-3.982-5.371-18.446-.629-2.163 7.058-8.589 17.054 25.229z" class="colorff867a svgShape"></path><path fill="#7467c6" d="M2713.111 457.41s3.959 12.388.685 18.554c-1.156 2.176-1.078 3.023-1.74 3.746l-5.371-18.446c3.14-1.89 6.426-3.854 6.426-3.854z" class="colorc66c67 svgShape"></path><path fill="#8c7aff" d="m2706.23 443.909 7.745 8.287c3.061 3.618 2.722 8.472 1.013 11.884-1.808 3.611-4.58 5.72-9.066 7.292-3.738 1.31-7.214-1.141-9.491-5.7-2.954-5.915-3.97-12.2-4.323-15.594-.327-3.142.771-5.765 2.666-7.36 4.072 1.513 7.246-2.468 11.456 1.191z" class="colorff867a svgShape"></path><path fill="#b1a7f2" d="M2704.043 455.338s-1.521-1.016-6.177.502c-5.143 1.677-4.357 4.01-4.177 4.883.18.873.253 2.141.253 2.141s-.445.637.004 2.911c.449 2.275 2.769 3.395 3.235 4.241.466.846 1.487 2.688 2.955 3.849 1.468 1.16 8.822-.321 12.455-4.532 3.634-4.211 4.987-10.273 3.813-12.458-1.174-2.186-3.88-4.715-5.017-6.298-1.137-1.583-2.573-5.98-3.211-5.175-.638.806 1.422 8.724.343 9.527-1.079.803-3.031.791-4.476.409z" class="colorf2c3a7 svgShape"></path><path fill="#ffffff" d="M2703.462 457.594s-2.943 1.371-8.119 3.722c0 0 1.128 4.834 4.571 4.081 3.084-.674 4.707-3.418 3.548-7.803z" class="colorffffff svgShape"></path><path fill="#8c7aff" d="M2710.009 448.1c-.017-.886-.169-1.758-.375-2.62-.39-1.639-.585-4.165 2.162-3.551 3.995.893 5.947 8.844 2.003 10.478-2.929 1.214-3.747-2.074-3.79-4.307z" class="colorff867a svgShape"></path><path fill="#7467c6" d="M2697.413 454.041a5.119 5.119 0 0 1-2.447-.394c-.599-.252-.877.719-.284.969a5.766 5.766 0 0 0 2.706.435c.641-.052.672-1.062.025-1.01z" class="colorc66c67 svgShape"></path><path fill="#464359" d="M2699.732 449.037c-.112.012-.461.027-.53.451-.051.32-.021.703.12 1.011a.61.61 0 0 0 .927.226c.424-.327.232-1.77-.517-1.688zM2693.388 451.013c-.112.012-.461.027-.53.452-.051.319-.022.703.12 1.011a.61.61 0 0 0 .927.226c.424-.327.233-1.77-.517-1.689zM2698.163 447.127c.376-.378 1.165-.558 1.674-.478.527.082 1.179.332 1.542.758a.299.299 0 0 1 .111.148.211.211 0 0 1-.022.268.339.339 0 0 1-.418.176c-.804-.239-1.768-.302-2.593-.234-.399.033-.57-.486-.294-.638zM2691.6 449.046a.273.273 0 0 1 .076-.056c.214-.106.47-.288.736-.434a.438.438 0 0 1 .054-.033l.022-.008c.393-.203.803-.308 1.135.037a.244.244 0 0 1 .067.148c.09.187.043.451-.208.517-.562.147-1.121.298-1.667.501-.399.148-.565-.482-.215-.672z" class="color434a59 svgShape"></path><path fill="#6a5cc6" d="M2509.156 217.421h156.945c30.215 0 54.935 24.721 54.935 54.935v47.838c0 30.214-24.721 54.935-54.935 54.935h-156.945c-30.214 0-54.935-24.721-54.935-54.935v-47.838c0-30.214 24.721-54.935 54.935-54.935z" class="color5cbec6 svgShape"></path><path fill="#6a5cc6" d="m2611.126 365.29 68.099 66.487-18.163-66.487z" class="color5cbec6 svgShape"></path><path fill="#ffffff" d="m2500.291 314.397-8.041-41.686h6.91c1.947 11.545 4.18 25.578 4.759 32.664h.062c1.078-7.284 4.514-23.307 6.28-32.664h5.869c1.679 8.648 5.141 25.25 6.07 32.343h.123c.905-8.254 3.886-23.874 5.177-32.343h6.46l-8.625 41.686h-6.521c-1.685-8.969-4.821-23.742-5.843-31.16h-.105c-1.102 7.681-4.348 22.678-6.088 31.16h-6.487zM2558.111 295.363h-13.561v13.424h15.166l-.819 5.61h-20.745v-41.686h20.61v5.696h-14.212v11.302h13.561v5.654zM2564.416 272.711h12.075c6.893 0 10.819 3.914 10.819 10.424 0 5.371-2.571 7.881-4.922 8.743 3.021 1.175 6.183 3.95 6.183 10.275 0 7.778-4.942 12.244-12.295 12.244h-11.86v-41.686zm10.359 16.888c4.841 0 6.291-1.974 6.291-5.873 0-3.82-2.012-5.812-5.923-5.812h-4.373v11.685h4.005zm-4.004 19.681h4.847c4.126 0 6.451-2.268 6.451-7.22 0-4.735-2.146-7.344-7.288-7.344h-4.01v14.564zM2598.777 302.97c.35 3.739 1.968 6.913 6.04 6.913 3.911 0 5.559-2.332 5.559-6.014 0-3.751-1.717-5.861-7.124-8.451-6.93-3.298-9.754-6.258-9.754-12.399 0-6.358 4.081-10.93 11.368-10.93 8.924 0 11.189 6.148 11.312 11.391h-6.356c-.228-2.259-.843-6.212-5.098-6.212-3.315 0-4.766 2.201-4.766 5.202 0 3.339 1.488 4.907 6.49 7.251 7.414 3.464 10.535 6.86 10.535 13.575 0 6.559-3.938 11.765-12.358 11.765-9.164 0-12.026-5.908-12.309-12.092h6.461zM2628.911 272.711v41.686h-6.484v-41.686h6.484zM2642.089 278.408h-9.037v-5.696h24.56v5.696h-9.037v35.989h-6.485v-35.989zM2681.747 295.363h-13.561v13.424h15.166l-.819 5.61h-20.745v-41.686h20.61v5.696h-14.212v11.302h13.561v5.654z" class="colorffffff svgShape"></path><ellipse cx="2218.006" cy="1988.285" fill="#6a5cc6" rx="287.646" ry="18.407" class="color5cbec6 svgShape"></ellipse><path fill="#7764f0" d="m2260.249 1676.501-27.219-16.202c-28.843-17.168-219.755-36.928-219.755-36.928l-52.535 326.199c74.629-9.472 207.084 34.083 248.537 48.63a36.315 36.315 0 0 0 12.766 2.034v-11.949l38.206-311.784z" class="color529ae3 svgShape"></path><path fill="#4b39bc" d="m2261.873 1677.468-1.624-.967-38.207 311.784v11.949a36.68 36.68 0 0 0 12.113-2.316c87.325-32.668 202.149-25.341 202.149-25.341l23.692-298.451c-103.851-21.509-198.123 3.342-198.123 3.342z" class="color3981bc svgShape"></path><path fill="#cecece" d="M2417.247 1944.763s-91.594-14.278-186.026-26.887l-6.307 57.563-2.872 12.846s65.927-28.07 152.455-29.615c34.538-.617 38.395-.176 38.395-.176l1.717-5.413-1.912-1.536 2.498-.313 2.052-6.469z" class="colorcecece svgShape"></path><path fill="#cecece" d="M2231.221 1917.876c-90.225-12.048-183.042-22.572-201.035-17.665-36.826 10.044-56.19 23.297-56.19 23.297s.544 1.984 1.082 4.363c.078.344 3.269.398 3.345.754.068.316-2.98.934-2.917 1.252.401 2.012.699 3.996.599 5.1 0 0 75.283-1.888 170.804 25.835 24.064 6.984 75.133 27.472 75.133 27.472l2.872-12.846 6.307-57.562z" class="colorcecece svgShape"></path><path fill="#eaeaea" d="M2258.432 1669.514s-9.595-13.882-39.399-24.054c-75.278-25.694-186.954-33.741-186.954-33.741l-58.083 311.79s58.637-2.453 118.769 7.864c51.832 8.892 103.758 29.404 132.149 44.067l33.518-305.926z" class="coloreaeaea svgShape"></path><path fill="#7b66ff" d="m2054.136 1647.703-21.632 124.651s116.561 13.259 181.149 35.406l17.661-124.642c-.001-.001-67.681-31.976-177.178-35.415z" class="colorffd766 svgShape"></path><path fill="#695db2" d="M2032.504 1772.353s116.561 13.259 181.149 35.406l9.58-67.613c-5.46-4.235-15.037-8.202-29.003-12.416-23.692-7.149-57.171 1.226-88.589 2.513-24.573 1.007-53.871-1.099-65.471-2.064l-7.666 44.174z" class="color5db28a svgShape"></path><path fill="#f4f4f4" d="M2258.432 1669.514s70.054-40.305 181.477-14.02l-22.662 289.269s-112.204-11.644-192.333 30.676l33.518-305.925z" class="colorf4f4f4 svgShape"></path><path fill="#cccccc" d="M2028.366 1791.018s118.994 5.668 182.24 40.472l-3.386 17.881s-68.101-34.143-181.669-39.294l2.815-19.059zM2022.958 1824.239s118.994 5.668 182.24 40.472l-3.386 17.881s-68.101-34.143-181.669-39.294l2.815-19.059zM2016.091 1856.859s118.994 5.668 182.24 40.472l-3.386 17.881s-68.101-34.143-181.669-39.294l2.815-19.059z" class="colorcccccc svgShape"></path><path fill="#634aff" d="M2374.073 1675.983c-50.626.141-80.291 8.512-93.629 13.575l-7.353 74.054c59.32-22.01 132.31-13.281 132.31-13.281l7.492-72.902c-10.225-.892-23-1.491-38.82-1.446z" class="colorff5f4a svgShape"></path><path fill="#cccccc" d="M2364.802 1760.193c-50.626.141-80.291 8.512-93.629 13.575l-1.231 12.874c61.205-16.482 131.794-10.963 131.794-10.963l1.885-14.039c-10.224-.893-22.999-1.491-38.819-1.447zM2362.227 1786.645c-50.626.141-80.291 8.512-93.629 13.575l-1.231 12.874c61.205-16.482 131.795-10.963 131.795-10.963l1.885-14.039c-10.225-.893-23-1.492-38.82-1.447z" class="colorcccccc svgShape"></path><path fill="#6a5cc6" d="M2290.287 1870.596c20.602-6.438 33.303-11.626 52.705-6.585s18.282 10.954 34.339 7.873c5.729-1.099 11.333-2.674 16.177-4.246l4.727-45.994c-10.224-.893-23-1.491-38.82-1.447-50.626.141-80.291 8.512-93.629 13.575l-3.794 38.216c4.817 1.443 14.437 2.938 28.295-1.392z" class="color5cbec6 svgShape"></path><path fill="#7b66ff" d="M2377.331 1871.883c-16.057 3.081-14.937-2.833-34.339-7.873s-32.103.147-52.705 6.585c-13.858 4.331-23.478 2.835-28.296 1.392l-3.558 35.838c59.32-22.01 132.31-13.281 132.31-13.281l2.765-26.908c-4.845 1.573-10.448 3.148-16.177 4.247z" class="colorffd766 svgShape"></path><path fill="#634aff" d="M2100.823 1467.142h146.907c28.282 0 51.421 23.14 51.421 51.421v44.778c0 28.282-23.139 51.421-51.421 51.421h-146.907c-28.282 0-51.422-23.14-51.422-51.422v-44.778c0-28.28 23.14-51.42 51.422-51.42z" class="colorff5f4a svgShape"></path><path fill="#634aff" d="m2196.27 1605.552 63.743 62.235-17.001-62.235z" class="colorff5f4a svgShape"></path><path fill="#ffffff" d="M2095.728 1513.912h15.324c8.696 0 15.045 5.296 15.045 15.582 0 10.064-5.74 15.723-15.828 15.723h-6.21v22.249h-8.331v-53.554zm8.332 24.541h5.284c5.697 0 8.375-2.899 8.375-9.07 0-5.548-2.877-8.652-7.806-8.652h-5.854v17.722zM2140.871 1544.008v23.457h-8.275v-53.553h15.569c9.479 0 14.722 5.082 14.722 14.356 0 7.833-4.071 11.2-7.019 12.307 4.425 1.882 6.244 5.698 6.244 13.469v2.134c0 5.709.245 8.418.735 11.287h-8.101c-.767-2.45-.878-6.868-.878-11.39v-1.905c0-7.319-1.613-10.162-8.069-10.162h-4.928zm0-6.819h5.299c6.038 0 8.369-2.899 8.369-8.589 0-4.875-2.3-7.869-7.554-7.869h-6.115v16.458zM2178.931 1513.912v53.553h-8.331v-53.553h8.331zM2188.811 1567.465v-53.553h9.643c12.348 32.149 14.458 37.588 15.114 40.111h.079c-.427-6.694-.474-14.638-.474-23.388v-16.723h7.523v53.553h-9.24c-12.782-34.078-14.766-39.502-15.43-41.842h-.079c.395 6.632.419 14.819.419 24.431v17.411h-7.555zM2237.519 1521.23h-11.611v-7.318h31.553v7.318h-11.611v46.236h-8.331v-46.236z" class="colorffffff svgShape"></path><path fill="#464359" d="M2638.109 1301.594a4.707 4.707 0 0 1 4.705-4.705 4.706 4.706 0 0 1 0 9.41 4.707 4.707 0 0 1-4.705-4.705zm0-16.751a4.699 4.699 0 0 1 4.705-4.696 4.698 4.698 0 0 1 4.705 4.696 4.7 4.7 0 0 1-4.705 4.705 4.7 4.7 0 0 1-4.705-4.705zm0-16.741a4.707 4.707 0 0 1 4.705-4.705 4.706 4.706 0 0 1 4.705 4.705 4.706 4.706 0 0 1-4.705 4.705 4.707 4.707 0 0 1-4.705-4.705zm-11.688-5.062a4.706 4.706 0 0 1 4.705-4.705 4.706 4.706 0 0 1 4.705 4.705 4.706 4.706 0 0 1-4.705 4.705 4.708 4.708 0 0 1-4.705-4.705zm-16.75 0a4.706 4.706 0 0 1 4.705-4.705 4.707 4.707 0 0 1 4.705 4.705 4.707 4.707 0 0 1-4.705 4.705 4.707 4.707 0 0 1-4.705-4.705zm-16.75 0a4.706 4.706 0 0 1 4.705-4.705 4.707 4.707 0 0 1 4.705 4.705 4.707 4.707 0 0 1-4.705 4.705 4.707 4.707 0 0 1-4.705-4.705zm-16.751 0a4.706 4.706 0 0 1 4.705-4.705 4.707 4.707 0 0 1 4.705 4.705 4.707 4.707 0 0 1-4.705 4.705 4.707 4.707 0 0 1-4.705-4.705zm-16.741 0a4.7 4.7 0 0 1 4.705-4.705 4.707 4.707 0 0 1 4.705 4.705 4.707 4.707 0 0 1-4.705 4.705 4.7 4.7 0 0 1-4.705-4.705zm-16.75 0a4.706 4.706 0 0 1 4.705-4.705 4.707 4.707 0 0 1 4.705 4.705 4.707 4.707 0 0 1-4.705 4.705 4.706 4.706 0 0 1-4.705-4.705zm-16.752 0a4.706 4.706 0 0 1 4.705-4.705 4.706 4.706 0 0 1 4.705 4.705 4.706 4.706 0 0 1-4.705 4.705 4.708 4.708 0 0 1-4.705-4.705zm-16.75 0a4.706 4.706 0 0 1 4.705-4.705 4.71 4.71 0 0 1 4.715 4.705 4.708 4.708 0 0 1-4.715 4.705 4.707 4.707 0 0 1-4.705-4.705zm-16.741 0a4.706 4.706 0 0 1 4.705-4.705 4.707 4.707 0 0 1 4.705 4.705 4.707 4.707 0 0 1-4.705 4.705 4.707 4.707 0 0 1-4.705-4.705zm-16.75 0a4.706 4.706 0 0 1 4.705-4.705 4.707 4.707 0 0 1 4.705 4.705 4.707 4.707 0 0 1-4.705 4.705 4.707 4.707 0 0 1-4.705-4.705zm-16.751 0a4.706 4.706 0 0 1 4.705-4.705 4.707 4.707 0 0 1 4.705 4.705 4.707 4.707 0 0 1-4.705 4.705 4.707 4.707 0 0 1-4.705-4.705zm-16.751 0a4.706 4.706 0 0 1 4.706-4.705 4.701 4.701 0 0 1 4.705 4.705 4.701 4.701 0 0 1-4.705 4.705 4.707 4.707 0 0 1-4.706-4.705zm-16.741 0a4.706 4.706 0 0 1 4.705-4.705 4.706 4.706 0 0 1 4.705 4.705 4.707 4.707 0 0 1-4.705 4.705 4.707 4.707 0 0 1-4.705-4.705zm-16.75 0a4.706 4.706 0 0 1 4.705-4.705 4.707 4.707 0 0 1 4.705 4.705 4.707 4.707 0 0 1-4.705 4.705 4.706 4.706 0 0 1-4.705-4.705zm-16.751 0a4.706 4.706 0 0 1 4.705-4.705 4.707 4.707 0 0 1 4.705 4.705 4.707 4.707 0 0 1-4.705 4.705 4.707 4.707 0 0 1-4.705-4.705zm-16.751 0a4.706 4.706 0 0 1 4.705-4.705 4.7 4.7 0 0 1 4.705 4.705 4.7 4.7 0 0 1-4.705 4.705 4.708 4.708 0 0 1-4.705-4.705zm-16.741 0a4.706 4.706 0 0 1 4.705-4.705 4.707 4.707 0 0 1 4.705 4.705 4.707 4.707 0 0 1-4.705 4.705 4.707 4.707 0 0 1-4.705-4.705zm-16.75 0a4.706 4.706 0 0 1 4.705-4.705 4.707 4.707 0 0 1 4.705 4.705 4.707 4.707 0 0 1-4.705 4.705 4.707 4.707 0 0 1-4.705-4.705zm-16.751 0a4.706 4.706 0 0 1 4.705-4.705 4.707 4.707 0 0 1 4.705 4.705 4.707 4.707 0 0 1-4.705 4.705 4.707 4.707 0 0 1-4.705-4.705zm-16.751 0a4.708 4.708 0 0 1 4.715-4.705 4.707 4.707 0 0 1 4.705 4.705 4.707 4.707 0 0 1-4.705 4.705 4.71 4.71 0 0 1-4.715-4.705zm-16.74 0a4.706 4.706 0 0 1 4.705-4.705 4.707 4.707 0 0 1 4.705 4.705 4.707 4.707 0 0 1-4.705 4.705 4.707 4.707 0 0 1-4.705-4.705zm-16.751 0a4.706 4.706 0 0 1 4.705-4.705 4.707 4.707 0 0 1 4.705 4.705 4.707 4.707 0 0 1-4.705 4.705 4.707 4.707 0 0 1-4.705-4.705zm-16.751 0a4.706 4.706 0 0 1 4.705-4.705 4.707 4.707 0 0 1 4.705 4.705 4.707 4.707 0 0 1-4.705 4.705 4.707 4.707 0 0 1-4.705-4.705zm-16.741 0a4.7 4.7 0 0 1 4.705-4.705 4.7 4.7 0 0 1 4.696 4.705 4.7 4.7 0 1 1-9.401 0zm-16.75 0a4.706 4.706 0 0 1 4.705-4.705 4.707 4.707 0 0 1 4.705 4.705 4.707 4.707 0 0 1-4.705 4.705 4.706 4.706 0 0 1-4.705-4.705zM2150.531 554.177a4.706 4.706 0 0 1 4.705-4.705 4.707 4.707 0 0 1 4.705 4.705 4.707 4.707 0 0 1-4.705 4.705 4.707 4.707 0 0 1-4.705-4.705zm-16.75 0a4.706 4.706 0 0 1 4.705-4.705 4.707 4.707 0 0 1 4.705 4.705 4.707 4.707 0 0 1-4.705 4.705 4.707 4.707 0 0 1-4.705-4.705zm-16.741 0a4.7 4.7 0 0 1 4.705-4.705 4.707 4.707 0 0 1 4.705 4.705 4.707 4.707 0 0 1-4.705 4.705 4.7 4.7 0 0 1-4.705-4.705zm-16.751 0a4.7 4.7 0 0 1 4.705-4.705 4.707 4.707 0 0 1 4.705 4.705 4.707 4.707 0 0 1-4.705 4.705 4.701 4.701 0 0 1-4.705-4.705zm-16.75 0a4.706 4.706 0 0 1 4.705-4.705 4.707 4.707 0 0 1 4.705 4.705 4.707 4.707 0 0 1-4.705 4.705 4.706 4.706 0 0 1-4.705-4.705zm-16.751 0a4.706 4.706 0 0 1 4.705-4.705 4.706 4.706 0 0 1 4.705 4.705 4.706 4.706 0 0 1-4.705 4.705 4.707 4.707 0 0 1-4.705-4.705zm-16.75 0a4.706 4.706 0 0 1 4.705-4.705 4.7 4.7 0 0 1 4.705 4.705 4.7 4.7 0 0 1-4.705 4.705 4.706 4.706 0 0 1-4.705-4.705zM1980.372 1736.127c0-2.588 2.108-4.695 4.714-4.695a4.704 4.704 0 0 1 4.705 4.695 4.71 4.71 0 0 1-4.705 4.715 4.711 4.711 0 0 1-4.714-4.715zm-16.741 0a4.698 4.698 0 0 1 4.705-4.695 4.704 4.704 0 0 1 4.705 4.695 4.71 4.71 0 0 1-4.705 4.715 4.703 4.703 0 0 1-4.705-4.715zm-16.751 0a4.704 4.704 0 0 1 4.705-4.695 4.704 4.704 0 0 1 4.705 4.695 4.71 4.71 0 0 1-4.705 4.715 4.71 4.71 0 0 1-4.705-4.715zm-16.75 0a4.704 4.704 0 0 1 4.705-4.695 4.704 4.704 0 0 1 4.705 4.695 4.71 4.71 0 0 1-4.705 4.715 4.708 4.708 0 0 1-4.705-4.715zm-16.751 0a4.704 4.704 0 0 1 4.705-4.695 4.698 4.698 0 0 1 4.705 4.695 4.703 4.703 0 0 1-4.705 4.715 4.71 4.71 0 0 1-4.705-4.715zm-16.741 0a4.704 4.704 0 0 1 4.705-4.695 4.704 4.704 0 0 1 4.705 4.695 4.71 4.71 0 0 1-4.705 4.715 4.71 4.71 0 0 1-4.705-4.715zm-16.751 0a4.704 4.704 0 0 1 4.705-4.695 4.704 4.704 0 0 1 4.705 4.695 4.71 4.71 0 0 1-4.705 4.715 4.71 4.71 0 0 1-4.705-4.715zm-16.75 0a4.704 4.704 0 0 1 4.705-4.695 4.704 4.704 0 0 1 4.705 4.695 4.71 4.71 0 0 1-4.705 4.715 4.708 4.708 0 0 1-4.705-4.715zm-16.741 0a4.698 4.698 0 0 1 4.705-4.695 4.704 4.704 0 0 1 4.705 4.695 4.71 4.71 0 0 1-4.705 4.715 4.703 4.703 0 0 1-4.705-4.715zm-6.117-10.634a4.707 4.707 0 0 1 4.705-4.705 4.707 4.707 0 0 1 4.705 4.705 4.706 4.706 0 0 1-9.41 0zm0-16.75a4.707 4.707 0 0 1 4.705-4.705 4.707 4.707 0 0 1 4.705 4.705 4.715 4.715 0 0 1-4.705 4.714 4.714 4.714 0 0 1-4.705-4.714zm0-16.741a4.707 4.707 0 0 1 4.705-4.705 4.707 4.707 0 0 1 4.705 4.705 4.707 4.707 0 0 1-4.705 4.705 4.706 4.706 0 0 1-4.705-4.705zm0-16.751a4.707 4.707 0 0 1 4.705-4.705 4.707 4.707 0 0 1 4.705 4.705 4.705 4.705 0 1 1-9.41 0zm0-16.75a4.706 4.706 0 0 1 4.705-4.705 4.706 4.706 0 0 1 4.705 4.705 4.707 4.707 0 0 1-4.705 4.705 4.706 4.706 0 0 1-4.705-4.705zm0-16.751a4.707 4.707 0 0 1 4.705-4.705 4.707 4.707 0 0 1 4.705 4.705 4.7 4.7 0 0 1-4.705 4.705 4.7 4.7 0 0 1-4.705-4.705zm0-16.74a4.7 4.7 0 0 1 4.705-4.705 4.7 4.7 0 0 1 4.705 4.705 4.707 4.707 0 0 1-4.705 4.705 4.707 4.707 0 0 1-4.705-4.705zm0-16.752a4.707 4.707 0 0 1 4.705-4.705 4.707 4.707 0 0 1 4.705 4.705 4.706 4.706 0 0 1-9.41 0zm0-16.75a4.707 4.707 0 0 1 4.705-4.705 4.707 4.707 0 0 1 4.705 4.705 4.707 4.707 0 0 1-4.705 4.705 4.706 4.706 0 0 1-4.705-4.705zm0-16.751a4.7 4.7 0 0 1 4.705-4.696 4.7 4.7 0 0 1 4.705 4.696 4.706 4.706 0 0 1-9.41 0zm0-16.741a4.707 4.707 0 0 1 4.705-4.705 4.707 4.707 0 0 1 4.705 4.705 4.707 4.707 0 0 1-4.705 4.705 4.706 4.706 0 0 1-4.705-4.705zM1442.462 530.42a4.707 4.707 0 0 1 4.705-4.705 4.707 4.707 0 0 1 4.705 4.705 4.707 4.707 0 0 1-4.705 4.705 4.707 4.707 0 0 1-4.705-4.705zm0-16.751a4.707 4.707 0 0 1 4.705-4.705 4.707 4.707 0 0 1 4.705 4.705 4.706 4.706 0 0 1-4.705 4.705 4.706 4.706 0 0 1-4.705-4.705zm0-16.75a4.706 4.706 0 0 1 4.705-4.705 4.707 4.707 0 0 1 4.705 4.705 4.71 4.71 0 0 1-4.705 4.715 4.71 4.71 0 0 1-4.705-4.715zm0-16.741a4.706 4.706 0 0 1 4.705-4.705 4.707 4.707 0 0 1 4.705 4.705 4.707 4.707 0 0 1-4.705 4.705 4.707 4.707 0 0 1-4.705-4.705zm-4.658-12.093a4.706 4.706 0 0 1 4.705-4.705 4.706 4.706 0 0 1 4.705 4.705 4.707 4.707 0 0 1-4.705 4.705 4.707 4.707 0 0 1-4.705-4.705zm-16.751 0a4.706 4.706 0 0 1 4.705-4.705 4.707 4.707 0 0 1 4.705 4.705 4.707 4.707 0 0 1-4.705 4.705 4.707 4.707 0 0 1-4.705-4.705zm-16.751 0a4.706 4.706 0 0 1 4.705-4.705 4.706 4.706 0 0 1 4.705 4.705 4.707 4.707 0 0 1-4.705 4.705 4.708 4.708 0 0 1-4.705-4.705zm-16.741 0a4.706 4.706 0 0 1 4.705-4.705 4.706 4.706 0 0 1 4.705 4.705 4.707 4.707 0 0 1-4.705 4.705 4.707 4.707 0 0 1-4.705-4.705zm-16.75 0a4.706 4.706 0 0 1 4.705-4.705 4.707 4.707 0 0 1 4.705 4.705 4.707 4.707 0 0 1-4.705 4.705 4.707 4.707 0 0 1-4.705-4.705zm-16.75 0a4.706 4.706 0 0 1 4.705-4.705 4.707 4.707 0 0 1 4.705 4.705 4.707 4.707 0 0 1-4.705 4.705 4.706 4.706 0 0 1-4.705-4.705z" class="color434a59 svgShape"></path><ellipse cx="377.409" cy="2617.614" fill="#6a5cc6" rx="384.476" ry="14.386" class="color5cbec6 svgShape"></ellipse><path fill="#8c7aff" d="M862.707 1490.138s24.184-6.233 28.627-11.088c4.442-4.855 5.988-10.137 15.794-21.98 6.81-8.224 6.91-27.238 19.743-26.744 12.833.494-1.587 22.784 3.842 28.707 5.429 5.923 99.808-5.588 98.822 12.18-.987 17.768-74.836 28.489-98.222 32.745-23.385 4.256-42.98 18.936-51.824 20.236-16.782 2.467-16.782-34.056-16.782-34.056z" class="colorff867a svgShape"></path><path fill="#7d6ee0" d="M397.713 1369.787s94.946 77.108 163.921 110.704c78.011 37.997 283.601 8.276 325.857-14.925 0 0 20.315 21.493 21.128 66.186 0 0-145.582 72.841-286.847 66.588-164.152-7.267-237.758-95.038-264.339-146.635-26.581-51.596-3.375-110.615 40.28-81.918z" class="colore06e6e svgShape"></path><path fill="#373254" d="M347.777 1275.251s6.601-15.664-4.018-21.196c-10.619-5.532-9.311-3.284-15.763-3.232-6.453.052-16.707-8.301-25.285-3.208s-18.045 14.264-20.279 25.523c-6.703 33.788 21.831 50.268 28.663 55.938 5.247 4.354 36.411-36.601 36.682-53.825z" class="color543732 svgShape"></path><path fill="#383356" d="M211.11 2597.983c-3.178-10.32 2.37-21.862 2.327-22.67-.186-3.491-10.099-9.867-14.234-1.205-8.151 17.073-20.036-1.622-19.28 4.225 2.253 17.404-2.906 47.757 3.437 47.786 13.513.062 64.512 4.135 65.403-3.178.535-4.389-35.542-18.102-37.653-24.958zM505.609 2602.567c-7.673-2.996-8.903-9.67-12.37-15.906-.234-.421-.534-16.394-.573-17.123-.166-3.153-34.063-3.697-33.359 1.688 2.097 16.03-2.933 41.851 3.131 43.368 12.918 3.232 72.68 5.178 73.556-1.126.528-3.782-17.115-5.72-30.385-10.901z" class="color333f56 svgShape"></path><path fill="#625d7f" d="M541.788 1835.739c-5.563-51.544-50.54-212.341-52.968-218.508-38.043-96.792-133.9-79.888-140.858-29.369-3.266 23.714-23.758 43.239-44.288 71.672-32.348 43.494-57.466 113.528-59.658 202.754-.985 40.099-71.622 721.488-71.622 721.488s11.242 4.659 34.849 3.178c21.35-1.339 34.001-10.055 34.001-10.055 80.67-279.668 157.746-649.076 157.746-649.076 24.002 128.887 23.251 659.142 23.251 659.142s17.241 7.848 50.058 1.296c23.759-4.743 32.56-13.654 32.56-13.654s65.589-369.321 36.929-738.868z" class="color7f635d svgShape"></path><path fill="#4a4660" d="M539.308 1818.907c-1.94-11.104-4.694-24.378-7.928-38.748-34.496 6.355-105.865 19.104-146.587 23.556-55.109 6.024-120.073 16.225-120.073 16.225s37.226 18.128 154.842 11.024c75.969-4.587 97.863-10.587 119.746-12.057z" class="color604a46 svgShape"></path><path fill="#8979f2" d="M241.399 1811.639c4.087-98.805-1.695-162.505-4.074-248.195-1.438-51.806-4.73-117.819 13.319-160.639 21.048-49.935 96.818-67.867 147.069-33.018 26.661 18.49 47.718 83.142 83.42 179.473 20.958 56.548 46.038 143.654 55.797 202.734 1.089 6.59 9.914 42.97 1.981 45.509-87.958 28.157-298.259 32.182-297.512 14.136z" class="colorf27c79 svgShape"></path><path fill="#5f50bc" d="M417.599 1603.465c29.229 9.517 62.657 13.346 86.515 14.873 6.097 20.153 11.966 41.087 17.167 61.475-35.68 4.468-104.437 13.269-163.739-31.247-84.435-63.384-95.164-174.379-95.164-174.379s102.807 112.213 155.221 129.278zM314.154 1353.8s-5.305.302-8.064 6.057c-2.759 5.755 11.679 29.967 29.199 28.572 17.521-1.395 18.124-8.109 17.02-16.836-1.104-8.728-8.848-18.397-14.193-19.034-5.345-.637-23.962 1.241-23.962 1.241z" class="colorbc5050 svgShape"></path><path fill="#464359" d="M1355.894 1147.812s-20.012-38.51-28.794-45.69c-15.964-13.052-114.747-20.055-180.333-5.755-14.758 3.218-57.859 43.589-57.859 43.589l-300.996 14.633s-7.815-35.804-11.964-45.712c-4.15-9.908-78.884-29.156-125.397-21.566-37.435 6.109-148.604 18.927-185.082 74.068-22.102 33.409-90.485 465.266-90.485 465.266-4.491 88.953 54.161 134.518 173.283 122.717 77.162-7.644 141.441-113.547 177.152-187.206a68.782 68.782 0 0 0 43.512 8.664c37.834-4.96 64.483-39.651 59.523-77.485-.131-1-.287-1.991-.46-2.975l115.31-1.947a69.186 69.186 0 0 0-.011 18.135c4.96 37.833 39.651 64.483 77.485 59.523 15.403-2.02 28.952-8.968 39.269-19.049 28.077 53.982 63.055 129.551 80.416 151.588 28.496 36.17 103.053 36.533 168.149 18.497s74.042-169.311 75.796-257.583c.209-10.531 1.717-44.882 1.429-112.305-.287-67.423-29.943-199.407-29.943-199.407z" class="color434a59 svgShape"></path><ellipse cx="580.114" cy="1321.382" fill="#373544" rx="146.049" ry="132.379" transform="rotate(-83.327 580.129 1321.416)" class="color353a44 svgShape"></ellipse><ellipse cx="1167.383" cy="1316.902" fill="#373544" rx="146.049" ry="132.379" transform="rotate(-83.327 1167.41 1316.935)" class="color353a44 svgShape"></ellipse><ellipse cx="1168.436" cy="1232.023" fill="#5142ad" rx="39.958" ry="36.218" transform="rotate(-83.327 1168.464 1232.055)" class="color8ead42 svgShape"></ellipse><path fill="#634aff" d="M1187.463 1381.076c-2.564 21.919-20.749 37.803-40.616 35.479-19.867-2.324-33.894-21.977-31.33-43.896 2.564-21.918 20.749-37.803 40.616-35.479 19.868 2.324 33.894 21.977 31.33 43.896z" class="colorff5f4a svgShape"></path><path fill="#7b66ff" d="M1278.328 1305.94c-2.564 21.919-20.749 37.803-40.616 35.479-19.867-2.324-33.894-21.977-31.329-43.896s20.749-37.803 40.616-35.479c19.867 2.324 33.894 21.977 31.329 43.896z" class="colorffd766 svgShape"></path><ellipse cx="1087.938" cy="1297.966" fill="#7764f0" rx="39.958" ry="36.218" transform="rotate(-83.327 1087.99 1298.003)" class="color529ae3 svgShape"></ellipse><path fill="#514d6d" d="m830.478 1257.472-31.081.713c-12.173.279-21.905 10.468-21.626 22.641.279 12.173 10.468 21.905 22.641 21.626l31.081-.713c12.173-.279 21.905-10.467 21.626-22.641-.279-12.174-10.467-21.905-22.641-21.626zM952.339 1252.062l-31.081.713c-12.173.279-21.905 10.468-21.626 22.641.279 12.173 10.468 21.905 22.641 21.625l31.081-.713c12.173-.279 21.905-10.468 21.626-22.641-.28-12.172-10.468-21.904-22.641-21.625zM586.201 1291.171c-6.645 3.736-14.962 2.434-20.183-3.12-7.737-8.231-17.5-20.525-17.778-30.395-.462-16.41 8.769-61.962 18.372-62.799 9.603-.837 56.361 1.479 58.893 7.904 2.532 6.425-7.034 65.536-8.674 69.129-1.081 2.367-18.714 12.581-30.63 19.281zM600.316 1325.171c-3.485-6.78-1.874-15.043 3.872-20.053 8.514-7.424 21.164-16.721 31.038-16.631 16.415.151 61.591 11.078 62.069 20.706.477 9.628-3.584 56.267-10.099 58.556-6.515 2.29-65.227-9.477-68.757-11.25-2.325-1.168-11.873-19.17-18.123-31.328zM549.72 1338.659c6.054-4.632 14.472-4.512 20.421.254 8.817 7.062 20.21 17.863 21.871 27.596 2.762 16.182.021 62.58-9.369 64.757-9.391 2.177-56.01 6.452-59.419.446-3.409-6.006-2.241-65.874-1.122-69.662.737-2.494 16.761-15.084 27.618-23.391zM542.791 1300.523c3.779 6.372 3.865 14.655.239 20.099-5.374 8.067-13.637 18.344-21.268 19.127-12.688 1.301-56.595-.022-58.512-9.466-1.917-9.444 3.645-57.038 8.303-59.87 4.658-2.832 49.211-.59 52.219.845 1.981.946 12.242 17.839 19.019 29.265zM517.507 1125.701s53.279-18.81 113.214-19.066c59.935-.256 93.757 13.291 97.817 11.67 12.563-5.018 33.265-10.931 32.275-18.167-1.794-13.111.323-45.652-71.563-46.363-58.169-.575-118.91 4.61-140.492 18.689-14.138 9.223-31.251 53.237-31.251 53.237zM1123.519 1113.351c-1.383 3.458 1.825 6.988 5.402 5.947 16.006-4.661 52.016-13.478 91.147-11.978 52.778 2.024 77.111 13.332 90.487 11.54 11.894-1.593 24.93-5.818 24.13-13.078-1.451-13.153.734-45.55-62.558-48.993-51.214-2.786-104.751.079-123.894 13.31-8.979 6.205-19.475 30.149-24.714 43.252z" class="color4d586d svgShape"></path><circle cx="1002.298" cy="1493.956" r="51.922" fill="#373544" transform="rotate(-56.234 1002.372 1494.024)" class="color353a44 svgShape"></circle><circle cx="755.809" cy="1494.387" r="51.922" fill="#373544" transform="rotate(-12.068 755.549 1494.208)" class="color353a44 svgShape"></circle><path fill="#ffffff" d="M497.528 1175.771a7.125 7.125 0 0 1-7.357-4.007 7.12 7.12 0 0 1 3.372-9.484c3.385-1.609 84.028-39.298 182.557-28.061a7.12 7.12 0 0 1 6.267 7.881 7.113 7.113 0 0 1-7.881 6.267c-94.336-10.759-174.037 26.398-174.83 26.774a7.138 7.138 0 0 1-2.128.63zM1281.127 1139.795a7.075 7.075 0 0 1-2.519-.122c-86.843-19.943-160.618 7.307-161.354 7.584a7.12 7.12 0 1 1-5.03-13.322c3.166-1.195 78.574-29.037 169.572-8.141a7.12 7.12 0 0 1-.669 14.001z" class="colorffffff svgShape"></path><path fill="#8c7aff" d="m311.27 1312.316-.385 36.818-1.735 10.583c.265 7.782 23.808 26.837 35.666 16.469 3.471-3.035 1.477-13.633-2.255-21.564l-14.158-40.091-17.133-2.215z" class="colorff867a svgShape"></path><path fill="#7467c6" d="m336.506 1337.476-6.147-17.406-14.413-2.257c.001 0 4.93 19.952 20.56 19.663z" class="colorc66c67 svgShape"></path><path fill="#8c7aff" d="m318.862 1282.149-9.084 13.019c-5.325 13.562 3.648 29.482 17.696 33.344 17.521 4.817 26.935 2.805 29.765-13.801 1.66-9.737-3.948-28.815-6.217-36.21-2.652-8.645-9.254-13.563-16.293-13.727-6.688-.155-.08 9.389-15.867 17.375z" class="colorff867a svgShape"></path><path fill="#ffffff" d="M332.987 1306.913c3.111-.335 10.822-1.044 19.1-.894.61.011 1.078.546 1.002 1.151-.224 1.782-.893 5.231-2.805 7.005-3.74 3.468-12.325 5.418-18.099-5.761a1.032 1.032 0 0 1 .802-1.501z" class="colorffffff svgShape"></path><path fill="#8c7aff" d="M311.477 1293.944c-.766-1.422-1.308-2.941-1.758-4.493-.856-2.948-2.811-7.132-6.561-3.71-5.454 4.976-.034 20.435 7.601 19.516 5.669-.682 2.649-7.73.718-11.313zM672.561 1416.745c5.152-10.893 5.189-27.021 11.454-19.831 6.264 7.19.163 18.09 4.035 23.551 3.872 5.46 39.831-13.976 41.529-6.699 1.128 4.832-20.749 11.098-19.845 12.278.904 1.18 21.822-7.18 22.959-1.087 1.394 7.473-2.212 15.832-10.078 21.268 2.975-.19 5.479.165 5.906 1.779 1.151 4.343-68.437 30.664-66.815-5.354.352-7.79 2.923-9.134 10.855-25.905z" class="colorff867a svgShape"></path><path fill="#373254" d="M334.035 1280.509c-2.414.095-5.037.57-7.285 1.549-1.068.465-.34 2.02.726 1.555 1.928-.84 4.309-1.29 6.383-1.371 1.139-.044 1.33-1.778.176-1.733zM352.322 1281.011c-1.474-.257-2.966-.383-4.463-.499-1.142-.088-1.38 1.637-.232 1.726 1.497.116 2.989.242 4.462.499 1.124.196 1.354-1.531.233-1.726z" class="color543732 svgShape"></path><path fill="#8979f2" d="M276.47 1393.944c61.503-4.995 133.205 141.856 174.649 155.685 51.194 13.002 190.964-114.067 190.964-114.067s10.888-5.191 33.533 10.954c22.651 16.151 25.788 30.79 25.788 30.79s-59.321 105.267-145.488 157.225c-95.094 57.342-194.426 42.845-279.445-128.784-35.468-71.596-33.389-109.091-.001-111.803z" class="colorf27c79 svgShape"></path><path fill="#373254" d="M300.842 1263.059s2.215-31.505-23.136-22.398c-25.352 9.107-6.4 39.627 7.384 35.935 13.783-3.692 15.752-13.537 15.752-13.537z" class="color543732 svgShape"></path><path fill="#7467c6" d="M345.531 1304.22c.19 0 .384-.045.564-.139 2.439-1.278 4.098-3.635 4.168-3.735a1.218 1.218 0 0 0-1.999-1.395c-.014.02-1.401 1.975-3.3 2.97a1.22 1.22 0 0 0 .567 2.299z" class="colorc66c67 svgShape"></path><path fill="#5f50bc" d="M491.443 1560.93c-5.661 0-24.888-.337-35.812-4.706-12.622-5.05-21.634-13.408-40.675-32.697-18.369-18.607-69.14-83.274-71.292-86.017a3.165 3.165 0 0 1 .536-4.443 3.162 3.162 0 0 1 4.442.537c.525.669 52.702 67.125 70.816 85.476 18.384 18.623 27.016 26.664 38.524 31.268 11.451 4.58 34.698 4.243 34.933 4.244a3.145 3.145 0 0 1 3.217 3.111 3.164 3.164 0 0 1-3.11 3.217c-.136.001-.691.01-1.579.01z" class="colorbc5050 svgShape"></path><path fill="#5f50bc" d="M459.942 1552.961c-9.997 0-14.874-2.831-15.234-3.05a3.164 3.164 0 0 1 3.251-5.43c.291.161 14.342 7.662 45.655-6.46 33.1-14.929 78.245-48.958 78.698-49.3a3.163 3.163 0 0 1 4.432.615 3.163 3.163 0 0 1-.615 4.433c-1.868 1.414-46.168 34.802-79.913 50.021-15.923 7.183-27.896 9.171-36.274 9.171z" class="colorbc5050 svgShape"></path><path fill="#4a4660" d="M398.993 1931.781a3.956 3.956 0 0 1-3.874-4.779c7.868-36.983 33.209-63.145 34.284-64.24a3.955 3.955 0 0 1 5.649 5.539c-.247.253-24.818 25.679-32.195 60.347a3.957 3.957 0 0 1-3.864 3.133z" class="color604a46 svgShape"></path><path fill="#373254" d="M335.512 1291.136c0 1.101-.589 1.994-1.314 1.994-.726 0-1.314-.893-1.314-1.994 0-1.102.589-1.994 1.314-1.994.726 0 1.314.892 1.314 1.994zM352.851 1290.657c0 1.101-.588 1.995-1.314 1.995-.726 0-1.314-.893-1.314-1.995s.589-1.994 1.314-1.994c.726 0 1.314.893 1.314 1.994z" class="color543732 svgShape"></path><path fill="#6a5cc6" d="M982.865 486.422H557.986c-81.796 0-148.719 66.924-148.719 148.719v129.505c0 81.795 66.923 148.719 148.719 148.719h424.879c81.796 0 148.72-66.924 148.72-148.719V635.141c-.001-81.795-66.924-148.719-148.72-148.719z" class="color5cbec6 svgShape"></path><path fill="#6a5cc6" d="M706.816 886.727 570.983 1003.1l.647-116.373z" class="color5cbec6 svgShape"></path><path fill="#ffffff" d="M689.817 674.758h-11.385c-.381-2.83-.662-5.222-.761-8.865-3.874 7.239-9.861 10.428-18.992 10.428-20.173 0-26.767-18.956-26.767-48.824 0-34.144 11.182-49.586 31.289-49.586 24.827 0 26.277 21.516 26.559 27.189h-14.683c-.281-3.69-1.085-14.55-12.312-14.55-11.85 0-15.493 15.076-15.493 36.863 0 22.789 2.941 36.368 14.692 36.368 10.354 0 13.155-8.243 13.155-24.323v-5.112h-14.113v-12.738h28.811v53.15zM719.432 648.613l-5.485 26.145h-14.839l22.412-95.382h19.235l22.805 95.382h-15.599l-5.528-26.145h-23.001zm20.267-12.936c-4.234-20.023-7.33-33.902-8.752-42.492h-.381c-1.21 8.618-4.531 23.915-8.443 42.492h17.576zM830.775 637.517c0-16.793.281-35.139.563-45.699H831c-3.364 17.559-9.806 52.304-16.518 82.941h-13.583c-4.995-27.894-11.704-65.017-14.913-83.18h-.478c.563 11.122.985 31.464.985 47.893v35.287h-13.654v-95.382h22.137c5.922 27.587 11.35 57.541 13.391 70.961h.14c1.887-12.042 8.991-44.5 14.871-70.961h21.686v95.382h-14.288v-37.242zM908.034 631.206h-31.027v30.716h34.702l-1.873 12.836h-47.47v-95.382h47.161v13.034h-32.52v25.861h31.027v12.935zM568.455 766.478c-.423 5.068-2.45 28.865-27.77 28.865-26.527 0-29.234-24.856-29.234-49.57 0-29.81 8.465-48.84 30.303-48.84 24.502 0 26.235 21.639 26.574 28.654h-14.726c-.24-3.239-.591-15.931-12.088-15.931-12.197 0-14.705 15.655-14.705 36.371 0 18.721 1.943 36.79 14.157 36.79 11.047 0 12.241-12.286 12.664-16.339h14.825zM637.818 745.322c0 34.075-8.887 50.021-30.417 50.021-20.233 0-29.599-15.596-29.599-50.093 0-33.763 10.929-48.317 30.277-48.317 20.429 0 29.739 15.542 29.739 48.389zm-44.797-.254c0 24.191 4.135 37.735 14.761 37.735 11.104 0 14.818-12.754 14.818-37.651 0-24.077-3.98-35.579-14.861-35.579-10.696 0-14.718 12.626-14.718 35.495zM651.869 793.78v-95.383h17.175c21.992 57.26 25.752 66.947 26.92 71.44h.14c-.761-11.922-.844-26.071-.844-41.655v-29.784h13.399v95.383h-16.457c-22.766-60.695-26.299-70.356-27.482-74.524h-.141c.704 11.811.747 26.394.747 43.514v31.01h-13.457zM735.115 767.633c.802 8.556 4.502 15.818 13.819 15.818 8.952 0 12.721-5.335 12.721-13.76 0-8.584-3.928-13.411-16.301-19.337-15.855-7.548-22.317-14.32-22.317-28.371 0-14.548 9.337-25.009 26.01-25.009 20.42 0 25.601 14.067 25.884 26.065h-14.543c-.521-5.168-1.929-14.215-11.665-14.215-7.584 0-10.905 5.036-10.905 11.904 0 7.64 3.405 11.229 14.85 16.591 16.966 7.927 24.107 15.697 24.107 31.061 0 15.007-9.012 26.921-28.277 26.921-20.969 0-27.516-13.518-28.164-27.668h14.781zM846.323 745.322c0 34.075-8.887 50.021-30.417 50.021-20.233 0-29.599-15.596-29.599-50.093 0-33.763 10.929-48.317 30.276-48.317 20.431 0 29.74 15.542 29.74 48.389zm-44.797-.254c0 24.191 4.135 37.735 14.761 37.735 11.105 0 14.818-12.754 14.818-37.651 0-24.077-3.98-35.579-14.861-35.579-10.696 0-14.718 12.626-14.718 35.495zM860.374 698.398h14.838v82.645h33.125l-1.605 12.738h-46.359v-95.383zM963.073 750.228h-31.027v30.716h34.702l-1.873 12.837h-47.47v-95.383h47.161v13.034h-32.52v25.861h31.027v12.935zM988.907 767.633c.802 8.556 4.502 15.818 13.819 15.818 8.952 0 12.721-5.335 12.721-13.76 0-8.584-3.928-13.411-16.301-19.337-15.855-7.548-22.317-14.32-22.317-28.371 0-14.548 9.338-25.009 26.01-25.009 20.42 0 25.601 14.067 25.884 26.065h-14.543c-.521-5.168-1.929-14.215-11.665-14.215-7.584 0-10.905 5.036-10.905 11.904 0 7.64 3.406 11.229 14.85 16.591 16.966 7.927 24.107 15.697 24.107 31.061 0 15.007-9.012 26.921-28.277 26.921-20.969 0-27.516-13.518-28.164-27.668h14.781z" class="colorffffff svgShape"></path><path fill="#464359" d="M1054.404 1128.006a4.706 4.706 0 0 1 4.705-4.705 4.707 4.707 0 0 1 4.705 4.705 4.706 4.706 0 0 1-9.41 0zm0-16.75a4.707 4.707 0 0 1 4.705-4.705 4.707 4.707 0 0 1 4.705 4.705 4.7 4.7 0 0 1-4.705 4.705 4.701 4.701 0 0 1-4.705-4.705zm0-16.741a4.706 4.706 0 0 1 4.705-4.705 4.707 4.707 0 0 1 4.705 4.705 4.707 4.707 0 0 1-4.705 4.705 4.707 4.707 0 0 1-4.705-4.705zm0-16.751a4.707 4.707 0 0 1 4.705-4.705 4.707 4.707 0 0 1 4.705 4.705 4.707 4.707 0 0 1-4.705 4.705 4.707 4.707 0 0 1-4.705-4.705zm0-16.75a4.707 4.707 0 0 1 4.705-4.705 4.707 4.707 0 0 1 4.705 4.705 4.707 4.707 0 0 1-4.705 4.705 4.707 4.707 0 0 1-4.705-4.705zm0-16.751a4.707 4.707 0 0 1 4.705-4.705 4.707 4.707 0 0 1 4.705 4.705 4.7 4.7 0 0 1-4.705 4.705 4.7 4.7 0 0 1-4.705-4.705zm0-16.742a4.7 4.7 0 0 1 4.705-4.705 4.701 4.701 0 0 1 4.705 4.705 4.706 4.706 0 0 1-9.41 0zm99.845-.649a4.707 4.707 0 0 1 4.705-4.705 4.706 4.706 0 0 1 4.705 4.705 4.7 4.7 0 0 1-4.705 4.705 4.7 4.7 0 0 1-4.705-4.705zm-16.751 0a4.71 4.71 0 0 1 4.715-4.705 4.698 4.698 0 0 1 4.695 4.705 4.693 4.693 0 0 1-4.695 4.705 4.702 4.702 0 0 1-4.715-4.705zm-16.741 0a4.707 4.707 0 0 1 4.705-4.705 4.706 4.706 0 0 1 4.705 4.705 4.7 4.7 0 0 1-4.705 4.705 4.7 4.7 0 0 1-4.705-4.705zm-16.75 0a4.707 4.707 0 0 1 4.705-4.705 4.707 4.707 0 0 1 4.705 4.705 4.7 4.7 0 0 1-4.705 4.705 4.7 4.7 0 0 1-4.705-4.705zm-16.751 0a4.707 4.707 0 0 1 4.705-4.705 4.706 4.706 0 0 1 4.705 4.705 4.7 4.7 0 0 1-4.705 4.705 4.7 4.7 0 0 1-4.705-4.705zm-16.751 0a4.707 4.707 0 0 1 4.705-4.705 4.708 4.708 0 0 1 4.714 4.705 4.702 4.702 0 0 1-4.714 4.705 4.7 4.7 0 0 1-4.705-4.705z" class="color434a59 svgShape"></path></g></svg>