<svg width="463" height="463" viewBox="0 0 463 463" fill="none" xmlns="http://www.w3.org/2000/svg">
<path d="M413.532 363.208C413.485 363.49 413.438 363.772 413.368 364.054H105.114C104.903 363.772 104.715 363.49 104.527 363.208C69.5373 311.017 62.4876 242.59 80.558 192.303C82.2028 187.744 84.1298 183.068 86.3152 178.392C99.5684 150.193 121.963 122.183 141.631 124.392C154.978 125.896 159.983 140.536 174.176 154.588C180.028 160.392 187.477 166.102 197.698 170.755C220.61 181.188 229.539 173.551 239.737 184.384C256.75 202.454 235.789 227.621 252.215 258.757C259.57 272.715 275.197 289.352 294.183 291.278C314.862 293.417 323.956 276.474 339.888 279.835C356.689 283.383 351.731 310.406 367.358 324.717C368.885 326.15 370.624 327.443 372.598 328.571C385.028 335.691 396.026 331.249 404.297 334.069C406.365 334.751 408.245 335.902 409.961 337.806C415.671 344.15 415.342 354.443 413.532 363.208Z" fill="url(#paint0_linear_1353_4580)"/>
<path d="M413.532 363.207C413.485 363.489 413.438 363.771 413.368 364.053H105.114C104.903 363.771 104.715 363.489 104.527 363.207C69.5373 311.016 62.4876 242.589 80.558 192.302C92.049 160.32 118.696 121.806 141.631 124.391C154.978 125.895 159.983 140.534 174.176 154.586C154.579 163.563 114.913 168.31 101.777 198.435C88.336 229.265 106.219 278.612 137.307 293.604C175.845 312.191 210.105 266.134 252.849 286.061C284.173 300.654 279.473 331.765 309.246 338.416C329.596 342.974 339.982 330.262 367.358 324.716C368.885 326.15 370.624 327.442 372.598 328.57C388.13 337.476 401.407 328.311 409.96 337.805C415.671 344.149 415.342 354.442 413.532 363.207Z" fill="url(#paint1_linear_1353_4580)"/>
<path d="M413.532 363.208C413.485 363.49 413.438 363.772 413.368 364.054H105.114C104.903 363.772 104.715 363.49 104.527 363.208C69.5373 311.018 62.4876 242.59 80.558 192.303C82.2028 187.745 84.1298 183.068 86.3152 178.392C92.1194 173.81 98.1585 171.202 104.292 171.742C113.62 172.588 118.414 180.272 136.79 208.001C191.988 291.421 199.461 298.729 211.163 303.123C239.408 313.72 250.593 291.702 284.055 303.922C315.073 315.271 313.147 337.031 340.71 344.715C366.653 351.952 388.812 338.394 404.297 334.07C406.365 334.752 408.245 335.903 409.961 337.807C415.671 344.151 415.342 354.443 413.532 363.208Z" fill="url(#paint2_linear_1353_4580)"/>
<path d="M397.859 309.089C397.859 309.818 397.788 310.523 397.671 311.204C396.661 317.173 391.467 321.708 385.24 321.708C382.28 321.708 379.577 320.698 377.439 319.006L377.415 318.982C374.501 316.679 372.622 313.108 372.622 309.089C372.622 302.11 378.261 296.471 385.24 296.471C392.196 296.471 397.859 302.11 397.859 309.089Z" fill="url(#paint3_linear_1353_4580)"/>
<path d="M397.671 311.205C396.66 317.174 391.467 321.709 385.24 321.709C382.279 321.709 379.577 320.698 377.439 319.007L377.415 318.983C389.799 307.704 385.663 314.871 394.334 311.863C395.406 311.475 396.532 311.253 397.671 311.205Z" fill="url(#paint4_linear_1353_4580)"/>
<path d="M145.92 389.4C206.599 389.4 255.79 387.271 255.79 384.644C255.79 382.016 206.599 379.887 145.92 379.887C85.2402 379.887 36.0498 382.016 36.0498 384.644C36.0498 387.271 85.2402 389.4 145.92 389.4Z" fill="url(#paint5_linear_1353_4580)"/>
<path d="M166.151 364.038H93.9968C93.8026 363.747 93.6081 363.455 93.4787 363.196C91.827 360.443 91.1468 357.334 91.4709 353.805C92.5395 342.373 87.9408 336.317 80.298 331.427C75.343 328.059 68.9633 325.209 62.1623 321.582C45.0306 312.481 55.2643 296.095 57.6286 282.655C59.9603 269.215 30.4575 267.304 36.9994 252.213C43.4115 237.089 46.0025 227.373 59.2804 228.409C60.349 228.474 61.3852 228.636 62.3568 228.831C67.7653 229.899 72.202 232.749 74.7603 237.024C77.6427 241.655 78.3226 248.132 75.7643 255.807C72.8173 264.616 79.6505 264.519 87.4553 265.879C93.738 267.012 100.636 269.085 103.551 277.538C105.785 284.015 106.724 289.261 107.372 293.601C108.635 301.924 108.862 307.073 115.047 311.639C117.768 313.647 121.201 314.554 125.313 316.173C129.232 317.662 133.766 319.832 138.85 324.14C139.239 324.431 139.595 324.755 139.984 325.079C141.053 326.05 142.186 327.119 143.287 328.285C144.68 329.678 146.04 331.232 147.433 332.981C148.307 333.985 149.117 335.053 149.959 336.187C151.481 338.162 153.003 340.397 154.59 342.826V342.858C156.533 345.87 158.508 349.206 160.581 352.963V352.995C162.265 356.104 163.982 359.504 165.762 363.196C165.892 363.455 166.021 363.746 166.151 364.038Z" fill="#A294FB"/>
<path d="M149.375 364.038H144.647C144.323 363.779 143.967 363.488 143.61 363.196C116.213 340.559 70.6146 297.843 58.6321 255.354C58.3407 254.35 58.956 253.669 59.9598 253.799C60.9638 253.928 62 254.835 62.2917 255.807C73.1407 294.313 113.946 334.082 141.052 357.107C141.247 357.302 141.473 357.464 141.668 357.626C143.999 359.633 146.234 361.479 148.339 363.196C148.695 363.488 149.051 363.746 149.375 364.038Z" fill="white"/>
<path d="M166.151 364.038H93.9968C93.8026 363.747 93.6081 363.455 93.4787 363.196C91.827 360.443 91.1468 357.334 91.4709 353.805C92.5395 342.373 87.9408 336.317 80.298 331.427C75.343 328.059 68.9633 325.209 62.1623 321.582C45.0306 312.481 55.2643 296.095 57.6286 282.655C59.9603 269.215 30.4575 267.304 36.9994 252.213C43.4115 237.089 46.0025 227.373 59.2804 228.409C60.349 228.474 61.3852 228.636 62.3568 228.831C60.4786 234.53 52.868 239.356 52.2851 248.327C51.2811 263.839 72.9143 267.434 85.9334 290.654C99.7294 315.299 87.6822 333.111 99.8267 340.981C112.36 349.077 128.714 332.366 147.433 332.981C148.307 333.985 149.117 335.054 149.959 336.188C151.481 338.163 153.003 340.398 154.59 342.827V342.859C156.533 345.871 158.508 349.206 160.581 352.963V352.995C162.265 356.104 163.982 359.505 165.763 363.197C165.892 363.455 166.021 363.746 166.151 364.038Z" fill="url(#paint6_linear_1353_4580)"/>
<path d="M132.759 315.888C129.838 318.776 129.138 322.903 129.003 325.483C127.145 319.733 125.26 312.314 124.331 303.921C132.23 295.909 142.337 300.11 145.782 293.792C147.663 290.341 136.58 281.08 128.576 288.994C125.566 291.97 124.376 295.976 123.924 299.176C123.84 297.819 123.777 296.446 123.752 295.051C123.641 288.968 122.409 283.717 120.386 278.931C128.014 268.838 140.207 271.202 142.806 263.228C144.268 258.743 129.154 250.25 121.448 261.347C118.523 265.559 118.016 270.6 118.201 274.49C115.493 269.689 111.958 265.313 107.768 261.043C115.798 250.087 128.844 252.68 131.608 244.2C133.151 239.469 117.21 230.512 109.082 242.216C105.113 247.932 105.359 255.097 105.962 259.248C102.647 256.008 99.0054 252.774 95.1549 249.4C99.9831 238.539 111.62 238.328 112.406 230.564C112.844 226.232 97.5481 221.539 92.7762 233.058C90.5927 238.329 91.8104 244.012 93.0316 247.536C90.267 245.117 87.3983 242.574 84.4739 239.902C82.2212 228.792 89.9695 220.707 85.1953 214.284C82.3351 210.435 66.4112 217.977 71.0842 230.888C73.3263 237.083 78.9341 240.857 82.5437 242.732C85.4006 245.333 88.206 247.82 90.9069 250.184C88.277 249.053 85.1675 248.279 81.8691 248.656C69.4813 250.071 69.7813 266.068 74.0662 266.84C81.7374 268.22 85.1446 257.119 96.8805 255.447C101.044 259.156 104.817 262.684 108.06 266.276C104.37 264.425 97.3801 261.784 90.514 263.894C76.8932 268.079 80.5808 285.988 85.5562 285.956C94.6574 285.9 96.0344 272.141 109.663 268.115C114.166 273.449 117.462 279.038 119.128 285.682C116.54 283.226 110.328 278.229 102.851 278.517C89.3505 279.039 88.3731 296.349 92.9406 297.531C101.307 299.696 105.917 287.38 119.433 287.042C120.001 289.698 120.311 292.402 120.359 295.116C120.45 300.115 120.93 304.856 121.624 309.273C119.154 306.988 114.884 303.912 109.721 303.814C98.4674 303.601 96.8247 317.951 100.567 319.153C107.201 321.284 111.549 311.949 122.026 311.678C123.367 319.129 125.289 325.471 127.015 330.225C125.164 328.966 122.812 327.849 120.109 327.798C111.423 327.633 110.155 338.709 113.043 339.637C117.91 341.2 121.19 334.782 128.443 333.958C129.791 337.269 130.803 339.234 130.931 339.477C131.335 340.258 132.263 340.586 133.06 340.268C133.115 340.246 133.166 340.222 133.219 340.193C134.049 339.761 134.37 338.734 133.935 337.905C133.891 337.82 131.851 333.836 129.609 327.285C135.687 321.272 143.398 324.435 146.039 319.592C147.492 316.928 138.937 309.78 132.759 315.888Z" fill="#D3CDF7"/>
<path d="M182.921 317.447C179.364 321.033 175.089 324.906 170.786 329.267C170.441 329.582 170.097 329.898 169.81 330.242C169.696 330.328 169.609 330.443 169.523 330.558C168.003 332.021 166.425 333.685 165.048 335.349C163.394 337.064 161.842 338.874 160.4 340.771C159.74 341.603 159.109 342.492 158.478 343.382C157.675 344.587 156.871 345.792 156.097 347.083C155.838 347.37 155.609 347.771 155.437 348.116C154.232 350.038 153.199 352.103 152.224 354.226V354.255C151.736 355.202 151.334 356.206 150.933 357.21C150.732 357.698 150.56 358.185 150.387 358.673C150.129 359.304 149.871 359.907 149.613 360.423C149.182 361.255 148.781 361.943 148.35 362.546C148.205 362.805 148.042 363.054 147.863 363.292C147.662 363.579 147.432 363.808 147.232 364.038H140.289C139.973 363.808 139.658 363.579 139.342 363.292C139.342 363.292 139.285 363.234 139.199 363.091L139.141 363.034C138.711 362.517 137.563 361.197 136.071 359.189C135.899 358.931 135.67 358.644 135.469 358.357C133.69 355.919 131.51 352.648 129.416 348.746C125.887 342.234 122.53 334.029 121.497 325.049C121.411 323.873 121.125 322.783 120.981 321.664V321.635C118.628 312.483 111.915 306.918 105.116 301.667L105.087 301.639C103.538 300.348 101.96 299.143 100.382 297.823C97.3699 295.327 94.6158 292.774 92.3494 289.704C90.9437 287.667 89.7388 285.573 88.9068 283.048C88.3329 281.384 87.9314 279.978 87.7018 278.716C87.5872 278.142 87.5583 277.597 87.4434 277.138V277.081C86.927 272.491 88.7919 270.827 91.8903 270.74C101.071 270.253 120.866 283.163 123.592 275.159C126.346 267.011 112.202 264.142 102.849 258.232C98.8043 255.679 95.677 252.609 95.1894 248.277C93.5828 233.932 109.85 242.137 120.436 221.223C121.325 219.444 122.071 217.723 122.645 216.002C129.1 197.469 119.432 182.321 128.469 173.14C138.424 163.156 135.9 207.653 140.461 197.583C145.08 187.427 150.818 196.78 151.191 207.739C151.679 218.699 146.543 230.289 159.482 214.826C168.289 204.44 173.54 207.309 176.179 217.551C177.499 222.342 178.216 228.883 178.474 236.342C179.335 259.437 164.101 249.052 173.511 255.392C182.692 261.617 155.81 272.864 157.445 281.298C157.474 281.384 157.503 281.499 157.531 281.614C157.56 281.758 157.617 281.901 157.675 282.044C158.507 283.995 160.314 284.999 162.752 285.458L162.81 285.516C168.318 286.749 176.839 285.803 183.437 289.131C184.011 289.417 184.614 289.733 185.13 290.163C187.655 291.741 189.72 294.065 191.155 297.508C194.052 304.394 189.749 310.504 182.921 317.447Z" fill="#E5E2F7"/>
<path d="M172.077 300.52C169.868 302.012 168.405 304.307 166.827 306.746C166.167 307.807 165.479 308.84 164.761 309.815C162.323 313.115 159.282 315.697 156.126 317.676C154.003 319.082 151.794 320.172 149.671 321.062C147.806 321.836 146.027 322.467 144.392 322.926L143.015 323.328C142.814 323.385 142.614 323.443 142.441 323.5C141.638 323.73 140.835 323.959 140.089 324.217C138.712 324.705 137.421 325.25 136.273 326.082C136.244 326.139 136.187 326.139 136.13 326.168C136.273 327.587 136.446 329.002 136.646 330.414L136.904 332.365L138.597 344.558C139.056 347.743 139.515 351.07 140.519 354.14C141.609 357.497 143.388 360.624 145.683 363.292C145.913 363.55 146.113 363.78 146.372 364.038H143.044C142.837 363.802 142.645 363.553 142.47 363.292C140.576 360.767 139.085 357.956 138.109 354.915C137.019 351.644 136.56 348.202 136.101 344.903L134.15 330.759C134.093 330.357 134.036 329.927 133.978 329.525C133.519 326.197 133.146 322.754 133.634 319.312C134.121 315.898 135.412 312.713 136.818 309.644C133.777 309.615 130.679 308.926 127.953 307.693C126.64 307.134 125.397 306.421 124.252 305.57C122.244 304.049 120.609 302.156 119.031 300.348C118.4 299.573 117.74 298.828 117.08 298.11C114.842 295.729 112.318 293.635 109.563 291.913C108.531 291.282 107.928 291.225 107.698 291.397C107.153 291.799 106.35 291.712 105.92 291.139C105.518 290.594 105.604 289.79 106.178 289.36C107.01 288.729 108.502 288.298 110.912 289.762C113.866 291.6 116.559 293.829 118.916 296.389C119.633 297.135 120.293 297.909 120.953 298.684C122.502 300.491 123.965 302.184 125.773 303.532C126.92 304.393 128.269 305.11 129.732 305.655C132.314 306.688 135.24 307.176 137.994 307.032C138.941 305.024 139.888 302.959 140.605 300.864C140.633 300.807 140.633 300.749 140.662 300.692C141.293 298.856 141.724 296.905 141.982 294.868C142.728 289.446 142.24 283.45 140.547 277.138C140.256 275.947 139.912 274.769 139.515 273.609C138.338 270.08 136.904 266.609 135.326 263.224C133.088 263.338 130.621 263.367 128.297 262.478C125.084 261.215 122.961 258.547 120.924 255.965C120.436 255.363 119.977 254.76 119.49 254.158C117.395 251.719 114.985 249.568 112.26 247.818C111.17 247.129 109.706 246.555 109.047 247.158C108.53 247.617 107.727 247.617 107.239 247.101C106.78 246.584 106.78 245.781 107.297 245.322C108.789 243.916 111.084 244.06 113.637 245.695C116.563 247.588 119.174 249.884 121.412 252.552C121.928 253.126 122.416 253.757 122.903 254.388C124.826 256.826 126.633 259.093 129.215 260.097C130.735 260.699 132.457 260.785 134.121 260.757C132.944 258.289 131.711 255.879 130.506 253.47C129.588 251.662 128.641 249.826 127.723 247.961C126.346 245.15 125.055 242.367 124.653 239.355C123.821 232.928 127.034 226.989 130.678 220.994C131.051 220.391 131.825 220.19 132.428 220.563C133.03 220.936 133.202 221.711 132.858 222.313C129.444 227.908 126.432 233.416 127.178 239.01C127.522 241.678 128.641 244.146 129.989 246.843C130.907 248.679 131.826 250.515 132.772 252.322C134.895 256.482 137.018 260.757 138.912 265.118C141.522 263.54 143.014 261.847 143.703 259.437C144.248 257.544 144.391 255.535 144.506 253.441L144.621 251.978C144.822 249.425 145.223 246.47 146.658 243.974C147.891 241.823 149.842 240.043 152.625 238.523C153.4 238.093 154.317 237.777 155.264 237.433C156.613 237.003 158.105 236.458 158.736 235.74C159.194 235.224 159.998 235.195 160.514 235.654C161.059 236.113 161.088 236.917 160.629 237.433C159.567 238.638 157.789 239.24 156.096 239.843C155.235 240.13 154.403 240.417 153.858 240.732C151.477 242.023 149.87 243.486 148.866 245.237C147.661 247.302 147.317 249.798 147.145 252.179L147.059 253.614C146.916 255.737 146.743 257.974 146.141 260.126C145.022 263.942 142.497 266.036 139.973 267.528C140.67 269.27 141.321 271.03 141.924 272.807C142.233 273.766 142.52 274.732 142.784 275.704C143.903 279.692 144.563 283.537 144.764 287.237C144.907 289.561 144.878 291.828 144.62 294.008V294.036C144.391 296.647 143.846 299.143 143.071 301.496C142.957 301.84 142.842 302.184 142.698 302.528C141.924 304.651 140.977 306.688 140.03 308.668C140.001 308.811 139.944 308.955 139.858 309.07C139.772 309.242 139.714 309.385 139.628 309.557C138.05 312.914 136.616 316.156 136.128 319.656C135.956 320.861 135.956 322.094 135.956 323.328C137.19 322.611 138.509 322.094 139.829 321.664C140.609 321.402 141.393 321.154 142.182 320.918C142.239 320.918 142.268 320.89 142.325 320.89L143.674 320.517C147.891 319.283 153.227 317.103 157.817 313.373C159.625 311.939 161.289 310.246 162.723 308.295C163.412 307.377 164.043 306.373 164.703 305.398C166.338 302.844 168.031 300.205 170.641 298.426C171.244 298.024 172.018 298.168 172.391 298.742C172.794 299.315 172.651 300.118 172.077 300.52Z" fill="#FEFEFE"/>
<path d="M169.81 330.242C169.696 330.328 169.609 330.443 169.523 330.558C168.003 332.021 166.425 333.685 165.048 335.349C163.394 337.064 161.842 338.875 160.4 340.771C159.74 341.603 159.109 342.493 158.478 343.382C157.675 344.587 156.871 345.792 156.097 347.083C155.839 347.37 155.609 347.772 155.437 348.116C154.232 350.038 153.199 352.104 152.224 354.226V354.255C151.736 355.202 151.334 356.206 150.933 357.21C150.732 357.698 150.56 358.186 150.387 358.673C150.129 359.304 149.871 359.907 149.613 360.423C149.182 361.255 148.781 361.943 148.35 362.546C148.205 362.805 148.042 363.054 147.863 363.292C147.662 363.579 147.432 363.808 147.232 364.038H140.289C139.973 363.808 139.658 363.579 139.342 363.292C139.342 363.292 139.285 363.235 139.199 363.091L139.141 363.034C138.711 362.517 137.563 361.198 136.071 359.189C135.899 358.931 135.67 358.644 135.469 358.357C133.69 355.919 131.51 352.648 129.416 348.746C125.887 342.234 122.53 334.029 121.497 325.049C121.411 323.873 121.125 322.783 120.981 321.664V321.635C118.628 312.483 111.915 306.918 105.116 301.668L105.087 301.639C103.538 300.348 101.96 299.143 100.382 297.823C97.3699 295.327 94.6158 292.774 92.3494 289.704C90.9437 287.667 89.7388 285.573 88.9068 283.048C88.3329 281.384 87.9314 279.979 87.7018 278.716C87.5872 278.142 87.5583 277.597 87.4434 277.138V277.081C86.927 272.491 88.7919 270.827 91.8903 270.741C101.071 270.253 120.866 283.163 123.592 275.159C126.346 267.011 112.202 264.142 102.849 258.232C98.8043 255.679 95.677 252.609 95.1894 248.277C93.5828 233.933 109.85 242.138 120.436 221.223C121.325 219.445 122.071 217.723 122.645 216.002C128.584 220.994 136.617 229.801 138.654 242.166C141.379 258.663 130.42 263.138 128.526 284.138C126.547 305.713 135.297 332.107 149.727 336.238C157.331 338.419 163.9 333.628 169.81 330.242Z" fill="url(#paint7_linear_1353_4580)"/>
<path d="M171.656 351.701C171.688 355.004 171.527 358.825 171.073 363.197C171.041 363.489 171.008 363.748 170.976 364.039H147.886C147.573 363.758 147.26 363.477 146.946 363.197C145.262 361.61 143.74 360.056 142.348 358.566C141.894 358.08 141.473 357.595 141.052 357.109C137.878 353.417 135.709 349.984 134.834 346.778C134.251 344.673 134.219 342.665 134.867 340.819C134.996 340.301 135.191 339.847 135.353 339.459C135.709 338.876 136.065 338.293 136.486 337.71C140.437 332.852 140.534 328.61 138.85 324.141C138.721 323.72 138.526 323.266 138.332 322.845C138.008 321.939 137.587 321.032 137.069 320.06C136.615 319.218 136.162 318.344 135.709 317.502C134.705 315.753 133.604 313.875 132.503 311.899C129.944 307.106 130.883 303.511 133.183 300.435C133.766 299.625 134.446 298.88 135.191 298.136C137.555 295.771 140.437 293.634 142.704 291.367C142.866 291.238 143.028 291.043 143.19 290.914C146.655 287.254 142.639 281.846 141.02 276.955L140.923 276.923C140.178 274.591 139.886 272.389 141.214 270.543C141.668 269.96 142.218 269.41 142.995 268.924C144.582 267.855 146.04 266.819 147.4 265.945C148.274 265.329 149.116 264.811 149.926 264.325C154.265 261.767 157.731 260.99 162.005 264.325C164.24 266.106 165.794 268.276 166.475 270.64C166.507 270.737 166.539 270.867 166.572 270.997C166.798 271.903 166.928 272.843 166.895 273.814C166.895 274.3 166.798 274.721 166.701 275.142C166.28 277.992 164.434 280.907 161.131 283.53C153.294 289.715 170.879 291.918 167.867 303.576C167.802 303.933 167.64 304.256 167.64 304.516C167.414 305.325 167.155 306.103 166.896 306.847C166.345 308.499 165.707 310.121 164.985 311.705C163.042 315.98 161.39 318.603 161.714 321.874C161.714 322.522 161.908 323.137 162.167 323.817C162.167 324.012 162.232 324.238 162.329 324.465C163.463 327.38 166.118 329.549 168.418 334.213C168.904 335.282 169.389 336.448 169.81 337.775C169.907 338.034 169.972 338.294 170.069 338.585C171.041 341.856 171.688 346.033 171.656 351.701Z" fill="#B5AAF9"/>
<path d="M162.264 364.038H159.317C159.188 363.746 159.091 363.487 158.961 363.196C158.507 362.159 158.087 361.091 157.633 359.957C155.01 353.415 152.16 345.222 149.958 336.187C148.63 330.746 147.529 324.981 146.882 319.087C146.752 318.115 146.687 317.176 146.59 316.205C146.201 311.671 146.072 307.104 146.363 302.538C146.493 299.235 146.849 295.964 147.465 292.725C147.853 290.426 148.371 288.192 149.019 285.957C149.829 283.01 150.865 280.128 152.161 277.343C152.193 277.246 152.225 277.116 152.29 277.019C152.582 276.371 153.359 276.079 154.007 276.371C154.323 276.518 154.569 276.784 154.69 277.112C154.812 277.44 154.799 277.802 154.654 278.12C153.618 280.354 152.744 282.654 151.999 284.985V285.018C151.027 288.159 150.315 291.365 149.829 294.604C148.76 301.437 148.663 308.432 149.246 315.362C149.343 316.334 149.408 317.306 149.537 318.277C150.477 326.892 152.355 335.279 154.589 342.825V342.858C156.014 347.748 157.601 352.314 159.123 356.33C160.062 358.824 161.001 361.123 161.908 363.195C162.005 363.487 162.135 363.746 162.264 364.038Z" fill="white"/>
<path d="M171.656 351.7C171.688 355.003 171.527 358.825 171.073 363.197C171.041 363.488 171.008 363.747 170.976 364.039H147.886C147.573 363.757 147.26 363.477 146.946 363.197C145.262 361.61 143.74 360.056 142.348 358.566C141.894 358.08 141.473 357.594 141.052 357.108C137.878 353.416 135.709 349.984 134.834 346.778C134.251 344.673 134.219 342.665 134.867 340.819C134.996 340.3 135.191 339.847 135.353 339.458C135.709 338.876 136.065 338.293 136.486 337.71C140.437 332.852 140.534 328.609 138.85 324.14C138.721 323.719 138.526 323.266 138.332 322.845C138.008 321.938 137.587 321.031 137.069 320.06C136.615 319.218 136.162 318.343 135.709 317.501C134.705 315.753 133.604 313.874 132.503 311.899C129.944 307.106 130.883 303.511 133.183 300.434C133.766 299.625 134.446 298.88 135.191 298.135C137.555 295.771 140.437 293.634 142.704 291.367C142.866 291.237 143.028 291.043 143.19 290.913C146.655 287.254 142.639 281.845 141.02 276.955L140.923 276.923C140.178 274.591 139.886 272.389 141.214 270.543C144.874 272.68 148.177 276.47 149.699 280.356C153.844 291.01 142.639 298.006 141.635 317.307C141.441 321.161 140.502 338.584 149.181 343.571C155.334 347.134 162.912 342.438 170.069 338.584C171.041 341.855 171.688 346.033 171.656 351.7Z" fill="url(#paint8_linear_1353_4580)"/>
<path d="M177.863 364.039H215.082C215.182 363.888 215.283 363.738 215.349 363.605C216.201 362.185 216.552 360.581 216.385 358.76C215.834 352.863 218.206 349.739 222.148 347.217C224.704 345.48 227.995 344.01 231.503 342.139C240.34 337.444 235.061 328.992 233.842 322.059C232.639 315.126 247.857 314.141 244.483 306.356C241.176 298.555 239.839 293.543 232.99 294.078C232.439 294.111 231.904 294.195 231.403 294.295C228.613 294.846 226.325 296.316 225.005 298.521C223.518 300.91 223.168 304.251 224.487 308.21C226.007 312.754 222.483 312.704 218.457 313.406C215.216 313.99 211.658 315.06 210.154 319.419C209.001 322.76 208.517 325.467 208.183 327.705C207.531 331.998 207.414 334.654 204.224 337.01C202.82 338.046 201.05 338.513 198.928 339.349C196.907 340.117 194.568 341.236 191.945 343.458C191.745 343.608 191.561 343.775 191.361 343.942C190.809 344.444 190.225 344.995 189.657 345.596C188.938 346.315 188.237 347.116 187.519 348.018C187.068 348.536 186.65 349.088 186.216 349.672C185.431 350.691 184.645 351.844 183.827 353.097V353.114C182.825 354.667 181.805 356.388 180.736 358.326V358.342C179.868 359.946 178.982 361.7 178.064 363.604C177.994 363.748 177.927 363.893 177.863 364.039Z" fill="#B5AAF9"/>
<path d="M186.516 364.038H188.955C189.122 363.905 189.306 363.754 189.49 363.604C203.622 351.927 227.143 329.893 233.324 307.976C233.474 307.458 233.157 307.107 232.639 307.174C232.121 307.241 231.586 307.709 231.436 308.21C225.84 328.072 204.791 348.586 190.809 360.463C190.709 360.563 190.592 360.647 190.492 360.731C189.289 361.766 188.137 362.718 187.051 363.604C186.867 363.754 186.683 363.888 186.516 364.038Z" fill="white"/>
<path d="M177.863 364.039H215.082C215.182 363.888 215.283 363.738 215.349 363.605C216.201 362.185 216.552 360.581 216.385 358.76C215.834 352.863 218.206 349.739 222.148 347.217C224.704 345.48 227.995 344.01 231.503 342.139C240.34 337.444 235.061 328.992 233.842 322.059C232.639 315.126 247.857 314.141 244.483 306.356C241.176 298.555 239.839 293.543 232.99 294.078C232.439 294.111 231.904 294.195 231.403 294.295C232.372 297.235 236.298 299.724 236.598 304.352C237.116 312.353 225.957 314.207 219.242 326.185C212.126 338.898 218.34 348.085 212.075 352.145C205.61 356.321 197.174 347.701 187.519 348.018C187.068 348.536 186.65 349.088 186.216 349.672C185.431 350.691 184.646 351.844 183.827 353.097V353.114C182.825 354.667 181.806 356.388 180.737 358.326V358.342C179.868 359.946 178.983 361.7 178.064 363.604C177.994 363.748 177.927 363.893 177.863 364.039Z" fill="url(#paint9_linear_1353_4580)"/>
<path d="M162.862 336.91C164.934 338.998 167.423 341.253 169.928 343.792C170.129 343.976 170.329 344.16 170.497 344.36C170.563 344.41 170.613 344.477 170.663 344.544C171.549 345.396 172.468 346.365 173.269 347.334C174.233 348.332 175.136 349.386 175.976 350.491C176.36 350.975 176.727 351.493 177.095 352.011C177.563 352.713 178.03 353.414 178.481 354.166C178.632 354.333 178.766 354.567 178.866 354.767C179.567 355.887 180.168 357.089 180.736 358.326V358.342C181.021 358.893 181.254 359.478 181.488 360.063C181.605 360.347 181.705 360.631 181.806 360.915C181.956 361.282 182.106 361.633 182.257 361.934C182.507 362.418 182.741 362.819 182.992 363.17C183.075 363.32 183.175 363.471 183.276 363.604C183.392 363.771 183.526 363.905 183.643 364.038H187.686C187.869 363.905 188.053 363.771 188.237 363.604C188.237 363.604 188.27 363.571 188.32 363.487L188.354 363.454C188.604 363.153 189.273 362.385 190.141 361.215C190.241 361.065 190.375 360.898 190.492 360.731C191.528 359.311 192.797 357.407 194.017 355.135C196.072 351.343 198.026 346.565 198.627 341.336C198.677 340.652 198.844 340.017 198.928 339.365V339.349C200.298 334.02 204.207 330.779 208.166 327.722L208.182 327.705C209.084 326.954 210.003 326.252 210.922 325.484C212.676 324.03 214.28 322.543 215.599 320.756C216.418 319.57 217.119 318.351 217.604 316.881C217.938 315.912 218.172 315.093 218.306 314.358C218.372 314.024 218.389 313.707 218.456 313.439V313.406C218.757 310.733 217.671 309.764 215.867 309.714C210.521 309.43 198.995 316.947 197.408 312.287C195.804 307.542 204.04 305.872 209.486 302.431C211.841 300.944 213.662 299.156 213.946 296.634C214.881 288.281 205.41 293.059 199.245 280.881C198.728 279.845 198.293 278.843 197.959 277.841C194.201 267.049 199.83 258.229 194.568 252.883C188.771 247.07 190.241 272.98 187.585 267.116C184.896 261.202 181.555 266.648 181.337 273.03C181.053 279.411 184.044 286.16 176.51 277.156C171.381 271.109 168.324 272.779 166.787 278.743C166.019 281.533 165.601 285.341 165.451 289.685C164.95 303.132 173.82 297.085 168.341 300.777C162.995 304.402 178.648 310.95 177.696 315.861C177.679 315.911 177.662 315.978 177.646 316.045C177.629 316.129 177.595 316.212 177.562 316.296C177.078 317.431 176.025 318.016 174.605 318.283L174.572 318.317C171.365 319.035 166.403 318.484 162.561 320.422C162.227 320.588 161.876 320.772 161.575 321.023C160.105 321.942 158.903 323.295 158.068 325.299C156.38 329.309 158.886 332.867 162.862 336.91Z" fill="#E0DCFB"/>
<path d="M169.177 327.054C170.463 327.922 171.315 329.259 172.233 330.679C172.618 331.297 173.019 331.898 173.436 332.466C174.856 334.387 176.627 335.891 178.465 337.043C179.701 337.862 180.987 338.497 182.223 339.015C183.309 339.466 184.345 339.833 185.297 340.1L186.099 340.334C186.216 340.368 186.333 340.401 186.433 340.434C186.901 340.568 187.368 340.702 187.803 340.852C188.604 341.136 189.356 341.453 190.024 341.938C190.041 341.971 190.074 341.971 190.108 341.988C190.024 342.814 189.924 343.638 189.807 344.46L189.657 345.596L188.671 352.696C188.404 354.55 188.137 356.488 187.552 358.275C186.917 360.23 185.881 362.051 184.545 363.604C184.411 363.755 184.294 363.888 184.144 364.039H186.082C186.202 363.901 186.314 363.756 186.416 363.604C187.518 362.134 188.387 360.497 188.955 358.726C189.59 356.822 189.857 354.817 190.124 352.896L191.26 344.661C191.294 344.427 191.327 344.176 191.36 343.942C191.628 342.005 191.845 340 191.561 337.995C191.277 336.007 190.525 334.153 189.707 332.366C191.477 332.349 193.281 331.948 194.869 331.23C195.633 330.905 196.357 330.49 197.024 329.994C198.193 329.108 199.145 328.006 200.064 326.953C200.429 326.508 200.808 326.073 201.2 325.65C202.503 324.264 203.973 323.044 205.577 322.042C206.178 321.675 206.529 321.641 206.663 321.741C206.98 321.975 207.448 321.925 207.698 321.591C207.932 321.274 207.882 320.806 207.548 320.555C207.063 320.188 206.195 319.937 204.792 320.789C203.071 321.859 201.503 323.157 200.131 324.648C199.713 325.082 199.329 325.533 198.945 325.984C198.043 327.037 197.191 328.023 196.138 328.808C195.47 329.309 194.685 329.726 193.833 330.044C192.33 330.645 190.626 330.929 189.022 330.846C188.471 329.676 187.919 328.474 187.502 327.254C187.485 327.221 187.485 327.187 187.469 327.154C187.101 326.085 186.85 324.949 186.7 323.763C186.266 320.606 186.55 317.114 187.535 313.439C187.705 312.745 187.906 312.06 188.137 311.384C188.822 309.329 189.657 307.308 190.576 305.337C191.879 305.404 193.315 305.421 194.669 304.903C196.54 304.168 197.776 302.614 198.962 301.111C199.246 300.76 199.513 300.409 199.797 300.058C201.017 298.638 202.42 297.385 204.007 296.366C204.642 295.965 205.494 295.631 205.878 295.982C206.179 296.249 206.646 296.249 206.93 295.949C207.197 295.648 207.197 295.18 206.897 294.913C206.028 294.094 204.692 294.178 203.205 295.13C201.505 296.227 199.979 297.573 198.678 299.123C198.377 299.457 198.093 299.824 197.809 300.192C196.69 301.612 195.638 302.931 194.134 303.516C193.249 303.867 192.247 303.917 191.278 303.9C191.962 302.463 192.681 301.06 193.382 299.657C193.917 298.605 194.468 297.536 195.003 296.45C195.805 294.812 196.556 293.192 196.79 291.438C197.275 287.696 195.404 284.238 193.282 280.747C193.065 280.396 192.614 280.279 192.263 280.496C191.912 280.713 191.812 281.164 192.012 281.515C194 284.773 195.754 287.98 195.32 291.238C195.12 292.791 194.468 294.228 193.683 295.798C193.148 296.867 192.614 297.936 192.062 298.989C190.826 301.411 189.59 303.9 188.488 306.439C186.967 305.52 186.099 304.535 185.698 303.131C185.38 302.029 185.297 300.859 185.23 299.64L185.163 298.788C185.047 297.302 184.813 295.581 183.977 294.128C183.259 292.875 182.123 291.839 180.503 290.954C180.052 290.703 179.517 290.519 178.966 290.319C178.18 290.068 177.312 289.751 176.944 289.333C176.677 289.032 176.209 289.016 175.909 289.283C175.591 289.55 175.574 290.018 175.842 290.319C176.46 291.021 177.496 291.371 178.481 291.722C178.982 291.889 179.467 292.056 179.784 292.24C181.171 292.992 182.106 293.844 182.691 294.863C183.392 296.065 183.593 297.519 183.693 298.905L183.743 299.741C183.827 300.977 183.927 302.28 184.278 303.533C184.929 305.754 186.399 306.974 187.869 307.842C187.463 308.857 187.085 309.882 186.733 310.916C186.553 311.475 186.386 312.037 186.232 312.603C185.581 314.925 185.197 317.164 185.08 319.319C184.996 320.672 185.013 321.992 185.163 323.261V323.278C185.297 324.798 185.614 326.252 186.065 327.621C186.132 327.822 186.199 328.022 186.282 328.223C186.733 329.459 187.284 330.645 187.836 331.798C187.853 331.881 187.886 331.965 187.936 332.031C187.986 332.132 188.02 332.215 188.07 332.315C188.989 334.27 189.824 336.158 190.108 338.196C190.208 338.897 190.208 339.616 190.208 340.334C189.49 339.916 188.721 339.616 187.953 339.365C187.499 339.213 187.042 339.068 186.583 338.931C186.55 338.931 186.533 338.914 186.499 338.914L185.714 338.697C183.259 337.979 180.151 336.709 177.479 334.537C176.399 333.683 175.439 332.689 174.622 331.581C174.221 331.046 173.854 330.461 173.469 329.894C172.517 328.407 171.531 326.87 170.011 325.834C169.66 325.6 169.209 325.684 168.992 326.018C168.759 326.352 168.842 326.82 169.177 327.054Z" fill="#FEFEFE"/>
<path d="M170.496 344.359C170.563 344.409 170.613 344.476 170.663 344.543C171.548 345.395 172.467 346.364 173.269 347.333C174.232 348.331 175.136 349.385 175.975 350.49C176.36 350.974 176.727 351.492 177.095 352.01C177.562 352.712 178.03 353.413 178.481 354.165C178.631 354.332 178.765 354.566 178.865 354.766C179.567 355.886 180.168 357.088 180.736 358.325V358.341C181.02 358.892 181.254 359.477 181.488 360.062C181.605 360.346 181.705 360.63 181.805 360.914C181.955 361.281 182.106 361.632 182.256 361.933C182.507 362.417 182.741 362.818 182.991 363.169C183.075 363.319 183.175 363.47 183.275 363.603C183.392 363.77 183.526 363.904 183.643 364.037H187.685C187.869 363.904 188.053 363.77 188.236 363.603C188.236 363.603 188.27 363.57 188.32 363.486L188.353 363.453C188.604 363.152 189.272 362.384 190.141 361.214C190.241 361.064 190.375 360.897 190.491 360.73C191.527 359.31 192.797 357.406 194.016 355.134C196.071 351.342 198.025 346.564 198.627 341.335C198.677 340.651 198.844 340.016 198.928 339.364V339.348C200.297 334.019 204.206 330.778 208.165 327.721L208.182 327.704C209.084 326.953 210.003 326.251 210.922 325.483C212.676 324.029 214.279 322.542 215.599 320.755C216.418 319.569 217.119 318.35 217.604 316.88C217.938 315.911 218.171 315.092 218.305 314.357C218.372 314.023 218.389 313.706 218.456 313.438V313.405C218.756 310.732 217.67 309.763 215.866 309.713C210.521 309.429 198.994 316.946 197.407 312.286C195.804 307.541 204.039 305.871 209.485 302.43C211.84 300.943 213.661 299.155 213.945 296.633C214.881 288.28 205.409 293.058 199.245 280.88C198.727 279.844 198.293 278.842 197.959 277.84C194.501 280.747 189.823 285.875 188.637 293.075C187.05 302.68 193.432 305.286 194.534 317.514C195.687 330.076 190.592 345.445 182.189 347.851C177.763 349.12 173.937 346.33 170.496 344.359Z" fill="url(#paint10_linear_1353_4580)"/>
<path d="M175.023 357.674C175.006 359.378 175.09 361.349 175.324 363.605C175.34 363.755 175.357 363.889 175.374 364.039H187.284C187.452 363.889 187.619 363.738 187.769 363.605C188.585 362.834 189.376 362.037 190.141 361.216C190.375 360.965 190.592 360.715 190.809 360.464C192.446 358.56 193.566 356.789 194.017 355.135C194.317 354.05 194.334 353.014 194 352.062C193.933 351.794 193.833 351.56 193.749 351.36C193.566 351.059 193.382 350.759 193.165 350.458C191.127 347.952 191.077 345.764 191.945 343.459C192.012 343.242 192.112 343.008 192.212 342.79C192.379 342.323 192.597 341.855 192.864 341.354C193.098 340.919 193.331 340.468 193.566 340.034C194.083 339.132 194.651 338.163 195.219 337.144C196.539 334.671 196.055 332.817 194.869 331.23C194.568 330.812 194.217 330.428 193.833 330.044C192.613 328.825 191.127 327.722 189.957 326.553C189.874 326.486 189.79 326.386 189.707 326.319C187.919 324.431 189.991 321.641 190.826 319.119L190.876 319.102C191.26 317.9 191.411 316.764 190.726 315.812C190.492 315.511 190.208 315.227 189.807 314.976C188.988 314.425 188.237 313.89 187.535 313.439C187.084 313.122 186.649 312.855 186.232 312.604C183.993 311.284 182.206 310.883 180.001 312.604C178.848 313.523 178.046 314.642 177.695 315.862C177.679 315.912 177.662 315.978 177.645 316.045C177.529 316.513 177.462 316.998 177.478 317.499C177.478 317.749 177.529 317.966 177.579 318.183C177.796 319.654 178.748 321.157 180.452 322.51C184.495 325.701 175.424 326.837 176.977 332.851C177.011 333.034 177.094 333.201 177.094 333.335C177.211 333.753 177.345 334.154 177.479 334.538C177.762 335.39 178.092 336.226 178.464 337.044C179.466 339.249 180.319 340.602 180.151 342.289C180.151 342.623 180.051 342.94 179.918 343.291C179.918 343.392 179.884 343.508 179.834 343.625C179.249 345.129 177.88 346.248 176.694 348.654C176.443 349.205 176.192 349.806 175.975 350.491C175.925 350.625 175.892 350.758 175.842 350.909C175.34 352.596 175.006 354.751 175.023 357.674Z" fill="#B5AAF9"/>
<path d="M179.868 364.038H181.388C181.455 363.888 181.505 363.754 181.572 363.604C181.806 363.07 182.023 362.518 182.257 361.934C183.61 358.559 185.08 354.333 186.216 349.672C186.901 346.866 187.469 343.892 187.803 340.852C187.869 340.351 187.903 339.866 187.953 339.365C188.154 337.026 188.22 334.671 188.07 332.316C188.003 330.612 187.819 328.924 187.502 327.254C187.302 326.076 187.034 324.91 186.7 323.763C186.282 322.242 185.748 320.756 185.079 319.319C185.063 319.269 185.046 319.202 185.013 319.152C184.862 318.818 184.461 318.668 184.127 318.818C183.964 318.894 183.837 319.031 183.774 319.2C183.712 319.369 183.719 319.556 183.793 319.72C184.328 320.873 184.778 322.059 185.163 323.261V323.278C185.664 324.899 186.031 326.552 186.282 328.223C186.833 331.748 186.884 335.356 186.583 338.931C186.533 339.432 186.499 339.933 186.432 340.434C185.948 344.878 184.979 349.204 183.826 353.096V353.113C183.091 355.636 182.273 357.991 181.488 360.062C181.04 361.255 180.561 362.436 180.051 363.604C180.001 363.754 179.935 363.888 179.868 364.038Z" fill="white"/>
<path d="M175.023 357.673C175.006 359.377 175.09 361.348 175.324 363.604C175.34 363.754 175.357 363.888 175.374 364.038H187.284C187.452 363.888 187.619 363.737 187.769 363.604C188.585 362.833 189.376 362.036 190.141 361.215C190.375 360.964 190.592 360.714 190.809 360.463C192.446 358.559 193.566 356.788 194.017 355.134C194.317 354.049 194.334 353.013 194 352.061C193.933 351.793 193.833 351.559 193.749 351.359C193.566 351.058 193.382 350.758 193.165 350.457C191.127 347.951 191.077 345.763 191.945 343.458C192.012 343.241 192.112 343.007 192.212 342.789C192.379 342.322 192.597 341.854 192.864 341.353C193.098 340.918 193.331 340.467 193.566 340.033C194.083 339.131 194.651 338.162 195.219 337.143C196.539 334.67 196.055 332.816 194.869 331.229C194.568 330.812 194.217 330.427 193.833 330.043C192.613 328.824 191.127 327.721 189.957 326.552C189.874 326.485 189.79 326.385 189.707 326.318C187.919 324.43 189.991 321.64 190.826 319.118L190.876 319.101C191.26 317.899 191.411 316.763 190.726 315.811C188.838 316.913 187.134 318.868 186.349 320.872C184.211 326.368 189.991 329.976 190.509 339.933C190.609 341.921 191.093 350.908 186.616 353.48C183.442 355.318 179.533 352.896 175.842 350.908C175.34 352.595 175.006 354.75 175.023 357.673Z" fill="url(#paint11_linear_1353_4580)"/>
<path d="M86.668 363.207H426.95V364.053H86.668V363.207Z" fill="#180E5A"/>
<path d="M242.681 211.117C241.071 238.289 239.443 265.46 226.202 272.531C225.895 272.684 225.608 272.837 225.301 272.972C220.645 275.06 214.628 274.792 208.419 273.125C207.212 272.799 206.005 272.435 204.798 272.013C199.433 270.155 194.086 267.396 189.507 264.33C184.39 260.919 180.251 257.125 178.124 253.848C174.809 248.713 176.476 244.784 180.309 242.734C184.122 240.703 190.081 240.53 195.408 242.868C204.798 246.969 212.194 258.83 217.56 259.06C218.173 259.118 218.748 258.983 219.304 258.696C219.438 258.619 219.572 258.543 219.706 258.447C225.186 254.614 228.003 232.195 230.839 209.775L242.681 211.117Z" fill="#AC9FFC"/>
<path d="M217.56 259.059C217.464 261.416 216.927 264.003 215.509 266.494C213.651 269.771 210.872 271.84 208.419 273.124C207.212 272.799 206.005 272.434 204.798 272.013C199.433 270.154 194.086 267.395 189.507 264.329C184.39 260.918 180.251 257.124 178.124 253.847C174.809 248.712 176.476 244.784 180.309 242.733C184.122 240.702 190.081 240.53 195.408 242.867C204.798 246.968 212.194 258.829 217.56 259.059Z" fill="#7A67F1"/>
<path d="M217.56 259.059C217.464 261.416 216.927 264.003 215.509 266.494C213.651 269.771 210.872 271.84 208.419 273.124C207.212 272.799 206.005 272.434 204.798 272.013C199.433 270.154 194.086 267.395 189.507 264.329C184.39 260.918 180.251 257.124 178.124 253.847C174.809 248.712 176.476 244.784 180.309 242.733C184.122 240.702 190.081 240.53 195.408 242.867C204.798 246.968 212.194 258.829 217.56 259.059Z" fill="url(#paint12_linear_1353_4580)"/>
<path d="M220.887 377.811C221.722 378.831 222.556 379.851 223.1 380.865C223.645 381.878 223.898 382.886 224.152 383.894L227.832 384.076C228.044 381.923 228.257 379.771 230.171 379.771C230.282 379.771 230.398 379.778 230.522 379.793C232.763 380.066 237.02 382.888 240.774 384.065C242.525 384.614 244.165 384.805 245.748 384.805C247.56 384.805 249.295 384.555 251.029 384.305C251.962 382.369 252.895 380.433 249.907 378.922C247.952 377.933 244.317 377.124 241.2 376.034C241.003 375.965 240.808 375.895 240.617 375.823C240.439 375.758 240.263 375.691 240.088 375.622L239.877 375.539C239.187 375.259 238.544 374.959 237.975 374.635C237.932 374.611 237.889 374.585 237.847 374.559C237.56 374.391 237.284 374.206 237.021 374.004C236.782 373.821 236.559 373.619 236.353 373.4C236.208 373.248 236.073 373.086 235.949 372.917C235.752 372.648 235.584 372.359 235.449 372.055C235.431 372.017 235.415 371.979 235.399 371.94C235.387 371.911 235.374 371.881 235.362 371.852C235.2 371.435 235.09 371 235.035 370.556C234.934 369.789 234.97 368.978 235.087 368.141C235.089 368.126 235.092 368.11 235.093 368.094C235.213 367.247 235.414 366.374 235.637 365.495L235.641 365.478C235.687 365.294 235.735 365.11 235.783 364.926L235.869 364.591L224.767 361.895C224.868 363.709 224.97 365.522 224.97 367.138V367.155C224.97 368.376 224.912 369.483 224.753 370.389C224.737 370.483 224.719 370.574 224.7 370.663C224.689 370.718 224.678 370.77 224.665 370.824C224.636 370.948 224.603 371.07 224.567 371.192C224.565 371.206 224.56 371.22 224.556 371.234C224.552 371.248 224.548 371.262 224.542 371.275C224.527 371.324 224.512 371.372 224.495 371.419C223.849 373.286 222.475 373.683 221.751 374.482C221.002 375.306 220.945 376.558 220.887 377.811Z" fill="#4D3AC9"/>
<path d="M224.418 371.638C224.758 371.945 225.115 372.232 225.489 372.497C227.251 373.77 229.35 374.772 231.785 375.503C233.703 376.104 235.511 376.458 237.211 376.561C237.732 376.593 238.254 376.601 238.776 376.585C239.754 376.531 240.62 376.368 241.377 376.096C241.317 376.076 241.258 376.055 241.2 376.034C241.003 375.965 240.808 375.895 240.616 375.823C240.438 375.757 240.262 375.691 240.088 375.622L239.877 375.539C239.166 375.263 238.533 374.962 237.975 374.635C237.932 374.611 237.889 374.585 237.847 374.559C237.259 374.203 236.761 373.817 236.353 373.4C236.214 373.247 236.084 373.087 235.962 372.92C235.763 372.649 235.591 372.359 235.449 372.055C235.431 372.017 235.415 371.979 235.399 371.94C235.386 371.911 235.373 371.882 235.362 371.852C235.197 371.452 235.089 371.03 235.04 370.6C235.038 370.586 235.036 370.571 235.035 370.556C234.974 369.775 234.991 368.971 235.087 368.141C235.089 368.126 235.092 368.11 235.093 368.094C235.194 367.253 235.374 366.386 235.637 365.495L235.641 365.478L235.783 364.926L235.869 364.591L224.771 361.895H224.767C224.914 363.931 224.981 365.678 224.97 367.138V367.155C224.96 368.466 224.886 369.544 224.748 370.388C224.733 370.482 224.718 370.574 224.699 370.663C224.698 370.674 224.695 370.683 224.694 370.694L224.665 370.824C224.635 370.948 224.603 371.07 224.567 371.192L224.542 371.275C224.527 371.324 224.512 371.372 224.495 371.419C224.472 371.494 224.446 371.567 224.418 371.638Z" fill="#BBB1FD"/>
<path d="M95.3303 383.948C96.4452 384.458 97.5615 384.969 98.5827 384.752C99.3512 384.589 100.067 384.015 100.691 382.721C101.645 380.742 102.384 377.08 103.418 373.936L103.492 373.713L103.517 373.638C103.547 373.549 103.578 373.459 103.609 373.371C103.621 373.338 103.633 373.306 103.644 373.273C103.676 373.179 103.709 373.088 103.743 372.997C103.787 372.873 103.833 372.75 103.88 372.629C104.167 371.879 104.477 371.182 104.819 370.578C104.824 370.57 104.829 370.561 104.833 370.554C104.974 370.306 105.127 370.064 105.293 369.832C105.315 369.801 105.336 369.772 105.358 369.743C105.536 369.503 105.733 369.276 105.946 369.066L105.95 369.062L105.954 369.057C106.332 368.685 106.77 368.378 107.248 368.148C107.292 368.126 107.336 368.104 107.382 368.085C107.714 367.938 108.061 367.827 108.417 367.753C108.535 367.729 108.654 367.707 108.773 367.69C108.776 367.689 108.78 367.689 108.783 367.689C109.551 367.573 110.368 367.596 111.211 367.7C112.057 367.8 112.929 367.983 113.808 368.185H113.81C114.122 368.258 114.435 368.333 114.747 368.408L117.229 357.257C115.419 357.393 113.608 357.528 111.995 357.56H111.992C110.828 357.584 109.765 357.552 108.879 357.428C108.753 357.411 108.628 357.391 108.503 357.367C108.436 357.355 108.37 357.342 108.304 357.328C108.303 357.328 108.301 357.328 108.3 357.327C108.258 357.319 108.216 357.309 108.174 357.299C108.092 357.281 108.011 357.26 107.93 357.237C107.916 357.234 107.901 357.231 107.887 357.226C107.871 357.222 107.856 357.217 107.839 357.211C107.792 357.197 107.745 357.184 107.7 357.17C105.821 356.558 105.399 355.194 104.587 354.484C103.748 353.753 102.493 353.719 101.24 353.686C100.237 354.54 99.2325 355.394 98.2294 355.957C97.2263 356.521 96.2244 356.794 95.2227 357.068L95.1109 360.75C97.3918 360.931 99.6742 361.111 99.445 363.357C99.216 365.602 96.4755 369.913 95.3715 373.69C94.2677 377.465 94.799 380.706 95.3303 383.948Z" fill="#4D3AC9"/>
<path d="M102.813 371.548C102.885 372.525 103.065 373.389 103.352 374.139L103.418 373.938C103.443 373.862 103.468 373.789 103.492 373.714L103.517 373.64C103.548 373.55 103.579 373.46 103.61 373.372C103.621 373.339 103.633 373.307 103.644 373.274C103.677 373.182 103.71 373.089 103.743 372.998C103.788 372.874 103.834 372.751 103.88 372.63C104.161 371.857 104.475 371.174 104.82 370.579C104.824 370.571 104.829 370.562 104.834 370.556C104.973 370.316 105.124 370.083 105.286 369.857C105.485 369.577 105.706 369.313 105.946 369.067L105.95 369.063L105.954 369.058C106.36 368.678 106.79 368.375 107.248 368.149C107.292 368.127 107.336 368.105 107.382 368.086C107.821 367.884 108.288 367.751 108.768 367.691H108.773C108.776 367.689 108.78 367.689 108.783 367.689C109.567 367.614 110.375 367.618 111.212 367.701C112.051 367.782 112.916 367.945 113.809 368.186H113.81L113.857 368.199L114.747 368.409L117.229 357.262V357.258C115.198 357.443 113.454 357.543 111.995 357.561H111.993C110.745 357.576 109.708 357.531 108.881 357.423C108.755 357.408 108.629 357.389 108.503 357.368L108.43 357.356C108.387 357.347 108.346 357.337 108.304 357.329C108.303 357.329 108.302 357.329 108.3 357.328C108.258 357.32 108.216 357.31 108.175 357.3C108.093 357.28 108.012 357.26 107.931 357.238C107.9 357.23 107.87 357.222 107.84 357.212C107.793 357.198 107.746 357.185 107.7 357.171C107.627 357.148 107.554 357.123 107.482 357.098C107.181 357.442 106.901 357.805 106.643 358.184C105.404 359.971 104.444 362.089 103.759 364.538C103.195 366.467 102.876 368.282 102.806 369.983C102.784 370.505 102.786 371.027 102.813 371.548Z" fill="#BBB1FD"/>
<path d="M237.756 363.914C237.641 364.833 237.507 365.734 237.373 366.654C237.392 370.007 221.967 370.161 221.929 366.807C221.009 345.94 220.089 325.053 211.217 320.378C209.684 319.573 207.921 319.267 205.986 319.267C198.225 319.267 187.705 324.402 178.45 324.402C176.611 324.402 174.828 324.21 173.123 323.712C160.668 320.167 152.582 301.484 165.765 293.839C170.364 291.156 177.569 289.834 185.636 289.834C193.013 289.834 201.1 290.945 208.63 293.13C216.487 295.41 223.73 298.898 228.865 303.535C243.773 316.986 241.091 340.268 237.756 363.914Z" fill="#483C96"/>
<path d="M237.756 363.914C237.641 364.833 237.507 365.734 237.373 366.654C237.392 370.007 221.967 370.161 221.929 366.807C221.009 345.94 220.089 325.053 211.217 320.378C209.684 319.573 207.921 319.267 205.986 319.267C198.225 319.267 187.705 324.402 178.45 324.402C176.611 324.402 174.828 324.21 173.123 323.712C160.668 320.167 152.582 301.484 165.765 293.839C170.364 291.156 177.569 289.834 185.636 289.834C193.013 289.834 201.1 290.945 208.63 293.13C204.989 297.461 194.872 299.875 195.332 303.458C196.022 308.823 218.901 304.167 226.125 315.358C231.49 323.674 223.998 334.137 228.789 354.161C229.498 357.054 230.762 361.48 234.346 363.205C235.457 363.741 236.626 363.933 237.756 363.914Z" fill="url(#paint13_linear_1353_4580)"/>
<path d="M175.346 365.178C170.901 369.758 165.344 372.402 159.001 373.743C146.488 376.407 130.986 373.973 115.273 371.176C114.143 370.984 113.012 370.773 111.882 370.582C110.176 370.524 110.771 355.099 112.476 355.156C125.219 355.865 137.961 356.574 147.102 354.62C153.061 353.355 157.487 350.979 159.384 346.725C164.175 335.975 152.716 313.288 155.897 301.005C157.238 295.869 161.147 292.554 165.784 291.577C172.223 290.217 180.098 293.359 184.467 302.404C186.978 307.596 188.357 314.744 188.53 322.485C188.874 337.891 184.544 355.674 175.346 365.178Z" fill="#483C96"/>
<path d="M188.53 322.485C184.084 321.546 179.332 314.15 174.695 316.085C171.265 317.503 170.383 322.984 169.157 331.165C167.241 344.023 169.808 345.633 167.624 350.576C163.638 359.544 150.301 365.159 139.283 363.817C128.15 362.476 123.322 354.524 118.646 357.034C114.756 359.142 115.273 366.174 115.273 371.176C114.143 370.984 113.012 370.773 111.882 370.582C110.176 370.524 110.771 355.099 112.476 355.156C125.219 355.865 137.961 356.574 147.102 354.62C153.061 353.355 157.487 350.979 159.384 346.725C164.175 335.975 152.716 313.288 155.897 301.005C157.238 295.869 161.147 292.554 165.784 291.577C172.223 290.217 180.098 293.359 184.467 302.404C186.978 307.596 188.357 314.744 188.53 322.485Z" fill="url(#paint14_linear_1353_4580)"/>
<path d="M189.604 221.875C191.15 226.194 192.695 230.513 191.487 232.551C190.279 234.588 186.318 234.344 188.763 239.255C191.208 244.165 200.059 254.23 199.346 258.281C199.131 259.505 198.042 260.18 196.475 260.389C192.854 260.872 186.673 258.865 182.785 255.389C177.215 250.408 176.351 242.409 178.272 236.32C180.193 230.231 184.899 226.053 189.604 221.875Z" fill="black"/>
<path d="M201.253 262.125V262.872C201.215 265.881 200.965 269.081 200.563 272.396C200.525 272.721 200.467 273.047 200.429 273.392C199.682 279.256 198.494 285.464 197.306 291.672C195.006 295.045 192.688 298.437 185.655 300.391C185.655 300.391 185.636 300.41 185.617 300.41C184.831 300.621 184.007 300.832 183.107 301.004C182.723 301.081 182.321 301.177 181.919 301.234C177.435 302.058 171.839 302.556 165.803 302.92C165.573 302.94 165.324 302.94 165.075 302.959C161.76 303.15 158.35 303.304 154.919 303.476C155.398 296.482 155.878 289.469 156.548 282.82C157.027 278.144 157.602 273.641 158.35 269.426L158.465 268.736C160.074 259.902 162.431 252.41 166.206 247.313C166.398 247.064 166.589 246.834 166.781 246.604C166.781 246.585 166.8 246.565 166.8 246.546C167.777 245.377 168.812 244.343 169.923 243.442C173.162 240.855 176.937 239.475 180.712 239.169C180.961 239.15 181.229 239.131 181.497 239.131C181.785 239.111 182.053 239.111 182.34 239.111C188.491 239.111 194.432 241.928 197.727 246.949C198.015 247.389 198.283 247.849 198.513 248.328C199.395 249.957 200.027 251.777 200.448 253.751C200.506 253.981 200.544 254.211 200.582 254.441C201.042 256.798 201.253 259.385 201.253 262.125Z" fill="#7A67F1"/>
<path d="M201.253 262.125V262.872C201.215 265.88 200.965 269.08 200.563 272.396C200.525 272.721 200.467 273.047 200.429 273.392C199.682 279.255 198.494 285.464 197.306 291.672C195.006 295.045 192.688 298.437 185.655 300.391C185.655 300.391 185.636 300.41 185.617 300.41C184.831 300.621 184.007 300.832 183.107 301.004C182.723 301.081 182.321 301.177 181.919 301.234C177.435 302.058 171.839 302.556 165.803 302.92C165.573 302.939 165.324 302.939 165.075 302.959C161.76 303.15 158.35 303.304 154.919 303.476C155.398 296.482 155.878 289.469 156.548 282.82C161.358 286.748 167.049 291.155 174.599 290.523C181.075 289.986 195.667 283.272 198.382 264.192C199.335 257.494 200.165 256.493 198.513 248.328C199.395 249.957 200.027 251.777 200.448 253.751C200.506 253.981 200.544 254.211 200.582 254.441C201.042 256.798 201.253 259.385 201.253 262.125Z" fill="url(#paint15_linear_1353_4580)"/>
<path d="M188.55 240.179C187.294 239.978 186.038 239.776 185.052 238.259C184.123 236.83 183.435 234.234 184.17 234.027C184.22 234.013 184.272 234.01 184.324 234.016C185.041 234.096 186.675 235.772 187.795 235.456C188.195 235.344 188.529 234.977 188.733 234.192C189.507 231.212 188.392 222.201 184.918 218.659C183.131 216.836 180.718 216.462 178.65 217.045C176.7 217.595 175.056 218.998 174.531 220.84C173.45 224.636 177.12 230.3 178.466 234.213C179.812 238.126 178.835 240.288 177.857 242.45C181.222 243.711 184.586 244.972 186.368 244.594C186.422 244.582 186.475 244.569 186.526 244.555C188.163 244.093 188.356 242.136 188.55 240.179Z" fill="#BBB1FD"/>
<path d="M298.342 213.234L269.938 222.23L268.02 216.186L264.249 204.24L262.86 199.87L260.942 193.814L282.863 186.874L289.346 184.83C291.709 184.077 295.646 189.839 298.125 197.676C300.604 205.525 300.705 212.493 298.342 213.234Z" fill="#A79DEA"/>
<path d="M269.938 222.229L269.926 222.229C269 222.514 267.838 221.816 266.607 220.376C264.711 218.138 262.663 214.145 261.147 209.383C261.072 209.147 261.002 208.909 260.937 208.671C259.577 204.16 259.026 200.007 259.286 197.232C259.468 195.359 260.016 194.11 260.942 193.813C262.83 193.22 265.715 196.76 268.065 202.209C268.652 203.58 269.223 205.079 269.721 206.67C272.2 214.496 272.302 221.453 269.938 222.229Z" fill="#483C97"/>
<path d="M266.916 220.28L266.607 220.375L246.479 226.754L244.095 219.226L242.199 213.229L241.564 211.199L239.158 203.611C239.17 203.599 239.17 203.599 239.182 203.6L259.286 197.232L259.595 197.137C260.45 196.861 261.634 197.935 262.86 199.868C263.54 200.937 264.222 202.264 264.875 203.778C265.385 204.994 265.891 206.327 266.336 207.74C267.343 210.922 267.921 213.913 268.019 216.183C268.129 218.466 267.771 220.004 266.916 220.28Z" fill="#A79DEA"/>
<path d="M246.479 226.756C245.743 226.99 244.747 226.227 243.705 224.77C242.337 222.879 240.881 219.787 239.737 216.154C239.501 215.417 239.287 214.674 239.097 213.924C238.381 211.186 238.02 208.695 238.037 206.84C238.041 205.031 238.41 203.846 239.147 203.613L239.158 203.613C239.17 203.602 239.17 203.602 239.182 203.602C240.901 203.133 243.887 207.863 245.9 214.205C245.91 214.252 245.932 214.3 245.942 214.347C247.933 220.675 248.165 226.215 246.479 226.756Z" fill="#483C97"/>
<path d="M243.705 224.77C243.518 225.081 243.276 225.284 242.979 225.379L222.543 231.854L221.325 228.006L219.248 221.44L217.849 217.034L216.642 213.21L237.078 206.736C237.375 206.641 237.691 206.675 238.038 206.84C239.126 207.288 240.421 208.907 241.564 211.201C241.901 211.869 242.203 212.553 242.468 213.252C242.707 213.836 242.921 214.442 243.122 215.084C243.577 216.532 243.904 217.941 244.095 219.228C244.467 221.731 244.338 223.77 243.705 224.77Z" fill="#A79DEA"/>
<path d="M222.543 231.853C221.735 232.108 220.703 231.391 219.669 230.028C218.511 228.52 217.369 226.202 216.511 223.506C216.365 223.039 216.229 222.568 216.101 222.095C215.53 219.926 215.282 217.909 215.335 216.36C215.394 214.636 215.834 213.464 216.641 213.21C218.34 212.669 221.042 216.404 222.673 221.557C222.695 221.617 222.716 221.688 222.726 221.747C224.302 226.816 224.217 231.324 222.543 231.853Z" fill="#483C97"/>
<path d="M221.324 228.006C221.09 229.02 220.619 229.732 219.93 229.943L219.669 230.028L199.482 236.417L196.908 228.26L195.16 222.738L215.335 216.36L215.596 216.275C216.285 216.064 217.074 216.35 217.849 217.034C218.875 217.927 219.89 219.5 220.599 221.439C220.685 221.665 220.771 221.903 220.845 222.141C221.555 224.373 221.692 226.527 221.324 228.006Z" fill="#A79DEA"/>
<path d="M199.482 236.416C197.784 236.956 195.431 234.327 194.234 230.551C193.27 227.499 193.345 224.636 194.328 223.354C194.55 223.056 194.828 222.843 195.16 222.737C196.858 222.196 199.211 224.825 200.396 228.601C200.428 228.696 200.449 228.779 200.481 228.874C201.577 232.541 201.145 235.886 199.482 236.416Z" fill="#483C97"/>
<path d="M298.342 213.232L269.938 222.228L269.926 222.228C269 222.513 267.838 221.815 266.607 220.375L246.479 226.754C245.743 226.987 244.747 226.225 243.705 224.768C243.518 225.079 243.276 225.282 242.979 225.377L222.543 231.852C221.735 232.106 220.703 231.389 219.669 230.026L199.483 236.415C197.784 236.956 195.432 234.326 194.234 230.55C193.27 227.498 193.345 224.635 194.329 223.353C194.264 224.89 194.475 226.283 195.611 227.391C195.993 227.75 196.431 228.043 196.909 228.258C197.972 228.764 199.224 228.913 200.482 228.874C202.374 228.833 204.245 228.392 205.406 228.103C211.493 226.645 212.082 223.54 216.101 222.093C216.504 221.942 216.916 221.818 217.336 221.724C217.999 221.571 218.636 221.475 219.248 221.438C219.698 221.409 220.149 221.408 220.599 221.437C221.338 221.474 222.051 221.581 222.726 221.745C227.167 222.755 230.365 225.731 233.685 223.79C237.521 221.537 235.615 216.151 239.098 213.921L239.314 213.788C240.237 213.267 241.205 213.125 242.199 213.229C242.294 213.221 242.375 213.235 242.469 213.25C243.591 213.394 244.751 213.822 245.943 214.345C249.438 215.874 253.128 218.197 256.576 216.648C259.725 215.241 259.531 212.016 260.937 208.67C261.424 207.5 262.111 206.314 263.207 205.177C263.532 204.84 263.88 204.526 264.249 204.238C264.455 204.069 264.66 203.912 264.876 203.778C265.863 203.084 266.937 202.58 268.066 202.208C276.74 199.3 288.835 204.167 290.937 200.081C292.648 196.769 285.861 191.262 282.864 186.872L289.347 184.828C291.71 184.075 295.647 189.837 298.126 197.674C300.604 205.523 300.705 212.491 298.342 213.232Z" fill="url(#paint16_linear_1353_4580)"/>
<path d="M237.306 227.176C239.421 228.538 235.833 232.503 230.118 234.01C224.552 257.719 223.775 288.559 203.084 290.568C199.989 290.987 196.118 290.236 191.979 288.668C178.188 283.458 161.152 269.202 157.887 259.313C156.358 254.692 159.885 247.458 161.55 245.77C164.544 242.728 172.268 248.312 177.997 251.434C182.99 258.234 190.863 265.271 201.166 272.865C201.888 273.403 202.609 273.923 203.35 274.461L221.904 235.97C220.994 233.979 220.084 231.988 220.627 229.848C220.96 228.555 221.809 227.213 222.633 226.369C223.176 225.838 223.685 225.5 224.012 225.55C224.859 225.683 224.536 228.221 224.214 230.759L237.306 227.176Z" fill="#BBB1FD"/>
<path d="M201.802 273.04C201.817 274.477 201.701 276.014 201.317 277.614C201.091 278.577 200.789 279.562 200.352 280.55C198.553 284.676 195.363 287.493 192.358 289.309C178.161 283.956 160.617 269.272 157.249 259.098C155.679 254.344 159.315 246.896 161.017 245.15C164.105 242.028 172.063 247.76 177.947 250.974C179.353 252.871 180.868 254.685 182.486 256.405C187.405 261.731 193.919 267.23 201.802 273.04Z" fill="#7A67F1"/>
<path d="M201.802 273.04C201.817 274.477 201.701 276.014 201.317 277.614C201.091 278.577 200.789 279.562 200.352 280.55C198.553 284.676 195.363 287.493 192.358 289.309C178.161 283.956 160.617 269.272 157.249 259.098C155.679 254.344 159.315 246.896 161.017 245.15C164.105 242.028 172.063 247.76 177.947 250.974C179.353 252.871 180.868 254.685 182.486 256.405C187.405 261.731 193.919 267.23 201.802 273.04Z" fill="url(#paint17_linear_1353_4580)"/>
<path d="M180.336 220.994C183.296 222.926 186.256 224.857 189.383 224.441H189.383C192.51 224.024 195.804 221.26 196.165 218.043C196.527 214.825 193.956 211.155 191.51 210.11C190.761 209.79 190.024 209.716 189.295 209.813C187.643 210.033 186.033 211.13 184.423 212.227C182.122 211.192 179.822 210.158 177.309 210.493C177.09 210.522 176.869 210.561 176.647 210.612C173.873 211.247 170.826 213.642 170.344 217.75C169.862 221.858 171.945 227.68 169.004 232.049C167.107 234.868 163.119 237.083 159 237.632C156.735 237.934 154.429 237.732 152.41 236.849C147.379 234.648 144.127 228.219 136.068 229.293C135.014 229.434 133.878 229.702 132.645 230.126C121.983 233.787 104.074 249.004 103.201 265.543C102.329 282.083 118.493 299.946 131.458 305.734C136.079 307.796 140.294 308.325 143.944 307.839C150.536 306.96 155.288 302.77 157.27 298.322C160.349 291.411 156.739 283.877 160.679 276.596C164.618 269.315 176.107 262.288 180.641 253.063C185.176 243.838 182.756 232.416 180.336 220.994Z" fill="black"/>
<path d="M409.47 129.26C411.454 129.26 413.062 127.652 413.062 125.668C413.062 123.684 411.454 122.076 409.47 122.076C407.486 122.076 405.878 123.684 405.878 125.668C405.878 127.652 407.486 129.26 409.47 129.26Z" fill="black"/>
<path d="M416.615 113.007C418.018 113.007 419.155 111.87 419.155 110.468C419.155 109.065 418.018 107.928 416.615 107.928C415.213 107.928 414.076 109.065 414.076 110.468C414.076 111.87 415.213 113.007 416.615 113.007Z" fill="black"/>
<path d="M394.69 145.532C398.171 145.532 400.993 142.71 400.993 139.229C400.993 135.748 398.171 132.926 394.69 132.926C391.209 132.926 388.387 135.748 388.387 139.229C388.387 142.71 391.209 145.532 394.69 145.532Z" fill="black"/>
<path d="M362.955 94.0454C364.179 95.9592 365.358 98.0779 366.458 100.34C366.5 100.424 366.524 100.516 366.53 100.61C366.535 100.704 366.522 100.798 366.492 100.887C366.461 100.976 366.413 101.058 366.35 101.129C366.287 101.199 366.211 101.256 366.127 101.297C365.772 101.471 365.347 101.32 365.169 100.965C363.851 98.2635 362.435 95.8008 360.94 93.5983C360.746 93.2474 360.804 92.8242 361.13 92.602C361.208 92.549 361.296 92.5119 361.388 92.4928C361.481 92.4738 361.576 92.473 361.668 92.4907C361.761 92.5084 361.849 92.5442 361.928 92.596C362.006 92.6477 362.074 92.7145 362.127 92.7925C362.409 93.2062 362.685 93.6238 362.955 94.0454ZM356.59 86.2561C356.675 86.3898 356.714 86.5479 356.7 86.7058C356.686 86.8637 356.62 87.0127 356.513 87.1295C356.449 87.1989 356.372 87.2549 356.287 87.2944C356.201 87.334 356.108 87.3563 356.014 87.36C355.92 87.3638 355.826 87.349 355.737 87.3164C355.649 87.2838 355.568 87.234 355.498 87.17C353.281 85.1234 350.939 83.6126 348.537 82.675C348.449 82.6412 348.368 82.5902 348.3 82.525C348.232 82.4599 348.177 82.3819 348.139 82.2955C348.101 82.2091 348.081 82.116 348.079 82.0217C348.077 81.9273 348.094 81.8335 348.129 81.7458C348.198 81.5687 348.335 81.4263 348.509 81.3498C348.683 81.2733 348.881 81.2689 349.058 81.3376C351.628 82.3405 354.122 83.9473 356.472 86.1149C356.518 86.1593 356.558 86.2065 356.59 86.2561ZM369.77 108.19C369.797 108.232 369.821 108.28 369.841 108.331C370.797 110.948 371.683 113.723 372.48 116.581C372.531 116.764 372.507 116.96 372.413 117.126C372.32 117.291 372.165 117.413 371.982 117.465C371.6 117.57 371.214 117.335 371.098 116.966C370.311 114.145 369.435 111.403 368.492 108.821C368.431 108.655 368.434 108.473 368.5 108.309C368.566 108.145 368.69 108.011 368.848 107.933C369.007 107.854 369.188 107.837 369.358 107.885C369.529 107.932 369.675 108.041 369.77 108.19ZM374.423 124.755C374.469 124.826 374.504 124.906 374.521 124.995C375.107 127.818 375.609 130.659 376.025 133.512C376.039 133.605 376.034 133.7 376.011 133.791C375.988 133.883 375.947 133.968 375.891 134.044C375.835 134.119 375.765 134.183 375.684 134.231C375.603 134.279 375.514 134.311 375.421 134.325C375.028 134.386 374.655 134.116 374.608 133.72C374.194 130.895 373.697 128.083 373.118 125.287C373.099 125.195 373.098 125.1 373.115 125.007C373.132 124.915 373.168 124.826 373.22 124.748C373.271 124.669 373.338 124.601 373.416 124.548C373.494 124.495 373.581 124.458 373.673 124.439C373.816 124.41 373.963 124.424 374.097 124.481C374.231 124.537 374.345 124.633 374.423 124.755ZM340.96 80.5024C341.018 80.5945 341.055 80.6978 341.068 80.8121C341.078 80.9057 341.07 81.0004 341.044 81.0908C341.017 81.1812 340.973 81.2654 340.914 81.3387C340.855 81.4121 340.782 81.473 340.699 81.518C340.617 81.563 340.526 81.5913 340.432 81.6011C338.585 81.8016 336.675 82.2981 334.753 83.0822C334.383 83.2322 333.957 83.0494 333.817 82.6898C333.746 82.5136 333.747 82.3163 333.82 82.141C333.894 81.9656 334.034 81.8265 334.209 81.7539C336.256 80.9202 338.297 80.3894 340.279 80.176C340.412 80.1617 340.546 80.1847 340.666 80.2424C340.786 80.3001 340.888 80.3901 340.96 80.5024ZM376.929 141.783C376.989 141.877 377.028 141.985 377.038 142.105C377.295 144.977 377.47 147.855 377.562 150.737C377.567 150.927 377.497 151.112 377.367 151.25C377.237 151.389 377.058 151.47 376.868 151.477C376.678 151.483 376.493 151.413 376.354 151.283C376.216 151.153 376.134 150.973 376.128 150.783C376.037 147.928 375.864 145.077 375.611 142.233C375.602 142.139 375.612 142.045 375.64 141.955C375.668 141.865 375.714 141.781 375.774 141.709C375.834 141.637 375.908 141.577 375.992 141.534C376.075 141.49 376.166 141.463 376.26 141.455C376.391 141.443 376.522 141.468 376.64 141.525C376.758 141.583 376.858 141.672 376.929 141.783ZM377.461 158.975C377.536 159.093 377.579 159.232 377.572 159.383C377.481 162.35 377.292 165.257 377.012 168.026C376.993 168.216 376.899 168.389 376.752 168.51C376.604 168.63 376.415 168.687 376.226 168.669C376.037 168.649 375.863 168.555 375.743 168.408C375.623 168.261 375.565 168.072 375.584 167.883C375.862 165.147 376.051 162.271 376.141 159.34C376.144 159.246 376.165 159.153 376.203 159.067C376.242 158.981 376.297 158.904 376.365 158.839C376.434 158.775 376.514 158.725 376.602 158.691C376.69 158.658 376.784 158.643 376.878 158.646C376.995 158.649 377.109 158.68 377.21 158.738C377.312 158.795 377.398 158.876 377.461 158.975ZM375.683 176.085C375.776 176.231 375.817 176.415 375.785 176.598C375.273 179.434 374.695 182.257 374.051 185.065C374.03 185.157 373.992 185.244 373.937 185.32C373.883 185.397 373.814 185.463 373.734 185.513C373.654 185.563 373.565 185.597 373.472 185.612C373.38 185.628 373.285 185.625 373.193 185.604C372.81 185.515 372.566 185.129 372.656 184.744C373.293 181.958 373.865 179.157 374.373 176.345C374.406 176.157 374.513 175.991 374.669 175.882C374.825 175.774 375.018 175.731 375.206 175.765C375.303 175.783 375.395 175.821 375.477 175.876C375.559 175.931 375.629 176.002 375.683 176.085ZM371.842 192.861C371.948 193.026 371.985 193.235 371.929 193.439C371.157 196.213 370.324 198.969 369.43 201.707C369.371 201.887 369.243 202.037 369.074 202.123C368.905 202.209 368.708 202.225 368.527 202.166C368.438 202.137 368.354 202.091 368.283 202.03C368.211 201.968 368.152 201.894 368.109 201.809C368.067 201.725 368.041 201.634 368.034 201.539C368.027 201.445 368.039 201.351 368.068 201.261C368.953 198.544 369.779 195.808 370.547 193.056C370.599 192.872 370.72 192.717 370.886 192.623C371.052 192.529 371.248 192.505 371.431 192.556C371.601 192.604 371.747 192.712 371.842 192.861ZM366.508 209.218C366.624 209.401 366.658 209.636 366.574 209.858C365.561 212.554 364.489 215.227 363.357 217.875C363.32 217.962 363.267 218.04 363.199 218.106C363.132 218.172 363.052 218.224 362.965 218.259C362.878 218.294 362.784 218.311 362.69 218.31C362.596 218.309 362.503 218.289 362.416 218.252C362.055 218.096 361.881 217.675 362.039 217.311C363.163 214.682 364.228 212.029 365.233 209.352C365.28 209.228 365.36 209.119 365.465 209.037C365.571 208.956 365.697 208.906 365.829 208.892C365.961 208.878 366.095 208.901 366.215 208.959C366.334 209.017 366.436 209.106 366.508 209.218ZM359.741 225.041C359.87 225.242 359.894 225.506 359.782 225.739C358.529 228.334 357.212 230.898 355.832 233.428C355.787 233.51 355.726 233.583 355.652 233.642C355.579 233.701 355.495 233.745 355.404 233.772C355.314 233.798 355.219 233.807 355.126 233.796C355.032 233.786 354.941 233.758 354.859 233.713C354.513 233.523 354.381 233.087 354.574 232.739C355.942 230.23 357.249 227.688 358.492 225.115C358.533 225.03 358.59 224.954 358.66 224.891C358.73 224.829 358.812 224.781 358.901 224.75C358.99 224.719 359.084 224.706 359.178 224.711C359.272 224.717 359.364 224.741 359.449 224.782C359.573 224.841 359.672 224.932 359.741 225.041ZM351.477 240.135C351.621 240.361 351.633 240.657 351.482 240.9C349.912 243.427 348.298 245.851 346.687 248.103C346.632 248.18 346.563 248.245 346.483 248.295C346.403 248.344 346.314 248.378 346.221 248.393C346.128 248.409 346.033 248.406 345.942 248.384C345.85 248.363 345.763 248.324 345.687 248.269C345.37 248.044 345.29 247.591 345.521 247.269C347.114 245.042 348.709 242.644 350.264 240.143C350.328 240.04 350.417 239.955 350.522 239.896C350.628 239.837 350.747 239.806 350.868 239.805C350.989 239.804 351.109 239.834 351.215 239.892C351.321 239.949 351.412 240.033 351.477 240.135ZM341.428 254.095C341.511 254.224 341.55 254.377 341.54 254.53C341.529 254.683 341.47 254.828 341.37 254.945C339.378 257.292 337.369 259.414 335.398 261.253C335.259 261.383 335.074 261.452 334.884 261.446C334.694 261.44 334.514 261.358 334.384 261.219C334.115 260.919 334.13 260.477 334.418 260.204C336.351 258.403 338.322 256.321 340.278 254.018C340.339 253.946 340.414 253.887 340.497 253.844C340.581 253.8 340.672 253.774 340.766 253.767C340.86 253.759 340.954 253.77 341.044 253.799C341.134 253.828 341.217 253.874 341.288 253.935C341.344 253.982 341.39 254.036 341.428 254.095ZM328.752 265.645C328.98 266.025 328.867 266.427 328.531 266.638C325.697 268.424 322.959 269.571 320.393 270.048C320.3 270.066 320.205 270.065 320.112 270.046C320.02 270.026 319.933 269.989 319.855 269.935C319.777 269.882 319.711 269.813 319.66 269.734C319.609 269.655 319.574 269.566 319.558 269.473C319.541 269.38 319.542 269.285 319.561 269.193C319.581 269.101 319.619 269.014 319.672 268.936C319.725 268.858 319.794 268.792 319.873 268.741C319.952 268.69 320.04 268.655 320.133 268.638C322.519 268.194 325.086 267.114 327.765 265.426C327.926 265.324 328.119 265.291 328.304 265.332C328.489 265.373 328.65 265.486 328.752 265.645ZM301.606 245.161C301.658 245.242 301.694 245.334 301.71 245.434C302.195 248.473 302.81 251.269 303.537 253.743C303.564 253.833 303.573 253.928 303.563 254.022C303.553 254.115 303.524 254.206 303.479 254.289C303.434 254.372 303.373 254.445 303.3 254.504C303.226 254.563 303.142 254.607 303.052 254.634C302.961 254.661 302.866 254.671 302.772 254.661C302.678 254.651 302.587 254.623 302.504 254.578C302.421 254.533 302.348 254.471 302.289 254.397C302.23 254.324 302.186 254.239 302.16 254.148C301.416 251.615 300.789 248.759 300.295 245.661C300.28 245.568 300.283 245.473 300.305 245.381C300.327 245.29 300.366 245.203 300.421 245.127C300.477 245.051 300.546 244.986 300.627 244.937C300.707 244.888 300.796 244.855 300.889 244.84C301.027 244.818 301.168 244.836 301.296 244.893C301.423 244.95 301.531 245.043 301.606 245.161ZM312.551 267.685C312.638 267.82 312.676 267.98 312.661 268.14C312.646 268.3 312.577 268.45 312.466 268.566C312.356 268.682 312.209 268.758 312.05 268.781C311.891 268.804 311.729 268.773 311.59 268.694C309.49 267.49 307.605 265.543 306.013 263.077C305.837 262.802 305.667 262.523 305.503 262.241C305.456 262.16 305.425 262.07 305.413 261.976C305.4 261.883 305.406 261.788 305.431 261.697C305.455 261.606 305.497 261.521 305.554 261.446C305.611 261.371 305.683 261.308 305.764 261.261C306.107 261.064 306.53 261.237 306.745 261.52C306.912 261.809 307.086 262.094 307.266 262.375C308.733 264.668 310.427 266.374 312.304 267.449C312.407 267.509 312.491 267.59 312.551 267.685Z" fill="#E0DCFB"/>
<path d="M409.178 199.132L409.492 199.807C409.571 199.98 409.578 200.177 409.512 200.356C409.446 200.534 409.312 200.679 409.139 200.758C408.967 200.838 408.769 200.845 408.591 200.779C408.413 200.713 408.268 200.579 408.188 200.406L407.882 199.745C406.853 197.572 405.599 195.271 404.152 192.903C403.945 192.582 404.056 192.123 404.392 191.917C404.473 191.868 404.562 191.835 404.655 191.821C404.748 191.806 404.843 191.81 404.935 191.832C405.027 191.854 405.113 191.894 405.189 191.95C405.265 192.005 405.33 192.075 405.379 192.155C406.849 194.566 408.128 196.914 409.178 199.132ZM412.34 207.904C412.361 207.949 412.378 207.998 412.39 208.05C413.134 211.29 413.272 214.257 412.796 216.872C412.779 216.965 412.744 217.053 412.694 217.133C412.643 217.212 412.577 217.28 412.499 217.334C412.422 217.387 412.335 217.425 412.243 217.445C412.15 217.465 412.055 217.466 411.963 217.45C411.87 217.433 411.782 217.398 411.702 217.347C411.623 217.297 411.555 217.231 411.501 217.153C411.447 217.076 411.409 216.989 411.39 216.896C411.37 216.804 411.368 216.709 411.385 216.617C411.825 214.194 411.692 211.42 410.993 208.371C410.971 208.28 410.969 208.185 410.984 208.092C411 207.999 411.034 207.91 411.084 207.83C411.134 207.75 411.199 207.681 411.276 207.627C411.353 207.572 411.439 207.533 411.531 207.512C411.69 207.475 411.857 207.494 412.005 207.565C412.152 207.636 412.27 207.756 412.34 207.904ZM400.623 185.071C400.698 185.232 400.711 185.416 400.658 185.586C400.605 185.757 400.491 185.901 400.337 185.992C400.184 186.083 400.002 186.113 399.827 186.077C399.653 186.041 399.498 185.941 399.393 185.797C397.803 183.599 396.043 181.316 394.16 179.013C393.903 178.707 393.958 178.255 394.264 178.003C394.411 177.883 394.6 177.826 394.789 177.845C394.979 177.864 395.152 177.958 395.273 178.105C397.171 180.431 398.948 182.737 400.556 184.955C400.583 184.992 400.604 185.03 400.623 185.071ZM389.761 171.713C389.827 171.853 389.846 172.01 389.815 172.161C389.785 172.313 389.706 172.45 389.591 172.553C389.521 172.616 389.439 172.665 389.351 172.696C389.262 172.728 389.168 172.741 389.074 172.736C388.98 172.731 388.888 172.708 388.803 172.667C388.718 172.626 388.642 172.569 388.58 172.499C386.754 170.463 384.783 168.349 382.725 166.221C382.441 165.937 382.456 165.484 382.742 165.209C382.809 165.144 382.889 165.092 382.976 165.057C383.063 165.022 383.157 165.005 383.251 165.007C383.345 165.008 383.438 165.028 383.524 165.066C383.611 165.104 383.688 165.158 383.754 165.226C385.826 167.365 387.81 169.491 389.645 171.542C389.696 171.595 389.732 171.653 389.761 171.713ZM408.779 223.899C408.843 224.035 408.863 224.187 408.836 224.335C408.809 224.482 408.737 224.618 408.629 224.722C407.244 226.064 405.512 227.231 403.487 228.19C402.681 228.57 401.857 228.909 401.018 229.207C400.647 229.34 400.219 229.13 400.1 228.774C400.037 228.595 400.046 228.398 400.128 228.227C400.209 228.055 400.356 227.923 400.535 227.859C401.329 227.576 402.11 227.254 402.873 226.894C404.757 226.002 406.357 224.925 407.632 223.69C407.7 223.625 407.78 223.573 407.867 223.539C407.955 223.504 408.048 223.487 408.142 223.489C408.236 223.491 408.329 223.511 408.415 223.548C408.502 223.586 408.58 223.64 408.645 223.708C408.702 223.765 408.746 223.831 408.779 223.899ZM377.787 159.34C377.849 159.471 377.87 159.619 377.846 159.763C377.822 159.906 377.755 160.039 377.653 160.144C377.588 160.211 377.51 160.266 377.424 160.303C377.338 160.341 377.245 160.361 377.151 160.363C377.057 160.364 376.963 160.347 376.876 160.313C376.788 160.278 376.709 160.226 376.641 160.161C374.578 158.176 372.484 156.223 370.359 154.303C370.063 154.043 370.043 153.588 370.308 153.292C370.371 153.222 370.447 153.165 370.532 153.124C370.617 153.083 370.709 153.06 370.803 153.055C370.897 153.051 370.991 153.065 371.08 153.096C371.168 153.128 371.25 153.177 371.319 153.241C373.458 155.169 375.563 157.133 377.636 159.132C377.701 159.191 377.751 159.264 377.787 159.34ZM365.006 147.794C365.076 147.942 365.093 148.11 365.055 148.269C365.017 148.429 364.925 148.57 364.795 148.67C364.665 148.77 364.505 148.822 364.341 148.819C364.177 148.815 364.02 148.755 363.895 148.649C361.711 146.796 359.497 144.979 357.254 143.199C357.105 143.08 357.01 142.908 356.988 142.719C356.967 142.53 357.021 142.34 357.139 142.191C357.258 142.042 357.431 141.946 357.62 141.925C357.809 141.903 357.998 141.957 358.148 142.076C360.401 143.866 362.626 145.692 364.82 147.554C364.903 147.623 364.964 147.706 365.006 147.794ZM351.515 137.087C351.57 137.204 351.593 137.334 351.58 137.464C351.568 137.593 351.521 137.716 351.444 137.821C351.33 137.973 351.161 138.075 350.973 138.103C350.785 138.131 350.593 138.084 350.44 137.971C348.139 136.27 345.804 134.616 343.436 133.01C343.102 132.796 343.019 132.346 343.244 132.016C343.296 131.938 343.364 131.871 343.442 131.819C343.521 131.767 343.609 131.732 343.701 131.714C343.793 131.696 343.888 131.696 343.981 131.715C344.073 131.734 344.16 131.771 344.238 131.824C346.525 133.369 348.899 135.05 351.294 136.817C351.39 136.889 351.466 136.983 351.515 137.087ZM393.054 230.159C393.086 230.225 393.107 230.296 393.118 230.371C393.143 230.56 393.092 230.751 392.976 230.902C392.861 231.053 392.69 231.152 392.501 231.178C391.132 231.358 389.757 231.494 388.379 231.588C388.189 231.601 388.002 231.538 387.858 231.413C387.715 231.288 387.627 231.111 387.613 230.921C387.607 230.828 387.619 230.733 387.649 230.644C387.678 230.555 387.725 230.473 387.787 230.402C387.849 230.331 387.924 230.273 388.008 230.231C388.092 230.189 388.184 230.164 388.278 230.157C389.673 230.061 391.029 229.927 392.311 229.755C392.462 229.735 392.615 229.763 392.749 229.836C392.882 229.909 392.989 230.022 393.054 230.159ZM337.23 127.472C337.281 127.578 337.304 127.696 337.298 127.814C337.293 127.932 337.258 128.046 337.197 128.148C337.099 128.31 336.94 128.428 336.756 128.474C336.571 128.52 336.376 128.491 336.213 128.393C333.535 126.789 331.013 125.404 328.716 124.282C328.361 124.109 328.211 123.675 328.385 123.323C328.469 123.152 328.617 123.022 328.797 122.96C328.977 122.898 329.174 122.91 329.345 122.993C331.68 124.134 334.238 125.538 336.951 127.164C337.072 127.237 337.17 127.344 337.23 127.472ZM321.765 119.937C321.847 120.112 321.86 120.316 321.781 120.509C321.747 120.597 321.696 120.677 321.63 120.744C321.565 120.812 321.486 120.866 321.4 120.903C321.314 120.94 321.221 120.96 321.127 120.961C321.032 120.962 320.939 120.944 320.852 120.909C318.11 119.818 315.41 118.79 312.831 117.858C312.463 117.722 312.266 117.313 312.402 116.939C312.467 116.76 312.6 116.615 312.772 116.534C312.945 116.454 313.142 116.445 313.32 116.51C316.024 117.489 318.712 118.512 321.381 119.58C321.55 119.646 321.687 119.774 321.765 119.937ZM305.58 114.104C305.655 114.263 305.673 114.447 305.616 114.629C305.587 114.719 305.541 114.802 305.48 114.874C305.42 114.946 305.345 115.005 305.261 115.048C305.177 115.091 305.086 115.117 304.992 115.125C304.898 115.133 304.804 115.122 304.714 115.093C301.89 114.196 299.125 113.382 296.492 112.673C296.107 112.567 295.882 112.169 295.986 111.794C296.011 111.703 296.053 111.617 296.11 111.543C296.168 111.468 296.239 111.405 296.321 111.358C296.403 111.311 296.493 111.281 296.586 111.269C296.68 111.257 296.775 111.263 296.866 111.288C299.645 112.039 302.407 112.853 305.149 113.728C305.346 113.79 305.498 113.932 305.58 114.104ZM288.961 109.669C289.026 109.806 289.048 109.963 289.015 110.124C288.976 110.309 288.864 110.472 288.705 110.576C288.546 110.679 288.353 110.716 288.167 110.677C285.26 110.07 282.425 109.584 279.74 109.231C279.646 109.219 279.556 109.189 279.475 109.142C279.393 109.095 279.321 109.032 279.264 108.957C279.207 108.882 279.165 108.797 279.141 108.706C279.116 108.615 279.111 108.52 279.123 108.426C279.135 108.333 279.166 108.243 279.213 108.161C279.26 108.08 279.323 108.008 279.398 107.951C279.473 107.893 279.558 107.851 279.649 107.827C279.74 107.803 279.835 107.797 279.928 107.81C282.649 108.167 285.517 108.659 288.46 109.274C288.568 109.297 288.67 109.344 288.757 109.412C288.844 109.481 288.914 109.569 288.961 109.669ZM271.91 107.507C271.956 107.605 271.982 107.717 271.979 107.833C271.974 108.023 271.893 108.204 271.754 108.334C271.616 108.465 271.432 108.535 271.241 108.53C268.193 108.448 265.343 108.577 262.771 108.918C262.38 108.97 262.019 108.688 261.967 108.3C261.942 108.112 261.992 107.921 262.108 107.77C262.224 107.618 262.394 107.519 262.583 107.494C265.229 107.146 268.156 107.012 271.282 107.097C271.414 107.101 271.543 107.141 271.654 107.213C271.765 107.285 271.853 107.387 271.91 107.507ZM255.024 110.041L255.038 110.069C255.111 110.244 255.113 110.442 255.041 110.618C254.969 110.795 254.831 110.935 254.655 111.009C254.364 111.132 254.076 111.262 253.79 111.397C251.415 112.522 249.458 113.982 247.97 115.734C247.909 115.806 247.835 115.865 247.751 115.908C247.668 115.951 247.576 115.977 247.483 115.985C247.389 115.993 247.295 115.982 247.205 115.954C247.116 115.925 247.032 115.879 246.961 115.818C246.654 115.551 246.62 115.109 246.877 114.807C248.497 112.897 250.616 111.314 253.176 110.101C253.48 109.957 253.788 109.819 254.097 109.687C254.268 109.615 254.459 109.612 254.632 109.678C254.805 109.744 254.945 109.874 255.024 110.041ZM244.552 122.689C244.613 122.819 244.636 122.966 244.611 123.117C244.184 125.6 244.232 128.398 244.755 131.433C244.787 131.62 244.743 131.812 244.634 131.968C244.524 132.123 244.358 132.228 244.17 132.261C243.983 132.293 243.79 132.249 243.634 132.139C243.479 132.029 243.373 131.862 243.341 131.674C242.79 128.479 242.742 125.517 243.197 122.875C243.213 122.782 243.247 122.694 243.297 122.614C243.347 122.534 243.413 122.465 243.49 122.411C243.567 122.356 243.654 122.318 243.746 122.297C243.838 122.277 243.933 122.275 244.026 122.291C244.139 122.31 244.246 122.356 244.338 122.426C244.429 122.495 244.503 122.586 244.552 122.689ZM247.032 139.512C247.041 139.53 247.047 139.546 247.054 139.564C247.988 142.025 249.166 144.617 250.58 147.313C250.74 147.64 250.627 148.096 250.278 148.28C250.194 148.324 250.103 148.351 250.009 148.359C249.915 148.368 249.82 148.358 249.73 148.33C249.64 148.301 249.557 148.256 249.484 148.195C249.412 148.135 249.352 148.061 249.308 147.977C247.871 145.23 246.667 142.583 245.715 140.074C245.682 139.986 245.666 139.892 245.669 139.798C245.671 139.704 245.693 139.611 245.731 139.525C245.77 139.439 245.825 139.362 245.894 139.297C245.962 139.233 246.043 139.182 246.131 139.149C246.299 139.085 246.485 139.087 246.652 139.155C246.819 139.222 246.955 139.35 247.032 139.512Z" fill="#E0DCFB"/>
<path fill-rule="evenodd" clip-rule="evenodd" d="M320.72 235.922V247.204C320.72 248.585 319.748 249.733 318.464 250.025H318.444C318.23 250.064 318.036 250.103 317.802 250.103H304.322V254.246C304.322 254.421 304.264 254.596 304.186 254.732C303.913 255.219 303.194 255.355 302.766 254.927L297.942 250.103H296.58C294.965 250.103 293.662 248.799 293.662 247.204V235.922C293.662 235.727 293.682 235.533 293.72 235.319C293.993 234.015 295.14 233.023 296.58 233.023H317.802C319.417 233.023 320.72 234.307 320.72 235.922Z" fill="#A79DEA"/>
<path d="M314.089 238.96C314.052 242.791 309.825 246.938 307.807 246.919C305.799 246.9 301.652 242.673 301.689 238.842C301.721 235.492 306.638 234.713 307.891 238.04C309.219 234.738 314.121 235.61 314.089 238.96Z" fill="white"/>
<path d="M320.72 235.922V247.204C320.72 248.586 319.748 249.733 318.464 250.025H318.444C318.23 250.064 318.036 250.103 317.802 250.103H304.322V254.246C304.322 254.421 304.264 254.596 304.186 254.733C303.913 255.219 303.194 255.355 302.766 254.927L297.942 250.103H296.58C294.965 250.103 293.662 248.799 293.662 247.204V243.995C294.557 243.508 295.296 243.217 295.607 243.081C297.942 242.127 300.237 241.797 302.396 241.777C306.501 241.758 310.138 242.886 312.628 243.139C314.029 243.275 315.079 243.139 315.604 242.361C317.024 240.279 312.803 236.719 312.55 233.023H317.802C319.417 233.024 320.72 234.308 320.72 235.922Z" fill="url(#paint18_linear_1353_4580)"/>
<path fill-rule="evenodd" clip-rule="evenodd" d="M336.333 76.2195V86.4039C336.333 87.6686 335.452 88.7073 334.278 88.9782C334.097 89.0008 333.894 89.0233 333.69 89.0233H321.519V92.7944C321.519 92.9525 321.474 93.1107 321.406 93.2234C321.158 93.6524 320.525 93.788 320.119 93.3815L315.76 89.0233H314.518C313.051 89.0233 311.899 87.8716 311.899 86.4036V76.2193C311.899 76.0385 311.899 75.8579 311.944 75.6771C312.192 74.4802 313.231 73.5996 314.518 73.5996H333.69C335.158 73.5998 336.333 74.7516 336.333 76.2195Z" fill="#A79DEA"/>
<path d="M321.227 79.5147V84.2838C321.227 84.2838 325.25 86.5173 328.336 85.7929C331.422 85.0686 332.066 79.3001 330.778 78.3342C329.491 77.3684 325.11 78.906 325.11 78.906C325.11 78.906 325.8 78.3451 326.528 77.395C327.74 75.812 326.045 74.2693 325.225 75.3828C324.559 76.2869 321.456 76.8987 321.227 79.5147ZM318.252 78.6292H319.722C319.915 78.6292 320.1 78.7058 320.236 78.8423C320.373 78.9787 320.449 79.1638 320.449 79.3568V83.7131C320.449 83.9061 320.373 84.0912 320.236 84.2276C320.1 84.3641 319.915 84.4407 319.722 84.4407H318.252C318.059 84.4407 317.874 84.3641 317.738 84.2276C317.601 84.0912 317.524 83.9061 317.524 83.7131V79.3568C317.524 79.1638 317.601 78.9787 317.738 78.8423C317.874 78.7058 318.059 78.6292 318.252 78.6292Z" fill="white"/>
<path d="M336.333 76.2193V86.4036C336.333 87.6683 335.452 88.7071 334.278 88.9779C334.097 89.0006 333.894 89.0231 333.69 89.0231H321.519V92.7942C321.519 92.9523 321.474 93.1104 321.406 93.2232C321.158 93.6521 320.525 93.7878 320.119 93.3813L315.76 89.0231H314.518C313.051 89.0231 311.899 87.8713 311.899 86.4034V82.971C312.915 82.4063 313.751 82.0676 314.112 81.9322C315.21 81.48 316.353 81.1469 317.522 80.9386C318.515 80.7805 319.509 80.6902 320.457 80.6902C320.713 80.6675 320.97 80.6675 321.225 80.6902C325.313 80.7354 328.903 81.9322 331.229 82.0225C332.335 82.0903 333.148 81.8871 333.6 81.2322C334.774 79.4707 331.884 76.648 330.868 73.5996H333.69C335.158 73.5996 336.333 74.7513 336.333 76.2193Z" fill="url(#paint19_linear_1353_4580)"/>
<path d="M392.918 174.033C392.918 184.074 388.811 193.177 382.173 199.714C375.669 206.151 366.718 210.124 356.828 210.124C344.138 210.124 332.974 203.587 326.554 193.68C322.849 188.03 320.72 181.275 320.72 174.033C320.72 169.306 321.625 164.797 323.285 160.673C328.582 147.347 341.607 137.926 356.827 137.926C363.063 137.926 368.914 139.502 374.026 142.284H374.043C385.291 148.403 392.918 160.321 392.918 174.033Z" fill="#7A67F1"/>
<path d="M382.173 199.713C375.669 206.15 366.718 210.123 356.828 210.123C344.138 210.123 332.974 203.585 326.554 193.678C336.125 178.692 352.218 180.62 352.218 180.62L361.169 181.559C361.169 181.559 378.586 186.822 382.173 199.713Z" fill="#483C96"/>
<path d="M392.918 174.033C392.918 184.074 388.811 193.176 382.173 199.713C375.669 206.151 366.718 210.123 356.828 210.123C344.138 210.123 332.974 203.586 326.554 193.679C322.849 188.03 320.72 181.274 320.72 174.033C320.72 169.305 321.625 164.796 323.285 160.672C323.419 163.07 323.855 165.651 324.76 168.367C328.867 180.52 342.294 194.148 358.437 192.606C366.735 191.818 376.993 186.923 381.067 177.804C387.001 164.528 376.239 150.397 374.043 142.283C385.291 148.402 392.918 160.32 392.918 174.033Z" fill="url(#paint20_linear_1353_4580)"/>
<path d="M352.218 180.617C353.605 179.484 354.992 178.35 355.455 177.08C355.919 175.81 355.46 174.403 355 172.995C354.307 172.987 353.613 172.98 352.994 172.848C351.825 172.599 350.924 171.908 350.799 169.936C350.608 166.921 352.231 160.914 354.986 158.245C356.527 156.752 358.422 156.303 360.017 156.642C361.273 156.91 362.342 157.666 362.906 158.785C364.187 161.327 362.863 165.743 362.139 169.85C361.415 173.957 361.292 177.755 361.169 181.554C356.989 190.211 352.81 198.867 351.318 198.711C351.305 198.71 351.293 198.708 351.28 198.705C349.847 198.4 351.032 189.509 352.218 180.617Z" fill="#BBB1FD"/>
<path d="M413.156 149.252L412.708 149.167C409.877 148.519 406.549 149.509 402.725 152.135L399.647 154.09C394.85 159.186 390.92 163.568 387.038 166.104C384.291 167.898 382.138 168.022 381.244 168.044C379.826 168.079 378.706 167.63 377.861 166.353C376.983 158.33 374.619 152.928 370.561 150.481C368.047 148.965 365.163 148.419 362.108 148.54C360.6 148.599 359.202 148.822 357.911 149.167C356.62 149.512 355.438 149.993 354.364 150.61L352.835 151.638C349.578 154.177 345.661 160.675 350.961 163.448C352.182 164.086 353.599 164.193 354.944 164.492C356.514 164.841 357.996 165.492 358.515 167.127C358.804 168.04 358.873 169.024 359.283 169.89C359.712 170.793 360.484 171.504 360.882 172.421C361.682 174.266 360.792 176.359 360.63 178.363C360.461 180.432 361.255 182.716 363.069 183.724C364.066 184.279 365.239 184.391 366.345 184.676C367.935 185.086 369.409 185.863 370.986 186.323C372.834 186.861 374.78 186.952 376.668 187.325C380.255 188.035 383.553 189.742 386.829 191.365C390.106 192.989 393.491 194.568 397.123 194.988C401.291 195.469 405.271 194.177 407.896 190.853C410.517 187.533 412.656 184.902 416.289 182.681L418.053 181.539C420.842 179.439 422.92 176.607 424.566 173.174C426.361 169.428 426.945 166.347 426.59 163.702C426.185 160.689 424.991 157.641 422.309 154.752C419.668 151.905 416.569 150.118 413.156 149.252Z" fill="black" fill-opacity="0.937"/>
<path d="M261.895 148.525C261.895 154.723 256.867 159.769 250.651 159.769C244.801 159.769 239.974 155.272 239.462 149.549C239.426 149.209 239.407 148.867 239.407 148.525C239.407 142.309 244.453 137.281 250.651 137.281C254.71 137.281 258.239 139.42 260.213 142.62C261.274 144.338 261.895 146.368 261.895 148.525Z" fill="#A79DEA"/>
<path d="M250.94 143.218C250.893 143.204 250.845 143.197 250.796 143.197C250.595 143.195 250.414 143.307 250.333 143.481L249.003 146.338L245.724 146.482C245.508 146.492 245.326 146.632 245.266 146.832C245.206 147.027 245.285 147.242 245.458 147.361L248.261 149.263L247.013 153.081C246.947 153.29 247.03 153.518 247.223 153.632C247.26 153.658 247.301 153.674 247.342 153.687C247.425 153.712 247.513 153.716 247.598 153.698C247.683 153.68 247.763 153.642 247.829 153.586L250.71 151.043L254.275 153.737C254.323 153.777 254.378 153.803 254.433 153.818C254.51 153.841 254.591 153.846 254.67 153.833C254.749 153.82 254.823 153.789 254.888 153.742C255.069 153.607 255.135 153.372 255.044 153.169L253.386 149.402L255.89 147.371C255.978 147.301 256.038 147.202 256.059 147.091C256.106 146.852 255.959 146.617 255.716 146.54C255.668 146.528 255.62 146.521 255.571 146.52L255.568 146.517L252.483 146.32L251.251 143.495C251.222 143.429 251.18 143.37 251.126 143.322C251.072 143.274 251.009 143.239 250.94 143.218Z" fill="white"/>
<path d="M261.895 148.524C261.895 154.722 256.867 159.768 250.651 159.768C244.801 159.768 239.974 155.271 239.462 149.548C240.321 150.097 241.418 151.176 243.539 151.559C246.354 152.053 249.609 151.047 251.766 149.109C254.545 146.587 253.777 144.027 256.172 142.838C257.379 142.235 258.86 142.253 260.213 142.619C261.274 144.338 261.895 146.367 261.895 148.524Z" fill="url(#paint21_linear_1353_4580)"/>
<path d="M391.051 229.748C391.051 235.066 386.75 239.367 381.432 239.367C376.13 239.367 371.813 235.066 371.813 229.748C371.813 229.482 371.829 229.216 371.845 228.966C372.251 224.008 376.396 220.129 381.432 220.129C384.154 220.129 386.625 221.255 388.361 223.085C390.019 224.805 391.051 227.151 391.051 229.748Z" fill="#A79DEA"/>
<path d="M378.152 233.018V226.478C378.152 225.672 379.001 225.148 379.722 225.508L386.261 228.778C387.06 229.177 387.06 230.318 386.261 230.718L379.722 233.987C379.001 234.348 378.152 233.824 378.152 233.018Z" fill="white"/>
<path d="M391.051 229.749C391.051 235.067 386.75 239.368 381.432 239.368C376.13 239.368 371.813 235.067 371.813 229.749C371.813 229.483 371.829 229.217 371.845 228.967C372.736 229.107 373.612 230.531 375.927 230.953C376.646 231.078 377.397 231.094 378.148 231C379.915 230.797 381.683 230.015 382.965 228.857C383.363 228.501 383.715 228.096 384.013 227.653C385.186 225.917 385.077 224.321 386.734 223.493C387.241 223.241 387.796 223.102 388.361 223.086C390.019 224.806 391.051 227.152 391.051 229.749Z" fill="url(#paint22_linear_1353_4580)"/>
<path d="M409.47 129.26C411.454 129.26 413.062 127.652 413.062 125.668C413.062 123.684 411.454 122.076 409.47 122.076C407.486 122.076 405.878 123.684 405.878 125.668C405.878 127.652 407.486 129.26 409.47 129.26Z" fill="url(#paint23_linear_1353_4580)"/>
<path d="M416.615 113.007C418.018 113.007 419.155 111.87 419.155 110.468C419.155 109.065 418.018 107.928 416.615 107.928C415.213 107.928 414.076 109.065 414.076 110.468C414.076 111.87 415.213 113.007 416.615 113.007Z" fill="url(#paint24_linear_1353_4580)"/>
<path d="M394.69 145.532C398.171 145.532 400.993 142.71 400.993 139.229C400.993 135.748 398.171 132.926 394.69 132.926C391.209 132.926 388.387 135.748 388.387 139.229C388.387 142.71 391.209 145.532 394.69 145.532Z" fill="url(#paint25_linear_1353_4580)"/>
<defs>
<linearGradient id="paint0_linear_1353_4580" x1="329.692" y1="144.333" x2="128.06" y2="461.43" gradientUnits="userSpaceOnUse">
<stop stop-color="#6050C9"/>
<stop offset="0.044" stop-color="#7764F0"/>
<stop offset="0.384" stop-color="#A9A0E2"/>
<stop offset="0.668" stop-color="#D7D3F2"/>
<stop offset="0.882" stop-color="#F4F3FB"/>
<stop offset="1" stop-color="white"/>
</linearGradient>
<linearGradient id="paint1_linear_1353_4580" x1="164.853" y1="55.2244" x2="260.525" y2="373.462" gradientUnits="userSpaceOnUse">
<stop stop-color="white"/>
<stop offset="0.392" stop-color="#9E9E9E"/>
<stop offset="1"/>
</linearGradient>
<linearGradient id="paint2_linear_1353_4580" x1="318.065" y1="181.838" x2="154.918" y2="395.591" gradientUnits="userSpaceOnUse">
<stop stop-color="white"/>
<stop offset="1"/>
</linearGradient>
<linearGradient id="paint3_linear_1353_4580" x1="353.405" y1="344.826" x2="443.494" y2="243.664" gradientUnits="userSpaceOnUse">
<stop stop-color="#6050C9"/>
<stop offset="0.044" stop-color="#7764F0"/>
<stop offset="0.384" stop-color="#A9A0E2"/>
<stop offset="0.668" stop-color="#D7D3F2"/>
<stop offset="0.882" stop-color="#F4F3FB"/>
<stop offset="1" stop-color="white"/>
</linearGradient>
<linearGradient id="paint4_linear_1353_4580" x1="381.796" y1="290.33" x2="389.727" y2="324.508" gradientUnits="userSpaceOnUse">
<stop stop-color="white"/>
<stop offset="1"/>
</linearGradient>
<linearGradient id="paint5_linear_1353_4580" x1="-9.39804" y1="387.045" x2="407.849" y2="380.593" gradientUnits="userSpaceOnUse">
<stop stop-color="white"/>
<stop offset="0.106" stop-color="#FBFBFB"/>
<stop offset="0.207" stop-color="#F0F0F0"/>
<stop offset="0.305" stop-color="#DDDDDD"/>
<stop offset="0.403" stop-color="#C2C2C2"/>
<stop offset="0.499" stop-color="#9F9F9F"/>
<stop offset="0.595" stop-color="#747474"/>
<stop offset="0.691" stop-color="#414141"/>
<stop offset="0.784" stop-color="#080808"/>
<stop offset="0.796"/>
</linearGradient>
<linearGradient id="paint6_linear_1353_4580" x1="121.809" y1="285.584" x2="59.485" y2="337.267" gradientUnits="userSpaceOnUse">
<stop stop-color="white"/>
<stop offset="1"/>
</linearGradient>
<linearGradient id="paint7_linear_1353_4580" x1="58.7567" y1="221.729" x2="175.075" y2="330.997" gradientUnits="userSpaceOnUse">
<stop stop-color="white"/>
<stop offset="1"/>
</linearGradient>
<linearGradient id="paint8_linear_1353_4580" x1="177.854" y1="299.247" x2="120.949" y2="346.436" gradientUnits="userSpaceOnUse">
<stop stop-color="white"/>
<stop offset="1"/>
</linearGradient>
<linearGradient id="paint9_linear_1353_4580" x1="200.736" y1="323.57" x2="232.884" y2="350.23" gradientUnits="userSpaceOnUse">
<stop stop-color="white"/>
<stop offset="1"/>
</linearGradient>
<linearGradient id="paint10_linear_1353_4580" x1="167.803" y1="301.867" x2="215.872" y2="341.73" gradientUnits="userSpaceOnUse">
<stop stop-color="white"/>
<stop offset="1"/>
</linearGradient>
<linearGradient id="paint11_linear_1353_4580" x1="171.826" y1="330.617" x2="201.179" y2="354.958" gradientUnits="userSpaceOnUse">
<stop stop-color="white"/>
<stop offset="1"/>
</linearGradient>
<linearGradient id="paint12_linear_1353_4580" x1="208.926" y1="236.244" x2="187.215" y2="270.428" gradientUnits="userSpaceOnUse">
<stop stop-color="white"/>
<stop offset="1"/>
</linearGradient>
<linearGradient id="paint13_linear_1353_4580" x1="240.537" y1="275.147" x2="173.402" y2="368.459" gradientUnits="userSpaceOnUse">
<stop stop-color="white"/>
<stop offset="1"/>
</linearGradient>
<linearGradient id="paint14_linear_1353_4580" x1="102.121" y1="290.973" x2="198.205" y2="383.977" gradientUnits="userSpaceOnUse">
<stop stop-color="white"/>
<stop offset="1"/>
</linearGradient>
<linearGradient id="paint15_linear_1353_4580" x1="155.863" y1="254.683" x2="202.672" y2="302.314" gradientUnits="userSpaceOnUse">
<stop stop-color="white"/>
<stop offset="1"/>
</linearGradient>
<linearGradient id="paint16_linear_1353_4580" x1="239.946" y1="200.947" x2="250.951" y2="224.736" gradientUnits="userSpaceOnUse">
<stop stop-color="white"/>
<stop offset="1"/>
</linearGradient>
<linearGradient id="paint17_linear_1353_4580" x1="191.103" y1="252.881" x2="168.286" y2="277.16" gradientUnits="userSpaceOnUse">
<stop stop-color="white"/>
<stop offset="1"/>
</linearGradient>
<linearGradient id="paint18_linear_1353_4580" x1="303.348" y1="230.813" x2="312.571" y2="256.604" gradientUnits="userSpaceOnUse">
<stop stop-color="white"/>
<stop offset="1"/>
</linearGradient>
<linearGradient id="paint19_linear_1353_4580" x1="318.496" y1="69.4011" x2="330.593" y2="95.0476" gradientUnits="userSpaceOnUse">
<stop stop-color="white"/>
<stop offset="1"/>
</linearGradient>
<linearGradient id="paint20_linear_1353_4580" x1="322.119" y1="143.173" x2="391.797" y2="205.109" gradientUnits="userSpaceOnUse">
<stop stop-color="white"/>
<stop offset="1"/>
</linearGradient>
<linearGradient id="paint21_linear_1353_4580" x1="244.486" y1="139.14" x2="257.415" y2="158.827" gradientUnits="userSpaceOnUse">
<stop stop-color="white"/>
<stop offset="1"/>
</linearGradient>
<linearGradient id="paint22_linear_1353_4580" x1="377.53" y1="217.971" x2="385.317" y2="241.478" gradientUnits="userSpaceOnUse">
<stop stop-color="white"/>
<stop offset="1"/>
</linearGradient>
<linearGradient id="paint23_linear_1353_4580" x1="424.669" y1="102.512" x2="371.293" y2="183.834" gradientUnits="userSpaceOnUse">
<stop stop-color="white"/>
<stop offset="1"/>
</linearGradient>
<linearGradient id="paint24_linear_1353_4580" x1="422.69" y1="101.213" x2="369.315" y2="182.535" gradientUnits="userSpaceOnUse">
<stop stop-color="white"/>
<stop offset="1"/>
</linearGradient>
<linearGradient id="paint25_linear_1353_4580" x1="420.559" y1="99.815" x2="367.184" y2="181.137" gradientUnits="userSpaceOnUse">
<stop stop-color="white"/>
<stop offset="1"/>
</linearGradient>
</defs>
</svg>
