<svg width="80" height="80" viewBox="0 0 80 80" fill="none" xmlns="http://www.w3.org/2000/svg">
<path d="M71.25 27.5H69.0925C70.1621 26.5648 71.0194 25.4119 71.6071 24.1184C72.1948 22.8249 72.4992 21.4207 72.5 20C72.5 14.4863 68.0137 10 62.5 10C56.9863 10 52.5 14.4863 52.5 20C52.5008 21.4207 52.8052 22.8249 53.3929 24.1184C53.9806 25.4119 54.8379 26.5648 55.9075 27.5H53.75C48.925 27.5 45 31.4263 45 36.25V42.5H35V36.25C35 31.4263 31.075 27.5 26.25 27.5H24.0925C25.1621 26.5648 26.0194 25.4119 26.6071 24.1184C27.1948 22.8249 27.4992 21.4207 27.5 20C27.5 14.4863 23.0138 10 17.5 10C11.9862 10 7.5 14.4863 7.5 20C7.5008 21.4207 7.80524 22.8249 8.39292 24.1184C8.9806 25.4119 9.83794 26.5648 10.9075 27.5H8.75C3.925 27.5 0 31.4263 0 36.25V53.75C0 54.0815 0.131696 54.3995 0.366117 54.6339C0.600537 54.8683 0.918479 55 1.25 55H7.5V76.25C7.5 76.5815 7.6317 76.8995 7.86612 77.1339C8.10054 77.3683 8.41848 77.5 8.75 77.5H26.25C26.5815 77.5 26.8995 77.3683 27.1339 77.1339C27.3683 76.8995 27.5 76.5815 27.5 76.25V51.2175C28.5755 52.0448 29.8932 52.4954 31.25 52.5H48.75C50.1625 52.5 51.4525 52.0112 52.5 51.2175V76.25C52.5 76.5815 52.6317 76.8995 52.8661 77.1339C53.1005 77.3683 53.4185 77.5 53.75 77.5H71.25C71.5815 77.5 71.8995 77.3683 72.1339 77.1339C72.3683 76.8995 72.5 76.5815 72.5 76.25V55H78.75C79.0815 55 79.3995 54.8683 79.6339 54.6339C79.8683 54.3995 80 54.0815 80 53.75V36.25C80 31.4263 76.075 27.5 71.25 27.5ZM55 20C55 15.8637 58.3638 12.5 62.5 12.5C66.6363 12.5 70 15.8637 70 20C70 24.1362 66.6363 27.5 62.5 27.5C58.3638 27.5 55 24.1362 55 20ZM10 20C10 15.8637 13.3638 12.5 17.5 12.5C21.6362 12.5 25 15.8637 25 20C25 24.1362 21.6362 27.5 17.5 27.5C13.3638 27.5 10 24.1362 10 20ZM27.5 46.25V36.25H25V75H18.75V52.5H16.25V75H10V36.25H7.5V52.5H2.5V36.25C2.5 32.8037 5.30375 30 8.75 30H26.25C29.6963 30 32.5 32.8037 32.5 36.25V43.75C32.5 44.0815 32.6317 44.3995 32.8661 44.6339C33.1005 44.8683 33.4185 45 33.75 45H38.75V50H31.25C29.1825 50 27.5 48.3175 27.5 46.25ZM77.5 52.5H72.5V36.25H70V75H63.75V52.5H61.25V75H55V36.25H52.5V46.25C52.5 48.3175 50.8175 50 48.75 50H41.25V45H46.25C46.5815 45 46.8995 44.8683 47.1339 44.6339C47.3683 44.3995 47.5 44.0815 47.5 43.75V36.25C47.5 32.8037 50.3037 30 53.75 30H71.25C74.6963 30 77.5 32.8037 77.5 36.25V52.5Z" fill="#A193FF"/>
<path d="M53.3751 10.8847L57.1338 7.12594C57.25 7.00995 57.3422 6.8722 57.405 6.72055C57.4679 6.56891 57.5003 6.40635 57.5003 6.24219C57.5003 6.07802 57.4679 5.91546 57.405 5.76382C57.3422 5.61218 57.25 5.47442 57.1338 5.35844L53.3926 1.61719L51.625 3.38469L53.2413 5.00094H43.7413C43.5771 5.00077 43.4145 5.03304 43.2629 5.09589C43.1112 5.15874 42.9735 5.25094 42.8575 5.36719L39.9913 8.23344L37.1251 5.36719C37.0091 5.25094 36.8714 5.15874 36.7197 5.09589C36.5681 5.03304 36.4055 5.00077 36.2413 5.00094H26.7413L28.3576 3.38469L26.59 1.61719L22.8488 5.35844C22.7326 5.47442 22.6404 5.61218 22.5776 5.76382C22.5147 5.91546 22.4823 6.07802 22.4823 6.24219C22.4823 6.40635 22.5147 6.56891 22.5776 6.72055C22.6404 6.8722 22.7326 7.00995 22.8488 7.12594L26.6075 10.8847L28.3751 9.11719L26.7588 7.50094H35.7238L38.2238 10.0009L35.7238 12.5009H30.0001V15.0009H36.2413C36.5725 15.0009 36.8913 14.8697 37.1251 14.6347L39.9913 11.7684L42.8575 14.6347C43.0919 14.8691 43.4098 15.0009 43.7413 15.0009H50V12.5009H44.2588L41.7588 10.0009L44.2588 7.50094H53.2238L51.6075 9.11719L53.3751 10.8847Z" fill="#A193FF"/>
</svg>
