<svg width="100" height="100" viewBox="0 0 100 100" fill="none" xmlns="http://www.w3.org/2000/svg">
<path d="M81 44.318C81.0005 53.1096 77.8874 61.6171 72.2127 68.3319C66.538 75.0467 58.6685 79.5348 50 81C41.3315 79.5348 33.462 75.0467 27.7873 68.3319C22.1126 61.6171 18.9995 53.1096 19 44.318V23.1333C19 22.0371 19.4355 20.9858 20.2106 20.2106C20.9858 19.4355 22.0371 19 23.1333 19H76.8667C77.9629 19 79.0142 19.4355 79.7894 20.2106C80.5645 20.9858 81 22.0371 81 23.1333V44.318Z" stroke="black" stroke-width="3" stroke-linecap="round" stroke-linejoin="round"/>
<path d="M19 31H81" stroke="black" stroke-width="3" stroke-linecap="round" stroke-linejoin="round"/>
<path d="M64 44L49.4133 58.4207C49.2278 58.6043 49.0075 58.75 48.765 58.8494C48.5225 58.9488 48.2625 59 48 59C47.7375 59 47.4775 58.9488 47.235 58.8494C46.9925 58.75 46.7722 58.6043 46.5867 58.4207L42 53.8888" stroke="#20D3F6" stroke-width="3" stroke-linecap="round" stroke-linejoin="round"/>
</svg>
