<svg width="80" height="80" viewBox="0 0 80 80" fill="none" xmlns="http://www.w3.org/2000/svg">
<path d="M32.7055 29.8828H25.7644C25.0585 29.8828 24.5879 30.3534 24.5879 31.0593C24.5879 31.7652 25.0585 32.2358 25.7644 32.2358H32.7055C33.4114 32.2358 33.882 31.7652 33.882 31.0593C33.882 30.3534 33.4114 29.8828 32.7055 29.8828ZM55.2938 29.8828C54.5879 29.8828 54.1173 30.471 54.1173 31.0593C54.1173 31.6475 54.5879 32.2358 55.2938 32.2358C55.9997 32.2358 56.4702 31.6475 56.4702 31.0593C56.4702 30.471 55.9997 29.8828 55.2938 29.8828ZM50.2349 29.8828C49.6467 29.8828 49.0585 30.3534 49.0585 31.0593C49.0585 31.7652 49.6467 32.2358 50.2349 32.2358C50.9408 32.2358 51.4114 31.6475 51.4114 31.0593C51.4114 30.3534 50.8232 29.8828 50.2349 29.8828Z" fill="#A193FF"/>
<path d="M57.2942 54.8239C59.6472 54.8239 61.5295 52.9415 61.5295 50.5886V45.0592C61.5295 42.7062 59.6472 40.8239 57.2942 40.8239H51.1766V38.0003H57.2942C59.6472 38.0003 61.5295 36.118 61.5295 33.7651V28.2356C61.5295 25.8827 59.6472 24.0003 57.2942 24.0003H41.1766V16.7062C42.8236 16.2356 44.1178 14.9415 44.5884 13.2945H54.8236C55.5295 13.2945 56.0001 12.8239 56.0001 12.118C56.0001 11.4121 55.5295 10.9415 54.8236 10.9415H44.5884C44.1178 8.94152 42.2354 7.41211 40.0001 7.41211C37.7648 7.41211 36.0001 8.94152 35.4119 10.9415H25.1766C24.4707 10.9415 24.0001 11.4121 24.0001 12.118C24.0001 12.8239 24.4707 13.2945 25.1766 13.2945H35.4119C35.8825 14.9415 37.1766 16.2356 38.8236 16.7062V24.0003H22.706C20.3531 24.0003 18.4707 25.8827 18.4707 28.2356V33.7651C18.4707 36.118 20.3531 38.0003 22.706 38.0003H28.8236V40.8239H22.706C20.3531 40.8239 18.4707 42.7062 18.4707 45.0592V50.5886C18.4707 52.9415 20.3531 54.8239 22.706 54.8239H38.8236V62.2356C37.1766 62.7062 35.8825 64.0003 35.4119 65.6474H25.1766C24.4707 65.6474 24.0001 66.118 24.0001 66.8239C24.0001 67.5298 24.4707 68.0003 25.1766 68.0003H35.4119C35.8825 70.0003 37.7648 71.5298 40.0001 71.5298C42.2354 71.5298 44.0001 70.0003 44.5884 68.0003H54.8236C55.5295 68.0003 56.0001 67.5298 56.0001 66.8239C56.0001 66.118 55.5295 65.6474 54.8236 65.6474H44.5884C44.1178 64.0003 42.8236 62.7062 41.1766 62.2356V54.8239H57.2942ZM37.6472 12.118C37.6472 10.8239 38.706 9.76505 40.0001 9.76505C41.2942 9.76505 42.3531 10.8239 42.3531 12.118C42.3531 13.4121 41.2942 14.4709 40.0001 14.4709C38.706 14.4709 37.6472 13.4121 37.6472 12.118ZM42.3531 66.7062C42.3531 68.0003 41.2942 69.0592 40.0001 69.0592C38.706 69.0592 37.6472 68.0003 37.6472 66.7062C37.6472 65.4121 38.706 64.3533 40.0001 64.3533C41.2942 64.3533 42.3531 65.4121 42.3531 66.7062ZM20.8236 33.7651V28.2356C20.8236 27.1768 21.6472 26.3533 22.706 26.3533L57.2942 26.4709C58.3531 26.4709 59.1766 27.2945 59.1766 28.3533V33.8827C59.1766 34.9415 58.3531 35.7651 57.2942 35.7651L22.706 35.6474C21.6472 35.6474 20.8236 34.8239 20.8236 33.7651ZM31.1766 38.0003H48.706V40.8239H31.1766V38.0003ZM20.8236 50.5886V45.0592C20.8236 44.0003 21.6472 43.1768 22.706 43.1768L57.2942 43.2945C58.3531 43.2945 59.1766 44.118 59.1766 45.1768V50.7062C59.1766 51.7651 58.3531 52.5886 57.2942 52.5886L22.706 52.4709C21.6472 52.4709 20.8236 51.5298 20.8236 50.5886Z" fill="#A193FF"/>
<path d="M32.7055 46.5888H25.7643C25.0584 46.5888 24.5878 47.0594 24.5878 47.7653C24.5878 48.4712 25.0584 48.9417 25.7643 48.9417H32.7055C33.4114 48.9417 33.882 48.4712 33.882 47.7653C33.882 47.0594 33.4114 46.5888 32.7055 46.5888ZM54.1172 47.7653C54.1172 48.3535 54.7055 48.9417 55.2937 48.9417C55.882 48.9417 56.4702 48.3535 56.4702 47.7653C56.4702 47.177 55.9996 46.5888 55.2937 46.5888C54.5878 46.5888 54.1172 47.177 54.1172 47.7653ZM50.2349 46.5888C49.6467 46.5888 49.0584 47.0594 49.0584 47.7653C49.0584 48.4712 49.6467 48.9417 50.2349 48.9417C50.9408 48.9417 51.4114 48.3535 51.4114 47.7653C51.4114 47.177 50.8231 46.5888 50.2349 46.5888ZM68.2349 2.35352C63.0584 2.35352 58.8231 6.70646 58.8231 12.1182C58.8231 17.53 63.0584 21.8829 68.2349 21.8829C73.4114 21.8829 77.6467 17.53 77.6467 12.1182C77.6467 6.70646 73.4114 2.35352 68.2349 2.35352ZM64.2349 18.2359C64.7055 16.3535 66.3525 15.0594 68.2349 15.0594C70.1172 15.0594 71.7643 16.3535 72.2349 18.2359C71.0584 19.0594 69.7643 19.53 68.2349 19.53C66.7055 19.53 65.4114 19.0594 64.2349 18.2359ZM68.2349 12.7065C67.4114 12.7065 66.7055 12.0006 66.7055 11.0594C66.7055 10.1182 67.4114 9.41234 68.2349 9.41234C69.0584 9.41234 69.7643 10.1182 69.7643 11.0594C69.7643 12.0006 69.0584 12.7065 68.2349 12.7065ZM73.9996 16.4712C73.4114 15.177 72.4702 14.2359 71.2937 13.53C71.7643 12.8241 72.1172 12.0006 72.1172 11.177C72.1172 8.94175 70.3525 7.17705 68.2349 7.17705C66.1172 7.17705 64.3525 8.94175 64.3525 11.177C64.3525 12.1182 64.7055 12.9418 65.1761 13.53C63.9996 14.2359 63.0584 15.177 62.4702 16.4712C61.6467 15.2947 61.1761 13.7653 61.1761 12.2359C61.1761 8.11822 64.3525 4.8241 68.2349 4.8241C72.1172 4.8241 75.2937 8.11822 75.2937 12.2359C75.2937 13.7653 74.8231 15.177 73.9996 16.4712ZM11.7643 21.8829C16.9408 21.8829 21.1761 17.4123 21.1761 12.1182C21.1761 6.70646 16.9408 2.35352 11.7643 2.35352C6.58783 2.35352 2.35254 6.70646 2.35254 12.1182C2.35254 17.53 6.58783 21.8829 11.7643 21.8829ZM7.88195 18.3535C8.35254 16.4712 9.9996 15.177 11.882 15.177C13.7643 15.177 15.4114 16.4712 15.882 18.3535C14.7055 19.177 13.4114 19.6476 11.882 19.6476C10.3525 19.53 8.94077 19.0594 7.88195 18.3535ZM11.7643 12.7065C10.9408 12.7065 10.2349 12.0006 10.2349 11.0594C10.2349 10.1182 10.9408 9.52999 11.7643 9.52999C12.5878 9.52999 13.2937 10.2359 13.2937 11.177C13.2937 12.1182 12.5878 12.7065 11.7643 12.7065ZM11.7643 4.70646C15.6467 4.70646 18.8231 8.00058 18.8231 12.1182C18.8231 13.7653 18.3525 15.177 17.529 16.3535C16.9408 15.0594 15.9996 14.1182 14.8231 13.4123C15.2937 12.7065 15.6467 11.8829 15.6467 11.0594C15.6467 8.8241 13.882 7.0594 11.7643 7.0594C9.64666 7.0594 7.88195 8.8241 7.88195 11.0594C7.88195 12.0006 8.23489 12.8241 8.70548 13.4123C7.52901 14.1182 6.58783 15.0594 5.9996 16.3535C5.17607 15.177 4.70548 13.6476 4.70548 12.1182C4.70548 8.00058 7.88195 4.70646 11.7643 4.70646ZM68.2349 77.6476C73.4114 77.6476 77.6467 73.2947 77.6467 67.8829C77.6467 62.4712 73.4114 58.1182 68.2349 58.1182C63.0584 58.1182 58.8231 62.4712 58.8231 67.8829C58.7055 73.2947 63.0584 77.6476 68.2349 77.6476ZM64.2349 74.0006C64.7055 72.1182 66.3525 70.8241 68.2349 70.8241C70.1172 70.8241 71.7643 72.1182 72.2349 74.0006C71.0584 74.8241 69.7643 75.2947 68.2349 75.2947C66.7055 75.2947 65.4114 74.8241 64.2349 74.0006ZM68.2349 68.4712C67.4114 68.4712 66.7055 67.7653 66.7055 66.8241C66.7055 65.8829 67.4114 65.177 68.2349 65.177C69.0584 65.177 69.7643 65.8829 69.7643 66.8241C69.7643 67.7653 69.0584 68.4712 68.2349 68.4712ZM68.2349 60.4712C72.1172 60.4712 75.2937 63.7653 75.2937 67.8829C75.2937 69.53 74.8231 70.9417 73.9996 72.1182C73.4114 70.8241 72.4702 69.8829 71.2937 69.177C71.7643 68.4712 72.1172 67.6476 72.1172 66.8241C72.1172 64.5888 70.3525 62.8241 68.2349 62.8241C66.1172 62.8241 64.3525 64.5888 64.3525 66.8241C64.3525 67.7653 64.7055 68.5888 65.1761 69.177C63.9996 69.8829 63.0584 70.8241 62.4702 72.1182C61.6467 70.9417 61.1761 69.4123 61.1761 67.8829C61.0584 63.7653 64.2349 60.4712 68.2349 60.4712ZM11.7643 77.6476C16.9408 77.6476 21.1761 73.177 21.1761 67.8829C21.1761 62.4712 16.9408 58.1182 11.7643 58.1182C6.58783 58.1182 2.35254 62.4712 2.35254 67.8829C2.35254 73.2947 6.58783 77.6476 11.7643 77.6476ZM7.88195 74.0006C8.35254 72.1182 9.9996 70.8241 11.882 70.8241C13.7643 70.8241 15.4114 72.1182 15.882 74.0006C14.7055 74.8241 13.4114 75.2947 11.882 75.2947C10.3525 75.2947 8.94077 74.8241 7.88195 74.0006ZM11.7643 68.4712C10.9408 68.4712 10.2349 67.7653 10.2349 66.8241C10.2349 65.8829 10.9408 65.177 11.7643 65.177C12.5878 65.177 13.2937 65.8829 13.2937 66.8241C13.2937 67.7653 12.5878 68.4712 11.7643 68.4712ZM11.7643 60.4712C15.6467 60.4712 18.8231 63.7653 18.8231 67.8829C18.8231 69.53 18.3525 70.9417 17.529 72.1182C16.9408 70.8241 15.9996 69.8829 14.8231 69.177C15.2937 68.4712 15.6467 67.6476 15.6467 66.8241C15.6467 64.5888 13.882 62.8241 11.7643 62.8241C9.64666 62.8241 7.88195 64.5888 7.88195 66.8241C7.88195 67.7653 8.23489 68.5888 8.70548 69.177C7.52901 69.8829 6.58783 70.8241 5.9996 72.1182C5.17607 70.9417 4.70548 69.4123 4.70548 67.8829C4.70548 63.7653 7.88195 60.4712 11.7643 60.4712Z" fill="#A193FF"/>
</svg>
