<svg width="100" height="100" viewBox="0 0 100 100" fill="none" xmlns="http://www.w3.org/2000/svg">
<path d="M49.9998 30.2175C53.5117 30.2175 56.3586 27.3706 56.3586 23.8587C56.3586 20.3469 53.5117 17.5 49.9998 17.5C46.488 17.5 43.6411 20.3469 43.6411 23.8587C43.6411 27.3706 46.488 30.2175 49.9998 30.2175Z" stroke="#00CCF5" stroke-width="3" stroke-linecap="round" stroke-linejoin="round"/>
<path d="M62.7162 42.935C61.9833 40.12 60.3372 37.6276 58.0357 35.8486C55.7343 34.0696 52.9076 33.1045 49.9987 33.1045C47.0898 33.1045 44.2632 34.0696 41.9617 35.8486C39.6603 37.6276 38.0141 40.12 37.2812 42.935H62.7162Z" stroke="#00CCF5" stroke-width="3" stroke-linecap="round" stroke-linejoin="round"/>
<path d="M30.2152 69.7829C33.727 69.7829 36.5739 66.936 36.5739 63.4242C36.5739 59.9123 33.727 57.0654 30.2152 57.0654C26.7033 57.0654 23.8564 59.9123 23.8564 63.4242C23.8564 66.936 26.7033 69.7829 30.2152 69.7829Z" stroke="black" stroke-width="3" stroke-linecap="round" stroke-linejoin="round"/>
<path d="M42.933 82.5014C42.2001 79.6864 40.554 77.194 38.2525 75.415C35.9511 73.636 33.1244 72.6709 30.2155 72.6709C27.3066 72.6709 24.48 73.636 22.1785 75.415C19.8771 77.194 18.2309 79.6864 17.498 82.5014H42.933Z" stroke="black" stroke-width="3" stroke-linecap="round" stroke-linejoin="round"/>
<path d="M69.7806 69.7829C73.2924 69.7829 76.1393 66.936 76.1393 63.4242C76.1393 59.9123 73.2924 57.0654 69.7806 57.0654C66.2688 57.0654 63.4219 59.9123 63.4219 63.4242C63.4219 66.936 66.2688 69.7829 69.7806 69.7829Z" stroke="black" stroke-width="3" stroke-linecap="round" stroke-linejoin="round"/>
<path d="M82.4984 82.5014C81.7655 79.6864 80.1194 77.194 77.8179 75.415C75.5165 73.636 72.6898 72.6709 69.7809 72.6709C66.8721 72.6709 64.0454 73.636 61.744 75.415C59.4425 77.194 57.7963 79.6864 57.0635 82.5014H82.4984Z" stroke="black" stroke-width="3" stroke-linecap="round" stroke-linejoin="round"/>
<path d="M58.4781 69.5566C53.0399 71.7565 46.9596 71.7565 41.5215 69.5566" stroke="black" stroke-width="3" stroke-linecap="round" stroke-linejoin="round"/>
<path d="M62.7168 29.9072C66.1609 32.2488 68.8913 35.4963 70.6068 39.2913C72.3223 43.0863 72.9562 47.2814 72.4386 51.4139" stroke="black" stroke-width="3" stroke-linecap="round" stroke-linejoin="round"/>
<path d="M37.2819 29.9072C33.8377 32.2488 31.1073 35.4963 29.3919 39.2913C27.6764 43.0863 27.0425 47.2814 27.5601 51.4139" stroke="black" stroke-width="3" stroke-linecap="round" stroke-linejoin="round"/>
</svg>
