<svg width="100" height="100" viewBox="0 0 100 100" fill="none" xmlns="http://www.w3.org/2000/svg">
<path d="M37.5453 43.8503C37.8542 44.1957 38.2325 44.472 38.6555 44.6612C39.0785 44.8504 39.5366 44.9482 40 44.9482C40.4634 44.9482 40.9215 44.8504 41.3445 44.6612C41.7675 44.472 42.1459 44.1957 42.4548 43.8503L44.0431 42.0922C44.5007 41.585 45.1041 41.2319 45.7704 41.0813C46.4369 40.9308 47.1333 40.9902 47.7646 41.2514C48.3958 41.5126 48.9306 41.9628 49.2959 42.5402C49.661 43.1175 49.8383 43.7938 49.8038 44.476L49.6822 46.8446C49.6589 47.3069 49.7329 47.7688 49.8991 48.2007C50.0655 48.6326 50.3204 49.025 50.6477 49.3521C50.975 49.6794 51.3671 49.9345 51.799 50.1006C52.231 50.2671 52.693 50.341 53.1553 50.3177L55.5214 50.1961C56.2039 50.1609 56.8805 50.338 57.4581 50.7028C58.0359 51.0678 58.4866 51.6026 58.748 52.2342C59.0097 52.8655 59.0692 53.5624 58.9188 54.2289C58.7683 54.8954 58.4152 55.499 57.9077 55.9568L56.1497 57.5426C55.8059 57.853 55.531 58.2317 55.3431 58.6547C55.1551 59.0778 55.0578 59.5356 55.0578 59.9986C55.0578 60.4617 55.1551 60.9195 55.3431 61.3425C55.531 61.7656 55.8059 62.1446 56.1497 62.4547L57.9077 64.043C58.4152 64.5008 58.7683 65.1045 58.9188 65.771C59.0692 66.4377 59.0097 67.1344 58.748 67.7659C58.4866 68.3972 58.0359 68.932 57.4581 69.297C56.8805 69.6618 56.2039 69.8389 55.5214 69.8037L53.1553 69.6821C52.693 69.6588 52.231 69.7327 51.799 69.8992C51.3671 70.0654 50.975 70.3205 50.6477 70.6478C50.3204 70.9751 50.0655 71.3672 49.8991 71.7991C49.7329 72.2311 49.6589 72.6929 49.6822 73.1552L49.8038 75.5213C49.8388 76.2037 49.662 76.8804 49.2969 77.4582C48.9321 78.0361 48.3971 78.4865 47.7658 78.7482C47.1345 79.0096 46.4376 79.0694 45.7711 78.9186C45.1044 78.7682 44.501 78.415 44.0431 77.9076L42.4548 76.1495C42.1459 75.8042 41.7675 75.5279 41.3445 75.3386C40.9215 75.1494 40.4634 75.0516 40 75.0516C39.5366 75.0516 39.0785 75.1494 38.6555 75.3386C38.2325 75.5279 37.8542 75.8042 37.5453 76.1495L35.9569 77.9076C35.4992 78.415 34.8955 78.7682 34.2289 78.9186C33.5624 79.0694 32.8655 79.0096 32.2342 78.7482C31.6028 78.4865 31.0679 78.0361 30.703 77.4582C30.3382 76.8804 30.1611 76.2037 30.1963 75.5213L30.3179 73.1552C30.3411 72.6929 30.2672 72.2311 30.1009 71.7991C29.9346 71.3672 29.6796 70.9751 29.3523 70.6478C29.025 70.3205 28.6328 70.0654 28.2009 69.8992C27.769 69.7327 27.307 69.6588 26.8448 69.6821L24.4787 69.8037C23.7962 69.8389 23.1196 69.6618 22.5418 69.297C21.964 68.932 21.5134 68.3972 21.2519 67.7659C20.9903 67.1344 20.9307 66.4377 21.0812 65.771C21.2317 65.1045 21.585 64.5008 22.0924 64.043L23.8505 62.4547C24.1941 62.1446 24.4689 61.7656 24.657 61.3425C24.845 60.9195 24.9422 60.4617 24.9422 59.9986C24.9422 59.5356 24.845 59.0778 24.657 58.6547C24.4689 58.2317 24.1941 57.853 23.8505 57.5426L22.0924 55.9568C21.585 55.499 21.2317 54.8954 21.0812 54.2289C20.9307 53.5624 20.9903 52.8655 21.2519 52.2342C21.5134 51.6026 21.964 51.0678 22.5418 50.7028C23.1196 50.338 23.7962 50.1609 24.4787 50.1961L26.8448 50.3177C27.307 50.341 27.769 50.2671 28.2009 50.1006C28.6328 49.9345 29.025 49.6794 29.3523 49.3521C29.6796 49.025 29.9346 48.6326 30.1009 48.2007C30.2672 47.7688 30.3411 47.3069 30.3179 46.8446L30.1963 44.476C30.1617 43.7938 30.3391 43.1175 30.7042 42.5402C31.0694 41.9628 31.6042 41.5126 32.2354 41.2514C32.8667 40.9902 33.5633 40.9308 34.2296 41.0813C34.8959 41.2319 35.4993 41.585 35.9569 42.0922L37.5453 43.8503Z" stroke="black" stroke-width="3" stroke-linecap="round" stroke-linejoin="round"/>
<path d="M73.6536 23.8216C74.0068 23.6849 74.3917 23.6538 74.7622 23.732C75.1326 23.8102 75.4722 23.9944 75.7397 24.2621C76.0072 24.5299 76.1909 24.8696 76.2687 25.24C76.3466 25.6103 76.3151 25.9954 76.1779 26.3481L74.8767 29.6942C74.7276 30.0807 74.7047 30.5047 74.8119 30.9049C74.9189 31.3052 75.1503 31.6612 75.4727 31.9215L78.2728 34.1722C78.5674 34.4094 78.7865 34.727 78.9036 35.0864C79.021 35.4458 79.0314 35.8315 78.9336 36.1967C78.8357 36.5618 78.6338 36.8907 78.3524 37.1433C78.0711 37.396 77.7227 37.5615 77.349 37.6198L73.7994 38.1688C73.3898 38.2325 73.0111 38.4249 72.7184 38.7183C72.4253 39.0116 72.2335 39.3906 72.1703 39.8002L71.6212 43.3467C71.5634 43.7208 71.3979 44.07 71.1452 44.3518C70.8923 44.6336 70.5628 44.8357 70.1972 44.9336C69.8316 45.0315 69.4451 45.0209 69.0852 44.9032C68.7256 44.7854 68.4076 44.5656 68.1705 44.2704L65.9221 41.4733C65.6621 41.1506 65.3061 40.919 64.9056 40.8118C64.5051 40.7047 64.0812 40.7277 63.6945 40.8774L60.3452 42.1784C59.9924 42.3151 59.6072 42.3462 59.2369 42.268C58.8666 42.1898 58.527 42.0056 58.2594 41.7379C57.9919 41.4701 57.8082 41.1304 57.7301 40.76C57.6523 40.3897 57.6841 40.0047 57.821 39.6519L59.1221 36.3058C59.2715 35.9193 59.2944 35.4953 59.1872 35.0951C59.08 34.6948 58.8486 34.3389 58.5262 34.0785L55.7261 31.8304C55.432 31.5928 55.2131 31.275 55.096 30.9155C54.9789 30.556 54.9688 30.1703 55.0664 29.8051C55.1642 29.4399 55.3659 29.1109 55.647 28.858C55.928 28.6051 56.2765 28.4391 56.6499 28.3802L60.1995 27.8312C60.6091 27.7684 60.988 27.5766 61.281 27.2837C61.5741 26.9907 61.7659 26.6119 61.8286 26.2024L62.3777 22.6533C62.4357 22.2792 62.601 21.93 62.8539 21.6482C63.1068 21.3664 63.436 21.1643 63.8019 21.0664C64.1676 20.9685 64.554 20.9791 64.9137 21.0968C65.2736 21.2146 65.5913 21.4345 65.8284 21.7296L68.0794 24.5267C68.3386 24.85 68.6941 25.0823 69.0941 25.1899C69.4943 25.2975 69.9182 25.2748 70.3044 25.1252L73.6536 23.8216Z" stroke="#20D3F6" stroke-width="3" stroke-linecap="round" stroke-linejoin="round"/>
<path d="M43.4114 54H39.3314C38.7452 54.0427 38.1974 54.3485 37.8074 54.8509C37.4175 55.3533 37.2169 56.0117 37.2495 56.6827C37.2367 57.1976 37.3534 57.7061 37.5856 58.1475C37.8179 58.5891 38.1559 58.9451 38.5597 59.1733L42.6863 60.824C43.0898 61.0536 43.4275 61.4101 43.6596 61.852C43.8917 62.2936 44.0087 62.8021 43.9966 63.3173C44.0291 63.9885 43.8283 64.6475 43.4378 65.1499C43.0473 65.6525 42.499 65.9581 41.9123 66H37" stroke="black" stroke-width="3" stroke-linecap="round" stroke-linejoin="round"/>
<path d="M41 54V51" stroke="black" stroke-width="3" stroke-linecap="round" stroke-linejoin="round"/>
<path d="M41 69V66" stroke="black" stroke-width="3" stroke-linecap="round" stroke-linejoin="round"/>
<circle cx="67" cy="33" r="2" fill="black"/>
</svg>
