<svg width="100" height="100" viewBox="0 0 100 100" fill="none" xmlns="http://www.w3.org/2000/svg">
<path d="M73.3672 27.8809C79.717 27.8809 84.8672 24.9721 84.8672 21.3809C84.8672 17.7896 79.717 14.8809 73.3672 14.8809C67.0142 14.8809 61.8672 17.7896 61.8672 21.3809C61.8672 24.9721 67.0142 27.8809 73.3672 27.8809Z" stroke="#00CCF5" stroke-width="3" stroke-miterlimit="10" stroke-linecap="round" stroke-linejoin="round"/>
<path d="M61.8672 21.8809V40.3874C61.8672 43.9588 66.8402 46.8809 73.3672 46.8809C79.8942 46.8809 84.8672 43.9588 84.8672 40.3874V21.8809" stroke="#00CCF5" stroke-width="3" stroke-miterlimit="10" stroke-linecap="round" stroke-linejoin="round"/>
<path d="M61.8672 29.8809C61.8672 33.7309 66.8402 36.8809 73.3672 36.8809C79.8942 36.8809 84.8672 33.7309 84.8672 29.8809" stroke="#00CCF5" stroke-width="3" stroke-miterlimit="10" stroke-linecap="round" stroke-linejoin="round"/>
<path d="M23.8672 35.8809H14.8672V70.8809H23.8672V35.8809Z" stroke="black" stroke-width="3" stroke-miterlimit="10" stroke-linecap="round" stroke-linejoin="round"/>
<path d="M42.8672 48.8809H33.8672V70.8809H42.8672V48.8809Z" stroke="black" stroke-width="3" stroke-miterlimit="10" stroke-linecap="round" stroke-linejoin="round"/>
<path d="M61.8672 58.8809H51.8672V70.8809H61.8672V58.8809Z" stroke="black" stroke-width="3" stroke-miterlimit="10" stroke-linecap="round" stroke-linejoin="round"/>
<path d="M14.8672 84.8809C19.5121 84.8809 24.1601 84.8809 28.805 79.8809C33.4499 84.8809 38.0979 84.8809 39.3361 84.8809C40.5743 84.8809 45.2223 84.8809 49.8672 79.8809C54.5121 84.8809 59.1601 84.8809 60.3983 84.8809C61.6365 84.8809 66.2814 84.8809 70.9294 79.8809C75.5743 84.8809 80.2223 84.8809 84.8672 84.8809" stroke="black" stroke-width="3" stroke-miterlimit="10" stroke-linecap="round" stroke-linejoin="round"/>
</svg>
