<svg width="100" height="100" viewBox="0 0 100 100" fill="none" xmlns="http://www.w3.org/2000/svg">
<path d="M24.0859 75L32.1193 70.625M75.9318 75L67.8984 70.625" stroke="black" stroke-width="3" stroke-linecap="round" stroke-linejoin="round"/>
<path d="M50.0078 29.583V39.6622" stroke="black" stroke-width="3" stroke-linecap="round" stroke-linejoin="round"/>
<path d="M41.6839 15.9999L49.9964 11.4707L58.313 15.9915L58.3089 15.9999V25.054L49.9964 29.5832L41.6839 25.0582V16.004L41.6797 15.9957L41.6839 15.9999Z" stroke="black" stroke-width="3" stroke-linecap="round" stroke-linejoin="round"/>
<path d="M7.86719 74.942L16.1839 70.417L24.5005 74.942L24.4964 74.9462V84.0045L16.1839 88.5253L7.87135 84.0045V74.9503L7.86719 74.942Z" stroke="black" stroke-width="3" stroke-linecap="round" stroke-linejoin="round"/>
<path d="M75.5 74.942L83.8167 70.417L92.1333 74.942V84.0045L83.8167 88.5253L75.5042 84.0045L75.5 74.942Z" stroke="black" stroke-width="3" stroke-linecap="round" stroke-linejoin="round"/>
<path d="M31.5 49.7249L50 39.6582L68.5042 49.7207" stroke="#00CCF5" stroke-width="3" stroke-linecap="round" stroke-linejoin="round"/>
<path d="M50.0073 79.9454L31.5156 69.8829V49.7246L50.0031 59.7871V79.9454H50.0073Z" stroke="#00CCF5" stroke-width="3" stroke-linejoin="round"/>
<path d="M50.0078 79.9454L68.4995 69.8829V49.7246L50.0078 59.7871V79.9454Z" stroke="#00CCF5" stroke-width="3" stroke-linejoin="round"/>
</svg>
