<svg width="69" height="68" viewBox="0 0 69 68" fill="none" xmlns="http://www.w3.org/2000/svg">
<path d="M35.0001 14.2175C38.5119 14.2175 41.3588 11.3706 41.3588 7.85873C41.3588 4.3469 38.5119 1.5 35.0001 1.5C31.4883 1.5 28.6414 4.3469 28.6414 7.85873C28.6414 11.3706 31.4883 14.2175 35.0001 14.2175Z" stroke="#00CCF5" stroke-width="3" stroke-linecap="round" stroke-linejoin="round"/>
<path d="M47.7164 26.9355C46.9836 24.1204 45.3374 21.6281 43.0359 19.8491C40.7345 18.0701 37.9078 17.105 34.999 17.105C32.0901 17.105 29.2634 18.0701 26.962 19.8491C24.6605 21.6281 23.0144 24.1204 22.2815 26.9355H47.7164Z" stroke="#00CCF5" stroke-width="3" stroke-linecap="round" stroke-linejoin="round"/>
<path d="M15.2162 53.7829C18.728 53.7829 21.5749 50.936 21.5749 47.4242C21.5749 43.9123 18.728 41.0654 15.2162 41.0654C11.7043 41.0654 8.85742 43.9123 8.85742 47.4242C8.85742 50.936 11.7043 53.7829 15.2162 53.7829Z" stroke="black" stroke-width="3" stroke-linecap="round" stroke-linejoin="round"/>
<path d="M27.9337 66.5009C27.2008 63.6859 25.5547 61.1935 23.2532 59.4145C20.9518 57.6355 18.1251 56.6704 15.2162 56.6704C12.3074 56.6704 9.48071 57.6355 7.17926 59.4145C4.87781 61.1935 3.23165 63.6859 2.49878 66.5009H27.9337Z" stroke="black" stroke-width="3" stroke-linecap="round" stroke-linejoin="round"/>
<path d="M54.7817 53.7829C58.2935 53.7829 61.1404 50.936 61.1404 47.4242C61.1404 43.9123 58.2935 41.0654 54.7817 41.0654C51.2699 41.0654 48.423 43.9123 48.423 47.4242C48.423 50.936 51.2699 53.7829 54.7817 53.7829Z" stroke="black" stroke-width="3" stroke-linecap="round" stroke-linejoin="round"/>
<path d="M67.4997 66.5009C66.7668 63.6859 65.1207 61.1935 62.8192 59.4145C60.5178 57.6355 57.6911 56.6704 54.7822 56.6704C51.8734 56.6704 49.0467 57.6355 46.7452 59.4145C44.4438 61.1935 42.7976 63.6859 42.0648 66.5009H67.4997Z" stroke="black" stroke-width="3" stroke-linecap="round" stroke-linejoin="round"/>
<path d="M43.4786 53.5566C38.0405 55.7565 31.9602 55.7565 26.522 53.5566" stroke="black" stroke-width="3" stroke-linecap="round" stroke-linejoin="round"/>
<path d="M47.7173 13.9072C51.1614 16.2488 53.8918 19.4963 55.6073 23.2913C57.3228 27.0863 57.9567 31.2814 57.4391 35.4139" stroke="black" stroke-width="3" stroke-linecap="round" stroke-linejoin="round"/>
<path d="M22.2823 13.9072C18.8382 16.2488 16.1078 19.4963 14.3923 23.2913C12.6768 27.0863 12.0429 31.2814 12.5605 35.4139" stroke="black" stroke-width="3" stroke-linecap="round" stroke-linejoin="round"/>
</svg>
