<svg width="62" height="58" viewBox="0 0 62 58" fill="none" xmlns="http://www.w3.org/2000/svg">
<path d="M44.7498 1.5L38.857 21.1429H23.1427L19.2141 9.35714H42.3927" stroke="#00CCF5" stroke-width="3" stroke-linecap="round" stroke-linejoin="round"/>
<path d="M24.1245 29.0004C23.582 29.0004 23.1423 28.5607 23.1423 28.0183C23.1423 27.4759 23.582 27.0361 24.1245 27.0361" stroke="#00CCF5" stroke-width="3"/>
<path d="M24.125 29.0004C24.6674 29.0004 25.1071 28.5607 25.1071 28.0183C25.1071 27.4759 24.6674 27.0361 24.125 27.0361" stroke="#00CCF5" stroke-width="3"/>
<path d="M37.8745 29.0004C37.3321 29.0004 36.8923 28.5607 36.8923 28.0183C36.8923 27.4759 37.3321 27.0361 37.8745 27.0361" stroke="#00CCF5" stroke-width="3"/>
<path d="M37.875 29.0004C38.4174 29.0004 38.8571 28.5607 38.8571 28.0183C38.8571 27.4759 38.4174 27.0361 37.875 27.0361" stroke="#00CCF5" stroke-width="3"/>
<path d="M51.4569 6.57847C51.8217 6.94346 52.1108 7.37671 52.308 7.8535C52.5055 8.3303 52.6069 8.84128 52.6066 9.35728V32.9287C52.6066 33.9706 52.1928 34.97 51.4561 35.7067C50.7193 36.4435 49.7199 36.8573 48.678 36.8573H13.3209C12.279 36.8573 11.2797 36.4435 10.543 35.7067C9.80625 34.97 9.39233 33.9706 9.39233 32.9287V9.35728C9.39233 8.31537 9.80625 7.3161 10.543 6.57936C11.2797 5.84263 12.279 5.42871 13.3209 5.42871" stroke="black" stroke-width="3" stroke-linecap="round" stroke-linejoin="round"/>
<path d="M56.5302 56.5003H5.46929C4.79949 56.5005 4.14078 56.3295 3.55571 56.0034C2.97064 55.6774 2.47862 55.207 2.12645 54.6374C1.77427 54.0677 1.57361 53.4174 1.54352 52.7482C1.51343 52.0791 1.65492 51.4133 1.95454 50.8143L6.7631 41.1998C7.41574 39.895 8.41878 38.7976 9.65987 38.0308C10.901 37.2636 12.3311 36.8574 13.79 36.8574H48.2095C49.6686 36.8574 51.0986 37.2636 52.3397 38.0308C53.5806 38.7976 54.5837 39.895 55.2364 41.1998L60.045 50.8143C60.3446 51.4133 60.486 52.0791 60.4559 52.7482C60.426 53.4174 60.2252 54.0677 59.8732 54.6374C59.5209 55.207 59.029 55.6774 58.444 56.0034C57.8589 56.3295 57.2002 56.5005 56.5302 56.5003Z" stroke="black" stroke-width="3" stroke-linecap="round" stroke-linejoin="round"/>
<path d="M27.072 48.6426H34.9292" stroke="black" stroke-width="3" stroke-linecap="round" stroke-linejoin="round"/>
</svg>
