<svg width="110" height="110" viewBox="0 0 110 110" fill="none" xmlns="http://www.w3.org/2000/svg">
<path d="M62.1666 58L63.1666 106.667" stroke="#796EF5" stroke-width="3" stroke-miterlimit="10" stroke-linecap="round" stroke-linejoin="round"/>
<path d="M46.8334 106.667L47.8334 58" stroke="#796EF5" stroke-width="3" stroke-miterlimit="10" stroke-linecap="round" stroke-linejoin="round"/>
<path d="M47.8334 63.8333H62.3334" stroke="#796EF5" stroke-width="3" stroke-miterlimit="10" stroke-linecap="round" stroke-linejoin="round"/>
<path d="M47.6666 74.6667H62.5" stroke="#796EF5" stroke-width="3" stroke-miterlimit="10" stroke-linecap="round" stroke-linejoin="round"/>
<path d="M47.3334 86H62.8334" stroke="#796EF5" stroke-width="3" stroke-miterlimit="10" stroke-linecap="round" stroke-linejoin="round"/>
<path d="M47.1666 98.1667H63" stroke="#796EF5" stroke-width="3" stroke-miterlimit="10" stroke-linecap="round" stroke-linejoin="round"/>
<path d="M70.3334 69.8333L78.1667 62L92.8334 76.5" stroke="#796EF5" stroke-width="3" stroke-miterlimit="10" stroke-linecap="round" stroke-linejoin="round"/>
<path d="M39.6666 69.8333L31.8333 62L17.1666 76.5" stroke="#796EF5" stroke-width="3" stroke-miterlimit="10" stroke-linecap="round" stroke-linejoin="round"/>
<path d="M66.3334 42.8333L72.1667 37L82.8334 47.8333" stroke="#796EF5" stroke-width="3" stroke-miterlimit="10" stroke-linecap="round" stroke-linejoin="round"/>
<path d="M79.5 51.9998L89.8333 41.6665L105.667 57.4998" stroke="#796EF5" stroke-width="3" stroke-miterlimit="10" stroke-linecap="round" stroke-linejoin="round"/>
<path d="M43.6668 42.8333L37.8334 37L27.1667 47.8333" stroke="#796EF5" stroke-width="3" stroke-miterlimit="10" stroke-linecap="round" stroke-linejoin="round"/>
<path d="M30.5 51.9998L20.1667 41.6665L4.33337 57.4998" stroke="#796EF5" stroke-width="3" stroke-miterlimit="10" stroke-linecap="round" stroke-linejoin="round"/>
<path d="M70.8334 47.6667L55.0001 31L39.1667 47.6667" stroke="#796EF5" stroke-width="3" stroke-miterlimit="10" stroke-linecap="round" stroke-linejoin="round"/>
<path d="M55 31V9" stroke="#796EF5" stroke-width="3" stroke-miterlimit="10" stroke-linecap="round" stroke-linejoin="round"/>
<path d="M70.1667 14.4999H55V3.33325H70.1667L65.8333 8.99992L70.1667 14.4999Z" stroke="#796EF5" stroke-width="3" stroke-miterlimit="10" stroke-linecap="round" stroke-linejoin="round"/>
</svg>
