<svg width="95" height="95" viewBox="0 0 95 95" fill="none" xmlns="http://www.w3.org/2000/svg">
<g clip-path="url(#clip0_1304_435)">
<path d="M63.9044 19.1336C52.2752 19.1336 42.8144 28.5945 42.8144 40.2236C42.8144 45.6869 44.4704 48.517 46.2234 51.513C48.0995 54.7191 50.2251 58.3529 50.7135 66.56V69.6976C50.7135 71.7933 52.1012 73.5708 54.0058 74.1601V76.0694C54.0058 78.1559 55.3815 79.9269 57.2733 80.524V82.4415C57.2733 85.0167 59.3683 87.1117 61.9435 87.1117H66.0781C68.6533 87.1117 70.7483 85.0165 70.7483 82.4415V80.524C72.6399 79.9269 74.0154 78.1559 74.0154 76.0694V74.0885C75.8096 73.4365 77.0949 71.7145 77.0949 69.6976V66.5627C77.5829 58.3536 79.7089 54.7195 81.585 51.513C83.338 48.517 84.994 45.6869 84.994 40.2236C84.9942 28.5945 75.5333 19.1336 63.9044 19.1336ZM66.0783 84.1431H61.9437C61.0054 84.1431 60.2422 83.3798 60.2422 82.4417V80.7398H67.7797V82.4417C67.7797 83.3798 67.0166 84.1431 66.0783 84.1431ZM69.3455 77.7711H58.6764C57.7379 77.7711 56.9746 77.0077 56.9746 76.0696V74.368H71.0468V76.0696C71.0468 77.0077 70.2837 77.7711 69.3455 77.7711ZM72.4251 71.399H55.3837C54.4454 71.399 53.6822 70.6357 53.6822 69.6976V67.9957H74.1264V69.6976C74.1264 70.6357 73.3632 71.399 72.4251 71.399ZM59.0343 43.4393H55.9628C54.2691 43.4393 52.8913 42.0615 52.8913 40.3678C52.8913 38.6741 54.2691 37.2963 55.9628 37.2963C57.6565 37.2963 59.0343 38.6741 59.0343 40.3678V43.4393ZM65.8057 65.027H62.0031V46.4081H65.8057V65.027ZM79.0229 50.0138C77.0854 53.3253 74.903 57.055 74.229 65.027H68.7746V46.4081H71.8462C75.1769 46.4081 77.8866 43.6984 77.8866 40.3678C77.8866 37.0372 75.1769 34.3275 71.8462 34.3275C68.5156 34.3275 65.8059 37.0372 65.8059 40.3678V43.4393H62.0033V40.3678C62.0033 37.0372 59.2935 34.3275 55.963 34.3275C52.6324 34.3275 49.9227 37.0372 49.9227 40.3678C49.9227 43.6984 52.6324 46.4081 55.963 46.4081H59.0345V65.027H53.5802C52.9059 57.055 50.7237 53.3253 48.786 50.0136C47.1085 47.1466 45.7833 44.8821 45.7833 40.2234C45.7833 30.2314 53.9125 22.1022 63.9046 22.1022C73.8966 22.1022 82.0256 30.2314 82.0256 40.2234C82.0255 44.8821 80.7005 47.1467 79.0229 50.0138ZM68.7744 43.4393V40.3678C68.7744 38.6741 70.1523 37.2963 71.846 37.2963C73.5396 37.2963 74.9177 38.6741 74.9177 40.3678C74.9177 42.0615 73.5396 43.4393 71.846 43.4393H68.7744ZM22.6254 52.1502C15.8233 52.1502 10.2893 57.6841 10.2893 64.4863C10.2893 71.2884 15.8233 76.8224 22.6254 76.8224C29.4277 76.8224 34.9617 71.2884 34.9617 64.4863C34.9617 57.6841 29.4279 52.1502 22.6254 52.1502ZM22.6254 73.8536C17.4601 73.8536 13.2581 69.6515 13.2581 64.4863C13.2581 59.321 17.4601 55.119 22.6254 55.119C27.7907 55.119 31.9929 59.321 31.9929 64.4863C31.9929 69.6515 27.7907 73.8536 22.6254 73.8536ZM44.3001 60.2399L41.5091 59.1655C41.0906 57.6778 40.4967 56.2451 39.7399 54.8976L40.9545 52.1626C41.0762 51.8885 41.1121 51.5839 41.0573 51.289C41.0025 50.994 40.8597 50.7226 40.6476 50.5105L36.6013 46.4643C36.3892 46.2522 36.1179 46.1093 35.8229 46.0545C35.528 45.9997 35.2234 46.0355 34.9492 46.1572L32.2132 47.3724C30.8661 46.6157 29.4339 46.022 27.9467 45.6036L26.872 42.8116C26.7642 42.5317 26.5742 42.291 26.3269 42.1212C26.0796 41.9514 25.7867 41.8605 25.4867 41.8605H19.7646C19.4647 41.8605 19.1717 41.9514 18.9244 42.1212C18.6772 42.291 18.4871 42.5317 18.3793 42.8116L17.3047 45.6036C15.8174 46.0219 14.3852 46.6157 13.0382 47.3724L10.3021 46.1572C10.028 46.0355 9.72335 45.9997 9.42843 46.0545C9.1335 46.1093 8.86211 46.2522 8.65001 46.4643L4.60379 50.5107C4.39169 50.7228 4.24884 50.9942 4.19406 51.2892C4.13927 51.5841 4.17513 51.8887 4.29689 52.1628L5.51186 54.8983C4.75501 56.2455 4.16117 57.6779 3.74285 59.1654L0.951299 60.2399C0.671322 60.3476 0.430559 60.5376 0.260738 60.7849C0.0909182 61.0322 1.18406e-05 61.3252 0 61.6252L0 67.3474C-2.59142e-06 67.6474 0.0908765 67.9403 0.260662 68.1876C0.430447 68.4349 0.671171 68.625 0.951113 68.7327L3.74211 69.807C4.16052 71.2948 4.75442 72.7275 5.5113 74.075L4.29671 76.8099C4.17496 77.0841 4.13914 77.3887 4.19396 77.6836C4.24878 77.9786 4.39166 78.2499 4.60379 78.4621L8.6502 82.5083C8.86224 82.7204 9.1336 82.8633 9.4285 82.9182C9.72341 82.973 10.028 82.9371 10.3021 82.8154L13.038 81.6002C14.385 82.3569 15.8172 82.9507 17.3045 83.3692L18.3792 86.1609C18.4869 86.4409 18.6769 86.6817 18.9242 86.8515C19.1715 87.0213 19.4645 87.1121 19.7645 87.1121H25.4867C25.7867 87.1121 26.0796 87.0212 26.3269 86.8514C26.5742 86.6816 26.7642 86.4409 26.872 86.1609L27.9463 83.3699C29.4341 82.9516 30.8667 82.3577 32.2141 81.6008L34.9491 82.8154C35.2232 82.937 35.5278 82.9727 35.8227 82.9179C36.1176 82.8631 36.389 82.7203 36.6012 82.5083L40.6474 78.4621C40.8595 78.2499 41.0023 77.9785 41.0571 77.6836C41.1119 77.3887 41.076 77.0841 40.9543 76.8099L39.7391 74.0739C40.4958 72.7269 41.0896 71.2947 41.5079 69.8074L44.2999 68.7327C44.5798 68.625 44.8205 68.4349 44.9903 68.1876C45.1601 67.9403 45.251 67.6474 45.251 67.3474V61.6252C45.2511 61.3252 45.1603 61.0322 44.9905 60.7849C44.8207 60.5376 44.58 60.3476 44.3001 60.2399ZM42.2824 66.3282L39.73 67.3107C39.505 67.3973 39.3045 67.5374 39.1458 67.7189C38.9872 67.9004 38.8751 68.1178 38.8194 68.3523C38.4117 70.0653 37.7331 71.7021 36.8092 73.2011C36.6828 73.4064 36.6083 73.6394 36.5922 73.8799C36.5761 74.1205 36.6187 74.3614 36.7166 74.5817L37.8274 77.0833L35.2227 79.6881L32.7219 78.5776C32.5015 78.4798 32.2606 78.4371 32.02 78.4533C31.7795 78.4695 31.5464 78.544 31.3411 78.6704C29.842 79.5948 28.2047 80.2735 26.4913 80.6808C26.2567 80.7366 26.0393 80.8487 25.8578 81.0074C25.6763 81.1661 25.5362 81.3666 25.4496 81.5917L24.4675 84.1431H20.7837L19.8012 81.5909C19.7146 81.3659 19.5745 81.1654 19.393 81.0067C19.2115 80.848 18.9941 80.7359 18.7595 80.6801C17.0466 80.2723 15.4098 79.5937 13.9108 78.6699C13.7055 78.5435 13.4725 78.469 13.2319 78.4529C12.9914 78.4368 12.7505 78.4795 12.5302 78.5773L10.0286 79.6883L7.42373 77.0833L8.53423 74.5826C8.63207 74.3622 8.67476 74.1213 8.65859 73.8807C8.64243 73.6402 8.5679 73.4071 8.44145 73.2018C7.51719 71.7026 6.83843 70.0652 6.43087 68.3518C6.37513 68.1172 6.26308 67.8998 6.1044 67.7183C5.94572 67.5368 5.74521 67.3967 5.52021 67.3101L2.96875 66.3282V62.6444L5.52076 61.6621C5.74576 61.5755 5.94629 61.4354 6.10499 61.2539C6.26369 61.0724 6.3758 60.855 6.43161 60.6204C6.83901 58.9074 7.51758 57.2704 8.44164 55.7715C8.5681 55.5662 8.64264 55.3332 8.6588 55.0926C8.67496 54.852 8.63227 54.6111 8.53441 54.3907L7.42373 51.8895L10.0284 49.2844L12.5302 50.3955C12.7505 50.4933 12.9914 50.536 13.232 50.5198C13.4725 50.5037 13.7055 50.4291 13.9108 50.3027C15.4097 49.3788 17.0466 48.7002 18.7595 48.2925C18.994 48.2367 19.2114 48.1245 19.3929 47.9658C19.5743 47.8071 19.7144 47.6066 19.801 47.3816L20.7835 44.8295H24.4673L25.4498 47.3816C25.5364 47.6066 25.6765 47.8071 25.8579 47.9658C26.0394 48.1245 26.2568 48.2366 26.4913 48.2925C28.2042 48.7002 29.841 49.3788 31.34 50.3027C31.5453 50.4291 31.7783 50.5036 32.0188 50.5198C32.2594 50.5359 32.5003 50.4933 32.7206 50.3955L35.2224 49.2844L37.8271 51.8893L36.7166 54.3899C36.6187 54.6103 36.576 54.8512 36.5922 55.0918C36.6084 55.3324 36.6829 55.5655 36.8093 55.7708C37.7336 57.27 38.4123 58.9072 38.8199 60.6206C38.8757 60.8552 38.9877 61.0726 39.1464 61.2541C39.3051 61.4356 39.5056 61.5757 39.7306 61.6623L42.2821 62.6444V66.3282H42.2824ZM62.42 13.9906V9.37256C62.42 8.97888 62.5764 8.60132 62.8548 8.32295C63.1331 8.04457 63.5107 7.88818 63.9044 7.88818C64.2981 7.88818 64.6756 8.04457 64.954 8.32295C65.2324 8.60132 65.3888 8.97888 65.3888 9.37256V13.9906C65.3888 14.3843 65.2324 14.7619 64.954 15.0402C64.6756 15.3186 64.2981 15.475 63.9044 15.475C63.5107 15.475 63.1331 15.3186 62.8548 15.0402C62.5764 14.7619 62.42 14.3843 62.42 13.9906ZM45.523 14.6957C45.3293 14.355 45.2782 13.9514 45.3809 13.5731C45.4836 13.1949 45.7317 12.8725 46.0712 12.6766C46.4106 12.4806 46.8138 12.4268 47.1928 12.527C47.5718 12.6272 47.8957 12.8732 48.0939 13.2113L50.4029 17.2106C50.5331 17.4362 50.6018 17.692 50.6019 17.9525C50.6019 18.2129 50.5335 18.4688 50.4034 18.6945C50.2733 18.9201 50.0861 19.1075 49.8606 19.2379C49.6352 19.3683 49.3794 19.4371 49.1189 19.4374C48.8581 19.4377 48.6018 19.3692 48.3758 19.2389C48.1499 19.1085 47.9623 18.9209 47.8319 18.695L45.523 14.6957ZM33.0079 25.7263C33.1053 25.5574 33.235 25.4095 33.3897 25.2908C33.5443 25.1721 33.7208 25.085 33.9091 25.0346C34.0974 24.9841 34.2938 24.9713 34.4871 24.9967C34.6804 25.0222 34.8667 25.0855 35.0355 25.183L39.035 27.4921C39.3181 27.6556 39.5394 27.9079 39.6645 28.2099C39.7896 28.512 39.8114 28.8469 39.7267 29.1627C39.6419 29.4784 39.4552 29.7574 39.1957 29.9562C38.9362 30.155 38.6182 30.2626 38.2913 30.2622C38.0312 30.2621 37.7757 30.1935 37.5506 30.0631L33.5511 27.7539C33.3823 27.6565 33.2343 27.5268 33.1156 27.3721C32.9969 27.2175 32.9099 27.041 32.8594 26.8527C32.809 26.6644 32.7961 26.468 32.8216 26.2747C32.8471 26.0814 32.9104 25.8951 33.0079 25.7263ZM77.4061 17.2106L79.715 13.2112C79.8125 13.0423 79.9422 12.8943 80.0968 12.7756C80.2515 12.6569 80.428 12.5699 80.6163 12.5194C80.8046 12.469 81.001 12.4561 81.1943 12.4816C81.3875 12.5071 81.5739 12.5704 81.7427 12.6679C82.0836 12.8647 82.3324 13.1889 82.4342 13.5692C82.5361 13.9494 82.4828 14.3546 82.286 14.6955L79.977 18.695C79.8796 18.8639 79.7499 19.0119 79.5952 19.1306C79.4406 19.2493 79.2641 19.3363 79.0758 19.3868C78.8875 19.4372 78.691 19.4501 78.4978 19.4246C78.3045 19.3991 78.1181 19.3358 77.9494 19.2383C77.7805 19.1408 77.6325 19.0111 77.5138 18.8565C77.3951 18.7018 77.3081 18.5253 77.2576 18.337C77.2072 18.1487 77.1943 17.9523 77.2198 17.759C77.2453 17.5658 77.3086 17.3794 77.4061 17.2106ZM94.2578 27.7543L90.2584 30.0633C90.0896 30.1608 89.9032 30.2241 89.7099 30.2496C89.5167 30.2751 89.3203 30.2622 89.132 30.2118C88.9436 30.1613 88.7671 30.0743 88.6125 29.9556C88.4578 29.8369 88.3281 29.6888 88.2307 29.52C88.0339 29.1791 87.9805 28.7739 88.0824 28.3936C88.1843 28.0134 88.4331 27.6892 88.774 27.4923L92.7734 25.1832C93.1144 24.9864 93.5196 24.933 93.8998 25.0349C94.2801 25.1368 94.6043 25.3856 94.8012 25.7266C94.998 26.0675 95.0514 26.4727 94.9495 26.853C94.8476 27.2333 94.5988 27.5575 94.2578 27.7543Z" fill="#7764F0"/>
</g>
<defs>
<clipPath id="clip0_1304_435">
<rect width="95" height="95" fill="white"/>
</clipPath>
</defs>
</svg>
