<svg width="80" height="80" viewBox="0 0 80 80" fill="none" xmlns="http://www.w3.org/2000/svg">
<path d="M67.8125 78.625C65.25 78.625 62.8125 77.625 61 75.8125L37.75 52.5625C27.1875 57.25 15 54.6875 7.1875 46.0625C-1.81249 36.125 -1.93749 20.5 6.9375 10.4375C11.875 4.87502 18.6875 1.62502 26.125 1.37502C33.4375 1.18752 40.6875 4.00002 45.875 9.18752C53.6875 17 55.875 28.8125 51.4375 38.875L74.6875 62.125C78.4375 65.875 78.4375 72 74.6875 75.8125C72.8125 77.625 70.375 78.625 67.8125 78.625ZM38 49.8125C38.3125 49.8125 38.625 49.9375 38.875 50.1875L62.6875 74C64.0625 75.375 65.8125 76.125 67.75 76.125C69.6875 76.125 71.4375 75.375 72.8125 74C75.625 71.1875 75.625 66.6875 72.8125 63.875L49.0625 40.0625C48.6875 39.6875 48.5625 39.125 48.8125 38.625C53.25 29.375 51.375 18.25 44.125 11C39.3125 6.18752 32.9375 3.68752 26.1875 3.87502C19.4375 4.06252 13.25 7.00002 8.75 12.0625C0.750005 21.1875 0.875005 35.375 9 44.375C16.3125 52.375 27.75 54.625 37.5 49.9375C37.625 49.875 37.8125 49.8125 38 49.8125Z" fill="#7764F0"/>
<path d="M27 39.875C24 39.875 21 38.75 18.6875 36.4375C14.125 31.875 14.125 24.375 18.6875 19.8125C23.25 15.25 30.75 15.25 35.3125 19.8125C39.875 24.375 39.875 31.875 35.3125 36.4375C33 38.75 30 39.875 27 39.875ZM19.5625 35.5625C23.6875 39.6875 30.3125 39.6875 34.4375 35.5625C38.5625 31.4375 38.5625 24.8125 34.4375 20.6875C30.3125 16.5625 23.6875 16.5625 19.5625 20.6875C15.4375 24.75 15.4375 31.4375 19.5625 35.5625ZM73.5 63.9375C73.1875 63.9375 72.875 63.8125 72.625 63.5625L66.25 57.25C65.75 56.75 65.75 56 66.25 55.5L69.875 51.875C70.9375 50.8125 72.375 50.1875 73.9375 50.1875C75.5 50.1875 76.9375 50.8125 78 51.875C80.25 54.125 80.25 57.75 78 60L74.375 63.625C74.125 63.8125 73.8125 63.9375 73.5 63.9375ZM68.875 56.375L73.4375 60.9375L76.1875 58.1875C77.4375 56.9375 77.4375 54.875 76.1875 53.625C75.5625 53 74.75 52.6875 73.875 52.6875C73 52.6875 72.1875 53 71.5625 53.625L68.875 56.375ZM62.6875 53.1875C62.375 53.1875 62.0625 53.0625 61.8125 52.8125L55.4375 46.4375C54.9375 45.9375 54.9375 45.1875 55.4375 44.6875L59.0625 41.0625C60.125 40 61.5625 39.375 63.125 39.375C64.6875 39.375 66.125 40 67.1875 41.0625C68.25 42.125 68.875 43.5625 68.875 45.125C68.875 46.6875 68.25 48.125 67.1875 49.1875L63.5625 52.8125C63.3125 53.0625 63 53.1875 62.6875 53.1875ZM58.0625 45.5625L62.625 50.125L65.375 47.375C66 46.75 66.3125 45.9375 66.3125 45.0625C66.3125 44.1875 66 43.375 65.375 42.75C64.75 42.125 63.9375 41.8125 63.0625 41.8125C62.1875 41.8125 61.375 42.125 60.75 42.75L58.0625 45.5625Z" fill="#7764F0"/>
</svg>
