<svg width="83" height="83" viewBox="0 0 83 83" fill="none" xmlns="http://www.w3.org/2000/svg">
<path d="M71.8209 16.8594L61.4459 6.48438H21.5152L11.1402 16.8594L41.5 49.9037L71.8209 16.8594ZM41.5 18.1562H50.0723L41.5 43.8862L32.9277 18.1562H41.5ZM34.5747 15.5625L41.5 9.50609L48.4253 15.5625H34.5747ZM52.8088 18.1562H67.0744L44.6514 42.6283L52.8088 18.1562ZM55.0005 15.5625L60.9531 9.60984L66.9058 15.5625H55.0005ZM51.875 15.0827L44.9497 9.07812H57.8277L51.875 15.0827ZM31.2547 15.0827L25.1723 9.07812H38.0503L31.2547 15.0827ZM27.9995 15.5625H16.0942L22.0469 9.60984L27.9995 15.5625ZM30.1913 18.1562L38.3486 42.6283L15.9127 18.1562H30.1913ZM72.625 59.0986C70.6538 57.1533 67.1522 57.1403 66.7761 57.1533L46.6875 57.0625C46.5755 55.3148 45.8444 53.6642 44.6255 52.4067C43.4348 51.2612 41.8551 50.608 40.2031 50.5781H25.9375C24.3508 50.5386 22.7768 50.8697 21.3404 51.5451C19.9041 52.2205 18.6451 53.2216 17.6634 54.4688H9.07812V76.5156H37.9077C55.3636 76.5156 73.9219 71.5097 73.9219 62.25C73.93 61.6643 73.8193 61.0831 73.5964 60.5414C73.3735 59.9997 73.043 59.5089 72.625 59.0986ZM11.6719 73.9219V57.0625H16.7297L16.8594 73.9219H11.6719ZM37.9077 73.9219H19.4531V56.4141C20.1767 55.3746 21.1494 54.5331 22.2822 53.9667C23.415 53.4003 24.6718 53.127 25.9375 53.1719H40.2031C41.1444 53.2142 42.0384 53.5967 42.7191 54.2483C43.4548 55.0143 43.9116 56.0055 44.0159 57.0625H33.7188V59.6562H45.2998L66.7891 59.747C68.2224 59.7037 69.6317 60.122 70.8094 60.9402C70.9808 61.1087 71.1155 61.311 71.2048 61.5342C71.2941 61.7574 71.3361 61.9967 71.3281 62.237C71.3281 68.5788 56.025 73.9219 37.9077 73.9219Z" fill="#7764F0"/>
</svg>
