<svg width="452" height="436" viewBox="0 0 452 436" fill="none" xmlns="http://www.w3.org/2000/svg">
<path d="M215.816 299.954L232.574 308.911" stroke="url(#paint0_linear_2207_16977)" stroke-width="5" stroke-miterlimit="10"/>
<path d="M193.447 304.964L156.193 283.498C151.139 280.586 151.773 275.499 157.61 272.136L168.527 265.845C174.364 262.483 183.19 262.117 188.247 265.03L225.501 286.495C230.555 289.408 229.921 294.495 224.085 297.857L213.167 304.149C207.33 307.511 198.504 307.876 193.447 304.964Z" fill="#CB91FF"/>
<path d="M165.898 280.397L162.664 278.536L176.334 270.658L179.564 272.522L165.898 280.397Z" fill="#F5E9FF"/>
<path d="M169.937 282.727L166.703 280.863L177.007 274.927L180.237 276.791L169.937 282.727Z" fill="#F5E9FF"/>
<path d="M173.98 285.054L170.746 283.19L177.952 279.04L181.182 280.9L173.98 285.054Z" fill="#F5E9FF"/>
<path d="M178.019 287.382L174.785 285.518L185.086 279.585L188.319 281.445L178.019 287.382Z" fill="#F5E9FF"/>
<path d="M182.058 289.709L178.824 287.849L185.288 284.121L188.522 285.985L182.058 289.709Z" fill="#F5E9FF"/>
<path d="M186.101 292.036L182.867 290.176L192.565 284.588L195.795 286.452L186.101 292.036Z" fill="#F5E9FF"/>
<path d="M190.136 294.363L186.906 292.502L199.227 285.402L202.461 287.266L190.136 294.363Z" fill="#F5E9FF"/>
<path d="M194.176 296.694L190.945 294.83L201.246 288.894L204.48 290.757L194.176 296.694Z" fill="#F5E9FF"/>
<path d="M198.218 299.021L194.988 297.157L209.329 288.894L212.563 290.757L198.218 299.021Z" fill="#F5E9FF"/>
<path d="M202.258 301.348L199.027 299.488L215.188 290.176L218.419 292.036L202.258 301.348Z" fill="#F5E9FF"/>
<path d="M183.202 269.031L183.141 269.606" stroke="#F8F0FF" stroke-width="0.61" stroke-miterlimit="10"/>
<path d="M183.019 270.726L182.656 274.034L184.178 276.462" stroke="#F8F0FF" stroke-width="0.61" stroke-miterlimit="10"/>
<path d="M184.477 276.939L184.785 277.43L185.365 277.471" stroke="#F8F0FF" stroke-width="0.61" stroke-miterlimit="10"/>
<path d="M186.566 277.559L190.776 277.866" stroke="#F8F0FF" stroke-width="0.61" stroke-miterlimit="10"/>
<path d="M191.379 277.91L191.959 277.954L192.003 278.529" stroke="#F8F0FF" stroke-width="0.61" stroke-miterlimit="10"/>
<path d="M192.098 279.693L192.237 281.432" stroke="#F8F0FF" stroke-width="0.61" stroke-miterlimit="10"/>
<path d="M192.281 282.014L192.325 282.589L192.905 282.619" stroke="#F8F0FF" stroke-width="0.61" stroke-miterlimit="10"/>
<path d="M194.055 282.68L199.43 282.957L204.949 283.634" stroke="#F8F0FF" stroke-width="0.61" stroke-miterlimit="10"/>
<path d="M205.523 283.701L206.1 283.772L206.405 284.266" stroke="#F8F0FF" stroke-width="0.61" stroke-miterlimit="10"/>
<path d="M206.945 285.146L207.766 286.461" stroke="#F8F0FF" stroke-width="0.61" stroke-miterlimit="10"/>
<path d="M208.035 286.901L208.34 287.395L208.92 287.385" stroke="#F8F0FF" stroke-width="0.61" stroke-miterlimit="10"/>
<path d="M210.191 287.365L216.198 287.267L219.645 288.018" stroke="#F8F0FF" stroke-width="0.61" stroke-miterlimit="10"/>
<path d="M220.266 288.152L220.832 288.277" stroke="#F8F0FF" stroke-width="0.61" stroke-miterlimit="10"/>
<path d="M222.055 288.545C221.432 288.633 220.639 288.839 220.113 289.127L220.673 288.241L220.534 287.202C220.893 287.682 221.527 288.203 222.055 288.542V288.545Z" fill="#F8F0FF"/>
<path d="M313.543 311.476L363.04 339.696L382.207 328.652L390.21 333.665" stroke="url(#paint1_linear_2207_16977)" stroke-width="5" stroke-miterlimit="10"/>
<path d="M305.882 296.636V317.611L241.082 352.935L255.945 361.317L237.672 371.376L268.645 389.186L289.294 377.34L309.943 389.395L328.012 379.281L338.337 385.228L328.012 391.178L338.337 397.124L361.195 384.504L381.41 396.401" stroke="url(#paint2_linear_2207_16977)" stroke-width="5" stroke-miterlimit="10"/>
<path d="M314.543 300.692L325.542 293.943L353.241 309.736L373.452 298.09L383.777 304.04L363.128 315.937L373.452 321.883L394.101 309.987L425.075 327.833L404.368 339.696" stroke="url(#paint3_linear_2207_16977)" stroke-width="5" stroke-miterlimit="10"/>
<path d="M290.075 389.233L270.907 400.277L221.41 372.053L237.673 362.923L222.586 354.227L298.345 311.475V290.101" stroke="url(#paint4_linear_2207_16977)" stroke-width="5" stroke-miterlimit="10"/>
<path d="M209.076 412.116L222.184 404.563L242.832 416.459L261.698 405.591L217.777 379.995L201.216 389.538L183.469 379.42L213.059 361.912L203.768 357.505" stroke="url(#paint5_linear_2207_16977)" stroke-width="5" stroke-miterlimit="10"/>
<path d="M109.723 400.382L125.209 391.459L134.825 396.766L290.803 307.944V288.099" stroke="url(#paint6_linear_2207_16977)" stroke-width="5" stroke-miterlimit="10"/>
<path d="M113.836 327.393L142.172 343.589L153.944 336.398L168.22 344.624L261.699 291.41V268.544" stroke="url(#paint7_linear_2207_16977)" stroke-width="5" stroke-miterlimit="10"/>
<path d="M93.1878 327.394L121.524 343.836L111.2 349.539L90.5507 337.643L80.4297 343.471L123.741 368.661L155.856 349.58L166.709 355.651L269.95 296.166V280.403" stroke="url(#paint8_linear_2207_16977)" stroke-width="5" stroke-miterlimit="10"/>
<path d="M82.3359 380.469L107.154 367.551L123.786 377.033L142.954 365.989L154.129 372.395L278.235 300.848L277.968 282.896" stroke="url(#paint9_linear_2207_16977)" stroke-width="5" stroke-miterlimit="10"/>
<path d="M154.477 0L145.227 5.33089L154.477 204.258L349.688 327.393L358.938 322.062V117.804L154.477 0Z" fill="url(#paint10_linear_2207_16977)"/>
<path d="M145.227 209.589V5.33105L349.688 123.135V327.393L145.227 209.589Z" fill="#CB91FF"/>
<g style="mix-blend-mode:color-dodge" opacity="0.91">
<path d="M344.605 318.609L150.309 206.66V14.1152L344.605 126.064V318.609Z" fill="white"/>
</g>
<path d="M252.243 237.211C252.565 235.52 254.395 226.241 257.171 227.76C257.656 228.024 258.178 228.623 259.988 232.272C264.167 240.705 264.865 244.548 266.042 244.916C267.428 245.353 267.194 240.242 269.702 234.255C270.041 233.446 272.817 226.816 274.488 228.579C276.186 230.371 275.739 239.788 276.6 240.397C277.505 241.04 277.237 230.05 280.684 228.775C283.501 227.73 287.728 233.585 289.975 237.985C292.853 243.621 292.578 248.816 293.775 249.574C296.174 251.093 297.174 231.528 299.828 232.82C302.794 234.268 305.994 260.916 306.444 260.97C306.814 261.017 304.441 243.063 305.458 243.053C306.4 243.042 308.556 258.392 311.935 260.52C316.491 263.388 320.226 240.292 322.212 242.346C323.47 243.644 322.687 253.623 324.182 255.047C325.188 256.004 326.046 251.976 326.998 252.815C328.575 254.205 327.47 266.382 329.815 282.388C330.656 288.125 331.72 292.864 332.489 295.979C304.146 279.807 275.8 263.639 247.457 247.467C249.053 244.047 250.647 240.631 252.243 237.211Z" fill="#F3E4FF"/>
<path d="M253.626 247.808C258.649 245.271 257.941 236.879 261.296 238.009C263.51 238.756 264.774 242.734 266.798 243.1C269.018 243.502 268.14 238.834 270.801 236.182C272.871 234.119 276.881 233.476 280.471 236.182C284.958 239.565 286.131 246.174 288.639 247.037C292.046 248.211 292.053 236.764 294.808 238.104C296.564 238.956 297.747 244.185 299.144 244.635C300.967 245.224 299.835 236.615 302.143 236.95C304.279 237.258 307.902 245.001 308.312 245.883C311.254 252.239 310.736 254.536 313.149 263.08C315.596 271.743 316.816 276.076 319.819 279.986C323.246 284.455 326.368 285.31 329.822 291.128C331.201 293.456 332.022 295.539 332.489 296.892C304.146 280.626 275.8 264.359 247.457 248.092C249.203 248.549 251.555 248.85 253.626 247.805V247.808Z" fill="#C685FF"/>
<path d="M247.457 247.649C252.666 236.081 255.808 234.701 257.794 236.507C260.238 238.726 261.184 245.999 263.15 246.702C264.811 247.297 264.482 242.224 267.383 241.074C268.915 240.465 270.59 241.249 272.864 242.312C275.837 243.698 276.033 244.764 277.596 245.231C281.507 246.398 281.331 240.049 285.195 240.194C288.137 240.306 291.225 244.104 294.662 248.339C296.54 250.653 298.557 253.075 300.516 257.093C303.783 263.794 302.533 265.901 305.247 271.347C308.695 278.265 312.731 276.462 314.599 282.513C315.365 284.999 332.56 295.414 332.486 296.903C309.942 282.567 269.997 261.991 247.453 247.656L247.457 247.649Z" fill="#5DFAF9"/>
<path d="M333.455 293.179L247.457 243.628V249.199L333.455 298.75V293.179Z" fill="#F3E4FF"/>
<path d="M299.742 189.213L293.77 185.773V183.611L299.742 187.055V189.213Z" fill="#CB91FF"/>
<path d="M311.687 196.097L305.715 192.657V190.495L311.687 193.935V196.097Z" fill="#CB91FF"/>
<path d="M317.66 199.536L311.688 196.096V193.935L317.66 197.378V199.536Z" fill="#CB91FF"/>
<path d="M323.632 202.979L317.66 199.536V197.378L323.632 200.818V202.979Z" fill="#CB91FF"/>
<path d="M329.605 206.42L323.633 202.98V200.818L329.605 204.258V206.42Z" fill="#CB91FF"/>
<path d="M299.742 193.897L293.77 190.457V188.296L299.742 191.736V193.897Z" fill="#CB91FF"/>
<path d="M305.714 197.338L299.742 193.898V191.736L305.714 195.18V197.338Z" fill="#CB91FF"/>
<path d="M311.687 200.781L305.715 197.338V195.18L311.687 198.62V200.781Z" fill="#CB91FF"/>
<path d="M323.632 207.661L317.66 204.221V202.06L323.632 205.503V207.661Z" fill="#CB91FF"/>
<path d="M329.605 211.104L323.633 207.661V205.503L329.605 208.943V211.104Z" fill="#CB91FF"/>
<path d="M299.742 198.583L293.77 195.14V192.981L299.742 196.421V198.583Z" fill="#CB91FF"/>
<path d="M311.687 205.463L305.715 202.023V199.861L311.687 203.305V205.463Z" fill="#CB91FF"/>
<path d="M317.66 208.906L311.688 205.463V203.305L317.66 206.745V208.906Z" fill="#CB91FF"/>
<path d="M329.605 215.789L323.633 212.346V210.185L329.605 213.628V215.789Z" fill="#CB91FF"/>
<path d="M299.742 203.264L293.77 199.824V197.662L299.742 201.106V203.264Z" fill="#CB91FF"/>
<path d="M305.714 206.707L299.742 203.264V201.105L305.714 204.546V206.707Z" fill="#CB91FF"/>
<path d="M317.66 213.591L311.688 210.148V207.986L317.66 211.43V213.591Z" fill="#CB91FF"/>
<path d="M323.632 217.031L317.66 213.591V211.43L323.632 214.87V217.031Z" fill="#CB91FF"/>
<path d="M329.605 220.471L323.633 217.031V214.869L329.605 218.309V220.471Z" fill="#CB91FF"/>
<path d="M299.742 207.949L293.77 204.509V202.348L299.742 205.788V207.949Z" fill="#CB91FF"/>
<path d="M305.714 211.392L299.742 207.949V205.787L305.714 209.231V211.392Z" fill="#CB91FF"/>
<path d="M311.687 214.832L305.715 211.392V209.23L311.687 212.671V214.832Z" fill="#CB91FF"/>
<path d="M317.66 218.272L311.688 214.832V212.671L317.66 216.111V218.272Z" fill="#CB91FF"/>
<path d="M329.605 225.156L323.633 221.716V219.555L329.605 222.995V225.156Z" fill="#CB91FF"/>
<path d="M299.742 212.634L293.77 209.19V207.032L299.742 210.472V212.634Z" fill="#CB91FF"/>
<path d="M311.687 219.517L305.715 216.074V213.912L311.687 217.356V219.517Z" fill="#CB91FF"/>
<path d="M317.66 222.957L311.688 219.517V217.355L317.66 220.796V222.957Z" fill="#CB91FF"/>
<path d="M323.632 226.397L317.66 222.957V220.796L323.632 224.239V226.397Z" fill="#CB91FF"/>
<path d="M329.605 229.841L323.633 226.397V224.239L329.605 227.679V229.841Z" fill="#CB91FF"/>
<path d="M299.742 217.319L293.77 213.875V211.714L299.742 215.157V217.319Z" fill="#CB91FF"/>
<path d="M311.687 224.198L305.715 220.758V218.597L311.687 222.04V224.198Z" fill="#CB91FF"/>
<path d="M317.66 227.642L311.688 224.198V222.04L317.66 225.48V227.642Z" fill="#CB91FF"/>
<path d="M329.605 234.522L323.633 231.082V228.921L329.605 232.364V234.522Z" fill="#CB91FF"/>
<path d="M170.841 119.621L164.234 115.815V113.424L170.841 117.229V119.621Z" fill="#C685FF"/>
<path d="M177.449 123.43L170.84 119.621V117.229L177.449 121.038V123.43Z" fill="#C685FF"/>
<path d="M184.055 127.235L177.449 123.43V121.038L184.055 124.847V127.235Z" fill="#C685FF"/>
<path d="M190.664 131.044L184.055 127.235V124.847L190.664 128.652V131.044Z" fill="#C685FF"/>
<path d="M197.27 134.849L190.664 131.044V128.652L197.27 132.461V134.849Z" fill="#C685FF"/>
<path d="M170.841 124.802L164.234 120.997V118.605L170.841 122.411V124.802Z" fill="#C685FF"/>
<path d="M177.449 128.611L170.84 124.803V122.411L177.449 126.22V128.611Z" fill="#C685FF"/>
<path d="M184.055 132.417L177.449 128.611V126.22L184.055 130.028V132.417Z" fill="#C685FF"/>
<path d="M190.664 136.225L184.055 132.416V130.028L190.664 133.834V136.225Z" fill="#C685FF"/>
<path d="M197.27 140.031L190.664 136.225V133.834L197.27 137.643V140.031Z" fill="#C685FF"/>
<path d="M203.883 143.839L197.273 140.031V137.643L203.883 141.448V143.839Z" fill="#C685FF"/>
<path d="M170.841 129.985L164.234 126.176V123.788L170.841 127.593V129.985Z" fill="#C685FF"/>
<path d="M177.449 133.794L170.84 129.985V127.594L177.449 131.403V133.794Z" fill="#C685FF"/>
<path d="M184.055 137.599L177.449 133.794V131.402L184.055 135.211V137.599Z" fill="#C685FF"/>
<path d="M197.27 145.213L190.664 141.408V139.017L197.27 142.825V145.213Z" fill="#C685FF"/>
<path d="M203.883 149.022L197.273 145.213V142.825L203.883 146.631V149.022Z" fill="#C685FF"/>
<path d="M239.619 156.22L234.734 153.405V151.64L239.619 154.454V156.22Z" fill="#C685FF"/>
<path d="M249.388 161.849L244.504 159.034V157.269L249.388 160.083V161.849Z" fill="#C685FF"/>
<path d="M259.154 167.48L254.27 164.666V162.896L259.154 165.711V167.48Z" fill="#C685FF"/>
<path d="M239.619 160.052L234.734 157.238V155.469L239.619 158.283V160.052Z" fill="#C685FF"/>
<path d="M249.388 165.681L244.504 162.866V161.101L249.388 163.915V165.681Z" fill="#C685FF"/>
<path d="M254.271 168.495L249.387 165.681V163.915L254.271 166.729V168.495Z" fill="#C685FF"/>
<path d="M264.044 174.124L259.156 171.31V169.544L264.044 172.358V174.124Z" fill="#C685FF"/>
<path d="M239.619 163.881L234.734 161.066V159.301L239.619 162.115V163.881Z" fill="#C685FF"/>
<path d="M244.501 166.695L239.617 163.881V162.115L244.501 164.93V166.695Z" fill="#C685FF"/>
<path d="M249.388 169.51L244.504 166.695V164.93L249.388 167.744V169.51Z" fill="#C685FF"/>
<path d="M259.154 175.142L254.27 172.328V170.559L259.154 173.373V175.142Z" fill="#C685FF"/>
<path d="M264.044 177.955L259.156 175.141V173.372L264.044 176.186V177.955Z" fill="#C685FF"/>
<path d="M171.688 201.731L164.234 197.439L164.38 188.597L171.834 192.889L171.688 201.731Z" fill="#CB91FF"/>
<path d="M182.637 208.04L175.184 203.747L175.485 185.37L182.942 189.666L182.637 208.04Z" fill="#91FCFB"/>
<path d="M193.586 214.349L186.129 210.056L186.736 173.305L194.189 177.601L193.586 214.349Z" fill="#CB91FF"/>
<path d="M204.536 220.66L197.082 216.364L197.567 186.797L205.024 191.093L204.536 220.66Z" fill="#91FCFB"/>
<path d="M215.488 226.968L208.031 222.672L208.665 184.179L216.119 188.475L215.488 226.968Z" fill="#CB91FF"/>
<path d="M226.434 233.276L218.98 228.981L219.743 182.559L227.197 186.854L226.434 233.276Z" fill="#91FCFB"/>
<path d="M168.609 160.031C168.609 160.031 170.874 151.057 177.524 161.303C182.754 157.9 188.546 163.191 190.573 168.545C197.851 169.391 201.45 179.312 201.45 179.312C201.45 179.312 204.382 172.689 211.137 176.535C215.218 171.586 218.971 172.117 223.57 178.513C225.017 177.495 226.122 176.717 226.97 176.125" stroke="#CB91FF" stroke-width="2.27" stroke-miterlimit="10"/>
<path d="M229.678 174.245C228.736 175.602 227.719 177.506 227.336 179.038L226.621 176.376L224.363 174.786C225.936 174.955 228.078 174.661 229.681 174.245H229.678Z" fill="#CB91FF"/>
<path d="M161.859 40.6113L329.819 137.383V198.647L161.859 101.876V40.6113Z" stroke="#CB91FF" stroke-width="0.43" stroke-miterlimit="10"/>
<path d="M161.859 94.2178L329.819 190.989" stroke="#CB91FF" stroke-width="0.43" stroke-miterlimit="10"/>
<path d="M329.819 183.331L161.859 86.5596" stroke="#CB91FF" stroke-width="0.43" stroke-miterlimit="10"/>
<path d="M161.859 78.9014L329.819 175.673" stroke="#CB91FF" stroke-width="0.43" stroke-miterlimit="10"/>
<path d="M161.859 71.2441L329.819 168.015" stroke="#CB91FF" stroke-width="0.43" stroke-miterlimit="10"/>
<path d="M161.859 63.5859L329.819 160.357" stroke="#CB91FF" stroke-width="0.43" stroke-miterlimit="10"/>
<path d="M329.819 152.699L161.859 55.9277" stroke="#CB91FF" stroke-width="0.43" stroke-miterlimit="10"/>
<path d="M161.859 48.2695L329.819 145.041" stroke="#CB91FF" stroke-width="0.43" stroke-miterlimit="10"/>
<path d="M314.551 128.585V189.85" stroke="#CB91FF" stroke-width="0.43" stroke-miterlimit="10"/>
<path d="M299.281 119.79V181.051" stroke="#CB91FF" stroke-width="0.43" stroke-miterlimit="10"/>
<path d="M284.012 110.992V172.257" stroke="#CB91FF" stroke-width="0.43" stroke-miterlimit="10"/>
<path d="M268.742 102.194V163.459" stroke="#CB91FF" stroke-width="0.43" stroke-miterlimit="10"/>
<path d="M253.473 93.3955V154.66" stroke="#CB91FF" stroke-width="0.43" stroke-miterlimit="10"/>
<path d="M238.203 84.5977V145.862" stroke="#CB91FF" stroke-width="0.43" stroke-miterlimit="10"/>
<path d="M222.938 75.7998V137.064" stroke="#CB91FF" stroke-width="0.43" stroke-miterlimit="10"/>
<path d="M207.668 67.0049V128.266" stroke="#CB91FF" stroke-width="0.43" stroke-miterlimit="10"/>
<path d="M192.398 58.207V119.472" stroke="#CB91FF" stroke-width="0.43" stroke-miterlimit="10"/>
<path d="M177.129 49.4092V110.674" stroke="#CB91FF" stroke-width="0.43" stroke-miterlimit="10"/>
<path d="M161.859 86.5596L177.129 87.6995L192.399 104.156L207.668 97.634L222.938 114.09L238.204 92.2558L253.474 139.344L268.744 132.826L284.014 149.282L299.28 127.448L314.55 159.217L329.819 137.382" stroke="#91FCFB" stroke-width="1.29" stroke-miterlimit="10"/>
<path d="M161.859 94.2179L192.399 96.4977L207.668 112.95L222.938 83.458L238.204 115.23L253.474 116.37L268.744 148.142L284.014 133.966L299.28 150.754L314.55 136.243L329.819 152.699" stroke="#A860EC" stroke-width="2.16" stroke-miterlimit="10"/>
<path d="M163.363 88.0495C163.791 87.6211 163.465 86.6031 162.634 85.7757C161.803 84.9483 160.782 84.6249 160.354 85.0533C159.925 85.4818 160.252 86.4998 161.082 87.3272C161.913 88.1546 162.934 88.478 163.363 88.0495Z" fill="#CB91FF"/>
<path d="M178.632 89.1862C179.06 88.7578 178.734 87.7398 177.903 86.9124C177.073 86.085 176.052 85.7616 175.623 86.19C175.195 86.6185 175.521 87.6365 176.352 88.4639C177.183 89.2913 178.204 89.6147 178.632 89.1862Z" fill="#CB91FF"/>
<path d="M193.902 105.641C194.33 105.213 194.004 104.195 193.173 103.367C192.342 102.54 191.321 102.217 190.893 102.645C190.464 103.074 190.791 104.092 191.622 104.919C192.452 105.746 193.473 106.07 193.902 105.641Z" fill="#CB91FF"/>
<path d="M209.167 99.1208C209.596 98.6924 209.269 97.6744 208.439 96.847C207.608 96.0196 206.587 95.6962 206.159 96.1246C205.73 96.5531 206.056 97.5711 206.887 98.3985C207.718 99.2259 208.739 99.5493 209.167 99.1208Z" fill="#CB91FF"/>
<path d="M224.437 115.826C224.865 115.397 224.539 114.379 223.708 113.552C222.877 112.725 221.856 112.401 221.428 112.83C221 113.258 221.326 114.276 222.157 115.104C222.987 115.931 224.008 116.254 224.437 115.826Z" fill="#CB91FF"/>
<path d="M239.702 93.7419C240.131 93.3135 239.805 92.2954 238.974 91.468C238.143 90.6407 237.122 90.3173 236.694 90.7457C236.265 91.1742 236.591 92.1922 237.422 93.0196C238.253 93.847 239.274 94.1704 239.702 93.7419Z" fill="#CB91FF"/>
<path d="M254.976 140.825C255.404 140.396 255.078 139.378 254.247 138.551C253.416 137.724 252.396 137.4 251.967 137.829C251.539 138.257 251.865 139.275 252.696 140.103C253.527 140.93 254.547 141.253 254.976 140.825Z" fill="#CB91FF"/>
<path d="M270.241 134.306C270.67 133.878 270.344 132.86 269.513 132.033C268.682 131.205 267.661 130.882 267.233 131.31C266.804 131.739 267.131 132.757 267.961 133.584C268.792 134.411 269.813 134.735 270.241 134.306Z" fill="#CB91FF"/>
<path d="M285.515 150.761C285.943 150.333 285.617 149.315 284.786 148.488C283.955 147.66 282.935 147.337 282.506 147.765C282.078 148.194 282.404 149.212 283.235 150.039C284.066 150.866 285.086 151.19 285.515 150.761Z" fill="#CB91FF"/>
<path d="M300.777 128.928C301.205 128.5 300.879 127.482 300.048 126.655C299.217 125.827 298.196 125.504 297.768 125.932C297.339 126.361 297.666 127.379 298.497 128.206C299.327 129.033 300.348 129.357 300.777 128.928Z" fill="#CB91FF"/>
<path d="M316.046 160.695C316.475 160.267 316.148 159.249 315.318 158.421C314.487 157.594 313.466 157.27 313.037 157.699C312.609 158.127 312.935 159.145 313.766 159.973C314.597 160.8 315.618 161.123 316.046 160.695Z" fill="#CB91FF"/>
<path d="M316.046 137.721C316.475 137.293 316.148 136.275 315.317 135.448C314.487 134.62 313.466 134.297 313.037 134.725C312.609 135.154 312.935 136.172 313.766 136.999C314.597 137.826 315.618 138.15 316.046 137.721Z" fill="#CB91FF"/>
<path d="M300.78 152.33C301.209 151.901 300.883 150.883 300.052 150.056C299.221 149.229 298.2 148.905 297.772 149.334C297.343 149.762 297.67 150.78 298.5 151.607C299.331 152.435 300.352 152.758 300.78 152.33Z" fill="#CB91FF"/>
<path d="M285.511 135.444C285.939 135.016 285.613 133.998 284.782 133.17C283.952 132.343 282.931 132.019 282.502 132.448C282.074 132.876 282.4 133.894 283.231 134.722C284.062 135.549 285.083 135.873 285.511 135.444Z" fill="#CB91FF"/>
<path d="M270.241 149.92C270.67 149.491 270.344 148.473 269.513 147.646C268.682 146.818 267.661 146.495 267.233 146.923C266.804 147.352 267.131 148.37 267.961 149.197C268.792 150.025 269.813 150.348 270.241 149.92Z" fill="#CB91FF"/>
<path d="M239.706 116.649C240.135 116.221 239.808 115.203 238.978 114.375C238.147 113.548 237.126 113.224 236.698 113.653C236.269 114.081 236.595 115.099 237.426 115.927C238.257 116.754 239.278 117.078 239.706 116.649Z" fill="#CB91FF"/>
<path d="M224.437 84.5798C224.865 84.1514 224.539 83.1333 223.708 82.306C222.877 81.4786 221.856 81.1552 221.428 81.5836C221 82.0121 221.326 83.0301 222.157 83.8575C222.987 84.6849 224.008 85.0083 224.437 84.5798Z" fill="#CB91FF"/>
<path d="M209.167 114.434C209.596 114.006 209.269 112.988 208.439 112.16C207.608 111.333 206.587 111.01 206.159 111.438C205.73 111.867 206.056 112.885 206.887 113.712C207.718 114.539 208.739 114.863 209.167 114.434Z" fill="#CB91FF"/>
<path d="M193.898 97.9822C194.326 97.5537 194 96.5357 193.169 95.7083C192.338 94.8809 191.317 94.5575 190.889 94.986C190.461 95.4144 190.787 96.4324 191.618 97.2598C192.448 98.0872 193.469 98.4106 193.898 97.9822Z" fill="#CB91FF"/>
<g style="mix-blend-mode:screen">
<path d="M89.2109 278.099L140.938 307.903V248.296L89.2109 218.492V278.099Z" fill="#CB91FF"/>
</g>
<path d="M130.201 270.043L112.595 259.898C112.162 259.648 111.812 258.982 111.812 258.403C111.812 257.828 112.162 257.564 112.595 257.811L130.201 267.956C130.634 268.206 130.984 268.872 130.984 269.451C130.984 270.026 130.634 270.29 130.201 270.043Z" fill="white"/>
<path d="M130.201 274.234L112.595 264.09C112.162 263.839 111.812 263.173 111.812 262.595C111.812 262.02 112.162 261.756 112.595 262.003L130.201 272.147C130.634 272.397 130.984 273.064 130.984 273.642C130.984 274.217 130.634 274.481 130.201 274.234Z" fill="white"/>
<path d="M130.201 278.428L112.595 268.284C112.162 268.034 111.812 267.367 111.812 266.789C111.812 266.214 112.162 265.95 112.595 266.197L130.201 276.341C130.634 276.592 130.984 277.258 130.984 277.836C130.984 278.411 130.634 278.675 130.201 278.428Z" fill="white"/>
<path d="M130.201 282.623L112.595 272.478C112.162 272.228 111.812 271.562 111.812 270.983C111.812 270.408 112.162 270.144 112.595 270.391L130.201 280.536C130.634 280.786 130.984 281.452 130.984 282.031C130.984 282.606 130.634 282.87 130.201 282.623Z" fill="white"/>
<path d="M130.201 292.331L112.595 282.186C112.162 281.936 111.812 281.27 111.812 280.691C111.812 280.116 112.162 279.852 112.595 280.099L130.201 290.244C130.634 290.494 130.984 291.16 130.984 291.739C130.984 292.314 130.634 292.578 130.201 292.331Z" fill="white"/>
<path d="M130.201 296.525L112.595 286.381C112.162 286.13 111.812 285.464 111.812 284.886C111.812 284.311 112.162 284.047 112.595 284.294L130.201 294.438C130.634 294.688 130.984 295.355 130.984 295.933C130.984 296.508 130.634 296.772 130.201 296.525Z" fill="white"/>
<path d="M100.501 236.139C103.243 237.719 105.47 241.565 105.47 244.727C105.47 244.768 105.47 244.805 105.47 244.846L107.154 245.816C107.154 245.776 107.154 245.739 107.154 245.698C107.154 241.463 104.175 236.312 100.501 234.194C100.484 234.184 100.47 234.177 100.453 234.167V236.109C100.453 236.109 100.484 236.125 100.501 236.136V236.139Z" fill="white"/>
<path d="M105.467 244.849C105.413 247.923 103.209 249.155 100.501 247.595C97.7557 246.012 95.5288 242.166 95.5288 239.004C95.5288 235.858 97.7286 234.576 100.454 236.115V234.173C96.7999 232.096 93.8477 233.818 93.8477 238.033C93.8477 242.268 96.827 247.419 100.501 249.537C104.142 251.634 107.097 249.966 107.151 245.819L105.467 244.849Z" fill="url(#paint11_radial_2207_16977)"/>
<path d="M99.761 255.158C101.588 256.21 103.073 258.774 103.073 260.881C103.073 260.908 103.073 260.932 103.073 260.959L104.194 261.605C104.194 261.578 104.194 261.555 104.194 261.527C104.194 258.706 102.208 255.273 99.761 253.863C99.7508 253.856 99.7406 253.852 99.7305 253.846V255.141C99.7305 255.141 99.7508 255.151 99.761 255.158Z" fill="white"/>
<path d="M103.073 260.96C103.036 263.009 101.568 263.828 99.7616 262.79C97.9313 261.734 96.45 259.174 96.45 257.066C96.45 254.969 97.9177 254.117 99.7311 255.142V253.846C97.2974 252.463 95.3281 253.609 95.3281 256.42C95.3281 259.241 97.3144 262.675 99.7616 264.085C102.188 265.482 104.158 264.373 104.195 261.609L103.073 260.963V260.96Z" fill="url(#paint12_radial_2207_16977)"/>
<path d="M63.6082 430.571C89.593 430.571 110.658 418.434 110.658 403.463C110.658 388.492 89.593 376.355 63.6082 376.355C37.6234 376.355 16.5586 388.492 16.5586 403.463C16.5586 418.434 37.6234 430.571 63.6082 430.571Z" fill="#CB91FF"/>
<path style="mix-blend-mode:color-dodge" d="M63.607 423.887C83.186 423.887 99.0578 414.743 99.0578 403.463C99.0578 392.183 83.186 383.039 63.607 383.039C44.0281 383.039 28.1562 392.183 28.1562 403.463C28.1562 414.743 44.0281 423.887 63.607 423.887Z" fill="url(#paint13_linear_2207_16977)"/>
<path style="mix-blend-mode:color-dodge" d="M63.6067 418.252C77.7812 418.252 89.272 411.631 89.272 403.463C89.272 395.296 77.7812 388.675 63.6067 388.675C49.4322 388.675 37.9414 395.296 37.9414 403.463C37.9414 411.631 49.4322 418.252 63.6067 418.252Z" fill="url(#paint14_linear_2207_16977)"/>
<path d="M98.6285 276.915C97.2049 278.336 98.2116 279.757 98.6624 281.177C98.7844 280.67 98.7234 280.125 98.7539 279.598C98.7878 278.996 99.0353 278.316 99.6047 278.116C99.9538 277.994 100.344 278.082 100.703 277.994C101.127 277.889 101.401 277.588 101.625 277.216C100.869 276.445 99.964 276.249 98.6285 276.915Z" fill="#BD86F1"/>
<path d="M102.887 274.625C102.904 274.368 102.806 274.118 102.69 273.891C102.287 273.106 101.623 272.457 100.826 272.068C100.426 271.872 99.9414 271.689 99.8025 271.266C99.5788 270.586 100.413 270.059 101.101 269.859C101.789 269.663 102.656 269.301 102.616 268.587C101.473 268.046 100.06 268.581 99.1754 269.48C98.2874 270.38 97.7891 271.578 97.2163 272.704C96.5689 273.979 96.3282 276.296 95.8537 277.646C95.4131 278.897 94.525 280.102 95.1216 281.394C95.7791 282.818 98.0298 282.99 98.6094 281.394C98.6365 281.323 98.6433 281.248 98.6602 281.177C98.2128 279.757 97.2027 278.336 98.6263 276.915C99.9652 276.249 100.87 276.445 101.623 277.216C101.911 276.729 102.107 276.117 102.399 275.626C102.592 275.305 102.856 274.997 102.884 274.625H102.887Z" fill="#D5B3F6"/>
<path d="M66.1361 404.235C65.8074 405.104 64.7431 410.256 67.3428 411.196C69.9426 412.14 71.8847 411.128 73.9388 409.106C74.1659 408.882 73.2134 408.571 73.5795 408.426C77.3283 406.937 80.8296 402.384 80.8296 401.376C80.8296 400.247 81.1211 399.323 78.6739 399.323C76.2267 399.323 71.7153 402.97 71.7153 402.97L67.6885 401.816C67.6885 401.816 66.4649 403.365 66.1361 404.231V404.235Z" fill="#9822FF"/>
<path d="M51.0222 396.891C51.0222 396.891 50.6019 399.069 50.9984 401.122C51.195 402.137 50.9476 403.088 51.7306 403.639C52.4491 404.146 53.8626 404.397 55.4556 404.397C57.3537 404.397 57.8825 403.152 58.6689 401.968C58.8451 401.704 58.035 401.241 58.2892 401.075C59.1773 400.486 60.6992 399.465 61.1602 398.893C62.638 397.046 64.0141 394.503 63.8141 392.994C63.6108 391.485 62.0448 391.127 61.1839 391.127C60.3229 391.127 54.1473 396.076 54.1473 396.076L51.0289 396.898L51.0222 396.891Z" fill="#9822FF"/>
<path d="M51.3462 397.686C53.268 400.456 57.7252 399.936 58.3489 396.56C60.586 384.454 62.0604 363.309 62.1722 345.903C62.2502 333.597 63.8602 320.452 63.5755 317.395C58.9183 314.733 51.0411 312.859 50.0548 314.831C43.9503 327.069 51.3767 330.485 50.9835 335.955C50.5903 341.424 51.3462 397.686 51.3462 397.686Z" fill="url(#paint15_linear_2207_16977)"/>
<path d="M74.7793 315.927C77.5655 317.472 77.518 337.2 75.9826 350.906C74.4472 364.608 74.3556 402.889 72.9897 404.045C71.6237 405.206 67.2445 406.724 66.5191 404.952C65.7904 403.179 64.1804 344.719 62.0992 341.529C53.917 327.262 55.8422 322.844 57.3437 318.369C58.8419 313.894 71.9932 314.381 74.7827 315.927H74.7793Z" fill="url(#paint16_linear_2207_16977)"/>
<path d="M71.289 245.823C71.289 245.823 72.8718 258.446 70.8754 259.786C68.8824 261.122 61.7611 261.186 59.768 258.375C57.775 255.565 53.528 246.337 58.2224 243.059C62.9169 239.782 69.1637 239.335 71.2856 245.823H71.289Z" fill="#CEA6F5"/>
<path d="M51.7719 313.877C50.4568 313.329 37.98 302.17 37.3394 300.681C36.6988 299.193 36.7463 273.814 48.0231 267.208C50.2399 265.909 50.2433 271.175 49.301 277.206C48.3858 283.058 42.2474 296.216 43.1965 298.012C44.1455 299.812 53.0396 309.131 54.3378 311.14C55.1512 312.402 53.087 314.421 51.7719 313.873V313.877Z" fill="url(#paint17_linear_2207_16977)"/>
<path d="M73.2363 293.402C75.9581 280.725 80.1882 270.996 73.7278 268.791C73.2838 268.639 72.8499 268.507 72.4127 268.368C68.9689 278.056 63.2034 286.881 66.3421 297.766C68.7825 302.843 71.9009 308.969 76.0598 313.441C76.3309 307.156 73.2329 293.399 73.2329 293.399L73.2363 293.402Z" fill="url(#paint18_linear_2207_16977)"/>
<path d="M72.4146 268.368C66.4863 266.473 61.1479 265.628 56.8805 265.655C52.2979 265.685 47.0577 265.053 45.7019 271.348C44.3461 277.643 50.1354 302.43 50.0506 314.834C57.6296 320.175 70.8351 318.521 75.2211 316.366C75.7464 315.994 75.9973 314.925 76.0617 313.443C71.9028 308.968 68.7844 302.846 66.344 297.769C63.2053 286.884 68.9708 278.059 72.4146 268.371V268.368Z" fill="url(#paint19_linear_2207_16977)"/>
<path d="M72.5196 268.551C81.7255 270.448 82.3593 287.588 86.0369 288.514C89.6671 289.431 92.0601 280.085 94.6869 279.074C96.097 278.532 99.4627 279.287 98.8255 282.838C98.1849 286.421 90.0094 298.74 83.8677 296.697C79.9053 295.378 74.3872 287.706 71.6553 281.78C68.5708 275.086 69.564 267.945 72.5162 268.554L72.5196 268.551Z" fill="url(#paint20_linear_2207_16977)"/>
<path d="M57.1094 267.16L58.9363 255.781L67.2338 256.329L66.2373 267.525C66.2373 267.525 58.9363 272.701 57.1128 267.157L57.1094 267.16Z" fill="#CEA6F5"/>
<path d="M53.3767 251.786C53.3767 251.786 55.4985 259.353 60.7725 258.961C64.162 258.7 66.6093 253.816 66.6093 253.816L67.677 250.998H69.1819L70.5207 252.517C70.5207 252.517 70.7411 246.273 71.8799 246.283C74.3611 246.469 73.4798 243.354 72.2019 241.155C70.7885 238.726 66.0432 236.247 62.2775 236.247C58.5117 236.247 53.6139 239.511 53.1123 243.817C52.6106 248.123 53.3733 251.783 53.3733 251.783L53.3767 251.786Z" fill="#9D2DFF"/>
<path d="M55.4191 266.568C55.4191 266.568 55.8089 262.878 57.1104 263.22C58.412 263.561 60.4016 267.739 65.0114 265.648C67.2315 264.211 67.5501 265.269 67.5501 265.269L68.3839 267.204C68.3839 267.204 64.9537 269.305 64.6894 269.988C63.9674 270.878 58.3442 272.552 56.3376 269.474C56.3376 269.474 55.192 267.867 55.4157 266.568H55.4191Z" fill="url(#paint21_linear_2207_16977)"/>
<g opacity="0.65">
<path d="M135.093 263.172C137.082 262.026 137.082 258.309 135.092 254.869C133.102 251.43 129.876 249.571 127.887 250.717C125.898 251.863 125.898 255.58 127.888 259.02C129.878 262.459 133.104 264.319 135.093 263.172Z" fill="#C685FF"/>
</g>
<path d="M130.984 253.684V256.667C130.984 256.965 131.195 257.327 131.452 257.476C131.71 257.624 131.92 257.503 131.92 257.205V254.222C131.92 253.924 131.71 253.562 131.452 253.413C131.195 253.264 130.984 253.386 130.984 253.684Z" fill="white"/>
<path d="M129.507 253.372C128.754 253.616 128.27 254.397 128.27 255.584C128.27 257.634 129.71 260.127 131.493 261.155C133.272 262.18 134.716 261.348 134.716 259.298C134.716 258.111 134.228 256.772 133.479 255.662C133.276 255.361 132.981 255.232 132.822 255.375C132.662 255.517 132.696 255.879 132.903 256.18C133.439 256.971 133.781 257.918 133.781 258.76C133.781 259.488 133.527 259.998 133.11 260.235C132.693 260.472 132.127 260.442 131.493 260.076C130.859 259.711 130.29 259.089 129.876 258.371C129.463 257.654 129.208 256.853 129.208 256.122C129.208 255.276 129.551 254.728 130.086 254.553C130.29 254.485 130.327 254.167 130.168 253.842C130.008 253.514 129.713 253.304 129.51 253.372H129.507Z" fill="white"/>
<path d="M389.14 406.228C396.869 406.228 403.135 402.617 403.135 398.164C403.135 393.71 396.869 390.1 389.14 390.1C381.41 390.1 375.145 393.71 375.145 398.164C375.145 402.617 381.41 406.228 389.14 406.228Z" fill="#9822FF"/>
<path d="M399.034 389.433C400.518 390.289 402.454 384.194 403.132 385.259L403.098 395.691C402.874 397.565 401.518 399.402 399.034 400.836C393.57 403.985 384.71 403.985 379.242 400.836C376.51 399.263 375.145 397.2 375.145 395.136C375.145 394.132 375.145 385.963 375.145 385.963C375.826 384.962 393.57 386.288 399.034 389.437V389.433Z" fill="url(#paint22_linear_2207_16977)"/>
<path d="M389.14 393.439C396.869 393.439 403.135 389.828 403.135 385.375C403.135 380.921 396.869 377.311 389.14 377.311C381.41 377.311 375.145 380.921 375.145 385.375C375.145 389.828 381.41 393.439 389.14 393.439Z" fill="url(#paint23_linear_2207_16977)"/>
<path d="M389.14 393.127C396.869 393.127 403.135 389.517 403.135 385.063C403.135 380.609 396.869 376.999 389.14 376.999C381.41 376.999 375.145 380.609 375.145 385.063C375.145 389.517 381.41 393.127 389.14 393.127Z" fill="url(#paint24_linear_2207_16977)"/>
<path d="M389.139 391.108C394.931 391.108 399.627 388.402 399.627 385.063C399.627 381.725 394.931 379.019 389.139 379.019C383.348 379.019 378.652 381.725 378.652 385.063C378.652 388.402 383.348 391.108 389.139 391.108Z" fill="url(#paint25_linear_2207_16977)"/>
<g style="mix-blend-mode:color-dodge">
<path d="M389.139 389.335C393.235 389.335 396.555 387.423 396.555 385.063C396.555 382.704 393.235 380.791 389.139 380.791C385.043 380.791 381.723 382.704 381.723 385.063C381.723 387.423 385.043 389.335 389.139 389.335Z" fill="#CB91FF"/>
</g>
<g style="mix-blend-mode:color-dodge">
<path style="mix-blend-mode:lighten" d="M385.906 387.8C385.299 387.431 384.906 386.991 384.73 386.534C384.658 386.352 384.624 386.166 384.621 385.983V385.966C384.621 385.29 385.075 384.62 385.98 384.126C387.763 383.149 390.624 383.206 392.363 384.261C393.251 384.799 393.678 385.489 393.644 386.166C393.634 386.355 393.59 386.541 393.512 386.724C393.315 387.174 392.908 387.597 392.285 387.938C390.502 388.916 387.645 388.855 385.902 387.803L385.906 387.8Z" fill="url(#paint26_linear_2207_16977)"/>
<path style="mix-blend-mode:color-dodge" opacity="0.91" d="M384.472 384.122C383.594 383.591 383.028 382.959 382.777 382.296C382.675 382.032 382.624 381.764 382.621 381.497V381.47C382.621 380.496 383.279 379.529 384.584 378.812C387.16 377.398 391.285 377.486 393.8 379.004C395.081 379.779 395.694 380.777 395.65 381.754C395.637 382.025 395.572 382.296 395.461 382.559C395.179 383.209 394.589 383.821 393.688 384.312C391.112 385.725 386.987 385.637 384.475 384.119L384.472 384.122Z" fill="url(#paint27_linear_2207_16977)"/>
<path style="mix-blend-mode:color-dodge" opacity="0.83" d="M383.041 380.446C381.896 379.752 381.157 378.923 380.824 378.058C380.692 377.713 380.624 377.364 380.621 377.016V376.982C380.621 375.707 381.479 374.445 383.19 373.508C386.556 371.661 391.949 371.776 395.237 373.762C396.911 374.773 397.714 376.079 397.653 377.357C397.636 377.712 397.552 378.064 397.403 378.409C397.033 379.262 396.26 380.057 395.087 380.703C391.722 382.55 386.329 382.435 383.045 380.449L383.041 380.446Z" fill="url(#paint28_linear_2207_16977)"/>
<path style="mix-blend-mode:color-dodge" opacity="0.74" d="M381.606 376.769C380.189 375.913 379.278 374.888 378.867 373.819C378.705 373.393 378.62 372.963 378.613 372.53V372.486C378.613 370.91 379.674 369.351 381.786 368.194C385.945 365.914 392.605 366.053 396.662 368.508C398.73 369.76 399.723 371.37 399.648 372.95C399.628 373.389 399.527 373.822 399.34 374.249C398.882 375.301 397.93 376.285 396.479 377.08C392.32 379.36 385.66 379.218 381.606 376.765V376.769Z" fill="url(#paint29_linear_2207_16977)"/>
<path style="mix-blend-mode:color-dodge" opacity="0.65" d="M380.176 373.089C378.491 372.071 377.403 370.85 376.915 369.578C376.722 369.07 376.62 368.556 376.613 368.046V367.995C376.613 366.121 377.874 364.264 380.389 362.887C385.338 360.171 393.266 360.34 398.099 363.259C400.56 364.748 401.743 366.665 401.655 368.546C401.631 369.067 401.509 369.585 401.289 370.092C400.747 371.344 399.611 372.514 397.886 373.461C392.937 376.177 385.009 376.008 380.179 373.089H380.176Z" fill="url(#paint30_linear_2207_16977)"/>
<path style="mix-blend-mode:color-dodge" opacity="0.56" d="M378.741 369.412C376.785 368.231 375.525 366.814 374.959 365.342C374.731 364.754 374.616 364.158 374.609 363.567V363.509C374.609 361.334 376.074 359.179 378.989 357.583C384.727 354.434 393.926 354.627 399.529 358.016C402.383 359.741 403.756 361.967 403.651 364.148C403.624 364.754 403.481 365.356 403.224 365.941C402.593 367.392 401.278 368.752 399.275 369.848C393.536 372.997 384.341 372.801 378.738 369.415L378.741 369.412Z" fill="url(#paint31_linear_2207_16977)"/>
<path style="mix-blend-mode:color-dodge" opacity="0.48" d="M377.307 365.735C375.084 364.389 373.647 362.782 373.006 361.105C372.748 360.435 372.616 359.758 372.609 359.082V359.014C372.609 356.538 374.274 354.089 377.592 352.273C384.124 348.691 394.587 348.911 400.963 352.763C404.21 354.729 405.772 357.259 405.654 359.741C405.623 360.432 405.46 361.115 405.169 361.781C404.454 363.432 402.956 364.978 400.678 366.229C394.146 369.811 383.683 369.588 377.311 365.735H377.307Z" fill="url(#paint32_linear_2207_16977)"/>
<path style="mix-blend-mode:color-dodge" opacity="0.39" d="M375.877 362.055C373.382 360.546 371.775 358.743 371.053 356.863C370.765 356.112 370.616 355.354 370.609 354.596V354.522C370.609 351.748 372.477 349.002 376.195 346.962C383.517 342.944 395.251 343.19 402.396 347.513C406.036 349.715 407.789 352.553 407.657 355.337C407.623 356.108 407.44 356.876 407.114 357.624C406.311 359.474 404.633 361.209 402.077 362.61C394.756 366.628 383.025 366.378 375.88 362.058L375.877 362.055Z" fill="url(#paint33_linear_2207_16977)"/>
<path style="mix-blend-mode:color-dodge" opacity="0.3" d="M374.446 358.377C371.684 356.706 369.901 354.707 369.101 352.624C368.782 351.792 368.616 350.949 368.609 350.11V350.026C368.609 346.951 370.677 343.907 374.799 341.651C382.913 337.199 395.912 337.473 403.833 342.263C407.867 344.702 409.809 347.847 409.66 350.932C409.619 351.788 409.419 352.637 409.056 353.466C408.165 355.516 406.307 357.437 403.474 358.99C395.359 363.441 382.361 363.164 374.446 358.377Z" fill="url(#paint34_linear_2207_16977)"/>
<path style="mix-blend-mode:color-dodge" opacity="0.21" d="M373.011 354.701C369.978 352.867 368.022 350.672 367.144 348.385C366.795 347.472 366.612 346.549 366.602 345.629V345.537C366.602 342.165 368.873 338.823 373.394 336.344C382.298 331.459 396.568 331.76 405.259 337.013C409.686 339.689 411.814 343.142 411.655 346.528C411.611 347.469 411.39 348.399 410.994 349.309C410.018 351.562 407.977 353.669 404.869 355.374C395.965 360.258 381.698 359.954 373.008 354.701H373.011Z" fill="url(#paint35_linear_2207_16977)"/>
<path style="mix-blend-mode:color-dodge" opacity="0.13" d="M371.581 351.021C368.28 349.026 366.148 346.634 365.195 344.144C364.816 343.15 364.616 342.145 364.605 341.141V341.043C364.605 337.369 367.076 333.73 372.001 331.034C381.699 325.713 397.233 326.041 406.696 331.764C411.52 334.68 413.835 338.438 413.662 342.125C413.614 343.147 413.374 344.161 412.943 345.152C411.879 347.605 409.659 349.898 406.273 351.755C396.575 357.076 381.045 356.744 371.581 351.025V351.021Z" fill="url(#paint36_linear_2207_16977)"/>
<g style="mix-blend-mode:color-dodge" opacity="0.04">
<path d="M370.147 347.344C366.574 345.186 364.273 342.602 363.239 339.906C362.825 338.833 362.612 337.744 362.602 336.659V336.55C362.602 332.576 365.276 328.642 370.601 325.723C381.088 319.969 397.893 320.324 408.129 326.511C413.346 329.663 415.851 333.729 415.661 337.717C415.61 338.823 415.349 339.923 414.881 340.992C413.732 343.643 411.329 346.126 407.668 348.132C397.181 353.886 380.379 353.527 370.147 347.341V347.344Z" fill="#CB91FF"/>
</g>
</g>
<path d="M174.024 329.555C180.447 329.555 185.653 326.555 185.653 322.854C185.653 319.153 180.447 316.153 174.024 316.153C167.601 316.153 162.395 319.153 162.395 322.854C162.395 326.555 167.601 329.555 174.024 329.555Z" fill="#9822FF"/>
<path d="M182.243 315.602C183.477 316.312 185.087 311.249 185.649 312.135L185.622 320.801C185.436 322.357 184.311 323.886 182.243 325.076C177.701 327.691 170.339 327.691 165.797 325.076C163.526 323.767 162.391 322.052 162.391 320.337C162.391 319.505 162.391 312.713 162.391 312.713C162.957 311.881 177.701 312.984 182.24 315.598L182.243 315.602Z" fill="url(#paint37_linear_2207_16977)"/>
<path d="M174.024 318.927C180.447 318.927 185.653 315.927 185.653 312.226C185.653 308.525 180.447 305.525 174.024 305.525C167.601 305.525 162.395 308.525 162.395 312.226C162.395 315.927 167.601 318.927 174.024 318.927Z" fill="url(#paint38_linear_2207_16977)"/>
<path d="M174.024 318.67C180.447 318.67 185.653 315.67 185.653 311.969C185.653 308.269 180.447 305.269 174.024 305.269C167.601 305.269 162.395 308.269 162.395 311.969C162.395 315.67 167.601 318.67 174.024 318.67Z" fill="url(#paint39_linear_2207_16977)"/>
<path d="M174.023 316.992C178.836 316.992 182.737 314.744 182.737 311.969C182.737 309.195 178.836 306.946 174.023 306.946C169.21 306.946 165.309 309.195 165.309 311.969C165.309 314.744 169.21 316.992 174.023 316.992Z" fill="url(#paint40_linear_2207_16977)"/>
<g style="mix-blend-mode:color-dodge">
<path d="M174.021 315.521C177.425 315.521 180.184 313.931 180.184 311.97C180.184 310.008 177.425 308.418 174.021 308.418C170.618 308.418 167.859 310.008 167.859 311.97C167.859 313.931 170.618 315.521 174.021 315.521Z" fill="#CB91FF"/>
</g>
<g style="mix-blend-mode:color-dodge">
<path style="mix-blend-mode:lighten" d="M171.337 314.242C170.832 313.938 170.507 313.573 170.361 313.19C170.303 313.038 170.273 312.886 170.27 312.73V312.717C170.27 312.155 170.646 311.601 171.402 311.188C172.883 310.376 175.259 310.423 176.706 311.3C177.442 311.746 177.798 312.321 177.77 312.883C177.764 313.038 177.726 313.194 177.662 313.346C177.499 313.721 177.16 314.07 176.642 314.354C175.161 315.166 172.785 315.115 171.337 314.242Z" fill="url(#paint41_linear_2207_16977)"/>
<path style="mix-blend-mode:color-dodge" opacity="0.91" d="M170.148 311.188C169.419 310.748 168.948 310.22 168.738 309.669C168.653 309.449 168.609 309.229 168.609 309.006V308.986C168.609 308.174 169.155 307.372 170.243 306.777C172.382 305.603 175.812 305.674 177.9 306.939C178.964 307.582 179.476 308.411 179.435 309.226C179.425 309.452 179.371 309.676 179.276 309.896C179.042 310.437 178.551 310.944 177.805 311.353C175.666 312.527 172.236 312.453 170.148 311.191V311.188Z" fill="url(#paint42_linear_2207_16977)"/>
<path style="mix-blend-mode:color-dodge" opacity="0.83" d="M168.959 308.134C168.006 307.559 167.393 306.869 167.115 306.152C167.006 305.864 166.949 305.573 166.945 305.286V305.259C166.945 304.2 167.657 303.148 169.077 302.37C171.874 300.834 176.358 300.929 179.086 302.58C180.476 303.422 181.147 304.504 181.096 305.57C181.083 305.864 181.012 306.159 180.89 306.443C180.581 307.15 179.941 307.813 178.964 308.347C176.168 309.883 171.687 309.785 168.955 308.137L168.959 308.134Z" fill="url(#paint43_linear_2207_16977)"/>
<path style="mix-blend-mode:color-dodge" opacity="0.74" d="M167.77 305.076C166.593 304.365 165.834 303.513 165.495 302.627C165.36 302.271 165.289 301.913 165.285 301.558V301.524C165.285 300.215 166.166 298.919 167.919 297.959C171.373 296.064 176.908 296.179 180.28 298.219C181.999 299.258 182.822 300.597 182.761 301.91C182.744 302.275 182.66 302.637 182.504 302.989C182.124 303.861 181.334 304.68 180.128 305.339C176.674 307.234 171.139 307.115 167.766 305.079L167.77 305.076Z" fill="url(#paint44_linear_2207_16977)"/>
<path style="mix-blend-mode:color-dodge" opacity="0.65" d="M166.576 302.021C165.176 301.175 164.271 300.161 163.868 299.105C163.705 298.686 163.624 298.256 163.617 297.833V297.793C163.617 296.233 164.665 294.691 166.752 293.548C170.864 291.291 177.453 291.43 181.466 293.859C183.51 295.093 184.493 296.69 184.419 298.253C184.398 298.686 184.297 299.119 184.113 299.538C183.663 300.577 182.72 301.551 181.287 302.339C177.175 304.595 170.586 304.453 166.573 302.028L166.576 302.021Z" fill="url(#paint45_linear_2207_16977)"/>
<path style="mix-blend-mode:color-dodge" opacity="0.56" d="M165.387 298.963C163.763 297.982 162.716 296.805 162.245 295.581C162.058 295.094 161.96 294.596 161.953 294.102V294.055C161.953 292.249 163.17 290.459 165.59 289.13C170.359 286.512 178.002 286.674 182.656 289.489C185.029 290.923 186.168 292.77 186.083 294.586C186.059 295.09 185.941 295.587 185.73 296.074C185.208 297.282 184.114 298.408 182.449 299.322C177.68 301.94 170.04 301.774 165.383 298.963H165.387Z" fill="url(#paint46_linear_2207_16977)"/>
<path style="mix-blend-mode:color-dodge" opacity="0.48" d="M164.194 295.909C162.346 294.792 161.153 293.453 160.618 292.059C160.404 291.505 160.292 290.94 160.289 290.378V290.324C160.289 288.268 161.672 286.231 164.428 284.723C169.854 281.746 178.552 281.929 183.846 285.132C186.544 286.762 187.842 288.866 187.744 290.93C187.717 291.501 187.581 292.07 187.341 292.624C186.744 293.998 185.5 295.28 183.609 296.318C178.182 299.295 169.488 299.109 164.194 295.909Z" fill="url(#paint47_linear_2207_16977)"/>
<path style="mix-blend-mode:color-dodge" opacity="0.39" d="M163.005 292.852C160.934 291.6 159.595 290.098 158.998 288.535C158.758 287.913 158.636 287.28 158.629 286.651V286.59C158.629 284.284 160.181 282.004 163.269 280.309C169.353 276.97 179.101 277.177 185.043 280.766C188.07 282.596 189.524 284.953 189.412 287.267C189.382 287.91 189.233 288.546 188.962 289.168C188.294 290.707 186.901 292.145 184.776 293.312C178.691 296.65 168.943 296.44 163.008 292.852H163.005Z" fill="url(#paint48_linear_2207_16977)"/>
<path style="mix-blend-mode:color-dodge" opacity="0.3" d="M161.815 289.796C159.521 288.41 158.039 286.749 157.375 285.017C157.111 284.327 156.972 283.627 156.965 282.93V282.862C156.965 280.308 158.683 277.778 162.107 275.901C168.848 272.2 179.651 272.43 186.233 276.408C189.585 278.434 191.199 281.049 191.077 283.613C191.043 284.323 190.877 285.03 190.575 285.717C189.836 287.422 188.291 289.018 185.938 290.307C179.197 294.008 168.394 293.774 161.819 289.8L161.815 289.796Z" fill="url(#paint49_linear_2207_16977)"/>
<path style="mix-blend-mode:color-dodge" opacity="0.21" d="M160.626 286.739C158.107 285.217 156.48 283.394 155.752 281.493C155.46 280.735 155.311 279.967 155.301 279.203V279.128C155.301 276.324 157.185 273.547 160.944 271.49C168.344 267.431 180.2 267.682 187.423 272.049C191.104 274.274 192.87 277.143 192.738 279.954C192.701 280.735 192.517 281.51 192.189 282.264C191.375 284.134 189.68 285.887 187.098 287.3C179.698 291.36 167.845 291.106 160.626 286.742V286.739Z" fill="url(#paint50_linear_2207_16977)"/>
<path style="mix-blend-mode:color-dodge" opacity="0.13" d="M159.437 283.684C156.691 282.027 154.922 280.041 154.129 277.971C153.813 277.146 153.647 276.31 153.641 275.475V275.394C153.641 272.342 155.695 269.319 159.786 267.076C167.843 262.655 180.753 262.929 188.617 267.681C192.623 270.103 194.548 273.225 194.403 276.29C194.365 277.139 194.162 277.985 193.806 278.807C192.922 280.843 191.078 282.751 188.264 284.293C180.208 288.714 167.3 288.437 159.44 283.684H159.437Z" fill="url(#paint51_linear_2207_16977)"/>
<g style="mix-blend-mode:color-dodge" opacity="0.04">
<path d="M158.243 280.627C155.274 278.834 153.362 276.686 152.501 274.447C152.159 273.554 151.983 272.651 151.973 271.747V271.659C151.973 268.358 154.193 265.087 158.619 262.662C167.334 257.879 181.295 258.177 189.803 263.318C194.138 265.94 196.219 269.315 196.06 272.63C196.019 273.55 195.802 274.46 195.413 275.353C194.457 277.555 192.46 279.619 189.42 281.286C180.705 286.069 166.744 285.768 158.243 280.63V280.627Z" fill="#CB91FF"/>
</g>
</g>
<path d="M437.522 307.846C431.536 288.981 431.092 275.207 428.94 273.983C427.211 272.999 426.913 281.573 424.808 280.623C422.612 279.632 421.832 269.778 416.385 257.466C414.294 252.74 410.969 245.221 408.44 245.194C405.068 245.16 404.024 258.454 403.356 266.937C402.949 272.122 403.017 274.872 402.244 274.785C400.743 274.612 397.119 263.866 395.889 253.346C394.631 242.63 394.035 235.605 392.696 233.896C391.208 231.995 390.069 238.652 388.262 243.912C387.174 247.082 385.927 250.718 385.88 256.6C385.849 260.287 386.307 263.24 385.402 263.754C384.131 264.478 382.005 259.336 380.317 260.03C379.104 260.527 378.792 263.764 378.728 264.42C378.596 265.804 378.762 266.457 378.568 268.307C378.385 270.069 378.06 271.189 377.931 271.656C377.501 273.249 376.996 276.182 376.66 282.067C397.743 292.976 418.826 303.885 439.905 314.793C439.359 313.315 438.485 310.89 437.522 307.849V307.846Z" fill="#C98CFF"/>
<path d="M377.771 276.476C379.066 270.475 379.75 267.302 381.903 267.502C386.77 267.949 394.145 285.162 398.111 285.179C400.552 285.189 398.386 278.678 401.924 273.005C403.023 271.247 405.497 267.279 409.551 269.061C413.035 270.59 416.299 275.755 418.448 279.155C422.278 285.21 423.102 289.127 425.122 290.097C427.132 291.065 427.163 287.591 429.254 288.22C432.745 289.272 438.175 300.614 440.537 309.625C441.927 314.922 442.164 319.069 442.141 321.724L376.754 284.049C376.886 281.868 377.171 279.25 377.767 276.473L377.771 276.476Z" fill="#CB91FF"/>
<path d="M382.009 279.642C390.581 275.367 402.007 283.519 403.254 284.432C409.677 289.134 410.132 292.367 413.948 293.609C421.717 296.139 423.134 283.837 427.679 286.972C429.852 288.471 430.682 292.08 436.349 307.403C438.491 313.197 440.352 318.034 441.691 321.461L377.07 284.229C378.009 282.761 379.568 280.86 382.009 279.642Z" fill="#6AFAF9"/>
<path d="M376.658 207.756C376.692 207.756 376.692 207.702 376.658 207.702C376.624 207.702 376.624 207.756 376.658 207.756Z" fill="url(#paint52_linear_2207_16977)"/>
<path d="M432.262 241.02L443.071 247.248V241.304L432.262 235.077V241.02Z" fill="white"/>
<path d="M421.398 234.759L427.906 238.51V236.913L421.398 233.162V234.759Z" fill="white"/>
<path d="M436.57 253.762L443.078 257.514V250.356L436.57 246.608V253.762Z" fill="white"/>
<path d="M436.57 265.472L443.078 269.224V262.066L436.57 258.318V265.472Z" fill="white"/>
<path d="M436.57 277.183L443.078 280.935V273.777L436.57 270.029V277.183Z" fill="white"/>
<path d="M377.41 217.271L389.565 224.273V223.194L377.41 216.192V217.271Z" fill="white"/>
<path d="M377.41 219.771L389.565 226.773V225.694L377.41 218.688V219.771Z" fill="white"/>
<path d="M377.41 222.268L389.565 229.269V228.19L377.41 221.188V222.268Z" fill="white"/>
<path d="M377.41 224.768L389.565 231.769V230.69L377.41 223.688V224.768Z" fill="white"/>
<path d="M410.535 228.502L417.043 232.253V230.653L410.535 226.905V228.502Z" fill="white"/>
<path d="M399.676 222.244L406.18 225.992V224.395L399.676 220.647V222.244Z" fill="white"/>
<path d="M388.812 215.986L395.317 219.734V218.138L388.812 214.39V215.986Z" fill="white"/>
<path d="M377.949 209.725L384.457 213.476V211.879L377.949 208.128V209.725Z" fill="white"/>
<g style="mix-blend-mode:screen">
<path d="M366.906 283.062L451.996 332.088V234.038L366.906 185.012V283.062Z" fill="#CB91FF"/>
</g>
<path d="M390.9 209.261C391.574 208.872 391.575 207.613 390.901 206.448C390.227 205.283 389.134 204.654 388.459 205.043C387.785 205.431 387.785 206.69 388.458 207.855C389.132 209.02 390.225 209.649 390.9 209.261Z" fill="#CB91FF" stroke="white" stroke-miterlimit="10"/>
<path d="M382.279 204.298C382.953 203.909 382.954 202.65 382.28 201.485C381.606 200.32 380.513 199.691 379.838 200.08C379.164 200.468 379.163 201.727 379.837 202.892C380.511 204.057 381.604 204.686 382.279 204.298Z" fill="#CB91FF" stroke="white" stroke-miterlimit="10"/>
<path d="M373.658 199.326C374.332 198.938 374.332 197.678 373.659 196.514C372.985 195.349 371.892 194.719 371.217 195.108C370.543 195.497 370.542 196.756 371.216 197.921C371.89 199.086 372.983 199.715 373.658 199.326Z" fill="#CB91FF" stroke="white" stroke-miterlimit="10"/>
<path d="M48.6124 436C50.3702 436 51.7952 434.578 51.7952 432.824C51.7952 431.07 50.3702 429.647 48.6124 429.647C46.8546 429.647 45.4297 431.07 45.4297 432.824C45.4297 434.578 46.8546 436 48.6124 436Z" fill="#C685FF"/>
<path d="M25.796 434.836C27.5538 434.836 28.9788 433.414 28.9788 431.66C28.9788 429.905 27.5538 428.483 25.796 428.483C24.0382 428.483 22.6133 429.905 22.6133 431.66C22.6133 433.414 24.0382 434.836 25.796 434.836Z" fill="#C685FF"/>
<path d="M59.7765 424.478C61.5343 424.478 62.9592 423.056 62.9592 421.302C62.9592 419.548 61.5343 418.126 59.7765 418.126C58.0187 418.126 56.5938 419.548 56.5938 421.302C56.5938 423.056 58.0187 424.478 59.7765 424.478Z" fill="#C685FF"/>
<path d="M18.4288 422.574C20.1866 422.574 21.6116 421.152 21.6116 419.398C21.6116 417.644 20.1866 416.222 18.4288 416.222C16.6711 416.222 15.2461 417.644 15.2461 419.398C15.2461 421.152 16.6711 422.574 18.4288 422.574Z" fill="#C685FF"/>
<path d="M31.1123 414.483C31.3055 414.845 31.4207 415.102 31.4207 415.102C31.4207 415.102 19.8625 416.858 18.4695 417.934C18.1542 418.177 17.8017 418.346 17.4492 418.465C20.5743 414.629 26.9466 414.987 31.1123 414.483Z" fill="#BE74FF"/>
<path d="M16.2334 416.766C18.0196 414.99 28.6423 411.933 28.6423 411.933C29.6253 411.939 30.6252 413.563 31.1166 414.483C26.951 414.987 20.5787 414.629 17.4536 418.464C16.2503 418.863 15.0199 418.65 15.0199 418.65C15.0199 418.65 14.4505 418.539 16.2367 416.763L16.2334 416.766Z" fill="#F3E4FF"/>
<path d="M46.7733 415.708C46.5801 416.07 46.4648 416.327 46.4648 416.327C46.4648 416.327 58.023 418.083 59.4161 419.158C59.7313 419.402 60.0839 419.571 60.4364 419.689C57.3112 415.853 50.939 416.212 46.7733 415.708Z" fill="#BE74FF"/>
<path d="M61.6567 417.988C59.8705 416.212 49.2478 413.154 49.2478 413.154C48.2648 413.161 47.2649 414.785 46.7734 415.705C50.9391 416.209 57.3114 415.85 60.4365 419.686C61.6398 420.085 62.8702 419.872 62.8702 419.872C62.8702 419.872 63.4396 419.76 61.6533 417.985L61.6567 417.988Z" fill="#F3E4FF"/>
<path d="M38.6845 417.531C38.2269 417.748 37.9219 417.913 37.9219 417.913C37.9219 417.913 47.9955 428.152 48.5717 430.236C48.7005 430.71 48.9242 431.132 49.1852 431.508C48.9445 425.433 42.4096 421.093 38.6845 417.531Z" fill="#BE74FF"/>
<path d="M51.6349 430.733C51.1909 427.672 43.0018 416.845 43.0018 416.845C42.029 416.127 39.8462 416.987 38.6836 417.535C42.4087 421.096 48.9402 425.436 49.1843 431.511C50.0723 432.79 51.4417 433.487 51.4417 433.487C51.4417 433.487 52.0857 433.795 51.6383 430.733H51.6349Z" fill="#F3E4FF"/>
<path d="M37.1608 417.531C37.6184 417.748 37.9235 417.913 37.9235 417.913C37.9235 417.913 27.8499 428.152 27.2737 430.236C27.1449 430.71 26.9211 431.132 26.6602 431.508C26.9008 425.433 33.4358 421.093 37.1608 417.531Z" fill="#BE74FF"/>
<path d="M24.2045 430.733C24.6485 427.672 32.8376 416.845 32.8376 416.845C33.8104 416.127 35.9932 416.987 37.1558 417.535C33.4307 421.096 26.8992 425.436 26.6551 431.511C25.7671 432.79 24.3977 433.487 24.3977 433.487C24.3977 433.487 23.7537 433.795 24.2011 430.733H24.2045Z" fill="#F3E4FF"/>
<path d="M38.5032 420.643C44.4916 420.643 49.3462 417.845 49.3462 414.395C49.3462 410.945 44.4916 408.147 38.5032 408.147C32.5147 408.147 27.6602 410.945 27.6602 414.395C27.6602 417.845 32.5147 420.643 38.5032 420.643Z" fill="#9822FF"/>
<path d="M38.5015 419.27C44.0856 419.27 48.6124 416.662 48.6124 413.445C48.6124 410.228 44.0856 407.62 38.5015 407.62C32.9174 407.62 28.3906 410.228 28.3906 413.445C28.3906 416.662 32.9174 419.27 38.5015 419.27Z" fill="#CB91FF"/>
<path d="M38.5031 418.157C43.0201 418.157 46.6819 416.048 46.6819 413.445C46.6819 410.843 43.0201 408.733 38.5031 408.733C33.986 408.733 30.3242 410.843 30.3242 413.445C30.3242 416.048 33.986 418.157 38.5031 418.157Z" fill="white"/>
<path d="M36.3357 378.307C37.5322 377.617 39.471 377.617 40.6675 378.307C41.2641 378.652 41.5657 379.101 41.5657 379.555V411.679C41.5657 412.132 41.2674 412.582 40.6675 412.927C39.471 413.617 37.5322 413.617 36.3357 412.927C35.7392 412.582 35.4375 412.132 35.4375 411.679V379.555C35.4375 379.101 35.7358 378.652 36.3357 378.307Z" fill="url(#paint53_linear_2207_16977)"/>
<path d="M41.3086 361.093L41.7967 361.374C41.6475 361.255 41.4882 361.16 41.3086 361.093Z" fill="white"/>
<path d="M28.2573 353.736V353.76L29.4436 366.938L30.2402 375.804L32.6501 402.675C32.6501 403.72 32.9789 404.488 33.5178 404.921L33.5415 404.938C34.2194 405.462 35.2261 405.455 36.3514 404.806L67.1654 387.051C69.2126 385.874 70.8735 383.005 70.8735 380.644V379.866C70.8735 378.689 70.4566 377.857 69.7854 377.471C69.1177 377.086 68.189 377.143 67.1654 377.732L44.8048 390.616C42.7576 391.8 41.1001 390.843 41.1001 388.478L39.124 370.669L38.1546 361.915L36.7073 348.882C36.7073 348.402 36.6361 347.979 36.5039 347.624C36.1413 346.579 35.2769 346.085 34.1821 346.291C33.8127 346.355 33.4127 346.511 33.0026 346.748L31.962 347.347C29.9182 348.517 28.2641 351.375 28.2539 353.729L28.2573 353.736Z" fill="#CB91FF"/>
<path d="M0.0288073 337.497L4.41821 386.408C4.41821 387.515 4.78089 388.309 5.38422 388.719L5.64182 388.868H5.6486L33.5272 404.925C32.9849 404.492 32.6595 403.724 32.6595 402.679L30.2496 375.808L29.4531 366.942L28.2667 353.764V353.74C28.2667 353.388 28.1888 348.818 24.2129 346.883C21.8606 345.744 14.8646 342.243 9.24825 339.438C4.97409 337.294 1.49985 335.552 1.49985 335.552C1.49985 335.552 0.801613 335.105 0.360978 335.559C0.103376 335.819 -0.0660987 336.377 0.0321968 337.5L0.0288073 337.497Z" fill="url(#paint54_linear_2207_16977)"/>
<path d="M0.355469 335.555C0.796104 335.102 1.49434 335.548 1.49434 335.548C1.49434 335.548 4.96519 337.29 9.24274 339.435C14.8591 342.239 21.8551 345.74 24.2074 346.88C28.1833 348.818 28.2612 353.388 28.2612 353.736C28.2748 351.382 29.9289 348.524 31.9693 347.353L33.0099 346.755C33.42 346.518 33.82 346.362 34.1895 346.298C35.2843 346.088 36.1486 346.582 36.5113 347.631L36.5248 347.637C36.5248 347.637 36.8773 345.527 33.4099 343.866C29.8034 342.141 8.49705 330.376 7.78864 329.984C6.37522 329.199 2.14512 330.867 0.358858 335.558L0.355469 335.555Z" fill="#DCB4FF"/>
<path d="M38.1602 361.922L39.1296 370.676L41.1056 388.485C41.1056 390.849 42.7597 391.806 44.8104 390.623L67.1709 377.738C68.1945 377.15 69.1232 377.092 69.791 377.478L41.8005 361.374L41.3124 361.093L41.2988 361.086C40.6616 360.843 39.8413 360.951 38.9397 361.465L38.1602 361.918V361.922Z" fill="#DCB4FF"/>
<defs>
<linearGradient id="paint0_linear_2207_16977" x1="215.416" y1="304.433" x2="232.974" y2="304.433" gradientUnits="userSpaceOnUse">
<stop stop-color="#B45EFF"/>
<stop offset="1" stop-color="#C98CFF"/>
</linearGradient>
<linearGradient id="paint1_linear_2207_16977" x1="313.123" y1="325.706" x2="390.657" y2="325.706" gradientUnits="userSpaceOnUse">
<stop stop-color="#B45EFF"/>
<stop offset="1" stop-color="#C98CFF"/>
</linearGradient>
<linearGradient id="paint2_linear_2207_16977" x1="235.947" y1="347.367" x2="381.841" y2="347.367" gradientUnits="userSpaceOnUse">
<stop stop-color="#B45EFF"/>
<stop offset="1" stop-color="#C98CFF"/>
</linearGradient>
<linearGradient id="paint3_linear_2207_16977" x1="314.099" y1="316.694" x2="426.773" y2="316.694" gradientUnits="userSpaceOnUse">
<stop stop-color="#B45EFF"/>
<stop offset="1" stop-color="#C98CFF"/>
</linearGradient>
<linearGradient id="paint4_linear_2207_16977" x1="219.692" y1="345.676" x2="299.192" y2="345.676" gradientUnits="userSpaceOnUse">
<stop stop-color="#B45EFF"/>
<stop offset="1" stop-color="#C98CFF"/>
</linearGradient>
<linearGradient id="paint5_linear_2207_16977" x1="181.784" y1="387.089" x2="263.386" y2="387.089" gradientUnits="userSpaceOnUse">
<stop stop-color="#B45EFF"/>
<stop offset="1" stop-color="#C98CFF"/>
</linearGradient>
<linearGradient id="paint6_linear_2207_16977" x1="109.299" y1="344.607" x2="291.651" y2="344.607" gradientUnits="userSpaceOnUse">
<stop stop-color="#B45EFF"/>
<stop offset="1" stop-color="#C98CFF"/>
</linearGradient>
<linearGradient id="paint7_linear_2207_16977" x1="113.416" y1="307.071" x2="262.547" y2="307.071" gradientUnits="userSpaceOnUse">
<stop stop-color="#B45EFF"/>
<stop offset="1" stop-color="#C98CFF"/>
</linearGradient>
<linearGradient id="paint8_linear_2207_16977" x1="78.7417" y1="325.022" x2="270.798" y2="325.022" gradientUnits="userSpaceOnUse">
<stop stop-color="#B45EFF"/>
<stop offset="1" stop-color="#C98CFF"/>
</linearGradient>
<linearGradient id="paint9_linear_2207_16977" x1="81.9428" y1="332.052" x2="279.09" y2="332.052" gradientUnits="userSpaceOnUse">
<stop stop-color="#B45EFF"/>
<stop offset="1" stop-color="#C98CFF"/>
</linearGradient>
<linearGradient id="paint10_linear_2207_16977" x1="381.088" y1="113.444" x2="133.386" y2="210.333" gradientUnits="userSpaceOnUse">
<stop stop-color="#B45EFF"/>
<stop offset="1" stop-color="#CB91FF"/>
</linearGradient>
<radialGradient id="paint11_radial_2207_16977" cx="0" cy="0" r="1" gradientUnits="userSpaceOnUse" gradientTransform="translate(-43.3656 162.361) rotate(29.9491) scale(35.0193 30.4355)">
<stop stop-color="#C98CFF"/>
<stop offset="1" stop-color="#B45EFF"/>
</radialGradient>
<radialGradient id="paint12_radial_2207_16977" cx="0" cy="0" r="1" gradientUnits="userSpaceOnUse" gradientTransform="translate(-55.1456 172.6) rotate(29.949) scale(23.3349 20.2805)">
<stop stop-color="#C98CFF"/>
<stop offset="1" stop-color="#B45EFF"/>
</radialGradient>
<linearGradient id="paint13_linear_2207_16977" x1="19.7808" y1="368.924" x2="128.402" y2="454.885" gradientUnits="userSpaceOnUse">
<stop stop-color="#BD72FF"/>
<stop offset="0.03" stop-color="#C079FF" stop-opacity="0.94"/>
<stop offset="0.17" stop-color="#CD96FF" stop-opacity="0.69"/>
<stop offset="0.3" stop-color="#D9AEFF" stop-opacity="0.48"/>
<stop offset="0.42" stop-color="#E3C2FF" stop-opacity="0.31"/>
<stop offset="0.55" stop-color="#EAD2FF" stop-opacity="0.17"/>
<stop offset="0.66" stop-color="#EFDDFF" stop-opacity="0.08"/>
<stop offset="0.77" stop-color="#F2E4FF" stop-opacity="0.02"/>
<stop offset="0.85" stop-color="#F4E7FF" stop-opacity="0"/>
</linearGradient>
<linearGradient id="paint14_linear_2207_16977" x1="31.8776" y1="378.456" x2="110.515" y2="440.69" gradientUnits="userSpaceOnUse">
<stop stop-color="#BD72FF"/>
<stop offset="0.03" stop-color="#C079FF" stop-opacity="0.94"/>
<stop offset="0.17" stop-color="#CD96FF" stop-opacity="0.69"/>
<stop offset="0.3" stop-color="#D9AEFF" stop-opacity="0.48"/>
<stop offset="0.42" stop-color="#E3C2FF" stop-opacity="0.31"/>
<stop offset="0.55" stop-color="#EAD2FF" stop-opacity="0.17"/>
<stop offset="0.66" stop-color="#EFDDFF" stop-opacity="0.08"/>
<stop offset="0.77" stop-color="#F2E4FF" stop-opacity="0.02"/>
<stop offset="0.85" stop-color="#F4E7FF" stop-opacity="0"/>
</linearGradient>
<linearGradient id="paint15_linear_2207_16977" x1="47.6381" y1="356.74" x2="63.6094" y2="356.74" gradientUnits="userSpaceOnUse">
<stop stop-color="#8634BE"/>
<stop offset="0.2" stop-color="#8C30D2"/>
<stop offset="0.5" stop-color="#942CEB"/>
<stop offset="0.77" stop-color="#9929F9"/>
<stop offset="1" stop-color="#9B29FF"/>
</linearGradient>
<linearGradient id="paint16_linear_2207_16977" x1="56.0049" y1="360.296" x2="77.0333" y2="360.296" gradientUnits="userSpaceOnUse">
<stop stop-color="#8634BE"/>
<stop offset="0.2" stop-color="#8C30D2"/>
<stop offset="0.5" stop-color="#942CEB"/>
<stop offset="0.77" stop-color="#9929F9"/>
<stop offset="1" stop-color="#9B29FF"/>
</linearGradient>
<linearGradient id="paint17_linear_2207_16977" x1="37.1259" y1="268.479" x2="48.7107" y2="297.572" gradientUnits="userSpaceOnUse">
<stop stop-color="#EFE1FC"/>
<stop offset="0.06" stop-color="#EBDCF9"/>
<stop offset="0.41" stop-color="#DCC3EE"/>
<stop offset="0.73" stop-color="#D3B5E8"/>
<stop offset="1" stop-color="#D0B0E6"/>
</linearGradient>
<linearGradient id="paint18_linear_2207_16977" x1="36.3789" y1="289.357" x2="70.2194" y2="290.746" gradientUnits="userSpaceOnUse">
<stop stop-color="#EFE1FC"/>
<stop offset="0.06" stop-color="#EBDCF9"/>
<stop offset="0.41" stop-color="#DCC3EE"/>
<stop offset="0.73" stop-color="#D3B5E8"/>
<stop offset="1" stop-color="#D0B0E6"/>
</linearGradient>
<linearGradient id="paint19_linear_2207_16977" x1="45.4985" y1="292.029" x2="76.0651" y2="292.029" gradientUnits="userSpaceOnUse">
<stop stop-color="#EFE1FC"/>
<stop offset="0.06" stop-color="#EBDCF9"/>
<stop offset="0.41" stop-color="#DCC3EE"/>
<stop offset="0.73" stop-color="#D3B5E8"/>
<stop offset="1" stop-color="#D0B0E6"/>
</linearGradient>
<linearGradient id="paint20_linear_2207_16977" x1="90.2297" y1="272.559" x2="70.9929" y2="291.683" gradientUnits="userSpaceOnUse">
<stop stop-color="#EFE1FC"/>
<stop offset="0.06" stop-color="#EBDCF9"/>
<stop offset="0.41" stop-color="#DCC3EE"/>
<stop offset="0.73" stop-color="#D3B5E8"/>
<stop offset="1" stop-color="#D0B0E6"/>
</linearGradient>
<linearGradient id="paint21_linear_2207_16977" x1="62.0049" y1="262.699" x2="61.7314" y2="272.955" gradientUnits="userSpaceOnUse">
<stop stop-color="#EFE1FC"/>
<stop offset="0.06" stop-color="#EBDCF9"/>
<stop offset="0.41" stop-color="#DCC3EE"/>
<stop offset="0.73" stop-color="#D3B5E8"/>
<stop offset="1" stop-color="#D0B0E6"/>
</linearGradient>
<linearGradient id="paint22_linear_2207_16977" x1="412.212" y1="394.166" x2="368.884" y2="394.166" gradientUnits="userSpaceOnUse">
<stop offset="0.15" stop-color="#CA8FFF"/>
<stop offset="0.26" stop-color="#BA6BFF"/>
<stop offset="0.32" stop-color="#B45EFF"/>
<stop offset="0.56" stop-color="#B96AFF"/>
<stop offset="0.99" stop-color="#C88AFF"/>
<stop offset="1" stop-color="#C98CFF"/>
</linearGradient>
<linearGradient id="paint23_linear_2207_16977" x1="392.794" y1="381.096" x2="381.462" y2="394.409" gradientUnits="userSpaceOnUse">
<stop stop-color="#B45EFF"/>
<stop offset="1" stop-color="#C98CFF"/>
</linearGradient>
<linearGradient id="paint24_linear_2207_16977" x1="375.145" y1="385.063" x2="403.132" y2="385.063" gradientUnits="userSpaceOnUse">
<stop stop-color="#B45EFF"/>
<stop offset="1" stop-color="#C98CFF"/>
</linearGradient>
<linearGradient id="paint25_linear_2207_16977" x1="402.413" y1="380.551" x2="378.663" y2="388.658" gradientUnits="userSpaceOnUse">
<stop stop-color="#B45EFF"/>
<stop offset="1" stop-color="#C98CFF"/>
</linearGradient>
<linearGradient id="paint26_linear_2207_16977" x1="384.621" y1="386.03" x2="393.651" y2="386.03" gradientUnits="userSpaceOnUse">
<stop stop-color="#B45EFF"/>
<stop offset="1" stop-color="#C98CFF"/>
</linearGradient>
<linearGradient id="paint27_linear_2207_16977" x1="382.621" y1="381.565" x2="395.65" y2="381.565" gradientUnits="userSpaceOnUse">
<stop stop-color="#B663FF"/>
<stop offset="1" stop-color="#C98CFF"/>
</linearGradient>
<linearGradient id="paint28_linear_2207_16977" x1="380.618" y1="377.1" x2="397.653" y2="377.1" gradientUnits="userSpaceOnUse">
<stop stop-color="#B867FF"/>
<stop offset="1" stop-color="#C98DFF"/>
</linearGradient>
<linearGradient id="paint29_linear_2207_16977" x1="378.617" y1="372.639" x2="399.655" y2="372.639" gradientUnits="userSpaceOnUse">
<stop stop-color="#BA6CFF"/>
<stop offset="1" stop-color="#CA8DFF"/>
</linearGradient>
<linearGradient id="paint30_linear_2207_16977" x1="376.613" y1="368.174" x2="401.655" y2="368.174" gradientUnits="userSpaceOnUse">
<stop stop-color="#BC71FF"/>
<stop offset="1" stop-color="#CA8EFF"/>
</linearGradient>
<linearGradient id="paint31_linear_2207_16977" x1="374.609" y1="363.712" x2="403.657" y2="363.712" gradientUnits="userSpaceOnUse">
<stop stop-color="#BE75FF"/>
<stop offset="1" stop-color="#CA8EFF"/>
</linearGradient>
<linearGradient id="paint32_linear_2207_16977" x1="372.609" y1="359.248" x2="405.66" y2="359.248" gradientUnits="userSpaceOnUse">
<stop stop-color="#C17AFF"/>
<stop offset="1" stop-color="#CA8FFF"/>
</linearGradient>
<linearGradient id="paint33_linear_2207_16977" x1="370.606" y1="354.782" x2="407.66" y2="354.782" gradientUnits="userSpaceOnUse">
<stop stop-color="#C37EFF"/>
<stop offset="1" stop-color="#CA8FFF"/>
</linearGradient>
<linearGradient id="paint34_linear_2207_16977" x1="368.609" y1="350.32" x2="409.666" y2="350.32" gradientUnits="userSpaceOnUse">
<stop stop-color="#C583FF"/>
<stop offset="1" stop-color="#CA90FF"/>
</linearGradient>
<linearGradient id="paint35_linear_2207_16977" x1="366.605" y1="345.855" x2="411.665" y2="345.855" gradientUnits="userSpaceOnUse">
<stop stop-color="#C788FF"/>
<stop offset="1" stop-color="#CB90FF"/>
</linearGradient>
<linearGradient id="paint36_linear_2207_16977" x1="364.605" y1="341.394" x2="413.669" y2="341.394" gradientUnits="userSpaceOnUse">
<stop stop-color="#C98CFF"/>
<stop offset="1" stop-color="#CB91FF"/>
</linearGradient>
<linearGradient id="paint37_linear_2207_16977" x1="193.198" y1="319.532" x2="157.191" y2="319.532" gradientUnits="userSpaceOnUse">
<stop offset="0.15" stop-color="#CA8FFF"/>
<stop offset="0.26" stop-color="#BA6BFF"/>
<stop offset="0.32" stop-color="#B45EFF"/>
<stop offset="0.56" stop-color="#B96AFF"/>
<stop offset="0.99" stop-color="#C88AFF"/>
<stop offset="1" stop-color="#C98CFF"/>
</linearGradient>
<linearGradient id="paint38_linear_2207_16977" x1="177.061" y1="308.675" x2="167.644" y2="319.734" gradientUnits="userSpaceOnUse">
<stop stop-color="#B45EFF"/>
<stop offset="1" stop-color="#C98CFF"/>
</linearGradient>
<linearGradient id="paint39_linear_2207_16977" x1="162.395" y1="311.969" x2="185.65" y2="311.969" gradientUnits="userSpaceOnUse">
<stop stop-color="#B45EFF"/>
<stop offset="1" stop-color="#C98CFF"/>
</linearGradient>
<linearGradient id="paint40_linear_2207_16977" x1="185.052" y1="308.218" x2="165.317" y2="314.957" gradientUnits="userSpaceOnUse">
<stop stop-color="#B45EFF"/>
<stop offset="1" stop-color="#C98CFF"/>
</linearGradient>
<linearGradient id="paint41_linear_2207_16977" x1="170.273" y1="312.771" x2="177.774" y2="312.771" gradientUnits="userSpaceOnUse">
<stop stop-color="#B45EFF"/>
<stop offset="1" stop-color="#C98CFF"/>
</linearGradient>
<linearGradient id="paint42_linear_2207_16977" x1="168.609" y1="309.063" x2="179.439" y2="309.063" gradientUnits="userSpaceOnUse">
<stop stop-color="#B663FF"/>
<stop offset="1" stop-color="#C98CFF"/>
</linearGradient>
<linearGradient id="paint43_linear_2207_16977" x1="166.945" y1="305.354" x2="181.1" y2="305.354" gradientUnits="userSpaceOnUse">
<stop stop-color="#B867FF"/>
<stop offset="1" stop-color="#C98DFF"/>
</linearGradient>
<linearGradient id="paint44_linear_2207_16977" x1="165.285" y1="301.646" x2="182.765" y2="301.646" gradientUnits="userSpaceOnUse">
<stop stop-color="#BA6CFF"/>
<stop offset="1" stop-color="#CA8DFF"/>
</linearGradient>
<linearGradient id="paint45_linear_2207_16977" x1="163.617" y1="297.935" x2="184.425" y2="297.935" gradientUnits="userSpaceOnUse">
<stop stop-color="#BC71FF"/>
<stop offset="1" stop-color="#CA8EFF"/>
</linearGradient>
<linearGradient id="paint46_linear_2207_16977" x1="161.957" y1="294.228" x2="186.093" y2="294.228" gradientUnits="userSpaceOnUse">
<stop stop-color="#BE75FF"/>
<stop offset="1" stop-color="#CA8EFF"/>
</linearGradient>
<linearGradient id="paint47_linear_2207_16977" x1="160.289" y1="290.517" x2="187.751" y2="290.517" gradientUnits="userSpaceOnUse">
<stop stop-color="#C17AFF"/>
<stop offset="1" stop-color="#CA8FFF"/>
</linearGradient>
<linearGradient id="paint48_linear_2207_16977" x1="158.629" y1="286.81" x2="189.416" y2="286.81" gradientUnits="userSpaceOnUse">
<stop stop-color="#C37EFF"/>
<stop offset="1" stop-color="#CA8FFF"/>
</linearGradient>
<linearGradient id="paint49_linear_2207_16977" x1="156.965" y1="283.099" x2="191.08" y2="283.099" gradientUnits="userSpaceOnUse">
<stop stop-color="#C583FF"/>
<stop offset="1" stop-color="#CA90FF"/>
</linearGradient>
<linearGradient id="paint50_linear_2207_16977" x1="155.301" y1="279.392" x2="192.745" y2="279.392" gradientUnits="userSpaceOnUse">
<stop stop-color="#C788FF"/>
<stop offset="1" stop-color="#CB90FF"/>
</linearGradient>
<linearGradient id="paint51_linear_2207_16977" x1="153.637" y1="275.681" x2="194.41" y2="275.681" gradientUnits="userSpaceOnUse">
<stop stop-color="#C98CFF"/>
<stop offset="1" stop-color="#CB91FF"/>
</linearGradient>
<linearGradient id="paint52_linear_2207_16977" x1="376.685" y1="207.729" x2="376.635" y2="207.729" gradientUnits="userSpaceOnUse">
<stop stop-color="#B45EFF"/>
<stop offset="1" stop-color="#C98CFF"/>
</linearGradient>
<linearGradient id="paint53_linear_2207_16977" x1="41.5657" y1="395.615" x2="35.4375" y2="395.615" gradientUnits="userSpaceOnUse">
<stop stop-color="#B45EFF"/>
<stop offset="1" stop-color="#C98CFF"/>
</linearGradient>
<linearGradient id="paint54_linear_2207_16977" x1="32.0799" y1="433.443" x2="-0.404443" y2="301.793" gradientUnits="userSpaceOnUse">
<stop stop-color="#B45EFF"/>
<stop offset="1" stop-color="#C98CFF"/>
</linearGradient>
</defs>
</svg>
