<svg width="100" height="100" viewBox="0 0 100 100" fill="none" xmlns="http://www.w3.org/2000/svg">
<path d="M49.5034 45.2027C34.8664 45.2027 23 40.4557 23 34.6014C23 28.7471 34.8664 24 49.5034 24C64.1403 24 76.0068 28.7447 76.0068 34.6014C76.0068 37.3035 73.4789 39.7701 69.3185 41.6407" stroke="black" stroke-width="3" stroke-linecap="round" stroke-linejoin="round"/>
<path d="M76.0068 45.2027V34.6013" stroke="black" stroke-width="3" stroke-linecap="round" stroke-linejoin="round"/>
<path d="M23 34.6013V48.7365C23 53.5966 31.1795 57.6887 42.3322 58.9444" stroke="black" stroke-width="3" stroke-linecap="round" stroke-linejoin="round"/>
<path d="M23 48.7363V62.8715C23 67.7387 31.2007 71.8379 42.3769 73.0841" stroke="black" stroke-width="3" stroke-linecap="round" stroke-linejoin="round"/>
<path d="M58.3378 61.1048C58.3378 62.042 58.7102 62.9409 59.3729 63.6036C60.0356 64.2663 60.9344 64.6386 61.8716 64.6386C62.8088 64.6386 63.7077 64.2663 64.3704 63.6036C65.0331 62.9409 65.4054 62.042 65.4054 61.1048C65.4054 60.1676 65.0331 59.2688 64.3704 58.6061C63.7077 57.9434 62.8088 57.571 61.8716 57.571C60.9344 57.571 60.0356 57.9434 59.3729 58.6061C58.7102 59.2688 58.3378 60.1676 58.3378 61.1048Z" stroke="#00CCF5" stroke-width="3" stroke-linecap="round" stroke-linejoin="round"/>
<path d="M64.873 47.4385L65.9143 50.8592C66.0856 51.4277 66.4667 51.9098 66.9803 52.2077C67.4939 52.5056 68.1015 52.5971 68.68 52.4636L72.1479 51.6602C72.8056 51.5114 73.4937 51.5772 74.1113 51.8481C74.7288 52.119 75.2433 52.5806 75.5793 53.1654C75.9153 53.7501 76.055 54.4271 75.978 55.097C75.9011 55.767 75.6114 56.3946 75.1516 56.8879L72.7227 59.5005C72.3173 59.9364 72.092 60.5096 72.092 61.1049C72.092 61.7001 72.3173 62.2733 72.7227 62.7092L75.1516 65.3266C75.6104 65.82 75.8991 66.4474 75.9755 67.1168C76.0519 67.7862 75.912 68.4625 75.5762 69.0466C75.2404 69.6308 74.7264 70.092 74.1095 70.3629C73.4926 70.6338 72.8051 70.7 72.1479 70.5518L68.68 69.7485C68.1015 69.615 67.4939 69.7065 66.9803 70.0044C66.4667 70.3023 66.0856 70.7844 65.9143 71.3528L64.873 74.7665C64.6795 75.4121 64.283 75.9781 63.7423 76.3804C63.2016 76.7828 62.5456 77.0001 61.8716 77.0001C61.1976 77.0001 60.5416 76.7828 60.001 76.3804C59.4603 75.9781 59.0638 75.4121 58.8703 74.7665L57.829 71.3458C57.6576 70.7773 57.2765 70.2953 56.763 69.9973C56.2494 69.6994 55.6417 69.6079 55.0632 69.7414L51.5954 70.5448C50.9381 70.6929 50.2506 70.6267 49.6337 70.3558C49.0168 70.085 48.5028 69.6237 48.167 69.0396C47.8312 68.4554 47.6913 67.7791 47.7677 67.1097C47.8441 66.4403 48.1329 65.8129 48.5917 65.3195L51.0205 62.7021C51.4259 62.2662 51.6512 61.6931 51.6512 61.0978C51.6512 60.5025 51.4259 59.9294 51.0205 59.4935L48.5917 56.8761C48.1318 56.3828 47.8422 55.7552 47.7652 55.0852C47.6882 54.4153 47.828 53.7383 48.1639 53.1536C48.4999 52.5689 49.0144 52.1072 49.632 51.8363C50.2495 51.5655 50.9376 51.4996 51.5954 51.6485L55.0632 52.4518C55.6417 52.5853 56.2494 52.4938 56.763 52.1959C57.2765 51.898 57.6576 51.4159 57.829 50.8475L58.8703 47.4268C59.065 46.7815 59.4627 46.2163 60.0041 45.815C60.5456 45.4137 61.202 45.1977 61.876 45.199C62.55 45.2003 63.2056 45.4189 63.7454 45.8224C64.2853 46.2258 64.6807 46.7926 64.873 47.4385Z" stroke="#00CCF5" stroke-width="3" stroke-linecap="round" stroke-linejoin="round"/>
</svg>
