<svg width="100" height="100" viewBox="0 0 100 100" fill="none" xmlns="http://www.w3.org/2000/svg">
<path d="M38 19.5C38 21.4891 38.8429 23.3968 40.3431 24.8033C41.8434 26.2098 43.8783 27 46 27C48.1217 27 50.1566 26.2098 51.6569 24.8033C53.1571 23.3968 54 21.4891 54 19.5C54 17.5109 53.1571 15.6032 51.6569 14.1967C50.1566 12.7902 48.1217 12 46 12C43.8783 12 41.8434 12.7902 40.3431 14.1967C38.8429 15.6032 38 17.5109 38 19.5Z" stroke="#00CCF5" stroke-width="3" stroke-linecap="round" stroke-linejoin="round"/>
<path d="M79 19.5999V17.0666C79 15.7228 78.4688 14.4341 77.5232 13.484C76.5776 12.5338 75.2952 12 73.9579 12C72.6207 12 71.3382 12.5338 70.3927 13.484C69.4471 14.4341 68.9159 15.7228 68.9159 17.0666V19.5999C68.9106 24.3013 67.0496 28.8087 63.7413 32.1331C60.4329 35.4575 55.9474 37.3275 51.2687 37.3329H34.2938C33.4234 37.3301 32.5683 37.1025 31.8107 36.6719C31.0531 36.2413 30.4185 35.6221 29.9677 34.8739L25.3391 27.1254C24.6441 25.9876 23.5302 25.1715 22.2396 24.8544C20.949 24.5373 19.5861 24.7449 18.447 25.432C17.3079 26.1192 16.4847 27.2303 16.1564 28.524C15.8281 29.8176 16.0212 31.1892 16.6937 32.3406L21.3189 40.1094C22.6726 42.3504 24.577 44.2041 26.8492 45.4924C29.1213 46.7807 31.6849 47.4603 34.2938 47.466H36.1426V61.4836L26.5896 80.6656C25.9914 81.8678 25.8929 83.2596 26.3159 84.5347C26.7389 85.8098 27.6486 86.8639 28.845 87.465C30.0414 88.0661 31.4264 88.165 32.6954 87.7399C33.9643 87.3149 35.0133 86.4007 35.6115 85.1985L44.3006 67.7323H56.3108C57.648 67.7323 58.9305 68.2661 59.876 69.2163C60.8216 70.1665 61.3528 71.4552 61.3528 72.7989V77.8655C61.3528 79.2092 61.884 80.4979 62.8296 81.4481C63.7752 82.3983 65.0576 82.9321 66.3949 82.9321C67.7321 82.9321 69.0146 82.3983 69.9601 81.4481C70.9057 80.4979 71.4369 79.2092 71.4369 77.8655V72.7989C71.4325 68.7691 69.8374 64.9055 67.0017 62.056C64.1659 59.2065 60.3211 57.6037 56.3108 57.5992V46.9796C62.6766 45.7909 68.4287 42.4036 72.572 37.4038C76.7152 32.404 78.989 26.1062 79 19.5999Z" stroke="black" stroke-width="3" stroke-linecap="round" stroke-linejoin="round"/>
</svg>
