<svg width="100" height="100" viewBox="0 0 100 100" fill="none" xmlns="http://www.w3.org/2000/svg">
<path d="M50 30.4944C58.7245 28.7713 65.7442 21.7861 67.5019 13C69.2558 21.7898 76.2792 28.7713 85 30.4944M85 30.5056C76.2792 32.2287 69.2558 39.2102 67.4981 48C65.7441 39.2102 58.7245 32.2287 50 30.5056" stroke="#00CCF5" stroke-width="3" stroke-linecap="round" stroke-linejoin="round"/>
<path d="M57.7116 72.0664L73.4324 62.9499C74.2327 62.4848 75.1164 62.1827 76.033 62.061C76.9496 61.9392 77.8811 62.0002 78.7742 62.2404C79.6673 62.4806 80.5045 62.8953 81.2379 63.4608C81.9714 64.0263 82.5866 64.7314 83.0486 65.536C85.0859 69.0821 83.6783 73.3316 80.4704 75.1921L59.6156 87.2854C55.4483 89.7041 50.8588 90.6493 46.1692 89.9311L34.5565 88.1301L28 92" stroke="black" stroke-width="3" stroke-miterlimit="10" stroke-linecap="round" stroke-linejoin="round"/>
<path d="M13 74L33.5498 61.9436C37.074 59.8688 41.1492 58.7748 45.143 59.0389L54.4545 59.65C58.2635 59.5859 60.9371 62.8037 61 66.6854C60.6931 69.9145 58.367 72.5929 55.0647 72.7966L42.9538 72.5212" stroke="black" stroke-width="3" stroke-miterlimit="10" stroke-linecap="round" stroke-linejoin="round"/>
</svg>
