<svg width="100" height="100" viewBox="0 0 100 100" fill="none" xmlns="http://www.w3.org/2000/svg">
<path d="M51.6443 6.16313L55.8138 17.171H63.9257C64.3344 17.1556 64.7379 17.2666 65.0811 17.489C65.4244 17.7113 65.6907 18.0341 65.8437 18.4133C65.9967 18.7926 66.029 19.2098 65.9362 19.6081C65.8434 20.0064 65.63 20.3663 65.325 20.6389L58.2839 25.5466L62.1857 34.5062C62.3565 34.9166 62.3943 35.3701 62.2939 35.8031C62.1934 36.2361 61.9598 36.6266 61.6258 36.9199C61.2918 37.2131 60.8743 37.3943 60.432 37.4379C59.9896 37.4815 59.5448 37.3853 59.16 37.1629L49.7339 31.8617L40.3038 37.1629C39.919 37.3853 39.4741 37.4815 39.0318 37.4379C38.5895 37.3943 38.1719 37.2131 37.838 36.9199C37.504 36.6266 37.2703 36.2361 37.1699 35.8031C37.0694 35.3701 37.1073 34.9166 37.278 34.5062L41.1799 25.5466L34.1387 20.6389C33.8317 20.3676 33.6163 20.0079 33.522 19.6092C33.4277 19.2105 33.4592 18.7924 33.6121 18.4124C33.765 18.0323 34.0319 17.7089 34.376 17.4867C34.7201 17.2644 35.1246 17.1541 35.534 17.171H43.6459L47.8195 6.16313C48.001 5.81261 48.2754 5.51874 48.6127 5.31362C48.95 5.10849 49.3371 5 49.7319 5C50.1266 5 50.5138 5.10849 50.851 5.31362C51.1883 5.51874 51.4627 5.81261 51.6443 6.16313Z" stroke="#00CCF5" stroke-width="3" stroke-linecap="round" stroke-linejoin="round"/>
<path d="M31.4574 39.2322L27.807 41.7712L31.7089 50.7308C31.8796 51.1412 31.9175 51.5947 31.817 52.0277C31.7166 52.4607 31.4829 52.8513 31.1489 53.1445C30.8149 53.4378 30.3974 53.6189 29.9551 53.6625C29.5128 53.7061 29.0679 53.6099 28.6831 53.3875L19.2611 48.0863L9.83503 53.3875C9.45022 53.6099 9.00537 53.7061 8.56305 53.6625C8.12073 53.6189 7.7032 53.4378 7.36921 53.1445C7.03522 52.8513 6.80156 52.4607 6.70112 52.0277C6.60068 51.5947 6.63851 51.1412 6.80928 50.7308L10.7111 41.7712L3.66996 36.8635C3.36299 36.5922 3.14755 36.2325 3.05325 35.8338C2.95896 35.4352 2.99043 35.0171 3.14335 34.637C3.29626 34.2569 3.56312 33.9335 3.90724 33.7113C4.25137 33.489 4.65589 33.3787 5.06521 33.3956H13.1771L17.3548 22.3877C17.5364 22.0372 17.8108 21.7434 18.148 21.5382C18.4853 21.3331 18.8724 21.2246 19.2672 21.2246C19.6619 21.2246 20.0491 21.3331 20.3863 21.5382C20.7236 21.7434 20.998 22.0372 21.1796 22.3877L25.345 33.3956H29.4294" stroke="#00CCF5" stroke-width="3" stroke-linecap="round" stroke-linejoin="round"/>
<path d="M67.9574 39.2322L71.6078 41.7712L67.71 50.7308C67.5392 51.1412 67.5014 51.5947 67.6019 52.0277C67.7023 52.4607 67.9359 52.8513 68.2699 53.1445C68.6039 53.4378 69.0215 53.6189 69.4638 53.6625C69.9061 53.7061 70.351 53.6099 70.7358 53.3875L80.1618 48.0863L89.5879 53.3875C89.9728 53.6114 90.4182 53.7088 90.8614 53.666C91.3047 53.6231 91.7232 53.4421 92.058 53.1485C92.3928 52.855 92.6269 52.4637 92.7274 52.0299C92.8278 51.596 92.7894 51.1417 92.6177 50.7308L88.7159 41.7712L95.757 36.8635C96.064 36.5922 96.2794 36.2325 96.3737 35.8338C96.468 35.4352 96.4365 35.0171 96.2836 34.637C96.1307 34.2569 95.8639 33.9335 95.5197 33.7113C95.1756 33.489 94.7711 33.3787 94.3618 33.3956H86.2498L82.0681 22.3877C81.8866 22.0372 81.6122 21.7434 81.2749 21.5382C80.9376 21.3331 80.5505 21.2246 80.1557 21.2246C79.761 21.2246 79.3738 21.3331 79.0366 21.5382C78.6993 21.7434 78.4249 22.0372 78.2434 22.3877L74.0738 33.3956H69.9854" stroke="#00CCF5" stroke-width="3" stroke-linecap="round" stroke-linejoin="round"/>
<path d="M48.3047 90.9453V95.0013" stroke="black" stroke-width="3" stroke-linecap="round" stroke-linejoin="round"/>
<path d="M40.1875 58.4961C41.8836 59.7776 43.9145 60.797 46.1598 61.4938C48.4051 62.1905 50.8189 62.5504 53.2581 62.5521C55.742 62.5274 58.1936 62.1377 60.4673 61.4063" stroke="black" stroke-width="3" stroke-linecap="round" stroke-linejoin="round"/>
<path d="M36.1328 62.5527C36.1328 64.1506 36.4475 65.7328 37.059 67.2091C37.6705 68.6854 38.5668 70.0268 39.6967 71.1567C40.8266 72.2866 42.168 73.1828 43.6443 73.7943C45.1205 74.4058 46.7028 74.7206 48.3007 74.7206C49.8986 74.7206 51.4809 74.4058 52.9572 73.7943C54.4334 73.1828 55.7748 72.2866 56.9047 71.1567C58.0346 70.0268 58.9309 68.6854 59.5424 67.2091C60.1539 65.7328 60.4686 64.1506 60.4686 62.5527C60.4686 60.9548 60.1539 59.3725 59.5424 57.8962C58.9309 56.4199 58.0346 55.0786 56.9047 53.9487C55.7748 52.8188 54.4334 51.9225 52.9572 51.311C51.4809 50.6995 49.8986 50.3848 48.3007 50.3848C46.7028 50.3848 45.1205 50.6995 43.6443 51.311C42.168 51.9225 40.8266 52.8188 39.6967 53.9487C38.5668 55.0786 37.6705 56.4199 37.059 57.8962C36.4475 59.3725 36.1328 60.9548 36.1328 62.5527Z" stroke="black" stroke-width="3" stroke-linecap="round" stroke-linejoin="round"/>
<path d="M64.5259 94.9999C63.4028 91.4603 61.2298 88.3782 58.3165 86.1933C55.4033 84.0084 51.8985 82.832 48.302 82.832C44.7054 82.832 41.2007 84.0084 38.2874 86.1933C35.3742 88.3782 33.2011 91.4603 32.0781 94.9999" stroke="black" stroke-width="3" stroke-linecap="round" stroke-linejoin="round"/>
</svg>
