<svg width="100" height="100" viewBox="0 0 100 100" fill="none" xmlns="http://www.w3.org/2000/svg">
<path d="M67.2832 51.3743C67.9576 53.2912 68.3006 55.309 68.2976 57.341" stroke="#00CCF5" stroke-width="3.2" stroke-linecap="round" stroke-linejoin="round"/>
<path d="M32.4971 57.3414C32.4971 52.5939 34.383 48.0409 37.74 44.6839C41.0969 41.3269 45.6499 39.441 50.3974 39.441C52.7488 39.4332 55.0782 39.8935 57.25 40.795C59.4217 41.6965 61.3923 43.0211 63.047 44.6918" stroke="#00CCF5" stroke-width="3.2" stroke-linecap="round" stroke-linejoin="round"/>
<path d="M50.3974 61.8164C52.869 61.8164 54.8725 59.8128 54.8725 57.3413C54.8725 54.8698 52.869 52.8662 50.3974 52.8662C47.9259 52.8662 45.9224 54.8698 45.9224 57.3413C45.9224 59.8128 47.9259 61.8164 50.3974 61.8164Z" stroke="#00CCF5" stroke-width="3.2" stroke-linecap="round" stroke-linejoin="round"/>
<path d="M53.5605 54.1791L66.8068 40.9329" stroke="#00CCF5" stroke-width="3.2" stroke-linecap="round" stroke-linejoin="round"/>
<path d="M80.2313 57.3414C80.2324 52.6905 79.1462 48.1037 77.0594 43.9473C74.9725 39.7909 71.9428 36.18 68.2121 33.4028C64.4815 30.6256 60.1532 28.7591 55.5728 27.9523C50.9924 27.1455 46.2869 27.4208 41.8318 28.7561C37.3768 30.0914 33.2956 32.4498 29.9141 35.6429C26.5327 38.8361 23.9446 42.7757 22.3565 47.147C20.7685 51.5184 20.2244 56.2005 20.7678 60.8195C21.3112 65.4385 22.9269 69.8665 25.4861 73.75H50.3974" stroke="black" stroke-width="3.2" stroke-linecap="round" stroke-linejoin="round"/>
</svg>
