<svg width="100" height="100" viewBox="0 0 100 100" fill="none" xmlns="http://www.w3.org/2000/svg">
<path d="M63.7496 22.5L57.8567 42.1429H42.1424L38.2139 30.3571H61.3924" stroke="#00CCF5" stroke-width="3" stroke-linecap="round" stroke-linejoin="round"/>
<path d="M43.1247 50.0002C42.5823 50.0002 42.1426 49.5604 42.1426 49.018C42.1426 48.4756 42.5823 48.0359 43.1247 48.0359" stroke="#00CCF5" stroke-width="3"/>
<path d="M43.125 50.0004C43.6674 50.0004 44.1071 49.5607 44.1071 49.0183C44.1071 48.4759 43.6674 48.0361 43.125 48.0361" stroke="#00CCF5" stroke-width="3"/>
<path d="M56.8747 50.0002C56.3323 50.0002 55.8926 49.5604 55.8926 49.018C55.8926 48.4756 56.3323 48.0359 56.8747 48.0359" stroke="#00CCF5" stroke-width="3"/>
<path d="M56.875 50.0004C57.4174 50.0004 57.8571 49.5607 57.8571 49.0183C57.8571 48.4759 57.4174 48.0361 56.875 48.0361" stroke="#00CCF5" stroke-width="3"/>
<path d="M70.4571 27.5782C70.8219 27.9432 71.1111 28.3765 71.3083 28.8533C71.5058 29.3301 71.6071 29.841 71.6069 30.357V53.9285C71.6069 54.9703 71.1931 55.9698 70.4563 56.7065C69.7196 57.4432 68.7201 57.857 67.6783 57.857H32.3211C31.2792 57.857 30.28 57.4432 29.5432 56.7065C28.8065 55.9698 28.3926 54.9703 28.3926 53.9285V30.357C28.3926 29.3151 28.8065 28.3159 29.5432 27.5791C30.28 26.8424 31.2792 26.4285 32.3211 26.4285" stroke="black" stroke-width="3" stroke-linecap="round" stroke-linejoin="round"/>
<path d="M75.5302 77.5003H24.4693C23.7995 77.5005 23.1408 77.3295 22.5557 77.0034C21.9706 76.6774 21.4786 76.207 21.1265 75.6374C20.7743 75.0677 20.5736 74.4174 20.5435 73.7482C20.5134 73.0791 20.6549 72.4133 20.9545 71.8143L25.7631 62.1998C26.4157 60.895 27.4188 59.7976 28.6599 59.0308C29.901 58.2636 31.3311 57.8574 32.79 57.8574H67.2095C68.6686 57.8574 70.0986 58.2636 71.3397 59.0308C72.5806 59.7976 73.5837 60.895 74.2364 62.1998L79.045 71.8143C79.3446 72.4133 79.486 73.0791 79.4559 73.7482C79.426 74.4174 79.2252 75.0677 78.8732 75.6374C78.5209 76.207 78.029 76.6774 77.444 77.0034C76.8589 77.3295 76.2002 77.5005 75.5302 77.5003Z" stroke="black" stroke-width="3" stroke-linecap="round" stroke-linejoin="round"/>
<path d="M46.0723 69.6426H53.9294" stroke="black" stroke-width="3" stroke-linecap="round" stroke-linejoin="round"/>
</svg>
