<svg width="50" height="52" viewBox="0 0 50 52" fill="none" xmlns="http://www.w3.org/2000/svg">
<g id="e17ed405-23e7-4376-b719-cafa560a3953_featured-graph-performance.svg">
<path id="Vector" opacity="0.4" d="M26.25 26.0098C26.25 25.3198 26.81 24.7598 27.5 24.7598H31.25C31.94 24.7598 32.5 25.3198 32.5 26.0098V39.7598C32.5 40.4498 31.94 41.0098 31.25 41.0098H27.5C26.81 41.0098 26.25 40.4498 26.25 39.7598V26.0098Z" fill="url(#paint0_linear_1977_29720)"/>
<path id="Vector_2" opacity="0.2" d="M17.5 22.2598C17.5 21.5698 18.06 21.0098 18.75 21.0098H22.5C23.19 21.0098 23.75 21.5698 23.75 22.2598V39.7598C23.75 40.4498 23.19 41.0098 22.5 41.0098H18.75C18.06 41.0098 17.5 40.4498 17.5 39.7598V22.2598Z" fill="url(#paint1_linear_1977_29720)"/>
<path id="Vector_3" opacity="0.6" d="M35 17.2598C35 16.5698 35.56 16.0098 36.25 16.0098H40C40.69 16.0098 41.25 16.5698 41.25 17.2598V39.7598C41.25 40.4498 40.69 41.0098 40 41.0098H36.25C35.56 41.0098 35 40.4498 35 39.7598V17.2598Z" fill="url(#paint2_linear_1977_29720)"/>
<path id="Vector_4" d="M37.9241 7.28512C38.0332 7.25363 38.1486 7.25143 38.2588 7.27874C38.3689 7.30605 38.47 7.36191 38.5517 7.44068C38.6334 7.51946 38.6929 7.61838 38.7243 7.72747C38.7556 7.83657 38.7576 7.95199 38.7301 8.06212L37.6771 12.2601L36.1271 10.7661L31.2671 15.6271C30.7562 16.1381 30.084 16.4562 29.3649 16.5273C28.6458 16.5984 27.9243 16.4181 27.3231 16.0171L23.1041 13.2051C22.764 12.9785 22.3591 12.8693 21.9511 12.894C21.5431 12.9187 21.1544 13.0761 20.8441 13.3421L9.15714 23.3591C9.09483 23.4126 9.0226 23.4532 8.94458 23.4788C8.86655 23.5043 8.78426 23.5142 8.70241 23.5079C8.62056 23.5017 8.54074 23.4793 8.46751 23.4422C8.39429 23.4051 8.32909 23.3539 8.27564 23.2916C8.22219 23.2293 8.18154 23.1571 8.15601 23.0791C8.13047 23.001 8.12056 22.9187 8.12682 22.8369C8.13309 22.755 8.15542 22.6752 8.19254 22.602C8.22965 22.5288 8.28083 22.4636 8.34314 22.4101L20.0301 12.3921C20.5475 11.9488 21.1955 11.6868 21.8755 11.6458C22.5555 11.6048 23.2303 11.7872 23.7971 12.1651L28.0171 14.9781C28.3778 15.2182 28.8105 15.326 29.2416 15.2832C29.6728 15.2403 30.0758 15.0495 30.3821 14.7431L35.2271 9.89912L33.7501 8.47512L37.9241 7.28512Z" fill="url(#paint3_linear_1977_29720)"/>
<path id="Vector_5" fill-rule="evenodd" clip-rule="evenodd" d="M36.25 16.0098C35.56 16.0098 35 16.5698 35 17.2598V39.7598C35 40.4498 35.56 41.0098 36.25 41.0098H40C40.69 41.0098 41.25 40.4498 41.25 39.7598V17.2598C41.25 16.5698 40.69 16.0098 40 16.0098H36.25ZM40 17.2598H36.25V39.7598H40V17.2598Z" fill="url(#paint4_linear_1977_29720)"/>
<path id="Vector_6" fill-rule="evenodd" clip-rule="evenodd" d="M27.5 24.7598C26.81 24.7598 26.25 25.3198 26.25 26.0098V39.7598C26.25 40.4498 26.81 41.0098 27.5 41.0098H31.25C31.94 41.0098 32.5 40.4498 32.5 39.7598V26.0098C32.5 25.3198 31.94 24.7598 31.25 24.7598H27.5ZM31.25 26.0098H27.5V39.7598H31.25V26.0098Z" fill="url(#paint5_linear_1977_29720)"/>
<path id="Vector_7" fill-rule="evenodd" clip-rule="evenodd" d="M17.5 22.2598C17.5 21.5698 18.06 21.0098 18.75 21.0098H22.5C23.19 21.0098 23.75 21.5698 23.75 22.2598V39.7598C23.75 40.4498 23.19 41.0098 22.5 41.0098H18.75C18.06 41.0098 17.5 40.4498 17.5 39.7598V22.2598ZM18.75 22.2598H22.5V39.7598H18.75V22.2598Z" fill="url(#paint6_linear_1977_29720)"/>
<path id="Vector_8" fill-rule="evenodd" clip-rule="evenodd" d="M10 29.7598C9.31 29.7598 8.75 30.3198 8.75 31.0098V39.7598C8.75 40.4498 9.31 41.0098 10 41.0098H13.75C14.44 41.0098 15 40.4498 15 39.7598V31.0098C15 30.3198 14.44 29.7598 13.75 29.7598H10ZM13.75 31.0098H10V39.7598H13.75V31.0098Z" fill="url(#paint7_linear_1977_29720)"/>
<path id="Vector_9" d="M13.125 43.5098C12.9592 43.5098 12.8003 43.5756 12.6831 43.6928C12.5658 43.81 12.5 43.969 12.5 44.1348C12.5 44.3005 12.5658 44.4595 12.6831 44.5767C12.8003 44.6939 12.9592 44.7598 13.125 44.7598H36.875C37.0408 44.7598 37.1997 44.6939 37.3169 44.5767C37.4342 44.4595 37.5 44.3005 37.5 44.1348C37.5 43.969 37.4342 43.81 37.3169 43.6928C37.1997 43.5756 37.0408 43.5098 36.875 43.5098H13.125Z" fill="url(#paint8_linear_1977_29720)"/>
</g>
<defs>
<linearGradient id="paint0_linear_1977_29720" x1="25.6178" y1="23.866" x2="35.5653" y2="25.8945" gradientUnits="userSpaceOnUse">
<stop stop-color="#40AFFF"/>
<stop offset="0.333333" stop-color="#29B1FD"/>
<stop offset="0.666667" stop-color="#FFA800"/>
<stop offset="1" stop-color="#FBB42A"/>
</linearGradient>
<linearGradient id="paint1_linear_1977_29720" x1="16.8678" y1="19.9098" x2="26.9522" y2="21.5806" gradientUnits="userSpaceOnUse">
<stop stop-color="#40AFFF"/>
<stop offset="0.333333" stop-color="#29B1FD"/>
<stop offset="0.666667" stop-color="#FFA800"/>
<stop offset="1" stop-color="#FBB42A"/>
</linearGradient>
<linearGradient id="paint2_linear_1977_29720" x1="34.3678" y1="14.6348" x2="44.5501" y2="15.9844" gradientUnits="userSpaceOnUse">
<stop stop-color="#40AFFF"/>
<stop offset="0.333333" stop-color="#29B1FD"/>
<stop offset="0.666667" stop-color="#FFA800"/>
<stop offset="1" stop-color="#FBB42A"/>
</linearGradient>
<linearGradient id="paint3_linear_1977_29720" x1="5.0275" y1="6.36601" x2="30.4328" y2="31.7502" gradientUnits="userSpaceOnUse">
<stop stop-color="#40AFFF"/>
<stop offset="0.333333" stop-color="#29B1FD"/>
<stop offset="0.666667" stop-color="#FFA800"/>
<stop offset="1" stop-color="#FBB42A"/>
</linearGradient>
<linearGradient id="paint4_linear_1977_29720" x1="34.3678" y1="14.6348" x2="44.5501" y2="15.9844" gradientUnits="userSpaceOnUse">
<stop stop-color="#40AFFF"/>
<stop offset="0.333333" stop-color="#29B1FD"/>
<stop offset="0.666667" stop-color="#FFA800"/>
<stop offset="1" stop-color="#FBB42A"/>
</linearGradient>
<linearGradient id="paint5_linear_1977_29720" x1="25.6178" y1="23.866" x2="35.5653" y2="25.8945" gradientUnits="userSpaceOnUse">
<stop stop-color="#40AFFF"/>
<stop offset="0.333333" stop-color="#29B1FD"/>
<stop offset="0.666667" stop-color="#FFA800"/>
<stop offset="1" stop-color="#FBB42A"/>
</linearGradient>
<linearGradient id="paint6_linear_1977_29720" x1="16.8678" y1="19.9098" x2="26.9522" y2="21.5806" gradientUnits="userSpaceOnUse">
<stop stop-color="#40AFFF"/>
<stop offset="0.333333" stop-color="#29B1FD"/>
<stop offset="0.666667" stop-color="#FFA800"/>
<stop offset="1" stop-color="#FBB42A"/>
</linearGradient>
<linearGradient id="paint7_linear_1977_29720" x1="8.11784" y1="29.141" x2="17.6518" y2="31.9492" gradientUnits="userSpaceOnUse">
<stop stop-color="#40AFFF"/>
<stop offset="0.333333" stop-color="#29B1FD"/>
<stop offset="0.666667" stop-color="#FFA800"/>
<stop offset="1" stop-color="#FBB42A"/>
</linearGradient>
<linearGradient id="paint8_linear_1977_29720" x1="9.97138" y1="43.441" x2="10.3367" y2="47.3151" gradientUnits="userSpaceOnUse">
<stop stop-color="#40AFFF"/>
<stop offset="0.333333" stop-color="#29B1FD"/>
<stop offset="0.666667" stop-color="#FFA800"/>
<stop offset="1" stop-color="#FBB42A"/>
</linearGradient>
</defs>
</svg>
