<svg width="50" height="52" viewBox="0 0 50 52" fill="none" xmlns="http://www.w3.org/2000/svg">
<g id="ff8c3e43-1783-4a17-82e1-0ce9740ebdc4_featured-defi.svg">
<path id="Vector" opacity="0.2" fill-rule="evenodd" clip-rule="evenodd" d="M26.98 5.47507C26.3717 5.1466 25.6913 4.97461 25 4.97461C24.3087 4.97461 23.6283 5.1466 23.02 5.47507L7.187 14.0271C6.52577 14.3841 5.97341 14.9134 5.58841 15.5588C5.20341 16.2041 5.0001 16.9416 5 17.6931V34.3261C5 35.8571 5.84 37.2651 7.187 37.9931L23.02 46.5441C23.6283 46.8725 24.3087 47.0445 25 47.0445C25.6913 47.0445 26.3717 46.8725 26.98 46.5441L42.813 37.9931C43.4744 37.6359 44.0268 37.1065 44.4118 36.461C44.7969 35.8154 45.0001 35.0777 45 34.3261V17.6931C45 16.1631 44.16 14.7541 42.813 14.0271L26.98 5.47507ZM25.973 13.3211C25.6731 13.1627 25.3391 13.0799 25 13.0799C24.6609 13.0799 24.3269 13.1627 24.027 13.3211L13.61 18.8211C13.2748 18.9982 12.9942 19.2634 12.7986 19.5882C12.603 19.9129 12.4998 20.2849 12.5 20.6641V31.3541C12.5 32.1271 12.927 32.8361 13.61 33.1971L24.027 38.6971C24.3269 38.8555 24.6609 38.9383 25 38.9383C25.3391 38.9383 25.6731 38.8555 25.973 38.6971L36.389 33.1971C36.7243 33.0202 37.0049 32.7552 37.2007 32.4306C37.3965 32.106 37.4999 31.7341 37.5 31.3551V20.6641C37.5 19.8911 37.073 19.1821 36.39 18.8221L25.973 13.3211Z" fill="url(#paint0_linear_1977_29703)"/>
<path id="Vector_2" fill-rule="evenodd" clip-rule="evenodd" d="M23.774 4.19821C24.1483 3.98759 24.5705 3.87695 25 3.87695C25.4295 3.87695 25.8517 3.98759 26.226 4.19821L43.726 14.0422C44.1126 14.2597 44.4343 14.5762 44.6582 14.9591C44.8821 15.342 45 15.7776 45 16.2212V35.7962C45.0002 36.24 44.8823 36.6758 44.6584 37.0589C44.4345 37.442 44.1127 37.7586 43.726 37.9762L26.226 47.8192C25.8517 48.0298 25.4295 48.1405 25 48.1405C24.5705 48.1405 24.1483 48.0298 23.774 47.8192L6.274 37.9752C5.88743 37.7577 5.5657 37.4412 5.34181 37.0583C5.11793 36.6754 4.99995 36.2398 5 35.7962V16.2212C4.99978 15.7775 5.11767 15.3417 5.34156 14.9586C5.56545 14.5754 5.88728 14.2588 6.274 14.0412L23.774 4.19821ZM25.613 5.28821L43.113 15.1312C43.506 15.3522 43.75 15.7692 43.75 16.2212V25.3832H37.5V19.8732C37.5001 19.6492 37.44 19.4293 37.326 19.2365C37.212 19.0437 37.0483 18.8851 36.852 18.7772L25.602 12.5902C25.4175 12.4888 25.2105 12.4357 25 12.4357C24.7895 12.4357 24.5825 12.4888 24.398 12.5902L13.148 18.7772C12.748 18.9972 12.5 19.4172 12.5 19.8722V25.3832H6.25V16.2212C6.25 15.7692 6.494 15.3522 6.887 15.1312L24.387 5.28721C24.5741 5.1819 24.7853 5.12658 25 5.12658C25.2147 5.12658 25.4259 5.1829 25.613 5.28821ZM6.25 26.6322V35.7952C6.25 36.2472 6.494 36.6632 6.887 36.8852L24.387 46.7282C24.767 46.9432 25.232 46.9432 25.613 46.7282L43.113 36.8852C43.3064 36.7764 43.4673 36.6181 43.5792 36.4265C43.6912 36.235 43.7501 36.0171 43.75 35.7952V26.6322H37.5V32.1432C37.5 32.5992 37.252 33.0192 36.852 33.2382L25.602 39.4262C25.4175 39.5276 25.2105 39.5807 25 39.5807C24.7895 39.5807 24.5825 39.5276 24.398 39.4262L13.148 33.2382C12.9518 33.1304 12.7882 32.9719 12.6743 32.7793C12.5603 32.5867 12.5001 32.367 12.5 32.1432V26.6332L6.25 26.6322ZM35.5 19.4592L25 13.6852L14.5 19.4602L25 25.2932L35.5 19.4592ZM13.75 20.4722V32.1432L24.375 37.9872V26.3762L13.75 20.4722ZM36.25 32.1432L25.625 37.9882V26.3762L36.25 20.4732V32.1432Z" fill="url(#paint1_linear_1977_29703)"/>
</g>
<defs>
<linearGradient id="paint0_linear_1977_29703" x1="0.9542" y1="2.66076" x2="53.8292" y2="29.3149" gradientUnits="userSpaceOnUse">
<stop stop-color="#40AFFF"/>
<stop offset="0.333333" stop-color="#29B1FD"/>
<stop offset="0.666667" stop-color="#FFA800"/>
<stop offset="1" stop-color="#FBB42A"/>
</linearGradient>
<linearGradient id="paint1_linear_1977_29703" x1="0.9542" y1="1.44246" x2="54.8855" y2="27.2817" gradientUnits="userSpaceOnUse">
<stop stop-color="#40AFFF"/>
<stop offset="0.333333" stop-color="#29B1FD"/>
<stop offset="0.666667" stop-color="#FFA800"/>
<stop offset="1" stop-color="#FBB42A"/>
</linearGradient>
</defs>
</svg>
