<svg width="100" height="100" viewBox="0 0 100 100" fill="none" xmlns="http://www.w3.org/2000/svg">
<path d="M26.748 61.5283C26.748 64.0479 27.7489 66.4642 29.5305 68.2458C31.3121 70.0274 33.7285 71.0283 36.248 71.0283C38.7676 71.0283 41.184 70.0274 42.9656 68.2458C44.7472 66.4642 45.748 64.0479 45.748 61.5283C45.748 59.0088 44.7472 56.5924 42.9656 54.8108C41.184 53.0292 38.7676 52.0283 36.248 52.0283C33.7285 52.0283 31.3121 53.0292 29.5305 54.8108C27.7489 56.5924 26.748 59.0088 26.748 61.5283Z" stroke="black" stroke-width="3" stroke-linecap="round" stroke-linejoin="round"/>
<path d="M40.748 54.0283C40.5478 55.5202 39.9744 56.9414 39.0783 58.1671C38.1822 59.3928 36.9907 60.3856 35.6084 61.0584C34.2261 61.7311 32.6954 62.0632 31.1505 62.0254C29.6056 61.9877 28.0939 61.5813 26.748 60.8419" stroke="black" stroke-width="3" stroke-linecap="round" stroke-linejoin="round"/>
<path d="M48.748 85.0283C47.7996 82.3968 46.0399 80.1179 43.7114 78.506C41.383 76.894 38.6007 76.0283 35.748 76.0283C32.8954 76.0283 30.1131 76.894 27.7846 78.506C25.4562 80.1179 23.6965 82.3968 22.748 85.0283" stroke="black" stroke-width="3" stroke-linecap="round" stroke-linejoin="round"/>
<path d="M76.748 85.0283C75.7996 82.3968 74.0399 80.1179 71.7114 78.506C69.383 76.894 66.6007 76.0283 63.748 76.0283C60.8954 76.0283 58.1131 76.894 55.7847 78.506C53.4562 80.1179 51.6965 82.3968 50.748 85.0283" stroke="black" stroke-width="3" stroke-linecap="round" stroke-linejoin="round"/>
<path d="M54.748 61.5283C54.748 64.0479 55.7489 66.4642 57.5305 68.2458C59.3121 70.0274 61.7285 71.0283 64.248 71.0283C66.7676 71.0283 69.184 70.0274 70.9656 68.2458C72.7472 66.4642 73.748 64.0479 73.748 61.5283C73.748 59.0088 72.7472 56.5924 70.9656 54.8108C69.184 53.0292 66.7676 52.0283 64.248 52.0283C61.7285 52.0283 59.3121 53.0292 57.5305 54.8108C55.7489 56.5924 54.748 59.0088 54.748 61.5283Z" stroke="black" stroke-width="3" stroke-linecap="round" stroke-linejoin="round"/>
<path d="M54.748 62.0283C54.748 62.0283 54.748 73.0283 47.748 73.0283" stroke="black" stroke-width="3" stroke-linecap="round" stroke-linejoin="round"/>
<path d="M73.748 62.0283C73.748 62.0283 73.748 73.0283 80.748 73.0283" stroke="black" stroke-width="3" stroke-linecap="round" stroke-linejoin="round"/>
<path d="M19.4147 73.0283C18.177 73.0283 16.9901 72.5403 16.1149 71.6718C15.2397 70.8032 14.748 69.6251 14.748 68.3967V33.6599C14.748 32.4315 15.2397 31.2535 16.1149 30.3849C16.9901 29.5163 18.177 29.0283 19.4147 29.0283H80.0814C81.3191 29.0283 82.506 29.5163 83.3812 30.3849C84.2564 31.2535 84.748 32.4315 84.748 33.6599V63.7652" stroke="#20D3F6" stroke-width="3" stroke-linecap="round" stroke-linejoin="round"/>
<path d="M38.748 15.0283L50.248 29.0283L61.748 15.0283" stroke="#20D3F6" stroke-width="3" stroke-linecap="round" stroke-linejoin="round"/>
</svg>
