<svg width="100" height="100" viewBox="0 0 100 100" fill="none" xmlns="http://www.w3.org/2000/svg">
<path d="M51 63C64.2548 63 75 52.2549 75 39C75 25.7451 64.2548 15 51 15C37.7452 15 27 25.7451 27 39C27 52.2549 37.7452 63 51 63Z" stroke="black" stroke-width="3" stroke-miterlimit="10" stroke-linecap="round" stroke-linejoin="round"/>
<path d="M85 73L68 56" stroke="black" stroke-width="3" stroke-miterlimit="10" stroke-linecap="round" stroke-linejoin="round"/>
<path d="M21.2857 24C17.8286 24 15 26.8154 15 30.2564V78.7436C15 82.1846 17.8286 85 21.2857 85H52.7143C56.1714 85 59 82.1846 59 78.7436V70.9231" stroke="black" stroke-width="3" stroke-miterlimit="10" stroke-linecap="round" stroke-linejoin="round"/>
<path d="M45 24H52.7778C56.2 24 59 26.8588 59 30.3529V51" stroke="#20D3F6" stroke-width="3" stroke-miterlimit="10" stroke-linecap="round" stroke-linejoin="round"/>
<path d="M36 43H47" stroke="#20D3F6" stroke-width="3" stroke-miterlimit="10" stroke-linecap="round" stroke-linejoin="round"/>
<path d="M38 34H47" stroke="#20D3F6" stroke-width="3" stroke-miterlimit="10" stroke-linecap="round" stroke-linejoin="round"/>
<path d="M44 52H47" stroke="#20D3F6" stroke-width="3" stroke-miterlimit="10" stroke-linecap="round" stroke-linejoin="round"/>
</svg>
