<svg width="100" height="100" viewBox="0 0 100 100" fill="none" xmlns="http://www.w3.org/2000/svg">
<path d="M81.9996 55.7756C81.9996 57.3627 80.7131 58.6492 79.126 58.6492H20.8736C19.2866 58.6492 18 57.3627 18 55.7756V24.8736C18 23.2865 19.2865 22 20.8736 22H79.126C80.7131 22 81.9996 23.2865 81.9996 24.8736V55.7756Z" stroke="black" stroke-width="3" stroke-linejoin="round"/>
<path d="M27.7944 74.2649C27.7944 75.8519 26.5079 77.1385 24.9208 77.1385H20.8756C19.2885 77.1385 18.002 75.8519 18.002 74.2649V69.9171C18.002 68.3303 19.2885 67.0435 20.8756 67.0435H24.9208C26.5079 67.0435 27.7944 68.3303 27.7944 69.9171V74.2649Z" stroke="black" stroke-width="3" stroke-linejoin="round"/>
<path d="M45.8609 74.2649C45.8609 75.8519 44.5744 77.1385 42.9872 77.1385H38.942C37.3549 77.1385 36.0684 75.8519 36.0684 74.2649V69.9171C36.0684 68.3303 37.3549 67.0435 38.942 67.0435H42.9872C44.5744 67.0435 45.8609 68.3303 45.8609 69.9171V74.2649Z" stroke="black" stroke-width="3" stroke-linejoin="round"/>
<path d="M63.933 74.2649C63.933 75.8519 62.6465 77.1385 61.0594 77.1385H57.0142C55.4271 77.1385 54.1406 75.8519 54.1406 74.2649V69.9171C54.1406 68.3303 55.4271 67.0435 57.0142 67.0435H61.0594C62.6465 67.0435 63.933 68.3303 63.933 69.9171V74.2649Z" stroke="black" stroke-width="3" stroke-linejoin="round"/>
<path d="M82.0004 74.2649C82.0004 75.8519 80.7139 77.1385 79.1268 77.1385H75.0816C73.4945 77.1385 72.208 75.8519 72.208 74.2649V69.9171C72.208 68.3303 73.4945 67.0435 75.0816 67.0435H79.1268C80.7139 67.0435 82.0004 68.3303 82.0004 69.9171V74.2649Z" stroke="black" stroke-width="3" stroke-linejoin="round"/>
<path d="M49.4977 29.0019C43.2271 28.8961 36.742 33.2783 32.6648 37.7663C32.2368 38.2414 32 38.8582 32 39.4977C32 40.1371 32.2368 40.7539 32.6648 41.2291C36.6533 45.6221 43.1198 50.1054 49.4977 49.9981C55.8755 50.1054 62.3436 45.6221 66.3352 41.2291C66.7632 40.7539 67 40.1371 67 39.4977C67 38.8582 66.7632 38.2414 66.3352 37.7663C62.2534 33.2783 55.7682 28.8961 49.4977 29.0019Z" stroke="#00CCF5" stroke-width="3" stroke-linecap="round" stroke-linejoin="round"/>
<path d="M56 39.5015C55.9997 40.5892 55.6475 41.6524 54.988 42.5567C54.3286 43.461 53.3914 44.1657 52.295 44.5818C51.1986 44.9978 49.9923 45.1065 48.8285 44.8941C47.6647 44.6818 46.5957 44.1578 45.7568 43.3886C44.9178 42.6193 44.3466 41.6393 44.1152 40.5725C43.8838 39.5056 44.0027 38.3998 44.4569 37.3949C44.9111 36.39 45.6801 35.5311 46.6667 34.9268C47.6534 34.3225 48.8134 34 50 34C50.7881 33.9998 51.5686 34.142 52.2967 34.4184C53.0249 34.6948 53.6865 35.1001 54.2437 35.611C54.8009 36.1219 55.2428 36.7285 55.5442 37.396C55.8455 38.0636 56.0004 38.779 56 39.5015Z" stroke="#00CCF5" stroke-width="3" stroke-linecap="round" stroke-linejoin="round"/>
</svg>
