<svg width="100" height="100" viewBox="0 0 100 100" fill="none" xmlns="http://www.w3.org/2000/svg">
<path d="M64.5309 66.1107C66.7229 66.1107 68.4998 64.3337 68.4998 62.1418C68.4998 59.9498 66.7229 58.1729 64.5309 58.1729C62.339 58.1729 60.562 59.9498 60.562 62.1418C60.562 64.3337 62.339 66.1107 64.5309 66.1107Z" stroke="#00CCF5" stroke-width="3" stroke-linecap="round" stroke-linejoin="round"/>
<path d="M67.9018 46.7873L69.0713 50.6292C69.2638 51.2672 69.6913 51.8084 70.2674 52.1434C70.8435 52.4784 71.5253 52.5821 72.175 52.4337L76.0725 51.5288C76.811 51.3624 77.5834 51.437 78.2764 51.7415C78.9695 52.046 79.5468 52.5646 79.9237 53.2211C80.3006 53.8776 80.4573 54.6375 80.3709 55.3896C80.2845 56.1417 79.9594 56.8463 79.4434 57.4002L76.7181 60.3398C76.2628 60.8294 76.0097 61.4731 76.0097 62.1417C76.0097 62.8102 76.2628 63.454 76.7181 63.9435L79.4434 66.8832C79.9602 67.4366 80.2859 68.1413 80.3727 68.8935C80.4595 69.6458 80.3029 70.406 79.9257 71.0627C79.5485 71.7193 78.9708 72.2377 78.2772 72.5417C77.5837 72.8458 76.811 72.9194 76.0725 72.7519L72.175 71.8496C71.5256 71.6998 70.8435 71.8026 70.2671 72.1372C69.6907 72.4719 69.2632 73.0132 69.0713 73.6515L67.9018 77.4934C67.6837 78.2181 67.2379 78.8532 66.6305 79.3047C66.0231 79.7561 65.2864 79.9999 64.5296 79.9999C63.7728 79.9999 63.0361 79.7561 62.4287 79.3047C61.8213 78.8532 61.3755 78.2181 61.1573 77.4934L59.9878 73.6515C59.7959 73.0132 59.3684 72.4719 58.7921 72.1372C58.2157 71.8026 57.5336 71.6998 56.8842 71.8496L52.9867 72.7519C52.2482 72.9194 51.4755 72.8458 50.7819 72.5417C50.0884 72.2377 49.5106 71.7193 49.1335 71.0627C48.7563 70.406 48.5996 69.6458 48.6864 68.8935C48.7732 68.1413 49.099 67.4366 49.6158 66.8832L52.3411 63.9435C52.7964 63.454 53.0494 62.8102 53.0494 62.1417C53.0494 61.4731 52.7964 60.8294 52.3411 60.3398L49.6158 57.4002C49.0997 56.8463 48.7747 56.1417 48.6883 55.3896C48.6018 54.6375 48.7586 53.8776 49.1355 53.2211C49.5124 52.5646 50.0897 52.046 50.7828 51.7415C51.4758 51.437 52.2482 51.3624 52.9867 51.5288L56.8842 52.4337C57.5339 52.5828 58.216 52.4793 58.7923 52.1442C59.3686 51.8092 59.7959 51.2676 59.9878 50.6292L61.1573 46.7873C61.3755 46.0626 61.8213 45.4275 62.4287 44.976C63.0361 44.5246 63.7728 44.2808 64.5296 44.2808C65.2864 44.2808 66.0231 44.5246 66.6305 44.976C67.2379 45.4275 67.6837 46.0626 67.9018 46.7873Z" stroke="#00CCF5" stroke-width="3" stroke-linecap="round" stroke-linejoin="round"/>
<path d="M39.969 35.6191L34.3252 43.1389C34.1543 43.3662 33.9365 43.5542 33.6867 43.6901C33.4369 43.8261 33.1608 43.9068 32.8772 43.9268C32.5935 43.9469 32.3088 43.9058 32.0423 43.8064C31.7758 43.707 31.5338 43.5516 31.3326 43.3506L28.2739 40.2892" stroke="black" stroke-width="3" stroke-linecap="round" stroke-linejoin="round"/>
<path d="M39.969 53.4922L34.3252 60.9987C34.1543 61.226 33.9365 61.414 33.6867 61.5499C33.4369 61.6859 33.1608 61.7666 32.8772 61.7867C32.5935 61.8067 32.3088 61.7657 32.0423 61.6663C31.7758 61.5668 31.5338 61.4114 31.3326 61.2104L28.2739 58.149" stroke="black" stroke-width="3" stroke-linecap="round" stroke-linejoin="round"/>
<path d="M52.4341 20.4182C52.8684 20.4181 53.2986 20.5036 53.6999 20.6698C54.1012 20.8359 54.4659 21.0795 54.7731 21.3866L67.7196 34.3332C68.0268 34.6404 68.2703 35.005 68.4365 35.4064C68.6027 35.8077 68.6881 36.2378 68.6881 36.6722" stroke="black" stroke-width="3" stroke-linecap="round" stroke-linejoin="round"/>
<path d="M68.831 36.8227H55.6014C54.7242 36.8227 53.8829 36.4743 53.2627 35.854C52.6424 35.2338 52.2939 34.3925 52.2939 33.5153V20.2856" stroke="black" stroke-width="3" stroke-linecap="round" stroke-linejoin="round"/>
<path d="M46.4593 79.5335H23.9689C22.9163 79.5335 21.9068 79.1154 21.1625 78.3711C20.4182 77.6267 20 76.6172 20 75.5646V23.9689C20 22.9163 20.4182 21.9068 21.1625 21.1625C21.9068 20.4182 22.9163 20 23.9689 20H52.0899" stroke="black" stroke-width="3" stroke-linecap="round" stroke-linejoin="round"/>
</svg>
