<svg width="100" height="100" viewBox="0 0 100 100" fill="none" xmlns="http://www.w3.org/2000/svg">
<path d="M43.4658 68.9589C46.2279 69.8211 49.1063 70.2528 51.9999 70.239C63.663 70.4382 75.4969 62.2455 82.7793 54.1951C83.5648 53.331 84.0001 52.2052 84.0001 51.0375C84.0001 49.8697 83.5648 48.7439 82.7793 47.8799C80.146 44.9694 77.2194 42.3384 74.0461 40.0286" stroke="black" stroke-width="3" stroke-linecap="round" stroke-linejoin="round"/>
<path d="M66.4797 35.4486C62.0031 33.1262 57.0432 31.8887 52.0003 31.8359C40.6216 31.6368 28.6739 39.6588 21.2209 47.8799C20.4353 48.7439 20 49.8697 20 51.0375C20 52.2052 20.4353 53.3311 21.2209 54.1951C25.26 58.7105 29.9944 62.5518 35.2451 65.5738" stroke="black" stroke-width="3" stroke-linecap="round" stroke-linejoin="round"/>
<path d="M43.466 57.6369C41.9228 55.496 41.2046 52.8699 41.4434 50.2416C41.6822 47.6134 42.8621 45.1598 44.7658 43.3321C46.6696 41.5045 49.1694 40.4258 51.8052 40.2944C54.441 40.163 57.0356 40.9877 59.1117 42.617" stroke="black" stroke-width="3" stroke-linecap="round" stroke-linejoin="round"/>
<path d="M62.668 51.0376C62.668 52.4385 62.3921 53.8256 61.856 55.1199C61.3199 56.4141 60.5341 57.5901 59.5436 58.5807C58.553 59.5713 57.377 60.357 56.0828 60.8931C54.7885 61.4292 53.4014 61.7051 52.0005 61.7051" stroke="black" stroke-width="3" stroke-linecap="round" stroke-linejoin="round"/>
<path d="M79.9201 40.1545V31H70.7656" stroke="#00CCF5" stroke-width="3" stroke-linecap="round" stroke-linejoin="round"/>
<path d="M29.7808 72.1951L53.5775 48.3982C53.9858 47.9899 54.654 48.0112 55.0354 48.4447L58.0209 51.8376C58.4024 52.2711 59.0705 52.2924 59.4788 51.8841L78.2557 33.1072" stroke="#00CCF5" stroke-width="3" stroke-linecap="round"/>
</svg>
