<svg width="100" height="100" viewBox="0 0 100 100" fill="none" xmlns="http://www.w3.org/2000/svg">
<path d="M41.4688 24.8C36.8609 25.9955 32.7127 28.5342 29.5515 32.0934C26.3903 35.6526 24.3589 40.0715 23.7158 44.7882C23.0726 49.505 23.8466 54.3064 25.9394 58.5821C28.0322 62.8577 31.3492 66.4144 35.4688 68.8V79.9999" stroke="black" stroke-width="3" stroke-linecap="round" stroke-linejoin="round"/>
<path d="M47.4688 58C41.9459 58 37.4688 53.5228 37.4688 48C37.4688 42.4771 41.9459 38 47.4688 38C52.9916 38 57.4688 42.4771 57.4688 48C57.4688 53.5228 52.9916 58 47.4688 58Z" stroke="#00CCF5" stroke-width="3" stroke-linecap="round" stroke-linejoin="round"/>
<path d="M73.9757 59.4133C74.5977 59.2569 75.173 58.9531 75.653 58.5277C76.1331 58.1023 76.5037 57.5677 76.7338 56.969C76.9639 56.3703 77.0466 55.725 76.975 55.0876C76.9034 54.4502 76.6796 53.8394 76.3224 53.3067L71.5757 46.0267V44.0267C71.5757 34.5867 63.9491 26.6667 53.5758 24.5601" stroke="black" stroke-width="3" stroke-linecap="round" stroke-linejoin="round"/>
<path d="M59.4688 79.9997V76.0264" stroke="black" stroke-width="3" stroke-linecap="round" stroke-linejoin="round"/>
<path d="M47.5762 48C47.5762 50.6264 48.0935 53.2271 49.0986 55.6537C50.1037 58.0802 51.5769 60.2849 53.4341 62.1421C55.2912 63.9993 57.496 65.4725 59.9225 66.4776C62.349 67.4826 64.9497 68 67.5762 68H71.5762" stroke="#00CCF5" stroke-width="3" stroke-linecap="round" stroke-linejoin="round"/>
<path d="M53.4688 40V22C53.4688 21.4696 53.258 20.9609 52.883 20.5858C52.5079 20.2107 51.9992 20 51.4688 20H43.4688C42.9405 20.0069 42.4358 20.2198 42.0622 20.5934C41.6886 20.967 41.4757 21.4717 41.4688 22V40" stroke="#00CCF5" stroke-width="3" stroke-linecap="round" stroke-linejoin="round"/>
</svg>
