<svg width="100" height="100" viewBox="0 0 100 100" fill="none" xmlns="http://www.w3.org/2000/svg">
<path d="M28 56H40" stroke="black" stroke-width="3" stroke-linecap="round" stroke-linejoin="round"/>
<path d="M40 56V36" stroke="black" stroke-width="3" stroke-linecap="round" stroke-linejoin="round"/>
<path d="M48 44V40" stroke="black" stroke-width="3" stroke-linecap="round" stroke-linejoin="round"/>
<path d="M32 56V44" stroke="black" stroke-width="3" stroke-linecap="round" stroke-linejoin="round"/>
<path d="M42 72.0001H24C22.9391 72.0001 21.9217 71.5786 21.1716 70.8285C20.4214 70.0783 20 69.0609 20 68.0001V24C20 22.9391 20.4214 21.9217 21.1716 21.1716C21.9217 20.4214 22.9391 20 24 20H52.344C53.4042 20.0002 54.4209 20.4213 55.1707 21.1707L62.8294 28.8293C63.5788 29.5792 63.9998 30.5959 64.0001 31.656V38" stroke="black" stroke-width="3" stroke-linecap="round" stroke-linejoin="round"/>
<path d="M46 60C46 63.7131 47.475 67.274 50.1005 69.8995C52.726 72.525 56.287 74 60 74C63.7131 74 67.274 72.525 69.8995 69.8995C72.525 67.274 74 63.7131 74 60C74 56.287 72.525 52.726 69.8995 50.1005C67.274 47.475 63.7131 46 60 46C56.287 46 52.726 47.475 50.1005 50.1005C47.475 52.726 46 56.287 46 60Z" stroke="#00CCF5" stroke-width="3" stroke-linecap="round" stroke-linejoin="round"/>
<path d="M80.0005 80.0001L69.8564 69.9414" stroke="#00CCF5" stroke-width="3" stroke-linecap="round" stroke-linejoin="round"/>
</svg>
