<svg width="100" height="100" viewBox="0 0 100 100" fill="none" xmlns="http://www.w3.org/2000/svg">
<path d="M50.2833 59.3872V62.7747" stroke="black" stroke-width="3" stroke-linecap="round" stroke-linejoin="round"/>
<path d="M62.2843 63.9797C62.2843 60.7969 61.0199 57.7444 58.7693 55.4938C56.5187 53.2431 53.4662 51.9788 50.2833 51.9788C47.1005 51.9788 44.048 53.2431 41.7973 55.4938C39.5467 57.7444 38.2823 60.7969 38.2823 63.9797" stroke="black" stroke-width="3" stroke-linecap="round" stroke-linejoin="round"/>
<path d="M50.2833 48.3197C54.9233 48.3197 58.6847 44.544 58.6847 39.8864C58.6847 35.2288 54.9233 31.4531 50.2833 31.4531C45.6434 31.4531 41.882 35.2288 41.882 39.8864C41.882 44.544 45.6434 48.3197 50.2833 48.3197Z" stroke="black" stroke-width="3" stroke-linecap="round" stroke-linejoin="round"/>
<path d="M43.5721 34.8269C46.0552 37.227 49.3513 38.6035 52.8038 38.682C54.7143 38.689 56.6122 38.3736 58.4177 37.749" stroke="black" stroke-width="3" stroke-linecap="round" stroke-linejoin="round"/>
<path d="M60.7399 30.08C61.6282 28.6611 62.9076 27.5292 64.4242 26.8205C65.9409 26.1118 67.63 25.8566 69.2883 26.0855C70.9466 26.3144 72.5034 27.0178 73.7713 28.1109C75.0391 29.204 75.9641 30.6403 76.4347 32.2468C76.9053 33.8533 76.9015 35.5617 76.4238 37.1661C75.9462 38.7705 75.0149 40.2027 73.7423 41.2902C72.4696 42.3778 70.9097 43.0743 69.2504 43.2959C67.5911 43.5175 65.9031 43.2549 64.3897 42.5395" stroke="black" stroke-width="3" stroke-linecap="round" stroke-linejoin="round"/>
<path d="M84.361 32.4705C84.6775 34.7904 84.4937 37.1512 83.8219 39.3942C83.15 41.6372 82.0058 43.7104 80.4662 45.4744C78.9265 47.2384 77.027 48.6523 74.8954 49.6211C72.7638 50.59 70.4495 51.0912 68.108 51.0912C66.2522 51.0935 64.4094 50.7803 62.6584 50.1651" stroke="black" stroke-width="3" stroke-linecap="round" stroke-linejoin="round"/>
<path d="M55.5138 24.1624C57.0517 22.3181 58.9765 20.8348 61.1518 19.8177C63.3272 18.8006 65.6997 18.2746 68.101 18.2771C68.6302 18.2771 69.1541 18.3022 69.6727 18.3524" stroke="black" stroke-width="3" stroke-linecap="round" stroke-linejoin="round"/>
<path d="M76.8561 25.6086L76.2767 19.2238L81.5005 14L83.2433 19.2238L88.467 20.9665L83.2433 26.1903L76.8561 25.6086Z" stroke="#00CCF5" stroke-width="3" stroke-linecap="round" stroke-linejoin="round"/>
<path d="M77.1527 25.8005L68.0054 34.9478" stroke="#00CCF5" stroke-width="3" stroke-linecap="round" stroke-linejoin="round"/>
<path d="M32.4384 58.4312C30.9807 59.2544 29.792 60.4813 29.0154 61.9643C28.2388 63.4473 27.9074 65.1232 28.0611 66.7901C28.2147 68.4571 28.8469 70.0441 29.8815 71.3602C30.9161 72.6762 32.3091 73.6652 33.8927 74.208C35.4763 74.7508 37.183 74.8244 38.8074 74.4198C40.4318 74.0152 41.9047 73.1498 43.0487 71.9276" stroke="#00CCF5" stroke-width="3" stroke-linecap="round" stroke-linejoin="round"/>
<path d="M48.5074 83.08C48.5563 83.9019 48.3495 84.7189 47.9156 85.4187C47.4816 86.1185 46.8417 86.6668 46.0837 86.9884C45.3257 87.3101 44.4868 87.3892 43.682 87.2151C42.8772 87.0409 42.146 86.6219 41.5888 86.0157L39.657 83.9145C39.2796 83.5035 38.82 83.1762 38.3082 82.9539C37.7963 82.7317 37.2435 82.6193 36.6854 82.6242C36.1274 82.6291 35.5766 82.751 35.0687 82.9822C34.5608 83.2134 34.1071 83.5486 33.7369 83.9662L31.842 86.1007C31.2945 86.7099 30.5727 87.1357 29.7748 87.3204C28.9769 87.5051 28.1414 87.4396 27.3819 87.133C26.6225 86.8263 25.9758 86.2933 25.5298 85.6064C25.0838 84.9194 24.8601 84.1118 24.8891 83.2933L25.0082 80.4385C25.0317 79.881 24.938 79.3247 24.7332 78.8056C24.5283 78.2865 24.2167 77.8162 23.8187 77.4251C23.4207 77.0339 22.945 76.7306 22.4224 76.5348C21.8999 76.3391 21.342 76.2551 20.7849 76.2884L17.9269 76.4515C17.1076 76.4974 16.2942 76.2895 15.5974 75.8562C14.9006 75.4229 14.3544 74.7852 14.0333 74.0301C13.7121 73.2751 13.6317 72.4393 13.8029 71.6368C13.9741 70.8344 14.3886 70.1042 14.9899 69.5459L17.0924 67.6155C17.5035 67.2381 17.8308 66.7785 18.053 66.2667C18.2753 65.7548 18.3877 65.202 18.3828 64.6439C18.3779 64.0859 18.2559 63.5351 18.0248 63.0272C17.7936 62.5193 17.4584 62.0656 17.0408 61.6954L14.9063 59.8005C14.2899 59.2549 13.8575 58.532 13.6684 57.7308C13.4794 56.9297 13.5429 56.0897 13.8504 55.3261C14.1578 54.5626 14.6941 53.9129 15.3855 53.4663C16.0769 53.0196 16.8897 52.798 17.7121 52.8318L20.5655 52.9523C21.1232 52.9758 21.6796 52.882 22.1988 52.677C22.718 52.472 23.1885 52.1604 23.5797 51.7622C23.971 51.3641 24.2744 50.8883 24.4703 50.3656C24.6662 49.8428 24.7502 49.2849 24.717 48.7276L24.5539 45.8696C24.5067 45.0497 24.714 44.2352 25.1473 43.5375C25.5806 42.8398 26.2188 42.293 26.9746 41.9718C27.7305 41.6505 28.5671 41.5706 29.3701 41.7428C30.1731 41.915 30.9033 42.331 31.461 42.934L33.3928 45.0351" stroke="#00CCF5" stroke-width="3" stroke-linecap="round" stroke-linejoin="round"/>
</svg>
