<svg width="449" height="432" viewBox="0 0 449 432" fill="none" xmlns="http://www.w3.org/2000/svg">
<path d="M119.795 233.49L240.039 307.631L245.034 303.755L124.535 230.137L119.795 233.49Z" fill="#10FFF8"/>
<path d="M220.192 164.841L227.898 161.354L228.347 12.8789L220.642 16.366L220.192 164.841Z" fill="url(#paint0_linear_2158_10773)"/>
<path d="M234.047 162.217L239.759 165.777L244.888 160.747L239.163 157.175L234.047 162.217Z" fill="#C4BCFF"/>
<path d="M239.759 165.777L239.905 307.631L245.033 303.755L244.887 160.747L239.759 165.777Z" fill="url(#paint1_linear_2158_10773)"/>
<path d="M234.047 162.217L234.193 304.07L239.905 307.63L239.759 165.777L234.047 162.217Z" fill="#F1EFFF"/>
<path d="M373.65 242.517L379.362 246.09L384.491 241.059L378.779 237.487L373.65 242.517Z" fill="#C4BCFF"/>
<path d="M379.362 246.09L379.52 387.943L384.637 384.067L384.491 241.06L379.362 246.09Z" fill="url(#paint2_linear_2158_10773)"/>
<path d="M373.65 242.518L373.796 384.383L379.52 387.943L379.362 246.09L373.65 242.518Z" fill="url(#paint3_linear_2158_10773)"/>
<path d="M220.192 164.842L403.365 270.402L411.071 266.915L227.898 161.354L220.192 164.842Z" fill="url(#paint4_linear_2158_10773)"/>
<path d="M224.58 161.95L406.684 267.11V118.392L224.58 13.2197V161.95Z" fill="url(#paint5_linear_2158_10773)"/>
<path d="M410.827 283.281L418.532 279.806L419.031 114.199L411.338 117.674L410.827 283.281Z" fill="url(#paint6_linear_2158_10773)"/>
<path d="M213.18 3.47495L411.338 117.675L419.031 114.2L220.885 0L213.18 3.47495Z" fill="url(#paint7_linear_2158_10773)"/>
<path d="M212.682 169.082L410.84 283.281L411.338 117.674L213.18 3.47461L212.682 169.082ZM220.642 16.366L403.815 121.927L403.365 270.402L220.192 164.841L220.642 16.366Z" fill="url(#paint8_linear_2158_10773)"/>
<path d="M379.776 124.37L352.711 108.732C345.711 104.686 336.973 109.741 336.973 117.809V131.405C336.973 138.148 340.57 144.393 346.416 147.759L365.387 158.791L358.605 164.806L373.481 163.384C380.469 167.418 389.219 162.375 389.219 154.308V140.712C389.219 133.968 385.622 127.735 379.776 124.358V124.37Z" fill="#10FFF8"/>
<path d="M353.452 128.428C351.459 127.481 349.77 128.246 349.685 130.129C349.6 132.013 351.143 134.321 353.136 135.269C355.13 136.217 356.819 135.451 356.904 133.568C356.989 131.685 355.446 129.376 353.452 128.428Z" fill="white"/>
<path d="M363.248 134.09C361.255 133.143 359.566 133.908 359.481 135.791C359.396 137.675 360.939 139.983 362.932 140.931C364.926 141.879 366.615 141.113 366.712 139.23C366.797 137.347 365.254 135.038 363.261 134.09H363.248Z" fill="white"/>
<path d="M373.056 139.764C371.063 138.817 369.374 139.582 369.289 141.465C369.203 143.349 370.747 145.657 372.74 146.605C374.733 147.553 376.422 146.787 376.508 144.904C376.593 143.02 375.049 140.712 373.056 139.764Z" fill="white"/>
<path d="M279.779 108.963L252.714 93.3258C245.714 89.2919 236.976 94.3343 236.976 102.414V116.01C236.976 122.754 240.573 128.999 246.419 132.364L256.907 145.815V138.415L273.484 147.99C280.472 152.023 289.222 146.981 289.222 138.901V125.305C289.222 118.562 285.625 112.329 279.779 108.951V108.963Z" fill="#10FFF8"/>
<path d="M253.455 113.021C251.462 112.073 249.773 112.839 249.688 114.722C249.603 116.605 251.146 118.914 253.139 119.862C255.133 120.809 256.822 120.044 256.907 118.161C256.992 116.277 255.449 113.969 253.455 113.021Z" fill="white"/>
<path d="M263.263 118.683C261.27 117.735 259.581 118.501 259.496 120.384C259.41 122.267 260.954 124.576 262.947 125.524C264.94 126.471 266.629 125.706 266.727 123.823C266.812 121.939 265.268 119.631 263.275 118.683H263.263Z" fill="white"/>
<path d="M273.071 124.345C271.078 123.398 269.388 124.163 269.303 126.046C269.218 127.93 270.762 130.25 272.755 131.186C274.748 132.134 276.437 131.368 276.522 129.485C276.607 127.602 275.064 125.293 273.071 124.345Z" fill="white"/>
<path d="M156.716 79.5957L157.056 142.072L227.095 183.881L226.755 121.405L156.716 79.5957Z" fill="#F1EFFF"/>
<path d="M136.456 162.946L206.495 204.755C210.493 207.076 227.095 203.868 227.095 183.419L157.056 141.61C157.056 161.998 140.454 165.267 136.456 162.946Z" fill="#F1EFFF"/>
<path d="M198.924 187.15L128.885 145.341C128.909 154.186 132.045 160.407 137.088 163.335L207.127 205.144C202.083 202.216 198.948 195.983 198.924 187.15Z" fill="url(#paint9_linear_2158_10773)"/>
<path d="M154.54 81.2724L224.53 122.984L228.857 119.728L158.867 78.0283L154.54 81.2724Z" fill="url(#paint10_linear_2158_10773)"/>
<path d="M224.53 122.984L224.579 136.385L228.905 133.129L228.857 119.728L224.53 122.984Z" fill="url(#paint11_linear_2158_10773)"/>
<path d="M154.54 81.2725L154.576 94.6863L224.579 136.386L224.53 122.984L154.54 81.2725Z" fill="#B7ADFF"/>
<path d="M158.295 92.5358L189.724 111.539V106.764L158.283 87.7607L158.295 92.5358Z" fill="url(#paint12_linear_2158_10773)"/>
<path d="M219.426 123.652L215.719 125.985C215.136 126.35 214.966 127.115 215.33 127.698C215.561 128.075 215.974 128.282 216.388 128.282C216.618 128.282 216.837 128.221 217.044 128.087L220.751 125.754C221.334 125.39 221.504 124.624 221.139 124.041C220.775 123.47 220.009 123.288 219.426 123.652Z" fill="#C766FF"/>
<path d="M218.393 122.826C218.15 122.182 217.433 121.866 216.789 122.109C216.145 122.352 215.829 123.069 216.072 123.713L218.138 129.083C218.333 129.581 218.794 129.885 219.293 129.885C219.438 129.885 219.596 129.861 219.742 129.8C220.386 129.557 220.702 128.84 220.459 128.196L218.393 122.826Z" fill="#C766FF"/>
<path d="M163.278 144.855L219.207 177.089V143.336L163.278 111.102V144.855Z" fill="white"/>
<path d="M177.522 125.147C172.539 121.951 168.042 124.515 167.495 130.869C167.459 131.258 167.447 131.647 167.447 132.048C167.41 137.661 170.327 144.052 174.447 147.369C174.811 147.661 175.176 147.928 175.553 148.171C180.548 151.367 185.032 148.803 185.579 142.436C186.126 136.082 182.517 128.342 177.522 125.147Z" fill="#10FFF8"/>
<path d="M176.781 130.274C175.335 129.387 174.168 130.104 174.168 131.878C174.168 133.652 175.335 135.802 176.781 136.689C178.227 137.576 179.394 136.859 179.394 135.085C179.394 133.311 178.227 131.161 176.781 130.274Z" fill="white"/>
<path d="M176.781 136.519C174.192 134.939 172.102 136.215 172.102 139.386L181.46 145.121C181.46 141.95 179.369 138.099 176.781 136.519Z" fill="white"/>
<path fill-rule="evenodd" clip-rule="evenodd" d="M189.565 149.811L212.511 162.921V158.985L189.565 145.887V149.811Z" fill="#F1EFFF"/>
<path d="M200.212 154.392C200.066 154.392 199.957 154.501 199.932 154.671C199.896 154.878 199.993 155.133 200.151 155.279C200.224 155.339 200.297 155.364 200.37 155.364C200.516 155.364 200.625 155.254 200.65 155.096C200.686 154.89 200.589 154.635 200.431 154.489C200.358 154.428 200.285 154.404 200.212 154.404V154.392Z" fill="#B940FF"/>
<path d="M198.668 153.517C198.522 153.517 198.413 153.626 198.389 153.784C198.352 153.99 198.449 154.246 198.607 154.391C198.68 154.452 198.753 154.476 198.826 154.476C198.972 154.476 199.081 154.367 199.106 154.209C199.142 154.003 199.045 153.747 198.887 153.602C198.814 153.541 198.741 153.517 198.668 153.517Z" fill="#B940FF"/>
<path d="M197.137 152.643C196.991 152.643 196.882 152.752 196.857 152.922C196.821 153.129 196.918 153.384 197.076 153.53C197.149 153.59 197.222 153.615 197.295 153.615C197.441 153.615 197.55 153.505 197.574 153.335C197.611 153.129 197.514 152.873 197.356 152.728C197.283 152.667 197.21 152.643 197.137 152.643Z" fill="#B940FF"/>
<path d="M195.594 151.779C195.448 151.779 195.339 151.889 195.314 152.047C195.278 152.253 195.375 152.508 195.533 152.654C195.606 152.715 195.679 152.739 195.752 152.739C195.898 152.739 196.007 152.63 196.031 152.472C196.068 152.265 195.971 152.01 195.813 151.864C195.74 151.804 195.667 151.779 195.594 151.779Z" fill="#B940FF"/>
<path d="M194.05 150.904C193.904 150.904 193.795 151.014 193.77 151.184C193.734 151.39 193.831 151.645 193.989 151.791C194.062 151.852 194.135 151.876 194.208 151.876C194.354 151.876 194.463 151.767 194.487 151.597C194.524 151.39 194.427 151.135 194.269 150.989C194.196 150.929 194.123 150.904 194.05 150.904Z" fill="#B940FF"/>
<path d="M192.507 150.03C192.361 150.03 192.252 150.14 192.227 150.31C192.191 150.516 192.288 150.771 192.446 150.917C192.519 150.978 192.592 151.002 192.665 151.002C192.811 151.002 192.92 150.893 192.944 150.723C192.981 150.516 192.884 150.261 192.726 150.115C192.653 150.055 192.58 150.03 192.507 150.03Z" fill="#B940FF"/>
<path d="M190.963 149.155C190.817 149.155 190.708 149.265 190.683 149.423C190.647 149.629 190.744 149.884 190.902 150.03C190.975 150.091 191.048 150.115 191.121 150.115C191.267 150.115 191.376 150.006 191.4 149.848C191.437 149.641 191.34 149.374 191.182 149.24C191.109 149.18 191.036 149.155 190.963 149.155Z" fill="#B940FF"/>
<path fill-rule="evenodd" clip-rule="evenodd" d="M189.565 156.239L212.511 169.337V165.401L189.565 152.303V156.239Z" fill="#F1EFFF"/>
<path d="M195.594 157.904C195.448 157.904 195.339 158.014 195.314 158.184C195.278 158.39 195.375 158.645 195.533 158.791C195.606 158.852 195.679 158.876 195.752 158.876C195.898 158.876 196.007 158.767 196.031 158.597C196.068 158.39 195.971 158.135 195.813 157.989C195.74 157.929 195.667 157.904 195.594 157.904Z" fill="#B940FF"/>
<path d="M194.05 157.029C193.904 157.029 193.795 157.138 193.77 157.296C193.734 157.503 193.831 157.758 193.989 157.904C194.062 157.964 194.135 157.989 194.208 157.989C194.354 157.989 194.463 157.879 194.487 157.709C194.524 157.503 194.427 157.247 194.269 157.102C194.196 157.041 194.123 157.017 194.05 157.017V157.029Z" fill="#B940FF"/>
<path d="M192.507 156.154C192.361 156.154 192.252 156.264 192.227 156.422C192.191 156.628 192.288 156.883 192.446 157.029C192.519 157.09 192.592 157.114 192.665 157.114C192.811 157.114 192.92 157.005 192.944 156.847C192.981 156.64 192.884 156.373 192.726 156.239C192.653 156.179 192.58 156.154 192.507 156.154Z" fill="#B940FF"/>
<path d="M190.963 155.292C190.817 155.292 190.708 155.401 190.683 155.571C190.647 155.778 190.744 156.033 190.902 156.179C190.975 156.24 191.048 156.264 191.121 156.264C191.267 156.264 191.376 156.155 191.4 155.985C191.437 155.778 191.34 155.523 191.182 155.377C191.109 155.316 191.036 155.292 190.963 155.292Z" fill="#B940FF"/>
<path fill-rule="evenodd" clip-rule="evenodd" d="M212.328 145.486L192.373 134.089C191.109 133.36 189.565 134.332 189.565 135.851V138.026C189.565 139.605 190.392 141.063 191.704 141.816L211.66 153.213C212.924 153.942 214.467 152.97 214.467 151.452V149.277C214.467 147.697 213.641 146.239 212.328 145.486Z" fill="url(#paint13_linear_2158_10773)"/>
<path d="M432.387 376.669L355.433 420.336C352.662 421.879 349.806 422.195 347.91 422.195C346.015 422.195 343.098 421.867 340.363 420.276L248.935 367.471C246.577 366.098 243.49 362.927 243.49 362.927C243.49 362.927 243.49 364.652 243.478 365.77C243.442 369.488 245.483 372.914 248.935 374.931L340.363 427.736C343.098 429.328 345.978 429.668 347.91 429.668C349.843 429.668 352.662 429.34 355.433 427.797L432.387 384.129C435.973 382.136 438.136 378.698 438.172 374.931C438.172 373.74 438.172 371.638 438.172 371.638C438.172 371.638 434.915 375.271 432.387 376.669Z" fill="#B940FF"/>
<path d="M432.703 362.465L341.287 309.672C338.552 308.068 335.66 307.74 333.728 307.74C331.795 307.74 328.964 308.068 326.193 309.611L249.226 353.279C245.641 355.272 243.49 358.71 243.454 362.465C243.417 366.183 245.459 369.609 248.91 371.626L340.339 424.431C343.073 426.022 345.954 426.363 347.886 426.363C349.818 426.363 352.638 426.034 355.409 424.491L432.363 380.824C435.948 378.831 438.111 375.392 438.148 371.626C438.184 367.908 436.143 364.482 432.691 362.477L432.703 362.465Z" fill="url(#paint14_linear_2158_10773)"/>
<path d="M184.643 183.481C183.149 182.156 180.84 182.412 179.405 183.918C175.419 188.56 169.549 192.873 164.238 195.109C161.091 196.433 161.236 199.215 162.537 200.856C162.804 201.196 162.986 201.39 163.46 201.84C165.587 203.881 167.447 203.444 169.464 202.472C175.213 199.726 180.414 194.173 184.935 189.204C186.503 187.478 186.236 184.89 184.753 183.554C184.729 183.529 184.68 183.493 184.656 183.469L184.643 183.481Z" fill="#7C6AFF"/>
<path d="M184.267 159.52C183.987 158.633 183.185 158.05 183.185 158.05L180.524 156.361C180.171 156.738 180.305 157.576 180.803 157.929C180.973 158.05 182.407 159.289 182.407 159.289C182.407 159.289 182.711 159.775 182.444 160.067C182.371 160.14 181.216 159.703 180.767 159.144C180.001 158.208 178.798 155.414 177.765 153.603C177.437 153.032 175.492 152.036 176.27 153.883C176.416 154.247 178.117 156.653 177.85 157.321C177.425 158.402 176.805 159.472 176.975 160.918C177.194 162.728 179.794 164.392 180.062 164.684C180.548 165.194 180.414 171.087 180.925 175.06L186.078 173.821C186.078 173.821 184.376 164.696 183.866 162.376C183.647 161.391 184.546 160.419 184.279 159.532L184.267 159.52Z" fill="#CAA5FF"/>
<path d="M179.588 166.871C180.39 172.582 179.807 181.33 178.81 185.801C178.506 187.575 179.6 189.313 181.338 189.75C181.362 189.75 181.788 189.835 181.812 189.847C183.55 190.285 185.713 188.924 186.054 186.931C187.184 181.938 186.43 172.266 185.397 166.009C183.817 166.701 182.08 166.956 179.576 166.871H179.588Z" fill="#7C6AFF"/>
<path d="M173.815 293.221C172.089 293.221 170.826 293.61 169.574 293.986C166.657 294.873 157.834 296.088 157.834 296.088C157.834 296.088 157.676 299.745 157.676 302.868C157.676 305.091 159.985 306.294 162.27 306.294C163.825 306.294 165.721 304.885 165.721 304.885L165.928 303.39L166.815 303.949C166.815 303.949 175.383 298.287 176.064 296.829C176.744 295.371 175.565 293.221 173.827 293.221H173.815Z" fill="#7C6AFF"/>
<path d="M157.433 300.365C164.943 302.382 167.799 297.717 167.799 297.717L171.603 240.465L156.667 242.506L157.433 300.377V300.365Z" fill="url(#paint15_linear_2158_10773)"/>
<path d="M191.534 303.062C189.809 303.062 188.545 303.451 187.293 303.828C184.376 304.715 175.553 305.93 175.553 305.93C175.553 305.93 175.383 309.587 175.383 312.71C175.383 314.933 177.692 316.136 179.977 316.136C181.532 316.136 183.428 314.727 183.428 314.727L183.635 313.232L184.522 313.791C184.522 313.791 193.09 308.129 193.771 306.671C194.451 305.213 193.272 303.062 191.534 303.062Z" fill="#7C6AFF"/>
<path d="M175.152 310.219C182.663 312.236 185.519 307.57 185.519 307.57L185.774 245.507L170.412 247.293L175.164 310.219H175.152Z" fill="url(#paint16_linear_2158_10773)"/>
<path d="M186.929 208.255C187.135 205.12 186.588 198.583 183.331 196.323C181.144 194.805 176.331 193.541 171.336 193.541C157.652 193.541 157.178 205.485 157.178 208.619C157.178 215.436 155.185 242.032 155.185 242.032C156.631 242.956 159.061 245.714 163.947 246.722C167.751 247.5 171.555 247.937 175.128 247.95C179.807 247.95 184.097 247.233 187.5 245.58C187.5 245.58 186.491 214.852 186.929 208.255Z" fill="url(#paint17_linear_2158_10773)"/>
<path d="M169.501 185.449C169.501 185.449 170.012 191.099 168.954 193.602C168.164 195.473 178.774 196.421 176.732 193.748C175.748 192.46 177.461 188.705 177.461 188.705L169.501 185.449Z" fill="#CAA5FF"/>
<path d="M179.406 173.797C176.854 172.461 170.352 173.736 168.772 178.293C167.824 181.026 169.367 185.133 169.367 185.133C169.367 185.133 173.05 189.933 174.715 191.026C175.104 191.281 177.729 192.533 179.066 191.026C180.402 189.519 182.08 185.583 181.739 181.112C181.411 176.64 181.095 174.684 179.394 173.797H179.406Z" fill="#CAA5FF"/>
<path d="M179.892 173.748C177.134 170.82 170.219 170.103 166.548 174.283C162.89 178.45 164.616 186.299 167.375 189.118C169.015 190.795 172.601 191.925 175.128 190.418C178.24 188.559 178.434 179.422 180.05 178.961C184.389 177.709 183.526 173.116 183.526 173.116C183.526 173.116 182.056 176.032 179.892 173.736V173.748Z" fill="url(#paint18_radial_2158_10773)"/>
<path d="M202.229 200.308C196.141 200.855 188.739 198.304 183.331 196.323C181.423 195.74 179.272 197.562 178.421 200.102C178.288 200.515 178.263 201.341 178.288 202.009C178.385 204.95 180.026 205.934 182.14 206.663C188.168 208.704 195.776 208.364 202.485 207.963C204.806 207.817 206.434 205.776 206.301 203.795C206.301 203.759 206.301 203.698 206.301 203.662C206.155 201.669 204.32 200.235 202.242 200.321L202.229 200.308Z" fill="#7C6AFF"/>
<path d="M226.511 185.631C226.511 185.631 224.153 186.7 222.975 186.979C222.282 187.149 221.091 186.797 221.079 186.688C221.042 186.299 221.577 186.092 221.577 186.092C221.577 186.092 223.473 185.971 223.679 185.983C224.287 186.007 224.895 185.424 224.846 184.914L221.698 184.634C221.698 184.634 220.714 184.598 219.948 185.145C219.195 185.691 219.316 187.016 218.551 187.66C216.74 189.191 209.837 195.412 209.837 195.412L213.179 199.518C215.999 196.663 219.462 191.912 220.167 191.791C220.556 191.73 224.7 191.681 225.976 190.381C227.24 189.081 226.9 188.656 227.52 186.761C228.14 184.877 226.499 185.618 226.499 185.618L226.511 185.631Z" fill="#CAA5FF"/>
<path d="M215.513 189.457C211.672 193.746 204.599 198.947 200.54 201.061C198.996 201.972 198.365 203.916 199.154 205.532C199.167 205.556 199.373 205.921 199.385 205.957C200.163 207.573 202.606 208.339 204.356 207.318C208.901 204.961 215.817 198.157 219.936 193.333C218.381 192.58 217.068 191.414 215.525 189.445L215.513 189.457Z" fill="#7C6AFF"/>
<path d="M263.907 322.356L252.921 328.771C252.678 328.905 252.423 328.942 252.252 328.942C252.082 328.942 251.839 328.917 251.596 328.784L246.929 326.183C246.735 326.074 246.419 325.697 246.419 325.697C246.419 325.697 246.419 326.013 246.419 326.159C246.419 326.487 246.613 326.791 246.929 326.973L251.596 329.573C251.839 329.707 252.094 329.731 252.252 329.731C252.41 329.731 252.678 329.695 252.921 329.561L263.907 323.146C264.211 322.964 264.394 322.672 264.394 322.344C264.394 322.21 264.394 321.979 264.394 321.979C264.394 321.979 264.078 322.283 263.907 322.38V322.356Z" fill="#B940FF"/>
<path d="M263.883 321.141L259.216 318.541C258.973 318.407 258.718 318.383 258.56 318.383C258.402 318.383 258.135 318.407 257.892 318.553L246.905 324.968C246.601 325.15 246.419 325.442 246.419 325.77C246.419 326.098 246.613 326.402 246.929 326.584L251.596 329.172C251.839 329.306 252.094 329.342 252.252 329.342C252.41 329.342 252.678 329.306 252.921 329.172L263.907 322.757C264.211 322.587 264.394 322.283 264.394 321.955C264.394 321.627 264.199 321.323 263.883 321.141Z" fill="url(#paint19_linear_2158_10773)"/>
<path d="M259.216 322.234C259.143 322.113 259.022 322.003 258.84 321.906C258.536 321.748 258.147 321.663 257.722 321.663C257.223 321.663 256.713 321.772 256.312 321.991C255.57 322.392 255.51 323 256.166 323.352C256.822 323.704 257.952 323.668 258.694 323.267C258.718 323.267 258.73 323.243 258.755 323.23C259.241 322.939 259.411 322.55 259.216 322.234Z" fill="url(#paint20_linear_2158_10773)"/>
<path d="M259.398 321.408C259.641 321.554 259.824 321.76 259.921 321.955C259.945 322.003 259.982 322.064 259.994 322.125L260.31 320.643L258.256 321.031C258.681 321.092 259.082 321.201 259.398 321.408Z" fill="white"/>
<path d="M259.265 323.619C259.265 323.619 259.205 323.656 259.192 323.668C258.767 323.923 258.281 324.093 257.771 324.178L259.812 324.725L259.63 323.315C259.521 323.425 259.411 323.522 259.277 323.619H259.265Z" fill="white"/>
<path d="M255.193 322.15C255.327 321.943 255.534 321.736 255.813 321.566C256.202 321.323 256.652 321.178 257.126 321.105L254.865 320.716L255.206 322.162L255.193 322.15Z" fill="white"/>
<path d="M255.024 323.158L254.684 324.713L257.017 324.264C257.017 324.264 256.069 324.142 255.595 323.839C255.303 323.644 255.109 323.426 255.012 323.17L255.024 323.158Z" fill="white"/>
<path d="M189.676 404.625C189.08 404.966 189.676 405.622 189.676 406.314C189.676 407.481 189.797 408.441 191.073 408.441C192.362 408.441 192.483 407.493 192.483 406.326C192.483 405.78 193.188 405.281 192.823 404.917C192.799 404.893 192.775 404.856 192.738 404.832C192.738 404.832 204.102 403.362 206.484 403.896C207.213 403.386 207.942 402.924 208.671 402.548C202.522 400.348 193.832 402.28 189.676 404.638V404.625Z" fill="url(#paint21_linear_2158_10773)"/>
<path d="M191.158 404.03C189.918 404.03 188.922 405.027 188.922 406.266C188.922 407.505 189.918 408.502 191.158 408.502C192.398 408.502 193.394 407.505 193.394 406.266C193.394 405.027 192.398 404.03 191.158 404.03Z" fill="#C766FF"/>
<path d="M208.72 400.105L208.683 400.045C194.914 398.781 189.165 405.075 189.165 405.075C191.632 403.908 197.964 400.932 208.683 402.535C208.318 402.341 208.039 402.11 207.881 401.855C207.492 401.235 207.857 400.604 208.72 400.093V400.105Z" fill="white"/>
<path d="M196.396 416.581C196.177 417.043 195.982 417.492 195.982 418.027C195.982 419.388 197.173 420.481 198.656 420.481C200.127 420.481 201.342 419.388 201.342 418.039C201.342 417.93 201.342 417.821 201.318 417.711C201.269 417.359 201.135 417.031 200.941 416.739C200.941 416.739 205.012 409.826 212.474 405.051V403.362C212.365 403.313 208.549 403.192 208.439 403.155C202.8 405.658 197.246 414.734 196.383 416.569L196.396 416.581Z" fill="url(#paint22_linear_2158_10773)"/>
<path d="M198.717 415.232C197.234 415.232 196.031 416.435 196.031 417.918C196.031 419.4 197.234 420.603 198.717 420.603C200.2 420.603 201.403 419.4 201.403 417.918C201.403 416.435 200.2 415.232 198.717 415.232Z" fill="#C766FF"/>
<path d="M207.845 402.547C207.188 402.888 198.948 410.834 196.846 415.256C196.53 415.925 196.858 416.727 197.575 416.933C197.599 416.933 197.624 416.933 197.636 416.957C198.244 417.14 198.875 416.799 199.119 416.204C200.954 411.709 211.989 403.155 211.892 403.155C210.202 403.276 208.829 403.058 207.845 402.535V402.547Z" fill="white"/>
<path d="M235.177 404.625C231.021 402.268 222.331 400.336 216.182 402.535C216.911 402.912 217.64 403.361 218.369 403.884C220.751 403.361 232.114 404.819 232.114 404.819C232.09 404.844 232.066 404.88 232.029 404.904C231.665 405.269 232.37 405.779 232.37 406.314C232.37 407.48 232.491 408.428 233.779 408.428C235.056 408.428 235.177 407.468 235.177 406.302C235.177 405.609 235.773 404.953 235.177 404.613V404.625Z" fill="url(#paint23_linear_2158_10773)"/>
<path d="M233.694 404.03C232.467 404.03 231.458 405.027 231.458 406.266C231.458 407.505 232.455 408.502 233.694 408.502C234.934 408.502 235.93 407.505 235.93 406.266C235.93 405.027 234.934 404.03 233.694 404.03Z" fill="#C766FF"/>
<path d="M216.181 400.057L216.145 400.118C217.007 400.616 217.372 401.26 216.995 401.879C216.837 402.135 216.558 402.353 216.193 402.56C226.912 400.956 233.244 403.933 235.711 405.099C235.711 405.099 229.963 398.805 216.193 400.069L216.181 400.057Z" fill="white"/>
<path d="M216.413 403.155C216.303 403.192 212.487 403.325 212.378 403.362V405.051C219.84 409.814 223.911 416.727 223.911 416.739C223.717 417.031 223.583 417.359 223.535 417.711C223.522 417.808 223.51 417.918 223.51 418.039C223.51 419.388 224.713 420.481 226.196 420.481C227.691 420.481 228.87 419.388 228.87 418.027C228.87 417.505 228.675 417.055 228.457 416.581C227.594 414.734 222.04 405.67 216.401 403.167L216.413 403.155Z" fill="url(#paint24_linear_2158_10773)"/>
<path d="M226.184 415.232C224.701 415.232 223.498 416.435 223.498 417.918C223.498 419.4 224.701 420.603 226.184 420.603C227.667 420.603 228.87 419.4 228.87 417.918C228.87 416.435 227.667 415.232 226.184 415.232Z" fill="#C766FF"/>
<path d="M217.008 402.548C216.023 403.07 214.65 403.289 212.961 403.168C212.863 403.168 223.886 411.721 225.734 416.217C225.977 416.812 226.597 417.152 227.216 416.97C227.241 416.97 227.265 416.958 227.277 416.946C227.994 416.727 228.322 415.937 228.006 415.269C225.892 410.846 217.664 402.888 217.008 402.56V402.548Z" fill="white"/>
<path d="M212.936 399.413C209.594 399.413 206.884 400.47 206.884 401.782C206.884 403.095 209.594 404.152 212.936 404.152C216.278 404.152 218.988 403.095 218.988 401.782C218.988 400.47 216.278 399.413 212.936 399.413Z" fill="#8675FF"/>
<path d="M212.936 399.413C209.594 399.413 206.884 400.47 206.884 401.782C206.884 403.095 209.594 404.152 212.936 404.152C216.278 404.152 218.988 403.095 218.988 401.782C218.988 400.47 216.278 399.413 212.936 399.413Z" fill="url(#paint25_linear_2158_10773)"/>
<path d="M237.511 387.177C234.351 387.469 231.179 388.623 231.179 388.623C231.179 388.623 231.58 393.021 227.813 391.259C225.175 390.032 221.931 385.877 220.934 385.877C220.91 385.901 218.224 388.028 220.594 392.171C222.964 396.338 223.292 398.173 223.292 398.173C223.292 398.173 224.033 398.683 224.665 397.942L223.28 392.645L229.429 395.463C230.499 395.864 231.568 395.451 232.589 394.929C236.891 392.754 238.204 388.088 238.252 387.797C238.313 387.396 237.924 387.141 237.523 387.165L237.511 387.177Z" fill="url(#paint26_linear_2158_10773)"/>
<path d="M218.722 348.212L223.437 358.066L225.661 356.632C225.661 356.632 222.902 362.889 222.72 371.261C222.538 379.62 222.428 384.176 220.946 385.889C220.946 385.889 223.461 387.748 225.309 389.826C226.621 391.296 230.352 392.864 232.528 391.078C233.172 390.543 233.002 389.51 232.248 389.158C230.571 388.392 228.189 386.91 227.909 384.541C227.557 381.54 235.384 357.531 235.384 350.083C235.384 342.635 221.432 347.118 218.734 348.212H218.722Z" fill="#B27BFF"/>
<path d="M248.606 397.249C245.459 397.541 242.287 398.695 242.287 398.695C242.287 398.695 242.688 403.094 238.908 401.332C236.271 400.105 233.026 395.949 232.029 395.949C232.005 395.961 229.307 398.1 231.677 402.243C234.059 406.411 234.375 408.245 234.375 408.245C234.375 408.245 235.116 408.756 235.748 408.014L234.363 402.717L240.512 405.536C241.582 405.937 242.651 405.511 243.672 405.001C247.974 402.826 249.287 398.161 249.335 397.869C249.396 397.468 249.007 397.213 248.606 397.237V397.249Z" fill="url(#paint27_linear_2158_10773)"/>
<path d="M227.047 356.17L234.521 368.138L236.745 366.704C236.745 366.704 233.986 372.961 233.804 381.333C233.622 389.692 233.512 394.249 232.03 395.962C232.03 395.962 234.545 397.821 236.393 399.898C237.705 401.369 241.436 402.936 243.612 401.15C244.256 400.627 244.086 399.583 243.332 399.242C241.655 398.477 239.273 396.995 238.993 394.625C238.641 391.636 246.468 367.615 246.468 360.167C246.468 349.852 229.757 355.089 227.059 356.182L227.047 356.17Z" fill="#B27BFF"/>
<path d="M210.469 401.685C210.469 401.685 211.077 402.22 212.888 402.22C214.99 402.22 215.476 401.685 215.476 401.685V385.89H210.457V401.685H210.469Z" fill="url(#paint28_linear_2158_10773)"/>
<path d="M220.836 383.861L242.396 372.804L218.49 359.147L220.836 383.861Z" fill="#B7ADFF"/>
<path d="M228.881 356.437C226.572 354.846 221.03 349.84 221.03 349.84L219.912 359.414C213.277 365.659 204.551 357.008 204.478 356.936C204.478 356.936 198.936 365.757 207.139 373.107C215.197 380.325 224.713 376.51 234.593 368.211C234.593 368.211 236.513 361.711 228.881 356.425V356.437Z" fill="url(#paint29_linear_2158_10773)"/>
<path d="M217.604 334.859C213.459 332.575 210.968 330.91 210.968 330.91C210.968 330.91 209.582 330.254 207.917 330.096C206.617 329.962 205.134 330.145 203.992 331.165C197.502 336.997 204.466 351.31 204.466 356.948C204.466 356.948 213.228 365.696 219.901 359.427L221.019 349.852C221.019 349.852 223.935 349.075 223.935 345.77C223.935 342.465 220.338 336.39 217.604 334.883V334.859Z" fill="url(#paint30_linear_2158_10773)"/>
<path d="M222.671 316.657C222.039 312.757 218.77 310.959 214.723 310.959C210.372 310.959 206.848 314.483 206.848 318.832C206.848 318.881 206.848 318.917 206.848 318.966V323.352C206.848 326.633 215.671 331.493 216.68 331.456C217.202 331.432 217.713 331.262 218.126 330.934C220.836 328.771 223.34 324.361 222.841 321.214C222.55 319.355 222.902 318.055 222.683 316.657H222.671Z" fill="#B27BFF"/>
<path d="M218.284 318.237C219.974 317.095 223.389 316.67 223.389 312.952C223.389 311.227 219.099 306.768 213.763 306.768C210.543 306.768 204.867 309.137 203.081 314.969C200.407 323.693 202.06 342.125 202.06 348.844C202.06 358.418 210.166 357.823 210.166 355.247C210.166 341.784 212.743 335.272 215.769 335.272C218.321 335.272 222.587 338.917 223.911 345.211C224.288 338.917 221.481 336.159 219.111 331.979C216.072 326.609 216.376 319.537 218.284 318.25V318.237Z" fill="#B7ADFF"/>
<path d="M234.095 338.819C228.323 339.33 221.298 336.924 216.157 335.041C214.347 334.482 212.305 336.219 211.503 338.625C211.369 339.014 211.357 339.804 211.381 340.435C211.466 343.23 213.034 344.166 215.039 344.846C220.763 346.79 227.982 346.462 234.339 346.085C236.538 345.952 238.082 344.008 237.96 342.124C237.96 342.1 237.96 342.027 237.96 342.003C237.827 340.12 236.076 338.759 234.108 338.832L234.095 338.819Z" fill="url(#paint31_linear_2158_10773)"/>
<path d="M257.138 324.884C257.138 324.884 254.902 325.904 253.784 326.159C253.127 326.317 251.997 325.977 251.985 325.892C251.949 325.515 252.459 325.321 252.459 325.321C252.459 325.321 254.258 325.212 254.452 325.224C255.023 325.248 255.607 324.701 255.57 324.215L252.58 323.96C252.58 323.96 251.645 323.936 250.915 324.446C250.198 324.969 250.308 326.22 249.579 326.828C247.853 328.286 241.314 334.178 241.314 334.178L244.486 338.079C247.16 335.369 250.454 330.849 251.122 330.752C251.499 330.691 255.424 330.655 256.64 329.416C257.843 328.188 257.527 327.775 258.098 325.977C258.694 324.191 257.138 324.896 257.138 324.896V324.884Z" fill="#CAA5FF"/>
<path d="M246.699 328.528C243.053 332.599 236.344 337.532 232.48 339.549C231.009 340.411 230.414 342.258 231.155 343.801C231.167 343.825 231.362 344.178 231.374 344.202C232.115 345.733 234.436 346.474 236.089 345.502C240.403 343.266 246.966 336.803 250.867 332.234C249.397 331.517 248.157 330.412 246.687 328.54L246.699 328.528Z" fill="url(#paint32_linear_2158_10773)"/>
<path d="M190.271 368.539C190.271 372.585 192.422 376.315 195.91 378.356L212.912 388.295C215.671 389.911 219.062 389.972 221.869 388.465L224.579 387.02L190.259 367.494V368.527L190.271 368.539Z" fill="url(#paint33_linear_2158_10773)"/>
<path d="M209.728 337.896L192.641 327.568C190.854 326.633 189.347 326.876 188.594 328.054C188.217 328.65 188.022 329.488 188.083 330.509L189.517 366.242C189.639 368.162 190.708 369.887 192.361 370.859L217.287 385.342L214.65 345.502C214.371 342.586 212.171 339.196 209.716 337.908L209.728 337.896Z" fill="url(#paint34_linear_2158_10773)"/>
<path d="M239.904 372.621L222.075 381.843L222.136 381.783L219.074 343.728C218.77 340.861 216.631 337.532 214.237 336.256L197.647 325.831C195.642 324.762 189.468 325.831 188.605 328.054C189.371 326.876 190.878 326.633 192.652 327.568L209.74 337.896C212.195 339.196 214.395 342.574 214.674 345.49L217.311 385.33V385.379C217.336 387.882 220.009 389.474 222.221 388.295L242.25 377.202C243.076 376.752 243.599 375.89 243.599 374.954V374.893C243.599 372.998 241.606 371.771 239.916 372.609L239.904 372.621Z" fill="url(#paint35_linear_2158_10773)"/>
<path d="M305.155 359.452L349.514 385.004L396.244 357.544L369.895 342.466L305.155 359.452Z" fill="#10FFF8"/>
<path d="M327.541 326.816C327.541 335.807 322.996 344.191 315.449 349.088L305.155 355.722L349.514 381.286L359.723 374.712C367.197 369.852 371.718 361.541 371.718 352.623V347.241L327.541 321.458V326.816Z" fill="url(#paint36_linear_2158_10773)"/>
<path d="M305.155 359.451L349.502 385.003L349.551 381.236L305.204 355.685L305.155 359.451Z" fill="white"/>
<path d="M443.349 230.137L284.944 139.728C283.352 138.816 281.918 138.731 280.885 139.327L275.258 142.559C276.291 141.963 277.737 142.048 279.317 142.959L437.722 233.369C440.833 235.143 443.373 239.468 443.373 243.041L443.106 381.832C443.106 383.606 442.462 384.858 441.441 385.441L447.08 382.209C448.101 381.626 448.745 380.374 448.745 378.6L449.012 239.809C449.012 236.249 446.484 231.923 443.361 230.137H443.349Z" fill="url(#paint37_linear_2158_10773)"/>
<path d="M437.722 233.381L279.317 142.971C276.182 141.185 273.617 142.595 273.605 146.155L273.338 284.946C273.338 288.507 275.878 292.868 279.013 294.654L437.418 385.064C440.529 386.838 443.094 385.404 443.094 381.832L443.361 243.04C443.361 239.48 440.833 235.155 437.71 233.369L437.722 233.381Z" fill="#F1EFFF"/>
<path d="M279.609 281.313L436.835 371.03V243.077L279.609 153.348V281.313Z" fill="url(#paint38_linear_2158_10773)"/>
<path d="M282.902 279.394L433.541 365.369V261.533L282.902 175.559V279.394Z" fill="url(#paint39_linear_2158_10773)"/>
<path d="M283.17 171.27L433.274 256.929V245.094L283.17 159.436V171.27Z" fill="url(#paint40_linear_2158_10773)"/>
<path d="M425.447 348.675L293.281 273.246C291.75 272.372 289.842 273.477 289.842 275.239C289.842 276.065 290.279 276.831 290.996 277.232L423.162 352.66C424.694 353.535 426.602 352.429 426.602 350.667C426.602 349.841 426.164 349.076 425.447 348.675Z" fill="url(#paint41_linear_2158_10773)"/>
<path d="M346.743 303.767L293.281 273.258C291.75 272.383 289.842 273.489 289.842 275.251C289.842 276.077 290.279 276.842 290.996 277.243L344.458 307.752C345.99 308.627 347.898 307.522 347.898 305.76C347.898 304.934 347.46 304.18 346.743 303.767Z" fill="url(#paint42_linear_2158_10773)"/>
<path d="M363.235 239.529C354.048 231.558 344.313 235.033 341.554 247.269C338.783 259.504 344.009 275.955 353.209 283.926C362.397 291.896 372.132 288.421 374.902 276.186C377.673 263.939 372.447 247.5 363.248 239.529H363.235Z" fill="url(#paint43_linear_2158_10773)"/>
<path d="M356.052 246.758C354.873 245.094 352.431 245.677 352.431 247.609V271.241C352.431 272.869 354.266 274.023 355.603 273.234L367.428 266.284C368.376 265.725 368.582 264.437 367.877 263.441L356.052 246.758Z" fill="url(#paint44_linear_2158_10773)"/>
<path d="M342.709 302.565C341.98 304.97 342.915 308.214 344.787 309.782C346.659 311.349 348.773 310.669 349.502 308.263C350.232 305.857 349.296 302.613 347.424 301.046C345.553 299.478 343.438 300.159 342.709 302.577V302.565Z" fill="url(#paint45_radial_2158_10773)"/>
<path d="M48.4795 296.404V333.049H55.2124V291.191L48.9899 295.42C48.6739 295.651 48.4795 296.015 48.4795 296.404Z" fill="#C766FF"/>
<path d="M140.82 354.835L85.4252 322.782V309.247C85.4495 308.773 85.1335 308.19 84.7203 307.959L55.7836 291.216C55.3704 290.973 55.0179 291.168 55.0058 291.642V374.797C54.945 376.17 55.8686 377.847 57.0475 378.528L140.601 426.873C141.792 427.566 142.861 427.007 142.861 425.634V358.565C142.934 357.192 142.011 355.515 140.832 354.835H140.82Z" fill="#B940FF"/>
<path d="M130.696 307.789C128.472 309.052 126.673 310.875 125.433 313.013C124.194 315.152 123.501 317.618 123.501 320.182V374.858L138.595 383.594C138.838 383.74 139.069 383.91 139.288 384.128V312.77C139.288 308.36 134.512 305.59 130.696 307.801V307.789Z" fill="url(#paint46_linear_2158_10773)"/>
<path d="M130.696 299.442C128.472 300.717 126.673 302.528 125.433 304.666C124.194 306.805 123.501 309.271 123.501 311.835V366.511L138.595 375.247C138.838 375.38 139.069 375.563 139.288 375.769V304.411C139.288 300.001 134.512 297.23 130.696 299.442Z" fill="url(#paint47_linear_2158_10773)"/>
<path d="M136.092 431.417L142.217 427.031C142.63 426.74 142.873 426.266 142.873 425.768V358.358L136.092 362.672V431.417Z" fill="#C766FF"/>
<path d="M134.305 359.658L78.9233 327.606V314.07C78.9476 313.597 78.6316 313.013 78.2184 312.782L49.2817 296.039C48.8684 295.796 48.516 295.991 48.5038 296.465V379.621C48.4431 380.994 49.3546 382.67 50.5456 383.351L134.099 431.696C135.29 432.389 136.299 431.83 136.359 430.457V363.388C136.432 362.015 135.509 360.35 134.33 359.658H134.305Z" fill="url(#paint48_linear_2158_10773)"/>
<path d="M44.5544 332.15C44.3964 332.187 44.2384 332.15 44.1168 332.077C44.0075 332.005 43.9224 331.895 43.8859 331.761C43.8859 331.737 43.8859 331.725 43.8738 331.701C43.8738 331.628 42.6463 324.35 41.1758 319.113C39.9361 314.703 39.1826 314.18 39.0368 314.119C38.4656 313.864 36.9951 313.573 36.0957 314.253C35.3787 314.788 35.1235 315.833 35.3058 317.388C35.5731 319.538 36.12 324.022 37.2989 328.177C39.0854 334.532 41.4918 337.326 44.445 336.5C47.301 335.698 57.8013 332.588 60.1834 331.761L58.7371 328.615L44.5544 332.15Z" fill="#CAA5FF"/>
<path d="M45.1013 330.583C44.7246 328.457 43.7159 322.965 42.5249 318.736C41.2123 314.083 40.313 313.147 39.5959 312.844C38.5994 312.406 36.6063 312.127 35.2451 313.135C34.1027 313.986 33.653 315.48 33.9082 317.57C34.1756 319.757 34.7347 324.301 35.9378 328.566C37.9796 335.808 40.9693 338.942 44.8218 337.849C47.4955 337.095 55.942 334.313 59.1991 333.207C58.2389 331.458 57.4855 329.599 56.9264 327.764L45.0892 330.571L45.1013 330.583Z" fill="url(#paint49_linear_2158_10773)"/>
<path d="M66.8554 327.193C66.8554 327.193 64.6557 327.837 63.5862 327.934C62.9542 327.995 61.9577 327.533 61.9577 327.448C61.9698 327.096 62.4681 326.986 62.4681 326.986C62.4681 326.986 64.1453 327.12 64.3276 327.156C64.8501 327.254 65.47 326.828 65.4943 326.367L62.772 325.735C62.772 325.735 61.9091 325.589 61.1677 325.966C60.4385 326.354 60.2319 327.582 59.5635 328.177C59.3934 328.335 58.6885 328.663 58.6885 328.663L60.159 331.773C60.5115 331.81 64.4977 332.296 65.7859 331.312C67.062 330.328 66.819 329.914 67.5846 328.335C68.3624 326.755 66.8311 327.217 66.8311 327.217L66.8554 327.193Z" fill="#CAA5FF"/>
<path d="M128.083 402.877L108.978 391.82C107.775 391.128 106.256 391.99 106.256 393.388V406.546C106.256 407.202 106.608 407.798 107.167 408.114L126.272 419.049C127.475 419.741 128.982 418.867 128.982 417.481V404.444C128.982 403.8 128.642 403.205 128.083 402.877Z" fill="#B940FF"/>
<path fill-rule="evenodd" clip-rule="evenodd" d="M117.364 404.954L124.851 409.243V407.227L117.364 402.938V404.954Z" fill="#F1EFFF"/>
<path fill-rule="evenodd" clip-rule="evenodd" d="M108.687 405.173L122.164 412.889V410.884L108.687 403.156V405.173Z" fill="#F1EFFF"/>
<path fill-rule="evenodd" clip-rule="evenodd" d="M113.256 394.274L119.308 397.737V395.732L113.256 392.257V394.274Z" fill="#F1EFFF"/>
<path d="M67.4381 262.858C60.5229 265.543 59.7451 271.387 59.7451 274.996V359.16L128.046 398.66V314.459C128.046 311.896 128.727 309.429 129.966 307.291C131.206 305.152 133.005 303.33 135.229 302.066C136.553 301.301 138 301.131 139.312 301.434L139.421 301.301L73.1258 262.408C70.7924 261.363 68.5197 262.457 67.4502 262.87L67.4381 262.858Z" fill="url(#paint50_linear_2158_10773)"/>
<path d="M65.9551 355.576L92.0723 370.678V333.73L65.9551 318.627V355.576Z" fill="#F1EFFF"/>
<path d="M95.3906 329.513L121.508 344.616V325.601L95.3906 310.498V329.513Z" fill="#F1EFFF"/>
<path d="M112.113 369.998L121.508 375.344V373.849L112.113 368.491V369.998Z" fill="#F1EFFF"/>
<path d="M95.3906 360.448L110.777 369.22V367.726L95.3906 358.953V360.448Z" fill="#F1EFFF"/>
<path d="M95.3906 363.315L103.084 367.701V366.207L95.3906 361.809V363.315Z" fill="#F1EFFF"/>
<path d="M104.651 368.6L116.89 375.574V374.08L104.651 367.105V368.6Z" fill="#F1EFFF"/>
<path d="M118.348 376.413L121.507 378.212V376.717L118.348 374.919V376.413Z" fill="#F1EFFF"/>
<path d="M95.3906 366.17L121.508 381.079V379.584L95.3906 364.676V366.17Z" fill="#F1EFFF"/>
<path d="M95.3906 369.037L103.084 373.436V371.929L95.3906 367.543V369.037Z" fill="#F1EFFF"/>
<path d="M104.651 374.324L116.89 381.31V379.815L104.651 372.829V374.324Z" fill="#F1EFFF"/>
<path d="M118.348 382.136L121.507 383.946V382.452L118.348 380.642V382.136Z" fill="#F1EFFF"/>
<path d="M95.3906 371.906L110.777 380.678V379.184L95.3906 370.411V371.906Z" fill="#F1EFFF"/>
<path d="M112.113 381.455L121.508 386.802V385.307L112.113 379.961V381.455Z" fill="#F1EFFF"/>
<path d="M112.113 347.763L121.508 353.121V351.627L112.113 346.269V347.763Z" fill="#F1EFFF"/>
<path d="M95.3906 338.213L110.777 346.998V345.491L95.3906 336.719V338.213Z" fill="#F1EFFF"/>
<path d="M95.3906 341.08L103.084 345.467V343.972L95.3906 339.586V341.08Z" fill="#F1EFFF"/>
<path d="M104.651 346.366L116.89 353.352V351.857L104.651 344.871V346.366Z" fill="#F1EFFF"/>
<path d="M118.348 354.178L121.507 355.976V354.482L118.348 352.684V354.178Z" fill="#F1EFFF"/>
<path d="M95.3906 343.949L121.508 358.845V357.35L95.3906 342.454V343.949Z" fill="#F1EFFF"/>
<path d="M95.3906 346.803L103.084 351.201V349.707L95.3906 345.309V346.803Z" fill="#F1EFFF"/>
<path d="M104.651 352.101L116.89 359.075V357.581L104.651 350.606V352.101Z" fill="#F1EFFF"/>
<path d="M118.348 359.913L121.507 361.712V360.217L118.348 358.419V359.913Z" fill="#F1EFFF"/>
<path d="M95.3906 349.671L110.777 358.456V356.961L95.3906 348.177V349.671Z" fill="#F1EFFF"/>
<path d="M112.113 359.221L121.508 364.579V363.085L112.113 357.727V359.221Z" fill="#F1EFFF"/>
<path d="M82.6904 310.766L92.0727 316.124V314.63L82.6904 309.271V310.766Z" fill="#F1EFFF"/>
<path d="M65.9551 301.216L81.341 310.001V308.506L65.9551 299.722V301.216Z" fill="#F1EFFF"/>
<path d="M65.9551 304.083L73.6602 308.482V306.987L65.9551 302.589V304.083Z" fill="#F1EFFF"/>
<path d="M75.2275 309.368L87.4658 316.355V314.86L75.2275 307.874V309.368Z" fill="#F1EFFF"/>
<path d="M88.9248 317.194L92.0725 318.992V317.497L88.9248 315.699V317.194Z" fill="#F1EFFF"/>
<path d="M65.9551 306.952L92.0723 321.86V320.365L65.9551 305.457V306.952Z" fill="#F1EFFF"/>
<path d="M65.9551 309.819L73.6602 314.205V312.71L65.9551 308.324V309.819Z" fill="#F1EFFF"/>
<path d="M75.2275 315.104L87.4658 322.09V320.584L75.2275 313.609V315.104Z" fill="#F1EFFF"/>
<path d="M88.9248 322.916L92.0725 324.715V323.22L88.9248 321.422V322.916Z" fill="#F1EFFF"/>
<path d="M65.9551 312.686L81.341 321.459V319.964L65.9551 311.18V312.686Z" fill="#F1EFFF"/>
<path d="M82.6904 322.224L92.0727 327.582V326.088L82.6904 320.729V322.224Z" fill="#F1EFFF"/>
<path d="M112.113 313.876L121.508 319.235V317.74L112.113 312.382V313.876Z" fill="#F1EFFF"/>
<path d="M95.3906 304.326L110.777 313.111V311.617L95.3906 302.832V304.326Z" fill="#F1EFFF"/>
<path d="M95.3906 307.194L103.084 311.58V310.085L95.3906 305.699V307.194Z" fill="#F1EFFF"/>
<path d="M104.651 312.479L116.89 319.465V317.971L104.651 310.984V312.479Z" fill="#F1EFFF"/>
<path d="M118.348 320.292L121.507 322.103V320.596L118.348 318.798V320.292Z" fill="#F1EFFF"/>
<path d="M70.3181 297.838L66.9152 287.425L66.028 286.915L65.9551 297.632L66.7936 298.118L66.8423 289.697L70.2452 300.11L71.1445 300.62L71.2174 289.904L70.3788 289.418L70.3181 297.838Z" fill="url(#paint51_linear_2158_10773)"/>
<path d="M73.5263 297.061L77.1723 299.151L77.1844 297.899L73.5384 295.797L73.5628 292.517L77.4518 294.752V293.489L72.6999 290.755L72.627 301.471L77.5368 304.302L77.549 303.039L73.502 300.706L73.5263 297.061Z" fill="url(#paint52_linear_2158_10773)"/>
<path d="M84.7314 304.593C84.5855 305.395 84.4761 306.112 84.3911 306.744C84.2938 305.492 84.1358 304.132 83.9049 302.649L82.9934 296.683L81.9361 296.076L80.6357 302.601C80.6114 302.759 80.502 303.366 80.3319 304.411C80.259 303.645 80.1739 302.856 80.0645 302.054L79.1044 294.448L78.2051 293.938L79.8822 305.662L80.7694 306.173L82.2156 298.81C82.2764 298.494 82.3493 298.117 82.4222 297.668C82.4465 297.838 82.5073 298.299 82.6167 299.041L83.9535 308.007L84.7921 308.493L86.6637 298.81L85.7887 298.299L84.707 304.593H84.7314Z" fill="url(#paint53_linear_2158_10773)"/>
<path d="M91.295 306.537C91.0276 306.185 90.5415 305.687 89.8366 305.018C89.1317 304.35 88.6942 303.84 88.524 303.5C88.3539 303.147 88.2688 302.783 88.2688 302.406C88.2688 301.969 88.3903 301.653 88.6334 301.483C88.8765 301.313 89.2654 301.373 89.788 301.677C90.2984 301.969 90.6751 302.357 90.9304 302.856C91.1856 303.354 91.3314 303.949 91.38 304.654L92.2186 305.031C92.2186 304.387 92.0971 303.767 91.9026 303.159C91.7082 302.552 91.4165 302.005 91.0519 301.531C90.6751 301.057 90.2498 300.681 89.7637 300.401C89.3261 300.146 88.9129 300.037 88.5483 300.073C88.1837 300.11 87.9042 300.304 87.7098 300.669C87.5153 301.033 87.4181 301.483 87.4181 302.029C87.4181 302.515 87.491 303.014 87.6368 303.5C87.7827 303.986 88.0257 304.447 88.3296 304.897C88.5726 305.249 88.998 305.711 89.5935 306.294C90.2012 306.877 90.5901 307.278 90.7602 307.485C91.0397 307.813 91.2342 308.141 91.3557 308.457C91.4773 308.773 91.5259 309.101 91.5259 309.441C91.5259 309.769 91.453 310.049 91.3314 310.255C91.2099 310.462 91.0154 310.571 90.7602 310.595C90.505 310.62 90.2133 310.522 89.873 310.328C89.4963 310.109 89.1682 309.818 88.8643 309.429C88.5605 309.04 88.3417 308.639 88.208 308.214C88.0744 307.789 87.9771 307.29 87.9407 306.744L87.1143 306.391C87.1143 307.12 87.2358 307.825 87.4667 308.53C87.6855 309.234 88.0014 309.842 88.4025 310.352C88.8035 310.863 89.3018 311.3 89.8973 311.64C90.3713 311.908 90.7967 312.017 91.1734 311.956C91.5502 311.895 91.8418 311.665 92.0485 311.276C92.2551 310.887 92.3523 310.413 92.3644 309.842C92.3644 309.271 92.2794 308.7 92.0971 308.165C91.9148 307.619 91.6352 307.096 91.2585 306.586L91.295 306.537Z" fill="url(#paint54_linear_2158_10773)"/>
<path fill-rule="evenodd" clip-rule="evenodd" d="M106.085 397.02L112.137 400.471V398.466L106.085 395.003V397.02Z" fill="#F1EFFF"/>
<path d="M60.2799 265.591C53.3647 268.264 52.5869 274.121 52.5869 277.729V361.894L120.888 401.394V317.193C120.888 314.63 121.568 312.163 122.808 310.025C124.048 307.886 125.846 306.064 128.07 304.8C129.395 304.035 130.841 303.865 132.154 304.168L132.263 304.022L65.9676 265.13C63.6342 264.085 61.3615 265.178 60.292 265.591H60.2799Z" fill="url(#paint55_linear_2158_10773)"/>
<path d="M58.7969 358.309L84.9141 373.412V336.463L58.7969 321.36V358.309Z" fill="#F1EFFF"/>
<path d="M88.2324 332.259L114.35 347.362V328.347L88.2324 313.244V332.259Z" fill="#F1EFFF"/>
<path d="M104.955 372.732L114.349 378.09V376.583L104.955 371.237V372.732Z" fill="#F1EFFF"/>
<path d="M88.2197 363.182L103.606 371.967V370.472L88.2197 361.688V363.182Z" fill="#F1EFFF"/>
<path d="M88.2197 366.049L95.9249 370.435V368.941L88.2197 364.555V366.049Z" fill="#F1EFFF"/>
<path d="M97.4922 371.334L109.73 378.321V376.826L97.4922 369.84V371.334Z" fill="#F1EFFF"/>
<path d="M111.189 379.148L114.349 380.946V379.452L111.189 377.653V379.148Z" fill="#F1EFFF"/>
<path d="M88.2197 368.917L114.349 383.813V382.319L88.2197 367.423V368.917Z" fill="#F1EFFF"/>
<path d="M88.2197 371.772L95.9249 376.17V374.676L88.2197 370.277V371.772Z" fill="#F1EFFF"/>
<path d="M97.4922 377.07L109.73 384.044V382.549L97.4922 375.575V377.07Z" fill="#F1EFFF"/>
<path d="M111.189 384.882L114.349 386.68V385.186L111.189 383.388V384.882Z" fill="#F1EFFF"/>
<path d="M88.2197 374.64L103.606 383.425V381.93L88.2197 373.146V374.64Z" fill="#F1EFFF"/>
<path d="M104.955 384.19L114.349 389.548V388.054L104.955 382.695V384.19Z" fill="#F1EFFF"/>
<path d="M104.955 350.496L114.349 355.855V354.36L104.955 349.002V350.496Z" fill="#F1EFFF"/>
<path d="M88.2197 340.947L103.606 349.731V348.237L88.2197 339.452V340.947Z" fill="#F1EFFF"/>
<path d="M88.2197 343.814L95.9249 348.212V346.718L88.2197 342.319V343.814Z" fill="#F1EFFF"/>
<path d="M97.4922 349.112L109.73 356.086V354.591L97.4922 347.617V349.112Z" fill="#F1EFFF"/>
<path d="M111.189 356.925L114.349 358.723V357.228L111.189 355.418V356.925Z" fill="#F1EFFF"/>
<path d="M88.2197 346.682L114.349 361.59V360.084L88.2197 345.188V346.682Z" fill="#F1EFFF"/>
<path d="M88.2197 349.549L95.9249 353.935V352.441L88.2197 348.055V349.549Z" fill="#F1EFFF"/>
<path d="M97.4922 354.834L109.73 361.821V360.326L97.4922 353.34V354.834Z" fill="#F1EFFF"/>
<path d="M111.189 362.647L114.349 364.445V362.951L111.189 361.152V362.647Z" fill="#F1EFFF"/>
<path d="M88.2197 352.416L103.606 361.189V359.694L88.2197 350.922V352.416Z" fill="#F1EFFF"/>
<path d="M104.955 361.954L114.349 367.313V365.818L104.955 360.46V361.954Z" fill="#F1EFFF"/>
<path d="M75.5322 313.511L84.9145 318.857V317.363L75.5322 312.017V313.511Z" fill="#F1EFFF"/>
<path d="M58.7969 303.961L74.1828 312.734V311.239L58.7969 302.467V303.961Z" fill="#F1EFFF"/>
<path d="M58.7969 306.829L66.4898 311.215V309.721L58.7969 305.322V306.829Z" fill="#F1EFFF"/>
<path d="M68.0576 312.114L80.2959 319.088V317.593L68.0576 310.619V312.114Z" fill="#F1EFFF"/>
<path d="M81.7539 319.926L84.9137 321.724V320.23L81.7539 318.432V319.926Z" fill="#F1EFFF"/>
<path d="M58.7969 309.684L84.9141 324.592V323.098L58.7969 308.189V309.684Z" fill="#F1EFFF"/>
<path d="M58.7969 312.551L66.4898 316.949V315.455L58.7969 311.057V312.551Z" fill="#F1EFFF"/>
<path d="M68.0576 317.849L80.2959 324.824V323.329L68.0576 316.343V317.849Z" fill="#F1EFFF"/>
<path d="M81.7539 325.662L84.9137 327.46V325.966L81.7539 324.155V325.662Z" fill="#F1EFFF"/>
<path d="M58.7969 315.419L74.1828 324.204V322.709L58.7969 313.925V315.419Z" fill="#F1EFFF"/>
<path d="M75.5322 324.969L84.9145 330.327V328.833L75.5322 323.475V324.969Z" fill="#F1EFFF"/>
<path d="M104.955 316.623L114.349 321.969V320.474L104.955 315.116V316.623Z" fill="#F1EFFF"/>
<path d="M88.2197 307.073L103.606 315.845V314.351L88.2197 305.578V307.073Z" fill="#F1EFFF"/>
<path d="M88.2197 309.928L95.9249 314.326V312.832L88.2197 308.434V309.928Z" fill="#F1EFFF"/>
<path d="M97.4922 315.225L109.73 322.199V320.705L97.4922 313.73V315.225Z" fill="#F1EFFF"/>
<path d="M111.189 323.038L114.349 324.837V323.342L111.189 321.544V323.038Z" fill="#F1EFFF"/>
<path d="M63.1599 300.571L59.757 290.171L58.8576 289.648L58.7969 300.377L59.6233 300.851L59.6841 292.431L63.087 302.844L63.9863 303.354L64.0471 292.637L63.2206 292.151L63.1599 300.571Z" fill="url(#paint56_linear_2158_10773)"/>
<path d="M66.3681 299.794L70.014 301.896V300.633L66.3802 298.543L66.3924 295.262L70.2936 297.498V296.234L65.5295 293.488L65.4688 304.205L70.3786 307.036L70.3908 305.772L66.3438 303.451L66.3681 299.794Z" fill="url(#paint57_linear_2158_10773)"/>
<path d="M77.5731 307.327C77.4273 308.128 77.3179 308.845 77.2329 309.465C77.1356 308.213 76.9776 306.853 76.7467 305.37L75.8352 299.405L74.7779 298.797L73.4775 305.31C73.4532 305.468 73.3438 306.075 73.1737 307.12C73.1008 306.354 73.0157 305.565 72.9063 304.763L71.9462 297.157L71.0469 296.646L72.724 308.371L73.6112 308.882L75.0574 301.519C75.1182 301.203 75.1911 300.826 75.2519 300.377C75.2762 300.547 75.337 301.008 75.4463 301.75L76.7832 310.716L77.6218 311.202L79.4934 301.519L78.6183 301.021L77.5367 307.314L77.5731 307.327Z" fill="url(#paint58_linear_2158_10773)"/>
<path d="M84.1241 309.283C83.8567 308.93 83.3827 308.432 82.6657 307.764C81.9608 307.096 81.5233 306.585 81.3531 306.245C81.183 305.893 81.0979 305.528 81.0979 305.152C81.0979 304.702 81.2194 304.398 81.4625 304.216C81.7056 304.046 82.0945 304.107 82.6171 304.41C83.1275 304.702 83.5042 305.091 83.7595 305.589C84.0147 306.087 84.1605 306.683 84.2091 307.387L85.0477 307.764C85.0477 307.12 84.9383 306.5 84.7317 305.893C84.5373 305.285 84.2456 304.739 83.881 304.265C83.5042 303.791 83.0789 303.414 82.5928 303.135C82.1552 302.88 81.742 302.77 81.3774 302.807C81.0128 302.843 80.7333 303.037 80.5389 303.402C80.3444 303.767 80.2472 304.216 80.2472 304.763C80.2472 305.261 80.3201 305.747 80.4659 306.233C80.6118 306.719 80.8548 307.181 81.1587 307.63C81.4017 307.983 81.8271 308.444 82.4226 309.028C83.0303 309.611 83.4192 310.012 83.5893 310.23C83.8688 310.558 84.0633 310.887 84.1848 311.202C84.3064 311.518 84.355 311.859 84.355 312.187C84.355 312.515 84.2942 312.794 84.1605 313.001C84.039 313.207 83.8445 313.317 83.5893 313.341C83.3341 313.353 83.0424 313.268 82.7021 313.074C82.3254 312.855 81.9973 312.551 81.6934 312.174C81.3896 311.786 81.1708 311.385 81.0371 310.959C80.8913 310.534 80.8062 310.036 80.7698 309.489L79.9434 309.137C79.9434 309.866 80.0649 310.571 80.2958 311.275C80.5146 311.98 80.8305 312.588 81.2316 313.098C81.6327 313.608 82.1309 314.046 82.7264 314.386C83.2004 314.653 83.6258 314.762 84.0025 314.702C84.3793 314.641 84.671 314.41 84.8776 314.021C85.0842 313.632 85.1814 313.159 85.1935 312.588C85.1935 312.016 85.1085 311.445 84.9262 310.911C84.7439 310.364 84.4644 309.842 84.0876 309.331L84.1241 309.283Z" fill="url(#paint59_linear_2158_10773)"/>
<path d="M3.31836 349.465C3.31836 349.465 6.59972 364.883 6.59972 369.136C6.59972 372.331 4.9955 376.025 4.83751 383.206C4.67952 390.386 4.59445 394.287 3.31836 395.769C3.31836 395.769 5.10488 397.604 6.6848 399.39C7.81504 400.653 8.84806 403.873 10.7197 402.342C11.2666 401.893 12.6277 400.605 11.9714 400.301C10.5252 399.645 9.51649 396.644 9.28558 394.603C8.76299 390.143 15.6417 372.1 15.5688 367.094C15.5566 365.904 17.4404 354.616 17.0029 353.766C15.0948 350.036 5.20211 348.687 3.31836 349.452V349.465Z" fill="#CAA5FF"/>
<path d="M17.477 401.126C14.8641 400.373 11.9716 400.3 11.9716 400.3C11.9716 400.3 11.2059 403.617 8.44717 401.357C5.85854 399.231 5.39672 395.44 3.87757 394.76C3.85326 394.76 1.37401 395.853 2.39488 399.826C3.14838 402.779 3.20914 405.598 3.17268 405.464C3.17268 405.464 3.59805 406.096 4.33939 405.707L4.388 401.041C4.388 401.041 6.97664 402.755 8.62947 404.917C9.22498 405.695 10.1243 405.877 11.1087 405.78C15.2287 405.391 17.7444 402.074 17.8659 401.855C18.036 401.552 17.8051 401.224 17.4892 401.126H17.477Z" fill="#C766FF"/>
<path d="M14.0006 359.865C14.0006 359.865 16.6378 370.97 16.6378 375.223C16.6378 378.418 15.0336 382.112 14.8756 389.293C14.7176 396.473 14.6325 400.374 13.3564 401.856C13.3564 401.856 15.143 403.691 16.7229 405.477C17.8531 406.74 18.8862 409.96 20.7577 408.429C21.3046 407.98 22.6658 406.692 22.0095 406.388C20.5633 405.732 19.5546 402.731 19.3237 400.689C19.0198 398.114 24.27 381.516 24.1728 375.125C24.1606 373.935 27.4785 360.715 27.0409 359.865C25.1329 356.135 15.8843 359.099 14.0006 359.865Z" fill="#CAA5FF"/>
<path d="M27.5278 407.214C24.9148 406.461 22.0224 406.388 22.0224 406.388C22.0224 406.388 21.2567 409.705 18.498 407.445C15.9093 405.319 15.4475 401.528 13.9284 400.848C13.904 400.848 11.4248 401.941 12.4457 405.914C13.1992 408.867 13.2599 411.686 13.2235 411.552C13.2235 411.552 13.6488 412.196 14.3902 411.795L14.4388 407.129C14.4388 407.129 17.0274 408.855 18.6803 411.005C19.2758 411.783 20.1751 411.965 21.1595 411.868C25.2794 411.479 27.7952 408.162 27.9167 407.943C28.0868 407.64 27.8559 407.312 27.5399 407.214H27.5278Z" fill="#C766FF"/>
<path d="M42.9011 309.963C42.9011 309.963 42.3177 308.603 41.1996 307.424C40.3367 306.501 39.1457 305.674 37.6509 305.699C29.2044 305.796 23.7962 319.902 20.211 323.997C20.211 323.997 17.0634 335.904 30.0916 338.225L38.1249 330.145C38.1249 330.145 40.7499 331.445 42.8524 329.039C44.9914 326.609 45.0279 322.6 43.7032 318.128C42.4149 313.742 42.8889 309.976 42.8889 309.976L42.9011 309.963Z" fill="url(#paint60_linear_2158_10773)"/>
<path d="M40.6044 336.342C40.4464 336.342 40.3005 336.293 40.1912 336.184C40.0939 336.087 40.0332 335.965 40.021 335.832C40.021 335.807 40.021 335.783 40.021 335.771C40.021 335.698 40.179 328.311 39.705 322.904C39.304 318.347 38.6599 317.691 38.5262 317.594C38.0157 317.242 36.6181 316.683 35.6094 317.181C34.8073 317.57 34.3576 318.554 34.2604 320.121C34.1267 322.284 33.835 326.78 34.2239 331.093C34.8073 337.666 36.6546 340.862 39.705 340.594C42.6583 340.339 53.5597 339.221 56.0511 338.845L55.2125 335.479L40.6165 336.33L40.6044 336.342Z" fill="#CAA5FF"/>
<path d="M41.4306 334.896C41.4549 332.745 41.4792 327.156 41.0903 322.782C40.6649 317.971 39.9479 316.877 39.3038 316.44C38.4044 315.82 36.4964 315.176 34.9772 315.929C33.689 316.561 32.9719 317.934 32.8383 320.036C32.6924 322.235 32.4007 326.792 32.8018 331.226C33.4702 338.723 35.8279 342.356 39.802 342.004C42.5608 341.761 51.384 340.594 54.7991 340.108C54.1793 338.213 53.7904 336.245 53.5716 334.337L41.4184 334.908L41.4306 334.896Z" fill="url(#paint61_linear_2158_10773)"/>
<path d="M58.7973 298.494C55.6982 295.773 50.9828 296.088 48.2605 299.187C48.2361 299.223 48.2118 299.247 48.1875 299.284L45.4409 302.407C43.387 304.752 46.6319 313.731 47.3733 314.326C47.7622 314.642 48.2361 314.824 48.7223 314.848C52.0036 314.994 56.5489 313.427 58.1653 310.875C59.1133 309.369 60.1827 308.664 60.8998 307.522C62.8929 304.338 61.6776 301.021 58.7973 298.494Z" fill="#CAA5FF"/>
<path d="M20.1869 323.791C18.0844 325.03 10.44 326.33 6.76977 333.997C4.37559 339.003 -0.0117188 352.684 -0.0117188 352.684C2.9172 356.609 14.7666 365.43 29.2046 364.324C29.2046 364.324 28.6334 346.475 29.4598 340.595C29.6785 339.064 30.0796 338.213 30.0796 338.213C17.9386 335.65 20.1747 323.791 20.1747 323.791H20.1869Z" fill="#F1EFFF"/>
<path d="M63.2089 301.374C63.2089 301.374 63.5613 300.973 62.5283 298.13C61.7019 295.845 58.1896 291.18 53.6808 291.289C49.1719 291.398 44.6874 293.938 41.9651 298.859C39.2306 303.779 35.0621 306.38 32.911 306.647C29.3501 307.096 26.4819 310.486 25.534 312.139C20.1015 321.592 29.2407 330.826 29.2407 330.826C29.2407 330.826 30.6262 323.596 40.3244 319.344C47.0816 316.391 45.9513 312.345 46.8993 309.466C47.8472 306.574 50.7154 308.615 56.5368 306.926C59.1376 306.173 61.8963 303.549 61.8963 303.549C61.8963 303.549 62.4554 306.015 58.9431 309.769C58.9431 309.769 66.3323 309.66 65.8218 304.387C65.6152 302.273 63.2089 301.374 63.2089 301.374Z" fill="url(#paint62_linear_2158_10773)"/>
<path d="M63.4527 335.589C63.4527 335.589 61.1679 335.82 60.1105 335.71C59.4786 335.662 58.5792 335.018 58.6035 334.933C58.6886 334.592 59.199 334.58 59.199 334.58C59.199 334.58 60.8276 335.018 60.9977 335.091C61.496 335.285 62.1766 334.981 62.2859 334.532L59.7338 333.402C59.7338 333.402 58.9195 333.098 58.1174 333.329C57.3274 333.572 56.8899 334.738 56.1364 335.212C55.942 335.334 55.1885 335.528 55.1885 335.528L56.0635 338.857C56.4038 338.966 60.2321 340.169 61.6783 339.44C63.1124 338.711 62.9544 338.262 63.9995 336.852C65.0569 335.443 63.477 335.613 63.477 335.613L63.4527 335.589Z" fill="#CAA5FF"/>
<path d="M82.2773 231.813L77.7441 237.67V245.179C77.7441 247.281 78.7772 249.249 80.5151 250.44L83.3468 252.42C82.654 251.764 82.5082 251.217 82.4717 250.1L82.2894 231.826L82.2773 231.813Z" fill="url(#paint63_linear_2158_10773)"/>
<path d="M110.667 197.295C110.157 196.991 109.586 196.942 109.586 196.942L108.152 198.789C109.112 198.716 109.816 199.433 109.865 200.745C109.865 200.745 109.768 232.822 109.756 232.907C109.744 233.794 109.44 234.754 108.966 235.604C108.504 236.418 107.884 237.135 107.191 237.573L87.2602 249.018C85.7653 249.954 84.4892 249.261 84.4163 247.475L84.2462 229.298C83.8694 229.784 82.5569 231.473 82.2773 231.826L82.4596 250.44C82.5083 251.557 82.9579 252.311 83.6385 252.59C84.2219 252.833 84.9632 252.736 85.7653 252.238L108.869 238.812C109.61 238.35 110.278 237.621 110.789 236.771C111.481 235.629 111.907 234.28 111.858 233.089V199.445C111.858 198.218 111.409 197.744 110.679 197.295H110.667Z" fill="url(#paint64_linear_2158_10773)"/>
<path d="M108.152 198.789C106.778 200.551 104.019 204.087 104.019 204.087C104.019 204.087 103.643 229.687 103.643 229.809C103.643 232.858 101.674 234.535 100.653 235.155L84.3799 244.328L84.4042 247.463C84.4771 249.249 85.7532 249.954 87.248 249.006L107.179 237.561C107.872 237.135 109.756 235.471 109.756 232.895C109.756 232.798 109.865 200.733 109.865 200.733C109.804 199.421 109.112 198.692 108.152 198.777V198.789Z" fill="url(#paint65_linear_2158_10773)"/>
<path d="M119.831 162.023C116.927 163.541 116.963 169.361 119.916 174.999C122.869 180.637 127.634 183.978 130.538 182.459C133.443 180.94 133.406 175.121 130.453 169.483C127.5 163.845 122.736 160.504 119.831 162.023Z" fill="url(#paint66_linear_2158_10773)"/>
<path d="M120.828 165.716C120.475 165.716 120.171 165.789 119.904 165.922C118.871 166.469 116.999 169.507 117.194 171.657C117.315 173.091 119.077 173.395 119.928 174.986C121.775 178.522 120.767 178.838 122.298 179.859C123.854 180.904 127.111 180.308 127.378 180.162C128.435 179.616 128.703 178.024 128.776 177.38C128.982 175.485 128.46 173.188 127.366 171.098C125.519 167.563 122.675 165.716 120.84 165.716H120.828Z" fill="#C766FF"/>
<path d="M25.1934 185.326C25.2661 185.314 25.351 185.302 25.4238 185.29C25.3753 185.29 25.3267 185.29 25.2904 185.314C25.254 185.314 25.2297 185.314 25.1934 185.339V185.326Z" fill="#7A69FF"/>
<path d="M67.5108 250.78C67.5108 250.78 67.5593 250.719 67.5836 250.683C67.5472 250.743 67.4987 250.792 67.4502 250.852C67.4623 250.828 67.4866 250.804 67.5108 250.78Z" fill="#7A69FF"/>
<path d="M115.48 178.353C113.742 175.194 111.032 172.897 108.043 171.743L33.665 182.994L71.9355 245.094C72.0205 244.985 117.194 187.721 117.194 187.721C117.619 185.035 117.255 182.107 115.967 179.313C115.821 178.985 115.651 178.669 115.48 178.353Z" fill="url(#paint67_linear_2158_10773)"/>
<path d="M57.4848 179.142L33.6523 182.994L71.9228 245.093C72.0078 244.984 77.7198 237.657 85.0482 228.229C85.6802 219.675 83.4805 210.101 78.7772 201.134C73.4176 190.916 65.6031 183.018 57.4848 179.13V179.142Z" fill="#F1EFFF"/>
<path d="M121.459 173.189C120.645 172.144 119.624 171.281 118.543 170.771C118.433 170.722 118.336 170.674 118.227 170.625C118.19 170.625 118.166 170.601 118.129 170.588C118.057 170.564 117.984 170.54 117.911 170.516C117.874 170.516 117.838 170.491 117.801 170.479C117.741 170.455 117.68 170.431 117.607 170.431C117.558 170.418 117.522 170.406 117.485 170.394C117.437 170.382 117.376 170.37 117.315 170.358C117.315 170.358 117.315 170.358 117.303 170.358C117.267 170.358 117.218 170.345 117.182 170.333C117.121 170.333 117.072 170.321 117.011 170.309C116.975 170.309 116.926 170.309 116.89 170.297C116.841 170.297 116.78 170.297 116.72 170.297C116.683 170.297 116.647 170.297 116.61 170.297C116.562 170.297 116.501 170.297 116.44 170.297C116.404 170.297 116.367 170.297 116.331 170.297C116.27 170.297 116.221 170.297 116.161 170.321C116.136 170.321 116.112 170.321 116.088 170.321C115.796 170.37 115.517 170.418 115.225 170.467C112.819 170.88 110.412 171.305 108.006 171.718C111.008 172.873 113.718 175.181 115.444 178.34C115.614 178.656 115.772 178.972 115.93 179.3C117.218 182.083 117.595 185.023 117.157 187.696C118.822 185.545 120.499 183.395 122.164 181.244C122.334 181.013 122.517 180.795 122.687 180.576C122.748 180.515 122.796 180.43 122.845 180.357C122.845 180.345 122.869 180.321 122.869 180.296C122.906 180.236 122.942 180.175 122.966 180.114C122.979 180.09 122.991 180.053 123.015 180.029C123.039 179.968 123.064 179.92 123.088 179.859C123.1 179.823 123.112 179.786 123.124 179.75C123.149 179.701 123.161 179.64 123.185 179.58C123.185 179.543 123.21 179.507 123.21 179.47C123.234 179.41 123.246 179.349 123.258 179.288C123.258 179.252 123.27 179.215 123.282 179.167C123.295 179.106 123.307 179.033 123.319 178.972C123.319 178.936 123.331 178.899 123.331 178.851C123.331 178.778 123.343 178.705 123.355 178.632C123.355 178.595 123.355 178.559 123.355 178.523C123.355 178.401 123.355 178.292 123.355 178.17C123.331 176.688 122.736 175.084 121.8 173.711C121.678 173.529 121.532 173.347 121.399 173.164L121.459 173.189Z" fill="#10FFF8"/>
<path d="M22.192 184.586C8.3981 191.803 6.00392 214.426 16.8324 235.094C27.6609 255.774 47.6286 266.672 61.4225 259.455C75.2164 252.238 77.6106 229.614 66.7821 208.947C55.9536 188.267 35.9859 177.368 22.192 184.598V184.586Z" fill="#C766FF"/>
<path d="M31.526 185.946C28.7429 185.946 26.1664 186.554 23.8573 187.769C18.2911 190.685 14.7302 196.869 13.8552 205.18C12.9194 214.025 15.107 224.074 20.0169 233.454C27.7463 248.204 40.6287 258.143 52.0892 258.143C54.8723 258.143 57.4487 257.511 59.7578 256.296C65.324 253.38 68.8849 247.183 69.7599 238.873C70.6957 230.027 68.5081 219.991 63.5983 210.611C55.8688 195.861 42.9864 185.946 31.526 185.946Z" fill="url(#paint68_linear_2158_10773)"/>
<path d="M44.3355 189.677C43.3389 189.895 42.4031 190.236 41.516 190.697C37.5176 192.787 34.9654 197.234 34.3334 203.188C33.665 209.53 35.2328 216.687 38.7572 223.418C44.3112 234.001 53.5598 241.06 61.7753 241.06C63.7806 241.06 65.6158 240.683 67.2807 239.808C68.2165 239.31 69.0794 238.691 69.8451 237.949C70.55 229.335 68.3381 219.663 63.5983 210.612C58.7006 201.256 51.7125 193.844 44.3355 189.677Z" fill="#AA9FFF"/>
<path d="M63.5983 210.612C62.4438 208.424 61.1798 206.335 59.8308 204.378C55.3949 197.963 49.9867 192.872 44.3355 189.677C43.3389 189.895 42.4031 190.236 41.516 190.697C37.5176 192.787 34.9654 197.234 34.3334 203.188C33.665 209.53 35.2328 216.687 38.7572 223.418C44.3112 234.001 53.5598 241.06 61.7753 241.06C63.7806 241.06 65.6158 240.683 67.2807 239.808C68.2165 239.31 69.0794 238.691 69.8451 237.949C70.2947 232.373 69.5412 226.358 67.6575 220.356C66.6366 217.075 65.2755 213.795 63.5983 210.599V210.612Z" fill="#10FFF8"/>
<path d="M59.8303 204.378C54.8596 204.73 50.9463 208.886 50.9463 213.94C50.9463 218.995 55.2364 223.527 60.5352 223.527C63.3669 223.527 65.8947 222.299 67.6569 220.368C66.6361 217.087 65.2749 213.806 63.5978 210.611C62.4432 208.424 61.1793 206.334 59.8303 204.378Z" fill="url(#paint69_radial_2158_10773)"/>
<path d="M91.0639 181.499C88.8764 181.475 87.0169 180.296 86.9197 178.887C86.9197 178.863 86.8711 182.398 86.8711 182.483C86.9805 183.893 88.8278 185.071 91.0153 185.096C93.0935 185.12 94.6734 184.099 94.6856 182.787L94.7221 179.239C94.6734 180.527 93.1057 181.523 91.0518 181.499H91.0639Z" fill="url(#paint70_linear_2158_10773)"/>
<path d="M90.5904 176.433C88.4636 176.409 86.8229 177.49 86.9201 178.875C87.0295 180.285 88.8768 181.463 91.0644 181.488C93.2519 181.512 94.8926 180.382 94.7225 178.972C94.5645 177.587 92.705 176.457 90.5782 176.421L90.5904 176.433Z" fill="#C766FF"/>
<path d="M92.1697 176.408C91.3433 175.91 90.0915 175.886 89.3501 176.372C89.0099 176.59 88.8397 176.882 88.8397 177.174V178.352C88.8154 178.705 89.0342 179.081 89.4838 179.361C90.3103 179.871 91.5863 179.895 92.3277 179.397C92.6558 179.178 92.826 178.887 92.826 178.595V177.404C92.8503 177.052 92.6194 176.675 92.1697 176.408Z" fill="#B940FF"/>
<path d="M92.1701 176.409C91.9635 176.287 91.7326 176.19 91.4895 176.129C90.7482 175.935 89.9096 176.008 89.3505 176.372C88.6092 176.858 88.67 177.672 89.4964 178.183C90.3228 178.693 91.5989 178.717 92.3402 178.219C93.0816 177.721 92.9965 176.919 92.1701 176.409Z" fill="url(#paint71_radial_2158_10773)"/>
<defs>
<linearGradient id="paint0_linear_2158_10773" x1="224.276" y1="164.841" x2="224.276" y2="12.8789" gradientUnits="userSpaceOnUse">
<stop stop-color="#B7ADFF"/>
<stop offset="0.62" stop-color="#CFC8FF"/>
<stop offset="0.99" stop-color="#D9D4FF"/>
</linearGradient>
<linearGradient id="paint1_linear_2158_10773" x1="242.396" y1="307.631" x2="242.396" y2="160.747" gradientUnits="userSpaceOnUse">
<stop stop-color="#D9D4FF"/>
<stop offset="0.38" stop-color="#CFC8FF"/>
<stop offset="1" stop-color="#B7ADFF"/>
</linearGradient>
<linearGradient id="paint2_linear_2158_10773" x1="382" y1="387.943" x2="382" y2="241.06" gradientUnits="userSpaceOnUse">
<stop stop-color="#D9D4FF"/>
<stop offset="0.38" stop-color="#CFC8FF"/>
<stop offset="1" stop-color="#B7ADFF"/>
</linearGradient>
<linearGradient id="paint3_linear_2158_10773" x1="376.579" y1="387.943" x2="376.579" y2="242.518" gradientUnits="userSpaceOnUse">
<stop stop-color="#F1EFFF"/>
<stop offset="0.47" stop-color="#F9F9FF"/>
<stop offset="1" stop-color="white"/>
</linearGradient>
<linearGradient id="paint4_linear_2158_10773" x1="220.192" y1="215.885" x2="411.071" y2="215.885" gradientUnits="userSpaceOnUse">
<stop stop-color="#C0B7FF"/>
<stop offset="1" stop-color="#7562FF"/>
</linearGradient>
<linearGradient id="paint5_linear_2158_10773" x1="393.376" y1="274.801" x2="237.946" y2="5.50744" gradientUnits="userSpaceOnUse">
<stop stop-color="#F1EFFF"/>
<stop offset="0.47" stop-color="#F9F9FF"/>
<stop offset="1" stop-color="white"/>
</linearGradient>
<linearGradient id="paint6_linear_2158_10773" x1="414.935" y1="283.281" x2="414.935" y2="114.199" gradientUnits="userSpaceOnUse">
<stop stop-color="#7562FF"/>
<stop offset="1" stop-color="#C0B7FF"/>
</linearGradient>
<linearGradient id="paint7_linear_2158_10773" x1="213.18" y1="58.8434" x2="419.031" y2="58.8434" gradientUnits="userSpaceOnUse">
<stop stop-color="#C0B7FF"/>
<stop offset="1" stop-color="#7562FF"/>
</linearGradient>
<linearGradient id="paint8_linear_2158_10773" x1="212.682" y1="143.384" x2="411.338" y2="143.384" gradientUnits="userSpaceOnUse">
<stop stop-color="#D9D4FF"/>
<stop offset="0.38" stop-color="#CFC8FF"/>
<stop offset="1" stop-color="#B7ADFF"/>
</linearGradient>
<linearGradient id="paint9_linear_2158_10773" x1="128.885" y1="175.255" x2="207.127" y2="175.255" gradientUnits="userSpaceOnUse">
<stop stop-color="#F1EFFF"/>
<stop offset="0.47" stop-color="#F9F9FF"/>
<stop offset="1" stop-color="white"/>
</linearGradient>
<linearGradient id="paint10_linear_2158_10773" x1="154.54" y1="100.506" x2="228.857" y2="100.506" gradientUnits="userSpaceOnUse">
<stop stop-color="#F5F4FF"/>
<stop offset="0.24" stop-color="#F1F0FF"/>
<stop offset="0.48" stop-color="#E7E3FF"/>
<stop offset="0.71" stop-color="#D5CFFF"/>
<stop offset="0.95" stop-color="#BDB4FF"/>
<stop offset="1" stop-color="#B7ADFF"/>
</linearGradient>
<linearGradient id="paint11_linear_2158_10773" x1="223.473" y1="127.249" x2="229.963" y2="128.865" gradientUnits="userSpaceOnUse">
<stop stop-color="#7562FF"/>
<stop offset="1" stop-color="#C0B7FF"/>
</linearGradient>
<linearGradient id="paint12_linear_2158_10773" x1="158.283" y1="99.6436" x2="300.962" y2="99.6436" gradientUnits="userSpaceOnUse">
<stop stop-color="#F5F4FF"/>
<stop offset="0.24" stop-color="#F1F0FF"/>
<stop offset="0.48" stop-color="#E7E3FF"/>
<stop offset="0.71" stop-color="#D5CFFF"/>
<stop offset="0.95" stop-color="#BDB4FF"/>
<stop offset="1" stop-color="#B7ADFF"/>
</linearGradient>
<linearGradient id="paint13_linear_2158_10773" x1="190.331" y1="134.186" x2="213.709" y2="153.122" gradientUnits="userSpaceOnUse">
<stop stop-color="#9F5CFF"/>
<stop offset="0.54" stop-color="#C766FF"/>
<stop offset="1" stop-color="#B940FF"/>
</linearGradient>
<linearGradient id="paint14_linear_2158_10773" x1="233.488" y1="353.632" x2="385.912" y2="372.692" gradientUnits="userSpaceOnUse">
<stop stop-color="#9F5CFF"/>
<stop offset="0.06" stop-color="#A45DFF"/>
<stop offset="0.49" stop-color="#C766FF"/>
<stop offset="1" stop-color="#B940FF"/>
</linearGradient>
<linearGradient id="paint15_linear_2158_10773" x1="164.129" y1="300.876" x2="164.129" y2="240.453" gradientUnits="userSpaceOnUse">
<stop stop-color="#F5F4FF"/>
<stop offset="0.43" stop-color="#D3CEFF"/>
<stop offset="0.78" stop-color="#BEB5FF"/>
<stop offset="1" stop-color="#B7ADFF"/>
</linearGradient>
<linearGradient id="paint16_linear_2158_10773" x1="178.081" y1="310.717" x2="178.081" y2="245.495" gradientUnits="userSpaceOnUse">
<stop stop-color="#F5F4FF"/>
<stop offset="0.43" stop-color="#D3CEFF"/>
<stop offset="0.78" stop-color="#BEB5FF"/>
<stop offset="1" stop-color="#B7ADFF"/>
</linearGradient>
<linearGradient id="paint17_linear_2158_10773" x1="153.994" y1="214.986" x2="193.295" y2="227.762" gradientUnits="userSpaceOnUse">
<stop stop-color="white"/>
<stop offset="0.53" stop-color="#F9F9FF"/>
<stop offset="1" stop-color="#F1EFFF"/>
</linearGradient>
<radialGradient id="paint18_radial_2158_10773" cx="0" cy="0" r="1" gradientUnits="userSpaceOnUse" gradientTransform="translate(164.737 172.412) scale(14.912 14.9083)">
<stop stop-color="#9F5CFF"/>
<stop offset="0.23" stop-color="#B661FF"/>
<stop offset="0.42" stop-color="#C766FF"/>
<stop offset="1" stop-color="#B940FF"/>
</radialGradient>
<linearGradient id="paint19_linear_2158_10773" x1="246.431" y1="323.863" x2="264.394" y2="323.863" gradientUnits="userSpaceOnUse">
<stop stop-color="#9F5CFF"/>
<stop offset="0.06" stop-color="#A45DFF"/>
<stop offset="0.45" stop-color="#C766FF"/>
<stop offset="1" stop-color="#B940FF"/>
</linearGradient>
<linearGradient id="paint20_linear_2158_10773" x1="255.716" y1="322.635" x2="259.289" y2="322.635" gradientUnits="userSpaceOnUse">
<stop stop-color="#F5F4FF"/>
<stop offset="0.43" stop-color="#D3CEFF"/>
<stop offset="0.78" stop-color="#BEB5FF"/>
<stop offset="1" stop-color="#B7ADFF"/>
</linearGradient>
<linearGradient id="paint21_linear_2158_10773" x1="189.421" y1="405.014" x2="208.683" y2="405.014" gradientUnits="userSpaceOnUse">
<stop stop-color="white"/>
<stop offset="0.45" stop-color="#F6F5FF"/>
<stop offset="1" stop-color="#F1EFFF"/>
</linearGradient>
<linearGradient id="paint22_linear_2158_10773" x1="195.982" y1="411.818" x2="212.474" y2="411.818" gradientUnits="userSpaceOnUse">
<stop stop-color="white"/>
<stop offset="0.45" stop-color="#F6F5FF"/>
<stop offset="1" stop-color="#F1EFFF"/>
</linearGradient>
<linearGradient id="paint23_linear_2158_10773" x1="216.182" y1="405.014" x2="235.444" y2="405.014" gradientUnits="userSpaceOnUse">
<stop stop-color="white"/>
<stop offset="0.45" stop-color="#F6F5FF"/>
<stop offset="1" stop-color="#F1EFFF"/>
</linearGradient>
<linearGradient id="paint24_linear_2158_10773" x1="212.378" y1="411.818" x2="228.882" y2="411.818" gradientUnits="userSpaceOnUse">
<stop stop-color="white"/>
<stop offset="0.45" stop-color="#F6F5FF"/>
<stop offset="1" stop-color="#F1EFFF"/>
</linearGradient>
<linearGradient id="paint25_linear_2158_10773" x1="206.884" y1="401.77" x2="218.988" y2="401.77" gradientUnits="userSpaceOnUse">
<stop stop-color="#D9D4FF"/>
<stop offset="0.38" stop-color="#CFC8FF"/>
<stop offset="0.99" stop-color="#B7ADFF"/>
</linearGradient>
<linearGradient id="paint26_linear_2158_10773" x1="219.621" y1="392.122" x2="238.24" y2="392.122" gradientUnits="userSpaceOnUse">
<stop stop-color="#B7ADFF"/>
<stop offset="0.29" stop-color="#C5BDFF"/>
<stop offset="0.69" stop-color="#D3CEFF"/>
<stop offset="0.99" stop-color="#D9D4FF"/>
</linearGradient>
<linearGradient id="paint27_linear_2158_10773" x1="230.705" y1="402.194" x2="249.335" y2="402.194" gradientUnits="userSpaceOnUse">
<stop stop-color="#B7ADFF"/>
<stop offset="0.29" stop-color="#C5BDFF"/>
<stop offset="0.69" stop-color="#D3CEFF"/>
<stop offset="0.99" stop-color="#D9D4FF"/>
</linearGradient>
<linearGradient id="paint28_linear_2158_10773" x1="212.973" y1="402.207" x2="212.973" y2="385.89" gradientUnits="userSpaceOnUse">
<stop stop-color="white"/>
<stop offset="0.45" stop-color="#F6F5FF"/>
<stop offset="1" stop-color="#F1EFFF"/>
</linearGradient>
<linearGradient id="paint29_linear_2158_10773" x1="202.642" y1="363.387" x2="234.8" y2="363.387" gradientUnits="userSpaceOnUse">
<stop stop-color="#9F5CFF"/>
<stop offset="0.06" stop-color="#A45DFF"/>
<stop offset="0.45" stop-color="#C766FF"/>
<stop offset="1" stop-color="#B940FF"/>
</linearGradient>
<linearGradient id="paint30_linear_2158_10773" x1="201.221" y1="345.867" x2="223.948" y2="345.867" gradientUnits="userSpaceOnUse">
<stop stop-color="#C0B7FF"/>
<stop offset="1" stop-color="#7562FF"/>
</linearGradient>
<linearGradient id="paint31_linear_2158_10773" x1="211.661" y1="338.042" x2="237.23" y2="345.372" gradientUnits="userSpaceOnUse">
<stop stop-color="#7562FF"/>
<stop offset="0.16" stop-color="#8E7EFF"/>
<stop offset="0.35" stop-color="#A497FF"/>
<stop offset="0.55" stop-color="#B3A9FF"/>
<stop offset="0.76" stop-color="#BCB3FF"/>
<stop offset="1" stop-color="#C0B7FF"/>
</linearGradient>
<linearGradient id="paint32_linear_2158_10773" x1="230.839" y1="337.228" x2="250.88" y2="337.228" gradientUnits="userSpaceOnUse">
<stop stop-color="#C0B7FF"/>
<stop offset="1" stop-color="#7562FF"/>
</linearGradient>
<linearGradient id="paint33_linear_2158_10773" x1="190.259" y1="378.539" x2="224.579" y2="378.539" gradientUnits="userSpaceOnUse">
<stop stop-color="#D9D4FF"/>
<stop offset="0.38" stop-color="#CFC8FF"/>
<stop offset="0.99" stop-color="#B7ADFF"/>
</linearGradient>
<linearGradient id="paint34_linear_2158_10773" x1="188.071" y1="356.17" x2="217.287" y2="356.17" gradientUnits="userSpaceOnUse">
<stop stop-color="#D9D4FF"/>
<stop offset="0.38" stop-color="#CFC8FF"/>
<stop offset="0.99" stop-color="#B7ADFF"/>
</linearGradient>
<linearGradient id="paint35_linear_2158_10773" x1="188.593" y1="357.057" x2="243.587" y2="357.057" gradientUnits="userSpaceOnUse">
<stop stop-color="white"/>
<stop offset="0.45" stop-color="#F6F5FF"/>
<stop offset="1" stop-color="#F1EFFF"/>
</linearGradient>
<linearGradient id="paint36_linear_2158_10773" x1="351.945" y1="335.358" x2="330.539" y2="370.975" gradientUnits="userSpaceOnUse">
<stop stop-color="#F1EFFF"/>
<stop offset="0.47" stop-color="#F9F9FF"/>
<stop offset="1" stop-color="white"/>
</linearGradient>
<linearGradient id="paint37_linear_2158_10773" x1="255.995" y1="241.583" x2="467.505" y2="282.706" gradientUnits="userSpaceOnUse">
<stop stop-color="#7562FF"/>
<stop offset="1" stop-color="#C0B7FF"/>
</linearGradient>
<linearGradient id="paint38_linear_2158_10773" x1="425.022" y1="377.859" x2="291.472" y2="146.503" gradientUnits="userSpaceOnUse">
<stop stop-color="#7562FF"/>
<stop offset="1" stop-color="#C0B7FF"/>
</linearGradient>
<linearGradient id="paint39_linear_2158_10773" x1="418.155" y1="374.251" x2="298.333" y2="166.651" gradientUnits="userSpaceOnUse">
<stop stop-color="#D9D4FF"/>
<stop offset="0.38" stop-color="#CFC8FF"/>
<stop offset="1" stop-color="#B7ADFF"/>
</linearGradient>
<linearGradient id="paint40_linear_2158_10773" x1="398.103" y1="277.232" x2="318.371" y2="139.115" gradientUnits="userSpaceOnUse">
<stop stop-color="#7562FF"/>
<stop offset="1" stop-color="#C0B7FF"/>
</linearGradient>
<linearGradient id="paint41_linear_2158_10773" x1="392.233" y1="371.845" x2="324.236" y2="254.059" gradientUnits="userSpaceOnUse">
<stop stop-color="#7562FF"/>
<stop offset="1" stop-color="#C0B7FF"/>
</linearGradient>
<linearGradient id="paint42_linear_2158_10773" x1="343.049" y1="321.725" x2="298.132" y2="263.697" gradientUnits="userSpaceOnUse">
<stop stop-color="#B940FF"/>
<stop offset="0.51" stop-color="#C766FF"/>
<stop offset="0.94" stop-color="#A45DFF"/>
<stop offset="1" stop-color="#9F5CFF"/>
</linearGradient>
<linearGradient id="paint43_linear_2158_10773" x1="338.516" y1="252.955" x2="377.925" y2="270.507" gradientUnits="userSpaceOnUse">
<stop stop-color="#9F5CFF"/>
<stop offset="0.06" stop-color="#A45DFF"/>
<stop offset="0.49" stop-color="#C766FF"/>
<stop offset="1" stop-color="#B940FF"/>
</linearGradient>
<linearGradient id="paint44_linear_2158_10773" x1="352.431" y1="259.625" x2="368.291" y2="259.625" gradientUnits="userSpaceOnUse">
<stop stop-color="white"/>
<stop offset="1" stop-color="#F1EFFF"/>
</linearGradient>
<radialGradient id="paint45_radial_2158_10773" cx="0" cy="0" r="1" gradientUnits="userSpaceOnUse" gradientTransform="translate(345.237 304.989) scale(2.89246 3.87494)">
<stop stop-color="white"/>
<stop offset="0.53" stop-color="#F9F9FF"/>
<stop offset="1" stop-color="#F1EFFF"/>
</radialGradient>
<linearGradient id="paint46_linear_2158_10773" x1="131.388" y1="384.116" x2="131.388" y2="307.011" gradientUnits="userSpaceOnUse">
<stop stop-color="#B7ADFF"/>
<stop offset="0.62" stop-color="#CFC8FF"/>
<stop offset="0.99" stop-color="#D9D4FF"/>
</linearGradient>
<linearGradient id="paint47_linear_2158_10773" x1="131.388" y1="375.769" x2="131.388" y2="298.664" gradientUnits="userSpaceOnUse">
<stop stop-color="#B7ADFF"/>
<stop offset="0.62" stop-color="#CFC8FF"/>
<stop offset="0.99" stop-color="#D9D4FF"/>
</linearGradient>
<linearGradient id="paint48_linear_2158_10773" x1="32.0484" y1="313.232" x2="144.949" y2="422.284" gradientUnits="userSpaceOnUse">
<stop stop-color="#9F5CFF"/>
<stop offset="0.26" stop-color="#B060FF"/>
<stop offset="0.54" stop-color="#C766FF"/>
<stop offset="1" stop-color="#B940FF"/>
</linearGradient>
<linearGradient id="paint49_linear_2158_10773" x1="31.1009" y1="320.012" x2="58.1872" y2="335.036" gradientUnits="userSpaceOnUse">
<stop stop-color="#BAB1FF"/>
<stop offset="0.35" stop-color="#A397FF" stop-opacity="0.98"/>
<stop offset="1" stop-color="#725FFF" stop-opacity="0.93"/>
</linearGradient>
<linearGradient id="paint50_linear_2158_10773" x1="75.8967" y1="375.441" x2="117.431" y2="282.12" gradientUnits="userSpaceOnUse">
<stop stop-color="white"/>
<stop offset="0.5" stop-color="#FBFBFF"/>
<stop offset="1" stop-color="#F1EFFF"/>
</linearGradient>
<linearGradient id="paint51_linear_2158_10773" x1="69.7347" y1="294.801" x2="86.0772" y2="309.433" gradientUnits="userSpaceOnUse">
<stop stop-color="#D9D4FF"/>
<stop offset="0.38" stop-color="#CFC8FF"/>
<stop offset="0.99" stop-color="#B7ADFF"/>
</linearGradient>
<linearGradient id="paint52_linear_2158_10773" x1="70.6338" y1="293.537" x2="86.9763" y2="308.182" gradientUnits="userSpaceOnUse">
<stop stop-color="#D9D4FF"/>
<stop offset="0.38" stop-color="#CFC8FF"/>
<stop offset="0.99" stop-color="#B7ADFF"/>
</linearGradient>
<linearGradient id="paint53_linear_2158_10773" x1="71.849" y1="291.981" x2="88.1549" y2="306.59" gradientUnits="userSpaceOnUse">
<stop stop-color="#D9D4FF"/>
<stop offset="0.38" stop-color="#CFC8FF"/>
<stop offset="0.99" stop-color="#B7ADFF"/>
</linearGradient>
<linearGradient id="paint54_linear_2158_10773" x1="72.6884" y1="290.657" x2="89.043" y2="305.302" gradientUnits="userSpaceOnUse">
<stop stop-color="#D9D4FF"/>
<stop offset="0.38" stop-color="#CFC8FF"/>
<stop offset="0.99" stop-color="#B7ADFF"/>
</linearGradient>
<linearGradient id="paint55_linear_2158_10773" x1="68.7264" y1="378.175" x2="110.273" y2="284.854" gradientUnits="userSpaceOnUse">
<stop stop-color="white"/>
<stop offset="0.5" stop-color="#FBFBFF"/>
<stop offset="1" stop-color="#F1EFFF"/>
</linearGradient>
<linearGradient id="paint56_linear_2158_10773" x1="62.5765" y1="297.534" x2="78.9068" y2="312.179" gradientUnits="userSpaceOnUse">
<stop stop-color="#D9D4FF"/>
<stop offset="0.38" stop-color="#CFC8FF"/>
<stop offset="0.99" stop-color="#B7ADFF"/>
</linearGradient>
<linearGradient id="paint57_linear_2158_10773" x1="63.4756" y1="296.271" x2="79.8181" y2="310.916" gradientUnits="userSpaceOnUse">
<stop stop-color="#D9D4FF"/>
<stop offset="0.38" stop-color="#CFC8FF"/>
<stop offset="0.99" stop-color="#B7ADFF"/>
</linearGradient>
<linearGradient id="paint58_linear_2158_10773" x1="64.6907" y1="294.727" x2="80.9846" y2="309.323" gradientUnits="userSpaceOnUse">
<stop stop-color="#D9D4FF"/>
<stop offset="0.38" stop-color="#CFC8FF"/>
<stop offset="0.99" stop-color="#B7ADFF"/>
</linearGradient>
<linearGradient id="paint59_linear_2158_10773" x1="65.5297" y1="293.39" x2="81.8843" y2="308.035" gradientUnits="userSpaceOnUse">
<stop stop-color="#D9D4FF"/>
<stop offset="0.38" stop-color="#CFC8FF"/>
<stop offset="0.99" stop-color="#B7ADFF"/>
</linearGradient>
<linearGradient id="paint60_linear_2158_10773" x1="19.8829" y1="321.956" x2="44.6025" y2="321.956" gradientUnits="userSpaceOnUse">
<stop stop-color="#BAB1FF"/>
<stop offset="0.35" stop-color="#A397FF" stop-opacity="0.98"/>
<stop offset="1" stop-color="#725FFF" stop-opacity="0.93"/>
</linearGradient>
<linearGradient id="paint61_linear_2158_10773" x1="32.6195" y1="328.796" x2="54.8112" y2="328.796" gradientUnits="userSpaceOnUse">
<stop stop-color="#BAB1FF"/>
<stop offset="0.35" stop-color="#A397FF" stop-opacity="0.98"/>
<stop offset="1" stop-color="#725FFF" stop-opacity="0.93"/>
</linearGradient>
<linearGradient id="paint62_linear_2158_10773" x1="31.0758" y1="303.585" x2="56.691" y2="320.224" gradientUnits="userSpaceOnUse">
<stop stop-color="#B7ADFF"/>
<stop offset="0.29" stop-color="#C5BDFF"/>
<stop offset="0.69" stop-color="#D3CEFF"/>
<stop offset="0.99" stop-color="#D9D4FF"/>
</linearGradient>
<linearGradient id="paint63_linear_2158_10773" x1="80.5394" y1="252.408" x2="80.5394" y2="231.813" gradientUnits="userSpaceOnUse">
<stop stop-color="#C0B7FF"/>
<stop offset="1" stop-color="#7562FF"/>
</linearGradient>
<linearGradient id="paint64_linear_2158_10773" x1="88.2081" y1="208.789" x2="106.054" y2="240.991" gradientUnits="userSpaceOnUse">
<stop stop-color="#B7ADFF"/>
<stop offset="0.52" stop-color="#D8D3FF"/>
<stop offset="1" stop-color="#F5F4FF"/>
</linearGradient>
<linearGradient id="paint65_linear_2158_10773" x1="80.1506" y1="227.719" x2="114.118" y2="220.498" gradientUnits="userSpaceOnUse">
<stop stop-color="#C0B7FF"/>
<stop offset="1" stop-color="#7562FF"/>
</linearGradient>
<linearGradient id="paint66_linear_2158_10773" x1="116.282" y1="167.308" x2="134.085" y2="177.178" gradientUnits="userSpaceOnUse">
<stop stop-color="#C0B7FF"/>
<stop offset="1" stop-color="#7562FF"/>
</linearGradient>
<linearGradient id="paint67_linear_2158_10773" x1="77.8419" y1="204.002" x2="105.112" y2="213.933" gradientUnits="userSpaceOnUse">
<stop stop-color="white"/>
<stop offset="0.53" stop-color="#F9F9FF"/>
<stop offset="1" stop-color="#F1EFFF"/>
</linearGradient>
<linearGradient id="paint68_linear_2158_10773" x1="17.2824" y1="192.811" x2="66.3185" y2="251.266" gradientUnits="userSpaceOnUse">
<stop stop-color="#9F5CFF"/>
<stop offset="0.06" stop-color="#A45DFF"/>
<stop offset="0.44" stop-color="#C766FF"/>
<stop offset="1" stop-color="#B940FF"/>
</linearGradient>
<radialGradient id="paint69_radial_2158_10773" cx="0" cy="0" r="1" gradientUnits="userSpaceOnUse" gradientTransform="translate(53.304 210.975) scale(14.8269 14.8232)">
<stop stop-color="#D9D4FF"/>
<stop offset="0.31" stop-color="#D3CDFF"/>
<stop offset="0.74" stop-color="#C3BBFF"/>
<stop offset="1" stop-color="#B7ADFF"/>
</radialGradient>
<linearGradient id="paint70_linear_2158_10773" x1="86.8711" y1="181.985" x2="94.7342" y2="181.985" gradientUnits="userSpaceOnUse">
<stop stop-color="#9F5CFF"/>
<stop offset="0.13" stop-color="#AE5FFF"/>
<stop offset="0.37" stop-color="#C766FF"/>
<stop offset="1" stop-color="#B940FF"/>
</linearGradient>
<radialGradient id="paint71_radial_2158_10773" cx="0" cy="0" r="1" gradientUnits="userSpaceOnUse" gradientTransform="translate(90.262 177.709) scale(1.56776 1.56737)">
<stop stop-color="#9F5CFF"/>
<stop offset="0.23" stop-color="#B661FF"/>
<stop offset="0.42" stop-color="#C766FF"/>
<stop offset="1" stop-color="#B940FF"/>
</radialGradient>
</defs>
</svg>
