<svg width="475" height="421" viewBox="0 0 475 421" fill="none" xmlns="http://www.w3.org/2000/svg">
<g clip-path="url(#clip0_2155_10595)">
<path d="M94.1733 218.725C94.1733 218.725 88.2329 218.487 77.9608 212.153C67.6913 205.816 56.0216 199.206 50.9898 206.787C45.9606 214.368 67.1817 233.061 94.1707 218.725H94.1733Z" fill="#A5F6FF"/>
<path d="M94.1727 218.724C94.1727 218.724 84.2841 204.497 86.3097 190.982C88.3353 177.466 96.049 178.052 99.7321 182.198C103.415 186.343 90.2914 203.116 94.1727 218.727V218.724Z" fill="#A5F6FF"/>
<path d="M75.0597 189.552C75.0597 189.552 54.3225 176.989 42.8871 182.358C31.4516 187.724 40.8743 195.021 46.704 194.146C52.5337 193.274 68.3318 188.39 75.0597 189.552Z" fill="#A5F6FF"/>
<path d="M73.2223 187.324C73.2223 187.324 72.2519 176.865 67.5753 170.657C62.8987 164.452 57.2595 151.68 65.9615 144.843C73.665 139.817 84.9872 167.57 73.2223 187.324Z" fill="#A5F6FF"/>
<path d="M51.6428 166.512C51.6428 166.512 37.5254 160.291 25.9922 163.551C14.4589 166.812 16.7187 173.086 19.918 175.35C23.1172 177.611 35.2785 166.556 51.6428 166.512Z" fill="#A5F6FF"/>
<path d="M35.3046 156.262C35.3046 156.262 27.3979 147.001 16.5802 143.467C5.76499 139.934 0.622505 144.518 0.074283 147.326C-0.473939 150.132 1.92743 155.387 7.51003 155.669C10.9023 155.842 23.2129 153.612 35.3046 156.262Z" fill="#A5F6FF"/>
<path d="M53.1518 167.682C53.1518 167.682 51.4737 160.942 42.9158 154.476C34.3553 148.01 26.5952 142.812 30.7442 136.165C34.8932 129.519 55.7823 149.946 53.1518 167.682Z" fill="#A5F6FF"/>
<path d="M100.296 237.986C100.296 237.986 99.5521 229.243 94.1729 218.727C88.7936 208.209 58.4046 152.571 5.75977 147.69" stroke="#5E4078" stroke-width="1.98" stroke-miterlimit="10"/>
<path d="M36.2676 142.109C36.2676 142.109 51.2163 152.39 53.1518 167.681" stroke="#5E4078" stroke-width="1.98" stroke-miterlimit="10"/>
<path d="M23.6475 168.97C23.6475 168.97 38.99 163.825 51.6428 166.512" stroke="#5E4078" stroke-width="1.98" stroke-miterlimit="10"/>
<path d="M67.9512 152.311C67.9512 152.311 76.9312 175.665 73.2223 187.324" stroke="#5E4078" stroke-width="1.98" stroke-miterlimit="10"/>
<path d="M45.0439 187.368C45.0439 187.368 59.8588 184.741 75.0598 189.552" stroke="#5E4078" stroke-width="1.98" stroke-miterlimit="10"/>
<path d="M57.2207 209.51C57.2207 209.51 75.0701 222.467 94.173 218.727C87.1001 202.866 93.3982 185.698 93.3982 185.698" stroke="#5E4078" stroke-width="1.98" stroke-miterlimit="10"/>
<path d="M218.797 129.94C218.797 129.94 212.115 126.798 203.408 114.589C194.704 102.38 184.529 89.1802 175.135 95.4215C165.74 101.663 181.037 133.3 218.797 129.942V129.94Z" fill="#D8A1FF"/>
<path d="M218.797 129.94C218.797 129.94 214.321 108.888 223.129 94.4047C231.939 79.9217 240.482 84.32 242.703 90.8401C244.927 97.3628 221.855 110.207 218.795 129.94H218.797Z" fill="#D8A1FF"/>
<path d="M210.944 87.3326C210.944 87.3326 193.257 62.9455 177.598 63.5572C161.936 64.1715 169.212 77.0698 176.3 78.8869C183.389 80.7041 203.804 82.751 210.946 87.3326H210.944Z" fill="#D8A1FF"/>
<path d="M209.912 83.8996C209.912 83.8996 213.827 71.466 211.459 62.1066C209.091 52.7472 208.774 35.4145 222.014 31.7983C233.241 29.772 232.86 66.9877 209.912 83.8996Z" fill="#D8A1FF"/>
<path d="M195.229 49.6648C195.229 49.6648 182.069 35.7289 167.308 33.8859C152.547 32.043 152.117 40.3131 154.694 44.4456C157.268 48.5807 176.489 41.8076 195.229 49.6648Z" fill="#D8A1FF"/>
<path d="M181.461 30.0478C181.461 30.0478 176.864 15.6344 166.188 6.36534C155.515 -2.90372 147.43 -0.141846 145.454 2.80329C143.477 5.74843 143.701 12.919 149.953 15.939C153.751 17.7742 168.904 21.171 181.461 30.0452V30.0478Z" fill="#D8A1FF"/>
<path d="M196.392 51.7297C196.392 51.7297 197.709 43.2092 191.025 31.679C184.341 20.1488 177.961 10.4487 185.901 4.85267C193.838 -0.745932 207.92 32.714 196.392 51.7297Z" fill="#D8A1FF"/>
<path d="M216.547 154.929C216.547 154.929 219.896 144.57 218.794 129.94C217.692 115.31 209.657 36.9811 151.782 5.96289" stroke="#1E1717" stroke-width="1.29" stroke-miterlimit="10"/>
<path d="M189.36 14.3232C189.36 14.3232 201.522 33.3053 196.392 51.7324" stroke="#5E4078" stroke-width="2.46" stroke-miterlimit="10"/>
<path d="M162.021 38.9502C162.021 38.9502 182.043 40.4783 195.226 49.6647" stroke="#5E4078" stroke-width="2.46" stroke-miterlimit="10"/>
<path d="M220.704 41.2969C220.704 41.2969 219.757 72.3512 209.915 83.8968" stroke="#5E4078" stroke-width="2.46" stroke-miterlimit="10"/>
<path d="M177.659 70.335C177.659 70.335 195.866 74.4881 210.944 87.3347" stroke="#5E4078" stroke-width="2.46" stroke-miterlimit="10"/>
<path d="M180.954 101.545C180.954 101.545 195.149 124.992 218.797 129.94C218.326 108.38 233.776 91.7852 233.776 91.7852" stroke="#5E4078" stroke-width="2.46" stroke-miterlimit="10"/>
<path d="M95.5498 207.006C95.5498 207.006 101.884 204.03 110.133 192.459C118.382 180.887 128.024 168.379 136.926 174.292C145.829 180.206 131.334 210.189 95.5498 207.006Z" fill="#D8A1FF"/>
<path d="M95.5502 207.006C95.5502 207.006 99.7918 187.054 91.4449 173.33C83.0955 159.605 75.0008 163.772 72.8929 169.953C70.7849 176.135 92.6521 188.306 95.5502 207.009V207.006Z" fill="#D8A1FF"/>
<path d="M102.988 166.627C102.988 166.627 119.749 143.515 134.592 144.096C149.433 144.676 142.54 156.901 135.822 158.623C129.105 160.344 109.755 162.285 102.988 166.627Z" fill="#D8A1FF"/>
<path d="M103.97 163.372C103.97 163.372 100.258 151.589 102.503 142.72C104.747 133.851 105.045 117.424 92.5007 113.996C81.8605 112.076 82.2234 147.345 103.97 163.372Z" fill="#D8A1FF"/>
<path d="M117.886 130.928C117.886 130.928 130.356 117.72 144.345 115.973C158.333 114.225 158.74 122.065 156.3 125.983C153.86 129.901 135.645 123.482 117.886 130.928Z" fill="#D8A1FF"/>
<path d="M130.93 112.339C130.93 112.339 135.287 98.6792 145.402 89.8954C155.517 81.1116 163.18 83.7289 165.053 86.5192C166.927 89.3095 166.713 96.1057 160.791 98.9683C157.193 100.708 142.831 103.927 130.93 112.336V112.339Z" fill="#D8A1FF"/>
<path d="M116.782 132.888C116.782 132.888 115.531 124.814 121.867 113.885C128.204 102.956 134.248 93.7673 126.724 88.4604C119.201 83.1561 105.856 114.866 116.782 132.885V132.888Z" fill="#D8A1FF"/>
<path d="M97.6792 230.687C97.6792 230.687 94.5057 220.87 95.5481 207.004C96.5905 193.141 104.206 118.908 159.054 89.5137" stroke="#5E4078" stroke-width="2.33" stroke-miterlimit="10"/>
<path d="M123.445 97.4346C123.445 97.4346 111.92 115.423 116.781 132.887" stroke="#5E4078" stroke-width="2.33" stroke-miterlimit="10"/>
<path d="M149.353 120.774C149.353 120.774 130.379 122.222 117.883 130.929" stroke="#5E4078" stroke-width="2.33" stroke-miterlimit="10"/>
<path d="M93.7412 122.999C93.7412 122.999 94.6369 152.43 103.967 163.371" stroke="#5E4078" stroke-width="2.33" stroke-miterlimit="10"/>
<path d="M134.533 150.518C134.533 150.518 117.278 154.451 102.988 166.627" stroke="#5E4078" stroke-width="2.33" stroke-miterlimit="10"/>
<path d="M131.413 180.095C131.413 180.095 117.962 202.314 95.5497 207.007C95.9975 186.574 81.3525 170.847 81.3525 170.847" stroke="#5E4078" stroke-width="2.33" stroke-miterlimit="10"/>
<path d="M247.181 131.381C247.181 131.381 251.965 129.133 258.194 120.393C264.425 111.653 271.707 102.206 278.432 106.671C285.157 111.139 274.208 133.784 247.181 131.381Z" fill="#A5F6FF"/>
<path d="M247.181 131.381C247.181 131.381 250.385 116.312 244.08 105.946C237.774 95.5798 231.658 98.7263 230.068 103.396C228.477 108.065 244.991 117.257 247.181 131.384V131.381Z" fill="#A5F6FF"/>
<path d="M252.802 100.883C252.802 100.883 265.462 83.4268 276.671 83.8656C287.88 84.3044 282.673 93.5373 277.6 94.8382C272.527 96.1391 257.913 97.6052 252.802 100.883Z" fill="#A5F6FF"/>
<path d="M253.541 98.4262C253.541 98.4262 250.738 89.5262 252.434 82.828C254.131 76.1298 254.357 63.722 244.88 61.1331C236.845 59.6825 237.118 86.323 253.544 98.4262H253.541Z" fill="#A5F6FF"/>
<path d="M264.053 73.9207C264.053 73.9207 273.473 63.9444 284.038 62.6254C294.604 61.3064 294.91 67.2251 293.067 70.1857C291.224 73.1437 277.467 68.2962 264.053 73.9207Z" fill="#A5F6FF"/>
<path d="M273.905 59.8789C273.905 59.8789 277.197 49.5619 284.836 42.9282C292.478 36.2946 298.264 38.2692 299.677 40.378C301.092 42.4868 300.93 47.6183 296.457 49.7813C293.739 51.0951 282.893 53.5266 273.902 59.8789H273.905Z" fill="#A5F6FF"/>
<path d="M263.219 75.4001C263.219 75.4001 262.274 69.3007 267.059 61.0486C271.843 52.794 276.409 45.8532 270.726 41.8472C265.043 37.8412 254.964 61.7894 263.216 75.4027L263.219 75.4001Z" fill="#A5F6FF"/>
<path d="M248.79 149.268C248.79 149.268 246.394 141.852 247.181 131.38C247.969 120.908 253.721 64.8421 295.147 42.6387" stroke="#5E4078" stroke-width="1.76" stroke-miterlimit="10"/>
<path d="M268.25 48.6221C268.25 48.6221 259.545 62.2095 263.215 75.3993" stroke="#5E4078" stroke-width="1.76" stroke-miterlimit="10"/>
<path d="M287.819 66.252C287.819 66.252 273.488 67.3464 264.05 73.9207" stroke="#5E4078" stroke-width="1.76" stroke-miterlimit="10"/>
<path d="M245.816 67.9326C245.816 67.9326 246.493 90.1618 253.54 98.4268" stroke="#5E4078" stroke-width="1.76" stroke-miterlimit="10"/>
<path d="M276.626 88.7158C276.626 88.7158 263.592 91.6868 252.8 100.884" stroke="#5E4078" stroke-width="1.76" stroke-miterlimit="10"/>
<path d="M274.267 111.057C274.267 111.057 264.108 127.84 247.181 131.381C247.518 115.948 236.458 104.069 236.458 104.069" stroke="#5E4078" stroke-width="1.76" stroke-miterlimit="10"/>
<path d="M408.752 44.3864C408.752 44.3864 408.958 41.6658 413.161 41.8336C417.364 42.0014 421.137 47.853 419.423 55.3384C417.706 62.8239 418.221 67.2971 424.141 67.8133C423.541 70.8256 412.129 74.6973 409.212 63.5982C406.296 52.4991 408.752 44.3864 408.752 44.3864Z" fill="#5BEEFF"/>
<path d="M392.833 81.9893C391.996 83.8348 391.26 85.1977 390.836 85.4042C389.322 86.1398 363.136 89.6296 363.136 89.6296C363.136 89.6296 361.672 93.4859 363.136 94.588C364.601 95.6902 388.591 94.9546 393.353 93.1194C395.479 92.2985 398.302 88.9559 400.776 85.5074C397.149 85.3784 394.596 83.8219 392.833 81.9918V81.9893Z" fill="#AF46F9"/>
<path d="M397.746 69.4238C397.746 69.4238 394.962 77.2836 392.833 81.9891C394.593 83.8166 397.149 85.3756 400.776 85.5047C403.841 81.2302 406.369 76.7931 406.369 76.7931L397.746 69.4264V69.4238Z" fill="white"/>
<path d="M425.083 169.988C425.083 169.988 424.292 176.784 421.896 178.986C419.497 181.19 418.617 183.854 421.989 184.404C425.358 184.953 429.206 182.109 430.029 179.812C430.853 177.514 431.311 173.475 432.41 172.189C433.509 170.904 433.499 166.25 430.843 164.781C428.187 163.313 425.083 169.988 425.083 169.988Z" fill="#C573FF"/>
<path d="M398.318 198.264C398.318 198.264 395.523 203.29 390.586 206.227C385.65 209.165 382.903 213.452 391.876 213.819C391.876 213.819 398.408 213.39 401.033 210.024C403.659 206.658 404.086 205.678 405.978 204.821C407.869 203.964 407.422 201.062 406.546 198.502C405.671 195.941 398.318 198.264 398.318 198.264Z" fill="#C573FF"/>
<path d="M421.546 113.421C421.546 113.421 423.451 123.198 418.37 130.224C413.29 137.248 408.206 148.68 407.658 157.084C407.11 165.486 407.658 198.267 407.658 198.267C407.658 198.267 402.438 199.646 398.318 198.267C398.181 190.278 395.296 161.077 396.259 152.952C397.221 144.826 402.33 117.311 402.33 117.311L421.546 113.423V113.421Z" fill="#7CF1FF"/>
<path d="M390.583 108.397C390.583 108.397 395.962 136.744 403.287 147.397C411.346 156.149 425.08 169.987 425.08 169.987C425.08 169.987 430.758 169.437 430.94 163.743C425.996 157.683 416.473 146.48 414.458 142.255C412.442 138.03 408.975 115.966 408.975 115.966L390.583 108.4V108.397Z" fill="#7CF1FF"/>
<path d="M406.515 69.4241C414.205 70.7947 422.583 71.8969 421.348 78.7835C420.112 85.6701 419.67 103.439 421.469 112.391C423.27 121.345 394.84 120.656 390.583 108.397C393.056 98.6174 394.016 92.0069 393.741 89.2528C391.381 87.5337 389.644 83.125 392.938 80.0044C396.233 76.8837 395.126 67.6456 399.797 68.3968C404.466 69.1505 406.515 69.4267 406.515 69.4267V69.4241Z" fill="#D8A1FF"/>
<path d="M397.422 50.2383C397.422 50.2383 398.328 44.441 403.897 44.441C408.633 43.5324 414.414 44.7197 416.293 52.4039C418.174 60.0856 410.044 65.7203 410.044 65.7203L397.419 50.2409L397.422 50.2383Z" fill="#68EFFF"/>
<path d="M397.422 50.2382C397.422 50.2382 395.751 53.6609 396.866 57.5017C397.98 61.3425 397.074 66.0919 401.463 68.8176C405.851 71.5408 412.049 64.4167 412.746 61.2057C414.069 59.1795 413.861 55.8988 411.701 56.5957C409.542 57.2926 406.896 49.4716 402.858 48.4934C398.819 47.5151 397.424 50.2382 397.424 50.2382H397.422Z" fill="#AF46F9"/>
<path d="M407.35 87.415C406.513 89.2606 405.777 90.6235 405.352 90.83C403.839 91.5656 377.653 95.0554 377.653 95.0554C377.653 95.0554 376.188 98.9117 377.653 100.014C379.117 101.116 403.108 100.38 407.869 98.5451C409.995 97.7243 412.819 94.3817 415.292 90.9332C411.666 90.8041 409.113 89.2477 407.35 87.4176V87.415Z" fill="#AF46F9"/>
<path d="M412.263 74.8525C412.263 74.8525 409.478 82.7123 407.35 87.4178C409.11 89.2453 411.666 90.8043 415.292 90.9334C418.358 86.6589 420.885 82.2218 420.885 82.2218L412.263 74.8551V74.8525Z" fill="#D8A1FF"/>
<path d="M410.047 65.7197C410.047 65.7197 410.088 68.8507 410.938 70.2265C411.231 71.6023 407.713 73.2362 404.709 72.4179C401.705 71.5997 401.155 69.767 402.202 69.1785C403.25 68.59 410.047 65.7197 410.047 65.7197Z" fill="#AF46F9"/>
<path d="M144.885 168.142C150.395 160.791 154.117 150.739 154.117 141.674C154.117 128.283 145.999 122.13 135.984 127.927C125.97 133.724 117.852 149.281 117.852 162.67C117.852 171.735 121.573 177.475 127.084 178.446L75.1934 208.491V314.095L154.171 162.76L144.882 168.139L144.885 168.142Z" fill="#4DE8EF"/>
<path d="M163.653 157.275L75.1963 326.772V339.484L173.161 151.77L163.653 157.275Z" fill="#4DE8EF"/>
<path d="M212.571 185.991C205.792 189.917 199.887 198.313 196.776 207.482V138.097L191.685 141.044L75.1963 364.253V371.062L196.776 300.668V231.283C199.887 236.848 205.792 238.407 212.571 234.484C222.586 228.686 230.704 213.129 230.704 199.741C230.704 186.352 222.586 180.196 212.571 185.993V185.991Z" fill="#83F2FF"/>
<path d="M173.161 151.77L75.1963 339.484V364.253L191.685 141.045L173.161 151.77Z" fill="#83F2FF"/>
<path d="M173.161 151.77L75.1963 339.484V364.253L191.685 141.045L173.161 151.77Z" fill="#4DE8EF"/>
<path d="M154.174 162.763L75.1963 314.098V326.772L163.653 157.275L154.174 162.763Z" fill="#83F2FF"/>
<path d="M154.174 162.763L75.1963 314.098V326.772L163.653 157.275L154.174 162.763Z" fill="#4DE8EF"/>
<path d="M360.699 99.8047L281.462 251.633L295.615 243.438L360.699 118.73V99.8047Z" fill="#C573FF"/>
<path d="M360.699 43.1837L308.808 73.2288C314.319 65.8776 318.041 55.8264 318.041 46.7613C318.041 33.37 309.923 27.2165 299.908 33.0138C289.893 38.8112 281.776 54.368 281.776 67.7567C281.776 76.8218 285.497 82.5624 291.008 83.5329L239.117 113.578V182.963C242.229 173.795 248.133 165.398 254.913 161.472C264.927 155.675 273.045 161.828 273.045 175.219C273.045 188.611 264.927 204.165 254.913 209.962C248.133 213.888 242.229 212.329 239.117 206.762V276.147L253.883 267.598L360.696 62.9247V43.1812L360.699 43.1837Z" fill="#C573FF"/>
<path d="M360.699 137.599L309.725 235.268L360.699 205.755V137.599Z" fill="#C573FF"/>
<path d="M360.699 62.9277L253.883 267.601L281.461 251.633L360.699 99.8052V62.9277Z" fill="#C573FF"/>
<path opacity="0.4" d="M360.699 62.9277L253.883 267.601L281.461 251.633L360.699 99.8052V62.9277Z" fill="white"/>
<path d="M360.699 118.73L295.615 243.438L309.725 235.269L360.699 137.599V118.73Z" fill="#C573FF"/>
<path opacity="0.4" d="M360.699 118.73L295.615 243.438L309.725 235.269L360.699 137.599V118.73Z" fill="white"/>
<path d="M383.786 56.5312L360.699 43.1839L340.644 54.7967L334.958 45.4631L312.417 32.4668L291.932 109.717L239.117 165.264V182.966L262.207 196.313V164.438L278.002 174.822L262.207 220.112L239.117 206.764V276.149L262.207 289.497L383.786 56.5312Z" fill="#C573FF"/>
<path d="M383.786 113.149L304.551 264.98L318.704 256.785L383.786 132.075V113.149Z" fill="#D8A1FF"/>
<path d="M383.786 56.5314L331.895 86.5765C337.406 79.2252 341.128 69.1741 341.128 60.1089C341.128 46.7177 333.01 40.5641 322.995 46.3615C312.98 52.1589 304.862 67.7157 304.862 81.1043C304.862 90.1695 308.584 95.91 314.095 96.8806L262.204 126.926V196.311C265.316 187.142 271.22 178.746 278 174.82C288.014 169.022 296.132 175.176 296.132 188.567C296.132 201.958 288.014 217.513 278 223.31C271.22 227.236 265.316 225.677 262.204 220.109V289.494L276.97 280.945L383.783 76.2723V56.5288L383.786 56.5314Z" fill="#D8A1FF"/>
<path d="M383.786 150.946L332.814 248.616L383.786 219.103V150.946Z" fill="#D8A1FF"/>
<path d="M383.786 76.2754L276.973 280.948L304.551 264.981L383.786 113.15V76.2754Z" fill="#C573FF"/>
<path d="M383.786 76.2754L276.973 280.948L304.551 264.981L383.786 113.15V76.2754Z" fill="#D8A1FF"/>
<path d="M383.786 132.075L318.704 256.785L332.814 248.616L383.786 150.946V132.075Z" fill="#C573FF"/>
<path d="M383.786 132.075L318.704 256.785L332.814 248.616L383.786 150.946V132.075Z" fill="#D8A1FF"/>
<path d="M247.67 198.468L225.227 185.546H219.865V151.444L196.776 138.096L176.72 149.709L170.711 140.19L148.38 127.302L75.1963 371.062L98.286 384.409" fill="#4DE8EF"/>
<path d="M167.974 181.49C173.485 174.138 177.207 164.087 177.207 155.022C177.207 141.631 169.089 135.477 159.074 141.275C149.059 147.072 140.942 162.629 140.942 176.017C140.942 185.083 144.663 190.823 150.174 191.794L98.2832 221.839V327.443L177.261 176.108L167.972 181.487L167.974 181.49Z" fill="#96F4FF"/>
<path d="M186.743 170.623L98.2861 340.119V352.832L196.248 165.117L186.743 170.623Z" fill="#96F4FF"/>
<path d="M235.661 199.338C228.881 203.264 222.977 211.661 219.865 220.829V151.444L214.774 154.392L98.2861 377.601V384.41L219.865 314.016V244.631C222.977 250.196 228.881 251.755 235.661 247.831C245.676 242.034 253.793 226.477 253.793 213.088C253.793 199.7 245.676 193.544 235.661 199.341V199.338Z" fill="#96F4FF"/>
<path d="M196.248 165.117L98.2861 352.832V377.601L214.774 154.393L196.248 165.117Z" fill="#96F4FF"/>
<path d="M196.248 165.117L98.2861 352.832V377.601L214.774 154.393L196.248 165.117Z" fill="#83F2FF"/>
<path d="M177.264 176.111L98.2861 327.446V340.12L186.743 170.623L177.264 176.111Z" fill="#96F4FF"/>
<path d="M177.264 176.111L98.2861 327.446V340.12L186.743 170.623L177.264 176.111Z" fill="#83F2FF"/>
<path d="M52.5986 284.762C50.6245 281.809 48.272 277.116 47.3506 275.162C45.9633 272.222 37.4414 265.919 37.4414 265.919L39.7064 282.859C39.7064 282.859 42.5118 288.804 46.9259 292.784C50.1071 290.192 51.7595 287.299 52.5986 284.759V284.762Z" fill="white"/>
<path d="M81.1494 267.431C80.7711 265.815 75.487 265.475 75.2297 266.334C73.289 270.136 71.5285 276.574 71.5285 276.574C62.8908 282.296 56.7574 287.415 55.0613 287.332C54.4924 287.304 53.5916 286.256 52.5955 284.764C51.7565 287.304 50.1041 290.197 46.9229 292.789C48.9819 294.645 51.391 296.075 54.0317 296.271C61.2307 295.102 75.3197 279.855 75.3197 279.855C75.3197 279.855 78.6786 276.933 79.1753 275.73C79.2911 275.451 79.7802 275.193 80.1508 274.919C81.5664 274.096 82.8044 272.594 82.8842 272.338C83.3011 270.949 82.1764 271.791 81.4686 272.24C80.7711 272.385 80.1945 272.749 80.246 272.573C80.8303 270.622 81.3656 268.373 81.1469 267.434L81.1494 267.431Z" fill="#B048F9"/>
<path d="M66.716 399.917C66.716 399.917 65.9104 401.45 66.0854 403.631C66.2604 405.812 71.7555 407.73 76.1877 404.596C80.6198 401.46 80.1899 401.112 82.0534 400.67C83.9168 400.229 90.0785 398.373 91.3886 394.63C92.7012 390.888 86.5009 391.192 77.6135 393.402C69.5935 393.949 66.716 399.917 66.716 399.917Z" fill="#7CF1FF"/>
<path d="M28.0881 409.369C28.0881 409.369 27.2825 410.902 27.4575 413.083C27.6325 415.264 33.1276 417.182 37.5597 414.049C41.9918 410.912 41.562 410.564 43.4254 410.123C45.2889 409.681 51.4506 407.825 52.7607 404.083C54.0733 400.34 47.873 400.644 38.9856 402.854C30.9656 403.401 28.0881 409.369 28.0881 409.369Z" fill="#7CF1FF"/>
<path d="M32.2139 319.239C32.2139 319.239 28.312 324.587 31.5241 339.555C33.2151 346.346 33.9049 365.612 32.9397 368.108C31.9719 370.604 27.4111 385.296 26.168 406.501C26.5824 411.214 35.565 411.075 37.3641 407.748C38.1928 401.788 40.4037 381.275 43.168 374.344C45.9323 367.414 48.1432 355.078 48.8356 341.633C52.4286 345.652 68.8753 355.77 69.704 359.513C69.9794 361.73 65.3002 374.205 64.3222 398.321C67.0762 399.847 73.0191 401.093 75.7834 398.182C77.0265 389.31 80.6196 365.055 82.2797 359.234C83.9372 353.414 68.9062 333.115 64.1909 328.363C59.4757 323.611 32.2164 319.233 32.2164 319.233L32.2139 319.239Z" fill="#4DE8EF"/>
<path d="M47.8187 271.74C43.5796 268.723 35.6548 262.726 33.0141 267.45C30.3734 272.171 32.3989 282.398 33.0141 287.942C33.6292 293.487 32.2162 317.45 32.2162 319.236C32.2162 321.023 45.4842 336.856 63.6682 329.401C64.775 328.046 64.4043 325.767 63.1148 322.809C61.8254 319.851 65.0812 294.656 62.4997 286.954C59.9207 279.254 47.8187 271.737 47.8187 271.737V271.74Z" fill="#D8A1FF"/>
<path d="M54.0678 267.636C54.0678 267.636 51.6921 269.179 50.9123 274.158C46.2897 272.762 42.4805 269.796 42.4805 269.796C42.4805 269.796 44.7145 267.587 44.9771 265.47C45.2396 263.354 54.0678 267.638 54.0678 267.638V267.636Z" fill="#B048F9"/>
<path d="M50.6702 275.038C51.4861 273.444 50.1843 271.141 47.7625 269.894C45.3408 268.648 42.7161 268.929 41.9002 270.524C41.0843 272.118 42.3861 274.421 44.8078 275.667C47.2296 276.914 49.8543 276.632 50.6702 275.038Z" fill="#B048F9"/>
<path d="M59.213 254.126C59.213 254.126 60.2503 257.061 59.8333 259.105C59.4164 261.149 59.6068 262.241 59.4936 264.172C59.3803 266.105 57.4114 271.002 54.1787 272.016C50.3411 273.222 45.5898 270.426 45.5898 270.426L45.7365 254.544L59.2105 254.126H59.213Z" fill="#B048F9"/>
<path d="M41.6729 249.446C41.6729 249.446 44.3059 244.872 50.0944 245.734C55.8829 246.596 60.526 252.032 63.087 251.663C61.3445 256.983 47.1113 258.857 41.6729 249.446Z" fill="#5DEEFF"/>
<path d="M57.051 254.828C57.051 254.828 55.7975 259.812 53.2906 263.232C52.6317 263.353 54.1425 259.564 50.8249 259.461C47.5072 259.358 49.2034 263.95 51.1518 265.072C50.1686 266.975 46.5343 270.077 45.5898 270.426C43.034 270.144 41.2632 268.007 41.2632 268.007C41.2632 268.007 39.9119 265.573 38.8206 263.137C37.6264 261.118 35.3923 250.12 41.6698 249.446C47.9474 248.772 57.051 254.828 57.051 254.828Z" fill="#5DEEFF"/>
<path d="M70.2031 296.075C68.229 293.122 65.8765 288.43 64.9551 286.476C63.5678 283.536 55.0459 277.232 55.0459 277.232L57.3109 294.173C57.3109 294.173 60.1163 300.117 64.5304 304.097C67.7116 301.506 69.364 298.612 70.2031 296.073V296.075Z" fill="#D8A1FF"/>
<path d="M98.1726 279.666C97.7942 278.051 93.4316 275.506 93.1743 276.365C92.9169 277.225 91.038 284.018 91.038 284.018C91.038 284.018 90.2298 282.359 90.1938 281.602C90.1577 280.846 88.791 280.255 88.6212 280.443C88.4513 280.632 89.1359 281.579 88.8271 283.332C88.5182 285.084 89.1359 287.888 89.1359 287.888C80.4982 293.61 74.3648 298.729 72.6687 298.646C72.0999 298.618 71.199 297.57 70.203 296.078C69.3639 298.618 67.7115 301.511 64.5303 304.103C66.5893 305.958 68.9984 307.388 71.6391 307.585C78.8381 306.415 92.9272 291.168 92.9272 291.168C92.9272 291.168 96.286 288.246 96.7827 287.044C97.2795 285.841 98.5484 281.285 98.17 279.669L98.1726 279.666Z" fill="#B048F9"/>
<path d="M336.778 215.003L327.533 209.621C327.217 209.417 326.797 209.422 326.339 209.688L188.799 289.323C187.824 289.889 187.023 291.419 187.023 292.725V414.046C187.023 414.715 187.234 415.2 187.569 415.438L187.592 415.451C187.626 415.474 187.662 415.494 187.698 415.512L196.819 420.822L208.118 404.204L326.334 335.756C327.309 335.191 328.11 333.66 328.11 332.354V227.744L336.773 215.003H336.778Z" fill="#83F2FF"/>
<path d="M335.615 341.154L198.076 420.789C197.1 421.354 196.3 420.747 196.3 419.444V298.123C196.3 296.817 197.098 295.286 198.076 294.721L335.615 215.086C336.591 214.52 337.391 215.127 337.391 216.431V337.752C337.391 339.058 336.593 340.588 335.615 341.154Z" fill="#D8A1FF"/>
<path d="M230.004 319.128L216.694 326.836V309.038L230.004 301.331V319.128Z" fill="#EBFDFF"/>
<path d="M232.403 294.543L223.026 314.914L219.029 310.859L217.475 314.237L221.472 318.293L223.026 319.87L224.581 316.493L233.957 296.12L232.403 294.543Z" fill="#96F4FF"/>
<path d="M315.295 254.124L241.789 296.685C240.855 297.227 240.088 298.693 240.088 299.943C240.088 301.195 240.852 301.773 241.789 301.233L315.295 258.672C316.229 258.13 316.996 256.664 316.996 255.415C316.996 254.163 316.232 253.584 315.295 254.124Z" fill="#EBFDFF"/>
<path d="M283.719 281.304L241.789 305.58C240.855 306.122 240.088 307.588 240.088 308.837C240.088 310.089 240.852 310.667 241.789 310.128L283.719 285.852C284.653 285.31 285.42 283.843 285.42 282.594C285.42 281.342 284.656 280.764 283.719 281.304Z" fill="#EBFDFF"/>
<path d="M230.004 350.87L216.694 358.574V340.777L230.004 333.072V350.87Z" fill="#EBFDFF"/>
<path d="M232.403 326.281L223.026 346.655L219.029 342.6L217.475 345.976L221.472 350.031L223.026 351.608L224.581 348.232L233.957 327.858L232.403 326.281Z" fill="#96F4FF"/>
<path d="M315.295 285.862L241.789 328.423C240.855 328.965 240.088 330.432 240.088 331.681C240.088 332.933 240.852 333.511 241.789 332.972L315.295 290.41C316.229 289.868 316.996 288.402 316.996 287.153C316.996 285.901 316.232 285.323 315.295 285.862Z" fill="#EBFDFF"/>
<path d="M283.719 313.045L241.789 337.321C240.855 337.863 240.088 339.329 240.088 340.578C240.088 341.83 240.852 342.408 241.789 341.869L283.719 317.593C284.653 317.051 285.42 315.585 285.42 314.335C285.42 313.084 284.656 312.505 283.719 313.045Z" fill="#EBFDFF"/>
<path d="M230.004 382.608L216.694 390.315V372.518L230.004 364.811V382.608Z" fill="#EBFDFF"/>
<path d="M232.403 358.021L223.026 378.392L219.029 374.337L217.475 377.716L221.472 381.771L223.026 383.348L224.581 379.969L233.957 359.599L232.403 358.021Z" fill="#96F4FF"/>
<path d="M315.295 317.6L241.789 360.162C240.855 360.704 240.088 362.17 240.088 363.419C240.088 364.671 240.852 365.249 241.789 364.71L315.295 322.149C316.229 321.607 316.996 320.14 316.996 318.891C316.996 317.639 316.232 317.061 315.295 317.6Z" fill="#EBFDFF"/>
<path d="M283.719 344.783L241.789 369.059C240.855 369.601 240.088 371.067 240.088 372.317C240.088 373.569 240.852 374.147 241.789 373.607L283.719 349.331C284.653 348.789 285.42 347.323 285.42 346.074C285.42 344.822 284.656 344.244 283.719 344.783Z" fill="#EBFDFF"/>
<path d="M435.283 344.927L377.866 378.173V309.16L435.283 275.914V344.927Z" fill="#FEFFFF"/>
<path d="M435.283 287.777L377.866 321.023V309.16L435.283 275.914V287.777Z" fill="#96F4FF"/>
<path d="M427.541 302.395L385.605 326.676C385.073 326.983 384.638 327.819 384.638 328.529V329.177C384.638 329.89 385.073 330.22 385.605 329.91L427.541 305.629C428.073 305.322 428.508 304.485 428.508 303.776V303.128C428.508 302.415 428.073 302.085 427.541 302.395Z" fill="#F0EEF3"/>
<path d="M427.541 314.041L385.605 338.322C385.073 338.63 384.638 339.466 384.638 340.176V340.824C384.638 341.536 385.073 341.866 385.605 341.557L427.541 317.275C428.073 316.968 428.508 316.132 428.508 315.422V314.774C428.508 314.062 428.073 313.731 427.541 314.041Z" fill="#F0EEF3"/>
<path d="M413.511 333.813L385.608 349.968C385.076 350.275 384.641 351.112 384.641 351.822V352.47C384.641 353.182 385.076 353.512 385.608 353.203L413.511 337.047C414.044 336.74 414.479 335.903 414.479 335.194V334.546C414.479 333.833 414.044 333.503 413.511 333.813Z" fill="#F0EEF3"/>
<path d="M413.511 345.456L385.608 361.612C385.076 361.919 384.641 362.755 384.641 363.465V364.113C384.641 364.825 385.076 365.156 385.608 364.846L413.511 348.69C414.044 348.383 414.479 347.547 414.479 346.837V346.189C414.479 345.477 414.044 345.146 413.511 345.456Z" fill="#F0EEF3"/>
<path d="M427.541 308.218L385.605 332.499C385.073 332.806 384.638 333.643 384.638 334.352V335C384.638 335.713 385.073 336.043 385.605 335.733L427.541 311.452C428.073 311.145 428.508 310.309 428.508 309.599V308.951C428.508 308.239 428.073 307.908 427.541 308.218Z" fill="#F0EEF3"/>
<path d="M427.541 319.864L385.605 344.146C385.073 344.453 384.638 345.289 384.638 345.999V346.647C384.638 347.359 385.073 347.69 385.605 347.38L427.541 323.099C428.073 322.791 428.508 321.955 428.508 321.245V320.597C428.508 319.885 428.073 319.555 427.541 319.864Z" fill="#F0EEF3"/>
<path d="M413.511 339.634L385.608 355.79C385.076 356.097 384.641 356.933 384.641 357.643V358.291C384.641 359.003 385.076 359.334 385.608 359.024L413.511 342.868C414.044 342.561 414.479 341.725 414.479 341.015V340.367C414.479 339.655 414.044 339.324 413.511 339.634Z" fill="#F0EEF3"/>
<path d="M435.283 275.914L474.999 298.949L417.583 344.055L377.866 321.023L435.283 275.914Z" fill="#96F4FF"/>
<path d="M417.583 401.206L377.866 378.174V321.023L417.583 344.055V401.206Z" fill="#4DE8EF"/>
<path d="M475 367.962L417.583 401.205V332.194L475 298.948V367.962Z" fill="#96F4FF"/>
<path d="M475 310.809L417.583 344.055V332.194L475 298.948V310.809Z" fill="#A3F5FF"/>
<path d="M467.257 325.429L425.322 349.71C424.789 350.017 424.354 350.854 424.354 351.563V352.211C424.354 352.924 424.789 353.254 425.322 352.944L467.257 328.663C467.79 328.356 468.225 327.52 468.225 326.81V326.162C468.225 325.45 467.79 325.119 467.257 325.429Z" fill="#F0EEF3"/>
<path d="M467.257 337.075L425.322 361.357C424.789 361.664 424.354 362.5 424.354 363.21V363.858C424.354 364.57 424.789 364.901 425.322 364.591L467.257 340.31C467.79 340.002 468.225 339.166 468.225 338.456V337.808C468.225 337.096 467.79 336.766 467.257 337.075Z" fill="#F0EEF3"/>
<path d="M453.225 356.845L425.322 373.001C424.789 373.308 424.354 374.144 424.354 374.854V375.502C424.354 376.214 424.789 376.545 425.322 376.235L453.225 360.079C453.758 359.772 454.193 358.936 454.193 358.226V357.578C454.193 356.866 453.758 356.535 453.225 356.845Z" fill="#F0EEF3"/>
<path d="M453.225 368.49L425.322 384.646C424.789 384.953 424.354 385.79 424.354 386.499V387.147C424.354 387.86 424.789 388.19 425.322 387.88L453.225 371.725C453.758 371.417 454.193 370.581 454.193 369.871V369.223C454.193 368.511 453.758 368.181 453.225 368.49Z" fill="#F0EEF3"/>
<path d="M467.257 331.252L425.322 355.533C424.789 355.841 424.354 356.677 424.354 357.387V358.035C424.354 358.747 424.789 359.077 425.322 358.768L467.257 334.486C467.79 334.179 468.225 333.343 468.225 332.633V331.985C468.225 331.273 467.79 330.942 467.257 331.252Z" fill="#F0EEF3"/>
<path d="M467.257 342.896L425.322 367.177C424.789 367.484 424.354 368.32 424.354 369.03V369.678C424.354 370.391 424.789 370.721 425.322 370.411L467.257 346.13C467.79 345.823 468.225 344.986 468.225 344.277V343.629C468.225 342.916 467.79 342.586 467.257 342.896Z" fill="#F0EEF3"/>
<path d="M453.225 362.668L425.322 378.824C424.789 379.131 424.354 379.967 424.354 380.677V381.325C424.354 382.037 424.789 382.368 425.322 382.058L453.225 365.902C453.758 365.595 454.193 364.759 454.193 364.049V363.401C454.193 362.689 453.758 362.358 453.225 362.668Z" fill="#F0EEF3"/>
</g>
<defs>
<clipPath id="clip0_2155_10595">
<rect width="475" height="421" fill="white"/>
</clipPath>
</defs>
</svg>
