<svg width="480" height="480" viewBox="0 0 480 480" fill="none" xmlns="http://www.w3.org/2000/svg">
<path d="M171.232 378.451C171.059 378.451 170.889 378.45 170.717 378.448C131.928 378.077 104.032 362.646 80.2654 328.409C65.2918 306.839 62.3739 287.298 70.5099 263.068C73.4782 254.229 80.3247 250.207 86.9461 246.317C93.115 242.693 99.4949 238.944 102.968 231.275C106.04 224.481 103.893 216.948 101.815 209.664C99.2679 200.732 96.8617 192.297 105.509 187.403C117.538 180.144 129.092 187.34 141.319 194.959C151.146 201.079 161.307 207.409 173.247 208.028C176.48 208.196 179.831 208.56 183.071 208.913C196.387 210.361 208.963 211.724 213.929 200.244C218.119 190.86 211.492 183.577 203.821 175.144C197.185 167.851 189.665 159.585 189.451 148.904C189.161 134.523 193.23 124.973 203.057 116.972C215.386 106.934 226.846 104.639 238.094 109.973C247.196 114.285 248.826 123.244 250.4 131.908C251.888 140.096 253.428 148.563 261.175 153.432C268.299 157.91 275.252 156.282 282.613 154.552C289.607 152.911 296.843 151.216 304.319 155.095C308.599 157.315 310.123 161.512 311.596 165.569C313.171 169.906 314.658 174.002 319.462 175.041C331.595 177.666 339.194 170.174 347.222 162.238C354.152 155.39 361.317 148.308 372.027 146.732C387.155 144.502 396.905 146.478 410.659 154.567C430.608 168.686 434.206 188.354 422.018 216.483C418.433 224.758 410.812 227.011 403.441 229.191C396.584 231.219 389.493 233.315 385.32 240.198C376.251 255.161 382.121 271.062 387.796 286.439C395.226 306.569 402.91 327.384 375.505 344.996C350.366 359.807 329.603 352.219 307.619 344.187C290.364 337.883 272.528 331.361 251.629 335.718C235.623 339.052 224.8 348.463 214.331 357.565C201.98 368.302 190.304 378.45 171.232 378.451ZM116.046 185.321C112.721 185.321 109.394 186.184 106.001 188.23L105.99 188.237C97.9945 192.756 100.194 200.469 102.741 209.401C104.767 216.505 107.064 224.556 103.843 231.671C100.246 239.62 93.7328 243.446 87.4342 247.147C80.6669 251.123 74.2745 254.878 71.4214 263.374C63.3951 287.284 66.2754 306.569 81.0541 327.861C104.627 361.814 132.282 377.119 170.727 377.486C189.735 377.684 201.38 367.551 213.701 356.837C224.261 347.657 235.182 338.162 251.431 334.774C272.596 330.365 290.567 336.93 307.951 343.283C329.716 351.235 350.276 358.745 375.001 344.177C401.739 326.991 394.529 307.455 386.894 286.772C381.139 271.181 375.188 255.058 384.498 239.699C388.863 232.498 396.136 230.347 403.17 228.267C410.655 226.053 417.729 223.964 421.135 216.102C433.111 188.46 429.617 169.164 410.138 155.374C396.638 147.436 387.047 145.489 372.167 147.683C361.769 149.214 354.719 156.185 347.9 162.923C339.679 171.046 331.899 178.721 319.26 175.982C313.936 174.831 312.286 170.29 310.692 165.898C309.282 162.013 307.823 157.998 303.876 155.949C296.714 152.229 289.659 153.888 282.833 155.489C275.606 157.184 268.126 158.939 260.664 154.246C252.556 149.153 250.978 140.473 249.453 132.081C247.851 123.267 246.338 114.942 237.684 110.841C226.801 105.691 215.68 107.934 203.666 117.718C193.965 125.616 190.124 134.646 190.413 148.886C190.622 159.205 197.693 166.979 204.532 174.497C212.103 182.819 219.254 190.678 214.81 200.631C209.565 212.762 196.64 211.348 182.966 209.869C179.741 209.518 176.403 209.156 173.197 208.991C161.01 208.356 150.741 201.96 140.809 195.775C131.994 190.285 124.026 185.321 116.046 185.321Z" fill="#ECE9FE"/>
<path fill-rule="evenodd" clip-rule="evenodd" d="M104.291 210.67C91.2053 220.856 112.671 236.66 108.182 252.38C103.52 268.701 84.8736 270.312 81.8815 287.019C77.555 311.178 83.3712 329.293 100.164 347.19C126.501 375.259 154.387 387.072 192.515 381.807C226.373 377.132 231.043 341.784 263.125 329.993C306.671 313.988 342.935 352.815 381.701 321.517C422.617 285.78 360.964 257.198 376.202 220.977C382.529 205.936 403.414 209.175 407.642 193.415C413.682 170.907 412.768 149.181 388.475 136.861C374.44 131.178 365.062 130.639 351.064 134.861C329.637 141.324 327.374 170.562 305.042 169.079C295.658 168.456 296.665 155.336 287.773 152.27C272.497 147.002 261.4 163.23 246.609 156.725C229.782 149.324 236.28 124.14 218.695 118.782C206.097 114.944 195.826 120.477 186.939 130.196C178.287 139.658 176.499 149.339 178.629 161.983C182.172 183.017 214.196 188.923 209.015 207.414C205.049 222.242 186.752 219.348 171.143 220.832C144.872 223.331 122.411 195.732 104.291 210.67Z" fill="#F2F2F2"/>
<path fill-rule="evenodd" clip-rule="evenodd" d="M119.533 187.54C106.427 181.877 93.7987 192.051 83.3184 182.355C74.142 173.865 74.2464 163.42 76.3296 151.093C77.184 146.036 79.1558 143.009 83.2521 139.922C89.495 135.218 94.7296 133.919 102.527 134.475C115.955 135.432 120.594 148.648 134.056 148.474C141.926 148.372 146.993 145.654 152.271 139.814C158.039 133.432 152.608 123.951 159.681 119.053C165.125 115.284 171.712 114.92 176.645 119.336C179.887 122.238 178.901 126.126 178.059 130.395C175.959 141.037 166.133 143.865 164.326 154.561C162.236 166.931 172.606 173.874 170.143 186.175C168.528 194.243 166.046 200.261 158.638 203.843C151.18 207.45 145.185 204.974 137.501 201.877C129.18 198.524 127.768 191.098 119.533 187.54ZM345.143 115.927C339.679 120.67 332.151 116.014 325.93 120.096C319.373 124.4 321.411 130.105 316.132 135.422C310.031 141.566 306.173 147 296.965 148.419C288.731 149.689 283.804 146.696 278.358 142.307C267.92 133.896 272.463 123.31 263.861 113.602C259.84 109.065 253.195 109.481 250.481 104.274C247.987 99.4869 248.001 94.913 251.044 90.4548C255.73 83.5886 262.234 81.887 270.547 81.8906C289.693 81.8988 296.629 105.173 315.449 101.654C323.15 100.214 321.941 87.2983 329.66 87.4745C336.009 87.6103 335.026 96.4032 340.502 99.6329C343.236 101.246 346.742 98.7482 348.434 101.434C351.525 106.341 349.522 112.124 345.143 115.927Z" fill="#F2F2F2"/>
<path fill-rule="evenodd" clip-rule="evenodd" d="M122.006 341.542C123.849 332.066 126.897 326.64 133.598 319.691C142.539 310.418 153.206 312.418 162.175 303.17C165.62 299.618 169.348 296.814 168.183 292.004C167.151 287.747 163.308 285.505 158.93 285.65C148.495 285.996 147.873 299.041 137.929 302.224C132.696 303.899 125.962 305.716 123.866 301.54C121.605 297.071 127.069 291.876 131.44 287.389C137.45 281.219 144.708 282.731 150.618 276.466C157.397 269.278 163.968 260.459 161.841 253.774C160.838 248.859 154.331 252.032 150.254 253.99C138.403 259.68 133.278 278.914 128.702 279.879C124.126 280.843 128.899 265.985 131.951 257.848C135.036 249.625 140.982 247.121 144.121 238.919C147.282 230.654 149.534 225.193 147.72 216.533C146.625 211.304 145.509 206.06 140.308 205.025C135.571 204.08 132.788 208.081 130.13 212.131C119.019 229.055 124.151 256.512 119.793 262.965C115.436 269.418 118.226 246.456 112.7 237.942C109.569 233.12 105.786 225.986 101.389 228.502C96.1443 231.32 95.2013 241.329 97.3745 249.308C99.7145 257.9 111.604 257.562 112.461 266.425C112.989 271.89 110.11 275.824 105.353 278.565C100.693 281.25 95.9686 275.525 91.5728 278.623C89.2561 280.256 88.2543 282.748 89.1017 285.452C92.1896 295.31 109.991 291.2 110.698 300.755C111.356 309.437 93.7633 307.159 93.2768 316.242C92.6895 327.176 104.492 329.217 112.129 337.093C116.072 341.159 120.12 346.042 122.589 347.154C125.058 348.267 121.585 343.704 122.006 341.542Z" fill="#D9D3FD"/>
<path fill-rule="evenodd" clip-rule="evenodd" d="M108.377 358.235C106.135 351.615 106.104 347.109 107.823 340.334C110.118 331.293 117.543 328.723 119.864 319.689C120.756 316.218 122.094 313.117 119.635 310.511C117.458 308.204 114.237 308.174 111.536 309.836C105.098 313.799 109.389 322.225 104.278 327.796C101.588 330.727 98.0064 334.286 95.1893 332.412C92.1639 330.414 93.7354 325.186 94.8732 320.796C96.438 314.759 101.545 313.105 103.012 307.044C104.696 300.091 105.662 292.188 101.926 288.746C99.5311 286.016 96.5784 290.347 94.717 293.042C89.3069 300.873 92.9873 314.807 90.4562 317.056C87.925 319.305 85.5931 308.249 84.5923 302.036C83.5807 295.759 86.4216 292.05 85.451 285.765C84.473 279.434 83.9287 275.192 79.68 270.397C77.1151 267.502 74.5313 264.605 70.8888 265.821C67.5715 266.927 67.2576 270.441 67.0392 273.942C66.1267 288.571 79.2079 303.996 78.7836 309.618C78.3593 315.24 71.8733 299.799 65.3424 296.429C61.6431 294.52 56.7038 291.391 54.8419 294.552C52.555 298.206 55.5547 304.838 59.7847 309.076C64.3399 313.639 71.6952 309.159 75.4147 314.425C77.7082 317.672 77.31 321.179 75.3022 324.61C73.3354 327.97 68.31 326.066 66.6576 329.592C65.7869 331.451 66.0514 333.377 67.555 334.774C73.0344 339.864 82.7534 330.89 86.6273 336.646C90.157 341.869 78.2767 346.75 81.2309 352.637C84.7858 359.723 92.9405 356.77 100.569 358.982C104.508 360.124 108.806 361.741 110.758 361.555C112.71 361.368 108.888 359.745 108.377 358.235Z" fill="#9B8FEB"/>
<path fill-rule="evenodd" clip-rule="evenodd" d="M65.651 347.723C69.9861 352.065 73.132 353.835 78.5731 356.647C83.8963 359.404 91.6785 363.902 94.9387 363.95C95.6995 363.959 96.221 363.724 96.3998 363.154C96.4291 363.065 96.4468 362.973 96.4526 362.879C96.7471 359.743 86.7957 352.288 82.3375 344.724C78.9112 338.914 78.2757 334.344 75.8114 329.025C75.2006 327.737 74.5206 326.482 73.7743 325.267C71.2497 321.165 69.9688 318.31 65.8766 315.783C62.6697 313.816 60.0873 312.527 56.4825 313.607C53.7021 314.433 52.1131 316.164 51.3551 318.959C50.2015 323.132 51.7487 325.979 53.4883 329.66C53.7247 330.157 53.9723 330.668 54.2059 331.213C57.3947 338.375 60.0938 342.185 65.651 347.723Z" fill="#ECE9FE"/>
<path d="M81.0495 353.809C85.4304 357.517 90.072 360.906 94.9386 363.95C97.5718 365.604 100.269 367.202 103.188 368.923C103.342 369.014 103.521 369.056 103.7 369.04C103.879 369.025 104.048 368.954 104.184 368.837C104.251 368.773 104.312 368.704 104.366 368.63C104.476 368.434 104.505 368.202 104.448 367.985C104.391 367.768 104.252 367.581 104.06 367.464C101.375 365.878 98.8887 364.389 96.4522 362.88C91.434 359.784 86.6545 356.317 82.1538 352.508C76.9743 348.141 74.0754 345.467 69.8895 339.829C69.4534 339.235 69.0286 338.654 68.6391 338.087C65.5455 333.601 63.8127 329.801 61.6856 325.118C61.6401 325.016 61.5748 324.924 61.4934 324.848C61.412 324.772 61.3162 324.712 61.2115 324.674C61.1069 324.635 60.9956 324.617 60.8841 324.622C60.7726 324.627 60.6631 324.653 60.5622 324.701C60.459 324.745 60.366 324.81 60.2886 324.891C60.2112 324.972 60.1512 325.068 60.1122 325.173C60.0732 325.278 60.0559 325.39 60.0616 325.502C60.0672 325.614 60.0956 325.724 60.145 325.824C62.2412 330.42 63.9512 334.196 66.9289 338.602C67.4425 339.367 67.9741 340.12 68.5232 340.86C72.6195 346.372 75.571 349.182 81.0495 353.809Z" fill="white"/>
<path style="mix-blend-mode:overlay" fill-rule="evenodd" clip-rule="evenodd" d="M65.651 347.724C69.9861 352.065 73.132 353.835 78.5731 356.647C83.8963 359.404 91.6785 363.902 94.9387 363.95C97.572 365.605 100.269 367.203 103.188 368.923C103.342 369.015 103.521 369.056 103.7 369.04C103.879 369.025 104.048 368.954 104.184 368.837C104.251 368.774 104.312 368.704 104.366 368.63C104.476 368.434 104.505 368.203 104.448 367.985C104.391 367.768 104.252 367.581 104.06 367.464C101.375 365.879 98.8888 364.39 96.4524 362.88C96.7471 359.743 86.7957 352.289 82.3375 344.725C78.9112 338.914 78.2757 334.344 75.8114 329.025C75.0301 329.608 74.4267 330.397 74.069 331.303C72.6009 334.866 70.7522 337.101 68.6392 338.087C68.1032 338.356 67.5245 338.531 66.929 338.602C63.076 339.172 58.4616 336.082 53.4883 329.66C53.7247 330.157 53.9724 330.668 54.2059 331.213C57.3948 338.376 60.0938 342.185 65.651 347.724Z" fill="url(#paint0_linear_1099_7242)"/>
<path fill-rule="evenodd" clip-rule="evenodd" d="M88.8575 317.493C90.251 324.488 92.1532 328.229 95.6027 334.458C98.9742 340.557 103.602 349.926 106.724 352.075C107.454 352.574 108.11 352.683 108.651 352.248C108.736 352.181 108.813 352.103 108.879 352.016C111.186 349.172 106.367 335.544 106.932 325.352C107.365 317.522 109.697 312.692 110.743 305.958C110.983 304.318 111.135 302.666 111.196 301.009C111.399 295.414 112.001 291.826 109.672 286.743C107.839 282.772 106.172 279.86 101.989 278.58C98.7666 277.586 96.1134 278.235 93.5778 280.45C89.7705 283.743 89.4314 287.495 88.7406 292.177C88.6487 292.811 88.5592 293.464 88.4334 294.142C86.8994 303.127 87.0534 308.552 88.8575 317.493Z" fill="#ECE9FE"/>
<path d="M99.8287 333.31C101.675 339.722 103.979 345.994 106.724 352.076C108.204 355.375 109.782 358.659 111.497 362.206C111.587 362.394 111.734 362.549 111.917 362.65C112.099 362.75 112.309 362.79 112.516 362.765C112.622 362.747 112.725 362.719 112.825 362.682C113.058 362.563 113.236 362.359 113.321 362.112C113.406 361.864 113.392 361.594 113.282 361.357C111.706 358.092 110.262 355.048 108.879 352.016C106.02 345.786 103.633 339.351 101.735 332.764C99.5417 325.2 98.4614 320.744 98.0484 312.591C98.0093 311.735 97.973 310.899 97.962 310.1C97.8621 303.766 98.6371 298.972 99.5988 293.071C99.6205 292.943 99.6165 292.812 99.587 292.686C99.5574 292.559 99.503 292.44 99.4268 292.335C99.3506 292.23 99.2543 292.141 99.1433 292.074C99.0324 292.007 98.9092 291.962 98.7809 291.943C98.6527 291.919 98.5211 291.922 98.3939 291.95C98.2668 291.979 98.1468 292.033 98.0413 292.11C97.9358 292.186 97.8469 292.283 97.7802 292.395C97.7135 292.507 97.6702 292.632 97.6531 292.761C96.7171 298.558 95.9366 303.313 95.9755 309.495C95.9774 310.516 96.0072 311.593 96.0619 312.707C96.4699 320.68 97.5132 325.301 99.8287 333.31Z" fill="white"/>
<path style="mix-blend-mode:overlay" fill-rule="evenodd" clip-rule="evenodd" d="M88.8575 317.493C90.251 324.489 92.1532 328.23 95.6027 334.458C98.9742 340.558 103.602 349.927 106.724 352.076C108.204 355.374 109.782 358.659 111.497 362.205C111.587 362.394 111.734 362.549 111.916 362.649C112.099 362.75 112.309 362.79 112.516 362.765C112.622 362.747 112.725 362.719 112.825 362.682C113.058 362.563 113.235 362.358 113.321 362.111C113.406 361.864 113.392 361.594 113.282 361.357C111.706 358.091 110.261 355.048 108.879 352.016C111.186 349.172 106.367 335.544 106.932 325.353C107.365 317.523 109.697 312.693 110.743 305.959C109.612 306.018 108.52 306.392 107.589 307.038C103.871 309.538 100.642 310.508 97.9622 310.1C97.27 310.014 96.5978 309.809 95.9754 309.495C91.8815 307.561 89.41 301.597 88.7406 292.178C88.6487 292.811 88.5592 293.465 88.4334 294.143C86.8994 303.127 87.0534 308.553 88.8575 317.493Z" fill="url(#paint1_linear_1099_7242)"/>
<path fill-rule="evenodd" clip-rule="evenodd" d="M125.18 305.929C120.473 313.7 119.043 318.85 116.927 327.669C114.849 336.299 111.139 349.081 112.224 353.785C112.481 354.882 113.004 355.549 113.886 355.604C114.024 355.615 114.163 355.608 114.3 355.583C118.914 354.895 126.106 337.947 135.402 328.858C142.543 321.873 148.888 319.341 155.662 313.914C157.298 312.579 158.861 311.157 160.344 309.654C165.347 304.571 168.998 301.718 171.182 294.939C172.874 289.632 173.812 285.462 170.983 280.662C168.811 276.957 165.759 275.286 161.472 275.186C155.063 275.005 151.518 278.239 146.842 282.043C146.211 282.559 145.565 283.097 144.863 283.626C135.695 290.747 131.174 295.977 125.18 305.929Z" fill="#ECE9FE"/>
<path d="M121.885 330.224C118.105 337.836 114.876 345.71 112.224 353.785C110.778 358.157 109.436 362.601 107.997 367.407C107.919 367.661 107.924 367.934 108.009 368.185C108.095 368.437 108.257 368.655 108.474 368.809C108.588 368.883 108.709 368.945 108.835 368.997C109.156 369.085 109.499 369.046 109.791 368.887C110.084 368.728 110.303 368.462 110.404 368.144C111.732 363.721 112.992 359.62 114.3 355.582C116.972 347.271 120.264 339.171 124.146 331.351C128.591 322.357 131.408 317.242 138.031 309.226C138.731 308.389 139.416 307.573 140.093 306.812C145.446 300.775 150.297 296.938 156.276 292.22C156.406 292.119 156.515 291.992 156.596 291.848C156.677 291.704 156.728 291.545 156.747 291.381C156.766 291.217 156.752 291.051 156.705 290.892C156.659 290.733 156.581 290.586 156.477 290.457C156.378 290.325 156.252 290.214 156.108 290.131C155.964 290.049 155.804 289.997 155.639 289.978C155.474 289.959 155.307 289.974 155.148 290.021C154.989 290.069 154.842 290.149 154.715 290.256C148.849 294.897 144.027 298.693 138.747 304.535C137.829 305.545 136.935 306.576 136.065 307.627C129.591 315.469 126.597 320.708 121.885 330.224Z" fill="white"/>
<path style="mix-blend-mode:overlay" fill-rule="evenodd" clip-rule="evenodd" d="M125.18 305.928C120.473 313.699 119.043 318.849 116.927 327.668C114.849 336.298 111.139 349.08 112.224 353.785C110.778 358.157 109.436 362.6 107.997 367.407C107.919 367.661 107.924 367.933 108.009 368.185C108.095 368.436 108.257 368.655 108.474 368.809C108.588 368.882 108.709 368.945 108.835 368.996C109.156 369.085 109.499 369.046 109.791 368.887C110.084 368.728 110.303 368.462 110.404 368.144C111.732 363.721 112.992 359.62 114.3 355.582C118.914 354.894 126.107 337.946 135.402 328.857C142.543 321.873 148.888 319.34 155.662 313.913C154.548 312.996 153.2 312.408 151.77 312.215C146.128 311.366 142.26 309.5 140.093 306.811C139.516 306.136 139.06 305.366 138.746 304.535C136.563 299.197 139.371 291.468 146.842 282.043C146.211 282.559 145.565 283.096 144.864 283.625C135.696 290.747 131.174 295.977 125.18 305.928Z" fill="url(#paint2_linear_1099_7242)"/>
<path d="M299.047 114.294C299.047 120.716 296.499 126.875 291.962 131.419C287.424 135.963 281.269 138.521 274.848 138.53C274.675 138.536 274.502 138.524 274.332 138.493C268.428 138.408 262.77 136.119 258.469 132.075C258.027 131.707 257.62 131.299 257.252 130.857C257.085 130.716 256.936 130.555 256.809 130.378C254.469 127.776 252.731 124.69 251.719 121.34C251.038 119.053 250.69 116.68 250.686 114.294C250.686 100.904 261.494 90.0215 274.848 90.0215C280.677 90.0601 286.298 92.1884 290.692 96.0197C295.085 99.8509 297.958 105.131 298.789 110.901C298.968 112.023 299.054 113.158 299.047 114.294V114.294Z" fill="#ECE9FE"/>
<path fill-rule="evenodd" clip-rule="evenodd" d="M273.299 112.044C273.307 112.05 273.314 112.059 273.319 112.068C273.324 112.078 273.326 112.089 273.326 112.099C273.326 112.11 273.324 112.121 273.319 112.13C273.314 112.14 273.307 112.148 273.299 112.155C273.262 112.708 273.225 113.298 273.188 113.925C273.151 115.143 273.114 116.213 273.003 117.209C272.966 117.693 272.892 118.174 272.782 118.647C272.559 119.604 272.199 120.524 271.712 121.377C271.646 121.516 271.572 121.652 271.491 121.783C268.761 126.578 266.068 129.345 260.867 131.484C260.056 131.817 259.207 132.185 258.469 132.075C258.075 132.057 257.704 131.885 257.436 131.595C257.317 131.468 257.206 131.332 257.104 131.189V131.152C256.943 130.923 256.841 130.657 256.809 130.378C256.625 129.234 257.215 127.98 257.436 126.578C257.953 123.517 259.428 122.115 259.982 119.09C260.277 117.43 259.797 116.323 259.982 114.811C260.019 114.626 260.056 114.405 260.092 114.221C260.461 112.708 260.719 111.786 261.715 110.532C262.416 109.683 263.486 109.794 264.003 108.835C264.074 108.722 264.124 108.597 264.15 108.466V108.429C264.445 107.322 263.449 106.179 264.261 105.146C264.519 104.851 264.814 104.962 265.183 104.888C266.216 104.592 266.917 104.076 267.802 103.892C268.222 103.773 268.663 103.748 269.093 103.818C270.495 104.002 271.454 104.445 272.266 105.662C272.378 105.826 272.477 105.999 272.561 106.179C273.631 108.097 273.52 109.905 273.299 112.044Z" fill="black"/>
<path fill-rule="evenodd" clip-rule="evenodd" d="M292.481 138.088C292.481 139.637 284.144 140.486 275.512 140.559C266.326 140.596 256.846 139.785 256.846 138.125L256.735 131.964C256.843 131.699 256.966 131.44 257.104 131.19V131.153C257.138 131.047 257.188 130.948 257.252 130.858C260.092 124.328 263.523 120.529 267.47 119.459C267.839 119.385 268.245 119.275 268.613 119.201C268.909 119.164 269.167 119.09 269.388 119.053C270.512 118.861 271.644 118.726 272.782 118.648C274.27 118.575 275.762 118.612 277.246 118.758C278.225 118.823 279.199 118.959 280.16 119.164C280.458 119.195 280.753 119.244 281.045 119.312C282.837 119.759 284.511 120.589 285.951 121.746C288.054 123.369 289.898 125.73 291.411 128.792C291.71 129.331 291.981 129.885 292.222 130.452L292.259 131.116L292.481 138.088Z" fill="#2916A1"/>
<path fill-rule="evenodd" clip-rule="evenodd" d="M268.626 119.202C271.965 123.565 275.823 123.543 280.2 119.137C277.433 118.617 276.57 116.316 277.613 112.233L270.948 111.984C272.789 116.29 272.015 118.696 268.626 119.202Z" fill="#6E63B7"/>
<path fill-rule="evenodd" clip-rule="evenodd" d="M268.797 101.66C266.785 104.769 267.171 109.054 269.954 114.515C272.582 118.209 275.465 118.448 278.603 115.233C281.863 109.739 282.906 105.133 281.732 101.415L268.797 101.66Z" fill="#857DBB"/>
<path fill-rule="evenodd" clip-rule="evenodd" d="M273.605 106.206C274.688 106.093 275.301 106.062 276.379 105.911C277.91 105.697 279.72 103.464 280.282 105.235C281.456 107.699 277.847 110.829 277.395 114.642C277.156 116.656 276.662 118.097 277.716 119.829C278.726 121.489 280.696 120.936 281.989 122.387C283.374 123.94 283.385 125.325 284.187 127.246C285.064 129.35 283.947 132.934 286.274 132.7C289.417 132.62 291.917 128.435 293.734 124.513C294.365 123.151 294.769 122.098 294.227 120.697C292.927 117.344 288.093 118.222 287.197 114.739C286.466 111.893 290.107 110.634 289.88 107.704C289.643 104.636 287.326 103.619 285.971 100.856C285.593 100.084 285.637 99.5143 285.128 98.8214C284.499 97.9649 283.916 97.6764 283.041 97.0733C281.587 96.0715 280.672 95.6549 279.092 94.8662C277.2 93.9216 276.241 92.4701 274.135 92.6748C271.614 92.9196 270.463 94.4695 268.815 96.3936C268.397 96.8818 268.486 97.3658 268.09 97.872C267.384 98.777 266.607 98.9129 265.84 99.7678C264.604 101.146 263.553 101.889 263.194 103.706C262.831 105.545 263.243 106.774 264.153 108.413C264.295 108.667 264.573 108.661 264.696 108.925C265.531 110.725 264.278 112.144 264.974 114.002C265.698 115.938 267.156 119.107 268.227 118.181C269.304 117.252 268.225 113.222 269.241 110.287C269.818 108.622 270.072 107.358 271.559 106.412C272.236 105.982 272.807 106.288 273.605 106.206Z" fill="black"/>
<path d="M314.688 102.047H348.773V107.174H314.688V102.047ZM314.798 112.081H378.136V117.208H314.798V112.081Z" fill="#D9D3FD"/>
<path d="M374.042 132.849L375.886 137.681L371.423 134.583L366.922 137.681L368.803 132.849L367.623 132.111L364.118 129.935L369.799 130.045L371.423 125.103L372.492 128.459V128.496L373.009 130.045L378.69 129.935L374.042 132.849Z" fill="#B1A6FA"/>
<path style="mix-blend-mode:overlay" fill-rule="evenodd" clip-rule="evenodd" d="M292.259 131.116L292.481 138.088C292.481 139.637 284.144 140.486 275.512 140.559C266.326 140.596 256.846 139.785 256.846 138.125L256.735 131.964C256.843 131.699 256.966 131.44 257.104 131.19V131.153C256.943 130.923 256.841 130.657 256.809 130.378C254.469 127.776 252.731 124.69 251.719 121.341C252.423 120.1 253.319 118.98 254.375 118.02C255.998 116.545 257.916 115.549 259.982 114.811C261.555 114.259 263.171 113.84 264.814 113.557C265.589 113.409 266.326 113.262 267.101 113.151C267.655 113.077 268.245 112.967 268.798 112.893C268.946 112.893 269.056 112.856 269.167 112.856L271.159 112.524C271.878 112.44 272.593 112.317 273.299 112.155C273.449 112.149 273.597 112.124 273.741 112.081C275.469 111.771 277.162 111.289 278.795 110.643C279.362 110.415 279.916 110.156 280.455 109.868C280.775 109.705 281.083 109.521 281.377 109.315C283.93 107.797 286.012 105.601 287.39 102.97C288.169 101.567 288.717 100.047 289.013 98.4695C289.24 97.2661 289.302 96.0375 289.198 94.8174C291.801 96.7104 293.993 99.1117 295.642 101.876C297.29 104.641 298.361 107.711 298.789 110.901C298.968 112.023 299.054 113.158 299.047 114.295C299.064 120.572 296.629 126.608 292.26 131.116L292.259 131.116Z" fill="url(#paint3_linear_1099_7242)"/>
<path style="mix-blend-mode:overlay" fill-rule="evenodd" clip-rule="evenodd" d="M292.259 131.115L292.48 138.087C292.48 139.637 284.143 140.485 275.512 140.559L275.475 140.522C275.014 139.927 274.642 139.268 274.368 138.567C274.368 138.53 274.331 138.53 274.331 138.493C273.815 137.202 273.446 135.763 273.593 134.361C273.741 132.96 274.516 131.521 275.77 130.82C276.508 130.377 277.393 130.23 278.278 130.045C280.411 129.483 282.407 128.491 284.143 127.131C284.402 126.947 284.66 126.726 284.918 126.504C285.393 126.156 285.763 125.684 285.988 125.139C286.209 124.586 286.172 123.959 286.136 123.369C286.099 122.852 286.025 122.299 285.951 121.745C285.834 120.828 285.52 119.947 285.029 119.163C284.402 118.278 283.48 117.577 283.074 116.581C282.742 115.843 282.742 114.995 282.742 114.183C282.742 113.335 282.742 112.486 283.074 111.749C283.435 111.039 283.967 110.43 284.623 109.978C286.155 108.881 287.978 108.265 289.861 108.207C290.155 108.177 290.451 108.164 290.747 108.171C292.919 108.246 295.048 108.8 296.981 109.794C297.614 110.11 298.219 110.48 298.789 110.9C298.967 112.022 299.054 113.158 299.047 114.294C299.064 120.572 296.628 126.607 292.259 131.115H292.259Z" fill="url(#paint4_linear_1099_7242)"/>
<path style="mix-blend-mode:overlay" fill-rule="evenodd" clip-rule="evenodd" d="M339.514 107.174C340.105 105.534 340.283 103.772 340.03 102.047H348.773V107.174H339.514Z" fill="url(#paint5_linear_1099_7242)"/>
<path style="mix-blend-mode:overlay" fill-rule="evenodd" clip-rule="evenodd" d="M378.136 112.081V117.209H314.798V116.213C315.962 115.45 317.289 114.97 318.671 114.811C321.069 114.516 323.504 114.958 325.902 114.958C329.369 115.032 332.984 114.11 335.751 112.081H378.136Z" fill="url(#paint6_linear_1099_7242)"/>
<path style="mix-blend-mode:overlay" fill-rule="evenodd" clip-rule="evenodd" d="M374.042 132.849L375.886 137.681L371.423 134.583L366.922 137.681L368.804 132.849L367.623 132.111C367.843 131.874 368.091 131.663 368.361 131.484C369.32 130.857 370.611 130.857 371.533 130.119C372.041 129.714 372.382 129.136 372.492 128.496L373.009 130.045L378.69 129.935L374.042 132.849Z" fill="url(#paint7_linear_1099_7242)"/>
<path d="M319.926 185.638L311.109 207.697L299.932 235.622C298.789 238.462 295.395 240.749 292.333 240.749H208.301C205.239 240.749 203.284 235.364 204.427 232.56L204.649 232.007L221.544 193.163L224.79 185.637C224.903 185.356 225.038 185.085 225.196 184.826L225.306 184.605C226.782 182.244 229.696 180.51 232.389 180.51L263.265 179.108L295.801 177.633L317.602 176.637H317.712C318.524 176.637 319.151 177.079 319.594 177.78C319.903 178.268 320.127 178.804 320.258 179.366C320.774 181.395 320.553 184.051 319.926 185.638Z" fill="#857DBB"/>
<path d="M320.258 179.366C320.356 180.132 320.241 180.911 319.926 181.616L299.932 231.601C298.789 234.441 295.395 236.728 292.333 236.728H208.3C205.386 236.728 203.8 234.662 204.648 232.006C204.681 231.866 204.731 231.729 204.796 231.601L219.957 193.716L224.79 181.616C225.933 178.776 229.327 176.489 232.389 176.489H316.458C316.845 176.478 317.231 176.528 317.602 176.636C318.385 176.755 319.096 177.163 319.594 177.78C319.969 178.23 320.2 178.783 320.258 179.366Z" fill="#B1A6FA"/>
<path d="M292.046 234.111H210.668C207.79 234.111 206.318 231.961 207.38 229.308L225.556 183.895C226.618 181.242 229.812 179.091 232.69 179.091H314.067C316.945 179.091 318.417 181.242 317.355 183.895L299.179 229.307C298.117 231.961 294.923 234.111 292.046 234.111Z" fill="white"/>
<path d="M243.659 210.621H223.859C222.936 210.621 222.464 209.931 222.804 209.08L231.13 188.279C231.334 187.837 231.655 187.46 232.058 187.188C232.462 186.916 232.932 186.761 233.418 186.738H253.218C254.141 186.738 254.613 187.428 254.273 188.279L245.947 209.08C245.743 209.522 245.422 209.899 245.019 210.171C244.615 210.443 244.145 210.598 243.659 210.621ZM272.802 190.649H260.845L261.77 188.338H273.727L272.802 190.649ZM270.988 195.183H259.031L259.956 192.872H271.913L270.988 195.183ZM303.694 199.717H257.216L258.141 197.405H304.619L303.694 199.717ZM298.023 204.25H255.401L256.327 201.939H298.948L298.023 204.25ZM242.984 227.807C256.405 215.717 257.026 220.429 258.623 223.184C260.22 225.94 270.54 222.562 275.096 216.962C279.652 211.362 285.115 211.924 284.484 218.562C283.806 225.68 292.551 218.401 294.419 220.482C296.286 222.562 294.283 227.807 294.283 227.807H242.984Z" fill="#ECE9FE"/>
<path d="M294.283 227.807C292.074 221.762 288.358 223.095 285.368 224.784C282.378 226.473 281.709 216.339 276.074 219.095C270.439 221.851 265.482 227.007 264.252 221.406C263.022 215.806 259.303 220.04 256.105 223.212C252.907 226.385 247.918 221.503 242.984 227.807H294.283Z" fill="#C5BCFB"/>
<path style="mix-blend-mode:overlay" d="M319.926 185.637L311.109 207.696L299.932 235.621C298.789 238.462 295.395 240.749 292.333 240.749H208.301C205.239 240.749 203.284 235.363 204.427 232.56L204.649 232.006C204.681 231.866 204.731 231.729 204.796 231.601L219.957 193.716C220.474 193.498 221.004 193.314 221.544 193.162C221.663 193.104 221.786 193.054 221.912 193.015C223.567 192.457 225.272 192.061 227.003 191.834C237.516 190.322 247.698 195.08 258.137 197.441C260.887 198.09 263.69 198.485 266.511 198.622C269.942 198.769 273.409 198.438 276.803 197.884C277.762 197.737 278.721 197.589 279.68 197.404C283.627 196.667 287.501 195.523 291.005 193.568C292.776 192.572 294.473 191.318 295.469 189.584C296.575 187.666 296.76 185.342 296.76 183.165C296.718 181.795 296.52 180.433 296.169 179.107C296.059 178.628 295.948 178.112 295.801 177.632C295.727 177.263 295.616 176.857 295.543 176.489H316.459C316.845 176.478 317.231 176.528 317.602 176.636H317.712C318.524 176.636 319.151 177.079 319.594 177.78C319.969 178.23 320.2 178.783 320.258 179.366C320.774 181.395 320.553 184.051 319.926 185.637Z" fill="url(#paint8_linear_1099_7242)"/>
<path style="mix-blend-mode:overlay" d="M311.109 207.696L299.932 235.621C298.789 238.461 295.395 240.749 292.333 240.749H230.397C230.793 239.343 231.363 237.992 232.094 236.728C232.569 235.842 233.125 235.003 233.754 234.219L233.864 234.109C236.262 231.121 239.508 229.092 243.123 227.801C246.702 226.509 250.649 225.883 254.448 225.772C257.178 225.661 259.945 225.772 262.674 225.329C264.564 225.007 266.392 224.397 268.097 223.522C271.357 221.928 274.123 219.48 276.102 216.439C276.369 216.034 276.616 215.615 276.84 215.185C277.725 213.635 278.463 211.975 279.496 210.5C281.495 207.667 284.295 205.496 287.537 204.265C291.039 202.835 294.853 202.339 298.604 202.827C298.74 202.821 298.877 202.833 299.01 202.864C302.327 203.369 305.526 204.469 308.453 206.11C308.933 206.368 309.376 206.626 309.818 206.885C310.261 207.143 310.704 207.438 311.109 207.696Z" fill="url(#paint9_linear_1099_7242)"/>
<path d="M407.463 192.129V204.081C407.463 207.401 402.704 210.057 396.876 210.057H375.775C373.895 210.069 372.025 209.77 370.242 209.172C367.217 208.139 365.225 206.258 365.225 204.081V192.129C365.225 188.846 369.947 186.153 375.775 186.153H396.876C402.704 186.153 407.463 188.846 407.463 192.129Z" fill="#CDC7F5"/>
<path d="M396.331 205.217C392.184 203.149 389.42 199.972 389.42 196.278C389.42 192.038 396.331 191.449 396.331 195.69C396.331 191.449 403.242 192.037 403.242 196.278C403.242 199.972 400.478 203.15 396.331 205.217Z" fill="white"/>
<path d="M370.719 192.11H380.205V193.988H370.719V192.11ZM370.719 196.235H384.7V198.113H370.719V196.235Z" fill="#9B8FEB"/>
<path style="mix-blend-mode:overlay" d="M407.463 192.129V204.081C407.463 207.401 402.704 210.057 396.876 210.057H375.775C369.947 210.057 365.225 207.401 365.225 204.081V194.785C368.25 192.314 372.492 191.355 376.366 192.055C378.874 192.498 381.235 193.531 383.707 194.084C386.215 194.675 388.982 194.711 391.121 193.31C392.06 192.666 392.808 191.782 393.288 190.751C393.769 189.719 393.963 188.577 393.851 187.444C393.81 187.003 393.71 186.569 393.556 186.153H396.876C402.704 186.153 407.463 188.846 407.463 192.129Z" fill="url(#paint10_linear_1099_7242)"/>
<path style="mix-blend-mode:overlay" d="M407.463 203.602V204.082C407.463 207.402 402.704 210.058 396.876 210.058H375.775C373.895 210.07 372.025 209.771 370.242 209.172C371.032 207.984 372.203 207.099 373.562 206.664C375.369 206.037 377.288 206.037 379.206 205.963C381.124 205.889 383.079 205.742 384.813 204.894C388.133 203.271 390.088 199.25 393.666 198.401C394.625 198.18 395.585 198.217 396.544 198.253C398.61 198.364 400.675 198.696 402.52 199.545C404.512 200.43 406.135 201.906 407.463 203.602V203.602Z" fill="url(#paint11_linear_1099_7242)"/>
<path d="M358.72 256.707V268.659C358.72 271.943 353.998 274.635 348.17 274.635H327.069C322.938 274.635 319.359 273.271 317.663 271.316C316.925 270.504 316.519 269.618 316.519 268.659V256.707C316.519 253.424 321.241 250.731 327.069 250.731H348.17C353.998 250.731 358.72 253.424 358.72 256.707Z" fill="#CDC7F5"/>
<path d="M356.011 262.499C356.011 266.003 352.174 268.844 347.489 268.844C346.272 268.846 345.063 268.647 343.911 268.254L338.636 270.246L340.444 266.077C339.492 265.127 338.95 263.843 338.931 262.499C338.931 258.994 342.768 256.154 347.489 256.154C352.174 256.154 356.011 258.994 356.011 262.499Z" fill="white"/>
<path d="M321.383 256.681H330.869V258.558H321.383V256.681ZM321.383 260.806H335.364V262.683H321.383V260.806Z" fill="#9B8FEB"/>
<path d="M345.214 262.572C345.214 262.72 345.17 262.865 345.087 262.989C345.005 263.112 344.888 263.208 344.751 263.265C344.613 263.322 344.463 263.337 344.317 263.308C344.171 263.279 344.038 263.208 343.933 263.103C343.828 262.998 343.756 262.864 343.727 262.718C343.698 262.573 343.713 262.422 343.77 262.285C343.826 262.148 343.923 262.03 344.046 261.948C344.169 261.865 344.314 261.821 344.463 261.821C344.561 261.821 344.659 261.841 344.75 261.878C344.841 261.916 344.924 261.971 344.994 262.041C345.063 262.111 345.119 262.193 345.156 262.285C345.194 262.376 345.214 262.473 345.214 262.572Z" fill="#CDC7F5"/>
<path d="M347.588 263.322C348.002 263.322 348.338 262.986 348.338 262.572C348.338 262.157 348.002 261.821 347.588 261.821C347.173 261.821 346.837 262.157 346.837 262.572C346.837 262.986 347.173 263.322 347.588 263.322Z" fill="#CDC7F5"/>
<path d="M351.463 262.572C351.463 262.72 351.419 262.865 351.337 262.989C351.254 263.112 351.137 263.208 351 263.265C350.863 263.322 350.712 263.337 350.566 263.308C350.421 263.279 350.287 263.208 350.182 263.103C350.077 262.998 350.005 262.864 349.976 262.718C349.947 262.573 349.962 262.422 350.019 262.285C350.076 262.148 350.172 262.03 350.295 261.948C350.419 261.865 350.564 261.821 350.712 261.821C350.811 261.821 350.908 261.841 350.999 261.878C351.091 261.916 351.173 261.971 351.243 262.041C351.313 262.111 351.368 262.193 351.406 262.285C351.443 262.376 351.463 262.473 351.463 262.572Z" fill="#CDC7F5"/>
<path style="mix-blend-mode:overlay" d="M358.719 256.707V268.659C358.719 271.943 353.998 274.635 348.169 274.635H327.069C321.24 274.635 316.519 271.943 316.519 268.659V260.876C317.404 259.658 318.535 258.641 319.838 257.888C324.228 255.343 329.983 256.302 334.336 258.884C335.443 259.511 336.512 260.249 337.656 260.765C340.46 261.909 343.669 261.503 346.509 260.507C346.952 260.36 347.432 260.175 347.69 259.769C347.89 259.384 347.967 258.946 347.911 258.515C347.791 256.529 347.183 254.603 346.14 252.908C345.662 252.128 345.106 251.399 344.48 250.731H348.169C353.998 250.731 358.719 253.424 358.719 256.707Z" fill="url(#paint12_linear_1099_7242)"/>
<path style="mix-blend-mode:overlay" d="M358.72 256.707V268.659C358.72 271.943 353.998 274.635 348.169 274.635H327.069C322.938 274.635 319.359 273.271 317.663 271.316C318.221 270.138 319.026 269.094 320.023 268.254C322.2 266.409 325.335 265.708 328.028 266.594C330.537 267.368 332.492 269.36 334.89 270.43C336.203 271.022 337.624 271.338 339.065 271.357C340.506 271.376 341.935 271.098 343.263 270.541C344.776 269.914 346.251 268.659 346.141 267.037C346.03 265.782 344.96 264.823 343.927 264.049C342.457 262.931 340.917 261.908 339.316 260.987C338.357 260.433 337.398 259.917 336.586 259.179C335.578 258.225 334.896 256.977 334.638 255.612C334.38 254.248 334.558 252.837 335.148 251.58C335.298 251.284 335.471 251.001 335.664 250.731H348.169C353.998 250.731 358.72 253.424 358.72 256.707Z" fill="url(#paint13_linear_1099_7242)"/>
<path d="M151.641 346.522V372.712C151.644 374.232 151.347 375.738 150.768 377.143C150.189 378.548 149.339 379.826 148.266 380.903C147.193 381.979 145.919 382.834 144.516 383.418C143.112 384.002 141.608 384.304 140.088 384.307H89.2704C87.7504 384.304 86.2458 384.002 84.8425 383.418C83.4392 382.834 82.1647 381.979 81.0918 380.903C80.0189 379.826 79.1686 378.549 78.5895 377.143C78.0104 375.738 77.7139 374.232 77.7168 372.712V346.522C77.7147 345.004 78.012 343.501 78.5919 342.098C79.1718 340.695 80.0227 339.421 81.096 338.348C82.1693 337.274 83.4438 336.423 84.8465 335.844C86.2493 335.264 87.7526 334.967 89.2704 334.969H140.088C141.606 334.967 143.109 335.264 144.512 335.844C145.914 336.424 147.189 337.275 148.262 338.348C149.335 339.421 150.186 340.695 150.766 342.098C151.346 343.501 151.643 345.004 151.641 346.522Z" fill="#371ED7"/>
<path style="mix-blend-mode:overlay" d="M151.641 346.522V372.712C151.644 374.232 151.347 375.738 150.768 377.143C150.189 378.548 149.339 379.826 148.266 380.903C147.193 381.979 145.919 382.834 144.516 383.418C143.112 384.002 141.608 384.304 140.088 384.307H89.2704C87.7504 384.304 86.2458 384.002 84.8425 383.418C83.4392 382.834 82.1647 381.979 81.0918 380.903C80.0189 379.826 79.1686 378.549 78.5895 377.143C78.0104 375.738 77.7139 374.232 77.7168 372.712V355.197C79.3461 354.412 81.0555 353.806 82.8151 353.388C83.3086 353.265 83.802 353.183 84.3365 353.101C90.0924 352.073 96.054 353.059 101.892 353.594C104.432 353.868 106.989 353.937 109.54 353.799C113.405 353.635 117.228 352.813 120.476 350.757C122.447 349.508 124.139 347.867 125.448 345.936C126.756 344.005 127.653 341.825 128.083 339.532C128.355 338.025 128.383 336.485 128.165 334.969H140.088C141.606 334.967 143.109 335.264 144.512 335.844C145.914 336.424 147.189 337.275 148.262 338.348C149.335 339.421 150.186 340.695 150.766 342.098C151.346 343.501 151.643 345.004 151.641 346.522Z" fill="url(#paint14_linear_1099_7242)"/>
<path style="mix-blend-mode:overlay" d="M151.641 356.266V372.712C151.644 374.232 151.347 375.738 150.768 377.143C150.189 378.549 149.339 379.826 148.266 380.903C147.193 381.98 145.919 382.834 144.516 383.418C143.112 384.002 141.608 384.304 140.088 384.307H95.0259C95.766 381.347 98.192 378.921 100.947 377.4C104.154 375.673 107.854 375.015 111.39 374.11C116.077 372.877 121.01 370.986 123.683 366.956C123.807 366.802 123.917 366.637 124.012 366.463C125.369 364.243 125.862 361.611 126.726 359.144C127.062 358.115 127.503 357.124 128.041 356.184C131.248 350.839 138.731 349.071 144.569 351.292C145.382 351.609 146.166 351.994 146.913 352.443C148.69 353.446 150.288 354.739 151.641 356.266Z" fill="url(#paint15_linear_1099_7242)"/>
<path style="mix-blend-mode:overlay" d="M120.764 380.524C119.738 381.919 118.551 383.189 117.228 384.306H89.2699C87.75 384.304 86.2454 384.002 84.8422 383.418C83.4389 382.834 82.1644 381.979 81.0916 380.902C80.0187 379.826 79.1685 378.548 78.5895 377.143C78.0104 375.737 77.7139 374.232 77.7168 372.712V346.522C77.7147 345.004 78.012 343.501 78.5919 342.098C79.1717 340.695 80.0226 339.421 81.0959 338.348C82.1691 337.275 83.4435 336.424 84.8462 335.844C86.2489 335.264 87.7522 334.967 89.2699 334.969H104.482C103.619 337.765 103.495 340.766 103.701 343.685C103.907 345.864 104.277 348.084 105.428 349.935C106.456 351.579 107.936 352.771 109.539 353.799C110.814 354.663 112.13 355.403 113.446 356.143C115.871 357.541 118.297 359.268 120.188 361.323C121.792 362.968 123.025 364.818 123.683 366.956C123.817 367.346 123.927 367.745 124.012 368.148C124.957 372.424 123.436 376.988 120.764 380.524Z" fill="url(#paint16_linear_1099_7242)"/>
<path d="M151.639 346.509V350.862L146.918 352.448L135.298 356.322L126.739 359.162L120.173 361.339L114.677 363.146L90.5518 355.178L84.3545 353.112L77.7141 350.936V346.509C77.7102 344.992 78.0062 343.489 78.5851 342.086C79.164 340.683 80.0143 339.409 81.0873 338.336C82.1602 337.263 83.4347 336.413 84.8373 335.834C86.24 335.255 87.7432 334.959 89.2606 334.963H140.093C141.611 334.959 143.114 335.255 144.517 335.834C145.919 336.413 147.194 337.263 148.266 338.336C149.339 339.409 150.19 340.683 150.769 342.086C151.347 343.489 151.643 344.992 151.639 346.509Z" fill="#B1A6FA"/>
<path style="mix-blend-mode:overlay" d="M135.298 356.322L126.739 359.162L120.173 361.339L114.677 363.146L90.5518 355.178C92.3592 354.035 94.4249 353.26 96.3432 352.264C99.2942 350.788 102.245 348.317 102.393 344.997C102.467 343.521 101.913 342.046 101.213 340.755C100.009 338.474 98.3068 336.495 96.2326 334.963H126.297C126.19 335.084 126.103 335.221 126.039 335.369C124.305 338.763 125.153 343.005 127.035 346.325C128.953 349.608 131.793 352.264 134.302 355.141C134.634 355.547 135.003 355.916 135.298 356.322H135.298Z" fill="url(#paint17_linear_1099_7242)"/>
<path fill-rule="evenodd" clip-rule="evenodd" d="M202.449 105.273C201.55 101.547 198.113 98.7686 194.018 98.7686C189.232 98.7686 185.346 102.558 185.346 107.248V107.264C185.346 108.456 185.604 109.633 186.101 110.717C186.326 111.584 186.615 112.515 186.952 113.495C189.008 119.421 192.669 126.567 193.873 126.519C196.138 126.519 201.871 113.912 202.497 109.063C202.626 108.477 202.691 107.879 202.69 107.28V107.264C202.692 106.593 202.611 105.924 202.449 105.273ZM194.018 111.503C193.776 111.503 193.535 111.487 193.295 111.455C192.229 111.296 191.263 110.737 190.594 109.89C189.926 109.044 189.605 107.975 189.697 106.901C189.789 105.826 190.287 104.827 191.09 104.107C191.893 103.387 192.94 103 194.018 103.024C194.7 103.021 195.373 103.178 195.984 103.482C196.595 103.786 197.126 104.229 197.535 104.775C198.066 105.496 198.353 106.368 198.354 107.264C198.348 107.827 198.23 108.383 198.009 108.901C197.788 109.419 197.467 109.888 197.064 110.282C196.661 110.675 196.185 110.986 195.662 111.196C195.14 111.405 194.581 111.51 194.018 111.503Z" fill="#CDC7F5"/>
<path style="mix-blend-mode:overlay" fill-rule="evenodd" clip-rule="evenodd" d="M202.69 107.264V107.28C202.691 107.879 202.626 108.477 202.497 109.063C201.871 113.912 196.138 126.519 193.873 126.519C192.669 126.567 189.008 119.42 186.952 113.495C188.702 113.125 190.693 113.575 192.203 112.595C192.649 112.303 193.022 111.913 193.295 111.455C193.535 111.487 193.776 111.503 194.018 111.503C194.581 111.51 195.14 111.405 195.662 111.196C196.185 110.986 196.661 110.675 197.064 110.282C197.467 109.888 197.788 109.419 198.009 108.901C198.23 108.383 198.348 107.827 198.354 107.264C198.353 106.368 198.066 105.496 197.535 104.774C198.219 104.556 198.94 104.479 199.655 104.55C200.617 104.652 201.558 104.895 202.449 105.272C202.611 105.924 202.692 106.593 202.69 107.264V107.264Z" fill="url(#paint18_linear_1099_7242)"/>
<path fill-rule="evenodd" clip-rule="evenodd" d="M186.573 303.423C185.392 310.248 183.843 317.294 181.925 324.561C180.044 333.672 174.842 353.862 166.321 385.132C165.768 387.161 165.214 389.3 164.624 391.44H164.218C160.308 391.44 157.911 390.96 157.099 389.927C157.431 388.157 157.763 386.386 158.058 384.615C161.636 364.179 163.37 343.042 163.259 321.204C161.083 297.964 160.444 278.671 161.341 263.325L189.266 263.916C189.93 276.126 189.032 289.295 186.573 303.423Z" fill="#D9D3FD"/>
<path fill-rule="evenodd" clip-rule="evenodd" d="M178.826 393.615C174.547 394.021 169.641 393.948 164.882 393.615C162.263 393.431 159.718 393.173 157.32 392.878C155.513 389.263 155.586 386.385 157.578 384.319C157.73 384.431 157.89 384.53 158.058 384.615C159.829 385.721 161.673 386.127 163.628 385.758C164.469 385.602 165.286 385.341 166.063 384.983C166.144 385.041 166.231 385.09 166.321 385.131C170.452 387.603 181.593 389.484 178.826 393.615Z" fill="#1C0F6C"/>
<path opacity="0.1" fill-rule="evenodd" clip-rule="evenodd" d="M181.925 324.561C180.044 333.672 174.843 353.862 166.321 385.132C170.453 387.603 181.593 389.485 178.826 393.616C174.547 394.022 169.641 393.948 164.882 393.616C164.596 392.912 164.373 392.184 164.218 391.44C163.796 389.576 163.598 387.669 163.628 385.759C163.481 366.54 176.908 329.503 174.252 301.984C174.252 301.984 179.823 302.317 186.573 303.423C185.393 310.248 183.843 317.294 181.925 324.561Z" fill="black"/>
<path fill-rule="evenodd" clip-rule="evenodd" d="M205.94 308.587C205.571 313.53 205.017 318.584 204.317 323.785C203.579 333.413 200.714 355.288 195.721 389.41C195.611 390.332 195.463 391.291 195.316 392.25C193.729 392.312 192.141 392.163 190.594 391.808C189.669 391.653 188.781 391.328 187.975 390.849V389.336C187.975 367.609 187.114 345.402 185.392 322.715C178.937 299.291 175.224 279.924 174.252 264.616L204.243 262.697C206.714 276.457 207.28 291.753 205.94 308.587Z" fill="#D9D3FD"/>
<path fill-rule="evenodd" clip-rule="evenodd" d="M208.854 397.526C203.062 398.301 195.979 398.227 189.782 397.747C188.934 397.71 188.123 397.637 187.348 397.563C185.393 393.984 185.393 391.144 187.311 388.968C187.516 389.118 187.739 389.242 187.975 389.337C188.853 389.868 189.833 390.208 190.852 390.333C192.439 390.554 194.062 390.259 195.721 389.41C195.758 389.41 195.758 389.373 195.795 389.373C199.853 391.771 211.51 393.247 208.854 397.526Z" fill="#1C0F6C"/>
<path opacity="0.1" fill-rule="evenodd" clip-rule="evenodd" d="M208.854 397.526C203.062 398.3 195.98 398.227 189.782 397.747C189.967 395.94 190.262 393.948 190.594 391.808C190.668 391.328 190.778 390.849 190.852 390.332C194.541 369.048 204.796 334.003 198.082 308.697C198.082 308.697 201.255 308.55 205.94 308.587C205.571 313.53 205.017 318.584 204.317 323.785C203.579 333.413 200.714 355.288 195.722 389.41C195.758 389.41 195.758 389.373 195.795 389.373C199.853 391.771 211.51 393.247 208.854 397.526Z" fill="black"/>
<path fill-rule="evenodd" clip-rule="evenodd" d="M258.174 208.176C257.731 208.988 257.289 209.762 256.846 210.537C243.75 233.814 234.27 247.413 228.405 251.336C224.236 252.516 218.223 249.676 210.366 242.925C206.493 239.642 202.214 235.363 197.455 230.162L198.045 221.124L199.152 204.45V204.303C204.944 208.139 212.407 215.554 221.544 226.547C223.167 228.465 224.79 230.494 226.486 232.633L252.936 204.782L258.174 208.176Z" fill="#D9D3FD"/>
<path fill-rule="evenodd" clip-rule="evenodd" d="M252.963 204.814C252.97 202.859 253.357 200.924 254.105 199.118C254.763 197.93 255.599 197.508 256.614 197.853L261.833 192.46C263.875 190.739 265.383 192.817 263.789 194.413L260.177 199.085C261.73 200.269 262.017 202.487 261.039 205.739L257.841 208.306L252.963 204.814Z" fill="#D9D3FD"/>
<path fill-rule="evenodd" clip-rule="evenodd" d="M211.547 321.092C207.563 323.638 203.837 325.297 200.369 326.257C181.335 331.605 168.94 316.85 154.775 317.551C161.784 301.172 151.934 291.95 159.829 275.055L186.979 272.768L205.386 271.219C213.022 280.072 200.295 307.222 211.547 321.092Z" fill="#1C0F6C"/>
<path opacity="0.1" fill-rule="evenodd" clip-rule="evenodd" d="M200.369 326.257C210.957 306.189 201.55 287.561 186.979 272.768L205.387 271.219C213.022 280.072 200.296 307.222 211.547 321.092C207.563 323.638 203.837 325.298 200.369 326.257Z" fill="black"/>
<path fill-rule="evenodd" clip-rule="evenodd" d="M221.544 226.547C220.179 229.609 218.039 233.224 214.83 237.503C213.387 239.347 211.898 241.155 210.366 242.926C207.821 240.786 204.907 238.241 201.845 235.29C203.652 249.75 206.198 261.665 209.444 270.961C202.62 273.949 196.238 276.199 190.335 277.638C190.336 277.643 190.335 277.648 190.333 277.652C190.331 277.657 190.329 277.661 190.325 277.664C190.322 277.668 190.318 277.671 190.313 277.672C190.308 277.674 190.304 277.675 190.299 277.675C176.097 281.179 164.599 280.257 155.808 274.908C170.822 245.139 149.942 226.252 162.042 203.824C174.99 198.991 187.36 199.2 199.152 204.451V204.303C204.944 208.14 212.407 215.554 221.544 226.547Z" fill="#9B8FEB"/>
<mask id="mask0_1099_7242" style="mask-type:luminance" maskUnits="userSpaceOnUse" x="155" y="200" width="67" height="80">
<path fill-rule="evenodd" clip-rule="evenodd" d="M221.544 226.547C212.432 215.554 204.968 208.14 199.152 204.303L199.139 204.451C187.34 199.188 174.98 198.983 162.059 203.837C149.947 226.266 170.828 245.145 155.806 274.919C168.266 282.509 186.146 281.189 209.447 270.958C206.186 261.659 203.651 249.769 201.842 235.287C204.895 238.223 207.839 240.784 210.366 242.926C216.231 236.249 219.625 230.826 221.544 226.547Z" fill="white"/>
</mask>
<g mask="url(#mask0_1099_7242)">
<path d="M163.788 228.878C163.103 228.879 162.426 228.745 161.793 228.484C161.161 228.222 160.586 227.838 160.103 227.354L152.48 219.731C151.504 218.753 150.956 217.428 150.956 216.046C150.956 214.664 151.504 213.339 152.48 212.361L160.103 204.738C161.081 203.762 162.406 203.214 163.788 203.214C165.17 203.214 166.495 203.762 167.473 204.738L175.096 212.361C176.072 213.339 176.62 214.664 176.62 216.046C176.62 217.428 176.072 218.753 175.096 219.731L167.473 227.354C166.989 227.838 166.415 228.222 165.782 228.483C165.15 228.745 164.472 228.879 163.788 228.878ZM163.788 204.889C163.323 204.888 162.864 204.979 162.435 205.156C162.005 205.334 161.616 205.594 161.287 205.923L153.665 213.546C153.002 214.209 152.631 215.108 152.631 216.046C152.631 216.983 153.002 217.883 153.665 218.546L161.287 226.169C161.951 226.831 162.85 227.202 163.788 227.202C164.725 227.202 165.624 226.831 166.288 226.169L173.911 218.546C174.573 217.883 174.945 216.983 174.945 216.046C174.945 215.108 174.573 214.209 173.911 213.546L166.288 205.923C165.96 205.594 165.57 205.334 165.141 205.156C164.712 204.979 164.252 204.888 163.788 204.888V204.889Z" fill="white"/>
<path d="M187.775 205.596L191.587 209.408C191.997 209.818 192.227 210.374 192.227 210.954C192.227 211.534 191.997 212.09 191.587 212.5L187.775 216.312C187.365 216.722 186.809 216.952 186.229 216.952C185.649 216.952 185.093 216.722 184.683 216.312L180.871 212.5C180.461 212.09 180.231 211.534 180.231 210.954C180.231 210.374 180.461 209.818 180.871 209.408L184.683 205.596C185.093 205.186 185.649 204.956 186.229 204.956C186.809 204.956 187.365 205.186 187.775 205.596Z" fill="white"/>
<path d="M183.591 220.621L188.486 225.516C188.747 225.777 188.954 226.087 189.095 226.427C189.236 226.768 189.309 227.133 189.309 227.502C189.309 227.871 189.236 228.236 189.095 228.577C188.954 228.918 188.747 229.227 188.486 229.488L183.591 234.383C183.33 234.644 183.021 234.85 182.68 234.992C182.339 235.133 181.974 235.205 181.605 235.205C181.237 235.205 180.871 235.133 180.531 234.991C180.19 234.85 179.88 234.643 179.62 234.383L174.725 229.488C174.198 228.961 173.902 228.247 173.902 227.502C173.902 226.757 174.198 226.043 174.725 225.516L179.62 220.622C179.881 220.361 180.19 220.154 180.531 220.013C180.872 219.872 181.237 219.799 181.606 219.799C181.974 219.799 182.34 219.872 182.68 220.013C183.021 220.154 183.331 220.361 183.591 220.621Z" fill="white"/>
<path d="M192.425 226.156C192.188 226.156 191.953 226.11 191.734 226.019C191.515 225.929 191.316 225.796 191.149 225.628L189.099 223.578C188.931 223.41 188.798 223.211 188.708 222.993C188.617 222.774 188.57 222.539 188.57 222.302C188.57 222.065 188.617 221.83 188.708 221.611C188.798 221.392 188.931 221.194 189.099 221.026L191.149 218.976C191.488 218.638 191.947 218.448 192.425 218.448C192.903 218.448 193.362 218.637 193.701 218.975L195.751 221.026C195.919 221.194 196.052 221.393 196.143 221.612C196.234 221.831 196.28 222.065 196.28 222.302C196.28 222.54 196.234 222.774 196.143 222.993C196.052 223.212 195.919 223.411 195.751 223.579L193.701 225.628C193.534 225.796 193.335 225.929 193.116 226.019C192.897 226.11 192.662 226.156 192.425 226.156ZM192.037 224.74C192.088 224.791 192.149 224.831 192.215 224.859C192.282 224.886 192.353 224.901 192.425 224.901C192.497 224.901 192.569 224.886 192.635 224.859C192.702 224.831 192.762 224.791 192.813 224.74L194.863 222.689C194.914 222.639 194.954 222.578 194.982 222.512C195.009 222.445 195.024 222.374 195.024 222.302C195.024 222.23 195.009 222.159 194.982 222.092C194.954 222.026 194.914 221.965 194.863 221.915L192.813 219.864C192.71 219.762 192.57 219.704 192.425 219.704C192.28 219.705 192.14 219.762 192.037 219.865L189.988 221.915C189.937 221.965 189.896 222.026 189.868 222.092C189.841 222.158 189.826 222.23 189.826 222.302C189.826 222.374 189.841 222.445 189.868 222.511C189.896 222.578 189.937 222.638 189.988 222.689L192.037 224.74ZM171.353 240.771C171.168 240.772 170.984 240.735 170.813 240.664C170.641 240.593 170.486 240.489 170.355 240.357L168.75 238.753C168.485 238.487 168.337 238.128 168.337 237.754C168.337 237.379 168.485 237.02 168.75 236.754L170.355 235.15C170.625 234.894 170.982 234.751 171.354 234.751C171.726 234.751 172.084 234.894 172.353 235.15L173.958 236.754C174.222 237.02 174.37 237.379 174.37 237.753C174.37 238.128 174.222 238.487 173.958 238.753L172.352 240.357C172.221 240.489 172.066 240.593 171.894 240.664C171.723 240.735 171.539 240.771 171.353 240.771ZM171.353 235.72C171.297 235.72 171.242 235.731 171.19 235.752C171.138 235.774 171.091 235.806 171.051 235.846L169.445 237.45C169.405 237.49 169.374 237.537 169.352 237.589C169.33 237.641 169.319 237.697 169.319 237.754C169.319 237.81 169.33 237.866 169.352 237.918C169.374 237.97 169.405 238.017 169.445 238.057L171.051 239.661C171.133 239.739 171.241 239.782 171.354 239.782C171.466 239.782 171.575 239.739 171.656 239.661L173.262 238.057C173.342 237.976 173.387 237.867 173.387 237.753C173.387 237.639 173.342 237.53 173.261 237.45L171.657 235.845C171.617 235.805 171.57 235.774 171.518 235.752C171.466 235.731 171.41 235.72 171.353 235.72Z" fill="white"/>
<path d="M161.374 230.746L163.424 232.796C163.533 232.905 163.62 233.035 163.679 233.177C163.738 233.32 163.769 233.473 163.769 233.628C163.769 233.782 163.738 233.935 163.679 234.078C163.62 234.221 163.533 234.35 163.424 234.459L161.374 236.509C161.153 236.73 160.854 236.854 160.542 236.854C160.231 236.854 159.931 236.73 159.711 236.51L157.66 234.459C157.44 234.239 157.316 233.94 157.316 233.628C157.316 233.316 157.44 233.017 157.66 232.796L159.711 230.746C159.931 230.525 160.23 230.401 160.542 230.401C160.854 230.401 161.153 230.525 161.374 230.746L161.374 230.746Z" fill="white"/>
<path d="M176.505 208.218C176.245 208.218 175.987 208.168 175.747 208.068C175.507 207.969 175.288 207.823 175.105 207.639L172.748 205.283C172.378 204.911 172.17 204.408 172.17 203.883C172.17 203.358 172.378 202.854 172.748 202.482L175.105 200.127C175.476 199.756 175.98 199.548 176.505 199.548C177.03 199.548 177.533 199.756 177.905 200.127L180.26 202.483C180.631 202.855 180.839 203.358 180.839 203.883C180.839 204.408 180.631 204.911 180.26 205.283L177.905 207.639C177.721 207.823 177.503 207.969 177.262 208.068C177.022 208.168 176.765 208.218 176.505 208.218ZM176.505 200.804C176.41 200.804 176.316 200.822 176.228 200.859C176.14 200.895 176.06 200.948 175.993 201.016L173.637 203.371C173.502 203.507 173.426 203.691 173.426 203.883C173.426 204.075 173.502 204.259 173.637 204.395L175.993 206.75C176.131 206.882 176.314 206.955 176.505 206.955C176.695 206.955 176.878 206.882 177.016 206.75L179.371 204.395C179.507 204.259 179.583 204.075 179.583 203.883C179.583 203.691 179.507 203.507 179.371 203.371L177.016 201.016C176.949 200.948 176.869 200.895 176.782 200.859C176.694 200.822 176.6 200.804 176.505 200.804ZM210.582 228.878C209.898 228.88 209.22 228.746 208.588 228.484C207.955 228.223 207.381 227.839 206.897 227.354L199.274 219.731C198.298 218.753 197.75 217.428 197.75 216.046C197.75 214.665 198.298 213.339 199.274 212.361L206.897 204.738C207.875 203.762 209.2 203.214 210.582 203.214C211.964 203.214 213.289 203.762 214.267 204.738L221.89 212.361C222.866 213.339 223.414 214.665 223.414 216.046C223.414 217.428 222.866 218.753 221.89 219.731L214.267 227.354C213.783 227.838 213.209 228.222 212.577 228.484C211.944 228.746 211.266 228.88 210.582 228.878ZM210.582 204.889C210.118 204.888 209.658 204.979 209.229 205.157C208.8 205.334 208.41 205.595 208.082 205.923L200.459 213.546C199.797 214.21 199.425 215.109 199.425 216.046C199.425 216.984 199.797 217.883 200.459 218.547L208.082 226.17C208.746 226.831 209.645 227.203 210.582 227.203C211.519 227.203 212.419 226.831 213.082 226.17L220.705 218.547C221.367 217.883 221.739 216.984 221.739 216.046C221.739 215.109 221.367 214.21 220.705 213.546L213.082 205.923C212.754 205.595 212.364 205.334 211.935 205.157C211.506 204.979 211.046 204.888 210.582 204.889V204.889Z" fill="white"/>
<path d="M235.281 225.516L230.386 220.621C229.289 219.525 227.511 219.525 226.414 220.621L221.519 225.516C220.423 226.613 220.422 228.391 221.519 229.488L226.414 234.383C227.511 235.48 229.289 235.48 230.386 234.383L235.281 229.488C236.377 228.391 236.377 226.613 235.281 225.516Z" fill="white"/>
<path d="M239.22 226.156C238.983 226.156 238.748 226.11 238.529 226.019C238.31 225.929 238.111 225.796 237.943 225.628L235.894 223.578C235.726 223.41 235.593 223.211 235.502 222.993C235.411 222.774 235.364 222.539 235.364 222.302C235.364 222.065 235.411 221.83 235.502 221.611C235.593 221.392 235.726 221.194 235.894 221.026L237.943 218.976C238.282 218.638 238.741 218.448 239.219 218.448C239.698 218.448 240.157 218.637 240.496 218.975L242.546 221.026C242.713 221.194 242.846 221.393 242.937 221.612C243.028 221.831 243.075 222.065 243.075 222.302C243.075 222.54 243.028 222.774 242.937 222.993C242.846 223.212 242.713 223.411 242.546 223.579L240.496 225.628C240.328 225.796 240.129 225.929 239.91 226.019C239.691 226.11 239.457 226.156 239.22 226.156ZM238.832 224.74C238.883 224.791 238.943 224.831 239.01 224.859C239.076 224.886 239.148 224.901 239.22 224.901C239.292 224.901 239.363 224.886 239.43 224.859C239.496 224.831 239.557 224.791 239.607 224.74L241.657 222.689C241.708 222.639 241.749 222.578 241.776 222.512C241.804 222.445 241.818 222.374 241.818 222.302C241.818 222.23 241.804 222.159 241.776 222.092C241.749 222.026 241.708 221.965 241.657 221.915L239.607 219.864C239.504 219.762 239.365 219.704 239.219 219.704C239.074 219.705 238.935 219.762 238.832 219.865L236.782 221.915C236.731 221.965 236.691 222.026 236.663 222.092C236.635 222.158 236.621 222.23 236.621 222.302C236.621 222.374 236.635 222.445 236.663 222.511C236.691 222.578 236.731 222.638 236.782 222.689L238.832 224.74ZM218.148 240.771C217.962 240.772 217.778 240.735 217.607 240.664C217.436 240.593 217.28 240.489 217.149 240.357L215.544 238.753C215.28 238.487 215.131 238.128 215.131 237.754C215.131 237.379 215.28 237.02 215.544 236.754L217.149 235.15C217.419 234.894 217.777 234.751 218.148 234.751C218.52 234.751 218.878 234.894 219.147 235.15L220.752 236.754C221.016 237.02 221.164 237.379 221.164 237.753C221.165 238.128 221.017 238.487 220.753 238.753L219.147 240.357C219.016 240.489 218.86 240.593 218.689 240.664C218.517 240.735 218.333 240.771 218.148 240.771H218.148ZM218.148 235.72C218.092 235.72 218.036 235.731 217.984 235.752C217.932 235.774 217.885 235.806 217.846 235.846L216.24 237.45C216.2 237.49 216.168 237.537 216.147 237.589C216.125 237.641 216.114 237.697 216.114 237.753C216.114 237.81 216.125 237.866 216.147 237.918C216.168 237.97 216.2 238.017 216.24 238.057L217.846 239.661C217.927 239.739 218.036 239.782 218.148 239.782C218.261 239.782 218.369 239.739 218.451 239.661L220.057 238.057C220.137 237.976 220.182 237.867 220.182 237.753C220.182 237.639 220.136 237.53 220.056 237.45L218.451 235.845C218.412 235.805 218.364 235.773 218.312 235.752C218.26 235.73 218.204 235.719 218.148 235.72Z" fill="white"/>
<path d="M208.168 230.746L210.218 232.796C210.439 233.016 210.563 233.316 210.563 233.628C210.563 233.94 210.439 234.239 210.218 234.459L208.168 236.51C207.948 236.73 207.649 236.854 207.337 236.854C207.025 236.854 206.726 236.73 206.505 236.51L204.455 234.459C204.234 234.239 204.11 233.94 204.11 233.628C204.11 233.316 204.234 233.017 204.455 232.796L206.505 230.746C206.726 230.525 207.025 230.401 207.337 230.401C207.648 230.401 207.947 230.525 208.168 230.746L208.168 230.746Z" fill="white"/>
<path d="M223.299 208.218C223.039 208.218 222.781 208.167 222.541 208.068C222.301 207.969 222.083 207.823 221.899 207.639L219.543 205.283C219.172 204.911 218.964 204.408 218.964 203.883C218.964 203.358 219.172 202.854 219.543 202.482L221.899 200.127C222.27 199.756 222.774 199.548 223.299 199.548C223.824 199.548 224.327 199.756 224.699 200.127L227.054 202.483C227.425 202.854 227.633 203.358 227.633 203.883C227.633 204.408 227.425 204.911 227.054 205.283L224.699 207.639C224.515 207.823 224.297 207.969 224.057 208.068C223.816 208.167 223.559 208.218 223.299 208.218ZM223.299 200.804C223.204 200.804 223.11 200.822 223.022 200.858C222.934 200.895 222.854 200.948 222.787 201.015L220.431 203.371C220.296 203.507 220.22 203.691 220.22 203.883C220.22 204.075 220.296 204.259 220.431 204.395L222.787 206.75C222.925 206.882 223.108 206.955 223.299 206.955C223.489 206.955 223.672 206.882 223.81 206.75L226.166 204.395C226.301 204.259 226.377 204.075 226.377 203.883C226.377 203.691 226.301 203.507 226.166 203.371L223.81 201.015C223.743 200.948 223.663 200.895 223.576 200.858C223.488 200.822 223.394 200.804 223.299 200.804ZM183.709 265.317C183.024 265.318 182.347 265.184 181.714 264.923C181.082 264.661 180.507 264.277 180.024 263.793L172.401 256.17C171.425 255.192 170.877 253.867 170.877 252.485C170.877 251.103 171.425 249.778 172.401 248.8L180.024 241.177C181.002 240.201 182.327 239.653 183.709 239.653C185.09 239.653 186.416 240.201 187.394 241.177L195.017 248.8C195.993 249.778 196.541 251.103 196.541 252.485C196.541 253.867 195.993 255.192 195.017 256.17L187.394 263.793C186.91 264.277 186.336 264.661 185.703 264.923C185.071 265.184 184.393 265.318 183.709 265.317ZM183.709 241.328C183.244 241.327 182.784 241.418 182.355 241.595C181.926 241.773 181.537 242.033 181.208 242.362L173.586 249.985C172.923 250.648 172.552 251.547 172.552 252.485C172.552 253.422 172.923 254.322 173.586 254.985L181.208 262.608C181.872 263.27 182.771 263.641 183.709 263.641C184.646 263.641 185.545 263.27 186.209 262.608L193.832 254.985C194.494 254.322 194.866 253.422 194.866 252.485C194.866 251.547 194.494 250.648 193.832 249.985L186.209 242.362C185.881 242.033 185.491 241.773 185.062 241.595C184.633 241.418 184.173 241.327 183.709 241.328Z" fill="white"/>
<path d="M207.696 242.035L211.508 245.846C211.918 246.256 212.148 246.813 212.148 247.393C212.148 247.972 211.918 248.529 211.508 248.939L207.696 252.75C207.286 253.16 206.73 253.391 206.15 253.391C205.57 253.391 205.014 253.16 204.604 252.75L200.792 248.939C200.382 248.529 200.152 247.972 200.152 247.393C200.152 246.813 200.382 246.256 200.792 245.846L204.604 242.035C205.014 241.625 205.57 241.394 206.15 241.394C206.73 241.394 207.286 241.625 207.696 242.035Z" fill="white"/>
<path d="M203.512 257.06L208.407 261.955C208.933 262.482 209.229 263.196 209.229 263.941C209.229 264.685 208.934 265.4 208.407 265.926L203.512 270.821C202.985 271.348 202.271 271.644 201.526 271.644C200.781 271.644 200.067 271.348 199.541 270.821L194.646 265.926C194.385 265.666 194.178 265.356 194.037 265.015C193.896 264.675 193.823 264.309 193.823 263.941C193.823 263.572 193.896 263.207 194.037 262.866C194.178 262.525 194.385 262.216 194.646 261.955L199.54 257.06C199.801 256.799 200.111 256.592 200.452 256.451C200.792 256.31 201.157 256.237 201.526 256.237C201.895 256.237 202.26 256.31 202.601 256.451C202.942 256.592 203.251 256.799 203.512 257.06Z" fill="white"/>
<path d="M212.346 262.595C212.109 262.596 211.875 262.549 211.655 262.459C211.436 262.368 211.237 262.235 211.07 262.067L209.02 260.017C208.853 259.85 208.719 259.651 208.629 259.432C208.538 259.213 208.491 258.978 208.491 258.741C208.491 258.504 208.538 258.27 208.629 258.051C208.719 257.832 208.853 257.633 209.02 257.465L211.07 255.415C211.409 255.077 211.868 254.888 212.346 254.888C212.825 254.888 213.284 255.077 213.623 255.414L215.672 257.465C215.84 257.633 215.973 257.832 216.064 258.051C216.155 258.27 216.202 258.505 216.202 258.742C216.202 258.979 216.155 259.214 216.064 259.433C215.973 259.652 215.84 259.851 215.672 260.018L213.623 262.068C213.455 262.235 213.256 262.368 213.037 262.459C212.818 262.549 212.583 262.596 212.346 262.595ZM211.958 261.179C212.009 261.23 212.07 261.271 212.136 261.298C212.203 261.326 212.274 261.34 212.346 261.34C212.418 261.34 212.49 261.326 212.556 261.298C212.623 261.271 212.683 261.23 212.734 261.179L214.784 259.129C214.835 259.078 214.875 259.018 214.903 258.951C214.931 258.885 214.945 258.813 214.945 258.741C214.945 258.669 214.931 258.598 214.903 258.532C214.875 258.465 214.835 258.405 214.784 258.354L212.734 256.304C212.631 256.201 212.491 256.144 212.346 256.144C212.201 256.144 212.061 256.202 211.958 256.305L209.909 258.354C209.858 258.405 209.817 258.465 209.79 258.532C209.762 258.598 209.748 258.669 209.748 258.741C209.748 258.813 209.762 258.884 209.79 258.951C209.817 259.017 209.858 259.077 209.909 259.128L211.958 261.179ZM191.274 277.21C191.089 277.211 190.905 277.175 190.734 277.103C190.562 277.032 190.407 276.928 190.276 276.796L188.671 275.192C188.406 274.927 188.258 274.567 188.258 274.193C188.258 273.818 188.406 273.459 188.671 273.194L190.276 271.589C190.546 271.333 190.903 271.19 191.275 271.19C191.647 271.19 192.005 271.333 192.274 271.589L193.879 273.194C194.143 273.459 194.291 273.818 194.291 274.193C194.291 274.567 194.143 274.926 193.879 275.192L192.273 276.796C192.143 276.928 191.987 277.032 191.815 277.103C191.644 277.175 191.46 277.211 191.274 277.21ZM191.274 272.159C191.218 272.159 191.163 272.17 191.111 272.192C191.059 272.213 191.012 272.245 190.972 272.285L189.366 273.889C189.326 273.929 189.295 273.977 189.273 274.029C189.251 274.081 189.24 274.137 189.24 274.193C189.24 274.249 189.251 274.305 189.273 274.357C189.295 274.409 189.326 274.457 189.366 274.497L190.972 276.101C191.054 276.178 191.162 276.222 191.275 276.222C191.387 276.222 191.496 276.178 191.577 276.101L193.183 274.496C193.263 274.416 193.308 274.306 193.308 274.193C193.308 274.079 193.263 273.97 193.182 273.889L191.578 272.285C191.538 272.245 191.491 272.213 191.439 272.192C191.387 272.17 191.331 272.159 191.274 272.159Z" fill="white"/>
<path d="M181.295 267.184L183.345 269.234C183.454 269.344 183.541 269.473 183.6 269.616C183.659 269.759 183.689 269.911 183.689 270.066C183.689 270.22 183.659 270.373 183.6 270.516C183.541 270.659 183.454 270.789 183.345 270.898L181.295 272.948C181.074 273.169 180.775 273.293 180.463 273.292C180.151 273.292 179.852 273.169 179.631 272.948L177.581 270.898C177.361 270.677 177.237 270.378 177.237 270.066C177.237 269.754 177.36 269.455 177.581 269.234L179.631 267.184C179.852 266.964 180.151 266.84 180.463 266.84C180.775 266.84 181.074 266.964 181.294 267.184L181.295 267.184Z" fill="white"/>
<path d="M196.425 244.656C196.165 244.657 195.908 244.606 195.668 244.507C195.427 244.407 195.209 244.261 195.025 244.077L192.669 241.722C192.299 241.35 192.09 240.846 192.09 240.321C192.09 239.796 192.299 239.293 192.669 238.921L195.025 236.566C195.397 236.195 195.9 235.986 196.425 235.986C196.95 235.986 197.454 236.195 197.825 236.566L200.181 238.921C200.552 239.293 200.76 239.796 200.76 240.321C200.76 240.846 200.552 241.35 200.181 241.722L197.825 244.077C197.642 244.261 197.423 244.407 197.183 244.506C196.943 244.606 196.685 244.657 196.425 244.656ZM196.425 237.242C196.33 237.242 196.236 237.261 196.149 237.297C196.061 237.333 195.981 237.387 195.914 237.454L193.558 239.809C193.423 239.945 193.347 240.129 193.347 240.321C193.347 240.513 193.423 240.697 193.558 240.833L195.914 243.189C196.052 243.32 196.235 243.394 196.425 243.394C196.616 243.394 196.799 243.32 196.937 243.189L199.292 240.833C199.428 240.697 199.503 240.513 199.503 240.321C199.503 240.129 199.428 239.945 199.292 239.809L196.937 237.454C196.87 237.387 196.79 237.333 196.702 237.297C196.615 237.261 196.52 237.242 196.425 237.242ZM137.938 270.058C137.253 270.059 136.575 269.925 135.943 269.664C135.311 269.402 134.736 269.018 134.253 268.534L126.63 260.911C125.654 259.933 125.105 258.608 125.105 257.226C125.105 255.844 125.654 254.519 126.63 253.541L134.253 245.918C135.231 244.942 136.556 244.394 137.938 244.394C139.319 244.394 140.645 244.942 141.623 245.918L149.245 253.541C150.222 254.519 150.77 255.844 150.77 257.226C150.77 258.608 150.222 259.933 149.245 260.911L141.623 268.534C141.139 269.018 140.564 269.402 139.932 269.664C139.3 269.925 138.622 270.059 137.938 270.058ZM137.938 246.069C137.473 246.068 137.013 246.159 136.584 246.336C136.155 246.514 135.765 246.774 135.437 247.103L127.814 254.725C127.152 255.389 126.78 256.288 126.78 257.226C126.78 258.163 127.152 259.062 127.814 259.726L135.437 267.349C136.101 268.011 137 268.382 137.938 268.382C138.875 268.382 139.774 268.011 140.438 267.349L148.061 259.726C148.723 259.062 149.095 258.163 149.095 257.226C149.095 256.288 148.723 255.389 148.061 254.725L140.438 247.103C140.11 246.774 139.72 246.514 139.291 246.336C138.862 246.159 138.402 246.068 137.938 246.069Z" fill="white"/>
<path d="M161.925 246.776L165.737 250.587C166.147 250.997 166.377 251.554 166.377 252.133C166.377 252.713 166.147 253.27 165.737 253.68L161.925 257.491C161.515 257.902 160.959 258.132 160.379 258.132C159.799 258.132 159.243 257.902 158.833 257.491L155.021 253.68C154.611 253.27 154.381 252.713 154.381 252.133C154.381 251.554 154.611 250.997 155.021 250.587L158.833 246.776C159.243 246.366 159.799 246.135 160.379 246.135C160.959 246.135 161.515 246.366 161.925 246.776Z" fill="white"/>
<path d="M162.636 266.696L157.741 261.801C156.644 260.704 154.866 260.704 153.77 261.801L148.875 266.696C147.778 267.793 147.778 269.571 148.875 270.668L153.77 275.563C154.866 276.659 156.644 276.659 157.741 275.563L162.636 270.668C163.733 269.571 163.733 267.793 162.636 266.696Z" fill="white"/>
<path d="M166.575 267.337C166.338 267.337 166.103 267.291 165.884 267.2C165.665 267.11 165.466 266.977 165.299 266.809L163.249 264.759C163.081 264.591 162.948 264.392 162.857 264.173C162.767 263.954 162.72 263.72 162.72 263.483C162.72 263.246 162.767 263.011 162.857 262.792C162.948 262.573 163.081 262.374 163.249 262.207L165.299 260.156C165.638 259.819 166.097 259.629 166.575 259.629C167.053 259.629 167.512 259.818 167.852 260.156L169.901 262.207C170.069 262.374 170.202 262.573 170.293 262.792C170.384 263.011 170.43 263.246 170.43 263.483C170.43 263.72 170.384 263.955 170.293 264.174C170.202 264.393 170.069 264.592 169.901 264.759L167.852 266.809C167.684 266.977 167.485 267.11 167.266 267.2C167.047 267.291 166.812 267.337 166.575 267.337ZM166.187 265.92C166.238 265.971 166.299 266.012 166.365 266.039C166.432 266.067 166.503 266.081 166.575 266.081C166.647 266.081 166.719 266.067 166.785 266.039C166.852 266.012 166.912 265.971 166.963 265.92L169.013 263.87C169.064 263.819 169.104 263.759 169.132 263.692C169.16 263.626 169.174 263.555 169.174 263.483C169.174 263.411 169.16 263.339 169.132 263.273C169.104 263.206 169.064 263.146 169.013 263.095L166.963 261.045C166.86 260.942 166.72 260.885 166.575 260.885C166.43 260.885 166.29 260.943 166.187 261.046L164.138 263.095C164.087 263.146 164.046 263.206 164.019 263.273C163.991 263.339 163.977 263.41 163.977 263.482C163.977 263.554 163.991 263.625 164.019 263.692C164.046 263.758 164.087 263.818 164.138 263.869L166.187 265.92ZM145.503 281.951C145.318 281.952 145.134 281.916 144.963 281.845C144.791 281.774 144.636 281.669 144.505 281.537L142.9 279.933C142.636 279.668 142.487 279.309 142.487 278.934C142.487 278.56 142.636 278.2 142.9 277.935L144.505 276.331C144.774 276.074 145.132 275.931 145.504 275.931C145.876 275.931 146.234 276.074 146.503 276.331L148.107 277.935C148.371 278.201 148.52 278.56 148.52 278.934C148.52 279.308 148.372 279.667 148.108 279.933L146.502 281.538C146.371 281.669 146.216 281.774 146.044 281.845C145.873 281.916 145.689 281.952 145.503 281.951ZM145.503 276.9C145.447 276.9 145.391 276.911 145.34 276.933C145.288 276.954 145.241 276.986 145.201 277.026L143.595 278.631C143.555 278.67 143.524 278.718 143.502 278.77C143.481 278.822 143.469 278.878 143.469 278.934C143.469 278.991 143.481 279.046 143.502 279.099C143.524 279.151 143.555 279.198 143.595 279.238L145.201 280.842C145.283 280.92 145.391 280.963 145.504 280.963C145.616 280.963 145.725 280.92 145.806 280.842L147.412 279.238C147.492 279.157 147.537 279.048 147.537 278.934C147.537 278.82 147.492 278.711 147.411 278.631L145.807 277.026C145.767 276.986 145.72 276.954 145.668 276.933C145.615 276.911 145.56 276.9 145.503 276.9Z" fill="white"/>
</g>
<path fill-rule="evenodd" clip-rule="evenodd" d="M172.789 200.83C175.056 198.373 175.727 195.309 174.803 191.638L182.928 192.049C183.012 195.032 184.034 197.9 185.992 200.654C181.457 202.813 177.056 202.872 172.789 200.83Z" fill="#D9D3FD"/>
<path fill-rule="evenodd" clip-rule="evenodd" d="M171.25 179.328L173.452 195.286C181.655 196.521 186.354 195.689 187.551 192.791C189.475 186.247 189.019 178.894 186.184 170.73L171.25 179.328Z" fill="#D9D3FD"/>
<path fill-rule="evenodd" clip-rule="evenodd" d="M181.835 182.168C185.535 178.975 190.625 184.111 194.291 180.879C199.177 176.571 201.638 168.734 198.073 164.622C194.777 160.797 187.254 157.945 183.594 167.007C182.832 168.892 180.539 166.087 178.527 165.793C177.126 165.588 176.304 165.384 174.903 165.593C172.447 165.961 170.901 166.276 168.93 167.786C165.054 170.756 162.928 173.275 161.709 178.003C160.208 183.822 163.936 187.321 163.406 193.306C163.282 194.7 163.137 195.562 162.39 196.745C159.392 201.489 156.552 203.554 151.682 206.344C145.649 209.802 137.278 205.127 134.713 211.778C130.395 222.373 136.669 234.431 147.405 239.819C163.092 247.691 181.42 244.683 191.337 230.203C197.967 220.521 196.182 208.779 186.713 200.494C183.097 197.33 180.586 195.074 179.747 190.344C179.171 187.101 179.342 184.319 181.835 182.168Z" fill="black"/>
<path opacity="0.1" fill-rule="evenodd" clip-rule="evenodd" d="M256.846 210.537C243.75 233.814 234.27 247.414 228.405 251.336C224.236 252.516 218.223 249.676 210.366 242.926C207.821 240.786 204.907 238.241 201.845 235.29C203.652 249.75 206.198 261.665 209.444 270.961C202.62 273.949 196.238 276.199 190.335 277.638C196.274 273.396 203.21 266.461 199.779 258.972C194.172 246.762 197.455 220.46 197.455 220.46C197.455 220.46 197.676 220.681 198.045 221.124C200.185 223.411 207.747 231.453 214.83 237.503C216.416 238.868 217.965 240.159 219.441 241.229C228.589 247.942 238.254 233.998 256.846 210.537Z" fill="black"/>
<defs>
<linearGradient id="paint0_linear_1099_7242" x1="87.1889" y1="341.842" x2="72.1031" y2="355.239" gradientUnits="userSpaceOnUse">
<stop stop-color="white"/>
<stop offset="1"/>
</linearGradient>
<linearGradient id="paint1_linear_1099_7242" x1="113.47" y1="325.67" x2="90.2402" y2="328.902" gradientUnits="userSpaceOnUse">
<stop stop-color="white"/>
<stop offset="1"/>
</linearGradient>
<linearGradient id="paint2_linear_1099_7242" x1="141.276" y1="334.799" x2="116.673" y2="317.855" gradientUnits="userSpaceOnUse">
<stop stop-color="white"/>
<stop offset="1"/>
</linearGradient>
<linearGradient id="paint3_linear_1099_7242" x1="295.166" y1="152.949" x2="249.121" y2="72.9133" gradientUnits="userSpaceOnUse">
<stop stop-color="white"/>
<stop offset="0.063" stop-color="#EBEBEB"/>
<stop offset="0.33" stop-color="#7764F0"/>
<stop offset="0.566" stop-color="#575757"/>
<stop offset="0.763" stop-color="#282828"/>
<stop offset="0.914" stop-color="#0B0B0B"/>
<stop offset="1"/>
</linearGradient>
<linearGradient id="paint4_linear_1099_7242" x1="266.42" y1="115.394" x2="311.28" y2="137.528" gradientUnits="userSpaceOnUse">
<stop stop-color="white"/>
<stop offset="0.063" stop-color="#EBEBEB"/>
<stop offset="0.33" stop-color="#7764F0"/>
<stop offset="0.566" stop-color="#575757"/>
<stop offset="0.763" stop-color="#282828"/>
<stop offset="0.914" stop-color="#0B0B0B"/>
<stop offset="1"/>
</linearGradient>
<linearGradient id="paint5_linear_1099_7242" x1="339.514" y1="104.611" x2="348.773" y2="104.611" gradientUnits="userSpaceOnUse">
<stop stop-color="white"/>
<stop offset="0.063" stop-color="#EBEBEB"/>
<stop offset="0.33" stop-color="#7764F0"/>
<stop offset="0.566" stop-color="#575757"/>
<stop offset="0.763" stop-color="#282828"/>
<stop offset="0.914" stop-color="#0B0B0B"/>
<stop offset="1"/>
</linearGradient>
<linearGradient id="paint6_linear_1099_7242" x1="314.798" y1="114.645" x2="378.136" y2="114.645" gradientUnits="userSpaceOnUse">
<stop stop-color="white"/>
<stop offset="0.063" stop-color="#EBEBEB"/>
<stop offset="0.33" stop-color="#7764F0"/>
<stop offset="0.566" stop-color="#575757"/>
<stop offset="0.763" stop-color="#282828"/>
<stop offset="0.914" stop-color="#0B0B0B"/>
<stop offset="1"/>
</linearGradient>
<linearGradient id="paint7_linear_1099_7242" x1="362.569" y1="125.589" x2="382.875" y2="141.893" gradientUnits="userSpaceOnUse">
<stop stop-color="white"/>
<stop offset="0.063" stop-color="#EBEBEB"/>
<stop offset="0.33" stop-color="#7764F0"/>
<stop offset="0.566" stop-color="#575757"/>
<stop offset="0.763" stop-color="#282828"/>
<stop offset="0.914" stop-color="#0B0B0B"/>
<stop offset="1"/>
</linearGradient>
<linearGradient id="paint8_linear_1099_7242" x1="244.225" y1="166.867" x2="278.215" y2="243.938" gradientUnits="userSpaceOnUse">
<stop stop-color="white"/>
<stop offset="0.063" stop-color="#EBEBEB"/>
<stop offset="0.33" stop-color="#7764F0"/>
<stop offset="0.566" stop-color="#575757"/>
<stop offset="0.763" stop-color="#282828"/>
<stop offset="0.914" stop-color="#0B0B0B"/>
<stop offset="1"/>
</linearGradient>
<linearGradient id="paint9_linear_1099_7242" x1="260.642" y1="203.708" x2="281.194" y2="245.405" gradientUnits="userSpaceOnUse">
<stop stop-color="white"/>
<stop offset="0.063" stop-color="#EBEBEB"/>
<stop offset="0.33" stop-color="#7764F0"/>
<stop offset="0.566" stop-color="#575757"/>
<stop offset="0.763" stop-color="#282828"/>
<stop offset="0.914" stop-color="#0B0B0B"/>
<stop offset="1"/>
</linearGradient>
<linearGradient id="paint10_linear_1099_7242" x1="379.056" y1="182.829" x2="395.804" y2="217.956" gradientUnits="userSpaceOnUse">
<stop stop-color="white"/>
<stop offset="0.063" stop-color="#EBEBEB"/>
<stop offset="0.33" stop-color="#7764F0"/>
<stop offset="0.566" stop-color="#575757"/>
<stop offset="0.763" stop-color="#282828"/>
<stop offset="0.914" stop-color="#0B0B0B"/>
<stop offset="1"/>
</linearGradient>
<linearGradient id="paint11_linear_1099_7242" x1="384.009" y1="196.803" x2="393.297" y2="215.181" gradientUnits="userSpaceOnUse">
<stop stop-color="white"/>
<stop offset="0.063" stop-color="#EBEBEB"/>
<stop offset="0.33" stop-color="#7764F0"/>
<stop offset="0.566" stop-color="#575757"/>
<stop offset="0.763" stop-color="#282828"/>
<stop offset="0.914" stop-color="#0B0B0B"/>
<stop offset="1"/>
</linearGradient>
<linearGradient id="paint12_linear_1099_7242" x1="331.346" y1="250.571" x2="345.674" y2="278.237" gradientUnits="userSpaceOnUse">
<stop stop-color="white"/>
<stop offset="0.063" stop-color="#EBEBEB"/>
<stop offset="0.33" stop-color="#7764F0"/>
<stop offset="0.566" stop-color="#575757"/>
<stop offset="0.763" stop-color="#282828"/>
<stop offset="0.914" stop-color="#0B0B0B"/>
<stop offset="1"/>
</linearGradient>
<linearGradient id="paint13_linear_1099_7242" x1="317.663" y1="262.683" x2="358.72" y2="262.683" gradientUnits="userSpaceOnUse">
<stop stop-color="white"/>
<stop offset="0.063" stop-color="#EBEBEB"/>
<stop offset="0.33" stop-color="#7764F0"/>
<stop offset="0.566" stop-color="#575757"/>
<stop offset="0.763" stop-color="#282828"/>
<stop offset="0.914" stop-color="#0B0B0B"/>
<stop offset="1"/>
</linearGradient>
<linearGradient id="paint14_linear_1099_7242" x1="98.3095" y1="333.12" x2="133" y2="389.286" gradientUnits="userSpaceOnUse">
<stop stop-color="white"/>
<stop offset="0.063" stop-color="#EBEBEB"/>
<stop offset="0.33" stop-color="#7764F0"/>
<stop offset="0.566" stop-color="#575757"/>
<stop offset="0.763" stop-color="#282828"/>
<stop offset="0.914" stop-color="#0B0B0B"/>
<stop offset="1"/>
</linearGradient>
<linearGradient id="paint15_linear_1099_7242" x1="108.183" y1="350.366" x2="143.865" y2="397.281" gradientUnits="userSpaceOnUse">
<stop stop-color="white"/>
<stop offset="0.063" stop-color="#EBEBEB"/>
<stop offset="0.33" stop-color="#7764F0"/>
<stop offset="0.566" stop-color="#575757"/>
<stop offset="0.763" stop-color="#282828"/>
<stop offset="0.914" stop-color="#0B0B0B"/>
<stop offset="1"/>
</linearGradient>
<linearGradient id="paint16_linear_1099_7242" x1="75.2076" y1="390.007" x2="116.115" y2="341.393" gradientUnits="userSpaceOnUse">
<stop stop-color="white"/>
<stop offset="0.063" stop-color="#EBEBEB"/>
<stop offset="0.33" stop-color="#7764F0"/>
<stop offset="0.566" stop-color="#575757"/>
<stop offset="0.763" stop-color="#282828"/>
<stop offset="0.914" stop-color="#0B0B0B"/>
<stop offset="1"/>
</linearGradient>
<linearGradient id="paint17_linear_1099_7242" x1="104.485" y1="327.715" x2="117.38" y2="370.549" gradientUnits="userSpaceOnUse">
<stop stop-color="white"/>
<stop offset="0.063" stop-color="#EBEBEB"/>
<stop offset="0.33" stop-color="#7764F0"/>
<stop offset="0.566" stop-color="#575757"/>
<stop offset="0.763" stop-color="#282828"/>
<stop offset="0.914" stop-color="#0B0B0B"/>
<stop offset="1"/>
</linearGradient>
<linearGradient id="paint18_linear_1099_7242" x1="186.952" y1="115.522" x2="202.69" y2="115.522" gradientUnits="userSpaceOnUse">
<stop stop-color="white"/>
<stop offset="0.063" stop-color="#EBEBEB"/>
<stop offset="0.33" stop-color="#7764F0"/>
<stop offset="0.566" stop-color="#575757"/>
<stop offset="0.763" stop-color="#282828"/>
<stop offset="0.914" stop-color="#0B0B0B"/>
<stop offset="1"/>
</linearGradient>
</defs>
</svg>
