<svg width="80" height="80" viewBox="0 0 80 80" fill="none" xmlns="http://www.w3.org/2000/svg">
<path d="M71.25 2.5H11.25C7.80375 2.5 5 5.30375 5 8.75V55.6612C3.37176 57.9859 2.49887 60.7556 2.5 63.5938C2.5 71.2613 8.73875 77.5 16.4063 77.5C23.6 77.5 29.5338 72.01 30.2413 65H42.5V70C42.5 72.7575 44.7425 75 47.5 75C50.2575 75 52.5 72.7575 52.5 70V65H71.25C74.6963 65 77.5 62.1963 77.5 58.75V8.75C77.5 5.30375 74.6963 2.5 71.25 2.5ZM16.4063 75C10.1163 75 5 69.8838 5 63.5938C5 61.03 5.86125 58.6688 7.29375 56.7612C7.535 56.44 7.79125 56.135 8.06 55.845C8.095 55.8075 8.12875 55.7675 8.165 55.73C8.43625 55.4437 8.7225 55.1738 9.01875 54.92C9.05125 54.8925 9.08 54.8625 9.11125 54.835C9.41953 54.5773 9.74123 54.3362 10.075 54.1125C10.2238 54.0125 10.3813 53.9263 10.535 53.8325C10.7184 53.7186 10.9051 53.6102 11.095 53.5075C11.2825 53.4087 11.4763 53.3187 11.67 53.23C11.7538 53.1912 11.8375 53.1575 11.9225 53.1213C12.2113 52.9975 12.5038 52.8825 12.7988 52.7825C12.91 52.745 13.0225 52.715 13.135 52.6813C13.4018 52.5986 13.6716 52.5256 13.9438 52.4625L13.9463 52.4613C14.14 52.4188 14.3375 52.39 14.535 52.3575C14.7125 52.3275 14.89 52.2938 15.0688 52.2725C15.0963 52.2687 15.1238 52.2625 15.1513 52.26C15.568 52.2131 15.9869 52.1889 16.4063 52.1875C17.0483 52.1918 17.6889 52.2499 18.3213 52.3613C18.755 52.435 19.1825 52.53 19.6 52.6512C19.6638 52.67 19.73 52.6812 19.7938 52.7012C20.235 52.8375 20.66 53.0113 21.0788 53.2C21.5433 53.4101 21.9931 53.6515 22.425 53.9225C23.3772 54.5093 24.2349 55.2372 24.9688 56.0813C25.0975 56.2275 25.2237 56.375 25.345 56.5275C25.6833 56.9557 25.9904 57.4077 26.2638 57.88C26.5112 58.3075 26.7413 58.7463 26.935 59.2113C27.5139 60.5964 27.8126 62.0825 27.8137 63.5838L27.8063 63.7362V63.74C27.7263 69.9613 22.6475 75 16.4063 75ZM44.6012 52.4188C44.3549 52.3374 44.1404 52.1809 43.9876 51.9713C43.8349 51.7616 43.7518 51.5094 43.75 51.25V49.59L43.8062 49.5988C44.3375 49.7138 44.8787 49.8 45.4263 49.865C45.4975 49.8737 45.5662 49.89 45.6375 49.8975C46.25 49.9625 46.87 50 47.5 50C48.13 50 48.75 49.9625 49.3625 49.8975C49.4338 49.89 49.5037 49.8737 49.575 49.865C50.1225 49.8 50.6625 49.7138 51.1938 49.5988L51.25 49.59V51.25C51.2482 51.5094 51.1651 51.7616 51.0124 51.9713C50.8596 52.1809 50.6451 52.3374 50.3988 52.4188C50.2713 52.468 50.1365 52.4955 50 52.5H45C44.8635 52.4955 44.7287 52.468 44.6012 52.4188ZM42.5 57.5H28.9062C28.9034 57.4935 28.9001 57.4872 28.8963 57.4813L28.885 57.46C28.8275 57.3425 28.7625 57.2313 28.7025 57.115C28.6612 57.0363 28.62 56.9562 28.5763 56.8787C28.4888 56.72 28.4 56.5637 28.3075 56.41L28.225 56.2775C28.019 55.9439 27.7992 55.6191 27.5662 55.3037L27.5625 55.2975C26.0893 53.309 24.1097 51.752 21.83 50.7887L21.7875 50.7713L21.625 50.705L21.5313 50.6663C21.2314 50.5477 20.9274 50.4398 20.62 50.3425C20.5775 50.3287 20.5362 50.3138 20.4925 50.3013C20.0825 50.1763 19.6675 50.0675 19.2438 49.98L19.1425 49.96C19.0613 49.9437 18.9775 49.9325 18.895 49.9175C18.5994 49.8641 18.3022 49.8204 18.0038 49.7862C17.9325 49.7775 17.8638 49.7637 17.7925 49.7575C17.7363 49.7513 17.6788 49.7513 17.6225 49.7463C17.2177 49.709 16.8115 49.6894 16.405 49.6875C15.9513 49.6875 15.5038 49.7137 15.0588 49.7562C14.9425 49.7675 14.8288 49.7875 14.7138 49.8013C14.6741 49.8061 14.6345 49.8115 14.595 49.8175C14.5013 49.83 14.4075 49.84 14.3138 49.855C14.115 49.885 13.9175 49.9163 13.7213 49.955C13.61 49.9762 13.5013 50.0037 13.3913 50.0287C13.0913 50.095 12.7938 50.1675 12.5 50.2525V37.5H23.75C24.2437 37.5 24.6912 37.2088 24.8925 36.7575L28.75 28.0775L30.0612 31.0287C30.0212 31.5212 30 32.0138 30 32.5C30.0036 33.1866 30.0474 33.8723 30.1312 34.5537C30.175 34.925 30.2325 35.2938 30.3 35.66C30.3288 35.8187 30.3513 35.98 30.385 36.1375C30.5822 37.0457 30.8523 37.9365 31.1925 38.8013C31.2938 39.0625 31.395 39.3237 31.5088 39.5788C31.575 39.7287 31.6513 39.8737 31.7225 40.0212C31.96 40.5162 32.2175 40.9975 32.4988 41.4663C32.565 41.5763 32.6237 41.69 32.6925 41.7987L32.6987 41.795C34.7174 44.9989 37.7166 47.4654 41.25 48.8275V51.25C41.25 52.3537 41.7388 53.3375 42.5 54.025V57.5ZM62.0762 35.98C61.95 36.5088 61.7925 37.0275 61.6113 37.5387L61.5475 37.7125C61.3812 38.1625 61.19 38.6025 60.9825 39.0337C60.9375 39.1275 60.8937 39.2225 60.8462 39.315C60.6525 39.6963 60.4375 40.0625 60.2125 40.425C60.1387 40.5438 60.0725 40.6662 59.995 40.7825C58.1137 43.6174 55.3264 45.7305 52.0888 46.7763C51.8813 46.8425 51.67 46.895 51.4613 46.9525C51.2412 47.0125 51.02 47.0738 50.7962 47.1238C50.343 47.224 49.8854 47.3036 49.425 47.3625C49.225 47.3887 49.0263 47.415 48.8263 47.4325C48.2988 47.4786 47.7693 47.4965 47.24 47.4862C46.8857 47.481 46.5317 47.4631 46.1787 47.4325C45.9788 47.415 45.7788 47.3875 45.58 47.3625C45.1196 47.3036 44.662 47.224 44.2088 47.1238C43.9837 47.0738 43.7637 47.0125 43.5437 46.9525C43.3337 46.895 43.1237 46.8425 42.9163 46.7763C39.4819 45.6614 36.563 43.3486 34.6925 40.26C34.3947 39.7712 34.1251 39.2658 33.885 38.7463C33.86 38.6925 33.8325 38.6413 33.8088 38.5875C33.7025 38.35 33.6088 38.1075 33.515 37.8662C33.2335 37.1363 33.0071 36.3863 32.8375 35.6225C32.8075 35.4813 32.7875 35.3375 32.7612 35.195C32.6784 34.7456 32.6158 34.2926 32.5737 33.8375C32.5265 33.3932 32.5019 32.9468 32.5 32.5C32.5 31.99 32.5275 31.4712 32.58 30.9562C33.355 23.4075 39.75 17.5 47.5 17.5C55.7713 17.5 62.5 24.2288 62.5 32.5C62.5 33.7 62.3438 34.8613 62.0762 35.98ZM52.5 54.025C53.2612 53.3388 53.75 52.3537 53.75 51.25V48.8263C56.5523 47.7523 59.0328 45.9784 60.955 43.6737L60.9613 43.6787C61.39 43.1625 61.7787 42.615 62.1462 42.05C63.068 40.6435 63.7812 39.1109 64.2637 37.5H70V57.5H52.5V54.025ZM70 35H64.8C64.9175 34.1812 65 33.3512 65 32.5C65 22.85 57.15 15 47.5 15C39.8225 15 33.3 19.9762 30.9475 26.8662L29.8925 24.4925C29.794 24.2718 29.6336 24.0844 29.4309 23.9529C29.2281 23.8214 28.9917 23.7515 28.75 23.7515C28.5083 23.7515 28.2719 23.8214 28.0691 23.9529C27.8664 24.0844 27.706 24.2718 27.6075 24.4925L22.9375 35H12.5V10H70V35ZM30.27 62.5C30.265 62.4437 30.2537 62.3888 30.2487 62.3325C30.23 62.125 30.1987 61.9213 30.1712 61.7163C30.1375 61.4688 30.105 61.2213 30.0588 60.9788C30.02 60.7763 29.9712 60.5788 29.9237 60.3788C29.8925 60.2537 29.87 60.125 29.8375 60H42.5V62.5H30.27ZM50 70C50 71.3788 48.8787 72.5 47.5 72.5C46.1213 72.5 45 71.3788 45 70V55H50V70ZM75 58.75C75 60.8175 73.3175 62.5 71.25 62.5H52.5V60H71.25C71.5815 60 71.8995 59.8683 72.1339 59.6339C72.3683 59.3995 72.5 59.0815 72.5 58.75V8.75C72.5 8.41848 72.3683 8.10054 72.1339 7.86612C71.8995 7.6317 71.5815 7.5 71.25 7.5H11.25C10.9185 7.5 10.6005 7.6317 10.3661 7.86612C10.1317 8.10054 10 8.41848 10 8.75V51.2588L9.86375 51.33L9.74625 51.3913C9.3875 51.5875 9.03875 51.8 8.69875 52.0288L8.61875 52.08C8.28377 52.3083 7.95888 52.551 7.645 52.8075C7.615 52.8325 7.5825 52.8538 7.5525 52.8788L7.5 52.9187V8.75C7.5 6.6825 9.1825 5 11.25 5H71.25C73.3175 5 75 6.6825 75 8.75V58.75Z" fill="#B8B2FF"/>
<path d="M16.25 56.25H13.75V65C13.75 65.3315 13.8817 65.6495 14.1161 65.8839C14.3505 66.1183 14.6685 66.25 15 66.25H23.75V63.75H16.25V56.25Z" fill="#B8B2FF"/>
<path d="M47.5 20C40.6075 20 35 25.6075 35 32.5C35 33.4525 35.1162 34.3763 35.3187 35.2675V35.2775C35.3312 35.3337 35.35 35.3875 35.3638 35.4437C35.496 35.9916 35.6651 36.5299 35.87 37.055C35.9062 37.15 35.9363 37.2475 35.975 37.3412C35.9963 37.3925 36.0225 37.4412 36.045 37.4912C36.1863 37.8188 36.34 38.1375 36.5062 38.4488L36.5188 38.4713C38.0533 41.3206 40.6428 43.4556 43.7325 44.4188L43.8513 44.455C44.1725 44.5525 44.4987 44.6362 44.83 44.7075C44.915 44.7262 44.9988 44.7463 45.085 44.7625C45.385 44.8213 45.69 44.8663 45.9975 44.9025C46.0963 44.915 46.195 44.9312 46.295 44.9412C46.6925 44.9762 47.0938 45 47.5 45C47.9062 45 48.3075 44.9762 48.7038 44.9388C48.8038 44.9288 48.9012 44.9125 49.0013 44.9C49.3088 44.8637 49.6137 44.8187 49.9137 44.76C49.9987 44.7437 50.0837 44.7237 50.1687 44.705C50.5 44.6337 50.8262 44.55 51.1475 44.4525L51.2663 44.4163C54.3561 43.4526 56.9456 41.3172 58.48 38.4675L58.4925 38.445C58.6587 38.1338 58.8137 37.815 58.9537 37.4875C58.9762 37.4362 59.0025 37.3888 59.0238 37.3375C59.0625 37.2438 59.0925 37.1463 59.1288 37.0513C59.3338 36.53 59.5012 35.9925 59.635 35.44C59.6488 35.3837 59.6675 35.33 59.68 35.2738V35.2638C59.8837 34.3763 60 33.4525 60 32.5C60 25.6075 54.3925 20 47.5 20ZM47.5 22.5C53.0138 22.5 57.5 26.9863 57.5 32.5C57.5 32.9237 57.465 33.34 57.4137 33.75H52.075L48.65 25.7575C48.5587 25.5437 48.4094 25.3596 48.219 25.2262C48.0286 25.0928 47.8046 25.0153 47.5725 25.0025C47.3408 24.9911 47.1104 25.0436 46.9065 25.1543C46.7026 25.265 46.533 25.4295 46.4162 25.63L41.775 33.75H37.5875C37.5318 33.3356 37.5025 32.9181 37.5 32.5C37.5 26.9863 41.9863 22.5 47.5 22.5ZM56.7525 36.2812C56.5284 36.822 56.2578 37.3423 55.9438 37.8362C55.621 38.3415 55.255 38.8179 54.85 39.26C54.7388 39.3813 54.6287 39.505 54.5125 39.6213C54.3306 39.7986 54.1425 39.9695 53.9487 40.1337C53.8438 40.2225 53.735 40.305 53.6275 40.3888C53.3061 40.6383 52.9696 40.8679 52.62 41.0763C52.4625 41.17 52.3075 41.265 52.145 41.35C51.5532 41.6596 50.9323 41.9099 50.2913 42.0975C49.8172 42.2351 49.3333 42.3362 48.8438 42.4C48.4 42.4575 47.955 42.5 47.5 42.5C47.045 42.5 46.6 42.4575 46.16 42.3987C45.6707 42.3336 45.1869 42.2325 44.7125 42.0962C44.5448 42.0466 44.3785 41.9924 44.2137 41.9338C43.7476 41.7741 43.2946 41.5785 42.8587 41.3487C42.6962 41.2637 42.54 41.1688 42.3838 41.075C42.0346 40.8659 41.6982 40.6364 41.3763 40.3875C41.2675 40.3038 41.1588 40.2212 41.055 40.1325C40.8606 39.9689 40.6725 39.798 40.4913 39.62C40.3738 39.5037 40.265 39.3813 40.1538 39.2587C39.9159 39.0011 39.6922 38.7307 39.4837 38.4488C39.3348 38.2496 39.1935 38.0448 39.06 37.835C38.975 37.7 38.89 37.565 38.8112 37.425C38.6002 37.0558 38.4131 36.6733 38.2512 36.28L38.24 36.2488H42.5C42.9488 36.2488 43.3625 36.0088 43.585 35.6188L47.34 29.0487L50.1013 35.4912C50.1972 35.7165 50.3572 35.9085 50.5615 36.0434C50.7658 36.1784 51.0052 36.2502 51.25 36.25H56.7637L56.7525 36.2812Z" fill="#B8B2FF"/>
</svg>
