<svg width="371" height="371" viewBox="0 0 371 371" fill="none" xmlns="http://www.w3.org/2000/svg">
<path d="M272.992 164.414C272.992 164.771 272.439 165.091 271.32 165.238H268.478C267.361 165.091 266.808 164.771 266.808 164.407C266.808 164.043 267.361 163.731 268.478 163.575H271.32C272.439 163.731 272.992 164.042 272.992 164.416V164.414ZM284.122 164.414C284.122 164.771 283.569 165.091 282.45 165.238H279.608C278.491 165.091 277.938 164.771 277.938 164.407C277.938 164.043 278.491 163.731 279.608 163.575H282.45C283.569 163.731 284.122 164.042 284.122 164.416V164.414ZM295.252 164.414C295.252 164.771 294.699 165.091 293.58 165.238H290.738C289.621 165.091 289.068 164.771 289.068 164.407C289.068 164.043 289.621 163.731 290.738 163.575H293.58C294.699 163.731 295.252 164.042 295.252 164.416V164.414ZM306.382 164.414C306.382 164.771 305.829 165.091 304.71 165.238H301.868C300.751 165.091 300.198 164.771 300.198 164.407C300.198 164.043 300.751 163.731 301.868 163.575H304.71C305.829 163.731 306.382 164.042 306.382 164.416V164.414ZM317.112 163.999C317.288 163.999 317.455 164.135 317.597 164.407L317.693 164.593L317.103 164.9C316.826 165.045 316.405 165.164 315.84 165.238H312.998C311.881 165.091 311.328 164.771 311.328 164.407C311.328 164.043 311.881 163.731 312.998 163.575H315.84C316.405 163.654 316.826 163.773 317.103 163.919L316.616 164.407C316.758 164.135 316.928 163.999 317.112 163.999ZM317.112 152.869C317.467 152.869 317.789 153.422 317.936 154.54V157.382C317.787 158.499 317.467 159.052 317.103 159.052C316.74 159.052 316.428 158.499 316.272 157.383V154.54C316.428 153.422 316.74 152.869 317.113 152.869H317.112ZM317.112 141.739C317.467 141.739 317.789 142.292 317.936 143.41V146.252C317.787 147.369 317.467 147.922 317.103 147.922C316.74 147.922 316.428 147.369 316.272 146.253V143.41C316.428 142.292 316.74 141.739 317.113 141.739H317.112ZM317.112 130.609C317.467 130.609 317.789 131.162 317.936 132.28V135.122C317.787 136.239 317.467 136.792 317.103 136.792C316.74 136.792 316.428 136.239 316.272 135.123V132.28C316.428 131.162 316.74 130.609 317.113 130.609H317.112ZM317.369 119.753C317.369 119.894 317.282 120.03 317.103 120.152L317.512 119.744C317.696 120.009 317.847 120.477 317.936 121.15V123.992C317.787 125.109 317.467 125.662 317.103 125.662C316.74 125.662 316.428 125.109 316.272 123.993V121.15C316.365 120.477 316.516 120.009 316.702 119.745L317.023 119.287L317.103 119.343C317.282 119.467 317.369 119.605 317.369 119.753ZM328.499 119.753C328.499 120.108 327.945 120.429 326.827 120.576H323.986C322.869 120.429 322.316 120.108 322.316 119.745C322.316 119.381 322.869 119.068 323.986 118.913H326.827C327.945 119.068 328.499 119.38 328.499 119.753ZM330.664 110.77C331.018 110.77 331.339 111.323 331.487 112.441V115.283C331.339 116.401 331.018 116.952 330.655 116.952C330.291 116.952 329.98 116.401 329.823 115.283V112.441C329.98 111.323 330.291 110.77 330.664 110.77ZM330.664 99.6403C331.018 99.6403 331.339 100.193 331.487 101.311V104.153C331.339 105.271 331.018 105.822 330.655 105.822C330.291 105.822 329.98 105.271 329.823 104.153V101.311C329.98 100.193 330.291 99.6403 330.664 99.6403ZM270.047 143.551H270.6C271.473 143.551 272.31 143.204 272.928 142.586C273.545 141.969 273.892 141.132 273.892 140.259V129.85C273.892 128.977 273.545 128.139 272.928 127.522C272.31 126.904 271.473 126.558 270.6 126.558H270.047V143.551ZM138.892 119.426H138.34C137.467 119.426 136.629 119.773 136.012 120.39C135.394 121.007 135.048 121.845 135.048 122.718V133.126C135.048 133.558 135.133 133.986 135.298 134.385C135.464 134.785 135.706 135.148 136.012 135.453C136.318 135.759 136.68 136.002 137.08 136.167C137.479 136.332 137.907 136.418 138.34 136.418H138.892V119.426ZM138.892 97.6221H138.34C137.907 97.6221 137.479 97.7073 137.08 97.8728C136.68 98.0383 136.317 98.2809 136.011 98.5867C135.706 98.8925 135.463 99.2556 135.298 99.6551C135.132 100.055 135.047 100.483 135.048 100.915V111.322C135.047 111.754 135.132 112.182 135.298 112.582C135.463 112.982 135.706 113.345 136.011 113.65C136.317 113.956 136.68 114.199 137.08 114.364C137.479 114.53 137.907 114.615 138.34 114.615H138.892V97.6221Z" fill="#C1BBEA"/>
<path d="M270.047 74.2911V296.654C270.047 305.357 262.992 312.356 254.457 312.356H154.599C145.95 312.356 138.894 305.357 138.894 296.654V74.2911C138.894 65.7 145.95 58.6436 154.599 58.6436H254.457C262.992 58.6436 270.047 65.7 270.047 74.2911Z" fill="#3C3A46"/>
<path d="M254.457 63.7637H214.072C212.508 63.7637 211.259 64.8297 210.664 66.2778C210.155 67.5073 209.291 68.5575 208.184 69.2952C207.076 70.0329 205.774 70.4246 204.443 70.4206C203.121 70.4184 201.829 70.0236 200.732 69.2863C199.634 68.549 198.78 67.5023 198.279 66.2791C197.685 64.8309 196.436 63.7637 194.869 63.7637H154.541C148.729 63.7637 144.016 68.4766 144.016 74.2902V296.654C144.016 302.513 148.795 307.294 154.543 307.294H254.344C260.164 307.294 264.926 302.532 264.926 296.711V74.2914C264.926 68.4865 260.203 63.7637 254.457 63.7637Z" fill="#E7E4F9"/>
<path d="M247.191 174.798H162.199C159.112 174.798 156.152 173.571 153.969 171.389C151.786 169.206 150.56 166.245 150.559 163.159V87.1505C150.559 84.0634 151.786 81.1027 153.968 78.9197C156.151 76.7367 159.112 75.5101 162.199 75.5098H247.191C250.279 75.5098 253.239 76.7362 255.422 78.9193C257.606 81.1023 258.832 84.0632 258.832 87.1505V163.159C258.832 166.246 257.605 169.206 255.422 171.389C253.239 173.572 250.278 174.798 247.191 174.798Z" fill="white"/>
<path d="M143.002 176.685C143.002 176.685 140.825 175.089 134.79 175.334C132.088 175.439 126.222 174.776 120.274 173.322C112.943 171.516 105.494 168.499 103.736 164.227C100.568 156.484 101.461 150.546 101.461 150.546L118.712 150.844C118.712 150.844 120.224 157.36 121.625 158.346C122.044 158.639 124.024 159.56 126.633 160.729C126.64 160.729 126.646 160.737 126.646 160.737C132.824 163.49 142.499 167.582 143.207 167.743C144.217 167.974 151.96 164.806 152.445 166.934C152.924 169.067 150.09 169.873 150.09 169.873C150.09 169.873 159.64 171.323 159.675 173.216C159.712 175.096 155.673 181.093 143.002 176.685Z" fill="#B7ACFE"/>
<path opacity="0.5" d="M118.825 161.051C116.848 162.963 117.442 166.238 118.387 168.824C118.95 170.35 119.58 171.851 120.274 173.322C112.943 171.516 105.494 168.499 103.736 164.227C100.568 156.484 101.461 150.546 101.461 150.546L118.712 150.844C118.712 150.844 120.224 157.36 121.625 158.346C122.044 158.639 124.024 159.56 126.633 160.729C124.007 159.844 120.796 159.139 118.825 161.051Z" fill="#9F90FF"/>
<path d="M82.8877 290.275H91.1474V303.725H82.8877V290.275Z" fill="#B7ACFE"/>
<path d="M82.8877 292.188V296.944C85.6547 297.108 88.4313 296.915 91.1486 296.367V292.188H82.8877Z" fill="#9F90FF"/>
<path d="M79.7155 308.674H105.942C106.567 308.674 107.139 308.41 107.553 307.976C107.967 307.542 108.226 306.944 108.226 306.288C108.226 305.291 107.635 304.402 106.744 304.046C103.984 302.964 99.1572 301.759 98.1369 300.692C96.7716 299.268 94.3849 296.883 92.6783 297.004C90.9717 297.124 89.9526 299.98 87.3359 301.647C85.4796 302.828 83.4737 299.908 82.4758 298.115C82.1344 297.509 81.2848 297.502 80.9658 298.115C78.8449 302.123 79.7155 308.674 79.7155 308.674Z" fill="#302E3A"/>
<path d="M52.6116 290.275H60.8713V303.725H52.6116V290.275Z" fill="#B7ACFE"/>
<path d="M60.8713 289.412V296.943C58.1047 297.108 55.3285 296.914 52.6116 296.367V289.412H60.8713Z" fill="#9F90FF"/>
<path d="M64.0446 308.674H37.8186C37.1928 308.674 36.6215 308.41 36.2072 307.976C35.7737 307.521 35.5323 306.917 35.5332 306.288C35.5332 305.291 36.1256 304.402 37.016 304.046C39.7762 302.964 44.6029 301.759 45.6232 300.692C46.9884 299.268 49.3752 296.883 51.0806 297.004C52.7872 297.124 53.8074 299.98 56.4242 301.647C58.2792 302.828 60.2863 299.908 61.2843 298.115C61.6244 297.509 62.4752 297.502 62.7931 298.115C64.9152 302.123 64.0446 308.674 64.0446 308.674Z" fill="#302E3A"/>
<path d="M96.7445 292.96C96.7445 292.96 90.1939 293.479 84.6511 293.232C83.9019 293.201 83.1535 293.151 82.4066 293.083C80.3834 292.882 78.6855 292.543 77.7753 291.97C74.2421 289.765 74.5229 216.852 74.5229 216.852C74.5229 216.852 65.9874 291.86 64.5553 292.615C64.0359 292.887 61.967 292.777 59.4293 292.426C54.9736 291.801 49.0661 290.416 47.5821 289.049C46.0152 287.605 47.9011 237.825 49.301 205.493C49.8143 193.491 50.2693 183.888 50.4511 180.063C50.5043 178.898 50.5365 178.268 50.5365 178.268L53.5614 178.391L98.4684 180.265C98.879 181.482 99.0868 185.937 99.1461 192.43C99.4182 221.842 96.7445 292.959 96.7445 292.959V292.96Z" fill="#3C3A46"/>
<path d="M99.1461 192.43C88.6073 193.543 78.1463 195.397 67.8671 197.967C62.286 199.364 56.6975 200.998 51.7336 203.907C50.9013 204.394 50.0888 204.921 49.2998 205.493C49.8143 193.491 50.2694 183.889 50.4524 180.064C50.9792 179.758 51.506 179.458 52.039 179.179C52.5399 178.912 53.0481 178.651 53.5614 178.392L98.4684 180.265C98.879 181.482 99.0868 185.938 99.1461 192.43Z" fill="#302E3A"/>
<path d="M101.052 160.936L102.855 170.876L105.224 183.954C74.9891 187.928 47.0466 180.612 47.0466 180.612L48.4651 165.959L49.1959 158.494L49.2603 157.813C48.3946 157.536 47.5079 156.919 46.6274 156.053C41.4185 150.958 36.4373 137.419 36.4373 137.419C36.4373 137.419 38.8933 133.822 43.5407 128.784C45.1618 127.029 46.8375 125.325 48.5652 123.675C54.9155 117.608 62.9118 113.458 71.5907 112.087C79.6946 110.802 87.7119 111.924 94.8289 116.359C95.8368 116.983 96.8657 117.736 97.9231 118.572C104.651 123.944 112.178 133.254 117.245 140.003C120.779 144.728 123.114 148.198 123.114 148.198C114.783 159.757 104.502 160.857 101.756 160.936C101.3 160.949 101.052 160.936 101.052 160.936Z" fill="#5A40FE"/>
<path d="M101.052 160.936L102.855 170.877C101.932 171.112 100.996 171.282 100.045 171.367C97.1562 171.636 94.1202 171.076 91.7718 169.373C89.4221 167.67 87.8886 164.718 88.3091 161.844L96.8928 139.644C99.1361 142.595 101.917 145.907 105.537 146.701C109.007 147.454 112.654 145.737 115.038 143.119C115.888 142.166 116.628 141.121 117.245 140.003C120.779 144.729 123.114 148.199 123.114 148.199C114.782 159.758 104.502 160.857 101.755 160.936C101.3 160.95 101.052 160.936 101.052 160.936Z" fill="#3B1FEA"/>
<path d="M105.224 183.955C74.9889 187.929 47.0464 180.613 47.0464 180.613L48.4649 165.96L49.1958 158.495L49.2601 157.814C48.3944 157.537 47.5077 156.92 46.6272 156.054L46.9685 155.912C54.9438 161.596 65.5593 163.406 74.9605 160.667C84.3629 157.928 93.2174 148.718 96.8927 139.644C99.0075 146.015 100.051 154.443 101.755 160.936C101.3 160.95 101.052 160.936 101.052 160.936L105.224 183.955Z" fill="#3B1FEA"/>
<path d="M51.0052 142.209C50.8073 144.949 50.6095 147.688 50.4091 150.427C50.2112 153.138 49.9911 155.918 49.1972 158.495L49.259 157.814C43.2426 155.919 36.4373 137.421 36.4373 137.421C36.4373 137.421 38.8933 133.822 43.5407 128.784C42.6614 132.383 43.3205 136.349 45.3932 139.428C46.6484 141.296 48.8843 142.954 51.0052 142.209Z" fill="#3B1FEA"/>
<path d="M105.221 184.574C105.076 184.574 104.937 184.523 104.826 184.431C104.715 184.338 104.64 184.21 104.615 184.068L96.8607 142.194C96.8428 142.113 96.8414 142.029 96.8567 141.948C96.8719 141.866 96.9034 141.788 96.9494 141.719C96.9954 141.65 97.0548 141.591 97.1242 141.545C97.1935 141.499 97.2714 141.468 97.3531 141.453C97.4349 141.438 97.5188 141.44 97.5998 141.458C97.6809 141.476 97.7575 141.51 97.825 141.559C97.8925 141.607 97.9495 141.669 97.9927 141.74C98.0359 141.811 98.0644 141.89 98.0764 141.972L105.83 183.844C105.847 183.933 105.843 184.025 105.82 184.113C105.797 184.201 105.755 184.282 105.697 184.352C105.638 184.422 105.566 184.478 105.483 184.516C105.401 184.554 105.311 184.574 105.221 184.574ZM47.049 181.23C46.9624 181.23 46.8768 181.212 46.7976 181.177C46.7185 181.142 46.6476 181.09 46.5895 181.026C46.5315 180.962 46.4876 180.886 46.4606 180.804C46.4337 180.722 46.4243 180.635 46.4332 180.548L50.4226 141.861C50.4425 141.698 50.5245 141.55 50.6514 141.447C50.7783 141.345 50.9401 141.295 51.1028 141.309C51.2653 141.326 51.4143 141.408 51.5172 141.535C51.6201 141.662 51.6685 141.824 51.6519 141.987L47.6624 180.677C47.6465 180.829 47.5751 180.969 47.4619 181.072C47.3486 181.174 47.2016 181.231 47.049 181.231V181.23Z" fill="#3F2CBB"/>
<path d="M85.4846 112.467C84.6697 114.877 81.6497 116.533 79.3607 117.161C77.1903 117.757 74.8914 117.808 72.7136 117.233C67.8077 115.937 67.6853 112.899 67.6853 112.899C68.5139 112.631 68.9183 110.517 69.1075 108.243C69.3461 105.376 69.2534 102.256 69.2534 102.256H82.2817C82.2817 102.256 82.6638 106.214 83.0781 109.264C83.2537 110.527 83.9623 111.562 84.8713 112.145C85.2237 112.374 85.4846 112.467 85.4846 112.467Z" fill="#B7ACFE"/>
<path opacity="0.5" d="M83.7137 110.978C79.2617 112.588 74.0059 112.063 70.234 109.207C69.8383 108.907 69.4636 108.585 69.1074 108.243C69.3461 105.376 69.2533 102.256 69.2533 102.256H82.2816C82.2816 102.256 82.6638 106.214 83.078 109.264C83.1634 109.879 83.3773 110.467 83.7137 110.978Z" fill="#9F90FF"/>
<path d="M86.2823 116.267C86.4084 116.38 86.2056 116.893 85.5106 117.712C84.8144 118.518 83.6012 119.639 81.6423 120.611C78.2712 122.144 74.3645 122.416 70.8091 121.414C68.7488 120.78 67.2735 119.778 66.6131 118.824C65.9354 117.869 66.017 117.225 66.1642 117.191C66.3571 117.119 66.6094 117.576 67.3366 118.147C68.0538 118.728 69.3288 119.363 71.2568 119.812C74.4462 120.708 77.9447 120.465 80.9584 119.094C82.7739 118.355 84.0155 117.52 84.8527 116.972C85.6862 116.415 86.1388 116.136 86.2835 116.267H86.2823ZM105.864 155.632C105.763 155.255 107.178 154.688 109.794 153.292C112.062 152.202 114.145 150.761 115.965 149.022C118.191 147.068 119.221 145.945 119.546 146.177C119.817 146.357 119.285 147.899 117.112 150.226C115.167 152.085 112.941 153.625 110.516 154.79C107.569 156.004 105.938 155.958 105.864 155.632ZM47.5078 150.026C47.3087 150.286 46.0943 149.853 44.3271 148.092C42.94 146.512 41.7849 144.743 40.8966 142.837C39.9963 140.515 40.0878 139.229 40.4143 139.148C40.789 139.047 41.3084 140.119 42.4029 142.132C43.2251 143.896 44.2945 145.534 45.5786 146.996C46.9835 148.81 47.7577 149.717 47.5078 150.026Z" fill="white"/>
<path d="M82.4065 293.084C80.3833 292.883 78.6853 292.544 77.7751 291.971C74.242 289.766 74.5227 216.852 74.5227 216.852C74.5227 216.852 65.9872 291.861 64.5552 292.615C64.0358 292.888 61.9668 292.777 59.4292 292.426C63.3779 266.456 73.3776 207.269 76.123 207.205L82.4065 293.084Z" fill="#302E3A"/>
<path d="M59.9189 178.397C58.3446 178.554 56.0729 178.365 53.4647 177.877C44.8909 176.277 32.6083 171.449 28.8031 164.996C28.2661 164.097 27.8298 163.142 27.5021 162.147C25.1661 155.048 37.4548 140.438 37.4548 140.438C40.7765 147.233 43.4168 153.856 47.687 157.116C47.368 157.389 45.2298 160.872 44.5793 162.167C44.5657 162.199 44.5595 162.225 44.5657 162.251C44.4098 163.871 58.4868 171.034 58.4868 171.034C58.4868 171.034 60.0228 171.365 61.5909 170.252C63.1651 169.139 66.1183 167.012 67.0421 168.385C67.9597 169.765 61.0962 174.188 63.9257 172.92C66.2679 171.872 71.8564 170.649 74.0095 171.151C74.4522 171.248 74.7576 171.423 74.8417 171.69C75.376 173.245 66.6773 177.714 59.9189 178.397Z" fill="#B7ACFE"/>
<path d="M74.8444 171.687C75.3774 173.245 66.6774 177.715 59.9203 178.394C58.3423 178.551 56.0742 178.367 53.4636 177.88C58.41 177.628 63.2919 176.646 67.9512 174.966C70.2143 174.141 72.5825 173.004 74.0108 171.147C74.4536 171.246 74.7553 171.421 74.8444 171.687Z" fill="#9F90FF"/>
<path d="M86.6531 97.8551C86.3019 100.351 85.7949 102.982 84.0908 104.837C82.5783 106.482 80.3016 107.266 78.0682 107.372C76.8563 107.431 75.6283 107.306 74.4819 106.903C72.1582 106.093 70.3613 104.245 68.7474 102.394C68.1434 101.711 67.561 101.009 67.0013 100.29C66.425 99.5431 65.7052 98.9273 64.9336 98.3856C64.9298 98.3832 64.9261 98.3807 64.9224 98.3782C64.3066 97.9454 63.8045 97.3678 63.3271 96.7916C62.9462 96.3315 62.5604 95.8443 62.4627 95.263C62.3737 94.7375 62.5369 94.1871 62.8411 93.7543C63.0279 93.4971 63.2542 93.2745 63.5114 93.0878C63.007 90.3674 63.3066 87.5589 64.3733 85.0061C65.8327 81.6046 68.5632 78.9079 71.9826 77.4909L84.6015 75.5098C84.6559 77.3969 85.4635 79.1629 86.036 80.956C87.7748 86.3677 87.4409 92.2221 86.6531 97.8551Z" fill="#B7ACFE"/>
<path d="M91.757 81.5386C91.25 82.7134 90.6156 83.8586 89.6757 84.7267C88.7358 85.5949 87.4522 86.1539 86.1821 85.9918C85.1272 85.8533 84.2022 85.2474 83.224 84.817C82.5747 84.5264 81.6967 84.6167 80.909 84.8702C80.0495 85.1559 79.1479 85.2993 78.2452 85.2177L77.4537 85.1522C77.5724 84.5783 78.3837 84.5548 78.8375 84.1826C75.6395 83.8438 72.3327 85.8397 71.1393 88.8263C70.7052 89.9244 69.3684 93.857 69.3684 93.857C69.3684 93.857 68.0464 92.9592 67.4689 92.7354C66.7009 92.4386 65.8278 92.2246 65.0116 92.4299C64.3723 92.587 63.7799 93.0458 63.5993 93.679C63.2939 92.3965 62.6496 91.359 62.1005 90.2435C61.2756 88.5715 60.9924 86.6695 61.1643 84.8133C61.2361 84.0742 61.3559 83.3405 61.523 82.617C61.7666 81.525 62.0918 80.4454 62.4146 79.372C62.9118 77.7445 63.4225 76.0936 64.3574 74.6714C65.6658 72.6853 68.4298 73.2777 70.6731 72.4813C72.9114 71.6836 74.6279 69.4601 77.0048 69.4836C78.5321 69.5021 80.0693 69.6221 81.5298 70.0747C82.9853 70.5286 84.3593 71.3448 85.2892 72.5567C85.5811 72.9388 85.8247 73.3543 86.0535 73.7785C86.3923 74.4129 86.6978 75.077 87.075 75.6917C88.0117 77.2143 89.3832 78.4212 91.0125 79.1568C91.2982 79.2866 91.6037 79.4054 91.8089 79.649C92.2393 80.1548 92.0241 80.9277 91.757 81.5386Z" fill="#221E3D"/>
<path opacity="0.5" d="M66.911 97.4454C66.9208 97.5884 66.8767 97.7299 66.7875 97.842C66.6982 97.9542 66.5702 98.0288 66.4287 98.0514C66.2916 98.0652 66.1532 98.0421 66.028 97.9846C65.5791 97.8077 65.2365 97.4355 64.9397 97.0534C64.4005 96.3608 63.9232 95.5595 63.9046 94.6814C63.8997 94.4044 63.9467 94.1089 64.1334 93.9036C64.3956 93.613 64.8581 93.5944 65.2402 93.6983C66.0082 93.9036 66.6439 94.5392 66.8578 95.3023L66.911 97.4454Z" fill="#9F90FF"/>
<path d="M85.0332 79.3621C84.0822 79.9544 82.8518 79.7492 81.7684 79.4672C80.0779 79.0282 78.3651 78.4408 76.6326 78.6609C75.773 78.7743 74.9504 79.0811 74.2264 79.5581C73.5025 80.0351 72.896 80.6699 72.4526 81.4149C72.2374 81.7859 72.0606 82.1829 71.8034 82.5267C71.1727 83.3615 70.1091 83.772 69.0679 83.8487C68.0229 83.9254 66.9878 83.7053 65.9663 83.4864C64.9646 83.2761 63.9666 83.0609 62.9686 82.847C62.4863 82.7419 62.0139 82.6405 61.5217 82.617C61.7666 81.525 62.0906 80.4454 62.4146 79.372C62.9117 77.7445 63.4225 76.0936 64.3574 74.6714C65.6658 72.6853 68.4297 73.2777 70.6731 72.4813C72.9114 71.6836 74.6279 69.4601 77.0048 69.4836C78.5321 69.5021 80.0693 69.6221 81.5298 70.0747C82.9853 70.5286 84.3593 71.3448 85.2892 72.5567C85.5811 72.9388 85.8247 73.3543 86.0535 73.7785C86.14 74.4847 86.2823 75.1957 86.3354 75.9068C86.4344 77.2004 86.1363 78.6794 85.0332 79.3621Z" fill="#312B58"/>
<path d="M73.3492 90.8552C73.2998 90.8255 73.2911 90.713 73.3715 90.5275C73.4531 90.3457 73.6275 90.086 73.9601 89.8473C74.255 89.6611 74.5848 89.537 74.9293 89.4828C75.2738 89.4286 75.6257 89.4453 75.9635 89.532C76.3543 89.6569 76.5992 89.851 76.7327 89.9994C76.8651 90.1516 76.8923 90.2604 76.8515 90.3061C76.7612 90.4125 76.4582 90.2023 75.8238 90.086C75.5609 90.0179 75.2869 90.0045 75.0187 90.0466C74.7504 90.0888 74.4937 90.1855 74.2644 90.3309C73.6955 90.6376 73.4717 90.9307 73.3492 90.8552ZM82.3794 89.0596C82.3027 88.9854 82.4734 88.602 83.1585 88.2372C83.7553 87.9786 84.4082 87.8765 85.0555 87.9404C85.8185 88.0789 86.098 88.3918 86.0461 88.4882C85.9904 88.6131 85.6491 88.5266 84.9999 88.5105C84.4488 88.4557 83.8929 88.5425 83.3848 88.7628C82.7714 88.978 82.4733 89.1647 82.3794 89.0596ZM79.5993 98.9579C79.6488 98.9133 79.8096 99.042 80.1101 99.2522C80.261 99.3524 80.4563 99.4711 80.6851 99.5193C80.904 99.5663 81.2169 99.5255 81.3777 99.3462C81.667 99.0852 81.4593 98.295 81.3863 97.6791C81.2836 97.0352 81.149 96.3967 80.9832 95.766C80.6332 94.2684 80.4094 93.5277 80.538 93.477C80.6418 93.4337 81.0722 94.1039 81.5372 95.6201C81.8018 96.628 81.9774 97.6037 82.085 98.5918C82.1011 98.7674 82.111 98.9566 82.0764 99.1619C82.0414 99.385 81.9376 99.5917 81.7796 99.753C81.3554 100.122 80.8793 100.081 80.5553 99.9756C80.2214 99.852 80.0235 99.6603 79.8838 99.5069C79.6142 99.1903 79.5548 98.9974 79.5993 98.9579ZM78.8623 102.794C78.8759 102.848 78.7559 102.95 78.474 103.04C78.0433 103.167 77.5912 103.204 77.1458 103.148C76.1416 102.996 75.1807 102.539 74.4721 101.773C74.0764 101.296 73.9403 100.804 73.9589 100.489C73.9737 100.167 74.085 100.037 74.1382 100.05C74.2804 100.066 74.1654 100.648 74.8988 101.392C75.4887 102.033 76.3494 102.454 77.2299 102.583C78.2724 102.773 78.8289 102.646 78.8623 102.794Z" fill="#2F2A4F"/>
<path d="M84.4013 94.1169C84.7633 94.1169 85.0567 93.5892 85.0567 92.9383C85.0567 92.2874 84.7633 91.7598 84.4013 91.7598C84.0393 91.7598 83.7458 92.2874 83.7458 92.9383C83.7458 93.5892 84.0393 94.1169 84.4013 94.1169Z" fill="#2F2A4F"/>
<path d="M75.8632 94.9176C76.2252 94.9176 76.5186 94.39 76.5186 93.7391C76.5186 93.0882 76.2252 92.5605 75.8632 92.5605C75.5012 92.5605 75.2078 93.0882 75.2078 93.7391C75.2078 94.39 75.5012 94.9176 75.8632 94.9176Z" fill="#2F2A4F"/>
<path d="M65.024 171.507C65.5026 160.315 74.9643 151.629 86.1561 152.108C97.348 152.586 106.034 162.047 105.556 173.24C105.077 184.433 95.6166 193.118 84.4236 192.639C73.2305 192.161 64.5454 182.7 65.024 171.507Z" fill="#573DFF"/>
<path d="M70.8956 174.467C71.8194 180.827 76.7549 185.634 82.7627 186.695C83.7495 186.872 84.7661 186.945 85.7962 186.908C88.0763 186.824 90.305 186.206 92.303 185.105C94.301 184.003 96.0124 182.447 97.2997 180.563C99.3532 177.556 100.201 173.887 99.6741 170.284C99.4045 168.393 98.7624 166.574 97.7851 164.933C96.8078 163.292 95.5146 161.86 93.9805 160.722C91.6316 158.956 88.7976 157.952 85.8605 157.846C84.8514 157.809 83.8225 157.876 82.7849 158.052C80.8695 158.389 79.0407 159.105 77.4063 160.159C75.7718 161.213 74.3646 162.583 73.2675 164.189C71.2146 167.195 70.3679 170.864 70.8956 174.467Z" fill="#4C30FC"/>
<path d="M88.9015 176.049C88.6059 176.494 88.1854 176.849 87.6413 177.114C87.0972 177.378 86.4665 177.532 85.7517 177.573V178.677C85.7535 178.739 85.7427 178.8 85.7199 178.858C85.6972 178.915 85.663 178.967 85.6193 179.011C85.5732 179.056 85.5183 179.091 85.4581 179.114C85.3979 179.137 85.3337 179.147 85.2694 179.144C85.146 179.148 85.026 179.103 84.9355 179.02C84.8904 178.975 84.8554 178.922 84.8326 178.862C84.8098 178.803 84.7997 178.74 84.8031 178.677V177.573C83.7219 177.509 82.6593 177.263 81.6608 176.843C81.534 176.789 81.4257 176.7 81.3491 176.586C81.2584 176.461 81.2141 176.309 81.224 176.155C81.234 176.002 81.2975 175.856 81.4035 175.745C81.4615 175.681 81.5325 175.631 81.6117 175.598C81.6909 175.564 81.7764 175.548 81.8623 175.551C81.9662 175.551 82.0652 175.572 82.1591 175.613C82.9988 175.986 83.8806 176.194 84.8031 176.235V172.657C84.1941 172.504 83.5985 172.301 83.0223 172.051C82.5525 171.843 82.1391 171.525 81.8166 171.125C81.4951 170.726 81.3343 170.221 81.3343 169.608C81.3343 169.069 81.4666 168.572 81.73 168.115C81.9947 167.66 82.3892 167.28 82.9135 166.979C83.4366 166.679 84.0661 166.497 84.8031 166.435V165.347C84.8031 165.211 84.8464 165.097 84.9355 165.004C84.9779 164.959 85.0297 164.922 85.0872 164.898C85.1448 164.874 85.2069 164.862 85.2694 164.863C85.4054 164.863 85.5179 164.91 85.6119 165.004C85.6573 165.049 85.693 165.102 85.7171 165.161C85.7411 165.219 85.7529 165.282 85.7517 165.346V166.419C86.7682 166.461 87.6697 166.632 88.4587 166.932C88.7493 167.036 88.894 167.244 88.894 167.554C88.8942 167.721 88.8335 167.881 88.7234 168.006C88.6686 168.072 88.5994 168.124 88.5212 168.159C88.4429 168.195 88.3577 168.211 88.272 168.209C88.1857 168.203 88.1011 168.182 88.0222 168.147C87.2909 167.893 86.5254 167.751 85.7517 167.726V171.429C86.3858 171.57 87.0074 171.762 87.6104 172.004C88.1026 172.212 88.5156 172.52 88.847 172.929C89.1785 173.34 89.3454 173.881 89.3454 174.555C89.3454 175.104 89.197 175.603 88.9015 176.049ZM83.2709 170.558C83.6172 170.806 84.1279 171.018 84.8031 171.195V167.773C84.1811 167.856 83.6827 168.045 83.3092 168.341C83.1307 168.476 82.9868 168.651 82.8896 168.853C82.7924 169.054 82.7446 169.276 82.7503 169.5C82.7503 169.956 82.9234 170.31 83.2709 170.558ZM87.9455 174.462C87.9455 174.058 87.76 173.744 87.3927 173.521C87.0242 173.299 86.4776 173.088 85.7517 172.891V176.235C87.2134 176.132 87.9455 175.541 87.9455 174.462Z" fill="white"/>
<path d="M257.017 220.679C256.949 220.793 257.728 221.489 259.606 222.386C260.546 222.827 261.768 223.301 263.296 223.67C264.595 223.982 265.92 224.17 267.254 224.231C267.761 224.246 268.31 224.233 268.893 224.114C269.386 224.002 269.885 223.817 270.333 223.498C270.776 223.184 271.142 222.774 271.403 222.298C271.91 221.366 272.038 220.27 271.746 219.241C271.455 218.194 270.664 217.345 269.743 216.891C268.813 216.42 267.746 216.291 266.731 216.527C266.219 216.654 265.739 216.862 265.292 217.207C264.843 217.549 264.501 218.061 264.323 218.557C264.137 219.059 264.063 219.559 264.033 220.034C264.012 220.507 264.014 220.977 264.066 221.446C264.251 223.313 265.018 225.135 266.329 226.527C267.061 227.294 267.956 227.885 268.948 228.259C269.796 228.582 270.697 228.742 271.604 228.732C273.28 228.715 274.609 228.094 275.456 227.399C275.887 227.044 276.205 226.639 276.386 226.246C276.571 225.849 276.616 225.484 276.603 225.199C276.562 224.622 276.331 224.407 276.276 224.436C276.195 224.465 276.258 224.721 276.159 225.166C276.065 225.612 275.745 226.228 274.957 226.724C274.174 227.219 273.025 227.638 271.624 227.564C270.239 227.493 268.59 226.937 267.355 225.56C266.282 224.424 265.624 222.882 265.469 221.306C265.395 220.526 265.412 219.676 265.642 219.054C265.763 218.738 265.924 218.504 266.164 218.316C266.403 218.127 266.733 217.976 267.063 217.898C267.753 217.742 268.475 217.831 269.106 218.15C269.734 218.463 270.217 219.001 270.392 219.634C270.578 220.274 270.492 221.027 270.167 221.617C269.837 222.214 269.305 222.58 268.587 222.736C267.752 222.936 266.8 222.869 265.937 222.82C265.132 222.764 264.331 222.665 263.536 222.526C262.309 222.308 261.1 222.001 259.918 221.606C258.022 220.966 257.102 220.526 257.015 220.679H257.017ZM308.064 203.01L323.163 207.138C323.962 203.659 326.991 200.405 330.452 197.195C330.967 196.488 330.65 195.476 329.813 195.211C323.176 193.124 308.064 203.01 308.064 203.01Z" fill="#9F90FF"/>
<path d="M283.255 254.37L283.131 254.333C283.184 254.548 285.825 265.092 286.897 265.953C287.499 266.435 290.433 266.498 292.893 266.456C293.81 266.44 294.726 266.412 295.641 266.372L296.032 266.355C296.18 266.347 296.328 266.339 296.476 266.33L296.742 265.956L297.051 265.53L297.329 265.141L300.637 260.52C302.99 260.734 305.357 260.738 307.71 260.53L311.863 266.33C311.863 266.33 320.366 266.817 321.442 265.953C322.477 265.124 324.97 255.29 325.19 254.395C326.093 253.776 326.966 253.115 327.806 252.412C328.436 251.885 329.045 251.332 329.631 250.755C330.036 250.36 330.429 249.953 330.81 249.535L331.176 249.129C331.306 248.983 331.43 248.836 331.553 248.689L331.91 248.26L332.253 247.836C332.326 247.745 332.396 247.65 332.466 247.56C332.557 247.445 332.644 247.325 332.731 247.207C333.095 246.725 333.438 246.23 333.763 245.728C334.013 245.347 334.253 244.96 334.483 244.567C337.724 242.466 341.185 240.162 342.192 239.303C344.213 237.568 343.926 227.936 343.443 224.66C343.437 224.605 343.425 224.55 343.409 224.496C343.405 224.467 343.398 224.439 343.388 224.412C343.374 224.362 343.356 224.31 343.338 224.259C343.313 224.193 343.285 224.129 343.254 224.066C343.242 224.035 343.227 224.006 343.212 223.975L343.175 223.901L343.126 223.815C343.024 223.635 342.91 223.463 342.783 223.3C342.569 223.017 342.336 222.75 342.084 222.5L341.948 222.364C341.854 222.271 341.758 222.181 341.66 222.092C341.561 221.997 341.46 221.904 341.356 221.815C340.835 221.354 340.248 220.887 339.625 220.434L339.249 220.161C338.865 219.89 338.476 219.624 338.084 219.364C337.955 219.277 337.822 219.193 337.693 219.104C337.559 219.021 337.431 218.937 337.297 218.853C337.169 218.769 337.035 218.689 336.905 218.606C336.526 218.368 336.144 218.135 335.759 217.906L335.755 217.902C335.539 217.777 335.328 217.651 335.123 217.529C334.62 217.238 334.146 216.972 333.734 216.742C333.508 216.4 333.275 216.062 333.036 215.728C332.931 215.577 332.819 215.427 332.707 215.277C326.669 207.186 316.177 201.834 304.241 201.834C300.813 201.829 297.4 202.28 294.092 203.177C282.412 206.352 273.448 214.867 271.003 225.433C270.558 227.344 270.334 229.299 270.335 231.261C270.335 240.634 275.385 248.982 283.255 254.37Z" fill="#B7ACFE"/>
<path opacity="0.46" d="M283.255 254.37L283.131 254.333C283.184 254.548 285.825 265.092 286.897 265.952C287.499 266.435 290.433 266.498 292.893 266.456C294.183 266.342 295.467 266.175 296.742 265.956H296.746L297.05 265.529L297.329 265.141C288.393 260.912 281.376 252.768 278.563 243.288C277.644 240.167 277.17 236.932 277.153 233.679C277.098 226.642 279.115 219.576 283.02 213.717C285.873 209.442 289.698 205.844 294.092 203.177C282.412 206.351 273.448 214.867 271.003 225.433C270.558 227.343 270.334 229.299 270.335 231.26C270.335 240.634 275.385 248.982 283.255 254.37Z" fill="#9F90FF"/>
<path opacity="0.46" d="M283.255 254.37L283.131 254.333C283.184 254.548 285.824 265.092 286.897 265.952C287.499 266.435 290.432 266.498 292.893 266.456C293.519 266.446 294.118 266.429 294.634 266.411C294.816 266.404 294.987 266.396 295.148 266.393C295.312 266.387 295.477 266.38 295.641 266.372L296.032 266.354C296.18 266.347 296.328 266.339 296.476 266.33L296.742 265.956H296.745L297.05 265.53L297.329 265.141L300.637 260.52C302.99 260.734 305.357 260.737 307.71 260.53L308.496 261.628L311.862 266.331C311.862 266.331 320.366 266.817 321.442 265.952C322.477 265.124 324.97 255.29 325.19 254.395C325.421 254.238 325.648 254.08 325.871 253.916L326.057 253.78C326.653 253.342 327.236 252.886 327.806 252.412C328.436 251.885 329.045 251.332 329.631 250.755C330.036 250.36 330.429 249.953 330.809 249.535L331.175 249.129C331.305 248.983 331.43 248.836 331.553 248.689L331.91 248.259L332.253 247.835C332.326 247.745 332.396 247.65 332.465 247.56C332.557 247.445 332.643 247.325 332.731 247.207C333.095 246.725 333.437 246.23 333.763 245.728C334.012 245.347 334.252 244.96 334.482 244.567C337.724 242.466 341.185 240.162 342.192 239.302C344.212 237.567 343.926 227.936 343.443 224.66C343.436 224.604 343.425 224.549 343.409 224.496C343.405 224.467 343.398 224.439 343.388 224.412C343.374 224.362 343.355 224.31 343.338 224.258C343.313 224.193 343.285 224.128 343.254 224.065C343.242 224.034 343.227 224.006 343.212 223.975L343.175 223.901L343.125 223.814C343.024 223.635 342.91 223.463 342.783 223.3C342.569 223.017 342.336 222.75 342.084 222.5L341.948 222.364C341.854 222.271 341.758 222.181 341.66 222.092C341.561 221.997 341.46 221.904 341.356 221.815C340.835 221.353 340.248 220.887 339.624 220.433L339.248 220.161C338.864 219.889 338.476 219.623 338.084 219.364C337.955 219.277 337.821 219.193 337.693 219.104C337.559 219.021 337.431 218.937 337.297 218.853C337.168 218.769 337.035 218.688 336.905 218.605C336.525 218.369 336.143 218.136 335.759 217.906L335.755 217.902C335.538 217.777 335.328 217.651 335.123 217.528C334.62 217.238 334.146 216.972 333.734 216.742C333.508 216.399 333.275 216.061 333.035 215.728C332.93 215.577 332.819 215.427 332.706 215.276C333.881 221.825 332.595 228.789 329.913 234.946C328.941 237.169 327.77 239.354 326.074 241.092C324.274 242.938 321.952 244.207 319.555 245.158C308.108 249.706 294.537 247.211 284.46 240.127C281.799 238.248 279.349 236.086 277.153 233.68C274.831 231.145 272.771 228.381 271.004 225.432C270.559 227.343 270.334 229.298 270.336 231.26C270.336 240.634 275.385 248.982 283.255 254.37Z" fill="#9F90FF"/>
<path opacity="0.46" d="M331.909 248.259C332.196 247.913 332.469 247.563 332.731 247.207C335.38 237.551 336.191 227.483 335.123 217.527C334.62 217.238 334.151 216.972 333.734 216.742C333.51 216.398 333.277 216.059 333.036 215.728C333.801 220.454 333.987 225.286 333.812 230.079C333.585 236.17 332.791 242.224 331.91 248.258L331.909 248.259ZM308.15 259.626C308.234 260.296 308.349 260.967 308.496 261.629L311.863 266.331C311.863 266.331 320.366 266.817 321.442 265.952C322.477 265.124 324.97 255.29 325.19 254.394C325.421 254.237 325.648 254.08 325.872 253.916L326.057 253.78L325.24 253.941C324.295 258.461 320.582 262.286 316.09 263.359C314.863 263.656 313.548 263.753 312.349 263.355C310.542 262.753 309.287 261.153 308.15 259.624V259.626Z" fill="#9F90FF"/>
<path d="M314.053 203.374L328.047 210.391C329.514 207.137 333.122 204.541 337.147 202.073C337.791 201.482 337.679 200.427 336.91 200.003C330.813 196.651 314.053 203.374 314.053 203.374Z" fill="#B7ACFE"/>
<path d="M295.544 208.528C301.071 206.386 307.217 206.496 312.665 208.832C313.26 209.087 313.963 208.872 314.244 208.312L314.342 208.112C314.624 207.554 314.319 206.833 313.646 206.544C307.6 203.951 300.778 203.83 294.643 206.207C293.962 206.471 293.629 207.181 293.893 207.75L293.984 207.952C294.246 208.521 294.939 208.762 295.544 208.528Z" fill="#9F90FF"/>
<path d="M330.056 226.204C331.15 226.204 332.037 225.317 332.037 224.223C332.037 223.129 331.15 222.242 330.056 222.242C328.962 222.242 328.075 223.129 328.075 224.223C328.075 225.317 328.962 226.204 330.056 226.204Z" fill="#302E3A"/>
<path d="M330.655 225.274C331.031 225.274 331.336 224.969 331.336 224.593C331.336 224.216 331.031 223.911 330.655 223.911C330.279 223.911 329.974 224.216 329.974 224.593C329.974 224.969 330.279 225.274 330.655 225.274Z" fill="#ECE9FF"/>
<path d="M329.659 223.711C329.888 223.711 330.074 223.526 330.074 223.297C330.074 223.068 329.888 222.883 329.659 222.883C329.431 222.883 329.245 223.068 329.245 223.297C329.245 223.526 329.431 223.711 329.659 223.711Z" fill="#ECE9FF"/>
<path d="M293.574 184.227C288.516 189.737 288.882 198.304 294.391 203.362C299.902 208.42 308.468 208.054 313.526 202.544C318.584 197.034 318.218 188.467 312.708 183.409C307.198 178.351 298.631 178.717 293.574 184.227Z" fill="#7964FF"/>
<path d="M297.742 185.601C301.18 183.035 305.781 183.096 309.118 185.43C309.666 185.814 310.181 186.259 310.649 186.762C311.686 187.878 312.447 189.222 312.87 190.685C313.293 192.148 313.367 193.691 313.086 195.188C312.636 197.577 311.304 199.709 309.355 201.161C308.335 201.927 307.173 202.483 305.937 202.796C304.7 203.11 303.414 203.175 302.152 202.989C300.209 202.714 298.397 201.85 296.961 200.513C295.753 199.394 294.849 197.987 294.333 196.424C293.817 194.861 293.706 193.192 294.01 191.574C294.46 189.185 295.792 187.053 297.742 185.601Z" fill="#5136FF"/>
<path d="M306.718 196.536C306.489 196.882 306.162 197.159 305.737 197.366C305.315 197.572 304.822 197.691 304.266 197.724V198.584C304.266 198.689 304.231 198.775 304.163 198.843C304.095 198.911 304.002 198.947 303.89 198.947C303.794 198.95 303.701 198.915 303.63 198.85C303.595 198.815 303.568 198.774 303.55 198.728C303.532 198.682 303.524 198.633 303.526 198.584V197.723C302.684 197.674 301.856 197.481 301.078 197.154C300.98 197.112 300.896 197.042 300.837 196.954C300.766 196.857 300.731 196.738 300.739 196.618C300.746 196.499 300.796 196.385 300.879 196.298C300.924 196.249 300.979 196.209 301.041 196.183C301.103 196.157 301.17 196.145 301.237 196.147C301.316 196.147 301.393 196.165 301.466 196.197C302.121 196.487 302.808 196.648 303.526 196.68V193.894C303.052 193.775 302.588 193.617 302.139 193.422C301.773 193.26 301.451 193.012 301.2 192.701C300.949 192.389 300.824 191.996 300.824 191.519C300.824 191.098 300.927 190.711 301.133 190.356C301.339 190 301.647 189.706 302.055 189.471C302.463 189.236 302.952 189.095 303.526 189.046V188.198C303.526 188.094 303.561 188.005 303.629 187.932C303.662 187.897 303.703 187.868 303.748 187.85C303.793 187.831 303.841 187.822 303.89 187.823C303.995 187.823 304.084 187.859 304.157 187.932C304.23 188.005 304.266 188.093 304.266 188.198V189.034C305.057 189.067 305.76 189.2 306.374 189.435C306.601 189.515 306.713 189.677 306.713 189.92C306.713 190.048 306.669 190.167 306.58 190.271C306.537 190.322 306.483 190.363 306.422 190.39C306.361 190.417 306.295 190.43 306.228 190.428C306.161 190.423 306.096 190.407 306.034 190.38C305.465 190.182 304.868 190.072 304.266 190.053V192.937C304.847 193.073 305.329 193.224 305.714 193.385C306.097 193.547 306.419 193.787 306.677 194.106C306.936 194.425 307.064 194.848 307.064 195.372C307.064 195.8 306.949 196.188 306.718 196.536ZM302.333 192.258C302.604 192.452 303.001 192.617 303.526 192.755V190.089C303.041 190.153 302.654 190.302 302.364 190.532C302.224 190.637 302.112 190.773 302.036 190.93C301.96 191.087 301.923 191.26 301.927 191.434C301.927 191.789 302.063 192.065 302.333 192.258ZM305.975 195.3C305.975 194.985 305.83 194.74 305.545 194.567C305.258 194.394 304.831 194.229 304.266 194.076V196.68C305.404 196.6 305.975 196.14 305.975 195.299V195.3Z" fill="white"/>
<path d="M310.651 186.764C311.688 187.879 312.448 189.223 312.872 190.686C313.295 192.15 313.368 193.692 313.087 195.189C312.637 197.578 311.304 199.71 309.355 201.162C308.334 201.928 307.173 202.483 305.936 202.797C304.7 203.11 303.414 203.176 302.152 202.989C300.209 202.714 298.397 201.85 296.961 200.513C302.944 202.5 309.765 198.856 311.022 192.215C311.368 190.382 311.231 188.504 310.651 186.764Z" fill="#3212FF"/>
<path d="M280.01 304.314H341.325V311.763H280.01V304.314Z" fill="#280ECC"/>
<path d="M280.01 305.981V306.822L320.795 306.402L280.01 305.981ZM341.326 304.314H291.472L341.326 305.329M341.33 306.555V306.988C341.33 306.988 326.945 307.175 326.836 307.175C326.836 307.167 341.33 306.557 341.33 306.557V306.555Z" fill="#1A00C1"/>
<path d="M305.192 304.301H316.148V311.763H305.192V304.301Z" fill="white"/>
<path d="M312.607 304.301H316.146V311.763H312.607V304.301Z" fill="#EFEFEF"/>
<path d="M270.825 296.867H332.14V304.316H270.825V296.867Z" fill="#280ECC"/>
<path d="M270.825 298.534V299.374L311.609 298.953L270.825 298.534ZM332.14 296.867H282.286L332.14 299.538M332.144 302.079V302.511C332.144 302.511 317.759 302.699 317.65 302.699C317.65 302.691 332.144 302.079 332.144 302.079Z" fill="#1A00C1"/>
<path d="M296.006 296.852H306.962V304.314H296.006V296.852Z" fill="white"/>
<path d="M303.422 296.852H306.962V304.314H303.422V296.852Z" fill="#EFEFEF"/>
<path d="M278.158 289.418H339.474V296.866H278.158V289.418Z" fill="#280ECC"/>
<path d="M278.158 291.086V291.925L318.942 291.504L278.158 291.086ZM339.474 289.418H289.62L339.474 290.432M339.477 291.659V292.092C339.477 292.092 325.092 292.278 324.984 292.278C324.984 292.271 339.477 291.659 339.477 291.659Z" fill="#1A00C1"/>
<path d="M303.341 289.404H314.296V296.866H303.341V289.404Z" fill="white"/>
<path d="M310.756 289.404H314.295V296.866H310.756V289.404Z" fill="#EFEFEF"/>
<path d="M274.336 281.971H335.651V289.419H274.336V281.971Z" fill="#280ECC"/>
<path d="M274.336 283.638V284.477L315.12 284.057L274.336 283.638ZM335.651 281.971H285.797L335.651 282.985M335.655 284.21V284.643C335.655 284.643 321.271 284.831 321.161 284.831C321.161 284.824 335.655 284.21 335.655 284.21Z" fill="#1A00C1"/>
<path d="M299.518 281.956H310.474V289.418H299.518V281.956Z" fill="white"/>
<path d="M306.933 281.956H310.473V289.418H306.933V281.956Z" fill="#EFEFEF"/>
<path d="M265.15 274.522H326.465V281.971H265.15V274.522Z" fill="#280ECC"/>
<path d="M265.15 276.189V277.03L305.935 276.61L265.15 276.189ZM326.465 274.522H276.613L326.465 277.195M326.469 279.734V280.167C326.469 280.167 312.085 280.355 311.975 280.355C311.975 280.347 326.469 279.735 326.469 279.735V279.734Z" fill="#1A00C1"/>
<path d="M290.332 274.509H301.288V281.971H290.332V274.509Z" fill="white"/>
<path d="M297.747 274.509H301.287V281.971H297.747V274.509Z" fill="#EFEFEF"/>
<path d="M272.483 267.075H333.799V274.524H272.483V267.075Z" fill="#280ECC"/>
<path d="M272.483 268.742V269.582L313.269 269.161L272.483 268.742ZM333.799 267.075H283.946L333.799 268.089M333.802 269.315V269.748C333.802 269.748 319.419 269.936 319.309 269.936C319.309 269.927 333.802 269.315 333.802 269.315Z" fill="#1A00C1"/>
<path d="M297.666 267.061H308.621V274.523H297.666V267.061Z" fill="white"/>
<path d="M305.081 267.061H308.62V274.523H305.081V267.061Z" fill="#EFEFEF"/>
<path d="M154.958 151.666H162.786V166.125H154.958V151.666Z" fill="#9F90FF"/>
<path d="M169.038 136.353H176.866V166.125H169.038V136.353Z" fill="#7D71C6"/>
<path d="M183.117 144.967H190.945V166.126H183.117V144.967Z" fill="#654FEE"/>
<path d="M197.195 130.537H205.023V166.125H197.195V130.537Z" fill="#573DFF"/>
<path d="M211.275 122.953H219.103V166.125H211.275V122.953Z" fill="#7764F0"/>
<path d="M225.354 138.267H233.182V166.125H225.354V138.267Z" fill="#7D71C6"/>
<path d="M239.434 112.301H247.262V166.125H239.434V112.301Z" fill="#5A40FE"/>
<path d="M157.341 135.24C157.214 135.241 157.089 135.203 156.983 135.132C156.877 135.061 156.795 134.96 156.748 134.842C156.7 134.724 156.689 134.594 156.717 134.469C156.744 134.345 156.808 134.232 156.901 134.144L175.414 116.472C175.491 116.398 175.585 116.345 175.688 116.318C175.791 116.29 175.899 116.289 176.002 116.314L194.134 120.709L211.553 100.112C211.619 100.031 211.705 99.9682 211.802 99.9293C211.9 99.8904 212.005 99.8767 212.109 99.8896L227.043 101.534L240.288 84.5636C240.369 84.4592 240.48 84.3827 240.607 84.3447L249.023 81.8207C249.184 81.7723 249.358 81.7901 249.507 81.8701C249.655 81.9501 249.766 82.0858 249.814 82.2473C249.862 82.4089 249.845 82.583 249.765 82.7314C249.685 82.8798 249.549 82.9904 249.387 83.0388L241.167 85.5059L227.826 102.597C227.76 102.682 227.673 102.75 227.573 102.792C227.473 102.834 227.364 102.85 227.256 102.838L212.305 101.192L194.852 121.832C194.776 121.922 194.676 121.989 194.564 122.026C194.452 122.062 194.332 122.067 194.217 122.038L176.039 117.632L157.779 135.064C157.66 135.177 157.503 135.24 157.339 135.24H157.341Z" fill="#3C3A46"/>
<path d="M157.34 136.896C158.606 136.896 159.633 135.87 159.633 134.603C159.633 133.337 158.606 132.311 157.34 132.311C156.074 132.311 155.047 133.337 155.047 134.603C155.047 135.87 156.074 136.896 157.34 136.896Z" fill="#9F90FF"/>
<path d="M175.77 119.231C177.036 119.231 178.063 118.205 178.063 116.938C178.063 115.672 177.036 114.646 175.77 114.646C174.504 114.646 173.477 115.672 173.477 116.938C173.477 118.205 174.504 119.231 175.77 119.231Z" fill="#654FEE"/>
<path d="M194.583 123.437C195.85 123.437 196.876 122.411 196.876 121.144C196.876 119.878 195.85 118.852 194.583 118.852C193.317 118.852 192.291 119.878 192.291 121.144C192.291 122.411 193.317 123.437 194.583 123.437Z" fill="#573DFF"/>
<path d="M212.166 102.925C213.433 102.925 214.459 101.899 214.459 100.633C214.459 99.3664 213.433 98.3398 212.166 98.3398C210.9 98.3398 209.874 99.3664 209.874 100.633C209.874 101.899 210.9 102.925 212.166 102.925Z" fill="#7764F0"/>
<path d="M227.524 104.611C228.791 104.611 229.817 103.584 229.817 102.318C229.817 101.052 228.791 100.025 227.524 100.025C226.258 100.025 225.232 101.052 225.232 102.318C225.232 103.584 226.258 104.611 227.524 104.611Z" fill="#7D71C6"/>
<path d="M249.555 84.7233C250.821 84.7233 251.847 83.6967 251.847 82.4305C251.847 81.1642 250.821 80.1377 249.555 80.1377C248.288 80.1377 247.262 81.1642 247.262 82.4305C247.262 83.6967 248.288 84.7233 249.555 84.7233Z" fill="#5A40FE"/>
<path d="M252.494 194.922H156.448C156.112 194.922 155.78 194.856 155.469 194.727C155.159 194.598 154.877 194.41 154.639 194.172C154.402 193.935 154.214 193.653 154.085 193.342C153.957 193.032 153.891 192.699 153.891 192.363V191.658C153.891 190.245 155.036 189.1 156.448 189.1H252.494C253.906 189.1 255.051 190.245 255.051 191.658V192.363C255.052 192.699 254.986 193.032 254.857 193.342C254.729 193.653 254.54 193.935 254.303 194.172C254.065 194.41 253.783 194.598 253.473 194.727C253.163 194.856 252.83 194.922 252.494 194.922ZM252.494 208.404H156.448C155.77 208.404 155.12 208.135 154.64 207.655C154.16 207.175 153.891 206.525 153.891 205.847V205.14C153.891 203.728 155.036 202.583 156.448 202.583H252.494C253.906 202.583 255.051 203.728 255.051 205.14V205.845C255.052 206.181 254.986 206.514 254.857 206.824C254.729 207.135 254.54 207.417 254.303 207.654C254.065 207.892 253.783 208.081 253.473 208.209C253.163 208.338 252.83 208.404 252.494 208.404ZM252.494 221.886H156.448C155.77 221.886 155.12 221.617 154.64 221.137C154.16 220.657 153.891 220.007 153.891 219.329V218.624C153.891 217.21 155.036 216.064 156.448 216.064H252.494C253.906 216.064 255.051 217.21 255.051 218.624V219.329C255.051 220.007 254.782 220.657 254.302 221.137C253.823 221.617 253.172 221.886 252.494 221.886ZM198.208 229.547H156.801C156.039 229.563 155.314 229.877 154.781 230.421C154.248 230.965 153.95 231.696 153.95 232.458C153.95 233.219 154.248 233.951 154.781 234.495C155.314 235.039 156.039 235.353 156.801 235.368H198.208C198.595 235.376 198.98 235.307 199.34 235.164C199.7 235.021 200.028 234.808 200.305 234.537C200.582 234.266 200.802 233.943 200.952 233.586C201.102 233.229 201.179 232.845 201.179 232.458C201.179 232.07 201.102 231.687 200.952 231.33C200.802 230.973 200.582 230.649 200.305 230.378C200.028 230.107 199.7 229.894 199.34 229.751C198.98 229.609 198.595 229.539 198.208 229.547Z" fill="#D6D1F8"/>
<path d="M315.09 77.2109V99.5043C315.09 100.188 315.646 100.743 316.329 100.743H342.33C343.014 100.743 343.568 100.188 343.57 99.5043V77.2109H315.09Z" fill="#E7E4F9"/>
<path d="M343.568 76.6013H315.09V66.3593C315.09 65.6754 315.646 65.1201 316.329 65.1201H342.33C343.014 65.1201 343.57 65.6754 343.57 66.3593V76.6026L343.568 76.6013Z" fill="#3C3A46"/>
<path d="M320.663 83.4093H318.186C318.104 83.4093 318.024 83.3932 317.949 83.3621C317.874 83.3309 317.805 83.2853 317.748 83.2277C317.691 83.1702 317.645 83.1019 317.614 83.0267C317.583 82.9516 317.567 82.871 317.567 82.7897V80.3127C317.567 80.1487 317.633 79.9914 317.748 79.8754C317.864 79.7595 318.022 79.6943 318.186 79.6943H320.663C320.827 79.6943 320.984 79.7595 321.1 79.8754C321.216 79.9914 321.281 80.1487 321.281 80.3127V82.7897C321.281 82.9537 321.216 83.111 321.1 83.2269C320.984 83.3429 320.827 83.4093 320.663 83.4093Z" fill="#D6D1F8"/>
<path d="M320.663 93.3143H318.186C318.022 93.3143 317.864 93.2491 317.748 93.1332C317.633 93.0172 317.567 92.86 317.567 92.696V90.2189C317.567 90.0549 317.633 89.8977 317.748 89.7817C317.864 89.6657 318.022 89.6006 318.186 89.6006H320.663C320.827 89.6006 320.984 89.6657 321.1 89.7817C321.216 89.8977 321.281 90.0549 321.281 90.2189V92.696C321.281 92.86 321.216 93.0172 321.1 93.1332C320.984 93.2491 320.827 93.3143 320.663 93.3143Z" fill="#4C4A58"/>
<path d="M320.663 88.3612H318.186C318.022 88.3612 317.864 88.296 317.748 88.1801C317.633 88.0641 317.567 87.9068 317.567 87.7428V85.2658C317.567 85.1018 317.633 84.9445 317.748 84.8286C317.864 84.7126 318.022 84.6475 318.186 84.6475H320.663C320.827 84.6475 320.984 84.7126 321.1 84.8286C321.216 84.9445 321.281 85.1018 321.281 85.2658V87.7428C321.281 87.9068 321.216 88.0641 321.1 88.1801C320.984 88.296 320.827 88.3612 320.663 88.3612Z" fill="#D6D1F8"/>
<path d="M320.663 98.2664H318.186C318.022 98.2664 317.864 98.2013 317.748 98.0853C317.633 97.9694 317.567 97.8121 317.567 97.6481V95.1711C317.567 95.0071 317.633 94.8498 317.748 94.7338C317.864 94.6179 318.022 94.5527 318.186 94.5527H320.663C320.827 94.5527 320.984 94.6179 321.1 94.7338C321.216 94.8498 321.281 95.0071 321.281 95.1711V97.6481C321.281 97.8121 321.216 97.9694 321.1 98.0853C320.984 98.2013 320.827 98.2664 320.663 98.2664Z" fill="#4C4A58"/>
<path d="M325.614 83.4093H323.139C323.057 83.4093 322.977 83.3932 322.902 83.3621C322.827 83.3309 322.758 83.2853 322.701 83.2277C322.643 83.1702 322.598 83.1019 322.567 83.0267C322.536 82.9516 322.52 82.871 322.52 82.7897V80.3127C322.52 80.1487 322.585 79.9914 322.701 79.8754C322.817 79.7595 322.975 79.6943 323.139 79.6943H325.616C325.78 79.6943 325.937 79.7595 326.053 79.8754C326.169 79.9914 326.234 80.1487 326.234 80.3127V82.7897C326.234 82.9537 326.169 83.111 326.053 83.2269C325.937 83.3429 325.78 83.408 325.616 83.408L325.614 83.4093ZM325.614 93.3137H323.139C322.975 93.3137 322.817 93.2486 322.701 93.1326C322.585 93.0167 322.52 92.8594 322.52 92.6954V90.2184C322.52 90.0544 322.585 89.8971 322.701 89.7811C322.817 89.6652 322.975 89.6 323.139 89.6H325.616C325.78 89.6 325.937 89.6652 326.053 89.7811C326.169 89.8971 326.234 90.0544 326.234 90.2184V92.6954C326.234 92.8594 326.169 93.0167 326.053 93.1326C325.937 93.2486 325.78 93.3137 325.616 93.3137H325.614ZM325.614 88.3609H323.139C322.975 88.3609 322.817 88.2957 322.701 88.1798C322.585 88.0638 322.52 87.9065 322.52 87.7426V85.2655C322.52 85.1015 322.585 84.9442 322.701 84.8283C322.817 84.7123 322.975 84.6472 323.139 84.6472H325.616C325.78 84.6472 325.937 84.7123 326.053 84.8283C326.169 84.9442 326.234 85.1015 326.234 85.2655V87.7426C326.234 87.9065 326.169 88.0638 326.053 88.1798C325.937 88.2957 325.78 88.3609 325.616 88.3609H325.614ZM325.614 98.2666H323.139C322.975 98.2666 322.817 98.2014 322.701 98.0855C322.585 97.9695 322.52 97.8123 322.52 97.6483V95.1712C322.52 95.0072 322.585 94.85 322.701 94.734C322.817 94.618 322.975 94.5529 323.139 94.5529H325.616C325.78 94.5529 325.937 94.618 326.053 94.734C326.169 94.85 326.234 95.0072 326.234 95.1712V97.6483C326.234 97.8123 326.169 97.9695 326.053 98.0855C325.937 98.2014 325.78 98.2666 325.616 98.2666H325.614ZM330.568 83.4093H328.091C328.01 83.4093 327.93 83.3932 327.855 83.3621C327.779 83.3309 327.711 83.2853 327.654 83.2277C327.596 83.1702 327.551 83.1019 327.52 83.0267C327.489 82.9516 327.473 82.871 327.473 82.7897V80.3127C327.473 80.1487 327.538 79.9914 327.654 79.8754C327.77 79.7595 327.927 79.6943 328.091 79.6943H330.568C330.732 79.6943 330.89 79.7595 331.006 79.8754C331.122 79.9914 331.187 80.1487 331.187 80.3127V82.7897C331.187 82.9537 331.122 83.111 331.006 83.2269C330.89 83.3429 330.732 83.4093 330.568 83.4093ZM330.568 93.3137H328.091C327.927 93.3137 327.77 93.2486 327.654 93.1326C327.538 93.0167 327.473 92.8594 327.473 92.6954V90.2184C327.473 90.0544 327.538 89.8971 327.654 89.7811C327.77 89.6652 327.927 89.6 328.091 89.6H330.568C330.732 89.6 330.89 89.6652 331.006 89.7811C331.122 89.8971 331.187 90.0544 331.187 90.2184V92.6954C331.187 92.8594 331.122 93.0167 331.006 93.1326C330.89 93.2486 330.732 93.3137 330.568 93.3137ZM330.568 88.3609H328.091C327.927 88.3609 327.77 88.2957 327.654 88.1798C327.538 88.0638 327.473 87.9065 327.473 87.7426V85.2655C327.473 85.1015 327.538 84.9442 327.654 84.8283C327.77 84.7123 327.927 84.6472 328.091 84.6472H330.568C330.732 84.6472 330.89 84.7123 331.006 84.8283C331.122 84.9442 331.187 85.1015 331.187 85.2655V87.7426C331.187 87.9065 331.122 88.0638 331.006 88.1798C330.89 88.2957 330.732 88.3609 330.568 88.3609ZM330.568 98.2666H328.091C327.927 98.2666 327.77 98.2014 327.654 98.0855C327.538 97.9695 327.473 97.8123 327.473 97.6483V95.1712C327.473 95.0072 327.538 94.85 327.654 94.734C327.77 94.618 327.927 94.5529 328.091 94.5529H330.568C330.732 94.5529 330.89 94.618 331.006 94.734C331.122 94.85 331.187 95.0072 331.187 95.1712V97.6483C331.187 97.8123 331.122 97.9695 331.006 98.0855C330.89 98.2014 330.732 98.2666 330.568 98.2666ZM335.52 83.4093H333.044C332.963 83.4093 332.882 83.3932 332.807 83.3621C332.732 83.3309 332.664 83.2853 332.607 83.2277C332.549 83.1702 332.504 83.1019 332.473 83.0267C332.442 82.9516 332.426 82.871 332.426 82.7897V80.3127C332.426 80.1487 332.491 79.9914 332.607 79.8754C332.723 79.7595 332.88 79.6943 333.044 79.6943H335.521C335.685 79.6943 335.843 79.7595 335.959 79.8754C336.075 79.9914 336.14 80.1487 336.14 80.3127V82.7897C336.14 82.9537 336.075 83.111 335.959 83.2269C335.843 83.3429 335.685 83.408 335.521 83.408L335.52 83.4093ZM335.52 93.3137H333.044C332.88 93.3137 332.723 93.2486 332.607 93.1326C332.491 93.0167 332.426 92.8594 332.426 92.6954V90.2184C332.426 90.0544 332.491 89.8971 332.607 89.7811C332.723 89.6652 332.88 89.6 333.044 89.6H335.521C335.685 89.6 335.843 89.6652 335.959 89.7811C336.075 89.8971 336.14 90.0544 336.14 90.2184V92.6954C336.14 92.8594 336.075 93.0167 335.959 93.1326C335.843 93.2486 335.685 93.3137 335.521 93.3137H335.52ZM335.52 88.3609H333.044C332.88 88.3609 332.723 88.2957 332.607 88.1798C332.491 88.0638 332.426 87.9065 332.426 87.7426V85.2655C332.426 85.1015 332.491 84.9442 332.607 84.8283C332.723 84.7123 332.88 84.6472 333.044 84.6472H335.521C335.685 84.6472 335.843 84.7123 335.959 84.8283C336.075 84.9442 336.14 85.1015 336.14 85.2655V87.7426C336.14 87.9065 336.075 88.0638 335.959 88.1798C335.843 88.2957 335.685 88.3609 335.521 88.3609H335.52Z" fill="#C1BBEA"/>
<path d="M335.52 98.2666H333.044C332.88 98.2666 332.723 98.2014 332.607 98.0855C332.491 97.9695 332.426 97.8123 332.426 97.6483V95.1712C332.426 95.0072 332.491 94.85 332.607 94.734C332.723 94.618 332.88 94.5529 333.044 94.5529H335.521C335.685 94.5529 335.842 94.618 335.958 94.734C336.074 94.85 336.139 95.0072 336.139 95.1712V97.6483C336.139 97.8123 336.074 97.9695 335.958 98.0855C335.842 98.2014 335.685 98.2666 335.521 98.2666H335.52ZM340.473 83.4093H337.997C337.916 83.4093 337.835 83.3932 337.76 83.3621C337.685 83.3309 337.617 83.2853 337.559 83.2277C337.502 83.1702 337.456 83.1019 337.425 83.0267C337.394 82.9516 337.378 82.871 337.379 82.7897V80.3127C337.379 80.1487 337.444 79.9914 337.56 79.8754C337.676 79.7595 337.833 79.6943 337.997 79.6943H340.473C340.554 79.6942 340.635 79.71 340.71 79.741C340.785 79.7721 340.853 79.8176 340.911 79.875C340.968 79.9324 341.014 80.0007 341.045 80.0758C341.076 80.1509 341.092 80.2314 341.092 80.3127V82.7897C341.092 82.9537 341.027 83.111 340.911 83.2269C340.795 83.3429 340.638 83.408 340.474 83.408L340.473 83.4093ZM340.473 88.3609H337.997C337.833 88.3609 337.676 88.2957 337.56 88.1798C337.444 88.0638 337.379 87.9066 337.379 87.7426V85.2655C337.379 85.1015 337.444 84.9442 337.56 84.8283C337.676 84.7123 337.833 84.6472 337.997 84.6472H340.473C340.554 84.647 340.635 84.6629 340.71 84.6939C340.785 84.7249 340.853 84.7704 340.911 84.8279C340.968 84.8853 341.014 84.9535 341.045 85.0286C341.076 85.1037 341.092 85.1842 341.092 85.2655V87.7426C341.092 87.9066 341.027 88.0638 340.911 88.1798C340.795 88.2957 340.638 88.3609 340.474 88.3609H340.473Z" fill="#D6D1F8"/>
<path d="M340.473 98.2671H337.997C337.833 98.2671 337.676 98.202 337.56 98.086C337.444 97.9701 337.379 97.8128 337.379 97.6488V90.2189C337.379 90.0549 337.444 89.8977 337.56 89.7817C337.676 89.6657 337.833 89.6006 337.997 89.6006H340.473C340.554 89.6004 340.635 89.6163 340.71 89.6473C340.785 89.6783 340.853 89.7238 340.911 89.7812C340.968 89.8387 341.014 89.9069 341.045 89.982C341.076 90.0571 341.092 90.1376 341.092 90.2189V97.6488C341.092 97.8128 341.027 97.9701 340.911 98.086C340.795 98.202 340.638 98.2671 340.474 98.2671H340.473Z" fill="#5A40FE"/>
<path d="M318.186 74.1403C317.493 74.1403 316.928 73.5763 316.928 72.8838V68.8238C316.928 68.1313 317.492 67.5674 318.186 67.5674H340.473C341.165 67.5674 341.729 68.1313 341.729 68.8238V72.8838C341.729 73.5763 341.165 74.1403 340.473 74.1403H318.186Z" fill="#302E3A"/>
<path d="M341.091 68.8229V72.8841C341.091 72.965 341.076 73.0452 341.045 73.12C341.014 73.1948 340.969 73.2627 340.911 73.3199C340.854 73.3772 340.786 73.4225 340.711 73.4534C340.637 73.4843 340.556 73.5001 340.475 73.5H318.188C318.024 73.5006 317.866 73.4362 317.749 73.3208C317.633 73.2053 317.566 73.0483 317.565 72.8841V68.8229C317.565 68.4816 317.847 68.207 318.188 68.207H340.475C340.817 68.207 341.091 68.4816 341.091 68.8229Z" fill="#7764F0"/>
<path d="M315.09 76.6016H343.568V77.2112H315.09V76.6016Z" fill="#3C3A46"/>
<path d="M332.777 68.207L329.851 73.5H320.854L323.785 68.207H332.777ZM338.463 68.207L335.539 73.5H331.945L334.878 68.207H338.463Z" fill="#7964FF"/>
<path d="M316.928 146.503C319.823 146.503 322.17 144.156 322.17 141.261C322.17 138.366 319.823 136.019 316.928 136.019C314.033 136.019 311.686 138.366 311.686 141.261C311.686 144.156 314.033 146.503 316.928 146.503Z" fill="#C1BBEA"/>
</svg>
