<svg width="100" height="100" viewBox="0 0 100 100" fill="none" xmlns="http://www.w3.org/2000/svg">
<path d="M74.9063 17.9775H79.5879C80.8296 17.9775 82.0204 18.4693 82.8983 19.3445C83.7763 20.2198 84.2696 21.407 84.2696 22.6448V73.9845C84.2696 75.2223 83.7763 76.4094 82.8983 77.2847C82.0204 78.16 80.8296 78.6517 79.5879 78.6517H56.1797" stroke="black" stroke-width="3" stroke-linecap="round" stroke-linejoin="round"/>
<path d="M47.1919 78.6517V60.0749H38.2031V46.1423H47.1919V27.5655H56.1807V8.98877" stroke="#00CCF5" stroke-width="3" stroke-linecap="round" stroke-linejoin="round"/>
<path d="M47.1914 17.9775L56.1802 8.98877L65.1689 17.9775" stroke="#00CCF5" stroke-width="3" stroke-linecap="round" stroke-linejoin="round"/>
<path d="M60.6758 56.1797V69.6628" stroke="black" stroke-width="3" stroke-linecap="round" stroke-linejoin="round"/>
<path d="M35.815 17.9775H23.8768C22.6104 17.9775 21.3957 18.4693 20.5002 19.3445C19.6047 20.2198 19.1016 21.407 19.1016 22.6448V73.9845C19.1016 75.2223 19.6047 76.4094 20.5002 77.2847C21.3957 78.16 22.6104 78.6517 23.8768 78.6517H38.2027V69.3172H28.6521V62.3163" stroke="black" stroke-width="3" stroke-linecap="round" stroke-linejoin="round"/>
<path d="M70.7852 78.6517V50.5618H74.1559" stroke="black" stroke-width="3" stroke-linecap="round" stroke-linejoin="round"/>
<path d="M84.2713 41.573H60.6758V46.0674" stroke="black" stroke-width="3" stroke-linecap="round" stroke-linejoin="round"/>
<path d="M29.2148 30.3372V37.0787H35.9564" stroke="black" stroke-width="3" stroke-linecap="round" stroke-linejoin="round"/>
<path d="M70.7852 41.5731V31.4607" stroke="black" stroke-width="3" stroke-linecap="round" stroke-linejoin="round"/>
</svg>
