<svg width="480" height="350" viewBox="0 0 480 350" fill="none" xmlns="http://www.w3.org/2000/svg">
<path d="M370.568 287.951L422.248 258.1L367.251 226.479L340.264 242.001L256.433 193.806L142.976 259.077L109.356 239.75L58 269.292L112.668 301.221L156.368 275.98L219.917 313.101L265.734 342L311.829 311.532L361.662 282.75L370.573 287.951H370.568Z" fill="#E3EBFF"/>
<path d="M284.432 211.225L272.549 204.521L274.179 203.58L223.967 174.443L196.155 190.507L246.559 219.533L267.339 207.527L279 214.433L284.427 211.22L284.432 211.225Z" fill="#F5F5F3"/>
<path d="M342.356 220.939L353.961 214.236L309.146 189.419L297.82 195.966L253.177 170.938L234.089 181.932L353.707 249.884L373.575 238.44L342.361 220.939H342.356Z" fill="#F5F5F3"/>
<path d="M407.995 236.603V103.931L244.585 9.51758V142.185L303.495 176.224L303.44 176.194V195.197L282.498 207.299L319.834 228.847L345.1 214.25L324.077 202.614L324.153 188.164L407.995 236.603Z" fill="#F7F7F6"/>
<path d="M244.585 9.51781L247.223 8L411.129 102.292L410.993 234.802L407.995 236.603V103.931L244.585 9.51781Z" fill="#BBB8AD"/>
<path d="M407.995 103.93L411.129 102.286L410.993 234.796L407.995 236.597V103.93Z" fill="#F2F2F0"/>
<path d="M407.995 112.962L244.585 18.5486V9.51758L408 103.931V112.957L407.995 112.962Z" fill="#4737BC"/>
<path d="M332.366 186.06L248.377 137.535V27.6504L332.366 76.1749V186.06Z" fill="#D5D1F0"/>
<path d="M403.929 227.405L359.51 201.739V91.8545L403.929 117.516V227.405Z" fill="white"/>
<path d="M282.518 77.8601L252.595 60.5722V35.083L282.518 52.3709V77.8601Z" fill="white"/>
<path d="M397.899 144.517L365.545 125.828V100.339L397.899 119.033V144.522V144.517Z" fill="#9289D7"/>
<path d="M397.899 219.28L365.545 200.585V162.433L397.899 181.122V219.275V219.28Z" fill="#E1EAFF"/>
<path d="M397.899 146.464L365.545 127.775V125.827L397.899 144.516V146.464Z" fill="#D5D1F0"/>
<path d="M397.899 154.272L365.545 135.577V134.874L397.899 153.563V154.267V154.272Z" fill="#D5D1F0"/>
<path d="M397.899 159.129L365.545 140.435V139.731L397.899 158.421V159.124V159.129Z" fill="#D5D1F0"/>
<path d="M397.899 163.98L365.545 145.291V144.588L397.899 163.282V163.986V163.98Z" fill="#D5D1F0"/>
<path d="M397.899 168.838L365.545 150.149V149.445L397.899 168.135V168.838Z" fill="#D5D1F0"/>
<path d="M397.899 173.689L365.545 155V154.297L397.899 172.986V173.689Z" fill="#D5D1F0"/>
<path d="M397.899 215.995L365.545 197.301V196.598L397.899 215.287V215.995Z" fill="white"/>
<path d="M354.573 198.89L330.852 185.189V75.3047L354.573 89.0055V198.89Z" fill="white"/>
<path d="M328.128 138.126L252.595 94.4843V68.9951L328.128 112.637V138.126Z" fill="#61C6FF"/>
<path d="M351.682 135.203L333.287 124.573V115.618L351.682 126.248V135.208V135.203Z" fill="#6254C6"/>
<path d="M328.128 174.98L252.595 131.343V105.854L328.128 149.496V174.98Z" fill="#61C6FF"/>
<path d="M295.946 65.2669L285.445 59.5751V58.0674L295.946 63.7592V65.2669Z" fill="white"/>
<path d="M321.647 86.9013L285.45 66.3602V64.8525L321.647 85.3936V86.9013Z" fill="white"/>
<path d="M321.647 93.6804L285.45 73.1444V71.6367L321.647 92.1778V93.6804Z" fill="white"/>
<path d="M321.647 100.466L285.45 79.9296V78.4219L321.647 98.9579V100.466Z" fill="white"/>
<path d="M387.109 195.981C389.347 194.297 388.75 189.723 385.773 185.762C382.796 181.805 378.568 179.958 376.335 181.643C374.102 183.328 374.694 187.902 377.672 191.863C380.649 195.82 384.872 197.666 387.109 195.981Z" fill="white"/>
<path d="M379.677 187.977V184.779L382.446 187.977L385.216 191.174H379.682V187.977H379.677Z" fill="#D5D1F0"/>
<path d="M339.925 91.384C341.151 90.4632 340.821 87.9588 339.196 85.7883C337.566 83.6229 335.252 82.611 334.027 83.5318C332.801 84.4526 333.13 86.957 334.756 89.1275C336.386 91.2929 338.7 92.3048 339.925 91.384Z" fill="#D5D1F0"/>
<path d="M351.682 96.3159L342.71 91.13V90.4268L351.682 95.6076V96.3159Z" fill="#D5D1F0"/>
<path d="M339.925 102.615C341.151 101.695 340.821 99.1902 339.196 97.0197C337.566 94.8543 335.252 93.8425 334.027 94.7633C332.801 95.6841 333.13 98.1885 334.756 100.359C336.386 102.524 338.7 103.536 339.925 102.615Z" fill="#D5D1F0"/>
<path d="M351.682 107.543L342.71 102.363V101.654L351.682 106.84V107.543Z" fill="#D5D1F0"/>
<path d="M339.925 113.842C341.151 112.921 340.821 110.417 339.196 108.246C337.566 106.081 335.252 105.069 334.027 105.99C332.801 106.911 333.13 109.415 334.756 111.585C336.386 113.751 338.7 114.763 339.925 113.842Z" fill="#D5D1F0"/>
<path d="M351.682 118.775L342.71 113.589V112.886L351.682 118.067V118.775Z" fill="#D5D1F0"/>
<path d="M347.783 187.668C349.986 186.009 349.399 181.511 346.472 177.62C343.545 173.73 339.389 171.913 337.191 173.573C334.994 175.227 335.581 179.73 338.508 183.621C341.434 187.511 345.591 189.328 347.788 187.668H347.783Z" fill="#D5D1F0"/>
<path d="M351.682 139.341L333.287 128.711V128.008L351.682 138.638V139.341Z" fill="#D5D1F0"/>
<path d="M351.682 143.88L333.287 133.25V132.547L351.682 143.177V143.88Z" fill="#D5D1F0"/>
<path d="M351.682 148.418L333.287 137.793V137.085L351.682 147.715V148.418Z" fill="#D5D1F0"/>
<path d="M351.682 163.384L333.287 152.754V143.794L351.682 154.419V163.379V163.384Z" fill="#6254C6"/>
<path d="M351.682 167.522L333.287 156.893V156.189L351.682 166.819V167.522Z" fill="#D5D1F0"/>
<path d="M351.682 172.061L333.287 161.431V160.728L351.682 171.352V172.055V172.061Z" fill="#D5D1F0"/>
<path d="M351.682 176.604L333.287 165.974V165.271L351.682 175.9V176.604Z" fill="#D5D1F0"/>
<path d="M318.589 112.942L272.326 86.2132V85.5049L318.589 112.234V112.937V112.942Z" fill="#D5D1F0"/>
<path d="M318.589 117.793L272.326 91.0646V90.3613L318.589 117.085V117.793Z" fill="#D5D1F0"/>
<path d="M318.589 122.651L272.326 95.922V95.2188L318.589 121.942V122.651Z" fill="#D5D1F0"/>
<path d="M318.589 127.502L272.326 100.774V100.07L318.589 126.794V127.497V127.502Z" fill="#D5D1F0"/>
<path d="M318.589 149.794L272.326 123.066V122.362L318.589 149.091V149.794Z" fill="#D5D1F0"/>
<path d="M318.589 154.646L272.326 127.922V127.214L318.589 153.943V154.646Z" fill="#D5D1F0"/>
<path d="M318.589 159.503L272.326 132.779V132.076L318.589 158.805V159.508V159.503Z" fill="#D5D1F0"/>
<path d="M318.589 164.356L272.326 137.632V136.929L318.589 163.657V164.361V164.356Z" fill="#D5D1F0"/>
<path d="M282.498 207.299V208.963L319.794 230.552L345.1 216.001V214.255L319.834 228.852L282.498 207.304V207.299Z" fill="#BBB8AD"/>
<path d="M327.343 204.42V216.739L338.568 210.668L327.343 204.42Z" fill="#EBEAE6"/>
<path d="M256.392 95.214C256.509 95.1482 256.63 95.0926 256.757 95.042L256.792 95.0268L258.296 94.4349C260.337 93.6254 263.304 95.3658 265.121 98.5178C267.045 101.857 266.959 105.515 264.924 106.689C264.828 106.744 264.726 106.795 264.62 106.835H264.625L264.539 106.871C264.539 106.871 264.529 106.876 264.524 106.876L262.974 107.488C260.934 108.252 258.002 106.517 256.195 103.385C254.271 100.046 254.357 96.3878 256.392 95.214Z" fill="#6659C7"/>
<path d="M256.463 103.232C258.286 106.389 261.288 108.059 263.177 106.966C265.066 105.873 265.121 102.433 263.298 99.2806C261.476 96.1235 258.473 94.4539 256.585 95.5468C254.696 96.6396 254.64 100.08 256.463 103.232Z" fill="#9289D7"/>
<path d="M255.911 96.4531C255.375 98.1227 255.775 100.587 257.121 102.914C258.331 105.014 260.028 106.506 261.597 107.047C259.947 106.744 258.078 105.262 256.797 103.04C255.395 100.612 255.111 98.0165 255.916 96.4531H255.911Z" fill="#6659C7"/>
<path d="M255.613 129.466C255.729 129.4 255.85 129.339 255.977 129.294L256.012 129.279L257.516 128.687C259.557 127.877 262.524 129.618 264.342 132.77C266.266 136.109 266.179 139.767 264.144 140.941C264.048 140.996 263.947 141.042 263.84 141.092H263.845L263.759 141.128C263.759 141.128 263.749 141.133 263.744 141.133L262.195 141.745C260.159 142.509 257.223 140.774 255.415 137.642C253.491 134.303 253.577 130.645 255.613 129.471V129.466Z" fill="#6659C7"/>
<path d="M255.683 137.485C257.506 140.642 260.509 142.312 262.397 141.219C264.286 140.126 264.342 136.686 262.519 133.534C260.696 130.382 257.694 128.707 255.805 129.8C253.916 130.893 253.861 134.333 255.683 137.485Z" fill="#9289D7"/>
<path d="M255.131 130.705C254.595 132.375 254.995 134.839 256.342 137.166C257.552 139.266 259.243 140.758 260.817 141.3C259.167 140.996 257.299 139.514 256.012 137.293C254.61 134.864 254.326 132.269 255.131 130.7V130.705Z" fill="#6659C7"/>
<g opacity="0.3">
<path d="M244.585 111.362L255.714 117.793V58.3904L244.585 51.96V111.362Z" fill="#210EAE"/>
</g>
<path d="M248.276 118.684L217.056 100.652V41.25L248.276 59.2867V118.689V118.684Z" fill="#B6AFE4"/>
<path d="M231.76 62.6668L218.686 55.1131V44.2607L231.76 51.8144V62.6668Z" fill="white"/>
<path d="M226.398 101.132L218.686 96.6751V89.8398L226.398 94.2972V101.132Z" fill="white"/>
<path d="M236.519 106.976L228.808 102.519V95.6836L236.519 100.141V106.976Z" fill="white"/>
<path d="M246.646 112.826L238.934 108.373V101.538L246.646 105.995V112.831V112.826Z" fill="white"/>
<path d="M246.646 64.4471L233.572 56.8935V56.5039L246.646 64.0576V64.4471Z" fill="white"/>
<path d="M246.646 61.8721L233.572 54.3185V53.1396L246.646 60.6933V61.8721Z" fill="white"/>
<path d="M246.646 66.1532L233.572 58.5995V58.21L246.646 65.7636V66.1532Z" fill="white"/>
<path d="M246.646 67.8575L233.572 60.3038V59.9092L246.646 67.4628V67.8524V67.8575Z" fill="white"/>
<path d="M246.646 69.5625L233.572 62.0089V61.6143L246.646 69.1679V69.5575V69.5625Z" fill="white"/>
<path d="M246.646 71.2674L233.572 63.7138V63.3242L246.646 70.8779V71.2725V71.2674Z" fill="white"/>
<path d="M246.646 99.2463L218.692 83.0917V82.7021L246.646 98.8567V99.2463Z" fill="white"/>
<path d="M246.646 100.956L218.692 84.8017V84.4121L246.646 100.567V100.961V100.956Z" fill="white"/>
<path d="M246.646 96.8024L218.692 80.6478V58.9785L246.646 75.1331V96.8024Z" fill="white"/>
<path d="M217.056 41.2451L218.155 40.8252L249.4 58.8771V118.644L248.276 118.684V59.2818L217.056 41.2451Z" fill="#4737BC"/>
<path d="M248.276 59.2817L249.4 58.877V118.643L248.276 118.684V59.2817Z" fill="#6254C6"/>
<g opacity="0.3">
<path d="M407.995 157.172L390.861 147.271V188.909L407.995 198.81V157.177V157.172Z" fill="#210EAE"/>
</g>
<path d="M412.922 214.615L381.707 196.578V154.939L412.922 172.971V214.61V214.615Z" fill="#B6AFE4"/>
<path d="M411.291 184.957L383.332 168.807V157.955L411.291 174.11V184.962V184.957Z" fill="white"/>
<path d="M411.291 191.007L383.332 174.853V170.674L411.291 186.828V191.013V191.007Z" fill="white"/>
<path d="M411.291 205.629L383.332 189.48V188.751L411.291 204.906V205.634V205.629Z" fill="white"/>
<path d="M411.291 208.59L383.332 192.44V191.712L411.291 207.867V208.59Z" fill="white"/>
<path d="M411.291 211.549L383.332 195.399V194.671L411.291 210.826V211.549Z" fill="white"/>
<path d="M391.641 190.219L383.332 185.418V177.105L391.641 181.902V190.214V190.219Z" fill="white"/>
<path d="M411.291 194.929L393.712 184.77V183.105L411.291 193.26V194.929Z" fill="white"/>
<path d="M411.291 198.248L393.712 188.093V186.424L411.291 196.578V198.248Z" fill="white"/>
<path d="M411.291 201.572L393.712 191.413V189.748L411.291 199.902V201.572Z" fill="white"/>
<path d="M381.707 154.939L382.806 154.52L414.051 172.571V214.574L412.922 214.615V172.976L381.707 154.945V154.939Z" fill="#4737BC"/>
<path d="M412.922 172.971L414.051 172.571V214.574L412.922 214.615V172.976V172.971Z" fill="#6254C6"/>
<path d="M389.773 186.698C390.72 185.984 390.466 184.041 389.206 182.362C387.945 180.682 386.153 179.898 385.201 180.616C384.254 181.33 384.507 183.272 385.768 184.952C387.028 186.632 388.821 187.416 389.773 186.698Z" fill="#9289D7"/>
<g opacity="0.3">
<path d="M257.324 149.546L288.539 167.583V150.037L257.324 132V149.546Z" fill="#210EAE"/>
</g>
<path d="M278.726 209.864L247.511 191.827V132.425L278.726 150.456V209.859V209.864Z" fill="#4737BC"/>
<path d="M276.848 202.311L249.39 186.449V135.962L276.848 151.823V202.311Z" fill="white"/>
<path d="M274.969 184.406L251.263 170.993V165.195L274.969 178.608V184.406Z" fill="#E1EAFF"/>
<path d="M274.969 174.6L251.263 160.904V160.57L274.969 174.266V174.6Z" fill="#9289D7"/>
<path d="M274.969 176.042L251.263 162.347V162.013L274.969 175.708V176.042Z" fill="#9289D7"/>
<path d="M274.969 187.8L251.263 174.104V173.771L274.969 187.466V187.8Z" fill="#D5D1F0"/>
<path d="M274.969 189.243L251.263 175.547V175.213L274.969 188.909V189.243Z" fill="#D5D1F0"/>
<path d="M274.969 191.696L251.263 178V177.666L274.969 191.362V191.696Z" fill="#D5D1F0"/>
<path d="M274.969 193.138L251.263 179.442V179.108L274.969 192.804V193.138Z" fill="#D5D1F0"/>
<path d="M274.969 172.526L251.263 158.83V140.454L274.969 154.15V172.526Z" fill="#6254C6"/>
<path d="M247.511 132.425L248.61 132.005L279.855 150.057V209.236L278.726 209.864V150.461L247.511 132.43V132.425Z" fill="#210EAE"/>
<path d="M278.726 150.461L279.855 150.057V209.236L278.726 209.864V150.461Z" fill="#3E2DB9"/>
<path d="M323.991 218.525L327.343 216.744V190.006L324.153 188.164L323.991 218.53V218.525Z" fill="#BBB8AD"/>
<path d="M324.153 188.159L303.435 176.193V181.141L324.148 189.181V188.159H324.153Z" fill="#F5F5F3"/>
<path d="M319.834 228.847L319.794 230.547L282.498 208.958V207.294L319.834 228.842V228.847Z" fill="#DEDDD7"/>
<path d="M220.276 210.168V222.422L169.872 193.305V181.143L220.276 210.168Z" fill="#ADA6E1"/>
<path d="M169.872 181.142L197.684 165.078L247.896 194.21L220.276 210.167L169.872 181.142Z" fill="#D5D1F0"/>
<path d="M242.205 190.912L203.39 168.388C202.241 168.529 201.097 168.701 199.963 168.914C185.3 171.641 177.214 179.291 179.933 186.935L203.046 200.242C209.674 201.304 216.955 201.314 223.861 200.029C232.631 198.395 239.046 195.005 242.205 190.907V190.912Z" fill="#AFA8E2"/>
<path d="M206.464 230.344V242.593L156.059 213.476V201.313L206.464 230.339V230.344Z" fill="#ADA6E1"/>
<path d="M156.059 201.318L170.059 193.229L220.271 222.365L206.459 230.339L156.054 201.313L156.059 201.318Z" fill="#D5D1F0"/>
<path d="M220.276 210.167V222.37L206.464 230.344V242.593L220.276 234.67L247.891 218.763V194.21L220.271 210.167H220.276Z" fill="#8A7FD4"/>
<path d="M191.998 182.64L198.55 179.179C202.52 178.319 206.261 176.209 206.975 177.864C207.77 179.7 206.302 181.729 204.692 182.812C202.393 184.36 200.682 185.083 198.692 184.972L198.636 186.449L194.585 188.038L191.669 186.91L191.659 185.832L191.998 182.65V182.64Z" fill="#9764D7"/>
<path d="M209.73 194.463L209.957 194.974L214.707 195.268L216.079 194.043C216.079 194.043 225.34 193.674 226.215 189.247C227.198 184.273 217.886 188.033 216.914 188.033C215.942 188.033 209.861 190.992 209.861 190.992L209.725 194.458L209.73 194.463Z" fill="#9764D7"/>
<path d="M193.537 181.825L191.993 182.64L191.654 185.822L191.664 186.9L194.58 188.028V181.8C194.58 181.8 194.13 181.8 193.532 181.815L193.537 181.825Z" fill="#7D4CCF"/>
<path d="M212.697 189.667C211.188 190.355 209.866 190.998 209.866 190.998L209.73 194.463L209.957 194.974L214.707 195.268V189.778L212.697 189.667Z" fill="#7D4CCF"/>
<path d="M198.059 60.4203C201.163 61.9786 203.801 60.4607 203.801 60.4607C203.633 58.9581 204.069 57.2582 205.431 57.1974C206.514 57.1468 206.884 58.2751 206.884 58.2751C207.962 57.4454 208.033 56.5701 208.211 55.5278C207.952 55.0624 207.218 54.5059 205.76 54.4856C205.76 54.4856 206.747 53.9594 208.19 54.4451C209.876 53.3978 210.707 52.558 211.112 51.9256H211.122C211.122 51.9256 211.279 51.6878 211.471 51.2881C211.694 53.8279 212.205 62.3428 209.157 63.7595C208.357 64.1288 207.542 64.0934 206.742 63.7949C206.428 65.0395 206.084 66.6484 205.973 68.0802L196.196 64.6752C196.196 64.6752 197.588 62.1455 198.069 60.4101L198.059 60.4203Z" fill="#B8B2E5"/>
<path d="M205.426 57.1974C205.801 57.1823 206.079 57.3087 206.302 57.4706C206.261 57.4706 204.945 57.4352 204.707 58.5028C204.469 59.5855 205.492 60.0206 205.39 60.6884C205.289 61.3613 204.256 61.4979 203.795 60.4557C203.628 58.953 204.064 57.2531 205.426 57.1924V57.1974Z" fill="#9E95DB"/>
<path d="M212.18 48.9609C212.155 48.3639 211.897 47.9136 211.623 47.5898C211.623 47.5898 211.623 47.5848 211.623 47.5797H211.644C211.644 47.5797 211.335 46.1226 209.107 45.7381C208.322 45.6015 207.633 45.7938 207.066 46.0973C205.897 45.5458 204.818 45.8848 204.175 46.2137C204.039 46.1783 203.917 46.1327 203.76 46.1074C202.16 45.8342 200.95 46.8967 200.388 47.5241C199.558 47.777 198.596 48.2577 197.856 49.1633C196.611 50.6862 196.12 53.1046 196.813 54.759C196.747 54.8652 196.682 55.0271 196.616 55.27C196.226 56.7878 196.849 57.825 197.461 58.4321C197.74 59.6514 198.054 60.4255 198.054 60.4255C201.158 61.9787 203.79 60.466 203.79 60.466C203.623 58.9633 204.059 57.2634 205.421 57.2027C206.504 57.1521 206.874 58.2803 206.874 58.2803C207.066 58.1336 207.223 57.9818 207.355 57.825C207.355 57.825 209.046 56.292 208.18 54.4503C208.18 54.4503 210.585 54.6932 210.919 52.1888C210.985 52.0977 211.051 52.0168 211.097 51.9308H211.107C211.107 51.9308 211.831 51.1415 211.942 49.7552C212.084 49.5832 212.185 49.3353 212.17 48.9609H212.18Z" fill="#B8B2E5"/>
<path d="M196.813 54.7539C196.747 54.8601 196.682 55.022 196.616 55.2649C196.226 56.7827 196.844 57.8199 197.461 58.427C197.74 59.6463 198.054 60.4204 198.054 60.4204C201.158 61.9736 203.796 60.4609 203.796 60.4609C203.628 58.9582 204.064 57.2583 205.426 57.1976C205.593 57.1874 205.74 57.2178 205.876 57.2583C206.504 55.0625 205.244 53.7167 205.244 53.7167C205.244 53.7167 202.494 54.172 200.236 52.8516C197.978 51.5311 197.861 49.1582 197.861 49.1582C196.616 50.6811 196.125 53.0995 196.818 54.7539H196.813Z" fill="#4737BC"/>
<path d="M203.795 60.4604C203.795 60.4604 201.158 61.9782 198.054 60.4199C197.573 62.1553 196.18 64.6799 196.18 64.6799L202.327 66.815L203.39 62.6713C205.087 63.5314 206.727 63.7945 206.727 63.7945C204.363 62.4386 203.79 60.4553 203.79 60.4553L203.795 60.4604Z" fill="#9E95DB"/>
<path d="M212.18 48.9603C212.155 48.3633 211.897 47.913 211.628 47.5892C211.628 47.5892 211.628 47.5842 211.628 47.5791C211.628 47.5791 211.927 48.8692 211.183 49.618C211.183 49.618 210.97 51.6114 209.026 51.8189C209.026 51.8189 207.254 53.4581 205.249 53.7161C205.249 53.7161 206.413 54.8646 205.887 57.2526C206.626 57.4702 206.889 58.2746 206.889 58.2746C207.082 58.1279 207.238 57.9761 207.37 57.8193C207.37 57.8193 209.061 56.2863 208.195 54.4447C208.195 54.4447 210.6 54.6875 210.935 52.1831C211 52.0921 211.066 52.0111 211.112 51.9251H211.122C211.122 51.9251 211.846 51.1358 211.957 49.7496C212.099 49.5776 212.2 49.3296 212.185 48.9552L212.18 48.9603Z" fill="#9E95DB"/>
<path d="M245.709 68.313C233.415 72.8766 224.56 76.3726 224.56 76.3726C220.352 75.0319 216.438 73.7519 213.547 72.7957C215.846 68.6014 216.611 65.3685 216.611 65.3685L213.968 63.4004C211.487 66.0566 209.314 68.4446 207.497 70.4785C207.127 70.2862 206.752 70.1041 206.378 69.9169H206.388L205.963 68.0854C205.963 68.0854 201.846 64.8878 196.185 64.6804C196.185 64.6804 194.879 65.3786 194.044 66.5777L194.074 66.5878C192.834 66.6738 191.674 66.947 190.631 67.4782C186.505 69.583 185.963 75.6441 187.75 84.7257C189.365 92.932 189.31 99.5092 189.497 106.709C189.497 106.709 189.629 114.647 189.294 117.156C189.294 117.156 197.061 122.297 206.292 122.297C206.292 122.297 214.271 122.327 219.157 116.989C219.157 116.989 218.965 115.765 218.691 113.913C218.56 113.033 217.162 101.867 217.162 101.867C217.157 101.796 217.147 101.725 217.142 101.654C217.046 100.516 216.929 99.3068 216.813 98.0875C216.712 95.0519 216.454 90.3315 215.8 85.1456C215.79 84.4069 215.76 83.5974 215.689 82.7576C222.58 84.0123 226.058 83.2534 226.058 83.2534C237.881 79.9547 247.501 71.4752 247.501 71.4752L245.699 68.3029L245.709 68.313Z" fill="#A9A1E0"/>
<path d="M208.651 71.5404C210.702 72.6484 220.261 77.6673 224.636 77.3637C229.547 77.0248 246.078 69.0056 246.099 69.0006L245.709 68.3125C233.415 72.8761 224.56 76.3721 224.56 76.3721L208.661 71.4544L208.646 71.5454L208.651 71.5404Z" fill="#857AD3"/>
<path d="M190.717 117.996C193.365 119.453 199.421 122.301 206.292 122.301C206.292 122.301 213.486 122.321 218.393 117.758C219.162 124.76 219.851 135.319 218.96 146.91C217.38 167.456 217.178 189.525 217.178 189.525L209.876 191.083C209.876 191.083 204.438 170.183 208.388 147.001C208.388 147.001 206.15 140.889 203.876 133.487C203.72 135.956 203.395 140.267 202.793 145.301C201.801 153.588 199.679 181.88 199.679 181.88L191.953 183.181C189.851 165.66 192.459 144.719 192.459 144.719C192.591 143.404 192.018 128.635 190.839 119.023C190.798 118.674 190.763 118.345 190.722 118.006L190.717 117.996Z" fill="#5B4DC3"/>
<path d="M190.636 67.4775C191.679 66.9463 192.839 66.6731 194.074 66.5871L194.044 66.577C194.879 65.3779 196.185 64.6797 196.185 64.6797C196.439 64.6898 196.687 64.71 196.93 64.7303C196.839 64.7859 195.978 65.3526 196.185 67.7052C196.185 67.7052 191.872 72.1119 193.132 81.8563C194.393 91.5956 197.78 113.396 195.791 120.297C191.861 118.856 189.299 117.156 189.299 117.156C189.634 114.646 189.502 106.708 189.502 106.708C189.315 99.5034 189.365 92.9313 187.755 84.7249C185.968 75.6434 186.51 69.5822 190.636 67.4775Z" fill="#7A6ECF"/>
<path d="M190.717 117.996C190.758 118.335 190.793 118.664 190.834 119.013C192.018 128.631 192.586 143.394 192.454 144.71C192.454 144.71 189.841 165.656 191.948 183.171L194.464 182.746C192.54 170.508 195.785 144.452 195.785 144.452L196.925 128.813C198.256 130.017 201.583 131.566 201.583 131.566C197.517 127.837 195.785 120.293 195.785 120.293C193.608 119.489 191.846 118.619 190.712 117.991L190.717 117.996Z" fill="#4737BC"/>
<path d="M203.876 133.483C206.15 140.884 208.388 146.996 208.388 146.996C204.439 170.178 209.876 191.079 209.876 191.079L213.765 190.249C210.504 176.811 211.978 146.941 211.978 146.941C211.188 143.662 203.871 133.478 203.871 133.478L203.876 133.483Z" fill="#4737BC"/>
<path d="M209.345 81.3408C209.345 81.3408 212.919 85.5199 215.856 85.6008C215.841 85.4541 215.821 85.3074 215.8 85.1556C215.79 84.4169 215.76 83.6074 215.689 82.7726C215.659 82.7676 210.99 81.7962 209.34 81.3459L209.345 81.3408Z" fill="#7A6ECF"/>
<path d="M209.345 81.3408C209.345 81.3408 211.4 84.6952 213.77 86.3951C213.77 86.3951 215.031 91.6468 214.975 98.4871C214.929 104.417 213.598 114.743 214.428 120.399C216.089 119.625 217.755 118.532 219.162 116.994C219.162 116.994 218.97 115.77 218.697 113.918C218.565 113.038 217.167 101.872 217.167 101.872C217.162 101.801 217.152 101.73 217.147 101.659C217.051 100.521 216.935 99.3117 216.818 98.0924C216.722 95.1428 216.474 90.6096 215.861 85.6008C215.861 85.6008 213.355 85.8133 209.35 81.3408H209.345Z" fill="#857AD3"/>
<path d="M203.416 66.5723L203.178 68.4139C203.178 68.4139 205.32 69.3954 206.378 69.9266L205.957 68.0951C205.957 68.0951 204.676 67.144 203.411 66.5773L203.416 66.5723Z" fill="#857AD3"/>
<path d="M217.056 145.787C216.575 153.887 215.456 179.74 215.993 189.773L217.183 189.52C217.183 189.52 217.38 167.456 218.965 146.905C219.856 135.314 219.167 124.755 218.398 117.753C217.466 118.618 216.448 119.321 215.421 119.893C215.674 121.897 217.567 137.297 217.061 145.787H217.056Z" fill="#6B5DC9"/>
<path d="M197.998 182.154L199.674 181.876C199.674 181.876 201.795 153.583 202.788 145.296C203.39 140.262 203.714 135.952 203.871 133.483C203.871 133.483 201.466 131.616 200.712 130.68C200.712 130.68 201.684 133.29 202.55 134.535C202.55 134.535 201.471 143.278 201.193 145.666C200.96 147.649 198.104 170.335 197.993 182.159L197.998 182.154Z" fill="#6B5DC9"/>
<path d="M208.707 71.0196C211.476 68.4343 214.185 65.768 215.198 64.316L213.973 63.4053C213.973 63.4053 210.823 66.7849 207.502 70.4783C207.841 70.6402 208.241 70.8223 208.707 71.0247V71.0196Z" fill="#857AD3"/>
<path d="M245.881 68.611L247.061 66.7391C247.061 66.7391 248.276 64.9885 248.276 65.0998V66.9364L249.405 65.9194L249.744 67.078L249.856 68.0596L249.668 70.058C249.668 70.058 248.838 71.0092 247.425 71.3229L245.881 68.611Z" fill="#B8B2E5"/>
<path d="M214.256 63.613L215.198 61.3717L217.051 60.0664V64.4478C217.051 64.4478 216.712 65.0398 216.423 65.232L214.256 63.6181V63.613Z" fill="#B8B2E5"/>
<path d="M215.203 61.3708C215.203 61.3708 217.502 60.8548 217.578 60.9104C217.654 60.9661 217.218 61.8869 216.393 62.2512C216.393 62.2512 216.681 63.9056 215.38 64.447L214.266 63.6122C214.266 63.6122 214.661 62.2613 215.208 61.3708H215.203Z" fill="#B8B2E5"/>
<path d="M216.388 62.2516C216.388 62.2516 216.676 63.906 215.375 64.4474L214.975 64.1489L215.593 64.6093C216.474 64.4777 217.061 63.4051 217.061 63.4051V61.7861H217.051C216.869 61.9733 216.656 62.1453 216.393 62.2567L216.388 62.2516Z" fill="#9E95DB"/>
<path d="M249.066 68.2063L249.744 67.078L249.405 65.9194L248.276 66.9364L247.871 67.1893L248.276 65.9194V65.0998C248.276 64.9885 247.061 66.7391 247.061 66.7391L245.881 68.611L246.651 69.9568L249.066 68.2113V68.2063Z" fill="#9E95DB"/>
<path d="M126.91 278.389L86.1516 254.843L131.113 229.02L171.614 252.318L126.91 278.389Z" fill="#D5D1F0"/>
<path d="M86.1516 254.842L126.91 278.388L171.614 252.317L171.533 255.495L126.784 281.636L86.1566 257.868V254.842H86.1516Z" fill="#8E84D6"/>
<path d="M83.0883 274.605L71.8834 268.129L84.2427 261.03L95.3767 267.435L83.0883 274.605Z" fill="#61C6FF"/>
<path d="M71.8834 268.128L83.0883 274.604L95.3767 267.435L95.3565 270.404L83.0528 277.594L71.8834 271.057V268.128Z" fill="#146FA1"/>
<path d="M98.8855 284.252L87.6806 277.776L100.04 270.678L111.174 277.083L98.8855 284.252Z" fill="#61C6FF"/>
<path d="M87.6806 277.776L98.8855 284.252L111.174 277.083L111.154 280.053L98.8501 287.237L87.6806 280.706V277.776Z" fill="#146FA1"/>
<path d="M97.1235 251.346L129.452 232.521L159.416 249.662L127.478 268.265L97.1286 251.346H97.1235Z" fill="#6254C6"/>
<path d="M97.1235 251.376V254.483L127.472 272.013V268.29L97.1235 251.371V251.376Z" fill="#3524B6"/>
<path d="M127.478 268.295L159.416 249.691V253.8L127.478 272.018V268.295Z" fill="#3E2DB9"/>
<path d="M153.477 248.907L125.65 264.692L103.058 251.877L130.885 236.092L153.477 248.907Z" fill="#D5D1F0"/>
<path d="M145.705 246.889L136.176 252.297L135.427 251.872L144.956 246.469L145.705 246.894V246.889Z" fill="white"/>
<path d="M141.756 244.647L132.227 250.051L122.774 244.688L132.303 239.279L141.756 244.642V244.647Z" fill="white"/>
<path d="M148.373 248.402L138.844 253.805L138.095 253.38L147.624 247.977L148.373 248.402Z" fill="white"/>
<path d="M122.495 252.348C123.29 251.29 122.895 250 121.326 249.105C119.285 247.951 116.05 247.911 114.095 249.019C112.141 250.127 112.212 251.963 114.252 253.122C115.827 254.012 118.111 254.24 119.969 253.79C117.842 255.687 118.323 258.282 121.361 260.003L124.647 261.869L136.743 255.009L133.457 253.142C130.424 251.422 125.842 251.149 122.5 252.353L122.495 252.348Z" fill="#6254C6"/>
<path d="M97.1235 243.747L129.452 224.921L159.416 242.062L127.478 260.665L97.1286 243.747H97.1235Z" fill="#6254C6"/>
<path d="M97.1235 243.777V246.884L127.472 264.42V260.696L97.1235 243.777Z" fill="#3524B6"/>
<path d="M127.478 260.696L159.416 242.093V246.201L127.478 264.425V260.701V260.696Z" fill="#3E2DB9"/>
<path d="M153.477 241.309L125.65 257.089L103.058 244.273L130.885 228.493L153.477 241.309Z" fill="#D5D1F0"/>
<path d="M145.705 239.289L136.176 244.693L135.427 244.268L144.956 238.864L145.705 239.289Z" fill="white"/>
<path d="M141.756 237.053L132.227 242.457L122.774 237.094L132.303 231.69L141.756 237.053Z" fill="white"/>
<path d="M148.373 240.802L138.844 246.21L138.095 245.78L147.624 240.377L148.373 240.802Z" fill="white"/>
<path d="M122.495 244.754C123.29 243.702 122.895 242.406 121.326 241.511C119.285 240.357 116.05 240.317 114.095 241.425C112.141 242.533 112.212 244.369 114.252 245.523C115.827 246.413 118.111 246.641 119.969 246.191C117.842 248.088 118.323 250.684 121.361 252.404L124.647 254.271L136.743 247.41L133.457 245.543C130.424 243.823 125.842 243.55 122.5 244.754H122.495Z" fill="#6254C6"/>
<path d="M97.1235 236.148L129.452 217.322L159.416 234.463L127.478 253.067L97.1286 236.148H97.1235Z" fill="#6254C6"/>
<path d="M97.1235 236.178V239.284L127.472 256.815V253.091L97.1235 236.173V236.178Z" fill="#3524B6"/>
<path d="M127.478 253.096L159.416 234.493V238.601L127.478 256.82V253.096Z" fill="#3E2DB9"/>
<path d="M153.477 233.709L125.65 249.489L103.058 236.679L130.885 220.894L153.477 233.709Z" fill="#D5D1F0"/>
<path d="M145.705 231.691L136.176 237.099L135.427 236.669L144.956 231.266L145.705 231.691Z" fill="white"/>
<path d="M141.756 229.449L132.227 234.852L122.774 229.49L132.303 224.081L141.756 229.444V229.449Z" fill="white"/>
<path d="M148.373 233.208L138.844 238.612L138.095 238.187L147.624 232.783L148.373 233.208Z" fill="white"/>
<path d="M122.495 237.149C123.29 236.097 122.895 234.802 121.326 233.906C119.285 232.753 116.05 232.712 114.095 233.82C112.141 234.928 112.212 236.765 114.252 237.918C115.827 238.809 118.111 239.037 119.969 238.586C117.842 240.484 118.323 243.079 121.361 244.799L124.647 246.666L136.743 239.806L133.457 237.939C130.424 236.219 125.842 235.945 122.5 237.149H122.495Z" fill="#6254C6"/>
<path d="M97.1235 228.553L129.452 209.728L159.416 226.864L127.478 245.472L97.1286 228.553H97.1235Z" fill="#6254C6"/>
<path d="M97.1235 228.584V231.69L127.472 249.226V245.503L97.1235 228.584Z" fill="#3524B6"/>
<path d="M127.478 245.497L159.416 226.889V230.997L127.478 249.221V245.497Z" fill="#3E2DB9"/>
<path d="M153.477 226.11L125.65 241.895L103.058 229.08L130.885 213.3L153.477 226.11Z" fill="#D5D1F0"/>
<path d="M145.705 224.091L136.176 229.494L135.427 229.069L144.956 223.666L145.705 224.091Z" fill="white"/>
<path d="M141.756 221.855L132.227 227.259L122.774 221.896L132.303 216.492L141.756 221.855Z" fill="white"/>
<path d="M148.373 225.604L138.844 231.007L138.095 230.582L147.624 225.179L148.373 225.604Z" fill="white"/>
<path d="M122.495 229.556C123.29 228.503 122.895 227.208 121.326 226.313C119.285 225.159 116.05 225.119 114.095 226.227C112.141 227.335 112.212 229.171 114.252 230.325C115.827 231.215 118.111 231.443 119.969 230.993C117.842 232.89 118.323 235.485 121.361 237.205L124.647 239.072L136.743 232.212L133.457 230.345C130.424 228.625 125.842 228.352 122.5 229.556H122.495Z" fill="#6254C6"/>
<path d="M377.282 271.032L412.026 250.957L373.697 228.943L339.171 248.806L377.282 271.032Z" fill="#6254C6"/>
<path d="M377.064 268.28L407.261 250.835L373.95 231.7L343.945 248.963L377.064 268.274V268.28Z" fill="#F7F7F6"/>
<path d="M412.026 250.962L377.282 271.037L339.171 248.812L339.237 251.518L377.388 273.81L412.021 253.542V250.967L412.026 250.962Z" fill="#3E2DB9"/>
<path d="M343.945 248.963L352.725 243.914L367.768 242.497L369.054 249.995H388.573L390.471 260.539L377.064 268.28L343.945 248.968V248.963Z" fill="#E1EAFF"/>
<path d="M412.026 250.961L377.282 271.037L377.393 273.809L412.026 253.541V250.966V250.961Z" fill="#6254C6"/>
<path d="M274.833 296.193L343.991 256.239L267.704 212.425L198.985 251.959L274.833 296.193Z" fill="#F5F5F3"/>
<path d="M343.991 256.238L274.833 296.192L198.985 251.958L199.122 257.346L275.055 301.707L343.991 261.368V256.243V256.238Z" fill="#E3E2DD"/>
<path d="M274.833 296.192L275.055 301.707L199.122 257.346L198.985 251.958L274.833 296.192Z" fill="#DEDDD7"/>
<path d="M99.1336 176.842L176.809 131.965V62.9805L99.1336 107.857V176.837V176.842Z" fill="#61C6FF"/>
<path d="M103.903 134.707L172.515 95.0669V71.3789L103.903 111.019V134.707Z" fill="#BDE7FF"/>
<path d="M148.849 142.199L172.52 128.524V104.836L148.849 118.511V142.199Z" fill="#BDE7FF"/>
<path d="M103.903 168.165L146.308 143.667V119.979L103.903 144.477V168.165Z" fill="#BDE7FF"/>
<path d="M103.903 139.908L172.515 100.268V98.8359L103.903 138.476V139.913V139.908Z" fill="#BDE7FF"/>
<path d="M105.888 146.147L144.333 123.936V123.526L105.888 145.737V146.147Z" fill="#B6AFE4"/>
<path d="M105.888 149.551L144.333 127.34V126.931L105.888 149.141V149.551Z" fill="#B6AFE4"/>
<path d="M105.888 152.961L144.333 130.756V130.346L105.888 152.556V152.966V152.961Z" fill="#B6AFE4"/>
<path d="M105.888 156.367L144.333 134.156V133.746L105.888 155.957V156.367Z" fill="#B6AFE4"/>
<path d="M105.888 159.777L144.333 137.566V137.156L105.888 159.367V159.777Z" fill="#B6AFE4"/>
<path d="M105.888 163.181L144.333 140.975V140.565L105.888 162.771V163.181Z" fill="#B6AFE4"/>
<path d="M99.1336 107.856L176.809 62.9796V58.9473L99.1336 103.829V107.856Z" fill="#146FA1"/>
<path d="M165.492 127.143C169.021 122.443 169.73 117.019 167.077 115.016C164.424 113.017 159.406 115.203 155.877 119.903C152.348 124.598 151.639 130.027 154.292 132.031C156.951 134.029 161.963 131.843 165.492 127.143Z" fill="#9289D7"/>
<path d="M163.553 125.965C166.115 122.555 166.91 118.821 165.32 117.627C163.735 116.433 160.368 118.229 157.806 121.639C155.244 125.049 154.449 128.783 156.039 129.977C157.624 131.171 160.991 129.375 163.553 125.965Z" fill="#BDE7FF"/>
<path d="M176.814 58.953L174.226 58.3408L96.6628 102.853V175.804L99.1336 176.837V103.825L176.814 58.9429V58.953Z" fill="#BBB8AD"/>
<path d="M96.6628 102.854L99.1336 103.83V176.842L96.6628 175.81V102.854Z" fill="#F2F2F0"/>
<path d="M280.23 252.515V249.181L278.848 249.641L278.169 248.23L270.914 248.28C269.835 247.203 268.509 246.231 266.995 245.381L268.853 241.319V237.984L267.531 240.883L265.516 240.221L262.174 239.123L257.121 242.133C255.096 241.814 252.985 241.652 250.833 241.673L247.177 238.03L243.481 238.617L239.785 239.204L239.911 243.408C238.048 244.025 236.382 244.784 234.929 245.659L227.902 244.562L226.236 246.267L224.134 245.083V248.417L229.36 251.351C228.818 252.525 228.545 253.749 228.59 254.989L223.699 256.618L222.317 253.749V257.084L223.35 259.229L224.383 261.374L231.633 261.318C232.712 262.401 234.038 263.377 235.552 264.222L235.02 265.381L233.699 264.946V268.28L237.041 269.378L240.382 270.476L245.42 267.47C247.451 267.789 249.572 267.956 251.734 267.936L255.375 271.569L259.071 270.982L262.767 270.395V267.061L262.666 267.076L262.64 266.201C264.509 265.583 266.185 264.819 267.638 263.944L274.645 265.037L276.529 263.109L278.412 261.182V257.847L276.311 259.998L273.192 258.247C273.734 257.073 274.007 255.849 273.962 254.599L280.23 252.505V252.515ZM254.686 261.885C247.937 262.957 240.939 260.65 239.056 256.739C237.172 252.829 241.117 248.786 247.866 247.719C254.615 246.646 261.612 248.953 263.496 252.864C265.379 256.775 261.435 260.812 254.686 261.885Z" fill="#146FA2"/>
<path d="M245.937 254.68V254.883H245.942C245.957 255.125 246.013 255.373 246.129 255.621C246.924 257.271 249.871 258.237 252.716 257.792C255.045 257.422 256.575 256.218 256.625 254.888V251.478H245.932V254.685L245.937 254.68Z" fill="#146FA1"/>
<path d="M270.914 244.955C269.835 243.878 268.509 242.906 266.995 242.056L268.853 237.994L265.511 236.896L262.169 235.798L257.116 238.808C255.091 238.49 252.98 238.328 250.828 238.348L247.172 234.705L243.476 235.292L239.78 235.879L239.906 240.083C238.043 240.7 236.377 241.459 234.924 242.335L227.896 241.237L226.013 243.164L224.129 245.092L229.355 248.026C228.813 249.2 228.539 250.425 228.585 251.664L222.317 253.759L223.35 255.904L224.383 258.049L231.633 257.993C232.712 259.076 234.038 260.053 235.552 260.897L233.699 264.955L237.041 266.053L240.382 267.151L245.42 264.146C247.451 264.464 249.572 264.631 251.734 264.611L255.375 268.244L259.071 267.657L262.767 267.07L262.64 262.881C264.509 262.264 266.185 261.5 267.638 260.624L274.645 261.717L276.529 259.789L278.412 257.862L273.192 254.927C273.734 253.754 274.007 252.529 273.962 251.28L280.23 249.185L279.197 247.04L278.164 244.895L270.909 244.95L270.914 244.955ZM254.686 258.555C247.937 259.628 240.939 257.321 239.056 253.41C237.172 249.499 241.117 245.456 247.866 244.389C254.615 243.316 261.612 245.623 263.496 249.534C265.379 253.445 261.435 257.482 254.686 258.555Z" fill="#61C6FF"/>
<path d="M256.615 251.478C256.625 249.768 254.235 248.377 251.278 248.361C248.327 248.351 245.921 249.722 245.916 251.432C245.911 253.143 248.296 254.539 251.253 254.549C254.21 254.564 256.61 253.188 256.615 251.478Z" fill="#61C6FF"/>
<path d="M321.353 253.172V250.809L320.371 251.138L319.89 250.131L314.741 250.167C313.976 249.398 313.035 248.71 311.956 248.113L313.272 245.229V242.866L312.331 244.92L310.898 244.45L308.528 243.666L304.943 245.806C303.506 245.578 302.002 245.462 300.478 245.477L297.885 242.892L295.263 243.306L292.64 243.721L292.731 246.706C291.409 247.146 290.225 247.688 289.192 248.305L284.199 247.526L283.015 248.74L281.521 247.9V250.268L285.232 252.353C284.848 253.187 284.655 254.052 284.686 254.938L281.212 256.096L280.23 254.058V256.42L280.964 257.943L281.698 259.466L286.848 259.431C287.612 260.2 288.554 260.888 289.632 261.49L289.258 262.314L288.316 262.006V264.369L290.685 265.153L293.055 265.937L296.635 263.802C298.078 264.03 299.587 264.146 301.116 264.131L303.703 266.711L306.326 266.296L308.948 265.881V263.514L308.878 263.524L308.857 262.901C310.184 262.461 311.374 261.92 312.407 261.298L317.384 262.077L318.721 260.706L320.057 259.334V256.972L318.564 258.5L316.351 257.255C316.736 256.42 316.928 255.55 316.898 254.665L321.348 253.182V253.172H321.353ZM303.212 259.825C298.422 260.584 293.45 258.95 292.113 256.172C290.777 253.395 293.577 250.526 298.366 249.767C303.156 249.008 308.128 250.642 309.465 253.42C310.802 256.198 308.002 259.066 303.212 259.825Z" fill="#8A7FD4"/>
<path d="M296.999 254.706V254.847C297.009 255.024 297.05 255.196 297.136 255.368C297.703 256.537 299.794 257.225 301.814 256.912C303.465 256.648 304.554 255.793 304.589 254.847V252.424H296.999V254.701V254.706Z" fill="#8A7FD4"/>
<path d="M314.736 247.799C313.971 247.03 313.029 246.342 311.951 245.745L313.267 242.861L310.893 242.077L308.523 241.293L304.938 243.433C303.5 243.205 301.997 243.089 300.473 243.104L297.88 240.519L295.258 240.933L292.635 241.348L292.726 244.333C291.404 244.773 290.22 245.315 289.187 245.932L284.194 245.153L282.858 246.524L281.521 247.895L285.232 249.98C284.848 250.814 284.655 251.68 284.686 252.565L280.23 254.052L280.964 255.575L281.698 257.098L286.848 257.063C287.612 257.832 288.554 258.525 289.632 259.127L288.316 262.006L290.685 262.79L293.055 263.574L296.635 261.439C298.078 261.667 299.587 261.783 301.116 261.768L303.703 264.348L306.326 263.933L308.948 263.519L308.857 260.544C310.184 260.103 311.374 259.562 312.407 258.94L317.384 259.719L318.72 258.348L320.057 256.977L316.351 254.897C316.736 254.063 316.928 253.192 316.898 252.307L321.348 250.819L320.614 249.297L319.88 247.774L314.731 247.809V247.799H314.736ZM303.212 257.457C298.422 258.216 293.45 256.582 292.113 253.804C290.777 251.027 293.577 248.158 298.366 247.399C303.156 246.64 308.128 248.275 309.465 251.052C310.802 253.83 308.002 256.698 303.212 257.457Z" fill="#ADA6E1"/>
<path d="M304.452 251.852C305.019 253.021 303.835 254.23 301.814 254.554C299.794 254.878 297.698 254.185 297.136 253.011C296.569 251.842 297.754 250.633 299.774 250.309C301.794 249.985 303.89 250.678 304.452 251.852Z" fill="#ADA6E1"/>
<path d="M295.404 233.572V232.16L294.822 232.353L294.534 231.756L291.465 231.776C291.01 231.321 290.453 230.911 289.81 230.551L290.594 228.836V227.425L290.032 228.649L289.182 228.366L287.769 227.9L285.637 229.175C284.782 229.039 283.891 228.973 282.984 228.983L281.44 227.44L279.881 227.688L278.321 227.936L278.372 229.712C277.587 229.975 276.883 230.293 276.265 230.663L273.293 230.197L272.59 230.916L271.703 230.42V231.832L273.911 233.071C273.683 233.567 273.567 234.083 273.587 234.609L271.521 235.297L270.934 234.083V235.495L271.369 236.4L271.805 237.306L274.868 237.286C275.324 237.746 275.881 238.156 276.524 238.515L276.301 239.006L275.744 238.824V240.235L277.157 240.701L278.569 241.166L280.696 239.896C281.556 240.033 282.448 240.104 283.364 240.093L284.903 241.626L286.463 241.379L288.022 241.131V239.724H287.982L287.972 239.36C288.761 239.097 289.47 238.773 290.088 238.409L293.05 238.869L293.845 238.055L294.64 237.24V235.828L293.754 236.739L292.437 236C292.67 235.505 292.782 234.989 292.761 234.457L295.409 233.577H295.415L295.404 233.572ZM284.615 237.533C281.764 237.984 278.807 237.012 278.012 235.358C277.217 233.703 278.883 231.998 281.734 231.548C284.584 231.098 287.541 232.069 288.336 233.724C289.131 235.378 287.465 237.083 284.615 237.533Z" fill="#8A7FD4"/>
<path d="M280.913 234.489V234.575C280.919 234.676 280.944 234.782 280.989 234.888C281.324 235.586 282.569 235.996 283.774 235.804C284.756 235.647 285.405 235.136 285.425 234.58V233.138H280.908V234.494H280.913V234.489Z" fill="#8A7FD4"/>
<path d="M291.47 230.375C291.015 229.919 290.458 229.51 289.815 229.15L290.599 227.435L289.187 226.97L287.774 226.504L285.642 227.779C284.787 227.643 283.896 227.577 282.989 227.587L281.445 226.044L279.886 226.292L278.326 226.54L278.377 228.316C277.592 228.579 276.888 228.897 276.27 229.267L273.298 228.801L272.503 229.616L271.708 230.43L273.916 231.67C273.688 232.166 273.572 232.682 273.592 233.208L270.944 234.093L271.379 234.999L271.815 235.905L274.878 235.884C275.334 236.345 275.891 236.755 276.534 237.109L275.749 238.824L277.162 239.289L278.574 239.755L280.701 238.485C281.562 238.622 282.453 238.692 283.369 238.682L284.908 240.22L286.468 239.972L288.027 239.725L287.972 237.954C288.761 237.691 289.47 237.367 290.088 237.003L293.05 237.463L293.845 236.648L294.64 235.834L292.432 234.594C292.665 234.098 292.777 233.582 292.756 233.051L295.404 232.171L294.969 231.265L294.534 230.36L291.465 230.38H291.47V230.375ZM284.615 236.122C281.764 236.573 278.807 235.601 278.012 233.947C277.217 232.292 278.883 230.587 281.734 230.137C284.584 229.687 287.541 230.658 288.336 232.313C289.131 233.967 287.465 235.672 284.615 236.122Z" fill="#ADA6E1"/>
<path d="M285.349 232.782C285.683 233.481 284.984 234.199 283.779 234.386C282.574 234.579 281.334 234.169 280.999 233.471C280.665 232.772 281.364 232.054 282.569 231.867C283.774 231.674 285.015 232.084 285.354 232.782H285.349Z" fill="#ADA6E1"/>
<path d="M370.209 178.238L373.9 174.97C373.869 174.803 371.728 175.607 371.728 175.607C371.728 175.607 373.915 173.821 373.93 173.679C373.945 173.543 371.338 174.681 371.115 174.828C370.892 174.975 373.272 172.926 373.297 172.824C373.322 172.723 370.528 173.963 370.528 173.963C370.528 173.963 371.581 171.15 371.535 171.008C371.49 170.866 370.133 172.9 369.829 173.305C369.829 173.305 368.239 175.582 367.88 176.27C367.378 177.221 369.419 178.688 370.214 178.248L370.209 178.238Z" fill="#9B93DB"/>
<path d="M371.272 313.126C371.469 303.529 356.335 295.439 337.47 295.054C318.609 294.67 303.156 302.132 302.959 311.73C302.761 321.328 317.895 329.418 336.761 329.802C355.626 330.187 371.074 322.719 371.272 313.126Z" fill="#F8F8F7"/>
<path d="M327.328 188.398C330.432 189.956 333.07 188.438 333.07 188.438C332.903 186.936 333.338 185.236 334.7 185.175C335.784 185.124 336.153 186.253 336.153 186.253C337.232 185.423 337.308 184.548 337.48 183.505C337.227 183.04 336.493 182.483 335.029 182.463C335.029 182.463 336.017 181.937 337.46 182.423C339.141 181.375 339.976 180.535 340.381 179.903H340.391C340.391 179.903 340.452 179.271 340.644 178.876C340.867 181.416 341.475 190.32 338.422 191.742C337.622 192.111 336.806 192.076 336.007 191.777C335.693 193.022 335.348 194.631 335.237 196.063L325.46 192.658C325.46 192.658 326.852 190.128 327.333 188.393L327.328 188.398Z" fill="#B8B2E5"/>
<path d="M326.791 180.282C326.791 180.282 327.47 177.621 329.546 176.396C331.242 175.395 335.966 175.278 335.966 175.278C342.447 175.617 340.381 179.913 340.381 179.913H340.371C339.966 180.545 339.136 181.385 337.45 182.432C337.819 184.269 337.222 185.432 336.143 186.262C336.143 186.262 335.774 185.134 334.69 185.185C333.333 185.245 332.898 186.945 333.06 188.448C333.06 188.448 330.422 189.966 327.318 188.407C327.318 188.407 326.214 184.805 326.781 180.287L326.791 180.282Z" fill="#B8B2E5"/>
<path d="M336.412 182.396C336.807 182.154 337.126 181.491 337.126 181.491C332.741 184.653 328.857 181.324 328.857 181.324C327.91 181.38 327.242 180.666 326.847 180.074C326.807 180.206 326.786 180.287 326.786 180.287C326.219 184.805 327.323 188.407 327.323 188.407C330.427 189.96 333.065 188.448 333.065 188.448C332.898 186.945 333.333 185.245 334.695 185.184C335.748 185.139 336.123 186.191 336.143 186.252C337.201 184.268 336.412 182.407 336.412 182.407V182.396Z" fill="#4737BC"/>
<path d="M333.419 188.109L333.05 188.155C333.055 188.251 333.055 188.347 333.065 188.443C333.065 188.443 330.427 189.961 327.323 188.403C326.842 190.133 325.45 192.663 325.45 192.663L330.472 194.413L331.338 191.803L333.141 190.674C334.224 191.352 335.996 191.782 335.996 191.782C334.442 190.745 333.409 188.109 333.409 188.109H333.419Z" fill="#9E95DB"/>
<path d="M339.404 176.149C339.561 177.348 339.495 179.539 337.429 181.123C337.429 181.123 339.971 180.212 340.594 177.677C340.442 177.136 340.098 176.585 339.404 176.149Z" fill="#8A7FD4"/>
<path d="M367.662 176.396C359.981 188.144 353.166 196.31 353.166 196.31C344.751 198.137 337.951 198.041 335.748 197.949C335.713 197.934 335.682 197.914 335.652 197.904H335.662L335.237 196.072C335.237 196.072 331.12 192.875 325.46 192.667C325.46 192.667 324.153 193.366 323.318 194.565L323.348 194.575C322.108 194.661 320.948 194.934 319.911 195.465C315.784 197.57 315.242 203.631 317.03 212.713C318.645 220.919 318.589 227.496 318.776 234.696C318.776 234.696 318.908 242.634 318.574 245.143C318.574 245.143 326.265 248.285 335.495 248.285C335.495 248.285 342.837 249.049 348.432 244.981C348.432 244.981 348.239 243.757 347.966 241.905C347.834 241.025 346.437 229.859 346.437 229.859C346.432 229.788 346.422 229.717 346.416 229.646C346.32 228.508 346.204 227.299 346.087 226.075C345.986 223.039 345.728 218.318 345.075 213.133C345.065 212.359 345.034 211.509 344.953 210.618C344.862 209.429 344.624 208.316 344.325 207.324C354.801 205.078 358.194 201.577 358.194 201.577C365.738 192.526 370.75 177.99 370.75 177.99L367.667 176.402L367.662 176.396Z" fill="#8A7FD4"/>
<path d="M321.267 310.622L327.819 307.161C331.789 306.301 335.531 304.192 336.244 305.846C337.039 307.683 335.571 309.711 333.961 310.794C331.667 312.342 329.951 313.066 327.961 312.954L327.905 314.432L323.855 316.02L320.938 314.892L320.928 313.815L321.267 310.632V310.622Z" fill="#B992E9"/>
<path d="M338.999 322.446L339.227 322.952L343.976 323.245L345.348 322.021C345.348 322.021 354.609 321.651 355.485 317.224C356.467 312.251 347.156 316.01 346.184 316.01C345.211 316.01 339.131 318.97 339.131 318.97L338.994 322.441L338.999 322.446Z" fill="#B992E9"/>
<path d="M319.789 245.478C322.437 246.935 329.272 248.002 335.49 248.255C335.49 248.255 342.69 248.761 347.647 245.478C348.416 252.48 349.12 263.271 348.234 274.862C346.654 295.414 346.452 317.478 346.452 317.478L339.151 319.036C339.151 319.036 333.713 298.136 337.662 274.953C337.662 274.953 335.424 268.842 333.151 261.44C332.994 263.909 332.67 268.219 332.067 273.254C331.07 281.541 328.953 309.833 328.953 309.833L321.227 311.133C319.126 293.612 321.733 272.672 321.733 272.672C321.865 271.356 321.293 256.588 320.113 246.975C320.073 246.621 319.83 245.822 319.794 245.483L319.789 245.478Z" fill="#311FB4"/>
<path d="M320.108 246.994C321.293 256.612 321.86 271.375 321.728 272.691C321.728 272.691 319.116 293.637 321.222 311.152L325.019 310.515C324.154 300.993 325.586 276.05 326.199 272.327C326.852 268.37 326.199 256.501 326.199 256.501C328.543 257.973 330.29 258.423 330.29 258.423C324.867 254.128 323.85 247.809 323.85 247.809L323.88 246.837C322.037 246.271 320.954 246.043 319.88 245.618C319.921 245.957 320.062 246.645 320.103 246.994H320.108Z" fill="#261C6C"/>
<path d="M339.151 319.056L342.538 318.332C338.761 303.579 341.819 275.48 341.708 274.812C341.596 274.134 340.33 272.626 337.844 268.103C335.358 263.58 333.151 261.46 333.151 261.46C335.424 268.862 337.662 274.974 337.662 274.974C333.713 298.156 339.151 319.056 339.151 319.056Z" fill="#261C6C"/>
<path d="M341.328 229.671C333.465 231.559 327.561 229.773 324.984 228.7C324.164 221.718 323.009 214.514 322.402 209.834C321.597 203.606 323.07 199.563 324.24 197.453C328.442 198.126 334.143 197.792 334.143 197.792C329.698 197.008 325.46 195.688 325.46 195.688C325.257 193.34 326.113 192.768 326.204 192.713C325.956 192.692 325.713 192.672 325.46 192.662C325.46 192.662 324.154 193.36 323.318 194.559L323.348 194.569C322.108 194.655 320.949 194.929 319.911 195.46C318.336 196.264 317.278 197.646 316.68 199.553C313.323 208.837 313.49 213.628 313.49 213.628C314.538 219.062 316.63 224.223 318.619 228.265C318.685 230.39 318.721 232.51 318.776 234.69C318.776 234.69 318.908 242.629 318.574 245.138C318.574 245.138 321.136 246.211 325.328 247.121C326.042 244.647 326.027 240.407 325.662 235.54L326.508 235.156C326.184 233.891 325.865 232.662 325.546 231.478C333.612 233.719 341.338 229.671 341.338 229.671H341.328Z" fill="#7A6ECF"/>
<path d="M347.966 241.895C347.834 241.015 346.437 229.849 346.437 229.849C346.432 229.778 346.422 229.707 346.417 229.637C346.32 228.498 346.204 227.289 346.087 226.065C345.986 223.029 345.728 218.309 345.075 213.123C345.065 212.349 345.034 211.499 344.953 210.608C344.928 210.325 344.903 210.052 344.862 209.784C344.862 209.784 343.414 210.001 340.401 208.038C340.401 208.038 341.505 210.163 343.571 214.377C343.571 214.377 344.811 223.52 344.857 226.399C344.903 229.282 343.966 242.857 344.857 246.899C346.067 246.424 347.277 245.796 348.422 244.972C348.422 244.972 348.229 243.747 347.956 241.895H347.961H347.966Z" fill="#A29ADD"/>
<path d="M332.062 273.248C332.665 268.229 332.984 263.928 333.146 261.459C333.131 261.444 330.71 259.36 330.295 258.424C330.295 258.424 330.933 260.822 331.723 262.967C331.723 262.967 331.389 268.624 331.181 270.455C330.969 272.281 327.819 307.065 327.89 310.009L328.953 309.827C328.953 309.827 331.075 281.535 332.067 273.248H332.062Z" fill="#311FB4"/>
<path d="M323.85 316.016L324.305 310.638L321.217 311.159L320.923 313.805L320.933 314.888L323.85 316.016Z" fill="#7D4CCF"/>
<path d="M345.353 322.021L344.315 320.938L344.168 317.963L339.146 319.056L338.994 322.44L339.227 322.951L343.976 323.245L345.348 322.021H345.353Z" fill="#7D4CCF"/>
<path d="M354.639 314.968C354.675 315.641 354.457 316.663 353.267 317.832C351.292 319.779 344.315 320.938 344.315 320.938L343.789 321.5L343.981 323.24L345.353 322.016C345.353 322.016 354.614 321.646 355.49 317.219C355.728 316.005 355.353 315.317 354.639 314.963V314.968Z" fill="#7D4CCF"/>
<path d="M327.961 312.949C329.951 313.06 331.662 312.337 333.961 310.788C335.526 309.736 336.953 307.788 336.3 305.992C334.553 311.552 326.508 312.043 326.508 312.043L327.105 312.994L324.022 314.047L323.855 316.01L327.905 314.421L327.961 312.944V312.949Z" fill="#7D4CCF"/>
</svg>
