<svg width="100" height="100" viewBox="0 0 100 100" fill="none" xmlns="http://www.w3.org/2000/svg">
<path d="M21.1094 32.0454V63.0454H34.1094" stroke="black" stroke-width="3" stroke-linecap="round" stroke-linejoin="round"/>
<path d="M21.1094 53.0454L30.8262 43.5913C31.3296 43.1012 31.9272 42.7124 32.5851 42.4472C33.2429 42.1819 33.9481 42.0454 34.6602 42.0454C35.3723 42.0454 36.0774 42.1819 36.7352 42.4472C37.3931 42.7124 37.9908 43.1012 38.4941 43.5913L40.1094 45.1629" stroke="black" stroke-width="3" stroke-linecap="round" stroke-linejoin="round"/>
<path d="M39.6094 79.0454H16.2912C14.9169 79.0454 13.5989 78.4943 12.6271 77.5134C11.6553 76.5324 11.1094 75.2019 11.1094 73.8146V16.2762C11.1094 14.8889 11.6553 13.5584 12.6271 12.5775C13.5989 11.5965 14.9169 11.0454 16.2912 11.0454H53.0096C54.3829 11.0457 55.7 11.5963 56.6714 12.5763L66.5928 22.5915C67.5636 23.5721 68.1091 24.9016 68.1094 26.2879V34.5839" stroke="black" stroke-width="3" stroke-linecap="round" stroke-linejoin="round"/>
<path d="M45.1094 63.0454C45.1094 67.8193 47.0058 72.3977 50.3815 75.7733C53.7571 79.149 58.3355 81.0454 63.1094 81.0454C67.8833 81.0454 72.4616 79.149 75.8373 75.7733C79.213 72.3977 81.1094 67.8193 81.1094 63.0454C81.1094 58.2715 79.213 53.6931 75.8373 50.3175C72.4616 46.9418 67.8833 45.0454 63.1094 45.0454C58.3355 45.0454 53.7571 46.9418 50.3815 50.3175C47.0058 53.6931 45.1094 58.2715 45.1094 63.0454Z" stroke="#00CCF5" stroke-width="3" stroke-linecap="round" stroke-linejoin="round"/>
<path d="M89.1094 89.0454L76.1094 76.0454" stroke="#00CCF5" stroke-width="3" stroke-linecap="round" stroke-linejoin="round"/>
</svg>
