<svg width="284" height="124" viewBox="0 0 284 124" fill="none" xmlns="http://www.w3.org/2000/svg">
<path d="M99.4785 63.5821C99.4916 69.6866 98.2965 75.7333 95.9622 81.3739C93.6278 87.0145 90.2004 92.1374 85.8773 96.4474C81.5542 100.757 76.421 104.169 70.7733 106.487C65.1257 108.804 59.0754 109.981 52.9709 109.949C48.0042 109.933 43.0716 109.127 38.3583 107.561C36.7984 105.169 34.3871 103.461 31.614 102.783C30.3004 102.358 28.912 102.215 27.5393 102.362C18.9429 96.7026 12.4616 88.357 9.10649 78.6273C5.75141 68.8976 5.7113 58.3309 8.99243 48.576C12.2241 47.8735 14.4722 46.0469 14.3317 43.9393C14.2587 43.3275 14.0426 42.7415 13.7008 42.2288C13.3591 41.7162 12.9013 41.2913 12.3646 40.9886C16.4961 33.5404 22.5959 27.3715 29.9972 23.1564C37.3984 18.9413 45.8161 16.8422 54.3299 17.0888C62.8437 17.3354 71.1259 19.918 78.2708 24.5544C85.4157 29.1908 91.1483 35.7024 94.8418 43.3773L94.5608 43.6583C92.9602 44.9637 91.943 46.8509 91.7322 48.9056C91.5215 50.9602 92.1345 53.0146 93.4367 54.6178C94.4398 55.8645 95.8203 56.7519 97.3709 57.1469C97.7924 57.2874 98.0734 57.2874 98.495 57.4279H98.9165C99.2982 59.4569 99.4864 61.5175 99.4785 63.5821Z" fill="#FFECE1"/>
<path d="M98.7759 63.5822C98.7759 75.6932 93.9648 87.3082 85.401 95.8719C76.8373 104.436 65.2223 109.247 53.1113 109.247C48.2364 109.231 43.3963 108.424 38.7797 106.858C38.0375 105.689 37.0722 104.678 35.9391 103.883C34.806 103.087 33.5272 102.523 32.1759 102.221C30.9089 101.805 29.5681 101.661 28.2417 101.8H28.1012C19.651 96.253 13.2759 88.0638 9.97134 78.5111C6.6668 68.9585 6.61898 58.5804 9.83535 48.9977C12.9265 48.2951 15.1746 46.4686 15.0341 44.361C14.9777 43.7623 14.7668 43.1885 14.422 42.6959C14.0772 42.2033 13.6102 41.8087 13.067 41.5508C17.1349 34.2158 23.1415 28.1407 30.4299 23.99C37.7183 19.8392 46.0078 17.7727 54.3917 18.0164C62.7756 18.2601 70.9311 20.8046 77.9661 25.3717C85.0011 29.9387 90.6447 36.3525 94.2797 43.9113L93.9986 44.1924C92.4356 45.4607 91.4394 47.2973 91.2287 49.2992C91.018 51.3011 91.6099 53.3048 92.8746 54.8708C93.8776 56.1175 95.2582 57.005 96.8088 57.4C97.2303 57.5405 97.5113 57.5405 97.9328 57.681H98.3543L98.7759 63.5822Z" fill="#6FBBC4"/>
<path d="M76.5548 99.9542C80.5528 97.5681 82.3109 93.1489 80.4815 90.0838C78.6521 87.0186 73.9281 86.4681 69.93 88.8543C65.932 91.2404 64.1739 95.6596 66.0033 98.7248C67.8327 101.79 72.5567 102.34 76.5548 99.9542Z" fill="#D7F0EE"/>
<path d="M76.9235 100.374C80.9215 97.9878 82.7441 93.6767 80.9942 90.7448C79.2444 87.8129 74.5848 87.3705 70.5868 89.7566C66.5887 92.1428 64.7662 96.4539 66.516 99.3858C68.2659 102.318 72.9255 102.76 76.9235 100.374Z" fill="#1B403D"/>
<path d="M76.6349 99.9692C80.633 97.583 82.4555 93.2719 80.7056 90.34C78.9558 87.4081 74.2962 86.9657 70.2982 89.3519C66.3001 91.738 64.4776 96.0491 66.2275 98.981C67.9773 101.913 72.6369 102.355 76.6349 99.9692Z" fill="#1C5955"/>
<path d="M75.1995 97.496C78.6645 95.428 80.3773 91.915 79.0251 89.6494C77.673 87.3839 73.7679 87.2237 70.3029 89.2917C66.838 91.3597 65.1252 94.8727 66.4773 97.1383C67.8295 99.4038 71.7345 99.564 75.1995 97.496Z" fill="#2A867F"/>
<path d="M97.7924 57.7088C97.4041 57.6821 97.0235 57.5869 96.6684 57.4277C94.7127 56.8863 93.0519 55.5907 92.0508 53.8256C91.0497 52.0605 90.7901 49.9702 91.3291 48.0138C91.724 46.4632 92.6115 45.0827 93.8582 44.0796C89.0923 34.0861 80.9233 26.1164 70.8152 21.5986C77.5836 34.5097 81.0586 48.8925 80.9316 63.4695C80.9378 71.4765 79.9466 79.4531 77.981 87.2151C79.2909 87.5573 80.4363 88.3541 81.2127 89.4632C81.2127 89.6037 81.3532 89.6037 81.3532 89.7442L81.4937 89.8847L81.6342 90.0252L81.7747 90.1657C83.6013 93.2569 81.9152 97.6126 77.8405 100.001C76.3212 100.976 74.5825 101.555 72.7823 101.687C72.2583 102.9 71.6478 104.074 70.9557 105.2C80.0012 101.3 87.5214 94.547 92.3674 85.9713C97.2134 77.3956 99.1188 67.4692 97.7924 57.7088Z" fill="#5B99A1"/>
<path d="M35.5301 39.8852C37.6968 38.5203 38.6149 36.0831 37.5809 34.4417C36.5468 32.8003 33.9521 32.5762 31.7854 33.9411C29.6187 35.3061 28.7006 37.7432 29.7346 39.3847C30.7687 41.0261 33.3634 41.2502 35.5301 39.8852Z" fill="#D7F0EE"/>
<path d="M35.2536 39.4863C37.4203 38.1214 38.372 35.7375 37.3793 34.1617C36.3866 32.5859 33.8254 32.415 31.6587 33.78C29.492 35.1449 28.5403 37.5289 29.533 39.1046C30.5257 40.6804 33.0869 40.8513 35.2536 39.4863Z" fill="#1B403D"/>
<path d="M35.3488 39.6348C37.5155 38.2698 38.4672 35.8859 37.4745 34.3101C36.4818 32.7344 33.9206 32.5635 31.7539 33.9284C29.5873 35.2934 28.6356 37.6773 29.6282 39.2531C30.6209 40.8288 33.1821 40.9997 35.3488 39.6348Z" fill="#1C5955"/>
<path d="M35.352 39.6157C37.2561 38.4162 38.196 36.4857 37.4515 35.3039C36.707 34.1221 34.5599 34.1364 32.6558 35.3359C30.7518 36.5354 29.8118 38.4659 30.5563 39.6477C31.3009 40.8295 33.4479 40.8152 35.352 39.6157Z" fill="#2A867F"/>
<path d="M26.2766 89.3373C28.4209 87.6704 27.3794 82.7432 23.9503 78.3321C20.5213 73.9209 16.0032 71.6963 13.8589 73.3632C11.7146 75.0301 12.7561 79.9573 16.1851 84.3684C19.6142 88.7796 24.1322 91.0042 26.2766 89.3373Z" fill="#D7F0EE"/>
<path d="M25.8589 89.7017C27.8807 88.13 26.7398 83.28 23.3108 78.8689C19.8818 74.4578 15.463 72.1559 13.4413 73.7275C11.4195 75.2992 12.5603 80.1492 15.9893 84.5603C19.4184 88.9715 23.8371 91.2733 25.8589 89.7017Z" fill="#1B403D"/>
<path d="M26.168 89.5332C28.1897 87.9616 27.0489 83.1116 23.6199 78.7004C20.1909 74.2893 15.7721 71.9874 13.7503 73.5591C11.7286 75.1307 12.8694 79.9807 16.2984 84.3919C19.7274 88.803 24.1462 91.1049 26.168 89.5332Z" fill="#1C5955"/>
<path d="M26.1944 87.8455C27.726 86.6548 26.5354 82.5607 23.535 78.7009C20.5345 74.8412 16.8606 72.6775 15.329 73.8681C13.7973 75.0587 14.988 79.1529 17.9884 83.0126C20.9888 86.8724 24.6627 89.0361 26.1944 87.8455Z" fill="#2A867F"/>
<path d="M52.8304 88.9013C55.3136 88.9013 57.3266 86.9512 57.3266 84.5456C57.3266 82.1401 55.3136 80.1899 52.8304 80.1899C50.3472 80.1899 48.3342 82.1401 48.3342 84.5456C48.3342 86.9512 50.3472 88.9013 52.8304 88.9013Z" fill="white"/>
<path d="M53.2518 90.3066C55.735 90.3066 57.748 88.3565 57.748 85.9509C57.748 83.5453 55.735 81.5952 53.2518 81.5952C50.7686 81.5952 48.7556 83.5453 48.7556 85.9509C48.7556 88.3565 50.7686 90.3066 53.2518 90.3066Z" fill="#1B403D"/>
<path d="M52.9708 89.7441C55.454 89.7441 57.467 87.794 57.467 85.3884C57.467 82.9828 55.454 81.0327 52.9708 81.0327C50.4876 81.0327 48.4746 82.9828 48.4746 85.3884C48.4746 87.794 50.4876 89.7441 52.9708 89.7441Z" fill="#1C5955"/>
<path d="M52.8304 89.1821C55.3136 89.1821 57.3266 87.232 57.3266 84.8264C57.3266 82.4208 55.3136 80.4707 52.8304 80.4707C50.3472 80.4707 48.3342 82.4208 48.3342 84.8264C48.3342 87.232 50.3472 89.1821 52.8304 89.1821Z" fill="#2A867F"/>
<path d="M52.6898 76.1151C52.1989 76.132 51.7096 76.0501 51.2509 75.8743C50.7922 75.6985 50.3735 75.4323 50.0196 75.0916C49.6658 74.7509 49.384 74.3425 49.191 73.8908C48.998 73.439 48.8978 72.9531 48.8962 72.4619V63.5819C48.9428 62.6038 49.3616 61.6806 50.067 61.0013C50.7723 60.3221 51.7107 59.9384 52.6898 59.9287C53.7987 59.9256 54.8956 59.6985 55.9146 59.2611C56.9335 58.8236 57.8537 58.1849 58.6197 57.3831C59.3858 56.5814 59.982 55.6331 60.3726 54.5953C60.7632 53.5575 60.9401 52.4514 60.8928 51.3435C60.8454 50.2356 60.5748 49.1487 60.0971 48.148C59.6193 47.1473 58.9444 46.2534 58.1127 45.5199C57.2811 44.7864 56.3098 44.2285 55.2572 43.8796C54.2047 43.5307 53.0924 43.398 51.9873 43.4895C49.873 43.5942 47.8755 44.4906 46.3917 46.0004C44.9079 47.5102 44.0464 49.523 43.9785 51.6389C43.9785 52.645 43.5788 53.6099 42.8673 54.3214C42.1559 55.0328 41.1909 55.4325 40.1848 55.4325C39.1786 55.4325 38.2137 55.0328 37.5023 54.3214C36.7908 53.6099 36.3911 52.645 36.3911 51.6389C36.7482 47.551 38.6288 43.7467 41.6599 40.9808C44.6911 38.2149 48.6511 36.6895 52.7545 36.7072C56.8579 36.7249 60.8047 38.2844 63.8118 41.0763C66.819 43.8683 68.6668 47.6886 68.9886 51.7794C68.9095 55.3451 67.6331 58.7806 65.3649 61.5331C63.0967 64.2855 59.9684 66.1949 56.4835 66.954V72.4338C56.465 73.4239 56.0559 74.3665 55.3452 75.0561C54.6345 75.7457 53.68 76.1264 52.6898 76.1151Z" fill="white"/>
<path d="M52.9709 78.5037C51.9659 78.5196 50.994 78.1446 50.2601 77.4579C49.5262 76.7711 49.0875 75.8263 49.0367 74.8224V66.111C49.0946 65.1122 49.5362 64.1744 50.2694 63.4936C51.0026 62.8128 51.9705 62.4417 52.9709 62.4579C54.5583 62.3511 56.08 61.7827 57.3487 60.8227C58.6175 59.8626 59.578 58.5528 60.1123 57.0541C60.6466 55.5555 60.7312 53.9333 60.3559 52.3872C59.9806 50.8411 59.1617 49.4383 57.9998 48.3514C56.8379 47.2644 55.3837 46.5407 53.816 46.2692C52.2483 45.9977 50.6354 46.1902 49.1757 46.8231C47.7159 47.456 46.4729 48.5016 45.5995 49.8315C44.7261 51.1614 44.2603 52.7175 44.2595 54.3085C44.1761 55.2945 43.7255 56.2133 42.9969 56.8828C42.2683 57.5524 41.3148 57.9239 40.3253 57.9239C39.3358 57.9239 38.3823 57.5524 37.6537 56.8828C36.9251 56.2133 36.4745 55.2945 36.3911 54.3085C36.3911 45.7376 43.838 38.8528 52.9709 38.9933C62.1038 39.1338 69.5506 46.0186 69.5506 54.449C69.4293 57.9933 68.1144 61.3927 65.8191 64.096C63.5238 66.7994 60.3827 68.6482 56.905 69.3427V74.8224C56.8542 75.8263 56.4156 76.7711 55.6816 77.4579C54.9477 78.1446 53.9758 78.5196 52.9709 78.5037Z" fill="#1B403D"/>
<path d="M52.8305 77.2395C52.3395 77.2564 51.8502 77.1746 51.3915 76.9988C50.9328 76.8229 50.5141 76.5568 50.1603 76.216C49.8064 75.8753 49.5246 75.4669 49.3316 75.0152C49.1387 74.5635 49.0384 74.0776 49.0368 73.5863V64.9873C49.0531 64.4885 49.168 63.9977 49.375 63.5435C49.5819 63.0893 49.8768 62.6805 50.2426 62.3409C50.6083 62.0012 51.0378 61.7374 51.5061 61.5646C51.9744 61.3918 52.4723 61.3135 52.971 61.3342C54.5455 61.241 56.0586 60.6898 57.324 59.7482C58.5895 58.8067 59.5523 57.5158 60.0939 56.0344C60.6356 54.553 60.7326 52.9456 60.3729 51.4099C60.0133 49.8741 59.2127 48.4769 58.0696 47.39C56.9266 46.3031 55.4908 45.574 53.9388 45.2922C52.3869 45.0104 50.7864 45.1882 49.3342 45.8039C47.882 46.4195 46.6413 47.4461 45.7647 48.7574C44.8881 50.0687 44.4138 51.6076 44.4001 53.1848C44.4001 54.2282 43.9856 55.2289 43.2478 55.9667C42.51 56.7045 41.5093 57.119 40.4659 57.119C39.4225 57.119 38.4218 56.7045 37.684 55.9667C36.9462 55.2289 36.5317 54.2282 36.5317 53.1848C36.5317 44.7544 43.9786 37.8696 52.971 37.8696C61.9634 37.8696 69.2697 44.8949 69.2697 53.3253C69.1804 56.8572 67.8946 60.2541 65.6228 62.9599C63.351 65.6656 60.2278 67.5199 56.7647 68.219V73.6987C56.6406 74.6618 56.1755 75.5486 55.4537 76.1982C54.7319 76.8478 53.8013 77.2172 52.8305 77.2395Z" fill="#1C5955"/>
<path d="M52.6898 76.5369C52.1989 76.5539 51.7096 76.472 51.2509 76.2962C50.7922 76.1204 50.3735 75.8542 50.0196 75.5135C49.6658 75.1727 49.384 74.7644 49.191 74.3126C48.998 73.8609 48.8978 73.375 48.8962 72.8838V64.0319C48.9428 63.0538 49.3616 62.1305 50.067 61.4513C50.7723 60.7721 51.7107 60.3884 52.6898 60.3787C54.8736 60.2855 56.9308 59.3287 58.4091 57.7187C59.8873 56.1087 60.6654 53.9775 60.5723 51.7938C60.4791 49.6101 59.5223 47.5528 57.9123 46.0746C56.3023 44.5963 54.171 43.8182 51.9873 43.9114C49.873 44.0161 47.8755 44.9125 46.3917 46.4223C44.9079 47.9321 44.0464 49.9449 43.9785 52.0607C43.9785 53.0669 43.5788 54.0318 42.8673 54.7433C42.1559 55.4547 41.1909 55.8544 40.1848 55.8544C39.1786 55.8544 38.2137 55.4547 37.5023 54.7433C36.7908 54.0318 36.3911 53.0669 36.3911 52.0607C36.7482 47.9729 38.6288 44.1686 41.6599 41.4027C44.6911 38.6368 48.6511 37.1114 52.7545 37.1291C56.8579 37.1467 60.8047 38.7063 63.8118 41.4982C66.819 44.2901 68.6668 48.1105 68.9886 52.2012C68.9103 55.7302 67.6489 59.1307 65.4067 61.857C63.1646 64.5833 60.0716 66.4774 56.624 67.2354V72.7152C56.6259 73.2139 56.529 73.708 56.339 74.1691C56.149 74.6302 55.8697 75.0492 55.517 75.4018C55.1644 75.7545 54.7454 76.0338 54.2843 76.2238C53.8232 76.4138 53.3291 76.5107 52.8304 76.5088L52.6898 76.5369Z" fill="#2A867F"/>
<path d="M193.647 3.13959C193.174 3.13959 192.776 3.01265 192.454 2.75877C192.151 2.48903 192 2.16375 192 1.78293C192 1.40211 192.151 1.08477 192.454 0.830888C192.776 0.561142 193.174 0.42627 193.647 0.42627C194.101 0.42627 194.48 0.561142 194.783 0.830888C195.105 1.08477 195.265 1.40211 195.265 1.78293C195.265 2.16375 195.105 2.48903 194.783 2.75877C194.48 3.01265 194.101 3.13959 193.647 3.13959Z" fill="#CFCFCF"/>
<path d="M199.193 3.13959C198.72 3.13959 198.322 3.01265 198 2.75877C197.697 2.48903 197.546 2.16375 197.546 1.78293C197.546 1.40211 197.697 1.08477 198 0.830888C198.322 0.561142 198.72 0.42627 199.193 0.42627C199.647 0.42627 200.026 0.561142 200.329 0.830888C200.65 1.08477 200.811 1.40211 200.811 1.78293C200.811 2.16375 200.65 2.48903 200.329 2.75877C200.026 3.01265 199.647 3.13959 199.193 3.13959Z" fill="#CFCFCF"/>
<path d="M204.739 3.13959C204.265 3.13959 203.868 3.01265 203.546 2.75877C203.243 2.48903 203.092 2.16375 203.092 1.78293C203.092 1.40211 203.243 1.08477 203.546 0.830888C203.868 0.561142 204.265 0.42627 204.739 0.42627C205.193 0.42627 205.572 0.561142 205.875 0.830888C206.196 1.08477 206.357 1.40211 206.357 1.78293C206.357 2.16375 206.196 2.48903 205.875 2.75877C205.572 3.01265 205.193 3.13959 204.739 3.13959Z" fill="#CFCFCF"/>
<path d="M210.285 3.13959C209.811 3.13959 209.414 3.01265 209.092 2.75877C208.789 2.48903 208.638 2.16375 208.638 1.78293C208.638 1.40211 208.789 1.08477 209.092 0.830888C209.414 0.561142 209.811 0.42627 210.285 0.42627C210.739 0.42627 211.118 0.561142 211.42 0.830888C211.742 1.08477 211.903 1.40211 211.903 1.78293C211.903 2.16375 211.742 2.48903 211.42 2.75877C211.118 3.01265 210.739 3.13959 210.285 3.13959Z" fill="#CFCFCF"/>
<path d="M215.831 3.13959C215.357 3.13959 214.96 3.01265 214.638 2.75877C214.335 2.48903 214.184 2.16375 214.184 1.78293C214.184 1.40211 214.335 1.08477 214.638 0.830888C214.96 0.561142 215.357 0.42627 215.831 0.42627C216.285 0.42627 216.663 0.561142 216.966 0.830888C217.288 1.08477 217.449 1.40211 217.449 1.78293C217.449 2.16375 217.288 2.48903 216.966 2.75877C216.663 3.01265 216.285 3.13959 215.831 3.13959Z" fill="#CFCFCF"/>
<path d="M221.376 3.13959C220.903 3.13959 220.506 3.01265 220.184 2.75877C219.881 2.48903 219.73 2.16375 219.73 1.78293C219.73 1.40211 219.881 1.08477 220.184 0.830888C220.506 0.561142 220.903 0.42627 221.376 0.42627C221.831 0.42627 222.209 0.561142 222.512 0.830888C222.834 1.08477 222.995 1.40211 222.995 1.78293C222.995 2.16375 222.834 2.48903 222.512 2.75877C222.209 3.01265 221.831 3.13959 221.376 3.13959Z" fill="#CFCFCF"/>
<path d="M226.922 3.13959C226.449 3.13959 226.052 3.01265 225.73 2.75877C225.427 2.48903 225.275 2.16375 225.275 1.78293C225.275 1.40211 225.427 1.08477 225.73 0.830888C226.052 0.561142 226.449 0.42627 226.922 0.42627C227.377 0.42627 227.755 0.561142 228.058 0.830888C228.38 1.08477 228.541 1.40211 228.541 1.78293C228.541 2.16375 228.38 2.48903 228.058 2.75877C227.755 3.01265 227.377 3.13959 226.922 3.13959Z" fill="#CFCFCF"/>
<path d="M232.468 3.13959C231.995 3.13959 231.598 3.01265 231.276 2.75877C230.973 2.48903 230.821 2.16375 230.821 1.78293C230.821 1.40211 230.973 1.08477 231.276 0.830888C231.598 0.561142 231.995 0.42627 232.468 0.42627C232.923 0.42627 233.301 0.561142 233.604 0.830888C233.926 1.08477 234.087 1.40211 234.087 1.78293C234.087 2.16375 233.926 2.48903 233.604 2.75877C233.301 3.01265 232.923 3.13959 232.468 3.13959Z" fill="#CFCFCF"/>
<path d="M238.014 3.13959C237.541 3.13959 237.143 3.01265 236.822 2.75877C236.519 2.48903 236.367 2.16375 236.367 1.78293C236.367 1.40211 236.519 1.08477 236.822 0.830888C237.143 0.561142 237.541 0.42627 238.014 0.42627C238.469 0.42627 238.847 0.561142 239.15 0.830888C239.472 1.08477 239.633 1.40211 239.633 1.78293C239.633 2.16375 239.472 2.48903 239.15 2.75877C238.847 3.01265 238.469 3.13959 238.014 3.13959Z" fill="#CFCFCF"/>
<path d="M243.56 3.13959C243.087 3.13959 242.689 3.01265 242.368 2.75877C242.065 2.48903 241.913 2.16375 241.913 1.78293C241.913 1.40211 242.065 1.08477 242.368 0.830888C242.689 0.561142 243.087 0.42627 243.56 0.42627C244.014 0.42627 244.393 0.561142 244.696 0.830888C245.018 1.08477 245.179 1.40211 245.179 1.78293C245.179 2.16375 245.018 2.48903 244.696 2.75877C244.393 3.01265 244.014 3.13959 243.56 3.13959Z" fill="#CFCFCF"/>
<path d="M249.106 3.13959C248.633 3.13959 248.235 3.01265 247.913 2.75877C247.611 2.48903 247.459 2.16375 247.459 1.78293C247.459 1.40211 247.611 1.08477 247.913 0.830888C248.235 0.561142 248.633 0.42627 249.106 0.42627C249.56 0.42627 249.939 0.561142 250.242 0.830888C250.564 1.08477 250.725 1.40211 250.725 1.78293C250.725 2.16375 250.564 2.48903 250.242 2.75877C249.939 3.01265 249.56 3.13959 249.106 3.13959Z" fill="#CFCFCF"/>
<path d="M254.652 3.13959C254.179 3.13959 253.781 3.01265 253.459 2.75877C253.156 2.48903 253.005 2.16375 253.005 1.78293C253.005 1.40211 253.156 1.08477 253.459 0.830888C253.781 0.561142 254.179 0.42627 254.652 0.42627C255.106 0.42627 255.485 0.561142 255.788 0.830888C256.11 1.08477 256.27 1.40211 256.27 1.78293C256.27 2.16375 256.11 2.48903 255.788 2.75877C255.485 3.01265 255.106 3.13959 254.652 3.13959Z" fill="#CFCFCF"/>
<path d="M260.198 3.13959C259.725 3.13959 259.327 3.01265 259.005 2.75877C258.702 2.48903 258.551 2.16375 258.551 1.78293C258.551 1.40211 258.702 1.08477 259.005 0.830888C259.327 0.561142 259.725 0.42627 260.198 0.42627C260.652 0.42627 261.031 0.561142 261.334 0.830888C261.655 1.08477 261.816 1.40211 261.816 1.78293C261.816 2.16375 261.655 2.48903 261.334 2.75877C261.031 3.01265 260.652 3.13959 260.198 3.13959Z" fill="#CFCFCF"/>
<path d="M265.744 3.13959C265.271 3.13959 264.873 3.01265 264.551 2.75877C264.248 2.48903 264.097 2.16375 264.097 1.78293C264.097 1.40211 264.248 1.08477 264.551 0.830888C264.873 0.561142 265.271 0.42627 265.744 0.42627C266.198 0.42627 266.577 0.561142 266.88 0.830888C267.201 1.08477 267.362 1.40211 267.362 1.78293C267.362 2.16375 267.201 2.48903 266.88 2.75877C266.577 3.01265 266.198 3.13959 265.744 3.13959Z" fill="#CFCFCF"/>
<path d="M271.29 3.13959C270.816 3.13959 270.419 3.01265 270.097 2.75877C269.794 2.48903 269.643 2.16375 269.643 1.78293C269.643 1.40211 269.794 1.08477 270.097 0.830888C270.419 0.561142 270.816 0.42627 271.29 0.42627C271.744 0.42627 272.123 0.561142 272.425 0.830888C272.747 1.08477 272.908 1.40211 272.908 1.78293C272.908 2.16375 272.747 2.48903 272.425 2.75877C272.123 3.01265 271.744 3.13959 271.29 3.13959Z" fill="#CFCFCF"/>
<path d="M276.836 3.13959C276.362 3.13959 275.965 3.01265 275.643 2.75877C275.34 2.48903 275.189 2.16375 275.189 1.78293C275.189 1.40211 275.34 1.08477 275.643 0.830888C275.965 0.561142 276.362 0.42627 276.836 0.42627C277.29 0.42627 277.668 0.561142 277.971 0.830888C278.293 1.08477 278.454 1.40211 278.454 1.78293C278.454 2.16375 278.293 2.48903 277.971 2.75877C277.668 3.01265 277.29 3.13959 276.836 3.13959Z" fill="#CFCFCF"/>
<path d="M282.381 3.13959C281.908 3.13959 281.511 3.01265 281.189 2.75877C280.886 2.48903 280.735 2.16375 280.735 1.78293C280.735 1.40211 280.886 1.08477 281.189 0.830888C281.511 0.561142 281.908 0.42627 282.381 0.42627C282.836 0.42627 283.214 0.561142 283.517 0.830888C283.839 1.08477 284 1.40211 284 1.78293C284 2.16375 283.839 2.48903 283.517 2.75877C283.214 3.01265 282.836 3.13959 282.381 3.13959Z" fill="#CFCFCF"/>
<path d="M193.647 10.5774C193.174 10.5774 192.776 10.4505 192.454 10.1966C192.151 9.92686 192 9.60158 192 9.22077C192 8.83995 192.151 8.5226 192.454 8.26872C192.776 7.99898 193.174 7.8641 193.647 7.8641C194.101 7.8641 194.48 7.99898 194.783 8.26872C195.105 8.5226 195.265 8.83995 195.265 9.22077C195.265 9.60158 195.105 9.92686 194.783 10.1966C194.48 10.4505 194.101 10.5774 193.647 10.5774Z" fill="#CFCFCF"/>
<path d="M199.193 10.5774C198.72 10.5774 198.322 10.4505 198 10.1966C197.697 9.92686 197.546 9.60158 197.546 9.22077C197.546 8.83995 197.697 8.5226 198 8.26872C198.322 7.99898 198.72 7.8641 199.193 7.8641C199.647 7.8641 200.026 7.99898 200.329 8.26872C200.65 8.5226 200.811 8.83995 200.811 9.22077C200.811 9.60158 200.65 9.92686 200.329 10.1966C200.026 10.4505 199.647 10.5774 199.193 10.5774Z" fill="#CFCFCF"/>
<path d="M204.739 10.5774C204.265 10.5774 203.868 10.4505 203.546 10.1966C203.243 9.92686 203.092 9.60158 203.092 9.22077C203.092 8.83995 203.243 8.5226 203.546 8.26872C203.868 7.99898 204.265 7.8641 204.739 7.8641C205.193 7.8641 205.572 7.99898 205.875 8.26872C206.196 8.5226 206.357 8.83995 206.357 9.22077C206.357 9.60158 206.196 9.92686 205.875 10.1966C205.572 10.4505 205.193 10.5774 204.739 10.5774Z" fill="#CFCFCF"/>
<path d="M210.285 10.5774C209.811 10.5774 209.414 10.4505 209.092 10.1966C208.789 9.92686 208.638 9.60158 208.638 9.22077C208.638 8.83995 208.789 8.5226 209.092 8.26872C209.414 7.99898 209.811 7.8641 210.285 7.8641C210.739 7.8641 211.118 7.99898 211.42 8.26872C211.742 8.5226 211.903 8.83995 211.903 9.22077C211.903 9.60158 211.742 9.92686 211.42 10.1966C211.118 10.4505 210.739 10.5774 210.285 10.5774Z" fill="#CFCFCF"/>
<path d="M215.831 10.5774C215.357 10.5774 214.96 10.4505 214.638 10.1966C214.335 9.92686 214.184 9.60158 214.184 9.22077C214.184 8.83995 214.335 8.5226 214.638 8.26872C214.96 7.99898 215.357 7.8641 215.831 7.8641C216.285 7.8641 216.663 7.99898 216.966 8.26872C217.288 8.5226 217.449 8.83995 217.449 9.22077C217.449 9.60158 217.288 9.92686 216.966 10.1966C216.663 10.4505 216.285 10.5774 215.831 10.5774Z" fill="#CFCFCF"/>
<path d="M221.376 10.5774C220.903 10.5774 220.506 10.4505 220.184 10.1966C219.881 9.92686 219.73 9.60158 219.73 9.22077C219.73 8.83995 219.881 8.5226 220.184 8.26872C220.506 7.99898 220.903 7.8641 221.376 7.8641C221.831 7.8641 222.209 7.99898 222.512 8.26872C222.834 8.5226 222.995 8.83995 222.995 9.22077C222.995 9.60158 222.834 9.92686 222.512 10.1966C222.209 10.4505 221.831 10.5774 221.376 10.5774Z" fill="#CFCFCF"/>
<path d="M226.922 10.5774C226.449 10.5774 226.052 10.4505 225.73 10.1966C225.427 9.92686 225.275 9.60158 225.275 9.22077C225.275 8.83995 225.427 8.5226 225.73 8.26872C226.052 7.99898 226.449 7.8641 226.922 7.8641C227.377 7.8641 227.755 7.99898 228.058 8.26872C228.38 8.5226 228.541 8.83995 228.541 9.22077C228.541 9.60158 228.38 9.92686 228.058 10.1966C227.755 10.4505 227.377 10.5774 226.922 10.5774Z" fill="#CFCFCF"/>
<path d="M232.468 10.5774C231.995 10.5774 231.598 10.4505 231.276 10.1966C230.973 9.92686 230.821 9.60158 230.821 9.22077C230.821 8.83995 230.973 8.5226 231.276 8.26872C231.598 7.99898 231.995 7.8641 232.468 7.8641C232.923 7.8641 233.301 7.99898 233.604 8.26872C233.926 8.5226 234.087 8.83995 234.087 9.22077C234.087 9.60158 233.926 9.92686 233.604 10.1966C233.301 10.4505 232.923 10.5774 232.468 10.5774Z" fill="#CFCFCF"/>
<path d="M238.014 10.5774C237.541 10.5774 237.143 10.4505 236.822 10.1966C236.519 9.92686 236.367 9.60158 236.367 9.22077C236.367 8.83995 236.519 8.5226 236.822 8.26872C237.143 7.99898 237.541 7.8641 238.014 7.8641C238.469 7.8641 238.847 7.99898 239.15 8.26872C239.472 8.5226 239.633 8.83995 239.633 9.22077C239.633 9.60158 239.472 9.92686 239.15 10.1966C238.847 10.4505 238.469 10.5774 238.014 10.5774Z" fill="#CFCFCF"/>
<path d="M243.56 10.5774C243.087 10.5774 242.689 10.4505 242.368 10.1966C242.065 9.92686 241.913 9.60158 241.913 9.22077C241.913 8.83995 242.065 8.5226 242.368 8.26872C242.689 7.99898 243.087 7.8641 243.56 7.8641C244.014 7.8641 244.393 7.99898 244.696 8.26872C245.018 8.5226 245.179 8.83995 245.179 9.22077C245.179 9.60158 245.018 9.92686 244.696 10.1966C244.393 10.4505 244.014 10.5774 243.56 10.5774Z" fill="#CFCFCF"/>
<path d="M249.106 10.5774C248.633 10.5774 248.235 10.4505 247.913 10.1966C247.611 9.92686 247.459 9.60158 247.459 9.22077C247.459 8.83995 247.611 8.5226 247.913 8.26872C248.235 7.99898 248.633 7.8641 249.106 7.8641C249.56 7.8641 249.939 7.99898 250.242 8.26872C250.564 8.5226 250.725 8.83995 250.725 9.22077C250.725 9.60158 250.564 9.92686 250.242 10.1966C249.939 10.4505 249.56 10.5774 249.106 10.5774Z" fill="#CFCFCF"/>
<path d="M254.652 10.5774C254.179 10.5774 253.781 10.4505 253.459 10.1966C253.156 9.92686 253.005 9.60158 253.005 9.22077C253.005 8.83995 253.156 8.5226 253.459 8.26872C253.781 7.99898 254.179 7.8641 254.652 7.8641C255.106 7.8641 255.485 7.99898 255.788 8.26872C256.11 8.5226 256.27 8.83995 256.27 9.22077C256.27 9.60158 256.11 9.92686 255.788 10.1966C255.485 10.4505 255.106 10.5774 254.652 10.5774Z" fill="#CFCFCF"/>
<path d="M260.198 10.5774C259.725 10.5774 259.327 10.4505 259.005 10.1966C258.702 9.92686 258.551 9.60158 258.551 9.22077C258.551 8.83995 258.702 8.5226 259.005 8.26872C259.327 7.99898 259.725 7.8641 260.198 7.8641C260.652 7.8641 261.031 7.99898 261.334 8.26872C261.655 8.5226 261.816 8.83995 261.816 9.22077C261.816 9.60158 261.655 9.92686 261.334 10.1966C261.031 10.4505 260.652 10.5774 260.198 10.5774Z" fill="#CFCFCF"/>
<path d="M265.744 10.5774C265.271 10.5774 264.873 10.4505 264.551 10.1966C264.248 9.92686 264.097 9.60158 264.097 9.22077C264.097 8.83995 264.248 8.5226 264.551 8.26872C264.873 7.99898 265.271 7.8641 265.744 7.8641C266.198 7.8641 266.577 7.99898 266.88 8.26872C267.201 8.5226 267.362 8.83995 267.362 9.22077C267.362 9.60158 267.201 9.92686 266.88 10.1966C266.577 10.4505 266.198 10.5774 265.744 10.5774Z" fill="#CFCFCF"/>
<path d="M271.29 10.5774C270.816 10.5774 270.419 10.4505 270.097 10.1966C269.794 9.92686 269.643 9.60158 269.643 9.22077C269.643 8.83995 269.794 8.5226 270.097 8.26872C270.419 7.99898 270.816 7.8641 271.29 7.8641C271.744 7.8641 272.123 7.99898 272.425 8.26872C272.747 8.5226 272.908 8.83995 272.908 9.22077C272.908 9.60158 272.747 9.92686 272.425 10.1966C272.123 10.4505 271.744 10.5774 271.29 10.5774Z" fill="#CFCFCF"/>
<path d="M276.836 10.5774C276.362 10.5774 275.965 10.4505 275.643 10.1966C275.34 9.92686 275.189 9.60158 275.189 9.22077C275.189 8.83995 275.34 8.5226 275.643 8.26872C275.965 7.99898 276.362 7.8641 276.836 7.8641C277.29 7.8641 277.668 7.99898 277.971 8.26872C278.293 8.5226 278.454 8.83995 278.454 9.22077C278.454 9.60158 278.293 9.92686 277.971 10.1966C277.668 10.4505 277.29 10.5774 276.836 10.5774Z" fill="#CFCFCF"/>
<path d="M282.381 10.5774C281.908 10.5774 281.511 10.4505 281.189 10.1966C280.886 9.92686 280.735 9.60158 280.735 9.22077C280.735 8.83995 280.886 8.5226 281.189 8.26872C281.511 7.99898 281.908 7.8641 282.381 7.8641C282.836 7.8641 283.214 7.99898 283.517 8.26872C283.839 8.5226 284 8.83995 284 9.22077C284 9.60158 283.839 9.92686 283.517 10.1966C283.214 10.4505 282.836 10.5774 282.381 10.5774Z" fill="#CFCFCF"/>
<path d="M193.647 18.0153C193.174 18.0153 192.776 17.8883 192.454 17.6344C192.151 17.3647 192 17.0394 192 16.6586C192 16.2778 192.151 15.9604 192.454 15.7066C192.776 15.4368 193.174 15.3019 193.647 15.3019C194.101 15.3019 194.48 15.4368 194.783 15.7066C195.105 15.9604 195.265 16.2778 195.265 16.6586C195.265 17.0394 195.105 17.3647 194.783 17.6344C194.48 17.8883 194.101 18.0153 193.647 18.0153Z" fill="#CFCFCF"/>
<path d="M199.193 18.0153C198.72 18.0153 198.322 17.8883 198 17.6344C197.697 17.3647 197.546 17.0394 197.546 16.6586C197.546 16.2778 197.697 15.9604 198 15.7066C198.322 15.4368 198.72 15.3019 199.193 15.3019C199.647 15.3019 200.026 15.4368 200.329 15.7066C200.65 15.9604 200.811 16.2778 200.811 16.6586C200.811 17.0394 200.65 17.3647 200.329 17.6344C200.026 17.8883 199.647 18.0153 199.193 18.0153Z" fill="#CFCFCF"/>
<path d="M204.739 18.0153C204.265 18.0153 203.868 17.8883 203.546 17.6344C203.243 17.3647 203.092 17.0394 203.092 16.6586C203.092 16.2778 203.243 15.9604 203.546 15.7066C203.868 15.4368 204.265 15.3019 204.739 15.3019C205.193 15.3019 205.572 15.4368 205.875 15.7066C206.196 15.9604 206.357 16.2778 206.357 16.6586C206.357 17.0394 206.196 17.3647 205.875 17.6344C205.572 17.8883 205.193 18.0153 204.739 18.0153Z" fill="#CFCFCF"/>
<path d="M210.285 18.0153C209.811 18.0153 209.414 17.8883 209.092 17.6344C208.789 17.3647 208.638 17.0394 208.638 16.6586C208.638 16.2778 208.789 15.9604 209.092 15.7066C209.414 15.4368 209.811 15.3019 210.285 15.3019C210.739 15.3019 211.118 15.4368 211.42 15.7066C211.742 15.9604 211.903 16.2778 211.903 16.6586C211.903 17.0394 211.742 17.3647 211.42 17.6344C211.118 17.8883 210.739 18.0153 210.285 18.0153Z" fill="#CFCFCF"/>
<path d="M215.831 18.0153C215.357 18.0153 214.96 17.8883 214.638 17.6344C214.335 17.3647 214.184 17.0394 214.184 16.6586C214.184 16.2778 214.335 15.9604 214.638 15.7066C214.96 15.4368 215.357 15.3019 215.831 15.3019C216.285 15.3019 216.663 15.4368 216.966 15.7066C217.288 15.9604 217.449 16.2778 217.449 16.6586C217.449 17.0394 217.288 17.3647 216.966 17.6344C216.663 17.8883 216.285 18.0153 215.831 18.0153Z" fill="#CFCFCF"/>
<path d="M221.376 18.0153C220.903 18.0153 220.506 17.8883 220.184 17.6344C219.881 17.3647 219.73 17.0394 219.73 16.6586C219.73 16.2778 219.881 15.9604 220.184 15.7066C220.506 15.4368 220.903 15.3019 221.376 15.3019C221.831 15.3019 222.209 15.4368 222.512 15.7066C222.834 15.9604 222.995 16.2778 222.995 16.6586C222.995 17.0394 222.834 17.3647 222.512 17.6344C222.209 17.8883 221.831 18.0153 221.376 18.0153Z" fill="#CFCFCF"/>
<path d="M226.922 18.0153C226.449 18.0153 226.052 17.8883 225.73 17.6344C225.427 17.3647 225.275 17.0394 225.275 16.6586C225.275 16.2778 225.427 15.9604 225.73 15.7066C226.052 15.4368 226.449 15.3019 226.922 15.3019C227.377 15.3019 227.755 15.4368 228.058 15.7066C228.38 15.9604 228.541 16.2778 228.541 16.6586C228.541 17.0394 228.38 17.3647 228.058 17.6344C227.755 17.8883 227.377 18.0153 226.922 18.0153Z" fill="#CFCFCF"/>
<path d="M232.468 18.0153C231.995 18.0153 231.598 17.8883 231.276 17.6344C230.973 17.3647 230.821 17.0394 230.821 16.6586C230.821 16.2778 230.973 15.9604 231.276 15.7066C231.598 15.4368 231.995 15.3019 232.468 15.3019C232.923 15.3019 233.301 15.4368 233.604 15.7066C233.926 15.9604 234.087 16.2778 234.087 16.6586C234.087 17.0394 233.926 17.3647 233.604 17.6344C233.301 17.8883 232.923 18.0153 232.468 18.0153Z" fill="#CFCFCF"/>
<path d="M238.014 18.0153C237.541 18.0153 237.143 17.8883 236.822 17.6344C236.519 17.3647 236.367 17.0394 236.367 16.6586C236.367 16.2778 236.519 15.9604 236.822 15.7066C237.143 15.4368 237.541 15.3019 238.014 15.3019C238.469 15.3019 238.847 15.4368 239.15 15.7066C239.472 15.9604 239.633 16.2778 239.633 16.6586C239.633 17.0394 239.472 17.3647 239.15 17.6344C238.847 17.8883 238.469 18.0153 238.014 18.0153Z" fill="#CFCFCF"/>
<path d="M243.56 18.0153C243.087 18.0153 242.689 17.8883 242.368 17.6344C242.065 17.3647 241.913 17.0394 241.913 16.6586C241.913 16.2778 242.065 15.9604 242.368 15.7066C242.689 15.4368 243.087 15.3019 243.56 15.3019C244.014 15.3019 244.393 15.4368 244.696 15.7066C245.018 15.9604 245.179 16.2778 245.179 16.6586C245.179 17.0394 245.018 17.3647 244.696 17.6344C244.393 17.8883 244.014 18.0153 243.56 18.0153Z" fill="#CFCFCF"/>
<path d="M249.106 18.0153C248.633 18.0153 248.235 17.8883 247.913 17.6344C247.611 17.3647 247.459 17.0394 247.459 16.6586C247.459 16.2778 247.611 15.9604 247.913 15.7066C248.235 15.4368 248.633 15.3019 249.106 15.3019C249.56 15.3019 249.939 15.4368 250.242 15.7066C250.564 15.9604 250.725 16.2778 250.725 16.6586C250.725 17.0394 250.564 17.3647 250.242 17.6344C249.939 17.8883 249.56 18.0153 249.106 18.0153Z" fill="#CFCFCF"/>
<path d="M254.652 18.0153C254.179 18.0153 253.781 17.8883 253.459 17.6344C253.156 17.3647 253.005 17.0394 253.005 16.6586C253.005 16.2778 253.156 15.9604 253.459 15.7066C253.781 15.4368 254.179 15.3019 254.652 15.3019C255.106 15.3019 255.485 15.4368 255.788 15.7066C256.11 15.9604 256.27 16.2778 256.27 16.6586C256.27 17.0394 256.11 17.3647 255.788 17.6344C255.485 17.8883 255.106 18.0153 254.652 18.0153Z" fill="#CFCFCF"/>
<path d="M260.198 18.0153C259.725 18.0153 259.327 17.8883 259.005 17.6344C258.702 17.3647 258.551 17.0394 258.551 16.6586C258.551 16.2778 258.702 15.9604 259.005 15.7066C259.327 15.4368 259.725 15.3019 260.198 15.3019C260.652 15.3019 261.031 15.4368 261.334 15.7066C261.655 15.9604 261.816 16.2778 261.816 16.6586C261.816 17.0394 261.655 17.3647 261.334 17.6344C261.031 17.8883 260.652 18.0153 260.198 18.0153Z" fill="#CFCFCF"/>
<path d="M265.744 18.0153C265.271 18.0153 264.873 17.8883 264.551 17.6344C264.248 17.3647 264.097 17.0394 264.097 16.6586C264.097 16.2778 264.248 15.9604 264.551 15.7066C264.873 15.4368 265.271 15.3019 265.744 15.3019C266.198 15.3019 266.577 15.4368 266.88 15.7066C267.201 15.9604 267.362 16.2778 267.362 16.6586C267.362 17.0394 267.201 17.3647 266.88 17.6344C266.577 17.8883 266.198 18.0153 265.744 18.0153Z" fill="#CFCFCF"/>
<path d="M271.29 18.0153C270.816 18.0153 270.419 17.8883 270.097 17.6344C269.794 17.3647 269.643 17.0394 269.643 16.6586C269.643 16.2778 269.794 15.9604 270.097 15.7066C270.419 15.4368 270.816 15.3019 271.29 15.3019C271.744 15.3019 272.123 15.4368 272.425 15.7066C272.747 15.9604 272.908 16.2778 272.908 16.6586C272.908 17.0394 272.747 17.3647 272.425 17.6344C272.123 17.8883 271.744 18.0153 271.29 18.0153Z" fill="#CFCFCF"/>
<path d="M276.836 18.0153C276.362 18.0153 275.965 17.8883 275.643 17.6344C275.34 17.3647 275.189 17.0394 275.189 16.6586C275.189 16.2778 275.34 15.9604 275.643 15.7066C275.965 15.4368 276.362 15.3019 276.836 15.3019C277.29 15.3019 277.668 15.4368 277.971 15.7066C278.293 15.9604 278.454 16.2778 278.454 16.6586C278.454 17.0394 278.293 17.3647 277.971 17.6344C277.668 17.8883 277.29 18.0153 276.836 18.0153Z" fill="#CFCFCF"/>
<path d="M282.381 18.0153C281.908 18.0153 281.511 17.8883 281.189 17.6344C280.886 17.3647 280.735 17.0394 280.735 16.6586C280.735 16.2778 280.886 15.9604 281.189 15.7066C281.511 15.4368 281.908 15.3019 282.381 15.3019C282.836 15.3019 283.214 15.4368 283.517 15.7066C283.839 15.9604 284 16.2778 284 16.6586C284 17.0394 283.839 17.3647 283.517 17.6344C283.214 17.8883 282.836 18.0153 282.381 18.0153Z" fill="#CFCFCF"/>
<path d="M193.647 26.9407C193.174 26.9407 192.776 26.8137 192.454 26.5598C192.151 26.2901 192 25.9648 192 25.584C192 25.2032 192.151 24.8858 192.454 24.632C192.776 24.3622 193.174 24.2273 193.647 24.2273C194.101 24.2273 194.48 24.3622 194.783 24.632C195.105 24.8858 195.265 25.2032 195.265 25.584C195.265 25.9648 195.105 26.2901 194.783 26.5598C194.48 26.8137 194.101 26.9407 193.647 26.9407Z" fill="#CFCFCF"/>
<path d="M199.193 26.9407C198.72 26.9407 198.322 26.8137 198 26.5598C197.697 26.2901 197.546 25.9648 197.546 25.584C197.546 25.2032 197.697 24.8858 198 24.632C198.322 24.3622 198.72 24.2273 199.193 24.2273C199.647 24.2273 200.026 24.3622 200.329 24.632C200.65 24.8858 200.811 25.2032 200.811 25.584C200.811 25.9648 200.65 26.2901 200.329 26.5598C200.026 26.8137 199.647 26.9407 199.193 26.9407Z" fill="#CFCFCF"/>
<path d="M204.739 26.9407C204.265 26.9407 203.868 26.8137 203.546 26.5598C203.243 26.2901 203.092 25.9648 203.092 25.584C203.092 25.2032 203.243 24.8858 203.546 24.632C203.868 24.3622 204.265 24.2273 204.739 24.2273C205.193 24.2273 205.572 24.3622 205.875 24.632C206.196 24.8858 206.357 25.2032 206.357 25.584C206.357 25.9648 206.196 26.2901 205.875 26.5598C205.572 26.8137 205.193 26.9407 204.739 26.9407Z" fill="#CFCFCF"/>
<path d="M210.285 26.9407C209.811 26.9407 209.414 26.8137 209.092 26.5598C208.789 26.2901 208.638 25.9648 208.638 25.584C208.638 25.2032 208.789 24.8858 209.092 24.632C209.414 24.3622 209.811 24.2273 210.285 24.2273C210.739 24.2273 211.118 24.3622 211.42 24.632C211.742 24.8858 211.903 25.2032 211.903 25.584C211.903 25.9648 211.742 26.2901 211.42 26.5598C211.118 26.8137 210.739 26.9407 210.285 26.9407Z" fill="#CFCFCF"/>
<path d="M215.831 26.9407C215.357 26.9407 214.96 26.8137 214.638 26.5598C214.335 26.2901 214.184 25.9648 214.184 25.584C214.184 25.2032 214.335 24.8858 214.638 24.632C214.96 24.3622 215.357 24.2273 215.831 24.2273C216.285 24.2273 216.663 24.3622 216.966 24.632C217.288 24.8858 217.449 25.2032 217.449 25.584C217.449 25.9648 217.288 26.2901 216.966 26.5598C216.663 26.8137 216.285 26.9407 215.831 26.9407Z" fill="#CFCFCF"/>
<path d="M221.376 26.9407C220.903 26.9407 220.506 26.8137 220.184 26.5598C219.881 26.2901 219.73 25.9648 219.73 25.584C219.73 25.2032 219.881 24.8858 220.184 24.632C220.506 24.3622 220.903 24.2273 221.376 24.2273C221.831 24.2273 222.209 24.3622 222.512 24.632C222.834 24.8858 222.995 25.2032 222.995 25.584C222.995 25.9648 222.834 26.2901 222.512 26.5598C222.209 26.8137 221.831 26.9407 221.376 26.9407Z" fill="#CFCFCF"/>
<path d="M226.922 26.9407C226.449 26.9407 226.052 26.8137 225.73 26.5598C225.427 26.2901 225.275 25.9648 225.275 25.584C225.275 25.2032 225.427 24.8858 225.73 24.632C226.052 24.3622 226.449 24.2273 226.922 24.2273C227.377 24.2273 227.755 24.3622 228.058 24.632C228.38 24.8858 228.541 25.2032 228.541 25.584C228.541 25.9648 228.38 26.2901 228.058 26.5598C227.755 26.8137 227.377 26.9407 226.922 26.9407Z" fill="#CFCFCF"/>
<path d="M232.468 26.9407C231.995 26.9407 231.598 26.8137 231.276 26.5598C230.973 26.2901 230.821 25.9648 230.821 25.584C230.821 25.2032 230.973 24.8858 231.276 24.632C231.598 24.3622 231.995 24.2273 232.468 24.2273C232.923 24.2273 233.301 24.3622 233.604 24.632C233.926 24.8858 234.087 25.2032 234.087 25.584C234.087 25.9648 233.926 26.2901 233.604 26.5598C233.301 26.8137 232.923 26.9407 232.468 26.9407Z" fill="#CFCFCF"/>
<path d="M238.014 26.9407C237.541 26.9407 237.143 26.8137 236.822 26.5598C236.519 26.2901 236.367 25.9648 236.367 25.584C236.367 25.2032 236.519 24.8858 236.822 24.632C237.143 24.3622 237.541 24.2273 238.014 24.2273C238.469 24.2273 238.847 24.3622 239.15 24.632C239.472 24.8858 239.633 25.2032 239.633 25.584C239.633 25.9648 239.472 26.2901 239.15 26.5598C238.847 26.8137 238.469 26.9407 238.014 26.9407Z" fill="#CFCFCF"/>
<path d="M243.56 26.9407C243.087 26.9407 242.689 26.8137 242.368 26.5598C242.065 26.2901 241.913 25.9648 241.913 25.584C241.913 25.2032 242.065 24.8858 242.368 24.632C242.689 24.3622 243.087 24.2273 243.56 24.2273C244.014 24.2273 244.393 24.3622 244.696 24.632C245.018 24.8858 245.179 25.2032 245.179 25.584C245.179 25.9648 245.018 26.2901 244.696 26.5598C244.393 26.8137 244.014 26.9407 243.56 26.9407Z" fill="#CFCFCF"/>
<path d="M249.106 26.9407C248.633 26.9407 248.235 26.8137 247.913 26.5598C247.611 26.2901 247.459 25.9648 247.459 25.584C247.459 25.2032 247.611 24.8858 247.913 24.632C248.235 24.3622 248.633 24.2273 249.106 24.2273C249.56 24.2273 249.939 24.3622 250.242 24.632C250.564 24.8858 250.725 25.2032 250.725 25.584C250.725 25.9648 250.564 26.2901 250.242 26.5598C249.939 26.8137 249.56 26.9407 249.106 26.9407Z" fill="#CFCFCF"/>
<path d="M254.652 26.9407C254.179 26.9407 253.781 26.8137 253.459 26.5598C253.156 26.2901 253.005 25.9648 253.005 25.584C253.005 25.2032 253.156 24.8858 253.459 24.632C253.781 24.3622 254.179 24.2273 254.652 24.2273C255.106 24.2273 255.485 24.3622 255.788 24.632C256.11 24.8858 256.27 25.2032 256.27 25.584C256.27 25.9648 256.11 26.2901 255.788 26.5598C255.485 26.8137 255.106 26.9407 254.652 26.9407Z" fill="#CFCFCF"/>
<path d="M260.198 26.9407C259.725 26.9407 259.327 26.8137 259.005 26.5598C258.702 26.2901 258.551 25.9648 258.551 25.584C258.551 25.2032 258.702 24.8858 259.005 24.632C259.327 24.3622 259.725 24.2273 260.198 24.2273C260.652 24.2273 261.031 24.3622 261.334 24.632C261.655 24.8858 261.816 25.2032 261.816 25.584C261.816 25.9648 261.655 26.2901 261.334 26.5598C261.031 26.8137 260.652 26.9407 260.198 26.9407Z" fill="#CFCFCF"/>
<path d="M265.744 26.9407C265.271 26.9407 264.873 26.8137 264.551 26.5598C264.248 26.2901 264.097 25.9648 264.097 25.584C264.097 25.2032 264.248 24.8858 264.551 24.632C264.873 24.3622 265.271 24.2273 265.744 24.2273C266.198 24.2273 266.577 24.3622 266.88 24.632C267.201 24.8858 267.362 25.2032 267.362 25.584C267.362 25.9648 267.201 26.2901 266.88 26.5598C266.577 26.8137 266.198 26.9407 265.744 26.9407Z" fill="#CFCFCF"/>
<path d="M271.29 26.9407C270.816 26.9407 270.419 26.8137 270.097 26.5598C269.794 26.2901 269.643 25.9648 269.643 25.584C269.643 25.2032 269.794 24.8858 270.097 24.632C270.419 24.3622 270.816 24.2273 271.29 24.2273C271.744 24.2273 272.123 24.3622 272.425 24.632C272.747 24.8858 272.908 25.2032 272.908 25.584C272.908 25.9648 272.747 26.2901 272.425 26.5598C272.123 26.8137 271.744 26.9407 271.29 26.9407Z" fill="#CFCFCF"/>
<path d="M276.836 26.9407C276.362 26.9407 275.965 26.8137 275.643 26.5598C275.34 26.2901 275.189 25.9648 275.189 25.584C275.189 25.2032 275.34 24.8858 275.643 24.632C275.965 24.3622 276.362 24.2273 276.836 24.2273C277.29 24.2273 277.668 24.3622 277.971 24.632C278.293 24.8858 278.454 25.2032 278.454 25.584C278.454 25.9648 278.293 26.2901 277.971 26.5598C277.668 26.8137 277.29 26.9407 276.836 26.9407Z" fill="#CFCFCF"/>
<path d="M282.381 26.9407C281.908 26.9407 281.511 26.8137 281.189 26.5598C280.886 26.2901 280.735 25.9648 280.735 25.584C280.735 25.2032 280.886 24.8858 281.189 24.632C281.511 24.3622 281.908 24.2273 282.381 24.2273C282.836 24.2273 283.214 24.3622 283.517 24.632C283.839 24.8858 284 25.2032 284 25.584C284 25.9648 283.839 26.2901 283.517 26.5598C283.214 26.8137 282.836 26.9407 282.381 26.9407Z" fill="#CFCFCF"/>
<path d="M193.647 34.3785C193.174 34.3785 192.776 34.2516 192.454 33.9977C192.151 33.7279 192 33.4027 192 33.0218C192 32.641 192.151 32.3237 192.454 32.0698C192.776 31.8 193.174 31.6652 193.647 31.6652C194.101 31.6652 194.48 31.8 194.783 32.0698C195.105 32.3237 195.265 32.641 195.265 33.0218C195.265 33.4027 195.105 33.7279 194.783 33.9977C194.48 34.2516 194.101 34.3785 193.647 34.3785Z" fill="#CFCFCF"/>
<path d="M199.193 34.3785C198.72 34.3785 198.322 34.2516 198 33.9977C197.697 33.7279 197.546 33.4027 197.546 33.0218C197.546 32.641 197.697 32.3237 198 32.0698C198.322 31.8 198.72 31.6652 199.193 31.6652C199.647 31.6652 200.026 31.8 200.329 32.0698C200.65 32.3237 200.811 32.641 200.811 33.0218C200.811 33.4027 200.65 33.7279 200.329 33.9977C200.026 34.2516 199.647 34.3785 199.193 34.3785Z" fill="#CFCFCF"/>
<path d="M204.739 34.3785C204.265 34.3785 203.868 34.2516 203.546 33.9977C203.243 33.7279 203.092 33.4027 203.092 33.0218C203.092 32.641 203.243 32.3237 203.546 32.0698C203.868 31.8 204.265 31.6652 204.739 31.6652C205.193 31.6652 205.572 31.8 205.875 32.0698C206.196 32.3237 206.357 32.641 206.357 33.0218C206.357 33.4027 206.196 33.7279 205.875 33.9977C205.572 34.2516 205.193 34.3785 204.739 34.3785Z" fill="#CFCFCF"/>
<path d="M210.285 34.3785C209.811 34.3785 209.414 34.2516 209.092 33.9977C208.789 33.7279 208.638 33.4027 208.638 33.0218C208.638 32.641 208.789 32.3237 209.092 32.0698C209.414 31.8 209.811 31.6652 210.285 31.6652C210.739 31.6652 211.118 31.8 211.42 32.0698C211.742 32.3237 211.903 32.641 211.903 33.0218C211.903 33.4027 211.742 33.7279 211.42 33.9977C211.118 34.2516 210.739 34.3785 210.285 34.3785Z" fill="#CFCFCF"/>
<path d="M215.831 34.3785C215.357 34.3785 214.96 34.2516 214.638 33.9977C214.335 33.7279 214.184 33.4027 214.184 33.0218C214.184 32.641 214.335 32.3237 214.638 32.0698C214.96 31.8 215.357 31.6652 215.831 31.6652C216.285 31.6652 216.663 31.8 216.966 32.0698C217.288 32.3237 217.449 32.641 217.449 33.0218C217.449 33.4027 217.288 33.7279 216.966 33.9977C216.663 34.2516 216.285 34.3785 215.831 34.3785Z" fill="#CFCFCF"/>
<path d="M221.376 34.3785C220.903 34.3785 220.506 34.2516 220.184 33.9977C219.881 33.7279 219.73 33.4027 219.73 33.0218C219.73 32.641 219.881 32.3237 220.184 32.0698C220.506 31.8 220.903 31.6652 221.376 31.6652C221.831 31.6652 222.209 31.8 222.512 32.0698C222.834 32.3237 222.995 32.641 222.995 33.0218C222.995 33.4027 222.834 33.7279 222.512 33.9977C222.209 34.2516 221.831 34.3785 221.376 34.3785Z" fill="#CFCFCF"/>
<path d="M226.922 34.3785C226.449 34.3785 226.052 34.2516 225.73 33.9977C225.427 33.7279 225.275 33.4027 225.275 33.0218C225.275 32.641 225.427 32.3237 225.73 32.0698C226.052 31.8 226.449 31.6652 226.922 31.6652C227.377 31.6652 227.755 31.8 228.058 32.0698C228.38 32.3237 228.541 32.641 228.541 33.0218C228.541 33.4027 228.38 33.7279 228.058 33.9977C227.755 34.2516 227.377 34.3785 226.922 34.3785Z" fill="#CFCFCF"/>
<path d="M232.468 34.3785C231.995 34.3785 231.598 34.2516 231.276 33.9977C230.973 33.7279 230.821 33.4027 230.821 33.0218C230.821 32.641 230.973 32.3237 231.276 32.0698C231.598 31.8 231.995 31.6652 232.468 31.6652C232.923 31.6652 233.301 31.8 233.604 32.0698C233.926 32.3237 234.087 32.641 234.087 33.0218C234.087 33.4027 233.926 33.7279 233.604 33.9977C233.301 34.2516 232.923 34.3785 232.468 34.3785Z" fill="#CFCFCF"/>
<path d="M238.014 34.3785C237.541 34.3785 237.143 34.2516 236.822 33.9977C236.519 33.7279 236.367 33.4027 236.367 33.0218C236.367 32.641 236.519 32.3237 236.822 32.0698C237.143 31.8 237.541 31.6652 238.014 31.6652C238.469 31.6652 238.847 31.8 239.15 32.0698C239.472 32.3237 239.633 32.641 239.633 33.0218C239.633 33.4027 239.472 33.7279 239.15 33.9977C238.847 34.2516 238.469 34.3785 238.014 34.3785Z" fill="#CFCFCF"/>
<path d="M243.56 34.3785C243.087 34.3785 242.689 34.2516 242.368 33.9977C242.065 33.7279 241.913 33.4027 241.913 33.0218C241.913 32.641 242.065 32.3237 242.368 32.0698C242.689 31.8 243.087 31.6652 243.56 31.6652C244.014 31.6652 244.393 31.8 244.696 32.0698C245.018 32.3237 245.179 32.641 245.179 33.0218C245.179 33.4027 245.018 33.7279 244.696 33.9977C244.393 34.2516 244.014 34.3785 243.56 34.3785Z" fill="#CFCFCF"/>
<path d="M249.106 34.3785C248.633 34.3785 248.235 34.2516 247.913 33.9977C247.611 33.7279 247.459 33.4027 247.459 33.0218C247.459 32.641 247.611 32.3237 247.913 32.0698C248.235 31.8 248.633 31.6652 249.106 31.6652C249.56 31.6652 249.939 31.8 250.242 32.0698C250.564 32.3237 250.725 32.641 250.725 33.0218C250.725 33.4027 250.564 33.7279 250.242 33.9977C249.939 34.2516 249.56 34.3785 249.106 34.3785Z" fill="#CFCFCF"/>
<path d="M254.652 34.3785C254.179 34.3785 253.781 34.2516 253.459 33.9977C253.156 33.7279 253.005 33.4027 253.005 33.0218C253.005 32.641 253.156 32.3237 253.459 32.0698C253.781 31.8 254.179 31.6652 254.652 31.6652C255.106 31.6652 255.485 31.8 255.788 32.0698C256.11 32.3237 256.27 32.641 256.27 33.0218C256.27 33.4027 256.11 33.7279 255.788 33.9977C255.485 34.2516 255.106 34.3785 254.652 34.3785Z" fill="#CFCFCF"/>
<path d="M260.198 34.3785C259.725 34.3785 259.327 34.2516 259.005 33.9977C258.702 33.7279 258.551 33.4027 258.551 33.0218C258.551 32.641 258.702 32.3237 259.005 32.0698C259.327 31.8 259.725 31.6652 260.198 31.6652C260.652 31.6652 261.031 31.8 261.334 32.0698C261.655 32.3237 261.816 32.641 261.816 33.0218C261.816 33.4027 261.655 33.7279 261.334 33.9977C261.031 34.2516 260.652 34.3785 260.198 34.3785Z" fill="#CFCFCF"/>
<path d="M265.744 34.3785C265.271 34.3785 264.873 34.2516 264.551 33.9977C264.248 33.7279 264.097 33.4027 264.097 33.0218C264.097 32.641 264.248 32.3237 264.551 32.0698C264.873 31.8 265.271 31.6652 265.744 31.6652C266.198 31.6652 266.577 31.8 266.88 32.0698C267.201 32.3237 267.362 32.641 267.362 33.0218C267.362 33.4027 267.201 33.7279 266.88 33.9977C266.577 34.2516 266.198 34.3785 265.744 34.3785Z" fill="#CFCFCF"/>
<path d="M271.29 34.3785C270.816 34.3785 270.419 34.2516 270.097 33.9977C269.794 33.7279 269.643 33.4027 269.643 33.0218C269.643 32.641 269.794 32.3237 270.097 32.0698C270.419 31.8 270.816 31.6652 271.29 31.6652C271.744 31.6652 272.123 31.8 272.425 32.0698C272.747 32.3237 272.908 32.641 272.908 33.0218C272.908 33.4027 272.747 33.7279 272.425 33.9977C272.123 34.2516 271.744 34.3785 271.29 34.3785Z" fill="#CFCFCF"/>
<path d="M276.836 34.3785C276.362 34.3785 275.965 34.2516 275.643 33.9977C275.34 33.7279 275.189 33.4027 275.189 33.0218C275.189 32.641 275.34 32.3237 275.643 32.0698C275.965 31.8 276.362 31.6652 276.836 31.6652C277.29 31.6652 277.668 31.8 277.971 32.0698C278.293 32.3237 278.454 32.641 278.454 33.0218C278.454 33.4027 278.293 33.7279 277.971 33.9977C277.668 34.2516 277.29 34.3785 276.836 34.3785Z" fill="#CFCFCF"/>
<path d="M282.381 34.3785C281.908 34.3785 281.511 34.2516 281.189 33.9977C280.886 33.7279 280.735 33.4027 280.735 33.0218C280.735 32.641 280.886 32.3237 281.189 32.0698C281.511 31.8 281.908 31.6652 282.381 31.6652C282.836 31.6652 283.214 31.8 283.517 32.0698C283.839 32.3237 284 32.641 284 33.0218C284 33.4027 283.839 33.7279 283.517 33.9977C283.214 34.2516 282.836 34.3785 282.381 34.3785Z" fill="#CFCFCF"/>
<path d="M193.647 41.8163C193.174 41.8163 192.776 41.6894 192.454 41.4355C192.151 41.1658 192 40.8405 192 40.4597C192 40.0789 192.151 39.7615 192.454 39.5076C192.776 39.2379 193.174 39.103 193.647 39.103C194.101 39.103 194.48 39.2379 194.783 39.5076C195.105 39.7615 195.265 40.0789 195.265 40.4597C195.265 40.8405 195.105 41.1658 194.783 41.4355C194.48 41.6894 194.101 41.8163 193.647 41.8163Z" fill="#CFCFCF"/>
<path d="M199.193 41.8163C198.72 41.8163 198.322 41.6894 198 41.4355C197.697 41.1658 197.546 40.8405 197.546 40.4597C197.546 40.0789 197.697 39.7615 198 39.5076C198.322 39.2379 198.72 39.103 199.193 39.103C199.647 39.103 200.026 39.2379 200.329 39.5076C200.65 39.7615 200.811 40.0789 200.811 40.4597C200.811 40.8405 200.65 41.1658 200.329 41.4355C200.026 41.6894 199.647 41.8163 199.193 41.8163Z" fill="#CFCFCF"/>
<path d="M204.739 41.8163C204.265 41.8163 203.868 41.6894 203.546 41.4355C203.243 41.1658 203.092 40.8405 203.092 40.4597C203.092 40.0789 203.243 39.7615 203.546 39.5076C203.868 39.2379 204.265 39.103 204.739 39.103C205.193 39.103 205.572 39.2379 205.875 39.5076C206.196 39.7615 206.357 40.0789 206.357 40.4597C206.357 40.8405 206.196 41.1658 205.875 41.4355C205.572 41.6894 205.193 41.8163 204.739 41.8163Z" fill="#CFCFCF"/>
<path d="M210.285 41.8163C209.811 41.8163 209.414 41.6894 209.092 41.4355C208.789 41.1658 208.638 40.8405 208.638 40.4597C208.638 40.0789 208.789 39.7615 209.092 39.5076C209.414 39.2379 209.811 39.103 210.285 39.103C210.739 39.103 211.118 39.2379 211.42 39.5076C211.742 39.7615 211.903 40.0789 211.903 40.4597C211.903 40.8405 211.742 41.1658 211.42 41.4355C211.118 41.6894 210.739 41.8163 210.285 41.8163Z" fill="#CFCFCF"/>
<path d="M215.831 41.8163C215.357 41.8163 214.96 41.6894 214.638 41.4355C214.335 41.1658 214.184 40.8405 214.184 40.4597C214.184 40.0789 214.335 39.7615 214.638 39.5076C214.96 39.2379 215.357 39.103 215.831 39.103C216.285 39.103 216.663 39.2379 216.966 39.5076C217.288 39.7615 217.449 40.0789 217.449 40.4597C217.449 40.8405 217.288 41.1658 216.966 41.4355C216.663 41.6894 216.285 41.8163 215.831 41.8163Z" fill="#CFCFCF"/>
<path d="M221.376 41.8163C220.903 41.8163 220.506 41.6894 220.184 41.4355C219.881 41.1658 219.73 40.8405 219.73 40.4597C219.73 40.0789 219.881 39.7615 220.184 39.5076C220.506 39.2379 220.903 39.103 221.376 39.103C221.831 39.103 222.209 39.2379 222.512 39.5076C222.834 39.7615 222.995 40.0789 222.995 40.4597C222.995 40.8405 222.834 41.1658 222.512 41.4355C222.209 41.6894 221.831 41.8163 221.376 41.8163Z" fill="#CFCFCF"/>
<path d="M226.922 41.8163C226.449 41.8163 226.052 41.6894 225.73 41.4355C225.427 41.1658 225.275 40.8405 225.275 40.4597C225.275 40.0789 225.427 39.7615 225.73 39.5076C226.052 39.2379 226.449 39.103 226.922 39.103C227.377 39.103 227.755 39.2379 228.058 39.5076C228.38 39.7615 228.541 40.0789 228.541 40.4597C228.541 40.8405 228.38 41.1658 228.058 41.4355C227.755 41.6894 227.377 41.8163 226.922 41.8163Z" fill="#CFCFCF"/>
<path d="M232.468 41.8163C231.995 41.8163 231.598 41.6894 231.276 41.4355C230.973 41.1658 230.821 40.8405 230.821 40.4597C230.821 40.0789 230.973 39.7615 231.276 39.5076C231.598 39.2379 231.995 39.103 232.468 39.103C232.923 39.103 233.301 39.2379 233.604 39.5076C233.926 39.7615 234.087 40.0789 234.087 40.4597C234.087 40.8405 233.926 41.1658 233.604 41.4355C233.301 41.6894 232.923 41.8163 232.468 41.8163Z" fill="#CFCFCF"/>
<path d="M238.014 41.8163C237.541 41.8163 237.143 41.6894 236.822 41.4355C236.519 41.1658 236.367 40.8405 236.367 40.4597C236.367 40.0789 236.519 39.7615 236.822 39.5076C237.143 39.2379 237.541 39.103 238.014 39.103C238.469 39.103 238.847 39.2379 239.15 39.5076C239.472 39.7615 239.633 40.0789 239.633 40.4597C239.633 40.8405 239.472 41.1658 239.15 41.4355C238.847 41.6894 238.469 41.8163 238.014 41.8163Z" fill="#CFCFCF"/>
<path d="M243.56 41.8163C243.087 41.8163 242.689 41.6894 242.368 41.4355C242.065 41.1658 241.913 40.8405 241.913 40.4597C241.913 40.0789 242.065 39.7615 242.368 39.5076C242.689 39.2379 243.087 39.103 243.56 39.103C244.014 39.103 244.393 39.2379 244.696 39.5076C245.018 39.7615 245.179 40.0789 245.179 40.4597C245.179 40.8405 245.018 41.1658 244.696 41.4355C244.393 41.6894 244.014 41.8163 243.56 41.8163Z" fill="#CFCFCF"/>
<path d="M249.106 41.8163C248.633 41.8163 248.235 41.6894 247.913 41.4355C247.611 41.1658 247.459 40.8405 247.459 40.4597C247.459 40.0789 247.611 39.7615 247.913 39.5076C248.235 39.2379 248.633 39.103 249.106 39.103C249.56 39.103 249.939 39.2379 250.242 39.5076C250.564 39.7615 250.725 40.0789 250.725 40.4597C250.725 40.8405 250.564 41.1658 250.242 41.4355C249.939 41.6894 249.56 41.8163 249.106 41.8163Z" fill="#CFCFCF"/>
<path d="M254.652 41.8163C254.179 41.8163 253.781 41.6894 253.459 41.4355C253.156 41.1658 253.005 40.8405 253.005 40.4597C253.005 40.0789 253.156 39.7615 253.459 39.5076C253.781 39.2379 254.179 39.103 254.652 39.103C255.106 39.103 255.485 39.2379 255.788 39.5076C256.11 39.7615 256.27 40.0789 256.27 40.4597C256.27 40.8405 256.11 41.1658 255.788 41.4355C255.485 41.6894 255.106 41.8163 254.652 41.8163Z" fill="#CFCFCF"/>
<path d="M260.198 41.8163C259.725 41.8163 259.327 41.6894 259.005 41.4355C258.702 41.1658 258.551 40.8405 258.551 40.4597C258.551 40.0789 258.702 39.7615 259.005 39.5076C259.327 39.2379 259.725 39.103 260.198 39.103C260.652 39.103 261.031 39.2379 261.334 39.5076C261.655 39.7615 261.816 40.0789 261.816 40.4597C261.816 40.8405 261.655 41.1658 261.334 41.4355C261.031 41.6894 260.652 41.8163 260.198 41.8163Z" fill="#CFCFCF"/>
<path d="M265.744 41.8163C265.271 41.8163 264.873 41.6894 264.551 41.4355C264.248 41.1658 264.097 40.8405 264.097 40.4597C264.097 40.0789 264.248 39.7615 264.551 39.5076C264.873 39.2379 265.271 39.103 265.744 39.103C266.198 39.103 266.577 39.2379 266.88 39.5076C267.201 39.7615 267.362 40.0789 267.362 40.4597C267.362 40.8405 267.201 41.1658 266.88 41.4355C266.577 41.6894 266.198 41.8163 265.744 41.8163Z" fill="#CFCFCF"/>
<path d="M271.29 41.8163C270.816 41.8163 270.419 41.6894 270.097 41.4355C269.794 41.1658 269.643 40.8405 269.643 40.4597C269.643 40.0789 269.794 39.7615 270.097 39.5076C270.419 39.2379 270.816 39.103 271.29 39.103C271.744 39.103 272.123 39.2379 272.425 39.5076C272.747 39.7615 272.908 40.0789 272.908 40.4597C272.908 40.8405 272.747 41.1658 272.425 41.4355C272.123 41.6894 271.744 41.8163 271.29 41.8163Z" fill="#CFCFCF"/>
<path d="M276.836 41.8163C276.362 41.8163 275.965 41.6894 275.643 41.4355C275.34 41.1658 275.189 40.8405 275.189 40.4597C275.189 40.0789 275.34 39.7615 275.643 39.5076C275.965 39.2379 276.362 39.103 276.836 39.103C277.29 39.103 277.668 39.2379 277.971 39.5076C278.293 39.7615 278.454 40.0789 278.454 40.4597C278.454 40.8405 278.293 41.1658 277.971 41.4355C277.668 41.6894 277.29 41.8163 276.836 41.8163Z" fill="#CFCFCF"/>
<path d="M282.381 41.8163C281.908 41.8163 281.511 41.6894 281.189 41.4355C280.886 41.1658 280.735 40.8405 280.735 40.4597C280.735 40.0789 280.886 39.7615 281.189 39.5076C281.511 39.2379 281.908 39.103 282.381 39.103C282.836 39.103 283.214 39.2379 283.517 39.5076C283.839 39.7615 284 40.0789 284 40.4597C284 40.8405 283.839 41.1658 283.517 41.4355C283.214 41.6894 282.836 41.8163 282.381 41.8163Z" fill="#CFCFCF"/>
<path d="M193.647 50.7417C193.174 50.7417 192.776 50.6148 192.454 50.3609C192.151 50.0912 192 49.7659 192 49.3851C192 49.0042 192.151 48.6869 192.454 48.433C192.776 48.1633 193.174 48.0284 193.647 48.0284C194.101 48.0284 194.48 48.1633 194.783 48.433C195.105 48.6869 195.265 49.0042 195.265 49.3851C195.265 49.7659 195.105 50.0912 194.783 50.3609C194.48 50.6148 194.101 50.7417 193.647 50.7417Z" fill="#CFCFCF"/>
<path d="M199.193 50.7417C198.72 50.7417 198.322 50.6148 198 50.3609C197.697 50.0912 197.546 49.7659 197.546 49.3851C197.546 49.0042 197.697 48.6869 198 48.433C198.322 48.1633 198.72 48.0284 199.193 48.0284C199.647 48.0284 200.026 48.1633 200.329 48.433C200.65 48.6869 200.811 49.0042 200.811 49.3851C200.811 49.7659 200.65 50.0912 200.329 50.3609C200.026 50.6148 199.647 50.7417 199.193 50.7417Z" fill="#CFCFCF"/>
<path d="M204.739 50.7417C204.265 50.7417 203.868 50.6148 203.546 50.3609C203.243 50.0912 203.092 49.7659 203.092 49.3851C203.092 49.0042 203.243 48.6869 203.546 48.433C203.868 48.1633 204.265 48.0284 204.739 48.0284C205.193 48.0284 205.572 48.1633 205.875 48.433C206.196 48.6869 206.357 49.0042 206.357 49.3851C206.357 49.7659 206.196 50.0912 205.875 50.3609C205.572 50.6148 205.193 50.7417 204.739 50.7417Z" fill="#CFCFCF"/>
<path d="M210.285 50.7417C209.811 50.7417 209.414 50.6148 209.092 50.3609C208.789 50.0912 208.638 49.7659 208.638 49.3851C208.638 49.0042 208.789 48.6869 209.092 48.433C209.414 48.1633 209.811 48.0284 210.285 48.0284C210.739 48.0284 211.118 48.1633 211.42 48.433C211.742 48.6869 211.903 49.0042 211.903 49.3851C211.903 49.7659 211.742 50.0912 211.42 50.3609C211.118 50.6148 210.739 50.7417 210.285 50.7417Z" fill="#CFCFCF"/>
<path d="M215.831 50.7417C215.357 50.7417 214.96 50.6148 214.638 50.3609C214.335 50.0912 214.184 49.7659 214.184 49.3851C214.184 49.0042 214.335 48.6869 214.638 48.433C214.96 48.1633 215.357 48.0284 215.831 48.0284C216.285 48.0284 216.663 48.1633 216.966 48.433C217.288 48.6869 217.449 49.0042 217.449 49.3851C217.449 49.7659 217.288 50.0912 216.966 50.3609C216.663 50.6148 216.285 50.7417 215.831 50.7417Z" fill="#CFCFCF"/>
<path d="M221.376 50.7417C220.903 50.7417 220.506 50.6148 220.184 50.3609C219.881 50.0912 219.73 49.7659 219.73 49.3851C219.73 49.0042 219.881 48.6869 220.184 48.433C220.506 48.1633 220.903 48.0284 221.376 48.0284C221.831 48.0284 222.209 48.1633 222.512 48.433C222.834 48.6869 222.995 49.0042 222.995 49.3851C222.995 49.7659 222.834 50.0912 222.512 50.3609C222.209 50.6148 221.831 50.7417 221.376 50.7417Z" fill="#CFCFCF"/>
<path d="M226.922 50.7417C226.449 50.7417 226.052 50.6148 225.73 50.3609C225.427 50.0912 225.275 49.7659 225.275 49.3851C225.275 49.0042 225.427 48.6869 225.73 48.433C226.052 48.1633 226.449 48.0284 226.922 48.0284C227.377 48.0284 227.755 48.1633 228.058 48.433C228.38 48.6869 228.541 49.0042 228.541 49.3851C228.541 49.7659 228.38 50.0912 228.058 50.3609C227.755 50.6148 227.377 50.7417 226.922 50.7417Z" fill="#CFCFCF"/>
<path d="M232.468 50.7417C231.995 50.7417 231.598 50.6148 231.276 50.3609C230.973 50.0912 230.821 49.7659 230.821 49.3851C230.821 49.0042 230.973 48.6869 231.276 48.433C231.598 48.1633 231.995 48.0284 232.468 48.0284C232.923 48.0284 233.301 48.1633 233.604 48.433C233.926 48.6869 234.087 49.0042 234.087 49.3851C234.087 49.7659 233.926 50.0912 233.604 50.3609C233.301 50.6148 232.923 50.7417 232.468 50.7417Z" fill="#CFCFCF"/>
<path d="M238.014 50.7417C237.541 50.7417 237.143 50.6148 236.822 50.3609C236.519 50.0912 236.367 49.7659 236.367 49.3851C236.367 49.0042 236.519 48.6869 236.822 48.433C237.143 48.1633 237.541 48.0284 238.014 48.0284C238.469 48.0284 238.847 48.1633 239.15 48.433C239.472 48.6869 239.633 49.0042 239.633 49.3851C239.633 49.7659 239.472 50.0912 239.15 50.3609C238.847 50.6148 238.469 50.7417 238.014 50.7417Z" fill="#CFCFCF"/>
<path d="M243.56 50.7417C243.087 50.7417 242.689 50.6148 242.368 50.3609C242.065 50.0912 241.913 49.7659 241.913 49.3851C241.913 49.0042 242.065 48.6869 242.368 48.433C242.689 48.1633 243.087 48.0284 243.56 48.0284C244.014 48.0284 244.393 48.1633 244.696 48.433C245.018 48.6869 245.179 49.0042 245.179 49.3851C245.179 49.7659 245.018 50.0912 244.696 50.3609C244.393 50.6148 244.014 50.7417 243.56 50.7417Z" fill="#CFCFCF"/>
<path d="M249.106 50.7417C248.633 50.7417 248.235 50.6148 247.913 50.3609C247.611 50.0912 247.459 49.7659 247.459 49.3851C247.459 49.0042 247.611 48.6869 247.913 48.433C248.235 48.1633 248.633 48.0284 249.106 48.0284C249.56 48.0284 249.939 48.1633 250.242 48.433C250.564 48.6869 250.725 49.0042 250.725 49.3851C250.725 49.7659 250.564 50.0912 250.242 50.3609C249.939 50.6148 249.56 50.7417 249.106 50.7417Z" fill="#CFCFCF"/>
<path d="M254.652 50.7417C254.179 50.7417 253.781 50.6148 253.459 50.3609C253.156 50.0912 253.005 49.7659 253.005 49.3851C253.005 49.0042 253.156 48.6869 253.459 48.433C253.781 48.1633 254.179 48.0284 254.652 48.0284C255.106 48.0284 255.485 48.1633 255.788 48.433C256.11 48.6869 256.27 49.0042 256.27 49.3851C256.27 49.7659 256.11 50.0912 255.788 50.3609C255.485 50.6148 255.106 50.7417 254.652 50.7417Z" fill="#CFCFCF"/>
<path d="M260.198 50.7417C259.725 50.7417 259.327 50.6148 259.005 50.3609C258.702 50.0912 258.551 49.7659 258.551 49.3851C258.551 49.0042 258.702 48.6869 259.005 48.433C259.327 48.1633 259.725 48.0284 260.198 48.0284C260.652 48.0284 261.031 48.1633 261.334 48.433C261.655 48.6869 261.816 49.0042 261.816 49.3851C261.816 49.7659 261.655 50.0912 261.334 50.3609C261.031 50.6148 260.652 50.7417 260.198 50.7417Z" fill="#CFCFCF"/>
<path d="M265.744 50.7417C265.271 50.7417 264.873 50.6148 264.551 50.3609C264.248 50.0912 264.097 49.7659 264.097 49.3851C264.097 49.0042 264.248 48.6869 264.551 48.433C264.873 48.1633 265.271 48.0284 265.744 48.0284C266.198 48.0284 266.577 48.1633 266.88 48.433C267.201 48.6869 267.362 49.0042 267.362 49.3851C267.362 49.7659 267.201 50.0912 266.88 50.3609C266.577 50.6148 266.198 50.7417 265.744 50.7417Z" fill="#CFCFCF"/>
<path d="M271.29 50.7417C270.816 50.7417 270.419 50.6148 270.097 50.3609C269.794 50.0912 269.643 49.7659 269.643 49.3851C269.643 49.0042 269.794 48.6869 270.097 48.433C270.419 48.1633 270.816 48.0284 271.29 48.0284C271.744 48.0284 272.123 48.1633 272.425 48.433C272.747 48.6869 272.908 49.0042 272.908 49.3851C272.908 49.7659 272.747 50.0912 272.425 50.3609C272.123 50.6148 271.744 50.7417 271.29 50.7417Z" fill="#CFCFCF"/>
<path d="M276.836 50.7417C276.362 50.7417 275.965 50.6148 275.643 50.3609C275.34 50.0912 275.189 49.7659 275.189 49.3851C275.189 49.0042 275.34 48.6869 275.643 48.433C275.965 48.1633 276.362 48.0284 276.836 48.0284C277.29 48.0284 277.668 48.1633 277.971 48.433C278.293 48.6869 278.454 49.0042 278.454 49.3851C278.454 49.7659 278.293 50.0912 277.971 50.3609C277.668 50.6148 277.29 50.7417 276.836 50.7417Z" fill="#CFCFCF"/>
<path d="M282.381 50.7417C281.908 50.7417 281.511 50.6148 281.189 50.3609C280.886 50.0912 280.735 49.7659 280.735 49.3851C280.735 49.0042 280.886 48.6869 281.189 48.433C281.511 48.1633 281.908 48.0284 282.381 48.0284C282.836 48.0284 283.214 48.1633 283.517 48.433C283.839 48.6869 284 49.0042 284 49.3851C284 49.7659 283.839 50.0912 283.517 50.3609C283.214 50.6148 282.836 50.7417 282.381 50.7417Z" fill="#CFCFCF"/>
<path d="M193.647 58.1796C193.174 58.1796 192.776 58.0526 192.454 57.7987C192.151 57.529 192 57.2037 192 56.8229C192 56.4421 192.151 56.1247 192.454 55.8709C192.776 55.6011 193.174 55.4662 193.647 55.4662C194.101 55.4662 194.48 55.6011 194.783 55.8709C195.105 56.1247 195.265 56.4421 195.265 56.8229C195.265 57.2037 195.105 57.529 194.783 57.7987C194.48 58.0526 194.101 58.1796 193.647 58.1796Z" fill="#CFCFCF"/>
<path d="M199.193 58.1796C198.72 58.1796 198.322 58.0526 198 57.7987C197.697 57.529 197.546 57.2037 197.546 56.8229C197.546 56.4421 197.697 56.1247 198 55.8709C198.322 55.6011 198.72 55.4662 199.193 55.4662C199.647 55.4662 200.026 55.6011 200.329 55.8709C200.65 56.1247 200.811 56.4421 200.811 56.8229C200.811 57.2037 200.65 57.529 200.329 57.7987C200.026 58.0526 199.647 58.1796 199.193 58.1796Z" fill="#CFCFCF"/>
<path d="M204.739 58.1796C204.265 58.1796 203.868 58.0526 203.546 57.7987C203.243 57.529 203.092 57.2037 203.092 56.8229C203.092 56.4421 203.243 56.1247 203.546 55.8709C203.868 55.6011 204.265 55.4662 204.739 55.4662C205.193 55.4662 205.572 55.6011 205.875 55.8709C206.196 56.1247 206.357 56.4421 206.357 56.8229C206.357 57.2037 206.196 57.529 205.875 57.7987C205.572 58.0526 205.193 58.1796 204.739 58.1796Z" fill="#CFCFCF"/>
<path d="M210.285 58.1796C209.811 58.1796 209.414 58.0526 209.092 57.7987C208.789 57.529 208.638 57.2037 208.638 56.8229C208.638 56.4421 208.789 56.1247 209.092 55.8709C209.414 55.6011 209.811 55.4662 210.285 55.4662C210.739 55.4662 211.118 55.6011 211.42 55.8709C211.742 56.1247 211.903 56.4421 211.903 56.8229C211.903 57.2037 211.742 57.529 211.42 57.7987C211.118 58.0526 210.739 58.1796 210.285 58.1796Z" fill="#CFCFCF"/>
<path d="M215.831 58.1796C215.357 58.1796 214.96 58.0526 214.638 57.7987C214.335 57.529 214.184 57.2037 214.184 56.8229C214.184 56.4421 214.335 56.1247 214.638 55.8709C214.96 55.6011 215.357 55.4662 215.831 55.4662C216.285 55.4662 216.663 55.6011 216.966 55.8709C217.288 56.1247 217.449 56.4421 217.449 56.8229C217.449 57.2037 217.288 57.529 216.966 57.7987C216.663 58.0526 216.285 58.1796 215.831 58.1796Z" fill="#CFCFCF"/>
<path d="M221.376 58.1796C220.903 58.1796 220.506 58.0526 220.184 57.7987C219.881 57.529 219.73 57.2037 219.73 56.8229C219.73 56.4421 219.881 56.1247 220.184 55.8709C220.506 55.6011 220.903 55.4662 221.376 55.4662C221.831 55.4662 222.209 55.6011 222.512 55.8709C222.834 56.1247 222.995 56.4421 222.995 56.8229C222.995 57.2037 222.834 57.529 222.512 57.7987C222.209 58.0526 221.831 58.1796 221.376 58.1796Z" fill="#CFCFCF"/>
<path d="M226.922 58.1796C226.449 58.1796 226.052 58.0526 225.73 57.7987C225.427 57.529 225.275 57.2037 225.275 56.8229C225.275 56.4421 225.427 56.1247 225.73 55.8709C226.052 55.6011 226.449 55.4662 226.922 55.4662C227.377 55.4662 227.755 55.6011 228.058 55.8709C228.38 56.1247 228.541 56.4421 228.541 56.8229C228.541 57.2037 228.38 57.529 228.058 57.7987C227.755 58.0526 227.377 58.1796 226.922 58.1796Z" fill="#CFCFCF"/>
<path d="M232.468 58.1796C231.995 58.1796 231.598 58.0526 231.276 57.7987C230.973 57.529 230.821 57.2037 230.821 56.8229C230.821 56.4421 230.973 56.1247 231.276 55.8709C231.598 55.6011 231.995 55.4662 232.468 55.4662C232.923 55.4662 233.301 55.6011 233.604 55.8709C233.926 56.1247 234.087 56.4421 234.087 56.8229C234.087 57.2037 233.926 57.529 233.604 57.7987C233.301 58.0526 232.923 58.1796 232.468 58.1796Z" fill="#CFCFCF"/>
<path d="M238.014 58.1796C237.541 58.1796 237.143 58.0526 236.822 57.7987C236.519 57.529 236.367 57.2037 236.367 56.8229C236.367 56.4421 236.519 56.1247 236.822 55.8709C237.143 55.6011 237.541 55.4662 238.014 55.4662C238.469 55.4662 238.847 55.6011 239.15 55.8709C239.472 56.1247 239.633 56.4421 239.633 56.8229C239.633 57.2037 239.472 57.529 239.15 57.7987C238.847 58.0526 238.469 58.1796 238.014 58.1796Z" fill="#CFCFCF"/>
<path d="M243.56 58.1796C243.087 58.1796 242.689 58.0526 242.368 57.7987C242.065 57.529 241.913 57.2037 241.913 56.8229C241.913 56.4421 242.065 56.1247 242.368 55.8709C242.689 55.6011 243.087 55.4662 243.56 55.4662C244.014 55.4662 244.393 55.6011 244.696 55.8709C245.018 56.1247 245.179 56.4421 245.179 56.8229C245.179 57.2037 245.018 57.529 244.696 57.7987C244.393 58.0526 244.014 58.1796 243.56 58.1796Z" fill="#CFCFCF"/>
<path d="M249.106 58.1796C248.633 58.1796 248.235 58.0526 247.913 57.7987C247.611 57.529 247.459 57.2037 247.459 56.8229C247.459 56.4421 247.611 56.1247 247.913 55.8709C248.235 55.6011 248.633 55.4662 249.106 55.4662C249.56 55.4662 249.939 55.6011 250.242 55.8709C250.564 56.1247 250.725 56.4421 250.725 56.8229C250.725 57.2037 250.564 57.529 250.242 57.7987C249.939 58.0526 249.56 58.1796 249.106 58.1796Z" fill="#CFCFCF"/>
<path d="M254.652 58.1796C254.179 58.1796 253.781 58.0526 253.459 57.7987C253.156 57.529 253.005 57.2037 253.005 56.8229C253.005 56.4421 253.156 56.1247 253.459 55.8709C253.781 55.6011 254.179 55.4662 254.652 55.4662C255.106 55.4662 255.485 55.6011 255.788 55.8709C256.11 56.1247 256.27 56.4421 256.27 56.8229C256.27 57.2037 256.11 57.529 255.788 57.7987C255.485 58.0526 255.106 58.1796 254.652 58.1796Z" fill="#CFCFCF"/>
<path d="M260.198 58.1796C259.725 58.1796 259.327 58.0526 259.005 57.7987C258.702 57.529 258.551 57.2037 258.551 56.8229C258.551 56.4421 258.702 56.1247 259.005 55.8709C259.327 55.6011 259.725 55.4662 260.198 55.4662C260.652 55.4662 261.031 55.6011 261.334 55.8709C261.655 56.1247 261.816 56.4421 261.816 56.8229C261.816 57.2037 261.655 57.529 261.334 57.7987C261.031 58.0526 260.652 58.1796 260.198 58.1796Z" fill="#CFCFCF"/>
<path d="M265.744 58.1796C265.271 58.1796 264.873 58.0526 264.551 57.7987C264.248 57.529 264.097 57.2037 264.097 56.8229C264.097 56.4421 264.248 56.1247 264.551 55.8709C264.873 55.6011 265.271 55.4662 265.744 55.4662C266.198 55.4662 266.577 55.6011 266.88 55.8709C267.201 56.1247 267.362 56.4421 267.362 56.8229C267.362 57.2037 267.201 57.529 266.88 57.7987C266.577 58.0526 266.198 58.1796 265.744 58.1796Z" fill="#CFCFCF"/>
<path d="M271.29 58.1796C270.816 58.1796 270.419 58.0526 270.097 57.7987C269.794 57.529 269.643 57.2037 269.643 56.8229C269.643 56.4421 269.794 56.1247 270.097 55.8709C270.419 55.6011 270.816 55.4662 271.29 55.4662C271.744 55.4662 272.123 55.6011 272.425 55.8709C272.747 56.1247 272.908 56.4421 272.908 56.8229C272.908 57.2037 272.747 57.529 272.425 57.7987C272.123 58.0526 271.744 58.1796 271.29 58.1796Z" fill="#CFCFCF"/>
<path d="M276.836 58.1796C276.362 58.1796 275.965 58.0526 275.643 57.7987C275.34 57.529 275.189 57.2037 275.189 56.8229C275.189 56.4421 275.34 56.1247 275.643 55.8709C275.965 55.6011 276.362 55.4662 276.836 55.4662C277.29 55.4662 277.668 55.6011 277.971 55.8709C278.293 56.1247 278.454 56.4421 278.454 56.8229C278.454 57.2037 278.293 57.529 277.971 57.7987C277.668 58.0526 277.29 58.1796 276.836 58.1796Z" fill="#CFCFCF"/>
<path d="M282.381 58.1796C281.908 58.1796 281.511 58.0526 281.189 57.7987C280.886 57.529 280.735 57.2037 280.735 56.8229C280.735 56.4421 280.886 56.1247 281.189 55.8709C281.511 55.6011 281.908 55.4662 282.381 55.4662C282.836 55.4662 283.214 55.6011 283.517 55.8709C283.839 56.1247 284 56.4421 284 56.8229C284 57.2037 283.839 57.529 283.517 57.7987C283.214 58.0526 282.836 58.1796 282.381 58.1796Z" fill="#CFCFCF"/>
<path d="M193.647 65.6174C193.174 65.6174 192.776 65.4905 192.454 65.2366C192.151 64.9668 192 64.6416 192 64.2607C192 63.8799 192.151 63.5626 192.454 63.3087C192.776 63.0389 193.174 62.9041 193.647 62.9041C194.101 62.9041 194.48 63.0389 194.783 63.3087C195.105 63.5626 195.265 63.8799 195.265 64.2607C195.265 64.6416 195.105 64.9668 194.783 65.2366C194.48 65.4905 194.101 65.6174 193.647 65.6174Z" fill="#CFCFCF"/>
<path d="M199.193 65.6174C198.72 65.6174 198.322 65.4905 198 65.2366C197.697 64.9668 197.546 64.6416 197.546 64.2607C197.546 63.8799 197.697 63.5626 198 63.3087C198.322 63.0389 198.72 62.9041 199.193 62.9041C199.647 62.9041 200.026 63.0389 200.329 63.3087C200.65 63.5626 200.811 63.8799 200.811 64.2607C200.811 64.6416 200.65 64.9668 200.329 65.2366C200.026 65.4905 199.647 65.6174 199.193 65.6174Z" fill="#CFCFCF"/>
<path d="M204.739 65.6174C204.265 65.6174 203.868 65.4905 203.546 65.2366C203.243 64.9668 203.092 64.6416 203.092 64.2607C203.092 63.8799 203.243 63.5626 203.546 63.3087C203.868 63.0389 204.265 62.9041 204.739 62.9041C205.193 62.9041 205.572 63.0389 205.875 63.3087C206.196 63.5626 206.357 63.8799 206.357 64.2607C206.357 64.6416 206.196 64.9668 205.875 65.2366C205.572 65.4905 205.193 65.6174 204.739 65.6174Z" fill="#CFCFCF"/>
<path d="M210.285 65.6174C209.811 65.6174 209.414 65.4905 209.092 65.2366C208.789 64.9668 208.638 64.6416 208.638 64.2607C208.638 63.8799 208.789 63.5626 209.092 63.3087C209.414 63.0389 209.811 62.9041 210.285 62.9041C210.739 62.9041 211.118 63.0389 211.42 63.3087C211.742 63.5626 211.903 63.8799 211.903 64.2607C211.903 64.6416 211.742 64.9668 211.42 65.2366C211.118 65.4905 210.739 65.6174 210.285 65.6174Z" fill="#CFCFCF"/>
<path d="M215.831 65.6174C215.357 65.6174 214.96 65.4905 214.638 65.2366C214.335 64.9668 214.184 64.6416 214.184 64.2607C214.184 63.8799 214.335 63.5626 214.638 63.3087C214.96 63.0389 215.357 62.9041 215.831 62.9041C216.285 62.9041 216.663 63.0389 216.966 63.3087C217.288 63.5626 217.449 63.8799 217.449 64.2607C217.449 64.6416 217.288 64.9668 216.966 65.2366C216.663 65.4905 216.285 65.6174 215.831 65.6174Z" fill="#CFCFCF"/>
<path d="M221.376 65.6174C220.903 65.6174 220.506 65.4905 220.184 65.2366C219.881 64.9668 219.73 64.6416 219.73 64.2607C219.73 63.8799 219.881 63.5626 220.184 63.3087C220.506 63.0389 220.903 62.9041 221.376 62.9041C221.831 62.9041 222.209 63.0389 222.512 63.3087C222.834 63.5626 222.995 63.8799 222.995 64.2607C222.995 64.6416 222.834 64.9668 222.512 65.2366C222.209 65.4905 221.831 65.6174 221.376 65.6174Z" fill="#CFCFCF"/>
<path d="M226.922 65.6174C226.449 65.6174 226.052 65.4905 225.73 65.2366C225.427 64.9668 225.275 64.6416 225.275 64.2607C225.275 63.8799 225.427 63.5626 225.73 63.3087C226.052 63.0389 226.449 62.9041 226.922 62.9041C227.377 62.9041 227.755 63.0389 228.058 63.3087C228.38 63.5626 228.541 63.8799 228.541 64.2607C228.541 64.6416 228.38 64.9668 228.058 65.2366C227.755 65.4905 227.377 65.6174 226.922 65.6174Z" fill="#CFCFCF"/>
<path d="M232.468 65.6174C231.995 65.6174 231.598 65.4905 231.276 65.2366C230.973 64.9668 230.821 64.6416 230.821 64.2607C230.821 63.8799 230.973 63.5626 231.276 63.3087C231.598 63.0389 231.995 62.9041 232.468 62.9041C232.923 62.9041 233.301 63.0389 233.604 63.3087C233.926 63.5626 234.087 63.8799 234.087 64.2607C234.087 64.6416 233.926 64.9668 233.604 65.2366C233.301 65.4905 232.923 65.6174 232.468 65.6174Z" fill="#CFCFCF"/>
<path d="M238.014 65.6174C237.541 65.6174 237.143 65.4905 236.822 65.2366C236.519 64.9668 236.367 64.6416 236.367 64.2607C236.367 63.8799 236.519 63.5626 236.822 63.3087C237.143 63.0389 237.541 62.9041 238.014 62.9041C238.469 62.9041 238.847 63.0389 239.15 63.3087C239.472 63.5626 239.633 63.8799 239.633 64.2607C239.633 64.6416 239.472 64.9668 239.15 65.2366C238.847 65.4905 238.469 65.6174 238.014 65.6174Z" fill="#CFCFCF"/>
<path d="M243.56 65.6174C243.087 65.6174 242.689 65.4905 242.368 65.2366C242.065 64.9668 241.913 64.6416 241.913 64.2607C241.913 63.8799 242.065 63.5626 242.368 63.3087C242.689 63.0389 243.087 62.9041 243.56 62.9041C244.014 62.9041 244.393 63.0389 244.696 63.3087C245.018 63.5626 245.179 63.8799 245.179 64.2607C245.179 64.6416 245.018 64.9668 244.696 65.2366C244.393 65.4905 244.014 65.6174 243.56 65.6174Z" fill="#CFCFCF"/>
<path d="M249.106 65.6174C248.633 65.6174 248.235 65.4905 247.913 65.2366C247.611 64.9668 247.459 64.6416 247.459 64.2607C247.459 63.8799 247.611 63.5626 247.913 63.3087C248.235 63.0389 248.633 62.9041 249.106 62.9041C249.56 62.9041 249.939 63.0389 250.242 63.3087C250.564 63.5626 250.725 63.8799 250.725 64.2607C250.725 64.6416 250.564 64.9668 250.242 65.2366C249.939 65.4905 249.56 65.6174 249.106 65.6174Z" fill="#CFCFCF"/>
<path d="M254.652 65.6174C254.179 65.6174 253.781 65.4905 253.459 65.2366C253.156 64.9668 253.005 64.6416 253.005 64.2607C253.005 63.8799 253.156 63.5626 253.459 63.3087C253.781 63.0389 254.179 62.9041 254.652 62.9041C255.106 62.9041 255.485 63.0389 255.788 63.3087C256.11 63.5626 256.27 63.8799 256.27 64.2607C256.27 64.6416 256.11 64.9668 255.788 65.2366C255.485 65.4905 255.106 65.6174 254.652 65.6174Z" fill="#CFCFCF"/>
<path d="M260.198 65.6174C259.725 65.6174 259.327 65.4905 259.005 65.2366C258.702 64.9668 258.551 64.6416 258.551 64.2607C258.551 63.8799 258.702 63.5626 259.005 63.3087C259.327 63.0389 259.725 62.9041 260.198 62.9041C260.652 62.9041 261.031 63.0389 261.334 63.3087C261.655 63.5626 261.816 63.8799 261.816 64.2607C261.816 64.6416 261.655 64.9668 261.334 65.2366C261.031 65.4905 260.652 65.6174 260.198 65.6174Z" fill="#CFCFCF"/>
<path d="M265.744 65.6174C265.271 65.6174 264.873 65.4905 264.551 65.2366C264.248 64.9668 264.097 64.6416 264.097 64.2607C264.097 63.8799 264.248 63.5626 264.551 63.3087C264.873 63.0389 265.271 62.9041 265.744 62.9041C266.198 62.9041 266.577 63.0389 266.88 63.3087C267.201 63.5626 267.362 63.8799 267.362 64.2607C267.362 64.6416 267.201 64.9668 266.88 65.2366C266.577 65.4905 266.198 65.6174 265.744 65.6174Z" fill="#CFCFCF"/>
<path d="M271.29 65.6174C270.816 65.6174 270.419 65.4905 270.097 65.2366C269.794 64.9668 269.643 64.6416 269.643 64.2607C269.643 63.8799 269.794 63.5626 270.097 63.3087C270.419 63.0389 270.816 62.9041 271.29 62.9041C271.744 62.9041 272.123 63.0389 272.425 63.3087C272.747 63.5626 272.908 63.8799 272.908 64.2607C272.908 64.6416 272.747 64.9668 272.425 65.2366C272.123 65.4905 271.744 65.6174 271.29 65.6174Z" fill="#CFCFCF"/>
<path d="M276.836 65.6174C276.362 65.6174 275.965 65.4905 275.643 65.2366C275.34 64.9668 275.189 64.6416 275.189 64.2607C275.189 63.8799 275.34 63.5626 275.643 63.3087C275.965 63.0389 276.362 62.9041 276.836 62.9041C277.29 62.9041 277.668 63.0389 277.971 63.3087C278.293 63.5626 278.454 63.8799 278.454 64.2607C278.454 64.6416 278.293 64.9668 277.971 65.2366C277.668 65.4905 277.29 65.6174 276.836 65.6174Z" fill="#CFCFCF"/>
<path d="M282.381 65.6174C281.908 65.6174 281.511 65.4905 281.189 65.2366C280.886 64.9668 280.735 64.6416 280.735 64.2607C280.735 63.8799 280.886 63.5626 281.189 63.3087C281.511 63.0389 281.908 62.9041 282.381 62.9041C282.836 62.9041 283.214 63.0389 283.517 63.3087C283.839 63.5626 284 63.8799 284 64.2607C284 64.6416 283.839 64.9668 283.517 65.2366C283.214 65.4905 282.836 65.6174 282.381 65.6174Z" fill="#CFCFCF"/>
</svg>
