<svg width="100" height="100" viewBox="0 0 100 100" fill="none" xmlns="http://www.w3.org/2000/svg">
<path d="M20.8438 62.833L31.3438 52.833L41.8438 62.833" stroke="#00CCF5" stroke-width="3" stroke-linecap="round" stroke-linejoin="round"/>
<path d="M31.8438 52.833V73.633C31.8438 75.0121 32.4057 76.3348 33.4058 77.31C34.406 78.2852 35.7626 78.833 37.1771 78.833H47.8438" stroke="#00CCF5" stroke-width="3" stroke-linecap="round" stroke-linejoin="round"/>
<path d="M83.8438 65.833V83.7219C83.8438 85.0774 83.2959 86.3775 82.3207 87.336C81.3455 88.2945 80.0229 88.833 78.6438 88.833H63.0438C61.6646 88.833 60.342 88.2945 59.3668 87.336C58.3916 86.3775 57.8438 85.0774 57.8438 83.7219V65.833" stroke="black" stroke-width="3" stroke-linecap="round" stroke-linejoin="round"/>
<path d="M88.8438 70.833L72.6609 54.5894C72.4224 54.3496 72.1391 54.1594 71.8273 54.0296C71.5155 53.8998 71.1813 53.833 70.8438 53.833C70.5062 53.833 70.172 53.8998 69.8602 54.0296C69.5484 54.1594 69.2651 54.3496 69.0266 54.5894L52.8438 70.833" stroke="black" stroke-width="3" stroke-linecap="round" stroke-linejoin="round"/>
<path d="M50.3173 21.1157C48.7791 21.1206 47.261 21.4591 45.8709 22.1073C44.4809 22.7554 43.2531 23.6972 42.2751 24.8655C41.986 21.8743 40.8197 19.0304 38.9181 16.6796C37.0165 14.3288 34.4616 12.5726 31.5642 11.6246C28.6669 10.6767 25.552 10.5779 22.5986 11.3402C19.6452 12.1025 16.9806 13.6931 14.929 15.9184C12.8775 18.1438 11.5274 20.9079 11.0431 23.8745C10.5589 26.8412 10.9612 29.8823 12.2013 32.628C13.4413 35.3737 15.4656 37.7055 18.0277 39.3398C20.5899 40.974 23.5795 41.8402 26.6328 41.833H50.3173C53.1091 41.833 55.7865 40.7416 57.7606 38.799C59.7347 36.8564 60.8438 34.2216 60.8438 31.4743C60.8438 28.727 59.7347 26.0923 57.7606 24.1496C55.7865 22.207 53.1091 21.1157 50.3173 21.1157Z" stroke="black" stroke-width="3" stroke-linecap="round" stroke-linejoin="round"/>
<path d="M70.8438 88.833V78.833" stroke="black" stroke-width="3" stroke-linecap="round" stroke-linejoin="round"/>
</svg>
