<svg width="100" height="100" viewBox="0 0 100 100" fill="none" xmlns="http://www.w3.org/2000/svg">
<path d="M49.0103 49.1399L46.943 44.5014L46.9431 44.5013L46.9387 44.492C46.7858 44.1671 46.5051 43.9104 46.1546 43.7999C45.4577 43.5792 44.7673 43.2948 44.1069 42.9473L44.103 42.9452C43.7755 42.7765 43.3937 42.7588 43.0544 42.8848L43.0544 42.8848L43.0497 42.8866L38.297 44.7071L36.8977 43.3078L38.7182 38.5552L38.7183 38.5549C38.8475 38.217 38.8273 37.8335 38.6596 37.5078L38.6584 37.5055C38.3105 36.8387 38.0262 36.1484 37.8056 35.4523C37.6961 35.0968 37.4386 34.81 37.1027 34.6615C37.1024 34.6613 37.102 34.6612 37.1017 34.661L32.4589 32.5919V30.6106L37.1034 28.5407L37.1035 28.5408L37.1128 28.5364C37.438 28.3833 37.6949 28.1022 37.8052 27.7513L37.3282 27.6014M49.0103 49.1399L31.9589 32.9164V30.286L36.8999 28.084C37.105 27.9875 37.2619 27.8125 37.3282 27.6014M49.0103 49.1399H50.9942L53.0634 44.4971C53.0635 44.4967 53.0637 44.4963 53.0639 44.4959C53.2123 44.1603 53.4988 43.903 53.8539 43.7934C54.5446 43.5727 55.2351 43.2883 55.9018 42.9404L55.9041 42.9392C56.2316 42.7705 56.6134 42.7528 56.9527 42.8788L56.958 42.8807L56.958 42.8808L61.7104 44.7069L63.1095 43.3078L61.289 38.5552L61.2871 38.5504L61.2872 38.5504C61.1611 38.2111 61.1789 37.8293 61.3476 37.5018L61.3496 37.4979C61.6971 36.8377 61.9814 36.1475 62.2021 35.4506C62.3125 35.0999 62.5693 34.819 62.8944 34.6661L62.9037 34.6617L62.9037 34.6618L67.5483 32.5919V30.6106L62.9054 28.5415C62.9051 28.5413 62.9047 28.5411 62.9044 28.541C62.5685 28.3924 62.3111 28.1057 62.2016 27.7503C61.981 27.054 61.6968 26.3643 61.3496 25.7046L61.3476 25.7007L61.3476 25.7007C61.1789 25.3732 61.1611 24.9914 61.2872 24.6521L61.2889 24.6473L61.289 24.6473L63.1095 19.8946L61.7102 18.4953L56.9575 20.3159L56.9527 20.3177L56.9527 20.3177C56.6134 20.4437 56.2316 20.4259 55.9041 20.2572L55.9002 20.2552L55.9002 20.2552C55.24 19.9077 54.5497 19.6234 53.8529 19.4027C53.5022 19.2923 53.2214 19.0355 53.0684 18.7104L53.064 18.7011L53.0641 18.7011L50.9942 14.0565H49.013L46.9438 18.6994C46.9436 18.6997 46.9435 18.7001 46.9433 18.7004C46.7948 19.0363 46.508 19.2937 46.1526 19.4032C45.4563 19.6238 44.7666 19.908 44.1069 20.2552L44.103 20.2572L44.103 20.2572C43.7756 20.4259 43.3937 20.4437 43.0544 20.3177L43.0496 20.3159L43.0497 20.3159L38.297 18.4953L36.8977 19.8946M49.0103 49.1399L36.8977 19.8946M37.3282 27.6014C37.5575 26.8834 37.8531 26.1655 38.2151 25.4717C38.3176 25.2726 38.3297 25.0373 38.2513 24.8262L36.3147 19.7705M37.3282 27.6014L37.8045 27.7534C38.0254 27.0619 38.3101 26.3706 38.6584 25.703L38.6596 25.7007C38.8283 25.3732 38.846 24.9914 38.72 24.6521L38.72 24.6521L38.7182 24.6473L36.8977 19.8946M36.3147 19.7705L36.6682 20.1241L36.8977 19.8946M36.3147 19.7705L38.1729 17.9123M36.3147 19.7705L38.1729 17.9123M38.1729 17.9123L43.2285 19.8489C43.4397 19.9274 43.675 19.9153 43.874 19.8127C44.5618 19.4508 45.2797 19.1551 46.0037 18.9259C46.2209 18.8595 46.3958 18.7027 46.4863 18.4975L38.1729 17.9123ZM51.8255 51.7085H52.0327L52.0585 51.6826C52.4746 51.609 52.8301 51.3356 53.006 50.9419L53.0062 50.9414L55.187 46.0462C55.6501 45.8793 56.1115 45.687 56.5657 45.4722L61.5658 47.39C61.5668 47.3903 61.5677 47.3907 61.5686 47.3911C62.0474 47.5793 62.582 47.4577 62.936 47.1037L65.512 44.5276C65.8723 44.1673 65.9768 43.6332 65.8016 43.1659L65.8003 43.1624L63.881 38.1583C64.096 37.7071 64.2884 37.2452 64.4553 36.7783L69.3498 34.5979L69.3503 34.5976C69.8159 34.3896 70.1109 33.9259 70.1109 33.4232V29.7793C70.1109 29.2683 69.8139 28.812 69.3503 28.6048L69.3498 28.6046L64.4546 26.4238C64.2877 25.9608 64.0953 25.4994 63.8806 25.0451L65.7984 20.045C65.7987 20.0442 65.799 20.0434 65.7993 20.0425C65.9877 19.5637 65.8661 19.029 65.512 18.6749L62.936 16.0988C62.5757 15.7386 62.0415 15.634 61.5743 15.8092L61.5743 15.8092L61.5708 15.8106L56.5667 17.7299C56.1154 17.5148 55.6536 17.3224 55.1867 17.1555L53.0062 12.2611L53.006 12.2606C52.798 11.795 52.3343 11.5 51.8316 11.5H48.1876C47.6767 11.5 47.2204 11.7969 47.0132 12.2606L47.013 12.2611L44.8329 17.1547C44.3613 17.3219 43.8983 17.5146 43.4465 17.7299L38.446 15.812C37.9712 15.6222 37.4302 15.7458 37.0772 16.0988L34.5011 18.6749C34.1409 19.0351 34.0364 19.5693 34.2116 20.0366L34.2116 20.0366L34.2129 20.0401L36.1322 25.0441C35.9172 25.4954 35.7248 25.9573 35.5579 26.4242L30.6634 28.6046L30.6629 28.6048C30.1973 28.8129 29.9023 29.2765 29.9023 29.7793V33.4232C29.9023 33.9342 30.1993 34.3905 30.6629 34.5976L30.6634 34.5979L35.5579 36.7783C35.725 37.246 35.9176 37.7086 36.1326 38.1633L34.2148 43.1635C34.2145 43.1644 34.2141 43.1653 34.2137 43.1663C34.0255 43.645 34.1472 44.1796 34.5011 44.5336L34.8547 44.1801L34.5011 44.5336L37.0772 47.1097C37.4375 47.4699 37.9717 47.5745 38.4389 47.3993L38.4424 47.3979L43.4465 45.4786C43.8977 45.6937 44.3596 45.8861 44.8265 46.053L47.007 50.9474L47.0072 50.9479C47.2152 51.4136 47.6789 51.7085 48.1816 51.7085H51.8255Z" fill="#00CCF5" stroke="#00CCF5"/>
<path d="M41.7773 31.5952C41.7773 36.137 45.4704 39.8235 50.0056 39.8235C54.5411 39.8235 58.2339 36.1307 58.2339 31.5952C58.2339 27.06 54.5474 23.3669 50.0056 23.3669C45.4641 23.3669 41.7773 27.0537 41.7773 31.5952ZM44.3459 31.5952C44.3459 28.4748 46.8852 25.9355 50.0056 25.9355C53.1261 25.9355 55.6653 28.4748 55.6653 31.5952C55.6653 34.7157 53.1261 37.2549 50.0056 37.2549C46.8852 37.2549 44.3459 34.7157 44.3459 31.5952Z" fill="#00CCF5" stroke="#00CCF5"/>
<path d="M44.525 71.7234C43.1083 73.2187 41.0661 75.1779 38.7233 76.8208C36.167 78.6135 33.1883 80.0758 30.2381 80.0758C24.3632 80.0758 19.9345 75.4476 19.9345 69.7721C19.9345 64.0904 24.5564 59.4685 30.2381 59.4685C33.4185 59.4685 36.6384 61.1708 39.33 63.1614C42.0332 65.1605 44.2792 67.5074 45.5283 68.9175C45.5355 68.9255 45.5416 68.9326 45.5465 68.9386C45.555 68.949 45.5618 68.9581 45.5666 68.9647C45.5681 68.9666 45.5694 68.9685 45.5707 68.9703L50.979 75.5168L51.0182 75.5644C52.842 77.524 55.5495 80.1091 58.7849 82.2107C62.0622 84.3395 65.8429 85.9474 69.7724 85.9474C78.6906 85.9474 85.9476 78.6903 85.9476 69.7721C85.9476 60.854 78.6906 53.5969 69.7724 53.5969C66.001 53.5969 62.3658 55.0803 59.18 57.0848C56.1662 58.9813 53.5856 61.3247 51.7154 63.2516L55.4855 67.8149C56.9023 66.3195 58.9445 64.3603 61.2872 62.7174C63.8436 60.9247 66.8222 59.4625 69.7724 59.4625C75.6474 59.4625 80.076 64.0906 80.076 69.7661C80.076 75.4478 75.4541 80.0697 69.7724 80.0697C66.5921 80.0697 63.3721 78.3674 60.6805 76.3768C57.978 74.3783 55.7325 72.0321 54.4832 70.6218M44.525 71.7234L54.4785 70.6164C54.48 70.6182 54.4816 70.62 54.4832 70.6218M44.525 71.7234L48.2951 76.2866C46.4249 78.2135 43.8444 80.5569 40.8305 82.4534C37.6447 84.458 34.0095 85.9413 30.2381 85.9413C21.32 85.9413 14.0629 78.6842 14.0629 69.7661C14.0629 60.8479 21.32 53.5909 30.2381 53.5909C34.1676 53.5909 37.9483 55.1988 41.2256 57.3276C44.4934 59.4502 47.2227 62.066 49.0468 64.0325L54.4132 70.5283M44.525 71.7234L54.4132 70.5283M54.4832 70.6218C54.4801 70.6184 54.4762 70.614 54.4717 70.6089C54.467 70.6036 54.4618 70.5974 54.4563 70.5905C54.4476 70.5796 54.4308 70.5579 54.4132 70.5283M54.4832 70.6218L54.4132 70.5283M45.5828 68.988L45.5824 68.9873C45.5832 68.9886 45.5838 68.9895 45.5828 68.988ZM50.0022 61.3294C45.2669 56.4632 38.2092 51.0283 30.2321 51.0283C19.8929 51.0283 11.4883 59.4329 11.4883 69.7721C11.4883 80.1114 19.899 88.5159 30.2321 88.5159C38.2032 88.5159 45.2666 83.0811 50.0022 78.2148C54.7375 83.0811 61.7953 88.5159 69.7724 88.5159C80.1116 88.5159 88.5162 80.1113 88.5162 69.7721C88.5162 59.4328 80.1055 51.0283 69.7724 51.0283C61.7953 51.0283 54.7375 56.4632 50.0022 61.3294ZM69.7664 77.5072C67.359 77.5072 64.7189 76.1501 62.3476 74.4159C60.1987 72.8444 58.3381 71.0139 57.1709 69.7725C58.3384 68.5331 60.1989 66.7027 62.3477 65.1306C64.7191 63.3956 67.3591 62.0371 69.7664 62.0371C74.027 62.0371 77.5014 65.5114 77.5014 69.7721C77.5014 74.033 74.0328 77.5072 69.7664 77.5072ZM22.491 69.7721C22.491 65.5112 25.9596 62.0371 30.2261 62.0371C32.6334 62.0371 35.2736 63.3942 37.6449 65.1284C39.7938 66.6999 41.6543 68.5304 42.8216 69.7718C41.654 71.0112 39.7935 72.8416 37.6448 74.4137C35.2734 76.1487 32.6333 77.5072 30.2261 77.5072C25.9654 77.5072 22.491 74.0328 22.491 69.7721Z" fill="black" stroke="black"/>
</svg>
