<svg width="100" height="100" viewBox="0 0 100 100" fill="none" xmlns="http://www.w3.org/2000/svg">
<path d="M45 75.6C45 77.64 43.5333 79 41.3333 79H37.6667C35.4667 79 34 77.64 34 75.6V65.4C34 63.36 35.4667 62 37.6667 62H41.3333C43.5333 62 45 63.36 45 65.4V75.6Z" stroke="#00CCF5" stroke-width="3" stroke-miterlimit="10" stroke-linecap="round" stroke-linejoin="round"/>
<path d="M66 75.4444C66 77.5778 64.5333 79 62.3333 79H58.6667C56.4667 79 55 77.5778 55 75.4444V50.5556C55 48.4222 56.4667 47 58.6667 47H62.3333C64.5333 47 66 48.4222 66 50.5556V75.4444Z" stroke="#00CCF5" stroke-width="3" stroke-miterlimit="10" stroke-linecap="round" stroke-linejoin="round"/>
<path d="M27 90H73" stroke="#00CCF5" stroke-width="3" stroke-miterlimit="10" stroke-linecap="round" stroke-linejoin="round"/>
<path d="M80.4423 62C86.1063 59.131 90 53.0345 90 46.2207C90 36.5379 82.2123 28.6483 72.6549 28.6483C69.115 28.6483 65.5751 29.7241 62.7435 31.8759C60.2656 19.3241 49.6459 10 36.5487 10C22.0354 10 10 22.1931 10 36.8966C10 46.9379 15.3097 55.5448 23.0973 60.2069" stroke="black" stroke-width="3" stroke-miterlimit="10" stroke-linecap="round" stroke-linejoin="round"/>
</svg>
