<svg width="80" height="81" viewBox="0 0 80 81" fill="none" xmlns="http://www.w3.org/2000/svg">
<g id="762494d3-92f9-439c-8add-fa91f740acc2_smart-yield-shadow.svg">
<g id="Mask group">
<mask id="mask0_1759_30370" style="mask-type:alpha" maskUnits="userSpaceOnUse" x="9" y="7" width="62" height="67">
<g id="Group">
<path id="Vector" fill-rule="evenodd" clip-rule="evenodd" d="M39.9997 7.43823C38.9539 7.43823 37.9081 7.70078 36.971 8.22588L12.7402 21.8065C10.8661 22.8567 9.71143 24.7985 9.71143 26.8992V54.0604C9.71143 56.1612 10.8661 58.1026 12.7402 59.1531L36.971 72.7334C38.845 73.784 41.1543 73.784 43.0285 72.7334L67.2589 59.1531C69.1329 58.1026 70.2876 56.1612 70.2876 54.0604V26.8992C70.2876 24.7985 69.1329 22.8567 67.2589 21.8065L43.0285 8.22588C42.0914 7.70078 41.0455 7.43823 39.9997 7.43823Z" fill="url(#paint0_linear_1759_30370)"/>
</g>
</mask>
<g mask="url(#mask0_1759_30370)">
<g id="Group_2">
<g id="Group_3" filter="url(#filter0_ii_1759_30370)">
<path id="Vector_2" fill-rule="evenodd" clip-rule="evenodd" d="M39.9997 7.43823C38.9539 7.43823 37.9081 7.70078 36.971 8.22588L12.7402 21.8065C10.8661 22.8567 9.71143 24.7985 9.71143 26.8992V54.0604C9.71143 56.1612 10.8661 58.1026 12.7402 59.1531L36.971 72.7334C38.845 73.784 41.1543 73.784 43.0285 72.7334L67.2589 59.1531C69.1329 58.1026 70.2876 56.1612 70.2876 54.0604V26.8992C70.2876 24.7985 69.1329 22.8567 67.2589 21.8065L43.0285 8.22588C42.0914 7.70078 41.0455 7.43823 39.9997 7.43823Z" fill="url(#paint1_linear_1759_30370)"/>
</g>
<g id="Group_4" style="mix-blend-mode:multiply">
<path id="Vector_3" d="M9.68094 79.8664L39.9999 60.1133L39.4731 58.7965V57.3479V56.0311V45.496L34.2056 43.6524L30.9135 41.0187L28.4114 36.8047L27.753 32.8541L28.4114 29.2985L29.8599 26.2697L32.6254 22.7141L-2.93018 42.8623V79.8664H9.68094Z" fill="url(#paint2_linear_1759_30370)" fill-opacity="0.5"/>
</g>
</g>
</g>
</g>
<path id="Vector_4" d="M24.2793 46.0203L39.9996 55.4524C37.0108 56.3946 33.1797 56.0538 30.2462 54.3964C27.308 52.7363 24.937 49.0299 24.2793 46.0203Z" fill="white" fill-opacity="0.3"/>
<path id="Vector_5" d="M55.7203 46.0203L40 54.9284C43.3873 56.0357 47.7292 55.6239 51.0538 53.6761C54.3837 51.7252 54.9749 49.5573 55.7203 46.0203Z" fill="white" fill-opacity="0.3"/>
<path id="Vector_6" d="M40 42.3521C45.2092 42.3521 49.4322 38.1292 49.4322 32.9199C49.4322 27.7107 45.2092 23.4878 40 23.4878C34.7908 23.4878 30.5679 27.7107 30.5679 32.9199C30.5679 38.1292 34.7908 42.3521 40 42.3521Z" fill="white" fill-opacity="0.3"/>
<path id="Vector_7" fill-rule="evenodd" clip-rule="evenodd" d="M40 44.4479C46.3669 44.4479 51.5282 39.2865 51.5282 32.9197C51.5282 26.5529 46.3669 21.3915 40 21.3915C33.6332 21.3915 28.4718 26.5529 28.4718 32.9197C28.4718 39.2865 33.6332 44.4479 40 44.4479ZM40 45.4959C46.9457 45.4959 52.5762 39.8654 52.5762 32.9197C52.5762 25.974 46.9457 20.3435 40 20.3435C33.0544 20.3435 27.4238 25.974 27.4238 32.9197C27.4238 39.8654 33.0544 45.4959 40 45.4959Z" fill="white"/>
<path id="Vector_8" fill-rule="evenodd" clip-rule="evenodd" d="M55.1027 46.4206C54.3702 49.4697 52.7444 52.3006 49.891 53.9486C47.0187 55.6077 43.6148 55.815 40.6212 54.9552C41.3817 51.9882 43.4003 49.3993 46.2995 47.7247C49.2021 46.0482 52.1841 45.597 55.1027 46.4206ZM55.8839 45.5635C52.5049 44.454 49.0557 44.9225 45.7754 46.8173C42.4913 48.714 40.2155 51.7269 39.4873 55.2049C39.4326 55.4662 39.5831 55.7269 39.8367 55.8101C43.1782 56.9073 47.1012 56.7702 50.4153 54.8562C53.7506 52.9298 55.5186 49.5825 56.2333 46.1688L56.3294 45.7098L55.8839 45.5635Z" fill="white"/>
<path id="Vector_9" fill-rule="evenodd" clip-rule="evenodd" d="M24.8976 46.4206C25.63 49.4697 27.2559 52.3006 30.1092 53.9486C32.9815 55.6077 36.3856 55.815 39.3791 54.9552C38.6186 51.9882 36.6001 49.3993 33.7008 47.7247C30.7981 46.0482 27.8163 45.597 24.8976 46.4206ZM24.1164 45.5635C27.4953 44.454 30.9446 44.9225 34.225 46.8173C37.509 48.714 39.7849 51.7269 40.513 55.2049C40.5677 55.4662 40.4173 55.7269 40.1635 55.8101C36.822 56.9073 32.899 56.7702 29.5851 54.8562C26.2498 52.9298 24.4817 49.5825 23.767 46.1688L23.6709 45.7098L24.1164 45.5635Z" fill="white"/>
<path id="Vector_10" fill-rule="evenodd" clip-rule="evenodd" d="M39.4761 59.6441V45.4958H40.5241V59.6441C40.5241 59.9335 40.2894 60.168 40 60.168C39.7106 60.168 39.4761 59.9335 39.4761 59.6441Z" fill="white"/>
<path id="Vector_11" d="M40.4276 39.365H39.3272V37.9973C37.6137 37.793 36.5762 36.6139 36.5762 35.042H37.8338C37.8338 36.2209 38.5412 36.9284 39.8774 36.9284C41.2136 36.9284 41.9211 36.2209 41.9211 35.3563C41.9211 32.9197 36.6548 34.1773 36.6548 30.6403C36.6548 29.4455 37.7237 28.235 39.3272 28.015V26.6316H40.4276V28.015C41.5906 28.2173 42.5096 29.0497 42.8251 30.1282L41.6852 30.9547C41.6852 29.8542 40.8992 29.0682 39.8774 29.0682C38.6984 29.0682 37.9124 29.8542 37.9124 30.6403C37.9124 33.0769 43.1786 31.8192 43.1786 35.3563C43.1786 36.6454 42.1411 37.793 40.4276 37.9973V39.365Z" fill="white"/>
</g>
<defs>
<filter id="filter0_ii_1759_30370" x="8.0818" y="7.43823" width="63.2922" height="66.083" filterUnits="userSpaceOnUse" color-interpolation-filters="sRGB">
<feFlood flood-opacity="0" result="BackgroundImageFix"/>
<feBlend mode="normal" in="SourceGraphic" in2="BackgroundImageFix" result="shape"/>
<feColorMatrix in="SourceAlpha" type="matrix" values="0 0 0 0 0 0 0 0 0 0 0 0 0 0 0 0 0 0 127 0" result="hardAlpha"/>
<feOffset dx="-2.17284"/>
<feGaussianBlur stdDeviation="0.814815"/>
<feComposite in2="hardAlpha" operator="arithmetic" k2="-1" k3="1"/>
<feColorMatrix type="matrix" values="0 0 0 0 1 0 0 0 0 1 0 0 0 0 1 0 0 0 0.6 0"/>
<feBlend mode="normal" in2="shape" result="effect1_innerShadow_1759_30370"/>
<feColorMatrix in="SourceAlpha" type="matrix" values="0 0 0 0 0 0 0 0 0 0 0 0 0 0 0 0 0 0 127 0" result="hardAlpha"/>
<feOffset dx="2.17284"/>
<feGaussianBlur stdDeviation="0.54321"/>
<feComposite in2="hardAlpha" operator="arithmetic" k2="-1" k3="1"/>
<feColorMatrix type="matrix" values="0 0 0 0 0 0 0 0 0 0 0 0 0 0 0 0 0 0 0.2 0"/>
<feBlend mode="normal" in2="effect1_innerShadow_1759_30370" result="effect2_innerShadow_1759_30370"/>
</filter>
<linearGradient id="paint0_linear_1759_30370" x1="42.4225" y1="8.17797" x2="25.6498" y2="70.1701" gradientUnits="userSpaceOnUse">
<stop stop-color="#5F697A"/>
<stop offset="1" stop-color="#191E29"/>
</linearGradient>
<linearGradient id="paint1_linear_1759_30370" x1="9.71143" y1="7.43823" x2="9.71143" y2="73.5213" gradientUnits="userSpaceOnUse">
<stop stop-color="#13E5BF"/>
<stop offset="1" stop-color="#01C38D"/>
</linearGradient>
<linearGradient id="paint2_linear_1759_30370" x1="43.3585" y1="22.3575" x2="32.0998" y2="63.5831" gradientUnits="userSpaceOnUse">
<stop stop-color="#8F96A1" stop-opacity="0.5"/>
<stop offset="1" stop-color="#8F96A1" stop-opacity="0"/>
</linearGradient>
</defs>
</svg>
