<svg width="150" height="54" viewBox="0 0 150 54" fill="none" xmlns="http://www.w3.org/2000/svg">
<g id="aa7e906a-7ddf-4f40-997b-9abecd1e2a1c_app-store-badge-default.svg" clip-path="url(#clip0_1759_27564)">
<path id="Vector" d="M-0.00976562 11.489C-0.00976562 5.96617 4.46738 1.48901 9.99023 1.48901H139.99C145.513 1.48901 149.99 5.96617 149.99 11.489V43.489C149.99 49.0119 145.513 53.489 139.99 53.489H9.99023C4.46738 53.489 -0.00976562 49.0119 -0.00976562 43.489V11.489Z" fill="#EDEFF1"/>
<path id="Vector_2" fill-rule="evenodd" clip-rule="evenodd" d="M39.5578 12.489C39.8001 14.1175 39.132 15.7116 38.2534 16.84C37.3115 18.0489 35.6895 18.9853 34.1219 18.9368C33.8356 17.3782 34.5705 15.7744 35.4607 14.6927C36.4418 13.5016 38.1221 12.5879 39.5578 12.489ZM44.2782 35.4005C45.0884 34.1677 45.3898 33.5451 46.0192 32.1499C41.4473 30.4224 40.7126 23.96 45.237 21.4808C43.8559 19.7581 41.9179 18.7625 40.0888 18.7625C38.7688 18.7625 37.8644 19.1047 37.0424 19.4158C36.3577 19.6748 35.7303 19.9123 34.9675 19.9123C34.1434 19.9123 33.4133 19.6519 32.6486 19.3792C31.8075 19.0792 30.9246 18.7643 29.8284 18.7643C27.7724 18.7643 25.5866 20.0136 24.2006 22.1479C22.2508 25.1508 22.5812 30.7997 25.7431 35.613C26.874 37.334 28.3841 39.2701 30.3588 39.2884C31.1765 39.2958 31.7213 39.053 32.3107 38.7903C32.9863 38.4892 33.7207 38.1619 34.9924 38.155C36.2714 38.1479 36.9934 38.4787 37.6597 38.7841C38.234 39.0472 38.7668 39.2914 39.5792 39.2839C41.5537 39.2659 43.1473 37.1224 44.2782 35.4005Z" fill="#4C4C4C"/>
<path id="Vector_3" fill-rule="evenodd" clip-rule="evenodd" d="M68.3647 30.5394C67.8426 30.5394 67.3708 30.7113 66.9443 31.0576C66.5182 31.4088 66.2402 31.8631 66.1086 32.4258C66.0441 32.6896 66.0103 32.9033 66.0103 33.0746V34.6612C66.0103 35.3557 66.2205 35.9429 66.6483 36.4202C67.0725 36.8931 67.6268 37.1333 68.3056 37.1333C69.1016 37.1333 69.7278 36.8279 70.1715 36.2117C70.6162 35.5966 70.8367 34.7861 70.8367 33.7762C70.8367 32.85 70.6301 32.0839 70.211 31.484C69.7511 30.8591 69.1374 30.5394 68.3647 30.5394ZM107.135 30.4075C106.287 30.4075 105.639 30.7838 105.197 31.5415C104.813 32.165 104.626 32.9262 104.626 33.8263C104.626 34.7037 104.813 35.4518 105.197 36.0767C105.65 36.8329 106.291 37.2092 107.119 37.2092C107.925 37.2092 108.562 36.8279 109.017 36.0532C109.412 35.4205 109.609 34.6612 109.609 33.7899C109.609 32.9175 109.42 32.165 109.043 31.5415C108.592 30.7838 107.96 30.4075 107.135 30.4075ZM78.8427 30.5394C78.3178 30.5394 77.8488 30.7113 77.4218 31.0576C76.9968 31.4088 76.7103 31.8631 76.5787 32.4258C76.5136 32.6896 76.4755 32.9033 76.4755 33.0746V34.6612C76.4755 35.3557 76.6921 35.9429 77.1191 36.4202C77.5432 36.8931 78.1005 37.1333 78.7775 37.1333C79.5795 37.1333 80.2016 36.8279 80.6467 36.2117C81.0924 35.5966 81.3168 34.7861 81.3168 33.7762C81.3168 32.85 81.1064 32.0839 80.6893 31.484C80.2281 30.8591 79.6132 30.5394 78.8427 30.5394ZM56.9488 27.1468H56.9119C56.7787 27.7624 56.5722 28.5818 56.2819 29.6819L55.183 33.1798H58.7328L57.6193 29.6819C57.4989 29.327 57.2741 28.378 56.9488 27.1468ZM123.204 30.3036C122.512 30.3036 121.951 30.658 121.517 31.23C121.164 31.6866 120.953 32.1947 120.889 32.9335H125.303C125.314 32.1947 125.18 31.7082 124.893 31.2478C124.525 30.6617 123.961 30.3036 123.204 30.3036ZM60.3435 38.4739L59.1087 34.6571H54.8112L53.6324 38.4739H51.4375L55.6909 25.3H58.3226L62.6015 38.4739H60.3435ZM71.674 37.5483C70.8864 38.3818 69.903 38.8006 68.7341 38.8006C67.4687 38.8006 66.6259 38.3504 66.0103 37.4443V42.5368H63.9173V32.1828C63.9173 31.1637 63.8689 30.2248 63.8151 28.9936H65.6789L65.796 30.5942H65.8329C66.5429 29.4861 67.6135 28.8748 69.0543 28.8748C70.1789 28.8748 71.1149 29.3073 71.8714 30.1987C72.6209 31.0861 72.9982 32.2552 72.9982 33.7059C72.9982 35.3321 72.558 36.6044 71.674 37.5483ZM82.1493 37.5483C81.3597 38.3818 80.3746 38.8006 79.2026 38.8006C77.9408 38.8006 77.0911 38.3504 76.4755 37.4443V42.5368H74.3825V32.1828C74.3825 31.1637 74.3436 30.2248 74.2926 28.9936H76.1513L76.274 30.5942H76.3104C77.0216 29.4861 78.0901 28.8748 79.5286 28.8748C80.6542 28.8748 81.5926 29.3073 82.3444 30.1987C83.0983 31.0861 83.4735 32.2552 83.4735 33.7059C83.4735 35.3321 83.0331 36.6044 82.1493 37.5483ZM94.391 37.6221C93.5258 38.3949 92.3266 38.779 90.788 38.779C89.3621 38.779 88.2221 38.503 87.3612 37.9564L87.8534 36.191C88.7812 36.7378 89.8005 37.0153 90.9099 37.0153C91.7111 37.0153 92.3308 36.833 92.7759 36.476C93.2182 36.1177 93.4408 35.6374 93.4408 35.0282C93.4408 34.4993 93.2574 34.0477 92.8934 33.6793C92.524 33.3139 91.9205 32.9762 91.0694 32.6593C88.7569 31.7987 87.5983 30.5366 87.5983 28.8758C87.5983 27.7906 88.0024 26.8982 88.8213 26.2059C89.6388 25.5145 90.7209 25.1667 92.0695 25.1667C93.2719 25.1667 94.2734 25.3776 95.0725 25.7932L94.5378 27.5204C93.7925 27.116 92.9453 26.9112 92.0003 26.9112C91.2534 26.9112 90.6677 27.1013 90.2464 27.4588C89.8941 27.7906 89.7172 28.1893 89.7172 28.6585C89.7172 29.1782 89.9202 29.6118 90.3247 29.9568C90.6789 30.2693 91.32 30.6074 92.2453 30.973C93.387 31.4275 94.2211 31.967 94.7593 32.5836C95.294 33.1977 95.5635 33.9619 95.5635 34.8757C95.5635 36.0017 95.1701 36.9197 94.391 37.6221ZM101.838 30.7173H99.6221V35.272C99.6221 36.4483 99.987 37.0315 100.811 37.0315C101.19 37.0315 101.476 37.0037 101.727 36.9391L101.775 38.5439C101.356 38.7009 100.801 38.7804 100.121 38.7804C99.2882 38.7804 98.6072 38.5288 98.1377 38.015C97.6626 37.5074 97.4059 36.6495 97.4059 35.4462V30.7173H96.0516V28.9936H97.4059V27.3049L99.6221 26.6769V28.9936H101.838V30.7173ZM110.552 37.352C109.674 38.3174 108.51 38.8006 107.061 38.8006C105.659 38.8006 104.541 38.3367 103.711 37.4076C102.882 36.4818 102.468 35.3066 102.468 33.8958C102.468 32.4194 102.896 31.2079 103.752 30.2678C104.61 29.3224 105.761 28.8578 107.212 28.8578C108.617 28.8578 109.741 29.3173 110.591 30.2504C111.4 31.1477 111.805 32.3155 111.805 33.7395C111.805 35.2088 111.39 36.4074 110.552 37.352ZM118.213 30.9128C118.09 30.8748 117.763 30.8591 117.53 30.8591C116.784 30.8591 116.202 31.1399 115.796 31.7013C115.442 32.1993 115.258 32.8178 115.258 33.5828V38.4739H113.165V32.0487C113.165 30.9565 113.12 29.9786 113.082 28.9936H114.926L115.005 30.9635H115.063C115.284 30.3479 115.635 29.7881 116.122 29.4117C116.593 29.068 117.122 28.8809 117.671 28.8809C117.865 28.8809 118.09 28.8688 118.213 28.8945V30.9128ZM127.247 34.4109H120.889C120.914 35.2727 121.222 36.0285 121.812 36.5243C122.347 36.97 123.039 37.1733 123.891 37.1733C124.834 37.1733 125.688 37.0138 126.461 36.7083L126.794 38.1767C125.895 38.5724 124.827 38.7614 123.595 38.7614C122.12 38.7614 120.959 38.3278 120.115 37.4585C119.272 36.5893 118.847 35.4212 118.847 33.9573C118.847 32.5161 119.241 31.3217 120.024 30.3627C120.852 29.3442 121.963 28.835 123.36 28.835C124.738 28.835 125.777 29.344 126.48 30.3625C127.041 31.1758 127.324 32.2175 127.324 33.408C127.324 33.7842 127.297 34.1647 127.247 34.4109Z" fill="#4C4C4C"/>
<path id="Vector_4" fill-rule="evenodd" clip-rule="evenodd" d="M54.0167 21.1177C54.1809 21.1467 54.4322 21.1467 54.6739 21.1467C56.22 21.1563 57.1382 20.3059 57.1382 18.6534C57.1479 17.2135 56.3167 16.3921 54.8285 16.3921C54.4516 16.3921 54.1809 16.4211 54.0167 16.4597V21.1177ZM52.8281 15.5996C53.3499 15.5127 54.0167 15.4644 54.7222 15.4644C55.9398 15.4644 56.7806 15.7156 57.3797 16.2182C58.0079 16.7304 58.3945 17.5034 58.3945 18.6147C58.3945 19.7744 57.9983 20.6442 57.3797 21.2047C56.7322 21.7942 55.6983 22.0937 54.4322 22.0937C53.7365 22.0937 53.2146 22.0551 52.8281 22.0068V15.5996Z" fill="#4C4C4C"/>
<path id="Vector_5" fill-rule="evenodd" clip-rule="evenodd" d="M60.3094 19.6779C60.3094 20.5863 60.7538 21.2725 61.4786 21.2725C62.1552 21.2725 62.6287 20.6056 62.6287 19.6586C62.6287 18.9241 62.3001 18.0834 61.4884 18.0834C60.6476 18.0834 60.3094 18.8951 60.3094 19.6779ZM63.856 19.6295C63.856 21.3594 62.6383 22.1326 61.44 22.1326C60.1065 22.1326 59.082 21.2145 59.082 19.7069C59.082 18.1607 60.0968 17.2136 61.5173 17.2136C62.9185 17.2136 63.856 18.1994 63.856 19.6295Z" fill="#4C4C4C"/>
<path id="Vector_6" fill-rule="evenodd" clip-rule="evenodd" d="M65.4697 17.3198L65.9624 19.4555C66.0688 19.9581 66.1751 20.4702 66.262 20.9824H66.2813C66.378 20.4702 66.5326 19.9485 66.6679 19.4652L67.2767 17.3198H68.2431L68.8326 19.4072C68.9775 19.9581 69.1032 20.4702 69.2095 20.9824H69.2289C69.3062 20.4702 69.4124 19.9581 69.5381 19.4072L70.06 17.3198H71.2293L69.7506 22.0261H68.649L68.0885 20.1127C67.9436 19.6199 67.8372 19.1753 67.7309 18.6051H67.7116C67.6149 19.185 67.4894 19.6489 67.354 20.1127L66.7549 22.0261H65.6435L64.252 17.3198H65.4697Z" fill="#4C4C4C"/>
<path id="Vector_7" fill-rule="evenodd" clip-rule="evenodd" d="M71.9937 18.7212C71.9937 18.18 71.9841 17.7258 71.9551 17.32H72.9987L73.0567 18.0255H73.0858C73.2887 17.6582 73.8008 17.2136 74.5836 17.2136C75.4051 17.2136 76.2555 17.7451 76.2555 19.2334V22.0263H75.0668V19.3687C75.0668 18.6922 74.8156 18.18 74.1681 18.18C73.6945 18.18 73.366 18.5183 73.2403 18.8759C73.2017 18.9821 73.192 19.127 73.192 19.2625V22.0263H71.9937V18.7212Z" fill="#4C4C4C"/>
<path id="Vector_8" fill-rule="evenodd" clip-rule="evenodd" d="M77.5215 22.0263H78.7198V15.165H77.5215V22.0263Z" fill="#4C4C4C"/>
<path id="Vector_9" fill-rule="evenodd" clip-rule="evenodd" d="M80.9325 19.6779C80.9325 20.5863 81.377 21.2725 82.1018 21.2725C82.7783 21.2725 83.2519 20.6056 83.2519 19.6586C83.2519 18.9241 82.9233 18.0834 82.1115 18.0834C81.2707 18.0834 80.9325 18.8951 80.9325 19.6779ZM84.4791 19.6295C84.4791 21.3594 83.2615 22.1326 82.0631 22.1326C80.7296 22.1326 79.7051 21.2145 79.7051 19.7069C79.7051 18.1607 80.7199 17.2136 82.1405 17.2136C83.5417 17.2136 84.4791 18.1994 84.4791 19.6295Z" fill="#4C4C4C"/>
<path id="Vector_10" fill-rule="evenodd" clip-rule="evenodd" d="M87.9488 19.7263C87.108 19.7069 86.3059 19.8905 86.3059 20.6057C86.3059 21.0695 86.6056 21.2821 86.9824 21.2821C87.456 21.2821 87.8038 20.9728 87.91 20.6346C87.939 20.5476 87.9488 20.4511 87.9488 20.3737V19.7263ZM88.1033 22.0263L88.026 21.5044H87.9971C87.7071 21.8716 87.2144 22.1325 86.6056 22.1325C85.6584 22.1325 85.127 21.4464 85.127 20.7313C85.127 19.5426 86.1803 18.9435 87.9199 18.9532V18.8759C87.9199 18.5666 87.7942 18.0544 86.9631 18.0544C86.4992 18.0544 86.0161 18.1993 85.6971 18.4023L85.4651 17.6292C85.8129 17.4165 86.4218 17.2136 87.1659 17.2136C88.6735 17.2136 89.1085 18.1704 89.1085 19.1947V20.8955C89.1085 21.3208 89.1277 21.7363 89.176 22.0263H88.1033Z" fill="#4C4C4C"/>
<path id="Vector_11" fill-rule="evenodd" clip-rule="evenodd" d="M93.5165 19.2817C93.5165 19.1851 93.5068 19.0691 93.4876 18.9725C93.3812 18.5087 93.0043 18.1318 92.4631 18.1318C91.6997 18.1318 91.2745 18.8082 91.2745 19.6875C91.2745 20.5477 91.6997 21.1758 92.4535 21.1758C92.9367 21.1758 93.3618 20.8472 93.4778 20.3352C93.5068 20.2288 93.5165 20.1128 93.5165 19.9872V19.2817ZM94.7051 15.165V20.7023C94.7051 21.1855 94.7245 21.7073 94.7438 22.0263H93.6807L93.6325 21.2822H93.6131C93.3329 21.804 92.7626 22.1326 92.0766 22.1326C90.9556 22.1326 90.0665 21.1758 90.0665 19.7263C90.0568 18.151 91.0425 17.2137 92.1732 17.2137C92.8207 17.2137 93.2845 17.4843 93.4972 17.8321H93.5165V15.165H94.7051Z" fill="#4C4C4C"/>
<path id="Vector_12" fill-rule="evenodd" clip-rule="evenodd" d="M98.9089 19.6779C98.9089 20.5863 99.3535 21.2725 100.078 21.2725C100.754 21.2725 101.228 20.6056 101.228 19.6586C101.228 18.9241 100.899 18.0834 100.088 18.0834C99.2472 18.0834 98.9089 18.8951 98.9089 19.6779ZM102.455 19.6295C102.455 21.3594 101.238 22.1326 100.039 22.1326C98.706 22.1326 97.6816 21.2145 97.6816 19.7069C97.6816 18.1607 98.6962 17.2136 100.117 17.2136C101.518 17.2136 102.455 18.1994 102.455 19.6295Z" fill="#4C4C4C"/>
<path id="Vector_13" fill-rule="evenodd" clip-rule="evenodd" d="M103.432 18.7212C103.432 18.18 103.422 17.7258 103.393 17.32H104.437L104.495 18.0255H104.524C104.727 17.6582 105.239 17.2136 106.022 17.2136C106.843 17.2136 107.694 17.7451 107.694 19.2334V22.0263H106.505V19.3687C106.505 18.6922 106.254 18.18 105.606 18.18C105.133 18.18 104.804 18.5183 104.679 18.8759C104.64 18.9821 104.63 19.127 104.63 19.2625V22.0263H103.432V18.7212Z" fill="#4C4C4C"/>
<path id="Vector_14" fill-rule="evenodd" clip-rule="evenodd" d="M112.322 15.9766V17.32H113.453V18.209H112.322V20.2867C112.322 20.8569 112.477 21.1564 112.931 21.1564C113.134 21.1564 113.289 21.1275 113.395 21.0985L113.414 22.0069C113.24 22.0745 112.931 22.1229 112.554 22.1229C112.119 22.1229 111.752 21.9779 111.53 21.7363C111.278 21.4657 111.163 21.0406 111.163 20.422V18.209H110.486V17.32H111.163V16.2568L112.322 15.9766Z" fill="#4C4C4C"/>
<path id="Vector_15" fill-rule="evenodd" clip-rule="evenodd" d="M114.352 15.1648H115.551V17.9673H115.57C115.715 17.745 115.908 17.5615 116.159 17.4262C116.391 17.2909 116.672 17.2135 116.971 17.2135C117.773 17.2135 118.614 17.745 118.614 19.2527V22.0262H117.425V19.3878C117.425 18.7018 117.174 18.1895 116.517 18.1895C116.053 18.1895 115.725 18.4988 115.599 18.8563C115.56 18.9531 115.551 19.0787 115.551 19.214V22.0262H114.352V15.1648Z" fill="#4C4C4C"/>
<path id="Vector_16" fill-rule="evenodd" clip-rule="evenodd" d="M122.789 19.1754C122.799 18.7406 122.606 18.0255 121.813 18.0255C121.079 18.0255 120.769 18.6922 120.721 19.1754H122.789ZM120.721 20.0065C120.75 20.8569 121.417 21.2241 122.171 21.2241C122.722 21.2241 123.118 21.1468 123.475 21.0115L123.649 21.833C123.243 21.9972 122.683 22.1229 122.006 22.1229C120.48 22.1229 119.581 21.1855 119.581 19.7456C119.581 18.441 120.373 17.2136 121.881 17.2136C123.408 17.2136 123.91 18.4699 123.91 19.5039C123.91 19.7263 123.891 19.9002 123.872 20.0065H120.721Z" fill="#4C4C4C"/>
</g>
<defs>
<clipPath id="clip0_1759_27564">
<rect width="150" height="53" fill="white" transform="translate(-0.00976562 0.604736)"/>
</clipPath>
</defs>
</svg>
