<svg width="150" height="54" viewBox="0 0 150 54" fill="none" xmlns="http://www.w3.org/2000/svg">
<g id="3778247d-dcdf-4819-bdcc-e3512a275a05_google-play-badge-default.svg" clip-path="url(#clip0_1759_27586)">
<path id="Vector" d="M-0.00976562 11.489C-0.00976562 5.96617 4.46738 1.48901 9.99023 1.48901H139.99C145.513 1.48901 149.99 5.96617 149.99 11.489V43.489C149.99 49.0119 145.513 53.489 139.99 53.489H9.99023C4.46738 53.489 -0.00976562 49.0119 -0.00976562 43.489V11.489Z" fill="#EDEFF1"/>
<path id="Vector_2" fill-rule="evenodd" clip-rule="evenodd" d="M17.529 12.5344C17.226 12.6406 16.9902 12.9236 16.9902 13.2896V39.6627C16.9902 40.0257 17.222 40.307 17.5214 40.4152L31.5316 26.4711L17.529 12.5344Z" fill="#00D6FF"/>
<path id="Vector_3" fill-rule="evenodd" clip-rule="evenodd" d="M35.4788 22.5429L18.1901 12.5959C17.9736 12.4713 17.7359 12.4623 17.5293 12.5346L31.5319 26.4713L35.4788 22.5429Z" fill="#00F076"/>
<path id="Vector_4" fill-rule="evenodd" clip-rule="evenodd" d="M18.19 40.357L35.4853 30.4064L31.5318 26.4714L17.5215 40.4156C17.73 40.491 17.971 40.4831 18.19 40.357Z" fill="#FF3A44"/>
<path id="Vector_5" fill-rule="evenodd" clip-rule="evenodd" d="M35.4848 30.406L41.1089 27.1701C41.644 26.8622 41.644 26.0901 41.1089 25.7823L35.4783 22.5427L31.5312 26.4711L35.4848 30.406Z" fill="#FFD000"/>
<path id="Vector_6" fill-rule="evenodd" clip-rule="evenodd" d="M112.582 38.0058H114.556V25.0204H112.582V38.0058ZM130.035 29.695L127.853 35.3047H127.749L125.464 29.695H123.386L126.814 37.5902L124.84 41.9534H126.814L132.112 29.695H130.035ZM119.127 36.5513C118.503 36.5513 117.568 36.2397 117.568 35.4086C117.568 34.3699 118.711 34.0581 119.646 34.0581C120.477 34.0581 120.893 34.2659 121.412 34.4737C121.204 35.7202 120.166 36.5513 119.127 36.5513ZM119.334 29.3833C117.88 29.3833 116.426 30.0067 115.906 31.3571L117.672 32.0844C118.088 31.3571 118.711 31.1494 119.438 31.1494C120.477 31.1494 121.412 31.7726 121.516 32.8115V32.9155C121.204 32.7076 120.373 32.396 119.542 32.396C117.672 32.396 115.802 33.4349 115.802 35.3047C115.802 37.0708 117.361 38.2136 119.023 38.2136C120.373 38.2136 120.997 37.5902 121.516 36.9668H121.62V38.0058H123.49V33.0192C123.282 30.7339 121.516 29.3833 119.334 29.3833ZM107.388 31.2533H104.583V26.7863H107.388C108.842 26.7863 109.673 28.0329 109.673 28.9678C109.569 30.1105 108.738 31.2533 107.388 31.2533ZM107.284 25.0202H102.609V38.0058H104.583V33.1233H107.284C109.465 33.1233 111.543 31.5649 111.543 29.0717C111.543 26.5786 109.465 25.0202 107.284 25.0202ZM81.9365 36.5513C80.586 36.5513 79.4433 35.4086 79.4433 33.8504C79.4433 32.2921 80.586 31.1494 81.9365 31.1494C83.287 31.1494 84.3259 32.2921 84.3259 33.8504C84.3259 35.4086 83.287 36.5513 81.9365 36.5513ZM84.222 30.4222C83.7025 29.9028 82.8715 29.3833 81.8326 29.3833C79.651 29.3833 77.5733 31.3571 77.5733 33.8504C77.5733 36.3436 79.5472 38.2136 81.8326 38.2136C82.8715 38.2136 83.7025 37.6941 84.118 37.1747H84.222V37.7979C84.222 39.4602 83.287 40.395 81.8326 40.395C80.6899 40.395 79.8588 39.564 79.651 38.8368L77.9889 39.564C78.5083 40.7068 79.7549 42.1611 81.9365 42.1611C84.222 42.1611 86.0918 40.8107 86.0918 37.5902V29.695H84.222V30.4222ZM87.3384 38.0058H89.3122V25.0204H87.3384V38.0058ZM92.221 33.7465C92.221 32.0844 93.5715 31.1494 94.5065 31.1494C95.2337 31.1494 95.9608 31.5649 96.1686 32.0844L92.221 33.7465ZM98.2463 32.2921C97.8308 31.2533 96.7918 29.4873 94.5065 29.4873C92.221 29.4873 90.3512 31.2533 90.3512 33.9542C90.3512 36.4475 92.221 38.4213 94.7142 38.4213C96.6881 38.4213 97.9346 37.1747 98.3502 36.4475L96.8958 35.4086C96.3763 36.1358 95.7531 36.6552 94.7142 36.6552C93.6754 36.6552 93.0521 36.2397 92.5326 35.3047L98.4541 32.8115L98.2463 32.2921ZM51.083 30.8378V32.7076H55.55C55.4461 33.7465 55.0306 34.5776 54.5111 35.097C53.8877 35.7202 52.849 36.4475 51.083 36.4475C48.2781 36.4475 46.2005 34.2659 46.2005 31.461C46.2005 28.6562 48.3819 26.4746 51.083 26.4746C52.5374 26.4746 53.68 27.098 54.5111 27.8251L55.8616 26.4746C54.7189 25.4357 53.2645 24.6047 51.1868 24.6047C47.4471 24.6047 44.2266 27.7212 44.2266 31.461C44.2266 35.2008 47.4471 38.3174 51.1868 38.3174C53.2645 38.3174 54.7189 37.6941 55.9655 36.3436C57.2121 35.097 57.6277 33.331 57.6277 31.9805C57.6277 31.5649 57.6277 31.1494 57.5237 30.8378H51.083ZM62.6141 36.5513C61.2635 36.5513 60.1209 35.4086 60.1209 33.8504C60.1209 32.2921 61.2635 31.1494 62.6141 31.1494C63.9646 31.1494 65.1072 32.1883 65.1072 33.8504C65.1072 35.4086 63.9646 36.5513 62.6141 36.5513ZM62.6141 29.4873C60.1209 29.4873 58.1471 31.3571 58.1471 33.9542C58.1471 36.4475 60.1209 38.4213 62.6141 38.4213C65.1072 38.4213 67.0811 36.5513 67.0811 33.9542C67.0811 31.2533 65.1072 29.4873 62.6141 29.4873ZM72.2753 36.5513C70.9248 36.5513 69.782 35.4086 69.782 33.8504C69.782 32.2921 70.9248 31.1494 72.2753 31.1494C73.6257 31.1494 74.7685 32.1883 74.7685 33.8504C74.7685 35.4086 73.6257 36.5513 72.2753 36.5513ZM72.2753 29.4873C69.782 29.4873 67.8082 31.3571 67.8082 33.9542C67.8082 36.4475 69.782 38.4213 72.2753 38.4213C74.7685 38.4213 76.7423 36.5513 76.7423 33.9542C76.7423 31.2533 74.7685 29.4873 72.2753 29.4873Z" fill="#4C4C4C"/>
<path id="Vector_7" fill-rule="evenodd" clip-rule="evenodd" d="M47.8496 17.3069H51.0863C51.1047 17.3808 51.1199 17.4699 51.1324 17.5744C51.1445 17.6789 51.1508 17.7835 51.1508 17.8879C51.1508 18.3122 51.0863 18.7118 50.9571 19.0866C50.8281 19.4617 50.6251 19.7967 50.3485 20.0917C50.0535 20.4053 49.6999 20.6483 49.2881 20.8203C48.8762 20.9922 48.4059 21.0784 47.8772 21.0784C47.3978 21.0784 46.9458 20.9922 46.5217 20.8203C46.0976 20.6483 45.7286 20.4085 45.4151 20.101C45.1015 19.7936 44.8527 19.4294 44.6682 19.0083C44.4837 18.5872 44.3916 18.1277 44.3916 17.6297C44.3916 17.1318 44.4837 16.6723 44.6682 16.2512C44.8527 15.8301 45.1015 15.4658 45.4151 15.1583C45.7286 14.8511 46.0976 14.6113 46.5217 14.4392C46.9458 14.2671 47.3978 14.1809 47.8772 14.1809C48.412 14.1809 48.89 14.2731 49.3111 14.4576C49.7322 14.642 50.0934 14.8971 50.3947 15.223L49.5371 16.0621C49.3217 15.8348 49.0821 15.6609 48.8178 15.5411C48.5534 15.4211 48.2369 15.3613 47.8681 15.3613C47.5668 15.3613 47.2809 15.4152 47.0103 15.5226C46.7398 15.6302 46.5032 15.7824 46.3004 15.9791C46.0976 16.1759 45.9361 16.4141 45.8163 16.6937C45.6964 16.9735 45.6364 17.2855 45.6364 17.6297C45.6364 17.9741 45.6964 18.286 45.8163 18.5657C45.9361 18.8455 46.0989 19.0836 46.305 19.2803C46.5109 19.4771 46.7491 19.6293 47.0196 19.7369C47.29 19.8444 47.5789 19.8982 47.8864 19.8982C48.2369 19.8982 48.5335 19.8475 48.7763 19.746C49.019 19.6446 49.2267 19.5141 49.3988 19.3541C49.5216 19.2434 49.6276 19.1036 49.7169 18.9345C49.8059 18.7656 49.875 18.5764 49.9244 18.3674H47.8496V17.3069Z" fill="#4C4C4C"/>
<path id="Vector_8" fill-rule="evenodd" clip-rule="evenodd" d="M53.4284 15.5087V17.0394H56.0749V18.2198H53.4284V19.7506H56.37V20.9309H52.1836V14.3284H56.37V15.5087H53.4284Z" fill="#4C4C4C"/>
<path id="Vector_9" fill-rule="evenodd" clip-rule="evenodd" d="M58.9146 20.9309V15.5087H57.0703V14.3284H62.0038V15.5087H60.1595V20.9309H58.9146Z" fill="#4C4C4C"/>
<path id="Vector_10" fill-rule="evenodd" clip-rule="evenodd" d="M64.918 20.9309H66.1629V14.3284H64.918V20.9309Z" fill="#4C4C4C"/>
<path id="Vector_11" fill-rule="evenodd" clip-rule="evenodd" d="M68.8922 20.9309V15.5087H67.0479V14.3284H71.9813V15.5087H70.137V20.9309H68.8922Z" fill="#4C4C4C"/>
<path id="Vector_12" fill-rule="evenodd" clip-rule="evenodd" d="M77.8365 19.8982C78.1438 19.8982 78.4313 19.8429 78.6986 19.7322C78.9661 19.6215 79.1997 19.4679 79.3995 19.2711C79.5991 19.0744 79.7559 18.8363 79.8698 18.5565C79.9835 18.2768 80.0404 17.9678 80.0404 17.6297C80.0404 17.2916 79.9835 16.9828 79.8698 16.703C79.7559 16.4233 79.5991 16.1852 79.3995 15.9884C79.1997 15.7917 78.9661 15.6379 78.6986 15.5273C78.4313 15.4166 78.1438 15.3613 77.8365 15.3613C77.529 15.3613 77.2417 15.4166 76.9742 15.5273C76.7068 15.6379 76.4732 15.7917 76.2735 15.9884C76.0736 16.1852 75.9169 16.4233 75.8032 16.703C75.6893 16.9828 75.6325 17.2916 75.6325 17.6297C75.6325 17.9678 75.6893 18.2768 75.8032 18.5565C75.9169 18.8363 76.0736 19.0744 76.2735 19.2711C76.4732 19.4679 76.7068 19.6215 76.9742 19.7322C77.2417 19.8429 77.529 19.8982 77.8365 19.8982ZM77.8365 21.0786C77.3445 21.0786 76.8882 20.9893 76.4671 20.8111C76.0459 20.6329 75.6817 20.3886 75.3744 20.078C75.0669 19.7676 74.8258 19.4018 74.6505 18.9806C74.4753 18.5597 74.3877 18.1092 74.3877 17.6297C74.3877 17.1501 74.4753 16.6999 74.6505 16.2789C74.8258 15.8578 75.0669 15.492 75.3744 15.1815C75.6817 14.871 76.0459 14.6267 76.4671 14.4484C76.8882 14.2702 77.3445 14.1809 77.8365 14.1809C78.3282 14.1809 78.7846 14.2702 79.2059 14.4484C79.6268 14.6267 79.9911 14.871 80.2986 15.1815C80.6059 15.492 80.8472 15.8578 81.0225 16.2789C81.1977 16.6999 81.2853 17.1501 81.2853 17.6297C81.2853 18.1092 81.1977 18.5597 81.0225 18.9806C80.8472 19.4018 80.6059 19.7676 80.2986 20.078C79.9911 20.3886 79.6268 20.6329 79.2059 20.8111C78.7846 20.9893 78.3282 21.0786 77.8365 21.0786Z" fill="#4C4C4C"/>
<path id="Vector_13" fill-rule="evenodd" clip-rule="evenodd" d="M82.291 14.3284H83.7387L86.3944 18.7546H86.4682L86.3944 17.4821V14.3284H87.6301V20.9309H86.3206L83.5174 16.2557H83.4437L83.5174 17.5282V20.9309H82.291V14.3284Z" fill="#4C4C4C"/>
</g>
<defs>
<clipPath id="clip0_1759_27586">
<rect width="150" height="53" fill="white" transform="translate(-0.00976562 0.604736)"/>
</clipPath>
</defs>
</svg>
