<svg width="100" height="100" viewBox="0 0 100 100" fill="none" xmlns="http://www.w3.org/2000/svg">
<path d="M22.5742 72.0937C24.2555 72.0937 25.899 71.5952 27.2969 70.661C28.6948 69.7269 29.7842 68.3992 30.4275 66.8458C31.0707 65.2924 31.2389 63.5832 30.9107 61.9343C30.5824 60.2854 29.7725 58.7708 28.5835 57.5822C27.3944 56.3936 25.8796 55.5843 24.2305 55.2567C22.5814 54.9291 20.8723 55.0979 19.3192 55.7417C17.766 56.3855 16.4388 57.4755 15.5052 58.8738C14.5716 60.272 14.0736 61.9157 14.0742 63.597C14.0751 65.8508 14.971 68.0119 16.565 69.6053C18.1589 71.1987 20.3204 72.0937 22.5742 72.0937Z" stroke="black" stroke-width="3" stroke-linecap="round" stroke-linejoin="round"/>
<path d="M33.0742 79.0938C30.6773 76.8556 27.4256 75.455 23.9281 75.1546C20.4306 74.8541 16.9272 75.6742 14.0742 77.4614" stroke="black" stroke-width="3" stroke-linecap="round" stroke-linejoin="round"/>
<path d="M77.5742 72.0937C79.2555 72.0937 80.899 71.5952 82.2969 70.661C83.6948 69.7269 84.7843 68.3992 85.4275 66.8458C86.0708 65.2924 86.2389 63.5832 85.9107 61.9343C85.5824 60.2854 84.7725 58.7708 83.5835 57.5822C82.3944 56.3936 80.8796 55.5843 79.2305 55.2567C77.5814 54.9291 75.8723 55.0979 74.3192 55.7417C72.766 56.3855 71.4388 57.4755 70.5052 58.8738C69.5716 60.272 69.0736 61.9157 69.0742 63.597C69.0751 65.8508 69.971 68.0119 71.565 69.6053C73.1589 71.1987 75.3204 72.0937 77.5742 72.0937Z" stroke="black" stroke-width="3" stroke-linecap="round" stroke-linejoin="round"/>
<path d="M67.0742 79.0938C69.4711 76.8556 72.7228 75.455 76.2204 75.1546C79.7179 74.8541 83.2212 75.6742 86.0742 77.4614" stroke="black" stroke-width="3" stroke-linecap="round" stroke-linejoin="round"/>
<path d="M69.0742 86.0937C68.4556 81.387 66.1888 77.0697 62.6946 73.9433C59.2004 70.8169 54.7161 69.0938 50.0742 69.0938C45.4323 69.0938 40.948 70.8169 37.4538 73.9433C33.9596 77.0697 31.6928 81.387 31.0742 86.0937" stroke="black" stroke-width="3" stroke-linecap="round" stroke-linejoin="round"/>
<path d="M50.0742 64.0938C56.1494 64.0938 61.0742 59.1689 61.0742 53.0938C61.0742 47.0186 56.1494 42.0938 50.0742 42.0938C43.9991 42.0938 39.0742 47.0186 39.0742 53.0938C39.0742 59.1689 43.9991 64.0938 50.0742 64.0938Z" stroke="black" stroke-width="3" stroke-linecap="round" stroke-linejoin="round"/>
<path d="M64.0742 32.7978C54.9704 35.8591 45.178 35.8591 36.0742 32.7978V14.0938L43.852 23.8541L50.0742 14.0938L56.2964 23.8541L64.0742 14.0938V32.7978Z" stroke="#3DD3F2" stroke-width="3" stroke-linecap="round" stroke-linejoin="round"/>
</svg>
