<svg width="330" height="377" viewBox="0 0 330 377" fill="none" xmlns="http://www.w3.org/2000/svg">
<path d="M269.964 232.792L261.193 201.509L254.71 195.608L221.967 138.376L204.935 128.743C205.099 127.997 205.23 127.236 205.316 126.454C206.654 114.307 209.243 90.2705 210.081 84.5815C211.054 77.9726 207.005 72.2634 202.051 70.4861C201.408 70.1126 200.529 69.6121 199.476 69.0068C199.069 68.7694 198.632 68.5155 198.172 68.2561C198.094 68.2175 198.026 68.1715 197.949 68.1328C197.68 67.9709 197.396 67.8109 197.113 67.6489C195.055 66.4769 192.642 65.0989 190.126 63.6582C189.806 63.4742 189.489 63.2921 189.167 63.1081C189.038 63.029 188.905 62.9535 188.778 62.8799C188.386 62.6573 187.988 62.4273 187.596 62.2047C187.073 61.9048 186.55 61.6067 186.028 61.3087C185.721 61.0198 183.503 58.9278 182.724 58.0079C182.112 56.4587 181.687 54.3355 181.462 52.4367C182.002 51.997 182.529 51.5315 183.037 51.0365C183.067 51.0126 183.1 50.9924 183.127 50.9648C186.684 47.7413 190.955 42.1885 192.935 30.7572V30.748C193.002 30.3892 193.062 30.0194 193.118 29.6441C193.164 29.3755 193.204 29.1068 193.239 28.8345C193.259 28.7241 193.274 28.6174 193.289 28.5052H193.283C196.719 3.7494 179.707 0.121132 174.121 0.00337898C167.803 -0.127254 152.151 2.63995 149.187 13.8081C148.898 14.8918 148.599 16.0951 148.366 17.3904C148.36 17.4309 148.351 17.4713 148.345 17.5118C148.314 17.6792 148.285 17.8504 148.259 18.0233C148.233 18.1907 148.203 18.3618 148.183 18.5403C148.132 18.8844 148.091 19.2395 148.056 19.5983C148.021 19.9423 147.995 20.2974 147.975 20.6507C147.975 20.7022 147.97 20.7574 147.97 20.8126C147.955 21.1364 147.944 21.4602 147.944 21.7896C147.944 23.2983 148.106 24.8604 148.522 26.45C148.537 26.5163 148.552 26.5825 148.572 26.6469C148.688 27.0609 148.848 27.5227 149.108 27.9753L149.473 32.6799L150.277 43.1232C150.441 44.4295 150.637 45.6935 150.874 46.906C150.88 46.9299 150.883 46.9538 150.889 46.9777C150.987 47.4763 151.092 47.9639 151.206 48.4423C147.625 49.4874 144.278 51.3088 141.976 53.5811C141.79 53.7651 141.611 53.9914 141.438 54.2564C139.449 57.0512 135.87 65.1099 132.341 73.6268C131.155 72.5449 130.008 71.5698 129.516 71.1576C129.442 71.0822 129.361 71.0141 129.274 70.9571C129.271 70.9534 129.263 70.9479 129.263 70.9479C129.263 70.9479 129.263 70.9479 129.263 70.9497C128.904 70.7142 128.453 70.6351 128.024 70.7528L126.781 64.4089L131.245 63.1339L129.711 55.3051L126.232 55.846L115.547 58.9002L117.081 66.729L120.561 66.1881L120.85 66.1053L117.21 72.8853L119.599 74.9129L122.635 76.1198L123.194 75.0748L123.233 75.1042L122.474 80.473C121.889 80.37 121.412 80.4693 121.141 80.8539C119.743 82.8428 117.947 85.1684 116.282 87.2733C115.755 86.6643 115.057 86.0994 114.114 85.5861C112.558 84.7361 110.088 83.3708 107.848 82.1308L107.85 82.1289C107.334 81.2421 106.527 80.1216 106.225 79.7095C106.161 79.5126 106.094 79.3047 106.028 79.0894C106.667 79.071 107.321 79.0379 108.012 78.9698C110.745 78.6994 112.305 78.3958 112.932 63.2718C112.946 63.2571 112.961 63.2442 112.976 63.2295C115.91 60.5175 114.07 56.7586 113.409 55.41C113.34 55.2701 113.285 55.1561 113.248 55.0714C113.154 54.8525 112.978 54.709 112.762 54.617C111.985 54.2858 110.896 53.4339 110.285 52.8525C107.406 50.1166 103.842 49.7909 100.274 50.3153C91.4552 51.6124 88.7458 57.6473 89.7386 64.8063C89.792 65.1964 89.8583 65.5791 89.9338 65.9581C89.9338 65.9562 89.932 65.9544 89.9302 65.9526C90.0057 66.3279 90.0904 66.6959 90.1843 67.0583C90.1843 67.0657 90.188 67.0712 90.1899 67.0786C90.2801 67.4263 90.3777 67.7667 90.4846 68.1016C90.5067 68.1696 90.5306 68.2359 90.5527 68.3039C90.6411 68.5763 90.7332 68.8467 90.8327 69.1098C90.864 69.1945 90.899 69.2754 90.9303 69.3582C91.0242 69.6011 91.1218 69.8421 91.2231 70.0776C91.26 70.1641 91.3005 70.2469 91.3373 70.3315C91.4405 70.5597 91.5436 70.7841 91.6523 71.0049C91.6928 71.0859 91.7333 71.165 91.7757 71.2459C91.8862 71.4631 92.0004 71.6783 92.1165 71.8862C92.157 71.9598 92.1993 72.0316 92.2417 72.1033C92.3614 72.3131 92.4848 72.5173 92.6101 72.716C92.6506 72.7804 92.6911 72.843 92.7298 72.9055C92.8587 73.1079 92.9913 73.3029 93.124 73.4925C93.1626 73.5458 93.1995 73.601 93.2382 73.6544C93.3763 73.8476 93.5163 74.0315 93.6563 74.2119C93.6913 74.256 93.7244 74.3002 93.7594 74.3443C93.9049 74.5265 94.0523 74.6994 94.1996 74.865C94.2309 74.9 94.2622 74.9368 94.2936 74.9717C94.4464 75.141 94.5975 75.2992 94.7503 75.4519C94.7614 75.463 94.7743 75.4777 94.7853 75.4887C94.2272 75.2293 93.7097 74.9865 93.2566 74.7712C92.8182 74.5633 92.3762 74.44 91.936 74.3811C90.9248 74.1898 89.9651 74.3958 89.0939 74.8871C86.7308 76.0076 84.8945 78.6 84.8024 80.2541C84.2019 91.0506 85.6183 102.723 85.5225 118.905C85.4968 123.333 84.4303 128.17 84.9387 130.428C84.9497 130.478 84.9792 130.535 85.0068 130.592C84.9958 130.925 84.9902 131.263 84.9902 131.613C84.9902 131.624 84.9902 131.635 84.9902 131.646V131.847C84.9847 154.036 84.1614 160.812 84.1614 167.345C84.1614 167.345 81.3617 190.101 81.3617 199.148C81.3617 199.494 81.4262 199.825 81.5699 200.136C81.5533 201.122 81.5091 203.126 81.4244 203.757C81.4004 203.935 81.5717 204.165 81.859 204.412L77.2194 249.554L68.6067 264.192L60.4141 302.662L71.1375 308.729L68.1186 338.106L71.5611 340.091L74.602 338.757L75.4585 330.421L99.0916 344.051L99.204 342.963L97.9368 355.302L101.379 357.287L104.42 355.953L107.179 329.113L160.082 359.035L198.664 335.271L242.366 336.161L297.985 297.792L269.961 232.798L269.964 232.792ZM99.8247 336.967L76.1916 323.337L77.317 312.384L100.95 326.014L100.992 325.606L99.8247 336.967ZM86.5816 222.23L91.597 225.122L86.5006 233.784L85.4562 233.181L86.5816 222.228V222.23ZM136.703 120.474C136.716 122.754 136.732 125.011 136.751 127.23L127.429 132.084L128.727 119.442C128.996 119.356 129.256 119.254 129.505 119.133C130.288 119.501 131.113 119.81 131.978 120.044C132.583 120.207 134.286 120.349 136.701 120.474H136.703ZM117.277 111.639C117.45 111.854 117.623 112.071 117.798 112.29C118.002 112.546 118.208 112.804 118.415 113.063C118.63 113.332 118.846 113.606 119.065 113.88C119.242 114.103 119.419 114.325 119.597 114.552C119.977 115.032 120.36 115.517 120.747 116.012C120.767 116.038 120.785 116.062 120.806 116.086C120.931 116.246 121.056 116.388 121.181 116.535C121.57 116.991 121.96 117.391 122.353 117.74L122.06 120.59L116.54 117.407C116.713 115.584 116.899 113.56 117.074 111.387C117.14 111.47 117.208 111.554 117.275 111.639H117.277ZM117.678 137.164L116.748 136.627C116.943 134.17 115.858 128.947 115.858 125.86C115.858 125.503 115.877 125.059 115.908 124.54L121.334 127.67L121.761 123.506L120.509 135.688L117.678 137.162V137.164ZM94.6343 196.156C94.638 195.985 94.6398 195.812 94.6435 195.645C94.6472 195.437 94.6527 195.236 94.6582 195.032C94.6619 194.856 94.6675 194.675 94.6711 194.501C94.6767 194.3 94.684 194.103 94.6914 193.906C94.6969 193.737 94.7025 193.566 94.708 193.398C94.7153 193.203 94.7246 193.012 94.7319 192.821C94.7393 192.659 94.7448 192.493 94.754 192.333C94.7632 192.144 94.7724 191.96 94.7835 191.774C94.7927 191.616 94.8001 191.457 94.8093 191.301C94.8203 191.115 94.8314 190.931 94.8424 190.747C94.8516 190.6 94.8609 190.451 94.8701 190.304C94.883 190.114 94.8958 189.928 94.9106 189.743C94.9198 189.605 94.9309 189.467 94.9419 189.33C94.9548 189.176 94.9677 189.023 94.9787 188.87L95.3858 189.106L95.0414 196.212C94.9069 196.234 94.7688 196.256 94.6306 196.278C94.6306 196.237 94.6306 196.197 94.6325 196.156H94.6343ZM124.215 92.9788C124.154 93.4645 124.091 93.9686 124.025 94.4912C123.578 95.6466 123.204 96.6126 122.922 97.3393C122.623 96.861 122.327 96.3844 122.029 95.9097C122.787 94.8904 123.522 93.9024 124.215 92.9788ZM88.2577 205.919C89.2873 205.608 89.8307 205.347 90.1125 205.163L94.487 207.685L93.9399 218.971L87.3092 215.146L88.2577 205.917V205.919Z" fill="#E9C8FD"/>
<path d="M136.333 370.656L135.025 370.871L133.942 370.246L132.007 370.161L130.938 369.28L129.336 369.3L127.846 368.615L127.686 368.54L126.566 369.191L126.555 372.639L134.116 377L137.862 374.825L137.871 371.375L136.56 370.619L136.333 370.656Z" fill="#E9C8FD"/>
<path d="M212.24 350.132L212.23 352.87L216.548 355.361L220.825 352.878L220.832 350.14L216.515 347.65L212.24 350.132Z" fill="#E9C8FD"/>
<path d="M302.286 277.074L302.293 274.334L297.976 271.845L293.699 274.327L293.691 277.065L298.009 279.556L302.286 277.074Z" fill="#E9C8FD"/>
<path d="M46.1871 282.88L46.1797 285.618L50.4952 288.109L54.772 285.626L54.7794 282.888L50.4621 280.398L46.1871 282.88Z" fill="#E9C8FD"/>
<path d="M299.281 252.297L299.273 255.035L303.591 257.526L307.868 255.044L307.875 252.305L303.558 249.815L299.281 252.297Z" fill="#E9C8FD"/>
<path d="M75.8637 239.832L75.8711 237.094L71.5537 234.604L67.2787 237.087L67.2695 239.824L71.5869 242.315L75.8637 239.832Z" fill="#E9C8FD"/>
<path d="M46.8773 256.053L38.4893 251.216L30.1788 256.038L30.1641 261.359L38.5538 266.196L46.8625 261.374L46.8773 256.053Z" fill="#E9C8FD"/>
<path d="M53.0967 321.601L53.1059 318.237L47.8013 315.178L42.5483 318.228L42.5391 321.592L47.8437 324.65L53.0967 321.601Z" fill="#E9C8FD"/>
<path d="M44.6406 352.704L44.2852 361.521L46.6354 362.296L46.8491 365.841L54.2939 366.025L54.526 361.414L54.8833 352.597L51.9529 351.293L44.6406 352.704Z" fill="#E9C8FD"/>
<path d="M327.258 278.338L319.316 277.48L314.239 284.794L313.965 297.075L329.726 296.327L329.998 284.045L327.258 278.338Z" fill="#E9C8FD"/>
<path d="M281.2 245.346L284.005 246.965L289.656 243.684L289.664 241.237L288.649 238.799L288.617 235.716L287.33 233.637L286.501 231.352L280.85 234.63L279.327 236.454L280.078 239.302L279.309 242.588L281.2 245.346Z" fill="#E9C8FD"/>
<path d="M37.5491 233.959L41.0763 234.419L44.6956 236.459L47.987 236.36L51.2122 236.932L51.1882 228.147L50.0886 225.144L46.2593 224.103L42.944 220.995L38.4516 221.339L34.6758 223.518L34.6979 232.303L37.5491 233.959Z" fill="#E9C8FD"/>
<path d="M14.9818 288.927L12.7034 285.321L9.33648 280.289L1.22116 284.999L0 286.403L0.318645 293.696L11.2336 299.991L19.3489 295.281L19.3581 291.731L14.9818 288.927Z" fill="#E9C8FD"/>
<path d="M303.569 329.796L302.818 327.546L294.59 323.163L280.581 331.058L280.496 343.021L284.394 345.336L290.317 342.351L295.763 342.191L303.485 341.761L303.569 329.796Z" fill="#E9C8FD"/>
<path d="M192.703 164.769L211.472 158.823L221.969 138.376L192.191 121.532L149.913 120.38L108.566 141.91L175.447 168.769L192.703 164.769Z" fill="#E9C8FD"/>
<path d="M125.267 271.843L68.6145 264.188L60.4219 302.658L160.086 359.029L155.973 292.082L125.267 271.843Z" fill="#E9C8FD"/>
<path d="M93.8267 221.333L68.6133 264.188L125.266 271.844L93.8267 221.333Z" fill="#8339F7"/>
<path d="M155.973 292.083L160.086 359.029L198.666 335.265L188.913 281.338L155.973 292.083Z" fill="#8339F7"/>
<path d="M228.608 255.542L188.914 281.337L198.667 335.265L242.369 336.153L232.578 296.231L228.608 255.542Z" fill="#8339F7"/>
<path d="M269.963 232.792L228.605 255.542L232.575 296.232L242.366 336.154L297.987 297.784L269.963 232.792Z" fill="#8339F7"/>
<path d="M155.973 292.082L188.913 281.337L166.735 222.621L93.8281 221.333L125.267 271.844L155.973 292.082Z" fill="#8339F7"/>
<path d="M223.891 209.077L228.606 255.542L269.963 232.792L261.192 201.508L238.366 210.961L223.891 209.077Z" fill="#8339F7"/>
<path d="M211.47 158.822L192.701 164.769L188.912 177.917L166.734 222.621L188.912 281.337L215.108 197.843L211.47 158.822Z" fill="#8339F7"/>
<path d="M215.109 197.843L188.914 281.337L228.608 255.542L223.893 209.077L215.109 197.843Z" fill="#E9C8FD"/>
<path d="M215.106 197.843L223.89 209.078L254.709 195.608L221.966 138.376L211.469 158.823L215.106 197.843Z" fill="#8339F7"/>
<path d="M238.366 210.961L261.192 201.508L254.709 195.607L223.891 209.077L238.366 210.961Z" fill="#E9C8FD"/>
<path d="M188.913 177.917L175.445 168.769L96.7457 161.136L93.8281 221.333L166.735 222.621L188.913 177.917Z" fill="#E9C8FD"/>
<path d="M108.565 141.91L96.7461 161.135L175.446 168.769L108.565 141.91Z" fill="#8339F7"/>
<path d="M175.445 168.769L188.913 177.917L192.702 164.77L175.445 168.769Z" fill="#8339F7"/>
<path opacity="0.25" d="M179.2 160.17C176.401 160.17 173.743 159.524 171.717 158.354L138.349 139.112C136.64 138.128 135.463 136.818 134.94 135.322C134.813 134.996 134.725 134.641 134.668 134.24L134.656 134.144C134.618 133.74 134.614 133.368 134.649 133.007C134.675 132.744 134.723 132.49 134.793 132.231V132.198L134.905 131.846C135.419 130.319 136.611 128.982 138.349 127.975L148.644 122.04C150.662 120.869 153.328 120.224 156.142 120.224C156.733 120.224 157.328 120.253 157.91 120.31C160.08 120.535 162.047 121.134 163.611 122.043L196.973 141.281C198.85 142.369 200.097 143.864 200.529 145.533L200.653 145.736V146.148L200.809 147.046L200.68 147.18C200.557 149.237 199.233 151.121 196.971 152.424L186.69 158.355C184.66 159.526 182 160.171 179.202 160.171L179.2 160.17Z" fill="black"/>
<path d="M198.507 146.582V146.689C198.584 148.083 197.709 149.487 195.882 150.538L185.599 156.472C182.075 158.503 176.319 158.503 172.805 156.472L158.184 148.039L144.792 140.319L139.436 137.23C138.132 136.479 137.31 135.55 136.98 134.569C136.896 134.362 136.85 134.148 136.818 133.933C136.796 133.696 136.787 133.458 136.811 133.212C136.833 132.989 136.888 132.774 136.964 132.553V132.538C137.294 131.558 138.122 130.614 139.436 129.856L146.335 125.876L149.728 123.92C151.885 122.671 154.885 122.194 157.694 122.47C159.468 122.654 161.155 123.129 162.514 123.92L195.884 143.164C197.418 144.052 198.278 145.18 198.477 146.337C198.47 146.345 198.477 146.345 198.477 146.352C198.484 146.429 198.499 146.505 198.508 146.582H198.507Z" fill="white"/>
<path d="M203.931 90.8554C203.824 91.836 203.701 92.8406 203.57 93.8765C203.439 94.9105 203.294 95.9703 203.132 97.0577C202.817 99.2269 202.448 101.505 202.034 103.873C200.514 112.544 197.89 130.536 198.043 140.726C198.05 141.568 198.081 142.36 198.135 143.086L198.472 146.337C198.472 146.337 198.472 146.345 198.472 146.352L198.503 146.689C198.58 148.083 197.705 149.487 195.878 150.538L185.595 156.472C182.072 158.503 176.316 158.503 172.801 156.472L139.432 137.228C138.128 136.477 137.307 135.548 136.977 134.568C136.97 134.352 136.97 134.139 136.97 133.924C136.97 133.471 136.97 133.011 136.962 132.551V132.536C136.962 131.946 136.962 131.355 136.955 130.765V130.658C136.947 129.179 136.947 127.683 136.94 126.157C136.909 116.612 136.94 106.263 137.146 96.4431C137.154 95.8765 137.17 95.3079 137.185 94.7412C137.231 92.7634 137.285 90.8167 137.345 88.8996C137.36 88.4617 137.377 88.0256 137.391 87.5877C137.415 86.7138 137.452 85.8545 137.483 84.9972C137.498 84.5758 137.522 84.1471 137.537 83.7239C137.568 82.8813 137.607 82.0441 137.653 81.2254C137.684 80.5428 137.721 79.8767 137.752 79.2088C137.791 78.5262 137.83 77.8436 137.876 77.1776C137.9 76.6569 137.929 76.1344 137.968 75.6211C137.983 75.3671 137.999 75.1151 138.021 74.8612C138.075 73.9633 138.145 73.0894 138.213 72.2393C138.228 71.9873 138.252 71.7334 138.274 71.4813C139.056 61.9525 140.292 55.0897 142.195 53.3804C143.162 52.5138 144.274 51.7098 145.479 50.9959C146.991 50.098 148.649 49.3326 150.384 48.7494C150.983 48.5415 151.589 48.3667 152.204 48.2048C154.038 47.7301 155.911 47.4615 157.737 47.4541H157.821C158.044 47.4541 158.267 47.4615 158.49 47.4688H158.551C158.796 47.4762 159.035 47.4927 159.273 47.5148C159.481 47.5295 159.68 47.5535 159.886 47.5755C159.91 47.5755 159.932 47.5829 159.964 47.5829C159.986 47.5903 160.01 47.5903 160.032 47.5903C160.255 47.6215 160.477 47.651 160.7 47.6896C161.168 47.7742 161.621 47.8736 162.074 47.9877C162.082 47.995 162.096 47.995 162.113 47.995C162.522 48.1073 162.918 48.2434 163.307 48.3943C163.334 48.4053 163.366 48.4127 163.395 48.4237C163.54 48.4771 163.686 48.5396 163.824 48.6004C164.263 48.7843 164.677 48.9996 165.082 49.237C167.217 50.4973 169.799 51.9821 172.551 53.5607C172.943 53.787 173.341 54.0133 173.739 54.2433C175.651 55.3399 177.622 56.4751 179.572 57.6011C180.324 58.039 181.106 58.4824 181.906 58.9424C182.228 59.1337 182.558 59.3177 182.897 59.5091C184.424 60.3904 186.013 61.2956 187.594 62.2009C187.986 62.4308 188.376 62.6535 188.769 62.8835C188.922 62.9681 189.076 63.0527 189.222 63.1355C192.062 64.7601 194.808 66.3333 197.111 67.6433C197.394 67.8052 197.678 67.9652 197.947 68.1272C198.024 68.1658 198.092 68.2118 198.17 68.2504C198.63 68.5117 199.068 68.7638 199.474 69.0011C200.54 69.6138 201.432 70.1198 202.076 70.4969C202.852 70.9422 203.436 71.9229 203.85 73.3801C204.817 76.8078 204.81 82.8868 203.935 90.8517L203.931 90.8554Z" fill="white"/>
<path d="M203.931 90.8555C203.824 91.8362 203.701 92.8407 203.57 93.8766C203.432 94.9033 203.286 95.9704 203.132 97.0578C202.817 99.227 202.448 101.505 202.034 103.873C200.514 112.544 197.89 130.537 198.043 140.726C198.057 141.569 198.089 142.36 198.142 143.086L198.472 146.338C198.472 146.338 198.472 146.345 198.472 146.352C198.479 146.43 198.494 146.505 198.503 146.582V146.689C198.58 148.084 197.705 149.487 195.878 150.538L185.595 156.472C182.072 158.503 176.316 158.503 172.801 156.472L139.432 137.228C138.128 136.478 137.307 135.548 136.977 134.568C136.97 134.352 136.97 134.139 136.97 133.924C136.97 133.471 136.97 133.011 136.962 132.551V132.536C136.962 131.946 136.962 131.355 136.955 130.765V130.658C136.947 129.186 136.947 127.683 136.94 126.158C136.909 116.612 136.94 106.263 137.146 96.4433C137.154 95.8766 137.17 95.308 137.185 94.7414C137.231 92.7635 137.285 90.8169 137.345 88.8997C137.36 88.4618 137.377 88.0257 137.391 87.5878C137.415 86.7139 137.452 85.8547 137.483 84.9973C137.498 84.5759 137.522 84.1472 137.537 83.7241C137.568 82.8814 137.607 82.0442 137.653 81.2255C137.684 80.5429 137.721 79.8768 137.752 79.209C137.791 78.5264 137.83 77.8438 137.876 77.1777C137.907 76.657 137.937 76.1345 137.968 75.6212C137.983 75.3673 137.999 75.1152 138.021 74.8613C138.082 73.9634 138.145 73.0895 138.213 72.2394C138.228 71.9874 138.252 71.7335 138.274 71.4814C139.018 62.5579 140.139 55.9637 141.851 53.7651C141.967 53.6197 142.081 53.4964 142.204 53.3897C143.171 52.5231 144.276 51.7191 145.481 50.9979C146.993 50.1 148.651 49.3346 150.386 48.7513C150.984 48.5434 151.59 48.3686 152.206 48.2067C153.349 47.9068 154.515 47.6934 155.666 47.5701C155.897 47.5388 156.134 47.5241 156.365 47.5094C156.541 47.4947 156.718 47.4855 156.895 47.4781C157.179 47.4634 157.462 47.4561 157.739 47.4561H157.823C158.046 47.4561 158.269 47.4634 158.492 47.4708H158.553C158.783 47.4781 159.006 47.4947 159.229 47.5168H159.275C159.483 47.5315 159.682 47.5554 159.888 47.5775C159.912 47.5775 159.934 47.5848 159.965 47.5848C159.988 47.5922 160.011 47.5922 160.034 47.5922C160.256 47.6235 160.479 47.6529 160.702 47.6916C161.17 47.7762 161.623 47.8755 162.076 47.9896C162.084 47.997 162.098 47.997 162.115 47.997C162.553 48.1276 162.982 48.2656 163.397 48.4257C163.542 48.479 163.688 48.5416 163.826 48.6023C163.879 48.6244 163.933 48.6483 163.979 48.6796C164.163 48.7642 164.355 48.8489 164.539 48.9409C164.716 49.0402 164.9 49.1396 165.077 49.2481C165.882 49.7154 166.749 50.2214 167.663 50.7439C167.963 50.9279 168.269 51.1046 168.584 51.2812C169.121 51.5958 169.674 51.9178 170.241 52.2398C170.333 52.2931 170.425 52.3465 170.525 52.3999C171.184 52.7825 171.86 53.1745 172.551 53.5645C172.943 53.7871 173.341 54.0171 173.741 54.2471C175.653 55.3437 177.623 56.4789 179.574 57.6049C180.326 58.0428 181.108 58.4862 181.908 58.9462C182.23 59.1376 182.567 59.3215 182.899 59.5129C184.426 60.3942 186.015 61.2994 187.595 62.2047C187.988 62.4273 188.386 62.6573 188.778 62.8799C188.923 62.9645 189.078 63.0492 189.224 63.1412C192.064 64.7658 194.81 66.3389 197.112 67.6489C197.396 67.8182 197.68 67.9782 197.949 68.1328C198.026 68.1714 198.094 68.2174 198.171 68.2561C198.632 68.5247 199.061 68.7694 199.476 69.0067C200.542 69.6194 201.433 70.1254 202.078 70.5026C202.854 70.9478 203.437 71.9285 203.852 73.3857C203.883 73.4924 203.913 73.6083 203.944 73.7224C203.997 73.9524 204.051 74.1897 204.106 74.4436C204.128 74.589 204.159 74.7343 204.183 74.8889C204.375 75.9855 204.498 77.2587 204.552 78.6993C204.552 78.7913 204.559 78.8833 204.559 78.9753C204.566 79.2366 204.574 79.496 204.574 79.772C204.627 82.8391 204.404 86.5722 203.937 90.8573L203.931 90.8555Z" fill="#8339F7"/>
<path d="M181.485 60.0537C181.485 60.0537 176.593 66.5191 162.035 65.7169C162.035 65.7169 162.357 72.0241 162.634 79.3873C162.634 79.3873 181.909 72.7324 185 63.4042C185 63.4042 182.165 60.9277 181.487 60.0556L181.485 60.0537Z" fill="#8339F7"/>
<path d="M162.034 65.7175C162.034 65.7175 155.074 71.8039 152.618 75.0752C152.618 75.0752 151.388 58.4665 163.235 50.8181L166.998 48.5918C166.998 48.5918 159.813 56.301 162.036 65.7175H162.034Z" fill="#8339F7"/>
<path d="M157.693 122.472C157.524 130.967 157.625 139.737 158.185 148.039L144.793 140.319C145.261 135.206 145.784 130.391 146.336 125.876C150.88 88.8018 157.603 71.6742 157.603 71.6742L158.524 62.8887L162.031 65.7092C162.031 65.7092 165.124 66.5133 166.667 66.9125L161.118 73.6594C161.118 73.6594 158.193 96.7961 157.695 122.472H157.693Z" fill="#B448FA"/>
<path d="M181.276 49.2425C181.189 51.8091 181.979 57.5202 183.519 59.5109C185.206 61.6912 172.505 70.1529 162.034 65.7151C158.51 64.2229 160.264 53.6582 166.996 48.5893C166.996 48.5893 173.214 43.5903 176.691 45.0696C176.691 45.0696 181.368 46.5139 181.276 49.2406V49.2425Z" fill="#DFB1FD"/>
<path d="M182.596 57.8593C182.596 57.8593 176.592 66.5196 162.035 65.7175C162.035 65.7175 163.47 69.8296 163.744 77.191C163.744 77.191 182.974 70.6723 186.062 61.344C186.062 61.344 183.276 58.7295 182.596 57.8574V57.8593Z" fill="#8339F7"/>
<path d="M162.034 65.7175C162.034 65.7175 155.611 69.734 153.156 73.0035C153.156 73.0035 153.127 57.1013 164.012 48.6672L166.996 48.5918C166.996 48.5918 159.811 56.301 162.034 65.7175Z" fill="#8339F7"/>
<path d="M203.933 90.8554C203.826 91.836 203.702 92.8406 203.572 93.8765C203.434 94.9032 203.288 95.9703 203.133 97.0577C202.818 99.2269 202.45 101.505 202.036 103.873C200.516 112.544 197.891 130.536 198.044 140.726C198.059 141.568 198.09 142.36 198.144 143.086L198.473 146.337C198.473 146.337 198.473 146.345 198.473 146.352C198.481 146.429 198.495 146.505 198.505 146.582V146.689C198.582 148.083 197.707 149.487 195.88 150.538L185.597 156.472C182.073 158.503 176.317 158.503 172.803 156.472L139.434 137.228C138.13 136.477 137.308 135.548 136.979 134.568C136.894 134.36 136.848 134.146 136.816 133.931C136.816 133.694 136.809 133.456 136.809 133.21C136.465 101.67 136.409 59.0841 141.974 53.5791C145.221 50.374 150.538 48.0594 155.664 47.5682C155.895 47.5369 156.132 47.5222 156.363 47.5075C156.539 47.4927 156.716 47.4835 156.893 47.4762C157.177 47.4615 157.46 47.4541 157.737 47.4541H157.821C158.044 47.4541 158.267 47.4615 158.49 47.4688H158.551C158.781 47.4762 159.004 47.4927 159.227 47.5148H159.273C159.481 47.5295 159.68 47.5535 159.886 47.5755C159.91 47.5755 159.932 47.5829 159.963 47.5829C159.985 47.5903 160.009 47.5903 160.032 47.5903C160.254 47.6215 160.477 47.651 160.7 47.6896C161.168 47.7742 161.621 47.8736 162.074 47.9877C162.082 47.995 162.096 47.995 162.113 47.995C162.551 48.1257 162.98 48.2637 163.395 48.4237C163.586 48.501 163.785 48.5856 163.979 48.6776C163.174 48.9389 145.659 57.855 151.798 112.393C151.798 112.393 163.64 79.3892 188.767 62.8835C188.767 62.8761 188.774 62.8761 188.774 62.8761C188.92 62.9607 189.074 63.0454 189.22 63.1374C192.06 64.762 194.806 66.3351 197.109 67.6451C197.392 67.8144 197.676 67.9744 197.945 68.129C198.022 68.1676 198.09 68.2136 198.168 68.2523C198.628 68.5209 199.057 68.7656 199.472 69.003C200.538 69.6156 201.43 70.1216 202.074 70.4988C202.85 70.944 203.434 71.9247 203.848 73.3819C203.879 73.4886 203.909 73.6045 203.94 73.7186C203.993 73.9486 204.047 74.1859 204.102 74.4398C204.124 74.5852 204.156 74.7305 204.179 74.8851C204.371 75.9817 204.494 77.2549 204.548 78.6955C204.548 78.7875 204.555 78.8795 204.555 78.9715C204.563 79.2328 204.57 79.4922 204.57 79.7682C204.623 82.8353 204.4 86.5684 203.933 90.8535V90.8554Z" fill="#B851FA"/>
<path d="M172.452 97.1297L170.752 89.8898L177.473 88.8226C178.593 86.3075 188.345 69.3933 191.276 64.3189C190.453 63.8442 189.616 63.364 188.773 62.8838C164.031 79.1282 152.178 111.372 151.808 112.373L151.801 112.399L172.45 97.1297H172.452Z" fill="#8339F7"/>
<path d="M148.072 84.5442L142.801 87.098C142.801 87.098 146.879 102.571 151.802 112.398C145.654 57.8547 163.174 48.9422 163.979 48.6791C163.787 48.5871 163.59 48.508 163.393 48.4289C162.128 47.9358 160.757 47.6451 159.333 47.5273C155.46 51.3451 146.61 61.6191 142.803 78.7853L148.074 84.5442H148.072Z" fill="#8339F7"/>
<path d="M155.999 8.23162C150.916 11.6741 148.481 17.9794 148.573 21.0759L150.275 43.1234C151.455 52.5547 154.264 59.9695 162.919 59.7137C162.919 59.7137 185.747 57.9437 189.372 39.2835L191.389 29.3941C194.743 8.5536 182.183 1.99253 170.478 3.01919C161.192 3.83427 155.999 8.23162 155.999 8.23162Z" fill="#E9C8FD"/>
<path d="M191.392 29.3921L189.379 39.2834C188.083 45.9622 184.329 50.481 180.037 53.5242C172.34 58.9905 162.923 59.7172 162.923 59.7172C160.709 59.7798 158.883 59.3493 157.366 58.5066C152.938 56.0522 151.155 50.1424 150.28 43.1287L148.572 21.0721C148.488 17.9755 150.913 11.6757 156.006 8.23146C156.006 8.23146 161.195 3.82859 170.483 3.0172C182.189 1.99606 194.746 8.55712 191.394 29.3921H191.392Z" fill="#E9C8FD"/>
<path d="M193.277 28.5089C193.266 28.6156 193.246 28.726 193.231 28.8382C193.196 29.1124 193.156 29.3791 193.11 29.6478C193.055 30.0231 192.994 30.3911 192.927 30.7517V30.7609C190.947 42.1922 186.674 47.745 183.119 50.9685C182.289 51.7523 180.355 51.3217 180.957 50.3503C181.069 50.1736 181.18 49.9915 181.292 49.8038C181.301 49.7891 181.307 49.7744 181.318 49.7578C183.663 46.1847 185.903 41.7984 184.722 39.758C184.696 39.712 184.672 39.6715 184.641 39.6255C184.493 39.4084 184.342 39.2207 184.195 39.0533C184.145 38.9981 184.094 38.9466 184.042 38.8969C183.895 38.7497 183.748 38.6228 183.602 38.5179C183.521 38.4627 183.44 38.4112 183.364 38.3652C183.298 38.3247 183.232 38.2898 183.162 38.2585C182.615 38.0156 182.082 38.0358 181.607 38.1978C181.561 38.2125 181.515 38.229 181.471 38.2493C181.381 38.2842 181.294 38.3247 181.208 38.3707C181.121 38.4167 181.04 38.4609 180.959 38.5179C180.878 38.5694 180.797 38.6246 180.721 38.6798C180.568 38.792 180.427 38.9135 180.296 39.0386C180.224 39.1048 180.16 39.1711 180.093 39.241C180.027 39.3072 179.966 39.3771 179.9 39.4544C179.535 39.8905 179.24 40.3799 179.014 40.9061L177.555 44.1848C177.474 44.378 177.22 44.3577 177.144 44.1903C177.13 44.1609 177.124 44.1296 177.124 44.0946L177.115 36.8234V36.8142C177.109 35.701 176.588 34.6891 175.752 34.0304C175.448 33.7875 175.104 33.5999 174.724 33.4692C174.628 33.4398 174.531 33.4085 174.435 33.3828C173.833 33.2264 173.245 33.0737 172.672 32.9228C172.739 33.4196 172.845 33.9494 172.971 34.4757C173.031 34.7388 173.103 34.9963 173.173 35.2558V35.2613C173.243 35.5152 173.315 35.7617 173.391 35.9954C173.411 36.0561 173.426 36.1168 173.446 36.172C173.481 36.2879 173.516 36.4002 173.553 36.5069C173.776 37.1895 173.978 37.712 174.065 37.8776C174.065 37.8831 174.07 37.8831 174.07 37.8868C171.573 37.0515 169.324 36.2935 167.303 35.6053C165.833 35.1086 164.481 34.6486 163.24 34.2181C163.235 34.2125 163.235 34.2181 163.235 34.2181C162.616 34.0046 162.024 33.8022 161.457 33.5999C160.89 33.403 160.348 33.2098 159.831 33.0332C156.086 31.7232 153.655 30.8124 152.06 30.139C151.843 30.0489 151.64 29.9569 151.447 29.8759C151.259 29.795 151.087 29.714 150.925 29.6386C150.196 29.2945 149.689 28.8345 149.339 28.3433C148.934 27.7821 148.717 27.1749 148.569 26.6487C148.549 26.5825 148.534 26.5163 148.52 26.4519C148.103 24.8622 147.941 23.3001 147.941 21.7914C147.941 21.4621 147.951 21.1383 147.967 20.8144C147.967 20.7592 147.973 20.704 147.973 20.6525C147.993 20.2974 148.019 19.9442 148.054 19.6001C148.089 19.2413 148.129 18.8862 148.181 18.5422C148.201 18.3655 148.231 18.1926 148.256 18.0252C148.282 17.854 148.312 17.6811 148.343 17.5137C148.348 17.4732 148.358 17.4327 148.363 17.3922C148.597 16.0969 148.895 14.8918 149.185 13.8099C152.143 2.63995 167.797 -0.127254 174.114 0.00337897C179.703 0.119292 196.712 3.74757 193.279 28.5089H193.277Z" fill="#B448FA"/>
<path d="M193.285 28.5092C193.27 28.6196 193.255 28.7263 193.235 28.8386C193.2 29.1127 193.16 29.3795 193.113 29.6481C193.058 30.0235 192.997 30.3914 192.931 30.7521V30.7613C191.012 41.6608 186.765 47.5282 183.123 50.9688C182.292 51.7526 180.358 51.3221 180.961 50.3506C181.073 50.174 181.184 49.9918 181.296 49.8042C181.305 49.7894 181.311 49.7747 181.322 49.7582C183.51 46.1409 185.759 41.6314 184.726 39.7583C184.7 39.7123 184.676 39.6719 184.645 39.6259C184.497 39.4088 184.346 39.2211 184.199 39.0537C184.149 38.9985 184.097 38.9469 184.046 38.8973C183.899 38.7501 183.751 38.6231 183.606 38.5183C183.525 38.4631 183.444 38.4115 183.368 38.3655C183.302 38.3251 183.235 38.2901 183.165 38.2588C182.618 38.0104 182.086 38.0307 181.611 38.1981C181.565 38.2128 181.519 38.2294 181.475 38.2496C181.384 38.2846 181.298 38.3251 181.211 38.3711C181.125 38.4171 181.044 38.4612 180.963 38.5183C180.882 38.5698 180.8 38.625 180.725 38.6802C180.572 38.7924 180.43 38.9138 180.3 39.0389H180.294C180.228 39.1052 180.163 39.1659 180.097 39.2413C180.031 39.3076 179.964 39.3775 179.904 39.4548C179.539 39.8908 179.244 40.3802 179.018 40.9064L177.559 44.1851C177.478 44.3783 177.224 44.3581 177.148 44.1906C177.133 44.1649 177.122 44.1299 177.122 44.095L177.117 36.8237V36.8145C177.111 35.7014 176.59 34.6894 175.754 34.0308C175.45 33.7934 175.105 33.6002 174.726 33.4696C174.63 33.4401 174.533 33.4089 174.437 33.3831C173.835 33.2267 173.247 33.074 172.674 32.9231C172.74 33.4199 172.847 33.9498 172.973 34.476C173.039 34.7391 173.105 35.0022 173.175 35.2561V35.2616C173.251 35.5155 173.322 35.7621 173.392 35.9958C173.413 36.0565 173.427 36.1172 173.448 36.1724C173.483 36.2828 173.518 36.395 173.555 36.5072C173.788 37.2064 173.995 37.7271 174.076 37.8835C174.076 37.8835 174.073 37.8816 174.067 37.878C171.569 37.0427 169.326 36.2883 167.303 35.6057C165.833 35.1052 164.481 34.6434 163.24 34.2184C163.235 34.2129 163.235 34.2184 163.235 34.2184C162.616 34.0013 162.024 33.7989 161.457 33.6002C160.89 33.4033 160.348 33.2102 159.831 33.0335C156.086 31.718 153.655 30.8073 152.06 30.1394C151.843 30.0492 151.64 29.9572 151.447 29.8763C151.259 29.7953 151.087 29.7144 150.925 29.6389C150.196 29.2949 149.689 28.8349 149.339 28.3436C148.929 27.7825 148.717 27.1753 148.569 26.6491C148.549 26.5829 148.534 26.5166 148.52 26.4522C148.103 24.8626 147.941 23.3005 147.941 21.7918C147.941 21.4624 147.951 21.1386 147.967 20.8148C147.967 20.7596 147.973 20.7044 147.973 20.6529C147.993 20.2941 148.019 19.9445 148.054 19.6005C148.089 19.2417 148.129 18.8866 148.181 18.5425C148.201 18.3659 148.231 18.1929 148.256 18.0255C148.282 17.8544 148.312 17.6814 148.343 17.514C148.348 17.4735 148.358 17.4331 148.363 17.3926C153.029 19.6299 164.791 24.6694 172.602 26.2995C174.197 26.6289 175.722 27.2103 177.166 27.9536C184.162 31.5726 190.505 31.0556 193.281 28.5111H193.287L193.285 28.5092Z" fill="#8339F7"/>
<path d="M178.763 121.692C173.589 121.21 135.386 120.964 131.979 120.044C123.278 117.698 118.581 108.184 122.416 98.6309C123.644 95.5766 137.003 60.2525 141.533 54.1201C138.203 58.8615 137.066 77.9026 136.771 99.0743C136.771 99.0743 173.419 100.942 181.105 101.913C188.793 102.885 185.763 122.336 178.763 121.692Z" fill="#B448FA"/>
<path d="M203.934 90.8552C203.828 91.8358 203.704 92.8404 203.573 93.8763C203.435 94.9029 203.29 95.9701 203.135 97.0575C202.82 99.2267 202.452 101.504 202.037 103.872C200.518 112.544 197.893 130.536 198.046 140.726C198.053 140.979 198.053 141.224 198.068 141.461C194.6 143.585 190.179 143.861 185.398 141.246C181.445 139.092 150.417 121.107 143.992 114.505C140.11 110.503 145.366 104.194 150.815 101.273C153.27 99.9627 155.766 99.3334 157.477 99.9075C157.746 100.007 157.998 100.13 158.228 100.283C162.065 102.89 184.468 113.162 184.468 113.162C184.468 113.162 187.776 86.4137 188.927 82.4892C191.898 72.2998 198.766 70.7212 203.909 73.6117C203.916 73.643 203.931 73.6798 203.94 73.7184C203.993 73.9484 204.047 74.1857 204.102 74.4396C204.124 74.585 204.155 74.7303 204.179 74.8849C204.371 75.9815 204.494 77.2547 204.548 78.6953C204.548 78.7873 204.555 78.8793 204.555 78.9713C204.562 79.2326 204.57 79.492 204.57 79.768C204.623 82.8351 204.4 86.5682 203.932 90.8533L203.934 90.8552Z" fill="#8339F7"/>
<path d="M181.488 103.961C183.787 103.816 191.872 103.551 193.753 103.551C195.634 103.551 200.502 106.642 200.89 108.673C201.279 110.704 201.036 123.1 198.848 123.585C194.576 124.533 193.499 124.266 190.145 123.633C186.98 123.037 180.897 120.553 179.688 120.136C175.749 118.776 177.008 104.243 181.488 103.959V103.961Z" fill="#E9C8FD"/>
<path d="M143.363 110.358C143.363 110.358 133.507 104.756 136.773 99.0761C136.773 99.0761 138.532 96.8867 142.621 95.5914C148.946 93.5859 154.591 95.6558 155.499 97.4055C156.407 99.1534 156.88 100.933 158.081 102.003C162.62 106.055 150.95 119.88 143.363 110.358Z" fill="#E9C8FD"/>
<path d="M188.584 79.9647C187.439 83.8911 184.996 114.698 184.996 114.698C184.996 114.698 161.724 102.669 157.884 100.06C153.021 96.7575 138.063 108.126 143.981 114.214C150.402 120.82 181.445 136.886 185.394 139.046C195.587 144.62 204.145 137.053 205.312 126.453C206.649 114.306 209.239 90.27 210.077 84.581C212.022 71.3687 193.902 61.7534 188.584 79.9647Z" fill="#B851FA"/>
<path d="M123.565 72.775L122.456 80.6093C122.456 80.6093 121.494 82.0333 120.988 82.9735C119.757 85.2532 125.093 89.1059 126.099 87.7315C127.613 85.6598 128.772 84.0756 128.772 84.0756C128.772 84.0756 130.693 83.588 131.796 82.589C132.899 81.5899 135.31 78.4658 135.31 78.4658L129.626 71.281C129.247 70.8008 128.615 70.5947 128.026 70.7566L124.404 71.752C123.955 71.9102 123.633 72.3058 123.566 72.7768L123.565 72.775Z" fill="#E5BCFF"/>
<path d="M133.722 80.4514C133.263 81.007 132.772 81.5829 132.35 82.0319C130.935 81.6952 128.655 81.2701 128.003 81.8L123.559 75.8388C123.559 75.8388 123.597 75.561 123.837 74.9391C124.076 74.3172 126.362 72.3614 126.581 72.3117C126.8 72.262 126.994 71.9971 127.872 72.3117C128.528 72.5472 130.747 73.5389 131.865 74.1074L133.284 75.9032C133.612 76.8194 133.88 78.2564 133.722 80.4514Z" fill="#D89BFF"/>
<path d="M140.859 88.4874L120.961 73.3818L122.801 74.0626L140.859 88.4874Z" fill="#BA57FA"/>
<path d="M122.801 74.0626L120.961 73.3819L123.254 68.9551L125.094 69.6358L122.801 74.0626Z" fill="#FEFEFE"/>
<path d="M125.094 69.6357L142.124 86.0439L140.859 88.4873L122.801 74.0625L125.094 69.6357Z" fill="#8339F7"/>
<path d="M122.635 76.1221L119.6 74.9133L117.211 72.8857L120.246 74.0945L122.635 76.1221Z" fill="#DFB1FD"/>
<path d="M120.246 74.0941L117.211 72.8853L121.458 64.9756L124.494 66.1826L120.246 74.0941Z" fill="#F9F0FF"/>
<path d="M124.493 66.1826L126.882 68.2102L122.635 76.1217L120.246 74.0942L124.493 66.1826Z" fill="#E9C8FD"/>
<path d="M129.264 70.9481C129.334 75.5203 125.724 75.8294 126.768 76.9462C128.698 79.0105 132.072 82.3187 133.41 81.7336C135.077 81.0032 135.637 78.9517 135.795 77.6104C135.931 76.4549 129.265 70.9463 129.265 70.9463L129.264 70.9481Z" fill="#E5BCFF"/>
<path d="M130.322 75.6374C129.683 75.9741 129.267 75.8986 128.841 75.86C128.724 75.8508 128.18 75.7294 127.668 75.6116L127.353 76.1875C127.353 76.1875 128.611 77.1921 128.775 78.9713C128.042 78.2776 127.344 77.5545 126.771 76.9455C126.244 76.3825 126.906 76.0256 127.681 75.2142C127.812 75.0799 127.943 74.9327 128.072 74.7689C128.14 74.6898 128.202 74.6052 128.265 74.5169C128.328 74.4249 128.392 74.3311 128.451 74.2354C128.506 74.1471 128.56 74.0551 128.611 73.9576C128.733 73.7312 128.843 73.4865 128.935 73.2142C128.956 73.1517 128.978 73.0836 128.998 73.0174C129.018 72.9548 129.037 72.8904 129.053 72.8279C129.053 72.8242 129.057 72.815 129.057 72.8113L129.061 72.8076C129.061 72.8076 130.95 73.7846 131.089 73.8527C131.227 73.9208 131.295 75.124 130.322 75.6411V75.6374Z" fill="#D89BFF"/>
<path d="M127.051 72.5762C127.675 72.5762 129.744 73.3471 130.818 74.0039C131.212 74.245 130.235 75.9634 129.132 75.7334C128.624 75.6286 127.526 75.3691 127.526 75.3691L127.016 76.1916C127.016 76.1916 130.504 79.5328 127.088 82.9716L122.816 79.9597L123.316 76.7288C123.454 75.7537 123.833 75.2716 124.494 74.5761C124.494 74.5761 126.428 72.5762 127.053 72.5762H127.051Z" fill="#E5BCFF"/>
<path d="M86.3887 88.1139C89.7539 91.0007 102.507 101.243 108.771 106.264C110.689 107.801 113.497 107.436 114.958 105.46C119.546 99.2471 127.312 88.7634 128.529 87.3264C130.329 85.2013 122.639 78.7341 121.147 80.8555C118.557 84.539 114.603 89.3816 112.648 91.8176C112.238 92.3291 111.479 92.3751 111.011 91.9151C108.005 88.9694 98.0883 79.2474 95.0106 76.1711C87.9599 69.128 81.5888 83.9925 86.3906 88.1121L86.3887 88.1139Z" fill="#E9C8FD"/>
<path d="M71.5664 340.088L74.6073 338.754L75.764 327.501L72.7231 328.835L71.5664 340.088Z" fill="#D088FF"/>
<path d="M72.7227 328.835L75.7636 327.501L76.1909 323.337L73.15 324.671L72.7227 328.835Z" fill="#CF84FF"/>
<path d="M73.1523 324.671L76.1933 323.337L77.6189 309.47L74.578 310.805L73.1523 324.671Z" fill="#D088FF"/>
<path d="M74.5781 310.806L77.6191 309.47L78.0464 305.309L75.0054 306.643L74.5781 310.806Z" fill="#CF84FF"/>
<path d="M75.0039 306.643L78.0448 305.309L79.4705 291.441L76.4295 292.775L75.0039 306.643Z" fill="#D088FF"/>
<path d="M76.4297 292.775L79.4706 291.441L79.8979 287.277L76.857 288.611L76.4297 292.775Z" fill="#CF84FF"/>
<path d="M76.8555 288.611L79.8964 287.277L81.322 273.41L78.2811 274.744L76.8555 288.611Z" fill="#D088FF"/>
<path d="M78.2812 274.743L81.3222 273.41L81.7495 269.242L78.7104 270.576L78.2812 274.743Z" fill="#CF84FF"/>
<path d="M78.7109 270.576L81.75 269.242L83.1756 255.375L80.1347 256.711L78.7109 270.576Z" fill="#D088FF"/>
<path d="M80.1367 256.711L83.1777 255.376L83.605 251.214L80.5659 252.548L80.1367 256.711Z" fill="#CF84FF"/>
<path d="M80.5664 252.547L83.6055 251.213L85.0311 237.346L81.992 238.68L80.5664 252.547Z" fill="#D088FF"/>
<path d="M81.9922 238.68L85.0313 237.346L85.4586 233.183L82.4195 234.517L81.9922 238.68Z" fill="#CF84FF"/>
<path d="M82.418 234.517L85.4571 233.183L86.8827 219.315L83.8436 220.649L82.418 234.517Z" fill="#D088FF"/>
<path d="M83.8438 220.649L86.8828 219.315L87.312 215.147L84.2711 216.481L83.8438 220.649Z" fill="#CF84FF"/>
<path d="M84.2695 216.481L87.3105 215.148L88.7342 201.28L85.6951 202.616L84.2695 216.481Z" fill="#D088FF"/>
<path d="M85.6953 202.617L88.7344 201.281L89.1636 197.119L86.1226 198.453L85.6953 202.617Z" fill="#CF84FF"/>
<path d="M86.125 198.452L89.1659 197.118L90.5897 183.251L87.5506 184.585L86.125 198.452Z" fill="#D088FF"/>
<path d="M87.5508 184.585L90.5899 183.252L91.019 179.088L87.9781 180.422L87.5508 184.585Z" fill="#CF84FF"/>
<path d="M87.9766 180.422L91.0175 179.088L92.4431 165.221L89.4022 166.555L87.9766 180.422Z" fill="#D088FF"/>
<path d="M89.4023 166.554L92.4433 165.22L92.8706 161.057L89.8297 162.392L89.4023 166.554Z" fill="#CF84FF"/>
<path d="M89.8281 162.392L92.8691 161.057L94.2947 147.186L91.2537 148.521L89.8281 162.392Z" fill="#D088FF"/>
<path d="M91.2539 148.522L94.2948 147.186L94.7222 143.024L91.6831 144.358L91.2539 148.522Z" fill="#CF84FF"/>
<path d="M91.6836 144.357L94.7227 143.024L96.1483 129.156L93.1074 130.49L91.6836 144.357Z" fill="#D088FF"/>
<path d="M93.1094 130.491L96.1503 129.157L96.5776 124.993L93.5385 126.327L93.1094 130.491Z" fill="#CF84FF"/>
<path d="M93.5391 126.327L96.5782 124.993L98.0038 111.126L94.9628 112.46L93.5391 126.327Z" fill="#D088FF"/>
<path d="M94.9609 112.46L98.0019 111.126L98.4292 106.962L95.3901 108.298L94.9609 112.46Z" fill="#CF84FF"/>
<path d="M95.3906 108.298L98.4297 106.962L99.8553 93.0967L96.8144 94.4306L95.3906 108.298Z" fill="#D088FF"/>
<path d="M96.8156 94.4305L99.8566 93.0966L96.4141 91.1113L93.375 92.4453L96.8156 94.4305Z" fill="#33EFF8"/>
<path d="M93.3735 92.4453L68.125 338.103L71.5675 340.088L72.7242 328.835L73.1515 324.671L74.5771 310.806L75.0044 306.642L76.43 292.775L76.8573 288.611L78.283 274.744L78.7121 270.577L80.1359 256.711L80.565 252.547L81.9907 238.68L82.418 234.516L83.8436 220.649L84.2709 216.482L85.6965 202.616L86.1238 198.453L87.5494 184.585L87.9768 180.422L89.4024 166.554L89.8297 162.393L91.2553 148.522L91.6845 144.358L93.1082 130.491L93.5374 126.327L94.9612 112.46L95.3903 108.298L96.8141 94.4306L93.3735 92.4453Z" fill="#8BF6FB"/>
<path d="M99.5223 339.881L102.563 338.547L76.1894 323.337L73.1484 324.671L99.5223 339.881Z" fill="#33EFF8"/>
<path d="M73.15 324.671L72.7227 328.835L99.0965 344.045L99.5238 339.881L73.15 324.671Z" fill="#8BF6FB"/>
<path d="M75.0015 306.643L74.5742 310.806L100.948 326.017L101.377 321.853L75.0015 306.643Z" fill="#8BF6FB"/>
<path d="M101.376 321.853L104.415 320.519L78.0409 305.309L75 306.643L101.376 321.853Z" fill="#33EFF8"/>
<path d="M76.857 288.611L76.4297 292.775L102.804 307.985L103.233 303.822L76.857 288.611Z" fill="#8BF6FB"/>
<path d="M103.231 303.822L106.27 302.488L79.8964 287.277L76.8555 288.611L103.231 303.822Z" fill="#33EFF8"/>
<path d="M105.085 285.787L108.124 284.453L81.75 269.242L78.7109 270.576L105.085 285.787Z" fill="#33EFF8"/>
<path d="M78.7104 270.576L78.2812 274.744L104.655 289.956L105.084 285.787L78.7104 270.576Z" fill="#8BF6FB"/>
<path d="M80.562 252.547L80.1328 256.711L106.509 271.921L106.936 267.757L80.562 252.547Z" fill="#8BF6FB"/>
<path d="M106.936 267.757L109.975 266.423L83.6016 251.213L80.5625 252.547L106.936 267.757Z" fill="#33EFF8"/>
<path d="M82.4156 234.517L81.9883 238.68L108.362 253.891L108.789 249.727L82.4156 234.517Z" fill="#8BF6FB"/>
<path d="M108.788 249.727L111.827 248.393L85.4532 233.183L82.4141 234.517L108.788 249.727Z" fill="#33EFF8"/>
<path d="M84.2711 216.481L83.8438 220.649L110.218 235.861L110.645 231.692L84.2711 216.481Z" fill="#8BF6FB"/>
<path d="M110.643 231.692L113.684 230.358L87.3105 215.147L84.2695 216.481L110.643 231.692Z" fill="#33EFF8"/>
<path d="M86.1226 198.452L85.6953 202.616L112.069 217.826L112.496 213.663L86.1226 198.452Z" fill="#8BF6FB"/>
<path d="M112.495 213.663L115.536 212.329L89.162 197.118L86.1211 198.452L112.495 213.663Z" fill="#33EFF8"/>
<path d="M87.9742 180.422L87.5469 184.586L113.921 199.796L114.348 195.632L87.9742 180.422Z" fill="#8BF6FB"/>
<path d="M114.347 195.632L117.387 194.298L91.0136 179.088L87.9727 180.422L114.347 195.632Z" fill="#33EFF8"/>
<path d="M116.202 177.603L119.243 176.269L92.8691 161.057L89.8281 162.392L116.202 177.603Z" fill="#33EFF8"/>
<path d="M89.8297 162.393L89.4023 166.554L115.776 181.767L116.204 177.603L89.8297 162.393Z" fill="#8BF6FB"/>
<path d="M91.6831 144.357L91.2539 148.521L117.628 163.732L118.057 159.568L91.6831 144.357Z" fill="#8BF6FB"/>
<path d="M118.057 159.568L121.097 158.234L94.7227 143.023L91.6836 144.357L118.057 159.568Z" fill="#33EFF8"/>
<path d="M93.5346 126.327L93.1055 130.491L119.479 145.701L119.908 141.538L93.5346 126.327Z" fill="#8BF6FB"/>
<path d="M119.909 141.538L122.948 140.204L96.5743 124.993L93.5352 126.327L119.909 141.538Z" fill="#33EFF8"/>
<path d="M95.3901 108.298L94.9609 112.46L121.335 127.672L121.764 123.508L95.3901 108.298Z" fill="#8BF6FB"/>
<path d="M121.764 123.508L124.804 122.174L98.4297 106.962L95.3906 108.298L121.764 123.508Z" fill="#33EFF8"/>
<path d="M81.5867 199.573C81.5867 199.573 81.5462 202.905 81.432 203.754C81.3178 204.602 85.4915 206.618 86.8489 206.296C90.2417 205.492 90.424 204.881 90.424 204.881L90.4719 203.849C90.4719 203.849 92.5311 204.537 94.4835 204.048C96.4359 203.557 104.113 199.581 102.037 196.789C100.149 194.25 95.9478 196.716 89.5768 196.766C83.5944 196.812 82.1595 198.046 81.5867 199.577V199.573Z" fill="#A92DF9"/>
<path d="M84.9996 131.644C84.9996 153.995 84.1708 160.79 84.1708 167.342C84.1708 167.342 81.3711 190.097 81.3711 199.144C81.3711 200.848 82.8428 202.219 88.3408 202.324C90.4202 202.364 94.6123 201.133 94.6123 199.35C94.6123 185.063 96.0472 180.747 99.217 164.113C102.4 147.41 102.391 139.423 102.391 133.278C102.391 117.797 84.9996 111.368 84.9996 131.644Z" fill="#8339F7"/>
<path d="M102.386 133.276C102.386 139.42 102.398 147.41 99.2147 164.113C99.1171 164.63 99.0177 165.143 98.9237 165.64C95.9546 181.027 94.6082 185.515 94.6082 199.349C94.6082 200.637 92.4108 201.641 90.4106 202.081C90.359 185.664 95.1884 168.755 94.9803 167.664C94.7574 166.488 95.6433 144.38 95.6433 144.38L102.374 132.658C102.379 132.866 102.385 133.067 102.385 133.28L102.386 133.276Z" fill="#8339F7"/>
<path d="M98.2312 208.892C98.2312 208.892 98.1907 212.224 98.0765 213.072C97.9623 213.92 102.136 215.937 103.493 215.615C106.886 214.811 107.069 214.2 107.069 214.2L107.116 213.168C107.116 213.168 109.176 213.856 111.128 213.366C113.08 212.875 120.757 208.899 118.682 206.108C116.794 203.569 112.592 206.034 106.221 206.084C100.239 206.13 98.8041 207.364 98.2312 208.895V208.892Z" fill="#A92DF9"/>
<path d="M94.0302 134.715C95.5221 142.31 98.9148 168.708 98.9148 168.708C98.9148 168.708 97.9957 192.986 97.9957 208.055C97.9957 209.758 99.7326 211.709 105.229 211.813C107.308 211.854 111.191 210.623 111.191 208.838C111.191 193.635 112.344 189.258 113.998 172.425C116.615 145.793 116.475 137.022 116.475 137.022C116.475 119.629 90.9837 119.199 94.0302 134.713V134.715Z" fill="#B448FA"/>
<path d="M113.998 172.423C112.346 189.26 111.189 193.637 111.189 208.839C111.189 209.712 110.252 210.458 109.055 210.982C109.484 203.4 110.863 178.754 110.904 175.338C110.95 171.301 114.002 145.092 114.002 139.75C114.002 136.165 112.002 129.607 110.692 125.683C114.002 127.841 116.474 131.609 116.474 137.022C116.474 137.022 116.614 145.795 113.996 172.423H113.998Z" fill="#8339F7"/>
<path d="M104.595 170.022C104.595 170.022 101.211 169.933 100.014 170.622C99.0084 171.207 98.7082 175.534 98.6363 176.874C98.7911 171.983 98.9163 168.706 98.9163 168.706C98.9163 168.706 98.5535 165.88 98.0156 161.807C98.3416 163.851 99.13 167.391 100.736 168.327C103.042 169.672 104.597 170.02 104.597 170.02L104.595 170.022Z" fill="#8339F7"/>
<path d="M116.432 139.714C114.476 141.5 111.018 143.438 107.611 144.005C104.102 144.584 88.3541 135.839 85 132.43V131.64C85 116.185 95.1045 116.248 99.9063 124.009C106.631 121.955 116.474 126.215 116.474 137.022C116.474 137.022 116.489 137.834 116.432 139.712V139.714Z" fill="#8339F7"/>
<path d="M84.8114 80.2516C84.9533 77.6905 89.2798 72.8737 93.2657 74.7706C95.8719 76.0107 100.523 78.0806 103.416 79.6739C105.387 80.7594 111.277 84.0363 114.121 85.5873C118.186 87.8044 117.836 90.9285 117.836 94.658C117.836 108.746 115.864 122.072 115.864 125.861C115.864 129.649 117.497 136.654 116.396 137.815C114.644 139.66 110.986 141.848 107.382 142.446C103.641 143.066 85.4616 132.683 84.9533 130.426C84.4449 128.168 85.5114 123.331 85.5371 118.902C85.6311 102.722 84.2165 91.0481 84.817 80.2516H84.8114Z" fill="#F9F0FF"/>
<path d="M115.858 125.86C115.858 129.648 117.495 136.651 116.392 137.815C115.792 138.446 114.972 139.114 114.003 139.751C113.766 133.721 113.615 125.492 113.615 125.492C110.557 125.637 106.324 123.633 106.07 123.514C107.547 123.834 112.371 124.082 113.79 123.508C115.21 122.929 114.521 113.865 114.438 112.397C114.35 110.932 110.48 102.263 110.48 102.263L117.693 101.409C117.241 112.811 115.858 122.686 115.858 125.858V125.86Z" fill="#E9C8FD"/>
<path d="M105.169 74.2166C105.169 77.534 106.946 81.6314 106.946 81.6314L104.45 83.0371C101.711 84.474 98.186 83.8577 96.5872 82.9856C94.9885 82.1135 95.2114 80.8476 95.5374 79.4769C95.8781 78.0436 96.9519 75.1586 96.4565 72.7097L99.816 71.2305L105.17 74.2185L105.169 74.2166Z" fill="#EFD5FF"/>
<path d="M96.8748 80.6459C99.0059 82.116 101.863 82.0516 106.106 79.5456C106.106 79.5456 107.208 81.0212 107.851 82.1288C107.851 82.1288 101.616 87.3376 96.1252 83.6633C92.4672 81.2144 96.2504 76.7324 96.2504 76.7324C96.2504 76.7324 95.3387 79.5879 96.8748 80.6477V80.6459Z" fill="#E9C8FD"/>
<path d="M90.0212 61.7943C90.3583 68.4345 92.1302 80.5373 108.016 78.9697C110.783 78.6974 112.348 78.3994 112.958 62.7382C113.345 52.8285 108.081 50.7642 101.708 50.9408C90.5204 51.2517 89.9144 59.6748 90.0212 61.7943Z" fill="#EFD5FF"/>
<path d="M100.281 50.315C103.848 49.7906 107.412 50.1163 110.291 52.8522C110.903 53.4336 111.991 54.2855 112.768 54.6167C112.984 54.7087 113.161 54.8522 113.255 55.0711C113.643 55.9763 116.216 60.2412 112.978 63.2311C112.225 63.9284 111.518 64.6312 110.938 65.2329C109.978 66.2246 109.411 67.5235 109.328 68.8998C109.23 70.5483 109.068 72.655 108.913 73.0911C108.654 73.827 107.845 73.6651 107.65 72.436C107.456 71.207 107.812 66.714 104.834 68.6551C102.878 69.9283 103.71 71.9062 104.834 73.8049C105.961 75.7092 101.192 78.964 96.9246 77.0523C94.2944 75.873 90.6015 70.9917 89.745 64.806C88.7522 57.647 91.4616 51.6121 100.281 50.315Z" fill="#DDA9FF"/>
<path d="M112.981 63.2288C112.226 63.9279 111.517 64.6308 110.94 65.2324C109.977 66.2241 109.41 67.5194 109.329 68.8956C109.227 70.546 109.065 72.6509 108.913 73.0906C108.655 73.8247 107.844 73.6628 107.651 72.4319C107.454 71.2029 107.813 66.7135 104.835 68.6509C102.879 69.926 103.709 71.9039 104.835 73.8026C105.96 75.7051 101.191 78.9635 96.9274 77.0519C94.4556 75.948 91.061 71.5874 89.9375 65.95C90.6466 67.3115 91.7352 68.3381 93.3726 68.673C97.2479 69.4678 100.024 68.2774 101.685 67.1146C103.251 66.0272 104.999 65.2379 106.802 64.6105C114.83 61.8323 112.769 54.6162 112.769 54.6162C112.983 54.7082 113.16 54.8499 113.256 55.0725C113.646 55.974 116.219 60.2389 112.981 63.2306V63.2288Z" fill="#CC7DFF"/>
<path d="M101.383 357.283L104.424 355.949L129.67 110.292L126.629 111.626L101.383 357.283Z" fill="#D088FF"/>
<path d="M123.188 109.641L97.9414 355.298L101.384 357.283L126.63 111.626L123.188 109.641Z" fill="#8BF6FB"/>
<path d="M126.63 111.626L129.671 110.292L126.228 108.307L123.188 109.641L126.63 111.626Z" fill="#33EFF8"/>
<path d="M123.832 64.2628L126.602 63.4717L133.058 96.415L130.288 97.2062L123.832 64.2628Z" fill="#D99FFF"/>
<path d="M122.293 64.502L125.063 63.709L126.601 63.4717L123.831 64.2628L122.293 64.502Z" fill="#D088FF"/>
<path d="M123.831 64.2627L130.287 97.206L128.749 97.4452L122.293 64.5019L123.831 64.2627Z" fill="#E3B8FF"/>
<path d="M119.031 58.3589L129.716 55.3047L131.25 63.1353L120.566 66.1877L119.031 58.3589Z" fill="#8339F7"/>
<path d="M115.551 58.898L126.236 55.8456L129.715 55.3047L119.03 58.3589L115.551 58.898Z" fill="#8339F7"/>
<path d="M119.03 58.3594L120.564 66.1881L117.085 66.7291L115.551 58.8985L119.03 58.3594Z" fill="#B851FA"/>
<path d="M124.723 76.8938C124.723 76.8938 123.524 77.3961 123.412 77.9094C123.299 78.4227 122.819 82.1099 122.786 82.7667C122.754 83.4235 124.819 88.0564 124.946 88.2588C125.073 88.4612 125.167 90.5863 125.394 91.3977C126.101 93.9459 133.402 92.5071 133.172 90.9671C132.942 89.4326 132.881 88.4281 132.881 88.4281C132.881 88.4281 134.316 87.1641 134.846 86.0601C135.375 84.9562 133.467 76.2277 133.467 76.2277L128.952 75.4531L129.599 78.7521L126.924 80.0326L125.224 79.4494L124.723 76.8938Z" fill="#EFD5FF"/>
<path d="M132.768 114.673C132.93 111.394 133.74 90.5555 133.77 89.0652C133.827 86.2814 124.914 85.9134 124.702 88.5886C124.348 93.0761 122.18 106.903 122.289 112.631C122.4 118.358 132.604 117.952 132.766 114.673H132.768Z" fill="#F9F0FF"/>
<path d="M133.77 89.0652C133.739 90.5537 132.928 111.394 132.768 114.673C132.608 117.953 122.4 118.36 122.289 112.632C122.221 109.17 122.987 102.749 123.684 97.2178L128.279 104.024C129.285 105.512 131.606 104.853 131.681 103.061L132.326 87.4111C133.203 87.792 133.785 88.3476 133.77 89.067V89.0652Z" fill="#E9C8FD"/>
<path d="M107.279 98.3583C110.047 102.969 115.052 108.728 120.808 116.087C127.282 124.365 135.104 116.5 132.108 112.187C129.715 108.743 121.688 94.7631 116.518 87.5581C113.578 83.4625 103.229 91.6151 107.279 98.3583Z" fill="#F9F0FF"/>
<path opacity="0.25" d="M120.807 116.087C117.176 111.443 113.843 107.436 111.179 103.953C111.176 103.878 111.172 103.839 111.172 103.839C111.172 103.839 121.391 117.117 123.829 117.982C126.268 118.847 131.346 118.039 131.731 111.625C131.867 111.835 131.994 112.021 132.108 112.185C135.103 116.497 127.281 124.365 120.809 116.085L120.807 116.087Z" fill="black"/>
<path d="M127.848 368.615L127.839 372.063L126.848 372.639L126.857 369.189L127.848 368.615Z" fill="#8339F7"/>
<path d="M137.582 371.376L137.571 374.825L136.324 374.106L136.333 370.656L137.582 371.376Z" fill="#8339F7"/>
<path d="M137.582 371.375L137.57 374.825L134.113 376.832L134.122 373.382L137.582 371.375Z" fill="#8339F7"/>
<path d="M134.125 373.383L134.116 376.832L126.848 372.639L126.857 369.189L134.125 373.383Z" fill="#8339F7"/>
<path d="M134.125 373.55L134.116 377L126.555 372.639L126.566 369.191L134.125 373.55Z" fill="#8339F7"/>
<path d="M137.873 371.375L137.864 374.825L134.117 377L134.126 373.55L137.873 371.375Z" fill="#8339F7"/>
<path d="M136.56 370.619L136.334 370.656L135.026 370.871L133.943 370.246L132.007 370.161L130.939 369.28L129.337 369.3L127.847 368.615L127.686 368.54L126.566 369.191L134.125 373.55L137.872 371.375L136.56 370.619Z" fill="#E9C8FD"/>
<path d="M216.555 352.624L216.548 355.362L212.23 352.871L212.24 350.133L216.555 352.624Z" fill="#8339F7"/>
<path d="M212.238 350.132L216.513 347.65L220.831 350.14L216.554 352.624L212.238 350.132Z" fill="#E9C8FD"/>
<path d="M220.831 350.14L220.824 352.879L216.547 355.361L216.554 352.624L220.831 350.14Z" fill="#8339F7"/>
<path d="M298.016 276.818L298.009 279.556L293.691 277.065L293.699 274.327L298.016 276.818Z" fill="#8339F7"/>
<path d="M293.699 274.327L297.976 271.845L302.293 274.334L298.017 276.818L293.699 274.327Z" fill="#E9C8FD"/>
<path d="M302.292 274.334L302.285 277.074L298.008 279.556L298.015 276.818L302.292 274.334Z" fill="#8339F7"/>
<path d="M50.5044 285.372L50.4952 288.11L46.1797 285.619L46.1871 282.881L50.5044 285.372Z" fill="#8339F7"/>
<path d="M46.1875 282.88L50.4625 280.398L54.7799 282.888L50.5049 285.372L46.1875 282.88Z" fill="#E9C8FD"/>
<path d="M54.7803 282.888L54.7729 285.625L50.4961 288.109L50.5053 285.372L54.7803 282.888Z" fill="#8339F7"/>
<path d="M303.598 254.789L303.591 257.527L299.273 255.036L299.281 252.298L303.598 254.789Z" fill="#8339F7"/>
<path d="M299.281 252.297L303.558 249.815L307.875 252.305L303.599 254.789L299.281 252.297Z" fill="#E9C8FD"/>
<path d="M307.874 252.305L307.867 255.044L303.59 257.526L303.597 254.789L307.874 252.305Z" fill="#8339F7"/>
<path d="M71.5961 239.578L71.5869 242.316L67.2695 239.825L67.2787 237.087L71.5961 239.578Z" fill="#8339F7"/>
<path d="M67.2773 237.087L71.5523 234.604L75.8697 237.094L71.5947 239.578L67.2773 237.087Z" fill="#E9C8FD"/>
<path d="M75.8701 237.094L75.8628 239.832L71.5859 242.315L71.5951 239.578L75.8701 237.094Z" fill="#8339F7"/>
<path d="M38.5685 260.877L38.5538 266.196L30.1641 261.359L30.1788 256.038L38.5685 260.877Z" fill="#8339F7"/>
<path d="M30.1797 256.038L38.4902 251.216L46.8781 256.053L38.5694 260.877L30.1797 256.038Z" fill="#E9C8FD"/>
<path d="M46.8781 256.053L46.8634 261.374L38.5547 266.196L38.5694 260.877L46.8781 256.053Z" fill="#8339F7"/>
<path d="M47.8529 321.286L47.8437 324.65L42.5391 321.592L42.5483 318.229L47.8529 321.286Z" fill="#8339F7"/>
<path d="M42.5469 318.228L47.7999 315.178L53.1045 318.237L47.8515 321.286L42.5469 318.228Z" fill="#E9C8FD"/>
<path d="M53.106 318.237L53.0968 321.601L47.8438 324.649L47.853 321.286L53.106 318.237Z" fill="#8339F7"/>
<path d="M54.8824 352.598L54.525 361.414L54.293 366.025L54.6503 357.208L54.8824 352.598Z" fill="#F3F3F3"/>
<path d="M46.9927 353.479L46.6354 362.295L44.2852 361.521L44.6406 352.704L46.9927 353.479Z" fill="#8339F7"/>
<path d="M47.2059 357.024L46.8504 365.843L46.6367 362.295L46.994 353.479L47.2059 357.024Z" fill="#8339F7"/>
<path d="M54.6498 357.208L54.2925 366.025L46.8477 365.843L47.2031 357.024L54.6498 357.208Z" fill="#8339F7"/>
<path d="M54.6512 357.208L47.2045 357.024L46.9927 353.479L44.6406 352.704L51.9529 351.293L54.8833 352.597L54.6512 357.208Z" fill="#E9C8FD"/>
<path d="M329.998 284.045L329.726 296.326L313.965 297.075L314.239 284.794L329.998 284.045Z" fill="#8339F7"/>
<path d="M329.997 284.045L314.238 284.794L319.315 277.48L327.257 278.338L329.997 284.045Z" fill="#E9C8FD"/>
<path d="M284.011 244.516L289.662 241.237L289.655 243.684L284.004 246.965L284.011 244.516Z" fill="#8339F7"/>
<path d="M282.996 242.08L288.647 238.8L289.662 241.238L284.011 244.516L282.996 242.08Z" fill="#E9C8FD"/>
<path d="M282.965 238.995L288.616 235.716L288.647 238.799L282.996 242.08L282.965 238.995Z" fill="#8339F7"/>
<path d="M281.68 236.917L287.329 233.637L288.616 235.716L282.965 238.994L281.68 236.917Z" fill="#E9C8FD"/>
<path d="M280.852 234.63L286.502 231.352L287.331 233.637L281.682 236.917L280.852 234.63Z" fill="#8339F7"/>
<path d="M280.85 234.63L281.681 236.917L282.967 238.994L282.998 242.08L284.013 244.516L284.005 246.965L281.2 245.345L279.309 242.587L280.078 239.301L279.327 236.453L280.85 234.63Z" fill="#8339F7"/>
<path d="M37.5252 225.173L37.5491 233.959L34.6979 232.303L34.6758 223.518L37.5252 225.173Z" fill="#8339F7"/>
<path d="M41.0506 225.634L41.0746 234.419L37.5474 233.959L37.5234 225.174L41.0506 225.634Z" fill="#8339F7"/>
<path d="M44.6701 227.672L44.694 236.46L41.0747 234.419L41.0508 225.634L44.6701 227.672Z" fill="#8339F7"/>
<path d="M47.9633 227.572L47.9873 236.36L44.6958 236.459L44.6719 227.672L47.9633 227.572Z" fill="#8339F7"/>
<path d="M51.19 228.146L51.2139 236.932L47.9888 236.36L47.9648 227.572L51.19 228.146Z" fill="#8339F7"/>
<path d="M51.1882 228.147L47.9631 227.573L44.6716 227.672L41.0524 225.633L37.5252 225.174L34.6758 223.518L38.4516 221.339L42.944 220.995L46.2593 224.103L50.0886 225.144L51.1882 228.147Z" fill="#E9C8FD"/>
<path d="M12.7049 285.321L9.33797 280.289L1.22266 284.999L4.58961 290.031L6.86801 293.639L14.9833 288.927L12.7049 285.321Z" fill="#8339F7"/>
<path d="M6.86719 293.64L14.9825 288.928L19.3588 291.732L11.2435 296.442L6.86719 293.64Z" fill="#E9C8FD"/>
<path d="M11.2436 296.442L19.3589 291.731L19.3497 295.281L11.2344 299.991L11.2436 296.442Z" fill="#8339F7"/>
<path d="M1.22116 284.999L4.58812 290.031L6.86652 293.639L11.2428 296.441L11.2336 299.99L0.318645 293.696L0 286.403L1.22116 284.999Z" fill="#8339F7"/>
<path d="M295.763 342.191L303.484 341.761L303.569 329.796L295.849 330.226L290.401 330.387L290.316 342.351L295.763 342.191Z" fill="#8339F7"/>
<path d="M290.403 330.387L290.318 342.352L284.395 345.336L284.479 333.371L290.403 330.387Z" fill="#8339F7"/>
<path d="M284.478 333.37L284.394 345.335L280.496 343.021L280.581 331.058L284.478 333.37Z" fill="#8339F7"/>
<path d="M303.571 329.796L295.851 330.226L290.403 330.387L284.479 333.371L280.582 331.058L294.591 323.163L302.819 327.546L303.571 329.796Z" fill="#E9C8FD"/>
</svg>
