<svg width="100" height="100" viewBox="0 0 100 100" fill="none" xmlns="http://www.w3.org/2000/svg">
<path d="M75 18L68 25L75 32" stroke="black" stroke-width="3" stroke-linecap="round" stroke-linejoin="round"/>
<path d="M68 25H84" stroke="black" stroke-width="3" stroke-linecap="round" stroke-linejoin="round"/>
<path d="M84 68.964C84 67.7705 83.5236 66.6259 82.6756 65.782C81.8276 64.9381 80.6775 64.464 79.4783 64.464H74.5375C73.8935 64.4637 73.257 64.3266 72.6706 64.0617C72.0841 63.7968 71.5613 63.4103 71.1372 62.928L59.869 50.109L61.6596 48.837C62.4262 48.2911 63.3456 47.9984 64.2882 48H74.9565C76.1558 48 77.3059 47.5259 78.1539 46.682C79.0019 45.8381 79.4783 44.6935 79.4783 43.5C79.4783 42.3066 79.0019 41.162 78.1539 40.3181C77.3059 39.4741 76.1558 39 74.9565 39H64.2882C61.4606 38.9938 58.7026 39.8733 56.4053 41.514L45.2969 49.416C44.5301 49.961 43.6106 50.2527 42.6683 50.25H36.5217C35.3225 50.25 34.1724 50.7241 33.3244 51.568C32.4764 52.412 32 53.5565 32 54.75C32 55.9435 32.4764 57.0881 33.3244 57.932C34.1724 58.7759 35.3225 59.25 36.5217 59.25H42.6683C45.4959 59.2563 48.2539 58.3767 50.5512 56.736L52.4744 55.368L57.6232 61.239L52.9055 64.998C51.3131 66.2588 50.0279 67.8617 49.1462 69.6868C48.2644 71.5119 47.809 73.5119 47.814 75.537V79.5C47.814 80.6935 48.2904 81.8381 49.1384 82.682C49.9864 83.5259 51.1365 84 52.3358 84C53.535 84 54.6851 83.5259 55.5331 82.682C56.3811 81.8381 56.8575 80.6935 56.8575 79.5V75.537C56.8556 74.8621 57.0077 74.1955 57.3022 73.5875C57.5967 72.9795 58.0259 72.446 58.5577 72.027L63.5859 68.022L64.3214 68.856C65.5943 70.3031 67.1632 71.4629 68.923 72.2576C70.6828 73.0523 72.5929 73.4636 74.5255 73.464H79.4783C80.6775 73.464 81.8276 72.9899 82.6756 72.146C83.5236 71.3021 84 70.1575 84 68.964Z" stroke="#00CCF5" stroke-width="3" stroke-linecap="round" stroke-linejoin="round"/>
<path d="M35 32C35 34.1217 35.8429 36.1566 37.3431 37.6569C38.8434 39.1571 40.8783 40 43 40C45.1217 40 47.1566 39.1571 48.6569 37.6569C50.1571 36.1566 51 34.1217 51 32C51 29.8783 50.1571 27.8434 48.6569 26.3431C47.1566 24.8429 45.1217 24 43 24C40.8783 24 38.8434 24.8429 37.3431 26.3431C35.8429 27.8434 35 29.8783 35 32Z" stroke="#00CCF5" stroke-width="3" stroke-linecap="round" stroke-linejoin="round"/>
<path d="M57 20.5333C57 19.331 56.52 18.1779 55.6657 17.3278C54.8114 16.4776 53.6527 16 52.4444 16H20.5556C19.3473 16 18.1886 16.4776 17.3343 17.3278C16.48 18.1779 16 19.331 16 20.5333V79.4667C16 80.669 16.48 81.8221 17.3343 82.6722C18.1886 83.5224 19.3473 84 20.5556 84H34.2222" stroke="black" stroke-width="3" stroke-linecap="round" stroke-linejoin="round"/>
</svg>
