<svg width="100" height="100" viewBox="0 0 100 100" fill="none" xmlns="http://www.w3.org/2000/svg">
<path d="M77.5195 77.5195C77.5195 78.6511 77.0738 79.7363 76.2804 80.5365C75.4869 81.3366 74.4108 81.7861 73.2888 81.7861H26.7503C25.6282 81.7861 24.5521 81.3366 23.7587 80.5365C22.9653 79.7363 22.5195 78.6511 22.5195 77.5195V22.0528C22.5195 20.9212 22.9653 19.836 23.7587 19.0358C24.5521 18.2357 25.6282 17.7861 26.7503 17.7861H56.7295C57.8508 17.7864 58.9262 18.2355 59.7193 19.0348L76.2813 35.7374C77.0739 36.5373 77.5193 37.6217 77.5195 38.7525V77.5195Z" stroke="black" stroke-width="3" stroke-linecap="round" stroke-linejoin="round"/>
<path d="M77.5195 38.7861H60.7195C59.6056 38.7861 58.5373 38.3436 57.7497 37.556C56.962 36.7683 56.5195 35.7 56.5195 34.5861V17.7861" stroke="black" stroke-width="3" stroke-linecap="round" stroke-linejoin="round"/>
<path d="M33.1019 49.2372C33.7325 50.0642 34.5536 50.7271 35.4954 51.1699C36.4372 51.6128 37.472 51.8224 38.5122 51.781C41.8289 51.781 44.5195 49.7663 44.5195 47.2836C44.5195 44.8009 41.8377 42.7891 38.5239 42.7891C35.2101 42.7891 32.5195 40.7745 32.5195 38.2888C32.5195 35.8032 35.2101 33.7914 38.5239 33.7914C39.5642 33.7493 40.5993 33.9586 41.5413 34.4015C42.4832 34.8444 43.3041 35.5077 43.9342 36.3352" stroke="#3DD3F2" stroke-width="3" stroke-linecap="round" stroke-linejoin="round"/>
<path d="M38.5195 51.7861V54.7861" stroke="#3DD3F2" stroke-width="3" stroke-linecap="round" stroke-linejoin="round"/>
<path d="M38.5195 30.7861V33.7861" stroke="#3DD3F2" stroke-width="3" stroke-linecap="round" stroke-linejoin="round"/>
<path d="M49.5195 58.7861H67.5195" stroke="black" stroke-width="3" stroke-linecap="round" stroke-linejoin="round"/>
<path d="M34.5195 71.7861H67.5195" stroke="black" stroke-width="3" stroke-linecap="round" stroke-linejoin="round"/>
</svg>
