<svg width="100" height="100" viewBox="0 0 100 100" fill="none" xmlns="http://www.w3.org/2000/svg">
<path d="M29.5039 49.5625L34.0586 44.6718C34.5115 44.1862 35.1255 43.9135 35.7657 43.9135C36.4059 43.9135 37.0199 44.1862 37.4728 44.6718L40.313 47.7278C40.7659 48.2134 41.3799 48.4862 42.0201 48.4862C42.6603 48.4862 43.2743 48.2134 43.7272 47.7278L50.5009 40.4718C50.9538 39.9862 51.5678 39.7135 52.208 39.7135C52.8482 39.7135 53.4622 39.9862 53.9151 40.4718L59.1109 46.0478C59.5638 46.5334 60.1778 46.8062 60.818 46.8062C61.4582 46.8062 62.0722 46.5334 62.5251 46.0478L70.5039 37.5625" stroke="#3DD3F2" stroke-width="3" stroke-linecap="round" stroke-linejoin="round"/>
<path d="M49.5039 21.5625V25.5625" stroke="black" stroke-width="3" stroke-linecap="round" stroke-linejoin="round"/>
<path d="M75.9706 25.5625H24.0372C22.6381 25.5625 21.5039 26.6711 21.5039 28.0387V62.0863C21.5039 63.4539 22.6381 64.5625 24.0372 64.5625H75.9706C77.3697 64.5625 78.5039 63.4539 78.5039 62.0863V28.0387C78.5039 26.6711 77.3697 25.5625 75.9706 25.5625Z" stroke="black" stroke-width="3" stroke-linecap="round" stroke-linejoin="round"/>
<path d="M49.5039 64.5625V72.5625" stroke="black" stroke-width="3" stroke-linecap="round" stroke-linejoin="round"/>
<path d="M42.5039 78.5625L50.0076 72.5625L57.5039 78.5573" stroke="black" stroke-width="3" stroke-linecap="round" stroke-linejoin="round"/>
</svg>
