<svg width="712" height="644" viewBox="0 0 712 644" fill="none" xmlns="http://www.w3.org/2000/svg">
<g clip-path="url(#clip0_1298_529)">
<path d="M376.577 -90.5159C378.008 -89.278 379.695 -88.3769 381.517 -87.8791C383.833 -87.8791 383.524 -87.8792 376.269 -76.8675C362.557 -56.3516 356.44 -31.6545 358.98 -7.07433C360.987 42.5564 379.202 85.0526 424.429 144.61C458.697 190.363 469.039 214.403 462.71 235.341C459.314 246.508 450.67 254.573 423.348 272.254C401.992 285.098 383.201 301.824 367.933 321.574C350.781 344.972 327.849 363.468 301.405 375.237C294.922 378.029 274.855 384.698 256.64 390.747C196.44 409.048 184.246 414.632 165.569 431.693C146.891 448.753 139.173 468.915 136.858 521.648C134.542 574.381 131.147 589.735 120.032 606.176C114.141 614.982 105.828 621.88 96.1071 626.027C82.8371 632.657 68.1655 635.957 53.349 635.643C20.9339 637.039 -1.91061 632.231 -67.8226 610.207C-147.935 583.376 -154.727 581.515 -174.948 579.188C-188.338 576.497 -202.241 578.473 -214.363 584.789C-226.487 591.105 -236.105 601.384 -241.631 613.93C-265.094 653.789 -279.295 668.678 -304.301 681.087C-329.562 691.92 -356.646 697.815 -384.105 698.456C-416.772 699.842 -449.498 698.023 -481.814 693.028L-519.478 688.841H-523.8V680.621C-523.8 675.968 -523.8 671.781 -522.41 671.47C-515.065 671.456 -507.731 672.079 -500.491 673.331C-475.663 677.084 -450.581 678.9 -425.473 678.76C-392.75 680.298 -360.087 674.634 -329.77 662.164C-303.684 649.602 -292.724 635.178 -269.57 583.221C-256.913 554.838 -243.792 543.981 -218.323 541.5C-199.337 539.793 -170.626 547.858 -118.762 569.417C-77.8893 588.645 -34.7271 602.511 9.66562 610.673C61.2218 617.187 93.1736 599.04 102.281 558.405C104.799 540.633 105.933 522.692 105.676 504.742C107.066 458.214 108.456 445.495 115.093 427.194C119.755 413.374 128.08 401.095 139.173 391.677C159.857 372.446 181.005 365.156 232.869 358.486C302.486 349.802 322.552 340.961 358.209 302.962C371.92 287.551 387.473 273.903 404.516 262.327C426.128 246.817 433.382 239.993 438.012 231.308C448.2 211.921 441.253 189.587 411.463 145.54C375.96 93.2727 360.833 61.478 352.498 21.4633C348.418 -3.96342 348.418 -29.8827 352.498 -55.3095C355.96 -69.1388 362.803 -81.8801 372.409 -92.3771C374.04 -91.7583 375.553 -90.8671 376.887 -89.7408L376.577 -90.5159Z" fill="#EA716E" fill-opacity="0.1"/>
<path d="M331.038 -88.814C324.613 -68.8376 322.464 -47.7159 324.733 -26.8418C329.589 26.5238 345.295 78.3118 370.873 125.3C388.407 161.399 391.176 169.301 391.329 185.258C391.329 206.174 384.716 216.244 355.648 242.583C311.044 282.09 295.357 290.147 256.752 293.71C230.671 294.873 204.54 293.888 178.62 290.766C154.732 287.686 130.462 290.232 107.716 298.202C79.7245 310.752 63.1129 337.865 54.6545 385.274C50.1667 412.151 47.903 439.357 47.8871 466.612C46.5026 509.993 44.9641 519.909 37.7349 534.937C27.584 555.078 6.05157 564.063 -23.7853 560.656C-53.6235 557.247 -77.1551 549.345 -134.832 523.782C-192.508 498.218 -208.35 492.796 -232.343 492.021C-245.188 490.088 -258.311 492.3 -269.831 498.339C-281.352 504.379 -290.68 513.936 -296.479 525.641C-301.935 537.563 -306.761 549.769 -310.936 562.205C-316.32 577.698 -322.625 594.12 -325.086 599.233C-330.935 611.21 -339.275 621.779 -349.542 630.219C-371.215 643.518 -395.631 651.628 -420.906 653.924C-448.028 656.261 -475.299 656.261 -502.422 653.924L-523.8 652.065V636.261H-484.427C-466.476 637.206 -448.476 636.168 -430.749 633.163C-406.966 630.264 -384.582 620.283 -366.46 604.501C-353.616 591.612 -344.293 575.603 -339.39 558.022C-332.721 537.142 -323.961 517.001 -313.244 497.908C-308.154 489.761 -301.413 482.789 -293.461 477.448C-285.509 472.109 -276.527 468.521 -267.102 466.922C-254.613 464.43 -241.757 464.43 -229.266 466.922C-206.351 470.485 -190.97 475.908 -125.296 503.176C-81.3086 521.302 -60.8528 526.416 -35.6288 525.485C-29.6445 526.099 -23.5997 525.392 -17.9156 523.412C-12.2314 521.431 -7.04343 518.227 -2.71481 514.021C8.51266 503.176 14.8193 483.034 17.895 448.485C21.2628 407.933 27.3774 367.661 36.1978 327.949C49.5784 278.682 74.4944 258.851 123.404 258.851C132.786 258.851 150.473 260.09 162.931 261.485L202.766 266.287C225.746 269.204 248.999 269.204 271.978 266.287C300.302 259.763 326.024 244.81 345.803 223.372C358.971 213.359 368.094 198.886 371.489 182.625C374.411 167.131 371.489 154.272 353.186 110.427C332.696 63.8209 319.617 14.2561 314.428 -36.4474C312.785 -53.5468 313.822 -70.7999 317.504 -87.5743C318.734 -92.2222 318.888 -92.3771 325.039 -92.3771C331.192 -92.3771 331.192 -92.3775 330.27 -89.4338L331.038 -88.814Z" fill="#EA716E" fill-opacity="0.1"/>
<path d="M255.716 -89.2762C255.716 -87.5706 257.411 -79.8178 258.645 -71.7548C259.878 -63.692 263.269 -48.3415 266.045 -37.3325C268.819 -26.3235 274.676 -4.77096 278.839 10.8897C286.855 37.938 291.261 65.9387 291.941 94.155C291.941 120.67 287.317 134.315 275.139 145.324C267.552 152.116 258.377 156.863 248.471 159.123C236.076 162.494 223.171 163.546 210.397 162.225C178.027 162.225 170.782 161.294 107.89 147.805C44.9985 134.315 24.9599 131.523 5.38318 133.229C-32.0738 136.33 -49.4922 151.37 -56.2753 186.413C-57.3545 191.995 -58.5876 212.307 -59.5115 234.015C-58.6705 262.278 -62.5793 290.481 -71.0733 317.435C-74.3398 330.306 -80.7649 342.145 -89.7603 351.871C-98.7544 361.595 -110.032 368.896 -122.557 373.1C-141.518 379.457 -149.225 380.233 -208.88 380.388C-232.185 379.613 -255.516 380.442 -278.707 382.868C-310.979 387.659 -341.494 400.684 -367.342 420.702C-373.971 425.354 -395.089 444.426 -414.51 463.032C-459.521 506.138 -482.951 523.505 -516.093 537.615L-523.8 541.026V519.007L-514.706 512.961C-488.038 495.129 -454.743 470.631 -431.466 451.713C-404.546 428.191 -374.888 408.041 -343.14 391.708C-307.532 373.876 -283.024 369.223 -214.121 366.588C-189.847 366.675 -165.643 363.97 -141.98 358.525C-127.525 354.695 -114.434 346.845 -104.211 335.876C-93.9862 324.906 -87.0426 311.26 -84.1748 296.503C-78.0695 271.149 -75.9375 244.991 -77.855 218.974C-77.855 171.528 -76.9298 161.915 -70.456 147.494C-65.2693 137.672 -57.6164 129.386 -48.259 123.46C-28.781 114.354 -7.11176 111.072 14.1693 114.002C41.2964 116.523 68.1615 121.347 94.4792 128.422C161.995 143.927 168.161 144.858 201.149 144.858C214.661 146.477 228.359 145.263 241.382 141.292C249.704 139.24 257.371 135.088 263.655 129.229C269.939 123.368 274.635 115.993 277.297 107.799C279.949 97.6932 280.836 87.2001 279.918 76.7884C279.918 46.5525 277.143 32.1323 260.958 -23.9979C254.534 -45.0952 249.741 -66.6601 246.622 -88.5007C246.622 -92.067 246.622 -92.3771 250.63 -92.3771C254.637 -92.3771 254.945 -92.3775 255.254 -89.4314L255.716 -89.2762Z" fill="#EA716E" fill-opacity="0.1"/>
<path d="M195.892 -82.6921C199.125 -69.3601 204.358 -49.5174 210.206 -29.8295C217.149 -10.3328 220.69 10.2272 220.672 30.9401C220.827 38.3812 218.965 45.724 215.285 52.1784C212.455 57.5518 208.544 62.2715 203.8 66.0354C199.056 69.7992 193.584 72.5243 187.735 74.0368C177.367 76.8782 166.585 77.8749 155.876 76.9823C127.25 76.9823 121.247 75.8971 56.1431 61.4798C27.6578 53.4128 -1.70006 48.8837 -31.2764 47.9929C-51.1452 46.5668 -71.1062 48.7191 -90.2236 54.3489C-144.707 69.8513 -161.637 106.282 -151.787 187.049C-148.142 211.562 -148.142 236.484 -151.787 260.996C-154.57 272.606 -160.297 283.289 -168.409 292C-183.8 307.502 -201.808 313.239 -263.525 323.006C-289.776 326.244 -315.754 331.425 -341.249 338.508C-367.567 345.948 -446.368 365.016 -461.759 367.651C-468.069 368.738 -481.305 370.598 -491.002 371.683C-501.664 371.988 -512.146 374.522 -521.784 379.123C-523.168 380.364 -523.476 377.574 -523.476 362.691C-524.212 356.244 -523.69 349.713 -521.938 343.468C-511.729 342.158 -501.446 341.536 -491.156 341.608C-439.464 339.186 -388.021 332.916 -337.247 322.85C-322.779 319.594 -298.462 314.789 -283.07 312.154C-261.177 309.313 -239.557 304.645 -218.43 298.201C-189.802 288.744 -177.028 276.343 -170.41 251.694C-167.143 229.908 -167.143 207.751 -170.41 185.964C-176.412 133.565 -173.796 105.352 -160.406 80.2377C-148.709 58.3793 -128.701 46.4428 -88.3771 36.9863C-74.5583 34.1678 -60.4328 33.1775 -46.36 34.0408C-14.2397 33.618 17.7635 38.0066 48.6019 47.0628C105.855 59.9297 128.48 62.5651 150.951 62.5651C185.735 60.5499 202.203 47.0628 204.204 19.0036C204.036 -2.12379 200.396 -23.0772 193.43 -43.006C188.967 -60.2137 185.273 -76.6463 185.119 -79.4367C184.965 -82.2272 185.119 -84.2425 189.89 -84.7075C194.661 -85.1726 194.969 -84.7075 195.739 -81.2969L195.892 -82.6921Z" fill="#EA716E" fill-opacity="0.1"/>
<path d="M51.044 -83.391C54.5974 -83.391 57.5322 -82.4725 57.5322 -81.8603C56.4465 -79.4591 55.1541 -77.1545 53.6709 -74.9724C49.0027 -68.4463 42.7829 -63.1607 35.5616 -59.5833C28.3415 -56.0061 20.3424 -54.2473 12.2735 -54.4626C-8.89172 -53.3665 -30.1083 -53.7756 -51.2142 -55.6869C-141.732 -60.5847 -203.673 -53.8503 -239.356 -35.7893C-253.031 -28.1579 -264.312 -16.9278 -271.949 -3.34084C-279.033 10.397 -282.688 25.6188 -282.606 41.0463C-286.004 88.1885 -290.021 107.474 -301.451 130.433C-311.051 152.406 -328.801 169.885 -351.036 179.259C-367.4 187.908 -385.795 192.081 -404.327 191.351C-418.987 191.342 -433.598 189.699 -447.886 186.452C-468.734 181.434 -490.077 178.713 -511.528 178.34H-523.422V156.454C-524.245 148.718 -523.723 140.9 -521.878 133.341C-510.202 131.823 -498.435 131.107 -486.658 131.199C-427.034 129.668 -403.091 125.535 -373.279 111.3C-360.808 105.902 -349.445 98.2749 -339.76 88.8007C-323.231 73.4948 -318.597 59.8726 -316.589 26.1996C-316.644 12.2055 -314.615 -1.71969 -310.565 -15.1262C-306.021 -26.944 -298.59 -37.4614 -288.939 -45.7381C-269.481 -63.5946 -244.486 -74.386 -218.038 -76.3499C-170.68 -79.7745 -123.133 -79.7745 -75.7737 -76.3499C-22.6369 -73.4418 -2.5561 -74.6664 12.5815 -82.1662C18.4775 -84.6293 24.9474 -85.424 31.2725 -84.4621C38.6873 -84.4621 47.4919 -84.4621 51.044 -84.4621V-83.391Z" fill="#EA716E" fill-opacity="0.1"/>
<path d="M594.232 -77.8382L609.647 -77.0654L602.248 -74.7464C584.456 -70.1218 566.382 -66.6625 548.143 -64.3897C541.42 -63.8122 534.765 -62.622 528.258 -60.8341C531.981 -60.6937 535.708 -61.0052 539.356 -61.7616C562.959 -64.3625 586.345 -68.6504 609.339 -74.5921C621.516 -77.8384 629.532 -78.6113 627.219 -76.6017C612.24 -71.0617 596.749 -67.023 580.976 -64.5444L540.898 -58.6703C512.931 -56.5148 485.548 -49.5062 459.972 -37.9563C448.905 -32.9334 439.379 -25.0345 432.379 -15.0781C424.642 -4.674 420.82 8.13785 421.59 21.094C421.222 37.4764 425.672 53.6048 434.383 67.4685C446.715 91.7378 458.585 106.269 507.294 156.508C549.222 199.482 561.092 219.578 560.782 244.929C560.782 258.377 554.462 281.41 551.688 278.782C551.937 275.182 552.716 271.64 554 268.27C556.551 260.447 557.649 252.221 557.237 244.001C557.601 235.89 555.79 227.831 551.996 220.658C543.981 202.109 528.875 182.786 493.729 147.388C436.849 89.5739 415.424 53.2472 416.657 16.9204C416.623 3.72158 421.083 -9.09364 429.296 -19.4063C442.553 -37.647 465.83 -48.9313 506.369 -56.9696C511.602 -57.8472 516.755 -59.1394 521.784 -60.8341C506.148 -58.6823 490.692 -55.3758 475.541 -50.9411C464.225 -48.1964 453.564 -43.2317 444.171 -36.3335C434.779 -29.4353 426.842 -20.7401 420.818 -10.7498C415.815 -1.2381 413.371 9.41807 413.729 20.1666C413.729 54.4837 432.996 88.3369 481.705 139.349C498.056 155.53 513.495 172.612 527.95 190.516C542.502 206.311 550.4 227.137 549.993 248.638C547.902 262.567 543.251 275.986 536.274 288.211C524.889 304.564 508.735 316.985 490.03 323.766C467.397 332.934 447.68 348.111 432.996 367.666C425.147 380.031 418.734 393.257 413.883 407.085C396.142 452.954 364.701 492.205 323.861 519.465C306.286 530.93 289.823 544.024 274.689 558.574C260.888 575.414 251.224 595.271 246.48 616.543C229.832 672.038 209.794 694.916 164.938 709.292C125.476 721.968 86.785 723.669 23.1235 715.475C-52.2538 705.737 -81.5419 709.292 -113.295 731.861C-124.857 740.054 -154.143 762.777 -154.143 763.705C-154.143 764.633 -154.144 763.705 -133.797 751.801C-117.014 740.795 -99.0774 731.673 -80.3074 724.595C-56.8785 717.639 -26.8192 718.104 29.2893 725.677C56.8099 730.531 84.7476 732.603 112.681 731.861C174.34 729.387 219.351 714.393 244.323 687.65C256.323 673.389 266.284 657.52 273.919 640.503C279.245 629.841 285.216 619.517 291.799 609.587C303.205 594.128 319.546 582.225 355.152 563.984C366.714 558.11 381.203 549.918 387.677 545.9C409.407 531.176 427.491 511.665 440.549 488.858C448.049 471.66 454.134 453.876 458.739 435.682C461.171 427.078 464.209 418.657 467.833 410.485C477.698 391.163 494.962 378.177 534.27 360.556C551.034 354.291 566.349 344.665 579.28 332.267C595.437 315.082 607.644 294.557 615.042 272.135C619.511 251.485 616.391 229.909 606.255 211.384C597.007 192.834 585.6 178.922 551.996 145.532C509.452 103.332 499.125 91.5835 488.951 73.4974C482.79 63.6569 479.727 52.1829 480.164 40.5715C481.861 20.012 497.275 7.64532 531.495 -0.702095C558.553 -6.43365 586.029 -9.94898 613.654 -11.2135C642.406 -12.8047 671.001 -16.5248 699.205 -22.3434C712.307 -26.0534 711.999 -26.2078 711.999 -17.8605C711.999 -12.2955 711.999 -10.4408 709.533 -9.97708C684.748 -5.52418 659.739 -2.42788 634.618 -0.702095C555.696 7.18158 531.032 13.0558 514.539 27.8956C498.046 42.7355 501.436 63.7585 523.171 92.0469C527.796 98.0757 545.83 117.244 563.249 134.402C599.936 170.884 613.655 187.424 624.907 210.302C633.523 225.149 638.49 241.841 639.397 258.995C640.286 267.199 639.552 275.499 637.239 283.419C629.285 311.592 612.671 336.53 589.762 354.682C578.376 361.841 566.531 368.244 554.308 373.85C515.31 392.399 502.669 401.056 492.65 416.668C483.455 432.45 477.432 449.885 474.924 467.99C472.488 484.615 467.277 500.711 459.51 515.601C442.455 543.586 416.821 565.279 386.445 577.433C342.205 598.147 330.335 605.258 316.924 619.325C304.652 633.35 294.285 648.945 286.095 665.699C274.441 689.044 255.717 708.091 232.607 720.112C206.176 731.874 178.008 739.236 149.215 741.908C114.871 744.742 80.3348 744.225 46.0904 740.363C26.5031 738 6.77905 736.968 -12.9464 737.271C-63.3523 737.271 -63.5063 737.271 -137.958 786.428C-162.824 800.269 -188.571 812.456 -215.032 822.909C-241.671 833.06 -270.113 837.587 -298.578 836.204C-307.21 836.204 -330.948 832.957 -351.449 830.174C-410.179 821.827 -429.91 821.673 -466.751 830.174C-485.943 832.527 -504.262 839.589 -520.085 850.735L-523.785 854.907V831.721C-523.785 803.741 -525.172 805.597 -502.05 801.731C-457.746 795.869 -412.948 794.73 -368.406 798.33C-342.775 800.835 -316.964 800.835 -291.333 798.33C-259.628 792.014 -229.268 780.192 -201.621 763.395C-182.167 751.011 -163.385 737.596 -145.357 723.204C-134.508 714.485 -122.959 706.678 -110.829 699.862C-89.1265 691.375 -65.6423 688.503 -42.5425 691.515C-23.583 693.06 -18.4963 693.679 23.5854 700.172C80.6204 708.828 114.994 707.745 151.218 696.152C164.113 692.803 176.176 686.818 186.654 678.572C197.132 670.325 205.797 659.996 212.106 648.232C220.133 631.954 225.839 614.625 229.061 596.756C231.818 580.355 237.014 564.462 244.477 549.609C257.691 532.23 273.996 517.45 292.57 506.016C310.532 494.41 327.542 481.383 343.438 467.062C370.118 444.549 391.224 416.134 405.096 384.052C423.748 346.179 438.546 331.957 480.164 311.243C495.853 305.494 509.81 295.808 520.705 283.111C528.861 272.3 533.247 259.102 533.191 245.546C534.286 237.541 533.276 229.388 530.262 221.895C523.633 202.727 512.073 186.652 477.852 149.397C453.324 125.745 432.533 98.4837 416.195 68.5506C390.144 16.4567 401.705 -30.5363 445.79 -52.796C465.366 -62.6893 485.405 -68.2544 536.582 -76.138C555.363 -79.4017 574.498 -80.0773 593.461 -78.1472L594.232 -77.8382Z" fill="#EA716E" fill-opacity="0.1"/>
</g>
<defs>
<clipPath id="clip0_1298_529">
<rect width="712" height="644" fill="white" transform="matrix(-1 0 0 1 712 0)"/>
</clipPath>
</defs>
</svg>
