<svg width="161" height="161" viewBox="0 0 161 161" fill="none" xmlns="http://www.w3.org/2000/svg">
<path d="M111.334 95.2573H99.2071C98.7209 96.0907 94.2148 103.848 98.0846 110.854C97.9693 110.457 99.3984 103.823 101.554 103.881C101.554 103.881 103.288 114.847 105.701 115.391C108.114 115.934 108.551 102.903 108.551 102.903C108.434 102.497 111.797 103.22 112.753 105.995C112.918 106.474 114.3 101.815 112.777 98.0568C112.219 96.6806 111.726 95.7223 111.334 95.2573Z" fill="#4224FE"/>
<path d="M105.844 115.643C105.779 115.643 105.714 115.636 105.649 115.621C103.269 115.085 101.658 105.974 101.357 104.135C101.104 104.188 100.844 104.359 100.583 104.645C99.1518 106.207 98.274 110.447 98.3152 110.804C98.3487 110.919 98.2888 111.033 98.1774 111.079C98.0666 111.126 97.9365 111.073 97.8786 110.968C94.1234 104.169 98.1568 96.5891 99.0036 95.1382C99.0461 95.0654 99.1234 95.021 99.2071 95.021H111.334C111.403 95.021 111.469 95.0519 111.514 95.1047C111.924 95.5903 112.422 96.5537 112.996 97.9679C114.352 101.314 113.453 105.601 113.014 106.145C112.913 106.269 112.799 106.271 112.741 106.26C112.694 106.252 112.581 106.217 112.531 106.071C111.77 103.861 109.369 103.043 108.783 103.03C108.735 104.291 108.308 113.978 106.43 115.43C106.247 115.571 106.048 115.643 105.844 115.643ZM101.526 103.645C101.538 103.645 101.549 103.645 101.561 103.646C101.674 103.649 101.77 103.733 101.788 103.845C102.263 106.851 103.902 114.745 105.753 115.161C105.887 115.192 106.01 115.159 106.14 115.058C107.625 113.911 108.212 105.931 108.315 102.919C108.3 102.793 108.363 102.649 108.546 102.591C109.105 102.414 111.746 103.208 112.802 105.485C113.163 104.342 113.687 100.93 112.559 98.1457C111.925 96.5808 111.49 95.8415 111.222 95.4931H99.3437C98.4292 97.0973 95.0057 103.826 97.941 110.054C98.1999 108.644 98.9753 105.936 100.024 104.579C100.502 103.959 101.007 103.645 101.526 103.645Z" fill="#171717"/>
<path d="M108.002 95.2573H102.15C101.915 95.6598 100.044 99.0138 101.523 101.304C101.523 101.304 102.482 99.6256 103.338 99.0221C103.338 99.0221 104.366 104.479 105.53 104.742C106.695 105.004 106.489 97.8153 106.489 97.8153C106.489 97.8153 107.913 98.7877 108.078 99.623C108.106 99.7673 108.319 99.8458 108.48 99.766C108.482 99.7647 108.485 99.7634 108.487 99.7621C108.744 99.6307 108.99 97.6318 108.699 96.6084C108.505 95.9284 108.191 95.4814 108.002 95.2573Z" fill="white"/>
<path d="M133.712 54.0444C133.712 61.9431 130.218 69.0258 124.69 73.8294C121.418 76.6752 119.068 78.6864 117.8 81.9097C116.928 84.1263 114.831 85.6152 112.451 85.6152H98.1106C97.381 79.8817 94.5493 77.5678 90.1604 73.689C84.7045 68.8667 81.2713 61.8072 81.299 53.9485C81.3524 39.727 92.9129 28.041 107.132 27.8426C121.776 27.6404 133.712 39.4501 133.712 54.0444Z" fill="#8471FF"/>
<path d="M114.399 84.4233H95.6116C95.4931 84.4233 95.3927 84.335 95.3778 84.2172C94.6849 78.7709 92.0097 76.4113 87.9596 72.839L87.5056 72.4384C81.8815 67.4693 78.6235 60.3196 78.5662 52.8241C78.5121 45.7575 81.2375 39.0837 86.2408 34.0322C91.2427 28.982 97.8875 26.1928 104.952 26.178C104.97 26.178 104.989 26.178 105.008 26.178C112.061 26.178 118.692 28.9201 123.685 33.9028C128.691 38.8989 131.448 45.545 131.448 52.6174C131.448 60.2752 128.131 67.5511 122.347 72.5795L122.202 72.705C117.91 76.4357 115.32 78.6878 114.633 84.2165C114.619 84.3344 114.518 84.4233 114.399 84.4233ZM95.8183 83.9519H114.192C114.941 78.3916 117.717 75.9791 121.893 72.3496L122.037 72.224C127.718 67.2851 130.976 60.1387 130.976 52.618C130.976 45.6719 128.268 39.1436 123.351 34.237C118.447 29.3432 111.934 26.6494 105.007 26.6494C104.988 26.6494 104.971 26.6494 104.952 26.6494C98.0144 26.6636 91.4881 29.4031 86.5756 34.3639C81.6619 39.3252 78.9848 45.8799 79.0376 52.8196C79.0937 60.1818 82.2937 67.2034 87.8173 72.0842L88.2707 72.4848C92.351 76.0835 95.0629 78.4759 95.8183 83.9519Z" fill="#171717"/>
<path d="M114.403 84.187V92.0928C114.403 94.5702 112.394 96.5795 109.916 96.5795H100.079C97.6011 96.5795 95.5918 94.5709 95.5918 92.0928V84.187H114.403Z" fill="#171717"/>
<path d="M109.916 96.8151H100.078C97.4742 96.8151 95.3555 94.697 95.3555 92.0926V84.1869C95.3555 84.0568 95.4611 83.9512 95.5912 83.9512H114.402C114.532 83.9512 114.637 84.0568 114.637 84.1869V92.0926C114.638 94.6963 112.519 96.8151 109.916 96.8151ZM95.8269 84.4226V92.0926C95.8269 94.4368 97.7338 96.343 100.077 96.343H109.915C112.259 96.343 114.165 94.4361 114.165 92.0926V84.4226H95.8269Z" fill="#171717"/>
<path d="M114.402 87.7271H106.28V88.1985H114.402V87.7271Z" fill="white"/>
<path d="M103.713 89.5225H95.5918V89.9939H103.713V89.5225Z" fill="white"/>
<path d="M123.039 54.3883L122.237 48.705L120.071 48.4693C119.396 46.6358 118.403 44.9775 117.166 43.5453L118.004 41.536L113.419 38.0848L111.72 39.4475C110.004 38.6541 108.134 38.1595 106.188 38.0178L105.361 36.0066L99.6753 36.809L99.4377 38.9696C97.6042 39.6452 95.9459 40.6402 94.5162 41.8773L92.5069 41.0388L89.0557 45.6241L90.4184 47.323C89.6276 49.0412 89.1304 50.9107 88.9888 52.8575L86.9775 53.6863L87.78 59.367L89.9425 59.6053C90.6181 61.4388 91.6124 63.0971 92.8482 64.5294L92.0098 66.5386L96.5976 69.9898L98.2946 68.6271C100.013 69.4199 101.88 69.9151 103.829 70.0568L104.656 72.0661L110.342 71.2637L110.579 69.103C112.411 68.4275 114.069 67.4351 115.499 66.198L117.508 67.0364L120.959 62.4486L119.597 60.7516C120.39 59.0335 120.885 57.1639 121.026 55.2145L123.039 54.3883ZM105.031 62.54C100.335 62.54 96.5268 58.7334 96.5268 54.0354C96.5268 49.34 100.336 45.5333 105.031 45.5333C109.729 45.5333 113.536 49.34 113.536 54.0354C113.537 58.7334 109.73 62.54 105.031 62.54Z" fill="white"/>
<path d="M104.654 72.302C104.559 72.302 104.473 72.2453 104.435 72.1558L103.664 70.2811C101.816 70.1298 100.022 69.6667 98.3262 68.9023L96.7433 70.1736C96.6589 70.2412 96.5398 70.2431 96.4541 70.1781L91.8663 66.7269C91.78 66.6625 91.749 66.5472 91.7903 66.448L92.5734 64.5727C91.3678 63.1501 90.4263 61.5536 89.7713 59.8238L87.753 59.6017C87.6461 59.5901 87.5605 59.507 87.545 59.4001L86.7426 53.7194C86.7278 53.6125 86.7864 53.5094 86.8862 53.4682L88.7635 52.6941C88.9142 50.8516 89.3778 49.0574 90.1423 47.3566L88.8704 45.7705C88.8027 45.6861 88.8015 45.567 88.8659 45.4807L92.3171 40.8954C92.3815 40.8097 92.4967 40.7788 92.5966 40.8194L94.4712 41.6025C95.8893 40.3963 97.4852 39.4541 99.2175 38.7979L99.4397 36.7815C99.4513 36.6746 99.5344 36.589 99.6413 36.5735L105.327 35.7711C105.434 35.7563 105.537 35.8155 105.578 35.9153L106.35 37.7926C108.198 37.9439 109.992 38.407 111.685 39.1714L113.27 37.9002C113.355 37.8325 113.473 37.8306 113.559 37.8956L118.145 41.3468C118.231 41.4112 118.262 41.5265 118.221 41.6257L117.438 43.501C118.642 44.9191 119.584 46.5156 120.24 48.2492L122.261 48.4688C122.369 48.4804 122.454 48.5635 122.469 48.6704L123.272 54.3537C123.286 54.4606 123.227 54.5643 123.127 54.6049L121.247 55.3764C121.096 57.2259 120.633 59.0208 119.869 60.7158L121.141 62.2994C121.208 62.3837 121.21 62.5022 121.145 62.5892L117.694 67.1764C117.629 67.2627 117.514 67.2942 117.414 67.2524L115.54 66.4699C114.124 67.6729 112.53 68.6151 110.795 69.2713L110.573 71.2877C110.562 71.3946 110.479 71.4802 110.372 71.4957L104.686 72.2988C104.676 72.3013 104.664 72.302 104.654 72.302ZM98.2927 68.3916C98.3262 68.3916 98.3597 68.3987 98.3913 68.4135C100.119 69.2108 101.954 69.6848 103.844 69.8226C103.933 69.829 104.011 69.8851 104.045 69.9681L104.802 71.808L110.126 71.0565L110.343 69.0781C110.353 68.9893 110.412 68.9139 110.496 68.8823C112.275 68.2261 113.906 67.2633 115.343 66.0198C115.41 65.9618 115.505 65.9464 115.588 65.9805L117.428 66.7481L120.658 62.4539L119.41 60.9C119.354 60.8304 119.343 60.7351 119.38 60.6533C120.177 58.9261 120.651 57.0907 120.789 55.198C120.795 55.1085 120.852 55.0305 120.934 54.9971L122.779 54.2397L122.027 48.9196L120.044 48.7039C119.956 48.6942 119.88 48.635 119.849 48.5513C119.194 46.7719 118.23 45.14 116.986 43.6994C116.928 43.6318 116.913 43.5371 116.947 43.4547L117.715 41.6147L113.423 38.3844L111.867 39.6325C111.797 39.6885 111.701 39.6995 111.62 39.6628C109.896 38.8655 108.062 38.3915 106.17 38.2537C106.081 38.2473 106.003 38.1906 105.969 38.1082L105.212 36.2663L99.8886 37.0179L99.6709 38.9962C99.6612 39.0851 99.602 39.1611 99.5183 39.192C97.7408 39.8463 96.1096 40.8104 94.6696 42.0565C94.602 42.1151 94.5067 42.1299 94.4242 42.0958L92.5843 41.3275L89.354 45.6198L90.6021 47.1757C90.6581 47.2452 90.6697 47.3405 90.6324 47.4217C89.8351 49.1547 89.3611 50.9895 89.2233 52.8744C89.2168 52.9633 89.1608 53.0412 89.0777 53.0754L87.2353 53.8346L87.9868 59.1528L89.9677 59.3705C90.0566 59.3801 90.1326 59.4394 90.1635 59.5231C90.8172 61.2973 91.78 62.9299 93.0261 64.375C93.0847 64.4426 93.0995 64.5373 93.0654 64.6197L92.2971 66.4596L96.5919 69.6899L98.1459 68.4425C98.1878 68.409 98.2399 68.3916 98.2927 68.3916ZM105.031 62.7759C100.211 62.7759 96.2899 58.8546 96.2899 54.0349C96.2899 49.2165 100.211 45.2965 105.031 45.2965C109.851 45.2965 113.772 49.2165 113.772 54.0349C113.772 58.8546 109.851 62.7759 105.031 62.7759ZM105.031 45.7685C100.471 45.7685 96.7619 49.4767 96.7619 54.0349C96.7619 58.5944 100.471 62.3039 105.031 62.3039C109.59 62.3039 113.3 58.5944 113.3 54.0349C113.301 49.4773 109.59 45.7685 105.031 45.7685ZM105.113 20.6789V23.4758C105.113 23.8449 104.815 24.1462 104.446 24.1462C104.073 24.1462 103.775 23.8442 103.775 23.4758V20.6789C103.775 20.3067 104.074 20.0085 104.446 20.0085C104.63 20.0085 104.797 20.0845 104.917 20.205C105.037 20.3241 105.113 20.4941 105.113 20.6789ZM88.3803 25.0363L89.7784 27.4583C89.9626 27.7778 89.8551 28.1886 89.5356 28.3728C89.2136 28.5589 88.804 28.4469 88.6192 28.1275L87.2211 25.7054C87.035 25.3834 87.1445 24.9751 87.4665 24.789C87.6262 24.6969 87.8091 24.6795 87.9726 24.7233C88.1375 24.7677 88.2882 24.8765 88.3803 25.0363ZM76.0683 37.1769L78.4904 38.5757C78.8098 38.7599 78.9219 39.1695 78.737 39.4895C78.5509 39.8115 78.1407 39.9197 77.8206 39.7349L75.3985 38.3368C75.0765 38.1507 74.9671 37.743 75.1532 37.4204C75.2453 37.2607 75.3947 37.1544 75.5589 37.11C75.7231 37.0655 75.9086 37.0848 76.0683 37.1769ZM104.644 87.4843V84.6874C104.644 84.3184 104.943 84.017 105.312 84.017C105.684 84.017 105.982 84.319 105.982 84.6874V87.4843C105.982 87.8565 105.683 88.1547 105.312 88.1547C105.128 88.1547 104.96 88.0787 104.84 87.9583C104.72 87.8391 104.644 87.6691 104.644 87.4843ZM133.924 37.5833L131.502 38.9814C131.182 39.1656 130.772 39.0581 130.587 38.7386C130.401 38.4166 130.513 38.0071 130.833 37.8222L133.255 36.4241C133.577 36.238 133.985 36.3475 134.171 36.6695C134.263 36.8292 134.281 37.0121 134.237 37.1757C134.193 37.3405 134.084 37.4912 133.924 37.5833ZM121.783 25.2713L120.385 27.6934C120.201 28.0128 119.791 28.1249 119.471 27.94C119.149 27.7539 119.041 27.3437 119.226 27.0236L120.624 24.6016C120.81 24.2796 121.218 24.1701 121.54 24.3562C121.7 24.4483 121.806 24.5977 121.851 24.7619C121.895 24.9261 121.875 25.1116 121.783 25.2713Z" fill="#171717"/>
<path d="M74.7132 137.071C74.2779 137.755 74.0287 138.573 74.0287 139.449C74.0287 139.904 74.0976 140.342 74.2238 140.757H139.227C139.353 140.343 139.422 139.905 139.422 139.449C139.422 136.976 137.42 134.975 134.952 134.975C134.82 134.975 134.692 134.98 134.565 134.991C134.814 134.375 134.952 133.701 134.952 132.995C134.952 130.038 132.553 127.639 129.596 127.639C127.314 127.639 125.366 129.072 124.596 131.084C123.725 130.055 122.425 129.402 120.975 129.402C120.502 129.402 120.046 129.47 119.616 129.598C118.618 127.687 116.622 126.386 114.313 126.386C112.253 126.386 110.433 127.427 109.36 129.014C108.298 128.063 106.902 127.485 105.368 127.485C104.492 127.485 103.664 127.671 102.915 128.01C101.843 126.434 100.033 125.404 97.9835 125.404H97.9462C97.6544 122.883 95.5151 120.93 92.9191 120.93C91.4649 120.93 90.148 121.545 89.2245 122.527C87.977 121.53 86.3896 120.93 84.6643 120.93C80.6354 120.93 77.3652 124.199 77.3652 128.234C77.3652 128.324 77.3652 128.409 77.3704 128.499C74.9496 128.812 73.0762 130.888 73.0762 133.399C73.0781 134.857 73.7099 136.169 74.7132 137.071Z" fill="white"/>
<path d="M139.227 140.992H74.2242C74.1205 140.992 74.029 140.924 73.9988 140.825C73.8622 140.379 73.7933 139.916 73.7933 139.45C73.7933 138.621 74.0071 137.817 74.4128 137.113C73.4127 136.143 72.8428 134.799 72.8428 133.399C72.8428 130.875 74.6724 128.719 77.1318 128.297C77.1318 128.276 77.1318 128.255 77.1318 128.234C77.1318 124.076 80.5122 120.694 84.6666 120.694C86.3011 120.694 87.904 121.232 89.2049 122.212C90.1928 121.245 91.5349 120.694 92.9208 120.694C95.5412 120.694 97.7553 122.604 98.1539 125.171C100.08 125.223 101.868 126.163 102.999 127.718C103.746 127.407 104.542 127.25 105.369 127.25C106.811 127.25 108.204 127.751 109.318 128.667C110.486 127.087 112.333 126.151 114.313 126.151C116.574 126.151 118.634 127.361 119.734 129.322C120.138 129.218 120.555 129.166 120.975 129.166C122.315 129.166 123.588 129.704 124.522 130.654C125.429 128.696 127.422 127.404 129.597 127.404C132.68 127.404 135.188 129.912 135.188 132.996C135.188 133.594 135.094 134.179 134.909 134.74C134.924 134.74 134.938 134.74 134.953 134.74C137.547 134.74 139.658 136.853 139.658 139.45C139.658 139.917 139.589 140.38 139.453 140.826C139.422 140.924 139.331 140.992 139.227 140.992ZM74.4019 140.52H139.049C139.14 140.17 139.186 139.811 139.186 139.449C139.186 137.111 137.287 135.21 134.953 135.21C134.825 135.21 134.705 135.215 134.585 135.225C134.502 135.233 134.424 135.196 134.376 135.13C134.327 135.063 134.316 134.977 134.347 134.901C134.593 134.295 134.718 133.654 134.718 132.994C134.718 130.171 132.42 127.874 129.597 127.874C127.491 127.874 125.57 129.197 124.817 131.167C124.787 131.245 124.718 131.301 124.636 131.315C124.553 131.328 124.47 131.299 124.416 131.235C123.557 130.219 122.303 129.636 120.976 129.636C120.536 129.636 120.101 129.699 119.684 129.823C119.575 129.855 119.46 129.806 119.408 129.705C118.414 127.802 116.462 126.62 114.314 126.62C112.402 126.62 110.624 127.563 109.557 129.144C109.519 129.2 109.458 129.238 109.39 129.246C109.323 129.254 109.255 129.233 109.204 129.188C108.146 128.24 106.784 127.719 105.37 127.719C104.545 127.719 103.752 127.889 103.015 128.223C102.91 128.271 102.787 128.236 102.722 128.141C101.656 126.574 99.8856 125.638 97.9858 125.638H97.9485C97.8287 125.638 97.7282 125.548 97.7141 125.429C97.4326 122.997 95.3718 121.163 92.9214 121.163C91.5935 121.163 90.3093 121.718 89.3987 122.687C89.3144 122.777 89.1759 122.786 89.0799 122.71C87.8338 121.713 86.2663 121.163 84.6673 121.163C80.7723 121.163 77.6039 124.334 77.6039 128.231C77.6039 128.317 77.6039 128.397 77.609 128.483C77.6161 128.607 77.5266 128.715 77.4042 128.731C75.0729 129.032 73.3155 131.038 73.3155 133.397C73.3155 134.73 73.8828 136.005 74.872 136.895C74.9577 136.972 74.9751 137.1 74.9132 137.196C74.4895 137.864 74.2654 138.642 74.2654 139.448C74.2647 139.811 74.3105 140.17 74.4019 140.52Z" fill="#171717"/>
<path d="M114.075 136.315C115.766 135.29 117.968 135.829 118.992 137.52L114.075 136.315Z" fill="white"/>
<path d="M118.993 137.755C118.913 137.755 118.835 137.715 118.791 137.642C117.835 136.066 115.775 135.56 114.198 136.516C114.087 136.583 113.942 136.549 113.874 136.437C113.807 136.326 113.842 136.181 113.953 136.113C115.753 135.024 118.103 135.599 119.194 137.398C119.262 137.509 119.226 137.654 119.115 137.722C119.076 137.744 119.035 137.755 118.993 137.755Z" fill="#171717"/>
<path d="M81.3248 132.792C80.9378 130.853 82.1955 128.968 84.1346 128.581C86.0737 128.194 87.9587 129.452 88.3457 131.391" fill="white"/>
<path d="M81.3251 133.028C81.2149 133.028 81.1164 132.95 81.0938 132.838C80.6817 130.775 82.0257 128.761 84.0884 128.349C86.1505 127.937 88.1656 129.281 88.5771 131.344C88.6029 131.472 88.5198 131.596 88.3923 131.622C88.2648 131.647 88.1405 131.565 88.1147 131.437C87.7535 129.629 85.9883 128.453 84.1805 128.812C82.3722 129.174 81.195 130.938 81.5556 132.746C81.5814 132.874 81.4983 132.998 81.3708 133.024C81.356 133.027 81.3405 133.028 81.3251 133.028Z" fill="#171717"/>
<path d="M126.85 133.862C127.071 132.744 128.156 132.017 129.274 132.238C130.392 132.459 131.119 133.545 130.898 134.663" fill="white"/>
<path d="M130.898 134.899C130.884 134.899 130.868 134.897 130.853 134.894C130.725 134.869 130.642 134.745 130.667 134.617C130.862 133.628 130.218 132.665 129.229 132.469C128.75 132.374 128.263 132.472 127.857 132.744C127.452 133.016 127.177 133.429 127.082 133.907C127.057 134.035 126.933 134.119 126.805 134.093C126.678 134.068 126.595 133.944 126.62 133.815C126.739 133.213 127.085 132.693 127.595 132.351C128.105 132.01 128.719 131.887 129.321 132.006C130.564 132.252 131.376 133.464 131.13 134.707C131.107 134.821 131.009 134.899 130.898 134.899Z" fill="#171717"/>
<path d="M90.3008 124.679C92.2553 124.381 94.0811 125.724 94.3792 127.679L90.3008 124.679Z" fill="white"/>
<path d="M94.3787 127.914C94.2641 127.914 94.1636 127.831 94.1456 127.714C94.011 126.831 93.5408 126.053 92.8209 125.524C92.1015 124.995 91.2192 124.778 90.3356 124.912C90.2075 124.933 90.0864 124.843 90.0671 124.714C90.0478 124.586 90.136 124.465 90.2648 124.446C91.2727 124.292 92.2792 124.541 93.1003 125.144C93.9214 125.748 94.4579 126.635 94.6118 127.643C94.6311 127.772 94.5429 127.893 94.4141 127.912C94.4025 127.914 94.3903 127.914 94.3787 127.914Z" fill="#171717"/>
<path d="M101.216 132.582C102.125 131.746 103.541 131.805 104.377 132.715L101.216 132.582Z" fill="white"/>
<path d="M104.377 132.951C104.313 132.951 104.249 132.925 104.203 132.875C103.455 132.063 102.187 132.009 101.375 132.756C101.279 132.844 101.129 132.838 101.042 132.742C100.953 132.646 100.96 132.497 101.056 132.409C102.06 131.486 103.627 131.552 104.55 132.555C104.638 132.651 104.632 132.801 104.536 132.888C104.492 132.93 104.434 132.951 104.377 132.951Z" fill="#171717"/>
<path d="M115.838 120.544C115.836 120.544 115.834 120.544 115.831 120.544C115.701 120.54 115.599 120.431 115.603 120.301L115.903 110.184C115.907 110.057 116.012 109.956 116.138 109.956C116.141 109.956 116.143 109.956 116.146 109.956C116.276 109.96 116.378 110.069 116.374 110.199L116.074 120.315C116.07 120.443 115.965 120.544 115.838 120.544Z" fill="#171717"/>
<path d="M108.685 123.03C108.558 123.03 108.454 122.929 108.45 122.802L108.289 117.904C108.285 117.774 108.387 117.665 108.517 117.661C108.65 117.649 108.756 117.759 108.761 117.889L108.921 122.786C108.925 122.917 108.823 123.026 108.693 123.03C108.69 123.03 108.688 123.03 108.685 123.03Z" fill="#171717"/>
<path d="M100.738 115.162C100.608 115.162 100.502 115.056 100.502 114.926V112.277C100.502 112.147 100.608 112.041 100.738 112.041C100.868 112.041 100.973 112.147 100.973 112.277V114.926C100.973 115.056 100.868 115.162 100.738 115.162Z" fill="#171717"/>
<path d="M102.437 120.3C102.31 120.3 102.205 120.199 102.201 120.071L102.123 117.341C102.119 117.211 102.222 117.102 102.352 117.098C102.477 117.095 102.591 117.196 102.595 117.327L102.672 120.057C102.676 120.187 102.574 120.295 102.443 120.3C102.441 120.3 102.439 120.3 102.437 120.3Z" fill="#171717"/>
<path d="M94.2899 115.734C94.1708 115.734 94.0677 115.644 94.0555 115.523C93.7689 112.746 93.6517 109.924 93.7064 107.134C93.709 107.004 93.8191 106.901 93.9467 106.903C94.0767 106.905 94.1804 107.013 94.1779 107.143C94.1231 109.913 94.2397 112.717 94.5243 115.474C94.5378 115.604 94.4432 115.72 94.3137 115.733C94.306 115.734 94.2976 115.734 94.2899 115.734Z" fill="#171717"/>
<path d="M111.757 110.749C111.627 110.749 111.521 110.644 111.521 110.514V108.042C111.521 107.912 111.627 107.806 111.757 107.806C111.887 107.806 111.993 107.912 111.993 108.042V110.514C111.993 110.644 111.887 110.749 111.757 110.749Z" fill="#171717"/>
<path d="M22.8263 121.689C22.8263 121.689 21.1706 134.136 21.7579 140.386H56.2138C56.2138 140.386 56.0535 124.235 54.1839 119.392C52.8811 116.017 22.8263 121.689 22.8263 121.689Z" fill="white"/>
<path d="M56.2138 140.622H21.7572C21.6355 140.622 21.5338 140.529 21.5222 140.408C20.9387 134.203 22.5751 121.782 22.5919 121.657C22.6054 121.556 22.682 121.476 22.7818 121.457C22.8572 121.443 30.39 120.026 37.9854 119.041C53.5219 117.024 54.1852 118.743 54.4035 119.307C56.2673 124.134 56.4431 139.723 56.4495 140.384C56.4501 140.447 56.4257 140.507 56.3812 140.552C56.3374 140.597 56.2769 140.622 56.2138 140.622ZM21.9736 140.15H55.9755C55.9453 138.131 55.6748 123.906 53.9643 119.476C53.7396 118.894 51.7393 117.732 38.0491 119.508C31.0959 120.41 24.1935 121.674 23.0388 121.889C22.8462 123.382 21.4848 134.333 21.9736 140.15Z" fill="#171717"/>
<path d="M38.1045 140.386C39.2907 138.029 40.0629 135.789 40.8112 133.637C41.5293 135.8 41.7663 138.057 41.6304 140.386H38.1045Z" fill="#171717"/>
<path d="M41.63 140.622H38.1041C38.0223 140.622 37.9463 140.579 37.9031 140.51C37.86 140.44 37.8568 140.353 37.8935 140.28C39.0507 137.982 39.8107 135.796 40.5455 133.682L40.588 133.56C40.6208 133.465 40.7103 133.401 40.8108 133.401C40.8114 133.401 40.8121 133.401 40.8127 133.401C40.9138 133.402 41.0033 133.467 41.0349 133.563C41.7285 135.653 42.008 137.954 41.8657 140.4C41.8586 140.524 41.7549 140.622 41.63 140.622ZM38.4847 140.15H41.4065C41.5063 138.083 41.3067 136.19 40.7973 134.394C40.152 136.244 39.4629 138.152 38.4847 140.15Z" fill="#171717"/>
<path d="M83.2266 68.6015C81.2308 71.4447 79.2512 72.5537 79.2512 72.5537L72.4795 68.8655C72.5729 67.1518 74.7689 58.1938 76.3197 58.8829C77.8215 59.5514 77.6508 61.1981 77.6392 61.3024C77.741 61.0944 81.1349 54.1636 82.806 54.7104C84.501 55.2688 81.1838 60.3119 81.1838 60.3119C81.1838 60.3119 84.9615 61.8028 85.1882 64.1695C85.2107 64.4045 84.626 66.6102 83.2266 68.6015Z" fill="white"/>
<path d="M79.2516 72.7893C79.2129 72.7893 79.1737 72.7797 79.1389 72.7603L72.3679 69.0722C72.288 69.0284 72.2403 68.9434 72.2455 68.8519C72.3279 67.3321 74.135 59.7136 75.7353 58.7347C76.0251 58.5569 76.266 58.5994 76.4167 58.6664C77.3421 59.0786 77.6937 59.8205 77.8206 60.4194C78.8703 58.3876 81.3465 53.9839 82.8805 54.4856C83.1581 54.577 83.3564 54.7728 83.453 55.051C83.8955 56.3203 82.1142 59.2885 81.5339 60.2043C82.422 60.6016 85.2189 62.0152 85.423 64.1468C85.4507 64.4392 84.8531 66.6977 83.4195 68.7373C81.4161 71.5921 79.4486 72.7133 79.3662 72.7597C79.3308 72.7797 79.2909 72.7893 79.2516 72.7893ZM72.7266 68.7308L79.2445 72.2812C79.6811 72.0049 81.3594 70.8515 83.0338 68.4655C84.3978 66.5245 84.9529 64.4057 84.9529 64.1842C84.743 61.994 81.134 60.545 81.0973 60.5308C81.0316 60.5044 80.9807 60.4503 80.9588 60.3827C80.9376 60.315 80.9472 60.241 80.9865 60.1817C81.6692 59.1443 83.3629 56.2276 83.0067 55.2062C82.9578 55.0658 82.8709 54.9795 82.7324 54.9338C81.6505 54.5834 79.1646 58.716 77.8509 61.4053C77.8006 61.509 77.6834 61.5618 77.5733 61.5283C77.4632 61.4961 77.3924 61.3899 77.4046 61.2759C77.4226 61.1149 77.543 59.6852 76.2235 59.0979C76.1752 59.0766 76.1037 59.0618 75.9801 59.1378C74.6618 59.9447 72.9043 66.8401 72.7266 68.7308Z" fill="#171717"/>
<path d="M81.1142 60.3668L79.2949 63.1946C78.998 63.6563 79.1178 64.2617 79.5622 64.5482C80.0072 64.8342 80.608 64.6925 80.9049 64.2308L82.7242 61.403C83.0211 60.9412 82.9026 60.3346 82.4576 60.048C82.2348 59.9044 81.9733 59.8696 81.7312 59.9269C81.4865 59.9842 81.2623 60.1368 81.1142 60.3668Z" fill="white"/>
<path d="M80.0653 64.9312C79.8476 64.9312 79.6293 64.8714 79.4348 64.7464C78.8816 64.3903 78.7297 63.6375 79.0967 63.0669L80.9167 60.2391C81.0938 59.9634 81.3643 59.7715 81.6772 59.6975C81.9928 59.6221 82.3161 59.6762 82.5853 59.8494C83.1385 60.2056 83.2898 60.9597 82.9227 61.5303L81.1028 64.3581C80.8652 64.7277 80.4665 64.9312 80.0653 64.9312ZM81.9548 60.136C81.8988 60.136 81.8421 60.1425 81.7854 60.156C81.5916 60.2024 81.4235 60.3221 81.3127 60.4941L79.4928 63.3219C79.2668 63.6735 79.355 64.134 79.6899 64.3497C80.0247 64.5648 80.4807 64.454 80.7067 64.1031L82.5267 61.2753C82.7534 60.923 82.6651 60.4619 82.3303 60.2461C82.2169 60.1734 82.0875 60.136 81.9548 60.136Z" fill="#171717"/>
<path d="M82.6818 61.4821L80.9269 64.2094C80.6403 64.6544 80.7562 65.2386 81.1851 65.5148C81.614 65.7905 82.1936 65.6539 82.4795 65.2089L84.2344 62.4816C84.521 62.0366 84.4064 61.4512 83.9775 61.1749C83.7624 61.0365 83.5099 61.003 83.2768 61.0577C83.0411 61.1137 82.8247 61.2606 82.6818 61.4821Z" fill="white"/>
<path d="M81.6704 65.8922C81.4592 65.8922 81.2467 65.8342 81.058 65.7125C80.7959 65.5444 80.6181 65.2804 80.5569 64.9706C80.4964 64.664 80.5576 64.3478 80.7295 64.0812L82.4844 61.3539C82.6564 61.0866 82.9185 60.8992 83.2231 60.8277C83.5309 60.7556 83.8439 60.8078 84.106 60.9759C84.3675 61.1439 84.5452 61.408 84.6064 61.7184C84.6669 62.0256 84.6051 62.3411 84.4338 62.6078L82.6789 65.3351C82.4477 65.6951 82.0607 65.8922 81.6704 65.8922ZM83.4923 61.2682C83.4388 61.2682 83.3847 61.2747 83.3313 61.2869C83.1465 61.3307 82.9861 61.4453 82.8805 61.6096L81.1256 64.3369C81.0206 64.5005 80.9826 64.693 81.0193 64.8798C81.0554 65.0627 81.1597 65.2179 81.3123 65.3164C81.6305 65.5206 82.0652 65.415 82.2809 65.0807L84.0358 62.3534C84.1414 62.1898 84.1788 61.9966 84.1427 61.8098C84.1067 61.6263 84.0023 61.4711 83.8497 61.3732C83.7428 61.3037 83.6191 61.2682 83.4923 61.2682Z" fill="#171717"/>
<path d="M77.6382 61.3044C77.6382 61.3044 77.53 63.3446 77.2344 64.0859C77.2344 64.0859 77.9035 64.6732 78.2351 65.5581" fill="white"/>
<path d="M78.2357 65.7937C78.1404 65.7937 78.0503 65.7358 78.0148 65.6411C77.7089 64.8258 77.0849 64.2687 77.0791 64.2636C77.0044 64.1979 76.9786 64.0916 77.016 63.9989C77.2936 63.3027 77.4024 61.3121 77.403 61.2922C77.4101 61.1621 77.5247 61.0616 77.651 61.0687C77.7811 61.0758 77.8809 61.1866 77.8738 61.3167C77.8693 61.3965 77.7727 63.1688 77.5074 64.0202C77.7244 64.2391 78.19 64.764 78.4566 65.4743C78.5023 65.5967 78.4405 65.7326 78.3188 65.7783C78.2911 65.7886 78.2634 65.7937 78.2357 65.7937Z" fill="#171717"/>
<path d="M83.9177 62.9877L82.439 65.2861C82.1975 65.6609 82.3238 66.1723 82.7205 66.4273C83.1172 66.6823 83.6343 66.5857 83.8758 66.2103L85.2321 64.1025C85.4736 63.7277 85.4704 63.025 85.0737 62.7694C84.8747 62.6412 84.646 62.6026 84.438 62.6419C84.2274 62.6812 84.0381 62.8003 83.9177 62.9877Z" fill="white"/>
<path d="M83.1982 66.8055C82.9863 66.8055 82.777 66.7437 82.5928 66.6252C82.0873 66.3 81.9295 65.6418 82.2406 65.1581L83.7192 62.8597C83.8718 62.6227 84.1114 62.463 84.3941 62.4102C84.6717 62.3567 84.9582 62.4153 85.201 62.5712C85.7091 62.8983 85.742 63.7459 85.4303 64.2301L84.074 66.338C83.922 66.5743 83.6825 66.734 83.3998 66.7868C83.3328 66.7997 83.2652 66.8055 83.1982 66.8055ZM84.1152 63.1154L82.6366 65.4138C82.466 65.6785 82.5606 66.0443 82.8479 66.2291C82.9889 66.3199 83.1538 66.3528 83.3128 66.3238C83.4667 66.2948 83.5962 66.2098 83.6773 66.0836L85.0336 63.9758C85.2184 63.6885 85.2088 63.1379 84.946 62.9685C84.805 62.8777 84.6401 62.8436 84.481 62.8745C84.3265 62.9029 84.197 62.9885 84.1152 63.1154Z" fill="#171717"/>
<path d="M80.5507 72.8552L78.7314 77.6774L68.7842 73.3974L71.0594 68.1095C72.3693 65.6617 81.8413 70.4337 80.5507 72.8552Z" fill="#7764F0"/>
<path d="M78.7315 77.913C78.7 77.913 78.6678 77.9066 78.6381 77.8937L68.6909 73.6137C68.6336 73.5885 68.5879 73.5422 68.5647 73.4842C68.5415 73.4263 68.5422 73.3612 68.5673 73.3039L70.8425 68.016C71.6475 66.5103 74.7194 67.2812 77.2374 68.6265C79.3253 69.7419 81.4969 71.5419 80.7666 72.951L78.9518 77.7597C78.9292 77.8203 78.8829 77.8686 78.8236 77.8937C78.7946 77.9072 78.7631 77.913 78.7315 77.913ZM69.0941 73.2743L78.5982 77.3637L80.3306 72.772C80.3344 72.7623 80.3383 72.7533 80.3428 72.7443C80.8664 71.7615 79.0651 70.1386 77.0153 69.0432C74.6499 67.7797 71.8536 67.1273 71.2669 68.2214L69.0941 73.2743Z" fill="#171717"/>
<path d="M51.0355 73.9885C58.1955 74.3485 64.3696 80.9656 64.3696 80.9656L68.7842 71.643C71.554 67.9703 81.5193 73.9421 79.3638 77.6773C79.3638 77.6773 73.7314 92.8094 68.2709 94.6004C63.7558 96.0809 49.4043 89.3415 49.4043 89.3415L51.0355 73.9885Z" fill="white"/>
<path d="M66.6654 95.0474C61.071 95.0474 49.8325 89.8033 49.3038 89.5554C49.213 89.5123 49.1589 89.4169 49.1692 89.3171L50.8005 73.9642C50.814 73.8399 50.917 73.742 51.0471 73.7536C57.4259 74.0743 63.0835 79.3499 64.3006 80.56L68.571 71.5434C68.5781 71.5286 68.5865 71.515 68.5961 71.5022C70.172 69.4124 73.8222 70.189 76.6133 72.0367C78.7031 73.42 80.7291 75.7513 79.5783 77.7792C79.2627 78.6235 73.8042 93.0356 68.345 94.8259C67.8755 94.9785 67.3075 95.0474 66.6654 95.0474ZM49.6561 89.1986C51.2062 89.9122 64.0688 95.7307 68.1975 94.3764C73.4886 92.6415 79.0869 77.7457 79.1429 77.5957C79.1474 77.5834 79.1532 77.5712 79.1597 77.5603C80.1038 75.9245 78.43 73.8045 76.3531 72.4295C73.8183 70.7513 70.3826 69.954 68.987 71.7668L64.5827 81.0668C64.5492 81.1377 64.4829 81.1873 64.4056 81.1989C64.3283 81.2105 64.2504 81.184 64.197 81.1267C64.1364 81.0617 58.1331 74.7118 51.2461 74.2372L49.6561 89.1986Z" fill="#171717"/>
<path d="M55.8055 123.237C57.4 127.685 25.6592 129.291 22.1243 124.455C19.7563 121.214 18.2294 85.0744 22.2003 77.6439C25.2805 71.8801 36.6793 71.4145 45.4197 73.3117H45.4223C48.4658 73.8803 48.6848 74.5398 50.0011 75.5264C55.678 79.7845 57.7813 115.236 55.8055 123.237Z" fill="white"/>
<path d="M37.2652 127.643C34.0768 127.643 23.9937 127.413 21.9335 124.594C19.5005 121.266 17.9967 85.008 21.9921 77.5331C23.4353 74.8328 26.7764 73.0482 31.6547 72.372C35.7409 71.806 40.7705 72.0629 45.4569 73.0792C45.4595 73.0792 45.4627 73.0798 45.4653 73.0804C47.9788 73.5506 48.6421 74.105 49.4813 74.807C49.6835 74.9757 49.8921 75.1509 50.1426 75.3383C53.7529 78.0457 55.4473 92.0578 56.0082 97.9562C56.9987 108.372 57.0154 119.204 56.05 123.229C56.1995 123.735 56.0674 124.463 54.7234 125.176C52.0019 126.619 44.858 127.634 37.3496 127.643C37.3219 127.643 37.2936 127.643 37.2652 127.643ZM36.2432 72.5421C29.9668 72.5421 24.3652 74.0935 22.4081 77.7559C20.697 80.9579 19.8044 90.2514 20.0208 102.617C20.2069 113.28 21.2148 122.811 22.3148 124.316C23.6034 126.08 29.3176 127.171 37.2382 127.171C37.2755 127.171 37.3122 127.171 37.3496 127.171C44.7891 127.162 51.8428 126.169 54.5032 124.758C55.3938 124.286 55.757 123.801 55.5838 123.317C55.5683 123.273 55.5658 123.225 55.5767 123.18C56.5466 119.253 56.5305 108.428 55.5387 98C54.3827 85.8458 52.2601 77.515 49.8599 75.715C49.5997 75.5199 49.3859 75.3409 49.1792 75.1683C48.3633 74.4856 47.7734 73.9923 45.3893 73.5454C45.3828 73.5448 45.3764 73.5435 45.37 73.5422C42.3895 72.8956 39.2391 72.5421 36.2432 72.5421Z" fill="#171717"/>
<path d="M43.7614 73.0188L39.097 82.9402C35.0739 79.3583 31.861 77.0837 29.8633 73.0188V72.9582C34.01 72.0341 39.1118 72.1616 43.7222 72.9556L43.7614 73.0188Z" fill="#7764F0"/>
<path d="M55.317 80.8226C56.9264 86.54 56.1143 96.8144 56.531 106.245C56.9624 116.009 57.9349 122.816 57.4635 125.824C56.7473 129.199 50.7401 129.723 46.7975 128.9C44.7838 115.573 41.3995 89.6242 43.6117 73.0173H43.6143C46.2244 73.0173 51.8517 73.9305 53.4018 74.304" fill="white"/>
<path d="M50.2711 129.481C49.0333 129.481 47.8103 129.353 46.749 129.131C46.6524 129.111 46.579 129.033 46.5642 128.935C43.9843 111.865 41.3381 88.3021 43.3777 72.9865C43.3931 72.8693 43.493 72.7817 43.6115 72.7817C46.1965 72.7817 51.854 73.6891 53.4563 74.0749C53.5832 74.1058 53.6611 74.2327 53.6302 74.3595C53.5999 74.4864 53.4717 74.563 53.3455 74.5334C51.8006 74.1612 46.4509 73.2995 43.8175 73.2551C41.8424 88.4722 44.4499 111.752 47.0053 128.702C50.9241 129.473 56.57 128.895 57.2321 125.775C57.5096 124.002 57.2713 120.834 56.9416 116.449C56.7188 113.491 56.467 110.139 56.295 106.256C56.1546 103.076 56.1534 99.8053 56.1521 96.6426C56.1501 90.4743 56.1482 84.6487 55.0895 80.8865C55.0541 80.7609 55.1268 80.6308 55.2524 80.5954C55.378 80.5606 55.5081 80.6334 55.5435 80.759C56.6203 84.5837 56.6222 90.4409 56.6241 96.6426C56.6254 99.8008 56.6261 103.066 56.7664 106.235C56.9377 110.111 57.1896 113.459 57.4124 116.413C57.7447 120.83 57.9849 124.021 57.6964 125.861C57.1316 128.52 53.6495 129.481 50.2711 129.481Z" fill="#171717"/>
<path d="M19.2517 125.646C19.9679 129.021 30.3929 129.013 34.3349 128.19C37.2258 114.866 36.9392 89.6417 29.7187 73.0168H29.7161C26.6725 73.5861 24.2163 74.6912 22.9 75.6779C17.2238 79.9366 18.1183 118.418 19.2517 125.646Z" fill="white"/>
<path d="M28.7754 128.88C24.4432 128.88 19.5411 128.146 19.0208 125.695C19.0201 125.691 19.0188 125.687 19.0182 125.683C18.4077 121.792 17.9569 110.098 18.2853 99.5411C18.5861 89.8734 19.6068 77.8538 22.7579 75.4903C23.9712 74.581 26.4242 73.3928 29.6725 72.7855C29.6938 72.7823 29.7157 72.7803 29.7369 72.7823C29.8226 72.79 29.8999 72.8447 29.9346 72.9233C34.1232 82.5672 35.5741 93.9641 36.0539 101.827C36.6367 111.384 36.0803 121.258 34.565 128.24C34.545 128.33 34.4742 128.401 34.3827 128.421C33.1366 128.681 31.0333 128.88 28.7754 128.88ZM19.4838 125.604C20.1542 128.699 30.0879 128.781 34.1374 127.99C37.179 113.767 36.2993 88.928 29.5772 73.2846C26.5002 73.8861 24.1895 75.0073 23.0419 75.8677C20.7003 77.6239 19.1792 86.0364 18.758 99.5559C18.3993 111.056 18.9596 122.252 19.4838 125.604Z" fill="#171717"/>
<path d="M48.7002 101.802L54.8832 102.323C54.8832 102.323 58.4355 99.6984 57.0323 98.3659C55.7494 97.1468 48.7002 101.802 48.7002 101.802Z" fill="white"/>
<path d="M54.883 102.558C54.8765 102.558 54.8701 102.558 54.863 102.558L48.68 102.037C48.5801 102.028 48.4958 101.957 48.4713 101.86C48.4462 101.763 48.4861 101.661 48.5698 101.605C49.7728 100.81 55.8438 96.9111 57.1943 98.1946C57.4828 98.4689 57.6174 98.8077 57.5929 99.2005C57.5028 100.664 55.1238 102.437 55.0227 102.512C54.9821 102.542 54.9332 102.558 54.883 102.558ZM49.407 101.625L54.8128 102.08C55.4973 101.559 57.061 100.169 57.1222 99.1722C57.1376 98.921 57.0552 98.7137 56.8697 98.5372C56.0918 97.796 52.1048 99.9096 49.407 101.625Z" fill="#171717"/>
<path d="M65.1873 112.858L56.9963 112.109C55.2691 111.951 53.9965 110.423 54.1549 108.696L55.5485 93.4504C55.7063 91.7231 57.2345 90.4506 58.9617 90.609L67.1528 91.358C68.88 91.5158 70.1525 93.044 69.9941 94.7712L68.6005 110.017C68.4427 111.744 66.9145 113.016 65.1873 112.858Z" fill="#171717"/>
<path d="M65.4754 113.107C65.373 113.107 65.2699 113.102 65.1656 113.093L56.9746 112.344C55.1205 112.174 53.7501 110.528 53.9194 108.674L55.313 93.4289C55.3948 92.5306 55.8224 91.7185 56.5154 91.1415C57.2083 90.5651 58.0842 90.2939 58.9832 90.3738L67.1742 91.1228C68.0726 91.2046 68.8847 91.6315 69.4617 92.3251C70.0387 93.0181 70.3112 93.8946 70.2294 94.7929L68.8358 110.038C68.6754 111.788 67.1994 113.107 65.4754 113.107ZM65.2081 112.623C66.8007 112.768 68.2194 111.59 68.365 109.995L69.7586 94.7498C69.8294 93.977 69.5944 93.2229 69.0985 92.6265C68.602 92.0302 67.9032 91.6631 67.1304 91.5923L58.9394 90.8433C58.1679 90.7737 57.4131 91.0075 56.8161 91.5034C56.2198 91.9999 55.8527 92.6986 55.7819 93.4714L54.3883 108.717C54.2427 110.312 55.4212 111.728 57.0164 111.874L65.2081 112.623Z" fill="#171717"/>
<path d="M48.6992 101.802L49.4031 108.893C49.4031 108.893 58.5273 110.445 60.6899 108.911C62.1582 107.867 61.2031 107.268 61.2031 107.268C62.9013 106.221 61.2025 105.195 61.2025 105.195C61.9521 104.987 62.5961 104.117 61.889 103.489C61.198 102.87 57.5819 103.171 57.4235 103.184C57.5929 103.122 61.5329 102.259 60.8109 101.209C60.0748 100.135 53.4371 101.131 53.4371 101.131" fill="white"/>
<path d="M56.8003 109.823C53.5179 109.823 49.6107 109.168 49.3641 109.126C49.2591 109.108 49.1792 109.022 49.1689 108.917L48.465 101.825C48.4522 101.696 48.5468 101.58 48.6763 101.567C48.8044 101.554 48.9216 101.649 48.9345 101.778L49.621 108.689C50.8974 108.893 58.6576 110.064 60.5549 108.718C61.023 108.385 61.2781 108.061 61.2736 107.807C61.2697 107.595 61.0849 107.471 61.0765 107.466C61.0089 107.421 60.9683 107.345 60.9689 107.264C60.9702 107.184 61.0114 107.108 61.0797 107.066C61.5067 106.802 61.7231 106.533 61.7224 106.263C61.7218 105.871 61.2587 105.503 61.081 105.395C61.0005 105.346 60.9574 105.254 60.9702 105.161C60.9831 105.067 61.0501 104.991 61.1409 104.966C61.526 104.859 61.8718 104.541 61.9452 104.226C61.9929 104.02 61.9221 103.83 61.734 103.663C61.3302 103.302 59.2714 103.266 57.4456 103.416C57.3297 103.425 57.2209 103.347 57.1951 103.232C57.17 103.117 57.2331 103 57.3439 102.96C57.3645 102.952 57.4353 102.933 57.5442 102.905C60.0416 102.262 60.5632 101.769 60.6521 101.532C60.6701 101.484 60.6785 101.428 60.6186 101.34C60.1678 100.682 56.1692 100.957 53.4747 101.361C53.3459 101.379 53.2261 101.292 53.2068 101.163C53.1875 101.034 53.2764 100.914 53.4052 100.894C54.538 100.725 60.2283 99.9348 61.0082 101.073C61.1441 101.27 61.1737 101.487 61.0945 101.697C60.9419 102.105 60.3745 102.483 59.3396 102.858C60.446 102.85 61.6368 102.942 62.0489 103.311C62.3664 103.593 62.4933 103.956 62.4057 104.332C62.3213 104.696 62.038 105.038 61.667 105.252C61.9098 105.475 62.1938 105.828 62.1958 106.258C62.1977 106.636 61.9884 106.985 61.5743 107.299C61.6658 107.425 61.7411 107.59 61.7463 107.787C61.7585 108.217 61.45 108.658 60.8292 109.1C60.0654 109.644 58.5185 109.823 56.8003 109.823Z" fill="#171717"/>
<path d="M57.6516 105.753C57.5312 105.753 57.4281 105.661 57.4172 105.539C57.4056 105.409 57.5009 105.295 57.631 105.282L61.1826 104.959C61.3121 104.946 61.4274 105.042 61.439 105.172C61.4505 105.302 61.3552 105.416 61.2251 105.429L57.6735 105.753C57.6658 105.753 57.6587 105.753 57.6516 105.753ZM57.6233 107.735C57.4996 107.735 57.3959 107.639 57.3882 107.514C57.3798 107.384 57.4784 107.272 57.6084 107.263L61.1865 107.032C61.3185 107.028 61.4286 107.122 61.437 107.252C61.4454 107.382 61.3469 107.494 61.2168 107.502L57.6387 107.734C57.6336 107.734 57.6284 107.735 57.6233 107.735Z" fill="#171717"/>
<path d="M49.1948 110.212L44.6372 111.206L42.9873 101.546L48.1226 100.669C50.6271 100.458 51.6691 110 49.1948 110.212Z" fill="#7764F0"/>
<path d="M44.6367 111.442C44.5903 111.442 44.5439 111.428 44.5046 111.401C44.4512 111.365 44.4151 111.309 44.4042 111.245L42.7543 101.585C42.744 101.524 42.7581 101.46 42.7942 101.409C42.8302 101.358 42.885 101.323 42.9468 101.313L48.0821 100.436C49.6405 100.296 50.575 103.027 50.7946 105.612C50.9768 107.756 50.6755 110.303 49.2303 110.445L44.6869 111.436C44.6702 111.44 44.6534 111.442 44.6367 111.442ZM43.2585 101.739L44.8273 110.923L49.144 109.982C49.1537 109.98 49.164 109.979 49.1743 109.978C50.0476 109.903 50.5312 108.084 50.3245 105.653C50.1197 103.246 49.2451 100.823 48.142 100.905L43.2585 101.739Z" fill="#171717"/>
<path d="M24.1514 74.8953C24.1514 74.8953 20.2629 76.1163 16.8349 81.9722C13.1216 88.3162 8.48482 111.953 16.0177 114.448C23.5506 116.942 46.4467 111.447 46.4467 111.447C49.2932 111.037 47.3354 100.394 44.4889 100.804L21.9747 102.955C21.9747 102.955 27.5575 92.0308 27.4139 85.86" fill="white"/>
<path d="M21.5787 115.338C19.335 115.338 17.3747 115.145 15.9437 114.671C14.5346 114.204 13.4617 113.018 12.7546 111.144C11.0577 106.647 11.8659 99.5033 12.4983 95.6451C13.4154 90.0519 15.0762 84.5097 16.6315 81.8525C20.066 75.9857 23.9184 74.7209 24.0807 74.67C24.2049 74.6313 24.337 74.6996 24.3762 74.8239C24.4155 74.9482 24.3466 75.0802 24.2223 75.1201C24.1843 75.1324 20.3725 76.3953 17.0385 82.0908C14.0871 87.1327 10.4459 103.687 13.1958 110.977C13.8501 112.712 14.8244 113.803 16.0918 114.223C23.4746 116.669 46.1628 111.272 46.3914 111.217C47.4166 111.068 47.8488 109.101 47.4636 106.429C47.0682 103.689 45.8292 100.847 44.5219 101.036L21.9967 103.188C21.9104 103.196 21.8279 103.157 21.779 103.086C21.7307 103.015 21.7249 102.923 21.7642 102.846C21.8196 102.737 27.318 91.9041 27.1776 85.864C27.1744 85.7339 27.2775 85.6257 27.4076 85.6225C27.5409 85.6244 27.6458 85.7229 27.6491 85.853C27.7791 91.4346 23.3742 100.662 22.376 102.679L44.4658 100.568C46.1531 100.325 47.4888 103.298 47.9305 106.363C48.2635 108.671 48.0832 111.449 46.4796 111.68C45.739 111.86 31.1099 115.338 21.5787 115.338Z" fill="#171717"/>
<path d="M31.7202 62.4912L31.29 72.6632C31.2881 74.3125 38.6928 79.0356 38.6928 79.0356C38.6928 79.0356 41.6288 74.7549 41.6404 72.5878V64.9906L31.7202 62.4912Z" fill="white"/>
<path d="M38.6922 79.2718C38.649 79.2718 38.6046 79.2596 38.5653 79.2345C37.7964 78.7438 31.0518 74.3916 31.0537 72.6631L31.4845 62.4815C31.4878 62.4106 31.5225 62.3449 31.5792 62.3024C31.6359 62.2599 31.7087 62.2451 31.7776 62.2625L41.6971 64.7625C41.8021 64.7889 41.8755 64.8829 41.8755 64.9911V72.5884C41.8632 74.8038 39.0078 78.9923 38.8867 79.1694C38.841 79.2358 38.7675 79.2718 38.6922 79.2718ZM31.9437 62.7906L31.5251 72.6734C31.5245 73.7457 35.7981 76.891 38.6246 78.7128C39.1836 77.866 41.3938 74.4045 41.4041 72.5871V65.1753L31.9437 62.7906Z" fill="#171717"/>
<path d="M31.7477 62.519C31.7477 62.519 27.3132 59.4851 28.3249 56.7713C29.3373 54.0594 32.2951 57.1274 32.2951 57.1274C32.2951 57.1274 30.1242 47.3728 38.3603 45.7763C40.6994 45.3236 42.6745 46.7004 44.1441 48.9757C47.954 54.8734 48.3655 66.7932 42.8941 68.4374C39.2143 69.5425 36.561 68.3775 34.7688 66.7977" fill="white"/>
<path d="M40.0736 69.1129C38.0566 69.1129 36.2277 68.3987 34.6125 66.9742C34.5146 66.8879 34.5056 66.7391 34.5913 66.6412C34.6769 66.5433 34.8263 66.5337 34.9242 66.62C37.1499 68.581 39.8083 69.1161 42.8261 68.21C44.2249 67.7895 45.3216 66.5974 45.9971 64.7627C47.584 60.4517 46.645 53.2802 43.946 49.1025C42.8544 47.412 41.0068 45.5026 38.4057 46.0068C36.2856 46.4177 34.6879 47.4236 33.6568 48.9969C31.4955 52.2948 32.515 57.0276 32.5259 57.0753C32.5491 57.1783 32.5002 57.2839 32.4075 57.3341C32.3141 57.3844 32.1994 57.3657 32.126 57.2904C31.692 56.8408 30.3628 55.7158 29.438 55.909C29.0445 55.9908 28.7528 56.2999 28.546 56.8524C27.6097 59.3647 31.8382 62.2942 31.8813 62.3232C31.9889 62.3966 32.0165 62.5435 31.9425 62.651C31.8691 62.7586 31.7222 62.7862 31.6147 62.7122C31.4273 62.584 27.0397 59.5418 28.1036 56.6876C28.3676 55.9805 28.7843 55.5631 29.3414 55.4466C30.2616 55.2572 31.3249 55.974 31.9438 56.4873C31.7319 55.008 31.473 51.466 33.2614 48.738C34.3652 47.054 36.0654 45.9791 38.3155 45.5431C40.5792 45.1033 42.6632 46.247 44.3421 48.8456C47.11 53.1308 48.0702 60.4943 46.4396 64.925C45.7112 66.9046 44.5082 68.1965 42.962 68.6615C41.9605 68.9635 40.9971 69.1129 40.0736 69.1129Z" fill="#171717"/>
<path d="M47.0493 45.7923C44.481 52.3341 33.8827 48.7567 34.6098 50.2256C35.6762 52.383 33.618 58.1616 33.0874 58.2293C32.5574 58.2988 32.2952 57.128 32.2952 57.128C32.2952 57.128 29.3373 54.06 28.325 56.7719C27.3133 59.4863 31.7478 62.5196 31.7478 62.5196C25.2261 62.7405 22.0028 54.3981 22.2495 49.5069C22.4961 44.6157 25.6743 44.4515 25.6743 44.4515C25.4167 41.6991 28.4267 39.7291 30.8591 40.3022C33.2909 40.8728 42.2296 44.0336 42.3841 39.5694C45.9468 37.8016 48.6599 41.6888 47.0493 45.7923Z" fill="#171717"/>
<path d="M31.4891 62.7592C29.429 62.7592 27.5775 61.9387 25.9829 60.3171C23.1628 57.45 21.8517 52.7024 22.0133 49.494C22.2278 45.2404 24.6492 44.4084 25.4246 44.2506C25.3834 43.0869 25.8799 41.9979 26.8388 41.1633C27.9825 40.167 29.5436 39.7484 30.9127 40.071C31.2373 40.147 31.6759 40.2687 32.184 40.4098C34.7613 41.124 39.5584 42.4532 41.4035 41.1008C41.8801 40.7511 42.1235 40.2468 42.1473 39.5597C42.1505 39.4728 42.2008 39.3948 42.278 39.3568C43.7676 38.6182 45.2495 38.7702 46.3423 39.7735C47.8036 41.1137 48.1758 43.5673 47.2678 45.878C45.4523 50.5025 39.7626 50.243 36.7049 50.102C35.9263 50.0666 35.0498 50.026 34.8225 50.1264C35.7691 52.0546 34.4348 56.4402 33.6562 57.8892C33.4495 58.2743 33.293 58.4398 33.1152 58.4624C32.4622 58.5525 32.1615 57.575 32.079 57.2459C31.6044 56.7712 30.3306 55.7228 29.4354 55.9102C29.0419 55.992 28.7502 56.3011 28.5435 56.8537C27.6071 59.3659 31.8356 62.2955 31.8787 62.3245C31.9631 62.3818 32.0005 62.4867 31.9721 62.5846C31.9438 62.6825 31.8556 62.7508 31.7538 62.7546C31.6662 62.7579 31.5773 62.7592 31.4891 62.7592ZM29.9925 40.4394C28.9949 40.4394 27.9433 40.8277 27.1486 41.52C26.247 42.3051 25.8065 43.338 25.9089 44.4296C25.9147 44.4934 25.8947 44.5571 25.8522 44.6061C25.8103 44.6544 25.7504 44.684 25.686 44.6872C25.5656 44.6943 22.7172 44.9152 22.4847 49.5192C22.3282 52.6245 23.595 57.2175 26.3197 59.9874C27.7005 61.3907 29.2802 62.1577 31.0254 62.2729C29.8179 61.3102 27.2645 58.9415 28.1036 56.6895C28.3676 55.9823 28.7843 55.565 29.3414 55.4485C30.7099 55.1657 32.3933 56.8904 32.4641 56.9644C32.4938 56.9954 32.515 57.0346 32.5247 57.0765C32.611 57.459 32.8389 57.971 33.0289 57.9955C33.5093 57.5608 35.3982 52.354 34.3981 50.3306C34.2944 50.1213 34.3433 49.97 34.4019 49.8798C34.6183 49.5488 35.2327 49.5629 36.7274 49.6312C39.8727 49.7768 45.1374 50.0163 46.8298 45.706C47.7958 43.2447 47.1216 41.1278 46.0242 40.1213C45.1116 39.2841 43.8739 39.1411 42.6116 39.7213C42.553 40.4813 42.2413 41.0731 41.6836 41.482C39.6544 42.9697 34.8997 41.6527 32.0591 40.8651C31.5554 40.726 31.1207 40.6049 30.8052 40.5308C30.5431 40.469 30.27 40.4394 29.9925 40.4394Z" fill="#171717"/>
<path d="M37.5284 48.9107L37.4756 48.4418C38.7191 48.3027 40.0046 48.1585 41.2114 47.7843C42.5361 47.3741 43.6148 46.712 44.331 45.869C45.1643 44.8882 45.5166 43.5989 45.2493 42.5041L45.7078 42.3921C46.0099 43.6311 45.6203 45.0801 44.6903 46.1743C43.9053 47.0984 42.7815 47.7914 41.3512 48.2345C40.1018 48.6221 38.7939 48.7683 37.5284 48.9107Z" fill="white"/>
<path d="M38.4253 47.0424C38.0904 47.0424 37.7549 47.0063 37.4277 46.9342L37.5295 46.4737C38.3815 46.6631 39.2908 46.5755 40.0907 46.2277C40.8905 45.8799 41.5751 45.2752 42.0182 44.5237L42.4245 44.7633C41.9319 45.5998 41.1694 46.2734 40.2787 46.6605C39.6959 46.9136 39.0603 47.0424 38.4253 47.0424Z" fill="white"/>
<path d="M27.8637 44.6061C27.6248 43.6601 28.0846 42.5839 28.9327 42.1022C29.3475 41.8665 29.8575 41.7525 30.4397 41.7628L30.4313 42.2343C29.9303 42.2272 29.5059 42.3193 29.1659 42.5125C28.4955 42.8931 28.1329 43.7438 28.3216 44.4908L27.8637 44.6061Z" fill="white"/>
<path d="M33.8743 54.4123L33.4492 54.2081C33.824 53.427 33.8414 52.4861 33.4949 51.6914L33.9271 51.5027C34.3276 52.4217 34.3077 53.5087 33.8743 54.4123Z" fill="white"/>
<path d="M44.5706 55.5491C44.9368 55.4974 45.1791 55.0678 45.1116 54.5896C45.0442 54.1113 44.6926 53.7654 44.3263 53.8171C43.96 53.8688 43.7178 54.2984 43.7852 54.7766C43.8527 55.2549 44.2043 55.6007 44.5706 55.5491Z" fill="#171717"/>
<path d="M44.9238 52.9684C44.368 52.5388 43.3962 52.7906 43.0742 53.8153L44.9238 52.9684Z" fill="white"/>
<path d="M43.074 54.0516C43.0508 54.0516 43.027 54.0484 43.0032 54.0407C42.8789 54.0021 42.81 53.8694 42.8486 53.7451C43.0289 53.1707 43.4179 52.7514 43.9144 52.5956C44.3202 52.4687 44.751 52.5376 45.0672 52.7823C45.1702 52.8622 45.1896 53.0103 45.1097 53.1133C45.0305 53.2164 44.8824 53.2357 44.7787 53.1558C44.5842 53.0058 44.3144 52.9652 44.0555 53.0457C43.7077 53.1552 43.4314 53.4617 43.2981 53.8868C43.2672 53.9872 43.1745 54.0516 43.074 54.0516Z" fill="#171717"/>
<path d="M38.4485 56.9832C38.8148 56.9315 39.057 56.5019 38.9895 56.0236C38.9221 55.5454 38.5705 55.1995 38.2042 55.2512C37.8379 55.3028 37.5957 55.7324 37.6632 56.2107C37.7306 56.689 38.0822 57.0348 38.4485 56.9832Z" fill="#171717"/>
<path d="M38.8007 54.4027C38.245 53.9732 37.2732 54.225 36.9512 55.2496L38.8007 54.4027Z" fill="white"/>
<path d="M36.952 55.4858C36.9288 55.4858 36.9049 55.4826 36.8811 55.4749C36.7568 55.4362 36.6879 55.3036 36.7266 55.1793C36.9069 54.6048 37.2952 54.1862 37.7924 54.0297C38.1981 53.9016 38.6289 53.9718 38.9451 54.2165C39.0482 54.2957 39.0675 54.4438 38.9876 54.5475C38.9078 54.6505 38.7597 54.6699 38.6566 54.59C38.4628 54.44 38.1923 54.3994 37.9334 54.4805C37.5857 54.59 37.31 54.8966 37.1761 55.3216C37.1452 55.4214 37.0518 55.4858 36.952 55.4858Z" fill="#171717"/>
<path d="M41.3457 56.8337C41.736 58.114 42.3671 59.2951 42.7574 60.5754C42.8218 60.786 42.8868 61.0069 42.8456 61.2232C42.7921 61.504 42.5635 61.7262 42.3046 61.8479C42.0457 61.969 41.7566 62.0057 41.4726 62.0411" fill="white"/>
<path d="M41.4713 62.2761C41.3541 62.2761 41.2524 62.1885 41.2376 62.0693C41.2215 61.9399 41.3129 61.822 41.4423 61.8066C41.7051 61.7737 41.9762 61.7403 42.2036 61.634C42.3749 61.5541 42.5726 61.3918 42.6131 61.1787C42.6447 61.0151 42.5842 60.818 42.5313 60.6442C42.3394 60.015 42.0818 59.3948 41.8333 58.7946C41.5802 58.1847 41.318 57.553 41.1197 56.9025C41.0817 56.7782 41.1519 56.6462 41.2762 56.6082C41.4011 56.5696 41.5325 56.6404 41.5705 56.7647C41.7624 57.3939 42.02 58.0141 42.2686 58.6143C42.5217 59.2241 42.7838 59.8559 42.9821 60.5063C43.0478 60.7214 43.1296 60.9887 43.0762 61.2676C43.0131 61.5966 42.7619 61.8935 42.4032 62.0616C42.1082 62.1994 41.7849 62.24 41.5003 62.2754C41.4913 62.2761 41.481 62.2761 41.4713 62.2761Z" fill="#171717"/>
<path d="M39.29 64.0027C40.0764 65.4755 41.2929 65.1142 42.2679 64.4477L39.29 64.0027Z" fill="white"/>
<path d="M40.7401 65.2637C40.6023 65.2637 40.469 65.2476 40.3402 65.2161C39.8289 65.0905 39.4058 64.7196 39.0825 64.1129C39.0213 63.9983 39.0644 63.8553 39.1797 63.7941C39.295 63.733 39.4373 63.7761 39.4985 63.8914C39.7561 64.3744 40.0774 64.6661 40.4529 64.7582C40.9134 64.8715 41.4794 64.7015 42.1357 64.2533C42.2432 64.1799 42.3901 64.2076 42.4635 64.3145C42.5369 64.422 42.5092 64.5689 42.4016 64.6423C41.7963 65.0557 41.2399 65.2637 40.7401 65.2637Z" fill="#171717"/>
<path d="M44.5666 57.794C43.0538 57.794 41.6956 56.4976 41.4464 54.735C41.3169 53.818 41.503 52.9112 41.9706 52.1809C42.4452 51.439 43.1523 50.9676 43.9618 50.8536C44.7707 50.7403 45.5809 50.9966 46.2422 51.5775C46.894 52.1493 47.3242 52.9698 47.4536 53.8869C47.583 54.8039 47.3969 55.7107 46.9294 56.441C46.4548 57.1829 45.7476 57.6543 44.9381 57.7682C44.8138 57.785 44.6896 57.794 44.5666 57.794ZM44.336 51.2986C44.233 51.2986 44.1306 51.3057 44.0275 51.3205C43.3565 51.4152 42.7672 51.8113 42.3679 52.4353C41.9609 53.0709 41.7999 53.8637 41.9133 54.6693C42.1464 56.318 43.4743 57.4991 44.8725 57.3013C45.5429 57.2067 46.1328 56.8106 46.532 56.1866C46.939 55.551 47.1 54.7582 46.9867 53.9526C46.8734 53.1476 46.4979 52.4295 45.9312 51.9323C45.4598 51.5176 44.9027 51.2986 44.336 51.2986Z" fill="#7764F0"/>
<path d="M37.964 59.3338C36.4513 59.3338 35.0931 58.0374 34.8438 56.2748C34.7144 55.3577 34.9005 54.451 35.3681 53.7207C35.8427 52.9794 36.5498 52.508 37.3593 52.3934C38.1682 52.2794 38.9783 52.5364 39.6397 53.1172C40.2914 53.6898 40.7216 54.5096 40.8511 55.4266C40.9805 56.3437 40.7944 57.2504 40.3269 57.9807C39.8522 58.722 39.1451 59.1934 38.3356 59.308C38.2107 59.3248 38.087 59.3338 37.964 59.3338ZM37.7335 52.8384C37.6304 52.8384 37.5274 52.8455 37.4243 52.8603C36.7533 52.955 36.164 53.351 35.7648 53.9751C35.3577 54.61 35.1967 55.4034 35.3101 56.2091C35.5432 57.8577 36.8711 59.0401 38.2693 58.8411C38.9397 58.7464 39.5296 58.3504 39.9289 57.7264C40.3359 57.0914 40.4969 56.298 40.3835 55.4923C40.2702 54.6867 39.8947 53.9693 39.328 53.4714C38.8572 53.0574 38.3002 52.8384 37.7335 52.8384Z" fill="#7764F0"/>
<path d="M40.5634 55.3983C40.5229 55.3983 40.4816 55.388 40.4443 55.3655C40.3329 55.2998 40.2949 55.1568 40.3599 55.0454C40.3773 55.0152 40.8056 54.2997 41.7233 54.4697C41.8514 54.4935 41.9358 54.6172 41.912 54.7447C41.8881 54.8722 41.7651 54.9553 41.637 54.9334C41.0522 54.822 40.7785 55.2644 40.7669 55.2837C40.7218 55.3571 40.6433 55.3983 40.5634 55.3983Z" fill="#7764F0"/>
<path d="M35.1403 56.8151C35.1113 56.8151 35.0823 56.81 35.0533 56.7984C35.0327 56.7906 33.9663 56.401 30.9974 56.6477C30.866 56.6618 30.7533 56.562 30.743 56.4326C30.7321 56.3025 30.8287 56.1892 30.9588 56.1782C34.0835 55.9167 35.1834 56.3424 35.2285 56.3605C35.3496 56.4088 35.4082 56.5466 35.3592 56.667C35.3219 56.7591 35.2336 56.8151 35.1403 56.8151Z" fill="#7764F0"/>
<path d="M54.3064 95.3882L47.6545 95.8848C47.5096 95.8957 47.3834 95.7869 47.3724 95.642L46.7703 87.5733C46.7593 87.4284 46.8682 87.3022 47.0131 87.2912L53.665 86.7947C53.8099 86.7838 53.9361 86.8926 53.947 87.0375L54.5492 95.1062C54.5601 95.2511 54.4513 95.3773 54.3064 95.3882Z" fill="#7764F0"/>
<path d="M48.2802 96.0708C47.9936 96.0708 47.7192 95.969 47.4996 95.7803C47.2568 95.5717 47.11 95.2806 47.0862 94.9612L46.5884 88.2893C46.5388 87.6299 47.0353 87.0535 47.6948 87.0039L52.9498 86.6117C53.2673 86.5872 53.5784 86.6896 53.8218 86.8989C54.0646 87.1076 54.2114 87.3987 54.2352 87.7181L54.733 94.3899C54.7569 94.7094 54.6551 95.0185 54.4458 95.2613C54.2365 95.5041 53.9454 95.6509 53.626 95.6747L48.371 96.0669C48.3407 96.0695 48.3104 96.0708 48.2802 96.0708ZM53.04 87.0799C53.0213 87.0799 53.0033 87.0805 52.9846 87.0818L47.7295 87.474C47.3296 87.5037 47.0282 87.854 47.0585 88.2539L47.5563 94.9258C47.5711 95.1196 47.66 95.296 47.8068 95.4229C47.9543 95.5498 48.1417 95.6123 48.3355 95.5968L53.5906 95.2046C53.7844 95.1898 53.9609 95.1009 54.0878 94.9541C54.2146 94.8066 54.2764 94.6192 54.2623 94.4254L53.7645 87.7535C53.7497 87.5597 53.6608 87.3832 53.514 87.2564C53.3806 87.1411 53.2138 87.0799 53.04 87.0799Z" fill="#171717"/>
<path d="M149.022 83.221V99.6713C149.022 101.384 147.634 102.772 145.921 102.772H126.139C124.427 102.772 123.038 101.384 123.038 99.6713V83.221C123.038 81.5086 124.427 80.1201 126.139 80.1201H145.921C147.634 80.1201 149.022 81.5086 149.022 83.221Z" fill="white"/>
<path d="M145.922 103.008H126.139C124.299 103.008 122.803 101.511 122.803 99.6706V83.2203C122.803 81.3804 124.299 79.8831 126.139 79.8831H145.922C147.762 79.8831 149.258 81.3804 149.258 83.2203V99.6706C149.258 101.511 147.762 103.008 145.922 103.008ZM126.139 80.3558C124.56 80.3558 123.274 81.6412 123.274 83.2209V99.6712C123.274 101.251 124.56 102.536 126.139 102.536H145.922C147.501 102.536 148.787 101.251 148.787 99.6712V83.2209C148.787 81.6412 147.501 80.3558 145.922 80.3558H126.139Z" fill="#171717"/>
<path d="M130.074 94.0659H126.862V99.2482H130.074V94.0659Z" fill="#4224FE"/>
<path d="M130.074 99.4838H126.863C126.733 99.4838 126.627 99.3781 126.627 99.2481V94.0658C126.627 93.9357 126.733 93.8301 126.863 93.8301H130.074C130.204 93.8301 130.31 93.9357 130.31 94.0658V99.2481C130.31 99.3788 130.204 99.4838 130.074 99.4838ZM127.098 99.0123H129.839V94.3021H127.098V99.0123Z" fill="#171717"/>
<path d="M135.102 91.573H131.891V99.2482H135.102V91.573Z" fill="#7764F0"/>
<path d="M135.103 99.4838H131.891C131.761 99.4838 131.655 99.3781 131.655 99.2481V91.5729C131.655 91.4428 131.761 91.3372 131.891 91.3372H135.103C135.233 91.3372 135.338 91.4428 135.338 91.5729V99.2481C135.338 99.3788 135.233 99.4838 135.103 99.4838ZM132.127 99.0123H134.867V91.8086H132.127V99.0123Z" fill="#171717"/>
<path d="M140.132 89.9448H136.92V99.248H140.132V89.9448Z" fill="#4224FE"/>
<path d="M140.132 99.4839H136.92C136.79 99.4839 136.685 99.3782 136.685 99.2482V89.9449C136.685 89.8148 136.79 89.7092 136.92 89.7092H140.132C140.262 89.7092 140.368 89.8148 140.368 89.9449V99.2482C140.368 99.3789 140.262 99.4839 140.132 99.4839ZM137.156 99.0124H139.896V90.1806H137.156V99.0124Z" fill="#171717"/>
<path d="M145.16 87.5872H141.948V99.2481H145.16V87.5872Z" fill="#7764F0"/>
<path d="M145.16 99.4839H141.949C141.818 99.4839 141.713 99.3782 141.713 99.2482V87.5873C141.713 87.4572 141.818 87.3515 141.949 87.3515H145.16C145.29 87.3515 145.396 87.4572 145.396 87.5873V99.2482C145.396 99.3789 145.29 99.4839 145.16 99.4839ZM142.184 99.0125H144.924V87.8236H142.184V99.0125ZM127.056 91.6077C126.934 91.6077 126.831 91.5137 126.821 91.3901C126.811 91.2606 126.909 91.1473 127.038 91.137C127.127 91.1299 135.977 90.368 141.562 83.1134C141.641 83.0097 141.79 82.9904 141.893 83.0702C141.996 83.1494 142.016 83.2976 141.936 83.4013C136.22 90.8266 127.165 91.6007 127.074 91.6071C127.068 91.6077 127.062 91.6077 127.056 91.6077Z" fill="#171717"/>
<path d="M141.547 85.0009L139.864 83.5847C139.546 83.3168 139.664 82.801 140.067 82.6979L141.898 82.2304C142.238 82.1435 142.562 82.4165 142.535 82.7662L142.385 84.6505C142.352 85.0646 141.865 85.2688 141.547 85.0009Z" fill="#171717"/>
<path d="M69.2071 58.2343C72.9523 58.2343 75.9884 55.1982 75.9884 51.453C75.9884 47.7077 72.9523 44.6716 69.2071 44.6716C65.4619 44.6716 62.4258 47.7077 62.4258 51.453C62.4258 55.1982 65.4619 58.2343 69.2071 58.2343Z" fill="#4224FE"/>
<path d="M68.3598 57.2174C64.4906 57.2174 61.3428 54.0695 61.3428 50.2004C61.3428 46.3312 64.4906 43.1833 68.3598 43.1833C72.2289 43.1833 75.3768 46.3312 75.3768 50.2004C75.3768 54.0695 72.2289 57.2174 68.3598 57.2174ZM68.3598 43.6554C64.7508 43.6554 61.8142 46.5914 61.8142 50.201C61.8142 53.81 64.7502 56.7466 68.3598 56.7466C71.9694 56.7466 74.9054 53.8106 74.9054 50.201C74.9054 46.5914 71.9688 43.6554 68.3598 43.6554Z" fill="#171717"/>
<path d="M70.656 50.9475C70.656 51.2025 70.6109 51.4325 70.5201 51.6372C70.4293 51.842 70.3011 52.0185 70.135 52.1666C69.9688 52.3147 69.7685 52.4332 69.5341 52.5227C69.2997 52.6116 69.0402 52.6683 68.7555 52.6915L68.6621 53.6433C68.6589 53.6671 68.6525 53.6877 68.6422 53.7058C68.6319 53.7238 68.6125 53.7386 68.5842 53.7502C68.5559 53.7624 68.5172 53.7721 68.4683 53.7792C68.4193 53.7863 68.3575 53.7901 68.2835 53.7901C68.1888 53.7901 68.1122 53.7856 68.0542 53.7766C67.9962 53.7676 67.9512 53.7554 67.9183 53.7386C67.8855 53.7225 67.8642 53.7006 67.8539 53.6742C67.8436 53.6478 67.841 53.6175 67.8475 53.5853L67.9408 52.6818C67.8133 52.6638 67.6936 52.6412 67.5809 52.6129C67.4682 52.5846 67.3658 52.5537 67.2737 52.5195C67.1816 52.4854 67.1024 52.4506 67.0354 52.4152C66.9684 52.3798 66.9182 52.345 66.884 52.3109C66.8499 52.2767 66.8254 52.2265 66.8106 52.1595C66.7958 52.0926 66.7881 51.994 66.7881 51.8639C66.7881 51.7628 66.7913 51.6797 66.7971 51.6147C66.8029 51.5497 66.8132 51.4988 66.828 51.4634C66.8428 51.4279 66.8615 51.4035 66.8834 51.3899C66.9059 51.3764 66.9317 51.37 66.9613 51.37C67 51.37 67.056 51.3925 67.1307 51.437C67.2048 51.4814 67.2994 51.5303 67.4153 51.5838C67.5313 51.6372 67.671 51.6862 67.8359 51.7306C68.0007 51.7751 68.1939 51.7976 68.4168 51.7976C68.7639 51.7976 69.0221 51.7332 69.1909 51.6038C69.3602 51.475 69.4446 51.3037 69.4446 51.0898C69.4446 50.9475 69.4079 50.8303 69.3358 50.7382C69.263 50.6461 69.1657 50.5656 69.044 50.4954C68.9223 50.4259 68.7851 50.3634 68.6325 50.3087C68.4799 50.2539 68.3234 50.1953 68.163 50.1329C68.0027 50.0704 67.8462 49.9976 67.6936 49.9145C67.5409 49.8315 67.4038 49.7291 67.282 49.6074C67.1603 49.4863 67.0631 49.3382 66.9909 49.1649C66.9182 48.9917 66.8821 48.7817 66.8821 48.5357C66.8821 48.3136 66.9195 48.1107 66.9935 47.9284C67.0676 47.7462 67.1745 47.5865 67.3136 47.45C67.4527 47.3134 67.624 47.2033 67.8275 47.1183C68.0304 47.0339 68.2609 46.9766 68.5192 46.947L68.608 46.0525C68.6113 46.0293 68.6177 46.0087 68.628 45.9926C68.6383 45.9765 68.6576 45.961 68.686 45.9482C68.7143 45.9346 68.7523 45.925 68.7993 45.9192C68.8463 45.9134 68.9088 45.9102 68.9861 45.9102C69.0782 45.9102 69.1541 45.9147 69.2153 45.9237C69.2759 45.9327 69.3229 45.9456 69.3551 45.9617C69.3879 45.9778 69.4085 45.9997 69.4175 46.0261C69.4266 46.0525 69.4311 46.0821 69.4311 46.1149L69.3422 46.956C69.4253 46.9682 69.5128 46.9843 69.6049 47.005C69.697 47.0262 69.7827 47.05 69.8632 47.0784C69.943 47.1067 70.0158 47.1363 70.0809 47.1672C70.1459 47.1982 70.1916 47.2265 70.2167 47.2516C70.2419 47.2767 70.2612 47.3018 70.2747 47.327C70.2882 47.3521 70.2985 47.3836 70.3056 47.4203C70.3127 47.4577 70.3178 47.5021 70.3211 47.5536C70.3243 47.6058 70.3256 47.6657 70.3256 47.734C70.3256 47.8261 70.323 47.9014 70.3191 47.9606C70.3146 48.0199 70.3063 48.065 70.2947 48.0965C70.2824 48.1274 70.2696 48.1481 70.2547 48.159C70.2399 48.1693 70.2219 48.1745 70.2013 48.1745C70.1626 48.1745 70.1066 48.1551 70.0319 48.1165C69.9579 48.0779 69.8664 48.0366 69.7582 47.9922C69.65 47.9478 69.5251 47.9066 69.3847 47.8679C69.2437 47.8293 69.0885 47.81 68.9197 47.81C68.7658 47.81 68.6332 47.8248 68.5237 47.8544C68.4135 47.884 68.3247 47.9259 68.2571 47.9787C68.1888 48.0321 68.1386 48.0959 68.1057 48.1699C68.0729 48.244 68.0568 48.3258 68.0568 48.4147C68.0568 48.5544 68.0941 48.671 68.1682 48.7663C68.2422 48.8616 68.3408 48.9427 68.4638 49.011C68.5868 49.0793 68.7265 49.1417 68.8817 49.1978C69.0376 49.2544 69.196 49.3137 69.3576 49.3755C69.5193 49.438 69.6777 49.5095 69.8336 49.5913C69.9894 49.673 70.1279 49.7735 70.2496 49.8939C70.3713 50.0144 70.4692 50.1593 70.5433 50.3299C70.6186 50.5019 70.656 50.7073 70.656 50.9475Z" fill="white"/>
<path d="M65.8889 38.4553C68.7535 38.4553 71.0757 36.1331 71.0757 33.2686C71.0757 30.404 68.7535 28.0818 65.8889 28.0818C63.0243 28.0818 60.7021 30.404 60.7021 33.2686C60.7021 36.1331 63.0243 38.4553 65.8889 38.4553Z" fill="#4224FE"/>
<path d="M65.2408 37.7333C62.2507 37.7333 59.8184 35.3009 59.8184 32.3108C59.8184 29.3207 62.2507 26.8877 65.2408 26.8877C68.2309 26.8877 70.6633 29.3207 70.6633 32.3108C70.6633 35.3009 68.2309 37.7333 65.2408 37.7333ZM65.2408 27.3597C62.5109 27.3597 60.2898 29.5809 60.2898 32.3108C60.2898 35.0407 62.5109 37.2619 65.2408 37.2619C67.9708 37.2619 70.1919 35.0407 70.1919 32.3108C70.1919 29.5809 67.9708 27.3597 65.2408 27.3597Z" fill="#171717"/>
<path d="M66.997 32.8819C66.997 33.0771 66.9622 33.2529 66.8933 33.4094C66.8244 33.5659 66.7258 33.7011 66.599 33.8145C66.4721 33.9278 66.3188 34.0186 66.1398 34.0869C65.9608 34.1545 65.7618 34.1976 65.5441 34.2163L65.4726 34.9447C65.47 34.9627 65.4655 34.9788 65.4571 34.9923C65.4494 35.0059 65.4346 35.0175 65.4127 35.0265C65.3908 35.0355 65.3618 35.0426 65.3238 35.0484C65.2865 35.0542 65.2395 35.0567 65.1828 35.0567C65.11 35.0567 65.0521 35.0535 65.0076 35.0464C64.9632 35.0394 64.9291 35.0297 64.904 35.0175C64.8788 35.0052 64.8627 34.9885 64.8544 34.9679C64.8466 34.9473 64.8447 34.9247 64.8492 34.8996L64.9207 34.2086C64.8235 34.1951 64.7314 34.177 64.6451 34.1558C64.5588 34.1339 64.4802 34.1107 64.41 34.0843C64.3398 34.0585 64.2793 34.0315 64.2278 34.0044C64.1769 33.9774 64.1382 33.9503 64.1118 33.9246C64.0854 33.8988 64.0668 33.8602 64.0558 33.8087C64.0442 33.7578 64.0391 33.6824 64.0391 33.5826C64.0391 33.5053 64.0416 33.4416 64.0461 33.392C64.0507 33.3424 64.0584 33.3038 64.07 33.2761C64.0816 33.2484 64.0957 33.2304 64.1125 33.2201C64.1292 33.2097 64.1492 33.2046 64.1717 33.2046C64.2014 33.2046 64.2445 33.2213 64.3012 33.2555C64.3578 33.2896 64.4306 33.327 64.5188 33.3682C64.6077 33.4087 64.7146 33.4467 64.8402 33.4809C64.9658 33.515 65.1139 33.5317 65.2839 33.5317C65.5492 33.5317 65.7469 33.4822 65.8757 33.3836C66.0052 33.2851 66.0696 33.1537 66.0696 32.9908C66.0696 32.882 66.0419 32.7924 65.9865 32.7222C65.9311 32.652 65.8564 32.5902 65.7637 32.5368C65.671 32.4833 65.566 32.4357 65.4488 32.3938C65.3322 32.3519 65.2124 32.3069 65.0894 32.2592C64.9671 32.2115 64.8473 32.1562 64.7301 32.0924C64.6135 32.0286 64.5085 31.9507 64.4152 31.8573C64.3224 31.7646 64.2477 31.6513 64.1923 31.5186C64.137 31.3859 64.1093 31.2256 64.1093 31.0369C64.1093 30.8669 64.1376 30.7117 64.1943 30.5726C64.2509 30.4335 64.3327 30.3111 64.439 30.2068C64.5459 30.1024 64.6766 30.0181 64.8318 29.953C64.987 29.8886 65.1635 29.8448 65.3612 29.8223L65.4295 29.1384C65.432 29.1203 65.4365 29.1049 65.4449 29.0927C65.4526 29.0804 65.4675 29.0688 65.4893 29.0585C65.5106 29.0482 65.5396 29.0411 65.5763 29.0366C65.6124 29.0321 65.66 29.0295 65.7193 29.0295C65.7895 29.0295 65.8481 29.0328 65.8944 29.0398C65.9408 29.0463 65.9769 29.0559 66.0013 29.0688C66.0264 29.0817 66.0419 29.0978 66.049 29.1184C66.0561 29.1384 66.0593 29.1616 66.0593 29.186L65.991 29.8294C66.0548 29.8384 66.1218 29.8513 66.192 29.8667C66.2621 29.8828 66.3278 29.9015 66.389 29.9228C66.4502 29.9447 66.5056 29.9672 66.5558 29.991C66.6054 30.0149 66.6402 30.0361 66.6595 30.0554C66.6788 30.0748 66.6936 30.0941 66.7039 30.1134C66.7142 30.1327 66.722 30.1565 66.7278 30.1849C66.7336 30.2132 66.7374 30.2473 66.74 30.2866C66.7419 30.3266 66.7432 30.3723 66.7432 30.4244C66.7432 30.4946 66.7413 30.5526 66.7381 30.5977C66.7348 30.6428 66.7284 30.6775 66.7194 30.7014C66.7104 30.7252 66.7001 30.7413 66.6885 30.749C66.6769 30.7567 66.6634 30.7606 66.6479 30.7606C66.6183 30.7606 66.5751 30.7458 66.5185 30.7162C66.4618 30.6866 66.3916 30.655 66.3092 30.6209C66.2261 30.5867 66.1314 30.5552 66.0232 30.5256C65.915 30.4959 65.7972 30.4811 65.6677 30.4811C65.5499 30.4811 65.4488 30.4927 65.3651 30.5152C65.2813 30.5378 65.2131 30.5693 65.1609 30.6106C65.1087 30.6518 65.0701 30.7001 65.045 30.7567C65.0199 30.8134 65.0076 30.8759 65.0076 30.9435C65.0076 31.0504 65.036 31.1399 65.0926 31.2127C65.1493 31.2855 65.2247 31.3479 65.3193 31.3995C65.4134 31.4516 65.5203 31.4993 65.6394 31.5424C65.7585 31.5856 65.8796 31.6307 66.0033 31.6783C66.1269 31.726 66.248 31.7814 66.3671 31.8432C66.4863 31.9056 66.5925 31.9823 66.6853 32.0744C66.778 32.1665 66.8533 32.2772 66.91 32.408C66.9686 32.5413 66.997 32.6978 66.997 32.8819Z" fill="white"/>
</svg>
