<svg width="153" height="119" viewBox="0 0 153 119" fill="none" xmlns="http://www.w3.org/2000/svg">
<g clip-path="url(#clip0_1292_2534)">
<path d="M142.274 81.5309C144.706 57.6203 107.468 6.39833 82.5091 31.7453C69.3714 45.0875 37.4053 60.6042 13.9369 68.5479C-8.88285 76.2721 38.2627 114.748 73.7022 118.333C109.142 121.918 139.842 105.441 142.274 81.5309Z" fill="#F4F2FF"/>
<path d="M24.9047 99.365C26.272 99.365 26.2743 97.2457 24.9047 97.2457C23.5374 97.2457 23.5351 99.365 24.9047 99.365ZM12.2861 50.7849C13.6535 50.7849 13.6557 48.6656 12.2861 48.6656C10.9188 48.6656 10.9165 50.7849 12.2861 50.7849ZM33.851 20.1862C35.2183 20.1862 35.2206 18.0669 33.851 18.0669C32.4836 18.0669 32.4813 20.1862 33.851 20.1862Z" fill="#8774FF"/>
<path d="M33.8511 20.1861C35.2185 20.1861 35.2207 18.0668 33.8511 18.0668C32.4838 18.0668 32.4815 20.1861 33.8511 20.1861ZM6.62987 98.1554C7.9972 98.1554 7.99947 96.0361 6.62987 96.0361C5.26253 96.0361 5.26027 98.1554 6.62987 98.1554ZM72.6849 2.11927C74.0523 2.11927 74.0545 0 72.6849 0C71.3176 0 71.3153 2.11927 72.6849 2.11927ZM59.0961 83.5098C60.4635 83.5098 60.4657 81.3905 59.0961 81.3905C57.7288 81.3905 57.7265 83.5098 59.0961 83.5098ZM22.7586 42.3112C24.126 42.3112 24.1282 40.192 22.7586 40.192C21.3913 40.192 21.389 42.3112 22.7586 42.3112ZM32.1869 109.663C33.5543 109.663 33.5565 107.544 32.1869 107.544C30.8196 107.544 30.8173 109.663 32.1869 109.663ZM106.398 100.323C107.765 100.323 107.767 98.2041 106.398 98.2041C105.03 98.2041 105.028 100.323 106.398 100.323ZM110.351 17.5158C111.718 17.5158 111.721 15.3965 110.351 15.3965C108.984 15.3965 108.982 17.5158 110.351 17.5158ZM138.355 83.5098C139.722 83.5098 139.724 81.3905 138.355 81.3905C136.987 81.3905 136.985 83.5098 138.355 83.5098ZM28.8766 84.2122C29.0143 84.2074 29.1448 84.1495 29.2405 84.0507C29.3363 83.9518 29.3898 83.8198 29.3898 83.6823C29.3898 83.5449 29.3363 83.4129 29.2405 83.314C29.1448 83.2152 29.0143 83.1573 28.8766 83.1525C28.7389 83.1573 28.6084 83.2152 28.5127 83.314C28.4169 83.4129 28.3634 83.5449 28.3634 83.6823C28.3634 83.8198 28.4169 83.9518 28.5127 84.0507C28.6084 84.1495 28.7389 84.2074 28.8766 84.2122ZM96.5791 6.77415C96.7168 6.76939 96.8473 6.71149 96.943 6.61265C97.0387 6.5138 97.0923 6.38175 97.0923 6.24433C97.0923 6.10691 97.0387 5.97486 96.943 5.87602C96.8473 5.77718 96.7168 5.71927 96.5791 5.71451C96.4414 5.71927 96.3109 5.77718 96.2152 5.87602C96.1194 5.97486 96.0659 6.10691 96.0659 6.24433C96.0659 6.38175 96.1194 6.5138 96.2152 6.61265C96.3109 6.71149 96.4414 6.76939 96.5791 6.77415ZM79.3883 42.0805C79.526 42.0757 79.6564 42.0178 79.7522 41.919C79.8479 41.8201 79.9014 41.6881 79.9014 41.5507C79.9014 41.4132 79.8479 41.2812 79.7522 41.1823C79.6564 41.0835 79.526 41.0256 79.3883 41.0208C79.2505 41.0256 79.1201 41.0835 79.0243 41.1823C78.9286 41.2812 78.8751 41.4132 78.8751 41.5507C78.8751 41.6881 78.9286 41.8201 79.0243 41.919C79.1201 42.0178 79.2505 42.0757 79.3883 42.0805ZM88.1641 86.501C88.3018 86.4962 88.4323 86.4383 88.528 86.3395C88.6237 86.2406 88.6773 86.1086 88.6773 85.9711C88.6773 85.8337 88.6237 85.7017 88.528 85.6028C88.4323 85.504 88.3018 85.4461 88.1641 85.4413C88.0264 85.4461 87.8959 85.504 87.8002 85.6028C87.7044 85.7017 87.6509 85.8337 87.6509 85.9711C87.6509 86.1086 87.7044 86.2406 87.8002 86.3395C87.8959 86.4383 88.0264 86.4962 88.1641 86.501ZM68.2741 114.348C68.4118 114.343 68.5423 114.285 68.638 114.187C68.7337 114.088 68.7873 113.956 68.7873 113.818C68.7873 113.681 68.7337 113.549 68.638 113.45C68.5423 113.351 68.4118 113.293 68.2741 113.288C68.1364 113.293 68.0059 113.351 67.9102 113.45C67.8144 113.549 67.7609 113.681 67.7609 113.818C67.7609 113.956 67.8144 114.088 67.9102 114.187C68.0059 114.285 68.1364 114.343 68.2741 114.348ZM129.092 113.585C129.229 113.58 129.36 113.523 129.456 113.424C129.551 113.325 129.605 113.193 129.605 113.055C129.605 112.918 129.551 112.786 129.456 112.687C129.36 112.588 129.229 112.53 129.092 112.526C128.954 112.53 128.823 112.588 128.728 112.687C128.632 112.786 128.578 112.918 128.578 113.055C128.578 113.193 128.632 113.325 128.728 113.424C128.823 113.523 128.954 113.58 129.092 113.585ZM80.1316 62.8499C80.2693 62.8452 80.3998 62.7873 80.4955 62.6884C80.5912 62.5896 80.6448 62.4576 80.6448 62.3201C80.6448 62.1827 80.5912 62.0507 80.4955 61.9518C80.3998 61.853 80.2693 61.7951 80.1316 61.7903C79.9939 61.7951 79.8634 61.853 79.7677 61.9518C79.6719 62.0507 79.6184 62.1827 79.6184 62.3201C79.6184 62.4576 79.6719 62.5896 79.7677 62.6884C79.8634 62.7873 79.9939 62.8452 80.1316 62.8499Z" fill="#8774FF"/>
<path d="M49.2807 4.66168C49.4184 4.65693 49.5489 4.59902 49.6446 4.50018C49.7403 4.40134 49.7938 4.26929 49.7938 4.13187C49.7938 3.99445 49.7403 3.86239 49.6446 3.76355C49.5489 3.66471 49.4184 3.60681 49.2807 3.60205C49.143 3.60681 49.0125 3.66471 48.9167 3.76355C48.821 3.86239 48.7675 3.99445 48.7675 4.13187C48.7675 4.26929 48.821 4.40134 48.9167 4.50018C49.0125 4.59902 49.143 4.65693 49.2807 4.66168ZM13.313 74.8151C13.4507 74.8104 13.5812 74.7525 13.6769 74.6536C13.7726 74.5548 13.8261 74.4227 13.8261 74.2853C13.8261 74.1479 13.7726 74.0159 13.6769 73.917C13.5812 73.8182 13.4507 73.7603 13.313 73.7555C13.1753 73.7603 13.0448 73.8182 12.949 73.917C12.8533 74.0159 12.7998 74.1479 12.7998 74.2853C12.7998 74.4227 12.8533 74.5548 12.949 74.6536C13.0448 74.7525 13.1753 74.8104 13.313 74.8151ZM78.5569 16.7334C78.6946 16.7286 78.8251 16.6707 78.9208 16.5719C79.0165 16.4731 79.0701 16.341 79.0701 16.2036C79.0701 16.0662 79.0165 15.9341 78.9208 15.8353C78.8251 15.7364 78.6946 15.6785 78.5569 15.6738C78.4192 15.6785 78.2887 15.7364 78.193 15.8353C78.0972 15.9341 78.0437 16.0662 78.0437 16.2036C78.0437 16.341 78.0972 16.4731 78.193 16.5719C78.2887 16.6707 78.4192 16.7286 78.5569 16.7334ZM139.381 21.35C139.519 21.3452 139.65 21.2873 139.745 21.1885C139.841 21.0896 139.895 20.9576 139.895 20.8202C139.895 20.6828 139.841 20.5507 139.745 20.4519C139.65 20.353 139.519 20.2951 139.381 20.2904C139.244 20.2951 139.113 20.353 139.018 20.4519C138.922 20.5507 138.868 20.6828 138.868 20.8202C138.868 20.9576 138.922 21.0896 139.018 21.1885C139.113 21.2873 139.244 21.3452 139.381 21.35ZM52.0879 79.0042C52.2256 78.9994 52.3561 78.9415 52.4518 78.8427C52.5475 78.7438 52.601 78.6118 52.601 78.4744C52.601 78.3369 52.5475 78.2049 52.4518 78.106C52.3561 78.0072 52.2256 77.9493 52.0879 77.9445C51.9502 77.9493 51.8197 78.0072 51.7239 78.106C51.6282 78.2049 51.5747 78.3369 51.5747 78.4744C51.5747 78.6118 51.6282 78.7438 51.7239 78.8427C51.8197 78.9415 51.9502 78.9994 52.0879 79.0042ZM109.094 71.3121C109.231 71.3073 109.362 71.2494 109.458 71.1506C109.553 71.0517 109.607 70.9197 109.607 70.7822C109.607 70.6448 109.553 70.5128 109.458 70.4139C109.362 70.3151 109.231 70.2572 109.094 70.2524C108.956 70.2572 108.826 70.3151 108.73 70.4139C108.634 70.5128 108.581 70.6448 108.581 70.7822C108.581 70.9197 108.634 71.0517 108.73 71.1506C108.826 71.2494 108.956 71.3073 109.094 71.3121ZM119.34 5.20429C119.478 5.19954 119.608 5.14163 119.704 5.04279C119.8 4.94395 119.853 4.8119 119.853 4.67448C119.853 4.53706 119.8 4.405 119.704 4.30616C119.608 4.20732 119.478 4.14942 119.34 4.14466C119.202 4.14942 119.072 4.20732 118.976 4.30616C118.881 4.405 118.827 4.53706 118.827 4.67448C118.827 4.8119 118.881 4.94395 118.976 5.04279C119.072 5.14163 119.202 5.19954 119.34 5.20429ZM138.637 103.184C138.774 103.18 138.905 103.122 139.001 103.023C139.096 102.924 139.15 102.792 139.15 102.654C139.15 102.517 139.096 102.385 139.001 102.286C138.905 102.187 138.774 102.129 138.637 102.125C138.499 102.129 138.368 102.187 138.273 102.286C138.177 102.385 138.123 102.517 138.123 102.654C138.123 102.792 138.177 102.924 138.273 103.023C138.368 103.122 138.499 103.18 138.637 103.184Z" fill="#D1CAFF"/>
<path d="M62.6523 16.5732V19.5085L61.1514 20.1504C61.1514 20.1504 61.6355 27.5759 65.2055 25.6261C68.7755 23.6764 69.7363 20.4047 68.9713 20.1504L67.9014 19.5085L67.772 16.7155L62.6523 16.5732Z" fill="#C8C0FE"/>
<path d="M102.796 31.148L90.6734 33.0091C90.1248 33.0939 89.5641 33.0544 89.033 32.8934C88.5019 32.7324 88.0139 32.4542 87.6054 32.0793C81.767 26.7074 77.9115 24.0215 75.5679 22.6807C75.566 22.6798 75.5644 22.6779 75.5625 22.6772L75.5604 22.6763C73.4605 21.4757 69.0175 19.9619 69.0175 19.9619L69.0626 20.1878L68.972 20.1504C64.807 28.797 61.152 20.1504 61.152 20.1504C61.152 20.1504 56.709 21.6642 54.6091 22.8649L54.607 22.8657C54.6051 22.8664 54.6035 22.8683 54.6017 22.8692C52.2581 24.21 48.4025 26.8959 42.5641 32.2678C42.1556 32.6427 41.6677 32.9209 41.1365 33.0819C40.6054 33.2429 40.0447 33.2824 39.4961 33.1977L27.3731 31.3365L24.9521 37.4822L38.9429 41.2123C39.9405 41.4782 40.9838 41.5265 42.0018 41.354C43.0198 41.1814 43.9885 40.792 44.8419 40.2122L53.8522 34.0914L53.8911 33.9607C54.0763 40.8109 54.607 48.2942 54.607 48.2942L54.777 51.685H75.347L75.3564 51.4965H75.3925L75.5625 48.1057C75.5625 48.1057 76.0933 40.6224 76.2785 33.7722L76.3174 33.9029L85.3275 40.0237C86.181 40.6035 87.1497 40.9929 88.1677 41.1655C89.1857 41.338 90.229 41.2897 91.2266 41.0237L105.217 37.2937L102.796 31.148Z" fill="#2605FA"/>
<path d="M70.3062 10.1273C70.3062 5.9371 68.0609 2.54028 65.2912 2.54028C62.5215 2.54028 60.2762 5.9371 60.2762 10.1273L60.2763 10.1305C60.2654 10.1303 60.2553 10.1273 60.2443 10.1273C60.0247 10.1264 59.807 10.1688 59.6039 10.252C59.4007 10.3352 59.216 10.4576 59.0604 10.6121C58.9047 10.7667 58.7812 10.9504 58.697 11.1527C58.6127 11.355 58.5693 11.5719 58.5693 11.7909C58.5693 12.01 58.6127 12.2268 58.697 12.4291C58.7812 12.6314 58.9047 12.8151 59.0604 12.9697C59.216 13.1243 59.4007 13.2467 59.6039 13.3299C59.807 13.4131 60.0247 13.4554 60.2443 13.4545C60.4202 13.4523 60.5946 13.422 60.7609 13.3649C61.5645 15.9333 63.2882 17.7143 65.2912 17.7143C67.2919 17.7143 69.0139 15.9374 69.8187 13.3739C69.9762 13.425 70.1406 13.4522 70.3062 13.4545C70.7474 13.4527 71.17 13.2766 71.4813 12.9648C71.7927 12.653 71.9675 12.2309 71.9675 11.7909C71.9675 11.3509 71.7927 10.9288 71.4813 10.617C71.17 10.3052 70.7474 10.1291 70.3062 10.1273Z" fill="#C8C0FE"/>
<path d="M60.8281 11.6107C60.8281 11.6107 60.5306 5.76153 62.6131 4.48997C62.6131 4.48997 63.3781 3.51511 65.5456 5.80392C67.7131 8.09272 69.8198 6.86605 69.8198 6.86605C69.8198 6.86605 70.3481 10.8054 70.0081 11.6107C70.0081 11.6107 73.0681 6.39731 69.7106 3.72703C66.3531 1.05676 64.5256 1.98924 61.8481 3.72703C61.8481 3.72703 56.8331 4.32043 60.8281 11.6107Z" fill="#040020"/>
<path d="M64.9735 10.5246C64.9672 10.7876 64.9415 11.0386 64.918 11.2866C64.8911 11.527 64.8767 11.7687 64.8746 12.0106C64.8721 12.2443 64.9149 12.4623 65.0401 12.5145C65.2691 12.5469 65.5027 12.5184 65.7172 12.4319C65.6278 12.5313 65.5234 12.6162 65.4078 12.6836C65.2784 12.7666 65.1237 12.8013 64.9712 12.7815C64.8846 12.7614 64.8046 12.7197 64.7386 12.6604C64.6726 12.6011 64.6227 12.526 64.5936 12.4423C64.5454 12.3049 64.5208 12.1604 64.5207 12.0149C64.5238 11.7492 64.5667 11.4854 64.6481 11.2324C64.7218 10.9821 64.8314 10.7437 64.9735 10.5246ZM61.4297 9.38261C61.4297 9.38261 62.6123 8.12014 64.0022 9.15802L61.4297 9.38261ZM65.9703 9.27337C65.9703 9.27337 67.2039 8.06046 68.5499 9.15448L65.9703 9.27337Z" fill="#040020"/>
<path d="M63.04 11.3298C63.2395 11.3298 63.4012 11.0879 63.4012 10.7894C63.4012 10.491 63.2395 10.249 63.04 10.249C62.8404 10.249 62.6787 10.491 62.6787 10.7894C62.6787 11.0879 62.8404 11.3298 63.04 11.3298Z" fill="#040020"/>
<path d="M67.162 11.1817C67.3615 11.1817 67.5233 10.9397 67.5233 10.6412C67.5233 10.3428 67.3615 10.1008 67.162 10.1008C66.9625 10.1008 66.8008 10.3428 66.8008 10.6412C66.8008 10.9397 66.9625 11.1817 67.162 11.1817Z" fill="#040020"/>
<path d="M59.1941 12.1069C59.1837 11.9568 59.2208 11.8072 59.3 11.6792C59.3809 11.5393 59.5046 11.4289 59.653 11.3643C59.7313 11.3311 59.8157 11.3145 59.9007 11.3157C59.9858 11.317 60.0697 11.3359 60.147 11.3713C60.2889 11.4326 60.4035 11.5435 60.4691 11.6832C60.3152 11.6671 60.1919 11.6368 60.0788 11.6383C59.9789 11.632 59.879 11.65 59.7877 11.6907C59.5729 11.8038 59.3735 11.9437 59.1941 12.1069ZM71.4483 12.1069C71.2689 11.9437 71.0694 11.8038 70.8547 11.6908C70.7634 11.65 70.6635 11.632 70.5636 11.6383C70.4504 11.6368 70.3272 11.6671 70.1733 11.6832C70.2388 11.5435 70.3534 11.4326 70.4954 11.3714C70.5727 11.3359 70.6565 11.317 70.7416 11.3158C70.8267 11.3145 70.9111 11.3311 70.9894 11.3643C71.1378 11.4289 71.2615 11.5393 71.3423 11.6792C71.4216 11.8072 71.4586 11.9568 71.4483 12.1069ZM62.8274 16.7323C63.5285 17.1878 64.3358 17.4548 65.1709 17.5072C65.5794 17.5266 65.9883 17.4773 66.3804 17.3613C66.5817 17.3062 66.7793 17.2384 66.972 17.1583C67.1687 17.0809 67.3522 16.9741 67.557 16.8929C67.3995 17.0435 67.2317 17.1832 67.0549 17.3108C66.8714 17.4341 66.6758 17.5383 66.471 17.6217C66.0564 17.7989 65.6069 17.8804 65.1563 17.8599C64.7068 17.8417 64.2662 17.7298 63.8627 17.5313C63.4645 17.3415 63.1115 17.0691 62.8274 16.7323Z" fill="#040020"/>
<path d="M62.5893 13.4568C62.727 13.4521 62.8575 13.3942 62.9533 13.2953C63.049 13.1965 63.1025 13.0644 63.1025 12.927C63.1025 12.7896 63.049 12.6575 62.9533 12.5587C62.8575 12.4599 62.727 12.4019 62.5893 12.3972C62.4516 12.4019 62.3211 12.4599 62.2254 12.5587C62.1297 12.6575 62.0762 12.7896 62.0762 12.927C62.0762 13.0644 62.1297 13.1965 62.2254 13.2953C62.3211 13.3942 62.4516 13.4521 62.5893 13.4568ZM67.9018 13.1177C68.0395 13.113 68.17 13.0551 68.2658 12.9562C68.3615 12.8574 68.415 12.7253 68.415 12.5879C68.415 12.4505 68.3615 12.3184 68.2658 12.2196C68.17 12.1208 68.0395 12.0629 67.9018 12.0581C67.7641 12.0629 67.6336 12.1208 67.5379 12.2196C67.4422 12.3184 67.3887 12.4505 67.3887 12.5879C67.3887 12.7253 67.4422 12.8574 67.5379 12.9562C67.6336 13.0551 67.7641 13.113 67.9018 13.1177Z" fill="#2A2260"/>
<path d="M63.6963 14.5183C63.6963 14.5183 65.4491 16.5423 66.9672 13.9609L63.6963 14.5183Z" fill="#040020"/>
<path d="M55.3721 51.6851V110.007H63.1921L64.2121 59.1449H66.2521L70.1621 110.007H77.9821L74.5821 51.6851H55.3721Z" fill="#9181FA"/>
<path d="M71.8615 112.042C71.8615 112.042 69.7365 117.976 71.5215 118.823H73.3065C73.3065 118.823 74.1565 116.45 75.3465 118.823H86.2265C86.2265 118.823 86.9065 116.958 84.2715 116.111C81.6365 115.263 77.2165 112.042 77.2165 112.042H71.8615Z" fill="#402CBF"/>
<path d="M71.5215 110.007L71.8615 112.042H77.2165V110.007H71.5215Z" fill="#C8C0FE"/>
<path d="M61.8764 112.042C61.8764 112.042 64.0014 117.976 62.2164 118.823H60.4314C60.4314 118.823 59.5814 116.45 58.3914 118.823H47.5114C47.5114 118.823 46.8314 116.958 49.4664 116.111C52.1014 115.263 56.5214 112.042 56.5214 112.042H61.8764Z" fill="#402CBF"/>
<path d="M62.2165 110.007L61.8765 112.042H56.5215V110.007H62.2165Z" fill="#C8C0FE"/>
<path d="M66.956 58.9996C66.3873 59.1242 65.8063 59.1834 65.2241 59.176C64.6419 59.1842 64.0607 59.1249 63.4922 58.9996C64.0607 58.8742 64.6419 58.8149 65.2241 58.823C65.8063 58.8157 66.3873 58.875 66.956 58.9996Z" fill="#7C6CE0"/>
<path d="M55.1953 41.5505C55.2733 42.0908 55.394 42.6241 55.5561 43.1455C55.6273 43.4077 55.7253 43.6619 55.8082 43.9195L56.1181 44.6705C56.5573 45.6567 57.148 46.5687 57.8688 47.3735C58.5817 48.1839 59.4255 48.8695 60.3653 49.4019C60.8319 49.6797 61.3195 49.9207 61.8236 50.1228C62.3227 50.3425 62.8552 50.4739 63.3709 50.6711C63.1026 50.6157 62.8341 50.5567 62.5653 50.494L62.1614 50.4012L61.959 50.3548L61.7639 50.2854C61.2375 50.1111 60.7258 49.8952 60.2337 49.6397C59.2342 49.1372 58.3413 48.4473 57.6038 47.6076C56.8585 46.7758 56.2704 45.8162 55.8681 44.7753C55.4566 43.7478 55.2289 42.6564 55.1953 41.5505ZM57.6406 42.4967C57.8295 43.009 58.0585 43.5057 58.3256 43.9821C58.45 44.2238 58.5987 44.4521 58.7335 44.687L59.1929 45.3574C59.828 46.2312 60.5957 47.0009 61.4684 47.6389C62.3345 48.2839 63.3027 48.7798 64.3329 49.1059C64.8471 49.2811 65.3742 49.4159 65.9095 49.5092C66.4434 49.6206 66.9916 49.6389 67.5373 49.7251C67.2632 49.7265 66.9882 49.7243 66.7123 49.7185L66.2979 49.7115L66.0902 49.708L65.8849 49.6806C65.3336 49.6192 64.7881 49.5139 64.2537 49.3659C63.1714 49.0814 62.1542 48.5914 61.258 47.9228C60.3557 47.2635 59.5806 46.4466 58.9702 45.5117C58.3539 44.5919 57.9038 43.5714 57.6406 42.4967Z" fill="#2506ED"/>
<path d="M72.6852 28.3494H66.6768V35.8233H72.6852V28.3494Z" fill="#2506ED"/>
<path d="M124.567 16.5652V19.8537L125.924 20.1504C125.924 20.1504 125.584 27.5678 122.014 25.6181C118.444 23.6684 117.339 20.4047 118.104 20.1504L119.294 19.7689L119.447 16.7075L124.567 16.5652Z" fill="#5A4BB8"/>
<path d="M116.913 10.119C116.913 5.92879 119.159 2.53198 121.928 2.53198C124.698 2.53198 126.943 5.92879 126.943 10.119L126.943 10.1222C126.954 10.122 126.964 10.119 126.975 10.119C127.195 10.1181 127.412 10.1605 127.616 10.2437C127.819 10.3269 128.004 10.4493 128.159 10.6038C128.315 10.7584 128.438 10.9421 128.523 11.1444C128.607 11.3467 128.65 11.5636 128.65 11.7826C128.65 12.0016 128.607 12.2185 128.523 12.4208C128.438 12.6231 128.315 12.8068 128.159 12.9614C128.004 13.116 127.819 13.2384 127.616 13.3216C127.412 13.4048 127.195 13.4471 126.975 13.4462C126.799 13.444 126.625 13.4137 126.459 13.3566C125.655 15.925 123.931 17.706 121.928 17.706C119.928 17.706 118.206 15.9291 117.401 13.3656C117.243 13.4167 117.079 13.4439 116.913 13.4462C116.694 13.4471 116.476 13.4048 116.273 13.3216C116.07 13.2384 115.885 13.116 115.729 12.9614C115.574 12.8068 115.45 12.6231 115.366 12.4208C115.282 12.2185 115.238 12.0016 115.238 11.7826C115.238 11.5636 115.282 11.3467 115.366 11.1444C115.45 10.9421 115.574 10.7584 115.729 10.6038C115.885 10.4493 116.07 10.3269 116.273 10.2437C116.476 10.1605 116.694 10.1181 116.913 10.119Z" fill="#5A4BB8"/>
<path d="M126.392 11.6026C126.392 11.6026 126.689 5.75347 124.607 4.48191C124.607 4.48191 123.842 3.50705 121.674 5.79586C119.507 8.08467 117.4 6.858 117.4 6.858C117.4 6.858 116.872 10.7973 117.212 11.6026C117.212 11.6026 114.152 6.38925 117.509 3.71898C120.867 1.0487 122.694 1.98118 125.372 3.71898C125.372 3.71898 130.387 4.31237 126.392 11.6026Z" fill="#040020"/>
<path d="M122.245 10.5166C122.388 10.7357 122.497 10.9741 122.571 11.2244C122.652 11.4774 122.695 11.7412 122.698 12.0069C122.698 12.1524 122.673 12.2969 122.625 12.4343C122.596 12.518 122.546 12.5931 122.48 12.6524C122.414 12.7117 122.334 12.7534 122.248 12.7735C122.095 12.7933 121.941 12.7586 121.811 12.6755C121.696 12.6082 121.591 12.5233 121.502 12.4239C121.716 12.5104 121.95 12.5389 122.179 12.5065C122.304 12.4543 122.347 12.2363 122.344 12.0026C122.342 11.7607 122.328 11.519 122.301 11.2786C122.277 11.0305 122.252 10.7796 122.245 10.5166ZM125.795 8.81487C125.795 8.81487 124.194 8.15284 123.359 9.67093L125.795 8.81487ZM121.056 9.7474C121.056 9.7474 120.385 8.15477 118.721 8.64874L121.056 9.7474Z" fill="#040020"/>
<path d="M124.18 11.3218C124.379 11.3218 124.541 11.0798 124.541 10.7814C124.541 10.4829 124.379 10.241 124.18 10.241C123.98 10.241 123.818 10.4829 123.818 10.7814C123.818 11.0798 123.98 11.3218 124.18 11.3218Z" fill="#040020"/>
<path d="M120.057 11.1736C120.256 11.1736 120.418 10.9316 120.418 10.6332C120.418 10.3347 120.256 10.0928 120.057 10.0928C119.857 10.0928 119.695 10.3347 119.695 10.6332C119.695 10.9316 119.857 11.1736 120.057 11.1736Z" fill="#040020"/>
<path d="M128.025 12.0989C127.846 11.9356 127.647 11.7958 127.432 11.6827C127.341 11.642 127.241 11.624 127.141 11.6303C127.028 11.6287 126.904 11.6591 126.75 11.6751C126.816 11.5354 126.931 11.4245 127.073 11.3633C127.15 11.3279 127.234 11.3089 127.319 11.3077C127.404 11.3065 127.488 11.323 127.567 11.3562C127.715 11.4209 127.839 11.5312 127.919 11.6712C127.999 11.7992 128.036 11.9488 128.025 12.0989ZM115.771 12.0989C115.761 11.9488 115.798 11.7992 115.877 11.6711C115.958 11.5312 116.082 11.4208 116.23 11.3562C116.308 11.323 116.393 11.3065 116.478 11.3077C116.563 11.3089 116.647 11.3278 116.724 11.3633C116.866 11.4245 116.981 11.5354 117.046 11.6751C116.892 11.6591 116.769 11.6287 116.656 11.6302C116.556 11.6239 116.456 11.6419 116.365 11.6827C116.15 11.7958 115.951 11.9356 115.771 12.0989ZM124.392 16.7242C124.108 17.0611 123.755 17.3335 123.357 17.5234C122.953 17.7218 122.513 17.8336 122.063 17.8518C121.613 17.8724 121.163 17.7909 120.749 17.6136C120.544 17.5302 120.348 17.426 120.165 17.3027C119.988 17.1751 119.82 17.0355 119.663 16.8848C119.867 16.966 120.051 17.0728 120.247 17.1502C120.44 17.2303 120.638 17.2981 120.839 17.3532C121.231 17.4692 121.64 17.5185 122.049 17.4991C122.884 17.4467 123.691 17.1798 124.392 16.7242ZM123.508 13.923C123.508 13.923 122.523 16.1482 120.547 14.3045L123.508 13.923Z" fill="#040020"/>
<path d="M139.324 56.7212L140.669 64.5613C140.741 64.9817 140.725 65.4124 140.623 65.8265C140.52 66.2406 140.333 66.6291 140.073 66.9678L137.377 70.4813C137.305 70.5749 137.212 70.6507 137.107 70.7029C137.001 70.7551 136.884 70.7823 136.766 70.7823C136.562 70.7823 136.366 70.7014 136.222 70.5575C136.077 70.4135 135.996 70.2183 135.996 70.0148C135.996 69.6126 136.131 69.222 136.378 68.9048L138.447 66.2562C138.447 66.2562 138.175 62.6353 138.114 63.1784L137.042 64.9219C136.992 65.0023 136.923 65.0688 136.841 65.1154C136.759 65.162 136.666 65.1871 136.572 65.1884C136.477 65.1896 136.384 65.167 136.301 65.1226C136.217 65.0782 136.147 65.0135 136.095 64.9345C136.029 64.8363 135.996 64.7196 136.002 64.6015C136.029 64.1654 136.152 63.7407 136.363 63.3579L136.662 62.8164C136.662 62.8164 135.996 58.773 136.843 56.7212L139.324 56.7212Z" fill="#5A4BB8"/>
<path d="M121.46 27.1597L122.36 30.1848L112.531 43.0648C111.005 45.1074 108.133 45.0094 106.855 42.4404C106.855 42.4404 106.758 40.5675 107.014 40.0165C108.165 37.539 109.419 37.2303 111.409 35.5657L121.46 27.1597Z" fill="#493E8C"/>
<path d="M121.815 27.5127L122.715 30.5378L112.885 43.4178C111.359 45.4605 108.487 45.3624 107.209 42.7934C107.209 42.7934 107.112 40.9205 107.368 40.3695C108.519 37.892 109.773 37.5833 111.763 35.9188L121.815 27.5127Z" fill="#493E8C"/>
<path d="M99.1408 35.4256C99.1408 35.4256 99.0725 34.0663 96.9497 31.9379C94.827 29.8096 92.929 28.3604 94.0425 30.1618L94.9138 31.5204C94.9138 31.5204 92.6472 30.6747 91.3411 30.0529C90.9973 29.8825 90.6078 29.8267 90.2298 29.8938C89.8518 29.9608 89.5054 30.1472 89.2416 30.4253C88.7587 30.9574 88.7803 31.5325 90.1419 32.5372C92.1784 34.04 95.3323 36.3273 95.9441 36.5516C96.156 36.6293 99.1408 35.4256 99.1408 35.4256Z" fill="#5A4BB8"/>
<path d="M111.814 51.6851H132.299L132.469 48.2943L135.359 59.9926L140.714 59.1449C139.242 41.9006 135.825 30.7436 134.034 25.8649C133.712 24.9865 133.21 24.1845 132.56 23.5096C131.911 22.8347 131.128 22.3015 130.261 21.9439L125.924 20.1504C125.924 20.1504 122.269 28.797 118.104 20.1504L113.767 21.9439C112.014 22.6685 109.746 24.0399 109.094 25.8166C108.283 28.0255 106.763 32.8726 105.614 35.1144C105.539 35.2615 105.432 35.3903 105.301 35.4917C105.17 35.5931 105.019 35.6647 104.857 35.7013C104.696 35.738 104.528 35.7389 104.366 35.7039C104.204 35.669 104.052 35.599 103.92 35.499L97.4798 31.6668L95.001 36.439L103.208 43.2375C104.296 43.9844 105.635 44.2751 106.936 44.0472C108.237 43.8192 109.396 43.0908 110.164 42.0188L111.559 40.0715L111.729 51.6851H132.214" fill="#7764F0"/>
<path d="M96.2406 32.1403C95.9998 32.0874 95.7662 32.0058 95.5449 31.8973C95.322 31.7935 95.1104 31.6672 94.9133 31.5205C95.0382 31.5314 95.1614 31.557 95.2804 31.5965C95.3981 31.6331 95.5129 31.6781 95.6241 31.7312C95.8494 31.8352 96.0574 31.9732 96.2406 32.1403ZM93.119 31.7607C92.8316 31.668 92.55 31.5584 92.2757 31.4324C91.9994 31.3111 91.7314 31.1726 91.4676 31.026C91.2034 30.8791 90.9481 30.7167 90.7031 30.5397C90.4549 30.3658 90.2264 30.1653 90.0218 29.9419C90.5211 30.2803 91.0365 30.5733 91.5581 30.866C92.0773 31.1619 92.6035 31.4453 93.119 31.7607ZM91.8976 32.9882C91.6281 32.9243 91.3639 32.8397 91.1076 32.735C90.8501 32.6332 90.5988 32.5165 90.355 32.3854C89.8611 32.1297 89.4142 31.7926 89.0332 31.3882C89.2672 31.5372 89.4951 31.6859 89.7303 31.824C89.9676 31.9586 90.2018 32.0964 90.4428 32.2238L91.8976 32.9882ZM92.5672 32.4604C92.2474 32.3756 91.9336 32.2694 91.628 32.1426C91.3207 32.0188 91.021 31.8769 90.7306 31.7176C90.4374 31.56 90.1589 31.3766 89.8985 31.1695C89.6284 30.9713 89.4042 30.7175 89.2411 30.4253C89.4566 30.6701 89.7064 30.8824 89.9828 31.0559C90.2541 31.2337 90.532 31.4029 90.8197 31.5567C91.3903 31.8735 91.9796 32.1578 92.5672 32.4604Z" fill="#090716"/>
<path d="M100.225 108.603L100.956 112.852L106.217 116.731C106.217 116.731 100.033 118.956 96.9095 115.65L97.547 112.725L96.0808 108.974L100.225 108.603ZM80.7375 108.603L80.7146 112.852L75.4541 116.731C75.4541 116.731 81.6379 118.956 84.7616 115.65L84.1241 112.725L84.882 108.974L80.7375 108.603Z" fill="#493E8C"/>
<path d="M90.282 46.6392L87.7053 51.2397C85.9242 54.4199 84.7294 57.8929 84.1777 61.4938L77.0479 109.746L103.281 108.974L104.769 63.2063C104.944 59.1249 104.18 55.0577 102.535 51.3165C101.805 49.6226 100.827 48.0463 99.6319 46.6392L90.282 46.6392Z" fill="#432BDF"/>
<path d="M87.4976 15.6571C87.5405 16.2558 87.7699 16.2706 87.9099 16.938C88.1121 17.9012 87.6833 18.1033 87.8872 18.8744C88.0032 19.313 88.1542 19.2943 88.9257 20.3861C89.7217 21.5127 89.5477 21.5138 89.9658 21.9646C90.7026 22.759 91.0367 22.533 91.8724 23.3899C92.4259 23.9574 92.3628 24.1421 92.9733 24.7C93.3794 25.0353 93.8116 25.338 94.2657 25.6052C95.8363 26.6479 95.9318 26.7494 96.3016 26.8273C96.8742 26.9245 97.4618 26.8831 98.015 26.7067C98.6359 26.549 98.6532 26.4141 99.6967 26.0159C100.767 25.6074 100.831 25.7181 101.223 25.4472C101.815 25.0385 101.69 24.773 102.398 24.1522C103.068 23.5655 103.256 23.7365 103.65 23.256C104.153 22.643 103.899 22.3017 104.419 21.77C104.813 21.3668 105.048 21.4717 105.473 21.0117C105.715 20.7041 105.91 20.3622 106.052 19.9973C106.623 18.9122 106.873 19.031 107.217 18.2353C107.401 17.8089 107.283 17.8826 107.647 16.5567C107.936 15.5039 107.99 15.5331 108.017 15.1913C108.1 14.1564 107.59 14.0992 107.774 13.3496C107.886 12.8946 108.196 12.4194 108.02 11.7778C107.853 10.5811 107.73 9.70412 107.07 8.89311C106.713 8.45445 106.648 8.58738 105.567 7.52542C104.881 6.85269 104.736 6.63149 104.268 6.35334C103.657 5.99003 103.549 6.15636 102.783 5.78629C101.789 5.30648 101.815 4.952 101.017 4.69157C100.491 4.51999 100.486 4.67592 99.474 4.52634C98.1897 4.33662 98.1453 4.07791 97.4999 4.14172C96.809 4.21006 96.7318 4.51924 95.7322 4.81156C94.8971 5.05574 94.7675 4.8135 94.1303 5.05395C93.4825 5.29841 93.542 5.52807 92.7461 5.94741C91.8029 6.44434 91.5294 6.22203 91.0888 6.65254C90.6492 7.08218 90.8707 7.35325 90.3879 8.20379C89.9935 8.89881 89.8003 8.79745 89.1504 9.70045C88.7809 10.2356 88.458 10.8013 88.1849 11.3912C87.9169 11.8277 87.7242 12.3059 87.6148 12.806C87.5449 13.3977 87.7458 13.4621 87.7137 14.2056C87.6801 14.9826 87.4545 15.0551 87.4976 15.6571Z" fill="#040020"/>
<path d="M92.0813 18.3053C92.0879 18.3051 92.094 18.307 92.1006 18.307C92.2189 14.9142 94.3734 12.1905 97.0841 12.129C99.7949 12.0675 102.071 14.6905 102.344 18.0744C102.351 18.0742 102.357 18.072 102.364 18.0718C102.773 18.1067 103.155 18.2913 103.437 18.5901C103.718 18.8889 103.879 19.2808 103.888 19.6907C103.898 20.1005 103.755 20.4993 103.488 20.8106C103.22 21.1218 102.847 21.3236 102.439 21.377C102.278 21.3784 102.117 21.3506 101.966 21.2951C101.401 22.9806 100.293 24.2993 98.912 24.8879L98.9171 24.8884L98.9591 29.0874L98.7743 32.1653L94.5375 31.8587L94.6252 29.1858L94.9591 24.517L94.9703 24.5181C93.8905 23.7855 93.07 22.7318 92.6256 21.5071C92.4768 21.5695 92.318 21.6045 92.1567 21.6104C91.7472 21.5755 91.3649 21.391 91.0835 21.0922C90.8021 20.7934 90.6412 20.4014 90.6319 19.9916C90.6225 19.5818 90.7653 19.1829 91.0328 18.8717C91.3003 18.5604 91.6737 18.3587 92.0813 18.3053ZM82.032 60.6276L81.2823 66.1817C81.2434 66.4824 81.2728 66.7881 81.3683 67.076C81.4638 67.3639 81.6231 67.6267 81.8342 67.8449L84.0572 70.1982C84.1198 70.2622 84.1956 70.3121 84.2794 70.3442C84.3631 70.3763 84.4529 70.3899 84.5424 70.3841C84.6934 70.3833 84.838 70.3229 84.9445 70.2161C85.0509 70.1093 85.1107 69.9648 85.1106 69.8142C85.0936 69.5276 84.9736 69.2568 84.7726 69.0514L83.0692 67.2789C83.0692 67.2789 83.145 64.7282 83.2122 65.1066L84.109 66.2853C84.1542 66.3402 84.2116 66.384 84.2767 66.413C84.3417 66.4421 84.4127 66.4557 84.4839 66.4528C84.5551 66.4499 84.6247 66.4305 84.6871 66.3962C84.7496 66.3619 84.8032 66.3136 84.8437 66.2552C84.8908 66.1854 84.912 66.1014 84.9038 66.0177C84.8655 65.7099 84.7534 65.4159 84.577 65.1604L84.325 64.7929C84.325 64.7929 84.69 61.9297 83.9562 60.5255L82.032 60.6276Z" fill="#493E8C"/>
<path d="M83.2198 42.2908L81.7021 63.2542L84.2762 62.0988L87.5565 44.1829L83.2198 42.2908Z" fill="#493E8C"/>
<path d="M82.8584 45.6433L83.7171 34.4571C83.789 33.523 84.0824 32.6193 84.5732 31.8204C85.064 31.0216 85.7381 30.3505 86.54 29.8624C87.4803 29.2876 88.4999 28.8532 89.5664 28.5732C91.2202 28.1819 92.9144 27.9861 94.6141 27.9898C94.6141 27.9898 96.3991 32.9065 98.9491 27.9898L102.468 29.1722C103.479 29.512 104.409 30.0559 105.201 30.7699C105.992 31.4839 106.628 32.3527 107.068 33.3223L110.871 39.5613L107.841 43.2626L102.727 39.7264L99.6291 46.6393H90.2791L88.2138 39.5613L87.4614 45.6433L82.8584 45.6433Z" fill="#4434A8"/>
<path d="M40.9738 15.6737C42.4128 15.6737 43.5794 14.5103 43.5794 13.0751C43.5794 11.64 42.4128 10.4766 40.9738 10.4766C39.5347 10.4766 38.3682 11.64 38.3682 13.0751C38.3682 14.5103 39.5347 15.6737 40.9738 15.6737Z" fill="#040020"/>
<path d="M29.215 16.2035C30.654 16.2035 31.8206 15.0401 31.8206 13.6049C31.8206 12.1698 30.654 11.0063 29.215 11.0063C27.7759 11.0063 26.6094 12.1698 26.6094 13.6049C26.6094 15.0401 27.7759 16.2035 29.215 16.2035Z" fill="#040020"/>
<path d="M40.6975 19.1304C40.6909 19.1301 40.6847 19.1318 40.6781 19.1315C40.6711 15.7367 38.607 12.9443 35.8998 12.7944C33.1925 12.6445 30.8311 15.192 30.4474 18.5651C30.4408 18.5647 30.4349 18.5623 30.4283 18.5619C30.0178 18.5834 29.6298 18.7555 29.3387 19.0449C29.0476 19.3344 28.874 19.7209 28.8512 20.1302C28.8284 20.5395 28.9581 20.9428 29.2152 21.2626C29.4724 21.5824 29.839 21.7962 30.2445 21.8629C30.4058 21.8695 30.5669 21.847 30.72 21.7964C30.9326 23.89 31.456 25.1925 33.6261 26.1358L33.4699 29.6826L33.5537 32.7649L37.7983 32.5966L37.9537 29.8269L37.6404 26.0748C39.3913 25.6318 40.0133 23.0723 40.0485 22.3128C40.1951 22.38 40.3527 22.4202 40.5137 22.4314C40.9242 22.4099 41.3122 22.2379 41.6033 21.9484C41.8944 21.659 42.068 21.2725 42.0908 20.8631C42.1136 20.4538 41.9839 20.0505 41.7268 19.7307C41.4696 19.4109 41.103 19.1971 40.6975 19.1304Z" fill="#5A4BB8"/>
<path d="M34.1479 26.4546C34.6661 26.4541 35.1485 26.4831 35.6307 26.4706C35.871 26.466 36.1076 26.4448 36.3466 26.418C36.5911 26.3802 36.8333 26.3292 37.0722 26.2652C36.8893 26.4556 36.6634 26.5997 36.4133 26.6855C36.1635 26.7691 35.9028 26.8157 35.6394 26.8237C35.3794 26.827 35.1199 26.7989 34.8666 26.74C34.6129 26.6851 34.37 26.5887 34.1479 26.4546ZM35.143 19.5021C35.1221 19.7643 35.0825 20.0135 35.0453 20.2598C35.0051 20.4984 34.9772 20.7389 34.9618 20.9803C34.9462 21.2135 34.9769 21.4334 35.0989 21.4927C35.3259 21.5376 35.5606 21.5221 35.7796 21.4477C35.6847 21.5419 35.5758 21.6208 35.4567 21.6817C35.3229 21.7574 35.1666 21.7835 35.0153 21.7554C34.93 21.7305 34.8524 21.6845 34.7898 21.6216C34.7272 21.5587 34.6815 21.481 34.6572 21.3958C34.6167 21.2559 34.6001 21.1103 34.6082 20.965C34.626 20.6999 34.6835 20.439 34.7788 20.1909C34.8663 19.945 34.989 19.713 35.143 19.5021ZM31.4834 17.9292C31.4834 17.9292 32.77 16.7724 34.0658 17.9252L31.4834 17.9292ZM36.2582 18.029C36.2582 18.029 37.4216 16.7489 38.8271 17.7659L36.2582 18.029ZM33.7364 22.6141C33.7364 22.6141 34.8812 25.0326 37.0375 22.9515L33.7364 22.6141Z" fill="#040020"/>
<path d="M33.5581 19.6798C33.5746 19.3818 33.4266 19.1313 33.2274 19.1202C33.0282 19.1092 32.8533 19.3419 32.8367 19.6399C32.8201 19.9379 32.9681 20.1884 33.1673 20.1994C33.3665 20.2104 33.5415 19.9778 33.5581 19.6798Z" fill="#040020"/>
<path d="M37.6831 19.7596C37.6996 19.4616 37.5516 19.2111 37.3524 19.2001C37.1532 19.1891 36.9783 19.4217 36.9617 19.7197C36.9451 20.0177 37.0931 20.2682 37.2923 20.2792C37.4915 20.2903 37.6665 20.0576 37.6831 19.7596Z" fill="#040020"/>
<path d="M41.5391 21.0871C41.3691 20.9142 41.1777 20.7636 40.9696 20.6388C40.8807 20.593 40.7819 20.5695 40.6818 20.5704C40.5689 20.5626 40.4442 20.5859 40.2896 20.5935C40.3629 20.4576 40.4834 20.3532 40.6286 20.3C40.7077 20.2688 40.7925 20.2545 40.8775 20.258C40.9625 20.2615 41.0459 20.2828 41.1222 20.3203C41.2668 20.393 41.3842 20.51 41.4571 20.6542C41.5291 20.7864 41.5578 20.9378 41.5391 21.0871ZM29.3038 20.4098C29.3017 20.2593 29.347 20.112 29.4333 19.9886C29.5218 19.8533 29.6515 19.7499 29.8033 19.6935C29.8833 19.6647 29.9684 19.6529 30.0533 19.6588C30.1382 19.6647 30.2209 19.6882 30.2961 19.7279C30.4344 19.7969 30.5426 19.9139 30.6004 20.0569C30.4476 20.0324 30.3262 19.9955 30.2131 19.9907C30.1138 19.9788 30.013 19.9912 29.9196 20.0269C29.6989 20.128 29.492 20.2567 29.3038 20.4098ZM31.8678 15.8815C33.4068 15.9031 33.1593 14.7622 33.3545 13.834C33.3545 13.834 34.2695 15.9402 36.0874 13.9853C36.5014 13.5401 36.2691 16.8999 38.3903 14.5552C38.7187 14.1922 38.9879 15.206 39.405 16.0133C39.6552 16.4977 39.9587 16.9078 40.3603 16.9016L40.3279 19.9057C40.3279 19.9057 44.6462 12.5668 35.3354 11.075C34.3318 10.9362 33.3094 11.0858 32.388 11.5061C27.773 13.8762 29.2637 18.3799 30.9677 20.3404C30.9677 20.3404 30.1346 15.8573 31.8678 15.8815Z" fill="#040020"/>
<path d="M34.9522 11.4041L34.2114 10.3761C34.2114 10.3761 32.445 10.5649 33.4705 9.92123C34.496 9.27756 34.6905 9.79774 34.6799 9.98818L34.9522 11.4041Z" fill="#040020"/>
<path d="M50.4361 61.3204L51.1857 66.8744C51.2247 67.1752 51.1953 67.4808 51.0998 67.7688C51.0042 68.0567 50.845 68.3195 50.6338 68.5377L48.4109 70.8909C48.3482 70.955 48.2724 71.0048 48.1887 71.0369C48.1049 71.069 48.0152 71.0827 47.9256 71.0769C47.7746 71.0761 47.63 71.0157 47.5236 70.9089C47.4171 70.8021 47.3574 70.6575 47.3574 70.5069C47.3744 70.2204 47.4945 69.9496 47.6955 69.7442L49.3988 67.9717C49.3988 67.9717 49.3231 65.421 49.2558 65.7994L48.359 66.9781C48.3138 67.033 48.2564 67.0767 48.1914 67.1058C48.1263 67.1349 48.0554 67.1485 47.9842 67.1456C47.9129 67.1427 47.8434 67.1233 47.7809 67.089C47.7185 67.0547 47.6649 67.0064 47.6243 66.9479C47.5772 66.8782 47.556 66.7942 47.5643 66.7105C47.6026 66.4027 47.7147 66.1086 47.8911 65.8532L48.143 65.4857C48.143 65.4857 47.778 62.6225 48.5118 61.2183L50.4361 61.3204Z" fill="#5A4BB8"/>
<path d="M49.2489 42.9834L50.7665 63.9472L48.1924 62.7918L44.9121 44.8756L49.2489 42.9834Z" fill="#5A4BB8"/>
<path d="M42.8517 51.3129L42.5127 51.415L42.5639 51.5841L42.9029 51.482L42.8517 51.3129Z" fill="#040020"/>
<path d="M44.0754 56.5572L43.9675 56.2019L44.3064 56.0998L44.4143 56.4551L44.0754 56.5572ZM43.8596 55.847L43.7517 55.4921L44.0906 55.3893L44.1985 55.7442L43.8596 55.847ZM43.6434 55.1364L43.5355 54.7812L43.8744 54.6791L43.9823 55.0343L43.6434 55.1364ZM43.4276 54.4259L43.3197 54.0706L43.6586 53.9685L43.7665 54.3238L43.4276 54.4259ZM43.2118 53.7153L43.1039 53.36L43.4428 53.2579L43.5507 53.6132L43.2118 53.7153ZM42.9956 53.0051L42.8877 52.6498L43.2266 52.5477L43.3345 52.903L42.9956 53.0051ZM42.7798 52.2945L42.6719 51.9393L43.0108 51.8372L43.1187 52.1924L42.7798 52.2945Z" fill="#040020"/>
<path d="M44.5224 56.8103L44.1836 56.9131L44.2351 57.0821L44.574 56.9793L44.5224 56.8103Z" fill="#040020"/>
<path d="M49.6108 46.3361L48.7521 35.15C48.6802 34.2158 48.3867 33.3121 47.8959 32.5133C47.4051 31.7144 46.731 31.0433 45.9292 30.5552C44.9889 29.9804 43.9693 29.5461 42.9028 29.266C41.249 28.8748 39.5548 28.679 37.8551 28.6827C37.8551 28.6827 36.0701 33.5993 33.5201 28.6827L30.0016 29.865C28.9902 30.2049 28.0598 30.7487 27.2683 31.4627C26.4768 32.1767 25.8411 33.0456 25.4009 34.0152L21.5986 40.2542V47.6134L29.7422 40.4193L32.8401 47.3322H42.1901L44.2554 40.2542L45.0078 46.3361L49.6108 46.3361Z" fill="#432BDF"/>
<path d="M27.8252 36.5663C28.2538 37.1467 28.6277 37.7653 28.9423 38.4142C29.271 39.0562 29.5388 39.7275 29.7423 40.4192C29.313 39.8392 28.939 39.2205 28.6252 38.5712C28.2972 37.9289 28.0293 37.2577 27.8252 36.5663ZM44.2555 40.2541C44.3845 39.3969 44.5794 38.5508 44.8385 37.7234C45.0822 36.8912 45.3903 36.0792 45.7602 35.2947C45.6319 36.1521 45.437 36.9983 45.1772 37.8256C44.9328 38.6575 44.6247 39.4694 44.2555 40.2541Z" fill="#321DB7"/>
<path d="M20.365 27.1682L17.7128 28.8891L16.8227 45.051C16.7855 45.6197 16.913 46.187 17.1899 46.6855C17.4669 47.1839 17.8816 47.5925 18.3848 47.8625C18.888 48.1325 19.4584 48.2526 20.0281 48.2084C20.5978 48.1643 21.1428 47.9577 21.5981 47.6134C22.6533 45.2463 22.9852 42.6214 22.5521 40.0672L20.365 27.1682Z" fill="#5A4BB8"/>
<path d="M20.631 30.0307C20.631 30.0307 21.3295 29.0112 20.9667 26.3119C20.604 23.6127 20.03 21.527 19.8434 23.4378L19.7255 24.8962C19.7255 24.8962 18.5531 23.0449 17.9516 21.881C17.7969 21.5697 17.5461 21.3163 17.2362 21.1579C16.9262 20.9995 16.5734 20.9446 16.2298 21.0012C15.5881 21.1213 15.2874 21.5487 15.7184 23.0197C16.3629 25.2198 17.3833 28.5982 17.7019 29.095C17.8122 29.2671 20.631 30.0307 20.631 30.0307Z" fill="#5A4BB8"/>
<path d="M20.3435 26.0704C20.1997 25.8995 20.076 25.7129 19.9746 25.514C19.8719 25.3165 19.7885 25.1097 19.7256 24.8962C19.8879 25.0529 20.0223 25.2359 20.1231 25.4374C20.2276 25.6364 20.3019 25.8497 20.3435 26.0704Z" fill="#090716"/>
<path d="M44.7869 112.781L46.3081 78.4744L46.4381 58.1179C47.3902 59.7619 46.6762 55.679 45.0072 51.9515C44.277 50.2576 43.2986 48.6813 42.1038 47.2742H32.7538L30.1772 51.8747C28.396 55.0549 27.2012 58.5279 26.6495 62.1288L20.1212 109.675L19.5867 112.781L14.3262 116.659C14.3262 116.659 20.5099 118.884 23.6337 115.578L22.9962 112.654L36.8232 58.7182H37.3285L41.3774 112.654L40.7399 115.578C43.8637 118.884 50.0474 116.659 50.0474 116.659L44.7869 112.781Z" fill="#5A4BB8"/>
<path d="M52.0877 118.821C52.0877 118.821 45.139 118.951 43.4815 117.391V118.823H40.4215C40.4215 118.823 39.4602 113.719 41.0883 113.981C42.7165 114.243 48.5123 118.656 48.6425 115.623L50.9162 116.79C51.2691 116.971 51.5651 117.246 51.7718 117.584C51.9784 117.922 52.0877 118.31 52.0877 118.706V118.821Z" fill="#432BDF"/>
<path d="M32.7922 47.2742L30.2156 51.8748C28.4344 55.055 27.2396 58.528 26.6879 62.1288L24.1816 78.4664L46.7426 78.4744L47.279 63.8413C47.4547 59.76 46.6907 55.6927 45.0456 51.9515C44.3154 50.2576 43.3369 48.6813 42.1422 47.2742L32.7922 47.2742Z" fill="#7764F0"/>
<path d="M12.2861 118.821C12.2861 118.821 19.2349 118.951 20.8924 117.391V118.823H23.9524C23.9524 118.823 24.9137 113.719 23.2855 113.981C21.6574 114.243 15.8616 118.656 15.7314 115.623L13.4576 116.79C13.1048 116.971 12.8088 117.246 12.6021 117.584C12.3955 117.922 12.2861 118.31 12.2861 118.706V118.821Z" fill="#432BDF"/>
<path d="M98.37 25.0786C98.1436 25.2054 97.8977 25.2939 97.6423 25.3404C97.3873 25.3911 97.127 25.4107 96.8672 25.3987C96.6043 25.3822 96.3452 25.3272 96.0983 25.2356C95.8512 25.1416 95.6301 24.9902 95.4535 24.7939C95.6902 24.8656 95.9306 24.9246 96.1737 24.9705C96.4118 25.0048 96.6475 25.0338 96.8875 25.0464C97.369 25.0743 97.8521 25.0612 98.37 25.0786ZM97.6207 18.8578C97.7677 19.0736 97.8827 19.3095 97.9621 19.5582C98.0492 19.8092 98.0982 20.0719 98.1073 20.3374C98.1106 20.4829 98.0892 20.6279 98.0442 20.7663C98.0171 20.8507 97.9689 20.9269 97.9043 20.9877C97.8396 21.0485 97.7606 21.0919 97.6745 21.114C97.5224 21.1372 97.367 21.1061 97.2357 21.026C97.1187 20.9613 97.0124 20.8789 96.9206 20.7817C97.1371 20.8632 97.3712 20.8863 97.5995 20.8487C97.7234 20.7936 97.7613 20.5747 97.7534 20.3412C97.7458 20.0994 97.7259 19.8581 97.6935 19.6184C97.6644 19.371 97.633 19.1206 97.6207 18.8578ZM101.311 17.4977C101.311 17.4977 100.152 16.2137 98.7426 17.2258L101.311 17.4977ZM96.5758 17.2599C96.5758 17.2599 95.3662 16.0232 93.999 17.0907L96.5758 17.2599Z" fill="#040020"/>
<path d="M99.5723 19.619C99.7718 19.6144 99.928 19.3689 99.9212 19.0705C99.9144 18.7721 99.7471 18.5339 99.5477 18.5384C99.3482 18.543 99.192 18.7885 99.1989 19.0869C99.2057 19.3853 99.3729 19.6235 99.5723 19.619Z" fill="#040020"/>
<path d="M95.4473 19.5643C95.6468 19.5598 95.803 19.3142 95.7962 19.0158C95.7894 18.7174 95.6221 18.4792 95.4227 18.4837C95.2232 18.4883 95.067 18.7338 95.0739 19.0322C95.0807 19.3306 95.2479 19.5688 95.4473 19.5643Z" fill="#040020"/>
<path d="M99.7621 7.42448C99.6917 7.42441 99.6217 7.41479 99.5539 7.39587C99.3931 7.33226 99.2471 7.23662 99.1246 7.1148C99.0022 6.99299 98.9059 6.84755 98.8418 6.68738C98.8245 6.644 98.8252 6.59558 98.8437 6.55271C98.8621 6.50983 98.8968 6.47598 98.9402 6.45853C98.9836 6.44109 99.0322 6.44147 99.0753 6.4596C99.1184 6.47772 99.1526 6.51212 99.1703 6.55528C99.1721 6.55942 99.3436 6.97162 99.6504 7.05613C99.7438 7.07271 99.8398 7.06748 99.9308 7.04085C100.022 7.01421 100.105 6.96691 100.175 6.90264C100.213 6.87446 100.26 6.8623 100.306 6.86883C100.353 6.87537 100.395 6.90006 100.423 6.93747C100.451 6.97489 100.464 7.02197 100.457 7.06835C100.45 7.11473 100.426 7.15662 100.388 7.18479C100.211 7.33093 99.9915 7.41514 99.7621 7.42448ZM105.304 10.4644C105.017 10.4459 104.743 10.3391 104.519 10.1588C104.483 10.1289 104.46 10.0859 104.455 10.0393C104.451 9.99263 104.465 9.94616 104.495 9.91007C104.525 9.87398 104.568 9.85123 104.615 9.84683C104.662 9.84244 104.708 9.85674 104.745 9.88661C104.929 10.0401 105.166 10.1166 105.406 10.1001C105.496 10.0705 105.578 10.0205 105.646 9.95384C105.713 9.88721 105.764 9.80586 105.795 9.71621C105.804 9.69514 105.818 9.6762 105.835 9.66045C105.852 9.6447 105.872 9.63245 105.894 9.62441C105.916 9.61637 105.939 9.6127 105.962 9.61359C105.986 9.61449 106.008 9.61994 106.03 9.62963C106.051 9.63933 106.07 9.65308 106.085 9.67009C106.101 9.68711 106.114 9.70706 106.122 9.72881C106.13 9.75056 106.133 9.77368 106.132 9.79685C106.132 9.82002 106.126 9.84279 106.116 9.86385C106.065 10.0039 105.98 10.1297 105.87 10.2307C105.76 10.3318 105.627 10.4051 105.483 10.4447C105.424 10.458 105.364 10.4646 105.304 10.4644ZM101.935 12.1952C101.648 12.1768 101.374 12.07 101.15 11.8896C101.114 11.8597 101.091 11.8168 101.087 11.7702C101.083 11.7237 101.097 11.6773 101.127 11.6413C101.157 11.6053 101.2 11.5826 101.247 11.5782C101.293 11.5738 101.34 11.588 101.376 11.6178C101.561 11.7701 101.797 11.8463 102.037 11.831C102.127 11.8014 102.209 11.7513 102.277 11.6847C102.344 11.6181 102.395 11.5367 102.426 11.4471C102.445 11.4045 102.481 11.3715 102.525 11.3553C102.569 11.3391 102.618 11.3409 102.66 11.3605C102.703 11.3801 102.736 11.4158 102.753 11.4597C102.769 11.5036 102.767 11.5522 102.747 11.5947C102.696 11.7348 102.611 11.8607 102.501 11.9617C102.391 12.0627 102.258 12.1361 102.114 12.1756C102.055 12.1889 101.995 12.1955 101.935 12.1952ZM97.119 13.7644C96.832 13.7459 96.5578 13.6392 96.3342 13.4588L96.5601 13.1869C96.7447 13.3401 96.9814 13.4163 97.221 13.3998C97.3112 13.3702 97.3933 13.3202 97.4608 13.2535C97.5283 13.1869 97.5793 13.1055 97.6098 13.0159L97.9314 13.1635C97.8798 13.3036 97.7955 13.4294 97.6853 13.5305C97.5752 13.6316 97.4424 13.705 97.2981 13.7447C97.2393 13.7578 97.1793 13.7644 97.119 13.7644ZM103.911 15.6563C103.834 15.6564 103.757 15.6447 103.683 15.6218C103.524 15.5539 103.38 15.4543 103.261 15.3291C103.142 15.204 103.05 15.0559 102.99 14.894C102.982 14.8723 102.978 14.8491 102.979 14.826C102.98 14.8028 102.985 14.78 102.995 14.7589C103.005 14.7378 103.018 14.7188 103.036 14.703C103.053 14.6872 103.073 14.6749 103.094 14.6669C103.116 14.6588 103.139 14.6551 103.163 14.6559C103.186 14.6568 103.209 14.6622 103.23 14.6718C103.251 14.6815 103.27 14.6952 103.286 14.7122C103.302 14.7292 103.314 14.7491 103.322 14.7709C103.323 14.775 103.484 15.1917 103.788 15.2845C103.881 15.3043 103.978 15.3021 104.07 15.278C104.161 15.2538 104.246 15.2084 104.318 15.1455C104.336 15.1319 104.358 15.1223 104.381 15.1171C104.403 15.1118 104.427 15.1111 104.45 15.115C104.473 15.1189 104.495 15.1272 104.515 15.1396C104.534 15.152 104.552 15.1681 104.565 15.1871C104.579 15.2061 104.588 15.2276 104.593 15.2502C104.598 15.2729 104.599 15.2964 104.595 15.3193C104.591 15.3423 104.583 15.3642 104.57 15.3838C104.558 15.4035 104.541 15.4205 104.522 15.4338C104.347 15.5698 104.133 15.6476 103.911 15.6563ZM95.1431 6.39969C95.0657 6.39958 94.9887 6.38796 94.9148 6.36519C94.7558 6.29724 94.6123 6.19765 94.4932 6.07251C94.3741 5.94736 94.2818 5.79931 94.222 5.63738C94.2057 5.59347 94.2074 5.54487 94.227 5.50228C94.2466 5.45968 94.2823 5.42658 94.3263 5.41025C94.3703 5.39392 94.4191 5.3957 94.4618 5.4152C94.5045 5.43471 94.5377 5.47033 94.5541 5.51425C94.5554 5.51838 94.7159 5.93506 95.0203 6.02785C95.1132 6.04704 95.2092 6.04448 95.3009 6.02035C95.3926 5.99623 95.4775 5.95122 95.5488 5.88884C95.5677 5.87502 95.5892 5.86508 95.612 5.85961C95.6348 5.85414 95.6584 5.85323 95.6816 5.85696C95.7047 5.86068 95.7269 5.86895 95.7469 5.88129C95.7668 5.89364 95.784 5.9098 95.7977 5.92886C95.8113 5.94791 95.8209 5.96947 95.8261 5.99228C95.8313 6.01509 95.8319 6.0387 95.8279 6.06174C95.8238 6.08478 95.8152 6.1068 95.8026 6.1265C95.7899 6.1462 95.7735 6.1632 95.7542 6.17652C95.579 6.31289 95.3652 6.39095 95.1431 6.39969ZM90.128 11.2318C90.0505 11.2319 89.9734 11.2203 89.8994 11.1973C89.7405 11.1293 89.5971 11.0297 89.4781 10.9045C89.359 10.7794 89.2668 10.6314 89.207 10.4695C89.1909 10.4257 89.1928 10.3773 89.2124 10.3348C89.232 10.2924 89.2677 10.2595 89.3115 10.2432C89.3554 10.2269 89.404 10.2286 89.4466 10.248C89.4892 10.2673 89.5225 10.3027 89.539 10.3464C89.5404 10.3505 89.7009 10.7672 90.0049 10.86C90.0978 10.8795 90.1941 10.8771 90.286 10.853C90.3779 10.8289 90.4628 10.7837 90.5341 10.721C90.553 10.7076 90.5745 10.698 90.5972 10.6928C90.6199 10.6877 90.6434 10.687 90.6663 10.6909C90.6893 10.6948 90.7112 10.7032 90.7309 10.7156C90.7506 10.7279 90.7677 10.7441 90.7811 10.763C90.7946 10.7819 90.8041 10.8033 90.8093 10.826C90.8144 10.8486 90.8151 10.872 90.8112 10.8949C90.8072 10.9178 90.7988 10.9397 90.7864 10.9593C90.774 10.979 90.7578 10.996 90.7388 11.0094C90.5635 11.1453 90.3499 11.2231 90.128 11.2318ZM89.6147 16.192C89.5372 16.192 89.4602 16.1804 89.3861 16.1575C89.2272 16.0894 89.0838 15.9898 88.9648 15.8647C88.8458 15.7395 88.7535 15.5915 88.6937 15.4297C88.6774 15.3858 88.6791 15.3372 88.6987 15.2946C88.7183 15.252 88.754 15.2189 88.798 15.2025C88.842 15.1862 88.8908 15.188 88.9335 15.2075C88.9762 15.227 89.0094 15.2626 89.0258 15.3065C89.0271 15.3107 89.1876 15.7274 89.4916 15.8201C89.5846 15.8398 89.6809 15.8375 89.7728 15.8133C89.8647 15.7892 89.9496 15.7439 90.0208 15.6811C90.0398 15.6677 90.0612 15.6582 90.0839 15.653C90.1066 15.6479 90.1301 15.6473 90.153 15.6512C90.176 15.6551 90.1979 15.6635 90.2176 15.6758C90.2373 15.6882 90.2543 15.7043 90.2678 15.7232C90.2812 15.7422 90.2908 15.7635 90.2959 15.7862C90.3011 15.8088 90.3017 15.8322 90.2978 15.8551C90.2939 15.8779 90.2855 15.8998 90.2731 15.9195C90.2607 15.9391 90.2445 15.9561 90.2256 15.9695C90.0502 16.1054 89.8366 16.1832 89.6147 16.192ZM94.222 10.0184C93.9038 9.99098 93.6061 9.8503 93.3833 9.62205C93.3507 9.58834 93.3328 9.54309 93.3337 9.49625C93.3345 9.44942 93.354 9.40484 93.3878 9.37232C93.4216 9.3398 93.467 9.322 93.5139 9.32284C93.5609 9.32368 93.6056 9.34309 93.6382 9.3768C93.8062 9.54722 94.0319 9.64905 94.2711 9.66241C94.3642 9.64311 94.4514 9.60249 94.5259 9.54376C94.6005 9.48503 94.6603 9.4098 94.7007 9.32403C94.725 9.28403 94.7643 9.25531 94.8099 9.24416C94.8554 9.23301 94.9036 9.24035 94.9437 9.26457C94.9839 9.28879 95.0127 9.32791 95.024 9.37333C95.0352 9.41876 95.0279 9.46678 95.0037 9.50684C94.9367 9.6403 94.8387 9.75589 94.7179 9.84401C94.5971 9.93214 94.457 9.99026 94.3092 10.0136C94.2802 10.0167 94.2511 10.0183 94.222 10.0184Z" fill="#170D56"/>
<path d="M91.1757 20.2337C91.1619 20.0838 91.1955 19.9334 91.2718 19.8035C91.3495 19.6619 91.4707 19.5487 91.6175 19.4807C91.695 19.4457 91.779 19.4272 91.8641 19.4265C91.9492 19.4258 92.0334 19.4428 92.1115 19.4765C92.2549 19.5345 92.3719 19.6428 92.4407 19.7809C92.2864 19.7684 92.1625 19.7409 92.0494 19.7451C91.9494 19.741 91.85 19.7613 91.7596 19.8041C91.5475 19.922 91.3513 20.0664 91.1757 20.2337ZM101.974 16.2173C101.974 16.2173 100.271 15.7978 99.7826 13.0268C99.7826 13.0268 99.6337 16.4328 92.491 16.0887L92.425 19.0923L90.7705 16.7614C90.7705 16.7614 92.4231 10.495 98.0511 11.1319C98.9529 11.2593 99.8084 11.6099 100.539 12.1517C101.437 12.7984 102.189 13.6252 102.748 14.5789C103.306 15.5327 103.658 16.5924 103.782 17.6899L103.856 18.2923C103.856 18.2923 102.637 16.345 101.766 19.832L101.974 16.2173Z" fill="#040020"/>
<path d="M92.7246 13.6222C92.4376 13.6038 92.1634 13.497 91.9398 13.3166C91.9038 13.2867 91.8811 13.2438 91.8767 13.1972C91.8724 13.1507 91.8868 13.1043 91.9167 13.0683C91.9466 13.0323 91.9896 13.0096 92.0363 13.0052C92.083 13.0008 92.1295 13.015 92.1657 13.0448C92.3496 13.1992 92.5868 13.2757 92.8266 13.258C92.9169 13.2285 92.999 13.1784 93.0666 13.1118C93.1341 13.0452 93.1852 12.9638 93.2157 12.8741C93.2353 12.8315 93.2711 12.7985 93.3152 12.7823C93.3592 12.766 93.4079 12.7679 93.4506 12.7875C93.4932 12.8071 93.5263 12.8428 93.5426 12.8867C93.5589 12.9306 93.557 12.9792 93.5374 13.0217C93.4857 13.1618 93.4013 13.2877 93.2911 13.3887C93.1809 13.4897 93.0481 13.5631 92.9037 13.6026C92.845 13.6159 92.7849 13.6224 92.7246 13.6222ZM97.6421 13.5108C97.3551 13.4924 97.0809 13.3856 96.8573 13.2052C96.8214 13.1753 96.7988 13.1324 96.7945 13.0859C96.7903 13.0394 96.8046 12.9931 96.8345 12.9571C96.8644 12.9212 96.9073 12.8985 96.9539 12.894C97.0005 12.8896 97.047 12.9037 97.0832 12.9334C97.2684 13.0855 97.5047 13.1618 97.7441 13.1466C97.8343 13.117 97.9164 13.0669 97.9839 13.0003C98.0513 12.9337 98.1023 12.8523 98.1329 12.7627C98.1525 12.7201 98.1883 12.6871 98.2323 12.6709C98.2764 12.6546 98.3251 12.6565 98.3677 12.6761C98.4104 12.6957 98.4435 12.7313 98.4598 12.7753C98.4761 12.8192 98.4742 12.8678 98.4545 12.9103C98.403 13.0504 98.3186 13.1762 98.2085 13.2773C98.0983 13.3783 97.9656 13.4516 97.8213 13.4912C97.7625 13.5044 97.7024 13.511 97.6421 13.5108ZM105.501 19.097C105.214 19.0785 104.939 18.9718 104.716 18.7914C104.68 18.7615 104.657 18.7185 104.653 18.672C104.648 18.6255 104.663 18.5791 104.693 18.5431C104.723 18.5071 104.766 18.4844 104.812 18.4799C104.859 18.4754 104.905 18.4896 104.942 18.5192C105.127 18.6722 105.363 18.7486 105.603 18.7328C105.693 18.7032 105.775 18.6531 105.843 18.5865C105.91 18.5198 105.961 18.4385 105.992 18.3488C106.011 18.3063 106.047 18.2733 106.091 18.257C106.135 18.2408 106.184 18.2427 106.226 18.2623C106.269 18.2818 106.302 18.3175 106.319 18.3614C106.335 18.4054 106.333 18.4539 106.313 18.4965C106.262 18.6366 106.177 18.7623 106.067 18.8634C105.957 18.9644 105.824 19.0378 105.68 19.0774C105.621 19.0906 105.561 19.0972 105.501 19.097Z" fill="#170D56"/>
<path d="M103.416 19.9555C103.233 19.7964 103.031 19.6611 102.813 19.553C102.721 19.5143 102.621 19.4986 102.521 19.5073C102.408 19.5081 102.285 19.5413 102.132 19.5607C102.194 19.4196 102.306 19.3062 102.447 19.2417C102.523 19.2045 102.607 19.1837 102.692 19.1806C102.777 19.1775 102.861 19.1921 102.94 19.2236C103.09 19.2848 103.217 19.3923 103.3 19.5304C103.383 19.6566 103.423 19.8052 103.416 19.9555Z" fill="#040020"/>
<path d="M103.083 18.2588C103 17.3441 102.834 16.4388 102.587 15.5541C102.355 14.6841 101.996 13.8527 101.522 13.0863C101.069 12.3428 100.416 11.7398 99.6382 11.3451C98.8531 10.9788 97.9826 10.8331 97.1206 10.9236C96.2434 11.0026 95.3925 11.2633 94.6221 11.6891C93.8518 12.1149 93.1791 12.6963 92.6469 13.3962C92.1062 14.1089 91.7264 14.9299 91.5336 15.8027C91.343 16.6968 91.2882 17.6144 91.371 18.5247C91.1414 17.6151 91.0806 16.6713 91.1915 15.7399C91.3132 14.7864 91.6572 13.8745 92.1959 13.0775C92.7437 12.2712 93.4645 11.5965 94.3061 11.1022C95.1477 10.608 96.089 10.3067 97.0617 10.2201C97.5523 10.1834 98.0455 10.2054 98.5308 10.2855C99.023 10.3624 99.4992 10.5193 99.9404 10.7501C100.811 11.2199 101.525 11.9334 101.994 12.8028C102.45 13.6369 102.764 14.5404 102.924 15.4767C103.091 16.394 103.145 17.3284 103.083 18.2588Z" fill="#312389"/>
<path d="M99.6378 21.6892C99.7755 21.6845 99.906 21.6266 100.002 21.5277C100.097 21.4289 100.151 21.2968 100.151 21.1594C100.151 21.022 100.097 20.89 100.002 20.7911C99.906 20.6923 99.7755 20.6344 99.6378 20.6296C99.5001 20.6344 99.3696 20.6923 99.2739 20.7911C99.1781 20.89 99.1246 21.022 99.1246 21.1594C99.1246 21.2968 99.1781 21.4289 99.2739 21.5277C99.3696 21.6266 99.5001 21.6845 99.6378 21.6892ZM95.1753 21.3502C95.313 21.3454 95.4435 21.2875 95.5392 21.1887C95.6349 21.0898 95.6884 20.9578 95.6884 20.8203C95.6884 20.6829 95.6349 20.5509 95.5392 20.452C95.4435 20.3532 95.313 20.2953 95.1753 20.2905C95.0376 20.2953 94.9071 20.3532 94.8114 20.452C94.7156 20.5509 94.6621 20.6829 94.6621 20.8203C94.6621 20.9578 94.7156 21.0898 94.8114 21.1887C94.9071 21.2875 95.0376 21.3454 95.1753 21.3502Z" fill="#2A2260"/>
<path d="M108.257 118.892C108.257 118.892 101.308 119.022 99.6507 117.463V118.895H96.5907C96.5907 118.895 95.6294 113.791 97.2576 114.053C98.8857 114.314 104.682 118.727 104.812 115.694L107.085 116.862C107.438 117.043 107.734 117.317 107.941 117.655C108.148 117.993 108.257 118.381 108.257 118.777V118.892ZM73.4141 118.892C73.4141 118.892 80.3628 119.022 82.0203 117.463V118.895H85.0803C85.0803 118.895 86.0416 113.791 84.4135 114.053C82.7853 114.314 76.9895 118.727 76.8593 115.694L74.5856 116.862C74.2327 117.043 73.9367 117.317 73.7301 117.655C73.5234 117.993 73.4141 118.381 73.4141 118.777V118.892Z" fill="#2605FA"/>
<path d="M100.278 51.3546C100.24 51.3547 100.203 51.3425 100.173 51.32C100.142 51.2974 100.12 51.2657 100.109 51.2294L99.9544 50.7224C99.9474 50.7001 99.9449 50.6767 99.947 50.6535C99.9492 50.6303 99.9559 50.6077 99.9668 50.5871C99.9777 50.5664 99.9926 50.5482 100.011 50.5333C100.029 50.5185 100.05 50.5073 100.072 50.5006C100.094 50.4938 100.118 50.4915 100.141 50.4938C100.164 50.4961 100.187 50.503 100.207 50.5141C100.228 50.5251 100.246 50.5402 100.261 50.5583C100.276 50.5764 100.287 50.5972 100.293 50.6196L100.448 51.1267C100.456 51.153 100.457 51.181 100.453 51.2082C100.448 51.2354 100.437 51.2611 100.42 51.2833C100.404 51.3054 100.383 51.3234 100.358 51.3358C100.333 51.3482 100.306 51.3547 100.278 51.3546ZM101.409 55.0768C101.371 55.0768 101.334 55.0647 101.304 55.0421C101.273 55.0196 101.251 54.9878 101.24 54.9516L100.957 54.021C100.943 53.9763 100.949 53.9282 100.971 53.8872C100.993 53.8462 101.03 53.8155 101.075 53.802C101.12 53.7884 101.168 53.793 101.209 53.8148C101.251 53.8366 101.282 53.8737 101.296 53.9182L101.579 54.8488C101.587 54.8752 101.588 54.9031 101.584 54.9303C101.579 54.9575 101.568 54.9833 101.551 55.0054C101.535 55.0276 101.514 55.0456 101.489 55.058C101.464 55.0704 101.437 55.0768 101.409 55.0768ZM100.844 53.2159C100.806 53.2159 100.769 53.2038 100.738 53.1812C100.708 53.1587 100.685 53.1269 100.674 53.0907L100.391 52.1601C100.378 52.1154 100.383 52.0673 100.405 52.0263C100.427 51.9852 100.465 51.9546 100.51 51.9411C100.554 51.9275 100.603 51.9321 100.644 51.9539C100.685 51.9757 100.716 52.0128 100.73 52.0573L101.013 52.9879C101.021 53.0143 101.023 53.0422 101.018 53.0694C101.013 53.0966 101.002 53.1223 100.986 53.1445C100.969 53.1667 100.948 53.1847 100.923 53.1971C100.899 53.2095 100.871 53.2159 100.844 53.2159ZM101.846 56.5141C101.808 56.5142 101.771 56.502 101.74 56.4794C101.71 56.4567 101.687 56.4249 101.676 56.3886L101.523 55.8815C101.516 55.8593 101.513 55.8359 101.515 55.8127C101.517 55.7894 101.524 55.7669 101.535 55.7463C101.546 55.7257 101.561 55.7075 101.579 55.6926C101.597 55.6778 101.618 55.6667 101.64 55.66C101.663 55.6533 101.686 55.651 101.71 55.6534C101.733 55.6557 101.755 55.6627 101.776 55.6738C101.796 55.6849 101.815 55.6999 101.829 55.7181C101.844 55.7362 101.855 55.7571 101.861 55.7794L102.015 56.2865C102.022 56.3087 102.024 56.332 102.022 56.3551C102.02 56.3781 102.013 56.4005 102.002 56.421C101.991 56.4414 101.976 56.4595 101.958 56.4742C101.94 56.4888 101.919 56.4998 101.897 56.5065C101.881 56.5116 101.863 56.5142 101.846 56.5141Z" fill="#321DB7"/>
<path d="M104.644 35.8734C104.44 36.5649 104.172 37.236 103.844 37.8783C103.53 38.5277 103.156 39.1464 102.727 39.7263C102.93 39.0346 103.198 38.3634 103.527 37.7214C103.841 37.0724 104.215 36.4538 104.644 35.8734ZM88.2137 39.5613C87.8445 38.7765 87.5364 37.9646 87.2919 37.1328C87.0322 36.3054 86.8373 35.4592 86.709 34.6018C87.0789 35.3863 87.387 36.1983 87.6307 37.0305C87.8897 37.8579 88.0846 38.704 88.2137 39.5613Z" fill="#312389"/>
<path d="M99.0061 22.5378C99.0061 22.5378 98.0212 24.7631 96.0449 22.9193L99.0061 22.5378Z" fill="#040020"/>
<path d="M131.704 51.6851V110.007H123.884L122.864 59.1449H120.824L116.914 110.007H109.094L112.494 51.6851H131.704Z" fill="#2605FA"/>
<path d="M111.559 30.4922C111.632 31.2905 111.666 32.0887 111.694 32.8871C111.727 33.6852 111.731 34.4836 111.736 35.2817C111.732 36.0799 111.727 36.8783 111.695 37.6764L111.646 38.8739C111.616 39.273 111.599 39.6722 111.559 40.0713C111.519 39.6722 111.501 39.273 111.472 38.8739L111.423 37.6764C111.39 36.8783 111.386 36.0799 111.382 35.2817C111.386 34.4836 111.391 33.6852 111.423 32.8871C111.452 32.0887 111.486 31.2905 111.559 30.4922ZM132.299 30.9161C132.386 32.3635 132.434 33.8113 132.477 35.2592C132.52 36.7072 132.532 38.1554 132.561 39.6034C132.561 41.0516 132.577 42.4998 132.563 43.9482L132.534 46.1209C132.512 46.8453 132.502 47.5696 132.469 48.294C132.422 47.5703 132.397 46.8465 132.361 46.1226L132.29 43.951C132.248 42.5029 132.235 41.0549 132.207 39.6067C132.208 38.1585 132.191 36.7103 132.206 35.2619C132.22 33.8134 132.24 32.365 132.299 30.9161Z" fill="#402CBF"/>
<path d="M115.213 112.042C115.213 112.042 117.338 117.976 115.553 118.823H113.768C113.768 118.823 112.918 116.45 111.728 118.823H100.848C100.848 118.823 100.168 116.958 102.803 116.111C105.438 115.263 109.858 112.042 109.858 112.042H115.213Z" fill="#4434A8"/>
<path d="M115.553 110.007L115.213 112.042H109.858V110.007H115.553Z" fill="#5A4BB8"/>
<path d="M125.198 112.042C125.198 112.042 123.073 117.976 124.858 118.823H126.643C126.643 118.823 127.493 116.45 128.683 118.823H139.563C139.563 118.823 140.243 116.958 137.608 116.111C134.973 115.263 130.553 112.042 130.553 112.042H125.198Z" fill="#4434A8"/>
<path d="M124.858 110.007L125.198 112.042H130.553V110.007H124.858Z" fill="#5A4BB8"/>
<path d="M120.331 58.9996C120.9 58.875 121.481 58.8157 122.063 58.823C122.645 58.8149 123.226 58.8742 123.795 58.9996C123.226 59.1249 122.645 59.1842 122.063 59.176C121.481 59.1834 120.9 59.1242 120.331 58.9996Z" fill="#2506ED"/>
<path d="M110.516 39.208L111.558 40.2406L111.615 43.9416C111.615 43.9416 108.491 45.6416 107.486 42.9093L110.516 39.208Z" fill="#493E8C"/>
<path d="M91.9727 24.0012H90.5059V20.864H91.9727V24.0012ZM90.7715 23.7363H91.7071V21.1289H90.7715V23.7363ZM103.989 23.8249H102.522V20.6877H103.989V23.8249ZM102.788 23.56H103.723V20.9527H102.788V23.56Z" fill="#2605FA"/>
<path d="M102.787 20.9484V20.5789H103.679C103.478 20.923 103.162 21.1863 102.787 21.3233V20.9484ZM91.7159 21.547V20.857H90.875C91.0654 21.1783 91.3631 21.4226 91.7159 21.547Z" fill="#493E8C"/>
<path d="M32.0709 28.8426L32.5218 29.9351C32.6287 30.1929 32.6666 30.474 32.6318 30.7508C32.5969 31.0276 32.4905 31.2907 32.323 31.5141C32.2536 31.6089 32.1727 31.6949 32.0821 31.7699C31.9511 31.8841 31.8022 31.9759 31.6413 32.0417L30.0492 32.6953C29.9933 32.7189 29.9356 32.7379 29.8766 32.7522C29.771 32.7862 29.6612 32.8054 29.5502 32.8093C29.2106 32.8358 28.8713 32.754 28.5813 32.5757C28.2913 32.3974 28.0656 32.1318 27.9368 31.8173L27.4859 30.7249C27.3881 30.4874 27.3888 30.2209 27.4879 29.9839C27.5869 29.7469 27.7762 29.5588 28.0142 29.4609L30.8034 28.3158C31.0416 28.2183 31.3088 28.219 31.5464 28.3178C31.7841 28.4165 31.9727 28.6053 32.0709 28.8426Z" fill="#C8C0FE"/>
<path d="M32.3235 31.5141C32.2541 31.6089 32.1732 31.6948 32.0826 31.7699L31.1933 29.6917C31.1772 29.6524 31.1772 29.6083 31.1934 29.569C31.2096 29.5296 31.2407 29.4983 31.28 29.4818C31.3193 29.4652 31.3635 29.4647 31.4031 29.4805C31.4426 29.4963 31.4744 29.5269 31.4914 29.5659L32.3235 31.5141ZM31.5461 32.081L31.2468 32.2039L30.3311 30.0702C30.3149 30.0306 30.3151 29.9862 30.3316 29.9468C30.3481 29.9073 30.3796 29.8759 30.4192 29.8595C30.4385 29.8513 30.4593 29.8469 30.4804 29.8467C30.5014 29.8464 30.5223 29.8504 30.5418 29.8583C30.5614 29.8662 30.5791 29.8778 30.5941 29.8926C30.6091 29.9073 30.621 29.9249 30.6291 29.9443L31.5461 32.081ZM30.6662 32.4422L30.3669 32.5651L29.4752 30.4809C29.4666 30.4616 29.462 30.4408 29.4616 30.4197C29.4613 30.3986 29.4652 30.3777 29.4731 30.3582C29.4811 30.3386 29.4929 30.3209 29.5078 30.306C29.5228 30.2911 29.5406 30.2793 29.5602 30.2714L29.5632 30.2702C29.6024 30.2546 29.6461 30.2547 29.6853 30.2705C29.7244 30.2863 29.7559 30.3166 29.7732 30.355L30.6662 32.4422ZM29.8771 32.7522C29.7715 32.7862 29.6617 32.8054 29.5507 32.8093L28.6344 30.6655C28.6174 30.6262 28.6167 30.5818 28.6324 30.542C28.6481 30.5022 28.6789 30.4702 28.7182 30.453C28.7379 30.444 28.7592 30.4391 28.7808 30.4386C28.8025 30.4381 28.824 30.4421 28.844 30.4502C28.8641 30.4583 28.8823 30.4704 28.8975 30.4858C28.9127 30.5011 28.9246 30.5194 28.9324 30.5396L29.8771 32.7522Z" fill="#040020"/>
<path d="M104.992 30.3206L104.534 31.4099C104.426 31.6674 104.253 31.8924 104.031 32.063C103.81 32.2336 103.548 32.3439 103.271 32.3831C103.155 32.4009 103.037 32.4043 102.919 32.3933C102.746 32.3812 102.576 32.3406 102.415 32.2733L100.828 31.6087C100.772 31.5859 100.717 31.5585 100.666 31.5269C100.567 31.4762 100.476 31.4121 100.395 31.3364C100.136 31.115 99.9552 30.8174 99.8774 30.4866C99.7996 30.1558 99.8292 29.809 99.962 29.4961L100.42 28.4068C100.52 28.1701 100.71 27.9826 100.949 27.8855C101.187 27.7884 101.454 27.7895 101.691 27.8887L104.473 29.053C104.71 29.1526 104.898 29.342 104.995 29.5796C105.093 29.8173 105.092 30.0838 104.992 30.3206Z" fill="#C8C0FE"/>
<path d="M103.271 32.3831C103.154 32.4009 103.036 32.4044 102.919 32.3933L103.769 30.2988C103.786 30.2597 103.817 30.2286 103.856 30.2124C103.896 30.1962 103.94 30.1961 103.979 30.2122C104.019 30.2282 104.05 30.2591 104.067 30.2982C104.084 30.3372 104.084 30.3813 104.069 30.4208L103.271 32.3831ZM102.32 32.2334L102.021 32.1085L102.892 29.9562C102.909 29.9168 102.94 29.8856 102.98 29.8694C103.02 29.8533 103.064 29.8534 103.104 29.8698C103.123 29.8777 103.141 29.8893 103.156 29.904C103.171 29.9188 103.183 29.9363 103.191 29.9557C103.199 29.975 103.204 29.9958 103.204 30.0168C103.204 30.0378 103.2 30.0586 103.192 30.0781L102.32 32.2334ZM101.442 31.8661L101.144 31.7412L101.996 29.6407C102.004 29.6211 102.015 29.6031 102.03 29.588C102.045 29.5729 102.063 29.5609 102.082 29.5527C102.102 29.5445 102.122 29.5404 102.144 29.5404C102.165 29.5405 102.186 29.5448 102.205 29.5531L102.208 29.5544C102.247 29.5711 102.278 29.6021 102.294 29.6409C102.31 29.6797 102.311 29.7233 102.296 29.7626L101.442 31.8661ZM100.665 31.5269C100.567 31.4762 100.476 31.4121 100.395 31.3364L101.272 29.1765C101.288 29.1368 101.319 29.105 101.358 29.088C101.398 29.071 101.442 29.0703 101.482 29.0859C101.502 29.0935 101.521 29.1051 101.537 29.12C101.552 29.135 101.565 29.153 101.573 29.1729C101.581 29.1928 101.586 29.2142 101.585 29.2358C101.585 29.2574 101.581 29.2787 101.572 29.2984L100.665 31.5269Z" fill="#040020"/>
<path d="M131.819 22.6468L131.361 23.7361C131.253 23.9935 131.08 24.2186 130.859 24.3892C130.637 24.5598 130.375 24.6701 130.098 24.7093C129.982 24.7271 129.864 24.7305 129.747 24.7194C129.573 24.7073 129.403 24.6668 129.242 24.5995L127.655 23.9349C127.599 23.912 127.545 23.8847 127.493 23.853C127.394 23.8023 127.303 23.7382 127.222 23.6626C126.964 23.4412 126.782 23.1436 126.705 22.8128C126.627 22.482 126.656 22.1351 126.789 21.8222L127.248 20.7329C127.347 20.4963 127.537 20.3088 127.776 20.2117C128.014 20.1145 128.281 20.1157 128.519 20.2149L131.3 21.3792C131.537 21.4788 131.725 21.6682 131.823 21.9058C131.92 22.1435 131.919 22.41 131.819 22.6468Z" fill="#493E8C"/>
<path d="M130.098 24.7093C129.982 24.7271 129.863 24.7305 129.746 24.7195L130.596 22.625C130.613 22.5858 130.644 22.5548 130.684 22.5386C130.723 22.5224 130.767 22.5223 130.807 22.5383C130.846 22.5544 130.877 22.5853 130.894 22.6244C130.911 22.6634 130.912 22.7075 130.896 22.747L130.098 24.7093ZM129.147 24.5596L128.848 24.4346L129.719 22.2824C129.736 22.243 129.767 22.2118 129.807 22.1956C129.847 22.1794 129.891 22.1796 129.931 22.196C129.95 22.2039 129.968 22.2155 129.983 22.2302C129.998 22.245 130.01 22.2625 130.018 22.2819C130.026 22.3012 130.031 22.322 130.031 22.343C130.031 22.364 130.027 22.3848 130.019 22.4042L129.147 24.5596ZM128.269 24.1923L127.971 24.0674L128.823 21.9669C128.831 21.9472 128.843 21.9293 128.857 21.9142C128.872 21.8991 128.89 21.8871 128.909 21.8789C128.929 21.8707 128.95 21.8665 128.971 21.8666C128.992 21.8667 129.013 21.871 129.032 21.8793L129.035 21.8806C129.074 21.8973 129.105 21.9283 129.121 21.9671C129.137 22.0059 129.138 22.0495 129.123 22.0888L128.269 24.1923ZM127.493 23.8531C127.394 23.8024 127.303 23.7383 127.222 23.6626L128.099 21.5027C128.115 21.463 128.146 21.4312 128.186 21.4142C128.225 21.3972 128.269 21.3964 128.309 21.4121C128.33 21.4196 128.348 21.4313 128.364 21.4462C128.379 21.4612 128.392 21.4792 128.4 21.4991C128.408 21.519 128.413 21.5404 128.412 21.562C128.412 21.5835 128.408 21.6049 128.399 21.6246L127.493 23.8531Z" fill="#040020"/>
<path d="M91.7017 27.5377L92.1279 28.64C92.229 28.9001 92.2605 29.182 92.2194 29.458C92.1783 29.7339 92.066 29.9945 91.8935 30.2141C91.8219 30.3074 91.7391 30.3915 91.6469 30.4645C91.5134 30.5756 91.3624 30.6641 91.2001 30.7263L89.5936 31.344C89.5372 31.3663 89.4791 31.384 89.4198 31.3969C89.3134 31.4286 89.2032 31.4453 89.0922 31.4467C88.752 31.4656 88.4147 31.3762 88.1288 31.1915C87.8429 31.0067 87.6233 30.7361 87.5016 30.4187L87.0755 29.3164C86.9831 29.0768 86.9898 28.8104 87.0942 28.5757C87.1985 28.341 87.392 28.1572 87.6322 28.0646L90.4466 26.9826C90.6869 26.8904 90.954 26.8971 91.1893 27.0012C91.4246 27.1053 91.6089 27.2982 91.7017 27.5377Z" fill="#5A4BB8"/>
<path d="M91.8938 30.2141C91.8222 30.3073 91.7394 30.3914 91.6472 30.4645L90.8051 28.3668C90.7898 28.3271 90.7908 28.283 90.8079 28.2441C90.825 28.2051 90.8568 28.1745 90.8964 28.1588C90.9361 28.1432 90.9803 28.1437 91.0195 28.1604C91.0587 28.177 91.0898 28.2084 91.1059 28.2478L91.8938 30.2141ZM91.1037 30.7634L90.8018 30.8795L89.9345 28.7258C89.9192 28.6859 89.9204 28.6415 89.9378 28.6024C89.9551 28.5633 89.9873 28.5327 90.0273 28.5172C90.0468 28.5094 90.0677 28.5055 90.0888 28.5057C90.1099 28.506 90.1306 28.5104 90.15 28.5187C90.1693 28.527 90.1868 28.5391 90.2015 28.5542C90.2161 28.5693 90.2276 28.5871 90.2353 28.6066L91.1037 30.7634ZM90.2159 31.1048L89.914 31.2209L89.0695 29.1172C89.0614 29.0977 89.0572 29.0768 89.0574 29.0557C89.0575 29.0347 89.0619 29.0138 89.0703 28.9945C89.0786 28.9751 89.0908 28.9576 89.1061 28.9431C89.1214 28.9285 89.1395 28.9172 89.1593 28.9097L89.1623 28.9086C89.2018 28.8939 89.2455 28.8949 89.2843 28.9116C89.3231 28.9283 89.3539 28.9592 89.3703 28.998L90.2159 31.1048ZM89.4201 31.3969C89.3137 31.4285 89.2035 31.4453 89.0925 31.4467L88.2248 29.2829C88.2087 29.2432 88.2089 29.1988 88.2255 29.1594C88.2421 29.1199 88.2737 29.0886 88.3133 29.0723C88.3332 29.0638 88.3546 29.0594 88.3763 29.0594C88.3979 29.0594 88.4193 29.0638 88.4392 29.0723C88.4591 29.0809 88.477 29.0934 88.4918 29.1091C88.5067 29.1248 88.5182 29.1434 88.5255 29.1637L89.4201 31.3969Z" fill="#040020"/>
<path d="M0 118.823H153" stroke="#020202" stroke-miterlimit="10"/>
</g>
<defs>
<clipPath id="clip0_1292_2534">
<rect width="153" height="119" fill="white"/>
</clipPath>
</defs>
</svg>
