<svg width="202" height="171" viewBox="0 0 202 171" fill="none" xmlns="http://www.w3.org/2000/svg">
<path d="M117.004 143.193C117.597 143.69 116.934 144.706 112.417 145.376C107.901 146.047 101.937 146.068 96.2867 145.515C90.6365 144.962 90.147 143.777 90.8023 143.119C91.9235 141.993 115.435 141.877 117.004 143.193Z" fill="#6A5CC6"/>
<path d="M91.9268 140.23L91.9748 142.939C92.0051 143.333 92.3275 143.708 92.8894 144.05C93.1886 144.233 93.5573 144.406 93.9847 144.569C94.4558 144.748 94.9999 144.913 95.6064 145.062C95.9439 145.145 96.301 145.223 96.675 145.295C98.74 145.694 101.331 145.924 104.127 145.906C110.709 145.865 115.94 144.47 115.811 142.79L115.763 140.081C115.763 140.081 107.954 140.809 103.738 140.836C100.865 140.854 96.4266 140.566 93.8877 140.381C93.6036 140.36 93.3436 140.341 93.1121 140.324C92.3738 140.267 91.9268 140.23 91.9268 140.23Z" fill="#5A41F7"/>
<path d="M91.9262 140.2C92.0553 141.88 97.4963 143.209 104.079 143.168C104.496 143.165 104.91 143.157 105.316 143.143C106.628 143.101 107.872 143.004 109.015 142.861C113.085 142.356 115.857 141.279 115.763 140.05C115.634 138.37 110.193 137.042 103.61 137.083C101.627 137.095 99.7652 137.23 98.1373 137.46C98.051 137.472 97.9646 137.484 97.8791 137.497C97.351 137.575 96.8488 137.664 96.3768 137.762C95.9315 137.854 95.5121 137.954 95.1229 138.062C93.0856 138.622 91.863 139.376 91.9262 140.2Z" fill="#7B66FF"/>
<path d="M103.642 137.488C109.43 137.452 114.23 138.606 114.342 140.059C114.453 141.513 109.835 142.726 104.047 142.762C98.2594 142.798 93.4594 141.645 93.3477 140.191C93.2359 138.737 97.8541 137.525 103.642 137.488ZM103.657 137.676C98.23 137.71 93.8998 138.836 94.0036 140.187C94.1074 141.538 98.6066 142.609 104.033 142.575C109.459 142.541 113.79 141.414 113.686 140.064C113.582 138.713 109.083 137.642 103.657 137.676Z" fill="#654DFF"/>
<path d="M104.596 143.285C108.708 143.285 111.569 142.655 111.6 142.648C111.733 142.619 111.811 142.505 111.776 142.394C111.74 142.283 111.604 142.217 111.471 142.247C111.439 142.254 108.163 142.975 103.586 142.857C103.448 142.854 103.335 142.944 103.33 143.058C103.326 143.173 103.434 143.269 103.571 143.272C103.92 143.281 104.262 143.285 104.596 143.285Z" fill="white"/>
<path d="M90.3496 136.659L90.3977 139.368C90.428 139.762 90.7503 140.137 91.3123 140.479C91.6115 140.662 91.9801 140.836 92.4076 140.999C92.8787 141.177 93.4228 141.342 94.0292 141.491C94.3667 141.574 94.7238 141.652 95.0978 141.725C97.1629 142.123 99.7534 142.353 102.55 142.335C109.132 142.295 114.363 140.899 114.234 139.219L114.186 136.51C114.186 136.51 106.377 137.239 102.16 137.265C99.2876 137.283 94.8494 136.995 92.3106 136.81C92.0265 136.789 91.7665 136.77 91.5349 136.753C90.7966 136.696 90.3496 136.659 90.3496 136.659Z" fill="#5A41F7"/>
<path d="M90.349 136.629C90.4781 138.309 95.9191 139.638 102.502 139.597C102.919 139.595 103.333 139.587 103.739 139.573C105.051 139.53 106.295 139.433 107.438 139.291C111.508 138.785 114.28 137.709 114.186 136.48C114.057 134.8 108.616 133.471 102.033 133.512C100.05 133.524 98.1881 133.659 96.5602 133.889C96.4738 133.901 96.3874 133.914 96.3019 133.927C95.7739 134.005 95.2716 134.093 94.7997 134.191C94.3544 134.284 93.935 134.383 93.5458 134.491C91.5084 135.051 90.2858 135.806 90.349 136.629Z" fill="#7B66FF"/>
<path d="M102.064 133.918C107.852 133.882 112.652 135.035 112.764 136.489C112.875 137.943 108.257 139.155 102.469 139.191C96.6813 139.228 91.8813 138.074 91.7696 136.62C91.6578 135.166 96.2759 133.954 102.064 133.918ZM102.078 134.105C96.6519 134.139 92.3217 135.266 92.4255 136.616C92.5293 137.967 97.0285 139.038 102.455 139.004C107.881 138.97 112.211 137.844 112.108 136.493C112.004 135.142 107.505 134.071 102.078 134.105Z" fill="#654DFF"/>
<path d="M103.443 139.773C107.515 139.773 110.344 139.155 110.375 139.148C110.507 139.119 110.586 139.005 110.551 138.894C110.516 138.784 110.379 138.718 110.247 138.747C110.214 138.754 106.935 139.468 102.36 139.342C102.225 139.337 102.108 139.429 102.104 139.543C102.099 139.658 102.207 139.754 102.344 139.757C102.719 139.768 103.086 139.773 103.443 139.773Z" fill="white"/>
<path d="M92.9541 132.93L93.0022 135.639C93.0325 136.033 93.3548 136.408 93.9168 136.75C94.216 136.933 94.5846 137.107 95.0121 137.27C95.4832 137.448 96.0273 137.613 96.6337 137.762C96.9712 137.845 97.3283 137.923 97.7023 137.996C99.7674 138.394 102.358 138.624 105.154 138.607C111.737 138.566 116.967 137.17 116.838 135.49L116.79 132.781C116.79 132.781 108.981 133.51 104.765 133.536C101.892 133.554 97.4539 133.266 94.9151 133.081C94.631 133.06 94.3709 133.041 94.1394 133.024C93.4011 132.967 92.9541 132.93 92.9541 132.93Z" fill="#5A41F7"/>
<path d="M92.9535 132.9C93.0826 134.58 98.5236 135.909 105.106 135.868C105.524 135.866 105.937 135.857 106.343 135.843C107.656 135.801 108.9 135.704 110.042 135.561C114.113 135.056 116.885 133.98 116.79 132.751C116.661 131.071 111.22 129.742 104.638 129.783C102.655 129.795 100.793 129.93 99.1648 130.16C99.0784 130.172 98.992 130.185 98.9065 130.197C98.3785 130.275 97.8762 130.364 97.4042 130.462C96.959 130.554 96.5395 130.654 96.1504 130.762C94.1129 131.322 92.8903 132.077 92.9535 132.9Z" fill="#7B66FF"/>
<path d="M104.669 130.189C110.456 130.152 115.256 131.306 115.368 132.76C115.48 134.214 110.862 135.426 105.074 135.462C99.2858 135.498 94.4858 134.345 94.3741 132.891C94.2623 131.437 98.8804 130.225 104.669 130.189ZM104.683 130.376C99.2565 130.41 94.9262 131.536 95.03 132.887C95.1338 134.238 99.633 135.309 105.06 135.275C110.486 135.241 114.816 134.115 114.712 132.764C114.608 131.413 110.109 130.342 104.683 130.376Z" fill="#654DFF"/>
<path d="M105.622 135.986C109.734 135.986 112.596 135.355 112.626 135.348C112.759 135.319 112.838 135.205 112.802 135.094C112.767 134.983 112.631 134.917 112.498 134.947C112.465 134.955 109.189 135.676 104.613 135.557C104.475 135.554 104.361 135.644 104.357 135.759C104.352 135.873 104.46 135.969 104.597 135.972C104.946 135.981 105.289 135.986 105.622 135.986Z" fill="white"/>
<path d="M92.9775 128.914L93.0256 131.622C93.0559 132.017 93.3782 132.392 93.9402 132.734C94.2394 132.917 94.608 133.09 95.0355 133.253C95.5066 133.432 96.0507 133.597 96.6571 133.746C96.9947 133.829 97.3518 133.906 97.7258 133.979C99.7908 134.378 102.381 134.608 105.177 134.59C111.76 134.549 116.991 133.154 116.862 131.474L116.814 128.765C116.814 128.765 109.005 129.493 104.788 129.52C101.916 129.538 97.4773 129.25 94.9385 129.065C94.6544 129.044 94.3944 129.025 94.1629 129.007C93.4246 128.951 92.9775 128.914 92.9775 128.914Z" fill="#5A41F7"/>
<path d="M92.9769 128.884C93.106 130.564 98.5471 131.893 105.13 131.852C105.547 131.849 105.96 131.841 106.366 131.827C107.679 131.785 108.923 131.688 110.066 131.545C114.136 131.04 116.908 129.963 116.814 128.734C116.685 127.055 111.244 125.726 104.661 125.767C102.678 125.779 100.816 125.914 99.1882 126.144C99.1018 126.156 99.0154 126.169 98.9299 126.181C98.4019 126.259 97.8996 126.348 97.4276 126.446C96.9824 126.538 96.563 126.638 96.1739 126.746C94.1364 127.306 92.9138 128.06 92.9769 128.884Z" fill="#7B66FF"/>
<path d="M104.693 126.172C110.481 126.136 115.281 127.29 115.393 128.744C115.504 130.198 110.886 131.41 105.098 131.446C99.3102 131.482 94.5102 130.329 94.3985 128.875C94.2867 127.421 98.9048 126.209 104.693 126.172ZM104.707 126.36C99.2808 126.394 94.9506 127.52 95.0544 128.871C95.1582 130.222 99.6574 131.293 105.084 131.259C110.51 131.225 114.84 130.098 114.737 128.748C114.633 127.397 110.134 126.326 104.707 126.36Z" fill="#654DFF"/>
<path d="M106.072 132.027C110.144 132.027 112.973 131.41 113.004 131.403C113.136 131.374 113.215 131.26 113.18 131.149C113.145 131.038 113.008 130.972 112.876 131.002C112.843 131.009 109.564 131.723 104.989 131.597C104.853 131.592 104.737 131.683 104.733 131.798C104.728 131.912 104.836 132.008 104.973 132.012C105.348 132.022 105.715 132.027 106.072 132.027Z" fill="white"/>
<path d="M93.8242 125.087L93.8723 127.796C93.9026 128.19 94.2249 128.565 94.7869 128.907C95.0861 129.09 95.4547 129.263 95.8822 129.426C96.3533 129.605 96.8974 129.77 97.5038 129.919C97.8413 130.002 98.1984 130.08 98.5724 130.152C100.637 130.551 103.228 130.781 106.024 130.763C112.607 130.722 117.837 129.327 117.708 127.647L117.66 124.938C117.66 124.938 109.852 125.666 105.635 125.693C102.762 125.711 98.324 125.423 95.7852 125.238C95.5011 125.217 95.2411 125.198 95.0095 125.181C94.2712 125.124 93.8242 125.087 93.8242 125.087Z" fill="#5A41F7"/>
<path d="M93.8236 125.057C93.9527 126.737 99.3937 128.066 105.976 128.025C106.394 128.023 106.807 128.014 107.213 128C108.526 127.958 109.77 127.861 110.912 127.718C114.983 127.213 117.755 126.137 117.661 124.908C117.531 123.228 112.09 121.899 105.508 121.94C103.525 121.952 101.663 122.087 100.035 122.317C99.9484 122.329 99.8621 122.342 99.7766 122.354C99.2484 122.432 98.7462 122.521 98.2743 122.619C97.829 122.711 97.4096 122.811 97.0204 122.919C94.9831 123.479 93.7604 124.234 93.8236 125.057Z" fill="#7B66FF"/>
<path d="M105.54 122.346C111.328 122.309 116.127 123.463 116.239 124.917C116.351 126.371 111.733 127.583 105.945 127.619C100.157 127.655 95.3569 126.502 95.2451 125.048C95.1334 123.594 99.7515 122.382 105.54 122.346ZM105.554 122.533C100.127 122.567 95.7973 123.693 95.9011 125.044C96.0049 126.395 100.504 127.466 105.93 127.432C111.357 127.398 115.687 126.271 115.583 124.921C115.479 123.57 110.98 122.499 105.554 122.533Z" fill="#654DFF"/>
<path d="M106.493 128.143C110.605 128.143 113.467 127.512 113.498 127.505C113.63 127.476 113.709 127.362 113.673 127.251C113.638 127.14 113.502 127.074 113.369 127.104C113.336 127.112 110.06 127.833 105.484 127.714C105.346 127.711 105.232 127.801 105.228 127.916C105.223 128.03 105.331 128.126 105.468 128.129C105.817 128.138 106.16 128.143 106.493 128.143Z" fill="white"/>
<path d="M92.5693 121.223L92.6174 123.931C92.6477 124.326 92.97 124.701 93.532 125.043C93.8312 125.226 94.1998 125.399 94.6273 125.562C95.0984 125.741 95.6424 125.906 96.2489 126.055C96.5865 126.138 96.9436 126.215 97.3176 126.288C99.3826 126.687 101.973 126.917 104.769 126.899C111.352 126.858 116.583 125.462 116.454 123.783L116.405 121.074C116.405 121.074 108.597 121.802 104.38 121.829C101.507 121.847 97.0691 121.559 94.5303 121.374C94.2462 121.353 93.9862 121.333 93.7546 121.316C93.0164 121.26 92.5693 121.223 92.5693 121.223Z" fill="#5A41F7"/>
<path d="M92.5687 121.193C92.6978 122.873 98.1389 124.201 104.721 124.161C105.139 124.158 105.552 124.15 105.958 124.136C107.271 124.094 108.515 123.997 109.657 123.854C113.728 123.349 116.5 122.272 116.406 121.043C116.276 119.363 110.836 118.035 104.253 118.076C102.27 118.088 100.408 118.223 98.7799 118.453C98.6935 118.465 98.6072 118.477 98.5217 118.49C97.9936 118.568 97.4913 118.657 97.0194 118.755C96.5741 118.847 96.1547 118.947 95.7655 119.055C93.7282 119.615 92.5056 120.369 92.5687 121.193Z" fill="#7B66FF"/>
<path d="M104.285 118.481C110.073 118.445 114.873 119.598 114.984 121.052C115.096 122.506 110.478 123.719 104.69 123.755C98.902 123.791 94.102 122.638 93.9903 121.184C93.8785 119.73 98.4966 118.518 104.285 118.481ZM104.299 118.669C98.8726 118.702 94.5424 119.829 94.6462 121.18C94.75 122.53 99.2492 123.602 104.676 123.568C110.102 123.534 114.432 122.407 114.328 121.057C114.225 119.706 109.725 118.635 104.299 118.669Z" fill="#654DFF"/>
<path d="M104.724 124.377C108.836 124.377 111.698 123.746 111.729 123.739C111.862 123.71 111.94 123.596 111.905 123.485C111.869 123.374 111.733 123.308 111.6 123.338C111.568 123.346 108.291 124.066 103.715 123.948C103.577 123.946 103.463 124.035 103.459 124.15C103.455 124.264 103.563 124.36 103.7 124.363C104.049 124.372 104.391 124.377 104.724 124.377Z" fill="white"/>
<path d="M90.8848 117.255L90.9328 119.964C90.9631 120.358 91.2855 120.733 91.8474 121.075C92.1466 121.258 92.5153 121.432 92.9428 121.595C93.4138 121.773 93.9579 121.938 94.5644 122.087C94.9019 122.171 95.259 122.248 95.633 122.321C97.698 122.72 100.289 122.95 103.085 122.932C109.667 122.891 114.898 121.495 114.769 119.815L114.721 117.106C114.721 117.106 106.912 117.835 102.696 117.862C99.8228 117.879 95.3846 117.592 92.8457 117.406C92.5616 117.385 92.3016 117.366 92.0701 117.349C91.3318 117.292 90.8848 117.255 90.8848 117.255Z" fill="#5A41F7"/>
<path d="M90.8842 117.225C91.0133 118.905 96.4543 120.234 103.037 120.193C103.454 120.191 103.868 120.183 104.274 120.168C105.586 120.126 106.83 120.029 107.973 119.886C112.043 119.381 114.815 118.305 114.721 117.076C114.592 115.396 109.151 114.067 102.568 114.108C100.585 114.12 98.7233 114.255 97.0954 114.485C97.009 114.497 96.9227 114.51 96.8372 114.522C96.3091 114.601 95.8069 114.689 95.3349 114.787C94.8896 114.88 94.4702 114.979 94.0811 115.087C92.0436 115.647 90.8209 116.402 90.8842 117.225Z" fill="#7B66FF"/>
<path d="M102.6 114.514C108.388 114.478 113.188 115.631 113.3 117.085C113.411 118.539 108.793 119.751 103.005 119.787C97.2174 119.824 92.4174 118.67 92.3057 117.216C92.194 115.762 96.8121 114.55 102.6 114.514ZM102.615 114.701C97.1881 114.735 92.8579 115.862 92.9617 117.212C93.0655 118.563 97.5647 119.634 102.991 119.6C108.417 119.566 112.748 118.44 112.644 117.089C112.54 115.738 108.041 114.667 102.615 114.701Z" fill="#654DFF"/>
<path d="M102.982 120.542C107.094 120.542 109.956 119.912 109.987 119.905C110.12 119.875 110.198 119.761 110.162 119.651C110.127 119.54 109.991 119.474 109.858 119.504C109.826 119.511 106.549 120.231 101.973 120.114C101.835 120.112 101.721 120.2 101.717 120.315C101.713 120.43 101.821 120.525 101.958 120.529C102.307 120.538 102.649 120.542 102.982 120.542Z" fill="white"/>
<path d="M88.8555 113.435L88.9035 116.144C88.9338 116.538 89.2562 116.913 89.8181 117.255C90.1173 117.438 90.486 117.612 90.9135 117.775C91.3845 117.953 91.9287 118.118 92.5351 118.267C92.8726 118.35 93.2297 118.428 93.6037 118.501C95.6688 118.9 98.2592 119.129 101.055 119.112C107.638 119.071 112.869 117.675 112.74 115.995L112.692 113.286C112.692 113.286 104.883 114.015 100.666 114.042C97.7935 114.059 93.3553 113.771 90.8164 113.586C90.5323 113.565 90.2723 113.546 90.0408 113.529C89.3025 113.472 88.8555 113.435 88.8555 113.435Z" fill="#5A41F7"/>
<path d="M88.8549 113.405C88.984 115.085 94.425 116.414 101.008 116.373C101.425 116.371 101.838 116.363 102.244 116.349C103.557 116.306 104.801 116.21 105.944 116.067C110.014 115.561 112.786 114.485 112.692 113.256C112.563 111.576 107.122 110.247 100.539 110.288C98.5559 110.3 96.6939 110.436 95.0661 110.665C94.9797 110.677 94.8933 110.69 94.8078 110.703C94.2797 110.781 93.7775 110.869 93.3055 110.968C92.8603 111.06 92.4408 111.16 92.0517 111.267C90.0143 111.828 88.7916 112.582 88.8549 113.405Z" fill="#7B66FF"/>
<path d="M100.571 110.694C106.359 110.658 111.159 111.811 111.27 113.265C111.382 114.719 106.764 115.931 100.976 115.968C95.1881 116.004 90.3881 114.85 90.2764 113.397C90.1647 111.943 94.7828 110.73 100.571 110.694ZM100.585 110.881C95.1588 110.915 90.8286 112.042 90.9324 113.392C91.0362 114.743 95.5354 115.814 100.962 115.78C106.388 115.746 110.718 114.62 110.615 113.269C110.511 111.918 106.012 110.847 100.585 110.881Z" fill="#654DFF"/>
<path d="M100.953 116.722C105.065 116.722 107.927 116.092 107.958 116.085C108.09 116.055 108.169 115.941 108.133 115.831C108.098 115.72 107.962 115.654 107.829 115.684C107.796 115.691 104.52 116.411 99.9437 116.294C99.8055 116.292 99.692 116.381 99.6876 116.495C99.6834 116.61 99.7912 116.706 99.9285 116.709C100.277 116.718 100.619 116.722 100.953 116.722Z" fill="white"/>
<path d="M90.3252 109.935L90.3733 112.644C90.4036 113.038 90.7259 113.413 91.2878 113.755C91.5871 113.938 91.9557 114.111 92.3832 114.274C92.8543 114.453 93.3984 114.618 94.0048 114.767C94.3423 114.85 94.6994 114.928 95.0734 115.001C97.1385 115.399 99.729 115.629 102.525 115.611C109.108 115.57 114.339 114.175 114.209 112.495L114.161 109.786C114.161 109.786 106.353 110.514 102.136 110.541C99.2633 110.559 94.8251 110.271 92.2862 110.086C92.0021 110.065 91.7421 110.046 91.5106 110.029C90.7722 109.972 90.3252 109.935 90.3252 109.935Z" fill="#5A41F7"/>
<path d="M90.3246 109.905C90.4537 111.585 95.8947 112.914 102.477 112.873C102.895 112.871 103.308 112.863 103.714 112.848C105.027 112.806 106.271 112.709 107.413 112.566C111.484 112.061 114.256 110.985 114.162 109.756C114.032 108.076 108.591 106.747 102.009 106.788C100.026 106.8 98.1636 106.935 96.5358 107.165C96.4494 107.177 96.363 107.19 96.2775 107.202C95.7494 107.281 95.2472 107.369 94.7752 107.467C94.33 107.56 93.9106 107.659 93.5215 107.767C91.484 108.327 90.2614 109.082 90.3246 109.905Z" fill="#7B66FF"/>
<path d="M102.041 107.194C107.829 107.157 112.628 108.311 112.74 109.765C112.852 111.219 108.234 112.431 102.446 112.467C96.6578 112.504 91.8579 111.35 91.7461 109.896C91.6344 108.442 96.2525 107.23 102.041 107.194ZM102.055 107.381C96.6285 107.415 92.2982 108.541 92.402 109.892C92.5058 111.243 97.005 112.314 102.431 112.28C107.858 112.246 112.188 111.12 112.084 109.769C111.98 108.418 107.481 107.347 102.055 107.381Z" fill="#654DFF"/>
<path d="M102.423 113.222C106.535 113.222 109.397 112.592 109.427 112.585C109.56 112.555 109.638 112.441 109.603 112.33C109.567 112.22 109.432 112.154 109.299 112.184C109.266 112.191 105.989 112.911 101.413 112.794C101.275 112.792 101.162 112.88 101.157 112.995C101.153 113.11 101.261 113.205 101.398 113.209C101.747 113.218 102.089 113.222 102.423 113.222Z" fill="white"/>
<path d="M87.9756 105.928L88.0237 108.637C88.054 109.031 88.3763 109.406 88.9382 109.748C89.2374 109.931 89.6061 110.105 90.0336 110.268C90.5047 110.446 91.0488 110.611 91.6552 110.76C91.9927 110.843 92.3498 110.921 92.7238 110.994C94.7889 111.393 97.3793 111.622 100.176 111.605C106.758 111.564 111.989 110.168 111.86 108.488L111.812 105.779C111.812 105.779 104.003 106.508 99.7864 106.534C96.9137 106.552 92.4754 106.264 89.9366 106.079C89.6525 106.058 89.3925 106.039 89.161 106.022C88.4227 105.965 87.9756 105.928 87.9756 105.928Z" fill="#5A41F7"/>
<path d="M87.975 105.898C88.1041 107.578 93.5451 108.907 100.128 108.866C100.545 108.864 100.958 108.856 101.365 108.842C102.677 108.799 103.921 108.702 105.064 108.56C109.134 108.054 111.906 106.978 111.812 105.749C111.683 104.069 106.242 102.74 99.6592 102.781C97.6761 102.793 95.814 102.928 94.1862 103.158C94.0998 103.17 94.0134 103.183 93.9279 103.196C93.3999 103.274 92.8976 103.362 92.4256 103.46C91.9804 103.553 91.561 103.652 91.1718 103.76C89.1345 104.32 87.9118 105.075 87.975 105.898Z" fill="#7B66FF"/>
<path d="M99.691 103.187C105.479 103.151 110.279 104.304 110.391 105.758C110.502 107.212 105.884 108.424 100.096 108.46C94.3082 108.497 89.5083 107.343 89.3965 105.889C89.2848 104.435 93.9029 103.223 99.691 103.187ZM99.7054 103.374C94.2788 103.408 89.9486 104.535 90.0524 105.885C90.1562 107.236 94.6554 108.307 100.082 108.273C105.508 108.239 109.838 107.113 109.735 105.762C109.631 104.411 105.132 103.34 99.7054 103.374Z" fill="#654DFF"/>
<path d="M100.073 109.215C104.185 109.215 107.047 108.585 107.078 108.578C107.21 108.548 107.289 108.434 107.253 108.324C107.218 108.213 107.082 108.147 106.949 108.177C106.916 108.184 103.64 108.904 99.0638 108.787C98.9256 108.785 98.812 108.874 98.8077 108.988C98.8035 109.103 98.9114 109.198 99.0486 109.202C99.3976 109.211 99.7396 109.215 100.073 109.215Z" fill="white"/>
<path d="M88.1992 102.492L88.2473 105.201C88.2776 105.595 88.5999 105.97 89.1619 106.312C89.4611 106.495 89.8297 106.669 90.2572 106.832C90.7283 107.01 91.2724 107.175 91.8788 107.324C92.2163 107.407 92.5734 107.485 92.9474 107.558C95.0125 107.956 97.603 108.186 100.399 108.169C106.982 108.128 112.212 106.732 112.083 105.052L112.035 102.343C112.035 102.343 104.227 103.072 100.01 103.098C97.1372 103.116 92.699 102.828 90.1602 102.643C89.8761 102.622 89.6161 102.603 89.3845 102.586C88.6462 102.529 88.1992 102.492 88.1992 102.492Z" fill="#5A41F7"/>
<path d="M88.1986 102.462C88.3277 104.142 93.7687 105.471 100.351 105.43C100.769 105.428 101.182 105.42 101.588 105.406C102.901 105.363 104.145 105.266 105.287 105.124C109.358 104.618 112.13 103.542 112.036 102.313C111.906 100.633 106.465 99.3043 99.8828 99.3452C97.8997 99.3571 96.0377 99.4924 94.4098 99.7224C94.3234 99.7342 94.2371 99.7469 94.1516 99.7595C93.6234 99.8376 93.1212 99.9262 92.6493 100.024C92.204 100.117 91.7846 100.216 91.3954 100.324C89.3581 100.884 88.1354 101.639 88.1986 102.462Z" fill="#7B66FF"/>
<path d="M91.3955 100.324C94.7777 102.04 98.1847 103.723 101.588 105.406C102.901 105.363 104.145 105.266 105.287 105.124C101.662 103.328 98.0253 101.541 94.4098 99.7224C94.3235 99.7343 94.2371 99.747 94.1516 99.7596C93.6235 99.8377 93.1213 99.9263 92.6493 100.024C92.2041 100.117 91.7847 100.216 91.3955 100.324Z" fill="white"/>
<path d="M99.9146 99.7508C105.703 99.7146 110.502 100.868 110.614 102.322C110.726 103.776 106.108 104.988 100.32 105.024C94.5318 105.061 89.7319 103.907 89.6201 102.453C89.5084 100.999 94.1265 99.7871 99.9146 99.7508ZM99.929 99.9381C94.5025 99.972 90.1723 101.099 90.2761 102.449C90.3799 103.8 94.8791 104.871 100.305 104.837C105.732 104.803 110.062 103.677 109.958 102.326C109.854 100.975 105.355 99.9041 99.929 99.9381Z" fill="#654DFF"/>
<path d="M99.7926 104.33V103.838C98.6412 103.757 98.0264 103.407 98.0264 103.033C98.0264 102.612 98.6077 102.366 99.7591 102.168C100.732 101.997 101.145 101.874 101.145 101.628C101.145 101.439 100.821 101.221 99.9603 101.221C99.2448 101.221 98.7865 101.326 98.5518 101.382L98.2722 101.07C98.5965 100.99 99.0548 100.914 99.7255 100.904V100.446H100.419V100.923C101.447 100.994 102.107 101.292 102.107 101.685C102.107 102.097 101.402 102.314 100.262 102.503C99.4349 102.645 98.9988 102.806 98.9988 103.066C98.9988 103.336 99.5354 103.53 100.329 103.53C100.955 103.53 101.536 103.44 101.939 103.327L102.207 103.644C101.816 103.762 101.145 103.847 100.497 103.852V104.33H99.7926V104.33Z" fill="#644FE8"/>
<path d="M85.6008 142.833C86.1933 143.329 85.5305 144.345 81.0141 145.016C76.4977 145.686 70.5336 145.707 64.8834 145.154C59.2332 144.601 58.7437 143.416 59.399 142.758C60.5202 141.632 84.0313 141.516 85.6008 142.833Z" fill="#6A5CC6"/>
<path d="M60.5225 139.869L60.5705 142.578C60.6008 142.972 60.9232 143.347 61.4851 143.689C61.7843 143.872 62.153 144.046 62.5804 144.209C63.0515 144.387 63.5956 144.552 64.2021 144.701C64.5396 144.784 64.8967 144.862 65.2707 144.935C67.3357 145.333 69.9262 145.563 72.7224 145.545C79.305 145.505 84.5357 144.109 84.4066 142.429L84.3586 139.72C84.3586 139.72 76.5498 140.449 72.3332 140.475C69.4605 140.493 65.0223 140.205 62.4834 140.02C62.1993 139.999 61.9393 139.98 61.7078 139.963C60.9695 139.906 60.5225 139.869 60.5225 139.869Z" fill="#5A41F7"/>
<path d="M60.5219 139.839C60.651 141.519 66.092 142.848 72.6745 142.807C73.0922 142.805 73.5054 142.796 73.9114 142.782C75.224 142.74 76.468 142.643 77.6105 142.5C81.681 141.995 84.4532 140.919 84.3588 139.69C84.2297 138.01 78.7887 136.681 72.2061 136.722C70.2229 136.734 68.3609 136.869 66.733 137.099C66.6467 137.111 66.5603 137.124 66.4748 137.136C65.9468 137.214 65.4445 137.303 64.9725 137.401C64.5273 137.493 64.1078 137.593 63.7187 137.701C61.6813 138.261 60.4586 139.016 60.5219 139.839Z" fill="#7B66FF"/>
<path d="M72.2379 137.128C78.0258 137.091 82.8257 138.245 82.9375 139.699C83.0492 141.153 78.4311 142.365 72.6432 142.401C66.8551 142.437 62.0551 141.284 61.9434 139.83C61.8316 138.376 66.4498 137.164 72.2379 137.128ZM72.2522 137.315C66.8257 137.349 62.4955 138.475 62.5993 139.826C62.7031 141.177 67.2023 142.248 72.6287 142.214C78.0551 142.18 82.3853 141.053 82.2815 139.703C82.1777 138.352 77.6786 137.281 72.2522 137.315Z" fill="#654DFF"/>
<path d="M73.1918 142.925C77.3037 142.925 80.1652 142.294 80.1959 142.287C80.3285 142.258 80.407 142.144 80.3716 142.033C80.336 141.922 80.2001 141.856 80.0671 141.886C80.0346 141.894 76.7584 142.615 72.182 142.496C72.0439 142.493 71.9302 142.583 71.9259 142.698C71.9217 142.812 72.0296 142.908 72.1667 142.911C72.5158 142.92 72.8582 142.925 73.1918 142.925Z" fill="white"/>
<path d="M58.9453 136.298L58.9934 139.007C59.0237 139.402 59.346 139.776 59.908 140.119C60.2072 140.302 60.5758 140.475 61.0033 140.638C61.4744 140.817 62.0185 140.982 62.6249 141.13C62.9624 141.214 63.3195 141.291 63.6935 141.364C65.7586 141.763 68.3491 141.993 71.1452 141.975C77.7278 141.934 82.9586 140.538 82.8295 138.858L82.7814 136.15C82.7814 136.15 74.9726 136.878 70.7561 136.905C67.8833 136.923 63.4451 136.635 60.9063 136.45C60.6222 136.429 60.3622 136.409 60.1306 136.392C59.3923 136.336 58.9453 136.298 58.9453 136.298Z" fill="#5A41F7"/>
<path d="M58.9447 136.269C59.0738 137.948 64.5148 139.277 71.0974 139.236C71.515 139.234 71.9282 139.226 72.3343 139.212C73.6468 139.169 74.8909 139.073 76.0334 138.93C80.1039 138.425 82.876 137.348 82.7816 136.119C82.6525 134.439 77.2116 133.11 70.6289 133.151C68.6458 133.163 66.7838 133.299 65.1559 133.529C65.0695 133.54 64.9831 133.553 64.8976 133.566C64.3696 133.644 63.8673 133.732 63.3954 133.831C62.9501 133.923 62.5307 134.023 62.1416 134.13C60.1041 134.691 58.8815 135.445 58.9447 136.269Z" fill="#7B66FF"/>
<path d="M70.6607 133.557C76.4487 133.521 81.2486 134.674 81.3603 136.128C81.472 137.582 76.854 138.794 71.066 138.831C65.2779 138.867 60.478 137.713 60.3662 136.26C60.2545 134.806 64.8726 133.593 70.6607 133.557ZM70.6752 133.744C65.2486 133.778 60.9184 134.905 61.0222 136.255C61.126 137.606 65.6252 138.677 71.0517 138.643C76.478 138.609 80.8082 137.483 80.7044 136.132C80.6006 134.781 76.1015 133.71 70.6752 133.744Z" fill="#654DFF"/>
<path d="M72.0395 139.412C76.1114 139.412 78.9408 138.795 78.9714 138.788C79.104 138.758 79.1829 138.645 79.1477 138.534C79.1124 138.423 78.9761 138.357 78.8437 138.386C78.811 138.394 75.5317 139.108 70.9569 138.982C70.8212 138.977 70.7048 139.068 70.7003 139.183C70.6958 139.297 70.8033 139.393 70.9406 139.397C71.3156 139.407 71.6824 139.412 72.0395 139.412Z" fill="white"/>
<path d="M61.5498 132.569L61.5979 135.278C61.6282 135.672 61.9505 136.047 62.5125 136.389C62.8117 136.572 63.1803 136.746 63.6078 136.909C64.0789 137.087 64.623 137.252 65.2294 137.401C65.5669 137.485 65.924 137.562 66.298 137.635C68.3631 138.034 70.9536 138.263 73.7498 138.246C80.3324 138.205 85.5631 136.809 85.434 135.129L85.386 132.42C85.386 132.42 77.5772 133.149 73.3607 133.176C70.4879 133.193 66.0497 132.905 63.5108 132.72C63.2267 132.699 62.9667 132.68 62.7352 132.663C61.9968 132.606 61.5498 132.569 61.5498 132.569Z" fill="#5A41F7"/>
<path d="M61.5492 132.54C61.6783 134.219 67.1193 135.548 73.7019 135.507C74.1195 135.505 74.5327 135.497 74.9388 135.483C76.2513 135.44 77.4954 135.344 78.6379 135.201C82.7084 134.696 85.4805 133.619 85.3861 132.39C85.257 130.71 79.816 129.381 73.2334 129.422C71.2503 129.434 69.3882 129.57 67.7604 129.8C67.674 129.811 67.5876 129.824 67.5021 129.837C66.974 129.915 66.4718 130.003 65.9999 130.102C65.5546 130.194 65.1352 130.294 64.7461 130.401C62.7086 130.962 61.486 131.716 61.5492 132.54Z" fill="#7B66FF"/>
<path d="M73.2652 129.828C79.0532 129.792 83.8531 130.945 83.9648 132.399C84.0765 133.853 79.4585 135.065 73.6705 135.102C67.8824 135.138 63.0825 133.984 62.9707 132.531C62.859 131.077 67.4771 129.864 73.2652 129.828ZM73.2796 130.015C67.8531 130.049 63.5229 131.176 63.6267 132.526C63.7305 133.877 68.2297 134.948 73.6562 134.914C79.0826 134.88 83.4128 133.754 83.3089 132.403C83.2051 131.052 78.706 129.981 73.2796 130.015Z" fill="#654DFF"/>
<path d="M74.2191 135.625C78.331 135.625 81.1925 134.995 81.2232 134.988C81.3558 134.958 81.4344 134.844 81.3988 134.734C81.3633 134.623 81.2274 134.557 81.0944 134.587C81.0619 134.594 77.7857 135.315 73.2093 135.197C73.0712 135.194 72.9575 135.283 72.9532 135.398C72.949 135.513 73.0568 135.608 73.1941 135.612C73.5431 135.621 73.8856 135.625 74.2191 135.625Z" fill="white"/>
<path d="M61.5742 128.553L61.6223 131.262C61.6525 131.656 61.9749 132.031 62.5368 132.373C62.836 132.556 63.2047 132.73 63.6321 132.893C64.1032 133.071 64.6473 133.236 65.2538 133.385C65.5913 133.468 65.9484 133.546 66.3224 133.619C68.3874 134.018 70.9779 134.247 73.7741 134.23C80.3567 134.189 85.5874 132.793 85.4583 131.113L85.4103 128.404C85.4103 128.404 77.6015 129.133 73.3849 129.159C70.5122 129.177 66.0739 128.889 63.5351 128.704C63.251 128.683 62.991 128.664 62.7595 128.647C62.0212 128.59 61.5742 128.553 61.5742 128.553Z" fill="#5A41F7"/>
<path d="M61.5736 128.523C61.7027 130.203 67.1437 131.532 73.7263 131.491C74.1439 131.489 74.5571 131.481 74.9632 131.467C76.2758 131.424 77.5198 131.327 78.6623 131.185C82.7328 130.679 85.5049 129.603 85.4105 128.374C85.2814 126.694 79.8405 125.365 73.2578 125.406C71.2747 125.418 69.4127 125.553 67.7848 125.783C67.6984 125.795 67.612 125.808 67.5265 125.821C66.9985 125.899 66.4962 125.987 66.0243 126.085C65.579 126.178 65.1596 126.277 64.7705 126.385C62.733 126.945 61.5104 127.7 61.5736 128.523Z" fill="#7B66FF"/>
<path d="M73.2896 125.812C79.0776 125.776 83.8775 126.929 83.9892 128.383C84.1009 129.837 79.4829 131.049 73.6949 131.085C67.9068 131.122 63.1069 129.968 62.9951 128.514C62.8834 127.06 67.5015 125.848 73.2896 125.812ZM73.304 125.999C67.8775 126.033 63.5473 127.16 63.6511 128.51C63.7549 129.861 68.254 130.932 73.6805 130.898C79.1069 130.864 83.437 129.738 83.3332 128.387C83.2294 127.036 78.7304 125.965 73.304 125.999Z" fill="#654DFF"/>
<path d="M74.6685 131.667C78.7404 131.667 81.5698 131.049 81.6004 131.042C81.733 131.013 81.8118 130.899 81.7767 130.788C81.7413 130.678 81.605 130.612 81.4726 130.641C81.44 130.648 78.1607 131.363 73.5858 131.237C73.4501 131.231 73.3337 131.323 73.3292 131.437C73.3247 131.552 73.4322 131.648 73.5695 131.652C73.9447 131.662 74.3114 131.667 74.6685 131.667Z" fill="white"/>
<path d="M62.4199 124.726L62.468 127.435C62.4983 127.829 62.8206 128.204 63.3826 128.546C63.6818 128.729 64.0504 128.903 64.4779 129.066C64.949 129.244 65.4931 129.409 66.0995 129.558C66.437 129.641 66.7941 129.719 67.1681 129.792C69.2332 130.191 71.8237 130.42 74.6198 130.403C81.2024 130.362 86.4332 128.966 86.3041 127.286L86.256 124.577C86.256 124.577 78.4472 125.306 74.2307 125.333C71.358 125.35 66.9197 125.062 64.3809 124.877C64.0968 124.856 63.8368 124.837 63.6052 124.82C62.867 124.763 62.4199 124.726 62.4199 124.726Z" fill="#5A41F7"/>
<path d="M62.4193 124.697C62.5484 126.376 67.9894 127.705 74.572 127.664C74.9896 127.662 75.4028 127.654 75.8089 127.64C77.1215 127.597 78.3655 127.501 79.508 127.358C83.5785 126.853 86.3506 125.776 86.2562 124.547C86.1271 122.867 80.6862 121.538 74.1035 121.579C72.1204 121.591 70.2584 121.727 68.6305 121.956C68.5441 121.968 68.4577 121.981 68.3723 121.994C67.8442 122.072 67.3419 122.16 66.87 122.259C66.4247 122.351 66.0053 122.451 65.6162 122.558C63.5788 123.119 62.3561 123.873 62.4193 124.697Z" fill="#7B66FF"/>
<path d="M74.1353 121.985C79.9233 121.949 84.7232 123.102 84.8349 124.556C84.9466 126.01 80.3286 127.222 74.5406 127.259C68.7525 127.295 63.9526 126.141 63.8409 124.688C63.7291 123.234 68.3472 122.021 74.1353 121.985ZM74.1497 122.172C68.7232 122.206 64.393 123.333 64.4968 124.683C64.6006 126.034 69.0998 127.105 74.5262 127.071C79.9526 127.037 84.2827 125.911 84.1789 124.56C84.0752 123.209 79.5761 122.138 74.1497 122.172Z" fill="#654DFF"/>
<path d="M75.0892 127.782C79.2011 127.782 82.0626 127.152 82.0933 127.145C82.226 127.115 82.3045 127.001 82.269 126.891C82.2335 126.78 82.0975 126.714 81.9646 126.744C81.932 126.751 78.6559 127.472 74.0794 127.354C73.9413 127.351 73.8277 127.44 73.8234 127.555C73.8192 127.67 73.927 127.765 74.0642 127.769C74.4132 127.778 74.7557 127.782 75.0892 127.782Z" fill="white"/>
<path d="M61.165 120.862L61.2131 123.571C61.2433 123.965 61.5657 124.34 62.1277 124.682C62.4269 124.865 62.7955 125.039 63.223 125.201C63.6941 125.38 64.2382 125.545 64.8446 125.694C65.1822 125.777 65.5393 125.855 65.9133 125.928C67.9784 126.326 70.5688 126.556 73.365 126.538C79.9476 126.497 85.1784 125.102 85.0493 123.422L85.0012 120.713C85.0012 120.713 77.1924 121.441 72.9759 121.468C70.1031 121.486 65.6649 121.198 63.1261 121.013C62.842 120.992 62.582 120.973 62.3504 120.956C61.6121 120.899 61.165 120.862 61.165 120.862Z" fill="#5A41F7"/>
<path d="M61.1645 120.832C61.2935 122.512 66.7346 123.841 73.3171 123.8C73.7348 123.798 74.1479 123.79 74.554 123.775C75.8666 123.733 77.1106 123.636 78.2531 123.493C82.3236 122.988 85.0957 121.912 85.0014 120.683C84.8723 119.003 79.4313 117.674 72.8487 117.715C70.8655 117.727 69.0035 117.862 67.3756 118.092C67.2893 118.104 67.2029 118.117 67.1174 118.129C66.5893 118.208 66.0871 118.296 65.6151 118.394C65.1698 118.487 64.7504 118.586 64.3613 118.694C62.3239 119.254 61.1012 120.009 61.1645 120.832Z" fill="#7B66FF"/>
<path d="M72.8804 118.121C78.6684 118.084 83.4683 119.238 83.58 120.692C83.6918 122.146 79.0737 123.358 73.2858 123.394C67.4977 123.431 62.6977 122.277 62.586 120.823C62.4742 119.369 67.0923 118.157 72.8804 118.121ZM72.8948 118.308C67.4683 118.342 63.1381 119.468 63.2419 120.819C63.3457 122.17 67.8449 123.241 73.2714 123.207C78.6978 123.173 83.0279 122.047 82.9241 120.696C82.8202 119.345 78.3212 118.274 72.8948 118.308Z" fill="#654DFF"/>
<path d="M73.3201 124.016C77.4321 124.016 80.2941 123.386 80.3248 123.379C80.4574 123.349 80.5359 123.235 80.5005 123.124C80.4649 123.014 80.3291 122.948 80.196 122.978C80.1635 122.985 76.8869 123.705 72.3109 123.588C72.1726 123.585 72.0591 123.674 72.0548 123.789C72.0506 123.903 72.1585 123.999 72.2956 124.003C72.6447 124.012 72.9867 124.016 73.3201 124.016Z" fill="white"/>
<path d="M58.7578 117.042L58.8059 119.751C58.8362 120.145 59.1585 120.52 59.7205 120.862C60.0197 121.045 60.3883 121.219 60.8158 121.382C61.2869 121.56 61.8309 121.725 62.4374 121.874C62.7749 121.957 63.132 122.035 63.506 122.108C65.5711 122.507 68.1616 122.736 70.9577 122.719C77.5403 122.678 82.7711 121.282 82.642 119.602L82.5939 116.893C82.5939 116.893 74.7851 117.622 70.5686 117.648C67.6958 117.666 63.2576 117.378 60.7188 117.193C60.4347 117.172 60.1747 117.153 59.9431 117.136C59.2048 117.079 58.7578 117.042 58.7578 117.042Z" fill="#5A41F7"/>
<path d="M58.7572 117.012C58.8863 118.692 64.3273 120.021 70.9099 119.98C71.3275 119.978 71.7407 119.97 72.1468 119.956C73.4593 119.913 74.7034 119.816 75.8459 119.674C79.9164 119.168 82.6885 118.092 82.5941 116.863C82.465 115.183 77.0241 113.854 70.4414 113.895C68.4583 113.907 66.5962 114.042 64.9684 114.272C64.882 114.284 64.7956 114.297 64.7101 114.31C64.1821 114.388 63.6798 114.476 63.2079 114.574C62.7626 114.667 62.3432 114.766 61.9541 114.874C59.9167 115.435 58.694 116.189 58.7572 117.012Z" fill="#7B66FF"/>
<path d="M61.9541 114.874C65.3363 116.59 68.7433 118.273 72.1468 119.956C73.4594 119.913 74.7034 119.816 75.8459 119.674C72.2207 117.878 68.5839 116.091 64.9684 114.272C64.8821 114.284 64.7957 114.297 64.7102 114.31C64.1821 114.388 63.6799 114.476 63.2079 114.575C62.7627 114.667 62.3433 114.766 61.9541 114.874Z" fill="white"/>
<path d="M70.4732 114.301C76.2612 114.265 81.0611 115.418 81.1728 116.872C81.2845 118.326 76.6665 119.538 70.8785 119.575C65.0904 119.611 60.2905 118.457 60.1787 117.003C60.067 115.549 64.6851 114.337 70.4732 114.301ZM70.4876 114.488C65.0611 114.522 60.7309 115.649 60.8347 116.999C60.9385 118.35 65.4376 119.421 70.8641 119.387C76.2905 119.353 80.6206 118.227 80.5168 116.876C80.4131 115.525 75.914 114.454 70.4876 114.488Z" fill="#654DFF"/>
<path d="M75.5267 116.673L74.2993 116.722C74.1204 117.274 73.2586 117.599 72.3263 117.636C71.2759 117.677 70.6512 117.427 70.1337 116.903C69.6904 116.461 69.3757 116.278 68.762 116.302C68.2899 116.321 67.7531 116.496 67.7694 116.902C67.783 117.24 68.0513 117.446 68.1974 117.551L67.4237 117.714C67.2168 117.569 67.0194 117.36 66.983 117.044L65.8383 117.09L65.8252 116.762L67.0172 116.715C67.1748 116.222 67.9058 115.881 68.8855 115.843C69.9123 115.802 70.4685 116.113 70.9621 116.632C71.3319 117.009 71.7414 117.199 72.3905 117.173C73.0632 117.146 73.537 116.874 73.522 116.499C73.5102 116.204 73.2749 115.938 72.984 115.759L73.7697 115.601C74.0721 115.774 74.2974 116.082 74.3214 116.388L75.5134 116.341L75.5267 116.673Z" fill="#644FE8"/>
<path d="M56.7307 143.713C57.3232 144.21 56.6604 145.226 52.144 145.896C47.6276 146.567 41.6635 146.588 36.0133 146.035C30.3631 145.482 29.8736 144.297 30.5289 143.639C31.65 142.513 55.1612 142.397 56.7307 143.713Z" fill="#6A5CC6"/>
<path d="M31.6533 140.75L31.7014 143.458C31.7317 143.853 32.054 144.228 32.616 144.57C32.9152 144.753 33.2838 144.926 33.7113 145.089C34.1824 145.268 34.7265 145.433 35.3329 145.582C35.6704 145.665 36.0275 145.742 36.4015 145.815C38.4666 146.214 41.0571 146.444 43.8533 146.426C50.4359 146.385 55.6667 144.99 55.5376 143.31L55.4895 140.601C55.4895 140.601 47.6807 141.329 43.4642 141.356C40.5914 141.374 36.1532 141.086 33.6143 140.901C33.3303 140.88 33.0702 140.861 32.8387 140.843C32.1004 140.787 31.6533 140.75 31.6533 140.75Z" fill="#5A41F7"/>
<path d="M31.6518 140.72C31.7808 142.4 37.2219 143.729 43.8044 143.688C44.2221 143.685 44.6352 143.677 45.0413 143.663C46.3539 143.621 47.5979 143.524 48.7404 143.381C52.8109 142.876 55.583 141.799 55.4887 140.57C55.3596 138.891 49.9186 137.562 43.336 137.603C41.3528 137.615 39.4908 137.75 37.8629 137.98C37.7765 137.992 37.6902 138.004 37.6047 138.017C37.0766 138.095 36.5744 138.184 36.1024 138.282C35.6571 138.374 35.2377 138.474 34.8486 138.582C32.8112 139.142 31.5886 139.896 31.6518 140.72Z" fill="#7B66FF"/>
<path d="M43.3677 138.008C49.1557 137.972 53.9556 139.126 54.0673 140.579C54.1791 142.033 49.561 143.246 43.7731 143.282C37.985 143.318 33.185 142.165 33.0733 140.711C32.9615 139.257 37.5796 138.045 43.3677 138.008ZM43.3821 138.196C37.9556 138.23 33.6254 139.356 33.7292 140.707C33.833 142.058 38.3322 143.129 43.7586 143.095C49.185 143.061 53.5152 141.934 53.4113 140.584C53.3076 139.233 48.8085 138.162 43.3821 138.196Z" fill="#654DFF"/>
<path d="M44.3216 143.805C48.4335 143.805 51.295 143.175 51.3257 143.168C51.4583 143.139 51.5368 143.025 51.5014 142.914C51.4658 142.803 51.3299 142.737 51.1969 142.767C51.1644 142.775 47.8882 143.495 43.3119 143.377C43.1738 143.374 43.0601 143.464 43.0558 143.578C43.0516 143.693 43.1595 143.789 43.2966 143.792C43.6456 143.801 43.9881 143.805 44.3216 143.805Z" fill="white"/>
<path d="M30.0752 137.179L30.1233 139.888C30.1536 140.282 30.4759 140.657 31.0378 141C31.337 141.183 31.7056 141.356 32.1331 141.519C32.6042 141.697 33.1483 141.863 33.7547 142.011C34.0922 142.095 34.4494 142.172 34.8234 142.245C36.8884 142.644 39.4789 142.874 42.275 142.856C48.8576 142.815 54.0884 141.419 53.9593 139.739L53.9112 137.031C53.9112 137.031 46.1024 137.759 41.8859 137.786C39.0132 137.804 34.5749 137.516 32.0361 137.33C31.752 137.31 31.492 137.29 31.2604 137.273C30.5222 137.216 30.0752 137.179 30.0752 137.179Z" fill="#5A41F7"/>
<path d="M30.0746 137.149C30.2037 138.829 35.6447 140.158 42.2272 140.117C42.6449 140.115 43.0581 140.107 43.4642 140.093C44.7767 140.05 46.0208 139.953 47.1633 139.811C51.2338 139.305 54.0059 138.229 53.9115 137C53.7824 135.32 48.3415 133.991 41.7589 134.032C39.7757 134.044 37.9137 134.179 36.2858 134.409C36.1995 134.421 36.1131 134.434 36.0276 134.447C35.4996 134.525 34.9973 134.613 34.5253 134.711C34.0801 134.804 33.6606 134.903 33.2715 135.011C31.234 135.571 30.0114 136.326 30.0746 137.149Z" fill="#7B66FF"/>
<path d="M41.7906 134.438C47.5786 134.402 52.3784 135.555 52.4902 137.009C52.6019 138.463 47.9839 139.675 42.1959 139.712C36.4078 139.748 31.6079 138.594 31.4961 137.14C31.3844 135.686 36.0025 134.474 41.7906 134.438ZM41.805 134.625C36.3785 134.659 32.0482 135.786 32.152 137.136C32.2558 138.487 36.755 139.558 42.1815 139.524C47.6078 139.49 51.938 138.364 51.8342 137.013C51.7304 135.662 47.2313 134.591 41.805 134.625Z" fill="#654DFF"/>
<path d="M43.1695 140.293C47.2414 140.293 50.0708 139.675 50.1013 139.668C50.234 139.639 50.3128 139.525 50.2776 139.414C50.2423 139.304 50.106 139.238 49.9736 139.267C49.941 139.274 46.6616 139.989 42.0868 139.863C41.9511 139.857 41.8347 139.949 41.8302 140.063C41.8257 140.178 41.9332 140.274 42.0704 140.278C42.4456 140.288 42.8123 140.293 43.1695 140.293Z" fill="white"/>
<path d="M32.6797 133.45L32.7278 136.159C32.7581 136.553 33.0804 136.928 33.6423 137.27C33.9415 137.453 34.3102 137.626 34.7377 137.789C35.2088 137.968 35.7528 138.133 36.3593 138.282C36.6968 138.365 37.0539 138.443 37.4279 138.515C39.4929 138.914 42.0834 139.144 44.8796 139.126C51.4622 139.085 56.693 137.69 56.5639 136.01L56.5158 133.301C56.5158 133.301 48.707 134.029 44.4905 134.056C41.6177 134.074 37.1795 133.786 34.6406 133.601C34.3566 133.58 34.0965 133.561 33.865 133.544C33.1267 133.487 32.6797 133.45 32.6797 133.45Z" fill="#5A41F7"/>
<path d="M32.6791 133.42C32.8082 135.1 38.2492 136.429 44.8317 136.388C45.2494 136.386 45.6626 136.377 46.0687 136.363C47.3812 136.321 48.6252 136.224 49.7678 136.081C53.8383 135.576 56.6104 134.5 56.516 133.271C56.3869 131.591 50.946 130.262 44.3634 130.303C42.3802 130.315 40.5182 130.45 38.8903 130.68C38.804 130.692 38.7176 130.705 38.6321 130.717C38.104 130.795 37.6018 130.884 37.1298 130.982C36.6846 131.074 36.2651 131.174 35.876 131.282C33.8385 131.842 32.6158 132.597 32.6791 133.42Z" fill="#7B66FF"/>
<path d="M44.3951 130.709C50.1831 130.672 54.9829 131.826 55.0947 133.28C55.2064 134.734 50.5884 135.946 44.8004 135.982C39.0123 136.018 34.2124 134.865 34.1006 133.411C33.9888 131.957 38.607 130.745 44.3951 130.709ZM44.4095 130.896C38.983 130.93 34.6527 132.056 34.7565 133.407C34.8603 134.758 39.3595 135.829 44.786 135.795C50.2123 135.761 54.5425 134.634 54.4387 133.284C54.3349 131.933 49.8358 130.862 44.4095 130.896Z" fill="#654DFF"/>
<path d="M45.3489 136.506C49.4608 136.506 52.3223 135.875 52.353 135.869C52.4857 135.839 52.5642 135.725 52.5287 135.614C52.4932 135.503 52.3572 135.437 52.2243 135.467C52.1917 135.475 48.9156 136.196 44.3392 136.077C44.2011 136.074 44.0875 136.164 44.0831 136.279C44.0789 136.393 44.1868 136.489 44.324 136.493C44.6729 136.501 45.0154 136.506 45.3489 136.506Z" fill="white"/>
<path d="M32.7041 129.434L32.7522 132.142C32.7825 132.537 33.1048 132.912 33.6668 133.254C33.966 133.437 34.3346 133.61 34.7621 133.773C35.2332 133.952 35.7772 134.117 36.3837 134.266C36.7212 134.349 37.0783 134.426 37.4523 134.499C39.5174 134.898 42.1079 135.128 44.904 135.11C51.4866 135.069 56.7174 133.674 56.5883 131.994L56.5402 129.285C56.5402 129.285 48.7314 130.013 44.5149 130.04C41.6421 130.058 37.2039 129.77 34.6651 129.585C34.381 129.564 34.121 129.545 33.8895 129.527C33.1511 129.471 32.7041 129.434 32.7041 129.434Z" fill="#5A41F7"/>
<path d="M32.7035 129.404C32.8326 131.084 38.2736 132.413 44.8562 132.372C45.2738 132.37 45.687 132.361 46.0931 132.347C47.4056 132.305 48.6497 132.208 49.7922 132.065C53.8627 131.56 56.6348 130.484 56.5404 129.255C56.4113 127.575 50.9703 126.246 44.3877 126.287C42.4046 126.299 40.5425 126.434 38.9147 126.664C38.8283 126.676 38.7419 126.689 38.6564 126.701C38.1284 126.779 37.6261 126.868 37.1541 126.966C36.7089 127.058 36.2895 127.158 35.9004 127.266C33.863 127.826 32.6403 128.58 32.7035 129.404Z" fill="#7B66FF"/>
<path d="M44.4195 126.692C50.2075 126.656 55.0073 127.81 55.1191 129.264C55.2308 130.718 50.6128 131.93 44.8248 131.966C39.0367 132.002 34.2368 130.849 34.125 129.395C34.0133 127.941 38.6314 126.729 44.4195 126.692ZM44.4339 126.88C39.0074 126.914 34.6772 128.04 34.781 129.391C34.8848 130.742 39.384 131.813 44.8105 131.779C50.2369 131.745 54.567 130.618 54.4632 129.268C54.3594 127.917 49.8603 126.846 44.4339 126.88Z" fill="#654DFF"/>
<path d="M45.7983 132.547C49.8702 132.547 52.6995 131.93 52.7302 131.923C52.8628 131.894 52.9417 131.78 52.9065 131.669C52.8711 131.558 52.7349 131.492 52.6024 131.522C52.5698 131.529 49.2905 132.243 44.7157 132.117C44.58 132.112 44.4636 132.203 44.4591 132.318C44.4546 132.432 44.5621 132.528 44.6993 132.532C45.0744 132.542 45.4412 132.547 45.7983 132.547Z" fill="white"/>
<path d="M29.8896 125.427L29.9377 128.136C29.968 128.53 30.2904 128.905 30.8523 129.247C31.1515 129.43 31.5201 129.603 31.9476 129.766C32.4187 129.945 32.9628 130.11 33.5692 130.259C33.9068 130.342 34.2639 130.42 34.6379 130.493C36.7029 130.891 39.2934 131.121 42.0896 131.103C48.6722 131.062 53.903 129.667 53.7739 127.987L53.7258 125.278C53.7258 125.278 45.917 126.006 41.7005 126.033C38.8277 126.051 34.3895 125.763 31.8507 125.578C31.5666 125.557 31.3066 125.538 31.075 125.521C30.3367 125.464 29.8896 125.427 29.8896 125.427Z" fill="#5A41F7"/>
<path d="M29.8891 125.397C30.0182 127.077 35.4592 128.406 42.0417 128.365C42.4594 128.363 42.8725 128.355 43.2786 128.34C44.5912 128.298 45.8352 128.201 46.9777 128.058C51.0482 127.553 53.8203 126.477 53.726 125.248C53.5968 123.568 48.1559 122.239 41.5733 122.28C39.5901 122.292 37.7281 122.427 36.1002 122.657C36.0139 122.669 35.9275 122.682 35.842 122.694C35.3139 122.772 34.8117 122.861 34.3397 122.959C33.8944 123.052 33.475 123.151 33.0858 123.259C31.0485 123.819 29.8258 124.574 29.8891 125.397Z" fill="#7B66FF"/>
<path d="M33.0859 123.259C36.4681 124.975 39.8751 126.657 43.2786 128.34C44.5912 128.298 45.8352 128.201 46.9778 128.058C43.3525 126.263 39.7157 124.475 36.1003 122.657C36.0139 122.669 35.9275 122.682 35.842 122.694C35.3139 122.773 34.8117 122.861 34.3397 122.959C33.8945 123.052 33.4751 123.151 33.0859 123.259Z" fill="white"/>
<path d="M41.6051 122.685C47.393 122.649 52.1929 123.803 52.3046 125.256C52.4164 126.71 47.7983 127.923 42.0104 127.959C36.2223 127.995 31.4223 126.842 31.3106 125.388C31.1988 123.934 35.817 122.722 41.6051 122.685ZM41.6195 122.873C36.193 122.907 31.8628 124.033 31.9666 125.384C32.0704 126.735 36.5696 127.806 41.9961 127.772C47.4224 127.738 51.7526 126.611 51.6488 125.261C51.5449 123.91 47.0459 122.839 41.6195 122.873Z" fill="#654DFF"/>
<path d="M38.6462 125.832C38.6134 125.418 39.1278 125.043 39.9606 124.872C40.8335 124.693 41.4205 124.86 42.025 125.203C42.4734 125.449 42.8923 125.542 43.444 125.428C44.0159 125.311 44.3316 125.027 44.1902 124.731C44.0787 124.498 43.7843 124.32 43.4718 124.22L44.0962 123.982C44.4167 124.076 44.7169 124.289 44.8425 124.528L45.8557 124.321L45.9812 124.583L44.9379 124.797C44.9725 125.261 44.3397 125.642 43.5471 125.805C42.6542 125.988 42.0289 125.879 41.4022 125.536C40.8678 125.248 40.5332 125.147 40.0114 125.254C39.6102 125.337 39.2064 125.552 39.3599 125.873C39.4874 126.139 39.7897 126.265 39.952 126.328L39.3397 126.568C39.1113 126.482 38.8691 126.344 38.7295 126.098L37.7563 126.298L37.6328 126.04L38.6462 125.832Z" fill="#644FE8"/>
<path d="M46.6978 93.2529L44.5732 93.5354L46.1009 104.923L48.2254 104.641L46.6978 93.2529Z" fill="#6A5CC6"/>
<path d="M36.8267 101.47L34.7021 101.753L35.3199 106.358L37.4445 106.076L36.8267 101.47Z" fill="#7964FF"/>
<path d="M40.2388 98.7578L38.1143 99.0403L39.0297 105.864L41.1542 105.582L40.2388 98.7578Z" fill="#705CF2"/>
<path d="M43.3482 95.4731L41.2236 95.7556L42.5174 105.4L44.6419 105.118L43.3482 95.4731Z" fill="#7764F0"/>
<path d="M33.4785 96.9424C33.4785 96.9424 38.7796 94.8228 40.5318 90.8153L39.5282 90.1919L42.6823 88.4597L42.935 91.8947L41.7255 91.4282C41.7256 91.4282 40.2502 96.0054 33.4785 96.9424Z" fill="#5C548C"/>
<path d="M140.455 156.111C157.939 156.111 172.113 155.355 172.113 154.423C172.113 153.49 157.939 152.734 140.455 152.734C122.971 152.734 108.797 153.49 108.797 154.423C108.797 155.355 122.971 156.111 140.455 156.111Z" fill="#6A5CC6"/>
<path d="M124.85 151.757C126.14 151.091 126.531 150.79 127.111 149.936C127.15 149.878 126.654 146.414 126.674 146.314C126.761 145.881 129.38 145.773 129.761 146.704C130.513 148.539 130.901 147.656 131.219 146.841C132.048 147.814 132.085 153.45 131.359 153.966C129.97 154.954 120.504 154.888 120.519 154.02C120.528 153.5 123.105 152.659 124.85 151.757ZM158.1 151.757C156.81 151.091 156.42 150.79 155.84 149.936C155.801 149.878 156.296 146.414 156.276 146.314C156.19 145.881 153.57 145.773 153.189 146.704C152.438 148.539 152.049 147.656 151.731 146.841C150.903 147.814 150.866 153.45 151.592 153.966C152.98 154.954 162.447 154.888 162.432 154.02C162.423 153.5 159.846 152.659 158.1 151.757Z" fill="#434059"/>
<path d="M130.13 40.6506C130.13 40.6506 110.879 56.9178 112.464 59.5673C114.049 62.2168 119.606 63.9999 124.455 60.381C129.304 56.7621 132.698 44.9489 132.344 43.6142C131.991 42.2796 130.13 40.6506 130.13 40.6506Z" fill="#8E84CE"/>
<path d="M137.585 31.0705C137.585 31.0705 136.77 29.5041 137.074 28.7276C137.865 25.4473 141.187 28.52 141.187 28.52C141.187 28.52 142.254 28.1105 142.548 29.6157C142.677 30.2768 142.359 31.5626 142.311 32.3311C142.29 32.6767 142.247 32.9296 141.902 32.8839C140.695 32.7239 138.133 32.2504 137.585 31.0705ZM129.088 66.5962C133.924 69.929 145.744 67.8416 150.427 67.7109C151.946 69.8225 152.302 74.2114 153.024 77.7862C154.155 83.3874 157.537 149.579 157.537 149.579H150.905C147.055 146.729 138.984 86.8232 138.984 86.8232C137.282 92.4276 135.703 149.408 135.703 149.408L130.93 149.666C129.177 149.851 127.41 149.87 125.653 149.724L125.506 149.044C125.506 149.043 126.372 72.1089 129.088 66.5962Z" fill="#4F4B66"/>
<path d="M127.554 70.0246C133.67 73.6832 152.573 71.7763 152.106 70.4697C150.283 65.3618 152.499 58.9074 153.997 53.5232C154.516 51.6616 155.791 46.7903 154.431 44.5835C149.784 37.2003 135.899 36.7181 132.279 38.9534C126.1 42.7672 127.689 48.4674 128.841 54.5714C129.675 58.9844 127.841 67.0874 127.554 70.0246Z" fill="#B1A7F2"/>
<path d="M152.505 54.9629C152.505 54.9629 150.733 66.2133 146.661 69.5483C142.589 72.8834 138.012 73.593 133.883 73.3321C129.755 73.0711 128.066 70.8766 128.066 70.8766C128.066 70.8766 150.559 57.3898 152.505 54.9629Z" fill="#CECECE"/>
<path d="M140.274 39.9134C140.36 39.6613 139.96 39.5541 139.875 39.8037C139.102 42.0659 138.565 44.3972 138.283 46.7704C138.034 48.8696 137.984 50.9929 138.138 53.1011C138.3 55.3236 138.796 57.5187 138.793 59.7526C138.788 63.9141 137.367 67.9273 137.324 72.0859C137.462 72.0922 137.6 72.0981 137.739 72.1035C137.763 69.4455 138.342 66.8475 138.769 64.2323C139.212 61.5221 139.275 58.9337 138.908 56.21C138.54 53.4844 138.35 50.7808 138.571 48.0327C138.794 45.265 139.376 42.5407 140.274 39.9134Z" fill="#8E84CE"/>
<path d="M141.662 31.063L143.596 38.3409C143.578 39.0212 140.472 39.9185 139.424 39.021C139.117 38.7583 138.834 39.1489 139.156 38.4531L140.668 32.5049L141.662 31.063Z" fill="#8C7AFF"/>
<path d="M140.228 39.0004C140.228 39.0004 139.432 37.5861 139.363 37.6383C139.294 37.6906 138.027 40.3161 138.027 40.3161L140.197 39.4076L141.966 40.7795C141.966 40.7795 144.323 38.993 144.475 38.5415C144.292 38.277 143.821 37.2756 143.509 36.9963C143.241 37.182 140.228 39.0004 140.228 39.0004Z" fill="#8E84CE"/>
<path d="M137.271 78.7168C137.3 78.2779 137.99 78.2748 137.961 78.7168C137.832 80.7074 138.237 82.6532 138.608 84.598C138.975 86.5182 139.342 88.4384 139.709 90.3585C139.791 90.7906 139.127 90.9756 139.043 90.5411C138.66 88.5317 138.276 86.5222 137.892 84.5126C137.526 82.5978 137.144 80.6759 137.271 78.7168Z" fill="#383356"/>
<path d="M134.118 78.7513C135.143 80.0461 136.337 81.1731 137.7 82.1096C138.063 82.3589 137.719 82.9546 137.352 82.7027C135.94 81.7331 134.692 80.5789 133.63 79.2371C133.358 78.8935 133.843 78.4042 134.118 78.7513Z" fill="#383356"/>
<path d="M153.453 44.2245C147.454 41.5782 141.5 61.7084 138.776 63.5001C136.053 65.2918 119.149 61.7238 117.278 63.8877C116.597 64.676 115.19 67.3101 117.129 68.4454C122.266 71.4538 135.735 73.1724 141.277 70.8104C149.58 67.2717 156.597 45.6112 153.453 44.2245Z" fill="#B1A7F2"/>
<path d="M118.026 65.4271C118.198 65.3011 118.338 65.04 118.721 64.9055C119.104 64.7709 120.068 64.9 120.293 64.7878C120.518 64.6756 120.084 64.081 119.191 64.0474C118.298 64.0138 116.001 63.3069 115.736 64.0474C115.47 64.7878 117.115 66.0983 118.026 65.4271Z" fill="#8C7AFF"/>
<path d="M142.551 66.0782C142.473 66.0782 142.398 66.038 142.356 65.9661C141.818 65.0394 140.515 64.4961 139.653 64.1367C139.019 63.8725 138.73 63.7518 138.743 63.4875C138.748 63.364 138.851 63.2708 138.978 63.2743C139.072 63.2787 139.15 63.3402 139.18 63.4237C139.27 63.491 139.565 63.6137 139.827 63.7231C140.745 64.1058 142.132 64.6841 142.746 65.7419C142.808 65.849 142.771 65.9863 142.663 66.0482C142.628 66.0686 142.589 66.0782 142.551 66.0782Z" fill="#8E84CE"/>
<path d="M139.905 35.5051C140.09 35.4246 140.61 35.3359 140.955 35.1161C141.956 34.4781 141.672 33.3379 141.672 33.3379L140.254 34.1321L139.905 35.5051Z" fill="#7467C6"/>
<path d="M130.452 64.1486L142.579 62.5415L142.553 62.9935C142.534 63.3308 142.248 63.5915 141.909 63.5815L130.575 64.9128C130.464 64.9294 130.351 64.9345 130.238 64.9281L101.955 63.337C101.518 63.3124 101.184 62.9398 101.208 62.5048L101.208 62.5034L130.452 64.1486Z" fill="#3B384C"/>
<path d="M101.208 62.5035L130.452 64.1487L142.578 62.5415L113.335 60.8962L106.36 61.6857L105.729 61.7861L101.208 62.5035Z" fill="#6C6882"/>
<path d="M110.103 61.5494L113.35 61.4216L136.327 62.7143L133.08 62.8421L110.103 61.5494Z" fill="#3B384C"/>
<path d="M130.452 64.1488L101.208 62.5036L99.9143 45.6093C99.8678 44.9898 100.339 44.5163 100.968 44.5517L127.936 46.0689C128.565 46.1043 129.112 46.635 129.158 47.2545L130.452 64.1488Z" fill="#464359"/>
<path d="M116.107 55.2064C116.538 54.7402 116.455 53.9653 115.921 53.4755C115.386 52.9856 114.604 52.9664 114.173 53.4326C113.741 53.8987 113.825 54.6737 114.359 55.1635C114.893 55.6533 115.675 55.6725 116.107 55.2064Z" fill="white"/>
<path d="M117.4 67.1932C117.4 67.1932 113.148 66.7004 112.962 65.6231C112.777 64.5458 112.671 62.8602 113.136 63.0154C113.234 63.0485 113.468 64.2834 113.468 64.2834C113.468 64.2834 113.787 62.3704 114.049 62.2167C114.311 62.0629 114.526 62.4445 114.526 62.4445C114.526 62.4445 114.771 62.1302 115.075 62.1299C115.379 62.1296 115.975 64.223 115.975 64.223C115.975 64.223 118.466 64.4826 118.55 64.9309C118.93 66.9781 117.4 67.1932 117.4 67.1932ZM140.699 29.9281L141.793 31.8824C141.886 32.0607 141.949 32.3772 141.971 32.5771C142.117 33.8872 140.59 34.6373 139.756 34.8047C138.992 34.9578 138.246 34.6745 137.927 33.7167C137.515 32.4741 137.49 31.213 137.514 30.5374C137.57 28.9971 139.489 28.5226 140.699 29.9281Z" fill="#8C7AFF"/>
<path d="M141.533 31.5501L140.61 29.5722C140.462 29.4003 140.122 29.2899 139.965 29.1782C140.337 29.9161 140.551 30.9005 140.473 31.1333C140.274 31.73 140.191 31.4804 139.285 31.5391C137.767 31.6373 138.059 32.2042 137.643 32.5471C137.645 32.5551 137.646 32.5633 137.647 32.5714C137.387 32.787 137.552 33.2738 137.804 33.4733C137.797 33.9661 137.82 34.3131 138.229 34.6645C138.364 34.7807 138.526 34.8585 138.697 34.8959C138.965 35.089 139.276 35.1674 139.618 35.0988C140.534 34.915 140.827 34.9263 141.428 34.2205C142.036 33.5066 142.053 32.5162 141.533 31.5501Z" fill="#4F4B66"/>
<path d="M138.052 32.6919C138.145 32.8543 138.308 33.0611 138.549 33.0971C138.892 33.1473 139.286 32.7713 139.378 32.221C139.396 32.1145 139.402 32.0015 139.394 31.8823C139.394 31.8823 138.846 32.2597 137.955 32.4839C137.955 32.4839 137.986 32.5783 138.052 32.6919Z" fill="white"/>
<path d="M141.048 30.5236C141.029 30.3755 141.009 30.2 141.012 30.0508C141.018 29.7675 141.093 29.3477 141.511 29.5633C142.119 29.8769 142.096 31.2352 141.393 31.3548C141.111 31.4029 141.119 31.1072 141.048 30.5236Z" fill="#8C7AFF"/>
<path d="M137.941 31.51C137.968 31.4419 138.063 31.3916 138.134 31.429C138.208 31.4683 138.281 31.4907 138.365 31.498C138.555 31.5144 138.516 31.8067 138.326 31.7904C138.22 31.7813 138.116 31.7518 138.022 31.7021C137.951 31.6649 137.908 31.5889 137.941 31.51Z" fill="#7467C9"/>
<path d="M138.842 30.6707C138.821 30.6735 138.757 30.6782 138.747 30.7566C138.739 30.8156 138.747 30.8859 138.775 30.9416C138.807 31.0066 138.892 31.023 138.947 30.9779C139.023 30.9154 138.98 30.6514 138.842 30.6707ZM137.723 31.0271C137.702 31.0299 137.638 31.0347 137.628 31.113C137.62 31.172 137.628 31.2423 137.656 31.298C137.688 31.363 137.773 31.3794 137.828 31.3344C137.904 31.2719 137.861 31.0079 137.723 31.0271Z" fill="#3B384C"/>
<path d="M138.616 30.057C138.683 29.9855 138.827 29.9479 138.922 29.9596C139.019 29.9717 139.141 30.014 139.21 30.0902C139.221 30.0971 139.227 30.1062 139.231 30.1162C139.232 30.1164 139.232 30.1166 139.232 30.1167C139.244 30.135 139.24 30.1533 139.229 30.1662C139.217 30.1918 139.19 30.2105 139.153 30.2008C139.003 30.1614 138.825 30.1553 138.673 30.1725C138.6 30.1807 138.565 30.0864 138.616 30.057ZM137.373 30.5863C137.377 30.5822 137.381 30.5785 137.387 30.5756C137.426 30.5549 137.472 30.5201 137.52 30.4918C137.524 30.4891 137.527 30.4869 137.53 30.4854C137.531 30.4848 137.533 30.4844 137.534 30.4838C137.605 30.4442 137.68 30.4226 137.744 30.4842C137.752 30.4921 137.756 30.5014 137.757 30.511C137.774 30.5447 137.767 30.5936 137.721 30.6071C137.619 30.6373 137.516 30.6681 137.417 30.7086C137.344 30.7381 137.31 30.6233 137.373 30.5863Z" fill="#4F4B66"/>
<path d="M141.334 33.4629C141.012 33.7822 140.787 34.1509 140.021 34.1321C139.256 34.1134 138.992 34.6314 138.53 34.5158C138.069 34.4002 137.805 33.4733 137.805 33.4733C137.798 33.9661 137.82 34.313 138.229 34.6645C138.364 34.7807 138.526 34.8585 138.697 34.8958C138.965 35.089 139.276 35.1673 139.618 35.0988C140.534 34.915 140.827 34.9263 141.428 34.2205C141.808 33.7742 141.958 33.22 141.889 32.6311C141.773 32.855 141.554 33.2442 141.334 33.4629Z" fill="#3B384C"/>
<path d="M154.86 138.079C154.854 138.079 154.849 138.079 154.843 138.079C154.68 138.069 154.556 137.931 154.565 137.769C154.642 136.425 154.244 130.991 153.858 125.736C153.593 122.134 153.32 118.409 153.189 115.881C153.113 114.405 153.033 112.46 152.939 110.207C152.645 103.077 152.241 93.3119 151.595 90.2229C150.749 86.1791 149.758 72.6967 149.717 72.1247C149.705 71.963 149.827 71.8224 149.989 71.8106C150.152 71.7989 150.293 71.9204 150.305 72.0821C150.315 72.2218 151.334 86.0976 152.173 90.103C152.829 93.2394 153.233 103.032 153.529 110.183C153.622 112.434 153.702 114.378 153.778 115.851C153.908 118.373 154.182 122.094 154.446 125.693C154.851 131.21 155.233 136.42 155.154 137.802C155.145 137.959 155.015 138.079 154.86 138.079Z" fill="#383356"/>
<path d="M140.111 61.9692C140.08 61.9692 140.05 61.9625 140.021 61.9484C139.92 61.8991 139.879 61.7778 139.928 61.6773C139.95 61.6331 142.131 57.2157 143.414 54.6685C143.891 53.7226 144.622 52.3827 145.395 50.9642C146.667 48.6307 148.109 45.9858 148.353 45.1788C148.385 45.0717 148.498 45.0109 148.606 45.043C148.713 45.0751 148.774 45.188 148.742 45.2952C148.487 46.1423 147.097 48.6919 145.753 51.1575C144.981 52.5731 144.252 53.9101 143.778 54.8502C142.495 57.3959 140.315 61.8118 140.293 61.8561C140.258 61.9276 140.186 61.9692 140.111 61.9692Z" fill="#8E84CE"/>
<path d="M141.011 29.0317L142.787 30.6697L143.018 30.1619L141.517 28.8079L141.011 29.0317Z" fill="#E8E7F2"/>
<path d="M136.77 29.0278C136.77 29.0278 136.71 26.3661 138.866 26.0755C140.602 25.8416 141.367 26.704 141.88 27.3956C142.466 28.1847 142.337 28.8756 142.337 28.8756L140.809 29.2454C140.809 29.2454 138.082 29.7222 137.593 29.6301C137.105 29.538 136.77 29.0278 136.77 29.0278Z" fill="#E8E7F2"/>
<path d="M136.77 29.0278C136.77 29.0278 135.661 29.8615 136.461 30.3037C137.181 30.7014 140.391 29.4954 140.551 29.4402C140.878 29.3274 141.389 29.1878 141.327 29.1201C141.199 28.9823 138.178 29.3071 137.927 29.3061C136.954 29.302 136.77 29.0278 136.77 29.0278ZM137.966 27.9498C137.966 27.9498 138.436 27.1354 139.419 26.816C140.401 26.4966 141.263 26.7002 141.263 26.7002C141.263 26.7002 140.585 26.4028 140.024 26.3828C139.463 26.3627 138.748 26.5985 138.438 26.9122C138.004 27.3526 137.966 27.9498 137.966 27.9498Z" fill="#B7B1DE"/>
<path d="M109.245 81.3913C108.703 80.9215 107.989 80.7482 107.119 80.8764C106.268 81.002 105.64 81.3724 105.253 81.9776C104.877 82.5641 104.764 83.3757 104.914 84.3896C105.063 85.3896 105.403 86.1286 105.925 86.5862C106.467 87.0611 107.181 87.2372 108.047 87.1095C108.898 86.984 109.527 86.6137 109.916 86.0088C110.294 85.4218 110.409 84.6099 110.258 83.5955C110.108 82.5866 109.767 81.8451 109.245 81.3913ZM107.813 85.499C107.44 85.5541 107.288 85.4383 107.206 85.3464C107.111 85.2393 106.933 84.9361 106.81 84.1101C106.687 83.2836 106.769 82.9397 106.83 82.8082C106.881 82.6958 106.992 82.5401 107.365 82.4851C107.728 82.4316 107.881 82.5494 107.964 82.6426C108.06 82.7508 108.241 83.0548 108.363 83.8748C108.486 84.705 108.402 85.0472 108.342 85.1772C108.289 85.2897 108.177 85.4454 107.813 85.499ZM102.061 82.9895C102.436 82.403 102.55 81.5915 102.399 80.5774C102.25 79.5776 101.91 78.8385 101.388 78.3807C100.846 77.9059 100.132 77.7298 99.2667 77.8575C98.4156 77.983 97.7867 78.3533 97.3974 78.9582C97.0196 79.5451 96.9046 80.3571 97.0555 81.3716C97.2056 82.3804 97.5466 83.122 98.0689 83.5756C98.6098 84.0455 99.3248 84.2187 100.194 84.0906C101.046 83.965 101.674 83.5946 102.061 82.9895ZM98.9707 79.7901C99.022 79.6778 99.1335 79.5221 99.5062 79.4671C99.869 79.4137 100.022 79.5315 100.105 79.6246C100.201 79.7328 100.382 80.0368 100.504 80.8569C100.627 81.687 100.544 82.0292 100.483 82.1592C100.43 82.2717 100.318 82.4273 99.9545 82.4809C99.5811 82.536 99.4293 82.4203 99.3475 82.3283C99.2522 82.2211 99.0739 81.918 98.951 81.0921C98.8279 80.2656 98.9105 79.9216 98.9707 79.7901ZM106.211 77.2045C106.122 77.0969 105.982 77.0436 105.844 77.0641L104.822 77.2148C104.674 77.2365 104.551 77.3381 104.502 77.4783L101.038 87.3696C100.992 87.5015 101.018 87.6478 101.107 87.7554C101.197 87.863 101.336 87.9163 101.475 87.8958L102.497 87.7452C102.644 87.7234 102.768 87.6219 102.817 87.4817L106.281 77.5904C106.327 77.4585 106.301 77.3121 106.211 77.2045Z" fill="#6A5CC6"/>
<path d="M82.6507 78.5366C82.6645 73.5303 79.8581 70.6751 74.0977 68.3169C72.3005 67.5772 71.6107 66.7486 71.6143 65.4625C71.6175 64.3143 71.9883 63.6723 72.8649 63.6747C73.7876 63.6772 74.2469 64.4134 74.2429 65.8831L82.178 65.9047C82.1127 61.336 80.2066 58.5573 75.603 57.7863L75.6101 55.1851L70.3046 55.1707L70.2975 57.7624C65.307 58.6338 63.2726 62.2901 63.2612 66.4043C63.2472 71.5024 65.7321 73.8057 71.0775 76.1168C73.3812 77.2253 74.0708 78.0998 74.0664 79.7074C74.0639 80.6259 73.7383 81.5896 72.7694 81.587C71.7545 81.5842 71.3418 80.6644 71.2993 79.3323L62.9951 79.3097C63.1463 82.9612 64.7411 86.6162 70.2158 87.4963L70.2078 90.3985L75.5133 90.413L75.5213 87.5035C80.9173 86.6461 82.6384 83.011 82.6507 78.5366Z" fill="#7B66FF"/>
<path d="M65.2185 69.0028C65.213 69.0069 65.2074 69.0107 65.2013 69.0141C65.1171 69.0625 65.0094 69.0337 64.9607 68.9499C64.9153 68.8716 63.8632 66.9948 65.1502 63.7505C66.6221 60.0399 69.1529 59.6396 69.2597 59.6242C69.356 59.6105 69.4452 59.6772 69.459 59.773C69.4727 59.8688 69.4058 59.9574 69.31 59.9714C69.2843 59.9752 66.8694 60.3711 65.4778 63.8793C64.2526 66.9677 65.2554 68.7568 65.2657 68.7745C65.3109 68.8524 65.2893 68.9504 65.2185 69.0028ZM71.3645 58.3934C71.3329 58.4168 71.2935 58.4298 71.2512 58.4278C71.1541 58.4233 71.079 58.3412 71.0835 58.2445L71.1881 56.0051C71.1927 55.9083 71.2753 55.8337 71.3723 55.8381C71.4694 55.8426 71.5446 55.9247 71.54 56.0214L71.4354 58.2608C71.4329 58.3154 71.4054 58.3631 71.3645 58.3934Z" fill="white"/>
</svg>
