<svg width="380" height="270" viewBox="0 0 380 270" fill="none" xmlns="http://www.w3.org/2000/svg">
<path fill-rule="evenodd" clip-rule="evenodd" d="M52.0781 33.8915V25.6606L62.2383 30.1092V38.3359L52.0781 33.8915Z" fill="#8F48DD"/>
<path fill-rule="evenodd" clip-rule="evenodd" d="M63.1513 37.9389L62.2383 38.3361V30.1094L63.1513 29.708V37.9389Z" fill="#D3C5E6"/>
<path fill-rule="evenodd" clip-rule="evenodd" d="M78.7856 90.4731L77.7595 121.079C77.6213 121.927 75.8372 134.11 85.8215 138.526L85.8592 138.542C91.0649 140.827 97.2087 143.525 100.061 146.802C101.418 148.362 101.975 150.1 101.192 152.053H103.08C103.805 149.74 103.034 147.638 101.355 145.71C98.2641 142.155 91.9318 139.374 86.5628 137.015L86.546 137.007C77.3952 132.989 79.4473 121.332 79.4515 121.298L79.4599 121.249L80.4901 90.5269L78.7898 90.4731H78.7856Z" fill="#642E8F"/>
<path fill-rule="evenodd" clip-rule="evenodd" d="M73.4376 75.4185L71.9508 119.734C71.754 120.963 69.17 138.604 83.6228 144.994L83.6773 145.019C91.2157 148.329 100.111 152.236 104.236 156.978C106.2 159.237 107.009 161.753 105.874 164.58H108.609C109.656 161.232 108.542 158.182 106.113 155.393C101.636 150.245 92.4638 146.219 84.695 142.805L84.6698 142.796C71.4189 136.978 74.3883 120.094 74.3966 120.049L74.4092 119.978L75.9001 75.4971L73.4376 75.4226V75.4185Z" fill="#7A777E"/>
<path fill-rule="evenodd" clip-rule="evenodd" d="M86.1055 96.5854L84.6188 140.901C84.422 142.13 81.838 159.771 96.2908 166.161L96.3453 166.186C103.884 169.496 112.779 173.403 116.904 178.145C118.868 180.404 119.677 182.92 118.542 185.747H121.277C122.324 182.399 121.21 179.349 118.78 176.56C114.303 171.412 105.132 167.386 97.3629 163.972L97.3378 163.963C84.0869 158.145 87.0562 141.261 87.0646 141.216L87.0772 141.145L88.5681 96.6641L86.1055 96.5896V96.5854Z" fill="#642E8F"/>
<path fill-rule="evenodd" clip-rule="evenodd" d="M84.9252 131.706L84.6153 140.901C84.5357 141.385 84.0918 144.402 84.4562 148.275L87.0611 149.417C86.412 144.911 87.0611 141.24 87.0611 141.216L87.0737 141.145L87.3543 132.77L84.9252 131.706Z" fill="#642E8F"/>
<path fill-rule="evenodd" clip-rule="evenodd" d="M94.8462 108.355L87.9904 105.354L80.7451 108.528L87.8103 111.62L95.0556 108.45L94.8462 108.355Z" fill="#7A777E"/>
<path fill-rule="evenodd" clip-rule="evenodd" d="M95.0558 111.711V108.45L87.8105 111.62V114.88L95.0558 111.711Z" fill="#8F54EF"/>
<path fill-rule="evenodd" clip-rule="evenodd" d="M80.7451 108.528L87.8103 111.62V114.88L80.7451 111.789V108.528Z" fill="#642E8F"/>
<path fill-rule="evenodd" clip-rule="evenodd" d="M94.8462 103.964L87.9904 100.964L80.7451 104.138L87.8103 107.229L95.0556 104.059L94.8462 103.964Z" fill="#7A777E"/>
<path fill-rule="evenodd" clip-rule="evenodd" d="M95.0558 107.32V104.059L87.8105 107.229V110.49L95.0558 107.32Z" fill="#8F54EF"/>
<path fill-rule="evenodd" clip-rule="evenodd" d="M80.7451 104.138L87.8103 107.229V110.49L80.7451 107.399V104.138Z" fill="#642E8F"/>
<path fill-rule="evenodd" clip-rule="evenodd" d="M99.8966 94.9054L88.0571 89.7202L75.5391 95.2033L87.743 100.542L100.261 95.0626L99.8966 94.9054Z" fill="#642E8F"/>
<path fill-rule="evenodd" clip-rule="evenodd" d="M100.261 100.699V95.0625L87.7432 100.541V106.178L100.261 100.699Z" fill="#8F54EF"/>
<path fill-rule="evenodd" clip-rule="evenodd" d="M75.5391 95.1992L87.743 100.542V106.178L75.5391 100.835V95.1992Z" fill="#642E8F"/>
<path fill-rule="evenodd" clip-rule="evenodd" d="M193.918 26.7449L192.427 71.1434C192.318 74.425 192.351 79.0515 194.265 83.7111C196.196 88.4079 200.007 93.0882 207.424 96.345C217.81 100.905 223.791 105.126 226.446 108.913C228.021 111.156 228.356 113.208 227.715 115.045C227.041 116.978 225.303 118.77 222.786 120.375C216.533 124.369 205.753 127.071 194.32 128.06C185.709 128.805 176.19 129.132 166.779 129.45C162.319 129.604 157.88 129.753 153.6 129.947V132.384C157.926 132.186 162.382 132.037 166.859 131.884C176.378 131.557 186.011 131.23 194.533 130.493C206.335 129.471 217.53 126.641 224.122 122.428C227.099 120.529 229.189 118.319 230.056 115.836C230.957 113.258 230.546 110.473 228.477 107.522C225.579 103.392 219.259 98.8734 208.421 94.1145C201.707 91.1681 198.277 86.9803 196.556 82.7883C194.818 78.5549 194.789 74.2636 194.889 71.2138L196.38 26.8152L193.918 26.7407V26.7449Z" fill="#642E8F"/>
<path fill-rule="evenodd" clip-rule="evenodd" d="M154.651 132.343C158.647 132.169 162.747 132.029 166.864 131.888C176.383 131.561 186.015 131.234 194.538 130.498C206.34 129.475 217.534 126.645 224.126 122.432C227.104 120.533 229.194 118.323 230.061 115.84C230.961 113.262 230.551 110.477 228.482 107.526C225.584 103.397 219.264 98.8777 208.426 94.1187C201.712 91.1724 198.282 86.9845 196.561 82.7925C194.823 78.5592 194.794 74.2679 194.894 71.218L196.385 26.8194L194.969 26.7739L193.483 71.1311C193.374 74.4127 193.407 79.0392 195.321 83.6988C197.252 88.3956 201.063 93.0718 208.48 96.3327C218.866 100.893 224.847 105.114 227.502 108.9C229.077 111.143 229.412 113.196 228.771 115.037C228.097 116.97 226.359 118.762 223.842 120.367C217.589 124.361 206.809 127.063 195.376 128.052C186.765 128.797 177.246 129.124 167.835 129.442C163.375 129.595 158.936 129.744 154.656 129.939V132.343H154.651Z" fill="#8F54EF"/>
<path fill-rule="evenodd" clip-rule="evenodd" d="M187.967 31.2515L194.571 28.3589L201.557 31.417L194.747 34.3965L187.766 31.3384L187.967 31.2515Z" fill="#642E8F"/>
<path fill-rule="evenodd" clip-rule="evenodd" d="M187.766 34.4834V31.3384L194.747 34.3965V37.5374L187.766 34.4834Z" fill="#642E8F"/>
<path fill-rule="evenodd" clip-rule="evenodd" d="M201.557 31.417L194.747 34.3965V37.5374L201.557 34.5579V31.417Z" fill="#8F54EF"/>
<path fill-rule="evenodd" clip-rule="evenodd" d="M187.967 27.0183L194.571 24.1299L201.557 27.188L194.747 30.1675L187.766 27.1094L187.967 27.0183Z" fill="#642E8F"/>
<path fill-rule="evenodd" clip-rule="evenodd" d="M187.766 30.2503V27.1094L194.747 30.1675V33.3084L187.766 30.2503Z" fill="#642E8F"/>
<path fill-rule="evenodd" clip-rule="evenodd" d="M201.557 27.1841L194.747 30.1677V33.3086L201.557 30.3291V27.1841Z" fill="#8F54EF"/>
<path fill-rule="evenodd" clip-rule="evenodd" d="M183.1 18.2907L194.509 13.2959L206.57 18.5762L194.81 23.7241L182.749 18.4438L183.1 18.2907Z" fill="#642E8F"/>
<path fill-rule="evenodd" clip-rule="evenodd" d="M182.749 23.8731V18.4438L194.81 23.7242V29.1535L182.749 23.8731Z" fill="#642E8F"/>
<path fill-rule="evenodd" clip-rule="evenodd" d="M206.57 18.5762L194.81 23.7241V29.1534L206.57 24.0055V18.5762Z" fill="#834AE0"/>
<path fill-rule="evenodd" clip-rule="evenodd" d="M343.409 60.2148L341.919 104.613C341.81 107.895 341.843 112.521 343.757 117.181C345.688 121.878 349.499 126.554 356.916 129.815C367.302 134.375 373.283 138.596 375.938 142.383C377.513 144.626 377.848 146.678 377.207 148.52C376.533 150.452 374.794 152.244 372.277 153.85C366.025 157.843 355.245 160.545 343.812 161.53C335.201 162.275 325.682 162.602 316.271 162.92C308.536 163.185 300.872 163.446 293.966 163.922C285.644 164.493 279.324 164.998 272.841 168.408C266.417 171.784 259.992 177.971 251.533 189.864C247.835 195.066 242.725 200.205 234.739 204.071C226.677 207.977 215.679 210.609 200.234 210.758C175.139 210.998 150.497 207.199 130.696 201.637C124.435 199.879 118.668 197.95 113.533 195.922V198.521C118.525 200.466 124.058 202.308 130.017 203.979C150.007 209.595 174.892 213.431 200.25 213.187C216.106 213.034 227.456 210.303 235.815 206.251C244.254 202.163 249.644 196.746 253.543 191.263C261.76 179.709 267.92 173.742 273.989 170.551C280.003 167.39 286.096 166.906 294.116 166.351C301.11 165.871 308.691 165.61 316.338 165.35C325.862 165.023 335.49 164.696 344.013 163.959C355.81 162.937 367.009 160.106 373.601 155.894C376.579 153.994 378.668 151.785 379.535 149.302C380.436 146.724 380.025 143.939 377.956 140.988C375.058 136.858 368.739 132.339 357.9 127.58C351.187 124.634 347.757 120.446 346.035 116.254C344.297 112.021 344.268 107.729 344.369 104.68L345.859 60.281L343.397 60.2065L343.409 60.2148ZM113.537 153.303V150.68C122.429 147.17 133.158 144.154 145.257 141.903L145.71 144.299C133.343 146.599 122.45 149.703 113.537 153.303Z" fill="#642E8F"/>
<path fill-rule="evenodd" clip-rule="evenodd" d="M198.29 210.77C173.87 210.803 149.99 207.058 130.704 201.641C124.72 199.961 119.187 198.124 114.229 196.196V198.525C119.221 200.47 124.753 202.312 130.713 203.984C149.994 209.401 173.832 213.158 198.257 213.199C198.923 213.199 199.593 213.199 200.259 213.191C216.115 213.038 227.464 210.307 235.824 206.256C244.262 202.167 249.652 196.75 253.551 191.267C261.768 179.713 267.929 173.746 273.997 170.555C280.011 167.394 286.105 166.91 294.125 166.355C301.119 165.875 308.699 165.614 316.347 165.354C325.87 165.027 335.498 164.7 344.021 163.963C355.819 162.941 367.017 160.111 373.609 155.898C376.587 153.999 378.677 151.789 379.544 149.306C380.444 146.728 380.034 143.943 377.965 140.992C375.067 136.862 368.747 132.343 357.908 127.585C351.195 124.638 347.765 120.45 346.044 116.258C344.306 112.025 344.276 107.734 344.377 104.684L345.868 60.2852L344.092 60.2314L342.605 104.609C342.497 107.891 342.53 112.517 344.444 117.177C346.375 121.874 350.186 126.55 357.603 129.811C367.989 134.371 373.97 138.592 376.625 142.379C378.199 144.621 378.534 146.674 377.894 148.515C377.219 150.448 375.481 152.24 372.964 153.845C366.712 157.839 355.932 160.541 344.498 161.526C335.888 162.271 326.369 162.598 316.958 162.916C309.223 163.181 301.559 163.442 294.653 163.918C286.331 164.489 280.011 164.994 273.528 168.404C267.104 171.78 260.679 177.967 252.22 189.86C248.522 195.062 243.412 200.201 235.426 204.066C227.364 207.973 216.366 210.605 200.921 210.754C200.041 210.762 199.162 210.766 198.282 210.762L198.29 210.77ZM145.283 142.027L145.714 144.299C133.661 146.542 123.011 149.542 114.229 153.03V150.68C122.956 147.237 133.456 144.266 145.283 142.027Z" fill="#8F54EF"/>
<path fill-rule="evenodd" clip-rule="evenodd" d="M337.797 61.2532L344.402 58.3647L351.387 61.4187L344.578 64.3982L337.596 61.3442L337.797 61.2532Z" fill="#7A777E"/>
<path fill-rule="evenodd" clip-rule="evenodd" d="M337.596 64.4851V61.3442L344.578 64.3982V67.5432L337.596 64.4851Z" fill="#642E8F"/>
<path fill-rule="evenodd" clip-rule="evenodd" d="M351.387 61.4189L344.578 64.3984V67.5435L351.387 64.564V61.4189Z" fill="#8F54EF"/>
<path fill-rule="evenodd" clip-rule="evenodd" d="M337.797 57.0244L344.402 54.1318L351.387 57.19L344.578 60.1694L337.596 57.1113L337.797 57.0244Z" fill="#7A777E"/>
<path fill-rule="evenodd" clip-rule="evenodd" d="M337.596 60.2564V57.1113L344.578 60.1694V63.3145L337.596 60.2564Z" fill="#642E8F"/>
<path fill-rule="evenodd" clip-rule="evenodd" d="M351.387 57.1899L344.578 60.1694V63.3145L351.387 60.3308V57.1899Z" fill="#8F54EF"/>
<path fill-rule="evenodd" clip-rule="evenodd" d="M332.931 48.2926L344.339 43.2979L356.405 48.5782L344.641 53.7261L332.579 48.4458L332.931 48.2926Z" fill="#642E8F"/>
<path fill-rule="evenodd" clip-rule="evenodd" d="M332.579 53.8751V48.4458L344.641 53.7261V59.1554L332.579 53.8751Z" fill="#642E8F"/>
<path fill-rule="evenodd" clip-rule="evenodd" d="M356.405 48.5781L344.641 53.726V59.1553L356.405 54.0074V48.5781Z" fill="#8F54EF"/>
<path fill-rule="evenodd" clip-rule="evenodd" d="M303.565 117.007L302.074 161.406C301.965 164.687 301.999 169.314 303.913 173.974C305.843 178.67 309.654 183.351 317.071 186.607C327.458 191.168 333.438 195.389 336.093 199.175C337.668 201.418 338.003 203.471 337.362 205.308C336.688 207.24 334.95 209.032 332.433 210.638C326.18 214.631 315.4 217.333 303.967 218.322C295.357 219.067 285.837 219.394 276.427 219.713C268.691 219.978 261.027 220.238 254.121 220.714C245.8 221.285 239.48 221.79 232.997 225.2C226.572 228.577 220.148 234.763 211.688 246.657C207.99 251.858 202.881 256.998 194.894 260.867C186.832 264.774 175.835 267.405 160.389 267.554C135.295 267.794 110.652 264 90.8513 258.434C68.7553 252.227 52.8157 243.917 49.2224 236.684C48.7868 235.802 48.4811 234.912 48.3136 234.023C47.6477 230.526 49.0423 226.926 52.1959 223.404C55.5002 219.709 60.6975 216.129 67.4612 212.848C77.3114 208.068 90.4409 203.959 105.861 201.087L105.409 198.691C89.775 201.6 76.4319 205.784 66.3807 210.659C59.3281 214.081 53.8711 217.855 50.3531 221.786C46.6802 225.887 45.072 230.183 45.8887 234.466C46.0981 235.562 46.4708 236.659 47.0111 237.747C50.9059 245.589 67.4361 254.383 90.1728 260.772C110.162 266.387 135.047 270.224 160.406 269.979C176.262 269.826 187.611 267.095 195.971 263.044C204.409 258.955 209.799 253.538 213.703 248.055C221.92 236.502 228.08 230.534 234.149 227.344C240.163 224.182 246.256 223.698 254.276 223.143C261.27 222.663 268.851 222.403 276.498 222.142C286.021 221.815 295.65 221.488 304.172 220.752C315.97 219.729 327.169 216.899 333.761 212.686C336.738 210.783 338.828 208.577 339.695 206.094C340.596 203.516 340.185 200.731 338.116 197.781C335.218 193.651 328.898 189.132 318.06 184.373C311.346 181.426 307.916 177.239 306.195 173.047C304.457 168.813 304.428 164.522 304.528 161.472L306.019 117.074L303.557 116.999L303.565 117.007Z" fill="#642E8F"/>
<path fill-rule="evenodd" clip-rule="evenodd" d="M303.619 114.925L302.129 159.324C302.02 162.606 302.053 167.232 303.967 171.892C305.898 176.589 309.709 181.265 317.126 184.526C327.512 189.086 333.493 193.307 336.148 197.093C337.723 199.336 338.058 201.389 337.417 203.226C336.743 205.159 335.005 206.95 332.488 208.556C326.235 212.549 315.455 215.252 304.022 216.241C295.411 216.986 285.892 217.312 276.481 217.631C268.746 217.896 261.082 218.157 254.172 218.633C245.85 219.204 239.53 219.708 233.047 223.118C226.623 226.495 220.198 232.682 211.738 244.575C208.04 249.777 202.931 254.916 194.945 258.781C186.883 262.688 175.885 265.32 160.439 265.469C135.345 265.709 110.703 261.91 90.9016 256.348C68.8098 250.141 52.866 241.831 49.2726 234.598C48.8371 233.716 48.5314 232.827 48.3638 231.937C47.698 228.44 49.0926 224.84 52.2461 221.318C55.5505 217.623 60.7478 214.043 67.5115 210.762C77.3617 205.982 90.4911 201.873 105.911 199.001L105.459 196.605C89.8252 199.514 76.4822 203.698 66.431 208.573C59.3783 211.995 53.9213 215.769 50.4034 219.7C46.7305 223.801 45.1265 228.097 45.939 232.38C46.1484 233.476 46.5211 234.573 47.0614 235.661C50.9562 243.503 67.4863 252.297 90.2231 258.686C110.213 264.302 135.098 268.138 160.456 267.893C176.312 267.74 187.662 265.009 196.021 260.958C204.46 256.869 209.85 251.452 213.753 245.969C221.97 234.416 228.13 228.448 234.199 225.258C240.213 222.096 246.306 221.612 254.326 221.058C261.32 220.577 268.901 220.317 276.548 220.056C286.072 219.729 295.7 219.402 304.223 218.666C316.02 217.644 327.219 214.813 333.811 210.6C336.789 208.697 338.878 206.491 339.745 204.008C340.646 201.43 340.235 198.645 338.166 195.695C335.268 191.565 328.949 187.046 318.11 182.287C311.397 179.34 307.967 175.153 306.245 170.961C304.507 166.727 304.478 162.436 304.579 159.386L306.069 114.988L303.607 114.913L303.619 114.925Z" fill="#642E8F"/>
<path fill-rule="evenodd" clip-rule="evenodd" d="M158.442 265.481C134.042 265.51 110.183 261.765 90.9139 256.352C68.8221 250.145 52.8783 241.835 49.285 234.602C48.8494 233.72 48.5437 232.831 48.3762 231.941C47.7103 228.444 49.1049 224.844 52.2585 221.322C55.5628 217.627 60.7601 214.048 67.5238 210.766C77.374 205.986 90.5034 201.877 105.924 199.005L105.488 196.717C90.0972 199.622 76.9552 203.764 67.0296 208.581C59.977 212.003 54.52 215.777 51.002 219.709C47.3291 223.809 45.7251 228.105 46.5376 232.388C46.747 233.485 47.1198 234.581 47.66 235.67C51.5549 243.511 68.085 252.305 90.8217 258.694C110.116 264.115 133.971 267.877 158.412 267.91C159.095 267.91 159.782 267.91 160.469 267.902C176.324 267.749 187.674 265.018 196.033 260.966C204.472 256.878 209.862 251.461 213.765 245.978C221.982 234.424 228.143 228.457 234.211 225.266C240.225 222.105 246.319 221.62 254.339 221.066C261.333 220.586 268.913 220.325 276.56 220.064C286.084 219.738 295.712 219.411 304.235 218.674C316.033 217.652 327.231 214.821 333.823 210.609C336.801 208.705 338.891 206.499 339.758 204.017C340.658 201.438 340.248 198.653 338.179 195.703C335.281 191.573 328.961 187.054 318.122 182.295C311.409 179.349 307.979 175.161 306.258 170.969C304.52 166.736 304.49 162.444 304.591 159.395L306.082 114.996L304.206 114.938L302.719 159.32C302.61 162.602 302.643 167.228 304.557 171.888C306.488 176.585 310.299 181.261 317.716 184.522C328.102 189.082 334.083 193.303 336.738 197.089C338.313 199.332 338.648 201.385 338.007 203.222C337.333 205.155 335.595 206.946 333.078 208.552C326.825 212.545 316.045 215.248 304.612 216.237C296.001 216.981 286.482 217.308 277.071 217.627C269.336 217.892 261.672 218.153 254.766 218.628C246.444 219.2 240.125 219.704 233.642 223.114C227.217 226.491 220.793 232.678 212.333 244.571C208.635 249.772 203.526 254.912 195.539 258.777C187.477 262.684 176.479 265.315 161.034 265.464C160.167 265.473 159.3 265.477 158.437 265.473L158.442 265.481Z" fill="#8F54EF"/>
<path fill-rule="evenodd" clip-rule="evenodd" d="M298.07 114.479L304.675 111.586L311.66 114.644L304.851 117.624L297.869 114.565L298.07 114.479Z" fill="#7A777E"/>
<path fill-rule="evenodd" clip-rule="evenodd" d="M297.869 117.71V114.565L304.851 117.624V120.764L297.869 117.71Z" fill="#642E8F"/>
<path fill-rule="evenodd" clip-rule="evenodd" d="M311.66 114.644L304.851 117.624V120.764L311.66 117.785V114.644Z" fill="#8F54EF"/>
<path fill-rule="evenodd" clip-rule="evenodd" d="M298.07 110.25L304.675 107.357L311.66 110.415L304.851 113.395L297.869 110.336L298.07 110.25Z" fill="#7A777E"/>
<path fill-rule="evenodd" clip-rule="evenodd" d="M297.869 113.481V110.336L304.851 113.395V116.535L297.869 113.481Z" fill="#642E8F"/>
<path fill-rule="evenodd" clip-rule="evenodd" d="M311.66 110.411L304.851 113.395V116.536L311.66 113.556V110.411Z" fill="#8F54EF"/>
<path fill-rule="evenodd" clip-rule="evenodd" d="M293.203 101.518L304.612 96.5229L316.673 101.803L304.913 106.951L292.852 101.671L293.203 101.518Z" fill="#642E8F"/>
<path fill-rule="evenodd" clip-rule="evenodd" d="M292.852 107.1V101.671L304.913 106.951V112.381L292.852 107.1Z" fill="#642E8F"/>
<path fill-rule="evenodd" clip-rule="evenodd" d="M316.673 101.803L304.913 106.951V112.38L316.673 107.233V101.803Z" fill="#8F54EF"/>
<path fill-rule="evenodd" clip-rule="evenodd" d="M157.654 52.1248L179.578 42.5283L202.763 52.6752V63.1075L180.16 73.0019L156.979 62.8551V52.4186L157.654 52.1248Z" fill="#B6A6CC"/>
<path fill-rule="evenodd" clip-rule="evenodd" d="M157.654 52.1248L179.578 42.5283L202.763 52.6752L180.16 62.5654L156.979 52.4186L157.654 52.1248Z" fill="#B6A6CC"/>
<path fill-rule="evenodd" clip-rule="evenodd" d="M156.979 62.855V52.4185L180.16 62.5653V73.0018L156.979 62.855Z" fill="#D3C5E6"/>
<path fill-rule="evenodd" clip-rule="evenodd" d="M202.763 52.6753L180.16 62.5656V73.0021L202.763 63.1077V52.6753Z" fill="#EBE5F6"/>
<path fill-rule="evenodd" clip-rule="evenodd" d="M122.03 61.8988L154.274 47.7876L188.36 62.7058V78.046L155.128 92.5959V92.5917L121.042 77.6736V62.3333L122.03 61.8988Z" fill="#B6A6CC"/>
<path fill-rule="evenodd" clip-rule="evenodd" d="M122.03 61.8988L154.274 47.7876L188.36 62.7058L155.128 77.2515L121.042 62.3333L122.03 61.8988Z" fill="#B6A6CC"/>
<path fill-rule="evenodd" clip-rule="evenodd" d="M121.042 77.6737V62.3335L155.128 77.2516V92.596L121.042 77.6737Z" fill="#D3C5E6"/>
<path fill-rule="evenodd" clip-rule="evenodd" d="M188.36 62.7056L155.128 77.2513V92.5957L188.36 78.0458V62.7056Z" fill="#EBE5F6"/>
<path fill-rule="evenodd" clip-rule="evenodd" d="M47.7605 58.8864L98.0963 36.8589L151.305 60.1486H151.309V84.1004L99.4281 106.811L46.2109 83.5169V59.5651L47.7605 58.8864Z" fill="#B6A6CC"/>
<path fill-rule="evenodd" clip-rule="evenodd" d="M215.332 138.993L158.944 163.677L215.332 188.358L271.724 163.677L215.332 138.993Z" fill="#642E8F"/>
<path fill-rule="evenodd" clip-rule="evenodd" d="M215.332 188.357V205.134L158.944 180.449V163.677L215.332 188.357Z" fill="#642E8F"/>
<path fill-rule="evenodd" clip-rule="evenodd" d="M215.332 188.357V205.134L271.724 180.449V163.677L215.332 188.357Z" fill="#834AE0"/>
<path fill-rule="evenodd" clip-rule="evenodd" d="M217.92 190.828V198.72L244.447 187.108V179.216L217.92 190.828Z" fill="#6847B9"/>
<path fill-rule="evenodd" clip-rule="evenodd" d="M217.92 190.828V196.675L242.432 185.945V180.098L217.92 190.828Z" fill="#642E8F"/>
<path fill-rule="evenodd" clip-rule="evenodd" d="M218.925 191.515V192.955L223.775 190.832V189.392L218.925 191.515Z" fill="#C0B6FB"/>
<path fill-rule="evenodd" clip-rule="evenodd" d="M218.925 193.919V195.363L223.775 193.24V191.8L218.925 193.919Z" fill="#C0B6FB"/>
<path fill-rule="evenodd" clip-rule="evenodd" d="M245.976 178.546V179.945L270.341 169.281V167.882L245.976 178.546Z" fill="#6847B9"/>
<path fill-rule="evenodd" clip-rule="evenodd" d="M245.976 180.843V182.242L270.341 171.577V170.179L245.976 180.843Z" fill="#6847B9"/>
<path fill-rule="evenodd" clip-rule="evenodd" d="M245.976 183.135V184.534L270.341 173.87V172.471L245.976 183.135Z" fill="#6847B9"/>
<path fill-rule="evenodd" clip-rule="evenodd" d="M211.424 182.212L209.971 182.85L211.424 183.483L218.372 180.445L216.919 179.808L211.424 182.212Z" fill="#642E8F"/>
<path fill-rule="evenodd" clip-rule="evenodd" d="M209.469 181.355L208.016 181.993L209.469 182.63L216.421 179.588L214.968 178.951L209.469 181.355Z" fill="#642E8F"/>
<path fill-rule="evenodd" clip-rule="evenodd" d="M207.467 180.482L206.014 181.116L207.467 181.753L214.419 178.711L212.966 178.078L207.467 180.482Z" fill="#642E8F"/>
<path fill-rule="evenodd" clip-rule="evenodd" d="M245.138 167.456L243.685 168.089L245.138 168.726L252.09 165.684L250.637 165.051L245.138 167.456Z" fill="#642E8F"/>
<path fill-rule="evenodd" clip-rule="evenodd" d="M243.186 166.599L241.729 167.236L243.186 167.874L250.134 164.832L248.681 164.195L243.186 166.599Z" fill="#642E8F"/>
<path fill-rule="evenodd" clip-rule="evenodd" d="M241.185 165.722L239.731 166.359L241.185 166.996L248.137 163.955L246.679 163.317L241.185 165.722Z" fill="#642E8F"/>
<path fill-rule="evenodd" clip-rule="evenodd" d="M215.332 119.412L158.944 144.096L215.332 168.776L271.724 144.096L215.332 119.412Z" fill="#642E8F"/>
<path fill-rule="evenodd" clip-rule="evenodd" d="M215.332 168.776V185.552L158.944 160.868V144.096L215.332 168.776Z" fill="#642E8F"/>
<path fill-rule="evenodd" clip-rule="evenodd" d="M215.332 168.776V185.552L271.724 160.868V144.096L215.332 168.776Z" fill="#834AE0"/>
<path fill-rule="evenodd" clip-rule="evenodd" d="M217.92 171.247V179.138L244.447 167.526V159.635L217.92 171.247Z" fill="#6847B9"/>
<path fill-rule="evenodd" clip-rule="evenodd" d="M217.92 171.246V177.094L242.432 166.363V160.516L217.92 171.246Z" fill="#642E8F"/>
<path fill-rule="evenodd" clip-rule="evenodd" d="M218.925 171.933V173.374L223.775 171.255V169.811L218.925 171.933Z" fill="#C0B6FB"/>
<path fill-rule="evenodd" clip-rule="evenodd" d="M218.925 174.337V175.782L223.775 173.659V172.219L218.925 174.337Z" fill="#C0B6FB"/>
<path fill-rule="evenodd" clip-rule="evenodd" d="M245.976 158.969V160.367L270.341 149.699V148.3L245.976 158.969Z" fill="#6847B9"/>
<path fill-rule="evenodd" clip-rule="evenodd" d="M245.976 161.261V162.66L270.341 151.996V150.597L245.976 161.261Z" fill="#6847B9"/>
<path fill-rule="evenodd" clip-rule="evenodd" d="M245.976 163.554V164.952L270.341 154.288V152.89L245.976 163.554Z" fill="#6847B9"/>
<path fill-rule="evenodd" clip-rule="evenodd" d="M211.424 162.631L209.971 163.268L211.424 163.901L218.372 160.864L216.919 160.227L211.424 162.631Z" fill="#642E8F"/>
<path fill-rule="evenodd" clip-rule="evenodd" d="M209.469 161.774L208.016 162.411L209.469 163.048L216.421 160.007L214.968 159.37L209.469 161.774Z" fill="#642E8F"/>
<path fill-rule="evenodd" clip-rule="evenodd" d="M207.467 160.901L206.014 161.534L207.467 162.171L214.419 159.13L212.966 158.497L207.467 160.901Z" fill="#642E8F"/>
<path fill-rule="evenodd" clip-rule="evenodd" d="M245.138 147.874L243.685 148.512L245.138 149.145L252.09 146.103L250.637 145.47L245.138 147.874Z" fill="#642E8F"/>
<path fill-rule="evenodd" clip-rule="evenodd" d="M243.186 147.018L241.729 147.655L243.186 148.292L250.134 145.251L248.681 144.613L243.186 147.018Z" fill="#642E8F"/>
<path fill-rule="evenodd" clip-rule="evenodd" d="M241.185 146.14L239.731 146.778L241.185 147.415L248.137 144.373L246.679 143.74L241.185 146.14Z" fill="#642E8F"/>
<path fill-rule="evenodd" clip-rule="evenodd" d="M215.332 99.8296L158.944 124.514L215.332 149.194L271.724 124.514L215.332 99.8296Z" fill="#642E8F"/>
<path fill-rule="evenodd" clip-rule="evenodd" d="M215.332 149.194V165.97L158.944 141.286V124.514L215.332 149.194Z" fill="#642E8F"/>
<path fill-rule="evenodd" clip-rule="evenodd" d="M215.332 149.194V165.97L271.724 141.286V124.514L215.332 149.194Z" fill="#834AE0"/>
<path fill-rule="evenodd" clip-rule="evenodd" d="M217.92 151.664V159.556L244.447 147.944V140.053L217.92 151.664Z" fill="#6847B9"/>
<path fill-rule="evenodd" clip-rule="evenodd" d="M217.92 151.664V157.512L242.432 146.781V140.934L217.92 151.664Z" fill="#642E8F"/>
<path fill-rule="evenodd" clip-rule="evenodd" d="M218.925 152.351V153.791L223.775 151.673V150.229L218.925 152.351Z" fill="#C0B6FB"/>
<path fill-rule="evenodd" clip-rule="evenodd" d="M218.925 154.755V156.2L223.775 154.077V152.637L218.925 154.755Z" fill="#C0B6FB"/>
<path fill-rule="evenodd" clip-rule="evenodd" d="M245.976 139.387V140.785L270.341 130.117V128.718L245.976 139.387Z" fill="#6847B9"/>
<path fill-rule="evenodd" clip-rule="evenodd" d="M245.976 141.679V143.078L270.341 132.414V131.015L245.976 141.679Z" fill="#6847B9"/>
<path fill-rule="evenodd" clip-rule="evenodd" d="M245.976 143.972V145.37L270.341 134.706V133.308L245.976 143.972Z" fill="#6847B9"/>
<path fill-rule="evenodd" clip-rule="evenodd" d="M211.424 143.049L209.971 143.686L211.424 144.319L218.372 141.282L216.919 140.645L211.424 143.049Z" fill="#642E8F"/>
<path fill-rule="evenodd" clip-rule="evenodd" d="M209.469 142.192L208.016 142.829L209.469 143.466L216.421 140.425L214.968 139.788L209.469 142.192Z" fill="#642E8F"/>
<path fill-rule="evenodd" clip-rule="evenodd" d="M207.467 141.319L206.014 141.952L207.467 142.589L214.419 139.548L212.966 138.915L207.467 141.319Z" fill="#642E8F"/>
<path fill-rule="evenodd" clip-rule="evenodd" d="M245.138 128.292L243.685 128.93L245.138 129.563L252.09 126.521L250.637 125.888L245.138 128.292Z" fill="#642E8F"/>
<path fill-rule="evenodd" clip-rule="evenodd" d="M243.186 127.436L241.729 128.073L243.186 128.71L250.134 125.669L248.681 125.031L243.186 127.436Z" fill="#642E8F"/>
<path fill-rule="evenodd" clip-rule="evenodd" d="M241.185 126.562L239.731 127.196L241.185 127.833L248.137 124.791L246.679 124.158L241.185 126.562Z" fill="#642E8F"/>
<path fill-rule="evenodd" clip-rule="evenodd" d="M215.332 80.2476L158.944 104.932L215.332 129.612L271.724 104.932L215.332 80.2476Z" fill="#B6A6CC"/>
<path fill-rule="evenodd" clip-rule="evenodd" d="M204.51 84.9858L158.944 104.932L196.239 121.257L241.809 101.311L204.51 84.9858Z" fill="#C8AEEF"/>
<path fill-rule="evenodd" clip-rule="evenodd" d="M215.332 129.612V146.388L158.944 121.704V104.932L215.332 129.612Z" fill="#642E8F"/>
<path fill-rule="evenodd" clip-rule="evenodd" d="M215.332 129.612V146.388L271.723 121.704V104.932L215.332 129.612Z" fill="#834AE0"/>
<path fill-rule="evenodd" clip-rule="evenodd" d="M217.919 132.082V139.974L244.446 128.362V120.471L217.919 132.082Z" fill="#6847B9"/>
<path fill-rule="evenodd" clip-rule="evenodd" d="M217.919 132.082V137.93L242.432 127.199V121.352L217.919 132.082Z" fill="#642E8F"/>
<path fill-rule="evenodd" clip-rule="evenodd" d="M218.925 132.769V134.209L223.775 132.091V130.646L218.925 132.769Z" fill="#C0B6FB"/>
<path fill-rule="evenodd" clip-rule="evenodd" d="M218.925 135.174V136.618L223.775 134.495V133.055L218.925 135.174Z" fill="#C0B6FB"/>
<path fill-rule="evenodd" clip-rule="evenodd" d="M245.975 119.804V121.203L270.341 110.535V109.136L245.975 119.804Z" fill="#6847B9"/>
<path fill-rule="evenodd" clip-rule="evenodd" d="M245.975 122.097V123.496L270.341 112.832V111.433L245.975 122.097Z" fill="#6847B9"/>
<path fill-rule="evenodd" clip-rule="evenodd" d="M245.975 124.39V125.788L270.341 115.124V113.726L245.975 124.39Z" fill="#6847B9"/>
<path fill-rule="evenodd" clip-rule="evenodd" d="M152.126 166.661L95.7383 191.341L152.126 216.021L208.517 191.341L152.126 166.661Z" fill="#7A777E"/>
<path fill-rule="evenodd" clip-rule="evenodd" d="M152.13 216.021V232.798L95.7383 208.113V191.341L152.13 216.021Z" fill="#642E8F"/>
<path fill-rule="evenodd" clip-rule="evenodd" d="M152.13 216.021V232.798L208.517 208.113V191.341L152.13 216.021Z" fill="#834AE0"/>
<path fill-rule="evenodd" clip-rule="evenodd" d="M154.714 218.492V226.384L181.241 214.772V206.88L154.714 218.492Z" fill="#6847B9"/>
<path fill-rule="evenodd" clip-rule="evenodd" d="M154.714 218.492V224.339L179.226 213.609V207.762L154.714 218.492Z" fill="#642E8F"/>
<path fill-rule="evenodd" clip-rule="evenodd" d="M155.724 219.179V220.619L160.569 218.5V217.056L155.724 219.179Z" fill="#C0B6FB"/>
<path fill-rule="evenodd" clip-rule="evenodd" d="M155.724 221.583V223.027L160.569 220.904V219.464L155.724 221.583Z" fill="#C0B6FB"/>
<path fill-rule="evenodd" clip-rule="evenodd" d="M182.774 206.214V207.613L207.14 196.949V195.546L182.774 206.214Z" fill="#6847B9"/>
<path fill-rule="evenodd" clip-rule="evenodd" d="M182.774 208.506V209.905L207.14 199.241V197.842L182.774 208.506Z" fill="#6847B9"/>
<path fill-rule="evenodd" clip-rule="evenodd" d="M182.774 210.803V212.202L207.14 201.533V200.135L182.774 210.803Z" fill="#6847B9"/>
<path fill-rule="evenodd" clip-rule="evenodd" d="M148.219 209.876L146.766 210.514L148.219 211.151L155.171 208.109L153.714 207.472L148.219 209.876Z" fill="#642E8F"/>
<path fill-rule="evenodd" clip-rule="evenodd" d="M146.263 209.02L144.81 209.657L146.263 210.294L153.215 207.253L151.762 206.615L146.263 209.02Z" fill="#642E8F"/>
<path fill-rule="evenodd" clip-rule="evenodd" d="M144.265 208.146L142.808 208.784L144.265 209.417L151.213 206.379L149.76 205.742L144.265 208.146Z" fill="#642E8F"/>
<path fill-rule="evenodd" clip-rule="evenodd" d="M181.932 195.12L180.479 195.757L181.932 196.39L188.884 193.353L187.431 192.715L181.932 195.12Z" fill="#642E8F"/>
<path fill-rule="evenodd" clip-rule="evenodd" d="M179.981 194.263L178.527 194.9L179.981 195.537L186.929 192.496L185.475 191.858L179.981 194.263Z" fill="#642E8F"/>
<path fill-rule="evenodd" clip-rule="evenodd" d="M177.979 193.39L176.525 194.023L177.979 194.66L184.931 191.618L183.473 190.985L177.979 193.39Z" fill="#642E8F"/>
<path fill-rule="evenodd" clip-rule="evenodd" d="M152.126 147.08L95.7383 171.76L152.126 196.44L208.517 171.76L152.126 147.08Z" fill="#7A777E"/>
<path fill-rule="evenodd" clip-rule="evenodd" d="M152.13 196.439V213.216L95.7383 188.531V171.759L152.13 196.439Z" fill="#642E8F"/>
<path fill-rule="evenodd" clip-rule="evenodd" d="M152.13 196.439V213.216L208.517 188.531V171.759L152.13 196.439Z" fill="#834AE0"/>
<path fill-rule="evenodd" clip-rule="evenodd" d="M182.326 199.998L208.518 188.531V171.759L192.373 178.823L182.326 199.998Z" fill="#AC83F6"/>
<path fill-rule="evenodd" clip-rule="evenodd" d="M154.714 198.91V206.802L181.241 195.19V187.298L154.714 198.91Z" fill="#6847B9"/>
<path fill-rule="evenodd" clip-rule="evenodd" d="M154.714 198.91V204.757L179.226 194.027V188.18L154.714 198.91Z" fill="#642E8F"/>
<path fill-rule="evenodd" clip-rule="evenodd" d="M155.724 199.597V201.037L160.569 198.918V197.474L155.724 199.597Z" fill="#C0B6FB"/>
<path fill-rule="evenodd" clip-rule="evenodd" d="M155.724 202.006V203.446L160.569 201.323V199.883L155.724 202.006Z" fill="#C0B6FB"/>
<path fill-rule="evenodd" clip-rule="evenodd" d="M182.774 186.632V188.031L207.14 177.367V175.964L182.774 186.632Z" fill="#6847B9"/>
<path fill-rule="evenodd" clip-rule="evenodd" d="M182.774 188.925V190.324L207.14 179.659V178.261L182.774 188.925Z" fill="#6847B9"/>
<path fill-rule="evenodd" clip-rule="evenodd" d="M182.774 191.221V192.62L207.14 181.952V180.553L182.774 191.221Z" fill="#6847B9"/>
<path fill-rule="evenodd" clip-rule="evenodd" d="M148.219 190.294L146.766 190.932L148.219 191.569L155.171 188.527L153.714 187.89L148.219 190.294Z" fill="#642E8F"/>
<path fill-rule="evenodd" clip-rule="evenodd" d="M146.263 189.437L144.81 190.075L146.263 190.712L153.215 187.67L151.762 187.033L146.263 189.437Z" fill="#642E8F"/>
<path fill-rule="evenodd" clip-rule="evenodd" d="M144.265 188.564L142.808 189.202L144.265 189.835L151.213 186.797L149.76 186.16L144.265 188.564Z" fill="#642E8F"/>
<path fill-rule="evenodd" clip-rule="evenodd" d="M181.932 175.538L180.479 176.175L181.932 176.808L188.884 173.771L187.431 173.134L181.932 175.538Z" fill="#642E8F"/>
<path fill-rule="evenodd" clip-rule="evenodd" d="M179.981 174.681L178.527 175.318L179.981 175.956L186.929 172.914L185.475 172.277L179.981 174.681Z" fill="#642E8F"/>
<path fill-rule="evenodd" clip-rule="evenodd" d="M177.979 173.808L176.525 174.441L177.979 175.079L184.931 172.037L183.473 171.404L177.979 173.808Z" fill="#642E8F"/>
<path fill-rule="evenodd" clip-rule="evenodd" d="M152.126 127.498L95.7383 152.178L152.126 176.858L208.517 152.178L152.126 127.498Z" fill="#7A777E"/>
<path fill-rule="evenodd" clip-rule="evenodd" d="M152.13 176.858V193.634L95.7383 168.95V152.178L152.13 176.858Z" fill="#642E8F"/>
<path fill-rule="evenodd" clip-rule="evenodd" d="M152.13 176.858V193.634L208.517 168.95V152.178L152.13 176.858Z" fill="#834AE0"/>
<path fill-rule="evenodd" clip-rule="evenodd" d="M182.326 180.417L208.518 168.95V152.178L192.373 159.246L182.326 180.417Z" fill="#AC83F6"/>
<path fill-rule="evenodd" clip-rule="evenodd" d="M154.714 179.328V187.22L181.241 175.608V167.716L154.714 179.328Z" fill="#6847B9"/>
<path fill-rule="evenodd" clip-rule="evenodd" d="M154.714 179.328V185.176L179.226 174.45V168.598L154.714 179.328Z" fill="#642E8F"/>
<path fill-rule="evenodd" clip-rule="evenodd" d="M155.724 180.015V181.455L160.569 179.336V177.892L155.724 180.015Z" fill="#C0B6FB"/>
<path fill-rule="evenodd" clip-rule="evenodd" d="M155.724 182.424V183.864L160.569 181.741V180.301L155.724 182.424Z" fill="#C0B6FB"/>
<path fill-rule="evenodd" clip-rule="evenodd" d="M182.774 167.05V168.449L207.14 157.785V156.382L182.774 167.05Z" fill="#6847B9"/>
<path fill-rule="evenodd" clip-rule="evenodd" d="M182.774 169.343V170.742L207.14 160.077V158.679L182.774 169.343Z" fill="#6847B9"/>
<path fill-rule="evenodd" clip-rule="evenodd" d="M182.774 171.639V173.038L207.14 162.37V160.971L182.774 171.639Z" fill="#6847B9"/>
<path fill-rule="evenodd" clip-rule="evenodd" d="M148.219 170.713L146.766 171.35L148.219 171.987L155.171 168.946L153.714 168.309L148.219 170.713Z" fill="#642E8F"/>
<path fill-rule="evenodd" clip-rule="evenodd" d="M146.263 169.856L144.81 170.493L146.263 171.131L153.215 168.089L151.762 167.452L146.263 169.856Z" fill="#642E8F"/>
<path fill-rule="evenodd" clip-rule="evenodd" d="M144.265 168.983L142.808 169.62L144.265 170.253L151.213 167.216L149.76 166.579L144.265 168.983Z" fill="#642E8F"/>
<path fill-rule="evenodd" clip-rule="evenodd" d="M181.932 155.956L180.479 156.593L181.932 157.226L188.884 154.189L187.431 153.552L181.932 155.956Z" fill="#642E8F"/>
<path fill-rule="evenodd" clip-rule="evenodd" d="M179.981 155.099L178.527 155.736L179.981 156.374L186.929 153.332L185.475 152.695L179.981 155.099Z" fill="#642E8F"/>
<path fill-rule="evenodd" clip-rule="evenodd" d="M177.979 154.226L176.525 154.859L177.979 155.496L184.931 152.455L183.473 151.822L177.979 154.226Z" fill="#642E8F"/>
<path fill-rule="evenodd" clip-rule="evenodd" d="M152.126 107.916L95.7383 132.596L152.126 157.276L208.517 132.596L152.126 107.916Z" fill="#B6A6CC"/>
<path fill-rule="evenodd" clip-rule="evenodd" d="M152.126 107.916L95.7383 132.596L127.483 146.492L183.871 121.807L152.126 107.916Z" fill="#C8AEEF"/>
<path fill-rule="evenodd" clip-rule="evenodd" d="M152.13 157.276V174.052L95.7383 149.372V132.596L152.13 157.276Z" fill="#642E8F"/>
<path fill-rule="evenodd" clip-rule="evenodd" d="M152.13 157.276V174.052L208.517 149.372V132.596L152.13 157.276Z" fill="#834AE0"/>
<path fill-rule="evenodd" clip-rule="evenodd" d="M182.326 160.835L208.518 149.372V132.596L192.373 139.66L182.326 160.835Z" fill="#AC83F6"/>
<path fill-rule="evenodd" clip-rule="evenodd" d="M154.714 159.747V167.638L181.241 156.026V148.135L154.714 159.747Z" fill="#6847B9"/>
<path fill-rule="evenodd" clip-rule="evenodd" d="M154.714 159.746V165.594L179.226 154.867V149.016L154.714 159.746Z" fill="#642E8F"/>
<path fill-rule="evenodd" clip-rule="evenodd" d="M155.724 160.433V161.874L160.569 159.755V158.311L155.724 160.433Z" fill="#C0B6FB"/>
<path fill-rule="evenodd" clip-rule="evenodd" d="M155.724 162.842V164.282L160.569 162.159V160.719L155.724 162.842Z" fill="#C0B6FB"/>
<path fill-rule="evenodd" clip-rule="evenodd" d="M182.774 147.469V148.867L207.14 138.203V136.8L182.774 147.469Z" fill="#6847B9"/>
<path fill-rule="evenodd" clip-rule="evenodd" d="M182.774 149.761V151.159L207.14 140.495V139.097L182.774 149.761Z" fill="#6847B9"/>
<path fill-rule="evenodd" clip-rule="evenodd" d="M182.774 152.057V153.456L207.14 142.792V141.389L182.774 152.057Z" fill="#6847B9"/>
<path fill-rule="evenodd" clip-rule="evenodd" d="M155.929 148.291L154.476 148.929L155.929 149.566L162.881 146.524L161.428 145.887L155.929 148.291Z" fill="#834AE0"/>
<path fill-rule="evenodd" clip-rule="evenodd" d="M153.973 147.439L152.52 148.072L153.973 148.71L160.925 145.668L159.472 145.031L153.973 147.439Z" fill="#834AE0"/>
<path fill-rule="evenodd" clip-rule="evenodd" d="M186.53 134.896L185.077 135.534L186.53 136.171L193.482 133.129L192.029 132.492L186.53 134.896Z" fill="#7A777E"/>
<path fill-rule="evenodd" clip-rule="evenodd" d="M184.579 134.044L183.122 134.677L184.579 135.314L191.527 132.273L190.074 131.64L184.579 134.044Z" fill="#7A777E"/>
<path fill-rule="evenodd" clip-rule="evenodd" d="M65.6304 43.24L98.3263 28.9302L132.898 44.0594V52.0585L99.1932 66.8111L64.6211 51.6778V43.6828L65.6304 43.24Z" fill="#B6A6CC"/>
<path fill-rule="evenodd" clip-rule="evenodd" d="M90.8173 36.6686L108.302 29.0171L126.784 37.1072H126.788V41.382L108.763 49.2735L90.2812 41.1833V36.9045L90.8173 36.6686Z" fill="#B6A6CC"/>
<path fill-rule="evenodd" clip-rule="evenodd" d="M47.7605 58.8864L98.0963 36.8589L151.309 60.1486L99.4281 82.8589L46.2109 59.5651L47.7605 58.8864Z" fill="#B6A6CC"/>
<path fill-rule="evenodd" clip-rule="evenodd" d="M46.2109 83.5168V59.5649L99.4281 82.8588V106.811L46.2109 83.5168Z" fill="#D3C5E6"/>
<path fill-rule="evenodd" clip-rule="evenodd" d="M151.309 60.1484L99.4277 82.8588V106.811L151.309 84.1002V60.1484Z" fill="#EBE5F6"/>
<path fill-rule="evenodd" clip-rule="evenodd" d="M65.6304 43.24L98.3263 28.9302L132.898 44.0594L99.1932 58.812L64.6211 43.6828L65.6304 43.24Z" fill="#B6A6CC"/>
<path fill-rule="evenodd" clip-rule="evenodd" d="M64.6211 51.6776V43.6826L99.1932 58.8118V66.8109L64.6211 51.6776Z" fill="#D3C5E6"/>
<path fill-rule="evenodd" clip-rule="evenodd" d="M132.899 44.0591L99.1934 58.8117V66.8108L132.899 52.0582V44.0591Z" fill="#EBE5F6"/>
<path fill-rule="evenodd" clip-rule="evenodd" d="M66.6773 59.8547L78.2153 54.8062L90.4192 60.1444L78.521 65.3544L66.3213 60.012L66.6773 59.8547Z" fill="#B6A6CC"/>
<path fill-rule="evenodd" clip-rule="evenodd" d="M66.3213 62.834V60.0117L78.521 65.3541V68.1764L66.3213 62.834Z" fill="#D3C5E6"/>
<path fill-rule="evenodd" clip-rule="evenodd" d="M90.4196 60.1445L78.5215 65.3545V68.1767L90.4196 62.9668V60.1445Z" fill="#EBE5F6"/>
<path fill-rule="evenodd" clip-rule="evenodd" d="M90.8173 36.6686L108.302 29.0171L126.784 37.1072L108.763 44.9946L90.2812 36.9045L90.8173 36.6686Z" fill="#B6A6CC"/>
<path fill-rule="evenodd" clip-rule="evenodd" d="M90.2812 41.1832V36.9043L108.763 44.9944V49.2733L90.2812 41.1832Z" fill="#D3C5E6"/>
<path fill-rule="evenodd" clip-rule="evenodd" d="M126.784 37.1069L108.763 44.9943V49.2732L126.784 41.3858V37.1069Z" fill="#EBE5F6"/>
<path fill-rule="evenodd" clip-rule="evenodd" d="M38.4712 85.2218L62.2005 74.835L87.2867 85.8136V85.8177V97.1067L62.8287 107.812L37.7383 96.8336V85.5404L38.4712 85.2218Z" fill="#B6A6CC"/>
<path fill-rule="evenodd" clip-rule="evenodd" d="M38.4712 85.2218L62.2005 74.835L87.2867 85.8177L62.8287 96.5191L37.7383 85.5404L38.4712 85.2218Z" fill="#B6A6CC"/>
<path fill-rule="evenodd" clip-rule="evenodd" d="M37.7383 96.8336V85.5405L62.8287 96.5191V107.812L37.7383 96.8336Z" fill="#D3C5E6"/>
<path fill-rule="evenodd" clip-rule="evenodd" d="M87.2871 85.8135L62.8291 96.519V107.812L87.2871 97.1066V85.8135Z" fill="#EBE5F6"/>
<path fill-rule="evenodd" clip-rule="evenodd" d="M23.7882 97.4833L40.7036 90.0801L58.5822 97.9095V105.958L41.1475 113.589L23.2646 105.76V97.7109L23.7882 97.4833Z" fill="#B6A6CC"/>
<path fill-rule="evenodd" clip-rule="evenodd" d="M23.7882 97.4833L40.7036 90.0801L58.5822 97.9095L41.1475 105.54L23.2646 97.7109L23.7882 97.4833Z" fill="#B6A6CC"/>
<path fill-rule="evenodd" clip-rule="evenodd" d="M23.2646 105.76V97.7109L41.1475 105.54V113.589L23.2646 105.76Z" fill="#D3C5E6"/>
<path fill-rule="evenodd" clip-rule="evenodd" d="M58.5822 97.9097L41.1475 105.54V113.589L58.5822 105.958V97.9097Z" fill="#EBE5F6"/>
<path fill-rule="evenodd" clip-rule="evenodd" d="M273.264 79.5361L304.096 66.0415L336.696 80.31V94.984L304.913 108.897L272.313 94.6239V79.9499L273.264 79.5361Z" fill="#B6A6CC"/>
<path fill-rule="evenodd" clip-rule="evenodd" d="M273.264 79.5361L304.096 66.0415L336.696 80.31L304.913 94.2225L272.313 79.9499L273.264 79.5361Z" fill="#B6A6CC"/>
<path fill-rule="evenodd" clip-rule="evenodd" d="M272.313 94.6237V79.9497L304.913 94.2223V108.896L272.313 94.6237Z" fill="#D3C5E6"/>
<path fill-rule="evenodd" clip-rule="evenodd" d="M336.696 80.3096L304.913 94.2221V108.896L336.696 94.9836V80.3096Z" fill="#EBE5F6"/>
<path fill-rule="evenodd" clip-rule="evenodd" d="M292.814 72.6664L310.106 65.0977L328.391 73.1009V81.3318L310.563 89.1322L292.282 81.129V72.9023L292.814 72.6664Z" fill="#B6A6CC"/>
<path fill-rule="evenodd" clip-rule="evenodd" d="M292.814 72.6664L310.106 65.0977L328.391 73.1009L310.563 80.9055L292.282 72.9023L292.814 72.6664Z" fill="#B6A6CC"/>
<path fill-rule="evenodd" clip-rule="evenodd" d="M292.282 81.1291V72.9023L310.563 80.9056V89.1323L292.282 81.1291Z" fill="#D3C5E6"/>
<path fill-rule="evenodd" clip-rule="evenodd" d="M328.391 73.1011L310.563 80.9057V89.1324L328.391 81.3319V73.1011Z" fill="#EBE5F6"/>
<path fill-rule="evenodd" clip-rule="evenodd" d="M316.577 94.8678L329.92 89.0288L344.025 95.203L344.029 95.1988V95.203V101.551L330.276 107.572L316.167 101.398V95.0457L316.577 94.8678Z" fill="#B6A6CC"/>
<path fill-rule="evenodd" clip-rule="evenodd" d="M316.577 94.8678L329.92 89.0288L344.029 95.203L330.276 101.22L316.167 95.0457L316.577 94.8678Z" fill="#B6A6CC"/>
<path fill-rule="evenodd" clip-rule="evenodd" d="M316.167 101.398V95.0459L330.276 101.22V107.572L316.167 101.398Z" fill="#D3C5E6"/>
<path fill-rule="evenodd" clip-rule="evenodd" d="M344.029 95.1987L330.276 101.22V107.572L344.029 101.551V95.1987Z" fill="#EBE5F6"/>
<path fill-rule="evenodd" clip-rule="evenodd" d="M336.009 103.525L346.379 98.9854L357.339 103.786V108.718L346.651 113.395L335.691 108.598V103.666L336.009 103.525Z" fill="#B6A6CC"/>
<path fill-rule="evenodd" clip-rule="evenodd" d="M336.009 103.525L346.379 98.9854L357.339 103.786L346.651 108.462L335.691 103.666L336.009 103.525Z" fill="#B6A6CC"/>
<path fill-rule="evenodd" clip-rule="evenodd" d="M335.691 108.598V103.666L346.651 108.462V113.394L335.691 108.598Z" fill="#D3C5E6"/>
<path fill-rule="evenodd" clip-rule="evenodd" d="M357.339 103.786L346.651 108.462V113.395L357.339 108.718V103.786Z" fill="#EBE5F6"/>
<path fill-rule="evenodd" clip-rule="evenodd" d="M179.126 16.9623L194.174 10.3784L210.084 17.3388V24.502L194.571 31.2887L178.661 24.3241V17.165L179.126 16.9623Z" fill="#B6A6CC"/>
<path fill-rule="evenodd" clip-rule="evenodd" d="M179.126 16.9623L194.174 10.3784L210.084 17.3388L194.571 24.1296L178.661 17.165L179.126 16.9623Z" fill="#B6A6CC"/>
<path fill-rule="evenodd" clip-rule="evenodd" d="M178.661 24.3282V17.165L194.571 24.1296V31.2887L178.661 24.3282Z" fill="#D3C5E6"/>
<path fill-rule="evenodd" clip-rule="evenodd" d="M210.084 17.3389L194.571 24.1296V31.2887L210.084 24.5021V17.3389Z" fill="#EBE5F6"/>
<path fill-rule="evenodd" clip-rule="evenodd" d="M326.708 39.3085L344 31.7397L362.285 39.7389V39.743V47.9697L344.456 55.7743L326.176 47.7711V39.5402L326.708 39.3085Z" fill="#B6A6CC"/>
<path fill-rule="evenodd" clip-rule="evenodd" d="M326.708 39.3085L328.337 38.5926L344 31.7397L362.285 39.743L344.456 47.5435L326.176 39.5402L326.708 39.3085Z" fill="#B6A6CC"/>
<path fill-rule="evenodd" clip-rule="evenodd" d="M326.176 47.7714V39.5405L344.456 47.5438V55.7746L326.176 47.7714Z" fill="#D3C5E6"/>
<path fill-rule="evenodd" clip-rule="evenodd" d="M362.285 39.7388L344.457 47.5434V55.7742L362.285 47.9696V39.7388Z" fill="#EBE5F6"/>
<path fill-rule="evenodd" clip-rule="evenodd" d="M321.267 72.3317L322.176 71.9344L312.016 67.4858L311.103 67.8831L321.267 72.3317Z" fill="#B2F2F2"/>
<path fill-rule="evenodd" clip-rule="evenodd" d="M312.016 67.4857V59.2549L322.176 63.7034V71.9343L312.016 67.4857Z" fill="#6DCFF2"/>
<path fill-rule="evenodd" clip-rule="evenodd" d="M311.731 67.7091V59.4824L321.892 63.9268V72.1577L311.731 67.7091Z" fill="#B6A6CC"/>
<path fill-rule="evenodd" clip-rule="evenodd" d="M311.103 67.883V59.6562L321.267 64.1007V72.3315L311.103 67.883Z" fill="#6DCFF2"/>
<path fill-rule="evenodd" clip-rule="evenodd" d="M319.081 73.2872L319.99 72.89L309.83 68.4414L308.917 68.8428L319.081 73.2872Z" fill="#B2F2F2"/>
<path fill-rule="evenodd" clip-rule="evenodd" d="M309.83 68.4416V60.2148L319.99 64.6593V72.8901L309.83 68.4416Z" fill="#6DCFF2"/>
<path fill-rule="evenodd" clip-rule="evenodd" d="M309.545 68.6693V60.4385L319.706 64.887V73.1137L309.545 68.6693Z" fill="#B6A6CC"/>
<path fill-rule="evenodd" clip-rule="evenodd" d="M308.917 68.8432V60.6123L319.081 65.0609V73.2876L308.917 68.8432Z" fill="#6DCFF2"/>
<path fill-rule="evenodd" clip-rule="evenodd" d="M316.895 68.5948L317.804 68.1976L307.644 63.749L306.731 64.1463L316.895 68.5948Z" fill="#B2F2F2"/>
<path fill-rule="evenodd" clip-rule="evenodd" d="M307.644 63.7489V55.5181L317.804 59.9666V68.1975L307.644 63.7489Z" fill="#6DCFF2"/>
<path fill-rule="evenodd" clip-rule="evenodd" d="M307.359 63.9723V55.7456L317.519 60.19V68.4209L307.359 63.9723Z" fill="#B6A6CC"/>
<path fill-rule="evenodd" clip-rule="evenodd" d="M306.731 64.1461V55.9194L316.895 60.3638V68.5947L306.731 64.1461Z" fill="#6DCFF2"/>
<path fill-rule="evenodd" clip-rule="evenodd" d="M314.709 75.2032L315.618 74.806L305.458 70.3574L304.545 70.7547L314.709 75.2032Z" fill="#B2F2F2"/>
<path fill-rule="evenodd" clip-rule="evenodd" d="M305.458 70.3573V62.1265L315.618 66.575V74.8059L305.458 70.3573Z" fill="#6DCFF2"/>
<path fill-rule="evenodd" clip-rule="evenodd" d="M305.173 70.5809V62.3501L315.333 66.7986V75.0295L305.173 70.5809Z" fill="#B6A6CC"/>
<path fill-rule="evenodd" clip-rule="evenodd" d="M304.545 70.7548V62.5239L314.709 66.9725V75.2033L304.545 70.7548Z" fill="#6DCFF2"/>
<path fill-rule="evenodd" clip-rule="evenodd" d="M312.523 76.1593L313.432 75.762L303.271 71.3135L302.358 71.7107L312.523 76.1593Z" fill="#B2F2F2"/>
<path fill-rule="evenodd" clip-rule="evenodd" d="M303.271 71.3134V63.0825L313.432 67.5311V75.7619L303.271 71.3134Z" fill="#6DCFF2"/>
<path fill-rule="evenodd" clip-rule="evenodd" d="M302.987 71.5368V63.3101L313.147 67.7545V75.9853L302.987 71.5368Z" fill="#B6A6CC"/>
<path fill-rule="evenodd" clip-rule="evenodd" d="M302.358 71.7106V63.4839L312.523 67.9283V76.1591L302.358 71.7106Z" fill="#6DCFF2"/>
<path fill-rule="evenodd" clip-rule="evenodd" d="M310.337 77.1153L311.245 76.7181L301.085 72.2695L300.172 72.6709L310.337 77.1153Z" fill="#B2F2F2"/>
<path fill-rule="evenodd" clip-rule="evenodd" d="M301.085 72.2694V64.0386L311.246 68.4871V76.718L301.085 72.2694Z" fill="#6DCFF2"/>
<path fill-rule="evenodd" clip-rule="evenodd" d="M300.801 72.4928V64.2661L310.961 68.7147V76.9414L300.801 72.4928Z" fill="#B6A6CC"/>
<path fill-rule="evenodd" clip-rule="evenodd" d="M300.172 72.6708V64.4399L310.337 68.8885V77.1152L300.172 72.6708Z" fill="#6DCFF2"/>
<path fill-rule="evenodd" clip-rule="evenodd" d="M340.16 94.065L341.073 93.6678L330.908 89.2192L330 89.6165L340.16 94.065Z" fill="#B2F2F2"/>
<path fill-rule="evenodd" clip-rule="evenodd" d="M330.908 89.2191V80.9883L341.073 85.4368V93.6677L330.908 89.2191Z" fill="#6DCFF2"/>
<path fill-rule="evenodd" clip-rule="evenodd" d="M330.624 89.4425V81.2158L340.788 85.6602V93.8911L330.624 89.4425Z" fill="#B6A6CC"/>
<path fill-rule="evenodd" clip-rule="evenodd" d="M330 89.6164V81.3896L340.16 85.8341V94.0649L330 89.6164Z" fill="#6DCFF2"/>
<path fill-rule="evenodd" clip-rule="evenodd" d="M337.974 95.0206L338.887 94.6234L328.722 90.1748L327.813 90.5762L337.974 95.0206Z" fill="#B2F2F2"/>
<path fill-rule="evenodd" clip-rule="evenodd" d="M328.722 90.175V81.9482L338.887 86.3927V94.6235L328.722 90.175Z" fill="#6DCFF2"/>
<path fill-rule="evenodd" clip-rule="evenodd" d="M328.438 90.3986V82.1719L338.602 86.6204V94.8471L328.438 90.3986Z" fill="#B6A6CC"/>
<path fill-rule="evenodd" clip-rule="evenodd" d="M327.813 90.5766V82.3457L337.974 86.7943V95.021L327.813 90.5766Z" fill="#6DCFF2"/>
<path fill-rule="evenodd" clip-rule="evenodd" d="M335.787 95.9808L336.7 95.5794L326.536 91.1309L325.627 91.5323L335.787 95.9808Z" fill="#B2F2F2"/>
<path fill-rule="evenodd" clip-rule="evenodd" d="M326.536 91.131V82.9043L336.7 87.3528V95.5796L326.536 91.131Z" fill="#6DCFF2"/>
<path fill-rule="evenodd" clip-rule="evenodd" d="M326.251 91.3588V83.1279L336.415 87.5765V95.8073L326.251 91.3588Z" fill="#B6A6CC"/>
<path fill-rule="evenodd" clip-rule="evenodd" d="M325.627 91.5326V83.3018L335.787 87.7503V95.9812L325.627 91.5326Z" fill="#6DCFF2"/>
<path fill-rule="evenodd" clip-rule="evenodd" d="M333.601 96.9371L334.514 96.5357L324.35 92.0913L323.441 92.4886L333.601 96.9371Z" fill="#B2F2F2"/>
<path fill-rule="evenodd" clip-rule="evenodd" d="M324.35 92.0912V83.8604L334.514 88.3089V96.5356L324.35 92.0912Z" fill="#6DCFF2"/>
<path fill-rule="evenodd" clip-rule="evenodd" d="M324.065 92.3148V84.084L334.229 88.5325V96.7634L324.065 92.3148Z" fill="#B6A6CC"/>
<path fill-rule="evenodd" clip-rule="evenodd" d="M323.441 92.4887V84.2578L333.601 88.7064V96.9372L323.441 92.4887Z" fill="#6DCFF2"/>
<path fill-rule="evenodd" clip-rule="evenodd" d="M331.415 97.8932L332.328 97.4959L322.164 93.0474L321.255 93.4446L331.415 97.8932Z" fill="#B2F2F2"/>
<path fill-rule="evenodd" clip-rule="evenodd" d="M322.164 93.0473V84.8164L332.328 89.265V97.4958L322.164 93.0473Z" fill="#6DCFF2"/>
<path fill-rule="evenodd" clip-rule="evenodd" d="M321.879 93.2707V85.0439L332.043 89.4884V97.7192L321.879 93.2707Z" fill="#B6A6CC"/>
<path fill-rule="evenodd" clip-rule="evenodd" d="M321.255 93.4445V85.2178L331.415 89.6622V97.893L321.255 93.4445Z" fill="#6DCFF2"/>
<path fill-rule="evenodd" clip-rule="evenodd" d="M329.229 98.8487L330.142 98.4515L319.978 94.0029L319.069 94.4043L329.229 98.8487Z" fill="#B2F2F2"/>
<path fill-rule="evenodd" clip-rule="evenodd" d="M319.978 94.0028V85.772L330.142 90.2205V98.4514L319.978 94.0028Z" fill="#6DCFF2"/>
<path fill-rule="evenodd" clip-rule="evenodd" d="M319.693 94.2262V85.9995L329.857 90.4481V98.6748L319.693 94.2262Z" fill="#B6A6CC"/>
<path fill-rule="evenodd" clip-rule="evenodd" d="M319.069 94.4042V86.1733L329.229 90.6219V98.8486L319.069 94.4042Z" fill="#6DCFF2"/>
<path fill-rule="evenodd" clip-rule="evenodd" d="M329.71 47.7256V42.6812L340.922 47.589V52.6335L329.71 47.7256Z" fill="#BBA6CC"/>
<path fill-rule="evenodd" clip-rule="evenodd" d="M331.319 43.3848L340.922 47.585V51.0239L331.319 46.8195V43.3848Z" fill="#642E8F"/>
<path fill-rule="evenodd" clip-rule="evenodd" d="M274.5 93.4443V88.3999L285.711 93.3078V98.3522L274.5 93.4443Z" fill="#BBA6CC"/>
<path fill-rule="evenodd" clip-rule="evenodd" d="M276.108 89.1035L285.711 93.3038V96.7426L276.108 92.5382V89.1035Z" fill="#642E8F"/>
<path fill-rule="evenodd" clip-rule="evenodd" d="M102.54 37.8395L101.627 37.4422L111.791 32.9937L112.7 33.3909L102.54 37.8395Z" fill="#B2F2F2"/>
<path fill-rule="evenodd" clip-rule="evenodd" d="M111.791 32.9935V24.7627L101.627 29.2112V37.4421L111.791 32.9935Z" fill="#6DCFF2"/>
<path fill-rule="evenodd" clip-rule="evenodd" d="M112.076 33.2174V24.9907L101.916 29.4351V37.666L112.076 33.2174Z" fill="#B6A6CC"/>
<path fill-rule="evenodd" clip-rule="evenodd" d="M112.7 33.3908V25.1641L102.54 29.6085V37.8393L112.7 33.3908Z" fill="#6DCFF2"/>
<path fill-rule="evenodd" clip-rule="evenodd" d="M110.09 32.4184V28.4209L105.148 30.581V34.5827L110.09 32.4184Z" fill="#B2F2F2"/>
<path fill-rule="evenodd" clip-rule="evenodd" d="M104.403 38.6549L103.49 38.2576L113.65 33.8091L114.563 34.2064L104.403 38.6549Z" fill="#B2F2F2"/>
<path fill-rule="evenodd" clip-rule="evenodd" d="M113.65 33.809V25.5781L103.49 30.0267V38.2575L113.65 33.809Z" fill="#6DCFF2"/>
<path fill-rule="evenodd" clip-rule="evenodd" d="M113.94 34.0326V25.8018L103.775 30.2503V38.4812L113.94 34.0326Z" fill="#B6A6CC"/>
<path fill-rule="evenodd" clip-rule="evenodd" d="M114.563 34.2064V25.9756L104.403 30.4241V38.655L114.563 34.2064Z" fill="#6DCFF2"/>
<path fill-rule="evenodd" clip-rule="evenodd" d="M111.955 33.2336V29.2319L107.013 31.3962V35.3978L111.955 33.2336Z" fill="#B2F2F2"/>
<path fill-rule="evenodd" clip-rule="evenodd" d="M106.263 39.4698L105.35 39.0684L115.514 34.624L116.423 35.0213L106.263 39.4698Z" fill="#B2F2F2"/>
<path fill-rule="evenodd" clip-rule="evenodd" d="M115.514 34.6244V26.3936L105.35 30.8421V39.0688L115.514 34.6244Z" fill="#6DCFF2"/>
<path fill-rule="evenodd" clip-rule="evenodd" d="M115.799 34.8475V26.6167L105.639 31.0652V39.2961L115.799 34.8475Z" fill="#B6A6CC"/>
<path fill-rule="evenodd" clip-rule="evenodd" d="M116.423 35.0214V26.7905L106.263 31.2391V39.4699L116.423 35.0214Z" fill="#6DCFF2"/>
<path fill-rule="evenodd" clip-rule="evenodd" d="M113.814 34.049V30.0474L108.872 32.2116V36.2133L113.814 34.049Z" fill="#B2F2F2"/>
<path fill-rule="evenodd" clip-rule="evenodd" d="M108.127 40.285L107.214 39.8836L117.374 35.4351L118.287 35.8365L108.127 40.285Z" fill="#B2F2F2"/>
<path fill-rule="evenodd" clip-rule="evenodd" d="M117.374 35.4352V27.2085L107.214 31.657V39.8838L117.374 35.4352Z" fill="#6DCFF2"/>
<path fill-rule="evenodd" clip-rule="evenodd" d="M117.662 35.663V27.4321L107.498 31.8807V40.1115L117.662 35.663Z" fill="#B6A6CC"/>
<path fill-rule="evenodd" clip-rule="evenodd" d="M118.287 35.8368V27.606L108.127 32.0545V40.2854L118.287 35.8368Z" fill="#6DCFF2"/>
<path fill-rule="evenodd" clip-rule="evenodd" d="M115.677 34.8644V30.8628L110.735 33.0271V37.0287L115.677 34.8644Z" fill="#B2F2F2"/>
<path fill-rule="evenodd" clip-rule="evenodd" d="M109.986 41.1004L109.077 40.699L119.237 36.2505L120.15 36.6519L109.986 41.1004Z" fill="#B2F2F2"/>
<path fill-rule="evenodd" clip-rule="evenodd" d="M119.237 36.2506V28.0239L109.077 32.4725V40.6992L119.237 36.2506Z" fill="#6DCFF2"/>
<path fill-rule="evenodd" clip-rule="evenodd" d="M119.522 36.4779V28.2471L109.362 32.6956V40.9265L119.522 36.4779Z" fill="#B6A6CC"/>
<path fill-rule="evenodd" clip-rule="evenodd" d="M120.151 36.6517V28.4209L109.986 32.8694V41.1003L120.151 36.6517Z" fill="#6DCFF2"/>
<path fill-rule="evenodd" clip-rule="evenodd" d="M117.537 35.6794V31.6777L112.595 33.842V37.8436L117.537 35.6794Z" fill="#B2F2F2"/>
<path fill-rule="evenodd" clip-rule="evenodd" d="M111.85 37.5045L110.937 37.1072L121.101 32.6587L122.01 33.056L111.85 37.5045Z" fill="#B2F2F2"/>
<path fill-rule="evenodd" clip-rule="evenodd" d="M121.101 32.6586V24.4277L110.937 28.8763V37.1071L121.101 32.6586Z" fill="#6DCFF2"/>
<path fill-rule="evenodd" clip-rule="evenodd" d="M121.386 32.882V24.6553L111.222 29.0997V37.3305L121.386 32.882Z" fill="#B6A6CC"/>
<path fill-rule="evenodd" clip-rule="evenodd" d="M122.01 33.0558V24.8291L111.85 29.2776V37.5044L122.01 33.0558Z" fill="#6DCFF2"/>
<path fill-rule="evenodd" clip-rule="evenodd" d="M119.401 32.0876V28.0859L114.459 30.2461V34.2477L119.401 32.0876Z" fill="#B2F2F2"/>
<path fill-rule="evenodd" clip-rule="evenodd" d="M87.0312 44.5101L87.9442 44.1087L77.7841 39.6602L76.8711 40.0616L87.0312 44.5101Z" fill="#B2F2F2"/>
<path fill-rule="evenodd" clip-rule="evenodd" d="M77.7842 39.6603V31.4336L87.9443 35.878V44.1089L77.7842 39.6603Z" fill="#6DCFF2"/>
<path fill-rule="evenodd" clip-rule="evenodd" d="M77.4951 39.8881V31.6572L87.6594 36.1058V44.3366L77.4951 39.8881Z" fill="#B6A6CC"/>
<path fill-rule="evenodd" clip-rule="evenodd" d="M76.8711 40.0619V31.8311L87.0312 36.2796V44.5105L76.8711 40.0619Z" fill="#6DCFF2"/>
<path fill-rule="evenodd" clip-rule="evenodd" d="M79.4805 39.0895V35.0879L84.4223 37.2522V41.2538L79.4805 39.0895Z" fill="#B2F2F2"/>
<path fill-rule="evenodd" clip-rule="evenodd" d="M85.1721 45.3214L86.0809 44.9241L75.9208 40.4756L75.0078 40.877L85.1721 45.3214Z" fill="#B2F2F2"/>
<path fill-rule="evenodd" clip-rule="evenodd" d="M75.9209 40.4757V32.249L86.081 36.6934V44.9243L75.9209 40.4757Z" fill="#6DCFF2"/>
<path fill-rule="evenodd" clip-rule="evenodd" d="M75.6357 40.703V32.4722L85.7959 36.9207V45.1474L75.6357 40.703Z" fill="#B6A6CC"/>
<path fill-rule="evenodd" clip-rule="evenodd" d="M75.0078 40.8768V32.646L85.1721 37.0945V45.3213L75.0078 40.8768Z" fill="#6DCFF2"/>
<path fill-rule="evenodd" clip-rule="evenodd" d="M77.6211 39.9045V35.9028L82.563 38.0671V42.0646L77.6211 39.9045Z" fill="#B2F2F2"/>
<path fill-rule="evenodd" clip-rule="evenodd" d="M83.3086 46.1368L84.2216 45.7396L74.0572 41.291L73.1484 41.6883L83.3086 46.1368Z" fill="#B2F2F2"/>
<path fill-rule="evenodd" clip-rule="evenodd" d="M74.0566 41.2909V33.0601L84.221 37.5086V45.7395L74.0566 41.2909Z" fill="#6DCFF2"/>
<path fill-rule="evenodd" clip-rule="evenodd" d="M73.7725 41.5143V33.2876L83.9368 37.7361V45.9629L73.7725 41.5143Z" fill="#B6A6CC"/>
<path fill-rule="evenodd" clip-rule="evenodd" d="M73.1484 41.6881V33.4614L83.3086 37.91V46.1367L73.1484 41.6881Z" fill="#6DCFF2"/>
<path fill-rule="evenodd" clip-rule="evenodd" d="M75.7568 40.7199V36.7183L80.6987 38.8784V42.88L75.7568 40.7199Z" fill="#B2F2F2"/>
<path fill-rule="evenodd" clip-rule="evenodd" d="M81.4485 46.9518L82.3573 46.5545L72.1972 42.106L71.2842 42.5032L81.4485 46.9518Z" fill="#B2F2F2"/>
<path fill-rule="evenodd" clip-rule="evenodd" d="M72.1973 42.1059V33.875L82.3574 38.3235V46.5544L72.1973 42.1059Z" fill="#6DCFF2"/>
<path fill-rule="evenodd" clip-rule="evenodd" d="M71.9131 42.3292V34.1025L82.0732 38.5469V46.7778L71.9131 42.3292Z" fill="#B6A6CC"/>
<path fill-rule="evenodd" clip-rule="evenodd" d="M71.2842 42.5031V34.2764L81.4485 38.7208V46.9516L71.2842 42.5031Z" fill="#6DCFF2"/>
<path fill-rule="evenodd" clip-rule="evenodd" d="M73.8975 41.5348V37.5332L78.8393 39.6933V43.695L73.8975 41.5348Z" fill="#B2F2F2"/>
<path fill-rule="evenodd" clip-rule="evenodd" d="M79.5849 47.7672L80.4979 47.3699L70.3336 42.9214L69.4248 43.3187L79.5849 47.7672Z" fill="#B2F2F2"/>
<path fill-rule="evenodd" clip-rule="evenodd" d="M70.334 42.9213V34.6904L80.4983 39.139V47.3698L70.334 42.9213Z" fill="#6DCFF2"/>
<path fill-rule="evenodd" clip-rule="evenodd" d="M70.0488 43.1449V34.9141L80.2132 39.3626V47.5935L70.0488 43.1449Z" fill="#B6A6CC"/>
<path fill-rule="evenodd" clip-rule="evenodd" d="M69.4248 43.3185V35.0918L79.5849 39.5362V47.7671L69.4248 43.3185Z" fill="#6DCFF2"/>
<path fill-rule="evenodd" clip-rule="evenodd" d="M72.0342 42.3461V38.3486L76.976 40.5088V44.5104L72.0342 42.3461Z" fill="#B2F2F2"/>
<path fill-rule="evenodd" clip-rule="evenodd" d="M102.582 51.4874L103.495 51.0901L93.3307 46.6416L92.4219 47.0389L102.582 51.4874Z" fill="#B2F2F2"/>
<path fill-rule="evenodd" clip-rule="evenodd" d="M93.3301 46.6415V38.4106L103.494 42.8592V51.09L93.3301 46.6415Z" fill="#6DCFF2"/>
<path fill-rule="evenodd" clip-rule="evenodd" d="M93.0459 46.8651V38.6343L103.21 43.0828V51.3137L93.0459 46.8651Z" fill="#B6A6CC"/>
<path fill-rule="evenodd" clip-rule="evenodd" d="M92.4219 47.039V38.8081L102.582 43.2567V51.4875L92.4219 47.039Z" fill="#6DCFF2"/>
<path fill-rule="evenodd" clip-rule="evenodd" d="M95.0303 46.0661V42.0645L99.9721 44.2287V48.2303L95.0303 46.0661Z" fill="#B2F2F2"/>
<path fill-rule="evenodd" clip-rule="evenodd" d="M100.722 52.3024L101.631 51.901L91.4706 47.4565L90.5576 47.8538L100.722 52.3024Z" fill="#B2F2F2"/>
<path fill-rule="evenodd" clip-rule="evenodd" d="M91.4707 47.4569V39.2261L101.631 43.6746V51.9013L91.4707 47.4569Z" fill="#6DCFF2"/>
<path fill-rule="evenodd" clip-rule="evenodd" d="M91.1855 47.6801V39.4492L101.346 43.8978V52.1286L91.1855 47.6801Z" fill="#B6A6CC"/>
<path fill-rule="evenodd" clip-rule="evenodd" d="M90.5576 47.8539V39.623L100.722 44.0716V52.3024L90.5576 47.8539Z" fill="#6DCFF2"/>
<path fill-rule="evenodd" clip-rule="evenodd" d="M93.167 46.8815V42.8799L98.1089 45.0442V49.0458L93.167 46.8815Z" fill="#B2F2F2"/>
<path fill-rule="evenodd" clip-rule="evenodd" d="M98.8584 53.1175L99.7714 52.7161L89.607 48.2676L88.6982 48.669L98.8584 53.1175Z" fill="#B2F2F2"/>
<path fill-rule="evenodd" clip-rule="evenodd" d="M89.6074 48.2677V40.041L99.7717 44.4896V52.7163L89.6074 48.2677Z" fill="#6DCFF2"/>
<path fill-rule="evenodd" clip-rule="evenodd" d="M89.3223 48.4955V40.2646L99.4824 44.7132V52.944L89.3223 48.4955Z" fill="#B6A6CC"/>
<path fill-rule="evenodd" clip-rule="evenodd" d="M88.6982 48.6693V40.4385L98.8584 44.887V53.1179L88.6982 48.6693Z" fill="#6DCFF2"/>
<path fill-rule="evenodd" clip-rule="evenodd" d="M91.3076 47.6969V43.6953L96.2495 45.8596V49.8612L91.3076 47.6969Z" fill="#B2F2F2"/>
<path fill-rule="evenodd" clip-rule="evenodd" d="M96.9993 53.9288L97.9081 53.5316L87.748 49.083L86.835 49.4844L96.9993 53.9288Z" fill="#B2F2F2"/>
<path fill-rule="evenodd" clip-rule="evenodd" d="M87.748 49.0832V40.8564L97.9082 45.3009V53.5317L87.748 49.0832Z" fill="#6DCFF2"/>
<path fill-rule="evenodd" clip-rule="evenodd" d="M87.4629 49.3104V41.0796L97.623 45.5281V53.7548L87.4629 49.3104Z" fill="#B6A6CC"/>
<path fill-rule="evenodd" clip-rule="evenodd" d="M86.835 49.4843V41.2534L96.9993 45.702V53.9287L86.835 49.4843Z" fill="#6DCFF2"/>
<path fill-rule="evenodd" clip-rule="evenodd" d="M89.4434 48.5119V44.5103L94.3852 46.6745V50.672L89.4434 48.5119Z" fill="#B2F2F2"/>
<path fill-rule="evenodd" clip-rule="evenodd" d="M95.1357 54.7442L96.0487 54.347L85.8844 49.8984L84.9756 50.2998L95.1357 54.7442Z" fill="#B2F2F2"/>
<path fill-rule="evenodd" clip-rule="evenodd" d="M85.8838 49.8983V41.6675L96.0481 46.116V54.3469L85.8838 49.8983Z" fill="#6DCFF2"/>
<path fill-rule="evenodd" clip-rule="evenodd" d="M85.5996 50.1217V41.895L95.7597 46.3436V54.5703L85.5996 50.1217Z" fill="#B6A6CC"/>
<path fill-rule="evenodd" clip-rule="evenodd" d="M84.9756 50.2997V42.0688L95.1357 46.5174V54.7441L84.9756 50.2997Z" fill="#6DCFF2"/>
<path fill-rule="evenodd" clip-rule="evenodd" d="M87.584 49.3273V45.3257L92.5258 47.4858V51.4874L87.584 49.3273Z" fill="#B2F2F2"/>
<path fill-rule="evenodd" clip-rule="evenodd" d="M93.2757 55.5592L94.1845 55.1619L84.0243 50.7134L83.1113 51.1106L93.2757 55.5592Z" fill="#B2F2F2"/>
<path fill-rule="evenodd" clip-rule="evenodd" d="M84.0244 50.7133V42.4824L94.1845 46.931V55.1618L84.0244 50.7133Z" fill="#6DCFF2"/>
<path fill-rule="evenodd" clip-rule="evenodd" d="M83.7354 50.9367V42.71L93.8997 47.1585V55.3852L83.7354 50.9367Z" fill="#B6A6CC"/>
<path fill-rule="evenodd" clip-rule="evenodd" d="M83.1113 51.1105V42.8838L93.2757 47.3323V55.559L83.1113 51.1105Z" fill="#6DCFF2"/>
<path fill-rule="evenodd" clip-rule="evenodd" d="M85.7207 50.1422V46.1406L90.6626 48.3008V52.3024L85.7207 50.1422Z" fill="#B2F2F2"/>
<path fill-rule="evenodd" clip-rule="evenodd" d="M278.671 91.1392L283.148 93.1007V94.7021L278.671 92.7448V91.1392Z" fill="#C0B6FB"/>
<path fill-rule="evenodd" clip-rule="evenodd" d="M333.605 45.3545L338.082 47.3119V48.9175L333.605 46.956V45.3545Z" fill="#C0B6FB"/>
<path fill-rule="evenodd" clip-rule="evenodd" d="M331.319 43.3848L331.633 43.5213V46.6001L340.922 50.6638V51.0239L331.319 46.8195V43.3848Z" fill="#C0B6FB"/>
<path fill-rule="evenodd" clip-rule="evenodd" d="M276.108 89.1035L276.422 89.2401V92.3147L285.711 96.3826V96.7426L276.108 92.5382V89.1035Z" fill="#C0B6FB"/>
<path fill-rule="evenodd" clip-rule="evenodd" d="M146.778 71.6069V66.5625L135.566 71.4704V76.5148L146.778 71.6069Z" fill="#BBA6CC"/>
<path fill-rule="evenodd" clip-rule="evenodd" d="M145.17 67.2661L135.566 71.4705V74.9052L145.17 70.7008V67.2661Z" fill="#642E8F"/>
<path fill-rule="evenodd" clip-rule="evenodd" d="M142.607 69.3062L138.13 71.2635V72.865L142.607 70.9076V69.3062Z" fill="#C0B6FB"/>
<path fill-rule="evenodd" clip-rule="evenodd" d="M145.17 67.2661L144.855 67.4027V70.4815L135.566 74.5452V74.9052L145.17 70.7008V67.2661Z" fill="#C0B6FB"/>
<path fill-rule="evenodd" clip-rule="evenodd" d="M31.5192 97.5987L30.6104 97.2015L40.7705 92.7529L41.6835 93.1543L31.5192 97.5987Z" fill="#B2F2F2"/>
<path fill-rule="evenodd" clip-rule="evenodd" d="M40.7705 92.7531V84.5264L30.6104 88.9708V97.2016L40.7705 92.7531Z" fill="#6DCFF2"/>
<path fill-rule="evenodd" clip-rule="evenodd" d="M41.0556 92.9808V84.75L30.8955 89.1985V97.4253L41.0556 92.9808Z" fill="#B6A6CC"/>
<path fill-rule="evenodd" clip-rule="evenodd" d="M41.6839 93.1547V84.9238L31.5195 89.3724V97.5991L41.6839 93.1547Z" fill="#6DCFF2"/>
<path fill-rule="evenodd" clip-rule="evenodd" d="M33.7057 98.5592L32.7969 98.1578L42.957 93.7134L43.87 94.1106L33.7057 98.5592Z" fill="#B2F2F2"/>
<path fill-rule="evenodd" clip-rule="evenodd" d="M42.957 93.7133V85.4824L32.7969 89.931V98.1577L42.957 93.7133Z" fill="#6DCFF2"/>
<path fill-rule="evenodd" clip-rule="evenodd" d="M43.2422 93.9369V85.7061L33.082 90.1546V98.3855L43.2422 93.9369Z" fill="#B6A6CC"/>
<path fill-rule="evenodd" clip-rule="evenodd" d="M43.8704 94.1107V85.8799L33.7061 90.3284V98.5593L43.8704 94.1107Z" fill="#6DCFF2"/>
<path fill-rule="evenodd" clip-rule="evenodd" d="M35.8912 99.5152L34.9824 99.118L45.1426 94.6694L46.0555 95.0667L35.8912 99.5152Z" fill="#B2F2F2"/>
<path fill-rule="evenodd" clip-rule="evenodd" d="M45.1426 94.6693V86.4385L34.9824 90.887V99.1179L45.1426 94.6693Z" fill="#6DCFF2"/>
<path fill-rule="evenodd" clip-rule="evenodd" d="M45.4277 94.893V86.6621L35.2676 91.1107V99.3415L45.4277 94.893Z" fill="#B6A6CC"/>
<path fill-rule="evenodd" clip-rule="evenodd" d="M46.0559 95.0668V86.8359L35.8916 91.2845V99.5153L46.0559 95.0668Z" fill="#6DCFF2"/>
<path fill-rule="evenodd" clip-rule="evenodd" d="M38.0777 100.471L37.1689 100.074L47.3291 95.6255L48.2421 96.0228L38.0777 100.471Z" fill="#B2F2F2"/>
<path fill-rule="evenodd" clip-rule="evenodd" d="M47.3291 95.6254V87.3945L37.1689 91.8431V100.074L47.3291 95.6254Z" fill="#6DCFF2"/>
<path fill-rule="evenodd" clip-rule="evenodd" d="M47.6142 95.8488V87.6221L37.4541 92.0665V100.297L47.6142 95.8488Z" fill="#B6A6CC"/>
<path fill-rule="evenodd" clip-rule="evenodd" d="M48.2425 96.0226V87.7959L38.0781 92.2403V100.471L48.2425 96.0226Z" fill="#6DCFF2"/>
<path fill-rule="evenodd" clip-rule="evenodd" d="M40.2643 101.427L39.3555 101.03L49.5156 96.5811L50.4286 96.9825L40.2643 101.427Z" fill="#B2F2F2"/>
<path fill-rule="evenodd" clip-rule="evenodd" d="M49.5156 96.5812V88.3545L39.3555 92.7989V101.03L49.5156 96.5812Z" fill="#6DCFF2"/>
<path fill-rule="evenodd" clip-rule="evenodd" d="M49.8008 96.809V88.5781L39.6406 93.0267V101.253L49.8008 96.809Z" fill="#B6A6CC"/>
<path fill-rule="evenodd" clip-rule="evenodd" d="M50.429 96.9828V88.752L40.2646 93.2005V101.427L50.429 96.9828Z" fill="#6DCFF2"/>
<path fill-rule="evenodd" clip-rule="evenodd" d="M42.4498 102.387L41.541 101.985L51.7011 97.5366L52.6141 97.938L42.4498 102.387Z" fill="#B2F2F2"/>
<path fill-rule="evenodd" clip-rule="evenodd" d="M51.7011 97.5368V89.3101L41.541 93.7586V101.985L51.7011 97.5368Z" fill="#6DCFF2"/>
<path fill-rule="evenodd" clip-rule="evenodd" d="M51.9863 97.7645V89.5337L41.8262 93.9822V102.213L51.9863 97.7645Z" fill="#B6A6CC"/>
<path fill-rule="evenodd" clip-rule="evenodd" d="M52.6145 97.9384V89.7075L42.4502 94.1561V102.387L52.6145 97.9384Z" fill="#6DCFF2"/>
<path fill-rule="evenodd" clip-rule="evenodd" d="M111.85 21.3199L110.937 20.9227L121.101 16.4741L122.01 16.8714L111.85 21.3199Z" fill="#B2F2F2"/>
<path fill-rule="evenodd" clip-rule="evenodd" d="M121.101 16.474V8.24316L110.937 12.6917V20.9226L121.101 16.474Z" fill="#6DCFF2"/>
<path fill-rule="evenodd" clip-rule="evenodd" d="M121.386 16.6974V8.4707L111.222 12.9193V21.146L121.386 16.6974Z" fill="#B6A6CC"/>
<path fill-rule="evenodd" clip-rule="evenodd" d="M122.01 16.8712V8.64453L111.85 13.0931V21.3198L122.01 16.8712Z" fill="#6DCFF2"/>
<path fill-rule="evenodd" clip-rule="evenodd" d="M119.401 15.903V11.9014L114.459 14.0615V18.0631L119.401 15.903Z" fill="#B2F2F2"/>
<path fill-rule="evenodd" clip-rule="evenodd" d="M215.256 83.1483L165.494 104.932C182.112 112.19 198.73 119.453 215.332 126.744C231.933 119.453 248.551 112.19 265.169 104.932C248.572 97.6403 231.966 90.3157 215.332 83.1152L215.256 83.1483ZM166.424 104.932L215.332 83.5249L264.239 104.932L215.332 126.339L166.424 104.932Z" fill="#6847B9"/>
<path fill-rule="evenodd" clip-rule="evenodd" d="M152.055 110.767L102.293 132.55C118.911 139.809 135.529 147.071 152.13 154.363C168.732 147.071 185.35 139.809 201.968 132.55C185.371 125.259 168.765 117.934 152.13 110.734L152.055 110.767ZM103.223 132.55L152.13 111.144L201.038 132.55L152.13 153.957L103.223 132.55Z" fill="#6847B9"/>
<path fill-rule="evenodd" clip-rule="evenodd" d="M156.456 66.0577L155.543 65.6605L165.707 61.2119L166.616 61.6092L156.456 66.0577Z" fill="#B2F2F2"/>
<path fill-rule="evenodd" clip-rule="evenodd" d="M165.707 61.2118V52.981L155.543 57.4295V65.6604L165.707 61.2118Z" fill="#6DCFF2"/>
<path fill-rule="evenodd" clip-rule="evenodd" d="M165.992 61.4357V53.209L155.828 57.6575V65.8842L165.992 61.4357Z" fill="#B6A6CC"/>
<path fill-rule="evenodd" clip-rule="evenodd" d="M166.616 61.6095V53.3828L156.456 57.8314V66.0581L166.616 61.6095Z" fill="#6DCFF2"/>
<path fill-rule="evenodd" clip-rule="evenodd" d="M164.007 60.6408V56.6392L159.065 58.7993V62.8009L164.007 60.6408Z" fill="#B2F2F2"/>
<path fill-rule="evenodd" clip-rule="evenodd" d="M158.316 66.8732L157.407 66.4759L167.567 62.0273L168.48 62.4246L158.316 66.8732Z" fill="#B2F2F2"/>
<path fill-rule="evenodd" clip-rule="evenodd" d="M167.567 62.0272V53.7964L157.407 58.2449V66.4758L167.567 62.0272Z" fill="#6DCFF2"/>
<path fill-rule="evenodd" clip-rule="evenodd" d="M167.852 62.2506V54.0239L157.691 58.4683V66.6992L167.852 62.2506Z" fill="#B6A6CC"/>
<path fill-rule="evenodd" clip-rule="evenodd" d="M168.48 62.4245V54.1978L158.315 58.6422V66.873L168.48 62.4245Z" fill="#6DCFF2"/>
<path fill-rule="evenodd" clip-rule="evenodd" d="M165.871 61.4521V57.4546L160.929 59.6147V63.6163L165.871 61.4521Z" fill="#B2F2F2"/>
<path fill-rule="evenodd" clip-rule="evenodd" d="M160.18 67.6881L159.267 67.2908L169.431 62.8423L170.34 63.2396L160.18 67.6881Z" fill="#B2F2F2"/>
<path fill-rule="evenodd" clip-rule="evenodd" d="M169.431 62.8427V54.6118L159.267 59.0604V67.2912L169.431 62.8427Z" fill="#6DCFF2"/>
<path fill-rule="evenodd" clip-rule="evenodd" d="M169.716 63.0658V54.835L159.556 59.2835V67.5144L169.716 63.0658Z" fill="#B6A6CC"/>
<path fill-rule="evenodd" clip-rule="evenodd" d="M170.34 63.2396V55.0088L160.18 59.4573V67.6882L170.34 63.2396Z" fill="#6DCFF2"/>
<path fill-rule="evenodd" clip-rule="evenodd" d="M167.73 62.2675V58.27L162.788 60.4302V64.4318L167.73 62.2675Z" fill="#B2F2F2"/>
<path fill-rule="evenodd" clip-rule="evenodd" d="M162.039 68.5035L161.13 68.1021L171.29 63.6577L172.203 64.055L162.039 68.5035Z" fill="#B2F2F2"/>
<path fill-rule="evenodd" clip-rule="evenodd" d="M171.29 63.6576V55.4268L161.13 59.8753V68.102L171.29 63.6576Z" fill="#6DCFF2"/>
<path fill-rule="evenodd" clip-rule="evenodd" d="M171.579 63.8812V55.6504L161.415 60.0989V68.3298L171.579 63.8812Z" fill="#B6A6CC"/>
<path fill-rule="evenodd" clip-rule="evenodd" d="M172.203 64.0551V55.8242L162.039 60.2728V68.5036L172.203 64.0551Z" fill="#6DCFF2"/>
<path fill-rule="evenodd" clip-rule="evenodd" d="M169.594 63.0827V59.0811L164.652 61.2453V65.2469L169.594 63.0827Z" fill="#B2F2F2"/>
<path fill-rule="evenodd" clip-rule="evenodd" d="M163.902 69.319L162.989 68.9176L173.154 64.4731L174.062 64.8704L163.902 69.319Z" fill="#B2F2F2"/>
<path fill-rule="evenodd" clip-rule="evenodd" d="M173.154 64.473V56.2422L162.989 60.6907V68.9174L173.154 64.473Z" fill="#6DCFF2"/>
<path fill-rule="evenodd" clip-rule="evenodd" d="M173.438 64.6962V56.4653L163.278 60.9139V69.1447L173.438 64.6962Z" fill="#B6A6CC"/>
<path fill-rule="evenodd" clip-rule="evenodd" d="M174.062 64.87V56.6392L163.902 61.0877V69.3186L174.062 64.87Z" fill="#6DCFF2"/>
<path fill-rule="evenodd" clip-rule="evenodd" d="M171.454 63.8976V59.896L166.512 62.0603V66.0619L171.454 63.8976Z" fill="#B2F2F2"/>
<path fill-rule="evenodd" clip-rule="evenodd" d="M165.762 43.8397L164.853 43.4383L175.013 38.9897L175.926 39.3912L165.762 43.8397Z" fill="#B2F2F2"/>
<path fill-rule="evenodd" clip-rule="evenodd" d="M175.013 38.9899V30.7632L164.853 35.2117V43.4384L175.013 38.9899Z" fill="#6DCFF2"/>
<path fill-rule="evenodd" clip-rule="evenodd" d="M175.303 39.2177V30.9868L165.138 35.4354V43.6662L175.303 39.2177Z" fill="#B6A6CC"/>
<path fill-rule="evenodd" clip-rule="evenodd" d="M175.927 39.3915V31.1606L165.762 35.6092V43.84L175.927 39.3915Z" fill="#6DCFF2"/>
<path fill-rule="evenodd" clip-rule="evenodd" d="M173.317 38.4191V34.4175L168.375 36.5818V40.5834L173.317 38.4191Z" fill="#B2F2F2"/>
<path fill-rule="evenodd" clip-rule="evenodd" d="M190.551 23.7695L193.39 25.011V26.029L190.551 24.7875V23.7695ZM190.551 25.371V26.389L193.39 27.6305V26.6125L190.551 25.371Z" fill="#642E8F"/>
<path fill-rule="evenodd" clip-rule="evenodd" d="M159.509 86.3931L156.67 87.6345V88.6525L159.509 87.4111V86.3931ZM159.509 87.9945V89.0125L156.67 90.254V89.236L159.509 87.9945Z" fill="#642E8F"/>
<path fill-rule="evenodd" clip-rule="evenodd" d="M159.509 76.8916L156.67 78.1331V79.1511L159.509 77.9096V76.8916ZM159.509 78.4889V79.5069L156.67 80.7484V79.7304L159.509 78.4889Z" fill="#642E8F"/>
<path fill-rule="evenodd" clip-rule="evenodd" d="M179.201 15.9318L194.174 9.37697L209.619 16.1388L194.571 22.7226L179.126 15.9608L179.201 15.9277V15.9318ZM194.098 9.00453C188.8 11.3219 183.503 13.6517 178.196 15.9608C183.653 18.3527 189.11 20.7487 194.571 23.1282C199.907 20.8356 205.226 18.4686 210.549 16.1346C205.092 13.7428 199.631 11.3633 194.174 8.96729L194.098 9.00039V9.00453Z" fill="#6DCFF2"/>
<path fill-rule="evenodd" clip-rule="evenodd" d="M179.201 14.376L194.174 7.82107L209.619 14.5829L194.571 21.1667L179.126 14.4049L179.201 14.3718V14.376ZM194.098 7.44863C188.8 9.76602 183.503 12.0958 178.196 14.4091C183.653 16.8009 189.11 19.1969 194.571 21.5764C199.907 19.2838 205.226 16.9168 210.549 14.5829C205.092 12.191 199.631 9.81154 194.174 7.41553L194.098 7.44863Z" fill="#8F54EF"/>
<path fill-rule="evenodd" clip-rule="evenodd" d="M263.858 46.108L278.906 39.52L294.816 46.4846L279.303 53.2753L263.393 46.3108L263.858 46.108Z" fill="#6DCFF2"/>
<path fill-rule="evenodd" clip-rule="evenodd" d="M263.858 44.5558L278.906 37.9678L294.816 44.9323L279.303 51.7231L263.393 44.7585L263.858 44.5558Z" fill="#B6A6CC"/>
<path fill-rule="evenodd" clip-rule="evenodd" d="M263.858 43.1324L278.906 36.5444L294.816 43.509L279.303 50.2998L263.393 43.3352L263.858 43.1324Z" fill="#6DCFF2"/>
<path fill-rule="evenodd" clip-rule="evenodd" d="M294.816 46.4841L279.303 53.2749V50.2996L294.816 43.5088V46.4841Z" fill="#B2F2F2"/>
<path fill-rule="evenodd" clip-rule="evenodd" d="M263.858 41.2623L278.906 34.6743L294.816 41.6389L279.303 48.4255L263.393 41.4651L263.858 41.2623Z" fill="#6DCFF2"/>
<path fill-rule="evenodd" clip-rule="evenodd" d="M263.858 39.7101L278.906 33.1221L294.816 40.0866L279.303 46.8733L263.393 39.9128L263.858 39.7101Z" fill="#B6A6CC"/>
<path fill-rule="evenodd" clip-rule="evenodd" d="M263.858 38.2867L278.906 31.6987L294.816 38.6633L279.303 45.4541L263.393 38.4895L263.858 38.2867Z" fill="#6DCFF2"/>
<path fill-rule="evenodd" clip-rule="evenodd" d="M294.816 41.6384L279.303 48.4251V45.4538L294.816 38.6631V41.6384Z" fill="#B2F2F2"/>
<path fill-rule="evenodd" clip-rule="evenodd" d="M303.766 36.743L312.594 32.8779L321.929 36.9623L312.828 40.9474L303.498 36.8589L303.766 36.743Z" fill="#6DCFF2"/>
<path fill-rule="evenodd" clip-rule="evenodd" d="M303.766 35.8323L312.594 31.9673L321.929 36.0517L312.828 40.0367L303.498 35.9482L303.766 35.8323Z" fill="#B6A6CC"/>
<path fill-rule="evenodd" clip-rule="evenodd" d="M303.766 34.9964L312.594 31.1313L321.929 35.2199L312.828 39.2008L303.498 35.1164L303.766 34.9964Z" fill="#6DCFF2"/>
<path fill-rule="evenodd" clip-rule="evenodd" d="M321.929 36.9624L312.829 40.9475V39.2011L321.929 35.2202V36.9624Z" fill="#B2F2F2"/>
<path fill-rule="evenodd" clip-rule="evenodd" d="M54.7539 81.3199L68.4739 87.3285L72.7791 85.4457L59.0592 79.437L54.7539 81.3199Z" fill="#6847B9"/>
<path fill-rule="evenodd" clip-rule="evenodd" d="M70.8236 86.3019L59.0594 81.1499L56.71 82.1803L68.4741 87.3282L70.8236 86.3019Z" fill="#642E8F"/>
<path fill-rule="evenodd" clip-rule="evenodd" d="M59.5283 83.4136V76.3828L69.6926 80.8272V86.7945L68.4739 87.3283L59.5283 83.4136Z" fill="#6DCFF2"/>
<path fill-rule="evenodd" clip-rule="evenodd" d="M59.2432 83.2855V76.6064L69.4075 81.055V86.9188L68.4736 87.3285L59.2432 83.2855Z" fill="#B6A6CC"/>
<path fill-rule="evenodd" clip-rule="evenodd" d="M58.6191 83.0124V76.7803L68.7793 81.2288V87.1961L68.4736 87.3285L58.6191 83.0124Z" fill="#6DCFF2"/>
<path fill-rule="evenodd" clip-rule="evenodd" d="M59.5283 83.4136V82.1846L69.6926 86.629V86.7945L68.4739 87.3283L59.5283 83.4136Z" fill="#6DCFF2"/>
<path fill-rule="evenodd" clip-rule="evenodd" d="M59.2432 83.2852V82.0562L69.4075 86.5047V86.9185L68.4736 87.3282L59.2432 83.2852Z" fill="#B6A6CC"/>
<path fill-rule="evenodd" clip-rule="evenodd" d="M58.6191 83.0122V81.7832L68.7793 86.2318V87.1959L68.4736 87.3284L58.6191 83.0122Z" fill="#66E5E2"/>
<path fill-rule="evenodd" clip-rule="evenodd" d="M68.7803 75.7701L69.6932 75.3729L59.5289 70.9243L58.6201 71.3257L68.7803 75.7701Z" fill="#B2F2F2"/>
<path fill-rule="evenodd" clip-rule="evenodd" d="M59.5293 70.9245V62.6978L69.6936 67.1422V75.373L59.5293 70.9245Z" fill="#6DCFF2"/>
<path fill-rule="evenodd" clip-rule="evenodd" d="M59.2441 71.1522V62.9214L69.4085 67.3699V75.5966L59.2441 71.1522Z" fill="#B6A6CC"/>
<path fill-rule="evenodd" clip-rule="evenodd" d="M58.6201 71.3261V63.0952L68.7803 67.5438V75.7705L58.6201 71.3261Z" fill="#6DCFF2"/>
<path fill-rule="evenodd" clip-rule="evenodd" d="M273.34 71.8099L304.101 58.3484L311.107 61.4148V61.0134L304.101 57.9429L304.025 57.976C293.3 62.6687 282.583 67.3779 271.853 72.0582C282.868 76.8916 293.886 81.725 304.917 86.5295C315.689 81.8988 326.427 77.1192 337.165 72.4141C332.173 70.225 327.177 68.0442 322.18 65.8592V66.2606L336.235 72.4141L304.917 86.1198L272.783 72.0541L273.344 71.8099H273.34Z" fill="#B6A6CC"/>
<path fill-rule="evenodd" clip-rule="evenodd" d="M273.34 69.7574L304.101 56.2959L306.735 57.4505V57.0491L304.101 55.8945L304.025 55.9276C293.3 60.6203 282.583 65.3296 271.853 70.0099C282.868 74.8433 293.886 79.6767 304.917 84.4811C315.689 79.8505 326.427 75.0709 337.165 70.3658C330.716 67.5394 324.262 64.7213 317.808 61.899V62.3004L336.235 70.3658L304.917 84.0714L272.783 70.0057L273.344 69.7616L273.34 69.7574Z" fill="#B6A6CC"/>
<path fill-rule="evenodd" clip-rule="evenodd" d="M108.474 82.5444L105.635 83.7859V84.8039L108.474 83.5624V82.5444ZM108.474 84.1459V85.1639L105.635 86.4054V85.3874L108.474 84.1459Z" fill="#642E8F"/>
<path fill-rule="evenodd" clip-rule="evenodd" d="M128.057 70.3286L127.383 70.6224V94.5742L128.057 94.2804V70.3286Z" fill="#D3C5E6"/>
<path fill-rule="evenodd" clip-rule="evenodd" d="M337.852 37.9719L348.088 42.4536L351.3 41.0466L341.064 36.5649L337.852 37.9719Z" fill="#C8AEEF"/>
<path fill-rule="evenodd" clip-rule="evenodd" d="M349.838 41.6881L341.064 37.8438L339.31 38.6093L348.088 42.4537L349.838 41.6881Z" fill="#642E8F"/>
<path fill-rule="evenodd" clip-rule="evenodd" d="M341.416 39.5319V34.2847L348.996 37.6035V42.0562L348.088 42.4534L341.416 39.5319Z" fill="#6DCFF2"/>
<path fill-rule="evenodd" clip-rule="evenodd" d="M341.203 39.4365V34.4541L348.783 37.7729V42.147L348.088 42.4532L341.203 39.4365Z" fill="#B6A6CC"/>
<path fill-rule="evenodd" clip-rule="evenodd" d="M340.733 39.2338V34.5825L348.318 37.9013V42.354L348.088 42.4533L340.733 39.2338Z" fill="#6DCFF2"/>
<path fill-rule="evenodd" clip-rule="evenodd" d="M340.733 39.2341V38.3154L348.318 41.6343V42.3543L348.088 42.4536L340.733 39.2341Z" fill="#66E5E2"/>
<path fill-rule="evenodd" clip-rule="evenodd" d="M176.609 39.6522V31.8311L166.826 36.1141V43.9353L176.609 39.6522ZM176.986 31.5414V39.8923L166.449 44.5063V35.8699C169.967 34.3471 173.476 32.7953 176.986 31.2559V31.5414Z" fill="#B6A6CC"/>
<path fill-rule="evenodd" clip-rule="evenodd" d="M122.764 33.664V25.8428L112.98 30.1258V37.947L122.764 33.664ZM123.141 25.5531V33.904L112.604 38.518V29.8817C116.121 28.3588 119.631 26.807 123.141 25.2676V25.5531Z" fill="#C8AEEF"/>
<path fill-rule="evenodd" clip-rule="evenodd" d="M123.995 34.2394V26.4182L114.212 30.7013V38.5224L123.995 34.2394ZM124.372 26.1327V34.4836L113.835 39.0976V30.4612C117.353 28.9384 120.862 27.3866 124.372 25.8472V26.1327Z" fill="#C8AEEF"/>
<path fill-rule="evenodd" clip-rule="evenodd" d="M125.222 34.8146V26.9934L115.438 31.2765V39.0976L125.222 34.8146ZM125.599 26.7079V35.0588L115.062 39.6728V31.0364C118.579 29.5136 122.089 27.9618 125.599 26.4224V26.7079Z" fill="#B6A6CC"/>
<path fill-rule="evenodd" clip-rule="evenodd" d="M122.01 24.8291V23.5835L120.473 24.2539V25.4995L122.01 24.8291Z" fill="#C8AEEF"/>
<path fill-rule="evenodd" clip-rule="evenodd" d="M122.01 23.0786V21.833L120.473 22.5075V23.7531L122.01 23.0786Z" fill="#C8AEEF"/>
<path fill-rule="evenodd" clip-rule="evenodd" d="M122.01 21.3325V20.0869L120.473 20.7614V22.007L122.01 21.3325Z" fill="#C8AEEF"/>
<path fill-rule="evenodd" clip-rule="evenodd" d="M122.01 19.5859V18.3403L120.473 19.0107V20.2563L122.01 19.5859Z" fill="#C8AEEF"/>
<path fill-rule="evenodd" clip-rule="evenodd" d="M308.071 30.4736V29.228L306.534 29.9026V31.1481L308.071 30.4736Z" fill="#C8AEEF"/>
<path fill-rule="evenodd" clip-rule="evenodd" d="M308.071 28.727V27.4814L306.534 28.1518V29.3974L308.071 28.727Z" fill="#C8AEEF"/>
<path fill-rule="evenodd" clip-rule="evenodd" d="M308.071 26.977V25.7314L306.534 26.406V27.6516L308.071 26.977Z" fill="#C8AEEF"/>
<path fill-rule="evenodd" clip-rule="evenodd" d="M308.071 25.2305V23.9849L306.534 24.6594V25.905L308.071 25.2305Z" fill="#B6A6CC"/>
<path fill-rule="evenodd" clip-rule="evenodd" d="M303.691 34.115L312.594 30.2168L322.394 34.504C319.207 35.8985 316.024 37.3179 312.829 38.6877C309.562 37.2641 306.295 35.8323 303.029 34.4005L303.691 34.1108V34.115ZM312.594 30.6223L303.959 34.4005L312.829 38.2821L321.464 34.504L312.594 30.6223Z" fill="#C8AEEF"/>
<path fill-rule="evenodd" clip-rule="evenodd" d="M303.691 32.9812L312.594 29.083L322.394 33.3702C319.207 34.7647 316.024 36.1841 312.829 37.558C309.562 36.1345 306.295 34.7027 303.029 33.2709L303.691 32.9812ZM312.594 29.4886L303.959 33.2667L312.829 37.1483L321.464 33.3702L312.594 29.4886Z" fill="#B6A6CC"/>
<path fill-rule="evenodd" clip-rule="evenodd" d="M40.8125 80.504V77.9756L37.6924 79.3412V81.8696L40.8125 80.504Z" fill="#8F54EF"/>
<path fill-rule="evenodd" clip-rule="evenodd" d="M40.8125 76.962V74.4336L37.6924 75.7992V78.3276L40.8125 76.962Z" fill="#C8AEEF"/>
<path fill-rule="evenodd" clip-rule="evenodd" d="M40.8125 73.4154V70.8911L37.6924 72.2567V74.781L40.8125 73.4154Z" fill="#B6A6CC"/>
<path fill-rule="evenodd" clip-rule="evenodd" d="M40.8125 69.8734V67.3491L37.6924 68.7147V71.239L40.8125 69.8734Z" fill="#B6A6CC"/>
<path fill-rule="evenodd" clip-rule="evenodd" d="M188.402 10.3498V8.35938L185.948 9.4353V11.4216L188.402 10.3498Z" fill="#8F54EF"/>
<path fill-rule="evenodd" clip-rule="evenodd" d="M188.402 7.56055V5.57422L185.948 6.64601V8.63648L188.402 7.56055Z" fill="#C8AEEF"/>
<path fill-rule="evenodd" clip-rule="evenodd" d="M188.402 4.77562V2.78516L185.948 3.86108V5.84741L188.402 4.77562Z" fill="#B6A6CC"/>
<path fill-rule="evenodd" clip-rule="evenodd" d="M188.402 1.98633V0L185.948 1.07179V3.06226L188.402 1.98633Z" fill="#B6A6CC"/>
<path fill-rule="evenodd" clip-rule="evenodd" d="M48.4932 84.0631L62.2131 90.0676L66.5184 88.1847L52.7943 82.1802L48.4932 84.0631Z" fill="#6847B9"/>
<path fill-rule="evenodd" clip-rule="evenodd" d="M64.5628 89.0415L52.7945 83.8936L50.4492 84.9198L62.2134 90.0677L64.5628 89.0415Z" fill="#642E8F"/>
<path fill-rule="evenodd" clip-rule="evenodd" d="M62.2383 31.7687L63.1512 31.3714L52.9869 26.9229L52.0781 27.3201L62.2383 31.7687Z" fill="#B2F2F2"/>
<path fill-rule="evenodd" clip-rule="evenodd" d="M52.9873 26.9232V18.6924L63.1516 23.1409V31.3718L52.9873 26.9232Z" fill="#6DCFF2"/>
<path fill-rule="evenodd" clip-rule="evenodd" d="M52.7021 27.1464V18.9155L62.8623 23.3641V31.5949L52.7021 27.1464Z" fill="#B6A6CC"/>
<path fill-rule="evenodd" clip-rule="evenodd" d="M52.0781 27.3205V19.0938L62.2383 23.5382V31.769L52.0781 27.3205Z" fill="#6DCFF2"/>
<path fill-rule="evenodd" clip-rule="evenodd" d="M53.1758 86.1116V83.2314L63.3359 87.68V89.5794L62.2135 90.0677L53.1758 86.1116Z" fill="#6DCFF2"/>
<path fill-rule="evenodd" clip-rule="evenodd" d="M52.8867 85.9876V83.4551L63.051 87.9036V89.7037L62.2134 90.0679L52.8867 85.9876Z" fill="#B6A6CC"/>
<path fill-rule="evenodd" clip-rule="evenodd" d="M52.2627 85.7104V83.6289L62.427 88.0775V89.9769L62.2134 90.0679L52.2627 85.7104Z" fill="#6DCFF2"/>
<path fill-rule="evenodd" clip-rule="evenodd" d="M52.0781 37.7236V35.5552L62.2383 40.0037V42.168L52.0781 37.7236Z" fill="#8F48DD"/>
<path fill-rule="evenodd" clip-rule="evenodd" d="M63.1513 41.7707L62.2383 42.168V40.0037L63.1513 39.6064V41.7707Z" fill="#D3C5E6"/>
<path fill-rule="evenodd" clip-rule="evenodd" d="M62.2383 40.004L63.1512 39.6068L52.9869 35.1582L52.0781 35.5555L62.2383 40.004Z" fill="#C8AEEF"/>
<path fill-rule="evenodd" clip-rule="evenodd" d="M52.0781 41.473V40.186L62.2383 44.6346V45.9216L52.0781 41.473Z" fill="#C8AEEF"/>
<path fill-rule="evenodd" clip-rule="evenodd" d="M63.1513 45.5204L62.2383 45.9218V44.6348L63.1513 44.2334V45.5204Z" fill="#8F48DD"/>
<path fill-rule="evenodd" clip-rule="evenodd" d="M62.2383 44.6346L63.1512 44.2332L52.9869 39.7847L52.0781 40.1861L62.2383 44.6346Z" fill="#C8AEEF"/>
<path fill-rule="evenodd" clip-rule="evenodd" d="M340.733 22.8885V16.7847L348.272 20.0828V26.1866L340.733 22.8885Z" fill="#8F48DD"/>
<path fill-rule="evenodd" clip-rule="evenodd" d="M348.946 25.8929L348.272 26.1867V20.0829L348.946 19.7891V25.8929Z" fill="#D3C5E6"/>
<path fill-rule="evenodd" clip-rule="evenodd" d="M348.272 21.3158L348.946 21.022L341.412 17.7197L340.733 18.0177L348.272 21.3158Z" fill="#B2F2F2"/>
<path fill-rule="evenodd" clip-rule="evenodd" d="M341.412 17.7198V11.6201L348.946 14.9182V21.0221L341.412 17.7198Z" fill="#6DCFF2"/>
<path fill-rule="evenodd" clip-rule="evenodd" d="M341.198 17.8895V11.7856L348.737 15.0838V21.1876L341.198 17.8895Z" fill="#B6A6CC"/>
<path fill-rule="evenodd" clip-rule="evenodd" d="M340.733 18.0179V11.9141L348.272 15.2122V21.316L340.733 18.0179Z" fill="#6DCFF2"/>
<path fill-rule="evenodd" clip-rule="evenodd" d="M340.733 25.7311V24.1255L348.272 27.4236V29.0292L340.733 25.7311Z" fill="#8F48DD"/>
<path fill-rule="evenodd" clip-rule="evenodd" d="M348.946 28.7352L348.272 29.0291V27.4234L348.946 27.1255V28.7352Z" fill="#D3C5E6"/>
<path fill-rule="evenodd" clip-rule="evenodd" d="M348.272 27.4237L348.946 27.1258L341.412 23.8276L340.733 24.1256L348.272 27.4237Z" fill="#C8AEEF"/>
<path fill-rule="evenodd" clip-rule="evenodd" d="M340.733 28.5121V27.5562L348.272 30.8543V31.8102L340.733 28.5121Z" fill="#C8AEEF"/>
<path fill-rule="evenodd" clip-rule="evenodd" d="M348.946 31.5123L348.272 31.8103V30.8544L348.946 30.5605V31.5123Z" fill="#8F48DD"/>
<path fill-rule="evenodd" clip-rule="evenodd" d="M348.272 30.8542L348.946 30.5603L341.412 27.2622L340.733 27.556L348.272 30.8542Z" fill="#C8AEEF"/>
<path fill-rule="evenodd" clip-rule="evenodd" d="M186.844 17.1115L194.274 13.8589L202.126 17.2977L194.471 20.6496L186.618 17.2108L186.844 17.1115Z" fill="#642E8F"/>
<path fill-rule="evenodd" clip-rule="evenodd" d="M189.361 17.1569L194.308 14.9927L199.538 17.2811L194.437 19.5157L189.207 17.2232L189.361 17.1569Z" fill="#8F54EF"/>
<path fill-rule="evenodd" clip-rule="evenodd" d="M191.129 17.1902L194.333 15.7915L197.713 17.273L194.417 18.7172L191.033 17.2357L191.129 17.1902Z" fill="#B6A6CC"/>
<path fill-rule="evenodd" clip-rule="evenodd" d="M186.844 17.1115L194.274 13.8589L202.126 17.2977L201.548 17.5501L194.274 14.3679L187.2 17.4632L186.618 17.2108L186.844 17.1115Z" fill="#8F54EF"/>
</svg>
