<svg width="100" height="80" viewBox="0 0 100 80" fill="none" xmlns="http://www.w3.org/2000/svg">
<g clip-path="url(#clip0_2540_5491)">
<path d="M54.6344 50.5843L49.974 53.0622C47.914 54.1576 45.5033 54.3897 43.2722 53.7076C41.041 53.0254 39.1722 51.4849 38.0769 49.4249C36.9816 47.3649 36.7495 44.9542 37.4316 42.7231C38.1137 40.4919 39.6542 38.6231 41.7142 37.5278L46.3746 35.0499L54.6344 50.5843Z" stroke="black" stroke-width="3" stroke-linecap="round" stroke-linejoin="round"/>
<path d="M54.6343 50.5843C63.7506 45.7381 74.0971 43.6978 84.3707 44.7204L87.5521 45.0374L69.3806 10.8616L67.8643 13.6764C62.9671 22.7654 55.49 30.2021 46.3745 35.0499L54.6343 50.5843Z" stroke="black" stroke-width="3" stroke-linecap="round" stroke-linejoin="round"/>
<path d="M83.0282 21.5388L86.3321 27.7526" stroke="black" stroke-width="3" stroke-linecap="round" stroke-linejoin="round"/>
<path d="M54.6343 50.5845C55.7144 52.619 57.1971 54.4126 58.9923 55.856C60.7874 57.2994 62.8575 58.3625 65.0765 58.9806" stroke="black" stroke-width="3" stroke-linecap="round" stroke-linejoin="round"/>
</g>
<path d="M33.94 35.6614C32.5247 35.2544 31.022 35.265 29.6127 35.6922C28.2033 36.1193 26.9475 36.9447 25.9963 38.0689C25.0451 39.1931 24.4392 40.5683 24.2514 42.0289C24.0636 43.4895 24.3019 44.9733 24.9377 46.3016C25.5736 47.6299 26.5797 48.7461 27.8352 49.5159C29.0906 50.2857 30.5418 50.6762 32.014 50.6404" stroke="#00CCF5" stroke-width="3" stroke-linecap="round" stroke-linejoin="round"/>
<path d="M34.7181 62.2481C34.4108 62.9041 33.9081 63.4489 33.2789 63.8077C32.6496 64.1666 31.9248 64.3219 31.2038 64.2524C30.4827 64.1828 29.8009 63.8919 29.2519 63.4194C28.7028 62.9469 28.3134 62.3161 28.1371 61.6136L27.5256 59.1783C27.4064 58.7021 27.1885 58.2562 26.8861 57.8695C26.5836 57.4828 26.2034 57.1639 25.77 56.9334C25.3365 56.703 24.8595 56.5661 24.3698 56.5316C23.8801 56.4971 23.3886 56.5658 22.9271 56.7333L20.5663 57.5881C19.8873 57.8292 19.1506 57.8554 18.4562 57.6633C17.7618 57.4711 17.1434 57.0698 16.685 56.514C16.2265 55.9581 15.9504 55.2746 15.8939 54.5563C15.8375 53.838 16.0035 53.1198 16.3695 52.4992L17.6598 50.3422C17.9121 49.921 18.0732 49.4516 18.1327 48.9643C18.1921 48.477 18.1487 47.9827 18.0052 47.5132C17.8617 47.0438 17.6212 46.6096 17.2994 46.2389C16.9776 45.8682 16.5816 45.5691 16.1369 45.361L13.8589 44.2875C13.2063 43.9791 12.6647 43.4769 12.3079 42.8494C11.9511 42.222 11.7965 41.4997 11.8652 40.7812C11.9339 40.0626 12.2225 39.3828 12.6917 38.8342C13.1609 38.2857 13.7878 37.8952 14.487 37.716L16.9228 37.1062C17.399 36.9869 17.8449 36.7691 18.2316 36.4667C18.6183 36.1642 18.9372 35.784 19.1677 35.3505C19.3981 34.9171 19.535 34.4401 19.5695 33.9504C19.604 33.4607 19.5353 32.9692 19.3678 32.5077L18.513 30.1469C18.2655 29.4664 18.2347 28.7259 18.4248 28.0272C18.615 27.3285 19.0167 26.7058 19.5749 26.2446C20.1331 25.7833 20.8203 25.5061 21.5423 25.4511C22.2644 25.3961 22.9857 25.5659 23.6074 25.9372L25.7626 27.2281C26.184 27.4803 26.6535 27.6414 27.1409 27.7008C27.6284 27.7603 28.1229 27.7168 28.5925 27.5733C29.0621 27.4297 29.4963 27.1892 29.8672 26.8673C30.238 26.5455 30.5373 26.1494 30.7455 25.7046L31.819 23.4266C32.1268 22.773 32.6289 22.2303 33.2567 21.8728C33.8845 21.5154 34.6074 21.3605 35.3266 21.4294C36.0458 21.4983 36.7261 21.7877 37.2746 22.2579C37.8231 22.7281 38.213 23.3562 38.391 24.0564L39.0026 26.4917" stroke="#00CCF5" stroke-width="3" stroke-linecap="round" stroke-linejoin="round"/>
<defs>
<clipPath id="clip0_2540_5491">
<rect width="56.3003" height="56.3003" fill="white" transform="translate(23.8584 26.4314) rotate(-28)"/>
</clipPath>
</defs>
</svg>
