<svg width="100" height="100" viewBox="0 0 100 100" fill="none" xmlns="http://www.w3.org/2000/svg">
<path d="M25 19V75H81" stroke="black" stroke-width="3" stroke-linecap="round" stroke-linejoin="round"/>
<path d="M60 29C60 30.5913 60.5795 32.1174 61.6109 33.2426C62.6424 34.3679 64.0413 35 65.5 35C66.9587 35 68.3576 34.3679 69.3891 33.2426C70.4205 32.1174 71 30.5913 71 29C71 27.4087 70.4205 25.8826 69.3891 24.7574C68.3576 23.6321 66.9587 23 65.5 23C64.0413 23 62.6424 23.6321 61.6109 24.7574C60.5795 25.8826 60 27.4087 60 29Z" stroke="#00CCF5" stroke-width="3" stroke-linecap="round" stroke-linejoin="round"/>
<path d="M70 24C73.1471 20.8995 77.4602 19.1023 82 19" stroke="#00CCF5" stroke-width="3" stroke-linecap="round" stroke-linejoin="round"/>
<path d="M25 75C31.2216 72.869 36.1648 69.7348 41 65" stroke="black" stroke-width="3" stroke-linecap="round" stroke-linejoin="round"/>
<path d="M20 25L26 19L32 25" stroke="black" stroke-width="3" stroke-linecap="round" stroke-linejoin="round"/>
<path d="M75 68L81 74.5L75 81" stroke="black" stroke-width="3" stroke-linecap="round" stroke-linejoin="round"/>
<path d="M51 56C52.9717 52.7996 54.4973 49.7603 55.6454 46.1122C56.9587 41.8457 58.7576 37.7764 61 34" stroke="#00CCF5" stroke-width="3" stroke-linecap="round" stroke-linejoin="round"/>
<path d="M40 60C40 60.7879 40.1552 61.5681 40.4567 62.2961C40.7583 63.0241 41.2002 63.6855 41.7574 64.2426C42.3145 64.7998 42.9759 65.2418 43.7039 65.5433C44.4319 65.8448 45.2121 66 46 66C46.7879 66 47.5681 65.8448 48.2961 65.5433C49.0241 65.2418 49.6855 64.7998 50.2426 64.2426C50.7998 63.6855 51.2417 63.0241 51.5433 62.2961C51.8448 61.5681 52 60.7879 52 60C52 59.2121 51.8448 58.4319 51.5433 57.7039C51.2417 56.9759 50.7998 56.3145 50.2426 55.7574C49.6855 55.2002 49.0241 54.7583 48.2961 54.4567C47.5681 54.1552 46.7879 54 46 54C45.2121 54 44.4319 54.1552 43.7039 54.4567C42.9759 54.7583 42.3145 55.2002 41.7574 55.7574C41.2002 56.3145 40.7583 56.9759 40.4567 57.7039C40.1552 58.4319 40 59.2121 40 60Z" stroke="#00CCF5" stroke-width="3" stroke-linecap="round" stroke-linejoin="round"/>
</svg>
