<svg width="100" height="100" viewBox="0 0 100 100" fill="none" xmlns="http://www.w3.org/2000/svg">
<path d="M31.4972 82C23.6911 77.5017 17.7968 70.2976 14.9255 61.7456C12.0541 53.1935 12.404 43.8844 15.9093 35.5731C19.4145 27.2617 25.833 20.5223 33.9547 16.6252C42.0763 12.7281 51.3402 11.9425 60 14.4166" stroke="black" stroke-width="3" stroke-linecap="round" stroke-linejoin="round"/>
<path d="M68.3631 18C76.2007 22.4812 82.1268 29.6525 85.0309 38.1699C87.9351 46.6873 87.6178 55.9662 84.1386 64.2676C80.6594 72.5689 74.2572 79.3229 66.1317 83.2637C58.0062 87.2045 48.7152 88.0617 40 85.6746" stroke="black" stroke-width="3" stroke-linecap="round" stroke-linejoin="round"/>
<path d="M20 85L32 82.0416L28.7848 71" stroke="black" stroke-width="3" stroke-linecap="round" stroke-linejoin="round"/>
<path d="M80 15L68 17.9584L71.2152 29" stroke="black" stroke-width="3" stroke-linecap="round" stroke-linejoin="round"/>
<path d="M40 38C40 40.9174 41.1589 43.7153 43.2218 45.7782C45.2847 47.8411 48.0826 49 51 49C53.9174 49 56.7153 47.8411 58.7782 45.7782C60.8411 43.7153 62 40.9174 62 38C62 35.0826 60.8411 32.2847 58.7782 30.2218C56.7153 28.1589 53.9174 27 51 27C48.0826 27 45.2847 28.1589 43.2218 30.2218C41.1589 32.2847 40 35.0826 40 38Z" stroke="#00CCF5" stroke-width="3" stroke-linecap="round" stroke-linejoin="round"/>
<path d="M68 66C66.73 62.4829 64.4176 59.4449 61.3764 57.2982C58.3352 55.1515 54.7125 54 51 54C47.2875 54 43.6648 55.1515 40.6236 57.2982C37.5824 59.4449 35.27 62.4829 34 66" stroke="#00CCF5" stroke-width="3" stroke-linecap="round" stroke-linejoin="round"/>
</svg>
