<svg width="100" height="100" viewBox="0 0 100 100" fill="none" xmlns="http://www.w3.org/2000/svg">
<path d="M23 34C27.4183 34 31 30.6421 31 26.5C31 22.3579 27.4183 19 23 19C18.5817 19 15 22.3579 15 26.5C15 30.6421 18.5817 34 23 34Z" stroke="black" stroke-width="3" stroke-linecap="round" stroke-linejoin="round"/>
<path d="M35 44C34.2177 42.1849 33.0332 40.5671 31.5342 39.2662C30.0352 37.9652 28.26 37.0145 26.3398 36.4843C24.4196 35.954 22.4035 35.8578 20.4407 36.2027C18.4779 36.5476 16.6185 37.3249 15 38.477" stroke="black" stroke-width="3" stroke-linecap="round" stroke-linejoin="round"/>
<path d="M77 34C81.4183 34 85 30.6421 85 26.5C85 22.3579 81.4183 19 77 19C72.5817 19 69 22.3579 69 26.5C69 30.6421 72.5817 34 77 34Z" stroke="black" stroke-width="3" stroke-linecap="round" stroke-linejoin="round"/>
<path d="M65 44C65.7823 42.1849 66.9668 40.5671 68.4658 39.2662C69.9648 37.9652 71.74 37.0145 73.6602 36.4843C75.5804 35.954 77.5965 35.8578 79.5593 36.2027C81.5221 36.5476 83.3815 37.3249 85 38.477" stroke="black" stroke-width="3" stroke-linecap="round" stroke-linejoin="round"/>
<path d="M50 34C56.6274 34 62 28.8513 62 22.5C62 16.1487 56.6274 11 50 11C43.3726 11 38 16.1487 38 22.5C38 28.8513 43.3726 34 50 34Z" stroke="black" stroke-width="3" stroke-linecap="round" stroke-linejoin="round"/>
<path d="M70 48C67.4655 45.165 64.3774 42.9001 60.9334 41.3503C57.4894 39.8005 53.7655 39 50 39C46.2345 39 42.5106 39.8005 39.0666 41.3503C35.6226 42.9001 32.5345 45.165 30 48" stroke="black" stroke-width="3" stroke-linecap="round" stroke-linejoin="round"/>
<path d="M64 56C63.9416 59.7334 62.4409 63.2937 59.8217 65.9129C57.2026 68.532 53.6749 70 50 70C46.3251 70 42.7974 68.532 40.1783 65.9129C37.5591 63.2937 36.0584 59.7334 36 56" stroke="#6CEDFC" stroke-width="3" stroke-linecap="round" stroke-linejoin="round"/>
<path d="M83 56V61.2192L77.0316 62.4126C76.3429 65.3054 75.1892 68.0673 73.6156 70.5906L77.0176 75.6589L69.6448 83.0297L64.5787 79.6286C62.0543 81.2156 59.2859 82.3765 56.3844 83.0648L55.2048 89H44.8128L43.6296 83.0648C40.7295 82.3758 37.9623 81.215 35.4389 79.6286L30.3587 83.0156L22.986 75.6449L26.3879 70.5766C24.8132 68.0534 23.6583 65.2915 22.9684 62.3985L17 61.2052V56" stroke="#6CEDFC" stroke-width="3" stroke-linecap="round" stroke-linejoin="round"/>
</svg>
