<svg width="100" height="100" viewBox="0 0 100 100" fill="none" xmlns="http://www.w3.org/2000/svg">
<path d="M45.4967 38.305C45.9634 39.1422 46.6255 39.8312 47.4161 40.3026C48.2067 40.774 49.0979 41.0112 50 40.9902C51.2421 41.0736 52.4643 40.6219 53.4007 39.7332C54.3371 38.8445 54.9119 37.5909 55 36.245C54.9127 34.8989 54.3382 33.6446 53.4016 32.7558C52.465 31.8669 51.2423 31.4155 50 31.4999C48.7574 31.5833 47.5347 31.131 46.5982 30.2416C45.6617 29.3522 45.0873 28.0976 45 26.7511C45.0898 25.4063 45.6652 24.1541 46.6013 23.2664C47.5374 22.3787 48.7587 21.9271 50 22.0096C50.9019 21.9897 51.7928 22.2273 52.5832 22.6986C53.3736 23.1699 54.0358 23.8584 54.5033 24.6948" stroke="#27EBFF" stroke-width="3" stroke-linecap="round" stroke-linejoin="round"/>
<path d="M50 41V45" stroke="#27EBFF" stroke-width="3" stroke-linecap="round" stroke-linejoin="round"/>
<path d="M50 19V22" stroke="#27EBFF" stroke-width="3" stroke-linecap="round" stroke-linejoin="round"/>
<path d="M79.0909 48L90 65H10L20.9091 48" stroke="black" stroke-width="3" stroke-linecap="round" stroke-linejoin="round"/>
<path d="M30 54H70" stroke="#27EBFF" stroke-width="3" stroke-linecap="round" stroke-linejoin="round"/>
<path d="M29.7735 46C27.4568 42.4629 26.1581 38.3834 26.0135 34.1889C25.869 29.9943 26.8839 25.839 28.9519 22.1582C31.0199 18.4775 34.0649 15.4067 37.768 13.2677C41.4711 11.1286 45.696 10 50 10C54.304 10 58.5289 11.1286 62.232 13.2677C65.9351 15.4067 68.9801 18.4775 71.0481 22.1582C73.1161 25.839 74.131 29.9943 73.9865 34.1889C73.8419 38.3834 72.5432 42.4629 70.2265 46" stroke="black" stroke-width="3" stroke-linecap="round" stroke-linejoin="round"/>
<path d="M10 65V90" stroke="black" stroke-width="3" stroke-linecap="round" stroke-linejoin="round"/>
<path d="M90 65V90" stroke="black" stroke-width="3" stroke-linecap="round" stroke-linejoin="round"/>
</svg>
