<svg width="835" height="835" viewBox="0 0 835 835" fill="none" xmlns="http://www.w3.org/2000/svg">
<path fill-rule="evenodd" clip-rule="evenodd" d="M416.749 641.99C499.08 641.99 574.856 643.2 635.018 645.288C782.186 561.161 731.21 397.209 678.396 304.482C604.832 175.391 431.069 129.007 359.217 232.005C261.647 371.783 167.543 323.02 116.733 429.148C65.9232 535.318 143.077 637.063 198.521 645.288C258.641 643.2 334.418 641.99 416.749 641.99ZM287.825 284.067C250.166 312.749 187.875 334.96 167.167 304.482C151.719 281.729 170.757 238.977 208.04 206.579C245.323 174.222 295.214 154.6 322.435 178.439C354.75 206.746 316.841 261.981 287.825 284.067Z" fill="#ECEAF8"/>
<path fill-rule="evenodd" clip-rule="evenodd" d="M416.748 641.99C591.138 641.99 732.504 648.921 732.504 657.48C732.504 666.038 591.138 672.969 416.748 672.969C242.359 672.969 100.993 666.038 100.993 657.48C100.993 648.921 242.359 641.99 416.748 641.99Z" fill="#D6D2EE"/>
<path fill-rule="evenodd" clip-rule="evenodd" d="M530.935 214.011C619.361 233.717 675.598 315.004 681.109 354.249C683.364 370.365 679.189 332.664 634.057 298.346C593.768 267.66 562.372 261.982 514.402 258.266C480.501 255.636 445.013 251.461 447.56 231.254C449.564 215.347 473.862 201.319 530.935 214.011ZM299.723 181.154C314.962 182.072 324.189 194.555 324.857 208.959C325.107 215.096 320.306 199.064 303.439 196.81C292.96 195.432 291.415 198.522 287.657 194.18C283.9 189.879 287.449 180.402 299.723 181.154ZM391.072 270.707C389.82 288.075 387.231 290.497 370.656 291.833C387.231 293.169 389.82 295.59 391.072 312.958C392.325 295.549 394.913 293.169 411.488 291.833C394.913 290.497 392.325 288.075 391.072 270.707ZM458.457 316.549C457.789 325.817 456.411 327.112 447.56 327.821C456.411 328.531 457.789 329.825 458.457 339.094C459.125 329.825 460.502 328.531 469.353 327.821C460.502 327.112 459.125 325.817 458.457 316.549ZM428.939 245.115C428.271 254.508 426.852 255.803 417.917 256.554C426.894 257.264 428.271 258.558 428.939 267.994C429.607 258.6 431.027 257.306 439.962 256.554C431.027 255.803 429.649 254.508 428.939 245.115ZM366.648 555.776C367.692 569.846 369.738 571.808 383.181 572.894C369.738 573.979 367.692 575.942 366.648 590.011C365.605 575.942 363.559 573.979 350.115 572.894C363.517 571.808 365.605 569.888 366.648 555.776ZM312.04 592.934C312.582 600.449 313.709 601.493 320.849 602.077C313.668 602.662 312.582 603.705 312.04 611.22C311.497 603.705 310.369 602.662 303.23 602.077C310.369 601.493 311.497 600.449 312.04 592.934ZM335.962 535.068C336.505 542.667 337.632 543.752 344.897 544.337C337.632 544.921 336.505 545.965 335.962 553.605C335.419 546.007 334.292 544.921 327.028 544.337C334.25 543.711 335.378 542.667 335.962 535.068ZM581.202 521.04C580.408 531.812 578.822 533.315 568.551 534.15C578.822 534.985 580.408 536.488 581.202 547.259C581.995 536.488 583.581 534.985 593.852 534.15C583.581 533.315 581.995 531.854 581.202 521.04ZM622.993 549.514C622.576 555.275 621.741 556.069 616.23 556.528C621.699 556.987 622.576 557.78 622.993 563.542C623.411 557.78 624.246 556.987 629.757 556.528C624.246 556.069 623.411 555.275 622.993 549.514ZM604.665 505.175C604.248 511.02 603.371 511.814 597.818 512.273C603.371 512.732 604.248 513.525 604.665 519.37C605.083 513.525 605.959 512.732 611.512 512.273C605.959 511.814 605.124 511.02 604.665 505.175Z" fill="white"/>
<path fill-rule="evenodd" clip-rule="evenodd" d="M248.914 349.072H615.312C620.071 349.072 624.037 352.955 623.996 357.673L620.697 583.707C620.614 588.425 616.773 592.308 612.013 592.308H252.17C247.411 592.308 243.57 588.425 243.486 583.707L240.188 357.673C240.146 352.955 244.112 349.072 248.914 349.072Z" fill="#B0A4FC"/>
<path fill-rule="evenodd" clip-rule="evenodd" d="M251.711 360.512L254.925 580.868H609.299L612.472 360.512H251.711Z" fill="white"/>
<path fill-rule="evenodd" clip-rule="evenodd" d="M259.518 368.193L262.482 573.228H601.743L604.707 368.193H259.518Z" fill="#F1EFFC"/>
<path fill-rule="evenodd" clip-rule="evenodd" d="M173.555 647.293H292.876H571.349H690.628L622.701 592.35H571.349H292.876H241.482L173.555 647.293Z" fill="#C4BBFA"/>
<path fill-rule="evenodd" clip-rule="evenodd" d="M173.555 647.293H690.587C690.587 651.969 687.247 656.102 682.863 657.062H181.278C176.895 656.102 173.555 651.969 173.555 647.293Z" fill="#8271ED"/>
<path fill-rule="evenodd" clip-rule="evenodd" d="M363.35 627.002H380.76H483.465H500.833L505.384 635.352H483.465H380.76H358.8L363.35 627.002Z" fill="white"/>
<path fill-rule="evenodd" clip-rule="evenodd" d="M454.157 513.316C455.159 515.445 457.789 516.322 460.002 515.32L470.898 510.268C473.111 509.266 474.071 506.677 473.028 504.59L461.338 480.25C460.336 478.12 457.705 477.244 455.493 478.246L444.554 483.297C442.341 484.341 441.381 486.888 442.383 489.017L454.157 513.316Z" fill="#5C44F5"/>
<path fill-rule="evenodd" clip-rule="evenodd" d="M461.421 489.352L460.878 487.14C462.089 486.973 463.258 486.806 464.469 486.639L473.028 504.508C474.03 506.637 473.069 509.184 470.898 510.186L467.934 511.563L459.96 515.237C457.747 516.239 455.117 515.363 454.115 513.233L453.196 511.355C460.002 506.386 463.509 497.828 461.421 489.352Z" fill="#5C44F5"/>
<path fill-rule="evenodd" clip-rule="evenodd" d="M383.641 457.33C383.641 457.33 432.572 563.333 452.278 570.556C452.278 570.556 472.151 579.198 495.238 563.041C495.238 563.041 442.258 466.64 437.832 444.68L383.641 457.33Z" fill="#B3A8FB"/>
<path fill-rule="evenodd" clip-rule="evenodd" d="M482.213 568.343C474.405 554.023 431.528 474.99 422.343 446.809L437.54 443.26C441.966 465.22 494.946 561.621 494.946 561.621C490.521 564.669 486.221 566.84 482.213 568.343Z" fill="#6852F6"/>
<path fill-rule="evenodd" clip-rule="evenodd" d="M452.862 432.404L456.87 448.896C459.375 459.208 452.779 469.645 442.091 472.234L401.092 482.17C390.446 484.759 379.758 478.496 377.253 468.226L373.245 451.735L452.862 432.404Z" fill="#5C44F5"/>
<path fill-rule="evenodd" clip-rule="evenodd" d="M393.869 468.728L442.341 456.954C448.353 455.493 453.28 451.903 456.453 447.227L456.87 448.897C459.375 459.209 452.779 469.646 442.091 472.235L401.092 482.171C390.446 484.76 379.758 478.497 377.253 468.227L376.835 466.557C381.845 469.271 387.857 470.189 393.869 468.728Z" fill="#6852F6"/>
<path fill-rule="evenodd" clip-rule="evenodd" d="M360.595 362.516L384.977 462.924C356.879 468.435 329.366 451.819 322.853 424.848C316.298 397.878 333.082 370.49 360.595 362.516Z" fill="#B3A8FB"/>
<path d="M405.202 351.563L360.575 362.406L384.992 462.897L429.619 452.054L405.202 351.563Z" fill="#6852F6"/>
<path fill-rule="evenodd" clip-rule="evenodd" d="M587.798 217.1C585.377 233.841 594.186 289.745 610.051 355.042C625.916 420.297 643.743 473.946 653.555 487.765C625.499 467.892 536.613 426.1 429.649 452.069L405.226 351.535C512.189 325.608 572.017 247.619 587.798 217.1Z" fill="#B3A8FB"/>
<path fill-rule="evenodd" clip-rule="evenodd" d="M606.586 355.877C624.747 430.61 645.789 489.686 653.555 487.807C661.32 485.929 652.928 423.805 634.767 349.03C616.606 274.256 595.564 215.222 587.798 217.1C586.128 217.518 588.425 281.145 606.586 355.877Z" fill="#6852F6"/>
<path fill-rule="evenodd" clip-rule="evenodd" d="M321.558 415.914V415.83C321.475 414.578 321.475 413.325 321.517 412.031C321.517 411.739 321.517 411.447 321.517 411.154C321.558 409.944 321.642 408.775 321.809 407.606C321.851 407.272 321.892 406.938 321.934 406.604C322.101 405.476 322.268 404.307 322.519 403.18C322.602 402.804 322.686 402.47 322.769 402.095C323.02 400.967 323.312 399.882 323.604 398.796C323.688 398.462 323.813 398.128 323.938 397.753C324.272 396.667 324.648 395.582 325.065 394.496C325.149 394.204 325.316 393.953 325.399 393.703C326.861 390.196 328.656 386.898 330.827 383.766C331.036 383.474 331.244 383.14 331.453 382.848C331.996 382.138 332.539 381.47 333.081 380.76C333.499 380.218 333.916 379.675 334.417 379.132C334.96 378.548 335.503 377.963 336.046 377.379C336.588 376.794 337.131 376.251 337.716 375.709C338.258 375.166 338.843 374.665 339.386 374.164C340.012 373.621 340.68 373.037 341.348 372.536C341.932 372.076 342.475 371.617 343.06 371.2C343.769 370.657 344.521 370.156 345.272 369.655C345.857 369.279 346.441 368.903 347.026 368.528C347.861 368.027 348.696 367.567 349.573 367.066C350.157 366.774 350.7 366.44 351.284 366.148C352.286 365.647 353.288 365.229 354.332 364.77C354.833 364.561 355.334 364.311 355.835 364.144C357.38 363.518 358.966 362.975 360.595 362.516L367.233 389.82L354.165 392.993V393.077C340.513 397.043 329.24 405.309 321.558 415.914Z" fill="#B3A8FB"/>
<path fill-rule="evenodd" clip-rule="evenodd" d="M411.822 378.84C409.192 379.549 406.561 380.217 403.848 380.885L367.191 389.778L360.553 362.39L405.184 351.535L411.822 378.84Z" fill="#6852F6"/>
<path fill-rule="evenodd" clip-rule="evenodd" d="M405.226 351.577C408.273 350.825 411.238 350.032 414.202 349.239C415.12 348.988 415.997 348.738 416.916 348.446C419.003 347.861 421.091 347.235 423.136 346.567C424.055 346.275 425.015 345.982 425.934 345.69C428.188 344.939 430.443 344.187 432.655 343.436C433.24 343.227 433.824 343.06 434.409 342.809C437.164 341.807 439.878 340.805 442.592 339.762C443.302 339.469 444.011 339.177 444.721 338.927C446.725 338.133 448.729 337.298 450.691 336.463C451.568 336.088 452.445 335.712 453.322 335.336C455.2 334.501 457.079 333.666 458.916 332.831C459.668 332.497 460.377 332.163 461.129 331.829C463.634 330.66 466.097 329.449 468.519 328.197C468.936 327.988 469.312 327.779 469.729 327.571C471.775 326.527 473.779 325.483 475.741 324.398C476.535 323.98 477.328 323.521 478.121 323.103C479.749 322.185 481.336 321.308 482.922 320.39C483.716 319.93 484.467 319.513 485.26 319.054C487.139 317.926 488.976 316.799 490.813 315.672C491.189 315.421 491.606 315.213 491.982 314.962C494.111 313.626 496.241 312.248 498.328 310.871C499.038 310.37 499.748 309.91 500.499 309.409C501.877 308.449 503.255 307.531 504.632 306.57C505.426 306.028 506.219 305.443 506.97 304.9C508.306 303.94 509.642 302.98 510.937 302.02C511.605 301.519 512.314 301.018 512.982 300.517C514.819 299.139 516.615 297.761 518.41 296.342C519.12 295.799 519.788 295.214 520.497 294.672C521.625 293.753 522.752 292.835 523.879 291.958C524.714 291.29 525.507 290.622 526.301 289.912C527.261 289.119 528.221 288.284 529.14 287.491C529.933 286.781 530.768 286.113 531.561 285.403C532.521 284.526 533.482 283.691 534.442 282.815C535.778 281.604 537.114 280.351 538.408 279.141C539.16 278.431 539.911 277.721 540.663 277.011C541.539 276.176 542.416 275.341 543.251 274.465C543.836 273.88 544.462 273.296 545.046 272.669C545.923 271.793 546.8 270.916 547.677 270.039C548.136 269.58 548.595 269.079 549.054 268.62C552.186 265.363 555.192 262.148 557.989 258.975C558.198 258.725 558.448 258.474 558.699 258.182C559.659 257.097 560.577 256.053 561.454 255.009C561.621 254.842 561.746 254.675 561.913 254.466C574.522 239.603 583.164 226.285 587.84 217.184C586.838 224.281 587.798 238.518 590.512 257.472C589.594 258.725 588.633 259.977 587.673 261.272C557.613 300.517 499.497 355.293 411.864 378.923L405.226 351.577Z" fill="#B3A8FB"/>
<path fill-rule="evenodd" clip-rule="evenodd" d="M652.386 349.113L652.344 349.071C652.302 348.862 652.219 348.653 652.177 348.486C652.26 348.695 652.302 348.904 652.386 349.113Z" fill="#200F8E"/>
<path fill-rule="evenodd" clip-rule="evenodd" d="M601.576 320.181C624.997 315.755 647.835 329.742 653.346 352.37C658.857 374.999 644.954 397.878 622.117 404.683L601.576 320.181Z" fill="#4A30F0"/>
<path fill-rule="evenodd" clip-rule="evenodd" d="M378.839 463.76C377.629 463.843 376.418 463.927 375.207 463.969C374.748 463.969 374.289 463.969 373.829 463.969C372.577 463.969 371.366 463.927 370.114 463.802C369.78 463.76 369.404 463.76 369.028 463.718C365.897 463.426 362.807 462.841 359.801 462.048C359.384 461.923 359.008 461.798 358.591 461.672C357.505 461.338 356.461 461.004 355.418 460.629C354.958 460.462 354.457 460.295 353.998 460.086C352.996 459.71 352.036 459.251 351.076 458.792C350.658 458.583 350.199 458.416 349.781 458.207C348.487 457.539 347.193 456.871 345.94 456.12C345.606 455.911 345.272 455.66 344.938 455.452C344.02 454.867 343.143 454.283 342.266 453.656C341.765 453.281 341.264 452.863 340.763 452.487C340.095 451.986 339.469 451.444 338.843 450.901C338.342 450.442 337.799 449.982 337.298 449.523C336.714 448.98 336.129 448.396 335.586 447.811C335.127 447.31 334.626 446.851 334.167 446.35C333.29 445.39 332.497 444.388 331.704 443.386C331.286 442.843 330.869 442.259 330.493 441.674C330.117 441.131 329.741 440.547 329.366 440.004C337.924 441.674 346.984 441.758 356.086 440.004L378.13 434.66L385.018 463.008C383.39 463.342 381.762 463.551 380.134 463.718C379.674 463.676 379.257 463.718 378.839 463.76Z" fill="#8674FC"/>
<path fill-rule="evenodd" clip-rule="evenodd" d="M411.822 426.392V426.434C415.496 425.557 419.17 424.722 422.802 423.971L429.607 452.068H429.566L384.977 462.882L378.088 434.533L411.822 426.392Z" fill="#6852F6"/>
<path fill-rule="evenodd" clip-rule="evenodd" d="M634.391 441.757C641.906 464.51 648.711 481.002 653.554 487.807C639.067 477.536 608.381 461.504 567.382 451.86C567.174 451.818 566.965 451.777 566.756 451.693C565.003 451.276 563.207 450.9 561.412 450.482C561.162 450.441 560.911 450.357 560.661 450.315C555.4 449.188 549.973 448.228 544.42 447.351C543.71 447.226 543 447.142 542.291 447.017C540.788 446.808 539.243 446.6 537.698 446.391C536.78 446.266 535.903 446.14 534.984 446.057C533.481 445.89 531.978 445.681 530.475 445.514C529.473 445.389 528.471 445.305 527.428 445.222C524.965 444.971 522.501 444.763 519.996 444.596C518.744 444.512 517.491 444.429 516.197 444.345C514.861 444.262 513.525 444.22 512.231 444.136C510.895 444.095 509.559 444.011 508.223 443.969C506.928 443.928 505.634 443.886 504.34 443.886C502.753 443.844 501.125 443.844 499.539 443.844C498.37 443.844 497.242 443.844 496.073 443.844C493.61 443.886 491.147 443.928 488.684 444.011C487.556 444.053 486.471 444.095 485.344 444.178C483.632 444.262 481.92 444.345 480.208 444.47C479.039 444.554 477.871 444.637 476.701 444.721C474.865 444.846 473.027 445.013 471.149 445.18C470.147 445.264 469.145 445.347 468.143 445.472C465.387 445.765 462.59 446.099 459.793 446.474C459 446.6 458.206 446.725 457.413 446.808C455.242 447.101 453.113 447.435 450.9 447.81C449.856 447.977 448.812 448.186 447.769 448.353C445.723 448.729 443.677 449.105 441.632 449.522C440.671 449.731 439.669 449.898 438.709 450.107C435.787 450.733 432.822 451.359 429.858 452.111L429.733 452.152L422.886 424.013C508.139 406.019 583.414 421.925 634.391 441.757Z" fill="#8674FC"/>
<path fill-rule="evenodd" clip-rule="evenodd" d="M587.798 217.1C585.377 233.841 594.186 289.745 610.051 355.042C625.916 420.297 643.743 473.946 653.554 487.765C647.167 483.256 637.606 477.578 625.415 471.816C608.005 437.206 594.562 400.925 585.335 363.642C575.649 324.689 570.555 284.609 570.138 244.154C578.279 233.507 584.208 224.072 587.798 217.1Z" fill="#8674FC"/>
<path fill-rule="evenodd" clip-rule="evenodd" d="M570.096 244.195C578.321 233.507 584.208 224.072 587.798 217.1C586.796 224.197 587.756 238.434 590.47 257.388C589.552 258.641 588.591 259.893 587.631 261.188C582.997 267.2 577.695 273.629 571.766 280.226C570.806 268.285 570.221 256.261 570.096 244.195Z" fill="#8674FC"/>
<path fill-rule="evenodd" clip-rule="evenodd" d="M653.555 487.807C647.167 483.298 637.606 477.62 625.415 471.859C618.902 458.958 612.974 445.807 607.588 432.488C617.149 435.369 626.083 438.5 634.391 441.757C641.948 464.511 648.712 481.002 653.555 487.807Z" fill="#6852F6"/>
<path fill-rule="evenodd" clip-rule="evenodd" d="M625.499 357.38C628.129 368.277 635.519 375.834 641.948 374.289C648.378 372.744 651.425 362.641 648.795 351.744C646.165 340.847 638.775 333.29 632.346 334.835C625.958 336.38 622.868 346.483 625.499 357.38Z" fill="#B3A8FB"/>
<path fill-rule="evenodd" clip-rule="evenodd" d="M346.901 409.108C337.006 413.659 330.075 417.417 326.109 420.339L324.272 417.625C322.644 419.379 320.807 421.132 318.552 423.679C320.723 425.975 323.061 427.854 325.733 429.441C332.664 428.522 340.221 422.844 348.445 412.407C351.034 411.822 352.954 410.778 354.165 409.317C354.207 407.981 353.539 406.687 352.161 405.393C355.585 402.929 356.962 401.218 356.211 400.174C350.867 403.806 347.778 406.77 346.901 409.108Z" fill="#8F7DFF"/>
<path fill-rule="evenodd" clip-rule="evenodd" d="M329.199 417.417L345.774 409.234L349.239 413.576L335.42 426.936L329.199 417.417Z" fill="#604FCC"/>
<path fill-rule="evenodd" clip-rule="evenodd" d="M237.892 605.961C237.892 605.961 235.053 608.8 234.969 609.802C234.886 610.846 234.719 621.91 235.888 622.953C237.057 623.997 240.48 624.707 239.353 625.876C238.518 626.753 232.13 626.586 227.913 626.335C226.661 626.293 225.116 616.273 224.657 614.812C223.947 612.683 221.4 608.049 222.027 606.546C222.361 605.836 224.699 604.166 226.786 602.788C229.041 601.327 231.17 598.07 231.17 598.07L237.892 605.961Z" fill="#8F7DFF"/>
<path fill-rule="evenodd" clip-rule="evenodd" d="M226.911 602.703C226.911 602.703 232.882 620.99 235.428 621.908C236.096 622.159 240.021 623.244 240.605 624.705L240.647 624.831C240.856 625.749 240.063 626.626 239.102 626.626H226.911C226.911 626.626 225.2 618.359 224.49 614.727C224.49 614.727 220.858 605.876 221.275 605.041C221.734 604.248 226.911 602.703 226.911 602.703Z" fill="#362891"/>
<path fill-rule="evenodd" clip-rule="evenodd" d="M276.009 612.89L273.463 620.197C273.254 621.366 272.544 624.205 272.544 625.248C272.544 629.215 290.121 621.908 286.196 620.155C285.821 619.988 284.735 618.694 284.61 617.358C284.443 615.27 286.071 612.682 286.071 612.682L276.009 612.89Z" fill="#8F7DFF"/>
<path fill-rule="evenodd" clip-rule="evenodd" d="M271.5 626.585L273.504 620.113C273.504 620.113 277.721 621.909 279.85 621.616C281.979 621.324 286.113 620.113 286.113 620.113C294.546 622.911 301.477 624.288 300.224 626.585H271.5Z" fill="#362891"/>
<path fill-rule="evenodd" clip-rule="evenodd" d="M297.344 472.443L300.725 490.939C300.725 490.939 309.159 549.639 308.366 553.647C306.445 563.375 287.031 616.23 287.031 616.23L274.59 614.644L288.242 552.102L265.488 493.36L297.344 472.443Z" fill="#4B3BB3"/>
<path fill-rule="evenodd" clip-rule="evenodd" d="M274.548 482.672L265.447 493.277L256.512 548.846L228.414 600.658C228.414 600.658 232.631 607.171 237.182 608.173L277.053 555.818L298.638 490.229L297.886 475.658L274.548 482.672Z" fill="#7764F0"/>
<path fill-rule="evenodd" clip-rule="evenodd" d="M276.26 421.258L265.363 421.926C265.363 421.926 262.482 425.516 262.357 425.516C261.23 425.725 266.323 470.857 267.325 487.557C268.369 504.299 272.586 499.623 272.586 499.623C272.586 499.623 284.192 503.923 294.839 500.75C305.902 497.452 302.145 483.424 302.145 483.424C302.145 483.424 295.256 452.779 291.457 443.385C287.699 433.95 276.26 421.258 276.26 421.258Z" fill="#F0EFF8"/>
<path fill-rule="evenodd" clip-rule="evenodd" d="M284.234 421.3C284.234 421.008 318.386 430.193 318.386 430.193C318.386 430.193 323.354 428.105 332.205 425.016C333.123 427.771 333.541 430.61 333.708 433.449C325.525 438.167 323.187 441.465 320.849 442.05C316.507 443.135 291.791 439.503 291.791 439.503C291.791 439.503 284.234 421.509 284.234 421.3Z" fill="#604FCC"/>
<path fill-rule="evenodd" clip-rule="evenodd" d="M306.612 491.607C306.529 491.106 305.694 468.144 300.266 449.147C296.049 434.451 287.449 422.886 284.443 421.3C283.316 420.674 275.007 421.425 275.007 421.425L279.349 425.266C283.984 429.817 286.363 434.493 289.62 440.296C299.055 457.205 295.173 507.722 296.049 507.681C297.051 507.597 309.535 509.225 306.612 491.607Z" fill="#7261E0"/>
<path fill-rule="evenodd" clip-rule="evenodd" d="M296.175 405.893L297.594 460.586L337.465 456.286L336.547 438.584L336.839 402.846L296.175 405.893Z" fill="white"/>
<path opacity="0.63" fill-rule="evenodd" clip-rule="evenodd" d="M298.429 460.503L337.465 456.287L336.547 438.585L336.839 403.348L297.01 406.354L298.429 460.503Z" fill="#604FCC"/>
<path fill-rule="evenodd" clip-rule="evenodd" d="M265.405 421.926C265.405 421.926 254.842 423.679 251.961 426.31C250.124 427.98 253.423 447.602 253.423 447.602C253.423 447.602 259.435 466.557 259.894 472.276C261.48 491.815 260.687 509.684 261.606 510.311C267.158 512.482 286.489 509.684 287.282 507.472C296.342 482.839 265.405 421.926 265.405 421.926Z" fill="#7261E0"/>
<path fill-rule="evenodd" clip-rule="evenodd" d="M254.842 446.81C254.842 446.81 275.174 475.284 280.644 477.121C286.113 478.958 295.632 440.84 295.632 440.84C295.632 440.84 302.813 432.824 303.439 432.573C304.525 435.872 295.59 436.79 297.761 432.824L295.59 428.023C298.304 424.015 294.713 423.096 292.417 428.607C290.497 433.241 289.578 439.671 288.66 441.049L278.765 455.912L264.904 436.122L254.842 446.81Z" fill="#8F7DFF"/>
<path fill-rule="evenodd" clip-rule="evenodd" d="M289.161 438.71L295.089 445.223C295.089 445.223 287.449 479.458 281.771 479.666C276.051 479.833 256.303 452.362 252.003 444.346C247.703 436.372 248.621 428.23 252.546 425.684C256.429 423.137 262.148 429.441 264.445 432.155C266.741 434.869 278.765 455.869 278.765 455.869L289.161 438.71Z" fill="#604FCC"/>
<path fill-rule="evenodd" clip-rule="evenodd" d="M293.795 428.689L295.214 428.104C295.632 427.979 296.008 427.812 296.383 427.562C297.845 426.685 301.936 424.305 302.521 425.057C303.272 426.017 297.01 429.566 297.01 429.566C297.01 429.566 304.024 426.059 304.441 427.353C304.859 428.647 297.636 431.82 297.636 431.82C297.636 431.82 304.065 429.357 304.399 430.067C304.733 430.776 297.344 435.578 297.344 435.578C297.344 435.578 303.439 431.862 304.358 432.53C305.276 433.156 294.922 443.385 294.922 443.385L293.795 428.689Z" fill="#8F7DFF"/>
<path fill-rule="evenodd" clip-rule="evenodd" d="M270.415 398.88C270.415 398.88 271.5 413.535 272.377 419.171C272.836 422.01 273.045 424.306 275.258 425.767C275.258 425.767 270.999 427.187 269.246 426.31C269.246 426.31 269.663 426.853 269.997 427.02C269.997 427.02 265.154 428.314 262.775 427.27C259.226 425.893 251.794 384.31 267.242 384.31C267.242 384.31 280.518 380.051 282.522 393.578C286.363 409.318 290.789 422.636 292.459 425.141C291.123 426.352 286.781 424.348 286.071 423.179C285.403 422.177 284.902 420.924 284.693 420.632C284.693 420.632 286.071 424.348 286.322 424.515C286.322 424.515 280.727 425.141 277.972 423.93C275.216 422.678 270.373 401.761 270.415 398.88Z" fill="#362891"/>
<path fill-rule="evenodd" clip-rule="evenodd" d="M268.494 405.019C268.494 405.019 264.57 401.136 262.983 397.378C261.856 394.706 260.896 384.06 271.584 383.183C271.584 383.183 274.673 382.766 277.93 384.06C280.518 385.062 284.526 387.609 282.982 397.42L282.731 400.677L268.494 405.019Z" fill="#362891"/>
<path fill-rule="evenodd" clip-rule="evenodd" d="M265.071 401.51L264.236 421.842C264.236 421.842 276.26 433.616 278.389 431.82C280.518 430.025 274.465 420.924 274.131 419.546C273.838 418.168 274.381 403.305 274.381 403.305L265.071 401.51Z" fill="#8F7DFF"/>
<path fill-rule="evenodd" clip-rule="evenodd" d="M274.548 420.507C274.339 420.09 274.172 419.756 274.131 419.589C273.838 418.211 274.381 403.348 274.381 403.348L265.029 401.553L264.737 408.274C267.826 414.453 271.542 418.169 274.548 420.507Z" fill="#7461F0"/>
<path fill-rule="evenodd" clip-rule="evenodd" d="M283.858 398.296C284.485 401.261 284.359 405.853 282.564 410.279C279.308 418.378 267.117 415.247 265.488 405.102C263.067 398.63 265.238 391.867 270.29 389.946C275.383 388.109 282.689 391.491 283.858 398.296Z" fill="#8F7DFF"/>
<path fill-rule="evenodd" clip-rule="evenodd" d="M275.717 419.63C278.347 424.556 279.349 427.687 279.6 429.775C279.683 430.735 279.558 431.487 279.182 431.946C278.765 432.489 278.097 432.697 277.22 432.53C276.009 432.322 274.256 431.32 272.001 429.566C270.206 428.188 267.576 425.725 264.528 422.844L263.484 421.884L264.528 421.091L265.405 421.926C268.411 424.807 270.999 427.228 272.753 428.564C274.84 430.192 276.427 431.111 277.429 431.278C277.805 431.361 278.013 431.32 278.139 431.194C278.306 430.986 278.347 430.568 278.264 429.984C278.097 428.272 276.886 425.224 274.84 421.174C274.59 420.673 274.339 420.172 274.131 419.588L275.717 419.63Z" fill="#604FCC"/>
<path fill-rule="evenodd" clip-rule="evenodd" d="M276.009 387.566C283.316 389.862 281.896 392.91 284.318 395.958C284.318 395.958 284.735 388.86 280.852 385.938C276.761 382.765 276.009 387.566 276.009 387.566Z" fill="#362891"/>
<path fill-rule="evenodd" clip-rule="evenodd" d="M278.431 386.648C277.471 386.439 276.928 386.648 276.719 387.316C277.262 388.61 278.097 389.445 279.308 389.863C278.807 389.362 278.514 388.276 278.431 386.648ZM268.286 386.272C269.329 385.688 269.705 385.02 269.371 384.268C267.826 383.475 266.323 383.391 264.862 383.976C265.739 384.018 266.866 384.811 268.286 386.272Z" fill="#362891"/>
<path fill-rule="evenodd" clip-rule="evenodd" d="M276.928 385.854C276.928 385.854 275.55 396.208 270.415 398.838C265.28 401.51 262.566 400.592 262.566 400.592C262.566 400.592 265.989 396.292 265.53 390.28C265.488 390.321 273.212 381.971 276.928 385.854Z" fill="#362891" stroke="#362891" stroke-width="0.216" stroke-miterlimit="2.613"/>
<path fill-rule="evenodd" clip-rule="evenodd" d="M267.2 410.361C267.2 410.194 267.2 410.027 267.2 409.86C266.449 408.566 265.948 407.021 265.739 405.267C264.152 404.391 261.522 406.061 259.268 407.355C260.437 417.333 262.733 427.228 263.484 427.812C265.071 429.065 267.952 428.188 267.952 428.188C267.743 427.979 267.409 427.395 267.409 427.395C268.578 428.397 271.125 427.353 271.125 427.353C269.622 425.725 269.288 423.429 268.787 420.631C268.369 418.252 267.785 414.202 267.2 410.361Z" fill="#362891"/>
<path fill-rule="evenodd" clip-rule="evenodd" d="M267.325 404.558C267.618 406.27 266.866 407.815 265.572 408.024C264.319 408.232 263.067 407.022 262.775 405.352C262.482 403.64 263.234 402.095 264.528 401.886C265.781 401.636 267.033 402.847 267.325 404.558Z" fill="#8F7DFF"/>
<path fill-rule="evenodd" clip-rule="evenodd" d="M263.693 400.091C264.946 398.672 266.073 398.338 267.158 399.089C267.826 401.761 267.492 404.099 266.115 406.103C266.24 404.809 265.447 402.763 263.693 400.091ZM279.934 391.24C280.017 388.485 280.602 387.524 281.562 388.443C283.19 392.534 284.067 396.501 284.151 400.3C283.65 398.045 282.23 394.998 279.934 391.24ZM272.711 388.735C271.292 386.355 271.25 385.27 272.586 385.479C276.176 388.025 279.057 390.864 281.186 394.037C278.514 392.534 272.92 391.031 272.711 388.735ZM268.453 385.938C267.952 385.729 267.618 385.228 267.492 384.393C267.743 383.182 268.202 382.64 268.828 382.723C268.578 383.099 268.453 384.143 268.453 385.938Z" fill="#362891"/>
<path fill-rule="evenodd" clip-rule="evenodd" d="M278.055 430.777C278.723 430.484 279.6 431.069 280.017 432.029C280.435 432.989 280.226 434.033 279.558 434.284C278.89 434.576 278.013 433.991 277.596 433.031C277.178 432.071 277.387 431.069 278.055 430.777Z" fill="#604FCC"/>
<path fill-rule="evenodd" clip-rule="evenodd" d="M279.558 433.699C279.976 433.532 280.518 433.866 280.769 434.492C281.019 435.077 280.894 435.703 280.477 435.87C280.059 436.037 279.516 435.703 279.266 435.118C279.015 434.492 279.141 433.866 279.558 433.699Z" fill="#604FCC"/>
<path fill-rule="evenodd" clip-rule="evenodd" d="M280.393 435.538C280.769 435.371 281.228 435.705 281.437 436.206C281.646 436.748 281.562 437.291 281.186 437.416C280.811 437.583 280.351 437.249 280.143 436.748C279.934 436.247 280.059 435.705 280.393 435.538Z" fill="#604FCC"/>
<path fill-rule="evenodd" clip-rule="evenodd" d="M274.924 400.425C271.793 398.796 272.21 399.005 269.371 400.007C270.54 398.504 272.21 398.295 273.88 399.005C274.59 399.381 274.757 399.381 274.924 400.425Z" fill="#2612A3"/>
<path fill-rule="evenodd" clip-rule="evenodd" d="M272.502 402.388C271.96 402.43 271.542 401.929 271.5 401.261C271.459 400.593 271.876 400.05 272.419 400.008C272.962 399.967 273.379 400.468 273.421 401.136C273.421 401.762 273.003 402.346 272.502 402.388Z" fill="#2612A3"/>
<path fill-rule="evenodd" clip-rule="evenodd" d="M272.461 401.594C272.294 401.594 272.127 401.427 272.127 401.176C272.127 400.926 272.252 400.759 272.461 400.717C272.628 400.717 272.795 400.884 272.795 401.134C272.795 401.385 272.628 401.594 272.461 401.594Z" fill="#C4BBFA"/>
<path fill-rule="evenodd" clip-rule="evenodd" d="M272.502 400.551C272.461 400.551 272.419 400.51 272.419 400.426C272.419 400.343 272.461 400.301 272.502 400.301C272.836 400.301 273.087 400.593 273.129 401.011C273.129 401.094 273.087 401.136 273.045 401.136C273.003 401.136 272.962 401.094 272.962 401.011C272.92 400.76 272.753 400.551 272.502 400.551Z" fill="#C4BBFA"/>
<path fill-rule="evenodd" clip-rule="evenodd" d="M278.264 399.089C281.061 396.626 280.685 396.96 283.608 397.168C282.188 396.041 280.56 396.25 279.057 397.461C278.347 398.003 278.222 398.045 278.264 399.089Z" fill="#2612A3"/>
<path fill-rule="evenodd" clip-rule="evenodd" d="M280.978 400.343C281.479 400.217 281.854 399.591 281.771 398.965C281.687 398.297 281.186 397.879 280.644 398.005C280.143 398.13 279.767 398.756 279.85 399.382C279.934 400.009 280.435 400.468 280.978 400.343Z" fill="#2612A3"/>
<path fill-rule="evenodd" clip-rule="evenodd" d="M280.852 399.589C281.019 399.547 281.145 399.339 281.145 399.088C281.103 398.838 280.936 398.712 280.769 398.754C280.602 398.796 280.477 399.005 280.477 399.255C280.477 399.464 280.685 399.631 280.852 399.589ZM280.602 398.545C280.644 398.545 280.685 398.462 280.685 398.42C280.685 398.337 280.644 398.295 280.56 398.337C280.226 398.42 280.017 398.796 280.101 399.213C280.101 399.297 280.143 399.339 280.226 399.297C280.268 399.297 280.31 399.213 280.31 399.172C280.226 398.879 280.393 398.629 280.602 398.545Z" fill="#C4BBFA"/>
<path d="M277.262 400.885C276.928 403.766 280.268 406.939 276.97 406.688L276.844 406.646" stroke="#8674FC" stroke-width="0.113" stroke-miterlimit="2.613" stroke-linecap="round" stroke-linejoin="round"/>
<path fill-rule="evenodd" clip-rule="evenodd" d="M279.141 410.486C276.844 411.363 273.588 409.735 276.97 409.735C277.93 409.735 278.723 409.359 279.475 408.983C280.727 408.399 279.767 410.236 279.141 410.486Z" fill="white"/>
<path fill-rule="evenodd" clip-rule="evenodd" d="M276.803 387.065C276.803 387.065 276.552 397.628 270.373 402.388C270.373 402.388 275.884 394.664 274.924 387.984C274.005 381.262 276.803 387.065 276.803 387.065Z" fill="#362891"/>
<path fill-rule="evenodd" clip-rule="evenodd" d="M346.024 254.466C367.483 275.925 366.189 309.826 346.024 332.496L306.988 376.459L267.951 332.496C247.786 309.784 246.492 275.925 267.951 254.466C289.453 233.006 324.564 233.006 346.024 254.466Z" fill="#4A30F0"/>
<path fill-rule="evenodd" clip-rule="evenodd" d="M307.029 259.268C325.483 259.268 340.471 274.214 340.471 292.709C340.471 311.163 325.525 326.151 307.029 326.151C288.576 326.151 273.588 311.205 273.588 292.709C273.588 274.214 288.576 259.268 307.029 259.268Z" fill="white"/>
<path fill-rule="evenodd" clip-rule="evenodd" d="M307.03 266.824C321.308 266.824 332.873 278.389 332.873 292.667C332.873 306.946 321.308 318.511 307.03 318.511C292.751 318.511 281.186 306.946 281.186 292.667C281.186 278.389 292.751 266.824 307.03 266.824Z" fill="#8674FC"/>
<path fill-rule="evenodd" clip-rule="evenodd" d="M561.746 502.629L556.444 505.718C554.649 506.762 554.022 509.1 555.066 510.854L556.235 512.858C557.613 515.237 557.028 516.323 556.569 516.699C555.4 517.742 554.273 518.911 553.187 520.039C552.853 520.372 551.851 521.542 549.138 519.955L547.301 518.87C545.505 517.826 543.209 518.452 542.165 520.247L539.076 525.55C538.032 527.345 538.658 529.641 540.454 530.685L542.291 531.77C544.837 533.232 544.754 533.983 544.42 535.069C543.961 536.53 543.501 538.033 543.167 539.536C542.875 540.914 543 541.874 539.577 541.874H537.448C535.36 541.874 533.69 543.586 533.69 545.631V551.768C533.69 553.856 535.402 555.526 537.448 555.526H539.577C543.042 555.526 542.875 556.486 543.167 557.864C543.501 559.409 543.961 560.87 544.42 562.331C544.754 563.417 544.796 564.168 542.291 565.63L540.454 566.715C538.658 567.759 538.032 570.097 539.076 571.85L542.165 577.153C543.209 578.948 545.547 579.574 547.301 578.53L549.138 577.445C551.851 575.858 552.853 577.027 553.187 577.361C554.273 578.489 555.4 579.658 556.569 580.701C556.987 581.077 557.613 582.163 556.235 584.542L555.066 586.546C554.022 588.342 554.649 590.638 556.444 591.681L561.746 594.771C563.541 595.815 565.879 595.189 566.881 593.393L568.05 591.389C569.47 588.968 570.848 589.051 571.432 589.26C573.144 589.803 574.689 590.137 576.442 590.596C577.068 590.763 578.196 591.222 578.196 594.103V596.274C578.196 598.361 579.907 600.031 581.953 600.031H588.09C590.178 600.031 591.848 598.32 591.848 596.274V594.103C591.848 591.222 592.933 590.763 593.601 590.596C595.355 590.137 596.9 589.803 598.611 589.26C599.196 589.093 600.574 588.968 601.993 591.389L603.162 593.393C604.206 595.189 606.544 595.815 608.297 594.771L613.6 591.681C615.395 590.638 616.021 588.3 614.977 586.546L613.808 584.542C612.431 582.163 613.015 581.077 613.474 580.701C614.643 579.658 615.771 578.489 616.856 577.361C617.19 577.027 618.192 575.858 620.906 577.445L622.743 578.53C624.538 579.574 626.834 578.948 627.878 577.153L630.968 571.85C632.011 570.055 631.385 567.759 629.59 566.715L627.753 565.63C625.206 564.168 625.29 563.417 625.624 562.331C626.083 560.87 626.542 559.367 626.876 557.864C627.168 556.486 627.043 555.526 630.467 555.526H632.596C634.683 555.526 636.353 553.814 636.353 551.768V545.631C636.353 543.544 634.642 541.874 632.596 541.874H630.467C627.001 541.874 627.127 540.914 626.876 539.536C626.542 537.991 626.083 536.53 625.624 535.069C625.29 533.983 625.248 533.232 627.753 531.77L629.59 530.685C631.385 529.641 632.011 527.303 630.968 525.55L627.878 520.247C626.834 518.452 624.496 517.826 622.743 518.87L620.906 519.955C618.192 521.542 617.19 520.372 616.856 520.039C615.771 518.911 614.643 517.742 613.474 516.699C613.057 516.323 612.431 515.237 613.808 512.858L614.977 510.854C616.021 509.058 615.395 506.762 613.6 505.718L608.297 502.629C606.502 501.585 604.206 502.211 603.162 504.007L601.993 506.011C600.574 508.432 599.196 508.349 598.611 508.14C596.9 507.597 595.355 507.263 593.601 506.804C592.975 506.637 591.848 506.178 591.848 503.297V501.126C591.848 499.038 590.136 497.368 588.09 497.368H581.953C579.866 497.368 578.196 499.08 578.196 501.126V503.297C578.196 506.178 577.11 506.637 576.442 506.804C574.689 507.263 573.144 507.597 571.432 508.14C570.848 508.307 569.47 508.432 568.05 506.011L566.881 504.007C565.838 502.211 563.541 501.585 561.746 502.629ZM585.043 540.663C589.51 540.663 593.184 544.295 593.184 548.804C593.184 553.272 589.552 556.946 585.043 556.946C580.575 556.946 576.901 553.313 576.901 548.804C576.901 544.295 580.534 540.663 585.043 540.663ZM559.575 548.804C559.575 547.844 560.368 547.051 561.329 547.051C562.289 547.051 563.082 547.844 563.082 548.804C563.082 554.858 565.545 560.369 569.512 564.335C573.478 568.301 578.989 570.765 585.043 570.765C586.003 570.765 586.796 571.558 586.796 572.518C586.796 573.479 586.003 574.272 585.043 574.272C578.029 574.272 571.641 571.433 567.048 566.798C562.414 562.206 559.575 555.818 559.575 548.804ZM610.176 544.671C610.343 545.631 609.675 546.508 608.757 546.633C607.796 546.8 606.92 546.132 606.794 545.214C606.043 540.621 603.872 536.488 600.741 533.315C597.609 530.142 593.476 527.929 588.884 527.136C587.923 526.969 587.297 526.092 587.464 525.132C587.631 524.172 588.508 523.546 589.468 523.713C594.812 524.631 599.572 527.22 603.204 530.893C606.753 534.568 609.299 539.327 610.176 544.671ZM585.043 518.619C601.701 518.619 615.228 532.146 615.228 548.804C615.228 565.463 601.701 578.99 585.043 578.99C568.384 578.99 554.857 565.463 554.857 548.804C554.857 532.146 568.384 518.619 585.043 518.619ZM416.581 229.083L411.279 232.172C409.484 233.216 408.858 235.554 409.901 237.308L411.07 239.312C412.448 241.691 411.864 242.777 411.404 243.153C410.235 244.196 409.108 245.365 408.023 246.493C407.689 246.827 406.687 247.996 403.973 246.409L402.136 245.324C400.341 244.28 398.044 244.906 397.001 246.701L393.911 252.004C392.867 253.799 393.494 256.095 395.289 257.139L397.126 258.224C399.673 259.686 399.589 260.437 399.255 261.523C398.796 262.984 398.337 264.487 398.003 265.99C397.71 267.368 397.836 268.328 394.412 268.328H392.283C390.195 268.328 388.525 270.04 388.525 272.085V278.223C388.525 280.31 390.237 281.98 392.283 281.98H394.412C397.877 281.98 397.71 282.94 398.003 284.318C398.337 285.863 398.796 287.324 399.255 288.785C399.589 289.871 399.631 290.622 397.126 292.084L395.289 293.169C393.494 294.213 392.867 296.551 393.911 298.304L397.001 303.607C398.044 305.402 400.382 306.028 402.136 304.984L403.973 303.899C406.687 302.312 407.689 303.481 408.023 303.815C409.108 304.943 410.235 306.112 411.404 307.155C411.822 307.531 412.448 308.617 411.07 310.996L409.901 313C408.858 314.796 409.484 317.092 411.279 318.136L416.581 321.225C418.377 322.269 420.715 321.643 421.717 319.847L422.886 317.843C424.305 315.422 425.683 315.505 426.267 315.714C427.979 316.257 429.524 316.591 431.277 317.05C431.904 317.217 433.031 317.676 433.031 320.557V322.728C433.031 324.816 434.743 326.486 436.788 326.486H442.926C445.013 326.486 446.683 324.774 446.683 322.728V320.557C446.683 317.676 447.769 317.217 448.437 317.05C450.19 316.591 451.735 316.257 453.447 315.714C454.031 315.547 455.409 315.422 456.828 317.843L457.997 319.847C459.041 321.643 461.379 322.269 463.133 321.225L468.435 318.136C470.23 317.092 470.856 314.754 469.813 313L468.644 310.996C467.266 308.617 467.85 307.531 468.31 307.155C469.479 306.112 470.606 304.943 471.691 303.815C472.025 303.481 473.027 302.312 475.741 303.899L477.578 304.984C479.373 306.028 481.67 305.402 482.713 303.607L485.803 298.304C486.847 296.509 486.22 294.213 484.425 293.169L482.588 292.084C480.041 290.622 480.125 289.871 480.459 288.785C480.918 287.324 481.377 285.821 481.711 284.318C482.004 282.94 481.878 281.98 485.302 281.98H487.431C489.519 281.98 491.189 280.268 491.189 278.223V272.085C491.189 269.998 489.477 268.328 487.431 268.328H485.302C481.837 268.328 481.962 267.368 481.711 265.99C481.377 264.445 480.918 262.984 480.459 261.523C480.125 260.437 480.083 259.686 482.588 258.224L484.425 257.139C486.22 256.095 486.847 253.757 485.803 252.004L482.713 246.701C481.67 244.906 479.332 244.28 477.578 245.324L475.741 246.409C473.027 247.996 472.025 246.827 471.691 246.493C470.606 245.365 469.479 244.196 468.31 243.153C467.892 242.777 467.266 241.691 468.644 239.312L469.813 237.308C470.856 235.512 470.23 233.216 468.435 232.172L463.133 229.083C461.337 228.039 459.041 228.665 457.997 230.461L456.828 232.465C455.409 234.886 454.031 234.803 453.447 234.594C451.735 234.051 450.19 233.717 448.437 233.258C447.81 233.091 446.683 232.632 446.683 229.751V227.58C446.683 225.492 444.971 223.822 442.926 223.822H436.788C434.701 223.822 433.031 225.534 433.031 227.58V229.751C433.031 232.632 431.945 233.091 431.277 233.258C429.524 233.717 427.979 234.051 426.267 234.594C425.683 234.761 424.305 234.886 422.886 232.465L421.717 230.461C420.715 228.624 418.377 228.039 416.581 229.083ZM439.878 267.117C444.345 267.117 448.019 270.749 448.019 275.258C448.019 279.726 444.387 283.4 439.878 283.4C435.411 283.4 431.737 279.767 431.737 275.258C431.778 270.749 435.411 267.117 439.878 267.117ZM414.41 275.217C414.41 274.256 415.204 273.463 416.164 273.463C417.124 273.463 417.917 274.256 417.917 275.217C417.917 281.27 420.381 286.781 424.347 290.748C428.313 294.714 433.824 297.177 439.878 297.177C440.838 297.177 441.631 297.97 441.631 298.931C441.631 299.891 440.838 300.684 439.878 300.684C432.864 300.684 426.476 297.845 421.884 293.211C417.249 288.618 414.41 282.272 414.41 275.217ZM465.011 271.125C465.178 272.085 464.51 272.962 463.592 273.087C462.632 273.254 461.755 272.586 461.63 271.668C460.878 267.075 458.707 262.942 455.576 259.769C452.445 256.596 448.311 254.383 443.719 253.59C442.759 253.423 442.132 252.546 442.299 251.586C442.466 250.626 443.343 250 444.303 250.167C449.647 251.085 454.407 253.674 458.039 257.348C461.63 260.98 464.135 265.781 465.011 271.125ZM439.878 245.073C456.536 245.073 470.063 258.6 470.063 275.258C470.063 291.917 456.536 305.444 439.878 305.444C423.22 305.444 409.693 291.917 409.693 275.258C409.693 258.558 423.22 245.073 439.878 245.073Z" fill="#7261E0"/>
<path fill-rule="evenodd" clip-rule="evenodd" d="M337.716 482.964L332.998 485.72C331.412 486.638 330.869 488.684 331.787 490.27L332.831 492.066C334.042 494.153 333.541 495.113 333.123 495.447C332.08 496.366 331.119 497.41 330.117 498.412C329.825 498.704 328.907 499.706 326.527 498.328L324.899 497.368C323.312 496.449 321.266 496.992 320.348 498.579L317.592 503.296C316.674 504.883 317.217 506.929 318.803 507.847L320.431 508.807C322.686 510.102 322.602 510.77 322.352 511.73C321.976 513.024 321.559 514.36 321.266 515.696C321.016 516.907 321.141 517.742 318.093 517.742H316.215C314.378 517.742 312.875 519.245 312.875 521.082V526.509C312.875 528.346 314.378 529.849 316.215 529.849H318.093C321.141 529.849 321.016 530.726 321.266 531.895C321.559 533.231 321.976 534.567 322.352 535.861C322.644 536.822 322.686 537.49 320.431 538.784L318.803 539.744C317.217 540.663 316.674 542.708 317.592 544.295L320.348 549.013C321.266 550.599 323.312 551.142 324.899 550.223L326.527 549.263C328.907 547.885 329.825 548.887 330.117 549.18C331.078 550.182 332.08 551.225 333.123 552.144C333.499 552.478 334.042 553.438 332.831 555.526L331.787 557.321C330.869 558.907 331.412 560.953 332.998 561.872L337.716 564.627C339.302 565.546 341.348 565.003 342.267 563.416L343.31 561.621C344.563 559.492 345.774 559.575 346.275 559.742C347.778 560.202 349.155 560.536 350.7 560.953C351.285 561.12 352.245 561.496 352.245 564.043V565.963C352.245 567.8 353.748 569.303 355.585 569.303H361.012C362.849 569.303 364.352 567.8 364.352 565.963V564.043C364.352 561.496 365.313 561.078 365.897 560.953C367.442 560.536 368.82 560.243 370.323 559.742C370.824 559.575 372.076 559.492 373.287 561.621L374.331 563.416C375.249 565.003 377.295 565.546 378.881 564.627L383.599 561.872C385.186 560.953 385.728 558.907 384.81 557.321L383.766 555.526C382.555 553.438 383.056 552.478 383.474 552.144C384.518 551.225 385.478 550.182 386.48 549.18C386.772 548.887 387.691 547.844 390.07 549.263L391.699 550.223C393.285 551.142 395.331 550.599 396.249 549.013L399.005 544.295C399.923 542.708 399.381 540.663 397.794 539.744L396.166 538.784C393.911 537.49 393.995 536.822 394.245 535.861C394.621 534.567 395.039 533.231 395.331 531.895C395.581 530.684 395.456 529.849 398.504 529.849H400.383C402.22 529.849 403.723 528.346 403.723 526.509V521.082C403.723 519.245 402.22 517.742 400.383 517.742H398.504C395.456 517.742 395.581 516.865 395.331 515.696C395.039 514.36 394.621 513.024 394.245 511.73C393.953 510.77 393.911 510.102 396.166 508.807L397.794 507.847C399.381 506.929 399.923 504.883 399.005 503.296L396.249 498.579C395.331 496.992 393.285 496.449 391.699 497.368L390.07 498.328C387.691 499.706 386.772 498.704 386.48 498.412C385.52 497.41 384.518 496.366 383.474 495.447C383.098 495.113 382.555 494.153 383.766 492.066L384.81 490.27C385.728 488.684 385.186 486.638 383.599 485.72L378.881 482.964C377.295 482.046 375.249 482.588 374.331 484.175L373.287 485.97C372.034 488.099 370.824 488.016 370.323 487.849C368.82 487.39 367.442 487.056 365.897 486.638C365.313 486.471 364.352 486.095 364.352 483.549V481.628C364.352 479.791 362.849 478.288 361.012 478.288H355.585C353.748 478.288 352.245 479.791 352.245 481.628V483.549C352.245 486.095 351.285 486.513 350.7 486.638C349.155 487.056 347.778 487.348 346.275 487.849C345.774 488.016 344.521 488.099 343.31 485.97L342.267 484.175C341.348 482.588 339.302 482.046 337.716 482.964ZM358.34 516.615C362.307 516.615 365.521 519.829 365.521 523.796C365.521 527.762 362.307 530.977 358.34 530.977C354.374 530.977 351.159 527.762 351.159 523.796C351.159 519.829 354.374 516.615 358.34 516.615ZM335.795 523.796C335.795 522.961 336.505 522.251 337.34 522.251C338.175 522.251 338.885 522.961 338.885 523.796C338.885 529.181 341.056 534.024 344.563 537.531C348.07 541.038 352.955 543.209 358.299 543.209C359.134 543.209 359.843 543.877 359.843 544.754C359.843 545.589 359.175 546.299 358.299 546.299C352.078 546.299 346.442 543.794 342.35 539.702C338.342 535.653 335.795 530.016 335.795 523.796ZM380.551 520.163C380.677 520.998 380.134 521.792 379.299 521.917C378.464 522.042 377.671 521.499 377.545 520.623C376.877 516.531 374.957 512.899 372.16 510.102C369.362 507.304 365.73 505.3 361.68 504.632C360.845 504.507 360.303 503.714 360.428 502.879C360.553 502.044 361.346 501.501 362.181 501.626C366.899 502.42 371.116 504.716 374.331 507.972C377.545 511.187 379.8 515.446 380.551 520.163ZM358.34 497.117C373.078 497.117 385.019 509.058 385.019 523.796C385.019 538.533 373.078 550.474 358.34 550.474C343.603 550.474 331.662 538.533 331.662 523.796C331.62 509.058 343.603 497.117 358.34 497.117ZM164.37 448.771L159.652 451.526C158.066 452.445 157.523 454.491 158.441 456.077L159.485 457.872C160.696 459.96 160.195 460.92 159.777 461.254C158.734 462.173 157.773 463.216 156.771 464.218C156.479 464.511 155.561 465.554 153.181 464.135L151.553 463.175C149.966 462.256 147.92 462.799 147.002 464.385L144.246 469.103C143.328 470.69 143.871 472.735 145.457 473.654L147.085 474.614C149.34 475.908 149.256 476.576 149.006 477.537C148.63 478.831 148.213 480.167 147.92 481.503C147.67 482.714 147.795 483.549 144.747 483.549H142.869C141.032 483.549 139.529 485.052 139.529 486.889V492.316C139.529 494.153 141.032 495.656 142.869 495.656H144.747C147.795 495.656 147.67 496.533 147.92 497.702C148.213 499.038 148.63 500.374 149.006 501.668C149.298 502.628 149.34 503.296 147.085 504.591L145.457 505.551C143.871 506.469 143.328 508.515 144.246 510.102L147.002 514.819C147.92 516.406 149.966 516.949 151.553 516.03L153.181 515.07C155.561 513.692 156.479 514.694 156.771 514.986C157.732 515.988 158.734 517.032 159.777 517.951C160.153 518.285 160.696 519.245 159.485 521.332L158.441 523.128C157.523 524.714 158.066 526.76 159.652 527.678L164.37 530.434C165.956 531.352 168.002 530.81 168.921 529.223L169.964 527.428C171.217 525.299 172.428 525.382 172.929 525.549C174.432 526.008 175.809 526.342 177.354 526.718C177.939 526.885 178.899 527.261 178.899 529.808V531.728C178.899 533.565 180.402 535.068 182.239 535.068H187.666C189.503 535.068 191.006 533.565 191.006 531.728V529.808C191.006 527.261 191.967 526.843 192.551 526.718C194.096 526.301 195.474 526.008 196.977 525.549C197.478 525.382 198.73 525.299 199.941 527.428L200.985 529.223C201.903 530.81 203.949 531.352 205.535 530.434L210.253 527.678C211.84 526.76 212.382 524.714 211.464 523.128L210.42 521.332C209.209 519.245 209.71 518.285 210.128 517.951C211.172 517.032 212.132 515.988 213.134 514.986C213.426 514.694 214.345 513.65 216.724 515.07L218.353 516.03C219.939 516.949 221.985 516.406 222.903 514.819L225.659 510.102C226.577 508.515 226.035 506.469 224.448 505.551L222.82 504.591C220.565 503.296 220.649 502.628 220.899 501.668C221.275 500.374 221.693 499.038 221.985 497.702C222.235 496.491 222.11 495.656 225.158 495.656H227.037C228.874 495.656 230.377 494.153 230.377 492.316V486.889C230.377 485.052 228.874 483.549 227.037 483.549H225.158C222.11 483.549 222.235 482.672 221.985 481.503C221.693 480.167 221.275 478.831 220.899 477.537C220.607 476.576 220.565 475.908 222.82 474.614L224.448 473.654C226.035 472.735 226.577 470.69 225.659 469.103L222.903 464.385C221.985 462.799 219.939 462.256 218.353 463.175L216.724 464.135C214.345 465.513 213.426 464.511 213.134 464.218C212.174 463.216 211.172 462.173 210.128 461.254C209.752 460.92 209.209 459.96 210.42 457.872L211.464 456.077C212.382 454.491 211.84 452.445 210.253 451.526L205.535 448.771C203.949 447.852 201.903 448.395 200.985 449.982L199.941 451.777C198.688 453.906 197.478 453.823 196.977 453.656C195.474 453.196 194.096 452.862 192.551 452.487C191.967 452.32 191.006 451.944 191.006 449.397V447.477C191.006 445.64 189.503 444.137 187.666 444.137H182.239C180.402 444.137 178.899 445.64 178.899 447.477V449.397C178.899 451.944 177.939 452.361 177.354 452.487C175.809 452.904 174.432 453.196 172.929 453.656C172.428 453.823 171.175 453.906 169.964 451.777L168.921 449.982C168.044 448.395 165.956 447.852 164.37 448.771ZM184.994 482.463C188.961 482.463 192.175 485.678 192.175 489.644C192.175 493.61 188.961 496.825 184.994 496.825C181.028 496.825 177.813 493.61 177.813 489.644C177.813 485.678 181.028 482.463 184.994 482.463ZM162.449 489.644C162.449 488.809 163.117 488.099 163.994 488.099C164.829 488.099 165.539 488.809 165.539 489.644C165.539 495.03 167.71 499.873 171.217 503.38C174.724 506.887 179.609 509.058 184.953 509.058C185.788 509.058 186.497 509.726 186.497 510.603C186.497 511.438 185.829 512.147 184.953 512.147C178.732 512.147 173.096 509.642 169.046 505.551C164.996 501.459 162.449 495.865 162.449 489.644ZM207.205 486.012C207.331 486.847 206.788 487.64 205.953 487.765C205.118 487.891 204.325 487.348 204.199 486.471C203.531 482.38 201.611 478.747 198.814 475.95C196.016 473.153 192.384 471.149 188.334 470.481C187.499 470.356 186.957 469.562 187.082 468.727C187.207 467.892 188 467.35 188.835 467.475C193.553 468.268 197.77 470.564 200.985 473.821C204.199 477.036 206.454 481.252 207.205 486.012ZM184.994 462.924C199.732 462.924 211.673 474.865 211.673 489.602C211.673 504.34 199.732 516.281 184.994 516.281C170.257 516.281 158.316 504.34 158.316 489.602C158.316 474.906 170.257 462.924 184.994 462.924ZM671.465 499.163L668.752 500.75C667.833 501.292 667.499 502.461 668.042 503.38L668.626 504.424C669.336 505.634 669.044 506.219 668.793 506.386C668.167 506.929 667.624 507.513 667.04 508.098C666.873 508.265 666.33 508.849 664.952 508.056L663.992 507.513C663.074 506.97 661.863 507.304 661.362 508.223L659.775 510.937C659.233 511.855 659.567 513.066 660.485 513.567L661.445 514.11C662.74 514.861 662.698 515.237 662.531 515.821C662.322 516.573 662.072 517.324 661.905 518.118C661.738 518.827 661.821 519.328 660.068 519.328H658.982C657.897 519.328 657.062 520.205 657.062 521.249V524.422C657.062 525.507 657.938 526.342 658.982 526.342H660.068C661.821 526.342 661.779 526.843 661.905 527.553C662.072 528.346 662.322 529.098 662.531 529.849C662.698 530.392 662.74 530.81 661.445 531.561L660.485 532.104C659.567 532.647 659.233 533.816 659.775 534.734L661.362 537.448C661.905 538.366 663.074 538.7 663.992 538.158L664.952 537.615C666.33 536.822 666.873 537.406 667.04 537.573C667.624 538.158 668.167 538.742 668.793 539.285C669.002 539.494 669.336 540.036 668.626 541.247L668.042 542.291C667.499 543.209 667.833 544.42 668.752 544.921L671.465 546.508C672.384 547.05 673.595 546.716 674.096 545.798L674.68 544.754C675.39 543.502 676.1 543.543 676.434 543.669C677.31 543.961 678.104 544.128 679.022 544.378C679.356 544.462 679.899 544.712 679.899 546.174V547.301C679.899 548.386 680.776 549.221 681.819 549.221H684.992C686.078 549.221 686.913 548.345 686.913 547.301V546.174C686.913 544.712 687.456 544.462 687.79 544.378C688.708 544.128 689.501 543.961 690.378 543.669C690.67 543.585 691.38 543.543 692.09 544.754L692.674 545.798C693.217 546.716 694.386 547.05 695.305 546.508L698.018 544.921C698.937 544.378 699.271 543.209 698.728 542.291L698.144 541.247C697.434 540.036 697.726 539.452 697.977 539.285C698.603 538.742 699.146 538.158 699.73 537.573C699.897 537.406 700.44 536.822 701.818 537.615L702.778 538.158C703.696 538.7 704.907 538.366 705.408 537.448L706.995 534.734C707.537 533.816 707.203 532.605 706.285 532.104L705.325 531.561C704.03 530.81 704.072 530.434 704.239 529.849C704.448 529.098 704.698 528.346 704.865 527.553C705.032 526.843 704.949 526.342 706.702 526.342H707.788C708.873 526.342 709.708 525.466 709.708 524.422V521.249C709.708 520.163 708.832 519.328 707.788 519.328H706.702C704.949 519.328 704.991 518.827 704.865 518.118C704.698 517.324 704.448 516.573 704.239 515.821C704.072 515.279 704.03 514.861 705.325 514.11L706.285 513.567C707.203 513.024 707.537 511.855 706.995 510.937L705.408 508.223C704.865 507.304 703.696 506.97 702.778 507.513L701.818 508.056C700.44 508.849 699.897 508.265 699.73 508.098C699.146 507.513 698.603 506.929 697.977 506.386C697.768 506.177 697.434 505.634 698.144 504.424L698.728 503.38C699.271 502.461 698.937 501.251 698.018 500.75L695.305 499.163C694.386 498.62 693.175 498.954 692.674 499.873L692.09 500.917C691.38 502.169 690.67 502.127 690.378 502.002C689.501 501.71 688.708 501.543 687.79 501.292C687.456 501.209 686.913 500.958 686.913 499.497V498.37C686.913 497.284 686.036 496.449 684.992 496.449H681.819C680.734 496.449 679.899 497.326 679.899 498.37V499.497C679.899 500.958 679.356 501.209 679.022 501.292C678.104 501.543 677.31 501.71 676.434 502.002C676.141 502.086 675.432 502.127 674.68 500.917L674.096 499.873C673.595 498.913 672.384 498.62 671.465 499.163ZM683.448 518.702C685.744 518.702 687.623 520.581 687.623 522.877C687.623 525.173 685.744 527.052 683.448 527.052C681.151 527.052 679.273 525.173 679.273 522.877C679.273 520.539 681.151 518.702 683.448 518.702ZM670.38 522.877C670.38 522.376 670.797 522 671.257 522C671.758 522 672.133 522.418 672.133 522.877C672.133 526.008 673.386 528.806 675.432 530.851C677.477 532.897 680.316 534.15 683.406 534.15C683.907 534.15 684.283 534.567 684.283 535.026C684.283 535.527 683.865 535.903 683.406 535.903C679.774 535.903 676.517 534.442 674.179 532.062C671.841 529.724 670.38 526.468 670.38 522.877ZM696.348 520.748C696.432 521.249 696.098 521.708 695.597 521.75C695.096 521.833 694.637 521.499 694.595 520.998C694.219 518.619 693.092 516.531 691.464 514.861C689.835 513.233 687.748 512.106 685.368 511.688C684.867 511.605 684.575 511.145 684.658 510.644C684.742 510.143 685.201 509.851 685.702 509.935C688.458 510.394 690.879 511.73 692.758 513.609C694.595 515.529 695.889 517.992 696.348 520.748ZM683.448 507.346C692.006 507.346 698.937 514.277 698.937 522.835C698.937 531.394 692.006 538.325 683.448 538.325C674.889 538.325 667.958 531.394 667.958 522.835C667.958 514.318 674.889 507.346 683.448 507.346Z" fill="white"/>
</svg>
