<svg width="547" height="466" viewBox="0 0 547 466" fill="none" xmlns="http://www.w3.org/2000/svg">
<path d="M204.426 253.527L204.458 258.16C204.458 258.848 204.896 259.537 205.805 260.037L256.985 289.75C258.773 290.783 261.721 290.783 263.509 289.75L350.597 239.563C351.506 239.03 351.976 238.341 351.976 237.653L351.944 232.988C351.944 233.677 351.506 234.365 350.565 234.899L263.509 285.086C261.689 286.119 258.743 286.119 256.955 285.086L205.775 255.407C204.866 254.874 204.426 254.185 204.426 253.527Z" fill="#2C2363"/>
<path d="M205.794 251.614C203.992 252.654 203.962 254.35 205.772 255.4L256.955 285.096C258.746 286.136 261.699 286.136 263.501 285.096L350.579 234.904C352.4 233.854 352.391 232.158 350.6 231.119L299.417 201.422C297.606 200.372 294.693 200.372 292.871 201.422L205.794 251.614ZM198.492 186.227L198.679 249.974C198.679 250.662 198.93 251.132 199.307 251.383L202.086 252.999C201.678 252.749 201.429 252.279 201.429 251.559L201.271 187.814C201.271 186.435 202.244 184.714 203.466 183.993L292.686 132.584C293.282 132.208 293.846 132.178 294.255 132.427L291.475 130.811C291.067 130.592 290.535 130.623 289.907 130.966L200.686 182.377C199.464 183.097 198.492 184.82 198.492 186.227Z" fill="#493F8C"/>
<path d="M203.475 183.995C202.253 184.7 201.257 186.426 201.26 187.825L201.441 251.567C201.444 252.968 202.449 253.539 203.671 252.836L292.871 201.421C294.112 200.705 295.091 198.99 295.086 197.591L294.905 133.849C294.9 132.448 293.916 131.864 292.675 132.58L203.475 183.995Z" fill="#2C2363"/>
<path d="M203.885 190.041L204.071 249.575L292.464 198.628L292.271 139.094L203.885 190.041Z" fill="white"/>
<path d="M266.015 213.866C266.414 209.523 266.214 205.634 265.788 202.74C265.333 199.448 264.111 197.405 262.775 196.07C266.101 198.257 268.006 205.552 268.858 212.22L266.015 213.866Z" fill="white"/>
<path d="M267.294 213.126L237.813 230.127C237.813 229.56 237.784 228.964 237.756 228.339C237.187 217.326 234.174 204.668 234.174 204.668C234.174 204.668 240.03 199.899 245.802 196.578C245.802 196.578 248.105 194.904 256.094 203.162C257.743 204.895 259.25 204.695 256.89 193.598C256.89 193.598 264.395 193.088 265.788 202.737C266.214 205.549 267.18 209.068 267.294 213.126Z" fill="white"/>
<path d="M240.229 227.404C240.114 227.857 240.059 228.34 240.114 228.795L230.932 234.102C231.131 226.637 232.098 210.148 232.78 207.508C232.78 207.508 234.287 200.582 240.427 203.449C245.176 205.664 241.907 220.792 240.229 227.404Z" fill="white"/>
<path d="M268.502 256.787C267.843 257.168 267.858 257.777 268.515 258.158L283.884 267.074C284.52 267.442 285.576 267.455 286.236 267.074L317.777 248.893C318.436 248.513 318.439 247.891 317.804 247.523L302.434 238.606C301.778 238.225 300.704 238.225 300.044 238.606L268.502 256.787Z" fill="#372D74"/>
<path d="M319.631 221.273L314.52 224.238L305.114 218.815L310.225 215.852L319.631 221.273Z" fill="#7764F0"/>
<path d="M244.699 246.553L239.588 249.518L235.423 247.118L240.534 244.152L244.699 246.553Z" fill="#7764F0"/>
<path d="M251.561 242.572L246.45 245.538L242.287 243.137L247.396 240.172L251.561 242.572Z" fill="#7764F0"/>
<path d="M254.249 247.076L249.147 250.037L244.982 247.636L250.085 244.676L254.249 247.076Z" fill="#7764F0"/>
<path d="M273.225 242.131L268.114 245.096L263.951 242.696L269.061 239.73L273.225 242.131Z" fill="#7764F0"/>
<path d="M266.353 246.119L261.243 249.083L257.079 246.684L262.19 243.719L266.353 246.119Z" fill="#7764F0"/>
<path d="M258.423 238.59L253.32 241.551L249.157 239.15L254.258 236.191L258.423 238.59Z" fill="#7764F0"/>
<path d="M245.767 258.065L240.656 261.028L236.492 258.629L241.603 255.664L245.767 258.065Z" fill="#7764F0"/>
<path d="M223.185 252.973L218.074 255.939L215.938 254.708L221.049 251.742L223.185 252.973Z" fill="#7764F0"/>
<path d="M228.429 255.994L223.318 258.96L219.153 256.559L224.264 253.594L228.429 255.994Z" fill="#7764F0"/>
<path d="M240.524 255.041L228.561 261.983L224.397 259.582L236.361 252.641L240.524 255.041Z" fill="#7764F0"/>
<path d="M238.914 262.041L233.804 265.005L229.64 262.606L234.751 259.641L238.914 262.041Z" fill="#7764F0"/>
<path d="M251.011 261.083L239.046 268.024L234.883 265.625L246.846 258.684L251.011 261.083Z" fill="#7764F0"/>
<path d="M247.386 251.059L242.285 254.02L238.12 251.619L243.223 248.66L247.386 251.059Z" fill="#7764F0"/>
<path d="M252.629 254.08L247.528 257.041L243.364 254.64L248.465 251.68L252.629 254.08Z" fill="#7764F0"/>
<path d="M292.182 237.196L287.072 240.161L282.908 237.762L288.019 234.797L292.182 237.196Z" fill="#7764F0"/>
<path d="M259.491 250.1L254.39 253.06L250.226 250.66L255.328 247.699L259.491 250.1Z" fill="#7764F0"/>
<path d="M250.624 237.052L245.513 240.017L243.377 238.786L248.486 235.82L250.624 237.052Z" fill="#7764F0"/>
<path d="M271.21 225.109L266.099 228.075L263.963 226.843L269.082 223.883L271.21 225.109Z" fill="#7764F0"/>
<path d="M279 226.654L273.897 229.613L269.734 227.214L274.837 224.254L279 226.654Z" fill="#7764F0"/>
<path d="M264.348 229.091L259.237 232.056L257.101 230.825L262.212 227.859L264.348 229.091Z" fill="#7764F0"/>
<path d="M272.148 230.631L267.045 233.59L262.881 231.191L267.982 228.23L272.148 230.631Z" fill="#7764F0"/>
<path d="M281.697 231.154L276.586 234.12L272.422 231.719L277.533 228.754L281.697 231.154Z" fill="#7764F0"/>
<path d="M257.495 233.063L252.384 236.029L250.247 234.797L255.358 231.832L257.495 233.063Z" fill="#7764F0"/>
<path d="M286.94 234.174L281.829 237.138L277.665 234.739L282.776 231.773L286.94 234.174Z" fill="#7764F0"/>
<path d="M265.286 234.611L260.175 237.577L256.011 235.176L261.12 232.211L265.286 234.611Z" fill="#7764F0"/>
<path d="M274.835 235.135L269.724 238.1L265.56 235.7L270.671 232.734L274.835 235.135Z" fill="#7764F0"/>
<path d="M280.078 238.158L274.967 241.124L270.803 238.723L275.914 235.758L280.078 238.158Z" fill="#7764F0"/>
<path d="M267.982 239.111L262.871 242.077L258.706 239.676L263.817 236.711L267.982 239.111Z" fill="#7764F0"/>
<path d="M261.111 243.096L256 246.061L251.836 243.661L256.947 240.695L261.111 243.096Z" fill="#7764F0"/>
<path d="M285.32 241.178L252.771 260.063L248.607 257.663L281.157 238.777L285.32 241.178Z" fill="#7764F0"/>
<path d="M288.559 227.172L283.456 230.133L279.293 227.732L284.395 224.773L288.559 227.172Z" fill="#7764F0"/>
<path d="M295.421 223.19L290.311 226.155L286.145 223.754L291.256 220.789L295.421 223.19Z" fill="#7764F0"/>
<path d="M309.146 215.229L297.181 222.17L293.017 219.769L304.98 212.828L309.146 215.229Z" fill="#7764F0"/>
<path d="M285.87 222.666L280.759 225.632L276.596 223.231L281.707 220.266L285.87 222.666Z" fill="#7764F0"/>
<path d="M292.732 218.686L287.631 221.646L283.467 219.246L288.569 216.285L292.732 218.686Z" fill="#7764F0"/>
<path d="M303.901 212.205L294.484 217.668L290.32 215.269L299.738 209.805L303.901 212.205Z" fill="#7764F0"/>
<path d="M300.664 226.213L295.553 229.178L291.39 226.778L296.5 223.812L300.664 226.213Z" fill="#7764F0"/>
<path d="M299.045 233.217L293.943 236.178L289.78 233.777L294.881 230.816L299.045 233.217Z" fill="#7764F0"/>
<path d="M312.769 225.256L307.668 228.215L303.502 225.814L308.605 222.855L312.769 225.256Z" fill="#7764F0"/>
<path d="M305.907 229.236L300.796 232.202L296.632 229.801L301.743 226.836L305.907 229.236Z" fill="#7764F0"/>
<path d="M291.796 213.164L286.695 216.125L284.566 214.898L289.668 211.938L291.796 213.164Z" fill="#7764F0"/>
<path d="M298.658 209.183L293.548 212.149L291.42 210.922L296.531 207.957L298.658 209.183Z" fill="#7764F0"/>
<path d="M237.837 250.536L232.734 253.496L228.57 251.096L233.673 248.137L237.837 250.536Z" fill="#7764F0"/>
<path d="M234.763 243.781L229.661 246.742L231.798 247.973L236.901 245.014L234.763 243.781Z" fill="#7764F0"/>
<path d="M278.072 221.129L272.971 224.088L270.843 222.861L275.944 219.902L278.072 221.129Z" fill="#7764F0"/>
<path d="M284.934 217.146L279.823 220.11L277.695 218.883L282.806 215.918L284.934 217.146Z" fill="#7764F0"/>
<path d="M241.626 239.801L236.523 242.761L238.66 243.993L243.763 241.032L241.626 239.801Z" fill="#7764F0"/>
<path d="M245.46 194.402C245.46 194.402 247.59 193.189 247.506 188.876C247.421 184.566 258.603 187.717 258.603 187.717L260.725 200.365L257.117 211.014L245.46 194.402Z" fill="#C9C3ED"/>
<path d="M267.347 213.122C267.777 208.42 267.563 204.211 267.1 201.076C266.608 197.511 265.284 195.299 263.838 193.855C267.439 196.221 269.502 204.119 270.425 211.34L267.347 213.122Z" fill="#6A60AD"/>
<path d="M268.731 212.324L236.814 230.728C236.814 230.114 236.783 229.47 236.752 228.793C236.137 216.871 233.902 202.027 233.902 202.027C233.902 202.027 239.213 198.003 245.462 194.408C245.462 194.408 246.926 196.023 255.574 204.964C257.359 206.839 260.02 203.195 257.465 191.181C257.465 191.181 265.591 190.627 267.099 201.075C267.561 204.121 268.608 207.931 268.731 212.324Z" fill="#958CCF"/>
<path d="M240.801 180.581L249.567 173.84C249.567 173.84 260.415 173.948 260.842 176.139C261.154 177.737 260.928 181.473 260.553 183.218C260.415 183.866 260.523 184.545 260.896 185.092C264.205 189.958 260.013 187.583 259.315 190.42C258.875 192.206 258.454 192.462 258.252 193.353C257.781 195.433 255.45 196.523 253.394 195.946C249.993 194.994 246.592 192.863 246.206 192.478C245.939 192.209 245.751 191.546 245.624 190.883C245.438 189.907 244.815 189.047 243.911 188.632C241.692 187.604 242.071 186.544 242.071 186.544L240.801 180.581Z" fill="#DBD7F7"/>
<path d="M240.345 178.038C240.4 177.05 240.65 176.11 241.096 175.265C241.209 175.051 241.278 174.814 241.309 174.575C241.532 172.866 242.493 171.684 243.993 170.878C246.652 169.212 249.557 168.904 252.586 169.582C253.266 169.766 255.916 169.953 256.966 170.507C258.202 171.248 261.084 173.561 262.01 174.673C262.442 175.165 261.899 177.059 260.909 177.737C255.097 181.564 250.608 180.012 250.484 180.012C249.309 181.432 249.928 186.864 249.185 187.356C248.753 187.667 248.505 187.728 248.257 187.172C247.887 186.247 247.207 185.195 246.465 184.518C244.548 183.653 243.992 184.518 244.24 186.492C244.364 187.48 244.178 188.9 244.982 189.517C244.674 189.457 243.375 188.9 243.003 188.592C242.447 188.099 242.199 187.356 241.767 186.739C239.85 184.27 240.284 178.16 240.345 178.038Z" fill="#493F8C"/>
<path d="M239.431 227.779C239.309 228.271 239.247 228.793 239.309 229.287L229.367 235.032C229.583 226.951 230.628 209.099 231.367 206.241C231.367 206.241 232.998 198.743 239.647 201.846C244.787 204.242 241.247 220.621 239.431 227.779Z" fill="#6A60AD"/>
<path d="M249.041 187.337C249.009 188.246 248.655 188.887 248.111 189.187L246.794 189.912C247.34 189.61 247.692 188.972 247.727 188.062C247.796 186.229 246.547 184 244.936 183.081C244.127 182.618 243.378 182.572 242.825 182.88L244.143 182.152C244.693 181.847 245.443 181.89 246.253 182.353C247.862 183.273 249.111 185.504 249.041 187.337Z" fill="#C1B7FF"/>
<path d="M247.726 188.062C247.657 189.894 246.295 190.631 244.685 189.712C243.073 188.792 241.823 186.561 241.893 184.728C241.962 182.896 243.324 182.16 244.936 183.08C246.546 183.999 247.796 186.229 247.726 188.062Z" fill="#7764F0"/>
<path d="M257.422 169.701C256.235 169.02 254.547 169.117 252.664 170.152C248.915 172.217 245.754 177.225 245.621 181.321L245.524 184.858L244.073 183.949L244.167 180.485C244.3 176.389 247.461 171.381 251.21 169.316C253.093 168.283 254.781 168.186 255.968 168.874L257.422 169.701Z" fill="#7764F0"/>
<path d="M246.902 187.756C246.878 188.452 246.606 188.944 246.188 189.176L245.227 189.704C245.646 189.472 245.915 188.984 245.942 188.284C245.996 186.878 245.038 185.168 243.801 184.464C243.181 184.108 242.606 184.073 242.182 184.31L243.143 183.778C243.566 183.545 244.14 183.577 244.763 183.934C245.997 184.64 246.956 186.35 246.902 187.756Z" fill="#A193FD"/>
<path d="M245.943 188.285C245.891 189.691 244.845 190.255 243.61 189.551C242.374 188.845 241.414 187.135 241.468 185.729C241.521 184.323 242.566 183.758 243.803 184.464C245.038 185.169 245.997 186.879 245.943 188.285Z" fill="#7263D3"/>
<path d="M252.661 170.154C255.631 168.523 258.091 169.225 258.921 171.622C258.182 171.179 257.451 170.778 256.931 170.47C256.922 170.465 256.914 170.459 256.904 170.454C256.901 170.453 256.896 170.449 256.893 170.448L256.898 170.451C255.827 169.854 254.322 169.948 252.637 170.873C249.247 172.736 246.396 177.261 246.279 180.959L246.223 183.183L245.565 183.545L245.621 181.321C245.753 177.221 248.91 172.214 252.661 170.154Z" fill="#C1B7FF"/>
<path d="M325.633 137.708L323.526 136.484L315.704 139.688L317.813 140.911L325.633 137.708Z" fill="#A193FD"/>
<path d="M308.68 153.821L306.573 152.598L305.262 162.304L307.369 163.528L308.68 153.821Z" fill="#A193FD"/>
<path d="M314.296 134.79L312.189 133.566L308.709 143.722L310.816 144.946L314.296 134.79Z" fill="#A193FD"/>
<path d="M310.816 144.946L308.709 143.723L300.895 149.531L303.002 150.754L310.816 144.946Z" fill="#A193FD"/>
<path d="M314.296 134.789L310.816 144.945L303.002 150.753L308.68 153.82L307.369 163.527L314.353 155.267L321.354 155.466L319.992 147.301L325.634 137.708L317.813 140.912L314.296 134.789Z" fill="#8576E5"/>
<path d="M204.427 150.827L202.32 149.605L194.498 152.809L196.605 154.03L204.427 150.827Z" fill="#A193FD"/>
<path d="M187.474 166.942L185.366 165.719L184.055 175.426L186.163 176.647L187.474 166.942Z" fill="#A193FD"/>
<path d="M193.088 147.909L190.981 146.688L187.501 156.843L189.61 158.065L193.088 147.909Z" fill="#A193FD"/>
<path d="M189.61 158.065L187.501 156.844L179.687 162.652L181.796 163.876L189.61 158.065Z" fill="#A193FD"/>
<path d="M193.088 147.91L189.61 158.066L181.796 163.876L187.474 166.943L186.163 176.648L193.147 168.388L200.146 168.588L198.786 160.422L204.427 150.83L196.605 154.033L193.088 147.91Z" fill="#8576E5"/>
<path d="M115.274 257.879L115.42 305.534V305.734H115.45C115.479 306.557 115.803 307.124 116.303 307.408L120.626 309.821C120.097 309.537 119.744 308.885 119.744 307.947L119.479 307.806L119.361 260.151L115.274 257.879Z" fill="#D2D0DD"/>
<path d="M119.35 260.151L119.49 308.008C119.495 309.683 120.715 310.354 122.226 309.514L190.392 271.527C191.903 270.685 193.116 268.659 193.111 266.982L192.971 219.125L119.35 260.151Z" fill="#ECEAFA"/>
<path d="M115.266 249.717L115.285 257.873L119.345 260.157L119.326 252.004C119.326 250.314 120.539 248.29 122.039 247.453L190.199 209.45C190.968 209.042 191.661 208.985 192.143 209.264L188.083 206.998C187.582 206.721 186.889 206.757 186.139 207.184L117.978 245.167C116.459 246.003 115.247 248.028 115.266 249.717Z" fill="#958CCF"/>
<path d="M119.326 252.002L119.345 260.156L192.971 219.126L192.952 210.973C192.933 209.281 191.72 208.613 190.199 209.45L122.039 247.453C120.539 248.288 119.326 250.312 119.326 252.002Z" fill="#5D53A0"/>
<path d="M137.022 243.289C136.014 243.851 135.194 245.209 135.197 246.326C135.201 247.443 136.027 247.897 137.034 247.337C138.042 246.775 138.851 245.41 138.848 244.294C138.843 243.175 138.029 242.728 137.022 243.289ZM130.867 246.719C129.847 247.287 129.039 248.639 129.042 249.756C129.046 250.873 129.859 251.335 130.88 250.767C131.887 250.205 132.696 248.841 132.691 247.724C132.688 246.605 131.874 246.158 130.867 246.719ZM124.699 250.156C123.692 250.718 122.883 252.069 122.886 253.186C122.889 254.303 123.703 254.765 124.71 254.203C125.718 253.642 126.538 252.271 126.535 251.152C126.531 250.035 125.707 249.594 124.699 250.156Z" fill="white"/>
<path d="M163.302 263.09L163.29 263.134C163.21 263.721 162.377 269.777 160.919 275.33C160.52 276.85 160.073 278.334 159.584 279.656C159.777 279.321 163.466 272.949 165.543 267.152L163.447 267.053L165.902 264.67C165.861 264.611 165.02 263.501 163.302 263.09Z" fill="#493F8C"/>
<path d="M159.549 267.195L158.598 269.497L158.962 269.759L158.23 276.828C158.636 277.899 159.089 278.881 159.585 279.653C160.075 278.332 160.521 276.848 160.92 275.328L160.148 269.099L160.509 268.433L159.549 267.195Z" fill="#8576E5"/>
<path d="M162.183 262.883C161.99 263.172 161.788 263.448 161.581 263.708C160.933 265.06 159.619 267.09 159.549 267.198L160.508 268.434L160.663 268.633C162.314 266.576 163.018 263.878 163.242 263.31L163.29 263.135L163.302 263.091L162.183 262.883Z" fill="white"/>
<path d="M157.5 265.979C158.153 266.606 159.477 267.167 159.547 267.198C159.617 267.091 160.931 265.059 161.58 263.707C160.949 264.499 160.262 265.143 159.542 265.543C158.822 265.946 158.134 266.068 157.5 265.979Z" fill="#D2D0DD"/>
<path d="M156.898 265.828L155.797 267.261L155.851 267.429C156.078 267.745 156.787 269.657 158.446 269.868L158.598 269.5L159.549 267.197C159.479 267.167 158.155 266.607 157.502 265.979C157.294 265.95 157.092 265.9 156.898 265.828Z" fill="white"/>
<path d="M155.851 267.429L155.787 267.273C155.831 267.545 156.664 272.714 158.228 276.83L158.961 269.761L158.597 269.499L158.444 269.868C156.787 269.657 156.078 267.745 155.851 267.429Z" fill="#D2D0DD"/>
<path d="M155.787 267.273C154.082 269.593 153.241 271.645 153.197 271.752L155.666 271.391L153.578 273.82C155.676 277.29 159.388 279.538 159.584 279.655C159.088 278.883 158.633 277.9 158.228 276.83C156.664 272.714 155.832 267.546 155.787 267.273Z" fill="#493F8C"/>
<path d="M155.787 267.271L150.041 272.364C148.176 274.019 146.91 276.519 146.916 278.545L146.926 281.533C149.788 284.247 154.401 284.47 159.584 281.58C164.782 278.683 169.379 273.321 172.224 267.409L172.215 264.448C172.208 262.422 170.923 261.343 169.047 261.773L163.304 263.084C165.02 263.503 165.861 264.612 165.905 264.67L163.45 267.053L165.546 267.152C163.468 272.949 159.781 279.321 159.587 279.656C159.391 279.537 155.679 277.29 153.581 273.82L155.669 271.391L153.2 271.753C153.241 271.642 154.082 269.592 155.787 267.271Z" fill="#2C2363"/>
<path d="M156.718 252.072C153.673 253.768 152.968 255.464 153.027 256.731C153.092 257.988 153.926 258.824 153.947 258.811L153.932 258.897C153.81 259.729 153.618 260.868 153.847 261.745C153.937 262.327 154.209 262.716 154.458 263.203C154.497 263.278 154.535 263.352 154.57 263.432C154.164 261.325 154.528 259.908 154.598 259.67C155.135 258.659 155.946 257.774 156.788 257.304L162.236 254.267C163.086 253.793 163.9 253.774 164.432 254.163C164.456 254.21 164.912 255.118 164.489 257.902C164.496 257.882 164.502 257.863 164.508 257.842C164.775 256.961 165.104 256.182 165.193 255.419C165.425 254.285 165.211 253.371 165.092 252.675L165.076 252.605C165.066 249.22 162.307 249.7 159.496 250.79C158.406 251.215 157.487 251.643 156.718 252.072Z" fill="#493F8C"/>
<path d="M156.79 257.303C155.946 257.773 155.137 258.658 154.608 259.638C154.53 259.907 154.168 261.323 154.573 263.43C154.536 263.351 154.498 263.275 154.462 263.202C154.976 264.432 155.836 265.434 156.899 265.826C157.093 265.898 157.295 265.948 157.503 265.978C158.137 266.067 158.825 265.944 159.545 265.542C160.265 265.141 160.952 264.498 161.583 263.706C161.791 263.446 161.991 263.17 162.185 262.881C163.186 261.39 164.001 259.559 164.513 257.842C164.507 257.863 164.501 257.882 164.494 257.903C164.915 255.118 164.461 254.211 164.437 254.163C163.905 253.774 163.091 253.795 162.241 254.268L156.79 257.303Z" fill="#BDB4F9"/>
<path d="M147.25 281.824C147.139 281.73 147.031 281.634 146.926 281.532L146.916 278.545C146.91 276.518 148.178 274.018 150.04 272.363L155.797 267.258L156.898 265.825C155.835 265.431 154.975 264.43 154.46 263.201C154.209 262.715 153.937 262.326 153.848 261.744C153.619 260.867 153.812 259.727 153.934 258.896C153.928 258.823 153.093 257.985 153.028 256.73C152.968 255.463 153.673 253.768 156.72 252.071C157.489 251.642 158.408 251.212 159.501 250.79C162.312 249.7 165.071 249.221 165.081 252.605C165.216 253.372 165.43 254.284 165.198 255.418C165.109 256.18 164.78 256.959 164.513 257.841C164.002 259.558 163.186 261.389 162.185 262.88L163.305 263.082L169.049 261.771C170.924 261.343 172.21 262.42 172.216 264.446L172.226 267.4C174.121 263.459 175.236 259.278 175.224 255.434C175.196 245.824 168.148 241.948 159.483 246.776C150.819 251.604 143.817 263.31 143.846 272.92C143.854 276.994 145.127 280.036 147.25 281.824Z" fill="#7764F0"/>
<path d="M160.663 268.632L160.508 268.434L160.148 269.1L160.92 275.329C162.377 269.776 163.212 263.72 163.291 263.133L163.243 263.307C163.018 263.877 162.314 266.574 160.663 268.632Z" fill="#D2D0DD"/>
<path d="M132.184 261.426L130.969 264.853L128.241 266.814L130.223 267.848L129.765 271.125L132.203 268.337L134.647 268.404L134.172 265.648L136.141 262.411L133.411 263.492L132.184 261.426Z" fill="#8576E5"/>
<path d="M132.184 283.648L130.969 287.075L128.241 289.035L130.223 290.071L129.765 293.346L132.203 290.558L134.647 290.626L134.172 287.87L136.141 284.634L133.411 285.714L132.184 283.648Z" fill="#8576E5"/>
<path d="M184.931 257.5L183.715 260.927L180.988 262.888L182.97 263.923L182.512 267.199L184.952 264.411L187.394 264.478L186.919 261.724L188.888 258.485L186.158 259.567L184.931 257.5Z" fill="#8576E5"/>
<path d="M278.191 154.797L276.418 159.968L272.438 162.927L275.331 164.488L274.663 169.432L278.22 165.224L281.785 165.326L281.092 161.167L283.965 156.284L279.981 157.915L278.191 154.797Z" fill="#7764F0"/>
<path d="M217.411 211.109L215.639 216.28L211.66 219.239L214.552 220.8L213.883 225.744L217.441 221.536L221.006 221.638L220.311 217.481L223.185 212.596L219.202 214.227L217.411 211.109Z" fill="#7764F0"/>
<path d="M448.71 228.782L448.689 231.93C448.689 232.398 448.391 232.866 447.772 233.206L412.996 253.395C411.782 254.098 409.778 254.098 408.564 253.395L349.39 219.294C348.772 218.931 348.453 218.465 348.453 217.997L348.473 214.828C348.473 215.296 348.772 215.764 349.411 216.126L408.564 250.227C409.8 250.93 411.803 250.93 413.017 250.227L447.793 230.061C448.411 229.696 448.71 229.228 448.71 228.782Z" fill="#7764F0"/>
<path d="M440.831 235.208L440.836 236.755L444.7 234.527L444.696 232.98L440.831 235.208Z" fill="#2C2363"/>
<path d="M433.799 239.263L433.802 240.81L437.667 238.582L437.664 237.035L433.799 239.263Z" fill="#2C2363"/>
<path d="M447.782 227.483C449.007 228.189 449.026 229.341 447.796 230.055L413.018 250.233C411.801 250.939 409.794 250.939 408.57 250.233L349.403 216.129C348.165 215.415 348.171 214.264 349.389 213.558L384.167 193.379C385.397 192.665 387.375 192.665 388.613 193.379L447.782 227.483Z" fill="#C1B7FF"/>
<path d="M452.284 183.322L452.155 226.636C452.155 227.104 451.985 227.423 451.73 227.594L450.299 228.426C450.576 228.256 450.747 227.937 450.747 227.447L450.854 184.134C450.854 183.198 450.193 182.027 449.362 181.538L388.739 146.606C388.333 146.351 387.95 146.33 387.674 146.5L389.104 145.669C389.381 145.519 389.743 145.542 390.169 145.775L450.792 180.707C451.623 181.194 452.284 182.365 452.284 183.322Z" fill="#C1B7FF"/>
<path d="M449.357 181.539C450.186 182.016 450.865 183.19 450.862 184.142L450.739 227.453C450.736 228.405 450.054 228.794 449.225 228.315L388.615 193.379C387.771 192.894 387.107 191.728 387.11 190.776L387.232 147.465C387.235 146.513 387.904 146.116 388.747 146.603L449.357 181.539Z" fill="#7764F0"/>
<path d="M388.858 148.547L449.212 183.352L449.098 226.347L388.745 191.569L388.858 148.547Z" fill="#2C2363"/>
<path d="M407.041 230.603C407.515 230.876 407.502 231.314 407.032 231.587L396.012 237.981C395.556 238.246 394.8 238.254 394.326 237.981L371.711 224.946C371.237 224.673 371.235 224.227 371.691 223.962L382.711 217.568C383.181 217.295 383.952 217.295 384.426 217.568L407.041 230.603Z" fill="#9B8CF7"/>
<path d="M401.706 203.917L398.933 205.525L395.974 203.82L398.746 202.211L401.706 203.917Z" fill="#7764F0"/>
<path d="M399.683 206.799L396.91 208.408L393.951 206.703L396.724 205.094L399.683 206.799Z" fill="#7764F0"/>
<path d="M403.653 209.088L400.88 210.697L397.921 208.992L400.692 207.383L403.653 209.088Z" fill="#7764F0"/>
<path d="M375.795 205.181L373.017 206.793L370.051 205.083L372.829 203.473L375.795 205.181Z" fill="#7764F0"/>
<path d="M384.27 206.019L381.498 207.628L373.575 203.062L376.348 201.453L384.27 206.019Z" fill="#7764F0"/>
<path d="M379.758 207.467L376.98 209.079L374.021 207.372L376.799 205.762L379.758 207.467Z" fill="#7764F0"/>
<path d="M388.24 208.305L385.466 209.914L382.523 208.217L385.295 206.609L388.24 208.305Z" fill="#7764F0"/>
<path d="M383.728 209.756L380.95 211.368L377.989 209.663L380.767 208.051L383.728 209.756Z" fill="#7764F0"/>
<path d="M389.803 197.055L387.032 198.664L384.082 196.963L386.855 195.355L389.803 197.055Z" fill="#7764F0"/>
<path d="M393.768 199.341L390.995 200.949L388.05 199.252L390.824 197.645L393.768 199.341Z" fill="#7764F0"/>
<path d="M387.782 199.94L385.009 201.548L380.58 198.996L383.353 197.387L387.782 199.94Z" fill="#7764F0"/>
<path d="M397.737 201.627L394.963 203.236L392.02 201.538L394.793 199.93L397.737 201.627Z" fill="#7764F0"/>
<path d="M391.75 202.228L388.979 203.837L386.013 202.128L388.785 200.52L391.75 202.228Z" fill="#7764F0"/>
<path d="M386.763 203.404L383.99 205.011L377.077 201.027L379.85 199.418L386.763 203.404Z" fill="#7764F0"/>
<path d="M395.714 204.51L392.942 206.119L389.981 204.413L392.754 202.805L395.714 204.51Z" fill="#7764F0"/>
<path d="M390.731 205.692L387.96 207.299L384.999 205.593L387.772 203.984L390.731 205.692Z" fill="#7764F0"/>
<path d="M394.701 207.981L391.928 209.588L388.969 207.882L391.742 206.273L394.701 207.981Z" fill="#7764F0"/>
<path d="M399.545 214.822L396.772 216.431L393.807 214.722L396.58 213.113L399.545 214.822Z" fill="#7764F0"/>
<path d="M409.644 208.491L406.871 210.1L403.912 208.394L406.685 206.785L409.644 208.491Z" fill="#7764F0"/>
<path d="M414.547 219.421L411.775 221.029L408.81 219.32L411.582 217.711L414.547 219.421Z" fill="#7764F0"/>
<path d="M410.579 217.132L407.806 218.739L404.84 217.031L407.613 215.422L410.579 217.132Z" fill="#7764F0"/>
<path d="M437.423 224.502L434.65 226.111L431.691 224.406L434.464 222.797L437.423 224.502Z" fill="#7764F0"/>
<path d="M441.377 226.782L438.604 228.391L435.661 226.695L438.433 225.086L441.377 226.782Z" fill="#7764F0"/>
<path d="M437.875 228.813L435.102 230.422L432.158 228.726L434.93 227.117L437.875 228.813Z" fill="#7764F0"/>
<path d="M433.921 226.534L431.149 228.143L428.189 226.437L430.962 224.828L433.921 226.534Z" fill="#7764F0"/>
<path d="M429.953 224.249L427.18 225.857L424.22 224.152L426.992 222.543L429.953 224.249Z" fill="#7764F0"/>
<path d="M433.455 222.213L430.682 223.822L427.721 222.117L430.495 220.508L433.455 222.213Z" fill="#7764F0"/>
<path d="M429.486 219.928L426.712 221.537L423.753 219.831L426.525 218.223L429.486 219.928Z" fill="#7764F0"/>
<path d="M425.516 217.639L422.744 219.248L419.783 217.542L422.557 215.934L425.516 217.639Z" fill="#7764F0"/>
<path d="M415.475 228.057L412.697 229.669L409.738 227.964L412.516 226.352L415.475 228.057Z" fill="#7764F0"/>
<path d="M407.076 219.162L404.303 220.771L401.338 219.062L404.111 217.453L407.076 219.162Z" fill="#7764F0"/>
<path d="M403.574 221.193L400.796 222.805L397.83 221.096L400.608 219.484L403.574 221.193Z" fill="#7764F0"/>
<path d="M407.544 223.482L404.766 225.094L401.8 223.385L404.578 221.773L407.544 223.482Z" fill="#7764F0"/>
<path d="M411.507 225.768L408.729 227.38L405.768 225.674L408.546 224.062L411.507 225.768Z" fill="#7764F0"/>
<path d="M415.01 223.737L412.236 225.346L409.277 223.64L412.049 222.031L415.01 223.737Z" fill="#7764F0"/>
<path d="M422.48 223.991L419.709 225.6L412.78 221.605L415.551 219.996L422.48 223.991Z" fill="#7764F0"/>
<path d="M425.983 221.961L423.21 223.569L413.792 218.14L416.564 216.531L425.983 221.961Z" fill="#7764F0"/>
<path d="M421.552 215.353L418.779 216.962L415.815 215.253L418.587 213.645L421.552 215.353Z" fill="#7764F0"/>
<path d="M413.614 210.78L410.841 212.389L407.882 210.683L410.653 209.074L413.614 210.78Z" fill="#7764F0"/>
<path d="M407.621 211.374L404.85 212.982L401.889 211.277L404.662 209.668L407.621 211.374Z" fill="#7764F0"/>
<path d="M417.582 213.068L414.811 214.677L411.845 212.968L414.619 211.359L417.582 213.068Z" fill="#7764F0"/>
<path d="M411.591 213.663L408.818 215.271L405.859 213.566L408.632 211.957L411.591 213.663Z" fill="#7764F0"/>
<path d="M415.561 215.951L412.788 217.56L409.822 215.851L412.596 214.242L415.561 215.951Z" fill="#7764F0"/>
<path d="M398.671 210.27L395.898 211.877L392.939 210.171L395.71 208.562L398.671 210.27Z" fill="#7764F0"/>
<path d="M402.639 212.555L399.868 214.162L396.907 212.456L399.68 210.848L402.639 212.555Z" fill="#7764F0"/>
<path d="M395.776 212.651L393.004 214.26L390.043 212.554L392.816 210.945L395.776 212.651Z" fill="#7764F0"/>
<path d="M406.609 214.844L403.836 216.451L400.877 214.746L403.65 213.137L406.609 214.844Z" fill="#7764F0"/>
<path d="M403.307 216.991L400.535 218.6L397.576 216.894L400.348 215.285L403.307 216.991Z" fill="#7764F0"/>
<path d="M399.774 219.002L396.996 220.614L381.959 211.948L384.737 210.336L399.774 219.002Z" fill="#7764F0"/>
<path d="M392.012 210.479L389.241 212.088L386.28 210.382L389.053 208.773L392.012 210.479Z" fill="#7764F0"/>
<path d="M405.675 206.202L402.903 207.811L399.942 206.105L402.716 204.496L405.675 206.202Z" fill="#7764F0"/>
<path d="M427.367 234.911L424.589 236.523L421.646 234.827L424.424 233.215L427.367 234.911Z" fill="#7764F0"/>
<path d="M422.948 228.311L420.174 229.92L417.215 228.214L419.987 226.605L422.948 228.311Z" fill="#7764F0"/>
<path d="M426.45 226.281L423.677 227.89L420.718 226.183L423.489 224.574L426.45 226.281Z" fill="#7764F0"/>
<path d="M430.418 228.567L427.647 230.174L424.686 228.468L427.459 226.859L430.418 228.567Z" fill="#7764F0"/>
<path d="M426.917 230.6L424.144 232.209L421.185 230.503L423.957 228.895L426.917 230.6Z" fill="#7764F0"/>
<path d="M423.415 232.63L420.637 234.242L413.708 230.249L416.486 228.637L423.415 232.63Z" fill="#7764F0"/>
<path d="M445.346 229.07L442.574 230.679L439.625 228.98L442.398 227.371L445.346 229.07Z" fill="#7764F0"/>
<path d="M434.839 235.166L428.559 238.809L425.609 237.109L431.89 233.465L434.839 235.166Z" fill="#7764F0"/>
<path d="M438.342 233.134L435.569 234.743L432.619 233.042L435.393 231.434L438.342 233.134Z" fill="#7764F0"/>
<path d="M430.87 232.877L428.098 234.485L425.153 232.789L427.926 231.18L430.87 232.877Z" fill="#7764F0"/>
<path d="M441.843 231.102L439.072 232.71L436.122 231.011L438.895 229.402L441.843 231.102Z" fill="#7764F0"/>
<path d="M434.372 230.846L431.601 232.455L428.656 230.757L431.429 229.148L434.372 230.846Z" fill="#7764F0"/>
<path d="M417.087 202.089L417.085 202.091L417.083 202.083L417.08 202.078L417.087 202.089Z" fill="#D2D0DD"/>
<path d="M417.085 202.088L417.083 202.082L417.085 202.088Z" fill="#D2D0DD"/>
<path d="M417.088 202.09L417.087 202.089L417.092 202.086L417.088 202.09Z" fill="#372D74"/>
<path d="M417.621 192.203L418.263 199.549C417.91 200.514 417.517 201.396 417.087 202.091C416.658 200.895 416.271 199.565 415.927 198.204L416.607 191.618L416.281 190.997L417.118 189.574L417.95 191.96L417.621 192.203Z" fill="#372D74"/>
<path d="M413.578 187.484C413.7 187.608 413.827 187.721 413.958 187.818C414.152 189.226 414.833 193.878 415.927 198.199C416.271 199.56 416.656 200.89 417.08 202.075C417.085 202.087 413.754 196.133 411.976 190.997L413.775 190.907L411.664 188.79C411.698 188.746 412.318 187.91 413.578 187.484Z" fill="#A193FD"/>
<path d="M419.464 192.282C419.582 192.552 419.76 192.874 419.961 193.193C419.613 194.922 419.037 197.429 418.263 199.547L417.621 192.201L417.95 191.957L418.067 192.297C418.592 192.225 419.005 192.101 419.329 191.96C419.372 192.068 419.416 192.174 419.464 192.282Z" fill="#BEBCCC"/>
<path d="M421.56 194.925L420.449 194.758L422.242 196.917C420.489 199.907 417.268 201.976 417.093 202.087C417.517 201.396 417.91 200.513 418.263 199.55C419.037 197.43 419.613 194.923 419.961 193.195C420.236 193.63 420.556 194.057 420.824 194.334C421.047 194.565 421.281 194.766 421.525 194.909C421.546 194.917 421.554 194.922 421.56 194.925Z" fill="#A193FD"/>
<path d="M418.779 189.969C418.794 190.064 418.809 190.161 418.829 190.259C418.935 190.825 419.102 191.389 419.329 191.96C419.006 192.101 418.593 192.226 418.067 192.296L417.95 191.957L417.122 189.57C417.705 189.905 418.263 190.021 418.779 189.969Z" fill="#ECEAFA"/>
<path d="M421.654 194.935C421.517 194.536 421.379 194.162 421.263 193.791C421.076 193.186 420.996 192.618 421.002 192.09C422.035 193.735 422.538 195.006 422.563 195.073L421.654 194.935Z" fill="#7764F0"/>
<path d="M418.827 179.583C419.04 179.705 419.229 179.929 419.399 180.222C419.745 180.821 419.86 181.384 419.89 181.941C419.92 182.479 419.846 182.945 419.771 183.412C419.76 183.478 419.725 183.523 419.712 183.589C419.698 183.656 419.698 183.735 419.688 183.84C419.842 183.799 419.954 183.754 420.078 183.742C420.12 183.737 420.165 183.748 420.208 183.772C420.298 183.824 420.378 183.935 420.41 184.072C420.47 184.33 420.491 184.586 420.5 184.828C420.513 185.081 420.488 185.314 420.484 185.558C420.473 185.961 420.318 186.226 420.141 186.458C419.747 186.977 419.326 187.461 418.922 187.967C418.863 188.041 418.817 188.133 418.792 188.243C418.676 188.757 418.685 189.337 418.781 189.967C418.264 190.02 417.706 189.904 417.125 189.569C416.494 189.206 415.895 188.62 415.347 187.9C415.374 187.767 415.401 187.63 415.424 187.494C415.469 187.246 415.483 186.975 415.483 186.701C415.483 186.601 415.41 186.459 415.329 186.383C414.652 185.752 414.287 184.957 414.031 184.105C413.78 183.275 413.66 182.487 413.638 181.731C413.635 181.612 413.641 181.496 413.624 181.371C413.538 180.706 413.718 180.291 414.104 180.099C414.368 179.967 414.657 179.88 414.959 179.821C415.601 179.693 416.252 179.585 416.91 179.489C417.436 179.415 417.983 179.386 418.569 179.486C418.658 179.504 418.744 179.535 418.827 179.583Z" fill="#BDB4F9"/>
<path d="M417.521 175.122C418.228 175.529 418.925 176.053 419.601 176.773C420.238 177.452 420.777 178.216 421.217 179.076C421.522 179.672 421.792 180.278 421.95 180.892C422.11 181.52 422.275 182.154 422.398 182.774C422.482 183.199 422.501 183.608 422.546 184.026C422.671 185.233 422.536 186.269 422.269 187.205C422.074 187.883 421.8 188.487 421.571 189.133C421.436 189.52 421.296 189.907 421.209 190.334C421.118 190.775 421.056 191.243 421.022 191.727C421.02 191.754 421.017 191.781 421.015 191.808C421.009 191.902 421.004 191.995 421.004 192.092C420.998 192.62 421.077 193.188 421.265 193.793C421.381 194.166 421.519 194.539 421.656 194.937C421.633 194.948 421.598 194.938 421.563 194.922C421.284 194.764 421.05 194.561 420.828 194.331C420.559 194.053 420.24 193.626 419.965 193.192C419.763 192.873 419.585 192.551 419.467 192.281C419.42 192.175 419.377 192.067 419.334 191.96C419.105 191.389 418.938 190.826 418.833 190.259C418.814 190.161 418.798 190.064 418.784 189.969C418.689 189.338 418.679 188.757 418.795 188.244C418.82 188.133 418.867 188.043 418.925 187.968C419.329 187.461 419.75 186.977 420.144 186.46C420.322 186.23 420.478 185.963 420.488 185.56C420.492 185.316 420.516 185.082 420.503 184.83C420.492 184.587 420.472 184.332 420.413 184.073C420.381 183.937 420.302 183.824 420.211 183.773C420.168 183.75 420.124 183.739 420.081 183.743C419.957 183.756 419.845 183.8 419.691 183.842C419.701 183.739 419.701 183.659 419.715 183.591C419.728 183.526 419.763 183.48 419.774 183.413C419.849 182.947 419.923 182.48 419.893 181.943C419.861 181.386 419.749 180.822 419.402 180.224C419.232 179.931 419.043 179.709 418.83 179.585C418.747 179.537 418.662 179.506 418.573 179.49C417.985 179.39 417.439 179.418 416.913 179.493C416.255 179.588 415.604 179.696 414.962 179.824C414.66 179.883 414.371 179.972 414.107 180.102C413.721 180.294 413.541 180.71 413.627 181.375C413.643 181.498 413.637 181.616 413.641 181.735C413.665 182.49 413.783 183.278 414.034 184.108C414.291 184.96 414.655 185.755 415.332 186.387C415.415 186.463 415.486 186.604 415.486 186.704C415.486 186.978 415.472 187.251 415.428 187.497C415.402 187.634 415.377 187.769 415.35 187.903C415.326 188.019 415.3 188.135 415.273 188.248L415.234 188.252C414.911 188.291 414.573 188.197 414.245 188.008C414.194 187.978 414.142 187.946 414.091 187.911C414.048 187.883 414.007 187.853 413.964 187.821C413.834 187.722 413.706 187.61 413.584 187.488C413.516 187.419 413.449 187.346 413.384 187.27C412.629 186.395 412.119 185.103 412.335 184.108C412.376 183.923 412.403 183.754 412.411 183.618C412.483 182.474 412.351 181.224 412.217 179.977C412.19 179.723 412.135 179.458 412.109 179.207C412.062 178.742 411.985 178.257 411.996 177.825C412.022 176.761 412.362 175.932 412.832 175.261C413.077 174.914 413.374 174.638 413.713 174.424C413.988 174.251 414.279 174.098 414.655 174.14C414.93 174.168 415.213 174.217 415.502 174.301C415.936 174.428 416.375 174.544 416.82 174.755C417.052 174.863 417.287 174.987 417.521 175.122Z" fill="#372D74"/>
<path d="M417.174 172.925C424.607 177.209 430.612 187.593 430.588 196.12C430.579 199.544 429.598 202.146 427.947 203.758L427.955 201.106C427.96 199.31 426.87 197.087 425.273 195.626L421.02 191.725C421.055 191.241 421.117 190.774 421.208 190.332C421.296 189.905 421.436 189.519 421.57 189.131C421.799 188.485 422.072 187.88 422.267 187.203C422.534 186.268 422.671 185.232 422.544 184.023C422.499 183.606 422.48 183.197 422.396 182.772C422.274 182.153 422.11 181.52 421.948 180.89C421.791 180.276 421.521 179.67 421.215 179.073C420.774 178.213 420.236 177.452 419.599 176.771C418.925 176.051 418.228 175.527 417.519 175.119C417.284 174.985 417.049 174.862 416.812 174.75C416.367 174.539 415.93 174.423 415.494 174.296C415.207 174.212 414.924 174.164 414.647 174.134C414.269 174.093 413.978 174.245 413.705 174.418C413.366 174.631 413.068 174.908 412.824 175.256C412.354 175.927 412.014 176.755 411.989 177.82C411.977 178.251 412.054 178.737 412.101 179.202C412.127 179.452 412.182 179.717 412.209 179.971C412.343 181.218 412.475 182.469 412.403 183.612C412.395 183.749 412.368 183.917 412.327 184.103C412.111 185.098 412.621 186.389 413.376 187.265L408.966 186.226C407.361 185.84 406.26 186.8 406.255 188.596L406.247 191.225C404.619 187.727 403.661 184.014 403.672 180.601C403.698 172.079 409.743 168.641 417.174 172.925Z" fill="white"/>
<path d="M415.345 187.902C415.893 188.623 416.492 189.208 417.122 189.57L416.283 190.996L416.162 191.199C414.984 189.678 414.369 188.54 414.085 187.91C414.136 187.945 414.186 187.977 414.239 188.007C414.566 188.196 414.905 188.289 415.227 188.251L415.267 188.247C415.296 188.134 415.321 188.02 415.345 187.902Z" fill="#ECEAFA"/>
<path d="M416.162 191.198L416.283 190.995L416.608 191.615L415.928 198.201C414.835 193.881 414.153 189.229 413.959 187.82C414.001 187.852 414.043 187.882 414.086 187.911C414.369 188.539 414.984 189.677 416.162 191.198Z" fill="#BEBCCC"/>
<path d="M413.378 187.267C413.443 187.343 413.509 187.414 413.578 187.484C412.316 187.908 411.696 188.745 411.664 188.79L413.775 190.906L411.976 190.997C413.754 196.134 416.92 201.79 417.085 202.089C417.268 201.973 420.489 199.904 422.242 196.915L420.449 194.754L421.56 194.92C421.597 194.936 421.63 194.946 421.66 194.957L422.561 195.071C422.534 195.004 422.032 193.734 421.001 192.088C421.002 191.991 421.006 191.898 421.012 191.804C421.014 191.777 421.015 191.75 421.018 191.723L425.271 195.625C426.868 197.086 427.958 199.309 427.954 201.105L427.946 203.756H427.944C425.486 206.16 421.532 206.36 417.084 203.797C412.631 201.23 408.683 196.467 406.247 191.224L406.248 191.228L406.256 188.599C406.261 186.803 407.361 185.843 408.968 186.229L413.378 187.267Z" fill="#8576E5"/>
<path d="M385.207 282.439L391.436 281.559L391.451 277.781L391.443 275.074L391.428 278.852L385.198 279.732C384.608 281.36 383.493 282.937 381.846 284.365L381.854 287.072C383.494 285.644 384.618 284.067 385.207 282.439Z" fill="#7263D3"/>
<path d="M381.94 272.259L385.282 269.097L385.274 266.391L381.94 269.553V272.259Z" fill="#7263D3"/>
<path d="M380.667 279.608L380.659 276.901C380.651 274.584 379.337 272.268 376.718 270.367L372.227 272.949L372.235 275.663L376.726 273.072C379.345 274.975 380.659 277.291 380.667 279.608ZM379.362 280.863L374.364 280.09C374.39 279.941 374.398 279.782 374.398 279.633L374.39 276.926C374.39 277.142 374.374 277.358 374.341 277.574L374.349 280.08L373.25 279.914C372.669 280.628 371.853 281.308 370.822 281.899C369.791 282.497 368.626 282.962 367.37 283.293L367.378 286C368.634 285.668 369.799 285.203 370.83 284.605C371.861 284.015 372.677 283.336 373.258 282.621L379.37 283.568L379.362 280.863Z" fill="#7263D3"/>
<path d="M339.461 269.097L342.779 272.259L342.77 269.553L339.451 266.391L339.461 269.097Z" fill="#7263D3"/>
<path d="M367.461 276.701C368.858 277.515 369.565 278.578 369.565 279.649L369.557 276.942C369.557 275.871 368.858 274.808 367.453 273.994C364.634 272.359 360.035 272.359 357.199 273.994C355.769 274.816 355.054 275.905 355.054 276.984L355.062 279.69C355.062 278.611 355.777 277.523 357.207 276.701C360.043 275.065 364.634 275.065 367.461 276.701ZM373.773 271.354L373.765 268.648C369.706 266.771 364.575 266.041 359.669 266.464L359.677 269.171C364.584 268.755 369.714 269.477 373.773 271.354Z" fill="#7263D3"/>
<path d="M355.628 269.793L357.249 273.329L357.241 270.622L355.62 267.086C353.349 267.602 351.213 268.398 349.374 269.453C347.528 270.516 346.156 271.754 345.258 273.064L345.266 275.571L344.16 275.397C344.027 275.928 343.96 276.468 343.96 277.007L343.968 279.714C343.968 279.174 344.035 278.643 344.168 278.103L350.239 279.05V279.698C350.239 281.092 350.954 282.487 352.4 283.675L352.392 280.969C351.17 279.955 350.463 278.801 350.28 277.615V276.352L345.398 275.589C346.296 274.343 347.618 273.172 349.382 272.168C351.219 271.105 353.357 270.316 355.628 269.793ZM333.165 278.851L333.173 281.557L339.401 282.438C339.974 284.066 341.072 285.643 342.693 287.071L342.685 284.364C341.064 282.936 339.966 281.359 339.393 279.731L333.165 278.851ZM343.95 290.209L339.335 287.536L339.343 290.242L343.95 292.916L349.439 290.99C351.917 291.929 354.646 292.576 357.447 292.908L358.944 296.511H365.489L367.027 292.908C369.846 292.576 372.573 291.937 375.06 290.99L380.524 292.916L385.165 290.242L385.157 287.536L380.516 290.209L375.052 288.283C372.565 289.23 369.838 289.868 367.019 290.201L365.481 293.804H358.944L357.439 290.201C354.636 289.86 351.909 289.221 349.439 288.283L343.95 290.209Z" fill="#7263D3"/>
<path d="M363.337 286.632L364.958 290.168L364.95 287.462L363.329 283.925C360.551 284.066 357.716 283.651 355.345 282.68L350.854 285.279V287.985L355.353 285.386C357.722 286.359 360.559 286.773 363.337 286.632Z" fill="#7263D3"/>
<path d="M339.337 287.535L342.684 284.368C341.068 282.932 339.969 281.357 339.391 279.732L333.168 278.853L333.188 275.071L339.423 274.192C340.014 272.564 341.13 270.987 342.773 269.553L339.456 266.387L344.097 263.712L349.563 265.637C352.051 264.691 354.781 264.052 357.597 263.716L359.13 260.117H365.671L367.17 263.719C369.983 264.055 372.705 264.695 375.183 265.635L380.666 263.712L385.276 266.387L381.934 269.553C383.55 270.989 384.648 272.564 385.22 274.192L391.445 275.071L391.424 278.853L385.195 279.729C384.604 281.357 383.488 282.934 381.845 284.368L385.155 287.537L380.515 290.212L375.052 288.284C372.565 289.23 369.837 289.869 367.019 290.205L365.481 293.809H358.94L357.441 290.205C354.633 289.866 351.911 289.227 349.435 288.287L343.946 290.212L339.337 287.535ZM367.451 273.997C364.629 272.359 360.036 272.359 357.195 273.997C354.353 275.634 354.339 278.29 357.161 279.927C359.984 281.565 364.578 281.565 367.418 279.927C370.259 278.29 370.274 275.634 367.451 273.997ZM352.394 280.968C350.728 279.597 350.029 277.957 350.277 276.35L344.165 275.401C343.429 278.235 344.672 281.205 347.898 283.561L352.394 280.968ZM369.273 271.239L373.765 268.65C369.706 266.775 364.577 266.045 359.668 266.465L361.288 270.003C364.068 269.865 366.902 270.275 369.273 271.239ZM364.947 287.459L363.326 283.921C360.551 284.062 357.711 283.648 355.347 282.682L350.849 285.274C354.914 287.148 360.049 287.879 364.947 287.459ZM380.451 278.523C381.198 275.69 379.949 272.718 376.718 270.363L372.225 272.953C373.884 274.327 374.59 275.97 374.337 277.575L380.451 278.523ZM351.369 274.011C351.955 273.289 352.764 272.615 353.794 272.021C354.824 271.428 355.996 270.96 357.242 270.625L355.621 267.087C353.349 267.604 351.216 268.394 349.374 269.456C347.532 270.517 346.159 271.749 345.258 273.061L351.369 274.011ZM375.242 284.467C377.083 283.405 378.457 282.174 379.358 280.862L373.246 279.913C372.664 280.632 371.852 281.309 370.82 281.903C369.791 282.496 368.624 282.961 367.372 283.299L368.993 286.837C371.267 286.318 373.4 285.528 375.242 284.467Z" fill="#A193FD"/>
<path d="M298.055 288.722L298.063 291.429L299.086 293.943L303.469 293.959C304.292 294.989 305.457 295.935 306.929 296.74L306.921 294.034C305.449 293.229 304.284 292.282 303.461 291.252L299.078 291.237L298.055 288.722ZM326.628 290.001L326.62 287.286C326.612 285.617 325.165 283.999 322.52 283.051C319.045 281.814 314.644 282.171 311.868 283.765C311.394 284.04 310.97 284.346 310.603 284.687C309.721 285.517 309.297 286.431 309.297 287.335L309.304 290.042C309.304 289.136 309.721 288.224 310.611 287.402C310.976 287.053 311.401 286.747 311.874 286.472C314.652 284.877 319.051 284.52 322.527 285.758C325.173 286.705 326.62 288.324 326.628 290.001Z" fill="#7764F0"/>
<path d="M309.363 297.808L305.546 296.447L305.554 299.153L309.363 300.515L312.481 298.73C314.395 299.128 316.389 299.302 318.344 299.277L320.322 301.527L324.688 300.937L324.721 298.395C326.368 297.955 327.898 297.341 329.228 296.577C329.336 296.51 329.444 296.451 329.544 296.385L333.711 297.165L336.073 294.957L336.065 292.25L333.703 294.459L329.536 293.678C329.436 293.745 329.328 293.802 329.22 293.868C327.89 294.631 326.36 295.238 324.721 295.687L324.68 298.227L320.314 298.817L318.336 296.567C316.381 296.593 314.385 296.418 312.473 296.018L309.363 297.808Z" fill="#7764F0"/>
<path d="M333.964 289.768L337.872 288.613L337.864 285.906L333.954 287.069V287.326C333.946 288.372 333.638 289.435 332.998 290.447L333.006 293.154C333.654 292.124 333.962 291.045 333.962 289.982V289.768H333.964Z" fill="#7764F0"/>
<path d="M329.007 283.301L330.371 280.894L330.363 278.188L328.999 280.594L329.007 283.301Z" fill="#7764F0"/>
<path d="M301.97 290.278L301.962 287.571C301.954 287.504 301.954 287.43 301.954 287.363L301.962 290.07C301.962 290.137 301.962 290.211 301.97 290.278Z" fill="#7764F0"/>
<path d="M299.858 285.086L302.927 286.888L302.919 284.181L299.85 282.371L299.858 285.086Z" fill="#7764F0"/>
<path d="M303.459 291.256L299.078 291.237L298.055 288.721L301.961 287.568C301.915 286.435 302.223 285.281 302.922 284.177L299.847 282.375L302.209 280.171L306.376 280.948C306.469 280.891 306.566 280.834 306.662 280.779C307.995 280.011 309.536 279.395 311.197 278.943L311.232 276.409L315.591 275.812L317.573 278.069C319.537 278.035 321.532 278.21 323.439 278.611L326.555 276.826L330.363 278.188L328.995 280.593C330.466 281.397 331.631 282.349 332.456 283.381L336.837 283.393L337.861 285.91L333.948 287.066C333.994 288.199 333.692 289.349 332.998 290.45L336.062 292.253L333.705 294.46L329.54 293.676C329.433 293.741 329.327 293.805 329.217 293.868C327.892 294.633 326.358 295.244 324.718 295.686L324.677 298.223L320.318 298.82L318.336 296.564C316.378 296.594 314.388 296.416 312.475 296.019L309.359 297.804L305.544 296.446L306.918 294.038C305.449 293.227 304.284 292.281 303.459 291.256ZM313.397 291.582C316.874 292.822 321.276 292.462 324.052 290.863C324.524 290.592 324.948 290.284 325.314 289.943C327.841 287.583 326.593 284.507 322.522 283.054C319.045 281.813 314.647 282.17 311.868 283.772C311.396 284.045 310.972 284.353 310.604 284.694C308.082 287.042 309.324 290.127 313.397 291.582Z" fill="#C1B7FF"/>
<path d="M214.276 288.88V289.077L157.144 322.221V322.024C157.144 321.562 156.82 321.018 156.415 320.775L151.714 318.07C151.528 317.862 151.054 316.395 151.066 314.151C151.066 312.048 151.482 311.111 151.668 310.996L208.799 277.852C208.613 277.967 208.197 278.903 208.186 281.007C208.186 283.251 208.648 284.718 208.845 284.926L213.546 287.631C213.951 287.874 214.276 288.417 214.276 288.88Z" fill="#9283F2"/>
<path d="M252.868 311.319L195.749 344.463L194.22 343.595L157.144 322.221L214.276 289.078L251.351 310.44L252.868 311.319Z" fill="#BCB5E7"/>
<path d="M194.247 332.73L194.222 341.838L158.638 321.325V321.13C158.64 320.673 158.315 320.119 157.909 319.886L153.206 317.176C153.014 316.973 152.545 315.504 152.551 313.256C152.558 311.017 153.034 310.094 153.197 310.094L157.928 312.821C158.334 313.056 158.66 312.87 158.662 312.42V312.215L194.247 332.73Z" fill="#ECEAFA"/>
<path d="M212.863 278.51L155.731 311.653L151.714 309.329C151.309 309.099 150.973 309.099 150.695 309.248L207.827 276.105C208.105 275.943 208.44 275.954 208.834 276.186L212.863 278.51Z" fill="#8576E5"/>
<path d="M194.247 334.482L248.446 303.035L248.421 310.394L194.22 341.84L194.247 334.482Z" fill="#ECEAFA"/>
<path d="M252.903 300.568L195.771 333.712L156.448 311.042C156.251 310.927 156.065 310.927 155.938 310.996L213.069 277.852C213.197 277.783 213.37 277.783 213.567 277.898L252.903 300.568Z" fill="#BCB5E7"/>
<path d="M171.859 310.851L185.33 303.035L209.235 316.812L195.76 324.629L171.859 310.851Z" fill="#9B94C4"/>
<path d="M195.744 344.468L252.871 311.324L252.866 312.979L195.739 346.123L195.744 344.468Z" fill="#9B94C4"/>
<path d="M195.774 333.715L195.769 335.36L194.247 334.483L157.171 313.113V313.316C157.17 313.765 156.844 313.951 156.437 313.718L151.706 310.99C151.544 310.989 151.067 311.912 151.061 314.151C151.054 316.399 151.525 317.866 151.715 318.071L156.418 320.781C156.825 321.016 157.149 321.568 157.147 322.027V322.222L194.223 343.592L195.746 344.469L195.741 346.122L156.408 323.453C156.024 323.231 155.7 322.663 155.701 322.222V322.027L151.679 319.709C150.149 318.826 149.61 315.831 149.616 313.321C149.623 310.819 150.177 308.455 151.708 309.337L155.73 311.655V311.46C155.731 311.011 156.051 310.82 156.442 311.046L195.774 333.715Z" fill="#A69FD1"/>
<path d="M155.666 320.346L151.715 318.069C151.523 317.866 151.054 316.396 151.061 314.148C151.067 311.91 151.544 310.986 151.706 310.986L155.666 313.269V311.613L151.711 309.333C150.18 308.451 149.626 310.816 149.619 313.317C149.611 315.827 150.152 318.822 151.682 319.705L155.668 322.002L155.666 320.346Z" fill="#8576E5"/>
<path d="M195.774 333.714L252.901 300.57L252.896 302.216L195.769 335.36L195.774 333.714Z" fill="#9B94C4"/>
<path d="M295.059 312.002L298.099 308.159C298.175 308.062 298.188 307.929 298.129 307.819C298.071 307.71 297.953 307.646 297.831 307.658L292.957 308.086L295.059 312.002Z" fill="#2C2363"/>
<path d="M293.8 308.253C293.416 308.024 293.057 307.962 292.767 308.05L285.281 309.787C286.403 310.793 287.38 312.026 288.361 313.366C289.1 314.377 289.829 315.394 290.525 316.427L295.018 312.145C295.232 311.945 295.361 311.621 295.377 311.189C295.41 310.13 294.701 308.81 293.8 308.253Z" fill="#493F8C"/>
<path d="M230.6 338.82L287.193 308.313C287.825 307.973 288.68 308.048 289.607 308.618C291.474 309.763 292.931 312.478 292.863 314.682C292.828 315.791 292.413 316.558 291.773 316.903L235.178 347.41C235.819 347.066 236.234 346.298 236.269 345.189C236.337 342.985 234.88 340.27 233.012 339.125C232.087 338.555 231.234 338.48 230.6 338.82Z" fill="#958CCF"/>
<path d="M230.6 338.818L253.473 326.489C254.106 326.149 254.961 326.224 255.887 326.793C257.754 327.939 259.212 330.654 259.143 332.857C259.108 333.966 258.694 334.734 258.053 335.079L235.18 347.408C235.82 347.064 236.235 346.296 236.27 345.187C236.338 342.983 234.881 340.268 233.014 339.123C232.087 338.553 231.234 338.479 230.6 338.818Z" fill="#9283F2"/>
<path d="M229.51 341.042C229.441 343.245 230.899 345.96 232.766 347.105C234.633 348.251 236.202 347.393 236.27 345.189C236.338 342.985 234.881 340.27 233.014 339.125C231.148 337.979 229.58 338.838 229.51 341.042Z" fill="#7263D3"/>
<path d="M234.644 338.239C236.523 339.384 237.978 342.092 237.904 344.307C237.867 345.415 237.454 346.179 236.817 346.524L238.458 345.638C239.097 345.294 239.52 344.521 239.558 343.416C239.622 341.209 238.166 338.499 236.299 337.347C235.369 336.792 234.527 336.703 233.888 337.047L232.235 337.939C232.874 337.594 233.726 337.677 234.644 338.239Z" fill="#372D74"/>
<path d="M234.942 333.434L251.843 324.386C251.994 324.305 252.137 324.3 252.243 324.364L253.341 325.024C253.233 324.96 253.092 324.965 252.941 325.046L236.049 334.113C235.749 334.275 235.475 334.715 235.447 335.069L235.379 338.31L234.253 338.004L234.347 334.409C234.366 334.034 234.64 333.596 234.942 333.434Z" fill="#544A93"/>
<path d="M235.709 334.43C235.321 334.233 234.93 334.041 234.536 333.855C234.431 334.028 234.358 334.225 234.349 334.408L234.253 338.003L235.379 338.309L235.447 335.066C235.464 334.858 235.566 334.623 235.709 334.43Z" fill="#372D74"/>
<path d="M235.455 335.074L235.383 338.295L236.543 337.673L236.594 335.112L252.898 326.373C253.214 326.203 253.486 325.764 253.499 325.402C253.51 325.04 253.257 324.883 252.939 325.053L236.056 334.103C235.738 334.273 235.466 334.712 235.455 335.074Z" fill="#372D74"/>
<path d="M308.553 181.344L308.564 185.071C308.564 185.252 308.683 185.431 308.918 185.567L308.907 181.839C308.672 181.704 308.554 181.523 308.553 181.344Z" fill="#2C2363"/>
<path d="M308.907 181.842L308.918 185.571L316.424 181.244L316.415 177.516L308.907 181.842Z" fill="#958CCF"/>
<path d="M308.914 180.842C308.437 181.118 308.434 181.567 308.909 181.842L316.415 177.515C315.939 177.239 315.162 177.239 314.674 177.52L308.914 180.842Z" fill="#493F8C"/>
<path d="M334.997 198.056L335.011 201.775L344.372 196.379L344.356 192.66L334.997 198.056Z" fill="#5D53A0"/>
<path d="M344.243 200.207L344.259 202.168L346.256 201.016L346.242 199.055L344.243 200.207Z" fill="#2C2363"/>
<path d="M308.626 182.004C308.275 182.207 308.273 182.543 308.631 182.751L334.999 198.049L344.357 192.655L317.989 177.355C317.632 177.147 317.049 177.147 316.688 177.355L316.415 177.512L308.909 181.839L308.626 182.004Z" fill="#958CCF"/>
<path d="M308.367 182.375V186.11C308.367 186.246 308.459 186.368 308.642 186.475L335.013 201.778L334.997 198.059L308.626 182.756C308.459 182.649 308.367 182.511 308.367 182.375Z" fill="#6A60AD"/>
<path d="M335.582 198.793L335.591 200.754L344.259 202.168L344.243 200.207L335.582 198.793Z" fill="#372D74"/>
<path d="M344.502 200.414L344.513 201.626L346.477 202.767L346.466 201.553L344.502 200.414Z" fill="#6A60AD"/>
<path d="M346.466 201.552L346.477 202.766L347.142 201.45L347.132 200.238L346.466 201.552Z" fill="#5D53A0"/>
<path d="M343.844 194.027L335.582 198.79L344.243 200.206L346.242 199.054L343.844 194.027Z" fill="#493F8C"/>
<path d="M344.502 200.412L346.466 201.551L347.132 200.238L345.97 199.566L344.502 200.412Z" fill="#958CCF"/>
<path d="M180.187 112.556L195.293 119.945C197.206 120.902 199.521 120.096 200.478 118.187L207.879 103.106C208.81 101.196 208.03 98.8827 206.117 97.9292L191.013 90.5404C189.1 89.6107 186.784 90.3897 185.827 92.2983L178.427 107.377C177.47 109.289 178.276 111.602 180.187 112.556Z" fill="#9B8CF7"/>
<path d="M162.83 113.516L169.799 99.3481C170.686 97.5457 172.874 96.8 174.679 97.6853L188.871 104.643C190.675 105.526 191.423 107.713 190.536 109.515L183.568 123.685C182.681 125.487 180.493 126.233 178.687 125.348L164.496 118.39C162.692 117.504 161.944 115.319 162.83 113.516ZM173.301 100.484C173.044 100.357 172.731 100.463 172.604 100.722L165.635 114.89C165.508 115.147 165.615 115.46 165.874 115.587L180.065 122.544C180.323 122.671 180.636 122.563 180.763 122.306L187.731 108.136C187.858 107.879 187.752 107.567 187.493 107.44L173.301 100.484Z" fill="#9283F2"/>
<path d="M380.345 359.128L374.45 348.604C373.7 347.265 374.182 345.569 375.521 344.82L386.063 338.935C387.402 338.187 389.103 338.667 389.853 340.005L395.747 350.529C396.497 351.868 396.016 353.564 394.676 354.313L384.135 360.197C382.795 360.946 381.095 360.466 380.345 359.128ZM376.686 346.9C376.494 347.006 376.426 347.249 376.534 347.441L382.428 357.965C382.535 358.157 382.778 358.225 382.97 358.117L393.511 352.233C393.703 352.126 393.772 351.884 393.664 351.692L387.769 341.168C387.663 340.977 387.42 340.908 387.227 341.015L376.686 346.9Z" fill="#6A60AD"/>
<path d="M432.629 148.915L441.659 153.965C442.806 154.608 444.283 154.176 444.948 153.004L450.186 143.787C450.852 142.615 450.46 141.139 449.312 140.496L440.283 135.446C439.134 134.804 437.659 135.235 436.993 136.408L431.755 145.624C431.088 146.797 431.48 148.272 432.629 148.915ZM433.54 146.624L438.778 137.407C438.873 137.239 439.084 137.179 439.248 137.269L448.278 142.319C448.441 142.412 448.499 142.621 448.403 142.789L443.165 152.006C443.07 152.174 442.859 152.234 442.695 152.144L433.665 147.094C433.5 147.002 433.444 146.792 433.54 146.624Z" fill="#7D73BC"/>
<path d="M95.5407 214.626L105.082 203.719C106.295 202.333 108.413 202.19 109.802 203.4L120.726 212.926C122.115 214.137 122.258 216.252 121.046 217.638L111.504 228.545C110.29 229.931 108.173 230.074 106.784 228.864L95.8601 219.338C94.4696 218.127 94.3265 216.012 95.5407 214.626ZM107.916 205.558C107.717 205.385 107.415 205.406 107.242 205.604L97.7004 216.51C97.5272 216.709 97.5478 217.01 97.7465 217.183L108.671 226.709C108.869 226.882 109.171 226.861 109.344 226.663L118.886 215.757C119.059 215.558 119.038 215.257 118.84 215.084L107.916 205.558Z" fill="#C9C3ED"/>
<path d="M353.85 106.466C352.359 113.182 358.22 119.034 364.947 117.546C368.337 116.795 371.073 114.065 371.823 110.68C373.314 103.964 367.453 98.1113 360.726 99.6012C357.336 100.352 354.601 103.082 353.85 106.466Z" fill="#8576E5"/>
<path d="M146.699 374.116C149.021 371.797 149.008 368.025 146.67 365.69C144.331 363.356 140.553 363.343 138.23 365.661C135.908 367.98 135.921 371.752 138.26 374.087C140.598 376.421 144.377 376.434 146.699 374.116Z" fill="#9B8CF7"/>
<path d="M367.458 128.285C366.69 132.331 370.177 135.811 374.228 135.044C376.478 134.619 378.32 132.78 378.746 130.533C379.513 126.488 376.027 123.008 371.976 123.775C369.726 124.2 367.884 126.037 367.458 128.285Z" fill="#BCB5E7"/>
</svg>
