<svg width="100" height="100" viewBox="0 0 100 100" fill="none" xmlns="http://www.w3.org/2000/svg">
<path d="M78.1338 86.5557C76.6424 82.1779 73.8708 78.3846 70.2008 75.6982C66.5308 73.0118 62.1431 71.5645 57.6419 71.5557H57.6225C53.1218 71.5647 48.7345 73.0121 45.0651 75.6985C41.3957 78.385 38.6247 82.1782 37.1338 86.5557" stroke="#20D3F6" stroke-width="3" stroke-linecap="round" stroke-linejoin="round"/>
<path d="M46.1338 46.5557C49.2973 49.905 53.3842 52.1901 57.8503 53.1069C62.3165 54.0237 66.9499 53.5286 71.1338 51.6875" stroke="#20D3F6" stroke-width="3" stroke-linecap="round" stroke-linejoin="round"/>
<path d="M44.1338 53.5557C44.1338 57.0035 45.5562 60.3101 48.0879 62.7481C50.6196 65.186 54.0534 66.5557 57.6338 66.5557C61.2143 66.5557 64.648 65.186 67.1798 62.7481C69.7115 60.3101 71.1338 57.0035 71.1338 53.5557C71.1338 50.1079 69.7115 46.8012 67.1798 44.3633C64.648 41.9253 61.2143 40.5557 57.6338 40.5557C54.0534 40.5557 50.6196 41.9253 48.0879 44.3633C45.5562 46.8012 44.1338 50.1079 44.1338 53.5557Z" stroke="#20D3F6" stroke-width="3" stroke-linecap="round" stroke-linejoin="round"/>
<path d="M17.1338 62.0557C17.1338 64.5752 18.1874 66.9916 20.0628 68.7732C21.9381 70.5548 24.4817 71.5557 27.1338 71.5557C29.786 71.5557 32.3295 70.5548 34.2049 68.7732C36.0803 66.9916 37.1338 64.5752 37.1338 62.0557C37.1338 59.5361 36.0803 57.1197 34.2049 55.3381C32.3295 53.5566 29.786 52.5557 27.1338 52.5557C24.4817 52.5557 21.9381 53.5566 20.0628 55.3381C18.1874 57.1197 17.1338 59.5361 17.1338 62.0557Z" stroke="black" stroke-width="3" stroke-linecap="round" stroke-linejoin="round"/>
<path d="M30.1338 76.8492C26.6091 76.1381 22.9469 76.729 19.8226 78.5129C16.6982 80.2968 14.3226 83.1533 13.1338 86.5557" stroke="black" stroke-width="3" stroke-linecap="round" stroke-linejoin="round"/>
<path d="M57.1338 71.5557V86.5557" stroke="#20D3F6" stroke-width="3" stroke-linecap="round" stroke-linejoin="round"/>
<path d="M86.1338 86.5557V13.5557H45.1338L54.7809 23.289L45.1338 33.0223H86.1338" stroke="black" stroke-width="3" stroke-linecap="round" stroke-linejoin="round"/>
</svg>
