<svg width="100" height="100" viewBox="0 0 100 100" fill="none" xmlns="http://www.w3.org/2000/svg">
<path d="M48.4745 36.9366C48.5914 37.249 48.8007 37.5182 49.0744 37.7082C49.3481 37.8982 49.6731 38 50.0061 38C50.3391 38 50.6642 37.8982 50.9379 37.7082C51.2116 37.5182 51.4209 37.249 51.5378 36.9366L59 16.1939C53.1052 14.602 46.8948 14.602 41 16.1939L48.4745 36.9366Z" stroke="#20D3F6" stroke-width="3" stroke-linecap="round" stroke-linejoin="round"/>
<path d="M48.4745 63.069C48.5901 62.7553 48.7989 62.4847 49.0727 62.2936C49.3466 62.1025 49.6724 62 50.0061 62C50.3399 62 50.6657 62.1025 50.9395 62.2936C51.2134 62.4847 51.4222 62.7553 51.5378 63.069L59 83.8094C53.1046 85.3969 46.8954 85.3969 41 83.8094L48.4745 63.069Z" stroke="#20D3F6" stroke-width="3" stroke-linecap="round" stroke-linejoin="round"/>
<path d="M39.6087 57.7577C39.8287 57.4944 39.963 57.1694 39.9934 56.8266C40.0238 56.4838 39.9488 56.14 39.7786 55.8416C39.6083 55.5432 39.3511 55.3048 39.0418 55.1587C38.7326 55.0126 38.3861 54.9658 38.0496 55.0248L16 59.0142C17.601 65.0634 20.7617 70.5785 25.1616 75L39.6087 57.7577Z" stroke="black" stroke-width="3" stroke-linecap="round" stroke-linejoin="round"/>
<path d="M61.9499 44.9752C61.6134 45.0342 61.2671 44.9874 60.9579 44.8413C60.6487 44.6952 60.3916 44.4568 60.2214 44.1584C60.0512 43.86 59.9762 43.5162 60.0066 43.1734C60.037 42.8306 60.1712 42.5056 60.3912 42.2423L74.8408 25C79.241 29.4203 82.4012 34.9358 84 40.9858L61.9499 44.9752Z" stroke="black" stroke-width="3" stroke-linecap="round" stroke-linejoin="round"/>
<path d="M60.3913 57.7577C60.1713 57.4944 60.037 57.1694 60.0066 56.8266C59.9762 56.4838 60.0512 56.14 60.2214 55.8416C60.3917 55.5432 60.6489 55.3048 60.9582 55.1587C61.2674 55.0126 61.6139 54.9658 61.9504 55.0248L84 59.0142C82.399 65.0634 79.2383 70.5785 74.8384 75L60.3913 57.7577Z" stroke="black" stroke-width="3" stroke-linecap="round" stroke-linejoin="round"/>
<path d="M38.0503 44.9752C38.3868 45.0342 38.7331 44.9874 39.0422 44.8413C39.3514 44.6952 39.6085 44.4568 39.7786 44.1584C39.9488 43.86 40.0238 43.5162 39.9934 43.1734C39.963 42.8306 39.8288 42.5056 39.6089 42.2423L25.158 25C20.7583 29.4203 17.5986 34.9358 16 40.9858L38.0503 44.9752Z" stroke="black" stroke-width="3" stroke-linecap="round" stroke-linejoin="round"/>
</svg>
