<svg width="450" height="450" viewBox="0 0 450 450" fill="none" xmlns="http://www.w3.org/2000/svg">
<path d="M336.978 134.369L336.676 239.85C336.676 241.566 336.073 242.791 335.092 243.357L332.434 244.903C333.414 244.336 334.018 243.111 334.037 241.396L334.319 135.915C334.338 132.447 331.887 128.205 328.871 126.471L196.526 50.0606C194.998 49.175 193.622 49.0996 192.623 49.6648L195.282 48.1378C196.281 47.5532 197.657 47.6288 199.184 48.5151L331.529 124.924C334.546 126.658 336.996 130.9 336.978 134.369Z" fill="#C8C5DD"/>
<path d="M328.867 126.461C331.889 128.205 334.336 132.445 334.326 135.916L334.027 241.392C334.017 244.864 331.554 246.268 328.533 244.524L196.189 168.115C193.167 166.371 190.72 162.132 190.73 158.66L191.029 53.1837C191.039 49.7124 193.502 48.308 196.523 50.0522L328.867 126.461Z" fill="#494756"/>
<path d="M328.672 132.893L328.376 237.907L196.384 161.692L196.68 56.6777L328.672 132.893Z" fill="#7764F0"/>
<path d="M331.537 247.749L331.518 253.895C331.518 255.045 330.764 256.176 329.274 257.044L238.084 310.038C235.068 311.791 230.185 311.791 227.15 310.038L94.823 233.628C93.296 232.761 92.542 231.593 92.542 230.442L92.5607 224.297C92.5607 225.447 93.3149 226.616 94.823 227.483L227.168 303.893C230.204 305.646 235.087 305.646 238.103 303.893L329.293 250.898C330.783 250.03 331.537 248.899 331.537 247.749Z" fill="#636173"/>
<path d="M329.254 244.568C332.276 246.313 332.291 249.148 329.29 250.893L238.094 303.89C235.092 305.634 230.197 305.634 227.176 303.89L94.8321 227.481C91.8108 225.736 91.7948 222.901 94.7968 221.157L185.992 168.16C188.993 166.416 193.889 166.415 196.91 168.16L329.254 244.568Z" fill="#DFDCF1"/>
<path d="M200.114 251.2C200.66 251.515 200.674 252.007 200.142 252.316L176.443 266.478C175.911 266.787 175.053 266.787 174.506 266.472L136.128 244.314C135.593 244.005 135.579 243.502 136.112 243.192L159.81 229.031C160.342 228.721 161.201 228.734 161.736 229.043L200.114 251.2Z" fill="white"/>
<path d="M207.085 179.619L211.934 176.801L312.112 234.638L307.263 237.456L207.085 179.619ZM192.256 181.658C192.792 181.967 192.806 182.47 192.274 182.779L189.644 184.307C189.112 184.617 188.243 184.611 187.707 184.301L182.067 181.045C181.531 180.736 181.529 180.239 182.061 179.929L184.69 178.401C185.222 178.092 186.081 178.092 186.616 178.401L192.256 181.658ZM186.037 185.272C186.573 185.581 186.586 186.084 186.054 186.393L180.451 189.65C179.919 189.959 179.049 189.953 178.514 189.644L172.874 186.388C172.338 186.078 172.335 185.581 172.868 185.272L178.471 182.015C179.003 181.706 179.862 181.706 180.397 182.015L186.037 185.272ZM181.16 192.839C181.695 193.149 181.698 193.646 181.166 193.955L175.562 197.212C175.03 197.521 174.172 197.521 173.636 197.212L163.91 191.597C163.374 191.287 163.372 190.79 163.904 190.481L169.507 187.224C170.04 186.915 170.898 186.915 171.434 187.224L181.16 192.839ZM169.185 217.368C169.721 217.678 169.734 218.169 169.202 218.478L162.889 222.147C162.356 222.456 161.498 222.456 160.963 222.147L155.323 218.89C154.787 218.581 154.784 218.084 155.317 217.775L161.629 214.106C162.162 213.797 163.009 213.803 163.545 214.112L169.185 217.368ZM179.469 212.353C180.005 212.662 180.018 213.166 179.486 213.475L173.882 216.731C173.35 217.04 172.481 217.035 171.945 216.725L166.316 213.475C165.78 213.166 165.777 212.668 166.309 212.359L171.913 209.103C172.445 208.793 173.304 208.793 173.839 209.103L179.469 212.353ZM183.403 204.519C183.939 204.828 183.942 205.337 183.41 205.646L177.806 208.903C177.274 209.212 176.405 209.206 175.869 208.897L170.24 205.647C169.704 205.337 169.691 204.834 170.223 204.525L175.826 201.268C176.359 200.959 177.238 200.959 177.774 201.268L183.403 204.519ZM174.15 199.176C174.686 199.485 174.678 199.989 174.146 200.298L168.543 203.554C168.01 203.864 167.152 203.864 166.616 203.554L154.937 196.811C154.401 196.502 154.399 196.005 154.931 195.696L160.534 192.439C161.066 192.13 161.935 192.124 162.471 192.433L174.15 199.176ZM201.562 187.03C202.098 187.34 202.111 187.842 201.579 188.152L198.95 189.68C198.417 189.989 197.548 189.983 197.013 189.674L191.373 186.418C190.837 186.108 190.834 185.611 191.367 185.302L193.996 183.774C194.528 183.465 195.386 183.465 195.922 183.774L201.562 187.03ZM210.878 192.409C211.414 192.718 211.417 193.215 210.885 193.524L208.255 195.053C207.723 195.362 206.865 195.362 206.329 195.053L200.689 191.796C200.153 191.487 200.14 190.983 200.672 190.674L203.302 189.146C203.834 188.837 204.702 188.843 205.238 189.152L210.878 192.409ZM195.375 190.662C195.91 190.972 195.923 191.475 195.391 191.784L189.788 195.041C189.256 195.35 188.387 195.344 187.851 195.035L182.221 191.784C181.685 191.475 181.683 190.978 182.215 190.668L187.819 187.412C188.351 187.103 189.209 187.103 189.745 187.412L195.375 190.662ZM204.313 195.823C204.849 196.132 204.862 196.635 204.329 196.945L198.726 200.201C198.194 200.51 197.325 200.504 196.789 200.195L191.149 196.939C190.613 196.63 190.611 196.132 191.143 195.823L196.746 192.567C197.278 192.257 198.137 192.257 198.673 192.567L204.313 195.823ZM149.986 206.283C150.521 206.593 150.535 207.084 150.003 207.393L143.69 211.062C143.157 211.371 142.299 211.371 141.763 211.062L136.123 207.805C135.587 207.496 135.584 206.999 136.117 206.69L142.43 203.021C142.962 202.712 143.81 202.718 144.346 203.027L149.986 206.283ZM159.585 211.826C160.121 212.135 160.134 212.626 159.602 212.936L153.289 216.604C152.757 216.914 151.899 216.914 151.363 216.604L145.723 213.348C145.187 213.038 145.173 212.536 145.706 212.226L152.019 208.557C152.551 208.248 153.41 208.26 153.945 208.569L159.585 211.826ZM168.894 206.538C169.43 206.848 169.432 207.345 168.9 207.654L163.296 210.91C162.764 211.22 161.906 211.219 161.371 210.91L146.299 202.208C145.763 201.899 145.76 201.402 146.292 201.093L151.895 197.836C152.428 197.527 153.286 197.527 153.822 197.836L168.894 206.538ZM192.173 209.582C192.709 209.891 192.701 210.394 192.169 210.704L186.566 213.96C186.033 214.27 185.175 214.27 184.639 213.96L179.009 210.71C178.474 210.401 178.461 209.897 178.993 209.588L184.596 206.332C185.128 206.022 186.008 206.022 186.543 206.332L192.173 209.582ZM199.12 203.209C199.656 203.518 199.669 204.021 199.137 204.33L193.533 207.587C193.001 207.896 192.132 207.89 191.596 207.581L185.967 204.331C185.431 204.021 185.418 203.518 185.95 203.209L191.553 199.952C192.085 199.643 192.955 199.649 193.49 199.958L199.12 203.209ZM190.35 198.145C190.886 198.454 190.899 198.958 190.367 199.267L184.763 202.523C184.231 202.833 183.362 202.827 182.826 202.517L177.197 199.267C176.661 198.958 176.648 198.454 177.18 198.145L182.783 194.889C183.315 194.579 184.185 194.585 184.72 194.895L190.35 198.145ZM220.184 197.782C220.72 198.091 220.723 198.588 220.191 198.897L217.561 200.425C217.029 200.735 216.17 200.735 215.635 200.425L209.995 197.169C209.459 196.86 209.456 196.362 209.988 196.053L212.618 194.525C213.15 194.216 214.008 194.216 214.544 194.525L220.184 197.782ZM208.058 208.369C208.594 208.678 208.596 209.176 208.064 209.485L202.461 212.741C201.929 213.051 201.07 213.051 200.534 212.741L194.894 209.485C194.358 209.176 194.345 208.672 194.877 208.363L200.481 205.107C201.013 204.797 201.882 204.803 202.418 205.113L208.058 208.369ZM201.111 214.742C201.647 215.051 201.639 215.555 201.107 215.864L195.504 219.121C194.972 219.43 194.113 219.43 193.577 219.121L187.937 215.864C187.401 215.555 187.388 215.052 187.92 214.743L193.524 211.486C194.056 211.177 194.935 211.177 195.471 211.486L201.111 214.742ZM257.407 219.272C257.942 219.581 257.956 220.084 257.424 220.394L254.794 221.922C254.262 222.231 253.393 222.225 252.857 221.916L247.227 218.666C246.692 218.356 246.679 217.853 247.211 217.544L249.84 216.016C250.372 215.706 251.241 215.713 251.777 216.022L257.407 219.272ZM179.678 223.426C180.213 223.736 180.227 224.227 179.694 224.536L173.382 228.205C172.849 228.514 171.991 228.514 171.455 228.205L164.03 223.917C163.494 223.608 163.491 223.111 164.023 222.802L170.336 219.133C170.868 218.824 171.716 218.83 172.252 219.139L179.678 223.426ZM243.63 260.349C244.166 260.659 244.179 261.15 243.647 261.459L237.335 265.128C236.802 265.437 235.944 265.437 235.408 265.128L229.611 261.78C229.075 261.471 229.072 260.974 229.604 260.665L235.917 256.996C236.449 256.687 237.297 256.693 237.833 257.002L243.63 260.349ZM234.283 254.953C234.808 255.256 234.832 255.753 234.3 256.062L227.987 259.731C227.454 260.04 226.586 260.034 226.06 259.731L218.635 255.444C218.099 255.134 218.096 254.638 218.629 254.328L224.942 250.659C225.474 250.35 226.321 250.356 226.857 250.665L234.283 254.953ZM242.004 248.458C242.54 248.767 242.542 249.264 242.01 249.573L236.407 252.83C235.875 253.139 235.016 253.139 234.48 252.83L228.84 249.573C228.304 249.264 228.302 248.767 228.834 248.458L234.437 245.201C234.97 244.892 235.828 244.892 236.364 245.201L242.004 248.458ZM276.028 230.023C276.564 230.333 276.567 230.83 276.035 231.139L273.406 232.667C272.873 232.977 272.015 232.977 271.479 232.667L265.839 229.411C265.303 229.101 265.301 228.604 265.833 228.295L268.463 226.767C268.995 226.458 269.853 226.458 270.388 226.767L276.028 230.023ZM266.723 224.651C267.258 224.96 267.262 225.457 266.729 225.766L264.1 227.294C263.568 227.604 262.709 227.604 262.173 227.294L256.533 224.038C255.998 223.729 255.995 223.231 256.527 222.922L259.157 221.394C259.689 221.085 260.547 221.085 261.083 221.394L266.723 224.651ZM261.655 239.313C262.19 239.623 262.193 240.12 261.661 240.429L256.057 243.685C255.525 243.995 254.667 243.995 254.131 243.685L248.491 240.429C247.955 240.12 247.942 239.616 248.474 239.307L254.078 236.051C254.61 235.742 255.479 235.747 256.015 236.057L261.655 239.313ZM254.708 245.686C255.244 245.996 255.236 246.499 254.704 246.808L249.101 250.065C248.569 250.374 247.71 250.374 247.174 250.065L241.534 246.808C240.998 246.499 240.985 245.995 241.517 245.686L247.121 242.43C247.653 242.121 248.532 242.121 249.068 242.43L254.708 245.686ZM288.99 265.479C289.526 265.788 289.518 266.292 288.986 266.601L283.382 269.857C282.85 270.167 281.992 270.167 281.456 269.857L269.787 263.12C269.251 262.811 269.238 262.308 269.771 261.999L275.374 258.742C275.906 258.433 276.785 258.433 277.321 258.742L288.99 265.479ZM294.64 240.769C295.175 241.078 295.179 241.575 294.647 241.884L292.017 243.412C291.485 243.721 290.626 243.722 290.09 243.412L284.45 240.156C283.915 239.846 283.912 239.349 284.444 239.04L287.074 237.512C287.606 237.203 288.464 237.203 289 237.512L294.64 240.769ZM261.245 259.567C261.781 259.876 261.794 260.38 261.262 260.689L255.659 263.945C255.127 264.254 254.257 264.248 253.722 263.939L248.092 260.689C247.556 260.38 247.554 259.882 248.086 259.573L253.69 256.317C254.222 256.008 255.08 256.007 255.616 256.317L261.245 259.567ZM264.329 251.241C264.865 251.55 264.857 252.053 264.325 252.363L258.721 255.619C258.189 255.929 257.331 255.929 256.795 255.619L251.155 252.363C250.619 252.054 250.617 251.556 251.149 251.247L256.752 247.991C257.284 247.681 258.153 247.675 258.689 247.984L264.329 251.241ZM275.775 237.082C276.311 237.391 276.324 237.894 275.792 238.204L270.189 241.46C269.656 241.769 268.787 241.763 268.252 241.454L262.612 238.197C262.076 237.888 262.073 237.391 262.606 237.082L268.209 233.825C268.741 233.516 269.6 233.516 270.135 233.825L275.775 237.082ZM284.703 242.236C285.239 242.545 285.252 243.049 284.72 243.358L279.116 246.614C278.584 246.924 277.715 246.918 277.179 246.608L271.55 243.358C271.014 243.049 271.001 242.545 271.533 242.236L277.136 238.98C277.668 238.67 278.538 238.676 279.073 238.986L284.703 242.236ZM303.945 246.141C304.481 246.451 304.495 246.954 303.963 247.263L301.333 248.791C300.801 249.1 299.932 249.094 299.396 248.785L293.756 245.529C293.22 245.219 293.218 244.722 293.75 244.413L296.379 242.885C296.912 242.575 297.77 242.576 298.305 242.885L303.945 246.141ZM270.582 244.467C271.118 244.777 271.121 245.274 270.588 245.583L264.985 248.84C264.453 249.149 263.594 249.149 263.059 248.84L257.429 245.589C256.893 245.28 256.88 244.777 257.412 244.467L263.016 241.211C263.548 240.902 264.417 240.908 264.953 241.217L270.582 244.467ZM294.166 247.7C294.702 248.009 294.704 248.506 294.172 248.815L288.569 252.072C288.036 252.381 287.178 252.381 286.642 252.072L281.012 248.821C280.477 248.512 280.464 248.009 280.996 247.7L286.599 244.443C287.131 244.134 288 244.14 288.536 244.449L294.166 247.7ZM313.261 251.52C313.797 251.829 313.8 252.326 313.268 252.635L310.639 254.164C310.106 254.473 309.248 254.473 308.712 254.164L303.072 250.907C302.536 250.598 302.523 250.095 303.055 249.785L305.685 248.257C306.217 247.948 307.086 247.954 307.621 248.263L313.261 251.52ZM280.214 250.028C280.749 250.338 280.752 250.835 280.22 251.144L274.616 254.4C274.084 254.71 273.226 254.71 272.69 254.4L267.05 251.144C266.514 250.835 266.501 250.331 267.033 250.022L272.637 246.766C273.169 246.456 274.038 246.462 274.574 246.771L280.214 250.028ZM307.043 255.134C307.578 255.443 307.581 255.94 307.049 256.25L301.445 259.506C300.913 259.815 300.055 259.815 299.519 259.506L289.793 253.891C289.257 253.582 289.244 253.078 289.776 252.769L295.38 249.513C295.912 249.204 296.781 249.209 297.317 249.519L307.043 255.134ZM289.141 255.182C289.677 255.492 289.679 255.989 289.147 256.298L283.544 259.555C283.012 259.864 282.153 259.864 281.617 259.555L275.977 256.298C275.442 255.989 275.439 255.492 275.971 255.182L281.575 251.926C282.107 251.617 282.965 251.617 283.501 251.926L289.141 255.182ZM298.079 260.343C298.615 260.652 298.618 261.149 298.085 261.459L292.482 264.715C291.95 265.024 291.091 265.024 290.556 264.715L284.915 261.459C284.38 261.149 284.367 260.646 284.899 260.337L290.502 257.08C291.034 256.771 291.904 256.777 292.439 257.086L298.079 260.343ZM240.044 216.452C240.58 216.761 240.582 217.259 240.05 217.568L234.447 220.824C233.915 221.133 233.056 221.134 232.52 220.824L226.88 217.568C226.344 217.259 226.342 216.761 226.874 216.452L232.477 213.196C233.01 212.887 233.868 212.887 234.404 213.196L240.044 216.452ZM225.924 218.684C226.459 218.993 226.462 219.49 225.93 219.8L220.326 223.056C219.794 223.365 218.936 223.365 218.4 223.056L212.76 219.8C212.224 219.49 212.211 218.987 212.743 218.678L218.347 215.422C218.879 215.112 219.748 215.118 220.284 215.427L225.924 218.684ZM248.972 221.607C249.507 221.916 249.52 222.419 248.988 222.728L243.385 225.985C242.853 226.294 241.983 226.288 241.448 225.979L235.818 222.729C235.282 222.42 235.269 221.916 235.801 221.607L241.405 218.35C241.937 218.041 242.806 218.047 243.342 218.356L248.972 221.607ZM234.851 223.838C235.387 224.148 235.389 224.645 234.857 224.954L229.254 228.21C228.722 228.52 227.863 228.52 227.327 228.21L221.698 224.96C221.162 224.651 221.149 224.148 221.681 223.838L227.285 220.582C227.817 220.273 228.686 220.279 229.222 220.588L234.851 223.838ZM218.977 225.057C219.512 225.366 219.505 225.869 218.973 226.179L213.369 229.435C212.837 229.744 211.979 229.745 211.443 229.435L205.803 226.179C205.267 225.87 205.254 225.366 205.786 225.057L211.39 221.801C211.922 221.491 212.801 221.492 213.337 221.801L218.977 225.057ZM257.91 226.767C258.445 227.076 258.448 227.574 257.916 227.883L252.312 231.139C251.78 231.449 250.922 231.449 250.386 231.139L244.746 227.883C244.21 227.573 244.208 227.076 244.74 226.767L250.343 223.511C250.875 223.201 251.734 223.201 252.27 223.511L257.91 226.767ZM206.273 227.828C206.809 228.138 206.822 228.641 206.289 228.95L200.686 232.207C200.154 232.516 199.285 232.51 198.749 232.201L193.109 228.944C192.573 228.635 192.571 228.138 193.103 227.829L198.706 224.572C199.238 224.263 200.097 224.263 200.633 224.572L206.273 227.828ZM243.789 228.999C244.325 229.308 244.328 229.805 243.795 230.114L238.192 233.371C237.66 233.68 236.801 233.68 236.266 233.371L230.625 230.114C230.09 229.805 230.077 229.302 230.609 228.992L236.212 225.736C236.744 225.427 237.614 225.433 238.149 225.742L243.789 228.999ZM227.904 230.211C228.44 230.521 228.432 231.024 227.9 231.333L222.297 234.59C221.765 234.899 220.906 234.899 220.37 234.59L214.741 231.339C214.205 231.03 214.192 230.527 214.724 230.217L220.327 226.961C220.86 226.652 221.739 226.652 222.275 226.961L227.904 230.211ZM266.837 231.921C267.373 232.231 267.386 232.734 266.854 233.043L261.25 236.3C260.718 236.609 259.849 236.603 259.313 236.294L253.684 233.043C253.148 232.734 253.135 232.231 253.667 231.921L259.27 228.665C259.803 228.356 260.672 228.362 261.207 228.671L266.837 231.921ZM215.2 232.983C215.736 233.292 215.749 233.795 215.217 234.104L209.614 237.361C209.082 237.67 208.212 237.664 207.677 237.355L202.047 234.105C201.511 233.795 201.498 233.292 202.03 232.983L207.634 229.726C208.166 229.417 209.035 229.423 209.571 229.732L215.2 232.983ZM252.717 234.153C253.253 234.462 253.255 234.959 252.723 235.269L247.12 238.525C246.587 238.834 245.729 238.834 245.193 238.525L239.563 235.275C239.028 234.965 239.015 234.462 239.547 234.153L245.15 230.896C245.682 230.587 246.551 230.593 247.087 230.902L252.717 234.153ZM236.842 235.372C237.378 235.681 237.371 236.184 236.838 236.494L231.235 239.75C230.703 240.059 229.844 240.059 229.309 239.75L223.668 236.494C223.133 236.184 223.12 235.681 223.652 235.372L229.255 232.115C229.787 231.806 230.667 231.806 231.202 232.115L236.842 235.372ZM224.138 238.143C224.674 238.452 224.677 238.95 224.145 239.259L218.541 242.515C218.009 242.825 217.15 242.825 216.615 242.515L210.975 239.259C210.439 238.95 210.436 238.452 210.969 238.143L216.572 234.887C217.104 234.578 217.963 234.577 218.498 234.887L224.138 238.143ZM245.77 240.526C246.306 240.835 246.298 241.338 245.766 241.648L240.163 244.904C239.63 245.214 238.772 245.214 238.236 244.904L232.606 241.654C232.071 241.345 232.058 240.841 232.59 240.532L238.193 237.276C238.725 236.966 239.605 236.967 240.14 237.276L245.77 240.526ZM233.066 243.297C233.602 243.607 233.615 244.11 233.083 244.419L227.479 247.676C226.947 247.985 226.078 247.979 225.542 247.67L219.913 244.419C219.377 244.11 219.374 243.613 219.906 243.304L225.51 240.047C226.042 239.738 226.901 239.738 227.436 240.047L233.066 243.297ZM222.11 247.924C222.656 248.24 222.669 248.731 222.137 249.04L215.825 252.709C215.292 253.018 214.434 253.018 213.887 252.703L175.509 230.545C174.974 230.236 174.96 229.733 175.493 229.423L181.806 225.755C182.338 225.446 183.196 225.458 183.732 225.767L222.11 247.924ZM248.101 213.899C248.637 214.209 248.65 214.712 248.118 215.021L245.488 216.549C244.956 216.859 244.087 216.853 243.552 216.543L237.922 213.293C237.386 212.984 237.373 212.48 237.905 212.171L240.535 210.643C241.067 210.334 241.935 210.34 242.471 210.649L248.101 213.899ZM238.795 208.527C239.331 208.836 239.334 209.333 238.802 209.642L236.172 211.17C235.64 211.48 234.782 211.48 234.246 211.17L228.606 207.914C228.07 207.605 228.068 207.107 228.6 206.798L231.229 205.27C231.762 204.961 232.62 204.961 233.155 205.27L238.795 208.527ZM229.489 203.154C230.025 203.464 230.028 203.96 229.496 204.27L226.867 205.798C226.334 206.107 225.476 206.107 224.94 205.798L219.3 202.542C218.764 202.232 218.762 201.735 219.294 201.426L221.924 199.898C222.456 199.588 223.314 199.589 223.849 199.898L229.489 203.154ZM213.24 200.977C213.776 201.286 213.789 201.79 213.257 202.099L207.654 205.355C207.122 205.664 206.252 205.659 205.717 205.349L200.087 202.099C199.551 201.79 199.538 201.286 200.07 200.977L205.674 197.721C206.206 197.411 207.075 197.417 207.611 197.727L213.24 200.977ZM222.178 206.137C222.714 206.447 222.727 206.95 222.195 207.259L216.592 210.516C216.059 210.825 215.19 210.819 214.655 210.51L209.014 207.253C208.479 206.944 208.476 206.447 209.008 206.138L214.612 202.881C215.144 202.572 216.003 202.572 216.538 202.881L222.178 206.137ZM197.335 222.668C197.87 222.977 197.883 223.481 197.351 223.79L191.748 227.046C191.216 227.355 190.347 227.35 189.811 227.04L184.181 223.79C183.645 223.481 183.632 222.977 184.165 222.668L189.768 219.412C190.3 219.102 191.169 219.108 191.705 219.418L197.335 222.668ZM231.106 211.292C231.642 211.601 231.655 212.104 231.123 212.414L225.519 215.67C224.987 215.979 224.118 215.973 223.582 215.664L217.953 212.414C217.417 212.105 217.404 211.601 217.936 211.292L223.539 208.036C224.071 207.726 224.941 207.732 225.476 208.042L231.106 211.292ZM216.986 213.523C217.521 213.833 217.524 214.33 216.992 214.639L211.388 217.896C210.856 218.205 209.997 218.205 209.462 217.896L203.832 214.645C203.296 214.336 203.283 213.833 203.815 213.523L209.419 210.267C209.951 209.958 210.82 209.964 211.356 210.273L216.986 213.523ZM210.039 219.897C210.574 220.206 210.567 220.709 210.035 221.018L204.431 224.275C203.899 224.584 203.04 224.584 202.505 224.275L196.875 221.025C196.339 220.715 196.326 220.212 196.858 219.903L202.462 216.646C202.994 216.337 203.873 216.337 204.409 216.646L210.039 219.897ZM188.407 217.513C188.943 217.823 188.956 218.326 188.424 218.635L182.82 221.892C182.288 222.201 181.419 222.195 180.883 221.886L175.243 218.629C174.708 218.32 174.705 217.823 175.237 217.514L180.841 214.257C181.373 213.948 182.231 213.948 182.767 214.257L188.407 217.513ZM273.96 256.802C274.496 257.111 274.488 257.614 273.956 257.923L268.353 261.18C267.82 261.489 266.962 261.489 266.426 261.18L260.786 257.923C260.25 257.614 260.237 257.111 260.769 256.802L266.373 253.545C266.905 253.236 267.784 253.236 268.32 253.545L273.96 256.802ZM280.016 270.694C280.551 271.003 280.554 271.501 280.022 271.81L274.418 275.066C273.886 275.376 273.028 275.375 272.493 275.066L256.77 265.989C256.234 265.679 256.231 265.182 256.763 264.873L262.366 261.617C262.898 261.307 263.757 261.307 264.293 261.617L280.016 270.694ZM262.189 271.064C262.725 271.374 262.738 271.865 262.206 272.174L255.893 275.843C255.361 276.152 254.503 276.152 253.967 275.843L248.169 272.495C247.634 272.186 247.631 271.689 248.163 271.38L254.476 267.711C255.008 267.402 255.856 267.408 256.392 267.717L262.189 271.064ZM249.651 267.996C250.187 268.305 250.2 268.809 249.668 269.118L246.966 270.688C246.433 270.998 245.565 270.991 245.029 270.682L239.242 267.341C238.706 267.031 238.692 266.529 239.225 266.219L241.927 264.649C242.459 264.339 243.328 264.345 243.864 264.655L249.651 267.996ZM267.622 278.371C268.158 278.681 268.171 279.184 267.639 279.493L264.937 281.064C264.404 281.373 263.535 281.367 263 281.058L257.202 277.71C256.666 277.401 256.663 276.904 257.196 276.595L259.898 275.024C260.43 274.715 261.289 274.715 261.824 275.024L267.622 278.371ZM285.334 235.396C285.87 235.705 285.873 236.202 285.341 236.512L282.711 238.04C282.179 238.349 281.32 238.349 280.785 238.04L275.145 234.783C274.609 234.474 274.606 233.977 275.139 233.667L277.768 232.139C278.3 231.83 279.158 231.83 279.694 232.14L285.334 235.396ZM251.625 254.012C252.16 254.322 252.173 254.825 251.641 255.134L246.038 258.391C245.506 258.7 244.637 258.694 244.101 258.384L238.471 255.134C237.935 254.825 237.922 254.321 238.455 254.012L244.058 250.756C244.59 250.447 245.459 250.453 245.995 250.762L251.625 254.012Z" fill="#4E4C5E"/>
<path d="M361.863 172.183C362.973 172.824 363.868 174.377 363.864 175.654L363.847 181.721L320.063 156.442L320.08 150.375C320.084 149.099 320.988 148.584 322.098 149.225L361.863 172.183Z" fill="#D2CFE8"/>
<path d="M358.983 167.535C360.093 168.176 360.988 169.729 360.984 171.005L360.967 177.072L317.183 151.794L317.2 145.727C317.204 144.45 318.107 143.935 319.218 144.577L358.983 167.535Z" fill="#A298E2"/>
<path d="M349.426 165.31C350.076 165.685 350.6 166.594 350.598 167.341C350.596 168.088 350.069 168.391 349.419 168.016C348.769 167.641 348.243 166.73 348.245 165.983C348.247 165.236 348.777 164.934 349.426 165.31ZM353.439 167.627C354.089 168.002 354.615 168.912 354.613 169.659C354.611 170.406 354.082 170.708 353.432 170.333C352.782 169.957 352.256 169.047 352.258 168.3C352.26 167.553 352.789 167.251 353.439 167.627ZM357.454 169.945C358.104 170.32 358.63 171.231 358.628 171.978C358.626 172.724 358.097 173.026 357.447 172.651C356.797 172.276 356.271 171.365 356.273 170.618C356.275 169.871 356.805 169.569 357.454 169.945Z" fill="white"/>
<path d="M363.847 181.72L363.652 250.475L319.868 225.197L320.063 156.441L363.847 181.72Z" fill="#E9E7F7"/>
<path d="M338.25 210.266L337.151 210.552L337.568 212.277L336.47 210.716L335.371 211.002L335.788 209.772L334.69 208.211L336.052 209.002L336.47 207.75L336.887 209.475L338.25 210.266ZM345.469 215.353L345.886 217.078L344.787 215.518L343.689 215.815L344.117 214.573L343.018 213.013L344.381 213.804L344.798 212.551L345.205 214.287L346.567 215.067L345.469 215.353ZM342.414 212.661L341.304 212.947L341.722 214.672L340.623 213.123L339.524 213.409L339.953 212.167L338.854 210.618L340.216 211.398L340.634 210.156L341.052 211.881L342.414 212.661ZM350.732 217.463L349.622 217.749L350.039 219.473L348.941 217.924L347.842 218.21L348.27 216.968L347.172 215.419L348.534 216.199L348.952 214.957L349.369 216.682L350.732 217.463Z" fill="#C8C5DD"/>
<path d="M334.096 207.857L332.987 208.143L333.404 209.868L332.305 208.318L331.207 208.604L331.635 207.362L330.536 205.802L331.888 206.593L332.316 205.352L332.734 207.076L334.096 207.857Z" fill="#7D69FF"/>
<path d="M322.922 207.371V208.606L360.793 230.471V229.236L322.922 207.371ZM322.922 221.288V222.524L336.492 230.359L336.495 229.124L322.922 221.288ZM322.922 217.809V219.045L360.793 240.91V239.674L322.922 217.809ZM322.922 214.329V215.565L360.793 237.43V236.194L322.922 214.329ZM322.922 210.85V212.086L360.793 233.951V232.715L322.922 210.85Z" fill="#C8C5DD"/>
<path d="M308.432 141.457C309.542 142.098 310.437 143.651 310.433 144.927L310.416 150.994L266.632 125.716L266.649 119.648C266.653 118.372 267.557 117.857 268.667 118.498L308.432 141.457Z" fill="#D2CFE8"/>
<path d="M305.552 136.808C306.662 137.449 307.557 139.002 307.553 140.279L307.536 146.346L263.752 121.067L263.769 115C263.773 113.724 264.676 113.209 265.787 113.85L305.552 136.808Z" fill="#543DEA"/>
<path d="M295.996 134.583C296.646 134.959 297.169 135.868 297.167 136.615C297.165 137.362 296.638 137.665 295.988 137.289C295.338 136.914 294.812 136.003 294.814 135.256C294.816 134.509 295.346 134.208 295.996 134.583ZM300.008 136.9C300.658 137.275 301.184 138.186 301.182 138.933C301.18 139.68 300.651 139.981 300.001 139.606C299.351 139.231 298.825 138.32 298.827 137.573C298.829 136.826 299.358 136.525 300.008 136.9ZM304.024 139.218C304.674 139.594 305.199 140.504 305.197 141.251C305.195 141.998 304.666 142.3 304.016 141.924C303.366 141.549 302.84 140.638 302.842 139.891C302.845 139.144 303.374 138.843 304.024 139.218Z" fill="white"/>
<path d="M310.416 150.993L310.221 219.749L266.437 194.47L266.632 125.715L310.416 150.993Z" fill="#E9E7F7"/>
<path d="M299.212 166.158C299.2 170.056 297.864 172.798 295.665 174.123C293.966 175.189 291.745 175.37 289.253 174.52C288.403 174.248 287.519 173.852 286.624 173.331C285.786 172.843 284.947 172.277 284.143 171.619C281.662 169.614 279.452 166.918 277.741 163.926C275.498 160.018 274.127 155.655 274.138 151.69C274.161 143.725 279.781 140.519 286.704 144.518C293.626 148.506 299.234 158.205 299.212 166.158Z" fill="#C8C5DD"/>
<path d="M289.158 154.69C289.903 155.387 290.316 159.648 290.511 159.761C290.578 159.72 290.68 159.467 290.788 159.072C290.865 159.201 290.948 159.425 290.984 159.815C291.054 160.576 291.122 161.58 290.664 161.315C290.602 161.277 290.545 161.232 290.494 161.181C290.474 161.24 290.083 162.357 289.279 163.154C288.648 163.78 287.776 164.173 286.669 163.585C285.629 162.937 284.8 161.657 284.186 160.382C283.317 158.579 282.899 156.873 282.877 156.783C282.817 156.772 282.76 156.751 282.707 156.721C282.249 156.457 282.322 155.535 282.39 154.854C282.445 154.353 282.597 154.309 282.69 154.333C282.742 154.559 282.779 154.69 282.781 154.697C282.713 153.87 283.021 152.906 283.212 152.402C283.267 152.297 283.327 152.2 283.393 152.109C284.08 153.065 284.814 153.693 285.521 154.101C287.442 155.21 289.072 154.716 289.158 154.69Z" fill="#BFB5FC"/>
<path d="M284.173 162.332L284.177 163.358C284.174 164.464 284.953 165.813 285.915 166.368L287.528 167.3C288.49 167.855 289.267 167.404 289.27 166.299L289.273 165.274L289.254 174.524C288.407 174.251 287.524 173.85 286.627 173.332C285.756 172.828 284.926 172.254 284.147 171.616L284.173 162.332Z" fill="#E9E7F7"/>
<path d="M289.279 163.151L289.273 165.275L289.27 166.299C289.266 167.405 288.49 167.856 287.528 167.3L285.915 166.369C284.953 165.813 284.174 164.464 284.177 163.359L284.18 162.334L284.186 160.379C284.8 161.654 285.629 162.933 286.669 163.582C287.775 164.17 288.648 163.777 289.279 163.151Z" fill="#B9B0F4"/>
<path d="M283.393 152.109C283.327 152.2 283.267 152.297 283.212 152.402C283.294 152.186 283.351 152.061 283.354 152.055L283.393 152.109Z" fill="#EDEDED"/>
<path d="M286.754 149.329C287.358 149.678 287.971 150.176 288.502 150.848C289.006 151.485 289.187 151.707 289.201 151.715C289.229 151.732 288.538 150.828 288.502 150.781C288.591 150.836 290.274 151.888 290.919 154.283C291.392 156.026 291.07 158.039 290.787 159.072C290.679 159.467 290.577 159.72 290.527 159.76C290.315 159.648 289.902 155.387 289.157 154.69C289.072 154.716 287.442 155.21 285.521 154.101C284.814 153.693 284.08 153.065 283.392 152.109L283.354 152.055C283.351 152.062 283.293 152.187 283.212 152.402C283.021 152.906 282.712 153.87 282.781 154.697C282.748 154.576 282.717 154.455 282.69 154.333C282.511 153.552 282.183 151.708 282.792 150.756C282.758 150.715 282.113 149.923 282.451 148.387C282.461 148.397 282.648 148.592 282.929 148.754C283.228 148.927 283.623 149.051 283.979 148.827C284.43 148.538 285.576 148.649 286.754 149.329Z" fill="#414143"/>
<path d="M284.16 162.328V171.623C281.656 169.609 279.44 166.932 277.742 163.939C277.943 162.731 278.231 161.695 278.605 161.637C279.267 161.522 281.8 161.666 284.16 162.328ZM295.671 174.127C293.973 175.192 291.757 175.365 289.254 174.53L289.282 165.293C291.642 167.336 294.175 170.127 294.837 171.019C295.182 171.48 295.47 172.746 295.671 174.127Z" fill="#6B54FD"/>
<path d="M284.819 179.54L283.72 179.825L284.138 181.55L283.039 179.99L281.94 180.276L282.358 179.045L281.259 177.485L282.621 178.276L283.039 177.023L283.456 178.748L284.819 179.54ZM292.038 184.627L292.455 186.352L291.357 184.792L290.258 185.088L290.686 183.847L289.588 182.287L290.95 183.077L291.368 181.824L291.774 183.561L293.137 184.341L292.038 184.627ZM288.983 181.935L287.874 182.22L288.291 183.945L287.192 182.396L286.093 182.682L286.522 181.44L285.423 179.891L286.786 180.671L287.203 179.43L287.621 181.154L288.983 181.935Z" fill="#7D69FF"/>
<path d="M297.301 186.735L296.191 187.021L296.609 188.746L295.51 187.197L294.411 187.483L294.84 186.241L293.741 184.692L295.103 185.472L295.521 184.23L295.938 185.955L297.301 186.735Z" fill="#C8C5DD"/>
<path d="M280.665 177.134L279.556 177.42L279.973 179.145L278.874 177.595L277.776 177.881L278.204 176.64L277.105 175.08L278.457 175.87L278.885 174.629L279.303 176.354L280.665 177.134Z" fill="#7D69FF"/>
<path d="M269.491 176.645V177.88L307.362 199.745V198.51L269.491 176.645ZM269.491 190.561V191.798L283.061 199.632L283.064 198.398L269.491 190.561ZM269.491 187.083V188.319L307.362 210.184V208.948L269.491 187.083ZM269.491 183.602V184.839L307.362 206.704V205.467L269.491 183.602ZM269.491 180.123V181.36L307.362 203.225V201.989L269.491 180.123Z" fill="#C8C5DD"/>
<path d="M255.001 110.73C256.111 111.371 257.006 112.924 257.002 114.2L256.985 120.268L213.201 94.9892L213.219 88.9219C213.222 87.6457 214.126 87.1307 215.236 87.7719L255.001 110.73Z" fill="#D2CFE8"/>
<path d="M252.121 106.082C253.231 106.723 254.126 108.276 254.122 109.552L254.105 115.619L210.321 90.3408L210.338 84.2734C210.342 82.9972 211.246 82.4822 212.356 83.1235L252.121 106.082Z" fill="#7966F1"/>
<path d="M242.565 103.857C243.215 104.232 243.738 105.141 243.736 105.888C243.734 106.635 243.207 106.938 242.557 106.563C241.907 106.187 241.381 105.277 241.383 104.53C241.385 103.783 241.915 103.482 242.565 103.857ZM246.577 106.173C247.227 106.549 247.753 107.459 247.751 108.206C247.749 108.953 247.22 109.255 246.57 108.879C245.92 108.504 245.394 107.594 245.396 106.847C245.398 106.1 245.927 105.798 246.577 106.173ZM250.593 108.492C251.243 108.867 251.768 109.777 251.766 110.524C251.764 111.271 251.235 111.573 250.585 111.198C249.935 110.822 249.409 109.912 249.411 109.165C249.413 108.418 249.943 108.116 250.593 108.492Z" fill="white"/>
<path d="M256.985 120.267L256.79 189.022L213.006 163.744L213.201 94.9883L256.985 120.267Z" fill="#E9E7F7"/>
<path d="M245.781 135.436C245.77 139.333 244.433 142.075 242.235 143.401C240.535 144.466 238.315 144.647 235.822 143.797C234.972 143.526 234.088 143.129 233.193 142.608C232.355 142.121 231.516 141.554 230.712 140.897C228.231 138.892 226.021 136.195 224.311 133.204C222.067 129.295 220.696 124.933 220.708 120.967C220.73 113.003 226.35 109.796 233.273 113.795C240.195 117.783 245.804 127.482 245.781 135.436Z" fill="#C8C5DD"/>
<path d="M235.727 123.963C236.472 124.66 236.885 128.921 237.081 129.034C237.147 128.993 237.249 128.741 237.357 128.346C237.435 128.474 237.517 128.699 237.553 129.089C237.623 129.849 237.692 130.853 237.233 130.588C237.172 130.551 237.115 130.506 237.064 130.454C237.043 130.513 236.653 131.63 235.848 132.428C235.217 133.053 234.345 133.446 233.238 132.859C232.198 132.21 231.369 130.931 230.755 129.656C229.886 127.853 229.468 126.147 229.446 126.057C229.386 126.046 229.329 126.025 229.276 125.995C228.818 125.73 228.892 124.809 228.959 124.127C229.014 123.627 229.166 123.582 229.26 123.606C229.311 123.833 229.349 123.963 229.351 123.97C229.282 123.144 229.59 122.18 229.781 121.676C229.836 121.571 229.896 121.473 229.962 121.383C230.649 122.339 231.383 122.967 232.09 123.375C234.011 124.484 235.641 123.989 235.727 123.963Z" fill="#BFB5FC"/>
<path d="M230.742 131.609L230.746 132.636C230.743 133.741 231.522 135.09 232.484 135.646L234.097 136.577C235.059 137.132 235.836 136.681 235.839 135.576L235.842 134.551L235.823 143.801C234.976 143.528 234.093 143.127 233.196 142.609C232.325 142.105 231.495 141.531 230.716 140.894L230.742 131.609Z" fill="#E9E7F7"/>
<path d="M235.848 132.428L235.842 134.552L235.839 135.577C235.836 136.682 235.059 137.133 234.097 136.577L232.484 135.646C231.522 135.091 230.743 133.742 230.746 132.636L230.749 131.612L230.755 129.656C231.369 130.932 232.198 132.211 233.238 132.859C234.345 133.447 235.217 133.054 235.848 132.428Z" fill="#B9B0F4"/>
<path d="M229.962 121.382C229.896 121.473 229.836 121.57 229.781 121.675C229.825 121.558 229.872 121.442 229.923 121.328C229.936 121.346 229.949 121.364 229.962 121.382Z" fill="#EDEDED"/>
<path d="M233.323 118.602C233.927 118.951 234.54 119.45 235.071 120.121C235.575 120.758 235.756 120.981 235.77 120.989C235.799 121.005 235.108 120.102 235.071 120.054C235.16 120.11 236.843 121.161 237.489 123.557C237.961 125.3 237.639 127.312 237.357 128.346C237.249 128.741 237.146 128.993 237.096 129.033C236.884 128.921 236.472 124.66 235.727 123.963C235.641 123.989 234.011 124.484 232.09 123.374C231.383 122.967 230.649 122.339 229.962 121.383L229.923 121.329C229.92 121.335 229.863 121.46 229.781 121.676C229.59 122.18 229.282 123.144 229.35 123.97C229.317 123.85 229.287 123.728 229.259 123.606C229.081 122.825 228.752 120.982 229.361 120.03C229.327 119.988 228.683 119.197 229.02 117.66C229.03 117.671 229.217 117.865 229.498 118.028C229.797 118.201 230.192 118.325 230.548 118.101C230.999 117.811 232.145 117.923 233.323 118.602Z" fill="#414143"/>
<path d="M230.729 131.601V140.896C228.225 138.883 226.009 136.206 224.311 133.213C224.512 132.004 224.8 130.969 225.174 130.911C225.836 130.796 228.369 130.939 230.729 131.601ZM242.24 143.4C240.542 144.466 238.326 144.638 235.822 143.804L235.851 134.566C238.211 136.609 240.744 139.4 241.406 140.292C241.751 140.753 242.039 142.019 242.24 143.4Z" fill="#8D7BFF"/>
<path d="M231.388 148.813L230.289 149.099L230.707 150.823L229.608 149.263L228.509 149.549L228.927 148.318L227.828 146.758L229.19 147.549L229.608 146.297L230.026 148.022L231.388 148.813Z" fill="#7D69FF"/>
<path d="M238.607 153.9L239.024 155.625L237.926 154.065L236.827 154.361L237.256 153.12L236.157 151.56L237.519 152.35L237.937 151.098L238.343 152.834L239.706 153.614L238.607 153.9Z" fill="#C8C5DD"/>
<path d="M235.552 151.208L234.443 151.494L234.86 153.219L233.761 151.669L232.663 151.955L233.091 150.713L231.992 149.164L233.355 149.944L233.772 148.703L234.19 150.428L235.552 151.208Z" fill="#7D69FF"/>
<path d="M243.87 156.009L242.76 156.295L243.178 158.02L242.079 156.47L240.98 156.756L241.409 155.514L240.31 153.965L241.673 154.745L242.09 153.504L242.508 155.229L243.87 156.009Z" fill="#C8C5DD"/>
<path d="M227.235 146.408L226.125 146.693L226.542 148.418L225.444 146.869L224.345 147.155L224.773 145.913L223.675 144.353L225.026 145.144L225.455 143.902L225.872 145.627L227.235 146.408Z" fill="#7D69FF"/>
<path d="M216.06 145.918V147.153L253.931 169.018V167.783L216.06 145.918ZM216.06 159.835V161.071L229.63 168.906L229.633 167.671L216.06 159.835ZM216.06 156.356V157.592L253.931 179.457V178.221L216.06 156.356ZM216.06 152.876V154.112L253.931 175.977V174.741L216.06 152.876ZM216.06 149.397V150.633L253.931 172.498V171.262L216.06 149.397Z" fill="#C8C5DD"/>
<path d="M201.57 80.0054C202.681 80.6466 203.575 82.1996 203.571 83.4758L203.554 89.5431L159.771 64.2646L159.788 58.1973C159.791 56.9211 160.695 56.406 161.805 57.0473L201.57 80.0054Z" fill="#D2CFE8"/>
<path d="M198.69 75.357C199.8 75.9982 200.695 77.5512 200.691 78.8274L200.674 84.8947L156.891 59.6162L156.908 53.5488C156.911 52.2726 157.815 51.7576 158.925 52.3989L198.69 75.357Z" fill="#5439FF"/>
<path d="M189.134 73.1302C189.784 73.5055 190.307 74.4147 190.305 75.1617C190.303 75.9087 189.776 76.2115 189.126 75.8362C188.476 75.4609 187.95 74.5504 187.953 73.8034C187.955 73.0564 188.484 72.7549 189.134 73.1302ZM193.147 75.447C193.797 75.8223 194.323 76.7329 194.32 77.4799C194.318 78.2266 193.789 78.5284 193.139 78.1531C192.489 77.7778 191.963 76.8672 191.966 76.1202C191.968 75.3732 192.497 75.0717 193.147 75.447ZM197.162 77.7652C197.812 78.1405 198.338 79.051 198.336 79.798C198.333 80.5448 197.804 80.8465 197.154 80.4712C196.504 80.0959 195.978 79.1854 195.981 78.4384C195.983 77.6914 196.512 77.3899 197.162 77.7652Z" fill="white"/>
<path d="M203.554 89.5422L203.359 158.298L159.575 133.019L159.771 64.2637L203.554 89.5422Z" fill="#E9E7F7"/>
<path d="M192.35 104.709C192.339 108.607 191.002 111.349 188.804 112.674C187.104 113.74 184.884 113.921 182.391 113.071C181.541 112.799 180.657 112.403 179.762 111.882C178.924 111.394 178.085 110.828 177.281 110.17C174.8 108.165 172.591 105.469 170.88 102.477C168.636 98.5687 167.265 94.2064 167.277 90.2408C167.299 82.276 172.919 79.0696 179.842 83.0687C186.764 87.0571 192.373 96.7557 192.35 104.709Z" fill="#C8C5DD"/>
<path d="M182.296 93.237C183.041 93.9341 183.454 98.1949 183.649 98.3078C183.716 98.2671 183.818 98.0144 183.926 97.6196C184.004 97.7483 184.086 97.9726 184.122 98.3625C184.192 99.1232 184.261 100.127 183.802 99.8624C183.741 99.8247 183.684 99.7797 183.633 99.7283C183.612 99.787 183.222 100.904 182.417 101.702C181.786 102.327 180.914 102.72 179.807 102.133C178.767 101.484 177.938 100.205 177.324 98.9295C176.455 97.1266 176.037 95.4204 176.015 95.3304C175.955 95.3196 175.898 95.2986 175.845 95.2683C175.387 95.0037 175.461 94.0823 175.528 93.4008C175.583 92.9004 175.735 92.8559 175.828 92.8802C175.88 93.1065 175.918 93.237 175.92 93.244C175.851 92.4176 176.159 91.4534 176.35 90.9494C176.405 90.8446 176.465 90.7472 176.531 90.6562C177.218 91.6123 177.952 92.2403 178.659 92.6482C180.58 93.7574 182.21 93.2631 182.296 93.237Z" fill="#BFB5FC"/>
<path d="M177.311 100.883L177.315 101.909C177.312 103.014 178.091 104.364 179.053 104.919L180.666 105.85C181.628 106.406 182.405 105.955 182.408 104.849L182.411 103.825L182.392 113.074C181.545 112.802 180.662 112.4 179.765 111.882C178.894 111.378 178.064 110.805 177.285 110.167L177.311 100.883Z" fill="#E9E7F7"/>
<path d="M182.417 101.702L182.411 103.825L182.408 104.85C182.405 105.955 181.628 106.406 180.666 105.851L179.053 104.919C178.091 104.364 177.312 103.015 177.315 101.91L177.318 100.885L177.324 98.9297C177.938 100.205 178.767 101.484 179.807 102.133C180.914 102.72 181.786 102.327 182.417 101.702Z" fill="#B9B0F4"/>
<path d="M176.531 90.6553C176.466 90.7462 176.405 90.8437 176.35 90.9485C176.432 90.7327 176.49 90.6081 176.493 90.6016L176.531 90.6553Z" fill="#EDEDED"/>
<path d="M179.892 87.8759C180.496 88.2249 181.109 88.7232 181.64 89.3944C182.144 90.0318 182.325 90.2544 182.339 90.2622C182.368 90.2789 181.677 89.3753 181.64 89.3278C181.729 89.3832 183.413 90.4346 184.058 92.8302C184.53 94.573 184.208 96.5854 183.926 97.6193C183.818 98.0142 183.716 98.2668 183.665 98.3069C183.453 98.1944 183.041 93.9338 182.296 93.2367C182.21 93.2628 180.58 93.7572 178.659 92.6479C177.952 92.24 177.218 91.612 176.531 90.656L176.492 90.602C176.489 90.6085 176.432 90.7334 176.35 90.9489C176.159 91.4529 175.851 92.4171 175.92 93.2435C175.886 93.123 175.856 93.0017 175.828 92.8797C175.65 92.0985 175.321 90.2553 175.931 89.3033C175.897 89.2617 175.252 88.4701 175.589 86.9336C175.599 86.9439 175.786 87.1388 176.068 87.3012C176.367 87.474 176.762 87.598 177.117 87.3741C177.568 87.0846 178.714 87.1962 179.892 87.8759Z" fill="#414143"/>
<path d="M177.298 100.875V110.17C174.794 108.156 172.578 105.479 170.88 102.486C171.082 101.278 171.369 100.242 171.743 100.184C172.406 100.069 174.938 100.213 177.298 100.875ZM188.809 112.674C187.111 113.739 184.895 113.912 182.392 113.077L182.421 103.84C184.78 105.883 187.313 108.673 187.975 109.566C188.32 110.027 188.608 111.293 188.809 112.674Z" fill="#3925B8"/>
<path d="M177.957 118.086L176.858 118.372L177.276 120.097L176.177 118.536L175.078 118.822L175.496 117.592L174.397 116.032L175.76 116.822L176.177 115.57L176.595 117.295L177.957 118.086Z" fill="#7D69FF"/>
<path d="M185.176 123.174L185.594 124.899L184.495 123.339L183.396 123.635L183.825 122.394L182.726 120.834L184.088 121.624L184.506 120.371L184.912 122.108L186.275 122.888L185.176 123.174ZM182.122 120.481L181.012 120.767L181.429 122.492L180.331 120.943L179.232 121.229L179.66 119.987L178.561 118.438L179.924 119.218L180.342 117.977L180.759 119.701L182.122 120.481ZM190.439 125.283L189.329 125.569L189.747 127.294L188.648 125.744L187.549 126.03L187.978 124.788L186.879 123.239L188.242 124.019L188.659 122.778L189.077 124.503L190.439 125.283Z" fill="#C8C5DD"/>
<path d="M173.804 115.681L172.694 115.967L173.111 117.692L172.013 116.142L170.914 116.428L171.342 115.187L170.244 113.626L171.595 114.417L172.024 113.176L172.441 114.901L173.804 115.681Z" fill="#7D69FF"/>
<path d="M162.629 115.191V116.426L200.501 138.292V137.057L162.629 115.191ZM162.629 129.108V130.344L176.199 138.179L176.202 136.945L162.629 129.108ZM162.629 125.629V126.866L200.501 148.731V147.494L162.629 125.629ZM162.629 122.149V123.385L200.501 145.251V144.014L162.629 122.149ZM162.629 118.67V119.907L200.501 141.772V140.535L162.629 118.67ZM355.578 199.502C355.565 203.905 353.856 206.857 351.137 207.932C348.935 208.825 346.087 208.476 342.967 206.676C339.872 204.889 337.037 201.963 334.848 198.531C332.155 194.337 330.446 189.403 330.459 184.988C330.485 177.025 336.117 173.801 343.057 177.802C349.997 181.815 355.604 191.526 355.578 199.502Z" fill="#C8C5DD"/>
<path d="M343.054 180.755C346.221 182.583 348.769 189.087 348.751 195.28C348.746 197.113 348.517 198.713 348.115 200.011C347.307 198.993 346.383 198.118 345.383 197.484L345.365 195.157C345.938 194.868 346.438 194.276 346.646 193.152C346.807 193.245 347.51 193.605 347.55 192.684C347.593 191.688 347.595 191.284 347.19 190.854C347.236 190.346 347.263 189.825 347.27 189.296C347.28 188.57 347.257 187.824 347.11 187.035C346.964 186.246 346.684 185.4 346.231 184.624C345.539 183.435 344.531 182.549 343.565 181.829C343.24 181.588 342.909 181.353 342.581 181.164C342.325 181.016 342.07 180.896 341.82 180.822C340.836 180.53 340.056 180.993 339.59 181.751C339.125 182.52 338.923 183.573 338.729 184.604C338.67 184.903 338.62 185.225 338.743 185.601C338.684 185.777 338.621 185.866 338.56 185.857C338.121 185.794 338.12 186.193 338.159 187.262C338.193 188.226 338.896 188.678 339.034 188.757C339.314 190.472 340.024 191.868 340.763 192.916L340.655 194.735C339.625 194.219 338.703 194.027 337.895 194.109C337.5 192.352 337.28 190.492 337.285 188.66C337.303 182.467 339.888 178.927 343.054 180.755Z" fill="#414143"/>
<path d="M345.365 195.155L345.359 197.448L343.156 203.446L342.817 203.251L340.661 194.755L340.763 192.914C341.082 193.366 341.434 193.794 341.816 194.195C342.146 194.542 342.493 194.821 342.84 195.022C343.187 195.222 343.535 195.344 343.866 195.378C344.328 195.43 344.874 195.403 345.365 195.155Z" fill="#A89EE8"/>
<path d="M340.655 194.734L340.661 194.757L342.817 203.252L339.568 198.256L340.498 197.394L338.319 195.175L340.629 194.74L340.655 194.734ZM345.359 197.45L345.383 197.483L347.685 200.582L345.5 200.281L346.43 202.217L343.156 203.448L345.353 197.466L345.359 197.45Z" fill="#E9E7F7"/>
<path d="M345.383 197.483C346.383 198.117 347.307 198.992 348.115 200.01C349.924 202.283 351.141 205.25 351.133 207.843L351.133 207.929C348.936 208.83 346.089 208.48 342.972 206.68C339.872 204.891 337.032 201.957 334.848 198.536L334.848 198.441C334.856 195.847 336.085 194.293 337.891 194.108C338.703 194.026 339.626 194.217 340.629 194.738L338.319 195.173L340.498 197.392L339.568 198.254L342.817 203.251L343.156 203.446L346.43 202.216L345.5 200.28L347.685 200.581L345.383 197.483Z" fill="#AC9FFF"/>
<path d="M347.076 191.809C347.074 191.839 347.069 191.868 347.064 191.897C347.068 191.867 347.072 191.838 347.076 191.809Z" fill="#48426F"/>
<path d="M347.11 187.036C347.257 187.825 347.28 188.571 347.27 189.297C347.264 189.817 347.237 190.337 347.19 190.855C347.16 191.179 347.122 191.498 347.076 191.811C347.12 191.32 346.761 190.633 346.365 190.135C345.944 189.607 345.448 189.178 345.053 188.626C344.525 187.893 344.196 186.961 344.215 186.23C343.799 186.818 343.152 187.129 342.399 187.094C342.664 186.905 342.79 186.492 342.725 185.997C342.128 186.148 341.532 186.298 340.935 186.449C341.159 186.179 341.26 185.752 341.204 185.243C341.092 185.444 340.946 185.624 340.772 185.774C340.481 186.034 340.116 186.185 339.719 186.241C339.561 186.259 339.396 186.332 339.21 186.225C339.2 186.219 339.19 186.213 339.181 186.206C339.005 186.086 338.837 185.855 338.752 185.625C338.62 185.226 338.671 184.903 338.73 184.604C338.923 183.574 339.125 182.52 339.591 181.752C340.057 180.994 340.836 180.531 341.821 180.823C342.071 180.897 342.325 181.017 342.581 181.165C342.91 181.354 343.24 181.589 343.565 181.83C344.532 182.55 345.539 183.436 346.232 184.625C346.685 185.401 346.964 186.247 347.11 187.036Z" fill="#414143"/>
<path d="M344.215 186.229C344.196 186.961 344.524 187.892 345.053 188.626C345.448 189.177 345.944 189.606 346.365 190.135C346.761 190.633 347.12 191.32 347.076 191.811C347.072 191.84 347.068 191.869 347.064 191.899C347.069 191.87 347.074 191.841 347.076 191.811C347.122 191.498 347.16 191.178 347.19 190.854C347.595 191.284 347.593 191.688 347.55 192.684C347.51 193.605 346.807 193.245 346.67 193.166C346.438 194.276 345.938 194.868 345.365 195.157C344.874 195.406 344.328 195.433 343.866 195.381C343.535 195.347 343.187 195.225 342.84 195.024C342.493 194.824 342.146 194.545 341.816 194.197C341.434 193.797 341.082 193.369 340.763 192.916C340.024 191.868 339.314 190.472 339.057 188.77C338.896 188.678 338.194 188.226 338.159 187.262C338.121 186.193 338.122 185.794 338.56 185.857C338.622 185.866 338.684 185.778 338.752 185.625C338.837 185.855 339.005 186.085 339.181 186.205C339.19 186.212 339.2 186.218 339.21 186.224C339.396 186.331 339.561 186.258 339.718 186.24C340.116 186.184 340.481 186.034 340.772 185.773C340.946 185.623 341.092 185.443 341.203 185.242C341.26 185.751 341.159 186.178 340.935 186.448L342.725 185.997C342.79 186.491 342.664 186.904 342.399 187.093C343.152 187.129 343.799 186.817 344.215 186.229Z" fill="#BFB5FC"/>
<path d="M347.076 191.809C347.074 191.839 347.069 191.868 347.064 191.897C347.068 191.867 347.072 191.838 347.076 191.809Z" fill="#48426F"/>
<path d="M314.911 303.464L323.91 308.694L358.028 288.995L349.029 283.766L314.911 303.464Z" fill="#494756"/>
<path d="M349.698 292.061L343.457 288.434L343.377 260.176L349.618 263.803L349.698 292.061Z" fill="#6B54FD"/>
<path d="M349.618 263.801L343.377 260.175L349.132 256.852L355.373 260.479L349.618 263.801Z" fill="#806CFF"/>
<path d="M355.373 260.48L355.453 288.739L349.698 292.062L349.618 263.803L355.373 260.48Z" fill="#543DEA"/>
<path d="M341.082 297.033L334.841 293.406L334.781 272.371L341.022 275.998L341.082 297.033Z" fill="#A293FF"/>
<path d="M341.022 275.998L334.781 272.371L340.526 269.055L346.766 272.681L341.022 275.998Z" fill="#BBB0FF"/>
<path d="M346.766 272.684L346.826 293.719L341.082 297.035L341.022 276L346.766 272.684Z" fill="#9585FD"/>
<path d="M332.466 302.009L326.225 298.383L326.186 284.559L332.427 288.186L332.466 302.009Z" fill="#7D69FF"/>
<path d="M332.427 288.185L326.186 284.558L331.93 281.242L338.171 284.869L332.427 288.185Z" fill="#9888FF"/>
<path d="M338.171 284.867L338.21 298.691L332.466 302.007L332.427 288.183L338.171 284.867Z" fill="#7D69FF"/>
<path d="M323.839 306.989L317.598 303.362L317.579 296.762L323.82 300.388L323.839 306.989Z" fill="#897CDF"/>
<path d="M323.82 300.391L317.579 296.764L323.334 293.441L329.575 297.068L323.82 300.391Z" fill="#A094ED"/>
<path d="M329.575 297.066L329.594 303.667L323.839 306.989L323.82 300.389L329.575 297.066Z" fill="#8175D1"/>
<path d="M104.76 283.813L104.747 286.707V288.062L101.919 286.433L100.394 285.547L100.12 285.39C99.664 285.13 99.4293 284.778 99.4293 284.426L99.4424 280.164C99.4424 280.438 99.5727 280.698 99.8334 280.92C99.9117 280.998 100.016 281.076 100.133 281.141L104.76 283.813Z" fill="#8D7BFF"/>
<path d="M110.806 287.302L110.794 291.552L98.9019 290.375L98.9138 286.125L110.806 287.302Z" fill="#7A65FF"/>
<path d="M143.328 285.23L143.316 289.48C143.316 289.836 143.091 290.172 142.636 290.446L127.488 299.245C126.566 299.781 125.058 299.787 124.117 299.245L110.795 291.555L110.807 287.306L124.129 294.995C125.07 295.537 126.566 295.531 127.488 295.001C127.488 294.995 127.494 294.995 127.494 294.995L142.648 286.196C143.091 285.922 143.328 285.586 143.328 285.23Z" fill="#8D7BFF"/>
<path d="M142.648 286.198L127.49 294.996C126.565 295.53 125.066 295.543 124.128 294.996L110.808 287.306L104.747 286.707L101.919 286.433L98.908 286.134L100.394 285.547L104.76 283.813L100.133 281.141C100.024 281.082 99.9228 281.007 99.8334 280.92C99.5726 280.698 99.4423 280.438 99.4423 280.164C99.4423 279.825 99.664 279.46 100.133 279.199L115.278 270.402C116.203 269.868 117.702 269.854 118.628 270.402L142.622 284.243C143.561 284.79 143.561 285.664 142.648 286.198Z" fill="#AC9FFF"/>
<path d="M116.981 277.215C118.314 277.984 118.322 279.252 116.978 280.033C115.653 280.803 113.464 280.803 112.131 280.033C110.779 279.252 110.771 277.985 112.096 277.215C113.44 276.434 115.629 276.434 116.981 277.215ZM124.037 281.292C125.37 282.062 125.377 283.329 124.034 284.11C122.709 284.88 120.52 284.88 119.187 284.111C117.834 283.33 117.827 282.062 119.152 281.292C120.496 280.511 122.684 280.511 124.037 281.292ZM131.093 285.37C132.426 286.139 132.433 287.407 131.09 288.188C129.765 288.958 127.576 288.958 126.243 288.188C124.89 287.407 124.883 286.14 126.208 285.37C127.552 284.588 129.74 284.589 131.093 285.37Z" fill="#E9E7F7"/>
<path d="M200.151 316.912L200.138 321.161C200.125 321.722 199.76 322.282 199.017 322.712L183.129 331.953C181.643 332.813 179.219 332.813 177.72 331.953L161.728 322.712C160.972 322.282 160.594 321.709 160.607 321.135V316.887C160.607 317.46 160.985 318.034 161.741 318.464L177.733 327.704C179.232 328.565 181.656 328.565 183.142 327.704L199.03 318.464C199.773 318.034 200.138 317.473 200.151 316.912Z" fill="#2813AB"/>
<path d="M199.031 318.463L185.385 326.401L183.143 327.704C181.657 328.564 179.233 328.564 177.734 327.704L161.742 318.463C160.556 317.785 160.295 316.755 160.999 315.934C161.168 315.713 161.416 315.518 161.729 315.335L177.617 306.095C179.103 305.234 181.527 305.234 183.026 306.095L199.018 315.335C200.517 316.195 200.517 317.603 199.031 318.463Z" fill="#CAC2FF"/>
<path d="M187.288 321.161L185.385 326.402L183.143 327.705C181.657 328.565 179.233 328.565 177.734 327.705L161.742 318.464C160.556 317.786 160.295 316.756 160.999 315.935L178.738 313.746L175.531 322.621L187.288 321.161Z" fill="#7764F0"/>
<path d="M187.083 314.252C188.235 314.918 188.242 316.013 187.08 316.688C185.935 317.354 184.044 317.353 182.891 316.688C181.722 316.013 181.716 314.918 182.861 314.252C184.023 313.577 185.914 313.577 187.083 314.252Z" fill="#5439FF"/>
<path d="M84.9031 120.802L85.0448 177.654L121.807 157.806L121.665 100.953L84.9031 120.802Z" fill="#3925B8"/>
<path d="M121.116 153.331L121.011 102.461L85.8085 122.786V153.331H121.116Z" fill="#DFDCF1"/>
<path d="M121.694 153.329L121.59 102.797L85.8085 123.456V153.329H121.694Z" fill="#D2CFE8"/>
<path d="M122.272 153.331L122.169 103.137L85.8085 124.13V153.331H122.272Z" fill="#DFDCF1"/>
<path d="M122.85 153.332L122.748 103.477L85.8085 124.804V153.332H122.85Z" fill="#D2CFE8"/>
<path d="M123.428 153.33L123.327 103.812L85.8085 125.473V153.33H123.428Z" fill="#DFDCF1"/>
<path d="M124.006 153.331L123.905 104.152L85.8085 126.147V153.331H124.006Z" fill="#D2CFE8"/>
<path d="M124.584 153.329L124.484 104.488L86.3019 126.532L86.3491 153.329H124.584Z" fill="#DFDCF1"/>
<path d="M125.162 153.331L125.063 104.828L86.8809 126.873L86.9272 153.331H125.162Z" fill="#D2CFE8"/>
<path d="M125.739 153.329L125.642 105.164L87.4595 127.209L87.5051 153.329H125.739Z" fill="#DFDCF1"/>
<path d="M126.317 153.33L126.22 105.504L88.0385 127.549L88.0832 153.33H126.317Z" fill="#DFDCF1"/>
<path d="M93.0251 126.12L93.1669 182.973L128.028 161.423L127.886 104.57L93.0251 126.12Z" fill="#3925B8"/>
<path d="M83.8563 120.793L83.9978 177.646L93.1668 182.974L93.0251 126.121L83.8563 120.793Z" fill="#4B37C7"/>
<path d="M85.144 155.242L85.0072 122.789L91.8796 126.782L92.0162 159.235L85.144 155.242Z" fill="#E9E7F7"/>
<path d="M83.8563 120.79L93.0251 126.119L127.886 104.569L127.374 104.272L92.9873 125.5L84.903 120.802L121.665 100.954L121.154 100.656L83.8563 120.79Z" fill="#7764F0"/>
<path d="M96.2006 127.369L96.3421 184.221L133.123 164.384L132.982 107.531L96.2006 127.369Z" fill="#7D69FF"/>
<path d="M132.231 159.871L132.127 109L96.9243 129.325V159.871H132.231Z" fill="#DFDCF1"/>
<path d="M132.809 159.872L132.706 109.34L96.9243 129.999V159.872H132.809Z" fill="#D2CFE8"/>
<path d="M133.387 159.874L133.285 109.68L96.9243 130.673V159.874H133.387Z" fill="#DFDCF1"/>
<path d="M133.965 159.871L133.863 110.016L96.9243 131.342V159.871H133.965Z" fill="#D2CFE8"/>
<path d="M134.543 159.873L134.442 110.355L96.9243 132.016V159.873H134.543Z" fill="#DFDCF1"/>
<path d="M135.121 159.874L135.021 110.695L96.9243 132.69V159.874H135.121Z" fill="#D2CFE8"/>
<path d="M135.699 159.872L135.6 111.031L97.4176 133.075L97.4649 159.872H135.699Z" fill="#DFDCF1"/>
<path d="M136.277 159.874L136.179 111.371L97.9965 133.416L98.0428 159.874H136.277Z" fill="#D2CFE8"/>
<path d="M136.855 159.872L136.757 111.707L98.5752 133.752L98.6209 159.872H136.855Z" fill="#DFDCF1"/>
<path d="M137.433 159.874L137.336 112.047L99.1542 134.092L99.199 159.874H137.433Z" fill="#DFDCF1"/>
<path d="M104.322 132.682L104.463 189.535L139.345 167.998L139.204 111.145L104.322 132.682Z" fill="#6850FF"/>
<path d="M95.1536 127.355L95.2953 184.208L104.463 189.536L104.321 132.683L95.1536 127.355Z" fill="#7D69FF"/>
<path d="M96.4395 161.805L96.3049 129.352L103.177 133.343L103.312 165.797L96.4395 161.805Z" fill="#E9E7F7"/>
<path d="M95.1536 127.357L104.321 132.685L139.204 111.147L138.692 110.849L104.305 132.078L96.2005 127.369L132.982 107.531L132.471 107.234L95.1536 127.357Z" fill="#9888FF"/>
<path d="M107.518 133.943L107.659 190.796L144.441 170.958L144.299 114.105L107.518 133.943Z" fill="#543DEA"/>
<path d="M143.549 166.48L143.444 115.609L108.241 135.935V166.48H143.549Z" fill="#DFDCF1"/>
<path d="M144.127 166.478L144.023 115.945L108.241 136.605V166.478H144.127Z" fill="#D2CFE8"/>
<path d="M144.705 166.479L144.602 116.285L108.241 137.278V166.479H144.705Z" fill="#DFDCF1"/>
<path d="M145.283 166.481L145.181 116.625L108.241 137.952V166.481H145.283Z" fill="#D2CFE8"/>
<path d="M145.861 166.478L145.76 116.961L108.241 138.622V166.478H145.861Z" fill="#DFDCF1"/>
<path d="M146.439 166.48L146.338 117.301L108.241 139.296V166.48H146.439Z" fill="#D2CFE8"/>
<path d="M147.017 166.481L146.917 117.641L108.735 139.685L108.782 166.481H147.017Z" fill="#DFDCF1"/>
<path d="M147.595 166.48L147.496 117.977L109.314 140.022L109.36 166.48H147.595Z" fill="#D2CFE8"/>
<path d="M148.172 166.477L148.075 118.312L109.892 140.358L109.938 166.477H148.172Z" fill="#DFDCF1"/>
<path d="M148.75 166.479L148.653 118.652L110.471 140.698L110.516 166.479H148.75Z" fill="#DFDCF1"/>
<path d="M115.639 139.26L115.78 196.113L150.663 174.575L150.521 117.723L115.639 139.26Z" fill="#543DEA"/>
<path d="M106.471 133.934L106.613 190.786L115.78 196.114L115.639 139.261L106.471 133.934Z" fill="#6B54FD"/>
<path d="M107.757 168.383L107.623 135.93L114.493 139.922L114.629 172.375L107.757 168.383Z" fill="#E9E7F7"/>
<path d="M106.471 133.935L115.639 139.263L150.521 117.725L150.009 117.428L115.622 138.656L107.518 133.947L144.299 114.109L143.788 113.812L106.471 133.935Z" fill="#806CFF"/>
<path d="M111.118 178.08C112.815 179.059 114.19 181.441 114.184 183.39C114.179 185.347 112.794 186.136 111.098 185.156C109.395 184.173 108.02 181.791 108.025 179.834C108.031 177.885 109.415 177.096 111.118 178.08Z" fill="#898989"/>
<path d="M111.118 178.08C112.815 179.059 114.19 181.441 114.184 183.39C114.179 185.347 112.794 186.136 111.098 185.156C109.395 184.173 108.02 181.791 108.025 179.834C108.031 177.885 109.415 177.096 111.118 178.08Z" fill="#494756"/>
<path d="M112.475 185.05C112.143 185.05 111.758 184.929 111.362 184.7C109.834 183.818 108.548 181.591 108.553 179.836C108.556 178.801 108.997 178.184 109.734 178.184C110.067 178.184 110.456 178.306 110.855 178.536C112.379 179.416 113.662 181.638 113.657 183.389C113.654 184.429 113.212 185.05 112.475 185.05Z" fill="#806CFF"/>
<path d="M99.8217 171.622C101.518 172.602 102.893 174.984 102.888 176.933C102.882 178.889 101.498 179.679 99.8017 178.699C98.0987 177.716 96.7233 175.334 96.7289 173.377C96.7345 171.428 98.1187 170.639 99.8217 171.622Z" fill="#898989"/>
<path d="M99.8217 171.622C101.518 172.602 102.893 174.984 102.888 176.933C102.882 178.889 101.498 179.679 99.8017 178.699C98.0987 177.716 96.7233 175.334 96.7289 173.377C96.7345 171.428 98.1187 170.639 99.8217 171.622Z" fill="#494756"/>
<path d="M101.178 178.593C100.847 178.593 100.461 178.472 100.065 178.243C98.5374 177.361 97.2513 175.134 97.2565 173.379C97.2596 172.344 97.7002 171.727 98.4375 171.727C98.771 171.727 99.1593 171.849 99.5587 172.079C101.082 172.959 102.365 175.181 102.361 176.932C102.358 177.972 101.915 178.593 101.178 178.593Z" fill="#9888FF"/>
<path d="M88.5251 165.165C90.2214 166.145 91.5968 168.527 91.5912 170.476C91.5856 172.433 90.2014 173.222 88.5051 172.242C86.8021 171.259 85.4266 168.877 85.4323 166.92C85.4379 164.971 86.8221 164.182 88.5251 165.165Z" fill="#898989"/>
<path d="M88.5251 165.165C90.2214 166.145 91.5968 168.527 91.5912 170.476C91.5856 172.433 90.2014 173.222 88.5051 172.242C86.8021 171.259 85.4266 168.877 85.4323 166.92C85.4379 164.971 86.8221 164.182 88.5251 165.165Z" fill="#494756"/>
<path d="M89.8815 172.136C89.5498 172.136 89.1649 172.015 88.7684 171.786C87.2407 170.904 85.9546 168.676 85.9597 166.922C85.9629 165.887 86.4034 165.27 87.1408 165.27C87.4744 165.27 87.8626 165.391 88.2619 165.622C89.7856 166.502 91.0686 168.724 91.0643 170.475C91.0614 171.515 90.6186 172.136 89.8815 172.136Z" fill="#7764F0"/>
<path d="M119.718 159.49C119.39 159.68 119.128 160.138 119.129 160.52C119.13 160.893 119.394 161.048 119.722 160.858L125.322 157.625C125.65 157.435 125.916 156.975 125.915 156.602C125.914 156.22 125.646 156.068 125.318 156.257L119.718 159.49Z" fill="#C8C5DD"/>
<path d="M125.317 155.998C125.769 155.738 126.139 155.949 126.141 156.473C126.142 156.992 125.774 157.63 125.322 157.89L119.723 161.123C119.267 161.386 118.901 161.173 118.899 160.654C118.898 160.13 119.262 159.495 119.718 159.232L125.317 155.998ZM119.722 160.859L125.322 157.626C125.65 157.436 125.916 156.976 125.915 156.603C125.914 156.221 125.646 156.068 125.318 156.258L119.718 159.491C119.39 159.681 119.128 160.139 119.129 160.521C119.13 160.893 119.394 161.048 119.722 160.859Z" fill="#494756"/>
<path d="M119.761 174.713C119.433 174.902 119.171 175.361 119.172 175.743C119.173 176.115 119.437 176.27 119.765 176.081L125.365 172.848C125.693 172.658 125.959 172.197 125.958 171.825C125.957 171.443 125.689 171.29 125.361 171.48L119.761 174.713Z" fill="#C8C5DD"/>
<path d="M125.36 171.221C125.812 170.96 126.182 171.172 126.184 171.695C126.186 172.214 125.817 172.852 125.366 173.113L119.766 176.346C119.31 176.609 118.944 176.395 118.942 175.876C118.941 175.353 119.305 174.717 119.761 174.454L125.36 171.221ZM119.765 176.081L125.365 172.848C125.693 172.659 125.959 172.198 125.958 171.826C125.957 171.444 125.689 171.291 125.361 171.481L119.761 174.714C119.433 174.903 119.171 175.362 119.172 175.744C119.173 176.116 119.437 176.271 119.765 176.081Z" fill="#494756"/>
<path d="M105.18 205.757L105.17 209.151C105.159 209.599 104.868 210.046 104.274 210.39L91.5856 217.77C90.3989 218.457 88.4628 218.457 87.2658 217.77L69.3194 207.325C68.7157 206.981 68.4137 206.523 68.4241 206.065V202.672C68.4241 203.129 68.726 203.588 69.3297 203.931L87.2762 214.376C88.4732 215.064 90.4093 215.064 91.5959 214.376L104.285 206.996C104.878 206.653 105.17 206.205 105.18 205.757Z" fill="#3925B8"/>
<path d="M104.274 204.497C105.47 205.188 105.476 206.308 104.288 206.999L91.5975 214.373C90.4088 215.064 88.4747 215.064 87.2784 214.373L69.3306 203.934C68.1342 203.243 68.1279 202.123 69.3166 201.432L82.0071 194.057C83.1957 193.366 85.1298 193.366 86.3262 194.057L104.274 204.497Z" fill="#4B37C7"/>
<path d="M99.9497 204.094L86.9726 196.603C85.2757 195.622 82.5219 195.622 80.8344 196.602L74.054 200.544C72.3665 201.523 72.3778 203.118 74.0747 204.098L87.0518 211.59C88.7488 212.571 91.5025 212.571 93.19 211.59L99.9704 207.65C101.658 206.67 101.647 205.075 99.9497 204.094ZM75.3912 201.316L82.1716 197.374C82.469 197.2 82.827 197.082 83.2057 197.018L84.3622 202.38L74.7866 201.898C74.8996 201.683 75.1012 201.483 75.3912 201.316ZM88.3795 210.82L75.4024 203.327C75.231 203.227 75.0897 203.118 74.9806 203.001L84.6634 203.489C84.8988 203.966 85.3396 204.389 85.9273 204.728C86.69 205.167 87.6996 205.465 88.8316 205.544L88.8993 205.55L89.0406 211.093C88.81 211.029 88.588 210.937 88.3795 210.82ZM89.0539 204.461C88.3532 204.412 87.7259 204.229 87.2532 203.956C86.7823 203.683 86.4621 203.321 86.3755 202.915L85.1305 197.146C85.315 197.208 85.4883 197.283 85.6467 197.374L98.622 204.866C98.7802 204.956 98.912 205.056 99.0175 205.164L89.0539 204.461ZM98.635 206.879L91.8526 210.82C91.5833 210.976 91.2649 211.089 90.9261 211.157L90.7886 205.681L99.2473 206.279C99.1361 206.499 98.9327 206.706 98.635 206.879Z" fill="#E9E7F7"/>
<path d="M265.061 321.614L265.085 330.316C265.076 326.991 267.266 323.661 271.65 321.13C280.361 316.101 294.486 316.099 303.145 321.131C307.443 323.628 309.594 326.904 309.603 330.185L309.578 321.483C309.569 318.202 307.418 314.927 303.12 312.429C294.462 307.397 280.336 307.4 271.625 312.429C267.242 314.96 265.051 318.289 265.061 321.614Z" fill="#C8C5DD"/>
<path opacity="0.5" d="M271.631 316.726C280.339 311.695 294.459 311.695 303.117 316.726C311.775 321.757 311.724 329.933 303.016 334.964C294.307 339.995 280.179 339.995 271.521 334.964C262.863 329.933 262.914 321.757 271.631 316.726Z" fill="#9585FD"/>
<path d="M261.922 321.619L261.943 328.765C261.953 332.51 264.409 336.25 269.316 339.101C279.189 344.839 295.311 344.839 305.249 339.101C310.251 336.213 312.749 332.415 312.738 328.622L312.718 321.477C312.729 325.269 310.231 329.068 305.229 331.956C295.291 337.693 279.169 337.693 269.296 331.956C264.389 329.104 261.933 325.364 261.922 321.619Z" fill="#C8C5DD"/>
<path d="M305.346 311.142C315.219 316.879 315.17 326.216 305.229 331.955C295.291 337.693 279.169 337.693 269.296 331.955C259.42 326.215 259.472 316.877 269.41 311.14C279.351 305.4 295.47 305.402 305.346 311.142ZM303.013 330.668C311.724 325.639 311.774 317.457 303.12 312.427C294.462 307.396 280.336 307.398 271.625 312.427C262.915 317.456 262.864 325.638 271.523 330.67C280.177 335.699 294.302 335.697 303.013 330.668Z" fill="#E9E7F7"/>
<path d="M259.539 335.595C259.863 335.405 260.309 335.433 260.802 335.717C261.778 336.281 262.567 337.644 262.563 338.769C262.559 339.326 262.366 339.716 262.046 339.902L267.889 336.506C268.209 336.321 268.402 335.93 268.407 335.373C268.411 334.248 267.621 332.886 266.646 332.321C266.152 332.037 265.706 332.01 265.382 332.199L259.539 335.595Z" fill="#636173"/>
<path d="M260.801 335.716C259.823 335.152 259.029 335.601 259.026 336.725C259.022 337.846 259.811 339.213 260.789 339.777C261.765 340.341 262.559 339.888 262.562 338.767C262.566 337.643 261.777 336.28 260.801 335.716Z" fill="#C8C5DD"/>
<path d="M230.445 350.055C231.015 349.722 231.799 349.77 232.667 350.27C234.382 351.263 235.771 353.658 235.764 355.637C235.757 356.616 235.417 357.304 234.855 357.63L263.063 341.393C263.626 341.067 263.966 340.38 263.973 339.401C263.98 337.422 262.591 335.026 260.876 334.033C260.009 333.533 259.224 333.485 258.655 333.818L230.445 350.055Z" fill="#6B54FD"/>
<path d="M232.665 350.272C230.945 349.279 229.549 350.07 229.543 352.046C229.537 354.018 230.925 356.421 232.645 357.414C234.36 358.404 235.757 357.609 235.763 355.637C235.768 353.661 234.381 351.263 232.665 350.272Z" fill="#4229E2"/>
</svg>
