<svg width="100" height="100" viewBox="0 0 100 100" fill="none" xmlns="http://www.w3.org/2000/svg">
<path d="M81.734 81.8096L82.0265 78.6378C82.2195 76.5847 81.6319 74.5338 80.3737 72.8689C79.1154 71.204 77.2726 70.0391 75.19 69.5919L64.5095 67.2993V51.0675C64.3895 49.6688 63.7429 48.3611 62.6922 47.3922C61.6415 46.4232 60.2595 45.8601 58.8081 45.8096C57.3922 45.8436 56.0468 46.4139 55.0619 47.3974C54.0769 48.3809 53.5313 49.6989 53.5424 51.0675V77.0746L49.2305 73.9566C48.367 73.3334 47.3001 73.0315 46.2251 73.1063C45.1502 73.1811 44.139 73.6274 43.3767 74.3637C42.6145 75.0999 42.1521 76.0768 42.0742 77.1156C41.9964 78.1543 42.3082 79.1854 42.9527 80.0202L44.3422 81.8096" stroke="black" stroke-width="3" stroke-linecap="round" stroke-linejoin="round"/>
<path d="M50.0625 25.3096C50.0625 27.2987 50.9054 29.2063 52.4056 30.6129C53.9059 32.0194 55.9408 32.8096 58.0625 32.8096C60.1842 32.8096 62.2191 32.0194 63.7194 30.6129C65.2196 29.2063 66.0625 27.2987 66.0625 25.3096C66.0625 23.3204 65.2196 21.4128 63.7194 20.0063C62.2191 18.5997 60.1842 17.8096 58.0625 17.8096C55.9408 17.8096 53.9059 18.5997 52.4056 20.0063C50.9054 21.4128 50.0625 23.3204 50.0625 25.3096Z" stroke="#00CCF5" stroke-width="3" stroke-linecap="round" stroke-linejoin="round"/>
<path d="M69.0625 41.8096C67.9992 39.6951 66.4141 37.9268 64.4765 36.6938C62.539 35.4609 60.322 34.8096 58.0625 34.8096C55.803 34.8096 53.586 35.4609 51.6485 36.6938C49.7109 37.9268 48.1258 39.6951 47.0625 41.8096" stroke="#00CCF5" stroke-width="3" stroke-linecap="round" stroke-linejoin="round"/>
<path d="M20.0625 51.3096C20.0625 53.2987 20.8527 55.2063 22.2592 56.6129C23.6657 58.0194 25.5734 58.8096 27.5625 58.8096C29.5516 58.8096 31.4593 58.0194 32.8658 56.6129C34.2723 55.2063 35.0625 53.2987 35.0625 51.3096C35.0625 49.3204 34.2723 47.4128 32.8658 46.0063C31.4593 44.5997 29.5516 43.8096 27.5625 43.8096C25.5734 43.8096 23.6657 44.5997 22.2592 46.0063C20.8527 47.4128 20.0625 49.3204 20.0625 51.3096Z" stroke="black" stroke-width="3" stroke-linecap="round" stroke-linejoin="round"/>
<path d="M39.0625 66.8096C37.9992 64.9971 36.4141 63.4815 34.4765 62.4247C32.539 61.3678 30.322 60.8096 28.0625 60.8096C25.803 60.8096 23.586 61.3678 21.6485 62.4247C19.7109 63.4815 18.1258 64.9971 17.0625 66.8096" stroke="black" stroke-width="3" stroke-linecap="round" stroke-linejoin="round"/>
<path d="M43.0625 28.8096H39.0625" stroke="#00CCF5" stroke-width="3" stroke-linecap="round" stroke-linejoin="round"/>
<path d="M43.0625 19.8096L39.0625 17.8096" stroke="#00CCF5" stroke-width="3" stroke-linecap="round" stroke-linejoin="round"/>
<path d="M73.0625 28.8096H77.0625" stroke="#00CCF5" stroke-width="3" stroke-linecap="round" stroke-linejoin="round"/>
<path d="M73.0625 19.8096L77.0625 17.8096" stroke="#00CCF5" stroke-width="3" stroke-linecap="round" stroke-linejoin="round"/>
</svg>
