<svg width="100" height="100" viewBox="0 0 100 100" fill="none" xmlns="http://www.w3.org/2000/svg">
<path d="M77.812 42.4685C77.5447 43.4488 77.0012 44.3316 76.2462 45.012L73.4226 47.5613C72.871 48.0589 72.43 48.6668 72.1281 49.3455C71.8263 50.0242 71.6703 50.7586 71.6703 51.5014C71.6703 52.2441 71.8263 52.9786 72.1281 53.6573C72.43 54.336 72.871 54.9438 73.4226 55.4415L76.2462 57.9907C77.0609 58.7251 77.628 59.6937 77.8696 60.7633C78.1112 61.8329 78.0155 62.951 77.5955 63.964C77.1755 64.977 76.4519 65.8351 75.5242 66.4204C74.5965 67.0057 73.5102 67.2895 72.4146 67.2327L68.6149 67.0381C67.873 67.0006 67.1315 67.1191 66.4383 67.3858C65.7451 67.6526 65.1157 68.0618 64.5906 68.5869C64.0654 69.112 63.6564 69.7414 63.3899 70.4344C63.1233 71.1274 63.0052 71.8685 63.0431 72.61L63.2377 76.4078C63.2966 77.504 63.014 78.5915 62.4288 79.5204C61.8435 80.4494 60.9845 81.1741 59.9701 81.5948C58.9556 82.0155 57.8355 82.1114 56.7642 81.8694C55.693 81.6273 54.7231 81.0592 53.9883 80.2433L51.4377 77.4211C50.9398 76.8698 50.3317 76.429 49.6526 76.1273C48.9736 75.8256 48.2388 75.6697 47.4956 75.6697C46.7525 75.6697 46.0177 75.8256 45.3387 76.1273C44.6596 76.429 44.0515 76.8698 43.5536 77.4211L41.003 80.2433C40.2679 81.0581 39.2983 81.6252 38.2276 81.8665C37.1568 82.1079 36.0376 82.0117 35.0238 81.5912C34.01 81.1706 33.1515 80.4464 32.5664 79.5182C31.9813 78.59 31.6983 77.5033 31.7565 76.4078L31.9598 72.61C31.9978 71.8683 31.8796 71.1268 31.6128 70.4336C31.3461 69.7405 30.9368 69.1109 30.4114 68.5858C29.886 68.0606 29.2561 67.6515 28.5626 67.3849C27.869 67.1183 27.1272 67.0002 26.3851 67.0381L22.5854 67.2327C21.4898 67.2895 20.4035 67.0057 19.4758 66.4204C18.5481 65.8351 17.8245 64.977 17.4045 63.964C16.9845 62.951 16.8888 61.8329 17.1304 60.7633C17.372 59.6937 17.9391 58.7251 18.7538 57.9907L21.5774 55.4415C22.129 54.9438 22.57 54.336 22.8719 53.6573C23.1737 52.9786 23.3297 52.2441 23.3297 51.5014C23.3297 50.7586 23.1737 50.0242 22.8719 49.3455C22.57 48.6668 22.129 48.0589 21.5774 47.5613L18.7538 45.012C17.9398 44.2781 17.3731 43.3104 17.1313 42.2417C16.8895 41.173 16.9846 40.0557 17.4034 39.0431C17.8223 38.0306 18.5444 37.1724 19.4706 36.5864C20.3969 36.0004 21.4819 35.7152 22.5767 35.7701L26.3764 35.9646C27.1192 36.0038 27.862 35.8866 28.5566 35.6206C29.2512 35.3546 29.8821 34.9457 30.4085 34.4204C30.9349 33.8951 31.345 33.2651 31.6122 32.5713C31.8794 31.8775 31.9979 31.1353 31.9598 30.3928L31.7565 26.595C31.697 25.4989 31.979 24.4114 32.5636 23.4822C33.1482 22.553 34.0067 21.8278 35.0208 21.4065C36.0349 20.9852 37.1548 20.8885 38.2261 21.1298C39.2975 21.371 40.2676 21.9384 41.003 22.7536L43.5536 25.5758C44.051 26.128 44.659 26.5695 45.3381 26.8717C46.0172 27.1739 46.7523 27.3301 47.4956 27.3301C48.239 27.3301 48.9741 27.1739 49.6532 26.8717C50.3323 26.5695 50.9403 26.128 51.4377 25.5758L53.9883 22.7536C54.7248 21.942 55.6944 21.378 56.7642 21.1389C57.834 20.8998 58.9516 20.9973 59.9638 21.418" stroke="black" stroke-width="3" stroke-linecap="round" stroke-linejoin="round"/>
<path d="M37 45.7468L44.3874 55.2919C44.7856 55.806 45.2984 56.2265 45.8876 56.522C46.4768 56.8174 47.1272 56.9802 47.7903 56.9983C48.4535 57.0164 49.1123 56.8892 49.7177 56.6263C50.3231 56.3634 50.8594 55.9716 51.2868 55.4799L83 19" stroke="#00CCF5" stroke-width="3" stroke-linecap="round" stroke-linejoin="round"/>
</svg>
