<svg width="100" height="100" viewBox="0 0 100 100" fill="none" xmlns="http://www.w3.org/2000/svg">
<path d="M81 52.4999V80.4279C81 82.4004 79.4258 84 77.4846 84H22.5154C20.5739 84 19 82.4004 19 80.4279V68.25M19 52.4999V24.5721C19 22.5993 20.5739 21 22.5154 21H77.4846C79.4258 21 81 22.5993 81 24.5721V36.75" stroke="black" stroke-width="3" stroke-linecap="round" stroke-linejoin="round"/>
<path d="M11 46L18.5 53L26 46" stroke="black" stroke-width="3" stroke-linecap="round" stroke-linejoin="round"/>
<path d="M89 60L81.4998 52L74 60" stroke="black" stroke-width="3" stroke-linecap="round" stroke-linejoin="round"/>
<path d="M49.9999 54C54.4184 54 58 50.642 58 46.5C58 42.3579 54.4184 39 49.9999 39C45.5818 39 42 42.3579 42 46.5C42 50.642 45.5818 54 49.9999 54Z" stroke="#3DD3F2" stroke-width="3" stroke-miterlimit="10" stroke-linecap="round" stroke-linejoin="round"/>
<path d="M63 66C61.3017 60.2848 56.042 56 50 56C43.9583 56 38.6983 60.2848 37 66" stroke="#3DD3F2" stroke-width="3" stroke-miterlimit="10" stroke-linecap="round" stroke-linejoin="round"/>
</svg>
