<svg width="621" height="621" viewBox="0 0 621 621" fill="none" xmlns="http://www.w3.org/2000/svg">
<path fill-rule="evenodd" clip-rule="evenodd" d="M298.391 145.376C240.731 148.481 218.654 191.082 178.755 225.392C125.939 270.818 69.3657 246.164 68.279 390.081C67.3164 518.162 159.162 399.023 299.788 437.308C440.413 475.562 582.125 486.398 532.383 340.68C482.61 194.963 432.371 138.141 298.391 145.376Z" fill="#ECEAF8"/>
<path fill-rule="evenodd" clip-rule="evenodd" d="M276.687 281.002V226.665C276.687 224.895 275.228 223.467 273.489 223.467H116.003C114.233 223.467 111.501 224.926 111.501 226.665V283.89C111.501 285.66 112.929 287.088 114.699 287.088H269.297C275.166 287.119 276.687 282.772 276.687 281.002Z" fill="#7261E0"/>
<path fill-rule="evenodd" clip-rule="evenodd" d="M276.687 281.002V226.665C276.687 224.895 275.227 223.467 273.488 223.467H117.214C115.444 223.467 114.016 224.926 114.016 226.665V281.002C114.016 282.772 115.444 284.201 117.214 284.201H273.488C275.258 284.232 276.687 282.772 276.687 281.002Z" fill="#F1EFFC"/>
<path fill-rule="evenodd" clip-rule="evenodd" d="M274.326 281.002V226.665C274.326 226.199 273.954 225.826 273.488 225.826H117.213C116.748 225.826 116.375 226.199 116.375 226.665V281.002C116.375 281.468 116.748 281.84 117.213 281.84H273.488C273.954 281.871 274.326 281.468 274.326 281.002ZM271.967 279.512H118.735V228.186H271.967V279.512Z" fill="#B0A4FC"/>
<path fill-rule="evenodd" clip-rule="evenodd" d="M276.904 281.002V226.665C276.904 225.733 276.531 224.864 275.91 224.243C275.289 223.622 274.451 223.249 273.488 223.249H117.214C117.09 223.249 116.996 223.249 116.903 223.28H116.003C115.009 223.28 113.736 223.715 112.743 224.398C111.904 224.988 111.283 225.795 111.283 226.696V283.921C111.283 284.852 111.656 285.722 112.277 286.343C112.898 286.964 113.736 287.336 114.699 287.336H269.297C271.687 287.336 273.364 286.622 274.544 285.66C276.19 284.293 276.811 282.43 276.873 281.281C276.873 281.219 276.873 281.188 276.873 281.126V281.095L276.904 281.002ZM115.506 223.715C115.258 223.87 115.009 224.056 114.792 224.243C114.171 224.864 113.798 225.702 113.798 226.665V281.002C113.798 281.934 114.171 282.803 114.792 283.424C115.413 284.045 116.251 284.418 117.214 284.418H273.488C274.358 284.418 275.165 284.076 275.755 283.548C275.413 284.169 274.948 284.79 274.296 285.349C273.178 286.249 271.594 286.933 269.328 286.933H114.699C113.86 286.933 113.115 286.591 112.587 286.063C112.028 285.535 111.718 284.759 111.718 283.952V226.696C111.718 225.95 112.246 225.267 112.991 224.739C113.736 224.212 114.699 223.839 115.506 223.715ZM116.903 223.684H273.488C274.327 223.684 275.072 224.025 275.6 224.553C276.128 225.081 276.469 225.857 276.469 226.665V281.002V281.095V281.126V281.157C276.438 281.934 276.097 282.617 275.6 283.113C275.072 283.641 274.296 283.983 273.488 283.983H117.214C116.375 283.983 115.63 283.641 115.102 283.113C114.575 282.586 114.233 281.809 114.233 281.002V226.665C114.233 225.826 114.575 225.081 115.102 224.553C115.568 224.087 116.22 223.746 116.903 223.684Z" fill="#361ED1"/>
<path opacity="0.25" fill-rule="evenodd" clip-rule="evenodd" d="M276.686 267.061C255.541 274.792 230.67 275.724 214.99 265.043C184.033 243.96 193.721 264.08 148.543 255.852C127.181 251.971 123.33 237.098 118.021 223.467H117.183C115.413 223.467 113.984 224.926 113.984 226.665V281.002C113.984 282.772 115.413 284.201 117.183 284.201H273.457C275.227 284.201 276.655 282.772 276.655 281.002V267.061H276.686Z" fill="#988BE9"/>
<path fill-rule="evenodd" clip-rule="evenodd" d="M148.326 237.066H243.681C244.581 237.066 245.326 237.812 245.326 238.712C245.326 239.613 244.581 240.358 243.681 240.358H148.326C147.426 240.358 146.68 239.613 146.68 238.712C146.68 237.812 147.426 237.066 148.326 237.066ZM129.944 244.643H262.031C262.932 244.643 263.677 245.388 263.677 246.288C263.677 247.189 262.932 247.934 262.031 247.934H129.944C129.044 247.934 128.299 247.189 128.299 246.288C128.299 245.388 129.044 244.643 129.944 244.643ZM129.944 252.25H262.031C262.932 252.25 263.677 252.995 263.677 253.896C263.677 254.796 262.932 255.541 262.031 255.541H129.944C129.044 255.541 128.299 254.796 128.299 253.896C128.299 252.964 129.044 252.25 129.944 252.25Z" fill="#B0A4FC"/>
<path fill-rule="evenodd" clip-rule="evenodd" d="M309.289 468.234C445.381 468.234 556.385 464.508 556.385 459.975C556.385 455.411 445.381 451.716 309.289 451.716C173.197 451.716 62.1934 455.442 62.1934 459.975C62.2244 464.508 173.197 468.234 309.289 468.234Z" fill="#D6D2EE"/>
<path fill-rule="evenodd" clip-rule="evenodd" d="M302.769 470.376C425.572 470.376 525.739 466.774 525.739 462.365C525.739 457.956 425.572 454.354 302.769 454.354C179.966 454.354 79.7988 457.956 79.7988 462.365C79.7988 466.774 179.966 470.376 302.769 470.376Z" fill="#D6D2EE"/>
<path fill-rule="evenodd" clip-rule="evenodd" d="M250.294 289.696L209.898 283.176L208.501 283.021L190.398 283.114V460.689L211.109 460.533L251.474 456.031C252.188 455.938 252.778 455.286 252.778 454.417V292.863C252.809 291.125 251.66 289.914 250.294 289.696Z" fill="#8271ED" stroke="#361ED1" stroke-width="0.078" stroke-miterlimit="2.613"/>
<path fill-rule="evenodd" clip-rule="evenodd" d="M96.6586 283.083H209.153C211.109 283.083 212.723 284.698 212.723 286.654V458.174C212.723 459.54 211.606 460.658 210.239 460.658H95.2613C93.8951 460.658 92.7773 459.54 92.7773 458.174V286.964C92.7773 284.822 94.5161 283.083 96.6586 283.083Z" fill="#C4BBFA" stroke="#361ED1" stroke-width="0.18" stroke-miterlimit="2.613"/>
<path fill-rule="evenodd" clip-rule="evenodd" d="M111.377 294.944H194.249C196.609 294.944 198.534 296.869 198.534 299.229V372.818C198.534 375.178 196.609 377.103 194.249 377.103H111.377C109.017 377.103 107.092 375.178 107.092 372.818V299.229C107.092 296.869 109.017 294.944 111.377 294.944Z" fill="#F1EFFC"/>
<path fill-rule="evenodd" clip-rule="evenodd" d="M111.376 294.416H194.249C195.553 294.416 196.764 294.944 197.633 295.813C198.503 296.683 199.031 297.894 199.031 299.198V372.786C199.031 374.121 198.503 375.301 197.633 376.171C196.764 377.04 195.553 377.568 194.249 377.568H111.376C110.041 377.568 108.861 377.04 107.992 376.171C107.123 375.301 106.595 374.09 106.595 372.786V299.198C106.595 297.894 107.123 296.683 107.992 295.813C108.83 294.944 110.041 294.416 111.376 294.416ZM194.218 295.441H111.376C110.352 295.441 109.389 295.875 108.706 296.558C108.023 297.242 107.588 298.173 107.588 299.229V372.817C107.588 373.842 108.023 374.804 108.706 375.488C109.389 376.171 110.321 376.605 111.376 376.605H194.249C195.274 376.605 196.236 376.171 196.919 375.488C197.602 374.804 198.037 373.873 198.037 372.817V299.229C198.037 298.204 197.602 297.242 196.919 296.558C196.205 295.875 195.274 295.441 194.218 295.441Z" fill="#B0A4FC"/>
<path fill-rule="evenodd" clip-rule="evenodd" d="M115.195 309.817H190.398C190.522 309.817 190.584 309.724 190.584 309.631V306.216C190.584 306.091 190.491 306.029 190.398 306.029H115.195C115.071 306.029 115.009 306.122 115.009 306.216V309.631C115.009 309.724 115.071 309.817 115.195 309.817ZM115.195 326.119H190.398C190.522 326.119 190.584 326.025 190.584 325.932V322.517C190.584 322.393 190.491 322.331 190.398 322.331H115.195C115.071 322.331 115.009 322.424 115.009 322.517V325.932C115.009 326.025 115.071 326.119 115.195 326.119ZM115.195 342.451H190.398C190.522 342.451 190.584 342.358 190.584 342.265V338.849C190.584 338.725 190.491 338.663 190.398 338.663H115.195C115.071 338.663 115.009 338.756 115.009 338.849V342.265C115.009 342.358 115.071 342.451 115.195 342.451ZM115.195 358.752H190.398C190.522 358.752 190.584 358.659 190.584 358.566V355.15C190.584 355.026 190.491 354.964 190.398 354.964H115.195C115.071 354.964 115.009 355.057 115.009 355.15V358.566C115.009 358.659 115.071 358.752 115.195 358.752Z" fill="#B0A4FC"/>
<path fill-rule="evenodd" clip-rule="evenodd" d="M195.522 392.1C196.484 392.1 197.354 392.503 198.006 393.124C198.627 393.745 199.03 394.646 199.03 395.608V447.12C199.03 448.083 198.627 448.952 198.006 449.604C197.385 450.225 196.484 450.629 195.522 450.629H110.072C109.11 450.629 108.24 450.225 107.588 449.604C106.967 448.983 106.563 448.083 106.563 447.12V395.608C106.563 394.646 106.967 393.776 107.588 393.124C108.209 392.503 109.11 392.1 110.072 392.1H195.522Z" fill="#F1EFFC"/>
<path fill-rule="evenodd" clip-rule="evenodd" d="M110.072 449.604H195.522C196.205 449.604 196.826 449.325 197.292 448.89C197.726 448.455 198.006 447.803 198.006 447.12V395.608C198.006 394.925 197.726 394.304 197.292 393.838C196.857 393.404 196.205 393.124 195.522 393.124H110.072C109.389 393.124 108.768 393.404 108.302 393.838C107.868 394.273 107.588 394.925 107.588 395.608V447.12C107.588 447.803 107.868 448.424 108.302 448.89C108.768 449.325 109.389 449.604 110.072 449.604ZM195.522 450.629H110.072C109.11 450.629 108.24 450.225 107.588 449.604C106.967 448.983 106.563 448.083 106.563 447.12V395.608C106.563 394.646 106.967 393.776 107.588 393.124C108.209 392.503 109.11 392.1 110.072 392.1H195.522C196.484 392.1 197.354 392.503 198.006 393.124C198.627 393.745 199.03 394.646 199.03 395.608V447.12C199.03 448.083 198.627 448.952 198.006 449.604C197.354 450.225 196.484 450.629 195.522 450.629Z" fill="#B0A4FC"/>
<path fill-rule="evenodd" clip-rule="evenodd" d="M156.181 397.191H113.332C112.742 397.191 112.183 397.44 111.811 397.812C111.407 398.216 111.19 398.744 111.19 399.334V420.106H110.165V399.334C110.165 398.464 110.538 397.657 111.097 397.067C111.686 396.477 112.463 396.136 113.363 396.136H156.212V397.191H156.181ZM192.727 400.203V443.052C192.727 443.642 192.479 444.201 192.106 444.574C191.702 444.977 191.174 445.195 190.585 445.195H169.812V446.219H190.585C191.454 446.219 192.261 445.847 192.851 445.288C193.441 444.698 193.783 443.922 193.783 443.021V400.172H192.727V400.203Z" fill="#B0A4FC"/>
<path fill-rule="evenodd" clip-rule="evenodd" d="M340.059 289.696L380.424 283.145L381.822 282.989L399.924 283.082V460.657L379.214 460.502L338.849 456C338.134 455.907 337.544 455.255 337.544 454.385V292.863C337.544 291.124 338.693 289.913 340.059 289.696Z" fill="#8271ED" stroke="#361ED1" stroke-width="0.078" stroke-miterlimit="2.613"/>
<path fill-rule="evenodd" clip-rule="evenodd" d="M493.695 283.083H381.201C379.244 283.083 377.63 284.698 377.63 286.654V458.174C377.63 459.54 378.748 460.658 380.114 460.658H495.123C496.489 460.658 497.607 459.54 497.607 458.174V286.964C497.576 284.822 495.837 283.083 493.695 283.083Z" fill="#C4BBFA" stroke="#361ED1" stroke-width="0.18" stroke-miterlimit="2.613"/>
<path fill-rule="evenodd" clip-rule="evenodd" d="M396.167 294.944H479.039C481.399 294.944 483.324 296.869 483.324 299.229V372.818C483.324 375.178 481.399 377.103 479.039 377.103H396.167C393.807 377.103 391.882 375.178 391.882 372.818V299.229C391.882 296.869 393.807 294.944 396.167 294.944Z" fill="#F1EFFC"/>
<path fill-rule="evenodd" clip-rule="evenodd" d="M396.167 294.416H479.039C480.344 294.416 481.554 294.944 482.424 295.813C483.293 296.683 483.821 297.894 483.821 299.198V372.786C483.821 374.121 483.293 375.301 482.424 376.171C481.554 377.04 480.344 377.568 479.039 377.568H396.167C394.832 377.568 393.652 377.04 392.783 376.171C391.913 375.301 391.385 374.09 391.385 372.786V299.198C391.385 297.894 391.913 296.683 392.783 295.813C393.652 294.944 394.832 294.416 396.167 294.416ZM479.039 295.441H396.167C395.142 295.441 394.18 295.875 393.497 296.558C392.814 297.242 392.379 298.173 392.379 299.229V372.817C392.379 373.842 392.814 374.804 393.497 375.488C394.18 376.171 395.111 376.605 396.167 376.605H479.039C480.064 376.605 481.027 376.171 481.71 375.488C482.393 374.804 482.827 373.873 482.827 372.817V299.229C482.827 298.204 482.393 297.242 481.71 296.558C481.027 295.875 480.064 295.441 479.039 295.441Z" fill="#B0A4FC"/>
<path fill-rule="evenodd" clip-rule="evenodd" d="M399.986 309.817H475.189C475.313 309.817 475.376 309.724 475.376 309.631V306.216C475.376 306.091 475.282 306.029 475.189 306.029H399.986C399.862 306.029 399.8 306.122 399.8 306.216V309.631C399.8 309.724 399.893 309.817 399.986 309.817ZM399.986 326.119H475.189C475.313 326.119 475.376 326.025 475.376 325.932V322.517C475.376 322.393 475.282 322.331 475.189 322.331H399.986C399.862 322.331 399.8 322.424 399.8 322.517V325.932C399.8 326.025 399.893 326.119 399.986 326.119ZM399.986 342.451H475.189C475.313 342.451 475.376 342.358 475.376 342.265V338.849C475.376 338.725 475.282 338.663 475.189 338.663H399.986C399.862 338.663 399.8 338.756 399.8 338.849V342.265C399.8 342.358 399.893 342.451 399.986 342.451ZM399.986 358.752H475.189C475.313 358.752 475.376 358.659 475.376 358.566V355.15C475.376 355.026 475.282 354.964 475.189 354.964H399.986C399.862 354.964 399.8 355.057 399.8 355.15V358.566C399.8 358.659 399.893 358.752 399.986 358.752Z" fill="#B0A4FC"/>
<path fill-rule="evenodd" clip-rule="evenodd" d="M480.312 392.1C481.275 392.1 482.144 392.503 482.796 393.124C483.417 393.745 483.821 394.646 483.821 395.608V447.12C483.821 448.083 483.417 448.952 482.796 449.604C482.175 450.225 481.275 450.629 480.312 450.629H394.863C393.9 450.629 393.031 450.225 392.379 449.604C391.758 448.983 391.354 448.083 391.354 447.12V395.608C391.354 394.646 391.758 393.776 392.379 393.124C393 392.503 393.9 392.1 394.863 392.1H480.312Z" fill="#F1EFFC"/>
<path fill-rule="evenodd" clip-rule="evenodd" d="M394.863 449.604H480.312C480.995 449.604 481.616 449.325 482.082 448.89C482.517 448.455 482.796 447.803 482.796 447.12V395.608C482.796 394.925 482.517 394.304 482.082 393.838C481.647 393.404 480.995 393.124 480.312 393.124H394.863C394.18 393.124 393.559 393.404 393.093 393.838C392.658 394.273 392.379 394.925 392.379 395.608V447.12C392.379 447.803 392.658 448.424 393.093 448.89C393.559 449.325 394.18 449.604 394.863 449.604ZM480.312 450.629H394.863C393.9 450.629 393.031 450.225 392.379 449.604C391.758 448.983 391.354 448.083 391.354 447.12V395.608C391.354 394.646 391.758 393.776 392.379 393.124C393 392.503 393.9 392.1 394.863 392.1H480.312C481.275 392.1 482.144 392.503 482.796 393.124C483.417 393.745 483.821 394.646 483.821 395.608V447.12C483.821 448.083 483.417 448.952 482.796 449.604C482.175 450.225 481.275 450.629 480.312 450.629Z" fill="#B0A4FC"/>
<path fill-rule="evenodd" clip-rule="evenodd" d="M440.972 397.191H398.123C397.533 397.191 396.974 397.44 396.602 397.812C396.198 398.216 395.981 398.744 395.981 399.334V420.106H394.956V399.334C394.956 398.464 395.329 397.657 395.888 397.067C396.478 396.477 397.254 396.136 398.154 396.136H441.003V397.191H440.972ZM477.518 400.203V443.052C477.518 443.642 477.27 444.201 476.897 444.574C476.493 444.977 475.965 445.195 475.376 445.195H454.603V446.219H475.376C476.245 446.219 477.052 445.847 477.642 445.288C478.232 444.698 478.574 443.922 478.574 443.021V400.172H477.518V400.203Z" fill="#B0A4FC"/>
<path fill-rule="evenodd" clip-rule="evenodd" d="M351.269 272.061H238.774C236.818 272.061 235.204 273.768 235.204 275.849V458.019C235.204 459.478 236.321 460.658 237.688 460.658H352.697C354.063 460.658 355.181 459.478 355.181 458.019V276.221C355.15 273.924 353.411 272.061 351.269 272.061Z" fill="#C4BBFA" stroke="#361ED1" stroke-width="0.18" stroke-miterlimit="2.613"/>
<path fill-rule="evenodd" clip-rule="evenodd" d="M252.281 283.362H338.103C339.19 283.362 340.091 284.263 340.091 285.35V303.824C340.091 304.911 339.19 305.811 338.103 305.811H252.281C251.194 305.811 250.294 304.911 250.294 303.824V285.35C250.294 284.263 251.163 283.362 252.281 283.362Z" fill="#F1EFFC"/>
<path fill-rule="evenodd" clip-rule="evenodd" d="M252.281 283.176H338.103C338.693 283.176 339.252 283.424 339.656 283.828C340.06 284.231 340.308 284.759 340.308 285.38V303.855C340.308 304.445 340.06 305.004 339.656 305.408C339.252 305.811 338.724 306.06 338.103 306.06H252.281C251.691 306.06 251.132 305.811 250.729 305.408C250.325 305.004 250.077 304.476 250.077 303.855V285.349C250.077 284.759 250.325 284.2 250.729 283.797C251.132 283.424 251.66 283.176 252.281 283.176ZM338.072 283.579H252.281C251.784 283.579 251.35 283.797 251.008 284.107C250.698 284.418 250.48 284.884 250.48 285.38V303.855C250.48 304.352 250.667 304.787 251.008 305.128C251.319 305.439 251.784 305.656 252.281 305.656H338.103C338.6 305.656 339.035 305.47 339.376 305.128C339.687 304.818 339.904 304.352 339.904 303.855V285.349C339.904 284.852 339.718 284.418 339.376 284.076C339.035 283.766 338.569 283.579 338.072 283.579Z" fill="#604FCC"/>
<path fill-rule="evenodd" clip-rule="evenodd" d="M255.076 290.721H270.756C271.004 290.721 271.222 290.938 271.222 291.187V301.558C271.222 301.806 271.004 302.023 270.756 302.023H255.076C254.827 302.023 254.61 301.806 254.61 301.558V291.187C254.61 290.938 254.827 290.721 255.076 290.721ZM254.951 287.15H257.808C257.994 287.15 258.15 287.306 258.15 287.492V289.169C258.15 289.355 257.994 289.51 257.808 289.51H254.951C254.765 289.51 254.61 289.355 254.61 289.169V287.492C254.61 287.306 254.765 287.15 254.951 287.15ZM261.503 287.15H264.36C264.546 287.15 264.701 287.306 264.701 287.492V289.169C264.701 289.355 264.546 289.51 264.36 289.51H261.503C261.317 289.51 261.161 289.355 261.161 289.169V287.492C261.161 287.306 261.317 287.15 261.503 287.15ZM268.055 287.15H270.911C271.097 287.15 271.253 287.306 271.253 287.492V289.169C271.253 289.355 271.097 289.51 270.911 289.51H268.055C267.868 289.51 267.713 289.355 267.713 289.169V287.492C267.713 287.306 267.868 287.15 268.055 287.15Z" fill="#7864FA"/>
<path d="M279.264 285.629H276.997V303.514H279.264V285.629Z" fill="#E1DCFF"/>
<path d="M282.555 285.629H280.289V303.514H282.555V285.629Z" fill="#E1DCFF"/>
<path d="M285.815 285.629H283.549V303.514H285.815V285.629Z" fill="#E1DCFF"/>
<path d="M289.076 285.629H286.809V303.514H289.076V285.629Z" fill="#E1DCFF"/>
<path d="M292.367 285.629H290.1V303.514H292.367V285.629Z" fill="#E1DCFF"/>
<path d="M295.627 285.629H293.36V303.514H295.627V285.629Z" fill="#E1DCFF"/>
<path d="M298.887 285.629H296.621V303.514H298.887V285.629Z" fill="#E1DCFF"/>
<path d="M302.179 285.629H299.912V303.514H302.179V285.629Z" fill="#E1DCFF"/>
<path d="M305.439 285.629H303.172V303.514H305.439V285.629Z" fill="#E1DCFF"/>
<path d="M308.699 285.629H306.433V303.514H308.699V285.629Z" fill="#E1DCFF"/>
<path d="M279.264 290.846H276.997V299.353H279.264V290.846Z" fill="#8674FC"/>
<path d="M282.555 291.56H280.289V298.608H282.555V291.56Z" fill="#8674FC"/>
<path d="M285.815 289.448H283.549V300.75H285.815V289.448Z" fill="#8674FC"/>
<path d="M289.076 290.814H286.809V299.353H289.076V290.814Z" fill="#8674FC"/>
<path d="M292.367 292.957H290.1V297.242H292.367V292.957Z" fill="#8674FC"/>
<path d="M295.627 289.354H293.36V300.781H295.627V289.354Z" fill="#8674FC"/>
<path d="M298.887 291.031H296.621V299.135H298.887V291.031Z" fill="#8674FC"/>
<path d="M302.179 289.014H299.912V301.123H302.179V289.014Z" fill="#8674FC"/>
<path d="M305.439 289.541H303.172V300.626H305.439V289.541Z" fill="#8674FC"/>
<path d="M308.699 288.517H306.433V301.62H308.699V288.517Z" fill="#8674FC"/>
<path d="M312.549 285.629H310.283V303.514H312.549V285.629Z" fill="#E1DCFF"/>
<path d="M315.841 285.629H313.574V303.514H315.841V285.629Z" fill="#E1DCFF"/>
<path d="M319.101 285.629H316.834V303.514H319.101V285.629Z" fill="#E1DCFF"/>
<path d="M322.361 285.629H320.094V303.514H322.361V285.629Z" fill="#E1DCFF"/>
<path d="M325.652 285.629H323.386V303.514H325.652V285.629Z" fill="#E1DCFF"/>
<path d="M328.913 285.629H326.646V303.514H328.913V285.629Z" fill="#E1DCFF"/>
<path d="M312.549 292.957H310.283V297.242H312.549V292.957Z" fill="#8674FC"/>
<path d="M315.841 289.417H313.574V300.781H315.841V289.417Z" fill="#8674FC"/>
<path d="M319.101 291.031H316.834V299.135H319.101V291.031Z" fill="#8674FC"/>
<path d="M322.361 289.014H320.094V301.123H322.361V289.014Z" fill="#8674FC"/>
<path d="M325.652 289.541H323.386V300.626H325.652V289.541Z" fill="#8674FC"/>
<path d="M328.913 288.517H326.646V301.62H328.913V288.517Z" fill="#8674FC"/>
<path d="M332.483 285.629H330.217V303.514H332.483V285.629Z" fill="#E1DCFF"/>
<path d="M335.744 285.629H333.477V303.514H335.744V285.629Z" fill="#E1DCFF"/>
<path d="M332.483 290.846H330.217V299.353H332.483V290.846Z" fill="#8674FC"/>
<path d="M335.744 291.56H333.477V298.608H335.744V291.56Z" fill="#8674FC"/>
<path fill-rule="evenodd" clip-rule="evenodd" d="M252.281 312.767H338.103C339.19 312.767 340.091 313.667 340.091 314.754V333.229C340.091 334.315 339.19 335.216 338.103 335.216H252.281C251.194 335.216 250.294 334.315 250.294 333.229V314.754C250.294 313.636 251.163 312.767 252.281 312.767Z" fill="#F1EFFC"/>
<path fill-rule="evenodd" clip-rule="evenodd" d="M252.281 312.549H338.103C338.693 312.549 339.252 312.797 339.656 313.201C340.06 313.605 340.308 314.132 340.308 314.753V333.228C340.308 333.818 340.06 334.377 339.656 334.781C339.252 335.184 338.724 335.433 338.103 335.433H252.281C251.691 335.433 251.132 335.184 250.729 334.781C250.325 334.377 250.077 333.849 250.077 333.228V314.753C250.077 314.163 250.325 313.605 250.729 313.201C251.132 312.797 251.66 312.549 252.281 312.549ZM338.072 312.952H252.281C251.784 312.952 251.35 313.17 251.008 313.48C250.698 313.791 250.48 314.257 250.48 314.753V333.228C250.48 333.725 250.667 334.16 251.008 334.501C251.319 334.812 251.784 335.029 252.281 335.029H338.103C338.6 335.029 339.035 334.843 339.376 334.501C339.687 334.191 339.904 333.725 339.904 333.228V314.753C339.904 314.257 339.718 313.822 339.376 313.48C339.035 313.139 338.569 312.952 338.072 312.952Z" fill="#604FCC"/>
<path fill-rule="evenodd" clip-rule="evenodd" d="M255.076 320.125H270.756C271.004 320.125 271.222 320.343 271.222 320.591V330.962C271.222 331.21 271.004 331.428 270.756 331.428H255.076C254.827 331.428 254.61 331.21 254.61 330.962V320.591C254.61 320.312 254.827 320.125 255.076 320.125ZM254.951 316.555H257.808C257.994 316.555 258.15 316.71 258.15 316.896V318.573C258.15 318.759 257.994 318.914 257.808 318.914H254.951C254.765 318.914 254.61 318.759 254.61 318.573V316.896C254.61 316.679 254.765 316.555 254.951 316.555ZM261.503 316.555H264.36C264.546 316.555 264.701 316.71 264.701 316.896V318.573C264.701 318.759 264.546 318.914 264.36 318.914H261.503C261.317 318.914 261.161 318.759 261.161 318.573V316.896C261.161 316.679 261.317 316.555 261.503 316.555ZM268.055 316.555H270.911C271.097 316.555 271.253 316.71 271.253 316.896V318.573C271.253 318.759 271.097 318.914 270.911 318.914H268.055C267.868 318.914 267.713 318.759 267.713 318.573V316.896C267.713 316.679 267.868 316.555 268.055 316.555Z" fill="#7864FA"/>
<path d="M279.264 315.033H276.997V332.949H279.264V315.033Z" fill="#E1DCFF"/>
<path d="M282.555 315.033H280.288V332.949H282.555V315.033Z" fill="#E1DCFF"/>
<path d="M285.815 315.033H283.548V332.949H285.815V315.033Z" fill="#E1DCFF"/>
<path d="M289.075 315.033H286.809V332.949H289.075V315.033Z" fill="#E1DCFF"/>
<path d="M292.367 315.033H290.1V332.949H292.367V315.033Z" fill="#E1DCFF"/>
<path d="M295.627 315.033H293.36V332.949H295.627V315.033Z" fill="#E1DCFF"/>
<path d="M298.887 315.033H296.621V332.949H298.887V315.033Z" fill="#E1DCFF"/>
<path d="M302.179 315.033H299.912V332.949H302.179V315.033Z" fill="#E1DCFF"/>
<path d="M305.439 315.033H303.172V332.949H305.439V315.033Z" fill="#E1DCFF"/>
<path d="M308.699 315.033H306.433V332.949H308.699V315.033Z" fill="#E1DCFF"/>
<path d="M279.264 320.218H276.997V328.725H279.264V320.218Z" fill="#8674FC"/>
<path d="M282.555 320.933H280.288V327.981H282.555V320.933Z" fill="#8674FC"/>
<path d="M285.815 318.821H283.548V330.123H285.815V318.821Z" fill="#8674FC"/>
<path d="M289.075 320.188H286.809V328.726H289.075V320.188Z" fill="#8674FC"/>
<path d="M292.367 322.329H290.1V326.614H292.367V322.329Z" fill="#8674FC"/>
<path d="M295.627 318.759H293.36V330.185H295.627V318.759Z" fill="#8674FC"/>
<path d="M298.887 320.404H296.621V328.508H298.887V320.404Z" fill="#8674FC"/>
<path d="M302.179 318.417H299.912V330.526H302.179V318.417Z" fill="#8674FC"/>
<path d="M305.439 318.914H303.172V329.999H305.439V318.914Z" fill="#8674FC"/>
<path d="M308.699 317.921H306.433V331.024H308.699V317.921Z" fill="#8674FC"/>
<path d="M312.549 315.033H310.283V332.949H312.549V315.033Z" fill="#E1DCFF"/>
<path d="M315.84 315.033H313.574V332.949H315.84V315.033Z" fill="#E1DCFF"/>
<path d="M319.101 315.033H316.834V332.949H319.101V315.033Z" fill="#E1DCFF"/>
<path d="M322.361 315.033H320.094V332.949H322.361V315.033Z" fill="#E1DCFF"/>
<path d="M325.652 315.033H323.386V332.949H325.652V315.033Z" fill="#E1DCFF"/>
<path d="M328.913 315.033H326.646V332.949H328.913V315.033Z" fill="#E1DCFF"/>
<path d="M312.549 322.329H310.283V326.614H312.549V322.329Z" fill="#8674FC"/>
<path d="M315.84 318.79H313.574V330.154H315.84V318.79Z" fill="#8674FC"/>
<path d="M319.101 320.404H316.834V328.508H319.101V320.404Z" fill="#8674FC"/>
<path d="M322.361 318.417H320.094V330.526H322.361V318.417Z" fill="#8674FC"/>
<path d="M325.652 318.914H323.386V329.999H325.652V318.914Z" fill="#8674FC"/>
<path d="M328.913 317.921H326.646V331.024H328.913V317.921Z" fill="#8674FC"/>
<path d="M332.483 315.033H330.217V332.949H332.483V315.033Z" fill="#E1DCFF"/>
<path d="M335.744 315.033H333.477V332.949H335.744V315.033Z" fill="#E1DCFF"/>
<path d="M332.483 320.218H330.217V328.725H332.483V320.218Z" fill="#8674FC"/>
<path d="M335.744 320.933H333.477V327.981H335.744V320.933Z" fill="#8674FC"/>
<path fill-rule="evenodd" clip-rule="evenodd" d="M252.281 342.141H338.103C339.19 342.141 340.091 343.041 340.091 344.128V362.603C340.091 363.689 339.19 364.59 338.103 364.59H252.281C251.194 364.59 250.294 363.689 250.294 362.603V344.128C250.294 343.041 251.163 342.141 252.281 342.141Z" fill="#F1EFFC"/>
<path fill-rule="evenodd" clip-rule="evenodd" d="M252.281 341.954H338.103C338.693 341.954 339.252 342.202 339.656 342.606C340.06 343.01 340.308 343.538 340.308 344.159V362.633C340.308 363.223 340.06 363.782 339.656 364.186C339.252 364.59 338.724 364.838 338.103 364.838H252.281C251.691 364.838 251.132 364.59 250.729 364.186C250.325 363.782 250.077 363.254 250.077 362.633V344.159C250.077 343.569 250.325 343.01 250.729 342.606C251.132 342.202 251.66 341.954 252.281 341.954ZM338.072 342.327H252.281C251.784 342.327 251.35 342.544 251.008 342.855C250.698 343.165 250.48 343.631 250.48 344.128V362.602C250.48 363.099 250.667 363.534 251.008 363.875C251.319 364.186 251.784 364.403 252.281 364.403H338.103C338.6 364.403 339.035 364.217 339.376 363.875C339.687 363.565 339.904 363.099 339.904 362.602V344.128C339.904 343.631 339.718 343.196 339.376 342.855C339.035 342.544 338.569 342.327 338.072 342.327Z" fill="#604FCC"/>
<path fill-rule="evenodd" clip-rule="evenodd" d="M255.076 349.499H270.756C271.004 349.499 271.222 349.717 271.222 349.965V360.336C271.222 360.584 271.004 360.802 270.756 360.802H255.076C254.827 360.802 254.61 360.584 254.61 360.336V349.965C254.61 349.717 254.827 349.499 255.076 349.499ZM254.951 345.929H257.808C257.994 345.929 258.15 346.084 258.15 346.27V347.947C258.15 348.133 257.994 348.289 257.808 348.289H254.951C254.765 348.289 254.61 348.133 254.61 347.947V346.27C254.61 346.084 254.765 345.929 254.951 345.929ZM261.503 345.929H264.36C264.546 345.929 264.701 346.084 264.701 346.27V347.947C264.701 348.133 264.546 348.289 264.36 348.289H261.503C261.317 348.289 261.161 348.133 261.161 347.947V346.27C261.161 346.084 261.317 345.929 261.503 345.929ZM268.055 345.929H270.911C271.097 345.929 271.253 346.084 271.253 346.27V347.947C271.253 348.133 271.097 348.289 270.911 348.289H268.055C267.868 348.289 267.713 348.133 267.713 347.947V346.27C267.713 346.084 267.868 345.929 268.055 345.929Z" fill="#7864FA"/>
<path d="M279.264 344.407H276.997V362.292H279.264V344.407Z" fill="#E1DCFF"/>
<path d="M282.555 344.407H280.288V362.292H282.555V344.407Z" fill="#E1DCFF"/>
<path d="M285.815 344.407H283.548V362.292H285.815V344.407Z" fill="#E1DCFF"/>
<path d="M289.075 344.407H286.809V362.292H289.075V344.407Z" fill="#E1DCFF"/>
<path d="M292.367 344.407H290.1V362.292H292.367V344.407Z" fill="#E1DCFF"/>
<path d="M295.627 344.407H293.36V362.292H295.627V344.407Z" fill="#E1DCFF"/>
<path d="M298.887 344.407H296.621V362.292H298.887V344.407Z" fill="#E1DCFF"/>
<path d="M302.179 344.407H299.912V362.292H302.179V344.407Z" fill="#E1DCFF"/>
<path d="M305.439 344.407H303.172V362.292H305.439V344.407Z" fill="#E1DCFF"/>
<path d="M308.699 344.407H306.433V362.292H308.699V344.407Z" fill="#E1DCFF"/>
<path d="M279.264 349.593H276.997V358.1H279.264V349.593Z" fill="#8674FC"/>
<path d="M282.555 350.338H280.288V357.386H282.555V350.338Z" fill="#8674FC"/>
<path d="M285.815 348.195H283.548V359.498H285.815V348.195Z" fill="#8674FC"/>
<path d="M289.075 349.593H286.809V358.132H289.075V349.593Z" fill="#8674FC"/>
<path d="M292.367 351.704H290.1V355.989H292.367V351.704Z" fill="#8674FC"/>
<path d="M295.627 348.133H293.36V359.559H295.627V348.133Z" fill="#8674FC"/>
<path d="M298.887 349.81H296.621V357.914H298.887V349.81Z" fill="#8674FC"/>
<path d="M302.179 347.791H299.912V359.901H302.179V347.791Z" fill="#8674FC"/>
<path d="M305.439 348.288H303.172V359.373H305.439V348.288Z" fill="#8674FC"/>
<path d="M308.699 347.295H306.433V360.398H308.699V347.295Z" fill="#8674FC"/>
<path d="M312.549 344.407H310.283V362.292H312.549V344.407Z" fill="#E1DCFF"/>
<path d="M315.84 344.407H313.574V362.292H315.84V344.407Z" fill="#E1DCFF"/>
<path d="M319.101 344.407H316.834V362.292H319.101V344.407Z" fill="#E1DCFF"/>
<path d="M322.361 344.407H320.094V362.292H322.361V344.407Z" fill="#E1DCFF"/>
<path d="M325.652 344.407H323.386V362.292H325.652V344.407Z" fill="#E1DCFF"/>
<path d="M328.913 344.407H326.646V362.292H328.913V344.407Z" fill="#E1DCFF"/>
<path d="M312.549 351.704H310.283V355.989H312.549V351.704Z" fill="#8674FC"/>
<path d="M315.84 348.164H313.574V359.528H315.84V348.164Z" fill="#8674FC"/>
<path d="M319.101 349.81H316.834V357.914H319.101V349.81Z" fill="#8674FC"/>
<path d="M322.361 347.791H320.094V359.901H322.361V347.791Z" fill="#8674FC"/>
<path d="M325.652 348.288H323.386V359.373H325.652V348.288Z" fill="#8674FC"/>
<path d="M328.913 347.295H326.646V360.398H328.913V347.295Z" fill="#8674FC"/>
<path d="M332.483 344.407H330.217V362.292H332.483V344.407Z" fill="#E1DCFF"/>
<path d="M335.744 344.407H333.477V362.292H335.744V344.407Z" fill="#E1DCFF"/>
<path d="M332.483 349.593H330.217V358.1H332.483V349.593Z" fill="#8674FC"/>
<path d="M335.744 350.338H333.477V357.386H335.744V350.338Z" fill="#8674FC"/>
<path fill-rule="evenodd" clip-rule="evenodd" d="M252.281 371.514H338.103C339.19 371.514 340.091 372.414 340.091 373.501V391.976C340.091 393.062 339.19 393.963 338.103 393.963H252.281C251.194 393.963 250.294 393.062 250.294 391.976V373.501C250.294 372.414 251.163 371.514 252.281 371.514Z" fill="#C4BBFA"/>
<path fill-rule="evenodd" clip-rule="evenodd" d="M252.281 371.327H338.103C338.693 371.327 339.252 371.576 339.656 371.979C340.06 372.383 340.308 372.911 340.308 373.532V392.006C340.308 392.596 340.06 393.155 339.656 393.559C339.252 393.963 338.724 394.211 338.103 394.211H252.281C251.691 394.211 251.132 393.963 250.729 393.559C250.325 393.155 250.077 392.627 250.077 392.006V373.532C250.077 372.942 250.325 372.383 250.729 371.979C251.132 371.576 251.66 371.327 252.281 371.327ZM338.072 371.731H252.281C251.784 371.731 251.35 371.948 251.008 372.259C250.698 372.569 250.48 373.035 250.48 373.532V392.006C250.48 392.503 250.667 392.938 251.008 393.279C251.319 393.59 251.784 393.807 252.281 393.807H338.103C338.6 393.807 339.035 393.621 339.376 393.279C339.687 392.969 339.904 392.503 339.904 392.006V373.532C339.904 373.035 339.718 372.6 339.376 372.259C339.035 371.917 338.569 371.731 338.072 371.731Z" fill="#604FCC"/>
<path fill-rule="evenodd" clip-rule="evenodd" d="M255.076 378.873H270.756C271.004 378.873 271.222 379.09 271.222 379.338V389.709C271.222 389.957 271.004 390.175 270.756 390.175H255.076C254.827 390.175 254.61 389.957 254.61 389.709V379.338C254.61 379.09 254.827 378.873 255.076 378.873ZM254.951 375.302H257.808C257.994 375.302 258.15 375.457 258.15 375.643V377.32C258.15 377.506 257.994 377.662 257.808 377.662H254.951C254.765 377.662 254.61 377.506 254.61 377.32V375.643C254.61 375.457 254.765 375.302 254.951 375.302ZM261.503 375.302H264.36C264.546 375.302 264.701 375.457 264.701 375.643V377.32C264.701 377.506 264.546 377.662 264.36 377.662H261.503C261.317 377.662 261.161 377.506 261.161 377.32V375.643C261.161 375.457 261.317 375.302 261.503 375.302ZM268.055 375.302H270.911C271.097 375.302 271.253 375.457 271.253 375.643V377.32C271.253 377.506 271.097 377.662 270.911 377.662H268.055C267.868 377.662 267.713 377.506 267.713 377.32V375.643C267.713 375.457 267.868 375.302 268.055 375.302Z" fill="#7864FA"/>
<path d="M279.264 373.812H276.997V391.727H279.264V373.812Z" fill="#E1DCFF"/>
<path d="M282.555 373.812H280.288V391.727H282.555V373.812Z" fill="#E1DCFF"/>
<path d="M285.815 373.812H283.548V391.727H285.815V373.812Z" fill="#E1DCFF"/>
<path d="M289.075 373.812H286.809V391.727H289.075V373.812Z" fill="#E1DCFF"/>
<path d="M292.367 373.812H290.1V391.727H292.367V373.812Z" fill="#E1DCFF"/>
<path d="M295.627 373.812H293.36V391.727H295.627V373.812Z" fill="#E1DCFF"/>
<path d="M298.887 373.812H296.621V391.727H298.887V373.812Z" fill="#E1DCFF"/>
<path d="M302.179 373.812H299.912V391.727H302.179V373.812Z" fill="#E1DCFF"/>
<path d="M305.439 373.812H303.172V391.727H305.439V373.812Z" fill="#E1DCFF"/>
<path d="M308.699 373.812H306.433V391.727H308.699V373.812Z" fill="#E1DCFF"/>
<path d="M279.264 378.996H276.997V387.504H279.264V378.996Z" fill="#8674FC"/>
<path d="M282.555 379.711H280.288V386.759H282.555V379.711Z" fill="#8674FC"/>
<path d="M285.815 377.6H283.548V388.902H285.815V377.6Z" fill="#8674FC"/>
<path d="M289.075 378.966H286.809V387.505H289.075V378.966Z" fill="#8674FC"/>
<path d="M292.367 381.107H290.1V385.392H292.367V381.107Z" fill="#8674FC"/>
<path d="M295.627 377.506H293.36V388.932H295.627V377.506Z" fill="#8674FC"/>
<path d="M298.887 379.183H296.621V387.287H298.887V379.183Z" fill="#8674FC"/>
<path d="M302.179 377.164H299.912V389.274H302.179V377.164Z" fill="#8674FC"/>
<path d="M305.439 377.692H303.172V388.777H305.439V377.692Z" fill="#8674FC"/>
<path d="M308.699 376.668H306.433V389.771H308.699V376.668Z" fill="#8674FC"/>
<path d="M312.549 373.812H310.283V391.727H312.549V373.812Z" fill="#E1DCFF"/>
<path d="M315.84 373.812H313.574V391.727H315.84V373.812Z" fill="#E1DCFF"/>
<path d="M319.101 373.812H316.834V391.727H319.101V373.812Z" fill="#E1DCFF"/>
<path d="M322.361 373.812H320.094V391.727H322.361V373.812Z" fill="#E1DCFF"/>
<path d="M325.652 373.812H323.386V391.727H325.652V373.812Z" fill="#E1DCFF"/>
<path d="M328.913 373.812H326.646V391.727H328.913V373.812Z" fill="#E1DCFF"/>
<path d="M312.549 381.107H310.283V385.392H312.549V381.107Z" fill="#8674FC"/>
<path d="M315.84 377.568H313.574V388.933H315.84V377.568Z" fill="#8674FC"/>
<path d="M319.101 379.183H316.834V387.287H319.101V379.183Z" fill="#8674FC"/>
<path d="M322.361 377.164H320.094V389.274H322.361V377.164Z" fill="#8674FC"/>
<path d="M325.652 377.692H323.386V388.777H325.652V377.692Z" fill="#8674FC"/>
<path d="M328.913 376.668H326.646V389.771H328.913V376.668Z" fill="#8674FC"/>
<path d="M332.483 373.812H330.217V391.727H332.483V373.812Z" fill="#E1DCFF"/>
<path d="M335.744 373.812H333.477V391.727H335.744V373.812Z" fill="#E1DCFF"/>
<path d="M332.483 378.996H330.217V387.504H332.483V378.996Z" fill="#8674FC"/>
<path d="M335.744 379.711H333.477V386.759H335.744V379.711Z" fill="#8674FC"/>
<path fill-rule="evenodd" clip-rule="evenodd" d="M252.281 400.918H338.103C339.19 400.918 340.091 401.818 340.091 402.905V421.38C340.091 422.467 339.19 423.367 338.103 423.367H252.281C251.194 423.367 250.294 422.467 250.294 421.38V402.905C250.294 401.818 251.163 400.918 252.281 400.918Z" fill="#C4BBFA"/>
<path fill-rule="evenodd" clip-rule="evenodd" d="M252.281 400.7H338.103C338.693 400.7 339.252 400.949 339.656 401.352C340.06 401.756 340.308 402.284 340.308 402.905V421.379C340.308 421.969 340.06 422.528 339.656 422.932C339.252 423.336 338.724 423.584 338.103 423.584H252.281C251.691 423.584 251.132 423.336 250.729 422.932C250.325 422.528 250.077 422 250.077 421.379V402.905C250.077 402.315 250.325 401.756 250.729 401.352C251.132 400.949 251.66 400.7 252.281 400.7ZM338.072 401.104H252.281C251.784 401.104 251.35 401.321 251.008 401.632C250.698 401.942 250.48 402.408 250.48 402.905V421.379C250.48 421.876 250.667 422.311 251.008 422.653C251.319 422.963 251.784 423.18 252.281 423.18H338.103C338.6 423.18 339.035 422.994 339.376 422.653C339.687 422.342 339.904 421.876 339.904 421.379V402.905C339.904 402.408 339.718 401.973 339.376 401.632C339.035 401.321 338.569 401.104 338.072 401.104Z" fill="#604FCC"/>
<path fill-rule="evenodd" clip-rule="evenodd" d="M255.076 408.277H270.756C271.004 408.277 271.222 408.494 271.222 408.743V419.113C271.222 419.362 271.004 419.579 270.756 419.579H255.076C254.827 419.579 254.61 419.362 254.61 419.113V408.743C254.61 408.494 254.827 408.277 255.076 408.277ZM254.951 404.706H257.808C257.994 404.706 258.15 404.861 258.15 405.048V406.724C258.15 406.911 257.994 407.066 257.808 407.066H254.951C254.765 407.066 254.61 406.911 254.61 406.724V405.048C254.61 404.83 254.765 404.706 254.951 404.706ZM261.503 404.706H264.36C264.546 404.706 264.701 404.861 264.701 405.048V406.724C264.701 406.911 264.546 407.066 264.36 407.066H261.503C261.317 407.066 261.161 406.911 261.161 406.724V405.048C261.161 404.83 261.317 404.706 261.503 404.706ZM268.055 404.706H270.911C271.097 404.706 271.253 404.861 271.253 405.048V406.724C271.253 406.911 271.097 407.066 270.911 407.066H268.055C267.868 407.066 267.713 406.911 267.713 406.724V405.048C267.713 404.83 267.868 404.706 268.055 404.706Z" fill="#7864FA"/>
<path d="M279.264 403.185H276.997V421.069H279.264V403.185Z" fill="#E1DCFF"/>
<path d="M282.555 403.185H280.288V421.069H282.555V403.185Z" fill="#E1DCFF"/>
<path d="M285.815 403.185H283.548V421.069H285.815V403.185Z" fill="#E1DCFF"/>
<path d="M289.075 403.185H286.809V421.069H289.075V403.185Z" fill="#E1DCFF"/>
<path d="M292.367 403.185H290.1V421.069H292.367V403.185Z" fill="#E1DCFF"/>
<path d="M295.627 403.185H293.36V421.069H295.627V403.185Z" fill="#E1DCFF"/>
<path d="M298.887 403.185H296.621V421.069H298.887V403.185Z" fill="#E1DCFF"/>
<path d="M302.179 403.185H299.912V421.069H302.179V403.185Z" fill="#E1DCFF"/>
<path d="M305.439 403.185H303.172V421.069H305.439V403.185Z" fill="#E1DCFF"/>
<path d="M308.699 403.185H306.433V421.069H308.699V403.185Z" fill="#E1DCFF"/>
<path d="M279.264 408.369H276.997V416.877H279.264V408.369Z" fill="#8674FC"/>
<path d="M282.555 409.114H280.288V416.163H282.555V409.114Z" fill="#8674FC"/>
<path d="M285.815 406.973H283.548V418.275H285.815V406.973Z" fill="#8674FC"/>
<path d="M289.075 408.369H286.809V416.908H289.075V408.369Z" fill="#8674FC"/>
<path d="M292.367 410.48H290.1V414.765H292.367V410.48Z" fill="#8674FC"/>
<path d="M295.627 406.91H293.36V418.337H295.627V406.91Z" fill="#8674FC"/>
<path d="M298.887 408.587H296.621V416.691H298.887V408.587Z" fill="#8674FC"/>
<path d="M302.179 406.568H299.912V418.678H302.179V406.568Z" fill="#8674FC"/>
<path d="M305.439 407.065H303.172V418.15H305.439V407.065Z" fill="#8674FC"/>
<path d="M308.699 406.072H306.433V419.175H308.699V406.072Z" fill="#8674FC"/>
<path d="M312.549 403.185H310.283V421.069H312.549V403.185Z" fill="#E1DCFF"/>
<path d="M315.84 403.185H313.574V421.069H315.84V403.185Z" fill="#E1DCFF"/>
<path d="M319.101 403.185H316.834V421.069H319.101V403.185Z" fill="#E1DCFF"/>
<path d="M322.361 403.185H320.094V421.069H322.361V403.185Z" fill="#E1DCFF"/>
<path d="M325.652 403.185H323.386V421.069H325.652V403.185Z" fill="#E1DCFF"/>
<path d="M328.913 403.185H326.646V421.069H328.913V403.185Z" fill="#E1DCFF"/>
<path d="M312.549 410.48H310.283V414.765H312.549V410.48Z" fill="#8674FC"/>
<path d="M315.84 406.941H313.574V418.306H315.84V406.941Z" fill="#8674FC"/>
<path d="M319.101 408.587H316.834V416.691H319.101V408.587Z" fill="#8674FC"/>
<path d="M322.361 406.568H320.094V418.678H322.361V406.568Z" fill="#8674FC"/>
<path d="M325.652 407.065H323.386V418.15H325.652V407.065Z" fill="#8674FC"/>
<path d="M328.913 406.072H326.646V419.175H328.913V406.072Z" fill="#8674FC"/>
<path d="M332.483 403.185H330.217V421.069H332.483V403.185Z" fill="#E1DCFF"/>
<path d="M335.744 403.185H333.477V421.069H335.744V403.185Z" fill="#E1DCFF"/>
<path d="M332.483 408.369H330.217V416.877H332.483V408.369Z" fill="#8674FC"/>
<path d="M335.744 409.114H333.477V416.163H335.744V409.114Z" fill="#8674FC"/>
<path fill-rule="evenodd" clip-rule="evenodd" d="M252.281 430.291H338.103C339.19 430.291 340.091 431.191 340.091 432.278V450.753C340.091 451.84 339.19 452.74 338.103 452.74H252.281C251.194 452.74 250.294 451.84 250.294 450.753V432.278C250.294 431.191 251.163 430.291 252.281 430.291Z" fill="#C4BBFA"/>
<path fill-rule="evenodd" clip-rule="evenodd" d="M252.281 430.104H338.103C338.693 430.104 339.252 430.353 339.656 430.757C340.06 431.16 340.308 431.688 340.308 432.309V450.784C340.308 451.374 340.06 451.933 339.656 452.336C339.252 452.74 338.724 452.988 338.103 452.988H252.281C251.691 452.988 251.132 452.74 250.729 452.336C250.325 451.933 250.077 451.405 250.077 450.784V432.309C250.077 431.719 250.325 431.16 250.729 430.757C251.132 430.353 251.66 430.104 252.281 430.104ZM338.072 430.477H252.281C251.784 430.477 251.35 430.694 251.008 431.005C250.698 431.315 250.48 431.781 250.48 432.278V450.753C250.48 451.25 250.667 451.684 251.008 452.026C251.319 452.336 251.784 452.554 252.281 452.554H338.103C338.6 452.554 339.035 452.367 339.376 452.026C339.687 451.715 339.904 451.25 339.904 450.753V432.278C339.904 431.781 339.718 431.346 339.376 431.005C339.035 430.694 338.569 430.477 338.072 430.477Z" fill="#604FCC"/>
<path fill-rule="evenodd" clip-rule="evenodd" d="M255.076 437.65H270.756C271.004 437.65 271.222 437.867 271.222 438.116V448.486C271.222 448.735 271.004 448.952 270.756 448.952H255.076C254.827 448.952 254.61 448.735 254.61 448.486V438.116C254.61 437.867 254.827 437.65 255.076 437.65ZM254.951 434.079H257.808C257.994 434.079 258.15 434.234 258.15 434.421V436.097C258.15 436.284 257.994 436.439 257.808 436.439H254.951C254.765 436.439 254.61 436.284 254.61 436.097V434.421C254.61 434.234 254.765 434.079 254.951 434.079ZM261.503 434.079H264.36C264.546 434.079 264.701 434.234 264.701 434.421V436.097C264.701 436.284 264.546 436.439 264.36 436.439H261.503C261.317 436.439 261.161 436.284 261.161 436.097V434.421C261.161 434.234 261.317 434.079 261.503 434.079ZM268.055 434.079H270.911C271.097 434.079 271.253 434.234 271.253 434.421V436.097C271.253 436.284 271.097 436.439 270.911 436.439H268.055C267.868 436.439 267.713 436.284 267.713 436.097V434.421C267.713 434.234 267.868 434.079 268.055 434.079Z" fill="#7864FA"/>
<path d="M279.264 432.558H276.997V450.442H279.264V432.558Z" fill="#E1DCFF"/>
<path d="M282.555 432.558H280.288V450.442H282.555V432.558Z" fill="#E1DCFF"/>
<path d="M285.815 432.558H283.548V450.442H285.815V432.558Z" fill="#E1DCFF"/>
<path d="M289.075 432.558H286.809V450.442H289.075V432.558Z" fill="#E1DCFF"/>
<path d="M292.367 432.558H290.1V450.442H292.367V432.558Z" fill="#E1DCFF"/>
<path d="M295.627 432.558H293.36V450.442H295.627V432.558Z" fill="#E1DCFF"/>
<path d="M298.887 432.558H296.621V450.442H298.887V432.558Z" fill="#E1DCFF"/>
<path d="M302.179 432.558H299.912V450.442H302.179V432.558Z" fill="#E1DCFF"/>
<path d="M305.439 432.558H303.172V450.442H305.439V432.558Z" fill="#E1DCFF"/>
<path d="M308.699 432.558H306.433V450.442H308.699V432.558Z" fill="#E1DCFF"/>
<path d="M279.264 437.773H276.997V446.281H279.264V437.773Z" fill="#8674FC"/>
<path d="M282.555 438.488H280.288V445.537H282.555V438.488Z" fill="#8674FC"/>
<path d="M285.815 436.346H283.548V447.648H285.815V436.346Z" fill="#8674FC"/>
<path d="M289.075 437.743H286.809V446.282H289.075V437.743Z" fill="#8674FC"/>
<path d="M292.367 439.885H290.1V444.17H292.367V439.885Z" fill="#8674FC"/>
<path d="M295.627 436.283H293.36V447.71H295.627V436.283Z" fill="#8674FC"/>
<path d="M298.887 437.96H296.621V446.064H298.887V437.96Z" fill="#8674FC"/>
<path d="M302.179 435.942H299.912V448.052H302.179V435.942Z" fill="#8674FC"/>
<path d="M305.439 436.47H303.172V447.555H305.439V436.47Z" fill="#8674FC"/>
<path d="M308.699 435.445H306.433V448.548H308.699V435.445Z" fill="#8674FC"/>
<path d="M312.549 432.558H310.283V450.442H312.549V432.558Z" fill="#E1DCFF"/>
<path d="M315.84 432.558H313.574V450.442H315.84V432.558Z" fill="#E1DCFF"/>
<path d="M319.101 432.558H316.834V450.442H319.101V432.558Z" fill="#E1DCFF"/>
<path d="M322.361 432.558H320.094V450.442H322.361V432.558Z" fill="#E1DCFF"/>
<path d="M325.652 432.558H323.386V450.442H325.652V432.558Z" fill="#E1DCFF"/>
<path d="M328.913 432.558H326.646V450.442H328.913V432.558Z" fill="#E1DCFF"/>
<path d="M312.549 439.885H310.283V444.17H312.549V439.885Z" fill="#8674FC"/>
<path d="M315.84 436.346H313.574V447.71H315.84V436.346Z" fill="#8674FC"/>
<path d="M319.101 437.96H316.834V446.064H319.101V437.96Z" fill="#8674FC"/>
<path d="M322.361 435.942H320.094V448.052H322.361V435.942Z" fill="#8674FC"/>
<path d="M325.652 436.47H323.386V447.555H325.652V436.47Z" fill="#8674FC"/>
<path d="M328.913 435.445H326.646V448.548H328.913V435.445Z" fill="#8674FC"/>
<path d="M332.483 432.558H330.217V450.442H332.483V432.558Z" fill="#E1DCFF"/>
<path d="M335.744 432.558H333.477V450.442H335.744V432.558Z" fill="#E1DCFF"/>
<path d="M332.483 437.773H330.217V446.281H332.483V437.773Z" fill="#8674FC"/>
<path d="M335.744 438.488H333.477V445.537H335.744V438.488Z" fill="#8674FC"/>
<path fill-rule="evenodd" clip-rule="evenodd" d="M531.886 369.092L537.009 372.073C538.748 373.066 539.338 375.302 538.313 377.041L537.196 378.997C535.861 381.295 536.45 382.319 536.854 382.692C538.003 383.717 539.059 384.803 540.114 385.921C540.425 386.232 541.418 387.349 544.027 385.828L545.797 384.803C547.535 383.81 549.74 384.4 550.765 386.107L553.745 391.231C554.739 392.969 554.149 395.174 552.441 396.199L550.671 397.223C548.218 398.652 548.281 399.366 548.591 400.39C549.026 401.819 549.46 403.216 549.771 404.706C550.05 406.01 549.926 406.942 553.249 406.942H555.267C557.254 406.942 558.9 408.557 558.9 410.575V416.505C558.9 418.493 557.285 420.138 555.267 420.138H553.249C549.926 420.138 550.05 421.07 549.771 422.374C549.46 423.833 548.995 425.261 548.591 426.69C548.281 427.714 548.218 428.46 550.671 429.857L552.441 430.882C554.18 431.875 554.77 434.111 553.745 435.85L550.765 440.973C549.771 442.712 547.535 443.302 545.797 442.277L544.027 441.252C541.418 439.731 540.425 440.849 540.114 441.159C539.059 442.246 538.003 443.364 536.854 444.388C536.45 444.761 535.861 445.786 537.196 448.083L538.313 450.039C539.307 451.778 538.717 453.983 537.009 455.007L531.886 457.988C530.147 458.982 527.943 458.392 526.918 456.684L525.8 454.759C524.434 452.43 523.13 452.523 522.54 452.71C520.894 453.238 519.404 453.579 517.727 454.014C517.106 454.169 516.051 454.635 516.051 457.398V459.479C516.051 461.466 514.436 463.111 512.418 463.111H506.487C504.5 463.111 502.854 461.497 502.854 459.479V457.398C502.854 454.635 501.799 454.169 501.178 454.014C499.501 453.579 497.98 453.238 496.365 452.71C495.806 452.523 494.471 452.43 493.105 454.759L491.987 456.684C490.993 458.423 488.758 459.013 487.019 457.988L481.896 455.007C480.157 454.014 479.567 451.778 480.592 450.039L481.709 448.083C483.044 445.786 482.455 444.761 482.051 444.388C480.902 443.364 479.846 442.277 478.791 441.159C478.48 440.849 477.487 439.731 474.878 441.252L473.108 442.277C471.37 443.27 469.165 442.68 468.14 440.973L465.16 435.85C464.166 434.111 464.756 431.906 466.464 430.882L468.234 429.857C470.687 428.429 470.624 427.714 470.314 426.69C469.879 425.261 469.445 423.864 469.134 422.374C468.855 421.07 468.979 420.138 465.656 420.138H463.638C461.651 420.138 460.005 418.493 460.005 416.505V410.575C460.005 408.588 461.62 406.942 463.638 406.942H465.656C468.979 406.942 468.855 406.01 469.134 404.706C469.445 403.247 469.91 401.819 470.314 400.39C470.624 399.366 470.687 398.621 468.234 397.223L466.464 396.199C464.725 395.205 464.135 392.969 465.16 391.231L468.14 386.107C469.134 384.369 471.37 383.779 473.108 384.803L474.878 385.828C477.487 387.349 478.48 386.232 478.791 385.921C479.846 384.834 480.902 383.717 482.051 382.692C482.455 382.319 483.044 381.295 481.709 378.997L480.592 377.041C479.598 375.302 480.188 373.097 481.896 372.073L487.019 369.092C488.758 368.098 490.962 368.688 491.987 370.396L493.105 372.321C494.471 374.65 495.775 374.557 496.365 374.37C498.011 373.843 499.501 373.501 501.178 373.066C501.799 372.911 502.854 372.445 502.854 369.682V367.602C502.854 365.614 504.469 363.969 506.487 363.969H512.418C514.405 363.969 516.051 365.583 516.051 367.602V369.682C516.051 372.445 517.106 372.911 517.727 373.066C519.404 373.501 520.925 373.843 522.54 374.37C523.099 374.557 524.434 374.65 525.8 372.321L526.918 370.396C527.943 368.657 530.178 368.067 531.886 369.092ZM509.468 384.462C493.446 384.462 480.436 397.472 480.436 413.493C480.436 429.515 493.446 442.525 509.468 442.525C525.49 442.525 538.5 429.515 538.5 413.493C538.5 397.472 525.521 384.462 509.468 384.462Z" fill="#604FCC"/>
<path fill-rule="evenodd" clip-rule="evenodd" d="M525.149 359.094C523.875 359.187 521.919 358.939 521.547 358.504C520.212 356.796 519.28 355.026 518.939 353.909C519.187 353.163 519.466 352.232 519.746 351.083C524.59 347.792 525.273 345.339 521.733 343.755C521.019 344.159 520.149 345.37 519.094 347.45C518.255 347.419 517.603 346.985 517.169 346.146C518.162 342.669 518.814 339.843 519.125 337.701C516.734 334.161 511.145 333.633 503.724 334.596C503.382 336.552 503.103 338.663 502.886 340.868C501.954 341.706 499.284 355.927 508.382 356.486C508.444 357.541 508.35 358.815 508.288 358.939C508.195 359.156 507.792 359.373 507.295 359.56C507.171 364.435 513.101 364.248 525.149 359.094Z" fill="#8F7DFF"/>
<path fill-rule="evenodd" clip-rule="evenodd" d="M503.755 334.626C511.145 333.664 516.765 334.16 519.156 337.731C518.845 339.905 518.193 342.699 517.2 346.177C517.634 347.015 518.255 347.419 519.125 347.481C520.18 345.432 521.05 344.19 521.764 343.786C525.304 345.369 524.621 347.791 519.777 351.114C519.497 352.263 519.218 353.194 518.969 353.939C523.348 352.977 526.98 349.064 527.508 347.357C532.6 337.327 526.918 333.074 523.875 331.521C521.36 326.895 514.312 328.044 509.002 327.95C506.022 327.888 503.538 326.118 502.265 323.883C498.445 327.267 501.519 334.533 503.755 334.626Z" fill="#362891"/>
<path fill-rule="evenodd" clip-rule="evenodd" d="M459.322 376.699C462.986 392.38 469.413 404.551 478.635 413.214C481.958 412.221 484.907 409.954 487.454 406.414C487.36 415.294 487.485 424.113 487.888 432.931C492.204 437.713 498.104 441.066 504.748 442.153C507.947 441.718 511.393 440.88 515.057 439.7L519.559 434.142C520.708 433.924 523.347 435.198 524.62 437.154C535.177 429.081 542.319 420.418 546.511 411.817C545.362 393.311 542.878 378.718 538.966 368.036C537.009 365.025 532.383 362.044 525.117 359.125C513.07 364.279 507.139 364.435 507.263 359.622C503.724 360.771 499.035 362.851 493.167 365.801C488.292 369.496 484.131 379.556 480.685 395.95C475.096 388.964 469.32 381.543 463.297 373.687C462.024 374.029 460.688 375.054 459.322 376.699ZM522.012 429.112C518.504 417.592 520.429 403.371 527.819 386.48C529.682 394.832 531.669 403.03 533.842 411.103C531.327 412.314 527.384 418.306 522.012 429.112Z" fill="#5C44F5"/>
<path fill-rule="evenodd" clip-rule="evenodd" d="M517.51 441.407C516.765 440.91 515.958 440.32 515.088 439.699C511.425 440.879 507.978 441.718 504.78 442.152C506.301 442.401 507.885 442.525 509.499 442.525C512.263 442.525 514.964 442.121 517.51 441.407ZM524.869 438.116L524.621 437.153C524.434 437.588 524.279 438.054 524.155 438.551C524.403 438.395 524.652 438.24 524.869 438.116Z" fill="#4B3BB3"/>
<path fill-rule="evenodd" clip-rule="evenodd" d="M515.088 439.699C515.958 440.351 516.765 440.91 517.51 441.407C519.87 440.724 522.106 439.761 524.186 438.55C524.341 438.054 524.497 437.588 524.652 437.153C523.379 435.197 520.771 433.924 519.591 434.141L515.088 439.699Z" fill="#8F7DFF"/>
<path fill-rule="evenodd" clip-rule="evenodd" d="M487.454 406.413C487.826 395.391 488.696 386.355 490.093 379.307C486.522 394.273 483.076 404.209 479.722 409.115C477.611 409.053 474.94 407.811 471.68 405.358C473.792 408.245 476.089 410.853 478.604 413.213C481.958 412.22 484.907 409.953 487.454 406.413ZM519.59 434.141C520.242 432.526 521.05 430.881 522.012 429.142C518.504 417.622 520.429 403.401 527.819 386.51C517.106 401.756 514.063 417.995 518.69 435.259L519.59 434.141Z" fill="#4A30F0"/>
<path fill-rule="evenodd" clip-rule="evenodd" d="M513.257 355.492C512.077 356.082 510.462 356.424 508.382 356.517C508.413 357.2 508.382 358.007 508.351 358.504C510.431 358.1 512.077 357.107 513.257 355.492Z" fill="#7461F0"/>
<path fill-rule="evenodd" clip-rule="evenodd" d="M517.51 441.407C516.765 440.91 515.958 440.32 515.088 439.699C514.188 439.979 513.287 440.258 512.418 440.507C512.977 441.096 513.567 441.624 514.219 442.152C515.337 441.966 516.423 441.717 517.51 441.407Z" fill="#7764F0"/>
<path fill-rule="evenodd" clip-rule="evenodd" d="M459.323 376.699C459.105 376.14 458.205 374.402 457.304 372.228C455.1 371.11 453.361 368.626 452.026 364.807C452.802 362.261 454.479 360.646 456.994 360.025C457.863 363.192 459.136 365.49 460.813 366.981C460.378 363.689 460.937 362.665 462.428 363.876C462.21 364.31 462.21 364.838 462.397 365.459C463.421 367.136 463.328 369.03 462.117 371.141C462.583 372.104 463.08 373.066 463.297 373.594C461.993 374.06 460.72 375.023 459.323 376.699Z" fill="#8F7DFF"/>
<path fill-rule="evenodd" clip-rule="evenodd" d="M524.714 336.086C522.571 334.999 521.826 333.664 522.447 332.112C525.49 330.466 528.502 330.155 531.421 331.242C529.713 331.491 527.477 333.105 524.714 336.086Z" fill="#362891"/>
<path fill-rule="evenodd" clip-rule="evenodd" d="M523.348 332.142C524.062 332.701 524.652 332.732 525.086 332.266C525.148 330.962 524.776 329.875 523.906 329.068C524.124 329.689 523.938 330.713 523.348 332.142ZM506.798 328.664C503.631 330.279 502.513 332.235 503.445 334.501C507.947 336.954 512.387 337.358 516.703 335.775C514.157 335.464 510.865 333.104 506.798 328.664Z" fill="#362891"/>
<path fill-rule="evenodd" clip-rule="evenodd" d="M512.511 340.215C513.008 340.184 513.412 340.743 513.412 341.426C513.412 342.109 513.008 342.699 512.511 342.73C512.014 342.761 511.611 342.202 511.611 341.519C511.611 340.836 512.014 340.246 512.511 340.215Z" fill="#C4BBFA"/>
<path fill-rule="evenodd" clip-rule="evenodd" d="M512.48 342.761C512.977 342.73 513.381 342.14 513.381 341.457C513.381 340.774 512.977 340.215 512.48 340.246C512.263 340.246 512.077 340.37 511.921 340.556L511.983 340.525C512.139 340.525 512.263 340.681 512.263 340.929C512.263 341.146 512.139 341.333 511.983 341.364C511.828 341.364 511.704 341.208 511.704 340.96V340.929C511.611 341.115 511.58 341.333 511.58 341.581C511.611 342.233 511.983 342.792 512.48 342.761ZM511.021 339.252C510.99 339.283 510.959 339.283 510.959 339.314C510.99 339.19 511.145 339.066 511.176 338.973C511.114 339.004 511.083 339.035 511.021 339.097C510.959 339.159 510.928 339.221 510.897 339.283C510.897 339.19 510.928 339.128 510.928 339.066C510.897 339.128 510.866 339.221 510.835 339.314C510.866 339.066 510.866 339.066 510.959 338.849C510.866 338.911 510.773 339.128 510.741 339.252C510.71 339.19 510.741 339.128 510.741 339.035C510.71 339.128 510.679 339.159 510.679 339.252L510.617 339.159C510.617 339.221 510.648 339.221 510.648 339.283C510.555 339.19 510.369 338.849 510.4 338.662C510.4 338.724 510.462 338.88 510.493 338.911C510.493 338.787 510.462 338.662 510.493 338.507C510.524 338.6 510.493 338.724 510.524 338.818C510.555 338.911 510.555 339.035 510.617 339.097C510.586 338.88 510.555 338.724 510.617 338.507V338.569C510.617 338.662 510.586 338.787 510.617 338.911C510.648 338.724 510.648 338.538 510.804 338.414C510.773 338.476 510.741 338.538 510.71 338.631C510.804 338.538 510.835 338.383 510.959 338.383C510.897 338.445 510.835 338.507 510.773 338.6C510.71 338.662 510.648 338.818 510.679 338.911C510.773 338.569 510.99 338.414 511.207 338.352C511.145 338.383 510.959 338.507 510.928 338.6C510.928 338.693 510.959 338.507 510.928 338.631C510.897 338.662 510.835 338.724 510.804 338.787C510.773 338.818 510.773 338.88 510.741 338.911C510.741 338.942 510.71 338.973 510.71 338.973C510.71 339.004 510.71 339.004 510.71 339.004V339.035C510.804 338.818 510.866 338.693 511.021 338.569C511.114 338.507 511.331 338.383 511.456 338.383L511.362 338.414C511.114 338.538 510.866 338.662 510.773 339.004C510.773 339.004 510.773 339.004 510.804 338.973C510.804 338.973 510.804 338.973 510.804 338.942C510.866 338.849 510.928 338.755 510.99 338.662C511.083 338.569 511.176 338.507 511.269 338.476C511.394 338.414 511.735 338.29 511.921 338.352C511.859 338.352 511.549 338.414 511.487 338.445C511.362 338.476 511.207 338.538 511.114 338.662C511.176 338.662 511.207 338.631 511.269 338.6C511.58 338.476 512.108 338.29 512.449 338.352C512.263 338.383 511.983 338.445 511.828 338.538L511.952 338.507C511.921 338.507 511.89 338.538 511.859 338.569C511.828 338.569 511.797 338.6 511.766 338.6C511.58 338.693 511.331 338.849 511.238 339.035C511.269 339.004 511.331 338.942 511.394 338.911C511.456 338.88 511.487 338.818 511.549 338.787C511.673 338.724 511.766 338.631 511.89 338.6C512.139 338.507 512.387 338.414 512.667 338.352C512.636 338.352 512.604 338.383 512.542 338.414C512.76 338.414 513.132 338.259 513.691 338.29C513.567 338.321 513.381 338.321 513.225 338.352L513.101 338.383C513.163 338.383 513.412 338.352 513.505 338.321C513.971 338.259 514.281 338.228 514.809 338.29C515.151 338.321 515.461 338.352 515.772 338.538C515.989 338.662 516.175 338.786 516.33 338.973C516.393 339.035 516.424 339.066 516.455 339.128C516.33 339.035 516.051 338.693 515.772 338.6C516.206 338.942 516.548 339.221 516.827 339.625C516.734 339.563 516.641 339.408 516.548 339.345C516.455 339.252 516.362 339.159 516.237 339.066C516.051 338.911 515.741 338.662 515.492 338.569C515.554 338.631 515.709 338.724 515.772 338.787C516.299 339.19 516.796 339.625 517.262 340.122C517.324 340.184 517.417 340.339 517.448 340.37C517.386 340.339 517.2 340.153 517.138 340.091C516.796 339.78 516.486 339.501 516.051 339.314C516.144 339.439 516.92 339.842 517.169 340.122L516.517 339.687C516.33 339.563 515.989 339.376 515.741 339.314C515.989 339.408 516.983 339.997 517.169 340.215C517.076 340.153 516.92 340.06 516.796 339.997C516.672 339.904 516.548 339.842 516.393 339.78C516.113 339.625 515.834 339.501 515.523 339.439C515.12 339.345 514.747 339.314 514.343 339.314C514.219 339.314 514.064 339.345 513.971 339.314C514.033 339.283 514.219 339.283 514.312 339.283C514.53 339.252 514.778 339.283 514.995 339.283C515.088 339.283 515.275 339.345 515.337 339.314C515.057 339.221 514.84 339.221 514.623 339.159C514.654 339.159 514.623 339.159 514.654 339.159C514.685 339.159 514.654 339.159 514.685 339.159C514.53 339.128 514.25 339.159 514.126 339.19C513.971 339.221 513.629 339.314 513.629 339.314C513.66 339.283 513.722 339.283 513.753 339.252L513.35 339.314L513.846 339.159C513.753 339.159 513.629 339.221 513.536 339.221C513.412 339.252 513.194 339.283 513.07 339.314C512.946 339.345 512.698 339.376 512.573 339.345C512.604 339.314 512.791 339.283 512.853 339.252L513.132 339.19C513.194 339.159 513.225 339.159 513.257 339.159C513.381 339.097 513.505 339.066 513.629 339.004C513.846 338.911 514.53 338.755 514.778 338.88C514.467 338.755 513.815 338.911 513.598 338.973L513.07 339.159C513.008 339.159 512.977 339.19 512.946 339.221C512.822 339.252 512.667 339.314 512.542 339.345V339.314C512.48 339.345 512.356 339.376 512.294 339.376C512.418 339.252 512.76 339.19 512.884 339.035C512.76 339.066 512.636 339.159 512.542 339.221C512.511 339.252 512.48 339.252 512.418 339.283C512.511 339.128 512.698 339.004 512.822 338.911L512.977 338.818C512.853 338.818 512.698 338.942 512.573 339.035C512.48 339.128 512.387 339.221 512.294 339.314C512.294 339.314 512.294 339.314 512.263 339.345C512.232 339.376 512.263 339.345 512.232 339.345L512.356 339.128C512.325 339.159 512.17 339.345 512.139 339.408C512.17 339.283 512.232 339.221 512.294 339.128L512.201 339.19C512.325 338.973 512.636 338.849 512.822 338.724C512.636 338.724 512.294 338.973 512.17 339.128C512.108 339.221 512.077 339.314 512.015 339.376L512.077 339.221L511.983 339.314C512.077 339.097 512.17 339.004 512.294 338.849C512.232 338.849 512.201 338.88 512.139 338.942C512.108 338.973 512.046 339.035 512.015 339.066C511.952 339.159 511.859 339.283 511.828 339.408C511.828 339.345 511.859 339.252 511.89 339.19C511.859 339.19 511.89 339.19 511.859 339.221C511.797 339.252 511.766 339.345 511.735 339.408L511.766 339.283L511.673 339.408C511.704 339.283 511.735 339.221 511.766 339.128C511.704 339.159 511.673 339.252 511.611 339.345C511.611 339.314 511.611 339.252 511.642 339.19L511.549 339.283C511.518 339.314 511.487 339.345 511.456 339.376C511.487 339.252 511.549 339.221 511.58 339.128C511.487 339.19 511.425 339.283 511.362 339.408C511.394 339.283 511.487 339.097 511.58 339.004C511.456 339.004 511.362 339.314 511.331 339.376V339.252C511.331 339.252 511.331 339.252 511.3 339.283L511.238 339.408L511.269 339.221C511.238 339.252 511.207 339.314 511.176 339.376C511.176 339.376 511.176 339.221 511.207 339.159C511.176 339.159 511.207 339.159 511.176 339.19C511.114 339.221 511.114 339.314 511.052 339.345L511.114 339.221C511.083 339.221 511.114 339.221 511.083 339.221L511.021 339.252Z" fill="#2612A3"/>
<path fill-rule="evenodd" clip-rule="evenodd" d="M504.687 339.222C504.221 339.253 503.848 339.843 503.848 340.526C503.848 341.209 504.221 341.768 504.655 341.737C505.121 341.706 505.494 341.116 505.494 340.433C505.525 339.719 505.152 339.191 504.687 339.222Z" fill="#C4BBFA"/>
<path fill-rule="evenodd" clip-rule="evenodd" d="M504.686 341.737C504.221 341.768 503.848 341.209 503.879 340.526C503.879 339.843 504.252 339.253 504.717 339.222C504.904 339.222 505.09 339.284 505.214 339.47H505.152C504.997 339.47 504.873 339.656 504.873 339.905C504.873 340.122 504.997 340.308 505.152 340.308C505.307 340.308 505.432 340.122 505.432 339.874V339.812C505.494 339.998 505.556 340.215 505.556 340.464C505.525 341.116 505.121 341.706 504.686 341.737ZM506.643 339.004C506.674 339.035 506.674 339.035 506.674 339.066C506.674 338.942 506.58 338.787 506.549 338.694C506.58 338.756 506.611 338.756 506.643 338.849C506.674 338.911 506.674 338.973 506.705 339.066C506.705 338.973 506.705 338.911 506.705 338.849C506.736 338.911 506.736 339.035 506.736 339.097C506.736 338.849 506.736 338.849 506.705 338.601C506.767 338.694 506.798 338.911 506.798 339.035C506.829 338.973 506.829 338.911 506.829 338.849C506.86 338.942 506.86 338.973 506.829 339.066L506.891 338.973C506.891 339.035 506.86 339.035 506.86 339.097C506.953 339.004 507.108 338.694 507.108 338.539C507.077 338.601 507.046 338.725 507.015 338.787C507.046 338.663 507.077 338.539 507.077 338.383C507.046 338.476 507.046 338.601 507.015 338.694C506.984 338.787 506.953 338.911 506.922 338.942C506.953 338.725 507.015 338.57 506.984 338.352V338.414C506.984 338.508 506.984 338.632 506.953 338.725C506.953 338.539 506.984 338.352 506.891 338.197C506.922 338.29 506.922 338.321 506.953 338.414C506.891 338.321 506.891 338.166 506.798 338.135C506.829 338.197 506.86 338.259 506.891 338.383C506.922 338.476 506.953 338.601 506.922 338.694C506.891 338.352 506.767 338.135 506.611 338.073C506.643 338.104 506.767 338.259 506.767 338.352C506.767 338.445 506.767 338.259 506.767 338.383C506.798 338.414 506.829 338.508 506.829 338.57C506.829 338.601 506.86 338.663 506.86 338.694C506.86 338.725 506.86 338.756 506.86 338.756C506.86 338.787 506.86 338.787 506.86 338.787V338.818C506.829 338.57 506.798 338.445 506.705 338.321C506.643 338.228 506.518 338.073 506.425 338.073L506.487 338.135C506.643 338.29 506.798 338.476 506.829 338.787C506.829 338.787 506.829 338.787 506.829 338.756C506.829 338.756 506.829 338.756 506.829 338.725C506.798 338.632 506.767 338.508 506.736 338.445C506.674 338.352 506.611 338.259 506.58 338.197C506.518 338.135 506.27 337.949 506.146 337.98C506.177 337.98 506.425 338.104 506.456 338.135C506.549 338.197 506.643 338.29 506.705 338.414C506.674 338.383 506.643 338.352 506.611 338.321C506.394 338.166 506.053 337.886 505.804 337.886C505.928 337.949 506.146 338.042 506.239 338.166L506.146 338.135C506.177 338.166 506.177 338.166 506.208 338.197C506.239 338.228 506.239 338.228 506.27 338.259C506.394 338.383 506.549 338.57 506.611 338.756C506.58 338.694 506.549 338.663 506.518 338.601C506.487 338.539 506.456 338.508 506.425 338.445C506.363 338.352 506.27 338.259 506.208 338.197C506.053 338.042 505.897 337.918 505.68 337.855C505.711 337.887 505.742 337.887 505.742 337.949C505.587 337.918 505.338 337.7 504.935 337.638C505.028 337.7 505.152 337.731 505.245 337.762L505.338 337.824C505.276 337.824 505.121 337.731 505.059 337.7C504.717 337.576 504.531 337.483 504.159 337.452C503.91 337.421 503.693 337.421 503.444 337.545C503.289 337.638 503.134 337.731 503.01 337.886C502.948 337.949 502.948 337.98 502.885 338.042C502.979 337.98 503.227 337.669 503.413 337.638C503.072 337.887 502.792 338.135 502.544 338.507C502.606 338.445 502.699 338.321 502.761 338.259C502.854 338.166 502.917 338.104 503.01 338.042C503.165 337.918 503.413 337.731 503.6 337.669C503.569 337.731 503.444 337.793 503.382 337.824C502.979 338.135 502.575 338.508 502.171 338.911C502.14 338.973 502.047 339.097 502.016 339.128C502.047 339.097 502.202 338.942 502.264 338.88C502.544 338.632 502.792 338.414 503.134 338.29C503.041 338.383 502.451 338.694 502.264 338.911L502.761 338.57C502.917 338.476 503.165 338.321 503.351 338.321C503.165 338.352 502.42 338.818 502.264 338.973C502.358 338.942 502.451 338.849 502.544 338.818C502.637 338.756 502.73 338.725 502.854 338.663C503.072 338.57 503.289 338.476 503.506 338.476C503.786 338.445 504.065 338.476 504.345 338.539C504.438 338.57 504.531 338.601 504.593 338.601C504.562 338.539 504.407 338.539 504.376 338.507C504.221 338.445 504.065 338.414 503.879 338.414C503.817 338.414 503.662 338.414 503.631 338.414C503.848 338.352 503.972 338.383 504.159 338.383C504.127 338.383 504.159 338.383 504.127 338.383C504.096 338.383 504.127 338.383 504.096 338.352C504.19 338.352 504.407 338.414 504.5 338.476C504.624 338.539 504.842 338.694 504.842 338.694C504.811 338.663 504.78 338.632 504.78 338.601L505.059 338.725L504.717 338.507C504.78 338.539 504.873 338.601 504.935 338.632C505.028 338.663 505.183 338.756 505.245 338.787C505.338 338.849 505.494 338.911 505.587 338.911C505.556 338.88 505.463 338.818 505.401 338.787L505.214 338.663C505.183 338.632 505.152 338.632 505.121 338.601C505.028 338.539 504.966 338.476 504.873 338.414C504.717 338.29 504.252 338.042 504.096 338.104C504.314 338.011 504.748 338.259 504.904 338.383L505.276 338.663C505.307 338.694 505.338 338.694 505.369 338.725C505.463 338.787 505.556 338.849 505.649 338.911V338.88C505.68 338.911 505.773 338.973 505.804 339.004C505.711 338.88 505.494 338.725 505.432 338.57C505.494 338.601 505.587 338.725 505.649 338.818C505.68 338.849 505.711 338.849 505.711 338.88C505.649 338.725 505.556 338.57 505.463 338.445L505.369 338.321C505.463 338.352 505.556 338.476 505.618 338.57C505.68 338.663 505.742 338.787 505.773 338.911C505.773 338.911 505.773 338.911 505.773 338.942C505.773 338.973 505.773 338.942 505.804 338.973L505.742 338.756C505.742 338.787 505.866 339.004 505.866 339.066C505.866 338.942 505.804 338.849 505.804 338.756L505.866 338.818C505.804 338.601 505.587 338.414 505.494 338.259C505.618 338.29 505.835 338.57 505.897 338.787C505.928 338.88 505.959 338.973 505.99 339.066L505.959 338.88L506.022 339.004C505.99 338.787 505.928 338.663 505.835 338.507C505.866 338.539 505.897 338.57 505.928 338.601C505.959 338.632 505.99 338.694 505.99 338.756C506.022 338.88 506.053 338.973 506.084 339.128C506.084 339.066 506.084 338.973 506.053 338.911C506.084 338.911 506.053 338.911 506.084 338.942C506.115 338.973 506.146 339.066 506.146 339.128V339.004L506.208 339.128C506.208 339.004 506.177 338.942 506.177 338.818C506.208 338.88 506.239 338.973 506.239 339.066C506.239 339.035 506.239 338.942 506.239 338.911L506.301 339.035C506.301 339.066 506.332 339.129 506.332 339.16C506.332 339.035 506.301 338.973 506.27 338.88C506.332 338.942 506.363 339.066 506.394 339.191C506.394 339.066 506.332 338.849 506.301 338.756C506.363 338.787 506.394 339.097 506.425 339.16V339.035C506.425 339.035 506.425 339.035 506.425 339.066L506.456 339.222V339.035C506.487 339.097 506.487 339.16 506.487 339.222C506.487 339.222 506.487 339.066 506.487 339.004C506.487 339.004 506.487 339.004 506.518 339.035C506.549 339.097 506.549 339.16 506.58 339.222L506.549 339.066C506.549 339.066 506.549 339.066 506.58 339.097L506.643 339.004Z" fill="#2612A3"/>
<path d="M507.543 341.736C507.109 342.109 505.152 346.673 505.183 347.108C505.215 348.567 506.736 348.226 507.046 348.474" stroke="#8674FC" stroke-width="0.2" stroke-miterlimit="2.613" stroke-linecap="round" stroke-linejoin="round"/>
<path fill-rule="evenodd" clip-rule="evenodd" d="M509.189 351.144C506.457 352.511 504.842 352.448 504.19 351.113C506.208 351.486 507.885 351.486 509.189 351.144Z" fill="#8674FC"/>
<path fill-rule="evenodd" clip-rule="evenodd" d="M444.698 400.7H497.266C498.29 400.7 499.377 401.539 499.657 402.594L509.003 438.209C509.282 439.233 508.661 440.103 507.605 440.103H455.038C454.013 440.103 452.926 439.264 452.647 438.209L443.301 402.594C443.021 401.57 443.642 400.7 444.698 400.7Z" fill="#B0A4FC"/>
<path fill-rule="evenodd" clip-rule="evenodd" d="M507.108 425.913L500.774 401.725C500.495 400.7 499.439 399.831 498.383 399.831H494.751H445.816C444.791 399.831 442.928 401.166 443.239 402.191C443.176 401.321 443.766 400.669 444.698 400.669H497.266C498.29 400.669 499.377 401.508 499.656 402.563L509.002 438.178C509.158 438.799 509.002 439.358 508.63 439.699C509.499 439.14 510.307 438.054 510.12 437.339L507.108 425.913Z" fill="#7261E0"/>
<path fill-rule="evenodd" clip-rule="evenodd" d="M507.605 440.103H455.037C454.851 440.103 454.665 440.072 454.447 440.01C455.503 442.712 458.329 442.308 459.446 442.308H521.764C525.148 442.153 525.055 439.793 525.086 437.526H510.12C510.182 438.24 509.406 439.234 508.599 439.731C508.35 439.948 508.009 440.103 507.605 440.103ZM500.246 415.356C494.595 418.213 487.95 419.082 481.088 419.424C481.15 419.672 481.212 419.921 481.275 420.169C481.74 423.057 479.691 425.51 476.741 425.51C473.978 425.51 471.463 423.305 471.028 420.573C470.966 420.262 470.966 419.983 470.966 419.703C463.856 419.89 456.962 420.293 451.28 422.498L455.193 437.402H506.052L500.246 415.356Z" fill="#7261E0"/>
<path fill-rule="evenodd" clip-rule="evenodd" d="M475.593 417.002C477.487 417.002 479.257 418.523 479.536 420.417C479.847 422.312 478.543 423.833 476.68 423.833C474.785 423.833 473.016 422.312 472.736 420.417C472.426 418.523 473.73 417.002 475.593 417.002Z" fill="#7261E0"/>
<path d="M179.283 215.611H141.806V235.452H179.283V215.611Z" fill="white"/>
<path d="M179.283 241.104H141.806V249.611H179.283V241.104Z" fill="white"/>
<path fill-rule="evenodd" clip-rule="evenodd" d="M161.678 217.692C160.901 216.481 160.218 215.58 159.597 215.052C162.578 213.438 164.224 211.668 164.565 209.712C165 210.085 165.373 210.55 165.683 211.109C164.534 213.748 163.199 215.922 161.678 217.692ZM157.486 217.692C158.262 216.481 158.945 215.58 159.566 215.052C156.585 213.438 154.94 211.668 154.598 209.712C154.164 210.085 153.791 210.55 153.48 211.109C154.629 213.748 155.933 215.922 157.486 217.692Z" fill="#604FCC"/>
<path fill-rule="evenodd" clip-rule="evenodd" d="M183.816 220.237C180.587 215.797 174.532 212.754 165.621 211.108C164.503 213.748 163.199 215.952 161.647 217.691C160.87 216.48 160.187 215.58 159.566 215.052C158.945 215.58 158.231 216.449 157.486 217.691C155.933 215.952 154.629 213.748 153.512 211.108C144.6 212.754 138.545 215.797 135.316 220.237C132.863 227.441 131.218 233.154 130.441 237.346C133.05 237.905 136.061 238.557 139.446 239.333C138.98 247.468 138.887 254.392 139.104 260.136C143.855 261.534 150.5 263.987 158.386 267.278C158.79 267.278 159.194 267.247 159.566 267.216C159.939 267.247 160.343 267.278 160.746 267.278C168.664 263.955 175.278 261.503 180.028 260.136C180.246 254.392 180.121 247.437 179.687 239.333C183.071 238.557 186.083 237.905 188.691 237.346C187.915 233.123 186.3 227.441 183.816 220.237Z" fill="#988BE9"/>
<path fill-rule="evenodd" clip-rule="evenodd" d="M178.259 225.733C178.88 229.801 179.376 234.334 179.687 239.333C180.122 239.24 180.525 239.147 180.96 239.054C180.401 235.949 179.501 231.509 178.259 225.733ZM140.905 225.733C140.284 229.801 139.788 234.334 139.477 239.333C139.042 239.24 138.639 239.147 138.204 239.054C138.763 235.949 139.663 231.509 140.905 225.733Z" fill="#7261E0"/>
<path fill-rule="evenodd" clip-rule="evenodd" d="M178.01 276.035C178.972 278.488 177.203 282.4 176.023 283.207C154.257 281.034 140.688 277.96 132.304 273.737C129.82 272.34 125.442 271.75 122.772 270.011C116.345 263.242 121.157 254.331 127.523 254.765C131.994 255.635 134.074 256.908 136.185 259.423C143.824 261.1 159.349 267.278 178.01 276.035Z" fill="#5745C6"/>
<path fill-rule="evenodd" clip-rule="evenodd" d="M201.142 279.667C202.012 285.598 194.591 286.56 179.345 283.952C185.772 281.841 186.611 279.978 181.829 276.997C195.119 274.575 201.173 274.606 201.142 279.667ZM117.99 279.667C117.121 285.598 124.542 286.56 139.787 283.952C133.36 281.841 132.522 279.978 137.303 276.997C124.045 274.575 117.99 274.606 117.99 279.667Z" fill="#362891"/>
<path fill-rule="evenodd" clip-rule="evenodd" d="M176.303 282.959C177.576 283.207 178.6 283.549 179.377 283.952C185.804 281.841 186.642 279.978 181.861 276.997C180.774 277.059 179.563 276.904 178.197 276.562C178.662 278.798 177.358 281.903 176.303 282.959ZM142.862 282.959C141.589 283.207 140.564 283.549 139.788 283.952C133.361 281.841 132.522 279.978 137.304 276.997C138.391 277.059 139.602 276.904 140.968 276.562C140.502 278.798 141.806 281.903 142.862 282.959ZM187.915 250.915C188.443 246.63 188.319 242.19 187.512 237.595C185.525 238.029 183.351 238.495 180.96 239.023C180.557 239.116 180.122 239.209 179.687 239.302C180.122 247.158 180.246 253.927 180.06 259.578C183.972 256.442 186.58 253.554 187.915 250.915ZM131.249 250.915C130.721 246.63 130.845 242.19 131.653 237.595C133.64 238.029 135.813 238.495 138.204 239.023C138.608 239.116 139.043 239.209 139.477 239.302C139.043 247.158 138.918 253.927 139.105 259.578C135.192 256.442 132.584 253.554 131.249 250.915Z" fill="#8F7DFF"/>
<path fill-rule="evenodd" clip-rule="evenodd" d="M181.953 249.766C181.922 246.692 181.798 243.059 181.612 238.898C181.394 238.961 181.177 238.992 180.959 239.054C180.556 239.147 180.121 239.24 179.686 239.333C179.966 244.177 180.121 248.617 180.152 252.623C180.494 252.219 180.928 251.722 181.394 251.163C182.76 250.604 184.096 250.294 185.431 250.325C183.878 249.828 182.729 249.642 181.953 249.766ZM137.21 249.766C137.241 246.692 137.365 243.059 137.552 238.898C137.769 238.961 137.986 238.992 138.204 239.054C138.607 239.147 139.042 239.24 139.477 239.333C139.197 244.177 139.042 248.617 139.011 252.623C138.669 252.219 138.235 251.722 137.769 251.163C136.434 250.604 135.068 250.294 133.732 250.325C135.285 249.828 136.434 249.642 137.21 249.766Z" fill="#7461F0"/>
<path fill-rule="evenodd" clip-rule="evenodd" d="M139.694 241.538H179.438C179.81 241.538 180.121 241.849 180.121 242.221V260.106C175.37 261.472 168.726 263.956 160.777 267.279H158.355C150.406 263.956 143.761 261.503 139.011 260.106V242.221C139.011 241.849 139.321 241.538 139.694 241.538Z" fill="#7261E0"/>
<path fill-rule="evenodd" clip-rule="evenodd" d="M140.874 260.665C145.439 262.093 151.4 264.36 158.356 267.247L158.418 267.278L158.883 267.247H159.567H160.25L160.715 267.278C167.702 264.36 173.694 262.093 178.259 260.665V245.885C175.65 249.207 170.434 251.94 163.789 253.554C163.82 253.771 163.851 253.989 163.851 254.206C163.851 256.597 161.926 258.522 159.535 258.522C157.393 258.522 155.623 256.97 155.282 254.951C153.357 255.138 151.4 255.231 149.351 255.231C146.37 255.231 143.514 255.045 140.781 254.672V260.665H140.874Z" fill="#361ED1"/>
<path fill-rule="evenodd" clip-rule="evenodd" d="M155.437 189.591C158.107 193.317 162.361 196.608 168.198 199.434C166.739 203.812 164.534 208.066 159.722 208.842C155.126 208.097 152.58 204.774 151.524 200.055C154.008 197.291 155.313 193.783 155.437 189.591Z" fill="#8F7DFF"/>
<path fill-rule="evenodd" clip-rule="evenodd" d="M161.243 196.857C164.503 196.049 164.069 196.143 166.615 197.664C165.745 196.018 164.224 195.459 162.485 195.801C161.678 195.987 161.554 195.956 161.243 196.857Z" fill="#2612A3"/>
<path fill-rule="evenodd" clip-rule="evenodd" d="M172.887 191.951C172.887 184.592 166.863 178.568 159.505 178.568C152.146 178.568 146.122 184.592 146.122 191.951V213.003C148.327 212.227 150.78 211.606 153.481 211.109C153.791 210.581 154.164 210.115 154.599 209.712C154.909 211.637 156.586 213.406 159.567 215.052C162.548 213.438 164.193 211.668 164.535 209.712C164.969 210.084 165.342 210.55 165.653 211.109C168.323 211.606 170.745 212.227 172.887 212.972V191.951ZM155.437 189.591C158.107 193.317 162.361 196.608 168.199 199.434C166.739 203.812 164.535 208.066 159.722 208.842C155.127 208.097 152.58 204.775 151.525 200.055C154.009 197.292 155.313 193.783 155.437 189.591Z" fill="#362891"/>
<path fill-rule="evenodd" clip-rule="evenodd" d="M164.534 209.712C164.192 209.184 163.975 208.252 163.82 206.917C162.702 207.88 161.367 208.563 159.721 208.842C157.796 208.532 156.212 207.755 154.97 206.638C154.939 207.849 154.815 208.904 154.629 209.712C154.939 211.637 156.616 213.407 159.597 215.052C162.547 213.438 164.223 211.668 164.534 209.712Z" fill="#8F7DFF"/>
<path fill-rule="evenodd" clip-rule="evenodd" d="M163.975 207.942C163.913 207.631 163.882 207.29 163.851 206.917C162.733 207.88 161.398 208.563 159.752 208.842C157.827 208.532 156.244 207.755 155.002 206.638C155.002 207.072 154.971 207.476 154.939 207.88C156.088 208.656 157.703 209.339 159.814 209.867C161.087 209.494 162.485 208.997 163.975 207.942Z" fill="#7461F0"/>
<path fill-rule="evenodd" clip-rule="evenodd" d="M146.153 203.408H152.207L151.431 228.062H148.606L149.133 220.051L147.736 228.062H143.917C145.314 222.286 146.618 209.587 146.153 203.408ZM166.894 203.718L172.545 203.222C172.421 212.071 172.545 222.411 173.539 228.403H170.682L170.465 227.658L170.123 228.403H169.099L168.384 223.249L168.198 228.403H166.118L166.894 203.718Z" fill="#362891"/>
<path fill-rule="evenodd" clip-rule="evenodd" d="M159.566 251.474C161.119 251.474 162.361 252.716 162.361 254.268C162.361 255.821 161.119 257.063 159.566 257.063C158.014 257.063 156.772 255.821 156.772 254.268C156.803 252.716 158.045 251.474 159.566 251.474Z" fill="#361ED1"/>
<path fill-rule="evenodd" clip-rule="evenodd" d="M141.153 276.035C140.191 278.488 141.96 282.4 143.14 283.207C164.906 281.034 178.475 277.96 186.859 273.737C189.343 272.34 193.721 271.75 196.391 270.011C202.818 263.242 198.006 254.331 191.64 254.765C187.169 255.635 185.089 256.908 182.978 259.423C175.339 261.1 159.814 267.278 141.153 276.035Z" fill="#5745C6"/>
<path fill-rule="evenodd" clip-rule="evenodd" d="M158.138 267.185C146.246 271.811 136.869 273.674 130.038 272.774C130.876 273.053 131.653 273.364 132.305 273.736C134.509 274.854 137.024 275.879 140.005 276.81C140.347 276.748 140.688 276.686 141.03 276.593C141.061 276.406 141.123 276.22 141.185 276.034C147.799 272.929 154.009 270.165 159.598 267.806C159.194 267.65 158.821 267.464 158.418 267.309C158.387 267.309 158.387 267.278 158.356 267.278C158.263 267.247 158.2 267.216 158.138 267.185ZM178.259 277.09C173.229 278.642 167.112 279.977 159.598 281.157C164.473 281.902 169.937 282.585 176.023 283.206C176.116 283.144 176.209 283.082 176.303 282.958C177.296 281.964 178.476 279.263 178.259 277.09Z" fill="#4B3BB3"/>
<path fill-rule="evenodd" clip-rule="evenodd" d="M156.058 198.223C155.716 198.254 155.405 197.882 155.374 197.416C155.343 196.95 155.623 196.547 155.964 196.547C156.306 196.516 156.616 196.888 156.647 197.354C156.679 197.82 156.399 198.192 156.058 198.223ZM163.106 198.534C163.447 198.565 163.758 198.223 163.789 197.758C163.82 197.292 163.572 196.888 163.23 196.857C162.889 196.826 162.578 197.168 162.547 197.633C162.516 198.099 162.764 198.503 163.106 198.534Z" fill="#2612A3"/>
<path fill-rule="evenodd" clip-rule="evenodd" d="M158.137 196.764C155.188 195.428 155.591 195.584 152.952 196.67C154.039 195.211 155.56 194.901 157.144 195.522C157.858 195.801 157.982 195.801 158.137 196.764Z" fill="#2612A3"/>
<path d="M159.008 199.186C158.883 200.552 158.573 201.266 158.511 201.794C158.449 202.446 158.573 202.539 159.101 202.57C159.411 202.601 159.566 202.632 159.566 202.632" stroke="#8674FC" stroke-width="0.138" stroke-miterlimit="2.613" stroke-linecap="round"/>
<path fill-rule="evenodd" clip-rule="evenodd" d="M162.796 204.558C158.883 204.899 155.871 204.558 156.834 204.713C157.89 205.179 160.56 205.148 162.796 204.558Z" fill="white"/>
<path fill-rule="evenodd" clip-rule="evenodd" d="M156.089 197.416C156.151 197.416 156.182 197.571 156.182 197.758C156.182 197.944 156.089 198.068 156.027 198.068C155.965 198.068 155.934 197.913 155.934 197.727C155.965 197.571 156.027 197.416 156.089 197.416ZM163.044 197.602C163.106 197.602 163.137 197.758 163.137 197.944C163.137 198.13 163.044 198.254 162.982 198.254C162.92 198.254 162.889 198.099 162.889 197.913C162.889 197.758 162.982 197.602 163.044 197.602Z" fill="#B0A4FC"/>
<path fill-rule="evenodd" clip-rule="evenodd" d="M153.573 188.505C155.84 186.859 157.641 186.766 158.914 188.225C159.007 192.293 157.734 195.584 155.033 198.068C155.716 196.174 155.219 192.976 153.573 188.505Z" fill="#362891"/>
<path fill-rule="evenodd" clip-rule="evenodd" d="M285.101 184.623H293.857C295.006 184.623 295.969 185.555 295.969 186.734V195.491C295.969 196.639 295.037 197.602 293.857 197.602H285.101C283.952 197.602 282.99 196.67 282.99 195.491V186.734C283.021 185.586 283.952 184.623 285.101 184.623Z" fill="#7864FA"/>
<path fill-rule="evenodd" clip-rule="evenodd" d="M303.141 184.623H311.897C313.046 184.623 314.009 185.555 314.009 186.734V195.491C314.009 196.639 313.077 197.602 311.897 197.602H303.141C301.992 197.602 301.03 196.67 301.03 195.491V186.734C301.03 185.586 301.961 184.623 303.141 184.623Z" fill="#B0A4FC"/>
<path fill-rule="evenodd" clip-rule="evenodd" d="M321.15 184.623H329.906C331.055 184.623 332.017 185.555 332.017 186.734V195.491C332.017 196.639 331.086 197.602 329.906 197.602H321.15C320.001 197.602 319.039 196.67 319.039 195.491V186.734C319.039 185.586 320.001 184.623 321.15 184.623ZM339.19 184.623H347.946C349.095 184.623 350.058 185.555 350.058 186.734V195.491C350.058 196.639 349.095 197.602 347.946 197.602H339.19C338.041 197.602 337.079 196.67 337.079 195.491V186.734C337.079 185.586 338.01 184.623 339.19 184.623Z" fill="#7864FA"/>
<path fill-rule="evenodd" clip-rule="evenodd" d="M357.199 184.623H365.955C367.104 184.623 368.067 185.555 368.067 186.734V195.491C368.067 196.639 367.104 197.602 365.955 197.602H357.199C356.05 197.602 355.088 196.67 355.088 195.491V186.734C355.088 185.586 356.05 184.623 357.199 184.623ZM375.208 184.623H383.964C385.113 184.623 386.076 185.555 386.076 186.734V195.491C386.076 196.639 385.144 197.602 383.964 197.602H375.208C374.059 197.602 373.097 196.67 373.097 195.491V186.734C373.128 185.586 374.059 184.623 375.208 184.623ZM393.248 184.623H402.004C403.153 184.623 404.116 185.555 404.116 186.734V195.491C404.116 196.639 403.184 197.602 402.004 197.602H393.248C392.099 197.602 391.137 196.67 391.137 195.491V186.734C391.137 185.586 392.099 184.623 393.248 184.623Z" fill="#B0A4FC"/>
<path fill-rule="evenodd" clip-rule="evenodd" d="M411.257 184.623H420.013C421.162 184.623 422.125 185.555 422.125 186.734V195.491C422.125 196.639 421.193 197.602 420.013 197.602H411.257C410.109 197.602 409.146 196.67 409.146 195.491V186.734C409.177 185.586 410.109 184.623 411.257 184.623Z" fill="#7864FA"/>
<path fill-rule="evenodd" clip-rule="evenodd" d="M429.297 184.623H438.054C439.202 184.623 440.165 185.555 440.165 186.734V195.491C440.165 196.639 439.202 197.602 438.054 197.602H429.297C428.149 197.602 427.186 196.67 427.186 195.491V186.734C427.186 185.586 428.118 184.623 429.297 184.623Z" fill="#B0A4FC"/>
<path fill-rule="evenodd" clip-rule="evenodd" d="M285.101 201.763H293.857C295.006 201.763 295.969 202.694 295.969 203.874V212.63C295.969 213.779 295.037 214.742 293.857 214.742H285.101C283.952 214.742 282.99 213.81 282.99 212.63V203.874C283.021 202.725 283.952 201.763 285.101 201.763Z" fill="#7864FA"/>
<path fill-rule="evenodd" clip-rule="evenodd" d="M303.141 201.763H311.897C313.046 201.763 314.009 202.694 314.009 203.874V212.63C314.009 213.779 313.077 214.742 311.897 214.742H303.141C301.992 214.742 301.03 213.81 301.03 212.63V203.874C301.03 202.725 301.961 201.763 303.141 201.763Z" fill="#B0A4FC"/>
<path fill-rule="evenodd" clip-rule="evenodd" d="M321.15 201.763H329.906C331.055 201.763 332.017 202.694 332.017 203.874V212.63C332.017 213.779 331.086 214.742 329.906 214.742H321.15C320.001 214.742 319.039 213.81 319.039 212.63V203.874C319.039 202.725 320.001 201.763 321.15 201.763ZM339.19 201.763H347.946C349.095 201.763 350.058 202.694 350.058 203.874V212.63C350.058 213.779 349.095 214.742 347.946 214.742H339.19C338.041 214.742 337.079 213.81 337.079 212.63V203.874C337.079 202.725 338.01 201.763 339.19 201.763Z" fill="#7864FA"/>
<path fill-rule="evenodd" clip-rule="evenodd" d="M357.199 201.763H365.955C367.104 201.763 368.067 202.694 368.067 203.874V212.63C368.067 213.779 367.104 214.742 365.955 214.742H357.199C356.05 214.742 355.088 213.81 355.088 212.63V203.874C355.088 202.725 356.05 201.763 357.199 201.763Z" fill="#B0A4FC"/>
<path fill-rule="evenodd" clip-rule="evenodd" d="M375.208 201.763H383.964C385.113 201.763 386.076 202.694 386.076 203.874V212.63C386.076 213.779 385.144 214.742 383.964 214.742H375.208C374.059 214.742 373.097 213.81 373.097 212.63V203.874C373.128 202.725 374.059 201.763 375.208 201.763ZM393.248 201.763H402.004C403.153 201.763 404.116 202.694 404.116 203.874V212.63C404.116 213.779 403.184 214.742 402.004 214.742H393.248C392.099 214.742 391.137 213.81 391.137 212.63V203.874C391.137 202.725 392.099 201.763 393.248 201.763Z" fill="#7864FA"/>
<path fill-rule="evenodd" clip-rule="evenodd" d="M411.257 201.763H420.013C421.162 201.763 422.125 202.694 422.125 203.874V212.63C422.125 213.779 421.193 214.742 420.013 214.742H411.257C410.109 214.742 409.146 213.81 409.146 212.63V203.874C409.177 202.725 410.109 201.763 411.257 201.763Z" fill="#B0A4FC"/>
<path fill-rule="evenodd" clip-rule="evenodd" d="M429.297 201.763H438.053C439.202 201.763 440.165 202.694 440.165 203.874V212.63C440.165 213.779 439.202 214.742 438.053 214.742H429.297C428.148 214.742 427.186 213.81 427.186 212.63V203.874C427.186 202.725 428.117 201.763 429.297 201.763ZM285.101 218.902H293.857C295.006 218.902 295.969 219.834 295.969 221.014V229.77C295.969 230.919 295.037 231.881 293.857 231.881H285.101C283.952 231.881 282.99 230.95 282.99 229.77V221.014C283.021 219.865 283.952 218.902 285.101 218.902ZM303.141 218.902H311.897C313.046 218.902 314.009 219.834 314.009 221.014V229.77C314.009 230.919 313.077 231.881 311.897 231.881H303.141C301.992 231.881 301.03 230.95 301.03 229.77V221.014C301.03 219.865 301.961 218.902 303.141 218.902Z" fill="#7864FA"/>
<path fill-rule="evenodd" clip-rule="evenodd" d="M321.15 218.902H329.906C331.055 218.902 332.017 219.834 332.017 221.014V229.77C332.017 230.919 331.086 231.881 329.906 231.881H321.15C320.001 231.881 319.039 230.95 319.039 229.77V221.014C319.039 219.865 320.001 218.902 321.15 218.902ZM339.19 218.902H347.946C349.095 218.902 350.058 219.834 350.058 221.014V229.77C350.058 230.919 349.095 231.881 347.946 231.881H339.19C338.041 231.881 337.079 230.95 337.079 229.77V221.014C337.079 219.865 338.01 218.902 339.19 218.902Z" fill="#B0A4FC"/>
<path fill-rule="evenodd" clip-rule="evenodd" d="M357.199 218.902H365.955C367.104 218.902 368.067 219.834 368.067 221.014V229.77C368.067 230.919 367.104 231.881 365.955 231.881H357.199C356.05 231.881 355.088 230.95 355.088 229.77V221.014C355.088 219.865 356.05 218.902 357.199 218.902Z" fill="#7864FA"/>
<path fill-rule="evenodd" clip-rule="evenodd" d="M375.208 218.902H383.964C385.113 218.902 386.076 219.834 386.076 221.014V229.77C386.076 230.919 385.144 231.881 383.964 231.881H375.208C374.059 231.881 373.097 230.95 373.097 229.77V221.014C373.128 219.865 374.059 218.902 375.208 218.902ZM393.248 218.902H402.004C403.153 218.902 404.116 219.834 404.116 221.014V229.77C404.116 230.919 403.184 231.881 402.004 231.881H393.248C392.099 231.881 391.137 230.95 391.137 229.77V221.014C391.137 219.865 392.099 218.902 393.248 218.902Z" fill="#B0A4FC"/>
<path fill-rule="evenodd" clip-rule="evenodd" d="M411.257 218.902H420.013C421.162 218.902 422.125 219.834 422.125 221.014V229.77C422.125 230.919 421.193 231.881 420.013 231.881H411.257C410.109 231.881 409.146 230.95 409.146 229.77V221.014C409.177 219.865 410.109 218.902 411.257 218.902Z" fill="#7864FA"/>
<path fill-rule="evenodd" clip-rule="evenodd" d="M429.297 218.902H438.053C439.202 218.902 440.165 219.834 440.165 221.014V229.77C440.165 230.919 439.202 231.881 438.053 231.881H429.297C428.148 231.881 427.186 230.95 427.186 229.77V221.014C427.186 219.865 428.117 218.902 429.297 218.902ZM285.101 236.042H293.857C295.006 236.042 295.969 236.973 295.969 238.153V246.909C295.969 248.058 295.037 249.021 293.857 249.021H285.101C283.952 249.021 282.99 248.058 282.99 246.909V238.153C283.021 237.004 283.952 236.042 285.101 236.042ZM303.141 236.042H311.897C313.046 236.042 314.009 236.973 314.009 238.153V246.909C314.009 248.058 313.077 249.021 311.897 249.021H303.141C301.992 249.021 301.03 248.058 301.03 246.909V238.153C301.03 237.004 301.961 236.042 303.141 236.042Z" fill="#B0A4FC"/>
<path fill-rule="evenodd" clip-rule="evenodd" d="M321.15 236.042H329.906C331.055 236.042 332.017 236.973 332.017 238.153V246.909C332.017 248.058 331.086 249.021 329.906 249.021H321.15C320.001 249.021 319.039 248.058 319.039 246.909V238.153C319.039 237.005 320.001 236.042 321.15 236.042ZM339.19 236.042H347.946C349.095 236.042 350.058 236.973 350.058 238.153V246.909C350.058 248.058 349.095 249.021 347.946 249.021H339.19C338.041 249.021 337.079 248.058 337.079 246.909V238.153C337.079 237.005 338.01 236.042 339.19 236.042ZM357.199 236.042H365.955C367.104 236.042 368.067 236.973 368.067 238.153V246.909C368.067 248.058 367.104 249.021 365.955 249.021H357.199C356.05 249.021 355.088 248.058 355.088 246.909V238.153C355.088 237.005 356.05 236.042 357.199 236.042Z" fill="#7864FA"/>
<path fill-rule="evenodd" clip-rule="evenodd" d="M375.208 236.042H383.964C385.113 236.042 386.076 236.973 386.076 238.153V246.909C386.076 248.058 385.144 249.021 383.964 249.021H375.208C374.059 249.021 373.097 248.058 373.097 246.909V238.153C373.128 237.005 374.059 236.042 375.208 236.042ZM393.248 236.042H402.004C403.153 236.042 404.116 236.973 404.116 238.153V246.909C404.116 248.058 403.184 249.021 402.004 249.021H393.248C392.099 249.021 391.137 248.058 391.137 246.909V238.153C391.137 237.005 392.099 236.042 393.248 236.042Z" fill="#B0A4FC"/>
<path fill-rule="evenodd" clip-rule="evenodd" d="M411.257 236.042H420.013C421.162 236.042 422.125 236.973 422.125 238.153V246.909C422.125 248.058 421.193 249.021 420.013 249.021H411.257C410.109 249.021 409.146 248.058 409.146 246.909V238.153C409.177 237.005 410.109 236.042 411.257 236.042Z" fill="#7864FA"/>
<path fill-rule="evenodd" clip-rule="evenodd" d="M429.297 236.042H438.054C439.202 236.042 440.165 236.973 440.165 238.153V246.909C440.165 248.058 439.202 249.021 438.054 249.021H429.297C428.149 249.021 427.186 248.058 427.186 246.909V238.153C427.186 237.005 428.118 236.042 429.297 236.042Z" fill="#B0A4FC"/>
<path fill-rule="evenodd" clip-rule="evenodd" d="M450.225 265.633H494.533C495.247 265.633 495.806 265.074 495.806 264.36C495.806 263.646 495.247 263.087 494.533 263.087H450.225C449.511 263.087 448.952 263.646 448.952 264.36C448.952 265.074 449.511 265.633 450.225 265.633ZM513.536 255.107H518.814C519.528 255.107 520.087 254.548 520.087 253.834C520.087 253.12 519.528 252.561 518.814 252.561H513.536C512.822 252.561 512.263 253.12 512.263 253.834C512.263 254.517 512.822 255.107 513.536 255.107ZM505.09 265.633H509.313C510.027 265.633 510.586 265.074 510.586 264.36C510.586 263.646 510.027 263.087 509.313 263.087H505.09C504.376 263.087 503.817 263.646 503.817 264.36C503.817 265.074 504.376 265.633 505.09 265.633ZM458.67 255.107H505.09C505.804 255.107 506.363 254.548 506.363 253.834C506.363 253.12 505.804 252.561 505.09 252.561H458.67C457.956 252.561 457.397 253.12 457.397 253.834C457.397 254.517 457.956 255.107 458.67 255.107ZM179.189 197.851H223.498C224.212 197.851 224.771 197.292 224.771 196.578C224.771 195.864 224.212 195.305 223.498 195.305H179.189C178.475 195.305 177.916 195.864 177.916 196.578C177.916 197.292 178.475 197.851 179.189 197.851ZM242.5 187.325H247.779C248.493 187.325 249.052 186.766 249.052 186.052C249.052 185.338 248.493 184.779 247.779 184.779H242.5C241.786 184.779 241.227 185.338 241.227 186.052C241.227 186.735 241.786 187.325 242.5 187.325ZM234.055 197.851H238.278C238.992 197.851 239.551 197.292 239.551 196.578C239.551 195.864 238.992 195.305 238.278 195.305H234.055C233.341 195.305 232.782 195.864 232.782 196.578C232.782 197.292 233.341 197.851 234.055 197.851ZM187.635 187.325H234.055C234.769 187.325 235.328 186.766 235.328 186.052C235.328 185.338 234.769 184.779 234.055 184.779H187.635C186.921 184.779 186.362 185.338 186.362 186.052C186.362 186.735 186.921 187.325 187.635 187.325ZM60.0816 380.953H104.39C105.104 380.953 105.663 380.394 105.663 379.68C105.663 378.966 105.104 378.407 104.39 378.407H60.0816C59.3675 378.407 58.8086 378.966 58.8086 379.68C58.8086 380.394 59.3675 380.953 60.0816 380.953ZM123.362 370.427H128.64C129.354 370.427 129.913 369.868 129.913 369.154C129.913 368.44 129.354 367.881 128.64 367.881H123.362C122.647 367.881 122.088 368.44 122.088 369.154C122.088 369.837 122.678 370.427 123.362 370.427ZM114.947 380.953H119.17C119.884 380.953 120.443 380.394 120.443 379.68C120.443 378.966 119.884 378.407 119.17 378.407H114.947C114.233 378.407 113.674 378.966 113.674 379.68C113.674 380.394 114.233 380.953 114.947 380.953ZM68.5272 370.427H114.947C115.661 370.427 116.22 369.868 116.22 369.154C116.22 368.44 115.661 367.881 114.947 367.881H68.5272C67.8131 367.881 67.2542 368.44 67.2542 369.154C67.2542 369.837 67.8131 370.427 68.5272 370.427ZM373.345 175.681H417.653C418.368 175.681 418.926 175.122 418.926 174.408C418.926 173.694 418.368 173.135 417.653 173.135H373.345C372.631 173.135 372.072 173.694 372.072 174.408C372.072 175.091 372.662 175.681 373.345 175.681ZM436.656 165.124H441.935C442.649 165.124 443.208 164.565 443.208 163.851C443.208 163.137 442.649 162.578 441.935 162.578H436.656C435.942 162.578 435.383 163.137 435.383 163.851C435.383 164.534 435.942 165.124 436.656 165.124ZM428.21 175.681H432.433C433.147 175.681 433.706 175.122 433.706 174.408C433.706 173.694 433.147 173.135 432.433 173.135H428.21C427.496 173.135 426.937 173.694 426.937 174.408C426.937 175.091 427.496 175.681 428.21 175.681ZM381.791 165.124H428.21C428.925 165.124 429.483 164.565 429.483 163.851C429.483 163.137 428.925 162.578 428.21 162.578H381.791C381.077 162.578 380.518 163.137 380.518 163.851C380.518 164.534 381.077 165.124 381.791 165.124ZM329.006 275.911H373.314C374.028 275.911 374.587 275.352 374.587 274.638C374.587 273.923 374.028 273.365 373.314 273.365H329.006C328.292 273.365 327.733 273.923 327.733 274.638C327.733 275.352 328.292 275.911 329.006 275.911ZM392.286 265.354H397.564C398.278 265.354 398.837 264.795 398.837 264.081C398.837 263.366 398.278 262.808 397.564 262.808H392.286C391.571 262.808 391.013 263.366 391.013 264.081C391.013 264.795 391.602 265.354 392.286 265.354ZM383.871 275.911H388.094C388.808 275.911 389.367 275.352 389.367 274.638C389.367 273.923 388.808 273.365 388.094 273.365H383.871C383.157 273.365 382.598 273.923 382.598 274.638C382.598 275.352 383.157 275.911 383.871 275.911ZM337.451 265.354H383.871C384.585 265.354 385.144 264.795 385.144 264.081C385.144 263.366 384.585 262.808 383.871 262.808H337.451C336.737 262.808 336.178 263.366 336.178 264.081C336.147 264.795 336.737 265.354 337.451 265.354ZM355.864 439.234H400.172C400.886 439.234 401.445 438.675 401.445 437.961C401.445 437.246 400.886 436.688 400.172 436.688H355.864C355.15 436.688 354.591 437.246 354.591 437.961C354.591 438.644 355.181 439.234 355.864 439.234ZM419.175 428.677H424.453C425.168 428.677 425.726 428.118 425.726 427.404C425.726 426.689 425.168 426.131 424.453 426.131H419.175C418.461 426.131 417.902 426.689 417.902 427.404C417.902 428.087 418.461 428.677 419.175 428.677ZM410.729 439.234H414.952C415.666 439.234 416.225 438.675 416.225 437.961C416.225 437.246 415.666 436.688 414.952 436.688H410.729C410.015 436.688 409.456 437.246 409.456 437.961C409.456 438.644 410.015 439.234 410.729 439.234ZM364.31 428.677H410.729C411.443 428.677 412.002 428.118 412.002 427.404C412.002 426.689 411.443 426.131 410.729 426.131H364.31C363.595 426.131 363.036 426.689 363.036 427.404C363.036 428.087 363.595 428.677 364.31 428.677Z" fill="#5C44F5"/>
<path fill-rule="evenodd" clip-rule="evenodd" d="M83.5248 413.431V418.212H78.7431C78.4947 418.212 78.2773 418.43 78.2773 418.678C78.2773 418.926 78.4947 419.144 78.7431 419.144H83.5248V423.926C83.5248 424.174 83.7421 424.391 83.9905 424.391C84.2389 424.391 84.4563 424.174 84.4563 423.926V419.144H89.238C89.4864 419.144 89.7037 418.926 89.7037 418.678C89.7037 418.43 89.4864 418.212 89.238 418.212H84.4563V413.431C84.4563 413.182 84.2389 412.965 83.9905 412.965C83.7111 412.965 83.5248 413.182 83.5248 413.431ZM83.5248 350.275V355.057H78.7431C78.4947 355.057 78.2773 355.274 78.2773 355.522C78.2773 355.771 78.4947 355.988 78.7431 355.988H83.5248V360.77C83.5248 361.018 83.7421 361.236 83.9905 361.236C84.2389 361.236 84.4563 361.018 84.4563 360.77V355.988H89.238C89.4864 355.988 89.7037 355.771 89.7037 355.522C89.7037 355.274 89.4864 355.057 89.238 355.057H84.4563V350.275C84.4563 350.026 84.2389 349.809 83.9905 349.809C83.7111 349.809 83.5248 349.995 83.5248 350.275ZM416.66 273.395V278.177H411.879C411.63 278.177 411.413 278.394 411.413 278.643C411.413 278.891 411.63 279.108 411.879 279.108H416.66V283.89C416.66 284.138 416.878 284.356 417.126 284.356C417.374 284.356 417.592 284.138 417.592 283.89V279.108H422.373C422.622 279.108 422.839 278.891 422.839 278.643C422.839 278.394 422.622 278.177 422.373 278.177H417.592V273.395C417.592 273.147 417.374 272.929 417.126 272.929C416.878 272.929 416.66 273.116 416.66 273.395ZM320.312 151.927V156.709H315.53C315.282 156.709 315.065 156.927 315.065 157.175C315.065 157.423 315.282 157.641 315.53 157.641H320.312V162.391C320.312 162.64 320.529 162.857 320.778 162.857C321.026 162.857 321.244 162.64 321.244 162.391V157.61H326.025C326.274 157.61 326.491 157.392 326.491 157.144C326.491 156.895 326.274 156.678 326.025 156.678H321.244V151.896C321.244 151.648 321.026 151.431 320.778 151.431C320.498 151.462 320.312 151.648 320.312 151.927ZM269.049 215.984V220.765H264.267C264.018 220.765 263.801 220.983 263.801 221.231C263.801 221.479 264.018 221.697 264.267 221.697H269.049V226.479C269.049 226.727 269.266 226.944 269.514 226.944C269.763 226.944 269.98 226.727 269.98 226.479V221.697H274.762C275.01 221.697 275.228 221.479 275.228 221.231C275.228 220.983 275.01 220.765 274.762 220.765H269.98V215.984C269.98 215.735 269.763 215.518 269.514 215.518C269.266 215.518 269.049 215.735 269.049 215.984ZM519.653 305.501V310.282H514.871C514.623 310.282 514.406 310.5 514.406 310.748C514.406 310.997 514.623 311.214 514.871 311.214H519.653V315.996C519.653 316.244 519.87 316.461 520.119 316.461C520.367 316.461 520.585 316.244 520.585 315.996V311.214H525.366C525.615 311.214 525.832 310.997 525.832 310.748C525.832 310.5 525.615 310.282 525.366 310.282H520.585V305.501C520.585 305.252 520.367 305.035 520.119 305.035C519.839 305.035 519.653 305.252 519.653 305.501Z" fill="#8674FC"/>
</svg>
