<svg width="525" height="374" viewBox="0 0 525 374" fill="none" xmlns="http://www.w3.org/2000/svg">
<path fill-rule="evenodd" clip-rule="evenodd" d="M71.9502 46.9462V35.5449L85.9872 41.707V53.1025L71.9502 46.9462Z" fill="#8F48DD"/>
<path fill-rule="evenodd" clip-rule="evenodd" d="M87.2487 52.5521L85.9873 53.1024V41.7069L87.2487 41.1509V52.5521Z" fill="#D3C5E6"/>
<path fill-rule="evenodd" clip-rule="evenodd" d="M108.848 125.322L107.43 167.717C107.239 168.892 104.774 185.768 118.568 191.884L118.62 191.907C125.812 195.071 134.301 198.808 138.241 203.348C140.116 205.509 140.885 207.917 139.803 210.622H142.413C143.414 207.418 142.349 204.506 140.029 201.835C135.759 196.911 127.01 193.059 119.592 189.792L119.569 189.78C106.927 184.214 109.762 168.067 109.768 168.021L109.779 167.952L111.203 125.397L108.853 125.322H108.848Z" fill="#642E8F"/>
<path fill-rule="evenodd" clip-rule="evenodd" d="M101.458 104.468L99.4043 165.854C99.1324 167.556 95.5624 191.992 115.53 200.843L115.605 200.877C126.02 205.463 138.31 210.874 144.009 217.443C146.723 220.573 147.84 224.058 146.272 227.973H150.05C151.496 223.336 149.957 219.111 146.601 215.248C140.416 208.117 127.745 202.54 117.011 197.811L116.977 197.799C98.6695 189.74 102.772 166.353 102.783 166.29L102.801 166.192L104.861 104.577L101.458 104.474V104.468Z" fill="#7A777E"/>
<path fill-rule="evenodd" clip-rule="evenodd" d="M118.961 133.789L116.907 195.174C116.635 196.877 113.065 221.313 133.033 230.163L133.108 230.198C143.523 234.783 155.813 240.195 161.512 246.764C164.226 249.893 165.343 253.378 163.775 257.294H167.553C168.999 252.656 167.46 248.432 164.104 244.568C157.919 237.437 145.247 231.86 134.514 227.131L134.48 227.119C116.172 219.06 120.275 195.673 120.286 195.61L120.304 195.512L122.364 133.897L118.961 133.794V133.789Z" fill="#642E8F"/>
<path fill-rule="evenodd" clip-rule="evenodd" d="M117.33 182.437L116.902 195.174C116.792 195.845 116.179 200.023 116.682 205.389L120.281 206.971C119.384 200.728 120.281 195.644 120.281 195.61L120.298 195.512L120.686 183.91L117.33 182.437Z" fill="#642E8F"/>
<path fill-rule="evenodd" clip-rule="evenodd" d="M131.037 150.091L121.566 145.935L111.556 150.332L121.317 154.614L131.327 150.223L131.037 150.091Z" fill="#7A777E"/>
<path fill-rule="evenodd" clip-rule="evenodd" d="M131.326 154.74V150.223L121.316 154.613V159.13L131.326 154.74Z" fill="#8F54EF"/>
<path fill-rule="evenodd" clip-rule="evenodd" d="M111.556 150.332L121.317 154.613V159.13L111.556 154.848V150.332Z" fill="#642E8F"/>
<path fill-rule="evenodd" clip-rule="evenodd" d="M131.037 144.009L121.566 139.853L111.556 144.25L121.317 148.532L131.327 144.141L131.037 144.009Z" fill="#7A777E"/>
<path fill-rule="evenodd" clip-rule="evenodd" d="M131.326 148.658V144.141L121.316 148.531V153.048L131.326 148.658Z" fill="#8F54EF"/>
<path fill-rule="evenodd" clip-rule="evenodd" d="M111.556 144.25L121.317 148.531V153.048L111.556 148.766V144.25Z" fill="#642E8F"/>
<path fill-rule="evenodd" clip-rule="evenodd" d="M138.015 131.461L121.658 124.279L104.363 131.874L121.224 139.268L138.519 131.679L138.015 131.461Z" fill="#642E8F"/>
<path fill-rule="evenodd" clip-rule="evenodd" d="M138.518 139.486V131.679L121.224 139.269V147.076L138.518 139.486Z" fill="#8F54EF"/>
<path fill-rule="evenodd" clip-rule="evenodd" d="M104.363 131.868L121.224 139.268V147.076L104.363 139.675V131.868Z" fill="#642E8F"/>
<path fill-rule="evenodd" clip-rule="evenodd" d="M267.913 37.0467L265.853 98.547C265.702 103.093 265.749 109.501 268.393 115.956C271.06 122.462 276.326 128.945 286.573 133.456C300.922 139.773 309.185 145.619 312.853 150.864C315.029 153.971 315.491 156.814 314.606 159.359C313.675 162.036 311.273 164.518 307.796 166.742C299.157 172.274 284.264 176.017 268.468 177.387C256.572 178.419 243.42 178.872 230.419 179.313C224.257 179.525 218.123 179.731 212.21 180.001V183.377C218.187 183.102 224.343 182.896 230.529 182.684C243.68 182.231 256.988 181.778 268.763 180.758C285.068 179.342 300.534 175.421 309.642 169.586C313.756 166.955 316.643 163.894 317.841 160.454C319.085 156.883 318.518 153.025 315.659 148.938C311.655 143.218 302.924 136.958 287.95 130.366C278.675 126.285 273.936 120.484 271.558 114.677C269.157 108.813 269.116 102.869 269.255 98.6445L271.315 37.1442L267.913 37.041V37.0467Z" fill="#642E8F"/>
<path fill-rule="evenodd" clip-rule="evenodd" d="M213.662 183.32C219.182 183.079 224.847 182.884 230.534 182.689C243.686 182.236 256.994 181.784 268.769 180.763C285.074 179.347 300.54 175.427 309.647 169.591C313.761 166.96 316.649 163.899 317.846 160.46C319.09 156.889 318.523 153.031 315.665 148.944C311.661 143.223 302.93 136.964 287.955 130.372C278.68 126.291 273.942 120.49 271.563 114.683C269.162 108.819 269.122 102.875 269.261 98.6502L271.32 37.15L269.365 37.0869L267.311 98.5299C267.16 103.075 267.207 109.484 269.851 115.938C272.518 122.444 277.783 128.922 288.031 133.439C302.38 139.755 310.643 145.602 314.311 150.847C316.487 153.954 316.949 156.797 316.064 159.348C315.133 162.025 312.731 164.507 309.254 166.731C300.615 172.263 285.722 176.006 269.926 177.376C258.03 178.407 244.878 178.86 231.877 179.302C225.715 179.514 219.581 179.72 213.668 179.989V183.32H213.662Z" fill="#8F54EF"/>
<path fill-rule="evenodd" clip-rule="evenodd" d="M259.691 43.2895L268.815 39.2827L278.467 43.5188L269.058 47.6459L259.413 43.4099L259.691 43.2895Z" fill="#642E8F"/>
<path fill-rule="evenodd" clip-rule="evenodd" d="M259.413 47.7661V43.4097L269.058 47.6457V51.9964L259.413 47.7661Z" fill="#642E8F"/>
<path fill-rule="evenodd" clip-rule="evenodd" d="M278.467 43.5186L269.059 47.6457V51.9964L278.467 47.8693V43.5186Z" fill="#8F54EF"/>
<path fill-rule="evenodd" clip-rule="evenodd" d="M259.691 37.4254L268.815 33.4243L278.467 37.6604L269.058 41.7875L259.413 37.5515L259.691 37.4254Z" fill="#642E8F"/>
<path fill-rule="evenodd" clip-rule="evenodd" d="M259.413 41.902V37.5513L269.058 41.7873V46.138L259.413 41.902Z" fill="#642E8F"/>
<path fill-rule="evenodd" clip-rule="evenodd" d="M278.467 37.6548L269.059 41.7877V46.1384L278.467 42.0112V37.6548Z" fill="#8F54EF"/>
<path fill-rule="evenodd" clip-rule="evenodd" d="M252.967 25.3362L268.729 18.4175L285.393 25.7317L269.145 32.8625L252.481 25.5483L252.967 25.3362Z" fill="#642E8F"/>
<path fill-rule="evenodd" clip-rule="evenodd" d="M252.481 33.0689V25.5483L269.145 32.8626V40.3831L252.481 33.0689Z" fill="#642E8F"/>
<path fill-rule="evenodd" clip-rule="evenodd" d="M285.393 25.7319L269.146 32.8627V40.3833L285.393 33.2525V25.7319Z" fill="#834AE0"/>
<path fill-rule="evenodd" clip-rule="evenodd" d="M474.447 83.4084L472.387 144.909C472.236 149.454 472.283 155.863 474.927 162.317C477.594 168.823 482.86 175.301 493.107 179.818C507.456 186.134 515.719 191.981 519.387 197.226C521.563 200.333 522.026 203.176 521.14 205.727C520.209 208.404 517.808 210.886 514.33 213.11C505.691 218.641 490.798 222.384 475.002 223.749C463.106 224.78 449.954 225.233 436.953 225.675C426.266 226.042 415.677 226.403 406.136 227.062C394.639 227.853 385.908 228.552 376.951 233.276C368.075 237.953 359.2 246.523 347.512 262.997C342.403 270.202 335.344 277.321 324.309 282.675C313.171 288.086 297.977 291.732 276.638 291.938C241.968 292.271 207.922 287.009 180.566 279.305C171.916 276.869 163.948 274.197 156.854 271.389V274.988C163.752 277.683 171.395 280.233 179.629 282.549C207.245 290.328 241.626 295.641 276.661 295.303C298.567 295.091 314.247 291.308 325.796 285.696C337.455 280.033 344.902 272.529 350.289 264.934C361.641 248.93 370.153 240.664 378.537 236.245C386.845 231.865 395.264 231.195 406.345 230.427C416.007 229.762 426.48 229.401 437.045 229.039C450.203 228.587 463.505 228.134 475.28 227.113C491.579 225.698 507.051 221.777 516.159 215.942C520.272 213.31 523.16 210.249 524.357 206.81C525.601 203.239 525.034 199.381 522.176 195.294C518.172 189.574 509.441 183.314 494.467 176.722C485.191 172.641 480.453 166.84 478.075 161.033C475.673 155.169 475.633 149.225 475.772 145L477.832 83.5001L474.429 83.397L474.447 83.4084ZM156.86 212.353V208.719C169.144 203.858 183.968 199.679 200.684 196.561L201.309 199.88C184.223 203.067 169.173 207.366 156.86 212.353Z" fill="#642E8F"/>
<path fill-rule="evenodd" clip-rule="evenodd" d="M273.954 291.956C240.215 292.002 207.223 286.814 180.578 279.311C172.31 276.983 164.666 274.438 157.815 271.767V274.994C164.712 277.689 172.356 280.239 180.589 282.555C207.229 290.059 240.163 295.263 273.907 295.321C274.827 295.321 275.753 295.321 276.673 295.309C298.579 295.097 314.259 291.314 325.809 285.702C337.467 280.039 344.914 272.535 350.301 264.94C361.653 248.936 370.165 240.67 378.549 236.251C386.857 231.871 395.276 231.201 406.357 230.433C416.019 229.768 426.492 229.407 437.057 229.045C450.215 228.593 463.517 228.14 475.292 227.119C491.591 225.704 507.063 221.783 516.171 215.948C520.284 213.316 523.172 210.255 524.369 206.816C525.613 203.245 525.046 199.387 522.188 195.3C518.184 189.58 509.453 183.32 494.479 176.728C485.203 172.647 480.465 166.846 478.087 161.039C475.685 155.175 475.645 149.231 475.784 145.006L477.844 83.5062L475.39 83.4316L473.336 144.903C473.186 149.449 473.232 155.857 475.876 162.312C478.544 168.818 483.809 175.295 494.056 179.812C508.406 186.129 516.668 191.976 520.336 197.221C522.512 200.327 522.975 203.171 522.09 205.721C521.158 208.398 518.757 210.88 515.279 213.104C506.641 218.636 491.747 222.379 475.952 223.743C464.055 224.775 450.904 225.228 437.902 225.669C427.215 226.036 416.627 226.397 407.086 227.056C395.589 227.847 386.857 228.547 377.901 233.27C369.025 237.948 360.149 246.517 348.461 262.991C343.352 270.197 336.293 277.316 325.259 282.67C314.121 288.081 298.926 291.727 277.587 291.933C276.372 291.944 275.157 291.95 273.942 291.944L273.954 291.956ZM200.719 196.733L201.315 199.88C184.663 202.987 169.949 207.143 157.815 211.975V208.719C169.874 203.95 184.379 199.834 200.719 196.733Z" fill="#8F54EF"/>
<path fill-rule="evenodd" clip-rule="evenodd" d="M466.694 84.8472L475.818 80.8462L485.47 85.0765L476.061 89.2037L466.416 84.9733L466.694 84.8472Z" fill="#7A777E"/>
<path fill-rule="evenodd" clip-rule="evenodd" d="M466.416 89.3238V84.9731L476.061 89.2035V93.5599L466.416 89.3238Z" fill="#642E8F"/>
<path fill-rule="evenodd" clip-rule="evenodd" d="M485.47 85.0767L476.062 89.2038V93.5602L485.47 89.4331V85.0767Z" fill="#8F54EF"/>
<path fill-rule="evenodd" clip-rule="evenodd" d="M466.694 78.9892L475.818 74.9824L485.47 79.2185L476.061 83.3456L466.416 79.1096L466.694 78.9892Z" fill="#7A777E"/>
<path fill-rule="evenodd" clip-rule="evenodd" d="M466.416 83.4658V79.1094L476.061 83.3454V87.7019L466.416 83.4658Z" fill="#642E8F"/>
<path fill-rule="evenodd" clip-rule="evenodd" d="M485.47 79.2183L476.062 83.3454V87.7018L485.47 83.569V79.2183Z" fill="#8F54EF"/>
<path fill-rule="evenodd" clip-rule="evenodd" d="M459.97 66.8943L475.732 59.9756L492.401 67.2898L476.148 74.4206L459.484 67.1064L459.97 66.8943Z" fill="#642E8F"/>
<path fill-rule="evenodd" clip-rule="evenodd" d="M459.484 74.627V67.1064L476.148 74.4207V81.9413L459.484 74.627Z" fill="#642E8F"/>
<path fill-rule="evenodd" clip-rule="evenodd" d="M492.402 67.29L476.148 74.4208V81.9414L492.402 74.8106V67.29Z" fill="#8F54EF"/>
<path fill-rule="evenodd" clip-rule="evenodd" d="M419.398 162.076L417.338 223.577C417.188 228.122 417.234 234.531 419.878 240.985C422.546 247.491 427.811 253.974 438.058 258.485C452.408 264.802 460.67 270.649 464.338 275.894C466.514 279.001 466.977 281.844 466.092 284.389C465.16 287.066 462.759 289.548 459.281 291.772C450.643 297.304 435.749 301.047 419.953 302.417C408.057 303.448 394.905 303.901 381.904 304.343C371.217 304.71 360.629 305.071 351.088 305.73C339.591 306.521 330.859 307.22 321.903 311.944C313.027 316.621 304.151 325.191 292.463 341.665C287.354 348.87 280.295 355.989 269.261 361.349C258.123 366.76 242.928 370.406 221.589 370.612C186.919 370.945 152.874 365.688 125.517 357.978C94.9898 349.38 72.9679 337.87 68.0035 327.85C67.4017 326.629 66.9794 325.397 66.7479 324.164C65.8279 319.321 67.7547 314.334 72.1116 309.456C76.6768 304.337 83.8574 299.379 93.2019 294.833C106.811 288.212 124.95 282.52 146.254 278.542L145.63 275.223C124.03 279.253 105.596 285.048 91.7091 291.801C81.9653 296.541 74.426 301.769 69.5657 307.214C64.4913 312.895 62.2695 318.845 63.3978 324.778C63.6871 326.297 64.202 327.816 64.9484 329.323C70.3295 340.186 93.1672 352.367 124.58 361.217C152.197 368.996 186.578 374.309 221.612 373.971C243.518 373.759 259.199 369.976 270.748 364.364C282.407 358.701 289.853 351.197 295.246 343.602C306.598 327.598 315.11 319.332 323.494 314.913C331.802 310.533 340.221 309.863 351.302 309.095C360.964 308.43 371.437 308.069 382.003 307.707C395.16 307.255 408.462 306.802 420.237 305.781C436.536 304.366 452.008 300.445 461.116 294.609C465.23 291.973 468.117 288.917 469.314 285.478C470.559 281.907 469.991 278.049 467.133 273.962C463.129 268.242 454.398 261.982 439.424 255.39C430.149 251.309 425.41 245.508 423.032 239.701C420.63 233.837 420.59 227.893 420.729 223.668L422.789 162.168L419.386 162.065L419.398 162.076Z" fill="#642E8F"/>
<path fill-rule="evenodd" clip-rule="evenodd" d="M419.473 159.193L417.413 220.694C417.263 225.239 417.309 231.648 419.953 238.102C422.621 244.608 427.886 251.086 438.133 255.603C452.483 261.919 460.745 267.766 464.413 273.011C466.589 276.118 467.052 278.961 466.167 281.506C465.235 284.183 462.834 286.665 459.356 288.889C450.718 294.421 435.824 298.164 420.028 299.534C408.132 300.566 394.98 301.018 381.979 301.46C371.292 301.827 360.704 302.188 351.157 302.847C339.66 303.638 330.929 304.337 321.972 309.061C313.096 313.738 304.22 322.308 292.532 338.782C287.423 345.987 280.364 353.106 269.33 358.46C258.192 363.871 242.998 367.517 221.658 367.723C186.988 368.056 152.943 362.794 125.586 355.09C95.0648 346.492 73.0372 334.981 68.0727 324.962C67.471 323.741 67.0486 322.508 66.8172 321.276C65.8972 316.432 67.8239 311.445 72.1809 306.567C76.7461 301.448 83.9266 296.49 93.2711 291.944C106.88 285.324 125.019 279.632 146.324 275.654L145.699 272.335C124.099 276.364 105.665 282.16 91.7783 288.912C82.0345 293.653 74.4953 298.88 69.635 304.326C64.5606 310.006 62.3445 315.956 63.467 321.889C63.7563 323.408 64.2713 324.927 65.0177 326.435C70.3987 337.297 93.2364 349.478 124.649 358.328C152.266 366.107 186.647 371.421 221.682 371.082C243.588 370.87 259.268 367.087 270.817 361.475C282.476 355.812 289.923 348.309 295.315 340.714C306.668 324.709 315.179 316.444 323.563 312.024C331.872 307.645 340.29 306.974 351.371 306.206C361.034 305.541 371.506 305.18 382.072 304.819C395.229 304.366 408.531 303.913 420.306 302.893C436.606 301.477 452.078 297.556 461.185 291.721C465.299 289.084 468.186 286.029 469.384 282.589C470.628 279.018 470.061 275.161 467.202 271.074C463.198 265.353 454.467 259.093 439.493 252.501C430.218 248.42 425.479 242.619 423.101 236.813C420.7 230.949 420.659 225.004 420.798 220.78L422.858 159.279L419.456 159.176L419.473 159.193Z" fill="#642E8F"/>
<path fill-rule="evenodd" clip-rule="evenodd" d="M218.899 367.74C185.19 367.781 152.226 362.593 125.604 355.095C95.0829 346.497 73.0553 334.987 68.0908 324.967C67.4891 323.746 67.0667 322.514 66.8352 321.281C65.9152 316.438 67.842 311.451 72.1989 306.573C76.7641 301.454 83.9447 296.495 93.2892 291.95C106.898 285.329 125.037 279.637 146.342 275.659L145.74 272.489C124.476 276.513 106.319 282.251 92.6064 288.923C82.8627 293.664 75.3234 298.892 70.4631 304.337C65.3887 310.018 63.1726 315.968 64.2951 321.9C64.5845 323.419 65.0994 324.938 65.8458 326.446C71.2269 337.308 94.0645 349.489 125.477 358.34C152.134 365.849 185.091 371.059 218.859 371.105C219.802 371.105 220.751 371.105 221.7 371.094C243.606 370.882 259.286 367.098 270.835 361.487C282.494 355.823 289.941 348.32 295.333 340.725C306.686 324.721 315.197 316.455 323.581 312.035C331.89 307.656 340.309 306.985 351.389 306.217C361.052 305.552 371.524 305.191 382.09 304.83C395.247 304.377 408.55 303.924 420.324 302.904C436.624 301.488 452.096 297.567 461.203 291.732C465.317 289.095 468.204 286.04 469.402 282.601C470.646 279.03 470.079 275.172 467.22 271.085C463.216 265.364 454.485 259.105 439.511 252.513C430.236 248.431 425.497 242.63 423.119 236.824C420.718 230.96 420.677 225.016 420.816 220.791L422.876 159.291L420.284 159.21L418.23 220.688C418.079 225.233 418.126 231.642 420.77 238.096C423.437 244.602 428.702 251.08 438.95 255.597C453.299 261.913 461.562 267.76 465.23 273.005C467.406 276.112 467.868 278.955 466.983 281.5C466.052 284.177 463.65 286.659 460.173 288.883C451.534 294.415 436.641 298.158 420.845 299.528C408.949 300.56 395.797 301.012 382.796 301.454C372.109 301.821 361.52 302.182 351.979 302.841C340.482 303.632 331.751 304.331 322.794 309.055C313.918 313.732 305.042 322.302 293.355 338.776C288.245 345.981 281.186 353.1 270.152 358.454C259.014 363.865 243.82 367.511 222.481 367.717C221.283 367.729 220.085 367.735 218.893 367.729L218.899 367.74Z" fill="#8F54EF"/>
<path fill-rule="evenodd" clip-rule="evenodd" d="M411.807 158.574L420.932 154.567L430.583 158.803L421.175 162.931L411.529 158.695L411.807 158.574Z" fill="#7A777E"/>
<path fill-rule="evenodd" clip-rule="evenodd" d="M411.529 163.051V158.694L421.175 162.93V167.281L411.529 163.051Z" fill="#642E8F"/>
<path fill-rule="evenodd" clip-rule="evenodd" d="M430.583 158.803L421.175 162.93V167.281L430.583 163.154V158.803Z" fill="#8F54EF"/>
<path fill-rule="evenodd" clip-rule="evenodd" d="M411.807 152.716L420.932 148.709L430.583 152.945L421.175 157.072L411.529 152.836L411.807 152.716Z" fill="#7A777E"/>
<path fill-rule="evenodd" clip-rule="evenodd" d="M411.529 157.192V152.836L421.175 157.072V161.423L411.529 157.192Z" fill="#642E8F"/>
<path fill-rule="evenodd" clip-rule="evenodd" d="M430.583 152.939L421.175 157.072V161.423L430.583 157.296V152.939Z" fill="#8F54EF"/>
<path fill-rule="evenodd" clip-rule="evenodd" d="M405.084 140.621L420.845 133.703L437.509 141.017L421.262 148.148L404.598 140.833L405.084 140.621Z" fill="#642E8F"/>
<path fill-rule="evenodd" clip-rule="evenodd" d="M404.598 148.354V140.833L421.262 148.148V155.668L404.598 148.354Z" fill="#642E8F"/>
<path fill-rule="evenodd" clip-rule="evenodd" d="M437.509 141.017L421.262 148.148V155.668L437.509 148.538V141.017Z" fill="#8F54EF"/>
<path fill-rule="evenodd" clip-rule="evenodd" d="M217.811 72.202L248.102 58.9092L280.133 72.9644V87.4152L248.906 101.121L216.88 87.0655V72.609L217.811 72.202Z" fill="#B6A6CC"/>
<path fill-rule="evenodd" clip-rule="evenodd" d="M217.811 72.202L248.102 58.9092L280.133 72.9644L248.906 86.6643L216.88 72.609L217.811 72.202Z" fill="#B6A6CC"/>
<path fill-rule="evenodd" clip-rule="evenodd" d="M216.88 87.0654V72.6089L248.906 86.6641V101.121L216.88 87.0654Z" fill="#D3C5E6"/>
<path fill-rule="evenodd" clip-rule="evenodd" d="M280.134 72.9644L248.906 86.6642V101.121L280.134 87.4151V72.9644Z" fill="#EBE5F6"/>
<path fill-rule="evenodd" clip-rule="evenodd" d="M168.595 85.7415L213.142 66.1948L260.235 86.8592V108.108L214.322 128.263V128.257L167.229 107.592V86.3433L168.595 85.7415Z" fill="#B6A6CC"/>
<path fill-rule="evenodd" clip-rule="evenodd" d="M168.595 85.7415L213.142 66.1948L260.235 86.8592L214.322 107.008L167.229 86.3433L168.595 85.7415Z" fill="#B6A6CC"/>
<path fill-rule="evenodd" clip-rule="evenodd" d="M167.229 107.592V86.3433L214.322 107.008V128.262L167.229 107.592Z" fill="#D3C5E6"/>
<path fill-rule="evenodd" clip-rule="evenodd" d="M260.235 86.8594L214.322 107.008V128.263L260.235 108.108V86.8594Z" fill="#EBE5F6"/>
<path fill-rule="evenodd" clip-rule="evenodd" d="M65.9846 81.5684L135.528 51.0562L209.04 83.3167H209.045V116.494L137.367 147.952L63.8438 115.686V82.5085L65.9846 81.5684Z" fill="#B6A6CC"/>
<path fill-rule="evenodd" clip-rule="evenodd" d="M297.497 192.532L219.593 226.724L297.497 260.911L375.406 226.724L297.497 192.532Z" fill="#642E8F"/>
<path fill-rule="evenodd" clip-rule="evenodd" d="M297.497 260.911V284.149L219.593 249.957V226.724L297.497 260.911Z" fill="#642E8F"/>
<path fill-rule="evenodd" clip-rule="evenodd" d="M297.496 260.911V284.149L375.406 249.957V226.724L297.496 260.911Z" fill="#834AE0"/>
<path fill-rule="evenodd" clip-rule="evenodd" d="M301.072 264.332V275.264L337.721 259.179V248.248L301.072 264.332Z" fill="#6847B9"/>
<path fill-rule="evenodd" clip-rule="evenodd" d="M301.072 264.333V272.432L334.938 257.569V249.469L301.072 264.333Z" fill="#642E8F"/>
<path fill-rule="evenodd" clip-rule="evenodd" d="M302.461 265.284V267.279L309.161 264.339V262.344L302.461 265.284Z" fill="#C0B6FB"/>
<path fill-rule="evenodd" clip-rule="evenodd" d="M302.461 268.615V270.615L309.161 267.674V265.68L302.461 268.615Z" fill="#C0B6FB"/>
<path fill-rule="evenodd" clip-rule="evenodd" d="M339.833 247.32V249.257L373.496 234.485V232.548L339.833 247.32Z" fill="#6847B9"/>
<path fill-rule="evenodd" clip-rule="evenodd" d="M339.833 250.501V252.438L373.496 237.666V235.729L339.833 250.501Z" fill="#6847B9"/>
<path fill-rule="evenodd" clip-rule="evenodd" d="M339.833 253.677V255.614L373.496 240.842V238.905L339.833 253.677Z" fill="#6847B9"/>
<path fill-rule="evenodd" clip-rule="evenodd" d="M292.098 252.398L290.09 253.281L292.098 254.158L301.697 249.951L299.689 249.068L292.098 252.398Z" fill="#642E8F"/>
<path fill-rule="evenodd" clip-rule="evenodd" d="M289.395 251.212L287.388 252.094L289.395 252.977L299 248.764L296.993 247.881L289.395 251.212Z" fill="#642E8F"/>
<path fill-rule="evenodd" clip-rule="evenodd" d="M286.63 250.002L284.622 250.879L286.63 251.762L296.235 247.549L294.227 246.672L286.63 250.002Z" fill="#642E8F"/>
<path fill-rule="evenodd" clip-rule="evenodd" d="M338.676 231.957L336.668 232.834L338.676 233.717L348.281 229.504L346.273 228.627L338.676 231.957Z" fill="#642E8F"/>
<path fill-rule="evenodd" clip-rule="evenodd" d="M335.979 230.771L333.966 231.654L335.979 232.536L345.578 228.323L343.571 227.44L335.979 230.771Z" fill="#642E8F"/>
<path fill-rule="evenodd" clip-rule="evenodd" d="M333.214 229.555L331.206 230.438L333.214 231.321L342.819 227.108L340.805 226.225L333.214 229.555Z" fill="#642E8F"/>
<path fill-rule="evenodd" clip-rule="evenodd" d="M297.497 165.407L219.593 199.6L297.497 233.786L375.406 199.6L297.497 165.407Z" fill="#642E8F"/>
<path fill-rule="evenodd" clip-rule="evenodd" d="M297.497 233.786V257.024L219.593 222.832V199.6L297.497 233.786Z" fill="#642E8F"/>
<path fill-rule="evenodd" clip-rule="evenodd" d="M297.496 233.786V257.024L375.406 222.832V199.6L297.496 233.786Z" fill="#834AE0"/>
<path fill-rule="evenodd" clip-rule="evenodd" d="M301.072 237.208V248.139L337.721 232.055V221.124L301.072 237.208Z" fill="#6847B9"/>
<path fill-rule="evenodd" clip-rule="evenodd" d="M301.072 237.208V245.308L334.938 230.444V222.345L301.072 237.208Z" fill="#642E8F"/>
<path fill-rule="evenodd" clip-rule="evenodd" d="M302.461 238.16V240.155L309.161 237.22V235.219L302.461 238.16Z" fill="#C0B6FB"/>
<path fill-rule="evenodd" clip-rule="evenodd" d="M302.461 241.49V243.491L309.161 240.55V238.555L302.461 241.49Z" fill="#C0B6FB"/>
<path fill-rule="evenodd" clip-rule="evenodd" d="M339.833 220.201V222.138L373.496 207.361V205.423L339.833 220.201Z" fill="#6847B9"/>
<path fill-rule="evenodd" clip-rule="evenodd" d="M339.833 223.376V225.314L373.496 210.542V208.604L339.833 223.376Z" fill="#6847B9"/>
<path fill-rule="evenodd" clip-rule="evenodd" d="M339.833 226.552V228.489L373.496 213.718V211.78L339.833 226.552Z" fill="#6847B9"/>
<path fill-rule="evenodd" clip-rule="evenodd" d="M292.098 225.274L290.09 226.156L292.098 227.034L301.697 222.826L299.689 221.943L292.098 225.274Z" fill="#642E8F"/>
<path fill-rule="evenodd" clip-rule="evenodd" d="M289.395 224.087L287.388 224.97L289.395 225.853L299 221.64L296.993 220.757L289.395 224.087Z" fill="#642E8F"/>
<path fill-rule="evenodd" clip-rule="evenodd" d="M286.63 222.878L284.622 223.755L286.63 224.638L296.235 220.424L294.227 219.547L286.63 222.878Z" fill="#642E8F"/>
<path fill-rule="evenodd" clip-rule="evenodd" d="M338.676 204.833L336.668 205.716L338.676 206.593L348.281 202.379L346.273 201.502L338.676 204.833Z" fill="#642E8F"/>
<path fill-rule="evenodd" clip-rule="evenodd" d="M335.979 203.646L333.966 204.529L335.979 205.412L345.578 201.199L343.571 200.316L335.979 203.646Z" fill="#642E8F"/>
<path fill-rule="evenodd" clip-rule="evenodd" d="M333.214 202.431L331.206 203.314L333.214 204.197L342.819 199.983L340.805 199.106L333.214 202.431Z" fill="#642E8F"/>
<path fill-rule="evenodd" clip-rule="evenodd" d="M297.497 138.282L219.593 172.475L297.497 206.661L375.406 172.475L297.497 138.282Z" fill="#642E8F"/>
<path fill-rule="evenodd" clip-rule="evenodd" d="M297.497 206.661V229.899L219.593 195.707V172.475L297.497 206.661Z" fill="#642E8F"/>
<path fill-rule="evenodd" clip-rule="evenodd" d="M297.496 206.661V229.899L375.406 195.707V172.475L297.496 206.661Z" fill="#834AE0"/>
<path fill-rule="evenodd" clip-rule="evenodd" d="M301.072 210.083V221.014L337.721 204.93V193.999L301.072 210.083Z" fill="#6847B9"/>
<path fill-rule="evenodd" clip-rule="evenodd" d="M301.072 210.083V218.183L334.938 203.319V195.22L301.072 210.083Z" fill="#642E8F"/>
<path fill-rule="evenodd" clip-rule="evenodd" d="M302.461 211.035V213.03L309.161 210.095V208.094L302.461 211.035Z" fill="#C0B6FB"/>
<path fill-rule="evenodd" clip-rule="evenodd" d="M302.461 214.365V216.366L309.161 213.425V211.43L302.461 214.365Z" fill="#C0B6FB"/>
<path fill-rule="evenodd" clip-rule="evenodd" d="M339.833 193.076V195.013L373.496 180.236V178.298L339.833 193.076Z" fill="#6847B9"/>
<path fill-rule="evenodd" clip-rule="evenodd" d="M339.833 196.251V198.189L373.496 183.417V181.479L339.833 196.251Z" fill="#6847B9"/>
<path fill-rule="evenodd" clip-rule="evenodd" d="M339.833 199.427V201.364L373.496 186.593V184.655L339.833 199.427Z" fill="#6847B9"/>
<path fill-rule="evenodd" clip-rule="evenodd" d="M292.098 198.149L290.09 199.031L292.098 199.909L301.697 195.701L299.689 194.818L292.098 198.149Z" fill="#642E8F"/>
<path fill-rule="evenodd" clip-rule="evenodd" d="M289.395 196.962L287.388 197.845L289.395 198.728L299 194.515L296.993 193.632L289.395 196.962Z" fill="#642E8F"/>
<path fill-rule="evenodd" clip-rule="evenodd" d="M286.63 195.753L284.622 196.63L286.63 197.513L296.235 193.299L294.227 192.422L286.63 195.753Z" fill="#642E8F"/>
<path fill-rule="evenodd" clip-rule="evenodd" d="M338.676 177.708L336.668 178.591L338.676 179.468L348.281 175.254L346.273 174.377L338.676 177.708Z" fill="#642E8F"/>
<path fill-rule="evenodd" clip-rule="evenodd" d="M335.979 176.521L333.966 177.404L335.979 178.287L345.578 174.074L343.571 173.191L335.979 176.521Z" fill="#642E8F"/>
<path fill-rule="evenodd" clip-rule="evenodd" d="M333.214 175.312L331.206 176.189L333.214 177.072L342.819 172.858L340.805 171.981L333.214 175.312Z" fill="#642E8F"/>
<path fill-rule="evenodd" clip-rule="evenodd" d="M297.497 111.158L219.593 145.35L297.497 179.537L375.406 145.35L297.497 111.158Z" fill="#B6A6CC"/>
<path fill-rule="evenodd" clip-rule="evenodd" d="M282.545 117.721L219.593 145.35L271.118 167.963L334.076 140.335L282.545 117.721Z" fill="#C8AEEF"/>
<path fill-rule="evenodd" clip-rule="evenodd" d="M297.497 179.537V202.775L219.593 168.583V145.35L297.497 179.537Z" fill="#642E8F"/>
<path fill-rule="evenodd" clip-rule="evenodd" d="M297.497 179.537V202.775L375.407 168.583V145.35L297.497 179.537Z" fill="#834AE0"/>
<path fill-rule="evenodd" clip-rule="evenodd" d="M301.073 182.959V193.89L337.722 177.806V166.875L301.073 182.959Z" fill="#6847B9"/>
<path fill-rule="evenodd" clip-rule="evenodd" d="M301.073 182.959V191.058L334.939 176.195V168.095L301.073 182.959Z" fill="#642E8F"/>
<path fill-rule="evenodd" clip-rule="evenodd" d="M302.462 183.91V185.905L309.162 182.97V180.97L302.462 183.91Z" fill="#C0B6FB"/>
<path fill-rule="evenodd" clip-rule="evenodd" d="M302.462 187.241V189.241L309.162 186.3V184.306L302.462 187.241Z" fill="#C0B6FB"/>
<path fill-rule="evenodd" clip-rule="evenodd" d="M339.834 165.951V167.889L373.497 153.111V151.174L339.834 165.951Z" fill="#6847B9"/>
<path fill-rule="evenodd" clip-rule="evenodd" d="M339.834 169.127V171.065L373.497 156.293V154.355L339.834 169.127Z" fill="#6847B9"/>
<path fill-rule="evenodd" clip-rule="evenodd" d="M339.834 172.303V174.24L373.497 159.469V157.531L339.834 172.303Z" fill="#6847B9"/>
<path fill-rule="evenodd" clip-rule="evenodd" d="M210.173 230.856L132.27 265.043L210.173 299.23L288.083 265.043L210.173 230.856Z" fill="#7A777E"/>
<path fill-rule="evenodd" clip-rule="evenodd" d="M210.179 299.23V322.468L132.27 288.275V265.043L210.179 299.23Z" fill="#642E8F"/>
<path fill-rule="evenodd" clip-rule="evenodd" d="M210.179 299.23V322.468L288.083 288.275V265.043L210.179 299.23Z" fill="#834AE0"/>
<path fill-rule="evenodd" clip-rule="evenodd" d="M213.749 302.652V313.583L250.398 297.499V286.567L213.749 302.652Z" fill="#6847B9"/>
<path fill-rule="evenodd" clip-rule="evenodd" d="M213.749 302.652V310.751L247.615 295.888V287.788L213.749 302.652Z" fill="#642E8F"/>
<path fill-rule="evenodd" clip-rule="evenodd" d="M215.144 303.603V305.598L221.838 302.663V300.663L215.144 303.603Z" fill="#C0B6FB"/>
<path fill-rule="evenodd" clip-rule="evenodd" d="M215.144 306.933V308.934L221.838 305.993V303.999L215.144 306.933Z" fill="#C0B6FB"/>
<path fill-rule="evenodd" clip-rule="evenodd" d="M252.516 285.644V287.582L286.179 272.81V270.867L252.516 285.644Z" fill="#6847B9"/>
<path fill-rule="evenodd" clip-rule="evenodd" d="M252.516 288.82V290.758L286.179 275.986V274.048L252.516 288.82Z" fill="#6847B9"/>
<path fill-rule="evenodd" clip-rule="evenodd" d="M252.516 292.001V293.939L286.179 279.161V277.224L252.516 292.001Z" fill="#6847B9"/>
<path fill-rule="evenodd" clip-rule="evenodd" d="M204.774 290.717L202.767 291.6L204.774 292.483L214.379 288.269L212.366 287.387L204.774 290.717Z" fill="#642E8F"/>
<path fill-rule="evenodd" clip-rule="evenodd" d="M202.072 289.531L200.064 290.413L202.072 291.296L211.677 287.083L209.669 286.2L202.072 289.531Z" fill="#642E8F"/>
<path fill-rule="evenodd" clip-rule="evenodd" d="M199.312 288.321L197.299 289.204L199.312 290.081L208.911 285.873L206.904 284.991L199.312 288.321Z" fill="#642E8F"/>
<path fill-rule="evenodd" clip-rule="evenodd" d="M251.352 270.276L249.345 271.159L251.352 272.036L260.957 267.829L258.95 266.946L251.352 270.276Z" fill="#642E8F"/>
<path fill-rule="evenodd" clip-rule="evenodd" d="M248.656 269.09L246.648 269.972L248.656 270.855L258.255 266.642L256.248 265.759L248.656 269.09Z" fill="#642E8F"/>
<path fill-rule="evenodd" clip-rule="evenodd" d="M245.891 267.88L243.883 268.757L245.891 269.64L255.495 265.427L253.482 264.55L245.891 267.88Z" fill="#642E8F"/>
<path fill-rule="evenodd" clip-rule="evenodd" d="M210.173 203.732L132.27 237.918L210.173 272.105L288.083 237.918L210.173 203.732Z" fill="#7A777E"/>
<path fill-rule="evenodd" clip-rule="evenodd" d="M210.179 272.106V295.344L132.27 261.151V237.919L210.179 272.106Z" fill="#642E8F"/>
<path fill-rule="evenodd" clip-rule="evenodd" d="M210.18 272.106V295.344L288.083 261.151V237.919L210.18 272.106Z" fill="#834AE0"/>
<path fill-rule="evenodd" clip-rule="evenodd" d="M251.896 277.035L288.083 261.151V237.919L265.777 247.704L251.896 277.035Z" fill="#AC83F6"/>
<path fill-rule="evenodd" clip-rule="evenodd" d="M213.749 275.527V286.459L250.398 270.374V259.443L213.749 275.527Z" fill="#6847B9"/>
<path fill-rule="evenodd" clip-rule="evenodd" d="M213.749 275.528V283.627L247.615 268.764V260.664L213.749 275.528Z" fill="#642E8F"/>
<path fill-rule="evenodd" clip-rule="evenodd" d="M215.144 276.479V278.473L221.838 275.539V273.538L215.144 276.479Z" fill="#C0B6FB"/>
<path fill-rule="evenodd" clip-rule="evenodd" d="M215.144 279.815V281.81L221.838 278.869V276.875L215.144 279.815Z" fill="#C0B6FB"/>
<path fill-rule="evenodd" clip-rule="evenodd" d="M252.516 258.52V260.458L286.179 245.686V243.743L252.516 258.52Z" fill="#6847B9"/>
<path fill-rule="evenodd" clip-rule="evenodd" d="M252.516 261.696V263.633L286.179 248.861V246.924L252.516 261.696Z" fill="#6847B9"/>
<path fill-rule="evenodd" clip-rule="evenodd" d="M252.516 264.877V266.815L286.179 252.037V250.1L252.516 264.877Z" fill="#6847B9"/>
<path fill-rule="evenodd" clip-rule="evenodd" d="M204.775 263.593L202.768 264.476L204.775 265.359L214.38 261.145L212.367 260.263L204.775 263.593Z" fill="#642E8F"/>
<path fill-rule="evenodd" clip-rule="evenodd" d="M202.073 262.407L200.065 263.289L202.073 264.172L211.678 259.959L209.67 259.076L202.073 262.407Z" fill="#642E8F"/>
<path fill-rule="evenodd" clip-rule="evenodd" d="M199.313 261.197L197.3 262.08L199.313 262.957L208.912 258.749L206.905 257.867L199.313 261.197Z" fill="#642E8F"/>
<path fill-rule="evenodd" clip-rule="evenodd" d="M251.352 243.152L249.345 244.035L251.352 244.912L260.957 240.705L258.95 239.822L251.352 243.152Z" fill="#642E8F"/>
<path fill-rule="evenodd" clip-rule="evenodd" d="M248.656 241.966L246.648 242.848L248.656 243.731L258.255 239.518L256.248 238.635L248.656 241.966Z" fill="#642E8F"/>
<path fill-rule="evenodd" clip-rule="evenodd" d="M245.891 240.756L243.883 241.633L245.891 242.516L255.495 238.303L253.482 237.426L245.891 240.756Z" fill="#642E8F"/>
<path fill-rule="evenodd" clip-rule="evenodd" d="M210.173 176.607L132.27 210.794L210.173 244.981L288.083 210.794L210.173 176.607Z" fill="#7A777E"/>
<path fill-rule="evenodd" clip-rule="evenodd" d="M210.179 244.981V268.219L132.27 234.026V210.794L210.179 244.981Z" fill="#642E8F"/>
<path fill-rule="evenodd" clip-rule="evenodd" d="M210.18 244.981V268.219L288.083 234.026V210.794L210.18 244.981Z" fill="#834AE0"/>
<path fill-rule="evenodd" clip-rule="evenodd" d="M251.896 249.91L288.083 234.026V210.794L265.777 220.584L251.896 249.91Z" fill="#AC83F6"/>
<path fill-rule="evenodd" clip-rule="evenodd" d="M213.749 248.403V259.334L250.398 243.25V232.318L213.749 248.403Z" fill="#6847B9"/>
<path fill-rule="evenodd" clip-rule="evenodd" d="M213.749 248.403V256.503L247.615 241.645V233.54L213.749 248.403Z" fill="#642E8F"/>
<path fill-rule="evenodd" clip-rule="evenodd" d="M215.144 249.354V251.349L221.838 248.414V246.414L215.144 249.354Z" fill="#C0B6FB"/>
<path fill-rule="evenodd" clip-rule="evenodd" d="M215.144 252.691V254.685L221.838 251.745V249.75L215.144 252.691Z" fill="#C0B6FB"/>
<path fill-rule="evenodd" clip-rule="evenodd" d="M252.516 231.396V233.333L286.179 218.561V216.618L252.516 231.396Z" fill="#6847B9"/>
<path fill-rule="evenodd" clip-rule="evenodd" d="M252.516 234.571V236.509L286.179 221.737V219.799L252.516 234.571Z" fill="#6847B9"/>
<path fill-rule="evenodd" clip-rule="evenodd" d="M252.516 237.753V239.69L286.179 224.913V222.975L252.516 237.753Z" fill="#6847B9"/>
<path fill-rule="evenodd" clip-rule="evenodd" d="M204.775 236.469L202.768 237.351L204.775 238.234L214.38 234.021L212.367 233.138L204.775 236.469Z" fill="#642E8F"/>
<path fill-rule="evenodd" clip-rule="evenodd" d="M202.073 235.282L200.065 236.165L202.073 237.048L211.678 232.834L209.67 231.952L202.073 235.282Z" fill="#642E8F"/>
<path fill-rule="evenodd" clip-rule="evenodd" d="M199.313 234.073L197.3 234.955L199.313 235.832L208.912 231.625L206.905 230.742L199.313 234.073Z" fill="#642E8F"/>
<path fill-rule="evenodd" clip-rule="evenodd" d="M251.352 216.028L249.345 216.91L251.352 217.787L260.957 213.58L258.95 212.697L251.352 216.028Z" fill="#642E8F"/>
<path fill-rule="evenodd" clip-rule="evenodd" d="M248.656 214.841L246.648 215.724L248.656 216.607L258.255 212.393L256.248 211.511L248.656 214.841Z" fill="#642E8F"/>
<path fill-rule="evenodd" clip-rule="evenodd" d="M245.891 213.632L243.883 214.509L245.891 215.391L255.495 211.178L253.482 210.301L245.891 213.632Z" fill="#642E8F"/>
<path fill-rule="evenodd" clip-rule="evenodd" d="M210.173 149.483L132.27 183.669L210.173 217.856L288.083 183.669L210.173 149.483Z" fill="#B6A6CC"/>
<path fill-rule="evenodd" clip-rule="evenodd" d="M210.173 149.483L132.27 183.669L176.128 202.918L254.032 168.726L210.173 149.483Z" fill="#C8AEEF"/>
<path fill-rule="evenodd" clip-rule="evenodd" d="M210.179 217.856V241.094L132.27 206.908V183.669L210.179 217.856Z" fill="#642E8F"/>
<path fill-rule="evenodd" clip-rule="evenodd" d="M210.18 217.856V241.094L288.083 206.908V183.669L210.18 217.856Z" fill="#834AE0"/>
<path fill-rule="evenodd" clip-rule="evenodd" d="M251.896 222.786L288.083 206.908V183.669L265.777 193.454L251.896 222.786Z" fill="#AC83F6"/>
<path fill-rule="evenodd" clip-rule="evenodd" d="M213.749 221.278V232.209L250.398 216.125V205.194L213.749 221.278Z" fill="#6847B9"/>
<path fill-rule="evenodd" clip-rule="evenodd" d="M213.749 221.279V229.378L247.615 214.52V206.415L213.749 221.279Z" fill="#642E8F"/>
<path fill-rule="evenodd" clip-rule="evenodd" d="M215.144 222.23V224.224L221.838 221.29V219.289L215.144 222.23Z" fill="#C0B6FB"/>
<path fill-rule="evenodd" clip-rule="evenodd" d="M215.144 225.566V227.561L221.838 224.62V222.625L215.144 225.566Z" fill="#C0B6FB"/>
<path fill-rule="evenodd" clip-rule="evenodd" d="M252.516 204.271V206.209L286.179 191.437V189.494L252.516 204.271Z" fill="#6847B9"/>
<path fill-rule="evenodd" clip-rule="evenodd" d="M252.516 207.447V209.384L286.179 194.612V192.675L252.516 207.447Z" fill="#6847B9"/>
<path fill-rule="evenodd" clip-rule="evenodd" d="M252.516 210.628V212.566L286.179 197.794V195.851L252.516 210.628Z" fill="#6847B9"/>
<path fill-rule="evenodd" clip-rule="evenodd" d="M215.428 205.411L213.42 206.294L215.428 207.177L225.033 202.964L223.025 202.081L215.428 205.411Z" fill="#834AE0"/>
<path fill-rule="evenodd" clip-rule="evenodd" d="M212.726 204.231L210.718 205.108L212.726 205.99L222.33 201.777L220.323 200.895L212.726 204.231Z" fill="#834AE0"/>
<path fill-rule="evenodd" clip-rule="evenodd" d="M257.706 186.857L255.698 187.739L257.706 188.622L267.311 184.409L265.303 183.526L257.706 186.857Z" fill="#7A777E"/>
<path fill-rule="evenodd" clip-rule="evenodd" d="M255.01 185.676L252.996 186.553L255.01 187.436L264.609 183.223L262.601 182.346L255.01 185.676Z" fill="#7A777E"/>
<path fill-rule="evenodd" clip-rule="evenodd" d="M90.6737 59.895L135.846 40.0732L183.61 61.03V72.1102L137.043 92.5454L89.2793 71.5829V60.5084L90.6737 59.895Z" fill="#B6A6CC"/>
<path fill-rule="evenodd" clip-rule="evenodd" d="M125.471 50.7926L149.628 40.1938L175.162 51.4002H175.168V57.3215L150.264 68.2527L124.73 57.0464V51.1193L125.471 50.7926Z" fill="#B6A6CC"/>
<path fill-rule="evenodd" clip-rule="evenodd" d="M65.9846 81.5684L135.528 51.0562L209.045 83.3167L137.367 114.775L63.8438 82.5085L65.9846 81.5684Z" fill="#B6A6CC"/>
<path fill-rule="evenodd" clip-rule="evenodd" d="M63.8438 115.686V82.5088L137.367 114.775V147.953L63.8438 115.686Z" fill="#D3C5E6"/>
<path fill-rule="evenodd" clip-rule="evenodd" d="M209.045 83.3169L137.367 114.775V147.953L209.045 116.495V83.3169Z" fill="#EBE5F6"/>
<path fill-rule="evenodd" clip-rule="evenodd" d="M90.6737 59.895L135.846 40.0732L183.61 61.03L137.043 81.4651L89.2793 60.5084L90.6737 59.895Z" fill="#B6A6CC"/>
<path fill-rule="evenodd" clip-rule="evenodd" d="M89.2793 71.5833V60.5088L137.043 81.4655V92.5458L89.2793 71.5833Z" fill="#D3C5E6"/>
<path fill-rule="evenodd" clip-rule="evenodd" d="M183.609 61.0303L137.043 81.4654V92.5456L183.609 72.1105V61.0303Z" fill="#EBE5F6"/>
<path fill-rule="evenodd" clip-rule="evenodd" d="M92.1198 82.9097L108.06 75.9165L124.921 83.311L108.483 90.5278L91.6279 83.1276L92.1198 82.9097Z" fill="#B6A6CC"/>
<path fill-rule="evenodd" clip-rule="evenodd" d="M91.6279 87.0368V83.1274L108.483 90.5276V94.437L91.6279 87.0368Z" fill="#D3C5E6"/>
<path fill-rule="evenodd" clip-rule="evenodd" d="M124.922 83.311L108.483 90.5278V94.4371L124.922 87.2204V83.311Z" fill="#EBE5F6"/>
<path fill-rule="evenodd" clip-rule="evenodd" d="M125.471 50.7926L149.628 40.1938L175.162 51.4002L150.264 62.3257L124.73 51.1193L125.471 50.7926Z" fill="#B6A6CC"/>
<path fill-rule="evenodd" clip-rule="evenodd" d="M124.73 57.0462V51.1191L150.264 62.3255V68.2525L124.73 57.0462Z" fill="#D3C5E6"/>
<path fill-rule="evenodd" clip-rule="evenodd" d="M175.162 51.4004L150.265 62.3259V68.2529L175.162 57.3274V51.4004Z" fill="#EBE5F6"/>
<path fill-rule="evenodd" clip-rule="evenodd" d="M53.1512 118.048L85.9352 103.66L120.594 118.868V118.873V134.511L86.8031 149.34L52.1387 134.132V118.489L53.1512 118.048Z" fill="#B6A6CC"/>
<path fill-rule="evenodd" clip-rule="evenodd" d="M53.1512 118.048L85.9352 103.66L120.594 118.873L86.8031 133.697L52.1387 118.489L53.1512 118.048Z" fill="#B6A6CC"/>
<path fill-rule="evenodd" clip-rule="evenodd" d="M52.1387 134.132V118.489L86.8031 133.697V149.34L52.1387 134.132Z" fill="#D3C5E6"/>
<path fill-rule="evenodd" clip-rule="evenodd" d="M120.593 118.868L86.8027 133.697V149.34L120.593 134.511V118.868Z" fill="#EBE5F6"/>
<path fill-rule="evenodd" clip-rule="evenodd" d="M32.8649 135.032L56.2348 124.777L80.9356 135.623V146.772L56.8482 157.342L32.1416 146.496V135.347L32.8649 135.032Z" fill="#B6A6CC"/>
<path fill-rule="evenodd" clip-rule="evenodd" d="M32.8649 135.032L56.2348 124.777L80.9356 135.623L56.8482 146.193L32.1416 135.347L32.8649 135.032Z" fill="#B6A6CC"/>
<path fill-rule="evenodd" clip-rule="evenodd" d="M32.1416 146.497V135.348L56.8482 146.193V157.342L32.1416 146.497Z" fill="#D3C5E6"/>
<path fill-rule="evenodd" clip-rule="evenodd" d="M80.9361 135.623L56.8486 146.193V157.342L80.9361 146.772V135.623Z" fill="#EBE5F6"/>
<path fill-rule="evenodd" clip-rule="evenodd" d="M377.536 110.172L420.133 91.4795L465.172 111.244V131.57L421.262 150.842L376.223 131.071V110.745L377.536 110.172Z" fill="#B6A6CC"/>
<path fill-rule="evenodd" clip-rule="evenodd" d="M377.536 110.172L420.133 91.4795L465.172 111.244L421.262 130.515L376.223 110.745L377.536 110.172Z" fill="#B6A6CC"/>
<path fill-rule="evenodd" clip-rule="evenodd" d="M376.223 131.071V110.745L421.262 130.515V150.842L376.223 131.071Z" fill="#D3C5E6"/>
<path fill-rule="evenodd" clip-rule="evenodd" d="M465.172 111.244L421.262 130.515V150.841L465.172 131.57V111.244Z" fill="#EBE5F6"/>
<path fill-rule="evenodd" clip-rule="evenodd" d="M404.545 100.656L428.436 90.1724L453.698 101.258V112.66L429.067 123.465L403.811 112.379V100.983L404.545 100.656Z" fill="#B6A6CC"/>
<path fill-rule="evenodd" clip-rule="evenodd" d="M404.545 100.656L428.436 90.1724L453.698 101.258L429.067 112.069L403.811 100.983L404.545 100.656Z" fill="#B6A6CC"/>
<path fill-rule="evenodd" clip-rule="evenodd" d="M403.811 112.379V100.983L429.067 112.069V123.465L403.811 112.379Z" fill="#D3C5E6"/>
<path fill-rule="evenodd" clip-rule="evenodd" d="M453.698 101.258L429.066 112.069V123.465L453.698 112.66V101.258Z" fill="#EBE5F6"/>
<path fill-rule="evenodd" clip-rule="evenodd" d="M437.376 131.409L455.81 123.321L475.298 131.874L475.303 131.868V131.874V140.667L456.302 149.007L436.809 140.455V131.656L437.376 131.409Z" fill="#B6A6CC"/>
<path fill-rule="evenodd" clip-rule="evenodd" d="M437.376 131.409L455.81 123.321L475.303 131.874L456.302 140.208L436.809 131.656L437.376 131.409Z" fill="#B6A6CC"/>
<path fill-rule="evenodd" clip-rule="evenodd" d="M436.809 140.455V131.656L456.302 140.208V149.007L436.809 140.455Z" fill="#D3C5E6"/>
<path fill-rule="evenodd" clip-rule="evenodd" d="M475.303 131.868L456.302 140.208V149.007L475.303 140.667V131.868Z" fill="#EBE5F6"/>
<path fill-rule="evenodd" clip-rule="evenodd" d="M464.223 143.401L478.549 137.113L493.691 143.763V150.595L478.925 157.073L463.783 150.429V143.596L464.223 143.401Z" fill="#B6A6CC"/>
<path fill-rule="evenodd" clip-rule="evenodd" d="M464.223 143.401L478.549 137.113L493.691 143.763L478.925 150.24L463.783 143.596L464.223 143.401Z" fill="#B6A6CC"/>
<path fill-rule="evenodd" clip-rule="evenodd" d="M463.783 150.429V143.596L478.925 150.24V157.072L463.783 150.429Z" fill="#D3C5E6"/>
<path fill-rule="evenodd" clip-rule="evenodd" d="M493.692 143.763L478.926 150.24V157.073L493.692 150.595V143.763Z" fill="#EBE5F6"/>
<path fill-rule="evenodd" clip-rule="evenodd" d="M247.476 23.4963L268.266 14.3765L290.247 24.0179V33.9403L268.815 43.341L246.834 33.6938V23.7772L247.476 23.4963Z" fill="#B6A6CC"/>
<path fill-rule="evenodd" clip-rule="evenodd" d="M247.476 23.4963L268.266 14.3765L290.247 24.0179L268.815 33.4244L246.834 23.7772L247.476 23.4963Z" fill="#B6A6CC"/>
<path fill-rule="evenodd" clip-rule="evenodd" d="M246.834 33.6992V23.7769L268.815 33.4241V43.3407L246.834 33.6992Z" fill="#D3C5E6"/>
<path fill-rule="evenodd" clip-rule="evenodd" d="M290.247 24.0176L268.815 33.424V43.3407L290.247 33.9399V24.0176Z" fill="#EBE5F6"/>
<path fill-rule="evenodd" clip-rule="evenodd" d="M451.373 54.4499L475.263 43.9658L500.525 55.0461V55.0518V66.4473L475.894 77.2582L450.638 66.1722V54.7709L451.373 54.4499Z" fill="#B6A6CC"/>
<path fill-rule="evenodd" clip-rule="evenodd" d="M451.373 54.4499L453.623 53.4583L475.263 43.9658L500.525 55.0518L475.894 65.8569L450.638 54.7709L451.373 54.4499Z" fill="#B6A6CC"/>
<path fill-rule="evenodd" clip-rule="evenodd" d="M450.638 66.1718V54.7705L475.894 65.8565V77.2577L450.638 66.1718Z" fill="#D3C5E6"/>
<path fill-rule="evenodd" clip-rule="evenodd" d="M500.525 55.0459L475.894 65.8567V77.258L500.525 66.4471V55.0459Z" fill="#EBE5F6"/>
<path fill-rule="evenodd" clip-rule="evenodd" d="M443.856 100.192L445.112 99.642L431.075 93.48L429.813 94.0303L443.856 100.192Z" fill="#B2F2F2"/>
<path fill-rule="evenodd" clip-rule="evenodd" d="M431.075 93.4799V82.0786L445.112 88.2407V99.6419L431.075 93.4799Z" fill="#6DCFF2"/>
<path fill-rule="evenodd" clip-rule="evenodd" d="M430.682 93.7896V82.394L444.719 88.5504V99.9516L430.682 93.7896Z" fill="#B6A6CC"/>
<path fill-rule="evenodd" clip-rule="evenodd" d="M429.813 94.0303V82.6348L443.856 88.7911V100.192L429.813 94.0303Z" fill="#6DCFF2"/>
<path fill-rule="evenodd" clip-rule="evenodd" d="M440.836 101.517L442.091 100.966L428.054 94.8042L426.793 95.3602L440.836 101.517Z" fill="#B2F2F2"/>
<path fill-rule="evenodd" clip-rule="evenodd" d="M428.055 94.8042V83.4087L442.092 89.565V100.966L428.055 94.8042Z" fill="#6DCFF2"/>
<path fill-rule="evenodd" clip-rule="evenodd" d="M427.661 95.1195V83.7183L441.698 89.8803V101.276L427.661 95.1195Z" fill="#B6A6CC"/>
<path fill-rule="evenodd" clip-rule="evenodd" d="M426.793 95.3602V83.959L440.836 90.121V101.517L426.793 95.3602Z" fill="#6DCFF2"/>
<path fill-rule="evenodd" clip-rule="evenodd" d="M437.815 95.0161L439.071 94.4658L425.034 88.3037L423.772 88.854L437.815 95.0161Z" fill="#B2F2F2"/>
<path fill-rule="evenodd" clip-rule="evenodd" d="M425.034 88.3036V76.9023L439.071 83.0644V94.4657L425.034 88.3036Z" fill="#6DCFF2"/>
<path fill-rule="evenodd" clip-rule="evenodd" d="M424.641 88.6133V77.2178L438.678 83.3741V94.7753L424.641 88.6133Z" fill="#B6A6CC"/>
<path fill-rule="evenodd" clip-rule="evenodd" d="M423.772 88.854V77.4585L437.815 83.6148V95.0161L423.772 88.854Z" fill="#6DCFF2"/>
<path fill-rule="evenodd" clip-rule="evenodd" d="M434.795 104.17L436.05 103.62L422.013 97.458L420.752 98.0083L434.795 104.17Z" fill="#B2F2F2"/>
<path fill-rule="evenodd" clip-rule="evenodd" d="M422.014 97.4579V86.0566L436.051 92.2187V103.62L422.014 97.4579Z" fill="#6DCFF2"/>
<path fill-rule="evenodd" clip-rule="evenodd" d="M421.62 97.7675V86.3662L435.657 92.5283V103.93L421.62 97.7675Z" fill="#B6A6CC"/>
<path fill-rule="evenodd" clip-rule="evenodd" d="M420.752 98.0082V86.6069L434.795 92.769V104.17L420.752 98.0082Z" fill="#6DCFF2"/>
<path fill-rule="evenodd" clip-rule="evenodd" d="M431.774 105.495L433.03 104.944L418.993 98.7822L417.731 99.3325L431.774 105.495Z" fill="#B2F2F2"/>
<path fill-rule="evenodd" clip-rule="evenodd" d="M418.993 98.7821V87.3809L433.03 93.5429V104.944L418.993 98.7821Z" fill="#6DCFF2"/>
<path fill-rule="evenodd" clip-rule="evenodd" d="M418.6 99.0918V87.6963L432.637 93.8526V105.254L418.6 99.0918Z" fill="#B6A6CC"/>
<path fill-rule="evenodd" clip-rule="evenodd" d="M417.731 99.3325V87.937L431.774 94.0933V105.495L417.731 99.3325Z" fill="#6DCFF2"/>
<path fill-rule="evenodd" clip-rule="evenodd" d="M428.754 106.819L430.009 106.269L415.972 100.106L414.711 100.662L428.754 106.819Z" fill="#B2F2F2"/>
<path fill-rule="evenodd" clip-rule="evenodd" d="M415.973 100.106V88.7051L430.01 94.8671V106.268L415.973 100.106Z" fill="#6DCFF2"/>
<path fill-rule="evenodd" clip-rule="evenodd" d="M415.579 100.416V89.0205L429.616 95.1826V106.578L415.579 100.416Z" fill="#B6A6CC"/>
<path fill-rule="evenodd" clip-rule="evenodd" d="M414.711 100.662V89.2612L428.754 95.4233V106.819L414.711 100.662Z" fill="#6DCFF2"/>
<path fill-rule="evenodd" clip-rule="evenodd" d="M469.957 130.298L471.218 129.748L457.175 123.585L455.92 124.136L469.957 130.298Z" fill="#B2F2F2"/>
<path fill-rule="evenodd" clip-rule="evenodd" d="M457.176 123.585V112.184L471.219 118.346V129.747L457.176 123.585Z" fill="#6DCFF2"/>
<path fill-rule="evenodd" clip-rule="evenodd" d="M456.782 123.895V112.5L470.825 118.656V130.057L456.782 123.895Z" fill="#B6A6CC"/>
<path fill-rule="evenodd" clip-rule="evenodd" d="M455.92 124.136V112.74L469.957 118.897V130.298L455.92 124.136Z" fill="#6DCFF2"/>
<path fill-rule="evenodd" clip-rule="evenodd" d="M466.936 131.622L468.198 131.071L454.155 124.909L452.899 125.465L466.936 131.622Z" fill="#B2F2F2"/>
<path fill-rule="evenodd" clip-rule="evenodd" d="M454.155 124.909V113.514L468.198 119.67V131.071L454.155 124.909Z" fill="#6DCFF2"/>
<path fill-rule="evenodd" clip-rule="evenodd" d="M453.762 125.219V113.823L467.805 119.985V131.381L453.762 125.219Z" fill="#B6A6CC"/>
<path fill-rule="evenodd" clip-rule="evenodd" d="M452.899 125.465V114.064L466.936 120.226V131.622L452.899 125.465Z" fill="#6DCFF2"/>
<path fill-rule="evenodd" clip-rule="evenodd" d="M463.916 132.951L465.177 132.395L451.134 126.233L449.879 126.789L463.916 132.951Z" fill="#B2F2F2"/>
<path fill-rule="evenodd" clip-rule="evenodd" d="M451.135 126.233V114.838L465.178 121V132.395L451.135 126.233Z" fill="#6DCFF2"/>
<path fill-rule="evenodd" clip-rule="evenodd" d="M450.741 126.549V115.147L464.784 121.31V132.711L450.741 126.549Z" fill="#B6A6CC"/>
<path fill-rule="evenodd" clip-rule="evenodd" d="M449.879 126.789V115.388L463.916 121.55V132.951L449.879 126.789Z" fill="#6DCFF2"/>
<path fill-rule="evenodd" clip-rule="evenodd" d="M460.896 134.276L462.158 133.72L448.115 127.563L446.859 128.114L460.896 134.276Z" fill="#B2F2F2"/>
<path fill-rule="evenodd" clip-rule="evenodd" d="M448.115 127.563V116.162L462.158 122.324V133.72L448.115 127.563Z" fill="#6DCFF2"/>
<path fill-rule="evenodd" clip-rule="evenodd" d="M447.722 127.873V116.472L461.765 122.634V134.035L447.722 127.873Z" fill="#B6A6CC"/>
<path fill-rule="evenodd" clip-rule="evenodd" d="M446.859 128.114V116.712L460.896 122.874V134.276L446.859 128.114Z" fill="#6DCFF2"/>
<path fill-rule="evenodd" clip-rule="evenodd" d="M457.876 135.6L459.137 135.05L445.094 128.888L443.839 129.438L457.876 135.6Z" fill="#B2F2F2"/>
<path fill-rule="evenodd" clip-rule="evenodd" d="M445.095 128.888V117.486L459.138 123.648V135.05L445.095 128.888Z" fill="#6DCFF2"/>
<path fill-rule="evenodd" clip-rule="evenodd" d="M444.701 129.197V117.802L458.744 123.958V135.359L444.701 129.197Z" fill="#B6A6CC"/>
<path fill-rule="evenodd" clip-rule="evenodd" d="M443.839 129.438V118.042L457.876 124.199V135.6L443.839 129.438Z" fill="#6DCFF2"/>
<path fill-rule="evenodd" clip-rule="evenodd" d="M454.855 136.924L456.117 136.374L442.074 130.212L440.818 130.768L454.855 136.924Z" fill="#B2F2F2"/>
<path fill-rule="evenodd" clip-rule="evenodd" d="M442.074 130.212V118.811L456.117 124.973V136.374L442.074 130.212Z" fill="#6DCFF2"/>
<path fill-rule="evenodd" clip-rule="evenodd" d="M441.681 130.521V119.126L455.723 125.288V136.684L441.681 130.521Z" fill="#B6A6CC"/>
<path fill-rule="evenodd" clip-rule="evenodd" d="M440.818 130.768V119.367L454.855 125.529V136.924L440.818 130.768Z" fill="#6DCFF2"/>
<path fill-rule="evenodd" clip-rule="evenodd" d="M455.521 66.1091V59.1216L471.01 65.9199V72.9074L455.521 66.1091Z" fill="#BBA6CC"/>
<path fill-rule="evenodd" clip-rule="evenodd" d="M457.742 60.0957L471.01 65.9138V70.6773L457.742 64.8534V60.0957Z" fill="#642E8F"/>
<path fill-rule="evenodd" clip-rule="evenodd" d="M379.243 129.438V122.45L394.733 129.249V136.236L379.243 129.438Z" fill="#BBA6CC"/>
<path fill-rule="evenodd" clip-rule="evenodd" d="M381.465 123.425L394.732 129.243V134.006L381.465 128.182V123.425Z" fill="#642E8F"/>
<path fill-rule="evenodd" clip-rule="evenodd" d="M141.667 52.415L140.405 51.8647L154.448 45.7026L155.704 46.2529L141.667 52.415Z" fill="#B2F2F2"/>
<path fill-rule="evenodd" clip-rule="evenodd" d="M154.448 45.7025V34.3013L140.405 40.4633V51.8646L154.448 45.7025Z" fill="#6DCFF2"/>
<path fill-rule="evenodd" clip-rule="evenodd" d="M154.841 46.0122V34.6167L140.804 40.773V52.1743L154.841 46.0122Z" fill="#B6A6CC"/>
<path fill-rule="evenodd" clip-rule="evenodd" d="M155.703 46.2529V34.8574L141.666 41.0138V52.415L155.703 46.2529Z" fill="#6DCFF2"/>
<path fill-rule="evenodd" clip-rule="evenodd" d="M152.099 44.9059V39.3687L145.271 42.3608V47.9038L152.099 44.9059Z" fill="#B2F2F2"/>
<path fill-rule="evenodd" clip-rule="evenodd" d="M144.241 53.5439L142.979 52.9936L157.017 46.8315L158.278 47.3818L144.241 53.5439Z" fill="#B2F2F2"/>
<path fill-rule="evenodd" clip-rule="evenodd" d="M157.017 46.8319V35.4307L142.979 41.5927V52.994L157.017 46.8319Z" fill="#6DCFF2"/>
<path fill-rule="evenodd" clip-rule="evenodd" d="M157.416 47.141V35.7397L143.373 41.9018V53.3031L157.416 47.141Z" fill="#B6A6CC"/>
<path fill-rule="evenodd" clip-rule="evenodd" d="M158.278 47.3822V35.981L144.241 42.143V53.5443L158.278 47.3822Z" fill="#6DCFF2"/>
<path fill-rule="evenodd" clip-rule="evenodd" d="M154.673 46.0347V40.4917L147.846 43.4896V49.0326L154.673 46.0347Z" fill="#B2F2F2"/>
<path fill-rule="evenodd" clip-rule="evenodd" d="M146.81 54.6733L145.549 54.1173L159.592 47.9609L160.847 48.5112L146.81 54.6733Z" fill="#B2F2F2"/>
<path fill-rule="evenodd" clip-rule="evenodd" d="M159.592 47.9608V36.5596L145.549 42.7216V54.1172L159.592 47.9608Z" fill="#6DCFF2"/>
<path fill-rule="evenodd" clip-rule="evenodd" d="M159.985 48.2704V36.8691L145.948 43.0312V54.4325L159.985 48.2704Z" fill="#B6A6CC"/>
<path fill-rule="evenodd" clip-rule="evenodd" d="M160.848 48.5111V37.1099L146.811 43.2719V54.6732L160.848 48.5111Z" fill="#6DCFF2"/>
<path fill-rule="evenodd" clip-rule="evenodd" d="M157.243 47.1641V41.6211L150.415 44.619V50.162L157.243 47.1641Z" fill="#B2F2F2"/>
<path fill-rule="evenodd" clip-rule="evenodd" d="M149.385 55.8026L148.124 55.2465L162.161 49.0845L163.422 49.6405L149.385 55.8026Z" fill="#B2F2F2"/>
<path fill-rule="evenodd" clip-rule="evenodd" d="M162.161 49.0845V37.689L148.124 43.851V55.2465L162.161 49.0845Z" fill="#6DCFF2"/>
<path fill-rule="evenodd" clip-rule="evenodd" d="M162.559 49.3998V37.9985L148.517 44.1606V55.5618L162.559 49.3998Z" fill="#B6A6CC"/>
<path fill-rule="evenodd" clip-rule="evenodd" d="M163.422 49.6405V38.2393L149.385 44.4013V55.8026L163.422 49.6405Z" fill="#6DCFF2"/>
<path fill-rule="evenodd" clip-rule="evenodd" d="M159.817 48.2935V42.7505L152.989 45.7484V51.2914L159.817 48.2935Z" fill="#B2F2F2"/>
<path fill-rule="evenodd" clip-rule="evenodd" d="M151.954 56.932L150.698 56.3759L164.735 50.2139L165.997 50.7699L151.954 56.932Z" fill="#B2F2F2"/>
<path fill-rule="evenodd" clip-rule="evenodd" d="M164.735 50.2139V38.8184L150.698 44.9804V56.3759L164.735 50.2139Z" fill="#6DCFF2"/>
<path fill-rule="evenodd" clip-rule="evenodd" d="M165.129 50.5287V39.1274L151.092 45.2895V56.6908L165.129 50.5287Z" fill="#B6A6CC"/>
<path fill-rule="evenodd" clip-rule="evenodd" d="M165.997 50.7699V39.3687L151.954 45.5307V56.932L165.997 50.7699Z" fill="#6DCFF2"/>
<path fill-rule="evenodd" clip-rule="evenodd" d="M162.386 49.4224V43.8794L155.559 46.8773V52.4203L162.386 49.4224Z" fill="#B2F2F2"/>
<path fill-rule="evenodd" clip-rule="evenodd" d="M154.529 51.9506L153.268 51.4003L167.31 45.2383L168.566 45.7886L154.529 51.9506Z" fill="#B2F2F2"/>
<path fill-rule="evenodd" clip-rule="evenodd" d="M167.31 45.2382V33.8369L153.268 39.999V51.4002L167.31 45.2382Z" fill="#6DCFF2"/>
<path fill-rule="evenodd" clip-rule="evenodd" d="M167.704 45.5479V34.1523L153.661 40.3087V51.7099L167.704 45.5479Z" fill="#B6A6CC"/>
<path fill-rule="evenodd" clip-rule="evenodd" d="M168.566 45.7886V34.3931L154.529 40.5551V51.9506L168.566 45.7886Z" fill="#6DCFF2"/>
<path fill-rule="evenodd" clip-rule="evenodd" d="M164.961 44.4473V38.9043L158.134 41.8965V47.4395L164.961 44.4473Z" fill="#B2F2F2"/>
<path fill-rule="evenodd" clip-rule="evenodd" d="M120.24 61.6551L121.502 61.0991L107.464 54.937L106.203 55.493L120.24 61.6551Z" fill="#B2F2F2"/>
<path fill-rule="evenodd" clip-rule="evenodd" d="M107.465 54.937V43.5415L121.502 49.6978V61.0991L107.465 54.937Z" fill="#6DCFF2"/>
<path fill-rule="evenodd" clip-rule="evenodd" d="M107.065 55.2523V43.8511L121.108 50.0131V61.4144L107.065 55.2523Z" fill="#B6A6CC"/>
<path fill-rule="evenodd" clip-rule="evenodd" d="M106.203 55.493V44.0918L120.24 50.2539V61.6551L106.203 55.493Z" fill="#6DCFF2"/>
<path fill-rule="evenodd" clip-rule="evenodd" d="M109.809 54.146V48.603L116.636 51.6009V57.1439L109.809 54.146Z" fill="#B2F2F2"/>
<path fill-rule="evenodd" clip-rule="evenodd" d="M117.672 62.7788L118.927 62.2285L104.89 56.0664L103.629 56.6224L117.672 62.7788Z" fill="#B2F2F2"/>
<path fill-rule="evenodd" clip-rule="evenodd" d="M104.89 56.0664V44.6709L118.927 50.8272V62.2285L104.89 56.0664Z" fill="#6DCFF2"/>
<path fill-rule="evenodd" clip-rule="evenodd" d="M104.496 56.3812V44.98L118.533 51.142V62.5376L104.496 56.3812Z" fill="#B6A6CC"/>
<path fill-rule="evenodd" clip-rule="evenodd" d="M103.629 56.622V45.2207L117.672 51.3828V62.7783L103.629 56.622Z" fill="#6DCFF2"/>
<path fill-rule="evenodd" clip-rule="evenodd" d="M107.239 55.2749V49.7319L114.067 52.7298V58.2671L107.239 55.2749Z" fill="#B2F2F2"/>
<path fill-rule="evenodd" clip-rule="evenodd" d="M115.097 63.9077L116.358 63.3574L102.315 57.1953L101.06 57.7456L115.097 63.9077Z" fill="#B2F2F2"/>
<path fill-rule="evenodd" clip-rule="evenodd" d="M102.315 57.1952V45.7939L116.358 51.956V63.3573L102.315 57.1952Z" fill="#6DCFF2"/>
<path fill-rule="evenodd" clip-rule="evenodd" d="M101.922 57.5049V46.1094L115.965 52.2714V63.667L101.922 57.5049Z" fill="#B6A6CC"/>
<path fill-rule="evenodd" clip-rule="evenodd" d="M101.06 57.7456V46.3501L115.097 52.5122V63.9077L101.06 57.7456Z" fill="#6DCFF2"/>
<path fill-rule="evenodd" clip-rule="evenodd" d="M104.664 56.4043V50.8613L111.492 53.8535V59.3965L104.664 56.4043Z" fill="#B2F2F2"/>
<path fill-rule="evenodd" clip-rule="evenodd" d="M112.527 65.0371L113.783 64.4868L99.7457 58.3247L98.4844 58.875L112.527 65.0371Z" fill="#B2F2F2"/>
<path fill-rule="evenodd" clip-rule="evenodd" d="M99.7461 58.3246V46.9233L113.783 53.0854V64.4867L99.7461 58.3246Z" fill="#6DCFF2"/>
<path fill-rule="evenodd" clip-rule="evenodd" d="M99.3525 58.6343V47.2388L113.39 53.3951V64.7963L99.3525 58.6343Z" fill="#B6A6CC"/>
<path fill-rule="evenodd" clip-rule="evenodd" d="M98.4844 58.875V47.4795L112.527 53.6358V65.0371L98.4844 58.875Z" fill="#6DCFF2"/>
<path fill-rule="evenodd" clip-rule="evenodd" d="M102.096 57.5337V51.9907L108.923 54.9829V60.5259L102.096 57.5337Z" fill="#B2F2F2"/>
<path fill-rule="evenodd" clip-rule="evenodd" d="M109.953 66.1665L111.214 65.6162L97.1716 59.4541L95.916 60.0044L109.953 66.1665Z" fill="#B2F2F2"/>
<path fill-rule="evenodd" clip-rule="evenodd" d="M97.1709 59.454V48.0527L111.214 54.2148V65.616L97.1709 59.454Z" fill="#6DCFF2"/>
<path fill-rule="evenodd" clip-rule="evenodd" d="M96.7783 59.7636V48.3623L110.821 54.5244V65.9256L96.7783 59.7636Z" fill="#B6A6CC"/>
<path fill-rule="evenodd" clip-rule="evenodd" d="M95.916 60.0044V48.6089L109.953 54.7652V66.1665L95.916 60.0044Z" fill="#6DCFF2"/>
<path fill-rule="evenodd" clip-rule="evenodd" d="M99.5205 58.6569V53.1196L106.348 56.1118V61.6548L99.5205 58.6569Z" fill="#B2F2F2"/>
<path fill-rule="evenodd" clip-rule="evenodd" d="M141.725 71.3193L142.986 70.769L128.943 64.6069L127.688 65.1572L141.725 71.3193Z" fill="#B2F2F2"/>
<path fill-rule="evenodd" clip-rule="evenodd" d="M128.942 64.6073V53.2061L142.985 59.3681V70.7694L128.942 64.6073Z" fill="#6DCFF2"/>
<path fill-rule="evenodd" clip-rule="evenodd" d="M128.549 64.9164V53.5151L142.592 59.6772V71.0785L128.549 64.9164Z" fill="#B6A6CC"/>
<path fill-rule="evenodd" clip-rule="evenodd" d="M127.688 65.1576V53.7563L141.725 59.9184V71.3197L127.688 65.1576Z" fill="#6DCFF2"/>
<path fill-rule="evenodd" clip-rule="evenodd" d="M131.292 63.8101V58.2671L138.12 61.265V66.808L131.292 63.8101Z" fill="#B2F2F2"/>
<path fill-rule="evenodd" clip-rule="evenodd" d="M139.155 72.4487L140.411 71.8927L126.374 65.7363L125.112 66.2866L139.155 72.4487Z" fill="#B2F2F2"/>
<path fill-rule="evenodd" clip-rule="evenodd" d="M126.374 65.7362V54.335L140.411 60.497V71.8925L126.374 65.7362Z" fill="#6DCFF2"/>
<path fill-rule="evenodd" clip-rule="evenodd" d="M125.98 66.0458V54.6445L140.018 60.8066V72.2078L125.98 66.0458Z" fill="#B6A6CC"/>
<path fill-rule="evenodd" clip-rule="evenodd" d="M125.112 66.2865V54.8853L139.155 61.0473V72.4486L125.112 66.2865Z" fill="#6DCFF2"/>
<path fill-rule="evenodd" clip-rule="evenodd" d="M128.717 64.9395V59.3965L135.544 62.3944V67.9374L128.717 64.9395Z" fill="#B2F2F2"/>
<path fill-rule="evenodd" clip-rule="evenodd" d="M136.58 73.5779L137.841 73.0219L123.799 66.8599L122.543 67.4159L136.58 73.5779Z" fill="#B2F2F2"/>
<path fill-rule="evenodd" clip-rule="evenodd" d="M123.799 66.8599V55.4644L137.842 61.6264V73.0219L123.799 66.8599Z" fill="#6DCFF2"/>
<path fill-rule="evenodd" clip-rule="evenodd" d="M123.405 67.1752V55.7739L137.442 61.936V73.3372L123.405 67.1752Z" fill="#B6A6CC"/>
<path fill-rule="evenodd" clip-rule="evenodd" d="M122.543 67.4159V56.0146L136.58 62.1767V73.578L122.543 67.4159Z" fill="#6DCFF2"/>
<path fill-rule="evenodd" clip-rule="evenodd" d="M126.148 66.0689V60.5259L132.976 63.5238V69.0668L126.148 66.0689Z" fill="#B2F2F2"/>
<path fill-rule="evenodd" clip-rule="evenodd" d="M134.012 74.7016L135.267 74.1513L121.23 67.9893L119.969 68.5453L134.012 74.7016Z" fill="#B2F2F2"/>
<path fill-rule="evenodd" clip-rule="evenodd" d="M121.229 67.9893V56.5938L135.267 62.7501V74.1513L121.229 67.9893Z" fill="#6DCFF2"/>
<path fill-rule="evenodd" clip-rule="evenodd" d="M120.836 68.3041V56.9028L134.873 63.0649V74.4604L120.836 68.3041Z" fill="#B6A6CC"/>
<path fill-rule="evenodd" clip-rule="evenodd" d="M119.969 68.5453V57.144L134.012 63.3061V74.7016L119.969 68.5453Z" fill="#6DCFF2"/>
<path fill-rule="evenodd" clip-rule="evenodd" d="M123.573 67.1978V61.6548L130.401 64.6527V70.19L123.573 67.1978Z" fill="#B2F2F2"/>
<path fill-rule="evenodd" clip-rule="evenodd" d="M131.436 75.8305L132.698 75.2802L118.655 69.1182L117.399 69.6742L131.436 75.8305Z" fill="#B2F2F2"/>
<path fill-rule="evenodd" clip-rule="evenodd" d="M118.655 69.118V57.7168L132.698 63.8789V75.2801L118.655 69.118Z" fill="#6DCFF2"/>
<path fill-rule="evenodd" clip-rule="evenodd" d="M118.262 69.4277V58.0322L132.299 64.1943V75.5898L118.262 69.4277Z" fill="#B6A6CC"/>
<path fill-rule="evenodd" clip-rule="evenodd" d="M117.399 69.6742V58.2729L131.436 64.435V75.8305L117.399 69.6742Z" fill="#6DCFF2"/>
<path fill-rule="evenodd" clip-rule="evenodd" d="M121.004 68.3272V62.7842L127.831 65.7764V71.3194L121.004 68.3272Z" fill="#B2F2F2"/>
<path fill-rule="evenodd" clip-rule="evenodd" d="M128.867 76.9599L130.123 76.4096L116.086 70.2476L114.824 70.7978L128.867 76.9599Z" fill="#B2F2F2"/>
<path fill-rule="evenodd" clip-rule="evenodd" d="M116.086 70.2474V58.8462L130.123 65.0083V76.4095L116.086 70.2474Z" fill="#6DCFF2"/>
<path fill-rule="evenodd" clip-rule="evenodd" d="M115.687 70.5571V59.1616L129.729 65.3237V76.7192L115.687 70.5571Z" fill="#B6A6CC"/>
<path fill-rule="evenodd" clip-rule="evenodd" d="M114.824 70.7979V59.4023L128.867 65.5644V76.9599L114.824 70.7979Z" fill="#6DCFF2"/>
<path fill-rule="evenodd" clip-rule="evenodd" d="M118.43 69.4566V63.9136L125.257 66.9058V72.4487L118.43 69.4566Z" fill="#B2F2F2"/>
<path fill-rule="evenodd" clip-rule="evenodd" d="M385.006 126.245L391.191 128.962V131.181L385.006 128.469V126.245Z" fill="#C0B6FB"/>
<path fill-rule="evenodd" clip-rule="evenodd" d="M460.901 62.8242L467.087 65.5355V67.7596L460.901 65.0426V62.8242Z" fill="#C0B6FB"/>
<path fill-rule="evenodd" clip-rule="evenodd" d="M457.742 60.0957L458.176 60.2849V64.5496L471.01 70.1786V70.6773L457.742 64.8534V60.0957Z" fill="#C0B6FB"/>
<path fill-rule="evenodd" clip-rule="evenodd" d="M381.465 123.425L381.899 123.614V127.873L394.732 133.508V134.006L381.465 128.182V123.425Z" fill="#C0B6FB"/>
<path fill-rule="evenodd" clip-rule="evenodd" d="M202.784 99.1891V92.2017L187.295 99V105.987L202.784 99.1891Z" fill="#BBA6CC"/>
<path fill-rule="evenodd" clip-rule="evenodd" d="M200.562 93.1763L187.295 99.0001V103.758L200.562 97.934V93.1763Z" fill="#642E8F"/>
<path fill-rule="evenodd" clip-rule="evenodd" d="M197.022 96.002L190.837 98.7133V100.932L197.022 98.2203V96.002Z" fill="#C0B6FB"/>
<path fill-rule="evenodd" clip-rule="evenodd" d="M200.562 93.1763L200.128 93.3654V97.6302L187.295 103.259V103.758L200.562 97.934V93.1763Z" fill="#C0B6FB"/>
<path fill-rule="evenodd" clip-rule="evenodd" d="M43.5456 135.193L42.29 134.643L56.3271 128.48L57.5884 129.036L43.5456 135.193Z" fill="#B2F2F2"/>
<path fill-rule="evenodd" clip-rule="evenodd" d="M56.3271 128.48V117.085L42.29 123.241V134.643L56.3271 128.48Z" fill="#6DCFF2"/>
<path fill-rule="evenodd" clip-rule="evenodd" d="M56.7206 128.796V117.395L42.6836 123.557V134.952L56.7206 128.796Z" fill="#B6A6CC"/>
<path fill-rule="evenodd" clip-rule="evenodd" d="M57.5887 129.037V117.635L43.5459 123.797V135.193L57.5887 129.037Z" fill="#6DCFF2"/>
<path fill-rule="evenodd" clip-rule="evenodd" d="M46.5661 136.523L45.3105 135.967L59.3476 129.811L60.6089 130.361L46.5661 136.523Z" fill="#B2F2F2"/>
<path fill-rule="evenodd" clip-rule="evenodd" d="M59.3476 129.81V118.409L45.3105 124.571V135.967L59.3476 129.81Z" fill="#6DCFF2"/>
<path fill-rule="evenodd" clip-rule="evenodd" d="M59.7411 130.12V118.719L45.7041 124.881V136.282L59.7411 130.12Z" fill="#B6A6CC"/>
<path fill-rule="evenodd" clip-rule="evenodd" d="M60.6092 130.361V118.959L46.5664 125.122V136.523L60.6092 130.361Z" fill="#6DCFF2"/>
<path fill-rule="evenodd" clip-rule="evenodd" d="M49.5866 137.847L48.3311 137.297L62.3681 131.135L63.6295 131.685L49.5866 137.847Z" fill="#B2F2F2"/>
<path fill-rule="evenodd" clip-rule="evenodd" d="M62.3681 131.135V119.733L48.3311 125.895V137.297L62.3681 131.135Z" fill="#6DCFF2"/>
<path fill-rule="evenodd" clip-rule="evenodd" d="M62.7616 131.444V120.043L48.7246 126.205V137.606L62.7616 131.444Z" fill="#B6A6CC"/>
<path fill-rule="evenodd" clip-rule="evenodd" d="M63.6297 131.685V120.284L49.5869 126.446V137.847L63.6297 131.685Z" fill="#6DCFF2"/>
<path fill-rule="evenodd" clip-rule="evenodd" d="M52.6071 139.171L51.3516 138.621L65.3886 132.458L66.65 133.009L52.6071 139.171Z" fill="#B2F2F2"/>
<path fill-rule="evenodd" clip-rule="evenodd" d="M65.3886 132.458V121.057L51.3516 127.219V138.62L65.3886 132.458Z" fill="#6DCFF2"/>
<path fill-rule="evenodd" clip-rule="evenodd" d="M65.7822 132.768V121.373L51.7451 127.529V138.93L65.7822 132.768Z" fill="#B6A6CC"/>
<path fill-rule="evenodd" clip-rule="evenodd" d="M66.6502 133.009V121.613L52.6074 127.77V139.171L66.6502 133.009Z" fill="#6DCFF2"/>
<path fill-rule="evenodd" clip-rule="evenodd" d="M55.6276 140.495L54.3721 139.945L68.4091 133.783L69.6705 134.339L55.6276 140.495Z" fill="#B2F2F2"/>
<path fill-rule="evenodd" clip-rule="evenodd" d="M68.4091 133.783V122.387L54.3721 128.544V139.945L68.4091 133.783Z" fill="#6DCFF2"/>
<path fill-rule="evenodd" clip-rule="evenodd" d="M68.8027 134.098V122.697L54.7656 128.859V140.254L68.8027 134.098Z" fill="#B6A6CC"/>
<path fill-rule="evenodd" clip-rule="evenodd" d="M69.6708 134.339V122.938L55.6279 129.1V140.495L69.6708 134.339Z" fill="#6DCFF2"/>
<path fill-rule="evenodd" clip-rule="evenodd" d="M58.6472 141.825L57.3916 141.269L71.4286 135.107L72.69 135.663L58.6472 141.825Z" fill="#B2F2F2"/>
<path fill-rule="evenodd" clip-rule="evenodd" d="M71.4286 135.107V123.711L57.3916 129.873V141.269L71.4286 135.107Z" fill="#6DCFF2"/>
<path fill-rule="evenodd" clip-rule="evenodd" d="M71.8222 135.422V124.021L57.7852 130.183V141.584L71.8222 135.422Z" fill="#B6A6CC"/>
<path fill-rule="evenodd" clip-rule="evenodd" d="M72.6903 135.663V124.262L58.6475 130.424V141.825L72.6903 135.663Z" fill="#6DCFF2"/>
<path fill-rule="evenodd" clip-rule="evenodd" d="M154.529 29.5322L153.268 28.9819L167.31 22.8198L168.566 23.3701L154.529 29.5322Z" fill="#B2F2F2"/>
<path fill-rule="evenodd" clip-rule="evenodd" d="M167.31 22.8197V11.4185L153.268 17.5805V28.9818L167.31 22.8197Z" fill="#6DCFF2"/>
<path fill-rule="evenodd" clip-rule="evenodd" d="M167.704 23.1294V11.7339L153.661 17.896V29.2915L167.704 23.1294Z" fill="#B6A6CC"/>
<path fill-rule="evenodd" clip-rule="evenodd" d="M168.566 23.3701V11.9746L154.529 18.1367V29.5322L168.566 23.3701Z" fill="#6DCFF2"/>
<path fill-rule="evenodd" clip-rule="evenodd" d="M164.961 22.0288V16.4858L158.134 19.478V25.021L164.961 22.0288Z" fill="#B2F2F2"/>
<path fill-rule="evenodd" clip-rule="evenodd" d="M297.393 115.176L228.643 145.35C251.602 155.404 274.561 165.464 297.497 175.564C320.433 165.464 343.392 155.404 366.351 145.35C343.421 135.25 320.479 125.104 297.497 115.13L297.393 115.176ZM229.927 145.35L297.497 115.698L365.067 145.35L297.497 175.003L229.927 145.35Z" fill="#6847B9"/>
<path fill-rule="evenodd" clip-rule="evenodd" d="M210.075 153.433L141.325 183.607C164.284 193.661 187.244 203.721 210.18 213.821C233.116 203.721 256.075 193.661 279.034 183.607C256.104 173.507 233.162 163.361 210.18 153.387L210.075 153.433ZM142.61 183.607L210.18 153.954L277.749 183.607L210.18 213.259L142.61 183.607Z" fill="#6847B9"/>
<path fill-rule="evenodd" clip-rule="evenodd" d="M216.156 91.5024L214.895 90.9521L228.937 84.79L230.193 85.3403L216.156 91.5024Z" fill="#B2F2F2"/>
<path fill-rule="evenodd" clip-rule="evenodd" d="M228.937 84.7899V73.3887L214.895 79.5507V90.952L228.937 84.7899Z" fill="#6DCFF2"/>
<path fill-rule="evenodd" clip-rule="evenodd" d="M229.331 85.0996V73.7041L215.288 79.8662V91.2617L229.331 85.0996Z" fill="#B6A6CC"/>
<path fill-rule="evenodd" clip-rule="evenodd" d="M230.193 85.3403V73.9448L216.156 80.1069V91.5024L230.193 85.3403Z" fill="#6DCFF2"/>
<path fill-rule="evenodd" clip-rule="evenodd" d="M226.588 83.999V78.4561L219.761 81.4482V86.9912L226.588 83.999Z" fill="#B2F2F2"/>
<path fill-rule="evenodd" clip-rule="evenodd" d="M218.725 92.6318L217.47 92.0815L231.507 85.9194L232.768 86.4697L218.725 92.6318Z" fill="#B2F2F2"/>
<path fill-rule="evenodd" clip-rule="evenodd" d="M231.507 85.9193V74.5181L217.47 80.6801V92.0814L231.507 85.9193Z" fill="#6DCFF2"/>
<path fill-rule="evenodd" clip-rule="evenodd" d="M231.9 86.2285V74.833L217.863 80.9893V92.3906L231.9 86.2285Z" fill="#B6A6CC"/>
<path fill-rule="evenodd" clip-rule="evenodd" d="M232.768 86.4697V75.0742L218.726 81.2306V92.6318L232.768 86.4697Z" fill="#6DCFF2"/>
<path fill-rule="evenodd" clip-rule="evenodd" d="M229.164 85.1222V79.585L222.336 82.5771V88.1201L229.164 85.1222Z" fill="#B2F2F2"/>
<path fill-rule="evenodd" clip-rule="evenodd" d="M221.3 93.7607L220.039 93.2104L234.082 87.0483L235.337 87.5986L221.3 93.7607Z" fill="#B2F2F2"/>
<path fill-rule="evenodd" clip-rule="evenodd" d="M234.082 87.0482V75.647L220.039 81.809V93.2103L234.082 87.0482Z" fill="#6DCFF2"/>
<path fill-rule="evenodd" clip-rule="evenodd" d="M234.475 87.3578V75.9565L220.438 82.1186V93.5199L234.475 87.3578Z" fill="#B6A6CC"/>
<path fill-rule="evenodd" clip-rule="evenodd" d="M235.337 87.5985V76.1973L221.3 82.3593V93.7606L235.337 87.5985Z" fill="#6DCFF2"/>
<path fill-rule="evenodd" clip-rule="evenodd" d="M231.733 86.2516V80.7144L224.905 83.7065V89.2495L231.733 86.2516Z" fill="#B2F2F2"/>
<path fill-rule="evenodd" clip-rule="evenodd" d="M223.869 94.8901L222.613 94.3341L236.65 88.1777L237.912 88.728L223.869 94.8901Z" fill="#B2F2F2"/>
<path fill-rule="evenodd" clip-rule="evenodd" d="M236.65 88.1776V76.7764L222.613 82.9384V94.334L236.65 88.1776Z" fill="#6DCFF2"/>
<path fill-rule="evenodd" clip-rule="evenodd" d="M237.05 88.4872V77.0859L223.007 83.248V94.6493L237.05 88.4872Z" fill="#B6A6CC"/>
<path fill-rule="evenodd" clip-rule="evenodd" d="M237.912 88.7279V77.3267L223.869 83.4887V94.89L237.912 88.7279Z" fill="#6DCFF2"/>
<path fill-rule="evenodd" clip-rule="evenodd" d="M234.307 87.3809V81.8379L227.479 84.8358V90.3788L234.307 87.3809Z" fill="#B2F2F2"/>
<path fill-rule="evenodd" clip-rule="evenodd" d="M226.444 96.0195L225.183 95.4635L239.225 89.3071L240.481 89.8574L226.444 96.0195Z" fill="#B2F2F2"/>
<path fill-rule="evenodd" clip-rule="evenodd" d="M239.225 89.307V77.9058L225.183 84.0678V95.4633L239.225 89.307Z" fill="#6DCFF2"/>
<path fill-rule="evenodd" clip-rule="evenodd" d="M239.619 89.6166V78.2153L225.582 84.3774V95.7786L239.619 89.6166Z" fill="#B6A6CC"/>
<path fill-rule="evenodd" clip-rule="evenodd" d="M240.481 89.8573V78.4561L226.444 84.6181V96.0194L240.481 89.8573Z" fill="#6DCFF2"/>
<path fill-rule="evenodd" clip-rule="evenodd" d="M236.876 88.5103V82.9673L230.049 85.9652V91.5082L236.876 88.5103Z" fill="#B2F2F2"/>
<path fill-rule="evenodd" clip-rule="evenodd" d="M229.013 60.7264L227.758 60.1704L241.795 54.0083L243.056 54.5643L229.013 60.7264Z" fill="#B2F2F2"/>
<path fill-rule="evenodd" clip-rule="evenodd" d="M241.795 54.0083V42.6128L227.758 48.7749V60.1704L241.795 54.0083Z" fill="#6DCFF2"/>
<path fill-rule="evenodd" clip-rule="evenodd" d="M242.193 54.3236V42.9224L228.15 49.0844V60.4857L242.193 54.3236Z" fill="#B6A6CC"/>
<path fill-rule="evenodd" clip-rule="evenodd" d="M243.056 54.5643V43.1631L229.013 49.3252V60.7264L243.056 54.5643Z" fill="#6DCFF2"/>
<path fill-rule="evenodd" clip-rule="evenodd" d="M239.451 53.2173V47.6743L232.623 50.6722V56.2152L239.451 53.2173Z" fill="#B2F2F2"/>
<path fill-rule="evenodd" clip-rule="evenodd" d="M263.261 32.9253L267.184 34.6449V36.055L263.261 34.3354V32.9253ZM263.261 35.1436V36.5537L267.184 38.2734V36.8633L263.261 35.1436Z" fill="#642E8F"/>
<path fill-rule="evenodd" clip-rule="evenodd" d="M220.374 119.67L216.451 121.39V122.8L220.374 121.08V119.67ZM220.374 121.888V123.298L216.451 125.018V123.608L220.374 121.888Z" fill="#642E8F"/>
<path fill-rule="evenodd" clip-rule="evenodd" d="M220.374 106.509L216.451 108.229V109.639L220.374 107.919V106.509ZM220.374 108.722V110.132L216.451 111.852V110.442L220.374 108.722Z" fill="#642E8F"/>
<path fill-rule="evenodd" clip-rule="evenodd" d="M247.58 22.0686L268.265 12.9889L289.604 22.3552L268.815 31.4751L247.476 22.1087L247.58 22.0629V22.0686ZM268.161 12.473C260.842 15.683 253.522 18.9102 246.191 22.1087C253.731 25.4219 261.27 28.7408 268.815 32.0368C276.186 28.8612 283.535 25.5824 290.889 22.3495C283.35 19.0363 275.805 15.7403 268.265 12.4214L268.161 12.4672V12.473Z" fill="#6DCFF2"/>
<path fill-rule="evenodd" clip-rule="evenodd" d="M247.58 19.9135L268.265 10.8337L289.604 20.2001L268.815 29.3199L247.476 19.9536L247.58 19.9077V19.9135ZM268.161 10.3178C260.842 13.5278 253.522 16.755 246.191 19.9593C253.731 23.2725 261.27 26.5914 268.815 29.8874C276.186 26.7118 283.535 23.433 290.889 20.2001C283.35 16.8869 275.805 13.5909 268.265 10.272L268.161 10.3178Z" fill="#8F54EF"/>
<path fill-rule="evenodd" clip-rule="evenodd" d="M364.541 63.8678L385.33 54.7422L407.311 64.3894L385.88 73.7959L363.898 64.1487L364.541 63.8678Z" fill="#6DCFF2"/>
<path fill-rule="evenodd" clip-rule="evenodd" d="M364.541 61.7179L385.33 52.5923L407.311 62.2395L385.88 71.646L363.898 61.9987L364.541 61.7179Z" fill="#B6A6CC"/>
<path fill-rule="evenodd" clip-rule="evenodd" d="M364.541 59.7462L385.33 50.6206L407.311 60.2678L385.88 69.6743L363.898 60.0271L364.541 59.7462Z" fill="#6DCFF2"/>
<path fill-rule="evenodd" clip-rule="evenodd" d="M407.312 64.389L385.88 73.7955V69.674L407.312 60.2676V64.389Z" fill="#B2F2F2"/>
<path fill-rule="evenodd" clip-rule="evenodd" d="M364.541 57.1554L385.33 48.0298L407.311 57.677L385.88 67.0777L363.898 57.4362L364.541 57.1554Z" fill="#6DCFF2"/>
<path fill-rule="evenodd" clip-rule="evenodd" d="M364.541 55.0055L385.33 45.8799L407.311 55.5271L385.88 64.9278L363.898 55.2863L364.541 55.0055Z" fill="#B6A6CC"/>
<path fill-rule="evenodd" clip-rule="evenodd" d="M364.541 53.0338L385.33 43.9082L407.311 53.5554L385.88 62.9619L363.898 53.3147L364.541 53.0338Z" fill="#6DCFF2"/>
<path fill-rule="evenodd" clip-rule="evenodd" d="M407.312 57.6766L385.88 67.0773V62.9616L407.312 53.5552V57.6766Z" fill="#B2F2F2"/>
<path fill-rule="evenodd" clip-rule="evenodd" d="M419.676 50.8958L431.873 45.542L444.77 51.1996L432.197 56.7197L419.306 51.0563L419.676 50.8958Z" fill="#6DCFF2"/>
<path fill-rule="evenodd" clip-rule="evenodd" d="M419.676 49.6346L431.873 44.2808L444.77 49.9384L432.197 55.4585L419.306 49.7951L419.676 49.6346Z" fill="#B6A6CC"/>
<path fill-rule="evenodd" clip-rule="evenodd" d="M419.676 48.4769L431.873 43.123L444.77 48.7864L432.197 54.3007L419.306 48.6431L419.676 48.4769Z" fill="#6DCFF2"/>
<path fill-rule="evenodd" clip-rule="evenodd" d="M444.77 51.1994L432.197 56.7194V54.3005L444.77 48.7861V51.1994Z" fill="#B2F2F2"/>
<path fill-rule="evenodd" clip-rule="evenodd" d="M75.6475 112.643L94.6027 120.966L100.551 118.358L81.5956 110.035L75.6475 112.643Z" fill="#6847B9"/>
<path fill-rule="evenodd" clip-rule="evenodd" d="M97.8487 119.544L81.5956 112.408L78.3496 113.835L94.6027 120.966L97.8487 119.544Z" fill="#642E8F"/>
<path fill-rule="evenodd" clip-rule="evenodd" d="M82.2441 115.543V105.804L96.287 111.961V120.226L94.6032 120.966L82.2441 115.543Z" fill="#6DCFF2"/>
<path fill-rule="evenodd" clip-rule="evenodd" d="M81.8506 115.365V106.114L95.8934 112.276V120.398L94.6031 120.966L81.8506 115.365Z" fill="#B6A6CC"/>
<path fill-rule="evenodd" clip-rule="evenodd" d="M80.9883 114.987V106.354L95.0253 112.517V120.782L94.6029 120.966L80.9883 114.987Z" fill="#6DCFF2"/>
<path fill-rule="evenodd" clip-rule="evenodd" d="M82.2432 115.543V113.841L96.286 119.997V120.226L94.6022 120.966L82.2432 115.543Z" fill="#6DCFF2"/>
<path fill-rule="evenodd" clip-rule="evenodd" d="M81.8506 115.366V113.663L95.8934 119.825V120.398L94.6031 120.966L81.8506 115.366Z" fill="#B6A6CC"/>
<path fill-rule="evenodd" clip-rule="evenodd" d="M80.9883 114.987V113.285L95.0253 119.447V120.782L94.6029 120.966L80.9883 114.987Z" fill="#66E5E2"/>
<path fill-rule="evenodd" clip-rule="evenodd" d="M95.0243 104.956L96.2857 104.405L82.2429 98.2432L80.9873 98.7992L95.0243 104.956Z" fill="#B2F2F2"/>
<path fill-rule="evenodd" clip-rule="evenodd" d="M82.2432 98.2432V86.8477L96.286 93.004V104.405L82.2432 98.2432Z" fill="#6DCFF2"/>
<path fill-rule="evenodd" clip-rule="evenodd" d="M81.8496 98.5585V87.1572L95.8924 93.3193V104.715L81.8496 98.5585Z" fill="#B6A6CC"/>
<path fill-rule="evenodd" clip-rule="evenodd" d="M80.9873 98.7992V87.3979L95.0243 93.56V104.956L80.9873 98.7992Z" fill="#6DCFF2"/>
<path fill-rule="evenodd" clip-rule="evenodd" d="M377.64 99.4702L420.139 80.8235L429.819 85.071V84.515L420.139 80.2617L420.035 80.3076C405.216 86.8078 390.41 93.331 375.586 99.8141C390.803 106.509 406.027 113.204 421.267 119.859C436.149 113.445 450.984 106.825 465.82 100.307C458.923 97.2747 452.02 94.2539 445.117 91.2273V91.7833L464.535 100.307L421.267 119.292L376.87 99.8084L377.646 99.4702H377.64Z" fill="#B6A6CC"/>
<path fill-rule="evenodd" clip-rule="evenodd" d="M377.64 96.627L420.139 77.9803L423.778 79.5796V79.0236L420.139 77.4243L420.035 77.4702C405.216 83.9704 390.41 90.4936 375.586 96.9767C390.803 103.672 406.027 110.367 421.267 117.022C436.149 110.608 450.984 103.987 465.82 97.4696C456.909 93.5546 447.993 89.651 439.077 85.7417V86.2977L464.535 97.4696L421.267 116.455L376.87 96.9709L377.646 96.6328L377.64 96.627Z" fill="#B6A6CC"/>
<path fill-rule="evenodd" clip-rule="evenodd" d="M149.865 114.339L145.942 116.059V117.469L149.865 115.749V114.339ZM149.865 116.558V117.968L145.942 119.687V118.277L149.865 116.558Z" fill="#642E8F"/>
<path fill-rule="evenodd" clip-rule="evenodd" d="M176.921 97.418L175.989 97.825V131.003L176.921 130.596V97.418Z" fill="#D3C5E6"/>
<path fill-rule="evenodd" clip-rule="evenodd" d="M466.769 52.5983L480.91 58.8063L485.348 56.8573L471.206 50.6494L466.769 52.5983Z" fill="#C8AEEF"/>
<path fill-rule="evenodd" clip-rule="evenodd" d="M483.328 57.7456L471.207 52.4204L468.782 53.4809L480.91 58.806L483.328 57.7456Z" fill="#642E8F"/>
<path fill-rule="evenodd" clip-rule="evenodd" d="M471.693 54.7591V47.4907L482.166 52.0879V58.2557L480.911 58.806L471.693 54.7591Z" fill="#6DCFF2"/>
<path fill-rule="evenodd" clip-rule="evenodd" d="M471.398 54.6271V47.7256L481.871 52.3228V58.3817L480.911 58.8058L471.398 54.6271Z" fill="#B6A6CC"/>
<path fill-rule="evenodd" clip-rule="evenodd" d="M470.75 54.3463V47.9033L481.229 52.5005V58.6683L480.91 58.8059L470.75 54.3463Z" fill="#6DCFF2"/>
<path fill-rule="evenodd" clip-rule="evenodd" d="M470.75 54.3468V53.0742L481.229 57.6714V58.6688L480.91 58.8064L470.75 54.3468Z" fill="#66E5E2"/>
<path fill-rule="evenodd" clip-rule="evenodd" d="M243.999 54.9255V44.0917L230.483 50.0245V60.8582L243.999 54.9255ZM244.52 43.6904V55.2579L229.962 61.6493V49.6863C234.822 47.5768 239.671 45.4273 244.52 43.2949V43.6904Z" fill="#B6A6CC"/>
<path fill-rule="evenodd" clip-rule="evenodd" d="M169.607 46.631V35.7973L156.091 41.73V52.5638L169.607 46.631ZM170.128 35.396V46.9635L155.57 53.3548V41.3918C160.431 39.2824 165.279 37.1328 170.128 35.0005V35.396Z" fill="#C8AEEF"/>
<path fill-rule="evenodd" clip-rule="evenodd" d="M171.309 47.428V36.5943L157.792 42.527V53.3608L171.309 47.428ZM171.829 36.1987V47.7662L157.271 54.1576V42.1946C162.132 40.0851 166.981 37.9356 171.829 35.8032V36.1987Z" fill="#C8AEEF"/>
<path fill-rule="evenodd" clip-rule="evenodd" d="M173.004 48.2244V37.3906L159.488 43.3234V54.1572L173.004 48.2244ZM173.525 36.9951V48.5626L158.967 54.954V42.991C163.827 40.8815 168.676 38.732 173.525 36.5996V36.9951Z" fill="#B6A6CC"/>
<path fill-rule="evenodd" clip-rule="evenodd" d="M168.566 34.3929V32.6675L166.442 33.5961V35.3215L168.566 34.3929Z" fill="#C8AEEF"/>
<path fill-rule="evenodd" clip-rule="evenodd" d="M168.566 31.9681V30.2427L166.442 31.177V32.9024L168.566 31.9681Z" fill="#C8AEEF"/>
<path fill-rule="evenodd" clip-rule="evenodd" d="M168.566 29.5491V27.8237L166.442 28.7581V30.4834L168.566 29.5491Z" fill="#C8AEEF"/>
<path fill-rule="evenodd" clip-rule="evenodd" d="M168.566 27.1302V25.4048L166.442 26.3334V28.0588L168.566 27.1302Z" fill="#C8AEEF"/>
<path fill-rule="evenodd" clip-rule="evenodd" d="M425.623 42.2117V40.4863L423.5 41.4207V43.146L425.623 42.2117Z" fill="#C8AEEF"/>
<path fill-rule="evenodd" clip-rule="evenodd" d="M425.623 39.7928V38.0674L423.5 38.996V40.7214L425.623 39.7928Z" fill="#C8AEEF"/>
<path fill-rule="evenodd" clip-rule="evenodd" d="M425.623 37.368V35.6426L423.5 36.5769V38.3023L425.623 37.368Z" fill="#C8AEEF"/>
<path fill-rule="evenodd" clip-rule="evenodd" d="M425.623 34.949V33.2236L423.5 34.158V35.8834L425.623 34.949Z" fill="#B6A6CC"/>
<path fill-rule="evenodd" clip-rule="evenodd" d="M419.571 47.2556L431.873 41.856L445.412 47.7945C441.009 49.7262 436.611 51.6923 432.197 53.5897C427.684 51.6178 423.17 49.6345 418.657 47.6512L419.571 47.2499V47.2556ZM431.873 42.4177L419.942 47.6512L432.197 53.0279L444.128 47.7945L431.873 42.4177Z" fill="#C8AEEF"/>
<path fill-rule="evenodd" clip-rule="evenodd" d="M419.571 45.6853L431.873 40.2856L445.412 46.2242C441.009 48.1559 436.611 50.122 432.197 52.0251C427.684 50.0532 423.17 48.0699 418.657 46.0866L419.571 45.6853ZM431.873 40.8474L419.942 46.0809L432.197 51.4576L444.128 46.2242L431.873 40.8474Z" fill="#B6A6CC"/>
<path fill-rule="evenodd" clip-rule="evenodd" d="M56.3848 111.513V108.011L52.0742 109.902V113.405L56.3848 111.513Z" fill="#8F54EF"/>
<path fill-rule="evenodd" clip-rule="evenodd" d="M56.3848 106.606V103.104L52.0742 104.996V108.498L56.3848 106.606Z" fill="#C8AEEF"/>
<path fill-rule="evenodd" clip-rule="evenodd" d="M56.3848 101.694V98.1973L52.0742 100.089V103.585L56.3848 101.694Z" fill="#B6A6CC"/>
<path fill-rule="evenodd" clip-rule="evenodd" d="M56.3848 96.7876V93.291L52.0742 95.1826V98.6792L56.3848 96.7876Z" fill="#B6A6CC"/>
<path fill-rule="evenodd" clip-rule="evenodd" d="M260.293 14.3363V11.5791L256.902 13.0695V15.8209L260.293 14.3363Z" fill="#8F54EF"/>
<path fill-rule="evenodd" clip-rule="evenodd" d="M260.293 10.4726V7.72119L256.902 9.20582V11.963L260.293 10.4726Z" fill="#C8AEEF"/>
<path fill-rule="evenodd" clip-rule="evenodd" d="M260.293 6.61508V3.85791L256.902 5.34827V8.0997L260.293 6.61508Z" fill="#B6A6CC"/>
<path fill-rule="evenodd" clip-rule="evenodd" d="M260.293 2.75143V0L256.902 1.48463V4.24179L260.293 2.75143Z" fill="#B6A6CC"/>
<path fill-rule="evenodd" clip-rule="evenodd" d="M66.9971 116.443L85.9523 124.76L91.9004 122.152L72.9394 113.835L66.9971 116.443Z" fill="#6847B9"/>
<path fill-rule="evenodd" clip-rule="evenodd" d="M89.1983 123.339L72.9394 116.208L69.6992 117.63L85.9523 124.76L89.1983 123.339Z" fill="#642E8F"/>
<path fill-rule="evenodd" clip-rule="evenodd" d="M85.9872 44.0058L87.2486 43.4555L73.2058 37.2935L71.9502 37.8437L85.9872 44.0058Z" fill="#B2F2F2"/>
<path fill-rule="evenodd" clip-rule="evenodd" d="M73.2051 37.2933V25.8921L87.2479 32.0542V43.4554L73.2051 37.2933Z" fill="#6DCFF2"/>
<path fill-rule="evenodd" clip-rule="evenodd" d="M72.8115 37.6029V26.2017L86.8486 32.3637V43.765L72.8115 37.6029Z" fill="#B6A6CC"/>
<path fill-rule="evenodd" clip-rule="evenodd" d="M71.9502 37.8438V26.4482L85.9872 32.6046V44.0058L71.9502 37.8438Z" fill="#6DCFF2"/>
<path fill-rule="evenodd" clip-rule="evenodd" d="M73.4658 119.281V115.291L87.5028 121.453V124.084L85.9522 124.761L73.4658 119.281Z" fill="#6DCFF2"/>
<path fill-rule="evenodd" clip-rule="evenodd" d="M73.0664 119.109V115.601L87.1092 121.763V124.256L85.952 124.761L73.0664 119.109Z" fill="#B6A6CC"/>
<path fill-rule="evenodd" clip-rule="evenodd" d="M72.2041 118.725V115.841L86.2469 122.003V124.634L85.9518 124.761L72.2041 118.725Z" fill="#6DCFF2"/>
<path fill-rule="evenodd" clip-rule="evenodd" d="M71.9502 52.2541V49.2505L85.9872 55.4126V58.4105L71.9502 52.2541Z" fill="#8F48DD"/>
<path fill-rule="evenodd" clip-rule="evenodd" d="M87.2487 57.8602L85.9873 58.4105V55.4126L87.2487 54.8623V57.8602Z" fill="#D3C5E6"/>
<path fill-rule="evenodd" clip-rule="evenodd" d="M85.9872 55.4125L87.2486 54.8623L73.2058 48.7002L71.9502 49.2505L85.9872 55.4125Z" fill="#C8AEEF"/>
<path fill-rule="evenodd" clip-rule="evenodd" d="M71.9502 57.4477V55.665L85.9872 61.8271V63.6098L71.9502 57.4477Z" fill="#C8AEEF"/>
<path fill-rule="evenodd" clip-rule="evenodd" d="M87.2487 63.0537L85.9873 63.6097V61.827L87.2487 61.271V63.0537Z" fill="#8F48DD"/>
<path fill-rule="evenodd" clip-rule="evenodd" d="M85.9872 61.827L87.2486 61.2709L73.2058 55.1089L71.9502 55.6649L85.9872 61.827Z" fill="#C8AEEF"/>
<path fill-rule="evenodd" clip-rule="evenodd" d="M470.75 31.7044V23.2495L481.165 27.818V36.273L470.75 31.7044Z" fill="#8F48DD"/>
<path fill-rule="evenodd" clip-rule="evenodd" d="M482.097 35.8661L481.165 36.273V27.8181L482.097 27.4111V35.8661Z" fill="#D3C5E6"/>
<path fill-rule="evenodd" clip-rule="evenodd" d="M481.165 29.5262L482.096 29.1192L471.687 24.5449L470.75 24.9576L481.165 29.5262Z" fill="#B2F2F2"/>
<path fill-rule="evenodd" clip-rule="evenodd" d="M471.687 24.5449V16.0957L482.096 20.6642V29.1192L471.687 24.5449Z" fill="#6DCFF2"/>
<path fill-rule="evenodd" clip-rule="evenodd" d="M471.392 24.7801V16.3252L481.807 20.8937V29.3486L471.392 24.7801Z" fill="#B6A6CC"/>
<path fill-rule="evenodd" clip-rule="evenodd" d="M470.75 24.9579V16.5029L481.165 21.0715V29.5264L470.75 24.9579Z" fill="#6DCFF2"/>
<path fill-rule="evenodd" clip-rule="evenodd" d="M470.75 35.6425V33.4185L481.165 37.987V40.2111L470.75 35.6425Z" fill="#8F48DD"/>
<path fill-rule="evenodd" clip-rule="evenodd" d="M482.097 39.804L481.165 40.211V37.9869L482.097 37.5742V39.804Z" fill="#D3C5E6"/>
<path fill-rule="evenodd" clip-rule="evenodd" d="M481.165 37.9871L482.096 37.5744L471.687 33.0059L470.75 33.4186L481.165 37.9871Z" fill="#C8AEEF"/>
<path fill-rule="evenodd" clip-rule="evenodd" d="M470.75 39.4945V38.1704L481.165 42.7389V44.0631L470.75 39.4945Z" fill="#C8AEEF"/>
<path fill-rule="evenodd" clip-rule="evenodd" d="M482.097 43.6504L481.165 44.0631V42.739L482.097 42.332V43.6504Z" fill="#8F48DD"/>
<path fill-rule="evenodd" clip-rule="evenodd" d="M481.165 42.7387L482.096 42.3317L471.687 37.7632L470.75 38.1702L481.165 42.7387Z" fill="#C8AEEF"/>
<path fill-rule="evenodd" clip-rule="evenodd" d="M258.141 23.7022L268.405 19.1968L279.254 23.9602L268.677 28.6032L257.828 23.8398L258.141 23.7022Z" fill="#642E8F"/>
<path fill-rule="evenodd" clip-rule="evenodd" d="M261.617 23.7655L268.451 20.7676L275.678 23.9375L268.63 27.0328L261.403 23.8572L261.617 23.7655Z" fill="#8F54EF"/>
<path fill-rule="evenodd" clip-rule="evenodd" d="M264.059 23.8115L268.485 21.874L273.155 23.9261L268.601 25.9267L263.926 23.8745L264.059 23.8115Z" fill="#B6A6CC"/>
<path fill-rule="evenodd" clip-rule="evenodd" d="M258.141 23.7022L268.405 19.1968L279.254 23.9602L278.455 24.3099L268.405 19.9018L258.632 24.1895L257.828 23.8398L258.141 23.7022Z" fill="#8F54EF"/>
</svg>
