<svg width="102" height="88" viewBox="0 0 102 88" fill="none" xmlns="http://www.w3.org/2000/svg">
<path d="M56.9922 87.862H44.9909C44.2287 87.862 43.5905 87.2943 43.5019 86.5491L42.7219 80.4992C42.4382 80.3927 42.1546 80.2685 41.871 80.1443L37.0492 83.8524C36.4465 84.3137 35.5956 84.2604 35.0638 83.7282L26.5902 75.2476C26.0584 74.7153 26.0052 73.8637 26.4661 73.2605L30.1711 68.417C30.047 68.1331 29.9229 67.8315 29.8165 67.5476L23.7893 66.767C23.0448 66.6783 22.4775 66.0218 22.4775 65.2767V53.2655C22.4775 52.5026 23.0448 51.8639 23.7893 51.7752L29.8165 50.9945C29.9229 50.7107 30.047 50.4268 30.1711 50.1429L26.4661 45.3172C26.0052 44.7139 26.0584 43.8623 26.5902 43.3301L35.0638 34.8495C35.5956 34.3172 36.4465 34.264 37.0492 34.7253L41.8887 38.4333C42.1723 38.3091 42.456 38.2027 42.7396 38.0962L43.5196 32.0463C43.6082 31.3011 44.2641 30.7334 45.0087 30.7334H57.0099C57.7722 30.7334 58.4103 31.3011 58.499 32.0463L59.2967 38.0962C59.5803 38.2027 59.8639 38.3269 60.1476 38.4511L64.9871 34.743C65.5898 34.2818 66.4407 34.335 66.9725 34.8672L75.446 43.3478C75.9779 43.8801 76.031 44.7317 75.5701 45.3349L71.8652 50.1607C71.9893 50.4445 72.1134 50.7284 72.2197 51.0123L78.2469 51.7929C78.9915 51.8816 79.5587 52.5381 79.5587 53.2832V65.2944C79.5587 66.0573 78.9915 66.696 78.2469 66.7847L72.2197 67.5654C72.1134 67.8493 71.9893 68.1331 71.8652 68.4347L75.5701 73.2782C76.031 73.8815 75.9779 74.7331 75.446 75.2653L66.9725 83.7459C66.4407 84.2782 65.5898 84.3314 64.9871 83.8701L60.1476 80.1621C59.8639 80.2863 59.5626 80.4105 59.2789 80.5169L58.499 86.5491C58.4103 87.2943 57.7544 87.862 57.0099 87.862H56.9922ZM46.3205 84.8459H55.6804L56.4072 79.204C56.4781 78.6363 56.8858 78.1572 57.4176 77.9621C58.1267 77.7314 58.889 77.4121 59.6867 77.0395C60.2008 76.7911 60.8035 76.8621 61.2467 77.1992L65.7493 80.6588L72.3615 74.0411L68.9048 69.5347C68.5679 69.0912 68.497 68.4702 68.7452 67.9734C69.1175 67.1928 69.4366 66.4299 69.667 65.7025C69.8443 65.1525 70.3229 64.7622 70.9079 64.6912L76.5451 63.9638V54.5961L70.9079 53.8687C70.3406 53.7977 69.862 53.4074 69.667 52.8574C69.4188 52.13 69.1175 51.4026 68.7275 50.622C68.4616 50.1074 68.5325 49.4865 68.887 49.0252L72.3615 44.5188L65.7493 37.9011L61.2467 41.3607C60.8035 41.7156 60.183 41.7688 59.6867 41.5204C58.9599 41.1656 58.2153 40.864 57.4176 40.5801C56.8858 40.3849 56.4958 39.9237 56.4249 39.3559L55.6804 33.714H46.3205L45.5936 39.3559C45.5227 39.9237 45.115 40.4027 44.5832 40.5978C43.8209 40.8462 43.0941 41.1478 42.3319 41.5027C41.8178 41.7511 41.2151 41.6801 40.7719 41.343L36.2692 37.8833L29.657 44.501L33.1138 49.0075C33.4506 49.451 33.5215 50.072 33.2733 50.5687C32.8833 51.3849 32.582 52.13 32.3515 52.8219C32.1742 53.3719 31.6956 53.7623 31.1106 53.8332L25.4911 54.5606V63.9283L31.1106 64.6557C31.6779 64.7267 32.1565 65.117 32.3515 65.667C32.5997 66.3767 32.9011 67.1396 33.2733 67.938C33.5215 68.4525 33.4506 69.0557 33.1138 69.4992L29.657 74.0057L36.2692 80.6234L40.7719 77.146C41.2328 76.7911 41.8532 76.7379 42.3673 76.9863C43.0764 77.3411 43.8032 77.6427 44.6009 77.9089C45.1505 78.0863 45.5405 78.5653 45.6114 79.1508L46.3382 84.7927L46.3205 84.8459Z" fill="#00CCF5"/>
<path d="M51.0005 74.5732C42.5801 74.5732 35.7197 67.7071 35.7197 59.2798C35.7197 50.8524 42.5801 43.9863 51.0005 43.9863C59.4208 43.9863 66.2812 50.8524 66.2812 59.2798C66.2812 67.7071 59.4208 74.5732 51.0005 74.5732ZM51.0005 47.0024C44.2287 47.0024 38.7333 52.5024 38.7333 59.2798C38.7333 66.0571 44.2287 71.5571 51.0005 71.5571C57.7722 71.5571 63.2676 66.0571 63.2676 59.2798C63.2676 52.5024 57.7722 47.0024 51.0005 47.0024Z" fill="#00CCF5"/>
<path d="M94.7153 77.3585H81.4909C80.6577 77.3585 79.9841 76.6843 79.9841 75.8504C79.9841 75.0166 80.6577 74.3424 81.4909 74.3424H94.7153C96.9666 74.3424 98.7925 72.515 98.7925 70.2618V7.33158C98.7925 5.07838 96.9666 3.25097 94.7153 3.25097H7.26759C5.01625 3.25097 3.19036 5.07838 3.19036 7.33158V70.244C3.19036 72.4972 5.01625 74.3246 7.26759 74.3246H18.6661C19.4993 74.3246 20.1729 74.9988 20.1729 75.8327C20.1729 76.6666 19.4993 77.3407 18.6661 77.3407H7.26759C3.34991 77.3407 0.176758 74.1472 0.176758 70.244V7.33158C0.176758 3.42839 3.36763 0.234863 7.26759 0.234863H94.7153C98.633 0.234863 101.806 3.42839 101.806 7.33158V70.244C101.806 74.165 98.6152 77.3407 94.7153 77.3407V77.3585Z" fill="#231F20"/>
<path d="M100.317 16.4331H1.68356C0.850387 16.4331 0.176758 15.7589 0.176758 14.925C0.176758 14.0912 0.850387 13.417 1.68356 13.417H100.317C101.15 13.417 101.824 14.0912 101.824 14.925C101.824 15.7589 101.15 16.4331 100.317 16.4331Z" fill="#231F20"/>
<path d="M77.2553 9.67382H74.6494C73.8162 9.67382 73.1426 8.99963 73.1426 8.16577C73.1426 7.3319 73.8162 6.65771 74.6494 6.65771H77.2553C78.0884 6.65771 78.7621 7.3319 78.7621 8.16577C78.7621 8.99963 78.0884 9.67382 77.2553 9.67382Z" fill="#231F20"/>
<path d="M85.2308 9.67382H82.625C81.7918 9.67382 81.1182 8.99963 81.1182 8.16577C81.1182 7.3319 81.7918 6.65771 82.625 6.65771H85.2308C86.064 6.65771 86.7377 7.3319 86.7377 8.16577C86.7377 8.99963 86.064 9.67382 85.2308 9.67382Z" fill="#231F20"/>
<path d="M93.2074 9.67382H90.6015C89.7684 9.67382 89.0947 8.99963 89.0947 8.16577C89.0947 7.3319 89.7684 6.65771 90.6015 6.65771H93.2074C94.0406 6.65771 94.7142 7.3319 94.7142 8.16577C94.7142 8.99963 94.0406 9.67382 93.2074 9.67382Z" fill="#231F20"/>
</svg>
