<svg width="70" height="70" viewBox="0 0 70 70" fill="none" xmlns="http://www.w3.org/2000/svg">
<g clip-path="url(#clip0_1226_458)">
<path d="M34.9999 1.23047V22.3978M34.9999 1.23047L24.4163 15.7829L34.9999 22.3978M34.9999 1.23047L45.5836 15.7829L34.9999 22.3978" stroke="#796EF5" stroke-width="2" stroke-miterlimit="10" stroke-linecap="round" stroke-linejoin="round"/>
<path d="M35 1.23047V22.3978M35 1.23047L24.4163 15.7829L35 22.3978M35 1.23047L45.5837 15.7829L35 22.3978M35 27.5146V47.6834M35 27.5146L22.601 19.7518L12.5098 33.6273L20.7826 38.798L35 47.6834M35 27.5146L47.399 19.7518L57.4902 33.6273L49.2652 38.768L35 47.6834M47.3993 19.7519L45.5837 18.6095M22.6007 19.7519L24.4163 18.6095M11.9779 63.5318C11.9779 66.5 9.57305 68.9062 6.60488 68.9062H6.57891C3.62305 68.8926 1.23047 66.4918 1.23047 63.5318C1.23047 60.5637 3.63672 58.1588 6.60488 58.1588C6.64727 58.1588 6.68828 58.1588 6.7293 58.1602C9.64004 58.2271 11.9779 60.6061 11.9779 63.5318ZM68.9062 63.5318C68.9062 66.5 66.5 68.9062 63.5318 68.9062H63.5223C60.5582 68.9008 58.1588 66.4973 58.1588 63.5318C58.1588 60.617 60.4775 58.2463 63.3719 58.1615C63.4252 58.1602 63.4785 58.1588 63.5318 58.1588C66.5 58.1588 68.9062 60.5637 68.9062 63.5318ZM40.3737 63.5318C40.3737 66.5 37.9688 68.9062 35.0007 68.9062H34.9747C32.0188 68.8926 29.6263 66.4918 29.6263 63.5318C29.6263 60.5637 32.0325 58.1588 35.0007 58.1588C35.0431 58.1588 35.0841 58.1588 35.1251 58.1602C38.0358 58.2271 40.3737 60.6061 40.3737 63.5318Z" stroke="#796EF5" stroke-width="2" stroke-miterlimit="10" stroke-linecap="round" stroke-linejoin="round"/>
<path d="M49.8554 39.7955C49.732 39.7955 49.611 39.762 49.5052 39.6985C49.3142 39.5844 49.1219 39.4725 48.9283 39.3629C48.7714 39.2731 48.6564 39.1249 48.6086 38.9506C48.5607 38.7763 48.5838 38.5902 48.6728 38.4329C48.7618 38.2756 48.9095 38.1599 49.0836 38.1112C49.2576 38.0625 49.4439 38.0847 49.6016 38.173C49.8047 38.288 50.0065 38.4053 50.2066 38.525C50.3351 38.6017 50.4349 38.7185 50.4906 38.8574C50.5464 38.9964 50.5549 39.1497 50.5151 39.294C50.4752 39.4383 50.389 39.5655 50.2699 39.6561C50.1507 39.7467 50.0051 39.7957 49.8554 39.7955ZM62.4893 55.5263C62.3456 55.5263 62.2055 55.4809 62.089 55.3967C61.9725 55.3125 61.8855 55.1937 61.8404 55.0573C61.7 54.633 61.5494 54.2121 61.3887 53.7951C61.3276 53.6268 61.3349 53.4412 61.4091 53.2782C61.4833 53.1153 61.6185 52.9879 61.7856 52.9236C61.9527 52.8592 62.1384 52.863 62.3027 52.9341C62.4671 53.0052 62.597 53.1379 62.6646 53.3037C62.8331 53.7413 62.9911 54.1828 63.1384 54.628C63.1724 54.7307 63.1816 54.84 63.1651 54.947C63.1486 55.0539 63.1069 55.1554 63.0435 55.2431C62.9802 55.3308 62.8969 55.4022 62.8005 55.4515C62.7042 55.5007 62.5975 55.5264 62.4893 55.5263ZM60.9191 51.7204C60.792 51.7204 60.6673 51.6851 60.5592 51.6183C60.4511 51.5514 60.3638 51.4558 60.307 51.3421C60.1071 50.9422 59.8978 50.5471 59.6792 50.1571C59.6353 50.0788 59.6072 49.9926 59.5966 49.9035C59.586 49.8143 59.5931 49.724 59.6174 49.6375C59.6417 49.5511 59.6828 49.4703 59.7384 49.3998C59.7939 49.3293 59.8628 49.2704 59.9411 49.2265C60.0194 49.1826 60.1056 49.1545 60.1948 49.1439C60.2839 49.1333 60.3743 49.1404 60.4607 49.1647C60.5471 49.189 60.6279 49.2301 60.6984 49.2857C60.769 49.3412 60.8279 49.4101 60.8718 49.4884C61.1001 49.8956 61.3216 50.3135 61.5299 50.7311C61.582 50.8352 61.6066 50.951 61.6014 51.0674C61.5962 51.1837 61.5613 51.2968 61.5001 51.3959C61.439 51.495 61.3535 51.5768 61.2518 51.6336C61.1501 51.6904 61.0355 51.7203 60.9191 51.7204ZM58.8207 48.1772C58.7102 48.1773 58.6012 48.1507 58.5032 48.0994C58.4053 48.0482 58.3212 47.974 58.2583 47.8831C58.0034 47.5156 57.74 47.154 57.4683 46.7988C57.4137 46.7275 57.3737 46.6462 57.3505 46.5594C57.3274 46.4727 57.3216 46.3822 57.3334 46.2933C57.3452 46.2043 57.3744 46.1185 57.4194 46.0408C57.4644 45.9631 57.5243 45.895 57.5956 45.8405C57.6668 45.7859 57.7482 45.7459 57.8349 45.7227C57.9216 45.6996 58.0121 45.6938 58.1011 45.7056C58.1901 45.7174 58.2759 45.7466 58.3535 45.7916C58.4312 45.8366 58.4993 45.8965 58.5538 45.9678C58.8388 46.34 59.1149 46.7189 59.3821 47.1042C59.4531 47.2067 59.4948 47.3267 59.5025 47.4512C59.5102 47.5757 59.4837 47.6999 59.4259 47.8105C59.3681 47.921 59.2811 48.0136 59.1745 48.0782C59.0678 48.1428 58.9454 48.1771 58.8207 48.1772ZM56.2403 44.9673C56.1461 44.9674 56.053 44.9481 55.9667 44.9104C55.8804 44.8728 55.8029 44.8176 55.7389 44.7485C55.4348 44.4208 55.123 44.1002 54.8038 43.7871C54.7396 43.7243 54.6885 43.6495 54.6533 43.5669C54.6181 43.4843 54.5995 43.3956 54.5987 43.3058C54.5978 43.216 54.6146 43.127 54.6481 43.0437C54.6817 42.9604 54.7313 42.8846 54.7942 42.8205C54.857 42.7564 54.9319 42.7052 55.0144 42.67C55.097 42.6348 55.1857 42.6162 55.2755 42.6153C55.3653 42.6145 55.4544 42.6313 55.5376 42.6648C55.6209 42.6984 55.6967 42.748 55.7608 42.8109C56.0941 43.1377 56.424 43.4768 56.7414 43.8188C56.8318 43.9164 56.8918 44.0381 56.9141 44.1693C56.9364 44.3004 56.9199 44.4352 56.8667 44.5571C56.8135 44.679 56.7259 44.7827 56.6147 44.8556C56.5034 44.9284 56.3733 44.9672 56.2403 44.9673ZM53.2319 42.1544C53.0753 42.1545 52.9234 42.1007 52.8018 42.002C52.4543 41.7204 52.1002 41.4471 51.7398 41.1822C51.6674 41.1291 51.6063 41.0622 51.5598 40.9854C51.5133 40.9086 51.4823 40.8235 51.4688 40.7347C51.4552 40.646 51.4592 40.5555 51.4807 40.4683C51.5021 40.3811 51.5405 40.299 51.5936 40.2267C51.6467 40.1543 51.7136 40.0931 51.7904 40.0466C51.8672 40.0001 51.9524 39.9692 52.0411 39.9556C52.1298 39.942 52.2204 39.9461 52.3076 39.9675C52.3947 39.9889 52.4768 40.0273 52.5491 40.0805C52.9271 40.3582 53.2983 40.6447 53.6627 40.9398C53.7725 41.0288 53.852 41.1496 53.8903 41.2856C53.9285 41.4216 53.9237 41.5662 53.8765 41.6993C53.8293 41.8325 53.7419 41.9478 53.6265 42.0293C53.5111 42.1108 53.3732 42.1545 53.2319 42.1544ZM63.3711 58.8453C63.2135 58.8451 63.0607 58.7904 62.9387 58.6905C62.8167 58.5906 62.733 58.4516 62.7017 58.2971C62.6576 58.0791 62.6109 57.8617 62.5616 57.6448C62.5417 57.5573 62.5392 57.4667 62.5543 57.3782C62.5694 57.2897 62.6018 57.2051 62.6496 57.1291C62.6974 57.0531 62.7597 56.9873 62.833 56.9354C62.9062 56.8835 62.989 56.8466 63.0765 56.8267C63.164 56.8068 63.2546 56.8043 63.3431 56.8194C63.4316 56.8345 63.5162 56.8669 63.5922 56.9147C63.6682 56.9625 63.734 57.0248 63.7859 57.098C63.8378 57.1713 63.8747 57.254 63.8946 57.3415C63.9463 57.5686 63.9954 57.7968 64.0417 58.0261C64.0619 58.1254 64.0597 58.228 64.0353 58.3263C64.0109 58.4247 63.9649 58.5164 63.9008 58.5948C63.8366 58.6732 63.7557 58.7364 63.6641 58.7797C63.5725 58.823 63.4725 58.8454 63.3711 58.8453ZM6.73004 58.844C6.62868 58.8441 6.52856 58.8216 6.43693 58.7783C6.3453 58.735 6.26446 58.6718 6.20025 58.5933C6.13605 58.5149 6.0901 58.4232 6.06572 58.3248C6.04134 58.2264 6.03915 58.1238 6.0593 58.0245C6.10565 57.7952 6.15487 57.5671 6.20654 57.34C6.24676 57.1633 6.35555 57.0097 6.50899 56.9131C6.66243 56.8165 6.84795 56.7849 7.02474 56.8251C7.20152 56.8653 7.3551 56.9741 7.45167 57.1275C7.54824 57.281 7.5799 57.4665 7.53969 57.6433C7.49047 57.8597 7.44358 58.0774 7.39928 58.2956C7.36807 58.4501 7.28439 58.5891 7.16243 58.6891C7.04047 58.789 6.88772 58.8437 6.73004 58.844ZM7.60846 55.536C7.50025 55.5361 7.39358 55.5104 7.29723 55.4612C7.20087 55.4119 7.11758 55.3405 7.05421 55.2528C6.99083 55.1651 6.94919 55.0636 6.93269 54.9567C6.91619 54.8497 6.92532 54.7404 6.95932 54.6377C7.10533 54.1962 7.2642 53.7517 7.43168 53.3167C7.49782 53.1489 7.62756 53.0141 7.79263 52.9416C7.95771 52.8691 8.14476 52.8647 8.31304 52.9294C8.48133 52.9942 8.61723 53.1228 8.69114 53.2872C8.76506 53.4517 8.771 53.6387 8.70768 53.8075C8.54762 54.2237 8.39751 54.6437 8.25746 55.0671C8.21227 55.2035 8.12525 55.3223 8.00875 55.4065C7.89225 55.4906 7.75219 55.536 7.60846 55.536ZM9.17362 51.7384C9.05718 51.7383 8.9427 51.7085 8.84101 51.6518C8.73933 51.5951 8.65382 51.5133 8.5926 51.4143C8.53137 51.3152 8.49646 51.2022 8.49116 51.0859C8.48587 50.9696 8.51037 50.8538 8.56235 50.7497C8.77111 50.3312 8.98974 49.9176 9.21805 49.5095C9.2619 49.4311 9.32076 49.3622 9.39125 49.3066C9.46174 49.251 9.54249 49.2099 9.62889 49.1855C9.71529 49.1611 9.80564 49.154 9.8948 49.1645C9.98395 49.1751 10.0702 49.2031 10.1485 49.2469C10.2268 49.2908 10.2958 49.3496 10.3513 49.4201C10.4069 49.4906 10.4481 49.5714 10.4725 49.6578C10.4969 49.7442 10.504 49.8345 10.4934 49.9237C10.4829 50.0128 10.4549 50.099 10.4111 50.1774C10.1932 50.5665 9.98473 50.9608 9.78571 51.3598C9.72901 51.4736 9.64169 51.5694 9.53355 51.6363C9.42542 51.7031 9.30076 51.7385 9.17362 51.7384ZM11.2636 48.2022C11.139 48.2021 11.0167 48.1679 10.9101 48.1033C10.8034 48.0387 10.7165 47.9462 10.6587 47.8357C10.6008 47.7253 10.5743 47.6011 10.5819 47.4767C10.5896 47.3523 10.6311 47.2323 10.702 47.1298C10.9679 46.7452 11.2429 46.3669 11.5267 45.9953C11.5812 45.9239 11.6492 45.864 11.7269 45.819C11.8045 45.7739 11.8903 45.7446 11.9793 45.7327C12.0682 45.7208 12.1587 45.7265 12.2455 45.7496C12.3322 45.7726 12.4136 45.8125 12.4849 45.867C12.5563 45.9215 12.6162 45.9895 12.6612 46.0672C12.7063 46.1448 12.7356 46.2306 12.7475 46.3196C12.7594 46.4086 12.7537 46.499 12.7307 46.5858C12.7076 46.6726 12.6677 46.7539 12.6132 46.8253C12.3425 47.1797 12.0803 47.5405 11.8266 47.9074C11.7637 47.9985 11.6796 48.0729 11.5815 48.1242C11.4834 48.1756 11.3743 48.2023 11.2636 48.2022ZM13.8333 44.9975C13.7004 44.9974 13.5703 44.9587 13.4591 44.8859C13.3479 44.8131 13.2603 44.7094 13.2071 44.5877C13.1539 44.4659 13.1373 44.3312 13.1594 44.2001C13.1816 44.0691 13.2414 43.9473 13.3316 43.8497C13.6492 43.5066 13.9748 43.1709 14.3081 42.8431C14.4374 42.7159 14.6119 42.6454 14.7932 42.6469C14.9745 42.6484 15.1478 42.7219 15.2749 42.8512C15.402 42.9805 15.4726 43.155 15.4711 43.3363C15.4695 43.5176 15.396 43.6909 15.2668 43.818C14.9488 44.1307 14.6382 44.4508 14.3353 44.7782C14.2713 44.8474 14.1937 44.9027 14.1072 44.9404C14.0208 44.9782 13.9276 44.9976 13.8333 44.9975ZM16.829 42.1872C16.6878 42.1873 16.5501 42.1436 16.4347 42.0622C16.3193 41.9808 16.232 41.8657 16.1847 41.7327C16.1374 41.5996 16.1324 41.4552 16.1705 41.3192C16.2086 41.1832 16.2879 41.0624 16.3974 40.9733C16.7602 40.6784 17.1298 40.392 17.5059 40.1144C17.5782 40.0611 17.6602 40.0226 17.7474 40.001C17.8345 39.9794 17.925 39.9752 18.0138 39.9886C18.1026 40.002 18.1878 40.0328 18.2647 40.0792C18.3416 40.1255 18.4086 40.1866 18.4619 40.2588C18.5152 40.331 18.5537 40.4131 18.5754 40.5002C18.597 40.5873 18.6012 40.6778 18.5878 40.7666C18.5744 40.8554 18.5436 40.9406 18.4973 41.0175C18.4509 41.0944 18.3899 41.1613 18.3176 41.2146C17.9588 41.4795 17.6062 41.7527 17.2601 42.034C17.1384 42.1332 16.9861 42.1873 16.829 42.1872ZM20.193 39.8269C20.0435 39.8271 19.898 39.7782 19.7789 39.6878C19.6598 39.5974 19.5736 39.4705 19.5336 39.3264C19.4935 39.1823 19.5018 39.0291 19.5572 38.8902C19.6126 38.7513 19.712 38.6344 19.8401 38.5574C20.04 38.437 20.2415 38.3195 20.4444 38.2039C20.602 38.1143 20.7888 38.091 20.9636 38.1391C21.1384 38.1871 21.287 38.3027 21.3766 38.4603C21.4662 38.6179 21.4895 38.8046 21.4415 38.9794C21.3934 39.1543 21.2778 39.3028 21.1202 39.3924C20.927 39.5024 20.735 39.6146 20.5444 39.729C20.4384 39.793 20.3169 39.8269 20.193 39.8269ZM34.9999 49.0508C34.8186 49.0508 34.6448 48.9788 34.5166 48.8506C34.3884 48.7224 34.3163 48.5485 34.3163 48.3672V47.6836C34.3163 47.5023 34.3884 47.3284 34.5166 47.2002C34.6448 47.072 34.8186 47 34.9999 47C35.1812 47 35.3551 47.072 35.4833 47.2002C35.6115 47.3284 35.6835 47.5023 35.6835 47.6836V48.3672C35.6835 48.5485 35.6115 48.7224 35.4833 48.8506C35.3551 48.9788 35.1812 49.0508 34.9999 49.0508ZM34.9999 55.8828C34.8186 55.8828 34.6448 55.8107 34.5166 55.6825C34.3884 55.5543 34.3163 55.3805 34.3163 55.1992V54.0606C34.3163 53.8793 34.3884 53.7054 34.5166 53.5772C34.6448 53.449 34.8186 53.377 34.9999 53.377C35.1812 53.377 35.3551 53.449 35.4833 53.5772C35.6115 53.7054 35.6835 53.8793 35.6835 54.0606V55.1992C35.6835 55.3805 35.6115 55.5543 35.4833 55.6825C35.3551 55.8107 35.1812 55.8828 34.9999 55.8828ZM34.9999 52.4668C34.8186 52.4668 34.6448 52.3948 34.5166 52.2666C34.3884 52.1384 34.3163 51.9646 34.3163 51.7832V50.6445C34.3163 50.4632 34.3884 50.2893 34.5166 50.1611C34.6448 50.0329 34.8186 49.9609 34.9999 49.9609C35.1812 49.9609 35.3551 50.0329 35.4833 50.1611C35.6115 50.2893 35.6835 50.4632 35.6835 50.6445V51.7832C35.6835 51.9646 35.6115 52.1384 35.4833 52.2666C35.3551 52.3948 35.1812 52.4668 34.9999 52.4668ZM34.9999 58.8438C34.8186 58.8438 34.6448 58.7718 34.5166 58.6436C34.3884 58.5154 34.3163 58.3415 34.3163 58.1602V57.4766C34.3163 57.2953 34.3884 57.1215 34.5166 56.9933C34.6448 56.8651 34.8186 56.793 34.9999 56.793C35.1812 56.793 35.3551 56.8651 35.4833 56.9933C35.6115 57.1215 35.6835 57.2953 35.6835 57.4766V58.1602C35.6835 58.3415 35.6115 58.5154 35.4833 58.6436C35.3551 58.7718 35.1812 58.8438 34.9999 58.8438Z" fill="#796EF5"/>
</g>
<defs>
<clipPath id="clip0_1226_458">
<rect width="70" height="70" fill="white"/>
</clipPath>
</defs>
</svg>
