<svg width="70" height="70" viewBox="0 0 70 70" fill="none" xmlns="http://www.w3.org/2000/svg">
<path fill-rule="evenodd" clip-rule="evenodd" d="M22.4438 39.0544C21.5407 39.0529 20.6751 38.6935 20.0366 38.0549C19.3981 37.4164 19.0387 36.5508 19.0371 35.6478C19.063 34.7611 19.4335 33.9195 20.0698 33.3015C20.7061 32.6836 21.5582 32.3379 22.4452 32.3379C23.3322 32.3379 24.1843 32.6836 24.8207 33.3015C25.457 33.9195 25.8274 34.7611 25.8534 35.6478C25.8526 36.5518 25.4931 37.4186 24.8539 38.0578C24.2146 38.6971 23.3478 39.0537 22.4438 39.0544ZM35.6942 39.0544C34.7912 39.0529 33.9256 38.6935 33.287 38.0549C32.6485 37.4164 32.2891 36.5508 32.2875 35.6478C32.3135 34.7611 32.6839 33.9195 33.3202 33.3015C33.9565 32.6836 34.8086 32.3379 35.6957 32.3379C36.5827 32.3379 37.4348 32.6836 38.0711 33.3015C38.7074 33.9195 39.0778 34.7611 39.1038 35.6478C39.103 36.5518 38.7435 37.4186 38.1043 38.0578C37.465 38.6971 36.5982 39.0537 35.6942 39.0544ZM45.5379 35.6478C45.5822 36.5218 45.9606 37.3454 46.5949 37.9483C47.2292 38.5513 48.0709 38.8875 48.9461 38.8875C49.8212 38.8875 50.6629 38.5513 51.2972 37.9483C51.9315 37.3454 52.3099 36.5218 52.3542 35.6478C52.3283 34.7611 51.9578 33.9195 51.3215 33.3015C50.6852 32.6836 49.8331 32.3379 48.9461 32.3379C48.0591 32.3379 47.207 32.6836 46.5706 33.3015C45.9343 33.9195 45.5639 34.7611 45.5379 35.6478Z" fill="#796EF5"/>
<path d="M35.0585 5.83398C18.1127 5.83398 5.8335 19.6765 5.8335 35.0444C5.8335 39.9502 7.26266 45.0019 9.771 49.619C10.2377 50.3773 10.296 51.3398 9.97516 52.2498L8.021 58.7919C7.5835 60.3698 8.92516 61.5336 10.4127 61.0669L16.3043 59.3169C17.9085 58.7919 19.1627 59.4627 20.6502 60.3698C24.9085 62.8781 30.2168 64.1673 35.0002 64.1673C49.4668 64.1673 64.1668 52.979 64.1668 34.9569C64.1668 19.414 51.6252 5.83398 35.0585 5.83398Z" stroke="#796EF5" stroke-width="2.5" stroke-linecap="round" stroke-linejoin="round"/>
</svg>
