<svg width="80" height="80" viewBox="0 0 80 80" fill="none" xmlns="http://www.w3.org/2000/svg">
<path d="M17.9199 66.5605C19.5199 66.4005 21.1199 66.4005 22.3999 66.8805C40.4799 77.9205 63.5199 67.0405 75.3599 59.6805C76.6399 58.8805 77.1199 57.1205 76.4799 55.6805C75.8399 54.2405 74.0799 53.4405 72.6399 54.0805C66.2399 56.4805 52.7999 60.9605 45.7599 61.9205" stroke="#796EF5" stroke-width="2" stroke-miterlimit="10" stroke-linecap="round" stroke-linejoin="round"/>
<path d="M35.6802 61.6L40.4802 63.68C40.9602 63.84 41.6002 64 42.0802 64C43.5202 64 44.9602 63.2 45.6002 61.92C45.7602 61.44 45.9202 60.96 46.0802 60.48C46.2402 58.72 45.4402 57.12 43.8402 56.32L37.6002 53.44C32.8002 51.2 25.9202 50.56 20.6402 51.52L17.9202 52M14.7202 71.68H6.4002C4.6402 71.68 3.2002 70.24 3.2002 68.48V50.56C3.2002 48.8 4.6402 47.36 6.4002 47.36H14.7202C16.4802 47.36 17.9202 48.8 17.9202 50.56V68.32C17.9202 70.24 16.4802 71.68 14.7202 71.68ZM66.4002 41.44L63.3602 44.16L59.8402 41.92C57.9202 43.04 55.8402 43.84 53.7602 44.16L52.6402 48.16L48.4802 48L47.5202 44C45.4402 43.52 43.3602 42.56 41.6002 41.28L37.9202 43.2L35.2002 40.16L37.4402 36.64C36.3202 34.72 35.5202 32.64 35.2002 30.56L31.2002 29.44L31.3602 25.28L35.3602 24.32C35.8402 22.24 36.8002 20.16 38.0802 18.4L36.1602 14.72L39.2002 12L42.7202 14.24C44.6402 13.12 46.7202 12.32 48.8002 12L49.9202 8L54.0802 8.16L55.0402 12.16C57.1202 12.64 59.2002 13.6 60.9602 14.88L64.6402 12.96L67.3602 16L65.1202 19.52C66.2402 21.44 67.0402 23.52 67.3602 25.6L71.3602 26.72L71.2002 30.88L67.0402 32C66.5602 34.08 65.6002 36.16 64.3202 37.92L66.4002 41.44Z" stroke="#796EF5" stroke-width="2" stroke-miterlimit="10" stroke-linecap="round" stroke-linejoin="round"/>
<path d="M53.9199 32.3196C53.9199 31.6796 53.7599 31.1996 53.2799 30.7196C52.7999 30.2396 52.1599 29.9196 51.1999 29.5996C50.2399 29.2796 49.4399 28.9596 48.9599 28.6396C47.1999 27.6796 46.3999 26.2396 46.3999 24.4796C46.3999 23.1996 46.7199 22.2396 47.5199 21.4396C48.3199 20.6396 49.2799 20.1596 50.5599 19.9996V17.5996H52.3199V19.9996C53.5999 20.1596 54.5599 20.7996 55.3599 21.5996C55.9999 22.5596 56.4799 23.6796 56.4799 25.1196H53.7599C53.7599 24.1596 53.5999 23.3596 53.1199 22.8796C52.6399 22.3996 52.1599 22.0796 51.3599 22.0796C50.5599 22.0796 50.0799 22.2396 49.5999 22.7196C49.1199 23.0396 48.9599 23.6796 48.9599 24.3196C48.9599 24.9596 49.1199 25.4396 49.5999 25.9196C50.0799 26.2396 50.7199 26.7196 51.6799 27.0396C52.6399 27.3596 53.4399 27.6796 53.9199 27.9996C54.3999 28.3196 54.8799 28.6396 55.3599 28.9596C55.6799 29.2796 55.9999 29.7596 56.1599 30.2396C56.3199 30.7196 56.4799 31.3596 56.4799 31.9996C56.4799 33.2796 56.1599 34.2396 55.3599 35.0396C54.5599 35.8396 53.4399 36.3196 52.1599 36.4796V38.7196H50.3999V36.7996C48.9599 36.6396 47.8399 36.1596 47.0399 35.1996C46.2399 34.2396 45.9199 33.1196 45.9199 31.6796H48.6399C48.6399 32.6396 48.7999 33.2796 49.2799 33.9196C49.7599 34.3996 50.3999 34.7196 51.3599 34.7196C52.1599 34.7196 52.7999 34.5596 53.2799 34.0796C53.7599 33.5996 53.9199 33.1196 53.9199 32.3196Z" fill="#7764F0"/>
<path d="M10.5602 67.5207C11.8856 67.5207 12.9602 66.4462 12.9602 65.1207C12.9602 63.7952 11.8856 62.7207 10.5602 62.7207C9.23467 62.7207 8.16016 63.7952 8.16016 65.1207C8.16016 66.4462 9.23467 67.5207 10.5602 67.5207Z" stroke="#796EF5" stroke-width="2" stroke-miterlimit="10" stroke-linecap="round" stroke-linejoin="round"/>
</svg>
