<svg width="80" height="80" viewBox="0 0 80 80" fill="none" xmlns="http://www.w3.org/2000/svg">
<g clip-path="url(#clip0_1150_742)">
<path d="M72.56 20.3999L56.56 14.4799C56.88 14.6399 56.08 14.1599 55.44 14.4799L40 20.1599L24.64 14.4799C24.96 14.6399 24.16 14.1599 23.52 14.4799L7.51998 20.3999C6.87998 20.6399 6.47998 21.1999 6.47998 21.9199V63.9999C6.47998 66.7999 9.99998 64.9599 8.63998 65.5199L24 59.8399L39.36 65.5199C40.08 65.7599 40.88 65.3599 40.56 65.5199L56 59.8399L71.44 65.5199C72.48 65.9199 73.6 65.1999 73.6 63.9999V21.9199C73.6 21.2799 73.2 20.6399 72.56 20.3999ZM22.4 57.0399L9.59998 61.5999V22.9599L22.4 18.3199V57.0399ZM38.4 61.5999L25.6 56.9599V18.3199L38.4 22.9599V61.5999ZM54.4 57.0399L41.6 61.5999V22.9599L54.4 18.3199V57.0399ZM70.4 61.5999L57.6 56.9599V18.3199L70.4 22.9599V61.5999Z" fill="#796EF5"/>
<path d="M1091.2 -296V1051.2H-336V-296H1091.2ZM1097.6 -302.4H-342.4V1057.6H1097.6V-302.4Z" fill="#0000FF"/>
</g>
<defs>
<clipPath id="clip0_1150_742">
<rect width="80" height="80" fill="white"/>
</clipPath>
</defs>
</svg>
