<svg width="100" height="100" viewBox="0 0 100 100" fill="none" xmlns="http://www.w3.org/2000/svg">
<path fill-rule="evenodd" clip-rule="evenodd" d="M76.4187 19.4762C76.0172 19.4762 75.8828 19.6168 75.7203 19.723C75.5578 19.8309 75.4078 19.9543 75.2469 20.0949C74.925 20.3762 74.5734 20.7262 74.225 21.0746C73.8766 21.4246 73.5344 21.7715 73.2641 22.0277C73.1328 22.1496 73.0187 22.2465 72.9406 22.309C72.8437 22.2934 72.7062 22.2621 72.5406 22.2199C72.1875 22.1324 71.7312 22.0012 71.2672 21.8684C70.8237 21.7377 70.3761 21.6215 69.925 21.5199C69.7309 21.4772 69.5341 21.448 69.3359 21.4324C69.1437 21.4168 68.9594 21.3605 68.6062 21.5668C68.2594 21.7699 68.2109 21.9574 68.125 22.1309C68.038 22.3115 67.9634 22.4979 67.9016 22.6887C67.7641 23.0949 67.6312 23.5746 67.5047 24.0512C67.3781 24.5262 67.2547 24.9965 67.1484 25.3543C67.0953 25.5262 67.05 25.6668 67.0141 25.7605C66.9234 25.7934 66.7891 25.8355 66.6234 25.8855C66.2734 25.984 65.8109 26.0996 65.3437 26.2168C64.8766 26.3355 64.4062 26.459 64.0078 26.5902C63.8179 26.6486 63.632 26.7196 63.4516 26.8027C63.2797 26.8871 63.0906 26.934 62.8875 27.2871C62.6875 27.6371 62.7406 27.8199 62.7531 28.0152C62.7656 28.209 62.7969 28.4027 62.8391 28.6137C62.9031 28.9418 63.0062 29.3168 63.1047 29.6871H16.0781C15.1285 29.6912 14.2192 30.071 13.5487 30.7435C12.8783 31.416 12.5012 32.3266 12.5 33.2762V46.8746H8.59375C8.38655 46.8746 8.18784 46.9569 8.04132 47.1034C7.89481 47.2499 7.8125 47.4487 7.8125 47.6559V53.9059C7.8125 54.1131 7.89481 54.3118 8.04132 54.4583C8.18784 54.6048 8.38655 54.6871 8.59375 54.6871H12.5V70.359H8.59375C8.38655 70.359 8.18784 70.4413 8.04132 70.5878C7.89481 70.7343 7.8125 70.933 7.8125 71.1402C7.8125 72.263 8.03373 73.3748 8.46354 74.4121C8.89335 75.4493 9.52333 76.3917 10.3175 77.1855C11.1116 77.9792 12.0544 78.6086 13.0919 79.0379C14.1294 79.4671 15.2413 79.6877 16.3641 79.6871H77.3859C78.5087 79.6877 79.6206 79.4671 80.6581 79.0379C81.6956 78.6086 82.6384 77.9792 83.4325 77.1855C84.2267 76.3917 84.8566 75.4493 85.2865 74.4121C85.7163 73.3748 85.9375 72.263 85.9375 71.1402C85.9375 70.933 85.8552 70.7343 85.7087 70.5878C85.5622 70.4413 85.3634 70.359 85.1562 70.359H81.25V48.2371C81.3656 48.2699 81.4578 48.2918 81.5766 48.3262C82.0406 48.4574 82.5078 48.5871 82.9203 48.673C83.1234 48.7168 83.3125 48.7481 83.5047 48.7621C83.6969 48.7777 83.8844 48.834 84.2391 48.6277C84.5844 48.4246 84.6297 48.2371 84.7172 48.0637C84.8031 47.8887 84.8734 47.7074 84.9422 47.5043C85.0812 47.0996 85.2094 46.6199 85.3359 46.1449C85.4625 45.6684 85.5859 45.1965 85.6937 44.8402C85.7453 44.6684 85.7937 44.5277 85.8312 44.434C85.9219 44.3996 86.0562 44.3574 86.2219 44.309C86.5703 44.209 87.0328 44.0949 87.5 43.9762C87.9687 43.8574 88.4375 43.7355 88.8359 43.6043C89.0359 43.5387 89.2156 43.4746 89.3891 43.3902C89.5609 43.3059 89.7547 43.2605 89.9562 42.9059C90.1562 42.5574 90.1031 42.3746 90.0906 42.1793C90.076 41.9782 90.0478 41.7782 90.0062 41.5809C89.908 41.1195 89.7949 40.6615 89.6672 40.2074C89.5391 39.7324 89.4094 39.2606 89.325 38.8981C89.291 38.7591 89.2623 38.6189 89.2391 38.4777C89.3016 38.4027 89.3953 38.2996 89.5141 38.1762C89.7656 37.9137 90.1078 37.5824 90.4547 37.2481C90.7984 36.9121 91.1469 36.5715 91.4281 36.259C91.5687 36.1027 91.6937 35.9543 91.8 35.7949C91.9078 35.6356 92.05 35.5012 92.0469 35.0918C92.0469 34.6918 91.9062 34.5559 91.8 34.3949C91.6869 34.2289 91.5626 34.0707 91.4281 33.9215C91.1126 33.5705 90.7859 33.2297 90.4484 32.8996C90.0984 32.5512 89.7516 32.209 89.4953 31.9371C89.397 31.8339 89.3027 31.7271 89.2125 31.6168C89.2281 31.5231 89.2562 31.3855 89.2969 31.2168C89.3844 30.8652 89.5203 30.4059 89.6516 29.9418C89.7828 29.4777 89.9125 29.0105 90 28.598C90.0422 28.3949 90.075 28.2059 90.0875 28.0137C90.1016 27.8215 90.1562 27.634 89.95 27.2793C89.7469 26.934 89.5625 26.8855 89.3891 26.798C89.208 26.7123 89.0217 26.6381 88.8312 26.5762C88.3814 26.4305 87.927 26.2992 87.4687 26.1824C87.0326 26.0692 86.5982 25.9494 86.1656 25.8231C85.9953 25.7699 85.8531 25.7246 85.7594 25.6871C85.712 25.5586 85.6698 25.4283 85.6328 25.2965C85.5312 24.9481 85.4172 24.4855 85.3 24.0184C85.1812 23.5496 85.0609 23.0809 84.9297 22.6824C84.8707 22.4933 84.7987 22.3084 84.7141 22.1293C84.6297 21.9574 84.5859 21.7637 84.2312 21.5621C83.8828 21.3621 83.7 21.4152 83.5047 21.4277C83.3042 21.4445 83.1049 21.4732 82.9078 21.5137C82.4454 21.6113 81.9863 21.7238 81.5312 21.8512C81.0547 21.9793 80.5875 22.109 80.225 22.1949C80.0853 22.2286 79.9446 22.2578 79.8031 22.2824C79.6992 22.1945 79.5987 22.1028 79.5016 22.0074C79.1864 21.6986 78.876 21.385 78.5703 21.0668C78.2513 20.7316 77.9214 20.407 77.5812 20.0934C77.425 19.9527 77.2797 19.8277 77.1203 19.7215C76.9609 19.6137 76.8281 19.4746 76.4219 19.4746C76.4208 19.4746 76.4198 19.4746 76.4187 19.4746V19.4762ZM76.4156 21.1574C76.4609 21.1949 76.4875 21.209 76.5406 21.2574C76.7937 21.484 77.1187 21.8184 77.45 22.159C77.7812 22.4996 78.1156 22.8465 78.4156 23.1355C78.5641 23.2793 78.7062 23.4074 78.8453 23.5199C78.9844 23.6293 79.0734 23.7387 79.3859 23.8215C79.6937 23.9043 79.8297 23.859 80.0078 23.8371C80.1875 23.8121 80.375 23.773 80.5812 23.7246C80.9937 23.6277 81.4719 23.4934 81.9406 23.3668C82.4094 23.2418 82.8703 23.1199 83.2125 23.0527C83.2906 23.0371 83.3266 23.0371 83.3891 23.0246C83.4094 23.0793 83.425 23.1059 83.4469 23.1746C83.5531 23.4965 83.6703 23.9465 83.7859 24.409C83.9016 24.8684 84.0156 25.3402 84.1297 25.7371C84.1891 25.9371 84.2453 26.1184 84.3109 26.284C84.375 26.4512 84.4 26.5902 84.6281 26.8184C84.8531 27.0434 84.9922 27.0715 85.1594 27.1387C85.3266 27.2059 85.5125 27.2668 85.7141 27.3277C86.1203 27.4496 86.5969 27.573 87.0672 27.698C87.5359 27.823 87.9969 27.9512 88.3266 28.0637C88.4031 28.0902 88.4359 28.1074 88.4953 28.1309C88.4859 28.1871 88.4844 28.2184 88.4703 28.2871C88.4016 28.6184 88.2766 29.0652 88.1469 29.5215C88.0172 29.9793 87.8812 30.4465 87.7812 30.8496C87.7336 31.0352 87.6945 31.2229 87.6641 31.4121C87.6375 31.5871 87.5859 31.7184 87.6703 32.0309C87.7531 32.3387 87.8609 32.4324 87.9734 32.5746C88.0844 32.7152 88.2125 32.8621 88.3578 33.0168C88.6469 33.3246 88.9984 33.6731 89.3422 34.0152C89.6859 34.3574 90.0234 34.6949 90.2531 34.9574C90.3062 35.0184 90.325 35.0512 90.3656 35.1012C90.3297 35.1465 90.3125 35.1699 90.2656 35.223C90.0391 35.4746 89.7078 35.8012 89.3672 36.1324C89.0266 36.4637 88.6766 36.8012 88.3875 37.1012C88.2531 37.2376 88.1249 37.3799 88.0031 37.5277C87.8922 37.6668 87.7844 37.7574 87.7016 38.0699C87.6187 38.3777 87.6641 38.5105 87.6891 38.6902C87.7141 38.8684 87.7531 39.0574 87.8016 39.2637C87.8984 39.6762 88.0328 40.1527 88.1594 40.6215C88.2844 41.0902 88.4062 41.5527 88.4734 41.8934C88.4891 41.9731 88.4922 42.0121 88.5016 42.0746L88.3516 42.1293C88.0297 42.234 87.5797 42.3512 87.1172 42.4684C86.6578 42.584 86.1859 42.7012 85.7891 42.8152C85.6043 42.8666 85.4218 42.9261 85.2422 42.9934C85.075 43.059 84.9359 43.0824 84.7078 43.3106C84.4828 43.5356 84.4547 43.6762 84.3875 43.8449C84.3164 44.0259 84.2533 44.2099 84.1984 44.3965C84.0766 44.8027 83.9531 45.2824 83.8281 45.7512C83.7031 46.2199 83.575 46.6793 83.4625 47.009C83.4359 47.084 83.4187 47.1184 83.3953 47.1762C83.3391 47.1606 83.3078 47.1605 83.2391 47.1527C82.9078 47.0824 82.4578 46.959 82 46.8293C81.5437 46.6996 81.0781 46.5652 80.6766 46.4652C80.491 46.417 80.3033 46.3773 80.1141 46.3465C79.9391 46.3199 79.8047 46.2715 79.4922 46.3621C79.1875 46.4449 79.0906 46.5496 78.9484 46.6606C78.7969 46.7821 78.6509 46.9103 78.5109 47.0449C78.2016 47.3356 77.8547 47.6902 77.5109 48.034C77.1687 48.3777 76.8312 48.7106 76.5687 48.9402C76.5062 48.9934 76.475 49.0152 76.425 49.0543C76.3812 49.0168 76.3562 48.9996 76.3031 48.9527C75.9897 48.6633 75.6854 48.3642 75.3906 48.0559C75.0594 47.7152 74.725 47.3637 74.4266 47.0762C74.2897 46.9417 74.1468 46.8134 73.9984 46.6918C73.8594 46.5809 73.7672 46.473 73.4562 46.3887C73.1484 46.3059 73.0156 46.3527 72.8359 46.3731C72.6432 46.4023 72.4518 46.4404 72.2625 46.4871C71.85 46.584 71.3734 46.7184 70.9031 46.8434C70.4825 46.9615 70.0583 47.0668 69.6312 47.159C69.5531 47.1746 69.5156 47.1746 69.4516 47.1856C69.4312 47.1324 69.4203 47.1059 69.3969 47.0371C69.2711 46.6293 69.158 46.2176 69.0578 45.8027C68.9422 45.3434 68.825 44.8715 68.7109 44.473C68.6598 44.2882 68.6004 44.1057 68.5328 43.9262C68.4687 43.7606 68.4422 43.6215 68.2125 43.3918C67.9875 43.1668 67.85 43.1402 67.6812 43.0715C67.5002 43.001 67.3162 42.9384 67.1297 42.884C66.7234 42.7605 66.2437 42.6387 65.775 42.5137C65.3062 42.3887 64.8469 42.2606 64.5172 42.1481C64.4406 42.1231 64.4078 42.1043 64.35 42.0809C64.3594 42.0246 64.3594 41.9934 64.3734 41.9246C64.4437 41.5934 64.5672 41.1465 64.6969 40.6887C64.8266 40.2324 64.9609 39.7637 65.0609 39.3605C65.1109 39.1606 65.1531 38.9762 65.1797 38.7996C65.2062 38.6231 65.2547 38.4918 65.1703 38.1809C65.0875 37.8715 64.9828 37.7793 64.8719 37.6371C64.7498 37.4841 64.6211 37.3365 64.4859 37.1949C64.1969 36.8856 63.8422 36.5387 63.4984 36.1965C63.1547 35.8527 62.8219 35.5152 62.5922 35.2527C62.5391 35.1918 62.5187 35.159 62.4781 35.1106C62.5156 35.0668 62.5328 35.0418 62.5797 34.9887C62.8047 34.7355 63.1359 34.4106 63.4766 34.0793C63.8172 33.7481 64.1687 33.4106 64.4562 33.1105C64.6 32.9605 64.7266 32.823 64.8375 32.684C64.9484 32.5449 65.0594 32.4527 65.1422 32.1402C65.225 31.8324 65.1812 31.6996 65.1547 31.5215C65.1245 31.3287 65.0859 31.1374 65.0391 30.948C64.9422 30.5355 64.8109 30.0574 64.6844 29.5887C64.5594 29.1199 64.4391 28.659 64.3719 28.3168C64.3562 28.2371 64.3531 28.1996 64.3437 28.1371C64.3969 28.1168 64.425 28.1043 64.4922 28.0824C64.8141 27.9777 65.2656 27.859 65.7266 27.7434C66.1859 27.6277 66.6578 27.509 67.0562 27.3949C67.241 27.344 67.4235 27.2851 67.6031 27.2184C67.7687 27.1543 67.9078 27.1293 68.1359 26.9012C68.3625 26.6746 68.3891 26.534 68.4578 26.3668C68.525 26.1996 68.5828 26.0168 68.6437 25.8137C68.7656 25.409 68.8906 24.9293 69.0156 24.459C69.1406 23.9902 69.2656 23.5324 69.3781 23.2027C69.4047 23.1277 69.4234 23.0934 69.4453 23.034C69.5031 23.0496 69.5328 23.0496 69.6016 23.059C69.9328 23.1293 70.3828 23.2527 70.8406 23.3824C71.2969 23.5121 71.7625 23.6449 72.1656 23.7449C72.3656 23.7949 72.5531 23.8387 72.7281 23.8637C72.9062 23.8902 73.0359 23.9402 73.3484 23.848C73.6578 23.7668 73.75 23.6605 73.8922 23.5512C74.0344 23.4387 74.1781 23.3105 74.3312 23.1652C74.6406 22.8762 74.9875 22.5199 75.3297 22.1762C75.6734 21.8324 76.0141 21.4996 76.275 21.2699C76.3359 21.2168 76.3672 21.1965 76.4156 21.1574ZM76.4219 25.5887C73.8999 25.5916 71.482 26.5947 69.6987 28.378C67.9154 30.1613 66.9123 32.5792 66.9094 35.1012C66.9127 37.623 67.9159 40.0407 69.6992 41.8239C71.4824 43.6071 73.9 44.6104 76.4219 44.6137C78.9437 44.6104 81.3613 43.6071 83.1446 41.8239C84.9278 40.0407 85.9311 37.623 85.9344 35.1012C85.9315 32.5792 84.9283 30.1613 83.145 28.378C81.3617 26.5947 78.9439 25.5916 76.4219 25.5887ZM76.4219 27.1512C77.4663 27.1495 78.5009 27.354 79.4661 27.753C80.4314 28.1519 81.3085 28.7375 82.047 29.476C82.7856 30.2146 83.3711 31.0916 83.7701 32.0569C84.169 33.0222 84.3735 34.0567 84.3719 35.1012C84.3735 36.1456 84.169 37.1802 83.7701 38.1455C83.3711 39.1107 82.7856 39.9878 82.047 40.7263C81.3085 41.4649 80.4314 42.0504 79.4661 42.4494C78.5009 42.8483 77.4663 43.0528 76.4219 43.0512C75.3774 43.0528 74.3429 42.8483 73.3776 42.4494C72.4123 42.0504 71.5353 41.4649 70.7967 40.7263C70.0581 39.9878 69.4726 39.1107 69.0737 38.1455C68.6747 37.1802 68.4702 36.1456 68.4719 35.1012C68.4702 34.0567 68.6747 33.0222 69.0737 32.0569C69.4726 31.0916 70.0581 30.2146 70.7967 29.476C71.5353 28.7375 72.4123 28.1519 73.3776 27.753C74.3429 27.354 75.3774 27.1495 76.4219 27.1512ZM16.0797 31.2496H63.5078L63.5187 31.2965C63.5609 31.4699 63.5906 31.6168 63.6047 31.7168C63.5422 31.7918 63.4484 31.8949 63.3297 32.0184C63.0797 32.2809 62.7328 32.6106 62.3875 32.9465C62.0523 33.2654 61.7276 33.5953 61.4141 33.9355C61.2734 34.0918 61.1516 34.2387 61.0437 34.3996H17.9687C17.7615 34.3996 17.5628 34.4819 17.4163 34.6284C17.2698 34.7749 17.1875 34.9737 17.1875 35.1809V46.8746H14.0625V33.2762C14.059 33.0099 14.1086 32.7455 14.2086 32.4986C14.3086 32.2518 14.4569 32.0274 14.6448 31.8386C14.8327 31.6498 15.0564 31.5005 15.3028 31.3994C15.5492 31.2982 15.8134 31.2473 16.0797 31.2496ZM81.9187 31.8137V31.8168C81.7697 31.8114 81.6222 31.8488 81.4937 31.9246L73.4094 36.5387L71.6344 33.4949C71.5827 33.4063 71.514 33.3287 71.4323 33.2666C71.3506 33.2045 71.2575 33.1591 71.1582 33.133C71.059 33.1068 70.9556 33.1005 70.8539 33.1144C70.7522 33.1282 70.6543 33.162 70.5656 33.2137C70.477 33.2654 70.3994 33.334 70.3373 33.4157C70.2752 33.4974 70.2298 33.5906 70.2037 33.6898C70.1775 33.789 70.1712 33.8925 70.1851 33.9941C70.1989 34.0958 70.2327 34.1938 70.2844 34.2824L72.4484 37.9934C72.5523 38.1713 72.7222 38.301 72.9212 38.3542C73.1201 38.4075 73.3321 38.38 73.5109 38.2777L82.2687 33.2777C82.4181 33.195 82.5361 33.0656 82.605 32.9094C82.6738 32.7532 82.6896 32.5788 82.6499 32.4127C82.6102 32.2467 82.5172 32.0983 82.3852 31.9901C82.2532 31.8819 82.0893 31.8199 81.9187 31.8137ZM18.75 35.9621H61.1687C61.2469 36.0637 61.3203 36.1668 61.4141 36.2731C61.6953 36.5949 62.0469 36.948 62.3969 37.2949C62.7453 37.6434 63.0906 37.9855 63.3453 38.2559C63.4672 38.3855 63.5656 38.498 63.6297 38.5762C63.6141 38.6715 63.5844 38.8106 63.5437 38.9762C63.4562 39.3293 63.325 39.7887 63.1922 40.2527C63.0609 40.7168 62.9312 41.184 62.8453 41.5965C62.8016 41.7996 62.7672 41.9887 62.7531 42.1809C62.7406 42.3731 62.6844 42.5606 62.8906 42.9137C63.0937 43.2606 63.2781 43.3059 63.4531 43.3918C63.625 43.4777 63.8125 43.5481 64.0141 43.6184C64.4187 43.7559 64.8953 43.884 65.3719 44.0121C65.8484 44.1387 66.3219 44.2652 66.6781 44.3715C66.85 44.4231 66.9906 44.4684 67.0844 44.5059C67.1187 44.5965 67.1625 44.7309 67.2094 44.8965C67.3094 45.2465 67.4234 45.709 67.5422 46.1762C67.6594 46.6434 67.7797 47.1137 67.9109 47.5121C67.9766 47.7121 68.0422 47.8918 68.1281 48.0652C68.2125 48.2371 68.2578 48.4293 68.6125 48.6324C68.9609 48.8324 69.1437 48.7793 69.3391 48.7668C69.5401 48.7501 69.7399 48.7214 69.9375 48.6809C70.3562 48.5981 70.8344 48.4715 71.3109 48.3418C71.7859 48.2137 72.2578 48.0856 72.6203 48.0012C72.7953 47.9606 72.9406 47.9309 73.0422 47.9152C73.1156 47.9762 73.2187 48.0715 73.3422 48.1902C73.6047 48.4402 73.9359 48.784 74.2703 49.1293C74.5187 49.384 74.7609 49.6184 75 49.8481V65.6496H18.75V54.6871H51.6016C51.578 54.762 51.5659 54.8399 51.5656 54.9184C51.5656 54.9236 51.5656 54.9288 51.5656 54.934C51.5534 55.1036 51.5968 55.2726 51.6893 55.4153C51.7818 55.5579 51.9183 55.6666 52.0781 55.7246C53.3494 56.2048 54.7201 56.3614 56.067 56.1803C57.4138 55.9992 58.6945 55.4861 59.7937 54.6871H63.2812C63.4884 54.6871 63.6872 54.6048 63.8337 54.4583C63.9802 54.3118 64.0625 54.1131 64.0625 53.9059V48.4527H64.8281C64.9872 48.4538 65.1429 48.4062 65.2743 48.3164C65.4056 48.2266 65.5064 48.0988 65.5631 47.9501C65.6199 47.8014 65.6299 47.639 65.5918 47.4845C65.5537 47.33 65.4693 47.1908 65.35 47.0856L60.1 42.3981C60.022 42.3288 59.931 42.2758 59.8322 42.2422C59.7335 42.2087 59.629 42.1953 59.525 42.2027V42.1996C59.353 42.2117 59.1898 42.2804 59.0609 42.3949L54.0437 46.8746H18.75V35.9621ZM21.0937 37.4996C20.8865 37.4996 20.6878 37.5819 20.5413 37.7284C20.3948 37.8749 20.3125 38.0737 20.3125 38.2809V44.634C20.3125 44.8412 20.3948 45.0399 20.5413 45.1864C20.6878 45.3329 20.8865 45.4152 21.0937 45.4152H53.9062C54.1134 45.4152 54.3122 45.3329 54.4587 45.1864C54.6052 45.0399 54.6875 44.8412 54.6875 44.634V38.2809C54.6875 38.0737 54.6052 37.8749 54.4587 37.7284C54.3122 37.5819 54.1134 37.4996 53.9062 37.4996H21.0937ZM21.875 39.0621H53.125V43.8527H21.875V39.0621ZM24.1422 40.6246C23.935 40.6352 23.7405 40.7276 23.6014 40.8816C23.4624 41.0356 23.3902 41.2385 23.4008 41.4457C23.4113 41.6529 23.5038 41.8474 23.6578 41.9865C23.8118 42.1255 24.0147 42.1977 24.2219 42.1871H25.7844C25.9916 42.1871 26.1903 42.1048 26.3368 41.9583C26.4833 41.8118 26.5656 41.6131 26.5656 41.4059C26.5656 41.1987 26.4833 40.9999 26.3368 40.8534C26.1903 40.7069 25.9916 40.6246 25.7844 40.6246H24.2219C24.1958 40.6233 24.1682 40.6233 24.1422 40.6246ZM28.8391 40.6246C28.6319 40.635 28.4373 40.7272 28.2981 40.8811C28.1589 41.0349 28.0865 41.2377 28.0969 41.4449C28.1072 41.6521 28.1995 41.8467 28.3533 41.9859C28.5072 42.1251 28.71 42.1975 28.9172 42.1871H50.7922C50.9994 42.1871 51.1981 42.1048 51.3446 41.9583C51.4911 41.8118 51.5734 41.6131 51.5734 41.4059C51.5734 41.1987 51.4911 40.9999 51.3446 40.8534C51.1981 40.7069 50.9994 40.6246 50.7922 40.6246H28.9172C28.8912 40.6233 28.8651 40.6233 28.8391 40.6246ZM59.5797 44.0277L62.7812 46.884H62.3875C62.279 46.884 62.1716 46.9066 62.0723 46.9504C61.973 46.9941 61.8839 47.0581 61.8107 47.1382C61.7375 47.2184 61.6818 47.3128 61.6471 47.4157C61.6125 47.5185 61.5996 47.6275 61.6094 47.7356C61.6844 48.5637 61.5937 49.3824 61.375 50.1574C60.7891 51.6012 60.2625 52.2731 58.9937 53.3387C57.7266 54.2981 56.1875 54.5574 54.6453 54.4762C56.6656 52.9449 57.8484 50.6074 57.7328 47.9574C57.7802 47.8399 57.7983 47.7126 57.7856 47.5865C57.7728 47.4605 57.7296 47.3394 57.6597 47.2337C57.5897 47.1281 57.4951 47.041 57.3839 46.9801C57.2728 46.9192 57.1486 46.8862 57.0219 46.884H56.3812L59.5797 44.0277ZM79.6875 48.0777V70.359H14.0625V54.6871H17.1875V66.4309C17.1875 66.6381 17.2698 66.8368 17.4163 66.9833C17.5628 67.1298 17.7615 67.2121 17.9687 67.2121H75.7812C75.9884 67.2121 76.1872 67.1298 76.3337 66.9833C76.4802 66.8368 76.5625 66.6381 76.5625 66.4309V50.698C76.8375 50.6652 76.9844 50.5652 77.1203 50.4762C77.2828 50.3668 77.4359 50.2449 77.5969 50.1027C77.9187 49.8215 78.2719 49.473 78.6187 49.123C78.9672 48.7746 79.3094 48.4262 79.5812 48.1715L79.6875 48.0777ZM9.375 48.4371H54.2234C54.2586 48.4427 54.2941 48.4458 54.3297 48.4465H56.0328C56.0187 48.9871 55.9328 49.5027 55.8047 49.9996H16.4141C16.2069 49.9996 16.0081 50.0819 15.8616 50.2284C15.7151 50.3749 15.6328 50.5737 15.6328 50.7809C15.6328 50.9881 15.7151 51.1868 15.8616 51.3333C16.0081 51.4798 16.2069 51.5621 16.4141 51.5621H55.1641C54.8212 52.1547 54.3782 52.6834 53.8547 53.1246H9.375V48.4371ZM11.6406 49.9996C11.538 50.0047 11.4374 50.03 11.3446 50.074C11.2518 50.118 11.1686 50.1799 11.0996 50.2561C11.0307 50.3322 10.9775 50.4212 10.943 50.518C10.9084 50.6147 10.8933 50.7173 10.8984 50.8199C10.9036 50.9225 10.9289 51.0231 10.9729 51.1159C11.0169 51.2087 11.0787 51.292 11.1549 51.3609C11.3087 51.5001 11.5115 51.5725 11.7187 51.5621H13.2812C13.4885 51.5621 13.6872 51.4798 13.8337 51.3333C13.9802 51.1868 14.0625 50.9881 14.0625 50.7809C14.0625 50.5737 13.9802 50.3749 13.8337 50.2284C13.6872 50.0819 13.4885 49.9996 13.2812 49.9996H11.7187C11.6927 49.9983 11.6666 49.9983 11.6406 49.9996ZM62.5 51.4559V53.1246H61.4219C61.8391 52.6246 62.1937 52.0777 62.5 51.4559ZM21.0937 56.2496C20.8865 56.2496 20.6878 56.3319 20.5413 56.4784C20.3948 56.625 20.3125 56.8237 20.3125 57.0309V63.2809C20.3125 63.4881 20.3948 63.6868 20.5413 63.8333C20.6878 63.9798 20.8865 64.0621 21.0937 64.0621H53.9062C54.1134 64.0621 54.3122 63.9798 54.4587 63.8333C54.6052 63.6868 54.6875 63.4881 54.6875 63.2809V57.0309C54.6875 56.8237 54.6052 56.625 54.4587 56.4784C54.3122 56.3319 54.1134 56.2496 53.9062 56.2496H21.0937ZM21.875 57.8121H53.125V62.4996H21.875V57.8121ZM24.1422 59.3746C23.935 59.3852 23.7405 59.4776 23.6014 59.6316C23.4624 59.7856 23.3902 59.9885 23.4008 60.1957C23.4113 60.4029 23.5038 60.5974 23.6578 60.7365C23.8118 60.8755 24.0147 60.9477 24.2219 60.9371H25.7844C25.9916 60.9371 26.1903 60.8548 26.3368 60.7083C26.4833 60.5618 26.5656 60.3631 26.5656 60.1559C26.5656 59.9487 26.4833 59.75 26.3368 59.6034C26.1903 59.4569 25.9916 59.3746 25.7844 59.3746H24.2219C24.1958 59.3733 24.1682 59.3733 24.1422 59.3746ZM28.8391 59.3746C28.6319 59.385 28.4373 59.4772 28.2981 59.6311C28.1589 59.7849 28.0865 59.9877 28.0969 60.1949C28.1072 60.4021 28.1995 60.5967 28.3533 60.7359C28.5072 60.8751 28.71 60.9475 28.9172 60.9371H50.7922C50.9994 60.9371 51.1981 60.8548 51.3446 60.7083C51.4911 60.5618 51.5734 60.3631 51.5734 60.1559C51.5734 59.9487 51.4911 59.75 51.3446 59.6034C51.1981 59.4569 50.9994 59.3746 50.7922 59.3746H28.9172C28.8912 59.3733 28.8651 59.3733 28.8391 59.3746ZM9.53125 71.9215H39.0625V73.2137C39.0625 74.7699 40.3062 76.0684 41.8516 76.0684H51.8984C53.4453 76.0684 54.6875 74.7699 54.6875 73.2137V71.9199H84.2188C83.8187 75.4121 80.9937 78.1246 77.3859 78.1246H16.3641C12.7547 78.1246 9.93125 75.4121 9.53125 71.9215ZM40.625 71.9215H53.125V73.2137C53.125 73.9574 52.5781 74.5059 51.8984 74.5059H41.8516C41.1719 74.5059 40.625 73.9574 40.625 73.2137V71.9215Z" fill="#796EF5"/>
</svg>
