<svg width="77" height="77" viewBox="0 0 77 77" fill="none" xmlns="http://www.w3.org/2000/svg">
<path d="M42.3502 47.2266H34.6502C33.0555 47.2266 31.7627 48.5193 31.7627 50.1141V66.4766C31.7627 68.0713 33.0555 69.3641 34.6502 69.3641H42.3502C43.9449 69.3641 45.2377 68.0713 45.2377 66.4766V50.1141C45.2377 48.5193 43.9449 47.2266 42.3502 47.2266Z" stroke="#796EF5" stroke-width="2" stroke-linecap="round" stroke-linejoin="round"/>
<path d="M38.5002 66.477C39.5633 66.477 40.4252 65.6151 40.4252 64.552C40.4252 63.4888 39.5633 62.627 38.5002 62.627C37.437 62.627 36.5752 63.4888 36.5752 64.552C36.5752 65.6151 37.437 66.477 38.5002 66.477Z" fill="#796EF5"/>
<path d="M68.3377 47.2266H54.8627C52.7364 47.2266 51.0127 48.9503 51.0127 51.0766V58.7766C51.0127 60.9029 52.7364 62.6266 54.8627 62.6266H68.3377C70.464 62.6266 72.1877 60.9029 72.1877 58.7766V51.0766C72.1877 48.9503 70.464 47.2266 68.3377 47.2266Z" stroke="#796EF5" stroke-width="2" stroke-linecap="round" stroke-linejoin="round"/>
<path d="M61.6001 62.627V69.3645" stroke="#796EF5" stroke-width="2" stroke-linecap="round" stroke-linejoin="round"/>
<path d="M56.7876 69.3633H66.4126" stroke="#796EF5" stroke-width="2" stroke-linecap="round" stroke-linejoin="round"/>
<path d="M4.8125 51.0766V53.0016C4.8125 53.7674 5.11672 54.5018 5.65823 55.0433C6.19974 55.5848 6.93419 55.8891 7.7 55.8891H8.07923C8.55522 55.8897 9.02399 55.7726 9.4438 55.5482C9.86361 55.3239 10.2215 54.9992 10.4855 54.6032L10.6963 54.2875C10.9597 53.8923 11.3164 53.5683 11.735 53.344C12.1535 53.1197 12.6209 53.0021 13.0958 53.0016H17.7052C18.1812 53.001 18.65 53.118 19.0698 53.3424C19.4896 53.5667 19.8474 53.8914 20.1114 54.2875L20.3222 54.6032C20.5855 54.9981 20.9421 55.3221 21.3605 55.5464C21.7789 55.7707 22.2461 55.8884 22.7208 55.8891H23.1C23.8658 55.8891 24.6003 55.5848 25.1418 55.0433C25.6833 54.5018 25.9875 53.7674 25.9875 53.0016V51.0766C25.9875 50.0555 25.5819 49.0762 24.8599 48.3542C24.1378 47.6322 23.1586 47.2266 22.1375 47.2266H8.6625C7.64142 47.2266 6.66215 47.6322 5.94014 48.3542C5.21812 49.0762 4.8125 50.0555 4.8125 51.0766ZM18.3924 60.3782L18.1816 60.0625C17.918 59.6669 17.5607 59.3426 17.1416 59.1183C16.7226 58.894 16.2546 58.7766 15.7792 58.7766H15.0198C14.5438 58.776 14.075 58.893 13.6552 59.1174C13.2354 59.3417 12.8776 59.6664 12.6136 60.0625L12.4028 60.3782C12.1395 60.7731 11.7829 61.0971 11.3645 61.3214C10.9461 61.5457 10.4789 61.6634 10.0042 61.6641H7.7C6.93419 61.6641 6.19974 61.9683 5.65823 62.5098C5.11672 63.0513 4.8125 63.7857 4.8125 64.5516V66.4766C4.8125 67.2424 5.11672 67.9768 5.65823 68.5183C6.19974 69.0598 6.93419 69.3641 7.7 69.3641H23.1C23.8658 69.3641 24.6003 69.0598 25.1418 68.5183C25.6833 67.9768 25.9875 67.2424 25.9875 66.4766V64.5516C25.9875 63.7857 25.6833 63.0513 25.1418 62.5098C24.6003 61.9683 23.8658 61.6641 23.1 61.6641H20.7958C20.3203 61.6642 19.8521 61.5469 19.4328 61.3225C19.0135 61.0982 18.6562 60.7738 18.3924 60.3782Z" stroke="#796EF5" stroke-width="2" stroke-linecap="round" stroke-linejoin="round"/>
<path d="M38.5001 35.677C41.6895 35.677 44.2751 33.0914 44.2751 29.902C44.2751 26.7125 41.6895 24.127 38.5001 24.127C35.3107 24.127 32.7251 26.7125 32.7251 29.902C32.7251 33.0914 35.3107 35.677 38.5001 35.677Z" stroke="#796EF5" stroke-width="2" stroke-miterlimit="10" stroke-linecap="round"/>
<path d="M38.5 41.4508V35.6758" stroke="#796EF5" stroke-width="2" stroke-miterlimit="10" stroke-linecap="round"/>
<path d="M16.3623 41.4523V33.7523C16.3623 32.7313 16.7679 31.752 17.4899 31.03C18.212 30.308 19.1912 29.9023 20.2123 29.9023H26.9729M60.6373 41.4523V33.7523C60.6373 32.7313 60.2317 31.752 59.5097 31.03C58.7876 30.308 57.8084 29.9023 56.7873 29.9023H44.2517" stroke="#796EF5" stroke-width="2" stroke-miterlimit="10" stroke-linecap="round"/>
<path d="M32.7251 15.4645L38.5001 9.68945L44.2751 15.4645" stroke="#796EF5" stroke-width="2" stroke-linecap="round" stroke-linejoin="round"/>
<path d="M38.5 24.127V9.68945" stroke="#796EF5" stroke-width="2" stroke-miterlimit="10" stroke-linecap="round"/>
</svg>
