<svg width="75" height="70" viewBox="0 0 75 70" fill="none" xmlns="http://www.w3.org/2000/svg">
<g clip-path="url(#clip0_1318_343)">
<path d="M71.1667 0H3.5C1.567 0 0 1.567 0 3.5V66.5C0 68.433 1.567 70 3.5 70H71.1667C73.0997 70 74.6667 68.433 74.6667 66.5V3.5C74.6667 1.567 73.0997 0 71.1667 0Z" fill="#CCCAD8"/>
<path d="M3.50004 5.83333C4.14437 5.83333 4.66671 5.311 4.66671 4.66667C4.66671 4.02233 4.14437 3.5 3.50004 3.5C2.85571 3.5 2.33337 4.02233 2.33337 4.66667C2.33337 5.311 2.85571 5.83333 3.50004 5.83333Z" fill="#9E9BAF"/>
<path d="M8.16667 5.83333C8.811 5.83333 9.33333 5.311 9.33333 4.66667C9.33333 4.02233 8.811 3.5 8.16667 3.5C7.52233 3.5 7 4.02233 7 4.66667C7 5.311 7.52233 5.83333 8.16667 5.83333Z" fill="#9E9BAF"/>
<path d="M12.8333 5.83333C13.4776 5.83333 14 5.311 14 4.66667C14 4.02233 13.4776 3.5 12.8333 3.5C12.189 3.5 11.6666 4.02233 11.6666 4.66667C11.6666 5.311 12.189 5.83333 12.8333 5.83333Z" fill="#9E9BAF"/>
<path d="M71.1667 9.33398H3.50004C2.85571 9.33398 2.33337 9.85632 2.33337 10.5007V66.5006C2.33337 67.145 2.85571 67.6673 3.50004 67.6673H71.1667C71.811 67.6673 72.3334 67.145 72.3334 66.5006V10.5007C72.3334 9.85632 71.811 9.33398 71.1667 9.33398Z" fill="white"/>
<path d="M71.1667 3.5H17.5C16.8557 3.5 16.3334 4.02233 16.3334 4.66667C16.3334 5.311 16.8557 5.83333 17.5 5.83333H71.1667C71.811 5.83333 72.3334 5.311 72.3334 4.66667C72.3334 4.02233 71.811 3.5 71.1667 3.5Z" fill="#E3E2E7"/>
<path d="M52.5 15.166H22.1667C21.5223 15.166 21 15.6884 21 16.3327C21 16.977 21.5223 17.4993 22.1667 17.4993H52.5C53.1443 17.4993 53.6667 16.977 53.6667 16.3327C53.6667 15.6884 53.1443 15.166 52.5 15.166Z" fill="#CCCAD8"/>
<path d="M46.6667 19.834H28C27.3557 19.834 26.8334 20.3563 26.8334 21.0007C26.8334 21.645 27.3557 22.1673 28 22.1673H46.6667C47.311 22.1673 47.8334 21.645 47.8334 21.0007C47.8334 20.3563 47.311 19.834 46.6667 19.834Z" fill="#CCCAD8"/>
<path d="M37.3333 48.9993C41.8436 48.9993 45.5 45.343 45.5 40.8327C45.5 36.3224 41.8436 32.666 37.3333 32.666C32.823 32.666 29.1666 36.3224 29.1666 40.8327C29.1666 45.343 32.823 48.9993 37.3333 48.9993Z" fill="#7764F0"/>
<path d="M39.4333 39.2358H37.9983V38.3025C37.9915 38.2472 37.9968 38.191 38.0138 38.1379C38.0308 38.0848 38.0592 38.0361 38.0969 37.995C38.1346 37.954 38.1808 37.9216 38.2323 37.9002C38.2837 37.8787 38.3392 37.8687 38.3949 37.8708H39.4099V36.3191H38.0216C37.7713 36.3052 37.5209 36.3448 37.2872 36.4353C37.0534 36.5258 36.8417 36.6652 36.6661 36.8441C36.4905 37.023 36.3551 37.2373 36.269 37.4727C36.1829 37.7081 36.148 37.9592 36.1666 38.2091V39.2475H35.2333V40.8341H36.1666V45.3608H38.0449V40.8341H39.3166L39.4333 39.2358Z" fill="white"/>
<path d="M16.3333 48.9993C20.8436 48.9993 24.5 45.343 24.5 40.8327C24.5 36.3224 20.8436 32.666 16.3333 32.666C11.823 32.666 8.16663 36.3224 8.16663 40.8327C8.16663 45.343 11.823 48.9993 16.3333 48.9993Z" fill="#7865EF"/>
<path d="M21 37.8002C20.6614 37.9621 20.299 38.0684 19.9266 38.1152C20.3375 37.8421 20.6326 37.4265 20.755 36.9485C20.3967 37.1769 20.0022 37.3426 19.5883 37.4385C19.4209 37.239 19.2121 37.0783 18.9764 36.9675C18.7407 36.8567 18.4837 36.7985 18.2233 36.7969C17.9618 36.8026 17.7041 36.8613 17.4658 36.9693C17.2276 37.0773 17.0137 37.2325 16.8371 37.4255C16.6604 37.6185 16.5247 37.8453 16.4382 38.0921C16.3516 38.339 16.3159 38.6008 16.3333 38.8619C16.3176 39.0131 16.3176 39.1656 16.3333 39.3169C15.5791 39.2681 14.8446 39.0548 14.1815 38.692C13.5185 38.3292 12.9428 37.8257 12.495 37.2169C12.3279 37.525 12.2397 37.8697 12.2383 38.2202C12.2342 38.5441 12.3071 38.8642 12.4511 39.1543C12.5952 39.4444 12.8061 39.6961 13.0666 39.8885C12.7884 39.8784 12.5165 39.8024 12.2733 39.6669C12.2621 40.1161 12.4037 40.5558 12.675 40.914C12.9463 41.2722 13.3312 41.5277 13.7666 41.6385C13.6074 41.6848 13.4425 41.7084 13.2766 41.7085C13.1604 41.7224 13.0429 41.7224 12.9266 41.7085C13.0307 42.0949 13.2555 42.438 13.5682 42.6877C13.8808 42.9375 14.2651 43.0808 14.665 43.0969C14.0164 43.656 13.188 43.9626 12.3316 43.9602H11.8883C12.725 44.55 13.723 44.8677 14.7466 44.8702C15.4714 44.8462 16.1843 44.6789 16.8442 44.3781C17.504 44.0772 18.0978 43.6487 18.5913 43.1173C19.0847 42.5859 19.4681 41.962 19.7193 41.2817C19.9706 40.6014 20.0846 39.8781 20.055 39.1535V38.8969C20.4331 38.5909 20.7532 38.2194 21 37.8002Z" fill="white"/>
<path d="M58.3333 48.9993C62.8436 48.9993 66.5 45.343 66.5 40.8327C66.5 36.3224 62.8436 32.666 58.3333 32.666C53.823 32.666 50.1666 36.3224 50.1666 40.8327C50.1666 45.343 53.823 48.9993 58.3333 48.9993Z" fill="#462CEE"/>
<path d="M58.3334 36.5158C57.3363 36.5075 56.3672 36.8446 55.5905 37.4698C54.8138 38.0951 54.2775 38.9699 54.0727 39.9457C53.868 40.9215 54.0073 41.9382 54.4671 42.8229C54.9269 43.7076 55.6788 44.4059 56.595 44.7991C56.5748 44.4669 56.5983 44.1335 56.665 43.8074L57.225 41.4741C57.1297 41.2573 57.082 41.0226 57.085 40.7858C57.06 40.6545 57.0618 40.5195 57.0902 40.3889C57.1187 40.2584 57.1732 40.1349 57.2506 40.0259C57.3279 39.9169 57.4265 39.8247 57.5404 39.7548C57.6543 39.6849 57.7812 39.6388 57.9134 39.6191C57.9962 39.6185 58.0783 39.6356 58.154 39.6692C58.2298 39.7028 58.2975 39.7521 58.3527 39.8139C58.4079 39.8757 58.4493 39.9486 58.4741 40.0277C58.499 40.1067 58.5067 40.1902 58.4967 40.2724C58.4117 40.7918 58.2829 41.3031 58.1117 41.8008C58.086 41.9016 58.0844 42.007 58.1069 42.1086C58.1293 42.2102 58.1753 42.305 58.2411 42.3856C58.3069 42.4662 58.3907 42.5302 58.4858 42.5725C58.5808 42.6147 58.6845 42.6342 58.7884 42.6291C59.605 42.6291 60.1534 41.5791 60.1534 40.2958C60.1518 40.067 60.1018 39.8412 60.0068 39.6331C59.9117 39.425 59.7737 39.2394 59.6018 39.0884C59.4299 38.9375 59.2281 38.8246 59.0094 38.7572C58.7908 38.6898 58.5604 38.6695 58.3334 38.6974C58.0565 38.6863 57.7802 38.7317 57.5215 38.8308C57.2627 38.9299 57.0268 39.0806 56.8281 39.2738C56.6295 39.467 56.4722 39.6986 56.366 39.9546C56.2597 40.2105 56.2067 40.4854 56.21 40.7624C56.1947 41.0712 56.2945 41.3747 56.49 41.6141C56.5249 41.6431 56.5495 41.6827 56.56 41.7269C56.5705 41.7711 56.5664 41.8175 56.5484 41.8591L56.455 42.2091C56.4506 42.2326 56.4407 42.2547 56.4261 42.2737C56.4114 42.2926 56.3926 42.3078 56.3709 42.318C56.3493 42.3283 56.3256 42.3333 56.3017 42.3326C56.2778 42.3319 56.2544 42.3256 56.2334 42.3141C55.9363 42.159 55.6928 41.918 55.5346 41.6225C55.3765 41.327 55.311 40.9907 55.3467 40.6574C55.3672 40.2755 55.4642 39.9017 55.6319 39.5579C55.7995 39.2142 56.0344 38.9076 56.3227 38.6563C56.611 38.405 56.9468 38.2141 57.3102 38.0949C57.6736 37.9757 58.0573 37.9307 58.4384 37.9624C58.7818 37.9404 59.1261 37.9873 59.4511 38.1004C59.7761 38.2135 60.0752 38.3905 60.3307 38.621C60.5862 38.8515 60.793 39.1309 60.9389 39.4425C61.0847 39.7542 61.1667 40.0919 61.18 40.4358C61.18 42.1274 60.235 43.3991 58.8467 43.3991C58.6408 43.4042 58.437 43.3577 58.2536 43.264C58.0703 43.1703 57.9132 43.0322 57.7967 42.8624L57.4934 44.0291C57.3938 44.3552 57.2485 44.6655 57.0617 44.9508C57.6562 45.1375 58.284 45.1932 58.9021 45.1142C59.5202 45.0353 60.1138 44.8234 60.6422 44.4933C61.1707 44.1631 61.6214 43.7225 61.9633 43.2016C62.3053 42.6807 62.5305 42.092 62.6234 41.4759C62.7163 40.8598 62.6747 40.2308 62.5015 39.6323C62.3282 39.0338 62.0275 38.4798 61.6199 38.0086C61.2123 37.5373 60.7075 37.1598 60.1401 36.9022C59.5728 36.6445 58.9565 36.5127 58.3334 36.5158Z" fill="white"/>
</g>
<defs>
<clipPath id="clip0_1318_343">
<rect width="74.6667" height="70" fill="white"/>
</clipPath>
</defs>
</svg>
