<svg width="100" height="100" viewBox="0 0 100 100" fill="none" xmlns="http://www.w3.org/2000/svg">
<path d="M34.8917 64.6342C34.8917 65.811 34.1439 66.8898 32.8568 67.7969C30.7116 69.317 27.0708 70.3099 22.952 70.3099C18.8331 70.3099 15.1923 69.317 13.0471 67.7969C11.76 66.8898 11.0122 65.811 11.0122 64.6342C11.0122 61.4961 16.3692 58.9463 22.952 58.9463C29.5348 58.9463 34.8917 61.4961 34.8917 64.6342Z" stroke="#231F20" stroke-width="3" stroke-miterlimit="10" stroke-linecap="round" stroke-linejoin="round"/>
<path d="M34.8918 64.6348V70.9601C34.8918 74.0983 29.5348 76.6358 22.9398 76.6358C16.357 76.6358 11 74.0983 11 70.9601V64.6348" stroke="#231F20" stroke-width="3" stroke-miterlimit="10" stroke-linecap="round" stroke-linejoin="round"/>
<path d="M58.7711 45.4135C58.7711 46.5903 58.0233 47.6691 56.7362 48.5762C54.591 50.0963 50.9502 51.1015 46.8314 51.1015C42.7125 51.1015 39.0717 50.1085 36.9265 48.5762C35.6394 47.6691 34.8916 46.5903 34.8916 45.4135C34.8916 42.2753 40.2486 39.7256 46.8314 39.7256C53.4142 39.7256 58.7711 42.2753 58.7711 45.4135Z" stroke="#231F20" stroke-width="3" stroke-miterlimit="10" stroke-linecap="round" stroke-linejoin="round"/>
<path d="M58.7712 45.4131V51.7385C58.7712 54.8766 53.4142 57.4141 46.8191 57.4141C40.2363 57.4141 34.8794 54.8766 34.8794 51.7385V45.4131" stroke="#231F20" stroke-width="3" stroke-miterlimit="10" stroke-linecap="round" stroke-linejoin="round"/>
<path d="M58.7712 51.8242V58.1496C58.7712 61.2878 53.4142 63.8253 46.8191 63.8253C40.2363 63.8253 34.8794 61.2878 34.8794 58.1496V51.8242" stroke="#231F20" stroke-width="3" stroke-miterlimit="10" stroke-linecap="round" stroke-linejoin="round"/>
<path d="M58.7712 58.2109V64.5363C58.7712 67.6745 53.4142 70.212 46.8191 70.212C40.2363 70.212 34.8794 67.6745 34.8794 64.5363V58.2109" stroke="#231F20" stroke-width="3" stroke-miterlimit="10" stroke-linecap="round" stroke-linejoin="round"/>
<path d="M58.7712 64.6348V70.9601C58.7712 74.0983 53.4142 76.6358 46.8191 76.6358C40.2363 76.6358 34.8794 74.0983 34.8794 70.9601V64.6348" stroke="#231F20" stroke-width="3" stroke-miterlimit="10" stroke-linecap="round" stroke-linejoin="round"/>
<path d="M82.651 32.9829C82.651 34.1597 81.9032 35.2384 80.6161 36.1455C78.4709 37.6656 74.8301 38.6708 70.7112 38.6708C66.5924 38.6708 62.9516 37.6779 60.8064 36.1455C59.5193 35.2384 58.7715 34.1597 58.7715 32.9829C58.7715 29.8447 64.1284 27.2949 70.7112 27.2949C77.3063 27.2949 82.651 29.8447 82.651 32.9829Z" stroke="#231F20" stroke-width="3" stroke-miterlimit="10" stroke-linecap="round" stroke-linejoin="round"/>
<path d="M82.6506 32.9834V39.3088C82.6506 42.4469 77.2936 44.9844 70.6985 44.9844C64.1157 44.9844 58.7588 42.4469 58.7588 39.3088V32.9834" stroke="#231F20" stroke-width="3" stroke-miterlimit="10" stroke-linecap="round" stroke-linejoin="round"/>
<path d="M82.6506 39.4062V45.7316C82.6506 48.8698 77.2936 51.4073 70.6985 51.4073C64.1157 51.4073 58.7588 48.8698 58.7588 45.7316V39.4062" stroke="#231F20" stroke-width="3" stroke-miterlimit="10" stroke-linecap="round" stroke-linejoin="round"/>
<path d="M82.6506 45.793V52.1183C82.6506 55.2565 77.2936 57.794 70.6985 57.794C64.1157 57.794 58.7588 55.2565 58.7588 52.1183V45.793" stroke="#231F20" stroke-width="3" stroke-miterlimit="10" stroke-linecap="round" stroke-linejoin="round"/>
<path d="M82.6506 52.2168V58.5422C82.6506 61.6803 77.2936 64.2178 70.6985 64.2178C64.1157 64.2178 58.7588 61.6803 58.7588 58.5422V52.2168" stroke="#231F20" stroke-width="3" stroke-miterlimit="10" stroke-linecap="round" stroke-linejoin="round"/>
<path d="M82.6506 58.6035V64.9289C82.6506 68.0671 77.2936 70.6046 70.6985 70.6046C64.1157 70.6046 58.7588 68.0671 58.7588 64.9289V58.6035" stroke="#231F20" stroke-width="3" stroke-miterlimit="10" stroke-linecap="round" stroke-linejoin="round"/>
<path d="M82.6506 65.0146V71.34C82.6506 74.4782 77.2936 77.0157 70.6985 77.0157C64.1157 77.0157 58.7588 74.4782 58.7588 71.34V65.0146" stroke="#231F20" stroke-width="3" stroke-miterlimit="10" stroke-linecap="round" stroke-linejoin="round"/>
<path d="M16.9209 49.9246L33.5679 31.7698L46.8316 34.675L63.2702 19.1436" stroke="#00CCF5" stroke-width="3" stroke-miterlimit="10" stroke-linecap="round" stroke-linejoin="round"/>
<path d="M60.9287 16.8633L66.0282 21.8402L68.0754 15L60.9287 16.8633Z" stroke="#00CCF5" stroke-width="3" stroke-miterlimit="10" stroke-linecap="round" stroke-linejoin="round"/>
</svg>
