<svg width="90" height="90" viewBox="0 0 90 90" fill="none" xmlns="http://www.w3.org/2000/svg">
<path d="M11.25 13.7109C11.1097 13.7115 10.9708 13.6827 10.8422 13.6265C10.7166 13.5731 10.602 13.4967 10.5044 13.4013C10.4064 13.3034 10.3287 13.1872 10.2757 13.0593C10.2227 12.9315 10.1954 12.7944 10.1954 12.6559C10.1954 12.5175 10.2227 12.3804 10.2757 12.2525C10.3287 12.1246 10.4064 12.0084 10.5044 11.9106C10.6018 11.8151 10.7165 11.7389 10.8422 11.686C10.971 11.6303 11.1098 11.6016 11.2501 11.6016C11.3904 11.6016 11.5292 11.6303 11.6579 11.686C11.7835 11.739 11.8978 11.8151 11.9951 11.9106C12.0932 12.0083 12.1711 12.1244 12.2242 12.2524C12.2774 12.3803 12.3047 12.5174 12.3047 12.6559C12.3047 12.7944 12.2774 12.9316 12.2242 13.0595C12.1711 13.1874 12.0932 13.3035 11.9951 13.4013C11.8977 13.4967 11.7833 13.5731 11.6578 13.6265C11.5292 13.6826 11.3903 13.7114 11.25 13.7109ZM40.7813 13.7109H15.4688C15.189 13.7109 14.9208 13.5998 14.723 13.402C14.5252 13.2042 14.4141 12.936 14.4141 12.6562C14.4141 12.3765 14.5252 12.1083 14.723 11.9105C14.9208 11.7127 15.189 11.6016 15.4688 11.6016H40.7813C41.061 11.6016 41.3292 11.7127 41.527 11.9105C41.7248 12.1083 41.8359 12.3765 41.8359 12.6562C41.8359 12.936 41.7248 13.2042 41.527 13.402C41.3292 13.5998 41.061 13.7109 40.7813 13.7109ZM11.25 19.3359C11.0414 19.336 10.8375 19.2741 10.664 19.1582C10.4906 19.0423 10.3554 18.8776 10.2756 18.6849C10.1958 18.4922 10.1749 18.2801 10.2156 18.0755C10.2563 17.871 10.3568 17.683 10.5043 17.5356C10.7062 17.346 10.9727 17.2405 11.2497 17.2405C11.5266 17.2405 11.7931 17.346 11.995 17.5356C12.1423 17.6831 12.2426 17.8709 12.2832 18.0754C12.3238 18.2798 12.3029 18.4917 12.2232 18.6843C12.1435 18.8769 12.0085 19.0416 11.8353 19.1576C11.6621 19.2735 11.4585 19.3356 11.25 19.3359ZM40.7813 19.3359H15.4688C15.189 19.3359 14.9208 19.2248 14.723 19.027C14.5252 18.8292 14.4141 18.561 14.4141 18.2812C14.4141 18.0015 14.5252 17.7333 14.723 17.5355C14.9208 17.3377 15.189 17.2266 15.4688 17.2266H40.7813C41.061 17.2266 41.3292 17.3377 41.527 17.5355C41.7248 17.7333 41.8359 18.0015 41.8359 18.2812C41.8359 18.561 41.7248 18.8292 41.527 19.027C41.3292 19.2248 41.061 19.3359 40.7813 19.3359ZM11.25 24.9609C10.9704 24.9606 10.7024 24.8493 10.5046 24.6516C10.3069 24.4539 10.1957 24.1859 10.1953 23.9062C10.1947 23.7659 10.2235 23.627 10.2798 23.4984C10.3459 23.3385 10.4505 23.1975 10.5844 23.0878C10.7182 22.9781 10.8771 22.9032 11.0469 22.8698C11.2166 22.8363 11.392 22.8454 11.5575 22.8961C11.7229 22.9469 11.8732 23.0377 11.995 23.1606C12.0904 23.2582 12.1668 23.3728 12.2202 23.4984C12.2876 23.6585 12.3143 23.8328 12.2981 24.0058C12.2818 24.1787 12.223 24.3449 12.127 24.4897C12.031 24.6344 11.9007 24.7532 11.7477 24.8354C11.5947 24.9176 11.4237 24.9607 11.25 24.9609ZM40.7813 24.9609H15.4688C15.189 24.9609 14.9208 24.8498 14.723 24.652C14.5252 24.4542 14.4141 24.186 14.4141 23.9062C14.4141 23.6265 14.5252 23.3583 14.723 23.1605C14.9208 22.9627 15.189 22.8516 15.4688 22.8516H40.7813C41.061 22.8516 41.3292 22.9627 41.527 23.1605C41.7248 23.3583 41.8359 23.6265 41.8359 23.9062C41.8359 24.186 41.7248 24.4542 41.527 24.652C41.3292 24.8498 41.061 24.9609 40.7813 24.9609Z" fill="#B8B2FF"/>
<path d="M29.2923 31.9922H5.625C5.3453 31.9921 5.07708 31.881 4.87931 31.6832C4.68153 31.4854 4.57039 31.2172 4.57031 30.9375V5.625C4.57039 5.3453 4.68153 5.07708 4.87931 4.87931C5.07708 4.68153 5.3453 4.57039 5.625 4.57031H47.8125C48.0922 4.57039 48.3604 4.68153 48.5582 4.87931C48.756 5.07708 48.8671 5.3453 48.8672 5.625V24.1033C48.8672 24.383 48.7561 24.6513 48.5583 24.8491C48.3605 25.0469 48.0922 25.158 47.8125 25.158C47.5328 25.158 47.2645 25.0469 47.0667 24.8491C46.8689 24.6513 46.7578 24.383 46.7578 24.1033V6.67969H6.67969V29.8828H29.2923C29.572 29.8828 29.8403 29.9939 30.0381 30.1917C30.2359 30.3895 30.347 30.6578 30.347 30.9375C30.347 31.2172 30.2359 31.4855 30.0381 31.6833C29.8403 31.8811 29.572 31.9922 29.2923 31.9922ZM68.9062 27.7734C67.0289 27.7734 65.1937 27.2167 63.6327 26.1737C62.0717 25.1307 60.8551 23.6482 60.1366 21.9138C59.4182 20.1793 59.2302 18.2707 59.5965 16.4294C59.9627 14.5881 60.8668 12.8968 62.1943 11.5693C63.5218 10.2418 65.2131 9.33771 67.0544 8.97145C68.8957 8.60519 70.8043 8.79317 72.5388 9.51161C74.2732 10.2301 75.7557 11.4467 76.7987 13.0077C77.8417 14.5687 78.3984 16.4039 78.3984 18.2812C78.3957 20.7979 77.3947 23.2107 75.6152 24.9902C73.8357 26.7697 71.4229 27.7707 68.9062 27.7734ZM68.9062 10.8984C67.4461 10.8984 66.0187 11.3314 64.8046 12.1427C63.5905 12.9539 62.6442 14.1069 62.0854 15.456C61.5266 16.805 61.3804 18.2894 61.6653 19.7216C61.9502 21.1537 62.6533 22.4692 63.6858 23.5017C64.7183 24.5342 66.0338 25.2373 67.4659 25.5222C68.8981 25.8071 70.3825 25.6609 71.7315 25.1021C73.0806 24.5433 74.2336 23.597 75.0448 22.3829C75.8561 21.1688 76.2891 19.7414 76.2891 18.2812C76.2869 16.3239 75.5084 14.4473 74.1243 13.0632C72.7402 11.6791 70.8636 10.9006 68.9062 10.8984Z" fill="#B8B2FF"/>
<path d="M71.7188 19.3359H66.0938C65.814 19.3359 65.5458 19.2248 65.348 19.027C65.1502 18.8292 65.0391 18.561 65.0391 18.2812C65.0391 18.0015 65.1502 17.7333 65.348 17.5355C65.5458 17.3377 65.814 17.2266 66.0938 17.2266H71.7188C71.9985 17.2266 72.2667 17.3377 72.4645 17.5355C72.6623 17.7333 72.7734 18.0015 72.7734 18.2812C72.7734 18.561 72.6623 18.8292 72.4645 19.027C72.2667 19.2248 71.9985 19.3359 71.7188 19.3359Z" fill="#B8B2FF"/>
<path d="M68.9063 22.1484C68.6266 22.1484 68.3583 22.0372 68.1606 21.8394C67.9628 21.6417 67.8516 21.3734 67.8516 21.0937V15.4687C67.8516 15.189 67.9627 14.9208 68.1605 14.723C68.3583 14.5252 68.6265 14.4141 68.9063 14.4141C69.186 14.4141 69.4542 14.5252 69.652 14.723C69.8498 14.9208 69.9609 15.189 69.9609 15.4687V21.0937C69.9609 21.3734 69.8497 21.6417 69.652 21.8394C69.4542 22.0372 69.186 22.1484 68.9063 22.1484ZM47.8125 72.7734C47.6722 72.774 47.5333 72.7452 47.4047 72.689C47.2764 72.6406 47.1608 72.5636 47.0669 72.4638C46.9714 72.3665 46.8953 72.2521 46.8423 72.1266C46.7866 71.9979 46.7579 71.859 46.7579 71.7187C46.7579 71.5784 46.7866 71.4396 46.8423 71.3109C46.8953 71.1851 46.9714 71.0705 47.0669 70.9731C47.2155 70.8259 47.4044 70.7261 47.6096 70.6861C47.8149 70.6462 48.0275 70.6679 48.2204 70.7485C48.346 70.8015 48.4603 70.8776 48.5576 70.9731C48.7048 71.1206 48.8051 71.3084 48.8457 71.5129C48.8863 71.7173 48.8655 71.9292 48.7857 72.1218C48.706 72.3144 48.5711 72.4791 48.3978 72.5951C48.2246 72.7111 48.021 72.7731 47.8125 72.7734ZM77.3438 72.7734H52.0313C51.7515 72.7734 51.4833 72.6623 51.2855 72.4645C51.0877 72.2667 50.9766 71.9985 50.9766 71.7187C50.9766 71.439 51.0877 71.1708 51.2855 70.973C51.4833 70.7752 51.7515 70.6641 52.0313 70.6641H77.3438C77.6235 70.6641 77.8917 70.7752 78.0895 70.973C78.2873 71.1708 78.3984 71.439 78.3984 71.7187C78.3984 71.9985 78.2873 72.2667 78.0895 72.4645C77.8917 72.6623 77.6235 72.7734 77.3438 72.7734ZM47.8125 67.1484C47.674 67.1484 47.5368 67.121 47.4088 67.0678C47.2809 67.0147 47.1647 66.9369 47.0668 66.8388C46.9714 66.7415 46.8952 66.6271 46.8423 66.5016C46.7861 66.373 46.7574 66.2341 46.7578 66.0937C46.7587 65.9536 46.7874 65.8149 46.8423 65.6859C46.8952 65.5602 46.9714 65.4456 47.0668 65.3481C47.2154 65.201 47.4043 65.1011 47.6096 65.0612C47.8149 65.0212 48.0274 65.0429 48.2204 65.1236C48.3459 65.1765 48.4603 65.2527 48.5575 65.3481C48.6556 65.4459 48.7335 65.5621 48.7866 65.6901C48.8397 65.818 48.8671 65.9552 48.8672 66.0937C48.8676 66.2341 48.8389 66.373 48.7827 66.5016C48.7305 66.6276 48.654 66.7422 48.5575 66.8387C48.461 66.9352 48.3465 67.0117 48.2204 67.0639C48.0913 67.1188 47.9527 67.1475 47.8125 67.1484ZM77.3438 67.1484H52.0313C51.7515 67.1484 51.4833 67.0373 51.2855 66.8395C51.0877 66.6417 50.9766 66.3735 50.9766 66.0937C50.9766 65.814 51.0877 65.5458 51.2855 65.348C51.4833 65.1502 51.7515 65.0391 52.0313 65.0391H77.3438C77.6235 65.0391 77.8917 65.1502 78.0895 65.348C78.2873 65.5458 78.3984 65.814 78.3984 66.0937C78.3984 66.3735 78.2873 66.6417 78.0895 66.8395C77.8917 67.0373 77.6235 67.1484 77.3438 67.1484Z" fill="#B8B2FF"/>
<path d="M84.375 85.4297H42.1875C41.9078 85.4296 41.6396 85.3185 41.4418 85.1207C41.244 84.9229 41.1329 84.6547 41.1328 84.375V65.8967C41.1328 65.617 41.2439 65.3487 41.4417 65.1509C41.6395 64.9531 41.9078 64.842 42.1875 64.842C42.4672 64.842 42.7355 64.9531 42.9333 65.1509C43.1311 65.3487 43.2422 65.617 43.2422 65.8967V83.3203H83.3203V60.1172H60.7077C60.428 60.1172 60.1597 60.0061 59.9619 59.8083C59.7641 59.6105 59.653 59.3422 59.653 59.0625C59.653 58.7828 59.7641 58.5145 59.9619 58.3167C60.1597 58.1189 60.428 58.0078 60.7077 58.0078H84.375C84.6547 58.0079 84.9229 58.119 85.1207 58.3168C85.3185 58.5146 85.4296 58.7828 85.4297 59.0625V84.375C85.4296 84.6547 85.3185 84.9229 85.1207 85.1207C84.9229 85.3185 84.6547 85.4296 84.375 85.4297ZM21.0938 79.8047C19.2164 79.8047 17.3812 79.248 15.8202 78.205C14.2592 77.1619 13.0426 75.6795 12.3241 73.945C11.6057 72.2105 11.4177 70.302 11.784 68.4607C12.1502 66.6194 13.0543 64.928 14.3818 63.6005C15.7093 62.273 17.4006 61.369 19.2419 61.0027C21.0832 60.6364 22.9918 60.8244 24.7263 61.5429C26.4607 62.2613 27.9432 63.4779 28.9862 65.0389C30.0292 66.5999 30.5859 68.4351 30.5859 70.3125C30.5832 72.8291 29.5822 75.2419 27.8027 77.0215C26.0232 78.801 23.6104 79.8019 21.0938 79.8047ZM21.0938 62.9297C19.6336 62.9297 18.2062 63.3627 16.9921 64.1739C15.778 64.9851 14.8317 66.1382 14.2729 67.4872C13.7141 68.8363 13.5679 70.3207 13.8528 71.7528C14.1377 73.1849 14.8408 74.5004 15.8733 75.5329C16.9058 76.5654 18.2213 77.2686 19.6534 77.5535C21.0856 77.8383 22.57 77.6921 23.919 77.1333C25.2681 76.5745 26.4211 75.6283 27.2323 74.4142C28.0436 73.2001 28.4766 71.7727 28.4766 70.3125C28.4744 68.3551 27.6959 66.4785 26.3118 65.0944C24.9277 63.7103 23.0511 62.9318 21.0938 62.9297Z" fill="#B8B2FF"/>
<path d="M23.9062 71.3672H18.2812C18.0015 71.3672 17.7333 71.2561 17.5355 71.0583C17.3377 70.8605 17.2266 70.5922 17.2266 70.3125C17.2266 70.0328 17.3377 69.7645 17.5355 69.5667C17.7333 69.3689 18.0015 69.2578 18.2812 69.2578H23.9062C24.186 69.2578 24.4542 69.3689 24.652 69.5667C24.8498 69.7645 24.9609 70.0328 24.9609 70.3125C24.9609 70.5922 24.8498 70.8605 24.652 71.0583C24.4542 71.2561 24.186 71.3672 23.9062 71.3672ZM45 62.9297C41.4538 62.9297 37.9873 61.8781 35.0388 59.908C32.0903 57.9379 29.7922 55.1376 28.4351 51.8614C27.0781 48.5852 26.723 44.9801 27.4148 41.5021C28.1066 38.0241 29.8143 34.8293 32.3218 32.3218C34.8293 29.8143 38.0241 28.1067 41.5021 27.4148C44.9801 26.723 48.5852 27.0781 51.8614 28.4351C55.1376 29.7922 57.9379 32.0903 59.908 35.0388C61.8781 37.9873 62.9297 41.4539 62.9297 45C62.9243 49.7536 61.0335 54.3109 57.6722 57.6722C54.3109 61.0335 49.7536 62.9243 45 62.9297ZM45 29.1797C41.871 29.1797 38.8123 30.1075 36.2107 31.8459C33.6091 33.5843 31.5813 36.0551 30.3839 38.9458C29.1865 41.8366 28.8732 45.0176 29.4837 48.0864C30.0941 51.1552 31.6008 53.9741 33.8133 56.1867C36.0259 58.3992 38.8448 59.9059 41.9136 60.5163C44.9824 61.1268 48.1634 60.8135 51.0542 59.6161C53.945 58.4187 56.4158 56.3909 58.1541 53.7893C59.8925 51.1877 60.8203 48.129 60.8203 45C60.8155 40.8057 59.1472 36.7845 56.1813 33.8187C53.2155 30.8528 49.1943 29.1845 45 29.1797Z" fill="#B8B2FF"/>
<path d="M45 50.2737C44.7203 50.2736 44.4521 50.1625 44.2543 49.9647C44.0566 49.767 43.9454 49.4987 43.9454 49.219V47.8128C43.9454 47.5331 44.0566 47.2649 44.2543 47.0671L47.2371 44.0843C47.532 43.7911 47.7657 43.4424 47.9248 43.0583C48.0839 42.6742 48.1653 42.2623 48.1641 41.8465V40.7815C48.1641 39.9424 47.8307 39.1376 47.2374 38.5442C46.644 37.9508 45.8392 37.6175 45 37.6175C44.1609 37.6175 43.3561 37.9508 42.7627 38.5442C42.1693 39.1376 41.836 39.9424 41.836 40.7815C41.836 41.0613 41.7249 41.3295 41.5271 41.5273C41.3293 41.7251 41.061 41.8362 40.7813 41.8362C40.5016 41.8362 40.2333 41.7251 40.0355 41.5273C39.8377 41.3295 39.7266 41.0613 39.7266 40.7815C39.7266 39.3829 40.2822 38.0416 41.2712 37.0526C42.2601 36.0637 43.6014 35.5081 45 35.5081C46.3986 35.5081 47.74 36.0637 48.7289 37.0526C49.7179 38.0416 50.2735 39.3829 50.2735 40.7815V41.8465C50.2753 42.5394 50.1397 43.2257 49.8745 43.8658C49.6093 44.506 49.2198 45.0871 48.7285 45.5757L46.0547 48.2495V49.219C46.0547 49.4987 45.9435 49.767 45.7457 49.9647C45.548 50.1625 45.2797 50.2736 45 50.2737ZM45 54.4925C44.7204 54.4921 44.4524 54.3809 44.2547 54.1831C44.057 53.9854 43.9457 53.7174 43.9454 53.4378C43.9448 53.2974 43.9735 53.1585 44.0298 53.03C44.0959 52.8701 44.2006 52.729 44.3344 52.6193C44.4682 52.5096 44.6271 52.4347 44.7969 52.4013C44.9667 52.3679 45.1421 52.3769 45.3075 52.4277C45.4729 52.4784 45.6232 52.5693 45.7451 52.6921C45.8405 52.7898 45.9168 52.9043 45.9703 53.03C46.0265 53.1585 46.0553 53.2974 46.0547 53.4378C46.054 53.7173 45.9427 53.9852 45.7451 54.1828C45.5474 54.3804 45.2795 54.4918 45 54.4925ZM72.7454 26.8454C72.6052 26.8445 72.4665 26.8158 72.3375 26.7609C72.209 26.7131 72.0933 26.636 71.9997 26.5357C71.9043 26.4385 71.8281 26.3241 71.7752 26.1985C71.7189 26.07 71.6901 25.9311 71.6907 25.7907C71.6916 25.6505 71.7203 25.5119 71.7752 25.3829C71.8415 25.2232 71.9462 25.0823 72.0801 24.9728C72.214 24.8632 72.3728 24.7885 72.5425 24.7551C72.7123 24.7218 72.8876 24.7308 73.0529 24.7816C73.2183 24.8323 73.3686 24.923 73.4904 25.0458C73.5858 25.1432 73.6622 25.2575 73.7156 25.3829C73.7705 25.5119 73.7992 25.6505 73.8001 25.7907C73.8007 25.9311 73.7719 26.07 73.7156 26.1985C73.6622 26.324 73.5858 26.4383 73.4904 26.5357C73.3927 26.6337 73.2766 26.7116 73.1487 26.7647C73.0209 26.8178 72.8838 26.8452 72.7454 26.8454ZM76.936 55.9832C76.8027 55.9429 76.6788 55.8766 76.5713 55.7882C76.4637 55.6999 76.3747 55.5911 76.3094 55.4682C76.244 55.3453 76.2036 55.2107 76.1905 55.0721C76.1774 54.9335 76.1917 54.7937 76.2328 54.6607C76.3206 54.3967 76.5076 54.1772 76.7543 54.0487C77.001 53.9201 77.288 53.8926 77.5546 53.972C77.6878 54.0122 77.8118 54.0784 77.9193 54.1668C78.0268 54.2551 78.1158 54.3638 78.1811 54.4866C78.2465 54.6095 78.2869 54.744 78.3 54.8826C78.3132 55.0211 78.2988 55.1608 78.2578 55.2938C78.1895 55.5091 78.0547 55.6973 77.8727 55.8312C77.6907 55.965 77.4709 56.0377 77.245 56.0388C77.1392 56.042 77.034 56.0231 76.936 55.9832ZM78.0889 51.7782C77.8125 51.7285 77.5665 51.5727 77.4036 51.344C77.2406 51.1153 77.1736 50.832 77.2168 50.5546C77.2407 50.4178 77.2913 50.2872 77.3658 50.17C77.4403 50.0529 77.5371 49.9516 77.6507 49.872C77.7644 49.7923 77.8926 49.7358 78.0282 49.7058C78.1637 49.6758 78.3038 49.6727 78.4404 49.6969C78.5772 49.7207 78.708 49.7712 78.8252 49.8456C78.9424 49.92 79.0438 50.0168 79.1235 50.1305C79.2032 50.2442 79.2596 50.3725 79.2896 50.5081C79.3195 50.6437 79.3224 50.7839 79.298 50.9205C79.2548 51.1649 79.1268 51.3862 78.9365 51.5456C78.7463 51.7049 78.5059 51.7921 78.2578 51.7919C78.2011 51.7942 78.1444 51.7895 78.0889 51.7782ZM78.6794 47.4468C78.5405 47.4427 78.4038 47.4108 78.2773 47.3532C78.1509 47.2956 78.0372 47.2133 77.9429 47.1112C77.8487 47.0091 77.7757 46.8892 77.7284 46.7585C77.6811 46.6279 77.6603 46.4891 77.6672 46.3503C77.6827 46.0721 77.8058 45.8109 78.0104 45.6218C78.2151 45.4328 78.4853 45.3308 78.7638 45.3375C79.0429 45.3506 79.3057 45.473 79.4952 45.6784C79.6847 45.8837 79.7858 46.1554 79.7766 46.4347C79.7658 46.707 79.6499 46.9646 79.4532 47.1533C79.2566 47.342 78.9945 47.4472 78.7219 47.4468L78.6794 47.4468ZM77.5684 42.1171C77.5448 41.8393 77.6322 41.5635 77.8114 41.35C77.9907 41.1365 78.2473 41.0028 78.5249 40.978C78.8037 40.9566 79.0798 41.0444 79.295 41.2229C79.5101 41.4014 79.6474 41.6566 79.6778 41.9345C79.7011 42.2158 79.6121 42.4949 79.4304 42.7109C79.2486 42.9269 78.9888 43.0622 78.7076 43.0873H78.6231C78.3576 43.0875 78.1017 42.9879 77.9063 42.8081C77.7109 42.6284 77.5904 42.3817 77.5684 42.1171ZM76.936 37.9409C76.9055 37.806 76.9021 37.6665 76.926 37.5303C76.9498 37.3941 77.0005 37.264 77.0751 37.1476C77.1496 37.0311 77.2465 36.9306 77.3602 36.8519C77.4739 36.7733 77.6021 36.7179 77.7373 36.6891C78.0094 36.6309 78.2935 36.6825 78.5279 36.8325C78.7623 36.9825 78.928 37.219 78.989 37.4905C79.0198 37.6254 79.0234 37.7651 78.9996 37.9014C78.9758 38.0377 78.9251 38.1679 78.8504 38.2844C78.7758 38.401 78.6787 38.5014 78.5648 38.58C78.4509 38.6586 78.3225 38.7138 78.187 38.7422C78.1144 38.7646 78.0384 38.7741 77.9625 38.7703C77.7218 38.7723 77.488 38.6907 77.3007 38.5394C77.1135 38.3882 76.9846 38.1766 76.936 37.9409ZM75.7543 33.8904C75.7072 33.7602 75.6862 33.622 75.6925 33.4836C75.6989 33.3453 75.7324 33.2096 75.7912 33.0843C75.85 32.9589 75.9329 32.8463 76.0352 32.753C76.1375 32.6597 76.2571 32.5875 76.3873 32.5404C76.5175 32.4933 76.6558 32.4723 76.7941 32.4786C76.9324 32.4849 77.0681 32.5184 77.1935 32.5772C77.3189 32.636 77.4314 32.7189 77.5247 32.8212C77.6181 32.9235 77.6903 33.0432 77.7373 33.1735C77.7845 33.3037 77.8056 33.4419 77.7993 33.5802C77.793 33.7186 77.7595 33.8543 77.7007 33.9797C77.6419 34.1051 77.559 34.2177 77.4566 34.311C77.3543 34.4043 77.2345 34.4765 77.1042 34.5235C76.9868 34.5636 76.8631 34.5827 76.7389 34.5797C76.5243 34.5782 76.3152 34.5114 76.1393 34.3883C75.9634 34.2652 75.8292 34.0916 75.7543 33.8904ZM74.0672 30.0095C73.9385 29.7614 73.9136 29.4724 73.9979 29.206C74.0822 28.9396 74.2689 28.7176 74.5169 28.5888C74.7657 28.4636 75.0535 28.4406 75.3189 28.5248C75.5844 28.6089 75.8064 28.7935 75.9375 29.0392C76.063 29.2901 76.0861 29.5798 76.0021 29.8474C75.918 30.115 75.7334 30.3395 75.4871 30.4736C75.3328 30.5455 75.165 30.5839 74.9948 30.5862C74.8018 30.5857 74.6128 30.5315 74.449 30.4297C74.2851 30.3278 74.1529 30.1823 74.0672 30.0095ZM75.6704 60.1175C75.5143 60.1178 75.36 60.0834 75.2187 60.0167C75.0775 59.9501 74.9528 59.8528 74.8538 59.7321C74.7547 59.6114 74.6837 59.4701 74.6459 59.3186C74.6082 59.1671 74.6045 59.009 74.6353 58.8559C74.6661 58.7028 74.7305 58.5585 74.824 58.4333C74.9174 58.3082 75.0374 58.2053 75.1755 58.1323C75.3135 58.0592 75.466 58.0178 75.6221 58.0109C75.7781 58.004 75.9337 58.0319 76.0776 58.0926C76.2034 58.1453 76.3181 58.2215 76.4154 58.3171C76.5135 58.4149 76.5914 58.5311 76.6445 58.6591C76.6977 58.7871 76.7251 58.9242 76.7251 59.0628C76.7256 59.2031 76.6968 59.342 76.6407 59.4706C76.5885 59.5968 76.5119 59.7114 76.4152 59.8079C76.3186 59.9044 76.2039 59.9809 76.0776 60.033C75.9493 60.0892 75.8106 60.118 75.6704 60.1175ZM14.3296 31.9925C14.1911 31.9924 14.0539 31.965 13.926 31.9119C13.798 31.8587 13.6818 31.7809 13.5839 31.6828C13.4888 31.5854 13.4126 31.471 13.3594 31.3456C13.3033 31.217 13.2745 31.0781 13.275 30.9378C13.2748 30.764 13.3178 30.5928 13.3999 30.4397C13.4821 30.2865 13.6008 30.156 13.7457 30.06C13.8905 29.9639 14.0569 29.9051 14.2299 29.889C14.403 29.8729 14.5774 29.8999 14.7375 29.9676C14.863 30.0205 14.9774 30.0967 15.0746 30.1921C15.1727 30.2899 15.2506 30.4061 15.3037 30.5341C15.3569 30.662 15.3843 30.7992 15.3843 30.9378C15.3848 31.0781 15.356 31.217 15.2999 31.3456C15.2467 31.4711 15.1703 31.5855 15.0747 31.6827C14.9769 31.7808 14.8608 31.8586 14.733 31.9118C14.6051 31.9649 14.4681 31.9923 14.3296 31.9925ZM13.5839 59.9485C13.464 59.6966 13.4484 59.4074 13.5406 59.1441C13.6328 58.8807 13.8253 58.6644 14.0763 58.5423C14.2017 58.4824 14.3378 58.4481 14.4766 58.4411C14.6154 58.4342 14.7542 58.4549 14.885 58.5019C15.0158 58.549 15.1359 58.6215 15.2385 58.7153C15.341 58.8091 15.424 58.9223 15.4825 59.0484C15.6027 59.3003 15.6184 59.5895 15.5262 59.853C15.434 60.1164 15.2413 60.3327 14.9902 60.4546C14.8446 60.5211 14.6861 60.5548 14.526 60.5535C14.3278 60.5523 14.134 60.4948 13.9672 60.3877C13.8004 60.2806 13.6675 60.1283 13.5839 59.9485ZM11.9532 55.9268C11.9092 55.7948 11.8918 55.6554 11.902 55.5166C11.9121 55.3778 11.9497 55.2424 12.0124 55.1182C12.0752 54.994 12.1619 54.8834 12.2676 54.7929C12.3732 54.7023 12.4958 54.6336 12.6282 54.5906C12.7592 54.5469 12.8977 54.5298 13.0354 54.5401C13.1732 54.5505 13.3075 54.5882 13.4306 54.651C13.5536 54.7139 13.6629 54.8006 13.7521 54.9061C13.8412 55.0116 13.9085 55.1338 13.95 55.2656C14.0364 55.5306 14.0156 55.8189 13.892 56.0687C13.7684 56.3185 13.5518 56.5099 13.2887 56.6018C13.1785 56.6296 13.0653 56.6437 12.9516 56.6437C12.7311 56.6435 12.5163 56.5742 12.3373 56.4456C12.1582 56.317 12.0239 56.1356 11.9532 55.9268ZM10.8422 51.7218C10.789 51.4478 10.8464 51.1639 11.0018 50.9321C11.1572 50.7003 11.398 50.5394 11.6717 50.4845C11.9472 50.433 12.2319 50.4909 12.4656 50.6457C12.6992 50.8005 12.8634 51.0402 12.9234 51.314C12.9737 51.5897 12.9134 51.8742 12.7554 52.1058C12.5975 52.3374 12.3547 52.4974 12.0796 52.5513C12.0151 52.5678 11.949 52.5772 11.8825 52.5794C11.6368 52.5784 11.399 52.4925 11.2094 52.3362C11.0198 52.1799 10.8901 51.9628 10.8422 51.7218ZM10.2799 47.4186C10.2703 47.2801 10.2881 47.141 10.3325 47.0094C10.3768 46.8778 10.4466 46.7563 10.5381 46.6517C10.6295 46.5472 10.7407 46.4618 10.8653 46.4004C10.9898 46.339 11.1253 46.3028 11.2638 46.2939C11.4024 46.2843 11.5415 46.3021 11.6732 46.3465C11.8048 46.3908 11.9264 46.4606 12.031 46.5521C12.1355 46.6435 12.221 46.7547 12.2825 46.8792C12.344 47.0038 12.3803 47.1392 12.3892 47.2779C12.4032 47.5565 12.3083 47.8297 12.1245 48.0397C11.9408 48.2497 11.6826 48.3801 11.4046 48.4033H11.3346C11.0668 48.4029 10.8092 48.3011 10.6135 48.1185C10.4178 47.9358 10.2986 47.6857 10.2799 47.4186ZM11.25 44.1845C11.1111 44.1785 10.9747 44.1448 10.8489 44.0855C10.7231 44.0261 10.6105 43.9422 10.5175 43.8388C10.4245 43.7353 10.3531 43.6144 10.3075 43.483C10.2618 43.3516 10.2428 43.2124 10.2516 43.0736C10.2588 42.9351 10.2932 42.7994 10.353 42.6742C10.4127 42.549 10.4965 42.4368 10.5996 42.3441C10.7028 42.2513 10.8232 42.1798 10.954 42.1337C11.0848 42.0876 11.2234 42.0677 11.3619 42.0752C11.6402 42.0942 11.9001 42.2208 12.0866 42.4282C12.2731 42.6356 12.3715 42.9074 12.361 43.1861C12.3426 43.4545 12.2239 43.7062 12.0285 43.8912C11.8331 44.0762 11.5753 44.1809 11.3063 44.1845H11.25ZM11.6016 39.9939C11.4657 39.9692 11.3361 39.9179 11.2201 39.843C11.1041 39.7681 11.004 39.671 10.9256 39.5573C10.8472 39.4436 10.792 39.3156 10.7632 39.1806C10.7344 39.0455 10.7325 38.9061 10.7577 38.7703V38.7566C10.809 38.4829 10.9664 38.2407 11.1957 38.0826C11.4249 37.9245 11.7073 37.8635 11.9813 37.9128C12.1179 37.9357 12.2485 37.9859 12.3654 38.0603C12.4823 38.1346 12.583 38.2317 12.6617 38.3458C12.7403 38.4599 12.7953 38.5885 12.8232 38.7242C12.8512 38.8599 12.8516 38.9998 12.8245 39.1357C12.7815 39.3802 12.6536 39.6018 12.4633 39.7613C12.273 39.9208 12.0325 40.0081 11.7842 40.0077C11.7279 40.0077 11.6716 39.9939 11.6016 39.9939ZM12.4874 35.8734C12.2216 35.7882 12.0001 35.6016 11.871 35.3542C11.7419 35.1067 11.7157 34.8183 11.798 34.5516C11.8389 34.4191 11.9057 34.2961 11.9944 34.1896C12.0832 34.0831 12.1922 33.9953 12.3151 33.9311C12.438 33.867 12.5724 33.8279 12.7105 33.8161C12.8486 33.8043 12.9877 33.8199 13.1198 33.8622C13.2532 33.9017 13.3773 33.9677 13.4847 34.0561C13.5921 34.1446 13.6806 34.2538 13.7449 34.3772C13.8093 34.5006 13.8481 34.6357 13.8591 34.7744C13.8702 34.9131 13.8532 35.0526 13.8092 35.1847C13.7416 35.3965 13.6085 35.5815 13.429 35.7129C13.2496 35.8443 13.0331 35.9154 12.8107 35.9159C12.7016 35.9156 12.5929 35.9013 12.4874 35.8734ZM16.5935 64.2373C16.4532 64.2379 16.3143 64.2092 16.1857 64.1529C16.0594 64.101 15.9447 64.0245 15.8482 63.928C15.7517 63.8315 15.6752 63.7168 15.6233 63.5905C15.5671 63.462 15.5383 63.3231 15.5389 63.1827C15.5397 63.0425 15.5684 62.9039 15.6233 62.7749C15.6765 62.6493 15.7529 62.5349 15.8485 62.4376C15.9969 62.2905 16.1856 62.1905 16.3908 62.1504C16.596 62.1104 16.8084 62.1319 17.0013 62.2124C17.1274 62.2646 17.242 62.3412 17.3385 62.4376C17.435 62.5341 17.5115 62.6487 17.5637 62.7748C17.6312 62.9349 17.6581 63.1092 17.6419 63.2822C17.6257 63.4552 17.5669 63.6215 17.4709 63.7663C17.3748 63.9111 17.2444 64.0299 17.0913 64.1121C16.9382 64.1942 16.7673 64.2373 16.5935 64.2373ZM61.0167 16.3548C60.8081 16.3549 60.6041 16.2931 60.4306 16.1772C60.2571 16.0613 60.1219 15.8965 60.0422 15.7038C59.9624 15.511 59.9416 15.2988 59.9825 15.0942C60.0233 14.8896 60.124 14.7018 60.2717 14.5544C60.3691 14.4592 60.4835 14.3831 60.6089 14.3299C60.7527 14.2696 60.9081 14.2419 61.0639 14.2489C61.2197 14.256 61.372 14.2975 61.5098 14.3706C61.6476 14.4436 61.7674 14.5463 61.8607 14.6713C61.954 14.7963 62.0183 14.9405 62.0491 15.0933C62.0799 15.2462 62.0764 15.404 62.0387 15.5554C62.0011 15.7068 61.9304 15.8479 61.8316 15.9686C61.7328 16.0892 61.6085 16.1865 61.4676 16.2533C61.3266 16.3201 61.1727 16.3548 61.0167 16.3548ZM56.4464 14.3718C56.316 14.3232 56.1965 14.2493 56.0948 14.1543C55.993 14.0594 55.911 13.9453 55.8536 13.8186C55.7961 13.6918 55.7642 13.555 55.7598 13.4159C55.7553 13.2768 55.7784 13.1382 55.8278 13.0081C55.9272 12.7456 56.1266 12.5331 56.3823 12.4172C56.6379 12.3013 56.9291 12.2913 57.1921 12.3894C57.4523 12.4911 57.6617 12.6915 57.7749 12.9469C57.8881 13.2023 57.8958 13.4921 57.7964 13.7531C57.7225 13.9537 57.5882 14.1264 57.4119 14.2474C57.2356 14.3683 57.0261 14.4315 56.8124 14.4281C56.6881 14.4302 56.5643 14.4112 56.4464 14.3718ZM52.1576 13.0925C51.8861 13.0316 51.6495 12.8659 51.4995 12.6315C51.3494 12.3971 51.2979 12.1129 51.3563 11.8408C51.3859 11.7046 51.4423 11.5756 51.5221 11.4614C51.6019 11.3472 51.7037 11.2499 51.8214 11.1753C51.9391 11.1007 52.0705 11.0502 52.2079 11.0268C52.3453 11.0033 52.486 11.0074 52.6218 11.0388C52.8918 11.1024 53.1265 11.2686 53.2761 11.5023C53.4257 11.7359 53.4784 12.0187 53.4231 12.2906C53.3694 12.5263 53.2372 12.7367 53.0482 12.8874C52.8592 13.0381 52.6246 13.1202 52.3828 13.12C52.3072 13.1168 52.2318 13.1076 52.1576 13.0925ZM47.8125 12.4313C47.6385 12.4321 47.467 12.3896 47.3134 12.3076C47.1599 12.2257 47.0291 12.1068 46.9329 11.9618C46.8367 11.8167 46.778 11.6501 46.7622 11.4767C46.7464 11.3034 46.7739 11.1289 46.8423 10.9688C46.9086 10.8091 47.0134 10.6682 47.1472 10.5586C47.2811 10.4491 47.44 10.3744 47.6097 10.341C47.7794 10.3076 47.9547 10.3167 48.1201 10.3674C48.2854 10.4181 48.4357 10.5089 48.5576 10.6317C48.7047 10.7792 48.8049 10.967 48.8455 11.1713C48.886 11.3757 48.8651 11.5875 48.7854 11.78C48.7057 11.9726 48.5708 12.1371 48.3977 12.2531C48.2245 12.369 48.0209 12.431 47.8125 12.4313ZM42.1875 79.6779C42.0474 79.6771 41.9087 79.6484 41.7797 79.5935C41.6533 79.5418 41.5385 79.4655 41.4419 79.3689C41.3453 79.2724 41.269 79.1575 41.2174 79.0311C41.1617 78.9024 41.1329 78.7636 41.1329 78.6233C41.1329 78.483 41.1617 78.3441 41.2174 78.2154C41.2703 78.0899 41.3465 77.9755 41.4419 77.8782C41.5395 77.7828 41.6541 77.7065 41.7797 77.653C41.9398 77.5857 42.1141 77.5589 42.287 77.5752C42.46 77.5915 42.6262 77.6502 42.771 77.7463C42.9157 77.8423 43.0345 77.9726 43.1167 78.1256C43.1989 78.2786 43.242 78.4496 43.2422 78.6233C43.2428 78.7636 43.214 78.9025 43.1578 79.0311C43.1043 79.1567 43.028 79.2713 42.9326 79.3689C42.7349 79.5665 42.467 79.6776 42.1875 79.6779ZM37.1949 78.9185C37.0588 78.8888 36.9299 78.8324 36.8158 78.7525C36.7016 78.6726 36.6045 78.5709 36.5299 78.4532C36.4554 78.3355 36.4049 78.2041 36.3815 78.0668C36.3582 77.9294 36.3623 77.7888 36.3936 77.653C36.4604 77.3828 36.63 77.1492 36.8664 77.0021C37.1027 76.855 37.3872 76.806 37.6591 76.8654C37.7953 76.8951 37.9243 76.9516 38.0385 77.0315C38.1527 77.1114 38.2499 77.2132 38.3244 77.331C38.399 77.4488 38.4494 77.5803 38.4727 77.7177C38.4961 77.8551 38.4919 77.9958 38.4604 78.1316C38.4049 78.3626 38.2736 78.5683 38.0876 78.716C37.9015 78.8637 37.6714 78.9449 37.4339 78.9467C37.3535 78.9452 37.2735 78.9357 37.1949 78.9185ZM32.442 77.456C32.1827 77.3531 31.9742 77.1526 31.8611 76.8977C31.748 76.6427 31.7394 76.3536 31.837 76.0923C31.9408 75.8303 32.1437 75.6198 32.4017 75.5065C32.6598 75.3933 32.9521 75.3864 33.2152 75.4874C33.4732 75.5916 33.6798 75.7931 33.7904 76.0484C33.9011 76.3037 33.9068 76.5923 33.8064 76.8518C33.7306 77.0512 33.5957 77.2228 33.4197 77.3434C33.2437 77.4641 33.0351 77.528 32.8217 77.5268C32.6921 77.5239 32.5639 77.5 32.442 77.456ZM28.4766 75.4592C28.3363 75.4598 28.1974 75.431 28.0688 75.3747C27.9424 75.3231 27.8275 75.2468 27.731 75.1502C27.6344 75.0536 27.5581 74.9388 27.5064 74.8124C27.4507 74.6836 27.422 74.5448 27.422 74.4045C27.422 74.2642 27.4507 74.1254 27.5064 73.9966C27.5594 73.8711 27.6355 73.7567 27.731 73.6595C27.8286 73.5641 27.9432 73.4877 28.0688 73.4343C28.2617 73.3538 28.4742 73.3322 28.6793 73.3723C28.8845 73.4124 29.0732 73.5123 29.2217 73.6595C29.3171 73.7569 29.3934 73.8712 29.4469 73.9966C29.5026 74.1254 29.5313 74.2642 29.5313 74.4045C29.5313 74.5448 29.5026 74.6836 29.4469 74.8124C29.3935 74.938 29.3171 75.0526 29.2217 75.1502C29.024 75.3478 28.7561 75.4589 28.4766 75.4592Z" fill="#B8B2FF"/>
</svg>
