<svg width="400" height="400" viewBox="0 0 400 400" fill="none" xmlns="http://www.w3.org/2000/svg">
<path d="M187.896 154.166L47.6844 235.323L47.1455 126.157L187.357 45L187.896 154.166Z" fill="#7355A7"/>
<path d="M172.428 117.826L164.869 122.655L159.705 127.825L150.442 129.966L127.684 151.894L121.472 152.848L118.377 150.445L115.689 153.897L114.364 153.598L108.771 162.789L104.001 163.699L101.845 166.816L86.0638 169.94L63.8374 188.081L63.9685 213.57L172.61 150.831L172.428 117.826Z" fill="#B886CD"/>
<path d="M172.428 119.137L164.869 122.654L152.313 135.246L149.342 136.04L141.462 146.213L134.537 147.998L125.936 155.084L123.598 154.501L118.377 150.445L108.771 162.789L104.001 163.699L92.3486 180.565L86.0054 184.593L79.4147 189.872L71.4694 188.38L63.8955 198.837L63.9683 213.57L172.61 150.831L172.428 119.137Z" fill="#837CB7"/>
<path d="M177.671 148.318V147.91L58.6812 216.621L58.6884 217.022L177.671 148.318Z" fill="#9FB6FD"/>
<path d="M63.4949 163.371L63.3711 138.603L65.6578 137.285L65.7743 162.053L63.4949 163.371Z" fill="#76C7EC"/>
<path d="M70.2237 159.482L70.0635 125.99L72.3429 124.671L72.5104 158.164L70.2237 159.482Z" fill="#DACAF8"/>
<path d="M76.9599 155.593L76.7778 119.108L79.0573 117.79L79.2393 154.275L76.9599 155.593Z" fill="#76C7EC"/>
<path d="M83.6891 151.711L83.5361 120.906L85.8156 119.595L85.9685 150.393L83.6891 151.711Z" fill="#DACAF8"/>
<path d="M144.273 116.726L144.164 95.1184L146.45 93.8003L146.552 115.408L144.273 116.726Z" fill="#76C7EC"/>
<path d="M171.197 101.178L171.073 76.4095L173.36 75.0913L173.484 99.8594L171.197 101.178Z" fill="#76C7EC"/>
<path d="M151.002 112.837L150.842 79.3445L153.121 78.0264L153.289 111.519L151.002 112.837Z" fill="#DACAF8"/>
<path d="M157.731 108.948L157.556 72.4627L159.836 71.1445L160.018 107.638L157.731 108.948Z" fill="#76C7EC"/>
<path d="M164.468 105.066L164.315 74.2683L166.594 72.9502L166.747 103.748L164.468 105.066Z" fill="#DACAF8"/>
<path d="M90.4182 147.823L90.2798 119.552L92.5665 118.234L92.7049 146.505L90.4182 147.823Z" fill="#76C7EC"/>
<path d="M97.1553 143.934L96.9951 111.665L99.2746 110.347L99.4348 142.616L97.1553 143.934Z" fill="#DACAF8"/>
<path d="M103.884 140.045L103.709 105.081L105.996 103.763L106.164 138.727L103.884 140.045Z" fill="#76C7EC"/>
<path d="M110.613 136.163L110.453 103.894L112.739 102.576L112.9 134.845L110.613 136.163Z" fill="#DACAF8"/>
<path d="M117.349 132.274L117.226 107.135L119.505 105.816L119.629 130.956L117.349 132.274Z" fill="#76C7EC"/>
<path d="M124.079 128.386L123.94 100.901L126.227 99.583L126.358 127.067L124.079 128.386Z" fill="#DACAF8"/>
<path d="M130.808 124.497L130.648 92.2278L132.935 90.9097L133.095 123.179L130.808 124.497Z" fill="#76C7EC"/>
<path d="M137.537 120.615L137.369 85.6443L139.649 84.3262L139.823 119.297L137.537 120.615Z" fill="#DACAF8"/>
<path d="M65.1849 215.937L62.7744 217.328L62.7671 216.352L65.1849 214.954V215.937Z" fill="#5D52F7"/>
<path d="M80.7108 206.972L78.293 208.37V207.387L80.7035 205.996L80.7108 206.972Z" fill="#5D52F7"/>
<path d="M96.2303 198.014L93.8198 199.405L93.8125 198.422L96.223 197.031L96.2303 198.014Z" fill="#5D52F7"/>
<path d="M111.749 189.049L109.338 190.44L109.331 189.464L111.749 188.066V189.049Z" fill="#5D52F7"/>
<path d="M127.269 180.085L124.858 181.483L124.851 180.5L127.269 179.109V180.085Z" fill="#5D52F7"/>
<path d="M142.795 171.127L140.377 172.518V171.535L142.787 170.144L142.795 171.127Z" fill="#5D52F7"/>
<path d="M158.314 162.162L155.904 163.553L155.896 162.577L158.307 161.179L158.314 162.162Z" fill="#5D52F7"/>
<path d="M173.833 153.198L171.422 154.596L171.415 153.613L173.833 152.222V153.198Z" fill="#5D52F7"/>
<path d="M101.844 166.961C101.844 166.961 101.801 166.983 101.779 166.983L86.0558 170.093L63.8804 188.197L63.793 187.957L86.0194 169.809C86.0194 169.809 86.0922 169.758 86.1287 169.751L101.808 166.648L103.884 163.641C103.935 163.575 104 163.517 104.066 163.509L108.719 162.621L114.232 153.561C114.261 153.518 114.305 153.474 114.349 153.445C114.392 153.416 114.436 153.408 114.472 153.416L115.696 153.693L118.274 150.379C118.31 150.335 118.354 150.299 118.405 150.277C118.449 150.255 118.492 150.255 118.514 150.277L121.58 152.658L127.683 151.719L150.376 129.857C150.412 129.82 150.463 129.791 150.499 129.784L159.697 127.665L164.795 122.552C164.795 122.552 164.832 122.516 164.853 122.501L172.413 117.673L172.435 117.957L164.904 122.763L159.777 127.912C159.734 127.956 159.69 127.985 159.646 127.992L150.441 130.119L127.741 151.988C127.698 152.032 127.647 152.061 127.603 152.061L121.391 153.015C121.391 153.015 121.34 153.015 121.325 153.001L118.332 150.678L115.783 153.947C115.718 154.028 115.63 154.078 115.572 154.064L114.371 153.794L108.887 162.803C108.843 162.883 108.763 162.941 108.697 162.956L104.029 163.844L101.954 166.852C101.925 166.896 101.881 166.932 101.837 166.961H101.844Z" fill="#76C7EC"/>
<path d="M79.4146 190.025C79.3781 190.047 79.3344 190.054 79.3053 190.054L71.4693 188.583L64.0046 198.895L63.7861 198.801L71.36 188.343C71.4183 188.255 71.513 188.204 71.5785 188.219L79.4655 189.705L85.9762 184.49L92.2829 180.478L103.891 163.669C103.942 163.604 104.008 163.546 104.073 163.538L108.749 162.643L118.282 150.401C118.318 150.357 118.362 150.32 118.413 150.299C118.456 150.277 118.5 150.277 118.522 150.299L123.736 154.355L125.987 154.908L134.493 147.895C134.493 147.895 134.558 147.852 134.595 147.844L141.433 146.082L149.247 135.996C149.291 135.937 149.349 135.894 149.4 135.879L152.306 135.1L164.796 122.566C164.796 122.566 164.854 122.516 164.883 122.501L172.253 119.078L172.217 119.399L164.898 122.8L152.393 135.347C152.357 135.384 152.313 135.413 152.27 135.428L149.386 136.199L141.571 146.286C141.528 146.344 141.469 146.388 141.411 146.402L134.536 148.179L125.987 155.222C125.928 155.265 125.87 155.287 125.834 155.28L123.489 154.697L118.347 150.706L108.873 162.868C108.829 162.927 108.763 162.97 108.705 162.985L104.037 163.873L92.4649 180.631C92.4358 180.674 92.3994 180.703 92.363 180.732L86.0271 184.76L79.4655 190.018C79.4655 190.018 79.4364 190.04 79.4291 190.047L79.4146 190.025Z" fill="#DACAF8"/>
<path d="M63.9896 173.159L63.5454 173.421L63.742 214.102L64.1936 213.84L63.9896 173.159Z" fill="#9FB6FD"/>
<path d="M172.64 110.427L172.188 110.682L172.392 151.362L172.843 151.107L172.64 110.427Z" fill="#9FB6FD"/>
<path d="M79.5165 164.194L79.0649 164.456L79.2616 205.137L79.7131 204.882L79.5165 164.194Z" fill="#9FB6FD"/>
<path d="M95.0355 155.236L94.584 155.491L94.7879 196.179L95.2321 195.917L95.0355 155.236Z" fill="#9FB6FD"/>
<path d="M110.556 146.272L110.104 146.534L110.308 187.215L110.759 186.952L110.556 146.272Z" fill="#9FB6FD"/>
<path d="M126.074 137.314L125.629 137.569L125.826 178.249L126.278 177.994L126.074 137.314Z" fill="#9FB6FD"/>
<path d="M141.6 128.349L141.149 128.611L141.346 169.292L141.797 169.03L141.6 128.349Z" fill="#9FB6FD"/>
<path d="M157.119 119.385L156.668 119.647L156.872 160.327L157.316 160.073L157.119 119.385Z" fill="#9FB6FD"/>
<path d="M61.3906 338.867L249.405 230.407V207.955L61.3906 317.791V338.867Z" fill="#A5A2C4"/>
<path d="M202.833 182.218L249.645 207.955L61.6308 317.791L12 289.644L202.833 182.218Z" fill="#F6DCFF"/>
<path d="M12 289.644V309.561L61.3905 338.867V317.791L12 289.644Z" fill="#9C7ABC"/>
<path d="M134.624 177.535L157.164 164.419L178.057 176.356L155.787 189.326L134.624 177.535Z" fill="#9DB8F8"/>
<path d="M134.624 177.536V239.066L155.787 251.286V189.326L134.624 177.536Z" fill="#5F5BED"/>
<path d="M134.624 188.576V193.127L155.787 205.347V200.359L134.624 188.576Z" fill="#9DB8F8"/>
<path d="M155.787 189.326L178.057 176.356V238.586L155.787 251.286V189.326Z" fill="#5D52F7"/>
<path d="M155.787 200.344L178.057 187.381V192.654L155.787 205.347V200.344Z" fill="#9DB8F8"/>
<path d="M158.62 207.139L175.217 197.454V227.793L158.62 237.209V207.139Z" fill="#9DB8F8"/>
<path d="M173.44 198.495V228.798L175.217 227.793V197.454L173.44 198.495Z" fill="#5F5BED"/>
<path d="M156.37 183.777L143.815 176.509L156.37 169.263L168.86 176.48L156.37 183.777Z" fill="#5D52F7"/>
<path d="M143.815 176.509L156.37 183.777L168.86 176.479L168.845 177.164L156.341 184.476L143.815 177.164V176.509Z" fill="#5F5BED"/>
<path d="M103.928 202.61L126.467 189.494L147.361 201.437L125.091 214.4L103.928 202.61Z" fill="#9DB8F8"/>
<path d="M103.928 202.61V256.632L125.091 268.852V214.4L103.928 202.61Z" fill="#5F5BED"/>
<path d="M103.928 213.65V218.209L125.091 230.422V225.44L103.928 213.65Z" fill="#9DB8F8"/>
<path d="M125.09 214.4L147.36 201.437V256.158L125.09 268.852V214.4Z" fill="#5D52F7"/>
<path d="M125.09 225.419L147.36 212.456V217.729L125.09 230.422V225.419Z" fill="#9DB8F8"/>
<path d="M127.931 232.221L144.528 222.535V245.359L127.931 254.775V232.221Z" fill="#9DB8F8"/>
<path d="M142.751 223.569V246.364L144.528 245.359V222.535L142.751 223.569Z" fill="#5F5BED"/>
<path d="M125.674 208.851L113.119 201.583L125.674 194.337L138.171 201.554L125.674 208.851Z" fill="#5D52F7"/>
<path d="M113.119 201.583L125.674 208.851L138.171 201.554L138.156 202.238L125.645 209.557L113.119 202.238V201.583Z" fill="#5F5BED"/>
<path d="M72.9043 228.667L95.4439 215.544L116.338 227.487L94.0675 240.45L72.9043 228.667Z" fill="#9DB8F8"/>
<path d="M72.9043 228.667V274.358L94.0675 286.578V240.45L72.9043 228.667Z" fill="#5F5BED"/>
<path d="M72.9043 239.708V244.259L94.0675 256.479V251.491L72.9043 239.708Z" fill="#9DB8F8"/>
<path d="M94.0669 240.45L116.337 227.487V273.877L94.0669 286.578V240.45Z" fill="#5D52F7"/>
<path d="M94.0669 251.469L116.337 238.506V243.778L94.0669 256.479V251.469Z" fill="#9DB8F8"/>
<path d="M96.9004 258.271L113.497 248.585V263.077L96.9004 272.501V258.271Z" fill="#9DB8F8"/>
<path d="M111.727 249.619V264.09L113.497 263.077V248.585L111.727 249.619Z" fill="#5F5BED"/>
<path d="M94.6499 234.908L82.0947 227.64L94.6499 220.394L107.147 227.604L94.6499 234.908Z" fill="#5D52F7"/>
<path d="M82.0947 227.64L94.6499 234.908L107.147 227.604L107.125 228.289L94.6208 235.608L82.0947 228.289V227.64Z" fill="#5F5BED"/>
<path d="M136.779 342.45L136.772 354L184.342 326.545V315.075L136.779 342.45Z" fill="#5C56F1"/>
<path d="M184.341 315.075L167.169 305.156L119.781 332.633L136.779 342.45L184.341 315.075Z" fill="#5D52F7"/>
<path d="M119.781 332.633V344.234L136.772 354L136.779 342.45L119.781 332.633Z" fill="#5F5BED"/>
<path d="M172.45 312.482L132.039 336.019L132.046 242.656L172.348 219.425L172.45 312.482Z" fill="#B886CD"/>
<path d="M172.348 219.424L170.921 218.58L130.633 241.949L130.495 335.137L132.039 336.019L132.046 242.656L172.348 219.424Z" fill="#7355A7"/>
<path d="M170.032 305.73L134.457 326.449L134.464 244.251L169.945 223.801L170.032 305.73Z" fill="#7355A7"/>
<path d="M172.348 219.424L170.921 218.58L130.633 241.949L130.495 335.137L132.039 336.019L132.046 242.656L172.348 219.424Z" fill="#7355A7"/>
<path d="M169.945 223.801L158.125 230.618C158.125 230.618 146.422 302.053 147.464 318.883L170.032 305.738L169.945 223.809V223.801Z" fill="#7868BC"/>
<path d="M137.865 281.123L137.85 279.026L140.137 277.708L140.144 279.805L137.865 281.123Z" fill="#DACAF8"/>
<path d="M137.844 277.3L137.836 275.202L140.116 273.884L140.13 275.982L137.844 277.3Z" fill="#DACAF8"/>
<path d="M137.829 273.469L137.814 271.371L140.101 270.053L140.108 272.151L137.829 273.469Z" fill="#DACAF8"/>
<path d="M137.808 269.638L137.8 267.541L140.08 266.223L140.094 268.32L137.808 269.638Z" fill="#DACAF8"/>
<path d="M137.792 265.815L137.778 263.718L140.065 262.399L140.072 264.497L137.792 265.815Z" fill="#5D52F7"/>
<path d="M146.364 276.214L146.349 274.117L148.636 272.806L148.643 274.896L146.364 276.214Z" fill="#DACAF8"/>
<path d="M146.342 272.391L146.335 270.294L148.614 268.976L148.629 271.073L146.342 272.391Z" fill="#DACAF8"/>
<path d="M146.328 268.561L146.313 266.463L148.6 265.145L148.607 267.242L146.328 268.561Z" fill="#DACAF8"/>
<path d="M146.306 264.737L146.299 262.64L148.578 261.322L148.586 263.419L146.306 264.737Z" fill="#DACAF8"/>
<path d="M146.284 260.906L146.276 258.809L148.556 257.491L148.57 259.588L146.284 260.906Z" fill="#DACAF8"/>
<path d="M146.269 257.076L146.255 254.978L148.542 253.66L148.549 255.758L146.269 257.076Z" fill="#DACAF8"/>
<path d="M146.248 253.252L146.24 251.155L148.52 249.837L148.534 251.934L146.248 253.252Z" fill="#DACAF8"/>
<path d="M146.233 249.422L146.218 247.324L148.505 246.006L148.512 248.104L146.233 249.422Z" fill="#5D52F7"/>
<path d="M154.863 271.313L154.849 269.216L157.135 267.897L157.143 269.995L154.863 271.313Z" fill="#DACAF8"/>
<path d="M154.841 267.482L154.834 265.385L157.113 264.067L157.121 266.164L154.841 267.482Z" fill="#DACAF8"/>
<path d="M154.819 263.652L154.812 261.554L157.091 260.236L157.106 262.334L154.819 263.652Z" fill="#DACAF8"/>
<path d="M154.805 259.829L154.79 257.731L157.077 256.413L157.084 258.51L154.805 259.829Z" fill="#DACAF8"/>
<path d="M154.783 255.998L154.775 253.9L157.055 252.582L157.069 254.679L154.783 255.998Z" fill="#DACAF8"/>
<path d="M154.768 252.174L154.753 250.077L157.04 248.759L157.047 250.856L154.768 252.174Z" fill="#DACAF8"/>
<path d="M154.747 248.344L154.739 246.247L157.019 244.929L157.033 247.026L154.747 248.344Z" fill="#DACAF8"/>
<path d="M154.732 244.513L154.717 242.416L157.004 241.098L157.011 243.195L154.732 244.513Z" fill="#DACAF8"/>
<path d="M154.71 240.69L154.703 238.593L156.982 237.274L156.989 239.372L154.71 240.69Z" fill="#5D52F7"/>
<path d="M163.354 266.405L163.347 264.307L165.627 262.989L165.641 265.087L163.354 266.405Z" fill="#DACAF8"/>
<path d="M163.34 262.574L163.325 260.476L165.612 259.158L165.619 261.256L163.34 262.574Z" fill="#DACAF8"/>
<path d="M163.317 258.75L163.31 256.653L165.589 255.335L165.604 257.432L163.317 258.75Z" fill="#DACAF8"/>
<path d="M163.304 254.92L163.289 252.823L165.576 251.505L165.583 253.602L163.304 254.92Z" fill="#DACAF8"/>
<path d="M163.281 251.089L163.274 248.992L165.553 247.674L165.568 249.771L163.281 251.089Z" fill="#DACAF8"/>
<path d="M163.267 247.266L163.252 245.169L165.539 243.851L165.546 245.948L163.267 247.266Z" fill="#5D52F7"/>
<path d="M163.245 243.436L163.238 241.338L165.517 240.02L165.525 242.117L163.245 243.436Z" fill="#5D52F7"/>
<path d="M150.202 282.186L137.844 289.323L137.836 288.347L150.195 281.21L150.202 282.186Z" fill="#5D52F7"/>
<path d="M165.59 288.602L137.916 304.58L137.909 303.597L165.583 287.619L165.59 288.602Z" fill="#9FB6FD"/>
<path d="M162.583 280.009L137.866 294.282L137.858 293.299L162.583 279.025V280.009Z" fill="#5D52F7"/>
<path d="M165.612 293.554L137.938 309.532L137.931 308.557L165.604 292.571L165.612 293.554Z" fill="#9FB6FD"/>
<path d="M165.641 298.507L137.967 314.492L137.96 313.509L165.634 297.531L165.641 298.507Z" fill="#9FB6FD"/>
<path d="M165.664 303.466L137.99 319.444L137.982 318.461L165.656 302.483L165.664 303.466Z" fill="#9FB6FD"/>
<path d="M237.374 303.881L185.791 274.103L253.563 235.126L304.818 264.592L237.374 303.881Z" fill="#5A54E3"/>
<path d="M185.791 274.103L237.374 303.881L304.818 264.592L304.716 268.605L237.206 307.989L185.791 277.926V274.103Z" fill="#958FF8"/>
<path d="M237.869 265.444L192.724 239.27L248.188 207.249L293.078 233.189L237.869 265.444Z" fill="#B886CD"/>
<path d="M238.459 262.014L198.638 238.928L247.562 210.679L287.165 233.561L238.459 262.014Z" fill="#7355A7"/>
<path d="M192.724 239.27L237.869 265.444L293.078 233.189L293.005 236.211L237.745 268.539L192.724 242.147V239.27Z" fill="#7355A7"/>
<path d="M198.638 238.928L247.562 210.679L287.165 233.561L285.767 234.376L247.62 212.07L200.102 239.78L198.638 238.928Z" fill="#937CBE"/>
<path d="M194.989 243.479V271.481L237.716 296.22L237.745 268.539L194.989 243.479Z" fill="#7355A7"/>
<path d="M237.745 268.539L289.889 238.032L289.248 266.114L237.716 296.22L237.745 268.539Z" fill="#937CBE"/>
<path d="M253.112 266.827L277.581 252.51V265.516L253.097 279.819L253.112 266.827Z" fill="#9DB8F8"/>
<path d="M215.569 238.499C214.426 239.183 214.338 240.261 215.387 240.909L231.503 250.937L235.654 248.468L219.538 238.44C218.497 237.792 216.72 237.814 215.569 238.499Z" fill="#DACAF8"/>
<path d="M218.999 238.847C219.742 239.306 219.676 240.071 218.868 240.552C218.06 241.032 216.8 241.054 216.057 240.595C215.314 240.136 215.38 239.372 216.188 238.891C216.997 238.411 218.256 238.389 218.999 238.847Z" fill="#8865FF"/>
<path d="M223.114 237.013C221.971 237.697 221.884 238.775 222.932 239.423L236.58 247.915L240.731 245.446L227.083 236.954C226.042 236.306 224.265 236.328 223.114 237.013Z" fill="#DACAF8"/>
<path d="M226.544 237.362C227.287 237.821 227.221 238.586 226.413 239.066C225.605 239.547 224.345 239.569 223.602 239.11C222.859 238.651 222.925 237.886 223.733 237.406C224.541 236.925 225.801 236.903 226.544 237.362Z" fill="#8865FF"/>
<path d="M231.285 235.92C230.142 236.605 230.055 237.683 231.103 238.331L241.663 244.9L245.814 242.431L235.254 235.862C234.213 235.214 232.436 235.236 231.285 235.92Z" fill="#DACAF8"/>
<path d="M234.715 236.263C235.458 236.721 235.392 237.486 234.584 237.967C233.776 238.447 232.516 238.469 231.773 238.01C231.03 237.552 231.096 236.787 231.904 236.306C232.712 235.826 233.972 235.804 234.715 236.263Z" fill="#8865FF"/>
<path d="M232.188 230.305C231.045 230.99 230.957 232.068 232.006 232.716L246.739 241.885L250.89 239.416L236.157 230.247C235.116 229.599 233.339 229.621 232.188 230.305Z" fill="#DACAF8"/>
<path d="M235.618 230.648C236.361 231.107 236.295 231.871 235.487 232.352C234.678 232.833 233.419 232.854 232.676 232.396C231.933 231.937 231.998 231.172 232.807 230.691C233.615 230.211 234.875 230.189 235.618 230.648Z" fill="#8865FF"/>
<path d="M257.364 235.563L253.592 237.806L252.958 237.413L256.73 235.17L257.364 235.563Z" fill="#9DB8F8"/>
<path d="M254.997 234.092L251.224 236.335L250.591 235.934L254.363 233.699L254.997 234.092Z" fill="#9DB8F8"/>
<path d="M252.637 232.622L248.865 234.865L248.224 234.464L251.996 232.221L252.637 232.622Z" fill="#9DB8F8"/>
<path d="M253.722 241.186L234.344 252.707L233.965 252.466L253.351 240.945L253.722 241.186Z" fill="#8F29EA"/>
<path d="M256.082 242.65L236.703 254.171L236.324 253.938L255.71 242.417L256.082 242.65Z" fill="#8F29EA"/>
<path d="M258.442 244.121L239.063 255.642L238.684 255.409L258.07 243.888L258.442 244.121Z" fill="#8F29EA"/>
<path d="M258.544 224.297L244.911 232.403L235.589 226.599L249.222 218.493L258.544 224.297Z" fill="#76C7EC"/>
<path d="M267.225 229.701L258.435 234.93L257.801 234.529L266.591 229.308L267.225 229.701Z" fill="#9DB8F8"/>
<path d="M264.865 228.23L256.068 233.459L255.434 233.059L264.224 227.837L264.865 228.23Z" fill="#9DB8F8"/>
<path d="M262.498 226.758L253.708 231.98L253.067 231.587L261.857 226.358L262.498 226.758Z" fill="#9DB8F8"/>
<path d="M263.234 241.273L261.151 242.511L256.053 239.336L258.136 238.098L263.234 241.273Z" fill="#76C7EC"/>
<path d="M261.151 242.511L263.233 241.273L259.767 239.117L257.684 240.355L261.151 242.511Z" fill="#8F29EA"/>
<path d="M267.086 238.986L265.004 240.224L259.906 237.049L261.989 235.811L267.086 238.986Z" fill="#76C7EC"/>
<path d="M265.003 240.224L267.086 238.986L263.299 236.626L261.216 237.864L265.003 240.224Z" fill="#8F29EA"/>
<path d="M270.939 236.692L268.856 237.93L263.758 234.762L265.841 233.524L270.939 236.692Z" fill="#76C7EC"/>
<path d="M268.856 237.93L270.939 236.692L267.472 234.537L265.39 235.775L268.856 237.93Z" fill="#8F29EA"/>
<path d="M274.784 234.406L272.701 235.644L267.604 232.476L269.686 231.23L274.784 234.406Z" fill="#76C7EC"/>
<path d="M272.701 235.644L274.784 234.406L270.065 231.471L267.982 232.709L272.701 235.644Z" fill="#8F29EA"/>
<path d="M255.26 269.675L275.432 257.87V259.079L255.252 270.869L255.26 269.675Z" fill="#FEFEFD"/>
<path d="M255.26 272.836L275.432 261.031V262.24L255.252 274.03L255.26 272.836Z" fill="#FEFEFD"/>
<path d="M384.556 255.692L217.362 159.067L217.807 48.6118L385 145.237L384.556 255.692Z" fill="#9FB6FD"/>
<path d="M381.686 239.423L220.348 146.184L220.726 53.1709L382.057 146.41L381.686 239.423Z" fill="#7355A7"/>
<path d="M382.058 146.41L332.077 117.527C332.077 117.527 295.424 133.957 261.312 169.86L381.686 239.423L382.058 146.41Z" fill="#7868BC"/>
<path d="M320.28 152.688C316.114 150.277 312.4 153.656 309.385 158.849C306.618 163.612 298.337 158.528 295.963 150.634C292.358 138.64 287.479 127.221 281.376 123.696C274.618 119.792 268.894 128.961 264.947 138.705C263.293 142.784 256.972 139.375 254.984 133.36C252.595 126.128 249.515 119.661 245.772 117.491C236.763 112.284 230.405 140.73 230.405 140.73L259.135 157.334L260.876 158.339L301.163 181.622L303.246 182.823L339.091 203.542C337.809 196.041 331.415 159.118 320.287 152.688H320.28Z" fill="#DACAF8"/>
<path d="M281.164 146.818C275.149 143.337 270.051 152.979 266.199 161.412L296.939 179.181C296.509 178.337 296.137 177.434 295.861 176.494C292.256 164.5 287.267 150.342 281.164 146.818Z" fill="#76C7EC"/>
<path d="M245.837 140.547C243.302 139.084 240.513 142.026 238.772 145.565L252.821 153.685C251.386 148.303 248.582 142.135 245.829 140.547H245.837Z" fill="#76C7EC"/>
<path d="M320.243 181.031C316.078 178.621 312.298 179.524 309.276 184.716C309.021 185.161 308.715 185.517 308.373 185.794L332.019 199.456C328.997 189.996 325.108 183.835 320.243 181.024V181.031Z" fill="#76C7EC"/>
<path d="M231.083 73.089L230.675 72.856L230.398 140.73L230.814 140.97L231.083 73.089Z" fill="#9FB6FD"/>
<path d="M246.514 82.0103L246.106 81.77L245.83 149.651L246.245 149.884L246.514 82.0103Z" fill="#9FB6FD"/>
<path d="M323.928 126.747L323.513 126.507L323.243 194.388L323.651 194.621L323.928 126.747Z" fill="#9FB6FD"/>
<path d="M339.36 135.661L338.945 135.428L338.675 203.301L339.083 203.542L339.36 135.661Z" fill="#9FB6FD"/>
<path d="M281.755 102.372L281.347 102.139L281.07 170.013L281.485 170.253L281.755 102.372Z" fill="#9FB6FD"/>
<path d="M342.965 206.011V205.552L226.523 138.261V138.712L342.965 206.011Z" fill="#9FB6FD"/>
<path d="M375.095 224.574L347.021 208.355L347.159 173.326L375.234 189.552L375.095 224.574Z" fill="#8B5AEE"/>
<path d="M361.331 148.362C354.136 144.203 348.274 147.255 348.237 155.178C348.208 163.102 354.012 172.904 361.215 177.062C368.41 181.221 374.273 178.169 374.309 170.246C374.338 162.322 368.534 152.52 361.331 148.362ZM361.237 171.047C357.057 168.629 353.685 162.941 353.707 158.339C353.728 153.736 357.129 151.967 361.31 154.377C365.49 156.795 368.862 162.483 368.84 167.085C368.818 171.688 365.417 173.457 361.237 171.047Z" fill="#DACAF8"/>
<path d="M367.442 161.42L372.081 160.859C369.75 155.717 365.81 150.954 361.339 148.369L361.317 154.392C363.851 155.856 366.087 158.528 367.449 161.427L367.442 161.42Z" fill="#76C7EC"/>
<path d="M354.165 181.723L349.854 179.232V178.133L354.165 180.623V181.723Z" fill="#DACAF8"/>
<path d="M372.51 192.326L356.474 183.056L356.481 181.956L372.517 191.227L372.51 192.326Z" fill="#DACAF8"/>
<path d="M354.143 185.641L349.832 183.15L349.839 182.051L354.151 184.541L354.143 185.641Z" fill="#5D52F7"/>
<path d="M372.495 196.244L356.459 186.981V185.881L372.495 195.144V196.244Z" fill="#5D52F7"/>
<path d="M354.129 189.567L349.817 187.076L349.825 185.969L354.136 188.467L354.129 189.567Z" fill="#9FB6FD"/>
<path d="M372.481 200.17L356.444 190.899V189.799L372.481 199.063V200.17Z" fill="#9FB6FD"/>
<path d="M354.115 193.485L349.804 190.994L349.811 189.895L354.122 192.385L354.115 193.485Z" fill="#9FB6FD"/>
<path d="M372.459 204.088L356.43 194.825V193.718L372.466 202.988L372.459 204.088Z" fill="#9FB6FD"/>
<path d="M354.1 197.41L349.789 194.919L349.796 193.812L354.107 196.31L354.1 197.41Z" fill="#9FB6FD"/>
<path d="M372.444 208.013L356.408 198.742L356.415 197.643L372.452 206.906L372.444 208.013Z" fill="#9FB6FD"/>
<path d="M354.086 201.328L349.774 198.837V197.738L354.086 200.228V201.328Z" fill="#9FB6FD"/>
<path d="M372.43 211.931L356.394 202.668L356.401 201.561L372.438 210.832L372.43 211.931Z" fill="#9FB6FD"/>
<path d="M372.415 215.856L349.759 202.755V201.655L372.423 214.749L372.415 215.856Z" fill="#5D52F7"/>
<path d="M372.401 219.774L349.745 206.68V205.581L372.401 218.675V219.774Z" fill="#5D52F7"/>
<path d="M231.68 110.937C231.68 111.512 231.25 111.738 230.726 111.432C230.201 111.126 229.779 110.412 229.779 109.837C229.779 109.262 230.208 109.036 230.733 109.342C231.257 109.648 231.68 110.361 231.68 110.937Z" fill="#8F29EA"/>
<path d="M247.206 95.8326C247.206 96.408 246.776 96.6337 246.252 96.3279C245.728 96.022 245.305 95.3083 245.305 94.733C245.305 94.1576 245.735 93.9319 246.259 94.2377C246.784 94.5436 247.206 95.2573 247.206 95.8326Z" fill="#8F29EA"/>
<path d="M282.49 105.788C282.49 106.363 282.06 106.589 281.536 106.283C281.012 105.977 280.589 105.263 280.589 104.688C280.589 104.113 281.019 103.887 281.543 104.193C282.068 104.499 282.49 105.212 282.49 105.788Z" fill="#8F29EA"/>
<path d="M324.583 149.862C324.583 150.437 324.154 150.663 323.629 150.357C323.105 150.051 322.683 149.338 322.683 148.762C322.683 148.187 323.112 147.961 323.637 148.267C324.161 148.573 324.583 149.287 324.583 149.862Z" fill="#8F29EA"/>
<path d="M340.059 146.643C340.059 147.219 339.629 147.444 339.105 147.138C338.581 146.833 338.158 146.119 338.158 145.544C338.158 144.968 338.588 144.742 339.112 145.048C339.637 145.354 340.059 146.068 340.059 146.643Z" fill="#8F29EA"/>
<path d="M363.407 163.946C363.407 165.242 362.438 165.745 361.266 165.06C360.086 164.376 359.139 162.773 359.139 161.477C359.139 160.181 360.108 159.678 361.28 160.363C362.46 161.047 363.407 162.65 363.407 163.946Z" fill="#9FB6FD"/>
<path d="M217.806 48.6121L220.049 47.2065L387.519 144.167L387.053 254.338L384.555 255.692L385 145.237L217.806 48.6121Z" fill="#98B3F2"/>
<path d="M19.7271 207.059L37.9408 196.427V212.339L19.7271 222.68V207.059Z" fill="#9DB8F8"/>
<path d="M21.73 208.516L36.3753 199.922V201.255L21.73 209.856V208.516Z" fill="#FEFEFD"/>
<path d="M21.73 212.114L36.3753 203.521V204.853L21.73 213.454V212.114Z" fill="#FEFEFD"/>
<path d="M37.9408 196.427H34.9622L17.9355 206.317V221.836L19.7271 222.68V207.059L37.9408 196.427Z" fill="#98B3F2"/>
<path d="M20.7461 229.053L36.695 219.746V233.67L20.7461 242.722V229.053Z" fill="#9DB8F8"/>
<path d="M22.5083 230.327L35.3256 222.804V223.977L22.5083 231.492V230.327Z" fill="#FEFEFD"/>
<path d="M22.5083 233.474L35.3256 225.951V227.123L22.5083 234.646V233.474Z" fill="#FEFEFD"/>
<path d="M36.6953 219.746H34.0882L19.188 228.397V241.987L20.7465 242.722V229.053L36.6953 219.746Z" fill="#98B3F2"/>
</svg>
