<svg width="100" height="100" viewBox="0 0 100 100" fill="none" xmlns="http://www.w3.org/2000/svg">
<path d="M72 33.5C72 33.5 65.5382 40 55.9998 40C46.1536 40 40 33.5 40 33.5C40 33.5 46.4613 27 55.9998 27C65.5382 27 72 33.5 72 33.5Z" stroke="black" stroke-width="3" stroke-miterlimit="10" stroke-linecap="round" stroke-linejoin="round"/>
<path d="M55.5428 54C47.0096 54 40 46.9862 40 38.1428V33.1647C40 23.0048 47.3844 15 55.9998 15C64.9228 15 72 23.0048 72 33.1647L71.9997 38.1428C71.9997 46.9862 64.9902 54 56.457 54" stroke="black" stroke-width="3" stroke-miterlimit="10" stroke-linecap="round" stroke-linejoin="round"/>
<path d="M56 15V27" stroke="black" stroke-width="3" stroke-miterlimit="10" stroke-linecap="round" stroke-linejoin="round"/>
<path d="M50 61L56.3063 66.6105L62.6126 61H78.3784L73.6486 68.169C79.3243 72.2211 83.4234 78.1427 85 85" stroke="black" stroke-width="3" stroke-miterlimit="10" stroke-linecap="round" stroke-linejoin="round"/>
<path d="M57 78C55.8955 78 55 77.5522 55 77C55 76.4477 55.8955 76 57 76" stroke="black" stroke-width="3" stroke-miterlimit="10" stroke-linecap="round" stroke-linejoin="round"/>
<path d="M57 78C57.5523 78 58 77.5522 58 77C58 76.4477 57.5523 76 57 76" stroke="black" stroke-width="3" stroke-miterlimit="10" stroke-linecap="round" stroke-linejoin="round"/>
<path d="M29 81C36.732 81 43 74.732 43 67C43 59.268 36.732 53 29 53C21.268 53 15 59.268 15 67C15 74.732 21.268 81 29 81Z" stroke="#3DD3F2" stroke-width="3" stroke-miterlimit="10" stroke-linecap="round" stroke-linejoin="round"/>
<path d="M47 85L39 77" stroke="#3DD3F2" stroke-width="3" stroke-miterlimit="10" stroke-linecap="round" stroke-linejoin="round"/>
</svg>
