<svg width="345" height="384" viewBox="0 0 345 384" fill="none" xmlns="http://www.w3.org/2000/svg">
<path d="M137.333 56.1226C137.333 50.399 133.849 43.7516 129.553 41.2733C128.922 40.9102 128.308 40.6574 127.717 40.5092C126.234 33.1674 121.708 25.8343 116.354 22.7459C116.258 22.6907 116.165 22.6442 116.072 22.5919C114.827 14.0473 109.612 5.16275 103.364 1.56011C99.9992 -0.38066 96.9366 -0.444577 94.6272 1.01972L89.2348 4.11682L87.4024 7.24298C86.0064 5.66828 84.4765 4.36087 82.871 3.43406C79.881 1.71119 77.1528 1.6095 75.0674 2.83266L69.9746 5.80192L68.6658 8.78572L63.2617 11.9032L66.0888 14.21C66.0743 14.4715 66.0626 14.7417 66.0626 15.0177C66.0626 20.7412 69.547 27.3887 73.8429 29.8669L82.8739 35.0762L112.785 52.3282L129.067 65.6202L134.523 62.4795C136.242 61.5701 137.336 59.333 137.336 56.1255L137.333 56.1226Z" fill="#873EF9"/>
<path d="M65.7517 11.5514C67.1856 5.78717 71.7491 3.59653 77.1589 6.71978C80.0063 8.36131 82.6153 11.2027 84.6629 14.6049C84.6832 5.08407 90.4916 0.714426 97.6523 4.84583C103.9 8.44847 109.115 17.333 110.36 25.8777C110.453 25.93 110.549 25.9764 110.642 26.0316C115.996 29.12 120.525 36.4531 122.005 43.795C122.593 43.946 123.207 44.1959 123.841 44.5591C128.137 47.0373 131.621 53.6848 131.621 59.4083C131.621 65.1318 128.137 67.7612 123.841 65.2829L110.642 57.6709L77.1589 38.359L68.1279 33.1497C63.8321 30.6715 60.3477 24.024 60.3477 18.3005C60.3477 13.681 62.6163 11.0807 65.7517 11.5485V11.5514Z" fill="#E1AAFE"/>
<path d="M118.336 133.437L126.073 106.783L131.942 110.168L139.644 145.727L134.356 142.676L132.628 133.951L125.028 129.57L123.283 136.29L118.336 133.437ZM128.743 114.523L126.003 125.276L131.669 128.544L128.964 114.651L128.74 114.523H128.743Z" fill="#B630FC"/>
<path d="M179.917 141.293L147.082 122.356C146.37 121.944 145.785 120.831 145.785 119.881C145.785 118.931 146.37 118.489 147.082 118.902L179.917 137.839C180.629 138.251 181.214 139.364 181.214 140.314C181.214 141.264 180.629 141.706 179.917 141.293Z" fill="#B630FC"/>
<path d="M179.917 168.952L147.082 150.014C146.37 149.602 145.785 148.489 145.785 147.539C145.785 146.589 146.37 146.147 147.082 146.56L179.917 165.497C180.629 165.91 181.214 167.022 181.214 167.972C181.214 168.922 180.629 169.364 179.917 168.952Z" fill="#B630FC"/>
<path d="M179.918 182.782L119.633 148.013C118.921 147.601 118.336 146.488 118.336 145.538C118.336 144.588 118.921 144.146 119.633 144.559L179.918 179.327C180.631 179.74 181.215 180.853 181.215 181.803C181.215 182.753 180.631 183.194 179.918 182.782Z" fill="#B630FC"/>
<path d="M179.918 196.611L119.633 161.843C118.921 161.43 118.336 160.317 118.336 159.367C118.336 158.417 118.921 157.976 119.633 158.388L179.918 193.156C180.631 193.569 181.215 194.682 181.215 195.632C181.215 196.582 180.631 197.023 179.918 196.611Z" fill="#B630FC"/>
<path d="M179.918 210.44L119.633 175.672C118.921 175.259 118.336 174.146 118.336 173.196C118.336 172.246 118.921 171.805 119.633 172.217L179.918 206.986C180.631 207.398 181.215 208.511 181.215 209.461C181.215 210.411 180.631 210.853 179.918 210.44Z" fill="#B630FC"/>
<path d="M179.918 224.273L119.633 189.505C118.921 189.092 118.336 187.979 118.336 187.029C118.336 186.079 118.921 185.638 119.633 186.05L179.918 220.819C180.631 221.231 181.215 222.344 181.215 223.294C181.215 224.244 180.631 224.686 179.918 224.273Z" fill="#B630FC"/>
<path d="M179.918 238.102L119.633 203.334C118.921 202.921 118.336 201.808 118.336 200.858C118.336 199.908 118.921 199.467 119.633 199.879L179.918 234.648C180.631 235.06 181.215 236.173 181.215 237.123C181.215 238.073 180.631 238.515 179.918 238.102Z" fill="#B630FC"/>
<path d="M179.917 155.122L147.082 136.185C146.37 135.773 145.785 134.66 145.785 133.71C145.785 132.76 146.37 132.318 147.082 132.731L179.917 151.668C180.629 152.081 181.214 153.193 181.214 154.143C181.214 155.093 180.629 155.535 179.917 155.122Z" fill="#B630FC"/>
<path d="M176.392 105.915L116.427 71.3321C111.125 68.2728 106.785 71.55 106.785 78.6129V199.905C106.785 206.968 111.125 215.249 116.427 218.308L183.119 256.772C188.422 259.831 192.761 256.554 192.761 249.491V137.159L176.392 105.917V105.915Z" fill="#DB9AFE"/>
<path d="M106.855 72.7125L109.997 70.917L189.583 257.164L186.046 259.192" fill="#B630FC"/>
<path d="M173.013 116.806V107.846L113.048 73.2638C107.746 70.2044 103.406 73.4817 103.406 80.5446V201.837C103.406 208.9 107.746 217.18 113.048 220.24L179.74 258.704C185.043 261.763 189.382 258.486 189.382 251.423V139.09L182.655 135.212C177.352 132.152 173.013 123.872 173.013 116.809V116.806Z" fill="#FAF1FF"/>
<path d="M114.953 135.369L122.69 108.715L128.559 112.1L136.261 147.658L130.973 144.608L129.246 135.883L121.646 131.501L119.901 138.222L114.953 135.369ZM125.36 116.455L122.62 127.207L128.286 130.476L125.581 116.583L125.357 116.455H125.36Z" fill="#DB9AFE"/>
<path d="M176.534 143.225L143.7 124.288C142.987 123.875 142.402 122.763 142.402 121.813C142.402 120.862 142.987 120.421 143.7 120.833L176.534 139.77C177.246 140.183 177.831 141.296 177.831 142.246C177.831 143.196 177.246 143.638 176.534 143.225Z" fill="#E3AEFE"/>
<path d="M176.534 170.886L143.7 151.949C142.987 151.536 142.402 150.424 142.402 149.474C142.402 148.524 142.987 148.082 143.7 148.495L176.534 167.432C177.246 167.844 177.831 168.957 177.831 169.907C177.831 170.857 177.246 171.299 176.534 170.886Z" fill="#E3AEFE"/>
<path d="M176.535 184.716L116.25 149.948C115.538 149.535 114.953 148.423 114.953 147.473C114.953 146.523 115.538 146.081 116.25 146.494L176.535 181.262C177.248 181.674 177.832 182.787 177.832 183.737C177.832 184.687 177.248 185.129 176.535 184.716Z" fill="#DD9EFE"/>
<path d="M176.535 198.545L116.25 163.777C115.538 163.365 114.953 162.252 114.953 161.302C114.953 160.352 115.538 159.91 116.25 160.323L176.535 195.091C177.248 195.504 177.832 196.616 177.832 197.566C177.832 198.516 177.248 198.958 176.535 198.545Z" fill="#DD9EFE"/>
<path d="M176.535 212.375L116.25 177.606C115.538 177.194 114.953 176.081 114.953 175.131C114.953 174.181 115.538 173.739 116.25 174.152L176.535 208.92C177.248 209.333 177.832 210.445 177.832 211.395C177.832 212.346 177.248 212.787 176.535 212.375Z" fill="#DD9EFE"/>
<path d="M176.535 226.205L116.25 191.436C115.538 191.024 114.953 189.911 114.953 188.961C114.953 188.011 115.538 187.569 116.25 187.982L176.535 222.75C177.248 223.163 177.832 224.275 177.832 225.226C177.832 226.176 177.248 226.617 176.535 226.205Z" fill="#DD9EFE"/>
<path d="M176.535 240.037L116.25 205.268C115.538 204.856 114.953 203.743 114.953 202.793C114.953 201.843 115.538 201.401 116.25 201.814L176.535 236.582C177.248 236.995 177.832 238.108 177.832 239.058C177.832 240.008 177.248 240.449 176.535 240.037Z" fill="#DD9EFE"/>
<path d="M176.534 157.057L143.7 138.12C142.987 137.707 142.402 136.595 142.402 135.645C142.402 134.695 142.987 134.253 143.7 134.665L176.534 153.603C177.246 154.015 177.831 155.128 177.831 156.078C177.831 157.028 177.246 157.47 176.534 157.057Z" fill="#E3AEFE"/>
<path d="M173.012 116.806C173.012 123.869 177.351 132.149 182.653 135.208L189.381 139.087L173.012 107.846V116.806Z" fill="#E8BFFE"/>
<path d="M219.79 271.926L178.346 248.024C177.619 247.606 177.25 247.045 177.227 246.455V267.766H177.232C177.206 268.399 177.57 269.009 178.346 269.457L219.79 293.359C220.549 293.798 221.573 294.007 222.643 294.004L222.873 272.565C221.721 272.603 220.604 272.394 219.793 271.923L219.79 271.926Z" fill="#E3AEFE"/>
<path d="M271.666 245.49L226.299 271.656C225.318 272.223 224.074 272.528 222.867 272.565L222.637 294.004C223.911 294.001 225.254 293.693 226.296 293.089L271.663 266.923C272.695 266.328 273.23 265.561 273.245 264.834H273.248V264.738V243.303C273.277 244.061 272.739 244.866 271.66 245.488L271.666 245.49Z" fill="#DC9CFE"/>
<path d="M224.179 239.537C226.098 238.43 229.027 238.308 230.691 239.267L239.562 244.383L273.254 243.299C273.231 242.71 272.862 242.152 272.135 241.733L230.691 217.831C229.027 216.872 226.098 216.994 224.179 218.101L178.812 244.267C177.765 244.871 177.229 245.65 177.227 246.388L214.371 245.194L224.179 239.537Z" fill="#FBF3FF"/>
<path d="M178.345 248.023L219.788 271.926C220.6 272.393 221.717 272.603 222.868 272.568C224.072 272.53 225.317 272.222 226.3 271.658L271.668 245.493C272.747 244.871 273.285 244.063 273.256 243.308V243.305L239.563 244.389L230.692 239.272C229.029 238.314 226.1 238.436 224.18 239.543L214.373 245.199L177.228 246.394C177.228 246.417 177.225 246.437 177.228 246.46C177.251 247.05 177.62 247.611 178.348 248.029L178.345 248.023Z" fill="#FBF3FF"/>
<path d="M219.79 249.125L178.346 225.222C177.619 224.804 177.25 224.243 177.227 223.653V244.964H177.232C177.206 245.597 177.57 246.208 178.346 246.655L219.79 270.557C220.549 270.996 221.573 271.205 222.643 271.202L222.873 249.764C221.721 249.801 220.604 249.592 219.793 249.122L219.79 249.125Z" fill="#873EF9"/>
<path d="M271.666 222.692L226.299 248.857C225.318 249.424 224.074 249.729 222.867 249.767L222.637 271.205C223.911 271.202 225.254 270.894 226.296 270.29L271.663 244.124C272.695 243.529 273.23 242.762 273.245 242.035H273.248V241.94V220.504C273.277 221.262 272.739 222.067 271.66 222.689L271.666 222.692Z" fill="#873EF9"/>
<path d="M224.179 216.739C226.098 215.632 229.027 215.51 230.691 216.469L239.562 221.585L273.254 220.502C273.231 219.912 272.862 219.354 272.135 218.936L230.691 195.033C229.027 194.074 226.098 194.196 224.179 195.303L178.812 221.469C177.765 222.073 177.229 222.852 177.227 223.59L214.371 222.396L224.179 216.739Z" fill="#FBF3FF"/>
<path d="M178.345 225.223L219.788 249.125C220.6 249.593 221.717 249.802 222.868 249.767C224.072 249.729 225.317 249.421 226.3 248.858L271.668 222.692C272.747 222.07 273.285 221.263 273.256 220.507V220.504L239.563 221.588L230.692 216.472C229.029 215.513 226.1 215.635 224.18 216.742L214.373 222.399L177.228 223.593C177.228 223.616 177.225 223.636 177.228 223.66C177.251 224.249 177.62 224.81 178.348 225.228L178.345 225.223Z" fill="#FBF3FF"/>
<path d="M194.736 246.214L187.907 242.274C186.906 241.696 186.086 242.315 186.086 243.649C186.086 244.982 186.906 246.545 187.907 247.123L194.736 251.063C195.736 251.641 196.557 251.022 196.557 249.689C196.557 248.355 195.736 246.792 194.736 246.214Z" fill="white"/>
<path d="M187.907 240.476L210.404 253.451C211.405 254.029 212.225 253.411 212.225 252.077C212.225 250.743 211.405 249.18 210.404 248.602L187.907 235.627C186.906 235.049 186.086 235.668 186.086 237.001C186.086 238.335 186.906 239.898 187.907 240.476Z" fill="#B836FC"/>
<path d="M210.439 255.27L203.61 251.33C202.609 250.752 201.789 251.371 201.789 252.704C201.789 254.038 202.609 255.601 203.61 256.179L210.439 260.119C211.44 260.697 212.26 260.078 212.26 258.745C212.26 257.411 211.44 255.848 210.439 255.27Z" fill="white"/>
<path d="M219.79 226.327L178.346 202.424C177.619 202.006 177.25 201.445 177.227 200.855V222.166H177.232C177.206 222.8 177.57 223.41 178.346 223.857L219.79 247.759C220.549 248.198 221.573 248.407 222.643 248.404L222.873 226.966C221.721 227.004 220.604 226.794 219.793 226.324L219.79 226.327Z" fill="#E1AAFE"/>
<path d="M271.666 199.891L226.299 226.056C225.318 226.623 224.074 226.928 222.867 226.966L222.637 248.404C223.911 248.401 225.254 248.094 226.296 247.489L271.663 221.324C272.695 220.728 273.23 219.961 273.245 219.235H273.248V219.139V197.706C273.277 198.464 272.739 199.269 271.66 199.891H271.666Z" fill="#D891FD"/>
<path d="M224.179 193.938C226.098 192.831 229.027 192.709 230.691 193.668L239.562 198.784L273.254 197.701C273.231 197.111 272.862 196.553 272.135 196.135L230.691 172.232C229.027 171.274 226.098 171.396 224.179 172.503L178.812 198.668C177.765 199.273 177.229 200.051 177.227 200.789L214.371 199.595L224.179 193.938Z" fill="#FBF3FF"/>
<path d="M178.345 202.425L219.788 226.327C220.6 226.795 221.717 227.004 222.868 226.969C224.072 226.931 225.317 226.623 226.3 226.06L271.668 199.894C272.747 199.272 273.285 198.465 273.256 197.709V197.706L239.563 198.79L230.692 193.674C229.029 192.715 226.1 192.837 224.18 193.944L214.373 199.601L177.228 200.795C177.228 200.818 177.225 200.838 177.228 200.862C177.251 201.451 177.62 202.012 178.348 202.431L178.345 202.425Z" fill="#FBF3FF"/>
<path d="M194.736 223.412L187.907 219.473C186.906 218.894 186.086 219.513 186.086 220.847C186.086 222.18 186.906 223.744 187.907 224.322L194.736 228.261C195.736 228.839 196.557 228.221 196.557 226.887C196.557 225.554 195.736 223.99 194.736 223.412Z" fill="white"/>
<path d="M187.907 217.674L210.404 230.649C211.405 231.228 212.225 230.609 212.225 229.275C212.225 227.942 211.405 226.379 210.404 225.8L187.907 212.825C186.906 212.247 186.086 212.866 186.086 214.199C186.086 215.533 186.906 217.096 187.907 217.674Z" fill="white"/>
<path d="M210.439 232.471L203.61 228.531C202.609 227.953 201.789 228.572 201.789 229.905C201.789 231.239 202.609 232.802 203.61 233.38L210.439 237.32C211.44 237.898 212.26 237.279 212.26 235.946C212.26 234.612 211.44 233.049 210.439 232.471Z" fill="white"/>
<path d="M219.79 203.526L178.346 179.624C177.619 179.205 177.25 178.644 177.227 178.055V199.365H177.232C177.206 199.999 177.57 200.609 178.346 201.056L219.79 224.959C220.549 225.397 221.573 225.607 222.643 225.604L222.873 204.165C221.721 204.203 220.604 203.994 219.793 203.523L219.79 203.526Z" fill="#873EF9"/>
<path d="M271.666 177.093L226.299 203.259C225.318 203.825 224.074 204.13 222.867 204.168L222.637 225.607C223.911 225.604 225.254 225.296 226.296 224.691L271.663 198.526C272.695 197.93 273.23 197.163 273.245 196.437H273.248V196.341V174.908C273.277 175.666 272.739 176.471 271.66 177.093H271.666Z" fill="#873EF9"/>
<path d="M224.179 171.139C226.098 170.033 229.027 169.911 230.691 170.869L239.562 175.986L273.254 174.902C273.231 174.312 272.862 173.754 272.135 173.336L230.691 149.434C229.027 148.475 226.098 148.597 224.179 149.704L178.812 175.869C177.765 176.474 177.229 177.252 177.227 177.99L214.371 176.796L224.179 171.139Z" fill="#FBF3FF"/>
<path d="M178.345 179.623L219.788 203.525C220.6 203.993 221.717 204.202 222.868 204.167C224.072 204.13 225.317 203.822 226.3 203.258L271.668 177.092C272.747 176.471 273.285 175.663 273.256 174.908V174.905L239.563 175.988L230.692 170.872C229.029 169.913 226.1 170.035 224.18 171.142L214.373 176.799L177.228 177.993C177.228 178.016 177.225 178.037 177.228 178.06C177.251 178.65 177.62 179.21 178.348 179.629L178.345 179.623Z" fill="#FBF3FF"/>
<path d="M194.736 200.614L187.907 196.675C186.906 196.097 186.086 196.715 186.086 198.049C186.086 199.383 186.906 200.946 187.907 201.524L194.736 205.463C195.736 206.042 196.557 205.423 196.557 204.089C196.557 202.756 195.736 201.193 194.736 200.614Z" fill="white"/>
<path d="M187.907 194.876L210.404 207.852C211.405 208.43 212.225 207.811 212.225 206.477C212.225 205.144 211.405 203.581 210.404 203.003L187.907 190.027C186.906 189.449 186.086 190.068 186.086 191.402C186.086 192.735 186.906 194.298 187.907 194.876Z" fill="white"/>
<path d="M210.439 209.67L203.61 205.73C202.609 205.152 201.789 205.771 201.789 207.105C201.789 208.438 202.609 210.001 203.61 210.579L210.439 214.519C211.44 215.097 212.26 214.478 212.26 213.145C212.26 211.811 211.44 210.248 210.439 209.67Z" fill="white"/>
<path d="M219.79 180.727L178.346 156.825C177.619 156.406 177.25 155.846 177.227 155.256V176.567H177.232C177.206 177.2 177.57 177.81 178.346 178.258L219.79 202.16C220.549 202.599 221.573 202.808 222.643 202.805L222.873 181.366C221.721 181.404 220.604 181.195 219.793 180.724L219.79 180.727Z" fill="#E3AEFE"/>
<path d="M271.666 154.291L226.299 180.457C225.318 181.023 224.074 181.328 222.867 181.366L222.637 202.805C223.911 202.802 225.254 202.494 226.296 201.89L271.663 175.724C272.695 175.128 273.23 174.361 273.245 173.635H273.248V173.539V152.106C273.277 152.865 272.739 153.67 271.66 154.291H271.666Z" fill="#D891FD"/>
<path d="M273.256 152.104C273.232 151.514 272.863 150.956 272.136 150.538L230.692 126.636C229.032 125.677 226.1 125.799 224.18 126.906L178.813 153.072C177.766 153.676 177.231 154.454 177.228 155.192C177.228 155.216 177.225 155.236 177.228 155.259C177.251 155.849 177.62 156.41 178.348 156.828L219.791 180.73C220.603 181.198 221.719 181.407 222.871 181.373C224.075 181.335 225.32 181.027 226.303 180.463L271.67 154.298C272.749 153.676 273.288 152.868 273.258 152.113L273.256 152.104Z" fill="#D78DFD"/>
<path d="M189.485 171.602L187.926 170.701C186.926 170.123 186.105 170.742 186.105 172.075C186.105 173.409 186.926 174.972 187.926 175.55L189.485 176.451C190.486 177.029 191.306 176.41 191.306 175.077C191.306 173.743 190.486 172.18 189.485 171.602Z" fill="#FAF7F9"/>
<path d="M199.954 177.639L198.395 176.738C197.394 176.16 196.574 176.779 196.574 178.112C196.574 179.446 197.394 181.009 198.395 181.587L199.954 182.488C200.954 183.066 201.775 182.447 201.775 181.114C201.775 179.78 200.954 178.217 199.954 177.639Z" fill="#FAF7F9"/>
<path d="M210.423 183.676L208.864 182.775C207.863 182.197 207.043 182.816 207.043 184.15C207.043 185.483 207.863 187.046 208.864 187.624L210.423 188.525C211.423 189.103 212.243 188.484 212.243 187.151C212.243 185.817 211.423 184.254 210.423 183.676Z" fill="#FAF7F9"/>
<path d="M14.8788 199.621L71.5019 232.277C74.2388 233.855 76.4784 232.164 76.4784 228.521V182.395C76.4784 178.752 74.2388 174.478 71.5019 172.898L14.8788 140.241C12.1419 138.664 9.90234 140.355 9.90234 143.998V190.123C9.90234 193.767 12.1419 198.04 14.8788 199.621Z" fill="#D891FD"/>
<path d="M64.8668 238.288L74.7412 232.536L11.7049 139.945L0.539062 146.381" fill="#873EF9"/>
<path d="M7.98828 98.814L9.53561 97.9395L65.4752 174.42L63.9308 175.294" fill="#D78DFD"/>
<path d="M65.4752 174.42L7.98828 143.03L9.53561 97.9395L65.4752 130.2V174.42Z" fill="#D78DFD"/>
<path d="M59.0083 136.935L16 112.13V109.172L59.0083 133.975V136.935Z" fill="#D78DFD"/>
<path d="M59.0083 146.691L16 121.888V118.931L59.0083 143.734V146.691Z" fill="#D78DFD"/>
<path d="M59.0083 156.451L16 131.648V128.688L59.0083 153.49V156.451Z" fill="#D78DFD"/>
<path d="M59.0083 166.21L16 141.404V138.446L59.0083 163.249V166.21Z" fill="#D78DFD"/>
<path d="M63.9308 175.294L7.98828 143.03V98.8135L63.9308 131.074V175.294Z" fill="#DD9EFE"/>
<path d="M57.4624 137.809L14.457 113.006V110.046L57.4624 134.849V137.809Z" fill="#F6E6FF"/>
<path d="M57.4624 147.565L14.457 122.762V119.805L57.4624 144.608V147.565Z" fill="#F6E6FF"/>
<path d="M57.4624 157.325L14.457 132.522V129.564L57.4624 154.367V157.325Z" fill="#F6E6FF"/>
<path d="M57.4624 167.084L14.457 142.281V139.32L57.4624 164.123V167.084Z" fill="#F6E6FF"/>
<path d="M61.5996 178.668L30.9787 161.009V158.284C30.9787 154.641 28.7391 150.367 26.0022 148.786L4.97648 136.659C2.23956 135.082 0 136.773 0 140.416V195.894C0 199.537 2.23956 203.811 4.97648 205.391L61.5996 238.047C64.3365 239.625 66.576 237.934 66.576 234.291V188.165C66.576 184.522 64.3365 180.248 61.5996 178.668Z" fill="#E3AEFE"/>
<path d="M7.27276 107.69C8.97424 108.672 9.63448 110.47 9.63448 112.536C9.63448 114.602 8.97715 115.688 7.27276 114.703L5.30078 113.567V106.554L7.27276 107.69ZM6.42056 113.009L7.10988 113.407C7.9708 113.904 8.48852 113.622 8.48852 111.905C8.48852 110.595 8.17731 109.407 7.10988 108.794L6.42056 108.396V113.009Z" fill="#B630FC"/>
<path d="M10.2461 112.498C10.2461 110.505 11.1012 109.764 12.5351 110.589C13.969 111.417 14.8183 113.148 14.8183 115.133V116.007C14.8183 117.986 13.9632 118.695 12.5264 117.867C11.0954 117.042 10.2461 115.351 10.2461 113.372V112.498ZM11.3804 114.032C11.3804 115.342 11.8574 116.251 12.5293 116.638C13.2041 117.027 13.6781 116.67 13.6781 115.359V114.465C13.6781 113.16 13.2041 112.207 12.5293 111.818C11.8545 111.429 11.3804 111.832 11.3804 113.137V114.032Z" fill="#B630FC"/>
<path d="M16.6148 116.993C16.6148 118.344 17.0482 119.224 17.7258 119.616C18.389 120 18.7322 119.596 18.7322 118.872L19.8054 119.491V119.645C19.8054 120.921 19.0463 121.627 17.7055 120.854C16.3036 120.046 15.4805 118.384 15.4805 116.333V115.543C15.4805 113.492 16.3152 112.771 17.7113 113.576C19.0143 114.329 19.8054 115.915 19.8054 117.272V117.42L18.7322 116.801C18.7322 116.08 18.3803 115.212 17.7171 114.828C17.0511 114.445 16.6148 114.854 16.6148 116.202V116.993Z" fill="#B630FC"/>
<path d="M1.59387 99.8018L0 100.717L1.59387 102.815V116.037L19.4493 126.336L21.9244 129.596L23.5183 128.681V112.446L1.59387 99.8018Z" fill="#B630FC"/>
<path d="M21.9244 129.596L0 116.952V100.717L21.9244 113.361V129.596Z" fill="#C457FD"/>
<path d="M5.68291 108.605C7.3844 109.587 8.04463 111.385 8.04463 113.451C8.04463 115.517 7.38731 116.603 5.68291 115.618L3.71094 114.482V107.469L5.68291 108.605ZM4.83072 113.924L5.52004 114.322C6.38096 114.819 6.89868 114.537 6.89868 112.82C6.89868 111.51 6.58746 110.322 5.52004 109.709L4.83072 109.311V113.924Z" fill="#E1AAFE"/>
<path d="M8.65234 113.41C8.65234 111.417 9.50745 110.676 10.9413 111.501C12.3752 112.329 13.2245 114.061 13.2245 116.045V116.919C13.2245 118.898 12.3694 119.607 10.9326 118.779C9.50163 117.954 8.65234 116.263 8.65234 114.284V113.41ZM9.78667 114.944C9.78667 116.254 10.2637 117.164 10.9355 117.55C11.6103 117.939 12.0844 117.582 12.0844 116.272V115.377C12.0844 114.072 11.6103 113.119 10.9355 112.73C10.2637 112.344 9.78667 112.744 9.78667 114.049V114.944Z" fill="#E1AAFE"/>
<path d="M15.021 117.908C15.021 119.259 15.4544 120.139 16.1321 120.531C16.7952 120.915 17.1384 120.511 17.1384 119.788L18.2117 120.406V120.56C18.2117 121.836 17.4526 122.542 16.1117 121.769C14.7098 120.961 13.8867 119.299 13.8867 117.248V116.458C13.8867 114.407 14.7215 113.686 16.1176 114.491C17.4206 115.244 18.2117 116.83 18.2117 118.187V118.335L17.1384 117.716C17.1384 116.995 16.7865 116.127 16.1234 115.743C15.4573 115.36 15.021 115.769 15.021 117.118V117.908Z" fill="#E1AAFE"/>
<path d="M98.7186 264.546C98.7186 257.786 94.603 249.93 89.5277 247.004C88.7802 246.574 88.056 246.278 87.3608 246.1C85.6099 237.425 80.2611 228.761 73.9351 225.112C73.8217 225.048 73.7111 224.99 73.6006 224.929C72.1318 214.833 65.9687 204.339 58.5868 200.083C54.6109 197.79 50.9927 197.715 48.2645 199.443L41.8948 203.101L39.728 206.794C38.0789 204.935 36.2698 203.389 34.3734 202.296C30.8425 200.26 27.6169 200.141 25.1534 201.588L19.1357 205.097L17.5912 208.621L11.207 212.305L14.546 215.031C14.5286 215.341 14.5169 215.658 14.5169 215.986C14.5169 222.747 18.6325 230.603 23.7079 233.532L34.3763 239.685L69.7148 260.066L88.9518 275.767L95.3971 272.057C97.4272 270.982 98.7215 268.341 98.7215 264.549L98.7186 264.546Z" fill="#873EF9"/>
<path d="M14.1547 211.887C15.8475 205.077 21.2399 202.492 27.6328 206.178C30.9951 208.116 34.081 211.475 36.498 215.493C36.5213 204.246 43.3825 199.084 51.8433 203.962C59.2252 208.218 65.3854 218.712 66.8571 228.808C66.9676 228.869 67.0782 228.924 67.1916 228.991C73.5205 232.64 78.8664 241.304 80.6173 249.98C81.3125 250.157 82.0367 250.453 82.7842 250.883C87.8595 253.812 91.9751 261.665 91.9751 268.428C91.9751 275.189 87.8595 278.298 82.7842 275.369L67.1916 266.377L27.6328 243.562L16.9644 237.408C11.889 234.479 7.77344 226.626 7.77344 219.863C7.77344 214.406 10.4551 211.333 14.1576 211.885L14.1547 211.887Z" fill="#DB9AFE"/>
<path d="M93.3808 50.9865L87.4445 42.9997C86.5982 41.8608 84.7891 42.4593 84.7891 43.8771V53.0057C84.7891 53.9296 85.6325 54.624 86.54 54.4497L92.4763 53.3079C93.5408 53.1016 94.0265 51.8552 93.3808 50.9865Z" fill="#B630FC"/>
<path d="M103.527 57.9128C103.527 47.3896 97.1225 35.1639 89.2201 30.6054C85.4826 28.4496 82.0797 28.4002 79.5289 30.0563L75.169 32.5549L76.0823 34.5305C75.329 36.4132 74.9102 38.7259 74.9102 41.4104C74.9102 51.9336 81.3147 64.1593 89.2172 68.7178C90.366 69.3802 91.48 69.8363 92.5503 70.1152L93.58 72.3436L98.7164 69.3889C101.666 67.5963 103.524 63.5811 103.524 57.9128H103.527Z" fill="#B630FC"/>
<path d="M92.8873 72.6922C99.2017 70.0084 100.47 58.7935 95.7204 47.6432C90.9707 36.4928 82.0015 29.6294 75.6871 32.3133C69.3727 34.9971 68.1043 46.212 72.854 57.3623C77.6037 68.5127 86.5729 75.3761 92.8873 72.6922Z" fill="#DB9AFE"/>
<path d="M89.09 54.6904L81.2865 44.1876C80.8298 43.5746 79.8555 43.8971 79.8555 44.6612V56.6632C79.8555 57.16 80.3092 57.5348 80.7978 57.4418L88.6014 55.9427C89.1744 55.8322 89.4361 55.1611 89.09 54.6904Z" fill="white"/>
<path d="M261.234 289.782L288.787 277.188L327.831 354.037L261.234 315.631V289.782Z" fill="#D78DFD"/>
<path d="M343.297 351.683L319.625 303.582L305.07 309.239L327.829 354.036L343.297 362.959V351.683Z" fill="#D78DFD"/>
<path d="M322.639 292.569C326.508 290.924 327.286 284.053 324.376 277.221C321.466 270.39 315.97 266.185 312.1 267.83C308.231 269.474 307.453 276.346 310.363 283.177C313.273 290.009 318.769 294.214 322.639 292.569Z" fill="#D78DFD"/>
<path d="M343.299 362.959V274.526L261.236 227.198L257.105 229.575L261.236 236.411V315.631L334.751 358.029L339.166 365.336L343.299 362.959Z" fill="#873EF9"/>
<path d="M339.166 365.336L257.105 318.008V229.575L339.166 276.903V365.336Z" fill="#DC9CFE"/>
<path d="M257.105 292.159L284.658 279.564L323.702 356.417L257.105 318.008V292.159Z" fill="#F3DCFE"/>
<path d="M339.168 354.061L315.496 305.96L300.941 311.617L323.703 356.417L339.168 365.337V354.061Z" fill="#E3AEFE"/>
<path d="M318.506 294.945C322.375 293.3 323.153 286.429 320.243 279.597C317.333 272.766 311.837 268.561 307.968 270.206C304.098 271.85 303.32 278.722 306.23 285.553C309.14 292.385 314.636 296.59 318.506 294.945Z" fill="#2AC2FF"/>
<path d="M345.001 165.364C345.001 159.64 341.517 152.993 337.221 150.515C336.59 150.151 335.976 149.899 335.385 149.75C333.902 142.409 329.376 135.076 324.022 131.987C323.926 131.932 323.833 131.885 323.74 131.833C322.495 123.289 317.28 114.404 311.032 110.801C307.667 108.861 304.605 108.797 302.295 110.261L296.903 113.358L295.07 116.484C293.674 114.909 292.144 113.602 290.539 112.675C287.549 110.952 284.821 110.851 282.735 112.074L277.643 115.043L276.334 118.027L270.93 121.144L273.757 123.451C273.742 123.713 273.731 123.983 273.731 124.259C273.731 129.982 277.215 136.63 281.511 139.108L290.542 144.317L320.453 161.569L336.735 174.861L342.191 171.721C343.91 170.811 345.004 168.574 345.004 165.367L345.001 165.364Z" fill="#873EF9"/>
<path d="M273.42 120.793C274.854 115.028 279.417 112.838 284.827 115.961C287.674 117.603 290.283 120.444 292.331 123.846C292.351 114.325 298.16 109.956 305.32 114.087C311.568 117.69 316.783 126.574 318.028 135.119C318.121 135.171 318.217 135.218 318.31 135.273C323.664 138.361 328.193 145.694 329.673 153.036C330.261 153.187 330.875 153.437 331.509 153.8C335.805 156.279 339.289 162.926 339.289 168.65C339.289 174.373 335.805 177.002 331.509 174.524L318.31 166.912L284.827 147.6L275.796 142.391C271.5 139.913 268.016 133.265 268.016 127.542C268.016 122.922 270.284 120.322 273.42 120.79V120.793Z" fill="#E1AAFE"/>
<path d="M128.151 325.475L75.6172 295.178V276.331L128.151 306.628V325.475Z" fill="#E8BFFE"/>
<path d="M85.5795 293.017L82.8164 291.422V288.389L85.5795 289.984V293.017Z" fill="#B630FC"/>
<path d="M120.957 313.418L118.191 311.823V308.79L120.957 310.385V313.418Z" fill="#B630FC"/>
<path d="M103.27 303.217L100.504 301.622V298.589L103.27 300.184V303.217Z" fill="#B630FC"/>
<path d="M94.4262 298.116L91.6602 296.521V293.49L94.4262 295.082V298.116Z" fill="#B630FC"/>
<path d="M112.111 308.317L109.348 306.722V303.691L112.111 305.284V308.317Z" fill="#B630FC"/>
<path d="M175.733 298.028L123.199 267.731V248.884L175.733 279.181V298.028Z" fill="#FBF3FF"/>
<path d="M133.162 265.57L130.398 263.975V260.941L133.162 262.536V265.57Z" fill="#B630FC"/>
<path d="M168.539 285.971L165.773 284.376V281.343L168.539 282.938V285.971Z" fill="#B630FC"/>
<path d="M150.852 275.77L148.086 274.175V271.142L150.852 272.737V275.77Z" fill="#B630FC"/>
<path d="M142.008 270.668L139.242 269.073V266.043L142.008 267.635V270.668Z" fill="#B630FC"/>
<path d="M159.693 280.869L156.93 279.274V276.244L159.693 277.836V280.869Z" fill="#B630FC"/>
<path d="M75.6172 276.331L123.201 248.884L175.734 279.181L128.151 306.628L75.6172 276.331Z" fill="#FAF1FF"/>
<path d="M128.152 325.475L175.736 298.028V279.181L128.152 306.628V325.475Z" fill="#DC9CFE"/>
<path d="M107.14 240.334L144.209 251.601V282.409L144.197 282.406C144.322 283.699 143.432 285.094 141.582 286.163C138.406 287.993 133.561 288.194 130.809 286.61L108.992 274.027C107.686 273.275 107.081 272.249 107.143 271.183H107.137V240.337L107.14 240.334Z" fill="#D993FD"/>
<path d="M108.995 242.986L130.812 255.569C133.561 257.155 138.409 256.955 141.585 255.122C144.761 253.291 145.108 250.493 142.359 248.91L120.542 236.327C117.794 234.741 112.945 234.941 109.769 236.774C106.593 238.605 106.247 241.403 108.995 242.986Z" fill="#E0A8FE"/>
<path d="M129.947 234.596C129.947 234.677 129.947 234.758 129.941 234.84V234.596H129.947Z" fill="#F3DCFE"/>
<path d="M138.024 249.701C137.875 249.303 137.55 248.934 137.035 248.637C136.482 248.318 135.784 248.135 135.037 248.059V240.467C135.042 240.284 135.048 240.098 135.048 239.91C135.048 231.885 130.165 222.565 124.141 219.09C118.118 215.615 113.234 219.305 113.234 227.326C113.234 227.422 113.237 227.515 113.24 227.611V237.402L113.234 237.379V241.711L113.246 241.722C113.258 242.298 113.612 242.844 114.325 243.254C115.102 243.701 116.157 243.899 117.248 243.87C117.271 243.87 117.292 243.87 117.315 243.87C117.731 243.855 118.15 243.808 118.56 243.727C119.278 243.585 119.973 243.341 120.567 242.998C120.607 242.975 120.645 242.949 120.683 242.925C122.417 241.859 122.579 240.302 121.015 239.398C120.5 239.102 119.86 238.913 119.168 238.829C119.118 238.823 119.069 238.823 119.022 238.817V230.668C119.022 226.902 121.314 225.171 124.141 226.803C126.968 228.433 129.26 232.809 129.26 236.571C129.26 236.667 129.26 236.757 129.255 236.85V247.237C129.255 247.347 129.26 247.458 129.266 247.568V250.903L129.275 250.912C129.266 251.505 129.612 252.071 130.345 252.495C131.113 252.937 132.157 253.135 133.242 253.111C133.268 253.111 133.294 253.111 133.321 253.111C133.385 253.111 133.452 253.103 133.515 253.1C133.524 253.1 133.533 253.1 133.542 253.1C134.618 253.033 135.711 252.748 136.593 252.24C136.674 252.193 136.75 252.141 136.825 252.092C137.902 251.389 138.317 250.488 138.027 249.703L138.024 249.701Z" fill="#C862FD"/>
<path d="M119.195 264.254L120.995 263.606L122.627 268.455L119.774 270.062L117.281 266.654L119.195 264.254Z" fill="#C457FD"/>
<path d="M114.418 261.741C114.418 265.68 116.815 270.256 119.773 271.962C122.731 273.667 125.127 271.857 125.127 267.918C125.127 263.978 122.731 259.402 119.773 257.697C116.815 255.991 114.418 257.801 114.418 261.741ZM118.551 262.453C118.551 261.555 119.098 261.142 119.773 261.532C120.447 261.921 120.994 262.964 120.994 263.862C120.994 264.481 120.735 264.87 120.351 264.925V267.691C120.351 268.118 120.092 268.313 119.773 268.127C119.453 267.944 119.194 267.447 119.194 267.023V264.257C118.81 263.76 118.551 263.074 118.551 262.453Z" fill="#E6B9FE"/>
<path d="M122.091 240.319C122.091 240.299 122.091 240.279 122.091 240.258C122.091 240.212 122.088 240.162 122.085 240.113V229.584C122.085 228.19 122.402 227.074 122.943 226.304C120.695 225.726 119.022 227.449 119.022 230.665V241.194C119.022 241.243 119.028 241.29 119.028 241.339C119.028 242.025 118.891 242.588 118.656 243.013C118.342 243.576 117.844 243.881 117.248 243.873L117.242 243.878C117.242 243.878 118.161 243.899 119.203 243.57C120.843 243.053 121.457 242.385 121.782 241.914C122.108 241.444 122.091 240.95 122.091 240.95V240.319Z" fill="#DDA0FE"/>
<path d="M138.112 250.192V249.561C138.112 249.541 138.112 249.52 138.112 249.497C138.112 249.401 138.107 249.305 138.101 249.21V239.387C138.107 239.204 138.112 239.018 138.112 238.829C138.112 230.804 133.229 221.484 127.205 218.009C124.937 216.699 122.828 216.408 121.083 216.983L117.988 218.076C119.739 217.489 121.86 217.777 124.143 219.093C130.166 222.567 135.05 231.888 135.05 239.912C135.05 240.101 135.044 240.284 135.038 240.47V250.293C135.044 250.389 135.05 250.485 135.05 250.581C135.05 252.185 134.314 253.135 133.27 253.114L133.264 253.12C133.264 253.12 134.183 253.14 135.224 252.812C136.865 252.295 137.478 251.627 137.804 251.156C138.13 250.685 138.112 250.192 138.112 250.192Z" fill="#DDA0FE"/>
<path d="M290.007 365.598C290.007 355.164 283.658 343.043 275.823 338.526C274.671 337.86 273.551 337.404 272.478 337.131C269.776 323.743 261.524 310.376 251.76 304.745C251.586 304.646 251.417 304.559 251.243 304.463C248.974 288.885 239.466 272.69 228.076 266.121C221.942 262.585 216.355 262.466 212.149 265.136L202.321 270.781L198.979 276.479C196.435 273.608 193.642 271.226 190.716 269.538C185.269 266.394 180.292 266.211 176.488 268.443H176.485L167.201 273.855L164.816 279.294L154.965 284.977L160.116 289.181C160.087 289.66 160.069 290.149 160.069 290.654C160.069 301.087 166.419 313.208 174.254 317.726L190.716 327.221L245.245 358.668L274.93 382.896L284.877 377.172C288.009 375.514 290.007 371.437 290.007 365.589V365.598Z" fill="#873EF9"/>
<path d="M159.512 284.344C162.127 273.835 170.445 269.844 180.308 275.532C185.497 278.525 190.258 283.702 193.987 289.908C194.025 272.551 204.612 264.585 217.668 272.116C229.058 278.685 238.566 294.879 240.835 310.457C241.006 310.55 241.178 310.638 241.352 310.739C251.116 316.37 259.368 329.737 262.07 343.125C263.143 343.398 264.26 343.857 265.414 344.52C273.247 349.038 279.599 361.159 279.599 371.592C279.599 382.025 273.25 386.822 265.414 382.304L241.352 368.428L180.311 333.224L163.849 323.729C156.016 319.211 149.664 307.09 149.664 296.657C149.664 288.237 153.8 283.493 159.515 284.347L159.512 284.344Z" fill="#E1AAFE"/>
<path d="M199.027 367.425C199.027 367.387 199.027 367.352 199.027 367.314V336.213V325.477L196.171 323.83L177.606 313.124L174.75 311.477V346.823C172.879 344.069 170.288 341.776 167.539 340.722C162.569 338.816 158.991 341.681 159.55 347.116C160.108 352.552 164.587 358.505 169.558 360.411C174.171 362.181 177.577 359.836 177.6 355.144H177.606V323.859L196.171 334.565V359.174C194.304 356.419 191.709 354.13 188.963 353.078C183.993 351.172 180.415 354.037 180.974 359.473C181.532 364.909 186.011 370.862 190.982 372.768C195.595 374.537 199.001 372.193 199.024 367.5V367.428L199.027 367.425Z" fill="#E3B0FE"/>
<path d="M177.606 323.856V355.144L177.6 355.141C177.588 357.611 176.634 359.421 175.066 360.33L175.075 360.342L178.225 358.526V358.517C179.874 357.634 180.878 355.786 180.889 353.25H180.895V325.754L177.608 323.859L177.606 323.856Z" fill="#C864FD"/>
<path d="M167.541 340.719C170.289 341.77 172.881 344.063 174.751 346.82V341.241C173.526 340.196 172.2 339.353 170.827 338.827C168.55 337.956 166.572 338.092 165.144 339.01L165.132 339.004L162.113 340.736C163.518 339.966 165.397 339.899 167.538 340.719H167.541Z" fill="#C864FD"/>
<path d="M199.458 321.936L178.037 309.582L174.75 311.473L177.606 313.121L196.171 323.827L199.027 325.474V336.21V367.311C199.027 367.349 199.027 367.384 199.027 367.422V367.497C199.016 369.955 198.071 371.759 196.512 372.675L196.52 372.686L199.644 370.885V370.876C201.299 369.993 202.302 368.145 202.314 365.606V365.533C202.314 365.495 202.314 365.461 202.314 365.423V334.321V333.662V323.586L199.458 321.938V321.936Z" fill="#C864FD"/>
<path d="M183.363 353.191V353.197C183.398 353.179 183.421 353.156 183.453 353.139L183.363 353.191Z" fill="#C864FD"/>
<path d="M192.252 351.184C189.968 350.309 187.985 350.449 186.557 351.376L186.542 351.37L183.488 353.122C184.899 352.323 186.798 352.247 188.962 353.078C191.708 354.13 194.302 356.422 196.169 359.174V353.59C194.948 352.547 193.619 351.71 192.249 351.187L192.252 351.184Z" fill="#C864FD"/>
</svg>
