<svg width="100" height="100" viewBox="0 0 100 100" fill="none" xmlns="http://www.w3.org/2000/svg">
<path d="M71 60L84 46" stroke="black" stroke-width="3" stroke-linecap="round" stroke-linejoin="round"/>
<path d="M78 68L84 63" stroke="black" stroke-width="3" stroke-linecap="round" stroke-linejoin="round"/>
<path d="M74 40L84 32" stroke="black" stroke-width="3" stroke-linecap="round" stroke-linejoin="round"/>
<path d="M84 16L70 30" stroke="black" stroke-width="3" stroke-linecap="round" stroke-linejoin="round"/>
<path d="M68 16L63 22" stroke="black" stroke-width="3" stroke-linecap="round" stroke-linejoin="round"/>
<path d="M26 58L16 68" stroke="black" stroke-width="3" stroke-linecap="round" stroke-linejoin="round"/>
<path d="M24 46L16 54" stroke="black" stroke-width="3" stroke-linecap="round" stroke-linejoin="round"/>
<path d="M54 16L49 20" stroke="black" stroke-width="3" stroke-linecap="round" stroke-linejoin="round"/>
<path d="M37 16L16 37" stroke="black" stroke-width="3" stroke-linecap="round" stroke-linejoin="round"/>
<path d="M22 16L16 22" stroke="black" stroke-width="3" stroke-linecap="round" stroke-linejoin="round"/>
<path d="M57.3488 60.819C60.2375 59.419 62.6655 57.2738 64.3619 54.6228C66.0582 51.9718 66.9562 48.9192 66.9557 45.8056C66.9557 36.5243 59.1403 29 49.5 29C39.8597 29 32.0443 36.5243 32.0443 45.8056C32.0437 48.9191 32.9415 51.9716 34.6375 54.6226C36.3336 57.2735 38.7613 59.4188 41.6497 60.819C33.6883 63.4712 27.6566 70.0438 26.0935 78.1104C25.5889 80.7168 27.1647 82.8481 29.8957 83.1888C33.2218 83.6028 39.1171 84 49.5 84C59.883 84 65.7783 83.6028 69.1028 83.1903C71.8338 82.8481 73.4112 80.7168 72.9065 78.1104C71.3435 70.0438 65.3101 63.4712 57.3488 60.819Z" stroke="#00CCF5" stroke-width="3" stroke-linecap="round" stroke-linejoin="round"/>
</svg>
