<svg width="100" height="100" viewBox="0 0 100 100" fill="none" xmlns="http://www.w3.org/2000/svg">
<path d="M68.292 25.6074C63.904 22.2348 58.6419 20.1435 53.1054 19.5719C47.5689 19.0003 41.9806 19.9714 36.9774 22.3744C31.9742 24.7774 27.7573 28.5158 24.8072 33.1635C21.8572 37.8112 20.2927 43.1812 20.292 48.6617V55.4124" stroke="black" stroke-width="3" stroke-linecap="round" stroke-linejoin="round"/>
<path d="M32.292 72.2225C36.5899 75.5936 41.7435 77.6833 47.1657 78.2535C52.5878 78.8238 58.0602 77.8515 62.9593 75.4477C67.8583 73.0438 71.987 69.305 74.8747 64.6574C77.7624 60.0098 79.293 54.6403 79.292 49.1608V42.4124" stroke="black" stroke-width="3" stroke-linecap="round" stroke-linejoin="round"/>
<path d="M16.292 51.4124L20.792 55.4124L25.292 51.4124" stroke="black" stroke-width="3" stroke-linecap="round" stroke-linejoin="round"/>
<path d="M84.292 46.4124L79.792 42.4124L75.292 46.4124" stroke="black" stroke-width="3" stroke-linecap="round" stroke-linejoin="round"/>
<path d="M59.292 53.4124V60.1624C59.292 60.7591 59.0549 61.3314 58.633 61.7533C58.211 62.1753 57.6387 62.4124 57.042 62.4124H43.542C42.9453 62.4124 42.373 62.1753 41.951 61.7533C41.529 61.3314 41.292 60.7591 41.292 60.1624V53.4124" stroke="#00CCF5" stroke-width="3" stroke-linecap="round" stroke-linejoin="round"/>
<path d="M36.292 46.4124L49.792 35.4124L63.292 46.4124" stroke="#00CCF5" stroke-width="3" stroke-linecap="round" stroke-linejoin="round"/>
</svg>
