<svg width="100" height="100" viewBox="0 0 100 100" fill="none" xmlns="http://www.w3.org/2000/svg">
<path d="M11.6885 16.6523L16.8323 23.123V38.4003C16.6951 44.1734 23.4061 49.3445 29.6885 54.6523" stroke="black" stroke-width="3" stroke-linecap="round" stroke-linejoin="round"/>
<path d="M27.3744 34.2101L33.0184 40.3958C33.3746 40.7869 33.7992 41.0992 34.2681 41.3147C34.7371 41.5302 35.2411 41.6449 35.7514 41.652C36.2617 41.6591 36.7683 41.5586 37.2424 41.3563C37.7164 41.1539 38.1485 40.8536 38.5141 40.4726C38.8796 40.0915 39.1715 39.6372 39.3729 39.1354C39.5744 38.6337 39.6815 38.0945 39.6881 37.5484C39.6948 37.0024 39.6009 36.4603 39.4118 35.9532C39.2226 35.446 38.942 34.9836 38.5859 34.5925L29.8088 25.0102V20.0159C29.3333 17.0233 28.2698 14.1727 26.6885 11.6523" stroke="black" stroke-width="3" stroke-linecap="round" stroke-linejoin="round"/>
<path d="M29.6885 36.6523V78.4731C29.6885 79.8467 30.2328 81.1641 31.2018 82.1354C32.1707 83.1067 33.4849 83.6523 34.8551 83.6523H60.6885" stroke="black" stroke-width="3" stroke-linecap="round" stroke-linejoin="round"/>
<path d="M88.6885 83.626L83.473 77.1303V61.7974C83.5947 56.7883 78.5322 52.2323 73.0421 47.6523V65.9104L66.9574 59.758C66.1736 58.9636 65.1022 58.5091 63.9791 58.4946C62.8559 58.4801 61.7729 58.9068 60.9683 59.6808C60.1638 60.4547 59.7035 61.5126 59.6888 62.6217C59.6742 63.7307 60.1063 64.8001 60.8901 65.5946L70.4692 75.2352V80.2546C70.99 83.2594 72.1488 86.1213 73.8696 88.6523" stroke="black" stroke-width="3" stroke-linecap="round" stroke-linejoin="round"/>
<path d="M53.6885 70.6523H39.6885" stroke="black" stroke-width="3" stroke-linecap="round" stroke-linejoin="round"/>
<path d="M44.6885 57.6523H39.6885" stroke="black" stroke-width="3" stroke-linecap="round" stroke-linejoin="round"/>
<path d="M77.6885 27.1523C77.6885 30.2179 76.8087 33.2147 75.1605 35.7637C73.5123 38.3126 71.1696 40.2993 68.4287 41.4725C65.6878 42.6456 62.6718 42.9526 59.7621 42.3545C56.8524 41.7564 54.1797 40.2802 52.0819 38.1125C49.9841 35.9448 48.5555 33.1829 47.9767 30.1762C47.3979 27.1695 47.695 24.053 48.8303 21.2207C49.9656 18.3885 51.8882 15.9677 54.3549 14.2646C56.8217 12.5614 59.7218 11.6523 62.6885 11.6523" stroke="#00CCF5" stroke-width="3" stroke-linecap="round" stroke-linejoin="round"/>
<path d="M77.6885 15.6523L63.7767 29.1064C63.5988 29.2794 63.3874 29.4167 63.1544 29.5104C62.9215 29.6041 62.6717 29.6523 62.4195 29.6523C62.1672 29.6523 61.9174 29.6041 61.6845 29.5104C61.4515 29.4167 61.2401 29.2794 61.0622 29.1064L56.6885 24.8733" stroke="#00CCF5" stroke-width="3" stroke-linecap="round" stroke-linejoin="round"/>
</svg>
