<svg width="100" height="100" viewBox="0 0 100 100" fill="none" xmlns="http://www.w3.org/2000/svg">
<path d="M76.9028 57.1549C80.0177 54.6197 82 50.6761 82 46.4507C82 38.8451 75.7698 32.6479 68.1239 32.6479C65.292 32.6479 62.4601 33.493 60.1948 35.1831C58.4955 25.3239 49.7167 18 39.239 18C27.6283 18 18 27.5775 18 39.1268C18 47.5775 22.8142 54.6197 29.8938 58" stroke="black" stroke-width="3" stroke-miterlimit="10" stroke-linecap="round" stroke-linejoin="round"/>
<path d="M54 65C54 65 54 64.7762 54 64.5C54 64.2238 54 64 54 64" stroke="black" stroke-width="3" stroke-miterlimit="10" stroke-linecap="round" stroke-linejoin="round"/>
<path d="M54 65C54.552 65 55 64.7762 55 64.5C55 64.2238 54.552 64 54 64" stroke="#00CCF5" stroke-width="3" stroke-miterlimit="10" stroke-linecap="round" stroke-linejoin="round"/>
<path d="M57.7577 49.582L58.8904 53.3118C59.1737 54.7462 60.59 55.3197 62.0063 55.0328L65.6889 54.1721C69.0881 53.3115 71.3539 57.3279 69.0878 59.9098L66.5384 62.7787C65.6887 63.9262 65.6887 65.3609 66.5384 66.2216L69.0878 69.0904C71.3539 71.6724 69.0881 75.6885 65.6889 74.8279L62.0063 73.9672C60.59 73.6803 59.4569 74.541 58.8904 75.6885L57.7577 79.418C56.6246 82.8607 52.0925 82.8607 51.2427 79.418L50.1097 75.6885C49.8264 74.2541 48.4101 73.6803 46.9938 73.9672L43.3113 74.8279C39.9122 75.6885 37.6461 71.6724 39.9122 69.0904L42.4615 66.2216C43.3113 65.0741 43.3113 63.6393 42.4615 62.7787L39.9122 59.9098C37.6461 57.3279 39.9122 53.3115 43.3113 54.1721L46.9938 55.0328C48.4101 55.3197 49.5431 54.4593 50.1097 53.3118L51.2427 49.582C52.3757 46.1393 56.9079 46.1393 57.7577 49.582Z" stroke="#00CCF5" stroke-width="3" stroke-miterlimit="10" stroke-linecap="round" stroke-linejoin="round"/>
</svg>
