<svg width="100" height="100" viewBox="0 0 100 100" fill="none" xmlns="http://www.w3.org/2000/svg">
<path d="M51.6328 50.2642L61.1275 29.3774L70.6223 50.2642" stroke="black" stroke-width="3" stroke-linecap="round" stroke-linejoin="round"/>
<path d="M53.7383 45.6367H68.518" stroke="black" stroke-width="3" stroke-linecap="round" stroke-linejoin="round"/>
<path d="M57.8221 67.7777H76.311C77.8197 67.7777 79.2667 67.1784 80.3336 66.1114C81.4006 65.0445 81.9999 63.5975 81.9999 62.0888V23.6889C81.9999 22.1801 81.4006 20.7331 80.3336 19.6662C79.2667 18.5994 77.8197 18 76.311 18H23.6889C22.1801 18 20.7331 18.5994 19.6662 19.6662C18.5994 20.7331 18 22.1801 18 23.6889V47.5822" stroke="black" stroke-width="3" stroke-linecap="round" stroke-linejoin="round"/>
<path d="M49.2888 79.1556C49.2888 79.91 48.989 80.6336 48.4557 81.1669C47.9224 81.7003 47.1987 82.0001 46.4444 82.0001H20.8444C20.09 82.0001 19.3666 81.7003 18.8331 81.1669C18.2997 80.6336 18 79.91 18 79.1556V69.2001C18 65.0509 19.6482 61.0718 22.5821 58.1378C25.516 55.204 29.4953 53.5557 33.6444 53.5557C37.7936 53.5557 41.7728 55.204 44.7067 58.1378C47.6405 61.0718 49.2888 65.0509 49.2888 69.2001V79.1556Z" stroke="#00CCF5" stroke-width="3" stroke-linecap="round" stroke-linejoin="round"/>
<path d="M18 73.4668H49.2888" stroke="#00CCF5" stroke-width="3" stroke-linecap="round" stroke-linejoin="round"/>
<path d="M27.2463 66.3553C26.8535 66.3553 26.5352 66.037 26.5352 65.6442C26.5352 65.2514 26.8535 64.9331 27.2463 64.9331" stroke="#00CCF5" stroke-width="3"/>
<path d="M27.2461 66.3553C27.6388 66.3553 27.9572 66.037 27.9572 65.6442C27.9572 65.2514 27.6388 64.9331 27.2461 64.9331" stroke="#00CCF5" stroke-width="3"/>
<path d="M40.0431 66.3553C39.6504 66.3553 39.332 66.037 39.332 65.6442C39.332 65.2514 39.6504 64.9331 40.0431 64.9331" stroke="#00CCF5" stroke-width="3"/>
<path d="M40.0469 66.3553C40.4396 66.3553 40.758 66.037 40.758 65.6442C40.758 65.2514 40.4396 64.9331 40.0469 64.9331" stroke="#00CCF5" stroke-width="3"/>
<path d="M33.6445 53.5556V47.8667" stroke="#00CCF5" stroke-width="3" stroke-linecap="round" stroke-linejoin="round"/>
<path d="M33.6456 47.8668C36.002 47.8668 37.9122 45.9565 37.9122 43.6002C37.9122 41.2437 36.002 39.3335 33.6456 39.3335C31.2891 39.3335 29.3789 41.2437 29.3789 43.6002C29.3789 45.9565 31.2891 47.8668 33.6456 47.8668Z" stroke="#00CCF5" stroke-width="3" stroke-linecap="round" stroke-linejoin="round"/>
</svg>
