<svg width="100" height="100" viewBox="0 0 100 100" fill="none" xmlns="http://www.w3.org/2000/svg">
<path d="M51.9598 43.602H30.801C27.406 43.602 24.15 42.2534 21.7493 39.8527C19.3487 37.4521 18 34.1961 18 30.801C18 27.406 19.3487 24.15 21.7493 21.7493C24.15 19.3487 27.406 18 30.801 18H64.9372C67.3961 17.9998 69.803 18.7079 71.8702 20.0395C73.9374 21.3711 75.5774 23.2699 76.5938 25.5089C77.6105 27.7478 77.9606 30.2322 77.6025 32.6649C77.2443 35.0977 76.1932 37.3758 74.5749 39.2269" stroke="black" stroke-width="3" stroke-linecap="round" stroke-linejoin="round"/>
<path d="M39.3351 69.204H30.801C27.406 69.204 24.15 67.8553 21.7493 65.4547C19.3487 63.0541 18 59.7981 18 56.403C18 53.0081 19.3487 49.7521 21.7493 47.3515C24.15 44.9509 27.406 43.6021 30.801 43.6021H49.9998" stroke="black" stroke-width="3" stroke-linecap="round" stroke-linejoin="round"/>
<path d="M45.7344 30.8008H64.9359" stroke="black" stroke-width="3" stroke-linecap="round" stroke-linejoin="round"/>
<path d="M64.9389 67.0706C67.2954 67.0706 69.2059 65.1604 69.2059 62.8036C69.2059 60.4471 67.2954 58.5366 64.9389 58.5366C62.5821 58.5366 60.6719 60.4471 60.6719 62.8036C60.6719 65.1604 62.5821 67.0706 64.9389 67.0706Z" stroke="#00CCF5" stroke-width="3" stroke-linecap="round" stroke-linejoin="round"/>
<path d="M68.5626 46.3048L69.8199 50.4381C70.0276 51.1243 70.4879 51.7057 71.1077 52.0653C71.7276 52.4252 72.4612 52.5358 73.1596 52.3754L77.3469 51.4053C78.1409 51.2253 78.9718 51.3044 79.7174 51.6312C80.463 51.9581 81.0843 52.5153 81.4896 53.2214C81.8953 53.9274 82.0637 54.7447 81.9704 55.5534C81.8771 56.3622 81.5266 57.1197 80.971 57.7148L78.041 60.8753C77.5517 61.4015 77.2795 62.0936 77.2795 62.8125C77.2795 63.5313 77.5517 64.2234 78.041 64.7497L80.971 67.9101C81.5266 68.5052 81.8771 69.2628 81.9704 70.0715C82.0637 70.8802 81.8953 71.6975 81.4896 72.4036C81.0843 73.1093 80.463 73.6669 79.7174 73.9937C78.9718 74.3206 78.1409 74.3997 77.3469 74.2196L73.1596 73.2496C72.4612 73.0891 71.7276 73.1998 71.1077 73.5594C70.4879 73.9192 70.0276 74.5007 69.8199 75.1868L68.5626 79.303C68.329 80.0825 67.8503 80.7661 67.1974 81.2519C66.5446 81.7378 65.7523 82.0001 64.9385 82.0001C64.1246 82.0001 63.3326 81.7378 62.6798 81.2519C62.0269 80.7661 61.5482 80.0825 61.3144 79.303L60.0542 75.1697C59.8474 74.4839 59.3877 73.9024 58.7681 73.5426C58.1485 73.183 57.4157 73.0721 56.7174 73.2325L52.5272 74.2025C51.7332 74.3826 50.9026 74.3035 50.157 73.9767C49.4114 73.6498 48.7901 73.0923 48.3845 72.3865C47.9791 71.6805 47.8107 70.8632 47.904 70.0544C47.9973 69.2457 48.3475 68.4882 48.903 67.8931L51.8359 64.7326C52.3255 64.2064 52.5974 63.5143 52.5974 62.7954C52.5974 62.0766 52.3255 61.3844 51.8359 60.8582L48.903 57.6978C48.3475 57.1026 47.9973 56.3451 47.904 55.5364C47.8107 54.7276 47.9791 53.9104 48.3845 53.2043C48.7901 52.4983 49.4114 51.941 50.157 51.6141C50.9026 51.2873 51.7332 51.2082 52.5272 51.3883L56.7174 52.3583C57.4157 52.5187 58.1485 52.4078 58.7681 52.0482C59.3877 51.6884 59.8474 51.1069 60.0542 50.4211L61.3144 46.2878C61.5499 45.5086 62.0304 44.8265 62.6843 44.342C63.3383 43.8578 64.1311 43.5972 64.945 43.5991C65.7586 43.601 66.5503 43.8653 67.202 44.3528C67.8537 44.8401 68.3307 45.5248 68.5626 46.3048Z" stroke="#00CCF5" stroke-width="3" stroke-linecap="round" stroke-linejoin="round"/>
<path d="M30.8011 31.8679C30.212 31.8679 29.7344 31.3903 29.7344 30.8011C29.7344 30.212 30.212 29.7344 30.8011 29.7344" stroke="black" stroke-width="3"/>
<path d="M30.8008 31.8679C31.3899 31.8679 31.8675 31.3903 31.8675 30.8011C31.8675 30.212 31.3899 29.7344 30.8008 29.7344" stroke="black" stroke-width="3"/>
<path d="M30.8011 57.4699C30.212 57.4699 29.7344 56.9926 29.7344 56.4032C29.7344 55.814 30.212 55.3364 30.8011 55.3364" stroke="black" stroke-width="3"/>
<path d="M30.8008 57.4699C31.3899 57.4699 31.8675 56.9926 31.8675 56.4032C31.8675 55.814 31.3899 55.3364 30.8008 55.3364" stroke="black" stroke-width="3"/>
</svg>
