<svg width="100" height="100" viewBox="0 0 100 100" fill="none" xmlns="http://www.w3.org/2000/svg">
<path d="M63.8572 88H38.1428C35.4 88 33 85.6667 33 83V53C33 50.3333 35.4 48 38.1428 48H63.8572C66.6 48 69 50.3333 69 53V83C69 85.6667 66.6 88 63.8572 88Z" stroke="#00CCF5" stroke-width="3" stroke-miterlimit="10" stroke-linecap="round" stroke-linejoin="round"/>
<path d="M33 68H69" stroke="#00CCF5" stroke-width="3" stroke-miterlimit="10" stroke-linecap="round" stroke-linejoin="round"/>
<path d="M44 56C43.4999 56 43 57 43 58C43 59 43.4999 60 44 60" stroke="#00CCF5" stroke-width="3" stroke-miterlimit="10" stroke-linecap="round" stroke-linejoin="round"/>
<path d="M44 56C44.5 56 45 57 45 58C45 59 44.5 60 44 60" stroke="#00CCF5" stroke-width="3" stroke-miterlimit="10" stroke-linecap="round" stroke-linejoin="round"/>
<path d="M44 76C43.4999 76 43 77 43 78C43 79 43.4999 80 44 80" stroke="#00CCF5" stroke-width="3" stroke-miterlimit="10" stroke-linecap="round" stroke-linejoin="round"/>
<path d="M44 76C44.5 76 45 77 45 78C45 79 44.5 80 44 80" stroke="#00CCF5" stroke-width="3" stroke-miterlimit="10" stroke-linecap="round" stroke-linejoin="round"/>
<path d="M60 57H55" stroke="#00CCF5" stroke-width="3" stroke-miterlimit="10" stroke-linecap="round" stroke-linejoin="round"/>
<path d="M60 77H55" stroke="#00CCF5" stroke-width="3" stroke-miterlimit="10" stroke-linecap="round" stroke-linejoin="round"/>
<path d="M79.2566 61C84.6371 58.2778 88 52.8333 88 46.3681C88 37.1805 80.6017 29.6944 71.5222 29.6944C68.1593 29.6944 64.7967 30.7152 62.1063 32.7569C59.7523 20.8472 49.6636 12 37.2212 12C23.4336 12 12 23.5694 12 37.5208C12 47.0486 17.0443 55.2153 24.4425 59.6389" stroke="black" stroke-width="3" stroke-miterlimit="10" stroke-linecap="round" stroke-linejoin="round"/>
</svg>
