<svg width="100" height="100" viewBox="0 0 100 100" fill="none" xmlns="http://www.w3.org/2000/svg">
<path d="M73.2143 29H26.7857C25.7143 29 25 28.2571 25 27.1429V17.8571C25 16.7429 25.7143 16 26.7857 16H73.2143C74.2857 16 75 16.7429 75 17.8571V27.1429C75 27.8857 74.2857 29 73.2143 29Z" stroke="black" stroke-width="3" stroke-miterlimit="10" stroke-linecap="round" stroke-linejoin="round"/>
<path d="M73.2143 54H26.7857C25.7143 54 25 53.3143 25 52.2857V43.7143C25 42.6857 25.7143 42 26.7857 42H73.2143C74.2857 42 75 42.6857 75 43.7143V52.2857C75 52.9714 74.2857 54 73.2143 54Z" stroke="black" stroke-width="3" stroke-miterlimit="10" stroke-linecap="round" stroke-linejoin="round"/>
<path d="M73.2143 68H26.7857C25.7143 68 25 68.6857 25 69.7143V78.2857C25 79.3143 25.7143 80 26.7857 80H73.2143C74.2857 80 75 79.3143 75 78.2857V69.7143C75 69.0286 74.2857 68 73.2143 68Z" stroke="black" stroke-width="3" stroke-miterlimit="10" stroke-linecap="round" stroke-linejoin="round"/>
<path d="M50 10V90" stroke="#00CCF5" stroke-width="3" stroke-miterlimit="10" stroke-linecap="round" stroke-linejoin="round"/>
</svg>
