<svg width="100" height="100" viewBox="0 0 100 100" fill="none" xmlns="http://www.w3.org/2000/svg">
<path d="M19 20V80H81.8235" stroke="black" stroke-width="3" stroke-linecap="round" stroke-linejoin="round"/>
<path d="M74.6724 49.2857C72.0519 53.2448 68.5044 56.5046 64.3383 58.7821C60.1722 61.0592 55.5131 62.2849 50.7656 62.353C46.0181 62.2849 41.359 61.0592 37.1928 58.7821C33.0266 56.5046 29.4792 53.2448 26.8587 49.2857C26.6663 48.9692 26.5645 48.6058 26.5645 48.2353C26.5645 47.8649 26.6663 47.5015 26.8587 47.185C29.4792 43.2257 33.0266 39.9659 37.1928 37.6887C41.359 35.4115 46.0181 34.1857 50.7656 34.1177C55.5122 34.1847 60.1707 35.4093 64.3369 37.685C68.5033 39.9607 72.051 43.2188 74.6724 47.1765C74.8664 47.4939 74.9691 47.8589 74.9691 48.2311C74.9691 48.6032 74.8664 48.968 74.6724 49.2857Z" stroke="#00CCF5" stroke-width="3" stroke-linecap="round" stroke-linejoin="round"/>
<path d="M50.4114 55.2942C54.3098 55.2942 57.4702 52.1338 57.4702 48.2353C57.4702 44.3369 54.3098 41.1765 50.4114 41.1765C46.5129 41.1765 43.3525 44.3369 43.3525 48.2353C43.3525 52.1338 46.5129 55.2942 50.4114 55.2942Z" stroke="#00CCF5" stroke-width="3" stroke-linecap="round" stroke-linejoin="round"/>
<path d="M19.7061 79.2941L34.0581 64.9421" stroke="black" stroke-width="3" stroke-linecap="round" stroke-linejoin="round"/>
<path d="M66.0576 20H79.0007V32.9431" stroke="black" stroke-width="3" stroke-linecap="round" stroke-linejoin="round"/>
<path d="M68.4004 30.5995L78.9999 20" stroke="black" stroke-width="3" stroke-linecap="round" stroke-linejoin="round"/>
</svg>
