<svg width="46" height="46" viewBox="0 0 46 46" fill="none" xmlns="http://www.w3.org/2000/svg">
<path d="M45.1949 22.0434L41.9934 17.9106L42.6996 12.7309C42.747 12.3884 42.6795 12.0398 42.5076 11.7398C42.3357 11.4398 42.0691 11.2053 41.7496 11.0731L36.9059 9.09339L34.9262 4.24964C34.7949 3.92872 34.5606 3.6606 34.2602 3.48747C33.9598 3.31435 33.6103 3.24607 33.2668 3.29339L28.0887 3.99964L23.9559 0.812136C23.6821 0.600294 23.3458 0.485352 22.9996 0.485352C22.6535 0.485352 22.3171 0.600294 22.0434 0.812136L17.9106 4.00589L12.7324 3.29964C12.3897 3.25188 12.0408 3.31925 11.7405 3.49118C11.4402 3.66312 11.2054 3.92989 11.0731 4.24964L9.09339 9.09339L4.24964 11.0715C3.92872 11.2025 3.66046 11.4364 3.48707 11.7365C3.31367 12.0366 3.24499 12.3859 3.29182 12.7293L3.99807 17.909L0.812136 22.0434C0.600294 22.3171 0.485352 22.6535 0.485352 22.9996C0.485352 23.3458 0.600294 23.6821 0.812136 23.9559L4.0137 28.0887L3.30745 33.2684C3.26061 33.6118 3.3293 33.9611 3.50269 34.2612C3.67609 34.5613 3.94435 34.7952 4.26526 34.9262L9.09339 36.9059L11.0731 41.7496C11.2057 42.0696 11.4402 42.3367 11.7403 42.5097C12.0404 42.6826 12.3891 42.7516 12.7324 42.7059L17.9106 41.9996L22.0434 45.2012C22.3171 45.413 22.6535 45.528 22.9996 45.528C23.3458 45.528 23.6821 45.413 23.9559 45.2012L28.0887 41.9996L33.2668 42.7059C33.61 42.7505 33.9583 42.681 34.2582 42.5083C34.558 42.3355 34.7927 42.0689 34.9262 41.7496L36.9059 36.9059L41.7496 34.9262C42.0705 34.7952 42.3388 34.5613 42.5122 34.2612C42.6856 33.9611 42.7543 33.6118 42.7074 33.2684L42.0012 28.0887L45.2028 23.9559C45.4135 23.6813 45.5271 23.3444 45.5256 22.9983C45.5242 22.6522 45.4079 22.3163 45.1949 22.0434ZM39.1215 26.6934C38.9943 26.8576 38.9012 27.0456 38.8476 27.2463C38.7939 27.447 38.7808 27.6563 38.809 27.8621L39.434 32.4918L35.1106 34.259C34.9182 34.3374 34.7434 34.4534 34.5964 34.6001C34.4493 34.7469 34.3331 34.9215 34.2543 35.1137L32.4856 39.4403L27.8574 38.8153C27.6516 38.7856 27.4419 38.798 27.241 38.8517C27.0402 38.9054 26.8523 38.9993 26.6887 39.1278L22.9996 41.9824L19.3059 39.1199C19.0317 38.9079 18.6947 38.793 18.3481 38.7934C18.2775 38.7935 18.2071 38.7982 18.1371 38.8074L13.509 39.4324L11.7403 35.1137C11.6615 34.9215 11.5452 34.7469 11.3982 34.6001C11.2512 34.4534 11.0764 34.3374 10.884 34.259L6.56057 32.4918L7.18557 27.8621C7.21379 27.6563 7.20069 27.447 7.14703 27.2463C7.09337 27.0456 7.00024 26.8576 6.87307 26.6934L4.01526 22.9996L6.87776 19.3059C7.00493 19.1416 7.09806 18.9537 7.15172 18.753C7.20537 18.5523 7.21848 18.3429 7.19026 18.1371L6.56526 13.5074L10.884 11.7403C11.0764 11.6619 11.2512 11.5459 11.3982 11.3992C11.5452 11.2524 11.6615 11.0778 11.7403 10.8856L13.509 6.55901L18.1371 7.19182C18.3429 7.22004 18.5523 7.20694 18.753 7.15328C18.9537 7.09962 19.1416 7.00649 19.3059 6.87932L22.9996 4.01682L26.6934 6.87932C26.8576 7.00649 27.0456 7.09962 27.2463 7.15328C27.447 7.20694 27.6563 7.22004 27.8621 7.19182L32.4903 6.55901L34.259 10.8856C34.3378 11.0778 34.454 11.2524 34.6011 11.3992C34.7481 11.5459 34.9229 11.6619 35.1153 11.7403L39.4387 13.5074L38.8137 18.1371C38.7855 18.3429 38.7986 18.5523 38.8522 18.753C38.9059 18.9537 38.999 19.1416 39.1262 19.3059L41.984 22.9996L39.1215 26.6934ZM29.6574 16.5934C29.989 16.842 30.2081 17.2122 30.2667 17.6224C30.3253 18.0327 30.2186 18.4494 29.9699 18.7809L22.6074 28.6246C22.4643 28.8156 22.2793 28.9712 22.0667 29.0795C21.8541 29.1878 21.6195 29.246 21.3809 29.2496H21.359C21.1242 29.2496 20.8924 29.1966 20.6808 29.0946C20.4693 28.9926 20.2834 28.8443 20.1371 28.6606L16.0559 23.5387C15.9205 23.3791 15.8186 23.1939 15.7561 22.9942C15.6937 22.7944 15.672 22.5842 15.6924 22.3759C15.7128 22.1676 15.7748 21.9655 15.8747 21.7816C15.9747 21.5978 16.1106 21.4358 16.2743 21.3055C16.4381 21.1752 16.6263 21.079 16.8279 21.0228C17.0295 20.9667 17.2404 20.9515 17.4479 20.9784C17.6555 21.0052 17.8555 21.0735 18.0362 21.1792C18.2169 21.2848 18.3745 21.4257 18.4996 21.5934L21.3199 25.1324L27.4699 16.9059C27.7186 16.5744 28.0887 16.3552 28.499 16.2966C28.9092 16.238 29.3259 16.3447 29.6574 16.5934Z" fill="#7764F0"/>
</svg>
