<svg width="459" height="390" viewBox="0 0 459 390" fill="none" xmlns="http://www.w3.org/2000/svg">
<path d="M239.864 237.112H175.457V379.273H239.864V237.112Z" fill="#CE9BFF"/>
<path d="M239.864 324.993H175.457L175.767 300.989H240.196L239.864 324.993Z" fill="#B669FF"/>
<path d="M130.209 389.535C134.018 380.071 169.611 372.668 212.977 372.668C256.343 372.668 291.935 380.071 295.745 389.535H130.209Z" fill="#B669FF"/>
<path d="M372.488 65.6058V294.672C372.488 303.427 367.04 310.896 359.355 313.888C357.029 314.797 354.526 315.285 351.891 315.285H33.7756C22.3914 315.285 13.1777 306.042 13.1777 294.672V65.6058C13.1777 57.1391 18.2718 49.8693 25.5807 46.6998C28.1056 45.6138 30.8742 44.9932 33.7977 44.9932H351.913C352.334 44.9932 352.732 44.9932 353.153 45.0375C357.494 45.2813 361.459 46.8771 364.67 49.426C369.454 53.1939 372.533 59.0452 372.533 65.628L372.488 65.6058Z" fill="#B669FF"/>
<path d="M385.511 65.6058V294.672C385.511 296.334 385.312 297.952 384.935 299.504C382.787 308.569 374.637 315.285 364.913 315.285H46.7763C46.6655 315.285 46.5326 315.285 46.4219 315.285C35.1927 315.107 26.1562 305.954 26.1562 294.672V65.6058C26.1562 54.2356 35.3921 44.9932 46.7541 44.9932H364.869C365.379 44.9932 365.888 44.9932 366.397 45.0597C377.073 45.8354 385.489 54.7454 385.489 65.6058H385.511Z" fill="#CE9BFF"/>
<path d="M59.0017 56.6074H352.665C363.031 56.6074 371.425 65.0298 371.425 75.3804V284.876C371.425 295.249 363.008 303.649 352.665 303.649H59.0017C48.6364 303.649 40.2422 295.226 40.2422 284.876V75.4026C40.2422 65.0298 48.6585 56.6074 59.0239 56.6074H59.0017Z" fill="url(#paint0_linear_2119_11846)"/>
<path d="M285.933 77.1533H65.558C60.5673 77.1533 56.5215 81.202 56.5215 86.1963V145.685C56.5215 150.679 60.5673 154.728 65.558 154.728H285.933C290.924 154.728 294.969 150.679 294.969 145.685V86.1963C294.969 81.202 290.924 77.1533 285.933 77.1533Z" fill="#C7A4FC"/>
<path d="M122.036 86.9717H81.9031C78.1111 86.9717 75.0371 90.0479 75.0371 93.8426V138.016C75.0371 141.81 78.1111 144.887 81.9031 144.887H122.036C125.828 144.887 128.902 141.81 128.902 138.016V93.8426C128.902 90.0479 125.828 86.9717 122.036 86.9717Z" fill="#00FFFF"/>
<path d="M113.222 102.132C113.444 108.338 108.593 113.569 102.369 113.769C96.168 113.99 90.941 109.136 90.7417 102.908C90.5202 96.7022 95.3706 91.4714 101.594 91.2719C107.796 91.0503 113.023 95.9043 113.222 102.132Z" fill="#B970FF"/>
<path d="M124.894 138.149C124.916 138.769 124.916 139.368 124.894 139.966C124.03 140.387 123.055 140.609 122.059 140.609H81.9261C80.9294 140.609 79.9549 140.387 79.0911 139.988C79.069 139.922 79.069 139.855 79.069 139.789C78.626 127.111 88.5263 116.494 101.173 116.029C113.82 115.586 124.451 125.493 124.894 138.149Z" fill="#B970FF"/>
<path d="M161.726 94.0199L156.876 98.8516L158.072 105.59L151.981 102.442L145.957 105.678L147.064 98.9181L142.125 94.175L148.88 93.1333L151.87 86.9717L154.949 93.089L161.726 94.0199Z" fill="#00FFFF"/>
<path d="M188.437 94.0199L183.587 98.8516L184.783 105.59L178.714 102.442L172.668 105.678L173.775 98.9181L168.836 94.175L175.613 93.1333L178.581 86.9717L181.66 93.089L188.437 94.0199Z" fill="#00FFFF"/>
<path d="M215.17 94.0199L210.298 98.8516L211.516 105.59L205.425 102.442L199.379 105.678L200.486 98.9181L195.547 94.175L202.324 93.1333L205.292 86.9717L208.371 93.089L215.17 94.0199Z" fill="#00FFFF"/>
<path d="M241.881 94.0199L237.009 98.8516L238.227 105.59L232.136 102.442L226.112 105.678L227.197 98.9181L222.258 94.175L229.035 93.1333L232.025 86.9717L235.104 93.089L241.881 94.0199Z" fill="#00FFFF"/>
<path d="M268.591 94.0199L263.741 98.8516L264.937 105.59L258.846 102.442L252.822 105.678L253.929 98.9181L248.99 94.175L255.745 93.1333L258.735 86.9717L261.814 93.089L268.591 94.0199Z" fill="#00FFFF"/>
<path d="M144.207 114.322V116.782H219.555L219.644 114.322H144.207Z" fill="#AC55FF"/>
<path d="M144.207 121.681V124.119H280.33L280.419 121.681H144.207Z" fill="#AC55FF"/>
<path d="M144.207 129.039V131.477H270.585L270.673 129.039H144.207Z" fill="#AC55FF"/>
<path d="M227.439 116.782H250.673L250.762 114.322H227.506L227.439 116.782Z" fill="#AC55FF"/>
<path d="M144.207 135.91V138.348H219.555L219.644 135.91H144.207Z" fill="#AC55FF"/>
<path d="M144.207 143.246V145.706H280.33L280.419 143.246H144.207Z" fill="#AC55FF"/>
<path d="M227.439 138.348H250.673L250.762 135.91H227.506L227.439 138.348Z" fill="#AC55FF"/>
<path opacity="0.3" d="M294.968 132.763V145.684C294.968 150.649 290.915 154.727 285.932 154.727H77.1406V141.806C77.1406 139.634 77.9158 137.639 79.2004 136.087C80.8394 134.07 83.3421 132.785 86.155 132.785H294.946L294.968 132.763Z" fill="#AC55FF"/>
<path d="M324.736 152.046V211.534C324.736 216.499 320.66 220.577 315.699 220.577H95.3243C90.3409 220.577 86.2656 216.499 86.2656 211.534V152.046C86.2656 147.081 90.3409 143.003 95.3243 143.003H315.699C320.66 143.003 324.736 147.081 324.736 152.046Z" fill="#C7A4FC"/>
<path d="M151.779 152.821H111.691C107.887 152.821 104.803 155.907 104.803 159.714V203.865C104.803 207.672 107.887 210.758 111.691 210.758H151.779C155.583 210.758 158.667 207.672 158.667 203.865V159.714C158.667 155.907 155.583 152.821 151.779 152.821Z" fill="#00FFFF"/>
<path d="M142.988 167.982C143.209 174.188 138.359 179.419 132.135 179.618C125.934 179.84 120.707 174.986 120.507 168.758C120.286 162.552 125.136 157.321 131.36 157.122C137.561 156.9 142.788 161.754 142.988 167.982Z" fill="#B970FF"/>
<path d="M154.638 204.021C154.66 204.641 154.66 205.24 154.638 205.838C153.774 206.259 152.8 206.481 151.803 206.481H111.67C110.674 206.481 109.699 206.259 108.835 205.86C108.813 205.794 108.813 205.727 108.813 205.661C108.37 192.983 118.27 182.366 130.917 181.901C143.564 181.458 154.195 191.365 154.638 204.021Z" fill="#B970FF"/>
<path d="M191.492 159.892L186.62 164.701L187.838 171.439L181.747 168.314L175.701 171.55L176.808 164.79L171.869 160.047L178.647 159.005L181.637 152.821L184.715 158.939L191.492 159.892Z" fill="#00FFFF"/>
<path d="M218.203 159.892L213.331 164.701L214.549 171.439L208.458 168.314L202.434 171.55L203.541 164.79L198.58 160.047L205.357 159.005L208.347 152.821L211.426 158.939L218.203 159.892Z" fill="#00FFFF"/>
<path d="M244.914 159.892L240.063 164.701L241.259 171.439L235.168 168.314L229.144 171.55L230.252 164.79L225.312 160.047L232.068 159.005L235.058 152.821L238.136 158.939L244.914 159.892Z" fill="#00FFFF"/>
<path d="M271.647 159.892L266.774 164.701L267.992 171.439L261.902 168.314L255.855 171.55L256.962 164.79L252.023 160.047L258.801 159.005L261.769 152.821L264.847 158.939L271.647 159.892Z" fill="white"/>
<path d="M298.358 159.892L293.485 164.701L294.703 171.439L288.612 168.314L282.566 171.55L283.673 164.79L278.734 160.047L285.512 159.005L288.502 152.821L291.58 158.939L298.358 159.892Z" fill="white"/>
<path d="M173.973 180.194V182.632H249.299L249.387 180.194H173.973Z" fill="#AC55FF"/>
<path d="M173.973 187.53V189.99H310.074L310.162 187.53H173.973Z" fill="#AC55FF"/>
<path d="M173.973 194.889V197.327H300.35L300.417 194.889H173.973Z" fill="#AC55FF"/>
<path d="M257.184 182.632H280.439L280.528 180.194H257.272L257.184 182.632Z" fill="#AC55FF"/>
<path d="M173.973 201.76V204.198H249.299L249.387 201.76H173.973Z" fill="#AC55FF"/>
<path d="M173.973 209.118V211.556H310.074L310.162 209.118H173.973Z" fill="#AC55FF"/>
<path d="M257.184 204.198H280.439L280.528 201.76H257.272L257.184 204.198Z" fill="#AC55FF"/>
<path opacity="0.3" d="M324.737 198.612V211.534C324.737 216.499 320.661 220.577 315.7 220.577H106.887V207.655C106.887 205.483 107.662 203.488 108.969 201.915C110.63 199.898 113.133 198.612 115.945 198.612H324.737Z" fill="#AC55FF"/>
<path d="M125.093 208.853H345.468C350.451 208.853 354.505 212.909 354.505 217.895V277.362C354.505 282.349 350.451 286.405 345.468 286.405H125.093C120.11 286.405 116.057 282.349 116.057 277.362V217.895C116.057 212.909 120.11 208.853 125.093 208.853Z" fill="#C7A4FC"/>
<path d="M181.527 218.693H141.439C137.635 218.693 134.551 221.779 134.551 225.586V269.737C134.551 273.544 137.635 276.63 141.439 276.63H181.527C185.331 276.63 188.415 273.544 188.415 269.737V225.586C188.415 221.779 185.331 218.693 181.527 218.693Z" fill="#00FFFF"/>
<path d="M172.734 233.832C172.955 240.038 168.105 245.268 161.881 245.468C155.68 245.689 150.453 240.835 150.253 234.607C150.032 228.401 154.882 223.171 161.106 222.971C167.308 222.75 172.535 227.603 172.734 233.832Z" fill="#B970FF"/>
<path d="M184.405 269.87C184.428 270.491 184.428 271.089 184.405 271.688C183.542 272.109 182.567 272.331 181.57 272.331H141.438C140.441 272.331 139.467 272.109 138.603 271.71C138.581 271.644 138.581 271.577 138.581 271.511C138.138 258.833 148.038 248.216 160.685 247.751C173.331 247.307 183.962 257.215 184.405 269.87Z" fill="#B970FF"/>
<path d="M221.238 225.742L216.387 230.551L217.583 237.311L211.515 234.164L205.468 237.4L206.576 230.64L201.637 225.897L208.392 224.855L211.382 218.693L214.461 224.811L221.238 225.742Z" fill="#00FFFF"/>
<path d="M247.971 225.742L243.098 230.551L244.317 237.311L238.226 234.164L232.179 237.4L233.287 230.64L228.348 225.897L235.125 224.855L238.093 218.693L241.171 224.811L247.971 225.742Z" fill="#00FFFF"/>
<path d="M274.682 225.742L269.809 230.551L271.027 237.311L264.937 234.164L258.912 237.4L259.998 230.64L255.059 225.897L261.836 224.855L264.826 218.693L267.905 224.811L274.682 225.742Z" fill="#00FFFF"/>
<path d="M301.392 225.742L296.52 230.551L297.738 237.311L291.647 234.164L285.623 237.4L286.73 230.64L281.791 225.897L288.546 224.855L291.536 218.693L294.615 224.811L301.392 225.742Z" fill="#00FFFF"/>
<path d="M328.103 225.742L323.253 230.551L324.449 237.311L318.38 234.164L312.334 237.4L313.441 230.64L308.502 225.897L315.257 224.855L318.247 218.693L321.326 224.811L328.103 225.742Z" fill="url(#paint1_linear_2119_11846)"/>
<path d="M203.742 246.044V248.482H279.068L279.157 246.044H203.742Z" fill="#AC55FF"/>
<path d="M203.742 253.402V255.84H339.843L339.932 253.402H203.742Z" fill="#AC55FF"/>
<path d="M203.742 260.738V263.199H330.098L330.186 260.738H203.742Z" fill="#AC55FF"/>
<path d="M286.953 248.482H310.209L310.297 246.044H287.042L286.953 248.482Z" fill="#AC55FF"/>
<path d="M203.742 267.609V270.047H279.068L279.157 267.609H203.742Z" fill="#AC55FF"/>
<path d="M203.742 274.968V277.406H339.843L339.932 274.968H203.742Z" fill="#AC55FF"/>
<path d="M286.953 270.047H310.209L310.297 267.609H287.042L286.953 270.047Z" fill="#AC55FF"/>
<path d="M55.1268 254.644C51.9374 254.644 49.0138 253.536 46.4668 251.785C46.3782 257.126 46.7104 262.468 47.7514 267.721C51.1622 273.217 60.5974 283.324 59.9772 283.258C57.3416 283.036 54.8388 282.349 52.4025 281.485C54.0193 284.809 55.9462 288.001 58.1832 290.927C62.7679 297.044 69.3016 301.942 71.7822 309.411C71.8265 309.589 71.9373 309.7 72.0702 309.744C72.1145 310.165 72.5796 310.497 72.9561 310.143C85.2926 298.418 87.4853 280.62 89.3015 264.573C89.3901 263.82 89.4787 263.066 89.5451 262.29C86.1343 265.704 82.502 268.829 78.1831 271.156C77.5851 271.489 85.9128 258.168 89.9659 252.029C89.833 248.172 89.235 244.36 87.8397 240.636C84.9604 232.901 79.9992 225.653 75.1931 219.004C74.9937 218.738 74.7722 218.472 74.5729 218.184C73.2662 221.619 71.5386 224.877 69.2573 227.803C68.8587 228.313 70.1211 218.073 70.9184 213.374C69.7224 211.867 68.5043 210.382 67.264 208.941C65.625 206.991 63.5874 203.711 60.6417 204.154C57.7845 204.553 51.2508 216.3 50.4313 219.669C50.077 221.11 49.7447 222.572 49.4568 224.035C49.3239 224.656 49.191 225.321 49.0803 225.941C47.995 231.837 47.3527 237.888 46.8876 243.806C47.0869 244.116 47.2863 244.448 47.5299 244.737C49.9219 247.995 55.7248 254.622 55.1489 254.622L55.1268 254.644Z" fill="#00FFFF"/>
<path d="M66.3769 248.726C60.2862 247.795 55.635 243.961 51.1832 239.993C50.5188 239.395 51.3383 238.287 52.0249 238.885C56.2109 242.609 60.5741 246.31 66.244 247.285C64.9594 238.22 63.4312 229.177 61.6594 220.201C61.4822 219.314 62.8554 219.115 63.0326 219.979C65.3803 231.903 67.3072 243.872 68.7911 255.907C72.2905 250.92 74.9705 245.534 76.8531 239.705C77.1188 238.863 78.4256 239.373 78.1376 240.215C76.1665 246.377 73.265 252.073 69.4998 257.326C69.3669 257.525 69.1676 257.592 68.9904 257.592C69.3005 260.229 69.6106 262.867 69.8764 265.504C72.4234 262.335 74.4167 258.877 75.8564 255.043C76.1665 254.2 77.4732 254.71 77.141 255.552C75.5463 259.808 73.2872 263.687 70.3415 267.166C70.2529 267.277 70.1643 267.322 70.0535 267.366C70.9395 276.054 71.6261 284.743 72.069 293.453C72.1133 293.542 72.1355 293.63 72.1576 293.741C72.3348 296.933 72.4456 300.125 72.4898 303.294C72.5563 305.377 72.6227 307.461 72.667 309.522C72.667 309.744 72.6006 309.899 72.4677 309.988C72.1133 329.625 69.1898 349.041 65.0702 368.279C64.6272 368.168 64.1621 368.058 63.7191 367.969C68.3924 346.248 71.4932 324.261 71.0724 302.008C70.9838 299.659 70.8952 297.31 70.7844 294.96C70.5851 295.027 70.3858 295.027 70.1643 294.872C67.6172 293.121 65.4689 290.926 63.7856 288.355C63.2983 287.602 64.3836 286.737 64.8709 287.491C66.4212 289.885 68.3703 291.902 70.6958 293.542C69.9207 278.537 68.481 263.576 66.3991 248.682C66.3991 248.682 66.3548 248.682 66.3326 248.682L66.3769 248.726Z" fill="#B669FF"/>
<path d="M114.75 289.087C117.474 290.151 120.264 290.262 122.944 289.797C121.483 293.853 119.644 297.754 117.23 301.344C112.734 304.358 101.771 308.836 102.324 308.991C104.628 309.7 106.953 309.988 109.279 310.165C106.931 312.138 104.384 313.889 101.616 315.374C95.9457 318.455 88.969 319.984 84.6944 324.794C84.6058 324.905 84.4729 324.949 84.3621 324.949C84.2071 325.237 83.6977 325.348 83.4762 324.949C76.3888 312.094 79.6889 297.997 82.8118 285.342C82.9668 284.743 83.0997 284.145 83.2769 283.546C85.1816 287.248 87.3743 290.772 90.3643 293.964C90.7851 294.407 87.5736 281.662 85.8904 275.7C87.1307 272.863 88.7475 270.181 91.0066 267.832C95.702 262.978 102.014 259.166 108.039 255.73C108.282 255.597 108.548 255.464 108.792 255.331C108.902 258.346 109.434 261.36 110.519 264.308C110.696 264.818 112.601 256.706 113.31 252.938C114.772 252.206 116.233 251.475 117.717 250.81C119.689 249.901 122.369 248.084 124.738 249.391C127.064 250.633 129.19 261.604 128.924 264.397C128.814 265.593 128.659 266.79 128.481 267.987C128.415 268.497 128.326 269.029 128.238 269.539C127.44 274.326 126.244 279.091 124.916 283.679C124.65 283.857 124.384 284.012 124.096 284.167C121.106 285.829 114.262 288.888 114.75 289.087Z" fill="#00FFFF"/>
<path d="M73.265 371.227C75.3248 355.424 78.5141 339.865 83.8962 324.993C83.8297 324.882 83.7854 324.727 83.8519 324.572C84.4942 323.02 85.1365 321.491 85.8009 319.94C86.7533 317.568 87.7721 315.197 88.8573 312.869C88.9016 312.781 88.9459 312.714 89.0124 312.67C91.936 306.264 95.0367 299.948 98.3146 293.719C98.2482 293.653 98.1818 293.587 98.1375 293.476C96.6535 289.907 95.834 286.25 95.7233 282.527C95.7233 281.795 96.9415 281.817 96.9636 282.571C97.0743 285.918 97.7609 289.176 99.0012 292.39C99.9979 290.506 101.017 288.622 102.058 286.738C101.903 286.671 101.77 286.56 101.703 286.361C100.02 281.175 99.2227 275.944 99.3335 270.669C99.3335 269.937 100.596 269.982 100.574 270.713C100.463 275.7 101.194 280.62 102.722 285.541C107.506 276.986 112.6 268.608 118.071 260.429C118.47 259.831 119.577 260.429 119.178 261.05C115.059 267.211 111.161 273.506 107.418 279.889C112.512 281.019 117.318 279.667 121.947 278.249C122.7 278.027 123.076 279.135 122.323 279.357C117.362 280.864 112.312 282.216 106.864 280.909C106.864 280.909 106.842 280.909 106.82 280.909C100.729 291.414 95.1475 302.186 90.142 313.202C92.6004 312.736 94.8374 311.85 96.8529 310.564C97.4952 310.165 98.1596 311.185 97.5173 311.584C95.3468 312.98 92.8662 313.911 90.2084 314.399C89.9869 314.443 89.8097 314.376 89.6547 314.243C88.8795 315.972 88.1043 317.701 87.3513 319.43C80.5296 336.031 76.7866 353.563 74.461 371.427C74.0402 371.36 73.6415 371.294 73.2207 371.227H73.265Z" fill="#B669FF"/>
<path d="M117.605 272.198C121.57 271.4 125.224 270.004 128.436 267.965C128.369 268.475 128.281 269.007 128.192 269.516C125.091 271.289 121.68 272.575 117.982 273.306C117.207 273.462 116.83 272.353 117.583 272.198H117.605Z" fill="#8C46F9"/>
<path d="M0 282.66C0.0664447 287.691 11.6721 290.107 15.3709 291.481C23.5214 294.495 31.4948 297.554 37.5191 304.114C44.6287 311.85 50.7637 320.782 56.8988 329.315C57.2975 329.869 57.829 330.024 58.3384 329.936C58.427 329.936 59.1136 328.495 60.0217 326.256C62.1258 321.048 65.3594 311.495 64.5621 306.065C64.0084 302.253 62.6795 298.596 60.8633 295.227C60.4425 296.933 59.7559 298.573 58.5378 299.815C58.2499 300.103 57.6076 292.966 57.2089 289.708C56.6773 289.043 56.1236 288.4 55.5478 287.802C54.241 286.383 52.8014 285.053 51.251 283.856C50.9188 283.59 50.6087 283.324 50.2543 283.103C49.014 282.172 47.7073 281.308 46.3563 280.51C46.0019 280.31 45.6475 280.089 45.271 279.889C44.0085 279.18 42.7018 278.537 41.3729 277.961C40.9521 280.421 40.3319 282.815 39.2245 285.12C39.003 285.585 38.4493 279.468 38.3829 276.764C37.1204 276.298 35.8358 275.899 34.5291 275.523C34.1526 277.119 33.6653 278.67 32.9344 280.133C32.7572 280.487 31.0297 276.343 30.4095 274.503C26.2678 273.661 22.0596 273.328 17.9844 273.528C17.63 273.528 17.2756 273.55 16.9212 273.594C15.8138 273.661 14.7064 273.794 13.6212 273.971C9.61233 274.592 0.199334 277.119 0.0221482 282.527C0.0221482 282.571 0.0221482 282.637 0.0221482 282.682L0 282.66Z" fill="#00FFFF"/>
<path d="M44.6281 295.848C54.484 305.578 57.5405 323.464 58.1828 328.54C59.1573 330.579 59.8661 332.751 60.2204 335.145C61.3943 343.168 61.0399 351.635 60.8406 359.725C60.7741 362.384 60.6634 365.044 60.5084 367.704C60.0432 367.615 59.6003 367.526 59.1352 367.438C59.2238 365.753 59.3123 364.091 59.3566 362.406C59.6003 355.159 59.6003 347.911 59.2681 340.663C59.0909 336.918 58.7586 333.172 57.2969 329.692C57.1418 329.581 56.9868 329.471 56.8539 329.293C50.7188 320.76 44.5838 311.828 37.4742 304.093C31.4499 297.532 23.4765 294.473 15.326 291.459C11.6493 290.085 0.0436711 287.669 -0.0449219 282.638C15.4145 284.433 33.2439 284.632 44.5838 295.825L44.6281 295.848Z" fill="#B669FF"/>
<path d="M45.0719 291.06C45.8028 287.314 45.8693 283.59 45.2712 279.845C45.6478 280.044 46.0021 280.266 46.3565 280.465C46.8438 284.056 46.733 287.669 46.0464 291.259C45.9135 291.902 44.939 291.68 45.0498 291.038L45.0719 291.06Z" fill="#B669FF"/>
<path d="M48.837 293.077C49.7229 289.775 50.188 286.472 50.2766 283.081C50.6088 283.325 50.941 283.591 51.2733 283.835C51.1404 287.026 50.6753 290.174 49.8336 293.299C49.6564 293.919 48.6819 293.698 48.837 293.077Z" fill="#B669FF"/>
<path d="M32.3359 360.146C32.3359 362.739 32.6017 365.288 33.1333 367.748C35.038 376.636 40.1986 384.327 47.3081 389.491H89.7663C96.8759 384.327 102.036 376.636 103.919 367.748C104.451 365.31 104.716 362.761 104.716 360.146C104.716 357.53 104.406 354.782 103.853 352.255C103.387 350.083 102.701 348 101.859 346.005H35.2152C34.3736 348 33.687 350.083 33.2219 352.255C32.646 354.804 32.3581 357.442 32.3581 360.146H32.3359Z" fill="#C7A4FC"/>
<path d="M32.3359 360.146C32.3359 362.739 32.6017 365.288 33.1333 367.748C35.038 376.636 40.1986 384.327 47.3081 389.491H89.7663C34.285 392.239 35.2152 346.005 35.2152 346.005C34.3736 348 33.687 350.083 33.2219 352.255C32.646 354.804 32.3581 357.442 32.3581 360.146H32.3359Z" fill="#BB92FB"/>
<path d="M227.839 351.213C227.839 351.213 234.394 377.478 234.394 390C234.394 390 287.196 389.069 307.816 390C307.816 390 306.465 364.312 305.734 348.598C305.734 348.598 247.506 352.166 227.816 351.213H227.839Z" fill="url(#paint2_linear_2119_11846)"/>
<path d="M227.837 351.213C227.837 351.213 223.984 351.368 218.668 348.863C218.668 348.863 224.05 382.398 223.43 389.291L234.393 390C234.393 390 234.15 366.306 227.837 351.213Z" fill="url(#paint3_linear_2119_11846)"/>
<path d="M306.884 370.54C306.884 370.54 301.081 371.471 289.631 372.158C289.631 372.158 297.516 373.2 306.973 372.845L306.862 370.54H306.884Z" fill="#C7A4FC"/>
<path d="M305.756 356.178C305.756 356.178 291.604 361.852 273.553 362.805C273.553 362.805 291.515 363.27 306.443 362.805L305.756 356.178Z" fill="#C7A4FC"/>
<path d="M233.774 379.095C233.774 379.095 252.202 378.497 258.071 377.322L233.354 374.995L233.774 379.073V379.095Z" fill="#C7A4FC"/>
<path d="M220.551 360.743C220.551 360.743 222.788 362.96 228.724 364.821L220.994 364.511L220.529 360.743H220.551Z" fill="#C7A4FC"/>
<path d="M225.889 382.73L234.172 385.457L233.906 382.221C233.906 382.221 228.768 383.661 225.889 382.708V382.73Z" fill="#C7A4FC"/>
<path d="M218.669 348.885C218.669 348.885 258.07 349.218 293.928 346.093C293.928 346.093 297.14 346.957 305.733 348.597C305.733 348.597 253.419 352.299 227.816 351.213C227.816 351.213 225.845 351.922 218.646 348.863L218.669 348.885Z" fill="url(#paint4_linear_2119_11846)"/>
<path d="M228.79 295.093L209.742 327.076C209.742 327.076 226.243 345.738 244.559 350.924C244.559 350.924 269.897 327.408 273.352 321.801C273.352 321.801 238.734 310.386 228.79 295.093Z" fill="white"/>
<path d="M217.517 324.704L216.432 324.128C216.498 324.017 222.345 312.979 228.48 304.712L229.477 305.443C223.408 313.622 217.605 324.593 217.539 324.704H217.517Z" fill="#C7A4FC"/>
<path d="M221.636 327.94L220.551 327.364C220.551 327.364 226.464 316.215 232.599 307.948L233.596 308.68C227.527 316.858 221.702 327.829 221.658 327.94H221.636Z" fill="#C7A4FC"/>
<path d="M231.648 335.454L230.562 334.878C230.562 334.878 236.476 323.729 242.611 315.462L243.608 316.193C237.539 324.372 231.714 335.343 231.67 335.454H231.648Z" fill="#C7A4FC"/>
<path d="M235.744 338.734L234.703 338.069C234.703 338.069 241.458 327.496 248.346 319.052L249.299 319.828C242.455 328.206 235.811 338.623 235.744 338.711V338.734Z" fill="#C7A4FC"/>
<path d="M241.502 341.061L240.527 340.307C240.527 340.307 248.235 330.533 256.075 323.817L256.873 324.748C249.121 331.375 241.546 340.972 241.48 341.061H241.502Z" fill="#C7A4FC"/>
<path d="M398.003 251.274H393.484V389.579H398.003V251.274Z" fill="url(#paint5_linear_2119_11846)"/>
<path d="M386.087 244.359C386.087 244.515 386.064 244.648 386.064 244.803C386.064 248.371 388.08 255.397 390.583 255.397H448.434C450.937 255.397 452.952 248.393 452.952 244.803C452.952 244.648 452.93 244.515 452.93 244.359H386.109H386.087Z" fill="#850FFF"/>
<path d="M329.454 244.359C329.454 244.515 329.41 244.648 329.41 244.803C329.41 248.371 331.714 255.397 334.549 255.397H402.544C405.379 255.397 407.682 248.393 407.682 244.803C407.682 244.648 407.66 244.515 407.638 244.359H329.432H329.454Z" fill="#850FFF"/>
<path d="M420.285 326.101H371.182C369.432 326.101 368.037 324.682 368.037 322.931C368.037 321.181 369.455 319.784 371.182 319.784H420.285C422.034 319.784 423.43 321.203 423.43 322.931C423.43 324.682 422.012 326.101 420.285 326.101Z" fill="#AC55FF"/>
<path d="M425.445 389.579H366.043C374.282 383.949 384.005 380.935 393.994 380.935H397.516C407.482 380.935 417.228 383.949 425.467 389.579H425.445Z" fill="#AC55FF"/>
<path d="M411.668 135.268C409.963 144.887 390.428 175.23 386.752 181.635C382.344 189.348 371.491 187.464 370.583 179.374C369.808 172.481 389.055 131.168 392.421 126.868C398.49 119.088 413.795 123.255 411.668 135.29V135.268Z" fill="#DFC1FF"/>
<path d="M399.576 166.963C405.645 155.947 412.533 134.936 413.397 130.06C415.523 118.024 400.218 113.858 394.15 121.637C392.267 124.053 382.876 141.518 377.162 156.524C378.314 161.222 390.473 169.224 399.598 166.963H399.576Z" fill="#850FFF"/>
<path d="M378.756 169.511C366.907 172.703 338.114 191.631 330.606 191.055C323.076 190.456 314.615 191.875 312.068 197.172C309.477 202.58 312.068 208.343 319.443 204.974C322.743 203.467 327.018 205.151 334.194 200.785C341.392 196.396 369.388 191.942 380.705 187.065C391.912 182.234 386.752 167.361 378.756 169.534V169.511Z" fill="#DFC1FF"/>
<path d="M405.246 208.41C414.437 211.845 414.636 237.733 400.838 241.013C378.291 246.355 357.073 247.618 321.525 246.399C307.328 245.911 294.615 232.923 305.49 222.395C316.365 211.867 379.465 198.813 405.246 208.41Z" fill="#B970FF"/>
<path d="M368.369 311.672C370.872 303.871 362.566 295.271 357.428 290.439L367.461 283.856C367.461 283.856 374.349 294.628 381.924 298.13C389.498 301.632 387.416 303.117 387.416 303.117L366.154 331.376C366.154 331.376 365.822 319.474 368.325 311.672H368.369Z" fill="#DFC1FF"/>
<path d="M368.369 311.672C369.188 309.345 368.79 306.818 367.837 304.358C367.106 302.696 370.407 303.25 373.707 303.981C373.707 303.981 379.31 300.568 380.462 297.332C380.971 297.598 381.459 297.886 381.946 298.108C389.52 301.61 387.439 303.095 387.439 303.095L366.176 331.354C361.88 325.946 365.755 319.053 368.347 311.65L368.369 311.672Z" fill="#AC55FF"/>
<path d="M386.509 300.79C388.435 302.386 387.439 303.117 387.439 303.117L366.176 331.377C366.176 331.377 365.556 330.734 364.98 329.404L386.509 300.79Z" fill="#AC55FF"/>
<path d="M301.394 234.142C301.748 243.894 339.223 276.741 362.922 303.804C362.922 303.804 373.863 298.019 376.609 291.059C376.609 291.059 343.719 233.787 330.851 226.384C313.575 216.433 300.907 221.065 301.372 234.142H301.394Z" fill="#B970FF"/>
<path d="M327.018 224.412C328.258 224.988 329.542 225.631 330.871 226.385C343.74 233.788 376.63 291.06 376.63 291.06C376.275 291.968 375.788 292.877 375.212 293.786C355.434 271.289 327.616 224.988 327.018 224.412Z" fill="#AC55FF"/>
<path d="M327.018 224.412C327.018 224.412 324.87 208.543 382.079 208.587L386.043 220.578L348.48 229.177H332.954L327.018 224.434V224.412Z" fill="#AC55FF"/>
<path d="M430.273 113.303C437.228 113.392 450.074 115.032 454.548 121.127C459.022 127.222 449.454 179.374 449.454 220.733C449.454 220.733 406.508 224.966 383.43 201.583C383.43 201.583 388.435 131.677 395.323 121.016C401.06 112.106 423.341 113.237 430.273 113.325V113.303Z" fill="url(#paint6_linear_2119_11846)"/>
<path d="M456.12 136.155C455.921 154.263 450.007 184.96 449.52 212.754V212.798C449.476 215.48 449.454 218.14 449.454 220.733C449.454 220.733 442.255 221.886 428.9 220.312C428.59 220.29 428.302 220.245 427.992 220.201C427.682 220.157 427.394 220.112 427.084 220.09C426.774 220.046 426.464 220.002 426.154 219.957C425.844 219.913 425.534 219.869 425.223 219.824C425.068 219.824 424.913 219.78 424.78 219.758C424.315 219.691 423.828 219.603 423.363 219.536C422.809 219.447 422.233 219.359 421.68 219.248C421.591 219.248 421.48 219.204 421.37 219.204C420.749 219.093 420.151 218.982 419.531 218.849C406.84 216.367 393.108 214.904 383.43 205.085C383.43 205.085 388.435 131.655 395.323 120.972C401.082 112.062 423.341 113.193 430.273 113.281C437.206 113.37 450.052 115.01 454.526 121.105C455.788 122.834 456.187 128.286 456.098 136.132L456.12 136.155Z" fill="#850FFF"/>
<path d="M456.119 136.155C455.92 154.263 450.006 184.96 449.519 212.754V212.798C449.453 214.438 449.43 216.056 449.43 217.674C449.275 218.694 449.12 219.736 448.943 220.777C446.463 220.844 440.416 221.664 428.899 220.356C428.589 220.334 428.301 220.29 427.991 220.245C427.681 220.201 427.393 220.157 427.083 220.135C426.773 220.09 426.463 220.046 426.153 220.002C425.843 219.957 425.533 219.913 425.222 219.869C425.067 219.869 424.912 219.824 424.779 219.802C424.314 219.736 423.827 219.647 423.362 219.58C422.808 219.492 422.232 219.403 421.679 219.292C421.59 219.292 421.479 219.248 421.369 219.248C420.749 219.137 420.151 219.026 419.53 218.893C408.545 216.721 394.746 214.438 385.09 206.703C399.198 197.882 447.792 164.879 451.468 137.906C452.155 132.985 453.993 132.764 456.119 136.199V136.155Z" fill="#850FFF"/>
<path d="M431.713 113.325C431.713 113.325 411.669 149.364 409.211 152.401C409.211 152.401 406.774 123.764 406.287 115.143L431.713 113.325Z" fill="url(#paint7_linear_2119_11846)"/>
<path d="M413.596 122.457L408.568 115.077C408.568 115.077 412.489 111.708 411.049 104.261C407.527 86.0861 425.977 97.5892 425.977 97.5892C425.977 97.5892 424.67 113.215 430.296 113.281L413.596 122.435V122.457Z" fill="#DFC1FF"/>
<path d="M413.263 118.844C422.92 118.977 421.059 107.119 421.259 104.814C421.436 102.664 425.954 97.5889 425.954 97.5889C425.954 97.5889 424.647 113.215 430.273 113.281L413.573 122.435L410.605 118.069C411.336 118.534 412.222 118.8 413.263 118.822V118.844Z" fill="#D2A6FF"/>
<path d="M426.952 110.133C424.427 115.253 413.574 122.457 413.574 122.457C413.574 122.457 417.007 121.304 420.927 125.493C422.589 127.266 424.914 127.687 424.914 127.687C424.914 127.687 431.581 121.216 431.691 113.303L426.952 110.111V110.133Z" fill="#C7A4FC"/>
<path d="M410.339 112.461C410.384 117.426 413.595 122.435 413.595 122.435C413.595 122.435 410.605 121.061 407.97 124.607C406.862 126.114 405.666 126.269 405.666 126.269C405.666 126.269 405.245 122.346 406.286 114.788L410.339 112.461Z" fill="#C7A4FC"/>
<path d="M404.115 85.4609L398.5 86.0703L398.564 86.6653L404.179 86.0558L404.115 85.4609Z" fill="#AC55FF"/>
<path d="M400.55 75.0705L402.876 96.5475C403.562 102.886 409.542 107.43 416.209 106.699C422.876 105.967 427.726 100.249 427.039 93.91L426.973 93.3781C426.973 93.3781 433.839 92.1369 433.064 85.1108C432.311 78.0848 427.992 81.4538 427.992 81.4538L426.973 72.167L400.506 75.0483L400.55 75.0705Z" fill="#DFC1FF"/>
<path d="M428.037 81.4752L427.018 72.1885L417.627 73.208C417.627 73.208 417.649 73.341 417.649 73.4075L420.285 97.7216C420.75 101.977 417.14 105.856 412.998 106.166C411.714 106.255 410.495 106.033 409.41 105.545C411.426 106.521 413.773 106.964 416.21 106.698C422.876 105.967 427.727 100.248 427.04 93.9093L426.974 93.3774C426.974 93.3774 433.84 92.1362 433.064 85.1102C432.311 78.0841 427.993 81.4531 427.993 81.4531L428.037 81.4752Z" fill="#D2A6FF"/>
<path d="M427.882 81.7193C427.882 81.7193 426.553 88.2355 424.361 80.7441C422.19 73.2526 419.865 73.8289 411.382 75.336C402.899 76.821 390.518 74.9592 393.996 63.8993C397.406 53.0389 416.52 58.7129 416.52 58.7129C416.52 58.7129 429.455 53.2162 432.844 63.5447C436.232 73.8732 427.882 81.7193 427.882 81.7193Z" fill="#AC55FF"/>
<path d="M433.595 126.203C431.735 135.777 439.31 171.883 440.439 179.175C441.79 187.974 450.982 191.121 454.747 183.874C457.936 177.712 457.205 128.84 455.611 123.609C452.754 114.167 435.943 114.19 433.595 126.18V126.203Z" fill="#DFC1FF"/>
<path d="M434.259 160.114C432.31 146.084 431.911 131.146 432.996 125.649C435.543 112.616 453.949 113.614 457.071 123.876C457.847 126.447 458.799 141.009 458.998 155.016C449.386 160.779 436.252 160.934 434.259 160.114Z" fill="#850FFF"/>
<path d="M447.416 172.881C435.788 174.432 402.632 190.324 395.522 188.706C388.391 187.11 376.453 188.506 373.507 193.382C370.495 198.369 374.393 200.785 379.753 202.071C383.164 202.891 386.973 203.268 394.282 199.943C401.591 196.596 436.209 193.693 447.504 190.435C458.711 187.199 455.3 171.839 447.416 172.881Z" fill="#DFC1FF"/>
<path d="M417.538 90.8729C415.434 91.0945 413.994 90.0085 413.152 89.0554C412.178 87.9472 411.491 86.3736 411.336 84.8664C411.071 82.4062 412.865 80.8769 416.408 80.4558C419.952 80.079 422.034 81.2093 422.3 83.6696C422.588 86.3071 421.303 90.3631 417.649 90.8286C417.604 90.8286 417.56 90.8286 417.538 90.8286V90.8729ZM411.912 84.8221C412.067 86.2184 412.687 87.6591 413.595 88.6787C414.326 89.5209 415.611 90.4961 417.471 90.2966C417.516 90.2966 417.538 90.2966 417.582 90.2966C420.838 89.8755 421.99 86.1741 421.724 83.7804C421.436 81.1207 418.712 80.8547 416.475 81.0985C416.386 81.0985 416.275 81.0985 416.187 81.1429C414.016 81.431 411.646 82.3176 411.934 84.8664L411.912 84.8221Z" fill="#AC55FF"/>
<path d="M404.427 92.2912C400.683 92.6901 398.513 88.9665 398.225 86.3069C397.959 83.8466 399.753 82.2951 403.297 81.8962C406.841 81.5194 408.923 82.6498 409.188 85.11C409.476 87.7475 408.192 91.8036 404.537 92.2912C404.493 92.2912 404.449 92.2912 404.427 92.2912ZM398.801 86.2404C399.067 88.6563 401.016 92.0695 404.36 91.7149C407.704 91.3824 408.878 87.5924 408.613 85.1765C408.325 82.5168 405.6 82.2508 403.363 82.4946C403.275 82.4946 403.164 82.4946 403.075 82.539C400.905 82.8271 398.535 83.7136 398.823 86.2625L398.801 86.2404Z" fill="#AC55FF"/>
<path d="M411.577 84.0314L408.824 84.3311L408.889 84.926L411.641 84.6263L411.577 84.0314Z" fill="#AC55FF"/>
<path d="M427.396 82.9677L421.781 83.5791L421.846 84.174L427.461 83.5626L427.396 82.9677Z" fill="#AC55FF"/>
<path d="M445.313 216.389C454.194 220.578 447.195 241.656 433.153 243.739C410.23 247.152 388.835 248.261 353.862 241.766C346.775 240.459 328.193 226.052 339.931 216.477C351.67 206.902 420.44 204.619 445.313 216.389Z" fill="#B970FF"/>
<path d="M365.711 231.483C381.17 225.742 449.475 228.889 448.257 219.47C451.89 227.072 445.046 241.988 433.13 243.762C410.207 247.175 388.811 248.283 353.839 241.789C348.391 240.769 360.993 233.256 365.711 231.505V231.483Z" fill="#AC55FF"/>
<path d="M302.5 325.17C310.607 323.995 314.66 312.736 316.742 305.998L327.063 312.138C327.063 312.138 320.418 323.064 320.618 331.42C320.817 339.776 318.558 338.557 318.558 338.557L283.852 331.886C283.852 331.886 294.394 326.367 302.478 325.17H302.5Z" fill="#DFC1FF"/>
<path d="M302.5 325.17C304.959 324.882 307.041 323.419 308.835 321.468C310.009 320.072 310.961 323.308 311.736 326.588C311.736 326.588 317.273 330.134 320.662 329.735C320.64 330.312 320.595 330.866 320.618 331.42C320.817 339.776 318.558 338.557 318.558 338.557L283.852 331.885C286.819 325.657 294.726 326.101 302.478 325.17H302.5Z" fill="#AC55FF"/>
<path d="M320.263 336.696C319.665 339.134 318.579 338.535 318.579 338.535L283.873 331.864C283.873 331.864 284.161 331.022 285.113 329.936L320.263 336.696Z" fill="#AC55FF"/>
<path d="M339.267 216.278C327.683 222.528 320.972 282.216 308.414 320.338C308.414 320.338 319.488 325.148 327.063 323.463C327.063 323.463 362.079 258.611 362.389 242.32C362.81 220.444 351.67 209.584 339.244 216.278H339.267Z" fill="#B970FF"/>
<path d="M361.835 233.278C361.946 234.763 362.389 238.11 362.389 242.299C362.344 258.612 327.062 323.442 327.062 323.442C326.066 323.663 325.025 323.774 323.939 323.796C330.407 315.972 361.614 234.165 361.835 233.256V233.278Z" fill="#AC55FF"/>
<path d="M375.9 208.587H294.018V212.909H375.9V208.587Z" fill="#C7A4FC"/>
<path d="M375.9 212.909H413.597V210.471C413.597 209.429 412.755 208.587 411.714 208.587H375.923V212.909H375.9Z" fill="#C7A4FC"/>
<path d="M296.32 208.588H377.87L367.128 158.341C366.818 156.879 365.6 155.837 364.183 155.837H290.739C287.816 155.837 285.667 158.718 286.309 161.733L296.32 208.588Z" fill="#C7A4FC"/>
<path d="M294.35 208.588H375.899L365.158 158.341C364.848 156.879 363.629 155.837 362.212 155.837H287.218C285.092 155.837 283.519 157.943 283.984 160.137L294.328 208.588H294.35Z" fill="url(#paint8_linear_2119_11846)"/>
<path opacity="0.34" d="M326.354 155.814L303.387 208.587H313.907L337.739 155.814H326.354Z" fill="#DEC9FD"/>
<path opacity="0.34" d="M343.518 155.814L320.572 208.587H324.648L348.479 155.814H343.518Z" fill="#DEC9FD"/>
<path d="M375.522 0H304.337C297.405 0 291.779 5.62969 291.779 12.5671V60.5524C291.779 67.4898 297.405 73.1195 304.337 73.1195H348.191L366.662 88.989C368.08 90.8951 371.092 89.8977 371.092 87.5261L365.865 73.1416H375.544C382.476 73.1416 388.102 67.5119 388.102 60.5746V12.5671C388.102 5.62969 382.476 0 375.544 0H375.522Z" fill="#B970FF"/>
<path d="M344.316 48.7831L335.567 48.894C335.523 47.6306 335.501 46.877 335.501 46.5889C335.456 43.7519 335.899 41.4025 336.807 39.5629C337.716 37.7232 339.576 35.6176 342.367 33.2904C345.157 30.9632 346.818 29.4339 347.35 28.7246C348.17 27.5942 348.59 26.353 348.568 25.001C348.546 23.1171 347.771 21.5213 346.265 20.1914C344.737 18.8616 342.721 18.2188 340.174 18.2631C337.716 18.2853 335.678 19.0167 334.061 20.4352C332.444 21.8537 331.337 24.0036 330.739 26.885L321.857 25.9098C322.057 21.8094 323.762 18.2853 326.951 15.3818C330.163 12.4783 334.393 10.9933 339.665 10.9046C345.202 10.8382 349.631 12.2123 352.954 15.0715C356.276 17.9307 357.959 21.2775 358.003 25.134C358.025 27.2618 357.45 29.3009 356.276 31.207C355.102 33.1353 352.555 35.7506 348.679 39.0753C346.663 40.8041 345.423 42.1782 344.936 43.2199C344.449 44.2617 344.249 46.1013 344.338 48.761L344.316 48.7831ZM335.656 57.0725C335.611 54.4128 337.76 52.2186 340.418 52.1743C343.075 52.1299 345.268 54.2798 345.312 56.9395C345.357 59.5992 343.208 61.7935 340.551 61.8378C337.893 61.8821 335.7 59.7322 335.656 57.0725Z" fill="white"/>
<defs>
<linearGradient id="paint0_linear_2119_11846" x1="40.22" y1="180.128" x2="371.447" y2="180.128" gradientUnits="userSpaceOnUse">
<stop stop-color="white"/>
<stop offset="1" stop-color="#CFB1FC"/>
</linearGradient>
<linearGradient id="paint1_linear_2119_11846" x1="308.502" y1="228.047" x2="328.103" y2="228.047" gradientUnits="userSpaceOnUse">
<stop stop-color="#24FFFF"/>
<stop offset="1" stop-color="#A349FF"/>
</linearGradient>
<linearGradient id="paint2_linear_2119_11846" x1="267.838" y1="348.598" x2="267.838" y2="390" gradientUnits="userSpaceOnUse">
<stop stop-color="white"/>
<stop offset="1" stop-color="#CFB1FC"/>
</linearGradient>
<linearGradient id="paint3_linear_2119_11846" x1="234.415" y1="369.432" x2="218.69" y2="369.432" gradientUnits="userSpaceOnUse">
<stop stop-color="white"/>
<stop offset="1" stop-color="#CFB1FC"/>
</linearGradient>
<linearGradient id="paint4_linear_2119_11846" x1="305.755" y1="348.752" x2="218.691" y2="348.752" gradientUnits="userSpaceOnUse">
<stop stop-color="white"/>
<stop offset="1" stop-color="#CFB1FC"/>
</linearGradient>
<linearGradient id="paint5_linear_2119_11846" x1="395.433" y1="378.142" x2="396.121" y2="249.789" gradientUnits="userSpaceOnUse">
<stop stop-color="#CE9BFF"/>
<stop offset="1" stop-color="#B669FF"/>
</linearGradient>
<linearGradient id="paint6_linear_2119_11846" x1="383.43" y1="167.118" x2="477.936" y2="167.118" gradientUnits="userSpaceOnUse">
<stop stop-color="#00FFFF"/>
<stop offset="1" stop-color="#45FFFF"/>
</linearGradient>
<linearGradient id="paint7_linear_2119_11846" x1="406.287" y1="132.852" x2="431.713" y2="132.852" gradientUnits="userSpaceOnUse">
<stop stop-color="white"/>
<stop offset="1" stop-color="#CFB1FC"/>
</linearGradient>
<linearGradient id="paint8_linear_2119_11846" x1="388.568" y1="202.869" x2="238.38" y2="151.249" gradientUnits="userSpaceOnUse">
<stop stop-color="white"/>
<stop offset="1" stop-color="#CFB1FC"/>
</linearGradient>
</defs>
</svg>
