<svg width="100" height="100" viewBox="0 0 100 100" fill="none" xmlns="http://www.w3.org/2000/svg">
<path d="M66 53.0899V17.191C66 16.3447 65.6574 15.5331 65.0481 14.9346C64.4387 14.3362 63.6119 14 62.75 14H17.25C16.388 14 15.5614 14.3362 14.9519 14.9346C14.3424 15.5331 14 16.3447 14 17.191V84.2022L20.5 77.8202L27 84.2022L34.3125 77.0225L42.4375 85" stroke="black" stroke-width="3" stroke-linecap="round" stroke-linejoin="round"/>
<path d="M36.7265 32H29.6437C28.5629 32.0056 27.5176 32.3888 26.686 33.084C25.8544 33.7792 25.2883 34.7434 25.0841 35.8121C24.8799 36.8808 25.0503 37.9877 25.5663 38.944C26.0823 39.9002 26.9119 40.6465 27.9135 41.0556L35.0865 43.9444C36.0884 44.3537 36.9181 45.1004 37.434 46.057C37.95 47.0133 38.1202 48.1207 37.9156 49.1895C37.711 50.2586 37.1443 51.2227 36.3122 51.9177C35.4801 52.6127 34.4343 52.9953 33.3532 53H26.2859" stroke="black" stroke-width="3" stroke-linecap="round" stroke-linejoin="round"/>
<path d="M32 57V53" stroke="black" stroke-width="3" stroke-linecap="round" stroke-linejoin="round"/>
<path d="M32 32V28" stroke="black" stroke-width="3" stroke-linecap="round" stroke-linejoin="round"/>
<path d="M47 33H55" stroke="black" stroke-width="3" stroke-linecap="round" stroke-linejoin="round"/>
<path d="M47 46H55" stroke="black" stroke-width="3" stroke-linecap="round" stroke-linejoin="round"/>
<path d="M85.5066 72.5685C85.8264 72.979 86 73.4821 86 74C86 74.5175 85.8264 75.0207 85.5066 75.4315C83.0398 78.6341 76.2666 86 66.5 86C56.7334 86 49.9569 78.6053 47.4934 75.4315C47.1736 75.0207 47 74.5175 47 74C47 73.4821 47.1736 72.979 47.4934 72.5685C49.9602 69.3659 56.7334 62 66.5 62C76.2666 62 83.0431 69.3851 85.5066 72.5685Z" stroke="#3DD3F2" stroke-width="3" stroke-linecap="round" stroke-linejoin="round"/>
<path d="M66.4999 69C67.39 69 68.26 69.2933 69.0001 69.8427C69.7399 70.392 70.3168 71.173 70.6573 72.0866C70.9981 73.0003 71.0872 74.0056 70.9135 74.9753C70.7398 75.9452 70.3111 76.8362 69.682 77.5356C69.0526 78.2345 68.2507 78.7109 67.3777 78.9039C66.505 79.0969 65.6003 78.9979 64.778 78.6192C63.9557 78.2409 63.2528 77.5999 62.7584 76.7779C62.264 75.9556 62 74.9889 62 73.9999C62 72.674 62.474 71.402 63.3179 70.4643C64.1618 69.5267 65.3066 69 66.4999 69Z" stroke="#3DD3F2" stroke-width="3" stroke-linecap="round" stroke-linejoin="round"/>
</svg>
