<svg width="100" height="100" viewBox="0 0 100 100" fill="none" xmlns="http://www.w3.org/2000/svg">
<path d="M25.4311 87.9853V49.7726C21.6408 48.4398 18.3568 45.9648 16.0312 42.6884C13.7056 39.412 12.4529 35.4953 12.4453 31.4774C12.4652 28.2555 13.2945 25.0902 14.857 22.2725C14.857 22.2725 23.7244 31.3323 24.6654 32.5365C25.1824 33.202 25.8349 33.7501 26.5797 34.1443C27.3245 34.5385 28.1446 34.7699 28.9857 34.8232C29.8267 34.8765 30.6694 34.7504 31.458 34.4532C32.2466 34.1561 32.963 33.6948 33.5598 33.0998C34.1548 32.503 34.6161 31.7865 34.9132 30.9979C35.2103 30.2093 35.3364 29.3666 35.2832 28.5255C35.2299 27.6845 34.9985 26.8644 34.6043 26.1195C34.2101 25.3747 33.6621 24.7222 32.9966 24.2052C31.7924 23.2641 22.7327 14.3965 22.7327 14.3965C25.2188 13.0032 27.9879 12.1906 30.8325 12.0194C33.6772 11.8483 36.5237 12.3231 39.1589 13.4082C42.843 14.8599 45.9945 17.4044 48.1902 20.6997C50.3858 23.9951 51.5204 27.8835 51.4415 31.8426C51.3625 35.8016 50.0738 39.6417 47.7485 42.8469C45.4232 46.0521 42.1727 48.4689 38.4337 49.7726V87.9853" stroke="black" stroke-width="3" stroke-linecap="round" stroke-linejoin="round"/>
<path d="M73.1542 57.9854H66.0991C65.0179 57.9861 63.9707 58.3481 63.137 59.0095C62.3033 59.6708 61.7351 60.5901 61.5299 61.6098C61.3248 62.6295 61.4954 63.686 62.0125 64.5981C62.5296 65.5102 63.3609 66.221 64.364 66.6087L71.5266 69.362C72.5297 69.7497 73.3611 70.4605 73.8782 71.3726C74.3953 72.2847 74.5659 73.3412 74.3607 74.3609C74.1555 75.3806 73.5873 76.2999 72.7537 76.9612C71.92 77.6226 70.8727 77.9846 69.7915 77.9854H62.7434" stroke="#3DD3F2" stroke-width="3" stroke-linecap="round" stroke-linejoin="round"/>
<path d="M67.4453 57.9854V54.9854" stroke="#3DD3F2" stroke-width="3" stroke-linecap="round" stroke-linejoin="round"/>
<path d="M67.4453 79.9854V77.9854" stroke="#3DD3F2" stroke-width="3" stroke-linecap="round" stroke-linejoin="round"/>
<path d="M67.9453 87.9854C79.2672 87.9854 88.4453 78.8072 88.4453 67.4853C88.4453 56.1635 79.2672 46.9854 67.9453 46.9854C56.6235 46.9854 47.4453 56.1635 47.4453 67.4853C47.4453 78.8072 56.6235 87.9854 67.9453 87.9854Z" stroke="#3DD3F2" stroke-width="3" stroke-linecap="round" stroke-linejoin="round"/>
</svg>
