<svg width="370" height="409" viewBox="0 0 370 409" fill="none" xmlns="http://www.w3.org/2000/svg">
<path d="M8.98438 194.316L113.961 133.287C119.564 130.029 127.323 130.489 135.884 135.435L30.9072 196.464C22.3456 191.518 14.5869 191.058 8.98438 194.316Z" fill="white"/>
<path d="M157.6 208.413L52.6228 269.442C58.1531 266.229 61.5814 259.388 61.6085 249.677C61.6626 230.11 47.9135 206.292 30.8984 196.464L135.876 135.435C152.891 145.263 166.64 169.081 166.586 188.648C166.558 198.368 163.13 205.2 157.6 208.413Z" fill="white"/>
<path d="M30.9087 196.464C47.9237 206.292 61.6728 230.11 61.6187 249.677C61.5646 269.235 47.7252 277.123 30.7102 267.294C13.6952 257.466 -0.0539712 233.648 0.000159287 214.09C0.0542898 194.523 13.8937 186.635 30.9087 196.464Z" fill="#DFC7FF"/>
<path d="M29.0405 214.352C37.8818 219.461 45.0361 231.843 45 242.015C44.9639 252.186 37.7736 256.284 28.9323 251.176C20.091 246.067 12.9367 233.685 12.9728 223.513C12.9999 213.342 20.1992 209.244 29.0405 214.352Z" fill="#D0ACFF"/>
<path d="M42.9807 268.54C39.1104 268.54 34.8431 267.25 30.4224 264.696C15.1847 255.896 2.83392 234.488 2.87903 216.97C2.90609 208.387 5.85621 201.961 11.1971 198.883C16.574 195.787 23.6742 196.473 31.1893 200.814C46.427 209.614 58.7778 231.022 58.7327 248.54C58.7056 257.123 55.7555 263.549 50.4146 266.618C48.1953 267.891 45.6872 268.522 42.9807 268.522V268.54ZM18.64 198.179C16.132 198.179 13.8314 198.757 11.8015 199.93C6.8486 202.782 4.10599 208.838 4.07892 216.988C4.03381 234.118 16.1139 255.066 31.0269 263.676C38.1631 267.8 44.8392 268.486 49.8282 265.607C54.7812 262.755 57.5238 256.699 57.5508 248.558C57.5959 231.419 45.5158 210.481 30.6029 201.87C26.3717 199.425 22.2938 198.188 18.64 198.188V198.179Z" fill="#D0ACFF"/>
<path d="M38.0281 259.479C35.1321 259.479 31.9294 258.513 28.6184 256.609C17.26 250.047 8.04881 234.091 8.09391 221.04C8.11196 214.605 10.3313 209.785 14.346 207.475C18.3877 205.146 23.7106 205.661 29.3492 208.91C40.7075 215.471 49.9187 231.428 49.8736 244.488C49.8556 250.923 47.6362 255.733 43.6216 258.044C41.9525 259.001 40.067 259.479 38.0281 259.479ZM19.9485 207.222C18.1171 207.222 16.43 207.647 14.9414 208.504C11.3057 210.598 9.30283 215.047 9.28479 221.04C9.2487 233.712 18.1893 249.208 29.2138 255.58C34.4645 258.612 39.3633 259.118 43.0261 257.015C46.6619 254.921 48.6647 250.472 48.6828 244.488C48.7189 231.807 39.7783 216.32 28.7537 209.948C25.6322 208.143 22.637 207.231 19.9485 207.231V207.222Z" fill="#D0ACFF"/>
<path d="M64.4429 162.077L52.1914 218.611L78.0928 269.316L186.814 216.626L138.169 114.929L64.4429 162.077Z" fill="#E7D4FF"/>
<path d="M29.1875 232.979V235.407C29.1875 235.976 28.7996 236.553 28.0508 236.987V234.559C28.8086 234.126 29.1785 233.548 29.1875 232.979Z" fill="#132044"/>
<path d="M28.0589 234.56L28.0498 236.987L24.0352 239.325V236.897L28.0589 234.56Z" fill="#132044"/>
<path d="M21.4375 242.952V240.525C21.4465 239.207 22.3126 237.898 24.0358 236.896V239.324C22.3036 240.326 21.4375 241.644 21.4375 242.952Z" fill="#132044"/>
<path d="M13.6875 242.935V240.507C13.6875 242.998 15.3295 245.489 18.6134 247.384V249.812C15.3205 247.917 13.6785 245.426 13.6875 242.935Z" fill="#132044"/>
<path d="M63.9837 273.584L63.9746 276.012L18.6133 249.812L18.6223 247.384L63.9837 273.584Z" fill="#132044"/>
<path d="M69.4437 270.407L69.4347 272.835L63.9766 276.012L63.9856 273.584L69.4437 270.407Z" fill="#132044"/>
<path d="M28.0405 231.382C29.5562 232.258 29.5652 233.684 28.0586 234.559L24.0349 236.897C20.5615 238.918 20.5795 242.185 24.08 244.207L69.4413 270.408L63.9832 273.585L18.6218 247.384C12.0901 243.611 12.054 237.492 18.5406 233.72L22.5643 231.382C24.0709 230.507 26.5249 230.507 28.0495 231.382H28.0405Z" fill="#132044"/>
<path d="M38.0547 228.359L164.025 155.128C165.343 154.36 167.156 154.469 169.168 155.633L43.1971 228.864C41.1852 227.709 39.3719 227.601 38.0547 228.359Z" fill="#CDA6FF"/>
<path d="M43.1992 228.864L169.17 155.624L184.967 164.749L58.9963 237.989L43.1992 228.864Z" fill="#CDA6FF"/>
<path d="M58.9961 237.989L184.967 164.749L217.346 202.935L91.3752 276.176L58.9961 237.989Z" fill="#132044"/>
<path d="M367.861 335.282L241.891 408.513C243.19 407.755 243.993 406.157 244.002 403.874L369.972 330.643C369.972 332.917 369.16 334.523 367.861 335.282Z" fill="#BA84FF"/>
<path d="M244.031 393.594L370.002 320.354L369.975 330.642L244.004 403.874L244.031 393.594Z" fill="#BA84FF"/>
<path d="M91.375 276.175L217.346 202.935L363.697 308.449L237.717 381.69L91.375 276.175Z" fill="#CDA6FF"/>
<path d="M237.715 381.69L363.686 308.459C367.303 311.067 370.01 316.167 369.992 320.363L244.021 393.595C244.03 389.398 241.324 384.299 237.715 381.69Z" fill="#CDA6FF"/>
<path d="M58.9946 237.989L91.3736 276.176L237.724 381.69C241.342 384.299 244.049 389.398 244.031 393.595L244.004 403.884C243.995 408.469 240.747 410.319 236.75 408.017L43.008 296.112C39.0204 293.811 35.7906 288.215 35.8087 283.63L35.953 233.008C35.962 228.414 39.2099 226.563 43.2065 228.874L59.0036 237.999L58.9946 237.989Z" fill="#BA84FF"/>
<path d="M210.787 241.562C209.19 240.416 209.272 238.656 210.968 237.664L227.739 227.817C229.435 226.824 232.124 226.95 233.72 228.097L240.252 232.808C241.849 233.954 241.759 235.705 240.063 236.698L223.201 246.499C221.505 247.483 218.808 247.357 217.211 246.201L210.787 241.562Z" fill="#B377FF"/>
<path d="M206.86 234.974C205.164 235.967 202.475 235.841 200.878 234.694L195.736 230.985C194.139 229.839 194.229 228.088 195.926 227.095L212.778 217.294C214.474 216.301 217.172 216.436 218.769 217.592L223.821 221.238C225.418 222.384 225.336 224.144 223.64 225.137L206.869 234.974H206.86Z" fill="#B377FF"/>
<path d="M221.622 322.014C219.926 322.998 217.228 322.872 215.632 321.717L198.256 309.18C196.659 308.034 196.749 306.283 198.445 305.29L215.298 295.489C216.994 294.496 219.691 294.632 221.288 295.787L238.664 308.323C240.261 309.469 240.171 311.22 238.475 312.213L221.613 322.014H221.622Z" fill="#994AFF"/>
<path d="M242.541 353.377C244.237 352.393 246.935 352.519 248.532 353.675L265.907 366.202C267.504 367.348 267.414 369.099 265.718 370.092L248.856 379.893C247.16 380.877 244.463 380.751 242.866 379.595L225.49 367.059C223.893 365.913 223.983 364.162 225.679 363.169L242.532 353.377H242.541Z" fill="#B377FF"/>
<path d="M249.614 342.204C247.918 343.187 245.221 343.061 243.624 341.906L226.248 329.379C224.651 328.232 224.741 326.482 226.437 325.489L243.29 315.687C244.986 314.694 247.683 314.83 249.28 315.985L266.656 328.521C268.253 329.667 268.163 331.418 266.467 332.411L249.614 342.204Z" fill="#994AFF"/>
<path d="M255.072 276.346C253.475 275.2 253.565 273.449 255.261 272.456L272.114 262.655C273.81 261.662 276.508 261.798 278.105 262.953L295.48 275.489C297.077 276.635 296.987 278.386 295.291 279.379L278.438 289.171C276.742 290.155 274.045 290.029 272.448 288.874L255.081 276.346H255.072Z" fill="#B377FF"/>
<path d="M299.354 319.334C301.05 318.341 303.747 318.476 305.344 319.632L322.72 332.168C324.317 333.314 324.227 335.065 322.53 336.058L305.669 345.859C303.973 346.843 301.275 346.717 299.678 345.561L282.303 333.025C280.706 331.879 280.796 330.128 282.492 329.135L299.345 319.334H299.354Z" fill="#B377FF"/>
<path d="M155.445 282.682C157.042 283.829 156.952 285.579 155.255 286.572L138.403 296.374C136.707 297.367 134.009 297.231 132.412 296.076L125.899 291.383C124.302 290.237 123.003 289.28 123.012 289.28C123.021 289.28 124.41 288.45 126.106 287.457L142.851 277.637C144.547 276.644 147.235 276.771 148.832 277.917L155.454 282.691L155.445 282.682Z" fill="#B377FF"/>
<path d="M138.918 271.03C140.515 272.176 140.434 273.936 138.738 274.929L121.993 284.748C120.297 285.741 118.908 286.563 118.899 286.572C118.89 286.581 117.582 285.642 115.985 284.496L110.924 280.85C109.327 279.703 109.417 277.952 111.113 276.96L127.975 267.158C129.671 266.174 132.368 266.301 133.965 267.456L138.918 271.03Z" fill="#B377FF"/>
<path d="M179.307 251.129C177.611 252.122 174.923 251.996 173.326 250.849L167.732 246.815C166.135 245.669 166.226 243.918 167.922 242.925L184.774 233.124C186.47 232.131 189.168 232.266 190.765 233.422L196.268 237.384C197.865 238.53 197.784 240.29 196.088 241.283L179.307 251.12V251.129Z" fill="#B377FF"/>
<path d="M216.884 257.836C218.58 256.843 221.277 256.978 222.874 258.134L240.241 270.661C241.838 271.807 241.748 273.558 240.051 274.551L223.199 284.352C221.503 285.345 218.805 285.209 217.208 284.054L199.842 271.527C198.245 270.381 198.335 268.63 200.031 267.637L216.884 257.836Z" fill="#994AFF"/>
<path d="M227.826 255.687C226.229 254.541 226.319 252.79 228.015 251.797L244.868 241.996C246.564 241.003 249.262 241.138 250.858 242.294L268.234 254.821C269.831 255.967 269.741 257.718 268.045 258.711L251.183 268.512C249.487 269.496 246.79 269.37 245.193 268.214L227.826 255.687Z" fill="#A35DFF"/>
<path d="M270.537 336.346C272.233 335.354 274.931 335.489 276.528 336.644L293.904 349.18C295.5 350.327 295.41 352.078 293.714 353.07L276.852 362.872C275.156 363.856 272.459 363.729 270.862 362.574L253.486 350.038C251.889 348.892 251.979 347.141 253.676 346.148L270.528 336.346H270.537Z" fill="#994AFF"/>
<path d="M278.429 325.201C276.733 326.184 274.036 326.058 272.439 324.903L255.072 312.376C253.475 311.229 253.565 309.479 255.261 308.486L272.114 298.684C273.81 297.692 276.508 297.827 278.105 298.982L295.48 311.518C297.077 312.665 296.987 314.415 295.291 315.408L278.438 325.201H278.429Z" fill="#994AFF"/>
<path d="M150.413 268.088C148.717 269.081 146.029 268.954 144.432 267.808L138.92 263.828C137.323 262.682 137.413 260.931 139.109 259.938L155.971 250.137C157.667 249.153 160.364 249.279 161.961 250.435L167.374 254.342C168.971 255.498 168.89 257.249 167.194 258.241L150.422 268.079L150.413 268.088Z" fill="#B377FF"/>
<path d="M194.382 301.365C192.686 302.348 189.989 302.222 188.392 301.067L171.025 288.54C169.428 287.394 169.519 285.643 171.215 284.65L188.067 274.848C189.763 273.856 192.461 273.991 194.058 275.146L211.434 287.673C213.03 288.82 212.94 290.57 211.244 291.563L194.382 301.365Z" fill="#994AFF"/>
<path d="M238.671 345.552C240.267 346.699 240.177 348.45 238.481 349.442L221.629 359.235C219.932 360.219 217.235 360.092 215.638 358.937L198.271 346.41C196.674 345.264 196.765 343.513 198.461 342.52L215.313 332.718C217.009 331.726 219.707 331.861 221.304 333.016L238.68 345.552H238.671Z" fill="#994AFF"/>
<path d="M250.446 305.01C248.75 306.003 246.053 305.868 244.456 304.713L227.08 292.176C225.483 291.03 225.573 289.279 227.269 288.287L244.122 278.485C245.818 277.492 248.516 277.628 250.112 278.783L267.488 291.319C269.085 292.465 268.995 294.216 267.299 295.209L250.446 305.01Z" fill="#994AFF"/>
<path d="M210.676 325.363C212.273 326.509 212.182 328.26 210.486 329.253L193.634 339.054C191.938 340.047 189.24 339.912 187.643 338.757L170.267 326.22C168.67 325.074 168.761 323.323 170.457 322.331L187.309 312.529C189.006 311.536 191.703 311.672 193.3 312.827L210.676 325.363Z" fill="#994AFF"/>
<path d="M183.44 304.704C185.037 305.85 184.947 307.601 183.251 308.594L166.398 318.395C164.702 319.388 162.005 319.252 160.408 318.097L143.041 305.57C141.444 304.424 141.534 302.673 143.23 301.68L160.083 291.879C161.779 290.886 164.476 291.021 166.073 292.176L183.44 304.704Z" fill="#994AFF"/>
<path d="M171.307 260.931C173.003 259.938 175.691 260.065 177.288 261.211L183.441 265.651C185.038 266.798 184.948 268.549 183.251 269.541L166.399 279.343C164.703 280.336 162.005 280.2 160.408 279.045L154.346 274.668C152.749 273.512 152.83 271.762 154.526 270.769L171.298 260.931H171.307Z" fill="#B377FF"/>
<path d="M200.193 243.972C201.889 242.979 204.578 243.106 206.175 244.252L212.246 248.629C213.843 249.775 213.753 251.526 212.057 252.519L195.204 262.321C193.508 263.313 190.811 263.178 189.214 262.023L183.233 257.709C181.636 256.562 181.717 254.803 183.413 253.81L200.193 243.972Z" fill="#B377FF"/>
<path d="M350.749 316.951C352.319 318.133 352.22 319.902 350.524 320.886L333.671 330.679C331.975 331.662 329.295 331.509 327.717 330.336L283.095 296.951C281.516 295.769 281.625 294 283.321 293.016L300.182 283.215C301.878 282.231 304.558 282.384 306.137 283.557L350.749 316.951Z" fill="#A35DFF"/>
<path d="M48.7891 227.791L167.163 158.928L177.25 164.749L58.8664 233.621L48.7891 227.791Z" fill="#132044"/>
<path d="M244.029 394.19C243.921 394.19 243.804 394.163 243.704 394.091L81.0512 288.603C80.9971 288.567 80.952 288.531 80.9159 288.486L35.4824 233.377C35.2749 233.125 35.311 232.746 35.5636 232.538C35.8162 232.331 36.1951 232.367 36.4026 232.619L81.773 287.656L244.345 393.089C244.625 393.27 244.697 393.64 244.525 393.911C244.408 394.082 244.219 394.181 244.029 394.181V394.19Z" fill="#CDA6FF"/>
<path d="M202.337 206.561L98.6682 266.499C96.3497 267.834 93.4176 267.329 91.6764 265.28L72.5503 242.717C70.3129 240.082 71.0166 236.074 73.9938 234.341L177.663 174.404C179.972 173.06 182.913 173.574 184.646 175.614L203.781 198.186C206.009 200.812 205.314 204.829 202.337 206.552V206.561Z" fill="#B377FF"/>
<path d="M95.9083 267.844C94.158 267.844 92.4259 267.095 91.226 265.678L72.0999 243.114C70.918 241.724 70.4218 239.901 70.7376 238.105C71.0443 236.309 72.1269 234.757 73.7057 233.845L177.375 173.908C179.937 172.419 183.194 172.988 185.106 175.253L204.241 197.825C205.414 199.215 205.919 201.038 205.604 202.834C205.297 204.63 204.214 206.183 202.636 207.094L98.9666 267.04C98.0103 267.591 96.9548 267.862 95.9083 267.862V267.844ZM180.433 174.269C179.594 174.269 178.737 174.486 177.961 174.937L74.2921 234.874C73.0201 235.605 72.154 236.86 71.9014 238.304C71.6488 239.748 72.0547 241.219 73.002 242.338L92.1281 264.901C93.6709 266.725 96.2962 267.176 98.3622 265.984L202.031 206.047C203.303 205.316 204.169 204.062 204.422 202.618C204.674 201.174 204.268 199.703 203.321 198.583L184.186 176.011C183.221 174.874 181.831 174.269 180.424 174.269H180.433Z" fill="white"/>
<path d="M135.734 208.584L154.12 223.07L150.304 225.326L146.136 221.779L140.037 225.38L141.779 230.362L137.953 232.619L131.395 211.138L135.734 208.575V208.584ZM138.72 221.671L143.078 219.09C139.28 215.886 137.132 214.081 136.636 213.656C136.149 213.232 135.77 212.889 135.499 212.637C135.969 213.837 137.042 216.842 138.711 221.671" fill="#C99FFF"/>
<path d="M117.952 219.188L128.191 233.972L134.976 229.956L137.15 233.096L126.82 239.198L114.406 221.291L117.952 219.188Z" fill="#C99FFF"/>
<path d="M106.321 225.958L124.707 240.444L120.882 242.7L116.714 239.153L110.615 242.754L112.357 247.736L108.531 249.993L101.973 228.512L106.312 225.949L106.321 225.958ZM109.307 239.045L113.665 236.464C109.867 233.26 107.72 231.455 107.232 231.021C106.736 230.597 106.357 230.254 106.096 230.002C106.574 231.193 107.638 234.207 109.307 239.036" fill="#C99FFF"/>
<path d="M101.081 243.187C102.028 243.603 102.903 244.388 103.697 245.543C104.825 247.177 105.158 248.774 104.689 250.344C104.22 251.906 103.038 253.251 101.144 254.37L94.8827 258.07L82.4688 240.155L87.6743 237.077C90.047 235.678 92.0228 235.019 93.5926 235.11C95.1623 235.2 96.4976 236.03 97.5892 237.61C98.329 238.684 98.7079 239.695 98.7079 240.66C98.7079 241.626 98.3741 242.411 97.6975 243.007L97.7787 243.133C99.0146 242.763 100.106 242.781 101.063 243.196L101.081 243.187ZM100.332 249.586C100.521 248.909 100.332 248.16 99.7544 247.339C98.7259 245.85 97.2193 245.696 95.2345 246.861L93.0332 248.16L96.272 252.826L98.5816 251.464C99.5559 250.886 100.142 250.263 100.332 249.586ZM88.1885 241.166L90.9492 245.146L93.0061 243.927C93.9715 243.359 94.5579 242.79 94.7654 242.213C94.9729 241.635 94.8195 240.985 94.3143 240.254C93.8362 239.568 93.2678 239.216 92.5911 239.189C91.9145 239.171 91.0665 239.46 90.056 240.056L88.1885 241.157" fill="#C99FFF"/>
<path d="M187.436 178.133L189.601 181.247L183.512 184.839L186.236 188.774L191.893 185.425L194.058 188.539L188.392 191.887L191.586 196.508L197.676 192.907L199.85 196.048L190.215 201.734L177.801 183.828L187.436 178.133Z" fill="#C99FFF"/>
<path d="M169.8 188.187C171.424 187.231 173.346 186.689 175.574 186.554L176.575 190.317C175.727 190.371 174.906 190.462 174.113 190.597C173.319 190.732 172.615 190.985 172.001 191.346C170.666 192.131 170.008 193.287 170.017 194.794C170.026 196.301 170.693 198.016 172.028 199.938C174.798 203.927 177.586 205.101 180.383 203.449C181.555 202.754 182.764 201.599 184 199.983L186.211 203.169C185.263 204.595 183.937 205.805 182.25 206.807C179.814 208.242 177.405 208.557 175.024 207.736C172.642 206.915 170.423 205.029 168.375 202.068C167.085 200.209 166.264 198.386 165.93 196.617C165.596 194.839 165.758 193.223 166.426 191.779C167.094 190.335 168.23 189.135 169.818 188.187H169.8Z" fill="#C99FFF"/>
<path d="M158.657 195.137L171.071 213.052L166.56 215.714L149.897 206.463L149.789 206.527C151.593 208.837 152.847 210.498 153.56 211.518L159.397 219.947L156.23 221.825L143.816 203.909L148.291 201.265L164.855 210.389L164.936 210.344C163.213 208.088 162.013 206.472 161.346 205.507L155.473 197.032L158.666 195.146L158.657 195.137Z" fill="#C99FFF"/>
<path d="M64.3882 102.265L169.365 41.2363L169.004 169.495L64.0273 230.524L64.3882 102.265Z" fill="white"/>
<path d="M83.3427 142.96L96.9204 147.148L96.9385 187.193L83.3607 183.005L69.8462 202.843L69.8281 162.798L83.3427 142.96Z" fill="#B377FF"/>
<path d="M83.4677 188.547L97.0454 192.735L97.0725 200L83.4857 195.812L69.9712 215.65L69.9531 208.385L83.4677 188.547Z" fill="#B377FF"/>
<path d="M86.728 155.289L89.66 153.592L79.7993 179.864L76.8672 181.561L86.728 155.289Z" fill="#C99FFF"/>
<path d="M92.6911 161.435C93.4309 162.112 93.8098 163.493 93.8098 165.55C93.8098 167.608 93.458 169.521 92.7362 171.02C92.0145 172.527 90.9499 173.673 89.5516 174.485C88.1532 175.298 87.1608 175.307 86.43 174.621C85.6903 173.935 85.3204 172.545 85.3204 170.46C85.3113 166.173 86.7097 163.222 89.5245 161.597C90.9048 160.803 91.9604 160.749 92.7001 161.435H92.6911ZM89.5696 171.579C90.3545 171.128 90.7424 169.72 90.7334 167.355C90.7244 164.991 90.3274 164.07 89.5516 164.521C89.1456 164.756 88.8479 165.216 88.6674 165.902C88.487 166.588 88.3968 167.518 88.3968 168.709C88.3968 169.901 88.496 170.731 88.6764 171.218C88.8569 171.697 89.1546 171.823 89.5696 171.588" fill="#C99FFF"/>
<path d="M80.1867 170.063C79.4649 171.561 78.4004 172.716 77.002 173.529C75.6036 174.341 74.6202 174.35 73.8805 173.664C73.1407 172.978 72.7708 171.588 72.7618 169.494C72.7527 165.207 74.1511 162.256 76.9659 160.632C78.3462 159.837 79.4018 159.774 80.1506 160.46C80.8904 161.146 81.2603 162.518 81.2693 164.585C81.2783 166.651 80.9174 168.565 80.1957 170.063H80.1867ZM76.1269 170.235C76.3073 170.713 76.605 170.839 77.02 170.605C77.8049 170.153 78.1838 168.745 78.1838 166.39C78.1838 164.034 77.7869 163.096 77.002 163.547C76.596 163.781 76.2983 164.242 76.1179 164.928C75.9374 165.614 75.8472 166.552 75.8472 167.735C75.8472 168.917 75.9464 169.756 76.1359 170.235" fill="#C99FFF"/>
<path d="M149.281 73.998L149.299 77.7074L72.4426 119.314L72.4336 115.614L149.281 73.998Z" fill="#DFC7FF"/>
<path d="M141.244 173.276L141.262 176.977L103.236 198.944L103.227 195.235L141.244 173.276Z" fill="#DFC7FF"/>
<path d="M163.555 151.489L163.564 155.19L103.208 190.054L103.199 186.345L163.555 151.489Z" fill="#DFC7FF"/>
<path d="M163.527 142.274L163.536 145.984L103.181 180.84L103.172 177.13L163.527 142.274Z" fill="#DFC7FF"/>
<path d="M141.154 141.534L141.172 145.235L103.146 167.193L103.137 163.493L141.154 141.534Z" fill="#DFC7FF"/>
<path d="M163.465 119.747L163.474 123.447L103.118 158.303L103.109 154.603L163.465 119.747Z" fill="#DFC7FF"/>
<path d="M163.438 110.542L163.447 114.242L103.091 149.098L103.082 145.398L163.438 110.542Z" fill="#DFC7FF"/>
<path d="M127.016 105L127.025 108.7L72.4973 137.419L72.4883 133.71L127.016 105Z" fill="#DFC7FF"/>
<path d="M149.308 83.2129L149.317 86.9223L72.47 128.529L72.4609 124.82L149.308 83.2129Z" fill="#DFC7FF"/>
<path d="M149.273 55.2705L149.282 58.9799L72.4348 100.587L72.4258 96.8862L149.273 55.2705Z" fill="#DFC7FF"/>
<path d="M149.302 64.4854L149.311 68.1948L72.4634 109.801L72.4453 106.092L149.302 64.4854Z" fill="#DFC7FF"/>
<path d="M181.582 267.058L286.559 206.029C286.505 224.053 292.613 244.603 303.737 263.882C314.87 283.169 329.638 298.773 345.318 307.835L240.341 368.864C224.661 359.812 209.893 344.198 198.76 324.911C187.636 305.633 181.528 285.082 181.582 267.058Z" fill="white"/>
<path d="M81.8348 64.413L187.299 3.71777C176.094 10.1077 169.409 23.2124 169.364 41.236L64.3867 102.265C64.4408 84.2416 70.6388 70.7939 81.8348 64.404V64.413Z" fill="white"/>
<path d="M181.862 170.118L286.839 109.089L286.559 206.03L181.582 267.059L181.862 170.118Z" fill="white"/>
<path d="M81.8984 64.9911L186.876 3.96193C197.521 -2.22943 212.263 -1.37203 228.502 8.00527C260.773 26.6425 286.936 71.9857 286.837 109.08L181.859 170.109C181.968 133.015 155.796 87.6717 123.525 69.0344C107.286 59.6571 92.5441 58.7997 81.8984 64.9911Z" fill="white"/>
<path d="M123.526 68.5471C107.846 59.4947 93.0413 58.0236 81.8363 64.4045C70.6313 70.7944 64.4333 84.2421 64.3882 102.266L64.0273 230.524L64.8122 102.509C64.9205 65.4153 91.255 50.3972 123.526 69.0345C155.797 87.6717 181.96 133.015 181.86 170.109L181.59 267.05C181.536 285.073 187.643 305.624 198.767 324.902C209.9 344.189 224.669 359.794 240.348 368.855C208.078 349.731 181.915 304.387 182.014 267.266L182.284 170.353C182.339 152.329 176.231 131.778 165.098 112.491C153.974 93.2133 139.206 77.5995 123.526 68.5471Z" fill="#D0ACFF"/>
<path d="M216.746 218.828C217.567 218.349 218.388 218.241 219.019 218.602C219.642 218.963 219.948 219.721 219.957 220.66C219.966 221.598 219.651 222.727 219.028 223.81L214.968 230.813L205.026 247.952C204.611 248.674 204.061 249.225 203.52 249.541C202.933 249.875 202.356 249.938 201.932 249.64L195.969 245.479C194.787 244.649 194.886 242.257 196.203 240.145C196.808 239.171 197.574 238.413 198.323 237.979C199.207 237.474 200.073 237.375 200.714 237.826L203.664 239.893L214.499 221.21C214.635 220.976 214.779 220.759 214.932 220.542C215.474 219.793 216.114 219.207 216.755 218.837L216.746 218.828Z" fill="#B377FF"/>
<path d="M214.925 220.363V220.534C214.771 220.742 214.627 220.967 214.492 221.202L203.657 239.884L200.706 237.817C200.066 237.375 199.2 237.466 198.316 237.971C197.558 238.404 196.8 239.162 196.196 240.137C194.887 242.249 194.779 244.65 195.961 245.471L201.924 249.632C202.348 249.929 202.926 249.866 203.512 249.532C204.054 249.216 204.604 248.666 205.019 247.944L214.961 230.805L215.006 245.651L193.002 258.359L192.93 233.061L214.934 220.354L214.925 220.363Z" fill="#DFC7FF"/>
<path d="M216.656 187.085C217.477 186.607 218.298 186.499 218.929 186.86C219.552 187.212 219.859 187.979 219.868 188.918C219.877 189.856 219.561 190.993 218.938 192.067L214.879 199.08L204.937 216.219C204.522 216.941 203.971 217.492 203.43 217.799C202.844 218.133 202.266 218.196 201.842 217.907L195.879 213.737C194.697 212.907 194.796 210.524 196.113 208.403C196.718 207.419 197.485 206.661 198.233 206.228C199.118 205.723 199.984 205.632 200.624 206.075L203.574 208.141L214.409 189.459C214.545 189.224 214.689 188.999 214.842 188.791C215.384 188.042 216.024 187.446 216.665 187.085H216.656Z" fill="#B377FF"/>
<path d="M214.835 188.62V188.792C214.682 188.999 214.537 189.225 214.402 189.459L203.567 208.142L200.617 206.075C199.976 205.633 199.11 205.723 198.226 206.228C197.468 206.662 196.71 207.42 196.106 208.404C194.798 210.516 194.689 212.907 195.871 213.738L201.835 217.907C202.259 218.205 202.836 218.142 203.422 217.799C203.964 217.483 204.514 216.933 204.929 216.22L214.871 199.08L214.916 213.927L192.912 226.635L192.84 201.328L214.844 188.62H214.835Z" fill="#DFC7FF"/>
<path d="M214.736 157.167V157.338C214.582 157.546 214.438 157.772 214.303 158.006L203.459 176.689L200.508 174.631C199.877 174.18 199.002 174.27 198.118 174.775C197.36 175.209 196.602 175.967 195.989 176.95C194.68 179.062 194.581 181.454 195.763 182.284L201.726 186.445C202.15 186.743 202.728 186.68 203.314 186.346C203.856 186.03 204.406 185.479 204.821 184.766L214.763 167.618L214.808 182.465L192.795 195.182L192.723 169.884L214.736 157.167Z" fill="#DFC7FF"/>
<path d="M216.559 155.632C217.38 155.154 218.201 155.046 218.833 155.407C219.464 155.768 219.762 156.526 219.771 157.464C219.78 158.403 219.464 159.54 218.842 160.623L214.782 167.627L204.84 184.775C204.425 185.488 203.884 186.048 203.333 186.354C202.747 186.688 202.169 186.752 201.745 186.454L195.782 182.293C194.6 181.463 194.699 179.071 196.008 176.959C196.621 175.975 197.379 175.217 198.137 174.784C199.012 174.279 199.887 174.188 200.527 174.64L203.478 176.697L214.322 158.015C214.457 157.78 214.601 157.564 214.755 157.347C215.296 156.598 215.937 156.011 216.568 155.641L216.559 155.632Z" fill="#B377FF"/>
<path d="M282.479 119.784L282.497 123.494L222.151 158.349L222.133 154.64L282.479 119.784Z" fill="#DFC7FF"/>
<path d="M260.397 213.981L260.406 217.682L222.388 239.649L222.379 235.94L260.397 213.981Z" fill="#DFC7FF"/>
<path d="M282.707 192.194L282.716 195.895L222.361 230.759L222.352 227.05L282.707 192.194Z" fill="#DFC7FF"/>
<path d="M282.68 182.979L282.689 186.689L222.333 221.545L222.324 217.835L282.68 182.979Z" fill="#DFC7FF"/>
<path d="M260.303 182.239L260.312 185.94L222.294 207.898L222.285 204.207L260.303 182.239Z" fill="#DFC7FF"/>
<path d="M282.613 160.452L282.622 164.153L222.267 199.017L222.258 195.317L282.613 160.452Z" fill="#DFC7FF"/>
<path d="M282.586 151.246L282.595 154.946L222.239 189.811L222.23 186.102L282.586 151.246Z" fill="#DFC7FF"/>
<path d="M260.214 150.786L260.223 154.487L222.197 176.454L222.188 172.745L260.214 150.786Z" fill="#DFC7FF"/>
<path d="M282.507 128.999L282.525 132.708L222.178 167.564L222.16 163.855L282.507 128.999Z" fill="#DFC7FF"/>
<path d="M203.007 111.056L219.517 120.469C215.656 127.166 213.265 134.711 213.283 141.507L190.016 154.946C189.98 141.227 194.59 125.641 202.998 111.065L203.007 111.056Z" fill="#A35DFF"/>
<path d="M234.567 77.7529L234.639 104.495C228.73 107.906 223.38 113.764 219.51 120.461L203 111.047C211.417 96.4714 222.622 84.6483 234.558 77.7529H234.567Z" fill="#47E4FF"/>
<path d="M266.215 74.5488C274.687 79.3774 279.369 89.594 279.405 103.312L256.138 116.751C256.12 109.964 253.693 105.19 249.805 102.97L266.206 74.5488H266.215Z" fill="#B377FF"/>
<path d="M234.566 77.7525C246.502 70.8572 257.743 69.72 266.206 74.5485L249.804 102.969C245.907 100.758 240.548 101.083 234.639 104.494L234.566 77.7525Z" fill="#C99FFF"/>
<path d="M237.93 123.077C239.075 123.474 239.869 124.548 240.095 126.164L238.39 127.148L237.93 123.077Z" fill="#132044"/>
<path d="M228.324 132.951C228.541 131.083 229.326 129.098 230.462 127.383L230.029 131.959L228.324 132.942V132.951Z" fill="#132044"/>
<path d="M281.443 102.274V103.836L186.977 158.394V156.841L228.323 132.951L230.037 131.968L238.383 127.148L240.088 126.155L281.443 102.274Z" fill="#132044"/>
<path d="M234.099 88.8535L237.933 123.077L238.384 127.148L230.039 131.967L230.463 127.383L234.099 88.8535Z" fill="#132044"/>
<path d="M185.281 95.3882C191.677 91.6878 196.883 94.6572 196.91 102.013C196.928 109.359 191.759 118.322 185.362 122.022C178.966 125.713 173.76 122.744 173.742 115.397C173.724 108.042 178.894 99.0796 185.29 95.3882H185.281Z" fill="#A35DFF"/>
<path d="M190.179 97.1392C190.594 96.8955 191.009 96.8414 191.334 97.0219L192.461 97.6717C193.102 98.0327 193.102 99.2241 192.461 100.316L188.744 106.76L192.47 108.89C193.102 109.251 193.111 110.443 192.47 111.535L191.352 113.484C191.036 114.026 190.621 114.45 190.215 114.684C189.809 114.919 189.376 114.982 189.06 114.802L185.325 112.672L181.635 119.071C181.319 119.612 180.904 120.036 180.489 120.28C180.074 120.524 179.659 120.578 179.335 120.397L178.198 119.757C177.566 119.396 177.557 118.204 178.198 117.112L181.897 110.713L178.162 108.583C177.53 108.222 177.521 107.04 178.153 105.948L179.28 103.998C179.596 103.457 180.011 103.033 180.426 102.789C180.841 102.545 181.256 102.491 181.572 102.672L185.307 104.802L189.033 98.3486C189.349 97.7981 189.764 97.3829 190.179 97.1392Z" fill="white"/>
<path d="M274.703 42.8247C281.099 39.1244 286.305 42.0937 286.332 49.4493C286.35 56.7959 281.181 65.7581 274.784 69.4584C268.388 73.1588 263.182 70.1805 263.164 62.8339C263.146 55.4782 268.316 46.5161 274.712 42.8247H274.703Z" fill="#B377FF"/>
<path d="M280.594 44.7198C280.946 44.5213 281.298 44.431 281.605 44.5032L282.732 44.774C283.517 44.9725 283.698 46.1097 283.147 47.3372L275.849 63.4203L274.712 65.9112C274.369 66.6513 273.837 67.265 273.287 67.5809C272.935 67.7795 272.592 67.8607 272.285 67.7885L271.536 67.608L270.815 67.3553L265.726 65.5502C264.978 65.2885 264.86 64.0791 265.465 62.8787L266.34 61.1278C266.683 60.4419 267.188 59.9004 267.693 59.6026C268.081 59.3769 268.469 59.3047 268.794 59.413L272.637 60.7758L279.169 46.3805C279.512 45.6314 280.044 45.0267 280.594 44.7108V44.7198Z" fill="white"/>
<path d="M208.987 10.3967L125.888 58.1497C124.048 57.3464 122.234 56.6514 120.457 56.0738L203.322 8.44727C205.171 8.96171 207.066 9.61153 208.987 10.3967Z" fill="#DFC7FF"/>
<path d="M224.605 19.1152L141.1 67.1118C139.747 66.11 138.384 65.1533 137.004 64.2508L220.419 16.3174C221.826 17.1928 223.225 18.1315 224.605 19.1152Z" fill="#DFC7FF"/>
<path d="M239.086 31.6602L155.328 79.8102C154.264 78.6731 153.172 77.5629 152.062 76.4799L235.766 28.375C236.894 29.44 237.995 30.5321 239.086 31.6602Z" fill="#DFC7FF"/>
<path d="M249.252 43.5286L165.332 91.7508C164.43 90.5324 163.51 89.332 162.562 88.1497L246.438 39.9365C247.394 41.1098 248.332 42.3102 249.252 43.5286Z" fill="#DFC7FF"/>
<path d="M340.398 317.357L340.38 322.484C340.389 319.036 338.116 315.579 333.569 312.953C324.538 307.736 309.887 307.736 300.91 312.953C296.453 315.543 294.225 318.946 294.207 322.348L294.225 317.222C294.234 313.819 296.462 310.417 300.928 307.827C309.905 302.61 324.556 302.61 333.587 307.827C338.134 310.453 340.407 313.91 340.398 317.357Z" fill="#B378FF"/>
<path d="M333.684 331.879C330.319 333.838 326.159 335.056 321.793 335.543C321.793 333.838 321.802 332.123 321.811 330.417C326.178 329.93 330.337 328.702 333.702 326.753C338.158 324.163 340.387 320.76 340.396 317.357L340.378 322.484C340.369 325.886 338.14 329.289 333.684 331.879Z" fill="#47E4FF"/>
<path d="M317.727 335.787C317.727 334.081 317.736 332.366 317.745 330.661C319.107 330.652 320.469 330.57 321.804 330.417C321.804 332.123 321.795 333.838 321.786 335.543C320.442 335.697 319.089 335.778 317.727 335.787Z" fill="#47E4FF"/>
<path d="M317.727 335.787C317.61 335.787 317.492 335.787 317.375 335.787C317.375 334.081 317.384 332.366 317.393 330.66C317.51 330.66 317.628 330.66 317.745 330.66C317.745 332.366 317.736 334.081 317.727 335.787Z" fill="#47E4FF"/>
<path d="M301.025 331.879C296.478 329.252 294.214 325.796 294.223 322.348L294.241 317.222C294.232 320.669 296.505 324.126 301.043 326.752C305.563 329.361 311.481 330.669 317.4 330.669C317.4 332.375 317.391 334.09 317.382 335.796C311.463 335.796 305.545 334.487 301.025 331.879Z" fill="#47E4FF"/>
<path d="M333.585 307.827C342.624 313.043 342.67 321.536 333.693 326.753C324.716 331.969 310.065 331.969 301.034 326.753C292.003 321.536 291.958 313.043 300.926 307.827C309.903 302.61 324.554 302.61 333.585 307.827Z" fill="#47E4FF"/>
<path d="M343.546 317.366L343.528 322.493C343.519 326.365 340.984 330.227 335.914 333.17C325.719 339.099 309.065 339.099 298.798 333.17C293.638 330.191 291.057 326.265 291.066 322.339L291.084 317.213C291.075 321.13 293.656 325.056 298.816 328.043C309.083 333.973 325.728 333.973 335.932 328.043C340.993 325.101 343.528 321.238 343.546 317.366Z" fill="#B378FF"/>
<path d="M335.807 306.536C346.074 312.466 346.128 322.114 335.933 328.043C325.739 333.973 309.084 333.973 298.818 328.043C288.56 322.114 288.497 312.465 298.7 306.545C308.895 300.615 325.549 300.615 335.807 306.545V306.536ZM301.037 326.753C310.077 331.969 324.728 331.969 333.696 326.753C342.672 321.536 342.618 313.043 333.588 307.826C324.557 302.61 309.905 302.61 300.929 307.826C291.952 313.043 292.006 321.536 301.037 326.753Z" fill="#A35DFF"/>
<path d="M336.527 310.408L336.509 315.534C336.518 312.087 334.245 308.63 329.698 306.004C320.667 300.787 306.016 300.787 297.039 306.004C292.582 308.594 290.354 311.996 290.336 315.399L290.354 310.273C290.363 306.87 292.591 303.468 297.057 300.877C306.034 295.661 320.685 295.661 329.716 300.877C334.263 303.504 336.536 306.96 336.527 310.408Z" fill="#B378FF"/>
<path d="M329.816 324.93C326.451 326.888 322.292 328.107 317.926 328.594C317.926 326.888 317.935 325.174 317.944 323.468C322.31 322.98 326.469 321.753 329.835 319.804C334.291 317.213 336.52 313.811 336.529 310.408L336.511 315.535C336.502 318.937 334.273 322.34 329.816 324.93Z" fill="#47E4FF"/>
<path d="M313.855 328.838C313.855 327.132 313.864 325.417 313.874 323.711C315.236 323.702 316.598 323.621 317.933 323.468C317.933 325.174 317.924 326.888 317.915 328.594C316.571 328.748 315.218 328.829 313.855 328.838Z" fill="#47E4FF"/>
<path d="M313.856 328.837C313.738 328.837 313.621 328.837 313.504 328.837C313.504 327.132 313.513 325.417 313.522 323.711C313.639 323.711 313.757 323.711 313.874 323.711C313.874 325.417 313.865 327.132 313.856 328.837Z" fill="#47E4FF"/>
<path d="M297.158 324.93C292.611 322.303 290.346 318.846 290.355 315.399L290.374 310.272C290.365 313.72 292.638 317.177 297.176 319.803C301.696 322.411 307.614 323.72 313.532 323.72C313.532 325.426 313.523 327.141 313.514 328.847C307.596 328.847 301.678 327.538 297.158 324.93Z" fill="#47E4FF"/>
<path d="M329.717 300.877C338.757 306.094 338.802 314.587 329.826 319.803C320.849 325.02 306.198 325.02 297.167 319.803C288.136 314.587 288.091 306.094 297.059 300.877C306.035 295.661 320.687 295.661 329.717 300.877Z" fill="#A35DFF"/>
<path d="M339.667 310.417L339.649 315.543C339.64 319.415 337.105 323.278 332.035 326.22C321.84 332.15 305.186 332.15 294.919 326.22C289.759 323.242 287.179 319.316 287.188 315.39L287.206 310.264C287.197 314.181 289.777 318.107 294.937 321.094C305.204 327.024 321.849 327.024 332.053 321.094C337.114 318.152 339.649 314.289 339.667 310.417Z" fill="#A35DFF"/>
<path d="M331.936 299.587C342.203 305.516 342.257 315.164 332.062 321.094C321.868 327.024 305.213 327.024 294.947 321.094C284.689 315.164 284.626 305.516 294.829 299.596C305.024 293.666 321.678 293.666 331.936 299.596V299.587ZM297.166 319.803C306.206 325.02 320.857 325.02 329.825 319.803C338.801 314.587 338.747 306.094 329.716 300.877C320.686 295.661 306.034 295.661 297.058 300.877C288.081 306.094 288.135 314.587 297.166 319.803Z" fill="#923EFF"/>
<path d="M334.754 303.585L334.736 308.711C334.745 305.264 332.471 301.807 327.924 299.18C318.894 293.964 304.242 293.964 295.266 299.18C290.809 301.771 288.581 305.173 288.562 308.576L288.581 303.449C288.59 300.047 290.818 296.644 295.284 294.054C304.26 288.837 318.912 288.837 327.942 294.054C332.489 296.68 334.763 300.137 334.754 303.585Z" fill="#B378FF"/>
<path d="M328.039 318.107C324.674 320.065 320.515 321.284 316.148 321.771C316.148 320.065 316.157 318.35 316.166 316.645C320.533 316.157 324.692 314.93 328.057 312.98C332.514 310.39 334.742 306.988 334.751 303.585L334.733 308.711C334.724 312.114 332.496 315.516 328.039 318.107Z" fill="#47E4FF"/>
<path d="M312.082 322.023C312.082 320.318 312.091 318.603 312.1 316.897C313.462 316.888 314.825 316.807 316.16 316.653C316.16 318.359 316.151 320.074 316.142 321.78C314.798 321.933 313.444 322.014 312.082 322.023Z" fill="#47E4FF"/>
<path d="M312.082 322.024C311.965 322.024 311.848 322.024 311.73 322.024C311.73 320.318 311.739 318.603 311.749 316.897C311.866 316.897 311.983 316.897 312.1 316.897C312.1 318.603 312.091 320.318 312.082 322.024Z" fill="#47E4FF"/>
<path d="M295.381 318.106C290.834 315.48 288.569 312.023 288.578 308.576L288.596 303.449C288.587 306.897 290.861 310.354 295.399 312.98C299.918 315.588 305.837 316.897 311.755 316.897C311.755 318.603 311.746 320.318 311.737 322.023C305.819 322.023 299.9 320.715 295.381 318.106Z" fill="#47E4FF"/>
<path d="M327.952 294.054C336.992 299.271 337.037 307.764 328.06 312.98C319.083 318.197 304.432 318.197 295.401 312.98C286.371 307.764 286.325 299.271 295.293 294.054C304.261 288.837 318.921 288.837 327.952 294.054Z" fill="#47E4FF"/>
<path d="M337.901 303.594L337.883 308.72C337.874 312.592 335.339 316.455 330.269 319.397C320.074 325.327 303.42 325.327 293.154 319.397C287.993 316.419 285.413 312.493 285.422 308.567L285.44 303.44C285.431 307.357 288.011 311.283 293.172 314.271C303.438 320.2 320.083 320.2 330.287 314.271C335.348 311.329 337.883 307.466 337.901 303.594Z" fill="#B378FF"/>
<path d="M330.17 292.763C340.437 298.693 340.491 308.341 330.296 314.271C320.102 320.2 303.448 320.2 293.181 314.271C282.923 308.341 282.86 298.693 293.064 292.772C303.258 286.843 319.912 286.843 330.17 292.772V292.763ZM295.4 312.98C304.44 318.197 319.091 318.197 328.059 312.98C337.036 307.763 336.982 299.271 327.951 294.054C318.92 288.837 304.269 288.837 295.292 294.054C286.315 299.271 286.37 307.763 295.4 312.98Z" fill="#A35DFF"/>
<path d="M340.617 298.342L340.599 303.468C340.608 300.02 338.335 296.564 333.788 293.937C324.757 288.721 310.106 288.721 301.129 293.937C296.672 296.528 294.444 299.93 294.426 303.333L294.444 298.206C294.453 294.804 296.681 291.401 301.147 288.811C310.124 283.594 324.775 283.594 333.806 288.811C338.353 291.437 340.626 294.894 340.617 298.342Z" fill="#B378FF"/>
<path d="M333.902 312.872C330.537 314.831 326.378 316.049 322.012 316.537C322.012 314.831 322.021 313.116 322.03 311.41C326.396 310.923 330.555 309.695 333.92 307.746C338.377 305.156 340.606 301.753 340.615 298.351L340.597 303.477C340.588 306.879 338.359 310.282 333.902 312.872Z" fill="#47E4FF"/>
<path d="M317.945 316.78C317.945 315.074 317.954 313.36 317.963 311.654C319.326 311.645 320.688 311.564 322.023 311.41C322.023 313.116 322.014 314.831 322.005 316.537C320.661 316.69 319.308 316.771 317.945 316.78Z" fill="#47E4FF"/>
<path d="M317.946 316.78C317.828 316.78 317.711 316.78 317.594 316.78C317.594 315.074 317.603 313.359 317.612 311.653C317.729 311.653 317.846 311.653 317.964 311.653C317.964 313.359 317.955 315.074 317.946 316.78Z" fill="#47E4FF"/>
<path d="M301.244 312.863C296.697 310.237 294.432 306.78 294.441 303.332L294.459 298.206C294.45 301.654 296.724 305.11 301.262 307.737C305.8 310.363 311.7 311.654 317.618 311.654C317.618 313.36 317.609 315.074 317.6 316.78C311.682 316.78 305.764 315.471 301.244 312.863Z" fill="#47E4FF"/>
<path d="M333.815 288.811C342.855 294.028 342.9 302.52 333.923 307.737C324.947 312.954 310.295 312.954 301.265 307.737C292.234 302.52 292.189 294.028 301.156 288.811C310.124 283.594 324.784 283.594 333.815 288.811Z" fill="#A35DFF"/>
<path d="M343.765 298.351L343.747 303.477C343.738 307.349 341.203 311.212 336.132 314.154C325.938 320.084 309.284 320.084 299.017 314.154C293.856 311.176 291.276 307.25 291.285 303.324L291.303 298.197C291.294 302.114 293.874 306.04 299.035 309.028C309.302 314.957 325.947 314.957 336.15 309.028C341.212 306.085 343.747 302.223 343.765 298.351Z" fill="#A35DFF"/>
<path d="M336.033 287.529C346.3 293.459 346.354 303.107 336.16 309.036C325.965 314.966 309.311 314.966 299.044 309.036C288.787 303.107 288.723 293.459 298.927 287.538C309.122 281.608 325.776 281.608 336.033 287.538V287.529ZM301.264 307.746C310.303 312.962 324.955 312.962 333.922 307.746C342.899 302.529 342.845 294.036 333.814 288.82C324.783 283.603 310.132 283.603 301.155 288.82C292.179 294.036 292.233 302.529 301.264 307.746Z" fill="#923EFF"/>
<path d="M304.25 334.965L304.232 340.091C304.241 336.643 301.967 333.187 297.42 330.56C288.39 325.344 273.738 325.344 264.762 330.56C260.305 333.151 258.077 336.553 258.059 339.956L258.077 334.829C258.086 331.427 260.314 328.024 264.78 325.434C273.756 320.217 288.408 320.217 297.439 325.434C301.985 328.06 304.259 331.517 304.25 334.965Z" fill="#B378FF"/>
<path d="M297.539 349.487C294.174 351.445 290.015 352.663 285.648 353.151C285.648 351.445 285.657 349.73 285.666 348.024C290.033 347.537 294.192 346.31 297.557 344.36C302.014 341.77 304.242 338.367 304.251 334.965L304.233 340.091C304.224 343.494 301.996 346.896 297.539 349.487Z" fill="#47E4FF"/>
<path d="M281.578 353.394C281.578 351.689 281.587 349.974 281.596 348.268C282.958 348.259 284.321 348.178 285.656 348.024C285.656 349.73 285.647 351.445 285.638 353.151C284.294 353.304 282.94 353.385 281.578 353.394Z" fill="#47E4FF"/>
<path d="M281.578 353.395C281.461 353.395 281.344 353.395 281.227 353.395C281.227 351.689 281.236 349.974 281.245 348.269C281.362 348.269 281.479 348.269 281.596 348.269C281.596 349.974 281.587 351.689 281.578 353.395Z" fill="#47E4FF"/>
<path d="M264.869 349.487C260.322 346.861 258.057 343.404 258.066 339.956L258.084 334.83C258.075 338.278 260.349 341.734 264.887 344.361C269.425 346.987 275.325 348.278 281.243 348.278C281.243 349.984 281.234 351.698 281.225 353.404C275.307 353.404 269.389 352.096 264.869 349.487Z" fill="#47E4FF"/>
<path d="M297.44 325.434C306.48 330.651 306.525 339.143 297.548 344.36C288.572 349.577 273.92 349.577 264.89 344.36C255.859 339.143 255.814 330.651 264.781 325.434C273.758 320.217 288.409 320.217 297.44 325.434Z" fill="#47E4FF"/>
<path d="M307.39 334.974L307.372 340.1C307.363 343.972 304.828 347.835 299.757 350.777C289.563 356.707 272.909 356.707 262.642 350.777C257.481 347.799 254.901 343.873 254.91 339.947L254.928 334.82C254.919 338.737 257.499 342.663 262.66 345.651C272.927 351.58 289.572 351.58 299.775 345.651C304.837 342.708 307.372 338.846 307.39 334.974Z" fill="#B378FF"/>
<path d="M299.658 324.144C309.925 330.073 309.979 339.721 299.785 345.651C289.59 351.581 272.936 351.581 262.669 345.651C252.412 339.721 252.348 330.073 262.552 324.153C272.756 318.232 289.401 318.223 299.658 324.153V324.144ZM264.889 344.36C273.928 349.577 288.58 349.577 297.547 344.36C306.524 339.144 306.47 330.651 297.439 325.434C288.408 320.218 273.757 320.218 264.78 325.434C255.804 330.651 255.858 339.144 264.889 344.36Z" fill="#A35DFF"/>
<path d="M300.676 328.819L300.658 333.946C300.667 330.498 298.393 327.041 293.846 324.415C284.816 319.198 270.164 319.198 261.188 324.415C256.731 327.005 254.502 330.408 254.484 333.81L254.502 328.684C254.511 325.281 256.74 321.879 261.206 319.288C270.182 314.072 284.834 314.072 293.864 319.288C298.411 321.915 300.685 325.372 300.676 328.819Z" fill="#B378FF"/>
<path d="M293.965 343.341C290.6 345.3 286.441 346.518 282.074 347.005C282.074 345.3 282.083 343.585 282.092 341.879C286.459 341.392 290.618 340.164 293.983 338.215C298.44 335.624 300.668 332.222 300.677 328.819L300.659 333.946C300.65 337.348 298.422 340.751 293.965 343.341Z" fill="#47E4FF"/>
<path d="M278.004 347.258C278.004 345.552 278.013 343.837 278.022 342.131C279.384 342.122 280.747 342.041 282.082 341.888C282.082 343.593 282.073 345.308 282.064 347.014C280.719 347.167 279.366 347.249 278.004 347.258Z" fill="#47E4FF"/>
<path d="M278.004 347.258C277.887 347.258 277.77 347.258 277.652 347.258C277.652 345.552 277.661 343.838 277.67 342.132C277.788 342.132 277.905 342.132 278.022 342.132C278.022 343.838 278.013 345.552 278.004 347.258Z" fill="#47E4FF"/>
<path d="M261.295 343.341C256.748 340.714 254.483 337.258 254.492 333.81L254.51 328.684C254.501 332.131 256.775 335.588 261.313 338.214C265.833 340.823 271.751 342.131 277.669 342.131C277.669 343.837 277.66 345.552 277.651 347.258C271.733 347.258 265.815 345.949 261.295 343.341Z" fill="#47E4FF"/>
<path d="M293.866 319.288C302.906 324.505 302.951 332.998 293.974 338.215C284.997 343.431 270.346 343.431 261.315 338.215C252.285 332.998 252.239 324.505 261.207 319.288C270.184 314.072 284.835 314.072 293.866 319.288Z" fill="#A35DFF"/>
<path d="M303.815 328.828L303.797 333.955C303.788 337.826 301.253 341.689 296.183 344.632C285.988 350.561 269.334 350.561 259.068 344.632C253.907 341.653 251.327 337.727 251.336 333.801L251.354 328.675C251.345 332.592 253.925 336.518 259.086 339.505C269.352 345.435 285.998 345.435 296.201 339.505C301.262 336.563 303.797 332.7 303.815 328.828Z" fill="#A35DFF"/>
<path d="M296.084 317.998C306.351 323.927 306.405 333.575 296.211 339.505C286.016 345.435 269.362 345.435 259.095 339.505C248.837 333.575 248.774 323.927 258.978 318.007C269.172 312.077 285.827 312.077 296.084 318.007V317.998ZM261.314 338.214C270.354 343.431 285.006 343.431 293.973 338.214C302.95 332.998 302.896 324.505 293.865 319.288C284.834 314.072 270.183 314.072 261.206 319.288C252.23 324.505 252.284 332.998 261.314 338.214Z" fill="#923EFF"/>
<path d="M334.961 291.644L334.943 296.771C334.952 293.323 332.678 289.866 328.131 287.24C319.101 282.023 304.449 282.023 295.473 287.24C291.016 289.83 288.788 293.233 288.77 296.635L288.788 291.509C288.797 288.106 291.025 284.704 295.491 282.114C304.467 276.897 319.119 276.897 328.149 282.114C332.696 284.74 334.97 288.197 334.961 291.644Z" fill="#B378FF"/>
<path d="M328.246 306.166C324.881 308.125 320.722 309.343 316.355 309.831C316.355 308.125 316.364 306.41 316.374 304.704C320.74 304.217 324.899 302.989 328.264 301.04C332.721 298.45 334.949 295.047 334.958 291.645L334.94 296.771C334.931 300.173 332.703 303.576 328.246 306.166Z" fill="#47E4FF"/>
<path d="M312.289 310.074C312.289 308.368 312.298 306.654 312.307 304.948C313.669 304.939 315.032 304.858 316.367 304.704C316.367 306.41 316.358 308.125 316.349 309.83C315.005 309.984 313.651 310.065 312.289 310.074Z" fill="#47E4FF"/>
<path d="M312.289 310.074C312.172 310.074 312.055 310.074 311.938 310.074C311.938 308.368 311.947 306.653 311.956 304.947C312.073 304.947 312.19 304.947 312.307 304.947C312.307 306.653 312.298 308.368 312.289 310.074Z" fill="#47E4FF"/>
<path d="M295.588 306.166C291.041 303.54 288.776 300.083 288.785 296.635L288.803 291.509C288.794 294.956 291.068 298.413 295.606 301.04C300.144 303.666 306.044 304.957 311.962 304.957C311.962 306.662 311.953 308.377 311.944 310.083C306.026 310.083 300.107 308.774 295.588 306.166Z" fill="#47E4FF"/>
<path d="M328.147 282.114C337.187 287.33 337.232 295.823 328.255 301.04C319.279 306.256 304.627 306.256 295.597 301.04C286.566 295.823 286.521 287.33 295.488 282.114C304.465 276.897 319.116 276.897 328.147 282.114Z" fill="#47E4FF"/>
<path d="M338.108 291.653L338.09 296.78C338.081 300.652 335.546 304.514 330.476 307.457C320.281 313.386 303.627 313.386 293.361 307.457C288.2 304.478 285.62 300.552 285.629 296.626L285.647 291.5C285.638 295.417 288.218 299.343 293.379 302.33C303.645 308.26 320.29 308.26 330.494 302.33C335.555 299.388 338.09 295.525 338.108 291.653Z" fill="#B378FF"/>
<path d="M330.369 280.823C340.636 286.753 340.69 296.401 330.496 302.33C320.301 308.26 303.647 308.26 293.38 302.33C283.122 296.401 283.059 286.753 293.263 280.832C303.458 274.902 320.112 274.902 330.369 280.832V280.823ZM295.6 301.04C304.639 306.256 319.291 306.256 328.258 301.04C337.235 295.823 337.181 287.33 328.15 282.114C319.119 276.897 304.468 276.897 295.491 282.114C286.515 287.33 286.569 295.823 295.6 301.04Z" fill="#A35DFF"/>
<path d="M340.824 286.4L340.806 291.527C340.815 288.079 338.542 284.622 333.995 281.996C324.964 276.779 310.313 276.779 301.336 281.996C296.879 284.586 294.651 287.989 294.633 291.391L294.651 286.265C294.66 282.862 296.888 279.46 301.354 276.87C310.331 271.653 324.982 271.653 334.013 276.87C338.56 279.496 340.833 282.953 340.824 286.4Z" fill="#B378FF"/>
<path d="M334.109 300.922C330.744 302.881 326.585 304.099 322.219 304.586C322.219 302.881 322.228 301.166 322.237 299.46C326.603 298.973 330.762 297.745 334.127 295.796C338.584 293.205 340.813 289.803 340.822 286.4L340.804 291.527C340.795 294.929 338.566 298.332 334.109 300.922Z" fill="#47E4FF"/>
<path d="M318.152 304.839C318.152 303.133 318.161 301.418 318.17 299.712C319.533 299.703 320.895 299.622 322.23 299.469C322.23 301.175 322.221 302.889 322.212 304.595C320.868 304.749 319.515 304.83 318.152 304.839Z" fill="#47E4FF"/>
<path d="M318.153 304.839C318.035 304.839 317.918 304.839 317.801 304.839C317.801 303.134 317.81 301.419 317.819 299.713C317.936 299.713 318.053 299.713 318.171 299.713C318.171 301.419 318.162 303.134 318.153 304.839Z" fill="#47E4FF"/>
<path d="M301.451 300.922C296.904 298.295 294.639 294.839 294.648 291.391L294.666 286.265C294.657 289.712 296.931 293.169 301.469 295.795C306.007 298.422 311.907 299.712 317.825 299.712C317.825 301.418 317.816 303.133 317.807 304.839C311.889 304.839 305.971 303.53 301.451 300.922Z" fill="#47E4FF"/>
<path d="M334.01 276.87C343.05 282.086 343.095 290.579 334.119 295.796C325.142 301.012 310.491 301.012 301.46 295.796C292.429 290.579 292.384 282.086 301.352 276.87C310.328 271.653 324.98 271.653 334.01 276.87Z" fill="#A35DFF"/>
<path d="M343.972 286.409L343.954 291.536C343.945 295.408 341.41 299.27 336.339 302.213C326.145 308.142 309.491 308.142 299.224 302.213C294.063 299.234 291.483 295.308 291.492 291.382L291.51 286.256C291.501 290.173 294.081 294.099 299.242 297.086C309.509 303.016 326.154 303.016 336.357 297.086C341.419 294.144 343.954 290.281 343.972 286.409Z" fill="#A35DFF"/>
<path d="M336.232 275.579C346.499 281.508 346.553 291.157 336.358 297.086C326.164 303.016 309.51 303.016 299.243 297.086C288.976 291.157 288.922 281.508 299.126 275.588C309.32 269.658 325.974 269.658 336.232 275.588V275.579ZM301.462 295.796C310.502 301.012 325.153 301.012 334.121 295.796C343.098 290.579 343.044 282.086 334.013 276.869C324.982 271.653 310.331 271.653 301.354 276.869C292.377 282.086 292.432 290.579 301.462 295.796Z" fill="#923EFF"/>
<path d="M334.762 279.126L334.744 284.252C334.753 280.805 332.479 277.348 327.932 274.721C318.901 269.505 304.25 269.505 295.273 274.721C290.817 277.312 288.579 280.714 288.57 284.117L288.588 278.99C288.597 275.588 290.835 272.185 295.292 269.595C304.268 264.378 318.92 264.378 327.95 269.595C332.497 272.221 334.771 275.678 334.762 279.126Z" fill="#B378FF"/>
<path d="M297.032 275.732C293.054 278.052 291.06 281.084 291.051 284.126L291.069 279C291.069 275.958 293.072 272.926 297.05 270.606C305.062 265.949 318.152 265.949 326.209 270.606C330.268 272.953 332.298 276.039 332.289 279.117L332.271 284.243C332.271 281.166 330.25 278.079 326.191 275.732C318.125 271.075 305.044 271.075 297.032 275.732Z" fill="#47E4FF"/>
<path d="M331.659 279.117L331.641 284.243C331.641 281.256 329.683 278.269 325.75 275.994C317.928 271.482 305.252 271.482 297.485 275.994C293.623 278.242 291.693 281.184 291.684 284.135L291.702 279.009C291.702 276.057 293.641 273.115 297.503 270.868C305.27 266.355 317.955 266.355 325.768 270.868C329.701 273.142 331.668 276.13 331.659 279.117Z" fill="#A35DFF"/>
<path d="M325.304 272.276L325.295 277.402L323.211 276.202L323.22 271.075L325.304 272.276Z" fill="#47E4FF"/>
<path d="M323.222 271.075L323.213 276.202L320.895 277.546L320.913 272.42L323.222 271.075Z" fill="#47E4FF"/>
<path d="M325.307 272.275L325.298 277.402L323.043 278.71L323.061 273.584L325.307 272.275Z" fill="#A35DFF"/>
<path d="M306.855 279.785L306.874 274.658C306.874 274.586 306.874 274.523 306.883 274.451C306.973 273.431 307.685 272.528 309.048 271.734C310.509 270.886 312.287 270.525 314.38 270.633C316.482 270.75 318.656 271.346 320.911 272.42L320.893 277.546C318.638 276.472 316.455 275.877 314.362 275.759C312.269 275.642 310.491 276.012 309.03 276.86C307.667 277.655 306.946 278.557 306.864 279.577C306.864 279.64 306.855 279.712 306.855 279.785Z" fill="#47E4FF"/>
<path d="M312.973 280.363L312.991 275.236C312.991 274.911 313.207 274.622 313.631 274.379C314.488 273.882 315.67 273.955 317.168 274.595L317.15 279.722C315.652 279.081 314.47 279.009 313.613 279.505C313.189 279.749 312.982 280.038 312.973 280.363Z" fill="#A35DFF"/>
<path d="M312.98 280.408C312.98 280.408 312.98 280.372 312.98 280.354L312.999 275.228C312.999 275.228 312.999 275.264 312.999 275.282C312.999 276.987 312.989 278.702 312.98 280.408C312.98 278.702 312.989 276.987 312.999 275.282C313.017 275.625 313.224 276.085 313.612 276.663L313.594 281.789C313.206 281.211 312.999 280.751 312.98 280.408Z" fill="#47E4FF"/>
<path d="M317.166 274.596L317.148 279.722L313.594 281.789L313.603 276.663L317.166 274.596Z" fill="#47E4FF"/>
<path d="M327.969 278.033L327.951 283.16C326.904 281.598 325.262 280.118 323.043 278.71L323.061 273.584C325.28 274.983 326.913 276.463 327.969 278.033Z" fill="#47E4FF"/>
<path d="M319.307 275.769L319.298 280.895L314.832 283.485L314.85 278.359L319.307 275.769Z" fill="#A35DFF"/>
<path d="M306.855 279.785L306.874 274.658C306.874 275.651 307.442 276.896 308.588 278.413L308.57 283.539C307.424 282.032 306.855 280.777 306.855 279.785Z" fill="#A35DFF"/>
<path d="M309.211 279.217L309.193 284.352L308.57 283.531L308.579 278.404L309.211 279.217Z" fill="#A35DFF"/>
<path d="M301.416 284.442C300.686 283.675 300.126 282.962 299.738 282.303L299.756 277.177C300.144 277.836 300.704 278.549 301.434 279.316C301.434 281.022 301.425 282.736 301.416 284.442Z" fill="#47E4FF"/>
<path d="M315.608 284.523C315.373 284.198 315.112 283.855 314.832 283.485L314.85 278.358C315.13 278.728 315.391 279.071 315.626 279.396C315.626 281.102 315.617 282.817 315.608 284.523Z" fill="#47E4FF"/>
<path d="M299.748 277.168L299.739 282.303L295.742 284.623L295.76 279.487L299.748 277.168Z" fill="#47E4FF"/>
<path d="M301.416 284.442C301.416 284.442 301.416 284.414 301.416 284.405C301.416 284.225 301.416 284.044 301.416 283.873C301.416 282.998 301.416 282.122 301.416 281.247C301.416 280.606 301.416 279.965 301.416 279.324C301.534 279.442 301.651 279.568 301.777 279.694C302.689 280.606 303.6 281.355 304.511 281.96L304.493 287.086C303.582 286.481 302.671 285.732 301.759 284.821C301.633 284.694 301.516 284.577 301.398 284.451L301.416 284.442Z" fill="#47E4FF"/>
<path d="M309.212 279.216L309.194 284.351L304.512 287.077L304.521 281.941L309.212 279.216Z" fill="#47E4FF"/>
<path d="M311.132 282.447L311.114 287.573C311.114 287.573 311.114 287.492 311.105 287.447C311.051 287.077 310.835 286.599 310.465 286.021L310.483 280.895C310.862 281.472 311.069 281.95 311.123 282.321C311.123 282.366 311.132 282.402 311.132 282.447Z" fill="#A35DFF"/>
<path d="M315.609 284.523C315.609 284.523 315.609 284.478 315.609 284.451C315.609 282.763 315.618 281.075 315.627 279.388C316.403 280.462 316.89 281.31 317.107 281.933C317.188 282.158 317.242 282.384 317.278 282.592C317.278 284.297 317.269 286.012 317.26 287.718C317.224 287.501 317.17 287.285 317.089 287.059C316.872 286.445 316.376 285.597 315.609 284.514V284.523Z" fill="#47E4FF"/>
<path d="M317.259 287.727C317.259 287.727 317.259 287.673 317.259 287.646C317.259 287.122 317.259 286.59 317.259 286.066C317.259 284.911 317.259 283.756 317.268 282.601C317.295 282.772 317.313 282.935 317.313 283.097L317.295 288.223C317.295 288.061 317.286 287.898 317.25 287.727H317.259Z" fill="#47E4FF"/>
<path d="M310.474 280.895L310.465 286.03L306.703 288.214L306.712 283.088L310.474 280.895Z" fill="#A35DFF"/>
<path d="M310.555 288.377C309.599 288.936 308.309 288.882 306.703 288.223L306.721 283.097C308.327 283.756 309.617 283.81 310.573 283.25C310.573 284.956 310.564 286.671 310.555 288.377C310.555 286.671 310.564 284.956 310.573 283.25C310.943 283.034 311.133 282.763 311.142 282.456L311.124 287.582C311.124 287.898 310.934 288.16 310.555 288.377Z" fill="#47E4FF"/>
<path d="M327.966 278.034L327.948 283.161L322.977 284.397L322.995 279.262L327.966 278.034Z" fill="#A35DFF"/>
<path d="M322.997 279.262L322.979 284.388C322.041 283.097 320.814 281.933 319.289 280.886L319.307 275.76C320.832 276.798 322.059 277.971 322.997 279.262Z" fill="#A35DFF"/>
<path d="M292.43 287.312C291.925 286.274 291.672 285.2 291.672 284.126L291.69 279C291.69 280.074 291.943 281.148 292.448 282.186C292.448 283.892 292.439 285.607 292.43 287.312Z" fill="#47E4FF"/>
<path d="M300.975 284.009L300.957 289.135C298.53 287.673 296.789 286.175 295.742 284.614L295.76 279.487C296.807 281.04 298.548 282.547 300.975 284.009Z" fill="#A35DFF"/>
<path d="M317.322 283.097L317.304 288.223C317.304 288.566 317.232 288.891 317.105 289.198L317.124 284.071C317.259 283.774 317.322 283.449 317.322 283.097Z" fill="#A35DFF"/>
<path d="M300.972 284.009L300.954 289.135L297.914 290.904L297.932 285.778L300.972 284.009Z" fill="#47E4FF"/>
<path d="M300.016 286.978L299.998 292.113L297.914 290.904L297.932 285.777L300.016 286.978Z" fill="#A35DFF"/>
<path d="M303.113 285.182L303.103 290.308L300 292.113L300.018 286.978L303.113 285.182Z" fill="#A35DFF"/>
<path d="M317.114 284.062L317.096 289.189C316.825 289.803 316.238 290.362 315.354 290.877C313.748 291.806 311.881 292.221 309.743 292.113C307.605 292.005 305.385 291.4 303.094 290.299L303.112 285.173C305.403 286.274 307.614 286.878 309.761 286.987C311.899 287.095 313.766 286.68 315.372 285.75C316.256 285.236 316.843 284.667 317.114 284.062Z" fill="#A35DFF"/>
<path d="M292.43 287.312C292.43 287.312 292.43 287.222 292.43 287.186C292.43 285.516 292.439 283.847 292.448 282.177C293.35 284.036 295.064 285.787 297.581 287.24C305.403 291.762 318.088 291.762 325.855 287.24C329.717 284.993 331.647 282.051 331.656 279.108L331.638 284.235C331.638 287.186 329.699 290.128 325.837 292.367C318.06 296.888 305.385 296.888 297.563 292.367C295.046 290.914 293.332 289.163 292.43 287.303V287.312Z" fill="#47E4FF"/>
<path d="M332.289 279.117L332.271 284.243C332.271 287.285 330.268 290.317 326.29 292.637C318.278 297.294 305.188 297.294 297.122 292.637C293.063 290.29 291.042 287.213 291.051 284.135L291.069 279.009C291.069 282.086 293.09 285.173 297.14 287.511C305.206 292.168 318.287 292.168 326.308 287.511C330.286 285.2 332.28 282.159 332.289 279.117Z" fill="#A35DFF"/>
<path d="M326.208 270.606C334.273 275.263 334.319 282.844 326.307 287.51C318.296 292.167 305.205 292.167 297.14 287.51C289.074 282.853 289.029 275.272 297.05 270.615C305.07 265.958 318.152 265.958 326.208 270.615V270.606ZM297.582 287.249C305.404 291.77 318.088 291.77 325.856 287.249C333.624 282.736 333.579 275.38 325.757 270.868C317.935 266.355 305.259 266.355 297.492 270.868C289.724 275.38 289.76 282.736 297.582 287.249Z" fill="#A35DFF"/>
<path d="M311.123 282.321C311.177 282.691 310.987 282.998 310.563 283.242C309.607 283.801 308.317 283.747 306.711 283.088L310.473 280.904C310.852 281.482 311.059 281.96 311.114 282.33L311.123 282.321Z" fill="#47E4FF"/>
<path d="M322.994 279.262L327.965 278.034C326.919 276.473 325.277 274.993 323.058 273.585L325.304 272.276L323.22 271.076L320.901 272.421C318.646 271.347 316.463 270.751 314.37 270.634C312.277 270.516 310.499 270.886 309.038 271.735C307.676 272.529 306.954 273.431 306.873 274.451C306.782 275.471 307.351 276.789 308.578 278.404L309.209 279.217L304.518 281.942C303.607 281.338 302.696 280.588 301.784 279.677C300.873 278.765 300.197 277.926 299.745 277.168L295.758 279.487C296.804 281.04 298.546 282.547 300.972 284.009L297.932 285.778L300.016 286.978L303.12 285.173C305.411 286.274 307.621 286.879 309.769 286.987C311.907 287.096 313.774 286.681 315.38 285.751C316.264 285.236 316.851 284.668 317.121 284.063C317.392 283.449 317.392 282.736 317.112 281.933C316.833 281.13 316.075 279.93 314.857 278.35L319.314 275.76C320.838 276.798 322.065 277.971 323.004 279.262H322.994ZM310.572 283.242C309.615 283.801 308.325 283.747 306.719 283.088L310.481 280.904C310.86 281.482 311.068 281.96 311.122 282.33C311.176 282.7 310.987 283.007 310.563 283.251M313.603 276.671C313.215 276.094 313.007 275.634 312.989 275.291C312.971 274.948 313.179 274.641 313.621 274.388C314.478 273.892 315.66 273.964 317.157 274.605L313.603 276.671Z" fill="#A35DFF"/>
<path d="M325.758 270.868C333.579 275.39 333.625 282.736 325.857 287.249C318.08 291.771 305.405 291.771 297.583 287.249C289.761 282.736 289.725 275.381 297.492 270.868C305.26 266.355 317.945 266.355 325.758 270.868ZM309.762 286.996C311.9 287.104 313.768 286.689 315.374 285.76C316.258 285.245 316.844 284.677 317.115 284.072C317.385 283.458 317.385 282.745 317.106 281.942C316.826 281.139 316.068 279.938 314.85 278.359L319.307 275.769C320.832 276.807 322.059 277.98 322.997 279.27L327.968 278.043C326.921 276.482 325.279 275.002 323.06 273.594L325.307 272.285L323.223 271.084L320.904 272.429C318.648 271.355 316.465 270.76 314.372 270.642C312.279 270.525 310.502 270.895 309.04 271.743C307.678 272.538 306.956 273.44 306.875 274.46C306.785 275.48 307.353 276.798 308.58 278.413L309.212 279.225L304.52 281.951C303.609 281.346 302.698 280.597 301.787 279.686C300.876 278.774 300.199 277.935 299.748 277.177L295.76 279.496C296.807 281.048 298.548 282.556 300.975 284.018L297.935 285.787L300.019 286.987L303.122 285.182C305.414 286.283 307.624 286.888 309.771 286.996" fill="#47E4FF"/>
<path d="M289.012 286.743C288.714 285.877 288.57 285.001 288.579 284.117L288.597 278.99C288.597 279.866 288.741 280.75 289.03 281.617C289.03 283.322 289.021 285.037 289.012 286.743Z" fill="#47E4FF"/>
<path d="M290.348 289.297C290.348 289.297 290.348 289.297 290.348 289.288C290.348 287.582 290.357 285.877 290.366 284.171C291.502 285.75 293.18 287.23 295.4 288.521C295.472 288.566 295.553 288.611 295.625 288.647C295.625 290.353 295.616 292.068 295.607 293.774C295.535 293.729 295.454 293.693 295.382 293.647C293.162 292.366 291.484 290.886 290.348 289.297Z" fill="#47E4FF"/>
<path d="M295.605 293.774C295.605 292.068 295.614 290.353 295.624 288.648C304.672 293.738 319.161 293.693 328.066 288.521C332.522 285.931 334.751 282.529 334.76 279.126L334.742 284.252C334.733 287.655 332.504 291.057 328.048 293.648C319.143 298.819 304.663 298.864 295.605 293.774Z" fill="#47E4FF"/>
<path d="M327.948 269.595C336.988 274.812 337.033 283.305 328.056 288.521C319.08 293.738 304.428 293.738 295.388 288.521C286.358 283.305 286.313 274.812 295.289 269.595C304.266 264.378 318.917 264.378 327.948 269.595ZM297.139 287.51C305.204 292.167 318.286 292.167 326.306 287.51C334.317 282.853 334.281 275.272 326.207 270.606C318.141 265.949 305.06 265.949 297.048 270.606C289.037 275.263 289.073 282.844 297.139 287.501" fill="#47E4FF"/>
<path d="M289.409 287.727C289.255 287.402 289.12 287.077 289.012 286.744C289.012 285.038 289.021 283.323 289.03 281.617C289.138 281.942 289.273 282.276 289.427 282.601C289.427 284.307 289.418 286.022 289.409 287.727Z" fill="#47E4FF"/>
<path d="M289.41 287.727C289.41 287.727 289.41 287.646 289.41 287.61C289.41 285.94 289.419 284.271 289.428 282.592C289.672 283.097 289.96 283.603 290.312 284.09C290.312 285.796 290.303 287.511 290.294 289.216C289.951 288.729 289.654 288.224 289.41 287.718V287.727Z" fill="#47E4FF"/>
<path d="M290.347 289.297C290.347 289.297 290.311 289.243 290.293 289.216C290.293 287.51 290.302 285.796 290.311 284.09C290.329 284.117 290.347 284.144 290.365 284.171C290.365 285.877 290.356 287.592 290.347 289.297Z" fill="#47E4FF"/>
<path d="M337.9 279.126L337.882 284.252C337.873 288.124 335.338 291.987 330.268 294.929C320.073 300.859 303.428 300.859 293.161 294.929C288.001 291.951 285.421 288.025 285.43 284.099L285.448 278.973C285.439 282.89 288.019 286.816 293.179 289.803C303.446 295.733 320.091 295.733 330.286 289.803C335.356 286.861 337.891 282.998 337.9 279.126Z" fill="#B378FF"/>
<path d="M330.17 268.305C340.437 274.234 340.491 283.882 330.287 289.803C320.093 295.733 303.448 295.733 293.181 289.803C282.923 283.873 282.86 274.225 293.064 268.305C303.258 262.375 319.912 262.375 330.17 268.305ZM295.4 288.521C304.44 293.738 319.091 293.738 328.068 288.521C337.045 283.305 336.991 274.812 327.96 269.595C318.929 264.379 304.278 264.379 295.301 269.595C286.324 274.812 286.37 283.305 295.4 288.521Z" fill="#A35DFF"/>
<path d="M313.633 274.379C314.49 273.882 315.672 273.955 317.169 274.595L313.615 276.662C313.227 276.085 313.019 275.624 313.001 275.281C312.983 274.938 313.191 274.631 313.633 274.379Z" fill="#47E4FF"/>
<path d="M305.82 323.034L305.802 328.16C305.811 324.713 303.538 321.256 298.991 318.63C289.96 313.413 275.309 313.413 266.332 318.63C261.875 321.22 259.647 324.622 259.629 328.025L259.647 322.899C259.656 319.496 261.884 316.094 266.35 313.503C275.327 308.287 289.978 308.287 299.009 313.503C303.556 316.13 305.829 319.586 305.82 323.034Z" fill="#B378FF"/>
<path d="M299.106 337.565C295.74 339.523 291.581 340.742 287.215 341.229C287.215 339.523 287.224 337.808 287.233 336.103C291.599 335.615 295.758 334.388 299.124 332.438C303.58 329.848 305.809 326.446 305.818 323.043L305.8 328.169C305.791 331.572 303.562 334.974 299.106 337.565Z" fill="#47E4FF"/>
<path d="M283.148 341.473C283.148 339.767 283.157 338.052 283.166 336.346C284.529 336.337 285.891 336.256 287.226 336.103C287.226 337.808 287.217 339.523 287.208 341.229C285.864 341.382 284.511 341.464 283.148 341.473Z" fill="#47E4FF"/>
<path d="M283.149 341.473C283.031 341.473 282.914 341.473 282.797 341.473C282.797 339.767 282.806 338.052 282.815 336.347C282.932 336.347 283.049 336.347 283.167 336.347C283.167 338.052 283.158 339.767 283.149 341.473Z" fill="#47E4FF"/>
<path d="M266.447 337.556C261.9 334.929 259.636 331.473 259.645 328.025L259.663 322.898C259.654 326.346 261.927 329.803 266.465 332.429C271.003 335.056 276.903 336.346 282.821 336.346C282.821 338.052 282.812 339.767 282.803 341.473C276.885 341.473 270.967 340.164 266.447 337.556Z" fill="#47E4FF"/>
<path d="M299.006 313.503C308.046 318.72 308.091 327.213 299.115 332.429C290.138 337.646 275.487 337.646 266.456 332.429C257.425 327.213 257.38 318.72 266.348 313.503C275.324 308.287 289.976 308.287 299.006 313.503Z" fill="#47E4FF"/>
<path d="M308.968 323.043L308.95 328.169C308.941 332.041 306.406 335.904 301.335 338.846C291.141 344.776 274.487 344.776 264.22 338.846C259.06 335.868 256.479 331.942 256.488 328.016L256.506 322.89C256.497 326.807 259.078 330.733 264.238 333.72C274.505 339.65 291.15 339.65 301.353 333.72C306.415 330.778 308.95 326.915 308.968 323.043Z" fill="#B378FF"/>
<path d="M301.229 312.213C311.496 318.142 311.55 327.79 301.355 333.72C291.16 339.65 274.506 339.65 264.24 333.72C253.982 327.79 253.919 318.142 264.122 312.222C274.317 306.292 290.971 306.292 301.229 312.222V312.213ZM266.459 332.429C275.499 337.646 290.15 337.646 299.118 332.429C308.094 327.213 308.04 318.72 299.009 313.503C289.979 308.287 275.327 308.287 266.351 313.503C257.374 318.72 257.428 327.213 266.459 332.429Z" fill="#A35DFF"/>
<path d="M303.086 316.554L303.068 321.68C303.077 318.232 300.803 314.776 296.256 312.149C287.226 306.933 272.574 306.933 263.598 312.149C259.141 314.739 256.904 318.142 256.895 321.545L256.913 316.418C256.922 313.016 259.159 309.613 263.616 307.023C272.592 301.806 287.244 301.806 296.274 307.023C300.821 309.649 303.095 313.106 303.086 316.554Z" fill="#B378FF"/>
<path d="M265.356 313.169C261.378 315.488 259.384 318.521 259.375 321.563L259.393 316.436C259.393 313.395 261.396 310.362 265.374 308.043C273.386 303.386 286.476 303.386 294.533 308.043C298.593 310.389 300.622 313.476 300.613 316.553L300.595 321.68C300.595 318.602 298.575 315.516 294.515 313.169C286.449 308.512 273.368 308.512 265.356 313.169Z" fill="#47E4FF"/>
<path d="M299.983 316.545L299.965 321.671C299.965 318.684 298.007 315.696 294.074 313.422C286.252 308.909 273.577 308.909 265.809 313.422C261.947 315.669 260.017 318.612 260.008 321.563L260.026 316.436C260.026 313.485 261.966 310.543 265.827 308.296C273.595 303.783 286.279 303.783 294.092 308.296C298.025 310.57 299.992 313.557 299.983 316.545Z" fill="#A35DFF"/>
<path d="M293.637 309.703L293.619 314.839L291.535 313.629L291.553 308.503L293.637 309.703Z" fill="#47E4FF"/>
<path d="M291.554 308.503L291.536 313.629L289.227 314.983L289.236 309.848L291.554 308.503Z" fill="#47E4FF"/>
<path d="M293.639 309.703L293.621 314.839L291.375 316.147L291.384 311.012L293.639 309.703Z" fill="#A35DFF"/>
<path d="M275.18 317.212L275.198 312.086C275.198 312.014 275.198 311.951 275.207 311.878C275.297 310.859 276.01 309.956 277.372 309.162C278.834 308.313 280.611 307.952 282.704 308.061C284.806 308.178 286.98 308.774 289.236 309.848L289.218 314.974C286.962 313.9 284.779 313.304 282.686 313.187C280.593 313.07 278.815 313.44 277.354 314.288C275.992 315.082 275.27 315.985 275.189 317.005C275.189 317.068 275.18 317.14 275.18 317.212Z" fill="#47E4FF"/>
<path d="M281.305 317.79L281.323 312.664C281.323 312.339 281.539 312.05 281.963 311.806C282.82 311.31 284.002 311.382 285.5 312.023L285.482 317.149C283.984 316.509 282.802 316.436 281.945 316.933C281.521 317.177 281.314 317.465 281.305 317.79Z" fill="#A35DFF"/>
<path d="M281.305 317.845C281.305 317.845 281.305 317.808 281.305 317.79L281.323 312.664C281.323 312.664 281.323 312.7 281.323 312.718C281.323 314.424 281.314 316.139 281.305 317.845C281.305 316.139 281.314 314.424 281.323 312.718C281.341 313.061 281.548 313.521 281.936 314.099L281.918 319.225C281.53 318.648 281.323 318.188 281.305 317.845Z" fill="#47E4FF"/>
<path d="M285.491 312.023L285.473 317.159L281.918 319.226L281.936 314.09L285.491 312.023Z" fill="#47E4FF"/>
<path d="M296.293 315.461L296.275 320.588C295.228 319.026 293.587 317.546 291.367 316.138L291.385 311.012C293.605 312.411 295.238 313.891 296.293 315.461Z" fill="#47E4FF"/>
<path d="M287.639 313.196L287.621 318.323L283.164 320.922L283.173 315.787L287.639 313.196Z" fill="#A35DFF"/>
<path d="M275.18 317.212L275.198 312.086C275.198 313.079 275.766 314.324 276.912 315.84L276.894 320.967C275.748 319.46 275.18 318.205 275.18 317.212Z" fill="#A35DFF"/>
<path d="M277.544 316.653L277.526 321.78L276.895 320.967L276.913 315.832L277.544 316.653Z" fill="#A35DFF"/>
<path d="M269.741 321.87C269.01 321.103 268.45 320.39 268.062 319.731L268.081 314.604C268.468 315.263 269.028 315.976 269.759 316.744C269.759 318.449 269.75 320.164 269.741 321.87Z" fill="#47E4FF"/>
<path d="M283.94 321.96C283.705 321.635 283.444 321.292 283.164 320.922L283.182 315.796C283.462 316.166 283.723 316.509 283.958 316.834C283.958 318.54 283.949 320.254 283.94 321.96Z" fill="#47E4FF"/>
<path d="M268.08 314.604L268.062 319.731L264.074 322.05L264.083 316.924L268.08 314.604Z" fill="#47E4FF"/>
<path d="M269.741 321.869C269.741 321.869 269.741 321.842 269.741 321.833C269.741 321.653 269.741 321.472 269.741 321.301C269.741 320.425 269.741 319.55 269.741 318.674C269.741 318.034 269.741 317.393 269.741 316.752C269.858 316.869 269.975 316.996 270.102 317.122C271.013 318.034 271.924 318.783 272.835 319.387L272.817 324.514C271.906 323.909 270.995 323.16 270.084 322.248C269.957 322.122 269.84 322.005 269.723 321.878L269.741 321.869Z" fill="#47E4FF"/>
<path d="M277.545 316.653L277.527 321.78L272.836 324.505L272.854 319.379L277.545 316.653Z" fill="#47E4FF"/>
<path d="M279.457 319.875L279.439 325.001C279.439 325.001 279.439 324.92 279.43 324.875C279.375 324.505 279.159 324.026 278.789 323.449L278.807 318.322C279.186 318.9 279.394 319.378 279.448 319.748C279.448 319.793 279.457 319.829 279.457 319.875Z" fill="#A35DFF"/>
<path d="M283.941 321.96C283.941 321.96 283.941 321.914 283.941 321.887C283.941 320.2 283.95 318.512 283.959 316.824C284.735 317.898 285.222 318.747 285.439 319.369C285.52 319.595 285.574 319.821 285.61 320.028C285.61 321.734 285.601 323.449 285.592 325.155C285.556 324.938 285.502 324.721 285.421 324.496C285.204 323.882 284.708 323.034 283.941 321.951V321.96Z" fill="#47E4FF"/>
<path d="M285.591 325.163C285.591 325.163 285.591 325.109 285.591 325.082C285.591 324.559 285.591 324.026 285.591 323.503C285.591 322.348 285.591 321.192 285.6 320.037C285.627 320.209 285.645 320.371 285.645 320.533L285.627 325.66C285.627 325.497 285.618 325.335 285.582 325.163H285.591Z" fill="#47E4FF"/>
<path d="M278.807 318.332L278.789 323.458L275.027 325.643L275.045 320.516L278.807 318.332Z" fill="#A35DFF"/>
<path d="M278.88 325.804C277.923 326.364 276.633 326.31 275.027 325.651L275.045 320.525C276.651 321.183 277.941 321.238 278.898 320.678C278.898 322.384 278.889 324.099 278.88 325.804C278.88 324.099 278.889 322.384 278.898 320.678C279.268 320.461 279.457 320.191 279.466 319.884L279.448 325.01C279.448 325.326 279.259 325.588 278.88 325.804Z" fill="#47E4FF"/>
<path d="M296.293 315.462L296.274 320.588L291.312 321.825L291.322 316.698L296.293 315.462Z" fill="#A35DFF"/>
<path d="M291.321 316.698L291.303 321.824C290.365 320.534 289.138 319.37 287.613 318.323L287.631 313.196C289.156 314.234 290.383 315.407 291.321 316.698Z" fill="#A35DFF"/>
<path d="M260.754 324.749C260.249 323.711 259.996 322.637 259.996 321.563L260.014 316.437C260.014 317.511 260.267 318.585 260.772 319.622C260.772 321.328 260.763 323.043 260.754 324.749Z" fill="#47E4FF"/>
<path d="M269.299 321.437L269.281 326.563C266.854 325.101 265.113 323.603 264.066 322.041L264.084 316.915C265.131 318.467 266.872 319.975 269.299 321.437Z" fill="#A35DFF"/>
<path d="M285.646 320.524L285.628 325.651C285.628 325.994 285.556 326.319 285.43 326.626L285.448 321.499C285.583 321.201 285.646 320.876 285.646 320.524Z" fill="#A35DFF"/>
<path d="M269.299 321.437L269.29 326.572L266.25 328.341L266.259 323.205L269.299 321.437Z" fill="#47E4FF"/>
<path d="M268.343 324.414L268.334 329.541L266.25 328.34L266.259 323.205L268.343 324.414Z" fill="#A35DFF"/>
<path d="M271.445 322.609L271.426 327.736L268.332 329.541L268.341 324.414L271.445 322.609Z" fill="#A35DFF"/>
<path d="M285.446 321.5L285.428 326.626C285.157 327.24 284.57 327.8 283.686 328.314C282.08 329.244 280.213 329.659 278.075 329.551C275.937 329.442 273.717 328.838 271.426 327.736L271.444 322.61C273.735 323.711 275.946 324.316 278.093 324.424C280.231 324.532 282.099 324.117 283.704 323.188C284.589 322.673 285.175 322.105 285.446 321.5Z" fill="#A35DFF"/>
<path d="M260.754 324.749C260.754 324.749 260.754 324.659 260.754 324.623C260.754 322.953 260.763 321.283 260.772 319.614C261.674 321.473 263.388 323.224 265.905 324.677C273.727 329.198 286.412 329.198 294.179 324.677C298.041 322.429 299.971 319.487 299.98 316.545L299.962 321.671C299.962 324.623 298.023 327.565 294.161 329.803C286.385 334.325 273.709 334.325 265.887 329.803C263.37 328.35 261.656 326.599 260.754 324.74V324.749Z" fill="#47E4FF"/>
<path d="M300.613 316.545L300.595 321.671C300.595 324.713 298.593 327.745 294.614 330.065C286.603 334.722 273.512 334.722 265.447 330.065C261.387 327.718 259.366 324.641 259.375 321.563L259.393 316.437C259.393 319.514 261.414 322.601 265.465 324.938C273.53 329.595 286.612 329.595 294.632 324.938C298.611 322.628 300.604 319.586 300.613 316.545Z" fill="#A35DFF"/>
<path d="M294.532 308.034C302.598 312.691 302.643 320.272 294.631 324.938C286.62 329.604 273.53 329.595 265.464 324.938C257.399 320.281 257.354 312.7 265.374 308.043C273.385 303.386 286.476 303.386 294.532 308.043V308.034ZM265.906 324.676C273.728 329.198 286.413 329.198 294.18 324.676C301.948 320.155 301.903 312.808 294.081 308.295C286.259 303.783 273.584 303.783 265.816 308.295C258.039 312.817 258.084 320.164 265.906 324.676Z" fill="#A35DFF"/>
<path d="M279.447 319.749C279.501 320.119 279.311 320.426 278.887 320.67C277.931 321.229 276.641 321.175 275.035 320.516L278.797 318.332C279.176 318.91 279.384 319.388 279.438 319.758L279.447 319.749Z" fill="#47E4FF"/>
<path d="M291.319 316.698L296.29 315.471C295.243 313.909 293.601 312.429 291.382 311.021L293.628 309.713L291.544 308.512L289.226 309.857C286.97 308.783 284.787 308.187 282.694 308.07C280.601 307.953 278.824 308.323 277.362 309.171C276 309.965 275.278 310.868 275.197 311.888C275.107 312.908 275.675 314.225 276.902 315.841L277.533 316.653L272.842 319.379C271.931 318.774 271.02 318.025 270.109 317.113C269.197 316.202 268.521 315.362 268.07 314.604L264.082 316.924C265.129 318.476 266.87 319.983 269.297 321.446L266.256 323.214L268.34 324.415L271.444 322.61C273.735 323.711 275.946 324.316 278.093 324.424C280.231 324.532 282.098 324.117 283.704 323.187C284.588 322.673 285.175 322.104 285.446 321.5C285.716 320.886 285.716 320.173 285.437 319.37C285.157 318.566 284.399 317.366 283.181 315.787L287.638 313.196C289.162 314.234 290.389 315.408 291.328 316.698H291.319ZM278.896 320.678C277.939 321.238 276.649 321.184 275.043 320.525L278.806 318.341C279.184 318.918 279.392 319.397 279.446 319.767C279.5 320.137 279.311 320.444 278.887 320.687M281.927 314.108C281.539 313.53 281.332 313.07 281.314 312.727C281.296 312.384 281.503 312.077 281.945 311.825C282.802 311.328 283.984 311.4 285.482 312.041L281.927 314.108Z" fill="#A35DFF"/>
<path d="M294.09 308.296C301.912 312.817 301.957 320.164 294.189 324.677C286.412 329.198 273.737 329.198 265.915 324.677C258.093 320.164 258.057 312.808 265.825 308.296C273.592 303.783 286.277 303.783 294.09 308.296ZM278.094 324.424C280.232 324.532 282.1 324.117 283.706 323.187C284.59 322.673 285.176 322.104 285.447 321.5C285.717 320.886 285.717 320.173 285.438 319.37C285.158 318.566 284.4 317.366 283.182 315.787L287.639 313.196C289.164 314.234 290.391 315.408 291.329 316.698L296.3 315.471C295.253 313.909 293.612 312.429 291.392 311.021L293.639 309.713L291.555 308.512L289.236 309.857C286.981 308.783 284.797 308.187 282.704 308.07C280.611 307.953 278.834 308.323 277.372 309.171C276.01 309.965 275.288 310.868 275.207 311.888C275.117 312.908 275.685 314.225 276.912 315.841L277.544 316.653L272.852 319.379C271.941 318.774 271.03 318.025 270.119 317.113C269.208 316.202 268.531 315.362 268.08 314.604L264.092 316.924C265.139 318.476 266.88 319.983 269.307 321.446L266.267 323.214L268.351 324.415L271.454 322.61C273.746 323.711 275.956 324.316 278.103 324.424" fill="#47E4FF"/>
<path d="M257.336 324.171C257.038 323.304 256.894 322.429 256.903 321.544L256.921 316.418C256.921 317.293 257.065 318.178 257.354 319.044C257.354 320.75 257.345 322.465 257.336 324.171Z" fill="#47E4FF"/>
<path d="M258.672 326.734C258.672 326.734 258.672 326.734 258.672 326.725C258.672 325.019 258.681 323.313 258.69 321.607C259.827 323.187 261.505 324.667 263.724 325.958C263.796 326.003 263.877 326.048 263.95 326.084C263.95 327.79 263.941 329.505 263.932 331.21C263.859 331.165 263.778 331.129 263.706 331.084C261.487 329.802 259.809 328.322 258.672 326.734Z" fill="#47E4FF"/>
<path d="M263.93 331.211C263.93 329.505 263.939 327.79 263.948 326.084C272.997 331.174 287.485 331.129 296.39 325.958C300.847 323.368 303.075 319.965 303.084 316.562L303.066 321.689C303.057 325.091 300.829 328.494 296.372 331.084C287.467 336.256 272.988 336.301 263.93 331.211Z" fill="#47E4FF"/>
<path d="M296.272 307.023C305.312 312.239 305.357 320.732 296.38 325.949C287.404 331.166 272.752 331.166 263.713 325.949C254.682 320.732 254.637 312.239 263.613 307.023C272.59 301.806 287.241 301.806 296.272 307.023ZM265.463 324.938C273.528 329.595 286.61 329.595 294.63 324.938C302.641 320.281 302.605 312.7 294.531 308.034C286.466 303.377 273.384 303.377 265.373 308.034C257.361 312.691 257.397 320.272 265.463 324.929" fill="#47E4FF"/>
<path d="M257.741 325.155C257.587 324.83 257.452 324.505 257.344 324.171C257.344 322.466 257.353 320.751 257.362 319.045C257.47 319.37 257.605 319.704 257.759 320.029C257.759 321.734 257.75 323.449 257.741 325.155Z" fill="#47E4FF"/>
<path d="M257.742 325.155C257.742 325.155 257.742 325.074 257.742 325.038C257.742 323.368 257.751 321.698 257.76 320.02C258.004 320.525 258.293 321.03 258.644 321.518C258.644 323.224 258.635 324.938 258.626 326.644C258.284 326.157 257.986 325.651 257.742 325.146V325.155Z" fill="#47E4FF"/>
<path d="M258.671 326.734C258.671 326.734 258.635 326.68 258.617 326.653C258.617 324.947 258.626 323.232 258.635 321.526C258.653 321.553 258.671 321.581 258.689 321.608C258.689 323.313 258.68 325.028 258.671 326.734Z" fill="#47E4FF"/>
<path d="M306.224 316.563L306.206 321.689C306.197 325.561 303.662 329.424 298.592 332.366C288.397 338.296 271.752 338.296 261.486 332.366C256.325 329.388 253.745 325.462 253.754 321.536L253.772 316.409C253.763 320.326 256.343 324.252 261.504 327.24C271.77 333.169 288.415 333.169 298.61 327.24C303.68 324.297 306.215 320.434 306.224 316.563Z" fill="#B378FF"/>
<path d="M298.494 305.732C308.761 311.662 308.815 321.31 298.612 327.231C288.408 333.151 271.772 333.16 261.505 327.231C251.247 321.301 251.184 311.653 261.388 305.732C271.583 299.803 288.237 299.803 298.494 305.732ZM263.725 325.949C272.764 331.166 287.416 331.166 296.392 325.949C305.369 320.732 305.315 312.24 296.284 307.023C287.253 301.806 272.602 301.806 263.625 307.023C254.649 312.24 254.694 320.732 263.725 325.949Z" fill="#A35DFF"/>
<path d="M281.957 311.806C282.814 311.31 283.996 311.382 285.493 312.023L281.939 314.09C281.551 313.512 281.343 313.052 281.325 312.709C281.307 312.366 281.515 312.059 281.957 311.806Z" fill="#47E4FF"/>
<path d="M361.308 171.247C364.358 169.474 364.35 163.767 361.291 158.501C358.232 153.234 353.28 150.402 350.23 152.175C347.18 153.948 347.187 159.655 350.246 164.922C353.305 170.188 358.257 173.02 361.308 171.247Z" fill="#A35DFF"/>
<path d="M354.919 151.039C355.92 151.58 356.985 152.366 358.077 153.377C359.231 154.451 360.251 155.75 360.675 156.355C361.46 157.483 361.568 157.673 362.254 158.891C362.533 159.387 362.75 159.884 363.111 160.696C363.111 160.696 363.481 161.553 363.796 162.573C364.04 163.368 364.094 163.611 364.293 164.505C364.563 165.75 364.617 167.212 364.608 167.682C364.59 168.178 364.563 168.846 364.491 169.333C364.347 170.281 364.184 170.85 364.076 171.156C363.769 172.014 363.697 172.158 363.327 172.844C363.327 172.844 363.047 173.359 362.614 173.882C362.145 174.46 361.748 174.785 361.739 174.785C361.09 175.317 361.054 175.335 360.305 175.759C358.501 176.689 356.083 176.517 353.412 175.028C347.756 171.878 343.1 163.999 343.028 157.438C344.345 156.608 346.592 156.553 347.972 157.33C348.035 162.339 351.581 168.349 355.902 170.759C360.224 173.169 363.67 171.057 363.607 166.048C363.544 161.039 359.998 155.028 355.677 152.618C351.355 150.209 347.909 152.321 347.972 157.33C346.592 156.562 344.345 156.617 343.028 157.438C342.992 154.234 344.048 151.932 345.807 150.786C346.619 150.272 347.268 150.037 347.584 149.947C347.927 149.848 348.387 149.739 348.739 149.685C349.091 149.631 349.551 149.595 349.894 149.604C350.399 149.622 351.247 149.64 352.294 149.938C353.115 150.173 353.809 150.425 354.937 151.039H354.919Z" fill="#A35DFF"/>
<path d="M345.789 150.796C346.511 150.362 346.583 150.326 347.35 150.029C347.35 150.029 347.9 149.821 348.64 149.704C349.344 149.595 350.48 149.523 351.852 149.839C352.483 149.983 353.106 150.191 353.71 150.444C354.567 150.814 354.892 151.012 355.686 151.5C356.705 152.122 358.077 153.314 358.762 154.054C359.511 154.866 359.737 155.11 360.07 155.552C360.251 155.796 360.504 156.103 360.675 156.355C361.009 156.852 361.46 157.511 361.767 158.025C363.003 160.119 363.58 161.879 363.796 162.547C363.887 162.835 364.004 163.214 364.076 163.512C364.202 164.063 364.356 164.803 364.455 165.363C364.554 165.931 364.581 166.572 364.617 167.249C364.635 167.655 364.663 169.099 364.202 170.787C363.851 172.068 362.876 174.424 360.314 175.76C362.326 174.722 363.562 172.321 363.517 168.864C363.436 162.303 358.789 154.433 353.133 151.274C350.246 149.658 347.648 149.595 345.816 150.787L345.789 150.796Z" fill="#A35DFF"/>
<path d="M287.027 213.178C285.782 213.81 284.122 213.692 282.282 212.663C278.375 210.488 275.164 205.055 275.109 200.524L343.007 157.438C343.088 163.999 347.734 171.869 353.391 175.028C356.052 176.517 358.47 176.688 360.266 175.768C335.853 188.241 311.44 200.705 287.018 213.178H287.027Z" fill="#A35DFF"/>
<path d="M345.768 150.805C344.018 151.951 342.963 154.243 343.008 157.447L275.11 200.534C275.083 198.323 275.814 196.744 277.014 195.949C299.929 180.904 322.853 165.85 345.768 150.805Z" fill="#A35DFF"/>
<path d="M280.695 212.79C280.695 212.79 279.982 212.384 279.504 212.014C278.81 211.472 278.53 211.201 278.07 210.732C277.817 210.479 276.942 209.55 276.112 208.133C275.282 206.734 274.876 205.479 274.768 205.127C274.533 204.36 274.461 204.008 274.335 203.205C274.272 202.817 274.263 202.537 274.227 201.851C274.227 201.382 274.515 200.903 275.12 200.524C275.174 205.055 278.386 210.488 282.292 212.663C284.141 213.692 285.811 213.81 287.046 213.169C286.613 213.367 286.216 213.557 285.585 213.683C285.17 213.765 284.683 213.837 283.916 213.792C282.391 213.701 281.119 213.006 280.704 212.781L280.695 212.79Z" fill="#A35DFF"/>
<path d="M277.034 195.939C275.825 196.725 275.085 198.313 275.112 200.533C274.507 200.912 274.219 201.391 274.219 201.86C274.219 200.93 274.3 199.694 274.94 198.34C275.265 197.645 275.716 197.122 275.716 197.113C276.258 196.49 276.447 196.346 277.025 195.939H277.034Z" fill="#A35DFF"/>
<path d="M283.179 211.492C284.993 210.438 284.988 207.043 283.168 203.91C281.348 200.777 278.402 199.091 276.589 200.146C274.775 201.2 274.78 204.595 276.6 207.728C278.42 210.861 281.366 212.546 283.179 211.492Z" fill="#A35DFF"/>
<path d="M274.228 201.861C274.237 201.193 274.246 200.706 274.399 199.975C274.525 199.361 274.688 198.883 274.977 198.278C275.301 197.592 275.725 197.114 275.978 196.816C276.077 196.698 276.222 196.554 276.339 196.464C276.537 196.292 276.817 196.085 277.025 195.94C278.288 195.119 280.083 195.164 282.077 196.274C285.983 198.449 289.195 203.883 289.249 208.413C289.276 210.805 288.428 212.457 287.039 213.179C286.804 213.287 286.488 213.44 286.236 213.513C286.01 213.585 285.595 213.711 285.135 213.765C284.377 213.856 283.637 213.819 282.934 213.657C282.401 213.531 281.662 213.323 280.696 212.791C279.74 212.258 279.163 211.744 278.594 211.247C277.891 210.624 276.447 209.027 275.491 206.969C275.157 206.247 274.264 204.343 274.219 201.852C274.219 202.348 274.562 202.845 275.229 203.215C275.265 206.193 277.376 209.767 279.948 211.202C282.519 212.637 284.567 211.383 284.531 208.404C284.495 205.426 282.383 201.852 279.812 200.417C277.241 198.982 275.193 200.236 275.229 203.215C274.562 202.845 274.228 202.348 274.219 201.852L274.228 201.861Z" fill="#9442FF"/>
<path d="M275.122 203.151C275.085 200.1 277.188 198.819 279.822 200.281C282.456 201.743 284.621 205.416 284.658 208.467C284.694 211.518 282.592 212.799 279.957 211.337C277.323 209.875 275.158 206.202 275.122 203.151ZM275.239 203.214C275.275 206.193 277.386 209.767 279.957 211.202C282.528 212.637 284.576 211.382 284.54 208.404C284.504 205.425 282.393 201.851 279.822 200.416C277.251 198.981 275.203 200.236 275.239 203.214Z" fill="#A35DFF"/>
<path d="M280.389 213.286C279.541 213.782 278.377 213.719 277.078 212.997C274.443 211.526 272.278 207.862 272.242 204.811L275.111 203.142C275.147 206.192 277.312 209.856 279.947 211.328C281.237 212.05 282.41 212.104 283.258 211.616C282.401 212.113 281.246 212.781 280.389 213.286Z" fill="#A35DFF"/>
<path d="M276.509 200.001C275.634 200.506 275.101 201.607 275.119 203.16L272.25 204.83C272.232 203.277 272.765 202.185 273.64 201.671C274.497 201.174 275.652 200.506 276.509 200.001Z" fill="#A35DFF"/>
<path d="M283.179 211.492C284.993 210.438 284.988 207.043 283.168 203.91C281.348 200.777 278.402 199.091 276.589 200.146C274.775 201.2 274.78 204.595 276.6 207.728C278.42 210.861 281.366 212.546 283.179 211.492Z" fill="#A35DFF"/>
<path d="M279.403 211.599C280.717 210.835 280.712 208.375 279.393 206.103C278.074 203.832 275.939 202.61 274.625 203.374C273.311 204.138 273.316 206.598 274.635 208.869C275.954 211.141 278.089 212.363 279.403 211.599Z" fill="#A35DFF"/>
<path d="M277.013 195.948C299.928 180.903 322.852 165.849 345.768 150.804C347.599 149.594 350.206 149.658 353.102 151.273C358.759 154.423 363.414 162.302 363.486 168.864C363.532 172.329 362.286 174.739 360.266 175.768C335.853 188.241 311.44 200.705 287.018 213.178C288.407 212.465 289.273 210.804 289.237 208.412C289.183 203.882 285.972 198.448 282.065 196.273C280.062 195.154 278.267 195.118 277.004 195.948H277.013Z" fill="#A35DFF"/>
<path d="M273.641 201.662L276.51 199.992C277.358 199.496 278.521 199.559 279.821 200.281C282.455 201.752 284.62 205.416 284.656 208.467C284.674 210.019 284.142 211.111 283.267 211.626L280.398 213.295C281.273 212.79 281.805 211.689 281.787 210.136C281.751 207.086 279.586 203.422 276.952 201.95C275.662 201.228 274.489 201.174 273.641 201.662Z" fill="#A35DFF"/>
<path d="M272.25 204.821C272.214 201.77 274.316 200.489 276.951 201.951C279.585 203.422 281.75 207.086 281.786 210.137C281.823 213.187 279.72 214.469 277.086 213.007C274.452 211.545 272.287 207.872 272.25 204.821ZM273.649 205.597C273.676 207.754 275.21 210.344 277.068 211.382C278.927 212.42 280.415 211.509 280.388 209.352C280.361 207.195 278.827 204.604 276.969 203.566C275.11 202.529 273.622 203.44 273.649 205.597Z" fill="#9442FF"/>
<path d="M279.403 211.598C280.717 210.834 280.712 208.374 279.393 206.102C278.074 203.831 275.939 202.609 274.625 203.373C273.311 204.137 273.316 206.597 274.635 208.868C275.954 211.14 278.089 212.362 279.403 211.598Z" fill="#BA84FF"/>
<path d="M280.39 209.36C280.399 210.461 280.029 211.229 279.407 211.59L266.587 219.035C266.451 215.308 265.91 211.942 265.008 208.963L274.634 203.368C275.229 203.025 276.059 203.061 276.971 203.566C278.838 204.604 280.363 207.194 280.39 209.351V209.36Z" fill="#BA84FF"/>
<path d="M259.088 205.687C259.927 206.174 260.766 206.661 261.605 207.149C263.455 211.129 264.483 216.075 264.501 221.878C264.564 245.335 248.073 273.918 227.666 285.705L225.148 284.243C245.556 272.456 262.047 243.873 261.984 220.416C261.966 214.613 260.938 209.667 259.088 205.687Z" fill="#BA84FF"/>
<path d="M259.088 205.687C257.23 201.671 254.532 198.647 251.203 196.707L253.72 198.169C257.049 200.11 259.738 203.133 261.605 207.149C260.766 206.662 259.927 206.175 259.088 205.687Z" fill="#BA84FF"/>
<path d="M249.686 199.297L252.203 200.759C258.464 204.396 262.344 212.122 262.38 223.097C262.443 245.182 246.862 272.176 227.646 283.277L225.129 281.815C244.336 270.723 259.926 243.719 259.863 221.635C259.836 210.66 255.947 202.934 249.686 199.297Z" fill="#CDA6FF"/>
<path d="M198.84 286.815C205.561 290.723 214.871 290.182 225.147 284.243L227.664 285.705C217.389 291.635 208.078 292.185 201.357 288.277C200.599 287.835 199.598 287.249 198.84 286.815Z" fill="#BA84FF"/>
<path d="M202.873 285.687L200.355 284.225C206.698 287.908 215.467 287.402 225.138 281.815L227.655 283.278C217.984 288.864 209.215 289.37 202.873 285.687Z" fill="#CDA6FF"/>
<path d="M224.914 201.707C234.576 196.12 243.355 195.615 249.688 199.297L252.205 200.759C245.863 197.077 237.093 197.582 227.431 203.169C226.673 202.726 225.672 202.14 224.914 201.707Z" fill="white"/>
<path d="M251.196 196.698L253.713 198.16C246.992 194.252 237.69 194.802 227.423 200.732L224.906 199.27C235.173 193.34 244.483 192.79 251.196 196.698Z" fill="#CDA6FF"/>
<path d="M252.682 194.152L255.199 195.614C248.089 191.481 238.256 192.049 227.412 198.313L224.895 196.851C235.739 190.587 245.572 190.019 252.682 194.152Z" fill="#BA84FF"/>
<path d="M190.18 261.888C190.153 250.85 194.023 238.575 200.311 227.682C201.15 228.169 201.989 228.656 202.828 229.144C196.54 240.037 192.67 252.303 192.697 263.35C192.724 274.397 196.612 282.05 202.873 285.687L200.356 284.225C194.095 280.588 190.216 272.862 190.18 261.888Z" fill="white"/>
<path d="M200.312 227.682C206.601 216.779 215.298 207.258 224.915 201.707L227.432 203.169C217.824 208.72 209.118 218.241 202.83 229.144C201.991 228.657 201.152 228.169 200.312 227.682Z" fill="white"/>
<path d="M201.369 288.287L198.851 286.825C192.22 282.971 188.107 274.767 188.07 263.115C188.007 239.649 204.499 211.075 224.906 199.288L227.423 200.75C207.016 212.537 190.515 241.12 190.588 264.577C190.624 276.229 194.738 284.433 201.369 288.287Z" fill="#CDA6FF"/>
<path d="M227.423 200.74C247.83 188.953 264.43 198.421 264.494 221.878C264.557 245.335 248.065 273.918 227.658 285.705C207.25 297.492 190.641 288.024 190.578 264.567C190.515 241.102 207.007 212.528 227.414 200.74H227.423ZM227.658 283.277C246.865 272.185 262.455 245.181 262.391 223.096C262.328 201.011 246.648 192.076 227.432 203.168C208.216 214.269 192.635 241.264 192.698 263.349C192.762 285.434 208.441 294.378 227.658 283.277Z" fill="#CDA6FF"/>
<path d="M199.879 290.84L197.362 289.378C190.343 285.299 185.986 276.634 185.949 264.333C185.877 239.567 203.352 209.296 224.896 196.851L227.413 198.313C205.869 210.759 188.394 241.029 188.467 265.795C188.503 278.096 192.86 286.761 199.879 290.84Z" fill="#BA84FF"/>
<path d="M266.587 219.035C266.452 215.308 265.91 211.941 265.008 208.963C260.209 193.051 245.16 188.069 227.424 198.313C205.88 210.759 188.405 241.03 188.477 265.795C188.549 290.552 206.132 300.579 227.676 288.142C249.211 275.696 266.686 245.425 266.614 220.66C266.614 220.109 266.605 219.568 266.587 219.035ZM227.667 285.705C207.26 297.492 190.651 288.034 190.588 264.568C190.525 241.102 207.016 212.528 227.424 200.732C244.024 191.147 258.098 195.615 262.816 210.236C263.763 213.178 264.332 216.526 264.476 220.263C264.494 220.795 264.503 221.328 264.503 221.869C264.566 245.326 248.074 273.909 227.676 285.696L227.667 285.705Z" fill="#BA84FF"/>
<path opacity="0.4" d="M252.127 257.51C265.755 234.048 265.792 208.627 252.208 200.731C238.625 192.835 216.566 205.454 202.938 228.916C189.309 252.378 189.273 277.799 202.856 285.696C216.44 293.592 238.499 280.973 252.127 257.51Z" fill="#DEC5FF"/>
<path opacity="0.4" d="M253.146 246.105C261.695 231.387 261.717 215.44 253.196 210.487C244.675 205.533 230.837 213.449 222.288 228.166C213.739 242.884 213.717 258.831 222.238 263.785C230.759 268.738 244.597 260.823 253.146 246.105Z" fill="#DEC5FF"/>
<path d="M306.812 252.132C310.62 255.002 311.531 259.072 311.531 259.92C311.531 259.072 312.442 255.002 316.249 252.132C312.442 249.271 311.531 245.191 311.531 244.343C311.531 245.191 310.62 249.262 306.812 252.132Z" fill="white"/>
<path d="M320.311 245.804C320.23 245.073 319.607 244.703 318.93 244.703C318.254 244.703 317.767 245.461 317.83 246.084C317.911 246.815 318.533 247.185 319.21 247.185C319.887 247.185 320.374 246.427 320.311 245.804Z" fill="white"/>
<path d="M323.35 237.393C323.269 236.662 322.646 236.292 321.969 236.292C321.293 236.292 320.806 237.05 320.869 237.673C320.95 238.404 321.572 238.774 322.249 238.774C322.926 238.774 323.413 238.016 323.35 237.393Z" fill="white"/>
<path d="M314.67 237.023C314.589 236.292 313.966 235.922 313.29 235.922C312.613 235.922 312.126 236.68 312.189 237.303C312.27 238.034 312.893 238.404 313.569 238.404C314.246 238.404 314.733 237.646 314.67 237.023Z" fill="white"/>
<path d="M58.1555 149.152C54.3483 152.022 53.4371 156.093 53.4371 156.941C53.4371 156.093 52.5259 152.022 48.7188 149.152C52.5259 146.291 53.4371 142.212 53.4371 141.363C53.4371 142.212 54.3483 146.282 58.1555 149.152Z" fill="white"/>
<path d="M44.6578 142.826C44.739 142.095 45.3615 141.725 46.0382 141.725C46.7148 141.725 47.202 142.483 47.1388 143.105C47.0576 143.837 46.4351 144.207 45.7585 144.207C45.0819 144.207 44.5947 143.448 44.6578 142.826Z" fill="white"/>
<path d="M41.6188 134.423C41.7 133.692 42.3225 133.322 42.9991 133.322C43.6757 133.322 44.1629 134.08 44.0998 134.703C44.0186 135.434 43.3961 135.804 42.7194 135.804C42.0428 135.804 41.5556 135.046 41.6188 134.423Z" fill="white"/>
<path d="M50.2868 134.053C50.368 133.322 50.9905 132.952 51.6671 132.952C52.3437 132.952 52.8309 133.71 52.7677 134.333C52.6865 135.064 52.064 135.434 51.3874 135.434C50.7108 135.434 50.2236 134.676 50.2868 134.053Z" fill="white"/>
<path d="M316.991 356.257C313.184 359.127 312.273 363.197 312.273 364.045C312.273 363.197 311.362 359.127 307.555 356.257C311.362 353.396 312.273 349.316 312.273 348.468C312.273 349.316 313.184 353.387 316.991 356.257Z" fill="white"/>
<path d="M319.291 347.167C319.372 346.436 319.994 346.066 320.671 346.066C321.348 346.066 321.835 346.825 321.772 347.447C321.69 348.178 321.068 348.548 320.391 348.548C319.715 348.548 319.228 347.79 319.291 347.167Z" fill="white"/>
<path d="M317.189 340.85C317.27 340.119 317.893 339.749 318.569 339.749C319.246 339.749 319.733 340.507 319.67 341.13C319.589 341.861 318.966 342.231 318.29 342.231C317.613 342.231 317.126 341.473 317.189 340.85Z" fill="white"/>
<path d="M313.31 343.116C313.391 342.385 314.014 342.015 314.691 342.015C315.367 342.015 315.854 342.773 315.791 343.396C315.71 344.127 315.087 344.497 314.411 344.497C313.734 344.497 313.247 343.738 313.31 343.116Z" fill="white"/>
<path d="M318.623 364.307C318.542 363.576 317.92 363.206 317.243 363.206C316.566 363.206 316.079 363.964 316.142 364.587C316.223 365.318 316.846 365.688 317.523 365.688C318.199 365.688 318.686 364.93 318.623 364.307Z" fill="white"/>
<path d="M304.592 363.107C304.511 362.376 303.888 362.006 303.212 362.006C302.535 362.006 302.048 362.764 302.111 363.387C302.192 364.118 302.815 364.488 303.491 364.488C304.168 364.488 304.655 363.73 304.592 363.107Z" fill="white"/>
</svg>
