<svg width="100" height="100" viewBox="0 0 100 100" fill="none" xmlns="http://www.w3.org/2000/svg">
<path d="M48.6424 36.0089C48.7298 35.7173 48.9092 35.4617 49.1537 35.2799C49.3983 35.0982 49.6951 35 50 35C50.3049 35 50.6017 35.0982 50.8463 35.2799C51.0908 35.4617 51.2702 35.7173 51.3576 36.0089L54.2514 45.6277H62.5841C62.8843 45.628 63.1767 45.7234 63.419 45.9002C63.6614 46.077 63.8413 46.3261 63.9327 46.6115C64.0241 46.8969 64.0224 47.2039 63.9277 47.4883C63.8331 47.7726 63.6504 48.0197 63.406 48.1937L57.0856 52.7004L59.9029 61.1367C59.9988 61.423 60.0005 61.7324 59.9077 62.0196C59.8149 62.3069 59.6324 62.557 59.387 62.7334C59.1416 62.9098 58.8461 63.0032 58.5437 62.9999C58.2413 62.9967 57.9479 62.8969 57.7063 62.7153L50 56.944L42.2937 62.7153C42.0521 62.8969 41.7587 62.9967 41.4563 62.9999C41.1539 63.0032 40.8584 62.9098 40.613 62.7334C40.3676 62.557 40.1851 62.3069 40.0923 62.0196C39.9995 61.7324 40.0012 61.423 40.0971 61.1367L42.9144 52.7004L36.594 48.1937C36.3496 48.0197 36.1669 47.7726 36.0723 47.4883C35.9776 47.2039 35.9759 46.8969 36.0673 46.6115C36.1587 46.3261 36.3386 46.077 36.581 45.9002C36.8233 45.7234 37.1157 45.628 37.4159 45.6277H45.7486L48.6424 36.0089Z" stroke="#20D3F6" stroke-width="3" stroke-linecap="round" stroke-linejoin="round"/>
<path d="M18 50C18 54.2023 18.8277 58.3635 20.4359 62.2459C22.044 66.1283 24.4011 69.6559 27.3726 72.6274C30.3441 75.5989 33.8717 77.956 37.7541 79.5641C41.6365 81.1723 45.7977 82 50 82C54.2023 82 58.3635 81.1723 62.2459 79.5641C66.1283 77.956 69.6559 75.5989 72.6274 72.6274C75.5989 69.6559 77.956 66.1283 79.5641 62.2459C81.1723 58.3635 82 54.2023 82 50C82 45.7977 81.1723 41.6365 79.5641 37.7541C77.956 33.8717 75.5989 30.3441 72.6274 27.3726C69.6559 24.4011 66.1283 22.044 62.2459 20.4359C58.3635 18.8277 54.2023 18 50 18C45.7977 18 41.6365 18.8277 37.7541 20.4359C33.8717 22.044 30.3441 24.4011 27.3726 27.3726C24.4011 30.3441 22.044 33.8717 20.4359 37.7541C18.8277 41.6365 18 45.7977 18 50Z" stroke="black" stroke-width="3" stroke-linecap="round" stroke-linejoin="round"/>
<path d="M26 50C26 56.3652 28.5286 62.4697 33.0294 66.9706C37.5303 71.4714 43.6348 74 50 74C56.3652 74 62.4697 71.4714 66.9706 66.9706C71.4714 62.4697 74 56.3652 74 50C74 43.6348 71.4714 37.5303 66.9706 33.0294C62.4697 28.5286 56.3652 26 50 26C43.6348 26 37.5303 28.5286 33.0294 33.0294C28.5286 37.5303 26 43.6348 26 50Z" stroke="black" stroke-width="3" stroke-linecap="round" stroke-linejoin="round"/>
</svg>
