<svg width="100" height="100" viewBox="0 0 100 100" fill="none" xmlns="http://www.w3.org/2000/svg">
<path d="M31 82.9474C31 85.6421 28.5818 88 25.8182 88H17.1818C14.4182 88 12 85.6421 12 82.9474V61.0526C12 58.3579 14.4182 56 17.1818 56H25.8182C28.5818 56 31 58.3579 31 61.0526V82.9474Z" stroke="black" stroke-width="3" stroke-miterlimit="10" stroke-linecap="round" stroke-linejoin="round"/>
<path d="M60 82.9474C60 85.6421 57.5818 88 54.8182 88H46.1818C43.4182 88 41 85.6421 41 82.9474V61.0526C41 58.3579 43.4182 56 46.1818 56H54.8182C57.5818 56 60 58.3579 60 61.0526V82.9474Z" stroke="#00CCF5" stroke-width="3" stroke-miterlimit="10" stroke-linecap="round" stroke-linejoin="round"/>
<path d="M31 38.9474C31 41.6421 28.5818 44 25.8182 44H17.1818C14.4182 44 12 41.6421 12 38.9474V17.0526C12 14.3579 14.4182 12 17.1818 12H25.8182C28.5818 12 31 14.3579 31 17.0526V38.9474Z" stroke="black" stroke-width="3" stroke-miterlimit="10" stroke-linecap="round" stroke-linejoin="round"/>
<path d="M60 38.9474C60 41.6421 57.5818 44 54.8182 44H46.1818C43.4182 44 41 41.6421 41 38.9474V17.0526C41 14.3579 43.4182 12 46.1818 12H54.8182C57.5818 12 60 14.3579 60 17.0526V38.9474Z" stroke="#00CCF5" stroke-width="3" stroke-miterlimit="10" stroke-linecap="round" stroke-linejoin="round"/>
<path d="M88 82.9474C88 85.6421 85.5818 88 82.8182 88H74.1818C71.4182 88 69 85.6421 69 82.9474V61.0526C69 58.3579 71.4182 56 74.1818 56H82.8182C85.5818 56 88 58.3579 88 61.0526V82.9474Z" stroke="black" stroke-width="3" stroke-miterlimit="10" stroke-linecap="round" stroke-linejoin="round"/>
<path d="M88 38.9474C88 41.6421 85.5818 44 82.8182 44H74.1818C71.4182 44 69 41.6421 69 38.9474V17.0526C69 14.3579 71.4182 12 74.1818 12H82.8182C85.5818 12 88 14.3579 88 17.0526V38.9474Z" stroke="black" stroke-width="3" stroke-miterlimit="10" stroke-linecap="round" stroke-linejoin="round"/>
<path d="M21 35C21 35 21 34.7761 21 34.5C21 34.2239 21 34 21 34" stroke="black" stroke-width="3" stroke-miterlimit="10" stroke-linecap="round" stroke-linejoin="round"/>
<path d="M21 35C21.5523 35 22 34.7761 22 34.5C22 34.2239 21.5523 34 21 34" stroke="black" stroke-width="3" stroke-miterlimit="10" stroke-linecap="round" stroke-linejoin="round"/>
<path d="M50 35C50 35 50 34.7761 50 34.5C50 34.2239 50 34 50 34" stroke="black" stroke-width="3" stroke-miterlimit="10" stroke-linecap="round" stroke-linejoin="round"/>
<path d="M50 35C50.5525 35 51 34.7761 51 34.5C51 34.2239 50.5525 34 50 34" stroke="#00CCF5" stroke-width="3" stroke-miterlimit="10" stroke-linecap="round" stroke-linejoin="round"/>
<path d="M79 35C78.4475 35 78 34.7761 78 34.5C78 34.2239 78.4475 34 79 34" stroke="black" stroke-width="3" stroke-miterlimit="10" stroke-linecap="round" stroke-linejoin="round"/>
<path d="M79 35C79 35 79 34.7761 79 34.5C79 34.2239 79 34 79 34" stroke="black" stroke-width="3" stroke-miterlimit="10" stroke-linecap="round" stroke-linejoin="round"/>
<path d="M79 79C78.4475 79 78 78.7763 78 78.5C78 78.2238 78.4475 78 79 78" stroke="black" stroke-width="3" stroke-miterlimit="10" stroke-linecap="round" stroke-linejoin="round"/>
<path d="M79 79C79 79 79 78.7763 79 78.5C79 78.2238 79 78 79 78" stroke="black" stroke-width="3" stroke-miterlimit="10" stroke-linecap="round" stroke-linejoin="round"/>
<path d="M50 79C50 79 50 78.7763 50 78.5C50 78.2238 50 78 50 78" stroke="black" stroke-width="3" stroke-miterlimit="10" stroke-linecap="round" stroke-linejoin="round"/>
<path d="M50 79C50.5525 79 51 78.7763 51 78.5C51 78.2238 50.5525 78 50 78" stroke="#00CCF5" stroke-width="3" stroke-miterlimit="10" stroke-linecap="round" stroke-linejoin="round"/>
<path d="M21 79C21 79 21 78.7763 21 78.5C21 78.2238 21 78 21 78" stroke="black" stroke-width="3" stroke-miterlimit="10" stroke-linecap="round" stroke-linejoin="round"/>
<path d="M21 79C21.5523 79 22 78.7763 22 78.5C22 78.2238 21.5523 78 21 78" stroke="black" stroke-width="3" stroke-miterlimit="10" stroke-linecap="round" stroke-linejoin="round"/>
</svg>
