<svg width="100" height="100" viewBox="0 0 100 100" fill="none" xmlns="http://www.w3.org/2000/svg">
<path d="M36.5791 56.6274C39.0644 56.6274 41.0791 54.6126 41.0791 52.1274C41.0791 49.6422 39.0644 47.6274 36.5791 47.6274C34.0938 47.6274 32.0791 49.6422 32.0791 52.1274C32.0791 54.6126 34.0938 56.6274 36.5791 56.6274Z" stroke="#00CCF5" stroke-width="3" stroke-miterlimit="10" stroke-linecap="round" stroke-linejoin="round"/>
<path d="M49.0791 42.6274C51.8404 42.6274 54.0791 40.6127 54.0791 38.1274C54.0791 35.6422 51.8404 33.6274 49.0791 33.6274C46.3178 33.6274 44.0791 35.6422 44.0791 38.1274C44.0791 40.6127 46.3178 42.6274 49.0791 42.6274Z" stroke="#00CCF5" stroke-width="3" stroke-miterlimit="10" stroke-linecap="round" stroke-linejoin="round"/>
<path d="M49.0791 42.6274V67.6274" stroke="#00CCF5" stroke-width="3" stroke-miterlimit="10" stroke-linecap="round" stroke-linejoin="round"/>
<path d="M61.5791 56.6274C64.0643 56.6274 66.0791 54.6126 66.0791 52.1274C66.0791 49.6422 64.0643 47.6274 61.5791 47.6274C59.0939 47.6274 57.0791 49.6422 57.0791 52.1274C57.0791 54.6126 59.0939 56.6274 61.5791 56.6274Z" stroke="#00CCF5" stroke-width="3" stroke-miterlimit="10" stroke-linecap="round" stroke-linejoin="round"/>
<path d="M76.0791 71.2745C76.0791 74.7686 73.2203 77.6274 69.7262 77.6274H28.432C24.9379 77.6274 22.0791 74.7686 22.0791 71.2745V29.9804C22.0791 26.4863 24.9379 23.6274 28.432 23.6274H69.7262C73.2203 23.6274 76.0791 26.4863 76.0791 29.9804V71.2745Z" stroke="black" stroke-width="3" stroke-miterlimit="10" stroke-linecap="round" stroke-linejoin="round"/>
<path d="M14.0791 28.6274H22.0791" stroke="black" stroke-width="3" stroke-miterlimit="10" stroke-linecap="round" stroke-linejoin="round"/>
<path d="M15.0791 42.6274H22.0791" stroke="black" stroke-width="3" stroke-miterlimit="10" stroke-linecap="round" stroke-linejoin="round"/>
<path d="M15.0791 56.6274H22.0791" stroke="black" stroke-width="3" stroke-miterlimit="10" stroke-linecap="round" stroke-linejoin="round"/>
<path d="M76.0791 42.6274H85.0791" stroke="black" stroke-width="3" stroke-miterlimit="10" stroke-linecap="round" stroke-linejoin="round"/>
<path d="M76.0791 56.6274H85.0791" stroke="black" stroke-width="3" stroke-miterlimit="10" stroke-linecap="round" stroke-linejoin="round"/>
<path d="M15.0791 71.6274H22.0791" stroke="black" stroke-width="3" stroke-miterlimit="10" stroke-linecap="round" stroke-linejoin="round"/>
<path d="M85.0791 28.6274H76.0791" stroke="black" stroke-width="3" stroke-miterlimit="10" stroke-linecap="round" stroke-linejoin="round"/>
<path d="M85.0791 71.6274H76.0791" stroke="black" stroke-width="3" stroke-miterlimit="10" stroke-linecap="round" stroke-linejoin="round"/>
<path d="M62.0791 56.6274V67.6274" stroke="#00CCF5" stroke-width="3" stroke-miterlimit="10" stroke-linecap="round" stroke-linejoin="round"/>
<path d="M37.0791 56.6274V67.6274" stroke="#00CCF5" stroke-width="3" stroke-miterlimit="10" stroke-linecap="round" stroke-linejoin="round"/>
<path d="M71.0791 85.6274V77.6274" stroke="black" stroke-width="3" stroke-miterlimit="10" stroke-linecap="round" stroke-linejoin="round"/>
<path d="M57.0791 85.6274V77.6274" stroke="black" stroke-width="3" stroke-miterlimit="10" stroke-linecap="round" stroke-linejoin="round"/>
<path d="M43.0791 85.6274V77.6274" stroke="black" stroke-width="3" stroke-miterlimit="10" stroke-linecap="round" stroke-linejoin="round"/>
<path d="M57.0791 23.6274V14.6274" stroke="black" stroke-width="3" stroke-miterlimit="10" stroke-linecap="round" stroke-linejoin="round"/>
<path d="M43.0791 23.6274V14.6274" stroke="black" stroke-width="3" stroke-miterlimit="10" stroke-linecap="round" stroke-linejoin="round"/>
<path d="M29.0791 85.6274V77.6274" stroke="black" stroke-width="3" stroke-miterlimit="10" stroke-linecap="round" stroke-linejoin="round"/>
<path d="M71.0791 13.6274V23.6274" stroke="black" stroke-width="3" stroke-miterlimit="10" stroke-linecap="round" stroke-linejoin="round"/>
<path d="M29.0791 14.6274V23.6274" stroke="black" stroke-width="3" stroke-miterlimit="10" stroke-linecap="round" stroke-linejoin="round"/>
</svg>
