<svg width="100" height="100" viewBox="0 0 100 100" fill="none" xmlns="http://www.w3.org/2000/svg">
<path d="M5.45312 26.7491C8.49783 23.7044 12.6273 21.9939 16.9332 21.9939H21.3546C23.4795 21.9966 25.5828 22.4194 27.5437 23.2379C29.5045 24.0564 31.2842 25.2546 32.7803 26.7634C34.2764 28.2723 35.4595 30.062 36.2614 32.0298C37.0633 33.9975 37.4682 36.1044 37.4529 38.2291V61.7707C37.4836 66.0907 39.2227 70.2232 42.2903 73.2653C45.3578 76.3074 49.5049 78.0116 53.8249 78.0061H58.234C60.352 78.0007 62.4478 77.5753 64.3999 76.7541C66.3524 75.9328 68.1224 74.7328 69.6074 73.2224C71.0924 71.7124 72.2628 69.9228 73.0511 67.957C73.8395 65.9911 74.2299 63.8886 74.1995 61.7707V26.7634" stroke="black" stroke-width="3" stroke-linecap="round" stroke-linejoin="round"/>
<path d="M94.545 47.1155L74.21 26.7803L53.875 47.1155" stroke="#00CCF5" stroke-width="3" stroke-linecap="round" stroke-linejoin="round"/>
</svg>
