<svg width="100" height="100" viewBox="0 0 100 100" fill="none" xmlns="http://www.w3.org/2000/svg">
<path d="M37.0921 24H69.9718C73.3009 24 76 26.658 76 29.9369V66.7001C76 69.979 73.3009 72.6371 69.9718 72.6371H38.7931L22.8709 83.4687C20.8715 84.8291 18.1435 83.4195 18.1435 81.0264V72.6371H14.0284C10.699 72.6371 8 69.979 8 66.7001V29.9369C8 26.658 10.699 24 14.0284 24H20.7834" stroke="black" stroke-width="3" stroke-linecap="round" stroke-linejoin="round"/>
<path d="M44 16L36 23.5L44 31" stroke="black" stroke-width="3" stroke-linecap="round" stroke-linejoin="round"/>
<path d="M28 52C31.3137 52 34 49.3139 34 46.0002C34 42.6863 31.3137 40 28 40C24.6863 40 22 42.6863 22 46.0002C22 49.3139 24.6863 52 28 52Z" stroke="black" stroke-width="3" stroke-miterlimit="10" stroke-linecap="round" stroke-linejoin="round"/>
<path d="M38 61C36.6938 56.4279 32.6477 53 28 53C23.3524 53 19.3064 56.4279 18 61" stroke="black" stroke-width="3" stroke-miterlimit="10" stroke-linecap="round" stroke-linejoin="round"/>
<path d="M56 52C59.3136 52 62 49.3139 62 46.0002C62 42.6863 59.3136 40 56 40C52.6864 40 50 42.6863 50 46.0002C50 49.3139 52.6864 52 56 52Z" stroke="#00CCF5" stroke-width="3" stroke-miterlimit="10" stroke-linecap="round" stroke-linejoin="round"/>
<path d="M66 61C64.6935 56.4279 60.6476 53 56 53C51.3524 53 47.3065 56.4279 46 61" stroke="#00CCF5" stroke-width="3" stroke-miterlimit="10" stroke-linecap="round" stroke-linejoin="round"/>
</svg>
