<svg width="100" height="100" viewBox="0 0 100 100" fill="none" xmlns="http://www.w3.org/2000/svg">
<path d="M56.1157 57.9837C55.507 58.6344 54.6815 59 53.8208 59C52.9601 59 52.1346 58.6344 51.5258 57.9837L50.9566 57.3722C50.6543 57.0508 50.4142 56.6688 50.2501 56.2481C50.086 55.8274 50.001 55.3762 50 54.9203C49.999 54.4644 50.0821 54.0128 50.2445 53.5913C50.4068 53.1698 50.6453 52.7866 50.9462 52.4637L55.939 47.0161C56.2402 46.6939 56.5978 46.4384 56.9913 46.2641C57.3849 46.0897 57.8067 46 58.2327 46C58.6587 46 59.0805 46.0897 59.474 46.2641C59.8676 46.4384 60.2251 46.6939 60.5263 47.0161L62 48.5781" stroke="#00CCF5" stroke-width="3" stroke-linecap="round" stroke-linejoin="round"/>
<path d="M37.8897 58L26.042 63.1417L31.9274 68.5521L20 78L43.3357 73.6454L40.7926 69.0759L45 64.9604" stroke="black" stroke-width="3" stroke-linecap="round" stroke-linejoin="round"/>
<path d="M58.8408 45L76.4852 37.0597L70.0975 31.2226L80 22L52.4316 27.9972L57.9264 33.0188L52 38.7773" stroke="black" stroke-width="3" stroke-linecap="round" stroke-linejoin="round"/>
<path d="M42 62L46.0179 66.0026C46.9892 66.9676 48.2954 67.5271 49.6688 67.5666C51.0422 67.606 52.3788 67.1224 53.4047 66.2148L60 74" stroke="#00CCF5" stroke-width="3" stroke-linecap="round" stroke-linejoin="round"/>
<path d="M62 49L62.8338 49.8156C63.8327 50.8698 64.3351 52.2207 64.2378 53.5909C64.1406 54.961 63.451 56.2464 62.3108 57.1828L70 64" stroke="#00CCF5" stroke-width="3" stroke-linecap="round" stroke-linejoin="round"/>
<path d="M60 46.9769L52.865 39.968C52.1057 39.2993 51.1078 38.9531 50.0894 39.0051C49.071 39.0571 48.115 39.5031 47.4304 40.2455L36.2679 51.2161C35.5121 51.8886 35.0581 52.8278 35.0052 53.8282C34.9523 54.8286 35.3047 55.8088 35.9854 56.5547L40.5429 61.0318C41.3027 61.7006 42.3011 62.0469 43.3199 61.9949C44.3387 61.9429 45.2952 61.4969 45.9803 60.7543L50.0347 56.7688" stroke="#00CCF5" stroke-width="3" stroke-linecap="round" stroke-linejoin="round"/>
</svg>
