<svg width="100" height="100" viewBox="0 0 100 100" fill="none" xmlns="http://www.w3.org/2000/svg">
<path d="M29.2217 50.7976L31.7905 48.5142C32.6468 47.6579 33.2177 46.2308 33.2177 45.0891C33.2177 43.9474 32.6468 42.5202 31.7905 41.664L29.2217 39.3806C27.7946 37.9535 27.2238 35.9555 28.0801 33.9575C28.9363 32.245 30.6489 30.8179 32.6469 31.1033L36.0719 31.3887C37.499 31.3887 38.6408 30.8179 39.7825 29.9616C40.6387 29.1054 41.2096 27.6782 41.2096 26.2511L40.9241 22.826C40.9241 20.8281 42.0658 19.1155 43.7784 18.2592C45.4908 17.403 47.7742 17.9738 49.2013 19.401L51.4847 21.9697C52.341 22.826 53.7681 23.3969 54.9098 23.3969C56.3369 23.3969 57.4786 22.826 58.3349 21.9697L60.6183 19.401C62.0454 17.9738 64.0434 17.403 66.0414 18.2592C67.7539 19.1155 69.181 20.8281 68.8956 22.826L68.6102 26.2511C68.6102 27.6782 69.181 28.8199 70.0373 29.9616C70.8936 30.8179 72.3207 31.3887 73.7478 31.3887L77.1729 31.1033C79.1709 31.1033 80.8834 32.245 81.7397 33.9575C82.596 35.6701 82.0251 37.9535 80.598 39.3806L78.0292 41.664C77.1729 42.5202 76.6021 43.9474 76.6021 45.0891C76.6021 46.2308 77.1729 47.6579 78.0292 48.5142L80.598 50.7976C82.0251 52.2247 82.596 54.2227 81.7397 56.2206C80.8834 57.9332 79.1709 59.3603 77.1729 59.0749L73.7478 58.7894C72.3207 58.7894 71.179 59.3603 70.0373 60.2165C69.181 61.0728 68.6102 62.4999 68.6102 63.9271L68.8956 67.3521C68.8956 69.3501 67.7539 71.0626 66.0414 71.9189C64.3288 72.7752 62.0454 72.2043 60.6183 70.7772L58.3349 68.2084C57.4786 67.3521 56.0515 66.7813 54.9098 66.7813C53.4827 66.7813 52.341 67.3521 51.4847 68.2084L49.2013 70.7772" stroke="black" stroke-width="3" stroke-miterlimit="10" stroke-linecap="round" stroke-linejoin="round"/>
<path d="M67.8574 49.2346C67.2769 50.9479 66.406 52.6611 64.9547 54.0888C61.1811 57.8008 55.6659 58.6574 50.7312 56.9442L26.6383 80.644C24.6063 82.6428 21.4133 82.6428 19.3814 80.644C17.3494 78.6452 17.3494 75.5043 19.3814 73.5055L43.4742 49.8057C41.152 44.3805 42.8937 37.8131 48.6993 34.1011C52.1826 31.8168 56.827 31.5312 60.6005 33.2444C64.3741 34.9577 66.6963 37.5275 67.5671 40.6685H57.4075C55.0853 40.6685 53.0534 42.6673 53.0534 44.9515C53.0534 47.2359 55.0853 49.2346 57.4075 49.2346H67.8574Z" stroke="#00CCF5" stroke-width="3" stroke-miterlimit="10" stroke-linecap="round" stroke-linejoin="round"/>
</svg>
