<svg width="471" height="378" viewBox="0 0 471 378" fill="none" xmlns="http://www.w3.org/2000/svg">
<path d="M471 208.748L213.137 378V370.522L465.297 204.995L471 208.748Z" fill="#D3AAF6"/>
<path d="M0 237.733L213.137 378V370.522L5.70312 233.984L0 237.733Z" fill="#CC9DF5"/>
<path d="M257.863 68.4951L5.70312 234.003L213.137 370.522L465.297 204.995L257.863 68.4951Z" fill="#D3AAF6"/>
<path d="M220.006 364.793V366.011L213.142 370.516L213.076 370.474V364.793H220.006Z" fill="#DBB9F8"/>
<path d="M211.829 359.42V369.652L204.895 365.101V359.42H211.829Z" fill="#DBB9F8"/>
<path d="M203.721 354.099V364.326L196.791 359.775V354.099H203.721Z" fill="#DBB9F8"/>
<path d="M195.33 348.585V358.813L188.4 354.266V348.585H195.33Z" fill="#DBB9F8"/>
<path d="M187.151 343.212V353.44L180.221 348.893V343.212H187.151Z" fill="#DBB9F8"/>
<path d="M179.047 337.891V348.118L172.117 343.567V337.891H179.047Z" fill="#DBB9F8"/>
<path d="M221.602 364.966L221.434 365.073V364.966H221.602Z" fill="#DBB9F8"/>
<path d="M230.001 359.453L223.062 364.005H213.043V359.453H230.001Z" fill="#DBB9F8"/>
<path d="M238.187 354.08L231.249 358.631H204.867V354.08H238.187Z" fill="#DBB9F8"/>
<path d="M196.764 348.753V353.305H232.615V348.753H196.764Z" fill="#DBB9F8"/>
<path d="M257.121 340.411V341.648L250.195 346.2V340.411H257.121Z" fill="#DBB9F8"/>
<path d="M248.949 335.038V347.012L242.02 351.563V335.038H248.949Z" fill="#DBB9F8"/>
<path d="M240.842 329.717V352.334L239.426 353.263H233.912V329.717H240.842Z" fill="#DBB9F8"/>
<path d="M188.369 343.245V347.797H224.221V343.245H188.369Z" fill="#DBB9F8"/>
<path d="M180.191 337.872V342.424H216.043V337.872H180.191Z" fill="#DBB9F8"/>
<path d="M172.088 332.55V337.102H207.94V332.55H172.088Z" fill="#DBB9F8"/>
<path d="M225.521 347.754H232.451V324.203H225.521V347.754Z" fill="#DBB9F8"/>
<path d="M217.34 342.382H224.27V318.831H217.34V342.382Z" fill="#DBB9F8"/>
<path d="M209.24 337.055H216.17V313.504H209.24V337.055Z" fill="#DBB9F8"/>
<path d="M258.768 340.57L258.57 340.701V340.57H258.768Z" fill="#DBB9F8"/>
<path d="M267.166 335.058L260.228 339.609H250.18V335.058H267.166Z" fill="#DBB9F8"/>
<path d="M275.351 329.685L268.413 334.241H242.002V329.685H275.351Z" fill="#DBB9F8"/>
<path d="M233.895 324.363V328.914H269.746V324.363H233.895Z" fill="#DBB9F8"/>
<path d="M294.262 316.021V317.276L287.332 321.823V316.021H294.262Z" fill="#DBB9F8"/>
<path d="M286.08 310.647V322.64L279.15 327.191V310.647H286.08Z" fill="#DBB9F8"/>
<path d="M277.977 305.321V327.962L276.594 328.872H271.047V305.321H277.977Z" fill="#DBB9F8"/>
<path d="M225.508 318.849V323.4H261.36V318.849H225.508Z" fill="#DBB9F8"/>
<path d="M217.326 313.477V318.028H253.178V313.477H217.326Z" fill="#DBB9F8"/>
<path d="M209.219 308.155V312.706H245.07V308.155H209.219Z" fill="#DBB9F8"/>
<path d="M262.656 323.363H269.586V299.813H262.656V323.363Z" fill="#DBB9F8"/>
<path d="M254.474 317.986H261.404V294.436H254.474V317.986Z" fill="#DBB9F8"/>
<path d="M246.373 312.664H253.303V289.113H246.373V312.664Z" fill="#DBB9F8"/>
<path d="M295.92 316.184L295.689 316.338V316.184H295.92Z" fill="#DBB9F8"/>
<path d="M304.318 310.671L297.38 315.227H287.299V310.671H304.318Z" fill="#DBB9F8"/>
<path d="M312.503 305.303L305.565 309.854H279.121V305.303H312.503Z" fill="#DBB9F8"/>
<path d="M271.018 299.981V304.532H306.869V299.981H271.018Z" fill="#DBB9F8"/>
<path d="M331.381 291.635V292.914L324.451 297.461V291.635H331.381Z" fill="#DBB9F8"/>
<path d="M323.203 286.262V298.277L316.273 302.829V286.262H323.203Z" fill="#DBB9F8"/>
<path d="M315.096 280.939V303.598L313.738 304.49H308.166V280.939H315.096Z" fill="#DBB9F8"/>
<path d="M262.623 294.468V299.02H298.475V294.468H262.623Z" fill="#DBB9F8"/>
<path d="M254.447 289.095V293.646H290.299V289.095H254.447Z" fill="#DBB9F8"/>
<path d="M246.344 283.774V288.325H282.195V283.774H246.344Z" fill="#DBB9F8"/>
<path d="M299.775 298.978H306.705V275.427H299.775V298.978Z" fill="#DBB9F8"/>
<path d="M291.599 293.609H298.529V270.059H291.599V293.609Z" fill="#DBB9F8"/>
<path d="M283.496 288.278H290.426V264.728H283.496V288.278Z" fill="#DBB9F8"/>
<path d="M333.118 291.77L332.863 291.938V291.77H333.118Z" fill="#DBB9F8"/>
<path d="M341.515 286.257L334.577 290.813H324.467V286.257H341.515Z" fill="#DBB9F8"/>
<path d="M349.701 280.889L342.763 285.44H316.291V280.889H349.701Z" fill="#DBB9F8"/>
<path d="M308.188 275.562V280.113H344.039V275.562H308.188Z" fill="#DBB9F8"/>
<path d="M299.793 270.054V274.605H335.645V270.054H299.793Z" fill="#DBB9F8"/>
<path d="M291.615 264.681V269.232H327.467V264.681H291.615Z" fill="#DBB9F8"/>
<path d="M283.512 259.359V263.91H319.363V259.359H283.512Z" fill="#DBB9F8"/>
<path d="M170.496 332.275V342.503L163.566 337.952V332.275H170.496Z" fill="#DBB9F8"/>
<path d="M162.389 326.948V337.181L155.459 332.625V326.948H162.389Z" fill="#DBB9F8"/>
<path d="M153.998 321.44V331.668L147.068 327.117V321.44H153.998Z" fill="#DBB9F8"/>
<path d="M163.533 326.93V331.481H199.385V326.93H163.533Z" fill="#DBB9F8"/>
<path d="M155.43 321.609V326.16H191.281V321.609H155.43Z" fill="#DBB9F8"/>
<path d="M200.685 331.439H207.615V307.889H200.685V331.439Z" fill="#DBB9F8"/>
<path d="M192.582 326.113H199.512V302.563H192.582V326.113Z" fill="#DBB9F8"/>
<path d="M147.039 316.095V320.646H182.891V316.095H147.039Z" fill="#DBB9F8"/>
<path d="M184.191 320.604H191.121V297.054H184.191V320.604Z" fill="#DBB9F8"/>
<path d="M200.668 302.535V307.086H236.52V302.535H200.668Z" fill="#DBB9F8"/>
<path d="M192.561 297.213V301.765H228.412V297.213H192.561Z" fill="#DBB9F8"/>
<path d="M237.818 307.044H244.748V283.493H237.818V307.044Z" fill="#DBB9F8"/>
<path d="M229.715 301.723H236.645V278.172H229.715V301.723Z" fill="#DBB9F8"/>
<path d="M184.176 291.7V296.251H220.028V291.7H184.176Z" fill="#DBB9F8"/>
<path d="M221.324 296.214H228.254V272.663H221.324V296.214Z" fill="#DBB9F8"/>
<path d="M237.789 278.153V282.704H273.641V278.153H237.789Z" fill="#DBB9F8"/>
<path d="M229.686 272.831V277.383H265.537V272.831H229.686Z" fill="#DBB9F8"/>
<path d="M274.941 282.667H281.871V259.116H274.941V282.667Z" fill="#DBB9F8"/>
<path d="M266.838 277.336H273.768V253.785H266.838V277.336Z" fill="#DBB9F8"/>
<path d="M221.295 267.319V271.87H257.147V267.319H221.295Z" fill="#DBB9F8"/>
<path d="M258.447 271.828H265.377V248.278H258.447V271.828Z" fill="#DBB9F8"/>
<path d="M274.957 253.739V258.29H310.809V253.739H274.957Z" fill="#DBB9F8"/>
<path d="M266.854 248.417V252.969H302.705V248.417H266.854Z" fill="#DBB9F8"/>
<path d="M258.463 242.904V247.455H294.315V242.904H258.463Z" fill="#DBB9F8"/>
<path d="M368.492 267.258V268.551L361.562 273.102V267.258H368.492Z" fill="#DBB9F8"/>
<path d="M360.311 261.885V273.924L353.381 278.475V261.885H360.311Z" fill="#DBB9F8"/>
<path d="M352.203 256.562V279.245L350.874 280.113H345.277V256.562H352.203Z" fill="#DBB9F8"/>
<path d="M336.883 274.601H343.812V251.05H336.883V274.601Z" fill="#DBB9F8"/>
<path d="M328.711 269.232H335.641V245.682H328.711V269.232Z" fill="#DBB9F8"/>
<path d="M320.603 263.906H327.533V240.356H320.603V263.906Z" fill="#DBB9F8"/>
<path d="M370.226 267.416L369.934 267.603V267.416H370.226Z" fill="#DBB9F8"/>
<path d="M378.624 261.903L371.686 266.455H361.543V261.903H378.624Z" fill="#DBB9F8"/>
<path d="M386.809 256.53L379.87 261.086H353.365V256.53H386.809Z" fill="#DBB9F8"/>
<path d="M345.258 251.213V255.765H381.11V251.213H345.258Z" fill="#DBB9F8"/>
<path d="M405.625 242.867V244.179L398.695 248.73V242.867H405.625Z" fill="#DBB9F8"/>
<path d="M397.447 237.494V249.547L390.518 254.099V237.494H397.447Z" fill="#DBB9F8"/>
<path d="M389.344 232.167V254.868L388.044 255.722H382.41V232.167H389.344Z" fill="#DBB9F8"/>
<path d="M336.871 245.701V250.252H372.723V245.701H336.871Z" fill="#DBB9F8"/>
<path d="M328.693 240.328V244.879H364.545V240.328H328.693Z" fill="#DBB9F8"/>
<path d="M320.586 235.001V239.553H356.438V235.001H320.586Z" fill="#DBB9F8"/>
<path d="M374.019 250.205H380.949V226.654H374.019V250.205Z" fill="#DBB9F8"/>
<path d="M365.845 244.837H372.775V221.286H365.845V244.837Z" fill="#DBB9F8"/>
<path d="M357.738 239.515H364.668V215.964H357.738V239.515Z" fill="#DBB9F8"/>
<path d="M415.767 237.521L408.833 242.078H398.666V237.521H415.767Z" fill="#DBB9F8"/>
<path d="M423.952 232.153L417.022 236.7H390.488V232.153H423.952Z" fill="#DBB9F8"/>
<path d="M382.381 226.828V231.379H418.233V226.828H382.381Z" fill="#DBB9F8"/>
<path d="M442.748 218.48V219.816L435.814 224.367V218.48H442.748Z" fill="#DBB9F8"/>
<path d="M434.567 213.107V225.184L427.637 229.735V213.107H434.567Z" fill="#DBB9F8"/>
<path d="M426.463 230.506V207.786H419.533V231.337H425.195L426.463 230.506Z" fill="#DBB9F8"/>
<path d="M373.99 221.314V225.865H409.842V221.314H373.99Z" fill="#DBB9F8"/>
<path d="M365.812 215.946V220.497H401.664V215.946H365.812Z" fill="#DBB9F8"/>
<path d="M357.705 210.619V215.171H393.557V210.619H357.705Z" fill="#DBB9F8"/>
<path d="M411.142 225.823H418.072V202.273H411.142V225.823Z" fill="#DBB9F8"/>
<path d="M402.961 220.455H409.891V196.904H402.961V220.455Z" fill="#DBB9F8"/>
<path d="M394.859 215.129H401.789V191.578H394.859V215.129Z" fill="#DBB9F8"/>
<path d="M452.964 213.107L446.038 217.659H435.834V213.107H452.964Z" fill="#DBB9F8"/>
<path d="M461.159 207.734L454.221 212.286H427.658V207.734H461.159Z" fill="#DBB9F8"/>
<path d="M419.551 202.409V206.96H455.403V202.409H419.551Z" fill="#DBB9F8"/>
<path d="M465.297 205.013L464.805 205.339V204.69L465.297 205.013Z" fill="#DBB9F8"/>
<path d="M463.629 203.916V206.11L462.394 206.922H456.703V199.355L463.629 203.916Z" fill="#DBB9F8"/>
<path d="M411.16 196.9V201.451H447.012V196.9H411.16Z" fill="#DBB9F8"/>
<path d="M402.982 191.532V196.083H438.834V191.532H402.982Z" fill="#DBB9F8"/>
<path d="M394.879 186.205V190.757H430.731V186.205H394.879Z" fill="#DBB9F8"/>
<path d="M455.242 198.394V201.409H448.312V193.833L455.242 198.394Z" fill="#DBB9F8"/>
<path d="M447.061 193.011V196.036H440.135V188.45L447.061 193.011Z" fill="#DBB9F8"/>
<path d="M438.957 187.676V190.715H432.027V183.115L438.957 187.676Z" fill="#DBB9F8"/>
<path d="M312.053 258.29H318.982V234.739H312.053V258.29Z" fill="#DBB9F8"/>
<path d="M303.945 252.964H310.875V229.413H303.945V252.964Z" fill="#DBB9F8"/>
<path d="M295.554 247.451H302.484V223.901H295.554V247.451Z" fill="#DBB9F8"/>
<path d="M312.035 229.385V233.937H347.887V229.385H312.035Z" fill="#DBB9F8"/>
<path d="M303.928 224.059V228.61H339.779V224.059H303.928Z" fill="#DBB9F8"/>
<path d="M349.187 233.895H356.117V210.344H349.187V233.895Z" fill="#DBB9F8"/>
<path d="M341.08 228.573H348.01V205.023H341.08V228.573Z" fill="#DBB9F8"/>
<path d="M295.537 218.546V223.098H331.389V218.546H295.537Z" fill="#DBB9F8"/>
<path d="M332.689 223.056H339.619V199.505H332.689V223.056Z" fill="#DBB9F8"/>
<path d="M349.156 204.999V209.551H385.008V204.999H349.156Z" fill="#DBB9F8"/>
<path d="M341.053 199.677V204.229H376.904V199.677H341.053Z" fill="#DBB9F8"/>
<path d="M386.304 209.513H393.234V185.962H386.304V209.513Z" fill="#DBB9F8"/>
<path d="M378.201 204.187H385.131V180.636H378.201V204.187Z" fill="#DBB9F8"/>
<path d="M332.658 194.164V198.716H368.51V194.164H332.658Z" fill="#DBB9F8"/>
<path d="M369.81 198.674H376.74V175.123H369.81V198.674Z" fill="#DBB9F8"/>
<path d="M386.324 180.584V185.136H422.176V180.584H386.324Z" fill="#DBB9F8"/>
<path d="M378.221 175.263V179.814H414.072V175.263H378.221Z" fill="#DBB9F8"/>
<path d="M430.406 182.051V185.099H423.477V177.49L430.406 182.051Z" fill="#DBB9F8"/>
<path d="M422.299 176.715V179.768H415.369V172.154L422.299 176.715Z" fill="#DBB9F8"/>
<path d="M369.826 169.75V174.302H405.678V169.75H369.826Z" fill="#DBB9F8"/>
<path d="M413.908 171.188V174.26H406.979V166.632L413.908 171.188Z" fill="#DBB9F8"/>
<path d="M153.678 321.226V331.453L146.748 326.902V321.226H153.678Z" fill="#DBB9F8"/>
<path d="M145.571 315.899V326.127L138.641 321.576V315.899H145.571Z" fill="#DBB9F8"/>
<path d="M137.18 310.392V320.615L130.25 316.068V310.392H137.18Z" fill="#DBB9F8"/>
<path d="M129.002 305.019V315.246L122.072 310.695V305.019H129.002Z" fill="#DBB9F8"/>
<path d="M113.965 305.368V299.691H120.895V309.919L113.965 305.368Z" fill="#DBB9F8"/>
<path d="M112.656 294.281V304.504L105.727 299.958V294.281H112.656Z" fill="#DBB9F8"/>
<path d="M104.479 288.908V299.136L97.5449 294.585V288.908H104.479Z" fill="#DBB9F8"/>
<path d="M96.3713 283.587V293.81L89.4414 289.259V283.587H96.3713Z" fill="#DBB9F8"/>
<path d="M87.9807 278.069V288.297L81.0508 283.75V278.069H87.9807Z" fill="#DBB9F8"/>
<path d="M79.8032 272.701V282.929L72.8691 278.378V272.701H79.8032Z" fill="#DBB9F8"/>
<path d="M71.6955 267.379V277.607L64.7656 273.051V267.379H71.6955Z" fill="#DBB9F8"/>
<path d="M63.3049 261.866V272.094L56.375 267.543V261.866H63.3049Z" fill="#DBB9F8"/>
<path d="M55.1291 256.493V266.721L48.1992 262.17V256.493H55.1291Z" fill="#DBB9F8"/>
<path d="M47.0215 251.172V261.4L40.0957 256.844V251.172H47.0215Z" fill="#DBB9F8"/>
<path d="M138.611 310.559V315.11H174.463V310.559H138.611Z" fill="#DBB9F8"/>
<path d="M175.76 315.073H182.689V291.523H175.76V315.073Z" fill="#DBB9F8"/>
<path d="M130.221 305.046V309.598H166.072V305.046H130.221Z" fill="#DBB9F8"/>
<path d="M122.043 299.678V304.229H157.895V299.678H122.043Z" fill="#DBB9F8"/>
<path d="M113.936 294.352V298.903H149.787V294.352H113.936Z" fill="#DBB9F8"/>
<path d="M167.369 309.556H174.299V286.005H167.369V309.556Z" fill="#DBB9F8"/>
<path d="M159.195 304.188H166.125V280.637H159.195V304.188Z" fill="#DBB9F8"/>
<path d="M151.088 298.861H158.018V275.311H151.088V298.861Z" fill="#DBB9F8"/>
<path d="M105.697 288.937V293.488H141.549V288.937H105.697Z" fill="#DBB9F8"/>
<path d="M97.5156 283.564V288.115H133.367V283.564H97.5156Z" fill="#DBB9F8"/>
<path d="M89.4082 278.242V282.793H125.26V278.242H89.4082Z" fill="#DBB9F8"/>
<path d="M142.845 293.45H149.775V269.9H142.845V293.45Z" fill="#DBB9F8"/>
<path d="M134.664 288.073H141.594V264.523H134.664V288.073Z" fill="#DBB9F8"/>
<path d="M126.564 282.751H133.494V259.2H126.564V282.751Z" fill="#DBB9F8"/>
<path d="M81.0215 272.729V277.28H116.873V272.729H81.0215Z" fill="#DBB9F8"/>
<path d="M72.8457 267.356V271.907H108.697V267.356H72.8457Z" fill="#DBB9F8"/>
<path d="M64.7383 262.035V266.586H100.59V262.035H64.7383Z" fill="#DBB9F8"/>
<path d="M118.174 277.243H125.104V253.693H118.174V277.243Z" fill="#DBB9F8"/>
<path d="M109.994 271.865H116.924V248.315H109.994V271.865Z" fill="#DBB9F8"/>
<path d="M101.886 266.544H108.816V242.993H101.886V266.544Z" fill="#DBB9F8"/>
<path d="M56.3418 256.526V261.077H92.1935V256.526H56.3418Z" fill="#DBB9F8"/>
<path d="M48.1699 251.153V255.704H84.0216V251.153H48.1699Z" fill="#DBB9F8"/>
<path d="M40.0625 245.827V250.378H75.9142V245.827H40.0625Z" fill="#DBB9F8"/>
<path d="M93.4959 261.035H100.426V237.485H93.4959V261.035Z" fill="#DBB9F8"/>
<path d="M85.322 255.657H92.252V232.107H85.322V255.657Z" fill="#DBB9F8"/>
<path d="M77.2146 250.336H84.1445V226.785H77.2146V250.336Z" fill="#DBB9F8"/>
<path d="M175.748 286.168V290.72H211.6V286.168H175.748Z" fill="#DBB9F8"/>
<path d="M212.9 290.678H219.83V267.127H212.9V290.678Z" fill="#DBB9F8"/>
<path d="M167.357 280.656V285.207H203.209V280.656H167.357Z" fill="#DBB9F8"/>
<path d="M159.176 275.283V279.834H195.028V275.283H159.176Z" fill="#DBB9F8"/>
<path d="M151.072 269.956V274.508H186.924V269.956H151.072Z" fill="#DBB9F8"/>
<path d="M204.51 285.165H211.439V261.614H204.51V285.165Z" fill="#DBB9F8"/>
<path d="M196.328 279.797H203.258V256.246H196.328V279.797Z" fill="#DBB9F8"/>
<path d="M188.22 274.466H195.15V250.915H188.22V274.466Z" fill="#DBB9F8"/>
<path d="M142.83 264.545V269.097H178.682V264.545H142.83Z" fill="#DBB9F8"/>
<path d="M134.652 259.172V263.724H170.504V259.172H134.652Z" fill="#DBB9F8"/>
<path d="M126.549 253.846V258.397H162.401V253.846H126.549Z" fill="#DBB9F8"/>
<path d="M179.982 269.055H186.912V245.504H179.982V269.055Z" fill="#DBB9F8"/>
<path d="M171.801 263.682H178.73V240.131H171.801V263.682Z" fill="#DBB9F8"/>
<path d="M163.697 258.355H170.627V234.805H163.697V258.355Z" fill="#DBB9F8"/>
<path d="M118.154 248.338V252.89H154.006V248.338H118.154Z" fill="#DBB9F8"/>
<path d="M109.977 242.965V247.517H145.828V242.965H109.977Z" fill="#DBB9F8"/>
<path d="M101.873 237.644V242.195H137.725V237.644H101.873Z" fill="#DBB9F8"/>
<path d="M155.306 252.848H162.236V229.297H155.306V252.848Z" fill="#DBB9F8"/>
<path d="M147.129 247.475H154.059V223.924H147.129V247.475Z" fill="#DBB9F8"/>
<path d="M139.025 242.152H145.955V218.602H139.025V242.152Z" fill="#DBB9F8"/>
<path d="M93.4824 232.13V236.682H129.334V232.13H93.4824Z" fill="#DBB9F8"/>
<path d="M85.3008 226.757V231.309H121.153V226.757H85.3008Z" fill="#DBB9F8"/>
<path d="M77.1973 221.431V225.982H113.049V221.431H77.1973Z" fill="#DBB9F8"/>
<path d="M130.635 236.64H137.564V213.089H130.635V236.64Z" fill="#DBB9F8"/>
<path d="M122.459 231.267H129.389V207.716H122.459V231.267Z" fill="#DBB9F8"/>
<path d="M114.345 225.945H121.275V202.395H114.345V225.945Z" fill="#DBB9F8"/>
<path d="M212.867 261.783V266.334H248.719V261.783H212.867Z" fill="#DBB9F8"/>
<path d="M250.015 266.296H256.945V242.745H250.015V266.296Z" fill="#DBB9F8"/>
<path d="M204.477 256.269V260.82H240.328V256.269H204.477Z" fill="#DBB9F8"/>
<path d="M196.299 250.901V255.452H232.151V250.901H196.299Z" fill="#DBB9F8"/>
<path d="M188.191 245.575V250.126H224.043V245.575H188.191Z" fill="#DBB9F8"/>
<path d="M241.625 260.778H248.555V237.228H241.625V260.778Z" fill="#DBB9F8"/>
<path d="M233.451 255.41H240.381V231.86H233.451V255.41Z" fill="#DBB9F8"/>
<path d="M225.344 250.089H232.273V226.538H225.344V250.089Z" fill="#DBB9F8"/>
<path d="M179.953 240.16V244.711H215.805V240.16H179.953Z" fill="#DBB9F8"/>
<path d="M171.771 234.786V239.338H207.623V234.786H171.771Z" fill="#DBB9F8"/>
<path d="M163.664 229.465V234.017H199.516V229.465H163.664Z" fill="#DBB9F8"/>
<path d="M217.101 244.674H224.031V221.123H217.101V244.674Z" fill="#DBB9F8"/>
<path d="M208.924 239.296H215.854V215.745H208.924V239.296Z" fill="#DBB9F8"/>
<path d="M200.82 233.975H207.75V210.424H200.82V233.975Z" fill="#DBB9F8"/>
<path d="M155.277 223.956V228.508H191.129V223.956H155.277Z" fill="#DBB9F8"/>
<path d="M147.1 218.583V223.135H182.951V218.583H147.1Z" fill="#DBB9F8"/>
<path d="M138.992 213.257V217.809H174.844V213.257H138.992Z" fill="#DBB9F8"/>
<path d="M192.429 228.466H199.359V204.915H192.429V228.466Z" fill="#DBB9F8"/>
<path d="M184.248 223.088H191.178V199.537H184.248V223.088Z" fill="#DBB9F8"/>
<path d="M176.14 217.767H183.07V194.216H176.14V217.767Z" fill="#DBB9F8"/>
<path d="M130.602 207.744V212.296H166.453V207.744H130.602Z" fill="#DBB9F8"/>
<path d="M122.426 202.376V206.928H158.278V202.376H122.426Z" fill="#DBB9F8"/>
<path d="M114.318 197.049V201.601H150.17V197.049H114.318Z" fill="#DBB9F8"/>
<path d="M167.75 212.258H174.68V188.707H167.75V212.258Z" fill="#DBB9F8"/>
<path d="M159.578 206.881H166.508V183.33H159.578V206.881Z" fill="#DBB9F8"/>
<path d="M151.47 201.559H158.4V178.008H151.47V201.559Z" fill="#DBB9F8"/>
<path d="M250.035 237.368V241.919H285.887V237.368H250.035Z" fill="#DBB9F8"/>
<path d="M241.645 231.855V236.406H277.496V231.855H241.645Z" fill="#DBB9F8"/>
<path d="M233.467 226.487V231.038H269.319V226.487H233.467Z" fill="#DBB9F8"/>
<path d="M225.359 221.161V225.712H261.211V221.161H225.359Z" fill="#DBB9F8"/>
<path d="M217.117 215.745V220.297H252.969V215.745H217.117Z" fill="#DBB9F8"/>
<path d="M208.943 210.372V214.924H244.795V210.372H208.943Z" fill="#DBB9F8"/>
<path d="M200.836 205.051V209.603H236.688V205.051H200.836Z" fill="#DBB9F8"/>
<path d="M192.441 199.537V204.089H228.293V199.537H192.441Z" fill="#DBB9F8"/>
<path d="M184.27 194.164V198.716H220.121V194.164H184.27Z" fill="#DBB9F8"/>
<path d="M176.162 188.838V193.39H212.014V188.838H176.162Z" fill="#DBB9F8"/>
<path d="M167.771 183.33V187.882H203.623V183.33H167.771Z" fill="#DBB9F8"/>
<path d="M159.594 177.961V182.513H195.445V177.961H159.594Z" fill="#DBB9F8"/>
<path d="M151.486 172.635V177.187H187.338V172.635H151.486Z" fill="#DBB9F8"/>
<path d="M38.4709 245.551V255.779L31.541 251.227V245.551H38.4709Z" fill="#DBB9F8"/>
<path d="M30.3676 240.225V250.457L23.4336 245.906V240.225H30.3676Z" fill="#DBB9F8"/>
<path d="M21.9729 234.717V244.945L15.043 240.393V234.717H21.9729Z" fill="#DBB9F8"/>
<path d="M13.7991 229.344V239.576L6.86914 235.025V233.237L12.7897 229.344H13.7991Z" fill="#DBB9F8"/>
<path d="M31.5117 240.211V244.763H67.3634V240.211H31.5117Z" fill="#DBB9F8"/>
<path d="M23.4043 234.884V239.436H59.256V234.884H23.4043Z" fill="#DBB9F8"/>
<path d="M68.6638 244.716H75.5938V221.165H68.6638V244.716Z" fill="#DBB9F8"/>
<path d="M60.5564 239.394H67.4863V215.843H60.5564V239.394Z" fill="#DBB9F8"/>
<path d="M15.0137 229.371V233.923H50.8654V229.371H15.0137Z" fill="#DBB9F8"/>
<path d="M42.6881 223.998V228.554H13.9961L14.3859 228.297L20.9342 223.998H42.6881Z" fill="#DBB9F8"/>
<path d="M34.5841 218.672V223.228H22.1152L29.0492 218.672H34.5841Z" fill="#DBB9F8"/>
<path d="M52.1658 233.886H59.0957V210.335H52.1658V233.886Z" fill="#DBB9F8"/>
<path d="M50.9182 204.957V228.508H43.9883V208.869L49.9458 204.957H50.9182Z" fill="#DBB9F8"/>
<path d="M42.8108 209.645V223.182H35.8809V214.191L42.8108 209.645Z" fill="#DBB9F8"/>
<path d="M68.6426 215.816V220.367H104.494V215.816H68.6426Z" fill="#DBB9F8"/>
<path d="M60.5391 210.489V215.04H96.3908V210.489H60.5391Z" fill="#DBB9F8"/>
<path d="M105.797 220.325H112.727V196.775H105.797V220.325Z" fill="#DBB9F8"/>
<path d="M97.6892 215.003H104.619V191.452H97.6892V215.003Z" fill="#DBB9F8"/>
<path d="M52.1504 204.976V209.527H88.0021V204.976H52.1504Z" fill="#DBB9F8"/>
<path d="M79.8276 199.603V204.163H51.1602L58.1024 199.603H79.8276Z" fill="#DBB9F8"/>
<path d="M71.7214 194.281V198.833H59.2812L66.2153 194.281H71.7214Z" fill="#DBB9F8"/>
<path d="M89.2986 209.49H96.2285V185.94H89.2986V209.49Z" fill="#DBB9F8"/>
<path d="M88.0508 180.566V204.117H81.125V184.497L87.1112 180.566H88.0508Z" fill="#DBB9F8"/>
<path d="M79.9477 185.268V198.791H73.0137V189.819L79.9477 185.268Z" fill="#DBB9F8"/>
<path d="M105.768 191.434V195.985H141.619V191.434H105.768Z" fill="#DBB9F8"/>
<path d="M97.6602 186.108V190.659H133.512V186.108H97.6602Z" fill="#DBB9F8"/>
<path d="M142.92 195.938H149.85V172.388H142.92V195.938Z" fill="#DBB9F8"/>
<path d="M134.812 190.617H141.742V167.067H134.812V190.617Z" fill="#DBB9F8"/>
<path d="M89.2695 180.594V185.146H125.121V180.594H89.2695Z" fill="#DBB9F8"/>
<path d="M116.943 175.222V179.773H88.3203L95.2543 175.222H116.943Z" fill="#DBB9F8"/>
<path d="M108.837 169.899V174.446H96.4336L103.364 169.899H108.837Z" fill="#DBB9F8"/>
<path d="M126.422 185.108H133.352V161.558H126.422V185.108Z" fill="#DBB9F8"/>
<path d="M125.174 156.181V179.731H118.244V160.13L124.263 156.181H125.174Z" fill="#DBB9F8"/>
<path d="M117.067 160.904V174.409H110.137V165.456L117.067 160.904Z" fill="#DBB9F8"/>
<path d="M142.936 167.02V171.571H178.787V167.02H142.936Z" fill="#DBB9F8"/>
<path d="M134.828 161.694V166.245H170.68V161.694H134.828Z" fill="#DBB9F8"/>
<path d="M126.438 156.18V160.731H162.289V156.18H126.438Z" fill="#DBB9F8"/>
<path d="M154.117 150.812V155.358H125.52L132.449 150.812H154.117Z" fill="#DBB9F8"/>
<path d="M146.01 145.485V150.037H133.623L140.561 145.485H146.01Z" fill="#DBB9F8"/>
<path d="M34.5841 215.04V217.822H30.3457L34.5841 215.04Z" fill="#DBB9F8"/>
<path d="M71.7216 190.668V193.431H67.5078L71.7216 190.668Z" fill="#DBB9F8"/>
<path d="M108.837 166.306V169.046H104.664L108.837 166.306Z" fill="#DBB9F8"/>
<path d="M287.131 241.919H294.061V218.368H287.131V241.919Z" fill="#DBB9F8"/>
<path d="M278.74 236.401H285.67V212.851H278.74V236.401Z" fill="#DBB9F8"/>
<path d="M270.558 231.033H277.488V207.483H270.558V231.033Z" fill="#DBB9F8"/>
<path d="M262.451 225.712H269.381V202.161H262.451V225.712Z" fill="#DBB9F8"/>
<path d="M254.209 220.292H261.139V196.741H254.209V220.292Z" fill="#DBB9F8"/>
<path d="M246.035 214.924H252.965V191.373H246.035V214.924Z" fill="#DBB9F8"/>
<path d="M237.928 209.598H244.857V186.047H237.928V209.598Z" fill="#DBB9F8"/>
<path d="M229.537 204.089H236.467V180.538H229.537V204.089Z" fill="#DBB9F8"/>
<path d="M221.355 198.711H228.285V175.16H221.355V198.711Z" fill="#DBB9F8"/>
<path d="M213.256 193.39H220.186V169.839H213.256V193.39Z" fill="#DBB9F8"/>
<path d="M204.861 187.882H211.791V164.331H204.861V187.882Z" fill="#DBB9F8"/>
<path d="M196.685 182.504H203.615V158.953H196.685V182.504Z" fill="#DBB9F8"/>
<path d="M188.582 177.182H195.512V153.631H188.582V177.182Z" fill="#DBB9F8"/>
<path d="M287.109 213.014V217.565H322.961V213.014H287.109Z" fill="#DBB9F8"/>
<path d="M324.261 217.523H331.191V193.973H324.261V217.523Z" fill="#DBB9F8"/>
<path d="M278.719 207.501V212.053H314.57V207.501H278.719Z" fill="#DBB9F8"/>
<path d="M270.547 202.128V206.68H306.399V202.128H270.547Z" fill="#DBB9F8"/>
<path d="M262.439 196.807V201.358H298.291V196.807H262.439Z" fill="#DBB9F8"/>
<path d="M315.871 212.011H322.801V188.46H315.871V212.011Z" fill="#DBB9F8"/>
<path d="M307.695 206.643H314.625V183.092H307.695V206.643Z" fill="#DBB9F8"/>
<path d="M299.592 201.316H306.521V177.766H299.592V201.316Z" fill="#DBB9F8"/>
<path d="M254.195 191.392V195.943H290.047V191.392H254.195Z" fill="#DBB9F8"/>
<path d="M246.016 186.019V190.57H281.867V186.019H246.016Z" fill="#DBB9F8"/>
<path d="M237.912 180.693V185.244H273.764V180.693H237.912Z" fill="#DBB9F8"/>
<path d="M291.344 195.901H298.273V172.351H291.344V195.901Z" fill="#DBB9F8"/>
<path d="M283.172 190.528H290.102V166.978H283.172V190.528Z" fill="#DBB9F8"/>
<path d="M275.064 185.202H281.994V161.652H275.064V185.202Z" fill="#DBB9F8"/>
<path d="M229.521 175.184V179.735H265.373V175.184H229.521Z" fill="#DBB9F8"/>
<path d="M221.344 169.811V174.362H257.195V169.811H221.344Z" fill="#DBB9F8"/>
<path d="M213.24 164.49V169.041H249.092V164.49H213.24Z" fill="#DBB9F8"/>
<path d="M266.674 179.693H273.604V156.143H266.674V179.693Z" fill="#DBB9F8"/>
<path d="M258.492 174.32H265.422V150.77H258.492V174.32Z" fill="#DBB9F8"/>
<path d="M250.388 168.994H257.318V145.444H250.388V168.994Z" fill="#DBB9F8"/>
<path d="M204.846 158.977V163.528H240.697V158.977H204.846Z" fill="#DBB9F8"/>
<path d="M196.668 153.604V158.155H232.52V153.604H196.668Z" fill="#DBB9F8"/>
<path d="M188.564 148.282V152.833H224.416V148.282H188.564Z" fill="#DBB9F8"/>
<path d="M241.998 163.486H248.928V139.936H241.998V163.486Z" fill="#DBB9F8"/>
<path d="M233.82 158.113H240.75V134.563H233.82V158.113Z" fill="#DBB9F8"/>
<path d="M225.717 152.786H232.646V129.236H225.717V152.786Z" fill="#DBB9F8"/>
<path d="M324.234 188.633V193.185H360.086V188.633H324.234Z" fill="#DBB9F8"/>
<path d="M361.387 193.143H368.316V169.592H361.387V193.143Z" fill="#DBB9F8"/>
<path d="M315.844 183.119V187.671H351.695V183.119H315.844Z" fill="#DBB9F8"/>
<path d="M307.662 177.746V182.298H343.514V177.746H307.662Z" fill="#DBB9F8"/>
<path d="M299.559 172.42V176.972H335.41V172.42H299.559Z" fill="#DBB9F8"/>
<path d="M352.996 187.629H359.926V164.078H352.996V187.629Z" fill="#DBB9F8"/>
<path d="M344.814 182.256H351.744V158.705H344.814V182.256Z" fill="#DBB9F8"/>
<path d="M336.707 176.935H343.637V153.384H336.707V176.935Z" fill="#DBB9F8"/>
<path d="M291.316 167.005V171.557H327.168V167.005H291.316Z" fill="#DBB9F8"/>
<path d="M283.139 161.637V166.188H318.99V161.637H283.139Z" fill="#DBB9F8"/>
<path d="M275.031 156.311V160.862H310.883V156.311H275.031Z" fill="#DBB9F8"/>
<path d="M328.469 171.515H335.398V147.964H328.469V171.515Z" fill="#DBB9F8"/>
<path d="M320.287 166.146H327.217V142.596H320.287V166.146Z" fill="#DBB9F8"/>
<path d="M312.183 160.825H319.113V137.275H312.183V160.825Z" fill="#DBB9F8"/>
<path d="M266.645 150.798V155.35H302.496V150.798H266.645Z" fill="#DBB9F8"/>
<path d="M258.463 145.425V149.977H294.315V145.425H258.463Z" fill="#DBB9F8"/>
<path d="M250.355 140.103V144.654H286.207V140.103H250.355Z" fill="#DBB9F8"/>
<path d="M303.793 155.308H310.723V131.757H303.793V155.308Z" fill="#DBB9F8"/>
<path d="M295.615 149.939H302.545V126.389H295.615V149.939Z" fill="#DBB9F8"/>
<path d="M287.511 144.612H294.441V121.062H287.511V144.612Z" fill="#DBB9F8"/>
<path d="M241.969 134.595V139.146H277.82V134.595H241.969Z" fill="#DBB9F8"/>
<path d="M233.791 129.222V133.773H269.643V129.222H233.791Z" fill="#DBB9F8"/>
<path d="M225.684 123.896V128.447H261.535V123.896H225.684Z" fill="#DBB9F8"/>
<path d="M279.121 139.1H286.051V115.549H279.121V139.1Z" fill="#DBB9F8"/>
<path d="M270.941 133.727H277.871V110.176H270.941V133.727Z" fill="#DBB9F8"/>
<path d="M262.832 128.405H269.762V104.855H262.832V128.405Z" fill="#DBB9F8"/>
<path d="M361.398 164.214V168.766H397.25V164.214H361.398Z" fill="#DBB9F8"/>
<path d="M405.481 165.648V168.724H398.551V161.087L405.481 165.648Z" fill="#DBB9F8"/>
<path d="M353.012 158.705V163.257H388.863V158.705H353.012Z" fill="#DBB9F8"/>
<path d="M344.834 153.332V157.884H380.686V153.332H344.834Z" fill="#DBB9F8"/>
<path d="M336.727 148.006V152.558H372.578V148.006H336.727Z" fill="#DBB9F8"/>
<path d="M397.09 160.125V163.211H390.16V155.564L397.09 160.125Z" fill="#DBB9F8"/>
<path d="M388.912 154.742V157.842H381.982V150.182L388.912 154.742Z" fill="#DBB9F8"/>
<path d="M380.809 149.406V152.515H373.879V144.846L380.809 149.406Z" fill="#DBB9F8"/>
<path d="M328.488 142.591V147.143H364.34V142.591H328.488Z" fill="#DBB9F8"/>
<path d="M320.307 137.223V141.774H356.158V137.223H320.307Z" fill="#DBB9F8"/>
<path d="M312.199 131.897V136.448H348.051V131.897H312.199Z" fill="#DBB9F8"/>
<path d="M372.567 143.983V147.106H365.637V139.422L372.567 143.983Z" fill="#DBB9F8"/>
<path d="M364.389 138.6V141.727H357.459V134.039L364.389 138.6Z" fill="#DBB9F8"/>
<path d="M356.281 133.27V136.406H349.352V128.704L356.281 133.27Z" fill="#DBB9F8"/>
<path d="M303.812 126.384V130.936H339.664V126.384H303.812Z" fill="#DBB9F8"/>
<path d="M295.631 121.011V125.562H331.483V121.011H295.631Z" fill="#DBB9F8"/>
<path d="M287.529 115.689V120.24H323.381V115.689H287.529Z" fill="#DBB9F8"/>
<path d="M347.891 127.747V130.898H340.961V123.187L347.891 127.747Z" fill="#DBB9F8"/>
<path d="M339.709 122.36V125.525H332.779V117.799L339.709 122.36Z" fill="#DBB9F8"/>
<path d="M331.612 117.029V120.198H324.682V112.468L331.612 117.029Z" fill="#DBB9F8"/>
<path d="M279.133 110.176V114.728H314.985V110.176H279.133Z" fill="#DBB9F8"/>
<path d="M270.961 104.803V109.354H306.813V104.803H270.961Z" fill="#DBB9F8"/>
<path d="M262.854 99.4769V104.028H298.705V99.4769H262.854Z" fill="#DBB9F8"/>
<path d="M323.221 111.506V114.685H316.291V106.945L323.221 111.506Z" fill="#DBB9F8"/>
<path d="M315.039 106.119V109.317H308.109V101.559L315.039 106.119Z" fill="#DBB9F8"/>
<path d="M306.932 100.788V103.991H300.002V96.2275L306.932 100.788Z" fill="#DBB9F8"/>
<path d="M180.027 171.562H186.957V148.011H180.027V171.562Z" fill="#DBB9F8"/>
<path d="M171.92 166.24H178.85V142.69H171.92V166.24Z" fill="#DBB9F8"/>
<path d="M163.529 160.731H170.459V137.181H163.529V160.731Z" fill="#DBB9F8"/>
<path d="M162.281 131.804V155.359H155.352V135.776L161.403 131.804H162.281Z" fill="#DBB9F8"/>
<path d="M154.178 136.546V150.027H147.248V141.093L154.178 136.546Z" fill="#DBB9F8"/>
<path d="M180.01 142.661V147.213H215.861V142.661H180.01Z" fill="#DBB9F8"/>
<path d="M171.906 137.34V141.892H207.758V137.34H171.906Z" fill="#DBB9F8"/>
<path d="M217.162 147.171H224.092V123.62H217.162V147.171Z" fill="#DBB9F8"/>
<path d="M209.058 141.845H215.988V118.294H209.058V141.845Z" fill="#DBB9F8"/>
<path d="M163.516 131.827V136.378H199.367V131.827H163.516Z" fill="#DBB9F8"/>
<path d="M191.19 126.454V131.01H162.617L169.555 126.454H191.19Z" fill="#DBB9F8"/>
<path d="M183.087 121.127V125.683H170.729L177.675 121.127H183.087Z" fill="#DBB9F8"/>
<path d="M200.668 136.336H207.598V112.785H200.668V136.336Z" fill="#DBB9F8"/>
<path d="M199.422 107.412V130.963H192.492V111.403L198.569 107.412H199.422Z" fill="#DBB9F8"/>
<path d="M191.313 112.174V125.641H184.379V116.725L191.313 112.174Z" fill="#DBB9F8"/>
<path d="M217.135 118.28V122.831H252.986V118.28H217.135Z" fill="#DBB9F8"/>
<path d="M209.027 112.953V117.505H244.879V112.953H209.027Z" fill="#DBB9F8"/>
<path d="M254.283 122.784H261.213V99.2336H254.283V122.784Z" fill="#DBB9F8"/>
<path d="M246.176 117.463H253.105V93.9123H246.176V117.463Z" fill="#DBB9F8"/>
<path d="M200.637 107.441V111.992H236.488V107.441H200.637Z" fill="#DBB9F8"/>
<path d="M228.314 102.072V106.624H199.77L206.708 102.072H228.314Z" fill="#DBB9F8"/>
<path d="M220.204 96.7461V101.293H207.891L214.821 96.7461H220.204Z" fill="#DBB9F8"/>
<path d="M237.785 111.955H244.715V88.4045H237.785V111.955Z" fill="#DBB9F8"/>
<path d="M236.537 83.0264V106.582H229.611V87.0409L235.725 83.0264H236.537Z" fill="#DBB9F8"/>
<path d="M228.434 87.8115V101.256H221.504V92.3629L228.434 87.8115Z" fill="#DBB9F8"/>
<path d="M254.303 93.8607V98.4121H290.154V93.8607H254.303Z" fill="#DBB9F8"/>
<path d="M246.195 88.5345V93.0859H282.047V88.5345H246.195Z" fill="#DBB9F8"/>
<path d="M298.385 95.1584V98.3747H291.455V90.5977L298.385 95.1584Z" fill="#DBB9F8"/>
<path d="M290.274 89.8227V93.0437H283.344V85.2666L290.274 89.8227Z" fill="#DBB9F8"/>
<path d="M237.805 83.0267V87.5781H273.656V83.0267H237.805Z" fill="#DBB9F8"/>
<path d="M265.48 77.6582V82.2049H236.977L243.911 77.6582H265.48Z" fill="#DBB9F8"/>
<path d="M257.372 72.332V76.8834H245.084L252.022 72.332H257.372Z" fill="#DBB9F8"/>
<path d="M145.947 141.947V144.669H141.803L145.947 141.947Z" fill="#DBB9F8"/>
<path d="M183.088 117.575V120.278H178.969L183.088 117.575Z" fill="#DBB9F8"/>
<path d="M220.204 93.2119V95.8914H216.121L220.204 93.2119Z" fill="#DBB9F8"/>
<path d="M257.372 68.8213V71.4821H253.314L257.372 68.8213Z" fill="#DBB9F8"/>
<path d="M281.887 84.3059V87.5362H274.957V79.7451L281.887 84.3059Z" fill="#DBB9F8"/>
<path d="M273.709 78.9182V82.1672H266.775V74.3574L273.709 78.9182Z" fill="#DBB9F8"/>
<path d="M265.602 73.5871V76.8408H258.672V69.0264L265.602 73.5871Z" fill="#DBB9F8"/>
<path opacity="0.08" d="M152.437 191.312C162.058 197.633 162.153 210.064 152.531 216.38C142.91 222.701 113.844 223.662 104.223 217.347C94.6015 211.026 99.0245 200.308 108.646 193.987C118.267 187.667 142.815 184.992 152.437 191.312Z" fill="black"/>
<path d="M113.456 152.366L108.184 198.039C108.184 198.221 108.29 198.398 108.5 198.538C108.918 198.814 109.599 198.814 110.022 198.538C110.198 198.422 110.301 198.277 110.329 198.128C110.334 198.1 118.539 154.434 118.539 154.434L113.46 152.371L113.456 152.366Z" fill="#A859EE"/>
<path d="M150.009 152.366L155.282 198.039C155.282 198.221 155.175 198.398 154.966 198.538C154.547 198.814 153.866 198.814 153.444 198.538C153.267 198.422 153.165 198.277 153.136 198.128C153.132 198.1 144.926 154.434 144.926 154.434L150.005 152.371L150.009 152.366Z" fill="#A859EE"/>
<path d="M108.745 169.563L103.473 215.236C103.473 215.418 103.579 215.596 103.789 215.736C104.207 216.011 104.888 216.011 105.311 215.736C105.487 215.619 105.59 215.474 105.619 215.325C105.623 215.297 113.829 171.631 113.829 171.631L108.749 169.568L108.745 169.563Z" fill="#AF66EF"/>
<path d="M145.298 169.563L150.571 215.236C150.571 215.418 150.464 215.596 150.255 215.736C149.836 216.011 149.155 216.011 148.733 215.736C148.556 215.619 148.454 215.474 148.425 215.325C148.421 215.297 140.215 171.631 140.215 171.631L145.294 169.568L145.298 169.563Z" fill="#AF66EF"/>
<path d="M148.433 142.031C146.173 139.959 143.756 139.151 141.988 138.6C137.162 137.111 128.288 138.105 122.4 139.697C122.183 139.618 121.981 139.52 121.805 139.398C117.181 136.191 115.86 118.924 104.228 111.278C100.576 108.888 96.8057 109.163 93.8557 111.278C89.1578 114.653 86.5524 122.71 89.9086 132.065C95.8374 148.581 98.0366 170.007 110.251 174.269C123.98 179.063 145.578 174.615 148.721 170.651C149.988 169.055 150.801 167.108 151.244 164.984C152.081 160.998 153.345 146.522 148.433 142.022V142.031Z" fill="#76F5FF"/>
<path d="M147.186 162.347C149.902 164.242 150.809 168.004 148.761 170.609C148.749 170.623 148.737 170.642 148.724 170.656C145.582 174.619 123.984 179.063 110.255 174.274C98.0405 170.012 95.8413 148.585 89.9125 132.069C86.5563 122.71 89.1617 114.657 93.8596 111.282C88.3944 121.996 96.2557 133.731 99.5176 140.864C102.784 147.988 107.555 162.613 113.332 163.999C119.109 165.386 133.264 158.173 142.115 160.139C144.027 160.563 145.754 161.348 147.19 162.347H147.186Z" fill="#00CCD1"/>
<path d="M125.408 138.992C125.408 138.992 118.351 145.028 116.09 152.422C113.829 159.816 113.64 155.638 113.924 151.138C114.059 148.949 114.354 143.501 115.593 141.079C116.902 138.52 119.188 139.02 120.492 138.03C122.331 140.332 125.404 138.997 125.404 138.997L125.408 138.992Z" fill="#00CCD1"/>
<path opacity="0.08" d="M230.957 141.019C240.369 147.2 244.554 160.69 235.146 166.871C225.733 173.052 196.906 173.052 187.498 166.871C178.09 160.69 183.022 146.056 192.434 139.871C201.846 133.69 221.548 134.834 230.961 141.014L230.957 141.019Z" fill="black"/>
<path d="M229.869 100.606L235.141 146.279C235.141 146.461 235.034 146.639 234.825 146.779C234.407 147.054 233.726 147.054 233.303 146.779C233.126 146.662 233.024 146.517 232.995 146.368C232.991 146.34 224.785 102.674 224.785 102.674L229.865 100.611L229.869 100.606Z" fill="#A859EE"/>
<path d="M193.315 100.606L188.043 146.279C188.043 146.461 188.15 146.639 188.359 146.779C188.777 147.054 189.458 147.054 189.881 146.779C190.058 146.662 190.16 146.517 190.189 146.368C190.193 146.34 198.399 102.674 198.399 102.674L193.319 100.611L193.315 100.606Z" fill="#A859EE"/>
<path d="M229.869 119.177L235.141 164.85C235.141 165.032 235.034 165.209 234.825 165.349C234.407 165.624 233.726 165.624 233.303 165.349C233.126 165.232 233.024 165.088 232.995 164.938C232.991 164.91 224.785 121.245 224.785 121.245L229.865 119.181L229.869 119.177Z" fill="#AF66EF"/>
<path d="M193.315 119.177L188.043 164.85C188.043 165.032 188.15 165.209 188.359 165.349C188.777 165.624 189.458 165.624 189.881 165.349C190.058 165.232 190.16 165.088 190.189 164.938C190.193 164.91 198.399 121.245 198.399 121.245L193.319 119.181L193.315 119.177Z" fill="#AF66EF"/>
<path d="M193.422 89.9033C193.422 89.9033 181.183 106.55 187.547 120.867C193.016 133.177 228.355 131.263 234.255 123.145C244.652 108.842 231.112 89.9593 231.112 89.9593L193.418 89.908L193.422 89.9033Z" fill="#A1A7CD"/>
<path d="M193.422 87.5171C193.422 87.5171 181.339 105.027 189.717 113.556C198.096 122.084 231.732 119.97 235.765 112.305C241.419 101.568 230.833 87.2137 230.833 87.2137C230.833 87.2137 238.182 61.5531 232.696 55.6013C226.464 48.8372 196.426 47.0307 190.694 57.2725C187.009 63.8498 193.422 87.5171 193.422 87.5171Z" fill="#BABEDA"/>
<path d="M192.934 88.2645C192.934 88.2645 204.919 85.5196 210.039 85.5196C215.16 85.5196 230.517 88.3765 230.833 87.2141C231.149 86.0518 213.761 76.6922 210.347 77.2197C206.933 77.7472 192.442 86.6259 192.93 88.2645H192.934Z" fill="#A1A7CD"/>
<path d="M234.338 72.8596C229.041 74.6241 216.871 51.6291 212.083 39.1885C208.296 29.3482 218.685 24.7594 224.244 28.8907C232.237 34.8285 239.762 63.6821 239.762 63.6821C239.762 63.6821 239.844 71.025 234.338 72.8596Z" fill="#67F3FF"/>
<path d="M258.127 77.8036C258.127 77.8036 262.476 79.1807 268.023 79.7082C270.702 79.9649 272.585 78.9846 273.139 78.3684C274.748 76.5899 275.864 74.8907 274.649 74.5733C272.622 74.0458 267.945 74.3352 267.945 74.3352C267.945 74.3352 269.512 74.1578 270.152 73.9804C271.457 73.6116 271.26 72.9208 271.108 72.664C270.694 71.9685 267.358 71.0955 265.541 70.7921C262.349 70.2646 260.33 70.3486 259.255 70.3253C258.18 70.3019 256.018 75.0821 258.131 77.7943L258.127 77.8036Z" fill="#AB5EEE"/>
<path d="M260.699 70.3485C254.323 66.0771 247.438 64.448 240.885 61.6144C232.015 57.7772 229.881 61.7778 229.233 68.5232C228.585 75.2686 253.855 77.626 259.665 78.4243L260.699 70.3531V70.3485Z" fill="#67F3FF"/>
<path d="M257.856 67.7715L260.777 69.7461L259.665 78.4194L257.482 78.7882L257.856 67.7715Z" fill="#E9D6FB"/>
<path d="M265.843 178.994C266.566 176.1 257.945 170.255 255.951 166.465C255.344 165.312 253.403 159.887 254.052 156.167C252.837 155.42 244.844 152.101 245.152 154.328C246.461 163.897 241.849 169.56 242.859 173.467C244.057 178.116 265.54 180.212 265.843 178.994Z" fill="#E6CFFA"/>
<path d="M241.018 170.194C241.018 170.194 240.579 172.197 241.342 173.924C242.315 176.142 246.627 175.441 253.311 180.908C255.518 182.71 258.308 184.446 260.754 184.437C263.248 184.427 266.301 182.63 266.748 181.44C267.113 180.469 267.154 178.013 267.154 178.013L241.018 170.194Z" fill="white"/>
<path d="M259.033 168.738C257.421 166.283 257.29 164.411 254.836 165.037C251.258 165.947 253.65 169 252.624 170.05C251.344 171.362 247.877 168.085 242.691 165.335C242.264 165.111 241.821 165.508 241.797 166.036C241.69 168.547 240.668 169.285 240.857 172.02C241.038 174.625 246.798 173.024 253.482 178.49C255.689 180.292 258.857 181.716 261.512 181.916C263.981 182.103 266.689 180.189 267.1 178.98C268.273 175.549 261.421 172.375 259.037 168.738H259.033Z" fill="#C692F4"/>
<path d="M256.9 166.829C256.662 166.502 256.289 166.362 255.953 166.465L255.14 166.708C254.677 166.848 254.418 167.394 254.554 167.945L254.578 168.038C254.73 168.649 255.304 169 255.801 168.785L256.589 168.449C257.151 168.206 257.311 167.389 256.9 166.829Z" fill="white"/>
<path d="M254.958 116.301C254.54 112.09 251.639 108.692 250.072 106.96C241.816 97.8294 231.928 85.0294 218.881 75.8193C216.382 75.3991 204.631 75.5765 204.278 77.8312C202.465 89.4408 203.962 102.334 211.779 107.026C220.813 112.445 218.819 117.879 234.866 123.826C235.814 125.754 236.77 156.503 240.741 162.749C243.084 166.432 250.749 160.055 256.394 161.689C260.403 162.851 255.34 120.148 254.958 116.296V116.301Z" fill="#733AEF"/>
<path d="M221.188 99.1087L226.903 94.0298C226.903 94.0298 228.351 93.3576 228.942 95.9204C229.533 98.4832 241.12 112.819 242.761 119.247C244.406 125.675 249.034 162.315 249.034 162.315L243.023 164.103L231.699 117.823L221.188 99.1087Z" fill="#733AEF"/>
<path d="M249.904 189.068C250.626 186.174 242.937 180.357 240.947 176.567C240.34 175.414 236.815 169.677 237.463 165.951C236.249 165.205 226.804 165.135 226.927 167.385C227.017 169.032 228.043 171.516 227.969 173.206C227.809 176.828 226.451 179.592 227.14 182.257C228.338 186.907 249.6 190.282 249.904 189.063V189.068Z" fill="#E6CFFA"/>
<path d="M225.294 180.035C225.294 180.035 224.855 182.038 225.618 183.765C226.59 185.982 230.681 185.52 237.365 190.987C239.572 192.788 242.362 194.525 244.807 194.516C247.302 194.506 250.355 192.709 250.802 191.519C251.167 190.548 251.208 188.092 251.208 188.092L225.294 180.035Z" fill="white"/>
<path d="M243.089 178.812C241.476 176.356 241.345 174.484 238.891 175.11C235.314 176.02 237.706 179.073 236.68 180.123C235.4 181.435 231.933 178.158 226.747 175.409C226.32 175.185 225.877 175.581 225.852 176.109C225.746 178.62 224.945 179.124 225.134 181.855C225.315 184.46 230.854 183.092 237.537 188.559C239.745 190.361 242.912 191.784 245.567 191.985C248.037 192.172 250.745 190.258 251.155 189.049C252.329 185.613 245.477 182.443 243.093 178.807L243.089 178.812Z" fill="#C692F4"/>
<path d="M240.959 176.903C240.721 176.576 240.348 176.436 240.011 176.539L239.199 176.782C238.735 176.922 238.477 177.468 238.612 178.019L238.637 178.112C238.789 178.724 239.363 179.074 239.859 178.859L240.647 178.523C241.209 178.28 241.369 177.463 240.959 176.903Z" fill="white"/>
<path d="M238.962 117.534C234.141 105.639 219.785 91.4998 206.738 82.2943C204.239 81.8741 191.893 83.5827 191.54 85.842C189.727 97.4516 191.224 110.345 199.04 115.036C205.4 118.85 213.659 125.11 217.996 128.485C219.818 129.904 220.856 132.299 220.733 134.81C220.306 143.741 223.474 161.045 225.07 169.056C225.952 173.49 242.524 172.407 242.606 168.15C242.733 161.358 243.668 129.153 238.962 117.543V117.534Z" fill="#733AEF"/>
<path d="M217.028 10.4657C217.959 16.861 214.16 22.9062 208.539 23.9659C204.555 24.7174 200.189 23.3263 197.966 19.8486C197.051 18.4202 196.809 16.3615 196.004 14.709C194.552 11.7308 197.153 9.38269 197.436 7.27738C197.974 3.31882 202.495 -0.298961 207.71 0.0184701C215.699 0.503953 216.097 4.06572 217.028 10.461V10.4657Z" fill="#733AEF"/>
<path d="M222.817 27.3832C215.821 21.4127 197.781 30.945 191.466 37.7931C186.169 43.5396 190.752 55.3825 191.868 61.0636C192.537 64.462 189.447 83.4145 190.658 86.7802C193.005 93.3109 216.646 88.9743 216.646 88.9743L217.286 85.4965L218.066 88.7315C218.066 88.7315 228.06 86.3228 228.196 78.8211C228.278 74.3164 225.857 69.3215 226.534 63.9065C227.129 59.1824 229.858 33.4004 222.813 27.3879L222.817 27.3832Z" fill="#76F5FF"/>
<path d="M217.274 40.2387C217.274 40.2387 217.82 31.3926 212.74 28.489C210.311 27.1026 205.671 27.2473 203.205 28.7645C201.855 29.5907 200.563 31.3739 200.362 32.9518C200.001 35.776 203.266 38.6935 205.297 41.3077C206.118 42.3673 207.447 44.426 207.447 44.426C207.447 44.426 209.544 42.26 210.159 41.4477C210.525 40.9622 211.673 39.2864 211.673 39.2864C211.673 39.2864 213.347 39.8419 213.992 39.9446C214.808 40.0753 217.278 40.2433 217.278 40.2433L217.274 40.2387Z" fill="#E9D6FB"/>
<path d="M215.196 14.6806C212.021 13.0608 207.167 12.6687 205.452 7.48239C205.128 6.50208 204.356 4.21938 209.928 3.21574C213.838 2.51085 217.687 7.5104 218.848 14.1344C219.152 15.857 218.454 17.8503 215.615 19.3207C215.504 17.9063 215.299 15.8803 215.196 14.6806Z" fill="#733AEF"/>
<path d="M209.113 22.3552C208.181 24.9973 206.52 26.5985 205.063 27.1867C201.629 28.5731 196.143 21.9491 198.195 12.7389C198.79 10.0641 203.615 5.97479 206.196 6.37158C210.077 6.9691 211.571 9.13977 211.435 13.1403C211.3 17.1409 210.754 19.7037 209.117 22.3552H209.113Z" fill="#733AEF"/>
<path d="M204.41 29.3206C204.016 29.7081 202.929 30.7817 202.671 32.4202C202.437 33.8814 203.926 34.913 206.121 35.3658C207.873 35.7299 210.064 36.7242 211.459 35.8233C212.313 35.2725 214.032 32.1915 213.388 30.2776C212.592 27.9249 206.519 27.2573 204.414 29.3113L204.41 29.3206Z" fill="#A34EEC"/>
<path d="M216.88 12.8749C215.883 13.5144 214.771 11.9646 213.634 9.09835C212.937 7.34315 211.214 4.08948 212.432 3.78605C216.777 2.71238 217.048 7.14242 217.877 8.65955C218.5 9.80791 218.558 11.8012 216.88 12.8749Z" fill="#733AEF"/>
<path d="M202.879 19.606C202.805 23.9053 203.704 26.9349 203.368 30.7954C203.24 32.2565 205.152 33.2322 207.327 33.685C209.063 34.0444 210.683 34.3852 212.062 33.4982C212.907 32.9521 213.481 30.5573 213.046 28.5874C212.698 27.0142 212.304 25.1377 212.181 23.7466C211.922 20.773 202.92 17.2019 202.879 19.606Z" fill="#A34EEC"/>
<path d="M202.588 19.237C202.415 16.9123 206.215 11.1892 210.564 8.15496C214.737 5.24206 214.946 8.95787 216.374 12.1789C216.899 13.3646 216.435 14.6856 216.673 15.946C217.059 17.9813 216.862 19.6432 216.702 21.5804C216.53 23.6671 217.321 25.497 216.193 26.7574C215.668 27.3455 213.781 28.1951 212.759 28.1905C209.255 28.1765 206.297 27.2242 205.456 24.7781C204.926 23.2376 202.924 20.6235 202.592 19.237H202.588Z" fill="#AB5EEE"/>
<path d="M203.011 18.2429C203.938 18.8917 204.025 20.9177 204.156 21.4172C204.427 22.4722 204.595 22.9203 203.865 23.2611C203.266 23.5412 202.851 22.9903 202.174 22.5609C201.239 21.9727 200.693 20.6796 200.816 19.634C200.976 18.2289 201.883 17.5473 203.015 18.2429H203.011Z" fill="#AB5EEE"/>
<path d="M209.624 16.9271C209.111 17.1885 209.017 17.9727 209.464 18.2668C210.038 18.6449 210.592 17.828 210.613 17.4639C210.633 17.0951 209.989 16.745 209.624 16.9317V16.9271Z" fill="#733AEF"/>
<path d="M215.187 14.8542C214.687 15.0129 214.51 15.7225 214.884 16.0539C215.368 16.488 215.836 15.8952 215.897 15.5637C215.959 15.2323 215.54 14.7422 215.187 14.8542Z" fill="#733AEF"/>
<path d="M213.308 16.6465C213.616 17.6548 215.036 18.2476 214.937 19.1859C214.83 20.2269 213.292 20.2643 213.152 20.3109" stroke="#733AEF" stroke-miterlimit="10" stroke-linecap="round"/>
<path d="M215.981 14.9433C215.981 14.9433 215.209 14.4205 214.184 15.9843" stroke="#733AEF" stroke-miterlimit="10" stroke-linecap="round"/>
<path d="M211.094 16.9129C211.094 16.9129 210.039 16.1941 208.197 18.1407" stroke="#733AEF" stroke-miterlimit="10" stroke-linecap="round"/>
<path d="M213.203 23.6533C213.708 24.0035 215.078 23.5647 215.394 23.1492C215.71 22.7337 215.513 21.6834 215.288 21.9308C214.791 22.477 212.629 22.547 212.452 22.7851C212.358 22.9158 213.023 23.5273 213.199 23.6533H213.203Z" fill="#733AEF"/>
<path d="M211.984 22.4255C213.342 23.2284 214.048 22.1874 215.332 22.0801" stroke="#733AEF" stroke-miterlimit="10" stroke-linecap="round"/>
<path d="M210.708 14.8311C210.708 14.8311 208.636 15.578 207.52 16.8804" stroke="#733AEF" stroke-miterlimit="10" stroke-linecap="round"/>
<path d="M213.607 13.8645C213.607 13.8645 214.654 13.1783 215.979 13.085" stroke="#733AEF" stroke-miterlimit="10" stroke-linecap="round"/>
<path d="M210.61 14.2285C202.277 15.0781 206.695 17.5942 204.878 20.0216C202.995 22.5284 196.397 18.8966 200.012 9.54641C202.658 2.6983 207.188 1.34922 209.67 1.71333C213.408 2.26416 214.097 4.62623 214.311 8.5381C214.52 12.45 212.382 14.0465 210.614 14.2285H210.61Z" fill="#733AEF"/>
<path d="M199.109 85.3605C193.599 85.0197 184.56 63.1963 186.887 46.0691C188.331 35.4538 196.266 38.3994 199.672 46.2371C203.906 55.9701 206.901 78.7598 206.901 78.7598C206.901 78.7598 204.833 85.72 199.105 85.3652L199.109 85.3605Z" fill="#67F3FF"/>
<path d="M220.104 99.0194C220.104 99.0194 223.804 101.965 228.88 104.556C231.333 105.807 233.393 105.597 234.099 105.228C236.138 104.159 237.685 102.978 236.63 102.217C234.87 100.952 230.377 99.4582 230.377 99.4582C230.377 99.4582 231.908 99.8876 232.56 99.9577C233.898 100.102 233.914 99.3742 233.844 99.0754C233.656 98.2631 230.763 96.1765 229.138 95.2055C226.283 93.5017 224.354 92.8201 223.345 92.3907C222.336 91.9612 218.901 95.6537 220.104 99.01V99.0194Z" fill="#AB5EEE"/>
<path d="M224.713 92.9605C219.945 86.5232 213.926 82.3779 208.576 77.2336C201.33 70.2641 198.15 73.2284 195.565 79.3436C192.985 85.4588 216.129 97.2411 221.377 100.187L224.709 92.9651L224.713 92.9605Z" fill="#67F3FF"/>
<path d="M222.779 89.459L224.957 92.4186L221.375 100.186L219.209 99.7008L222.779 89.459Z" fill="#E9D6FB"/>
<path opacity="0.08" d="M337.293 222.248L213.798 304.654L152.143 264.14L277.312 182.014L337.293 222.248Z" fill="black"/>
<path d="M293.42 141.583L316.839 156.964L330.831 224.736L334.704 222.35L329.218 130.165L281.041 98.5195L281.386 192.255L285.259 189.87L293.42 141.583Z" fill="#B878F1"/>
<path d="M289.546 143.969L312.966 159.355L321.126 218.36L330.83 224.736L325.344 132.55L277.167 100.905L271.682 185.884L281.385 192.255L289.546 143.969Z" fill="#AF66EF"/>
<path d="M319.958 159.747L203.996 235.87V219.434L319.958 143.315V159.747Z" fill="#A859EE"/>
<path d="M262.413 197.521L261.539 198.096V181.659L262.413 181.085V197.521Z" fill="#A451ED"/>
<path d="M176.351 219.746L199.767 235.127L213.758 302.899L217.635 300.514L212.15 208.328L163.973 176.683L164.317 270.418L168.191 268.033L176.351 219.746Z" fill="#B878F1"/>
<path d="M172.478 222.132L195.893 237.518L204.054 296.523L213.758 302.899L208.272 210.713L160.095 179.068L154.609 264.047L164.317 270.419L172.478 222.132Z" fill="#AF66EF"/>
<path d="M336.345 136.262L212.764 217.328V212.03L336.345 130.959V136.262Z" fill="#F2EDFE"/>
<path d="M336.345 130.959L212.764 212.03L155.031 174.055L278.608 92.9883L336.345 130.959Z" fill="#FBF9FF"/>
<path d="M212.764 212.03V217.328L155.031 179.358V174.055L212.764 212.03Z" fill="#F0E3FC"/>
<path d="M293.363 167.855L291.992 170.628C291.992 170.628 291.582 170.343 291.405 170.24C291.217 170.128 291.098 169.872 291.098 169.503C291.098 168.789 291.541 167.916 292.091 167.556C292.357 167.379 292.599 167.36 292.78 167.468C292.965 167.58 293.367 167.86 293.367 167.86L293.363 167.855Z" fill="#D3AAF6"/>
<path d="M295.078 168.121L293.006 172.313C293.006 172.313 292.387 171.884 292.12 171.725C291.833 171.557 291.652 171.169 291.652 170.609C291.652 169.526 292.325 168.21 293.15 167.664C293.556 167.398 293.921 167.365 294.192 167.528C294.475 167.701 295.078 168.121 295.078 168.121Z" fill="#E5CDFA"/>
<path d="M295.55 169.237C295.55 170.32 294.877 171.636 294.052 172.183C293.223 172.724 292.555 172.29 292.555 171.207C292.555 170.124 293.228 168.808 294.052 168.261C294.881 167.715 295.55 168.154 295.55 169.237Z" fill="#DBB9F8"/>
<path d="M234.366 206.083L232.996 208.855C232.996 208.855 232.586 208.571 232.409 208.468C232.221 208.356 232.102 208.099 232.102 207.73C232.102 207.016 232.545 206.143 233.094 205.784C233.361 205.606 233.603 205.588 233.784 205.695C233.968 205.807 234.37 206.087 234.37 206.087L234.366 206.083Z" fill="#D3AAF6"/>
<path d="M236.082 206.344L234.01 210.536C234.01 210.536 233.391 210.106 233.124 209.948C232.837 209.78 232.656 209.392 232.656 208.832C232.656 207.749 233.329 206.432 234.154 205.886C234.56 205.62 234.925 205.588 235.196 205.751C235.479 205.924 236.082 206.344 236.082 206.344Z" fill="#E5CDFA"/>
<path d="M236.558 207.46C236.558 208.543 235.885 209.859 235.06 210.405C234.231 210.951 233.562 210.512 233.562 209.429C233.562 208.346 234.235 207.03 235.06 206.484C235.889 205.942 236.558 206.377 236.558 207.46Z" fill="#DBB9F8"/>
<path d="M235.26 131.296V148.017C235.26 148.423 235.027 148.829 234.555 149.137C233.615 149.754 232.085 149.754 231.145 149.137C230.673 148.829 230.439 148.423 230.439 148.017V131.296H235.26Z" fill="#CFBCFA"/>
<path d="M206.49 158.693L258.335 123.266C258.622 123.08 258.786 122.715 258.749 122.337L255.315 75.3061C255.278 74.8953 254.145 74.0317 252.615 74.914L201.221 108.674C200.622 109.066 200.286 109.822 200.36 110.606L204.697 156.919C204.939 158.314 206.178 158.898 206.49 158.693Z" fill="#9C73F4"/>
<path d="M206.559 158.66L259.393 123.952C259.68 123.766 259.844 123.401 259.808 123.023L255.352 75.418C255.315 75.0072 254.917 74.7831 254.605 74.9885L201.771 109.696C201.484 109.883 201.32 110.247 201.357 110.625L205.813 158.23C205.849 158.641 206.247 158.865 206.559 158.66Z" fill="#9063F2"/>
<path d="M202.8 111.405L203.888 122.795L205.131 135.847L205.89 143.797L206.747 152.797C206.784 153.189 207.158 153.404 207.457 153.208L213.78 149.058L221.875 143.741L252.397 123.701L257.682 120.227C257.952 120.045 258.108 119.7 258.076 119.345L257.522 113.561L254.124 77.9438C254.087 77.5563 253.714 77.3416 253.415 77.533L234.438 89.9968L203.194 110.522C202.915 110.705 202.763 111.05 202.8 111.405Z" fill="white"/>
<path opacity="0.08" d="M235.751 175.106L269.818 152.745C270.097 152.563 270.105 152.111 269.839 151.91L267.02 149.8L223.623 164.43L221.941 165.695C221.604 165.947 221.621 166.512 221.965 166.745L234.504 175.05C234.873 175.292 235.431 175.316 235.747 175.11L235.751 175.106Z" fill="black"/>
<path d="M235.772 174.325L268.744 152.67C268.891 152.572 268.961 152.441 268.953 152.306C268.945 152.152 268.953 151.204 268.953 151.204L222.598 163.505C222.598 163.505 222.598 166.156 222.598 166.184C222.606 166.333 222.708 166.487 222.897 166.614L223.451 166.978L224.284 166.469L234.554 174.269C234.915 174.507 235.46 174.531 235.772 174.325Z" fill="#9063F2"/>
<path d="M235.772 173.229L268.744 151.573C269.055 151.368 268.986 150.948 268.588 150.64L257.05 141.682C256.652 141.369 256.078 141.285 255.766 141.49L222.795 163.145C222.483 163.351 222.552 163.771 222.95 164.079L234.488 173.037C234.886 173.35 235.46 173.434 235.772 173.229Z" fill="#9C73F4"/>
<path d="M242.674 153.95L257.018 144.529V144.212L255.869 143.661L241.525 152.769V153.081L242.674 153.95Z" fill="#E9D6FB"/>
<path d="M259.18 149.417L261.498 147.9V147.582L260.345 147.031L258.031 148.236V148.553L259.18 149.417Z" fill="#E9D6FB"/>
<path d="M231.202 167.8L257.444 150.561V150.243L256.291 149.692L230.053 166.619L230.049 166.932L231.202 167.8Z" fill="#E9D6FB"/>
<path d="M237.442 166.852L263.734 149.585V149.268L262.585 148.717L236.293 165.671V165.989L237.442 166.852Z" fill="#E9D6FB"/>
<path d="M233.442 169.485L235.658 168.024V167.711L234.509 167.16L232.293 168.304L232.289 168.617L233.442 169.485Z" fill="#E9D6FB"/>
<path d="M263.852 152.662L265.973 151.271V150.953L264.825 150.402L262.703 151.481L262.699 151.798L263.852 152.662Z" fill="#E9D6FB"/>
<path d="M260.758 154.697L262.88 153.301V152.983L261.727 152.433L259.61 153.511L259.605 153.828L260.758 154.697Z" fill="#E9D6FB"/>
<path d="M242.653 166.587L259.483 155.533L259.479 155.215L258.33 154.669L241.504 165.406V165.718L242.653 166.587Z" fill="#E9D6FB"/>
<path d="M234.698 159.187L241.065 155.004V154.687L239.917 154.141L233.549 158.006V158.323L234.698 159.187Z" fill="#E9D6FB"/>
<path d="M226.721 164.43L233.089 160.247V159.93L231.94 159.379L225.572 163.244V163.562L226.721 164.43Z" fill="#E9D6FB"/>
<path d="M235.678 171.17L241.147 167.576L241.143 167.258L239.994 166.712L234.533 169.989L234.529 170.302L235.678 171.17Z" fill="#E9D6FB"/>
<path d="M238.16 158.445L239.313 158.996V159.314L228.961 166.115L227.812 165.247V164.929L238.16 158.445Z" fill="#E9D6FB"/>
<path d="M239.777 157.386L239.781 157.068L258.072 145.37L259.225 145.921V146.234L240.93 158.254L239.777 157.386Z" fill="#E9D6FB"/>
<path d="M242.678 153.632L257.022 144.212L255.869 143.344L241.525 152.769L242.678 153.632Z" fill="#F5F1FE"/>
<path d="M259.184 149.104L261.498 147.582L260.345 146.714L258.031 148.236L259.184 149.104Z" fill="#F5F1FE"/>
<path d="M231.202 167.483L257.444 150.243L256.295 149.375L230.053 166.614L231.202 167.483Z" fill="#F5F1FE"/>
<path d="M237.446 166.535L263.738 149.268L262.585 148.399L236.293 165.671L237.446 166.535Z" fill="#F5F1FE"/>
<path d="M233.442 169.167L235.662 167.711L234.509 166.843L232.289 168.299L233.442 169.167Z" fill="#F5F1FE"/>
<path d="M263.852 152.344L265.973 150.953L264.825 150.085L262.699 151.481L263.852 152.344Z" fill="#F5F1FE"/>
<path d="M260.758 154.379L262.88 152.984L261.731 152.12L259.605 153.511L260.758 154.379Z" fill="#F5F1FE"/>
<path d="M242.653 166.269L259.483 155.215L258.33 154.352L241.504 165.406L242.653 166.269Z" fill="#F5F1FE"/>
<path d="M234.702 158.874L241.07 154.692L239.917 153.823L233.549 158.006L234.702 158.874Z" fill="#F5F1FE"/>
<path d="M226.725 164.112L233.093 159.93L231.94 159.062L225.572 163.244L226.725 164.112Z" fill="#F5F1FE"/>
<path d="M235.682 170.853L241.147 167.258L239.994 166.395L234.529 169.984L235.682 170.853Z" fill="#F5F1FE"/>
<path d="M238.164 158.133L239.313 158.996L228.961 165.798L227.812 164.93L238.164 158.133Z" fill="#F5F1FE"/>
<path d="M239.781 157.068L258.076 145.053L259.225 145.916L240.93 157.937L239.781 157.068Z" fill="#F5F1FE"/>
<path d="M223.447 166.973V165.736L224.28 166.469L223.447 166.973Z" fill="#8250F1"/>
<path opacity="0.08" d="M278.325 142.265C278.325 142.265 279.108 145.323 277.324 145.813C273.262 146.929 268.26 142.34 267.649 140.846C267.029 139.325 268.732 137.523 269.434 137.331C270.102 137.243 278.325 142.265 278.325 142.265Z" fill="black"/>
<path d="M278.325 142.265C278.325 142.265 278.752 144.73 277.082 145.248C273.82 146.252 268.618 141.364 268.146 140.454C267.674 139.544 268.101 138.349 268.593 137.858C269.225 137.779 278.33 142.27 278.33 142.27L278.325 142.265Z" fill="#C4ACF8"/>
<path d="M268.315 139.418C269.168 140.636 271.474 141.775 276.036 144.1C278.888 145.552 279.114 141.971 276.758 138.442C276.758 138.442 275.158 135.478 272.586 135.8C272.216 135.847 271.847 135.926 271.498 136.038C271.199 136.122 270.912 136.239 270.637 136.369C268.909 137.149 267.679 138.512 268.315 139.408V139.418Z" fill="#D8C8FB"/>
<path d="M270.631 136.378C271.903 136.551 273.47 137.886 273.597 137.513C273.708 137.181 272.198 136.397 271.492 136.047C271.193 136.131 270.906 136.248 270.631 136.378Z" fill="#C4ACF8"/>
<path d="M241.628 117.039L209.153 138.508L206.773 112.665L239.248 91.2012L241.628 117.039Z" fill="#F5F1FE"/>
<path d="M232.162 125.068L232.293 126.413L209.547 141.449L209.432 140.09L232.162 125.068Z" fill="#CDFBFF"/>
<path d="M242.016 119.98L235.164 124.508L235.033 123.164L241.902 118.631L242.016 119.98Z" fill="#CDFBFF"/>
<path d="M236.29 102.311L229.438 106.844L229.307 105.499L236.175 100.962L236.29 102.311Z" fill="#E9D6FB"/>
<path d="M228.916 107.241L227.862 107.904L227.73 106.564L228.797 105.892L228.916 107.241Z" fill="#D6C6FA"/>
<path d="M236.647 105.784L229.795 110.312L229.664 108.972L236.532 104.435L236.647 105.784Z" fill="#E9D6FB"/>
<path d="M229.274 110.713L228.219 111.376L228.088 110.032L229.155 109.364L229.274 110.713Z" fill="#D6C6FA"/>
<path d="M237.005 109.252L230.153 113.785L230.021 112.441L236.89 107.903L237.005 109.252Z" fill="#E9D6FB"/>
<path d="M229.631 114.182L228.577 114.85L228.445 113.505L229.512 112.833L229.631 114.182Z" fill="#D6C6FA"/>
<path d="M237.36 112.725L230.508 117.253L230.377 115.913L237.245 111.376L237.36 112.725Z" fill="#E9D6FB"/>
<path d="M229.987 117.655L228.932 118.318L228.801 116.978L229.872 116.306L229.987 117.655Z" fill="#D6C6FA"/>
<path d="M217.63 137.882L217.761 139.231L209.904 144.427L209.789 143.068L217.63 137.882Z" fill="#CDFBFF"/>
<path d="M242.379 122.958L220.629 137.336L220.506 135.987L242.26 121.609L242.379 122.958Z" fill="#CDFBFF"/>
<path d="M229.758 134.53L210.281 147.405L210.166 146.046L229.626 133.186L229.758 134.53Z" fill="#CDFBFF"/>
<path d="M252.036 93.1199L243.014 99.0904L242.078 89.3014L251.105 83.3262L252.036 93.1199Z" fill="#CDFBFF"/>
<path d="M254.522 119.186L245.5 125.157L243.141 100.425L252.167 94.4639L254.522 119.186Z" fill="#F5F1FE"/>
<path d="M223.594 122.44C225.96 116.932 225.309 111.038 222.139 109.275C218.969 107.512 214.481 110.548 212.115 116.056C209.748 121.564 210.4 127.458 213.569 129.221C216.739 130.984 221.227 127.948 223.594 122.44Z" fill="white"/>
<path d="M217.846 119.238L216.869 129.512C213.689 130.423 211.174 128.131 210.747 123.939C210.222 118.804 212.996 112.46 216.89 109.883C220.783 107.306 224.419 109.407 224.944 114.542L217.846 119.243V119.238Z" fill="#E0C4F9"/>
<path d="M217.845 119.238L212.885 114.453C213.98 112.478 215.383 110.877 216.885 109.883C220.779 107.306 224.414 109.407 224.939 114.542L217.841 119.243L217.845 119.238Z" fill="#CB9BF4"/>
<path d="M214.416 121.511C214.162 119.013 215.491 115.97 217.387 114.714C219.282 113.458 221.026 114.467 221.28 116.964C221.535 119.461 220.205 122.505 218.31 123.761C216.414 125.017 214.67 124.008 214.416 121.511Z" fill="#F5F1FE"/>
<path d="M252.196 106.513L245.348 111.041L244.531 102.05L251.4 97.5127L252.196 106.513Z" fill="white"/>
<path d="M252.557 109.986L245.705 114.514L245.574 113.169L252.438 108.637L252.557 109.986Z" fill="white"/>
<path d="M252.913 113.455L246.061 117.987L245.93 116.643L252.794 112.105L252.913 113.455Z" fill="white"/>
<path d="M253.27 116.927L246.418 121.455L246.287 120.116L253.151 115.578L253.27 116.927Z" fill="white"/>
<path d="M321.837 161.289C321.201 155.832 319.695 149.203 313.34 137.523C312.265 135.549 300.194 138.513 300.649 140.782C302.959 152.33 309.368 164.075 314.185 169.901C318.251 174.817 323.248 173.398 321.833 161.289H321.837Z" fill="#B673F0"/>
<path d="M286.288 139.768C286.288 139.768 283.281 136.281 278.452 133.387C276.121 131.986 274.041 132 273.303 132.28C271.165 133.093 269.503 134.064 270.488 134.871C272.125 136.216 276.474 138.027 276.474 138.027C276.474 138.027 274.985 137.485 274.341 137.359C273.015 137.103 272.933 137.779 272.974 138.069C273.085 138.848 275.777 141.066 277.311 142.125C280.003 143.983 281.02 143.148 281.989 143.638C282.957 144.133 287.175 143.026 286.293 139.768H286.288Z" fill="#DDBEF8"/>
<path d="M283.125 144.012C283.125 144.012 302.782 159.827 307.804 159.034C312.83 158.245 316.679 156.461 313.532 150.799C310.381 145.141 285.722 138.657 285.722 138.657L283.125 144.007V144.012Z" fill="#B673F0"/>
<path d="M255.655 237.215C257.727 237.215 262.786 239.866 266.741 241.113C272.76 243.008 273.285 243.834 274.032 244.838C276.022 248.567 273.298 254.244 273.298 254.244C273.298 254.244 272.177 255.406 270.606 254.935C270.413 254.879 268.481 252.419 266.745 251.499C265.01 250.579 263.471 251.2 262.572 250.869C258.17 249.254 255.569 245.417 254.038 242.345C252.602 239.465 254.645 237.21 255.659 237.21L255.655 237.215Z" fill="#733AEF"/>
<path d="M302.877 192.784C302.877 192.784 282.985 186.375 275.387 185.063C272.744 184.605 265.958 188.387 265.597 193.564C264.067 215.658 265.831 243.694 265.831 243.816C266.693 248.073 272.166 247.354 272.552 244.927C273.7 237.705 276.798 225.582 277.537 216.969C277.947 212.185 277.032 207.572 277.032 207.572C277.032 207.572 291.897 219.486 302.671 218.188C313.446 216.89 302.873 192.793 302.873 192.793L302.877 192.784Z" fill="#D6B1F7"/>
<path opacity="0.08" d="M319.551 253.731C330.473 260.906 330.473 272.539 319.551 279.714C308.629 286.888 290.916 286.888 279.994 279.714C274.221 275.923 271.501 270.886 271.829 265.919L297.867 248.559C305.736 248.153 313.532 249.777 319.551 253.731Z" fill="black"/>
<path d="M305.326 283.849C305.326 285.277 304.185 286.439 302.782 286.439C301.379 286.439 300.238 285.282 300.238 283.849C300.238 282.415 301.379 281.258 302.782 281.258C304.185 281.258 305.326 282.415 305.326 283.849Z" fill="#895AF2"/>
<path d="M305.228 284.559C304.785 285.315 300.234 284.12 300.234 284.12C300.234 284.12 300.247 281.991 300.275 281.842C300.493 280.633 301.531 279.718 302.778 279.718C304.026 279.718 305.035 280.605 305.273 281.786C305.306 281.954 305.453 284.166 305.228 284.554V284.559Z" fill="#895AF2"/>
<path d="M304.756 283.849C304.756 284.96 303.874 285.856 302.782 285.856C301.691 285.856 300.809 284.955 300.809 283.849C300.809 282.743 301.691 281.842 302.782 281.842C303.874 281.842 304.756 282.743 304.756 283.849Z" fill="#814EF1"/>
<path d="M312.694 252.064C312.694 252.671 312.555 253.147 312.292 253.432C311.993 253.749 309.625 255.658 308.993 255.238C307.816 254.468 306.4 251.396 306.4 249.86C306.4 249.104 308.604 247.802 309.539 247.554C309.835 247.475 310.196 247.638 310.565 247.886C311.742 248.656 312.694 250.533 312.694 252.068V252.064Z" fill="#895AF2"/>
<path d="M310.446 253.552C310.446 255.088 309.494 255.709 308.317 254.939C307.139 254.169 306.188 252.292 306.188 250.756C306.188 249.22 307.139 248.6 308.317 249.37C309.494 250.14 310.446 252.017 310.446 253.552Z" fill="#895AF2"/>
<path d="M309.725 253.077C309.725 254.094 309.097 254.5 308.317 253.991C307.542 253.483 306.91 252.246 306.91 251.228C306.91 250.21 307.538 249.804 308.317 250.313C309.093 250.822 309.725 252.059 309.725 253.077Z" fill="#814EF1"/>
<path d="M321.467 269.247C321.467 269.854 321.606 270.33 321.869 270.615C322.168 270.933 324.536 272.842 325.168 272.422C326.345 271.651 327.761 268.58 327.761 267.044C327.761 266.288 325.557 264.985 324.622 264.738C324.327 264.659 323.966 264.822 323.596 265.069C322.419 265.84 321.467 267.716 321.467 269.252V269.247Z" fill="#895AF2"/>
<path d="M323.715 270.736C323.715 272.272 324.667 272.893 325.844 272.122C327.022 271.352 327.974 269.476 327.974 267.94C327.974 266.404 327.022 265.783 325.844 266.553C324.667 267.324 323.715 269.2 323.715 270.736Z" fill="#895AF2"/>
<path d="M324.438 270.265C324.438 271.283 325.065 271.689 325.845 271.18C326.62 270.671 327.252 269.434 327.252 268.416C327.252 267.399 326.624 266.993 325.845 267.501C325.069 268.01 324.438 269.247 324.438 270.265Z" fill="#814EF1"/>
<path d="M279.371 252.522C279.371 253.129 279.511 253.605 279.773 253.89C280.073 254.207 282.44 256.116 283.072 255.696C284.25 254.926 285.665 251.854 285.665 250.318C285.665 249.562 283.462 248.26 282.526 248.012C282.231 247.933 281.87 248.096 281.501 248.344C280.323 249.114 279.371 250.991 279.371 252.526V252.522Z" fill="#895AF2"/>
<path d="M281.619 254.01C281.619 255.546 282.571 256.167 283.749 255.397C284.926 254.627 285.878 252.75 285.878 251.214C285.878 249.678 284.926 249.058 283.749 249.828C282.571 250.598 281.619 252.475 281.619 254.01Z" fill="#895AF2"/>
<path d="M282.342 253.535C282.342 254.552 282.97 254.958 283.749 254.449C284.525 253.941 285.156 252.704 285.156 251.686C285.156 250.668 284.529 250.262 283.749 250.771C282.974 251.28 282.342 252.517 282.342 253.535Z" fill="#814EF1"/>
<path d="M279.056 274.224C279.056 274.831 278.916 275.307 278.654 275.592C278.354 275.909 275.987 277.818 275.355 277.398C274.177 276.628 272.762 273.556 272.762 272.021C272.762 271.264 274.965 269.962 275.9 269.715C276.196 269.635 276.557 269.799 276.926 270.046C278.104 270.816 279.056 272.693 279.056 274.229V274.224Z" fill="#895AF2"/>
<path d="M276.198 277.246C277.026 276.696 277.02 274.93 276.185 273.299C275.35 271.668 274.002 270.792 273.173 271.341C272.345 271.89 272.351 273.657 273.186 275.287C274.021 276.918 275.369 277.795 276.198 277.246Z" fill="#895AF2"/>
<path d="M276.084 275.242C276.084 276.259 275.456 276.665 274.677 276.157C273.901 275.648 273.27 274.411 273.27 273.393C273.27 272.375 273.897 271.969 274.677 272.478C275.452 272.987 276.084 274.224 276.084 275.242Z" fill="#814EF1"/>
<path d="M298.4 253.156L279.977 251.611C279.51 251.574 279.181 251.121 279.194 250.631C279.194 250.509 279.214 249.291 279.214 249.291C279.214 249.291 280.006 249.319 280.544 249.37L298.543 250.939L298.4 253.166V253.156Z" fill="#B99DF7"/>
<path d="M273.765 271.577C273.63 271.353 273.572 271.096 273.589 270.844C273.609 270.513 273.568 269.551 273.568 269.551L297.911 251.131L299.027 252.965L275.095 271.857C274.66 272.203 274.061 272.077 273.761 271.582L273.765 271.577Z" fill="#B99DF7"/>
<path d="M301.683 280.371L297.506 252.232L299.438 251.858L303.636 278.882C303.636 278.882 303.632 280.147 303.628 280.222C303.611 280.74 303.279 281.193 302.811 281.281C302.278 281.384 301.773 280.973 301.683 280.367V280.371Z" fill="#B99DF7"/>
<path d="M324.44 266.624L298.066 253.063L298.875 251.032L326.024 264.304C326.024 264.304 325.95 265.139 325.995 265.438C326.024 265.62 326.004 265.807 325.934 265.989C325.679 266.633 325.011 266.922 324.444 266.628L324.44 266.624Z" fill="#B99DF7"/>
<path d="M298.793 253.1L298.148 250.995L309.218 246.537C309.698 246.346 310.728 246.131 310.728 246.131C310.728 246.131 310.769 247.345 310.786 247.527C310.827 247.961 310.609 248.409 310.207 248.568L298.788 253.1H298.793Z" fill="#B99DF7"/>
<path d="M298.455 250.673L280.045 250.29C279.458 250.276 279.06 249.608 279.273 248.983C279.466 248.413 279.95 248.045 280.488 248.054L298.496 248.441L298.459 250.673H298.455Z" fill="#CDB8F9"/>
<path d="M273.766 270.33C273.438 269.825 273.532 269.111 273.975 268.738L297.887 248.66L299.053 250.453L275.104 270.558C274.677 270.918 274.078 270.815 273.762 270.33H273.766Z" fill="#CDB8F9"/>
<path d="M301.687 279.115L297.502 249.739L299.439 249.384L303.624 278.76C303.71 279.367 303.349 279.941 302.811 280.039C302.278 280.137 301.773 279.726 301.687 279.115Z" fill="#CDB8F9"/>
<path d="M324.429 265.322L298.039 250.556L298.905 248.554L325.558 263.464C325.972 263.692 326.14 264.262 325.939 264.733C325.664 265.368 324.987 265.63 324.429 265.317V265.322Z" fill="#CDB8F9"/>
<path d="M298.721 250.635L298.225 248.479L309.29 245.183C309.774 245.038 310.287 245.248 310.583 245.71C310.936 246.271 310.685 247.064 310.099 247.242L298.725 250.635H298.721Z" fill="#CDB8F9"/>
<path d="M301.426 242.48V249.455C301.426 249.996 301.11 250.538 300.482 250.948C299.223 251.775 297.184 251.775 295.928 250.948C295.3 250.538 294.984 249.996 294.984 249.455V242.48H301.426Z" fill="#B99DF7"/>
<path d="M300.481 240.987C301.741 241.813 301.741 243.153 300.481 243.979C299.222 244.805 297.183 244.805 295.927 243.979C294.668 243.153 294.668 241.813 295.927 240.987C297.187 240.161 299.226 240.161 300.481 240.987Z" fill="#CDB8F9"/>
<path d="M300.793 215.686V242.308C300.793 242.742 300.539 243.181 300.034 243.512C299.021 244.175 297.384 244.175 296.37 243.512C295.866 243.181 295.611 242.747 295.611 242.308V215.686H300.793Z" fill="#B99DF7"/>
<path d="M277.409 231.977C271.887 228.499 270.106 219.28 275.752 212.917C276.897 211.624 322.989 218.575 322.989 218.575C322.989 218.575 301.937 237.131 289.534 237.476C285.952 237.574 277.405 231.982 277.405 231.982L277.409 231.977Z" fill="#814EF1"/>
<path d="M320.06 224.592L304.255 234.974C300.464 237.467 294.42 237.682 290.239 235.474L278.94 229.503C273.38 226.712 271.222 215.686 277.163 211.676L288.647 204.132C295.61 199.539 304.329 201.915 308.247 205.117L320.815 215.387C324.175 218.132 323.847 222.1 320.055 224.592H320.06Z" fill="#9063F2"/>
<path d="M247.342 245.267C249.414 245.267 254.408 248.227 258.429 249.165C264.152 250.5 265.137 251.947 265.719 252.89C267.709 256.62 264.985 262.297 264.985 262.297C264.985 262.297 263.865 263.459 262.294 262.987C262.101 262.931 260.168 260.471 258.433 259.552C256.697 258.632 255.158 259.253 254.26 258.922C249.857 257.306 247.256 253.469 245.726 250.398C244.29 247.517 246.333 245.263 247.346 245.263L247.342 245.267Z" fill="#733AEF"/>
<path d="M295.027 200.35C295.027 200.35 275.136 193.941 267.537 192.629C264.895 192.172 258.109 195.953 257.747 201.13C256.217 223.224 257.981 251.261 257.981 251.382C258.843 255.639 264.316 254.921 264.702 252.493C265.851 245.272 268.949 233.148 269.687 224.536C270.097 219.751 269.182 215.139 269.182 215.139C269.182 215.139 284.047 227.052 294.822 225.754C305.6 224.456 295.023 200.36 295.023 200.36L295.027 200.35Z" fill="#DDBEF8"/>
<path d="M313.344 137.528C308.416 133.28 306.032 133.98 302.122 135.996C294.942 139.698 288.057 141.019 279.039 151.065C275.687 154.795 279.913 162.871 281.476 174.807C281.714 176.618 287.068 182.117 287.216 184.017C287.872 192.42 282.891 197.994 286.248 207.222C287.577 210.882 296.107 216.176 306.188 212.918C317.365 209.304 320.791 207.4 318.998 192.593C315.805 166.278 320.298 143.531 313.344 137.532V137.528Z" fill="#BE83F2"/>
<path d="M298.204 141.916L295.734 142.817C293.813 143.517 291.762 142.289 291.183 140.091L289.23 132.636L299.004 126.945C299.004 126.945 299.406 131.856 299.619 132.892C299.952 134.498 300.259 135.787 300.534 136.814C301.109 138.961 300.075 141.23 298.195 141.916H298.204Z" fill="#D6B1F7"/>
<path d="M282.294 118.678C282.294 118.678 283.262 128.341 283.931 130.446C285.797 136.328 286.774 136.314 290.389 135.287C292.883 134.577 296.486 132.659 296.494 128.023C296.498 125.11 295.16 119.728 295.16 119.728C294.217 116.25 281.37 115.279 282.294 118.678Z" fill="#DDBEF8"/>
<path d="M282.297 127.244C282.161 127.608 282.297 128.024 282.6 128.206C283.006 128.444 283.039 128.43 283.778 128.658C284.512 128.882 283.203 122.931 283.203 122.931L282.293 127.249L282.297 127.244Z" fill="#DDBEF8"/>
<path d="M286.264 109.421C284.754 109.995 279.191 113.006 280.848 121.46C282.506 129.914 291.664 131.832 296.493 133.756C301.322 135.679 304.789 120.022 302.975 114.91C302.196 112.712 298.918 108.081 295.717 107.213C291.483 106.064 287.122 109.094 286.264 109.421Z" fill="#E0C4F9"/>
<path d="M297.404 127.817C296.567 124.778 298.397 121.604 302.369 122.197C306.34 122.79 306.755 129.937 303.686 131.37C300.621 132.798 298.024 130.063 297.404 127.817Z" fill="#E9D6FB"/>
<path d="M274.636 184.41C272.071 184.017 260.727 191.402 260.727 196.421C260.727 208.455 267.985 216.101 269.384 217.469C270.783 218.837 285.882 227.739 299.2 226.054C312.518 224.369 321.434 209.683 319.407 202.386C317.38 195.09 277.196 184.802 274.631 184.41H274.636Z" fill="#BE83F2"/>
<path d="M287.17 187.69C287.17 187.69 284.757 194.399 285.283 199.37C285.861 204.846 290.481 210.382 290.21 210.83C289.693 211.685 285.935 208.464 282.751 206.461C279.567 204.463 276.034 197.615 275.435 195.201C275.148 194.044 278.939 192.573 280.17 190.594C281.512 188.437 284.458 186.948 284.458 186.948C284.458 186.948 284.757 187 287.17 187.69Z" fill="#B673F0"/>
<path d="M319.859 225.885C316.178 228.639 293.678 238.256 291.179 237.42L287.039 233.779C300.037 236.991 305.621 214.378 309.737 202.955C311.624 197.713 321.451 190.51 328.048 186.813C329.509 185.996 332.602 187.63 332.508 188.232C331.072 197.074 325.504 221.637 319.859 225.88V225.885Z" fill="#814EF1"/>
<path d="M321.435 224.704C317.804 227.542 302.221 240.739 288.246 237.341C302.364 237.42 310.185 213.953 312.893 204.664C313.918 201.144 326.01 191.575 332.509 188.228C335.012 196.327 330.26 217.795 321.435 224.699V224.704Z" fill="#733AEF"/>
<path d="M262.684 172.324C265.15 167.338 272.531 157.409 283.223 146.855C284.766 145.333 293.743 151.219 293.132 153.437C290.026 164.743 277.783 175.05 272.576 180.428C268.182 184.96 260.009 177.729 262.688 172.324H262.684Z" fill="#BE83F2"/>
<path d="M242.419 170.149C242.419 170.149 237.775 170.545 232.023 168.977C229.241 168.221 227.55 166.521 227.128 165.691C225.897 163.286 234.661 160.537 236.577 160.92C239.937 161.597 240.241 163.104 241.34 163.487C242.44 163.87 245.185 168.207 242.419 170.144V170.149Z" fill="#DDBEF8"/>
<path d="M242.949 164.481C242.949 164.481 266.237 166.783 269.561 171.148C272.884 175.512 274.747 179.737 269.097 181.632C263.452 183.527 241.854 170.681 241.854 170.681L242.949 164.481Z" fill="#BE83F2"/>
<path d="M280.035 173.145L287.678 163.688C287.678 163.688 288.901 164.855 287.678 166.372C286.456 167.889 282.562 175.638 283.444 178.135C283.444 178.135 279.559 175.797 280.035 173.15V173.145Z" fill="#B673F0"/>
<path opacity="0.08" d="M386.626 244.174C395.618 244.174 402.907 239.202 402.907 233.068C402.907 226.935 395.618 221.963 386.626 221.963C377.635 221.963 370.346 226.935 370.346 233.068C370.346 239.202 377.635 244.174 386.626 244.174Z" fill="black"/>
<path d="M403.091 227.383L403.083 209.089L370.145 209.612L370.153 227.654C370.153 232.593 372.729 236.831 376.426 238.759C382.117 242.433 391.258 242.419 396.912 238.703C397.737 238.162 398.434 237.574 399.021 236.948C401.499 234.707 403.091 231.258 403.091 227.383Z" fill="#B673F0"/>
<path d="M386.626 220.437C395.726 220.437 403.103 215.59 403.103 209.611C403.103 203.633 395.726 198.786 386.626 198.786C377.526 198.786 370.148 203.633 370.148 209.611C370.148 215.59 377.526 220.437 386.626 220.437Z" fill="#BE83F2"/>
<path d="M400.425 212.309C399.744 213.584 398.562 214.783 396.884 215.801C391.218 219.218 382.036 219.218 376.37 215.801C374.691 214.788 373.51 213.588 372.829 212.309C371.204 209.284 372.386 205.825 376.37 203.421C382.036 200.004 391.218 200.004 396.884 203.421C400.872 205.83 402.05 209.284 400.425 212.309Z" fill="#B673F0"/>
<path d="M400.425 212.31C399.744 213.584 398.562 214.784 396.884 215.801C391.218 219.218 382.035 219.218 376.369 215.801C374.691 214.788 373.509 213.589 372.828 212.31C373.513 211.035 374.691 209.836 376.369 208.823C382.035 205.406 391.218 205.406 396.884 208.823C398.562 209.836 399.739 211.035 400.425 212.31Z" fill="#8D25E8"/>
<path d="M392.868 132.625C390.008 148.221 392.552 148.73 392.642 158.682C392.695 164.788 392.753 168.163 391.994 171.818C389.347 156.96 385.154 151.465 392.863 132.62L392.868 132.625Z" fill="#76F5FF"/>
<path d="M391.759 177.219C393.068 187.265 387.508 213.957 387.508 213.957C387.508 213.957 385.005 212.02 384.607 206.32C384.152 199.789 388.788 180.86 390.803 171.155C391.16 173.158 391.488 175.175 391.755 177.219H391.759Z" fill="#76F5FF"/>
<path d="M392.378 132.35L392.866 132.625C392.866 132.625 392.111 134.553 391.672 135.785C386.141 151.629 388.915 155.545 391.348 168.322C391.57 169.484 391.787 170.651 391.996 171.818C392.353 173.821 392.682 175.838 392.948 177.882C394.257 187.928 388.833 214.093 388.833 214.093C388.833 214.093 388.702 214.098 387.75 213.794C388.419 210.993 392.874 185.771 391.762 177.215C391.648 176.333 391.516 175.455 391.381 174.582C391.204 173.434 391.012 172.29 390.811 171.151C388.164 156.292 384.32 152.124 392.382 132.35H392.378Z" fill="#00CCD1"/>
<path d="M409.239 138.749C405.361 152.235 400.208 161.175 398.062 171.099C396.794 176.957 396.138 181.602 395.785 185.435C402.777 172.061 411.097 159.984 409.239 138.749Z" fill="#00CCD1"/>
<path d="M394.406 190.761C390.143 199.995 389.65 213 389.65 213C389.65 213 392.933 211.413 395.013 206.045C397.401 199.892 396.199 195.439 397.138 185.253C396.195 187.059 395.276 188.885 394.41 190.761H394.406Z" fill="#7C84B9"/>
<path d="M409.793 138.675L409.239 138.754C409.239 138.754 409.395 140.911 409.456 142.279C410.096 159.77 403.622 170.857 397.459 182.303C396.897 183.344 396.339 184.39 395.789 185.445C394.845 187.251 393.926 189.076 393.061 190.953C388.798 200.186 388.334 212.632 388.334 212.632C388.334 212.632 388.646 212.93 389.659 213C389.844 210.027 390.788 198.627 394.415 190.762C394.788 189.949 395.178 189.151 395.572 188.357C396.089 187.312 396.61 186.275 397.147 185.253C404.139 171.879 411.725 160.951 409.801 138.679L409.793 138.675Z" fill="#76F5FF"/>
<path d="M390.139 215.19C390.139 215.19 395.604 183.843 407.946 171.795L408.27 172C408.27 172 397.561 207.529 395.03 210.872C393.491 212.902 392.01 214.643 391.091 215.236C390.484 215.628 390.135 215.185 390.135 215.185L390.139 215.19Z" fill="#99A0C9"/>
<path d="M391.09 215.236C391.09 215.236 396.887 183.908 408.269 172C405.286 184.548 398.02 207.711 395.468 211.086C392.912 214.461 391.094 215.241 391.094 215.241L391.09 215.236Z" fill="#76F5FF"/>
<path d="M388.219 213.253C388.219 213.253 392.367 196.695 391.554 188.717C390.742 180.739 389.7 174.54 387.763 164.406C385.699 153.594 385.244 132.504 384.711 128.807C384.645 128.905 384.308 129.031 384.308 129.031C382.877 132.658 380.062 152.152 379.758 159.028C379.438 166.259 382.729 174.479 382.421 181.444C382.294 184.315 380.443 195.831 380.969 201.923C381.49 208.015 384.021 213.323 384.592 213.836C385.162 214.35 386.91 214.574 388.219 213.248V213.253Z" fill="#76F5FF"/>
<path d="M387.746 213.799C387.746 213.799 391.513 197.283 390.7 189.305C389.888 181.327 388.846 175.128 386.909 164.994C384.845 154.182 384.845 132.728 384.308 129.035C382.983 131.084 378.502 147.899 378.904 159.621C379.151 166.856 381.875 175.072 381.567 182.037C381.44 184.908 379.59 196.424 380.115 202.516C380.636 208.608 381.067 213.327 381.633 213.841C382.203 214.354 386.573 214.812 387.746 213.799Z" fill="#00CCD1"/>
<path d="M381.317 144.846C381.226 144.613 382.995 135.711 383.315 135.813C383.635 135.916 384.722 145.943 384.07 144.846C383.417 143.749 383.442 146.774 382.314 146.611C381.883 146.55 382.203 145.453 382.15 144.921C382.067 144.053 381.571 145.518 381.312 144.846H381.317Z" fill="#76F5FF"/>
<path d="M380.401 149.407C380.594 148.576 381.321 148.996 381.415 149.351C381.509 149.705 381.801 150.149 382.235 149.351C382.67 148.552 383.077 148.254 383.343 149.019C383.61 149.785 384.189 149.897 384.275 149.677C384.361 149.458 384.845 150.667 384.964 153.603C385.083 156.544 384.312 154.275 383.901 154.075C383.491 153.874 383.569 157.721 382.793 157.062C382.018 156.404 382.067 154.051 381.682 154.075C381.296 154.098 380.693 157.935 380.282 157.24C379.872 156.544 380.209 150.228 380.401 149.402V149.407Z" fill="#76F5FF"/>
<path d="M380.521 164.817C380.546 163.552 379.939 159.761 380.64 159.953C381.342 160.144 382.101 162.114 382.532 161.517C382.963 160.914 382.667 159.528 383.344 159.948C384.021 160.368 384.148 161.493 384.46 161.246C384.772 160.998 384.538 160.009 384.981 160.149C385.424 160.284 386.549 167.51 386.036 167.179C385.519 166.848 385.191 165.148 384.85 165.723C384.509 166.297 384.362 168.99 383.541 168.416C382.721 167.837 383.02 166.493 382.532 166.712C382.044 166.932 382.589 169.798 381.584 168.878C380.837 168.192 380.521 164.817 380.521 164.817Z" fill="#76F5FF"/>
<path d="M382.063 171.431C382.67 171.053 383.536 173.195 383.852 172.813C384.164 172.43 384.02 171.557 384.672 171.72C385.325 171.879 385.702 173.2 386.035 172.649C386.363 172.098 386.461 171.123 386.798 171.431C387.134 171.739 388.357 177.672 387.746 178.06C387.134 178.447 386.847 176.524 386.363 176.799C385.879 177.075 386.42 179.217 385.62 178.998C384.82 178.779 384.832 177.065 384.34 177.233C383.852 177.401 383.643 179.301 383.314 179.012C382.986 178.722 381.46 171.814 382.067 171.436L382.063 171.431Z" fill="#76F5FF"/>
<path d="M366.092 133.736C366.092 133.736 367.159 147.68 375.886 163.65C376.062 163.972 376.234 164.303 376.403 164.639C376.604 147.227 366.092 133.736 366.092 133.736Z" fill="#76F5FF"/>
<path d="M376.403 164.64C376.383 166.582 376.231 168.566 375.915 170.591C373.203 187.859 379.041 212.745 379.484 213.879C379.928 215.013 383.633 216.148 384.248 215.279C384.744 214.579 385.134 181.888 376.407 164.64H376.403Z" fill="#76F5FF"/>
<path d="M384.12 215.4C384.657 213.253 384.768 180.305 375.865 164.009C367.158 148.082 365.985 133.708 365.977 133.568L366.469 134.264C366.481 134.404 368.393 148.296 376.936 163.925C385.277 179.185 386.11 208.748 385.445 214.714C385.384 215.256 384.124 215.4 384.124 215.405L384.12 215.4Z" fill="#00CCD1"/>
<path d="M383.345 215.12C383.345 215.12 382.192 175.179 368.46 157.249L367.996 157.422C367.996 157.422 372.509 165.866 374.331 176.552C376.584 189.762 376.346 205.951 377.81 208.58C379.419 211.464 381.015 213.981 382.094 214.942C382.808 215.577 383.341 215.12 383.341 215.12H383.345Z" fill="#00CCD1"/>
<path d="M382.098 214.937C382.098 214.937 380.514 174.936 368 157.417C370.347 164.461 371.955 170.212 373.092 177.616C375.205 191.433 376.231 208.332 377.806 211.562C379.681 215.404 382.098 214.933 382.098 214.933V214.937Z" fill="#76F5FF"/>
<path d="M378.109 214.485C378.109 214.485 379.32 207.6 377.461 200.08C375.603 192.559 371.229 186.052 371.093 181.132C369.949 183.755 369.871 193.47 373.128 198.558C376.386 203.646 374.482 211.054 375.324 212.184C376.165 213.314 378.109 214.485 378.109 214.485Z" fill="#00CCD1"/>
<path d="M395.662 213.066C395.662 213.066 395.132 207.263 396.117 204.29C397.102 201.316 400.515 190.995 400.63 188.932C401.783 192.83 401.664 197.526 401.599 200.714C401.533 203.902 397.951 210.956 397.496 211.432C397.04 211.908 395.666 213.07 395.666 213.07L395.662 213.066Z" fill="#76F5FF"/>
<path d="M388.091 216.451C388.091 216.451 390.857 217.982 392.272 215.564C393.688 213.141 396.24 195.332 395.477 185.758C394.919 178.788 397.023 177.341 398.349 170.857C399.674 164.373 399.768 155.77 397.918 149.533C396.896 162.006 391.189 168.873 390.623 182.756C390.397 188.241 386.516 201.303 388.099 216.451H388.091Z" fill="#00CCD1"/>
<path d="M388.969 215.4C388.489 214.99 388.456 211.899 388.649 211.516C388.842 211.134 389.675 213.192 389.97 212.833C390.266 212.473 390.894 211.283 391.255 211.465C391.616 211.647 391.841 212.968 392.079 212.707C392.317 212.445 392.461 212.063 392.678 212.063C392.896 212.063 392.371 215.111 392.079 215.237C391.784 215.363 391.739 214.453 391.509 214.401C391.279 214.35 390.799 215.853 390.434 215.4C390.073 214.952 389.236 215.629 388.965 215.4H388.969Z" fill="#76F5FF"/>
<path d="M388.661 207.992C388.661 207.641 388.931 203.59 389.313 203.281C389.699 202.973 390.097 205.191 390.499 204.878C390.905 204.565 391.27 203.44 391.955 203.561C392.64 203.683 392.505 204.453 392.96 204.425C393.416 204.397 393.605 203.258 393.9 203.767C394.269 204.397 393.518 208.626 393.149 208.435C392.784 208.244 393.079 207.459 392.472 207.413C391.865 207.366 391.073 209.079 390.72 208.44C390.589 208.202 390.195 207.455 389.834 207.529C389.227 207.655 388.648 209 388.652 207.987L388.661 207.992Z" fill="#76F5FF"/>
<path d="M389.314 199.44C389.314 199.44 389.757 194.393 390.138 194.907C390.52 195.42 390.286 196.326 390.819 195.915C391.353 195.504 392.087 193.016 392.736 193.623C393.384 194.23 392.83 195.682 393.523 195.532C394.217 195.383 393.999 194.687 394.36 194.93C394.721 195.173 394.758 200.616 394.254 200.037C393.745 199.458 393.954 198.179 393.4 198.529C392.842 198.884 392.202 200.994 391.636 200.308C391.07 199.622 390.68 198.455 390.352 198.917C390.019 199.379 389.174 200.891 389.322 199.444L389.314 199.44Z" fill="#76F5FF"/>
<path d="M390.783 190.36C390.783 190.36 391.279 185.902 391.751 185.982C392.223 186.061 392.075 188.101 392.547 187.494C393.019 186.887 393.228 185.524 393.519 185.982C393.811 186.439 393.921 188.395 394.213 187.952C394.504 187.508 394.176 187.135 394.504 187.508C394.832 187.882 395.013 191.691 394.631 191.065C394.25 190.44 393.815 189.754 393.671 190.365C393.528 190.972 392.756 190.953 392.617 190.365C392.477 189.777 390.61 192.807 390.783 190.365V190.36Z" fill="#76F5FF"/>
<path d="M391.964 181.37C391.964 181.37 392.149 175.805 392.637 175.679C393.125 175.558 393.092 177.523 393.519 177.229C393.946 176.935 394.04 176.674 394.43 176.856C394.816 177.038 394.639 177.56 394.972 177.659C395.304 177.757 394.639 178.452 394.631 179.722C394.623 180.996 394.578 183.61 394.237 182.523C393.901 181.435 393.499 180.856 393.216 181.696C392.932 182.537 391.796 184.325 391.964 181.37Z" fill="#76F5FF"/>
<path d="M393.947 171.716C394.148 170.852 394.964 166.361 395.518 166.562C396.072 166.763 395.781 168.14 396.117 168.303C396.454 168.467 396.934 167.043 397.369 167.426C397.804 167.809 396.729 174.941 396.47 173.574C396.212 172.206 395.974 171.244 395.781 171.996C395.588 172.752 394.825 175.796 394.628 174.274C394.431 172.752 393.401 174.05 393.947 171.711V171.716Z" fill="#76F5FF"/>
<path d="M397.476 159.957C398.001 158.253 397.808 155.396 398.05 155.891C398.292 156.386 399.014 163.416 398.341 163.416C397.668 163.416 396.897 164.947 396.122 164.657C395.342 164.368 396.95 161.656 397.48 159.952L397.476 159.957Z" fill="#76F5FF"/>
<path d="M382.085 216.451C382.085 216.451 379.397 204.86 381.355 197.601C383.316 190.342 385.548 179.493 383.619 171.427C385.252 172.36 387.271 177.365 387.665 182.257C388.219 189.156 385.605 193.703 385.548 202.512C385.49 211.32 386.496 216.525 385.548 216.703C385.261 216.754 382.302 217.263 382.081 216.446L382.085 216.451Z" fill="#76F5FF"/>
<path d="M382.787 215.045C382.787 215.045 381.658 211.138 381.982 210.816C382.306 210.498 382.134 211.819 382.823 211.819C383.513 211.819 383.574 210.461 383.784 211.031C383.993 211.6 383.935 212.342 384.305 212.3C384.674 212.258 384.817 210.928 385.105 211.399C385.396 211.871 385.54 215.605 385.298 215.279C385.055 214.952 384.625 214.345 384.333 214.742C383.87 215.367 383.898 216.1 383.34 215.815C382.823 215.554 382.782 215.045 382.782 215.045H382.787Z" fill="#00CCD1"/>
<path d="M384.603 204.328C384.603 204.328 384.763 209.528 384.308 208.725C383.853 207.917 382.954 207.894 382.921 208.235C382.888 208.576 382.129 210.186 382.096 209.052C382.068 207.917 381.046 204.272 381.653 203.954C382.261 203.632 382.261 205.308 382.404 204.99C382.548 204.678 382.683 202.526 383.098 202.75C383.512 202.974 383.446 204.51 383.672 204.43C383.898 204.346 384.575 202.768 384.599 204.328H384.603Z" fill="#00CCD1"/>
<path d="M381.821 200.728C381.871 200.061 381.78 197.171 382.384 196.9C382.987 196.63 382.9 198.165 383.319 197.811C383.737 197.456 383.856 196.56 384.074 197.143C384.291 197.727 384.25 198.609 384.464 198.553C384.677 198.497 385.243 199.178 384.849 200.308C384.456 201.438 384.082 202.129 383.885 201.494C383.688 200.859 383.389 200.439 383.138 200.966C382.888 201.494 381.698 202.385 381.821 200.728Z" fill="#00CCD1"/>
<path d="M385.326 195.281C385.326 195.197 386.339 192.56 386.245 191.846C386.15 191.131 385.326 192.672 385.326 191.846C385.326 191.019 385.662 189.932 385.133 190.011C384.604 190.09 384.169 192.308 384.07 191.761C383.972 191.215 384.021 190.496 383.685 191.061C383.348 191.626 382.253 195.501 382.798 195.169C383.348 194.838 383.996 193.876 384.07 194.371C384.144 194.866 383.857 195.715 384.46 195.907C385.063 196.098 385.326 195.277 385.326 195.277V195.281Z" fill="#00CCD1"/>
<path d="M384.699 184.955C384.44 185.776 384.034 187.877 384.247 187.956C384.461 188.031 385.482 186.934 385.622 187.541C385.761 188.143 385.655 189.273 386.25 188.834C386.849 188.395 387.238 184.068 387.041 183.358C386.845 182.653 386.291 186.103 386.147 185.258C386.003 184.413 386.34 182.985 385.856 183.835C385.372 184.684 384.974 186.715 384.982 185.781C384.99 184.847 384.859 184.451 384.699 184.96V184.955Z" fill="#00CCD1"/>
<path d="M385.158 178.872C385.138 179.899 384.773 182.397 385.158 182.126C385.544 181.851 385.762 180.782 386.053 181.547C386.344 182.317 387.313 182.341 387.046 180.982C386.779 179.624 385.548 176.225 385.306 175.689C385.064 175.147 385.171 178.457 385.163 178.872H385.158Z" fill="#00CCD1"/>
</svg>
