<svg width="68" height="68" viewBox="0 0 68 68" fill="none" xmlns="http://www.w3.org/2000/svg">
<path d="M36.1001 36.5C36.5001 36.8 37.2001 36.8 37.5001 36.4L40.4001 33.4C40.8001 33 40.8001 32.5 40.5001 32.1L38.2001 29C39.1001 27.6 39.7001 26.1 40.1001 24.5L43.9001 24C44.4001 23.9 44.8001 23.5 44.8001 23V18.7C44.8001 18.2 44.4001 17.8 43.9001 17.7L40.1001 17.2C39.7001 15.6 39.1001 14.1 38.2001 12.7L40.5001 9.7C40.8001 9.3 40.8001 8.7 40.4001 8.3L37.5001 5.3C37.1001 4.9 36.6001 4.9 36.2001 5.2L33.2001 7.5C31.8001 6.6 30.3001 6 28.7001 5.6L28.2001 1.8C28.0001 1.4 27.6001 1 27.1001 1H22.9001C22.4001 1 22.0001 1.4 21.9001 1.9L21.4001 5.7C19.8001 6.1 18.3001 6.7 16.9001 7.6L13.9001 5.3C13.5001 5 12.9001 5 12.6001 5.4L9.6001 8.4C9.1001 8.7 9.1001 9.2 9.4001 9.6L11.7001 12.7C10.8001 14.1 10.2001 15.6 9.8001 17.2L6.0001 17.7C5.5001 17.8 5.1001 18.2 5.1001 18.7V23C5.1001 23.5 5.5001 23.9 6.0001 24L9.8001 24.5C10.2001 26.1 10.8001 27.6 11.7001 29L9.4001 32.1C9.1001 32.5 9.1001 33.1 9.5001 33.4L12.5001 36.4C12.9001 36.8 13.4001 36.8 13.8001 36.5L16.8001 34.2C18.2001 35.1 19.7001 35.7 21.3001 36.1L21.8001 39.9C21.9001 40.4 22.3001 40.8 22.8001 40.8H27.0001C27.5001 40.8 27.9001 40.4 28.0001 39.9L28.5001 36.1C30.1001 35.7 31.6001 35.1 33.0001 34.2L36.1001 36.5ZM27.5001 34.2C27.1001 34.3 26.8001 34.6 26.7001 35.1L26.2001 38.8H23.7001L23.2001 35.1C23.1001 34.7 22.8001 34.3 22.4001 34.2C20.6001 33.9 18.9001 33.1 17.3001 32.1C16.9001 31.9 16.5001 31.9 16.1001 32.1L13.2001 34.3L11.4001 32.5L13.6001 29.6C13.9001 29.3 13.9001 28.7 13.6001 28.3C12.6001 26.8 11.9001 25.1 11.5001 23.2C11.4001 22.8 11.1001 22.5 10.7001 22.4L7.1001 21.9V19.4L10.7001 18.9C11.1001 18.8 11.5001 18.5 11.6001 18.1C11.9001 16.3 12.7001 14.5 13.7001 13C13.9001 12.6 13.9001 12.2 13.7001 11.8L11.5001 8.9L13.3001 7.1L16.2001 9.3C16.5001 9.6 17.1001 9.6 17.5001 9.3C19.0001 8.3 20.7001 7.6 22.5001 7.2C22.9001 7.1 23.2001 6.8 23.3001 6.3L23.7001 3H26.2001L26.7001 6.7C26.8001 7.1 27.1001 7.5 27.5001 7.6C29.3001 8 31.0001 8.7 32.6001 9.7C33.0001 9.9 33.4001 9.9 33.8001 9.7L36.7001 7.5L38.5001 9.3L36.3001 12.2C36.0001 12.5 36.0001 13 36.3001 13.4C37.3001 14.9 38.1001 16.7 38.4001 18.5C38.5001 18.9 38.8001 19.2 39.3001 19.3L42.9001 19.8V22.3L39.3001 22.8C38.9001 22.9 38.5001 23.2 38.4001 23.6C38.1001 25.4 37.3001 27.2 36.3001 28.7C36.1001 29.1 36.1001 29.5 36.3001 29.9L38.5001 32.8L36.7001 34.6L33.8001 32.4C33.5001 32.1 33.0001 32.1 32.6001 32.4C31.1001 33.2 29.3001 33.9 27.5001 34.2Z" fill="#796EF5"/>
<path d="M25 11.9004C20 11.9004 16 15.9004 16 20.9004C16 25.9004 20 29.9004 25 29.9004C30 29.9004 34 25.9004 34 20.9004C34 15.9004 29.9 11.9004 25 11.9004ZM25 27.9004C21.1 27.9004 18 24.8004 18 20.9004C18 17.0004 21.1 13.9004 25 13.9004C28.9 13.9004 32 17.0004 32 20.9004C32 24.8004 28.8 27.9004 25 27.9004ZM60.1 48.8004L57.3 48.4004C57 47.2004 56.6 46.1004 56 45.1004L57.7 42.9004C58 42.5004 58 41.9004 57.6 41.5004L55.3 39.2004C54.9 38.8004 54.4 38.8004 54 39.1004L51.8 40.8004C50.8 40.2004 49.7 39.7004 48.5 39.4004L48.1 36.6004C48 36.1004 47.6 35.7004 47.1 35.7004H43.8C43.3 35.7004 42.9 36.1004 42.8 36.6004L42.4 39.4004C41.2 39.7004 40.2 40.1004 39.1 40.8004L37 39.2004C36.6 38.9004 36 38.9004 35.7 39.3004L33.4 41.6004C33 42.0004 33 42.5004 33.3 42.9004L35 45.1004C34.4 46.1004 33.9 47.2004 33.7 48.4004L30.9 48.8004C30.4 48.9004 30 49.3004 30 49.8004V53.1004C30 53.6004 30.4 54.0004 30.9 54.1004L33.7 54.5004C34 55.7004 34.4 56.8004 35 57.8004L33.2 60.0004C32.9 60.4004 32.9 61.0004 33.3 61.3004L35.6 63.6004C36 64.0004 36.6 64.0004 37 63.7004L39.2 62.0004C40.2 62.6004 41.3 63.1004 42.5 63.4004L42.9 66.2004C43 66.7004 43.4 67.1004 43.9 67.1004H47.2C47.7 67.1004 48.1 66.7004 48.2 66.2004L48.6 63.4004C49.8 63.1004 50.8 62.7004 51.9 62.0004L54.1 63.7004C54.3 63.8004 54.5 63.9004 54.7 63.9004C55 63.9004 55.3 63.8004 55.5 63.6004L57.8 61.3004C58.2 60.9004 58.2 60.4004 57.9 60.0004L56.2 57.8004C56.8 56.8004 57.3 55.7004 57.5 54.5004L60.3 54.1004C60.8 54.0004 61.2 53.6004 61.2 53.1004V49.8004C60.9 49.3004 60.6 48.9004 60.1 48.8004ZM58.9 52.2004L56.3 52.5004C55.9 52.6004 55.5 52.9004 55.4 53.3004C55.1 54.7004 54.6 56.0004 53.8 57.2004C53.6 57.6004 53.6 58.0004 53.8 58.4004L55.4 60.5004L54.3 61.6004L52.4 60.0004C52.1 59.7004 51.6 59.7004 51.2 60.0004C50 60.8004 48.8 61.3004 47.4 61.6004C47 61.7004 46.7 62.0004 46.6 62.5004L46.2 65.0004H44.7L44.4 62.4004C44.3 62.0004 44 61.6004 43.6 61.5004C42.2 61.2004 40.9 60.7004 39.8 59.9004C39.4 59.7004 39 59.7004 38.6 59.9004L36.5 61.5004L35.4 60.4004L37 58.3004C37.3 58.0004 37.3 57.4004 37 57.1004C36.2 55.9004 35.7 54.7004 35.4 53.3004C35.3 52.9004 35 52.6004 34.5 52.5004L32 52.2004V50.7004L34.6 50.4004C35 50.3004 35.4 50.0004 35.5 49.6004C35.8 48.2004 36.3 46.9004 37.1 45.7004C37.3 45.3004 37.3 44.9004 37.1 44.5004L35.5 42.4004L36.6 41.3004L38.7 42.9004C39 43.2004 39.6 43.2004 39.9 42.9004C41 42.1004 42.3 41.6004 43.7 41.3004C44.1 41.2004 44.4 40.9004 44.5 40.4004L44.8 37.8004H46.3L46.6 40.4004C46.7 40.8004 47 41.2004 47.4 41.3004C48.8 41.6004 50.1 42.1004 51.2 42.9004C51.6 43.1004 52 43.1004 52.4 42.9004L54.5 41.3004L55.6 42.4004L54 44.5004C53.7 44.8004 53.7 45.3004 54 45.7004C54.8 46.9004 55.3 48.2004 55.6 49.6004C55.7 50.0004 56 50.3004 56.5 50.4004L59.1 50.7004V52.2004H58.9Z" fill="#796EF5"/>
<path d="M45.3999 44.4004C41.4999 44.4004 38.3999 47.5004 38.3999 51.4004C38.3999 55.3004 41.4999 58.4004 45.3999 58.4004C49.2999 58.4004 52.3999 55.3004 52.3999 51.4004C52.3999 47.6004 49.2999 44.4004 45.3999 44.4004ZM45.3999 56.5004C42.5999 56.5004 40.3999 54.2004 40.3999 51.5004C40.3999 48.7004 42.5999 46.5004 45.3999 46.5004C48.1999 46.5004 50.3999 48.8004 50.3999 51.5004C50.3999 54.2004 48.1999 56.5004 45.3999 56.5004ZM25.8999 59.8004H8.3999V44.2004L11.0999 46.9004C11.4999 47.3004 12.0999 47.3004 12.4999 46.9004C12.8999 46.5004 12.8999 45.9004 12.4999 45.5004L8.0999 41.0004C7.8999 40.8004 7.6999 40.7004 7.3999 40.7004C7.0999 40.7004 6.8999 40.8004 6.6999 41.0004L2.1999 45.5004C1.7999 45.9004 1.7999 46.5004 2.1999 46.9004C2.5999 47.3004 3.1999 47.3004 3.5999 46.9004L6.3999 44.1004V60.7004C6.3999 61.3004 6.7999 61.7004 7.3999 61.7004H25.8999C26.4999 61.7004 26.8999 61.3004 26.8999 60.7004C26.8999 60.2004 26.3999 59.8004 25.8999 59.8004ZM65.7999 29.2004C65.3999 28.8004 64.7999 28.8004 64.3999 29.2004L61.5999 32.0004V10.4004C61.5999 9.80039 61.1999 9.40039 60.5999 9.40039H46.8999C46.2999 9.40039 45.8999 9.80039 45.8999 10.4004C45.8999 11.0004 46.2999 11.4004 46.8999 11.4004H59.5999V32.0004L56.8999 29.3004C56.4999 28.9004 55.8999 28.9004 55.4999 29.3004C55.0999 29.7004 55.0999 30.3004 55.4999 30.7004L59.8999 35.2004C60.0999 35.4004 60.2999 35.5004 60.5999 35.5004C60.8999 35.5004 61.1999 35.3004 61.2999 35.2004L65.7999 30.7004C66.1999 30.3004 66.1999 29.6004 65.7999 29.2004Z" fill="#796EF5"/>
</svg>
