<svg width="64" height="64" viewBox="0 0 64 64" fill="none" xmlns="http://www.w3.org/2000/svg">
<path d="M58 4H53.1543C52.6241 4.00069 52.1158 4.21162 51.7408 4.58655C51.3659 4.96147 51.155 5.46978 51.1543 6V7.41992H36.4229V6C36.4222 5.46978 36.2112 4.96147 35.8363 4.58655C35.4614 4.21162 34.9531 4.00069 34.4229 4H29.5772C29.0469 4.00069 28.5386 4.21162 28.1637 4.58655C27.7888 4.96147 27.5778 5.46978 27.5772 6V7.41992H12.8457V6C12.845 5.46978 12.6341 4.96147 12.2592 4.58655C11.8842 4.21162 11.3759 4.00069 10.8457 4H6C5.46978 4.00069 4.96147 4.21162 4.58655 4.58655C4.21162 4.96147 4.00069 5.46978 4 6V10.8457C4.00069 11.3759 4.21162 11.8842 4.58655 12.2592C4.96147 12.6341 5.46978 12.845 6 12.8457H7.41992V27.5772H6C5.46978 27.5778 4.96147 27.7888 4.58655 28.1637C4.21162 28.5386 4.00069 29.0469 4 29.5772V34.4229C4.00069 34.9531 4.21162 35.4614 4.58655 35.8363C4.96147 36.2112 5.46978 36.4222 6 36.4229H7.41992V51.1543H6C5.46978 51.155 4.96147 51.3659 4.58655 51.7408C4.21162 52.1158 4.00069 52.6241 4 53.1543V58C4.00069 58.5302 4.21162 59.0385 4.58655 59.4135C4.96147 59.7884 5.46978 59.9993 6 60H10.8457C11.3759 59.9993 11.8842 59.7884 12.2592 59.4135C12.6341 59.0385 12.845 58.5302 12.8457 58V56.5801H27.5772V58C27.5778 58.5302 27.7888 59.0385 28.1637 59.4135C28.5386 59.7884 29.0469 59.9993 29.5772 60H34.4229C34.9531 59.9993 35.4614 59.7884 35.8363 59.4135C36.2112 59.0385 36.4222 58.5302 36.4229 58V56.5801H51.1543V58C51.155 58.5302 51.3659 59.0385 51.7408 59.4135C52.1158 59.7884 52.6241 59.9993 53.1543 60H58C58.5302 59.9993 59.0385 59.7884 59.4135 59.4135C59.7884 59.0385 59.9993 58.5302 60 58V53.1543C59.9993 52.6241 59.7884 52.1158 59.4135 51.7408C59.0385 51.3659 58.5302 51.155 58 51.1543H56.5801V36.4229H58C58.5302 36.4222 59.0385 36.2112 59.4135 35.8363C59.7884 35.4614 59.9993 34.9531 60 34.4229V29.5772C59.9993 29.0469 59.7884 28.5386 59.4135 28.1637C59.0385 27.7888 58.5302 27.5778 58 27.5772H56.5801V12.8457H58C58.5302 12.845 59.0385 12.6341 59.4135 12.2592C59.7884 11.8842 59.9993 11.3759 60 10.8457V6C59.9993 5.46978 59.7884 4.96147 59.4135 4.58655C59.0385 4.21162 58.5302 4.00069 58 4ZM34.4229 5.99805C34.4218 7.21485 34.4236 9.62912 34.4229 10.8457H29.5772V8.43445C29.5639 8.39679 29.5867 6.0383 29.5772 5.99995L34.4229 5.99805ZM5.99805 6H10.8457V10.8457H6L5.99805 6ZM5.99805 29.5772C7.21525 29.5781 9.62865 29.5765 10.8457 29.5772V34.4229H8.43445C8.398 34.4373 6.03745 34.4124 5.99995 34.4229L5.99805 29.5772ZM10.8457 58H6L5.99805 53.1543H10.8457V58ZM29.5772 58C29.5782 56.7837 29.5764 54.3704 29.5772 53.1543L34.4229 53.1523V55.5655C34.4361 55.6032 34.4133 57.9617 34.4229 58H29.5772ZM58 58H53.1543L53.1523 53.1543H58V58ZM58 34.4229C56.7836 34.4217 54.3705 34.4237 53.1543 34.4229L53.1523 29.5772H53.1543C54.3706 29.5781 56.784 29.5765 58 29.5772V34.4229ZM54.5801 27.5772H53.1543C52.6241 27.5778 52.1158 27.7888 51.7408 28.1637C51.3659 28.5386 51.155 29.0469 51.1543 29.5772V34.4229C51.155 34.9531 51.3659 35.4614 51.7408 35.8363C52.1158 36.2112 52.6241 36.4222 53.1543 36.4229H54.5801V51.1543H53.1543C52.6241 51.155 52.1158 51.3659 51.7408 51.7408C51.3659 52.1158 51.155 52.6241 51.1543 53.1543V54.5801H36.4229V53.1543C36.4222 52.6241 36.2112 52.1158 35.8363 51.7408C35.4614 51.3659 34.9531 51.155 34.4229 51.1543H29.5772C29.0469 51.155 28.5386 51.3659 28.1637 51.7408C27.7888 52.1158 27.5778 52.6241 27.5772 53.1543V54.5801H12.8457V53.1543C12.845 52.6241 12.6341 52.1158 12.2592 51.7408C11.8842 51.3659 11.3759 51.155 10.8457 51.1543H9.41992V36.4229H10.8457C11.3759 36.4222 11.8842 36.2112 12.2592 35.8363C12.6341 35.4614 12.845 34.9531 12.8457 34.4229V29.5772C12.845 29.0469 12.6341 28.5386 12.2592 28.1637C11.8842 27.7888 11.3759 27.5778 10.8457 27.5772H9.41992V12.8457H10.8457C11.3759 12.845 11.8842 12.6341 12.2592 12.2592C12.6341 11.8842 12.845 11.3759 12.8457 10.8457V9.41992H27.5772V10.8457C27.5778 11.3759 27.7888 11.8842 28.1637 12.2592C28.5386 12.6341 29.0469 12.845 29.5772 12.8457H34.4229C34.9531 12.845 35.4614 12.6341 35.8363 12.2592C36.2112 11.8842 36.4222 11.3759 36.4229 10.8457V9.41992H51.1543V10.8457C51.155 11.3759 51.3659 11.8842 51.7408 12.2592C52.1158 12.6341 52.6241 12.845 53.1543 12.8457H54.5801V27.5772ZM58 10.8457H53.1543L53.1523 6H58V10.8457Z" fill="#796EF5"/>
<path d="M34.4228 27.5781H29.5771C29.0469 27.5788 28.5386 27.7897 28.1637 28.1647C27.7888 28.5396 27.5778 29.0479 27.5771 29.5781V34.4238C27.5778 34.954 27.7888 35.4624 28.1637 35.8373C28.5386 36.2122 29.0469 36.4231 29.5771 36.4238H34.4228C34.9531 36.4231 35.4614 36.2122 35.8363 35.8373C36.2112 35.4624 36.4222 34.954 36.4228 34.4238V29.5781C36.4222 29.0479 36.2112 28.5396 35.8363 28.1647C35.4614 27.7897 34.9531 27.5788 34.4228 27.5781ZM34.4228 34.4238H29.5771V29.5781L34.4228 29.5761V34.4238Z" fill="#796EF5"/>
</svg>
