<svg width="72" height="72" viewBox="0 0 72 72" fill="none" xmlns="http://www.w3.org/2000/svg">
<path d="M67.2455 60.7786H63.007V24.0993C63.007 23.739 62.8639 23.3935 62.6091 23.1387C62.3544 22.8839 62.0088 22.7408 61.6485 22.7408H53.4297C53.0694 22.7408 52.7238 22.8839 52.4691 23.1387C52.2143 23.3935 52.0712 23.739 52.0712 24.0993V60.7786H46.1889V31.6525C46.1889 31.2922 46.0458 30.9467 45.791 30.6919C45.5363 30.4372 45.1907 30.294 44.8304 30.294H36.6795C36.3192 30.294 35.9737 30.4372 35.7189 30.6919C35.4641 30.9467 35.321 31.2922 35.321 31.6525V60.7786H29.4795V41.9227C29.4795 41.5624 29.3364 41.2169 29.0816 40.9621C28.8268 40.7073 28.4813 40.5642 28.121 40.5642H19.9701C19.6098 40.5642 19.2642 40.7073 19.0095 40.9621C18.7547 41.2169 18.6116 41.5624 18.6116 41.9227V60.7786H14.1421V15.0382C14.1421 14.6779 13.999 14.3323 13.7442 14.0776C13.4895 13.8228 13.1439 13.6797 12.7837 13.6797C12.4234 13.6797 12.0778 13.8228 11.8231 14.0776C11.5683 14.3323 11.4252 14.6779 11.4252 15.0382V62.1371C11.4252 62.4973 11.5683 62.8429 11.8231 63.0976C12.0778 63.3524 12.4234 63.4955 12.7837 63.4955H67.0961C67.4564 63.4955 67.8019 63.3524 68.0567 63.0976C68.3114 62.8429 68.4546 62.4973 68.4546 62.1371C68.4546 61.7768 68.3114 61.4312 68.0567 61.1764C67.8019 60.9217 67.4564 60.7786 67.0961 60.7786H67.2455ZM54.7882 25.4578H60.29V60.7786H54.7882V25.4578ZM38.038 33.011H43.4719V60.7786H38.038V33.011ZM21.2606 43.2812H26.6946V60.7786H21.2606V43.2812ZM4.75497 20.2276H7.20026C7.56055 20.2276 7.90609 20.0845 8.16085 19.8297C8.41562 19.575 8.55875 19.2294 8.55875 18.8691C8.55875 18.5088 8.41562 18.1633 8.16085 17.9085C7.90609 17.6538 7.56055 17.5106 7.20026 17.5106H4.75497C4.39468 17.5106 4.04914 17.6538 3.79438 17.9085C3.53961 18.1633 3.39648 18.5088 3.39648 18.8691C3.39648 19.2294 3.53961 19.575 3.79438 19.8297C4.04914 20.0845 4.39468 20.2276 4.75497 20.2276ZM4.75497 28.365H7.20026C7.56055 28.365 7.90609 28.2218 8.16085 27.9671C8.41562 27.7123 8.55875 27.3668 8.55875 27.0065C8.55875 26.6462 8.41562 26.3006 8.16085 26.0459C7.90609 25.7911 7.56055 25.648 7.20026 25.648H4.75497C4.39468 25.648 4.04914 25.7911 3.79438 26.0459C3.53961 26.3006 3.39648 26.6462 3.39648 27.0065C3.39648 27.3668 3.53961 27.7123 3.79438 27.9671C4.04914 28.2218 4.39468 28.365 4.75497 28.365ZM4.75497 36.4887H7.20026C7.56055 36.4887 7.90609 36.3456 8.16085 36.0909C8.41562 35.8361 8.55875 35.4905 8.55875 35.1303C8.55875 34.77 8.41562 34.4244 8.16085 34.1697C7.90609 33.9149 7.56055 33.7718 7.20026 33.7718H4.75497C4.39468 33.7718 4.04914 33.9149 3.79438 34.1697C3.53961 34.4244 3.39648 34.77 3.39648 35.1303C3.39648 35.4905 3.53961 35.8361 3.79438 36.0909C4.04914 36.3456 4.39468 36.4887 4.75497 36.4887ZM4.75497 44.6261H7.20026C7.56055 44.6261 7.90609 44.483 8.16085 44.2282C8.41562 43.9734 8.55875 43.6279 8.55875 43.2676C8.55875 42.9073 8.41562 42.5618 8.16085 42.307C7.90609 42.0522 7.56055 41.9091 7.20026 41.9091H4.75497C4.39468 41.9091 4.04914 42.0522 3.79438 42.307C3.53961 42.5618 3.39648 42.9073 3.39648 43.2676C3.39648 43.6279 3.53961 43.9734 3.79438 44.2282C4.04914 44.483 4.39468 44.6261 4.75497 44.6261ZM4.75497 52.7635H7.20026C7.56055 52.7635 7.90609 52.6203 8.16085 52.3656C8.41562 52.1108 8.55875 51.7653 8.55875 51.405C8.55875 51.0447 8.41562 50.6991 8.16085 50.4444C7.90609 50.1896 7.56055 50.0465 7.20026 50.0465H4.75497C4.39468 50.0465 4.04914 50.1896 3.79438 50.4444C3.53961 50.6991 3.39648 51.0447 3.39648 51.405C3.39648 51.7653 3.53961 52.1108 3.79438 52.3656C4.04914 52.6203 4.39468 52.7635 4.75497 52.7635ZM4.75497 60.9008H7.20026C7.56055 60.9008 7.90609 60.7577 8.16085 60.5029C8.41562 60.2482 8.55875 59.9026 8.55875 59.5423C8.55875 59.182 8.41562 58.8365 8.16085 58.5817C7.90609 58.327 7.56055 58.1838 7.20026 58.1838H4.75497C4.39468 58.1838 4.04914 58.327 3.79438 58.5817C3.53961 58.8365 3.39648 59.182 3.39648 59.5423C3.39648 59.9026 3.53961 60.2482 3.79438 60.5029C4.04914 60.7577 4.39468 60.9008 4.75497 60.9008Z" fill="#796EF5"/>
<path d="M20.5406 29.724C20.3645 29.7581 20.197 29.8267 20.0475 29.9259C19.8981 30.0251 19.7698 30.1529 19.6701 30.3019C19.5703 30.4509 19.501 30.6182 19.4662 30.7942C19.4314 30.9701 19.4318 31.1512 19.4674 31.327C19.5281 31.641 19.6976 31.9234 19.9461 32.1247C20.1946 32.326 20.5061 32.4332 20.8259 32.4274H21.084C21.9398 32.2508 40.8908 28.3519 54.1225 14.0606L54.0274 15.324C54.005 15.6822 54.1254 16.0347 54.3621 16.3046C54.5988 16.5744 54.9327 16.7395 55.2908 16.764H55.3859C55.7325 16.7646 56.0662 16.6327 56.3188 16.3953C56.5713 16.1579 56.7236 15.833 56.7444 15.487L57.0568 9.93076C57.0719 9.7258 57.0403 9.5201 56.9643 9.32913C56.8884 9.13817 56.7701 8.96693 56.6184 8.8283C56.4667 8.68966 56.2855 8.58726 56.0885 8.52879C55.8915 8.47033 55.6838 8.45732 55.481 8.49076L50.047 9.38736C49.8686 9.4159 49.6976 9.47931 49.5437 9.57395C49.3898 9.66859 49.2561 9.79262 49.1501 9.93895C49.0441 10.0853 48.968 10.251 48.9261 10.4268C48.8842 10.6025 48.8773 10.7848 48.9059 10.9632C48.9344 11.1416 48.9978 11.3126 49.0925 11.4665C49.1871 11.6204 49.3111 11.7542 49.4575 11.8601C49.6038 11.9661 49.7696 12.0422 49.9453 12.0841C50.1211 12.126 50.3033 12.1329 50.4817 12.1043L52.438 11.7919C39.8176 25.8115 20.7444 29.6968 20.5406 29.724Z" fill="#796EF5"/>
</svg>
