<svg width="72" height="72" viewBox="0 0 72 72" fill="none" xmlns="http://www.w3.org/2000/svg">
<path d="M58.0571 68.259H53.0934L51.6502 64.4671C50.8822 64.2281 50.1376 63.9195 49.4257 63.5451L45.7231 65.2026L42.2131 61.6954L43.8724 57.9907C43.4971 57.279 43.1875 56.5346 42.9475 55.7666L39.1567 54.3201V49.3572L42.9475 47.9132C43.1876 47.1443 43.4972 46.3987 43.8724 45.6859L42.2131 41.9844L45.7231 38.4729L49.4257 40.1329C50.1377 39.7584 50.8822 39.4494 51.6502 39.2098L53.0934 35.418H58.0578L59.5036 39.2098C60.2719 39.4497 61.0168 39.7589 61.7291 40.1336L65.4346 38.4729L68.9417 41.9847L67.2828 45.6862C67.6588 46.3987 67.9688 47.144 68.2091 47.9128L71.9999 49.3586L71.9977 54.3201L68.2084 55.7662C67.968 56.5341 67.6581 57.2784 67.2825 57.99L68.9413 61.6954L65.4342 65.2026L61.7287 63.5451C61.0165 63.9189 60.272 64.2276 59.5043 64.4674L58.0571 68.259ZM54.6634 65.9812H56.4886L57.7871 62.5785L58.3523 62.4295C59.3158 62.1745 60.2406 61.7909 61.1016 61.289L61.6063 60.9949L64.932 62.4835L66.2208 61.1943L64.7304 57.8665L65.0256 57.3607C65.5301 56.5028 65.9147 55.5798 66.1686 54.6175L66.3169 54.0505L69.72 52.7523L69.7211 50.9286L66.3166 49.63L66.1686 49.0627C65.9147 48.0995 65.5301 47.1755 65.0256 46.3166L64.7304 45.8108L66.2208 42.4855L64.932 41.1949L61.6063 42.6864L61.1005 42.3912C60.24 41.888 59.3151 41.504 58.3512 41.2496L57.786 41.1006L56.4882 37.6975H54.6634L53.3681 41.1002L52.8022 41.2496C51.8392 41.503 50.9154 41.8868 50.0565 42.3904L49.5503 42.6867L46.2239 41.1949L44.934 42.4858L46.4248 45.8119L46.1278 46.318C45.6238 47.1778 45.2398 48.1024 44.9866 49.0663L44.8372 49.6322L41.4345 50.9282V52.7527L44.8372 54.0505L44.9859 54.6153C45.2398 55.5778 45.6239 56.501 46.1274 57.3596L46.4248 57.8658L44.934 61.1947L46.2239 62.4838L49.5503 60.9949L50.0554 61.2908C50.9151 61.7932 51.8392 62.1764 52.8022 62.4298L53.3681 62.5789L54.6634 65.9812Z" fill="#796EF5"/>
<path d="M55.5768 58.8319C51.7212 58.8319 48.5845 55.6956 48.5845 51.8407C48.5845 47.9848 51.7212 44.8474 55.5768 44.8474C59.4313 44.8474 62.5669 47.9848 62.5669 51.8407C62.5669 55.6956 59.4313 58.8319 55.5768 58.8319ZM55.5768 47.1251C52.9772 47.1251 50.8622 49.2405 50.8622 51.8407C50.8622 54.4396 52.9772 56.5542 55.5768 56.5542C58.1753 56.5542 60.2896 54.4396 60.2896 51.8407C60.2896 49.2405 58.1753 47.1251 55.5768 47.1251ZM0 34.0117H6.47712V36.2895H0V34.0117ZM6.47712 42.6895H13.4417V44.9669H6.47712V42.6895ZM6.47712 47.0254H13.4417V49.3031H6.47712V47.0254ZM6.47712 60.0408H13.4417V62.3185H6.47712V60.0408ZM6.47712 64.3788H13.4417V66.6565H6.47712V64.3788ZM0 38.3479H13.4417V40.6253H0V38.3479ZM0 51.3652H6.47712V53.6429H0V51.3652ZM6.47712 25.3339H13.4417V27.6117H6.47712V25.3339ZM6.47712 29.6719H13.4417V31.9497H6.47712V29.6719ZM0 20.9941H13.4417V23.2719H0V20.9941ZM0 55.7032H13.4417V57.9809H0V55.7032ZM16.1662 60.0419H23.1318V62.3196H16.1662V60.0419ZM16.1662 64.3799H29.6086V66.6573H16.1662V64.3799Z" fill="#796EF5"/>
<path d="M61.3499 14.1133H16.0493V3.74023H61.3499V14.1133ZM18.327 11.8356H59.0722V6.01795H18.327V11.8356Z" fill="#796EF5"/>
<path d="M21.6171 7.78906H23.8959V10.0668H21.6171V7.78906ZM26.1729 7.78906H28.4517V10.0668H26.1729V7.78906ZM30.7283 7.78906H33.0064V10.0668H30.7283V7.78906ZM37.2634 57.9803H16.0493V11.8362H61.3499V34.4391H59.0722V14.1139H18.327V55.7025H37.2634V57.9803Z" fill="#796EF5"/>
<path d="M38.5447 32.5569H36.2669V21.6586C36.2669 21.3565 36.3869 21.0668 36.6006 20.8532C36.8142 20.6395 37.1039 20.5195 37.406 20.5195H41.4718C41.942 20.5184 42.4077 20.6104 42.8421 20.7902C43.2765 20.9701 43.6709 21.2343 44.0026 21.5675C44.3358 21.8992 44.6 22.2936 44.7798 22.728C44.9596 23.1624 45.0515 23.6282 45.0502 24.0983C45.0515 24.5682 44.9597 25.0337 44.7801 25.4679C44.6005 25.9021 44.3366 26.2964 44.0037 26.628C43.6719 26.9615 43.2774 27.2259 42.8428 27.406C42.4082 27.5861 41.9422 27.6782 41.4718 27.6771H38.5447V32.5569ZM38.5447 25.3993H41.4718C41.8199 25.3993 42.1465 25.264 42.3927 25.0177C42.6375 24.7726 42.7732 24.4461 42.7732 24.0983C42.7732 23.7505 42.6375 23.424 42.3923 23.1778C42.2716 23.0567 42.1281 22.9608 41.9701 22.8955C41.8121 22.8302 41.6428 22.7968 41.4718 22.7973H38.5447V25.3993ZM33.9903 32.5569H31.7126V24.0983C31.7126 23.7509 31.5772 23.424 31.331 23.1778C31.2104 23.0568 31.0671 22.9609 30.9093 22.8955C30.7515 22.8302 30.5823 22.7968 30.4115 22.7973H28.7843C28.4373 22.7973 28.1104 22.9326 27.8649 23.1785C27.7435 23.2989 27.6473 23.4422 27.5818 23.6001C27.5163 23.758 27.4828 23.9274 27.4833 24.0983V32.5565H25.2056V24.0983C25.2043 23.6281 25.2964 23.1623 25.4765 22.7279C25.6566 22.2936 25.921 21.8993 26.2546 21.5679C26.5862 21.2346 26.9805 20.9704 27.4147 20.7906C27.849 20.6107 28.3146 20.5187 28.7847 20.5199H30.4119C30.8819 20.5188 31.3476 20.6108 31.7818 20.7906C32.2161 20.9705 32.6104 21.2347 32.942 21.5679C33.2753 21.8995 33.5397 22.2939 33.7197 22.7283C33.8997 23.1627 33.9918 23.6285 33.9907 24.0987L33.9903 32.5569Z" fill="#796EF5"/>
<path d="M25.2061 25.399H33.9904V27.6767H25.2061V25.399ZM48.6143 21.6582H50.8921V31.4174H48.6143V21.6582Z" fill="#796EF5"/>
<path d="M47.3135 20.5195H52.1944V22.7973H47.3135V20.5195ZM47.3135 30.2784H52.1944V32.5561H47.3135V30.2784Z" fill="#796EF5"/>
</svg>
