<svg width="80" height="80" viewBox="0 0 80 80" fill="none" xmlns="http://www.w3.org/2000/svg">
<path d="M67.5 29.5757V29.2257C67.5117 23.1037 65.2632 17.1929 61.1855 12.6265C57.1079 8.06016 51.4882 5.15969 45.4039 4.48125C39.3197 3.80281 33.1991 5.39415 28.2157 8.95015C23.2324 12.5061 19.7371 17.7765 18.4 23.7507H17.8125C13.0883 23.7507 8.55765 25.6274 5.21716 28.9678C1.87667 32.3083 0 36.839 0 41.5632C0 46.2874 1.87667 50.818 5.21716 54.1585C8.55765 57.499 13.0883 59.3757 17.8125 59.3757H18.75V73.1257C18.75 73.7887 19.0134 74.4246 19.4822 74.8935C19.9511 75.3623 20.587 75.6257 21.25 75.6257H58.75C59.413 75.6257 60.0489 75.3623 60.5178 74.8935C60.9866 74.4246 61.25 73.7887 61.25 73.1257V59.3757H65C68.7583 59.3717 72.3782 57.957 75.1433 55.4116C77.9084 52.8661 79.6172 49.3754 79.9316 45.6302C80.2459 41.885 79.1428 38.1583 76.8407 35.1876C74.5386 32.2168 71.2051 30.2185 67.5 29.5882V29.5757ZM56.25 70.6257H23.75V41.8757H56.25V70.6257ZM65 54.3757H61.25V39.3757C61.25 38.7126 60.9866 38.0768 60.5178 37.6079C60.0489 37.1391 59.413 36.8757 58.75 36.8757H21.25C20.587 36.8757 19.9511 37.1391 19.4822 37.6079C19.0134 38.0768 18.75 38.7126 18.75 39.3757V54.3757H17.8125C14.4144 54.3757 11.1555 53.0258 8.75269 50.623C6.34988 48.2202 5 44.9613 5 41.5632C5 38.1651 6.34988 34.9062 8.75269 32.5034C11.1555 30.1006 14.4144 28.7507 17.8125 28.7507C18.5465 28.745 19.2792 28.812 20 28.9507C20.3371 29.0148 20.6837 29.0089 21.0184 28.9332C21.3531 28.8576 21.6686 28.7139 21.9453 28.511C22.222 28.3082 22.4541 28.0505 22.6269 27.7541C22.7997 27.4577 22.9097 27.1289 22.95 26.7882C23.5705 21.7673 26.0847 17.1729 29.9789 13.9435C33.8731 10.7141 38.8534 9.09338 43.9023 9.41253C48.9513 9.73168 53.6879 11.9666 57.1444 15.6606C60.601 19.3547 62.5166 24.2292 62.5 29.2882C62.5008 30.0611 62.4549 30.8333 62.3625 31.6007C62.316 31.9552 62.3461 32.3156 62.4507 32.6574C62.5554 32.9993 62.7321 33.3148 62.9691 33.5826C63.206 33.8503 63.4977 34.0641 63.8243 34.2096C64.1509 34.355 64.505 34.4287 64.8625 34.4257H65C67.6522 34.4257 70.1957 35.4793 72.0711 37.3546C73.9464 39.23 75 41.7735 75 44.4257C75 47.0779 73.9464 49.6214 72.0711 51.4968C70.1957 53.3721 67.6522 54.4257 65 54.4257V54.3757Z" fill="#7764F0"/>
<path d="M48.75 45.625H53.75V66.875H48.75V45.625ZM41.25 51.875H46.25V66.875H41.25V51.875ZM33.75 60.625H38.75V66.875H33.75V60.625ZM26.25 54.375H31.25V66.875H26.25V54.375Z" fill="#7764F0"/>
</svg>
