<svg width="93" height="93" viewBox="0 0 93 93" fill="none" xmlns="http://www.w3.org/2000/svg">
<path d="M83.2625 35.6769H57.6511C53.0989 35.6769 49.4087 39.3672 49.4087 43.9194C49.4087 48.4717 53.0989 52.162 57.6511 52.162H83.2625C87.8147 52.162 91.5051 48.4717 91.5051 43.9194C91.5051 39.3672 87.8147 35.6769 83.2625 35.6769ZM29.4468 57.267H9.98682C5.43457 57.267 1.74439 60.9573 1.74439 65.5095C1.74439 70.0618 5.43458 73.7521 9.98682 73.7521H29.4468C33.999 73.7521 37.6892 70.0618 37.6892 65.5095C37.6892 60.9573 33.999 57.267 29.4468 57.267ZM9.73731 31.6511H17.6155C22.1677 31.6511 25.8579 27.9609 25.8579 23.4087C25.8579 18.8565 22.1677 15.166 17.6155 15.166H9.73731C5.18506 15.166 1.49463 18.8564 1.49463 23.4087C1.49463 27.9609 5.18506 31.6511 9.73731 31.6511Z" fill="#E5E2F6"/>
<path d="M6.43796 48.6328C7.61102 48.6328 8.56196 47.6818 8.56196 46.5088C8.56196 45.3357 7.61102 44.3848 6.43796 44.3848C5.26491 44.3848 4.31396 45.3357 4.31396 46.5088C4.31396 47.6818 5.26491 48.6328 6.43796 48.6328Z" fill="#E5E2F6"/>
<path d="M66.479 38.9977C66.479 43.766 64.8773 48.1388 62.1927 51.6035C58.5368 56.3392 52.8598 59.3752 46.5027 59.3752C40.1457 59.3752 34.4687 56.3392 30.7969 51.6035C28.1117 48.1388 26.5107 43.766 26.5107 38.9977C26.5107 34.4932 27.9339 30.3352 30.3602 26.9691C33.9996 21.887 39.8709 18.6035 46.5028 18.6035C53.1346 18.6035 59.006 21.887 62.6295 26.9691C65.0557 30.3352 66.479 34.4932 66.479 38.9977Z" fill="white"/>
<path d="M46.2038 59.3774C52.1905 59.3774 57.0438 50.2511 57.0438 38.9934C57.0438 27.7356 52.1905 18.6094 46.2038 18.6094C40.217 18.6094 35.3638 27.7356 35.3638 38.9934C35.3638 50.2511 40.217 59.3774 46.2038 59.3774Z" fill="white"/>
<path d="M46.5029 18.1035C34.7881 18.1035 26.0107 27.8213 26.0107 38.9976C26.0107 50.7603 35.4304 59.8748 46.4939 59.8748C46.4961 59.8748 46.4978 59.876 46.5 59.876C46.5017 59.876 46.5034 59.875 46.5051 59.875C57.9873 59.875 66.979 50.3655 66.979 38.9976C66.979 27.2472 57.585 18.1035 46.5029 18.1035ZM65.9685 38.7163H57.5349C57.5115 35.5394 57.0984 32.5386 56.3843 29.852C58.7068 29.2917 60.7783 28.5386 62.4609 27.6189C64.7046 30.8763 65.9141 34.6958 65.9685 38.7163ZM47 39.7163H56.5188C56.4563 42.9628 55.9973 46.0123 55.2168 48.6816C52.6821 48.1625 49.8931 47.8787 47 47.8485V39.7163ZM61.8838 26.8135C60.2883 27.6692 58.3137 28.3638 56.1216 28.8904C54.8254 24.5914 52.7273 21.2358 50.2041 19.4755C54.7141 20.3689 58.9319 22.9042 61.8838 26.8135ZM47 19.1859C50.4951 19.7017 53.5046 23.5651 55.1655 29.1166C52.6458 29.646 49.8618 29.9397 47 29.9712V19.1859ZM55.4329 30.0764C56.1169 32.6838 56.5122 35.6125 56.5349 38.7163H47V30.9705C49.9507 30.9386 52.8252 30.6296 55.4329 30.0764ZM46 38.7163H35.8733C35.8965 35.5635 36.3025 32.5896 37.0066 29.9517C39.7605 30.5809 42.8342 30.9358 46 30.9705V38.7163ZM46 29.9711C42.9236 29.937 39.9478 29.5918 37.2835 28.9875C39.0466 23.1963 42.2827 19.2689 46 19.1283V29.9711ZM41.9138 19.6716C39.5442 21.4631 37.5779 24.6892 36.3289 28.762C34.3516 28.252 32.5715 27.599 31.1072 26.8138C33.7488 23.3274 37.5667 20.7543 41.9138 19.6716ZM36.0601 29.7144C35.3232 32.4354 34.8972 35.4854 34.8735 38.7163H27.0213C27.0757 34.6963 28.2852 30.8773 30.5291 27.6189C32.0779 28.4653 33.9573 29.1702 36.0601 29.7144ZM27.0388 39.7163H34.8899C34.9541 43.0842 35.4399 46.2549 36.2739 49.0363C34.2839 49.5376 32.4875 50.1864 30.9592 50.9695C28.5239 47.6953 27.1814 43.8274 27.0388 39.7163ZM41.8713 58.3047C37.9832 57.3401 34.3799 55.1548 31.582 51.7593C33.0234 51.0413 34.7144 50.4456 36.5757 49.9807C37.832 53.6949 39.6985 56.6404 41.9214 58.3174C41.9045 58.3134 41.8879 58.3088 41.8713 58.3047ZM46 58.8561C42.45 58.7218 39.3362 55.1296 37.5264 49.7668C40.1165 49.1996 42.9944 48.8801 46 48.8479V58.8561ZM37.2271 48.8079C36.4246 46.1086 35.9531 43.0134 35.8897 39.7163H46V47.8486C42.894 47.8813 39.9116 48.2131 37.2271 48.8079ZM47 48.8478C49.7961 48.8773 52.4861 49.1488 54.9292 49.6427C53.2263 54.7739 50.3311 58.3069 47 58.7985V48.8478ZM50.2002 58.5115C52.5723 56.8585 54.5657 53.783 55.8755 49.856C57.9499 50.3369 59.8332 50.9711 61.4077 51.7584C56.8645 57.2939 51.8193 57.8951 50.2002 58.5115ZM56.1707 48.9019C56.9822 46.1539 57.4551 43.032 57.5186 39.7163H65.9509C65.8083 43.8267 64.4663 47.6938 62.031 50.969C60.3674 50.1133 58.3796 49.4192 56.1707 48.9019Z" fill="#7764F0"/>
<path d="M46.394 81.4274H17.7087C15.8781 81.4274 14.394 79.9434 14.394 78.1127V38.3049C14.394 36.4743 15.8781 34.9902 17.7087 34.9902H37.6928C42.4983 34.9902 46.394 38.8859 46.394 43.6915V81.4274ZM75.0793 81.4274H46.394V43.6915C46.394 38.8859 50.2897 34.9902 55.0953 34.9902H75.0793C76.91 34.9902 78.3941 36.4743 78.3941 38.3049V78.1127C78.3941 79.9434 76.91 81.4274 75.0793 81.4274Z" fill="white"/>
<path d="M75.0776 33.9863H55.0977C51.2776 33.9863 47.9775 36.2164 46.3975 39.4264C44.8076 36.2164 41.5076 33.9863 37.6975 33.9863H17.7075C15.3276 33.9863 13.3975 35.9264 13.3975 38.3063V78.1163C13.3975 80.4963 15.3276 82.4264 17.7075 82.4264H75.0776C77.4575 82.4264 79.3975 80.4963 79.3975 78.1163V38.3063C79.3975 35.9264 77.4575 33.9863 75.0776 33.9863ZM45.3975 80.4264H17.7075C16.4277 80.4264 15.3975 79.3863 15.3975 78.1163V38.3063C15.3975 37.0264 16.4277 35.9863 17.7075 35.9863H37.6975C41.9375 35.9863 45.3975 39.4464 45.3975 43.6864V80.4264ZM77.3975 78.1163C77.3975 79.3863 76.3577 80.4264 75.0776 80.4264H47.3975V43.6864C47.3975 39.4464 50.8477 35.9863 55.0977 35.9863H75.0776C76.3577 35.9863 77.3975 37.0264 77.3975 38.3063V78.1163Z" fill="#010101"/>
<path d="M18.394 77.4277V38.9902H37.6929C40.2852 38.9902 42.394 41.0991 42.394 43.6914V77.4277H18.394ZM50.3941 77.4277V43.6914C50.3941 41.0991 52.5032 38.9902 55.0955 38.9902H74.3941V77.4277H50.3941Z" fill="#7764F0"/>
<path d="M39.1829 44.8672H21.606C21.1916 44.8672 20.856 44.5312 20.856 44.1172C20.856 43.7031 21.1916 43.3672 21.606 43.3672H39.1829C39.5972 43.3672 39.9329 43.7031 39.9329 44.1172C39.9329 44.5312 39.5972 44.8672 39.1829 44.8672ZM39.1829 51.9136H21.606C21.1916 51.9136 20.856 51.5776 20.856 51.1636C20.856 50.7495 21.1916 50.4136 21.606 50.4136H39.1829C39.5972 50.4136 39.9329 50.7495 39.9329 51.1636C39.9329 51.5776 39.5972 51.9136 39.1829 51.9136ZM39.1829 58.96H21.606C21.1916 58.96 20.856 58.624 20.856 58.21C20.856 57.7959 21.1916 57.46 21.606 57.46H39.1829C39.5972 57.46 39.9329 57.7959 39.9329 58.21C39.9329 58.624 39.5972 58.96 39.1829 58.96ZM39.1829 66.0059H21.606C21.1916 66.0059 20.856 65.6699 20.856 65.2559C20.856 64.8418 21.1916 64.5059 21.606 64.5059H39.1829C39.5972 64.5059 39.9329 64.8418 39.9329 65.2559C39.9329 65.6699 39.5972 66.0059 39.1829 66.0059ZM39.1829 73.0522H21.606C21.1916 73.0522 20.856 72.7163 20.856 72.3022C20.856 71.8882 21.1916 71.5522 21.606 71.5522H39.1829C39.5972 71.5522 39.9329 71.8882 39.9329 72.3022C39.9329 72.7163 39.5972 73.0522 39.1829 73.0522ZM71.1829 44.8672H53.606C53.1916 44.8672 52.856 44.5312 52.856 44.1172C52.856 43.7031 53.1916 43.3672 53.606 43.3672H71.1829C71.5972 43.3672 71.9329 43.7031 71.9329 44.1172C71.9329 44.5312 71.5972 44.8672 71.1829 44.8672ZM71.1829 51.9136H53.606C53.1916 51.9136 52.856 51.5776 52.856 51.1636C52.856 50.7495 53.1916 50.4136 53.606 50.4136H71.1829C71.5972 50.4136 71.9329 50.7495 71.9329 51.1636C71.9329 51.5776 71.5972 51.9136 71.1829 51.9136ZM71.1829 58.96H53.606C53.1916 58.96 52.856 58.624 52.856 58.21C52.856 57.7959 53.1916 57.46 53.606 57.46H71.1829C71.5972 57.46 71.9329 57.7959 71.9329 58.21C71.9329 58.624 71.5972 58.96 71.1829 58.96ZM71.1829 66.0059H53.606C53.1916 66.0059 52.856 65.6699 52.856 65.2559C52.856 64.8418 53.1916 64.5059 53.606 64.5059H71.1829C71.5972 64.5059 71.9329 64.8418 71.9329 65.2559C71.9329 65.6699 71.5972 66.0059 71.1829 66.0059ZM71.1829 73.0522H53.606C53.1916 73.0522 52.856 72.7163 52.856 72.3022C52.856 71.8882 53.1916 71.5522 53.606 71.5522H71.1829C71.5972 71.5522 71.9329 71.8882 71.9329 72.3022C71.9329 72.7163 71.5972 73.0522 71.1829 73.0522Z" fill="white"/>
<path d="M63.662 17.1903C65.4895 17.1903 66.971 15.7088 66.971 13.8813C66.971 12.0538 65.4895 10.5723 63.662 10.5723C61.8345 10.5723 60.353 12.0538 60.353 13.8813C60.353 15.7088 61.8345 17.1903 63.662 17.1903Z" fill="#D7D4EB"/>
<path d="M83.1001 28.7929C84.2731 28.7929 85.2241 27.842 85.2241 26.6689C85.2241 25.4959 84.2731 24.5449 83.1001 24.5449C81.927 24.5449 80.9761 25.4959 80.9761 26.6689C80.9761 27.842 81.927 28.7929 83.1001 28.7929Z" fill="#DDD8FE"/>
<path d="M85.2241 76.5488C86.3972 76.5488 87.3481 75.5978 87.3481 74.4248C87.3481 73.2517 86.3972 72.3008 85.2241 72.3008C84.051 72.3008 83.1001 73.2517 83.1001 74.4248C83.1001 75.5978 84.051 76.5488 85.2241 76.5488Z" fill="#E2DFF8"/>
<path d="M33.534 16.4508C34.2431 16.4508 34.818 15.8759 34.818 15.1668C34.818 14.4577 34.2431 13.8828 33.534 13.8828C32.8249 13.8828 32.25 14.4577 32.25 15.1668C32.25 15.8759 32.8249 16.4508 33.534 16.4508Z" fill="#DBD6FD"/>
</svg>
