<svg width="70" height="70" viewBox="0 0 70 70" fill="none" xmlns="http://www.w3.org/2000/svg">
<path d="M47.1898 27.8414C45.3152 25.8048 42.7783 24.5001 40.0312 24.1598C40.9861 23.5519 41.7993 22.7458 42.4156 21.7962C43.0319 20.8467 43.437 19.7758 43.6034 18.6561C44.1473 18.4618 44.6307 18.1285 45.0056 17.6892C45.615 16.9709 45.9457 16.0575 45.9375 15.1156C45.9405 14.5994 45.8398 14.0878 45.6412 13.6113C45.4426 13.1348 45.1502 12.7031 44.7814 12.3419C44.8172 12.2419 44.8382 12.1373 44.8438 12.0312V9.40625C44.8438 4.88688 41.7583 2.1875 36.5892 2.1875H33.4108C28.2417 2.1875 25.1562 4.88688 25.1562 9.40625V12.0312C25.1618 12.1373 25.1828 12.2419 25.2186 12.3419C24.8498 12.7031 24.5574 13.1348 24.3588 13.6113C24.1602 14.0878 24.0595 14.5994 24.0625 15.1156C24.0428 15.8735 24.256 16.6192 24.6733 17.2521C25.0907 17.885 25.6922 18.3746 26.3966 18.655C26.5446 19.7652 26.9397 20.8282 27.5527 21.7656C28.1881 22.7229 29.0139 23.539 29.9786 24.1631C27.2278 24.5019 24.6871 25.8076 22.8102 27.8469C16.287 28.3992 2.1875 30.1667 2.1875 35C2.1875 38.5602 9.80438 40.4545 16.5386 41.4356C17.6936 45.7877 26.5902 48.125 35 48.125C43.4098 48.125 52.3064 45.7877 53.4614 41.4356C60.1956 40.4534 67.8125 38.5591 67.8125 35C67.8125 30.1667 53.713 28.3992 47.1898 27.8414ZM40.3616 26.4195C42.4108 26.8085 44.2762 27.8581 45.6725 29.4076C47.0688 30.9572 47.9191 32.9214 48.0933 35H39.5938L40.3616 26.4195ZM27.3438 9.40625C27.3438 5.03125 31.1445 4.375 33.4108 4.375H36.5892C38.8555 4.375 42.6562 5.03125 42.6562 9.40625V10.7931C41.8178 10.5591 41.0641 10.0891 40.4852 9.43906L38.9911 7.79844C38.8859 7.69022 38.7601 7.60419 38.621 7.54545C38.482 7.48671 38.3326 7.45645 38.1817 7.45645C38.0308 7.45645 37.8814 7.48671 37.7424 7.54545C37.6034 7.60419 37.4775 7.69022 37.3723 7.79844C36.5128 8.77646 35.4563 9.56172 34.2719 10.1027C33.0876 10.6437 31.8023 10.9282 30.5003 10.9375H27.3438V9.40625ZM29.388 20.5625C28.8326 19.7231 28.5328 18.7405 28.525 17.7341C28.525 17.444 28.4098 17.1658 28.2046 16.9607C27.9995 16.7555 27.7213 16.6403 27.4312 16.6403C27.0756 16.5878 26.754 16.3998 26.5339 16.1156C26.3137 15.8314 26.212 15.4731 26.25 15.1156C26.2156 14.7593 26.3188 14.4034 26.5385 14.1207C26.7581 13.838 27.0775 13.6501 27.4312 13.5953C27.6042 13.5932 27.774 13.5493 27.9264 13.4674C28.0787 13.3855 28.209 13.2681 28.3062 13.125H30.5003C32.8781 13.1073 35.19 12.342 37.1088 10.9375H38.8938C39.6175 11.7255 40.5168 12.3318 41.5187 12.7072C41.5631 12.9547 41.6925 13.1789 41.8847 13.341C42.0768 13.5032 42.3195 13.5931 42.5709 13.5953C42.9243 13.6506 43.2432 13.8387 43.4623 14.1214C43.6815 14.404 43.7844 14.7596 43.75 15.1156C43.7577 15.5336 43.6148 15.9405 43.3475 16.2619C43.253 16.3782 43.1345 16.4728 43.0001 16.5393C42.8657 16.6057 42.7186 16.6424 42.5687 16.6469C42.2787 16.6469 42.0005 16.7621 41.7954 16.9672C41.5902 17.1723 41.475 17.4505 41.475 17.7406C41.4348 18.794 41.1052 19.8159 40.5226 20.6943C39.9399 21.5727 39.1266 22.2737 38.1719 22.7205L36.1014 23.7989C35.7605 23.9641 35.3865 24.05 35.0077 24.05C34.6288 24.05 34.2548 23.9641 33.9139 23.7989L31.8358 22.715C30.8482 22.2231 30.0049 21.4837 29.388 20.5691V20.5625ZM38.1795 26.25L37.5725 33.087L36.2873 31.3173L37.9761 26.25H38.1795ZM35 33.2686L36.2578 35H33.7422L35 33.2686ZM34.3295 26.25H35.6705L35 28.2603L34.3295 26.25ZM33.7127 31.3173L32.4275 33.087L31.8205 26.25H32.0239L33.7127 31.3173ZM29.6406 26.4163L30.4062 35H21.9067C22.0804 32.9206 22.9306 30.9553 24.3274 29.4051C25.7242 27.8548 27.5905 26.805 29.6406 26.4163ZM35 45.9375C27.1928 45.9375 21.0427 43.9414 19.1855 41.7813C24.4357 42.378 29.716 42.6702 35 42.6562C40.284 42.6702 45.5643 42.3781 50.8145 41.7813C48.9573 43.9414 42.8072 45.9375 35 45.9375ZM52.3512 39.3848C46.598 40.1312 40.8014 40.4933 35 40.4688C29.1982 40.4932 23.4013 40.1311 17.6477 39.3848C6.81297 37.905 4.375 35.6672 4.375 35C4.375 33.9784 8.65375 31.4595 21.1028 30.1995C20.1717 31.9108 19.6851 33.8284 19.6875 35.7766V36.0938C19.6875 36.3838 19.8027 36.662 20.0079 36.8671C20.213 37.0723 20.4912 37.1875 20.7812 37.1875H49.2188C49.5088 37.1875 49.787 37.0723 49.9921 36.8671C50.1973 36.662 50.3125 36.3838 50.3125 36.0938V35.7766C50.3151 33.828 49.8285 31.91 48.8972 30.1984C61.3463 31.4595 65.625 33.9784 65.625 35C65.625 35.6672 63.187 37.905 52.3512 39.3848ZM54.7444 7.10938C54.6804 7.30003 54.6703 7.50462 54.715 7.70067C54.7598 7.89671 54.8578 8.07662 54.9981 8.22062L57.3475 10.6269L56.7908 14.0394C56.7577 14.242 56.7824 14.4498 56.8619 14.6391C56.9414 14.8284 57.0726 14.9914 57.2405 15.1096C57.4083 15.2279 57.6061 15.2964 57.8111 15.3076C58.0161 15.3187 58.22 15.2719 58.3997 15.1725L61.25 13.6008L64.1003 15.1758C64.28 15.2752 64.4839 15.322 64.6889 15.3108C64.8939 15.2997 65.0917 15.2311 65.2595 15.1129C65.4274 14.9947 65.5586 14.8317 65.6381 14.6424C65.7176 14.4531 65.7423 14.2453 65.7092 14.0427L65.1525 10.6302L67.5019 8.22391C67.6423 8.07997 67.7404 7.90009 67.7853 7.70404C67.8301 7.50799 67.8201 7.30337 67.7562 7.11266C67.6923 6.92195 67.5771 6.75255 67.4232 6.62307C67.2693 6.4936 67.0827 6.40906 66.8839 6.37875L63.6825 5.88984L62.2398 2.81641C62.1515 2.6285 62.0115 2.46962 61.8362 2.35834C61.661 2.24705 61.4576 2.18795 61.25 2.18795C61.0424 2.18795 60.839 2.24705 60.6638 2.35834C60.4885 2.46962 60.3485 2.6285 60.2602 2.81641L58.8175 5.88875L55.6161 6.37766C55.4176 6.40788 55.2313 6.49214 55.0776 6.6212C54.9238 6.75027 54.8085 6.91916 54.7444 7.10938ZM59.7253 7.96141C59.9029 7.9342 60.071 7.86369 60.2148 7.75611C60.3586 7.64852 60.4738 7.50717 60.55 7.34453L61.25 5.85594L61.95 7.34672C62.0262 7.50935 62.1414 7.65071 62.2852 7.75829C62.429 7.86588 62.5971 7.93639 62.7747 7.96359L64.4492 8.21953L63.2013 9.49813C63.0818 9.62063 62.9928 9.76945 62.9413 9.93263C62.8898 10.0958 62.8773 10.2688 62.9048 10.4377L63.1881 12.1723L61.7794 11.3936C61.6173 11.304 61.4352 11.2569 61.25 11.2569C61.0648 11.2569 60.8827 11.304 60.7206 11.3936L59.3119 12.1723L59.5952 10.4377C59.6227 10.2688 59.6102 10.0958 59.5587 9.93263C59.5072 9.76945 59.4182 9.62063 59.2987 9.49813L58.0508 8.21953L59.7253 7.96141Z" fill="#796EF5"/>
<path d="M4.84747 19.3797L4.29075 22.7922C4.25771 22.9948 4.28236 23.2027 4.36189 23.3919C4.44141 23.5812 4.5726 23.7443 4.74045 23.8625C4.9083 23.9807 5.10603 24.0493 5.31103 24.0604C5.51603 24.0715 5.72001 24.0247 5.89966 23.9253L8.74997 22.3503L11.6003 23.9253C11.7799 24.0247 11.9839 24.0715 12.1889 24.0604C12.3939 24.0493 12.5916 23.9807 12.7595 23.8625C12.9273 23.7443 13.0585 23.5812 13.1381 23.3919C13.2176 23.2027 13.2422 22.9948 13.2092 22.7922L12.6525 19.3797L15.0018 16.9735C15.1423 16.8295 15.2404 16.6496 15.2852 16.4536C15.3301 16.2575 15.3201 16.0529 15.2562 15.8622C15.1923 15.6715 15.0771 15.5021 14.9232 15.3726C14.7693 15.2431 14.5827 15.1586 14.3839 15.1283L11.1825 14.6394L9.73435 11.566C9.64602 11.3781 9.50604 11.2192 9.33075 11.1079C9.15547 10.9966 8.95213 10.9375 8.7445 10.9375C8.53688 10.9375 8.33354 10.9966 8.15826 11.1079C7.98297 11.2192 7.84299 11.3781 7.75466 11.566L6.31747 14.6383L3.11607 15.1272C2.91725 15.1575 2.73063 15.2421 2.57674 15.3715C2.42284 15.501 2.30762 15.6704 2.24375 15.8611C2.17988 16.0518 2.16983 16.2564 2.2147 16.4525C2.25958 16.6485 2.35763 16.8284 2.4981 16.9724L4.84747 19.3797ZM7.22529 16.7131C7.40283 16.6859 7.57095 16.6154 7.71478 16.5078C7.85861 16.4003 7.97373 16.2589 8.04997 16.0963L8.74997 14.6055L9.44997 16.0963C9.52622 16.2589 9.64134 16.4003 9.78517 16.5078C9.929 16.6154 10.0971 16.6859 10.2747 16.7131L11.9492 16.9691L10.7012 18.2477C10.5818 18.3702 10.4927 18.519 10.4412 18.6822C10.3898 18.8454 10.3773 19.0183 10.4048 19.1872L10.6881 20.9219L9.27935 20.1431C9.1173 20.0535 8.93515 20.0065 8.74997 20.0065C8.56479 20.0065 8.38264 20.0535 8.2206 20.1431L6.81185 20.9219L7.09513 19.1872C7.12266 19.0183 7.11018 18.8454 7.0587 18.6822C7.00722 18.519 6.91818 18.3702 6.79872 18.2477L5.55075 16.9691L7.22529 16.7131ZM38.2812 64.5308V55.7808C38.2812 54.9106 37.9355 54.076 37.3202 53.4606C36.7048 52.8452 35.8702 52.4995 35 52.4995C34.1297 52.4995 33.2951 52.8452 32.6798 53.4606C32.0644 54.076 31.7187 54.9106 31.7187 55.7808V64.5308C31.7187 65.401 32.0644 66.2356 32.6798 66.851C33.2951 67.4663 34.1297 67.812 35 67.812C35.8702 67.812 36.7048 67.4663 37.3202 66.851C37.9355 66.2356 38.2812 65.401 38.2812 64.5308ZM33.9062 64.5308V55.7808C33.9062 55.4907 34.0215 55.2125 34.2266 55.0074C34.4317 54.8023 34.7099 54.687 35 54.687C35.2901 54.687 35.5683 54.8023 35.7734 55.0074C35.9785 55.2125 36.0937 55.4907 36.0937 55.7808V64.5308C36.0937 64.8209 35.9785 65.0991 35.7734 65.3042C35.5683 65.5093 35.2901 65.6245 35 65.6245C34.7099 65.6245 34.4317 65.5093 34.2266 65.3042C34.0215 65.0991 33.9062 64.8209 33.9062 64.5308ZM49.2187 61.2495V52.4995C49.2187 51.6293 48.873 50.7947 48.2577 50.1794C47.6423 49.564 46.8077 49.2183 45.9375 49.2183C45.0672 49.2183 44.2326 49.564 43.6173 50.1794C43.0019 50.7947 42.6562 51.6293 42.6562 52.4995V61.2495C42.6562 62.1198 43.0019 62.9544 43.6173 63.5697C44.2326 64.1851 45.0672 64.5308 45.9375 64.5308C46.8077 64.5308 47.6423 64.1851 48.2577 63.5697C48.873 62.9544 49.2187 62.1198 49.2187 61.2495ZM44.8437 61.2495V52.4995C44.8437 52.2095 44.959 51.9313 45.1641 51.7261C45.3692 51.521 45.6474 51.4058 45.9375 51.4058C46.2275 51.4058 46.5057 51.521 46.7109 51.7261C46.916 51.9313 47.0312 52.2095 47.0312 52.4995V61.2495C47.0312 61.5396 46.916 61.8178 46.7109 62.0229C46.5057 62.2281 46.2275 62.3433 45.9375 62.3433C45.6474 62.3433 45.3692 62.2281 45.1641 62.0229C44.959 61.8178 44.8437 61.5396 44.8437 61.2495ZM27.3437 61.2495V52.4995C27.3437 51.6293 26.998 50.7947 26.3827 50.1794C25.7673 49.564 24.9327 49.2183 24.0625 49.2183C23.1922 49.2183 22.3576 49.564 21.7423 50.1794C21.1269 50.7947 20.7812 51.6293 20.7812 52.4995V61.2495C20.7812 62.1198 21.1269 62.9544 21.7423 63.5697C22.3576 64.1851 23.1922 64.5308 24.0625 64.5308C24.9327 64.5308 25.7673 64.1851 26.3827 63.5697C26.998 62.9544 27.3437 62.1198 27.3437 61.2495ZM22.9687 61.2495V52.4995C22.9687 52.2095 23.084 51.9313 23.2891 51.7261C23.4942 51.521 23.7724 51.4058 24.0625 51.4058C24.3526 51.4058 24.6308 51.521 24.8359 51.7261C25.041 51.9313 25.1562 52.2095 25.1562 52.4995V61.2495C25.1562 61.5396 25.041 61.8178 24.8359 62.0229C24.6308 62.2281 24.3526 62.3433 24.0625 62.3433C23.7724 62.3433 23.4942 62.2281 23.2891 62.0229C23.084 61.8178 22.9687 61.5396 22.9687 61.2495Z" fill="#796EF5"/>
</svg>
