<svg width="70" height="70" viewBox="0 0 70 70" fill="none" xmlns="http://www.w3.org/2000/svg">
<path d="M68.0111 43.1449C65.9626 32.4602 64.6092 25.401 56.6862 22.0945C54.4594 21.1877 52.0743 20.7333 49.6701 20.7576H48.2546C47.3187 18.6862 45.2699 17.5424 42.4592 17.5424H38.2805V15.3206C38.2801 14.7405 38.0495 14.1842 37.6395 13.7739C37.2294 13.3636 36.6733 13.1327 36.0932 13.1319V11.3253C36.0992 10.475 35.7696 9.65666 35.176 9.04784C34.5824 8.43903 33.7727 8.08884 32.9225 8.07328H32.9206L28.3427 7.86653C27.8192 7.83871 27.3246 7.61761 26.9547 7.24605C26.5848 6.87449 26.3659 6.37889 26.3405 5.85522L26.2484 4.31204C26.2403 4.16828 26.204 4.02752 26.1414 3.89783C26.0789 3.76815 25.9913 3.65209 25.8838 3.55632C25.7763 3.46055 25.6509 3.38695 25.5149 3.33975C25.3789 3.29254 25.2348 3.27266 25.0911 3.28124C24.9474 3.28982 24.8068 3.3267 24.6773 3.38975C24.5479 3.45281 24.4322 3.5408 24.3368 3.64869C24.2414 3.75657 24.1683 3.88222 24.1216 4.01843C24.075 4.15463 24.0556 4.29872 24.0648 4.44241L24.1569 5.98557C24.2134 7.04929 24.6627 8.05417 25.4177 8.8056C26.1728 9.55703 27.1798 10.0015 28.2437 10.053L32.8712 10.2608C33.1495 10.2652 33.4146 10.3797 33.6086 10.5792C33.8026 10.7787 33.9095 11.047 33.9059 11.3253V13.1319C33.3258 13.1327 32.7697 13.3636 32.3597 13.7739C31.9496 14.1842 31.719 14.7405 31.7186 15.3206V17.5424H27.4937C24.7661 17.5424 22.6708 18.719 21.7035 20.7575H20.3291C17.9248 20.7333 15.5397 21.1877 13.3129 22.0945C5.39 25.401 4.03648 32.4602 1.98802 43.1449C1.6035 45.1503 1.20593 47.2242 0.73172 49.4572C-0.599286 55.7133 -0.112792 60.5811 2.17758 63.9251C2.71434 64.7055 3.41752 65.357 4.23644 65.8329C5.05536 66.3088 5.96965 66.597 6.91341 66.677C7.85717 66.7569 8.80691 66.6265 9.6942 66.2951C10.5815 65.9638 11.3842 65.4397 12.0446 64.7608L21.568 55.4776C21.9581 55.0626 22.4295 54.7323 22.9528 54.5072C23.4761 54.2822 24.0401 54.1672 24.6097 54.1695H45.3894C46.7046 54.1564 47.9798 54.6212 48.978 55.4776L57.9374 64.7437C58.5406 65.369 59.2637 65.8663 60.0635 66.2059C60.8633 66.5454 61.7233 66.7201 62.5922 66.7197C62.7388 66.7197 62.8858 66.7149 63.0333 66.7053C63.9358 66.6475 64.8147 66.3931 65.6085 65.9598C66.4023 65.5265 67.0917 64.9249 67.6285 64.1971C70.085 60.851 70.6363 55.8917 69.2674 49.4572C68.7932 47.2242 68.3956 45.1503 68.0111 43.1449ZM33.9059 15.3206H36.0932V17.5093H33.9059V15.3206ZM27.4937 19.731H42.4592C44.3422 19.731 45.593 20.3412 46.1971 21.5309L41.8638 24.8789C40.7169 25.7628 39.3104 26.2434 37.8624 26.2463H31.7578C30.2215 26.2448 28.7345 25.7039 27.5562 24.718L23.7586 21.5392C24.6368 19.9254 26.6107 19.731 27.4937 19.731ZM65.8657 62.9012C65.5197 63.3749 65.0729 63.7659 64.5575 64.0461C64.0422 64.3262 63.4711 64.4886 62.8854 64.5214C62.262 64.5639 61.6368 64.4696 61.0537 64.2451C60.4706 64.0207 59.9436 63.6714 59.5096 63.2219L50.5501 53.9558C49.2309 52.5916 47.0075 51.9809 45.3894 51.9809H24.6097C23.7517 51.9748 22.9015 52.1448 22.1118 52.4806C21.3221 52.8163 20.6097 53.3106 20.0188 53.9328L10.4954 63.216C10.0586 63.6688 9.52643 64.0186 8.9375 64.24C8.34858 64.4614 7.71773 64.5487 7.09081 64.4957C6.47068 64.4449 5.86975 64.2561 5.3319 63.9433C4.79405 63.6304 4.33286 63.2014 3.98203 62.6875C2.04353 59.8576 1.66973 55.5594 2.87102 49.9124C3.35 47.658 3.74971 45.5735 4.13637 43.5575C6.11943 33.2126 7.31669 26.9682 14.155 24.1143C16.1153 23.3195 18.214 22.9224 20.3291 22.9462H22.0307L26.1528 26.397C27.7248 27.7118 29.7085 28.433 31.7578 28.4349H37.8624C39.7941 28.4313 41.6706 27.7903 43.2007 26.6113L47.9441 22.9462H49.6701C51.7852 22.9224 53.8839 23.3195 55.8441 24.1143C62.6824 26.9682 63.8797 33.2126 65.8627 43.5574C66.2494 45.5735 66.6491 47.658 67.1281 49.9124C68.3614 55.7106 67.9367 60.0804 65.8657 62.9012Z" fill="#7764F0"/>
<path d="M40.4678 41.0686C39.6019 41.0681 38.7553 41.3244 38.0351 41.8051C37.3149 42.2857 36.7535 42.9692 36.4217 43.769C36.09 44.5688 36.003 45.449 36.1716 46.2983C36.3402 47.1476 36.7568 47.9278 37.3689 48.5403C37.981 49.1527 38.761 49.5699 39.6101 49.739C40.4593 49.9081 41.3396 49.8216 42.1396 49.4904C42.9396 49.1591 43.6234 48.5981 44.1045 47.8782C44.5857 47.1583 44.8424 46.3118 44.8424 45.446C44.8415 44.2858 44.3804 43.1734 43.5602 42.3527C42.7401 41.5321 41.628 41.0703 40.4678 41.0686ZM40.4678 47.6346C40.0349 47.6349 39.6116 47.5067 39.2515 47.2664C38.8914 47.0261 38.6107 46.6843 38.4448 46.2844C38.279 45.8845 38.2354 45.4444 38.3197 45.0198C38.404 44.5952 38.6124 44.2051 38.9184 43.8988C39.2244 43.5926 39.6144 43.3841 40.039 43.2995C40.4636 43.2149 40.9037 43.2582 41.3037 43.4238C41.7037 43.5894 42.0456 43.87 42.2862 44.2299C42.5267 44.5899 42.6551 45.0131 42.6551 45.446C42.6552 45.7333 42.5987 46.0179 42.4888 46.2833C42.3789 46.5488 42.2179 46.7901 42.0147 46.9933C41.8116 47.1966 41.5705 47.3578 41.305 47.4678C41.0396 47.5779 40.7551 47.6345 40.4678 47.6346ZM29.5311 41.0686C28.6653 41.0681 27.8187 41.3244 27.0985 41.8051C26.3783 42.2857 25.8168 42.9692 25.4851 43.769C25.1534 44.5688 25.0663 45.449 25.2349 46.2983C25.4035 47.1476 25.8202 47.9278 26.4323 48.5403C27.0444 49.1527 27.8243 49.5699 28.6735 49.739C29.5227 49.9081 30.403 49.8216 31.203 49.4904C32.003 49.1591 32.6868 48.5981 33.1679 47.8782C33.649 47.1583 33.9058 46.3118 33.9058 45.446C33.9049 44.2858 33.4437 43.1734 32.6236 42.3527C31.8035 41.5321 30.6913 41.0703 29.5311 41.0686ZM29.5311 47.6346C29.0982 47.6349 28.6749 47.5067 28.3148 47.2664C27.9548 47.0261 27.674 46.6844 27.5082 46.2845C27.3423 45.8846 27.2988 45.4445 27.3831 45.0198C27.4674 44.5952 27.6757 44.2051 27.9818 43.8989C28.2878 43.5926 28.6778 43.3841 29.1024 43.2995C29.527 43.215 29.9671 43.2582 30.3671 43.4238C30.7671 43.5894 31.109 43.87 31.3495 44.2299C31.5901 44.5899 31.7185 45.0131 31.7185 45.446C31.7186 45.7333 31.6621 46.0179 31.5522 46.2834C31.4423 46.5489 31.2812 46.7901 31.0781 46.9933C30.875 47.1966 30.6338 47.3578 30.3684 47.4679C30.103 47.5779 29.8185 47.6346 29.5311 47.6346ZM51.9513 33.7838C52.7109 33.7842 53.4471 33.5211 54.0345 33.0394C54.6219 32.5578 55.0241 31.8874 55.1725 31.1424C55.321 30.3974 55.2065 29.6241 54.8486 28.954C54.4907 28.284 53.9116 27.7588 53.2099 27.4679C52.5082 27.1771 51.7273 27.1385 51.0004 27.3589C50.2734 27.5793 49.6454 28.0449 49.2233 28.6764C48.8012 29.3079 48.6111 30.0663 48.6855 30.8222C48.7599 31.5782 49.0941 32.285 49.6312 32.8221C49.9351 33.1279 50.2966 33.3704 50.6949 33.5355C51.0931 33.7006 51.5202 33.785 51.9513 33.7838ZM51.1779 29.727C51.331 29.574 51.526 29.4697 51.7382 29.4275C51.9505 29.3853 52.1706 29.407 52.3705 29.4898C52.5705 29.5726 52.7414 29.7129 52.8616 29.8929C52.9819 30.0728 53.0461 30.2844 53.0461 30.5009C53.0461 30.7173 52.9819 30.9289 52.8616 31.1088C52.7414 31.2888 52.5705 31.4291 52.3705 31.5119C52.1706 31.5947 51.9505 31.6164 51.7382 31.5742C51.526 31.532 51.331 31.4277 51.1779 31.2747C51.0757 31.1734 50.9947 31.0528 50.9393 30.92C50.884 30.7872 50.8555 30.6447 50.8555 30.5009C50.8555 30.357 50.884 30.2145 50.9393 30.0817C50.9947 29.9489 51.0757 29.8283 51.1779 29.727ZM58.138 33.4083C57.3784 33.4079 56.6421 33.671 56.0547 34.1527C55.4674 34.6343 55.0652 35.3048 54.9167 36.0497C54.7683 36.7947 54.8828 37.5681 55.2407 38.2381C55.5986 38.9081 56.1777 39.4333 56.8795 39.7242C57.5812 40.015 58.3621 40.0535 59.089 39.8332C59.8159 39.6128 60.444 39.1471 60.8661 38.5156C61.2882 37.884 61.4782 37.1256 61.4038 36.3697C61.3293 35.6137 60.9951 34.907 60.458 34.3698C60.1541 34.0641 59.7926 33.8216 59.3943 33.6566C58.9961 33.4915 58.5691 33.4071 58.138 33.4083ZM58.9113 37.4652C58.7583 37.6182 58.5633 37.7224 58.351 37.7646C58.1388 37.8068 57.9187 37.7851 57.7188 37.7023C57.5188 37.6195 57.3479 37.4792 57.2277 37.2993C57.1075 37.1193 57.0433 36.9078 57.0433 36.6913C57.0433 36.4749 57.1075 36.2633 57.2277 36.0834C57.3479 35.9034 57.5188 35.7632 57.7188 35.6803C57.9187 35.5975 58.1388 35.5758 58.351 35.618C58.5633 35.6603 58.7583 35.7645 58.9113 35.9175C59.0135 36.0188 59.0946 36.1394 59.1499 36.2722C59.2052 36.405 59.2337 36.5475 59.2337 36.6913C59.2337 36.8352 59.2052 36.9777 59.1499 37.1105C59.0946 37.2433 59.0135 37.3638 58.9113 37.4652ZM48.0845 34.3698C47.6254 33.9107 47.0404 33.5981 46.4036 33.4714C45.7668 33.3447 45.1067 33.4098 44.5068 33.6583C43.9069 33.9067 43.3942 34.3275 43.0335 34.8674C42.6727 35.4073 42.4802 36.042 42.4802 36.6913C42.4802 37.3406 42.6727 37.9753 43.0335 38.5152C43.3942 39.0551 43.9069 39.4759 44.5068 39.7244C45.1067 39.9729 45.7668 40.0379 46.4036 39.9112C47.0404 39.7846 47.6254 39.4719 48.0845 39.0128C48.3923 38.7096 48.6368 38.3482 48.8036 37.9497C48.9705 37.5511 49.0564 37.1234 49.0564 36.6913C49.0564 36.2593 48.9705 35.8315 48.8036 35.433C48.6368 35.0344 48.3923 34.673 48.0845 34.3698ZM46.5379 37.4651C46.3848 37.6182 46.1898 37.7224 45.9776 37.7646C45.7653 37.8068 45.5453 37.7851 45.3453 37.7023C45.1454 37.6195 44.9745 37.4792 44.8543 37.2993C44.734 37.1193 44.6698 36.9077 44.6698 36.6913C44.6698 36.4749 44.734 36.2633 44.8543 36.0834C44.9745 35.9034 45.1454 35.7632 45.3453 35.6803C45.5453 35.5975 45.7653 35.5758 45.9776 35.618C46.1898 35.6603 46.3848 35.7645 46.5379 35.9175C46.64 36.0188 46.7211 36.1393 46.7765 36.2722C46.8318 36.405 46.8603 36.5474 46.8603 36.6913C46.8603 36.8352 46.8318 36.9777 46.7765 37.1105C46.7211 37.2433 46.64 37.3638 46.5379 37.4651ZM51.9513 39.5988C51.1919 39.5985 50.456 39.8616 49.8688 40.3431C49.2817 40.8247 48.8797 41.4949 48.7313 42.2397C48.583 42.9844 48.6974 43.7575 49.0552 44.4273C49.413 45.0971 49.992 45.6221 50.6935 45.9129C51.395 46.2036 52.1756 46.2421 52.9023 46.0219C53.629 45.8016 54.2568 45.3361 54.6788 44.7048C55.1008 44.0735 55.2908 43.3154 55.2165 42.5597C55.1422 41.8039 54.8081 41.0974 54.2712 40.5604C53.9674 40.2546 53.6058 40.0122 53.2076 39.8471C52.8094 39.6821 52.3824 39.5977 51.9513 39.5988ZM52.7246 43.6556C52.5716 43.8087 52.3766 43.9129 52.1643 43.9552C51.952 43.9974 51.7319 43.9757 51.532 43.8929C51.332 43.8101 51.1611 43.6698 51.0408 43.4898C50.9206 43.3099 50.8564 43.0983 50.8564 42.8818C50.8564 42.6654 50.9206 42.4538 51.0408 42.2738C51.1611 42.0939 51.332 41.9536 51.532 41.8708C51.7319 41.788 51.952 41.7663 52.1643 41.8085C52.3766 41.8508 52.5716 41.955 52.7246 42.1081C52.8268 42.2094 52.9079 42.3299 52.9632 42.4627C53.0186 42.5955 53.0471 42.738 53.0471 42.8818C53.0471 43.0257 53.0186 43.1682 52.9632 43.301C52.9079 43.4338 52.8268 43.5543 52.7246 43.6556ZM22.4223 32.8281H20.7818V31.1866C20.782 30.6063 20.5516 30.0497 20.1414 29.6393C19.7312 29.2288 19.1748 28.9981 18.5945 28.9979H15.3135C14.7332 28.9981 14.1768 29.2288 13.7665 29.6393C13.3563 30.0497 13.126 30.6063 13.1262 31.1866V32.8281H11.4857C11.1983 32.8282 10.9138 32.8849 10.6484 32.9949C10.383 33.105 10.1418 33.2662 9.9387 33.4695C9.73559 33.6727 9.57449 33.914 9.46462 34.1795C9.35475 34.445 9.29825 34.7295 9.29834 35.0168V38.2998C9.29817 38.8801 9.52852 39.4367 9.93872 39.8472C10.3489 40.2576 10.9054 40.4883 11.4857 40.4885H13.1262V42.13C13.126 42.7102 13.3563 43.2668 13.7665 43.6773C14.1767 44.0878 14.7332 44.3185 15.3135 44.3187H18.5945C19.1748 44.3185 19.7312 44.0878 20.1414 43.6773C20.5516 43.2668 20.782 42.7102 20.7818 42.13V40.4885H22.4223C23.0026 40.4883 23.5591 40.2576 23.9693 39.8472C24.3795 39.4367 24.6098 38.8801 24.6096 38.2998V35.0168C24.6097 34.7295 24.5532 34.445 24.4434 34.1795C24.3335 33.914 24.1724 33.6727 23.9693 33.4695C23.7662 33.2662 23.525 33.105 23.2596 32.9949C22.9942 32.8849 22.7097 32.8282 22.4223 32.8281ZM22.4223 38.2998H18.5945V42.13H15.3135V38.2998H11.4857V35.0168H15.3135V31.1866H18.5945V35.0168H22.4223V38.2998ZM32.8121 31.2198H29.5311C29.2409 31.2198 28.9626 31.3351 28.7573 31.5403C28.5521 31.7455 28.4368 32.0238 28.4368 32.3141C28.4368 32.6043 28.5521 32.8827 28.7573 33.0879C28.9626 33.2931 29.2409 33.4084 29.5311 33.4084H32.8121C33.1024 33.4084 33.3807 33.2931 33.5859 33.0879C33.7912 32.8827 33.9064 32.6043 33.9064 32.3141C33.9064 32.0238 33.7912 31.7455 33.5859 31.5403C33.3807 31.3351 33.1024 31.2198 32.8121 31.2198ZM37.1868 33.4084H40.4678C40.758 33.4084 41.0364 33.2931 41.2416 33.0879C41.4468 32.8827 41.5621 32.6043 41.5621 32.3141C41.5621 32.0238 41.4468 31.7455 41.2416 31.5403C41.0364 31.3351 40.758 31.2198 40.4678 31.2198H37.1868C36.8966 31.2198 36.6182 31.3351 36.413 31.5403C36.2078 31.7455 36.0925 32.0238 36.0925 32.3141C36.0925 32.6043 36.2078 32.8827 36.413 33.0879C36.6182 33.2931 36.8966 33.4084 37.1868 33.4084ZM32.8121 24.0735H37.1868C37.477 24.0735 37.7554 23.9582 37.9606 23.7529C38.1658 23.5477 38.2811 23.2694 38.2811 22.9791C38.2811 22.6889 38.1658 22.4105 37.9606 22.2053C37.7554 22.0001 37.477 21.8848 37.1868 21.8848H32.8121C32.5219 21.8848 32.2435 22.0001 32.0383 22.2053C31.8331 22.4105 31.7178 22.6889 31.7178 22.9791C31.7178 23.2694 31.8331 23.5477 32.0383 23.7529C32.2435 23.9582 32.5219 24.0735 32.8121 24.0735Z" fill="#7764F0"/>
</svg>
