<svg width="80" height="80" viewBox="0 0 80 80" fill="none" xmlns="http://www.w3.org/2000/svg">
<path d="M34.7186 47.4259L40.9686 46.1259C41.4367 46.0234 41.9264 46.1106 42.3305 46.3683C42.7346 46.6259 43.0202 47.0332 43.1248 47.5009L43.7123 50.0759L42.7811 52.5009L44.8748 61.6571C45.0674 62.5041 44.9164 63.3928 44.4548 64.1286C43.9932 64.8643 43.2587 65.387 42.4123 65.5821L31.4561 68.0821L27.8311 66.7259L21.3748 68.2009M18.4311 55.3634L19.6311 55.0884C21.1373 54.7446 21.0748 53.6009 20.9561 52.0634V51.9821C20.8677 50.9182 21.1642 49.858 21.7916 48.9943C22.4191 48.1305 23.3357 47.5208 24.3748 47.2759L28.2873 46.3821M42.6436 52.3821L38.9998 53.2196M43.5123 56.1509L39.8623 56.9884M44.4061 60.0571L40.7561 60.8946M14.1686 67.3759L14.7248 69.8196M4.75293 55.2778L15.2261 52.8809L19.6973 72.4196L9.22418 74.8159L4.75293 55.2778Z" stroke="#7764F0" stroke-width="2" stroke-miterlimit="10"/>
<path d="M32.7124 67.1691L33.8562 72.1691C33.9947 72.7749 34.3681 73.3009 34.8944 73.6314C35.4206 73.9619 36.0566 74.0699 36.6624 73.9316L37.2437 73.8004C37.8494 73.6619 38.3754 73.2884 38.7059 72.7622C39.0364 72.2359 39.1444 71.6 39.0062 70.9941L37.8937 66.1191M35.6249 33.8379L62.4624 27.6316L52.8624 18.0691L57.4249 5.18164L20.9624 13.5816L28.9562 48.5504C29.0096 48.8017 29.1133 49.0396 29.2611 49.2498C29.4088 49.46 29.5975 49.6382 29.8158 49.7736C30.0342 49.9091 30.2776 49.999 30.5316 50.038C30.7855 50.0769 31.0448 50.0641 31.2937 50.0004L33.0249 49.5566C33.5035 49.4337 33.9157 49.1298 34.1745 48.7089C34.4334 48.2879 34.5187 47.783 34.4124 47.3004L31.0249 31.6754" stroke="#7764F0" stroke-width="2" stroke-miterlimit="10"/>
<path d="M26.6499 12.5254L31.4874 33.6879" stroke="#7764F0" stroke-width="2" stroke-miterlimit="10" stroke-dasharray="4 4"/>
<path d="M10 35.3125H20M5 30.3125H15.625M72.6937 69.7813L54.8812 37.9688L46.5812 53.4625" stroke="#7764F0" stroke-width="2" stroke-miterlimit="10"/>
<path d="M52.5313 50.4617L55.55 48.318L58.9625 51.5055L65.8938 47.2617M42.5 69.6867H75.625" stroke="#7764F0" stroke-width="2" stroke-miterlimit="10"/>
<path d="M42.5 74.6875H60.625" stroke="#7764F0" stroke-width="2" stroke-miterlimit="10" stroke-dasharray="4 4"/>
<path d="M67.575 38.025C69.2388 38.025 70.5875 36.6763 70.5875 35.0125C70.5875 33.3487 69.2388 32 67.575 32C65.9112 32 64.5625 33.3487 64.5625 35.0125C64.5625 36.6763 65.9112 38.025 67.575 38.025Z" stroke="#7764F0" stroke-width="2" stroke-miterlimit="10"/>
</svg>
