<svg width="70" height="70" viewBox="0 0 70 70" fill="none" xmlns="http://www.w3.org/2000/svg">
<path d="M63.5469 34.9998C63.5488 34.4448 63.4092 33.8985 63.1413 33.4124C62.8733 32.9263 62.486 32.5165 62.0157 32.2217L54.2501 27.3436L62.0157 22.4655C62.4857 22.1701 62.8731 21.7603 63.1416 21.2744C63.4101 20.7885 63.5509 20.2425 63.5509 19.6873C63.5509 19.1322 63.4101 18.5862 63.1416 18.1003C62.8731 17.6144 62.4857 17.2046 62.0157 16.9092L37.9094 1.77171C37.0378 1.2241 36.0294 0.933594 35.0001 0.933594C33.9707 0.933594 32.9623 1.2241 32.0907 1.77171L7.98444 16.9092C7.51443 17.2046 7.12705 17.6144 6.85856 18.1003C6.59006 18.5862 6.44922 19.1322 6.44922 19.6873C6.44922 20.2425 6.59006 20.7885 6.85856 21.2744C7.12705 21.7603 7.51443 22.1701 7.98444 22.4655L15.7501 27.3436L7.98444 32.2217C7.51443 32.5171 7.12705 32.9269 6.85856 33.4128C6.59006 33.8987 6.44922 34.4447 6.44922 34.9998C6.44922 35.555 6.59006 36.101 6.85856 36.5869C7.12705 37.0728 7.51443 37.4826 7.98444 37.778L15.7501 42.6561L7.98444 47.5342C7.51443 47.8296 7.12705 48.2394 6.85856 48.7253C6.59006 49.2112 6.44922 49.7572 6.44922 50.3123C6.44922 50.8675 6.59006 51.4135 6.85856 51.8994C7.12705 52.3853 7.51443 52.7951 7.98444 53.0905L32.0907 68.228C32.9639 68.7711 33.9717 69.059 35.0001 69.059C36.0284 69.059 37.0362 68.7711 37.9094 68.228L62.0157 53.0905C62.4857 52.7951 62.8731 52.3853 63.1416 51.8994C63.4101 51.4135 63.5509 50.8675 63.5509 50.3123C63.5509 49.7572 63.4101 49.2112 63.1416 48.7253C62.8731 48.2394 62.4857 47.8296 62.0157 47.5342L54.2501 42.6561L62.0157 37.778C62.486 37.4832 62.8733 37.0734 63.1413 36.5873C63.4092 36.1012 63.5488 35.5549 63.5469 34.9998ZM9.14381 20.6061C8.99031 20.5069 8.86409 20.3709 8.7767 20.2104C8.6893 20.0499 8.64352 19.8701 8.64352 19.6873C8.64352 19.5046 8.6893 19.3248 8.7767 19.1643C8.86409 19.0038 8.99031 18.8677 9.14381 18.7686L33.2501 3.63109C33.7733 3.299 34.3803 3.12266 35.0001 3.12266C35.6198 3.12266 36.2268 3.299 36.7501 3.63109L60.8563 18.7686C61.0098 18.8677 61.136 19.0038 61.2234 19.1643C61.3108 19.3248 61.3566 19.5046 61.3566 19.6873C61.3566 19.8701 61.3108 20.0499 61.2234 20.2104C61.136 20.3709 61.0098 20.5069 60.8563 20.6061L52.1938 26.053L50.1376 27.3436L39.9876 33.7092L37.9313 34.9998L36.7501 35.7436C36.2268 36.0757 35.6198 36.252 35.0001 36.252C34.3803 36.252 33.7733 36.0757 33.2501 35.7436L32.0688 34.9998L30.0126 33.7092L19.8626 27.3436L17.8063 26.053L9.14381 20.6061ZM60.8563 49.3936C61.0098 49.4927 61.136 49.6288 61.2234 49.7893C61.3108 49.9498 61.3566 50.1296 61.3566 50.3123C61.3566 50.4951 61.3108 50.6749 61.2234 50.8354C61.136 50.9959 61.0098 51.1319 60.8563 51.2311L36.7501 66.3686C36.2268 66.7007 35.6198 66.877 35.0001 66.877C34.3803 66.877 33.7733 66.7007 33.2501 66.3686L9.14381 51.2311C8.99031 51.1319 8.86409 50.9959 8.7767 50.8354C8.6893 50.6749 8.64352 50.4951 8.64352 50.3123C8.64352 50.1296 8.6893 49.9498 8.7767 49.7893C8.86409 49.6288 8.99031 49.4927 9.14381 49.3936L17.8063 43.9467L32.0907 52.9155C32.9639 53.4586 33.9717 53.7465 35.0001 53.7465C36.0284 53.7465 37.0362 53.4586 37.9094 52.9155L52.1938 43.9467L60.8563 49.3936ZM60.8563 35.9186L52.1938 41.3655L50.1376 42.6561L36.7501 51.0561C36.2268 51.3882 35.6198 51.5645 35.0001 51.5645C34.3803 51.5645 33.7733 51.3882 33.2501 51.0561L19.8626 42.6561L17.8063 41.3655L9.14381 35.9186C8.99031 35.8194 8.86409 35.6834 8.7767 35.5229C8.6893 35.3624 8.64352 35.1826 8.64352 34.9998C8.64352 34.8171 8.6893 34.6373 8.7767 34.4768C8.86409 34.3163 8.99031 34.1802 9.14381 34.0811L17.8063 28.6342L27.9344 34.9998L30.0126 36.2905L32.0907 37.603C32.9639 38.1461 33.9717 38.434 35.0001 38.434C36.0284 38.434 37.0362 38.1461 37.9094 37.603L39.9876 36.2905L42.0657 34.9998L52.1938 28.6342L60.8563 34.0811C61.0098 34.1802 61.136 34.3163 61.2234 34.4768C61.3108 34.6373 61.3566 34.8171 61.3566 34.9998C61.3566 35.1826 61.3108 35.3624 61.2234 35.5229C61.136 35.6834 61.0098 35.8194 60.8563 35.9186Z" fill="#796EF5"/>
</svg>
