<svg width="70" height="70" viewBox="0 0 70 70" fill="none" xmlns="http://www.w3.org/2000/svg">
<g clip-path="url(#clip0_1222_358)">
<path fill-rule="evenodd" clip-rule="evenodd" d="M51.0761 60.3258H61.0675C62.6663 60.3258 63.9664 59.0257 63.9664 57.427L63.9664 7.92152C63.9664 6.32291 62.6662 5.02276 61.0675 5.02276H8.93197C7.33329 5.02276 6.03306 6.32291 6.03306 7.92156V57.427C6.03306 59.0257 7.33321 60.3258 8.93185 60.3258H18.9235V53.3205C18.9235 51.4508 20.4446 49.9297 22.3142 49.9297L47.6853 49.9296C49.555 49.9296 51.0761 51.4508 51.0761 53.3205V60.3258ZM61.0675 61.7646H50.3567C49.9596 61.7646 49.6372 61.4423 49.6372 61.0452L49.6373 53.3205C49.6373 52.2439 48.7617 51.3684 47.6852 51.3684L22.3142 51.3684C21.2377 51.3684 20.3621 52.2439 20.3621 53.3205L20.3622 61.0452C20.3622 61.4423 20.0411 61.7646 19.6427 61.7646H8.93193C6.5401 61.7646 4.59424 59.8187 4.59424 57.427L4.59436 7.92152C4.59436 5.52981 6.54006 3.58398 8.93181 3.58398H61.0674C63.4592 3.58398 65.405 5.52985 65.405 7.92156V57.427C65.405 59.8188 63.4593 61.7646 61.0675 61.7646Z" fill="#796EF5"/>
<path fill-rule="evenodd" clip-rule="evenodd" d="M64.686 16.2019H5.31375C4.91655 16.2019 4.59424 15.8797 4.59424 15.4826C4.59436 15.0841 4.91647 14.7632 5.31363 14.7632L64.6859 14.7631C65.0843 14.7631 65.4052 15.0841 65.4052 15.4826C65.4052 15.8797 65.0843 16.202 64.686 16.2019ZM12.0657 8.70831C11.4112 8.70831 10.8791 9.23909 10.8791 9.89353C10.8791 10.548 11.4112 11.0788 12.0656 11.0788H24.9048C25.5579 11.0788 26.09 10.548 26.09 9.89353C26.09 9.23909 25.5579 8.70831 24.9047 8.70831H12.0657ZM24.9048 12.5176H12.0657C10.6182 12.5176 9.44156 11.3411 9.44156 9.89353C9.4416 8.44603 10.6181 7.26953 12.0656 7.26953H24.9048C26.3511 7.26953 27.5288 8.44603 27.5288 9.89353C27.5288 11.341 26.351 12.5176 24.9048 12.5176ZM32.0275 8.70831C31.3743 8.70831 30.8422 9.23909 30.8422 9.89353C30.8422 10.548 31.3742 11.0788 32.0274 11.0788C32.682 11.0788 33.2127 10.548 33.2127 9.89353C33.2128 9.23909 32.6819 8.70831 32.0275 8.70831ZM32.0275 12.5176C30.58 12.5176 29.4034 11.3411 29.4034 9.89353C29.4034 8.44603 30.5799 7.26953 32.0274 7.26953C33.475 7.26953 34.6514 8.44603 34.6514 9.89353C34.6514 11.341 33.4749 12.5176 32.0275 12.5176ZM39.731 8.70831C39.0778 8.70831 38.5456 9.23909 38.5456 9.89353C38.5457 10.548 39.0777 11.0788 39.7309 11.0788C40.3841 11.0788 40.9161 10.548 40.9161 9.89353C40.9161 9.23909 40.3841 8.70831 39.731 8.70831ZM39.731 12.5176C38.2834 12.5176 37.1069 11.3411 37.1069 9.89353C37.1069 8.44603 38.2834 7.26953 39.7309 7.26953C41.1785 7.26953 42.3549 8.44603 42.3549 9.89353C42.3549 11.341 41.1784 12.5176 39.731 12.5176ZM47.4344 8.70831C46.7799 8.70831 46.2491 9.23909 46.2491 9.89353C46.2492 10.548 46.7799 11.0788 47.4344 11.0788C48.0876 11.0788 48.6196 10.548 48.6196 9.89353C48.6197 9.23909 48.0876 8.70831 47.4344 8.70831ZM47.4344 12.5176C45.9869 12.5176 44.8103 11.3411 44.8103 9.89353C44.8105 8.44603 45.9868 7.26953 47.4344 7.26953C48.8819 7.26953 50.0584 8.44603 50.0584 9.89353C50.0585 11.341 48.8819 12.5176 47.4344 12.5176ZM36.4575 62.7822C36.1652 62.7822 35.8916 62.6036 35.783 62.3152L32.8692 54.5367C32.7306 54.1645 32.9191 53.7499 33.2913 53.61C33.6635 53.4714 34.0769 53.66 34.2168 54.0309L37.1306 61.8105C37.2693 62.1815 37.0806 62.5961 36.7084 62.736C36.6261 62.7672 36.5411 62.7822 36.4575 62.7822ZM29.6744 62.7822C29.5359 62.7822 29.3959 62.7423 29.2735 62.6586L23.5034 58.7694C23.3049 58.6357 23.1862 58.4122 23.1862 58.1737C23.1863 57.9339 23.3048 57.7103 23.5034 57.5767L29.2736 53.6874C29.6021 53.4652 30.0491 53.5526 30.2714 53.8823C30.4937 54.2108 30.4063 54.6579 30.0778 54.8802L25.192 58.1737L30.0778 61.4658C30.4063 61.6882 30.4937 62.1353 30.2714 62.465C30.1328 62.6711 29.9055 62.7822 29.6744 62.7822ZM40.3255 62.7822C40.0943 62.7822 39.867 62.6711 39.7284 62.465C39.5062 62.1353 39.5935 61.6882 39.9232 61.4658L44.8079 58.1737L39.9233 54.8802C39.5936 54.6579 39.506 54.2108 39.7284 53.8823C39.9507 53.5526 40.3978 53.4652 40.7275 53.6874L46.4965 57.5767C46.695 57.7103 46.8136 57.9339 46.8136 58.1737C46.8136 58.4122 46.695 58.6357 46.4964 58.7694L40.7276 62.6586C40.604 62.7423 40.464 62.7822 40.3255 62.7822Z" fill="#796EF5"/>
<path fill-rule="evenodd" clip-rule="evenodd" d="M22.3145 51.3691C21.2379 51.3691 20.3623 52.2446 20.3623 53.3212L20.3625 63.0242C20.3625 64.1008 21.2378 64.9763 22.3144 64.9763H47.6855C48.762 64.9763 49.6375 64.1008 49.6375 63.0242L49.6375 53.3212C49.6375 52.2446 48.762 51.3692 47.6854 51.3692L22.3145 51.3691ZM47.6855 66.4151H22.3145C20.4448 66.4151 18.9236 64.8939 18.9236 63.0242L18.9237 53.3212C18.9237 51.4516 20.4448 49.9304 22.3144 49.9304L47.6855 49.9303C49.5552 49.9303 51.0762 51.4516 51.0762 53.3212L51.0763 63.0242C51.0763 64.8939 49.555 66.4151 47.6855 66.4151ZM12.8838 38.2315L11.5849 44.8196L18.173 43.522L16.8504 42.1993C16.5694 41.9184 16.5693 41.4625 16.8503 41.1814L24.6513 33.3793L25.0896 32.3227V21.1185H22.7891V31.6908C22.7891 31.8819 22.7141 32.0654 22.5792 32.2003L15.2243 39.5553C14.9433 39.8363 14.4873 39.8363 14.2063 39.5553L12.8838 38.2315ZM10.6719 46.4532C10.4834 46.4532 10.2996 46.3783 10.1635 46.2422C9.99368 46.0723 9.91992 45.83 9.96619 45.5939L11.7322 36.6303C11.7834 36.3693 11.9745 36.1582 12.228 36.0808C12.4829 36.0034 12.7588 36.0733 12.9461 36.2606L14.7147 38.0291L21.3503 31.3935V20.3991C21.3503 20.0007 21.6725 19.6797 22.0696 19.6797L25.809 19.6797C26.2062 19.6797 26.5283 20.0007 26.5283 20.3991L26.5284 32.4651C26.5284 32.56 26.5096 32.6537 26.4734 32.7411L25.9265 34.0625C25.8902 34.1499 25.8364 34.2286 25.7702 34.2961L18.3765 41.6898L20.1438 43.4583C20.3323 43.6468 20.4011 43.9229 20.3236 44.1764C20.2462 44.4312 20.0351 44.621 19.7741 44.6735L10.8104 46.4395C10.7643 46.4482 10.718 46.4532 10.6719 46.4532ZM51.827 43.522L58.4152 44.8197L57.1176 38.2315L55.7938 39.5554C55.6589 39.6903 55.4764 39.7665 55.2854 39.7665C55.0944 39.7664 54.9107 39.6903 54.7758 39.5554L47.4208 32.2004C47.2859 32.0655 47.211 31.8819 47.211 31.6909L47.211 21.1185H44.9105V32.3228L45.3489 33.3794L53.1497 41.1815C53.2846 41.3164 53.3607 41.5 53.3607 41.6899C53.3608 41.8809 53.2845 42.0645 53.1497 42.1994L51.827 43.522ZM59.3282 46.4533C59.282 46.4533 59.2358 46.4483 59.1895 46.4396L50.226 44.6735C49.9649 44.6211 49.7538 44.4312 49.6763 44.1765C49.599 43.923 49.6677 43.6457 49.8562 43.4583L51.6247 41.6899L44.2297 34.2961C44.1636 34.2287 44.1098 34.15 44.0736 34.0626L43.5267 32.7412C43.4904 32.6537 43.4716 32.5601 43.4716 32.4652L43.4717 20.3992C43.4717 20.0008 43.7938 19.6798 44.191 19.6798L47.9304 19.6798C48.3276 19.6798 48.6497 20.0008 48.6497 20.3992L48.6498 31.3936L55.2854 38.0292L57.0538 36.2607C57.2413 36.0734 57.5172 36.0035 57.772 36.0809C58.0256 36.1583 58.2166 36.3694 58.2678 36.6304L60.0338 45.594C60.0801 45.8301 60.0064 46.0724 59.8365 46.2422C59.7004 46.3784 59.5168 46.4533 59.3282 46.4533ZM30.9571 38.8659L34.6976 44.4424L38.4384 38.8659H36.5674C36.3763 38.8659 36.1927 38.7897 36.0577 38.6549C35.9229 38.5199 35.8479 38.3364 35.8479 38.1465L35.848 21.1185H33.5475V38.1465C33.5475 38.5437 33.2252 38.8659 32.828 38.8659H30.9571ZM34.6976 46.4532C34.458 46.4532 34.2343 46.3333 34.1007 46.1335L29.0113 38.5462C28.8626 38.3264 28.8489 38.0416 28.9738 37.8068C29.0987 37.5733 29.3422 37.4271 29.6082 37.4271H32.1087V20.3991C32.1087 20.0007 32.4308 19.6797 32.828 19.6797L36.5674 19.6797C36.7572 19.6797 36.9408 19.7547 37.0756 19.8895C37.2106 20.0244 37.2867 20.208 37.2867 20.3991L37.2868 37.4271H39.7872C40.0532 37.4271 40.2967 37.5733 40.4216 37.8068C40.5465 38.0416 40.5327 38.3264 40.3841 38.5462L35.2947 46.1335C35.1611 46.3333 34.9374 46.4532 34.6976 46.4532Z" fill="#796EF5"/>
</g>
<defs>
<clipPath id="clip0_1222_358">
<rect width="70" height="70" fill="white"/>
</clipPath>
</defs>
</svg>
