<svg width="70" height="70" viewBox="0 0 70 70" fill="none" xmlns="http://www.w3.org/2000/svg">
<g clip-path="url(#clip0_1139_71)">
<path fill-rule="evenodd" clip-rule="evenodd" d="M51.0765 60.3258H61.068C62.6667 60.3258 63.9669 59.0257 63.9669 57.427L63.9669 7.92152C63.9669 6.32291 62.6667 5.02276 61.068 5.02276H8.93246C7.33378 5.02276 6.03355 6.32291 6.03355 7.92156V57.427C6.03355 59.0257 7.3337 60.3258 8.93234 60.3258H18.924V53.3205C18.924 51.4508 20.4451 49.9297 22.3147 49.9297L47.6858 49.9296C49.5555 49.9296 51.0765 51.4508 51.0765 53.3205V60.3258ZM61.068 61.7646H50.3572C49.9601 61.7646 49.6377 61.4423 49.6377 61.0452L49.6378 53.3205C49.6378 52.2439 48.7622 51.3684 47.6856 51.3684L22.3147 51.3684C21.2382 51.3684 20.3626 52.2439 20.3626 53.3205L20.3627 61.0452C20.3627 61.4423 20.0416 61.7646 19.6432 61.7646H8.93242C6.54059 61.7646 4.59473 59.8187 4.59473 57.427L4.59485 7.92152C4.59485 5.52981 6.54055 3.58398 8.9323 3.58398H61.0679C63.4597 3.58398 65.4055 5.52985 65.4055 7.92156V57.427C65.4055 59.8188 63.4598 61.7646 61.068 61.7646Z" fill="#796EF5"/>
<path fill-rule="evenodd" clip-rule="evenodd" d="M64.6865 16.2019H5.31424C4.91704 16.2019 4.59473 15.8797 4.59473 15.4826C4.59485 15.0841 4.91696 14.7632 5.31412 14.7632L64.6864 14.7631C65.0847 14.7631 65.4057 15.0841 65.4057 15.4826C65.4057 15.8797 65.0848 16.202 64.6865 16.2019ZM12.0662 8.70831C11.4117 8.70831 10.8796 9.23909 10.8796 9.89353C10.8796 10.548 11.4117 11.0788 12.0661 11.0788H24.9053C25.5584 11.0788 26.0905 10.548 26.0905 9.89353C26.0905 9.23909 25.5584 8.70831 24.9052 8.70831H12.0662ZM24.9053 12.5176H12.0662C10.6187 12.5176 9.44205 11.3411 9.44205 9.89353C9.44209 8.44603 10.6185 7.26953 12.0661 7.26953H24.9053C26.3515 7.26953 27.5293 8.44603 27.5293 9.89353C27.5293 11.341 26.3515 12.5176 24.9053 12.5176ZM32.028 8.70831C31.3748 8.70831 30.8426 9.23909 30.8426 9.89353C30.8427 10.548 31.3747 11.0788 32.0279 11.0788C32.6825 11.0788 33.2132 10.548 33.2132 9.89353C33.2133 9.23909 32.6824 8.70831 32.028 8.70831ZM32.028 12.5176C30.5805 12.5176 29.4039 11.3411 29.4039 9.89353C29.4039 8.44603 30.5804 7.26953 32.0279 7.26953C33.4754 7.26953 34.6519 8.44603 34.6519 9.89353C34.6519 11.341 33.4754 12.5176 32.028 12.5176ZM39.7315 8.70831C39.0783 8.70831 38.5461 9.23909 38.5461 9.89353C38.5462 10.548 39.0782 11.0788 39.7313 11.0788C40.3846 11.0788 40.9166 10.548 40.9166 9.89353C40.9166 9.23909 40.3846 8.70831 39.7315 8.70831ZM39.7315 12.5176C38.2838 12.5176 37.1073 11.3411 37.1073 9.89353C37.1074 8.44603 38.2838 7.26953 39.7313 7.26953C41.179 7.26953 42.3554 8.44603 42.3554 9.89353C42.3554 11.341 41.1789 12.5176 39.7315 12.5176ZM47.4349 8.70831C46.7804 8.70831 46.2496 9.23909 46.2496 9.89353C46.2497 10.548 46.7804 11.0788 47.4349 11.0788C48.0881 11.0788 48.6201 10.548 48.6201 9.89353C48.6202 9.23909 48.0881 8.70831 47.4349 8.70831ZM47.4349 12.5176C45.9874 12.5176 44.8108 11.3411 44.8108 9.89353C44.811 8.44603 45.9873 7.26953 47.4349 7.26953C48.8824 7.26953 50.0589 8.44603 50.0589 9.89353C50.059 11.341 48.8824 12.5176 47.4349 12.5176ZM36.458 62.7822C36.1657 62.7822 35.8921 62.6036 35.7835 62.3152L32.8697 54.5367C32.7311 54.1645 32.9196 53.7499 33.2918 53.61C33.664 53.4714 34.0774 53.66 34.2173 54.0309L37.1311 61.8105C37.2698 62.1815 37.0811 62.5961 36.7089 62.736C36.6266 62.7672 36.5416 62.7822 36.458 62.7822ZM29.6749 62.7822C29.5364 62.7822 29.3964 62.7423 29.274 62.6586L23.5039 58.7694C23.3054 58.6357 23.1867 58.4122 23.1867 58.1737C23.1868 57.9339 23.3053 57.7103 23.5039 57.5767L29.2741 53.6874C29.6026 53.4652 30.0496 53.5526 30.2719 53.8823C30.4942 54.2108 30.4068 54.6579 30.0783 54.8802L25.1925 58.1737L30.0783 61.4658C30.4068 61.6882 30.4942 62.1353 30.2719 62.465C30.1333 62.6711 29.9059 62.7822 29.6749 62.7822ZM40.326 62.7822C40.0948 62.7822 39.8675 62.6711 39.7289 62.465C39.5067 62.1353 39.594 61.6882 39.9237 61.4658L44.8084 58.1737L39.9238 54.8802C39.594 54.6579 39.5065 54.2108 39.7289 53.8823C39.9512 53.5526 40.3983 53.4652 40.728 53.6874L46.497 57.5767C46.6955 57.7103 46.8141 57.9339 46.8141 58.1737C46.8141 58.4122 46.6955 58.6357 46.4969 58.7694L40.7281 62.6586C40.6045 62.7423 40.4645 62.7822 40.326 62.7822Z" fill="#796EF5"/>
<path fill-rule="evenodd" clip-rule="evenodd" d="M22.3149 51.3691C21.2384 51.3691 20.3628 52.2446 20.3628 53.3212L20.3629 63.0242C20.3629 64.1008 21.2383 64.9763 22.3149 64.9763H47.6859C48.7625 64.9763 49.6379 64.1008 49.6379 63.0242L49.638 53.3212C49.638 52.2446 48.7624 51.3692 47.6859 51.3692L22.3149 51.3691ZM47.6859 66.4151H22.3149C20.4453 66.4151 18.924 64.8939 18.924 63.0242L18.9242 53.3212C18.9242 51.4516 20.4453 49.9304 22.3149 49.9304L47.6859 49.9303C49.5557 49.9303 51.0767 51.4516 51.0767 53.3212L51.0768 63.0242C51.0768 64.8939 49.5555 66.4151 47.6859 66.4151ZM12.8842 38.2315L11.5854 44.8196L18.1735 43.522L16.8509 42.1993C16.5698 41.9184 16.5698 41.4625 16.8508 41.1814L24.6518 33.3793L25.0901 32.3227V21.1185H22.7896V31.6908C22.7896 31.8819 22.7146 32.0654 22.5797 32.2003L15.2248 39.5553C14.9437 39.8363 14.4878 39.8363 14.2068 39.5553L12.8842 38.2315ZM10.6724 46.4532C10.4839 46.4532 10.3001 46.3783 10.164 46.2422C9.99417 46.0723 9.92041 45.83 9.96668 45.5939L11.7327 36.6303C11.7839 36.3693 11.975 36.1582 12.2285 36.0808C12.4834 36.0034 12.7593 36.0733 12.9466 36.2606L14.7152 38.0291L21.3508 31.3935V20.3991C21.3508 20.0007 21.6729 19.6797 22.0701 19.6797L25.8095 19.6797C26.2067 19.6797 26.5288 20.0007 26.5288 20.3991L26.5289 32.4651C26.5289 32.56 26.5101 32.6537 26.4739 32.7411L25.927 34.0625C25.8907 34.1499 25.8369 34.2286 25.7707 34.2961L18.377 41.6898L20.1443 43.4583C20.3328 43.6468 20.4015 43.9229 20.3241 44.1764C20.2467 44.4312 20.0356 44.621 19.7746 44.6735L10.8109 46.4395C10.7648 46.4482 10.7185 46.4532 10.6724 46.4532ZM51.8275 43.522L58.4157 44.8197L57.1181 38.2315L55.7943 39.5554C55.6594 39.6903 55.4769 39.7665 55.2858 39.7665C55.0949 39.7664 54.9112 39.6903 54.7763 39.5554L47.4213 32.2004C47.2864 32.0655 47.2114 31.8819 47.2114 31.6909L47.2115 21.1185H44.911V32.3228L45.3493 33.3794L53.1502 41.1815C53.2851 41.3164 53.3612 41.5 53.3612 41.6899C53.3613 41.8809 53.285 42.0645 53.1502 42.1994L51.8275 43.522ZM59.3287 46.4533C59.2824 46.4533 59.2363 46.4483 59.19 46.4396L50.2265 44.6735C49.9654 44.6211 49.7543 44.4312 49.6768 44.1765C49.5995 43.923 49.6681 43.6457 49.8567 43.4583L51.6252 41.6899L44.2302 34.2961C44.164 34.2287 44.1103 34.15 44.0741 34.0626L43.5272 32.7412C43.4909 32.6537 43.4721 32.5601 43.4721 32.4652L43.4722 20.3992C43.4722 20.0008 43.7943 19.6798 44.1915 19.6798L47.9309 19.6798C48.3281 19.6798 48.6502 20.0008 48.6502 20.3992L48.6503 31.3936L55.2859 38.0292L57.0543 36.2607C57.2418 36.0734 57.5177 36.0035 57.7725 36.0809C58.0261 36.1583 58.2171 36.3694 58.2683 36.6304L60.0343 45.594C60.0806 45.8301 60.0068 46.0724 59.837 46.2422C59.7009 46.3784 59.5172 46.4533 59.3287 46.4533ZM30.9576 38.8659L34.6981 44.4424L38.4388 38.8659H36.5679C36.3768 38.8659 36.1932 38.7897 36.0582 38.6549C35.9234 38.5199 35.8484 38.3364 35.8484 38.1465L35.8485 21.1185H33.548V38.1465C33.548 38.5437 33.2257 38.8659 32.8285 38.8659H30.9576ZM34.6981 46.4532C34.4585 46.4532 34.2348 46.3333 34.1011 46.1335L29.0118 38.5462C28.8631 38.3264 28.8494 38.0416 28.9743 37.8068C29.0992 37.5733 29.3427 37.4271 29.6087 37.4271H32.1092V20.3991C32.1092 20.0007 32.4313 19.6797 32.8285 19.6797L36.5679 19.6797C36.7577 19.6797 36.9412 19.7547 37.0761 19.8895C37.2111 20.0244 37.2872 20.208 37.2872 20.3991L37.2873 37.4271H39.7877C40.0537 37.4271 40.2971 37.5733 40.422 37.8068C40.547 38.0416 40.5332 38.3264 40.3846 38.5462L35.2952 46.1335C35.1615 46.3333 34.9379 46.4532 34.6981 46.4532Z" fill="#796EF5"/>
</g>
<defs>
<clipPath id="clip0_1139_71">
<rect width="70" height="70" fill="white"/>
</clipPath>
</defs>
</svg>
