<svg width="70" height="70" viewBox="0 0 70 70" fill="none" xmlns="http://www.w3.org/2000/svg">
<path d="M48.7176 26.3747L35.5926 20.5413C35.4062 20.4583 35.2043 20.4153 35.0002 20.4153C34.7961 20.4153 34.5942 20.4583 34.4077 20.5413L21.2827 26.3747C21.0249 26.4893 20.8059 26.6762 20.6522 26.9128C20.4985 27.1495 20.4167 27.4256 20.4168 27.7077V43.7494C20.4167 44.0316 20.4985 44.3077 20.6522 44.5443C20.8059 44.7809 21.0249 44.9679 21.2827 45.0825L34.4077 50.9158C34.5943 50.9984 34.7961 51.0411 35.0002 51.0411C35.2042 51.0411 35.406 50.9984 35.5926 50.9158L48.7176 45.0825C48.9754 44.9678 49.1944 44.7809 49.3481 44.5443C49.5018 44.3076 49.5835 44.0315 49.5834 43.7494V27.7077C49.5835 27.4256 49.5018 27.1495 49.3481 26.9129C49.1944 26.6763 48.9754 26.4893 48.7176 26.3747ZM35.0001 23.4708L44.5344 27.7077L35.0001 31.9448L25.4658 27.7077L35.0001 23.4708ZM23.3334 29.952L33.5418 34.4874V47.3375L23.3334 42.8021V29.952ZM36.4584 47.3382V34.489L46.6668 29.9521V42.8022L36.4584 47.3382ZM31.6562 9.78044L33.5418 7.89496V13.1244C33.5418 13.5112 33.6954 13.8821 33.9689 14.1556C34.2424 14.4291 34.6133 14.5827 35.0001 14.5827C35.3869 14.5827 35.7578 14.4291 36.0313 14.1556C36.3048 13.8821 36.4584 13.5112 36.4584 13.1244V7.89496L38.3441 9.78044C38.6191 10.0461 38.9875 10.1931 39.3699 10.1898C39.7522 10.1864 40.118 10.0331 40.3884 9.76268C40.6588 9.49229 40.8121 9.12652 40.8155 8.74415C40.8188 8.36178 40.6718 7.9934 40.4062 7.71836L36.0312 3.34336C35.8958 3.20788 35.7351 3.10041 35.5582 3.02708C35.3812 2.95376 35.1916 2.91602 35.0001 2.91602C34.8086 2.91602 34.619 2.95376 34.4421 3.02708C34.2652 3.10041 34.1044 3.20788 33.9691 3.34336L29.5941 7.71836C29.3284 7.9934 29.1814 8.36178 29.1848 8.74415C29.1881 9.12652 29.3414 9.49229 29.6118 9.76268C29.8822 10.0331 30.248 10.1864 30.6304 10.1898C31.0127 10.1931 31.3811 10.0461 31.6562 9.78044ZM38.3441 60.2184L36.4584 62.1038V56.8744C36.4584 56.4876 36.3048 56.1167 36.0313 55.8432C35.7578 55.5697 35.3869 55.4161 35.0001 55.4161C34.6133 55.4161 34.2424 55.5697 33.9689 55.8432C33.6954 56.1167 33.5418 56.4876 33.5418 56.8744V62.1038L31.6562 60.2184C31.3811 59.9527 31.0127 59.8057 30.6304 59.809C30.248 59.8124 29.8822 59.9657 29.6118 60.2361C29.3414 60.5065 29.1881 60.8723 29.1848 61.2546C29.1814 61.637 29.3284 62.0054 29.5941 62.2804L33.9691 66.6554C34.1044 66.7909 34.2652 66.8984 34.4421 66.9717C34.619 67.045 34.8086 67.0827 35.0001 67.0827C35.1916 67.0827 35.3812 67.045 35.5581 66.9717C35.7351 66.8984 35.8958 66.7909 36.0312 66.6554L40.4062 62.2804C40.6718 62.0054 40.8188 61.637 40.8155 61.2546C40.8121 60.8723 40.6588 60.5065 40.3884 60.2361C40.118 59.9657 39.7522 59.8124 39.3699 59.809C38.9875 59.8057 38.6191 59.9527 38.3441 60.2184ZM16.7855 22.7987L12.2567 20.1843L14.8312 19.4947C15.0183 19.4471 15.1941 19.3628 15.3483 19.2467C15.5025 19.1306 15.6322 18.9851 15.7298 18.8185C15.8273 18.6519 15.8909 18.4676 15.9167 18.2763C15.9425 18.085 15.93 17.8905 15.8801 17.704C15.8301 17.5175 15.7436 17.3428 15.6256 17.1901C15.5076 17.0373 15.3604 16.9094 15.1927 16.814C15.0249 16.7185 14.8398 16.6573 14.6482 16.6339C14.4566 16.6105 14.2622 16.6253 14.0764 16.6776L8.10071 18.2784C7.72719 18.3786 7.40874 18.623 7.21539 18.9579C7.02204 19.2928 6.96963 19.6908 7.06967 20.0643L8.67034 26.04C8.7178 26.2272 8.80199 26.4032 8.91802 26.5576C9.03405 26.7121 9.1796 26.8419 9.34623 26.9396C9.51286 27.0373 9.69724 27.101 9.88867 27.1269C10.0801 27.1527 10.2748 27.1403 10.4613 27.0903C10.6479 27.0403 10.8227 26.9538 10.9756 26.8357C11.1284 26.7176 11.2563 26.5703 11.3518 26.4023C11.4472 26.2344 11.5084 26.0492 11.5317 25.8574C11.5549 25.6657 11.5399 25.4712 11.4874 25.2853L10.7978 22.7102L15.3272 25.3251C15.4931 25.4209 15.6762 25.483 15.8661 25.508C16.056 25.533 16.249 25.5203 16.434 25.4707C16.619 25.4211 16.7924 25.3356 16.9444 25.219C17.0963 25.1024 17.2238 24.957 17.3196 24.7911C17.4153 24.6252 17.4775 24.4421 17.5025 24.2522C17.5274 24.0623 17.5148 23.8693 17.4652 23.6843C17.4156 23.4993 17.33 23.3258 17.2134 23.1739C17.0968 23.0219 16.9514 22.8944 16.7855 22.7987ZM61.3299 43.9588C61.2257 43.5899 60.9804 43.2768 60.6471 43.0874C60.3139 42.8979 59.9194 42.8473 59.5491 42.9465C59.1788 43.0457 58.8624 43.2868 58.6685 43.6174C58.4745 43.9481 58.4186 44.3419 58.5128 44.7135L59.2025 47.2886L54.673 44.6737C54.338 44.4803 53.9399 44.4279 53.5662 44.5281C53.1926 44.6282 52.874 44.8727 52.6807 45.2077C52.4873 45.5428 52.4349 45.9409 52.535 46.3145C52.6352 46.6882 52.8797 47.0067 53.2147 47.2001L57.7433 49.8145L55.1687 50.5041C54.9816 50.5517 54.8059 50.636 54.6516 50.7521C54.4974 50.8682 54.3677 51.0137 54.2701 51.1803C54.1726 51.3469 54.1091 51.5312 54.0833 51.7225C54.0575 51.9138 54.0699 52.1083 54.1199 52.2948C54.1698 52.4813 54.2563 52.656 54.3743 52.8087C54.4923 52.9615 54.6395 53.0894 54.8073 53.1848C54.975 53.2803 55.1601 53.3415 55.3517 53.3649C55.5434 53.3883 55.7377 53.3735 55.9235 53.3212L61.8992 51.7204C62.2727 51.6202 62.5912 51.3758 62.7845 51.0409C62.9779 50.706 63.0303 50.308 62.9303 49.9345L61.3299 43.9588ZM53.9456 25.5202C54.2011 25.5204 54.4522 25.4531 54.6733 25.3251L59.2025 22.7102L58.5128 25.2853C58.4603 25.4712 58.4453 25.6657 58.4686 25.8574C58.4918 26.0492 58.553 26.2344 58.6484 26.4023C58.7439 26.5703 58.8718 26.7176 59.0246 26.8357C59.1775 26.9538 59.3523 27.0403 59.5389 27.0903C59.7255 27.1403 59.9201 27.1527 60.1116 27.1269C60.303 27.101 60.4874 27.0373 60.654 26.9396C60.8206 26.8419 60.9662 26.7121 61.0822 26.5576C61.1982 26.4032 61.2824 26.2272 61.3299 26.04L62.9306 20.0643C63.0306 19.6908 62.9782 19.2928 62.7848 18.9579C62.5915 18.623 62.273 18.3786 61.8995 18.2784L55.9238 16.6776C55.738 16.6253 55.5437 16.6105 55.352 16.6339C55.1604 16.6573 54.9753 16.7185 54.8076 16.814C54.6398 16.9094 54.4926 17.0373 54.3746 17.1901C54.2566 17.3428 54.1701 17.5175 54.1202 17.704C54.0702 17.8905 54.0578 18.085 54.0836 18.2763C54.1093 18.4676 54.1729 18.6519 54.2704 18.8185C54.368 18.9851 54.4977 19.1306 54.6519 19.2467C54.8062 19.3628 54.9819 19.4471 55.169 19.4947L57.7435 20.1843L53.2147 22.7987C52.9364 22.9592 52.719 23.2071 52.5961 23.5039C52.4731 23.8007 52.4517 24.1298 52.535 24.44C52.6182 24.7503 52.8016 25.0243 53.0567 25.2197C53.3117 25.415 53.6244 25.5207 53.9456 25.5202ZM15.3272 44.6737L10.7978 47.2886L11.4874 44.7135C11.5399 44.5276 11.5549 44.3331 11.5317 44.1414C11.5084 43.9496 11.4472 43.7644 11.3518 43.5965C11.2563 43.4285 11.1284 43.2812 10.9756 43.1631C10.8227 43.045 10.6479 42.9585 10.4613 42.9085C10.2748 42.8585 10.0801 42.8461 9.88867 42.8719C9.69724 42.8978 9.51286 42.9615 9.34623 43.0592C9.1796 43.1569 9.03405 43.2867 8.91802 43.4412C8.80199 43.5956 8.7178 43.7716 8.67034 43.9588L7.06967 49.9345C6.96963 50.308 7.02204 50.706 7.21539 51.0409C7.40874 51.3758 7.72719 51.6202 8.10071 51.7204L14.0764 53.3212C14.2622 53.3735 14.4566 53.3883 14.6482 53.3649C14.8398 53.3415 15.0249 53.2803 15.1927 53.1848C15.3604 53.0894 15.5076 52.9615 15.6256 52.8087C15.7436 52.656 15.8301 52.4813 15.8801 52.2948C15.93 52.1083 15.9425 51.9138 15.9167 51.7225C15.8909 51.5312 15.8273 51.3469 15.7298 51.1803C15.6322 51.0137 15.5025 50.8682 15.3483 50.7521C15.1941 50.636 15.0183 50.5517 14.8312 50.5041L12.2567 49.8145L16.7855 47.2001C16.9514 47.1044 17.0968 46.9769 17.2134 46.8249C17.33 46.673 17.4156 46.4995 17.4652 46.3145C17.5148 46.1295 17.5274 45.9366 17.5025 45.7466C17.4775 45.5567 17.4153 45.3736 17.3196 45.2077C17.2238 45.0418 17.0963 44.8964 16.9444 44.7798C16.7924 44.6632 16.619 44.5777 16.434 44.5281C16.249 44.4785 16.056 44.4658 15.8661 44.4908C15.6762 44.5158 15.4931 44.5779 15.3272 44.6737Z" fill="#7764F0"/>
</svg>
