<svg width="70" height="70" viewBox="0 0 70 70" fill="none" xmlns="http://www.w3.org/2000/svg">
<g clip-path="url(#clip0_1307_1496)">
<path d="M51.9531 26.25H37.7344V24.0625H46.4844C47.0645 24.0625 47.6209 23.832 48.0312 23.4218C48.4414 23.0116 48.6719 22.4552 48.6719 21.875V17.5C48.6719 16.9198 48.4414 16.3634 48.0312 15.9532C47.6209 15.543 47.0645 15.3125 46.4844 15.3125H37.7344V12.0312C37.7344 11.7412 37.6191 11.463 37.414 11.2579C37.2089 11.0527 36.9307 10.9375 36.6406 10.9375C36.3505 10.9375 36.0723 11.0527 35.8672 11.2579C35.6621 11.463 35.5469 11.7412 35.5469 12.0312V49.2188C35.5469 49.5088 35.6621 49.787 35.8672 49.9921C36.0723 50.1973 36.3505 50.3125 36.6406 50.3125C36.9307 50.3125 37.2089 50.1973 37.414 49.9921C37.6191 49.787 37.7344 49.5088 37.7344 49.2188V45.9375H46.4844C47.0645 45.9375 47.6209 45.707 48.0312 45.2968C48.4414 44.8866 48.6719 44.3302 48.6719 43.75V39.375C48.6719 38.7948 48.4414 38.2384 48.0312 37.8282C47.6209 37.418 47.0645 37.1875 46.4844 37.1875H37.7344V35H51.9531C52.5333 35 53.0897 34.7695 53.4999 34.3593C53.9102 33.9491 54.1406 33.3927 54.1406 32.8125V28.4375C54.1406 27.8573 53.9102 27.3009 53.4999 26.8907C53.0897 26.4805 52.5333 26.25 51.9531 26.25ZM37.7344 17.5H46.4844V21.875H37.7344V17.5ZM46.4844 39.375V43.75H37.7344V39.375H46.4844ZM51.9531 32.8125H37.7344V28.4375H51.9531V32.8125ZM16.4062 59.6094H28.4375C28.7276 59.6094 29.0058 59.4941 29.2109 59.289C29.416 59.0839 29.5312 58.8057 29.5312 58.5156C29.5312 58.2255 29.416 57.9473 29.2109 57.7422C29.0058 57.5371 28.7276 57.4219 28.4375 57.4219H16.4062C16.1162 57.4219 15.838 57.5371 15.6329 57.7422C15.4277 57.9473 15.3125 58.2255 15.3125 58.5156C15.3125 58.8057 15.4277 59.0839 15.6329 59.289C15.838 59.4941 16.1162 59.6094 16.4062 59.6094ZM33.9062 61.7969H16.4062C16.1162 61.7969 15.838 61.9121 15.6329 62.1172C15.4277 62.3223 15.3125 62.6005 15.3125 62.8906C15.3125 63.1807 15.4277 63.4589 15.6329 63.664C15.838 63.8691 16.1162 63.9844 16.4062 63.9844H33.9062C34.1963 63.9844 34.4745 63.8691 34.6796 63.664C34.8848 63.4589 35 63.1807 35 62.8906C35 62.6005 34.8848 62.3223 34.6796 62.1172C34.4745 61.9121 34.1963 61.7969 33.9062 61.7969Z" fill="#7764F0"/>
<path d="M62.0703 64.5312V5.46875C62.0687 4.01885 61.492 2.6288 60.4667 1.60357C59.4415 0.578331 58.0515 0.00163562 56.6016 0L20.2344 0C19.6542 1.05801e-05 19.0978 0.230476 18.6876 0.640702L8.57039 10.7579C8.16016 11.1681 7.9297 11.7245 7.92969 12.3047V64.5312C7.93132 65.9811 8.50802 67.3712 9.53325 68.3964C10.5585 69.4217 11.9485 69.9984 13.3984 70H56.6016C58.0515 69.9984 59.4415 69.4217 60.4667 68.3964C61.492 67.3712 62.0687 65.9811 62.0703 64.5312ZM20.2344 2.1875V9.02344C20.2337 9.89347 19.8878 10.7277 19.2726 11.3429C18.6574 11.9581 17.8232 12.304 16.9531 12.3047H10.1172L20.2344 2.1875ZM59.8828 64.5312C59.8821 65.4013 59.5362 66.2355 58.921 66.8507C58.3058 67.4659 57.4716 67.8118 56.6016 67.8125H13.3984C12.5284 67.8118 11.6942 67.4659 11.079 66.8507C10.4638 66.2355 10.1179 65.4013 10.1172 64.5312V14.4922H16.9531C18.403 14.4906 19.7931 13.9139 20.8183 12.8886C21.8435 11.8634 22.4202 10.4733 22.4219 9.02344V2.1875H56.6016C57.4716 2.18819 58.3058 2.53411 58.921 3.14932C59.5362 3.76452 59.8821 4.59872 59.8828 5.46875V64.5312Z" fill="#7764F0"/>
<path d="M33.3594 48.9231V46.6994C29.8412 45.975 26.6571 44.1182 24.2942 41.4128C21.9312 38.7075 20.5195 35.3026 20.2749 31.7189H33.3594V29.5314H20.2749C20.4816 26.3775 21.5999 23.3514 23.4939 20.821L33.3594 29.2583V26.3802L24.919 19.1619C27.2084 16.8158 30.1483 15.2096 33.3594 14.5506V12.3262C29.1672 13.0824 25.3617 15.2548 22.5791 18.4802C22.5574 18.5017 22.5334 18.5196 22.5132 18.5432C22.4955 18.564 22.4834 18.5874 22.4674 18.609C20.3517 21.0987 18.9301 24.1023 18.3461 27.3169C17.762 30.5315 18.0362 33.8433 19.141 36.918C20.2458 39.9928 22.142 42.7218 24.6384 44.8295C27.1348 46.9373 30.143 48.3493 33.3594 48.9231Z" fill="#7764F0"/>
</g>
<defs>
<clipPath id="clip0_1307_1496">
<rect width="70" height="70" fill="white"/>
</clipPath>
</defs>
</svg>
