<svg width="70" height="70" viewBox="0 0 70 70" fill="none" xmlns="http://www.w3.org/2000/svg">
<path d="M64.9918 66.1378V38.8808C64.9918 38.6156 64.8865 38.3613 64.6989 38.1737C64.5114 37.9862 64.257 37.8808 63.9918 37.8808H48.0418C47.7766 37.8808 47.5222 37.9862 47.3347 38.1737C47.1472 38.3613 47.0418 38.6156 47.0418 38.8808V66.1378C47.0418 66.403 47.1472 66.6574 47.3347 66.8449C47.5222 67.0325 47.7766 67.1378 48.0418 67.1378H63.9918C64.257 67.1378 64.5114 67.0325 64.6989 66.8449C64.8865 66.6574 64.9918 66.403 64.9918 66.1378ZM62.9918 65.1378H49.0418V39.8808H62.9918V65.1378ZM27.0248 42.4348C26.7596 42.4348 26.5052 42.5402 26.3177 42.7277C26.1302 42.9153 26.0248 43.1696 26.0248 43.4348V66.1378C26.0248 66.403 26.1302 66.6574 26.3177 66.8449C26.5052 67.0325 26.7596 67.1378 27.0248 67.1378H42.9748C43.24 67.1378 43.4944 67.0325 43.6819 66.8449C43.8695 66.6574 43.9748 66.403 43.9748 66.1378V43.4348C43.9748 43.1696 43.8695 42.9153 43.6819 42.7277C43.4944 42.5402 43.24 42.4348 42.9748 42.4348H27.0248ZM41.9748 65.1378H28.0248V44.4348H41.9748V65.1378ZM6.00881 47.1558C5.7436 47.1558 5.48924 47.2612 5.30171 47.4487C5.11417 47.6363 5.00881 47.8906 5.00881 48.1558V66.1378C5.00881 66.403 5.11417 66.6574 5.30171 66.8449C5.48924 67.0325 5.7436 67.1378 6.00881 67.1378H21.9588C22.224 67.1378 22.4784 67.0325 22.6659 66.8449C22.8535 66.6574 22.9588 66.403 22.9588 66.1378V33.0498C22.9588 32.7846 22.8535 32.5303 22.6659 32.3427C22.4784 32.1552 22.224 32.0498 21.9588 32.0498H6.00781C5.7426 32.0498 5.48824 32.1552 5.30071 32.3427C5.11317 32.5303 5.00781 32.7846 5.00781 33.0498V42.8808C5.00781 43.146 5.11317 43.4004 5.30071 43.5879C5.48824 43.7755 5.7426 43.8808 6.00781 43.8808C6.27303 43.8808 6.52738 43.7755 6.71492 43.5879C6.90246 43.4004 7.00781 43.146 7.00781 42.8808V34.0508H20.9578V65.1378H7.00781V48.1558C7.00781 47.8906 6.90246 47.6363 6.71492 47.4487C6.52738 47.2612 6.27403 47.1558 6.00881 47.1558ZM25.4678 32.9998V35.9158C25.468 36.0853 25.5112 36.2519 25.5934 36.4C25.6756 36.5482 25.7941 36.673 25.9378 36.7628C28.699 38.4851 31.8895 39.3949 35.1438 39.3878C38.4088 39.3878 41.5938 38.4808 44.3548 36.7648C44.6478 36.5828 44.8268 36.2608 44.8268 35.9148V32.9998C44.8268 28.7888 42.1928 25.4348 38.8368 24.0548C39.5765 23.4909 40.1762 22.764 40.5893 21.9307C41.0024 21.0973 41.2179 20.18 41.2188 19.2498C41.217 17.6391 40.5764 16.0949 39.4375 14.9558C38.2986 13.8168 36.7545 13.1759 35.1438 13.1738C31.7988 13.1738 29.0768 15.8998 29.0768 19.2498C29.0768 21.2068 30.0128 22.9458 31.4558 24.0548C29.681 24.7807 28.1632 26.0197 27.0966 27.6132C26.03 29.2068 25.4622 31.0823 25.4678 32.9998ZM35.1438 15.1738C36.2243 15.1752 37.2602 15.605 38.0242 16.3692C38.7881 17.1333 39.2178 18.1693 39.2188 19.2498C39.2176 20.0543 38.978 20.8404 38.5303 21.5088C38.0826 22.1773 37.4468 22.698 36.7033 23.0053C35.9598 23.3125 35.1419 23.3926 34.353 23.2353C33.564 23.0779 32.8393 22.6903 32.2705 22.1214C31.7017 21.5525 31.3143 20.8277 31.1572 20.0387C31.0001 19.2497 31.0803 18.4318 31.3878 17.6884C31.6952 16.945 32.2161 16.3093 32.8846 15.8618C33.5532 15.4142 34.3393 15.1748 35.1438 15.1738ZM35.1438 25.3258C39.3208 25.3258 42.8268 28.6938 42.8268 32.9998V35.3478C40.4878 36.6868 37.839 37.3901 35.1438 37.3878C32.4268 37.3878 29.7858 36.6848 27.4688 35.3498V32.9998C27.4664 31.9913 27.6633 30.9923 28.0482 30.0601C28.4331 29.1279 28.9984 28.2809 29.7115 27.5678C30.4247 26.8548 31.2717 26.2896 32.204 25.9049C33.1362 25.5201 34.1353 25.3233 35.1438 25.3258Z" fill="#7764F0"/>
<path d="M30.0769 34.3634H30.0809C30.6309 34.3614 31.0749 33.9134 31.0769 33.3634C31.0769 33.2234 31.1329 29.9124 34.9969 28.8444C35.2525 28.7737 35.4696 28.6044 35.6004 28.3736C35.7313 28.1428 35.765 27.8696 35.6944 27.6139C35.6237 27.3582 35.4543 27.1411 35.2236 27.0103C34.9928 26.8795 34.7195 26.8457 34.4639 26.9164C30.1619 28.1054 29.0599 31.6634 29.0769 33.3774C29.0798 33.6404 29.1865 33.8916 29.3738 34.0763C29.5611 34.261 29.8138 34.3642 30.0769 34.3634ZM65.6969 31.8934V28.9774C65.6969 24.8084 63.1019 21.4284 59.7069 20.0314C60.4462 19.4673 61.0455 18.7403 61.4583 17.907C61.871 17.0736 62.0861 16.1564 62.0869 15.2264C62.085 13.6157 61.4444 12.0714 60.3055 10.9324C59.1667 9.79337 57.6226 9.15251 56.0119 9.15039C52.6669 9.15039 49.9449 11.8754 49.9449 15.2264C49.9449 17.1834 50.8809 18.9224 52.3249 20.0324C50.5499 20.7582 49.032 21.9972 47.9652 23.5907C46.8985 25.1842 46.3315 27.0598 46.3369 28.9774V31.8924C46.3369 32.062 46.38 32.2288 46.4622 32.3772C46.5444 32.5255 46.663 32.6505 46.8069 32.7404C49.5681 34.4617 52.758 35.3714 56.0119 35.3654C59.2749 35.3654 62.4609 34.4574 65.2239 32.7424C65.3683 32.6526 65.4875 32.5274 65.5701 32.3786C65.6527 32.2299 65.696 32.0625 65.6959 31.8924L65.6969 31.8934ZM56.0109 11.1494C57.0916 11.1504 58.1277 11.5802 58.8919 12.3444C59.656 13.1086 60.0858 14.1447 60.0869 15.2254C60.0859 16.0301 59.8464 16.8165 59.3987 17.4852C58.951 18.1539 58.3151 18.675 57.5714 18.9825C56.8278 19.29 56.0096 19.3702 55.2204 19.2129C54.4312 19.0557 53.7063 18.6681 53.1372 18.099C52.5682 17.53 52.1806 16.8051 52.0233 16.0158C51.8661 15.2266 51.9463 14.4085 52.2538 13.6648C52.5613 12.9211 53.0823 12.2853 53.751 11.8376C54.4197 11.3899 55.2061 11.1504 56.0109 11.1494ZM63.6949 31.3244C59.0219 33.9994 52.9679 33.9934 48.3349 31.3244V28.9764C48.3323 27.9677 48.5292 26.9685 48.9141 26.0361C49.2989 25.1037 49.8643 24.2566 50.5776 23.5434C51.2909 22.8302 52.1381 22.265 53.0705 21.8802C54.0029 21.4955 55.0022 21.2988 56.0109 21.3014C60.2519 21.3014 63.6949 24.7294 63.6949 28.9764V31.3244Z" fill="#7764F0"/>
<path d="M55.3318 22.8933C51.0298 24.0833 49.9278 27.6393 49.9448 29.3543C49.9474 29.6178 50.0539 29.8696 50.2412 30.055C50.4284 30.2404 50.6813 30.3443 50.9448 30.3443H50.9558C51.0872 30.343 51.217 30.3158 51.3379 30.2643C51.4588 30.2128 51.5684 30.1379 51.6603 30.044C51.7523 29.9501 51.8248 29.839 51.8738 29.7171C51.9227 29.5951 51.9472 29.4647 51.9458 29.3333C51.9458 29.2983 51.9558 25.9023 55.8658 24.8213C56.1212 24.7506 56.3382 24.5813 56.4689 24.3506C56.5996 24.12 56.6334 23.8469 56.5628 23.5913C56.4908 23.3363 56.3212 23.12 56.0907 22.9893C55.8603 22.8586 55.5875 22.8241 55.3318 22.8933ZM23.1898 26.4523C23.4828 26.2693 23.6618 25.9483 23.6618 25.6023V22.6883C23.6618 19.0483 21.4558 15.2983 17.6718 13.7423C18.4114 13.1784 19.011 12.4515 19.4242 11.6181C19.8373 10.7848 20.0527 9.86744 20.0538 8.93733C20.0519 7.32661 19.4113 5.78239 18.2724 4.64335C17.1336 3.50431 15.5895 2.86345 13.9788 2.86133C10.6338 2.86133 7.91176 5.58633 7.91176 8.93733C7.91176 10.8943 8.84776 12.6333 10.2918 13.7433C8.51643 14.4686 6.99809 15.7074 5.93127 17.3011C4.86444 18.8947 4.29774 20.7706 4.30376 22.6883V25.6023C4.30376 25.7719 4.3469 25.9388 4.42912 26.0871C4.51133 26.2354 4.62993 26.3604 4.77376 26.4503C7.53467 28.1725 10.7248 29.0822 13.9788 29.0753C17.2438 29.0753 20.4288 28.1673 23.1898 26.4523ZM13.9798 4.86133C15.0603 4.86265 16.0962 5.29254 16.8601 6.05668C17.6241 6.82082 18.0537 7.8568 18.0548 8.93733C18.0538 9.74211 17.8143 10.5285 17.3665 11.1973C16.9188 11.866 16.2829 12.387 15.5391 12.6945C14.7954 13.002 13.9772 13.0821 13.188 12.9248C12.3987 12.7675 11.6738 12.3797 11.1048 11.8106C10.5358 11.2415 10.1482 10.5164 9.99111 9.72715C9.83398 8.93786 9.91432 8.1197 10.222 7.37604C10.5296 6.63238 11.0508 5.9966 11.7196 5.54901C12.3885 5.10143 13.175 4.86212 13.9798 4.86133ZM6.30376 22.6883C6.30138 21.6798 6.49828 20.6807 6.88315 19.7484C7.26801 18.8162 7.83326 17.9692 8.54642 17.256C9.25958 16.5428 10.1066 15.9776 11.0389 15.5927C11.9711 15.2079 12.9702 15.011 13.9788 15.0133C14.9873 15.0124 15.9861 15.2102 16.9182 15.5955C17.8502 15.9808 18.6972 16.546 19.4107 17.2587C20.1242 17.9715 20.6903 18.8179 21.0765 19.7495C21.4628 20.6812 21.6616 21.6798 21.6618 22.6883V25.0353C19.3227 26.3743 16.6739 27.0776 13.9788 27.0753C11.2618 27.0753 8.62076 26.3723 6.30376 25.0373V22.6883Z" fill="#7764F0"/>
<path d="M14.5278 17.3025C14.4561 17.0476 14.2867 16.8314 14.0563 16.7008C13.8259 16.5703 13.5533 16.536 13.2978 16.6055C8.99781 17.7955 7.89481 21.3515 7.91181 23.0655C7.91445 23.329 8.02097 23.5808 8.20822 23.7662C8.39547 23.9515 8.64832 24.0555 8.91181 24.0555H8.92181C9.05314 24.0542 9.18292 24.027 9.30374 23.9756C9.42457 23.9241 9.53408 23.8493 9.62601 23.7556C9.71794 23.6618 9.79049 23.5508 9.83953 23.429C9.88857 23.3071 9.91313 23.1768 9.91181 23.0455C9.91181 23.0105 9.92181 19.6145 13.8318 18.5335C14.0871 18.4625 14.3038 18.2931 14.4343 18.0625C14.5648 17.8319 14.5984 17.5579 14.5278 17.3025ZM12.2018 43.1825C10.2718 43.1825 10.2688 46.1825 12.2018 46.1825C14.1318 46.1825 14.1358 43.1825 12.2018 43.1825ZM16.2778 36.6325C13.3818 36.6325 13.3778 41.1325 16.2778 41.1325C19.1728 41.1325 19.1778 36.6325 16.2778 36.6325ZM34.3668 56.2865C36.2968 56.2865 36.2998 53.2865 34.3668 53.2865C32.4368 53.2865 32.4328 56.2865 34.3668 56.2865ZM37.3538 51.1525C40.2488 51.1525 40.2538 46.6525 37.3538 46.6525C34.4578 46.6525 34.4538 51.1525 37.3538 51.1525ZM55.0118 51.9825C56.9418 51.9825 56.9458 48.9825 55.0118 48.9825C53.0818 48.9825 53.0788 51.9825 55.0118 51.9825ZM59.0878 46.9325C61.9838 46.9325 61.9878 42.4325 59.0878 42.4325C56.1918 42.4325 56.1878 46.9325 59.0878 46.9325Z" fill="#7764F0"/>
</svg>
