<svg width="571" height="384" viewBox="0 0 571 384" fill="none" xmlns="http://www.w3.org/2000/svg">
<g style="mix-blend-mode:overlay" opacity="0.35">
<path d="M499.758 199.011L247.276 344.715C185.155 380.559 108.235 332.371 113.403 260.859C115.63 229.995 118.126 206.801 120.631 205.354C123.777 203.537 126.941 202.785 129.641 203.509C131.293 203.954 132.777 204.965 133.974 206.634C136.999 210.845 142.251 210.789 147.493 207.766C152.736 204.742 157.978 198.742 160.966 191.063L178.651 145.62C183.123 134.121 190.964 125.143 198.814 120.618C206.663 116.083 214.522 115.999 219.05 122.305L222.827 127.592C225.852 131.802 231.103 131.746 236.346 128.723C241.588 125.7 246.821 119.699 249.818 112.021L254.718 99.4357C259.719 87.0549 267.736 77.9571 275.762 73.3294C282.544 69.4157 289.336 68.6831 294.152 72.2814C295.154 73.0326 296.073 73.9693 296.889 75.1007L308.014 90.6161C311.781 95.856 318.323 95.791 324.855 92.0258C331.387 88.2513 337.901 80.7857 341.622 71.2149L352.181 44.0884C353.944 39.5905 356.996 36.0756 360.077 34.3043C363.148 32.533 366.219 32.5051 368.001 34.9628C369.764 37.4389 372.835 37.4111 375.915 35.6398C378.987 33.8684 382.049 30.3536 383.802 25.8464C387.904 15.3204 395.067 7.1036 402.248 2.95812C409.43 -1.1781 416.621 -1.25229 420.769 4.51615L448.085 42.5582C450.85 46.3976 455.619 46.342 460.388 43.5969C465.297 40.759 470.205 35.0462 472.878 27.7754C475.633 20.2449 480.421 14.8103 485.181 12.0652C492.4 7.90117 499.563 9.89508 499.6 20.1058L499.758 199.011Z" fill="#AF5CFF"/>
</g>
<path d="M189.497 225.544H196.438V232.314H189.497V239.251H182.724V232.314H175.783V225.544H182.724V218.607H189.497V225.544Z" fill="#D7ADFF"/>
<path d="M201.846 204.381V192.862H190.322V183.57H201.846V172.061H211.144V183.57H222.658V192.862H211.144V204.381H201.846Z" fill="#D7ADFF"/>
<path d="M231.464 229.541V235.309H225.554V241.226H219.773V235.309H213.854V229.541H219.773V223.624H225.554V229.541H231.464Z" fill="#D7ADFF"/>
<path d="M298.429 43.5512H305.37V50.3213H298.429V57.2489H291.665V50.3213H284.725V43.5512H291.665V36.6143H298.429V43.5512Z" fill="#D7ADFF"/>
<path d="M343.244 50.8035V56.572H337.324V62.4888H331.553V56.572H325.633V50.8035H331.553V44.8867H337.324V50.8035H343.244Z" fill="#D7ADFF"/>
<path d="M323.027 5.91682V11.6853H317.107V17.6021H311.336V11.6853H305.416V5.91682H311.336V0H317.107V5.91682H323.027Z" fill="#D7ADFF"/>
<path d="M540.156 185.555H544.943V190.229H540.156V195.014H535.479V190.229H530.691V185.555H535.479V180.77H540.156V185.555Z" fill="#D7ADFF"/>
<path d="M548.684 170.939V162.991H540.723V156.573H548.684V148.635H555.095V156.573H563.056V162.991H555.095V170.939H548.684Z" fill="#D7ADFF"/>
<path d="M420.417 343.38L323.965 287.364L467.144 204.965L563.596 260.989L420.417 343.38Z" fill="#AA6FFF"/>
<path d="M416.065 350.92L319.613 294.895L319.502 257.771L415.954 313.796L416.065 350.92Z" fill="#AA6FFF"/>
<path d="M338.784 353.303L242.332 297.279L323.864 250.231L420.315 306.256L338.784 353.303Z" fill="#9B56FF"/>
<path d="M334.431 360.842L237.979 304.818L237.877 267.286L334.329 323.31L334.431 360.842Z" fill="#AA6FFF"/>
<path d="M252.288 365.618L155.836 309.594L242.23 259.746L338.681 315.77L252.288 365.618Z" fill="#AA6FFF"/>
<path d="M185.899 372.065L89.4473 316.04C106.427 325.908 129.939 324.544 155.836 309.595L252.288 365.619C226.391 380.569 202.879 381.932 185.899 372.065Z" fill="#AA6FFF"/>
<mask id="mask0_2178_6998" style="mask-type:luminance" maskUnits="userSpaceOnUse" x="89" y="309" width="164" height="70">
<path d="M185.899 372.065L89.4473 316.04C106.427 325.908 129.939 324.544 155.836 309.595L252.288 365.619C226.391 380.569 202.879 381.932 185.899 372.065Z" fill="white"/>
</mask>
<g mask="url(#mask0_2178_6998)">
<path d="M185.899 372.064L89.4473 316.04C89.6143 316.142 89.7906 316.235 89.9576 316.337L186.409 372.361C186.242 372.268 186.066 372.166 185.899 372.064Z" fill="#AA6FFF"/>
<path d="M186.409 372.361L89.957 316.337C91.4695 317.19 93.0375 317.96 94.6613 318.637L191.113 374.661C189.499 373.984 187.93 373.224 186.409 372.361Z" fill="#AA6FFF"/>
<path d="M191.114 374.661L94.6621 318.637C96.2673 319.304 97.9096 319.889 99.6076 320.38L196.059 376.405C194.371 375.913 192.719 375.329 191.114 374.661Z" fill="#AA6FFF"/>
<path d="M196.049 376.405L99.5977 320.381C101.305 320.872 103.059 321.28 104.849 321.586L201.301 377.611C199.51 377.296 197.757 376.897 196.049 376.405Z" fill="#AA6FFF"/>
<path d="M201.301 377.61L104.85 321.586C106.687 321.901 108.57 322.124 110.5 322.244L206.952 378.269C205.022 378.148 203.139 377.926 201.301 377.61Z" fill="#AA6FFF"/>
<path d="M206.952 378.268L110.5 322.244C112.513 322.374 114.583 322.393 116.689 322.29L213.141 378.315C211.034 378.408 208.975 378.389 206.952 378.268Z" fill="#AA6FFF"/>
<path d="M213.141 378.324L116.689 322.3C118.963 322.198 121.282 321.966 123.648 321.604L220.1 377.629C217.734 377.991 215.414 378.222 213.141 378.324Z" fill="#AA6FFF"/>
<path d="M220.1 377.629L123.648 321.604C126.33 321.196 129.067 320.612 131.851 319.852L228.303 375.876C225.519 376.636 222.782 377.211 220.1 377.629Z" fill="#AA6FFF"/>
<path d="M228.303 375.876L131.852 319.852C135.433 318.878 139.089 317.626 142.819 316.068L239.271 372.093C235.541 373.641 231.876 374.903 228.303 375.876Z" fill="#AA6FFF"/>
<path d="M239.28 372.092L142.828 316.068C147.087 314.297 151.429 312.145 155.846 309.595L252.298 365.619C247.881 368.169 243.539 370.321 239.28 372.092Z" fill="#AA6FFF"/>
</g>
<path d="M182.8 377.387L86.3478 321.363C68.7926 311.171 57.8994 289.516 57.8066 258.772L154.258 314.797C154.342 345.54 165.244 367.195 182.8 377.387Z" fill="#AA6FFF"/>
<mask id="mask1_2178_6998" style="mask-type:luminance" maskUnits="userSpaceOnUse" x="57" y="258" width="126" height="120">
<path d="M182.8 377.387L86.3478 321.363C68.7926 311.171 57.8994 289.516 57.8066 258.772L154.258 314.797C154.342 345.54 165.244 367.195 182.8 377.387Z" fill="white"/>
</mask>
<g mask="url(#mask1_2178_6998)">
<path d="M182.8 377.387L86.3478 321.363C68.7926 311.171 57.8994 289.516 57.8066 258.772L154.258 314.797C154.342 345.54 165.244 367.195 182.8 377.387Z" fill="#9B56FF"/>
</g>
<path d="M158.545 282.458L158.628 312.274C158.795 371.396 200.809 395.323 252.287 365.628L338.681 315.77L338.783 353.302L420.305 306.255L420.407 343.379L563.586 260.979L563.605 265.997L416.055 350.91L415.953 313.786L334.431 360.833L334.329 323.301L252.306 370.635C198.424 401.731 154.443 376.673 154.267 314.787L154.184 284.971L158.554 282.449L158.545 282.458Z" fill="#842EFF"/>
<path d="M154.268 314.797L57.8159 258.773L57.7324 228.957L154.184 284.981L154.268 314.797Z" fill="#9B56FF"/>
<path d="M154.184 284.981L57.7324 228.957L62.0934 226.435L158.545 282.459L154.184 284.981Z" fill="#842EFF"/>
<path d="M98.1582 128.352L102.501 125.839L199.945 307.035L195.603 309.557L98.1582 128.352Z" fill="#842EFF"/>
<path d="M98.159 128.353L195.604 309.558L0 196.684L98.159 128.353Z" fill="#9B56FF"/>
<g style="mix-blend-mode:overlay" opacity="0.8">
<g opacity="0.35">
<path d="M441.479 244.139C421.724 255.536 421.613 274.029 441.247 285.436C460.88 296.834 492.808 296.834 512.572 285.436C532.326 274.038 532.428 255.546 512.794 244.148C493.161 232.75 461.233 232.75 441.479 244.148V244.139Z" fill="#AF5CFF"/>
</g>
<g opacity="0.35">
<path d="M448.939 248.479C433.333 257.484 433.249 272.091 448.754 281.105C464.259 290.11 489.497 290.11 505.103 281.105C520.71 272.1 520.793 257.493 505.28 248.488C489.775 239.483 464.537 239.483 448.939 248.488V248.479Z" fill="#AF5CFF"/>
</g>
<g opacity="0.35">
<path d="M455.871 252.504C444.115 259.292 444.05 270.291 455.732 277.07C467.413 283.859 486.416 283.859 498.172 277.07C509.928 270.291 509.984 259.283 498.311 252.504C486.629 245.715 467.627 245.715 455.871 252.504Z" fill="#AF5CFF"/>
</g>
<g opacity="0.35">
<path d="M462.281 256.232C454.088 260.962 454.042 268.631 462.189 273.352C470.335 278.072 483.576 278.081 491.769 273.352C499.962 268.622 499.999 260.962 491.862 256.232C483.724 251.502 470.474 251.502 462.291 256.232H462.281Z" fill="#AF5CFF"/>
</g>
</g>
<g style="mix-blend-mode:overlay" opacity="0.8">
<g opacity="0.35">
<path d="M252.908 298.012C238.869 306.108 238.795 319.249 252.741 327.345C266.687 335.442 289.373 335.442 303.412 327.345C317.441 319.249 317.515 306.117 303.569 298.012C289.624 289.915 266.937 289.915 252.908 298.012Z" fill="#AF5CFF"/>
</g>
<g opacity="0.35">
<path d="M258.207 301.1C247.119 307.499 247.063 317.877 258.077 324.276C269.091 330.675 287.017 330.675 298.105 324.276C309.193 317.877 309.249 307.499 298.235 301.1C287.221 294.701 269.295 294.701 258.207 301.1Z" fill="#AF5CFF"/>
</g>
<g opacity="0.35">
<path d="M263.133 303.957C254.782 308.779 254.736 316.588 263.031 321.41C271.326 326.233 284.827 326.233 293.178 321.41C301.528 316.588 301.575 308.779 293.27 303.957C284.975 299.134 271.475 299.134 263.124 303.957H263.133Z" fill="#AF5CFF"/>
</g>
<g opacity="0.35">
<path d="M267.688 306.599C261.87 309.956 261.833 315.4 267.623 318.766C273.404 322.124 282.812 322.124 288.63 318.766C294.448 315.409 294.476 309.965 288.695 306.599C282.914 303.242 273.506 303.242 267.688 306.599Z" fill="#AF5CFF"/>
</g>
</g>
<mask id="mask2_2178_6998" style="mask-type:luminance" maskUnits="userSpaceOnUse" x="409" y="0" width="162" height="303">
<path d="M570.999 243.981H534.098L515.531 233.279L500.435 248.924L531.732 279.324L490.766 302.899L409.318 243.981V0.241211H570.999V243.981Z" fill="white"/>
</mask>
<g mask="url(#mask2_2178_6998)">
<path d="M440.578 114.024C440.578 114.024 437.86 115.304 435.104 117.715C433.963 118.717 432.821 119.895 431.866 121.286C430.863 122.705 430.065 124.328 429.676 126.136C427.968 133.945 429.1 139.63 433.851 133.704L437.164 128.946C437.164 128.946 437.164 128.974 437.164 129.011C437.117 129.679 436.811 135.123 438.453 136.041H438.463C440.216 136.996 443.009 127.249 443.009 127.249C443.009 127.249 447.482 125.608 447.732 121.295L440.587 114.043L440.578 114.024Z" fill="#9AEAFB"/>
<path d="M493.096 54.096C492.141 61.2926 474.966 93.9001 471.087 98.4907C467.209 103.091 449.579 124.328 449.579 124.328C449.579 124.328 442.583 115.805 437.434 113.552L456.037 87.6308C456.037 87.6308 468.341 54.3278 472.748 49.7279C477.156 45.1373 493.096 54.0867 493.096 54.0867V54.096Z" fill="#AD57FF"/>
<path d="M543.005 229.755L536.482 222.048L540.945 232.806L531.917 245.428L519.725 249.462C514.788 251.428 525.45 231.675 525.45 231.675L522.666 220.286L534.097 212.236C536.723 215.445 544.369 227.399 544.369 227.399L543.005 229.773V229.755Z" fill="#AF5CFF"/>
<path d="M534.097 212.227C531.583 220.277 523.028 222.624 523.028 222.624C523.028 222.624 511.949 213.776 501.27 204.14C494.125 197.695 487.166 190.906 483.826 186.177C483.185 185.259 482.508 184.127 481.821 182.81C476.895 173.388 470.548 148.635 466.697 135.262C466.697 135.262 464.814 123.345 464.879 123.354L490.191 124.662C490.274 124.662 490.358 124.662 490.441 124.662L505.927 178.192C507.124 178.609 508.757 179.907 510.641 181.772C519.576 190.628 534.107 212.218 534.107 212.218L534.097 212.227Z" fill="#D7ADFF"/>
<g style="mix-blend-mode:multiply" opacity="0.2">
<path d="M534.097 212.227C531.583 220.277 523.028 222.624 523.028 222.624C523.028 222.624 511.949 213.776 501.27 204.14C494.125 197.695 487.166 190.906 483.826 186.177C483.185 185.259 482.508 184.127 481.821 182.81C476.895 173.388 470.548 148.635 466.697 135.262C466.697 135.262 464.814 123.345 464.879 123.354L490.191 124.662C490.274 124.662 490.358 124.662 490.441 124.662L505.927 178.192C507.124 178.609 508.757 179.907 510.641 181.772C519.576 190.628 534.107 212.218 534.107 212.218L534.097 212.227Z" fill="#AF5CFF"/>
</g>
<path d="M498.198 270.44L495.841 271.933L493.605 261.862L492.519 273.714C492.519 273.714 477.813 284.342 472.412 283.767C467.012 283.201 479.056 265.293 479.056 265.293L481.979 253.673L497.595 254.563C498.439 258.709 498.198 270.44 498.198 270.44Z" fill="#AF5CFF"/>
<path d="M501.261 204.14C500.853 204.91 500.5 205.55 500.212 206.069C500.63 207.377 501.558 210.66 501.92 215.204C502.374 221.158 498.292 254.461 498.292 254.461C498.292 254.461 489.839 255.824 481.228 253.756L480.31 199.846C480.56 194.189 481.108 188.393 481.813 182.8C483.891 166.033 487.213 148.635 487.25 146.326L466.688 135.253C466.688 135.253 464.805 123.335 464.861 123.345C466.011 123.419 477.48 124.189 490.182 124.652C490.266 124.652 490.349 124.652 490.433 124.652C501.836 125.079 512.729 125.237 513.973 124.421C513.982 124.421 514.604 124.003 514.715 123.938C519.067 144.285 515.448 166.775 510.632 181.752C507.348 191.945 503.525 199.865 501.261 204.112V204.14Z" fill="#D7ADFF"/>
<path d="M559.141 31.4393C557.499 33.8691 555.745 38.6731 552.906 39.3964C550.067 40.1291 547.107 40.4259 544.36 41.4646C540.204 43.0411 536.873 46.185 533.421 48.9951C529.969 51.7958 526.007 54.4204 521.563 54.578C515.847 54.7913 510.772 50.9148 505.112 50.0616C498.477 49.06 491.611 52.2688 485.125 50.5624C479.762 49.1434 475.689 44.4508 473.945 39.1924C472.219 33.934 472.562 28.1934 473.75 22.7774C474.678 18.5948 476.134 14.4493 478.667 10.9901C481.201 7.54019 484.931 4.81363 489.152 4.10881C493.124 3.45963 497.058 4.29429 500.658 6.87246C504.212 6.48296 506.281 8.37486 508.396 10.7397C510.53 13.1139 512.191 16.0816 515.04 17.5283C518.965 19.5222 523.669 17.9642 527.863 16.6473C532.057 15.3304 537.16 14.4679 540.436 17.4078C543.201 19.8932 543.841 24.5024 547.209 26.0882C550.948 27.8503 554.808 21.2101 558.223 23.5564C560.635 25.2165 560.774 28.991 559.132 31.4208L559.141 31.4393Z" fill="#AF5CFF"/>
<path d="M462.114 78.5978C462.383 83.244 466.901 87.269 466.901 87.269C466.901 87.269 465.287 96.441 464.786 123.354V123.373C464.786 123.373 485.663 140.557 491.898 137.488C492.807 137.033 493.772 136.542 494.756 136.013C502.207 132.035 511.253 126.201 513.963 124.439C513.972 124.43 513.991 124.421 514 124.411C514.352 124.18 514.584 124.022 514.705 123.957C514.751 123.929 514.77 123.911 514.77 123.911H514.761C514.714 123.642 514.631 123.317 514.519 122.937L514.482 122.788C512.784 114.98 504.517 101.217 504.517 101.217L517.034 53.966C510.956 49.8483 493.271 42.8742 493.271 42.8742C493.271 42.8742 494.348 42.5218 482.953 42.0025C471.559 41.4739 461.835 73.9515 462.095 78.607L462.114 78.5978Z" fill="#AF5CFF"/>
<path d="M501.243 46.1104L502.764 46.8152L478.398 86.5358L480.82 49.1708L501.243 46.1104Z" fill="white"/>
<g style="mix-blend-mode:overlay" opacity="0.35">
<path d="M490.516 102.543L466.846 89.4386C466.846 89.4386 470.52 86.3968 477.229 88.604C483.946 90.8019 490.516 102.552 490.516 102.552V102.543Z" fill="#AF5CFF"/>
</g>
<g style="mix-blend-mode:overlay" opacity="0.35">
<path d="M504.703 47.66L502.18 68.9253L491.63 72.1805L493.096 81.1207L478.398 86.5367L493.968 60.9311L503.655 47.1963L504.703 47.66Z" fill="#AF5CFF"/>
</g>
<g style="mix-blend-mode:overlay" opacity="0.35">
<path d="M480.819 49.1712L478.397 86.5363L473.201 68.656L477.664 66.3189L474.509 56.8872L482.331 41.9746L480.819 49.1712Z" fill="#AF5CFF"/>
</g>
<path d="M499.656 27.1641L501.243 46.1016L486.712 55.0047L484.949 48.856L484.996 42.5033C485.32 42.5311 487.037 43.0041 487.371 43.0041C494.126 43.0041 499.647 35.9651 499.647 29.2136V27.1733L499.656 27.1641Z" fill="#9AEAFB"/>
<g style="mix-blend-mode:overlay" opacity="0.7">
<path d="M485.005 42.5124C485.005 42.5124 486.35 42.9297 487.38 43.0132C492.131 43.3749 496.288 40.2774 498.31 36.2803H498.32C496.399 45.1741 488.345 48.1603 484.958 48.8651C484.958 48.8651 484.893 44.3301 485.005 42.5124Z" fill="#AF5CFF"/>
</g>
<path d="M501.047 43.9404L503.654 47.1956C502.671 50.3117 497.493 57.1095 493.977 60.9304C493.977 60.9304 492.186 54.0584 486.721 55.0043L501.251 46.1013L501.056 43.9404H501.047Z" fill="#31B6DB"/>
<path d="M485.005 42.5125L484.003 42.1323L482.333 41.9746C482.333 41.9746 478.863 49.8204 480.022 56.3772C480.022 56.3772 484.021 54.1328 486.722 55.0139L484.959 48.8652L485.005 42.5125Z" fill="#31B6DB"/>
<path d="M534.339 132.489C534.339 132.489 535.406 135.29 535.721 138.944C535.851 140.456 535.851 142.097 535.573 143.757C535.313 145.473 534.757 147.189 533.782 148.765C529.588 155.572 524.828 158.874 525.524 151.316L526.443 145.593C526.443 145.593 526.424 145.621 526.406 145.64C525.97 146.159 522.416 150.286 520.597 149.804C518.667 149.266 523.427 140.317 523.427 140.317C523.427 140.317 521.349 136.032 524.16 132.758L534.339 132.489Z" fill="#9AEAFB"/>
<path d="M517.053 53.957C521.59 59.6235 533.272 94.5772 533.903 100.55C534.543 106.531 537.698 133.945 537.698 133.945C537.698 133.945 526.693 133.102 521.507 135.253L515.652 103.898L502.764 78.5703L517.053 53.957Z" fill="#AF5CFF"/>
<path d="M476.422 20.4404V28.8427C476.422 31.5971 477.099 35.7611 478.343 37.8663C479.558 39.9901 481.367 41.6501 483.604 42.6146C483.975 42.7815 485.951 43.5606 487.213 43.5606C492.298 43.5606 496.742 40.6207 498.895 36.3546H498.913C499.461 35.2603 499.878 32.5059 500.11 31.2725C501.131 30.8922 502.012 30.1874 502.643 29.2878C504.258 26.9508 503.877 23.4081 501.985 21.3215C501.075 20.3291 499.804 19.8005 498.487 20.2642C497.559 20.5981 496.891 21.3029 496.445 22.1376C494.654 18.7247 494.098 14.9873 494.098 14.9873C492.613 17.1203 483.084 23.7791 476.431 20.4404H476.422Z" fill="#9AEAFB"/>
</g>
<mask id="mask3_2178_6998" style="mask-type:luminance" maskUnits="userSpaceOnUse" x="323" y="41" width="156" height="294">
<path d="M420.315 306.256V334.931H478.204V41.5107H323.965V250.232L420.315 306.256Z" fill="white"/>
</mask>
<g mask="url(#mask3_2178_6998)">
<path d="M353.323 165.541C353.323 165.541 349.955 165.142 345.863 165.81C344.174 166.088 342.365 166.543 340.62 167.294C338.811 168.054 337.076 169.139 335.619 170.632C329.31 177.106 326.999 183.236 335.1 180.389L341.121 177.801C341.121 177.801 341.094 177.829 341.084 177.857C340.639 178.478 337.085 183.514 338.115 185.369C339.229 187.344 347.737 179.656 347.737 179.656C347.737 179.656 354.872 178.97 357.702 174.982L353.323 165.532V165.541Z" fill="#5CDDF9"/>
<path d="M395.8 111.232C393.573 118.485 389.472 150.971 384.685 155.043C379.897 159.114 358.073 177.977 358.073 177.977C358.073 177.977 352.33 167.989 347.412 164.78L371.054 141.271L376.603 105.464L395.81 111.232H395.8Z" fill="white"/>
<path d="M384.694 155.043L370.461 167.276L376.603 105.455L384.694 155.043Z" fill="#31B6DB"/>
<path d="M452.253 306.877L431.264 325.323C430.634 325.88 429.882 326.306 429.075 326.566L422.44 328.699C418.673 329.914 414.98 327.354 414.433 323.775C414.331 323.088 414.34 322.356 414.489 321.604C414.721 320.464 415.259 319.425 416.057 318.59L431.552 301.582C435.7 301.888 444.459 303.233 449.293 296.917C451.668 300.738 452.262 306.877 452.262 306.877H452.253Z" fill="#AC55FF"/>
<path d="M386.503 302.426L362.954 317.468C362.248 317.923 361.441 318.229 360.597 318.359L353.712 319.462C349.806 320.093 346.549 317.005 346.549 313.379C346.549 312.683 346.669 311.96 346.929 311.246C347.328 310.161 348.015 309.205 348.933 308.5L365.848 295.285C369.903 296.222 379.34 297.641 385.083 292.132C386.846 296.268 386.503 302.426 386.503 302.426Z" fill="#AC55FF"/>
<path d="M378.664 176.661C378.664 176.661 364.811 226.11 364.811 234.067V296.064C364.811 296.064 371.899 301.146 384.732 298.012C384.732 298.012 394.586 242.729 389.065 238.612L396.97 220.221C396.97 220.221 400.218 247.598 403.196 253.116C406.175 258.634 431.394 303.752 431.394 303.752C431.394 303.752 444.598 305.486 449.58 297.047C449.58 297.047 434.577 242.739 426.922 242.089C426.922 242.089 437.212 199.151 432.396 187.085L378.682 176.689L378.664 176.661Z" fill="#AF5CFF"/>
<path d="M422.004 79.9514C422.004 79.8772 421.995 79.8123 421.985 79.7381C421.679 77.7442 420.176 75.9172 418.218 75.4442C417.058 75.166 415.815 75.3515 414.748 75.8523C414.108 76.1583 413.514 76.5571 412.976 77.0301V77.0115C410.962 73.9604 409.867 70.8814 410.155 67.246C403.595 68.2383 396.664 66.2722 391.542 62.0896C390.809 61.4868 393.75 51.4431 403.892 49.9314C407.223 49.4306 410.628 49.6068 413.968 50.0983C417.29 50.5898 420.593 51.7955 423.089 54.0676C426.606 57.2579 428.081 62.3122 427.608 67.0512C427.144 71.7717 424.917 76.1954 422.004 79.9607V79.9514Z" fill="#AF5CFF"/>
<path d="M432.786 173.869L432.387 187.057C428.155 191.341 416.817 197.008 415.369 197.008C410.999 197.008 378.672 176.661 378.672 176.661L381.809 150.536C381.809 150.536 373.578 108.348 377.67 100.011C381.651 91.859 390.289 90.8945 390.688 90.8574C391.857 92.8792 393.574 94.465 395.708 95.3831C395.337 95.6521 394.984 95.921 394.669 96.2085C394.548 96.3105 394.446 96.4033 394.353 96.5053C391.263 99.473 390.595 103.516 390.716 106.892C390.846 110.361 391.811 113.078 391.811 113.078C392.015 112.243 392.321 111.548 392.674 110.973C394.214 108.469 396.803 108.089 396.803 108.089C396.803 108.089 399.753 109.841 401.08 112.781C401.414 113.514 401.637 114.311 401.693 115.183C401.693 115.183 402.741 114.775 404.384 113.94C408.763 111.705 417.299 106.475 420.992 98.1561C420.992 98.1561 436.961 104.972 439.912 111.455C442.862 117.919 432.776 173.897 432.776 173.897L432.786 173.869Z" fill="white"/>
<path d="M421.307 81.676C420.259 83.401 418.57 84.6901 416.724 85.5247L417.382 92.6008L417.698 95.9765L396.793 108.07V95.7447C401.534 96.5886 406.155 94.6318 408.911 91.052C410.089 89.5404 410.924 87.7412 411.305 85.7473L412.669 78.5321V74.8874C412.669 74.8874 412.669 74.8689 412.669 74.8596C413.114 74.3032 413.615 73.7931 414.2 73.3758C415.146 72.6895 416.343 72.2814 417.531 72.3371C419.544 72.4298 421.354 73.9508 422.022 75.8519C422.049 75.9261 422.077 75.991 422.087 76.0652C422.69 77.92 422.309 80.016 421.289 81.676H421.307Z" fill="#5CDDF9"/>
<path d="M421.002 98.1382C417.3 106.457 408.763 111.687 404.393 113.923C402.751 114.757 401.702 115.165 401.702 115.165C401.637 114.293 401.424 113.496 401.09 112.763C399.763 109.823 396.812 108.071 396.812 108.071L417.717 95.9773L417.402 92.6016C420.965 94.6326 421.011 98.1382 421.011 98.1382H421.002Z" fill="#31B6DB"/>
<path d="M396.803 95.7826V108.071C396.803 108.071 394.214 108.451 392.674 110.955C392.312 111.53 392.015 112.235 391.811 113.06C391.811 113.06 390.846 110.343 390.716 106.874C390.596 103.508 391.264 99.4551 394.354 96.4874C394.456 96.3854 394.567 96.2926 394.669 96.1906C394.985 95.9031 395.337 95.6342 395.708 95.3652C396.07 95.5229 396.413 95.662 396.803 95.7733V95.7826Z" fill="#31B6DB"/>
<path d="M401.08 112.772L398.909 120.062L393.899 117.474L392.674 110.964C394.214 108.451 396.803 108.07 396.803 108.07C396.803 108.07 399.753 109.823 401.08 112.763V112.772Z" fill="#D7ADFF"/>
<g style="mix-blend-mode:overlay" opacity="0.7">
<path d="M410.377 88.6689C407.77 100.772 396.867 102.061 396.867 102.061L396.793 95.7914C396.793 95.7914 399.113 96.1067 400.291 95.8934C405.394 94.9475 408.308 92.7402 410.368 88.6782L410.377 88.6689Z" fill="#AF5CFF"/>
</g>
<path d="M412.679 74.8968V78.5415L411.315 85.7566C410.934 87.7598 410.099 89.559 408.921 91.0614C406.165 94.6412 401.544 96.6072 396.812 95.754C396.775 95.754 396.738 95.754 396.692 95.7355C395.504 95.5129 394.446 95.1327 393.481 94.6319C393.129 94.4557 392.804 94.2516 392.488 94.0291C390.568 92.7307 389.167 90.8574 388.396 88.6594H388.378C387.599 86.4522 387.413 83.9204 387.905 81.3329L391.542 62.0801C396.664 66.2719 403.586 68.2288 410.155 67.2364C409.886 70.6956 411.389 73.4778 412.679 74.8875V74.8968Z" fill="#5CDDF9"/>
<path d="M393.898 117.474C393.898 117.474 386.067 134.315 388.73 148.31C391.402 162.304 404.894 173.99 404.894 173.99L419.183 175V164.335C419.183 164.335 399.048 153.429 397.536 144.127C396.023 134.825 398.909 120.061 398.909 120.061L393.898 117.474Z" fill="#D7ADFF"/>
<path d="M457.522 193.289C457.522 193.289 458.719 196.461 459.063 200.588C459.202 202.294 459.193 204.158 458.877 206.032C458.571 207.97 457.94 209.908 456.836 211.689C452.067 219.368 446.666 223.086 447.483 214.536L448.55 208.072C448.55 208.072 448.531 208.1 448.504 208.127C448.012 208.712 443.966 213.367 441.925 212.811H441.916C439.735 212.199 445.154 202.099 445.154 202.099C445.154 202.099 442.825 197.249 446.017 193.549L457.532 193.289H457.522Z" fill="#5CDDF9"/>
<path d="M439.911 111.428C444.625 117.363 455.936 153.263 456.585 159.514C457.235 165.764 460.427 194.421 460.427 194.421C460.427 194.421 448.93 193.503 443.502 195.729L437.499 162.936L424.119 136.421C424.119 136.421 428.777 97.4055 439.911 111.419V111.428Z" fill="white"/>
<g style="mix-blend-mode:multiply" opacity="0.4">
<path d="M396.96 220.221L392.674 193.289L380.611 185.703L396.96 220.221Z" fill="#AF5CFF"/>
</g>
<path d="M435.356 158.697L424.119 136.439L432.785 173.869L435.356 158.697Z" fill="#31B6DB"/>
</g>
<mask id="mask4_2178_6998" style="mask-type:luminance" maskUnits="userSpaceOnUse" x="118" y="34" width="247" height="294">
<path d="M308.451 298.253L338.115 315.484H364.476V34.3418H118.322V327.206H309.704L308.451 298.253Z" fill="white"/>
</mask>
<g mask="url(#mask4_2178_6998)">
<path d="M289.477 302.287L265.064 317.886C264.331 318.359 263.496 318.674 262.624 318.813L255.489 319.954C251.434 320.613 248.057 317.404 248.057 313.648C248.057 312.925 248.177 312.183 248.456 311.431C248.873 310.3 249.588 309.317 250.534 308.584L268.071 294.877C272.274 295.851 282.063 297.316 288.02 291.604C289.848 295.897 289.486 302.278 289.486 302.278L289.477 302.287Z" fill="#AC55FF"/>
<path d="M164.771 74.1556C164.771 74.1556 149.174 62.3868 145.054 60.7732C140.925 59.1595 134.996 54.6245 132.76 55.1995C130.524 55.7745 138.114 62.5723 138.114 62.5723C138.114 62.5723 135.766 65.3823 135.924 69.8895C136.091 74.3967 142.642 76.2237 142.642 76.2237C142.642 76.2237 147.995 85.7017 155.483 83.4296L160.902 87.7142C160.902 87.7142 167.518 80.703 164.762 74.1463L164.771 74.1556Z" fill="#A6ECFC"/>
<path d="M257.002 81.3897C241.831 80.6849 200.68 87.8723 200.68 87.8723L163.835 72.0879C166.21 80.147 158.75 87.6961 158.75 87.6961C158.75 87.6961 192.274 112.541 200.142 113.793C203.288 114.294 236.951 109.787 236.951 109.787L257.011 81.3897H257.002Z" fill="#AF5CFF"/>
<path d="M342.495 169.956C342.495 169.956 344.861 172.72 346.698 176.754C347.459 178.423 348.127 180.297 348.489 182.3C348.888 184.359 348.953 186.547 348.489 188.736C346.475 198.195 342.393 203.908 340.11 195.005L338.83 188.105C338.83 188.105 338.83 188.142 338.802 188.17C338.514 188.931 336.139 195.089 333.875 195.283H333.866C331.453 195.46 333.235 183.32 333.235 183.32C333.235 183.32 329.124 179.286 330.989 174.398L342.486 169.956H342.495Z" fill="#A6ECFC"/>
<path d="M256.639 177.515C256.639 177.515 282.832 244.705 286.729 255.416C290.626 266.128 323.102 303.669 323.102 303.669C323.102 303.669 339.126 302.046 343.886 292.42C343.886 292.42 315.846 243.518 311.197 246.977L300.267 180.547L256.648 177.515H256.639Z" fill="#AD57FF"/>
<path d="M343.868 292.438L337.596 320.65C337.41 321.513 337.039 322.319 336.519 323.033L332.27 328.885C330.971 330.666 329.041 331.528 327.111 331.528C324.735 331.528 322.397 330.249 321.274 327.791C320.764 326.706 320.588 325.51 320.736 324.332L323.325 303.66C323.427 303.641 323.557 303.632 323.733 303.604C326.062 303.289 334.562 301.824 340.138 297.103C341.669 295.814 342.977 294.265 343.887 292.448L343.868 292.438Z" fill="#AC55FF"/>
<g style="mix-blend-mode:multiply" opacity="0.4">
<path d="M343.887 292.42C343.887 292.42 343.887 292.438 343.869 292.448C342.969 294.265 341.661 295.814 340.12 297.103C334.535 301.824 326.045 303.28 323.716 303.604C323.549 303.632 323.409 303.641 323.307 303.66C323.168 303.678 323.094 303.688 323.094 303.688C323.094 303.688 290.619 266.146 286.722 255.435C282.825 244.723 256.631 177.533 256.631 177.533L300.25 180.557L311.18 246.986C315.727 243.611 342.616 290.24 343.832 292.355C343.832 292.383 343.86 292.41 343.86 292.42H343.887Z" fill="#AF5CFF"/>
</g>
<path d="M315.521 173.192C315.521 173.192 322.666 185.638 314.435 197.648C306.205 209.658 273.349 229.504 273.349 229.504L289.318 294.589C289.318 294.589 275.845 303.029 267.671 294.32C265.37 291.872 240.735 232.055 242.507 220.369C244.289 208.684 286.284 174.5 286.284 174.5L315.512 173.202L315.521 173.192Z" fill="#AD57FF"/>
<path d="M239.381 81.5937C239.381 81.5937 253.178 76.3539 264.433 80.926C275.688 85.4981 299.776 97.4245 304.489 104.037C309.194 110.649 326.359 130.236 329.282 136.292C332.205 142.348 345.844 170.049 345.844 170.049C345.844 170.049 333.94 173.295 329.282 177.515L311.309 146.679L288.196 124.838L239.381 81.5845V81.5937Z" fill="#AF5CFF"/>
<path d="M318.769 173.684C318.769 173.684 290.432 193.364 287.212 192.121C286.498 191.843 278.75 189.237 278.75 189.237L276.495 188.374L266.688 184.581H266.669C266.669 184.581 266.632 184.581 266.595 184.563L258.337 181.363V181.345L254.477 179.87L253.41 157.974C253.41 157.974 244.038 139.148 237.089 121.778C232.125 109.397 228.395 97.7671 230.139 94.2059C234.222 85.8593 238.944 81.6304 239.371 81.584C240.559 83.6521 242.322 85.275 244.512 86.2117L270.418 89.0403C270.418 89.0403 295.099 99.3623 298.124 105.993C301.149 112.624 305.76 154.459 305.76 154.459L318.75 173.666L318.769 173.684Z" fill="#AF5CFF"/>
<path d="M255.443 145.566L267.682 120.109L261.799 114.999L272.59 100.819C272.59 100.819 276.088 89.6713 268.164 84.4314L242.518 83.875C242.518 83.875 237.387 88.4285 235.902 101.95L237.508 109.063L237.062 119.645L255.443 145.575V145.566Z" fill="#AC55FF"/>
<path d="M240.076 99.2324C240.076 99.2324 243.435 122.992 253.28 139.547C253.28 139.547 255.664 113.83 260.749 99.2324H240.076Z" fill="white"/>
<path d="M271.93 69.3609C271.93 69.2868 271.912 69.2218 271.893 69.1384C271.439 67.1259 269.778 65.3638 267.736 65.0207C266.53 64.8167 265.278 65.0949 264.22 65.6792C263.58 66.0316 263.014 66.486 262.494 67.0053V66.9868C260.221 64.0098 258.885 60.9309 258.931 57.1934C252.287 58.668 245.078 57.1378 239.548 53.2242C238.75 52.6584 238.008 52.0556 237.284 51.3972C235.994 50.2194 234.806 48.8561 234.324 47.1775C233.841 45.5174 234.203 43.4957 235.586 42.4477C236.56 41.7058 237.831 41.5296 239.038 41.3905C243.139 40.9083 247.24 40.4167 251.332 39.9252C254.756 39.5264 258.198 39.1184 261.64 39.3873C265.073 39.6563 268.534 40.6579 271.244 42.8002C275.057 45.8235 276.922 50.8871 276.774 55.756C276.625 60.6155 274.668 65.2896 271.949 69.3424L271.93 69.3609Z" fill="#AF5CFF"/>
<path d="M270.762 72.1892C269.686 73.9606 267.96 75.2775 266.058 76.1307L266.735 83.383L267.06 86.8422L245.645 99.2323V86.6103C250.507 87.4821 255.239 85.4696 258.059 81.7971C259.266 80.2483 260.119 78.4028 260.509 76.3533L261.91 68.9619V65.2337C261.91 65.2337 261.91 65.2152 261.91 65.2059C262.365 64.6309 262.884 64.1116 263.478 63.6849C264.452 62.9801 265.677 62.5628 266.893 62.6277C268.953 62.7204 270.808 64.2785 271.495 66.226C271.523 66.3095 271.551 66.3651 271.56 66.4393C272.172 68.3405 271.792 70.4828 270.743 72.1892H270.762Z" fill="#A6ECFC"/>
<path d="M270.447 89.0492C266.652 97.5721 257.911 102.932 253.43 105.223C251.75 106.076 250.665 106.503 250.665 106.503C250.6 105.613 250.377 104.797 250.034 104.045C248.679 101.031 245.654 99.2414 245.654 99.2414L267.069 86.8513L266.745 83.3828C270.391 85.4695 270.447 89.0585 270.447 89.0585V89.0492Z" fill="white"/>
<path d="M245.645 86.638V99.2321C245.645 99.2321 242.991 99.6217 241.414 102.191C241.052 102.784 240.736 103.498 240.532 104.351C240.532 104.351 239.539 101.56 239.4 98.008C239.261 94.1036 240.152 89.2904 244.522 86.2207C244.884 86.3876 245.255 86.5175 245.635 86.638H245.645Z" fill="white"/>
<g style="mix-blend-mode:overlay" opacity="0.7">
<path d="M259.563 79.3486C256.891 91.7573 245.729 93.0742 245.729 93.0742L245.654 86.6473C245.654 86.6473 248.03 86.9719 249.236 86.7493C254.469 85.7848 257.457 83.5219 259.563 79.3579V79.3486Z" fill="#AF5CFF"/>
</g>
<path d="M262.049 64.8445L262.299 68.5726L261.408 76.0475C261.158 78.1156 260.434 80.0168 259.339 81.6397C256.769 85.4977 252.185 87.8255 247.286 87.2876C247.249 87.2876 247.203 87.2876 247.166 87.2876C245.941 87.1392 244.827 86.8332 243.807 86.3787C243.435 86.2211 243.083 86.0356 242.749 85.8316C240.689 84.6352 239.139 82.8175 238.193 80.6288H238.174C237.228 78.4216 236.857 75.8527 237.182 73.1725L239.557 53.2334C245.087 57.1563 252.306 58.6772 258.949 57.2119C258.912 60.7639 260.647 63.4997 262.067 64.8537L262.049 64.8445Z" fill="#A6ECFC"/>
<path d="M254.821 126.869L253.393 140.261C250.034 135.142 244.949 120.322 244.949 120.322L243.344 108.618L248.484 111.271L254.821 126.869Z" fill="#D7ADFF"/>
<path d="M250.034 104.037L248.484 111.261L243.344 108.609L241.414 102.182C243.001 99.6039 245.645 99.2236 245.645 99.2236C245.645 99.2236 248.67 101.023 250.025 104.028L250.034 104.037Z" fill="#D7ADFF"/>
<g style="mix-blend-mode:multiply" opacity="0.2">
<path d="M304.026 139.806L282.035 119.385L305.779 154.468L304.026 139.806Z" fill="#AF5CFF"/>
</g>
</g>
</svg>
