<svg width="100" height="100" viewBox="0 0 100 100" fill="none" xmlns="http://www.w3.org/2000/svg">
<path d="M56 67L49.1807 79.9532C47.4759 82.8677 43.7253 83.8392 40.6567 82.22C38.2699 80.6009 37.247 77.6864 38.6109 75.0957L42.7024 67" stroke="black" stroke-width="3" stroke-miterlimit="10" stroke-linecap="round" stroke-linejoin="round"/>
<path d="M72 54V50.9388C72 44.8164 67.6517 39.3743 61.9655 38.3539C60.268 37.8607 58.5701 37.9039 57 38.3539" stroke="black" stroke-width="3" stroke-miterlimit="10" stroke-linecap="round" stroke-linejoin="round"/>
<path d="M30.5017 67L26.3346 75.0957C25.0482 77.5876 25.9874 80.6009 28.4181 82.22C31.5434 83.8392 35.3632 82.8677 37.0995 79.9532L37.7578 78.9412" stroke="black" stroke-width="3" stroke-miterlimit="10" stroke-linecap="round" stroke-linejoin="round"/>
<path d="M60.4999 33C64.6424 33 68 29.1944 68 24.5C68 19.8056 64.6424 16 60.4999 16C56.3579 16 53 19.8056 53 24.5C53 29.1944 56.3579 33 60.4999 33Z" stroke="black" stroke-width="3" stroke-miterlimit="10" stroke-linecap="round" stroke-linejoin="round"/>
<path d="M53 57H32.92C31.8813 57 30.8427 56.32 30.4965 55.3L27.0344 43.06C26.806 41.5298 27.7268 40 29.4579 40H46.0758C47.1145 40 48.1531 40.68 48.4993 41.7L53 57Z" stroke="#00CCF5" stroke-width="3" stroke-miterlimit="10" stroke-linecap="round" stroke-linejoin="round"/>
<path d="M62 57H53" stroke="#00CCF5" stroke-width="3" stroke-miterlimit="10" stroke-linecap="round" stroke-linejoin="round"/>
</svg>
