<svg width="100" height="100" viewBox="0 0 100 100" fill="none" xmlns="http://www.w3.org/2000/svg">
<path d="M77.5918 43.4397C77.5918 67.4236 56.4107 80.8759 51.2254 83.8177C50.8795 84.0133 50.4883 84.1162 50.0903 84.1162C49.6922 84.1162 49.3011 84.0133 48.9551 83.8177C43.7699 80.8789 22.5918 67.4236 22.5918 43.4397C22.5918 36.193 25.4891 29.2432 30.6464 24.1191C35.8036 18.9949 42.7983 16.1162 50.0918 16.1162C57.3853 16.1162 64.38 18.9949 69.5372 24.1191C74.6945 29.2432 77.5918 36.193 77.5918 43.4397Z" stroke="black" stroke-width="3" stroke-linecap="round" stroke-linejoin="round"/>
<path d="M43.5918 39.1162C43.5918 45.1968 49.5918 50.1162 49.5918 50.1162C49.5918 50.1162 55.5918 45.1907 55.5918 39.1162C55.5918 33.0418 49.5918 28.1162 49.5918 28.1162C49.5918 28.1162 43.5918 33.0479 43.5918 39.1162Z" stroke="#00CCF5" stroke-width="3" stroke-linecap="round" stroke-linejoin="round"/>
<path d="M45.5208 46.4267C50.198 51.3789 49.5628 60.0852 49.5628 60.0852C49.5628 60.0852 41.3401 60.7608 36.6628 55.8054C31.9856 50.8501 32.6208 42.1469 32.6208 42.1469C32.6208 42.1469 40.8464 41.4744 45.5208 46.4267Z" stroke="#00CCF5" stroke-width="3" stroke-linecap="round" stroke-linejoin="round"/>
<path d="M53.9023 46.4267C48.9499 51.3789 49.6225 60.0852 49.6225 60.0852C49.6225 60.0852 58.3289 60.7608 63.2813 55.8054C68.2337 50.8501 67.5611 42.1469 67.5611 42.1469C67.5611 42.1469 58.8516 41.4744 53.9023 46.4267Z" stroke="#00CCF5" stroke-width="3" stroke-linecap="round" stroke-linejoin="round"/>
<path d="M49.5918 60.1162V64.1162" stroke="#00CCF5" stroke-width="3" stroke-linecap="round" stroke-linejoin="round"/>
</svg>
