<svg width="375" height="392" viewBox="0 0 375 392" fill="none" xmlns="http://www.w3.org/2000/svg">
<g style="mix-blend-mode:multiply">
<path d="M355.479 260.431L240.339 193.961C238.559 192.931 236.329 192.391 233.869 192.391C231.069 192.391 228.319 193.091 226.109 194.361L213.269 201.771C210.339 203.461 208.659 206.031 208.659 208.811C208.659 211.381 210.079 213.671 212.569 215.111L224.879 222.221L155.259 262.421C146.249 267.621 145.269 275.491 153.069 280.001L164.569 286.641C172.379 291.151 186.009 290.581 195.019 285.381L264.639 245.181L327.699 281.591C329.479 282.621 331.709 283.161 334.169 283.161C336.969 283.161 339.719 282.461 341.929 281.191L354.769 273.781C357.699 272.091 359.379 269.521 359.379 266.741C359.379 264.171 357.959 261.881 355.479 260.441V260.431Z" fill="#E1BEFF"/>
</g>
<g style="mix-blend-mode:multiply">
<path d="M197.19 283.45L93.3405 223.49L71.6505 223.69L23.7705 251.51C17.7005 255.04 17.5805 260.66 23.4905 264.08L127.34 324.04C133.25 327.45 142.96 327.37 149.03 323.84L196.91 296.02C202.97 292.5 203.1 286.87 197.18 283.46L197.19 283.45Z" fill="#DBB1FF"/>
</g>
<g style="mix-blend-mode:multiply">
<path d="M187.311 334.591L215.951 318.051L244.461 334.511L215.811 351.051L187.311 334.591Z" fill="#DBB1FF"/>
</g>
<g style="mix-blend-mode:multiply">
<path d="M93.0898 374.62L121.74 358.08L150.25 374.54L121.6 391.08L93.0898 374.62Z" fill="#DBB1FF"/>
</g>
<g style="mix-blend-mode:multiply">
<path d="M249.949 372.82L278.599 356.28L307.099 372.74L278.449 389.28L249.949 372.82Z" fill="#DBB1FF"/>
</g>
<g style="mix-blend-mode:multiply">
<path d="M17.6406 331.061L46.2906 314.521L74.8006 330.981L46.1506 347.521L17.6406 331.061Z" fill="#DBB1FF"/>
</g>
<g style="mix-blend-mode:multiply">
<path d="M317.65 335.971L346.3 319.431L374.81 335.891L346.16 352.431L317.65 335.971Z" fill="#DBB1FF"/>
</g>
<g style="mix-blend-mode:multiply">
<path d="M249.949 296.361L278.599 279.811L307.099 296.271L278.449 312.811L249.949 296.361Z" fill="#DBB1FF"/>
</g>
<path d="M76.5808 218.8L74.0508 218.57C79.8108 215.22 89.0308 215.14 94.6408 218.38L92.1308 218.61C87.9508 216.19 80.9708 216.24 76.5708 218.8H76.5808Z" fill="#A53DFF"/>
<path d="M31.1198 245.22L28.5898 244.99L74.0498 218.57L76.5798 218.8L31.1198 245.22Z" fill="#A237FF"/>
<path d="M24.1699 256.45L24.1899 251.09C24.1899 253.22 25.5599 255.33 28.3299 256.92L28.3099 262.28C25.5399 260.68 24.1699 258.57 24.1699 256.45Z" fill="#9D2CFF"/>
<path d="M30.8401 254.23L28.3301 256.92C22.7101 253.68 22.8301 248.34 28.5901 244.99L31.1201 245.22C26.7201 247.78 26.6501 251.82 30.8401 254.24V254.23Z" fill="#A237FF"/>
<path d="M92.1406 218.61L94.6506 218.38L193.271 275.32L190.761 275.55L92.1406 218.61Z" fill="#A237FF"/>
<path d="M190.76 275.55L193.27 275.32C198.89 278.56 198.77 283.9 193.01 287.25L190.49 284.56C194.89 282 194.96 277.96 190.76 275.55Z" fill="#A237FF"/>
<path d="M197.41 281.15L197.39 286.51C197.39 288.7 195.91 290.91 192.99 292.61L193.01 287.25C195.93 285.55 197.4 283.34 197.41 281.15Z" fill="#9D2CFF"/>
<path d="M190.49 284.561L193.01 287.251L147.55 313.671L145.02 310.981L190.49 284.561Z" fill="#A237FF"/>
<path d="M193.009 287.25L192.999 292.61L147.529 319.03L147.549 313.67L193.009 287.25Z" fill="#9D2CFF"/>
<path d="M129.46 311.17L126.95 313.86L28.3203 256.92L30.8403 254.23L129.46 311.17Z" fill="#A237FF"/>
<path d="M126.951 313.86L126.931 319.22L28.3105 262.28L28.3205 256.92L126.951 313.86Z" fill="#9D2CFF"/>
<path d="M190.76 275.55C194.96 277.97 194.88 282.01 190.49 284.56L145.02 310.98C140.62 313.54 133.64 313.59 129.46 311.17L30.8404 254.23C26.6504 251.81 26.7204 247.77 31.1204 245.21L76.5904 218.79C80.9904 216.24 87.9704 216.18 92.1504 218.6L190.77 275.54L190.76 275.55Z" fill="#A53DFF"/>
<path d="M145.019 310.98L147.539 313.67C141.779 317.02 132.559 317.1 126.939 313.86L129.449 311.17C133.629 313.59 140.609 313.54 145.009 310.98H145.019Z" fill="#A237FF"/>
<path d="M147.55 313.67L147.53 319.03C141.77 322.38 132.55 322.46 126.93 319.22V313.86C132.56 317.1 141.78 317.02 147.54 313.67H147.55Z" fill="#9D2CFF"/>
<path d="M66.3913 224.539L65.5312 223.729L69.7613 224.38L69.2513 223.899L66.3913 224.539Z" fill="#C583FF"/>
<path d="M67.1506 224.54V226.1C67.1506 225.57 66.9006 225.03 66.3906 224.55V222.99C66.9006 223.47 67.1506 224.01 67.1506 224.54Z" fill="#B663FF"/>
<path d="M42.3398 237.21L43.7498 237.7L42.0098 239.72L42.8598 240.01L42.3398 237.21Z" fill="#C583FF"/>
<path d="M186.271 272.11C190.331 274.45 190.351 278.25 186.321 280.59L144.211 305.06C140.191 307.4 133.621 307.4 129.571 305.06L35.3109 250.64C31.2609 248.3 31.2309 244.5 35.2609 242.16L42.8609 237.74L42.0209 237.44C45.3809 238.62 49.6709 238.31 52.4209 236.71L68.0309 227.64C70.7909 226.04 71.2909 223.56 69.2609 221.62L69.7709 222.1L77.3709 217.68C81.3909 215.34 87.9609 215.34 92.0109 217.68L186.271 272.1V272.11Z" fill="url(#paint0_linear_2178_7633)"/>
<path d="M66.4013 222.98L66.3913 224.54L65.5312 223.73V222.17L66.4013 222.98Z" fill="#B663FF"/>
<path d="M28.9004 248.27V246.71C28.9004 248.75 30.2504 250.8 32.9504 252.36V253.92C30.2404 252.36 28.9004 250.31 28.9004 248.27Z" fill="#B663FF"/>
<path d="M192.67 276.74V278.3C192.66 280.32 191.33 282.33 188.68 283.87V282.31C191.33 280.77 192.66 278.76 192.67 276.74Z" fill="#B663FF"/>
<path d="M188.69 282.32V283.88L146.58 308.35V306.79L188.69 282.32Z" fill="#B663FF"/>
<path d="M127.209 306.79L127.199 308.35L32.9395 253.93L32.9495 252.37L127.209 306.79Z" fill="#B663FF"/>
<path d="M188.62 271.09L188.55 271.04L94.3797 216.66C88.9997 213.56 80.3297 213.56 74.9897 216.66L65.5397 222.16L66.3997 222.97C67.6497 224.15 67.3197 225.65 65.6597 226.62L50.0597 235.7C48.3997 236.67 45.7897 236.86 43.7497 236.14L42.3397 235.63L32.8897 241.13C27.5497 244.23 27.5997 249.26 32.9597 252.36L127.22 306.78C132.58 309.88 141.25 309.88 146.59 306.78L188.69 282.31C189.29 281.96 189.8 281.59 190.26 281.2C193.96 278.13 193.4 273.83 188.62 271.08V271.09ZM186.31 280.59L144.2 305.06C140.18 307.39 133.62 307.39 129.57 305.06L35.3097 250.64C31.2697 248.31 31.2397 244.49 35.2597 242.16L42.8597 237.75L42.8397 237.68C46.0497 238.56 49.8897 238.19 52.4097 236.73L68.0297 227.65C70.5697 226.17 71.1997 223.98 69.6897 222.1H69.7597L77.3597 217.69C81.3797 215.36 87.9397 215.36 91.9897 217.69L185.72 271.81L186.25 272.11C189.99 274.26 190.32 277.66 187.2 280.01C186.92 280.19 186.62 280.4 186.3 280.59H186.31Z" fill="url(#paint1_linear_2178_7633)"/>
<path d="M146.581 306.79V308.35C141.241 311.45 132.571 311.45 127.201 308.35V306.79C132.571 309.89 141.251 309.89 146.581 306.79Z" fill="#B663FF"/>
<path d="M145.359 289.47C143.499 289.47 141.739 288.74 140.929 287.63C140.349 286.82 140.389 285.84 141.059 284.7C142.319 282.57 145.009 281.41 147.729 280.49C148.099 280.36 148.449 280.26 148.809 280.17C148.619 280.18 148.419 280.2 148.219 280.22L147.599 280.28C145.599 280.49 143.529 280.71 141.669 280.17C140.289 279.77 139.249 278.98 138.749 277.94C138.359 277.12 138.339 276.22 138.679 275.4C139.069 274.47 139.759 273.91 140.659 273.37C141.399 272.92 142.299 272.42 143.439 272.19C144.529 271.96 146.039 272.03 146.939 272.69L146.119 273.82C145.669 273.49 144.619 273.38 143.719 273.56C142.799 273.75 142.059 274.16 141.389 274.57C140.569 275.07 140.199 275.43 139.969 275.95C139.779 276.41 139.789 276.89 140.009 277.35C140.329 278.03 141.059 278.56 142.059 278.84C143.659 279.3 145.589 279.1 147.449 278.9L148.069 278.84C150.559 278.58 152.429 278.72 153.729 279.25C153.789 279.24 153.849 279.22 153.899 279.21C153.659 278.85 153.509 278.46 153.449 278.06C153.369 277.49 153.319 276.88 153.489 276.24C153.799 275.09 155.069 273.82 156.589 273.14C158.609 272.24 160.859 272.71 161.709 274.2C162.009 274.73 162.059 275.34 161.839 275.96C161.379 277.3 159.759 278.57 157.159 279.63C157.099 279.65 157.039 279.68 156.979 279.7C158.149 280.1 159.589 280.2 160.909 279.93C163.779 279.35 164.609 278.27 166.119 276.33C164.609 275.97 163.309 275.25 162.519 274.33C161.899 273.61 161.139 272.05 161.699 270.94C161.969 270.42 162.619 269.82 164.189 269.94C165.459 270.04 166.899 270.77 167.539 271.63C168.399 272.79 168.489 274.07 168.199 275.2C169.969 275.26 171.859 274.78 173.319 273.94L174.019 275.15C172.199 276.2 169.799 276.74 167.639 276.57C167.509 276.79 167.369 277 167.229 277.18C165.629 279.25 164.579 280.61 161.189 281.3C159.169 281.71 156.969 281.4 155.399 280.51C155.729 281.01 155.959 281.69 155.889 282.59C155.689 285.08 153.709 287.29 150.589 288.51C149.119 289.09 147.369 289.42 145.549 289.47C145.479 289.47 145.419 289.47 145.359 289.47ZM153.579 280.7C152.889 280.84 152.239 280.95 151.629 281.05C150.459 281.24 149.349 281.42 148.189 281.81C145.719 282.65 143.299 283.67 142.269 285.41C141.789 286.23 141.899 286.58 142.069 286.82C142.549 287.48 143.889 288.09 145.529 288.08C147.169 288.04 148.789 287.73 150.099 287.22C152.669 286.22 154.359 284.4 154.519 282.48C154.579 281.72 154.349 281.19 153.779 280.81C153.719 280.77 153.659 280.74 153.599 280.7H153.579ZM158.739 274.06C158.239 274.06 157.699 274.17 157.179 274.4C155.899 274.97 155.029 275.95 154.859 276.58C154.759 276.95 154.779 277.35 154.859 277.84C154.909 278.21 155.139 278.53 155.399 278.77C155.799 278.64 156.219 278.49 156.659 278.31C159.799 277.03 160.429 275.82 160.549 275.48C160.629 275.24 160.619 275.04 160.529 274.86C160.229 274.33 159.539 274.05 158.749 274.05L158.739 274.06ZM163.789 271.3C163.349 271.3 163.039 271.39 162.959 271.56C162.769 271.93 163.149 272.89 163.599 273.41C164.249 274.17 165.449 274.77 166.809 275.03C167.049 274.29 167.109 273.35 166.429 272.44C166.079 271.96 165.029 271.38 164.089 271.31C163.979 271.31 163.879 271.3 163.789 271.3Z" fill="white"/>
<path d="M90.1389 233.2L63.3789 248.65C62.3089 249.26 60.6989 249.33 59.7789 248.8C58.8589 248.27 58.9689 247.34 60.0389 246.72L86.7989 231.27C87.8689 230.66 89.4789 230.59 90.3989 231.12C91.3189 231.65 91.2089 232.58 90.1389 233.2Z" fill="white"/>
<path d="M107.21 236.46L69.0196 258.51C67.9496 259.13 66.3396 259.19 65.4196 258.66C64.4996 258.13 64.6096 257.2 65.6796 256.58L103.87 234.53C104.94 233.92 106.55 233.85 107.47 234.38C108.39 234.91 108.28 235.84 107.21 236.46Z" fill="white"/>
<path d="M115.079 241L76.8887 263.05C75.8187 263.67 74.2087 263.73 73.2887 263.2C72.3687 262.67 72.4787 261.74 73.5487 261.12L111.739 239.07C112.809 238.46 114.419 238.39 115.339 238.92C116.259 239.45 116.149 240.38 115.079 241Z" fill="white"/>
<path d="M122.95 245.54L84.7598 267.59C83.6898 268.2 82.0798 268.27 81.1598 267.74C80.2398 267.21 80.3498 266.28 81.4198 265.66L119.61 243.61C120.68 242.99 122.29 242.93 123.21 243.46C124.13 243.99 124.02 244.92 122.95 245.54Z" fill="white"/>
<path d="M122.629 254.81L92.6289 272.13C91.5589 272.75 89.9489 272.81 89.0289 272.28C88.1089 271.75 88.2189 270.82 89.2889 270.2L119.289 252.88C120.359 252.26 121.969 252.2 122.889 252.73C123.809 253.26 123.699 254.19 122.629 254.81Z" fill="white"/>
<path d="M138.678 254.63L100.488 276.68C99.4183 277.3 97.8083 277.36 96.8883 276.83C95.9683 276.3 96.0783 275.37 97.1483 274.75L135.338 252.7C136.408 252.09 138.018 252.02 138.938 252.55C139.858 253.08 139.748 254.01 138.678 254.63Z" fill="white"/>
<path d="M180.109 274.42L148.189 292.85C148.059 292.92 147.869 292.93 147.759 292.87C147.649 292.81 147.659 292.7 147.789 292.62L179.709 274.19C179.839 274.12 180.029 274.11 180.139 274.17C180.249 274.23 180.239 274.34 180.109 274.42Z" fill="white"/>
<g style="mix-blend-mode:multiply">
<path d="M190.259 281.21L187.209 280.01L174.379 274.93C174.379 274.93 179.809 273.36 185.729 271.81C185.779 271.79 185.849 271.79 185.889 271.76C186.769 271.53 187.669 271.3 188.549 271.04L188.619 271.09C193.399 273.84 193.959 278.14 190.259 281.21Z" fill="#DEB7FF"/>
</g>
<path d="M119.339 274.88L108.359 281.22C107.289 281.83 105.679 281.9 104.759 281.37C103.839 280.84 103.949 279.91 105.019 279.29L115.999 272.95C117.069 272.34 118.679 272.27 119.599 272.8C120.519 273.33 120.409 274.26 119.339 274.88Z" fill="white"/>
<path d="M278.469 204.601L317.749 227.431C317.249 227.141 316.599 227.081 315.879 227.301C315.589 227.391 315.289 227.521 314.989 227.701L275.709 204.871C276.019 204.691 276.319 204.561 276.599 204.471C277.319 204.251 277.959 204.301 278.469 204.601Z" fill="#8834FF"/>
<path d="M313.979 228.431L274.699 205.601L274.799 205.341L314.079 228.161L313.979 228.431Z" fill="#BF76FF"/>
<path d="M314.989 227.7C315.299 227.52 315.599 227.39 315.879 227.3C317.589 226.78 318.879 227.81 318.879 229.92C318.879 232.38 317.149 235.39 315.009 236.62C313.659 237.4 312.469 237.29 311.769 236.49C311.439 236.11 311.229 235.58 311.149 234.92C311.129 234.75 311.119 234.58 311.119 234.4C311.119 232.34 312.319 229.9 313.979 228.44C314.299 228.16 314.639 227.91 314.989 227.7Z" fill="#8834FF"/>
<path d="M314.08 228.161L274.8 205.341L251.23 148.181L290.51 171.011L314.08 228.161Z" fill="#DCB3FF"/>
<path d="M312.26 236.89L272.98 214.06C272.8 213.96 272.64 213.82 272.5 213.66C272.17 213.28 271.96 212.75 271.88 212.09C271.86 211.92 271.85 211.75 271.85 211.57C271.85 209.51 273.05 207.07 274.71 205.6C275.03 205.32 275.37 205.07 275.72 204.86L315 227.69C314.65 227.89 314.31 228.14 313.99 228.43C312.34 229.9 311.13 232.33 311.13 234.39C311.13 234.57 311.14 234.75 311.16 234.91C311.24 235.57 311.45 236.1 311.78 236.48C311.92 236.64 312.08 236.78 312.26 236.88V236.89Z" fill="#B988FF"/>
<path d="M311.159 234.921L271.879 214.391L240.839 232.311C240.159 232.701 239.639 233.241 239.289 233.851L238.699 233.721V236.021C238.699 237.461 239.409 238.901 240.829 239.731L267.599 255.291C271.379 257.491 276.049 257.491 279.839 255.311L312.039 236.731L311.159 234.931V234.921Z" fill="#8834FF"/>
<path d="M271.88 212.091L240.84 230.011C237.99 231.661 237.98 235.771 240.83 237.421L267.6 252.981C271.38 255.181 276.05 255.181 279.84 253.001L311.16 234.921L271.88 212.091Z" fill="url(#paint2_linear_2178_7633)"/>
<path d="M292.07 169.44L315.92 227.24C315.61 227.4 315.31 227.53 315 227.71C314.65 227.91 314.31 228.16 313.99 228.45L314.09 228.18L290.52 171.03L292.08 169.45L292.07 169.44Z" fill="#8834FF"/>
<path d="M290.51 171.01L251.23 148.18L252.78 146.61L292.07 169.44L290.51 171.01Z" fill="#BF76FF"/>
<path d="M210.4 1.56055L211.52 2.18055L354.81 84.9006L353.68 84.2805L210.4 1.56055Z" fill="#BF76FF"/>
<path d="M210.15 1.41016C210.53 1.62016 210.92 1.83016 211.3 2.05016C211.37 2.09016 211.45 2.13016 211.53 2.18016L210.4 1.56016C210.32 1.51016 210.23 1.47016 210.15 1.42016V1.41016Z" fill="#BF76FF"/>
<path d="M361.34 228.411L356.41 231.281C358.45 230.101 359.71 227.581 359.72 224.011L364.65 221.141C364.64 224.711 363.38 227.231 361.34 228.411Z" fill="#8027FF"/>
<path d="M364.98 103.851L365 102.551L364.67 219.841L364.65 221.141L364.98 103.851Z" fill="#BF76FF"/>
<path d="M360.051 106.721L364.981 103.851L364.651 221.141L359.721 224.001L360.051 106.721Z" fill="url(#paint3_linear_2178_7633)"/>
<path d="M353.68 84.2803L354.81 84.9003C360.45 88.1603 365.02 96.0603 365 102.55L364.98 103.85C365 96.6503 359.94 87.8903 353.68 84.2803Z" fill="#8027FF"/>
<path d="M347.62 89.0801C353.26 92.3401 357.83 100.24 357.81 106.73L357.48 224.02C357.46 230.5 352.86 233.12 347.22 229.86L203.94 147.13C198.3 143.87 193.73 135.96 193.75 129.48L194.08 12.1901C194.1 5.7001 198.69 3.0901 204.34 6.3501L347.62 89.0701V89.0801Z" fill="url(#paint4_linear_2178_7633)"/>
<path d="M348.75 87.1505L205.47 4.42045C199.21 0.810448 194.12 3.70045 194.1 10.9004L194.08 12.2004C194.1 5.71045 198.69 3.10045 204.34 6.36045L347.62 89.0805C353.26 92.3405 357.83 100.24 357.81 106.73L357.48 224.02C357.46 230.42 352.99 233.05 347.45 229.99C347.83 230.2 348.22 230.41 348.6 230.63C354.74 234.02 359.7 231.1 359.72 224.01L360.05 106.72C360.07 99.5205 355.01 90.7605 348.75 87.1505Z" fill="url(#paint5_linear_2178_7633)"/>
<path d="M353.68 84.2804L210.4 1.55039C207.25 -0.269608 204.4 -0.439608 202.33 0.760392L197.4 3.63039C199.46 2.43039 202.32 2.60039 205.47 4.42039L348.75 87.1504C355.01 90.7604 360.07 99.5204 360.05 106.72L364.98 103.85C365 96.6504 359.94 87.8904 353.68 84.2804Z" fill="url(#paint6_linear_2178_7633)"/>
<path d="M204.521 133.271L204.861 134.241C198.601 130.631 193.541 121.871 193.561 114.671L194.231 115.461C194.211 122.011 198.821 129.991 204.521 133.271Z" fill="#BF76FF"/>
<path d="M194.24 115.46L193.57 114.67L193.85 16.8604L194.52 17.6504L194.24 115.46Z" fill="#BF76FF"/>
<path d="M197.15 9.59059L198.66 8.71059C200.72 7.51059 203.58 7.68059 206.73 9.50059L205.22 10.3806C202.07 8.56059 199.22 8.39059 197.15 9.59059Z" fill="#B663FF"/>
<path d="M194.522 17.6506L193.852 16.8606C193.872 9.67055 198.972 6.77055 205.222 10.3806L204.872 11.7506C199.182 8.46055 194.542 11.1106 194.522 17.6506Z" fill="#BF76FF"/>
<path d="M342.221 212.771L342.561 213.741L204.871 134.241L204.521 133.271L342.221 212.771Z" fill="#BF76FF"/>
<path d="M352.151 213.651L350.641 214.531C352.671 213.351 353.941 210.831 353.951 207.261L355.461 206.381C355.451 209.961 354.191 212.471 352.151 213.651Z" fill="#B663FF"/>
<path d="M352.571 206.87L353.931 207.26C353.911 214.46 348.821 217.36 342.561 213.74L342.221 212.77C347.921 216.06 352.551 213.42 352.571 206.87Z" fill="#BF76FF"/>
<path d="M354.211 109.45L355.731 108.57L355.451 206.38L353.941 207.26L354.211 109.45Z" fill="#B663FF"/>
<path d="M352.85 109.061L354.21 109.451L353.94 207.261L352.57 206.871L352.85 109.061Z" fill="#BF76FF"/>
<path d="M204.871 11.7509L205.221 10.3809L342.921 89.8709L342.561 91.2509L204.871 11.7509Z" fill="#BF76FF"/>
<path d="M205.221 10.381L206.731 9.50098L344.431 88.991L342.921 89.871L205.221 10.381Z" fill="#B663FF"/>
<path d="M342.56 91.2506L204.87 11.7506C199.18 8.46059 194.54 11.1106 194.52 17.6506L194.24 115.461C194.22 122.011 198.83 129.991 204.53 133.271L342.22 212.771C347.92 216.061 352.55 213.421 352.57 206.871L352.85 109.061C352.87 102.521 348.26 94.5406 342.56 91.2406V91.2506Z" fill="url(#paint7_linear_2178_7633)"/>
<path d="M314.91 83.101L211.99 23.291L212.31 137.771L330.71 206.131L330.48 123.611C334.26 125.341 315.42 82.591 314.91 83.101Z" fill="#BF76FF"/>
<path d="M342.561 91.2509L342.911 89.8809C349.171 93.5009 354.231 102.261 354.211 109.451L352.851 109.061C352.871 102.521 348.261 94.5409 342.561 91.2509Z" fill="#BF76FF"/>
<path d="M342.92 89.8702L344.43 88.9902C350.69 92.6102 355.75 101.37 355.73 108.56L354.22 109.44C354.24 102.25 349.18 93.4802 342.92 89.8702Z" fill="#B663FF"/>
<path d="M232.07 142.52C232.47 141.7 232.7 141.06 232.69 140.58L232.07 142.52Z" fill="#B663FF"/>
<path d="M325.7 197.97L207.3 129.17L206.92 26.2197L325.32 95.0197L325.7 197.97Z" fill="url(#paint8_linear_2178_7633)"/>
<path d="M325.32 95.02L206.92 26.22L208.59 25.25L326.99 94.06L325.32 95.02Z" fill="#F4E8FF"/>
<path d="M326.99 94.0596L327.37 197.01L325.7 197.97L325.32 95.0196L326.99 94.0596Z" fill="#F4E8FF"/>
<path d="M267.061 233.92C266.571 234.2 266.571 234.67 267.061 234.95L272.171 237.92C272.661 238.2 273.461 238.2 273.951 237.92L283.001 232.69C283.491 232.41 283.491 231.94 283.001 231.66L277.891 228.69C277.401 228.41 276.601 228.41 276.111 228.69L267.061 233.92Z" fill="#AE50FF"/>
<path d="M267.061 234.95L268.151 235.59L276.111 230.99C276.601 230.71 277.401 230.71 277.891 230.99L281.911 233.32L283.001 232.69C283.491 232.41 283.491 231.94 283.001 231.66L277.891 228.69C277.401 228.41 276.601 228.41 276.111 228.69L267.061 233.92C266.571 234.2 266.571 234.67 267.061 234.95Z" fill="#8834FF"/>
<path d="M215.811 346.451L193.311 333.461V324.521L215.811 337.521V346.451Z" fill="#D29EFF"/>
<path d="M215.811 337.52V346.45L238.461 333.37V324.44L215.811 337.52Z" fill="#DEB7FF"/>
<path d="M193.311 324.52L215.811 337.52L238.461 324.44L215.961 311.45L193.311 324.52Z" fill="#CB8FFF"/>
<path d="M215.811 336.12L193.311 323.12V314.19L215.811 327.19V336.12Z" fill="#D29EFF"/>
<path d="M215.811 327.19V336.12L238.461 323.04V314.11L215.811 327.19Z" fill="#DEB7FF"/>
<path d="M193.311 314.19L215.811 327.19L238.461 314.11L215.961 301.11L193.311 314.19Z" fill="#F0DFFF"/>
<path d="M206.621 314.171L215.861 319.501L225.151 314.131L215.911 308.801L206.621 314.171Z" fill="#F9F2FF"/>
<path d="M181.74 265.76C179.13 268.87 176.52 271.98 173.91 275.09L180.91 266.39C181.27 266.21 181.54 266 181.74 265.76Z" fill="#AE50FF"/>
<path d="M173.91 275.09L170.93 263.28C171.12 264.05 171.82 264.86 173 265.56C175.43 267 178.97 267.37 180.91 266.39L173.91 275.09Z" fill="#B258FF"/>
<path d="M189.03 248.13C186.69 253.86 184.36 259.58 182.02 265.31C181.85 265.73 181.48 266.11 180.91 266.39L187.34 249.78C188.21 249.34 188.77 248.77 189.03 248.13Z" fill="#B258FF"/>
<path d="M188.621 244.76C188.631 244.81 188.651 244.88 188.671 244.94C188.671 244.97 188.691 245 188.691 245.03C188.701 245.08 188.721 245.15 188.741 245.21C188.751 245.26 188.771 245.33 188.791 245.39C188.791 245.42 188.811 245.45 188.811 245.48C188.821 245.53 188.841 245.6 188.861 245.66C188.871 245.71 188.891 245.78 188.911 245.84C188.911 245.87 188.931 245.9 188.931 245.93C188.941 245.98 188.961 246.05 188.981 246.11C188.991 246.16 189.011 246.23 189.031 246.29C189.031 246.32 189.051 246.35 189.051 246.38C189.061 246.43 189.081 246.5 189.101 246.56C189.451 247.84 188.891 249.04 187.331 249.82L187.031 247.72C188.421 247.02 188.931 245.94 188.611 244.79L188.621 244.76Z" fill="#BD72FF"/>
<path d="M170.88 262.74C171.28 256.57 171.67 250.4 172.07 244.22C171.98 245.61 173.09 247.2 175.3 248.5C179 250.69 184.39 251.26 187.34 249.77L180.91 266.38C178.97 267.36 175.43 266.99 173 265.55C171.55 264.69 170.82 263.65 170.88 262.74Z" fill="url(#paint9_linear_2178_7633)"/>
<path d="M172.701 242.75C173.101 242.29 173.501 241.83 173.911 241.37C172.651 242.81 173.501 244.91 176.241 246.53C179.561 248.5 184.401 249.01 187.041 247.67L187.341 249.77C184.391 251.26 179.001 250.69 175.301 248.5C172.251 246.69 171.301 244.35 172.701 242.74V242.75Z" fill="#BD72FF"/>
<path d="M205.28 170.69C205.35 171 205.42 171.32 205.48 171.63C205.72 172.72 205.2 173.74 203.86 174.42L203.74 173.33C205 172.69 205.5 171.73 205.27 170.69H205.28Z" fill="#61F0FF"/>
<path d="M190.639 168.23C190.639 168.23 190.679 168.18 190.699 168.15C190.699 168.14 190.719 168.12 190.729 168.11C190.749 168.09 190.769 168.06 190.789 168.03C190.809 168.01 190.829 167.98 190.849 167.95C190.849 167.94 190.869 167.92 190.879 167.91C190.899 167.89 190.919 167.86 190.939 167.83C190.959 167.81 190.979 167.78 190.999 167.75C190.999 167.74 191.019 167.72 191.029 167.71C191.049 167.69 191.069 167.66 191.089 167.63C191.109 167.6 191.129 167.58 191.149 167.55C191.149 167.54 191.169 167.52 191.179 167.51C191.199 167.49 191.219 167.46 191.239 167.43C190.169 168.79 191.009 170.72 193.529 172.21C196.669 174.07 201.249 174.55 203.749 173.29L203.869 174.38C201.229 175.72 196.389 175.21 193.069 173.24C190.399 171.66 189.519 169.62 190.649 168.19L190.639 168.23Z" fill="#61F0FF"/>
<path d="M203.861 174.42C201.221 175.76 196.381 175.25 193.061 173.28C190.901 172 189.911 170.42 190.211 169.1L173.381 242.36C173.081 243.68 174.061 245.26 176.231 246.54C179.551 248.51 184.391 249.02 187.031 247.68C187.951 247.21 188.491 246.58 188.651 245.87L205.481 172.61C205.321 173.32 204.781 173.95 203.861 174.42Z" fill="url(#paint10_linear_2178_7633)"/>
<path d="M204.32 159.44C205.03 160.63 205.75 161.82 206.46 163C207.28 164.36 206.93 165.72 205.3 166.55L203.66 161.44C204.58 160.98 204.78 160.21 204.31 159.44H204.32Z" fill="url(#paint11_linear_2178_7633)"/>
<path d="M193.521 160.04C194.681 159.28 195.851 158.52 197.011 157.77C195.861 158.52 196.221 159.85 197.891 160.84C199.661 161.89 202.251 162.16 203.661 161.45L205.301 166.56C202.801 167.83 198.221 167.34 195.081 165.48C192.121 163.73 191.491 161.37 193.521 160.05V160.04Z" fill="url(#paint12_linear_2178_7633)"/>
<path d="M203.659 161.45C202.249 162.16 199.659 161.89 197.889 160.84C196.119 159.79 195.819 158.36 197.229 157.64C198.639 156.93 201.229 157.2 202.999 158.25C204.769 159.3 205.069 160.73 203.659 161.45Z" fill="url(#paint13_linear_2178_7633)"/>
<path d="M205.301 166.55C202.801 167.82 198.221 167.33 195.081 165.47C193.041 164.26 192.101 162.76 192.391 161.52L190.831 168.3C190.541 169.55 191.481 171.04 193.521 172.25C196.661 174.11 201.241 174.59 203.741 173.33C204.611 172.89 205.121 172.29 205.271 171.62L206.831 164.84C206.681 165.51 206.171 166.11 205.301 166.55Z" fill="url(#paint14_linear_2178_7633)"/>
<path d="M242.329 137.54C255.919 160.97 277.939 173.69 291.529 165.94C305.119 158.2 305.119 132.92 291.529 109.49C277.949 86.0601 255.919 73.3401 242.329 81.0901C228.739 88.8301 228.739 114.11 242.329 137.54ZM243.909 83.8101C256.619 76.5601 277.229 88.4601 289.949 110.39C302.659 132.32 302.659 155.97 289.949 163.22C277.239 170.47 256.629 158.57 243.909 136.64C231.199 114.71 231.199 91.0601 243.909 83.8101Z" fill="#E0BBFF"/>
<path d="M287.5 111.79C298.86 131.39 298.86 152.53 287.5 159C276.14 165.48 257.72 154.84 246.36 135.25C235 115.65 235 94.5097 246.36 88.0397C257.72 81.5597 276.14 92.1997 287.5 111.79Z" fill="#D29EFF"/>
<path d="M282.609 114.581C291.789 130.411 291.789 147.481 282.609 152.711C273.429 157.941 258.559 149.351 249.379 133.531C240.199 117.701 240.199 100.631 249.379 95.4006C258.559 90.1706 273.429 98.7606 282.609 114.581Z" fill="#DBB1FF"/>
<path d="M276.89 118.63C269.13 105.25 256.55 97.9801 248.79 102.41L223.24 117.16L235.59 138.46C235.95 139.5 236.4 140.51 236.96 141.48C237.52 142.45 238.18 143.34 238.9 144.17L251.34 165.62L276.89 150.87C284.65 146.45 284.65 132.01 276.89 118.63Z" fill="url(#paint15_linear_2178_7633)"/>
<path d="M251.34 133.39C259.1 146.77 259.1 161.21 251.34 165.63C243.58 170.05 231 162.79 223.24 149.41C215.48 136.03 215.48 121.59 223.24 117.17C231 112.75 243.58 120.01 251.34 133.39Z" fill="#AD4EFF"/>
<path d="M250.18 134.05C257.3 146.33 257.3 159.56 250.18 163.62C243.06 167.68 231.53 161.02 224.41 148.74C217.29 136.47 217.29 123.23 224.41 119.17C231.53 115.11 243.06 121.77 250.18 134.05Z" fill="#F2E9FF"/>
<path d="M221.49 120.85L224.41 119.17L253.52 152.45L250.18 163.62L247.26 165.31L221.49 120.85Z" fill="#F2E9FF"/>
<path d="M247.26 135.73C254.38 148.01 254.38 161.25 247.26 165.3C240.14 169.36 228.61 162.7 221.49 150.42C214.37 138.15 214.37 124.91 221.49 120.85C228.61 116.79 240.14 123.45 247.26 135.73Z" fill="#F2E9FF"/>
<path d="M247.23 152.91C246.79 143.1 239.9 131.52 231.46 126.65C226.45 123.75 222 123.87 219.11 126.37C219.11 126.37 219.11 126.37 219.1 126.37L199.09 144.52C199.09 144.52 156.26 156.6 154.14 158.19C152.01 159.79 151.91 163.4 151.91 163.4C151.91 163.4 148.52 162.98 147.57 168.59C146.62 174.22 143.86 212.26 144.7 215.55C145.56 218.84 157.29 232.35 158.28 233.19C158.81 233.63 162.62 236.02 166.11 238.15C169.19 240.05 172 241.74 172 241.74C172 241.74 178.07 234.11 172.84 223.36C171.66 220.95 170.91 217.86 170.43 214.48C169.78 209.8 169.66 204.61 169.78 200.08C169.94 193.26 170.57 187.89 170.57 187.89C170.57 187.89 173.19 186.99 176.3 185.97C178.34 185.28 180.59 184.55 182.44 183.98C182.67 183.89 182.9 183.84 183.11 183.77C183.85 183.54 184.48 183.37 184.99 183.22C185.24 183.15 185.48 183.18 185.75 183.33C187.68 184.31 190.16 190.33 192.12 195.92C192.84 198.03 193.51 200.09 194.04 201.79C194.3 202.65 194.55 203.44 194.73 204.09C194.85 204.46 194.94 204.79 195.03 205.07C195.22 205.74 195.33 206.11 195.33 206.11C195.33 206.11 195.61 205.99 196.14 205.74C196.63 205.51 197.35 205.19 198.25 204.77C202.1 202.98 209.1 199.56 215.06 195.85H215.08V195.83C220.13 192.7 224.42 189.36 225.44 186.61C225.48 186.54 225.49 186.45 225.51 186.38C225.55 186.31 225.56 186.24 225.58 186.17C225.6 186.05 225.63 185.92 225.67 185.8C225.7 185.64 225.74 185.48 225.78 185.34C225.85 185.06 225.9 184.79 225.97 184.51C225.99 184.42 226 184.33 226.04 184.25C226.62 181.68 227.93 179.35 229.06 176.9C230.19 174.42 231.36 172.08 232.67 170.19L232.74 170.08C234.32 167.79 234.46 167.44 235.65 166.91C239.63 165.16 239.06 165.38 240.82 164.75C241.21 164.65 241.59 164.52 241.95 164.36C242.05 164.31 242.11 164.28 242.11 164.28C242.11 164.28 242.11 164.28 242.14 164.28C245.3 162.79 247.27 159.17 247.27 153.88C247.27 153.55 247.27 153.23 247.25 152.9L247.23 152.91Z" fill="url(#paint16_linear_2178_7633)"/>
<g style="mix-blend-mode:multiply">
<path d="M164.661 163.72C162.911 168.8 166.001 168.47 159.531 185.22C153.061 201.97 152.641 204.3 152.321 206.95C152.001 209.6 146.071 211.08 146.381 205.25C146.701 199.42 164.651 163.71 164.651 163.71L164.661 163.72Z" fill="#F6EFFF"/>
</g>
<g style="mix-blend-mode:multiply">
<path d="M150.59 206.42C148.72 213.1 150.73 215.33 156.88 224.13C163.03 232.93 166.14 238.18 166.14 238.18L168.46 239.6C168.46 239.6 165.71 218.94 164.47 217.35C163.23 215.76 150.58 206.43 150.58 206.43L150.59 206.42Z" fill="#F6EFFF"/>
</g>
<path d="M232.7 170.09C232.59 170.31 227.87 176.34 225.93 184.53C225.87 184.8 225.8 185.07 225.74 185.34C225.71 185.49 225.67 185.64 225.63 185.8C225.56 186.05 225.49 186.33 225.4 186.61C222.47 196.7 209.04 225.52 206.81 229.99C204.48 234.65 200.8 236.49 194.16 239.95C192.76 242.59 189.25 247.72 186.3 250.93C184.91 252.44 183.64 253.53 182.78 253.73C180.66 253.28 179.06 250.76 178.42 247.77C178.04 245.99 178 244.05 178.4 242.28C179.46 237.54 185.89 223.06 189.85 220.3L195 205.06L196.85 199.59C196.85 199.59 197.85 195.76 199.56 190.85C201.1 186.44 203.23 181.15 205.73 176.98C207.7 173.7 209.91 171.11 212.25 170.19C216.54 168.5 221.02 168.2 224.43 168.31C227.81 168.43 232.62 170.05 232.69 170.08L232.7 170.09Z" fill="url(#paint17_linear_2178_7633)"/>
<g style="mix-blend-mode:multiply">
<path d="M205.74 176.99C204.79 175.4 202.53 175.13 201.73 167.41L198.18 183.21C196.32 176.64 193.57 174.8 193.57 174.8C193.57 174.8 190.39 181.83 189.86 181.83C189.5 181.83 188.73 180.57 188.39 178.94C188.22 178.16 188.16 177.28 188.29 176.42C188.69 173.77 188.29 172.07 188.29 172.07C188.29 172.07 185.09 179.05 184.1 181.4C183.99 181.67 183.6 182.6 183.1 183.75C182.19 185.89 180.92 188.76 180.45 189.35C183.13 186.24 184.72 184.53 185.73 183.32C187.67 184.3 190.14 190.31 192.09 195.91C192.84 198.07 193.52 200.18 194.05 201.91C194.21 202.44 194.37 202.94 194.5 203.4C194.57 203.64 194.64 203.87 194.7 204.09C194.81 204.46 194.91 204.8 194.99 205.09L189.84 220.33C186.56 222.61 181.59 232.94 179.37 239.11C178.91 240.39 178.57 241.49 178.39 242.31C178.24 242.98 178.15 243.68 178.12 244.39C178.07 245.53 178.17 246.7 178.41 247.8C182.66 240.33 193.98 219.71 198.2 204.79C198.9 202.32 199.4 200 199.65 197.93C201.68 193.58 204.87 186.25 205.85 181.32C206.34 178.89 206.19 177.79 205.73 177.02L205.74 176.99Z" fill="#CFAEFE"/>
</g>
<g style="mix-blend-mode:multiply">
<path d="M151.901 163.38C149.461 169.42 146.381 198.58 146.381 198.58C146.381 198.58 152.541 166.99 151.901 163.38Z" fill="#CFAEFE"/>
</g>
<g style="mix-blend-mode:multiply">
<path d="M247.25 153.89C247.25 159.18 245.28 162.79 242.11 164.28L242.09 164.3C242.09 164.3 242.02 164.32 241.91 164.37C241.89 164.37 241.87 164.39 241.86 164.39C241.3 164.58 240.87 164.62 235.62 166.92C234.42 167.45 234.28 167.8 232.71 170.09L232.64 170.2C232.42 170.62 231.58 172.22 230.42 174.54C229.13 177.13 226.96 180.27 226.01 184.26C225.98 184.35 225.96 184.44 225.94 184.52C225.87 184.8 225.82 185.07 225.75 185.35C225.71 185.49 225.68 185.65 225.64 185.81C225.61 185.93 225.57 186.06 225.53 186.16C225.51 186.23 225.51 186.32 225.48 186.39C225.46 186.46 225.45 186.55 225.41 186.62C222.47 196.72 209.04 225.52 206.82 229.99C204.48 234.65 200.81 236.48 194.16 239.94C192.77 242.6 189.25 247.71 186.32 250.93V240.41C190.36 233.23 192.58 233.39 195.59 235.49C198.6 237.6 201.8 235.49 201.66 231.25C201.52 227.01 205.7 213.15 211.42 203.83C213.71 200.1 214.52 197.71 215.06 195.85V195.83C215.85 193.03 216.01 191.33 219.47 187.86C224.13 183.2 220.93 176.5 224.45 168.32C225.29 166.35 226.54 164.27 228.37 162.13C232.19 157.7 235.96 159.04 237.3 158.41C240.94 156.65 239.43 156.9 241.7 155.74C243.69 154.74 245.39 153.88 247.24 152.91C247.24 153.24 247.26 153.56 247.26 153.89H247.25Z" fill="#F6EFFF"/>
</g>
<path d="M194.16 239.95C192.61 237.83 186.65 239.14 186.3 240.41C185.95 241.68 182.84 245.85 182.48 248.47C182.13 251.08 182.99 253.29 184.09 253.02C185.82 253.49 194.16 240.93 194.16 239.96V239.95Z" fill="#C8A2FE"/>
<path d="M204.181 150.13L199.831 164.75L199.531 165.75C199.531 165.75 191.191 174.98 188.381 178.94C187.931 179.58 187.621 180.08 187.521 180.38C187.141 181.44 186.701 182.17 185.731 183.32C184.721 184.54 183.131 186.24 180.451 189.35C178.831 198.75 173.051 207.85 173.051 207.85C173.051 207.85 175.331 211.62 178.131 223.28C178.491 224.76 178.771 226.17 178.981 227.51C179.751 232.29 179.711 236.2 179.381 239.09C179.071 241.8 178.511 243.61 178.131 244.37C177.231 246.17 176.071 248.67 172.671 249.15C169.281 249.62 167.371 249.15 166.871 246.18C166.541 244.21 166.401 241 166.081 238.14C165.911 236.68 165.701 235.31 165.391 234.24C164.471 231.06 157.621 220.39 155.431 216.85C153.241 213.32 150.201 209.22 150.631 205.83C151.061 202.44 160.101 178.83 162.081 171.77C164.061 164.7 165.331 159.61 170.981 156.78C170.981 156.78 190.701 149.5 195.221 149.08C199.741 148.66 204.181 150.14 204.181 150.14V150.13Z" fill="url(#paint18_linear_2178_7633)"/>
<g style="mix-blend-mode:multiply">
<path d="M194.161 163.72C192.321 168.93 183.271 166.68 179.601 177.56C178.731 180.13 177.561 183.02 176.281 185.95C174.111 190.93 171.621 196.05 169.751 200.05C168.061 203.66 166.881 206.36 166.881 207.23C166.881 208.28 168.501 211.01 170.411 214.45C172.871 218.86 175.811 224.45 176.471 229.23C176.691 230.79 177.611 229.94 178.981 227.5C178.771 226.16 178.491 224.74 178.131 223.27C175.321 211.61 173.051 207.84 173.051 207.84C173.051 207.84 178.831 198.74 180.451 189.34C183.131 186.23 184.721 184.52 185.731 183.31C186.701 182.15 187.141 181.43 187.521 180.37C187.631 180.07 187.941 179.57 188.381 178.93C191.191 174.97 199.531 165.74 199.531 165.74L199.831 164.74V155.68C195.581 154.79 196.001 158.5 194.161 163.71V163.72Z" fill="#CFAEFE"/>
</g>
<g style="mix-blend-mode:multiply">
<path d="M188.279 172.07C188.279 172.07 185.079 179.05 184.089 181.4C183.979 181.67 183.589 182.6 183.089 183.75C182.179 185.89 180.909 188.76 180.439 189.35C183.119 186.24 184.709 184.53 185.719 183.32C186.689 182.16 187.129 181.44 187.509 180.38C187.619 180.08 187.929 179.58 188.369 178.94C188.199 178.16 188.139 177.28 188.269 176.42C188.669 173.77 188.269 172.07 188.269 172.07H188.279Z" fill="#CFAEFE"/>
</g>
<g style="mix-blend-mode:multiply">
<path d="M178.401 242.29C178.251 242.96 178.161 243.66 178.131 244.37C178.511 243.62 179.071 241.81 179.381 239.09C178.921 240.37 178.581 241.47 178.401 242.29Z" fill="#CFAEFE"/>
</g>
<path d="M172.959 241.719C171.719 237.059 168.809 237.059 167.799 236.789C166.789 236.519 166.389 236.459 166.109 238.369C165.839 240.279 167.409 247.969 168.009 249.299C168.609 250.619 169.979 250.499 171.579 249.779C173.179 249.049 173.349 248.829 173.589 247.129C173.839 245.429 172.949 241.719 172.949 241.719H172.959Z" fill="#C8A2FE"/>
<path d="M205.28 170.69C205.35 171 205.42 171.32 205.48 171.63C205.72 172.72 205.2 173.74 203.86 174.42L203.74 173.33C205 172.69 205.5 171.73 205.27 170.69H205.28Z" fill="#61F0FF"/>
<path d="M190.639 168.23C190.639 168.23 190.679 168.18 190.699 168.15C190.699 168.14 190.719 168.12 190.729 168.11C190.749 168.09 190.769 168.06 190.789 168.03C190.809 168.01 190.829 167.98 190.849 167.95C190.849 167.94 190.869 167.92 190.879 167.91C190.899 167.89 190.919 167.86 190.939 167.83C190.959 167.81 190.979 167.78 190.999 167.75C190.999 167.74 191.019 167.72 191.029 167.71C191.049 167.69 191.069 167.66 191.089 167.63C191.109 167.6 191.129 167.58 191.149 167.55C191.149 167.54 191.169 167.52 191.179 167.51C191.199 167.49 191.219 167.46 191.239 167.43C190.169 168.79 191.009 170.72 193.529 172.21C196.669 174.07 201.249 174.55 203.749 173.29L203.869 174.38C201.229 175.72 196.389 175.21 193.069 173.24C190.399 171.66 189.519 169.62 190.649 168.19L190.639 168.23Z" fill="#61F0FF"/>
<path d="M203.859 174.42C201.219 175.76 196.379 175.25 193.059 173.28C190.899 172 189.909 170.42 190.209 169.1L178.019 222.19C177.719 223.51 177.379 231.87 179.389 239.08C182.409 230.79 185.219 230.48 186.689 227.9C189.909 222.27 194.699 217.12 196.849 210.23L205.489 172.61C205.329 173.32 204.789 173.95 203.869 174.42H203.859Z" fill="url(#paint19_linear_2178_7633)"/>
<path d="M206.459 163.01C205.749 161.82 205.029 160.63 204.319 159.45C204.779 160.22 204.589 160.99 203.669 161.45C202.259 162.16 199.669 161.89 197.899 160.84C196.229 159.85 195.869 158.52 197.019 157.77C195.859 158.53 194.699 159.29 193.529 160.04C191.499 161.36 192.129 163.72 195.089 165.47C198.229 167.33 202.809 167.81 205.309 166.55C206.939 165.73 207.289 164.37 206.469 163L206.459 163.01Z" fill="url(#paint20_linear_2178_7633)"/>
<path d="M203.659 161.45C202.249 162.16 199.659 161.89 197.889 160.84C196.119 159.79 195.819 158.36 197.229 157.64C198.639 156.93 201.229 157.2 202.999 158.25C204.769 159.3 205.069 160.73 203.659 161.45Z" fill="#DEC7FF"/>
<path d="M205.299 166.55C202.799 167.82 198.219 167.33 195.079 165.47C193.039 164.26 192.099 162.76 192.389 161.52L190.829 168.3C190.539 169.55 191.479 171.04 193.519 172.25C196.659 174.11 201.239 174.59 203.739 173.33C204.609 172.89 205.119 172.29 205.269 171.62L206.829 164.84C206.679 165.51 206.169 166.11 205.299 166.55Z" fill="url(#paint21_linear_2178_7633)"/>
<path d="M121.6 386.481L144.25 373.411V364.471L121.6 377.551V386.481Z" fill="#DEB7FF"/>
<path d="M121.6 386.481L99.0898 373.491V364.551L121.6 377.551V386.481Z" fill="#D29EFF"/>
<path d="M121.6 386.481L99.0898 373.491V364.551L121.6 377.551V386.481Z" fill="#D29EFF"/>
<path d="M121.6 377.55L144.25 364.47L121.74 351.48L99.0898 364.55L121.6 377.55Z" fill="#CB8FFF"/>
<path d="M121.6 376.151L144.25 363.071V354.141L121.6 367.221V376.151Z" fill="#DEB7FF"/>
<path d="M121.6 376.151L99.0898 363.151V354.221L121.6 367.221V376.151Z" fill="#D29EFF"/>
<path d="M121.6 376.151L99.0898 363.151V354.221L121.6 367.221V376.151Z" fill="#D29EFF"/>
<path d="M121.6 367.221L144.25 354.141L121.74 341.141L99.0898 354.221L121.6 367.221Z" fill="#F0DFFF"/>
<path d="M112.41 354.201L121.64 359.531L130.93 354.161L121.7 348.831L112.41 354.201Z" fill="#F9F2FF"/>
<path d="M295.52 52.4904L301.38 49.1104C312.46 57.5504 319.2 59.2304 324.17 60.5704C329.14 64.9704 335.88 71.0704 346.96 75.4304V99.4804C346.96 109.18 343.13 114.05 338.61 116.42L332.76 119.8L333.08 118.21C328.32 118.99 324.16 118.06 324.16 118.06C324.16 118.06 301.36 96.8304 301.36 73.1604V59.0303L295.5 52.4904H295.52Z" fill="#E2C0FF"/>
<path d="M346.971 75.4303L341.111 78.8103L328.561 75.3903L318.311 63.9503L324.171 60.5703C329.141 64.9703 335.881 71.0703 346.961 75.4303H346.971Z" fill="#E8CEFF"/>
<path d="M296.16 52.1203L301.38 49.1104C312.46 57.5504 319.2 59.2304 324.17 60.5704L318.31 63.9504L305.76 63.9304L295.51 52.4904L296.15 52.1203H296.16Z" fill="#E2C0FF"/>
<path d="M318.32 63.9502C323.29 68.3502 330.03 74.4502 341.11 78.8102V102.86C341.11 126.53 318.32 121.44 318.32 121.44C318.32 121.44 295.52 100.21 295.52 76.5402V52.4902C306.6 60.9302 313.34 62.6102 318.31 63.9502H318.32Z" fill="white"/>
<path d="M318.32 116.41C320.15 116.64 323.76 116.87 327.31 115.8C333.74 113.86 337 108.71 337 100.48V81.77C335.49 81.04 334 80.25 332.56 79.42C326.4 75.86 321.78 71.9 318.33 68.85C314.88 67.91 310.26 66.55 304.1 62.99C302.66 62.16 301.17 61.23 299.66 60.21V78.92C299.66 87.14 302.92 96.06 309.35 105.42C312.9 110.59 316.51 114.53 318.34 116.41H318.32Z" fill="#E2C0FF"/>
<path d="M319.78 115.56C317.95 113.68 314.35 109.74 310.79 104.57C304.36 95.2099 301.1 86.2899 301.1 78.0699V61.1699C302.11 61.8199 303.1 62.4299 304.08 62.9899C310.24 66.5499 314.86 67.9099 318.31 68.8499C321.76 71.8999 326.38 75.8699 332.54 79.4199C333.98 80.2499 335.47 81.0399 336.98 81.7699V100.48C336.98 106.92 334.97 111.47 331.01 114.08C330.31 114.42 329.55 114.71 328.75 114.96C325.2 116.03 321.59 115.8 319.76 115.57L319.78 115.56Z" fill="#3EEDFF"/>
<path d="M320.981 104.15L318.611 105.52C318.721 105.46 318.821 105.39 318.911 105.31L321.281 103.94C321.181 104.02 321.081 104.09 320.981 104.15Z" fill="#E6C8FF"/>
<path d="M304.711 83.5402L307.081 82.1702C307.891 81.7002 308.961 81.8402 310.031 82.4602C311.021 83.0302 312.011 84.0102 312.801 85.2802L310.431 86.6502C309.641 85.3802 308.651 84.4002 307.661 83.8302C306.591 83.2102 305.521 83.0702 304.711 83.5402Z" fill="#F1E1FF"/>
<path d="M310.441 86.6503L312.801 85.2803L317.171 92.3303L314.801 93.7103L310.441 86.6503Z" fill="#F1E1FF"/>
<path d="M330.96 95.5099L333.32 94.1299L321.28 103.94L318.92 105.31L330.96 95.5099Z" fill="#F1E1FF"/>
<path d="M324.82 85.5704L327.19 84.2004C328 83.7304 329.07 83.8704 330.15 84.4904L327.78 85.8604C326.7 85.2404 325.63 85.1004 324.82 85.5704Z" fill="#F1E1FF"/>
<path d="M327.781 85.8602L330.151 84.4902C331.081 85.0302 332.011 85.9202 332.781 87.1002C334.551 89.8102 334.791 92.9502 333.331 94.1402L330.961 95.5102C332.431 94.3202 332.181 91.1802 330.411 88.4702C329.641 87.2902 328.711 86.4002 327.781 85.8602Z" fill="#F1E1FF"/>
<path d="M327.781 85.86C328.711 86.4 329.641 87.29 330.411 88.47C332.181 91.18 332.421 94.32 330.961 95.51L318.921 105.32C317.941 106.11 316.541 106 315.141 105.19C313.981 104.52 312.811 103.37 311.881 101.87L304.871 90.56C303.171 87.82 303.041 84.72 304.571 83.65C305.391 83.07 306.531 83.19 307.671 83.85C308.661 84.42 309.651 85.39 310.441 86.67L314.811 93.72L324.571 85.76C325.401 85.09 326.591 85.19 327.781 85.88V85.86Z" fill="white"/>
<path d="M101.469 191.53L103.359 192.63C103.279 192.58 103.189 192.52 103.119 192.46L101.229 191.36C101.309 191.42 101.389 191.48 101.469 191.53Z" fill="#C685FF"/>
<path d="M119.289 167.28L117.399 166.18C116.749 165.8 115.889 165.92 115.029 166.41C114.239 166.87 113.449 167.65 112.809 168.67L114.699 169.77C115.329 168.75 116.129 167.97 116.919 167.51C117.779 167.01 118.639 166.9 119.289 167.28Z" fill="#C685FF"/>
<path d="M114.71 169.77L112.82 168.67L104.52 182.07L106.41 183.17L114.71 169.77Z" fill="#C685FF"/>
<path d="M98.5795 188.77L96.6895 187.67L101.219 191.36L103.119 192.46L98.5795 188.77Z" fill="#C685FF"/>
<path d="M103.5 180.811L101.61 179.711C100.96 179.331 100.1 179.451 99.2402 179.941L101.13 181.041C101.99 180.541 102.85 180.431 103.5 180.811Z" fill="#C685FF"/>
<path d="M101.129 181.05L99.2394 179.95C98.4994 180.38 97.7494 181.1 97.1294 182.04C95.7094 184.21 95.5194 186.73 96.6894 187.68L98.5794 188.78C97.3994 187.83 97.5994 185.31 99.0194 183.14C99.6394 182.2 100.379 181.48 101.129 181.05Z" fill="#C685FF"/>
<path d="M101.13 181.051C100.39 181.481 99.64 182.201 99.02 183.141C97.6 185.311 97.41 187.831 98.58 188.781L103.12 192.471C103.9 193.101 105.02 193.011 106.15 192.361C107.08 191.821 108.01 190.911 108.76 189.701L119.17 172.891C120.53 170.691 120.64 168.211 119.41 167.351C118.75 166.891 117.84 166.981 116.93 167.511C116.14 167.971 115.35 168.751 114.71 169.771L106.41 183.171L103.7 180.951C103.04 180.411 102.08 180.491 101.13 181.041V181.051Z" fill="#E5C6FF"/>
<g opacity="0.76">
<path d="M101.469 162.02L103.359 163.12C103.279 163.07 103.189 163.01 103.119 162.95L101.229 161.85C101.309 161.91 101.389 161.97 101.469 162.02Z" fill="#C685FF"/>
<path d="M119.289 137.76L117.399 136.66C116.749 136.28 115.889 136.4 115.029 136.89C114.239 137.35 113.449 138.13 112.809 139.15L114.699 140.25C115.329 139.23 116.129 138.45 116.919 137.99C117.779 137.49 118.639 137.38 119.289 137.76Z" fill="#C685FF"/>
<path d="M114.71 140.249L112.82 139.149L104.52 152.559L106.41 153.659L114.71 140.249Z" fill="#C685FF"/>
<path d="M98.5795 159.26L96.6895 158.16L101.219 161.85L103.119 162.95L98.5795 159.26Z" fill="#C685FF"/>
<path d="M103.5 151.3L101.61 150.2C100.96 149.82 100.1 149.94 99.2402 150.43L101.13 151.53C101.99 151.03 102.85 150.92 103.5 151.3Z" fill="#C685FF"/>
<path d="M101.129 151.53L99.2394 150.43C98.4994 150.86 97.7494 151.58 97.1294 152.52C95.7094 154.69 95.5194 157.21 96.6894 158.16L98.5794 159.26C97.3994 158.31 97.5994 155.79 99.0194 153.62C99.6394 152.68 100.379 151.96 101.129 151.53Z" fill="#C685FF"/>
<path d="M101.13 151.53C100.39 151.96 99.64 152.67 99.02 153.62C97.6 155.79 97.41 158.31 98.58 159.26L103.12 162.95C103.9 163.58 105.02 163.49 106.15 162.84C107.08 162.3 108.01 161.39 108.76 160.18L119.17 143.37C120.53 141.17 120.64 138.69 119.41 137.83C118.75 137.37 117.84 137.46 116.93 137.99C116.14 138.45 115.35 139.23 114.71 140.25L106.41 153.65L103.7 151.43C103.04 150.9 102.08 150.97 101.13 151.52V151.53Z" fill="#E5C6FF"/>
</g>
<g opacity="0.52">
<path d="M101.469 132.51L103.359 133.61C103.279 133.56 103.189 133.5 103.119 133.44L101.229 132.34C101.309 132.4 101.389 132.46 101.469 132.51Z" fill="#C685FF"/>
<path d="M119.289 108.25L117.399 107.15C116.749 106.77 115.889 106.89 115.029 107.38C114.239 107.84 113.449 108.62 112.809 109.64L114.699 110.74C115.329 109.72 116.129 108.94 116.919 108.48C117.779 107.98 118.639 107.87 119.289 108.25Z" fill="#C685FF"/>
<path d="M114.71 110.74L112.82 109.64L104.52 123.04L106.41 124.14L114.71 110.74Z" fill="#C685FF"/>
<path d="M98.5795 129.75L96.6895 128.64L101.219 132.34L103.119 133.44L98.5795 129.75Z" fill="#C685FF"/>
<path d="M103.5 121.79L101.61 120.69C100.96 120.31 100.1 120.43 99.2402 120.92L101.13 122.02C101.99 121.52 102.85 121.41 103.5 121.79Z" fill="#C685FF"/>
<path d="M101.129 122.02L99.2394 120.92C98.4994 121.35 97.7494 122.06 97.1294 123.01C95.7094 125.18 95.5194 127.7 96.6894 128.65L98.5794 129.75C97.3994 128.8 97.5994 126.28 99.0194 124.11C99.6394 123.17 100.379 122.45 101.129 122.02Z" fill="#C685FF"/>
<path d="M101.13 122.021C100.39 122.451 99.64 123.171 99.02 124.111C97.6 126.281 97.41 128.801 98.58 129.751L103.12 133.441C103.9 134.071 105.02 133.981 106.15 133.331C107.08 132.791 108.01 131.881 108.76 130.671L119.17 113.861C120.53 111.661 120.64 109.181 119.41 108.321C118.75 107.861 117.84 107.951 116.93 108.481C116.14 108.941 115.35 109.721 114.71 110.741L106.41 124.141L103.7 121.921C103.04 121.391 102.08 121.461 101.13 122.011V122.021Z" fill="#E5C6FF"/>
</g>
<g opacity="0.28">
<path d="M101.469 102.99L103.359 104.09C103.279 104.04 103.189 103.98 103.119 103.92L101.229 102.82C101.309 102.88 101.389 102.94 101.469 102.99Z" fill="#C685FF"/>
<path d="M119.289 78.7403L117.399 77.6403C116.749 77.2603 115.889 77.3803 115.029 77.8703C114.239 78.3303 113.449 79.1103 112.809 80.1303L114.699 81.2303C115.329 80.2103 116.129 79.4303 116.919 78.9703C117.779 78.4703 118.639 78.3603 119.289 78.7403Z" fill="#C685FF"/>
<path d="M114.71 81.2299L112.82 80.1299L104.52 93.5299L106.41 94.6299L114.71 81.2299Z" fill="#C685FF"/>
<path d="M98.5795 100.23L96.6895 99.1299L101.219 102.83L103.119 103.93L98.5795 100.23Z" fill="#C685FF"/>
<path d="M103.5 92.2804L101.61 91.1804C100.96 90.8004 100.1 90.9204 99.2402 91.4104L101.13 92.5104C101.99 92.0104 102.85 91.9004 103.5 92.2804Z" fill="#C685FF"/>
<path d="M101.129 92.5102L99.2394 91.4102C98.4994 91.8402 97.7494 92.5602 97.1294 93.5002C95.7094 95.6702 95.5194 98.1902 96.6894 99.1402L98.5794 100.24C97.3994 99.2902 97.5994 96.7702 99.0194 94.6002C99.6394 93.6602 100.379 92.9402 101.129 92.5102Z" fill="#C685FF"/>
<path d="M101.13 92.5108C100.39 92.9408 99.64 93.6608 99.02 94.6008C97.6 96.7708 97.41 99.2908 98.58 100.241L103.12 103.931C103.9 104.561 105.02 104.471 106.15 103.821C107.08 103.281 108.01 102.371 108.76 101.161L119.17 84.3508C120.53 82.1508 120.64 79.6708 119.41 78.8108C118.75 78.3508 117.84 78.4408 116.93 78.9708C116.14 79.4308 115.35 80.2108 114.71 81.2308L106.41 94.6308L103.7 92.4108C103.04 91.8708 102.08 91.9508 101.13 92.5008V92.5108Z" fill="#E5C6FF"/>
</g>
<path d="M278.449 384.681L301.099 371.611V362.671L278.449 375.751V384.681Z" fill="#DEB7FF"/>
<path d="M278.449 384.681L255.949 371.691V362.751L278.449 375.751V384.681Z" fill="#D29EFF"/>
<path d="M278.449 384.681L255.949 371.691V362.761L278.449 375.751V384.681Z" fill="#D29EFF"/>
<path d="M278.449 375.751L301.099 362.671L278.599 349.681L255.949 362.751L278.449 375.751Z" fill="#CB8FFF"/>
<path d="M278.449 374.351L301.099 361.271V352.341L278.449 365.421V374.351Z" fill="#DEB7FF"/>
<path d="M278.449 374.351L255.949 361.361V352.421L278.449 365.421V374.351Z" fill="#D29EFF"/>
<path d="M278.449 374.351L255.949 361.361V352.421L278.449 365.421V374.351Z" fill="#D29EFF"/>
<path d="M278.449 365.421L301.099 352.341L278.599 339.351L255.949 352.421L278.449 365.421Z" fill="#F0DFFF"/>
<path d="M269.26 352.4L278.5 357.73L287.79 352.36L278.55 347.03L269.26 352.4Z" fill="#F9F2FF"/>
<path d="M46.1504 342.92L68.8004 329.84V320.91L46.1504 333.99V342.92Z" fill="#DEB7FF"/>
<path d="M46.1506 342.92L23.6406 329.92V320.99L46.1506 333.99V342.92Z" fill="#D29EFF"/>
<path d="M46.1506 333.99L68.8006 320.91L46.2906 307.91L23.6406 320.99L46.1506 333.99Z" fill="#CB8FFF"/>
<path d="M46.1504 332.59L68.8004 319.51V310.58L46.1504 323.65V332.59Z" fill="#DEB7FF"/>
<path d="M46.1506 332.59L23.6406 319.59V310.66L46.1506 323.65V332.59Z" fill="#D29EFF"/>
<path d="M46.1506 323.65L68.8006 310.58L46.2906 297.58L23.6406 310.66L46.1506 323.65Z" fill="#F0DFFF"/>
<path d="M46.1601 320.95L64.1001 310.59L46.2701 300.3L28.3301 310.66L46.1601 320.95Z" fill="#CB8FFF"/>
<path d="M46.1602 316.83L64.1002 306.47V297.54L46.1602 307.9V316.83Z" fill="#DEB7FF"/>
<path d="M46.1601 316.83L28.3301 306.54V297.61L46.1601 307.9V316.83Z" fill="#D29EFF"/>
<path d="M46.1601 307.9L64.1001 297.54L46.2701 287.25L28.3301 297.61L46.1601 307.9Z" fill="#F0DFFF"/>
<path d="M38.8809 297.62L46.1909 301.84L53.5509 297.59L46.2409 293.37L38.8809 297.62Z" fill="#F9F2FF"/>
<path d="M67.3409 342.55L61.4409 339.14C60.7509 338.74 60.3409 338.13 60.5309 337.79C60.7309 337.45 61.4509 337.5 62.1509 337.9L68.0509 341.31C68.7509 341.71 69.1509 342.32 68.9609 342.66C68.7609 343 68.0309 342.95 67.3409 342.55Z" fill="#D5A4FF"/>
<path d="M81.3201 350.621L75.4201 347.211C74.7201 346.811 74.3201 346.2 74.5101 345.86C74.7101 345.52 75.4401 345.571 76.1301 345.971L82.0301 349.381C82.7301 349.781 83.1301 350.391 82.9401 350.731C82.7401 351.071 82.0101 351.021 81.3201 350.621Z" fill="#D5A4FF"/>
<path d="M95.3005 358.69L89.4005 355.28C88.7005 354.88 88.3005 354.27 88.4905 353.93C88.6905 353.59 89.4205 353.64 90.1105 354.04L96.0105 357.45C96.7105 357.85 97.1105 358.46 96.9205 358.8C96.7205 359.14 95.9905 359.09 95.3005 358.69Z" fill="#D5A4FF"/>
<path d="M220.87 257.951L214.97 254.541C214.28 254.141 213.87 253.531 214.06 253.191C214.26 252.851 214.98 252.901 215.68 253.301L221.58 256.711C222.28 257.111 222.68 257.721 222.49 258.061C222.29 258.401 221.56 258.351 220.87 257.951Z" fill="#D5A4FF"/>
<path d="M234.849 266.021L228.949 262.611C228.249 262.211 227.849 261.601 228.039 261.261C228.239 260.921 228.969 260.971 229.659 261.371L235.559 264.781C236.259 265.181 236.659 265.791 236.469 266.131C236.269 266.471 235.539 266.421 234.849 266.021Z" fill="#D5A4FF"/>
<path d="M248.83 274.09L242.93 270.68C242.23 270.28 241.83 269.67 242.02 269.33C242.22 268.99 242.95 269.04 243.64 269.44L249.54 272.85C250.24 273.25 250.64 273.86 250.45 274.2C250.25 274.54 249.52 274.49 248.83 274.09Z" fill="#D5A4FF"/>
<path d="M304.74 306.371L298.84 302.961C298.14 302.561 297.74 301.95 297.93 301.61C298.13 301.27 298.86 301.321 299.55 301.721L305.45 305.131C306.15 305.531 306.55 306.141 306.36 306.481C306.16 306.821 305.43 306.771 304.74 306.371Z" fill="#D5A4FF"/>
<path d="M318.72 314.441L312.82 311.031C312.12 310.631 311.72 310.021 311.91 309.681C312.1 309.341 312.84 309.391 313.53 309.791L319.43 313.201C320.13 313.601 320.53 314.211 320.34 314.551C320.14 314.891 319.41 314.841 318.72 314.441Z" fill="#D5A4FF"/>
<path d="M237.65 348.741L231.75 345.331C231.05 344.931 230.65 344.321 230.84 343.981C231.04 343.641 231.77 343.691 232.46 344.091L238.36 347.501C239.06 347.901 239.46 348.511 239.27 348.851C239.07 349.191 238.34 349.141 237.65 348.741Z" fill="#D5A4FF"/>
<path d="M251.631 356.811L245.731 353.401C245.031 353.001 244.631 352.391 244.821 352.051C245.021 351.711 245.751 351.761 246.441 352.161L252.341 355.571C253.031 355.971 253.441 356.581 253.251 356.921C253.051 357.261 252.321 357.211 251.631 356.811Z" fill="#D5A4FF"/>
<path d="M176.15 313.231L170.25 309.821C169.55 309.421 169.15 308.811 169.34 308.471C169.54 308.131 170.27 308.181 170.96 308.581L176.86 311.991C177.56 312.391 177.96 313.001 177.77 313.341C177.57 313.681 176.84 313.631 176.15 313.231Z" fill="#D5A4FF"/>
<path d="M190.131 321.301L184.231 317.891C183.531 317.491 183.131 316.881 183.321 316.541C183.521 316.201 184.251 316.251 184.941 316.651L190.841 320.061C191.531 320.461 191.941 321.071 191.751 321.411C191.551 321.751 190.821 321.701 190.131 321.301Z" fill="#D5A4FF"/>
<path d="M70.0701 298.871L75.9701 295.461C76.6701 295.061 77.3901 295.011 77.5901 295.351C77.7901 295.691 77.3801 296.301 76.6801 296.701L70.7801 300.111C70.0801 300.511 69.3601 300.561 69.1601 300.221C68.9601 299.881 69.3701 299.271 70.0701 298.871Z" fill="#D5A4FF"/>
<path d="M188.599 343.991L194.499 340.581C195.199 340.181 195.919 340.131 196.119 340.471C196.319 340.811 195.909 341.421 195.209 341.821L189.309 345.231C188.609 345.631 187.889 345.681 187.689 345.341C187.489 345.001 187.899 344.391 188.599 343.991Z" fill="#D5A4FF"/>
<path d="M174.621 352.061L180.521 348.651C181.211 348.251 181.941 348.201 182.141 348.541C182.341 348.881 181.931 349.491 181.231 349.891L175.331 353.301C174.631 353.701 173.911 353.751 173.711 353.411C173.511 353.071 173.921 352.461 174.621 352.061Z" fill="#D5A4FF"/>
<path d="M160.64 360.131L166.54 356.721C167.24 356.321 167.96 356.27 168.16 356.61C168.36 356.95 167.95 357.561 167.25 357.961L161.35 361.371C160.66 361.771 159.93 361.821 159.73 361.481C159.53 361.141 159.94 360.531 160.64 360.131Z" fill="#D5A4FF"/>
<path d="M146.66 368.201L152.56 364.791C153.26 364.391 153.98 364.341 154.18 364.681C154.38 365.021 153.97 365.631 153.27 366.031L147.37 369.441C146.67 369.841 145.95 369.891 145.75 369.551C145.55 369.211 145.96 368.601 146.66 368.201Z" fill="#D5A4FF"/>
<path d="M154.721 372.991L147.911 372.971C147.111 372.971 146.451 372.641 146.451 372.251C146.451 371.861 147.111 371.541 147.911 371.541L154.721 371.561C155.521 371.561 156.181 371.891 156.181 372.281C156.181 372.671 155.521 372.991 154.721 372.991Z" fill="#D5A4FF"/>
<path d="M170.862 373.051L164.052 373.031C163.252 373.031 162.592 372.701 162.592 372.311C162.592 371.921 163.252 371.601 164.052 371.601L170.862 371.621C171.662 371.621 172.322 371.951 172.322 372.341C172.322 372.731 171.662 373.051 170.862 373.051Z" fill="#D5A4FF"/>
<path d="M187.01 373.101L180.2 373.081C179.4 373.081 178.74 372.751 178.74 372.361C178.74 371.971 179.4 371.651 180.2 371.651L187.01 371.671C187.81 371.671 188.47 372.001 188.47 372.391C188.47 372.781 187.81 373.101 187.01 373.101Z" fill="#D5A4FF"/>
<path d="M203.151 373.151L196.341 373.131C195.541 373.131 194.881 372.801 194.881 372.411C194.881 372.021 195.541 371.701 196.341 371.701L203.151 371.721C203.951 371.721 204.611 372.051 204.611 372.441C204.611 372.831 203.951 373.151 203.151 373.151Z" fill="#D5A4FF"/>
<path d="M219.291 373.211L212.481 373.191C211.681 373.191 211.021 372.861 211.021 372.471C211.021 372.081 211.681 371.761 212.481 371.761L219.291 371.781C220.091 371.781 220.751 372.111 220.751 372.501C220.751 372.891 220.091 373.211 219.291 373.211Z" fill="#D5A4FF"/>
<path d="M235.432 373.261L228.622 373.241C227.822 373.241 227.162 372.911 227.162 372.521C227.162 372.131 227.822 371.811 228.622 371.811L235.432 371.831C236.232 371.831 236.892 372.161 236.892 372.551C236.892 372.941 236.232 373.261 235.432 373.261Z" fill="#D5A4FF"/>
<path d="M251.571 373.311L244.761 373.291C243.961 373.291 243.301 372.961 243.301 372.571C243.301 372.181 243.961 371.861 244.761 371.861L251.571 371.881C252.371 371.881 253.031 372.211 253.031 372.601C253.031 372.991 252.371 373.311 251.571 373.311Z" fill="#D5A4FF"/>
<path d="M254.301 334.52L247.491 334.5C246.691 334.5 246.031 334.17 246.031 333.78C246.031 333.39 246.691 333.07 247.491 333.07L254.301 333.09C255.101 333.09 255.761 333.42 255.761 333.81C255.761 334.2 255.101 334.52 254.301 334.52Z" fill="#D5A4FF"/>
<path d="M270.442 334.58L263.632 334.56C262.832 334.56 262.172 334.23 262.172 333.84C262.172 333.45 262.832 333.13 263.632 333.13L270.442 333.15C271.242 333.15 271.902 333.48 271.902 333.87C271.902 334.26 271.242 334.58 270.442 334.58Z" fill="#D5A4FF"/>
<path d="M286.581 334.631L279.771 334.611C278.971 334.611 278.311 334.281 278.311 333.891C278.311 333.501 278.971 333.181 279.771 333.181L286.581 333.201C287.381 333.201 288.041 333.531 288.041 333.921C288.041 334.311 287.381 334.631 286.581 334.631Z" fill="#D5A4FF"/>
<path d="M302.721 334.68L295.911 334.66C295.111 334.66 294.451 334.33 294.451 333.94C294.451 333.55 295.111 333.23 295.911 333.23L302.721 333.25C303.521 333.25 304.181 333.58 304.181 333.97C304.181 334.36 303.521 334.68 302.721 334.68Z" fill="#D5A4FF"/>
<path d="M318.862 334.74L312.052 334.72C311.252 334.72 310.592 334.39 310.592 334C310.592 333.61 311.252 333.29 312.052 333.29L318.862 333.31C319.662 333.31 320.322 333.64 320.322 334.03C320.322 334.42 319.662 334.74 318.862 334.74Z" fill="#D5A4FF"/>
<path d="M73.5102 334.14L66.7002 334.12C65.9002 334.12 65.2402 333.79 65.2402 333.4C65.2402 333.01 65.9002 332.69 66.7002 332.69L73.5102 332.71C74.3102 332.71 74.9702 333.04 74.9702 333.43C74.9702 333.82 74.3102 334.14 73.5102 334.14Z" fill="#D5A4FF"/>
<path d="M89.6509 334.19L82.8409 334.17C82.0409 334.17 81.3809 333.84 81.3809 333.45C81.3809 333.06 82.0409 332.74 82.8409 332.74L89.6509 332.76C90.4509 332.76 91.1109 333.09 91.1109 333.48C91.1109 333.87 90.4509 334.19 89.6509 334.19Z" fill="#D5A4FF"/>
<path d="M105.79 334.24L98.9795 334.22C98.1795 334.22 97.5195 333.89 97.5195 333.5C97.5195 333.11 98.1795 332.79 98.9795 332.79L105.79 332.81C106.59 332.81 107.25 333.14 107.25 333.53C107.25 333.92 106.59 334.24 105.79 334.24Z" fill="#D5A4FF"/>
<path d="M121.93 334.301L115.12 334.281C114.32 334.281 113.66 333.951 113.66 333.561C113.66 333.171 114.32 332.851 115.12 332.851L121.93 332.871C122.73 332.871 123.39 333.201 123.39 333.591C123.39 333.981 122.73 334.301 121.93 334.301Z" fill="#D5A4FF"/>
<path d="M138.071 334.35L131.261 334.33C130.461 334.33 129.801 334 129.801 333.61C129.801 333.22 130.461 332.9 131.261 332.9L138.071 332.92C138.871 332.92 139.531 333.25 139.531 333.64C139.531 334.03 138.871 334.35 138.071 334.35Z" fill="#D5A4FF"/>
<path d="M154.209 334.4L147.399 334.38C146.599 334.38 145.939 334.05 145.939 333.66C145.939 333.27 146.599 332.95 147.399 332.95L154.209 332.97C155.009 332.97 155.669 333.3 155.669 333.69C155.669 334.08 155.009 334.4 154.209 334.4Z" fill="#D5A4FF"/>
<path d="M170.35 334.45L163.54 334.43C162.74 334.43 162.08 334.1 162.08 333.71C162.08 333.32 162.74 333 163.54 333L170.35 333.02C171.15 333.02 171.81 333.35 171.81 333.74C171.81 334.13 171.15 334.45 170.35 334.45Z" fill="#D5A4FF"/>
<path d="M186.5 334.511L179.69 334.491C178.89 334.491 178.23 334.161 178.23 333.771C178.23 333.381 178.89 333.061 179.69 333.061L186.5 333.081C187.3 333.081 187.96 333.411 187.96 333.801C187.96 334.191 187.3 334.511 186.5 334.511Z" fill="#D5A4FF"/>
<path d="M320.152 348.691L326.052 345.281C326.742 344.881 327.472 344.831 327.672 345.171C327.872 345.511 327.462 346.121 326.762 346.521L320.862 349.931C320.162 350.331 319.442 350.381 319.242 350.041C319.042 349.701 319.452 349.091 320.152 348.691Z" fill="#D5A4FF"/>
<path d="M306.172 356.761L312.072 353.351C312.772 352.951 313.492 352.901 313.692 353.241C313.892 353.581 313.482 354.191 312.782 354.591L306.882 358.001C306.192 358.401 305.462 358.451 305.262 358.111C305.062 357.771 305.472 357.161 306.172 356.761Z" fill="#D5A4FF"/>
<path d="M256.72 308.3L262.62 304.89C263.31 304.49 264.04 304.44 264.24 304.78C264.44 305.12 264.03 305.73 263.33 306.13L257.43 309.54C256.73 309.94 256.01 309.99 255.81 309.65C255.61 309.31 256.02 308.7 256.72 308.3Z" fill="#D5A4FF"/>
<path d="M242.74 316.371L248.64 312.961C249.34 312.561 250.06 312.511 250.26 312.851C250.46 313.191 250.05 313.801 249.35 314.201L243.45 317.611C242.76 318.011 242.03 318.061 241.83 317.721C241.63 317.381 242.04 316.771 242.74 316.371Z" fill="#D5A4FF"/>
<path d="M346.16 347.84L368.81 334.76V325.83L346.16 338.9V347.84Z" fill="#DEB7FF"/>
<path d="M346.16 347.84L323.65 334.84V325.91L346.16 338.9V347.84Z" fill="#D29EFF"/>
<path d="M346.16 338.9L368.81 325.83L346.3 312.83L323.65 325.91L346.16 338.9Z" fill="#CB8FFF"/>
<path d="M346.16 337.5L368.81 324.43V315.49L346.16 328.57V337.5Z" fill="#DEB7FF"/>
<path d="M346.16 337.5L323.65 324.51V315.57L346.16 328.57V337.5Z" fill="#D29EFF"/>
<path d="M346.16 328.57L368.81 315.49L346.3 302.5L323.65 315.57L346.16 328.57Z" fill="#F0DFFF"/>
<path d="M346.17 325.87L364.11 315.51L346.29 305.22L328.35 315.57L346.17 325.87Z" fill="#CB8FFF"/>
<path d="M346.17 321.75L364.11 311.39V302.46L346.17 312.81V321.75Z" fill="#DEB7FF"/>
<path d="M346.17 321.751L328.35 311.451V302.521L346.17 312.811V321.751Z" fill="#D29EFF"/>
<path d="M346.17 312.81L364.11 302.46L346.29 292.16L328.35 302.52L346.17 312.81Z" fill="#F0DFFF"/>
<path d="M338.9 302.53L346.21 306.76L353.57 302.51L346.25 298.29L338.9 302.53Z" fill="#F9F2FF"/>
<path d="M278.449 308.221L255.949 295.221V286.291L278.449 299.291V308.221Z" fill="#D29EFF"/>
<path d="M278.449 299.291V308.221L301.099 295.141V286.211L278.449 299.291Z" fill="#DEB7FF"/>
<path d="M255.949 286.291L278.449 299.291L301.099 286.211L278.599 273.211L255.949 286.291Z" fill="#CB8FFF"/>
<path d="M278.449 297.891L255.949 284.891V275.961L278.449 288.951V297.891Z" fill="#D29EFF"/>
<path d="M278.449 288.951V297.891L301.099 284.811V275.881L278.449 288.951Z" fill="#DEB7FF"/>
<path d="M255.949 275.961L278.449 288.951L301.099 275.881L278.599 262.881L255.949 275.961Z" fill="#F0DFFF"/>
<path d="M269.26 275.931L278.5 281.261L287.79 275.901L278.55 270.571L269.26 275.931Z" fill="#F9F2FF"/>
<path d="M78.3204 112.85L3.65039 155.96L5.45039 159.14L37.6404 162.38L44.3204 158.53L76.5104 118.11L78.3204 112.85Z" fill="#8938FC"/>
<path d="M11.4512 159.04V170.56L25.0812 163.23L21.8512 150.98L11.4512 159.04Z" fill="#DEB7FF"/>
<path d="M36.3104 103.69L42.9904 99.8301L78.3204 112.85L3.65039 155.96L36.3104 103.69Z" fill="#791DFC"/>
<g style="mix-blend-mode:multiply">
<path d="M43.7694 223.73C44.4994 223.73 45.1694 223.57 45.6994 223.26L80.0594 203.42C80.7994 202.99 81.2294 202.31 81.2294 201.54C81.2294 200.71 80.7294 199.94 79.8494 199.44L77.6394 198.16C76.9794 197.78 76.1594 197.57 75.3194 197.57C74.5894 197.57 73.9194 197.73 73.3894 198.04L39.0294 217.88C38.2894 218.31 37.8594 218.99 37.8594 219.76C37.8594 220.59 38.3594 221.36 39.2394 221.86L41.4494 223.14C42.1094 223.52 42.9294 223.73 43.7694 223.73Z" fill="#EBD5FF"/>
</g>
<g style="mix-blend-mode:multiply">
<path d="M5.9 224.38C6.63 224.38 7.3 224.22 7.83 223.91L42.19 204.07C42.93 203.64 43.36 202.96 43.36 202.19C43.36 201.36 42.86 200.59 41.98 200.09L39.77 198.81C39.11 198.43 38.29 198.22 37.45 198.22C36.72 198.22 36.05 198.38 35.52 198.69L1.17 218.53C0.42 218.96 0 219.64 0 220.41C0 221.24 0.5 222.01 1.38 222.51L3.59 223.79C4.25 224.17 5.07 224.38 5.91 224.38H5.9Z" fill="#EBD5FF"/>
</g>
<path d="M76.5104 118.11L44.3204 158.53L37.6404 162.38L5.45039 159.14L3.65039 155.96V206.15L78.3204 163.04V112.85L76.5104 118.11Z" fill="#A76AFD"/>
<path d="M37.6404 162.379L44.3204 158.529L78.3204 163.039L3.65039 206.149L37.6404 162.379Z" fill="#AF77FD"/>
<path d="M47.2285 209.87L87.8885 186.39L88.2185 186.2C89.1785 185.58 89.8385 184.52 89.8385 183.22L84.5185 186.3L48.8585 206.89C48.8585 208.19 48.1885 209.25 47.2285 209.87Z" fill="#DEB7FF"/>
<path d="M28.1992 169.32L39.4392 162.82L39.4592 128.21C39.4592 127.97 39.4392 127.73 39.4092 127.49V127.47C39.2892 126.15 38.8292 124.92 38.0592 123.86C37.8192 123.5 37.5292 123.16 37.1992 122.85C36.7492 122.4 36.2592 122.03 35.7092 121.7L35.3292 121.53C34.2692 120.91 33.0692 120.91 32.0992 121.38L31.4992 121.72C30.6092 122.34 30.0092 123.36 30.0092 124.6V165.97C30.0092 167.44 29.2592 168.64 28.1992 169.32Z" fill="#DEB7FF"/>
<path d="M11.4492 156.7V159.04L18.5892 154.92C18.1592 154.51 17.6992 154.17 17.1692 153.86L16.7792 153.62C15.6292 152.97 14.3692 153.02 13.3592 153.55L13.2392 153.62C12.1992 154.22 11.4592 155.33 11.4592 156.7H11.4492Z" fill="#DEB7FF"/>
<path d="M32.0996 121.38C33.0796 120.92 34.2696 120.92 35.3296 121.53L35.7096 121.7C36.2596 122.02 36.7496 122.4 37.1996 122.85C37.5296 123.16 37.8196 123.5 38.0596 123.86C38.8296 124.92 39.2896 126.15 39.4096 127.47V127.49C39.4396 127.73 39.4596 127.97 39.4596 128.21L39.4396 162.82L39.3696 203.23C39.3496 205.9 40.7896 208.38 43.0996 209.72L43.5296 209.98C44.6896 210.65 45.9896 210.58 47.0196 210L47.2296 209.88C48.1896 209.26 48.8596 208.2 48.8596 206.9L84.5196 186.31L84.0896 186.05C81.7796 184.71 80.3596 182.23 80.3596 179.56L80.4496 104.54C80.4496 101.85 79.0296 99.3899 76.6996 98.0499L76.3196 97.8599C75.1196 97.1599 73.7696 97.2599 72.7396 97.8899L72.6196 97.9599L32.0996 121.37V121.38Z" fill="#F9F2FF"/>
<path d="M13.3498 153.55C14.3598 153.02 15.6298 152.97 16.7698 153.62L17.1598 153.86C17.6898 154.17 18.1498 154.51 18.5798 154.92C20.0498 156.31 20.9098 158.26 20.9098 160.33V164.04C20.9098 166.23 22.0598 168.28 23.9598 169.41C24.6298 169.8 25.3298 169.97 26.0098 169.97C26.7298 169.97 27.4298 169.78 28.0298 169.42V169.4C28.0798 169.38 28.1498 169.35 28.1998 169.31C29.2598 168.63 30.0098 167.43 30.0098 165.96V143.92L13.3398 153.54L13.3498 153.55Z" fill="#F0DFFF"/>
<path d="M50.78 139.36L70.76 127.83C71.33 127.5 71.79 126.62 71.79 125.87C71.79 125.11 71.33 124.76 70.76 125.09L50.78 136.62C50.21 136.95 49.75 137.83 49.75 138.58C49.75 139.34 50.21 139.68 50.78 139.36Z" fill="#EDD9FF"/>
<path d="M46.6706 155.69L74.8706 139.41C75.4406 139.08 75.9006 138.2 75.9006 137.45C75.9006 136.69 75.4406 136.34 74.8706 136.67L46.6706 152.95C46.1006 153.28 45.6406 154.16 45.6406 154.91C45.6406 155.67 46.1006 156.02 46.6706 155.69Z" fill="#EDD9FF"/>
<path d="M46.6706 168.61L74.8706 152.33C75.4406 152 75.9006 151.12 75.9006 150.37C75.9006 149.61 75.4406 149.26 74.8706 149.59L46.6706 165.87C46.1006 166.2 45.6406 167.08 45.6406 167.83C45.6406 168.59 46.1006 168.94 46.6706 168.61Z" fill="#EDD9FF"/>
<path d="M46.6706 162.151L68.9806 149.271C69.5506 148.941 70.0106 148.061 70.0106 147.311C70.0106 146.551 69.5506 146.201 68.9806 146.531L46.6706 159.411C46.1006 159.741 45.6406 160.621 45.6406 161.371C45.6406 162.131 46.1006 162.481 46.6706 162.151Z" fill="#EDD9FF"/>
<path d="M46.6706 175.06L55.2906 170.08C55.8606 169.75 56.3206 168.87 56.3206 168.12C56.3206 167.36 55.8606 167.01 55.2906 167.34L46.6706 172.32C46.1006 172.65 45.6406 173.53 45.6406 174.28C45.6406 175.04 46.1006 175.39 46.6706 175.06Z" fill="#EDD9FF"/>
<path d="M72.9095 171.44C72.6695 173.54 71.8995 175.87 70.5995 178.12C69.2995 180.37 67.6795 182.21 65.9995 183.46L63.6895 187.47L61.2695 186.07C58.0795 184.21 58.0795 178.2 61.2695 172.65C64.4595 167.1 69.6295 164.12 72.8195 165.98L75.2395 167.38L72.9095 171.44Z" fill="#17E9FF"/>
<path d="M63.6894 174.04C60.4994 179.59 60.4994 185.6 63.6894 187.46C66.8794 189.32 72.0494 186.34 75.2394 180.79C78.4294 175.24 78.4294 169.23 75.2394 167.37C72.0494 165.51 66.8794 168.49 63.6894 174.04Z" fill="#3EEDFF"/>
<path d="M67.3383 183.06L68.1483 183.53C68.1483 183.53 68.0783 183.48 68.0483 183.46L67.2383 182.99C67.2383 182.99 67.3083 183.04 67.3383 183.06Z" fill="#E6C8FF"/>
<path d="M75.2485 172.24L74.4385 171.77C74.1585 171.61 73.7885 171.66 73.4285 171.87C73.0885 172.07 72.7485 172.4 72.4785 172.84L73.2885 173.31C73.5585 172.87 73.8985 172.54 74.2385 172.34C74.6085 172.13 74.9785 172.08 75.2485 172.24Z" fill="#F1E1FF"/>
<path d="M73.2784 173.3L72.4684 172.83L68.6484 179L69.4584 179.48L73.2784 173.3Z" fill="#F1E1FF"/>
<path d="M65.7399 181.58L64.9199 181.11L67.2399 182.99L68.0499 183.46L65.7399 181.58Z" fill="#F1E1FF"/>
<path d="M67.8398 178.17L67.0298 177.7C66.7498 177.54 66.3798 177.59 66.0098 177.8L66.8198 178.27C67.1898 178.06 67.5598 178.01 67.8398 178.17Z" fill="#F1E1FF"/>
<path d="M66.829 178.27L66.019 177.8C65.699 177.98 65.379 178.29 65.119 178.69C64.509 179.62 64.429 180.7 64.929 181.11L65.739 181.58C65.239 181.17 65.319 180.09 65.929 179.16C66.189 178.76 66.509 178.45 66.829 178.27Z" fill="#F1E1FF"/>
<path d="M66.8295 178.27C66.5095 178.45 66.1895 178.76 65.9295 179.16C65.3195 180.09 65.2395 181.17 65.7395 181.58L68.0495 183.46C68.3795 183.73 68.8695 183.69 69.3495 183.41C69.7495 183.18 70.1495 182.79 70.4695 182.27L75.1995 174.64C75.7795 173.7 75.8295 172.63 75.2995 172.27C75.0195 172.07 74.6295 172.11 74.2395 172.34C73.8995 172.54 73.5595 172.87 73.2895 173.31L69.4695 179.48L67.9395 178.23C67.6595 178 67.2495 178.03 66.8395 178.27H66.8295Z" fill="white"/>
<path d="M28.0293 169.41V169.43L28.1993 169.33C28.1493 169.36 28.0793 169.4 28.0293 169.42V169.41Z" fill="#F9F2FF"/>
<defs>
<linearGradient id="paint0_linear_2178_7633" x1="32.2609" y1="261.37" x2="189.321" y2="261.37" gradientUnits="userSpaceOnUse">
<stop stop-color="#C583FF"/>
<stop offset="1" stop-color="#D9ADFF"/>
</linearGradient>
<linearGradient id="paint1_linear_2178_7633" x1="95.3797" y1="288.41" x2="126.19" y2="235.04" gradientUnits="userSpaceOnUse">
<stop offset="0.45" stop-color="#BF76FF"/>
<stop offset="1" stop-color="#D9ADFF"/>
</linearGradient>
<linearGradient id="paint2_linear_2178_7633" x1="264.76" y1="251.351" x2="283.54" y2="218.821" gradientUnits="userSpaceOnUse">
<stop offset="0.13" stop-color="#E7D6FF"/>
<stop offset="0.58" stop-color="#D0AFFF"/>
<stop offset="1" stop-color="#C8A2FF"/>
</linearGradient>
<linearGradient id="paint3_linear_2178_7633" x1="335.681" y1="210.121" x2="389.021" y2="117.731" gradientUnits="userSpaceOnUse">
<stop offset="0.16" stop-color="#8027FF"/>
<stop offset="1" stop-color="#B784FF"/>
</linearGradient>
<linearGradient id="paint4_linear_2178_7633" x1="207.21" y1="157.7" x2="344.34" y2="78.5201" gradientUnits="userSpaceOnUse">
<stop offset="0.06" stop-color="#BA8AFF"/>
<stop offset="0.74" stop-color="#C7A0FF"/>
</linearGradient>
<linearGradient id="paint5_linear_2178_7633" x1="260.36" y1="127.01" x2="346.26" y2="77.4105" gradientUnits="userSpaceOnUse">
<stop offset="0.21" stop-color="#974EFF"/>
<stop offset="1" stop-color="#B784FF"/>
</linearGradient>
<linearGradient id="paint6_linear_2178_7633" x1="240.05" y1="77.5004" x2="324.68" y2="28.6304" gradientUnits="userSpaceOnUse">
<stop stop-color="#8027FF"/>
<stop offset="0.43" stop-color="#B784FF"/>
</linearGradient>
<linearGradient id="paint7_linear_2178_7633" x1="210.54" y1="148.631" x2="336.55" y2="75.8906" gradientUnits="userSpaceOnUse">
<stop offset="0.28" stop-color="#B663FF"/>
<stop offset="1" stop-color="#D9ADFF"/>
</linearGradient>
<linearGradient id="paint8_linear_2178_7633" x1="243.97" y1="150.79" x2="288.64" y2="73.3997" gradientUnits="userSpaceOnUse">
<stop stop-color="#EBDCFF"/>
<stop offset="0.67" stop-color="#F1E7FF"/>
</linearGradient>
<linearGradient id="paint9_linear_2178_7633" x1="170.74" y1="255.08" x2="186.45" y2="257.01" gradientUnits="userSpaceOnUse">
<stop stop-color="#B55FFF"/>
<stop offset="0.11" stop-color="#B55FFF"/>
<stop offset="0.27" stop-color="#C787FF"/>
<stop offset="0.35" stop-color="#C37EFF"/>
<stop offset="0.49" stop-color="#B866FF"/>
<stop offset="0.53" stop-color="#B55FFF"/>
</linearGradient>
<linearGradient id="paint10_linear_2178_7633" x1="181.311" y1="207.68" x2="196.661" y2="211.23" gradientUnits="userSpaceOnUse">
<stop offset="0.02" stop-color="#A0F6FF"/>
<stop offset="0.23" stop-color="#DEC7FF"/>
<stop offset="0.35" stop-color="#DFC9FF"/>
<stop offset="0.6" stop-color="#A5D9FF"/>
<stop offset="0.86" stop-color="#6DE8FF"/>
<stop offset="0.98" stop-color="#58EFFF"/>
</linearGradient>
<linearGradient id="paint11_linear_2178_7633" x1="203.64" y1="163.68" x2="206.05" y2="162.29" gradientUnits="userSpaceOnUse">
<stop offset="0.31" stop-color="#DEC7FF"/>
<stop offset="0.98" stop-color="#94F5FF"/>
</linearGradient>
<linearGradient id="paint12_linear_2178_7633" x1="194.341" y1="166.1" x2="203.351" y2="160.9" gradientUnits="userSpaceOnUse">
<stop offset="0.02" stop-color="#A2F6FF"/>
<stop offset="0.69" stop-color="#DEC7FF"/>
</linearGradient>
<linearGradient id="paint13_linear_2178_7633" x1="199.249" y1="161.62" x2="201.649" y2="157.47" gradientUnits="userSpaceOnUse">
<stop offset="0.02" stop-color="#A2F6FF"/>
<stop offset="0.9" stop-color="#D9BEFF"/>
</linearGradient>
<linearGradient id="paint14_linear_2178_7633" x1="191.181" y1="166.76" x2="205.631" y2="170.1" gradientUnits="userSpaceOnUse">
<stop offset="0.02" stop-color="#A0F6FF"/>
<stop offset="0.23" stop-color="#DEC7FF"/>
<stop offset="0.35" stop-color="#DFC9FF"/>
<stop offset="0.6" stop-color="#A5D9FF"/>
<stop offset="0.86" stop-color="#6DE8FF"/>
<stop offset="0.98" stop-color="#58EFFF"/>
</linearGradient>
<linearGradient id="paint15_linear_2178_7633" x1="270.94" y1="154.32" x2="242.92" y2="105.8" gradientUnits="userSpaceOnUse">
<stop offset="0.21" stop-color="#A945FF"/>
<stop offset="0.59" stop-color="#B45DFF"/>
<stop offset="0.94" stop-color="#B156FF"/>
</linearGradient>
<linearGradient id="paint16_linear_2178_7633" x1="216.21" y1="216.18" x2="175.57" y2="145.79" gradientUnits="userSpaceOnUse">
<stop stop-color="#9953FD"/>
<stop offset="0.37" stop-color="#AF77FD"/>
<stop offset="0.82" stop-color="#C9A5FE"/>
</linearGradient>
<linearGradient id="paint17_linear_2178_7633" x1="178.57" y1="251.5" x2="227.35" y2="167" gradientUnits="userSpaceOnUse">
<stop offset="0.18" stop-color="#BC8EFE"/>
<stop offset="0.69" stop-color="#B887FD"/>
</linearGradient>
<linearGradient id="paint18_linear_2178_7633" x1="204.491" y1="231.33" x2="163.811" y2="160.88" gradientUnits="userSpaceOnUse">
<stop offset="0.17" stop-color="#B17CFD"/>
<stop offset="0.82" stop-color="#C9A5FE"/>
</linearGradient>
<linearGradient id="paint19_linear_2178_7633" x1="182.269" y1="203.51" x2="197.579" y2="207.04" gradientUnits="userSpaceOnUse">
<stop offset="0.02" stop-color="#A0F6FF"/>
<stop offset="0.23" stop-color="#DEC7FF"/>
<stop offset="0.35" stop-color="#DFC9FF"/>
<stop offset="0.6" stop-color="#A5D9FF"/>
<stop offset="0.86" stop-color="#6DE8FF"/>
<stop offset="0.98" stop-color="#58EFFF"/>
</linearGradient>
<linearGradient id="paint20_linear_2178_7633" x1="197.339" y1="159.98" x2="204.509" y2="168.65" gradientUnits="userSpaceOnUse">
<stop stop-color="#DEC7FF"/>
<stop offset="0.52" stop-color="#A2F6FF"/>
<stop offset="1" stop-color="#5DF0FF"/>
</linearGradient>
<linearGradient id="paint21_linear_2178_7633" x1="191.179" y1="166.76" x2="205.629" y2="170.1" gradientUnits="userSpaceOnUse">
<stop offset="0.02" stop-color="#A0F6FF"/>
<stop offset="0.23" stop-color="#DEC7FF"/>
<stop offset="0.35" stop-color="#DFC9FF"/>
<stop offset="0.6" stop-color="#A5D9FF"/>
<stop offset="0.86" stop-color="#6DE8FF"/>
<stop offset="0.98" stop-color="#58EFFF"/>
</linearGradient>
</defs>
</svg>
