<svg width="100" height="100" viewBox="0 0 100 100" fill="none" xmlns="http://www.w3.org/2000/svg">
<path d="M38.0491 47.9868C39.4377 47.9868 40.5586 46.885 40.5586 45.5202V18.1895C40.5586 17.5317 40.2909 16.8904 39.8057 16.4299L34.7867 11.6939C34.3183 11.2335 33.6825 10.9868 33.03 10.9868H14.0681C12.6795 10.9868 11.5586 12.0886 11.5586 13.4535V45.5202C11.5586 46.885 12.6795 47.9868 14.0681 47.9868H38.0491Z" stroke="#00CCF5" stroke-width="3" stroke-linecap="round" stroke-linejoin="round"/>
<path d="M86.0491 88.9868C87.4376 88.9868 88.5586 87.8853 88.5586 86.5201V59.1895C88.5586 58.5318 88.291 57.8903 87.8058 57.4299L82.7868 52.6939C82.3184 52.2336 81.6823 51.9868 81.0301 51.9868H62.0681C60.6796 51.9868 59.5586 53.0886 59.5586 54.4535V86.5201C59.5586 87.8853 60.6796 88.9868 62.0681 88.9868H86.0491Z" stroke="#00CCF5" stroke-width="3" stroke-linecap="round" stroke-linejoin="round"/>
<path d="M71.5586 30.9868L80.0582 39.9868L88.5586 30.9868" stroke="black" stroke-width="3" stroke-linecap="round" stroke-linejoin="round"/>
<path d="M28.5586 68.9868L20.0589 59.9868L11.5586 68.9868" stroke="black" stroke-width="3" stroke-linecap="round" stroke-linejoin="round"/>
<path d="M59.5586 10.9868H65.4003C73.2196 10.9868 79.5586 17.4575 79.5586 25.4394V39.9868" stroke="black" stroke-width="3" stroke-linecap="round" stroke-linejoin="round"/>
<path d="M39.5586 88.9868H33.7169C25.8975 88.9868 19.5586 82.5161 19.5586 74.5343V59.9868" stroke="black" stroke-width="3" stroke-linecap="round" stroke-linejoin="round"/>
</svg>
