<svg width="100" height="100" viewBox="0 0 100 100" fill="none" xmlns="http://www.w3.org/2000/svg">
<path d="M83.0282 58.4044C86.4354 55.3407 88.8203 50.9151 88.8203 45.8086C88.8203 36.6172 81.3246 29.1279 72.1257 29.1279C68.7185 29.1279 65.3114 30.1492 62.5859 32.1917C60.201 20.2769 49.9795 11.4258 37.3734 11.4258C23.4044 11.4258 11.8203 23.0002 11.8203 36.9576C11.8203 46.4895 17.2716 55.0002 25.1079 59.4258" stroke="black" stroke-width="3" stroke-miterlimit="10" stroke-linecap="round" stroke-linejoin="round"/>
<path d="M44.2507 85.3147C40.1494 89.4628 33.6558 89.4628 29.8963 85.3147C25.795 81.1665 25.795 74.5986 29.8963 70.7962L37.0734 63.5369C41.1747 59.3887 47.6684 59.3887 51.4279 63.5369L53.8203 65.9566" stroke="#00CCF5" stroke-width="3" stroke-miterlimit="10" stroke-linecap="round" stroke-linejoin="round"/>
<path d="M54.3899 55.5369C58.4912 51.3887 64.9849 51.3887 68.7444 55.5369C72.8456 59.685 72.8456 66.2529 68.7444 70.0554L61.5671 77.3147C57.4659 81.4628 50.9722 81.4628 47.2127 77.3147L44.8203 74.8949" stroke="#00CCF5" stroke-width="3" stroke-miterlimit="10" stroke-linecap="round" stroke-linejoin="round"/>
</svg>
