<svg width="38" height="38" viewBox="0 0 38 38" fill="none" xmlns="http://www.w3.org/2000/svg">
<path d="M24.8742 13.1259C24.727 12.9775 24.5519 12.8597 24.359 12.7793C24.166 12.6989 23.9591 12.6576 23.7501 12.6576C23.541 12.6576 23.3341 12.6989 23.1412 12.7793C22.9482 12.8597 22.7731 12.9775 22.6259 13.1259L19.0001 16.7676L15.3742 13.1259C15.0761 12.8278 14.6717 12.6603 14.2501 12.6603C13.8284 12.6603 13.424 12.8278 13.1259 13.1259C12.8278 13.424 12.6603 13.8284 12.6603 14.2501C12.6603 14.6717 12.8278 15.0761 13.1259 15.3742L16.7676 19.0001L13.1259 22.6259C12.9775 22.7731 12.8597 22.9482 12.7793 23.1412C12.6989 23.3341 12.6576 23.541 12.6576 23.7501C12.6576 23.9591 12.6989 24.166 12.7793 24.359C12.8597 24.5519 12.9775 24.727 13.1259 24.8742C13.2731 25.0226 13.4482 25.1404 13.6412 25.2208C13.8341 25.3012 14.041 25.3426 14.2501 25.3426C14.4591 25.3426 14.666 25.3012 14.859 25.2208C15.0519 25.1404 15.227 25.0226 15.3742 24.8742L19.0001 21.2326L22.6259 24.8742C22.7731 25.0226 22.9482 25.1404 23.1412 25.2208C23.3341 25.3012 23.541 25.3426 23.7501 25.3426C23.9591 25.3426 24.166 25.3012 24.359 25.2208C24.5519 25.1404 24.727 25.0226 24.8742 24.8742C25.0226 24.727 25.1404 24.5519 25.2208 24.359C25.3012 24.166 25.3426 23.9591 25.3426 23.7501C25.3426 23.541 25.3012 23.3341 25.2208 23.1412C25.1404 22.9482 25.0226 22.7731 24.8742 22.6259L21.2326 19.0001L24.8742 15.3742C25.0226 15.227 25.1404 15.0519 25.2208 14.859C25.3012 14.666 25.3426 14.4591 25.3426 14.2501C25.3426 14.041 25.3012 13.8341 25.2208 13.6412C25.1404 13.4482 25.0226 13.2731 24.8742 13.1259ZM30.1942 7.8059C28.7337 6.29365 26.9865 5.08744 25.0548 4.25763C23.1231 3.42782 21.0454 2.99103 18.9431 2.97277C16.8407 2.9545 14.7558 3.35511 12.81 4.15122C10.8641 4.94734 9.09628 6.12301 7.60964 7.60964C6.12301 9.09628 4.94734 10.8641 4.15122 12.81C3.35511 14.7558 2.9545 16.8407 2.97277 18.9431C2.99103 21.0454 3.42782 23.1231 4.25763 25.0548C5.08744 26.9865 6.29365 28.7337 7.8059 30.1942C9.26647 31.7065 11.0136 32.9127 12.9453 33.7425C14.8771 34.5723 16.9547 35.0091 19.057 35.0274C21.1594 35.0456 23.2443 34.645 25.1902 33.8489C27.136 33.0528 28.9039 31.8771 30.3905 30.3905C31.8771 28.9039 33.0528 27.136 33.8489 25.1902C34.645 23.2443 35.0456 21.1594 35.0274 19.057C35.0091 16.9547 34.5723 14.8771 33.7425 12.9453C32.9127 11.0136 31.7065 9.26647 30.1942 7.8059ZM27.9617 27.9617C25.8908 30.035 23.1651 31.326 20.249 31.615C17.3329 31.9039 14.4068 31.1728 11.9693 29.5463C9.53179 27.9198 7.73363 25.4984 6.88119 22.6947C6.02874 19.8911 6.17476 16.8786 7.29434 14.1706C8.41393 11.4625 10.4378 9.22638 13.0212 7.8432C15.6046 6.46003 18.5877 6.01535 21.4622 6.58495C24.3366 7.15454 26.9247 8.70316 28.7854 10.967C30.6462 13.2308 31.6644 16.0697 31.6667 19.0001C31.6724 20.6646 31.3478 22.3137 30.7119 23.852C30.0759 25.3903 29.1412 26.7871 27.9617 27.9617Z" fill="#7A7A7A"/>
</svg>
