<svg width="84" height="84" viewBox="0 0 84 84" fill="none" xmlns="http://www.w3.org/2000/svg">
<path d="M40.3671 49.5678C40.3671 50.264 40.0905 50.9316 39.5982 51.4239C39.1059 51.9162 38.4383 52.1928 37.7421 52.1928H7.94043C7.24424 52.1928 6.57656 51.9162 6.08427 51.4239C5.59199 50.9316 5.31543 50.264 5.31543 49.5678C5.31543 48.8716 5.59199 48.2039 6.08427 47.7116C6.57656 47.2193 7.24424 46.9428 7.94043 46.9428H37.7421C38.4383 46.9428 39.1059 47.2193 39.5982 47.7116C40.0905 48.2039 40.3671 48.8716 40.3671 49.5678ZM37.7421 57.4428H15.8154C15.1192 57.4428 14.4516 57.7193 13.9593 58.2116C13.467 58.7039 13.1904 59.3716 13.1904 60.0678C13.1904 60.764 13.467 61.4316 13.9593 61.9239C14.4516 62.4162 15.1192 62.6928 15.8154 62.6928H37.7421C38.4383 62.6928 39.1059 62.4162 39.5982 61.9239C40.0905 61.4316 40.3671 60.764 40.3671 60.0678C40.3671 59.3716 40.0905 58.7039 39.5982 58.2116C39.1059 57.7193 38.4383 57.4428 37.7421 57.4428ZM37.7421 67.9428H23.6904C22.9942 67.9428 22.3266 68.2193 21.8343 68.7116C21.342 69.2039 21.0654 69.8716 21.0654 70.5678C21.0654 71.264 21.342 71.9316 21.8343 72.4239C22.3266 72.9162 22.9942 73.1928 23.6904 73.1928H37.7421C38.4383 73.1928 39.1059 72.9162 39.5982 72.4239C40.0905 71.9316 40.3671 71.264 40.3671 70.5678C40.3671 69.8716 40.0905 69.2039 39.5982 68.7116C39.1059 68.2193 38.4383 67.9428 37.7421 67.9428ZM51.6546 48.8695L62.2123 38.3249C62.6905 37.8298 62.9551 37.1667 62.9491 36.4785C62.9431 35.7902 62.667 35.1318 62.1803 34.6451C61.6936 34.1584 61.0352 33.8824 60.347 33.8764C59.6587 33.8704 58.9956 34.135 58.5006 34.6131L47.9481 45.1499C47.6973 45.392 47.4974 45.6817 47.3598 46.002C47.2222 46.3222 47.1498 46.6667 47.1468 47.0152C47.1437 47.3638 47.2102 47.7094 47.3422 48.032C47.4741 48.3546 47.669 48.6477 47.9155 48.8942C48.162 49.1407 48.4551 49.3356 48.7777 49.4676C49.1003 49.5995 49.4459 49.666 49.7945 49.6629C50.143 49.6599 50.4875 49.5875 50.8077 49.4499C51.128 49.3123 51.4177 49.1124 51.6598 48.8616L51.6546 48.8695ZM52.4237 18.2515V13.3533H54.9069C55.6031 13.3533 56.2708 13.0767 56.7631 12.5844C57.2554 12.0921 57.5319 11.4245 57.5319 10.7283C57.5319 10.0321 57.2554 9.3644 56.7631 8.87212C56.2708 8.37983 55.6031 8.10327 54.9069 8.10327H44.6957C43.9995 8.10327 43.3318 8.37983 42.8395 8.87212C42.3472 9.3644 42.0707 10.0321 42.0707 10.7283C42.0707 11.4245 42.3472 12.0921 42.8395 12.5844C43.3318 13.0767 43.9995 13.3533 44.6957 13.3533H47.1789V18.2463C41.0964 18.7838 35.3424 21.2421 30.7491 25.2655L27.2998 21.8163C26.8076 21.3234 26.1397 21.0462 25.4432 21.0457C24.7466 21.0452 24.0783 21.3214 23.5854 21.8136C23.0925 22.3059 22.8153 22.9737 22.8148 23.6703C22.8144 24.3669 23.0906 25.0351 23.5828 25.528L27.1423 29.0849C24.9735 31.8271 23.3201 34.94 22.2624 38.2724C22.0764 38.9296 22.1538 39.6335 22.4783 40.2345C22.8028 40.8355 23.3488 41.2864 24.0003 41.4914C24.6519 41.6964 25.3577 41.6394 25.9679 41.3324C26.578 41.0254 27.0445 40.4927 27.2683 39.8474C28.7726 35.0578 31.7689 30.8747 35.8194 27.9089C39.87 24.9431 44.7627 23.3501 49.7829 23.3624H49.8039H49.8249C56.0942 23.3645 62.1058 25.8569 66.5373 30.2914C70.9688 34.7259 73.4573 40.7392 73.4552 47.0084C73.4531 53.2776 70.9606 59.2892 66.5262 63.7208C62.0917 68.1523 56.0784 70.6407 49.8092 70.6386C49.3524 70.6386 48.8931 70.615 48.3628 70.5888C47.673 70.5645 47.0015 70.8128 46.4935 71.2801C45.9855 71.7473 45.6819 72.3958 45.6486 73.0851C45.6229 73.7846 45.8743 74.4659 46.3481 74.981C46.8219 75.4961 47.4799 75.8034 48.1791 75.8361C48.7224 75.8624 49.2684 75.8886 49.8092 75.8886C57.2693 75.9327 64.4569 73.0878 69.866 67.95C75.275 62.8121 78.4856 55.7802 78.825 48.3277C79.1643 40.8752 76.6061 33.5805 71.6864 27.9724C66.7668 22.3642 59.8674 18.8778 52.4342 18.2436L52.4237 18.2515Z" fill="#B8B2FF"/>
</svg>
