<svg width="61" height="61" viewBox="0 0 61 61" fill="none" xmlns="http://www.w3.org/2000/svg">
<path d="M39.8079 30.5H49.1157V37.9463C49.1157 42.0534 45.7766 45.3926 41.6694 45.3926H40.7387C40.3718 45.3917 40.0082 45.4633 39.6691 45.6033C39.3299 45.7434 39.0217 45.949 38.7622 46.2085C38.5027 46.468 38.2971 46.7762 38.1571 47.1153C38.017 47.4545 37.9454 47.818 37.9463 48.185V53.7697C37.9454 54.1367 38.017 54.5002 38.1571 54.8394C38.2971 55.1786 38.5027 55.4867 38.7622 55.7462C39.0217 56.0057 39.3299 56.2113 39.6691 56.3514C40.0082 56.4914 40.3718 56.563 40.7387 56.5621H41.6694C51.9546 56.5621 60.2852 48.2316 60.2852 37.9464V10.0227C60.2852 6.93946 57.7837 4.43799 54.7004 4.43799H39.8079C36.7246 4.43799 34.2231 6.93946 34.2231 10.0227V24.9153C34.2231 27.9985 36.7246 30.5 39.8079 30.5ZM6.29956 30.5H15.6074V37.9463C15.6074 42.0534 12.2683 45.3926 8.16113 45.3926H7.23041C6.86345 45.3917 6.49994 45.4633 6.16075 45.6033C5.82156 45.7434 5.51338 45.949 5.25391 46.2085C4.99443 46.468 4.78878 46.7762 4.64876 47.1153C4.50874 47.4545 4.43711 47.818 4.43799 48.185V53.7697C4.43711 54.1367 4.50874 54.5002 4.64876 54.8394C4.78878 55.1786 4.99443 55.4867 5.25391 55.7462C5.51338 56.0057 5.82156 56.2113 6.16075 56.3514C6.49994 56.4914 6.86345 56.563 7.23041 56.5621H8.16113C18.4463 56.5621 26.7769 48.2316 26.7769 37.9464V10.0227C26.7769 6.93946 24.2754 4.43799 21.1921 4.43799H6.29956C3.21632 4.43799 0.714844 6.93946 0.714844 10.0227V24.9153C0.714844 27.9985 3.21632 30.5 6.29956 30.5Z" fill="#C6C6C6"/>
</svg>
