<svg width="84" height="84" viewBox="0 0 84 84" fill="none" xmlns="http://www.w3.org/2000/svg">
<path d="M76.125 57.75H7.875C7.17881 57.75 6.51113 57.4734 6.01884 56.9812C5.52656 56.4889 5.25 55.8212 5.25 55.125V18.375C5.25 17.6788 5.52656 17.0111 6.01884 16.5188C6.51113 16.0266 7.17881 15.75 7.875 15.75H76.125C76.8212 15.75 77.4889 16.0266 77.9812 16.5188C78.4734 17.0111 78.75 17.6788 78.75 18.375V55.125C78.75 55.8212 78.4734 56.4889 77.9812 56.9812C77.4889 57.4734 76.8212 57.75 76.125 57.75ZM10.5 52.5H73.5V21H10.5V52.5Z" fill="#B8B2FF"/>
<path d="M42 68.25C41.3038 68.25 40.6361 67.9734 40.1438 67.4812C39.6516 66.9889 39.375 66.3212 39.375 65.625V57.75C39.375 57.0538 39.6516 56.3861 40.1438 55.8938C40.6361 55.4016 41.3038 55.125 42 55.125C42.6962 55.125 43.3639 55.4016 43.8562 55.8938C44.3484 56.3861 44.625 57.0538 44.625 57.75V65.625C44.625 66.3212 44.3484 66.9889 43.8562 67.4812C43.3639 67.9734 42.6962 68.25 42 68.25Z" fill="#B8B2FF"/>
<path d="M49.8749 68.25H34.1249C33.4287 68.25 32.7611 67.9735 32.2688 67.4812C31.7765 66.9889 31.4999 66.3212 31.4999 65.625C31.4999 64.9288 31.7765 64.2612 32.2688 63.7689C32.7611 63.2766 33.4287 63 34.1249 63H49.8749C50.5711 63 51.2388 63.2766 51.7311 63.7689C52.2234 64.2612 52.4999 64.9288 52.4999 65.625C52.4999 66.3212 52.2234 66.9889 51.7311 67.4812C51.2388 67.9735 50.5711 68.25 49.8749 68.25ZM31.4999 47.25C31.1552 47.2504 30.8137 47.1826 30.4953 47.0506C30.1768 46.9186 29.8875 46.725 29.6441 46.4809L21.7691 38.6059C21.2769 38.1136 21.0005 37.4461 21.0005 36.75C21.0005 36.054 21.2769 35.3864 21.7691 34.8942L29.6441 27.0192C29.8862 26.7684 30.1759 26.5685 30.4961 26.4309C30.8164 26.2933 31.1608 26.2209 31.5094 26.2179C31.8579 26.2148 32.2036 26.2813 32.5262 26.4132C32.8488 26.5452 33.1419 26.7402 33.3883 26.9866C33.6348 27.2331 33.8297 27.5262 33.9617 27.8488C34.0937 28.1714 34.1601 28.517 34.1571 28.8656C34.1541 29.2141 34.0816 29.5586 33.9441 29.8788C33.8065 30.1991 33.6065 30.4888 33.3558 30.7309L27.3367 36.75L33.3558 42.7692C33.7228 43.1363 33.9727 43.6039 34.074 44.1131C34.1752 44.6222 34.1232 45.1499 33.9246 45.6295C33.7259 46.1091 33.3896 46.519 32.958 46.8075C32.5264 47.0959 32.019 47.2499 31.4999 47.25ZM52.4999 47.25C51.9808 47.2499 51.4734 47.0959 51.0419 46.8075C50.6103 46.519 50.2739 46.1091 50.0753 45.6295C49.8766 45.1499 49.8247 44.6222 49.9259 44.1131C50.0271 43.6039 50.2771 43.1363 50.6441 42.7692L56.6632 36.75L50.6441 30.7309C50.3933 30.4888 50.1934 30.1991 50.0558 29.8788C49.9182 29.5586 49.8458 29.2141 49.8428 28.8656C49.8397 28.517 49.9062 28.1714 50.0381 27.8488C50.1701 27.5262 50.365 27.2331 50.6115 26.9866C50.858 26.7402 51.1511 26.5452 51.4737 26.4132C51.7963 26.2813 52.1419 26.2148 52.4905 26.2179C52.839 26.2209 53.1835 26.2933 53.5037 26.4309C53.824 26.5685 54.1137 26.7684 54.3558 27.0192L62.2308 34.8942C62.7229 35.3864 62.9994 36.054 62.9994 36.75C62.9994 37.4461 62.7229 38.1136 62.2308 38.6059L54.3558 46.4809C54.1124 46.725 53.8231 46.9186 53.5046 47.0506C53.1861 47.1826 52.8447 47.2504 52.4999 47.25ZM39.3749 47.25C38.9589 47.2499 38.5489 47.1508 38.1787 46.961C37.8084 46.7713 37.4886 46.4962 37.2456 46.1586C37.0025 45.8209 36.8432 45.4304 36.7808 45.019C36.7183 44.6077 36.7545 44.1875 36.8864 43.7929L42.1364 28.0429C42.3736 27.4046 42.8495 26.8834 43.4638 26.5894C44.078 26.2954 44.7824 26.2516 45.4283 26.4673C46.0743 26.6829 46.6111 27.1411 46.9255 27.7452C47.2399 28.3492 47.3073 29.0518 47.1134 29.7045L41.8634 45.4545C41.6894 45.977 41.3555 46.4315 40.9089 46.7538C40.4623 47.076 39.9256 47.2496 39.3749 47.25Z" fill="#B8B2FF"/>
</svg>
