<svg width="100" height="100" viewBox="0 0 100 100" fill="none" xmlns="http://www.w3.org/2000/svg">
<path d="M45.0198 84.3543L33.1997 68.5864C32.6156 67.807 32.2872 66.8656 32.2597 65.8917C32.2322 64.9178 32.507 63.9594 33.0462 63.1482C33.4015 62.6157 33.8615 62.1613 34.3982 61.8127C34.9348 61.464 35.5368 61.2285 36.1674 61.1204C36.7981 61.0123 37.4441 61.0339 38.0661 61.1839C38.6881 61.3339 39.273 61.6092 39.7852 61.9929L45.0044 65.9195V35.9722C45.0044 35.3657 45.124 34.7652 45.3564 34.205C45.5888 33.6449 45.9294 33.1361 46.3587 32.708C46.7879 32.2798 47.2974 31.9407 47.8579 31.7099C48.4185 31.4792 49.0189 31.3615 49.625 31.3636C50.8464 31.3636 52.0178 31.8491 52.8814 32.7134C53.745 33.5777 54.2302 34.7499 54.2302 35.9722V54.407L67.0451 57.2583C69.2308 57.7443 71.1648 59.0105 72.4854 60.82C73.8059 62.6296 74.4226 64.8586 74.22 67.0901L72.6512 84.3635L45.0198 84.3543Z" stroke="#00CCF5" stroke-width="3" stroke-linecap="round" stroke-linejoin="round"/>
<path d="M33.1474 55.3635C30.0768 52.3052 27.913 48.434 26.9019 44.19C25.8908 39.946 26.073 35.4993 27.4278 31.3552C28.7825 27.211 31.2555 23.5355 34.5657 20.7464C37.876 17.9573 41.8907 16.1664 46.1538 15.5771C50.4168 14.9878 54.7573 15.6238 58.682 17.4129C62.6066 19.202 65.9582 22.0723 68.3557 25.6978C70.7532 29.3233 72.1007 33.5586 72.2449 37.9225C72.3891 42.2863 71.3243 46.6037 69.1715 50.384" stroke="black" stroke-width="3" stroke-linecap="round" stroke-linejoin="round"/>
</svg>
