<svg width="69" height="64" viewBox="0 0 69 64" fill="none" xmlns="http://www.w3.org/2000/svg">
<path d="M59.8873 10.1042C63.8835 10.1042 67.1231 8.29001 67.1231 6.05209C67.1231 3.81417 63.8835 2 59.8873 2C55.891 2 52.6514 3.81417 52.6514 6.05209C52.6514 8.29001 55.891 10.1042 59.8873 10.1042Z" stroke="black" stroke-width="3" stroke-miterlimit="10" stroke-linecap="round" stroke-linejoin="round"/>
<path d="M52.6514 6.05176V17.0503C52.6514 19.3658 55.8352 21.1024 59.8873 21.1024C63.9394 21.1024 67.1231 19.3658 67.1231 17.0503V6.05176" stroke="black" stroke-width="3" stroke-miterlimit="10" stroke-linecap="round" stroke-linejoin="round"/>
<path d="M34.7064 10.1042C38.703 10.1042 41.9423 8.29001 41.9423 6.05209C41.9423 3.81417 38.703 2 34.7064 2C30.7102 2 27.4707 3.81417 27.4707 6.05209C27.4707 8.29001 30.7102 10.1042 34.7064 10.1042Z" stroke="black" stroke-width="3" stroke-miterlimit="10" stroke-linecap="round" stroke-linejoin="round"/>
<path d="M27.4707 6.05176V17.0503C27.4707 19.3658 30.6544 21.1024 34.7064 21.1024C38.7585 21.1024 41.9423 19.3658 41.9423 17.0503V6.05176" stroke="black" stroke-width="3" stroke-miterlimit="10" stroke-linecap="round" stroke-linejoin="round"/>
<path d="M9.23589 10.1042C13.2322 10.1042 16.4718 8.29001 16.4718 6.05209C16.4718 3.81417 13.2322 2 9.23589 2C5.23962 2 2 3.81417 2 6.05209C2 8.29001 5.23962 10.1042 9.23589 10.1042Z" stroke="black" stroke-width="3" stroke-miterlimit="10" stroke-linecap="round" stroke-linejoin="round"/>
<path d="M2 6.05176V17.0503C2 19.3658 5.18379 21.1024 9.23589 21.1024C13.288 21.1024 16.4718 19.3658 16.4718 17.0503V6.05176" stroke="black" stroke-width="3" stroke-miterlimit="10" stroke-linecap="round" stroke-linejoin="round"/>
<path d="M21.6818 58.4392C21.6818 57.5709 21.3924 56.9921 20.8135 56.4132L19.3664 54.966C18.4981 54.0977 18.2086 52.94 18.7875 51.7822C19.3664 50.6245 20.2347 50.0456 21.6818 50.0456H23.7079C24.5762 50.0456 25.155 49.7562 25.7339 49.1773C26.3128 48.5984 26.6023 47.7301 26.6023 47.1513V45.1252C26.6023 43.9675 27.1811 42.8097 28.3388 42.2309C29.4965 41.652 30.6542 41.9414 31.5225 42.8097L32.9697 44.2569C33.5486 44.8358 34.1275 45.1252 34.9958 45.1252C35.8641 45.1252 36.4429 44.8358 37.0218 44.2569L38.469 42.8097C39.3373 41.9414 40.495 41.652 41.6528 42.2309C42.8105 42.8097 43.3894 43.678 43.3894 45.1252V47.1513C43.3894 48.0196 43.6788 48.5984 44.2577 49.1773C44.8366 49.7562 45.7049 50.0456 46.2838 50.0456H48.3098C49.4676 50.0456 50.6253 50.6245 51.2042 51.7822C51.783 52.94 51.4936 54.0977 50.6253 54.966L48.5992 56.4132C48.0204 56.9921 47.7309 57.5709 47.7309 58.4392" stroke="#00CCF5" stroke-width="3" stroke-miterlimit="10" stroke-linecap="round" stroke-linejoin="round"/>
<path d="M29.207 58.4399C29.207 55.5456 31.5225 52.9407 34.7063 52.9407C37.6007 52.9407 40.2056 55.2562 40.2056 58.4399" stroke="#00CCF5" stroke-width="3" stroke-miterlimit="10" stroke-linecap="round" stroke-linejoin="round"/>
<path d="M52.0723 41.9418L59.3082 36.1531V28.9172" stroke="black" stroke-width="3" stroke-miterlimit="10" stroke-linecap="round" stroke-linejoin="round"/>
<path d="M17.3404 41.9418L10.1045 36.1531V28.9172" stroke="black" stroke-width="3" stroke-miterlimit="10" stroke-linecap="round" stroke-linejoin="round"/>
<path d="M34.5615 34.7058V27.47" stroke="black" stroke-width="3" stroke-miterlimit="10" stroke-linecap="round" stroke-linejoin="round"/>
<path d="M3.30273 62H65.8208" stroke="#00CCF5" stroke-width="3" stroke-linecap="round"/>
</svg>
