<svg width="100" height="100" viewBox="0 0 100 100" fill="none" xmlns="http://www.w3.org/2000/svg">
<path d="M36.7734 65.2001V39.3867C36.7734 36.8972 35.7844 34.5096 34.0241 32.7493C32.2637 30.989 29.8762 30 27.3867 30C24.8972 30 22.5096 30.989 20.7493 32.7493C18.989 34.5096 18 36.8972 18 39.3867V65.2001" stroke="black" stroke-width="3" stroke-linecap="round" stroke-linejoin="round"/>
<path d="M18 51.1201H36.7734" stroke="black" stroke-width="3" stroke-linecap="round" stroke-linejoin="round"/>
<path d="M48.9159 65.2001H45.3604V30H52.4004C54.8899 30 57.2774 30.989 59.0378 32.7493C60.7981 34.5096 61.787 36.8972 61.787 39.3867V47" stroke="black" stroke-width="3" stroke-linecap="round" stroke-linejoin="round"/>
<g clip-path="url(#clip0_2654_12759)">
<path d="M65.0612 53.2507C65.3059 53.5223 65.6049 53.7395 65.9389 53.8881C66.2729 54.0368 66.6343 54.1136 66.9999 54.1136C67.3654 54.1136 67.7269 54.0368 68.0609 53.8881C68.3949 53.7395 68.6939 53.5223 68.9386 53.2507L70.1999 51.8667C70.5614 51.4666 71.0378 51.1882 71.5639 51.0697C72.0899 50.9512 72.6397 50.9984 73.1378 51.2048C73.636 51.4112 74.058 51.7667 74.346 52.2226C74.6341 52.6784 74.774 53.2122 74.7466 53.7507L74.6519 55.6174C74.6336 55.9815 74.6917 56.3455 74.8226 56.6858C74.9535 57.0261 75.1543 57.3352 75.4119 57.5932C75.6695 57.8512 75.9783 58.0523 76.3184 58.1837C76.6585 58.3151 77.0224 58.3738 77.3866 58.356L79.2532 58.2614C79.7914 58.2348 80.3246 58.3754 80.7797 58.6638C81.2349 58.9521 81.5897 59.3742 81.7956 59.8721C82.0015 60.3701 82.0484 60.9195 81.9298 61.4451C81.8112 61.9707 81.533 62.4468 81.1332 62.808L79.7439 64.0614C79.4726 64.3064 79.2558 64.6056 79.1074 64.9397C78.959 65.2737 78.8823 65.6352 78.8823 66.0007C78.8823 66.3662 78.959 66.7277 79.1074 67.0618C79.2558 67.3958 79.4726 67.695 79.7439 67.94L81.1332 69.1934C81.5333 69.5549 81.8117 70.0313 81.9302 70.5574C82.0487 71.0834 82.0015 71.6332 81.7951 72.1313C81.5887 72.6295 81.2332 73.0515 80.7774 73.3395C80.3215 73.6276 79.7877 73.7675 79.2492 73.74L77.3826 73.6454C77.0176 73.6266 76.6528 73.6847 76.3117 73.8158C75.9706 73.9469 75.6608 74.1482 75.4024 74.4066C75.144 74.665 74.9428 74.9747 74.8116 75.3158C74.6805 75.6569 74.6225 76.0218 74.6412 76.3867L74.7359 78.2534C74.7598 78.7892 74.6181 79.3193 74.3302 79.7718C74.0423 80.2243 73.622 80.5772 73.1266 80.7826C72.6311 80.9879 72.0844 81.0358 71.5608 80.9196C71.0372 80.8035 70.5621 80.529 70.1999 80.1334L68.9452 78.7454C68.7003 78.4741 68.4012 78.2573 68.0673 78.1089C67.7334 77.9605 67.372 77.8838 67.0066 77.8838C66.6411 77.8838 66.2798 77.9605 65.9458 78.1089C65.6119 78.2573 65.3128 78.4741 65.0679 78.7454L63.8079 80.1334C63.4463 80.5308 62.9709 80.8071 62.4466 80.9245C61.9223 81.0419 61.3745 80.9948 60.878 80.7895C60.3814 80.5842 59.9602 80.2308 59.6719 79.7775C59.3835 79.3241 59.242 78.7928 59.2666 78.256L59.3626 76.3894C59.3813 76.0244 59.3233 75.6596 59.1922 75.3185C59.061 74.9774 58.8598 74.6676 58.6014 74.4092C58.343 74.1508 58.0332 73.9496 57.6921 73.8184C57.351 73.6873 56.9862 73.6293 56.6212 73.648L54.7546 73.7427C54.2163 73.7708 53.6825 73.6316 53.2265 73.3442C52.7705 73.0568 52.4146 72.6353 52.2077 72.1375C52.0009 71.6398 51.9531 71.0902 52.0711 70.5643C52.1891 70.0383 52.4669 69.5618 52.8666 69.2L54.2546 67.9467C54.5258 67.7017 54.7427 67.4025 54.8911 67.0684C55.0395 66.7344 55.1162 66.3729 55.1162 66.0074C55.1162 65.6418 55.0395 65.2804 54.8911 64.9463C54.7427 64.6123 54.5258 64.3131 54.2546 64.068L52.8666 62.808C52.4682 62.4467 52.1912 61.9712 52.0734 61.4464C51.9555 60.9217 52.0026 60.3734 52.2082 59.8764C52.4138 59.3795 52.7678 58.9581 53.2219 58.67C53.676 58.3819 54.208 58.241 54.7452 58.2667L56.6119 58.3614C56.9775 58.3806 57.3431 58.3227 57.6849 58.1914C58.0267 58.0602 58.3371 57.8585 58.5959 57.5994C58.8547 57.3404 59.0561 57.0298 59.187 56.6879C59.3179 56.346 59.3755 55.9803 59.3559 55.6147L59.2666 53.7467C59.2414 53.2097 59.3825 52.6781 59.6706 52.2242C59.9588 51.7704 60.3799 51.4165 60.8766 51.2109C61.3733 51.0053 61.9213 50.958 62.4459 51.0753C62.9705 51.1927 63.4462 51.469 63.8079 51.8667L65.0612 53.2507Z" stroke="#00CCF5" stroke-width="3" stroke-linecap="round" stroke-linejoin="round"/>
<path d="M61 66.0015C61 67.5928 61.6321 69.1189 62.7574 70.2441C63.8826 71.3693 65.4087 72.0015 67 72.0015C68.5913 72.0015 70.1174 71.3693 71.2426 70.2441C72.3679 69.1189 73 67.5928 73 66.0015C73 64.4102 72.3679 62.884 71.2426 61.7588C70.1174 60.6336 68.5913 60.0015 67 60.0015C65.4087 60.0015 63.8826 60.6336 62.7574 61.7588C61.6321 62.884 61 64.4102 61 66.0015Z" stroke="#00CCF5" stroke-width="3" stroke-linecap="round" stroke-linejoin="round"/>
</g>
<defs>
<clipPath id="clip0_2654_12759">
<rect width="32" height="32" fill="white" transform="translate(51 50)"/>
</clipPath>
</defs>
</svg>
