<svg width="425" height="410" viewBox="0 0 425 410" fill="none" xmlns="http://www.w3.org/2000/svg">
<path d="M264.199 236.73L250.331 228.923L252.233 227.826L193.644 193.888L161.195 212.601L220.007 246.411L244.254 232.429L257.863 240.472L264.199 236.73Z" fill="#F4F4F4"/>
<path d="M331.782 248.042L345.323 240.232L293.031 211.326L279.815 218.95L227.726 189.795L205.453 202.605L345.021 281.76L368.203 268.426L331.782 248.042Z" fill="#F4F4F4"/>
<path d="M408.373 266.288V111.747L217.703 1.76953V156.31L286.438 195.958L286.375 195.922L286.382 218.056L261.941 232.153L305.504 257.255L334.981 240.252L310.455 226.695L310.547 209.862L408.373 266.288Z" fill="#FAFAFA"/>
<path d="M217.703 1.76913L220.782 0L412.029 109.834L411.872 264.187L408.373 266.287V111.747L217.703 1.76913Z" fill="#F0F0F0"/>
<path d="M408.367 111.747L412.024 109.834L411.866 264.188L408.367 266.288V111.747Z" fill="#F6F6F6"/>
<path d="M408.373 122.264L217.703 12.286V1.76953L408.373 111.747V122.264Z" fill="#9E5AFF"/>
<path d="M225.88 11.7451C225.88 12.7083 225.099 13.0392 224.135 12.4823C223.171 11.9253 222.391 10.6935 222.391 9.7303C222.391 8.76711 223.171 8.43621 224.135 8.99316C225.099 9.55011 225.88 10.782 225.88 11.7451Z" fill="#80C2FF"/>
<path d="M232.942 15.8203C232.942 16.7835 232.162 17.1144 231.198 16.5575C230.234 16.0005 229.453 14.7687 229.453 13.8055C229.453 12.8423 230.234 12.5114 231.198 13.0684C232.162 13.6253 232.942 14.8571 232.942 15.8203Z" fill="#C6E4FF"/>
<path d="M240.005 19.8926C240.005 20.8558 239.224 21.1867 238.26 20.6297C237.296 20.0728 236.516 18.841 236.516 17.8778C236.516 16.9146 237.296 16.5837 238.26 17.1406C239.224 17.6976 240.005 18.9294 240.005 19.8926Z" fill="#B565E6"/>
<path d="M320.124 207.415L222.125 150.891V22.8906L320.124 79.4144V207.415Z" fill="#EBDEFF"/>
<path d="M403.623 255.578L351.797 225.683V97.6826L403.623 127.574V255.578Z" fill="#FAF2FE"/>
<path d="M261.962 81.3771L227.047 61.2385V31.5498L261.962 51.6884V81.3771Z" fill="#FAF2FE"/>
<path d="M396.587 159.026L358.836 137.252V107.563L396.587 129.337V159.026Z" fill="#80C2FF"/>
<path d="M396.587 246.113L358.836 224.336V179.895L396.587 201.668V246.113Z" fill="#C6E4FF"/>
<path d="M396.587 161.293L358.836 139.519V137.252L396.587 159.025V161.293Z" fill="#EBDEFF"/>
<path d="M396.587 170.387L358.836 148.614V147.795L396.587 169.568V170.387Z" fill="#EBDEFF"/>
<path d="M396.587 176.042L358.836 154.268V153.449L396.587 175.223V176.042Z" fill="#EBDEFF"/>
<path d="M396.587 181.697L358.836 159.924V159.104L396.587 180.878V181.697Z" fill="#EBDEFF"/>
<path d="M396.587 187.351L358.836 165.578V164.759L396.587 186.532V187.351Z" fill="#EBDEFF"/>
<path d="M396.587 193.006L358.836 171.232V170.413L396.587 192.187V193.006Z" fill="#EBDEFF"/>
<path d="M396.587 242.283L358.836 220.51V219.688L396.587 241.461V242.283Z" fill="#FAF2FE"/>
<path d="M346.037 222.357L318.359 206.396V78.3955L346.037 94.357V222.357Z" fill="#FAF2FE"/>
<path d="M315.182 151.579L227.047 100.742V71.0537L315.182 121.89V151.579Z" fill="#B480FF"/>
<path d="M342.666 148.175L321.203 135.794V125.359L342.666 137.74V148.175Z" fill="#B480FF"/>
<path d="M315.182 194.506L227.047 143.673V113.984L315.182 164.821V194.506Z" fill="#B480FF"/>
<path d="M277.634 66.7099L265.383 60.0822V58.3262L277.634 64.9539V66.7099Z" fill="#FAF2FE"/>
<path d="M307.617 91.9065L265.383 67.9806V66.2246L307.617 90.1505V91.9065Z" fill="#FAF2FE"/>
<path d="M307.617 99.8056L265.383 75.883V74.127L307.617 98.0529V99.8056Z" fill="#FAF2FE"/>
<path d="M307.617 107.708L265.383 83.7853V82.0293L307.617 105.952V107.708Z" fill="#FAF2FE"/>
<path d="M383.996 218.972C386.607 217.01 385.909 211.681 382.437 207.07C378.965 202.459 374.034 200.311 371.423 202.273C368.812 204.236 369.51 209.564 372.982 214.176C376.453 218.787 381.385 220.934 383.996 218.972Z" fill="#FAF2FE"/>
<path d="M375.328 209.649V205.924L378.558 209.649L381.788 213.374H378.558H375.328V209.649Z" fill="#EBDEFF"/>
<path d="M328.942 97.1325C330.372 96.0579 329.99 93.1401 328.089 90.6154C326.188 88.0907 323.488 86.9152 322.058 87.9898C320.628 89.0644 321.01 91.9822 322.911 94.5069C324.811 97.0316 327.512 98.2071 328.942 97.1325Z" fill="#EBDEFF"/>
<path d="M342.663 102.876L332.195 96.8376V96.0186L342.663 102.053V102.876Z" fill="#EBDEFF"/>
<path d="M328.942 110.212C330.372 109.137 329.99 106.219 328.089 103.695C326.188 101.17 323.488 99.9943 322.058 101.069C320.628 102.144 321.01 105.061 322.911 107.586C324.811 110.111 327.512 111.286 328.942 110.212Z" fill="#EBDEFF"/>
<path d="M342.663 115.954L332.195 109.919V109.097L342.663 115.135V115.954Z" fill="#EBDEFF"/>
<path d="M328.942 123.294C330.372 122.219 329.99 119.301 328.089 116.777C326.188 114.252 323.488 113.076 322.058 114.151C320.628 115.226 321.01 118.143 322.911 120.668C324.811 123.193 327.512 124.368 328.942 123.294Z" fill="#EBDEFF"/>
<path d="M342.663 129.036L332.195 122.998V122.179L342.663 128.213V129.036Z" fill="#EBDEFF"/>
<path d="M338.114 209.291C340.682 207.361 339.996 202.121 336.582 197.587C333.168 193.052 328.318 190.94 325.751 192.87C323.183 194.799 323.869 200.039 327.283 204.574C330.698 209.109 335.547 211.22 338.114 209.291Z" fill="#EBDEFF"/>
<path d="M342.666 152.994L321.203 140.613V139.794L342.666 152.175V152.994Z" fill="#EBDEFF"/>
<path d="M342.666 158.282L321.203 145.901V145.082L342.666 157.463V158.282Z" fill="#EBDEFF"/>
<path d="M342.666 163.57L321.203 151.192V150.37L342.666 162.751V163.57Z" fill="#EBDEFF"/>
<path d="M342.666 181.002L321.203 168.621V158.187L342.666 170.564V181.002Z" fill="#B480FF"/>
<path d="M342.666 185.821L321.203 173.44V172.618L342.666 184.999V185.821Z" fill="#EBDEFF"/>
<path d="M342.666 191.109L321.203 178.728V177.909L342.666 190.287V191.109Z" fill="#EBDEFF"/>
<path d="M342.666 196.397L321.203 184.016V183.197L342.666 195.578V196.397Z" fill="#EBDEFF"/>
<path d="M304.048 122.241L250.07 91.1075V90.2852L304.048 121.419V122.241Z" fill="#EBDEFF"/>
<path d="M304.048 127.896L250.07 96.7624V95.9434L304.048 127.074V127.896Z" fill="#EBDEFF"/>
<path d="M304.048 133.55L250.07 102.417V101.598L304.048 132.728V133.55Z" fill="#EBDEFF"/>
<path d="M304.048 139.205L250.07 108.072V107.253L304.048 138.383V139.205Z" fill="#EBDEFF"/>
<path d="M304.048 165.168L250.07 134.035V133.216L304.048 164.349V165.168Z" fill="#EBDEFF"/>
<path d="M304.048 170.823L250.07 139.692V138.87L304.048 170.004V170.823Z" fill="#EBDEFF"/>
<path d="M304.048 176.478L250.07 145.348V144.525L304.048 175.659V176.478Z" fill="#EBDEFF"/>
<path d="M304.048 182.132L250.07 151.002V150.18L304.048 181.313V182.132Z" fill="#EBDEFF"/>
<path d="M261.938 232.153V234.09L305.454 259.234L334.978 242.283V240.252L305.5 257.255L261.938 232.153Z" fill="#F0F0F0"/>
<path d="M314.266 228.802V243.155L327.367 236.081L314.266 228.802Z" fill="#F2F1F1"/>
<path d="M231.483 101.591C231.62 101.512 231.761 101.447 231.906 101.391H231.902L231.942 101.375C231.942 101.375 231.942 101.375 231.945 101.375L233.703 100.683C236.08 99.743 239.543 101.768 241.665 105.44C243.911 109.329 243.809 113.591 241.435 114.961C241.32 115.026 241.202 115.082 241.081 115.134H241.088L240.989 115.174C240.983 115.174 240.976 115.18 240.97 115.18L239.163 115.891C236.785 116.782 233.362 114.758 231.253 111.111C229.007 107.223 229.108 102.96 231.483 101.591Z" fill="#64B5FF"/>
<path d="M231.56 110.935C233.685 114.61 237.19 116.557 239.394 115.285C241.598 114.014 241.663 110.004 239.538 106.332C237.413 102.656 233.908 100.71 231.704 101.981C229.5 103.252 229.435 107.262 231.56 110.935Z" fill="#80C2FF"/>
<path d="M230.916 103.035C230.29 104.978 230.756 107.848 232.327 110.561C233.74 113.008 235.714 114.744 237.551 115.377C235.622 115.023 233.442 113.296 231.946 110.711C230.31 107.881 229.979 104.857 230.916 103.035Z" fill="#64B5FF"/>
<path d="M230.576 141.488C230.714 141.41 230.855 141.344 230.999 141.288H230.996L231.035 141.272C231.035 141.272 231.035 141.272 231.039 141.272L232.796 140.581C235.174 139.64 238.637 141.665 240.759 145.338C243.005 149.227 242.903 153.489 240.529 154.858C240.414 154.924 240.296 154.98 240.175 155.032H240.181L240.083 155.071C240.076 155.071 240.07 155.078 240.063 155.078L238.256 155.789C235.879 156.68 232.455 154.655 230.347 151.009C228.1 147.12 228.202 142.858 230.576 141.488Z" fill="#64B5FF"/>
<path d="M230.654 150.832C232.779 154.508 236.284 156.454 238.488 155.182C240.692 153.911 240.757 149.901 238.632 146.229C236.507 142.556 233.002 140.607 230.798 141.878C228.594 143.149 228.529 147.159 230.654 150.832Z" fill="#80C2FF"/>
<path d="M230.01 142.933C229.384 144.875 229.85 147.745 231.42 150.458C232.834 152.905 234.808 154.642 236.644 155.274C234.716 154.92 232.535 153.194 231.04 150.609C229.404 147.778 229.072 144.754 230.01 142.933Z" fill="#64B5FF"/>
<g style="mix-blend-mode:hard-light" opacity="0.3">
<path d="M217.703 120.403L230.689 127.895V58.6993L217.703 51.21V120.403Z" fill="#8C3BFF"/>
</g>
<path d="M222.009 128.93L185.586 107.924V38.7275L222.009 59.7376V128.93Z" fill="#E1CCFF"/>
<path d="M202.74 63.6789L187.484 54.8791V42.2363L202.74 51.0361V63.6789Z" fill="#FAF2FE"/>
<path d="M196.48 108.484L187.484 103.294V95.3301L196.48 100.52V108.484Z" fill="#FAF2FE"/>
<path d="M208.292 115.295L199.297 110.106V102.145L208.292 107.334V115.295Z" fill="#FAF2FE"/>
<path d="M220.108 122.109L211.109 116.919V108.955L220.108 114.148V122.109Z" fill="#FAF2FE"/>
<path d="M220.107 65.7523L204.852 56.9525V56.4971L220.107 65.2969V65.7523Z" fill="#FAF2FE"/>
<path d="M220.107 62.7549L204.852 53.9551V52.5791L220.107 61.3789V62.7549Z" fill="#FAF2FE"/>
<path d="M220.107 67.7376L204.852 58.9378V58.4824L220.107 67.2822V67.7376Z" fill="#FAF2FE"/>
<path d="M220.107 69.723L204.852 60.9264V60.4678L220.107 69.2676V69.723Z" fill="#FAF2FE"/>
<path d="M220.107 71.7083L204.852 62.9118V62.4531L220.107 71.2529V71.7083Z" fill="#FAF2FE"/>
<path d="M220.107 73.6976L204.852 64.8978V64.4424L220.107 73.2389V73.6976Z" fill="#FAF2FE"/>
<path d="M220.104 106.289L187.484 87.4739V87.0186L220.104 105.834V106.289Z" fill="#FAF2FE"/>
<path d="M220.104 108.278L187.484 89.4593V89.0039L220.104 107.819V108.278Z" fill="#FAF2FE"/>
<path d="M220.104 103.442L187.484 84.6267V59.3838L220.104 78.1989V103.442Z" fill="#FAF2FE"/>
<path d="M185.586 38.7274L186.868 38.2393L223.324 59.2657V128.884L222.009 128.93V59.7375L185.586 38.7274Z" fill="#9E5AFF"/>
<path d="M222.008 59.7374L223.323 59.2656V128.884L222.008 128.93V59.7374Z" fill="#AF76FF"/>
<g style="mix-blend-mode:hard-light" opacity="0.3">
<path d="M408.369 173.765L388.375 162.232V210.733L408.369 222.265V173.765Z" fill="#8C3BFF"/>
</g>
<path d="M414.115 240.675L377.695 219.665V171.164L414.115 192.171V240.675Z" fill="#E1CCFF"/>
<path d="M412.216 206.131L379.594 187.316V174.673L412.216 193.488V206.131Z" fill="#FAF2FE"/>
<path d="M412.216 213.181L379.594 194.363V189.494L412.216 208.309V213.181Z" fill="#FAF2FE"/>
<path d="M412.216 230.21L379.594 211.395V210.547L412.216 229.362V230.21Z" fill="#FAF2FE"/>
<path d="M412.216 233.657L379.594 214.842V213.993L412.216 232.812V233.657Z" fill="#FAF2FE"/>
<path d="M412.216 237.103L379.594 218.288V217.439L412.216 236.258V237.103Z" fill="#FAF2FE"/>
<path d="M389.287 212.26L379.594 206.667V196.986L389.287 202.575V212.26Z" fill="#FAF2FE"/>
<path d="M412.215 217.745L391.703 205.911V203.972L412.215 215.802V217.745Z" fill="#FAF2FE"/>
<path d="M412.215 221.614L391.703 209.784V207.841L412.215 219.671V221.614Z" fill="#FAF2FE"/>
<path d="M412.215 225.486L391.703 213.652V211.713L412.215 223.543V225.486Z" fill="#FAF2FE"/>
<path d="M377.695 171.164L378.978 170.676L415.434 191.702V240.629L414.115 240.674V192.171L377.695 171.164Z" fill="#9E5AFF"/>
<path d="M414.117 192.171L415.435 191.702V240.629L414.117 240.674V192.171Z" fill="#AF76FF"/>
<path d="M387.105 208.156C388.212 207.324 387.915 205.064 386.442 203.107C384.969 201.151 382.878 200.24 381.77 201.072C380.663 201.904 380.96 204.164 382.433 206.121C383.906 208.077 385.997 208.988 387.105 208.156Z" fill="#80C2FF"/>
<g style="mix-blend-mode:hard-light" opacity="0.3">
<path d="M232.57 164.883L268.99 185.893V165.456L232.57 144.446V164.883Z" fill="#8C3BFF"/>
</g>
<path d="M257.541 235.14L221.117 214.13V144.938L257.541 165.944V235.14Z" fill="#9E5AFF"/>
<path d="M255.348 226.344L223.312 207.866V149.056L255.348 167.533V226.344Z" fill="#FAF2FE"/>
<path d="M253.161 205.488L225.5 189.867V183.115L253.161 198.736V205.488Z" fill="#C6E4FF"/>
<path d="M253.161 194.064L225.5 178.109V177.723L253.161 193.678V194.064Z" fill="#80C2FF"/>
<path d="M253.161 195.748L225.5 179.793V179.406L253.161 195.361V195.748Z" fill="#80C2FF"/>
<path d="M253.161 209.439L225.5 193.484V193.098L253.161 209.053V209.439Z" fill="#EBDEFF"/>
<path d="M253.161 211.123L225.5 195.168V194.781L253.161 210.736V211.123Z" fill="#EBDEFF"/>
<path d="M253.161 213.976L225.5 198.021V197.635L253.161 213.59V213.976Z" fill="#EBDEFF"/>
<path d="M253.161 215.661L225.5 199.706V199.319L253.161 215.274V215.661Z" fill="#EBDEFF"/>
<path d="M253.161 191.65L225.5 175.695V154.288L253.161 170.243V191.65Z" fill="#B480FF"/>
<path d="M221.117 144.938L222.399 144.446L258.856 165.476V234.41L257.541 235.141V165.945L221.117 144.938Z" fill="#8C3BFF"/>
<path d="M257.539 165.944L258.854 165.476V234.41L257.539 235.14V165.944Z" fill="#9D58FF"/>
<path d="M310.352 245.232L314.261 243.155V212.008L310.542 209.862L310.352 245.232Z" fill="#F0F0F0"/>
<path d="M310.547 209.862L286.375 195.922L286.378 201.685L310.54 211.051L310.547 209.862Z" fill="#F4F4F4"/>
<path d="M305.5 257.255L305.454 259.234L261.938 234.09V232.153L305.5 257.255Z" fill="#E9E9E9"/>
<path d="M189.343 235.495L189.346 249.766L130.531 215.851V201.685L189.343 235.495Z" fill="#D8BCFF"/>
<path d="M130.531 201.684L162.98 182.971L221.568 216.909L189.343 235.494L130.531 201.684Z" fill="#EBDEFF"/>
<path d="M214.927 213.066L169.636 186.83C168.295 186.997 166.96 187.197 165.635 187.443C148.527 190.621 139.089 199.532 142.267 208.436L169.236 223.939C176.972 225.174 185.465 225.188 193.523 223.69C203.754 221.79 211.237 217.839 214.927 213.062V213.066Z" fill="#DAC0FF"/>
<path d="M173.225 258.998L173.232 273.269L114.414 239.354V225.188L173.225 258.998Z" fill="#D8BCFF"/>
<path d="M114.414 225.188L130.752 215.766L189.34 249.707L173.225 258.998L114.414 225.188Z" fill="#EBDEFF"/>
<path d="M189.341 235.494V249.709V249.706L173.227 258.997L173.233 273.268L189.341 264.036L189.344 264.016V264.033L221.567 245.506V216.908L189.341 235.494Z" fill="#C79FFF"/>
<path d="M404.102 377.274C404.33 366.096 386.673 356.67 364.664 356.221C342.654 355.772 324.627 364.47 324.398 375.647C324.17 386.825 341.827 396.251 363.836 396.7C385.846 397.149 403.873 388.452 404.102 377.274Z" fill="#FAFAFA"/>
<path d="M171.453 363.294C171.682 352.116 154.025 342.691 132.015 342.242C110.006 341.793 91.9782 350.49 91.7497 361.668C91.5212 372.846 109.178 382.271 131.188 382.72C153.197 383.169 171.225 374.472 171.453 363.294Z" fill="#FAFAFA"/>
<path d="M120.7 69.7797L120.438 69.321L192.33 27.8545L220.237 43.9503L219.975 44.409L192.33 28.4639L120.7 69.7797Z" fill="#64B5FF"/>
<path d="M120.7 73.9893L120.438 73.5339L192.33 32.0674L220.237 48.1632L219.975 48.6186L192.33 32.6735L120.7 73.9893Z" fill="#64B5FF"/>
<path d="M120.7 78.2025L120.438 77.7439L192.33 36.2773L220.237 52.3732L219.975 52.8318L192.33 36.8867L120.7 78.2025Z" fill="#64B5FF"/>
<path d="M156.343 203.431L163.987 199.398C168.621 198.396 172.983 195.939 173.819 197.865C174.747 200.001 173.035 202.367 171.156 203.631C168.477 205.433 166.476 206.275 164.155 206.147L164.089 207.867L159.364 209.718L155.963 208.405L155.953 207.147L156.347 203.438L156.343 203.431Z" fill="#BCBBBB"/>
<path d="M177.039 217.205L177.305 217.798L182.847 218.138L184.45 216.713C184.45 216.713 195.256 216.281 196.276 211.127C197.42 205.335 186.556 209.715 185.424 209.715C184.293 209.715 177.196 213.165 177.196 213.165L177.039 217.205Z" fill="#BCBBBB"/>
<path d="M158.147 202.481L156.347 203.431L155.953 207.14L155.963 208.398L159.364 209.711V202.458C159.364 202.458 158.836 202.458 158.144 202.478L158.147 202.481Z" fill="#21201F"/>
<path d="M180.502 211.615C178.741 212.414 177.196 213.164 177.196 213.164L177.039 217.204L177.305 217.797L182.847 218.137V211.742L180.499 211.611L180.502 211.615Z" fill="#21201F"/>
<path d="M163.418 61.0616V61.0648C167.039 62.8766 170.115 61.1107 170.115 61.1107C169.921 59.3612 170.43 57.3824 172.017 57.3071C173.283 57.2481 173.712 58.5651 173.712 58.5651C174.971 57.5986 175.057 56.5798 175.26 55.3643C174.962 54.8205 174.106 54.175 172.4 54.1488C172.4 54.1488 173.551 53.5362 175.237 54.0997C177.201 52.881 178.172 51.9014 178.644 51.1675H178.654C178.654 51.1675 178.834 50.889 179.061 50.4238C179.323 53.3822 179.92 63.2992 176.359 64.9537C175.427 65.3861 174.473 65.3435 173.542 64.993C173.174 66.4443 172.771 68.315 172.643 69.9859L161.234 66.0217C161.234 66.0217 162.858 63.0764 163.418 61.055V61.0616Z" fill="#B5DBFF"/>
<path d="M172.019 57.3104C172.455 57.2907 172.783 57.4381 173.039 57.6314C172.993 57.6314 171.458 57.5921 171.18 58.8338C170.901 60.0951 172.098 60.5996 171.977 61.3826C171.855 62.1689 170.655 62.3229 170.117 61.1107C169.924 59.3612 170.432 57.3824 172.019 57.3104Z" fill="#9DD0FF"/>
<path d="M179.898 47.7146C179.868 47.0201 179.567 46.4926 179.252 46.1159C179.252 46.1126 179.252 46.1093 179.249 46.106H179.272C179.272 46.106 178.911 44.409 176.314 43.9634C175.399 43.8062 174.595 44.0289 173.933 44.3795C172.565 43.7374 171.309 44.1338 170.562 44.5138C170.404 44.4712 170.26 44.4221 170.08 44.3926C168.214 44.0715 166.8 45.3132 166.148 46.0405C165.177 46.3354 164.059 46.8923 163.193 47.9472C161.737 49.7229 161.167 52.5404 161.973 54.4668C161.895 54.588 161.819 54.7813 161.744 55.0631C161.288 56.8322 162.013 58.0379 162.731 58.7488C163.059 60.1706 163.423 61.0683 163.423 61.0683C167.043 62.88 170.119 61.1142 170.119 61.1142C169.926 59.3647 170.434 57.3859 172.021 57.3105C173.287 57.2516 173.716 58.5686 173.716 58.5686C173.943 58.395 174.123 58.218 174.281 58.0379V58.0444C174.281 58.0444 176.251 56.2523 175.241 54.1064C175.241 54.1064 178.048 54.3915 178.435 51.4724C178.514 51.3676 178.586 51.2693 178.645 51.1743C178.649 51.1743 178.655 51.1743 178.655 51.1743C178.655 51.1743 179.498 50.2569 179.629 48.6418C179.796 48.4387 179.914 48.1536 179.895 47.7146H179.898Z" fill="#BCBBBB"/>
<path d="M161.965 54.4633C161.887 54.5845 161.811 54.7778 161.736 55.0596C161.28 56.8287 162.005 58.0343 162.723 58.7452C163.051 60.1671 163.415 61.0648 163.415 61.0648C167.035 62.8765 170.111 61.1106 170.111 61.1106C169.918 59.3612 170.426 57.3824 172.013 57.307C172.21 57.2972 172.381 57.3299 172.538 57.3758C173.269 54.8171 171.8 53.2511 171.8 53.2511C171.8 53.2511 168.593 53.7786 165.956 52.242C163.32 50.7055 163.189 47.9404 163.189 47.9404C161.733 49.7161 161.162 52.5336 161.969 54.46L161.965 54.4633Z" fill="#21201F"/>
<path d="M170.115 61.1113C170.115 61.1113 167.039 62.8772 163.418 61.0654C162.854 63.0868 161.234 66.0288 161.234 66.0288L168.403 68.5187L169.646 63.6929C171.623 64.6922 173.542 65.0001 173.542 65.0001C170.78 63.421 170.115 61.1113 170.115 61.1113Z" fill="#9DD0FF"/>
<path d="M179.898 47.7141C179.869 47.0195 179.567 46.4921 179.252 46.1153C179.252 46.112 179.252 46.1087 179.249 46.1055C179.249 46.1055 179.6 47.6092 178.727 48.4807C178.727 48.4807 178.481 50.8002 176.212 51.0459C176.212 51.0459 174.146 52.9527 171.805 53.2541C171.805 53.2541 173.162 54.5908 172.546 57.3722C173.408 57.6278 173.717 58.5648 173.717 58.5648C173.943 58.3911 174.123 58.2142 174.281 58.034V58.0406C174.281 58.0406 176.251 56.2485 175.241 54.1026C175.241 54.1026 178.049 54.3876 178.435 51.4686C178.514 51.3637 178.586 51.2654 178.645 51.1704C178.649 51.1704 178.655 51.1704 178.655 51.1704C178.655 51.1704 179.498 50.2531 179.629 48.638C179.796 48.4348 179.914 48.1498 179.895 47.7108L179.898 47.7141Z" fill="#66B6FF"/>
<path d="M219.022 70.2544C204.678 75.5716 194.348 79.6406 194.348 79.6406C189.439 78.0779 184.871 76.5872 181.5 75.4766C184.182 70.5886 185.074 66.8275 185.074 66.8275L181.992 64.5342C179.096 67.6269 176.565 70.4084 174.443 72.777C174.01 72.5543 173.574 72.338 173.138 72.1251H173.148L172.649 69.989C172.649 69.989 167.848 66.2673 161.24 66.0248C161.24 66.0248 159.715 66.8406 158.742 68.233L158.778 68.2428C157.331 68.3411 155.977 68.6589 154.764 69.2781C149.946 71.7287 149.317 78.7921 151.402 89.3709C153.288 98.9307 153.222 106.59 153.442 114.981C153.442 114.981 153.593 124.229 153.206 127.152C153.206 127.152 162.267 133.141 173.039 133.141C173.039 133.141 182.349 133.173 188.049 126.958C188.049 126.958 187.823 125.533 187.504 123.374C187.35 122.349 185.72 109.342 185.72 109.342C185.714 109.261 185.704 109.179 185.698 109.097C185.583 107.773 185.452 106.364 185.314 104.939C185.196 101.401 184.894 95.9068 184.133 89.8656C184.123 89.0039 184.087 88.0637 184.005 87.0841C192.043 88.5485 196.106 87.664 196.106 87.664C209.902 83.8243 221.127 73.9466 221.127 73.9466L219.025 70.2511L219.022 70.2544Z" fill="#91CAFF"/>
<path d="M175.781 74.0156C178.172 75.3064 189.325 81.1511 194.431 80.8005C200.16 80.4041 219.452 71.067 219.475 71.0572L219.019 70.2578C204.675 75.575 194.345 79.6441 194.345 79.6441L175.798 73.914L175.781 74.0189V74.0156Z" fill="#9FD1FF"/>
<path d="M154.859 128.131C157.952 129.828 165.015 133.144 173.033 133.144C173.033 133.144 181.425 133.17 187.154 127.85C188.049 136.004 188.853 148.303 187.813 161.807C185.97 185.743 185.734 211.448 185.734 211.448L177.215 213.263C177.215 213.263 170.869 188.917 175.476 161.912C175.476 161.912 172.866 154.793 170.213 146.17C170.03 149.043 169.652 154.066 168.947 159.93C167.786 169.585 165.314 202.54 165.314 202.54L156.299 204.057C153.846 183.649 156.893 159.252 156.893 159.252C157.047 157.718 156.381 140.519 155 129.317C154.951 128.908 154.909 128.525 154.863 128.131H154.859Z" fill="#75BDFF"/>
<path d="M154.759 69.2845C155.976 68.6653 157.33 68.3475 158.773 68.2492L158.737 68.2394C159.711 66.8437 161.236 66.0312 161.236 66.0312C161.531 66.0411 161.82 66.0673 162.105 66.0902C162 66.1525 160.993 66.8175 161.236 69.5531C161.236 69.5531 156.202 74.6869 157.671 86.0356C159.14 97.3809 163.095 122.778 160.773 130.814C156.189 129.134 153.198 127.158 153.198 127.158C153.588 124.236 153.434 114.987 153.434 114.987C153.215 106.597 153.277 98.9371 151.395 89.3773C149.309 78.7985 149.939 71.7383 154.756 69.2845H154.759Z" fill="#86C5FF"/>
<path d="M154.859 128.132C154.905 128.525 154.948 128.908 154.997 129.318C156.381 140.519 157.043 157.716 156.889 159.252C156.889 159.252 153.843 183.65 156.296 204.057L159.231 203.562C156.984 189.305 160.775 158.957 160.775 158.957L162.107 140.742C163.658 142.147 167.541 143.946 167.541 143.946C162.795 139.602 160.775 130.815 160.775 130.815C158.234 129.881 156.181 128.862 154.859 128.135V128.132Z" fill="#6AB8FF"/>
<path d="M170.214 146.17C172.867 154.793 175.478 161.912 175.478 161.912C170.87 188.917 177.216 213.263 177.216 213.263L181.754 212.296C177.947 196.643 179.668 161.85 179.668 161.85C178.747 158.03 170.211 146.17 170.211 146.17H170.214Z" fill="#6AB8FF"/>
<path d="M176.589 85.4297C176.589 85.4297 180.761 90.2981 184.187 90.3898C184.168 90.2162 184.148 90.0458 184.125 89.8689C184.115 89.0073 184.079 88.067 183.994 87.0907C183.958 87.0841 178.514 85.9539 176.586 85.4297H176.589Z" fill="#86C5FF"/>
<path d="M176.586 85.4297C176.586 85.4297 178.983 89.3349 181.748 91.317C181.748 91.317 183.217 97.4336 183.154 105.405C183.099 112.314 181.548 124.341 182.515 130.929C184.45 130.025 186.394 128.754 188.037 126.962C188.037 126.962 187.811 125.537 187.493 123.378C187.339 122.352 185.709 109.346 185.709 109.346C185.702 109.264 185.693 109.182 185.686 109.1C185.571 107.776 185.44 106.368 185.302 104.943C185.188 101.509 184.899 96.228 184.187 90.3931C184.187 90.3931 181.266 90.6388 176.589 85.4297H176.586Z" fill="#9FD1FF"/>
<path d="M169.674 68.2266L169.398 70.3692C169.398 70.3692 171.901 71.5126 173.134 72.1285L172.642 69.9924C172.642 69.9924 171.146 68.8851 169.671 68.2266H169.674Z" fill="#9FD1FF"/>
<path d="M185.592 160.503C185.027 169.939 183.726 200.056 184.349 211.743L185.736 211.448C185.736 211.448 185.969 185.746 187.815 161.807C188.854 148.303 188.051 136.004 187.156 127.85C186.067 128.859 184.883 129.678 183.68 130.34C183.975 132.672 186.185 150.616 185.592 160.503Z" fill="#85C5FF"/>
<path d="M163.352 202.868L165.309 202.54C165.309 202.54 167.785 169.582 168.943 159.931C169.648 154.066 170.025 149.044 170.209 146.171C170.209 146.171 167.405 143.995 166.523 142.904C166.523 142.904 167.654 145.948 168.667 147.396C168.667 147.396 167.411 157.578 167.083 160.363C166.811 162.676 163.479 189.102 163.352 202.871V202.868Z" fill="#85C5FF"/>
<path d="M175.841 73.41C179.074 70.3992 182.232 67.2901 183.416 65.5996L181.99 64.5381C181.99 64.5381 178.314 68.476 174.438 72.7744C174.831 72.9611 175.303 73.1774 175.844 73.41H175.841Z" fill="#9FD1FF"/>
<path d="M219.219 70.6048L220.593 68.4229C220.593 68.4229 222.009 66.3818 222.009 66.5129V68.6522L223.328 67.4662L223.725 68.816L223.856 69.9594L223.639 72.2888C223.639 72.2888 222.669 73.3961 221.022 73.7598L219.219 70.6016V70.6048Z" fill="#B5DBFF"/>
<path d="M182.32 64.7836L183.422 62.1725L185.587 60.6523V65.7533C185.587 65.7533 185.193 66.4446 184.852 66.6674L182.324 64.7869L182.32 64.7836Z" fill="#B5DBFF"/>
<path d="M183.427 62.1728C183.427 62.1728 186.106 61.5733 186.194 61.6388C186.283 61.7043 185.778 62.7789 184.811 63.1983C184.811 63.1983 185.148 65.1279 183.63 65.7537L182.328 64.7839C182.328 64.7839 182.791 63.2114 183.43 62.1728H183.427Z" fill="#B5DBFF"/>
<path d="M184.81 63.1979C184.81 63.1979 185.148 65.1275 183.63 65.7533L183.164 65.406L183.882 65.94C184.909 65.786 185.594 64.5345 185.594 64.5345V62.6475L185.584 62.654C185.374 62.867 185.122 63.0668 184.814 63.1979H184.81Z" fill="#9DD0FF"/>
<path d="M222.934 70.1331L223.725 68.816L223.328 67.4662L222.009 68.6522L221.537 68.9471L222.009 67.4662V66.5129C222.009 66.3818 220.593 68.4229 220.593 68.4229L219.219 70.6048L220.114 72.1708L222.934 70.1363V70.1331Z" fill="#9DD0FF"/>
<path d="M80.4005 314.962L32.8438 287.534L85.303 257.455L132.558 284.595L80.4005 314.962Z" fill="#EBDEFF"/>
<path d="M32.8438 287.533L80.4005 314.962L132.558 284.595L132.463 288.294L80.2496 318.746L32.8438 291.055V287.533Z" fill="#C9A3FF"/>
<path d="M29.27 310.555L16.1953 303.013L30.6178 294.744L43.6104 302.204L29.27 310.555Z" fill="#EBDEFF"/>
<path d="M16.1953 303.013L29.27 310.555L43.6104 302.204L43.5842 305.664L29.2306 314.038L16.1953 306.424V303.013Z" fill="#C9A3FF"/>
<path d="M47.6997 321.792L34.625 314.251L49.0475 305.981L62.0401 313.441L47.6997 321.792Z" fill="#EBDEFF"/>
<path d="M34.625 314.251L47.6997 321.792L62.0401 313.441L62.0139 316.901L47.657 325.272L34.625 317.661V314.251Z" fill="#C9A3FF"/>
<path d="M45.6484 283.461L83.3672 261.53L118.328 281.495L81.0618 303.167L45.6484 283.461Z" fill="#B480FF"/>
<path d="M45.6484 283.497V287.117L81.0618 307.541V303.203L45.6484 283.497Z" fill="#984FFF"/>
<path d="M81.0625 303.203L118.329 281.531V286.318L81.0625 307.541V303.203Z" fill="#9C56FF"/>
<path d="M111.406 280.621L78.9373 299.006L52.5781 284.08L85.0467 265.694L111.406 280.621Z" fill="#EBDEFF"/>
<path d="M102.332 278.268L91.2115 284.568L90.3359 284.07L101.456 277.773L102.332 278.268Z" fill="#FAF2FE"/>
<path d="M97.7221 275.661L86.6019 281.958L75.5703 275.713L86.6905 269.413L97.7221 275.661Z" fill="#FAF2FE"/>
<path d="M105.449 280.034L94.3287 286.331L93.4531 285.836L104.573 279.539L105.449 280.034Z" fill="#FAF2FE"/>
<path d="M75.2484 284.63C76.1764 283.402 75.7141 281.895 73.8809 280.853C71.5001 279.507 67.7256 279.461 65.4465 280.751C63.1674 282.042 63.2494 284.182 65.6269 285.528C67.4633 286.567 70.1261 286.829 72.297 286.305C69.8178 288.513 70.3786 291.54 73.9203 293.542L77.7571 295.714L91.8713 287.723L88.0345 285.551C84.4961 283.546 79.1475 283.228 75.2517 284.634L75.2484 284.63Z" fill="#B480FF"/>
<path d="M45.6484 274.612L83.3672 252.682L118.328 272.647L81.0618 294.319L45.6484 274.612Z" fill="#B480FF"/>
<path d="M45.6484 274.648V278.265L81.0618 298.692V294.355L45.6484 274.648Z" fill="#984FFF"/>
<path d="M81.0625 294.354L118.329 272.683V277.466L81.0625 298.692V294.354Z" fill="#9C56FF"/>
<path d="M111.406 271.772L78.9373 290.155L52.5781 275.228L85.0467 256.846L111.406 271.772Z" fill="#EBDEFF"/>
<path d="M102.332 269.42L91.2115 275.716L90.3359 275.222L101.456 268.925L102.332 269.42Z" fill="#FAF2FE"/>
<path d="M97.7221 266.812L86.6019 273.109L75.5703 266.861L86.6905 260.564L97.7221 266.812Z" fill="#FAF2FE"/>
<path d="M105.449 271.182L94.3287 277.482L93.4531 276.984L104.573 270.688L105.449 271.182Z" fill="#FAF2FE"/>
<path d="M75.2484 275.782C76.1764 274.553 75.7141 273.046 73.8809 272.004C71.5001 270.658 67.7256 270.612 65.4465 271.903C63.1674 273.194 63.2494 275.333 65.6269 276.68C67.4633 277.718 70.1261 277.98 72.297 277.456C69.8178 279.664 70.3786 282.691 73.9203 284.693L77.7571 286.865L91.8713 278.875L88.0345 276.702C84.4961 274.697 79.1475 274.38 75.2517 275.785L75.2484 275.782Z" fill="#B480FF"/>
<path d="M45.6484 265.76L83.3672 243.829L118.328 263.794L81.0618 285.466L45.6484 265.76Z" fill="#B480FF"/>
<path d="M45.6484 265.796V269.416L81.0618 289.84V285.502L45.6484 265.796Z" fill="#984FFF"/>
<path d="M81.0625 285.502L118.329 263.83V268.617L81.0625 289.84V285.502Z" fill="#9C56FF"/>
<path d="M111.406 262.919L78.9373 281.302L52.5781 266.379L85.0467 247.993L111.406 262.919Z" fill="#EBDEFF"/>
<path d="M102.332 260.567L91.2115 266.867L90.3359 266.369L101.456 260.072L102.332 260.567Z" fill="#FAF2FE"/>
<path d="M97.7221 257.96L86.6019 264.256L75.5703 258.012L86.6905 251.712L97.7221 257.96Z" fill="#FAF2FE"/>
<path d="M105.449 262.333L94.3287 268.629L93.4531 268.135L104.573 261.838L105.449 262.333Z" fill="#FAF2FE"/>
<path d="M75.2484 266.929C76.1764 265.701 75.7141 264.194 73.8809 263.152C71.5001 261.805 67.7256 261.76 65.4465 263.05C63.1674 264.341 63.2494 266.48 65.6269 267.827C67.4633 268.866 70.1261 269.128 72.297 268.603C69.8178 270.812 70.3786 273.839 73.9203 275.841L77.7571 278.013L91.8713 270.022L88.0345 267.85C84.4961 265.845 79.1475 265.527 75.2517 266.933L75.2484 266.929Z" fill="#B480FF"/>
<path d="M45.6484 256.911L83.3672 234.98L118.328 254.942L81.0618 276.617L45.6484 256.911Z" fill="#B480FF"/>
<path d="M45.6484 256.947V260.564L81.0618 280.991V276.653L45.6484 256.947Z" fill="#984FFF"/>
<path d="M81.0625 276.654L118.329 254.979V259.765L81.0625 280.991V276.654Z" fill="#9C56FF"/>
<path d="M111.406 254.067L78.9373 272.453L52.5781 257.527L85.0467 239.145L111.406 254.067Z" fill="#EBDEFF"/>
<path d="M102.332 251.718L91.2115 258.015L90.3359 257.52L101.456 251.224L102.332 251.718Z" fill="#FAF2FE"/>
<path d="M97.7221 249.111L86.6019 255.408L75.5703 249.16L86.6905 242.863L97.7221 249.111Z" fill="#FAF2FE"/>
<path d="M105.449 253.481L94.3287 259.778L93.4531 259.283L104.573 252.986L105.449 253.481Z" fill="#FAF2FE"/>
<path d="M75.2484 258.081C76.1764 256.852 75.7141 255.345 73.8809 254.303C71.5001 252.957 67.7256 252.911 65.4465 254.202C63.1674 255.492 63.2494 257.632 65.6269 258.978C67.4633 260.017 70.1261 260.279 72.297 259.755C69.8178 261.963 70.3786 264.99 73.9203 266.992L77.7571 269.164L91.8713 261.173L88.0345 259.001C84.4961 256.996 79.1475 256.678 75.2517 258.084L75.2484 258.081Z" fill="#B480FF"/>
<path d="M372.535 306.398L413.074 283.016L368.354 257.373L328.07 280.509L372.535 306.398Z" fill="#B480FF"/>
<path d="M372.273 303.187L407.509 282.868L368.643 260.58L333.633 280.689L372.273 303.187Z" fill="#FAFAFA"/>
<path d="M413.074 283.016L372.535 306.398L328.07 280.51L328.149 283.661L372.663 309.625L413.074 286.017V283.016Z" fill="#9C56FF"/>
<path d="M333.633 280.689L343.877 274.805L361.428 273.154L362.927 281.885H385.699L387.915 294.168L372.273 303.187L333.633 280.689Z" fill="#C6E4FF"/>
<path d="M413.07 283.016L372.531 306.398L372.659 309.625L413.07 286.017V283.016Z" fill="#AF76FF"/>
<path d="M252.991 335.7L333.685 289.162L244.675 238.122L164.492 284.172L252.991 335.7Z" fill="#F4F4F4"/>
<path d="M333.685 289.161L252.991 335.7L164.492 284.172L164.653 290.449L253.25 342.124L333.685 295.134V289.161Z" fill="#ECECEC"/>
<path d="M252.991 335.7L253.25 342.124L164.653 290.449L164.492 284.172L252.991 335.7Z" fill="#E9E9E9"/>
<path d="M32.7891 177.758L123.423 125.48V45.1289L32.7891 97.4068V177.758Z" fill="#B480FF"/>
<path d="M38.3594 128.682L118.417 82.504V54.9121L38.3594 101.09V128.682Z" fill="#E1CCFF"/>
<path d="M90.7969 137.41L118.419 121.478V93.8857L90.7969 109.818V137.41Z" fill="#FAF2FE"/>
<path d="M38.3594 167.655L87.8345 139.116V111.524L38.3594 140.063V167.655Z" fill="#FAF2FE"/>
<path d="M38.3594 134.739L118.417 88.5615V86.8906L38.3594 133.068V134.739Z" fill="#E1CCFF"/>
<path d="M40.6719 142.006L85.5232 116.134V115.659L40.6719 141.531V142.006Z" fill="#E1CCFF"/>
<path d="M40.6719 145.977L85.5232 120.105V119.63L40.6719 145.502V145.977Z" fill="#E1CCFF"/>
<path d="M40.6719 149.944L85.5232 124.072V123.597L40.6719 149.469V149.944Z" fill="#E1CCFF"/>
<path d="M40.6719 153.911L85.5232 128.04V127.564L40.6719 153.436V153.911Z" fill="#E1CCFF"/>
<path d="M40.6719 157.882L85.5232 132.01V131.535L40.6719 157.407V157.882Z" fill="#E1CCFF"/>
<path d="M40.6719 161.85L85.5232 135.978V135.503L40.6719 161.375V161.85Z" fill="#E1CCFF"/>
<path d="M32.7891 97.4072L123.423 45.1293V40.4346L32.7891 92.7125V97.4072Z" fill="#9E5AFF"/>
<path d="M110.22 119.868C114.34 114.397 115.167 108.073 112.068 105.745C108.97 103.416 103.118 105.964 98.9983 111.436C94.8787 116.907 94.0512 123.231 97.15 125.559C100.249 127.888 106.101 125.34 110.22 119.868Z" fill="#80C2FF"/>
<path d="M107.955 118.499C110.945 114.527 111.869 110.179 110.018 108.788C108.167 107.397 104.242 109.489 101.251 113.461C98.2603 117.433 97.3366 121.781 99.1878 123.172C101.039 124.563 104.964 122.471 107.955 118.499Z" fill="#FAF2FE"/>
<path d="M402.871 220.152L407.177 216.342C407.141 216.148 404.642 217.082 404.642 217.082C404.642 217.082 407.193 215.002 407.209 214.838C407.226 214.677 404.186 216.004 403.924 216.175C403.664 216.345 406.439 213.96 406.468 213.839C406.498 213.718 403.235 215.162 403.235 215.162C403.235 215.162 404.465 211.883 404.412 211.719C404.36 211.555 402.776 213.921 402.422 214.392C402.422 214.392 400.566 217.046 400.146 217.849C399.562 218.959 401.94 220.663 402.871 220.152Z" fill="#B6DCFF"/>
<path d="M403.235 215.162C403.235 215.162 404.464 211.883 404.412 211.722C404.359 211.558 402.776 213.924 402.421 214.395C402.421 214.395 400.565 217.049 400.146 217.852C399.798 218.513 400.503 219.385 401.329 219.873C401.516 219.893 401.641 219.906 401.641 219.906L403.238 216.286C402.989 215.804 403.238 215.165 403.238 215.165L403.235 215.162Z" fill="#9DD0FF"/>
<path d="M352.832 231.986V231.989C356.453 233.801 359.529 232.035 359.529 232.035C359.335 230.285 359.844 228.307 361.431 228.231C362.697 228.172 363.126 229.489 363.126 229.489C364.385 228.523 364.471 227.504 364.674 226.288C364.376 225.745 363.52 225.099 361.815 225.073C361.815 225.073 362.966 224.46 364.651 225.024C366.615 223.805 367.586 222.826 368.058 222.092H368.068C368.068 222.092 368.137 221.358 368.363 220.893C368.626 223.851 369.334 234.223 365.773 235.878C364.841 236.31 363.887 236.268 362.956 235.917C362.588 237.368 362.185 239.239 362.057 240.91L350.648 236.946C350.648 236.946 352.272 234.001 352.832 231.979V231.986Z" fill="#B5DBFF"/>
<path d="M352.207 222.531C352.207 222.531 352.997 219.432 355.421 218.003C357.401 216.837 362.914 216.699 362.914 216.699C370.473 217.092 368.066 222.098 368.066 222.098C368.066 222.098 368.059 222.098 368.056 222.098C367.584 222.832 366.613 223.812 364.649 225.031C365.078 227.17 364.383 228.526 363.124 229.493C363.124 229.493 362.694 228.176 361.428 228.235C359.844 228.307 359.336 230.289 359.526 232.038C359.526 232.038 356.45 233.804 352.83 231.992C352.83 231.992 351.545 227.796 352.204 222.534L352.207 222.531Z" fill="#BCBBBB"/>
<path d="M361.433 228.234C361.869 228.215 362.197 228.362 362.453 228.555C362.407 228.555 360.872 228.516 360.594 229.758C360.315 231.019 361.512 231.523 361.391 232.306C361.269 233.093 360.069 233.247 359.531 232.035C359.338 230.285 359.846 228.306 361.433 228.234Z" fill="#9DD0FF"/>
<path d="M363.437 224.995C363.899 224.71 364.273 223.94 364.273 223.94C359.154 227.625 354.628 223.743 354.628 223.743C353.523 223.809 352.743 222.976 352.284 222.285C352.234 222.439 352.211 222.531 352.211 222.531C351.552 227.792 352.838 231.989 352.838 231.989C356.458 233.801 359.534 232.035 359.534 232.035C359.341 230.286 359.849 228.307 361.436 228.231C362.666 228.176 363.102 229.404 363.128 229.476C364.361 227.163 363.44 224.995 363.44 224.995H363.437Z" fill="#21201F"/>
<path d="M359.939 231.646L359.509 231.698C359.516 231.813 359.516 231.924 359.529 232.035C359.529 232.035 356.453 233.801 352.832 231.99V231.986C352.272 234.008 350.648 236.953 350.648 236.953L356.509 238.991L357.522 235.95L359.624 234.633C360.89 235.423 362.956 235.927 362.956 235.927C361.139 234.719 359.939 231.649 359.939 231.649V231.646Z" fill="#9DD0FF"/>
<path d="M366.923 217.715C367.106 219.114 367.031 221.666 364.617 223.507C364.617 223.507 367.585 222.449 368.31 219.494C368.133 218.862 367.729 218.223 366.919 217.715H366.923Z" fill="#66B6FF"/>
<path d="M399.9 218.003C390.938 231.691 382.985 241.198 382.985 241.198C373.164 243.324 365.231 243.216 362.663 243.108C362.624 243.089 362.588 243.069 362.552 243.053H362.562L362.063 240.916C362.063 240.916 357.262 237.195 350.654 236.952C350.654 236.952 349.13 237.768 348.156 239.16L348.192 239.17C346.745 239.269 345.391 239.586 344.178 240.206C339.36 242.656 338.731 249.72 340.816 260.298C342.702 269.858 342.636 277.518 342.856 285.908C342.856 285.908 343.007 295.157 342.62 298.079C342.62 298.079 351.592 301.735 362.365 301.735C362.365 301.735 370.934 302.623 377.463 297.886C377.463 297.886 377.237 296.461 376.918 294.302C376.764 293.276 375.135 280.27 375.135 280.27C375.128 280.188 375.118 280.106 375.112 280.024C374.997 278.701 374.866 277.292 374.728 275.867C374.61 272.328 374.308 266.834 373.547 260.793C373.537 259.889 373.501 258.899 373.406 257.864C373.298 256.482 373.023 255.184 372.675 254.024C384.897 251.407 388.855 247.328 388.855 247.328C397.66 236.782 403.504 219.854 403.504 219.854L399.903 218.003H399.9Z" fill="#B582FF"/>
<path d="M345.757 374.355L353.402 370.322C358.035 369.32 362.397 366.863 363.233 368.789C364.161 370.925 362.449 373.29 360.57 374.555C357.891 376.357 355.891 377.199 353.569 377.071L353.503 378.791L348.778 380.642L345.377 379.328L345.367 378.07L345.761 374.362L345.757 374.355Z" fill="#BCBBBB"/>
<path d="M366.453 388.127L366.719 388.72L372.261 389.061L373.864 387.636C373.864 387.636 384.67 387.204 385.69 382.05C386.834 376.258 375.97 380.638 374.838 380.638C373.707 380.638 366.611 384.088 366.611 384.088L366.453 388.131V388.127Z" fill="#BCBBBB"/>
<path d="M344.031 298.472C347.124 300.169 355.099 301.414 362.353 301.705C362.353 301.705 370.754 302.298 376.539 298.472C377.434 306.626 378.261 319.197 377.221 332.701C375.378 356.637 375.142 382.342 375.142 382.342L366.622 384.157C366.622 384.157 360.277 359.811 364.884 332.806C364.884 332.806 362.274 325.687 359.621 317.064C359.438 319.937 359.06 324.96 358.355 330.824C357.194 340.479 354.722 373.434 354.722 373.434L345.707 374.951C343.254 354.543 346.301 330.146 346.301 330.146C346.455 328.612 345.789 311.413 344.408 300.211C344.359 299.802 344.08 298.865 344.035 298.472H344.031Z" fill="#A7D5FF"/>
<path d="M368.094 254.869C368.094 254.869 370.527 256.802 373.298 256.901C373.16 255.878 372.934 254.915 372.672 254.027C372.639 254.037 369.343 254.83 368.097 254.869H368.094Z" fill="#AD74FF"/>
<path d="M344.406 300.242C345.79 311.443 346.453 328.64 346.298 330.176C346.298 330.176 343.252 354.574 345.705 374.981L350.135 374.237C349.122 363.144 350.798 334.091 351.513 329.753C352.273 325.144 351.513 311.318 351.513 311.318C354.251 313.032 356.287 313.556 356.287 313.556C349.961 308.553 348.771 301.192 348.771 301.192L348.807 300.058C346.659 299.396 345.393 299.134 344.141 298.64C344.187 299.033 344.354 299.835 344.403 300.242H344.406Z" fill="#9ACFFF"/>
<path d="M366.626 384.184L370.578 383.342C366.174 366.155 369.738 333.423 369.607 332.646C369.476 331.857 368 330.101 365.101 324.832C362.203 319.564 359.625 317.091 359.625 317.091C362.278 325.714 364.888 332.833 364.888 332.833C360.281 359.838 366.626 384.184 366.626 384.184Z" fill="#9ACFFF"/>
<path d="M375.327 244.55C380.741 244.222 383.378 242.977 384.234 242.283L400.732 218.435L399.892 218.003C390.93 231.691 382.978 241.198 382.978 241.198C370.969 243.8 361.773 243.059 361.773 243.059C361.773 243.059 369.906 244.881 375.324 244.55H375.327Z" fill="#C297FF"/>
<path d="M369.166 280.06C359.991 282.255 353.101 280.181 350.094 278.93C349.139 270.795 347.788 262.405 347.083 256.953C346.145 249.7 347.864 244.989 349.225 242.531C354.127 243.314 360.781 242.925 360.781 242.925C355.593 242.011 350.648 240.474 350.648 240.474C350.408 237.738 351.412 237.073 351.517 237.011C351.228 236.988 350.943 236.962 350.648 236.952C350.648 236.952 349.123 237.768 348.149 239.16L348.185 239.17C346.739 239.268 345.385 239.586 344.171 240.205C342.332 241.142 341.102 242.754 340.403 244.975C336.488 255.79 336.681 261.369 336.681 261.369C337.904 267.702 340.344 273.711 342.666 278.422C342.741 280.899 342.784 283.369 342.85 285.905C342.85 285.905 343 295.153 342.614 298.076C342.614 298.076 345.601 299.327 350.494 300.389C351.327 297.509 351.31 292.568 350.884 286.897L351.868 286.452C351.491 284.978 351.117 283.549 350.746 282.167C360.158 284.778 369.169 280.06 369.169 280.06H369.166Z" fill="#AD74FF"/>
<path d="M358.141 238.712C358.141 238.712 358.564 241.585 358.96 242.581C358.96 242.581 360.587 243.131 362.555 243.053L362.056 240.913C362.056 240.913 360.298 239.521 358.141 238.712Z" fill="#C297FF"/>
<path d="M376.915 294.301C376.761 293.276 375.131 280.269 375.131 280.269C375.125 280.187 375.115 280.105 375.108 280.024C374.993 278.7 374.862 277.291 374.725 275.866C374.607 272.328 374.305 266.834 373.544 260.792C373.534 259.888 373.498 258.899 373.403 257.864C373.377 257.536 373.344 257.215 373.298 256.9C373.298 256.9 371.609 257.153 368.094 254.869C368.094 254.869 369.383 257.346 371.793 262.25C371.793 262.25 373.242 272.898 373.295 276.256C373.35 279.614 372.255 295.425 373.295 300.133C374.705 299.579 376.122 298.848 377.453 297.885C377.453 297.885 377.227 296.46 376.909 294.301H376.915Z" fill="#C297FF"/>
<path d="M376.586 298.472C375.517 299.153 374.405 299.697 373.297 300.133C373.297 300.133 376.416 317.277 376.114 325.189C375.832 332.537 373.307 371.861 373.867 382.617L375.15 382.345C375.15 382.345 375.386 356.254 377.229 332.318C378.252 319.023 377.468 306.639 376.589 298.475L376.586 298.472Z" fill="#B6DCFF"/>
<path d="M358.359 330.825C359.061 324.977 359.438 319.971 359.621 317.091C359.602 317.075 356.778 314.647 356.293 313.553C356.293 313.553 357.034 316.347 357.959 318.847C357.959 318.847 357.572 325.439 357.326 327.568C357.08 329.698 353.401 370.214 353.486 373.641L354.725 373.431C354.725 373.431 357.201 340.473 358.359 330.821V330.825Z" fill="#B6DCFF"/>
<path d="M348.778 380.638L349.309 374.371L345.708 374.977L345.367 378.063L345.377 379.321L348.778 380.638Z" fill="#1E1C1B"/>
<path d="M373.868 387.637L372.658 386.375L372.487 382.909L366.627 384.184L366.453 388.128L366.722 388.721L372.264 389.062L373.868 387.637Z" fill="#1E1C1B"/>
<path d="M384.701 379.42C384.74 380.203 384.487 381.396 383.1 382.759C380.795 385.026 372.656 386.376 372.656 386.376L372.039 387.031L372.262 389.059L373.866 387.634C373.866 387.634 384.671 387.201 385.691 382.048C385.97 380.636 385.533 379.833 384.701 379.417V379.42Z" fill="#6FBAFF"/>
<path d="M353.568 377.068C355.89 377.196 357.887 376.354 360.569 374.552C362.396 373.323 364.058 371.056 363.298 368.966C361.258 375.44 351.869 376.013 351.869 376.013L352.564 377.12L348.967 378.349L348.773 380.636L353.499 378.785L353.565 377.065L353.568 377.068Z" fill="#6FBAFF"/>
<path d="M112.282 248.098L90.3438 210.166L125.501 189.795L147.67 227.412L112.282 248.098Z" fill="#FAFAFA"/>
<path d="M125.505 189.795H124.016L89.1406 209.911L111.05 247.701L112.286 248.098L90.3474 210.166L125.505 189.795Z" fill="#F0F0F0"/>
<path d="M89.1406 209.91L90.3474 210.166L112.286 248.097L111.05 247.701L89.1406 209.91Z" fill="#F6F6F6"/>
<path d="M158.423 362.495L150.779 358.462C146.145 357.459 141.784 355.002 140.948 356.929C140.02 359.065 141.731 361.43 143.61 362.695C146.29 364.497 148.29 365.339 150.612 365.211L150.677 366.931L155.403 368.782L158.804 367.468L158.813 366.21L158.42 362.501L158.423 362.495Z" fill="#75BDFF"/>
<path d="M150.611 365.211L150.676 366.931L155.402 368.782L158.802 367.468L158.812 366.21L158.419 362.501L157.884 362.22L152.568 363.186L151.83 362.501C144.488 361.813 142.248 358.259 141.556 356.339C141.278 356.45 141.068 356.64 140.94 356.932C140.012 359.068 141.724 361.433 143.603 362.698C146.282 364.5 148.282 365.342 150.604 365.214L150.611 365.211Z" fill="#69B7FF"/>
<path d="M137.727 376.271L137.461 376.864L131.919 377.205L130.316 375.78C130.316 375.78 119.51 375.347 118.491 370.194C117.346 364.401 128.21 368.782 129.342 368.782C130.473 368.782 137.57 372.231 137.57 372.231L137.727 376.274V376.271Z" fill="#75BDFF"/>
<path d="M131.921 377.201L137.463 376.861L137.729 376.268L137.571 372.225C137.571 372.225 134.889 370.921 132.561 369.919L132.157 374.046L130.19 373.155C120.814 373.005 118.938 368.14 118.886 368.002C118.463 368.47 118.289 369.168 118.489 370.187C119.506 375.341 130.314 375.773 130.314 375.773L131.918 377.198L131.921 377.201Z" fill="#69B7FF"/>
<path d="M159.905 287.195C156.813 288.892 149.749 292.207 141.731 292.207C141.731 292.207 133.339 292.234 127.61 286.913C126.715 295.067 125.911 307.366 126.951 320.871C128.794 344.806 129.03 370.511 129.03 370.511L137.55 372.326C137.55 372.326 143.895 347.981 139.288 320.975C139.288 320.975 141.898 313.856 144.551 305.233C144.735 308.107 145.112 313.129 145.817 318.993C146.978 328.648 149.45 361.603 149.45 361.603L158.465 363.12C160.918 342.713 157.872 318.315 157.872 318.315C157.718 316.782 158.383 299.582 159.764 288.381C159.813 287.971 159.856 287.588 159.902 287.195H159.905Z" fill="#9ACFFF"/>
<path d="M144.676 219.955C144.676 219.955 144.03 222.546 141.728 224.217C139.426 225.888 136.576 223.601 135.806 219.896C135.032 216.194 134.595 213.671 134.54 210.392C134.461 205.566 141.675 204.478 145.22 206.454C149.12 208.626 145.837 218.349 144.676 219.955Z" fill="#B5DBFF"/>
<path d="M145.217 206.45C145.217 206.45 149.874 208.141 150.907 212.944C151.779 216.993 150.9 217.877 151.386 220.128C151.386 220.128 152.153 222.579 153.573 225.092C153.573 225.092 143.876 228.532 142.164 229.056C142.164 229.056 141.902 226.625 141.266 224.063L145.22 206.45H145.217Z" fill="#B5DBFF"/>
<path d="M144.555 305.234C147.775 300.788 150.405 293.292 150.405 293.292C150.044 297.967 147.044 304.978 147.044 304.978C147.532 306.341 149.287 310.675 150.261 318.951C151.094 326.024 153.429 362.272 153.429 362.272L149.457 361.603C149.457 361.603 146.981 328.648 145.824 318.994C145.119 313.129 144.742 308.11 144.558 305.234H144.555Z" fill="#8FCAFF"/>
<path d="M127.611 286.916C127.611 286.916 130.047 288.712 132.828 290.255C132.828 290.255 130.28 311.792 130.572 320.166C130.864 328.54 133.74 365.436 132.828 371.317L129.031 370.508C129.031 370.508 128.795 344.806 126.952 320.867C125.912 307.366 126.712 295.067 127.611 286.913V286.916Z" fill="#8FCAFF"/>
<path d="M129.05 268.413C129.057 268.331 129.067 268.249 129.073 268.167C129.188 266.843 129.319 265.435 129.457 264.009C129.575 260.471 129.877 254.977 130.638 248.936C130.647 248.032 130.683 247.042 130.779 246.007C131.179 240.873 133.897 236.889 133.897 236.889C135.107 235.238 136.76 233.728 139.029 232.519C139.888 232.06 140.758 231.618 141.63 231.192H141.62L142.118 229.056C142.118 229.056 146.919 225.334 153.527 225.092C153.527 225.092 155.052 225.908 156.026 227.3L155.99 227.31C157.436 227.408 158.791 227.726 160.004 228.345C164.821 230.796 165.451 237.859 163.365 248.438C161.48 257.998 161.545 265.657 161.325 274.048C161.325 274.048 161.175 283.296 161.562 286.219C161.562 286.219 152.501 292.207 141.728 292.207C141.728 292.207 132.418 292.24 126.719 286.025C126.719 286.025 126.945 284.6 127.263 282.441C127.417 281.416 129.047 268.409 129.047 268.409L129.05 268.413Z" fill="#E2F1FF"/>
<path d="M152.15 218.255C152.15 218.255 152.002 213.465 149.648 209.579C150.11 209.009 150.389 208.285 150.389 207.496C150.389 205.668 148.907 204.184 147.073 204.184C146.008 204.184 145.063 204.688 144.456 205.468C142.105 204.685 138.59 204.164 135.717 206.451C133.094 208.538 134.537 211.909 134.537 211.909C134.537 211.909 137.698 217.062 142.682 217.753C142.682 217.753 141.289 222.622 140.282 227.169L143.03 228.218C143.03 228.218 152.13 227.549 155.121 224.525C155.121 224.525 152.96 220.849 152.146 218.251L152.15 218.255Z" fill="#BCBBBB"/>
<path d="M141.969 243.828C141.969 243.828 134.194 246.393 133.534 247.252C133.256 247.615 131.951 248.693 130.537 249.82C129.858 255.508 129.573 260.645 129.462 264.006C129.324 265.431 129.193 266.84 129.078 268.164C129.071 268.245 129.061 268.327 129.055 268.409C129.055 268.409 127.422 281.412 127.271 282.441C126.953 284.597 126.727 286.025 126.727 286.025C129.625 289.187 133.456 290.73 136.525 291.483C139.378 281.524 135.099 257.984 135.099 257.984C142.33 252.192 141.966 243.828 141.966 243.828H141.969Z" fill="#CCE7FF"/>
<path d="M143.12 238.973H143.123C143.123 238.941 143.12 238.905 143.12 238.872C143.12 238.865 143.12 238.862 143.12 238.855C143.054 235.943 141.582 234.102 139.329 233.882C137.05 233.663 135.102 235.455 135.096 235.461C134.495 235.874 133.895 236.408 133.308 237.09C127.894 243.399 121.69 252.166 121.69 252.166C119.978 248.559 103.932 235.009 103.932 235.009L103.034 233.882L102.561 233.066C102.647 232.136 102.381 230.976 102.329 230.891C102.302 230.845 102.05 231.215 101.755 231.677L100.971 230.324C100.971 230.324 99.7379 233.23 99.587 233.843C99.5411 234.03 100.981 237.361 100.981 237.361C100.981 237.361 115.646 264.259 125.5 260.059C128.232 258.896 130.895 256.711 133.328 254.129C139.568 255.384 142.956 240.307 142.956 240.307C143.077 239.864 143.13 239.416 143.12 238.973Z" fill="#B5DBFF"/>
<path d="M142.477 241.457C140.404 245.051 137.151 250.06 133.344 254.106C133.819 254.198 134.285 254.224 134.728 254.142C136.128 253.592 139.552 248.222 142.634 241.584C142.716 241.411 142.729 241.231 142.769 241.083C142.837 240.824 142.91 240.562 142.962 240.307L142.952 240.313C142.847 240.7 142.696 241.086 142.483 241.46L142.477 241.457Z" fill="#9DD0FF"/>
<path d="M148.339 227.425C146.047 227.923 143.981 228.139 143.292 228.198C142.489 228.696 142.121 229.056 142.121 229.056L141.629 231.192C137.406 232.847 135.094 235.465 135.094 235.465C139.688 231.91 142.148 235.497 142.148 235.497C143.253 233.882 143.758 230.658 143.758 230.658C145.886 230.124 148.821 229.056 148.821 229.056L148.345 227.425H148.339Z" fill="#CCE7FF"/>
<path d="M125.503 260.059C128.045 258.978 130.521 257.002 132.813 254.653C129.963 256.694 124.844 260.262 119.292 257.454C113.711 254.627 101.758 236.742 101.758 236.742L99.587 233.843C99.5411 234.03 100.981 237.361 100.981 237.361C100.981 237.361 115.646 264.259 125.503 260.059Z" fill="#9DD0FF"/>
<path d="M140.308 217.265L139.95 216.892C136.907 215.388 134.959 212.564 134.602 212.014C134.618 212.286 134.634 212.554 134.654 212.82C134.664 212.833 137.641 217.436 140.265 218.255C140.265 218.255 140.075 217.993 140.304 217.262L140.308 217.265Z" fill="#9DD0FF"/>
<path d="M143.758 207.495C143.758 209.324 145.24 210.808 147.073 210.808C148.08 210.808 148.969 210.352 149.575 209.645C146.145 209.143 146.496 206.08 146.496 206.08C146.083 206.788 146.086 207.974 146.086 207.974C145.394 206.26 147.073 204.187 147.073 204.187C145.243 204.187 143.758 205.667 143.758 207.499V207.495Z" fill="#21201F"/>
<path d="M143.027 228.221C143.027 228.221 144.119 228.139 145.66 227.91C145.513 225.557 145.552 221.243 145.788 218.674C146.083 215.447 143.348 212.879 141.01 212.715C138.672 212.551 137.846 211.827 137.846 211.827C138.934 213.144 140.266 213.737 140.266 213.737C135.573 212.823 134.235 209.026 134.212 208.967C133.94 210.516 134.533 211.912 134.533 211.912C134.533 211.912 137.695 217.065 142.679 217.757C142.679 217.757 141.286 222.625 140.279 227.172L143.027 228.221Z" fill="#21201F"/>
<path d="M140.309 217.265C140.309 217.265 140.443 215.62 141.971 215.971C143.148 216.24 143.171 218.258 142.896 219.08C142.62 219.899 141.833 220.807 141.007 220.551C140.292 220.328 140.404 219.581 140.482 219.326C140.482 219.326 140.154 218.526 140.305 217.268L140.309 217.265Z" fill="#B5DBFF"/>
<path d="M140.808 218.081C140.808 218.081 141.06 216.721 141.657 216.656C142.254 216.59 142.628 218.828 141.661 219.378C140.693 219.925 141.116 218.173 141.267 217.93C141.418 217.688 141.028 217.776 140.805 218.084L140.808 218.081Z" fill="#9DD0FF"/>
<path d="M130.365 375.049C119.389 374.787 118.429 369.149 118.422 369.116C118.389 369.427 118.406 369.781 118.488 370.191C119.504 375.344 130.313 375.777 130.313 375.777L131.916 377.202L137.459 376.861L137.724 376.271L132.143 376.435L130.362 375.053L130.365 375.049Z" fill="#21201F"/>
<path d="M158.811 366.492L155.279 367.809L151.456 366.361V364.516H150.862C142.1 363.858 140.746 357.587 140.746 357.584C140.365 359.533 141.916 361.561 143.605 362.695C146.284 364.497 148.285 365.339 150.606 365.211L150.672 366.931L155.398 368.782L158.798 367.468L158.808 366.495L158.811 366.492Z" fill="#21201F"/>
<path d="M163.136 249.706C163.136 249.706 158.713 261.406 157.788 262.723C156.866 264.04 161.739 261.53 161.739 261.53C161.966 257.795 162.379 253.923 163.146 249.713L163.133 249.703L163.136 249.706Z" fill="#CCE7FF"/>
<path d="M156.012 227.277L155.992 227.311L156.029 227.301C156.029 227.301 156.016 227.284 156.012 227.277Z" fill="#E9F5FF"/>
<path d="M161.328 274.051C161.547 265.661 161.485 258.001 163.367 248.442C165.453 237.863 164.823 230.803 160.006 228.349C158.789 227.73 157.435 227.412 155.992 227.313C155.992 227.313 161.013 229.964 161.888 238.122C162.764 246.279 156.543 282.946 157.137 288.584C159.895 287.326 161.564 286.222 161.564 286.222C161.174 283.3 161.328 274.051 161.328 274.051Z" fill="#E9F5FF"/>
<path d="M155.983 227.238C155.356 226.37 154.53 225.735 154.012 225.391C153.556 225.676 153.048 225.934 152.5 226.167C153.343 226.944 154.271 227.871 154.271 227.871L155.992 227.314L155.983 227.238Z" fill="#E9F5FF"/>
<path d="M158.47 363.121C160.923 342.713 157.876 318.316 157.876 318.316C157.722 316.782 158.388 299.583 159.769 288.381C159.818 287.972 159.86 287.588 159.906 287.195C159.188 287.592 158.25 288.073 157.139 288.581C157.139 288.588 155.781 313.329 155.991 317.808C156.197 322.129 159.401 351.484 156.85 362.845L158.47 363.117V363.121Z" fill="#AAD6FF"/>
<path d="M144.593 305.758C144.58 305.578 144.57 305.401 144.56 305.234C145.747 303.592 146.856 301.535 147.78 299.595L150.41 293.292C150.41 293.292 145.472 302.098 143.189 304.274C143.189 304.274 138.601 318.135 137.729 320.648C137.729 320.648 140.972 343.09 136.312 372.061L137.555 372.326C137.555 372.326 143.901 347.981 139.293 320.976C139.293 320.976 141.904 313.857 144.557 305.234C144.567 305.401 144.58 305.578 144.59 305.758H144.593Z" fill="#AAD6FF"/>
<path d="M152.145 218.254C152.145 218.254 151.997 213.474 149.649 209.589C149.623 209.605 149.593 209.622 149.57 209.641C149.57 209.641 151.236 212.741 151.308 216.433C151.367 219.404 152.046 223.745 152.912 225.976C153.791 225.567 154.558 225.085 155.116 224.525C155.116 224.525 152.955 220.849 152.141 218.251L152.145 218.254Z" fill="#66B6FF"/>
<path d="M147.075 204.187C146.938 204.187 146.803 204.196 146.672 204.213C146.711 204.219 149.676 204.694 149.794 209.389C150.168 208.852 150.391 208.2 150.391 207.499C150.391 205.671 148.908 204.187 147.075 204.187Z" fill="#66B6FF"/>
<path d="M118.598 214.307C120.244 212.309 120.575 209.393 119.205 206.982C117.44 203.882 113.548 202.788 110.505 204.538C107.461 206.287 106.425 210.218 108.186 213.318C109.56 215.732 112.223 216.921 114.771 216.509C111.488 219.572 110.623 224.643 112.971 228.768L117.234 236.267L134.283 226.465L130.02 218.966C127.675 214.841 122.887 213.02 118.598 214.31V214.307Z" fill="#B480FF"/>
<path d="M123.426 40.4342L120.409 39.7266L29.9062 91.5753V176.556L32.7921 177.758V92.7121L123.426 40.4342Z" fill="#F0F0F0"/>
<path d="M29.9062 91.5752L32.7921 92.712V177.758L29.9062 176.556V91.5752Z" fill="#F6F6F6"/>
<path d="M259.302 284.827V280.945L257.688 281.482L256.894 279.837L248.431 279.9C247.175 278.642 245.627 277.511 243.859 276.525L246.027 271.794V267.912L244.482 271.287L242.128 270.513L238.229 269.232L232.336 272.741C229.971 272.368 227.508 272.181 225 272.204L220.737 267.958L216.424 268.639L212.112 269.321L212.26 274.219C210.089 274.936 208.141 275.824 206.449 276.84L198.247 275.562L196.302 277.551L193.853 276.175V280.057L199.952 283.477C199.319 284.843 199.001 286.269 199.054 287.717L193.348 289.617L191.734 286.272V290.154L192.938 292.651L194.141 295.147L202.599 295.085C203.855 296.346 205.406 297.48 207.173 298.466L206.554 299.815L205.009 299.308V303.19L208.908 304.471L212.807 305.752L218.684 302.253C221.055 302.626 223.531 302.816 226.049 302.794L230.299 307.026L234.611 306.345L238.924 305.663V301.781L238.806 301.801L238.776 300.782C240.957 300.061 242.911 299.17 244.61 298.151L252.789 299.426L254.986 297.178L257.183 294.931V291.048L254.733 293.555L251.093 291.514C251.726 290.147 252.041 288.719 251.989 287.264L259.302 284.827ZM229.499 295.743C221.625 296.991 213.46 294.308 211.263 289.751C209.066 285.194 213.666 280.489 221.54 279.244C229.414 277.996 237.579 280.679 239.776 285.237C241.974 289.794 237.373 294.498 229.499 295.743Z" fill="#C79FFF"/>
<path d="M219.285 287.349C219.285 287.379 219.285 287.408 219.285 287.438V287.585H219.291C219.307 287.87 219.373 288.155 219.511 288.444C220.439 290.364 223.879 291.494 227.198 290.97C229.913 290.54 231.7 289.135 231.756 287.585V283.611H219.281V287.349H219.285Z" fill="#C79FFF"/>
<path d="M248.427 276.018C247.171 274.76 245.623 273.63 243.856 272.643L246.024 267.913L242.124 266.632L238.225 265.351L232.332 268.859C229.968 268.486 227.505 268.299 224.997 268.322L220.733 264.076L216.421 264.758L212.109 265.439L212.256 270.337C210.085 271.054 208.138 271.942 206.445 272.958L198.244 271.68L196.047 273.928L193.85 276.175L199.949 279.595C199.316 280.962 198.998 282.387 199.051 283.835L191.734 286.272L192.938 288.769L194.141 291.265L202.599 291.203C203.855 292.464 205.406 293.598 207.173 294.584L205.009 299.308L208.908 300.589L212.807 301.87L218.684 298.371C221.055 298.745 223.531 298.935 226.049 298.912L230.299 303.145L234.611 302.463L238.924 301.782L238.776 296.9C240.957 296.179 242.911 295.288 244.61 294.269L252.789 295.544L254.986 293.296L257.183 291.049L251.093 287.632C251.726 286.266 252.041 284.837 251.989 283.383L259.302 280.945L258.098 278.449L256.894 275.952L248.431 276.015L248.427 276.018ZM229.496 291.861C221.622 293.11 213.457 290.426 211.259 285.869C209.062 281.312 213.663 276.608 221.537 275.363C229.41 274.114 237.576 276.798 239.773 281.355C241.97 285.912 237.369 290.616 229.496 291.861Z" fill="#D8BCFF"/>
<path d="M231.747 283.618C231.755 281.627 228.968 280.002 225.522 279.987C222.075 279.972 219.274 281.573 219.266 283.563C219.257 285.554 222.044 287.179 225.49 287.194C228.937 287.209 231.738 285.608 231.747 283.618Z" fill="#D8BCFF"/>
<path d="M307.283 285.591V282.836L306.139 283.219L305.575 282.05L299.564 282.092C298.672 281.198 297.573 280.395 296.317 279.697L297.855 276.339V273.584L296.757 275.979L295.084 275.428L292.316 274.518L288.132 277.011C286.453 276.745 284.702 276.611 282.921 276.628L279.894 273.613L276.831 274.098L273.769 274.583L273.873 278.063C272.332 278.574 270.948 279.203 269.745 279.923L263.921 279.016L262.54 280.428L260.799 279.452V282.207L265.131 284.638C264.682 285.608 264.455 286.62 264.491 287.649L260.441 288.998L259.297 286.623V289.378L260.153 291.151L261.009 292.923L267.016 292.881C267.908 293.778 269.01 294.581 270.266 295.282L269.827 296.242L268.728 295.882V298.637L271.496 299.548L274.264 300.458L278.438 297.972C280.124 298.237 281.882 298.372 283.669 298.355L286.686 301.363L289.749 300.878L292.812 300.393V297.638L292.73 297.651L292.707 296.927C294.254 296.416 295.642 295.783 296.848 295.059L302.656 295.964L304.217 294.368L305.778 292.773V290.017L304.037 291.796L301.453 290.348C301.902 289.378 302.125 288.363 302.089 287.331L307.283 285.601V285.591ZM286.118 293.343C280.527 294.227 274.729 292.324 273.168 289.087C271.607 285.85 274.874 282.508 280.465 281.624C286.056 280.739 291.854 282.643 293.415 285.879C294.976 289.116 291.71 292.458 286.118 293.343Z" fill="#C79FFF"/>
<path d="M278.867 287.38C278.867 287.399 278.867 287.422 278.867 287.442V287.547H278.87C278.88 287.75 278.929 287.953 279.028 288.156C279.687 289.519 282.13 290.322 284.488 289.951C286.416 289.647 287.685 288.648 287.725 287.547V284.723H278.867V287.376V287.38Z" fill="#C79FFF"/>
<path d="M299.564 279.333C298.672 278.439 297.573 277.636 296.317 276.938L297.855 273.58L295.087 272.67L292.32 271.759L288.135 274.252C286.456 273.987 284.705 273.852 282.924 273.869L279.898 270.854L276.835 271.339L273.772 271.824L273.877 275.304C272.335 275.815 270.952 276.444 269.748 277.164L263.924 276.257L262.363 277.852L260.802 279.448L265.134 281.879C264.685 282.849 264.459 283.861 264.495 284.89L259.297 286.623L260.153 288.395L261.009 290.168L267.016 290.125C267.908 291.023 269.01 291.825 270.266 292.526L268.728 295.881L271.496 296.792L274.264 297.703L278.438 295.216C280.124 295.481 281.882 295.616 283.669 295.599L286.686 298.607L289.749 298.122L292.812 297.637L292.707 294.171C294.254 293.66 295.642 293.028 296.848 292.304L302.656 293.208L304.217 291.612L305.778 290.017L301.453 287.592C301.902 286.623 302.125 285.607 302.089 284.575L307.283 282.845L306.427 281.073L305.571 279.3L299.56 279.343L299.564 279.333ZM286.118 290.584C280.527 291.468 274.729 289.565 273.168 286.328C271.607 283.091 274.874 279.749 280.465 278.865C286.056 277.98 291.854 279.884 293.415 283.12C294.976 286.357 291.71 289.699 286.118 290.584Z" fill="#D8BCFF"/>
<path d="M287.56 284.051C288.219 285.414 286.842 286.823 284.484 287.196C282.126 287.57 279.683 286.767 279.024 285.401C278.365 284.038 279.742 282.629 282.1 282.256C284.458 281.882 286.901 282.685 287.56 284.051Z" fill="#D8BCFF"/>
<path d="M277.004 262.759V261.118L276.322 261.344L275.988 260.649L272.41 260.675C271.879 260.145 271.226 259.666 270.478 259.25L271.393 257.252V255.61L270.741 257.035L269.747 256.708L268.101 256.167L265.612 257.651C264.615 257.494 263.572 257.416 262.513 257.425L260.712 255.63L258.892 255.918L257.072 256.207L257.135 258.277C256.217 258.582 255.397 258.955 254.679 259.384L251.212 258.844L250.392 259.683L249.356 259.103V260.744L251.934 262.189C251.665 262.766 251.534 263.368 251.553 263.981L249.143 264.784L248.461 263.372V265.013L248.969 266.068L249.478 267.123L253.052 267.097C253.583 267.631 254.236 268.109 254.984 268.525L254.721 269.095L254.069 268.882V270.523L255.715 271.064L257.361 271.605L259.843 270.127C260.847 270.284 261.89 270.366 262.956 270.356L264.749 272.145L266.569 271.857L268.389 271.569V269.927L268.34 269.934L268.327 269.501C269.249 269.197 270.075 268.82 270.793 268.391L274.25 268.928L275.178 267.978L276.106 267.028V265.386L275.069 266.445L273.531 265.583C273.8 265.006 273.931 264.404 273.908 263.788L276.998 262.759H277.004ZM264.412 267.372C261.086 267.899 257.636 266.766 256.705 264.839C255.777 262.913 257.722 260.928 261.047 260.4C264.372 259.873 267.822 261.006 268.753 262.933C269.681 264.859 267.737 266.844 264.412 267.372Z" fill="#C79FFF"/>
<path d="M260.093 263.823C260.093 263.823 260.093 263.849 260.093 263.859V263.922C260.099 264.043 260.129 264.164 260.184 264.285C260.575 265.098 262.031 265.576 263.431 265.353C264.579 265.173 265.333 264.577 265.356 263.925V262.244H260.086V263.823H260.093Z" fill="#C79FFF"/>
<path d="M272.41 259.034C271.879 258.503 271.226 258.025 270.478 257.609L271.393 255.611L269.747 255.07L268.101 254.529L265.612 256.014C264.615 255.856 263.572 255.778 262.513 255.788L260.712 253.992L258.892 254.28L257.072 254.569L257.135 256.639C256.217 256.944 255.397 257.317 254.679 257.747L251.212 257.206L250.284 258.156L249.356 259.106L251.934 260.551C251.665 261.128 251.534 261.731 251.553 262.343L248.461 263.372L248.969 264.427L249.478 265.482L253.052 265.456C253.583 265.99 254.236 266.468 254.984 266.884L254.069 268.879L255.715 269.42L257.361 269.96L259.843 268.483C260.847 268.64 261.89 268.722 262.956 268.712L264.749 270.501L266.569 270.213L268.389 269.924L268.327 267.86C269.249 267.556 270.075 267.179 270.793 266.75L274.25 267.287L275.178 266.337L276.106 265.387L273.531 263.942C273.8 263.365 273.931 262.762 273.908 262.147L276.998 261.118L276.489 260.063L275.981 259.008L272.403 259.034H272.41ZM264.412 265.727C261.086 266.255 257.636 265.121 256.705 263.195C255.777 261.269 257.722 259.283 261.047 258.756C264.372 258.228 267.822 259.362 268.753 261.288C269.681 263.215 267.737 265.2 264.412 265.727Z" fill="#D8BCFF"/>
<path d="M265.268 261.841C265.658 262.654 264.841 263.489 263.438 263.712C262.034 263.935 260.581 263.457 260.191 262.644C259.801 261.832 260.618 260.996 262.021 260.773C263.425 260.551 264.877 261.029 265.268 261.841Z" fill="#D8BCFF"/>
<path d="M240.861 387.119L190.789 358.243L246.023 326.572L295.777 355.147L240.861 387.119Z" fill="#9C56FF"/>
<path d="M190.789 358.243L240.861 387.12L295.777 355.147L295.678 368.393L240.7 400.457L190.789 371.299V358.243Z" fill="#AD74FF"/>
<path d="M240.864 387.12L240.703 400.457L295.681 368.393L295.779 355.147L240.864 387.12Z" fill="#B480FF"/>
<path d="M295.744 359.305L240.812 391.27L190.789 362.168V364.553L240.7 393.668L295.727 361.7L295.744 359.305Z" fill="#C6E4FF"/>
<path d="M241.171 353.598L197.523 328.427L245.67 300.818L289.039 325.727L241.171 353.598Z" fill="#9C56FF"/>
<path d="M197.523 328.427L241.171 353.598L289.039 325.728L288.954 355.606L241.03 383.555L197.523 358.139V328.427Z" fill="#AD74FF"/>
<path d="M203.633 329.933L245.257 305.896L283.189 327.994L283.133 326.425L245.169 304.274L203.633 328.469V329.933Z" fill="#9143FF"/>
<path d="M241.172 353.598L241.031 383.555L288.955 355.606L289.04 325.728L241.172 353.598Z" fill="#B480FF"/>
<path d="M241.108 367.554L241.078 374.021L288.956 346.099L289.041 339.645L241.108 367.554Z" fill="#C6E4FF"/>
<path d="M241.106 367.554L241.076 374.048L197.523 348.605V342.203L241.106 367.554Z" fill="#C6E4FF"/>
<path d="M265.257 325.642C265.523 330.009 260.453 334.111 252.002 335.68C241.229 337.682 229.04 334.815 224.78 329.275C223.741 327.922 223.272 326.536 223.311 325.187H223.305V329.773L223.357 329.819C223.501 330.887 223.964 331.968 224.78 333.03C229.04 338.566 241.229 341.436 252.002 339.435C260.207 337.911 265.218 334.003 265.264 329.78H265.27V325.642H265.257Z" fill="#A8D6FF"/>
<path d="M265.257 326.067C265.377 320.185 256.083 315.224 244.498 314.987C232.913 314.751 223.424 319.329 223.304 325.211C223.183 331.094 232.478 336.055 244.063 336.291C255.648 336.528 265.137 331.95 265.257 326.067Z" fill="#CAE6FF"/>
<path d="M264.435 322.985C264.254 322.664 264.045 322.346 263.802 322.032C259.542 316.495 247.353 313.625 236.58 315.627C225.808 317.628 220.528 323.739 224.788 329.279C224.939 329.472 225.099 329.662 225.267 329.849C232.809 325.717 247.845 319.145 264.438 322.985H264.435Z" fill="#BCDFFF"/>
<path d="M235.799 317.701C246.81 315.715 259.259 318.556 263.696 324.043C263.555 323.814 263.407 323.585 263.237 323.355C259.098 317.819 247.25 314.959 236.772 316.964C233.559 317.58 230.853 318.582 228.758 319.834C230.729 318.923 233.093 318.189 235.799 317.701Z" fill="#A8D6FF"/>
<path d="M241.945 327.693C242.433 327.484 242.735 327.257 242.843 327.015C242.951 326.769 242.919 326.435 242.742 326.013C242.565 325.59 242.42 325.19 242.315 324.813C242.207 324.437 242.194 324.08 242.266 323.742C242.338 323.405 242.528 323.093 242.83 322.802C243.132 322.51 243.594 322.232 244.221 321.966C245.27 321.521 246.382 321.337 247.556 321.419C248.73 321.501 249.789 321.822 250.727 322.392L252.691 321.557L253.727 322.33L251.727 323.182C252.357 323.847 252.514 324.509 252.202 325.174C251.891 325.839 251.147 326.419 249.966 326.92L247.762 325.279C248.408 325.003 248.818 324.728 248.992 324.453C249.166 324.175 249.09 323.919 248.769 323.677C248.48 323.464 248.13 323.352 247.713 323.342C247.297 323.333 246.864 323.424 246.408 323.618C245.949 323.814 245.677 324.037 245.588 324.286C245.5 324.535 245.536 324.866 245.696 325.269C245.857 325.675 245.982 326.065 246.077 326.445C246.172 326.825 246.182 327.182 246.109 327.52C246.034 327.857 245.85 328.175 245.549 328.473C245.25 328.774 244.788 329.056 244.162 329.321C243.099 329.774 242 329.964 240.856 329.898C239.715 329.833 238.682 329.518 237.757 328.961L235.888 329.757L234.852 328.984L236.731 328.185C235.924 327.418 235.662 326.681 235.94 325.97C236.219 325.259 237 324.63 238.285 324.086L240.482 325.721C239.774 326.022 239.348 326.33 239.197 326.651C239.046 326.972 239.174 327.284 239.58 327.582C239.875 327.801 240.233 327.923 240.656 327.942C241.076 327.962 241.509 327.877 241.948 327.69L241.945 327.693Z" fill="#DBEEFF"/>
</svg>
