<svg width="100" height="100" viewBox="0 0 100 100" fill="none" xmlns="http://www.w3.org/2000/svg">
<path d="M75 25L48.75 51.25" stroke="#20D3F6" stroke-width="3" stroke-linecap="round" stroke-linejoin="round"/>
<path d="M26.327 46.1604C25.5993 45.9552 24.9566 45.5224 24.493 44.9253C24.0294 44.3283 23.7694 43.5985 23.751 42.843C23.7327 42.0874 23.957 41.3459 24.391 40.7271C24.8251 40.1082 25.446 39.6447 26.1628 39.4045L73.9097 23.8379C74.2225 23.736 74.5574 23.7224 74.8774 23.7986C75.1974 23.8748 75.4902 24.0378 75.7234 24.2697C75.9566 24.5017 76.1213 24.7934 76.1992 25.1129C76.2771 25.4324 76.2652 25.7672 76.1649 26.0804L60.6046 73.8334C60.3653 74.5512 59.9018 75.1733 59.2824 75.6081C58.663 76.0429 57.9204 76.2676 57.1637 76.2489C56.4071 76.2303 55.6764 75.9694 55.0792 75.5046C54.4819 75.0398 54.0497 74.3957 53.8461 73.667L48.5031 51.4777L26.327 46.1604Z" stroke="black" stroke-width="3" stroke-linecap="round" stroke-linejoin="round"/>
<path d="M31.875 53.125L24.375 59.375L16.875 65.625M42.5 57.5L35.625 64.375M47.5 68.75L33.75 83.75" stroke="black" stroke-width="3" stroke-linecap="round"/>
</svg>
