<svg width="768" height="768" viewBox="0 0 768 768" fill="none" xmlns="http://www.w3.org/2000/svg">
<path fill-rule="evenodd" clip-rule="evenodd" d="M369.024 179.79C297.715 183.63 270.413 236.314 221.069 278.746C155.751 334.926 85.7859 304.436 84.4419 482.42C83.2515 640.82 196.839 493.479 370.752 540.826C544.666 588.135 719.923 601.537 658.407 421.326C596.852 241.114 534.72 170.842 369.024 179.79Z" fill="#ECEAF8"/>
<path fill-rule="evenodd" clip-rule="evenodd" d="M342.183 347.52V280.32C342.183 278.132 340.378 276.365 338.227 276.365H143.463C141.274 276.365 137.895 278.17 137.895 280.32V351.092C137.895 353.28 139.661 355.047 141.85 355.047H333.043C340.301 355.085 342.183 349.709 342.183 347.52Z" fill="#7261E0"/>
<path fill-rule="evenodd" clip-rule="evenodd" d="M342.182 347.52V280.32C342.182 278.132 340.378 276.365 338.227 276.365H144.96C142.771 276.365 141.005 278.17 141.005 280.32V347.52C141.005 349.709 142.771 351.476 144.96 351.476H338.227C340.416 351.514 342.182 349.709 342.182 347.52Z" fill="#F1EFFC"/>
<path fill-rule="evenodd" clip-rule="evenodd" d="M339.264 347.52V280.32C339.264 279.744 338.803 279.283 338.227 279.283H144.96C144.384 279.283 143.923 279.744 143.923 280.32V347.52C143.923 348.096 144.384 348.557 144.96 348.557H338.227C338.803 348.595 339.264 348.096 339.264 347.52ZM336.345 345.677H146.841V282.202H336.345V345.677Z" fill="#B0A4FC"/>
<path fill-rule="evenodd" clip-rule="evenodd" d="M342.452 347.52V280.32C342.452 279.168 341.991 278.093 341.223 277.325C340.455 276.557 339.418 276.096 338.228 276.096H144.96C144.807 276.096 144.692 276.096 144.576 276.134H143.463C142.234 276.134 140.66 276.672 139.431 277.517C138.394 278.246 137.626 279.244 137.626 280.358V351.129C137.626 352.281 138.087 353.356 138.855 354.125C139.623 354.893 140.66 355.353 141.85 355.353H333.044C336 355.353 338.074 354.47 339.533 353.28C341.568 351.59 342.336 349.286 342.413 347.865C342.413 347.789 342.413 347.75 342.413 347.673V347.635L342.452 347.52ZM142.848 276.672C142.541 276.864 142.234 277.094 141.965 277.325C141.197 278.093 140.736 279.129 140.736 280.32V347.52C140.736 348.672 141.197 349.747 141.965 350.515C142.733 351.283 143.77 351.744 144.96 351.744H338.228C339.303 351.744 340.301 351.321 341.031 350.669C340.608 351.437 340.032 352.204 339.226 352.896C337.844 354.009 335.885 354.854 333.082 354.854H141.85C140.813 354.854 139.892 354.432 139.239 353.779C138.548 353.126 138.164 352.166 138.164 351.168V280.358C138.164 279.436 138.816 278.592 139.738 277.939C140.66 277.286 141.85 276.825 142.848 276.672ZM144.576 276.633H338.228C339.264 276.633 340.186 277.056 340.839 277.709C341.492 278.361 341.914 279.321 341.914 280.32V347.52V347.635V347.673V347.712C341.876 348.672 341.453 349.516 340.839 350.131C340.186 350.784 339.226 351.206 338.228 351.206H144.96C143.924 351.206 143.002 350.784 142.349 350.131C141.696 349.478 141.274 348.518 141.274 347.52V280.32C141.274 279.283 141.696 278.361 142.349 277.709C142.925 277.133 143.732 276.71 144.576 276.633Z" fill="#361ED1"/>
<path opacity="0.25" fill-rule="evenodd" clip-rule="evenodd" d="M342.183 330.279C316.032 339.84 285.274 340.992 265.882 327.783C227.597 301.709 239.578 326.592 183.706 316.416C157.287 311.616 152.525 293.223 145.959 276.365H144.922C142.733 276.365 140.967 278.17 140.967 280.32V347.52C140.967 349.709 142.733 351.476 144.922 351.476H338.189C340.378 351.476 342.144 349.709 342.144 347.52V330.279H342.183Z" fill="#988BE9"/>
<path fill-rule="evenodd" clip-rule="evenodd" d="M183.437 293.184H301.363C302.477 293.184 303.399 294.105 303.399 295.219C303.399 296.332 302.477 297.254 301.363 297.254H183.437C182.323 297.254 181.402 296.332 181.402 295.219C181.402 294.105 182.323 293.184 183.437 293.184ZM160.704 302.553H324.058C325.171 302.553 326.093 303.475 326.093 304.588C326.093 305.702 325.171 306.624 324.058 306.624H160.704C159.591 306.624 158.669 305.702 158.669 304.588C158.669 303.475 159.591 302.553 160.704 302.553ZM160.704 311.961H324.058C325.171 311.961 326.093 312.883 326.093 313.996C326.093 315.11 325.171 316.032 324.058 316.032H160.704C159.591 316.032 158.669 315.11 158.669 313.996C158.669 312.844 159.591 311.961 160.704 311.961Z" fill="#B0A4FC"/>
<path fill-rule="evenodd" clip-rule="evenodd" d="M382.502 579.071C550.809 579.071 688.089 574.463 688.089 568.857C688.089 563.212 550.809 558.643 382.502 558.643C214.195 558.643 76.915 563.251 76.915 568.857C76.9534 574.463 214.195 579.071 382.502 579.071Z" fill="#D6D2EE"/>
<path fill-rule="evenodd" clip-rule="evenodd" d="M374.439 581.721C526.311 581.721 650.189 577.266 650.189 571.813C650.189 566.361 526.311 561.906 374.439 561.906C222.567 561.906 98.6885 566.361 98.6885 571.813C98.6885 577.266 222.567 581.721 374.439 581.721Z" fill="#D6D2EE"/>
<path fill-rule="evenodd" clip-rule="evenodd" d="M309.542 358.272L259.584 350.208L257.856 350.016L235.469 350.131V569.74L261.082 569.548L311.002 563.98C311.885 563.865 312.614 563.059 312.614 561.984V362.188C312.653 360.038 311.232 358.54 309.542 358.272Z" fill="#8271ED" stroke="#361ED1" stroke-width="0.078" stroke-miterlimit="2.613"/>
<path fill-rule="evenodd" clip-rule="evenodd" d="M119.539 350.094H258.662C261.082 350.094 263.078 352.091 263.078 354.51V566.631C263.078 568.321 261.696 569.703 260.006 569.703H117.811C116.122 569.703 114.739 568.321 114.739 566.631V354.894C114.739 352.244 116.89 350.094 119.539 350.094Z" fill="#C4BBFA" stroke="#361ED1" stroke-width="0.18" stroke-miterlimit="2.613"/>
<path fill-rule="evenodd" clip-rule="evenodd" d="M137.741 364.762H240.23C243.149 364.762 245.529 367.143 245.529 370.061V461.069C245.529 463.987 243.149 466.368 240.23 466.368H137.741C134.822 466.368 132.441 463.987 132.441 461.069V370.061C132.441 367.143 134.822 364.762 137.741 364.762Z" fill="#F1EFFC"/>
<path fill-rule="evenodd" clip-rule="evenodd" d="M137.741 364.109H240.23C241.843 364.109 243.341 364.762 244.416 365.837C245.491 366.913 246.144 368.41 246.144 370.023V461.031C246.144 462.682 245.491 464.141 244.416 465.217C243.341 466.292 241.843 466.945 240.23 466.945H137.741C136.09 466.945 134.63 466.292 133.555 465.217C132.48 464.141 131.827 462.644 131.827 461.031V370.023C131.827 368.41 132.48 366.913 133.555 365.837C134.592 364.762 136.09 364.109 137.741 364.109ZM240.192 365.377H137.741C136.474 365.377 135.283 365.914 134.438 366.759C133.594 367.604 133.056 368.756 133.056 370.061V461.069C133.056 462.337 133.594 463.527 134.438 464.372C135.283 465.217 136.435 465.754 137.741 465.754H240.23C241.498 465.754 242.688 465.217 243.533 464.372C244.378 463.527 244.915 462.375 244.915 461.069V370.061C244.915 368.794 244.378 367.604 243.533 366.759C242.65 365.914 241.498 365.377 240.192 365.377Z" fill="#B0A4FC"/>
<path fill-rule="evenodd" clip-rule="evenodd" d="M142.464 383.156H235.469C235.622 383.156 235.699 383.04 235.699 382.925V378.701C235.699 378.548 235.584 378.471 235.469 378.471H142.464C142.31 378.471 142.233 378.586 142.233 378.701V382.925C142.233 383.04 142.31 383.156 142.464 383.156ZM142.464 403.316H235.469C235.622 403.316 235.699 403.2 235.699 403.085V398.861C235.699 398.707 235.584 398.631 235.469 398.631H142.464C142.31 398.631 142.233 398.746 142.233 398.861V403.085C142.233 403.2 142.31 403.316 142.464 403.316ZM142.464 423.514H235.469C235.622 423.514 235.699 423.399 235.699 423.284V419.06C235.699 418.906 235.584 418.829 235.469 418.829H142.464C142.31 418.829 142.233 418.944 142.233 419.06V423.284C142.233 423.399 142.31 423.514 142.464 423.514ZM142.464 443.674H235.469C235.622 443.674 235.699 443.559 235.699 443.444V439.22C235.699 439.066 235.584 438.989 235.469 438.989H142.464C142.31 438.989 142.233 439.104 142.233 439.22V443.444C142.233 443.559 142.31 443.674 142.464 443.674Z" fill="#B0A4FC"/>
<path fill-rule="evenodd" clip-rule="evenodd" d="M241.805 484.916C242.995 484.916 244.071 485.415 244.877 486.183C245.645 486.951 246.144 488.065 246.144 489.255V552.961C246.144 554.151 245.645 555.226 244.877 556.033C244.109 556.801 242.995 557.3 241.805 557.3H136.128C134.938 557.3 133.863 556.801 133.056 556.033C132.288 555.265 131.789 554.151 131.789 552.961V489.255C131.789 488.065 132.288 486.99 133.056 486.183C133.824 485.415 134.938 484.916 136.128 484.916H241.805Z" fill="#F1EFFC"/>
<path fill-rule="evenodd" clip-rule="evenodd" d="M136.128 556.033H241.805C242.65 556.033 243.418 555.687 243.994 555.15C244.531 554.612 244.877 553.806 244.877 552.961V489.255C244.877 488.41 244.531 487.642 243.994 487.066C243.456 486.529 242.65 486.183 241.805 486.183H136.128C135.283 486.183 134.515 486.529 133.939 487.066C133.402 487.604 133.056 488.41 133.056 489.255V552.961C133.056 553.806 133.402 554.574 133.939 555.15C134.515 555.687 135.283 556.033 136.128 556.033ZM241.805 557.3H136.128C134.938 557.3 133.863 556.801 133.056 556.033C132.288 555.265 131.789 554.151 131.789 552.961V489.255C131.789 488.065 132.288 486.99 133.056 486.183C133.824 485.415 134.938 484.916 136.128 484.916H241.805C242.995 484.916 244.071 485.415 244.877 486.183C245.645 486.951 246.144 488.065 246.144 489.255V552.961C246.144 554.151 245.645 555.226 244.877 556.033C244.071 556.801 242.995 557.3 241.805 557.3Z" fill="#B0A4FC"/>
<path fill-rule="evenodd" clip-rule="evenodd" d="M193.152 491.212H140.16C139.43 491.212 138.739 491.519 138.278 491.98C137.779 492.479 137.51 493.132 137.51 493.861V519.551H136.243V493.861C136.243 492.786 136.704 491.788 137.395 491.058C138.125 490.329 139.085 489.906 140.198 489.906H193.19V491.212H193.152ZM238.349 494.937V547.929C238.349 548.658 238.042 549.349 237.581 549.81C237.082 550.309 236.429 550.578 235.699 550.578H210.01V551.845H235.699C236.774 551.845 237.773 551.385 238.502 550.693C239.232 549.964 239.654 549.004 239.654 547.89V494.898H238.349V494.937Z" fill="#B0A4FC"/>
<path fill-rule="evenodd" clip-rule="evenodd" d="M420.557 358.273L470.477 350.171L472.205 349.979L494.592 350.094V569.703L468.979 569.511L419.059 563.943C418.176 563.828 417.446 563.022 417.446 561.947V362.19C417.446 360.039 418.867 358.542 420.557 358.273Z" fill="#8271ED" stroke="#361ED1" stroke-width="0.078" stroke-miterlimit="2.613"/>
<path fill-rule="evenodd" clip-rule="evenodd" d="M610.56 350.094H471.437C469.017 350.094 467.021 352.091 467.021 354.51V566.631C467.021 568.321 468.403 569.703 470.093 569.703H612.326C614.016 569.703 615.398 568.321 615.398 566.631V354.894C615.36 352.244 613.209 350.094 610.56 350.094Z" fill="#C4BBFA" stroke="#361ED1" stroke-width="0.18" stroke-miterlimit="2.613"/>
<path fill-rule="evenodd" clip-rule="evenodd" d="M489.946 364.762H592.435C595.354 364.762 597.734 367.143 597.734 370.061V461.069C597.734 463.987 595.354 466.368 592.435 466.368H489.946C487.027 466.368 484.646 463.987 484.646 461.069V370.061C484.646 367.143 487.027 364.762 489.946 364.762Z" fill="#F1EFFC"/>
<path fill-rule="evenodd" clip-rule="evenodd" d="M489.946 364.109H592.435C594.048 364.109 595.546 364.762 596.621 365.837C597.696 366.913 598.349 368.41 598.349 370.023V461.031C598.349 462.682 597.696 464.141 596.621 465.217C595.546 466.292 594.048 466.945 592.435 466.945H489.946C488.295 466.945 486.835 466.292 485.76 465.217C484.685 464.141 484.032 462.644 484.032 461.031V370.023C484.032 368.41 484.685 366.913 485.76 365.837C486.835 364.762 488.295 364.109 489.946 364.109ZM592.435 365.377H489.946C488.679 365.377 487.488 365.914 486.643 366.759C485.799 367.604 485.261 368.756 485.261 370.061V461.069C485.261 462.337 485.799 463.527 486.643 464.372C487.488 465.217 488.64 465.754 489.946 465.754H592.435C593.703 465.754 594.893 465.217 595.738 464.372C596.583 463.527 597.12 462.375 597.12 461.069V370.061C597.12 368.794 596.583 367.604 595.738 366.759C594.893 365.914 593.703 365.377 592.435 365.377Z" fill="#B0A4FC"/>
<path fill-rule="evenodd" clip-rule="evenodd" d="M494.669 383.156H587.674C587.827 383.156 587.904 383.04 587.904 382.925V378.701C587.904 378.548 587.789 378.471 587.674 378.471H494.669C494.515 378.471 494.438 378.586 494.438 378.701V382.925C494.438 383.04 494.554 383.156 494.669 383.156ZM494.669 403.316H587.674C587.827 403.316 587.904 403.2 587.904 403.085V398.861C587.904 398.707 587.789 398.631 587.674 398.631H494.669C494.515 398.631 494.438 398.746 494.438 398.861V403.085C494.438 403.2 494.554 403.316 494.669 403.316ZM494.669 423.514H587.674C587.827 423.514 587.904 423.399 587.904 423.284V419.06C587.904 418.906 587.789 418.829 587.674 418.829H494.669C494.515 418.829 494.438 418.944 494.438 419.06V423.284C494.438 423.399 494.554 423.514 494.669 423.514ZM494.669 443.674H587.674C587.827 443.674 587.904 443.559 587.904 443.444V439.22C587.904 439.066 587.789 438.989 587.674 438.989H494.669C494.515 438.989 494.438 439.104 494.438 439.22V443.444C494.438 443.559 494.554 443.674 494.669 443.674Z" fill="#B0A4FC"/>
<path fill-rule="evenodd" clip-rule="evenodd" d="M594.01 484.916C595.2 484.916 596.275 485.415 597.082 486.183C597.85 486.951 598.349 488.065 598.349 489.255V552.961C598.349 554.151 597.85 555.226 597.082 556.033C596.314 556.801 595.2 557.3 594.01 557.3H488.333C487.142 557.3 486.067 556.801 485.261 556.033C484.493 555.265 483.994 554.151 483.994 552.961V489.255C483.994 488.065 484.493 486.99 485.261 486.183C486.029 485.415 487.142 484.916 488.333 484.916H594.01Z" fill="#F1EFFC"/>
<path fill-rule="evenodd" clip-rule="evenodd" d="M488.333 556.033H594.01C594.854 556.033 595.622 555.687 596.198 555.15C596.736 554.612 597.082 553.806 597.082 552.961V489.255C597.082 488.41 596.736 487.642 596.198 487.066C595.661 486.529 594.854 486.183 594.01 486.183H488.333C487.488 486.183 486.72 486.529 486.144 487.066C485.606 487.604 485.261 488.41 485.261 489.255V552.961C485.261 553.806 485.606 554.574 486.144 555.15C486.72 555.687 487.488 556.033 488.333 556.033ZM594.01 557.3H488.333C487.142 557.3 486.067 556.801 485.261 556.033C484.493 555.265 483.994 554.151 483.994 552.961V489.255C483.994 488.065 484.493 486.99 485.261 486.183C486.029 485.415 487.142 484.916 488.333 484.916H594.01C595.2 484.916 596.275 485.415 597.082 486.183C597.85 486.951 598.349 488.065 598.349 489.255V552.961C598.349 554.151 597.85 555.226 597.082 556.033C596.314 556.801 595.2 557.3 594.01 557.3Z" fill="#B0A4FC"/>
<path fill-rule="evenodd" clip-rule="evenodd" d="M545.357 491.212H492.365C491.635 491.212 490.944 491.519 490.483 491.98C489.984 492.479 489.715 493.132 489.715 493.861V519.551H488.448V493.861C488.448 492.786 488.909 491.788 489.6 491.058C490.33 490.329 491.29 489.906 492.403 489.906H545.395V491.212H545.357ZM590.554 494.937V547.929C590.554 548.658 590.247 549.349 589.786 549.81C589.287 550.309 588.634 550.578 587.904 550.578H562.215V551.845H587.904C588.979 551.845 589.978 551.385 590.707 550.693C591.437 549.964 591.859 549.004 591.859 547.89V494.898H590.554V494.937Z" fill="#B0A4FC"/>
<path fill-rule="evenodd" clip-rule="evenodd" d="M434.419 336.461H295.296C292.877 336.461 290.88 338.573 290.88 341.146V566.439C290.88 568.243 292.262 569.703 293.952 569.703H436.185C437.875 569.703 439.257 568.243 439.257 566.439V341.607C439.219 338.765 437.069 336.461 434.419 336.461Z" fill="#C4BBFA" stroke="#361ED1" stroke-width="0.18" stroke-miterlimit="2.613"/>
<path fill-rule="evenodd" clip-rule="evenodd" d="M312 350.438H418.138C419.482 350.438 420.595 351.551 420.595 352.895V375.743C420.595 377.087 419.482 378.201 418.138 378.201H312C310.656 378.201 309.542 377.087 309.542 375.743V352.895C309.542 351.551 310.618 350.438 312 350.438Z" fill="#F1EFFC"/>
<path fill-rule="evenodd" clip-rule="evenodd" d="M312 350.207H418.137C418.867 350.207 419.558 350.514 420.057 351.013C420.557 351.513 420.864 352.165 420.864 352.933V375.781C420.864 376.511 420.557 377.202 420.057 377.701C419.558 378.201 418.905 378.508 418.137 378.508H312C311.27 378.508 310.579 378.201 310.08 377.701C309.581 377.202 309.273 376.549 309.273 375.781V352.895C309.273 352.165 309.581 351.474 310.08 350.975C310.579 350.514 311.232 350.207 312 350.207ZM418.099 350.706H312C311.385 350.706 310.848 350.975 310.425 351.359C310.041 351.743 309.773 352.319 309.773 352.933V375.781C309.773 376.396 310.003 376.933 310.425 377.356C310.809 377.74 311.385 378.009 312 378.009H418.137C418.752 378.009 419.289 377.778 419.712 377.356C420.096 376.972 420.365 376.396 420.365 375.781V352.895C420.365 352.281 420.134 351.743 419.712 351.321C419.289 350.937 418.713 350.706 418.099 350.706Z" fill="#604FCC"/>
<path fill-rule="evenodd" clip-rule="evenodd" d="M315.456 359.539H334.848C335.155 359.539 335.424 359.808 335.424 360.115V372.941C335.424 373.248 335.155 373.517 334.848 373.517H315.456C315.149 373.517 314.88 373.248 314.88 372.941V360.115C314.88 359.808 315.149 359.539 315.456 359.539ZM315.302 355.123H318.835C319.065 355.123 319.257 355.315 319.257 355.545V357.619C319.257 357.849 319.065 358.041 318.835 358.041H315.302C315.072 358.041 314.88 357.849 314.88 357.619V355.545C314.88 355.315 315.072 355.123 315.302 355.123ZM323.405 355.123H326.937C327.168 355.123 327.36 355.315 327.36 355.545V357.619C327.36 357.849 327.168 358.041 326.937 358.041H323.405C323.174 358.041 322.982 357.849 322.982 357.619V355.545C322.982 355.315 323.174 355.123 323.405 355.123ZM331.507 355.123H335.04C335.27 355.123 335.462 355.315 335.462 355.545V357.619C335.462 357.849 335.27 358.041 335.04 358.041H331.507C331.277 358.041 331.085 357.849 331.085 357.619V355.545C331.085 355.315 331.277 355.123 331.507 355.123Z" fill="#7864FA"/>
<path d="M345.37 353.242H342.566V375.361H345.37V353.242Z" fill="#E1DCFF"/>
<path d="M349.44 353.242H346.637V375.361H349.44V353.242Z" fill="#E1DCFF"/>
<path d="M353.472 353.242H350.669V375.361H353.472V353.242Z" fill="#E1DCFF"/>
<path d="M357.504 353.242H354.701V375.361H357.504V353.242Z" fill="#E1DCFF"/>
<path d="M361.574 353.242H358.771V375.361H361.574V353.242Z" fill="#E1DCFF"/>
<path d="M365.606 353.242H362.803V375.361H365.606V353.242Z" fill="#E1DCFF"/>
<path d="M369.638 353.242H366.835V375.361H369.638V353.242Z" fill="#E1DCFF"/>
<path d="M373.709 353.242H370.906V375.361H373.709V353.242Z" fill="#E1DCFF"/>
<path d="M377.741 353.242H374.938V375.361H377.741V353.242Z" fill="#E1DCFF"/>
<path d="M381.773 353.242H378.97V375.361H381.773V353.242Z" fill="#E1DCFF"/>
<path d="M345.37 359.693H342.566V370.215H345.37V359.693Z" fill="#8674FC"/>
<path d="M349.44 360.576H346.637V369.293H349.44V360.576Z" fill="#8674FC"/>
<path d="M353.472 357.965H350.669V371.942H353.472V357.965Z" fill="#8674FC"/>
<path d="M357.504 359.654H354.701V370.214H357.504V359.654Z" fill="#8674FC"/>
<path d="M361.574 362.305H358.771V367.604H361.574V362.305Z" fill="#8674FC"/>
<path d="M365.606 357.85H362.803V371.981H365.606V357.85Z" fill="#8674FC"/>
<path d="M369.638 359.924H366.835V369.946H369.638V359.924Z" fill="#8674FC"/>
<path d="M373.709 357.428H370.906V372.404H373.709V357.428Z" fill="#8674FC"/>
<path d="M377.741 358.08H374.938V371.789H377.741V358.08Z" fill="#8674FC"/>
<path d="M381.773 356.812H378.97V373.017H381.773V356.812Z" fill="#8674FC"/>
<path d="M386.535 353.242H383.731V375.361H386.535V353.242Z" fill="#E1DCFF"/>
<path d="M390.605 353.242H387.802V375.361H390.605V353.242Z" fill="#E1DCFF"/>
<path d="M394.637 353.242H391.833V375.361H394.637V353.242Z" fill="#E1DCFF"/>
<path d="M398.669 353.242H395.866V375.361H398.669V353.242Z" fill="#E1DCFF"/>
<path d="M402.739 353.242H399.936V375.361H402.739V353.242Z" fill="#E1DCFF"/>
<path d="M406.771 353.242H403.968V375.361H406.771V353.242Z" fill="#E1DCFF"/>
<path d="M386.535 362.305H383.731V367.604H386.535V362.305Z" fill="#8674FC"/>
<path d="M390.605 357.926H387.802V371.98H390.605V357.926Z" fill="#8674FC"/>
<path d="M394.637 359.924H391.833V369.946H394.637V359.924Z" fill="#8674FC"/>
<path d="M398.669 357.428H395.866V372.404H398.669V357.428Z" fill="#8674FC"/>
<path d="M402.739 358.08H399.936V371.789H402.739V358.08Z" fill="#8674FC"/>
<path d="M406.771 356.812H403.968V373.017H406.771V356.812Z" fill="#8674FC"/>
<path d="M411.187 353.242H408.384V375.361H411.187V353.242Z" fill="#E1DCFF"/>
<path d="M415.219 353.242H412.416V375.361H415.219V353.242Z" fill="#E1DCFF"/>
<path d="M411.187 359.693H408.384V370.215H411.187V359.693Z" fill="#8674FC"/>
<path d="M415.219 360.576H412.416V369.293H415.219V360.576Z" fill="#8674FC"/>
<path fill-rule="evenodd" clip-rule="evenodd" d="M312 386.805H418.137C419.481 386.805 420.595 387.918 420.595 389.262V412.11C420.595 413.454 419.481 414.568 418.137 414.568H312C310.656 414.568 309.542 413.454 309.542 412.11V389.262C309.542 387.88 310.617 386.805 312 386.805Z" fill="#F1EFFC"/>
<path fill-rule="evenodd" clip-rule="evenodd" d="M312 386.535H418.137C418.867 386.535 419.558 386.842 420.057 387.342C420.557 387.841 420.864 388.494 420.864 389.262V412.11C420.864 412.839 420.557 413.53 420.057 414.03C419.558 414.529 418.905 414.836 418.137 414.836H312C311.27 414.836 310.579 414.529 310.08 414.03C309.581 413.53 309.273 412.878 309.273 412.11V389.262C309.273 388.532 309.581 387.841 310.08 387.342C310.579 386.842 311.232 386.535 312 386.535ZM418.099 387.034H312C311.385 387.034 310.848 387.303 310.425 387.687C310.041 388.071 309.773 388.647 309.773 389.262V412.11C309.773 412.724 310.003 413.262 310.425 413.684C310.809 414.068 311.385 414.337 312 414.337H418.137C418.752 414.337 419.289 414.106 419.712 413.684C420.096 413.3 420.365 412.724 420.365 412.11V389.262C420.365 388.647 420.134 388.11 419.712 387.687C419.289 387.265 418.713 387.034 418.099 387.034Z" fill="#604FCC"/>
<path fill-rule="evenodd" clip-rule="evenodd" d="M315.456 395.904H334.848C335.155 395.904 335.424 396.173 335.424 396.48V409.306C335.424 409.613 335.155 409.882 334.848 409.882H315.456C315.149 409.882 314.88 409.613 314.88 409.306V396.48C314.88 396.135 315.149 395.904 315.456 395.904ZM315.302 391.488H318.835C319.065 391.488 319.257 391.68 319.257 391.911V393.984C319.257 394.215 319.065 394.407 318.835 394.407H315.302C315.072 394.407 314.88 394.215 314.88 393.984V391.911C314.88 391.642 315.072 391.488 315.302 391.488ZM323.405 391.488H326.937C327.168 391.488 327.36 391.68 327.36 391.911V393.984C327.36 394.215 327.168 394.407 326.937 394.407H323.405C323.174 394.407 322.982 394.215 322.982 393.984V391.911C322.982 391.642 323.174 391.488 323.405 391.488ZM331.507 391.488H335.04C335.27 391.488 335.462 391.68 335.462 391.911V393.984C335.462 394.215 335.27 394.407 335.04 394.407H331.507C331.277 394.407 331.085 394.215 331.085 393.984V391.911C331.085 391.642 331.277 391.488 331.507 391.488Z" fill="#7864FA"/>
<path d="M345.37 389.607H342.566V411.764H345.37V389.607Z" fill="#E1DCFF"/>
<path d="M349.44 389.607H346.637V411.764H349.44V389.607Z" fill="#E1DCFF"/>
<path d="M353.472 389.607H350.668V411.764H353.472V389.607Z" fill="#E1DCFF"/>
<path d="M357.504 389.607H354.701V411.764H357.504V389.607Z" fill="#E1DCFF"/>
<path d="M361.574 389.607H358.771V411.764H361.574V389.607Z" fill="#E1DCFF"/>
<path d="M365.606 389.607H362.803V411.764H365.606V389.607Z" fill="#E1DCFF"/>
<path d="M369.638 389.607H366.835V411.764H369.638V389.607Z" fill="#E1DCFF"/>
<path d="M373.708 389.607H370.905V411.764H373.708V389.607Z" fill="#E1DCFF"/>
<path d="M377.741 389.607H374.938V411.764H377.741V389.607Z" fill="#E1DCFF"/>
<path d="M381.772 389.607H378.969V411.764H381.772V389.607Z" fill="#E1DCFF"/>
<path d="M345.37 396.02H342.566V406.541H345.37V396.02Z" fill="#8674FC"/>
<path d="M349.44 396.902H346.637V405.619H349.44V396.902Z" fill="#8674FC"/>
<path d="M353.472 394.291H350.668V408.269H353.472V394.291Z" fill="#8674FC"/>
<path d="M357.504 395.982H354.701V406.542H357.504V395.982Z" fill="#8674FC"/>
<path d="M361.574 398.631H358.771V403.93H361.574V398.631Z" fill="#8674FC"/>
<path d="M365.606 394.215H362.803V408.346H365.606V394.215Z" fill="#8674FC"/>
<path d="M369.638 396.25H366.835V406.272H369.638V396.25Z" fill="#8674FC"/>
<path d="M373.708 393.793H370.905V408.769H373.708V393.793Z" fill="#8674FC"/>
<path d="M377.741 394.406H374.938V408.115H377.741V394.406Z" fill="#8674FC"/>
<path d="M381.772 393.178H378.969V409.383H381.772V393.178Z" fill="#8674FC"/>
<path d="M386.534 389.607H383.731V411.764H386.534V389.607Z" fill="#E1DCFF"/>
<path d="M390.604 389.607H387.801V411.764H390.604V389.607Z" fill="#E1DCFF"/>
<path d="M394.637 389.607H391.833V411.764H394.637V389.607Z" fill="#E1DCFF"/>
<path d="M398.668 389.607H395.865V411.764H398.668V389.607Z" fill="#E1DCFF"/>
<path d="M402.739 389.607H399.936V411.764H402.739V389.607Z" fill="#E1DCFF"/>
<path d="M406.771 389.607H403.968V411.764H406.771V389.607Z" fill="#E1DCFF"/>
<path d="M386.534 398.631H383.731V403.93H386.534V398.631Z" fill="#8674FC"/>
<path d="M390.604 394.254H387.801V408.308H390.604V394.254Z" fill="#8674FC"/>
<path d="M394.637 396.25H391.833V406.272H394.637V396.25Z" fill="#8674FC"/>
<path d="M398.668 393.793H395.865V408.769H398.668V393.793Z" fill="#8674FC"/>
<path d="M402.739 394.406H399.936V408.115H402.739V394.406Z" fill="#8674FC"/>
<path d="M406.771 393.178H403.968V409.383H406.771V393.178Z" fill="#8674FC"/>
<path d="M411.187 389.607H408.384V411.764H411.187V389.607Z" fill="#E1DCFF"/>
<path d="M415.219 389.607H412.416V411.764H415.219V389.607Z" fill="#E1DCFF"/>
<path d="M411.187 396.02H408.384V406.541H411.187V396.02Z" fill="#8674FC"/>
<path d="M415.219 396.902H412.416V405.619H415.219V396.902Z" fill="#8674FC"/>
<path fill-rule="evenodd" clip-rule="evenodd" d="M312 423.129H418.137C419.481 423.129 420.595 424.243 420.595 425.587V448.435C420.595 449.779 419.481 450.892 418.137 450.892H312C310.656 450.892 309.542 449.779 309.542 448.435V425.587C309.542 424.243 310.617 423.129 312 423.129Z" fill="#F1EFFC"/>
<path fill-rule="evenodd" clip-rule="evenodd" d="M312 422.898H418.137C418.867 422.898 419.558 423.206 420.057 423.705C420.557 424.204 420.864 424.857 420.864 425.625V448.473C420.864 449.202 420.557 449.894 420.057 450.393C419.558 450.892 418.905 451.199 418.137 451.199H312C311.27 451.199 310.579 450.892 310.08 450.393C309.581 449.894 309.273 449.241 309.273 448.473V425.625C309.273 424.895 309.581 424.204 310.08 423.705C310.579 423.206 311.232 422.898 312 422.898ZM418.099 423.359H312C311.385 423.359 310.848 423.628 310.425 424.012C310.041 424.396 309.773 424.972 309.773 425.586V448.434C309.773 449.049 310.003 449.586 310.425 450.009C310.809 450.393 311.385 450.662 312 450.662H418.137C418.752 450.662 419.289 450.431 419.712 450.009C420.096 449.625 420.365 449.049 420.365 448.434V425.586C420.365 424.972 420.134 424.434 419.712 424.012C419.289 423.628 418.713 423.359 418.099 423.359Z" fill="#604FCC"/>
<path fill-rule="evenodd" clip-rule="evenodd" d="M315.456 432.23H334.848C335.155 432.23 335.424 432.499 335.424 432.806V445.632C335.424 445.939 335.155 446.208 334.848 446.208H315.456C315.149 446.208 314.88 445.939 314.88 445.632V432.806C314.88 432.499 315.149 432.23 315.456 432.23ZM315.302 427.814H318.835C319.065 427.814 319.257 428.006 319.257 428.237V430.31C319.257 430.541 319.065 430.733 318.835 430.733H315.302C315.072 430.733 314.88 430.541 314.88 430.31V428.237C314.88 428.006 315.072 427.814 315.302 427.814ZM323.405 427.814H326.937C327.168 427.814 327.36 428.006 327.36 428.237V430.31C327.36 430.541 327.168 430.733 326.937 430.733H323.405C323.174 430.733 322.982 430.541 322.982 430.31V428.237C322.982 428.006 323.174 427.814 323.405 427.814ZM331.507 427.814H335.04C335.27 427.814 335.462 428.006 335.462 428.237V430.31C335.462 430.541 335.27 430.733 335.04 430.733H331.507C331.277 430.733 331.085 430.541 331.085 430.31V428.237C331.085 428.006 331.277 427.814 331.507 427.814Z" fill="#7864FA"/>
<path d="M345.37 425.932H342.566V448.05H345.37V425.932Z" fill="#E1DCFF"/>
<path d="M349.44 425.932H346.637V448.05H349.44V425.932Z" fill="#E1DCFF"/>
<path d="M353.472 425.932H350.668V448.05H353.472V425.932Z" fill="#E1DCFF"/>
<path d="M357.504 425.932H354.701V448.05H357.504V425.932Z" fill="#E1DCFF"/>
<path d="M361.574 425.932H358.771V448.05H361.574V425.932Z" fill="#E1DCFF"/>
<path d="M365.606 425.932H362.803V448.05H365.606V425.932Z" fill="#E1DCFF"/>
<path d="M369.638 425.932H366.835V448.05H369.638V425.932Z" fill="#E1DCFF"/>
<path d="M373.708 425.932H370.905V448.05H373.708V425.932Z" fill="#E1DCFF"/>
<path d="M377.741 425.932H374.938V448.05H377.741V425.932Z" fill="#E1DCFF"/>
<path d="M381.772 425.932H378.969V448.05H381.772V425.932Z" fill="#E1DCFF"/>
<path d="M345.37 432.346H342.566V442.867H345.37V432.346Z" fill="#8674FC"/>
<path d="M349.44 433.266H346.637V441.982H349.44V433.266Z" fill="#8674FC"/>
<path d="M353.472 430.617H350.668V444.595H353.472V430.617Z" fill="#8674FC"/>
<path d="M357.504 432.346H354.701V442.906H357.504V432.346Z" fill="#8674FC"/>
<path d="M361.574 434.955H358.771V440.254H361.574V434.955Z" fill="#8674FC"/>
<path d="M365.606 430.539H362.803V444.67H365.606V430.539Z" fill="#8674FC"/>
<path d="M369.638 432.613H366.835V442.636H369.638V432.613Z" fill="#8674FC"/>
<path d="M373.708 430.117H370.905V445.093H373.708V430.117Z" fill="#8674FC"/>
<path d="M377.741 430.732H374.938V444.441H377.741V430.732Z" fill="#8674FC"/>
<path d="M381.772 429.504H378.969V445.709H381.772V429.504Z" fill="#8674FC"/>
<path d="M386.534 425.932H383.731V448.05H386.534V425.932Z" fill="#E1DCFF"/>
<path d="M390.604 425.932H387.801V448.05H390.604V425.932Z" fill="#E1DCFF"/>
<path d="M394.637 425.932H391.833V448.05H394.637V425.932Z" fill="#E1DCFF"/>
<path d="M398.668 425.932H395.865V448.05H398.668V425.932Z" fill="#E1DCFF"/>
<path d="M402.739 425.932H399.936V448.05H402.739V425.932Z" fill="#E1DCFF"/>
<path d="M406.771 425.932H403.968V448.05H406.771V425.932Z" fill="#E1DCFF"/>
<path d="M386.534 434.955H383.731V440.254H386.534V434.955Z" fill="#8674FC"/>
<path d="M390.604 430.578H387.801V444.633H390.604V430.578Z" fill="#8674FC"/>
<path d="M394.637 432.613H391.833V442.636H394.637V432.613Z" fill="#8674FC"/>
<path d="M398.668 430.117H395.865V445.093H398.668V430.117Z" fill="#8674FC"/>
<path d="M402.739 430.732H399.936V444.441H402.739V430.732Z" fill="#8674FC"/>
<path d="M406.771 429.504H403.968V445.709H406.771V429.504Z" fill="#8674FC"/>
<path d="M411.187 425.932H408.384V448.05H411.187V425.932Z" fill="#E1DCFF"/>
<path d="M415.219 425.932H412.416V448.05H415.219V425.932Z" fill="#E1DCFF"/>
<path d="M411.187 432.346H408.384V442.867H411.187V432.346Z" fill="#8674FC"/>
<path d="M415.219 433.266H412.416V441.982H415.219V433.266Z" fill="#8674FC"/>
<path fill-rule="evenodd" clip-rule="evenodd" d="M312 459.457H418.137C419.481 459.457 420.595 460.571 420.595 461.915V484.763C420.595 486.107 419.481 487.22 418.137 487.22H312C310.656 487.22 309.542 486.107 309.542 484.763V461.915C309.542 460.571 310.617 459.457 312 459.457Z" fill="#C4BBFA"/>
<path fill-rule="evenodd" clip-rule="evenodd" d="M312 459.227H418.137C418.867 459.227 419.558 459.534 420.057 460.033C420.557 460.532 420.864 461.185 420.864 461.953V484.801C420.864 485.531 420.557 486.222 420.057 486.721C419.558 487.22 418.905 487.527 418.137 487.527H312C311.27 487.527 310.579 487.22 310.08 486.721C309.581 486.222 309.273 485.569 309.273 484.801V461.953C309.273 461.223 309.581 460.532 310.08 460.033C310.579 459.534 311.232 459.227 312 459.227ZM418.099 459.726H312C311.385 459.726 310.848 459.995 310.425 460.379C310.041 460.763 309.773 461.339 309.773 461.953V484.801C309.773 485.415 310.003 485.953 310.425 486.375C310.809 486.759 311.385 487.028 312 487.028H418.137C418.752 487.028 419.289 486.798 419.712 486.375C420.096 485.991 420.365 485.415 420.365 484.801V461.953C420.365 461.339 420.134 460.801 419.712 460.379C419.289 459.956 418.713 459.726 418.099 459.726Z" fill="#604FCC"/>
<path fill-rule="evenodd" clip-rule="evenodd" d="M315.456 468.559H334.848C335.155 468.559 335.424 468.827 335.424 469.135V481.96C335.424 482.267 335.155 482.536 334.848 482.536H315.456C315.149 482.536 314.88 482.267 314.88 481.96V469.135C314.88 468.827 315.149 468.559 315.456 468.559ZM315.302 464.143H318.835C319.065 464.143 319.257 464.335 319.257 464.565V466.639C319.257 466.869 319.065 467.061 318.835 467.061H315.302C315.072 467.061 314.88 466.869 314.88 466.639V464.565C314.88 464.335 315.072 464.143 315.302 464.143ZM323.405 464.143H326.937C327.168 464.143 327.36 464.335 327.36 464.565V466.639C327.36 466.869 327.168 467.061 326.937 467.061H323.405C323.174 467.061 322.982 466.869 322.982 466.639V464.565C322.982 464.335 323.174 464.143 323.405 464.143ZM331.507 464.143H335.04C335.27 464.143 335.462 464.335 335.462 464.565V466.639C335.462 466.869 335.27 467.061 335.04 467.061H331.507C331.277 467.061 331.085 466.869 331.085 466.639V464.565C331.085 464.335 331.277 464.143 331.507 464.143Z" fill="#7864FA"/>
<path d="M345.37 462.299H342.566V484.456H345.37V462.299Z" fill="#E1DCFF"/>
<path d="M349.44 462.299H346.637V484.456H349.44V462.299Z" fill="#E1DCFF"/>
<path d="M353.472 462.299H350.668V484.456H353.472V462.299Z" fill="#E1DCFF"/>
<path d="M357.504 462.299H354.701V484.456H357.504V462.299Z" fill="#E1DCFF"/>
<path d="M361.574 462.299H358.771V484.456H361.574V462.299Z" fill="#E1DCFF"/>
<path d="M365.606 462.299H362.803V484.456H365.606V462.299Z" fill="#E1DCFF"/>
<path d="M369.638 462.299H366.835V484.456H369.638V462.299Z" fill="#E1DCFF"/>
<path d="M373.708 462.299H370.905V484.456H373.708V462.299Z" fill="#E1DCFF"/>
<path d="M377.741 462.299H374.938V484.456H377.741V462.299Z" fill="#E1DCFF"/>
<path d="M381.772 462.299H378.969V484.456H381.772V462.299Z" fill="#E1DCFF"/>
<path d="M345.37 468.711H342.566V479.233H345.37V468.711Z" fill="#8674FC"/>
<path d="M349.44 469.594H346.637V478.311H349.44V469.594Z" fill="#8674FC"/>
<path d="M353.472 466.982H350.668V480.96H353.472V466.982Z" fill="#8674FC"/>
<path d="M357.504 468.674H354.701V479.234H357.504V468.674Z" fill="#8674FC"/>
<path d="M361.574 471.322H358.771V476.621H361.574V471.322Z" fill="#8674FC"/>
<path d="M365.606 466.869H362.803V481H365.606V466.869Z" fill="#8674FC"/>
<path d="M369.638 468.941H366.835V478.964H369.638V468.941Z" fill="#8674FC"/>
<path d="M373.708 466.445H370.905V481.421H373.708V466.445Z" fill="#8674FC"/>
<path d="M377.741 467.098H374.938V480.806H377.741V467.098Z" fill="#8674FC"/>
<path d="M381.772 465.832H378.969V482.037H381.772V465.832Z" fill="#8674FC"/>
<path d="M386.534 462.299H383.731V484.456H386.534V462.299Z" fill="#E1DCFF"/>
<path d="M390.604 462.299H387.801V484.456H390.604V462.299Z" fill="#E1DCFF"/>
<path d="M394.637 462.299H391.833V484.456H394.637V462.299Z" fill="#E1DCFF"/>
<path d="M398.668 462.299H395.865V484.456H398.668V462.299Z" fill="#E1DCFF"/>
<path d="M402.739 462.299H399.936V484.456H402.739V462.299Z" fill="#E1DCFF"/>
<path d="M406.771 462.299H403.968V484.456H406.771V462.299Z" fill="#E1DCFF"/>
<path d="M386.534 471.322H383.731V476.621H386.534V471.322Z" fill="#8674FC"/>
<path d="M390.604 466.945H387.801V481H390.604V466.945Z" fill="#8674FC"/>
<path d="M394.637 468.941H391.833V478.964H394.637V468.941Z" fill="#8674FC"/>
<path d="M398.668 466.445H395.865V481.421H398.668V466.445Z" fill="#8674FC"/>
<path d="M402.739 467.098H399.936V480.806H402.739V467.098Z" fill="#8674FC"/>
<path d="M406.771 465.832H403.968V482.037H406.771V465.832Z" fill="#8674FC"/>
<path d="M411.187 462.299H408.384V484.456H411.187V462.299Z" fill="#E1DCFF"/>
<path d="M415.219 462.299H412.416V484.456H415.219V462.299Z" fill="#E1DCFF"/>
<path d="M411.187 468.711H408.384V479.233H411.187V468.711Z" fill="#8674FC"/>
<path d="M415.219 469.594H412.416V478.311H415.219V469.594Z" fill="#8674FC"/>
<path fill-rule="evenodd" clip-rule="evenodd" d="M312 495.822H418.137C419.481 495.822 420.595 496.936 420.595 498.28V521.128C420.595 522.472 419.481 523.585 418.137 523.585H312C310.656 523.585 309.542 522.472 309.542 521.128V498.28C309.542 496.936 310.617 495.822 312 495.822Z" fill="#C4BBFA"/>
<path fill-rule="evenodd" clip-rule="evenodd" d="M312 495.553H418.137C418.867 495.553 419.558 495.86 420.057 496.359C420.557 496.858 420.864 497.511 420.864 498.279V521.127C420.864 521.857 420.557 522.548 420.057 523.047C419.558 523.546 418.905 523.854 418.137 523.854H312C311.27 523.854 310.579 523.546 310.08 523.047C309.581 522.548 309.273 521.895 309.273 521.127V498.279C309.273 497.55 309.581 496.858 310.08 496.359C310.579 495.86 311.232 495.553 312 495.553ZM418.099 496.052H312C311.385 496.052 310.848 496.321 310.425 496.705C310.041 497.089 309.773 497.665 309.773 498.279V521.127C309.773 521.742 310.003 522.279 310.425 522.702C310.809 523.086 311.385 523.354 312 523.354H418.137C418.752 523.354 419.289 523.124 419.712 522.702C420.096 522.318 420.365 521.742 420.365 521.127V498.279C420.365 497.665 420.134 497.127 419.712 496.705C419.289 496.321 418.713 496.052 418.099 496.052Z" fill="#604FCC"/>
<path fill-rule="evenodd" clip-rule="evenodd" d="M315.456 504.922H334.848C335.155 504.922 335.424 505.191 335.424 505.498V518.323C335.424 518.631 335.155 518.899 334.848 518.899H315.456C315.149 518.899 314.88 518.631 314.88 518.323V505.498C314.88 505.191 315.149 504.922 315.456 504.922ZM315.302 500.506H318.835C319.065 500.506 319.257 500.698 319.257 500.928V503.002C319.257 503.232 319.065 503.424 318.835 503.424H315.302C315.072 503.424 314.88 503.232 314.88 503.002V500.928C314.88 500.659 315.072 500.506 315.302 500.506ZM323.405 500.506H326.937C327.168 500.506 327.36 500.698 327.36 500.928V503.002C327.36 503.232 327.168 503.424 326.937 503.424H323.405C323.174 503.424 322.982 503.232 322.982 503.002V500.928C322.982 500.659 323.174 500.506 323.405 500.506ZM331.507 500.506H335.04C335.27 500.506 335.462 500.698 335.462 500.928V503.002C335.462 503.232 335.27 503.424 335.04 503.424H331.507C331.277 503.424 331.085 503.232 331.085 503.002V500.928C331.085 500.659 331.277 500.506 331.507 500.506Z" fill="#7864FA"/>
<path d="M345.37 498.625H342.566V520.743H345.37V498.625Z" fill="#E1DCFF"/>
<path d="M349.44 498.625H346.637V520.743H349.44V498.625Z" fill="#E1DCFF"/>
<path d="M353.472 498.625H350.668V520.743H353.472V498.625Z" fill="#E1DCFF"/>
<path d="M357.504 498.625H354.701V520.743H357.504V498.625Z" fill="#E1DCFF"/>
<path d="M361.574 498.625H358.771V520.743H361.574V498.625Z" fill="#E1DCFF"/>
<path d="M365.606 498.625H362.803V520.743H365.606V498.625Z" fill="#E1DCFF"/>
<path d="M369.638 498.625H366.835V520.743H369.638V498.625Z" fill="#E1DCFF"/>
<path d="M373.708 498.625H370.905V520.743H373.708V498.625Z" fill="#E1DCFF"/>
<path d="M377.741 498.625H374.938V520.743H377.741V498.625Z" fill="#E1DCFF"/>
<path d="M381.772 498.625H378.969V520.743H381.772V498.625Z" fill="#E1DCFF"/>
<path d="M345.37 505.037H342.566V515.559H345.37V505.037Z" fill="#8674FC"/>
<path d="M349.44 505.959H346.637V514.676H349.44V505.959Z" fill="#8674FC"/>
<path d="M353.472 503.309H350.668V517.286H353.472V503.309Z" fill="#8674FC"/>
<path d="M357.504 505.037H354.701V515.597H357.504V505.037Z" fill="#8674FC"/>
<path d="M361.574 507.648H358.771V512.948H361.574V507.648Z" fill="#8674FC"/>
<path d="M365.606 503.232H362.803V517.364H365.606V503.232Z" fill="#8674FC"/>
<path d="M369.638 505.307H366.835V515.329H369.638V505.307Z" fill="#8674FC"/>
<path d="M373.708 502.811H370.905V517.787H373.708V502.811Z" fill="#8674FC"/>
<path d="M377.741 503.424H374.938V517.133H377.741V503.424Z" fill="#8674FC"/>
<path d="M381.772 502.195H378.969V518.4H381.772V502.195Z" fill="#8674FC"/>
<path d="M386.534 498.625H383.731V520.743H386.534V498.625Z" fill="#E1DCFF"/>
<path d="M390.604 498.625H387.801V520.743H390.604V498.625Z" fill="#E1DCFF"/>
<path d="M394.637 498.625H391.833V520.743H394.637V498.625Z" fill="#E1DCFF"/>
<path d="M398.668 498.625H395.865V520.743H398.668V498.625Z" fill="#E1DCFF"/>
<path d="M402.739 498.625H399.936V520.743H402.739V498.625Z" fill="#E1DCFF"/>
<path d="M406.771 498.625H403.968V520.743H406.771V498.625Z" fill="#E1DCFF"/>
<path d="M386.534 507.648H383.731V512.948H386.534V507.648Z" fill="#8674FC"/>
<path d="M390.604 503.271H387.801V517.326H390.604V503.271Z" fill="#8674FC"/>
<path d="M394.637 505.307H391.833V515.329H394.637V505.307Z" fill="#8674FC"/>
<path d="M398.668 502.811H395.865V517.787H398.668V502.811Z" fill="#8674FC"/>
<path d="M402.739 503.424H399.936V517.133H402.739V503.424Z" fill="#8674FC"/>
<path d="M406.771 502.195H403.968V518.4H406.771V502.195Z" fill="#8674FC"/>
<path d="M411.187 498.625H408.384V520.743H411.187V498.625Z" fill="#E1DCFF"/>
<path d="M415.219 498.625H412.416V520.743H415.219V498.625Z" fill="#E1DCFF"/>
<path d="M411.187 505.037H408.384V515.559H411.187V505.037Z" fill="#8674FC"/>
<path d="M415.219 505.959H412.416V514.676H415.219V505.959Z" fill="#8674FC"/>
<path fill-rule="evenodd" clip-rule="evenodd" d="M312 532.146H418.137C419.481 532.146 420.595 533.26 420.595 534.604V557.452C420.595 558.796 419.481 559.91 418.137 559.91H312C310.656 559.91 309.542 558.796 309.542 557.452V534.604C309.542 533.26 310.617 532.146 312 532.146Z" fill="#C4BBFA"/>
<path fill-rule="evenodd" clip-rule="evenodd" d="M312 531.916H418.137C418.867 531.916 419.558 532.223 420.057 532.722C420.557 533.222 420.864 533.874 420.864 534.642V557.49C420.864 558.22 420.557 558.911 420.057 559.41C419.558 559.91 418.905 560.217 418.137 560.217H312C311.27 560.217 310.579 559.91 310.08 559.41C309.581 558.911 309.273 558.258 309.273 557.49V534.642C309.273 533.913 309.581 533.222 310.08 532.722C310.579 532.223 311.232 531.916 312 531.916ZM418.099 532.377H312C311.385 532.377 310.848 532.646 310.425 533.03C310.041 533.414 309.773 533.99 309.773 534.604V557.452C309.773 558.066 310.003 558.604 310.425 559.026C310.809 559.41 311.385 559.679 312 559.679H418.137C418.752 559.679 419.289 559.449 419.712 559.026C420.096 558.642 420.365 558.066 420.365 557.452V534.604C420.365 533.99 420.134 533.452 419.712 533.03C419.289 532.646 418.713 532.377 418.099 532.377Z" fill="#604FCC"/>
<path fill-rule="evenodd" clip-rule="evenodd" d="M315.456 541.248H334.848C335.155 541.248 335.424 541.517 335.424 541.824V554.65C335.424 554.957 335.155 555.226 334.848 555.226H315.456C315.149 555.226 314.88 554.957 314.88 554.65V541.824C314.88 541.517 315.149 541.248 315.456 541.248ZM315.302 536.832H318.835C319.065 536.832 319.257 537.024 319.257 537.254V539.328C319.257 539.558 319.065 539.75 318.835 539.75H315.302C315.072 539.75 314.88 539.558 314.88 539.328V537.254C314.88 537.024 315.072 536.832 315.302 536.832ZM323.405 536.832H326.937C327.168 536.832 327.36 537.024 327.36 537.254V539.328C327.36 539.558 327.168 539.75 326.937 539.75H323.405C323.174 539.75 322.982 539.558 322.982 539.328V537.254C322.982 537.024 323.174 536.832 323.405 536.832ZM331.507 536.832H335.04C335.27 536.832 335.462 537.024 335.462 537.254V539.328C335.462 539.558 335.27 539.75 335.04 539.75H331.507C331.277 539.75 331.085 539.558 331.085 539.328V537.254C331.085 537.024 331.277 536.832 331.507 536.832Z" fill="#7864FA"/>
<path d="M345.37 534.949H342.566V557.068H345.37V534.949Z" fill="#E1DCFF"/>
<path d="M349.44 534.949H346.637V557.068H349.44V534.949Z" fill="#E1DCFF"/>
<path d="M353.472 534.949H350.668V557.068H353.472V534.949Z" fill="#E1DCFF"/>
<path d="M357.504 534.949H354.701V557.068H357.504V534.949Z" fill="#E1DCFF"/>
<path d="M361.574 534.949H358.771V557.068H361.574V534.949Z" fill="#E1DCFF"/>
<path d="M365.606 534.949H362.803V557.068H365.606V534.949Z" fill="#E1DCFF"/>
<path d="M369.638 534.949H366.835V557.068H369.638V534.949Z" fill="#E1DCFF"/>
<path d="M373.708 534.949H370.905V557.068H373.708V534.949Z" fill="#E1DCFF"/>
<path d="M377.741 534.949H374.938V557.068H377.741V534.949Z" fill="#E1DCFF"/>
<path d="M381.772 534.949H378.969V557.068H381.772V534.949Z" fill="#E1DCFF"/>
<path d="M345.37 541.4H342.566V551.922H345.37V541.4Z" fill="#8674FC"/>
<path d="M349.44 542.283H346.637V551H349.44V542.283Z" fill="#8674FC"/>
<path d="M353.472 539.635H350.668V553.612H353.472V539.635Z" fill="#8674FC"/>
<path d="M357.504 541.363H354.701V551.923H357.504V541.363Z" fill="#8674FC"/>
<path d="M361.574 544.012H358.771V549.311H361.574V544.012Z" fill="#8674FC"/>
<path d="M365.606 539.559H362.803V553.69H365.606V539.559Z" fill="#8674FC"/>
<path d="M369.638 541.631H366.835V551.653H369.638V541.631Z" fill="#8674FC"/>
<path d="M373.708 539.135H370.905V554.111H373.708V539.135Z" fill="#8674FC"/>
<path d="M377.741 539.787H374.938V553.496H377.741V539.787Z" fill="#8674FC"/>
<path d="M381.772 538.521H378.969V554.726H381.772V538.521Z" fill="#8674FC"/>
<path d="M386.534 534.949H383.731V557.068H386.534V534.949Z" fill="#E1DCFF"/>
<path d="M390.604 534.949H387.801V557.068H390.604V534.949Z" fill="#E1DCFF"/>
<path d="M394.637 534.949H391.833V557.068H394.637V534.949Z" fill="#E1DCFF"/>
<path d="M398.668 534.949H395.865V557.068H398.668V534.949Z" fill="#E1DCFF"/>
<path d="M402.739 534.949H399.936V557.068H402.739V534.949Z" fill="#E1DCFF"/>
<path d="M406.771 534.949H403.968V557.068H406.771V534.949Z" fill="#E1DCFF"/>
<path d="M386.534 544.012H383.731V549.311H386.534V544.012Z" fill="#8674FC"/>
<path d="M390.604 539.635H387.801V553.689H390.604V539.635Z" fill="#8674FC"/>
<path d="M394.637 541.631H391.833V551.653H394.637V541.631Z" fill="#8674FC"/>
<path d="M398.668 539.135H395.865V554.111H398.668V539.135Z" fill="#8674FC"/>
<path d="M402.739 539.787H399.936V553.496H402.739V539.787Z" fill="#8674FC"/>
<path d="M406.771 538.521H403.968V554.726H406.771V538.521Z" fill="#8674FC"/>
<path d="M411.187 534.949H408.384V557.068H411.187V534.949Z" fill="#E1DCFF"/>
<path d="M415.219 534.949H412.416V557.068H415.219V534.949Z" fill="#E1DCFF"/>
<path d="M411.187 541.4H408.384V551.922H411.187V541.4Z" fill="#8674FC"/>
<path d="M415.219 542.283H412.416V551H415.219V542.283Z" fill="#8674FC"/>
<path fill-rule="evenodd" clip-rule="evenodd" d="M657.792 456.461L664.128 460.147C666.278 461.376 667.008 464.141 665.741 466.291L664.358 468.711C662.707 471.552 663.437 472.819 663.936 473.28C665.357 474.547 666.662 475.891 667.968 477.274C668.352 477.658 669.581 479.04 672.806 477.159L674.995 475.891C677.146 474.663 679.872 475.392 681.139 477.504L684.826 483.84C686.054 485.991 685.325 488.717 683.213 489.984L681.024 491.251C677.99 493.018 678.067 493.901 678.451 495.168C678.989 496.935 679.526 498.663 679.91 500.506C680.256 502.119 680.102 503.271 684.211 503.271H686.707C689.165 503.271 691.2 505.267 691.2 507.763V515.098C691.2 517.555 689.203 519.591 686.707 519.591H684.211C680.102 519.591 680.256 520.743 679.91 522.355C679.526 524.16 678.95 525.927 678.451 527.693C678.067 528.96 677.99 529.882 681.024 531.61L683.213 532.877C685.363 534.106 686.093 536.871 684.826 539.021L681.139 545.357C679.91 547.507 677.146 548.237 674.995 546.97L672.806 545.703C669.581 543.821 668.352 545.203 667.968 545.587C666.662 546.931 665.357 548.314 663.936 549.581C663.437 550.042 662.707 551.309 664.358 554.151L665.741 556.57C666.97 558.72 666.24 561.447 664.128 562.714L657.792 566.4C655.642 567.629 652.915 566.899 651.648 564.787L650.266 562.407C648.576 559.527 646.963 559.642 646.234 559.872C644.198 560.525 642.355 560.947 640.282 561.485C639.514 561.677 638.208 562.253 638.208 565.671V568.243C638.208 570.701 636.211 572.736 633.715 572.736H626.381C623.923 572.736 621.888 570.739 621.888 568.243V565.671C621.888 562.253 620.582 561.677 619.814 561.485C617.741 560.947 615.859 560.525 613.862 559.872C613.171 559.642 611.52 559.527 609.83 562.407L608.448 564.787C607.219 566.938 604.454 567.667 602.304 566.4L595.968 562.714C593.818 561.485 593.088 558.72 594.355 556.57L595.738 554.151C597.389 551.309 596.659 550.042 596.16 549.581C594.739 548.314 593.434 546.97 592.128 545.587C591.744 545.203 590.515 543.821 587.29 545.703L585.101 546.97C582.95 548.199 580.224 547.469 578.957 545.357L575.27 539.021C574.042 536.871 574.771 534.144 576.883 532.877L579.072 531.61C582.106 529.843 582.029 528.96 581.645 527.693C581.107 525.927 580.57 524.199 580.186 522.355C579.84 520.743 579.994 519.591 575.885 519.591H573.389C570.931 519.591 568.896 517.555 568.896 515.098V507.763C568.896 505.306 570.893 503.271 573.389 503.271H575.885C579.994 503.271 579.84 502.119 580.186 500.506C580.57 498.701 581.146 496.935 581.645 495.168C582.029 493.901 582.106 492.979 579.072 491.251L576.883 489.984C574.733 488.755 574.003 485.991 575.27 483.84L578.957 477.504C580.186 475.354 582.95 474.624 585.101 475.891L587.29 477.159C590.515 479.04 591.744 477.658 592.128 477.274C593.434 475.93 594.739 474.547 596.16 473.28C596.659 472.819 597.389 471.552 595.738 468.711L594.355 466.291C593.126 464.141 593.856 461.415 595.968 460.147L602.304 456.461C604.454 455.232 607.181 455.962 608.448 458.074L609.83 460.455C611.52 463.335 613.133 463.219 613.862 462.989C615.898 462.336 617.741 461.914 619.814 461.376C620.582 461.184 621.888 460.608 621.888 457.191V454.618C621.888 452.16 623.885 450.125 626.381 450.125H633.715C636.173 450.125 638.208 452.122 638.208 454.618V457.191C638.208 460.608 639.514 461.184 640.282 461.376C642.355 461.914 644.237 462.336 646.234 462.989C646.925 463.219 648.576 463.335 650.266 460.455L651.648 458.074C652.915 455.923 655.68 455.194 657.792 456.461ZM630.067 475.469C610.253 475.469 594.163 491.559 594.163 511.373C594.163 531.187 610.253 547.277 630.067 547.277C649.882 547.277 665.971 531.187 665.971 511.373C665.971 491.559 649.92 475.469 630.067 475.469Z" fill="#604FCC"/>
<path fill-rule="evenodd" clip-rule="evenodd" d="M649.459 444.096C647.885 444.211 645.465 443.904 645.005 443.367C643.353 441.255 642.201 439.066 641.779 437.683C642.086 436.762 642.432 435.61 642.777 434.189C648.768 430.119 649.613 427.085 645.235 425.127C644.352 425.626 643.277 427.123 641.971 429.696C640.934 429.658 640.128 429.12 639.59 428.083C640.819 423.783 641.625 420.288 642.009 417.639C639.053 413.261 632.141 412.608 622.963 413.799C622.541 416.218 622.195 418.829 621.926 421.555C620.774 422.592 617.472 440.179 628.723 440.871C628.8 442.176 628.685 443.751 628.608 443.904C628.493 444.173 627.993 444.442 627.379 444.672C627.225 450.701 634.56 450.471 649.459 444.096Z" fill="#8F7DFF"/>
<path fill-rule="evenodd" clip-rule="evenodd" d="M623.001 413.837C632.141 412.647 639.091 413.261 642.048 417.677C641.664 420.365 640.857 423.821 639.628 428.122C640.166 429.159 640.934 429.658 642.009 429.735C643.315 427.2 644.39 425.664 645.273 425.165C649.651 427.124 648.806 430.119 642.816 434.228C642.47 435.648 642.125 436.8 641.817 437.722C647.232 436.532 651.725 431.693 652.377 429.581C658.675 417.178 651.648 411.917 647.884 409.997C644.774 404.276 636.057 405.696 629.491 405.581C625.805 405.504 622.733 403.316 621.158 400.551C616.435 404.736 620.237 413.722 623.001 413.837Z" fill="#362891"/>
<path fill-rule="evenodd" clip-rule="evenodd" d="M568.051 465.869C572.582 485.261 580.531 500.314 591.936 511.028C596.044 509.799 599.692 506.996 602.841 502.618C602.726 513.6 602.88 524.506 603.379 535.412C608.716 541.325 616.012 545.472 624.23 546.816C628.185 546.279 632.448 545.242 636.979 543.783L642.547 536.909C643.968 536.64 647.232 538.215 648.806 540.634C661.862 530.65 670.694 519.936 675.878 509.3C674.457 486.413 671.385 468.365 666.547 455.156C664.128 451.431 658.406 447.744 649.42 444.135C634.521 450.509 627.187 450.701 627.34 444.749C622.963 446.17 617.164 448.743 609.907 452.391C603.878 456.96 598.732 469.402 594.47 489.677C587.558 481.037 580.416 471.86 572.966 462.144C571.392 462.567 569.74 463.834 568.051 465.869ZM645.58 530.688C641.241 516.442 643.622 498.855 652.761 477.965C655.065 488.295 657.523 498.432 660.211 508.416C657.1 509.914 652.224 517.325 645.58 530.688Z" fill="#5C44F5"/>
<path fill-rule="evenodd" clip-rule="evenodd" d="M640.013 545.896C639.091 545.281 638.093 544.552 637.017 543.784C632.486 545.243 628.224 546.28 624.269 546.817C626.15 547.124 628.109 547.278 630.105 547.278C633.523 547.278 636.864 546.779 640.013 545.896ZM649.113 541.825L648.806 540.635C648.576 541.172 648.384 541.748 648.23 542.363C648.537 542.171 648.845 541.979 649.113 541.825Z" fill="#4B3BB3"/>
<path fill-rule="evenodd" clip-rule="evenodd" d="M637.018 543.782C638.093 544.589 639.091 545.28 640.013 545.894C642.931 545.05 645.696 543.859 648.269 542.362C648.461 541.747 648.653 541.171 648.845 540.634C647.27 538.214 644.045 536.64 642.586 536.909L637.018 543.782Z" fill="#8F7DFF"/>
<path fill-rule="evenodd" clip-rule="evenodd" d="M602.841 502.619C603.302 488.987 604.377 477.813 606.105 469.096C601.689 487.605 597.427 499.893 593.28 505.96C590.668 505.883 587.366 504.347 583.334 501.313C585.945 504.885 588.787 508.11 591.897 511.029C596.044 509.8 599.692 506.997 602.841 502.619ZM642.585 536.91C643.392 534.913 644.39 532.878 645.58 530.728C641.241 516.481 643.622 498.894 652.761 478.005C639.513 496.859 635.75 516.942 641.472 538.293L642.585 536.91Z" fill="#4A30F0"/>
<path fill-rule="evenodd" clip-rule="evenodd" d="M634.752 439.643C633.293 440.372 631.296 440.795 628.723 440.91C628.761 441.755 628.723 442.753 628.685 443.367C631.257 442.868 633.293 441.639 634.752 439.643Z" fill="#7461F0"/>
<path fill-rule="evenodd" clip-rule="evenodd" d="M640.012 545.895C639.091 545.281 638.092 544.551 637.017 543.783C635.904 544.129 634.79 544.474 633.715 544.782C634.406 545.511 635.136 546.164 635.942 546.817C637.324 546.586 638.668 546.279 640.012 545.895Z" fill="#7764F0"/>
<path fill-rule="evenodd" clip-rule="evenodd" d="M568.051 465.869C567.782 465.178 566.668 463.027 565.555 460.339C562.828 458.957 560.678 455.885 559.027 451.162C559.987 448.013 562.06 446.016 565.171 445.248C566.246 449.165 567.82 452.006 569.894 453.85C569.356 449.779 570.048 448.512 571.891 450.01C571.622 450.547 571.622 451.2 571.852 451.968C573.12 454.042 573.004 456.384 571.507 458.995C572.083 460.186 572.697 461.376 572.966 462.029C571.353 462.605 569.779 463.795 568.051 465.869Z" fill="#8F7DFF"/>
<path fill-rule="evenodd" clip-rule="evenodd" d="M648.922 415.642C646.272 414.298 645.35 412.647 646.118 410.727C649.882 408.692 653.606 408.308 657.216 409.652C655.104 409.959 652.339 411.956 648.922 415.642Z" fill="#362891"/>
<path fill-rule="evenodd" clip-rule="evenodd" d="M647.232 410.766C648.115 411.457 648.845 411.495 649.382 410.919C649.459 409.306 648.998 407.962 647.923 406.964C648.192 407.732 647.961 408.999 647.232 410.766ZM626.765 406.465C622.848 408.462 621.465 410.881 622.617 413.684C628.185 416.718 633.677 417.217 639.014 415.258C635.865 414.874 631.795 411.956 626.765 406.465Z" fill="#362891"/>
<path fill-rule="evenodd" clip-rule="evenodd" d="M633.83 420.75C634.444 420.711 634.944 421.402 634.944 422.247C634.944 423.092 634.444 423.822 633.83 423.86C633.216 423.898 632.716 423.207 632.716 422.362C632.716 421.518 633.216 420.788 633.83 420.75Z" fill="#C4BBFA"/>
<path fill-rule="evenodd" clip-rule="evenodd" d="M633.792 423.898C634.406 423.859 634.906 423.13 634.906 422.285C634.906 421.44 634.406 420.749 633.792 420.787C633.523 420.787 633.293 420.941 633.101 421.171L633.178 421.133C633.37 421.133 633.523 421.325 633.523 421.632C633.523 421.901 633.37 422.131 633.178 422.17C632.986 422.17 632.832 421.978 632.832 421.67V421.632C632.717 421.862 632.678 422.131 632.678 422.438C632.717 423.245 633.177 423.936 633.792 423.898ZM631.987 419.558C631.949 419.597 631.91 419.597 631.91 419.635C631.949 419.482 632.141 419.328 632.179 419.213C632.102 419.251 632.064 419.29 631.987 419.366C631.91 419.443 631.872 419.52 631.834 419.597C631.834 419.482 631.872 419.405 631.872 419.328C631.833 419.405 631.795 419.52 631.757 419.635C631.795 419.328 631.795 419.328 631.91 419.059C631.795 419.136 631.68 419.405 631.642 419.558C631.603 419.482 631.642 419.405 631.642 419.29C631.603 419.405 631.565 419.443 631.565 419.558L631.488 419.443C631.488 419.52 631.526 419.52 631.526 419.597C631.411 419.482 631.181 419.059 631.219 418.829C631.219 418.906 631.296 419.098 631.334 419.136C631.334 418.982 631.296 418.829 631.334 418.637C631.373 418.752 631.334 418.906 631.373 419.021C631.411 419.136 631.411 419.29 631.488 419.366C631.449 419.098 631.411 418.906 631.488 418.637V418.714C631.488 418.829 631.449 418.982 631.488 419.136C631.526 418.906 631.526 418.675 631.718 418.522C631.68 418.598 631.642 418.675 631.603 418.79C631.718 418.675 631.757 418.483 631.91 418.483C631.833 418.56 631.757 418.637 631.68 418.752C631.603 418.829 631.526 419.021 631.565 419.136C631.68 418.714 631.949 418.522 632.218 418.445C632.141 418.483 631.91 418.637 631.872 418.752C631.872 418.867 631.91 418.637 631.872 418.79C631.833 418.829 631.757 418.906 631.718 418.982C631.68 419.021 631.68 419.098 631.642 419.136C631.642 419.174 631.603 419.213 631.603 419.213C631.603 419.251 631.603 419.251 631.603 419.251V419.29C631.718 419.021 631.795 418.867 631.987 418.714C632.102 418.637 632.371 418.483 632.525 418.483L632.41 418.522C632.102 418.675 631.795 418.829 631.68 419.251C631.68 419.251 631.68 419.251 631.718 419.213C631.718 419.213 631.718 419.213 631.718 419.174C631.795 419.059 631.872 418.944 631.949 418.829C632.064 418.714 632.179 418.637 632.294 418.598C632.448 418.522 632.87 418.368 633.101 418.445C633.024 418.445 632.64 418.522 632.563 418.56C632.41 418.598 632.217 418.675 632.102 418.829C632.179 418.829 632.217 418.79 632.294 418.752C632.678 418.598 633.331 418.368 633.754 418.445C633.523 418.483 633.178 418.56 632.986 418.675L633.139 418.637C633.101 418.637 633.062 418.675 633.024 418.714C632.985 418.714 632.947 418.752 632.909 418.752C632.678 418.867 632.371 419.059 632.256 419.29C632.294 419.251 632.371 419.174 632.448 419.136C632.525 419.098 632.563 419.021 632.64 418.982C632.793 418.906 632.909 418.79 633.062 418.752C633.369 418.637 633.677 418.522 634.022 418.445C633.984 418.445 633.945 418.483 633.869 418.522C634.137 418.522 634.598 418.33 635.29 418.368C635.136 418.406 634.906 418.406 634.714 418.445L634.56 418.483C634.637 418.483 634.944 418.445 635.059 418.406C635.635 418.33 636.019 418.291 636.672 418.368C637.094 418.406 637.478 418.445 637.862 418.675C638.131 418.829 638.362 418.982 638.554 419.213C638.63 419.29 638.669 419.328 638.707 419.405C638.554 419.29 638.208 418.867 637.862 418.752C638.4 419.174 638.822 419.52 639.168 420.019C639.053 419.942 638.937 419.75 638.822 419.674C638.707 419.558 638.592 419.443 638.438 419.328C638.208 419.136 637.824 418.829 637.517 418.714C637.593 418.79 637.785 418.906 637.862 418.982C638.515 419.482 639.13 420.019 639.706 420.634C639.782 420.71 639.897 420.902 639.936 420.941C639.859 420.902 639.629 420.672 639.552 420.595C639.129 420.211 638.745 419.866 638.208 419.635C638.323 419.789 639.283 420.288 639.59 420.634L638.784 420.096C638.553 419.942 638.131 419.712 637.824 419.635C638.131 419.75 639.36 420.48 639.59 420.749C639.475 420.672 639.283 420.557 639.13 420.48C638.976 420.365 638.822 420.288 638.63 420.211C638.285 420.019 637.939 419.866 637.555 419.789C637.056 419.674 636.595 419.635 636.096 419.635C635.942 419.635 635.75 419.674 635.635 419.635C635.712 419.597 635.942 419.597 636.058 419.597C636.326 419.558 636.633 419.597 636.902 419.597C637.017 419.597 637.248 419.674 637.325 419.635C636.979 419.52 636.71 419.52 636.442 419.443C636.48 419.443 636.441 419.443 636.48 419.443C636.518 419.443 636.48 419.443 636.518 419.443C636.326 419.405 635.981 419.443 635.827 419.482C635.635 419.52 635.213 419.635 635.213 419.635C635.251 419.597 635.328 419.597 635.366 419.558L634.867 419.635L635.482 419.443C635.366 419.443 635.213 419.52 635.098 419.52C634.944 419.558 634.675 419.597 634.522 419.635C634.368 419.674 634.061 419.712 633.907 419.674C633.946 419.635 634.176 419.597 634.253 419.558L634.598 419.482C634.675 419.443 634.713 419.443 634.752 419.443C634.905 419.366 635.059 419.328 635.213 419.251C635.481 419.136 636.326 418.944 636.634 419.098C636.25 418.944 635.443 419.136 635.174 419.213L634.522 419.443C634.445 419.443 634.406 419.482 634.368 419.52C634.214 419.558 634.022 419.635 633.869 419.674V419.635C633.792 419.674 633.638 419.712 633.562 419.712C633.715 419.558 634.138 419.482 634.291 419.29C634.138 419.328 633.984 419.443 633.869 419.52C633.83 419.558 633.792 419.558 633.715 419.597C633.83 419.405 634.061 419.251 634.214 419.136L634.406 419.021C634.253 419.021 634.061 419.174 633.907 419.29C633.792 419.405 633.677 419.52 633.562 419.635C633.562 419.635 633.562 419.635 633.523 419.674C633.485 419.712 633.523 419.674 633.485 419.674L633.638 419.405C633.6 419.443 633.408 419.674 633.37 419.75C633.408 419.597 633.485 419.52 633.562 419.405L633.446 419.482C633.6 419.213 633.984 419.059 634.214 418.906C633.984 418.906 633.561 419.213 633.408 419.405C633.331 419.52 633.293 419.635 633.216 419.712L633.293 419.52L633.178 419.635C633.293 419.366 633.408 419.251 633.562 419.059C633.485 419.059 633.446 419.098 633.37 419.174C633.331 419.213 633.254 419.29 633.216 419.328C633.139 419.443 633.024 419.597 632.986 419.75C632.986 419.674 633.024 419.558 633.062 419.482C633.024 419.482 633.062 419.482 633.024 419.52C632.947 419.558 632.909 419.674 632.87 419.75L632.909 419.597L632.794 419.75C632.832 419.597 632.87 419.52 632.909 419.405C632.832 419.443 632.793 419.558 632.717 419.674C632.717 419.635 632.717 419.558 632.755 419.482L632.64 419.597C632.601 419.635 632.563 419.674 632.525 419.712C632.563 419.558 632.64 419.52 632.678 419.405C632.563 419.482 632.486 419.597 632.41 419.75C632.448 419.597 632.563 419.366 632.678 419.251C632.525 419.251 632.41 419.635 632.371 419.712V419.558C632.371 419.558 632.371 419.558 632.333 419.597L632.256 419.75L632.294 419.52C632.256 419.558 632.218 419.635 632.179 419.712C632.179 419.712 632.179 419.52 632.218 419.443C632.179 419.443 632.218 419.443 632.179 419.482C632.102 419.52 632.102 419.635 632.026 419.674L632.102 419.52C632.064 419.52 632.102 419.52 632.064 419.52L631.987 419.558Z" fill="#2612A3"/>
<path fill-rule="evenodd" clip-rule="evenodd" d="M624.154 419.521C623.578 419.56 623.117 420.289 623.117 421.134C623.117 421.979 623.578 422.67 624.115 422.632C624.691 422.593 625.152 421.864 625.152 421.019C625.19 420.136 624.73 419.483 624.154 419.521Z" fill="#C4BBFA"/>
<path fill-rule="evenodd" clip-rule="evenodd" d="M624.153 422.631C623.577 422.669 623.117 421.978 623.155 421.133C623.155 420.289 623.616 419.559 624.192 419.521C624.422 419.521 624.653 419.597 624.806 419.828H624.729C624.537 419.828 624.384 420.058 624.384 420.365C624.384 420.634 624.537 420.865 624.729 420.865C624.921 420.865 625.075 420.634 625.075 420.327V420.25C625.152 420.481 625.229 420.749 625.229 421.057C625.19 421.863 624.691 422.593 624.153 422.631ZM626.573 419.252C626.611 419.29 626.611 419.29 626.611 419.329C626.611 419.175 626.496 418.983 626.457 418.868C626.496 418.945 626.534 418.945 626.573 419.06C626.611 419.137 626.611 419.213 626.649 419.329C626.649 419.213 626.649 419.137 626.649 419.06C626.688 419.137 626.688 419.29 626.688 419.367C626.688 419.06 626.688 419.06 626.649 418.753C626.726 418.868 626.765 419.137 626.765 419.29C626.803 419.213 626.803 419.137 626.803 419.06C626.841 419.175 626.841 419.213 626.803 419.329L626.88 419.213C626.88 419.29 626.841 419.29 626.841 419.367C626.957 419.252 627.149 418.868 627.149 418.676C627.11 418.753 627.072 418.906 627.033 418.983C627.072 418.829 627.11 418.676 627.11 418.484C627.072 418.599 627.072 418.753 627.033 418.868C626.995 418.983 626.957 419.137 626.918 419.175C626.957 418.906 627.033 418.714 626.995 418.445V418.522C626.995 418.637 626.995 418.791 626.957 418.906C626.957 418.676 626.995 418.445 626.88 418.253C626.918 418.369 626.918 418.407 626.957 418.522C626.88 418.407 626.88 418.215 626.765 418.177C626.803 418.253 626.841 418.33 626.88 418.484C626.918 418.599 626.957 418.753 626.918 418.868C626.88 418.445 626.726 418.177 626.534 418.1C626.573 418.138 626.726 418.33 626.726 418.445C626.726 418.561 626.726 418.33 626.726 418.484C626.765 418.522 626.803 418.637 626.803 418.714C626.803 418.753 626.841 418.829 626.841 418.868C626.841 418.906 626.841 418.945 626.841 418.945C626.841 418.983 626.841 418.983 626.841 418.983V419.021C626.803 418.714 626.765 418.561 626.649 418.407C626.573 418.292 626.419 418.1 626.304 418.1L626.381 418.177C626.573 418.369 626.765 418.599 626.803 418.983C626.803 418.983 626.803 418.983 626.803 418.945C626.803 418.945 626.803 418.945 626.803 418.906C626.765 418.791 626.726 418.637 626.688 418.561C626.611 418.445 626.534 418.33 626.496 418.253C626.419 418.177 626.112 417.946 625.958 417.985C625.997 417.985 626.304 418.138 626.342 418.177C626.457 418.253 626.573 418.369 626.649 418.522C626.611 418.484 626.573 418.445 626.534 418.407C626.265 418.215 625.843 417.869 625.536 417.869C625.689 417.946 625.958 418.061 626.073 418.215L625.958 418.177C625.997 418.215 625.997 418.215 626.035 418.253C626.073 418.292 626.073 418.292 626.112 418.33C626.265 418.484 626.457 418.714 626.534 418.945C626.496 418.868 626.457 418.829 626.419 418.753C626.381 418.676 626.342 418.637 626.304 418.561C626.227 418.445 626.112 418.33 626.035 418.253C625.843 418.061 625.651 417.908 625.382 417.831C625.421 417.869 625.459 417.869 625.459 417.946C625.267 417.908 624.96 417.639 624.461 417.562C624.576 417.639 624.729 417.677 624.845 417.716L624.96 417.793C624.883 417.793 624.691 417.677 624.614 417.639C624.192 417.485 623.961 417.37 623.501 417.332C623.193 417.293 622.925 417.293 622.617 417.447C622.425 417.562 622.233 417.677 622.08 417.869C622.003 417.946 622.003 417.985 621.926 418.061C622.041 417.985 622.349 417.601 622.579 417.562C622.157 417.869 621.811 418.177 621.504 418.637C621.581 418.561 621.696 418.407 621.773 418.33C621.888 418.215 621.965 418.138 622.08 418.061C622.272 417.908 622.579 417.677 622.809 417.601C622.771 417.677 622.617 417.754 622.541 417.793C622.041 418.177 621.542 418.637 621.043 419.137C621.005 419.213 620.889 419.367 620.851 419.405C620.889 419.367 621.081 419.175 621.158 419.098C621.504 418.791 621.811 418.522 622.233 418.369C622.118 418.484 621.389 418.868 621.158 419.137L621.773 418.714C621.965 418.599 622.272 418.407 622.502 418.407C622.272 418.445 621.35 419.021 621.158 419.213C621.273 419.175 621.389 419.06 621.504 419.021C621.619 418.945 621.734 418.906 621.888 418.829C622.157 418.714 622.425 418.599 622.694 418.599C623.04 418.561 623.385 418.599 623.731 418.676C623.846 418.714 623.961 418.753 624.038 418.753C624 418.676 623.808 418.676 623.769 418.637C623.577 418.561 623.385 418.522 623.155 418.522C623.078 418.522 622.886 418.522 622.848 418.522C623.117 418.445 623.27 418.484 623.501 418.484C623.462 418.484 623.501 418.484 623.462 418.484C623.424 418.484 623.462 418.484 623.424 418.445C623.539 418.445 623.808 418.522 623.923 418.599C624.077 418.676 624.345 418.868 624.345 418.868C624.307 418.829 624.269 418.791 624.269 418.753L624.614 418.906L624.192 418.637C624.269 418.676 624.384 418.753 624.461 418.791C624.576 418.829 624.768 418.945 624.845 418.983C624.96 419.06 625.152 419.137 625.267 419.137C625.229 419.098 625.113 419.021 625.037 418.983L624.806 418.829C624.768 418.791 624.729 418.791 624.691 418.753C624.576 418.676 624.499 418.599 624.384 418.522C624.192 418.369 623.616 418.061 623.424 418.138C623.693 418.023 624.23 418.33 624.422 418.484L624.883 418.829C624.921 418.868 624.96 418.868 624.998 418.906C625.113 418.983 625.229 419.06 625.344 419.137V419.098C625.382 419.137 625.497 419.213 625.536 419.252C625.421 419.098 625.152 418.906 625.075 418.714C625.152 418.753 625.267 418.906 625.344 419.021C625.382 419.06 625.421 419.06 625.421 419.098C625.344 418.906 625.229 418.714 625.113 418.561L624.998 418.407C625.113 418.445 625.229 418.599 625.305 418.714C625.382 418.829 625.459 418.983 625.497 419.137C625.497 419.137 625.497 419.137 625.497 419.175C625.497 419.213 625.497 419.175 625.536 419.213L625.459 418.945C625.459 418.983 625.613 419.252 625.613 419.329C625.613 419.175 625.536 419.06 625.536 418.945L625.613 419.021C625.536 418.753 625.267 418.522 625.152 418.33C625.305 418.369 625.574 418.714 625.651 418.983C625.689 419.098 625.728 419.213 625.766 419.329L625.728 419.098L625.805 419.252C625.766 418.983 625.689 418.829 625.574 418.637C625.613 418.676 625.651 418.714 625.689 418.753C625.728 418.791 625.766 418.868 625.766 418.945C625.805 419.098 625.843 419.213 625.881 419.405C625.881 419.329 625.881 419.213 625.843 419.137C625.881 419.137 625.843 419.137 625.881 419.175C625.92 419.213 625.958 419.329 625.958 419.405V419.252L626.035 419.405C626.035 419.252 625.997 419.175 625.997 419.021C626.035 419.098 626.073 419.213 626.073 419.329C626.073 419.29 626.073 419.175 626.073 419.137L626.15 419.29C626.15 419.329 626.189 419.405 626.189 419.444C626.189 419.29 626.15 419.213 626.112 419.098C626.189 419.175 626.227 419.329 626.265 419.482C626.265 419.329 626.189 419.06 626.15 418.945C626.227 418.983 626.265 419.367 626.304 419.444V419.29C626.304 419.29 626.304 419.29 626.304 419.329L626.342 419.521V419.29C626.381 419.367 626.381 419.444 626.381 419.521C626.381 419.521 626.381 419.329 626.381 419.252C626.381 419.252 626.381 419.252 626.419 419.29C626.457 419.367 626.457 419.444 626.496 419.521L626.457 419.329C626.457 419.329 626.457 419.329 626.496 419.367L626.573 419.252Z" fill="#2612A3"/>
<path d="M627.686 422.631C627.148 423.092 624.729 428.736 624.768 429.274C624.806 431.079 626.688 430.656 627.072 430.964" stroke="#8674FC" stroke-width="0.2" stroke-miterlimit="2.613" stroke-linecap="round" stroke-linejoin="round"/>
<path fill-rule="evenodd" clip-rule="evenodd" d="M629.721 434.267C626.342 435.957 624.345 435.88 623.539 434.229C626.035 434.689 628.109 434.689 629.721 434.267Z" fill="#8674FC"/>
<path fill-rule="evenodd" clip-rule="evenodd" d="M549.965 495.553H614.976C616.243 495.553 617.587 496.59 617.933 497.895L629.491 541.94C629.837 543.207 629.069 544.282 627.763 544.282H562.752C561.485 544.282 560.141 543.246 559.795 541.94L548.237 497.895C547.891 496.628 548.659 495.553 549.965 495.553Z" fill="#B0A4FC"/>
<path fill-rule="evenodd" clip-rule="evenodd" d="M627.149 526.733L619.315 496.819C618.969 495.552 617.664 494.477 616.358 494.477H611.865H551.347C550.08 494.477 547.776 496.128 548.16 497.395C548.083 496.32 548.813 495.513 549.965 495.513H614.976C616.243 495.513 617.587 496.55 617.933 497.856L629.491 541.901C629.683 542.669 629.491 543.36 629.03 543.782C630.105 543.091 631.104 541.747 630.873 540.864L627.149 526.733Z" fill="#7261E0"/>
<path fill-rule="evenodd" clip-rule="evenodd" d="M627.763 544.281H562.752C562.521 544.281 562.291 544.242 562.022 544.165C563.328 547.506 566.822 547.007 568.205 547.007H645.273C649.459 546.815 649.344 543.897 649.382 541.093H630.873C630.95 541.977 629.99 543.205 628.992 543.82C628.685 544.089 628.262 544.281 627.763 544.281ZM618.662 513.676C611.673 517.209 603.456 518.284 594.969 518.706C595.046 519.013 595.123 519.321 595.2 519.628C595.776 523.199 593.241 526.233 589.593 526.233C586.176 526.233 583.065 523.506 582.528 520.127C582.451 519.743 582.451 519.397 582.451 519.052C573.657 519.282 565.133 519.781 558.105 522.508L562.944 540.94H625.843L618.662 513.676Z" fill="#7261E0"/>
<path fill-rule="evenodd" clip-rule="evenodd" d="M588.172 515.711C590.515 515.711 592.704 517.593 593.049 519.935C593.433 522.277 591.82 524.159 589.516 524.159C587.174 524.159 584.985 522.277 584.64 519.935C584.256 517.593 585.868 515.711 588.172 515.711Z" fill="#7261E0"/>
<path d="M221.721 266.648H175.372V291.186H221.721V266.648Z" fill="white"/>
<path d="M221.721 298.176H175.372V308.697H221.721V298.176Z" fill="white"/>
<path fill-rule="evenodd" clip-rule="evenodd" d="M199.948 269.222C198.988 267.725 198.143 266.611 197.375 265.958C201.062 263.961 203.097 261.773 203.519 259.354C204.057 259.814 204.518 260.39 204.902 261.082C203.481 264.346 201.83 267.033 199.948 269.222ZM194.764 269.222C195.724 267.725 196.569 266.611 197.337 265.958C193.651 263.961 191.615 261.773 191.193 259.354C190.655 259.814 190.195 260.39 189.811 261.082C191.231 264.346 192.844 267.033 194.764 269.222Z" fill="#604FCC"/>
<path fill-rule="evenodd" clip-rule="evenodd" d="M227.328 272.372C223.334 266.88 215.846 263.117 204.826 261.082C203.443 264.346 201.83 267.072 199.91 269.223C198.95 267.725 198.106 266.612 197.338 265.959C196.57 266.612 195.686 267.687 194.765 269.223C192.845 267.072 191.232 264.346 189.85 261.082C178.829 263.117 171.341 266.88 167.347 272.372C164.314 281.28 162.278 288.346 161.318 293.53C164.544 294.221 168.269 295.028 172.454 295.988C171.878 306.048 171.763 314.612 172.032 321.716C177.907 323.444 186.125 326.477 195.878 330.548C196.378 330.548 196.877 330.509 197.338 330.471C197.798 330.509 198.298 330.548 198.797 330.548C208.589 326.439 216.768 323.405 222.643 321.716C222.912 314.612 222.758 306.01 222.221 295.988C226.406 295.028 230.131 294.221 233.357 293.53C232.397 288.308 230.4 281.28 227.328 272.372Z" fill="#988BE9"/>
<path fill-rule="evenodd" clip-rule="evenodd" d="M220.454 279.168C221.222 284.198 221.836 289.805 222.22 295.987C222.758 295.872 223.257 295.757 223.795 295.642C223.104 291.802 221.99 286.31 220.454 279.168ZM174.259 279.168C173.491 284.198 172.876 289.805 172.492 295.987C171.955 295.872 171.456 295.757 170.918 295.642C171.609 291.802 172.723 286.31 174.259 279.168Z" fill="#7261E0"/>
<path fill-rule="evenodd" clip-rule="evenodd" d="M220.147 341.376C221.337 344.409 219.148 349.248 217.689 350.246C190.771 347.558 173.99 343.756 163.622 338.534C160.55 336.806 155.136 336.076 151.833 333.926C143.884 325.555 149.836 314.534 157.708 315.072C163.238 316.147 165.811 317.721 168.422 320.832C177.868 322.905 197.068 330.547 220.147 341.376Z" fill="#5745C6"/>
<path fill-rule="evenodd" clip-rule="evenodd" d="M248.755 345.868C249.83 353.202 240.652 354.393 221.798 351.167C229.747 348.556 230.784 346.252 224.87 342.566C241.305 339.57 248.793 339.609 248.755 345.868ZM145.92 345.868C144.844 353.202 154.022 354.393 172.876 351.167C164.928 348.556 163.891 346.252 169.804 342.566C153.408 339.57 145.92 339.609 145.92 345.868Z" fill="#362891"/>
<path fill-rule="evenodd" clip-rule="evenodd" d="M218.035 349.938C219.609 350.246 220.877 350.668 221.837 351.167C229.785 348.556 230.822 346.252 224.909 342.566C223.565 342.642 222.067 342.45 220.377 342.028C220.953 344.793 219.341 348.633 218.035 349.938ZM176.678 349.938C175.104 350.246 173.837 350.668 172.877 351.167C164.928 348.556 163.891 346.252 169.805 342.566C171.149 342.642 172.646 342.45 174.336 342.028C173.76 344.793 175.373 348.633 176.678 349.938ZM232.397 310.31C233.049 305.01 232.896 299.519 231.897 293.836C229.44 294.374 226.752 294.95 223.795 295.602C223.296 295.718 222.758 295.833 222.221 295.948C222.758 305.663 222.912 314.034 222.681 321.023C227.52 317.145 230.745 313.574 232.397 310.31ZM162.317 310.31C161.664 305.01 161.817 299.519 162.816 293.836C165.273 294.374 167.961 294.95 170.918 295.602C171.417 295.718 171.955 295.833 172.493 295.948C171.955 305.663 171.801 314.034 172.032 321.023C167.193 317.145 163.968 313.574 162.317 310.31Z" fill="#8F7DFF"/>
<path fill-rule="evenodd" clip-rule="evenodd" d="M225.024 308.889C224.985 305.088 224.832 300.595 224.601 295.449C224.333 295.526 224.064 295.564 223.795 295.641C223.296 295.756 222.758 295.872 222.221 295.987C222.566 301.977 222.758 307.468 222.797 312.422C223.219 311.923 223.757 311.308 224.333 310.617C226.022 309.926 227.673 309.542 229.325 309.58C227.405 308.966 225.984 308.736 225.024 308.889ZM169.689 308.889C169.728 305.088 169.881 300.595 170.112 295.449C170.381 295.526 170.649 295.564 170.918 295.641C171.417 295.756 171.955 295.872 172.493 295.987C172.147 301.977 171.955 307.468 171.917 312.422C171.494 311.923 170.957 311.308 170.381 310.617C168.729 309.926 167.04 309.542 165.389 309.58C167.309 308.966 168.729 308.736 169.689 308.889Z" fill="#7461F0"/>
<path fill-rule="evenodd" clip-rule="evenodd" d="M172.761 298.713H221.913C222.374 298.713 222.758 299.097 222.758 299.558V321.676C216.882 323.366 208.665 326.438 198.834 330.546H195.839C186.009 326.438 177.791 323.404 171.916 321.676V299.558C171.916 299.097 172.3 298.713 172.761 298.713Z" fill="#7261E0"/>
<path fill-rule="evenodd" clip-rule="evenodd" d="M174.221 322.368C179.865 324.135 187.238 326.938 195.84 330.509L195.917 330.547L196.493 330.509H197.337H198.182L198.758 330.547C207.398 326.938 214.809 324.135 220.454 322.368V304.09C217.229 308.199 210.777 311.578 202.56 313.575C202.598 313.843 202.637 314.112 202.637 314.381C202.637 317.338 200.256 319.719 197.299 319.719C194.649 319.719 192.461 317.799 192.038 315.303C189.657 315.533 187.238 315.648 184.704 315.648C181.017 315.648 177.485 315.418 174.105 314.957V322.368H174.221Z" fill="#361ED1"/>
<path fill-rule="evenodd" clip-rule="evenodd" d="M192.23 234.471C195.532 239.079 200.793 243.149 208.012 246.644C206.208 252.058 203.481 257.319 197.529 258.279C191.846 257.357 188.697 253.248 187.392 247.412C190.464 243.994 192.076 239.655 192.23 234.471Z" fill="#8F7DFF"/>
<path fill-rule="evenodd" clip-rule="evenodd" d="M199.411 243.455C203.443 242.457 202.906 242.572 206.054 244.454C204.979 242.419 203.098 241.727 200.947 242.15C199.949 242.38 199.795 242.342 199.411 243.455Z" fill="#2612A3"/>
<path fill-rule="evenodd" clip-rule="evenodd" d="M213.811 237.388C213.811 228.288 206.361 220.838 197.26 220.838C188.16 220.838 180.71 228.288 180.71 237.388V263.424C183.436 262.464 186.47 261.696 189.811 261.081C190.195 260.428 190.656 259.852 191.193 259.353C191.577 261.734 193.651 263.923 197.337 265.958C201.024 263.961 203.059 261.772 203.481 259.353C204.019 259.814 204.48 260.39 204.864 261.081C208.166 261.696 211.161 262.464 213.811 263.385V237.388ZM192.23 234.47C195.532 239.078 200.793 243.148 208.012 246.643C206.208 252.057 203.481 257.318 197.529 258.278C191.846 257.356 188.697 253.247 187.392 247.411C190.464 243.993 192.076 239.654 192.23 234.47Z" fill="#362891"/>
<path fill-rule="evenodd" clip-rule="evenodd" d="M203.481 259.352C203.059 258.7 202.79 257.548 202.598 255.896C201.215 257.087 199.564 257.932 197.529 258.277C195.148 257.893 193.19 256.933 191.654 255.551C191.615 257.048 191.462 258.354 191.231 259.352C191.615 261.733 193.689 263.922 197.375 265.957C201.023 263.96 203.097 261.772 203.481 259.352Z" fill="#8F7DFF"/>
<path fill-rule="evenodd" clip-rule="evenodd" d="M202.79 257.164C202.713 256.78 202.674 256.357 202.636 255.896C201.254 257.087 199.602 257.932 197.567 258.277C195.186 257.893 193.228 256.933 191.692 255.551C191.692 256.088 191.654 256.588 191.615 257.087C193.036 258.047 195.033 258.892 197.644 259.544C199.218 259.084 200.946 258.469 202.79 257.164Z" fill="#7461F0"/>
<path fill-rule="evenodd" clip-rule="evenodd" d="M180.748 251.559H188.236L187.276 282.048H183.782L184.435 272.141L182.707 282.048H177.983C179.711 274.906 181.324 259.2 180.748 251.559ZM206.399 251.943L213.388 251.328C213.235 262.272 213.388 275.059 214.617 282.471H211.084L210.815 281.549L210.393 282.471H209.126L208.243 276.096L208.012 282.471H205.439L206.399 251.943Z" fill="#362891"/>
<path fill-rule="evenodd" clip-rule="evenodd" d="M197.337 311.002C199.257 311.002 200.793 312.538 200.793 314.458C200.793 316.378 199.257 317.914 197.337 317.914C195.417 317.914 193.881 316.378 193.881 314.458C193.919 312.538 195.455 311.002 197.337 311.002Z" fill="#361ED1"/>
<path fill-rule="evenodd" clip-rule="evenodd" d="M174.566 341.376C173.376 344.409 175.565 349.248 177.024 350.246C203.942 347.558 220.723 343.756 231.091 338.534C234.163 336.806 239.577 336.076 242.88 333.926C250.829 325.555 244.877 314.534 237.005 315.072C231.475 316.147 228.902 317.721 226.291 320.832C216.845 322.905 197.645 330.547 174.566 341.376Z" fill="#5745C6"/>
<path fill-rule="evenodd" clip-rule="evenodd" d="M195.57 330.432C180.863 336.153 169.266 338.457 160.818 337.344C161.855 337.689 162.815 338.073 163.622 338.534C166.348 339.916 169.458 341.184 173.145 342.336C173.567 342.259 173.99 342.182 174.412 342.067C174.45 341.836 174.527 341.606 174.604 341.376C182.783 337.536 190.463 334.118 197.375 331.2C196.876 331.008 196.415 330.777 195.916 330.585C195.878 330.585 195.878 330.547 195.839 330.547C195.724 330.508 195.647 330.47 195.57 330.432ZM220.454 342.681C214.233 344.601 206.668 346.252 197.375 347.712C203.404 348.633 210.162 349.478 217.689 350.246C217.804 350.169 217.919 350.092 218.034 349.939C219.263 348.71 220.722 345.369 220.454 342.681Z" fill="#4B3BB3"/>
<path fill-rule="evenodd" clip-rule="evenodd" d="M192.998 245.144C192.576 245.183 192.192 244.722 192.153 244.146C192.115 243.57 192.461 243.071 192.883 243.071C193.305 243.032 193.689 243.493 193.728 244.069C193.766 244.645 193.421 245.106 192.998 245.144ZM201.715 245.528C202.137 245.567 202.521 245.144 202.56 244.568C202.598 243.992 202.291 243.493 201.869 243.455C201.446 243.416 201.062 243.839 201.024 244.415C200.985 244.991 201.293 245.49 201.715 245.528Z" fill="#2612A3"/>
<path fill-rule="evenodd" clip-rule="evenodd" d="M195.571 243.34C191.923 241.689 192.422 241.881 189.158 243.225C190.502 241.42 192.384 241.036 194.342 241.804C195.225 242.15 195.379 242.15 195.571 243.34Z" fill="#2612A3"/>
<path d="M196.646 246.336C196.493 248.026 196.109 248.909 196.032 249.562C195.955 250.368 196.109 250.483 196.761 250.522C197.145 250.56 197.337 250.598 197.337 250.598" stroke="#8674FC" stroke-width="0.138" stroke-miterlimit="2.613" stroke-linecap="round"/>
<path fill-rule="evenodd" clip-rule="evenodd" d="M201.331 252.979C196.492 253.401 192.767 252.979 193.958 253.171C195.263 253.747 198.566 253.708 201.331 252.979Z" fill="white"/>
<path fill-rule="evenodd" clip-rule="evenodd" d="M193.037 244.146C193.114 244.146 193.152 244.338 193.152 244.569C193.152 244.799 193.037 244.953 192.96 244.953C192.883 244.953 192.845 244.761 192.845 244.53C192.883 244.338 192.96 244.146 193.037 244.146ZM201.638 244.377C201.715 244.377 201.754 244.569 201.754 244.799C201.754 245.03 201.638 245.183 201.562 245.183C201.485 245.183 201.446 244.991 201.446 244.761C201.446 244.569 201.562 244.377 201.638 244.377Z" fill="#B0A4FC"/>
<path fill-rule="evenodd" clip-rule="evenodd" d="M189.926 233.126C192.729 231.091 194.956 230.975 196.531 232.78C196.646 237.811 195.071 241.881 191.731 244.953C192.575 242.611 191.961 238.655 189.926 233.126Z" fill="#362891"/>
<path fill-rule="evenodd" clip-rule="evenodd" d="M352.589 228.326H363.418C364.838 228.326 366.029 229.478 366.029 230.937V241.766C366.029 243.187 364.877 244.377 363.418 244.377H352.589C351.168 244.377 349.978 243.225 349.978 241.766V230.937C350.016 229.517 351.168 228.326 352.589 228.326Z" fill="#7864FA"/>
<path fill-rule="evenodd" clip-rule="evenodd" d="M374.899 228.326H385.728C387.149 228.326 388.339 229.478 388.339 230.937V241.766C388.339 243.187 387.187 244.377 385.728 244.377H374.899C373.478 244.377 372.288 243.225 372.288 241.766V230.937C372.288 229.517 373.44 228.326 374.899 228.326Z" fill="#B0A4FC"/>
<path fill-rule="evenodd" clip-rule="evenodd" d="M397.171 228.326H408C409.421 228.326 410.611 229.478 410.611 230.937V241.766C410.611 243.187 409.459 244.377 408 244.377H397.171C395.75 244.377 394.56 243.225 394.56 241.766V230.937C394.56 229.517 395.75 228.326 397.171 228.326ZM419.482 228.326H430.31C431.731 228.326 432.922 229.478 432.922 230.937V241.766C432.922 243.187 431.731 244.377 430.31 244.377H419.482C418.061 244.377 416.87 243.225 416.87 241.766V230.937C416.87 229.517 418.022 228.326 419.482 228.326Z" fill="#7864FA"/>
<path fill-rule="evenodd" clip-rule="evenodd" d="M441.753 228.326H452.582C454.003 228.326 455.193 229.478 455.193 230.937V241.766C455.193 243.187 454.003 244.377 452.582 244.377H441.753C440.333 244.377 439.142 243.225 439.142 241.766V230.937C439.142 229.517 440.333 228.326 441.753 228.326ZM464.025 228.326H474.854C476.275 228.326 477.465 229.478 477.465 230.937V241.766C477.465 243.187 476.313 244.377 474.854 244.377H464.025C462.605 244.377 461.414 243.225 461.414 241.766V230.937C461.452 229.517 462.605 228.326 464.025 228.326ZM486.336 228.326H497.164C498.585 228.326 499.776 229.478 499.776 230.937V241.766C499.776 243.187 498.624 244.377 497.164 244.377H486.336C484.915 244.377 483.724 243.225 483.724 241.766V230.937C483.724 229.517 484.915 228.326 486.336 228.326Z" fill="#B0A4FC"/>
<path fill-rule="evenodd" clip-rule="evenodd" d="M508.608 228.326H519.437C520.857 228.326 522.048 229.478 522.048 230.937V241.766C522.048 243.187 520.896 244.377 519.437 244.377H508.608C507.187 244.377 505.997 243.225 505.997 241.766V230.937C506.035 229.517 507.187 228.326 508.608 228.326Z" fill="#7864FA"/>
<path fill-rule="evenodd" clip-rule="evenodd" d="M530.918 228.326H541.747C543.168 228.326 544.358 229.478 544.358 230.937V241.766C544.358 243.187 543.168 244.377 541.747 244.377H530.918C529.498 244.377 528.307 243.225 528.307 241.766V230.937C528.307 229.517 529.459 228.326 530.918 228.326Z" fill="#B0A4FC"/>
<path fill-rule="evenodd" clip-rule="evenodd" d="M352.589 249.523H363.418C364.838 249.523 366.029 250.675 366.029 252.135V262.963C366.029 264.384 364.877 265.575 363.418 265.575H352.589C351.168 265.575 349.978 264.423 349.978 262.963V252.135C350.016 250.714 351.168 249.523 352.589 249.523Z" fill="#7864FA"/>
<path fill-rule="evenodd" clip-rule="evenodd" d="M374.899 249.523H385.728C387.149 249.523 388.339 250.675 388.339 252.135V262.963C388.339 264.384 387.187 265.575 385.728 265.575H374.899C373.478 265.575 372.288 264.423 372.288 262.963V252.135C372.288 250.714 373.44 249.523 374.899 249.523Z" fill="#B0A4FC"/>
<path fill-rule="evenodd" clip-rule="evenodd" d="M397.171 249.523H408C409.421 249.523 410.611 250.675 410.611 252.135V262.963C410.611 264.384 409.459 265.575 408 265.575H397.171C395.75 265.575 394.56 264.423 394.56 262.963V252.135C394.56 250.714 395.75 249.523 397.171 249.523ZM419.482 249.523H430.31C431.731 249.523 432.922 250.675 432.922 252.135V262.963C432.922 264.384 431.731 265.575 430.31 265.575H419.482C418.061 265.575 416.87 264.423 416.87 262.963V252.135C416.87 250.714 418.022 249.523 419.482 249.523Z" fill="#7864FA"/>
<path fill-rule="evenodd" clip-rule="evenodd" d="M441.753 249.523H452.582C454.003 249.523 455.193 250.675 455.193 252.135V262.963C455.193 264.384 454.003 265.575 452.582 265.575H441.753C440.333 265.575 439.142 264.423 439.142 262.963V252.135C439.142 250.714 440.333 249.523 441.753 249.523Z" fill="#B0A4FC"/>
<path fill-rule="evenodd" clip-rule="evenodd" d="M464.025 249.523H474.854C476.275 249.523 477.465 250.675 477.465 252.135V262.963C477.465 264.384 476.313 265.575 474.854 265.575H464.025C462.604 265.575 461.414 264.423 461.414 262.963V252.135C461.452 250.714 462.604 249.523 464.025 249.523ZM486.336 249.523H497.164C498.585 249.523 499.776 250.675 499.776 252.135V262.963C499.776 264.384 498.624 265.575 497.164 265.575H486.336C484.915 265.575 483.724 264.423 483.724 262.963V252.135C483.724 250.714 484.915 249.523 486.336 249.523Z" fill="#7864FA"/>
<path fill-rule="evenodd" clip-rule="evenodd" d="M508.608 249.523H519.437C520.857 249.523 522.048 250.675 522.048 252.135V262.963C522.048 264.384 520.896 265.575 519.437 265.575H508.608C507.187 265.575 505.997 264.423 505.997 262.963V252.135C506.035 250.714 507.187 249.523 508.608 249.523Z" fill="#B0A4FC"/>
<path fill-rule="evenodd" clip-rule="evenodd" d="M530.918 249.523H541.747C543.168 249.523 544.358 250.675 544.358 252.135V262.963C544.358 264.384 543.168 265.575 541.747 265.575H530.918C529.498 265.575 528.307 264.423 528.307 262.963V252.135C528.307 250.714 529.459 249.523 530.918 249.523ZM352.589 270.72H363.418C364.838 270.72 366.029 271.872 366.029 273.331V284.16C366.029 285.581 364.877 286.771 363.418 286.771H352.589C351.168 286.771 349.978 285.619 349.978 284.16V273.331C350.016 271.911 351.168 270.72 352.589 270.72ZM374.899 270.72H385.728C387.149 270.72 388.339 271.872 388.339 273.331V284.16C388.339 285.581 387.187 286.771 385.728 286.771H374.899C373.478 286.771 372.288 285.619 372.288 284.16V273.331C372.288 271.911 373.44 270.72 374.899 270.72Z" fill="#7864FA"/>
<path fill-rule="evenodd" clip-rule="evenodd" d="M397.171 270.721H408C409.421 270.721 410.611 271.873 410.611 273.332V284.161C410.611 285.582 409.459 286.772 408 286.772H397.171C395.75 286.772 394.56 285.62 394.56 284.161V273.332C394.56 271.911 395.75 270.721 397.171 270.721ZM419.482 270.721H430.31C431.731 270.721 432.922 271.873 432.922 273.332V284.161C432.922 285.582 431.731 286.772 430.31 286.772H419.482C418.061 286.772 416.87 285.62 416.87 284.161V273.332C416.87 271.911 418.022 270.721 419.482 270.721Z" fill="#B0A4FC"/>
<path fill-rule="evenodd" clip-rule="evenodd" d="M441.753 270.721H452.582C454.003 270.721 455.193 271.873 455.193 273.332V284.161C455.193 285.582 454.003 286.772 452.582 286.772H441.753C440.333 286.772 439.142 285.62 439.142 284.161V273.332C439.142 271.911 440.333 270.721 441.753 270.721Z" fill="#7864FA"/>
<path fill-rule="evenodd" clip-rule="evenodd" d="M464.025 270.721H474.854C476.275 270.721 477.465 271.873 477.465 273.332V284.161C477.465 285.582 476.313 286.772 474.854 286.772H464.025C462.604 286.772 461.414 285.62 461.414 284.161V273.332C461.452 271.911 462.604 270.721 464.025 270.721ZM486.336 270.721H497.164C498.585 270.721 499.776 271.873 499.776 273.332V284.161C499.776 285.582 498.624 286.772 497.164 286.772H486.336C484.915 286.772 483.724 285.62 483.724 284.161V273.332C483.724 271.911 484.915 270.721 486.336 270.721Z" fill="#B0A4FC"/>
<path fill-rule="evenodd" clip-rule="evenodd" d="M508.608 270.721H519.437C520.857 270.721 522.048 271.873 522.048 273.332V284.161C522.048 285.582 520.896 286.772 519.437 286.772H508.608C507.187 286.772 505.997 285.62 505.997 284.161V273.332C506.035 271.911 507.187 270.721 508.608 270.721Z" fill="#7864FA"/>
<path fill-rule="evenodd" clip-rule="evenodd" d="M530.918 270.721H541.747C543.168 270.721 544.358 271.873 544.358 273.332V284.161C544.358 285.582 543.168 286.772 541.747 286.772H530.918C529.498 286.772 528.307 285.62 528.307 284.161V273.332C528.307 271.911 529.459 270.721 530.918 270.721ZM352.589 291.918H363.418C364.838 291.918 366.029 293.07 366.029 294.529V305.358C366.029 306.778 364.877 307.969 363.418 307.969H352.589C351.168 307.969 349.978 306.778 349.978 305.358V294.529C350.016 293.108 351.168 291.918 352.589 291.918ZM374.899 291.918H385.728C387.149 291.918 388.339 293.07 388.339 294.529V305.358C388.339 306.778 387.187 307.969 385.728 307.969H374.899C373.478 307.969 372.288 306.778 372.288 305.358V294.529C372.288 293.108 373.44 291.918 374.899 291.918Z" fill="#B0A4FC"/>
<path fill-rule="evenodd" clip-rule="evenodd" d="M397.171 291.916H408C409.421 291.916 410.611 293.068 410.611 294.527V305.356C410.611 306.777 409.459 307.967 408 307.967H397.171C395.75 307.967 394.56 306.777 394.56 305.356V294.527C394.56 293.106 395.75 291.916 397.171 291.916ZM419.482 291.916H430.31C431.731 291.916 432.922 293.068 432.922 294.527V305.356C432.922 306.777 431.731 307.967 430.31 307.967H419.482C418.061 307.967 416.87 306.777 416.87 305.356V294.527C416.87 293.106 418.022 291.916 419.482 291.916ZM441.754 291.916H452.582C454.003 291.916 455.194 293.068 455.194 294.527V305.356C455.194 306.777 454.003 307.967 452.582 307.967H441.754C440.333 307.967 439.142 306.777 439.142 305.356V294.527C439.142 293.106 440.333 291.916 441.754 291.916Z" fill="#7864FA"/>
<path fill-rule="evenodd" clip-rule="evenodd" d="M464.025 291.916H474.854C476.275 291.916 477.465 293.068 477.465 294.527V305.356C477.465 306.777 476.313 307.967 474.854 307.967H464.025C462.604 307.967 461.414 306.777 461.414 305.356V294.527C461.452 293.106 462.604 291.916 464.025 291.916ZM486.336 291.916H497.164C498.585 291.916 499.776 293.068 499.776 294.527V305.356C499.776 306.777 498.624 307.967 497.164 307.967H486.336C484.915 307.967 483.724 306.777 483.724 305.356V294.527C483.724 293.106 484.915 291.916 486.336 291.916Z" fill="#B0A4FC"/>
<path fill-rule="evenodd" clip-rule="evenodd" d="M508.608 291.916H519.437C520.857 291.916 522.048 293.068 522.048 294.527V305.356C522.048 306.777 520.896 307.967 519.437 307.967H508.608C507.187 307.967 505.997 306.777 505.997 305.356V294.527C506.035 293.106 507.187 291.916 508.608 291.916Z" fill="#7864FA"/>
<path fill-rule="evenodd" clip-rule="evenodd" d="M530.918 291.916H541.747C543.168 291.916 544.358 293.068 544.358 294.527V305.356C544.358 306.777 543.168 307.967 541.747 307.967H530.918C529.498 307.967 528.307 306.777 528.307 305.356V294.527C528.307 293.106 529.459 291.916 530.918 291.916Z" fill="#B0A4FC"/>
<path fill-rule="evenodd" clip-rule="evenodd" d="M556.8 328.512H611.597C612.48 328.512 613.171 327.821 613.171 326.938C613.171 326.055 612.48 325.363 611.597 325.363H556.8C555.917 325.363 555.225 326.055 555.225 326.938C555.225 327.821 555.917 328.512 556.8 328.512ZM635.097 315.494H641.625C642.509 315.494 643.2 314.803 643.2 313.92C643.2 313.037 642.509 312.346 641.625 312.346H635.097C634.214 312.346 633.523 313.037 633.523 313.92C633.523 314.765 634.214 315.494 635.097 315.494ZM624.653 328.512H629.875C630.758 328.512 631.45 327.821 631.45 326.938C631.45 326.055 630.758 325.363 629.875 325.363H624.653C623.769 325.363 623.078 326.055 623.078 326.938C623.078 327.821 623.769 328.512 624.653 328.512ZM567.245 315.494H624.653C625.536 315.494 626.227 314.803 626.227 313.92C626.227 313.037 625.536 312.346 624.653 312.346H567.245C566.361 312.346 565.67 313.037 565.67 313.92C565.67 314.765 566.361 315.494 567.245 315.494ZM221.606 244.685H276.403C277.286 244.685 277.977 243.994 277.977 243.111C277.977 242.227 277.286 241.536 276.403 241.536H221.606C220.723 241.536 220.032 242.227 220.032 243.111C220.032 243.994 220.723 244.685 221.606 244.685ZM299.904 231.667H306.432C307.315 231.667 308.006 230.976 308.006 230.093C308.006 229.21 307.315 228.518 306.432 228.518H299.904C299.021 228.518 298.329 229.21 298.329 230.093C298.329 230.938 299.021 231.667 299.904 231.667ZM289.459 244.685H294.681C295.565 244.685 296.256 243.994 296.256 243.111C296.256 242.227 295.565 241.536 294.681 241.536H289.459C288.576 241.536 287.885 242.227 287.885 243.111C287.885 243.994 288.576 244.685 289.459 244.685ZM232.051 231.667H289.459C290.342 231.667 291.033 230.976 291.033 230.093C291.033 229.21 290.342 228.518 289.459 228.518H232.051C231.168 228.518 230.477 229.21 230.477 230.093C230.477 230.938 231.168 231.667 232.051 231.667ZM74.3039 471.13H129.101C129.984 471.13 130.675 470.439 130.675 469.555C130.675 468.672 129.984 467.981 129.101 467.981H74.3039C73.4207 467.981 72.7295 468.672 72.7295 469.555C72.7295 470.439 73.4207 471.13 74.3039 471.13ZM152.563 458.112H159.091C159.974 458.112 160.665 457.421 160.665 456.538C160.665 455.655 159.974 454.963 159.091 454.963H152.563C151.68 454.963 150.989 455.655 150.989 456.538C150.989 457.383 151.718 458.112 152.563 458.112ZM142.157 471.13H147.379C148.262 471.13 148.953 470.439 148.953 469.555C148.953 468.672 148.262 467.981 147.379 467.981H142.157C141.273 467.981 140.582 468.672 140.582 469.555C140.582 470.439 141.273 471.13 142.157 471.13ZM84.7487 458.112H142.157C143.04 458.112 143.731 457.421 143.731 456.538C143.731 455.655 143.04 454.963 142.157 454.963H84.7487C83.8655 454.963 83.1743 455.655 83.1743 456.538C83.1743 457.383 83.8655 458.112 84.7487 458.112ZM461.721 217.267H516.518C517.401 217.267 518.093 216.576 518.093 215.693C518.093 214.81 517.401 214.118 516.518 214.118H461.721C460.838 214.118 460.147 214.81 460.147 215.693C460.147 216.538 460.877 217.267 461.721 217.267ZM540.019 204.211H546.547C547.43 204.211 548.121 203.52 548.121 202.637C548.121 201.754 547.43 201.062 546.547 201.062H540.019C539.136 201.062 538.445 201.754 538.445 202.637C538.445 203.482 539.136 204.211 540.019 204.211ZM529.574 217.267H534.797C535.68 217.267 536.371 216.576 536.371 215.693C536.371 214.81 535.68 214.118 534.797 214.118H529.574C528.691 214.118 528 214.81 528 215.693C528 216.538 528.691 217.267 529.574 217.267ZM472.166 204.211H529.574C530.457 204.211 531.149 203.52 531.149 202.637C531.149 201.754 530.457 201.062 529.574 201.062H472.166C471.283 201.062 470.592 201.754 470.592 202.637C470.592 203.482 471.283 204.211 472.166 204.211ZM406.886 341.223H461.683C462.566 341.223 463.258 340.531 463.258 339.648C463.258 338.765 462.566 338.074 461.683 338.074H406.886C406.003 338.074 405.312 338.765 405.312 339.648C405.312 340.531 406.003 341.223 406.886 341.223ZM485.146 328.167H491.673C492.557 328.167 493.248 327.475 493.248 326.592C493.248 325.709 492.557 325.018 491.673 325.018H485.146C484.262 325.018 483.571 325.709 483.571 326.592C483.571 327.475 484.301 328.167 485.146 328.167ZM474.739 341.223H479.961C480.845 341.223 481.536 340.531 481.536 339.648C481.536 338.765 480.845 338.074 479.961 338.074H474.739C473.856 338.074 473.165 338.765 473.165 339.648C473.165 340.531 473.856 341.223 474.739 341.223ZM417.331 328.167H474.739C475.622 328.167 476.314 327.475 476.314 326.592C476.314 325.709 475.622 325.018 474.739 325.018H417.331C416.448 325.018 415.757 325.709 415.757 326.592C415.718 327.475 416.448 328.167 417.331 328.167ZM440.102 543.207H494.899C495.782 543.207 496.474 542.515 496.474 541.632C496.474 540.749 495.782 540.058 494.899 540.058H440.102C439.219 540.058 438.528 540.749 438.528 541.632C438.528 542.477 439.257 543.207 440.102 543.207ZM518.4 530.151H524.928C525.811 530.151 526.502 529.459 526.502 528.576C526.502 527.693 525.811 527.002 524.928 527.002H518.4C517.517 527.002 516.826 527.693 516.826 528.576C516.826 529.421 517.517 530.151 518.4 530.151ZM507.955 543.207H513.177C514.061 543.207 514.752 542.515 514.752 541.632C514.752 540.749 514.061 540.058 513.177 540.058H507.955C507.072 540.058 506.381 540.749 506.381 541.632C506.381 542.477 507.072 543.207 507.955 543.207ZM450.547 530.151H507.955C508.838 530.151 509.53 529.459 509.53 528.576C509.53 527.693 508.838 527.002 507.955 527.002H450.547C449.664 527.002 448.973 527.693 448.973 528.576C448.973 529.421 449.664 530.151 450.547 530.151Z" fill="#5C44F5"/>
<path fill-rule="evenodd" clip-rule="evenodd" d="M103.296 511.297V517.21H97.3826C97.0754 517.21 96.8066 517.479 96.8066 517.786C96.8066 518.093 97.0754 518.362 97.3826 518.362H103.296V524.276C103.296 524.583 103.565 524.852 103.872 524.852C104.179 524.852 104.448 524.583 104.448 524.276V518.362H110.362C110.669 518.362 110.938 518.093 110.938 517.786C110.938 517.479 110.669 517.21 110.362 517.21H104.448V511.297C104.448 510.989 104.179 510.721 103.872 510.721C103.527 510.721 103.296 510.989 103.296 511.297ZM103.296 433.191V439.105H97.3826C97.0754 439.105 96.8066 439.373 96.8066 439.681C96.8066 439.988 97.0754 440.257 97.3826 440.257H103.296V446.17C103.296 446.477 103.565 446.746 103.872 446.746C104.179 446.746 104.448 446.477 104.448 446.17V440.257H110.362C110.669 440.257 110.938 439.988 110.938 439.681C110.938 439.373 110.669 439.105 110.362 439.105H104.448V433.191C104.448 432.884 104.179 432.615 103.872 432.615C103.527 432.615 103.296 432.845 103.296 433.191ZM515.29 338.113V344.026H509.376C509.069 344.026 508.8 344.295 508.8 344.602C508.8 344.909 509.069 345.178 509.376 345.178H515.29V351.092C515.29 351.399 515.559 351.668 515.866 351.668C516.173 351.668 516.442 351.399 516.442 351.092V345.178H522.355C522.663 345.178 522.931 344.909 522.931 344.602C522.931 344.295 522.663 344.026 522.355 344.026H516.442V338.113C516.442 337.805 516.173 337.537 515.866 337.537C515.559 337.537 515.29 337.767 515.29 338.113ZM396.135 187.892V193.805H390.221C389.914 193.805 389.645 194.074 389.645 194.381C389.645 194.689 389.914 194.957 390.221 194.957H396.135V200.833C396.135 201.14 396.403 201.409 396.711 201.409C397.018 201.409 397.287 201.14 397.287 200.833V194.919H403.2C403.507 194.919 403.776 194.65 403.776 194.343C403.776 194.036 403.507 193.767 403.2 193.767H397.287V187.853C397.287 187.546 397.018 187.277 396.711 187.277C396.365 187.316 396.135 187.546 396.135 187.892ZM332.736 267.111V273.025H326.823C326.515 273.025 326.247 273.293 326.247 273.601C326.247 273.908 326.515 274.177 326.823 274.177H332.736V280.09C332.736 280.397 333.005 280.666 333.312 280.666C333.619 280.666 333.888 280.397 333.888 280.09V274.177H339.802C340.109 274.177 340.378 273.908 340.378 273.601C340.378 273.293 340.109 273.025 339.802 273.025H333.888V267.111C333.888 266.804 333.619 266.535 333.312 266.535C333.005 266.535 332.736 266.804 332.736 267.111ZM642.663 377.818V383.732H636.749C636.442 383.732 636.173 384.001 636.173 384.308C636.173 384.615 636.442 384.884 636.749 384.884H642.663V390.797C642.663 391.105 642.931 391.373 643.239 391.373C643.546 391.373 643.815 391.105 643.815 390.797V384.884H649.728C650.035 384.884 650.304 384.615 650.304 384.308C650.304 384.001 650.035 383.732 649.728 383.732H643.815V377.818C643.815 377.511 643.546 377.242 643.239 377.242C642.893 377.242 642.663 377.511 642.663 377.818Z" fill="#8674FC"/>
</svg>
