<svg width="261" height="261" viewBox="0 0 261 261" fill="none" xmlns="http://www.w3.org/2000/svg">
<g clip-path="url(#clip0_1382_853)">
<path d="M130.631 251.936H130.37C130.37 251.658 130.356 224 129.241 213.09C128.838 209.144 130.006 206.009 132.618 204.024C136.349 201.19 141.884 201.358 144.451 202.363C145.776 202.903 147.068 203.522 148.319 204.217C150.404 205.33 152.214 206.296 154.666 206.276C159.195 206.247 163.441 204.15 166.622 200.372C169.808 196.588 171.544 191.572 171.509 186.248C171.408 180.653 169.68 175.208 166.535 170.579C163.242 165.846 159.036 163.243 154.686 163.243L154.616 163.243C150.674 163.269 148.397 163.832 144.497 167.259C142.027 169.428 137.028 170.636 133.523 168.975C131.562 168.046 129.263 165.819 129.449 160.49C129.724 152.604 129.246 124.206 129.241 123.92L129.239 123.782L129.377 123.788C130.065 123.815 198.575 126.477 227.671 122.806C236.436 121.7 254.326 123.768 254.505 123.789L254.475 124.048C254.296 124.027 236.438 121.963 227.703 123.065C199.213 126.66 132.99 124.188 129.504 124.054C129.54 126.221 129.975 152.891 129.709 160.499C129.566 164.605 130.924 167.455 133.634 168.739C136.997 170.332 141.967 169.134 144.324 167.063C148.288 163.581 150.604 163.008 154.614 162.982H154.686C159.124 162.982 163.406 165.624 166.75 170.43C169.924 175.103 171.668 180.598 171.77 186.246C171.805 191.632 170.048 196.709 166.822 200.54C163.591 204.377 159.274 206.507 154.668 206.537C152.132 206.549 150.312 205.577 148.196 204.447C146.955 203.756 145.672 203.141 144.355 202.606C141.744 201.583 136.268 201.579 132.776 204.232C130.204 206.186 129.102 209.158 129.501 213.064C130.618 223.987 130.631 251.658 130.631 251.936Z" fill="black"/>
<path d="M51.3293 124.566C32.3389 124.566 10.9356 124.062 10.6133 124.054L10.6195 123.793C11.1042 123.805 59.2621 124.94 75.1706 123.794C91.8477 122.592 126.777 123.708 129.241 123.789V91.9834C129.211 87.3619 124.941 83.3346 120.098 83.366C118.089 83.3815 116.15 84.1078 114.625 85.4161C111.644 88.06 108.085 89.4715 104.336 89.4955C104.298 89.4961 104.258 89.4961 104.22 89.4961C101.583 89.4776 98.9772 88.9272 96.5583 87.878C94.1393 86.8288 91.957 85.3024 90.1418 83.39C87.6863 80.7669 84.8641 76.1939 85.3639 69.3012C85.8463 62.6457 87.9217 57.4868 91.5324 53.9674C94.7427 50.8383 99.0798 49.1674 104.075 49.135C107.727 49.1136 111.31 50.4779 114.423 53.0868C117.51 55.6741 122.265 55.071 125.367 53.1382C128.642 51.0972 130.091 47.8238 129.245 44.3817C126.763 34.2977 129.217 12.1289 129.241 11.9062L129.501 11.9355C129.476 12.1576 127.027 34.2805 129.498 44.3193C130.373 47.8768 128.88 51.2562 125.505 53.3596C122.323 55.3424 117.438 55.9539 114.256 53.287C111.191 50.7183 107.677 49.371 104.077 49.396C93.4218 49.4649 86.5233 56.9131 85.6242 69.32C85.1314 76.1185 87.9123 80.6268 90.3323 83.2117C92.1369 85.1113 94.3085 86.6246 96.7154 87.66C99.1223 88.6953 101.714 89.2311 104.334 89.2348C108.02 89.2108 111.518 87.8225 114.453 85.2193C116.026 83.8702 118.025 83.1212 120.096 83.105L120.154 83.1047C125.11 83.1047 129.471 87.2395 129.502 91.9826V124.059L129.367 124.054C128.999 124.042 92.3809 122.815 75.1894 124.054C69.8553 124.438 60.897 124.566 51.3293 124.566Z" fill="black"/>
<path d="M181.803 151.02H198.881V168.098H181.803V151.02Z" fill="#7764F0"/>
<path d="M210.669 155.795H244.631V156.056H210.669V155.795ZM231.845 165.01H231.549V164.749H231.845V165.01ZM230.505 165.01H229.461V164.749H230.505V165.01ZM228.417 165.01H227.373V164.749H228.417V165.01ZM226.329 165.01H225.285V164.749H226.329V165.01ZM224.241 165.01H223.197V164.749H224.241V165.01ZM222.153 165.01H221.109V164.749H222.153V165.01ZM220.065 165.01H219.021V164.749H220.065V165.01ZM217.977 165.01H216.933V164.749H217.977V165.01ZM215.889 165.01H214.845V164.749H215.889V165.01ZM213.801 165.01H212.757V164.749H213.801V165.01ZM211.713 165.01H210.669V164.749H211.713V165.01ZM210.669 186.59H244.631V186.851H210.669V186.59ZM210.669 195.543H239.865V195.804H210.669V195.543ZM190.362 162.847L185.546 158.032L185.731 157.847L190.362 162.478L203.196 149.645L203.381 149.829L190.362 162.847Z" fill="black"/>
<path d="M181.803 182.789H198.881V199.867H181.803V182.789Z" fill="#7764F0"/>
<path d="M210.668 220.289L210.669 220.028L244.632 220.158L244.631 220.419L210.668 220.289Z" fill="black"/>
<path d="M210.668 229.242L210.67 228.981L222.537 229.046L222.536 229.307L210.668 229.242Z" fill="black"/>
<path d="M225.265 229.273L225.267 229.012L230.654 229.042L230.652 229.303L225.265 229.273Z" fill="black"/>
<path d="M181.803 216.227H198.881V233.305H181.803V216.227Z" fill="#7764F0"/>
<path d="M192.054 168.232H181.673V156.441H181.934V167.971H192.054V168.232ZM196.078 233.438H181.673V216.099H188.941V216.36H181.934V233.177H196.078V233.438ZM193.889 167.971H196.739V168.232H193.889V167.971ZM191.039 216.099H198.881V216.36H191.039V216.099ZM183.956 199.738H196.739V199.999H183.956V199.738Z" fill="black"/>
<path d="M101.948 177.037C101.948 177.037 97.2026 199.063 82.5213 201.086C73.2122 202.369 66.3104 194.755 62.0968 191.237C57.6501 187.524 53.4864 173.077 59.4816 175.018C66.7261 177.364 76.2918 186.846 83.9803 186.29C88.0112 185.998 95.0018 176.201 95.0018 176.201L101.948 177.037Z" fill="#4A3AAD"/>
<path d="M77.142 192.776C80.9936 188.113 84.0454 185.195 82.1448 184.206C67.1467 176.4 66.3063 169.712 55.3845 168.258C55.3845 168.258 57.6839 199.038 72.7932 201.269C73.0498 201.307 73.6422 197.014 77.142 192.776Z" fill="url(#paint0_linear_1382_853)"/>
<path d="M101.948 177.038C101.948 177.038 104.167 173.004 103.803 168.386C103.773 167.997 103.391 164.72 102.632 163.464C102.007 162.431 100.071 161.828 100.12 163.126C100.31 168.232 98.4372 169.837 98.4372 169.837C98.4372 169.837 98.3052 167.775 97.7221 166.834C97.4942 166.466 97.1072 166.993 96.8196 168.263C96.5886 169.284 95.9256 170.913 95.8037 171.869C95.5871 173.564 95.002 176.202 95.002 176.202L101.948 177.038Z" fill="#4A3AAD"/>
<path d="M65.3277 175.238L69.0433 197.269C69.0433 197.269 70.0231 187.472 69.6634 184.228C69.3886 181.748 67.8395 177.594 65.3277 175.238ZM52.1085 261.001C53.2883 242.992 54.4549 228.076 54.4549 228.076C54.4549 228.076 29.1431 224.542 28.3609 230.365C27.4083 237.46 25.4649 241.681 26.4556 261.001H52.1085Z" fill="#080711"/>
<path d="M68.3432 261.001C68.3857 250.343 67.9089 238.662 65.7468 230.365C64.1019 224.053 43.4521 219.68 43.4521 219.68C43.4521 219.68 44.3672 240.317 45.4196 261.001H68.3432Z" fill="#080711"/>
<path d="M53.485 171.653C44.7791 166.429 29.7491 168.619 25.7334 177.919C24.2817 181.282 27.6342 187.66 30.9124 189.528C35.3885 192.078 41.4471 191.449 46.4393 189.777C51.3513 188.132 56.0845 185.329 58.7804 181.49C61.8534 177.115 57.5211 174.075 53.485 171.653Z" fill="#4A3AAD"/>
<path d="M34.3574 164.462C37.3889 167.961 44.8303 167.841 46.8635 162.933C47.4646 161.483 46.3094 158.606 46.686 157.657C48.5545 152.956 44.8219 150.9 43.655 149.535C41.2804 146.758 33.4014 148.862 32.3326 151.574C29.2413 159.419 30.7854 160.34 34.3574 164.462Z" fill="#080711"/>
<path d="M47.1262 152.361C46.7802 152.066 45.4723 152.146 44.8947 152.931C44.4197 153.576 45.3984 155.679 46.4184 155.244C47.4909 154.788 48.1384 153.221 47.1265 152.36L47.1262 152.361Z" fill="#302289"/>
<path d="M47.186 170.985C46.6423 165.9 46.0094 161.495 45.4287 159.552C44.7174 157.173 35.3916 160.288 36.1992 162.854C36.7885 164.727 37.6775 170.919 37.8894 172.376C38.1867 174.422 47.4702 173.644 47.186 170.985Z" fill="#4A3AAD"/>
<path d="M36.2236 162.931L36.8774 165.027C38.4889 167.028 41.0339 168.275 43.1015 167.477C45.3625 166.604 46.0448 165.283 46.4987 163.591L45.794 160.859L36.2236 162.931Z" fill="#302289"/>
<path d="M35.8713 161.649L36.1992 162.852C37.8106 164.854 40.1473 167.14 42.2152 166.341C44.476 165.469 45.6573 163.887 46.1112 162.195L45.4286 159.551L35.8713 161.649Z" fill="#080711"/>
<path d="M41.5994 146.546C39.7176 145.418 34.5064 145.049 33.0075 149.164C31.7745 152.549 32.6197 157.183 34.1402 159.923C35.7718 162.864 39.7943 166.035 43.4324 164.485C47.2571 162.856 47.5838 158.58 46.8423 155.518C45.992 152.007 44.651 148.375 41.5994 146.546V146.546Z" fill="#4A3AAD"/>
<path d="M46.8777 152.876C45.8083 153.07 44.7001 152.134 43.6927 149.769C42.6445 147.309 40.3268 147.958 39.5981 146.247C38.8694 144.537 39.9442 142.913 41.1083 142.78C45.6572 142.261 43.9297 145.957 46.4303 146.959C48.6989 147.868 48.6853 152.548 46.8777 152.876Z" fill="#080711"/>
<path d="M41.594 146.865C42.4589 149.047 39.1025 150.118 39.1301 151.775C39.1484 152.89 39.1839 153.212 37.0625 154.474C35.2997 155.522 33.6186 154.562 33.4127 158.19C33.3127 159.954 31.8702 161.927 29.7485 159.447C29.2716 158.89 24.8185 153.778 28.1125 148.792C30.6119 145.01 28.8812 141.783 34.0717 142.547C36.2975 142.875 38.8824 141.203 39.9108 142.469C41.1894 144.044 40.4323 143.935 41.5942 146.865H41.594Z" fill="#080711"/>
<path d="M25.8562 180.459C25.5471 177.506 33.0822 168.66 34.3298 170.337C37.188 174.178 40.5032 174.617 42.6768 174.354C44.8027 174.096 48.103 172.368 49.5659 169.229C50.6219 166.964 58.3246 172.139 59.4009 174.395C62.4711 180.829 64.4226 227.132 64.4226 227.132C64.4226 227.132 57.9665 229.852 48.1972 230.101C40.8882 230.287 31.6081 228.872 31.6081 228.872C31.6081 228.872 26.5677 187.258 25.8562 180.459Z" fill="#3111FF"/>
<path d="M41.5162 154.943C40.5599 153.787 40.7259 157.893 41.8719 158.139C42.6366 158.304 43.5849 157.354 43.3594 156.793C43.1276 156.215 42.7643 156.451 41.5164 154.943H41.5162ZM42.9183 161.252C42.9397 161.601 43.9299 161.282 43.7629 160.701C43.5911 160.103 42.8755 160.558 42.9183 161.252Z" fill="#302289"/>
<path d="M62.3447 172.787C58.9308 167.312 53.8857 168.333 51.5881 168.333C51.6463 170.163 45.6848 186.059 31.1836 169.937C24.6698 172.113 20.3025 173.299 18.3346 178.184C13.2521 190.804 27.3448 223.333 29.9449 229.892C31.975 235.012 61.0971 233.694 64.8967 227.637C67.6007 223.326 70.9571 186.598 62.3447 172.787Z" fill="url(#paint1_linear_1382_853)"/>
<path d="M33.3079 172.133C33.3079 172.133 42.0255 184.991 46.1504 182.609C47.5162 181.82 47.1349 176.104 47.1349 176.104L33.3079 172.133Z" fill="#3111FF"/>
<path d="M51.4943 168.832C51.4943 168.832 55.5369 180.448 51.393 180.335C49.1304 180.273 46.2834 176.409 46.2834 176.409L51.4943 168.832Z" fill="#3111FF"/>
<path d="M41.911 153.639C41.4229 153.302 42.2224 152.53 42.9879 152.504C43.185 152.479 43.3849 152.515 43.5604 152.608C43.7359 152.701 43.8783 152.847 43.9682 153.024C43.5611 153.012 43.1564 153.09 42.7833 153.253C42.3531 153.45 42.0846 153.759 41.911 153.639ZM38.8894 154.926C38.9844 154.341 37.8739 154.382 37.325 154.916C37.1704 155.041 37.0582 155.211 37.0037 155.402C36.9493 155.593 36.9552 155.796 37.0207 155.984C37.2939 155.682 37.6308 155.444 38.007 155.288C38.4465 155.114 38.8557 155.134 38.8894 154.926ZM38.6783 155.701C38.7177 155.794 38.7188 155.898 38.6812 155.991C38.6436 156.085 38.5704 156.159 38.4778 156.199C38.3852 156.238 38.2807 156.239 38.1873 156.202C38.0939 156.164 38.0193 156.091 37.9798 155.999C37.8976 155.805 38.0472 155.723 38.2401 155.64C38.4329 155.558 38.5961 155.508 38.6783 155.701ZM43.459 153.664C43.4985 153.757 43.4995 153.861 43.4619 153.955C43.4243 154.048 43.3511 154.123 43.2584 154.162C43.1658 154.202 43.0612 154.203 42.9678 154.165C42.8744 154.127 42.7998 154.054 42.7603 153.962C42.6781 153.769 42.8276 153.686 43.0205 153.604C43.2134 153.522 43.3765 153.471 43.459 153.664Z" fill="#080711"/>
<path d="M54.9314 259.556L54.6759 259.502C55.1013 257.464 55.745 249.5 54.0558 241.868L54.3108 241.812C56.1404 250.079 55.2498 258.031 54.9314 259.556ZM48.2172 237.896C47.7843 237.896 47.3473 237.89 46.9062 237.877C40.7719 237.697 34.558 236.262 30.689 234.131L30.815 233.903C34.6496 236.014 40.8184 237.437 46.9138 237.616C54.0375 237.825 60.0731 236.33 63.9088 233.406L64.0672 233.614C60.4226 236.392 54.8294 237.897 48.2175 237.897L48.2172 237.896Z" fill="white"/>
<path d="M31.1951 245.146L31.1716 244.886C31.2011 244.884 34.1272 244.591 35.3521 242.34C36.7591 239.754 36.6284 236.308 36.6268 236.273L36.8878 236.262C36.8891 236.297 37.0235 239.814 35.5812 242.465C34.2888 244.84 31.3209 245.135 31.1951 245.147V245.146ZM55.3152 251.815L55.1393 251.622C56.8634 250.049 56.7079 247.063 56.5831 244.665C56.556 244.145 56.5304 243.655 56.5249 243.207L56.7859 243.204C56.7911 243.646 56.8167 244.134 56.8436 244.651C56.9715 247.104 57.1307 250.158 55.3152 251.815Z" fill="white"/>
<path d="M51.6373 180.54C50.941 180.54 50.0567 180.159 48.995 179.399L49.1469 179.187C50.5839 180.215 51.6485 180.52 52.3112 180.095C53.7102 179.196 52.9789 175.341 52.9716 175.302L53.2273 175.253C53.2597 175.418 53.9996 179.32 52.4524 180.314C52.2085 180.467 51.9252 180.546 51.6373 180.54ZM41.8039 174.585C39.5977 174.585 37.3455 173.613 35.0962 171.687L35.2661 171.489C37.7466 173.612 40.2214 174.55 42.6219 174.277C46.0754 173.884 48.1916 171.067 48.2125 171.039L48.4223 171.193C48.4009 171.223 46.2218 174.128 42.6542 174.536C42.3719 174.568 42.088 174.585 41.8039 174.585ZM44.3116 182.857C41.1028 182.25 36.0013 175.935 35.7855 175.667L35.9891 175.503C36.0413 175.568 41.2456 182.011 44.3601 182.601L44.3116 182.857ZM67.4257 215.185L67.1668 215.151C67.1812 215.042 68.57 204.048 66.2546 189.574L66.5125 189.533C68.8341 204.046 67.4401 215.075 67.4257 215.185V215.185ZM54.6305 210.394L54.3695 210.386C54.375 210.217 54.8145 193.359 46.3868 175.823L46.622 175.71C55.0786 193.306 54.636 210.225 54.6305 210.394ZM42.0824 159.991L42.0046 159.742C42.4453 159.583 42.859 159.358 43.2313 159.074L43.3923 159.28C42.9958 159.584 42.5537 159.824 42.0824 159.991Z" fill="black"/>
<path d="M33.3485 157.428C32.9444 157.276 31.9255 157.389 31.7858 158.239C31.671 158.938 32.0847 159.638 32.4778 160.115C32.8995 160.626 33.6436 161.168 34.2894 160.739C35.7747 159.753 34.0038 157.675 33.3485 157.428V157.428Z" fill="#302289"/>
<path fill-rule="evenodd" clip-rule="evenodd" d="M68.5972 212.613C91.0928 205.438 114.081 199.054 136.822 192.69C134.972 187.181 132.236 178.713 130.596 174.08C128.957 169.447 127.517 170.274 124.423 170.001C123.058 169.881 122.503 171.108 121.729 171.913C120.238 173.466 119.183 175.178 116.728 175.559C110.689 176.496 105.831 172.902 104.134 166.949C102.435 160.997 104.392 154.749 109.79 151.692C111.981 150.451 113.823 151.063 115.992 151.471C117.122 151.684 118.219 152.039 119.302 151.376C121.758 149.874 123.024 148.034 121.907 144.766C120.119 139.536 117.605 133.365 115.59 127.981C109.174 130.352 102.38 133.377 96.0696 135.512C92.7186 136.646 90.9286 135.083 89.3298 132.622C88.623 131.534 88.7937 130.178 88.9419 129.011C89.2277 126.761 89.7158 124.691 88.4943 122.558C85.4902 117.313 79.4559 115.858 73.9563 118.359C68.4565 120.861 65.845 126.541 67.6477 132.25C68.3793 134.567 70.2781 135.706 72.1432 137.004C73.1149 137.68 74.3215 138.568 74.6258 139.791C75.3133 142.556 75.0426 144.393 71.6201 145.055C65.1752 146.301 57.9599 147.806 51.4412 149.647C57.6762 171.572 61.2182 190.295 68.5972 212.613V212.613Z" fill="#5447AA"/>
<path d="M76.6568 201.552C76.6568 201.552 57.335 217.913 44.5664 213.143C33.0597 208.844 14.7187 185.659 23.2609 183.469C30.5107 181.611 44.5517 196.406 51.178 199.561C58.6358 203.112 72.6661 196.253 72.6661 196.253L76.6568 201.552Z" fill="#4A3AAD"/>
<path d="M75.9253 201.79C75.9253 201.79 80.2141 200.676 83.0984 196.911C83.3411 196.594 85.3022 193.816 85.6267 192.226C85.8934 190.919 84.9538 188.809 84.1061 189.821C80.7689 193.802 78.3727 193.397 78.3727 193.397C78.3727 193.397 79.6819 191.742 79.9147 190.539C80.006 190.069 79.3783 190.131 78.3145 190.834C77.46 191.4 75.8906 192.05 75.1564 192.66C73.8535 193.742 72.3459 196.418 72.3459 196.418L75.9253 201.79Z" fill="#4A3AAD"/>
<path d="M41.2197 211.454C45.0702 207.035 52.1198 197.478 50.1574 196.092C39.2288 188.37 33.9803 184.087 30.3266 180.719C26.1026 176.825 18.2624 177.126 17.8889 182.064C17.1197 192.23 37.721 215.47 41.2197 211.454Z" fill="url(#paint2_linear_1382_853)"/>
<path d="M37.1809 210.95C31.8805 207.808 25.6525 199.556 25.5898 199.473L25.7986 199.316C25.8608 199.399 32.0582 207.61 37.314 210.726L37.1809 210.95Z" fill="black"/>
<path d="M212.72 23.5073C208.729 23.3507 205.267 25.048 201.705 26.5775C200.458 27.113 199.268 27.6165 198.694 27.232C197.129 26.1839 195.995 24.0974 194.598 22.7992C191.288 19.7233 186.584 17.1525 182.199 19.7808C180.177 20.9934 182.037 25.1012 174.291 24.2144C165.497 23.2074 161.526 30.6368 164.765 36.0395C165.688 37.5776 166.449 39.0138 166.275 40.9069C166.098 42.8391 164.858 44.5959 163.781 46.1386C161.504 49.3985 160.559 51.2884 159.937 55.3457C159.36 59.1129 160.952 62.7675 163.893 65.3153C169.721 70.3649 178.188 65.8963 179.825 64.8701C182.514 63.1856 186.675 65.3227 188.397 65.0575C191.85 64.5261 192.407 63.836 194.628 62.4462C196.071 61.5436 198.079 61.1913 199.713 61.3708C201.932 61.6482 204.185 61.4019 206.291 60.6515C209.971 59.2761 211.549 56.2198 212.141 52.4666C212.339 51.2112 212.139 49.2805 212.774 48.1491C213.259 47.2826 214.143 47.1782 215.142 46.9052C218.79 45.9079 222.33 44.7517 224.03 41.0434C227.737 32.9613 221.103 23.8364 212.72 23.5073Z" fill="#080711"/>
<path d="M220.021 36.7684C226.928 34.9946 221.047 26.1705 216.755 26.9378C212.462 27.7051 214.715 38.1308 220.021 36.7684Z" fill="url(#paint3_linear_1382_853)"/>
<path d="M244.801 18.9109C239.258 22.2217 237.62 21.9187 235.58 20.282C233.72 18.7906 230.399 15.1178 227.084 15.4067C222.699 15.7891 221.223 18.0392 219.727 19.5514C214.453 24.8836 215.1 35.2623 222.429 37.2133C226.967 38.4217 230.644 37.2903 232.742 33.8169C235.313 29.5584 236.98 32.7251 240.425 31.5848C248.207 29.0082 244.251 21.0075 250.431 19.7049C256.155 18.463 249.771 15.9418 244.801 18.9109Z" fill="#080711"/>
<path d="M155.184 103.312C155.184 103.312 150.306 99.2534 147.612 98.5192C145.75 98.0121 144.909 97.8949 144.268 97.3359C143.696 96.8355 143.325 95.3559 142.736 95.5297C141.49 95.8977 142.375 99.3278 142.711 100.026C143.733 102.147 145.557 104.242 147.999 105.123C149.213 105.561 154.693 107.269 154.693 107.269L155.184 103.312Z" fill="#D5CFFF"/>
<path d="M186.824 66.4218C179.89 72.6038 179.144 84.9818 174.276 91.81C166.419 102.831 152.137 98.7495 152.137 98.7495L149.9 107.184C149.9 107.184 178.141 122.098 190.63 109.778C197.787 102.719 189.222 64.2839 186.824 66.4218Z" fill="url(#paint4_linear_1382_853)"/>
<path d="M175.378 124.729C175.378 124.729 188.912 124.845 208.179 124.261C214.375 124.074 225.719 123.045 225.719 123.045C222.29 115.234 221.129 108.529 220.098 103.551C216.639 86.8463 218.003 73.1608 212.456 67.1058C209.192 63.5432 204.467 60.2702 195.786 61.6319C190.96 62.3888 185.721 65.8123 182.409 70.8995C171.704 87.3385 184.81 98.3828 177.079 121.526C176.896 122.072 175.708 124.031 175.378 124.729Z" fill="url(#paint5_linear_1382_853)"/>
<path d="M189.717 65.2223C186.826 71.3793 202.253 70.3731 199.443 63.6148C198.577 61.532 191.027 62.433 189.717 65.2223ZM150.559 94.3984C155.373 95.5421 151.117 98.6814 151.117 98.6814C151.66 102.394 148.218 100.696 148.218 100.696C148.818 99.6217 149.309 98.4898 149.681 97.3172C150.177 95.8402 150.559 94.3984 150.559 94.3984Z" fill="#080711"/>
<path d="M139.432 99.8467C139.172 99.7331 139.348 99.0344 139.624 99.1023C140.475 99.3111 139.746 99.9834 139.432 99.8467Z" fill="#2300FF"/>
<path d="M193.82 71.8446C194.024 71.6478 193.621 71.059 193.386 71.2185C192.662 71.7112 193.573 72.0819 193.819 71.8449L193.82 71.8446ZM193.822 74.3137C194.027 74.1171 193.624 73.5281 193.389 73.6878C192.664 74.1803 193.576 74.5509 193.822 74.3137Z" fill="#080711"/>
<path d="M180.538 54.1991C180.481 53.3299 181.389 52.9397 182.46 53.2013C183.341 53.4166 184.019 55.9519 182.818 56.3158C181.556 56.6981 180.636 55.6988 180.538 54.1991Z" fill="#C0B8F4"/>
<path d="M190.71 66.3209C188.977 60.1195 185.522 55.504 186.132 53.8485C186.995 51.5073 194.4 48.7357 194.933 51.5971C195.277 53.4463 197.121 58.7015 198.552 64.4289C199.273 67.3148 191.739 70.002 190.71 66.3206V66.3209Z" fill="#D5CFFF"/>
<path d="M195.569 54.0273L196.613 57.4872C196.257 60.1548 193.562 63.9346 191.551 63.9138C189.98 63.8976 189.351 62.0312 189.351 62.0312L188.468 58.8767L195.569 54.0273Z" fill="#C0B8F4"/>
<path d="M195.063 51.844L195.844 55.1399L195.569 54.0273C195.768 57.5894 194.422 62.2556 191.043 62.7823C190.519 62.8642 189.563 62.0776 189.166 61.6383L186.307 54.9875L195.062 51.8438L195.063 51.844Z" fill="#080711"/>
<path d="M180.14 46.2665C180.919 44.023 184.988 40.0975 189.089 42.4716C192.464 44.4246 193.981 48.6228 194.622 51.9532C195.31 55.5268 194.269 60.8867 190.151 62.0544C186.647 63.048 184.204 59.9654 182.693 56.9096C180.96 53.4051 178.879 49.9038 180.14 46.2663V46.2665Z" fill="#D5CFFF"/>
<path d="M186.83 53.3942C186.729 52.5441 189.495 55.7881 188.609 56.9263C188.284 57.345 186.966 57.5937 186.801 57.0503C186.577 56.309 187.181 56.3542 186.83 53.3939V53.3942Z" fill="#AB9EFF"/>
<path d="M193.661 50.1935C193.668 48.7465 194.631 47.7939 195.781 48.2809C196.734 48.6844 196.971 51.8827 195.582 52.4386C194.682 52.7988 193.654 51.8248 193.661 50.1935H193.661Z" fill="#C0B8F4"/>
<path d="M177.156 43.5459C180.021 40.815 184.042 42.5992 182.416 47.8785C181.505 50.8317 182.553 52.8852 181.332 54.0924C179.005 56.3944 172.173 48.2956 177.156 43.5459Z" fill="#080711"/>
<path d="M198.824 44.6C194.998 43.8457 197.135 40.0685 194.206 38.1246C191.644 36.4237 189.446 36.9877 187.259 34.9007C185.062 32.8059 184.091 35.809 179.507 36.6385C175.138 37.4288 175.02 43.4375 180.013 47.2609C183.106 49.6287 186.826 50.3898 189.681 49.0957C192.858 47.655 194.008 50.0231 196.54 49.4846C200.581 48.6249 202.773 44.9286 202.773 44.9286C202.773 44.9286 201.412 45.11 198.824 44.5998V44.6ZM185.351 52.0594C185.459 51.7707 184.309 51.5387 183.744 51.9973C183.363 52.306 183.36 53.0204 183.36 53.0204C183.441 52.8046 183.588 52.6201 183.78 52.4931C183.972 52.3662 184.2 52.3034 184.43 52.3139C184.89 52.3491 185.285 52.2356 185.351 52.0591V52.0594ZM188.182 51.0428C187.919 50.8277 188.918 49.9868 189.72 50.1152C190.261 50.2019 190.653 50.8763 190.653 50.8763C190.453 50.7149 190.208 50.6196 189.952 50.6035C189.695 50.5873 189.44 50.6512 189.222 50.7862C188.79 51.0681 188.342 51.1743 188.182 51.0428ZM184.637 53.8211C184.608 53.7127 184.622 53.5971 184.677 53.4993C184.732 53.4014 184.824 53.3291 184.932 53.2977C185.039 53.2663 185.155 53.2784 185.254 53.3313C185.353 53.3843 185.428 53.4739 185.461 53.581C185.528 53.8086 185.398 53.9334 185.171 53.9999C184.943 54.0665 184.703 54.0487 184.637 53.8211ZM189.185 52.352C189.182 52.2395 189.223 52.1303 189.3 52.0479C189.376 51.9655 189.482 51.9164 189.595 51.9113C189.707 51.9062 189.817 51.9454 189.901 52.0204C189.985 52.0955 190.036 52.2005 190.043 52.3128C190.054 52.5498 189.843 52.6487 189.606 52.6594C189.369 52.6701 189.196 52.589 189.185 52.352Z" fill="#080711"/>
<path d="M179.572 101.894C179.548 101.775 177.158 89.9539 178.193 81.1161L178.452 81.1467C177.422 89.9432 179.803 101.723 179.827 101.841L179.572 101.894ZM190.908 71.9999C190.856 71.9999 190.804 71.9984 190.752 71.9952C189.555 71.9248 188.054 70.9233 187.764 68.3337L188.023 68.3047C188.295 70.733 189.672 71.6703 190.768 71.7347C191.843 71.7979 193.106 71.105 193.501 69.4134L193.755 69.4727C193.403 70.9823 192.245 71.9999 190.908 71.9999Z" fill="black"/>
<path d="M196.852 71.7719C195.602 71.7719 194.415 70.9874 193.517 69.5101L193.74 69.3744C194.892 71.2674 196.532 71.9554 198.129 71.2152C199.828 70.4278 201.136 68.0519 200.376 65.77L200.624 65.6875C200.978 66.7749 200.932 67.9531 200.495 69.0099C200.058 70.0667 199.258 70.9327 198.239 71.4519C197.806 71.6587 197.332 71.7679 196.852 71.7719Z" fill="black"/>
<path d="M186.381 47.1356C184.177 47.1356 181.791 46.2785 179.66 44.6467L179.819 44.4395C182.927 46.8193 186.58 47.5162 189.353 46.2592C191.218 45.4138 192.403 45.846 193.549 46.2639C194.393 46.5716 195.191 46.8621 196.239 46.6392C200.179 45.8014 202.366 42.1808 202.387 42.1445L202.611 42.2776C202.589 42.315 200.343 46.0329 196.294 46.8947C195.172 47.1333 194.301 46.8159 193.459 46.509C192.362 46.1091 191.228 45.6957 189.461 46.4967C188.492 46.9271 187.441 47.145 186.381 47.1356Z" fill="white"/>
<path d="M195.029 44.479C194.086 44.479 193.375 44.1097 192.685 43.7516C191.695 43.2377 190.671 42.7066 188.898 43.2479L188.822 42.9984C190.696 42.4257 191.768 42.9819 192.805 43.5198C193.567 43.9153 194.286 44.289 195.307 44.2065C199.14 43.8975 201.661 40.7352 201.686 40.7031L201.892 40.8642C201.866 40.897 199.277 44.1483 195.328 44.4667C195.226 44.4749 195.126 44.479 195.029 44.479Z" fill="white"/>
<path d="M188.562 58.4695L188.552 58.2085C189.584 58.1683 189.933 57.6771 189.948 57.6562L190.164 57.8019C190.148 57.8272 189.737 58.4236 188.562 58.4695Z" fill="#1F136D"/>
<path d="M212.369 97.3318C209.427 102.849 206.716 106.145 206.716 106.145C212.333 105.308 217.855 101.991 219.084 97.5896C219.084 97.5896 217.726 87.355 216.822 81.957C216.249 82.8097 213.499 95.2122 212.369 97.3318Z" fill="#080711"/>
<path d="M199.089 84.9193L198.835 84.8567C198.853 84.7852 200.668 77.5957 205.924 67.6562L206.155 67.7784C200.915 77.6873 199.106 84.8481 199.089 84.9193Z" fill="black"/>
<path fill-rule="evenodd" clip-rule="evenodd" d="M165.291 132.347C143.431 134.21 122.538 137.685 100.88 140.655C100.48 135.343 99.9333 126.786 99.6942 122.342C99.4552 117.899 103.542 115.737 106.543 117.253C108.338 118.16 110.039 119.039 112.241 118.448C117.655 116.995 121.426 112.131 120.475 106.357C119.525 100.583 113.091 91.7228 104.013 99.237C99.653 102.846 96.7692 99.559 96.1519 96.4095C95.1641 91.3683 94.8052 86.2037 92.4504 80.2408C99.1451 79.2882 107.589 77.9855 114.077 77.8793C122.368 77.7433 118.484 71.6968 117.861 70.9722C111.445 63.5066 120.61 57.7748 125.784 57.7022C139.537 57.5098 135.986 66.7012 134.798 69.6925C133.008 74.1992 136.132 75.6449 139.298 75.019C145.26 73.8401 152.324 72.2211 158.61 71.1395C161.514 91.4748 163.264 111.906 165.292 132.347H165.291Z" fill="#5A41FB"/>
<path fill-rule="evenodd" clip-rule="evenodd" d="M8.81323 69.102C22.9271 58.2266 35.672 46.6753 49.1612 35.1328C51.767 38.5853 55.8995 44.1903 58.0149 47.1205C60.1303 50.0508 58.2881 53.3235 55.5727 53.6056C53.948 53.7745 52.3997 53.9212 51.1555 55.2917C48.0956 58.663 47.6563 63.6416 50.8421 67.1682C54.0276 70.6946 62.3143 73.9205 65.2146 64.8002C66.6072 60.4201 70.0209 61.3983 71.8257 63.2785C74.7152 66.2879 77.2292 69.6581 81.4566 72.6967C77.3022 76.2881 72.1068 80.8872 67.7217 83.8101C62.118 87.545 67.4276 89.9684 68.1712 90.1897C75.8331 92.4709 72.0903 100.412 68.5885 102.734C59.2786 108.907 57.667 101.069 57.1645 98.5039C56.4071 94.6393 53.6379 95.0242 51.7503 96.8426C48.196 100.266 44.0822 104.475 40.2632 107.976C29.3471 95.3607 19.177 82.1736 8.81323 69.102Z" fill="#7764F0"/>
<path d="M169.326 102.503C169.326 102.503 164.59 98.084 161.828 96.8257C159.724 95.8673 158.87 95.8005 157.781 95.7778C155.917 95.7386 152.95 98.3995 152.405 98.7944C151.215 99.6557 152.232 101.446 154.662 102.274C156.605 102.936 158.648 102.494 161.325 103.92C162.558 104.577 168.464 106.602 168.464 106.602L169.326 102.503Z" fill="#D5CFFF"/>
<path d="M165.802 99.4785C165.802 99.4785 164.426 96.4874 163.945 95.7756C163.309 94.836 161.7 93.3264 160.575 93.4572C159.949 93.53 161.59 96.2619 161.828 96.8241C162.488 98.3833 161.678 99.4231 162.906 100.173C163.789 100.713 165.802 99.4785 165.802 99.4785Z" fill="#D5CFFF"/>
<path d="M210.026 65.453C203.965 64.404 200.398 87.2178 195.094 92.2065C184.431 102.238 166.621 99.5837 166.621 99.5837L163.945 106.984C163.945 106.984 188.123 118.238 204.456 108.225C212.041 103.575 216.891 95.3581 216.81 82.0137C216.752 72.2949 213.483 66.0515 210.026 65.4533V65.453Z" fill="url(#paint6_linear_1382_853)"/>
<path d="M168.612 100.535C173.895 101.641 169.7 105.11 169.7 105.11C170.32 108.984 166.537 107.272 166.537 107.272C167.185 106.143 167.714 104.949 168.116 103.71C168.446 102.684 168.613 101.613 168.612 100.535Z" fill="#080711"/>
<path d="M167.77 106.837C167.484 106.723 167.672 105.989 167.975 106.055C168.909 106.258 168.115 106.974 167.77 106.837Z" fill="#2300FF"/>
<path d="M36.2012 103.64L8.62964 69.0798L8.73143 68.9984C17.5553 61.9537 30.7998 51.237 31.1218 50.5866L31.374 50.6477C31.2638 51.3088 12.9552 65.9601 8.99634 69.121L36.405 103.477L36.2012 103.64ZM34.4538 47.902L34.2946 47.6953C37.1295 45.5107 40.1788 42.9777 40.2454 42.5859L40.503 42.629C40.3915 43.2972 35.4445 47.1386 34.4538 47.902ZM95.492 79.9345L95.4453 79.6777C95.5492 79.6589 105.913 77.7904 113.69 77.7549L113.692 78.0159C105.937 78.0511 95.5956 79.9157 95.492 79.9343V79.9345ZM100.759 140.801L100.046 130.393L100.306 130.375L101 140.504L140.335 134.966L140.372 135.224L100.759 140.801Z" fill="black"/>
<path d="M142.481 134.691L149.6 133.817L149.632 134.076L142.513 134.95L142.481 134.691Z" fill="black"/>
<path d="M91.116 200.93L119.21 192.819L119.282 193.07L91.1884 201.18L91.116 200.93Z" fill="black"/>
</g>
<defs>
<linearGradient id="paint0_linear_1382_853" x1="54.4667" y1="142.332" x2="89.557" y2="234.361" gradientUnits="userSpaceOnUse">
<stop stop-color="#462DE2"/>
<stop offset="0.156" stop-color="#442CDC"/>
<stop offset="0.355" stop-color="#3E28CC"/>
<stop offset="0.579" stop-color="#3622B2"/>
<stop offset="0.819" stop-color="#2A1A8E"/>
<stop offset="1" stop-color="#1F136D"/>
</linearGradient>
<linearGradient id="paint1_linear_1382_853" x1="42.833" y1="144.087" x2="42.288" y2="241.536" gradientUnits="userSpaceOnUse">
<stop stop-color="#462DE2"/>
<stop offset="0.156" stop-color="#442CDC"/>
<stop offset="0.355" stop-color="#3E28CC"/>
<stop offset="0.579" stop-color="#3622B2"/>
<stop offset="0.819" stop-color="#2A1A8E"/>
<stop offset="1" stop-color="#1F136D"/>
</linearGradient>
<linearGradient id="paint2_linear_1382_853" x1="22.085" y1="151.831" x2="52.0899" y2="247.673" gradientUnits="userSpaceOnUse">
<stop stop-color="#462DE2"/>
<stop offset="0.156" stop-color="#442CDC"/>
<stop offset="0.355" stop-color="#3E28CC"/>
<stop offset="0.579" stop-color="#3622B2"/>
<stop offset="0.819" stop-color="#2A1A8E"/>
<stop offset="1" stop-color="#1F136D"/>
</linearGradient>
<linearGradient id="paint3_linear_1382_853" x1="214.953" y1="33.1533" x2="254.424" y2="18.2282" gradientUnits="userSpaceOnUse">
<stop stop-color="#5A41FB"/>
<stop offset="1" stop-color="#1C00CD"/>
</linearGradient>
<linearGradient id="paint4_linear_1382_853" x1="147.996" y1="97.3484" x2="193.187" y2="88.5642" gradientUnits="userSpaceOnUse">
<stop stop-color="#3C1DFF"/>
<stop offset="1" stop-color="#3A1DF0"/>
</linearGradient>
<linearGradient id="paint5_linear_1382_853" x1="200.751" y1="55.1396" x2="200.384" y2="174.917" gradientUnits="userSpaceOnUse">
<stop stop-color="#3C1DFF"/>
<stop offset="1" stop-color="#3A1DF0"/>
</linearGradient>
<linearGradient id="paint6_linear_1382_853" x1="218.329" y1="85.0884" x2="161.854" y2="97.3737" gradientUnits="userSpaceOnUse">
<stop stop-color="#3C1DFF"/>
<stop offset="1" stop-color="#3A1DF0"/>
</linearGradient>
<clipPath id="clip0_1382_853">
<rect width="261" height="261" fill="white"/>
</clipPath>
</defs>
</svg>
