<svg width="762" height="677" viewBox="0 0 762 677" fill="none" xmlns="http://www.w3.org/2000/svg">
<path opacity="0.7" d="M527.626 445.516C490.948 455.671 421.64 526.502 464.617 559.726C507.594 592.95 635.915 415.508 527.626 445.516Z" fill="url(#paint0_radial_1353_3835)"/>
<path opacity="0.7" d="M537.549 434.77C382.033 466.453 428.684 547.321 324.934 566.362C184.946 592.071 119.295 382.234 207.061 252.741C277.199 149.262 398.187 116.563 505.375 159.095C656.793 219.094 660.298 409.755 537.549 434.77Z" fill="url(#paint1_radial_1353_3835)"/>
<path d="M178.478 567.816H622.131V571.185H178.478V567.816Z" fill="#131313"/>
<path d="M610.057 507.445H389.263C382.527 507.445 376.066 504.77 371.303 500.009C366.539 495.248 363.863 488.791 363.863 482.057V309.626C363.863 303.79 366.183 298.194 370.311 294.067C374.439 289.941 380.038 287.623 385.877 287.623H613.511C619.35 287.623 624.949 289.941 629.077 294.067C633.205 298.194 635.525 303.79 635.525 309.626V482.041C635.527 485.382 634.869 488.69 633.59 491.777C632.31 494.863 630.433 497.667 628.067 500.027C625.701 502.387 622.892 504.257 619.802 505.53C616.711 506.803 613.4 507.454 610.057 507.445ZM385.809 290.94C380.869 290.94 376.131 292.902 372.638 296.393C369.145 299.885 367.182 304.62 367.182 309.558V482.041C367.187 487.91 369.522 493.539 373.674 497.689C377.827 501.84 383.458 504.174 389.331 504.178H610.057C615.928 504.169 621.557 501.834 625.709 497.684C629.86 493.535 632.197 487.909 632.206 482.041V309.626C632.179 304.696 630.208 299.976 626.721 296.49C623.233 293.005 618.511 291.035 613.579 291.008L385.809 290.94Z" fill="#5E45FF"/>
<path d="M592.412 296.188C592.046 296.184 591.687 296.29 591.381 296.491C591.075 296.693 590.835 296.981 590.694 297.319C590.552 297.656 590.514 298.029 590.584 298.388C590.655 298.748 590.831 299.078 591.09 299.337C591.35 299.596 591.68 299.772 592.04 299.843C592.399 299.913 592.772 299.875 593.11 299.733C593.448 299.592 593.736 299.353 593.937 299.047C594.139 298.741 594.245 298.382 594.241 298.015C594.241 297.775 594.194 297.538 594.102 297.316C594.01 297.094 593.875 296.893 593.706 296.723C593.536 296.553 593.334 296.419 593.112 296.327C592.89 296.235 592.653 296.188 592.412 296.188Z" fill="url(#paint2_linear_1353_3835)"/>
<path d="M600.168 296.188C599.802 296.184 599.443 296.29 599.137 296.491C598.83 296.693 598.591 296.981 598.449 297.319C598.308 297.656 598.27 298.029 598.34 298.388C598.411 298.748 598.587 299.078 598.846 299.337C599.105 299.596 599.436 299.772 599.795 299.843C600.155 299.913 600.528 299.875 600.866 299.733C601.203 299.592 601.492 299.353 601.693 299.047C601.895 298.741 602 298.382 601.997 298.015C601.997 297.775 601.95 297.538 601.858 297.316C601.766 297.094 601.631 296.893 601.461 296.723C601.292 296.553 601.09 296.419 600.868 296.327C600.646 296.235 600.408 296.188 600.168 296.188Z" fill="url(#paint3_linear_1353_3835)"/>
<path d="M607.907 296.188C607.54 296.184 607.181 296.29 606.875 296.491C606.569 296.693 606.329 296.981 606.188 297.319C606.046 297.656 606.008 298.029 606.079 298.388C606.149 298.748 606.325 299.078 606.585 299.337C606.844 299.596 607.174 299.772 607.534 299.843C607.893 299.913 608.266 299.875 608.604 299.733C608.942 299.592 609.23 299.353 609.431 299.047C609.633 298.741 609.739 298.382 609.735 298.015C609.735 297.775 609.688 297.538 609.596 297.316C609.504 297.094 609.37 296.893 609.2 296.723C609.03 296.553 608.828 296.419 608.606 296.327C608.385 296.235 608.147 296.188 607.907 296.188Z" fill="url(#paint4_linear_1353_3835)"/>
<path d="M586.08 336.892L584.623 338.161L582.27 340.226L581.779 340.649L561.272 358.623L555.126 364.005V364.022L550.74 367.847L550.537 367.712L549.961 367.323L545.05 363.938L531.368 354.561L527.626 351.989L512.86 381.421L510.286 386.55L508.373 387.26L504.918 388.564L488.103 394.877L484.903 396.061L482.803 398.566L482.312 399.142L480.975 400.75L461.738 423.666L456.963 429.353L456.794 429.201L451.595 424.529L436.948 411.379L436.118 410.617L433.341 408.129L433.121 407.926L431.665 409.635L430.733 410.702L410.887 433.686L407.348 437.782L407.06 437.934L402.522 440.27L382.609 450.526L380.695 447.852L401.032 437.375L405.282 435.175L406.315 434.007L408.415 431.57L408.788 431.13L428.498 408.298L432.833 403.288L433.341 403.745L438.252 408.163L453.305 421.686L454.389 422.668L456.591 424.648L456.641 424.682L459.588 421.178L460.231 420.416L478.401 398.753L482.803 393.489L482.956 393.32L486.613 391.949L489.814 390.747L503.784 385.517L507.949 383.943L509.947 379.966L526.39 347.199L547.048 361.365L550.503 363.735L553.144 361.416L554.16 360.519L558.191 356.982L579.645 338.195L582.49 335.707L583.929 334.438L586.08 336.892Z" fill="url(#paint5_linear_1353_3835)"/>
<path d="M593.564 354.071L606.095 317.191L567.876 324.774L593.564 354.071Z" fill="url(#paint6_linear_1353_3835)"/>
<path d="M411.666 436.479C411.666 437.537 411.352 438.571 410.764 439.451C410.176 440.33 409.341 441.016 408.363 441.42C407.385 441.825 406.309 441.931 405.271 441.725C404.233 441.518 403.28 441.009 402.532 440.261C401.783 439.513 401.274 438.56 401.067 437.523C400.861 436.485 400.967 435.41 401.372 434.432C401.777 433.455 402.463 432.62 403.342 432.032C404.222 431.445 405.257 431.131 406.315 431.131C407.734 431.131 409.095 431.694 410.099 432.697C411.102 433.7 411.666 435.061 411.666 436.479Z" fill="url(#paint7_linear_1353_3835)"/>
<path d="M438.692 406.03C438.692 407.088 438.378 408.122 437.79 409.001C437.202 409.881 436.367 410.566 435.389 410.971C434.411 411.376 433.335 411.482 432.297 411.275C431.259 411.069 430.306 410.56 429.557 409.812C428.809 409.064 428.3 408.111 428.093 407.073C427.887 406.036 427.993 404.961 428.398 403.983C428.803 403.006 429.488 402.171 430.368 401.583C431.248 400.995 432.283 400.682 433.341 400.682C434.045 400.679 434.741 400.816 435.392 401.084C436.042 401.352 436.633 401.746 437.13 402.243C437.627 402.74 438.021 403.331 438.289 403.981C438.557 404.631 438.694 405.327 438.692 406.03Z" fill="url(#paint8_linear_1353_3835)"/>
<path d="M462.161 425.749C462.165 426.811 461.852 427.851 461.264 428.736C460.675 429.621 459.837 430.311 458.856 430.719C457.874 431.127 456.793 431.235 455.751 431.029C454.708 430.822 453.75 430.311 452.998 429.559C452.246 428.808 451.735 427.851 451.528 426.808C451.322 425.766 451.429 424.686 451.838 423.705C452.246 422.724 452.937 421.886 453.822 421.298C454.707 420.709 455.747 420.397 456.811 420.4C458.23 420.4 459.591 420.964 460.594 421.967C461.598 422.97 462.161 424.33 462.161 425.749Z" fill="url(#paint9_linear_1353_3835)"/>
<path d="M488.171 395.723C488.175 396.785 487.863 397.824 487.275 398.709C486.687 399.593 485.85 400.284 484.869 400.692C483.889 401.101 482.809 401.21 481.767 401.004C480.724 400.799 479.766 400.29 479.014 399.54C478.261 398.79 477.748 397.834 477.54 396.793C477.331 395.752 477.437 394.672 477.843 393.691C478.248 392.71 478.936 391.871 479.819 391.28C480.703 390.69 481.741 390.375 482.803 390.375C483.507 390.373 484.205 390.51 484.856 390.777C485.507 391.045 486.099 391.439 486.598 391.936C487.097 392.432 487.492 393.023 487.762 393.673C488.032 394.323 488.171 395.02 488.171 395.723Z" fill="url(#paint10_linear_1353_3835)"/>
<path d="M514.468 385.247C514.468 386.305 514.155 387.339 513.567 388.218C512.979 389.098 512.143 389.783 511.165 390.188C510.188 390.593 509.112 390.699 508.074 390.492C507.036 390.286 506.082 389.777 505.334 389.029C504.585 388.281 504.076 387.328 503.869 386.29C503.663 385.253 503.769 384.177 504.174 383.2C504.579 382.223 505.265 381.387 506.145 380.8C507.025 380.212 508.059 379.898 509.118 379.898C509.82 379.898 510.516 380.037 511.165 380.306C511.814 380.574 512.404 380.968 512.901 381.465C513.398 381.962 513.792 382.551 514.061 383.2C514.33 383.849 514.468 384.544 514.468 385.247Z" fill="url(#paint11_linear_1353_3835)"/>
<path d="M555.413 365.801C555.41 366.858 555.093 367.89 554.503 368.767C553.913 369.645 553.076 370.328 552.098 370.73C551.12 371.132 550.045 371.236 549.008 371.027C547.971 370.819 547.019 370.308 546.273 369.56C545.526 368.811 545.018 367.858 544.813 366.821C544.608 365.784 544.715 364.71 545.12 363.733C545.526 362.757 546.212 361.923 547.091 361.336C547.971 360.749 549.005 360.436 550.062 360.436C550.766 360.436 551.464 360.574 552.114 360.844C552.764 361.114 553.355 361.51 553.852 362.008C554.349 362.506 554.743 363.098 555.011 363.749C555.279 364.4 555.415 365.097 555.413 365.801Z" fill="url(#paint12_linear_1353_3835)"/>
<path d="M533.078 351.397C533.082 352.46 532.769 353.499 532.181 354.384C531.592 355.269 530.754 355.959 529.773 356.368C528.791 356.776 527.71 356.883 526.668 356.677C525.625 356.471 524.667 355.959 523.915 355.208C523.163 354.456 522.652 353.499 522.445 352.457C522.239 351.414 522.346 350.334 522.755 349.353C523.163 348.372 523.854 347.534 524.739 346.946C525.624 346.358 526.664 346.046 527.728 346.049C529.147 346.049 530.508 346.612 531.511 347.615C532.515 348.618 533.078 349.979 533.078 351.397Z" fill="url(#paint13_linear_1353_3835)"/>
<path d="M398.137 486.155C396.429 486.12 394.8 485.429 393.589 484.225C392.378 483.021 391.678 481.396 391.634 479.689V475.458C391.61 474.76 391.731 474.064 391.989 473.414C392.246 472.765 392.635 472.175 393.131 471.683C393.627 471.19 394.219 470.805 394.871 470.552C395.522 470.299 396.219 470.183 396.918 470.211C398.625 470.246 400.254 470.937 401.466 472.141C402.677 473.345 403.377 474.97 403.42 476.677V480.908C403.432 481.603 403.303 482.293 403.041 482.937C402.779 483.581 402.39 484.166 401.896 484.656C401.403 485.146 400.815 485.531 400.169 485.789C399.523 486.046 398.832 486.171 398.137 486.155Z" fill="url(#paint14_linear_1353_3835)"/>
<path d="M418.253 486.153C416.545 486.119 414.916 485.428 413.705 484.223C412.494 483.019 411.794 481.395 411.751 479.688V468.382C411.73 467.686 411.851 466.994 412.109 466.347C412.367 465.701 412.754 465.114 413.248 464.624C413.742 464.134 414.331 463.75 414.98 463.497C415.628 463.243 416.322 463.126 417.017 463.152C418.726 463.182 420.358 463.872 421.57 465.077C422.782 466.282 423.481 467.909 423.52 469.617V480.906C423.543 481.603 423.423 482.297 423.167 482.946C422.91 483.594 422.523 484.183 422.029 484.675C421.535 485.167 420.945 485.553 420.295 485.807C419.645 486.061 418.95 486.179 418.253 486.153Z" fill="url(#paint15_linear_1353_3835)"/>
<path d="M438.201 486.153C436.493 486.119 434.864 485.428 433.653 484.224C432.441 483.019 431.741 481.395 431.698 479.688V448.393C431.677 447.698 431.799 447.006 432.056 446.359C432.314 445.713 432.701 445.126 433.195 444.636C433.689 444.145 434.279 443.762 434.927 443.508C435.575 443.255 436.269 443.138 436.964 443.164C438.672 443.198 440.301 443.889 441.513 445.093C442.724 446.298 443.424 447.922 443.467 449.629V480.906C443.491 481.603 443.37 482.298 443.114 482.946C442.858 483.594 442.47 484.183 441.976 484.675C441.482 485.168 440.892 485.553 440.242 485.807C439.593 486.061 438.898 486.179 438.201 486.153Z" fill="url(#paint16_linear_1353_3835)"/>
<path d="M458.216 486.153C456.508 486.118 454.879 485.427 453.668 484.223C452.457 483.019 451.757 481.394 451.714 479.687V463.033C451.702 462.338 451.831 461.648 452.093 461.004C452.355 460.36 452.744 459.775 453.237 459.285C453.731 458.795 454.318 458.41 454.964 458.153C455.61 457.895 456.301 457.77 456.997 457.787C458.705 457.821 460.334 458.512 461.545 459.716C462.756 460.92 463.456 462.545 463.499 464.252V480.906C463.511 481.601 463.382 482.291 463.12 482.935C462.858 483.579 462.469 484.164 461.975 484.654C461.482 485.144 460.895 485.529 460.249 485.787C459.603 486.044 458.911 486.169 458.216 486.153Z" fill="url(#paint17_linear_1353_3835)"/>
<path d="M478.248 486.155C476.54 486.12 474.911 485.429 473.7 484.225C472.489 483.021 471.789 481.396 471.746 479.689V443.893C471.722 443.196 471.842 442.502 472.098 441.853C472.355 441.205 472.742 440.616 473.236 440.124C473.73 439.632 474.321 439.246 474.97 438.992C475.62 438.738 476.315 438.62 477.012 438.646C478.722 438.68 480.352 439.371 481.566 440.575C482.78 441.778 483.484 443.403 483.531 445.111V480.908C483.543 481.603 483.414 482.293 483.152 482.937C482.89 483.581 482.501 484.166 482.007 484.656C481.514 485.146 480.927 485.531 480.281 485.789C479.635 486.046 478.943 486.171 478.248 486.155Z" fill="url(#paint18_linear_1353_3835)"/>
<path d="M498.28 486.153C496.572 486.119 494.943 485.428 493.732 484.223C492.521 483.019 491.821 481.395 491.778 479.688V426.239C491.754 425.542 491.874 424.847 492.131 424.199C492.387 423.551 492.774 422.962 493.269 422.47C493.763 421.977 494.353 421.592 495.002 421.338C495.652 421.084 496.347 420.966 497.044 420.992C498.752 421.026 500.381 421.717 501.592 422.921C502.803 424.126 503.503 425.75 503.546 427.457V480.906C503.57 481.603 503.45 482.297 503.194 482.946C502.937 483.594 502.55 484.183 502.056 484.675C501.562 485.167 500.971 485.553 500.322 485.807C499.672 486.061 498.977 486.179 498.28 486.153Z" fill="url(#paint19_linear_1353_3835)"/>
<path d="M518.312 486.153C516.604 486.118 514.976 485.427 513.764 484.223C512.553 483.019 511.853 481.394 511.81 479.687V419.045C511.786 418.348 511.906 417.654 512.163 417.006C512.419 416.357 512.807 415.769 513.301 415.276C513.795 414.784 514.385 414.399 515.035 414.145C515.684 413.89 516.379 413.772 517.076 413.798C518.784 413.833 520.413 414.524 521.624 415.728C522.836 416.932 523.536 418.557 523.579 420.264V480.906C523.602 481.603 523.482 482.297 523.226 482.946C522.969 483.594 522.582 484.183 522.088 484.675C521.594 485.167 521.004 485.552 520.354 485.807C519.705 486.061 519.01 486.179 518.312 486.153Z" fill="url(#paint20_linear_1353_3835)"/>
<path d="M538.328 486.153C536.62 486.119 534.991 485.428 533.779 484.223C532.568 483.019 531.868 481.395 531.825 479.688V399.175C531.804 398.478 531.926 397.785 532.185 397.137C532.443 396.489 532.832 395.902 533.328 395.411C533.824 394.921 534.415 394.537 535.066 394.285C535.716 394.033 536.411 393.917 537.108 393.946C538.816 393.98 540.445 394.671 541.656 395.875C542.868 397.079 543.568 398.704 543.611 400.411V480.906C543.622 481.601 543.493 482.292 543.231 482.936C542.97 483.58 542.58 484.164 542.087 484.654C541.594 485.144 541.006 485.529 540.36 485.787C539.714 486.045 539.023 486.169 538.328 486.153Z" fill="url(#paint21_linear_1353_3835)"/>
<path d="M558.36 486.154C556.652 486.12 555.023 485.429 553.812 484.224C552.601 483.02 551.901 481.396 551.857 479.689V402.375C551.834 401.678 551.954 400.984 552.21 400.336C552.467 399.687 552.854 399.099 553.348 398.606C553.842 398.114 554.432 397.729 555.082 397.475C555.732 397.22 556.427 397.103 557.124 397.129C558.832 397.163 560.461 397.854 561.672 399.058C562.883 400.262 563.583 401.887 563.626 403.594V480.907C563.65 481.604 563.53 482.298 563.273 482.947C563.017 483.595 562.629 484.184 562.135 484.676C561.641 485.168 561.051 485.554 560.402 485.808C559.752 486.062 559.057 486.18 558.36 486.154Z" fill="url(#paint22_linear_1353_3835)"/>
<path d="M578.392 486.153C576.684 486.119 575.055 485.428 573.844 484.224C572.633 483.02 571.933 481.395 571.89 479.688V381.895C571.868 381.2 571.99 380.508 572.248 379.861C572.505 379.215 572.893 378.628 573.387 378.138C573.881 377.647 574.47 377.264 575.118 377.01C575.767 376.757 576.46 376.64 577.156 376.666C578.864 376.7 580.493 377.391 581.704 378.595C582.915 379.799 583.615 381.424 583.658 383.131V480.907C583.682 481.604 583.562 482.298 583.305 482.946C583.049 483.595 582.662 484.183 582.168 484.676C581.673 485.168 581.083 485.553 580.434 485.807C579.784 486.062 579.089 486.179 578.392 486.153Z" fill="url(#paint23_linear_1353_3835)"/>
<path d="M598.424 486.153C596.716 486.118 595.087 485.427 593.876 484.223C592.665 483.019 591.965 481.394 591.922 479.687V386.989C591.9 386.294 592.022 385.601 592.28 384.955C592.537 384.308 592.925 383.722 593.419 383.231C593.913 382.741 594.502 382.357 595.151 382.104C595.799 381.851 596.492 381.734 597.188 381.759C598.896 381.794 600.525 382.485 601.736 383.689C602.947 384.893 603.647 386.518 603.691 388.225V480.906C603.714 481.603 603.594 482.297 603.338 482.946C603.081 483.594 602.694 484.183 602.2 484.675C601.706 485.167 601.115 485.552 600.466 485.807C599.816 486.061 599.121 486.179 598.424 486.153Z" fill="url(#paint24_linear_1353_3835)"/>
<path d="M435.153 309.254H633.832V312.52H435.153V309.254Z" fill="#5E45FF"/>
<mask id="mask0_1353_3835" style="mask-type:luminance" maskUnits="userSpaceOnUse" x="126" y="235" width="367" height="333">
<path d="M126.526 235.596H492.862V567.817H126.526V235.596Z" fill="white"/>
</mask>
<g mask="url(#mask0_1353_3835)">
<path d="M251.341 690.894C249.563 702.183 253.306 755.108 260.977 777.11C265.549 790.244 270.595 815.242 270.595 815.242C270.595 815.242 291.05 801.55 302.446 808.726C302.446 808.726 315.739 700.288 312.234 678.928C308.729 657.569 257.387 652.457 251.341 690.894ZM241.469 529.125C241.469 529.125 251.375 553.683 240.521 557.898C228.837 562.366 209.635 569.22 209.635 569.22C209.635 569.22 208.263 557.457 216.95 552.837C225.417 548.352 225.163 536.707 225.163 536.707L241.469 529.125Z" fill="#A799FF"/>
<path d="M209.635 569.154C209.635 569.154 210.922 591.004 217.018 597.08C218.355 598.4 220.523 598.942 220.726 597.08C221.556 589.802 215.832 571.168 215.832 571.168C215.832 571.168 223.317 587.737 225.569 587.314C226.856 587.06 232.139 583.777 236.423 581.001C239.505 579.021 239.251 575.382 238.015 571.929C236.525 567.766 235.831 564.533 236.102 563.467C236.927 561.015 238.635 558.958 240.894 557.695L220.895 559.252L209.635 569.154Z" fill="#A799FF"/>
<path d="M235.373 581.424L228.854 564.787C228.854 564.787 231.496 576.144 235.373 581.424ZM230.378 584.877L220.929 566.26C220.929 566.26 226.077 579.986 230.378 584.877Z" fill="#100E1A"/>
<path d="M241.537 529.464L225.332 537.419C222.775 521.509 198.763 471.953 197.239 467.603C188.536 442.605 224.434 434.87 231.682 454.74C234.188 461.629 241.537 529.464 241.537 529.464Z" fill="#A799FF"/>
<path d="M215.053 374.872C192.854 390.104 175.074 435.362 191.126 440.219C191.126 440.219 188.739 447.294 186.267 450.374C186.267 450.374 210.82 467.401 235.83 467.418C235.83 467.418 237.405 461.392 239.624 460.123C239.624 460.123 252.95 462.966 259.486 447.463C266.023 431.96 255.964 415.305 260.553 396.688C267.174 369.726 239.353 358.082 215.053 374.872Z" fill="url(#paint25_linear_1353_3835)"/>
<path d="M202.252 459.986L202.895 458.564C197.498 456.136 192.291 453.307 187.316 450.102C189.165 447.053 190.664 443.805 191.787 440.421L192.041 439.659L191.279 439.439C188.315 438.542 186.504 436.054 185.877 432.111C183.693 418.114 197.9 387.547 215.426 375.48L214.545 374.193C196.274 386.769 182.05 417.623 184.353 432.365C184.996 436.562 186.978 439.405 190.06 440.658C188.99 443.889 187.492 446.963 185.606 449.797L185.064 450.441L185.758 450.931C191.003 454.389 196.519 457.417 202.252 459.986Z" fill="#100E1A"/>
<path d="M230.818 456.365C232.753 456.363 234.68 456.13 236.559 455.671L236.186 454.165C219.405 458.159 211.159 442.419 211.074 442.318L210.769 441.725L210.143 441.911C201.829 444.484 194.903 433.974 194.784 433.872L193.48 434.718C193.785 435.192 200.863 445.838 210.007 443.57C211.497 446.058 218.44 456.365 230.818 456.365ZM188.875 713.659C205.994 690.167 216.069 647.804 227.821 612.431C234.73 591.478 238.98 560.15 231.53 540.5C219.185 507.97 240.25 485.29 247.938 472.563C255.626 459.835 321.073 443.367 333.925 452.862C352.417 466.52 364.524 480.043 366.912 524.116C369.993 582.744 350.52 744.7 350.52 744.7C318.701 751.475 285.948 752.695 253.712 748.305C251.037 735.374 251.409 704.029 251.409 704.029L225.213 732.852C214.071 720.615 198.408 715.656 188.875 713.659ZM249.665 330.663C253.374 337.044 260.062 341.411 259.283 327.702C258.335 310.929 307.239 303.245 288.443 289.603C260.367 269.243 234.882 305.174 249.665 330.663Z" fill="#100E1A"/>
<path d="M286.444 340.006V366.256C285.005 368.372 277.182 377.647 257.438 364.564V329.021C266.879 333.256 276.566 336.924 286.444 340.006Z" fill="#A799FF"/>
<path d="M286.444 347.993V359.637C271.068 359.942 270.696 344.557 270.713 344.574C275.337 347.658 280.956 348.88 286.444 347.993Z" fill="#7661FF"/>
<path d="M284.903 351.565C276.555 351.565 261.315 340.14 257.945 332.507C256.743 329.799 257.217 322.572 258.318 319.085C261.705 308.152 264.549 298.217 273.033 295.221C276.623 293.969 289.628 298.318 292.93 299.029C299.195 300.383 301.938 306.73 302.006 317.816C302.074 330.239 299.618 351.683 284.903 351.565Z" fill="#A799FF"/>
<path d="M290.491 332.017C291.287 331.797 295.351 330.613 295.977 328.632C296.063 328.343 296.075 328.037 296.013 327.741C295.951 327.446 295.816 327.171 295.622 326.94C292.709 323.267 293.234 317.276 293.42 315.769C294.426 315.279 295.521 314.998 296.639 314.943C297.756 314.888 298.874 315.06 299.923 315.448L300.414 313.975C299.088 313.477 297.668 313.28 296.257 313.397C294.845 313.514 293.478 313.943 292.252 314.652L291.981 314.839V315.16C291.981 315.499 290.694 323.166 294.453 327.905C294.589 328.074 294.572 328.158 294.555 328.209C294.284 329.005 291.812 330.071 290.135 330.528L290.491 332.017ZM259.909 313.112C259.909 313.112 264.752 318.867 268.782 309.981C273.727 299.098 290.999 300.774 298.145 302.111C298.145 302.111 299.127 302.889 301.836 312.384C301.836 312.384 306.171 293.598 284.903 288.893C264.16 284.34 258.622 304.379 259.909 313.112Z" fill="#100E1A"/>
<path d="M265.701 318.359C266.166 319.829 266.186 321.404 265.756 322.885C265.326 324.366 264.467 325.687 263.287 326.68C262.107 327.674 260.659 328.295 259.126 328.467C257.592 328.638 256.042 328.351 254.672 327.643C253.302 326.934 252.172 325.836 251.426 324.486C250.68 323.136 250.35 321.596 250.48 320.059C250.609 318.522 251.191 317.058 252.152 315.852C253.113 314.646 254.41 313.751 255.88 313.281C256.858 312.968 257.889 312.852 258.912 312.938C259.936 313.024 260.932 313.311 261.845 313.782C262.757 314.254 263.568 314.901 264.229 315.686C264.891 316.472 265.391 317.38 265.701 318.359Z" fill="#A799FF"/>
<path d="M257.624 325.161C258.041 325.186 258.459 325.101 258.833 324.913C259.208 324.726 259.526 324.444 259.757 324.095C259.881 323.909 259.967 323.701 260.011 323.483C260.054 323.264 260.053 323.039 260.009 322.82C259.965 322.601 259.878 322.394 259.754 322.209C259.629 322.024 259.469 321.865 259.283 321.742C258.86 321.353 258.623 321.133 258.775 320.456C258.925 319.925 259.225 319.449 259.639 319.085C260.451 318.222 261.061 317.308 259.639 315.582C259.418 315.305 259.137 315.082 258.817 314.929C258.497 314.777 258.147 314.699 257.793 314.702C255.575 314.702 253.068 317.477 252.713 317.799L253.881 318.831C254.762 317.833 256.574 316.242 257.725 316.242C257.856 316.246 257.984 316.279 258.101 316.338C258.217 316.396 258.32 316.479 258.402 316.58C259.08 317.393 259.046 317.426 258.402 318.019C257.797 318.585 257.368 319.314 257.166 320.118C257.026 320.625 257.045 321.163 257.221 321.66C257.397 322.156 257.72 322.587 258.148 322.893L258.419 323.147V323.266C257.928 324.044 256.167 323.266 256.15 323.266L255.49 324.67C256.158 324.984 256.885 325.151 257.624 325.161ZM293.59 336.501C293.59 336.501 285.885 340.106 278.926 335.519C278.926 335.519 281.754 343.271 286.41 342.848C291.067 342.425 293.59 336.501 293.59 336.501ZM285.614 315.209L286.867 314.295C286.749 314.126 283.769 310.098 275.708 312.789L276.199 314.261C283.091 311.96 285.513 315.074 285.614 315.209Z" fill="#100E1A"/>
<path d="M280.043 321.829C281.493 321.829 282.668 320.654 282.668 319.205C282.668 317.757 281.493 316.582 280.043 316.582C278.594 316.582 277.418 317.757 277.418 319.205C277.418 320.654 278.594 321.829 280.043 321.829Z" fill="#100E1A"/>
<path d="M293.234 319.205C293.234 319.727 293.389 320.237 293.68 320.672C293.97 321.106 294.382 321.444 294.865 321.644C295.348 321.844 295.879 321.896 296.391 321.794C296.904 321.693 297.374 321.441 297.744 321.072C298.113 320.703 298.365 320.232 298.467 319.72C298.569 319.208 298.516 318.677 298.317 318.194C298.117 317.712 297.778 317.3 297.344 317.009C296.909 316.719 296.398 316.565 295.876 316.565C295.528 316.562 295.184 316.629 294.862 316.761C294.541 316.893 294.249 317.087 294.003 317.333C293.757 317.578 293.563 317.87 293.431 318.192C293.299 318.513 293.232 318.857 293.234 319.205Z" fill="#100E1A"/>
<path d="M248.496 366.95C248.496 366.95 251.426 356.372 256.828 355.746C262.229 355.119 286.698 353.731 289.17 356.135C290.796 357.913 291.959 360.063 292.557 362.397C292.557 362.397 316.264 354.307 329.218 372.704C338.836 386.38 341.985 437.019 333.824 454.384C333.824 454.384 301.108 444.805 247.464 473.239C215.426 490.248 232.461 416.083 229.836 403.389C227.177 390.34 235.509 370.775 248.496 366.95Z" fill="url(#paint26_linear_1353_3835)"/>
<path d="M239.166 476.522C242.239 476.372 245.231 475.484 247.887 473.933L247.159 472.562C241.994 475.304 237.896 475.71 234.984 473.78C226.094 467.907 228.312 441.961 229.904 423.005C230.7 413.849 231.309 406.622 230.615 403.237C228.007 390.679 235.983 371.435 248.683 367.694L248.243 366.205C234.814 370.149 226.348 390.374 229.091 403.542C229.751 406.724 229.091 414.204 228.363 422.87C226.67 442.215 224.434 468.686 234.103 475.084C235.607 476.063 237.372 476.565 239.166 476.522Z" fill="#100E1A"/>
<path d="M358.428 480.026C350.46 480.51 342.515 478.769 335.481 474.997C328.447 471.224 322.602 465.57 318.6 458.667C308.559 440.98 340.614 414.865 347.641 420.145C347.641 420.145 370.112 451.473 370.315 461.442C370.518 471.411 364.337 479.518 358.428 480.026ZM445.211 429.64C445.211 429.64 458.284 418.791 454.203 409.33C449.817 399.175 456.675 378.002 456.675 378.002C456.675 378.002 444.991 378.188 438.624 396.281C432.257 414.374 425.162 419.062 425.162 419.062L445.211 429.64Z" fill="#A799FF"/>
<path d="M455.744 378.053C465.797 378.374 475.823 379.295 485.766 380.812C487.629 381.133 487.121 384.569 485.326 385.161C478.316 387.429 459.926 383.756 459.926 383.756C459.926 383.756 476.775 390.154 476.859 392.456C476.859 393.776 474.692 399.649 472.812 404.439C471.475 407.824 470.51 407.248 466.886 406.622C462.28 405.827 458.571 405.945 458.08 406.436C457.132 407.401 454.694 417.133 453.695 418.977C453.695 418.977 441.384 405.336 441.452 399.581C441.452 392.981 455.744 378.053 455.744 378.053Z" fill="#A799FF"/>
<path d="M473.473 402.713L456.743 397.28C462.435 398.713 468.025 400.528 473.473 402.713ZM475.353 397.737L456.116 389.816C456.116 389.816 469.646 394.437 475.353 397.737Z" fill="#100E1A"/>
<path d="M428.803 418.047L446.075 428.591C435.288 440.709 379.798 479.722 356.684 480.195C343.594 480.449 337.837 471.361 336.499 465.928C333.265 452.743 346.168 444.416 360.206 438.628C362.221 437.849 428.803 418.047 428.803 418.047Z" fill="#A799FF"/>
<path d="M282.651 393.184C279.773 419.993 302.48 462.932 316.619 453.945C316.619 453.945 320.446 460.359 321.124 464.201C321.124 464.201 350.046 456.704 366.37 437.748C366.37 437.748 362.814 432.67 363.305 430.131C363.305 430.131 374.159 421.872 366.691 406.826C359.224 391.779 339.971 388.496 328.93 372.976C312.793 350.347 285.801 363.785 282.651 393.184Z" fill="url(#paint27_linear_1353_3835)"/>
<path d="M320.497 465.166L321.31 464.946C327.356 463.239 333.247 461.025 338.92 458.329L338.26 456.924C332.919 459.443 327.394 461.554 321.733 463.237C320.636 459.846 319.153 456.592 317.313 453.539L316.907 452.845L316.23 453.285C313.622 454.977 310.574 454.707 307.17 452.591C295.114 445.127 281.195 414.425 283.464 393.269L281.923 393.1C279.552 415.102 293.675 446.058 306.341 453.911C309.947 456.162 313.402 456.518 316.365 454.994C318.112 457.919 319.467 461.06 320.395 464.337L320.497 465.166Z" fill="#100E1A"/>
<path d="M313.995 448.512C314.553 448.512 327.253 450.204 331.487 441.742C334.873 442.334 350.418 444.23 358.004 429.539L356.633 428.828C348.725 444.145 331.91 440.269 331.233 440.1L330.606 439.948L330.335 440.54C326.949 448.529 314.35 446.955 314.215 446.938L313.995 448.512Z" fill="#100E1A"/>
<path d="M268.613 316.243C268.613 316.073 268.867 315.566 273.338 315.549L274.557 315.143L273.473 316.09C272.593 316.564 271.78 319.475 271.458 320.525L271.357 320.88L271.035 320.694C270.363 320.342 269.809 319.801 269.443 319.137L269.206 318.561C268.749 317.495 268.427 316.717 268.613 316.243ZM308.627 316.057C312.64 316.378 312.792 316.903 312.843 317.089C312.851 317.878 312.634 318.653 312.217 319.323L311.98 319.882C311.648 320.511 311.127 321.021 310.489 321.337L310.134 321.523V321.134C309.926 319.507 309.347 317.949 308.441 316.581L307.543 315.972L308.627 316.057ZM294.758 318.071C294.653 318.095 294.543 318.095 294.437 318.071C293.61 317.726 292.724 317.549 291.829 317.549C290.934 317.549 290.047 317.726 289.221 318.071C289.014 318.171 288.776 318.187 288.558 318.114C288.339 318.041 288.158 317.886 288.053 317.681C287.997 317.582 287.962 317.472 287.95 317.359C287.938 317.245 287.948 317.131 287.982 317.022C288.015 316.913 288.07 316.811 288.143 316.724C288.216 316.637 288.307 316.565 288.408 316.513C289.46 316.064 290.592 315.833 291.736 315.833C292.88 315.833 294.011 316.064 295.063 316.513C295.278 316.6 295.449 316.768 295.541 316.98C295.633 317.192 295.638 317.432 295.554 317.647C295.477 317.787 295.36 317.901 295.219 317.976C295.078 318.052 294.918 318.084 294.758 318.071Z" fill="#7764F0"/>
<path d="M280.467 331.73C279.089 331.746 277.726 331.45 276.479 330.864C275.233 330.277 274.136 329.416 273.27 328.345C272.123 326.738 271.315 324.914 270.896 322.985C270.476 321.056 270.455 319.061 270.832 317.124V316.988C273.244 314.757 276.401 313.502 279.688 313.468C280.167 313.443 280.648 313.443 281.127 313.468C287.24 314.179 289.594 315.82 289.848 319.341C290.126 322.922 289.017 326.473 286.749 329.259C285.971 330.057 285.037 330.687 284.007 331.112C282.976 331.537 281.87 331.747 280.755 331.73H280.467ZM271.814 317.614C271.497 319.373 271.534 321.177 271.924 322.921C272.313 324.664 273.048 326.313 274.083 327.769C274.859 328.712 275.837 329.468 276.945 329.98C278.053 330.493 279.263 330.75 280.484 330.731H280.755C281.742 330.774 282.728 330.611 283.649 330.253C284.57 329.894 285.407 329.348 286.106 328.649C289.12 325.552 288.934 320.187 288.917 319.527C288.764 316.616 286.664 315.296 281.144 314.653C280.699 314.628 280.252 314.628 279.806 314.653C276.875 314.663 274.043 315.712 271.814 317.614ZM301.413 331.73C300.398 331.708 299.398 331.476 298.476 331.048C297.555 330.619 296.733 330.004 296.062 329.242C292.93 325.671 293.37 319.493 293.421 318.816C293.743 315.296 295.995 313.739 301.515 313.519H302.057C303.705 313.584 305.322 313.993 306.803 314.718C308.284 315.444 309.597 316.471 310.659 317.733V317.936C311.082 321.507 310.303 326.398 307.611 329.293C306.889 330.078 306.009 330.702 305.028 331.122C304.047 331.542 302.988 331.749 301.921 331.73H301.413ZM302.057 314.568H301.566C296.587 314.822 294.792 315.956 294.488 318.884C294.488 319.544 294.03 325.298 296.858 328.531C297.433 329.189 298.14 329.718 298.934 330.082C299.728 330.447 300.59 330.639 301.464 330.647H301.888C302.839 330.682 303.786 330.51 304.663 330.142C305.541 329.773 306.327 329.218 306.968 328.514C308.083 327.059 308.899 325.397 309.37 323.626C309.841 321.854 309.957 320.007 309.711 318.19C308.749 317.101 307.577 316.219 306.264 315.596C304.951 314.973 303.526 314.624 302.074 314.568H302.057ZM269.24 316.836C269.305 316.791 269.359 316.734 269.4 316.666C269.441 316.599 269.467 316.524 269.477 316.447C269.497 316.285 269.455 316.121 269.359 315.99C269.303 315.916 269.232 315.856 269.149 315.815C269.067 315.774 268.976 315.753 268.884 315.753H268.664L262.721 314.229L263.263 315.262V315.397L269.071 316.887L269.24 316.836Z" fill="#7764F0"/>
<path d="M275.251 280.785C272.254 271.984 261.569 263.217 244.89 276.418C227.144 290.466 219.794 364.547 219.27 413.985C221.149 415.248 223.288 416.077 225.529 416.411C227.769 416.745 230.057 416.575 232.224 415.914C232.224 415.914 234.56 391.542 235.001 387.835C235.001 387.835 235.001 409.584 235.881 413.866C235.881 413.866 242.163 416.997 246.922 412.478C246.922 412.478 241.622 330.798 256.557 308.863C270.611 288.198 278.384 289.958 275.251 280.785Z" fill="#100E1A"/>
<path d="M275.742 278.839C275.742 278.839 278.435 281.665 276.437 284.322C276.437 284.322 263.178 284.322 257.234 291.329C256.333 290.521 255.611 289.532 255.115 288.427C254.619 287.322 254.36 286.126 254.355 284.915C254.355 284.915 265.853 275.623 275.742 278.839Z" fill="url(#paint28_linear_1353_3835)"/>
<path d="M254.965 685.461C255.27 682.719 255.591 679.808 255.947 676.744C260.485 637.191 268.054 570.963 252.256 535.928C235.746 499.32 264.973 473.627 265.277 473.306L264.261 472.121C263.957 472.392 233.866 498.846 250.833 536.436C266.463 571.098 258.91 637.055 254.406 676.457C254.051 679.52 253.712 682.431 253.424 685.173L254.965 685.461Z" fill="white"/>
<path d="M252.527 461.29C273.846 446.058 270.341 425.291 270.29 425.088L268.766 425.359C268.766 425.562 272.153 445.432 251.629 460.021L252.527 461.29Z" fill="#100E1A"/>
</g>
<path d="M339.378 166.661V167.558L406.061 166.864L372.855 110.504L369.79 112.044C360.419 117.732 352.689 125.758 347.357 135.333C342.026 144.908 339.276 155.703 339.378 166.661Z" fill="url(#paint29_linear_1353_3835)"/>
<path d="M502.615 175.123C500.806 161.674 494.691 149.173 485.183 139.486C475.675 129.8 463.286 123.45 449.868 121.386L445.702 120.557L444.551 128.224L443.992 132.015V132.489L443.789 133.877L436.525 182.959H431.394L373.99 183.619C373.99 184.584 373.99 185.549 374.091 186.496C374.212 189.208 374.495 191.909 374.938 194.587C374.938 195.044 375.09 195.517 375.175 195.974C379.104 217.418 393.531 240.301 424.603 245.531L426.009 245.751C433.8 246.832 441.697 246.929 449.512 246.039C457.414 245.109 465.046 242.588 471.946 238.629C478.847 234.67 484.873 229.355 489.661 223.004C489.865 222.767 490.051 222.513 490.237 222.276C495.617 215.13 499.457 206.946 501.515 198.242C502.457 194.316 503.024 190.31 503.208 186.276V183.027C503.173 180.382 502.975 177.743 502.615 175.123Z" fill="url(#paint30_linear_1353_3835)"/>
<path d="M428.836 174.699L438.675 107.304L434.543 106.475C420.2 104.356 405.567 107.313 393.175 114.836L428.836 174.699Z" fill="url(#paint31_linear_1353_3835)"/>
<path d="M534.568 254.587C534.568 255.675 534.245 256.739 533.64 257.644C533.034 258.549 532.174 259.254 531.167 259.67C530.16 260.086 529.053 260.194 527.985 259.98C526.917 259.767 525.936 259.241 525.167 258.47C524.398 257.699 523.876 256.717 523.665 255.649C523.455 254.581 523.566 253.475 523.985 252.47C524.404 251.465 525.112 250.607 526.02 250.005C526.927 249.402 527.993 249.083 529.082 249.086C529.804 249.086 530.519 249.228 531.185 249.505C531.852 249.782 532.458 250.187 532.967 250.698C533.477 251.209 533.881 251.816 534.155 252.483C534.43 253.15 534.57 253.865 534.568 254.587Z" fill="url(#paint32_linear_1353_3835)"/>
<path d="M548.217 172.939H547.979L549.097 193.418L566.03 182.451L565.522 181.52C563.636 178.706 561.047 176.434 558.011 174.928C554.976 173.423 551.599 172.737 548.217 172.939Z" fill="url(#paint33_linear_1353_3835)"/>
<path d="M194.225 326.313C194.225 327.402 193.902 328.466 193.297 329.371C192.691 330.276 191.831 330.981 190.824 331.397C189.818 331.812 188.71 331.92 187.642 331.707C186.574 331.493 185.594 330.968 184.825 330.197C184.056 329.426 183.533 328.444 183.322 327.376C183.112 326.308 183.223 325.201 183.643 324.196C184.062 323.192 184.77 322.334 185.677 321.731C186.584 321.129 187.65 320.809 188.739 320.813C189.461 320.813 190.176 320.955 190.842 321.232C191.509 321.508 192.115 321.914 192.624 322.425C193.134 322.936 193.538 323.542 193.813 324.209C194.087 324.877 194.228 325.592 194.225 326.313Z" fill="url(#paint34_linear_1353_3835)"/>
<path d="M244.788 176.494L244.585 176.63L256.438 193.386L264.905 175.157L263.991 174.65C260.906 173.259 257.512 172.697 254.144 173.021C250.776 173.344 247.551 174.542 244.788 176.494Z" fill="url(#paint35_linear_1353_3835)"/>
<path d="M564.202 552.11L567.047 542.802L561.34 540.5C561.558 537.652 561.277 534.789 560.51 532.037L565.675 528.652L561.12 520.071L555.413 522.509C553.558 520.321 551.327 518.481 548.826 517.076L550.113 511.05L540.817 508.207L538.48 513.928C535.632 513.697 532.766 513.972 530.013 514.74L526.627 509.578L518.16 514.131L520.565 519.801C518.384 521.663 516.545 523.891 515.129 526.385L509.118 525.098L506.307 534.39L512.013 536.692C511.8 539.538 512.075 542.4 512.826 545.154L507.661 548.539L512.233 557.12L517.889 554.7C519.757 556.875 521.985 558.713 524.476 560.133L523.189 566.158L532.503 568.985L534.805 563.281C537.653 563.505 540.519 563.23 543.272 562.469L546.659 567.631L555.244 563.061L552.839 557.408C555.015 555.545 556.849 553.317 558.258 550.824L564.202 552.11ZM531.503 555.394C528.182 554.379 525.237 552.403 523.04 549.715C520.842 547.028 519.492 543.749 519.158 540.294C518.825 536.839 519.524 533.363 521.167 530.305C522.81 527.247 525.323 524.745 528.389 523.115C531.455 521.485 534.935 520.799 538.391 521.146C541.846 521.493 545.121 522.856 547.801 525.062C550.482 527.269 552.447 530.221 553.45 533.544C554.452 536.867 554.446 540.413 553.432 543.733C552.759 545.938 551.657 547.989 550.191 549.768C548.724 551.548 546.921 553.021 544.885 554.104C542.849 555.187 540.619 555.858 538.323 556.08C536.027 556.301 533.709 556.068 531.503 555.394Z" fill="url(#paint36_linear_1353_3835)"/>
<path d="M510.032 536.168L505.968 534.526L508.118 527.502L508.525 527.637L506.493 534.272L510.201 535.761L510.032 536.168ZM523.341 566.192H522.918L524.171 560.336C522.281 559.297 520.567 557.966 519.091 556.393L519.413 556.105C520.908 557.683 522.653 559.004 524.578 560.015L524.73 560.099L523.341 566.192ZM546.523 553.448L546.286 553.093C549.476 550.949 551.869 547.813 553.093 544.171C554.318 540.53 554.306 536.586 553.059 532.952L553.466 532.799C554.741 536.525 554.752 540.568 553.497 544.3C552.242 548.033 549.791 551.248 546.523 553.448ZM561.187 536.726C560.984 535.159 560.69 533.605 560.307 532.072V531.919L562.203 530.684L562.44 531.056L560.747 532.106C561.107 533.608 561.39 535.127 561.594 536.658L561.187 536.726Z" fill="#100E1A"/>
<path d="M535.093 568.562L525.408 565.6L526.695 559.541C524.267 558.171 522.1 556.383 520.294 554.261L514.587 556.698L509.846 547.761L515.044 544.376C514.316 541.688 514.046 538.895 514.249 536.117L508.491 533.798L511.455 524.117L517.517 525.42C518.878 522.978 520.668 520.799 522.8 518.989L520.378 513.302L529.302 508.563L532.689 513.759C535.362 512.914 538.184 512.643 540.969 512.963L543.272 507.209L552.958 510.171L551.671 516.23C554.116 517.582 556.292 519.372 558.089 521.511L563.779 519.09L568.537 528.01L563.338 531.395C564.127 534.078 564.397 536.887 564.134 539.671L569.875 541.99L566.911 551.654L560.849 550.368C559.509 552.82 557.717 554.997 555.566 556.782L558.004 562.469L549.063 567.225L545.677 562.029C543.015 562.9 540.193 563.171 537.413 562.825L535.093 568.562ZM525.899 565.296L534.839 568.02L537.142 562.351H537.295C540.142 562.753 543.043 562.475 545.761 561.538H545.914L549.301 566.7L557.53 562.317L555.143 556.681L555.261 556.579C557.416 554.772 559.194 552.558 560.493 550.063L560.578 549.911L566.573 551.197L569.299 542.261L563.66 539.908V539.756C563.966 536.909 563.69 534.03 562.847 531.293V531.141L568.012 527.756L563.575 519.598L557.92 522.001L557.835 521.866C556.019 519.683 553.807 517.863 551.316 516.501L551.163 516.416L552.45 510.425L543.56 507.751L541.274 513.437H541.105C538.258 513.094 535.371 513.365 532.638 514.233H532.486L529.099 509.155L520.853 513.539L523.257 519.175L523.122 519.277C520.949 521.102 519.129 523.311 517.754 525.793L517.669 525.928L511.675 524.659L508.948 533.578L514.621 535.88V536.032C514.379 538.879 514.655 541.746 515.434 544.495V544.647L510.354 548.032L514.773 556.156L520.412 553.753L520.514 553.871C522.335 556.053 524.545 557.878 527.033 559.253H527.169L525.899 565.296Z" fill="#100E1A"/>
<path d="M539.174 555.682C535.654 555.685 532.211 554.645 529.282 552.692C526.353 550.74 524.07 547.963 522.72 544.713C521.37 541.463 521.015 537.885 521.7 534.434C522.385 530.982 524.079 527.811 526.567 525.321C529.055 522.832 532.226 521.136 535.679 520.449C539.132 519.761 542.711 520.112 545.964 521.458C549.217 522.804 551.997 525.084 553.954 528.009C555.91 530.935 556.954 534.375 556.954 537.894C556.95 542.607 555.076 547.126 551.743 550.461C548.41 553.795 543.89 555.673 539.174 555.682ZM539.174 520.546C535.741 520.546 532.386 521.563 529.531 523.469C526.677 525.375 524.452 528.085 523.139 531.255C521.825 534.425 521.481 537.913 522.151 541.278C522.821 544.643 524.474 547.734 526.901 550.161C529.329 552.587 532.421 554.239 535.788 554.908C539.155 555.578 542.645 555.234 545.816 553.921C548.988 552.608 551.699 550.385 553.606 547.532C555.513 544.679 556.531 541.325 556.531 537.894C556.526 533.294 554.696 528.884 551.442 525.632C548.188 522.379 543.776 520.55 539.174 520.546Z" fill="#100E1A"/>
<path d="M520.277 539.907L525.171 523.879L515.332 519.902C515.714 514.976 515.233 510.022 513.91 505.262L522.817 499.507L514.96 484.715L505.189 488.862C501.978 485.102 498.132 481.935 493.827 479.502L496.045 469.127L480.009 464.219L476.03 474.069C471.102 473.688 466.145 474.169 461.383 475.491L455.608 466.571L440.809 474.441L444.974 484.207C441.215 487.412 438.045 491.25 435.61 495.547L425.23 493.33L420.319 509.375L430.175 513.335C429.795 518.26 430.271 523.213 431.58 527.975L422.673 533.747L430.547 548.539L440.318 544.392C443.527 548.147 447.366 551.314 451.663 553.752L449.445 564.127L465.497 569.018L469.46 559.185C474.388 559.569 479.345 559.088 484.107 557.763L489.881 566.683L504.681 558.813L500.533 549.047C504.288 545.836 507.451 541.992 509.88 537.69L520.277 539.907ZM463.973 545.526C458.246 543.778 453.165 540.371 449.375 535.737C445.585 531.103 443.255 525.449 442.679 519.49C442.104 513.532 443.31 507.537 446.144 502.264C448.978 496.991 453.313 492.676 458.6 489.865C463.888 487.055 469.89 485.875 475.849 486.474C481.808 487.074 487.455 489.426 492.076 493.234C496.697 497.042 500.084 502.134 501.809 507.866C503.535 513.598 503.521 519.712 501.769 525.436C499.42 533.109 494.12 539.535 487.032 543.303C479.945 547.07 471.651 547.87 463.973 545.526Z" fill="url(#paint37_linear_1353_3835)"/>
<path d="M426.872 512.387L419.879 509.56L423.57 497.459L424.282 497.679L420.776 509.12L427.16 511.693L426.872 512.387ZM449.817 564.16L449.089 564.008L451.239 553.853C447.935 552.09 444.939 549.804 442.366 547.083L442.925 546.592C445.494 549.331 448.505 551.62 451.832 553.362L452.086 553.481L449.817 564.16ZM489.814 542.039L489.373 541.43C508.864 527.755 501.057 506.92 500.973 506.7L501.667 506.446C501.752 506.649 509.693 528.059 489.814 542.039ZM515.061 513.352C514.718 510.65 514.215 507.971 513.554 505.329V505.075L516.822 502.943L517.229 503.569L514.401 505.397C515.044 507.984 515.536 510.606 515.874 513.25L515.061 513.352Z" fill="#100E1A"/>
<path d="M470.086 568.258L453.39 563.18L455.608 552.721C451.412 550.364 447.668 547.281 444.551 543.615L434.73 547.796L426.551 532.411L435.509 526.605C434.254 521.966 433.79 517.148 434.137 512.355L424.231 508.36L429.311 491.672L439.759 493.906C440.538 492.552 444.449 486.019 448.869 482.837L444.686 473.021L460.096 464.846L465.887 473.782C470.501 472.352 475.361 471.891 480.162 472.428L484.158 462.527L500.854 467.605L498.619 478.048C502.825 480.39 506.571 483.475 509.677 487.153L519.498 482.973L527.694 498.374L518.736 504.163C520.101 508.787 520.567 513.631 520.107 518.431L530.013 522.425L524.933 539.113L514.486 536.879C512.163 541.102 509.067 544.851 505.359 547.931L509.541 557.747L494.149 565.939L488.341 556.986C483.748 558.491 478.878 558.959 474.083 558.357L470.086 568.258ZM454.237 562.656L469.646 567.361L473.609 557.561H473.88C478.748 558.223 483.704 557.748 488.357 556.173L488.628 556.055L494.403 564.941L508.61 557.392L504.461 547.677L504.681 547.491C508.491 544.41 511.641 540.594 513.944 536.27L514.079 536.016L524.426 538.216L529.133 522.814L519.329 518.871V518.6C519.86 513.725 519.382 508.794 517.923 504.112L517.821 503.841L526.711 498.087L519.142 483.887L509.423 488.016L509.253 487.796C506.129 484.023 502.313 480.881 498.01 478.538L497.772 478.403L499.974 468.079L484.564 463.374L480.619 473.156H480.348C475.473 472.558 470.526 473.032 465.853 474.544L465.582 474.646L459.825 465.777L445.618 473.326L449.766 483.057L449.512 483.227C444.703 486.612 440.301 494.38 440.25 494.465L440.131 494.702L429.802 492.485L425.095 507.886L434.882 511.847V512.118C434.481 516.991 434.951 521.897 436.271 526.605L436.355 526.876L427.499 532.631L435.051 546.831L444.771 542.684L444.94 542.904C448.087 546.66 451.898 549.804 456.184 552.179L456.438 552.314L454.237 562.656Z" fill="#100E1A"/>
<path d="M477.131 546.035C471.065 546.035 465.136 544.237 460.093 540.869C455.05 537.501 451.12 532.714 448.799 527.113C446.478 521.513 445.87 515.35 447.054 509.404C448.237 503.458 451.158 497.997 455.446 493.71C459.735 489.423 465.199 486.504 471.148 485.321C477.097 484.139 483.263 484.746 488.866 487.066C494.47 489.386 499.259 493.314 502.629 498.355C505.998 503.395 507.797 509.321 507.797 515.384C507.788 523.51 504.554 531.301 498.805 537.047C493.056 542.794 485.261 546.026 477.131 546.035ZM477.131 485.46C471.209 485.457 465.419 487.209 460.493 490.495C455.568 493.781 451.728 498.453 449.459 503.921C447.191 509.388 446.596 515.405 447.749 521.211C448.902 527.017 451.752 532.35 455.938 536.537C460.125 540.723 465.459 543.575 471.267 544.731C477.075 545.887 483.095 545.295 488.567 543.031C494.038 540.767 498.715 536.931 502.005 532.01C505.296 527.089 507.052 521.303 507.052 515.384C507.043 507.453 503.888 499.85 498.279 494.24C492.67 488.631 485.065 485.474 477.131 485.46Z" fill="#100E1A"/>
<defs>
<radialGradient id="paint0_radial_1353_3835" cx="0" cy="0" r="1" gradientUnits="userSpaceOnUse" gradientTransform="translate(510.506 502.976) scale(60.2149 60.1853)">
<stop stop-color="#AFA3FF"/>
<stop offset="1" stop-color="#E5E1FF" stop-opacity="0.5"/>
</radialGradient>
<radialGradient id="paint1_radial_1353_3835" cx="0" cy="0" r="1" gradientUnits="userSpaceOnUse" gradientTransform="translate(396.003 354.731) scale(221.42 221.311)">
<stop stop-color="#AFA3FF"/>
<stop offset="1" stop-color="#E5E1FF" stop-opacity="0.5"/>
</radialGradient>
<linearGradient id="paint2_linear_1353_3835" x1="590.584" y1="298.066" x2="594.241" y2="298.066" gradientUnits="userSpaceOnUse">
<stop stop-color="#140090"/>
<stop offset="1" stop-color="#1C00D2"/>
</linearGradient>
<linearGradient id="paint3_linear_1353_3835" x1="598.323" y1="298.066" x2="601.997" y2="298.066" gradientUnits="userSpaceOnUse">
<stop stop-color="#4528FF"/>
<stop offset="1" stop-color="#563BFF"/>
</linearGradient>
<linearGradient id="paint4_linear_1353_3835" x1="606.078" y1="298.066" x2="609.735" y2="298.066" gradientUnits="userSpaceOnUse">
<stop stop-color="#13008D"/>
<stop offset="1" stop-color="#1D00D5"/>
</linearGradient>
<linearGradient id="paint5_linear_1353_3835" x1="380.695" y1="392.49" x2="586.08" y2="392.49" gradientUnits="userSpaceOnUse">
<stop stop-color="#4528FF"/>
<stop offset="1" stop-color="#563BFF"/>
</linearGradient>
<linearGradient id="paint6_linear_1353_3835" x1="567.876" y1="335.64" x2="606.095" y2="335.64" gradientUnits="userSpaceOnUse">
<stop stop-color="#4528FF"/>
<stop offset="1" stop-color="#563BFF"/>
</linearGradient>
<linearGradient id="paint7_linear_1353_3835" x1="400.964" y1="436.479" x2="411.666" y2="436.479" gradientUnits="userSpaceOnUse">
<stop stop-color="#140090"/>
<stop offset="1" stop-color="#1C00D2"/>
</linearGradient>
<linearGradient id="paint8_linear_1353_3835" x1="427.99" y1="406.03" x2="438.692" y2="406.03" gradientUnits="userSpaceOnUse">
<stop stop-color="#140090"/>
<stop offset="1" stop-color="#1C00D2"/>
</linearGradient>
<linearGradient id="paint9_linear_1353_3835" x1="451.443" y1="425.749" x2="462.161" y2="425.749" gradientUnits="userSpaceOnUse">
<stop stop-color="#140090"/>
<stop offset="1" stop-color="#1C00D2"/>
</linearGradient>
<linearGradient id="paint10_linear_1353_3835" x1="477.452" y1="395.723" x2="488.171" y2="395.723" gradientUnits="userSpaceOnUse">
<stop stop-color="#140090"/>
<stop offset="1" stop-color="#1C00D2"/>
</linearGradient>
<linearGradient id="paint11_linear_1353_3835" x1="503.767" y1="385.247" x2="514.468" y2="385.247" gradientUnits="userSpaceOnUse">
<stop stop-color="#140090"/>
<stop offset="1" stop-color="#1C00D2"/>
</linearGradient>
<linearGradient id="paint12_linear_1353_3835" x1="544.711" y1="365.801" x2="555.413" y2="365.801" gradientUnits="userSpaceOnUse">
<stop stop-color="#140090"/>
<stop offset="1" stop-color="#1C00D2"/>
</linearGradient>
<linearGradient id="paint13_linear_1353_3835" x1="522.36" y1="351.397" x2="533.078" y2="351.397" gradientUnits="userSpaceOnUse">
<stop stop-color="#140090"/>
<stop offset="1" stop-color="#1C00D2"/>
</linearGradient>
<linearGradient id="paint14_linear_1353_3835" x1="391.634" y1="478.183" x2="403.42" y2="478.183" gradientUnits="userSpaceOnUse">
<stop stop-color="#4528FF"/>
<stop offset="1" stop-color="#563BFF"/>
</linearGradient>
<linearGradient id="paint15_linear_1353_3835" x1="411.666" y1="474.644" x2="423.435" y2="474.644" gradientUnits="userSpaceOnUse">
<stop stop-color="#140090"/>
<stop offset="1" stop-color="#1C00D2"/>
</linearGradient>
<linearGradient id="paint16_linear_1353_3835" x1="431.698" y1="464.658" x2="443.467" y2="464.658" gradientUnits="userSpaceOnUse">
<stop stop-color="#4528FF"/>
<stop offset="1" stop-color="#563BFF"/>
</linearGradient>
<linearGradient id="paint17_linear_1353_3835" x1="451.714" y1="471.97" x2="463.499" y2="471.97" gradientUnits="userSpaceOnUse">
<stop stop-color="#140090"/>
<stop offset="1" stop-color="#1C00D2"/>
</linearGradient>
<linearGradient id="paint18_linear_1353_3835" x1="471.746" y1="462.392" x2="483.531" y2="462.392" gradientUnits="userSpaceOnUse">
<stop stop-color="#4528FF"/>
<stop offset="1" stop-color="#563BFF"/>
</linearGradient>
<linearGradient id="paint19_linear_1353_3835" x1="491.778" y1="453.572" x2="503.546" y2="453.572" gradientUnits="userSpaceOnUse">
<stop stop-color="#140090"/>
<stop offset="1" stop-color="#1C00D2"/>
</linearGradient>
<linearGradient id="paint20_linear_1353_3835" x1="511.81" y1="449.967" x2="523.579" y2="449.967" gradientUnits="userSpaceOnUse">
<stop stop-color="#4528FF"/>
<stop offset="1" stop-color="#563BFF"/>
</linearGradient>
<linearGradient id="paint21_linear_1353_3835" x1="531.825" y1="440.049" x2="543.611" y2="440.049" gradientUnits="userSpaceOnUse">
<stop stop-color="#140090"/>
<stop offset="1" stop-color="#1C00D2"/>
</linearGradient>
<linearGradient id="paint22_linear_1353_3835" x1="551.857" y1="441.641" x2="563.626" y2="441.641" gradientUnits="userSpaceOnUse">
<stop stop-color="#4528FF"/>
<stop offset="1" stop-color="#563BFF"/>
</linearGradient>
<linearGradient id="paint23_linear_1353_3835" x1="571.89" y1="431.401" x2="583.658" y2="431.401" gradientUnits="userSpaceOnUse">
<stop stop-color="#140090"/>
<stop offset="1" stop-color="#1C00D2"/>
</linearGradient>
<linearGradient id="paint24_linear_1353_3835" x1="591.922" y1="433.956" x2="603.691" y2="433.956" gradientUnits="userSpaceOnUse">
<stop stop-color="#4528FF"/>
<stop offset="1" stop-color="#563BFF"/>
</linearGradient>
<linearGradient id="paint25_linear_1353_3835" x1="184.878" y1="417.218" x2="261.705" y2="417.218" gradientUnits="userSpaceOnUse">
<stop stop-color="#13008D"/>
<stop offset="1" stop-color="#1D00D5"/>
</linearGradient>
<linearGradient id="paint26_linear_1353_3835" x1="347.658" y1="476.793" x2="228.613" y2="379.146" gradientUnits="userSpaceOnUse">
<stop stop-color="#13008D"/>
<stop offset="1" stop-color="#1D00D5"/>
</linearGradient>
<linearGradient id="paint27_linear_1353_3835" x1="350.274" y1="462.903" x2="281.614" y2="325.109" gradientUnits="userSpaceOnUse">
<stop stop-color="#13008D"/>
<stop offset="1" stop-color="#1D00D5"/>
</linearGradient>
<linearGradient id="paint28_linear_1353_3835" x1="254.339" y1="284.746" x2="277.182" y2="284.746" gradientUnits="userSpaceOnUse">
<stop stop-color="#4123FF"/>
<stop offset="1" stop-color="#5E45FF"/>
</linearGradient>
<linearGradient id="paint29_linear_1353_3835" x1="339.378" y1="138.989" x2="406.078" y2="138.989" gradientUnits="userSpaceOnUse">
<stop stop-color="#4123FF"/>
<stop offset="1" stop-color="#5E45FF"/>
</linearGradient>
<linearGradient id="paint30_linear_1353_3835" x1="373.922" y1="183.551" x2="503.174" y2="183.551" gradientUnits="userSpaceOnUse">
<stop stop-color="#4528FF"/>
<stop offset="1" stop-color="#563BFF"/>
</linearGradient>
<linearGradient id="paint31_linear_1353_3835" x1="393.141" y1="140.257" x2="438.675" y2="140.257" gradientUnits="userSpaceOnUse">
<stop stop-color="#140090"/>
<stop offset="1" stop-color="#1C00D2"/>
</linearGradient>
<linearGradient id="paint32_linear_1353_3835" x1="523.578" y1="254.57" x2="534.568" y2="254.57" gradientUnits="userSpaceOnUse">
<stop stop-color="#13008D"/>
<stop offset="1" stop-color="#1D00D5"/>
</linearGradient>
<linearGradient id="paint33_linear_1353_3835" x1="556.793" y1="172.691" x2="557.709" y2="193.183" gradientUnits="userSpaceOnUse">
<stop stop-color="#4528FF"/>
<stop offset="1" stop-color="#563BFF"/>
</linearGradient>
<linearGradient id="paint34_linear_1353_3835" x1="183.236" y1="326.313" x2="194.225" y2="326.313" gradientUnits="userSpaceOnUse">
<stop stop-color="#4123FF"/>
<stop offset="1" stop-color="#5E45FF"/>
</linearGradient>
<linearGradient id="paint35_linear_1353_3835" x1="251.737" y1="171.673" x2="263.381" y2="188.565" gradientUnits="userSpaceOnUse">
<stop stop-color="#13008D"/>
<stop offset="1" stop-color="#1D00D5"/>
</linearGradient>
<linearGradient id="paint36_linear_1353_3835" x1="506.239" y1="538.604" x2="567.047" y2="538.604" gradientUnits="userSpaceOnUse">
<stop stop-color="#140090"/>
<stop offset="1" stop-color="#1C00D2"/>
</linearGradient>
<linearGradient id="paint37_linear_1353_3835" x1="420.319" y1="516.585" x2="525.171" y2="516.585" gradientUnits="userSpaceOnUse">
<stop stop-color="#4528FF"/>
<stop offset="1" stop-color="#563BFF"/>
</linearGradient>
</defs>
</svg>
