<svg width="80" height="80" viewBox="0 0 80 80" fill="none" xmlns="http://www.w3.org/2000/svg">
<g clip-path="url(#clip0_1353_2943)">
<path d="M31.1626 33.3125C31.3381 33.313 31.5117 33.2765 31.6721 33.2054C31.8326 33.1343 31.9763 33.0303 32.0938 32.9C33.0905 31.7904 34.3095 30.9031 35.6717 30.2958C37.0339 29.6885 38.5086 29.3747 40.0001 29.375C40.3316 29.375 40.6495 29.2433 40.884 29.0089C41.1184 28.7745 41.2501 28.4565 41.2501 28.125C41.2501 27.7935 41.1184 27.4755 40.884 27.2411C40.6495 27.0067 40.3316 26.875 40.0001 26.875C38.1569 26.8779 36.3349 27.2689 34.6529 28.0227C32.9708 28.7765 31.4664 29.8761 30.2376 31.25C30.0754 31.4297 29.9689 31.6526 29.931 31.8917C29.893 32.1308 29.9254 32.3757 30.024 32.5968C30.1226 32.8178 30.2833 33.0055 30.4865 33.137C30.6897 33.2685 30.9268 33.3381 31.1688 33.3375L31.1626 33.3125Z" fill="#A193FF"/>
<path d="M68.75 0C66.6339 0.00296236 64.5615 0.602698 62.7708 1.73033C60.9802 2.85797 59.5439 4.46778 58.6269 6.37488C57.7099 8.28199 57.3494 10.4091 57.5867 12.5118C57.8241 14.6146 58.6497 16.6078 59.9687 18.2625L51.875 26.3375C48.5818 23.4579 44.3558 21.8709 39.9812 21.8709C35.6067 21.8709 31.3806 23.4579 28.0875 26.3375L22.5125 20.7625C24.3195 18.5241 25.2004 15.6784 24.9739 12.8105C24.7475 9.94267 23.4311 7.27049 21.2952 5.34333C19.1593 3.41617 16.3663 2.38047 13.4903 2.44914C10.6143 2.51781 7.87394 3.68562 5.83246 5.71252C3.79097 7.73942 2.60354 10.4714 2.51426 13.3468C2.42498 16.2222 3.44063 19.0226 5.35243 21.1722C7.26423 23.3219 9.9269 24.6574 12.7931 24.9044C15.6593 25.1514 18.5111 24.2909 20.7625 22.5L22.7875 24.525C18.9803 28.7681 16.8746 34.268 16.8746 39.9688C16.8746 45.6695 18.9803 51.1694 22.7875 55.4125L18.2625 60C16.0159 58.2055 13.1676 57.3393 10.3023 57.5793C7.43711 57.8192 4.7725 59.1471 2.85573 61.2903C0.938953 63.4334 -0.0844898 66.2291 -0.00442183 69.1033C0.0756461 71.9774 1.25315 74.7119 3.28626 76.745C5.31938 78.7781 8.05379 79.9556 10.9279 80.0356C13.8021 80.1157 16.5978 79.0923 18.741 77.1755C20.8841 75.2587 22.212 72.5941 22.452 69.7289C22.6919 66.8637 21.8257 64.0153 20.0312 61.7688L28.125 53.6625C31.4181 56.5421 35.6442 58.1291 40.0187 58.1291C44.3933 58.1291 48.6193 56.5421 51.9125 53.6625L56.8625 58.6125C55.0555 60.8509 54.1746 63.6966 54.401 66.5645C54.6274 69.4323 55.9439 72.1045 58.0798 74.0317C60.2157 75.9588 63.0087 76.9945 65.8846 76.9259C68.7606 76.8572 71.501 75.6894 73.5425 73.6625C75.584 71.6356 76.7714 68.9036 76.8607 66.0282C76.95 63.1528 75.9343 60.3524 74.0225 58.2028C72.1107 56.0531 69.4481 54.7176 66.5819 54.4706C63.7157 54.2236 60.8638 55.0841 58.6125 56.875L57.2125 55.475C61.0197 51.2319 63.1254 45.732 63.1254 40.0312C63.1254 34.3305 61.0197 28.8306 57.2125 24.5875L61.7375 20C62.1945 20.3663 62.6793 20.6964 63.1875 20.9875L63.3375 21.075C64.9923 21.9837 66.8496 22.4601 68.7375 22.4601C70.6254 22.4601 72.4827 21.9837 74.1375 21.075C74.2171 21.0372 74.2925 20.9911 74.3625 20.9375C76.4793 19.6879 78.1286 17.7795 79.0582 15.5039C79.9878 13.2283 80.1465 10.7109 79.51 8.33666C78.8736 5.96238 77.477 3.86189 75.5339 2.35638C73.5907 0.850883 71.208 0.0232347 68.75 0ZM17.3812 21.5687C17.3787 21.6145 17.3787 21.6605 17.3812 21.7062C16.2489 22.2257 15.0177 22.4946 13.7719 22.4946C12.526 22.4946 11.2949 22.2257 10.1625 21.7062C10.165 21.6605 10.165 21.6145 10.1625 21.5687C10.0699 21.262 10.0153 20.9451 9.99998 20.625C9.99998 19.6304 10.3951 18.6766 11.0983 17.9733C11.8016 17.2701 12.7554 16.875 13.75 16.875C14.7445 16.875 15.6984 17.2701 16.4016 17.9733C17.1049 18.6766 17.5 19.6304 17.5 20.625C17.4989 20.9432 17.459 21.2602 17.3812 21.5687ZM11.875 12.5C11.875 12.1292 11.9849 11.7666 12.191 11.4583C12.397 11.15 12.6898 10.9096 13.0324 10.7677C13.3751 10.6258 13.7521 10.5887 14.1158 10.661C14.4795 10.7334 14.8136 10.912 15.0758 11.1742C15.338 11.4364 15.5166 11.7705 15.589 12.1342C15.6613 12.4979 15.6242 12.8749 15.4823 13.2175C15.3403 13.5601 15.1 13.853 14.7917 14.059C14.4833 14.265 14.1208 14.375 13.75 14.375C13.2527 14.375 12.7758 14.1775 12.4242 13.8258C12.0725 13.4742 11.875 12.9973 11.875 12.5ZM19.9562 19.9125C19.8475 18.9834 19.5316 18.0906 19.0319 17.2999C18.5321 16.5091 17.8612 15.8407 17.0687 15.3438C17.6132 14.7085 17.9641 13.9304 18.0798 13.1017C18.1955 12.2731 18.0712 11.4286 17.7216 10.6685C17.3719 9.90834 16.8117 9.2644 16.1072 8.813C15.4027 8.36161 14.5835 8.12169 13.7469 8.12169C12.9102 8.12169 12.091 8.36161 11.3865 8.813C10.6821 9.2644 10.1218 9.90834 9.77215 10.6685C9.42252 11.4286 9.29818 12.2731 9.41389 13.1017C9.5296 13.9304 9.8805 14.7085 10.425 15.3438C9.63246 15.8407 8.96159 16.5091 8.46184 17.2999C7.96209 18.0906 7.64621 18.9834 7.53748 19.9125C6.31917 18.6867 5.49118 17.1275 5.15793 15.4316C4.82468 13.7358 5.00111 11.9792 5.66496 10.3835C6.32881 8.78778 7.45035 7.42441 8.8881 6.46533C10.3259 5.50626 12.0154 4.99444 13.7437 4.99444C15.472 4.99444 17.1616 5.50626 18.5994 6.46533C20.0371 7.42441 21.1586 8.78778 21.8225 10.3835C22.4863 11.9792 22.6628 13.7358 22.3295 15.4316C21.9963 17.1275 21.1683 18.6867 19.95 19.9125H19.9562ZM14.8812 76.575C14.8787 76.6208 14.8787 76.6667 14.8812 76.7125C13.7489 77.232 12.5177 77.5009 11.2719 77.5009C10.026 77.5009 8.79485 77.232 7.66248 76.7125C7.665 76.6667 7.665 76.6208 7.66248 76.575C7.56937 76.2662 7.51479 75.9472 7.49998 75.625C7.49998 74.6304 7.89507 73.6766 8.59833 72.9734C9.30159 72.2701 10.2554 71.875 11.25 71.875C12.2445 71.875 13.1984 72.2701 13.9016 72.9734C14.6049 73.6766 15 74.6304 15 75.625C14.9989 75.9432 14.959 76.2602 14.8812 76.5687V76.575ZM9.37498 67.5C9.37498 67.1292 9.48495 66.7666 9.69097 66.4583C9.897 66.15 10.1898 65.9096 10.5324 65.7677C10.8751 65.6258 11.2521 65.5887 11.6158 65.661C11.9795 65.7334 12.3136 65.9119 12.5758 66.1742C12.838 66.4364 13.0166 66.7705 13.089 67.1342C13.1613 67.4979 13.1242 67.8749 12.9823 68.2175C12.8403 68.5601 12.6 68.853 12.2917 69.059C11.9833 69.265 11.6208 69.375 11.25 69.375C10.7527 69.375 10.2758 69.1775 9.92415 68.8258C9.57252 68.4742 9.37498 67.9973 9.37498 67.5ZM17.4562 74.9125C17.3475 73.9834 17.0316 73.0906 16.5319 72.2999C16.0321 71.5091 15.3612 70.8407 14.5687 70.3438C15.1132 69.7085 15.4641 68.9304 15.5798 68.1017C15.6955 67.2731 15.5712 66.4286 15.2216 65.6685C14.8719 64.9083 14.3117 64.2644 13.6072 63.813C12.9027 63.3616 12.0835 63.1217 11.2469 63.1217C10.4102 63.1217 9.59102 63.3616 8.88654 63.813C8.18206 64.2644 7.62179 64.9083 7.27215 65.6685C6.92252 66.4286 6.79818 67.2731 6.91389 68.1017C7.0296 68.9304 7.3805 69.7085 7.92498 70.3438C7.13246 70.8407 6.46159 71.5091 5.96184 72.2999C5.46209 73.0906 5.14621 73.9834 5.03748 74.9125C3.81917 73.6867 2.99118 72.1275 2.65793 70.4316C2.32468 68.7358 2.50111 66.9792 3.16496 65.3835C3.82881 63.7878 4.95035 62.4244 6.3881 61.4653C7.82586 60.5063 9.51544 59.9944 11.2437 59.9944C12.972 59.9944 14.6616 60.5063 16.0994 61.4653C17.5371 62.4244 18.6586 63.7878 19.3225 65.3835C19.9863 66.9792 20.1628 68.7358 19.8295 70.4316C19.4963 72.1275 18.6683 73.6867 17.45 74.9125H17.4562ZM24.5625 53.6625C21.2234 49.891 19.38 45.0279 19.38 39.9906C19.38 34.9534 21.2234 30.0903 24.5625 26.3188L26.3375 28.125C23.4579 31.4182 21.8709 35.6442 21.8709 40.0187C21.8709 44.3933 23.4579 48.6193 26.3375 51.9125L24.5625 53.6625ZM40 55.625C36.9096 55.625 33.8887 54.7086 31.3192 52.9917C28.7497 51.2748 26.747 48.8345 25.5644 45.9794C24.3817 43.1243 24.0723 39.9827 24.6752 36.9517C25.2781 33.9208 26.7662 31.1367 28.9514 28.9515C31.1366 26.7663 33.9207 25.2781 36.9517 24.6752C39.9826 24.0723 43.1243 24.3818 45.9794 25.5644C48.8345 26.747 51.2748 28.7497 52.9917 31.3192C54.7086 33.8887 55.625 36.9097 55.625 40C55.625 44.144 53.9788 48.1183 51.0485 51.0485C48.1183 53.9788 44.144 55.625 40 55.625ZM69.2562 73.4437C69.2537 73.4895 69.2537 73.5355 69.2562 73.5813C68.1239 74.1007 66.8927 74.3697 65.6469 74.3697C64.401 74.3697 63.1699 74.1007 62.0375 73.5813C62.04 73.5355 62.04 73.4895 62.0375 73.4437C61.9449 73.137 61.8903 72.8201 61.875 72.5C61.875 71.5054 62.2701 70.5516 62.9733 69.8484C63.6766 69.1451 64.6304 68.75 65.625 68.75C66.6195 68.75 67.5734 69.1451 68.2766 69.8484C68.9799 70.5516 69.375 71.5054 69.375 72.5C69.3739 72.8182 69.334 73.1352 69.2562 73.4437ZM63.75 64.375C63.75 64.0042 63.8599 63.6416 64.066 63.3333C64.272 63.025 64.5648 62.7846 64.9074 62.6427C65.2501 62.5008 65.6271 62.4637 65.9908 62.536C66.3545 62.6084 66.6886 62.7869 66.9508 63.0492C67.213 63.3114 67.3916 63.6455 67.464 64.0092C67.5363 64.3729 67.4992 64.7499 67.3573 65.0925C67.2153 65.4351 66.975 65.728 66.6667 65.934C66.3583 66.14 65.9958 66.25 65.625 66.25C65.1277 66.25 64.6508 66.0525 64.2992 65.7008C63.9475 65.3492 63.75 64.8723 63.75 64.375ZM65.625 56.875C67.3521 56.8761 69.0403 57.3883 70.4769 58.3471C71.9135 59.3059 73.0342 60.6684 73.6978 62.263C74.3614 63.8575 74.5383 65.6128 74.2061 67.3078C73.874 69.0027 73.0476 70.5614 71.8312 71.7875C71.7225 70.8584 71.4066 69.9656 70.9069 69.1749C70.4071 68.3841 69.7362 67.7157 68.9437 67.2188C69.4882 66.5835 69.8391 65.8054 69.9548 64.9767C70.0705 64.1481 69.9462 63.3036 69.5966 62.5435C69.2469 61.7833 68.6867 61.1394 67.9822 60.688C67.2777 60.2366 66.4585 59.9967 65.6219 59.9967C64.7852 59.9967 63.966 60.2366 63.2615 60.688C62.5571 61.1394 61.9968 61.7833 61.6472 62.5435C61.2975 63.3036 61.1732 64.1481 61.2889 64.9767C61.4046 65.8054 61.7555 66.5835 62.3 67.2188C61.5075 67.7157 60.8366 68.3841 60.3368 69.1749C59.8371 69.9656 59.5212 70.8584 59.4125 71.7875C58.1957 70.561 57.3692 69.0017 57.0373 67.3062C56.7053 65.6107 56.8827 63.8549 57.5471 62.2601C58.2115 60.6653 59.3332 59.3028 60.7707 58.3445C62.2082 57.3862 63.8973 56.8749 65.625 56.875ZM55.4375 53.6688L53.6625 51.875C56.542 48.5818 58.1291 44.3558 58.1291 39.9813C58.1291 35.6067 56.542 31.3807 53.6625 28.0875L55.4437 26.3062C58.7871 30.0797 60.6326 34.9471 60.6314 39.9887C60.6303 45.0302 58.7826 49.8968 55.4375 53.6688ZM72.5 19.1562C71.3369 19.7122 70.0641 20.0008 68.775 20.0008C67.4859 20.0008 66.2131 19.7122 65.05 19.1562C64.989 18.6308 65.0399 18.0985 65.1992 17.5941C65.3586 17.0898 65.6229 16.6248 65.9747 16.2298C66.3265 15.8348 66.7578 15.5187 67.2405 15.3023C67.7231 15.0859 68.246 14.974 68.775 14.974C69.3039 14.974 69.8269 15.0859 70.3095 15.3023C70.7921 15.5187 71.2235 15.8348 71.5753 16.2298C71.9271 16.6248 72.1914 17.0898 72.3507 17.5941C72.5101 18.0985 72.561 18.6308 72.5 19.1562ZM66.875 10.625C66.875 10.2542 66.9849 9.89165 67.191 9.58331C67.397 9.27496 67.6898 9.03464 68.0324 8.89273C68.3751 8.75081 68.7521 8.71368 69.1158 8.78603C69.4795 8.85837 69.8136 9.03695 70.0758 9.29917C70.338 9.5614 70.5166 9.89549 70.589 10.2592C70.6613 10.6229 70.6242 10.9999 70.4823 11.3425C70.3403 11.6851 70.1 11.978 69.7917 12.184C69.4833 12.39 69.1208 12.5 68.75 12.5C68.2527 12.5 67.7758 12.3025 67.4242 11.9508C67.0725 11.5992 66.875 11.1223 66.875 10.625ZM74.875 17.5C74.7037 16.675 74.3673 15.8932 73.8862 15.2015C73.405 14.5098 72.7889 13.9225 72.075 13.475C72.6195 12.8397 72.9704 12.0616 73.0861 11.233C73.2018 10.4043 73.0774 9.55986 72.7278 8.79972C72.3782 8.03959 71.8179 7.39565 71.1134 6.94425C70.4089 6.49286 69.5898 6.25294 68.7531 6.25294C67.9164 6.25294 67.0973 6.49286 66.3928 6.94425C65.6883 7.39565 65.128 8.03959 64.7784 8.79972C64.4288 9.55986 64.3044 10.4043 64.4201 11.233C64.5359 12.0616 64.8867 12.8397 65.4312 13.475C64.7161 13.9219 64.0989 14.5089 63.6166 15.2006C63.1343 15.8923 62.797 16.6745 62.625 17.5C61.3829 16.2837 60.5313 14.725 60.1787 13.0228C59.8261 11.3205 59.9886 9.55175 60.6454 7.9422C61.3023 6.33264 62.4236 4.95522 63.8665 3.98562C65.3094 3.01601 67.0084 2.49819 68.7469 2.49819C70.4853 2.49819 72.1843 3.01601 73.6272 3.98562C75.0701 4.95522 76.1915 6.33264 76.8483 7.9422C77.5051 9.55175 77.6676 11.3205 77.315 13.0228C76.9624 14.725 76.1108 16.2837 74.8687 17.5H74.875Z" fill="#A193FF"/>
<path d="M32.125 38.125C32.4565 38.125 32.7745 37.9933 33.0089 37.7589C33.2433 37.5245 33.375 37.2065 33.375 36.875C33.375 36.5435 33.2433 36.2255 33.0089 35.9911C32.7745 35.7567 32.4565 35.625 32.125 35.625H28.125C27.7935 35.625 27.4755 35.7567 27.2411 35.9911C27.0067 36.2255 26.875 36.5435 26.875 36.875V43.35C26.875 43.6815 27.0067 43.9995 27.2411 44.2339C27.4755 44.4683 27.7935 44.6 28.125 44.6H32C32.3315 44.6 32.6495 44.4683 32.8839 44.2339C33.1183 43.9995 33.25 43.6815 33.25 43.35C33.25 43.0185 33.1183 42.7005 32.8839 42.4661C32.6495 42.2317 32.3315 42.1 32 42.1H29.375V38.125H32.125ZM52.3313 36.25C52.0972 36.1577 51.8408 36.1381 51.5955 36.1939C51.3502 36.2496 51.1274 36.3781 50.9562 36.5625L49 38.6438L47.0375 36.5375C46.8664 36.3547 46.6443 36.2276 46.4001 36.1725C46.1559 36.1173 45.9007 36.1369 45.6677 36.2284C45.4347 36.32 45.2346 36.4795 45.0932 36.6861C44.9519 36.8928 44.8759 37.1371 44.875 37.3875V43.5C44.875 43.8315 45.0067 44.1495 45.2411 44.3839C45.4755 44.6183 45.7935 44.75 46.125 44.75C46.4565 44.75 46.7745 44.6183 47.0089 44.3839C47.2433 44.1495 47.375 43.8315 47.375 43.5V40.5625L48 41.2625C48.1174 41.417 48.2692 41.5421 48.4433 41.6278C48.6174 41.7135 48.8091 41.7575 49.0031 41.7563C49.1972 41.7551 49.3883 41.7087 49.5613 41.6208C49.7343 41.5329 49.8845 41.406 50 41.25L50.625 40.5937V43.5313C50.625 43.8628 50.7567 44.1807 50.9911 44.4151C51.2255 44.6496 51.5435 44.7813 51.875 44.7813C52.2065 44.7813 52.5245 44.6496 52.7589 44.4151C52.9933 44.1807 53.125 43.8628 53.125 43.5313V37.3813C53.1186 37.1355 53.0398 36.8972 52.8987 36.696C52.7575 36.4948 52.5601 36.3396 52.3313 36.25ZM42.0937 40.525C42.2702 40.3051 42.3671 40.032 42.3688 39.75V36.875C42.3688 36.5435 42.2371 36.2255 42.0026 35.9911C41.7682 35.7567 41.4503 35.625 41.1188 35.625H36.8188C36.4872 35.625 36.1693 35.7567 35.9349 35.9911C35.7004 36.2255 35.5688 36.5435 35.5688 36.875V43.35C35.5688 43.6815 35.7004 43.9995 35.9349 44.2339C36.1693 44.4683 36.4872 44.6 36.8188 44.6C37.1503 44.6 37.4682 44.4683 37.7026 44.2339C37.9371 43.9995 38.0688 43.6815 38.0688 43.35V41.6937H39.8563L40.6812 44.15C40.7955 44.4524 41.0225 44.6989 41.3146 44.8375C41.6067 44.9761 41.9412 44.9961 42.2477 44.8934C42.5543 44.7907 42.8091 44.5732 42.9587 44.2866C43.1083 43.9999 43.141 43.6665 43.05 43.3563L42.0937 40.525ZM39.8688 39.1937H38.0688V38.125H39.875L39.8688 39.1937Z" fill="#A193FF"/>
</g>
<defs>
<clipPath id="clip0_1353_2943">
<rect width="80" height="80" fill="white"/>
</clipPath>
</defs>
</svg>
