<svg width="480" height="396" viewBox="0 0 480 396" fill="none" xmlns="http://www.w3.org/2000/svg">
<g clip-path="url(#clip0_2919_21172)">
<path d="M324.82 12.8331L322.281 11.3574L313.266 16.1584L315.805 17.634L324.82 12.8331Z" fill="#E8D1FF"/>
<path d="M307.637 29.2173L305.102 27.7383L302.688 39.1494L305.223 40.6251L307.637 29.2173Z" fill="#C38AFF"/>
<path d="M312.651 9.70364L310.112 8.22461L307.015 19.7739L309.554 21.2495L312.651 9.70364Z" fill="#C38AFF"/>
<path d="M312.651 9.70312L309.554 21.249L300.539 26.8788L307.637 29.2169L305.223 40.6247L312.708 30.5208L320.226 31.9459L317.755 23.3648L324.82 12.833L315.805 17.634L312.651 9.70312Z" fill="#D6B0FF"/>
<path d="M309.554 21.2491L307.015 19.7734L298.003 25.4032L300.539 26.8789L309.554 21.2491Z" fill="#E8D1FF"/>
<path d="M296.941 28.9581L294.406 27.4824L285.391 32.2834L287.926 33.759L296.941 28.9581Z" fill="#E8D1FF"/>
<path d="M279.762 45.3423L277.223 43.8633L274.809 55.2744L277.347 56.7501L279.762 45.3423Z" fill="#C38AFF"/>
<path d="M284.772 25.8286L282.237 24.3496L279.14 35.8989L281.675 37.3745L284.772 25.8286Z" fill="#C38AFF"/>
<path d="M284.772 25.8281L281.675 37.374L272.664 43.0038L279.762 45.3419L277.348 56.7497L284.832 46.6458L292.351 48.0709L289.876 39.4864L296.941 28.958L287.926 33.759L284.772 25.8281Z" fill="#D6B0FF"/>
<path d="M281.675 37.3741L279.14 35.8984L270.125 41.5282L272.664 43.0039L281.675 37.3741Z" fill="#E8D1FF"/>
<path d="M269.062 45.0728L266.527 43.5938L257.512 48.3947L260.047 49.8704L269.062 45.0728Z" fill="#E8D1FF"/>
<path d="M251.883 61.4522L249.348 59.9766L246.933 71.3843L249.469 72.86L251.883 61.4522Z" fill="#C38AFF"/>
<path d="M256.893 41.9386L254.358 40.4629L251.261 52.0088L253.796 53.4878L256.893 41.9386Z" fill="#C38AFF"/>
<path d="M256.893 41.9395L253.796 53.4887L244.785 59.1151L251.883 61.4532L249.469 72.861L256.954 62.7605L264.472 64.1822L262.001 55.6011L269.062 45.0727L260.047 49.8703L256.893 41.9395Z" fill="#D6B0FF"/>
<path d="M253.796 53.4868L251.261 52.0078L242.25 57.6376L244.785 59.1132L253.796 53.4868Z" fill="#E8D1FF"/>
<path d="M241.187 61.1768L238.652 59.7012L229.637 64.5021L232.172 65.9778L241.187 61.1768Z" fill="#E8D1FF"/>
<path d="M224.008 77.5577L221.469 76.082L219.055 87.4932L221.59 88.9688L224.008 77.5577Z" fill="#C38AFF"/>
<path d="M229.018 58.0474L226.483 56.5684L223.386 68.1176L225.921 69.5933L229.018 58.0474Z" fill="#C38AFF"/>
<path d="M229.018 58.0469L225.921 69.5928L216.91 75.2225L224.008 77.5573L221.59 88.9684L229.075 78.8645L236.597 80.2896L234.122 71.7052L241.187 61.1768L232.172 65.9777L229.018 58.0469Z" fill="#D6B0FF"/>
<path d="M225.921 69.5929L223.386 68.1172L214.371 73.7469L216.91 75.2226L225.921 69.5929Z" fill="#E8D1FF"/>
<path d="M213.308 77.3013L210.773 75.8223L201.758 80.6232L204.293 82.0989L213.308 77.3013Z" fill="#E8D1FF"/>
<path d="M196.129 93.6807L193.594 92.2051L191.18 103.613L193.715 105.089L196.129 93.6807Z" fill="#C38AFF"/>
<path d="M201.139 74.1671L198.604 72.6914L195.507 84.2373L198.042 85.7163L201.139 74.1671Z" fill="#C38AFF"/>
<path d="M201.139 74.168L198.042 85.7172L189.031 91.3436L196.129 93.6818L193.715 105.09L201.2 94.989L208.718 96.4107L206.247 87.8296L213.308 77.3012L204.293 82.0988L201.139 74.168Z" fill="#D6B0FF"/>
<path d="M198.042 85.7154L195.507 84.2363L186.496 89.8661L189.031 91.3417L198.042 85.7154Z" fill="#E8D1FF"/>
<path d="M71.9109 96.0369V97.6036L125.476 66.5237V64.957L71.9109 96.0369Z" fill="#E6B7FB"/>
<path d="M103.737 80.6328L71.9109 99.0988V100.665L103.737 82.1994V80.6328Z" fill="#E6B7FB"/>
<path d="M93.1553 82.2135L125.476 63.4612V61.8945L93.1553 80.6469V82.2135Z" fill="#E6B7FB"/>
<path d="M91.6119 81.543L71.9109 92.9709V94.5409L91.6119 83.1096V81.543Z" fill="#E6B7FB"/>
<path d="M125.476 58.832L110.654 67.43V69L125.476 60.3987V58.832Z" fill="#E6B7FB"/>
<path d="M109.11 68.3262L71.9109 89.9086V91.4752L109.11 69.8928V68.3262Z" fill="#E6B7FB"/>
<path d="M68.3836 90.0729L59.5435 95.1838C58.7432 95.6454 58.2523 96.5012 58.2523 97.4243V107.306C58.2523 108.347 59.3788 108.997 60.2766 108.478L68.2625 103.859C69.0292 103.415 69.5033 102.592 69.5033 101.706V90.7232C69.5033 90.1437 68.8779 89.7832 68.3802 90.0729H68.3836ZM66.1105 101.211C65.7776 101.784 65.2901 102.303 64.6512 102.761V103.809L63.6794 104.371V103.357C62.9901 103.718 62.3243 103.923 61.6888 103.974L61.6821 102.175C62.0452 102.175 62.442 102.128 62.8691 102.023C63.2961 101.919 63.6727 101.774 63.9955 101.585C64.2611 101.43 64.4595 101.282 64.5806 101.134C64.705 100.989 64.7655 100.827 64.7655 100.655C64.7655 100.537 64.7218 100.46 64.631 100.43C64.5402 100.399 64.3923 100.389 64.1838 100.406C63.9753 100.423 63.6929 100.46 63.3365 100.517C62.9363 100.578 62.6135 100.574 62.368 100.504C62.1226 100.433 61.9444 100.301 61.83 100.103C61.7191 99.9039 61.6619 99.6108 61.6586 99.22C61.6586 98.6237 61.82 98.061 62.1528 97.5321C62.4857 97.0031 62.9834 96.5079 63.6492 96.043V95.3018L64.6209 94.7391V95.4702C65.2497 95.1501 65.8785 94.9615 66.514 94.9076L65.9592 96.7774C65.3035 96.8179 64.7084 96.9897 64.1804 97.2963C63.9283 97.4411 63.7534 97.5793 63.6492 97.7073C63.5483 97.8353 63.4979 97.9701 63.4979 98.1082C63.4979 98.2295 63.5348 98.307 63.6088 98.3407C63.6828 98.3744 63.8106 98.3879 63.9921 98.3777C64.1737 98.3676 64.4293 98.3339 64.7521 98.2733C65.4111 98.1621 65.8819 98.1924 66.1677 98.371C66.4535 98.5462 66.5981 98.9067 66.6015 99.4424C66.6015 100.049 66.4367 100.642 66.1038 101.215L66.1105 101.211Z" fill="#E6B7FB"/>
<path d="M71.9109 112.67V114.236L125.476 83.1565V81.5898L71.9109 112.67Z" fill="#E6B7FB"/>
<path d="M103.737 97.2656L71.9109 115.732V117.298L103.737 98.8323V97.2656Z" fill="#E6B7FB"/>
<path d="M93.1553 98.8464L125.476 80.094V78.5273L93.1553 97.2797V98.8464Z" fill="#E6B7FB"/>
<path d="M91.6119 98.1758L71.9109 109.607V111.174L91.6119 99.7424V98.1758Z" fill="#E6B7FB"/>
<path d="M125.476 75.4648L110.654 84.0661V85.6328L125.476 77.0315V75.4648Z" fill="#E6B7FB"/>
<path d="M109.11 84.9629L71.9109 106.545V108.112L109.11 86.5295V84.9629Z" fill="#E6B7FB"/>
<path d="M68.3836 106.706L59.5435 111.817C58.7432 112.278 58.2523 113.134 58.2523 114.057V123.939C58.2523 124.98 59.3788 125.63 60.2766 125.111L68.2625 120.492C69.0292 120.047 69.5033 119.225 69.5033 118.339V107.356C69.5033 106.776 68.8779 106.416 68.3802 106.706H68.3836ZM66.1105 117.844C65.7776 118.417 65.2901 118.936 64.6512 119.394V120.442L63.6794 121.004V119.99C62.9901 120.351 62.3243 120.556 61.6888 120.607L61.6821 118.808C62.0452 118.808 62.442 118.76 62.8691 118.656C63.2961 118.551 63.6727 118.407 63.9955 118.218C64.2611 118.063 64.4595 117.915 64.5806 117.766C64.705 117.622 64.7655 117.46 64.7655 117.288C64.7655 117.17 64.7218 117.093 64.631 117.062C64.5402 117.032 64.3923 117.022 64.1838 117.039C63.9753 117.056 63.6929 117.093 63.3365 117.15C62.9363 117.211 62.6135 117.207 62.368 117.136C62.1226 117.066 61.9444 116.934 61.83 116.736C61.7191 116.537 61.6619 116.244 61.6586 115.853C61.6586 115.257 61.82 114.694 62.1528 114.165C62.4857 113.636 62.9834 113.141 63.6492 112.676V111.935L64.6209 111.372V112.103C65.2497 111.783 65.8785 111.594 66.514 111.54L65.9592 113.41C65.3035 113.451 64.7084 113.622 64.1804 113.929C63.9283 114.074 63.7534 114.212 63.6492 114.34C63.5483 114.468 63.4979 114.603 63.4979 114.741C63.4979 114.862 63.5348 114.94 63.6088 114.974C63.6828 115.007 63.8106 115.021 63.9921 115.011C64.1737 115 64.4293 114.967 64.7521 114.906C65.4111 114.795 65.8819 114.825 66.1677 115.004C66.4535 115.179 66.5981 115.54 66.6015 116.075C66.6015 116.682 66.4367 117.275 66.1038 117.847L66.1105 117.844Z" fill="#E6B7FB"/>
<path d="M71.9109 129.303V130.869L125.476 99.7893V98.2227L71.9109 129.303Z" fill="#E6B7FB"/>
<path d="M103.737 113.898L71.9109 132.364V133.931L103.737 115.465V113.898Z" fill="#E6B7FB"/>
<path d="M93.1553 115.483L125.476 96.7268V95.1602L93.1553 113.916V115.483Z" fill="#E6B7FB"/>
<path d="M91.6119 114.812L71.9109 126.24V127.807L91.6119 116.379V114.812Z" fill="#E6B7FB"/>
<path d="M125.476 92.0977L110.654 100.699V102.266L125.476 93.6643V92.0977Z" fill="#E6B7FB"/>
<path d="M109.11 101.596L71.9109 123.178V124.745L109.11 103.162V101.596Z" fill="#E6B7FB"/>
<path d="M68.3836 123.342L59.5435 128.453C58.7432 128.915 58.2523 129.771 58.2523 130.694V140.575C58.2523 141.616 59.3788 142.267 60.2766 141.748L68.2625 137.129C69.0292 136.684 69.5033 135.862 69.5033 134.976V123.993C69.5033 123.413 68.8779 123.053 68.3802 123.342H68.3836ZM66.1105 134.481C65.7776 135.053 65.2901 135.572 64.6512 136.03V137.078L63.6794 137.641V136.627C62.9901 136.987 62.3243 137.193 61.6888 137.243L61.6821 135.444C62.0452 135.444 62.442 135.397 62.8691 135.293C63.2961 135.188 63.6727 135.043 63.9955 134.855C64.2611 134.7 64.4595 134.551 64.5806 134.403C64.705 134.258 64.7655 134.097 64.7655 133.925C64.7655 133.807 64.7218 133.729 64.631 133.699C64.5402 133.669 64.3923 133.659 64.1838 133.675C63.9753 133.692 63.6929 133.729 63.3365 133.787C62.9363 133.847 62.6135 133.844 62.368 133.773C62.1226 133.702 61.9444 133.571 61.83 133.372C61.7191 133.173 61.6619 132.88 61.6586 132.49C61.6586 131.893 61.82 131.331 62.1528 130.802C62.4857 130.273 62.9834 129.777 63.6492 129.312V128.571L64.6209 128.009V128.74C65.2497 128.42 65.8785 128.231 66.514 128.177L65.9592 130.047C65.3035 130.087 64.7084 130.259 64.1804 130.566C63.9283 130.711 63.7534 130.849 63.6492 130.977C63.5483 131.105 63.4979 131.24 63.4979 131.378C63.4979 131.499 63.5348 131.577 63.6088 131.61C63.6828 131.644 63.8106 131.657 63.9921 131.647C64.1737 131.637 64.4293 131.603 64.7521 131.543C65.4111 131.432 65.8819 131.462 66.1677 131.641C66.4535 131.816 66.5981 132.176 66.6015 132.712C66.6015 133.318 66.4367 133.911 66.1038 134.484L66.1105 134.481Z" fill="#E6B7FB"/>
<path d="M167.359 74.071L155.406 80.9945V79.5256L167.359 72.6055V74.071Z" fill="#E6B7FB"/>
<path d="M175.786 69.2092L170.661 72.1773V70.7084L175.786 67.7402V69.2092Z" fill="#E6B7FB"/>
<path d="M175.786 71.5646L170.661 74.5328V73.0639L175.786 70.0957V71.5646Z" fill="#E6B7FB"/>
<path d="M175.786 78.633L170.661 81.6012V80.1322L175.786 77.1641V78.633Z" fill="#E6B7FB"/>
<path d="M171.442 74.9665L175.786 72.4531V73.9187L171.442 76.4354V74.9665Z" fill="#E6B7FB"/>
<path d="M160.318 82.8596L155.406 85.7064V84.2375L160.318 81.3906V82.8596Z" fill="#E6B7FB"/>
<path d="M161.129 80.9228L167.359 77.3145V78.7834L161.129 82.3917V80.9228Z" fill="#E6B7FB"/>
<path d="M161.129 78.5639L167.359 74.959V76.4279L161.129 80.0328V78.5639Z" fill="#E6B7FB"/>
<path d="M160.318 80.506L155.406 83.3496V81.8806L160.318 79.0371V80.506Z" fill="#E6B7FB"/>
<path d="M164.182 73.5549L155.406 78.6388V77.1699L164.182 72.0859V73.5549Z" fill="#E6B7FB"/>
<path d="M164.996 71.6173L167.359 70.2461V71.715L164.996 73.0829V71.6173Z" fill="#E6B7FB"/>
<path d="M167.359 83.4943L164.996 84.8622V83.3932L167.359 82.0254V83.4943Z" fill="#E6B7FB"/>
<path d="M160.318 87.5744L155.406 90.4179V88.949L160.318 86.1055V87.5744Z" fill="#E6B7FB"/>
<path d="M164.182 82.9787L155.406 88.0627V86.5937L164.182 81.5098V82.9787Z" fill="#E6B7FB"/>
<path d="M172.78 76.5504L175.786 74.8086V76.2775L172.78 78.0193V76.5504Z" fill="#E6B7FB"/>
<path d="M173.224 66.8672L175.786 65.3848V66.8537L173.224 68.3361V66.8672Z" fill="#E6B7FB"/>
<path d="M131.777 93.1794L143.728 86.2559V87.7248L131.777 94.6449V93.1794Z" fill="#E6B7FB"/>
<path d="M152.157 82.8596L147.03 85.8277V84.3588L152.157 81.3906V82.8596Z" fill="#E6B7FB"/>
<path d="M152.157 85.2189L147.03 88.1871V86.7182L152.157 83.75V85.2189Z" fill="#E6B7FB"/>
<path d="M152.157 92.2834L147.03 95.2516V93.7826L152.157 90.8145V92.2834Z" fill="#E6B7FB"/>
<path d="M147.813 88.6222L152.157 86.1055V87.5744L147.813 90.0911V88.6222Z" fill="#E6B7FB"/>
<path d="M136.69 96.5158L131.777 99.3593V97.8904L136.69 95.0469V96.5158Z" fill="#E6B7FB"/>
<path d="M137.5 94.5751L143.728 90.9668V92.4357L137.5 96.044V94.5751Z" fill="#E6B7FB"/>
<path d="M137.5 92.2196L143.728 88.6113V90.0802L137.5 93.6885V92.2196Z" fill="#E6B7FB"/>
<path d="M136.69 94.1564L131.777 97.0033V95.5344L136.69 92.6875V94.1564Z" fill="#E6B7FB"/>
<path d="M140.553 87.2058L131.777 92.2897V90.8208L140.553 85.7402V87.2058Z" fill="#E6B7FB"/>
<path d="M141.367 85.2682L143.728 83.9004V85.3693L141.367 86.7372V85.2682Z" fill="#E6B7FB"/>
<path d="M143.728 97.1447L141.367 98.5126V97.0436L143.728 95.6758V97.1447Z" fill="#E6B7FB"/>
<path d="M136.69 101.225L131.777 104.068V102.599L136.69 99.7559V101.225Z" fill="#E6B7FB"/>
<path d="M140.553 96.6291L131.777 101.713V100.244L140.553 95.1602V96.6291Z" fill="#E6B7FB"/>
<path d="M149.148 90.2008L152.157 88.459V89.9279L149.148 91.6697V90.2008Z" fill="#E6B7FB"/>
<path d="M149.595 80.5229L152.157 79.0371V80.506L149.595 81.9918V80.5229Z" fill="#E6B7FB"/>
<path d="M219.27 44.0822L207.32 51.0057V49.5368L219.27 42.6133V44.0822Z" fill="#E6B7FB"/>
<path d="M227.697 39.2209L222.572 42.189V40.7201L227.697 37.752V39.2209Z" fill="#E6B7FB"/>
<path d="M227.697 41.5763L222.572 44.5445V43.0756L227.697 40.1074V41.5763Z" fill="#E6B7FB"/>
<path d="M227.697 48.6447L222.572 51.6129V50.144L227.697 47.1758V48.6447Z" fill="#E6B7FB"/>
<path d="M223.352 44.9777L227.697 42.4609V43.9299L223.352 46.4466V44.9777Z" fill="#E6B7FB"/>
<path d="M212.229 52.8713L207.32 55.7182V54.2492L212.229 51.4023V52.8713Z" fill="#E6B7FB"/>
<path d="M213.043 50.9345L219.27 47.3262V48.7951L213.043 52.4034V50.9345Z" fill="#E6B7FB"/>
<path d="M213.043 48.5756L219.27 44.9707V46.4396L213.043 50.0446V48.5756Z" fill="#E6B7FB"/>
<path d="M212.229 50.5178L207.32 53.3613V51.8923L212.229 49.0488V50.5178Z" fill="#E6B7FB"/>
<path d="M216.096 43.5666L207.32 48.6505V47.1816L216.096 42.0977V43.5666Z" fill="#E6B7FB"/>
<path d="M216.906 41.6257L219.27 40.2578V41.7267L216.906 43.0946V41.6257Z" fill="#E6B7FB"/>
<path d="M219.27 53.506L216.906 54.8739V53.405L219.27 52.0371V53.506Z" fill="#E6B7FB"/>
<path d="M212.229 57.5861L207.32 60.4296V58.9607L212.229 56.1172V57.5861Z" fill="#E6B7FB"/>
<path d="M216.096 52.9904L207.32 58.0744V56.6054L216.096 51.5215V52.9904Z" fill="#E6B7FB"/>
<path d="M224.69 46.5621L227.697 44.8203V46.2892L224.69 48.0311V46.5621Z" fill="#E6B7FB"/>
<path d="M225.134 36.8789L227.697 35.3965V36.8654L225.134 38.3478V36.8789Z" fill="#E6B7FB"/>
<path d="M183.688 63.1877L195.642 56.2676V57.7365L183.688 64.6566V63.1877Z" fill="#E6B7FB"/>
<path d="M204.068 52.8713L198.944 55.8394V54.3705L204.068 51.4023V52.8713Z" fill="#E6B7FB"/>
<path d="M204.068 55.2273L198.944 58.1988V56.7299L204.068 53.7617V55.2273Z" fill="#E6B7FB"/>
<path d="M204.068 62.2951L198.944 65.2633V63.7943L204.068 60.8262V62.2951Z" fill="#E6B7FB"/>
<path d="M199.724 58.6339L204.068 56.1172V57.5861L199.724 60.1028V58.6339Z" fill="#E6B7FB"/>
<path d="M188.601 66.5275L183.688 69.371V67.9021L188.601 65.0586V66.5275Z" fill="#E6B7FB"/>
<path d="M189.411 64.5868L195.642 60.9785V62.4474L189.411 66.0557V64.5868Z" fill="#E6B7FB"/>
<path d="M189.411 62.2313L195.642 58.623V60.092L189.411 63.7003V62.2313Z" fill="#E6B7FB"/>
<path d="M188.601 64.1681L183.688 67.015V65.5461L188.601 62.6992V64.1681Z" fill="#E6B7FB"/>
<path d="M192.464 57.2189L183.688 62.3029V60.834L192.464 55.75V57.2189Z" fill="#E6B7FB"/>
<path d="M193.278 55.28L195.642 53.9121V55.3777L193.278 56.7489V55.28Z" fill="#E6B7FB"/>
<path d="M195.642 67.1564L193.278 68.5243V67.0554L195.642 65.6875V67.1564Z" fill="#E6B7FB"/>
<path d="M188.601 71.2365L183.688 74.08V72.6111L188.601 69.7676V71.2365Z" fill="#E6B7FB"/>
<path d="M192.464 66.6408L183.688 71.7248V70.2558L192.464 65.1719V66.6408Z" fill="#E6B7FB"/>
<path d="M201.062 60.2125L204.068 58.4707V59.9396L201.062 61.6814V60.2125Z" fill="#E6B7FB"/>
<path d="M201.506 50.5346L204.068 49.0488V50.5178L201.506 52.0035V50.5346Z" fill="#E6B7FB"/>
<path d="M167.359 56.3752L155.406 63.2953V61.8264L167.359 54.9062V56.3752Z" fill="#E6B7FB"/>
<path d="M175.786 51.5099L170.661 54.4781V53.0092L175.786 50.041V51.5099Z" fill="#E6B7FB"/>
<path d="M175.786 53.8654L170.661 56.8336V55.368L175.786 52.3965V53.8654Z" fill="#E6B7FB"/>
<path d="M175.786 60.9338L170.661 63.9019V62.433L175.786 59.4648V60.9338Z" fill="#E6B7FB"/>
<path d="M171.442 57.2706L175.786 54.7539V56.2228L171.442 58.7362V57.2706Z" fill="#E6B7FB"/>
<path d="M160.318 65.1609L155.406 68.0078V66.5388L160.318 63.6953V65.1609Z" fill="#E6B7FB"/>
<path d="M161.129 63.2235L167.359 59.6152V61.0842L161.129 64.6925V63.2235Z" fill="#E6B7FB"/>
<path d="M161.129 60.8681L167.359 57.2598V58.7287L161.129 62.337V60.8681Z" fill="#E6B7FB"/>
<path d="M160.318 62.8068L155.406 65.6537V64.1848L160.318 61.3379V62.8068Z" fill="#E6B7FB"/>
<path d="M164.182 55.8556L155.406 60.9396V59.4707L164.182 54.3867V55.8556Z" fill="#E6B7FB"/>
<path d="M164.996 53.9181L167.359 52.5469V54.0158L164.996 55.387V53.9181Z" fill="#E6B7FB"/>
<path d="M167.359 65.7951L164.996 67.163V65.694L167.359 64.3262V65.7951Z" fill="#E6B7FB"/>
<path d="M160.318 69.8752L155.406 72.7187V71.2498L160.318 68.4062V69.8752Z" fill="#E6B7FB"/>
<path d="M164.182 65.2795L155.406 70.3634V68.8945L164.182 63.8105V65.2795Z" fill="#E6B7FB"/>
<path d="M172.78 58.8512L175.786 57.1094V58.5783L172.78 60.3201V58.8512Z" fill="#E6B7FB"/>
<path d="M173.224 49.1713L175.786 47.6855V49.1545L173.224 50.6369V49.1713Z" fill="#E6B7FB"/>
<path d="M131.777 75.4801L143.728 68.5566V70.0256L131.777 76.9491V75.4801Z" fill="#E6B7FB"/>
<path d="M152.157 65.1609L147.03 68.1324V66.6635L152.157 63.6953V65.1609Z" fill="#E6B7FB"/>
<path d="M152.157 67.5197L147.03 70.4879V69.019L152.157 66.0508V67.5197Z" fill="#E6B7FB"/>
<path d="M152.157 74.5842L147.03 77.5523V76.0868L152.157 73.1152V74.5842Z" fill="#E6B7FB"/>
<path d="M147.813 70.923L152.157 68.4062V69.8752L147.813 72.3919V70.923Z" fill="#E6B7FB"/>
<path d="M136.69 78.8166L131.777 81.6601V80.1912L136.69 77.3477V78.8166Z" fill="#E6B7FB"/>
<path d="M137.5 76.8759L143.728 73.2676V74.7365L137.5 78.3448V76.8759Z" fill="#E6B7FB"/>
<path d="M137.5 74.5204L143.728 70.9121V72.381L137.5 75.9893V74.5204Z" fill="#E6B7FB"/>
<path d="M136.69 76.4577L131.777 79.3046V77.8357L136.69 74.9922V76.4577Z" fill="#E6B7FB"/>
<path d="M140.553 69.5099L131.777 74.5905V73.1216L140.553 68.041V69.5099Z" fill="#E6B7FB"/>
<path d="M141.367 67.569L143.728 66.2012V67.6701L141.367 69.0379V67.569Z" fill="#E6B7FB"/>
<path d="M143.728 79.4455L141.367 80.8133V79.3444L143.728 77.9766V79.4455Z" fill="#E6B7FB"/>
<path d="M136.69 83.5256L131.777 86.3724V84.9035L136.69 82.0566V83.5256Z" fill="#E6B7FB"/>
<path d="M140.553 78.9338L131.777 84.0144V82.5454L140.553 77.4648V78.9338Z" fill="#E6B7FB"/>
<path d="M149.148 72.5016L152.157 70.7598V72.2287L149.148 73.9705V72.5016Z" fill="#E6B7FB"/>
<path d="M149.595 62.8237L152.157 61.3379V62.8068L149.595 64.2926V62.8237Z" fill="#E6B7FB"/>
<path d="M219.27 26.3835L207.32 33.307V31.8381L219.27 24.918V26.3835Z" fill="#E6B7FB"/>
<path d="M227.697 21.5217L222.572 24.4898V23.0209L227.697 20.0527V21.5217Z" fill="#E6B7FB"/>
<path d="M227.697 23.8771L222.572 26.8453V25.3764L227.697 22.4082V23.8771Z" fill="#E6B7FB"/>
<path d="M227.697 30.9455L222.572 33.9137V32.4447L227.697 29.4766V30.9455Z" fill="#E6B7FB"/>
<path d="M223.352 27.2823L227.697 24.7656V26.2346L223.352 28.7479V27.2823Z" fill="#E6B7FB"/>
<path d="M212.229 35.1721L207.32 38.0189V36.55L212.229 33.7031V35.1721Z" fill="#E6B7FB"/>
<path d="M213.043 33.2353L219.27 29.627V31.0959L213.043 34.7042V33.2353Z" fill="#E6B7FB"/>
<path d="M213.043 30.8798L219.27 27.2715V28.7404L213.043 32.3453V30.8798Z" fill="#E6B7FB"/>
<path d="M212.229 32.8185L207.32 35.662V34.1965L212.229 31.3496V32.8185Z" fill="#E6B7FB"/>
<path d="M216.096 25.8674L207.32 30.9513V29.4824L216.096 24.3984V25.8674Z" fill="#E6B7FB"/>
<path d="M216.906 23.9298L219.27 22.5586V24.0275L216.906 25.3987V23.9298Z" fill="#E6B7FB"/>
<path d="M219.27 35.8068L216.906 37.1747V35.7057L219.27 34.3379V35.8068Z" fill="#E6B7FB"/>
<path d="M212.229 39.8869L207.32 42.7304V41.2615L212.229 38.418V39.8869Z" fill="#E6B7FB"/>
<path d="M216.096 35.2912L207.32 40.3752V38.9062L216.096 33.8223V35.2912Z" fill="#E6B7FB"/>
<path d="M224.69 28.8629L227.697 27.1211V28.59L224.69 30.3318V28.8629Z" fill="#E6B7FB"/>
<path d="M225.134 19.1797L227.697 17.6973V19.1662L225.134 20.6486V19.1797Z" fill="#E6B7FB"/>
<path d="M183.688 45.4918L195.642 38.5684V40.0373L183.688 46.9608V45.4918Z" fill="#E6B7FB"/>
<path d="M204.068 35.1721L198.944 38.1402V36.6747L204.068 33.7031V35.1721Z" fill="#E6B7FB"/>
<path d="M204.068 37.5314L198.944 40.4996V39.0307L204.068 36.0625V37.5314Z" fill="#E6B7FB"/>
<path d="M204.068 44.5959L198.944 47.564V46.0951L204.068 43.127V44.5959Z" fill="#E6B7FB"/>
<path d="M199.724 40.9347L204.068 38.418V39.8869L199.724 42.4036V40.9347Z" fill="#E6B7FB"/>
<path d="M188.601 48.8283L183.688 51.6718V50.2029L188.601 47.3594V48.8283Z" fill="#E6B7FB"/>
<path d="M189.411 46.8876L195.642 43.2793V44.7482L189.411 48.3565V46.8876Z" fill="#E6B7FB"/>
<path d="M189.411 44.5321L195.642 40.9238V42.3928L189.411 46.0011V44.5321Z" fill="#E6B7FB"/>
<path d="M188.601 46.4689L183.688 49.3158V47.8469L188.601 45V46.4689Z" fill="#E6B7FB"/>
<path d="M192.464 39.5183L183.688 44.6023V43.1333L192.464 38.0527V39.5183Z" fill="#E6B7FB"/>
<path d="M193.278 37.5807L195.642 36.2129V37.6818L193.278 39.0497V37.5807Z" fill="#E6B7FB"/>
<path d="M195.642 49.4572L193.278 50.8251V49.3561L195.642 47.9883V49.4572Z" fill="#E6B7FB"/>
<path d="M188.601 53.5373L183.688 56.3808V54.9152L188.601 52.0684V53.5373Z" fill="#E6B7FB"/>
<path d="M192.464 48.9421L183.688 54.0261V52.5572L192.464 47.4766V48.9421Z" fill="#E6B7FB"/>
<path d="M201.062 42.5133L204.068 40.7715V42.2404L201.062 43.9822V42.5133Z" fill="#E6B7FB"/>
<path d="M201.506 32.8354L204.068 31.3496V32.8185L201.506 34.3043V32.8354Z" fill="#E6B7FB"/>
<path d="M167.359 38.6779L155.406 45.598V44.1325L167.359 37.209V38.6779Z" fill="#E6B7FB"/>
<path d="M175.786 33.8127L170.661 36.7808V35.3119L175.786 32.3438V33.8127Z" fill="#E6B7FB"/>
<path d="M175.786 36.1667L170.661 39.1383V37.6693L175.786 34.7012V36.1667Z" fill="#E6B7FB"/>
<path d="M175.786 43.2365L170.661 46.2047V44.7357L175.786 41.7676V43.2365Z" fill="#E6B7FB"/>
<path d="M171.442 39.5734L175.786 37.0566V38.5256L171.442 41.0423V39.5734Z" fill="#E6B7FB"/>
<path d="M160.318 47.467L155.406 50.3105V48.8416L160.318 45.998V47.467Z" fill="#E6B7FB"/>
<path d="M161.129 45.5263L167.359 41.918V43.3869L161.129 46.9952V45.5263Z" fill="#E6B7FB"/>
<path d="M161.129 43.1708L167.359 39.5625V41.0314L161.129 44.6397V43.1708Z" fill="#E6B7FB"/>
<path d="M160.318 45.1096L155.406 47.9564V46.4875L160.318 43.6406V45.1096Z" fill="#E6B7FB"/>
<path d="M164.182 38.1584L155.406 43.2423V41.7734L164.182 36.6895V38.1584Z" fill="#E6B7FB"/>
<path d="M164.996 36.2214L167.359 34.8535V36.3191L164.996 37.6903V36.2214Z" fill="#E6B7FB"/>
<path d="M167.359 48.0978L164.996 49.4657V47.9968L167.359 46.6289V48.0978Z" fill="#E6B7FB"/>
<path d="M160.318 52.1779L155.406 55.0214V53.5525L160.318 50.709V52.1779Z" fill="#E6B7FB"/>
<path d="M164.182 47.5822L155.406 52.6662V51.1972L164.182 46.1133V47.5822Z" fill="#E6B7FB"/>
<path d="M172.78 41.1539L175.786 39.4121V40.881L172.78 42.6229V41.1539Z" fill="#E6B7FB"/>
<path d="M173.224 31.4741L175.786 29.9883V31.4572L173.224 32.943V31.4741Z" fill="#E6B7FB"/>
<path d="M131.777 57.7829L143.728 50.8594V52.3283L131.777 59.2518V57.7829Z" fill="#E6B7FB"/>
<path d="M152.157 47.467L147.03 50.4351V48.9662L152.157 45.998V47.467Z" fill="#E6B7FB"/>
<path d="M152.157 49.8224L147.03 52.7906V51.3217L152.157 48.3535V49.8224Z" fill="#E6B7FB"/>
<path d="M152.157 56.8874L147.03 59.859V58.39L152.157 55.4219V56.8874Z" fill="#E6B7FB"/>
<path d="M147.813 53.2257L152.157 50.709V52.1779L147.813 54.6946V53.2257Z" fill="#E6B7FB"/>
<path d="M136.69 61.1193L131.777 63.9628V62.4939L136.69 59.6504V61.1193Z" fill="#E6B7FB"/>
<path d="M137.5 59.1772L143.728 55.5723V57.0378L137.5 60.6461V59.1772Z" fill="#E6B7FB"/>
<path d="M137.5 56.8231L143.728 53.2148V54.6838L137.5 58.2921V56.8231Z" fill="#E6B7FB"/>
<path d="M136.69 58.7638L131.777 61.6074V60.1384L136.69 57.2949V58.7638Z" fill="#E6B7FB"/>
<path d="M140.553 51.8127L131.777 56.8933V55.4277L140.553 50.3438V51.8127Z" fill="#E6B7FB"/>
<path d="M141.367 49.8718L143.728 48.5039V49.9728L141.367 51.3407V49.8718Z" fill="#E6B7FB"/>
<path d="M143.728 61.7482L141.367 63.1194V61.6505L143.728 60.2793V61.7482Z" fill="#E6B7FB"/>
<path d="M136.69 65.8283L131.777 68.6752V67.2063L136.69 64.3594V65.8283Z" fill="#E6B7FB"/>
<path d="M140.553 61.2365L131.777 66.3171V64.8515L140.553 59.7676V61.2365Z" fill="#E6B7FB"/>
<path d="M149.148 54.8043L152.157 53.0625V54.5314L149.148 56.2732V54.8043Z" fill="#E6B7FB"/>
<path d="M149.595 45.1264L152.157 43.6406V45.1096L149.595 46.5953V45.1264Z" fill="#E6B7FB"/>
<path d="M219.27 8.68963L207.32 15.6097V14.1408L219.27 7.2207V8.68963Z" fill="#E6B7FB"/>
<path d="M227.697 3.82439L222.572 6.79257V5.32364L227.697 2.35547V3.82439Z" fill="#E6B7FB"/>
<path d="M227.697 6.17986L222.572 9.1514V7.68248L227.697 4.71094V6.17986Z" fill="#E6B7FB"/>
<path d="M227.697 13.2482L222.572 16.2164V14.7475L227.697 11.7793V13.2482Z" fill="#E6B7FB"/>
<path d="M223.352 9.58507L227.697 7.06836V8.53728L223.352 11.054V9.58507Z" fill="#E6B7FB"/>
<path d="M212.229 17.4753L207.32 20.3222V18.8533L212.229 16.0098V17.4753Z" fill="#E6B7FB"/>
<path d="M213.043 15.538L219.27 11.9297V13.3986L213.043 17.0069V15.538Z" fill="#E6B7FB"/>
<path d="M213.043 13.1825L219.27 9.57422V11.0431L213.043 14.6514V13.1825Z" fill="#E6B7FB"/>
<path d="M212.229 15.1213L207.32 17.9682V16.4992L212.229 13.6523V15.1213Z" fill="#E6B7FB"/>
<path d="M216.096 8.1701L207.32 13.2541V11.7851L216.096 6.70117V8.1701Z" fill="#E6B7FB"/>
<path d="M216.906 6.23255L219.27 4.86133V6.33025L216.906 7.70147V6.23255Z" fill="#E6B7FB"/>
<path d="M219.27 18.1096L216.906 19.4774V18.0085L219.27 16.6406V18.1096Z" fill="#E6B7FB"/>
<path d="M212.229 22.1896L207.32 25.0331V23.5642L212.229 20.7207V22.1896Z" fill="#E6B7FB"/>
<path d="M216.096 17.5939L207.32 22.6779V21.209L216.096 16.125V17.5939Z" fill="#E6B7FB"/>
<path d="M224.69 11.1657L227.697 9.42383V10.8928L224.69 12.6346V11.1657Z" fill="#E6B7FB"/>
<path d="M225.134 1.48577L227.697 0V1.46893L225.134 2.9547V1.48577Z" fill="#E6B7FB"/>
<path d="M183.688 27.7946L195.642 20.8711V22.34L183.688 29.2635V27.7946Z" fill="#E6B7FB"/>
<path d="M204.068 17.4753L198.944 20.4469V18.9779L204.068 16.0098V17.4753Z" fill="#E6B7FB"/>
<path d="M204.068 19.8342L198.944 22.8023V21.3334L204.068 18.3652V19.8342Z" fill="#E6B7FB"/>
<path d="M204.068 26.8986L198.944 29.8702V28.4012L204.068 25.4297V26.8986Z" fill="#E6B7FB"/>
<path d="M199.724 23.2374L204.068 20.7207V22.1896L199.724 24.7063V23.2374Z" fill="#E6B7FB"/>
<path d="M188.601 31.131L183.688 33.9745V32.5056L188.601 29.6621V31.131Z" fill="#E6B7FB"/>
<path d="M189.411 29.1903L195.642 25.582V27.051L189.411 30.6593V29.1903Z" fill="#E6B7FB"/>
<path d="M189.411 26.8349L195.642 23.2266V24.6955L189.411 28.3038V26.8349Z" fill="#E6B7FB"/>
<path d="M188.601 28.7756L183.688 31.6191V30.1502L188.601 27.3066V28.7756Z" fill="#E6B7FB"/>
<path d="M192.464 21.8244L183.688 26.905V25.4394L192.464 20.3555V21.8244Z" fill="#E6B7FB"/>
<path d="M193.278 19.8835L195.642 18.5156V19.9846L193.278 21.3524V19.8835Z" fill="#E6B7FB"/>
<path d="M195.642 31.7599L193.278 33.1278V31.6622L195.642 30.291V31.7599Z" fill="#E6B7FB"/>
<path d="M188.601 35.84L183.688 38.6869V37.218L188.601 34.3711V35.84Z" fill="#E6B7FB"/>
<path d="M192.464 31.2482L183.688 36.3288V34.8599L192.464 29.7793V31.2482Z" fill="#E6B7FB"/>
<path d="M201.062 24.816L204.068 23.0742V24.5431L201.062 26.285V24.816Z" fill="#E6B7FB"/>
<path d="M201.506 15.1381L204.068 13.6523V15.1213L201.506 16.607V15.1381Z" fill="#E6B7FB"/>
<path d="M451.597 23.4999C455.027 25.4843 458.043 29.2509 459.798 33.3343C460.635 33.5533 461.52 33.9205 462.431 34.4461C467.727 37.5086 472.034 44.8229 472.239 50.9883L472.559 51.1736C476.681 53.5589 480.013 59.3403 480 64.0874C479.987 68.8344 476.634 70.7481 472.512 68.3627L432.585 45.2676C428.463 42.8823 425.13 37.1009 425.144 32.3572C425.157 27.6573 428.446 25.737 432.514 28.0145C433.954 24.5982 437.538 23.6616 441.724 26.084C441.845 26.1547 441.966 26.2255 442.084 26.303C443.258 22.1927 447.074 20.8888 451.597 23.5033V23.4999Z" fill="#E6B7FB"/>
<path d="M372.282 13.7929C375.711 15.7772 378.728 19.5439 380.483 23.6272C381.32 23.8462 382.204 24.2135 383.116 24.739C388.412 27.8015 392.719 35.1158 392.924 41.2813L393.244 41.4666C397.366 43.8519 400.698 49.6333 400.685 54.3803C400.671 59.1274 397.319 61.041 393.196 58.6557L353.27 35.5606C349.147 33.1753 345.815 27.3939 345.829 22.6502C345.842 17.9503 349.131 16.0299 353.199 18.3074C354.638 14.8912 358.223 13.9546 362.409 16.3769C362.53 16.4477 362.651 16.5184 362.769 16.5959C363.943 12.4856 367.759 11.1818 372.282 13.7962V13.7929Z" fill="#E6B7FB"/>
<path d="M39.6307 58.3964C36.2009 60.3808 33.1847 64.1474 31.4295 68.2308C30.5922 68.4497 29.7079 68.817 28.7966 69.3426C23.5007 72.4051 19.1933 79.7194 18.9882 85.8848L18.6687 86.0701C14.5463 88.4554 11.214 94.2368 11.2275 98.9838C11.2409 103.731 14.5933 105.645 18.7158 103.259L58.6424 80.1641C62.7648 77.7788 66.0971 71.9974 66.0836 67.2537C66.0702 62.5538 62.7816 60.6334 58.713 62.911C57.2738 59.4947 53.6894 58.5581 49.503 60.9805C49.382 61.0512 49.2609 61.122 49.1433 61.1995C47.9697 57.0892 44.1533 55.7853 39.6307 58.3997V58.3964Z" fill="#E6B7FB"/>
<path d="M470.017 134.329V120.526L460.242 123.599L351.266 59.4005C344.823 55.6035 336.884 55.6035 330.438 59.4005L61.1878 217.94L49.2946 215.784V230.641H49.3147C49.4257 233.643 50.922 236.595 53.8306 238.313L167.265 305.156C173.782 308.996 181.808 308.996 188.325 305.156L465.797 141.768C468.591 140.121 469.993 137.25 470.01 134.37V134.329H470.017Z" fill="#BD44F5"/>
<path d="M465.803 113.047L351.269 45.5743C344.826 41.7773 336.887 41.7773 330.441 45.5743L53.8371 208.443C47.7846 212.008 47.7812 220.919 53.8371 224.487L167.272 291.33C173.788 295.167 181.815 295.17 188.331 291.33L465.803 127.942C471.422 124.633 471.425 116.359 465.803 113.051V113.047Z" fill="#F8F8F9"/>
<path d="M292.348 68.9989L363.963 110.29L373.257 104.89L301.648 63.6016L292.348 68.9989Z" fill="#ECC8FC"/>
<path d="M465.803 113.046L351.269 45.5734C348.048 43.6766 344.45 42.7266 340.855 42.7266C337.261 42.7266 333.666 43.6733 330.445 45.5734L53.8371 208.442C47.7846 212.007 47.7812 220.918 53.8371 224.486L167.272 291.329C170.53 293.249 174.168 294.209 177.803 294.209C181.438 294.209 185.073 293.249 188.331 291.332L465.803 127.944C471.422 124.636 471.425 116.361 465.803 113.053V113.046ZM449.226 133.941L195.9 283.115C193.352 284.617 190.335 285.123 187.467 284.446C185.493 283.981 183.57 283.219 181.761 282.155L69.4123 215.955C66.4667 214.22 64.9805 211.208 64.9368 208.173C64.9166 206.613 65.764 205.174 67.0888 204.393L321.474 54.606C323.616 53.3426 326.137 52.8338 328.565 53.319C330.734 53.7536 332.849 54.5487 334.82 55.7111L447.72 122.22C450.336 123.76 451.711 126.391 451.852 129.08C451.956 131.068 450.914 132.941 449.223 133.938L449.226 133.941Z" fill="#AC5FFF"/>
<path d="M465.8 132.981L188.328 296.369C181.812 300.206 173.782 300.206 167.269 296.369L53.834 229.526C50.922 227.811 49.4257 224.86 49.3181 221.861H49.2979V225.924H49.3181C49.4291 228.926 50.9254 231.877 53.834 233.596L167.269 300.439C173.785 304.276 181.812 304.279 188.328 300.439L465.8 137.051C468.594 135.407 469.996 132.533 470.013 129.652V125.586C469.996 128.467 468.594 131.34 465.8 132.984V132.981Z" fill="#B937F5"/>
<path d="M390.671 175.971L417.615 160.072C417.797 159.965 417.998 159.978 418.156 160.069H418.163L419.196 160.682L418.436 163.448V164.402C418.436 165.065 418.089 165.679 417.524 166.009L391.562 181.328L391.26 182.16L390.221 181.544C389.928 181.375 389.716 181.055 389.716 180.664V177.639C389.716 176.948 390.076 176.311 390.661 175.968L390.671 175.971Z" fill="#B937F5"/>
<path d="M390.765 178.259V181.284C390.765 182.063 391.589 182.548 392.252 182.157L418.573 166.626C419.135 166.295 419.485 165.682 419.485 165.018V161.174C419.485 160.743 419.027 160.474 418.661 160.689L391.717 176.588C391.132 176.932 390.772 177.568 390.772 178.259H390.765Z" fill="#C864F7"/>
<path d="M383.143 77.3241L409.575 92.8186C410.453 93.3341 411.536 93.3341 412.413 92.8186L415.356 91.0902C415.974 90.7264 415.974 89.8134 415.356 89.4529L388.304 73.5979C387.547 73.1532 386.616 73.1566 385.859 73.5979L383.143 75.1915C382.339 75.6665 382.339 76.8524 383.143 77.3241Z" fill="#B937F5"/>
<path d="M431.079 98.9607C429.424 97.9871 426.741 97.9871 425.1 98.9607C423.456 99.9344 423.466 101.518 425.12 102.492C426.775 103.465 429.455 103.465 431.099 102.492C432.74 101.518 432.733 99.9344 431.079 98.9607Z" fill="#B937F5"/>
<path d="M359.289 55.0217C357.083 53.7246 353.505 53.7246 351.316 55.0217C349.124 56.3188 349.137 58.4345 351.343 59.7316C353.549 61.0287 357.127 61.0287 359.316 59.7316C361.505 58.4345 361.495 56.3221 359.289 55.0217Z" fill="#B937F5"/>
<path d="M444.556 106.879C442.901 105.905 440.221 105.905 438.577 106.879C436.933 107.852 436.943 109.436 438.597 110.409C440.252 111.383 442.932 111.383 444.576 110.409C446.22 109.436 446.21 107.852 444.556 106.879Z" fill="#B937F5"/>
<g style="mix-blend-mode:overlay" opacity="0.2">
<path d="M188.331 291.33L465.803 127.942C470.672 125.075 471.318 118.485 467.747 114.621L167.443 291.421C173.926 295.157 181.869 295.13 188.328 291.33H188.331Z" fill="white"/>
</g>
<g style="mix-blend-mode:overlay" opacity="0.2">
<path d="M330.442 45.5713L53.8373 208.443C49.8863 210.771 48.5313 215.37 49.735 219.278L347.628 43.8868C341.989 41.9058 335.714 42.465 330.438 45.5713H330.442Z" fill="white"/>
</g>
<path d="M380.025 113.602L406.771 98.101L398.543 93.2529L394.706 90.9922L340.203 122.571L302.903 100.955L357.702 69.1942L345.903 62.2404L345.634 62.082L278.548 100.961L286.954 105.836L263.235 119.569L236.974 104.364L229.502 108.764L255.7 123.932L216.217 146.791L190.352 131.816L182.877 136.216L249.805 174.964L207.42 199.531L140.876 160.948L140.301 161.288L128.805 168.067L195.252 206.582L123.795 247.999L132.251 252.982L135.893 255.091L167.164 236.965L221.17 268.234L228.645 263.833L174.7 232.602L207.42 213.637L261.07 244.734L266.84 241.341L273.175 237.612L219.589 206.582L305.704 156.673L358.596 187.311L370.654 180.192L317.873 149.621L372.49 117.965L424.865 148.29L432.336 143.887L380.025 113.602Z" fill="white"/>
<path d="M380.025 113.602L406.771 98.101L398.543 93.2529L394.706 90.9922L340.203 122.571L302.903 100.951L357.702 69.1908L345.903 62.2404L345.634 62.082L278.551 100.961L286.958 105.833L263.238 119.566L236.977 104.361L229.502 108.761L255.7 123.928L216.217 146.788L190.352 131.812L182.877 136.212L249.805 174.96L207.42 199.524L140.876 160.945L140.301 161.282L128.805 168.06L195.252 206.576L123.795 247.989L132.251 252.972L135.893 255.084L167.168 236.958L221.173 268.227L228.648 263.827L174.703 232.595L207.424 213.631L261.073 244.731L266.843 241.338L273.178 237.608L219.593 206.579L305.707 156.669L358.596 187.308L370.654 180.189L317.876 149.618L372.493 117.965L424.865 148.287L432.34 143.887L380.025 113.599V113.602ZM424.861 147.559L372.806 117.423C372.709 117.366 372.601 117.339 372.49 117.339C372.379 117.339 372.271 117.366 372.174 117.423L317.557 149.075C317.361 149.19 317.24 149.395 317.24 149.625C317.24 149.85 317.361 150.059 317.557 150.17L369.4 180.199L358.593 186.58L306.02 156.127C305.922 156.07 305.811 156.043 305.704 156.043C305.596 156.043 305.485 156.07 305.388 156.127L219.273 206.037C219.078 206.151 218.957 206.36 218.957 206.586C218.957 206.812 219.078 207.02 219.273 207.132L271.92 237.619L266.52 240.799L261.066 244.006L207.737 213.092C207.639 213.034 207.528 213.007 207.42 213.007C207.313 213.007 207.202 213.034 207.104 213.092L174.384 232.056C174.189 232.171 174.068 232.376 174.068 232.605C174.068 232.831 174.189 233.04 174.384 233.151L227.39 263.84L221.166 267.506L167.48 236.423C167.383 236.365 167.275 236.338 167.164 236.338C167.053 236.338 166.946 236.365 166.848 236.423L135.89 254.363L132.567 252.436L125.042 248.002L195.564 207.132C195.759 207.017 195.88 206.812 195.88 206.586C195.88 206.36 195.759 206.151 195.564 206.04L130.056 168.067L140.617 161.838L140.876 161.686L207.104 200.083C207.202 200.141 207.313 200.168 207.42 200.168C207.528 200.168 207.639 200.141 207.737 200.083L250.121 175.519C250.316 175.405 250.437 175.199 250.437 174.97C250.437 174.745 250.316 174.536 250.121 174.424L184.132 136.219L190.356 132.553L215.901 147.344C215.998 147.401 216.106 147.428 216.217 147.428C216.328 147.428 216.435 147.401 216.533 147.344L256.016 124.484C256.211 124.37 256.332 124.164 256.332 123.935C256.332 123.706 256.211 123.501 256.016 123.386L230.756 108.761L236.98 105.095L262.922 120.115C263.02 120.172 263.127 120.199 263.238 120.199C263.349 120.199 263.457 120.172 263.554 120.115L287.274 106.382C287.469 106.268 287.59 106.062 287.59 105.836C287.59 105.611 287.469 105.402 287.274 105.287L279.812 100.961L345.634 62.8131L356.454 69.1875L302.593 100.405C302.398 100.52 302.277 100.726 302.277 100.951C302.277 101.177 302.398 101.386 302.593 101.497L339.894 123.117C339.991 123.174 340.102 123.201 340.21 123.201C340.317 123.201 340.428 123.174 340.526 123.117L394.71 91.7199L398.23 93.7953L405.523 98.0909L379.713 113.05C379.518 113.164 379.397 113.37 379.397 113.595C379.397 113.821 379.518 114.03 379.713 114.145L431.089 143.89L424.865 147.556L424.861 147.559Z" fill="#EAEBEE"/>
<path d="M328.35 129.076L294.819 109.643C294.722 109.586 294.611 109.559 294.503 109.559C294.396 109.559 294.285 109.586 294.187 109.643L223.436 150.604C223.241 150.719 223.12 150.924 223.12 151.153C223.12 151.383 223.241 151.588 223.436 151.703L257.021 171.149C257.119 171.206 257.226 171.233 257.337 171.233C257.448 171.233 257.556 171.206 257.653 171.149L328.35 130.177C328.545 130.063 328.666 129.857 328.666 129.632C328.666 129.406 328.545 129.197 328.35 129.086V129.076ZM257.337 170.596L223.752 151.15L294.503 110.189L328.034 129.622L257.337 170.593V170.596Z" fill="#EAEBEE"/>
<path d="M294.503 110.193L223.756 151.155L257.34 170.598L328.034 129.626L294.503 110.193Z" fill="#F8F8F9"/>
<path d="M155.268 187.805L141.011 196.062L172.766 214.447L187.044 206.176L155.268 187.805Z" fill="#EAEBEE"/>
<path d="M305.909 161.785L291.648 170.046L323.404 188.431L337.685 180.16L305.909 161.785Z" fill="#EAEBEE"/>
<path d="M290.774 77.5L302.583 84.3393L276.282 99.5676L264.456 92.7148L290.774 77.5Z" fill="#EAEBEE"/>
<path d="M242.68 175.1L210.904 156.725L196.647 164.986L211.499 173.584L191.378 185.22L205.655 193.492L225.77 181.848L228.403 183.371L242.68 175.1Z" fill="#FCF9FF"/>
<path d="M247.092 195.938L228.685 206.601L269.684 230.339L288.118 219.659L247.092 195.938Z" fill="#FCF9FF"/>
<path d="M247.092 195.938L228.682 206.601L269.681 230.339L288.114 219.659L247.088 195.938H247.092ZM269.684 229.608L229.946 206.601L247.095 196.665L286.86 219.659L269.688 229.608H269.684Z" fill="#F0E1FF"/>
<path d="M358.562 131.506L327.402 149.524L362.053 169.674L393.264 151.626L358.562 131.506Z" fill="#EAEBEE"/>
<path d="M185.335 162.557L168.718 172.165L187.198 182.913L203.846 173.287L185.335 162.557Z" fill="#EAEBEE"/>
<path d="M88.9757 199.869L72.3547 209.478L90.8352 220.225L107.483 210.6L88.9757 199.869Z" fill="#EAEBEE"/>
<path d="M181.038 253.319L186.28 250.287L167.773 239.557L151.152 249.169L157.45 252.831L152.89 255.476L188.352 276.007L204.297 266.769L181.038 253.319Z" fill="#EAEBEE"/>
<path d="M294.685 198.918L278.064 208.53L296.544 219.277L313.192 209.649L294.685 198.918Z" fill="#EAEBEE"/>
<path d="M395.046 140.191L378.425 149.803L396.905 160.551L413.553 150.925L395.046 140.191Z" fill="#EAEBEE"/>
<path d="M249.95 243.065L231.439 232.334L222.646 237.418L219.078 235.35L223.339 232.887L204.828 222.156L188.21 231.765L201.496 239.494L197.256 241.943L215.736 252.694L224.543 247.6L233.302 252.694L249.95 243.065Z" fill="#EAEBEE"/>
<path d="M338.411 98.9062L321.79 108.515L340.27 119.266L356.918 109.637L338.411 98.9062Z" fill="#EAEBEE"/>
<path d="M261.194 94.6289L244.573 104.241L263.053 114.988L279.701 105.359L261.194 94.6289Z" fill="#FCF9FF"/>
<path d="M229.001 112.93L212.38 122.542L230.861 133.289L247.509 123.66L229.001 112.93Z" fill="#EAEBEE"/>
<path d="M164.273 150.373L147.652 159.982L166.132 170.729L182.78 161.104L164.273 150.373Z" fill="#EAEBEE"/>
<path d="M210.904 156.724L196.647 164.985L211.499 173.583L191.378 185.22L205.655 193.491L225.77 181.844L228.403 183.367L242.68 175.096L210.904 156.721V156.724ZM228.403 182.639L226.086 181.298L225.77 181.116L225.454 181.298L205.655 192.76L192.639 185.22L211.815 174.132L212.764 173.586L211.819 173.037L197.911 164.985L210.907 157.455L241.422 175.099L228.406 182.639H228.403Z" fill="#F0E1FF"/>
<path d="M261.194 94.6284L244.573 104.237L263.053 114.984L279.701 105.356L261.194 94.625V94.6284ZM245.834 104.24L261.194 95.3595L278.44 105.359L263.053 114.257L245.831 104.24H245.834Z" fill="#F0E1FF"/>
<path d="M292.18 134.514V145.093L267.563 130.825V120.27L292.18 134.514Z" fill="#EFD2FD"/>
<path d="M267.563 120.269L292.18 134.514L317.133 120.094L292.539 105.836L267.563 120.269Z" fill="white"/>
<path d="M292.18 134.513V145.092L317.133 130.669V120.094L292.18 134.513Z" fill="#E6B7FB"/>
<path d="M292.196 126.657V133.214L269.812 120.239V113.703L292.196 126.657Z" fill="#BA3BF5"/>
<path d="M269.812 113.703L292.196 126.657L314.887 113.541L292.523 100.58L269.812 113.703Z" fill="white"/>
<path d="M292.196 126.657V133.213L314.887 120.097V113.541L292.196 126.657Z" fill="#B42AF4"/>
<path d="M292.18 122.858V128.047L267.563 113.779V108.617L292.18 122.858Z" fill="#EFD2FD"/>
<path d="M267.563 108.617L292.18 122.858L317.133 108.438L292.539 94.1836L267.563 108.617Z" fill="white"/>
<path d="M292.18 122.857V128.046L317.133 113.623V108.438L292.18 122.857Z" fill="#E6B7FB"/>
<path d="M292.196 114.839V121.396L269.812 108.425V101.889L292.196 114.839Z" fill="#BA3BF5"/>
<path d="M269.812 101.888L292.196 114.839L314.887 101.726L292.523 88.7617L269.812 101.888Z" fill="white"/>
<path d="M292.196 114.839V121.395L314.887 108.283V101.727L292.196 114.839Z" fill="#B42AF4"/>
<path d="M292.18 111.041V116.226L267.563 101.962V96.7969L292.18 111.041Z" fill="#EFD2FD"/>
<path d="M267.563 96.7965L292.18 111.041L317.133 96.6179L292.539 82.3633L267.563 96.7965Z" fill="white"/>
<path d="M292.18 111.04V116.225L317.133 101.806V96.6172L292.18 111.04Z" fill="#E6B7FB"/>
<path d="M292.196 103.024V109.581L269.812 96.6064V90.0703L292.196 103.024Z" fill="#BA3BF5"/>
<path d="M269.812 90.0699L292.196 103.024L314.887 89.9082L292.523 76.9473L269.812 90.0699Z" fill="white"/>
<path d="M292.196 103.024V109.58L314.887 96.4645V89.9082L292.196 103.024Z" fill="#B42AF4"/>
<path d="M292.18 99.2236V104.412L267.563 90.1439V84.9824L292.18 99.2236Z" fill="#EFD2FD"/>
<path d="M267.563 84.982L292.18 99.2232L317.133 84.8035L292.539 70.5488L267.563 84.982Z" fill="white"/>
<path d="M292.18 99.2225V104.411L317.133 89.9878V84.8027L292.18 99.2225Z" fill="#E6B7FB"/>
<path d="M292.196 91.2047V97.761L269.812 84.7899V78.2539L292.196 91.2047Z" fill="#BA3BF5"/>
<path d="M269.812 78.2529L292.196 91.2037L314.887 78.0912L292.523 65.127L269.812 78.2529Z" fill="white"/>
<path d="M292.196 91.2043V97.7606L314.887 84.6481V78.0918L292.196 91.2043Z" fill="#B42AF4"/>
<path d="M292.18 87.4086V92.5936L267.563 78.3289V73.1641L292.18 87.4086Z" fill="#EFD2FD"/>
<path d="M267.563 73.1637L292.18 87.4082L317.133 72.9851L292.539 58.7305L267.563 73.1637Z" fill="white"/>
<path d="M292.18 87.4075V92.5925L317.133 78.1728V72.9844L292.18 87.4075Z" fill="#E6B7FB"/>
<path d="M292.196 79.3897V85.946L269.812 72.9716V66.4355L292.196 79.3897Z" fill="#BA3BF5"/>
<path d="M269.812 66.4351L292.196 79.3893L314.887 66.2734L292.523 53.3125L269.812 66.4351Z" fill="white"/>
<path d="M292.196 79.3893V85.9456L314.887 72.8297V66.2734L292.196 79.3893Z" fill="#B42AF4"/>
<path d="M292.18 75.5888V80.7772L267.563 66.5091V61.3477L292.18 75.5888Z" fill="#EFD2FD"/>
<path d="M267.563 61.3473L292.18 75.5884L317.133 61.1687L292.539 46.9141L267.563 61.3473Z" fill="white"/>
<path d="M292.18 75.5877V80.7761L317.133 66.353V61.168L292.18 75.5877Z" fill="#E6B7FB"/>
<path d="M292.196 67.5719V74.1282L269.812 61.1571V54.6211L292.196 67.5719Z" fill="#BA3BF5"/>
<path d="M269.812 54.6201L292.196 67.5709L314.887 54.4584L292.523 41.4941L269.812 54.6201Z" fill="white"/>
<path d="M292.196 67.5715V74.1278L314.887 61.0152V54.459L292.196 67.5715Z" fill="#B42AF4"/>
<path d="M292.18 63.7738V68.9589L267.563 54.6941V49.5293L292.18 63.7738Z" fill="#EFD2FD"/>
<path d="M267.563 49.5289L292.18 63.7734L317.133 49.3503L292.539 35.0957L267.563 49.5289Z" fill="white"/>
<path d="M292.18 63.7727V68.9577L317.133 54.538V49.3496L292.18 63.7727Z" fill="#E6B7FB"/>
<path opacity="0.2" d="M292.482 39.4492L275.088 49.5026L292.23 59.4212L309.608 49.3779L292.479 39.4492H292.482ZM277.482 49.5026L292.482 40.8339L307.217 49.3746L292.233 58.0331L277.485 49.4992L277.482 49.5026Z" fill="#BE46F5"/>
<path d="M141.525 216.969V231.496L161.566 219.94V205.416L141.525 216.969Z" fill="#E6B7FB"/>
<path d="M161.566 205.416L141.525 216.969L121.38 205.308L141.421 193.766L161.566 205.416Z" fill="white"/>
<path d="M141.525 216.969V231.497L121.38 219.846V205.309L141.525 216.969Z" fill="#EFD2FD"/>
<path d="M141.525 154.445V164.134L161.566 152.578V142.889L141.525 154.445Z" fill="#E6B7FB"/>
<path d="M161.566 142.889L141.525 154.445L121.38 142.795L141.421 131.242L161.566 142.889Z" fill="#AC5FFF"/>
<path d="M141.525 154.432V164.135L121.38 152.484V142.781L141.525 154.432Z" fill="#EFD2FD"/>
<path d="M141.522 164.131V216.045L160.776 204.944V153.033L141.522 164.131Z" fill="#B42AF4"/>
<path d="M141.522 164.134V216.045L122.17 204.852V152.941L141.522 164.134Z" fill="#BA3BF5"/>
<g style="mix-blend-mode:multiply" opacity="0.2">
<path d="M141.522 164.134L122.17 152.941V153.875L141.522 165.067L160.776 153.966V153.032L141.522 164.134Z" fill="#AD61FF"/>
</g>
<g style="mix-blend-mode:multiply" opacity="0.2">
<path d="M141.522 172.999V173.003L122.17 161.811V162.744L141.522 173.936L160.776 162.831V161.898L141.522 172.999Z" fill="#AD61FF"/>
</g>
<g style="mix-blend-mode:multiply" opacity="0.2">
<path d="M141.522 181.866L122.17 170.674V171.607L141.522 182.799L160.776 171.698V170.765L141.522 181.866Z" fill="#AD61FF"/>
</g>
<g style="mix-blend-mode:multiply" opacity="0.2">
<path d="M141.522 190.73V190.733L122.17 179.541V180.474L141.522 191.666L160.776 180.565V179.632L141.522 190.73Z" fill="#AD61FF"/>
</g>
<g style="mix-blend-mode:multiply" opacity="0.2">
<path d="M141.522 199.597V199.6L122.17 188.408V189.338L141.522 200.534L160.776 189.429V188.496L141.522 199.597Z" fill="#AD61FF"/>
</g>
<g style="mix-blend-mode:multiply" opacity="0.2">
<path d="M141.522 208.466L122.17 197.273V198.207L141.522 209.399L160.776 198.298V197.364L141.522 208.466Z" fill="#AD61FF"/>
</g>
<path d="M141.421 131.229L121.38 142.781L141.525 154.431L161.566 142.875L141.421 131.229ZM123.754 142.785L141.421 132.6L159.195 142.875L141.529 153.06L123.758 142.781L123.754 142.785Z" fill="white"/>
<path d="M123.754 142.794L124.679 143.33L141.421 133.674V132.609L123.754 142.794Z" fill="#E6B7FB"/>
<path d="M159.192 142.885L158.271 143.421L141.421 133.674V132.609L159.192 142.885Z" fill="#EFD2FD"/>
<path d="M429.905 129.671V136.457L445.689 127.31V120.541L429.905 129.671Z" fill="#E6B7FB"/>
<path d="M445.689 120.541L429.905 129.671L391.162 107.287L406.932 98.1465L445.689 120.541Z" fill="white"/>
<path d="M429.905 129.671V136.457L391.162 114.069V107.287L429.905 129.671Z" fill="#EFD2FD"/>
<path d="M429.909 125.649V128.715L444.169 120.447V117.398L429.909 125.649Z" fill="#B42AF4"/>
<path d="M444.169 117.398L429.909 125.649L392.743 104.164L406.99 95.9062L444.169 117.398Z" fill="white"/>
<path d="M429.909 125.649V128.715L392.743 107.23V104.164L429.909 125.649Z" fill="#BA3BF5"/>
<path d="M429.905 123.376V126.283L445.689 117.136V114.242L429.905 123.376Z" fill="#E6B7FB"/>
<path d="M445.689 114.243L429.905 123.376L391.162 100.992L406.932 91.8516L445.689 114.243Z" fill="white"/>
<path d="M429.905 123.376V126.284L391.162 103.896V100.992L429.905 123.376Z" fill="#EFD2FD"/>
<path d="M429.909 119.319V122.381L444.169 114.117V111.064L429.909 119.319Z" fill="#B42AF4"/>
<path d="M444.169 111.064L429.909 119.318L392.743 97.8333L406.99 89.5723L444.169 111.064Z" fill="white"/>
<path d="M429.909 119.319V122.381L392.743 100.896V97.834L429.909 119.319Z" fill="#BA3BF5"/>
<path d="M429.905 117.046V119.95L445.689 110.803V107.912L429.905 117.046Z" fill="#E6B7FB"/>
<path d="M445.689 107.912L429.905 117.046L391.162 94.6579L406.932 85.5176L445.689 107.912Z" fill="white"/>
<path d="M429.905 117.046V119.95L391.162 97.5657V94.6582L429.905 117.046Z" fill="#EFD2FD"/>
<path d="M429.909 112.983V116.049L444.169 107.785V104.732L429.909 112.983Z" fill="#B42AF4"/>
<path d="M444.169 104.732L429.909 112.983L392.743 91.4979L406.99 83.2402L444.169 104.732Z" fill="white"/>
<path d="M429.909 112.983V116.049L392.743 94.5639V91.498L429.909 112.983Z" fill="#BA3BF5"/>
<path d="M429.905 110.712V113.619L445.689 104.472V101.578L429.905 110.712Z" fill="#E6B7FB"/>
<path d="M445.689 101.579L429.905 110.712L391.162 88.3279L406.932 79.1875L445.689 101.579Z" fill="white"/>
<path d="M429.905 110.712V113.62L391.162 91.2323V88.3281L429.905 110.712Z" fill="#EFD2FD"/>
<path d="M429.909 106.653V109.715L444.169 101.451V98.3984L429.909 106.653Z" fill="#B42AF4"/>
<path d="M444.169 98.3982L429.909 106.653L392.743 85.1678L406.99 76.9102L444.169 98.3982Z" fill="white"/>
<path d="M429.909 106.653V109.715L392.743 88.2305V85.168L429.909 106.653Z" fill="#BA3BF5"/>
<path d="M429.905 104.382V107.286L445.689 98.1387V95.248L429.905 104.382Z" fill="#E6B7FB"/>
<path d="M445.689 95.2479L429.905 104.382L391.162 81.9939L406.932 72.8535L445.689 95.2479Z" fill="white"/>
<path d="M429.905 104.382V107.286L391.162 84.9017V81.9941L429.905 104.382Z" fill="#EFD2FD"/>
<path d="M429.909 100.319V103.385L444.169 95.1208V92.0684L429.909 100.319Z" fill="#B42AF4"/>
<path d="M444.169 92.0676L429.909 100.319L392.743 78.8338L406.99 70.5762L444.169 92.0676Z" fill="white"/>
<path d="M429.909 100.319V103.385L392.743 81.8999V78.834L429.909 100.319Z" fill="#BA3BF5"/>
<path d="M429.905 98.0482V100.956L445.689 91.8086V88.918L429.905 98.0482Z" fill="#E6B7FB"/>
<path d="M445.689 88.9178L429.905 98.0481L391.162 75.6638L406.932 66.5234L445.689 88.9178Z" fill="white"/>
<path d="M429.905 98.0483V100.956L391.162 78.5682V75.6641L429.905 98.0483Z" fill="#EFD2FD"/>
<path d="M257.394 152.142V164.537L278.861 152.159V139.764L257.394 152.142Z" fill="#E6B7FB"/>
<path d="M278.861 139.764L257.394 152.142L235.814 139.663L257.28 127.285L278.861 139.764Z" fill="white"/>
<path d="M257.394 152.143V164.528L235.814 152.045V139.664L257.394 152.143Z" fill="#EFD2FD"/>
<path d="M257.378 114.451V148.691L273.427 139.436V105.199L257.378 114.451Z" fill="#E6B7FB"/>
<path d="M273.427 105.2L257.378 114.452L241.247 105.123L257.297 95.8711L273.427 105.2Z" fill="white"/>
<path d="M257.378 114.452V148.682L241.247 139.353V105.123L257.378 114.452Z" fill="#EFD2FD"/>
<path d="M425.066 45.9017C425.295 44.5776 425.043 42.947 423.806 42.226C423.806 42.226 418.483 39.1264 418.476 39.123C419.858 39.9283 419.774 41.8891 419.464 43.2333C419.071 44.9583 418.133 46.5452 416.865 47.7681C415.974 48.6273 414.68 49.4965 413.378 49.2539C413.311 49.2404 413.24 49.227 413.177 49.2067C413.177 49.2067 413.17 49.2067 413.166 49.2067C413.106 49.1899 413.045 49.1663 412.985 49.1427C412.968 49.136 412.951 49.1293 412.934 49.1191C412.884 49.0956 412.834 49.072 412.787 49.045C412.77 49.0349 412.753 49.0282 412.739 49.0181L418.069 52.121C418.069 52.121 418.083 52.1311 418.093 52.1345C418.103 52.1379 418.109 52.1412 418.119 52.148C418.167 52.1749 418.217 52.1985 418.267 52.2221C418.278 52.2255 418.284 52.2322 418.294 52.2356C418.301 52.2356 418.311 52.2423 418.318 52.2457C418.378 52.2693 418.439 52.2928 418.499 52.3097C419.72 52.6702 421.139 51.9997 422.033 51.2181C423.372 50.0457 424.441 48.3914 424.902 46.6732C424.966 46.434 425.023 46.1746 425.07 45.905L425.066 45.9017Z" fill="#9939FF"/>
<mask id="mask0_2919_21172" style="mask-type:luminance" maskUnits="userSpaceOnUse" x="403" y="49" width="19" height="32">
<path d="M421.031 80.4617L415.702 77.3588C403.368 69.2662 403.388 51.3089 403.408 49.9512L408.738 53.0541C408.718 54.4152 408.698 72.3725 421.031 80.4617Z" fill="white"/>
</mask>
<g mask="url(#mask0_2919_21172)">
<path d="M408.738 53.0502L403.408 49.9473C403.388 51.3084 403.368 69.2657 415.702 77.3549L421.031 80.4578C408.698 72.3652 408.718 54.4079 408.738 53.0502Z" fill="#9939FF"/>
</g>
<path d="M408.822 51.8478C409.962 45.9351 413.382 39.7393 417.971 35.8379C419.558 34.4903 421.495 33.3785 423.449 32.6642C425.463 31.9297 427.746 31.549 429.727 32.5025C429.754 32.516 429.781 32.5294 429.804 32.5429C429.871 32.5766 429.935 32.6103 429.999 32.6474C430.036 32.6676 430.073 32.6878 430.11 32.708L424.78 29.6051C424.76 29.5916 424.737 29.5815 424.717 29.568C424.7 29.5579 424.683 29.5512 424.669 29.5444C424.606 29.5074 424.538 29.4737 424.474 29.44C424.448 29.4265 424.424 29.413 424.397 29.3996C422.783 28.6247 420.846 28.6415 419.142 29.0896C417.605 29.4939 416.179 30.2519 414.851 31.1245C409.098 34.8979 404.138 41.6833 403.469 48.6876C403.469 48.7045 403.469 48.7179 403.465 48.7348C403.449 48.91 403.439 49.0818 403.428 49.2536C403.428 49.3008 403.425 49.3513 403.422 49.3985C403.415 49.5838 403.408 49.7691 403.408 49.951L408.738 53.054C408.738 52.872 408.741 52.6867 408.751 52.5014C408.751 52.4543 408.755 52.4071 408.758 52.3566C408.768 52.1847 408.788 52.0197 408.822 51.8478Z" fill="#9939FF"/>
<path d="M433.123 38.8603C433.106 32.4051 427.629 29.8278 420.894 33.7224C414.158 37.6171 408.715 46.5115 408.735 53.0509C408.715 54.4121 408.694 72.3693 421.028 80.4585C433.759 57.2657 433.153 39.7801 433.12 38.8569L433.123 38.8603ZM420.947 51.8414C418.708 53.1352 416.889 52.0975 416.882 49.5201C416.875 46.9428 418.684 43.8061 420.92 42.509C423.16 41.2153 424.979 42.253 424.986 44.8304C424.992 47.4077 423.183 50.5477 420.947 51.8414Z" fill="#AC5FFF"/>
<path d="M433.123 38.8607C433.11 34.4809 430.588 31.8867 426.862 31.8867C425.097 31.8867 423.059 32.4696 420.894 33.7229C414.158 37.6175 408.715 46.512 408.735 53.0514C408.715 54.4125 408.694 72.3698 421.028 80.459C433.759 57.2661 433.153 39.7805 433.12 38.8574L433.123 38.8607ZM420.766 79.364C418.328 77.6255 416.24 75.3379 414.548 72.5618C413.042 70.0922 411.842 67.2218 410.981 64.0346C409.464 58.4251 409.485 53.5972 409.491 53.0648V53.0514C409.481 50.0495 410.732 46.3132 412.921 42.8026C415.181 39.1808 418.143 36.1924 421.27 34.3832C423.234 33.2478 425.167 32.6481 426.862 32.6481C430.248 32.6481 432.356 35.0301 432.366 38.8675V38.8911C432.43 40.734 432.635 57.3638 420.766 79.3674V79.364Z" fill="#C084FF"/>
<path d="M422.74 41.1953C422.037 41.1953 421.297 41.4177 420.544 41.8523C418.059 43.2909 416.119 46.66 416.126 49.5203C416.132 51.6934 417.339 53.1556 419.128 53.1556C419.831 53.1556 420.571 52.9332 421.324 52.4986C423.809 51.06 425.749 47.6909 425.742 44.8306C425.736 42.6575 424.528 41.1987 422.74 41.1987V41.1953ZM420.947 51.8417C420.295 52.219 419.676 52.3976 419.128 52.3976C417.8 52.3976 416.885 51.343 416.879 49.5203C416.872 46.943 418.681 43.8064 420.917 42.5093C421.569 42.1319 422.188 41.9534 422.736 41.9534C424.064 41.9534 424.979 43.0079 424.982 44.8306C424.989 47.4079 423.18 50.5479 420.944 51.8417H420.947Z" fill="#C084FF"/>
<path d="M370.106 110.291L128.173 250.59L131.185 252.339L370.106 113.788L406.294 134.761L409.323 133.005L370.106 110.291Z" fill="#3DDFF0"/>
<path d="M108.273 134.703L106.175 133.493C105.496 133.072 104.601 132.991 103.808 133.453L35.0137 173.212C33.4872 174.094 32.549 175.722 32.549 177.487V204.709C32.549 205.326 32.8953 205.818 33.3695 206.07L35.4811 207.293L35.8174 206.414L35.2088 205.848L105.61 165.163C106.635 164.57 107.264 163.475 107.264 162.289V135.454C107.264 135.421 107.258 135.39 107.258 135.36L108.28 134.706L108.273 134.703Z" fill="#85EBF6"/>
<path d="M32.5526 177.242L35.8344 179.142V205.478L35.2022 205.842L35.8109 206.408L35.4746 207.287L33.3629 206.068C32.8888 205.812 32.5425 205.32 32.5425 204.703V177.481C32.5425 177.4 32.5458 177.319 32.5492 177.238L32.5526 177.242Z" fill="#15D9ED"/>
<path d="M105.936 134.68L37.1424 174.439C35.6158 175.322 34.6777 176.949 34.6777 178.714V205.937C34.6777 207.126 35.9622 207.867 36.9911 207.274L107.739 166.387C108.764 165.794 109.396 164.699 109.396 163.513V136.678C109.396 134.903 107.476 133.791 105.943 134.68H105.936Z" fill="#3DDFF0"/>
<path d="M96.8339 146.684C92.2272 149.349 88.5049 155.807 88.5217 161.11C88.5352 166.413 92.281 168.552 96.8877 165.887C101.494 163.222 105.217 156.764 105.2 151.461C105.186 146.158 101.441 144.019 96.8339 146.684ZM96.8339 150.369C98.5992 149.349 100.035 150.167 100.042 152.199C100.048 154.23 98.6227 156.707 96.8541 157.727C95.0887 158.748 93.6529 157.93 93.6462 155.898C93.6395 153.866 95.0652 151.39 96.8339 150.369ZM101.39 158.138L92.3382 163.374C92.3315 163.286 92.3315 163.199 92.3315 163.108C92.3281 161.632 92.8594 159.988 93.7135 158.543C94.4297 159.237 95.5729 159.297 96.8608 158.553C98.1486 157.808 99.2885 156.427 99.998 154.908C100.859 155.362 101.397 156.383 101.4 157.862C101.4 157.953 101.4 158.044 101.393 158.138H101.39Z" fill="white"/>
<path d="M38.6555 183.776V185.131L85.0079 158.239V156.881L38.6555 183.776Z" fill="white"/>
<path d="M76.2687 171.257L85.0079 166.186V164.832L76.2687 169.903V171.257Z" fill="white"/>
<path d="M38.6555 193.082L74.9338 172.032V170.678L38.6555 191.724V193.082Z" fill="white"/>
<path d="M51.2616 183.121L85.0079 163.539V162.182L51.2616 181.763V183.121Z" fill="white"/>
<path d="M49.9233 182.537L38.6555 189.077V190.431L49.9233 183.895V182.537Z" fill="white"/>
<path d="M76.2687 176.557L85.0079 171.487V170.129L76.2687 175.199V176.557Z" fill="white"/>
<path d="M38.6555 198.379L74.9338 177.332V175.975L38.6555 197.025V198.379Z" fill="white"/>
<path d="M51.2616 188.416L85.0079 168.835V167.48L51.2616 187.062V188.416Z" fill="white"/>
<path d="M49.9233 187.836L38.6555 194.372V195.73L49.9233 189.19V187.836Z" fill="white"/>
<path d="M51.2616 193.713L85.0079 174.135V172.777L51.2616 192.359V193.713Z" fill="white"/>
<path d="M49.9233 193.133L38.6555 199.672V201.027L49.9233 194.491V193.133Z" fill="white"/>
<path d="M66.1946 170.449L38.6555 186.425V187.783L66.1946 171.804V170.449Z" fill="white"/>
<path d="M67.5295 171.029L85.0079 160.888V159.533L67.5295 169.671V171.029Z" fill="white"/>
<path d="M57.0385 171.818L85.0079 155.589V154.234L57.0385 170.46V171.818Z" fill="white"/>
<path d="M55.7035 171.234L38.6555 181.126V182.48L55.7035 172.592V171.234Z" fill="white"/>
<path d="M85.0079 151.582L72.1799 159.024V160.379L85.0079 152.936V151.582Z" fill="white"/>
<path d="M70.8449 159.799L38.6555 178.474V179.831L70.8449 161.157V159.799Z" fill="white"/>
<path d="M108.273 94.0623L106.175 92.8528C105.496 92.4316 104.601 92.3508 103.808 92.8124L35.0137 132.571C33.4872 133.454 32.549 135.081 32.549 136.846V164.069C32.549 164.685 32.8953 165.177 33.3695 165.43L35.4811 166.653L35.8174 165.773L35.2088 165.207L105.61 124.522C106.635 123.929 107.264 122.834 107.264 121.648V94.8136C107.264 94.7799 107.258 94.7496 107.258 94.7193L108.28 94.0657L108.273 94.0623Z" fill="#85EBF6"/>
<path d="M32.5526 136.601L35.8344 138.501V164.837L35.2022 165.201L35.8109 165.767L35.4746 166.647L33.3629 165.427C32.8888 165.171 32.5425 164.679 32.5425 164.063V136.84C32.5425 136.759 32.5458 136.679 32.5492 136.598L32.5526 136.601Z" fill="#15D9ED"/>
<path d="M105.936 94.0416L37.1424 133.8C35.6158 134.683 34.6777 136.31 34.6777 138.076V165.298C34.6777 166.487 35.9622 167.228 36.9911 166.635L107.739 125.748C108.764 125.155 109.396 124.06 109.396 122.874V96.0395C109.396 94.264 107.476 93.1522 105.943 94.0416H105.936Z" fill="#3DDFF0"/>
<path d="M96.8339 106.043C92.2272 108.708 88.5049 115.166 88.5217 120.469C88.5352 125.772 92.281 127.912 96.8877 125.247C101.494 122.582 105.217 116.123 105.2 110.82C105.186 105.517 101.441 103.378 96.8339 106.043ZM96.8339 109.729C98.5992 108.708 100.035 109.527 100.042 111.558C100.048 113.59 98.6227 116.066 96.8541 117.087C95.0887 118.108 93.6529 117.289 93.6462 115.257C93.6395 113.226 95.0652 110.75 96.8339 109.729ZM101.39 117.498L92.3382 122.733C92.3315 122.646 92.3315 122.558 92.3315 122.467C92.3281 120.992 92.8594 119.347 93.7135 117.902C94.4297 118.596 95.5729 118.657 96.8608 117.912C98.1486 117.168 99.2885 115.786 99.998 114.267C100.859 114.722 101.397 115.743 101.4 117.222C101.4 117.313 101.4 117.404 101.393 117.498H101.39Z" fill="white"/>
<path d="M38.6555 143.136V144.49L85.0079 117.598V116.24L38.6555 143.136Z" fill="white"/>
<path d="M76.2687 130.616L85.0079 125.549V124.191L76.2687 129.262V130.616Z" fill="white"/>
<path d="M38.6555 152.442L74.9338 131.395V130.037L38.6555 151.087V152.442Z" fill="white"/>
<path d="M51.2616 142.48L85.0079 122.899V121.545L51.2616 141.123V142.48Z" fill="white"/>
<path d="M49.9233 141.9L38.6555 148.436V149.794L49.9233 143.255V141.9Z" fill="white"/>
<path d="M76.2687 135.917L85.0079 130.847V129.492L76.2687 134.559V135.917Z" fill="white"/>
<path d="M38.6555 157.739L74.9338 136.692V135.338L38.6555 156.385V157.739Z" fill="white"/>
<path d="M51.2616 147.775L85.0079 128.194V126.84L51.2616 146.421V147.775Z" fill="white"/>
<path d="M49.9233 147.195L38.6555 153.731V155.089L49.9233 148.55V147.195Z" fill="white"/>
<path d="M51.2616 153.076L85.0079 133.494V132.137L51.2616 151.718V153.076Z" fill="white"/>
<path d="M49.9233 152.492L38.6555 159.032V160.386L49.9233 153.85V152.492Z" fill="white"/>
<path d="M66.1946 129.809L38.6555 145.785V147.143L66.1946 131.163V129.809Z" fill="white"/>
<path d="M67.5295 130.388L85.0079 120.247V118.893L67.5295 129.034V130.388Z" fill="white"/>
<path d="M57.0385 131.177L85.0079 114.948V113.594L57.0385 129.823V131.177Z" fill="white"/>
<path d="M55.7035 130.598L38.6555 140.486V141.844L55.7035 131.952V130.598Z" fill="white"/>
<path d="M85.0079 110.941L72.1799 118.384V119.741L85.0079 112.299V110.941Z" fill="white"/>
<path d="M70.8449 119.158L38.6555 137.836V139.191L70.8449 120.516V119.158Z" fill="white"/>
<path d="M345.223 118.423L346.246 117.834C346.555 117.642 346.962 117.608 347.322 117.813L378.549 135.862C379.242 136.263 379.669 137 379.669 137.802V158.718C379.669 158.997 379.511 159.22 379.296 159.338L378.267 159.934L378.116 159.533L378.391 159.277L346.434 140.808C345.97 140.538 345.681 140.043 345.681 139.504V118.764C345.681 118.764 345.681 118.733 345.681 118.72L345.217 118.423H345.223Z" fill="#D6B0FF"/>
<path d="M379.666 137.691L378.105 138.597V159.108L378.391 159.273L378.116 159.529L378.267 159.93L379.296 159.334C379.511 159.219 379.669 158.994 379.669 158.714V137.799C379.669 137.762 379.669 137.725 379.666 137.688V137.691Z" fill="#DCBCFF"/>
<path d="M346.286 118.414L377.514 136.462C378.206 136.863 378.633 137.601 378.633 138.403V159.318C378.633 159.857 378.052 160.194 377.584 159.924L345.469 141.364C345.005 141.095 344.716 140.599 344.716 140.06V119.32C344.716 118.515 345.587 118.01 346.283 118.414H346.286Z" fill="#DCBCFF"/>
<path d="M345.311 118.545H345.775L360.227 137.523L378.058 137.314L378.317 138.055L359.82 139.699L345.102 119.151L345.311 118.545Z" fill="#CEA0FF"/>
<path d="M377.514 136.461L346.286 118.413C346.118 118.315 345.94 118.271 345.765 118.271C345.22 118.271 344.719 118.709 344.719 119.319V140.059C344.719 140.598 345.005 141.094 345.472 141.363L377.588 159.924C377.702 159.988 377.82 160.018 377.937 160.018C378.304 160.018 378.637 159.725 378.637 159.317V138.402C378.637 137.6 378.21 136.862 377.517 136.461H377.514ZM378.058 159.317C378.058 159.405 377.981 159.445 377.931 159.445C377.91 159.445 377.89 159.438 377.87 159.428L345.755 140.868C345.469 140.703 345.291 140.393 345.291 140.063V119.323C345.291 119.03 345.536 118.848 345.765 118.848C345.845 118.848 345.926 118.868 346 118.912L377.228 136.96C377.742 137.256 378.058 137.809 378.058 138.402V159.317Z" fill="#E8D1FF"/>
<path d="M378.122 132.058C375.614 130.606 373.576 131.772 373.566 134.659C373.559 137.547 375.584 141.061 378.092 142.513C380.601 143.961 382.638 142.799 382.648 139.912C382.655 137.024 380.631 133.51 378.122 132.058Z" fill="#AE63FF"/>
<path d="M323.074 178.499L335.375 178.139L355.583 188.007C357.493 188.94 358.825 190.759 359.138 192.865L363.398 221.6C363.398 221.6 362.584 223.301 358.546 223.089L345.482 197.12L325.337 189.991L320.838 184.031L323.074 178.496V178.499Z" fill="#C65DF7"/>
<path d="M363.653 218.106C363.653 218.106 360.15 219.696 360.563 220.734C360.977 221.772 361.666 222.766 360.563 223.16C359.457 223.554 357.631 222.685 357.574 223.224C357.52 223.759 357.883 226.822 358.048 228.062C358.213 229.302 361.199 229.763 364.383 230.781C367.567 231.798 373.173 233.665 374.884 231.161C376.596 228.658 374.057 227.395 372.729 226.765C371.401 226.135 366.438 222.749 365.399 221.044C364.36 219.339 364.09 217.897 363.657 218.106H363.653Z" fill="#CB6AF7"/>
<path d="M363.482 229.487C366.982 230.605 373.001 232.603 375.315 230.343C375.22 230.599 375.083 230.871 374.884 231.158C373.173 233.658 367.567 231.791 364.383 230.777C361.199 229.76 358.213 229.298 358.048 228.058C358.038 227.991 358.028 227.917 358.018 227.836C359.41 228.365 361.407 228.826 363.482 229.487Z" fill="#C04CF6"/>
<path d="M361.148 222.539C361.212 222.054 360.829 221.401 360.563 220.73C360.15 219.696 363.653 218.102 363.653 218.102C364.087 217.893 364.359 219.332 365.395 221.037C366.434 222.742 371.397 226.127 372.725 226.757C372.91 226.845 373.115 226.943 373.331 227.057C372.265 228.189 370.775 228.681 370.775 228.681C365.466 228.189 361.145 222.536 361.145 222.536L361.148 222.539Z" fill="#D483F9"/>
<path d="M318.609 178.139C318.609 178.139 311.706 194.182 327.637 197.336L345.321 200.624C345.321 200.624 345.163 206.436 349.517 214.575C354.309 223.534 354.561 226.27 354.561 226.27C354.561 226.27 357.587 227.388 360.583 224.76C360.583 224.76 356.952 208.75 354.248 197.093C354.248 197.093 353.169 193.064 348.354 190.368L326.44 182.33L318.606 178.139H318.609Z" fill="#CF77F8"/>
<path d="M336.72 155.512L340.586 159.063L339.887 165.535C339.887 165.535 337.94 164.689 335.314 161.32C332.466 157.665 336.723 155.512 336.723 155.512H336.72Z" fill="#D0A4FF"/>
<path d="M340.523 149.373C340.523 149.373 343.428 163.89 342.392 164.733C341.356 165.578 340.267 166.384 338.438 164.504C336.434 162.445 337.332 150.909 337.332 150.909L340.526 149.373H340.523Z" fill="#D0A4FF"/>
<path d="M335.674 131.088C335.674 131.088 332.883 140.508 335.442 153.209C335.442 153.209 327.547 148.119 324.917 146.03L335.67 131.088H335.674Z" fill="#B42AF4"/>
<path d="M335.119 134.492L332.88 122.586C332.88 122.586 345.163 127.68 335.119 134.492Z" fill="#B42AF4"/>
<path d="M324.719 143.072C324.719 143.072 317.886 145.168 314.587 148.47C314.587 148.47 313.387 155.754 315.788 163.711C318.185 171.669 317.119 182.39 317.119 182.39C317.119 182.39 333.401 185.6 335.943 178.101C335.943 178.101 336.461 165.069 337.506 160.565C338.482 156.387 337.97 154.281 334.08 147.004C333.468 145.855 332.395 145.016 331.138 144.7L324.715 143.076L324.719 143.072Z" fill="#CB6AF7"/>
<path d="M329.362 140.876C329.362 140.876 328.986 143.252 328.986 144.906C328.986 144.906 325.163 148.157 322.093 144.03L322.994 138.852L329.362 140.88V140.876Z" fill="#D0A4FF"/>
<path d="M320.731 134.723C320.731 134.723 321.037 141.246 327.157 142.209C334.214 143.321 336.131 134.622 335.929 130.364C335.744 126.385 331.672 121.045 326.292 123.191C322.257 124.798 320.31 128.719 320.731 134.723Z" fill="#DAB8FF"/>
<path d="M330.852 144.625L318.387 145.76C318.387 145.76 322.812 151.431 331.007 155.16C331.007 155.16 333.982 151.599 330.852 144.625Z" fill="#D0A4FF"/>
<path d="M322.61 143.716H327.217L330.852 144.623L325.919 148.339L318.39 145.758C319.581 144.99 322.614 143.713 322.614 143.713L322.61 143.716Z" fill="#D0A4FF"/>
<path d="M331.864 131.901C331.864 131.901 328.488 131.911 325.727 130.792C325.727 130.792 323.337 138.403 323.488 146.684C323.488 146.684 320.384 145.566 317.409 141.684C317.409 141.684 315.892 122.002 327.809 121.557C327.809 121.557 338.421 121.018 336.746 131.466C336.746 131.466 333.828 131.951 331.871 131.904L331.864 131.901Z" fill="#B42AF4"/>
<path d="M327.066 126.881L333.169 126.463L335.67 129.236C335.67 129.236 333.814 135.162 325.435 135.694C317.056 136.227 327.066 126.881 327.066 126.881Z" fill="#B42AF4"/>
<path d="M318.189 131.56L325.22 134.488C325.22 134.488 323.784 143.069 326.854 149.888C329.191 155.08 330.29 160.767 326.343 161.299C322.392 161.831 323.912 148.921 317.446 146.3C317.446 146.3 316.514 137.651 318.185 131.557L318.189 131.56Z" fill="#B42AF4"/>
<path d="M314.587 148.469C314.587 148.469 317.889 148.341 319.961 153.502L323.982 163.182L331.195 153.802L334.964 154.985L326.218 169.977C325.193 171.874 322.849 172.022 321.622 170.25L314.288 159.216C314.288 159.216 309.093 151.296 314.587 148.472V148.469Z" fill="#DAB8FF"/>
<path d="M336 139.646L340.768 140.138C341.037 140.165 341.229 140.401 341.195 140.654L339.413 153.005C339.379 153.237 339.164 153.406 338.915 153.389L334.151 153.079C333.865 153.059 333.653 152.813 333.69 152.547L335.499 140.02C335.533 139.788 335.751 139.626 336 139.65V139.646Z" fill="#B835F5"/>
<path d="M334.793 149.612C334.793 149.612 335.405 149.427 335.297 150.118C335.19 150.808 333.438 152.085 333.599 153.682C333.757 155.279 331.198 153.804 331.198 153.804C331.198 153.804 332.563 150.438 334.793 149.612Z" fill="#DAB8FF"/>
<path d="M335.674 145.256C336.061 144.518 336.989 144.545 337.587 144.626C337.947 144.673 339.151 145.057 340.375 145.495C340.987 145.714 341.262 146.644 341.383 147.516C341.525 148.527 341.303 149.555 340.788 150.434C340.122 151.566 339.198 152.974 339.07 152.243C338.872 151.084 336.575 149.929 335.943 149.504C334.867 148.776 335.324 145.923 335.67 145.259L335.674 145.256Z" fill="#DAB8FF"/>
<path d="M331.854 153.369C333.122 152.493 335.075 152.281 335.57 152.24C335.607 152.25 335.647 152.25 335.687 152.23C336.118 152.041 336.894 151.617 337.927 150.697C338.67 150.033 339.638 148.635 340.233 149.033C340.829 149.43 341.289 151.583 341.124 152.527C340.96 153.47 339.467 154.818 337.641 155.926C336.39 156.687 333.508 157.459 333.508 157.459L331.195 153.803C331.195 153.803 331.444 153.672 331.851 153.369H331.854Z" fill="#DAB8FF"/>
<path d="M360.95 220.838C360.95 220.838 356.948 222.061 357.248 223.237C357.547 224.413 358.152 225.582 356.905 225.851C355.657 226.121 353.808 224.928 353.673 225.497C353.539 226.07 353.502 229.422 353.505 230.784C353.509 232.141 356.666 233.061 359.958 234.607C363.25 236.154 369.033 238.954 371.229 236.498C373.428 234.041 370.866 232.32 369.521 231.454C368.176 230.588 363.297 226.239 362.416 224.251C361.535 222.266 361.444 220.673 360.946 220.838H360.95Z" fill="#CB6AF7"/>
<path d="M359.164 233.091C362.782 234.789 368.996 237.795 371.804 235.679C371.67 235.942 371.481 236.215 371.226 236.498C369.027 238.954 363.243 236.151 359.955 234.607C356.663 233.061 353.505 232.141 353.502 230.784C353.502 230.709 353.502 230.625 353.502 230.541C354.928 231.309 357.019 232.084 359.164 233.091Z" fill="#C04CF6"/>
<path d="M357.624 225.268C357.759 224.756 357.439 223.998 357.248 223.237C356.949 222.061 360.95 220.838 360.95 220.838C361.448 220.673 361.538 222.263 362.419 224.251C363.3 226.235 368.179 230.588 369.524 231.454C369.709 231.575 369.921 231.71 370.136 231.862C368.828 232.933 367.154 233.253 367.154 233.253C361.498 231.976 357.631 225.272 357.631 225.272L357.624 225.268Z" fill="#D483F9"/>
<g style="mix-blend-mode:multiply" opacity="0.08">
<path d="M123.946 385.079C123.946 391.113 136.929 396.005 152.944 396.005C168.96 396.005 181.943 391.113 181.943 385.079C181.943 379.045 168.96 374.156 152.944 374.156C136.929 374.156 123.946 379.048 123.946 385.079Z" fill="#BF48F6"/>
</g>
<path d="M132.399 289.867C133.391 279.682 141.175 277.314 141.175 277.314L138.953 268.453C138.953 268.453 127.083 273.554 126.108 289.837C125.146 305.901 137.941 307.154 137.941 307.154L138.717 301.541C138.717 301.541 131.586 298.263 132.403 289.867H132.399Z" fill="#C65DF7"/>
<path d="M173.873 272.129C173.873 272.129 173.543 273.672 173.873 274.713C174.172 275.653 174.138 276.937 174.081 277.125C174.024 277.314 175.648 277.408 175.648 277.408L177.218 276.253L179.111 272.2C179.111 272.2 179.417 270.596 179.384 270.525C179.347 270.455 178.113 269.68 178.113 269.68L173.873 272.129Z" fill="#D2A8FF"/>
<path d="M181.099 261.17L176.243 260.028C175.954 259.961 175.665 260.136 175.611 260.409L173.385 271.611C173.335 271.867 173.499 272.12 173.765 272.194L178.55 273.525C178.856 273.609 179.169 273.43 179.226 273.137L181.489 261.743C181.539 261.487 181.368 261.238 181.099 261.174V261.17Z" fill="#F0F1F3"/>
<path d="M173.469 271.189L179.343 272.536L181.408 262.146L175.52 260.869L173.469 271.189Z" fill="#BF48F6"/>
<path d="M176.052 277.233C176.052 277.233 175.591 273.978 177.941 272.196C178.654 271.657 179.212 270.896 179.572 270.124C179.834 269.561 180.463 268.736 180.934 269.659C181.445 270.667 179.844 272.432 179.461 273.23C179.078 274.029 178.536 277.391 178.536 277.391L176.052 277.236V277.233Z" fill="#DDBEFF"/>
<path d="M173.852 265.914C173.852 265.914 171.67 270.112 173.032 272.743C173.032 272.743 174.236 273.929 175.08 272.81C175.924 271.692 176.179 268.043 175.924 267.174C175.668 266.308 174.589 265.664 173.852 265.91V265.914Z" fill="#DDBEFF"/>
<path d="M167.053 380.076C166.075 380.362 165.127 380.797 164.269 381.342C162.319 382.592 161.098 381.342 161.098 381.342L154.296 381.757C153.492 382.73 153.785 390.149 153.785 390.149C155.527 391.002 157.833 390.965 159.71 390.793C164.078 390.388 168.042 388.188 171.327 385.257C171.559 385.052 171.768 384.826 171.963 384.594C171.462 379.382 167.924 379.874 167.057 380.076H167.053Z" fill="#C55BF7"/>
<path d="M171.741 383.566C168.294 386.646 164.138 388.953 159.552 389.374C157.726 389.543 155.517 389.577 153.748 388.869C153.765 389.637 153.782 390.153 153.782 390.153C155.523 391.005 157.83 390.968 159.706 390.793C164.074 390.392 168.039 388.189 171.324 385.257C171.556 385.052 171.764 384.826 171.959 384.594C171.922 384.2 171.862 383.846 171.791 383.516C171.774 383.532 171.761 383.549 171.744 383.566H171.741Z" fill="#BC3FF5"/>
<path d="M149.064 377.335C148.085 377.622 147.137 378.056 146.28 378.602C144.33 379.852 143.109 378.602 143.109 378.602L136.307 379.017C135.503 379.99 135.795 387.409 135.795 387.409C137.537 388.261 139.844 388.224 141.72 388.053C146.088 387.652 150.053 385.448 153.338 382.517C153.57 382.312 153.778 382.086 153.973 381.853C153.472 376.641 149.935 377.133 149.067 377.335H149.064Z" fill="#C55BF7"/>
<path d="M153.755 380.826C150.308 383.902 146.152 386.213 141.565 386.634C139.74 386.803 137.53 386.836 135.762 386.129C135.779 386.897 135.795 387.413 135.795 387.413C137.537 388.265 139.844 388.228 141.72 388.053C146.088 387.652 150.052 385.448 153.338 382.517C153.57 382.312 153.778 382.086 153.973 381.854C153.936 381.459 153.876 381.106 153.805 380.775C153.788 380.792 153.775 380.809 153.755 380.826Z" fill="#BC3FF5"/>
<path d="M143.855 265.432L144.844 265.718L144.548 267.008L143.855 265.432Z" fill="#DADCE0"/>
<path d="M136.855 307.153C136.855 307.153 137.359 317.901 137.648 324.844L134.417 378.187C134.403 378.494 134.558 378.784 134.834 378.959C136.061 379.744 139.864 381.145 146.075 380.418C146.65 380.35 147.08 379.902 147.107 379.373L150.19 307.723L136.855 307.146V307.153Z" fill="#CD70F8"/>
<path d="M162.326 311.19L148.627 306.406C148.627 306.406 148.25 312.979 150.348 321.19L152.581 381.945C152.615 382.342 152.901 382.686 153.318 382.811C154.972 383.313 159.468 384.337 164.801 382.774C165.164 382.666 165.406 382.342 165.389 381.992L162.329 311.194L162.326 311.19Z" fill="#CD70F8"/>
<path d="M162.938 311.58C162.904 311.365 162.87 311.152 162.844 310.957C162.474 308.386 162.312 305.762 162.168 303.171C161.882 298.02 162.265 292.939 162.252 287.798C162.238 282.903 161.936 277.984 161.936 273.082C161.936 273.045 161.949 272.607 161.919 272.593L154.683 269.628L143.859 267.334L139.878 268.247C138.156 268.348 136.737 269.5 136.421 271.047C135.853 273.826 135.227 278.304 136.048 281.966C136.589 284.385 136.549 289.405 137.056 293.754C137.107 294.206 136.132 306.244 135.762 309.741C135.762 309.741 135.671 310.452 136.609 311.163C139.326 313.443 143.045 314.319 146.475 314.781C151.435 315.445 156.562 315.273 161.522 314.687C163.271 314.481 163.136 312.914 162.938 311.58Z" fill="#B835F5"/>
<path d="M144.592 263.865C144.931 264.195 144.558 264.387 144.938 264.65C147.208 266.213 150.658 266.792 153.425 267.463C153.866 267.571 154.346 267.665 154.834 267.742L154.673 269.632C151.73 270.37 148.983 270.161 146.949 269.646C145.432 269.262 144.195 268.79 144.195 267.338L144.36 263.75L144.588 263.865H144.592Z" fill="#D0A4FF"/>
<path d="M143.855 265.431L142.863 267.557C142.863 267.557 147.773 273.18 156.098 270.212L154.841 268.938C154.841 268.938 147.201 269.963 143.852 265.428L143.855 265.431Z" fill="#C65DF7"/>
<path d="M145.113 247.902C150.268 245.847 156.182 247.814 158.751 252.326C161.122 256.486 161.082 262.2 158.486 266.284C156.986 268.642 152.332 267.911 149.958 267.456C146.66 266.826 143.311 265.377 141.539 262.642C139.588 259.633 139.128 255.56 140.466 252.275C141.317 250.19 143.038 248.727 145.116 247.899L145.113 247.902Z" fill="#D9B6FF"/>
<path d="M150.584 247.168C148.785 246.972 146.905 247.191 145.113 247.906C143.038 248.734 141.313 250.197 140.463 252.282C139.124 255.57 139.585 259.64 141.535 262.649C143.307 265.384 146.66 266.833 149.955 267.463C150.987 267.659 152.453 267.898 153.903 267.921L154.636 264.711C153.439 264.711 152.699 263.376 152.477 261.837C152.255 260.297 153.126 259.792 153.882 259.751C154.636 259.711 154.814 262.847 154.814 262.847L155.924 262.524C155.769 260.358 156.129 257.393 156.129 257.393C156.129 257.393 158.926 257.693 161.408 255.385C161.408 255.385 161.26 247.875 150.58 247.164L150.584 247.168Z" fill="#BF48F6"/>
<path d="M179.283 276.371L173.61 275.043C173.059 275.188 173.153 275.474 173.177 275.673C173.94 282.378 171.536 286.343 170.769 286.96C167.343 289.709 161.902 272.584 161.902 272.584C161.902 272.584 159.834 272.193 158.055 276.445C158.055 276.445 157.383 278.284 158.055 281.67C159.242 287.094 162.003 293.769 168.6 295.177C171.025 295.692 173.314 295.184 174.945 293.418C175.719 292.583 176.277 291.606 176.774 290.612C178.647 286.855 179.69 282.745 179.515 278.608C179.508 278.439 179.495 276.421 179.283 276.371Z" fill="#C65DF7"/>
<path d="M159.646 264.984C160.059 263.973 159.797 263.488 159.797 263.488C158.17 263.488 157.198 265.705 157.198 265.705C156.071 265.166 155.913 262.299 155.913 262.299L154.817 262.848L154.639 264.711L153.906 265.607V267.922C154.619 268.683 155.806 269.65 156.492 270.186C156.831 270.452 157.353 270.449 157.659 270.149C158.93 268.882 158.445 266.352 158.445 266.352C158.119 266.365 157.897 266.224 157.897 266.224C158.163 265.061 159.646 264.987 159.646 264.987V264.984Z" fill="#BF48F6"/>
<path d="M35.5856 342.443C35.5856 342.443 77.3918 349.862 89.2043 328.283C101.017 306.7 70.7912 307.98 59.325 292.314C47.8588 276.651 53.6221 264.748 43.4606 254.024C32.6871 242.654 1.88636 258.084 0.147937 289.066C-1.59049 320.045 11.9605 335.482 35.5856 342.443Z" fill="#9939FF"/>
<path d="M47.6873 260.138C52.0754 269.299 49.9906 279.558 59.325 292.313C65.7877 301.144 78.2156 304.59 85.7107 309.785C85.5627 311.339 84.9743 313.121 83.8377 315.2C75.4281 330.566 45.6597 325.283 45.6597 325.283C28.837 320.327 19.1899 309.337 20.4273 287.277C21.5067 268.046 38.3126 257.231 47.6839 260.138H47.6873Z" fill="#AC5FFF"/>
<path d="M87.8358 352.846C86.1108 352.031 80.2163 351.31 79.453 351.007C78.6897 350.704 78.3804 348.318 78.3804 348.318L69.0258 350.71C69.204 355.72 71.2484 359.736 71.2484 359.736C77.3951 360.141 86.7934 359.318 88.7941 358.264C90.7914 357.209 89.5607 353.658 87.8358 352.843V352.846Z" fill="#D6B0FF"/>
<path d="M89.7759 356.707C79.796 359.15 72.8389 358.627 70.6533 358.355C70.9929 359.227 71.2518 359.739 71.2518 359.739C77.3985 360.144 86.7967 359.321 88.7974 358.267C89.4195 357.94 89.7019 357.361 89.7793 356.707H89.7759Z" fill="#C894FF"/>
<path d="M102.819 343.1C101.084 342.308 95.1795 341.658 94.4162 341.364C93.6495 341.071 93.3099 338.689 93.3099 338.689L83.9857 341.199C84.2278 346.206 86.3226 350.198 86.3226 350.198C92.476 350.525 101.861 349.585 103.848 348.507C105.832 347.429 104.558 343.891 102.823 343.1H102.819Z" fill="#D6B0FF"/>
<path d="M104.806 346.934C94.8567 349.501 87.8963 349.066 85.7039 348.82C86.0536 349.69 86.3193 350.198 86.3193 350.198C92.4727 350.525 101.857 349.585 103.845 348.507C104.463 348.17 104.736 347.587 104.806 346.934Z" fill="#C894FF"/>
<path d="M58.0203 296.637C58.0203 296.637 77.9634 302.832 87.9568 309.837C87.9568 309.837 91.0268 327.821 93.8816 339.481C93.8816 339.481 91.5951 344.434 83.7671 344.198L77.3111 317.037L49.1365 307.839L45.4008 299.645L58.0203 296.637Z" fill="#B937F5"/>
<path d="M46.6213 302.311C46.6213 302.311 69.9639 315.78 72.7649 318.779C72.7649 318.779 76.1207 338.427 79.1234 349.427C79.1234 349.427 74.2512 354.612 68.4811 352.712C68.4811 352.712 61.9477 327.616 61.2819 325.214C61.2819 325.214 44.8022 320.834 41.5473 318.893C37.6299 316.558 35.3064 305.73 36.0798 303.183L46.6213 302.311Z" fill="#B937F5"/>
<path d="M32.1423 256.133C32.1423 256.133 32.4282 258.087 32.297 260.307L33.6588 263.993L40.858 266.213L42.9629 265.805L43.0705 263.215C43.0705 263.215 41.2716 258.238 41.4094 256.298L32.1457 256.133H32.1423Z" fill="#D0A4FF"/>
<path d="M44.0322 262.039L43.9179 261.244L42.2164 260.594C41.5507 264.947 31.9372 261.028 31.9372 261.028L31.8599 261.419L31.026 261.207L29.9869 264.152L40.2225 292.078L45.2763 302.31C45.2763 302.31 49.6577 302.458 54.5871 299.012L46.7861 260.897L44.0356 262.042L44.0322 262.039Z" fill="#D6B0FF"/>
<path d="M23.8167 264.245C23.8167 264.245 25.498 262.584 32.297 260.306C32.297 260.306 39.5062 269.389 43.2151 275.114C43.2151 275.114 43.6421 267.169 41.9609 259.68L48.8339 260.498C51.1338 269.551 51.5373 272.078 53.9516 281.387L56.1574 287.023C56.9678 290.45 59.3754 296.484 59.3754 296.484C51.5542 303.731 42.2332 305.129 38.131 304.981C37.287 305.061 35.9184 304.758 35.5217 304.556C35.5217 304.556 26.4159 286.333 23.8201 264.245H23.8167Z" fill="#C14EF6"/>
<path d="M28.7764 254.34C28.7764 254.34 31.2109 261.381 38.0839 260.505C46.0161 259.494 45.2662 249.363 43.6791 244.765C42.1963 240.466 36.1235 236.497 31.0428 240.543C27.2297 243.582 26.389 247.898 28.7764 254.336V254.34Z" fill="#DAB8FF"/>
<path d="M41.9575 259.68C41.9575 259.68 56.1877 260.492 54.3417 254.404C52.4015 248.01 42.7813 247.494 42.7813 247.494L41.7961 241.727C41.7961 241.727 52.2098 242.357 57.4049 246.672C60.7876 249.479 65.5859 257.703 59.2745 263.434C52.963 269.164 48.7498 268.838 48.7498 268.838L41.9541 259.68H41.9575Z" fill="#C14EF6"/>
<path d="M27.4415 262.17C27.4415 262.17 20.6358 264.04 15.0271 262.11C15.0271 262.11 12.9154 261.432 14.906 259.205C17.021 256.84 22.8651 253.077 27.344 251.278L27.1254 244.287C27.1254 244.287 12.6498 248.822 7.42441 256.133C2.19905 263.444 7.51519 269.357 13.3458 270.916C13.3458 270.916 20.2692 273.002 27.3339 272.611C27.3339 272.611 27.8854 268.999 27.4415 262.174V262.17Z" fill="#C14EF6"/>
<path d="M31.026 239.958C35.6864 237.266 43.5043 238.698 45.236 243.728C45.7504 245.224 45.9051 247.434 45.8177 249.708L34.7886 248.451L34.7281 250.038L33.8101 251.729C34.1834 253.198 34.2943 253.98 34.6104 254.768L33.3427 255.621C33.3427 255.621 32.0179 250.827 30.9184 250.867C29.8188 250.907 29.0084 252.228 29.8054 253.364C30.6023 254.502 30.6931 255.904 31.9372 256.136C31.9372 256.136 32.371 257.912 32.3777 259.199C28.9916 257.231 27.4852 253.461 27.4852 253.461C24.4455 245.938 26.0831 242.811 31.0293 239.955L31.026 239.958Z" fill="#B937F5"/>
<path d="M152.699 118.029C150.063 115.923 149.397 111.873 149.504 108.652C149.763 100.866 153.997 93.313 159.471 87.8719C161.909 85.4461 165.009 83.546 168.456 82.9058C170.305 82.5622 172.242 82.5622 173.896 83.5291L169.555 81.0057C169.38 80.9046 169.202 80.8136 169.021 80.726C168.96 80.6991 168.896 80.6755 168.836 80.6485C166.828 79.7759 164.458 79.968 162.423 80.6351C160.379 81.3055 158.408 82.4645 156.724 83.7953C156.673 83.8357 156.623 83.8795 156.572 83.9199C156.475 83.9974 156.377 84.0783 156.28 84.1591C150.113 89.2701 145.688 97.3053 145.103 105.344C144.824 109.188 145.55 113.966 149.209 116.091L153.55 118.615C153.405 118.531 153.264 118.44 153.123 118.342C153.082 118.315 153.038 118.285 152.998 118.254C152.897 118.184 152.8 118.11 152.702 118.032L152.699 118.029Z" fill="#E8D1FF"/>
<path d="M163.674 84.5329C155.742 89.1216 149.33 100.246 149.356 109.383C149.383 118.517 155.836 122.203 163.768 117.614C171.704 113.025 178.113 101.897 178.086 92.7636C178.059 83.63 171.606 79.9442 163.674 84.5363V84.5329Z" fill="#D6B0FF"/>
<path d="M168.95 93.7737C168.947 92.2678 170.002 90.4316 171.314 89.6736C172.622 88.9155 173.688 89.5253 173.691 91.0313C173.694 92.5373 172.635 94.3768 171.327 95.1315C170.016 95.8895 168.953 95.2797 168.95 93.7737Z" fill="#C38AFF"/>
<path d="M156.112 98.4626C157.42 97.7046 158.486 98.3144 158.489 99.8204C158.492 101.326 157.433 103.166 156.125 103.921C154.814 104.679 153.751 104.069 153.748 102.563C153.745 101.057 154.8 99.2207 156.112 98.4626Z" fill="#C38AFF"/>
<path d="M163.735 112.446C160.917 114.076 158.624 112.766 158.617 109.521L168.825 103.615C168.836 106.86 166.556 110.815 163.738 112.446H163.735Z" fill="#C38AFF"/>
<path d="M152.699 60.6107C150.063 58.505 149.397 54.4553 149.504 51.2345C149.763 43.4485 153.997 35.895 159.471 30.4539C161.909 28.0282 165.009 26.128 168.456 25.4879C170.305 25.1442 172.242 25.1442 173.896 26.1112L169.555 23.5877C169.38 23.4866 169.202 23.3957 169.021 23.3081C168.96 23.2811 168.896 23.2575 168.836 23.2306C166.828 22.358 164.458 22.55 162.423 23.2171C160.379 23.8875 158.408 25.0465 156.724 26.3773C156.673 26.4177 156.623 26.4615 156.572 26.502C156.475 26.5795 156.377 26.6603 156.28 26.7412C150.113 31.8521 145.688 39.8874 145.103 47.926C144.824 51.7702 145.55 56.5475 149.209 58.6734L153.55 61.1969C153.405 61.1127 153.264 61.0217 153.123 60.924C153.082 60.897 153.038 60.8667 152.998 60.8364C152.897 60.7657 152.8 60.6915 152.702 60.614L152.699 60.6107Z" fill="#E8D1FF"/>
<path d="M163.674 27.111C155.742 31.6997 149.33 42.8245 149.356 51.9614C149.383 61.0951 155.836 64.7809 163.768 60.1921C171.704 55.6034 178.113 44.4753 178.086 35.3417C178.059 26.2081 171.606 22.5223 163.674 27.1144V27.111Z" fill="#D6B0FF"/>
<path d="M168.95 36.3538C168.947 34.8478 170.002 33.0117 171.314 32.2536C172.622 31.4956 173.688 32.1054 173.691 33.6114C173.694 35.1174 172.635 36.9569 171.327 37.7116C170.016 38.4696 168.953 37.8598 168.95 36.3538Z" fill="#C38AFF"/>
<path d="M156.112 41.0466C157.42 40.2886 158.486 40.8984 158.489 42.4044C158.492 43.9103 157.433 45.7499 156.125 46.5045C154.814 47.2626 153.751 46.6528 153.748 45.1468C153.745 43.6408 154.8 41.8047 156.112 41.0466Z" fill="#C38AFF"/>
<path d="M163.735 55.0296C160.917 56.6603 158.624 55.3497 158.617 52.1052L168.825 46.1992C168.836 49.4437 166.556 53.399 163.738 55.0296H163.735Z" fill="#C38AFF"/>
</g>
<defs>
<clipPath id="clip0_2919_21172">
<rect width="480" height="396" fill="white"/>
</clipPath>
</defs>
</svg>
