<svg width="1512" height="529" viewBox="0 0 1512 529" fill="none" xmlns="http://www.w3.org/2000/svg">
<path d="M0 36.8232H1512V529H0V36.8232Z" fill="url(#paint0_linear_1108_327)"/>
<path d="M1512 37.8945L1362.85 87.4781C1321.84 101.11 1292.55 137.397 1287.87 180.355V180.355C1284.24 213.632 1265.72 243.471 1237.51 261.493L1202.28 284.005C1177.71 299.704 1166.5 329.775 1174.79 357.729V357.729C1180.99 378.585 1176.4 401.155 1162.56 417.942L1158.37 423.033C1134.43 452.066 1134.7 494.068 1159.02 522.787L1160.78 524.869" stroke="#9A92F9" stroke-opacity="0.2" stroke-width="3"/>
<path d="M1441.99 37.8945L1292.84 87.4781C1251.83 101.11 1222.54 137.397 1217.86 180.355V180.355C1214.23 213.632 1195.71 243.471 1167.5 261.493L1132.27 284.005C1107.69 299.704 1096.48 329.775 1104.78 357.729V357.729C1110.98 378.585 1106.39 401.155 1092.55 417.942L1088.35 423.033C1064.42 452.066 1064.69 494.068 1089 522.787L1090.77 524.869" stroke="#9A92F9" stroke-opacity="0.2" stroke-width="3"/>
<path d="M1371.98 37.8945L1222.83 87.4781C1181.82 101.11 1152.53 137.397 1147.84 180.355V180.355C1144.22 213.632 1125.7 243.471 1097.49 261.493L1062.26 284.005C1037.68 299.704 1026.47 329.775 1034.77 357.729V357.729C1040.96 378.585 1036.38 401.155 1022.54 417.942L1018.34 423.033C994.408 452.066 994.682 494.068 1018.99 522.787L1020.76 524.869" stroke="#9A92F9" stroke-opacity="0.2" stroke-width="3"/>
<path d="M155.85 265.014C155.85 382.5 49.752 478.009 -81.4738 478.009C-212.7 478.009 -318.797 382.5 -318.797 265.014C-318.797 147.527 -212.7 52.0186 -81.4738 52.0186C49.752 52.0186 155.85 147.527 155.85 265.014Z" stroke="#EA716E" stroke-opacity="0.16" stroke-width="3"/>
<path d="M127.265 240.168C127.265 357.654 21.167 453.163 -110.059 453.163C-241.285 453.163 -347.382 357.654 -347.382 240.168C-347.382 122.681 -241.285 27.1729 -110.059 27.1729C21.167 27.1729 127.265 122.681 127.265 240.168Z" stroke="#EA716E" stroke-opacity="0.16" stroke-width="3"/>
<path d="M195.5 301.452C195.5 418.938 89.4024 514.447 -41.8234 514.447C-173.049 514.447 -279.147 418.938 -279.147 301.452C-279.147 183.966 -173.049 88.457 -41.8234 88.457C89.4024 88.457 195.5 183.966 195.5 301.452Z" stroke="#EA716E" stroke-opacity="0.16" stroke-width="3"/>
<path d="M93.1471 214.495C93.1471 331.981 -12.9507 427.49 -144.176 427.49C-275.402 427.49 -381.5 331.981 -381.5 214.495C-381.5 97.0086 -275.402 1.5 -144.176 1.5C-12.9507 1.5 93.1471 97.0086 93.1471 214.495Z" stroke="#EA716E" stroke-opacity="0.16" stroke-width="3"/>
<defs>
<linearGradient id="paint0_linear_1108_327" x1="0" y1="36.8232" x2="978.765" y2="1046.11" gradientUnits="userSpaceOnUse">
<stop stop-color="white"/>
<stop offset="1" stop-color="#FFCECE"/>
</linearGradient>
</defs>
</svg>
