<svg width="304" height="281" viewBox="0 0 304 281" fill="none" xmlns="http://www.w3.org/2000/svg">
<path d="M274.348 153.426H273.927V149.316L269.268 147.603L271.916 142.716C270.669 142.55 267.212 142.065 266.764 141.724L267.019 141.388C267.287 141.592 269.901 142.031 272.274 142.338L272.578 142.377L269.871 147.376L274.348 149.022V153.426ZM44.4548 73.271C43.7901 73.2709 43.1404 73.0736 42.5878 72.7039C42.0352 72.3342 41.6046 71.8088 41.3502 71.1941C41.0959 70.5794 41.0294 69.903 41.1591 69.2505C41.2887 68.5979 41.6088 67.9985 42.0788 67.528C42.5487 67.0576 43.1475 66.7372 43.7994 66.6074C44.4512 66.4775 45.1269 66.5441 45.7409 66.7987C46.355 67.0533 46.8798 67.4845 47.2491 68.0376C47.6184 68.5908 47.8156 69.2412 47.8156 69.9066C47.8146 70.7986 47.4602 71.6537 46.8302 72.2845C46.2001 72.9152 45.3458 73.27 44.4548 73.271ZM44.4548 66.9642C43.8734 66.9643 43.3051 67.1369 42.8217 67.4603C42.3383 67.7837 41.9616 68.2433 41.7392 68.781C41.5168 69.3187 41.4586 69.9104 41.5721 70.4812C41.6856 71.052 41.9656 71.5763 42.3767 71.9878C42.7878 72.3993 43.3116 72.6795 43.8819 72.793C44.4521 72.9065 45.0431 72.8481 45.5802 72.6254C46.1173 72.4026 46.5764 72.0254 46.8993 71.5414C47.2223 71.0575 47.3946 70.4885 47.3946 69.9066C47.3936 69.1264 47.0835 68.3785 46.5324 67.8269C45.9813 67.2753 45.2341 66.965 44.4548 66.9642ZM47.8866 65.9105C47.5933 65.9105 47.3066 65.8235 47.0627 65.6604C46.8188 65.4973 46.6287 65.2655 46.5164 64.9943C46.4041 64.7231 46.3747 64.4246 46.4318 64.1366C46.489 63.8486 46.6302 63.5841 46.8375 63.3764C47.0449 63.1688 47.3091 63.0273 47.5968 62.97C47.8844 62.9127 48.1826 62.942 48.4536 63.0543C48.7246 63.1666 48.9562 63.3568 49.1192 63.6009C49.2822 63.845 49.3692 64.132 49.3693 64.4256C49.3688 64.8192 49.2125 65.1965 48.9346 65.4749C48.6566 65.7532 48.2798 65.9099 47.8866 65.9105ZM47.8866 63.3629C47.6766 63.3629 47.4713 63.4251 47.2966 63.5419C47.1219 63.6587 46.9858 63.8247 46.9054 64.0189C46.8249 64.2132 46.8039 64.4269 46.8448 64.6331C46.8858 64.8394 46.9869 65.0288 47.1354 65.1775C47.2839 65.3262 47.4731 65.4275 47.6791 65.4685C47.8851 65.5095 48.0986 65.4885 48.2926 65.4081C48.4867 65.3276 48.6526 65.1914 48.7693 65.0165C48.886 64.8417 48.9482 64.6362 48.9482 64.4259C48.9479 64.1441 48.836 63.874 48.637 63.6747C48.438 63.4754 48.1681 63.3633 47.8866 63.3629Z" fill="#7764F0"/>
<path d="M17.6842 261.119H289.404V261.541H17.6842V261.119Z" fill="#120085"/>
<path d="M259.57 261.118L259.305 260.791C263.655 257.254 263.773 250.771 263.543 244.972C263.304 238.965 263.677 232.365 268.258 228.95C269.14 228.332 270.076 227.793 271.053 227.341C271.701 227.018 272.371 226.685 272.993 226.305C278.801 222.761 280.661 215.462 281.2 209.964C281.256 209.391 281.303 208.815 281.35 208.24C281.52 206.141 281.697 203.971 282.342 201.926C283.285 198.94 285.241 196.686 287.574 195.897C287.684 195.86 287.796 195.826 287.908 195.791C288.257 195.704 288.59 195.564 288.897 195.378C289.818 194.745 289.842 193.288 289.287 192.377C288.783 191.549 287.891 190.911 286.477 190.37C283.672 189.329 280.631 189.095 277.699 189.694C274.768 190.292 272.062 191.7 269.887 193.758C267.233 196.324 265.485 199.813 263.794 203.187C261.543 207.68 259.215 212.326 254.739 214.635C253.097 215.482 251.416 216.148 249.79 216.792C248.015 217.458 246.279 218.224 244.59 219.085C243.623 219.638 242.774 220.377 242.093 221.259L241.766 220.994C242.483 220.068 243.375 219.293 244.392 218.713C246.095 217.844 247.845 217.072 249.635 216.4C251.251 215.76 252.922 215.098 254.546 214.26C258.9 212.014 261.094 207.635 263.418 202.998C265.124 199.592 266.889 196.071 269.595 193.455C271.827 191.342 274.605 189.896 277.615 189.282C280.625 188.667 283.747 188.908 286.628 189.977C287.575 190.339 288.918 190.96 289.647 192.157C290.313 193.253 290.267 194.948 289.135 195.726C288.793 195.937 288.421 196.095 288.032 196.194C287.924 196.227 287.816 196.261 287.709 196.297C285.502 197.043 283.646 199.195 282.743 202.053C282.112 204.053 281.938 206.199 281.769 208.274C281.722 208.852 281.675 209.43 281.619 210.005C281.071 215.599 279.168 223.031 273.212 226.665C272.574 227.054 271.896 227.392 271.241 227.719C270.286 228.16 269.372 228.685 268.509 229.288C264.086 232.586 263.729 239.058 263.964 244.955C264.198 250.856 264.071 257.458 259.57 261.118Z" fill="#7764F0"/>
<path d="M249.84 259.281C247.638 248.737 245.973 237.744 251.764 229.407C253.821 226.445 256.697 224.11 259.477 221.853C262.727 219.215 266.087 216.487 268.055 212.784C269.16 210.706 269.788 208.376 270.396 206.123C270.833 204.354 271.383 202.616 272.044 200.918C273.682 196.965 277.265 193.213 281.574 193.749L281.522 194.167C277.454 193.664 273.959 197.397 272.433 201.079C271.78 202.76 271.235 204.482 270.803 206.233C270.189 208.508 269.554 210.861 268.427 212.982C266.418 216.76 263.025 219.516 259.743 222.18C256.985 224.419 254.133 226.735 252.11 229.648C246.414 237.847 248.069 248.74 250.252 259.195L249.84 259.281ZM270.136 251.711C269.92 251.711 269.785 251.706 269.747 251.705L269.518 251.697L269.546 251.469C270.67 242.181 279.103 231.615 288.287 231.895L288.53 231.902L288.488 232.142C288.407 232.604 286.463 243.496 282.254 247.71C278.505 251.463 271.832 251.711 270.136 251.711ZM269.993 251.287H270.029C271.462 251.287 278.285 251.087 281.956 247.412C285.732 243.632 287.713 233.966 288.028 232.311L287.917 232.311C279.164 232.311 271.191 242.354 269.993 251.287L269.993 251.287Z" fill="#7764F0"/>
<path d="M267.95 259.021L267.537 258.935C270.738 243.467 282.45 237.042 282.567 236.979L282.766 237.35C282.65 237.412 271.109 243.753 267.949 259.021H267.95ZM48.2861 261.296C44.0466 260.95 39.2419 260.557 35.2635 258.247C31.5692 256.102 28.3658 251.374 29.7056 246.836C30.1746 245.247 31.1372 243.86 32.0683 242.52C33.0423 241.117 34.0497 239.666 34.4506 238.016C35.4333 233.968 32.612 230.027 30.0725 227.433C29.5035 226.852 28.9014 226.27 28.3192 225.707C25.9675 223.435 23.536 221.084 22.4037 217.99C20.5278 212.863 22.736 207.146 24.5104 202.553C26.3745 197.727 28.1791 192.182 25.9821 187.437C25.6514 186.758 25.2829 186.098 24.8784 185.46C24.3274 184.616 23.8591 183.721 23.4799 182.787C22.8739 181.147 22.9202 178.86 24.4534 177.716C25.5838 176.873 27.1102 176.957 28.16 177.093C32.3515 177.658 36.2006 179.712 39.005 182.881C43.2205 187.691 43.7101 194.303 44.1839 200.696C44.6468 206.945 45.1254 213.407 49.1007 218.13C51.0507 220.447 53.7805 223.228 56.1892 225.683C56.8391 226.345 57.4625 226.981 58.0368 227.572C59.2226 228.84 60.1358 230.339 60.7198 231.975L60.3262 232.124C59.7624 230.542 58.8804 229.093 57.7348 227.866C57.1211 227.235 56.5057 226.606 55.8886 225.978C53.4746 223.518 50.7391 220.731 48.7787 218.402C44.7156 213.575 44.2316 207.043 43.7637 200.727C43.2952 194.403 42.811 187.863 38.6886 183.159C35.9519 180.066 32.1959 178.062 28.1059 177.511C26.5527 177.31 25.4718 177.482 24.7052 178.055C23.3454 179.069 23.3216 181.143 23.8749 182.641C24.2453 183.549 24.7018 184.42 25.2379 185.241C25.6511 185.892 26.0272 186.567 26.3647 187.26C28.6308 192.154 26.7986 197.799 24.9033 202.706C23.1546 207.233 20.9777 212.867 22.7992 217.846C23.8981 220.849 26.2945 223.165 28.612 225.404C29.1964 225.969 29.8005 226.553 30.3731 227.138C32.9878 229.808 35.8886 233.88 34.8596 238.116C34.4405 239.843 33.4103 241.326 32.4146 242.761C31.5024 244.074 30.5595 245.432 30.1098 246.956C28.8306 251.287 31.9195 255.819 35.4749 257.883C39.371 260.145 44.1255 260.534 48.3206 260.877L48.2861 261.296Z" fill="#7764F0"/>
<path d="M52.4472 256.29L52.0267 256.272C52.5174 244.959 51.9706 230.839 43.3115 221.993C42.3495 221.01 41.2736 220.079 40.2327 219.178C37.86 217.125 35.4063 215.001 34.1056 212.103C32.4214 208.35 32.9988 203.972 33.7856 200.184C33.8925 199.668 34.0042 199.152 34.1162 198.634C34.843 195.273 35.5947 191.798 35.0737 188.403C34.5106 184.735 31.767 180.673 27.7917 180.369L27.8235 179.948C32.016 180.269 34.9025 184.51 35.49 188.339C36.0228 191.811 35.2626 195.325 34.5277 198.723C34.4156 199.238 34.3056 199.754 34.1976 200.269C33.4246 203.991 32.8548 208.287 34.4899 211.93C35.7522 214.744 38.1699 216.836 40.5081 218.859C41.5551 219.766 42.6381 220.703 43.6127 221.697C52.3846 230.659 52.9415 244.892 52.4472 256.29ZM250.691 51.2366L246.991 42.04L257.392 45.0487L250.691 51.2366ZM247.704 42.6849L250.854 50.5127L256.558 45.246L247.704 42.6849ZM263.59 49.8513L259.512 48.7708L263.308 45.0653L263.59 49.8513ZM260.337 48.5533L263.135 49.2949L262.942 46.0114L260.337 48.5533ZM40.5777 168.318L43.12 161.841L48.7144 166.92L40.5777 168.318ZM43.289 162.563L41.2427 167.776L47.7912 166.651L43.289 162.563ZM116.733 249.047L116.312 249.047C116.312 248.973 116.371 241.595 120.58 232.539C124.463 224.187 132.771 212.649 150.303 205.112L150.592 204.988L150.597 205.303C150.601 205.526 150.817 227.814 138.374 240.046C138.065 240.35 137.758 240.645 137.454 240.932L137.165 240.626C137.467 240.34 137.772 240.047 138.079 239.745C149.584 228.435 150.154 208.39 150.176 205.627C132.974 213.108 124.802 224.465 120.971 232.699C116.795 241.673 116.733 248.975 116.733 249.047Z" fill="#7764F0"/>
<path d="M115.19 261.394L114.776 261.312C117.195 248.987 125.195 237.172 131.48 229.43C135.515 224.44 139.923 219.766 144.668 215.447L144.944 215.765C144.693 215.984 119.787 237.961 115.19 261.394H115.19ZM126.843 260.416C125.903 260.414 124.964 260.335 124.036 260.179L124.105 259.763C130.032 260.745 135.027 258.688 138.953 253.649C140.728 251.32 142.107 248.714 143.036 245.936C134.919 244.704 129.458 247.747 126.295 250.534C124.22 252.351 122.519 254.555 121.287 257.022L120.902 256.851C122.16 254.329 123.897 252.076 126.016 250.218C129.279 247.343 134.933 244.2 143.343 245.558L143.577 245.595L143.512 245.823C142.575 248.736 141.148 251.467 139.293 253.898C136.881 256.998 132.856 260.416 126.843 260.416ZM106.015 260.015L105.634 259.835C112.366 245.586 117.031 231.748 119.498 218.704L119.912 218.782C117.438 231.862 112.762 245.734 106.015 260.015ZM98.7368 259.932L98.3158 259.917C98.8744 244.253 101.311 229.918 105.362 218.462L105.759 218.602C101.722 230.019 99.2938 244.311 98.7368 259.932Z" fill="#7764F0"/>
<path d="M148.502 6.07422L148.721 5.71387L194.367 33.4398L194.148 33.8001L148.502 6.07422Z" fill="#120085"/>
<path d="M75.4299 62.5947L109.342 6.55978L109.702 6.77818L75.7901 62.8131L75.4299 62.5947Z" fill="#120085"/>
<path d="M150.192 108.006L149.831 107.788L164.374 83.7948C165.486 81.9612 167.279 80.6446 169.36 80.1347C171.441 79.6248 173.639 79.9633 175.471 81.0758C176.873 81.9352 177.984 83.197 178.659 84.6971C179.576 86.7073 181.119 88.3657 183.057 89.4238C185.383 90.6717 188.096 90.9868 190.645 90.305C193.194 89.6233 195.389 87.9958 196.783 85.7531C197.76 84.1473 198.28 82.304 198.285 80.4234C198.29 78.5427 197.781 76.6966 196.812 75.0856C195.842 73.4745 194.451 72.16 192.788 71.2849C191.125 70.4098 189.255 70.0074 187.379 70.1216C185.775 70.2098 184.183 69.8034 182.817 68.9571C180.985 67.8445 179.67 66.0491 179.161 63.9657C178.651 61.8824 178.99 59.6818 180.101 57.8481L194.644 33.8555L195.004 34.0738L180.461 58.0667C179.408 59.8048 179.087 61.8905 179.57 63.8651C180.053 65.8398 181.299 67.5416 183.035 68.5963C184.328 69.3985 185.835 69.784 187.354 69.7007C189.305 69.5821 191.252 70.0011 192.983 70.9122C194.714 71.8232 196.163 73.1915 197.171 74.8685C198.18 76.5454 198.711 78.467 198.706 80.4246C198.7 82.3821 198.16 84.3009 197.142 85.9725C195.691 88.307 193.407 90.0011 190.753 90.7107C188.099 91.4203 185.275 91.0923 182.854 89.7933C180.837 88.6919 179.231 86.9655 178.276 84.873C177.636 83.45 176.583 82.2528 175.254 81.4372C173.517 80.3842 171.434 80.0641 169.462 80.5471C167.49 81.0301 165.789 82.2767 164.734 84.0134L150.192 108.006ZM108.349 176.955L107.987 176.739L118.684 158.748C119.736 157.01 120.056 154.925 119.573 152.95C119.091 150.976 117.846 149.274 116.111 148.217C114.819 147.415 113.312 147.029 111.793 147.113C109.841 147.232 107.894 146.813 106.163 145.902C104.433 144.991 102.984 143.622 101.975 141.945C100.966 140.268 100.436 138.347 100.441 136.389C100.446 134.432 100.987 132.513 102.004 130.841C103.455 128.506 105.74 126.812 108.394 126.103C111.047 125.393 113.871 125.721 116.292 127.02C118.31 128.122 119.916 129.848 120.87 131.941C121.51 133.364 122.563 134.561 123.892 135.377C125.629 136.429 127.712 136.749 129.685 136.266C131.657 135.783 133.357 134.537 134.412 132.8L148.955 108.807L149.315 109.026L134.772 133.019C133.661 134.852 131.868 136.169 129.786 136.679C127.705 137.189 125.507 136.85 123.675 135.738C122.274 134.878 121.163 133.617 120.488 132.116C119.571 130.106 118.027 128.448 116.089 127.39C113.764 126.142 111.051 125.826 108.501 126.508C105.952 127.19 103.758 128.818 102.364 131.061C101.386 132.666 100.866 134.51 100.861 136.39C100.856 138.271 101.366 140.117 102.335 141.728C103.304 143.339 104.696 144.654 106.359 145.529C108.021 146.404 109.892 146.806 111.767 146.692C113.371 146.604 114.964 147.011 116.33 147.857C118.159 148.971 119.473 150.767 119.982 152.849C120.491 154.932 120.154 157.131 119.046 158.966L108.349 176.955Z" fill="#120085"/>
<path d="M154.527 111.532L125.177 93.7043C123.345 92.5917 122.03 90.7963 121.52 88.7129C121.011 86.6296 121.349 84.429 122.461 82.5953C123.319 81.1923 124.579 80.0804 126.077 79.4045C128.086 78.4865 129.742 76.9415 130.799 75.0013C132.046 72.6732 132.361 69.9574 131.68 67.4055C130.999 64.8535 129.373 62.6568 127.132 61.2615C125.528 60.2826 123.687 59.7623 121.808 59.7572C119.93 59.752 118.085 60.2623 116.476 61.2325C114.867 62.2027 113.554 63.5957 112.679 65.2603C111.805 66.925 111.403 68.7975 111.517 70.6747C111.606 72.2803 111.2 73.8745 110.354 75.2415C109.243 77.0751 107.449 78.3916 105.368 78.9014C103.287 79.4113 101.089 79.0727 99.2572 77.9602L75.2898 63.4024L75.5079 63.0419L99.4753 77.5997C101.212 78.6522 103.295 78.9719 105.267 78.4889C107.239 78.0058 108.939 76.7593 109.994 75.0229C110.796 73.7292 111.181 72.2203 111.097 70.7003C110.979 68.7463 111.397 66.7973 112.307 65.0647C113.218 63.3321 114.584 61.8821 116.259 60.8722C117.935 59.8624 119.854 59.3311 121.81 59.3363C123.765 59.3414 125.682 59.8826 127.352 60.9012C129.684 62.3538 131.376 64.6407 132.085 67.2972C132.794 69.9537 132.466 72.7808 131.168 75.2041C130.068 77.2238 128.343 78.832 126.253 79.7875C124.832 80.4283 123.636 81.4824 122.821 82.8128C121.77 84.5515 121.45 86.6367 121.933 88.6111C122.415 90.5854 123.66 92.2875 125.395 93.3438L154.745 111.172L154.527 111.532ZM239.5 129.926L239.14 129.707L239.432 129.227L239.791 129.446L239.5 129.926ZM240.665 128.004L240.305 127.786L240.596 127.305L240.956 127.524L240.665 128.004ZM241.83 126.082L241.47 125.864L241.761 125.383L242.122 125.602L241.83 126.082ZM242.995 124.161L242.635 123.942L242.926 123.461L243.286 123.68L242.995 124.161ZM244.16 122.238L243.8 122.02L244.091 121.54L244.451 121.758L244.16 122.238ZM245.325 120.317L244.964 120.098L245.256 119.617L245.616 119.837L245.325 120.317ZM246.49 118.395L246.13 118.176L246.421 117.696L246.781 117.914L246.49 118.395ZM247.655 116.473L247.295 116.254L247.586 115.774L247.946 115.993L247.655 116.473ZM248.82 114.551L248.459 114.333L248.751 113.852L249.111 114.07L248.82 114.551ZM249.985 112.629L249.624 112.411L249.915 111.93L250.276 112.149L249.985 112.629ZM251.149 110.707L250.789 110.488L251.081 110.008L251.441 110.227L251.149 110.707ZM252.314 108.785L251.954 108.567L252.245 108.086L252.605 108.305L252.314 108.785ZM253.479 106.864L253.119 106.645L253.411 106.164L253.771 106.383L253.479 106.864ZM254.644 104.942L254.284 104.723L254.575 104.243L254.935 104.461L254.644 104.942ZM255.809 103.02L255.449 102.801L255.74 102.32L256.1 102.54L255.809 103.02ZM256.974 101.098L256.614 100.879L256.905 100.399L257.265 100.617L256.974 101.098ZM258.139 99.176L257.779 98.9576L258.07 98.4771L258.43 98.6955L258.139 99.176ZM259.304 97.2542L258.944 97.0353L259.235 96.5548L259.595 96.774L259.304 97.2542ZM260.469 95.3322L260.109 95.1136L260.4 94.6333L260.76 94.852L260.469 95.3322ZM261.633 93.4107L261.274 93.1915L261.565 92.711L261.924 92.9302L261.633 93.4107ZM262.799 91.4884L262.438 91.27L262.73 90.7895L263.09 91.0079L262.799 91.4884ZM263.963 89.5666L263.603 89.3483L263.894 88.8678L264.255 89.0861L263.963 89.5666ZM265.128 87.6446L264.768 87.4263L265.059 86.9457L265.419 87.1641L265.128 87.6446ZM266.293 85.7228L265.933 85.5045L266.224 85.024L266.584 85.2423L266.293 85.7228ZM267.458 83.8013L267.098 83.5822L267.389 83.1017L267.749 83.3208L267.458 83.8013ZM268.623 81.879L268.263 81.6604L268.554 81.1802L268.914 81.3988L268.623 81.879ZM269.788 79.9575L269.428 79.7387L269.631 79.4026L269.667 79.4242L269.777 79.2444L270.1 79.4411L269.788 79.9575ZM268.118 78.7301L267.638 78.4387L267.856 78.0779L268.336 78.3693L268.118 78.7301ZM266.198 77.564L265.718 77.272L265.937 76.9118L266.417 77.2035L266.198 77.564ZM264.278 76.3978L263.798 76.1064L264.017 75.7459L264.497 76.0373L264.278 76.3978ZM262.358 75.2317L261.878 74.94L262.097 74.5795L262.577 74.8709L262.358 75.2317ZM260.438 74.0655L259.958 73.7736L260.177 73.4133L260.657 73.7053L260.438 74.0655ZM258.518 72.8994L258.039 72.608L258.257 72.2472L258.737 72.5386L258.518 72.8994ZM256.598 71.7332L256.118 71.4413L256.337 71.081L256.817 71.3727L256.598 71.7332ZM254.679 70.5671L254.199 70.2757L254.417 69.9152L254.897 70.2066L254.679 70.5671ZM252.759 69.4009L252.279 69.1093L252.498 68.749L252.978 69.0407L252.759 69.4009ZM250.839 68.2348L250.359 67.9434L250.578 67.5829L251.058 67.8743L250.839 68.2348ZM248.92 67.0686L248.44 66.7772L248.658 66.4164L249.138 66.7078L248.92 67.0686ZM247 65.9025L246.52 65.6111L246.738 65.2506L247.218 65.542L247 65.9025ZM245.08 64.7363L244.6 64.4449L244.818 64.0844L245.298 64.3758L245.08 64.7363ZM243.16 63.5702L242.68 63.2785L242.898 62.9183L243.379 63.2099L243.16 63.5702ZM241.24 62.404L240.76 62.1126L240.978 61.7521L241.458 62.0435L241.24 62.404ZM239.32 61.2379L238.84 60.9465L239.059 60.586L239.539 60.8776L239.32 61.2379ZM237.4 60.0717L236.92 59.7803L237.139 59.4198L237.619 59.7112L237.4 60.0717ZM235.48 58.9056L235 58.6139L235.219 58.2537L235.699 58.5453L235.48 58.9056ZM233.561 57.7394L233.081 57.448L233.299 57.0875L233.779 57.3789L233.561 57.7394ZM231.641 56.5733L231.161 56.2819L231.379 55.9214L231.859 56.2128L231.641 56.5733ZM229.721 55.4071L229.241 55.116L229.459 54.7552L229.939 55.0466L229.721 55.4071ZM227.801 54.241L227.321 53.9496L227.539 53.5891L228.019 53.8805L227.801 54.241ZM225.881 53.0748L225.401 52.7832L225.62 52.4229L226.1 52.7146L225.881 53.0748ZM223.962 51.9087L223.482 51.6173L223.7 51.2568L224.18 51.5482L223.962 51.9087ZM222.042 50.7425L221.562 50.4509L221.78 50.0909L222.26 50.3826L222.042 50.7425ZM220.122 49.5764L219.642 49.2853L219.86 48.9245L220.34 49.2159L220.122 49.5764ZM218.202 48.4105L217.722 48.1188L217.941 47.7586L218.42 48.0503L218.202 48.4105ZM216.282 47.2444L215.802 46.953L216.02 46.5922L216.5 46.8838L216.282 47.2444ZM214.362 46.0782L213.882 45.7865L214.1 45.426L214.58 45.7174L214.362 46.0782ZM212.442 44.9121L211.962 44.6201L212.181 44.2601L212.661 44.5518L212.442 44.9121ZM210.523 43.7459L210.043 43.4545L210.261 43.0937L210.741 43.3851L210.523 43.7459ZM208.603 42.5798L208.123 42.2881L208.341 41.9278L208.821 42.2195L208.603 42.5798ZM206.683 41.4136L206.203 41.1222L206.421 40.7614L206.901 41.0531L206.683 41.4136ZM204.763 40.2475L204.283 39.9555L204.502 39.5953L204.982 39.8869L204.763 40.2475ZM202.843 39.0813L202.363 38.7899L202.582 38.4294L203.062 38.7208L202.843 39.0813ZM200.923 37.9152L200.443 37.6235L200.662 37.2632L201.142 37.5546L200.923 37.9152ZM199.003 36.749L198.524 36.4576L198.742 36.0971L199.222 36.3885L199.003 36.749ZM197.084 35.5829L196.604 35.2915L196.822 34.9307L197.302 35.2223L197.084 35.5829Z" fill="#120085"/>
<path d="M64.9053 159.152L64.4253 158.861L64.644 158.501L65.124 158.792L64.9053 159.152ZM62.9859 157.986L62.5059 157.695L62.724 157.334L63.204 157.626L62.9859 157.986ZM61.0659 156.82L60.5859 156.529L60.804 156.168L61.284 156.459L61.0659 156.82ZM59.1459 155.654L58.6659 155.363L58.884 155.002L59.364 155.294L59.1459 155.654ZM57.2262 154.488L56.7462 154.196L56.9645 153.836L57.4445 154.127L57.2262 154.488ZM55.3062 153.322L54.8262 153.03L55.0448 152.67L55.5248 152.962L55.3062 153.322ZM53.3867 152.155L52.9067 151.864L53.1248 151.503L53.6048 151.795L53.3867 152.155ZM51.4664 150.99L50.9864 150.698L51.2051 150.338L51.6851 150.629L51.4664 150.99ZM49.5464 149.823L49.0664 149.532L49.2848 149.171L49.7648 149.463L49.5464 149.823ZM47.6264 148.657L47.1467 148.365L47.3657 148.005L47.8457 148.297L47.6264 148.657ZM45.707 147.491L45.227 147.2L45.4451 146.839L45.9251 147.131L45.707 147.491ZM43.787 146.325L43.307 146.033L43.526 145.673L44.0059 145.964L43.787 146.325ZM41.8673 145.159L41.3873 144.867L41.6057 144.507L42.0857 144.798L41.8673 145.159ZM39.9473 143.993L39.4673 143.701L39.6859 143.341L40.166 143.632L39.9473 143.993ZM38.0278 142.826L37.5478 142.535L37.766 142.175L38.246 142.466L38.0278 142.826ZM36.1076 141.66L35.6276 141.369L35.8465 141.008L36.3265 141.3L36.1076 141.66ZM34.1881 140.494L33.7081 140.203L33.9262 139.842L34.4062 140.134L34.1881 140.494ZM32.2681 139.328L31.7881 139.037L32.0065 138.676L32.4865 138.968L32.2681 139.328ZM30.3481 138.162L29.8019 137.83L29.9798 137.536L30.1598 137.646L30.2005 137.579L30.5668 137.802L30.3481 138.162ZM31.2138 136.313L30.8537 136.095L31.1448 135.614L31.5049 135.833L31.2138 136.313ZM32.3784 134.391L32.0183 134.173L32.3099 133.692L32.6698 133.911L32.3784 134.391ZM33.5436 132.469L33.1835 132.251L33.4746 131.771L33.8347 131.989L33.5436 132.469ZM34.7085 130.548L34.3484 130.329L34.6398 129.848L34.9999 130.067L34.7085 130.548ZM35.8735 128.626L35.5133 128.408L35.8044 127.927L36.1645 128.145L35.8735 128.626ZM37.0378 126.704L36.6782 126.485L36.9696 126.005L37.3292 126.224L37.0378 126.704ZM38.2033 124.782L37.8429 124.563L38.1342 124.083L38.4944 124.302L38.2033 124.782ZM39.3682 122.86L39.0081 122.642L39.2991 122.161L39.6593 122.38L39.3682 122.86ZM40.5331 120.938L40.1727 120.72L40.4638 120.239L40.8242 120.458L40.5331 120.938ZM41.698 119.017L41.3379 118.798L41.629 118.317L41.9891 118.536L41.698 119.017ZM42.8624 117.095L42.5028 116.876L42.7942 116.395L43.1537 116.614L42.8624 117.095ZM44.0278 115.173L43.6674 114.954L43.9588 114.474L44.3189 114.692L44.0278 115.173ZM45.1922 113.251L44.8323 113.032L45.1237 112.552L45.4836 112.771L45.1922 113.251ZM46.3574 111.329L45.9972 111.11L46.2883 110.63L46.6488 110.848L46.3574 111.329ZM47.5223 109.407L47.1624 109.188L47.4538 108.708L47.8137 108.927L47.5223 109.407ZM48.6872 107.485L48.3271 107.267L48.6182 106.786L48.9783 107.005L48.6872 107.485ZM49.8521 105.564L49.492 105.344L49.7836 104.864L50.1429 105.083L49.8521 105.564ZM51.017 103.642L50.6569 103.423L50.948 102.942L51.3081 103.161L51.017 103.642ZM52.1819 101.72L51.8218 101.501L52.1129 101.021L52.4733 101.239L52.1819 101.72ZM53.3469 99.7975L52.9867 99.5792L53.2778 99.0987L53.638 99.317L53.3469 99.7975ZM54.5118 97.8755L54.1516 97.6572L54.4427 97.1766L54.8029 97.395L54.5118 97.8755ZM55.6767 95.9543L55.3165 95.7351L55.6079 95.2546L55.9678 95.4738L55.6767 95.9543ZM56.8416 94.032L56.4815 93.8133L56.7725 93.3328L57.1327 93.5515L56.8416 94.032ZM58.0059 92.1105L57.6461 91.8913L57.9375 91.4108L58.2976 91.63L58.0059 92.1105ZM59.1714 90.1884L58.8113 89.9698L59.1024 89.4893L59.4625 89.7077L59.1714 90.1884ZM60.3358 88.2664L59.9762 88.0472L60.2676 87.5673L60.6271 87.7865L60.3358 88.2664ZM61.5013 86.3444L61.1408 86.126L61.4322 85.6455L61.7923 85.8639L61.5013 86.3444ZM62.6662 84.4223L62.306 84.204L62.5971 83.7235L62.9572 83.9421L62.6662 84.4223ZM63.8311 82.5008L63.4707 82.2822L63.7617 81.8017L64.1222 82.0203L63.8311 82.5008ZM64.996 80.5788L64.6358 80.3602L64.9269 79.8797L65.2871 80.0983L64.996 80.5788ZM66.1603 78.6573L65.8005 78.4382L66.0924 77.9576L66.452 78.1768L66.1603 78.6573ZM67.3258 76.7353L66.9654 76.5167L67.2568 76.0362L67.6169 76.2545L67.3258 76.7353ZM68.4907 74.8132L68.1306 74.5941L68.422 74.1138L68.7818 74.333L68.4907 74.8132ZM69.6556 72.8912L69.2952 72.6729L69.5863 72.1924L69.9467 72.4107L69.6556 72.8912ZM70.82 70.9695L70.4604 70.7506L70.7515 70.27L71.1114 70.4892L70.82 70.9695ZM71.9852 69.0474L71.625 68.8291L71.9161 68.3486L72.2763 68.5672L71.9852 69.0474ZM73.1501 67.1254L72.7899 66.907L73.0813 66.4265L73.4415 66.6451L73.1501 67.1254ZM74.315 65.2036L73.9549 64.9853L74.2459 64.5048L74.6061 64.7234L74.315 65.2036ZM75.4799 63.2819L75.1198 63.0635L75.4109 62.583L75.7713 62.8013L75.4799 63.2819Z" fill="#120085"/>
<path d="M115.661 178.366L112.984 178.766L113.041 178.041C113.041 178.041 115.169 177.806 115.424 177.843C115.68 177.88 116.018 178.101 115.661 178.366Z" fill="#8F7DFF"/>
<path d="M113.535 180.01L113.627 178.241L111.745 177.581L110.872 178.078C110.796 178.121 110.735 178.186 110.696 178.264C110.657 178.342 110.642 178.43 110.653 178.516L110.88 180.261C110.891 180.356 110.934 180.444 111 180.512C111.067 180.581 111.154 180.625 111.248 180.64C111.725 180.711 112.453 180.755 113.536 180.01H113.535Z" fill="#8F7DFF"/>
<path d="M110.665 178.605L108.897 178.509L109.061 180.252L111.295 179.991L110.665 178.605ZM111.978 178.232C111.978 178.232 113.089 178.516 113.4 178.322C113.491 178.262 113.564 178.179 113.613 178.081C113.661 177.984 113.683 177.875 113.676 177.767L111.745 177.581C111.745 177.581 111.505 178.133 111.978 178.232Z" fill="#8F7DFF"/>
<path d="M77.7352 156.917C77.9657 156.544 89.3116 169.526 93.3012 172.59C101.177 175.437 109.972 178.076 109.972 178.076L109.254 182.557C109.254 182.557 93.9842 183.237 89.4332 181.639C82.9675 178.347 74.3732 172.099 74.3732 172.099C74.3732 172.099 73.7812 163.324 77.7352 156.917Z" fill="url(#paint0_linear_1108_451)"/>
<path d="M204.875 166.058L204.952 164.562L202.927 164.859L202.756 166.322L204.875 166.058Z" fill="#8F7DFF"/>
<path d="M203.314 164.975L202.927 164.859C202.927 164.859 198.185 164.56 197.794 164.382C197.403 164.204 197.32 164.809 197.758 164.928C198.196 165.046 200.921 165.58 201.217 166.007C201.513 166.433 200.672 166.706 200.506 166.849C200.34 166.991 200.471 167.204 201.11 167.038C201.68 166.851 202.231 166.612 202.756 166.322L203.314 164.975Z" fill="#8F7DFF"/>
<path d="M228.702 149.06C222.564 152.555 219.364 159.781 216.824 163.287C213.185 163.287 204.26 164.455 204.26 164.455L204.603 167.479C204.603 167.479 212.729 168.794 217.053 168.804C217.625 168.804 218.192 168.682 218.714 168.447C222.024 166.911 225.088 164.894 227.809 162.462C227.809 162.462 230.824 152.871 228.702 149.06Z" fill="url(#paint1_linear_1108_451)"/>
<path fill-rule="evenodd" clip-rule="evenodd" d="M215.565 132.819C213.974 135.499 211.418 137.327 208.391 138.23C206.792 138.724 205.433 139.793 204.574 141.23C202.873 144.097 203.567 147.752 206.031 150.086L224.675 161.141L231.139 164.885L231.022 164.904L231.125 164.965L179.252 252.984L154.337 237.28C150.754 235.163 149.457 230.721 151.44 227.359C152.292 225.921 153.645 224.849 155.239 224.349C158.261 223.442 160.819 221.604 162.405 218.915C166.305 212.299 162.854 203.028 154.697 198.208C146.539 193.388 136.762 194.843 132.862 201.459C131.279 204.144 130.908 207.267 131.571 210.357C131.907 211.998 131.624 213.705 130.777 215.15C128.795 218.512 124.283 219.523 120.701 217.406L97.7636 203.854L113.625 176.952C115.713 173.371 114.701 168.876 111.352 166.898C109.912 166.052 108.21 165.768 106.573 166.101C103.489 166.769 100.363 166.398 97.6758 164.81C91.0675 160.906 89.6134 151.119 94.428 142.953C99.2432 134.787 108.505 131.331 115.113 135.236C117.795 136.821 119.628 139.375 120.539 142.402C121.037 144.001 122.109 145.359 123.547 146.214C126.896 148.193 131.316 146.908 133.439 143.347L149.163 116.677L149.062 116.477L149.224 116.574L149.3 116.446L175.292 131.859C178.567 133.018 182.213 131.885 183.948 128.963C184.797 127.523 185.085 125.82 184.756 124.181C184.1 121.091 184.479 117.963 186.072 115.278C189.992 108.674 199.772 107.247 207.915 112.09C216.059 116.933 219.484 126.215 215.565 132.819H215.565Z" fill="url(#paint2_linear_1108_451)"/>
<path d="M238.467 255.94L237.762 257.238V260.356L238.467 260.455L239.186 260.259L239.263 257.238L238.467 255.94Z" fill="#7C68FF"/>
<path d="M237.762 259.638C238.036 259.889 238.131 260.116 238.438 260.116H238.454C238.809 260.116 238.975 259.938 239.263 259.638C239.519 259.887 239.737 260.173 239.909 260.486C239.996 260.706 239.96 261.33 239.862 261.33H237.163C237.064 261.33 237.029 260.706 237.116 260.486C237.296 260.178 237.513 259.893 237.762 259.638Z" fill="#0B0053"/>
<path d="M216.54 253.285L215.835 254.583L214.334 259.816L215.039 260.455L215.776 259.58L217.336 254.583L216.54 253.285Z" fill="#7C68FF"/>
<path d="M215.051 259.859L214.334 259.816C214.334 259.816 211.734 260.076 210.369 260.813C210.316 260.842 210.274 260.889 210.25 260.946C210.226 261.002 210.222 261.065 210.237 261.124C210.253 261.183 210.287 261.235 210.336 261.272C210.384 261.31 210.444 261.33 210.505 261.33H215.775V259.58L215.051 259.859Z" fill="#0B0053"/>
<path d="M217.092 171.025L217.404 172.491L215.358 172.517L214.958 171.099L217.092 171.025Z" fill="#8F7DFF"/>
<path d="M215.721 172.342L215.358 172.518C215.358 172.518 210.722 173.562 210.364 173.799C210.006 174.037 209.828 173.452 210.243 173.266C210.657 173.08 213.263 172.122 213.488 171.654C213.713 171.186 212.84 171.049 212.654 170.935C212.468 170.821 212.562 170.589 213.22 170.652C213.812 170.747 214.394 170.897 214.958 171.099L215.721 172.342Z" fill="#8F7DFF"/>
<path d="M237.934 132.947C242.197 132.947 248.893 140.215 248.893 148.495C248.893 169.323 259.381 169.665 259.381 174.872C259.381 180.079 254.777 180.847 251.622 180.847C248.466 180.847 242.071 171.884 242.071 171.884L241.815 150.458L237.934 132.947Z" fill="#08003D"/>
<path d="M232.741 137.715C238.106 137.715 239.757 140.452 239.757 146.185C239.757 152.227 233.646 157.503 233.646 167.986C233.646 180.527 239.295 194.611 254.203 194.611C260.78 194.611 263.348 191.977 263.348 188.779C263.348 181.505 245.872 180.439 245.872 161.815C245.872 155.419 246.937 151.218 246.937 146.076C246.937 140.934 244.243 132.72 236.413 132.72C228.583 132.72 232.741 137.715 232.741 137.715V137.715Z" fill="url(#paint3_linear_1108_451)"/>
<path d="M225.488 173.985C219.563 190.151 219.862 206.137 219.276 220.788C218.69 235.44 214.916 257.879 214.916 257.879L216.234 258.042C216.234 258.042 231.142 240.324 225.576 221.765C225.576 221.765 236.052 206.195 236.052 187.473C236.052 168.751 228.052 170.554 225.488 173.985Z" fill="url(#paint4_linear_1108_451)"/>
<path d="M230.29 174.216L231.63 222.197L237.762 257.396H239.263C239.263 257.396 244.137 228.201 238.734 218.417C249.04 197.513 243.766 175.539 237.862 170.536C231.958 165.532 230.29 174.216 230.29 174.216Z" fill="url(#paint5_linear_1108_451)"/>
<path d="M237.264 172.19L237.251 172.181C233.389 173.12 229.453 173.724 225.488 173.985C223.163 170.821 221.964 165.274 223.29 159.385C225.175 151.01 229.607 145.931 234.543 147.044C239.478 148.157 243.046 155.042 241.161 163.417C240.384 166.871 238.985 169.899 237.264 172.19Z" fill="url(#paint6_linear_1108_451)"/>
<path d="M235.086 139.094C236.935 139.094 238.434 137.623 238.434 135.808C238.434 133.994 236.935 132.522 235.086 132.522C233.237 132.522 231.738 133.994 231.738 135.808C231.738 137.623 233.237 139.094 235.086 139.094Z" fill="url(#paint7_linear_1108_451)"/>
<path d="M232.014 143.06C232.014 143.06 232.472 147.932 230.765 151.401C233.415 154.921 234.562 150.278 234.562 150.278C234.562 150.278 234.103 145.866 233.262 142.601C232.421 139.336 232.014 143.06 232.014 143.06Z" fill="url(#paint8_linear_1108_451)"/>
<path d="M229.688 140.001C229.981 141.752 231.13 143.019 232.253 142.83C233.377 142.641 234.05 141.068 233.757 139.317C233.463 137.566 232.314 136.3 231.19 136.488C230.067 136.677 229.394 138.25 229.688 140.001Z" fill="url(#paint9_linear_1108_451)"/>
<path d="M232.622 138.572C232.544 138.197 232.341 137.859 232.045 137.616C231.749 137.373 231.379 137.238 230.996 137.234H230.961C229.167 137.234 229.462 140.702 226.601 140.702C223.74 140.702 222.825 138.778 222.825 137.792C222.825 136.807 223.466 135.868 224.221 135.868C224.976 135.868 225.297 136.532 226.601 136.532C227.906 136.532 228.287 133.24 231.536 133.24C234.786 133.24 236.658 135.138 236.658 137.536C236.658 138.786 235.833 140.665 234.518 140.665C234.049 140.665 233.002 140.419 232.622 138.572V138.572Z" fill="url(#paint10_linear_1108_451)"/>
<path d="M240.653 180.668C238.558 178.808 237.424 175.519 237.377 175.38L237.776 175.244C237.787 175.277 238.922 178.568 240.932 180.353L240.653 180.668Z" fill="#3A29A4"/>
<path d="M241.35 156.33C241.35 156.33 243.645 164.266 237.456 170.887C236.959 171.418 236.606 172.071 235.894 172.221C224.097 174.722 216.014 172.642 216.014 172.642L216.739 170.834C216.739 170.834 227.579 167.518 231.307 167.883C231.307 167.883 234.257 162.108 236.65 159.487C237.967 158.102 239.571 157.024 241.35 156.33Z" fill="url(#paint11_linear_1108_451)"/>
<path d="M217.392 170.813L217.248 170.416C223.11 168.276 230.252 167.749 231.272 167.683C232.906 164.47 234.731 161.358 236.736 158.362L237.084 158.599C235.067 161.612 233.234 164.744 231.595 167.978L231.54 168.089L231.417 168.096C231.34 168.1 223.629 168.535 217.392 170.813Z" fill="white"/>
<path d="M231.066 210.544C230.771 208.25 230.427 186.347 230.394 184.157C229.886 183.919 229.42 183.603 229.01 183.222L229.287 182.904C230.146 183.656 230.652 183.805 230.658 183.806L230.809 183.849L230.813 184.006C230.816 184.247 231.183 208.15 231.484 210.49L231.066 210.544Z" fill="#3A29A4"/>
<path d="M222.462 165.977C222.003 160.84 224.256 155.29 224.278 155.234L224.668 155.395C224.645 155.449 222.431 160.907 222.882 165.939L222.462 165.977Z" fill="#120085"/>
<path d="M232.652 139.204C232.66 139.336 232.707 139.463 232.786 139.57C232.866 139.676 232.975 139.757 233.099 139.802C233.224 139.847 233.359 139.855 233.488 139.824C233.617 139.793 233.734 139.725 233.825 139.628C233.916 139.532 233.977 139.411 233.999 139.28C234.022 139.149 234.006 139.014 233.954 138.893C233.901 138.771 233.814 138.667 233.703 138.594C233.592 138.521 233.463 138.482 233.33 138.482C233.145 138.488 232.969 138.568 232.842 138.703C232.715 138.838 232.647 139.018 232.652 139.204Z" fill="#7C68FF"/>
<path d="M228.232 150.922C227.33 153.912 228.23 155.402 230.286 156.024C232.341 156.645 234.772 156.163 235.675 153.172C236.578 150.182 235.643 147.253 233.588 146.631C231.533 146.01 229.135 147.931 228.232 150.922Z" fill="url(#paint12_linear_1108_451)"/>
<path d="M231.643 156.457C231.339 156.456 231.035 156.433 230.734 156.388L230.796 155.971C232.091 156.161 233.181 155.929 234.03 155.277C235.542 154.118 235.808 151.997 235.81 151.977L236.228 152.026C236.217 152.119 235.942 154.339 234.288 155.609C233.527 156.182 232.595 156.481 231.643 156.457ZM236.268 151.61L235.847 151.587C235.859 151.382 235.847 151.13 235.847 151.127L236.268 151.108C236.269 151.12 236.28 151.384 236.268 151.61Z" fill="#1E1267"/>
<path d="M109.403 156.914L108.231 159.252L107.691 158.804C107.691 158.804 108.688 156.992 108.859 156.811C109.03 156.63 109.393 156.485 109.403 156.914Z" fill="#8F7DFF"/>
<path d="M109.819 157.025L109.414 156.852L106.609 159.572L106.515 160.537C106.507 160.621 106.524 160.706 106.564 160.78C106.604 160.854 106.665 160.914 106.74 160.954L108.241 161.744C108.322 161.788 108.415 161.803 108.506 161.789C108.597 161.774 108.68 161.73 108.744 161.664C109.065 161.326 109.805 158.294 109.819 157.025Z" fill="#8F7DFF"/>
<path d="M106.816 160.994L105.805 162.368L106.791 163.86L108.259 161.267L106.816 160.994ZM107.251 159.749C107.251 159.749 107.827 159.174 107.847 158.82C107.867 158.467 107.783 158.051 107.595 158.147C107.394 158.242 106.609 159.572 106.609 159.572C106.609 159.572 106.911 160.069 107.251 159.749ZM90.6138 253.326L90.8462 254.827L90.4844 260.41L89.5811 260.784L89.1716 259.682L89.3942 254.305L90.6138 253.326Z" fill="#8F7DFF"/>
<path d="M89.9157 259.798L90.6534 259.754C90.6534 259.754 93.3252 260.021 94.7287 260.778C94.7833 260.809 94.8262 260.857 94.8506 260.915C94.8751 260.973 94.8797 261.037 94.8637 261.098C94.8477 261.159 94.812 261.212 94.7623 261.251C94.7126 261.289 94.6516 261.31 94.5889 261.31H89.1713V259.512L89.9157 259.798Z" fill="#100846"/>
<path d="M64.4443 253.327L64.6767 254.827L64.3149 260.411L63.4116 260.784L63.0021 259.682L63.2247 254.306L64.4443 253.327Z" fill="#8F7DFF"/>
<path d="M63.7461 259.798L64.4835 259.754C64.4835 259.754 67.1558 260.021 68.559 260.778C68.6137 260.809 68.6566 260.857 68.681 260.915C68.7055 260.973 68.71 261.037 68.6941 261.098C68.6781 261.159 68.6424 261.212 68.5927 261.251C68.543 261.289 68.482 261.31 68.4193 261.31H63.0017V259.512L63.7461 259.798Z" fill="#100846"/>
<path d="M75.7027 142.591C75.1312 144.513 75.6558 146.366 76.8747 146.729C78.0935 147.092 80.3969 146.695 80.9684 144.772C81.5399 142.85 79.3572 139.237 78.1387 138.874C76.9201 138.511 76.2742 140.668 75.7027 142.591Z" fill="url(#paint13_linear_1108_451)"/>
<path d="M82.0336 139.722C83.0766 140.558 84.3789 141.002 85.7145 140.977C87.4924 140.977 88.1684 140.222 88.1684 139.49C88.1684 138.508 87.072 138.05 87.072 137.266C87.072 136.482 90.4656 137.135 90.4656 135.045C90.4656 132.954 89.6042 129.896 87.6463 129.896C86.6543 129.896 87.6202 131.804 87.6202 132.771C87.6202 133.738 86.9414 134.522 84.7486 134.522C82.5557 134.522 82.1745 133.189 79.363 133.189C76.5515 133.189 74.437 134.574 74.437 137.606C74.437 140.637 79.3633 142.78 79.3633 142.78L82.0336 139.722Z" fill="url(#paint14_linear_1108_451)"/>
<path d="M96.2274 200.769C96.2274 200.769 96.8356 225.236 96.2274 233.256C94.9086 243.714 91.1753 257.594 91.1753 257.594H88.8427C88.8427 257.594 84.5642 243.916 85.8827 233.764C78.5808 220.363 77.7695 200.769 77.7695 200.769H96.2274Z" fill="url(#paint15_linear_1108_451)"/>
<path d="M82.611 203.746C82.611 203.746 76.1408 226.69 75.1179 230.321C74.095 233.952 65.0034 257.594 65.0034 257.594H62.5461C62.5461 257.594 60.0266 235.84 64.6767 229.043C61.9039 215.731 60.2219 198.147 60.2219 198.147C60.2219 198.147 75.3571 198.346 82.6107 203.746H82.611Z" fill="url(#paint16_linear_1108_451)"/>
<path d="M80.7999 151.309C80.7999 151.309 76.2846 152.579 73.1424 153.697C71.2949 154.351 69.6946 155.561 68.5611 157.162C59.7526 169.642 57.7914 201.879 57.7914 201.879C57.7914 201.879 63.923 207.477 79.2853 207.477C94.6475 207.477 98.4858 204.623 98.4858 204.623C98.4858 204.623 97.3439 171.857 90.2635 158.511C89.9521 157.928 89.5266 157.414 89.0124 156.999C81.996 151.309 80.7999 151.309 80.7999 151.309Z" fill="url(#paint17_linear_1108_451)"/>
<path d="M82.8244 142.594C82.8244 142.594 82.2259 148.95 84.1325 154.244C84.3657 154.852 84.3776 155.523 84.1662 156.138C83.9547 156.754 83.5333 157.276 82.976 157.612C81.5483 158.427 80.5114 157.589 79.8248 156.524C79.0733 155.321 78.7674 153.892 78.9603 152.486C79.2542 150.121 79.8953 145.536 80.841 141.865C82.1768 136.678 82.8244 142.594 82.8244 142.594Z" fill="url(#paint18_linear_1108_451)"/>
<path d="M82.5754 148.249C84.2804 147.962 85.3015 145.576 84.8561 142.919C84.4107 140.262 82.6675 138.34 80.9625 138.627C79.2574 138.913 78.2363 141.299 78.6817 143.956C79.1271 146.613 80.8704 148.535 82.5754 148.249Z" fill="url(#paint19_linear_1108_451)"/>
<path d="M79.3579 136.487C77.3167 137.433 76.1484 139.252 76.7483 140.548C77.3481 141.845 79.489 142.128 81.5303 141.182C83.5716 140.236 84.7398 138.417 84.14 137.121C83.5401 135.824 81.3992 135.54 79.3579 136.487V136.487Z" fill="url(#paint20_linear_1108_451)"/>
<path d="M78.5443 143.596C78.9965 143.596 79.3631 143.085 79.3631 142.453C79.3631 141.822 78.9965 141.311 78.5443 141.311C78.0921 141.311 77.7255 141.822 77.7255 142.453C77.7255 143.085 78.0921 143.596 78.5443 143.596Z" fill="url(#paint21_linear_1108_451)"/>
<path d="M64.9355 165.227C64.8513 164.796 83.6678 167.599 88.675 167.135C96.3867 163.87 105.344 160.897 105.344 160.897L108.052 164.967C108.052 164.967 96.3999 174.485 91.9757 176.407C84.9961 178.386 74.4496 179.645 74.4496 179.645C74.4496 179.645 66.3802 172.618 64.9355 165.227Z" fill="url(#paint22_linear_1108_451)"/>
<path d="M79.7507 179.111C78.5574 179.113 77.3665 179.005 76.1931 178.788L76.27 178.373C81.314 179.311 85.8439 177.982 90.2243 176.696C90.7941 176.529 91.3583 176.364 91.9186 176.205C95.9719 174.442 106.402 166.035 107.771 164.925L106.978 163.734L107.328 163.5L108.333 165.01L108.185 165.131C107.709 165.52 96.4601 174.689 92.0598 176.601C91.4745 176.769 90.9112 176.934 90.3427 177.101C86.9617 178.093 83.4919 179.111 79.7507 179.111Z" fill="#1A00C0"/>
<path d="M79.8236 214.405L79.4202 214.286C79.4281 214.259 80.227 211.554 80.5902 210.135L80.9984 210.24C80.6329 211.666 79.8318 214.378 79.8236 214.405ZM63.5395 256.156L63.1188 256.133C63.1634 255.326 64.2514 236.356 68.6508 229.524C68.5877 227.547 67.477 208.459 67.4654 208.264L67.8859 208.239C67.8972 208.437 69.0357 228 69.0736 229.578L69.0753 229.644L69.0393 229.699C64.6708 236.388 63.5502 255.959 63.5393 256.156H63.5395Z" fill="#120085"/>
<defs>
<linearGradient id="paint0_linear_1108_451" x1="100.672" y1="168.585" x2="78.4185" y2="172.297" gradientUnits="userSpaceOnUse">
<stop stop-color="#11007D"/>
<stop offset="1" stop-color="#080039"/>
</linearGradient>
<linearGradient id="paint1_linear_1108_451" x1="209.544" y1="163.221" x2="224.433" y2="158.55" gradientUnits="userSpaceOnUse">
<stop stop-color="#2100F2"/>
<stop offset="1" stop-color="#1900B7"/>
</linearGradient>
<linearGradient id="paint2_linear_1108_451" x1="147.626" y1="86.8204" x2="170.496" y2="219.137" gradientUnits="userSpaceOnUse">
<stop stop-color="#2604FF"/>
<stop offset="1" stop-color="#2604FF"/>
</linearGradient>
<linearGradient id="paint3_linear_1108_451" x1="250.951" y1="187.506" x2="236.682" y2="149.46" gradientUnits="userSpaceOnUse">
<stop stop-color="#11007D"/>
<stop offset="1" stop-color="#080039"/>
</linearGradient>
<linearGradient id="paint4_linear_1108_451" x1="229.217" y1="258.322" x2="218.734" y2="154.559" gradientUnits="userSpaceOnUse">
<stop stop-color="#4635B5"/>
<stop offset="1" stop-color="#442DDA"/>
</linearGradient>
<linearGradient id="paint5_linear_1108_451" x1="243.363" y1="258.497" x2="232.691" y2="152.86" gradientUnits="userSpaceOnUse">
<stop stop-color="#4635B5"/>
<stop offset="1" stop-color="#442DDA"/>
</linearGradient>
<linearGradient id="paint6_linear_1108_451" x1="231.675" y1="158.541" x2="233.953" y2="172.192" gradientUnits="userSpaceOnUse">
<stop stop-color="#2100F2"/>
<stop offset="1" stop-color="#1900B7"/>
</linearGradient>
<linearGradient id="paint7_linear_1108_451" x1="234.747" y1="133.817" x2="235.188" y2="136.404" gradientUnits="userSpaceOnUse">
<stop stop-color="#2100F3"/>
<stop offset="1" stop-color="#1A00C0"/>
</linearGradient>
<linearGradient id="paint8_linear_1108_451" x1="232.663" y1="145.84" x2="232.663" y2="142.51" gradientUnits="userSpaceOnUse">
<stop stop-color="#8F7DFF"/>
<stop offset="1" stop-color="#5136FF"/>
</linearGradient>
<linearGradient id="paint9_linear_1108_451" x1="233.825" y1="139.659" x2="229.618" y2="139.659" gradientUnits="userSpaceOnUse">
<stop stop-color="#8F7DFF"/>
<stop offset="1" stop-color="#5136FF"/>
</linearGradient>
<linearGradient id="paint10_linear_1108_451" x1="225.239" y1="134.484" x2="234.364" y2="140.045" gradientUnits="userSpaceOnUse">
<stop stop-color="#120085"/>
<stop offset="1" stop-color="#08003D"/>
</linearGradient>
<linearGradient id="paint11_linear_1108_451" x1="230.363" y1="163.166" x2="227.551" y2="171.596" gradientUnits="userSpaceOnUse">
<stop stop-color="#2100F2"/>
<stop offset="1" stop-color="#1900B7"/>
</linearGradient>
<linearGradient id="paint12_linear_1108_451" x1="232.575" y1="149.688" x2="230.649" y2="156.972" gradientUnits="userSpaceOnUse">
<stop stop-color="#8F7DFF"/>
<stop offset="1" stop-color="#5136FF"/>
</linearGradient>
<linearGradient id="paint13_linear_1108_451" x1="2170.64" y1="137.011" x2="2175.16" y2="141.46" gradientUnits="userSpaceOnUse">
<stop stop-color="#2100F2"/>
<stop offset="1" stop-color="#1900B7"/>
</linearGradient>
<linearGradient id="paint14_linear_1108_451" x1="2170.59" y1="135.493" x2="2175.6" y2="139.037" gradientUnits="userSpaceOnUse">
<stop stop-color="#2100F2"/>
<stop offset="1" stop-color="#1900B7"/>
</linearGradient>
<linearGradient id="paint15_linear_1108_451" x1="2155.43" y1="209.059" x2="2175.6" y2="235.924" gradientUnits="userSpaceOnUse">
<stop stop-color="#2100F2"/>
<stop offset="1" stop-color="#1900B7"/>
</linearGradient>
<linearGradient id="paint16_linear_1108_451" x1="2183.56" y1="208.073" x2="2183.56" y2="249.967" gradientUnits="userSpaceOnUse">
<stop stop-color="#2100F2"/>
<stop offset="1" stop-color="#1900B7"/>
</linearGradient>
<linearGradient id="paint17_linear_1108_451" x1="-239.611" y1="1323.14" x2="-239.224" y2="1360.45" gradientUnits="userSpaceOnUse">
<stop stop-color="#11007D"/>
<stop offset="1" stop-color="#080039"/>
</linearGradient>
<linearGradient id="paint18_linear_1108_451" x1="2173.66" y1="151.546" x2="2174.16" y2="147.734" gradientUnits="userSpaceOnUse">
<stop stop-color="#8F7DFF"/>
<stop offset="1" stop-color="#5136FF"/>
</linearGradient>
<linearGradient id="paint19_linear_1108_451" x1="81.8324" y1="143.631" x2="80.5811" y2="139.819" gradientUnits="userSpaceOnUse">
<stop stop-color="#8F7DFF"/>
<stop offset="1" stop-color="#5136FF"/>
</linearGradient>
<linearGradient id="paint20_linear_1108_451" x1="2170.33" y1="135.857" x2="2175.34" y2="139.401" gradientUnits="userSpaceOnUse">
<stop stop-color="#2100F2"/>
<stop offset="1" stop-color="#1900B7"/>
</linearGradient>
<linearGradient id="paint21_linear_1108_451" x1="2175.76" y1="144.49" x2="2177.01" y2="140.679" gradientUnits="userSpaceOnUse">
<stop stop-color="#8F7DFF"/>
<stop offset="1" stop-color="#5136FF"/>
</linearGradient>
<linearGradient id="paint22_linear_1108_451" x1="-243.853" y1="1313.74" x2="-210.689" y2="1345.44" gradientUnits="userSpaceOnUse">
<stop stop-color="#11007D"/>
<stop offset="1" stop-color="#080039"/>
</linearGradient>
</defs>
</svg>
