<svg width="100" height="100" viewBox="0 0 100 100" fill="none" xmlns="http://www.w3.org/2000/svg">
<path d="M25.3008 29.998C29.7191 29.998 33.3008 26.4163 33.3008 21.998C33.3008 17.5798 29.7191 13.998 25.3008 13.998C20.8825 13.998 17.3008 17.5798 17.3008 21.998C17.3008 26.4163 20.8825 29.998 25.3008 29.998Z" stroke="black" stroke-width="3" stroke-miterlimit="10"/>
<path d="M48.3521 42.8816H48.3258L34.6755 42.9589L24.663 35.0578C24.5676 34.9805 24.4591 34.9289 24.3571 34.8613C24.2021 34.7453 24.0407 34.6378 23.8736 34.5392C23.7008 34.4555 23.5228 34.3824 23.3407 34.3201C23.219 34.2879 23.1072 34.23 22.9822 34.1849C22.7395 34.119 22.4921 34.0705 22.2421 34.0399C22.1731 34.0399 22.1106 34.0077 22.0382 34.0013C21.9297 34.0013 21.8211 34.0013 21.7093 34.0013C20.9574 33.9741 20.2094 34.1186 19.5244 34.4233C18.8394 34.7279 18.2361 35.1844 17.7622 35.7567L17.7194 35.7954C17.6372 35.892 17.5813 36.0047 17.5089 36.1175C17.4366 36.2302 17.2951 36.4106 17.2063 36.5716C17.1212 36.7437 17.0454 36.92 16.9794 37.0999C16.9333 37.2191 16.8774 37.3286 16.8379 37.451C16.7731 37.678 16.7259 37.9095 16.6965 38.1435C16.6965 38.224 16.657 38.2949 16.6504 38.3722V38.4173L14.3217 62.082C14.2118 63.2475 14.5378 64.4124 15.239 65.3602C15.9401 66.3081 16.9688 66.9745 18.1339 67.2356L35.6359 71.1556L36.82 81.6883C36.9515 82.8733 37.5257 83.969 38.4322 84.7645C39.3387 85.5601 40.5136 85.9994 41.7309 85.998C41.9132 85.999 42.0955 85.9903 42.2769 85.9722C42.9212 85.9028 43.5453 85.7098 44.1134 85.4042C44.6816 85.0985 45.1826 84.6863 45.588 84.1909C45.9933 83.6955 46.295 83.1268 46.4758 82.5172C46.6566 81.9076 46.713 81.2691 46.6417 80.6382L45.0727 66.6913C44.9617 65.6925 44.5355 64.7524 43.8534 64.0019C43.1713 63.2514 42.2673 62.7278 41.2671 62.504L24.5578 58.7708L25.6136 48.2091L29.8501 51.5783C30.7279 52.2709 31.8214 52.6483 32.9486 52.6477H32.9782L48.3817 52.5607C49.6902 52.5569 50.9436 52.0441 51.8661 51.1353C52.7886 50.2265 53.3047 48.9961 53.3008 47.7147C53.2968 46.4333 52.7733 45.2059 51.8452 44.3026C50.9172 43.3992 49.6606 42.8938 48.3521 42.8977V42.8816Z" stroke="black" stroke-width="3" stroke-linecap="round" stroke-linejoin="round"/>
<path d="M72.3008 41.998L70.0657 56.9051L58.3008 56.998" stroke="#00CCF5" stroke-width="3" stroke-linecap="round" stroke-linejoin="round"/>
<path d="M51.3008 65.998H85.3008" stroke="#00CCF5" stroke-width="3" stroke-linecap="round" stroke-linejoin="round"/>
<path d="M59.3008 65.998L58.3008 84.998" stroke="#00CCF5" stroke-width="3" stroke-linecap="round" stroke-linejoin="round"/>
<path d="M77.3008 65.998L79.3008 84.998" stroke="#00CCF5" stroke-width="3" stroke-linecap="round" stroke-linejoin="round"/>
</svg>
