<svg width="618" height="400" viewBox="0 0 618 400" fill="none" xmlns="http://www.w3.org/2000/svg">
<path d="M456.358 19.8309L451.769 39.266L447.174 58.6976L461.089 50.6479L465.681 31.2163L470.273 11.7812L456.358 19.8309Z" fill="#8FE9FE"/>
<path d="M450.995 5.89057L431.718 0L417.803 8.04964L437.08 13.9402L456.358 19.8308L470.273 11.7811L450.995 5.89057Z" fill="#C7F4FE"/>
<path d="M437.08 13.9404L456.357 19.8309L451.769 39.266L447.173 58.6976L440.891 47.8641L353.771 91.4099L342.098 71.2806L424.085 18.8868L417.802 8.0498L437.08 13.9404Z" fill="#AFEFFE"/>
<path d="M314.774 243.719C314.903 243.59 315.053 243.472 315.223 243.375L350.944 222.853C352.16 222.156 353.66 222.156 354.877 222.853L408.745 253.854H410.749V255.944C410.753 256.503 410.477 257.062 409.923 257.381L374.276 277.861C372.627 278.809 370.598 278.809 368.948 277.861L315.223 246.943C314.537 246.548 314.195 245.86 314.191 245.169V243.035L314.777 243.722L314.774 243.719Z" fill="#EDD9FF"/>
<path d="M315.221 241.267L350.941 220.746C352.158 220.048 353.657 220.048 354.874 220.746L409.924 252.424C411.026 253.056 411.022 254.638 409.924 255.27L374.277 275.75C372.628 276.698 370.598 276.698 368.949 275.75L315.224 244.832C313.847 244.041 313.847 242.059 315.224 241.267H315.221Z" fill="white"/>
<path d="M399.567 239.688V261.219L340.104 226.976V205.469L399.567 239.688Z" fill="#E2C3FF"/>
<path d="M340.104 205.469L399.567 239.688L401.747 238.435L342.279 204.216L340.104 205.469Z" fill="#DEBBFF"/>
<path d="M399.568 239.688V261.219L401.747 259.966V238.435L399.568 239.688Z" fill="#EDD9FF"/>
<path d="M279.699 23.382L285.135 20.2684L285.142 20.2753C286.906 19.1819 289.221 18.9806 291.278 20.1608L469.51 122.508C473.46 124.778 475.897 128.975 475.897 133.515V285.08C475.897 286.663 475.001 287.937 473.774 288.586V288.593L468.3 291.735L467.432 289.471L469.011 288.01L286.62 183.274C283.967 181.751 282.328 178.932 282.328 175.881V25.305C282.328 25.2217 282.342 25.1419 282.346 25.0586L279.699 23.3785V23.382Z" fill="white"/>
<path d="M455.705 138.778L474.595 127.93C473.497 125.695 471.747 123.789 469.509 122.505L467.406 121.297L455.712 128.031L455.705 138.778Z" fill="#E2C3FF"/>
<path d="M475.879 132.883L467.375 137.778V287.059L469.01 287.999L467.431 289.461L468.299 291.724L473.773 288.583V288.576C475.004 287.923 475.896 286.653 475.896 285.07V133.505C475.896 133.296 475.886 133.088 475.875 132.88L475.879 132.883Z" fill="#E2C3FF"/>
<path d="M285.758 23.3226L463.99 125.67C467.94 127.94 470.377 132.137 470.377 136.677V288.242C470.377 291.304 467.051 293.216 464.387 291.685L281.097 186.433C278.443 184.909 276.805 182.09 276.805 179.039V28.4703C276.805 23.8988 281.777 21.0386 285.755 23.3226H285.758Z" fill="#EDD9FF"/>
<path d="M470.378 136.674C470.378 132.134 467.944 127.937 463.991 125.67L285.763 23.323C281.784 21.039 276.812 23.8958 276.812 28.4708V161.17L470.382 272.324V136.674H470.378Z" fill="#A445FF"/>
<path d="M284.629 155.741L461.964 257.571V134.14L284.629 32.3096V155.741Z" fill="url(#paint0_linear_2159_5004)"/>
<path d="M367.185 219.222C370.002 220.843 372.279 224.769 372.272 227.994C372.261 231.219 369.971 232.517 367.153 230.899C364.336 229.278 362.059 225.352 362.066 222.128C362.077 218.903 364.368 217.605 367.185 219.222Z" fill="#E2C3FF"/>
<path d="M595.477 219.489C606.258 210.929 608.981 194.475 608.545 181.382C607.492 149.729 590.167 119.033 567.783 96.9217C557.808 87.0671 545.127 79.3368 531.034 76.7334C523.465 75.3345 515.547 75.3345 508.779 79.2604L517.754 74.0884C518.465 73.6788 519.197 73.3039 519.94 72.9533C520.187 72.8387 520.445 72.7416 520.697 72.634C528.9 69.0934 538.611 69.864 546.933 72.5784C555.294 75.3067 563.362 80.0102 570.252 85.4287C570.457 85.5918 570.663 85.7654 570.869 85.9285C571.266 86.2479 571.667 86.5707 572.061 86.897C597.287 107.668 615.389 140.339 617.784 173.01C618.928 188.633 615.957 208.048 600.989 216.694L592.025 221.863C592.622 221.519 593.2 221.144 593.769 220.756C593.94 220.641 594.107 220.516 594.274 220.395C594.682 220.103 595.087 219.801 595.481 219.485L595.477 219.489Z" fill="#E2C3FF"/>
<path d="M550.59 83.3354C583.043 101.989 609.266 147.208 609.161 184.339C609.057 221.467 582.66 236.442 550.207 217.788C517.75 199.134 491.527 153.908 491.635 116.784C491.74 79.6594 518.137 64.6813 550.59 83.3388V83.3354Z" fill="#6CE2FD"/>
<path d="M97.9941 131.669V224.609L105.644 220.184V136.067L97.9941 131.669Z" fill="#69E2FD"/>
<path d="M93.0793 86.6094L85.4297 91.0351L107.51 137.139L115.16 132.713L93.0793 86.6094Z" fill="#A6EEFE"/>
<path d="M85.4291 91.0352L63.1602 111.647L72.431 116.975V209.916L97.9948 224.609V131.669L107.51 137.139L85.4291 91.0352Z" fill="#83E7FD"/>
<path d="M148.49 110.467V164.558L156.14 160.132V114.865L148.49 110.467Z" fill="#69E2FD"/>
<path d="M143.577 65.4111L135.928 69.8369L158.008 115.937L165.658 111.512L143.577 65.4111Z" fill="#A6EEFE"/>
<path d="M135.929 69.8369L113.656 90.4452L122.927 95.7735V149.865L148.491 164.558V110.467L158.009 115.937L135.929 69.8369Z" fill="#83E7FD"/>
<path d="M550.545 98.9911C575.443 113.303 595.56 147.99 595.477 176.475C595.396 204.955 575.146 216.445 550.252 202.133C525.354 187.822 505.236 153.131 505.317 124.647C505.397 96.1656 525.647 84.676 550.545 98.9876V98.9911Z" fill="white"/>
<path d="M550.502 113.195C568.541 123.563 583.115 148.698 583.056 169.334C582.997 189.97 568.325 198.294 550.289 187.925C532.249 177.557 517.675 152.422 517.735 131.786C517.794 111.15 532.465 102.826 550.502 113.195Z" fill="#6CE2FD"/>
<path d="M550.464 127.201C561.743 133.682 570.854 149.396 570.819 162.298C570.784 175.2 561.611 180.404 550.331 173.923C539.052 167.439 529.942 151.725 529.977 138.822C530.012 125.92 539.185 120.717 550.464 127.201Z" fill="white"/>
<path d="M550.425 140.36C555.352 143.189 559.33 150.052 559.313 155.689C559.295 161.323 555.292 163.596 550.366 160.764C545.439 157.931 541.461 151.069 541.479 145.435C541.496 139.801 545.499 137.528 550.425 140.36Z" fill="#6CE2FD"/>
<path d="M471.209 83.6027L337.759 6.73368C336.867 6.21994 335.863 6.27895 335.075 6.71632L335.047 6.7302C335.047 6.7302 335.04 6.73368 335.036 6.73715L331.832 8.59075L335.587 21.9686V23.4578C335.587 26.6617 337.306 29.626 340.092 31.2262L468.671 105.294L470.163 109.314L473.402 107.443C474.852 106.627 475.895 105.089 475.895 103.19V91.6801C475.895 88.3478 474.11 85.2688 471.209 83.5992V83.6027Z" fill="#B76CFF"/>
<path d="M472.656 93.5576V105.068C472.656 108.824 468.57 111.174 465.303 109.296L334.946 34.2041C332.157 32.6004 330.441 29.6395 330.441 26.4356V10.9542C330.441 8.86801 332.708 7.56632 334.521 8.60767L467.974 85.4767C470.875 87.1428 472.66 90.2218 472.66 93.5576H472.656Z" fill="url(#paint1_linear_2159_5004)"/>
<path d="M465.229 91.1312C467.503 95.0537 467.492 99.285 465.201 100.583C464.058 101.232 462.559 101.024 461.066 100.167C459.919 99.5072 458.776 98.4658 457.789 97.1294L454.431 99.0351C454.32 99.0976 454.177 99.0767 454.03 98.9969C453.887 98.9136 453.741 98.7678 453.633 98.5769L452.876 97.2717C452.657 96.8934 452.66 96.4838 452.876 96.3588L456.237 94.4531C454.7 90.9646 454.944 87.5282 456.966 86.3827C458.11 85.7336 459.609 85.9418 461.101 86.7992C462.597 87.6601 464.089 89.17 465.226 91.1312H465.229ZM463.81 98.1812C465.327 97.3203 465.334 94.5226 463.828 91.9261C463.075 90.6279 462.088 89.6282 461.098 89.059C460.108 88.4897 459.117 88.3543 458.361 88.7813C456.844 89.6421 456.837 92.4399 458.343 95.0363C459.096 96.3345 460.083 97.3342 461.073 97.9035C462.064 98.4728 463.054 98.6081 463.81 98.1777" fill="url(#paint2_linear_2159_5004)"/>
<g style="mix-blend-mode:overlay" opacity="0.5">
<path d="M411.937 60.7212L405.257 56.8821C405.086 56.7849 404.925 56.7363 404.782 56.7363C404.434 56.7363 404.197 57.0106 404.197 57.4826L404.176 65.4802C404.176 66.1501 404.646 66.9659 405.232 67.3026L411.913 71.1417C412.083 71.2389 412.247 71.2875 412.39 71.2875C412.739 71.2875 412.976 71.0132 412.976 70.5377L412.997 62.5401C412.997 61.8702 412.526 61.0545 411.94 60.7178L411.937 60.7212Z" fill="white"/>
<path d="M398.804 53.1714L392.123 49.3323C391.953 49.2351 391.792 49.1865 391.646 49.1865C391.297 49.1865 391.06 49.4607 391.06 49.9328L391.039 57.9304C391.039 58.6003 391.51 59.4161 392.095 59.7528L398.776 63.5919C398.947 63.6891 399.111 63.7377 399.253 63.7377C399.602 63.7377 399.839 63.4634 399.839 62.9914L399.86 54.9938C399.86 54.3239 399.389 53.5081 398.804 53.1714Z" fill="white"/>
<path d="M385.673 45.6216L378.993 41.7825C378.822 41.6853 378.662 41.6367 378.519 41.6367C378.17 41.6367 377.933 41.9109 377.933 42.3865L377.912 50.3841C377.912 51.054 378.383 51.8697 378.969 52.2064L385.649 56.0455C385.82 56.1427 385.984 56.1913 386.127 56.1913C386.475 56.1913 386.712 55.9171 386.712 55.445L386.733 47.4475C386.733 46.7775 386.263 45.9618 385.677 45.6251L385.673 45.6216Z" fill="white"/>
</g>
<g style="mix-blend-mode:overlay" opacity="0.5">
<path d="M372.445 37.9781L365.764 34.139C365.594 34.0418 365.433 33.9932 365.29 33.9932C364.942 33.9932 364.705 34.2674 364.705 34.7395L364.684 42.737C364.684 43.407 365.154 44.2227 365.74 44.5594L372.42 48.3985C372.591 48.4957 372.752 48.5443 372.898 48.5443C373.247 48.5443 373.484 48.2701 373.484 47.798L373.505 39.8004C373.505 39.1305 373.034 38.3148 372.448 37.9781H372.445Z" fill="white"/>
<path d="M359.315 30.4283L352.635 26.5891C352.464 26.492 352.3 26.4434 352.157 26.4434C351.809 26.4434 351.572 26.7176 351.572 27.1931L351.551 35.1907C351.551 35.8606 352.021 36.6764 352.607 37.0131L359.288 40.8522C359.458 40.9494 359.619 40.998 359.765 40.998C360.114 40.998 360.351 40.7237 360.351 40.2517L360.372 32.2541C360.372 31.5842 359.901 30.7684 359.315 30.4317V30.4283Z" fill="white"/>
<path d="M346.181 22.8745L339.5 19.0354C339.329 18.9382 339.169 18.8896 339.023 18.8896C338.674 18.8896 338.437 19.1639 338.437 19.6394L338.416 27.637C338.416 28.3069 338.887 29.1227 339.472 29.4594L346.153 33.2985C346.324 33.3957 346.484 33.4443 346.63 33.4443C346.979 33.4443 347.216 33.17 347.216 32.6945L347.237 24.6969C347.237 24.027 346.766 23.2113 346.181 22.8745Z" fill="white"/>
</g>
<path d="M457.338 153.252L438.35 142.311V127.586L457.338 138.527V153.252Z" fill="#CEF5FE"/>
<path d="M434.587 125.469V126.749L415.693 115.867V114.583L434.587 125.469Z" fill="#CEF5FE"/>
<path d="M434.587 129.498L415.693 118.613V117.332L434.587 128.218V129.498Z" fill="#CEF5FE"/>
<path d="M434.587 132.247L415.693 121.362V120.081L434.587 130.963V132.247Z" fill="#CEF5FE"/>
<path d="M434.587 134.993L415.693 124.111V122.83L434.587 133.712V134.993Z" fill="#CEF5FE"/>
<path d="M457.338 172.388L438.35 161.45V146.726L457.338 157.667V172.388Z" fill="#CEF5FE"/>
<path d="M434.587 144.608V145.889L415.693 135.004V133.723L434.587 144.608Z" fill="#CEF5FE"/>
<path d="M434.587 148.636L415.693 137.754V136.473L434.587 147.355V148.636Z" fill="#CEF5FE"/>
<path d="M434.587 151.384L415.693 140.502V139.218L434.587 150.103V151.384Z" fill="#CEF5FE"/>
<path d="M434.587 154.133L415.693 143.248V141.967L434.587 152.852V154.133Z" fill="#CEF5FE"/>
<path d="M457.338 191.529L438.35 180.587V165.866L457.338 176.804V191.529Z" fill="#CEF5FE"/>
<path d="M434.587 163.745V165.026L415.693 154.144V152.863L434.587 163.745Z" fill="#CEF5FE"/>
<path d="M434.587 167.775L415.693 156.889V155.608L434.587 166.494V167.775Z" fill="#CEF5FE"/>
<path d="M434.587 170.524L415.693 159.638V158.357L434.587 169.243V170.524Z" fill="#CEF5FE"/>
<path d="M434.587 173.27L415.693 162.388V161.107L434.587 171.99V173.27Z" fill="#CEF5FE"/>
<path d="M457.338 210.665L438.35 199.728V185.003L457.338 195.944V210.665Z" fill="#CEF5FE"/>
<path d="M434.587 182.886V184.166L415.693 173.281V172L434.587 182.886Z" fill="#CEF5FE"/>
<path d="M434.587 186.915L415.693 176.03V174.749L434.587 185.631V186.915Z" fill="#CEF5FE"/>
<path d="M434.587 189.661L415.693 178.779V177.498L434.587 188.38V189.661Z" fill="#CEF5FE"/>
<path d="M434.587 192.41L415.693 181.524V180.243L434.587 191.129V192.41Z" fill="#CEF5FE"/>
<path d="M457.338 229.583L438.35 218.646V203.921L457.338 214.862V229.583Z" fill="#CEF5FE"/>
<path d="M434.587 201.803V203.083L415.693 192.198V190.917L434.587 201.803Z" fill="#CEF5FE"/>
<path d="M434.587 205.833L415.693 194.948V193.667L434.587 204.553V205.833Z" fill="#CEF5FE"/>
<path d="M434.587 208.579L415.693 197.697V196.416L434.587 207.298V208.579Z" fill="#CEF5FE"/>
<path d="M434.587 211.328L415.693 200.442V199.161L434.587 210.047V211.328Z" fill="#CEF5FE"/>
<path d="M457.338 248.723L438.35 237.782V223.061L457.338 233.998V248.723Z" fill="#CEF5FE"/>
<path d="M434.587 220.94V222.224L415.693 211.338V210.058L434.587 220.94Z" fill="#CEF5FE"/>
<path d="M434.587 224.97L415.693 214.088V212.807L434.587 223.689V224.97Z" fill="#CEF5FE"/>
<path d="M434.587 227.719L415.693 216.834V215.553L434.587 226.438V227.719Z" fill="#CEF5FE"/>
<path d="M434.587 230.468L415.693 219.583V218.302L434.587 229.187V230.468Z" fill="#CEF5FE"/>
<g style="mix-blend-mode:overlay">
<path d="M407.514 174.36L402.002 171.191C401.862 171.111 401.726 171.073 401.611 171.073C401.326 171.073 401.127 171.299 401.127 171.691L401.109 178.286C401.109 178.842 401.496 179.512 401.981 179.789L407.49 182.955C407.633 183.035 407.765 183.073 407.884 183.073C408.17 183.073 408.368 182.847 408.368 182.455L408.389 175.86C408.389 175.305 407.999 174.635 407.518 174.357L407.514 174.36Z" fill="white"/>
</g>
<path d="M396.68 168.133L391.168 164.968C391.029 164.888 390.893 164.85 390.777 164.85C390.492 164.85 390.293 165.075 390.293 165.467L390.275 172.063C390.275 172.615 390.662 173.288 391.147 173.566L396.656 176.735C396.799 176.815 396.931 176.853 397.05 176.853C397.336 176.853 397.535 176.627 397.535 176.235L397.555 169.636C397.555 169.084 397.165 168.411 396.684 168.133H396.68Z" fill="#CEF5FE"/>
<path d="M385.848 161.906L380.336 158.74C380.196 158.66 380.064 158.622 379.945 158.622C379.66 158.622 379.461 158.848 379.461 159.24L379.443 165.835C379.443 166.387 379.83 167.06 380.315 167.338L385.824 170.504C385.967 170.587 386.099 170.625 386.218 170.625C386.504 170.625 386.702 170.4 386.702 170.007L386.72 163.409C386.72 162.857 386.329 162.183 385.848 161.906Z" fill="#CEF5FE"/>
<path d="M374.937 155.598L369.428 152.429C369.288 152.349 369.152 152.311 369.037 152.311C368.748 152.311 368.553 152.536 368.553 152.928L368.535 159.524C368.535 160.076 368.922 160.749 369.407 161.027L374.916 164.192C375.059 164.272 375.191 164.31 375.306 164.31C375.596 164.31 375.791 164.085 375.791 163.692L375.808 157.094C375.808 156.542 375.421 155.868 374.937 155.591V155.598Z" fill="#CEF5FE"/>
<g style="mix-blend-mode:overlay">
<path d="M364.103 149.371L358.594 146.202C358.454 146.122 358.318 146.084 358.203 146.084C357.914 146.084 357.719 146.31 357.719 146.698L357.701 153.297C357.701 153.849 358.088 154.522 358.573 154.8L364.082 157.966C364.225 158.049 364.357 158.087 364.476 158.087C364.762 158.087 364.96 157.862 364.96 157.469L364.978 150.871C364.978 150.319 364.591 149.645 364.106 149.368L364.103 149.371Z" fill="white"/>
</g>
<g style="mix-blend-mode:overlay">
<path d="M353.274 143.144L347.762 139.978C347.622 139.895 347.486 139.856 347.371 139.856C347.082 139.856 346.887 140.086 346.887 140.474L346.869 147.073C346.869 147.625 347.256 148.298 347.741 148.576L353.25 151.742C353.393 151.825 353.525 151.863 353.644 151.863C353.93 151.863 354.128 151.634 354.128 151.245L354.149 144.647C354.149 144.095 353.759 143.421 353.278 143.144H353.274Z" fill="white"/>
</g>
<path d="M342.594 136.979L337.082 133.81C336.943 133.73 336.807 133.688 336.692 133.688C336.406 133.688 336.207 133.914 336.207 134.306L336.189 140.905C336.189 141.457 336.576 142.13 337.061 142.408L342.57 145.574C342.713 145.657 342.845 145.695 342.964 145.695C343.25 145.695 343.449 145.47 343.449 145.077L343.469 138.479C343.469 137.927 343.079 137.253 342.598 136.976L342.594 136.979Z" fill="#CEF5FE"/>
<g style="mix-blend-mode:overlay">
<path d="M331.76 130.752L326.252 127.586C326.109 127.503 325.976 127.465 325.858 127.465C325.572 127.465 325.373 127.69 325.373 128.083L325.355 134.681C325.355 135.233 325.746 135.907 326.227 136.184L331.736 139.354C331.879 139.437 332.011 139.475 332.13 139.475C332.416 139.475 332.615 139.249 332.615 138.857L332.632 132.259C332.632 131.707 332.245 131.033 331.76 130.756V130.752Z" fill="white"/>
</g>
<g style="mix-blend-mode:overlay">
<path d="M320.928 124.522L315.419 121.356C315.276 121.273 315.144 121.234 315.025 121.234C314.739 121.234 314.54 121.46 314.54 121.852L314.52 128.451C314.52 129.003 314.91 129.676 315.391 129.954L320.903 133.123C321.043 133.206 321.179 133.245 321.294 133.245C321.58 133.245 321.779 133.019 321.779 132.627L321.796 126.028C321.796 125.476 321.409 124.803 320.924 124.525L320.928 124.522Z" fill="white"/>
</g>
<g style="mix-blend-mode:overlay">
<path d="M328.051 113.587C327.908 113.504 327.789 113.573 327.789 113.743V114.649C327.786 114.812 327.904 115.017 328.047 115.097C328.194 115.18 328.312 115.114 328.312 114.951V114.045C328.316 113.879 328.197 113.674 328.051 113.587Z" fill="white"/>
</g>
<g style="mix-blend-mode:overlay">
<path d="M328.055 111.445C327.912 111.362 327.793 111.432 327.793 111.598V112.671C327.79 112.837 327.908 113.039 328.051 113.119C328.197 113.202 328.32 113.139 328.32 112.973V111.904C328.323 111.737 328.204 111.532 328.058 111.445H328.055Z" fill="white"/>
</g>
<g style="mix-blend-mode:overlay">
<path d="M340.734 120.88C340.591 120.797 340.473 120.866 340.473 121.036V121.942C340.473 122.105 340.588 122.31 340.731 122.39C340.877 122.473 340.996 122.407 340.999 122.244V121.338C340.999 121.172 340.881 120.967 340.738 120.88H340.734Z" fill="white"/>
</g>
<g style="mix-blend-mode:overlay">
<path d="M340.746 117.479C340.603 117.395 340.485 117.465 340.485 117.631V119.332C340.478 119.499 340.596 119.7 340.739 119.78C340.886 119.863 341.004 119.801 341.004 119.634L341.011 117.933C341.011 117.767 340.893 117.562 340.746 117.475V117.479Z" fill="white"/>
</g>
<g style="mix-blend-mode:overlay">
<path d="M340.752 114.076C340.609 113.993 340.491 114.063 340.491 114.226V115.927C340.484 116.093 340.602 116.298 340.745 116.381C340.891 116.465 341.014 116.399 341.014 116.232L341.02 114.531C341.02 114.368 340.902 114.163 340.756 114.08L340.752 114.076Z" fill="white"/>
</g>
<g style="mix-blend-mode:overlay">
<path d="M340.764 110.668C340.621 110.585 340.502 110.654 340.502 110.824V112.525C340.495 112.692 340.617 112.897 340.757 112.98C340.903 113.063 341.025 112.997 341.025 112.831L341.032 111.13C341.032 110.963 340.914 110.758 340.767 110.675L340.764 110.668Z" fill="white"/>
</g>
<g style="mix-blend-mode:overlay">
<path d="M340.774 107.27C340.631 107.186 340.512 107.256 340.512 107.422V109.123C340.505 109.286 340.624 109.491 340.77 109.575C340.916 109.658 341.035 109.588 341.038 109.429V107.728C341.042 107.561 340.927 107.356 340.777 107.27H340.774Z" fill="white"/>
</g>
<g style="mix-blend-mode:overlay">
<path d="M353.427 128.174C353.28 128.09 353.158 128.156 353.158 128.326V129.232C353.155 129.395 353.273 129.6 353.42 129.684C353.563 129.767 353.681 129.697 353.681 129.534V128.628C353.681 128.462 353.563 128.257 353.423 128.174H353.427Z" fill="white"/>
</g>
<g style="mix-blend-mode:overlay">
<path d="M353.436 124.334C353.29 124.248 353.171 124.317 353.171 124.48L353.164 126.403C353.164 126.57 353.283 126.775 353.429 126.862C353.572 126.945 353.691 126.875 353.691 126.705V124.782C353.698 124.619 353.579 124.414 353.436 124.334Z" fill="white"/>
</g>
<g style="mix-blend-mode:overlay">
<path d="M353.446 120.484C353.3 120.401 353.178 120.467 353.178 120.634V122.557C353.174 122.72 353.289 122.924 353.439 123.008C353.582 123.091 353.701 123.022 353.701 122.862L353.708 120.939C353.708 120.772 353.589 120.568 353.45 120.484H353.446Z" fill="white"/>
</g>
<g style="mix-blend-mode:overlay">
<path d="M353.458 116.642C353.311 116.559 353.193 116.618 353.193 116.788L353.186 118.711C353.186 118.881 353.304 119.082 353.451 119.169C353.593 119.252 353.712 119.183 353.712 119.013L353.719 117.09C353.719 116.923 353.6 116.722 353.458 116.642Z" fill="white"/>
</g>
<g style="mix-blend-mode:overlay">
<path d="M366.11 135.466C365.964 135.382 365.842 135.448 365.842 135.615V136.521C365.842 136.684 365.957 136.889 366.103 136.972C366.246 137.055 366.365 136.986 366.365 136.823V135.917C366.368 135.75 366.25 135.546 366.107 135.462L366.11 135.466Z" fill="white"/>
</g>
<g style="mix-blend-mode:overlay">
<path d="M366.12 131.95C365.974 131.867 365.855 131.933 365.852 132.103V133.859C365.848 134.026 365.963 134.231 366.113 134.317C366.256 134.401 366.375 134.331 366.375 134.165L366.382 132.408C366.382 132.242 366.263 132.037 366.12 131.953V131.95Z" fill="white"/>
</g>
<g style="mix-blend-mode:overlay">
<path d="M366.131 128.433C365.985 128.35 365.866 128.416 365.866 128.583L365.859 130.339C365.859 130.506 365.978 130.711 366.124 130.797C366.267 130.881 366.386 130.811 366.386 130.641V128.888C366.393 128.722 366.274 128.517 366.131 128.433Z" fill="white"/>
</g>
<g style="mix-blend-mode:overlay">
<path d="M366.143 124.921C365.996 124.838 365.874 124.904 365.874 125.067L365.867 126.827C365.867 126.993 365.986 127.198 366.132 127.285C366.275 127.368 366.394 127.299 366.394 127.129V125.369C366.401 125.206 366.282 125.001 366.139 124.921H366.143Z" fill="white"/>
</g>
<g style="mix-blend-mode:overlay">
<path d="M366.152 121.405C366.005 121.318 365.883 121.387 365.883 121.551V123.31C365.876 123.477 365.995 123.678 366.145 123.762C366.288 123.845 366.406 123.783 366.406 123.612L366.413 121.853C366.413 121.689 366.295 121.485 366.152 121.405Z" fill="white"/>
</g>
<g style="mix-blend-mode:overlay">
<path d="M378.794 142.756C378.648 142.672 378.529 142.738 378.529 142.905V143.811C378.526 143.974 378.644 144.179 378.791 144.262C378.937 144.346 379.052 144.276 379.052 144.113V143.207C379.052 143.04 378.941 142.836 378.794 142.752V142.756Z" fill="white"/>
</g>
<g style="mix-blend-mode:overlay">
<path d="M366.159 117.889C366.013 117.802 365.891 117.864 365.891 118.034V119.794C365.884 119.957 366.006 120.162 366.152 120.245C366.295 120.329 366.414 120.259 366.414 120.096L366.421 118.336C366.421 118.166 366.302 117.968 366.159 117.889Z" fill="white"/>
</g>
<g style="mix-blend-mode:overlay">
<path d="M378.809 138.975C378.662 138.888 378.54 138.958 378.54 139.121L378.533 141.016C378.533 141.179 378.652 141.384 378.798 141.467C378.945 141.551 379.06 141.481 379.06 141.318L379.067 139.423C379.067 139.26 378.952 139.058 378.805 138.975H378.809Z" fill="white"/>
</g>
<g style="mix-blend-mode:overlay">
<path d="M366.17 114.369C366.024 114.282 365.905 114.351 365.905 114.518L365.898 116.278C365.898 116.441 366.017 116.646 366.163 116.729C366.306 116.812 366.425 116.743 366.425 116.58L366.432 114.82C366.432 114.653 366.313 114.448 366.17 114.369Z" fill="white"/>
</g>
<g style="mix-blend-mode:overlay">
<path d="M378.82 135.188C378.673 135.105 378.551 135.171 378.551 135.341V137.229C378.544 137.396 378.663 137.601 378.813 137.688C378.959 137.771 379.074 137.701 379.074 137.531L379.081 135.64C379.081 135.473 378.966 135.272 378.823 135.185L378.82 135.188Z" fill="white"/>
</g>
<g style="mix-blend-mode:overlay">
<path d="M378.83 131.408C378.684 131.325 378.562 131.384 378.562 131.554L378.555 133.446C378.555 133.613 378.673 133.817 378.82 133.904C378.966 133.991 379.081 133.918 379.081 133.752L379.088 131.86C379.088 131.693 378.977 131.495 378.827 131.412L378.83 131.408Z" fill="white"/>
</g>
<g style="mix-blend-mode:overlay">
<path d="M391.483 150.049C391.337 149.965 391.215 150.031 391.215 150.198V151.104C391.215 151.267 391.33 151.472 391.476 151.555C391.623 151.638 391.741 151.573 391.741 151.409V150.503C391.745 150.337 391.626 150.132 391.48 150.049H391.483Z" fill="white"/>
</g>
<g style="mix-blend-mode:overlay">
<path d="M378.84 127.618C378.694 127.535 378.575 127.604 378.575 127.771L378.568 129.659C378.568 129.829 378.687 130.027 378.833 130.111C378.98 130.194 379.095 130.131 379.095 129.961V128.07C379.102 127.903 378.987 127.702 378.84 127.615V127.618Z" fill="white"/>
</g>
<g style="mix-blend-mode:overlay">
<path d="M391.493 146.265C391.346 146.181 391.228 146.247 391.228 146.41L391.221 148.306C391.221 148.469 391.339 148.674 391.486 148.757C391.632 148.84 391.751 148.774 391.751 148.611L391.758 146.712C391.758 146.549 391.639 146.344 391.493 146.261V146.265Z" fill="white"/>
</g>
<g style="mix-blend-mode:overlay">
<path d="M378.85 123.831C378.704 123.748 378.585 123.814 378.585 123.98L378.578 125.872C378.578 126.039 378.697 126.243 378.847 126.327C378.993 126.413 379.108 126.341 379.108 126.174L379.115 124.282C379.115 124.116 379.003 123.911 378.854 123.827L378.85 123.831Z" fill="white"/>
</g>
<g style="mix-blend-mode:overlay">
<path d="M391.504 142.481C391.358 142.398 391.239 142.464 391.235 142.631L391.229 144.522C391.229 144.689 391.347 144.894 391.494 144.977C391.64 145.064 391.758 144.994 391.758 144.828L391.765 142.936C391.765 142.769 391.647 142.565 391.5 142.478L391.504 142.481Z" fill="white"/>
</g>
<g style="mix-blend-mode:overlay">
<path d="M378.862 120.05C378.715 119.964 378.597 120.033 378.597 120.196L378.59 122.095C378.59 122.258 378.708 122.463 378.855 122.546C379.001 122.629 379.116 122.56 379.116 122.397L379.123 120.502C379.123 120.338 379.008 120.137 378.862 120.054V120.05Z" fill="white"/>
</g>
<g style="mix-blend-mode:overlay">
<path d="M391.514 138.698C391.368 138.611 391.249 138.674 391.249 138.844L391.242 140.736C391.242 140.902 391.361 141.107 391.507 141.194C391.654 141.277 391.776 141.211 391.776 141.045L391.783 139.153C391.783 138.986 391.664 138.785 391.518 138.702L391.514 138.698Z" fill="white"/>
</g>
<g style="mix-blend-mode:overlay">
<path d="M378.872 116.263C378.725 116.18 378.607 116.246 378.607 116.416L378.6 118.305C378.6 118.471 378.718 118.676 378.865 118.763C379.011 118.846 379.126 118.777 379.126 118.606L379.133 116.715C379.133 116.548 379.021 116.347 378.872 116.26V116.263Z" fill="white"/>
</g>
<g style="mix-blend-mode:overlay">
<path d="M404.166 157.342C404.019 157.259 403.904 157.328 403.904 157.498V158.404C403.901 158.567 404.012 158.769 404.162 158.852C404.309 158.939 404.427 158.869 404.427 158.706V157.8C404.431 157.633 404.312 157.429 404.166 157.342Z" fill="white"/>
</g>
<g style="mix-blend-mode:overlay">
<path d="M391.527 134.911C391.381 134.828 391.259 134.894 391.259 135.064L391.252 136.952C391.252 137.122 391.371 137.32 391.517 137.403C391.663 137.487 391.782 137.428 391.782 137.257L391.789 135.369C391.789 135.199 391.67 134.998 391.524 134.911H391.527Z" fill="white"/>
</g>
<g style="mix-blend-mode:overlay">
<path d="M378.881 112.483C378.734 112.4 378.612 112.466 378.612 112.629L378.605 114.524C378.605 114.688 378.724 114.892 378.87 114.976C379.017 115.062 379.132 114.99 379.132 114.826L379.139 112.931C379.139 112.768 379.027 112.567 378.877 112.483H378.881Z" fill="white"/>
</g>
<g style="mix-blend-mode:overlay">
<path d="M404.181 153.652C404.034 153.565 403.919 153.638 403.919 153.805L403.912 155.648C403.912 155.815 404.027 156.016 404.174 156.099C404.32 156.186 404.439 156.117 404.439 155.947L404.446 154.103C404.446 153.937 404.327 153.732 404.181 153.645V153.652Z" fill="white"/>
</g>
<g style="mix-blend-mode:overlay">
<path d="M391.534 131.124C391.387 131.041 391.269 131.107 391.269 131.273L391.262 133.165C391.262 133.332 391.38 133.536 391.527 133.623C391.673 133.71 391.795 133.64 391.795 133.47L391.802 131.579C391.802 131.412 391.684 131.207 391.534 131.12V131.124Z" fill="white"/>
</g>
<g style="mix-blend-mode:overlay">
<path d="M404.188 149.962C404.042 149.875 403.927 149.948 403.927 150.114L403.92 151.958C403.92 152.128 404.031 152.329 404.181 152.412C404.328 152.499 404.446 152.43 404.446 152.263V150.42C404.453 150.253 404.335 150.048 404.185 149.965L404.188 149.962Z" fill="white"/>
</g>
<g style="mix-blend-mode:overlay">
<path d="M391.549 127.34C391.402 127.257 391.28 127.326 391.28 127.486L391.273 129.385C391.273 129.548 391.392 129.753 391.538 129.836C391.685 129.919 391.803 129.853 391.803 129.69L391.81 127.791C391.81 127.628 391.692 127.423 391.545 127.34H391.549Z" fill="white"/>
</g>
<g style="mix-blend-mode:overlay">
<path d="M404.202 146.272C404.056 146.188 403.941 146.258 403.941 146.421L403.934 148.268C403.934 148.434 404.045 148.632 404.195 148.715C404.342 148.802 404.464 148.74 404.464 148.57L404.471 146.723C404.471 146.56 404.352 146.355 404.206 146.272H404.202Z" fill="white"/>
</g>
<g style="mix-blend-mode:overlay">
<path d="M391.556 123.557C391.409 123.473 391.291 123.539 391.287 123.706V125.598C391.28 125.764 391.402 125.969 391.549 126.056C391.695 126.143 391.817 126.073 391.817 125.906L391.824 124.015C391.824 123.848 391.706 123.643 391.556 123.56V123.557Z" fill="white"/>
</g>
<g style="mix-blend-mode:overlay">
<path d="M404.209 142.578C404.062 142.495 403.947 142.564 403.947 142.734V144.581C403.944 144.744 404.055 144.946 404.202 145.029C404.348 145.112 404.467 145.046 404.467 144.883L404.474 143.036C404.474 142.87 404.355 142.665 404.209 142.578Z" fill="white"/>
</g>
<g style="mix-blend-mode:overlay">
<path d="M391.57 119.773C391.424 119.686 391.302 119.756 391.302 119.919L391.295 121.817C391.295 121.981 391.413 122.185 391.56 122.269C391.706 122.352 391.828 122.286 391.828 122.123L391.835 120.224C391.835 120.061 391.717 119.856 391.57 119.773Z" fill="white"/>
</g>
<g style="mix-blend-mode:overlay">
<path d="M404.222 138.889C404.075 138.805 403.96 138.875 403.96 139.045L403.953 140.888C403.953 141.055 404.065 141.26 404.215 141.343C404.361 141.426 404.483 141.36 404.483 141.194L404.49 139.35C404.49 139.18 404.372 138.979 404.225 138.892L404.222 138.889Z" fill="white"/>
</g>
<g style="mix-blend-mode:overlay">
<path d="M404.229 135.198C404.083 135.115 403.968 135.185 403.968 135.348L403.961 137.194C403.961 137.361 404.073 137.566 404.219 137.649C404.365 137.732 404.487 137.666 404.487 137.5V135.653C404.494 135.49 404.376 135.285 404.226 135.202L404.229 135.198Z" fill="white"/>
</g>
<g style="mix-blend-mode:overlay">
<path d="M404.243 131.509C404.097 131.425 403.982 131.491 403.982 131.658L403.975 133.505C403.975 133.671 404.086 133.869 404.236 133.952C404.383 134.036 404.501 133.977 404.501 133.807L404.508 131.96C404.508 131.793 404.39 131.592 404.243 131.509Z" fill="white"/>
</g>
<g style="mix-blend-mode:overlay">
<path d="M404.254 127.815C404.108 127.732 403.992 127.802 403.992 127.972V129.818C403.986 129.981 404.101 130.183 404.247 130.266C404.393 130.349 404.515 130.283 404.515 130.12L404.522 128.274C404.522 128.107 404.404 127.902 404.257 127.815H404.254Z" fill="white"/>
</g>
<g style="mix-blend-mode:overlay">
<path d="M404.261 124.126C404.114 124.043 403.999 124.112 403.999 124.282L403.992 126.125C403.992 126.292 404.104 126.493 404.254 126.58C404.4 126.663 404.522 126.594 404.522 126.427L404.529 124.584C404.529 124.418 404.411 124.213 404.264 124.126H404.261Z" fill="white"/>
</g>
<g style="mix-blend-mode:overlay">
<path d="M404.275 120.436C404.129 120.35 404.014 120.422 404.014 120.586V122.432C404.007 122.599 404.122 122.8 404.268 122.883C404.415 122.97 404.533 122.901 404.533 122.731L404.54 120.884C404.54 120.721 404.422 120.516 404.275 120.433V120.436Z" fill="white"/>
</g>
<g style="mix-blend-mode:overlay">
<path d="M404.282 116.749C404.136 116.662 404.021 116.728 404.021 116.895L404.014 118.742C404.014 118.912 404.125 119.106 404.275 119.189C404.422 119.276 404.544 119.214 404.544 119.044L404.551 117.197C404.551 117.03 404.432 116.829 404.282 116.746V116.749Z" fill="white"/>
</g>
<g style="mix-blend-mode:overlay">
<path d="M404.293 113.994C404.146 113.907 404.031 113.98 404.031 114.147V115.053C404.028 115.216 404.143 115.417 404.289 115.5C404.436 115.587 404.554 115.518 404.554 115.355V114.449C404.558 114.282 404.439 114.077 404.293 113.99V113.994Z" fill="white"/>
</g>
<g style="mix-blend-mode:overlay">
<path d="M405.129 110.064L387.169 117.371L376.905 106.6L355.616 115.288L341.46 103.33L323.246 110.623L324.299 112.643L340.777 106.169C340.923 106.253 341.042 106.187 341.045 105.93L341.882 105.597L356.045 117.562L377.205 108.926L378.624 110.415V110.734C378.624 110.904 378.742 111.102 378.889 111.185C379.035 111.269 379.15 111.206 379.15 110.967L387.466 119.693L391.329 118.128C391.36 118.27 391.454 118.412 391.573 118.482C391.719 118.565 391.841 118.506 391.841 118.336V117.916L406.189 112.081L405.132 110.064H405.129Z" fill="white"/>
</g>
<path d="M299.835 49.9813L299.824 53.6746C300.902 54.414 301.826 55.1221 302.6 55.8059C303.374 56.4897 303.991 57.0798 304.444 57.5762L303.471 61.2869C302.788 60.5649 301.996 59.8221 301.097 59.0688C300.197 58.3156 299.252 57.6526 298.259 57.0833C297.262 56.5106 296.55 56.2919 296.115 56.4203C295.675 56.5453 295.459 56.9167 295.456 57.5346C295.456 57.9164 295.522 58.2774 295.654 58.628C295.79 58.9786 295.999 59.343 296.289 59.7214C296.578 60.0998 296.934 60.5128 297.359 60.9606C297.785 61.4084 298.297 61.9186 298.893 62.5018C299.803 63.4043 300.644 64.3033 301.418 65.1989C302.192 66.0945 302.865 67.0004 303.429 67.9029C303.998 68.8089 304.441 69.7461 304.761 70.7111C305.079 71.6761 305.235 72.6793 305.235 73.7206C305.235 74.4287 305.138 75.0813 304.95 75.6714C304.761 76.265 304.451 76.7266 304.015 77.0703C303.576 77.4105 303.015 77.5944 302.317 77.6222C301.62 77.65 300.766 77.466 299.755 77.0738L299.741 81.4023L295.832 79.1565L295.843 74.9321C294.329 73.9185 293.106 72.95 292.164 72.0197C291.226 71.0895 290.529 70.3605 290.072 69.8399L291.422 66.5214C292.143 67.3406 293.004 68.2049 294.009 69.1109C295.013 70.0204 296.073 70.7944 297.192 71.4366C298.454 72.1621 299.319 72.4641 299.782 72.3391C300.25 72.2176 300.487 71.8011 300.487 71.0895C300.487 70.6382 300.396 70.2009 300.208 69.7739C300.023 69.3504 299.755 68.9026 299.402 68.441C299.054 67.9793 298.607 67.4656 298.071 66.9102C297.534 66.3513 296.913 65.73 296.212 65.0427C295.529 64.3658 294.863 63.6681 294.211 62.9496C293.559 62.2311 292.973 61.4743 292.443 60.6725C291.917 59.8707 291.495 59.0168 291.174 58.1108C290.857 57.2048 290.7 56.2433 290.7 55.2262C290.7 54.4452 290.801 53.751 291.003 53.1401C291.202 52.5326 291.509 52.0466 291.927 51.6926C292.342 51.342 292.879 51.1441 293.545 51.1129C294.207 51.0782 294.995 51.2275 295.909 51.5642L295.919 47.7285L299.828 49.9744L299.835 49.9813Z" fill="#CEF5FE"/>
<path d="M289.27 83.6445V84.5887L303.209 92.6175V91.6699L289.27 83.6445Z" fill="#EDECFD"/>
<path d="M289.27 86.616L303.209 94.6414V93.6972L289.27 85.6719V86.616Z" fill="#EDECFD"/>
<path d="M289.27 88.6429L303.209 96.6683V95.7241L289.27 87.6953V88.6429Z" fill="#EDECFD"/>
<path d="M289.27 90.6703L303.209 98.6956V97.7515L289.27 89.7227V90.6703Z" fill="#EDECFD"/>
<path d="M289.27 92.6976L303.209 100.723V99.7788L289.27 91.75V92.6976Z" fill="#EDECFD"/>
<path d="M289.27 94.7215L303.209 102.75V101.806L289.27 93.7773V94.7215Z" fill="#EDECFD"/>
<path d="M289.27 98.8691V99.8133L303.209 107.839V106.894L289.27 98.8691Z" fill="#EDECFD"/>
<path d="M289.27 101.837L303.209 109.866V108.921L289.27 100.893V101.837Z" fill="#EDECFD"/>
<path d="M289.27 103.864L303.209 111.893V110.949L289.27 102.92V103.864Z" fill="#EDECFD"/>
<path d="M289.27 105.891L303.209 113.92V112.976L289.27 104.947V105.891Z" fill="#EDECFD"/>
<path d="M289.27 107.919L303.209 115.948V115.003L289.27 106.975V107.919Z" fill="#EDECFD"/>
<path d="M289.27 109.946L303.209 117.975V117.031L289.27 109.002V109.946Z" fill="#EDECFD"/>
<path d="M312.693 56.7744V60.1935L326.629 68.2223V64.8032L312.693 56.7744Z" fill="#EDECFD"/>
<path d="M312.693 62.2205L326.629 70.2493V69.3052L312.693 61.2764V62.2205Z" fill="#CEF5FE"/>
<path d="M329.766 66.6289V70.048L343.702 78.0768V74.6542L329.766 66.6289Z" fill="#EDECFD"/>
<path d="M329.766 72.0721L343.702 80.1009V79.1567L329.766 71.1279V72.0721Z" fill="#CEF5FE"/>
<path d="M312.693 67.5107V70.9264L326.629 78.9552V75.5361L312.693 67.5107Z" fill="#EDECFD"/>
<path d="M312.693 72.9539L326.629 80.9827V80.0386L312.693 72.0098V72.9539Z" fill="#CEF5FE"/>
<path d="M329.766 77.3623V80.7814L343.702 88.8102V85.3911L329.766 77.3623Z" fill="#EDECFD"/>
<path d="M329.766 82.8084L343.702 90.8338V89.8896L329.766 81.8643V82.8084Z" fill="#CEF5FE"/>
<path d="M346.836 76.4805V79.8996L360.775 87.9284V84.5093L346.836 76.4805Z" fill="#EDECFD"/>
<path d="M346.836 81.9266L360.775 89.9554V89.0112L346.836 80.9824V81.9266Z" fill="#CEF5FE"/>
<path d="M363.91 86.335V89.7541L377.846 97.7829V94.3603L363.91 86.335Z" fill="#EDECFD"/>
<path d="M363.91 91.7781L377.846 99.807V98.8628L363.91 90.834V91.7781Z" fill="#CEF5FE"/>
<path d="M305.492 147.896C305.13 146.969 304.638 146.125 304.018 145.372C303.585 144.845 302.968 144.22 302.152 143.519C302.912 143.661 303.519 143.637 303.986 143.453C304.446 143.265 304.802 142.953 305.05 142.502C305.297 142.054 305.423 141.502 305.423 140.846C305.423 139.943 305.196 138.985 304.736 137.965C304.272 136.941 303.613 135.983 302.752 135.087C302.253 134.563 301.633 134.049 300.918 133.539L300.925 130.582C300.925 130.349 300.761 130.068 300.559 129.95L298.861 128.974C298.659 128.856 298.491 128.95 298.491 129.183L298.484 132.029L296.926 131.133L296.933 128.287C296.933 128.055 296.769 127.773 296.567 127.655L294.869 126.68C294.667 126.562 294.499 126.656 294.499 126.888L294.492 129.735L289.716 126.989C289.506 126.867 289.335 126.965 289.335 127.204L289.329 129.082C289.329 129.322 289.496 129.613 289.709 129.735L290.012 129.908C290.469 130.168 290.779 130.398 290.939 130.582C291.1 130.769 291.211 130.963 291.281 131.161C291.347 131.363 291.375 131.751 291.375 132.345L291.344 143.414C291.344 143.994 291.309 144.348 291.243 144.477C291.173 144.605 291.061 144.664 290.901 144.664C290.741 144.661 290.43 144.532 289.974 144.268L289.67 144.095C289.461 143.973 289.29 144.07 289.29 144.31L289.283 146.188C289.283 146.427 289.451 146.722 289.663 146.84L294.44 149.586L294.433 152.408C294.433 152.651 294.604 152.946 294.816 153.068L296.476 154.022C296.689 154.144 296.86 154.047 296.86 153.804L296.867 150.982L298.429 151.877L298.422 154.703C298.422 154.946 298.592 155.241 298.805 155.362L300.465 156.317C300.677 156.438 300.848 156.341 300.848 156.098L300.855 153.109C301.64 153.446 302.299 153.647 302.829 153.71C303.84 153.828 304.631 153.602 305.189 153.033C305.747 152.467 306.029 151.655 306.029 150.603C306.029 149.722 305.848 148.816 305.489 147.892L305.492 147.896ZM295.674 133.622L297.578 134.716C298.69 135.354 299.464 135.875 299.893 136.281C300.325 136.684 300.653 137.139 300.883 137.642C301.106 138.142 301.221 138.655 301.221 139.176C301.221 139.679 301.096 140.051 300.855 140.297C300.611 140.547 300.252 140.624 299.778 140.544C299.3 140.457 298.565 140.131 297.567 139.558L295.664 138.465L295.678 133.622H295.674ZM301.016 148.979C300.674 149.281 300.262 149.368 299.778 149.243C299.293 149.121 298.687 148.85 297.947 148.427L296.682 147.698C296.26 147.455 295.998 147.278 295.908 147.174C295.81 147.066 295.744 146.934 295.702 146.778C295.671 146.657 295.653 146.289 295.643 145.674L295.657 141.373L297.902 142.665C298.889 143.234 299.617 143.758 300.099 144.241C300.58 144.723 300.935 145.24 301.176 145.789C301.413 146.334 301.532 146.9 301.532 147.486C301.532 148.18 301.361 148.677 301.019 148.972L301.016 148.979Z" fill="#CEF5FE"/>
<g style="mix-blend-mode:overlay">
<path d="M351.652 161.388V187.599L345.795 184.225V158.073L351.652 161.388Z" fill="white"/>
</g>
<g style="mix-blend-mode:overlay">
<path d="M408.381 194.014V220.225L402.527 216.851V190.699L408.381 194.014Z" fill="white"/>
</g>
<g style="mix-blend-mode:overlay">
<path d="M358.744 175.221V191.678L352.887 188.304V171.906L358.744 175.221Z" fill="white"/>
</g>
<g style="mix-blend-mode:overlay">
<path d="M365.836 174.138V195.756L359.979 192.382V170.826L365.836 174.138Z" fill="white"/>
</g>
<g style="mix-blend-mode:overlay">
<path d="M372.928 189.095V199.835L367.07 196.461V185.78L372.928 189.095Z" fill="white"/>
</g>
<g style="mix-blend-mode:overlay">
<path d="M380.02 184.27V203.913L374.162 200.539V180.955L380.02 184.27Z" fill="white"/>
</g>
<g style="mix-blend-mode:overlay">
<path d="M387.111 192.018V207.992L381.254 204.614V188.706L387.111 192.018Z" fill="white"/>
</g>
<g style="mix-blend-mode:overlay">
<path d="M323.291 149.698V171.316L317.438 167.939V146.383L323.291 149.698Z" fill="white"/>
</g>
<g style="mix-blend-mode:overlay">
<path d="M330.383 164.651V175.391L324.529 172.017V161.34L330.383 164.651Z" fill="white"/>
</g>
<g style="mix-blend-mode:overlay">
<path d="M337.475 159.826V179.469L331.621 176.096V156.515L337.475 159.826Z" fill="white"/>
</g>
<g style="mix-blend-mode:overlay">
<path d="M344.567 167.578V183.549L338.713 180.175V164.263L344.567 167.578Z" fill="white"/>
</g>
<g style="mix-blend-mode:overlay">
<path d="M394.203 202.001V212.071L388.346 208.693V198.689L394.203 202.001Z" fill="white"/>
</g>
<g style="mix-blend-mode:overlay">
<path d="M401.295 203.549V216.146L395.438 212.772V200.234L401.295 203.549Z" fill="white"/>
</g>
<path d="M444.02 228.427L479.046 208.607L481.553 191.72L446.366 211.065L444.02 228.427Z" fill="#F9F4FF"/>
<path d="M445.258 214.293C445.258 214.293 445.269 214.282 445.276 214.279C445.293 214.265 445.307 214.251 445.325 214.237C445.325 214.237 445.328 214.234 445.332 214.23C445.349 214.213 445.366 214.195 445.384 214.175C445.387 214.168 445.394 214.164 445.398 214.157C445.412 214.143 445.422 214.129 445.433 214.112C445.436 214.105 445.443 214.098 445.447 214.091C445.882 213.383 445.726 212.449 445.461 211.731C445.157 210.915 444.645 210.158 443.937 209.641C443.93 209.638 443.923 209.631 443.919 209.627C443.724 209.485 443.512 209.364 443.281 209.28C443.051 209.197 442.804 209.148 442.56 209.183C442.466 209.197 442.371 209.221 442.284 209.259C442.274 209.263 442.267 209.266 442.256 209.27C442.228 209.284 442.204 209.294 442.18 209.311L548.866 147.886C548.891 147.872 548.919 147.858 548.943 147.844C548.95 147.841 548.96 147.837 548.971 147.834C549.264 147.709 549.605 147.736 549.902 147.834C550.198 147.931 550.484 148.097 550.728 148.288C550.735 148.295 550.742 148.299 550.749 148.306C550.763 148.316 550.777 148.33 550.791 148.34C551.687 149.076 552.328 150.239 552.416 151.399C552.457 151.947 552.349 152.641 551.819 152.95L445.133 214.376C445.154 214.362 445.175 214.352 445.196 214.338C445.203 214.334 445.206 214.331 445.213 214.324C445.227 214.313 445.241 214.303 445.255 214.293H445.258Z" fill="#C7F4FE"/>
<path d="M443.664 209.457C444.818 210.12 445.749 211.724 445.742 213.043C445.739 214.362 444.801 214.893 443.65 214.23C442.5 213.567 441.565 211.964 441.572 210.644C441.576 209.325 442.514 208.794 443.664 209.457Z" fill="#8FE9FE"/>
<path d="M445.445 214.095C445.445 214.095 445.435 214.108 445.431 214.115C445.421 214.129 445.407 214.147 445.396 214.16C445.393 214.167 445.386 214.171 445.382 214.178C445.365 214.195 445.347 214.216 445.33 214.233C445.33 214.233 445.327 214.237 445.323 214.24C445.309 214.254 445.292 214.268 445.274 214.282C445.267 214.285 445.264 214.292 445.257 214.296C445.243 214.306 445.229 214.317 445.215 214.327C445.208 214.331 445.205 214.334 445.198 214.341C445.177 214.355 445.156 214.369 445.135 214.379L551.821 152.953C552.351 152.648 552.459 151.95 552.417 151.402C552.4 151.159 552.351 150.912 552.288 150.673C537.763 159.087 467.296 199.53 445.581 212.109C445.762 212.758 445.811 213.504 445.449 214.095H445.445Z" fill="#AFEFFE"/>
<path d="M445.131 209.173L480.158 189.353L466.825 180.675L431.635 200.02L445.131 209.173Z" fill="#F9F4FF"/>
<path d="M440.553 195.114L455.58 203.261L450.835 205.948L437.408 196.843L440.553 195.114Z" fill="#EDD9FF"/>
<path d="M451.285 189.216L465.019 197.922L469.098 195.614L454.437 187.484L451.285 189.216Z" fill="#EDD9FF"/>
<path d="M452.867 209.922L453.188 223.237L456.27 221.495L457.822 207.068L452.867 209.922Z" fill="#EDD9FF"/>
<path d="M466.539 202.053V215.684L469.098 214.237L470.594 199.717L466.539 202.053Z" fill="#EDD9FF"/>
<path d="M1.58966 323.096C1.56525 323.055 1.54433 323.013 1.52342 322.971C-1.76445 317.341 1.2933 311.975 1.2933 311.975L6.99041 313.988L170.519 220.083C174.148 218 178.615 218 182.244 220.083L246.042 256.832L250.013 253.26C254.271 259.418 250.488 265.725 250.488 265.725H250.477C250.006 266.742 249.236 267.641 248.145 268.273L83.1168 363.039C78.9329 365.441 73.7832 365.441 69.6028 363.039L3.42013 324.922C2.62867 324.467 2.03246 323.846 1.62104 323.145H1.61755C1.61755 323.145 1.60012 323.114 1.59315 323.096H1.58966Z" fill="#EDD9FF"/>
<path d="M3.42453 309.538L170.52 213.584C174.149 211.502 178.616 211.502 182.245 213.584L248.142 251.542C251.974 253.742 251.974 259.248 248.142 261.448L83.1143 356.215C78.9304 358.617 73.7806 358.617 69.6002 356.215L3.42104 318.098C0.112257 316.196 0.112257 311.44 3.42104 309.538H3.42453Z" fill="#A445FF"/>
<path d="M9.83594 308.25L85.8403 351.917L244.899 260.33L169.111 216.788L9.83594 308.25Z" fill="url(#paint3_linear_2159_5004)"/>
<path d="M1.52328 320.181C1.5442 320.222 1.56861 320.264 1.58953 320.306C1.59999 320.323 1.60696 320.337 1.61393 320.354H1.61742C2.02884 321.059 2.62505 321.677 3.41651 322.131L69.5922 360.248C73.7726 362.65 78.9258 362.65 83.1062 360.248L248.134 265.482C249.229 264.854 249.999 263.951 250.467 262.938H250.477C250.477 262.938 251.607 261.039 251.934 258.317C252.426 262.448 250.477 265.728 250.477 265.728H250.467C249.996 266.745 249.225 267.644 248.134 268.276L83.1062 363.043C78.9223 365.445 73.7726 365.445 69.5922 363.043L3.41999 324.922C2.62853 324.467 2.03233 323.846 1.62091 323.145H1.61742C1.61742 323.145 1.59999 323.114 1.59301 323.096C1.56861 323.055 1.54769 323.013 1.52677 322.971C0.0414768 320.427 -0.143313 317.942 0.0937758 315.977C0.261133 317.303 0.679525 318.733 1.52677 320.181H1.52328Z" fill="#E2C3FF"/>
<path d="M228.95 276.007L228.514 275.753C228.378 275.67 228.197 275.656 228.037 275.746L211.116 285.469C210.67 285.726 210.395 286.202 210.395 286.715V287.288C210.395 287.493 210.506 287.659 210.66 287.75H210.666V287.753L211.113 288.01L211.155 287.864L211.067 287.809C211.116 287.798 211.162 287.777 211.207 287.753L228.239 277.965C228.546 277.787 228.738 277.461 228.738 277.104V276.146C228.738 276.146 228.738 276.146 228.738 276.142L228.954 276.003L228.95 276.007Z" fill="#D7AEFF"/>
<path d="M228.49 276.01L211.569 285.733C211.123 285.99 210.848 286.465 210.848 286.979V287.552C210.848 287.965 211.297 288.225 211.657 288.017L228.689 278.228C228.995 278.051 229.187 277.725 229.187 277.367V276.409C229.187 276.052 228.797 275.829 228.486 276.006L228.49 276.01Z" fill="#E5E3FC"/>
<path d="M30.3676 336.54L36.8213 340.265C37.4663 340.636 37.8638 341.323 37.8638 342.063V343.01L29.0078 337.911V336.939C29.081 335.842 30.3711 336.54 30.3711 336.54H30.3676Z" fill="#48366F"/>
<path d="M29.5478 336.328C29.492 336.418 29.4502 336.533 29.4397 336.693V337.665L37.8599 342.51V343.007L29.0039 337.908V336.936C29.0353 336.481 29.2759 336.342 29.5478 336.328Z" fill="#E5E3FC"/>
<path d="M43.9017 344.388C43.4414 344.124 43.0684 344.336 43.0684 344.86C43.0684 345.384 43.4379 346.026 43.8982 346.287C44.3584 346.55 44.7315 346.339 44.7315 345.815C44.7315 345.29 44.3619 344.648 43.9017 344.388Z" fill="#48366F"/>
<path d="M43.5007 344.294C43.4554 344.385 43.4275 344.499 43.424 344.635C43.424 345.159 43.7936 345.801 44.2538 346.061C44.4037 346.148 44.5362 346.165 44.6582 346.155C44.5292 346.412 44.2364 346.481 43.8982 346.287C43.4414 346.023 43.0684 345.384 43.0684 344.86C43.0684 344.506 43.2462 344.312 43.4972 344.291L43.5007 344.294Z" fill="#E5E3FC"/>
<path d="M46.7083 346.006C46.2481 345.742 45.875 345.954 45.875 346.478C45.875 347.002 46.2446 347.644 46.7048 347.905C47.165 348.169 47.5381 347.957 47.5381 347.433C47.5381 346.909 47.1685 346.266 46.7083 346.006Z" fill="#48366F"/>
<path d="M46.3073 345.913C46.262 346.003 46.2341 346.117 46.2306 346.253C46.2306 346.777 46.6002 347.419 47.0604 347.679C47.2104 347.766 47.3429 347.784 47.4649 347.773C47.3359 348.03 47.043 348.099 46.7048 347.905C46.2446 347.641 45.875 347.003 45.875 346.478C45.875 346.124 46.0528 345.93 46.3039 345.909L46.3073 345.913Z" fill="#E5E3FC"/>
<path d="M49.5149 347.627C49.0547 347.363 48.6816 347.575 48.6816 348.099C48.6816 348.623 49.0512 349.266 49.5114 349.526C49.9717 349.79 50.3447 349.578 50.3447 349.054C50.3447 348.53 49.9752 347.888 49.5149 347.627Z" fill="#48366F"/>
<path d="M49.114 347.53C49.0686 347.62 49.0408 347.735 49.0373 347.87C49.0373 348.394 49.4069 349.036 49.8671 349.297C50.017 349.383 50.1495 349.401 50.2715 349.39C50.1425 349.647 49.8496 349.717 49.5114 349.522C49.0547 349.258 48.6816 348.62 48.6816 348.096C48.6816 347.742 48.8595 347.547 49.1105 347.526L49.114 347.53Z" fill="#E5E3FC"/>
<path d="M52.3216 349.244C51.8614 348.981 51.4883 349.192 51.4883 349.716C51.4883 350.241 51.8579 350.883 52.3181 351.143C52.7783 351.407 53.1514 351.195 53.1514 350.671C53.1514 350.147 52.7818 349.505 52.3216 349.244Z" fill="#48366F"/>
<path d="M51.9206 349.151C51.8753 349.241 51.8474 349.356 51.8439 349.491C51.8439 350.015 52.2135 350.657 52.6737 350.918C52.8237 351.005 52.9561 351.022 53.0782 351.011C52.9492 351.268 52.6563 351.338 52.3181 351.143C51.8579 350.88 51.4883 350.241 51.4883 349.717C51.4883 349.363 51.6661 349.168 51.9171 349.147L51.9206 349.151Z" fill="#E5E3FC"/>
<path d="M55.1302 350.862C54.6699 350.598 54.2969 350.81 54.2969 351.334C54.2969 351.858 54.6665 352.5 55.1267 352.76C55.5869 353.024 55.96 352.812 55.96 352.288C55.96 351.764 55.5904 351.122 55.1302 350.862Z" fill="#48366F"/>
<path d="M54.7253 350.768C54.68 350.858 54.6521 350.973 54.6486 351.108C54.6486 351.632 55.0182 352.275 55.4784 352.535C55.6283 352.622 55.7608 352.639 55.8829 352.629C55.7539 352.886 55.461 352.955 55.1228 352.761C54.666 352.497 54.293 351.858 54.293 351.334C54.293 350.98 54.4708 350.785 54.7218 350.765L54.7253 350.768Z" fill="#E5E3FC"/>
<path d="M57.9368 352.483C57.4766 352.219 57.1035 352.431 57.1035 352.955C57.1035 353.479 57.4731 354.121 57.9333 354.381C58.3936 354.645 58.7666 354.433 58.7666 353.909C58.7666 353.385 58.397 352.743 57.9368 352.483Z" fill="#48366F"/>
<path d="M57.5319 352.385C57.4866 352.476 57.4587 352.59 57.4552 352.725C57.4552 353.25 57.8248 353.892 58.2851 354.152C58.435 354.239 58.5675 354.256 58.6895 354.246C58.5605 354.503 58.2676 354.572 57.9294 354.378C57.4692 354.114 57.0996 353.475 57.0996 352.951C57.0996 352.597 57.2774 352.403 57.5285 352.382L57.5319 352.385Z" fill="#E5E3FC"/>
<path d="M60.7435 354.101C60.2832 353.837 59.9102 354.049 59.9102 354.573C59.9102 355.097 60.2797 355.739 60.74 356C61.1967 356.263 61.5733 356.052 61.5733 355.527C61.5733 355.003 61.2037 354.361 60.7435 354.101Z" fill="#48366F"/>
<path d="M60.3386 354.007C60.2933 354.098 60.2654 354.212 60.2619 354.348C60.2619 354.872 60.6315 355.514 61.0917 355.774C61.2416 355.861 61.3741 355.878 61.4961 355.868C61.3671 356.125 61.0743 356.194 60.7361 356C60.2758 355.736 59.9062 355.097 59.9062 354.573C59.9062 354.219 60.0841 354.025 60.3351 354.004L60.3386 354.007Z" fill="#E5E3FC"/>
<g style="mix-blend-mode:overlay" opacity="0.5">
<path d="M151.007 250.712C159.295 255.506 172.823 255.506 181.163 250.712C189.503 245.919 189.548 238.116 181.26 233.322C172.976 228.528 159.445 228.528 151.105 233.322C142.765 238.116 142.719 245.919 151.007 250.712ZM154.494 235.38C160.954 231.812 171.435 231.812 177.854 235.38C184.273 238.949 184.238 244.752 177.777 248.321C171.316 251.889 160.836 251.889 154.417 248.321C147.998 244.752 148.033 238.949 154.494 235.38Z" fill="white"/>
</g>
<g style="mix-blend-mode:overlay" opacity="0.5">
<path d="M186.009 270.859C194.297 275.653 207.825 275.653 216.165 270.859C224.504 266.065 224.55 258.262 216.262 253.468C207.978 248.675 194.446 248.675 186.107 253.468C177.767 258.262 177.721 266.065 186.009 270.859ZM189.496 255.527C195.956 251.958 206.437 251.958 212.856 255.527C219.275 259.095 219.24 264.899 212.779 268.467C206.318 272.036 195.838 272.036 189.419 268.467C183 264.899 183.035 259.095 189.496 255.527Z" fill="white"/>
</g>
<g style="mix-blend-mode:overlay" opacity="0.5">
<path d="M113.558 272.209C121.845 277.003 135.373 277.003 143.713 272.209C152.053 267.416 152.099 259.613 143.811 254.819C135.527 250.025 121.995 250.025 113.655 254.819C105.315 259.613 105.27 267.416 113.558 272.209ZM117.044 256.877C123.505 253.309 133.986 253.309 140.405 256.877C146.823 260.446 146.789 266.249 140.328 269.818C133.867 273.386 123.386 273.386 116.968 269.818C110.549 266.249 110.584 260.446 117.044 256.877Z" fill="white"/>
</g>
<g style="mix-blend-mode:overlay" opacity="0.5">
<path d="M148.564 292.356C156.851 297.15 170.379 297.15 178.719 292.356C187.059 287.562 187.104 279.759 178.817 274.965C170.533 270.172 157.001 270.172 148.661 274.965C140.321 279.759 140.276 287.562 148.564 292.356ZM152.05 277.024C158.511 273.455 168.992 273.455 175.41 277.024C181.829 280.592 181.794 286.396 175.334 289.964C168.873 293.533 158.392 293.533 151.974 289.964C145.555 286.396 145.59 280.592 152.05 277.024Z" fill="white"/>
</g>
<path d="M154.47 248.348C160.893 251.885 171.332 251.878 177.775 248.32C184.236 244.752 184.27 238.948 177.852 235.38C177.712 235.304 177.569 235.231 177.426 235.158L180.93 233.145C181.038 233.204 181.15 233.263 181.258 233.325C189.546 238.119 189.5 245.922 181.16 250.716C172.82 255.509 159.292 255.509 151.005 250.716C150.897 250.653 150.796 250.587 150.688 250.521L154.467 248.348H154.47Z" fill="#BBF2FE"/>
<path d="M185.089 254.104L188.555 256.096C183.057 259.686 183.332 265.083 189.423 268.464C195.842 272.033 206.323 272.033 212.784 268.464C219.244 264.896 219.279 259.092 212.86 255.524C212.675 255.423 212.487 255.322 212.299 255.229L215.806 253.212C215.963 253.295 216.12 253.379 216.27 253.465C224.558 258.259 224.513 266.062 216.173 270.856C207.833 275.65 194.305 275.65 186.017 270.856C178.085 266.267 177.792 258.925 185.096 254.101L185.089 254.104Z" fill="#BBF2FE"/>
<path d="M113.658 254.819C117.542 252.587 122.549 251.396 127.629 251.24L127.444 254.229C123.654 254.392 119.945 255.274 117.047 256.874C110.587 260.442 110.552 266.246 116.971 269.814C123.389 273.383 133.87 273.383 140.331 269.814C146.792 266.246 146.826 260.442 140.408 256.874C139.857 256.568 139.278 256.291 138.671 256.037L142.339 254.041C142.848 254.284 143.34 254.541 143.817 254.816C152.105 259.609 152.06 267.412 143.72 272.206C135.38 277 121.852 277 113.564 272.206C105.28 267.412 105.322 259.609 113.662 254.816L113.658 254.819Z" fill="#BBF2FE"/>
<g style="mix-blend-mode:overlay" opacity="0.5">
<path d="M111.423 281.821L153.112 305.755L151.303 306.796L109.613 282.859L111.423 281.821Z" fill="white"/>
</g>
<g style="mix-blend-mode:overlay" opacity="0.5">
<path d="M108.066 283.744L149.755 307.681L147.949 308.719L106.26 284.782L108.066 283.744Z" fill="white"/>
</g>
<g style="mix-blend-mode:overlay" opacity="0.5">
<path d="M104.712 285.667L146.401 309.604L144.592 310.642L102.902 286.705L104.712 285.667Z" fill="white"/>
</g>
<g style="mix-blend-mode:overlay" opacity="0.5">
<path d="M143.047 311.528L141.237 312.566L115.314 297.681L117.124 296.644L143.047 311.528Z" fill="white"/>
</g>
<g style="mix-blend-mode:overlay" opacity="0.5">
<path d="M94.6709 291.422L136.36 315.359L134.551 316.4L92.8613 292.463L94.6709 291.422Z" fill="white"/>
</g>
<g style="mix-blend-mode:overlay" opacity="0.5">
<path d="M91.3154 293.345L133.005 317.282L131.195 318.323L89.5059 294.386L91.3154 293.345Z" fill="white"/>
</g>
<g style="mix-blend-mode:overlay" opacity="0.5">
<path d="M87.9584 295.268L129.651 319.205L127.842 320.246L86.1523 296.309L87.9584 295.268Z" fill="white"/>
</g>
<g style="mix-blend-mode:overlay" opacity="0.5">
<path d="M126.293 321.129L124.483 322.17L98.5605 307.285L100.37 306.244L126.293 321.129Z" fill="white"/>
</g>
<g style="mix-blend-mode:overlay" opacity="0.5">
<path d="M77.9189 301.027L119.608 324.965L117.799 326.002L76.1094 302.069L77.9189 301.027Z" fill="white"/>
</g>
<g style="mix-blend-mode:overlay" opacity="0.5">
<path d="M74.5635 302.95L116.253 326.887L114.443 327.925L72.7539 303.992L74.5635 302.95Z" fill="white"/>
</g>
<g style="mix-blend-mode:overlay" opacity="0.5">
<path d="M71.2099 304.873L112.899 328.81L111.09 329.848L69.4004 305.914L71.2099 304.873Z" fill="white"/>
</g>
<g style="mix-blend-mode:overlay" opacity="0.5">
<path d="M109.545 330.734L107.735 331.775L81.8125 316.891L83.6186 315.85L109.545 330.734Z" fill="white"/>
</g>
<g style="mix-blend-mode:overlay" opacity="0.5">
<path d="M61.1635 310.632L102.853 334.566L101.047 335.607L59.3574 311.67L61.1635 310.632Z" fill="white"/>
</g>
<g style="mix-blend-mode:overlay" opacity="0.5">
<path d="M57.8095 312.555L99.4988 336.488L97.6893 337.53L56 313.593L57.8095 312.555Z" fill="white"/>
</g>
<g style="mix-blend-mode:overlay" opacity="0.5">
<path d="M54.456 314.478L96.1453 338.411L94.3358 339.453L52.6465 315.515L54.456 314.478Z" fill="white"/>
</g>
<g style="mix-blend-mode:overlay" opacity="0.5">
<path d="M92.791 340.338L90.9815 341.376L65.0586 326.492L66.8681 325.454L92.791 340.338Z" fill="white"/>
</g>
<g style="mix-blend-mode:multiply" opacity="0.08">
<path d="M220.781 337.994C220.781 343.538 232.786 348.029 247.593 348.029C262.401 348.029 274.402 343.538 274.402 337.994C274.402 332.451 262.397 327.959 247.593 327.959C232.789 327.959 220.781 332.454 220.781 337.994Z" fill="#B465FF"/>
</g>
<path d="M228.594 250.529C229.511 241.17 236.707 238.997 236.707 238.997L234.654 230.857C234.654 230.857 223.681 235.543 222.778 250.504C221.889 265.264 233.719 266.413 233.719 266.413L234.437 261.254C234.437 261.254 227.841 258.241 228.597 250.532L228.594 250.529Z" fill="#D4D1FA"/>
<path d="M266.939 234.234C266.939 234.234 266.632 235.654 266.939 236.605C267.218 237.469 267.187 238.646 267.134 238.823C267.082 238.997 268.585 239.083 268.585 239.083L270.035 238.021L271.785 234.297C271.785 234.297 272.068 232.821 272.037 232.759C272.005 232.693 270.862 231.981 270.862 231.981L266.939 234.234Z" fill="#A6EEFE"/>
<path d="M273.62 224.164L269.129 223.116C268.861 223.054 268.596 223.213 268.544 223.467L266.486 233.755C266.441 233.991 266.595 234.224 266.839 234.29L271.263 235.512C271.545 235.588 271.835 235.425 271.887 235.154L273.979 224.685C274.024 224.449 273.868 224.22 273.62 224.161V224.164Z" fill="#D4D1FA"/>
<path d="M266.566 233.37L271.995 234.609L273.906 225.063L268.46 223.887L266.566 233.37Z" fill="#B467FF"/>
<path d="M268.954 238.924C268.954 238.924 268.525 235.935 270.701 234.297C271.36 233.801 271.876 233.103 272.207 232.391C272.451 231.874 273.03 231.114 273.466 231.964C273.94 232.888 272.458 234.512 272.103 235.245C271.75 235.977 271.248 239.066 271.248 239.066L268.951 238.924H268.954Z" fill="#BDF2FE"/>
<path d="M266.919 228.521C266.919 228.521 264.901 232.377 266.159 234.797C266.159 234.797 267.271 235.887 268.052 234.859C268.833 233.832 269.071 230.479 268.83 229.684C268.593 228.889 267.596 228.295 266.916 228.524L266.919 228.521Z" fill="#BDF2FE"/>
<path d="M260.633 333.398C259.727 333.662 258.851 334.061 258.06 334.565C256.257 335.71 255.128 334.565 255.128 334.565L248.838 334.947C248.095 335.839 248.364 342.659 248.364 342.659C249.974 343.44 252.108 343.406 253.841 343.25C257.882 342.878 261.546 340.858 264.58 338.164C264.793 337.973 264.988 337.769 265.166 337.553C264.702 332.763 261.431 333.218 260.63 333.402L260.633 333.398Z" fill="#38D8FC"/>
<path d="M264.967 336.606C261.78 339.435 257.938 341.556 253.698 341.941C252.01 342.094 249.967 342.128 248.332 341.479C248.346 342.184 248.363 342.656 248.363 342.656C249.974 343.437 252.108 343.402 253.841 343.246C257.882 342.875 261.546 340.854 264.58 338.161C264.792 337.97 264.988 337.765 265.165 337.55C265.13 337.189 265.075 336.863 265.008 336.561C264.991 336.574 264.981 336.592 264.963 336.609L264.967 336.606Z" fill="#15D1FC"/>
<path d="M244 330.882C243.094 331.146 242.219 331.545 241.427 332.049C239.625 333.194 238.495 332.049 238.495 332.049L232.205 332.43C231.462 333.323 231.731 340.14 231.731 340.14C233.342 340.921 235.475 340.886 237.208 340.73C241.249 340.359 244.914 338.338 247.947 335.645C248.16 335.454 248.355 335.249 248.533 335.034C248.069 330.244 244.799 330.698 243.997 330.882H244Z" fill="#38D8FC"/>
<path d="M248.338 334.086C245.151 336.911 241.309 339.036 237.069 339.421C235.381 339.574 233.338 339.608 231.703 338.956C231.717 339.66 231.735 340.132 231.735 340.132C233.345 340.913 235.479 340.879 237.212 340.723C241.253 340.351 244.917 338.331 247.951 335.637C248.163 335.446 248.359 335.242 248.536 335.026C248.502 334.665 248.446 334.339 248.38 334.037C248.362 334.051 248.352 334.068 248.334 334.082L248.338 334.086Z" fill="#15D1FC"/>
<path d="M239.186 228.08L240.099 228.344L239.827 229.531L239.186 228.08Z" fill="#928AF3"/>
<path d="M232.716 266.409C232.716 266.409 233.183 276.281 233.448 282.661L230.46 331.667C230.446 331.948 230.589 332.216 230.843 332.379C231.98 333.101 235.491 334.385 241.237 333.719C241.767 333.656 242.164 333.243 242.192 332.761L245.044 266.94L232.716 266.413V266.409Z" fill="#C589FF"/>
<path d="M256.263 270.116L243.597 265.718C243.597 265.718 243.248 271.754 245.187 279.297L247.251 335.11C247.282 335.474 247.547 335.79 247.931 335.905C249.461 336.366 253.617 337.307 258.547 335.87C258.885 335.773 259.105 335.474 259.091 335.152L256.263 270.112V270.116Z" fill="#C589FF"/>
<path d="M256.827 270.477C256.796 270.279 256.765 270.085 256.74 269.904C256.399 267.544 256.249 265.131 256.116 262.75C255.851 258.019 256.207 253.35 256.193 248.629C256.182 244.131 255.9 239.615 255.9 235.113C255.9 235.078 255.914 234.679 255.883 234.665L249.192 231.94L239.185 229.833L235.503 230.673C233.914 230.767 232.599 231.825 232.31 233.245C231.787 235.8 231.204 239.913 231.965 243.277C232.467 245.498 232.428 250.112 232.895 254.103C232.941 254.52 232.041 265.576 231.7 268.79C231.7 268.79 231.616 269.442 232.484 270.095C234.994 272.192 238.432 272.997 241.605 273.417C246.19 274.028 250.932 273.868 255.517 273.33C257.131 273.139 257.009 271.702 256.824 270.477H256.827Z" fill="#AC56FF"/>
<path d="M239.869 226.64C240.183 226.945 239.838 227.119 240.19 227.362C242.289 228.799 245.479 229.33 248.038 229.944C248.446 230.042 248.889 230.128 249.342 230.201L249.196 231.937C246.476 232.614 243.934 232.423 242.055 231.947C240.653 231.593 239.51 231.163 239.51 229.826L239.663 226.532L239.872 226.64H239.869Z" fill="#A4EDFE"/>
<path d="M239.187 228.08L238.27 230.034C238.27 230.034 242.809 235.199 250.507 232.475L249.346 231.305C249.346 231.305 242.283 232.245 239.187 228.08Z" fill="#D4D1FA"/>
<path d="M240.351 211.977C245.117 210.089 250.584 211.898 252.959 216.042C255.152 219.864 255.113 225.112 252.711 228.865C251.327 231.031 247.021 230.357 244.828 229.944C241.781 229.368 238.681 228.035 237.042 225.522C235.24 222.755 234.814 219.017 236.052 215.997C236.837 214.081 238.43 212.738 240.351 211.977Z" fill="#B6F1FE"/>
<path d="M245.407 211.301C243.743 211.124 242.004 211.322 240.351 211.978C238.433 212.738 236.84 214.081 236.052 215.997C234.814 219.017 235.24 222.756 237.042 225.522C238.681 228.035 241.781 229.368 244.828 229.945C245.783 230.125 247.139 230.344 248.478 230.365L249.155 227.418C248.046 227.418 247.363 226.192 247.16 224.779C246.955 223.367 247.76 222.902 248.457 222.863C249.155 222.825 249.319 225.706 249.319 225.706L250.344 225.408C250.201 223.415 250.532 220.694 250.532 220.694C250.532 220.694 253.119 220.972 255.413 218.851C255.413 218.851 255.277 211.953 245.403 211.301H245.407Z" fill="#B467FF"/>
<path d="M271.939 238.129L266.696 236.911C266.183 237.043 266.274 237.307 266.295 237.491C267.002 243.649 264.778 247.293 264.07 247.859C260.901 250.386 255.873 234.651 255.873 234.651C255.873 234.651 253.963 234.29 252.317 238.199C252.317 238.199 251.696 239.889 252.317 243C253.415 247.984 255.967 254.114 262.065 255.405C264.307 255.881 266.424 255.409 267.933 253.791C268.648 253.024 269.164 252.125 269.624 251.212C271.357 247.762 272.319 243.985 272.159 240.184C272.152 240.032 272.138 238.175 271.943 238.129H271.939Z" fill="#D4D1FA"/>
<path d="M253.784 227.67C254.168 226.743 253.923 226.296 253.923 226.296C252.421 226.296 251.521 228.333 251.521 228.333C250.479 227.837 250.336 225.202 250.336 225.202L249.325 225.705L249.161 227.417L248.484 228.239V230.367C249.143 231.065 250.242 231.954 250.873 232.446C251.186 232.693 251.671 232.689 251.95 232.412C253.125 231.249 252.679 228.923 252.679 228.923C252.375 228.937 252.173 228.805 252.173 228.805C252.417 227.74 253.791 227.67 253.791 227.67H253.784Z" fill="#B467FF"/>
<g style="mix-blend-mode:multiply" opacity="0.07">
<path d="M237.325 200.471C237.325 206.889 224.432 212.089 208.526 212.089C192.62 212.089 179.727 206.889 179.727 200.471C179.727 194.052 192.62 188.853 208.526 188.853C224.432 188.853 237.325 194.056 237.325 200.471Z" fill="#B465FF"/>
</g>
<path d="M231.614 139.239L236.611 138.746C238.319 142.189 238.347 143.266 238.166 145.373C237.984 147.476 237.751 148.222 236.032 148.986C234.313 149.753 233.675 147.972 233.675 147.972C233.706 144.619 232.849 142.797 232.849 142.797C232.849 142.797 232.081 143.175 232.05 144.751C232.019 146.327 231.015 145.956 231.015 145.956C231.015 145.956 230.453 145.584 230.652 143.647C230.854 141.714 231.607 139.242 231.607 139.236L231.614 139.239Z" fill="#B6F1FE"/>
<path d="M237.311 136.691L230.4 138.903L230.672 140.402C230.672 140.402 234.86 139.878 237.673 138.347L237.311 136.691Z" fill="#F5EAFF"/>
<path d="M168.726 128.354C168.726 128.354 167.91 129.586 169.545 129.184C169.545 129.184 171.215 128.969 172.411 128.965C172.425 128.969 172.659 129.031 172.436 129.218C172.436 129.218 172.436 129.222 172.436 129.225C171.324 129.527 169.329 130.322 167.345 132.457C167.345 132.457 166.146 133.884 167.851 135.786C169.061 137.14 170.619 137.008 171.599 136.036C172.579 135.064 173.077 134.686 174.395 133.96C175.605 133.294 177.694 133.051 178.523 131.811L175.908 127.407C175.908 127.407 171.791 126.646 168.73 128.358L168.726 128.354Z" fill="#B6F1FE"/>
<path d="M177.166 126.428L175.398 127.264C175.398 127.264 176.155 129.705 178.393 132.384L180.377 131.374L177.166 126.428Z" fill="#F5EAFF"/>
<path d="M193.14 200.158C194.256 199.127 198.565 197.162 199.071 196.753C199.576 196.34 199.245 194.465 199.245 194.465L206.929 194.018C207.989 197.839 207.397 201.363 207.397 201.363C202.819 203.147 195.48 204.792 193.708 204.476C191.937 204.164 192.024 201.186 193.14 200.158Z" fill="#44DAFD"/>
<path d="M192.588 203.535C200.757 202.973 205.921 200.908 207.518 200.172C207.469 200.911 207.395 201.359 207.395 201.359C202.818 203.143 195.478 204.785 193.707 204.473C193.156 204.375 192.804 204.008 192.588 203.532V203.535Z" fill="#36D7FC"/>
<path d="M211.869 201.317C212.904 200.248 217.019 198.093 217.493 197.662C217.967 197.232 217.531 195.409 217.531 195.409L225.041 194.562C226.3 198.252 225.916 201.741 225.916 201.741C221.53 203.733 214.425 205.733 212.671 205.521C210.917 205.309 210.833 202.383 211.869 201.317Z" fill="#44DAFD"/>
<path d="M211.521 204.66C219.502 203.678 224.446 201.373 225.97 200.571C225.963 201.3 225.918 201.745 225.918 201.745C221.532 203.737 214.426 205.736 212.672 205.525C212.125 205.459 211.759 205.115 211.521 204.66Z" fill="#36D7FC"/>
<path d="M198.947 139.649C198.947 139.649 197.089 166.03 198.434 194.542C198.434 194.542 202.615 195.983 208.054 194.712C208.054 194.712 207.712 164.624 209.306 150.962L210.512 142.45L211.098 133.915L199.599 133.321L198.947 139.649Z" fill="#AC56FF"/>
<path d="M222.367 132.522C222.367 132.522 222.59 159.535 222.664 163.412C222.737 167.286 226.478 194.559 226.478 194.559C226.478 194.559 225.429 198.232 215.865 196.625L211.301 165.287L210.14 141.103L210.035 135.678L222.367 132.526V132.522Z" fill="#AC56FF"/>
<path d="M211.33 134.269C211.33 134.269 206.323 135.158 201.703 133.058L202.352 130.635L211.326 131.791V134.266L211.33 134.269Z" fill="#AC56FF"/>
<path d="M214.192 90.8758L213.68 91.5665L205.298 95.4404L204.607 92.6947C209.353 89.6678 214.192 90.8723 214.192 90.8723V90.8758Z" fill="#8D85F3"/>
<path d="M213.406 88.498C213.406 88.498 213.49 90.2336 213.992 92.1324L210.418 96.0062L207.339 98.6686H205.38L204.836 96.447C204.836 96.447 205.589 91.8442 205.129 90.192L213.409 88.498H213.406Z" fill="#A4EDFE"/>
<path d="M211.49 132.308C211.49 132.308 207.589 133.168 202.571 131.016L201.104 95.0654L205.507 95.9367L209.743 95.2251L214.998 92.4551L216.73 95.0689L214.248 122.623L211.49 132.311V132.308Z" fill="#F5EAFF"/>
<path d="M203.945 100.689C203.945 100.689 202.791 118.909 203.348 138.604C203.348 138.604 200.022 137.747 198.46 136.563C198.46 136.563 198.209 111.39 199.196 95.069L204.555 93.2744L204.426 94.774L203.941 100.689H203.945Z" fill="#AC56FF"/>
<path d="M214.191 90.876L215.285 92.6949L209.574 98.6688L207.092 95.6592L214.191 90.876Z" fill="#E7E5FC"/>
<path d="M225.324 95.6587C225.324 95.6587 223.194 94.2945 215.286 92.6943C215.286 92.6943 209.122 102.514 210.639 138.666C210.639 138.666 222.545 137.188 224.107 136.001C224.107 136.001 221.51 112.463 225.324 95.6552V95.6587Z" fill="#AC56FF"/>
<path d="M215.304 85.5122C215.304 85.5122 214.369 91.9999 208.254 92.3921C201.194 92.8468 200.148 83.9745 200.754 79.7432C201.323 75.786 205.928 71.3429 211.022 73.9845C214.844 75.97 216.301 79.5557 215.307 85.5122H215.304Z" fill="#B6F1FE"/>
<path d="M207.092 95.6587L204.139 98.1857L204.606 92.6943L207.092 95.6587Z" fill="#E7E5FC"/>
<path d="M207.092 95.6592L204.924 97.5163L205.813 99.0401L207.748 99.2414L208.979 97.9467L207.092 95.6592Z" fill="#C68AFF"/>
<path d="M205.813 99.04L203.801 125.508L205.917 129.409L208.152 125.924L207.748 99.2414L205.813 99.04Z" fill="#C68AFF"/>
<path d="M199.196 95.0684C199.196 95.0684 190.285 117.568 176.195 126.441L179.685 132.109C179.685 132.109 191.296 125.788 200.608 110.737L199.2 95.0684H199.196Z" fill="#AC56FF"/>
<path d="M210.939 73.4746C206.437 71.93 199.889 74.4743 199.227 79.1049C199.032 80.4829 199.269 82.4129 199.726 84.3637L209.098 81.434L209.415 82.7947L210.496 84.0999C210.419 85.4293 210.45 86.1236 210.311 86.8594L211.556 87.3836C211.556 87.3836 211.901 83.0238 212.863 82.8745C213.825 82.7253 214.749 83.7285 214.251 84.8427C213.749 85.9569 213.906 87.1857 212.863 87.5919C212.863 87.5919 212.786 89.199 212.996 90.3098C215.607 88.0431 216.283 84.5372 216.283 84.5372C217.661 77.5359 215.715 75.1095 210.939 73.4712V73.4746Z" fill="#B467FF"/>
<path d="M225.325 95.6592C225.325 95.6592 233.107 105.33 237.58 137.018L230.182 139.476C230.182 139.476 226.176 116.031 221.266 106.833C216.357 97.6377 225.321 95.6592 225.321 95.6592H225.325Z" fill="#AC56FF"/>
<g style="mix-blend-mode:multiply" opacity="0.08">
<path d="M178.119 388.125C178.119 394.685 164.936 400 148.682 400C132.427 400 119.244 394.682 119.244 388.125C119.244 381.568 132.423 376.25 148.682 376.25C164.94 376.25 178.119 381.568 178.119 388.125Z" fill="#B465FF"/>
</g>
<path d="M182.98 273.115C182.928 273.167 182.869 273.219 182.816 273.271H182.82C182.82 273.271 182.911 274.586 186.028 277.054C186.097 276.995 186.331 277.068 186.401 277.009C190.211 275.343 191.223 274.402 192.572 272.545C193.925 270.688 194.266 269.918 193.44 268.113C192.614 266.308 190.839 267.335 190.839 267.335C188.475 270.116 186.498 271.032 186.498 271.032C186.498 271.032 186.157 270.195 187.251 268.876C188.35 267.557 187.283 267.179 187.283 267.179C187.283 267.179 186.568 267.103 185.351 268.835C184.134 270.563 182.977 273.115 182.977 273.118L182.98 273.115Z" fill="#B6F1FE"/>
<path d="M182.819 272.879C167.865 283.848 154.41 282.56 154.41 282.56L157.266 289.315C175.354 287.892 186.616 276.51 186.616 276.51L182.822 272.882L182.819 272.879Z" fill="#B6F1FE"/>
<path d="M157.266 281.48C157.266 281.48 176.128 278.898 182.815 272.271C182.815 272.271 187.209 273.518 186.616 277.943C186.616 277.943 172.628 289.315 157.314 291.457L157.266 281.484V281.48Z" fill="#AC56FF"/>
<path d="M165.878 385.47C164.707 384.491 160.321 382.769 159.794 382.38C159.268 381.991 159.47 380.062 159.47 380.062L151.852 380.1C151.06 384.06 151.883 387.611 151.883 387.611C156.524 389.135 163.88 390.34 165.61 389.906C167.339 389.472 167.053 386.448 165.882 385.47H165.878Z" fill="#BC76FF"/>
<path d="M166.649 388.875C158.543 388.827 153.306 387.053 151.678 386.407C151.775 387.157 151.88 387.608 151.88 387.608C156.521 389.132 163.877 390.337 165.607 389.903C166.144 389.767 166.468 389.368 166.649 388.872V388.875Z" fill="#B15FFF"/>
<path d="M149.187 389.215C148.11 388.135 143.895 386.028 143.403 385.594C142.912 385.161 143.288 383.258 143.288 383.258L135.698 382.616C134.551 386.49 135.053 390.1 135.053 390.1C139.537 392.033 146.757 393.887 148.518 393.609C150.279 393.332 150.268 390.294 149.187 389.215Z" fill="#BC76FF"/>
<path d="M149.645 392.732C142.079 392.062 136.71 389.816 134.967 388.993C134.998 389.684 135.054 390.1 135.054 390.1C139.538 392.034 146.758 393.887 148.519 393.61C149.049 393.526 149.419 393.19 149.645 392.732Z" fill="#B15FFF"/>
<path d="M141.025 281.377C142.737 280.676 142.883 280.141 142.883 280.141C143.358 278.294 143.434 276.607 143.434 276.607L151.241 278.256C151.08 278.843 151.077 279.815 151.133 280.811C151.464 280.86 151.732 280.811 151.732 280.811L153.009 282.276L153.476 285.792L147.367 288.434L142.392 285.83C142.392 285.83 139.31 282.078 141.022 281.377H141.025Z" fill="#A4EDFE"/>
<path d="M158.065 320.111C158.065 320.111 159.892 353.58 160.244 381.555C160.244 381.555 156.556 383.36 150.587 382.197C150.587 382.197 150.067 344.656 147.665 329.425L145.643 323.798L146.706 320.316L157.253 317.588L158.072 320.108L158.065 320.111Z" fill="#AC56FF"/>
<path d="M135.52 319.382C135.52 319.382 135.817 353.414 135.817 357.183C135.817 360.953 134.555 384.116 134.555 384.116C134.555 384.116 136.699 386.567 144.446 385.623L146.008 360.165L148.128 328.151L147.41 323.138L135.52 319.379V319.382Z" fill="#AC56FF"/>
<path d="M145.395 321.122C145.395 321.122 150.115 321.986 154.47 319.945L153.86 317.588L145.395 318.713V321.122Z" fill="#A343FF"/>
<path d="M142.546 280.537L142.675 280.853C151.716 285.487 151.134 280.804 151.134 280.804H151.733L153.546 283.296L155.039 282.991L153.804 322.014C149.073 324.107 145.391 323.27 145.391 323.27L142.64 309.792L140.301 282.991L142.543 280.533L142.546 280.537Z" fill="#E5E3FC"/>
<path d="M157.266 281.48L151.123 280.536L151.412 283.101L151.97 289.447C151.97 289.447 153.595 307.122 153.232 325.134C153.205 326.46 154.536 327.4 155.781 326.928C156.921 326.498 158.142 325.963 158.811 325.439C158.811 325.439 160.784 304.359 157.266 281.484V281.48Z" fill="#AC56FF"/>
<path d="M142.804 280.27C135.179 283.026 131.521 286.094 131.521 286.094C134.816 297.025 134.75 326.283 134.75 326.283C135.737 327.054 140.531 327.925 143.585 328.415C144.962 328.637 146.218 327.592 146.263 326.2C147.312 293.165 142.804 280.27 142.804 280.27Z" fill="#AC56FF"/>
<path d="M140.493 275.26C140.493 275.26 142.013 281.366 148.066 281.053C155.049 280.692 155.251 272.081 154.261 268.096C153.334 264.371 148.425 260.136 143.665 263.243C140.092 265.572 138.962 269.668 140.496 275.26H140.493Z" fill="#B6F1FE"/>
<path d="M146.12 271.615C146.12 271.615 145.729 274.358 145.949 276.253L144.809 275.975C144.809 275.975 144.512 273.792 144.537 273.23C144.561 272.667 143.079 272.435 142.978 273.934C142.881 275.434 143.745 276.715 144.363 277.148L143.39 279.672C143.39 279.672 139.342 277.388 139.122 271.435C138.903 265.465 142.034 261.636 146.639 261.559C146.639 261.559 154.345 261.136 155.481 269.206C155.481 269.206 153.33 271.254 146.116 271.615H146.12Z" fill="#B467FF"/>
<path d="M126.168 324.738C125.931 318.178 128.539 306.337 134.1 297.923L129.014 293.119C129.014 293.119 121.235 306.15 120.883 324.79C119.513 328.702 119.61 329.872 120.056 332.121C120.503 334.37 120.834 335.148 122.724 335.776C124.613 336.405 125.067 334.412 125.067 334.412C124.631 330.795 125.304 328.73 125.304 328.73C125.304 328.73 126.151 329.049 126.374 330.747C126.597 332.444 127.601 331.927 127.601 331.927C127.601 331.927 128.145 331.458 127.699 329.393C127.256 327.327 126.168 324.748 126.168 324.745V324.738Z" fill="#B6F1FE"/>
<path d="M137.208 294.098C137.086 290.384 136.308 282.789 131.521 286.097C131.521 286.097 120.476 301.776 119.754 324.363C122.167 325.442 123.774 325.022 126.926 324.363C129.189 306.445 133.91 299.943 135.234 297.753C136.13 296.274 137.239 295.136 137.204 294.098H137.208Z" fill="#AC56FF"/>
<path d="M77.3388 307.104C77.3388 307.104 69.4939 305.09 63.3924 307.104L46.4824 307.902C46.4824 307.902 38.1145 327.504 64.6127 328.809C64.6127 328.809 85.2429 330.729 90.8808 322.179C96.5151 313.63 77.3388 307.104 77.3388 307.104Z" fill="#B66AFF"/>
<path d="M77.3395 307.104C77.3395 307.104 70.1327 305.257 64.1602 306.875L65.37 312.54C65.37 312.54 72.5141 315.796 82.8309 315.015C82.8309 315.015 88.8453 313.828 91.4812 316.917C89.058 311.092 77.3395 307.101 77.3395 307.101V307.104Z" fill="#AF5BFF"/>
<path d="M91.1436 282.57L76.9288 275.538C76.5871 275.367 76.1757 275.42 75.8828 275.669L65.3672 284.705L81.6078 293.15L91.3703 284.188C91.8828 283.716 91.7642 282.879 91.1367 282.567L91.1436 282.57Z" fill="url(#paint4_linear_2159_5004)"/>
<path d="M91.1421 282.57L76.9272 275.537C76.7912 275.471 76.6483 275.437 76.5053 275.437C76.2822 275.437 76.0591 275.516 75.8847 275.666L65.3691 284.701L81.6097 293.146L91.3722 284.184C91.8847 283.712 91.7662 282.875 91.1386 282.563L91.1421 282.57ZM90.9643 283.747L81.5156 292.421L66.443 284.583L76.2822 276.127C76.345 276.075 76.4252 276.044 76.5088 276.044C76.5611 276.044 76.6134 276.054 76.6622 276.079L90.8771 283.111C91.0445 283.195 91.0828 283.344 91.0898 283.406C91.1003 283.469 91.1037 283.622 90.9678 283.747H90.9643Z" fill="#AC56FF"/>
<path d="M85.2961 292.671C85.2961 292.671 87.259 291.116 88.1237 290.592C89.8043 289.572 90.8572 287.801 90.8781 286.923C90.899 286.045 90.3551 284.601 89.7589 284.323C89.1592 284.046 88.3399 286.038 87.7541 286.739C86.478 288.27 85.697 288.253 85.697 288.253C85.7389 288.253 86.0422 287.562 86.0701 287.513C86.3386 287.013 86.6419 286.527 86.9348 286.038C86.9592 286 86.9836 285.955 86.9766 285.91C86.9697 285.854 86.9173 285.809 86.8651 285.795C86.1642 285.625 85.2508 286.441 84.9858 287.017C84.7103 287.607 81.9629 290.669 81.9629 290.669L85.2996 292.664L85.2961 292.671Z" fill="#B6F1FE"/>
<path d="M66.2066 281.647C66.2066 281.647 68.1556 280.074 68.8564 279.349C70.2197 277.936 72.1861 277.297 73.0508 277.467C73.9155 277.637 75.216 278.477 75.3589 279.12C75.5019 279.762 73.3716 280.126 72.5557 280.546C70.7775 281.456 70.6276 282.216 70.6276 282.219C70.6346 282.174 71.3807 282.028 71.433 282.015C71.9839 281.862 72.5243 281.671 73.0648 281.494C73.1066 281.48 73.1554 281.466 73.1972 281.48C73.253 281.497 73.2844 281.556 73.2844 281.615C73.2984 282.334 72.3012 283.042 71.6771 283.177C71.039 283.316 67.4409 285.326 67.4409 285.326L66.2031 281.65L66.2066 281.647Z" fill="#B6F1FE"/>
<path d="M55.4573 271.191L54.5996 276.134L62.7304 277.207L62.0644 273.097L55.4573 271.191Z" fill="#A6EEFE"/>
<path d="M53.2949 267.151C53.9852 271.956 58.0157 275.357 62.2938 274.746C66.5718 274.135 69.4762 269.744 68.7858 264.94C68.0955 260.136 64.065 256.734 59.7869 257.345C55.5088 257.956 52.6045 262.347 53.2949 267.151Z" fill="#B6F1FE"/>
<path d="M63.63 276.471C63.63 276.471 59.5995 276.44 56.6707 275.291C53.4979 274.045 50.6075 274.461 48.9828 277.207C48.0797 278.731 43.9551 312.064 43.9551 312.064C43.9551 312.064 57.4378 317.552 69.0865 313.047L66.7191 285.312C66.7191 285.312 66.1473 278.089 63.63 276.468V276.471Z" fill="#A6EEFE"/>
<path d="M63.6049 276.475C63.6049 276.475 69.2288 277.072 70.7594 283.813L73.9287 294.618L83.7609 288.231C83.7609 288.231 85.811 288.863 85.6541 293.122L73.8938 302.123C72.5131 303.05 70.5083 302.068 69.7378 300.519L63.6049 288.231C63.6049 288.231 60.2752 282.862 63.6049 276.478V276.475Z" fill="#B9F1FE"/>
<path d="M85.4465 305.039C85.4465 305.039 84.5748 303.39 82.2214 303.737C79.8679 304.085 73.3375 309.205 73.2434 311.565C73.1492 313.925 75.2028 313.585 75.2028 313.585L85.4465 305.039Z" fill="#28D5FC"/>
<path d="M87.2798 305.279C86.45 304.765 85.4284 304.657 84.4836 304.9C78.3576 306.483 74.4352 312.936 74.4352 312.936C74.1214 314.044 76.8619 314.446 76.8619 314.446C78.2565 311.791 80.9795 310.354 81.6559 310.114C82.3323 309.875 85.0275 310.683 85.0275 310.683C89.3369 307.625 88.5071 306.036 87.2833 305.275L87.2798 305.279Z" fill="#3DD9FD"/>
<path d="M60.102 256.539C58.6063 256.362 57.0477 256.56 55.5624 257.206C53.8401 257.956 52.4106 259.278 51.7028 261.17C50.5906 264.145 50.9741 267.831 52.5919 270.556C54.0632 273.034 56.8455 274.346 59.5825 274.916C60.4402 275.093 61.657 275.308 62.8599 275.329L63.4666 272.423C62.4729 272.423 61.8592 271.215 61.6745 269.82C61.4897 268.428 62.2149 267.97 62.839 267.932C63.4631 267.894 63.613 270.736 63.613 270.736L64.5335 270.445C64.4045 268.484 64.7043 265.8 64.7043 265.8C64.7043 265.8 67.0264 266.071 69.087 263.985C69.087 263.985 68.9649 257.185 60.0985 256.543L60.102 256.539Z" fill="#AD58FF"/>
<path d="M54.0168 259.553C54.0168 259.553 53.3404 256.918 48.3231 255.446L46.6914 260.473C46.6914 260.473 52.4164 259.921 53.5251 261.083L54.0168 259.553Z" fill="#AD58FF"/>
<g style="mix-blend-mode:multiply" opacity="0.07">
<path d="M321.785 332.469C321.785 338.651 334.208 343.663 349.535 343.663C364.862 343.663 377.285 338.651 377.285 332.469C377.285 326.287 364.862 321.274 349.535 321.274C334.208 321.274 321.785 326.287 321.785 332.469Z" fill="#B465FF"/>
</g>
<path d="M362.379 327.074C361.545 327.317 360.737 327.685 360.004 328.147C358.341 329.206 357.302 328.147 357.302 328.147L351.504 328.498C350.817 329.32 351.068 335.606 351.068 335.606C352.553 336.328 354.52 336.297 356.117 336.151C359.841 335.811 363.219 333.947 366.019 331.462C366.214 331.288 366.395 331.097 366.559 330.9C366.13 326.484 363.118 326.901 362.379 327.074Z" fill="#36D7FC"/>
<path d="M366.375 330.032C363.439 332.639 359.893 334.593 355.985 334.951C354.43 335.093 352.547 335.124 351.037 334.524C351.051 335.173 351.068 335.61 351.068 335.61C352.554 336.332 354.52 336.301 356.117 336.155C359.841 335.815 363.219 333.951 366.019 331.465C366.214 331.292 366.396 331.101 366.559 330.903C366.528 330.57 366.476 330.271 366.417 329.99C366.403 330.004 366.389 330.021 366.375 330.032Z" fill="#15D1FC"/>
<path d="M347.217 324.899C346.384 325.142 345.575 325.509 344.846 325.971C343.183 327.03 342.144 325.971 342.144 325.971L336.346 326.322C335.659 327.144 335.91 333.431 335.91 333.431C337.395 334.153 339.362 334.121 340.959 333.976C344.682 333.635 348.061 331.771 350.861 329.286C351.056 329.113 351.237 328.922 351.401 328.724C350.972 324.308 347.96 324.725 347.221 324.899H347.217Z" fill="#36D7FC"/>
<path d="M351.213 327.855C348.277 330.462 344.731 332.416 340.822 332.774C339.267 332.916 337.385 332.947 335.875 332.347C335.889 332.996 335.906 333.433 335.906 333.433C337.392 334.155 339.358 334.124 340.955 333.978C344.679 333.638 348.057 331.774 350.857 329.289C351.052 329.115 351.233 328.924 351.397 328.726C351.366 328.393 351.314 328.095 351.254 327.813C351.24 327.827 351.227 327.845 351.213 327.855Z" fill="#15D1FC"/>
<path d="M335.491 225.9C335.491 225.9 325.843 229.444 336.366 242.76L335.491 225.9Z" fill="#96EAFE"/>
<path d="M335.896 263.069C335.896 263.069 336.136 270.394 336.391 276.722L334.738 326.085C334.738 326.085 337.758 327.477 343.995 326.981C344.968 326.904 345.683 325.241 345.742 324.273L348.284 261.504L335.896 263.069Z" fill="#BE7AFF"/>
<path d="M346.986 261.619C346.986 261.619 345.24 267.19 347.091 274.671L349.723 329.054C349.723 329.054 354.786 331.154 360.989 329.054L359.064 265.979L346.99 261.619H346.986Z" fill="#BE7AFF"/>
<path d="M357.662 227.31C357.662 227.31 361.103 229.723 363.443 234.482C365.782 239.241 366.18 246.856 365.315 247.189C364.45 247.523 358.955 249.838 356.386 247.068C353.82 244.301 357.658 227.307 357.658 227.307L357.662 227.31Z" fill="#96EAFE"/>
<path d="M360.473 268.343C360.501 266.749 358.995 251.081 358.995 251.081C358.754 240.379 357.663 227.31 357.663 227.31L349.236 225.286L340.763 224.346L337.134 225.332C335.551 225.491 334.296 226.595 334.08 228.015C333.769 230.035 333.63 232.069 333.689 234.107C333.752 236.304 334.536 238.518 334.864 240.709C336.14 249.203 334.707 259.547 334.052 268.02C334.052 268.02 334.003 268.669 334.902 269.28C341.813 274.487 359.302 271.165 359.302 271.165C360.885 270.95 360.452 269.592 360.473 268.346V268.343Z" fill="#9FECFE"/>
<path d="M340.595 221.083C340.874 221.374 341.167 221.638 341.474 221.867C343.311 223.217 346.065 223.703 348.248 224.224C348.597 224.307 348.869 224.418 349.252 224.474L349.231 225.29C346.979 226.057 344.876 226.748 343.273 226.345C342.077 226.046 340.822 225.564 340.752 224.241L340.588 221.079H340.591L340.595 221.083Z" fill="#A4EDFE"/>
<path d="M357.663 227.31C357.663 227.31 353.625 233.211 355.128 236.123C356.631 239.035 360.013 245.832 360.013 245.832L362.52 240.024L357.663 227.31Z" fill="#96EAFE"/>
<path d="M339.326 207.754C343.248 205.202 348.405 206.15 351.198 209.84C353.774 213.242 354.608 218.368 353.094 222.385C352.223 224.703 348.286 224.689 346.268 224.61C343.464 224.502 340.49 223.665 338.621 221.458C336.564 219.028 335.567 215.446 336.17 212.315C336.554 210.329 337.746 208.781 339.326 207.754Z" fill="#B6F1FE"/>
<path d="M343.705 206.337C342.195 206.41 340.686 206.865 339.326 207.75C337.746 208.777 336.554 210.325 336.17 212.311C335.567 215.442 336.564 219.024 338.621 221.454C340.494 223.662 343.464 224.498 346.268 224.606C347.146 224.64 348.387 224.651 349.58 224.47L349.695 221.492C348.712 221.659 347.903 220.562 347.488 219.215C347.073 217.868 347.711 217.292 348.325 217.153C348.938 217.014 349.559 219.798 349.559 219.798L350.42 219.354C349.963 217.434 349.81 214.727 349.81 214.727C349.81 214.727 352.153 214.612 353.844 212.2C353.844 212.2 352.585 205.493 343.705 206.327V206.337Z" fill="#38D8FC"/>
<g style="mix-blend-mode:multiply" opacity="0.07">
<path d="M450.9 354.156C450.9 359.436 461.51 363.716 474.599 363.716C487.688 363.716 498.294 359.436 498.294 354.156C498.294 348.877 487.684 344.597 474.599 344.597C461.514 344.597 450.9 348.877 450.9 354.156Z" fill="#B465FF"/>
</g>
<path d="M491.436 275.743C492.276 266.728 485.868 263.368 485.868 263.368L488.661 256.846C488.661 256.846 498.57 262.379 496.694 276.69C494.842 290.808 484.121 290.242 484.121 290.242L484.731 286.087C484.731 286.087 490.742 283.175 491.436 275.743Z" fill="#B6F1FE"/>
<path d="M489.819 256.495C489.819 256.495 495.457 261.768 497.803 270.727C497.803 270.727 496.363 273.101 490.513 273.382L486.545 267.186L489.819 256.495Z" fill="#D09FFF"/>
<path d="M478.875 347.672C479.569 347.842 480.232 348.134 480.852 348.505C482.533 349.508 483.537 348.432 483.537 348.432L489.304 348.623C490.004 349.422 489.931 355.67 489.931 355.67C488.477 356.426 486.525 356.447 484.931 356.347C481.365 356.117 477.439 354.215 474.656 351.959C474.576 351.893 474.615 351.379 474.615 351.272C474.611 351.022 474.615 350.768 474.639 350.522C474.681 350.029 474.782 349.54 474.981 349.085C475.431 348.061 476.299 347.512 477.421 347.499C477.92 347.492 478.405 347.554 478.875 347.672Z" fill="#BC76FF"/>
<path d="M456.72 347.405C457.55 347.648 458.352 348.009 459.077 348.47C460.73 349.522 461.762 348.47 461.762 348.47L467.522 348.821C468.202 349.64 467.954 355.881 467.954 355.881C466.479 356.596 464.527 356.565 462.937 356.423C459.238 356.083 455.88 354.233 453.101 351.765C452.906 351.591 452.728 351.404 452.564 351.206C452.99 346.818 455.985 347.235 456.717 347.405H456.72Z" fill="#BC76FF"/>
<path d="M452.753 350.341C455.671 352.93 459.193 354.874 463.073 355.228C464.618 355.371 466.49 355.398 467.99 354.805C467.976 355.45 467.958 355.884 467.958 355.884C466.483 356.599 464.531 356.568 462.941 356.426C459.242 356.086 455.884 354.236 453.105 351.768C452.91 351.594 452.732 351.407 452.568 351.209C452.6 350.875 452.652 350.58 452.711 350.303C452.725 350.317 452.739 350.334 452.753 350.344V350.341Z" fill="#B15FFF"/>
<path d="M477.725 295.479L477.01 324.228L480.479 349.394C480.479 349.394 487.483 350.459 490.374 348.786L487.449 323.329L488.509 292.456L477.728 295.479H477.725Z" fill="#B66AFF"/>
<path d="M461.915 322.731L466.545 293.785L479.048 295.764L471.859 324.172L469.335 351.157C462.86 352.646 459.67 349.431 459.67 349.431L461.915 322.728V322.731Z" fill="#B66AFF"/>
<path d="M465.422 292.668C465.398 291.155 466.9 279.127 466.9 279.127C467.085 270.342 468.013 260.126 468.215 257.467C468.243 257.082 468.518 256.762 468.895 256.669L475.268 255.381L482.887 254.485L486.307 255.013C487.817 255.2 489.891 255.909 490.219 257.231C490.728 259.286 490.969 260.747 490.581 263.604C490.303 265.673 489.403 272.98 489.403 276.024C489.403 284.167 489.807 285.594 489.574 293.786C489.574 293.786 489.619 294.404 488.81 294.983C482.601 299.923 466.472 295.344 466.472 295.344C465.049 295.14 465.44 293.852 465.419 292.668H465.422Z" fill="#D09FFF"/>
<path d="M483.034 251.389C482.783 251.663 482.521 251.916 482.243 252.132C480.59 253.412 478.017 254.242 476.054 254.735C475.74 254.815 475.402 254.881 475.057 254.933L475.266 255.381C477.288 256.106 479.181 256.766 480.621 256.384C481.695 256.099 482.825 255.644 482.888 254.388L483.034 251.389Z" fill="#A6EEFE"/>
<path d="M482.201 237.538C478.066 235.74 473.324 237.462 471.263 241.409C469.363 245.05 469.394 250.048 471.476 253.624C472.679 255.686 476.409 255.047 478.313 254.651C480.959 254.103 483.644 252.832 485.067 250.441C486.632 247.806 487.002 244.245 485.928 241.37C485.244 239.545 483.864 238.264 482.201 237.542V237.538Z" fill="#B6F1FE"/>
<path d="M477.814 236.897C479.257 236.727 480.763 236.918 482.2 237.543C483.863 238.268 485.247 239.546 485.927 241.371C487.001 244.246 486.631 247.807 485.066 250.442C483.643 252.837 480.955 254.104 478.312 254.652C477.482 254.826 476.307 255.03 475.146 255.051L474.557 252.243C475.516 252.243 476.109 251.073 476.286 249.73C476.464 248.383 475.763 247.942 475.16 247.908C474.557 247.873 474.414 250.619 474.414 250.619L473.525 250.334C473.651 248.439 473.361 245.846 473.361 245.846C473.361 245.846 471.119 246.11 469.125 244.089C469.125 244.089 469.244 237.518 477.81 236.897H477.814Z" fill="#AD58FF"/>
<path d="M474.628 350.855C477.47 353.098 481.392 354.972 484.969 355.201C486.542 355.302 488.456 355.278 489.927 354.583C489.931 355.236 489.927 355.673 489.927 355.673C488.473 356.43 486.521 356.451 484.928 356.35C481.361 356.121 477.435 354.219 474.653 351.963C474.572 351.897 474.611 351.383 474.611 351.275C474.611 351.137 474.618 350.998 474.625 350.855H474.628Z" fill="#B15FFF"/>
<path d="M464.475 246.89L474.15 246.189C474.464 246.165 474.736 246.401 474.761 246.713L475.032 250.424C475.053 250.736 474.82 251.011 474.506 251.032L464.831 251.733C464.517 251.754 464.241 251.521 464.22 251.209L463.949 247.498C463.928 247.185 464.161 246.911 464.475 246.89Z" fill="#B465FF"/>
<path d="M461.665 253.159L465.239 255.089C465.239 255.089 458.719 261.959 460.689 264.569C462.91 267.516 468.314 257.144 468.314 257.144C471.48 260.591 470.699 264.94 470.699 264.94C467.292 270.026 460.678 275.343 455.71 268.828C450.327 261.768 461.665 253.159 461.665 253.159Z" fill="#B6F1FE"/>
<path d="M468.895 256.669C468.895 256.669 467.661 256.998 466.57 258.227C465.478 259.456 463.616 263.007 461.127 264.565C461.127 264.565 461.946 271.352 464.363 272.674C464.363 272.674 472.012 266.759 471.796 262.049C471.796 262.049 471.82 258.435 468.892 256.665L468.895 256.669Z" fill="#D09FFF"/>
<path d="M462.895 249.324C463.149 248.237 464.924 247.939 465.667 248.147C466.113 248.268 466.657 248.334 467.176 248.39C467.183 248.383 468.191 247.602 468.679 249.008C468.679 249.015 468.679 249.022 468.683 249.029C468.927 249.56 469.017 250.33 469.098 250.573C469.227 250.945 468.316 253.645 467.232 253.944C466.51 254.142 465.705 254.721 465.238 255.093L461.664 253.163C462.037 252.229 462.696 250.178 462.895 249.327V249.324Z" fill="#B6F1FE"/>
<path d="M483.693 239.805C483.693 239.805 484.349 237.258 489.195 235.838L490.771 240.694C490.771 240.694 485.241 240.163 484.171 241.288L483.693 239.809V239.805Z" fill="#AD58FF"/>
<defs>
<linearGradient id="paint0_linear_2159_5004" x1="284.629" y1="144.942" x2="461.964" y2="144.942" gradientUnits="userSpaceOnUse">
<stop stop-color="#CE9BFF"/>
<stop offset="1" stop-color="#B86EFF"/>
</linearGradient>
<linearGradient id="paint1_linear_2159_5004" x1="330.438" y1="59.0958" x2="472.656" y2="59.0958" gradientUnits="userSpaceOnUse">
<stop stop-color="#CE9BFF"/>
<stop offset="1" stop-color="#B86EFF"/>
</linearGradient>
<linearGradient id="paint2_linear_2159_5004" x1="452.712" y1="93.4812" x2="466.924" y2="93.4812" gradientUnits="userSpaceOnUse">
<stop stop-color="#F9F2FF"/>
<stop offset="0.3" stop-color="#F6EDFF"/>
<stop offset="0.63" stop-color="#EFDFFF"/>
<stop offset="0.98" stop-color="#E4C9FF"/>
<stop offset="1" stop-color="#E4C8FF"/>
</linearGradient>
<linearGradient id="paint3_linear_2159_5004" x1="244.903" y1="284.354" x2="9.83941" y2="284.354" gradientUnits="userSpaceOnUse">
<stop stop-color="#CE9BFF"/>
<stop offset="1" stop-color="#B86EFF"/>
</linearGradient>
<linearGradient id="paint4_linear_2159_5004" x1="70.482" y1="275.006" x2="98.7867" y2="306.514" gradientUnits="userSpaceOnUse">
<stop stop-color="#CE9BFF"/>
<stop offset="1" stop-color="#B86EFF"/>
</linearGradient>
</defs>
</svg>
