<svg width="77" height="79" viewBox="0 0 77 79" fill="none" xmlns="http://www.w3.org/2000/svg">
<path d="M38.8047 49.8457C38.8047 52.3194 38.0707 54.7375 36.6957 56.7938C35.3207 58.8502 33.3665 60.4523 31.0805 61.3974C28.7945 62.3425 26.2794 62.5881 23.8538 62.1031C21.4281 61.618 19.2009 60.4242 17.4541 58.6727C15.7072 56.9212 14.5194 54.6908 14.0408 52.2639C13.5623 49.8369 13.8146 47.3225 14.7658 45.0391C15.717 42.7556 17.3243 40.8057 19.3843 39.4362C21.4443 38.0667 23.8643 37.3392 26.338 37.3457" stroke="black" stroke-width="3" stroke-linecap="round" stroke-linejoin="round"/>
<path d="M50.9345 43.7502C51.5138 45.9341 51.8063 48.1842 51.8047 50.4436C51.784 55.7251 50.0912 60.8644 46.969 65.1243C43.8468 69.3842 39.4557 72.5459 34.4255 74.1559C29.3953 75.7659 23.9844 75.7414 18.969 74.086C13.9535 72.4306 9.59121 69.2293 6.5077 64.9413C3.42419 60.6533 1.77792 55.4989 1.80502 50.2174C1.83211 44.936 3.53119 39.7987 6.65853 35.5426C9.78588 31.2865 14.1808 28.1301 19.213 26.5263C24.2451 24.9224 29.656 24.9535 34.6694 26.615" stroke="black" stroke-width="3" stroke-linecap="round" stroke-linejoin="round"/>
<path d="M26.8047 50.3457L49.8047 27.3457" stroke="#00CCF5" stroke-width="3" stroke-linecap="round" stroke-linejoin="round"/>
<path d="M1.80469 77.3457L9.80469 69.3457" stroke="black" stroke-width="3" stroke-linecap="round" stroke-linejoin="round"/>
<path d="M51.8047 77.3457L42.8047 69.3457" stroke="black" stroke-width="3" stroke-linecap="round" stroke-linejoin="round"/>
<path d="M63.9152 26.8699C63.3607 27.4249 62.6764 27.8436 61.9197 28.0908C61.1631 28.3381 60.3561 28.4068 59.5662 28.2911L49.2931 26.8699L47.8549 17.0536C47.7445 16.2943 47.8168 15.5207 48.0662 14.7927C48.3156 14.0648 48.7355 13.4021 49.2931 12.8561L60.2854 2.3457L63.4015 13.3849L74.8047 16.3595L63.9152 26.8699Z" stroke="#00CCF5" stroke-width="3" stroke-linecap="round" stroke-linejoin="round"/>
</svg>
