<svg width="100" height="100" viewBox="0 0 100 100" fill="none" xmlns="http://www.w3.org/2000/svg">
<path d="M14 86C18.7788 86 23.5575 86 28.3363 81C33.115 86 37.8938 86 39.1681 86C40.4425 86 45.2211 86 50 81C54.7789 86 59.5574 86 60.832 86C62.1062 86 66.8848 86 71.6637 81C76.4426 86 81.2211 86 86 86" stroke="#00CCF5" stroke-width="3" stroke-miterlimit="10" stroke-linecap="round" stroke-linejoin="round"/>
<path d="M14 73C18.7788 73 23.5575 73 28.3363 68C33.115 73 37.8938 73 39.1681 73C40.4425 73 45.2211 73 50 68C54.7789 73 59.5574 73 60.832 73C62.1062 73 66.8848 73 71.6637 68C76.4426 73 81.2211 73 86 73" stroke="#00CCF5" stroke-width="3" stroke-miterlimit="10" stroke-linecap="round" stroke-linejoin="round"/>
<path d="M50 29C59.9411 29 68 25.6421 68 21.5C68 17.3578 59.9411 14 50 14C40.0589 14 32 17.3578 32 21.5C32 25.6421 40.0589 29 50 29Z" stroke="black" stroke-width="3" stroke-miterlimit="10" stroke-linecap="round" stroke-linejoin="round"/>
<path d="M32 21V50.469C32 54.7256 40.0357 58 50 58C59.9643 58 68 54.7256 68 50.469V21" stroke="black" stroke-width="3" stroke-miterlimit="10" stroke-linecap="round" stroke-linejoin="round"/>
<path d="M32 41C32 44.9565 40.0357 48 50 48C59.9643 48 68 44.9565 68 41" stroke="black" stroke-width="3" stroke-miterlimit="10" stroke-linecap="round" stroke-linejoin="round"/>
<path d="M32 31C32 35.5217 40.0357 39 50 39C59.9643 39 68 35.5217 68 31" stroke="black" stroke-width="3" stroke-miterlimit="10" stroke-linecap="round" stroke-linejoin="round"/>
</svg>
