<svg width="100" height="100" viewBox="0 0 100 100" fill="none" xmlns="http://www.w3.org/2000/svg">
<path d="M26.5352 56.3999H39.3351" stroke="black" stroke-width="3" stroke-linecap="round" stroke-linejoin="round"/>
<path d="M39.332 56.4V35.0667" stroke="black" stroke-width="3" stroke-linecap="round" stroke-linejoin="round"/>
<path d="M47.8672 43.5999V39.3333" stroke="black" stroke-width="3" stroke-linecap="round" stroke-linejoin="round"/>
<path d="M30.8008 56.3998V43.5999" stroke="black" stroke-width="3" stroke-linecap="round" stroke-linejoin="round"/>
<path d="M41.4666 73.4666H22.2667C21.1351 73.4666 20.0498 73.0171 19.2497 72.2169C18.4495 71.4168 18 70.3315 18 69.1999V22.2667C18 21.1351 18.4495 20.0498 19.2497 19.2497C20.0498 18.4495 21.1351 18 22.2667 18H52.5002C53.631 18.0002 54.7155 18.4494 55.5153 19.2487L63.6846 27.4179C64.4839 28.2178 64.933 29.3023 64.9333 30.4331V37.2" stroke="black" stroke-width="3" stroke-linecap="round" stroke-linejoin="round"/>
<path d="M45.7344 60.6667C45.7344 64.6273 47.3077 68.4256 50.1082 71.2262C52.9088 74.0267 56.7071 75.6 60.6677 75.6C64.6283 75.6 68.4266 74.0267 71.2271 71.2262C74.0277 68.4256 75.601 64.6273 75.601 60.6667C75.601 56.7062 74.0277 52.9078 71.2271 50.1073C68.4266 47.3067 64.6283 45.7334 60.6677 45.7334C56.7071 45.7334 52.9088 47.3067 50.1082 50.1073C47.3077 52.9078 45.7344 56.7062 45.7344 60.6667Z" stroke="#00CCF5" stroke-width="3" stroke-linecap="round" stroke-linejoin="round"/>
<path d="M81.9999 82L71.1797 71.2708" stroke="#00CCF5" stroke-width="3" stroke-linecap="round" stroke-linejoin="round"/>
</svg>
