<svg width="100" height="100" viewBox="0 0 100 100" fill="none" xmlns="http://www.w3.org/2000/svg">
<path d="M51.5 44C70.0015 44 85 37.9558 85 30.5C85 23.0442 70.0015 17 51.5 17C32.9985 17 18 23.0442 18 30.5C18 37.9558 32.9985 44 51.5 44Z" stroke="black" stroke-width="3" stroke-linecap="round" stroke-linejoin="round"/>
<path d="M85 44V30" stroke="black" stroke-width="3" stroke-linecap="round" stroke-linejoin="round"/>
<path d="M18 30V47.7821C18 54.5481 30.6323 60.1376 47 61" stroke="black" stroke-width="3" stroke-linecap="round" stroke-linejoin="round"/>
<path d="M18 48V65.8657C18 72.3569 29.5996 77.7762 45 79" stroke="black" stroke-width="3" stroke-linecap="round" stroke-linejoin="round"/>
<path d="M77.9823 70.1582C77.5969 72.8776 76.2223 75.3684 74.1117 77.1713C72.0012 78.9739 69.2974 79.9669 66.499 79.9669C63.7006 79.9669 60.9967 78.9739 58.8862 77.1713C56.7757 75.3684 55.4009 72.8776 55.0156 70.1582" stroke="#00CCF5" stroke-width="3" stroke-linecap="round" stroke-linejoin="round"/>
<path d="M79.75 60.4083C81.5153 57.4118 82.6425 54.0947 83.0625 50.6582C78.7845 51.7012 74.268 51.2174 70.3204 49.2932L66.5 47.4082L62.6796 49.2932C58.7319 51.2174 54.2154 51.7012 49.9375 50.6582C50.3576 54.0947 51.4846 57.4118 53.25 60.4083H79.75Z" stroke="#00CCF5" stroke-width="3" stroke-linecap="round" stroke-linejoin="round"/>
<path d="M53.3594 60.4082C54.1765 65.9115 60.669 68.5332 66.6094 68.5332C72.5498 68.5332 78.9319 65.9115 79.749 60.4082H53.3594Z" stroke="#00CCF5" stroke-width="3" stroke-linecap="round" stroke-linejoin="round"/>
<path d="M66.5117 55.5551C66.0544 55.5551 65.6836 55.1913 65.6836 54.7426C65.6836 54.294 66.0544 53.9302 66.5117 53.9302" stroke="#00CCF5" stroke-width="3"/>
<path d="M66.5117 55.5551C66.9691 55.5551 67.3398 55.1913 67.3398 54.7426C67.3398 54.294 66.9691 53.9302 66.5117 53.9302" stroke="#00CCF5" stroke-width="3"/>
</svg>
