<svg width="100" height="100" viewBox="0 0 100 100" fill="none" xmlns="http://www.w3.org/2000/svg">
<path d="M47 14C69.7945 14 74.7148 32.8096 82.8409 53.936C82.9801 54.2998 83.0289 54.6918 82.9836 55.0787C82.9379 55.4656 82.799 55.8355 82.5793 56.1565C82.3594 56.4778 82.0647 56.7405 81.7211 56.9222C81.3772 57.104 80.9944 57.1994 80.6058 57.2H74.5392V66.8C74.5392 69.3459 73.5299 71.7878 71.7335 73.5882C69.9372 75.3885 67.501 76.4 64.9603 76.4H60.1709V86" stroke="black" stroke-width="3" stroke-linecap="round" stroke-linejoin="round"/>
<path d="M31 20C49.3621 20 53.3257 35.6747 59.8719 53.28C59.984 53.5831 60.0235 53.9099 59.9865 54.2324C59.9499 54.5546 59.8383 54.8629 59.661 55.1306C59.484 55.3982 59.2465 55.6171 58.9696 55.7685C58.6929 55.9202 58.3846 55.9995 58.0713 56.0001H53.1844V64.0002C53.1844 66.1219 52.3714 68.1566 50.9242 69.657C49.4774 71.1573 47.5145 71.9999 45.468 71.9999H41.6099V80" stroke="#27EBFF" stroke-width="3" stroke-linecap="round" stroke-linejoin="round"/>
<path d="M17 27C30.93 27 33.9369 39.0173 38.9028 52.5147C38.9879 52.7472 39.0178 52.9975 38.9899 53.2447C38.962 53.4918 38.8772 53.7282 38.7428 53.9336C38.6084 54.1387 38.4285 54.3066 38.2184 54.4226C38.0083 54.5387 37.7744 54.5997 37.5369 54.6H33.8295V60.7333C33.8295 62.3602 33.2128 63.92 32.115 65.0702C31.0172 66.2205 29.5283 66.8667 27.9758 66.8667H25.0489V73" stroke="black" stroke-width="3" stroke-linecap="round" stroke-linejoin="round"/>
</svg>
