<svg width="100" height="100" viewBox="0 0 100 100" fill="none" xmlns="http://www.w3.org/2000/svg">
<path d="M43 42.5C43 43.4849 43.1811 44.4602 43.5328 45.3701C43.8846 46.2801 44.4002 47.1069 45.0503 47.8033C45.7003 48.4997 46.4719 49.0522 47.3212 49.4291C48.1705 49.806 49.0807 50 50 50C50.9193 50 51.8295 49.806 52.6788 49.4291C53.5281 49.0522 54.2997 48.4997 54.9498 47.8033C55.5998 47.1069 56.1154 46.2801 56.4672 45.3701C56.8189 44.4602 57 43.4849 57 42.5C57 41.5151 56.8189 40.5398 56.4672 39.6299C56.1154 38.7199 55.5998 37.8931 54.9498 37.1967C54.2997 36.5003 53.5281 35.9478 52.6788 35.5709C51.8295 35.194 50.9193 35 50 35C49.0807 35 48.1705 35.194 47.3212 35.5709C46.4719 35.9478 45.7003 36.5003 45.0503 37.1967C44.4002 37.8931 43.8846 38.7199 43.5328 39.6299C43.1811 40.5398 43 41.5151 43 42.5Z" stroke="#3DD3F2" stroke-width="3" stroke-linecap="round" stroke-linejoin="round"/>
<path d="M62 62C61.2868 59.217 59.7371 56.7449 57.5778 54.9455C55.4186 53.1461 52.7631 52.1139 50 52C47.2369 52.1139 44.5814 53.1461 42.4222 54.9455C40.2629 56.7449 38.7132 59.217 38 62" stroke="#3DD3F2" stroke-width="3" stroke-linecap="round" stroke-linejoin="round"/>
<path d="M44 19C44 20.5913 44.6321 22.1174 45.7574 23.2426C46.8826 24.3679 48.4087 25 50 25C51.5913 25 53.1174 24.3679 54.2426 23.2426C55.3679 22.1174 56 20.5913 56 19C56 17.4087 55.3679 15.8826 54.2426 14.7574C53.1174 13.6321 51.5913 13 50 13C48.4087 13 46.8826 13.6321 45.7574 14.7574C44.6321 15.8826 44 17.4087 44 19Z" stroke="black" stroke-width="3" stroke-linecap="round" stroke-linejoin="round"/>
<path d="M75 50C75 51.5913 75.6321 53.1174 76.7574 54.2426C77.8826 55.3679 79.4087 56 81 56C82.5913 56 84.1174 55.3679 85.2426 54.2426C86.3679 53.1174 87 51.5913 87 50C87 48.4087 86.3679 46.8826 85.2426 45.7574C84.1174 44.6321 82.5913 44 81 44C79.4087 44 77.8826 44.6321 76.7574 45.7574C75.6321 46.8826 75 48.4087 75 50Z" stroke="black" stroke-width="3" stroke-linecap="round" stroke-linejoin="round"/>
<path d="M44 81C44 82.5913 44.6321 84.1174 45.7574 85.2426C46.8826 86.3679 48.4087 87 50 87C51.5913 87 53.1174 86.3679 54.2426 85.2426C55.3679 84.1174 56 82.5913 56 81C56 79.4087 55.3679 77.8826 54.2426 76.7574C53.1174 75.6321 51.5913 75 50 75C48.4087 75 46.8826 75.6321 45.7574 76.7574C44.6321 77.8826 44 79.4087 44 81Z" stroke="black" stroke-width="3" stroke-linecap="round" stroke-linejoin="round"/>
<path d="M13 50C13 51.5913 13.6321 53.1174 14.7574 54.2426C15.8826 55.3679 17.4087 56 19 56C20.5913 56 22.1174 55.3679 23.2426 54.2426C24.3679 53.1174 25 51.5913 25 50C25 48.4087 24.3679 46.8826 23.2426 45.7574C22.1174 44.6321 20.5913 44 19 44C17.4087 44 15.8826 44.6321 14.7574 45.7574C13.6321 46.8826 13 48.4087 13 50Z" stroke="black" stroke-width="3" stroke-linecap="round" stroke-linejoin="round"/>
<path d="M65 24C69.5661 26.6408 73.3592 30.4339 76 35" stroke="black" stroke-width="3" stroke-linecap="round" stroke-linejoin="round"/>
<path d="M76 65C73.3592 69.5661 69.5661 73.3592 65 76" stroke="black" stroke-width="3" stroke-linecap="round" stroke-linejoin="round"/>
<path d="M35 76C30.4339 73.3592 26.6408 69.5661 24 65" stroke="black" stroke-width="3" stroke-linecap="round" stroke-linejoin="round"/>
<path d="M24 35C26.6408 30.4339 30.4339 26.6408 35 24" stroke="black" stroke-width="3" stroke-linecap="round" stroke-linejoin="round"/>
</svg>
