<svg xmlns="http://www.w3.org/2000/svg" enable-background="new 0 0 300 300" viewBox="9.183 38.78 281.684 222.43" id="BitcoinCalculation"><path fill="#f1f0fb" d="M51.8 248.1c9.6 0 18.2-5.3 22.9-13.7 2.3-4.1 5.3-7.8 9-10.9 11.5-9.6 26.6-11.9 40.7-9.9 14.1 2 27.5 7.9 40.9 13.4 13.4 5.6 27.1 10.9 41.2 11.6 22.8 1.2 46.2-10.7 59.7-32.1 13.5-21.4 16-51.9 4.8-75-6.6-13.6-17.2-24-27.8-33.6C228.1 84.1 212.3 71.2 195 62c-17.4-9.2-36.6-14.7-55.6-12.7-24.2 2.5-46.8 16.9-64.3 36.4-17.5 19.6-30.4 44.1-41 69.6-6.2 15.1-11.8 31.1-12.1 47.8-.2 10 1.9 20 5.5 29 4 9.7 13.5 16 24 16h.3z" class="colorf2f0fb svgShape"></path><path fill="#9989fc" d="m167.6 206.5 14.3 20.1c1.2 1.7.7 4-1.1 5.1-1.8 1.1-4.2.7-5.4-1l-14.3-20.1c-.6-.8-.9-1.7-1.1-2.6l-.9-6c-.1-.4.3-.6.7-.4l5.5 3c1 .5 1.8 1.2 2.3 1.9z" class="colorb189fc svgShape"></path><path fill="#9485f6" d="m166.9 205.8-6.3 4c-.3-.5-.4-1.1-.5-1.7l-.5-3.4-.4-2.6c-.1-.4.3-.6.7-.4l2.4 1.3 3.1 1.7c.6.2 1.1.6 1.5 1.1z" class="colorf6a285 svgShape"></path><path fill="#ffffff" d="m172.5 226.7 2.9 4.1c1.2 1.7 3.6 2.1 5.4 1 1.8-1.1 2.3-3.4 1.1-5.1l-2.9-4.1-6.5 4.1z" class="colorffffff svgShape"></path><path fill="#533bec" d="m173.5 228.2 1.9 2.6c1.2 1.7 3.6 2.1 5.4 1 1.8-1.1 2.3-3.4 1.1-5.1L180 224l-6.5 4.2z" class="colorec3b66 svgShape"></path><path fill="#524c75" d="M162.4 203c-.3.5-.6.9-1.1 1.2s-1 .5-1.6.5l-.4-2.6c-.1-.4.3-.6.7-.4l2.4 1.3z" class="color4c5c75 svgShape"></path><path fill="#d2cdf1" d="m147.6 80.8 29.2 105.9c1.2 4.2-1.3 7.6-5.5 7.6h-75c-4.2 0-8.5-3.4-9.6-7.6L57.4 80.8c-1.2-4.2 1.3-7.6 5.5-7.6H138c4.1 0 8.4 3.4 9.6 7.6z" opacity=".6" class="colorcfcdf1 svgShape"></path><path fill="#ffffff" d="M177.3 194.3h-75.1c-4.2 0-8.5-3.4-9.6-7.6L63.4 80.8c-1.2-4.2 1.3-7.5 5.5-7.5H144c.5 0 1.1.1 1.6.2 1.5.3 3 1 4.3 2.1 1.7 1.4 3.1 3.2 3.7 5.3l6.7 24.2 3.4 12.4 19.1 69.3c1.2 4.1-1.3 7.5-5.5 7.5z" class="colorffffff svgShape"></path><path fill="#d2cdf1" d="M160.3 105h-2.1c-2 0-4.1-1.6-4.7-3.7l-7.8-28c1.5.3 3 1 4.3 2.1 1.7 1.4 3.1 3.2 3.7 5.3l6.6 24.3z" opacity=".6" class="colorcfcdf1 svgShape"></path><path fill="#f1f0fb" d="m144.9 84.6 5.5 19.8c.3 1.1-.3 2-1.4 2H82.2c-1.1 0-2.2-.9-2.5-2l-5.5-19.8c-.3-1.1.3-2 1.4-2h66.8c1.1 0 2.2.9 2.5 2z" class="colorf2f0fb svgShape"></path><path fill="#6149fd" d="M82.2 104.4c-.2 0-.5-.3-.6-.5l-5-18.2c-.1-.5.2-1 .8-1h65c.2 0 .5.3.6.5l5 18.2c.1.5-.2 1-.8 1h-65z" class="color497bfd svgShape"></path><path fill="#452ce4" d="m78.8 87.3 4.7 17.1h-1.3c-.2 0-.5-.3-.6-.5l-5-18.2c-.1-.5.2-1 .8-1h65c.2 0 .5.3.6.5l.3 1.1H79.6c-.6 0-1 .5-.8 1z" class="color2c65e4 svgShape"></path><path fill="#f1f0fb" d="m96.9 117.3 2.5 9.2c.3 1.1-.3 1.9-1.4 1.9h-9.6c-1.1 0-2.1-.9-2.4-1.9l-2.5-9.2c-.3-1.1.3-1.9 1.4-1.9h9.6c1 0 2.1.9 2.4 1.9zM115.8 117.3l2.5 9.2c.3 1.1-.3 1.9-1.4 1.9h-9.6c-1.1 0-2.1-.9-2.4-1.9l-2.5-9.2c-.3-1.1.3-1.9 1.4-1.9h9.6c1.1 0 2.1.9 2.4 1.9zM134.8 117.3l2.5 9.2c.3 1.1-.3 1.9-1.4 1.9h-9.6c-1.1 0-2.1-.9-2.4-1.9l-2.5-9.2c-.3-1.1.3-1.9 1.4-1.9h9.6c1 0 2.1.9 2.4 1.9zM153.7 117.3l2.5 9.2c.3 1.1-.3 1.9-1.4 1.9h-9.6c-1.1 0-2.1-.9-2.4-1.9l-2.5-9.2c-.3-1.1.3-1.9 1.4-1.9h9.6c1.1 0 2.1.9 2.4 1.9zM102.1 136.2l2.5 9.2c.3 1.1-.3 1.9-1.4 1.9h-9.6c-1.1 0-2.1-.9-2.4-1.9l-2.5-9.2c-.3-1.1.3-1.9 1.4-1.9h9.6c1 0 2.1.8 2.4 1.9zM121 136.2l2.5 9.2c.3 1.1-.3 1.9-1.4 1.9h-9.6c-1.1 0-2.1-.9-2.4-1.9l-2.5-9.2c-.3-1.1.3-1.9 1.4-1.9h9.6c1 0 2.1.8 2.4 1.9zM140 136.2l2.5 9.2c.3 1.1-.3 1.9-1.4 1.9h-9.6c-1.1 0-2.1-.9-2.4-1.9l-2.5-9.2c-.3-1.1.3-1.9 1.4-1.9h9.6c1 0 2.1.8 2.4 1.9zM158.9 136.2l2.5 9.2c.3 1.1-.3 1.9-1.4 1.9h-9.6c-1.1 0-2.1-.9-2.4-1.9l-2.5-9.2c-.3-1.1.3-1.9 1.4-1.9h9.6c1 0 2.1.8 2.4 1.9zM107.3 155l2.5 9.2c.3 1.1-.3 1.9-1.4 1.9h-9.6c-1.1 0-2.1-.9-2.4-1.9l-2.5-9.2c-.3-1.1.3-1.9 1.4-1.9h9.6c1 0 2.1.8 2.4 1.9zM126.2 155l2.5 9.2c.3 1.1-.3 1.9-1.4 1.9h-9.6c-1.1 0-2.1-.9-2.4-1.9l-2.5-9.2c-.3-1.1.3-1.9 1.4-1.9h9.6c1 0 2.1.8 2.4 1.9zM145.2 155l2.5 9.2c.3 1.1-.3 1.9-1.4 1.9h-9.6c-1.1 0-2.1-.9-2.4-1.9l-2.5-9.2c-.3-1.1.3-1.9 1.4-1.9h9.6c1 0 2.1.8 2.4 1.9zM112.4 173.8l2.5 9.2c.3 1.1-.3 1.9-1.4 1.9H104c-1.1 0-2.1-.9-2.4-1.9l-2.5-9.2c-.3-1.1.3-1.9 1.4-1.9h9.6c1 0 2.1.8 2.3 1.9zM131.4 173.8l2.5 9.2c.3 1.1-.3 1.9-1.4 1.9h-9.6c-1.1 0-2.1-.9-2.4-1.9l-2.5-9.2c-.3-1.1.3-1.9 1.4-1.9h9.6c1 0 2.1.8 2.4 1.9zM150.3 173.8l2.5 9.2c.3 1.1-.3 1.9-1.4 1.9h-9.6c-1.1 0-2.1-.9-2.4-1.9l-2.5-9.2c-.3-1.1.3-1.9 1.4-1.9h9.6c1.1 0 2.2.8 2.4 1.9z" class="colorf2f0fb svgShape"></path><path fill="#6751f3" d="m164.4 155 7.5 28c.3 1.1-.3 1.9-1.4 1.9h-9.6c-1.1 0-2.1-.9-2.4-1.9l-7.5-28c-.3-1.1.3-1.9 1.4-1.9h9.6c1 0 2.1.8 2.4 1.9z" class="colorf35170 svgShape"></path><path fill="#9485f6" d="M175.2 169.8c-.1 0-.3 0-.6.1.3-.1.5-.1.6-.1z" class="colorf6a285 svgShape"></path><path fill="#9485f6" d="M171.1 166.2c0 .8 1.4.8 2.4.8h1.3c-.2 0-.7 0-1.3.1-1 .1-2.2.5-1.9 1.7.2.7 2 1 3 .9-.9.1-2.5.3-2.2 1.4.1.6 1.1 1.2 2.2 1.7 1.8.8 4.2 1.3 5 1.5.5.1 1.5.5 2.5 1s2 1.1 2.5 1.5c6.9 5.4 23.9 20 28.6 18.1 7.9-3.4 16.9-12.9 16.9-12.9l-12.6-11.4-2.3 1.7-6.2 4.6-24.1-9.9s-5.4-7.7-6.7-7.9c-.3 0-3.2-1-.3 4.3 0 0-11.2-4.5-11.8-2.9-.7 1.7 7 4.6 8.3 4.6-.9-.1-3.3-.5-3.3 1.1z" class="colorf6a285 svgShape"></path><linearGradient id="a" x1="6357.667" x2="6413.532" y1="183.102" y2="183.102" gradientTransform="matrix(-1 0 0 1 6587.729 0)" gradientUnits="userSpaceOnUse"><stop offset="0" stop-color="#9485f6" class="stopColorf6a285 svgShape"></stop><stop offset="1" stop-color="#6e58fc" class="stopColorfc6b58 svgShape"></stop></linearGradient><path fill="url(#a)" d="M174.2 172.2c.1.3.2.5.3.8 1.8.8 4.2 1.3 5 1.5.5.1 1.5.5 2.5 1s2 1.1 2.5 1.5c6.9 5.4 23.9 20 28.6 18.1 7.9-3.4 16.9-12.9 16.9-12.9l-12.6-11.4-2.3 1.7c-.1.8-.2 1.5-.5 2.3-.5 1.3-.4 2.7.2 3.9.9 1.6 2.5 2.7 4 3.7.8.5 1.5 1 2.1 1.7.6.7.9 1.7.6 2.5-.4 1.2-1.6 1.8-2.8 2.2-6.6 2.2-14.3.8-19.8-3.6-2.7-2.2-5-5-8.2-6.3-1.9-.7-4-.8-5.7-1.9-1.7-1.1-2.7-3.1-4.4-4.3-1.6-1.3-4.3-1.5-6.4-.5z"></path><path fill="#6149fd" d="M231.5 154s-11.4 5.9-18.3 18.3c-1.5 2.7 9.9 13.9 13.3 15.2 4.2 1.6 15.5-9.4 15.5-9.4L231.5 154z" class="color497bfd svgShape"></path><path fill="#9485f6" d="M208.5 142c.2.6 2 .3 2 .3s-.3 1.1-.4 2.5c0 .5-.1 1-.1 1.5 0 .8.1 1.7.3 2.5.2.5.4 1 .7 1.5 1.6 2.4 8.7.6 8.7.6l.4 3.4 14.7.8s-1.6-1.9-.4-15.2c.5-5.8-2.5-10-6.5-12.8-5.1-3.6-11.7-4.8-14.2-4-3 .9-3.4 6.4-3.4 9.9v.1c0 1.6.1 2.7.1 2.7s-2.5 4.6-1.9 6.2z" class="colorf6a285 svgShape"></path><linearGradient id="b" x1="6352.898" x2="6377.413" y1="141.176" y2="141.176" gradientTransform="matrix(-1 0 0 1 6587.729 0)" gradientUnits="userSpaceOnUse"><stop offset="0" stop-color="#9485f6" class="stopColorf6a285 svgShape"></stop><stop offset="1" stop-color="#6e58fc" class="stopColorfc6b58 svgShape"></stop></linearGradient><path fill="url(#b)" d="M210.3 148.9c.2.5.4 1 .7 1.5 1.6 2.4 8.7.6 8.7.6l.4 3.4 14.7.8s-1.6-1.9-.4-15.2c.5-5.8-2.5-10-6.5-12.8-.6 0-1.2 0-1.8.1-1.5.2-.3 1.2-1.4 2.1-1.7 1.4-1.4 3.5-2.5 5.1-1.3 1.9-1.8 4.3-1.5 6.6.2 1.5.8 3.1.5 4.6-.3 1.8-4.6 2.7-6.4 2.8-1.5.1-3.1-.6-4.4.2 0 .1 0 .2-.1.2z"></path><path fill="#6149fd" d="M243.8 222.9c0 6.5 3.5 16.3 2.4 22.2h-57.9c0-1.9.4-4.5 1.1-7.6.1-.4.2-.7.2-1.1 3.4-14.6 21.8-30.3 19.8-42.8-1-6.3-.6-12.1.5-17.3 3.4-15.9 21.5-24.1 35.4-15.6.4.2.8.5 1.2.8 1.4 1 2.8 2.1 4.1 3.3.8.7 1.5 1.5 2.3 2.4 13.1 15.1-9.1 40-9.1 55.7z" class="color497bfd svgShape"></path><path fill="#514889" d="M204 122.3c.7 1.3 2.4 2.6 5.3 3.7 0 0-.5 3.2 3.9 2.7s-1.6 8.2.8 9.4c2.4 1.2 3.1-6.2 5.7-6 2.6.2-1.2 12 .8 14s13 3.3 15.5.9c.3-.3.6-.7 1.1-1.3 3.8-5.5 12.5-23.4-1.4-24.1 0 0 4.5-8.6-6.8-10.6-9.3-1.7-28.2 5.1-24.9 11.3z" class="color894852 svgShape"></path><path fill="#161133" d="M210.7 133.9c0 .7.2 1.2.6 1.2.3 0 .6-.5.6-1.2s-.2-1.2-.6-1.2c-.3 0-.6.5-.6 1.2z" class="color111d33 svgShape"></path><path fill="#ffffff" d="M210.9 134.3c0 .2.1.4.2.4s.2-.2.2-.4-.1-.4-.2-.4-.2.2-.2.4z" class="colorffffff svgShape"></path><path fill="#6149fd" d="M218.9 162.2c10.1-.2 17.2-1.9 21-3.9 0 0 .2-2.6-1.2-4.5-1-1.4-2.8-2.5-6-2.1-7.5.8-12.9 5.1-14.6 7.6-.1.1-.1.2-.2.3-.4.6 1 2.6 1 2.6z" class="color497bfd svgShape"></path><path fill="#452ce4" d="M218.9 162.2c10.1-.2 17.2-1.9 21-3.9 0 0 .2-2.6-1.2-4.5-.7.7-1.5 1.3-2.4 1.7-1.5.8-3.2 1.1-4.9 1.4-1.6.3-3.3.7-5 1-2.8.6-5.6 1.1-8.4 1.4-.1.1-.1.2-.2.3-.3.6 1.1 2.6 1.1 2.6z" class="color2c65e4 svgShape"></path><path fill="#161133" d="M212.5 130.9c-.8-.2-1.7-.3-2.5.1-.2.1-.4.2-.4.5 0 .2.1.4.3.5.2.1.4.1.5 0 .2-.1.3-.2.5-.2.7-.3 1.4-.3 2.1.1.1.1.2.2.4.2.1 0 .3 0 .4-.2.1-.3-.2-.5-.4-.6-.3-.3-.6-.4-.9-.4zM210.3 133.1v.1l.9-.3c.3.2.5.4.8.5.3.1.6.3 1 .3-.2-.3-.5-.5-.8-.7-.3-.2-.6-.3-1-.4h-.1c-.2.1-.5.3-.8.5z" class="color111d33 svgShape"></path><path fill="#6b59e1" d="M210 146.4c.9-.3 2-.9 3.1-1.9-.1 0-1.4.5-3.1.4v1.5z" class="colore17659 svgShape"></path><path fill="#3b3851" d="M209.3 126s-.5 3.2 3.9 2.7-1.6 8.2.8 9.4c2.4 1.2 3.1-6.2 5.7-6 2.6.2-1.2 12 .8 14s13 3.3 15.5.9c.3-.3.6-.7 1.1-1.3-1.1-.1-2.3-.1-3.4.1-2.5.4-5.1 1.1-7.5.2-1.4-.5-2.7-1.8-2.6-3.4.1-1.3 1.1-2.3 1.7-3.5.8-1.6.8-3.5-.1-5.1-.8-1.6-2.5-2.7-4.2-2.9-.9-.1-2-.1-2.5-.8-.6-.8-.1-1.9.7-2.5.8-.5 1.8-.6 2.8-.7 1-.1 2-.3 2.7-1 1.3-1.4.4-3.8-1.3-4.7-1.7-.9-3.7-.7-5.5-.5l-9.6 1.2c-1.3.2-2.7.3-4 0 .4 1.5 2.1 2.7 5 3.9z" class="color51383c svgShape"></path><path fill="#9485f6" d="M216.2 134.4c-.7 1.9-.3 3.9.9 4.4 1.3.5 2.9-.7 3.7-2.6.7-1.9.3-3.9-1-4.4-1.3-.5-2.9.7-3.6 2.6z" class="colorf6a285 svgShape"></path><path fill="#3b3851" d="M235.6 121.5s-3.2-.8-7.1 2.8c0 0 7.5-3.3 10.5-2.2-.9-.3-1.9-.5-3.4-.6z" class="color51383c svgShape"></path><path fill="#b8adff" d="M224.1 92.1c0 5.9 4.7 10.8 10.6 11v5.2c0 .4.4.6.7.4l9-5.6h12.2c6.1 0 11-4.9 11-11 0-3-1.2-5.8-3.2-7.8s-4.7-3.2-7.8-3.2H235c-6 0-10.9 5-10.9 11z" class="colorc5adff svgShape"></path><path fill="#7764f0" d="M239.2 92c0 1.8-1.5 3.4-3.4 3.4-1.8 0-3.4-1.5-3.4-3.4s1.5-3.4 3.4-3.4c1.9.1 3.4 1.6 3.4 3.4zM249.2 92c0 1.8-1.5 3.4-3.4 3.4-1.8 0-3.4-1.5-3.4-3.4s1.5-3.4 3.4-3.4c1.9.1 3.4 1.6 3.4 3.4zM259.3 92c0 1.8-1.5 3.4-3.4 3.4-1.8 0-3.4-1.5-3.4-3.4s1.5-3.4 3.4-3.4c1.9.1 3.4 1.6 3.4 3.4z" class="color976ff8 svgShape"></path><path fill="#452ce4" d="M243.8 222.9c0 6.5 3.5 16.3 2.4 22.2h-57.9c0-1.9.4-4.5 1.1-7.6l9.3-2.1c1-.2 2.1-.5 3.1-.2 1 .2 2 1.1 2.1 2.1 0 .8-1.4.8-1.5 1.6-1.4 9.7 19.3 3.6 29.1 2.6 3.9-.4 8.4-1.7 9.6-5.4 1-3.3-1.2-6.6-2.4-9.8-2.8-7.2-.7-15.3 2.5-22.3s7.5-13.6 9.3-21.1c1.1-4.6 1.1-9.7-.6-14.2-.4-1.1-1-2.2-1.6-3.2-.4-.6-2.2-2.1-2.3-2.7-.1-.5.2-.9.6-1.3 1.4 1 2.8 2.1 4.1 3.3.8.7 1.5 1.5 2.3 2.4 13 15.1-9.2 40-9.2 55.7z" class="color2c65e4 svgShape"></path><path fill="#9485f6" d="M162.4 196.3c-.1 0-.3.1-.6.3.3-.2.6-.3.6-.3z" class="colorf6a285 svgShape"></path><path fill="#ab9eff" d="M93 240.6c0 1.5 12.4 2.7 27.8 2.7 15.3 0 27.8-1.2 27.8-2.7 0-1.5-12.4-2.7-27.8-2.7S93 239.1 93 240.6z" class="colorffde9e svgShape"></path><path fill="#ffffff" d="M105.3 240.6c0 1.1 9.3 2 20.8 2s20.8-.9 20.8-2-9.3-2-20.8-2-20.8.9-20.8 2z" opacity=".8" class="colorffffff svgShape"></path><path fill="#8875ff" d="M93 240.6v6c0 1.5 11.7 2.6 26.3 2.7h3.5c1.2 0 2.4 0 3.6-.1h5c.7 0 1.4-.1 2.1-.1 1.3-.1 2.5-.1 3.6-.2.4 0 .8-.1 1.2-.1.5 0 1-.1 1.5-.1 5.3-.5 8.7-1.2 8.7-2v-6c0 .8-3.3 1.5-8.7 2-.5 0-.9.1-1.5.1-.4 0-.8.1-1.2.1-1.1.1-2.4.2-3.6.2-.7 0-1.4.1-2.1.1h-5c-1.2 0-2.4 0-3.6.1h-3.5c-13.9-.1-25-1.1-26.2-2.5-.1 0-.1-.1-.1-.2z" class="colorffd375 svgShape"></path><path fill="#ab9eff" d="M88.9 233.5c0 1.5 12.4 2.7 27.8 2.7 15.3 0 27.8-1.2 27.8-2.7 0-1.5-12.4-2.7-27.8-2.7-15.3-.1-27.8 1.2-27.8 2.7z" class="colorffde9e svgShape"></path><path fill="#8875ff" d="M88.9 233.5v6c0 .5 1.5 1 4.1 1.4h.1c4.9.8 13.6 1.3 23.6 1.3 4.8 0 9.4-.1 13.3-.3.5 0 1-.1 1.5-.1.7 0 1.4-.1 2.1-.1 1.3-.1 2.5-.2 3.6-.3.4 0 .8-.1 1.2-.1.5-.1 1-.1 1.5-.2 2.9-.4 4.6-1 4.6-1.5v-6c0 .6-1.7 1.1-4.6 1.5-.5.1-.9.1-1.5.2-.4 0-.8.1-1.2.1-1.1.1-2.3.2-3.6.3-.7 0-1.4.1-2.1.1-.5 0-1 .1-1.5.1-4 .2-8.5.3-13.3.3-15.3 0-27.8-1.2-27.8-2.7z" class="colorffd375 svgShape"></path><path fill="#ab9eff" d="M95.6 225.7c0 1.5 12.4 2.7 27.8 2.7 15.3 0 27.8-1.2 27.8-2.7 0-1.5-12.4-2.7-27.8-2.7-15.3 0-27.8 1.2-27.8 2.7z" class="colorffde9e svgShape"></path><path fill="#ffffff" d="M92.6 233.5c0 1.1 9.3 2 20.8 2s20.8-.9 20.8-2-9.3-2-20.8-2c-11.5-.1-20.8.8-20.8 2zM102.6 225.7c0 1.1 9.3 2 20.8 2s20.8-.9 20.8-2-9.3-2-20.8-2c-11.5-.1-20.8.9-20.8 2z" opacity=".8" class="colorffffff svgShape"></path><path fill="#8875ff" d="M95.6 225.7v6c0 1.5 12.4 2.7 27.8 2.7 2.3 0 4.5 0 6.6-.1h1.5c.7 0 1.4 0 2.1-.1 1.1 0 2.2-.1 3.3-.2h.4c.4 0 .7 0 1.1-.1h.1c.5 0 1-.1 1.5-.1h.5c1.3-.1 2.5-.2 3.6-.3.4 0 .8-.1 1.2-.1.5-.1 1-.1 1.5-.2 2.8-.4 4.5-.9 4.5-1.5v-6c0 .5-1.7 1.1-4.5 1.5-.5.1-.9.1-1.5.2-.4 0-.8.1-1.2.1-1.1.1-2.3.2-3.6.3h-.5c-.5 0-1 .1-1.5.1h-.1c-.4 0-.7 0-1.1.1h-.4c-1.1.1-2.1.1-3.3.2-.7 0-1.4.1-2.1.1H130c-2.1.1-4.3.1-6.6.1-15.3 0-27.8-1.2-27.8-2.7z" class="colorffd375 svgShape"></path><path fill="#5c45ee" d="M110.8 243.2v6c-10.4-.4-17.8-1.4-17.8-2.5v-6c0 1.1 7.4 2.1 17.8 2.5z" class="coloree9545 svgShape"></path><path fill="#5c45ee" d="M110.8 236.1v6c-12.5-.3-21.9-1.4-21.9-2.7v-6c0 1.4 9.4 2.4 21.9 2.7zM110.8 228.1v6c-9-.5-15.2-1.4-15.2-2.4v-6c0 1 6.2 2 15.2 2.4zM138.4 235.2v6c.5-.1 1-.1 1.5-.2v-6c-.5 0-1 .1-1.5.2zM130 235.8v6c.5 0 1-.1 1.5-.1v-6c-.5.1-1 .1-1.5.1zM136.8 228.1v6h.4c.4 0 .7 0 1.1-.1v-6c-.4 0-.7 0-1.1.1-.1-.1-.2 0-.4 0zM133.6 235.6v6c1.3-.1 2.5-.2 3.6-.3v-6c-1.1.1-2.3.2-3.6.3zM127.7 243.3v6h1.5v-6c-.5-.1-1 0-1.5 0zM119.3 243.3v6h1.4v-6c-.4.1-.9.1-1.4 0zM122.9 243.3v6c1.2 0 2.4 0 3.6-.1v-6c-1.2.1-2.4.1-3.6.1z" class="coloree9545 svgShape"></path><path fill="#ab9eff" d="M88.4 217.5c0 1.5 12.4 2.7 27.8 2.7 15.3 0 27.8-1.2 27.8-2.7 0-1.5-12.4-2.7-27.8-2.7-15.4-.1-27.8 1.2-27.8 2.7z" class="colorffde9e svgShape"></path><path fill="#ffffff" d="M100.7 217.5c0 1.1 9.3 2 20.8 2s20.8-.9 20.8-2-9.3-2-20.8-2c-11.5-.1-20.8.8-20.8 2z" opacity=".8" class="colorffffff svgShape"></path><path fill="#8875ff" d="M88.4 217.5v6c0 1.5 11.7 2.6 26.3 2.7h3.5c1.2 0 2.4 0 3.6-.1h5c.7 0 1.4-.1 2.1-.1 1.3-.1 2.5-.1 3.6-.2.4 0 .8-.1 1.2-.1.5 0 1-.1 1.5-.1 5.3-.5 8.7-1.2 8.7-2v-6c0 .8-3.3 1.5-8.7 2-.5 0-.9.1-1.5.1-.4 0-.8.1-1.2.1-1.1.1-2.4.2-3.6.2-.7 0-1.4.1-2.1.1h-5c-1.2 0-2.4 0-3.6.1h-3.5c-13.9-.1-25-1.1-26.2-2.5-.1-.1-.1-.2-.1-.2z" class="colorffd375 svgShape"></path><path fill="#ab9eff" d="M84.3 210.3c0 1.5 12.4 2.7 27.8 2.7 15.3 0 27.8-1.2 27.8-2.7 0-1.5-12.4-2.7-27.8-2.7-15.3 0-27.8 1.2-27.8 2.7z" class="colorffde9e svgShape"></path><path fill="#8875ff" d="M84.3 210.3v6c0 .5 1.5 1 4.1 1.4h.1c4.9.8 13.6 1.3 23.6 1.3 4.8 0 9.4-.1 13.3-.3.5 0 1-.1 1.5-.1.7 0 1.4-.1 2.1-.1 1.3-.1 2.5-.2 3.6-.3.4 0 .8-.1 1.2-.1.5-.1 1-.1 1.5-.2 2.9-.4 4.6-1 4.6-1.5v-6c0 .6-1.7 1.1-4.6 1.5-.5.1-.9.1-1.5.2-.4 0-.8.1-1.2.1-1.1.1-2.3.2-3.6.3-.7 0-1.4.1-2.1.1-.5 0-1 .1-1.5.1-4 .2-8.5.3-13.3.3-15.3 0-27.8-1.2-27.8-2.7z" class="colorffd375 svgShape"></path><path fill="#ffffff" d="M88.1 210.3c0 1.1 9.3 2 20.8 2s20.8-.9 20.8-2-9.3-2-20.8-2c-11.5-.1-20.8.9-20.8 2z" opacity=".8" class="colorffffff svgShape"></path><path fill="#5c45ee" d="M106.2 220v6c-10.4-.4-17.8-1.4-17.8-2.5v-6c0 1.1 7.4 2.1 17.8 2.5z" class="coloree9545 svgShape"></path><path fill="#5c45ee" d="M106.2 212.9v6c-12.5-.3-21.9-1.4-21.9-2.7v-6c0 1.4 9.4 2.5 21.9 2.7zM133.8 212v6c.5-.1 1-.1 1.5-.2v-6c-.5 0-1 .1-1.5.2zM125.4 212.7v6c.5 0 1-.1 1.5-.1v-6c-.5 0-1 0-1.5.1zM129 212.4v6c1.3-.1 2.5-.2 3.6-.3v-6c-1.1.1-2.3.2-3.6.3zM123.1 220.1v6h1.5v-6h-1.5zM114.8 220.2v6h1.4v-6h-1.4zM118.3 220.2v6c1.2 0 2.4 0 3.6-.1v-6c-1.2.1-2.4.1-3.6.1z" class="coloree9545 svgShape"></path><path fill="#ab9eff" d="M46.7 242.4c0 1.5 12.4 2.7 27.8 2.7 15.3 0 27.8-1.2 27.8-2.7 0-1.5-12.4-2.7-27.8-2.7s-27.8 1.2-27.8 2.7z" class="colorffde9e svgShape"></path><path fill="#ffffff" d="M59 242.4c0 1.1 9.3 2 20.8 2s20.8-.9 20.8-2-9.3-2-20.8-2-20.8.9-20.8 2z" opacity=".8" class="colorffffff svgShape"></path><path fill="#8875ff" d="M46.7 242.4v6c0 1.5 11.7 2.6 26.3 2.7h3.5c1.2 0 2.4 0 3.6-.1h5c.7 0 1.4-.1 2.1-.1 1.3-.1 2.5-.1 3.6-.2.4 0 .8-.1 1.2-.1.5 0 1-.1 1.5-.1 5.3-.5 8.7-1.2 8.7-2v-6c0 .8-3.3 1.5-8.7 2-.5 0-1 .1-1.5.1-.4 0-.8.1-1.2.1-1.1.1-2.4.2-3.6.2-.7 0-1.4.1-2.1.1h-5c-1.2 0-2.4 0-3.6.1H73c-13.9-.1-25-1.1-26.2-2.5-.1 0-.1-.1-.1-.2z" class="colorffd375 svgShape"></path><path fill="#ab9eff" d="M42.6 235.2c0 1.5 12.4 2.7 27.8 2.7 15.3 0 27.8-1.2 27.8-2.7 0-1.5-12.4-2.7-27.8-2.7-15.3 0-27.8 1.2-27.8 2.7z" class="colorffde9e svgShape"></path><path fill="#8875ff" d="M42.6 235.2v6c0 .5 1.5 1 4.1 1.4h.1c4.9.8 13.6 1.3 23.6 1.3 4.8 0 9.4-.1 13.3-.3.5 0 1-.1 1.5-.1.7 0 1.4-.1 2.1-.1 1.3-.1 2.5-.2 3.6-.3.4 0 .8-.1 1.2-.1.5-.1 1-.1 1.5-.2 2.9-.4 4.6-1 4.6-1.5v-6c0 .6-1.7 1.1-4.6 1.5-.5.1-.9.1-1.5.2-.4 0-.8.1-1.2.1-1.1.1-2.3.2-3.6.3-.7 0-1.4.1-2.1.1-.5 0-1 .1-1.5.1-4 .2-8.5.3-13.3.3-15.3 0-27.8-1.2-27.8-2.7z" class="colorffd375 svgShape"></path><path fill="#ab9eff" d="M49.3 227.4c0 1.5 12.4 2.7 27.8 2.7 15.3 0 27.8-1.2 27.8-2.7 0-1.5-12.4-2.7-27.8-2.7-15.3 0-27.8 1.2-27.8 2.7z" class="colorffde9e svgShape"></path><path fill="#ffffff" d="M46.4 235.2c0 1.1 9.3 2 20.8 2s20.8-.9 20.8-2-9.3-2-20.8-2c-11.6 0-20.8.9-20.8 2zM56.3 227.4c0 1.1 9.3 2 20.8 2s20.8-.9 20.8-2-9.3-2-20.8-2-20.8.9-20.8 2z" opacity=".8" class="colorffffff svgShape"></path><path fill="#8875ff" d="M49.3 227.5v6c0 1.5 12.4 2.7 27.8 2.7 2.3 0 4.5 0 6.6-.1h1.5c.7 0 1.4 0 2.1-.1 1.1 0 2.2-.1 3.3-.2h.4c.4 0 .7 0 1.1-.1h.1c.5 0 1-.1 1.5-.1h.5c1.3-.1 2.5-.2 3.6-.3.4 0 .8-.1 1.2-.1.5-.1 1-.1 1.5-.2 2.8-.4 4.5-.9 4.5-1.5v-6c0 .5-1.7 1.1-4.5 1.5-.5.1-.9.1-1.5.2-.4 0-.8.1-1.2.1-1.1.1-2.3.2-3.6.3h-.5c-.5 0-1 .1-1.5.1h-.1c-.4 0-.7 0-1.1.1h-.4c-1.1.1-2.1.1-3.3.2-.7 0-1.4.1-2.1.1h-1.5c-2.1.1-4.3.1-6.6.1-15.3 0-27.8-1.2-27.8-2.7z" class="colorffd375 svgShape"></path><path fill="#5c45ee" d="M64.5 244.9v6c-10.4-.4-17.8-1.4-17.8-2.5v-6c0 1.2 7.4 2.1 17.8 2.5z" class="coloree9545 svgShape"></path><path fill="#5c45ee" d="M64.5 237.9v6c-12.5-.3-21.9-1.4-21.9-2.7v-6c0 1.3 9.4 2.4 21.9 2.7zM64.5 229.9v6c-9-.5-15.2-1.4-15.2-2.4v-6c0 1 6.2 1.9 15.2 2.4zM92.1 236.9v6c.5-.1 1-.1 1.5-.2v-6c-.5.1-1 .2-1.5.2zM83.7 237.6v6c.5 0 1-.1 1.5-.1v-6c-.5.1-1 .1-1.5.1zM90.5 229.8v6h.4c.4 0 .7 0 1.1-.1v-6c-.4 0-.7 0-1.1.1h-.4zM87.3 237.4v6c1.3-.1 2.5-.2 3.6-.3v-6c-1.1.1-2.3.2-3.6.3zM81.4 245v6h1.5v-6h-1.5zM73 245.1v6h1.4v-6H73zM76.6 245.1v6c1.2 0 2.4 0 3.6-.1v-6c-1.2.1-2.4.1-3.6.1zM49.3 208.2c0 11.1 9 20 20 20 11.1 0 20-9 20-20 0-11.1-9-20-20-20-11-.1-20 8.9-20 20z" class="coloree9545 svgShape"></path><path fill="#ab9eff" d="M53 208.2c0 11.1 9 20 20 20 11.1 0 20-9 20-20 0-11.1-9-20-20-20-11-.1-20 8.9-20 20z" class="colorffde9e svgShape"></path><path fill="#8875ff" d="M57.6 208.2c0 8.5 6.9 15.5 15.5 15.5 8.5 0 15.5-6.9 15.5-15.5 0-8.5-6.9-15.5-15.5-15.5s-15.5 6.9-15.5 15.5z" class="colorffd375 svgShape"></path><path fill="#5c45ee" d="M77.2 207.3c.6-.7 1-1.5 1-2.5 0-2-1.6-3.6-3.6-3.7v-1.4c0-.5-.4-.8-.8-.8s-.8.4-.8.8v1.4h-2.1v-1.4c0-.5-.4-.8-.8-.8-.5 0-.8.4-.8.8v1.4h-1.4c-.5 0-.8.4-.8.8 0 .5.4.8.8.8h1.4V213h-1.4c-.5 0-.8.4-.8.8 0 .5.4.8.8.8h1.4v1.4c0 .5.4.8.8.8.5 0 .8-.4.8-.8v-1.4H73v1.4c0 .5.4.8.8.8s.8-.4.8-.8v-1.4h.7c2.2 0 3.9-1.8 3.9-3.9 0-1.5-.8-2.8-2-3.4zm-4.2-4.6h1.4c1.1 0 2 .9 2 2s-.9 2-2 2h-3.7v-4H73m2.3 10.3h-4.5v-4.5h4.5c1.3 0 2.3 1 2.3 2.3s-1.1 2.2-2.3 2.2z" class="coloree9545 svgShape"></path><path fill="#9485f6" d="M163.9 217.9c.4.9 4.9-.1 5.6-.4-.1.4-5 1.4-4.5 2.5.6 1.2 4.1.3 4.8 0-.1.4-3.7 1.4-3.5 2.2.2.8 2.7 1 4.2.3-.1.4-2.9.8-2.7 1.7.5 1.3 6.4 1.5 12.3-.4 0 0 .6-.2 1.7-.6 7-2.5 32.9-11.9 35.9-17.2 3.4-6.1 7.9-21.6 8.9-28.7l-15.4-2.6-3 10.4-4.2 14.5-25.8 14c-2.4-1.5-7-5.9-8-3.4-.4 1.1 2.7 3.6.6 4.1.1-.1-7.8 1.6-6.9 3.6z" class="colorf6a285 svgShape"></path><linearGradient id="c" x1="4564.477" x2="4593.071" y1="951.925" y2="951.925" gradientTransform="scale(-1 1) rotate(-19.451 -5.313 14531.746)" gradientUnits="userSpaceOnUse"><stop offset="0" stop-color="#9485f6" class="stopColorf6a285 svgShape"></stop><stop offset="1" stop-color="#6e58fc" class="stopColorfc6b58 svgShape"></stop></linearGradient><path fill="url(#c)" d="M181.9 223.2c7-2.5 32.9-11.9 35.9-17.2 3.4-6.1 7.9-21.6 8.9-28.7l-15.4-2.6-3 10.4c.9.9 2 1.6 3.3 2 2.1.6 4.5.3 6.4 1.5 1.5 1 2.3 2.8 2.4 4.6.1 1.8-.5 3.5-1.3 5.1-2.5 4.9-7.2 8.3-12.1 10.7-4.9 2.5-10.1 4.2-15 6.6-3.9 1.8-7.5 4.3-10.1 7.6z"></path><path fill="#6149fd" d="M217.8 163s-13.1 11.7-12.3 27c.2 3.1 13.4 4.7 17.1 4.1 4.5-.8 8.6-16 8.6-16L217.8 163z" class="color497bfd svgShape"></path><path fill="#ffffff" d="m198.8 63.7 9.7 34.6c.6 2-.6 3.7-2.6 3.7h-45.4c-2 0-4.1-1.6-4.7-3.7L146 63.7c-.6-2 .6-3.7 2.6-3.7H194c2.1 0 4.2 1.6 4.8 3.7z" class="colorffffff svgShape"></path><path fill="#b8adff" d="m196.9 81.9 4.4 15.7c.1.5-.1.9-.6.9h-5.4c-.5 0-1-.4-1.1-.9l-4.4-15.7c-.1-.5.1-.9.6-.9h5.4c.5.1 1 .5 1.1.9z" class="colorc5adff svgShape"></path><path fill="#8875ff" d="m188.2 88.4 2.6 9.4c.1.4-.1.7-.5.7h-5.7c-.4 0-.8-.3-.9-.7l-2.6-9.4c-.1-.4.1-.7.5-.7h5.7c.3 0 .8.3.9.7z" class="colorffd375 svgShape"></path><path fill="#6751f3" d="m176.2 83.3 4 14.3c.1.5-.1.9-.6.9h-5.4c-.5 0-1-.4-1.1-.9l-4-14.3c-.1-.5.1-.9.6-.9h5.4c.4.1.9.5 1.1.9z" class="colorf35170 svgShape"></path><path fill="#685abe" d="m168 92.1 1.6 5.5c.1.5-.1.9-.6.9h-5.4c-.5 0-1-.4-1.1-.9l-1.6-5.5c-.1-.5.1-.9.6-.9h5.4c.5.1 1 .5 1.1.9z" class="colorbe7d5a svgShape"></path><path fill="#7764f0" d="m199.1 89.7 2.2 8c.1.5-.1.9-.6.9h-5.4c-.5 0-1-.4-1.1-.9l-1.2-4.2c2.6-1 4.7-2.3 6.1-3.8z" class="color976ff8 svgShape"></path><path fill="#5c45ee" d="m189.9 94.5.9 3.4c.1.4-.1.7-.5.7h-5.7c-.4 0-.8-.3-.9-.7l-.6-2.3c2.4-.2 4.7-.6 6.8-1.1z" class="coloree9545 svgShape"></path><path fill="#4932de" d="m179.6 95.7.6 2c.1.5-.1.9-.6.9h-5.4c-.5 0-1-.4-1.1-.9l-.7-2.5c2.3.3 4.7.5 7.2.5z" class="colorde3260 svgShape"></path><path fill="#3b3851" d="m168.7 94.5.9 3.2c.1.5-.2.9-.6.9h-5.4c-.5 0-1-.4-1.1-.9l-1.6-5.8c2.3 1 4.9 1.9 7.8 2.6z" class="color51383c svgShape"></path><path fill="#524c75" d="M162.1 85.7c-.1 0-.1 0-.2-.1-.2-.1-.2-.3-.1-.5l7.9-11c.1-.1.3-.2.5-.1l11.9 6.4 7.3-10.5c.1-.2.3-.2.5-.1s.2.3.1.5l-7.5 10.8c-.1.1-.3.2-.5.1l-11.9-6.4-7.7 10.7c0 .1-.1.2-.3.2z" class="color4c5c75 svgShape"></path><path fill="#685abe" d="M164 85c.3.9-.3 1.7-1.2 1.7-.9 0-1.9-.8-2.1-1.7-.3-.9.3-1.7 1.2-1.7.9 0 1.9.7 2.1 1.7z" class="colorbe7d5a svgShape"></path><path fill="#6751f3" d="M172 74.9c.3.9-.3 1.7-1.2 1.7-.9 0-1.9-.8-2.1-1.7-.3-.9.3-1.7 1.2-1.7.9 0 1.8.8 2.1 1.7z" class="colorf35170 svgShape"></path><path fill="#8875ff" d="M184 80.8c.3.9-.3 1.7-1.2 1.7-.9 0-1.9-.8-2.1-1.7-.3-.9.3-1.7 1.2-1.7.8 0 1.8.7 2.1 1.7z" class="colorffd375 svgShape"></path><path fill="#b8adff" d="M191.3 70.2c.3.9-.3 1.7-1.2 1.7-.9 0-1.9-.8-2.1-1.7-.3-.9.3-1.7 1.2-1.7.9.1 1.8.8 2.1 1.7z" class="colorc5adff svgShape"></path><path fill="#ffffff" d="m164 63.6.3 1c.1.2-.1.4-.3.4h-13.8c-.2 0-.4-.2-.5-.4l-.3-1c-.1-.2.1-.4.3-.4h13.8c.2.1.4.2.5.4zM159 67.1l.3 1c.1.2-.1.4-.3.4h-7.9c-.2 0-.4-.2-.5-.4l-.3-1c-.1-.2.1-.4.3-.4h7.9c.2 0 .4.2.5.4z" class="colorffffff svgShape"></path></svg>