<svg xmlns="http://www.w3.org/2000/svg" viewBox="0 0 2000 2000" id="Mandoingtasksonschedule"><path fill="#f2f2f2" d="M1596.956 1453.983c58.668.728 117.336 1.457 85.927 13.989-31.408 12.532-152.894 36.869-222.976 64.384s-88.76 58.209-242.974 66.825c-30.773 1.719-66.943 2.56-106.599 2.56-159.075 0-374.251-13.52-522.211-38.052-184.845-30.647-264.785-78.479-277.807-101.638-9.796-17.422 18.278-20.881 55.734-20.881 12.334 0 25.685.375 39.035.75l1191.871 12.063z" class="colorf2f2f2 svgShape"></path><path fill="#3e2da7" d="M1425.424 1447.811c15.414-98.942 30.828-197.883-35.059-257.37-54.517-49.222-164.698-71.431-211.55-71.431-9.771 0-16.788.966-19.971 2.854-18.444 10.943 91.858 52.862 129.303 81.884s2.032 45.149 2.821 60.997c.789 15.848 37.78 31.419 62.701 48.728s37.77 36.357 47.717 59.036c9.947 22.68 16.993 48.991 24.038 75.302z" class="color2d7ca7 svgShape"></path><path fill-opacity=".153" d="M1158.273 1124.697c8.107-1.102 20.937-.477 38.491 1.875 25.846 4.364 45.987 9.377 60.423 15.039 26.776 10.547 51.732 27.425 74.869 50.636 16.741 15.943 22.399 30.413 16.973 43.411-3.276 6.349-5.946 10.37-8.012 12.062a54.566 54.566 0 0 1-8.526 7.358c-9.7 6.486-20.666 11.009-32.898 13.567-2.284.512-4.627.971-7.029 1.377-.243-.44-.467-.879-.672-1.317-1.088-2.633-1.232-5.277-.43-7.934l11.841-21.582c1.442-3.204 2.123-6.62 2.042-10.248-.081-3.628-1.429-7.526-4.042-11.695l-5.249-6.502c.047-1.866-10.542-9.325-31.767-22.377l-88.438-46.859c-7.653-4.487-13.131-8.418-16.432-11.794l-2.619-4.492.201-.33c.402-.07.826-.135 1.274-.195z" fill="#000000" class="color000000 svgShape"></path><path fill-opacity=".153" d="M1305.383 1143.868c34.554 27.922 53.813 44.148 57.776 48.678 20.034 19.895 32.433 35.188 37.197 45.879a114.04 114.04 0 0 1 9.073 21.377 252.305 252.305 0 0 1 8.734 42.395c1.695 7.451 3.759 43.426 6.191 107.926.683 9.705 1.439 16.592 2.267 20.66.225 1.59.469 3.089.734 4.496l1.876-12.179c5.78-40.914 8.645-65.17 8.597-72.769 1.127-15.789 1.312-31.122.556-45.999l-2.121-21.836c-1.979-14.283-5.463-27.836-10.454-40.657l-8.897-18.547-11.719-17.177-14.826-15.672c-10.13-9.031-21.769-17.166-34.914-24.406l-20.298-10.209a383.904 383.904 0 0 0-29.748-11.958h-.024z" fill="#000000" class="color000000 svgShape"></path><path fill="#7764f0" d="M1435.676 1468.07c-26.195-87.899-52.39-175.799.073-237.917 47.813-56.612 160.954-91.811 194.331-91.811 3.246 0 5.739.333 7.342 1.012 18.089 7.657-76.851 59.31-107.257 90.27-30.406 30.96 3.724 41.228 4.963 55.709s-30.414 33.176-50.896 51.96c-20.483 18.784-29.797 37.657-36.028 59.469-6.231 21.809-9.38 46.559-12.528 71.308z" class="color47a4d7 svgShape"></path><path fill-opacity=".153" d="M1638.29 1141.853c-7.494 0-19.062 2.151-34.704 6.451-22.92 7.148-40.583 14.182-52.986 21.102-23.001 12.875-43.569 31.273-61.705 55.193-13.229 16.534-16.579 30.366-10.051 41.494 3.756 5.358 6.676 8.677 8.76 9.959a50.08 50.08 0 0 0 8.646 5.627c9.603 4.691 20.114 7.443 31.531 8.256 2.136.183 4.319.31 6.548.381.166-.428.316-.854.449-1.277.663-2.524.466-4.942-.589-7.254l-13.409-18.127c-1.704-2.729-2.743-5.746-3.117-9.048-.374-3.303.368-7.008 2.226-11.114l3.961-6.549c-.272-1.689 8.418-9.765 26.072-24.229l74.488-53.438c6.393-5.017 10.879-9.26 13.458-12.731l1.823-4.402-.223-.274c-.371-.014-.764-.02-1.178-.02z" fill="#000000" class="color000000 svgShape"></path><path fill="#3e2da7" d="M1437.027 1451.462c3.52-57.676 7.04-115.351 51.52-140.754 23.322-13.319 57.904-17.766 86.831-17.766 26.245 0 47.834 3.661 52.138 7.677 9.047 8.444-58.302 18.464-82.99 30.204-24.688 11.74-6.717 25.199-9.118 34.035-2.401 8.836-25.173 13.049-41.356 19.731s-25.776 15.834-34.182 27.391-15.625 25.52-22.843 39.482z" class="color2d7ca7 svgShape"></path><path fill-opacity=".153" d="M1627.489 1302.286c-4.433-1.622-11.743-2.852-21.928-3.692-15.108-.729-27.08-.389-35.916 1.022-16.395 2.641-32.545 9.077-48.452 19.306-11.404 6.92-16.379 14.379-14.924 22.377 1.063 3.983 2.072 6.578 3.028 7.787a31.534 31.534 0 0 0 3.898 5.2c4.667 4.853 10.291 8.755 16.87 11.707a77.888 77.888 0 0 0 3.792 1.643c.191-.218.371-.437.541-.659.939-1.35 1.346-2.823 1.222-4.419l-4.011-13.626c-.418-1.984-.38-3.994.113-6.029.493-2.036 1.734-4.067 3.722-6.094l3.761-3.019c.204-1.058 7.094-3.956 20.668-8.694l55.635-15.5c4.868-1.585 8.44-3.126 10.716-4.621l2.031-2.21-.072-.21c-.217-.09-.449-.179-.694-.269z" fill="#000000" class="color000000 svgShape"></path><path fill="#7764f0" d="M1418.279 1461.305c42.633-15.373 85.266-30.746 94.572-69.829s-14.714-101.876-23.066-106.822c-.37-.219-.709-.324-1.019-.324-6.706 0-.166 49.218-3.404 69.452-1.919 11.991-7.273 13.804-12.667 13.804-2.338 0-4.684-.341-6.761-.341-1.591 0-3.025.2-4.177.906-6.121 3.756-4.267 21.826-5.727 35.481s-6.231 22.894-13.075 31.771c-6.843 8.876-15.759 17.389-24.676 25.902z" class="color47a4d7 svgShape"></path><path fill-opacity=".153" d="M1488.538 1285.042c2.199 2.98 4.738 8.21 7.617 15.691 3.882 11.21 6.267 20.296 7.155 27.258 1.629 12.922.349 26.497-3.841 40.726-2.693 10.11-7.209 15.5-13.548 16.169-3.233.078-5.409-.109-6.53-.561a24.772 24.772 0 0 1-4.774-1.787c-4.682-2.443-8.86-5.814-12.534-10.115-.7-.796-1.39-1.626-2.073-2.492.122-.192.247-.376.377-.553.809-1.005 1.828-1.636 3.057-1.895l11.141.013a10.579 10.579 0 0 0 4.512-1.415c1.423-.821 2.678-2.203 3.766-4.146l1.441-3.496c.752-.387 1.413-6.212 1.984-17.474l-.607-45.293c.119-4.014.49-7.042 1.114-9.086l1.215-2.016.174.009c.114.145.233.299.354.463z" fill="#000000" class="color000000 svgShape"></path><path fill="#745ffd" d="M1527.069 1451.8c0 25.003-34.403 45.271-76.841 45.271-42.438 0-76.841-20.269-76.841-45.271 0-25.003 34.403-45.271 76.841-45.271 42.438 0 76.841 20.268 76.841 45.271z" class="colorfd715f svgShape"></path><path fill-opacity=".153" d="m1500.039 1417.332.515 2.535c2.988 15.005 1.869 25.275-3.36 30.81-6.164 7.891-16.299 14.251-30.402 19.08-10.078 3.393-19.786 5.09-29.123 5.09-8.875 0-17.416-1.533-25.621-4.598-15.855-5.965-27.979-15.678-36.372-29.14-1.365 3.38-2.128 6.944-2.289 10.691.02 4.179.935 8.191 2.745 12.035l3.294 5.587c2.612 3.622 5.936 6.97 9.972 10.042 12.595 9.504 29.396 15.235 50.404 17.195 3.499.222 6.924.334 10.278.334 17.741 0 33.443-3.118 47.104-9.353 16.131-7.421 25.859-17.32 29.184-29.696l.701-6.143c-.549-12.825-8.051-23.495-22.506-32.011a79.801 79.801 0 0 0-4.496-2.457h-.028z" fill="#000000" class="color000000 svgShape"></path><path fill="#dadada" d="M1439.419 898.757v.005l-313.154-.004v.005l-313.154-.003a4.093 4.093 0 0 0-4.092 4.093V1307.503a4.092 4.092 0 0 0 4.093 4.091v.006c208.769-.002 417.538-.002 626.308 0a4.093 4.093 0 0 0 4.092-4.093v.005V902.85a4.094 4.094 0 0 0-8.186 0v.004l.001 404.654 4.093-4.093-626.308-.004 4.092 4.093v-404.65l-4.093 4.093 313.154-.002v.005l313.154-.007a4.093 4.093 0 0 0 0-8.186z" class="colordadada svgShape"></path><path fill="#dadada" d="m871.012 980.624 120.35.005v13.049l-120.35.005v-13.059zM871.011 1026.076l186.084.005v13.05l-186.084.005v-13.06zM1093.634 1088.389l-225.004-.005v162.407l225.004-.005v-162.397zM1314.314 1237.359l-186.085-.005v13.06l186.085-.005v-13.05zM1387.482 1133.349l-259.953-.005v86.234l259.953-.005v-86.224zM1381.027 1111.147c-5.549-18.884-10.453-34.363-24.281-39.897-5.697-2.28-13.119-3.013-22.06-3.848-9.9-.924-21.347-1.96-31.832-6.157-3.532-1.413-6.981-3.192-10.265-5.463-19.042-13.17-30.924-42.139-40.349-64.77-1.062-2.549-2.083-5.003-3.101-7.406-9.265-21.887-15.505-31.893-20.315-31.893-.687 0-1.712.236-3.175 1.308-4.985 3.654-11.091 13.599-18.345 25.636-6.354 10.544-13.408 22.31-20.574 29.486-7.285 7.295-14.855 10.094-22.541 10.094-8.375 0-16.506-3.376-23.562-6.247a4.649 4.649 0 1 1 3.505-8.614c7.456 3.034 13.836 5.561 20.057 5.561 5.066 0 10.31-1.708 15.961-7.366 6.182-6.19 12.604-16.787 19.189-27.715 6.698-11.115 13.919-23.285 20.813-28.337 2.643-1.937 5.549-3.106 8.671-3.106 12.619 0 21.204 19.438 28.879 37.568 1.078 2.547 2.015 4.799 3.122 7.456 9.845 23.641 20.766 49.432 37.053 60.697 2.641 1.827 5.46 3.289 8.43 4.478 9.024 3.611 19.099 4.584 29.241 5.531 8.521.795 17.442 1.588 24.651 4.473 18.828 7.535 24.61 28.424 29.748 45.909a4.65 4.65 0 1 1-8.92 2.622z" class="colordadada svgShape"></path><path fill="#140c44" d="M1213.841 948.875c0-9.489 7.693-17.182 17.182-17.182 9.489 0 17.182 7.693 17.182 17.182s-7.693 17.182-17.182 17.182c-9.49 0-17.182-7.692-17.182-17.182zM1266.619 1040.144c0-9.489 7.693-17.182 17.182-17.182 9.489 0 17.182 7.693 17.182 17.182s-7.693 17.182-17.182 17.182c-9.489 0-17.182-7.693-17.182-17.182zM1346.164 1071.069c0-9.489 7.693-17.182 17.182-17.182s17.182 7.693 17.182 17.182-7.693 17.182-17.182 17.182-17.182-7.692-17.182-17.182z" class="color0c2f44 svgShape"></path><path fill="#988ce4" d="M676.771 1428.815c-2.54 31.571-5.081 63.141-8.53 79.332-3.449 16.191-7.805 17.001-9.261 21.089-1.456 4.088-.01 11.454 1.435 18.821 16.078.643 32.157 1.286 46.217 1.286 18.848 0 34.068-1.155 40.796-5.014 11.745-6.737-2.397-21.717-18.754-22.882a31.561 31.561 0 0 0-2.221-.077c-10.291 0-21.071 4.687-27.221 4.687-3.274 0-5.235-1.329-5.109-5.403.381-12.276 19.716-49.477 39.052-86.678l-56.404-5.161z" class="colore4b28c svgShape"></path><path fill="#745ffd" d="M725.166 1521.166a15.58 15.58 0 0 0-2.349.16 52.43 52.43 0 0 0-4.728.506c-9.272 1.977-14.978 3.038-17.117 3.184 1.098 3.305 1.568 5.039 1.409 5.202.16 1.313-.318 2.222-1.434 2.726-1.484.539-3.148.807-4.991.803a20.817 20.817 0 0 1-1.946-.1c-2.921-.252-5.393-.516-7.414-.794-7.39-1.238-11.369-1.86-11.938-1.866a44.27 44.27 0 0 0-5.068-.324 31.84 31.84 0 0 0-1.396.025c-4.122.286-7.347 1.115-9.675 2.486.018 3.428.65 8.388 1.895 14.881 18.044.771 32.93 1.171 44.658 1.198 9.439.022 16.832-.196 22.179-.655 8.675-.828 14.018-1.679 16.03-2.555 1.622-.499 3.004-1.071 4.146-1.716 1.908-1.112 3.146-2.398 3.717-3.858 1.025-3.016.07-6.148-2.864-9.398-2.934-3.249-6.92-5.844-11.958-7.785-4.446-1.406-8.165-2.113-11.156-2.12z" class="colorfd715f svgShape"></path><path fill-opacity=".153" d="m676.771 1428.815-.636 7.883c-1.763 21.798-3.308 38.537-4.634 50.216 6.639-1.461 10.546-2.191 11.72-2.191.214-.001.337.023.37.072a9.49 9.49 0 0 1 .443-.011c2.364 0 4.04.989 5.029 2.966.85 1.678.934 4.22.249 7.628-1.031 4.345-3.343 12.204-6.934 23.575-.774 2.825-1.219 4.873-1.337 6.145-.782 4.975.383 8.835 3.496 11.58 1.02 1.685 6.698 2.527 17.034 2.528 1.676 0 3.474-.022 5.395-.066a47.16 47.16 0 0 0 6.454-.578c11.185-2.619 17.482-3.929 18.89-3.929.069 0 .126.003.171.01a34.853 34.853 0 0 1 3.632-.2c1.886 0 3.648.175 5.283.524 4.261 1.146 7.616 2.611 10.063 4.396.038.024.076.049.113.075.112-.445.173-.9.181-1.366-.982-7.409-7.331-12.763-19.049-16.062-1.243-.299-2.611-.493-4.107-.581a25.168 25.168 0 0 0-3.43-.264c-.852 0-1.635.053-2.349.16a52.43 52.43 0 0 0-4.728.506c-9.272 1.977-14.978 3.038-17.117 3.184l.293.892c-.813.117-1.391.176-1.73.176-.141 0-.242-.01-.305-.031-.144.007-.284.01-.422.01-2.549 0-4.076-1.199-4.58-3.598-.857-3.773 2.1-13.219 8.871-28.338 4.57-10.298 12.803-26.911 24.697-49.837-5.088-4.776-10.293-8.531-15.615-11.267-.71-.4-1.454-.791-2.23-1.173l-13.769-1.259 13.764 1.257-33.176-3.032z" fill="#000000" class="color000000 svgShape"></path><path fill="#988ce4" d="M511.536 1422.507c-9.327 30.269-18.653 60.537-25.531 75.594-6.878 15.057-11.306 14.903-13.614 18.578s-2.494 11.179-2.681 18.683c30.573 8.086 61.145 16.172 77.817 16.172 3.184 0 5.861-.295 7.934-.941 12.927-4.03 2.37-21.72-13.346-26.406-4.416-1.316-9.239-1.606-13.825-1.606-3.604 0-7.061.179-10.059.179-6.762 0-11.184-.911-9.673-6.84 3.034-11.901 29.976-44.024 56.919-76.146l-53.941-17.267z" class="colore4b28c svgShape"></path><path fill="#745ffd" d="M538.752 1523.155a15.633 15.633 0 0 0-2.327-.353 52.127 52.127 0 0 0-4.725-.531c-9.481-.081-15.281-.282-17.401-.604.356 3.464.438 5.259.248 5.384-.128 1.316-.792 2.099-1.991 2.349-1.566.205-3.248.105-5.046-.298a20.591 20.591 0 0 1-1.878-.52c-2.797-.879-5.152-1.672-7.065-2.382-6.946-2.812-10.695-4.282-11.249-4.411a44.437 44.437 0 0 0-4.877-1.415 31.057 31.057 0 0 0-1.368-.278c-4.086-.615-7.414-.505-9.984.329-.725 3.35-1.185 8.329-1.378 14.937 17.448 4.666 31.893 8.284 43.336 10.855 9.209 2.069 16.474 3.458 21.793 4.17 8.648 1.074 14.049 1.401 16.202.982 1.692-.135 3.165-.394 4.42-.776 2.103-.672 3.592-1.658 4.465-2.96 1.655-2.721 1.402-5.986-.757-9.796-2.16-3.808-5.488-7.206-9.985-10.194-4.038-2.335-7.515-3.831-10.433-4.488z" class="colorfd715f svgShape"></path><path fill-opacity=".153" d="m511.536 1422.508-2.33 7.558c-6.448 20.897-11.587 36.902-15.414 48.016 6.797.014 10.77.149 11.916.404.209.046.324.096.345.151.148.025.293.053.435.084 2.307.512 3.729 1.841 4.265 3.986.467 1.823-.004 4.323-1.411 7.501-1.949 4.018-5.909 11.188-11.881 21.509-1.368 2.59-2.247 4.493-2.638 5.709-1.842 4.687-1.542 8.707.902 12.062.63 1.866 5.991 3.92 16.081 6.162 1.636.363 3.396.731 5.28 1.105 2.128.426 4.27.705 6.426.837 11.487-.132 17.917-.045 19.292.26.067.015.122.031.165.047 1.257.143 2.453.341 3.589.593 1.842.409 3.523.961 5.044 1.657 3.911 2.043 6.868 4.201 8.871 6.475l.095.097c.206-.41.363-.841.473-1.295.649-7.446-4.389-14.05-15.113-19.811-1.148-.562-2.442-1.048-3.883-1.459a25.212 25.212 0 0 0-3.291-1.002 15.976 15.976 0 0 0-2.327-.353 52.127 52.127 0 0 0-4.725-.531c-9.481-.081-15.281-.282-17.401-.604.033.326.065.638.093.935-.82-.062-1.396-.13-1.728-.203a1.11 1.11 0 0 1-.29-.095 8.236 8.236 0 0 1-.415-.082c-2.489-.552-3.719-2.054-3.69-4.505-.018-3.869 4.917-12.449 14.804-25.74 6.695-9.062 18.334-23.494 34.917-43.295-3.932-5.765-8.199-10.561-12.801-14.385a45.858 45.858 0 0 0-1.922-1.629l-13.168-4.215 13.164 4.212-31.729-10.156z" fill="#000000" class="color000000 svgShape"></path><path fill="#5440d7" d="M514.257 1006.381c-6.707 19.903-13.415 39.806-1.045 70.354 12.371 30.547 43.819 71.738 43.087 138.039-.733 66.301-33.647 157.711-66.561 249.121 11.29 5.229 22.58 10.458 33.627 14.026s21.853 5.474 32.659 7.38c36.919-95.484 73.838-190.967 80.251-273.269 6.413-82.302-17.681-151.422-43.102-183.5-16.114-20.335-32.762-25.784-49.605-25.784-9.727-.002-19.519 1.816-29.311 3.633z" class="color40a2d7 svgShape"></path><path fill-opacity=".153" d="M560.516 1004.787c-12.245-3.021-27.665-2.49-46.259 1.594l-1.666 4.982c-2.31 6.594-4.089 13.483-5.339 20.667-1.25 7.185-1.263 15.059-.039 23.624 2.391 11.186 4.391 18.213 5.999 21.08l9.73 20.083c8.925-1.172 24.378-4.828 46.36-10.965 5.083-.717 10.021-.485 14.813.698 1.636.404 3.255.918 4.857 1.543 11.727 4.724 22.523 22.743 32.389 54.057 6.517 30.691 5.406 59.804-3.333 87.339-4.113 13.782-9.291 27.328-15.532 40.636.782.26-13.026 26.641-41.424 79.141a463.265 463.265 0 0 0-18.854 40.216l-7.422 20.645c-5.154 18.241-7.333 28.192-6.535 29.851-1.068 2.777.309 12.496 4.131 29.155a120.243 120.243 0 0 0 4.605 12.645 171.554 171.554 0 0 0 19.028 3.521c21.636-55.743 36.284-95.21 43.943-118.401 10.729-31.147 19.481-61.439 26.256-90.876 3.316-14.689 5.927-29.072 7.832-43.151l2.221-20.843c2.598-41.648-.606-78.509-9.613-110.583-13.081-43.588-28.031-71.868-44.851-84.838-5.498-5.733-12.596-9.673-21.297-11.82z" fill="#000000" class="color000000 svgShape"></path><path fill="#614ce8" d="M575.59 1021.276c-1.745 20.93-3.49 41.861 15.838 68.555s59.728 59.152 74.899 123.698c15.171 64.546 5.112 161.179-4.947 257.813 12.214 2.372 24.427 4.745 36.008 5.562 3.603.254 7.145.358 10.645.358 7.748 0 15.29-.508 22.831-1.017 12.971-101.547 25.943-203.095 12.454-284.537-13.489-81.442-53.438-142.778-85.803-167.833-14.361-11.117-27.228-15.091-39.265-15.091-15.09 0-28.875 6.246-42.66 12.492z" class="color4cb1e8 svgShape"></path><path fill-opacity=".153" d="M620.121 1008.647c-12.613 0-27.456 4.209-44.53 12.628l-.424 5.236c-.663 6.955-.74 14.069-.233 21.344.508 7.275 2.381 14.923 5.621 22.945 5.001 10.287 8.625 16.63 10.874 19.029l14.258 17.168c8.384-3.276 22.512-10.527 42.383-21.752 4.763-1.914 9.613-2.871 14.548-2.871 1.685 0 3.381.112 5.086.335 12.517 1.776 27.315 16.684 44.394 44.723 13.679 28.237 19.575 56.769 17.686 85.596-.692 14.366-2.474 28.757-5.346 43.173.822.066-6.265 28.986-21.26 86.76a463.203 463.203 0 0 0-8.671 43.562l-2.261 21.822c-.635 18.945-.367 29.127.805 30.547-.371 2.952 3.294 12.058 10.995 27.317a120.242 120.242 0 0 0 7.5 11.173 171.37 171.37 0 0 0 19.317-1.141c7.653-59.302 12.42-101.128 14.3-125.48 2.956-32.81 4.197-64.316 3.722-94.52-.298-15.055-1.209-29.645-2.732-43.769l-2.837-20.768c-7.454-41.058-19.394-76.078-35.823-105.061-23.141-39.185-44.43-63.06-63.867-71.624-6.708-4.247-14.544-6.372-23.505-6.372z" fill="#000000" class="color000000 svgShape"></path><path fill="#988ce4" d="M703.875 651.983c-4.88-9.395-9.761-18.79-9.653-26.518.099-7.04 4.339-12.698 7.458-12.698.305 0 .599.054.877.166 3.128 1.259 4.287 9.838 5.445 18.418l17.704-38.264c.963-.109 1.926-.217 2.849-.217 3.025 0 5.62 1.167 6.38 7.324.991 8.036-1.146 24.574-3.284 41.112 49.661 80.253 99.322 160.505 73.611 200.257-14.099 21.799-50.862 31.419-89.546 31.419-31.861 0-65.024-6.526-87.903-18.148-50.656-25.733-50.888-76.451-13.486-80.077a48.726 48.726 0 0 1 4.696-.216c33.531 0 90.584 29.748 118.409 29.748 4.259 0 7.832-.697 10.532-2.304 21.199-12.613-11.445-81.308-44.089-150.002z" class="colore4b28c svgShape"></path><path fill-opacity=".153" d="M597.625 808.863a3497.73 3497.73 0 0 0-6.896 8.427 65.525 65.525 0 0 0 2.766 6.152c6.075 11.905 17.515 22.369 34.322 31.392 13.189 7.512 34.504 13.161 63.945 16.947 7.167.888 14.532 1.332 22.093 1.332 15.12 0 31.026-1.776 47.72-5.326 11.289-2.805 21.019-6.844 29.192-12.118 4.039-2.643 7.543-5.612 10.515-8.908l3.985-5.197 4.901-10.758 1.116-6.795a283.101 283.101 0 0 0-2.553-5.584c-20.031 16.225-36.135 27.168-48.314 32.83-12.325 5.196-19.879 7.805-22.664 7.825-4.939 1.096-10.646 1.649-17.121 1.661-8.586-.361-15.549-1.269-20.888-2.725-2.939-.155-12.643-3.452-29.113-9.889-20.176-9.042-40.967-20.043-62.371-33.003l-10.635-6.263z" fill="#000000" class="color000000 svgShape"></path><path fill="#745ffd" d="m598.343 596.334 360.881.005v235.54l-360.881.005v-235.55z" class="colorfd715f svgShape"></path><path fill="#ffffff" d="M691.347 639.705a4.838 4.838 0 1 0 0 9.678l111.418.002a4.843 4.843 0 0 0 4.839-4.842 4.838 4.838 0 0 0-4.839-4.839l-111.418.001zm-56.358-3.146h34.37V669.5l-34.37-.002v.003-32.942zm-1.249-2.497a1.249 1.249 0 0 0-1.249 1.248v35.437a1.25 1.25 0 0 0 1.249 1.249l36.868-.001c.69 0 1.249-.559 1.249-1.249V635.31c0-.69-.559-1.249-1.249-1.249l-36.868.001zm58.028 31.404a4.839 4.839 0 0 0 0 9.678h176.891a4.84 4.84 0 0 0 0-9.678l-176.891.005v-.005zm1.363 34.17a4.838 4.838 0 1 0 0 9.678l111.418.002a4.84 4.84 0 0 0 0-9.681H693.131zm-58.779-2.581h34.37v32.941l-34.37-.002v.003-32.942zm-1.248-2.497a1.249 1.249 0 0 0-1.249 1.248v35.437a1.25 1.25 0 0 0 1.249 1.249l36.867-.001c.69 0 1.249-.559 1.249-1.249l-.001-35.436a1.25 1.25 0 0 0-1.249-1.249l-36.867.005v-.004zm60.447 30.839a4.839 4.839 0 0 0 0 9.678h176.891a4.84 4.84 0 0 0 0-9.678l-176.891.005v-.005zm-.42 35.605a4.84 4.84 0 0 0 0 9.678l111.418.003a4.84 4.84 0 0 0 0-9.681H693.131zm-59.733-5.361 34.37.005v-.002V788.581l-34.37-.002v.003-32.941zm-1.249-2.497a1.246 1.246 0 0 0-1.249 1.249v35.436a1.246 1.246 0 0 0 1.249 1.249l36.868-.001c.69 0 1.249-.559 1.249-1.249v-35.436c0-.69-.559-1.249-1.249-1.249l-36.868.001zm61.402 33.618a4.839 4.839 0 0 0 0 9.678h176.891a4.84 4.84 0 0 0 0-9.679l-176.891.005v-.004z" class="colorffffff svgShape"></path><path fill="#988ce4" d="m729.196 596.328-22.228.273c7.041-5.793 14.081-11.586 22.059-13.914a29.168 29.168 0 0 1 8.151-1.165c5.5 0 10.934 1.575 15.33 4.786 6.587 4.812 10.845 13.298 7.979 18.865-2.231 4.332-8.777 6.896-14.588 6.896-1.657 0-3.253-.208-4.673-.643-6.404-1.962-9.217-8.53-12.03-15.098z" class="colore4b28c svgShape"></path><path fill="#140c44" d="M508.199 1018.217s9.821 13.438 16.78 17.587c8.757 5.221 18.752 8.318 28.685 10.617 16.429 3.802 33.421 5.441 50.424 5.441 12.322 0 24.65-.861 36.776-2.382 14.149-1.776 31.531-2.519 40.581-13.539 8.906-10.844 4.314-28.411 1.145-42.08-5.896-25.433-14.729-51.493-11.775-77.433 5.153-45.248 37.777-110.939.169-136.623-14.949-10.209-35.801-16.783-55.491-16.783-14.658 0-28.673 3.643-39.132 12.141-35.119 28.535-43.612 80.176-55.792 123.756-6.403 22.91-11.876 46.219-14.654 69.845-1.423 12.104-2.41 24.463-.859 36.551.563 4.391 3.143 12.902 3.143 12.902z" class="color0c2f44 svgShape"></path><path fill-opacity=".153" d="m636.351 822.242-3.136 8.066c-12.102 29.539-17.534 53.982-16.297 73.33 1.657 13.87 3.302 22.229 4.934 25.077 1.746 6.076 8.94 22.375 21.581 48.898 2.146 5.076 3.785 9.934 4.919 14.576 2.248 9.742 1.429 17.443-2.458 23.101-3.518 7.467-14.755 14.069-33.71 19.806-9.823 2.146-19.028 3.219-27.616 3.219-8.004 0-15.471-.932-22.402-2.797-19.909-3.845-38.78-21.371-56.613-52.578l-.019.002c.169 10.705 1.057 22.463 2.665 35.274l.563.478c15.379 12.461 27.213 20.541 35.501 24.24 5.154 3.177 18.026 5.855 38.617 8.035 6.909.576 14.014.863 21.313.863 17.306 0 35.708-1.618 55.205-4.854 10.504-1.404 18.505-6.032 24.002-13.883 3.069-6.167 4.007-13.129 2.814-20.887-.047-1.285-.71-5.031-1.989-11.238-8.555-34.619-12.568-51.989-12.039-52.11a126.388 126.388 0 0 1-1.871-25.946c-.1-2.586.668-8.649 2.305-18.19l11.877-51.132 2.439-12.814.079-.467c-16.319-6.849-33.206-12.873-50.664-18.069z" fill="#000000" class="color000000 svgShape"></path><path fill="#988ce4" d="M847.702 836.926c6.393-8.439 12.785-16.878 19.813-20.096a17.825 17.825 0 0 1 7.354-1.625c4.17 0 7.41 1.605 7.542 3.778.205 3.366-7.048 8.093-14.301 12.821l42.159-.425c2.187 3.521 4.374 7.043-2.46 11.386-6.834 4.343-22.69 9.507-38.545 14.672-49.574 76.358-99.149 152.716-144.381 152.716-1.649 0-3.292-.102-4.93-.308-46.548-5.876-88.261-96.769-88.118-154.594.1-40.371 20.603-64.623 39.538-64.623 8.186 0 16.078 4.533 21.903 14.255 19.297 32.212 15.891 121.391 37.845 136.226 2.312 1.562 4.906 2.3 7.751 2.3 24.169 0 66.499-53.241 108.83-106.483z" class="colore4b28c svgShape"></path><path fill="#140c44" d="M671.122 788.383a38.38 38.38 0 0 0-4.288.25c-3.364.707-6.666 2.084-9.907 4.132l-4.735 3.545c-3.099 2.688-5.976 5.988-8.632 9.898-14.052 21.646-17.048 50.778-8.987 87.395l.203.001c5.148 0 11.799-1.366 19.951-4.096 13.125-4.119 30.182-11.706 51.169-22.761a79.165 79.165 0 0 0 4.771-2.703 6928.059 6928.059 0 0 1-4.17-26.348c-4.88-20.868-9.26-33.205-13.14-37.013-5.124-8.2-12.535-12.301-22.235-12.3z" class="color0c2f44 svgShape"></path><path fill="#988ce4" d="M610.635 763.318c5.558-10.153 11.116-20.306 12.93-33.146 1.813-12.841-.119-28.369 6.685-33.42 1.732-1.286 4.03-1.893 6.599-1.893 7.521 0 17.356 5.205 22.067 13.807 6.32 11.54 3.421 29.194-1.87 34.081-1.263 1.167-2.662 1.606-4.113 1.606-4.416 0-9.311-4.067-12.306-4.067a2.82 2.82 0 0 0-.416.029c-3.865.561-3.915 9.563-3.478 15.215s1.361 7.956 2.285 10.26c-3.304 1.398-6.609 2.795-10.631 2.795-.497 0-1.005-.021-1.525-.067-4.731-.412-10.479-2.806-16.227-5.2z" class="colore4b28c svgShape"></path><path fill-opacity=".153" d="M630.142 730.801c.429 2.813.848 4.92 1.258 6.322.437 1.387.725 2.194.864 2.421a10.961 10.961 0 0 0 1.691 2.715c.142.225.699.776 1.673 1.651.384.328.85.685 1.398 1.07.312-1.589.83-2.834 1.555-3.736.547-.421 1.038-.713 1.472-.876-1.923-.904-3.491-1.88-4.704-2.929-1.358-1.116-3.087-3.329-5.186-6.639h-.021z" fill="#000000" class="color000000 svgShape"></path><path d="M648.884 712.336c3.791 3.625 7.582 7.249 11.056 7.249 1.408 0 2.764-.595 4.047-2.026 4.45-4.964 8.023-19.984 5.034-26.487-1.535-3.342-4.803-4.435-8.913-4.435-3.889 0-8.532.979-13.175 1.957-3.018-3.033-6.036-6.065-10.343-7.048a14.782 14.782 0 0 0-3.27-.354c-3.534 0-7.158 1.171-8.81 3.478-2.176 3.038-.931 8.048.314 13.057-4.089 2.399-8.179 4.797-10.419 8.986-2.241 4.189-2.631 10.169.838 15.178 2.906 4.195 8.52 7.709 13.939 7.709a11.48 11.48 0 0 0 3.11-.417c6.25-1.754 11.421-9.3 16.592-16.847z" fill="#000000" class="color000000 svgShape"></path><path fill="#dadada" d="M1400.518 516.941v.005l97.222-.003v.005l97.222-.003a3.6 3.6 0 0 1 3.599 3.599v237.744a3.6 3.6 0 0 1-3.599 3.599v.005h-194.444a3.598 3.598 0 0 1-3.599-3.599v.005V520.54a3.599 3.599 0 1 1 7.198 0v237.754l-3.599-3.599 194.444-.005-3.599 3.599V520.545l3.599 3.599-97.222-.002v.005l-97.222-.007a3.599 3.599 0 1 1 0-7.199z" class="colordadada svgShape"></path><path fill="#5e45ff" d="m1448.898 600.079 172.376.005v191.288l-172.376.005V600.079z" class="colorffce45 svgShape"></path><path fill="#ffffff" d="M1510.55 657.031c-3.346 0-6.401.291-9.165.872-2.764.51-5.164 1.419-7.201 2.729-1.964 1.236-3.492 2.91-4.582 5.02-1.091 2.037-1.636 4.619-1.637 7.746v10.366l17.13-.001v-12.001c0-3.274 1.818-4.911 5.455-4.911s5.455 1.637 5.455 4.91v8.401c0 1.455-.291 2.727-.872 3.818-.582 1.092-1.673 2.256-3.273 3.493l-17.13 13.419c-2.764 2.11-4.765 4.583-6.001 7.42-1.236 2.837-1.854 6.037-1.854 9.602v19.093l46.589.005V725.77l-29.241.005v-5.679c0-1.382.109-2.582.328-3.6.218-1.018.582-2 1.091-2.945.437-.873 1.055-1.71 1.855-2.51.8-.8 1.782-1.673 2.945-2.618l16.584-13.093c2.692-2.109 4.656-4.255 5.892-6.437 1.164-2.182 1.746-4.873 1.746-8.075v-7.528c0-3.054-.618-5.636-1.855-7.746-1.236-2.109-2.946-3.782-5.128-5.02-2.109-1.237-4.655-2.146-7.637-2.728-2.911-.511-6.075-.765-9.494-.765zm29.678 2.291v9.384l29.022-.001-24.659 68.3 19.966.005 23.24-67.977v-9.71l-47.569-.001z" class="colorffffff svgShape"></path><path fill="#745ffd" d="m1432.209 583.759 54.371.005v54.367l-54.371.005v-54.377z" class="colorfd715f svgShape"></path><path fill="#dadada" d="M1220.7 472.502v.005l-.65 9.667-.028.248c-3.199 20.207-12.568 36.377-28.106 48.51l-.008.006c-15.658 12.131-34.068 17.054-55.229 14.767l-.136-.018c-20.208-3.199-36.379-12.568-48.511-28.107l-.151-.214c-8.528-13.342-12.775-22.051-12.743-26.126l.101.765c-1.745-6.293-2.627-12.854-2.647-19.683l.001-.078c.528-20.933 7.758-38.365 21.691-52.296v.005c13.931-13.935 31.363-21.167 52.296-21.695l.14.005c20.933.525 38.365 7.753 52.297 21.685v.005c13.932 13.928 21.162 31.358 21.69 52.291a2.782 2.782 0 1 1-5.561.14v.005c-.491-19.455-7.178-35.624-20.062-48.508v.005c-12.884-12.888-29.052-19.577-48.504-20.068l.14.005c-19.451.488-35.619 7.174-48.503 20.058v.005c-12.884 12.881-19.572 29.047-20.063 48.498l.001-.078c.018 6.331.833 12.402 2.445 18.213.069.249.103.507.101.765v.005c-.024 2.972 3.932 10.666 11.867 23.081l-.151-.214c11.233 14.387 26.231 23.066 44.996 26.036l-.136-.018c19.674 2.126 36.748-2.419 51.224-13.635l-.008.006c14.387-11.233 23.066-26.232 26.036-44.995l-.028.248.65-9.672a2.782 2.782 0 0 1 2.962-2.588 2.784 2.784 0 0 1 2.587 2.964z" class="colordadada svgShape"></path><path fill="#261689" d="M1130.053 468.887v.005l15.684 22.705-12.992-.294 35.29-46.453a8.024 8.024 0 0 1 12.779 9.708v.005l-35.289 46.447a8.025 8.025 0 0 1-12.993-.295v.005l-15.684-22.714a8.024 8.024 0 1 1 13.205-9.119z" class="color165089 svgShape"></path></svg>