<svg xmlns="http://www.w3.org/2000/svg" viewBox="0 0 4680 3120" id="Manusingmetaversetech"><g data-name="8" fill="#000000" class="color000000 svgShape"><path fill="#d4cefe" d="M3539.06 2569.17c-167.48 63.23-992 379.43-1038.49 26.9-.15-1.2-.3-2.39-.43-3.58-21.14-189.68 281.27-238.57 406-271.88 227.17-60.66 462.86-104.53 696.52-130.9 11.44-1.29 26.15-2.92 42.92-4.37l1.3-.11c92.88-7.91 246.91-9.74 257.7 82.52 20.96 179-240.29 254.14-365.52 301.42Z" opacity=".5" class="colorcee2fe svgShape"></path><path fill="#d4cefe" d="M3646.9 2185.23c-6.67 87.61-22.48 177.85-75.43 247.51-63.15 83.1-167.62 122.26-268.13 150.42-261.59 73.28-549.32 96.84-803.2 9.33-21.14-189.68 281.27-238.57 406-271.88 227.17-60.66 462.86-104.53 696.52-130.9 11.44-1.29 26.15-2.92 42.92-4.37ZM1278.93 811.77c-44.7 58-105.15 113.74-127.88 139.73q-29.79 34-60 67.72-16.65 18.48-33.51 36.8-28.68 31.13-58.11 61.55-3.95 4.08-7.91 8.14c-.17.16-.33.34-.5.5q-5.16 5.3-10.36 10.55-10.07 10.18-20.21 20.23-8 7.89-16 15.68-5.1 5-10.23 9.89-8.72 8.37-17.52 16.64-4.44 4.18-8.91 8.33-34.8 32.33-71.17 63c-42.16 35.43-88.87 70.14-143.51 77-13.59 1.69-27.87 1.5-40.33-4.17-39.22-17.86-37.76-73.87-26.06-115.35a719.53 719.53 0 0 1 60.45-147.64q2.77-5.14 5.64-10.22 9-16.06 18.72-31.67 5.68-9.18 11.63-18.18 11.57-17.61 24-34.66c2.31-3.16 4.63-6.31 7-9.44a1000.39 1000.39 0 0 1 85.63-99.67c77.66-79.5 167.57-158.72 272.43-199.37 40.43-15.67 145.32-53.57 194.59-22.48a51.84 51.84 0 0 1 16.62 16.56c22.38 35.86-4.86 89.1-44.5 140.53Z" class="colorcee2fe svgShape"></path><path fill="#7563e5" d="M2259.88 2456c-138 54.65-277.74 105.13-420.2 147.43-71.24 21.06-143.15 40.07-215.81 56s-146.07 28.72-220.13 36.79c-18.51 2.11-37 3.8-55.64 5.19s-37.19 2.42-55.83 3l-28 .49c-9.32.12-18.64.38-28 .22q-28-.3-55.93-2-7-.43-14-.94l-14-1.19c-9.31-.72-18.58-1.89-27.86-2.89-4.64-.46-9.26-1.16-13.89-1.78l-13.88-1.89-13.71-2.23c-4.61-.76-9.23-1.46-13.81-2.39-9.17-1.77-18.36-3.41-27.47-5.55-4.55-1-9.12-2-13.67-3.08l-13.58-3.45-6.79-1.73-6.74-1.92-13.47-3.88c-4.48-1.32-8.91-2.84-13.36-4.25l-6.67-2.15c-1.11-.37-2.23-.7-3.33-1.09l-3.3-1.19-13.19-4.75-3.29-1.19c-1.1-.4-2.18-.86-3.27-1.28l-6.51-2.6-6.5-2.61c-2.17-.88-4.36-1.69-6.48-2.67l-12.83-5.67c-2.12-1-4.29-1.84-6.38-2.88l-6.31-3.07c-4.19-2.05-8.41-4.07-12.59-6.16l-12.33-6.64-6.17-3.31-6.05-3.55-12.09-7.08-11.82-7.51-5.9-3.78c-2-1.27-3.84-2.66-5.77-4l-11.48-8q-22.56-16.43-44.35-33.86c-58-46.47-112.06-98.29-158.28-156.67q-17.28-21.92-33-45t-29.55-47.36a623.62 623.62 0 0 1-46.57-101.42 572.21 572.21 0 0 1-32.1-220.15q1.38-28 5.31-55.78c2.63-18.49 6.09-36.87 10.27-55.08s9.1-36.25 14.66-54.08 11.9-35.43 18.72-52.82 14.35-34.49 22.26-51.41 16.43-33.54 25.36-49.93c17.87-32.78 37.6-64.51 58.63-95.32q15.78-23.1 32.57-45.48c11.1-15 22.61-29.65 34.32-44.14 5.85-7.26 11.82-14.42 17.79-21.55 3-3.57 6-7.15 9.05-10.66l9.2-10.52 18.4-21c6.25-7 12.48-13.79 18.82-20.64q37.93-41 78.21-79.77c13.41-12.91 26.91-25.74 40.66-38.25s27.45-25.17 41.5-37.34l21-18.33c7.09-6.1 14.13-12.09 21.28-18.1l21.49-17.78c7.18-5.92 14.31-11.88 21.57-17.7 14.56-11.59 29.2-23 43.82-34.55s29.42-22.76 44.27-33.94q44.61-33.49 90.33-65.42l22.91-15.94 23.11-15.58 46.26-31.2-3.64 6.77v-.79c0-.16 0-.33.07-.49s.08-.44.13-.66a7.21 7.21 0 0 1 .24-.79l.17-.44c.07-.17.15-.35.24-.52s.18-.33.29-.52.25-.39.38-.58a8.21 8.21 0 0 1 1-1.11 8 8 0 0 1 1.21-.95 8 8 0 0 1 1.22-.64 8.42 8.42 0 0 1 1.05-.37l.46-.11.37-.07a8.25 8.25 0 0 1 1.31-.1l-4.47 1.37c8.26-5.45 16.5-10.81 24.79-16.2l12.41-8.07 12.52-8c8.35-5.27 16.71-10.58 25.16-15.7l12.71-7.78 12.68-7.6 6.36-3.81 6.41-3.74 12.82-7.47q12.79-7.45 25.77-14.71 25.88-14.51 52.14-28.31 13.13-6.9 26.35-13.6c8.84-4.44 17.73-8.76 26.59-13.15l13.31-6.55c4.43-2.18 8.94-4.22 13.4-6.34l26.85-12.58 27.08-12.09 13.54-6 13.66-5.77c9.11-3.84 18.19-7.72 27.32-11.5l27.54-11c4.6-1.81 9.16-3.71 13.79-5.44l13.87-5.22 13.87-5.23c4.63-1.72 9.23-3.52 13.9-5.14l27.92-9.92 7-2.48c2.33-.82 4.68-1.58 7-2.37l14-4.7 14.06-4.68c2.34-.77 4.68-1.57 7-2.32l7.07-2.21 28.28-8.83c4.7-1.51 9.46-2.83 14.19-4.23l14.22-4.16 14.21-4.16c4.74-1.37 9.52-2.61 14.28-3.93l28.58-7.75 28.71-7.23c4.79-1.18 9.56-2.47 14.37-3.57l14.41-3.35 14.42-3.36c4.8-1.12 9.61-2.25 14.44-3.24 38.54-8.49 77.32-15.82 116.21-22.39l.29 1.58-29 5.91c-4.82 1-9.66 1.91-14.46 3l-14.43 3.2-14.32 3.19-7.21 1.59c-2.4.53-4.79 1.13-7.19 1.69l-28.69 6.88c-4.8 1.11-9.56 2.36-14.33 3.59l-14.31 3.66-14.3 3.66c-4.78 1.2-9.5 2.58-14.26 3.87l-28.46 7.83-28.34 8.33c-4.72 1.4-9.45 2.73-14.16 4.18l-14.08 4.41-14.09 4.4c-4.69 1.49-9.4 2.89-14.06 4.48l-28 9.33-7 2.33c-2.33.78-4.64 1.63-7 2.44l-13.91 4.92-13.92 4.9c-2.31.82-4.64 1.61-7 2.47l-6.91 2.57-27.64 10.31c-4.62 1.68-9.17 3.54-13.75 5.33l-13.73 5.41-13.65 5.42c-4.58 1.79-9.09 3.75-13.64 5.62l-27.23 11.33-27 11.8-13.51 5.91-13.4 6.16-26.77 12.34L1569 819c-4.42 2.16-8.87 4.24-13.25 6.46l-13.14 6.68c-8.75 4.46-17.54 8.86-26.26 13.38s-17.39 9.15-26 13.79q-26 14-51.55 28.57-12.78 7.32-25.46 14.83l-12.66 7.53-6.33 3.77-6.29 3.84-12.61 7.71-12.45 7.74c-8.37 5.18-16.6 10.51-24.88 15.83s-16.46 10.71-24.68 16.14-16.45 10.84-24.62 16.3l-4.48 1.34h.7c.17 0 .33 0 .59-.07l.36-.07.46-.11a8.23 8.23 0 0 0 1-.36 8.44 8.44 0 0 0 1.22-.64 8 8 0 0 0 1.2-1 7.58 7.58 0 0 0 1-1.11c.13-.19.26-.38.38-.58s.2-.33.29-.51l.24-.52.17-.44c.1-.27.19-.6.24-.79s.1-.44.13-.65l.06-.49v-.77l-3.64 6.76-45.88 31.3-22.86 15.68-22.72 15.92q-45.37 32-89.74 65.36c-14.78 11.14-29.55 22.27-44 33.79l-43.6 34.32c-7.22 5.77-14.33 11.68-21.47 17.55L977 1213.12c-7.06 5.92-14.16 11.93-21.16 17.88l-21 18.13c-14.06 12-27.65 24.55-41.42 36.89s-27.2 25-40.57 37.78q-40.07 38.33-78 78.7c-6.31 6.72-12.6 13.55-18.8 20.35l-18.37 20.72-9.17 10.37c-3.06 3.46-6 7-9 10.5-6 7-11.93 14.09-17.77 21.24-11.69 14.28-23.17 28.73-34.26 43.48s-22 29.6-32.55 44.74q-31.61 45.42-58.76 93.66a908.31 908.31 0 0 0-48.22 99.38q-10.49 25.55-19.25 51.76t-15.26 53.07q-6.6 26.82-11 54.12t-6.06 54.89a561.1 561.1 0 0 0 3.65 110.3 552.84 552.84 0 0 0 25.44 107.52A601 601 0 0 0 551 2299.44c9.07 16.1 18.86 31.79 29.23 47.09s21.33 30.21 32.82 44.69a846.07 846.07 0 0 0 74.62 82 1037.72 1037.72 0 0 0 83.85 72.61q21.94 17 44.6 33l11.44 7.74c1.92 1.28 3.79 2.62 5.74 3.84l5.87 3.63 11.75 7.25 12 6.78 6 3.39 6.14 3.15 12.29 6.29c4.15 2 8.34 3.9 12.5 5.85l6.26 2.91c2.08 1 4.23 1.81 6.34 2.72l12.72 5.35c2.11.93 4.28 1.69 6.43 2.52l6.45 2.45 6.45 2.44c1.08.4 2.15.84 3.23 1.21l3.27 1.11 13.07 4.45 3.27 1.11c1.09.36 2.19.68 3.29 1l6.61 2c4.41 1.31 8.79 2.73 13.22 3.95l13.33 3.58 6.67 1.78 6.72 1.58 13.44 3.17c4.49 1 9 1.86 13.52 2.79 9 2 18.08 3.46 27.14 5.08 4.53.85 9.09 1.47 13.64 2.15l13.67 2 13.71 1.68c4.57.54 9.13 1.17 13.73 1.56 9.17.85 18.33 1.87 27.52 2.46l13.78 1c4.6.3 9.2.55 13.8.79q27.61 1.38 55.28 1.47c9.22.1 18.44-.23 27.67-.42l27.66-.59q55.31-2.08 110.43-8.21c36.74-3.86 73.36-9 109.84-15s72.83-13 109-20.58c72.41-15.32 144.22-33.52 215.53-53.61 142.63-40.19 283.07-88.17 422.73-138.23Z" class="color6396e5 svgShape"></path><path fill="#7563e5" d="M2155.09 622.15a2278.25 2278.25 0 0 1 407.33-42c17.1-.37 34.2-.16 51.3-.16 8.55.09 17.1.3 25.65.44l12.82.24c4.28.1 8.55.28 12.82.41l25.64.9 25.63 1.31 12.81.67 12.8.87c8.53.59 17.07 1.11 25.6 1.76 17 1.48 34.11 2.76 51.12 4.59l12.77 1.29 6.38.64 6.38.74 25.49 3c4.25.47 8.49 1 12.73 1.62l12.72 1.71c8.48 1.14 17 2.25 25.42 3.58l25.38 3.83 25.32 4.24C3106.11 635 3239.09 671 3366.1 722.39a1620.94 1620.94 0 0 1 185.18 88.53c59.61 33.62 117.11 71 171.09 113.09s104.45 88.64 149.43 140.22 84.32 108.21 114.95 169.54l5.58 11.57 2.79 5.78 1.38 2.9 1.29 2.94 5.16 11.77c1.7 3.93 3.5 7.83 5.08 11.8s3.21 7.94 4.75 11.93l4.64 12 4.63 12 4.22 12.13 4.21 12.13c.7 2 1.43 4 2.09 6.07l1.89 6.14 3.77 12.29 1.89 6.14c.61 2 1.31 4.08 1.83 6.16l6.67 24.83c.59 2.06 1 4.16 1.52 6.25l1.43 6.27 2.86 12.54a693.54 693.54 0 0 1 14.24 101.93 604.9 604.9 0 0 1-2.26 103.09l-.68 6.42-.34 3.21-.47 3.2L4063 1658l-.94 6.39c-.3 2.13-.78 4.24-1.16 6.36l-2.41 12.7c-.42 2.11-.77 4.24-1.25 6.34l-1.47 6.3-3 12.59-.75 3.15-.86 3.11-1.73 6.23-3.47 12.47a592.07 592.07 0 0 1-38.44 96c-3.73 7.78-8 15.25-12.11 22.85-2 3.82-4.29 7.49-6.46 11.21l-6.57 11.14c-9.17 14.61-18.56 29.08-28.77 43-2.55 3.48-5 7-7.64 10.43l-7.9 10.23-4 5.11-4.1 5-8.19 10c-2.76 3.3-5.62 6.53-8.42 9.79s-5.6 6.55-8.54 9.7l-8.7 9.54-2.18 2.39-2.23 2.33-4.47 4.66c-11.84 12.51-24.26 24.44-36.81 36.21-6.4 5.75-12.68 11.64-19.23 17.22-3.25 2.81-6.47 5.67-9.76 8.44l-9.9 8.27c-13.29 10.92-26.78 21.59-40.64 31.77-6.87 5.18-13.92 10.1-20.9 15.12s-14.12 9.81-21.29 14.54q-42.89 28.67-88.36 53.13-22.7 12.24-46 23.4c-7.79 3.68-15.6 7.29-23.49 10.77-3.95 1.73-7.91 3.45-11.9 5.12l-6 2.48c-2 .82-4 1.61-6.15 2.43l-1.81.69-2-.19c-13.55-1.28-27.33-2.34-41-3.33s-27.45-1.87-41.18-2.65q-41.22-2.4-82.49-3.69t-82.55-1.73q-41.28-.27-82.56.36l-20.63.47-10.32.24-10.31.35-20.62.71-20.62.92c-6.87.26-13.74.65-20.6 1l-20.6 1.18-20.58 1.41c-3.43.24-6.86.45-10.29.73l-10.28.85-20.55 1.71-20.53 2-10.26 1-10.24 1.17-20.49 2.33-20.44 2.67-10.22 1.33c-3.4.47-6.79 1-10.19 1.5l-20.39 3c-6.79 1.07-13.55 2.27-20.32 3.39l-10.16 1.72c-3.39.54-6.75 1.26-10.13 1.88l-20.23 3.87c-3.38.61-6.71 1.41-10.07 2.11l-10.07 2.18-10.06 2.17c-1.69.35-3.35.73-5 1.14l-5 1.2c-26.5 6.53-52.73 14.83-78.83 23.49-52.2 17.42-103.81 37-155.43 56.4l-154.8 58.77-77.45 29.26c-12.93 4.84-25.9 9.54-38.86 14.29l-38.77 14.18-.56-1.49 76.93-30.58 76.75-31q76.77-31 153.63-61.79 38.45-15.37 77.12-30.26c25.79-9.9 51.68-19.59 77.81-28.73s52.49-17.79 79.5-24.8l5.08-1.29q2.54-.66 5.07-1.22l10.14-2.32 10.14-2.32c3.38-.74 6.75-1.6 10.15-2.25l20.38-4.15c3.4-.67 6.79-1.43 10.2-2l10.23-1.85c6.82-1.22 13.63-2.51 20.46-3.67l20.53-3.29c3.42-.54 6.84-1.12 10.26-1.61l10.29-1.44 20.59-2.87 20.62-2.52 10.31-1.26 10.33-1.1 20.65-2.2 20.68-1.9c55.16-5 110.48-7.78 165.8-9.16 27.67-.6 55.34-.91 83-.78s55.33.63 83 1.46 55.29 2.06 82.92 3.64 55.18 3.48 82.92 6.11l-3.85.5c1.86-.71 3.81-1.47 5.75-2.26l5.83-2.38c3.88-1.62 7.75-3.29 11.62-5 7.72-3.39 15.4-6.92 23.05-10.51q22.93-10.87 45.35-22.82c29.86-15.95 59-33.22 87.28-51.91 7.1-4.62 14-9.44 21-14.21s13.87-9.72 20.65-14.78c3.4-2.52 6.85-5 10.2-7.55l10.1-7.7c3.38-2.54 6.65-5.23 10-7.83s6.65-5.23 9.89-7.95l9.8-8.06c3.25-2.71 6.42-5.5 9.64-8.25 6.48-5.44 12.68-11.19 19-16.81 12.41-11.48 24.69-23.12 36.38-35.32l4.42-4.55 2.2-2.28 2.15-2.32 8.6-9.31c2.91-3.07 5.63-6.3 8.43-9.46s5.6-6.33 8.33-9.55l8.09-9.75 4-4.88 3.91-5 7.8-10c2.57-3.35 5-6.78 7.55-10.17l3.75-5.09 1.88-2.55 1.8-2.61 7.2-10.41c2.45-3.44 4.71-7 7-10.55l6.87-10.63 6.52-10.84c2.15-3.63 4.41-7.2 6.4-10.92 4.05-7.4 8.32-14.68 12-22.26a594.64 594.64 0 0 0 38.59-93.43 574.23 574.23 0 0 0 21.29-98.89 593.78 593.78 0 0 0 3.74-101.28 679.77 679.77 0 0 0-12.49-100.79l-2.64-12.45-1.33-6.22c-.44-2.08-.86-4.16-1.41-6.21l-6.25-24.69c-.48-2.07-1.14-4.09-1.73-6.13l-1.8-6.11-3.6-12.22-1.8-6.11c-.63-2-1.34-4-2-6l-4-12.09-4-12.09-4.46-11.94-4.47-12c-1.49-4-3-8-4.58-11.9s-3.26-7.85-4.92-11.76l-5-11.7-1.26-2.93-1.35-2.89-2.72-5.75-5.45-11.52a730.17 730.17 0 0 0-51.16-88.15 833.27 833.27 0 0 0-62.31-80.76c-44.76-51.29-95.32-97.39-149.4-138.71-27-20.7-55.1-40-83.78-58.29s-58.05-35.53-88-51.65-60.5-31.15-91.41-45.32L3432.31 763l-23.46-10-5.86-2.51-5.9-2.4-11.82-4.8-11.81-4.8-11.9-4.59-11.9-4.59c-4-1.53-7.92-3.07-11.93-4.49l-24-8.73c-8-2.84-16.06-5.56-24.09-8.36-4-1.37-8-2.82-12.06-4.13l-12.12-3.95-12.12-4-6.07-2-6.09-1.88-24.36-7.52-24.49-7.11c-8.14-2.44-16.35-4.64-24.55-6.88l-12.3-3.35c-2.05-.56-4.1-1.14-6.16-1.67l-6.17-1.57-24.71-6.33c-8.25-2-16.53-4-24.79-6-4.14-1-8.27-2-12.41-2.94l-12.45-2.76-12.45-2.77c-4.15-.93-8.29-1.87-12.46-2.69l-25-5.14c-4.15-.89-8.34-1.65-12.51-2.44l-12.54-2.37-12.53-2.36c-4.18-.78-8.38-1.46-12.56-2.19l-25.14-4.33-25.21-3.93c-8.39-1.37-16.82-2.52-25.24-3.69l-12.58-1.73c-4.21-.59-8.42-1.18-12.65-1.68l-25.32-3.15-6.33-.77-6.34-.69-12.69-1.37c-16.9-2-33.85-3.35-50.79-5-8.48-.72-17-1.33-25.44-2l-12.73-1-12.73-.8-25.48-1.55-25.5-1.17c-4.25-.19-8.5-.42-12.75-.57l-12.76-.39c-8.5-.24-17-.55-25.51-.74l-25.53-.38c-4.26-.05-8.51-.18-12.77-.15h-12.77c-136.2-.35-272.42 11.26-407.1 33.05Z" class="color6396e5 svgShape"></path><path fill="#d4cefe" d="M3470.16 2217.84s-390.45-41.41-691.32 33.74c-55.57 13.88-138.17 46.55-239 88.29-62.8 26-132.68 55.48-207.48 86.11l-6.47 2.66c-78.33 32-162 65.22-248.5 96.92-75.82 27.78-153.88 54.4-232.52 78.06-127 38.24-255.64 68.75-378.94 84q-14.6 1.8-29.08 3.31-44 4.59-86.9 6.33-22.56.89-44.72.93-38.46 0-75.65-2.69-10.23-.75-20.34-1.75c-118.19-11.49-225-46.11-312.31-112.77-288.27-220.06-407.14-516-255.89-859.38 26.38-59.89 61-121.22 104.34-183.85q6.12-8.84 12.48-17.7 18.2-25.46 38.34-51.16 4.65-5.92 9.41-11.87c1.66-2.1 3.35-4.18 5-6.28q13.15-16.28 27.1-32.69l2-2.3c1-1.19 2-2.36 3-3.53q38.68-45.1 83.44-91c2.46-2.53 4.94-5 7.43-7.59 4.11-4.16 8.26-8.35 12.45-12.52l5-5q5.5-5.46 11.09-10.92 14.76-14.45 30.12-28.93l6.47-6.08 2.41-2.26q12.59-11.76 25.58-23.55c1-.88 1.9-1.73 2.85-2.59q4.4-4 8.85-8 4-3.6 8-7.18 16.35-14.56 33.33-29.2c3.11-2.69 6.25-5.37 9.39-8.05q24.84-21.21 51-42.55 56-45.69 118.07-92l2-1.45q5.58-4.14 11.19-8.28c1.93-1.43 3.86-2.87 5.81-4.28q31.21-23 64-46l2.35-1.64c2.15-1.52 4.3-3 6.45-4.54q12.45-8.75 25.13-17.47 3-2.05 6-4.09l4.07-2.78q7-4.78 14-9.47c.78-.53 1.57-1 2.35-1.59q2.09-1.37 4.15-2.75 7.1-4.71 14.21-9.34c.8-.53 1.6-1.06 2.41-1.57l4.18-2.71q7.2-4.67 14.42-9.24 10.8-6.87 21.68-13.57l9.47-5.82q43.38-26.44 87.45-50.41c942.26-512.65 2101.84-183.51 2343.82 440.2q1.65 4.24 3.24 8.48c248.92 659.02-436.41 931.36-436.41 931.36Z" opacity=".5" class="colorcee2fe svgShape"></path><path fill="#d4cefe" d="M3470.16 2217.84s-390.45-41.41-691.32 33.74c-55.57 13.88-138.17 46.55-239 88.29-62.8 26-132.68 55.48-207.48 86.11l-6.47 2.66c-78.33 32-162 65.22-248.5 96.92-75.82 27.78-153.88 54.4-232.52 78.06-127 38.24-255.64 68.75-378.94 84q-14.6 1.8-29.08 3.31-44 4.59-86.9 6.33-22.56.89-44.72.93-38.46 0-75.65-2.69-10.23-.75-20.34-1.75c-118.19-11.49-225-46.11-312.31-112.77-288.27-220.06-407.14-516-255.89-859.38 89.55 15.7 180.07 26.69 270.58 34.52 843 72.92 1684.66-122.66 2500.53-346.78 163.39-44.88 328-91.19 494.42-122.8 248.92 658.96-436.41 931.3-436.41 931.3Z" class="colorcee2fe svgShape"></path><path fill="#e9e9e9" d="m2389.67 1075.58-144.39 83.9-107.59-62.12 144.37-83.9 107.61 62.12z" class="colore9e9e9 svgShape"></path><path fill="#b9b9b9" d="m2363.57 1064.12-15.66-9-3.66-2.12-.59-.35-34.33-19.81-9.3-5.36-17.95-10.37-2.2 1.28-12.86 7.47-22.41 13-9.73 5.66-48.39 28.11-4.75 2.77-29.49 17.13-4.77 2.78-3.22 1.87-.32.17.32.19 3.23 1.86 4.79 2.77 29.58 17.09 4.77 2.75 58.68 33.87 17.3-10.06 4.76-2.76 37.45-21.78 4.76-2.76 18.36-10.67 11.1-6.45 4.76-2.77 4-2.32 15.71-9.14 19.94-11.58Z" class="colorb9b9b9 svgShape"></path><path fill="#a395fd" d="m1339.12 1313.43-.67-66.48-8.37-4.86-26.32-15.32-11.37-6.6-3.55-2.08-12.55-7.31-11.5-6.68-5.33-3.1-33.49-19.47-1.72-1 .21 46.93v6.83l.06 12.5v5.09l1.08.62 2.06 1.18 7.39 4.21 7.68 4.38 17.6 10 69.46 39.63 9.39 5.36Z" class="color95bbfd svgShape"></path><path fill="#5440d3" d="m1256.38 1237.8-.08 27.2-20.31-11.73.07-27.21 20.32 11.74zM1601.05 1141.26v-10.08l-.08-17.31v-6.19l-.05-12.21-39.58 22.85-130.34 75.22-15 8.66-7 4.07-12.41 7.16-13.87 8-38.75 22.37-5.44 3.13.67 66.48v3.86l3.33-1.91 1.09-.63 38.74-22.25 13.87-8 12.41-7.12 38.73-22.24 15.11-8.68 2.71-1.55 2-1.18 6-3.43 14.14-8.12 59.79-34.33 6-3.43 3.12-1.8 14.79-8.49 30.16-17.32Z" class="color4050d3 svgShape"></path><path fill="#a395fd" d="m1600.84 1095.47-262.39 151.45-114.27-66.41 261.54-151.44 115.12 66.4z" class="color95bbfd svgShape"></path><path fill="#cfcfcf" d="m1400.63 1187.44-94.03-54.65 179.12-103.72 94.67 54.61-179.76 103.76z" class="colorcfcfcf svgShape"></path><g style="isolation:isolate" fill="#000000" class="color000000 svgShape"><path fill="#a395fd" d="M1374.2 507.57c9.1-5.26 18-5.15 26.53-.19l76.79 44.62c-8.54-5-17.42-5.06-26.51.19-65.61 37.87-118 339.76-117.08 674.22l-76.8-44.64c-.96-334.44 51.47-636.32 117.07-674.2Z" class="color95bbfd svgShape"></path><path fill="#5440d3" d="M1451 552.2c-65.61 37.87-118 339.76-117.08 674.22l237.58-137.18c-.95-334.45-54.89-574.92-120.5-537.04Z" class="color4050d3 svgShape"></path></g><path fill="#d7d7d7" d="M1812 888.91v-.09l-76.52-44.19-28.76-16.63-35.17-20.33-.06 83-.33 439.44v18.69l70.78 40.39 2.51 1.43 4.12 2.35 5.72 3.26 46.42 26.49v1l9.75 5.57 4.86 2.76 3.14 1.8 2.53 1.44 27.87 15.9 91.85 52.41v-.12l.07-45.21.22-134.14v-.61l.19-119.67.3-190.91v-5.59l.07-43.58Z" class="colord7d7d7 svgShape"></path><path fill="#b9b9b9" d="m1671.55 807.7 270.01 156.02 139.54-81.1-269-156.02-140.55 81.1z" class="colorb9b9b9 svgShape"></path><path fill="#5440d3" d="m1941.55 963.75-.07 43.58v5.59l-.3 190.91-.18 119.67v.61l-.22 134.14-.07 45.21v.12l.11-.06 4.1-2.34 35.42-20.21 100.37-57.27V1352.72l.17-228.66.17-241.43Z" class="color4050d3 svgShape"></path><path fill="#a395fd" d="m1812 888.87-76.54-44.23-28.74-16.64-35.17-20.33-.06 83-.33 439.44v18.69l70.56 40.52 2.45 1.41 4.4 2.51 5.72 3.3 46.42 26.65 10.17 5.85 4.44 2.54 3.53 2 2.53 1.45 27.48 15.77 91.85 52.74v-.12l.07-45.21.22-134.14v-.61l.19-119.67.3-190.91v-5.59l.07-43.58Z" class="color95bbfd svgShape"></path><path fill="#a395fd" d="m1671.55 807.7 270.01 156.02 139.54-81.1-269-156.02-140.55 81.1z" class="color95bbfd svgShape"></path><path fill="#d4cefe" d="m1856.85 763.87-44.76-26-121 69.8 53.18 30.73 197.26 114 120.08-69.79Z" class="colorcee2fe svgShape"></path><path fill="#a395fd" d="M1872.64 828.76 1862 834.9l22 12.73 10.58-6.14ZM1891 818.17l-10.66 6.13 22.07 12.7 10.59-6.1ZM1854.28 839.35l-10.66 6.14 22 12.72 10.57-6.13Z" class="color95bbfd svgShape"></path><path fill="#5440d3" d="m1966.28 870.92-.09 5 15.17-8.65v-5.13Z" class="color4050d3 svgShape"></path><path fill="#a395fd" d="M1937 854v5.13l29.2 16.77.09-5Z" class="color95bbfd svgShape"></path><path fill="#a395fd" d="m1937.04 854.01 29.24 16.91 15.11-8.79-29.13-16.89-15.22 8.77z" class="color95bbfd svgShape"></path><path fill="#5440d3" d="m1954.09 878-.41.24-9.55 5.56-.11 5 15.16-8.65.06-5.12Z" class="color4050d3 svgShape"></path><path fill="#a395fd" d="M1914.87 866.85v5.14l29.13 16.76.11-5Z" class="color95bbfd svgShape"></path><path fill="#a395fd" d="m1914.87 866.86 29.26 16.89 15.11-8.78-29.13-16.89-15.24 8.78z" class="color95bbfd svgShape"></path><path fill="#5440d3" d="m1922 896.6-.1 5 15.17-8.66v-5.11Z" class="color4050d3 svgShape"></path><path fill="#a395fd" d="M1892.72 879.7v5.13l29.18 16.77.1-5Z" class="color95bbfd svgShape"></path><path fill="#a395fd" d="m1892.72 879.7 29.25 16.9 15.11-8.78-29.13-16.9-15.23 8.78z" class="color95bbfd svgShape"></path><path fill="#5440d3" d="m1842.66 799.33-.09 5 15.17-8.66v-5.12Z" class="color4050d3 svgShape"></path><path fill="#a395fd" d="M1813.42 782.43v5.12l3.19 1.83 26 15 .09-5ZM1813.43 782.43l29.23 16.9 15.12-8.78-29.13-16.89-15.22 8.77z" class="color95bbfd svgShape"></path><path fill="#5440d3" d="m1820.52 812.17-.1 5 15.15-8.66v-5.11Z" class="color4050d3 svgShape"></path><path fill="#a395fd" d="M1791.26 795.27v5.14l4.58 2.63 24.62 14.13.1-5Z" class="color95bbfd svgShape"></path><path fill="#a395fd" d="m1791.26 795.27 29.26 16.9 15.11-8.78-29.14-16.89-15.23 8.77z" class="color95bbfd svgShape"></path><path fill="#5440d3" d="m1798.36 825-.11 5 15.17-8.65v-5.13Z" class="color4050d3 svgShape"></path><path fill="#a395fd" d="m1779.43 814.09-10.31-6v5.13l6.29 3.62 22.84 13.16.11-5Z" class="color95bbfd svgShape"></path><path fill="#a395fd" d="m1769.12 808.13 29.23 16.89 15.11-8.79-29.12-16.9-15.22 8.8z" class="color95bbfd svgShape"></path><path fill="#5440d3" d="m1735.27 857.33-1.46 513.6 10.43 6.02 1.46-513.6-10.43-6.02zM1801.56 895.6l-1.45 513.6 10.43 6.02 1.46-513.59-10.44-6.03zM1867.88 933.88l-1.47 513.6 10.43 6.02 1.46-513.59-10.42-6.03z" class="color4050d3 svgShape"></path><path fill="#a395fd" d="m2018.32 932.51 1.45 513.58-10.43 6.04-1.45-513.6 10.43-6.02z" class="color95bbfd svgShape"></path><g style="isolation:isolate" fill="#000000" class="color000000 svgShape"><path fill="#c5c5c5" d="m2730.43 964.36 1 355.36 15.71 9.12-1.01-355.36-15.7-9.12z" class="colorc5c5c5 svgShape"></path><path fill="#5440d3" d="m2798.03 1003.64 1 316.13 68.05-39.28-1.01-316.13-68.04 39.28z" class="color4050d3 svgShape"></path><path fill="#a395fd" d="m2782.32 994.51 1 316.13 15.71 9.13-1-316.13-15.71-9.13zM2602.04 1038.48l1 316.13 67.6 39.28-1-316.13-67.6-39.28z" class="color95bbfd svgShape"></path><path fill="#5440d3" d="m2721.99 1029.35 1 316.13 60.33-34.84-1-316.13-60.33 34.84z" class="color4050d3 svgShape"></path><path fill="#898989" d="m2681.05 1052.98 1 316.13 40.94-23.63-1-316.13-40.94 23.63z" class="color898989 svgShape"></path><path fill="#5440d3" d="m2669.64 1077.76 1 316.13 68.06-39.28-1.02-316.13-68.04 39.28z" class="color4050d3 svgShape"></path></g><path fill="#a395fd" d="m2670.08 999.19 15.71 9.13 60.34-34.84-15.7-9.12 68.04-39.28 67.6 39.28-68.04 39.28-15.71-9.13-60.33 34.84 15.69 9.13-68.04 39.28-67.6-39.28 68.04-39.29z" class="color95bbfd svgShape"></path><path fill="#d4cefe" d="m2798.45 931.59-56.79 32.79 15.71 9.12-11.22 6.5-15.65 9-44.73 25.82-15.69-9.13-56.8 32.8 56.36 32.75 11.44-6.6L2722 1041l4.42-2.55-4.44-2.58-5.65-3.28-5.62-3.27 19.85-11.46 15.65-9 36.1-20.83 15.69 9.12 56.79-32.78Z" class="colorcee2fe svgShape"></path><path fill="#a395fd" d="m2798.29 979.9 11.89 6.92-11.98 6.92-11.9-6.92 11.99-6.92zM2670.22 1009.35l11.9 6.91-11.99 6.92-11.9-6.92 11.99-6.91zM2779.37 968.83l-33.2 19.17-15.65 9-52.89 30.54 11.11 6.46 41.82-24.15 15.65-9 44.27-25.55Z" class="color95bbfd svgShape"></path><g style="isolation:isolate" fill="#000000" class="color000000 svgShape"><path fill="#5440d3" d="m2416.31 763.86-1.01 355.37-15.69 9.12 1-355.36 15.7-9.13z" class="color4050d3 svgShape"></path><path fill="#a395fd" d="m2348.72 803.14-1.02 316.13-68.03-39.28 1.01-316.12 68.04 39.27z" class="color95bbfd svgShape"></path><path fill="#5440d3" d="m2364.42 794.01-1 316.13-15.72 9.13 1.02-316.13 15.7-9.13zM2544.7 837.98l-1 316.13-67.6 39.28 1-316.12 67.6-39.29z" class="color4050d3 svgShape"></path><path fill="#a395fd" d="m2424.76 828.86-1 316.12-60.34-34.84 1-316.13 60.34 34.85z" class="color95bbfd svgShape"></path><path fill="#898989" d="m2465.69 852.49-1 316.12-40.93-23.63 1-316.12 40.93 23.63z" class="color898989 svgShape"></path><path fill="#a395fd" d="m2477.1 877.27-1 316.12-68.05-39.28 1.01-316.13 68.04 39.29z" class="color95bbfd svgShape"></path></g><path fill="#a395fd" d="m2476.66 798.7-15.72 9.13-60.33-34.84 15.7-9.13-68.04-39.28-67.59 39.29 68.04 39.27 15.7-9.13 60.34 34.85-15.7 9.12 68.04 39.29 67.6-39.29-68.04-39.28z" class="color95bbfd svgShape"></path><path fill="#5440d3" d="m2519.72 830.07-42-24.27-1-.59-15.7 9.13-9.47-5.46-15.71-9.08-19.55-11.29-15.64-9-1.07-.63-8.6-5-1.55-.89 1.55-.9 8.57-5 5.58-3.24-5.6-3.23-8.6-5-7.1-4.1-8.6-5-26.88-15.52-14.16 8.23-11.53 6.77-30.75 17.87 30.87 17.81 11.51 6.65 14.41 8.32 15.71-9.14 10.91 6.3 8.58 5 7.11 4.11 8.59 5 .91.53 15.64 9 19.72 11.39.14.07-.14.07-5.49 3.19-5.64 3.29-4.45 2.57.17.09 4.26 2.47 11.21 6.47 15.72 9.08 14 8.08 11.44 6.61 10.5-6.1 20-11.64 12.16-7.06 13.69-8Z" class="color4050d3 svgShape"></path><path fill="#a395fd" d="m2348.45 779.41-11.9 6.91 11.99 6.92 11.9-6.92-11.99-6.91zM2476.52 808.85l-11.9 6.92 11.99 6.92 11.9-6.92-11.99-6.92zM2454.73 818.76l-3.21-1.85-15.71-9.06-19.6-11.32-15.64-9-1-.59-8.59-5-7.11-4.11-8.59-5-7.88-4.55-11.1 6.45 19 11 8.59 5 7.11 4.11 8.59 5 1 .55 15.64 9 19.68 11.36 7.31 4.22.31.17 8.09 4.67 6.45 3.72 8-4.66 3.08-1.79Z" class="color95bbfd svgShape"></path><g style="isolation:isolate" fill="#000000" class="color000000 svgShape"><path fill="#a395fd" d="m2147.04 944.56 1.8 635.41 34.35 19.96-1.79-635.42-34.36-19.95z" class="color95bbfd svgShape"></path><path fill="#5440d3" d="m2406.73 977.1 1.8 635.43 42.23-24.39-1.8-635.42-42.23 24.38z" class="color4050d3 svgShape"></path><path fill="#a395fd" d="m2304.56 1036.1 1.79 635.41 34.34 19.95-1.79-635.41-34.34-19.95z" class="color95bbfd svgShape"></path><path fill="#5440d3" d="m2338.9 1056.05 1.79 635.41 102.19-58.98-1.81-635.43-102.17 59zM2262.34 1060.46l1.8 635.42 42.21-24.37-1.79-635.41-42.22 24.36z" class="color4050d3 svgShape"></path><path fill="#7563e5" d="m2165.26 1004.05 70.98 41.25 26.1 15.16 1.8 635.42-26.1-15.16-70.97-41.25-26.09-15.17-1.82-635.42 26.1 15.17z" class="color6396e5 svgShape"></path><path fill="#5440d3" d="m2147.04 944.56 34.36 19.95-42.24 24.37 26.1 15.17 70.98 41.25 26.1 15.16 42.22-24.36 34.34 19.95 102.17-59-34.34-19.95 42.23-24.38-26.09-15.16-70.98-41.25-26.1-15.17-42.22 24.38-34.35-19.95-102.18 58.99z" class="color4050d3 svgShape"></path><path fill="#d4cefe" d="m2408.66 964.7 7.09-4.09 8.61-5 5.09-2.95-5.07-3-8.59-5-7.06-4.11-8.58-5-36.1-21-15.66-9.09-22.61-13.15-42.23 24.38-3.35-2-31-18-82.66 47.72 34.36 19.95-19.48 11.24-22.75 13.14 22.82 13.26v11.33l50.22 29.19 3.11 1.8 1.37.79 26.11 15.18 17.42-10.06 24.8-14.32 31.15 18.12 3.18 1.84 5.34-3.09 3.12-1.8.55-.31 5.84-3.37 9.88-5.7v-11.31l36.27-20.94 6.86-4 1.72-1 7.11-4.11 5.93-3.43-5.91-3.43-7.08-4.12v-11.28l-1.88-1.09 1.89-1.1Zm15.6 22.59-8.57-5-7.07-4.11-1.88-1.09 1.88-1.1 7.1-4.1 8.6-5 24.68-14.16-24.54-14.26-1.54-.89-7-4.08-7.06-4.1-8.59-5-36.1-21-12.19-7.07-3.47-2-22.63-13.16-42.22 24.38-3.33-1.94-31-18-102.18 59 34.36 20-34.25 19.76-8 4.6 8 4.66 18.07 10.51 16.27 9.45 50.22 29.19 3.1 1.81 1.38.79 26.11 15.17 17.42-10.06 24.8-14.32 31.15 18.12 3.18 1.85 5.34-3.1 3.12-1.8.55-.31 5.84-3.38 9.88-5.7 36.28-20.95 6.92-4 1.66-1 7.11-4.1 8.59-4.94 16.88-9.74-3.5-2Z" class="colorcee2fe svgShape"></path></g><path fill="#a395fd" d="m2123.76 1872.02 133.1 76.85-88.15 51.23-133.09-76.84 88.14-51.24z" class="color95bbfd svgShape"></path><path fill="#5440d3" d="m2202.59 1946.42-33.67-19.42-45.11-26-20.81 12-17.5 10.17 17.45 10.07-.08 28.84 16.15 9.33 37.88 21.86 11.83-6.79v-15.38l2.37-1.38 31.43-18.26 4.36-2.53Zm0-28.89-33.59-19.39-45.24-26.14-20.66 12-65.64 38.15-1.84 1.08 1.83 1.06 65.44 37.77 16.15 9.33 37.88 21.86 11.78 6.81 12.52-7.27 14.92-8.67 6.45-3.75 54.27-31.54ZM2305.45 2218.93l87.69-51.24.78-278.46-88.47 51.23v278.47z" class="color4050d3 svgShape"></path><path fill="#a395fd" d="m2305.45 1940.46 88.47-51.23-136.67-78.89-88.15 51.23 136.35 78.89z" class="color95bbfd svgShape"></path><path fill="#7563e5" d="m2264.54 1843.44-7.24-4.19-38.3 22.27 7.8 4.51 78.68 45.53 38.51-22.3Zm24.57-14.72-31.85-18.39-88.16 51.24 32.49 18.8 1 .58 102.86 59.51 88.47-51.23Z" class="color6396e5 svgShape"></path><path fill="#a395fd" d="m2202.59 1881-1-.58-32.49-18.8-.1 36.56-.08 28.84-.12 41.38V1986.53l-.05 13.6-11.78-6.81-37.97-21.9-16.15-9.33-65.44-37.77-1.83-1.06-.27 96.81-.13 43.12 1.84 1.06 65.43 37.71 7.53 4.34 195.43 112.64v-278.48Z" class="color95bbfd svgShape"></path><path fill="#4127e5" d="M1973.45 1754.37a85.8 85.8 0 0 1-1.86 15.73 92.87 92.87 0 0 1-7.2 21q-1.93 4-4.29 8.06a128.07 128.07 0 0 1-18.54 24c-11.07 11.42-25 22.17-41.82 31.88l-67.7 38.93-6 3.47-.56.32-14.7 8.47-7.86 4.51-13.75 7.91-30.91 17.78-5.47 3.14-17 9.77-74.43 42.81-2.49 1.43-121.33 69.79-21.29 12.25-21.6 12.43-73.65 42.44c-15.16 8.75-24 19.77-26.46 31.16-3.46 15.75 5.22 32.19 26 44.21L1684 2358c45.49 26.27 69.61 60.31 72.37 94.89 3 37.21-18.78 75-65.22 104.48q-4 2.55-8.25 5l-13.05 7.53-21.59 12.47-121.85 70.36-60.49 34.92q-14.6 1.8-29.08 3.3-44 4.6-86.9 6.34-22.54.89-44.72.92-38.46 0-75.65-2.69l74-42.72 112.07-64.7 155.92-90c21.09-12.17 29.92-28.78 26.45-44.63-2.46-11.25-11.14-22.13-26-30.74l-263.44-152.09c-51.41-29.69-75.52-69.28-72.37-108.36 2.8-34.89 27.32-69.35 73.47-96l443.48-255.08 35.26-20.28c21.11-12.19 29.93-28.8 26.47-44.64-2.47-11.26-11.16-22.14-26.06-30.75l-35.34-20.37-134.7-77.65-14.36-8.28-75.42-43.52-29.52-17-35.36-20.37h-.09l-56.41-32.53-12.34-7.12-52.34-30.17-35.71-20.59-47.53-27.41-39.78-22.93-34.87-20.1-21.3-12.27-8.49-4.9-13.1-7.56-36-20.74-3.26-1.88L998.72 1260l-6.42-3.7-43.44-25-2.48-1.42-12.38-7.22-26.24-15.13L746 1114.27l-58.85-33.93q2.77-5.14 5.64-10.22 9-16.06 18.72-31.67 5.68-9.18 11.63-18.18 11.57-17.61 24-34.66l9.92 5.73 12.27 7.08.39.23 14.79 8.52 27.33 15.76 136.93 78.94 42.23 24.34 37.51 21.62 8.78 5.06.59.34 22.56 13 19.39 11.19 26.34 15.19 49 28.25 23.37 13.48 33.91 19.54 18.17 10.48 4.23 2.45 25.42 14.65 47 27.07 36.29 20.92 52.35 30.17 12.34 7.13 55.82 32.18h.09l35.36 20.37 29.52 17 34.24 19.74 41.1 23.69 14.36 8.27 101.34 58.44h.08l33.64 19.39 72 41.51 19.72 11.37 2.87 1.64 52.46 30.25c17.79 10.28 32.31 21.74 43.56 33.94a127.48 127.48 0 0 1 13.6 17.51 97.12 97.12 0 0 1 13.92 34 79.78 79.78 0 0 1 1.3 9.45 82.26 82.26 0 0 1 .22 8.87Z" class="colore57d27 svgShape"></path><path fill="#816dfe" d="M1973.2 1745.64a86.05 86.05 0 0 1-1.34 9.63 90.37 90.37 0 0 1-5.43 17.76 109.22 109.22 0 0 1-12.78 22.39c-.83 1.13-1.67 2.26-2.56 3.38a138.55 138.55 0 0 1-9.49 10.86c-11.06 11.44-25 22.19-41.85 31.92l-67.7 38.93-17.65 10.16-.57.31-3.06 1.78-19.51 11.22-2.1 1.2-36.35 20.91-17 9.78-198.25 114-21.29 12.25-21.6 12.42L1421 2117c-21.11 12.19-29.94 28.8-26.46 44.65 2.46 11.25 11.13 22.13 26 30.74L1684 2344.47c51.41 29.69 75.52 69.3 72.37 108.37-2.64 32.74-24.39 65.12-65.22 91q-4 2.55-8.25 5l-13.05 7.54-21.59 12.47-133.46 77.05-78 45q-44 4.6-86.9 6.34-22.54.89-44.72.92-38.46 0-75.65-2.69-10.23-.75-20.33-1.75L1292 2646l112.06-64.7 167.54-96.72c15.14-8.75 24-19.77 26.45-31.16 3.45-15.75-5.23-32.19-26-44.21l-263.44-152.1c-45.5-26.27-69.62-60.31-72.37-94.88-3.15-39.35 21.37-79.39 73.47-109.49l443.51-255.1 35.23-20.27c15.14-8.74 24-19.77 26.47-31.15 3.44-15.75-5.23-32.19-26.06-44.22l-35.3-20.35-27.57-15.89-5.75-3.31-.08-.05-101.34-58.43-14.36-8.27-41.1-23.71-34.36-19.76-29.52-17-35.36-20.37h-.09l-56.35-32.49-12.34-7.12L1343 1445l-35.77-20.63-47.48-27.37-39.75-22.95-35-20.14-21.3-12.28-8.43-4.87-13.16-7.58-36-20.75-3.2-1.84-101.77-58.68-2.41-1.38-38.29-22.08-14-8.08-12.36-7.13-17.39-10-162.41-93.63-61.48-35.45q9-16.06 18.72-31.67 5.68-9.18 11.63-18.18 11.57-17.61 24-34.66c2.31-3.16 4.63-6.31 7-9.44l14.55 8.38 12.3 7.04.39.23 3.17 1.83 34.77 20 141.14 81.37 15 8.64 24 13.83 49.51 28.54.58.33 22.57 13 17.16 9.88 16.94 9.77 83.94 48.4 33.89 19.54.48.28 7 4.06 3.53 2 11.46 6.6 13.82 8 46.89 27 31.9 18.39 3.37 2 1.09.62 52.34 30.18 12.34 7.11 55.76 32.15h.09l35.36 20.38 29.52 17 34.24 19.74 41.1 23.7 14.36 8.27 101.34 58.43h.08l33.68 19.41 83.58 48.18 8.08 4.67 2.91 1.67 52.42 30.22c17.81 10.27 32.34 21.74 43.59 34 10.71 11.62 18.45 23.92 23.24 36.55a87.51 87.51 0 0 1 5.75 27.53 82.65 82.65 0 0 1-.18 10.51Z" class="colorfebc6d svgShape"></path><path fill="#563cfd" d="M1897.75 1745.69a71.42 71.42 0 0 1-1.93 16.57 75.47 75.47 0 0 1-4.39 13.15 84.93 84.93 0 0 1-5.2 9.94c-9.71 16-25.39 30.5-46.42 42.65l-7.78 4.28-21.29 11.72-21.61 11.9-36.21 20-5.15 2.84-12 6.62-198.25 109.24-21.29 11.74-21.6 11.89-130.46 71.9c-30.3 17.49-47 40-47 63.53 0 23.24 16.41 45.49 46.2 62.7L1632 2371.27c36.75 21.22 57 50.11 57 81.38v1.07q0 1.34-.09 2.64c-.84 16.51-7.35 32.32-19 46.64a123 123 0 0 1-21.59 20.57 164 164 0 0 1-17.08 11.28l-154.15 89-112.09 64.72-15 8.67q-22.54.89-44.72.92l38.28-22.11 112.07-64.7 164.82-95.17a124.83 124.83 0 0 0 27.87-21.27c9-9.35 14.91-19.41 17.53-29.81a49.51 49.51 0 0 0 .86-20.82c-3.44-20.16-19.3-39.19-45.48-54.32L1352.58 2235c-36.74-21.23-57-50.12-57-81.38 0-31.5 20.52-60.7 58-82.31l141-77.74 2.84-1.55 21.91-12.08 233.67-128.7 36.13-19.92 13.12-7.24 21.9-12.06 5.07-2.79c22.07-12.75 36.91-28.18 43.35-44.7a52.15 52.15 0 0 0 3.37-13.69c.17-1.71.26-3.42.26-5.14a50.07 50.07 0 0 0-1.24-11c-3.16-14-12.33-27.41-26.81-39.22-.86-.73-1.75-1.42-2.65-2.12A135.25 135.25 0 0 0 1830 1683l-67.25-38.76-9.15-5.27-33.44-19.29h-.08l-101.34-58.4-14.36-8.27-41.1-23.69-34.28-19.75-29.52-17-35.36-20.37-.09-.06-56.15-32.36-12.34-7.11-52.34-30.16-36-20.73-47.28-27.25-39.79-22.92-35.13-20.29-17.38-10-3.92-2.26-2.77-1.59-5.48-3.16-13.34-7.69-15-8.67-20.25-11.66-.69-.4-76.54-44.12L999 1204.1l-1.79-1-22.5-13-.56-.32-23.96-13.78-5.75-3.33-10.16-5.84-149.76-86.31-10.62-6.13-62.38-35.94q5.68-9.18 11.63-18.18l4.42 2.54.39.23 56.56 32.59 1.76 1L934.39 1142l26 15 11.28 6.5 15 8.64 8.89 5.12.58.34 2.94 1.7 19.58 11.27 27.83 16 59.66 34.38 7.21 4.16 15 8.64 8.7 5 6.2 3.57 12.32 7.1 9.25 5.33 6.19 3.57 14 8 4 2.33 31.22 18 39.78 22.93 47.17 27.18 36.08 20.78 52.33 30.16 12.35 7.12 56 32.29h.09l35.36 20.39 29.52 17 34.24 19.73 41.1 23.7 14.36 8.27 101.34 58.39h.08l33.51 19.31 30.55 17.61 56.57 32.59c1.6.93 3.18 1.87 4.71 2.82.92.57 1.83 1.14 2.72 1.73 23.68 15.31 39.42 34.09 46 54.59a72.1 72.1 0 0 1 3.65 22.45Z" class="colorfd9a3c svgShape"></path><g style="isolation:isolate" fill="#000000" class="color000000 svgShape"><path fill="#5440d3" d="m1397.04 1097.65-2.77 613.46-52.6 30.56 2.75-613.45 52.62-30.57z" class="color4050d3 svgShape"></path><path fill="#a395fd" d="m999.23 1147.5-2.76 613.46-64.69-37.35 2.75-613.46 64.7 37.35z" class="color95bbfd svgShape"></path><path fill="#5440d3" d="m1155.74 1237.87-2.75 613.45-52.61 30.58 2.75-613.46 52.61-30.57z" class="color4050d3 svgShape"></path><path fill="#7563e5" d="m1103.13 1268.44-2.75 613.46-156.52-90.37 2.75-613.46 156.52 90.37z" class="color6396e5 svgShape"></path><path fill="#a395fd" d="m1220.41 1275.2-2.75 613.46-64.67-37.34 2.75-613.45 64.67 37.33z" class="color95bbfd svgShape"></path><path fill="#f3f3f3" d="m1260.4 1251.97-2.77 613.47-39.97 23.22 2.75-613.46 39.99-23.23z" class="colorf3f3f3 svgShape"></path><path fill="#5440d3" d="m1220.41 1275.2 39.99-23.23 108.73-63.18 39.98-23.24-2.78 613.45-39.97 23.24-108.73 63.2-39.97 23.22 2.75-613.46z" class="color4050d3 svgShape"></path><path fill="#a395fd" d="m1397.04 1097.65-52.62 30.57 64.69 37.33-39.98 23.24-108.73 63.18-39.99 23.23-64.67-37.33-52.61 30.57-156.52-90.37 52.62-30.57-64.7-37.35 39.97-23.23 108.74-63.18 39.97-23.24 64.69 37.34 52.61-30.56 156.53 90.37z" class="color95bbfd svgShape"></path><path fill="#5440d3" d="m1220.38 1257.87 158.8-92.27-64.69-37.34 52.62-30.57-126.58-73.08-52.59 30.56-64.72-37.34-158.76 92.28 64.69 37.34-52.62 30.58 126.58 73.08 52.61-30.57 64.66 37.33z" class="color4050d3 svgShape"></path></g><path fill="#a395fd" d="m1276.24 1322.71 12.61 7.26 12.5-7.26-12.5-7.27-12.61 7.27z" class="color95bbfd svgShape"></path><path fill="#5440d3" d="m1288.85 1330-.08 7.8 12.56-7.16v-7.91Z" class="color4050d3 svgShape"></path><path fill="#a395fd" d="m1281.93 1326-.38-.23-5.31-3.06v7.91l12.54 7.16.08-7.8ZM1074.9 1211.08l12.6 7.26 12.52-7.26-12.52-7.28-12.6 7.28z" class="color95bbfd svgShape"></path><path fill="#5440d3" d="m1087.5 1218.35-.07 7.8L1100 1219v-7.9Z" class="color4050d3 svgShape"></path><path fill="#a395fd" d="M1074.9 1211.07v7.9l12.56 7.18.07-7.8ZM1276.23 1207.18l12.59 7.27 12.51-7.27-12.51-7.28-12.59 7.28z" class="color95bbfd svgShape"></path><path fill="#5440d3" d="m1301.09 1207.33-12.26 7.13V1222.26l3.65-2.09 8.9-5.08V1207.2Z" class="color4050d3 svgShape"></path><path fill="#a395fd" d="M1276.24 1207.19V1215.07l9 5.14 3.56 2v-7.8ZM1074.95 1321.3l12.6 7.27 12.52-7.27-12.52-7.27-12.6 7.27z" class="color95bbfd svgShape"></path><path fill="#5440d3" d="M1087.55 1328.58v.25l-.08 7.54 12.56-7.16v-7.9Z" class="color4050d3 svgShape"></path><path fill="#a395fd" d="M1075 1321.31v7.9l6 3.43 6.51 3.73.08-7.54v-.25ZM1127.13 1264.65l33.97 19.59 74.01-43.75-33.75-19.61-74.23 43.77z" class="color95bbfd svgShape"></path><path fill="#5440d3" d="m1224.48 1246.77-.48.29-1.77 1-9.26 5.49-.51.29-14.31 8.47-27.09 16-10 5.89v2l-.11 11.21-.07 7.82 6.77-4 21.39-12.55 27.2-16 14.37-8.44 4.39-2.56v-21.31Z" class="color4050d3 svgShape"></path><path fill="#a395fd" d="m1155.54 1281.06-28.41-16.41v21.29l17.37 9.93 11 6.29 5.44 3.11.07-7.82.11-11.21v-2ZM2572 1809.83l150.81 87.05 149.79-87.05-149.79-87.05-150.81 87.05z" class="color95bbfd svgShape"></path><path fill="#a395fd" d="m2788.89 1761.18-66.13 38.45-.16 16.53-.29 29-.38 38.58v2.35l2.06-1.18 137.24-78.3v-9.85l.14-30.92.21-46.95Z" class="color95bbfd svgShape"></path><path fill="#5440d3" d="m2722.33 1799.4-37.11-21.4-29-16.74-73.22-42.34-.19 47.17-.17 37.61v2.93l26.5 15.12 112.79 64.36v-2.35l.38-38.58.29-29 .16-16.53ZM2733.73 1890.58l-10.93 6.36-.92 93.3 127.55-72.78 22.75-13 .42-94.65Z" class="color4050d3 svgShape"></path><path fill="#a395fd" d="m2600.86 1826.52-28.86-16.68-.14 33.37-.27 61.28 150.29 85.75.92-93.3ZM2572 1665.07l150.81 87.01 149.79-87.01-149.79-87.07-150.81 87.07z" class="color95bbfd svgShape"></path><path fill="#5440d3" d="m2748.07 1737.46-25.26 14.68v4.22l-.43 43-.16 17-.29 29 .42-.24 106.55-60.77 8.48-4.85 24-13.7 10.8-6.16.4-89.59v-5Z" class="color4050d3 svgShape"></path><path fill="#a395fd" d="M2697.37 1737.46 2572 1665.07l-.41 94.64 11.2 6.38 32.68 18.64 29.11 16.61 52.14 29.75 25.15 14.33.29-29 .16-17 .43-43v-4.22ZM2572 1520.26l150.81 87.05 149.79-87.05-149.79-87.06-150.81 87.06z" class="color95bbfd svgShape"></path><g opacity=".2" fill="#000000" class="color000000 svgShape"><path fill="#c0c0c0" d="m2724.94 1470.1 97.57 56.38 12.32-7.13-97.14-56.4-12.75 7.15z" class="colorc0c0c0 svgShape"></path><path fill="#190c6d" d="m2822.51 1528.79-101.61-58.72 16.81-9.42 101.11 58.7Zm-93.51-58.67 93.52 54.05 8.33-4.83-93.16-54.08Z" class="color0c246d svgShape"></path></g><g opacity=".2" fill="#000000" class="color000000 svgShape"><path fill="#c0c0c0" d="m2682.92 1493.18 97.57 56.38 12.31-7.12-97.14-56.4-12.74 7.14z" class="colorc0c0c0 svgShape"></path><path fill="#190c6d" d="m2780.49 1551.87-101.61-58.72 16.8-9.41 101.11 58.7Zm-93.49-58.66 93.53 54 8.32-4.82-93.17-54.09Z" class="color0c246d svgShape"></path></g><g opacity=".2" fill="#000000" class="color000000 svgShape"><path fill="#c0c0c0" d="m2640.89 1516.27 97.57 56.38 12.31-7.13-97.12-56.39-12.76 7.14z" class="colorc0c0c0 svgShape"></path><path fill="#190c6d" d="m2738.46 1575-101.62-58.72 16.83-9.41 101.08 58.69Zm-93.53-58.66 93.53 54 8.32-4.82-93.15-54.09Z" class="color0c246d svgShape"></path></g><path fill="#a395fd" d="m2790.15 1617.14-67.4 39.18-.43 44.1-.22 22.76-.2 19.63 17.85-10.18 121.44-69.28v-4.89l.16-37.38.21-45.46Z" class="color95bbfd svgShape"></path><path fill="#5440d3" d="m2722.32 1656.09-67.32-38.91-72-41.57-.19 45.7-.16 37.62v4.41l122.28 69.76 17 9.7.2-19.63.22-22.76.43-44.1Z" class="color4050d3 svgShape"></path><path fill="#5440d3" d="m2748.06 1592.68-25.25 14.68-.48 48.72-.44 44.58.44-.25 106.52-60.79 32.54-18.56 10.8-6.15.42-94.65Z" class="color4050d3 svgShape"></path><path fill="#a395fd" d="M2697.38 1592.69 2572 1520.27l-.41 94.65 11.2 6.39 32.69 18.65 106.39 60.7.44-44.58.48-48.72ZM2714.89 1460.6l97.57 56.38 12.31-7.13-97.12-56.4-12.76 7.15z" class="color95bbfd svgShape"></path><path fill="#5440d3" d="m2824.76 1509.85-3.14 1.82-1.2.68-1.87 1.09-6.08 3.54v14.83l10-5.37 1-.55.24-.13h.07l1-.49v-15.38Z" class="color4050d3 svgShape"></path><path fill="#ffffff" d="m2728.18 1468.28-8.24-4.75-5.05-2.93v15.68l97.57 55.54V1517Z" class="colorffffff svgShape"></path><path fill="#a395fd" d="m2672.87 1483.68 97.56 56.38 12.32-7.12-97.13-56.4-12.75 7.14z" class="color95bbfd svgShape"></path><path fill="#5440d3" d="m2779.59 1534.77-9.16 5.32v14.82l10-5.37.69-.36h.09l1.51-.81v-15.39Z" class="color4050d3 svgShape"></path><path fill="#ffffff" d="m2693.44 1495.57-7.28-4.21-2.93-1.7-3.08-1.78-7.28-4.19v15.67l97.56 55.55v-14.82Z" class="colorffffff svgShape"></path><path fill="#a395fd" d="m2630.84 1506.77 97.56 56.38 12.32-7.13-97.13-56.39-12.75 7.14z" class="color95bbfd svgShape"></path><path fill="#5440d3" d="m2740.71 1556-3.14 1.82-.79.47-.36.21-8 4.66V1578l10-5.37.79-.41.15-.08 1.36-.73V1556Z" class="color4050d3 svgShape"></path><path fill="#ffffff" d="m2644.13 1514.46-13.29-7.69v15.69l97.55 55.54v-14.81Z" class="colorffffff svgShape"></path><path fill="#a395fd" d="m1752.43 2044.83 96.38-56.01-93.59-54.02-96.37 56.01 93.58 54.02z" class="color95bbfd svgShape"></path><path fill="#7563e5" d="m1891.42 1775.42-18.86-10.89-24.56-14.19.15-54.89.07-26.57.15-48.37v-13.45l.44-155.87v-.34l1.09-384.71-38.31-22.14-10.43-6-6.57-3.79-39.22-22.64-.47 166.42-.63 218.29v13.9l-.14 51.78v31.18l-.17 59.44v13.46l-.13 48.14-.07 24.86v2.37l-.11 40.27v13.45l-.23 78.74-.07 23.8v13.5l-.11 40.13-.08 24.65-.14 50.27v13.5l-.13 46.11-.17 59-91.09-52.59-2.48-1.43v2.86l-.61 216.77-.64 115.56 93.57 54 36 20.79 23.54 13.59 34 19.65 94.56 54.58.44-154.19.46-163.55.21-76.45.15-50 .45-159.72.17-61.4V1804.43Z" class="color6396e5 svgShape"></path><path fill="#d4cefe" d="m1941.59 1804.38 96.36-56-93.6-54.05-96.36 56.01 93.6 54.04z" class="colorcee2fe svgShape"></path><path fill="#5440d3" d="m1939.65 2488.6 96.37-56 1.93-684.22-96.36 56-1.94 684.22zM1847.99 1750.34l96.36-56.01 1.95-684.22-96.37 56.01-1.94 684.22z" class="color4050d3 svgShape"></path><path fill="#d4cefe" d="m1849.93 1066.12 96.37-56.01-94.58-54.61-96.35 56 94.56 54.62z" class="colorcee2fe svgShape"></path><path fill="#5440d3" d="m1850.63 1019.29 21.26-12.34-20.86-12.06-21.26 12.35 20.86 12.05zM1912.24 1002.59l7.95-4.62-7.8-4.51-7.93 4.63 7.78 4.5zM1850.83 968.11l7.94-4.63-7.79-4.49-7.95 4.61 7.8 4.51zM1848.81 1059.86l7.93-4.63-7.79-4.5-7.94 4.62 7.8 4.51zM1787.39 1025.36l7.95-4.61-7.82-4.5-7.93 4.61 7.8 4.5zM1787.59 2366.84l23.53 14.24-.07 33.28-23.54-13.58.08-33.94z" class="color4050d3 svgShape"></path><path fill="#a395fd" d="m1862.93 998.12-12.09 6.98-11.99-6.98 11.99-6.97 12.09 6.97zM1850.84 1005.1l-8.68-5.05-3.31-1.93v7.58l12 6.88Z" class="color95bbfd svgShape"></path><path fill="#5440d3" d="M1862.93 1001.78v-3.66l-3.15 1.83-8.93 5.15.08 7.48 12-6.88Z" class="color4050d3 svgShape"></path><path fill="#a395fd" d="m1894.17 1019.55-12.1 6.97-11.98-6.97 11.98-6.97 12.1 6.97z" class="color95bbfd svgShape"></path><path fill="#a395fd" d="m1882.07 1026.52-4-2.34-8-4.63v7.58l7.92 4.52 4.12 2.35Z" class="color95bbfd svgShape"></path><path fill="#5440d3" d="m1894.17 1019.55-12.1 7 .08 7.48 12-6.87Z" class="color4050d3 svgShape"></path><path fill="#a395fd" d="m1830.79 983.68-12.09 6.97-11.99-6.97 11.99-6.98 12.09 6.98zM1818.7 990.65l-6.94-4-5-2.93v7.58l5 2.83 7.06 4Z" class="color95bbfd svgShape"></path><path fill="#5440d3" d="m1830.79 983.68-12.08 7 .09 7.47 12-6.86Z" class="color4050d3 svgShape"></path><path fill="#7764f0" d="M1086.08 2359.78C1039.38 2289.2 865.8 2212 865.8 2212c-100.36-18.64-172.59-21.23-225.67-17.23-127.17 9.58-144.39 56.89-174.94 11.3-41.12-61.33-155.7-198-173.65-231.75 21.93 6.29 156.31 44.63 227.13 60.75 25.81 5.87 55.69 7.71 90.27 9.84 70.61 4.34 158.48 9.76 266.88 52.41 6.06 2.38 12.17 5.13 18.15 8.17l1.77.9c92.12 47.61 153.87 162.05 190.34 253.39Z" class="color6695e5 svgShape"></path><path fill="#a395fd" d="M1093.16 2357.31c-.06 9.2-.22 14.82-.22 14.82a84.54 84.54 0 0 0-6.86-12.35c-36.47-91.34-98.22-205.82-190.34-253.43l-1.77-.9c-6-3-12.09-5.79-18.15-8.17-108.4-42.65-196.27-48.07-266.88-52.41-34.58-2.13-64.46-4-90.27-9.84-70.82-16.12-205.2-54.46-227.13-60.75a30.13 30.13 0 0 1-2-4.48c-7.62-23.55 77.86-20.54 159.05-77 69.91-48.58 342.65 20.55 440 42 15.74 3.45 26.89 5.68 31.86 6 35.71 2 152.77 244.57 163.93 292.66 8.35 36.06 8.99 96.16 8.78 123.85Z" class="color95bbfd svgShape"></path><path fill="#d4cefe" d="m1123.53 2444-7.16 2.18a1152.06 1152.06 0 0 0-16.51-49.89q-1.35-3.76-2.71-7.51-3.74-10.23-7.6-20.18-1.68-4.36-3.47-8.8c-36.47-91.34-98.22-205.82-190.34-253.43l-1.77-.9c-6-3-12.09-5.79-18.15-8.17-108.4-42.65-196.27-48.07-266.88-52.41-34.58-2.13-64.46-4-90.27-9.84-70.82-16.12-205.2-54.46-227.13-60.75l-3.06-.88 1-3.6 1-3.59c1.52.44 153.09 44.07 229.77 61.53 25.22 5.73 54.81 7.56 89.07 9.67 71.13 4.37 159.66 9.82 269.16 52.92 6.15 2.41 12.33 5.18 18.39 8.24l2.08.52.08.57c42.9 22.16 82.91 60 118.93 112.64 27.52 40.17 52.78 88.92 75.12 145 1.14 2.84 2.26 5.69 3.38 8.56q6.53 16.8 12.65 34.34c.49 1.4 1 2.81 1.46 4.22q6.8 19.46 12.96 39.56Z" class="colorcee2fe svgShape"></path><path fill="#7764f0" d="M1156.29 2417.41s71-44.4 101.13-47.54 138.91-108.16 92.65-87.87-130.14 5.24-161 57.08-32.78 78.33-32.78 78.33Z" class="color6695e5 svgShape"></path><path fill="#a395fd" d="M1024.48 2328.49c-25.53-14.52-62.23-31.86-97.17-35.77-36.07-4-72.23 9.63-96.21 21.82-29.31 14.9-57 35.88-75.88 57.59-16.7 19.17-18.11 47-19.48 73.85-1.66 32.75-3.23 63.69-29.17 82-21.34 15.06-35.63 43.59-41.32 82.52a273.16 273.16 0 0 0-2.63 47c-28.47-57.3-19.17-238.42-19.17-238.42s4.69-10.31 13.8-25.85c24.83-42.28 82.53-123.19 168.33-139.62 38.93-7.46 83.72 6.63 126.16 28.78 25.72 13.4 50.56 29.77 72.74 46.1Z" class="color95bbfd svgShape"></path><path fill="#7764f0" d="m1113.2 2404.18-1.29 1.21c-.42-.31-.84-.64-1.26-1-3.42-2.62-7-5.36-10.79-8.16-28.21-21-64-45.45-83.81-50-18.23-4.22-43.9-6.77-64.79-8.28-3-.21-5.88-.41-8.63-.58a331.44 331.44 0 0 1-41.84-5.67c-25.9-5-31.34 13.07-29.63 46.12.79 15.42 3.13 34.09 5.67 55.19 8.9 73.68-26.88 101.26-76.2 108.18-43.34 6.07-113.94 96.76-130.4 118.61-2.26 3-3.5 4.72-3.5 4.72a53.54 53.54 0 0 1-4.11-7 273.16 273.16 0 0 1 2.63-47c5.69-38.93 20-67.46 41.32-82.52 25.94-18.31 27.51-49.25 29.17-82 1.37-26.89 2.78-54.68 19.48-73.85 18.91-21.71 46.57-42.69 75.88-57.59 24-12.19 60.14-25.87 96.21-21.82 34.94 3.91 71.64 21.25 97.17 35.77q5.05 3.72 9.91 7.42c7.41 5.64 14.46 11.22 21.08 16.62a869.605 869.605 0 0 1 41.68 36.23c5.23 4.86 9.3 8.77 12 11.44s4.05 3.96 4.05 3.96Z" class="color6695e5 svgShape"></path><path fill="#d4cefe" d="m1057.67 2349.5-2.2 3-2.2 3c-.67-.48-67.67-48.78-126.79-55.4-56.23-6.31-128.35 34.14-165.61 76.88-15 17.22-16.29 42.53-17.65 69.33-1.68 33.09-3.43 67.32-32.33 87.72-41.83 29.52-41.45 106.48-40.66 125.72.11 2.72.23 4.29.24 4.41l-3.74.31-3.73.3c0-.31-.24-2.95-.38-7.31a273.16 273.16 0 0 1 2.63-47c5.69-38.93 20-67.46 41.32-82.52 25.94-18.31 27.51-49.25 29.17-82 1.37-26.89 2.78-54.68 19.48-73.85 18.91-21.71 46.57-42.69 75.88-57.59 24-12.19 60.14-25.87 96.21-21.82 34.94 3.91 71.64 21.25 97.17 35.77a377.52 377.52 0 0 1 33.19 21.05Z" class="colorcee2fe svgShape"></path><path fill="#7563e5" d="M4212.23 372.58c-1.91 36-45.48 198.45-56.23 267.27-8 51.12-41.52 17.53-154.07 60-47 17.71-107.7 48.69-186.09 104.57 0 0-117.69 135.16-129.5 214.09-5.19-92.61 2-215.09 61.87-292.48l1.15-1.47c3.91-5 8-9.75 12.27-14.2 75.7-79.62 148.67-119.23 207.31-151.05 28.73-15.59 53.54-29.06 73.27-44.35C4096.35 473 4196 386.68 4212.23 372.58Z" class="color6396e5 svgShape"></path><path fill="#a395fd" d="M4212.23 372.58c-16.26 14.1-115.88 100.37-170 142.34-19.73 15.29-44.54 28.76-73.27 44.35-58.64 31.82-131.61 71.43-207.31 151.05-4.23 4.45-8.36 9.23-12.27 14.2l-1.15 1.47c-59.82 77.39-67.06 199.87-61.87 292.48a79.06 79.06 0 0 0-.94 13.27s-2.37-4.74-6.1-12.57c-11.19-23.6-34.57-75.24-41.79-109.46-9.6-45.55-6.1-299.59 23.66-315.48 4.14-2.21 12.79-8.55 24.87-17.78 74.7-57.07 280.39-224.75 359.49-211 91.9 15.95 163.8-20.67 166.64 2.51a28.5 28.5 0 0 1 .04 4.62Z" class="color95bbfd svgShape"></path><path fill="#d4cefe" d="m4214.49 370.6-2.26 2c-16.26 14.1-115.88 100.37-170 142.34-19.73 15.29-44.54 28.76-73.27 44.35-58.64 31.82-131.61 71.43-207.31 151.05-4.23 4.45-8.36 9.23-12.27 14.2l-1.15 1.47c-59.82 77.39-67.06 199.87-61.87 292.48.16 3 .35 6 .54 8.89 1.25 19 3.1 38.57 5.51 58.33q.8 6.6 1.7 13.21.36 2.73.74 5.46l-4 .56-2.94.41c-.31-2.19-.6-4.38-.89-6.55-3.21-24-5.61-47.88-7.12-71-.2-2.9-.37-5.79-.53-8.66-3.22-56.87-1-108.61 6.51-153.91 9.86-59.3 29-107.63 56.85-143.64l-.16-.52 1.57-1.27c4-5 8.14-9.86 12.45-14.37 76.46-80.44 150-120.34 209.06-152.4 28.45-15.44 53-28.78 72.31-43.72 58.6-45.44 170.83-143.09 172-144.07l2.32 2.66Z" class="colorcee2fe svgShape"></path><path fill="#7764f0" d="M3649.26 1095.67s-78.41-9.68-105.4-.38S3382 1058.1 3429.67 1057s113.33-47.29 160.33-15.24 59.26 53.91 59.26 53.91Z" class="color6695e5 svgShape"></path><path fill="#a395fd" d="M4387.73 1183.83a377.17 377.17 0 0 0-30.74-57.42c-29.85-45.46-64.42-72.89-99.95-79.32-43.19-7.81-63.21-45.67-84.41-85.75-17.4-32.91-35.4-66.93-67.53-81.2-36.36-16.18-83.27-26.35-128.71-27.91-37.17-1.29-90.48 2.67-133.33 28.79-41.51 25.3-77.38 68.43-100.92 101.52 18.28-33.41 39.87-68.4 64.28-100.19 40.28-52.53 88.19-96.34 141.34-109.71 117.14-29.46 236.68 38.27 292.47 76.79 20.49 14.15 32.38 24.35 32.38 24.35s117.39 221.64 115.12 310.05Z" class="color95bbfd svgShape"></path><path fill="#7563e5" d="M4387.73 1183.83a72 72 0 0 1-1.07 11.17c-.21-.13-2.73-1.53-7.11-3.86-33.35-17.79-174.79-90.28-232.69-72.59-65.85 20.12-126.79 6.42-158.65-91.14-9.13-27.93-17.08-52.69-25.1-72.48-17.14-42.42-34.52-61.92-64-40.53a455.38 455.38 0 0 1-49.13 31.53q-5 2.74-10.48 5.77c-25.31 14.08-56 32.26-76.38 48.19-20 15.62-47 59.17-69 99q-1.68 3-3.31 6c-4.77 8.73-9.26 17.2-13.36 25.06l-2.32-.77s4.1-11.52 11.85-30.44q2.48-6.06 5.44-13.08a1203.25 1203.25 0 0 1 24.92-54.92c5.16-10.62 10.74-21.74 16.73-33.13q3.95-7.49 8.1-15.11c23.54-33.09 59.41-76.22 100.92-101.52 42.85-26.12 96.16-30.08 133.33-28.79 45.44 1.56 92.35 11.73 128.71 27.91 32.13 14.27 50.13 48.29 67.53 81.2 21.2 40.08 41.22 77.94 84.41 85.75 35.53 6.43 70.1 33.86 99.95 79.32a377.17 377.17 0 0 1 30.71 57.46Z" class="color6396e5 svgShape"></path><path fill="#d4cefe" d="m4391.52 1193.21-4.86 1.79-4.85 1.78c-.06-.15-.82-2.17-2.26-5.64-10.23-24.55-54.66-121.27-124.34-133.87-48.14-8.71-70.31-50.59-91.72-91.1-17.35-32.79-33.73-63.76-62.58-76.59-71.64-31.84-185.66-40.45-252.45.27-70.24 42.81-126 142.44-126.6 143.44l-4.54-2.52-4.52-2.5a530.94 530.94 0 0 1 29.35-45.74c23.54-33.09 59.41-76.22 100.92-101.52 42.85-26.12 96.16-30.08 133.33-28.79 45.44 1.56 92.35 11.73 128.71 27.91 32.13 14.27 50.13 48.29 67.53 81.2 21.2 40.08 41.22 77.94 84.41 85.75 35.53 6.43 70.1 33.86 99.95 79.32a377.17 377.17 0 0 1 30.74 57.42c2.35 5.55 3.63 8.97 3.78 9.39Z" class="colorcee2fe svgShape"></path><path fill="#816dfe" d="m1045.35 741.88-38.83 15.28c-3.94 1.55 3.55 37.93 4.31 41.18C1017.37 826 1035 851 1065.66 853c26.2 1.73 65.23-18.79 71.81-46.82l-19.84-31.82s-26.27 39.6-48.8 30.87-23.48-63.35-23.48-63.35Z" class="colorfebc6d svgShape"></path><circle cx="1935.63" cy="560.74" r="29.63" fill="#816dfe" class="colorfebc6d svgShape"></circle><path fill="#816dfe" d="M2378.79 497.06s-12.51 63.68-53.92 93.31c0 0 38.29 49 45.14 68.61 0 0 16-68.61 54.6-98.24 0 0-39.71-25.33-45.82-63.68Z" class="colorfebc6d svgShape"></path><circle cx="1098.74" cy="2221.26" r="38.27" fill="#ffffff" class="colorffffff svgShape"></circle><path fill="#816dfe" d="m950.86 1886.41-15.14 15.14-16.13-16.13A5.37 5.37 0 0 0 912 1893l16.13 16.13-15.13 15.15a5.37 5.37 0 0 0 7.6 7.6l15.14-15.14 16.13 16.13a5.37 5.37 0 0 0 7.59-7.6l-16.13-16.13 15.12-15.14a5.37 5.37 0 1 0-7.59-7.59ZM3811.45 1929.74s-20.33 79.11-64.55 93.48c0 0 31.58 15.27 49.12 76.32 0 0 17.54-66.34 51.92-76.32 0 0-44.94-39.46-36.49-93.48ZM4178.14 1637.64l-56.32 1.08-2.97.06-6.76.14.57-3.97 3.52-24.25 11.32-77.94 50.64 104.88z" class="colorfebc6d svgShape"></path><path fill="#4327f2" d="M3833.17 1575.81c-56.65 65.33-222.51 43.35-222.51 43.35l-198.92-36.38c-9.32 70-16.74 129.3-16.74 140.52 0 30.11 12.45 213.2 12.45 213.2s-2.82 1.21-8.11 3.29c-26.25 10.28-113.29 41.88-219.86 53.93-101.73 11.5-221.26 5.17-322.67-54.53q-2.25-1.32-4.52-2.69s52.14-178.28 49.52-203.21c-.83-8-9.58-56-21.09-117.37l-29.54 57.36a42.33 42.33 0 0 1-5.71 16.06 8 8 0 0 1-1 1.3c59.4 101.6-39 215.91-143.77 165.81-26.5-12.65-53.39-35.83-78.24-72.38-59.82-88 72.69-298.73 105.4-387.79s77.94-115.51 147.37-128.85c95.25-41 241.3-75.84 241.3-75.84s50.67 15.41 127.47 43.26c5.71 2.08 11.58 4.23 17.57 6.44 22-7.21 43.95-12.28 66.69-13.57 35.28-2 72.54 5.08 115.29 27.4 0 0 187 92.35 277.73 87 122.81-7.3 194.91 137.95 111.89 233.69Z" class="colorf26027 svgShape"></path><path fill="#1b00c7" d="M3701.23 1539.14c-2.8-3.25-101.85 2.09-116.48-1.18-23-5.15-76.34-16-93.29-31.8L3378.76 1401c-52.46-49-106.89-101.14-134.76-166.11 5.71 2.08 11.58 4.23 17.57 6.44 22-7.21 43.95-12.28 66.69-13.57 47.62 26.25 95.65 58.63 138.87 86.92 49.57 32.44 77 94.65 113.25 139.92 33.28 41.52 86.62 44.73 120.85 84.54zM3272.9 1869.11a336.92 336.92 0 00-93.42 124.61c-101.73 11.5-221.26 5.17-322.67-54.53q-2.25-1.32-4.52-2.69s52.14-178.28 49.52-203.21c-.83-8-9.58-56-21.09-117.37l-29.54 57.36a42.33 42.33 0 01-5.71 16.06 8 8 0 01-1 1.3c59.4 101.6-39 215.91-143.77 165.81-15.61-24.52-32.22-48.16-51.2-69.48l130.23-56.43c5.09 22.15 23 40.87 45 46.88 20.22-52.34-47.47-99.15-51.32-155.13-1.9-27.58 12.08-53.34 22.9-78.76a375.09 375.09 0 0029.41-164.46c26.46 69.3 60.39 135.69 84.18 206 11.48 33.93 20.62 68.81 35.83 101.25 24.67 52.61 57.94 108.54 110.74 134.87 66.53 33.19 143.42 40.81 216.43 47.92z" opacity=".6" class="colorc73f00 svgShape"></path><path fill="#190c6d" d="M3147.34 2306.13c-304.4-5.59-354.17-191.2-354.17-191.2l63.65-175.74c207.64 122.25 491.22 20.69 542.51.6l36.79 123.41s15.63 248.53-288.78 242.93Z" class="color0c246d svgShape"></path><path fill="#1b00c7" d="M2960.47 1536c48.1 33.76 105.38 57.28 161.51 74 56.73 16.85 116.16 27.42 175.44 27.32 10.09 0 9.38 14.94-.44 15.48-61.43 3.43-122.58-2.33-181.4-20.89a484.3 484.3 0 0 1-83.74-35.13c-27.31-14.69-52.44-32.44-77.39-50.79-5.95-4.47-.14-14.36 6.02-9.99ZM2977.3 1621.73c33.24 16.59 70.51 26.77 106.93 33.6 36.8 6.91 74 9.4 111.38 8.62 12.46-.27 13.88 17.79 1.46 19.3a336.31 336.31 0 0 1-116.71-6.76c-38.66-9-73.48-25.07-108-44.35-6.36-3.58-1.75-13.75 4.94-10.41Z" class="colorc73f00 svgShape"></path><path fill="#d3cdfc" d="m3022.73 1073.83 6.21 61.68 3.25 32.22 3.9 38.72 2.89 37.27a77.93 77.93 0 0 0 155 3.83c.29-2.32.51-4.7.58-7.08l3.83-109.15 3.9-111.74-65.59 19.79Z" class="colorfcdccd svgShape"></path><path fill="#634fe6" d="m3027.57 1123 8.53 83.48c87.67 24.86 143.2-19 152.1-69.17-35.11-7.15-147.58-21.75-160.63-14.31Z" opacity=".5" class="colore6884f svgShape"></path><path fill="#36334a" d="M3239.62 853.7c-.08 7.37-.77 14.58-1.44 21.8l-2.85-1.22q-12.48-5.32-25.13-10.14c-29.38-11.16-59.16-19.84-88.12-23.67a233.41 233.41 0 0 0-35.08-2.09 173 173 0 0 0-41.11 5.53 146 146 0 0 0-32 12.57 131.38 131.38 0 0 0-43.62 37.82c-3.73 5-10.66 1.11-14.26-4.69q-2.19-3.48-4.14-7.05a157.67 157.67 0 0 1-15.5-40.55c-8-34.84-3.61-70.13 13.51-93.29 24-32.51 68.66-38.85 108.65-15.5a159.12 159.12 0 0 1 35.26 28.41c7.59-13.19 20.51-20.63 35.76-19.1 26.34 2.64 51.33 28.22 70.81 52.64 5.41 6.81 10.59 13.84 15.56 21 8.33 12.14 16.15 24.73 23.7 37.53Z" class="color333a4a svgShape"></path><path fill="#36334a" d="m3288.47 966.46-2.07-.87c-47.77-20-91.51-49.31-133.81-77.67-31-20.75-63-42.21-96.32-59.85l1.87-3.54c33.53 17.74 65.63 39.26 96.67 60.07 41.53 27.84 84.45 56.61 131.06 76.43 4.27-15 8.42-32.5 8.37-50.54 0-13.63-2.65-33.35-14.86-49.9-10.42-14.13-26.06-23.49-41.19-31.87-6.32-3.5-12.05-6.48-18.28-7.54-6.93-1.17-13.4.53-17.33 4.54l-3.14 3.21-.28-4.48c-1.66-26-5.58-52.52-22.87-70.3-15.26-15.69-40.22-21.66-62.11-14.84-20.9 6.51-38.51 24.15-45.95 46.05l-3.79-1.29c7.85-23.08 26.45-41.7 48.56-48.58 23.28-7.25 49.87-.87 66.16 15.88 17.32 17.81 21.86 43.46 23.73 69 4.74-3.06 11.08-4.22 17.68-3.1 6.86 1.16 12.92 4.3 19.56 8 15.51 8.59 31.57 18.22 42.47 33 12.85 17.42 15.6 38 15.64 52.27.05 19.42-4.6 38.1-9.15 53.82Z" class="color333a4a svgShape"></path><path fill="#36334a" d="M3293 962.51c-2.83 31.13-12.29 58.88-24.17 68.48-24.27 19.61-323.86-51.5-323.86-51.5-.1-9.73 0-18.79.14-27.24q4.22 2.36 8.59 4.48c29.88 14.47 63.45 19.4 96.55 22 51.45 4.09 103.17 3.09 154.73.8l8.1-.38c-.75-29.36 2.68-65.12 2.68-65.12-18.68 6-22-6.91-26.93-35-9.52-54.39-65.38-18.4-108.61-23.27-15.29-1.72-25.44-7-34.31-11.86a146 146 0 0 0-32 12.57 131.38 131.38 0 0 0-43.62 37.82c-3.73 5-10.66 1.11-14.26-4.69q-2.19-3.48-4.14-7.05c6.48-29.89 17.19-44.78 30.73-58.7a71.06 71.06 0 0 1 15.65-11.61c43.68-25 141.14-40.11 217.67 3.94a185.31 185.31 0 0 1 59.6 54.62c7.94 11.31 13 25.75 15.77 41.35a193.19 193.19 0 0 1 1.69 50.36Z" class="color333a4a svgShape"></path><path fill="#d3cdfc" d="M3230.75 902.2a193.08 193.08 0 0 0-51.75-52.36c-42-28.46-117.74-36.34-171.19-13.37-17.16 7.31-30.42 22.56-40.48 38.36a208.85 208.85 0 0 0-6.33 10.69c-7 12.48-13 36.23-16.25 64.25-3.95 33.78-3.92 73.8 3.15 107.86a162.62 162.62 0 0 0 11.85 36.71c13.86 29 35.75 58 72.44 73.39a136.68 136.68 0 0 0 30 8.81c28.31 5 56.34.66 82-10.11a190.69 190.69 0 0 0 54.17-35.1c27-24.51 47.5-56.19 57.57-88.94.62-2 1.2-4 1.74-6.05.14-.65.37-1.3.51-2 10.93-43.61-.73-92.28-27.43-132.14Z" class="colorfcdccd svgShape"></path><path fill="#634fe6" d="M3230.75 902.2a65.19 65.19 0 01-10.15 8.36c-3.15 2.1-6.57 4-10.33 4.46-10.15 1.22-18.34-8.3-22.49-17.65s-6.78-20-14.67-26.56c-11.21-9.25-27.7-6.06-42-3.28-17.31 3.38-35.82 5.29-52.08-1.55-6.38-2.69-12.17-6.64-18.58-9.23-14.72-6-31.62-4.3-46.51 1.19s-28.16 14.54-41.26 23.5l-5.41-6.61c10.06-15.8 23.32-31.05 40.48-38.36 53.45-23 129.22-15.09 171.19 13.37a193.08 193.08 0 0151.81 52.36zM3256 1042.39c-10.07 32.75-30.62 64.43-57.57 88.94a190.69 190.69 0 01-54.17 35.1s44.92-33 32.58-65.81c-9.63-25.64-162.38-38.55-228.9-43-7.07-34.06-7.1-74.08-3.15-107.86l157.43-20.62s98.6 74.32 153.78 113.25z" opacity=".5" class="colore6884f svgShape"></path><path fill="#36334a" d="M3125 1063.07a10.62 10.62 0 0 0-11.32-1.4c-10.22 4.68-13.59 14.51-32.74 13.64a31 31 0 0 1-6.58-1.74c-3.68-1.39-7.94.85-9.5 4.14a7.89 7.89 0 0 0 2.87 9.83c16.2 11.41 55.61 11.6 60.55-13.66.85-4.14.25-7.88-3.28-10.81ZM3268.52 973a49.34 49.34 0 0 1-1.64 9.89c-24.27 7.72-22.51 28.76-42.34 33.91-8.11 2.1-10.92-16.05-11.48-37.66-.75-29.36 2.68-65.12 2.68-65.12-18.68 6-22-6.91-26.93-35-9.52-54.39-65.38-18.4-108.61-23.27-15.29-1.72-25.44-7-34.31-11.86-11.9-6.48-21.52-12.19-38.13-7.46a116.74 116.74 0 0 1 33.86-17.57c44.25-15 103.21-11.18 147.68 13.49q5 2.8 9.83 6a125.06 125.06 0 0 1 33.45 32q1.41 2 2.75 4a230.92 230.92 0 0 1 19 33.13c14.2 30.62 15.21 53.44 14.19 65.52Z" class="color333a4a svgShape"></path><path fill="#030208" d="M3293 962.51a35.17 35.17 0 0 1-5.81 4 71 71 0 0 1-18.65 6.58c-2.1.46-4.22.87-6.33 1.25-16.22 2.9-32.67 4.08-49.13 4.89-.75-29.36 2.68-65.12 2.68-65.12-18.68 6-22-6.91-26.93-35-9.52-54.39-65.38-18.4-108.61-23.27-15.29-1.72-25.44-7-34.31-11.86a146 146 0 0 0-32 12.57 131.38 131.38 0 0 0-43.62 37.82c-3.73 5-10.66 1.11-14.26-4.69q-2.19-3.48-4.14-7.05a157.67 157.67 0 0 1-15.5-40.55c1.12-1.52 2.32-3 3.58-4.38 14.55-16.15 36.49-24.53 58.23-25.38h.07c14.73-.58 29.37 2 43.41 6.63a180.72 180.72 0 0 1 19.54 7.73c8.57 4 17 8.55 25.84 11.77a67.41 67.41 0 0 0 13.53 3.55c6.47 1 13.79.13 21.55-1.46 22.25-4.56 48.06-15.33 67.22-8.1a30.94 30.94 0 0 1 9.83 6 35.37 35.37 0 0 1 4.93 5.46c5.08 6.94 5.19 12.79 6.14 20.35.05.42.1.85.16 1.28 2.42 17.76 16.87 30.79 32.76 37.8a104.61 104.61 0 0 0 11.19 4.19 108 108 0 0 0 36.94 4.75 193.19 193.19 0 0 1 1.69 50.24Z" class="color070208 svgShape"></path><rect width="84.34" height="76.84" x="2609.4" y="1274.86" fill="#1b00c7" rx="3.86" transform="rotate(-116.05 2651.47 1313.34)" class="colorc73f00 svgShape"></rect><path fill="#1b00c7" d="M2692.42 1800.36c4.91-4.08 11.92-3.6 18-4.68a133.66 133.66 0 0 0 18.29-4.58 119.28 119.28 0 0 0 33.36-17.35 128.39 128.39 0 0 0 26.12-26.14 161 161 0 0 0 9.9-15c3.4-5.75 6-12.29 10.19-17.48 5.64-7.06 14.92.84 13.77 7.9-1 6.49-5.57 13.48-9.07 19a133.83 133.83 0 0 1-12.87 16.76 162.51 162.51 0 0 1-30.73 26.22 180.7 180.7 0 0 1-35.75 18.41 140.74 140.74 0 0 1-18.82 5.83c-6.36 1.49-15.09 4.34-21.09.89-3.2-1.9-4.45-7.14-1.3-9.78Z" class="colorc73f00 svgShape"></path><path fill="#d3cdfc" d="M2808 1729.6c-47.12 86.89-154.14 82.32-192.93-1.8a385.89 385.89 0 0 1-25.77-76.19c-23.68-103.52-6.66-206.78-18.32-310.5-72.76-27.09-107.58-83.59-139.13-107.43l34.43-24.25 32-22.53-43.13-72-1.39-2.32-63.82-37.41a20.11 20.11 0 0 1 18.48-35.66l93 42.22 47.62 47.06 26.43 26.12-7.13 8.59 19.06 27 67.87 96 105.76 306.85 35.25 102.26Z" class="colorfcdccd svgShape"></path><path fill="#634fe6" d="M2808 1729.6c-47.12 86.89-154.14 82.32-192.93-1.8a385.89 385.89 0 01-25.77-76.19c24.06 34.9 104.52 125.82 174.35 71.17 12.67-9.92 23.45-19 32.63-27.16zM2587.42 1190.48c-8.33 10.15-86.65-27.42-98.91-22.85-26.6 9.89 10.61 51.89-16.53 43.62-1.89-.57-3.78-1.19-5.68-1.82l32-22.53-43.13-72a349.61 349.61 0 0193.91 13.89l26.43 26.12-7.13 8.59z" opacity=".5" class="colore6884f svgShape"></path><path fill="#b4a9f9" d="M2393.11 1249.7a23.68 23.68 0 0 0 14.94 19l47.67 18.2a24.43 24.43 0 0 0 31.17-13.36 25 25 0 0 0 1.78-10.68 13.37 13.37 0 0 0-.15-1.87 9.22 9.22 0 0 0-.3-1.55 24 24 0 0 0-15.94-18.3l-48.16-16.64a23.57 23.57 0 0 0-20 2.34c-.83.5-1.65 1.11-2.46 1.71a21.35 21.35 0 0 0-6.81 8.76 23.6 23.6 0 0 0-1.74 12.39Z" class="colorf9c8a9 svgShape"></path><path fill="#b4a9f9" d="M2495.59 1228.4a14.16 14.16 0 0 1 .13 1.62c.06.65 0 1.28.05 1.88h-.06a23.85 23.85 0 0 1-4.27 13.54 24.23 24.23 0 0 1-33.19 6.48l-42.81-27.65a23.67 23.67 0 0 1-5.36-4.83 23.63 23.63 0 0 1-1-28.62 24.69 24.69 0 0 1 7.5-6.76 23.91 23.91 0 0 1 7.13-2.58 23.32 23.32 0 0 1 16.66 2.85l41.06 24.8 2.65 1.59a24.28 24.28 0 0 1 11.51 17.68Z" class="colorf9c8a9 svgShape"></path><path fill="#b4a9f9" d="M2422.78 1166.94a23.43 23.43 0 0 0 7.78 18l38.1 33.92a24.18 24.18 0 0 0 40.32-16 9.28 9.28 0 0 0 .14-1.58 24.22 24.22 0 0 0-8.64-19.24l-39.12-32.76a23.41 23.41 0 0 0-16.06-5.4 23 23 0 0 0-15.84 7 23.3 23.3 0 0 0-6.68 16.06Z" class="colorf9c8a9 svgShape"></path><path fill="#d3cdfc" d="m2575.48 1154.94-89.54-28.27-43.85 32.33a21.66 21.66 0 0 0-4.78 30 21.66 21.66 0 0 0 27 7l27.9-13.31 31.5 21.58s-4.1 125.8 131.61 82.22Z" class="colorfcdccd svgShape"></path><path fill="#1b00c7" d="m2658.79 1285.18-97.96 51.89 9.78 36.29 105.92-45.99-17.74-42.19zM2883.68 1570.46c-3.68-17.46-7.15-35-10.56-52.48-6.87-35.29-13.48-70.64-20.29-105.94-3.9-20.22-7.78-40.44-11-60.79-.58-3.72-7-2.93-6.58.85 3.91 35.92 7.3 71.88 12.58 107.64 3.21 21.77 7.05 43.45 11.2 65.07-.62-.41-1.25-.79-1.85-1.21-1-.72-2.6-1.87-3-2.17a104 104 0 0 1-13.75-12.87 77.9 77.9 0 0 1-17.25-31.4c-1.84-6.82-12.1-4.07-10.57 2.78a97.68 97.68 0 0 0 17.35 37.77 80.89 80.89 0 0 0 14.34 14.83 107.91 107.91 0 0 0 9.13 6.5c2.85 1.78 6 3.82 9.3 4.85q2.31 11.55 4.7 23.07c4.09 19.65 6.74 41.15 16.23 59 2.21 4.16 8.33 2.12 8.49-2.24.7-17.85-4.81-35.85-8.47-53.26Z" class="colorc73f00 svgShape"></path><path fill="#5440d3" d="M3630.75 2162.82c-31.42 47.59-72.56 92.76-122 131.74-67.95 53.63-138 79.24-193 76.44a139.17 139.17 0 0 1-22.9-3c-47.75-10.46-79.76-46.53-81.46-108.54a212.76 212.76 0 0 1 1.37-30.22c2.27-20.2 7.26-42.57 15.31-67.12a547.74 547.74 0 0 1 23.47-59c33.24-71.91 267.23-428.64 389.16-307.71 89.3 88.59 76.12 237.04-9.95 367.41Z" class="color4050d3 svgShape"></path><path fill="#190c6d" d="M3632 2158.86c-.42 1.32-.85 2.64-1.26 4-31.42 47.59-72.56 92.76-122 131.74-67.95 53.63-138 79.24-193 76.44a139.17 139.17 0 0 1-22.9-3c-47.75-10.46-79.76-46.53-81.46-108.54a212.76 212.76 0 0 1 1.37-30.22c2.27-20.2 7.26-42.57 15.31-67.12 72.14 29.28 253.55 58.11 448.45-258.72 4.7 86.11-18.11 173.28-44.51 255.42Z" opacity=".35" class="color0c246d svgShape"></path><path fill="#190c6d" d="M3676.54 1903.4c-14.63 75.82-51.2 145.17-94.63 208.23-22.87 33.22-48.14 64.71-74.32 95.35-25.2 29.49-50.72 59-77.44 87.09s-56.6 52.78-94.84 62.84c-8.41 2.21-4.8 13.83 3.34 12.71 35.52-4.87 65.44-28.29 90.36-52.69 27.69-27.1 52.88-57.12 78.25-86.36 53.06-61.14 103.72-125.41 137.3-199.59 18.27-40.37 31.25-82.28 37-126.26.44-3.22-4.37-4.72-5.02-1.32ZM3322.55 1986.2c-45 53.46-81.09 115.49-100.71 182.85a516.1 516.1 0 0 0-13.27 58c-1.64 9.65 13.33 12.76 14.93 3.06a548.56 548.56 0 0 1 69.91-192.11 472.79 472.79 0 0 1 32.83-48.47c1.95-2.53-1.61-5.79-3.69-3.33ZM2874.81 2578.2l-86.18-128.84a46.6 46.6 0 0 1 23.87-70.08h.13l161.48 190.12c-15.17 10.3-27.64 17.94-37.82 23.6a46.63 46.63 0 0 1-61.48-14.8Z" class="color0c246d svgShape"></path><path fill="#1b00c7" d="M2943.87 2558.87a142.3 142.3 0 0 0 30.22 10.6c11.2-7.63 25.61-18.09 43.39-30.8 16.49-11.84 35.85-25.88 57.93-41.69 23.9-17.17 51.1-36.5 81.52-57.65-8.39-41.33-23.74-85.67-45.61-122.14h-.08c-64.63 28.46-176.18 36.21-254.54 50.72-20.2 3.69-35.9 7.48-44 11.35-6.7 13.16 43.41 137.74 131.17 179.61Z" class="colorc73f00 svgShape"></path><path fill="#d3cdfc" d="M3292.87 2368c-50.1 25.68-98.48 45.21-135.94 71.33-8.39-41.33-23.75-85.67-45.61-122.14 11.52-5 22.26-10.14 33-15.61 3.56-1.85 7-3.77 10.51-5.7 1.86-1 3.63-2 5.41-3 3.55-2 7.11-4 10.63-6.31 1.86-1 3.7-2.19 5.56-3.3 3.61-2.28 7.3-4.65 11-7.1 7.69-5.08 15.63-10.59 24-16.69 1.68 61.99 33.69 98.07 81.44 108.52Z" class="colorfcdccd svgShape"></path><path fill="#ffffff" d="M3016.68 2539.39c17-12.23 36.9-26.64 59.59-42.87-21.98-2.35-56.88 13.57-59.59 42.87ZM2812.61 2379.29c-13.16 33.16 37 154 131.2 179.6 10.6-95.66-48.81-203.18-131.2-179.6ZM3072.48 2276.05c-21 25.16-31.78 64.33-27.25 98.36-2.88-6.15-6-12.88-10.53-17.24-2.71-2.62-6.65 1.34-5.46 4.87 2.45 7.26 7.56 13.82 11 20.54a227.71 227.71 0 0 1 9.68 21.91 276.51 276.51 0 0 1 14 47.27c.43 2.25 3.46 1.78 3.2-.6a235.81 235.81 0 0 0-8.68-43.76c9.91 20.51 26.85 37.92 43.78 49.56 14.48 10 36.63 22.93 53.76 10.73s14.14-38.77 3.19-53.5c-12.16-16.37-31.35-26.64-49.67-31.29a91.7 91.7 0 0 0-38.35-1.23 122.47 122.47 0 0 0 33.47-43.66c8.19-17.59 17-44.86 8.62-63.37-3.83-8.46-11.37-13.88-20-12.64-8.11 1.15-15.24 7.47-20.76 14.05Zm-12.05 116.37c-.07-.11-.16-.15-.23-.25a98 98 0 0 1 48 .38c16 4.3 32.55 12.91 43.62 26.75 5.87 7.36 9.78 17.15 7.76 27.52-1.91 9.83-8.89 15.74-17.46 16.27-17.08 1.07-34.92-12.49-47.43-23.74-14.6-13.14-24.18-29.43-34.26-46.93Zm33.06-121.17c9.78-1.3 14.06 10.3 14 19.67 0 18-7.16 37.63-15.92 52.78-9.29 16-21.91 30-36.53 39.49a4 4 0 0 0-.63.6c-2.34-17.05-2.6-34.52 1-51.69a124.17 124.17 0 0 1 20.41-47c4.44-6.1 10.51-12.9 17.67-13.85ZM3012.2 2376.09c16.11 27.35 23.15 62 21.93 95.36-.09 2.65-4.08 2.8-4.11.14a205.78 205.78 0 0 0-6.16-47.46c-3.91-15.51-9.94-29.51-17-43.28-.67-1.3-1-3.32.08-4.63a4.3 4.3 0 0 1 1.36-1.2 3 3 0 0 1 3.9 1.07ZM2973.15 2384.2c18.95 25.44 32.18 57.58 39.95 89.93.91 3.77-4 6.44-5.12 2.59a335.39 335.39 0 0 0-16.95-45.36c-6.83-14.9-15.2-28.34-23.78-41.9-2.72-4.3 2.92-9.28 5.9-5.26ZM2939.1 2392.78h1.11c1.28 0 2.18 1.2 2.72 2.32 3.64 7.58 8.08 14.6 11.63 22.26s6.76 15.51 9.66 23.52a279.24 279.24 0 0 1 12.86 49c.56 3.29-4.34 5-5.09 1.74a368.3 368.3 0 0 0-14-47.56q-4.16-11.11-9.13-21.77c-3.64-7.79-7.2-16.06-12-23a4.43 4.43 0 0 1-.38-4l.36-1a2.27 2.27 0 0 1 2.26-1.51Z" class="colorffffff svgShape"></path><path fill="#3e3e3e" d="m3315.77 2371-53.77 26.32-82.2-137.51 32.95-30.58c-10.26 91.3 34.88 138.31 103.02 141.77Z" class="color3e3e3e svgShape"></path><path d="m3261.25 2399.93-84-140.49 38.09-35.34-.6 5.35c-5 44.44 3.25 80.78 23.89 105.08 17.73 20.89 44.44 32.81 77.23 34.47l7.72.4Zm-78.88-139.76 80.42 134.55 45.49-22.27c-30.55-3-55.57-15.18-72.68-35.33-20.53-24.18-29.26-59.65-25.35-102.82Z" fill="#000000" class="color000000 svgShape"></path><path fill="#d3cdfc" d="M2875.21 2192.44c66.51 49.15 137.88 77.16 187.51 116.55 10.93-40.73 29-84 53.09-119.08-11.18-5.73-21.58-11.51-31.93-17.62-3.45-2.07-6.79-4.2-10.14-6.34-1.8-1.13-3.51-2.25-5.22-3.36-3.42-2.23-6.84-4.47-10.22-7-1.79-1.13-3.56-2.42-5.34-3.64-3.47-2.49-7-5.09-10.53-7.76-12.64-9.54-25.94-20.38-40.87-33.43-8.54-7.38-17.55-15.51-27.2-24.51 0 0-.1.07-.09 0-4.79-4.41-9.8-9.11-14.95-14h-.08c-5.24-4.91-10.61-10-16.12-15.37s-11.48-11-17.51-16.87c-3-2.93-6-5.88-9.15-8.92Z" class="colorfcdccd svgShape"></path><path fill="#5440d3" d="M3089.22 2156.69 2999.45 2282l-24.17-11.83-69.75-34.17c-122.78 8.15-269.25-77-364.69-220-56-84-73.87-167.68-55.06-224.17 25-75.21 115-102.14 266.32-17 58.77 33.06 311.68 227.52 305.34 353.69 18.79 16.61 31.78 28.17 31.78 28.17Z" class="color4050d3 svgShape"></path><path fill="#190c6d" d="m3335.67 2465.07 94-123.25a46.58 46.58 0 0 0-19.48-71.42l-.13-.06-173 179.76c14.5 11.21 26.48 19.61 36.28 25.9a46.66 46.66 0 0 0 62.33-10.93Z" class="color0c246d svgShape"></path><path fill="#1b00c7" d="M3115.81 2189.91c-24.08 35-42.16 78.35-53.09 119.08 29.05 23 55 44 77.8 62.59 21.05 17.15 39.5 32.36 55.23 45.2 16.95 13.79 30.69 25.12 41.39 33.42a141.86 141.86 0 0 0 30.82-8.7c90.2-36.39 147.88-157.59 142.08-171.13-7.88-4.37-23.31-9.12-43.24-14-77.31-19.34-188.17-34-250.91-66.4Z" class="colorc73f00 svgShape"></path><path fill="#ffffff" d="M3196.48 2417.55c-16.22-13.26-35.19-28.88-56.82-46.48 22.08-.99 55.92 17.06 56.82 46.48ZM3410.07 2270.39c11.08 33.92-46.44 151.4-142.08 171.13-4.65-96.12 61.28-199.76 142.08-171.13ZM3137.33 2136c-8.56-1.77-16.42 3.17-20.77 11.37-9.52 18-2.4 45.73 4.68 63.79a122.36 122.36 0 0 0 30.7 45.65 91.7 91.7 0 0 0-38.36-1.15c-18.56 3.5-38.36 12.57-51.51 28.15-11.84 14-16.58 40.26-.12 53.59s39.25 1.67 54.31-7.37c17.62-10.57 35.61-26.9 46.77-46.76a236.11 236.11 0 0 0-11.37 43.15c-.41 2.35 2.58 3 3.15.79a278.43 278.43 0 0 1 16.86-46.31 231 231 0 0 1 11-21.28c3.84-6.48 9.34-12.72 12.23-19.81 1.41-3.45-2.28-7.65-5.14-5.2-4.78 4.07-8.32 10.6-11.57 16.55 6.62-33.68-1.7-73.44-21.11-99.85-5.08-6.96-11.81-13.72-19.75-15.31Zm-12.5 176.91c-13.18 10.46-31.82 22.89-48.81 20.76-8.52-1.06-15.12-7.39-16.42-17.31-1.37-10.48 3.14-20 9.46-27 11.9-13.13 29-20.7 45.19-24a98 98 0 0 1 47.91 2.59c-.08.1-.17.13-.24.24-11.15 16.81-21.72 32.47-37.09 44.67Zm28.36-152.79a124.08 124.08 0 0 1 17.46 48.18c2.51 17.37 1.16 34.78-2.24 51.66a4.43 4.43 0 0 0-.58-.65c-14-10.42-25.74-25.08-34-41.67-7.81-15.67-13.72-35.65-12.63-53.67.56-9.35 5.56-20.66 15.23-18.76 7.08 1.34 12.72 8.47 16.76 14.86ZM3211.07 2254.84c-17.78 26.3-27 60.41-27.81 93.82-.06 2.64 3.9 3.05 4.1.39a206 206 0 0 1 9.09-47c4.86-15.24 11.74-28.83 19.65-42.14.75-1.26 1.23-3.25.2-4.62a4.15 4.15 0 0 0-1.3-1.29 3 3 0 0 0-3.93.84ZM3249.53 2265.35c-20.48 24.22-35.68 55.48-45.44 87.29-1.14 3.7 3.59 6.67 4.95 2.9a335 335 0 0 1 19.73-44.23c7.74-14.44 16.93-27.34 26.33-40.34 2.98-4.12-2.34-9.44-5.57-5.62ZM3283 2276l-1.1-.09c-1.28-.11-2.25 1.06-2.86 2.15-4.11 7.33-9 14.06-13 21.49s-7.7 15.06-11.1 22.87a281.77 281.77 0 0 0-15.87 48.1c-.76 3.24 4 5.28 5 2A369.34 369.34 0 0 1 3261 2326q4.84-10.83 10.46-21.15c4.12-7.56 8.19-15.59 13.36-22.25a4.37 4.37 0 0 0 .63-3.92l-.3-1a2.28 2.28 0 0 0-2.15-1.68Z" class="colorffffff svgShape"></path><path fill="#190c6d" d="M3085.77 2154.42c-19.48-19.12-40.77-36.12-62.63-52.41.91-3.15 1.74-6.33 2.37-9.55 6-30.73-.49-63.23-16.56-90-1.49-2.47-5.33-.3-3.9 2.22a111.18 111.18 0 0 1 9.93 85.74 114.45 114.45 0 0 1-17.08 35.26 125 125 0 0 1-12.22 14.47c-4.83 4.9-11.48 8.84-15.28 14.56-3.21 4.84 2.24 11.82 7.72 10 7-2.3 12.88-9 17.8-14.37a116 116 0 0 0 13.7-18 132.57 132.57 0 0 0 9.85-19.69c19.49 16 37.77 33.4 55.63 51.16a1207.48 1207.48 0 0 1-71.92 101.37c-23.31-19.17-51.9-34-81.55-39.83a81.07 81.07 0 0 0 13.53-11.26c9.17-9.64 15.24-21 19.54-33.49.8-2.3-3-3.89-4-1.63-4.87 10.85-13.23 20.26-22.55 27.55a82.65 82.65 0 0 1-10.9 7 7.66 7.66 0 0 0-2.59-1.2c-73.92-17.59-143.63-50.39-205.16-94.88-61.14-44.21-114.5-98.8-156-161.89-23.46-35.71-43.95-74.06-58.72-114.19-1.17-3.17-6.26-1.92-5.15 1.35 12.48 36.53 27.74 71.94 47.21 105.32a604.77 604.77 0 0 0 68.08 94.07 593.82 593.82 0 0 0 182.55 140.11A584.17 584.17 0 0 0 2895 2223a6.9 6.9 0 0 0-2.57 7.25 7.09 7.09 0 0 0 8.53 5 53.63 53.63 0 0 0 9-3.19 5.26 5.26 0 0 0 4.2 4.11c15.86 3.85 31 8.42 45.62 15.81a186.11 186.11 0 0 1 39.81 27.13c2.4 2.13 6.91 2.88 9.21 0a841.83 841.83 0 0 0 76.73-114.75c2.58-2.52 3.55-6.69.24-9.94Z" class="color0c246d svgShape"></path><path fill="#5440d3" d="m3155.11 894.11 159.23 41.66-27.53 127.38-141.94-7.42 10.24-161.62z" class="color4050d3 svgShape"></path><path fill="#7563e5" d="M3219.73 978.38c-2.21 43.54-36.37 77.43-77.13 77.43-1.24 0-2.49 0-3.73-.09L2923.13 1045h-.87l163.16 8c1.14.06 2.29.08 3.43.08 39.09 0 72-34 74.17-77.57 2.22-43.89-27.43-81.22-66.69-84.77l50.79 2.52c42.38 2.15 74.88 40.26 72.61 85.12Z" class="color6396e5 svgShape"></path><path fill="#190c6d" d="M2850.53 959.88c-.09 1.55-.13 3.09-.13 4.63 0 42.81 30.29 78.34 69.47 80.32l2.39.12c-41.95-2.63-73.99-40.52-71.73-85.07ZM3093.67 890.54l-162.28-8 164.94 8.19c-.88-.07-1.77-.15-2.66-.19ZM2924.7 882.53c1 0 2-.07 2.94-.07q1.86 0 3.75.09l-3.26-.16c-1.16-.07-2.29-.1-3.44-.1-37.86 0-69.89 31.9-73.87 73.53 4-40.52 35.71-71.75 73.88-73.29Z" class="color0c246d svgShape"></path><path fill="#190c6d" d="m3093.61 891.6-165.54-8.16c-1.12-.06-2.26-.08-3.37-.08v-.83.83c-18.65 0-36.46 7.85-50.14 22.12s-21.91 33.67-23 54.45v.33c-2.08 44.06 28.52 81.49 68.36 83.51l165.54 8.17c1.12 0 2.26.08 3.38.08 18.65 0 36.46-7.85 50.14-22.12s21.91-33.67 23-54.45c2.22-44.2-28.44-81.82-68.37-83.85Z" class="color0c246d svgShape"></path><path fill="#5440d3" d="M3163 975.51c-2.22 43.58-35.08 77.57-74.17 77.57-1.14 0-2.29 0-3.43-.08l-163.16-8c-42-2.63-74-40.52-71.73-85.07.07-1.36.16-2.72.29-4.06 4.06-41.56 37.35-73.36 76.82-73.36q1.86 0 3.75.09l164.94 8.19c39.28 3.5 68.93 40.83 66.69 84.72Z" class="color4050d3 svgShape"></path><path fill="#190c6d" d="m2924.68 1015.37 68.88 3.41 23 1.13 9.77.53 40.23 2 2.2.12a54.84 54.84 0 0 0 8.81-.29 51.82 51.82 0 0 0-3.57-103.22l-72.94-3.58-40.18-2-9.82-.52-21.13-1h-1.8a43.66 43.66 0 0 0-7 .29 51.78 51.78 0 0 0 3.57 103.13Z" class="color0c246d svgShape"></path><path fill="#7563e5" d="m2930 976 119.7 5.83a13.26 13.26 0 0 0 13.89-12.6 13.27 13.27 0 0 0-12.6-13.89l-119.7-5.83a13.26 13.26 0 0 0-13.89 12.6A13.25 13.25 0 0 0 2930 976Z" class="color6396e5 svgShape"></path><path fill="#634fe6" d="M3253.18 1055.62c-20 110.57-29.67 172 62.29 210.31l54.61-152.16Z" class="colore6884f svgShape"></path><path fill="#3e3e3e" d="M3310 1004.38a31.68 31.68 0 0 1 14.32 2.44 53.24 53.24 0 0 1 13.15 7.89c7.9 6.31 15.05 13 20.89 21.3 1 1.45-1.43 3.22-2.55 1.84-6-7.34-13.12-14.17-21.5-18.68-4-2.16-8.21-4.07-12.33-6a130 130 0 0 1-12.58-6.77 1.07 1.07 0 0 1 .6-2.02Z" class="color3e3e3e svgShape"></path><path d="M3356.87 1040.35a3.3 3.3 0 0 1-2.6-1.24c-6.63-8.17-13.65-14.28-20.89-18.17-3-1.61-6.13-3.1-9.16-4.54l-3.1-1.48a130.38 130.38 0 0 1-12.76-6.87 3 3 0 0 1-1.35-3.31 3.14 3.14 0 0 1 2.9-2.36 33.43 33.43 0 0 1 15.18 2.59 55.6 55.6 0 0 1 13.64 8.18c9.49 7.58 16.05 14.28 21.27 21.71a3.39 3.39 0 0 1-.86 4.7 3.77 3.77 0 0 1-2.27.79Zm-43.56-34c3.42 2 6.69 3.6 9.55 5l3.07 1.47c3.08 1.46 6.27 3 9.34 4.62a62.9 62.9 0 0 1 11.19 7.8c-3-2.9-6.35-5.83-10.22-8.93a51.07 51.07 0 0 0-12.67-7.61 29.69 29.69 0 0 0-10.26-2.35Zm-3.19 0Z" fill="#000000" class="color000000 svgShape"></path><path fill="#d3cdfc" d="M3748.17 1532.29q-2.85 2.13-5.86 4.11c-84.46 55.32-253.19-74.77-369.66-187.19l-.4-.38c-44.41-42.89-81.18-83.17-102.72-109.55l18.14-16.16c-12.84-11.2-26.86-26.31-31.71-52.76-3.37-12.69-2.94-27.84-.31-43.6l-29.44-1.67-20.45 25.07c-13.78 4-21.27-8-16.62-16.71 6.61-12.46 17.14-32.13 19.3-35 2.9-3.8 20.76-11.36 43.14-15.77l-22.27-4.82a10.37 10.37 0 0 0-9.14 2.42l-16.59 14.85a11.84 11.84 0 0 1-17.38-15.9c8.46-11.28 21.93-29.07 24.51-31.55 3.12-3 27.66-11.49 60-9.74l-32.18-8-38.59 10.65c-10 2.12-19.84-8.1-13.06-20.81a.47.47 0 0 1 .21-.21c12.92-7.47 48.37-27.84 53-29.17 5.49-1.56 24 .06 56.3 11.27v-27.9l-56.65-27.32a14.39 14.39 0 0 1-7.5-17.19c2.2-7.37 10.25-11.37 17.72-9.56l76.41 18.49a23.12 23.12 0 0 1 15.63 13.04l34.33 113.77a57.56 57.56 0 0 1-2.12 39l-23.69 55.88a29.45 29.45 0 0 0 10.07 35.52c108.67 77 278.45 137.85 354.95 161.82 77.02 24.18 97.2 126.66 32.63 175.07Z" class="colorfcdccd svgShape"></path><path fill="#1b00c7" d="M3398 1536q.06-21.27 1.94-42.46a334 334 0 0 1 5.79-41.17c3-13.85 6.75-27.44 10.46-41.1 1.3-4.78 8.33-2.84 7.37 1.93-5.37 26.89-7.65 54.75-9.65 82.07-.72 9.91-1.1 19.84-1.33 29.77.75-2.37 1.4-4.77 2.22-7.11a237.65 237.65 0 0 1 12.7-29.64c5.05-9.89 11.49-18.64 17.68-27.81a3 3 0 0 1 5.3 3c-4.63 9.42-8 19.56-11.84 29.33s-7.17 19.57-10.35 29.47c-3.13 9.7-5.94 19.47-8.18 29.42q-1.77 7.83-3.14 15.76c-.91 5.27-1.55 10.33-5.34 14.41a5 5 0 0 1-7.84-1.06 12 12 0 0 1-.5-1.38 5 5 0 0 1-1.67-2.3c-4.26-13.13-3.62-27.38-3.62-41.13ZM3562 1538.33c44.22 18.69 95.4 22.52 140.94 6.38 41-14.55 77.93-49.59 80.1-95.3 1.12-23.47-7-48.33-24.18-64.74-2.89-2.76 1-8.24 4.37-5.74a83.63 83.63 0 0 1 33.43 58.76c2.52 24.14-5.19 48.67-18.85 68.5-29.69 43.1-83.35 62.77-134.2 63a184.5 184.5 0 0 1-87.24-21c-6.64-3.44-.93-12.63 5.63-9.86ZM3026.12 1254.3c9 60.54 45.73 115.51 96.65 149a210.14 210.14 0 0 0 46.28 22.76c7.75 2.71 11.09-9.59 3.39-12.28-54.29-19-99-62.53-121-115.51a200.46 200.46 0 0 1-13.05-47.4c-1.21-8.08-13.48-4.64-12.29 3.39Z" class="colorc73f00 svgShape"></path><path fill="#1b00c7" d="M3205.35 1261.28c-21.32 57.77-65 106.29-119.34 135a242.87 242.87 0 0 1-48.68 19.31c-7.89 2.18-4.54 14.48 3.38 12.28 62.79-17.43 117.78-59 152.68-114a259.51 259.51 0 0 0 24.25-49.25c2.84-7.7-9.47-11-12.29-3.38Z" class="colorc73f00 svgShape"></path><path fill="#634fe6" d="M3748.17 1532.29q-2.85 2.13-5.86 4.11c-84.46 55.32-253.19-74.77-369.66-187.19 20.61 18.76 256.87 183.21 340.14 136 83.88-47.53 55.51-87.32 2.75-128 77.02 24.19 97.2 126.67 32.63 175.08zM2582.61 1638.92l-.33.81c-.22-.73-.12-1.03.33-.81z" opacity=".5" class="colore6884f svgShape"></path><path fill="#190c6d" d="M3057.44 2128.45s-59.07 77.2-82.16 141.67l-69.75-34.12c-122.78 8.15-269.25-77-364.69-220-56-84-73.87-167.68-55.06-224.17l2.73 1.06s38.49 303.2 421.49 439.16c0 0 103.48-99.12 109.52-119.35s37.92 15.75 37.92 15.75Z" opacity=".35" class="color0c246d svgShape"></path></g></svg>