<svg xmlns="http://www.w3.org/2000/svg" enable-background="new 0 0 750 700" viewBox="0 0 750 700" id="MediaPlatform"><path fill="#a398e6" d="M165.242 634.93c-12.34 0-24.577-2.07-36.829-7.406-22.205-9.675-42.24-28.592-36.95-49.045l.484.125-.485-.125c3.073-11.883 13.584-19.898 23.75-27.649 6.743-5.141 13.717-10.46 18.643-16.918 14.254-18.712 9.355-43.8.018-61.039-7.739-14.275-19.167-26.735-30.218-38.784-3.827-4.172-7.783-8.486-11.532-12.815-18.515-21.389-32.985-45.196-41.843-68.849-9.902-26.443-12.952-52.403-9.064-77.158 4.075-25.95 17.343-50.878 37.36-70.194 20.824-20.096 47.08-31.924 73.933-33.306 30.112-1.544 59.313 9.138 83.889 19.796 5.42 2.35 10.905 4.821 16.21 7.21 20.483 9.222 41.663 18.76 64.092 23.696 32.287 7.116 62.477 2.648 82.827-12.26 12.202-8.94 20.765-21.448 29.047-33.545 7.687-11.228 15.635-22.838 26.517-31.702 14.856-12.093 34.606-18.48 57.13-18.48.162 0 .321 0 .483.002 20.796.084 42.489 5.675 61.081 15.741 37.053 20.077 63.427 53.996 86.696 83.922 9.855 12.658 20.046 25.749 25.78 40.815 6.415 16.82 5.676 33.683-2.027 46.263-4.958 8.093-12.674 14.41-20.137 20.52-7.637 6.252-15.532 12.717-20.358 21.034-9.505 16.408-5.113 36.347.246 50.184 2.536 6.564 5.657 13.065 8.674 19.352 4.502 9.377 9.157 19.073 11.974 29.185 5.057 18.15 4.088 38.123-2.803 57.757-6.5 18.519-17.879 35.935-32.908 50.365-25.97 24.947-63.352 43.32-111.106 54.612-43.783 10.347-87.973 5.116-130.71.055-33.67-3.984-68.48-8.107-103.541-4.845-18.926 1.76-37.496 6.876-55.456 11.823-21.54 5.934-42.338 11.661-62.867 11.662zm-6.836-462.313c-1.945 0-3.892.047-5.846.148C99.287 175.507 50.814 220.6 42.204 275.421c-7.322 46.617 11.149 99.54 50.675 145.199 3.74 4.318 7.692 8.626 11.513 12.793 11.093 12.094 22.562 24.6 30.36 38.984 9.486 17.514 14.442 43.03-.102 62.12-5.007 6.567-12.036 11.927-18.832 17.11-10.492 7.998-20.402 15.554-23.387 27.102-5.144 19.883 14.566 38.373 36.382 47.879 32.31 14.072 64.72 5.148 99.031-4.305 18-4.959 36.614-10.086 55.629-11.855 35.162-3.27 70.03.857 103.75 4.85 42.65 5.047 86.755 10.27 130.362-.037 47.578-11.25 84.804-29.54 110.644-54.36C660 530.396 673.58 489.345 663.67 453.769c-2.794-10.026-7.43-19.683-11.912-29.02-3.026-6.305-6.155-12.825-8.706-19.423-5.438-14.041-9.882-34.296-.178-51.048 4.916-8.474 12.884-14.997 20.59-21.306 7.398-6.057 15.047-12.32 19.916-20.268 7.541-12.314 8.25-28.856 1.947-45.385-5.681-14.926-15.826-27.956-25.635-40.557-23.21-29.849-49.515-63.68-86.383-83.657-33.074-17.906-83.98-24.72-117.587 2.634-10.769 8.772-18.676 20.322-26.322 31.49-8.33 12.167-16.943 24.747-29.282 33.788-20.583 15.08-51.067 19.607-83.632 12.43-22.53-4.958-43.76-14.518-64.289-23.761-5.301-2.388-10.784-4.857-16.198-7.204-22.87-9.92-49.746-19.864-77.593-19.864z" class="color98b1e6 svgShape"></path><path fill="#a398e6" d="M308.83 609.662c-.375 6.27-.427 12.564-.283 18.794.068 3.118.234 6.22.44 9.294.126 1.662.273 3.375.444 5.032h-6.007c-.082-4.949.077-9.672.341-14.509.392-6.525.991-12.987 1.912-19.332.922-6.337 1.994-12.603 3.41-18.68 1.33-6.116 3.021-12.014 4.783-17.805-1.27 6.1-2.444 12.214-3.244 18.45-.888 6.198-1.417 12.49-1.795 18.756zM296.326 642.782l.09-.754c.171-1.642.322-3.311.42-4.996.2-3.367.294-6.798.209-10.237-.086-3.436-.256-6.91-.627-10.353-.322-3.465-.853-6.883-1.442-10.314 1.081 3.123 2.128 6.325 2.98 9.668.9 3.322 1.612 6.77 2.243 10.278.63 3.513 1.082 7.112 1.419 10.775.168 1.994.306 3.929.384 5.933h-5.676zM316.075 626.795c-.084 3.44.01 6.87.21 10.237.097 1.685.248 3.354.42 4.996.028.247.06.501.09.754h-5.677c.078-2.004.216-3.94.384-5.933.337-3.663.79-7.262 1.42-10.775.63-3.509 1.342-6.956 2.242-10.278.852-3.343 1.9-6.545 2.98-9.668-.589 3.43-1.12 6.85-1.442 10.314-.37 3.443-.54 6.917-.627 10.353z" class="color98b1e6 svgShape"></path><path fill="#2604fb" d="M176.651 604.221c-1.588-3.273-3.718-6.123-6.074-8.83-2.392-2.663-5.072-5.116-8.056-7.259-3.007-2.105-6.309-3.988-9.973-5.143-3.684-1.068-7.714-1.564-11.628-.745a4.384 4.384 0 0 0-.477 8.455l.535.176c2.859.939 5.548 1.53 8.343 2.436 2.767.955 5.66 1.843 8.57 3.022 5.796 2.423 11.626 5.524 17.766 8.799l.031.017a.703.703 0 0 0 .963-.928zM186.617 604.221c1.589-3.273 3.718-6.123 6.074-8.83 2.392-2.663 5.073-5.116 8.057-7.259 3.006-2.105 6.308-3.988 9.973-5.143 3.684-1.068 7.714-1.564 11.628-.745a4.384 4.384 0 0 1 .477 8.455l-.536.176c-2.858.939-5.547 1.53-8.343 2.436-2.766.955-5.66 1.843-8.57 3.022-5.796 2.423-11.625 5.524-17.766 8.799l-.03.017a.703.703 0 0 1-.964-.928z" class="colorfbbc04 svgShape"></path><path fill="#6358a6" d="M181.602 607.749c-.064-5.885-1.212-11.525-2.79-17.112-1.662-5.546-3.891-10.984-6.777-16.179-2.945-5.155-6.476-10.188-11.04-14.408-4.652-4.104-10.206-7.611-16.497-9.115a7.092 7.092 0 0 0-6.534 12.04l.663.627c3.534 3.347 7.06 6.068 10.524 9.323 3.388 3.305 7.008 6.601 10.452 10.335 6.806 7.545 13.194 16.105 19.917 25.135l.033.045a1.138 1.138 0 0 0 2.05-.691zM185.247 606.973c.067-6.12 1.261-11.987 2.903-17.8 1.728-5.769 4.047-11.425 7.05-16.829 3.063-5.362 6.736-10.598 11.483-14.987 4.84-4.27 10.617-7.917 17.16-9.482a7.377 7.377 0 0 1 6.797 12.525l-.69.652c-3.675 3.48-7.343 6.311-10.946 9.697-3.525 3.439-7.29 6.867-10.873 10.751-7.08 7.849-13.725 16.752-20.718 26.145l-.034.048a1.184 1.184 0 0 1-2.132-.72z" class="color58a65f svgShape"></path><path fill="#2604fb" d="M183.162 608.503c4.113-7.655 6.651-15.766 8.596-24.116 1.807-8.356 2.803-16.977 2.776-25.752-.131-8.767-1.108-17.793-3.999-26.504-3.088-8.624-7.768-17.12-14.83-23.551-4.276-3.894-10.9-3.585-14.794.692a10.466 10.466 0 0 0-2.241 10.216l.41 1.283c2.182 6.848 4.8 12.88 6.958 19.56 2.024 6.69 4.353 13.534 6.144 20.818 3.419 14.61 5.574 30.233 7.827 46.704l.01.083a1.68 1.68 0 0 0 1.891 1.436 1.697 1.697 0 0 0 1.252-.87z" class="colorfbbc04 svgShape"></path><path fill="#d9d4f6" d="M148.522 603.091v10.407c0 1.023.845 1.868 1.867 1.868h63.508a1.879 1.879 0 0 0 1.868-1.868v-10.407a1.879 1.879 0 0 0-1.868-1.868H150.39a1.879 1.879 0 0 0-1.867 1.868zM154.643 615.367l9.138 32.697h36.73l8.064-28.883 1.073-3.814z" class="colord4e3f6 svgShape"></path><path fill="#b8aefa" d="m154.643 615.367 9.138 32.697h4.536c-2.104-9.577-3.638-19.329-5.851-28.883h46.109l1.073-3.814h-55.005z" class="coloraecbfa svgShape"></path><path fill="#d9d4f6" d="M664.504 186.433c-2.646-35.871-2.18-53.809-9.828-88.126C652.838 90.081 646.3 83.692 638 82.27c-58.924-10.124-89.016-9.902-149.496-.118-8.894 1.453-15.846 8.553-17.091 17.477-8.554 60.806-8.346 90.141-.149 147.45 1.305 9.175 8.48 16.438 17.64 17.713 48.513 6.73 85.634 5.56 131.644.981a16.995 16.995 0 0 1 16.082 7.898l27.888 44.56V189.36l-.014-2.928z" class="colord4e3f6 svgShape"></path><path fill="#4d34ea" d="M461.02 202.68s47.953 39.326 66.555 36.061c16.21-2.843 44.932-48.117 44.932-48.117l-16.403-29.532s-20.026 8.09-39.117 38.512l-44.71-25.153c-7.66-3.95-20.088 21.18-11.257 28.23z" class="colorea4234 svgShape"></path><path fill="#3118d3" d="M539.265 187.038a43.692 43.692 0 0 0 1.617-1.885h1.085c-2.535 11.42-2.96 28.975-2.48 46.627-4.28 3.723-8.39 6.344-11.912 6.962-1.06.185-2.221.227-3.46.151 1.145-20.617 11.109-36.612 15.15-51.855z" class="colord32118 svgShape"></path><path fill="#1e00dd" d="M552.27 163.906s-4.262-9.011 1.584-11.149c5.846-2.137 25.538-2.946 25.684-2.936.145.01 2.26 8.34 2.26 8.34l-24.118 11.472-5.34-1.727-.07-4z" class="colordd8800 svgShape"></path><path fill="#d9d4f6" d="M556.032 163.505c-14.564 8.426-18.155 71.932-17.263 105.727 17.814.636 34.953.191 52.861-1.008l-9.197-108.688s-16.502-1.758-26.4 3.969z" class="colord4e3f6 svgShape"></path><path fill="#d5cfff" d="m557.241 134.054 6.035 14.145h.005l.113.357 2.029 11.69c1.76 7.65 20.986 9.273 29.312-4.805l-6.786-37.792-30.708 16.405z" class="colorffd4cf svgShape"></path><path fill="#4d34ea" d="M626.262 200.005c.734-17.086-1.274-35.59-11.958-42.583-1.162-.754-2.294-1.366-3.568-1.58-8.594-1.417-25.915-1.234-34.335 5.29-9.512 7.362-12.897 49.985-11.918 85.85.214 7.963.648 15.587 1.276 22.42 17.697-.387 35.458-1.706 54.789-3.63 2.572-.256 5.11.092 7.453.94l-6.286-32.535s3.772-16.311 4.547-34.172z" class="colorea4234 svgShape"></path><path fill="#3118d3" d="m564.335 231.83 23.46-.706c.643-35.91 13.617-53.178 13.617-53.178l12.425 3.624a19.68 19.68 0 0 1 12.552 11.086 139.9 139.9 0 0 1-.127 7.349c-.775 17.86-4.547 34.172-4.547 34.172l1.756 11.32c-1.561 6.285-3.636 11.27-6.401 13.677-8.336 7.256-29.695 2.01-48.565.725-.434-5.676-3.851-6.588-4.022-12.918a442.707 442.707 0 0 1-.148-15.151z" class="colord32118 svgShape"></path><path fill="#2604fb" d="M576.374 160.75c8.759-4.785 29.884-4.656 37.93-3.325 1.194.197-2.265-9.162-2.265-9.162-4.692-4.107-29.127-2.032-34.152 1.845-4.923 3.8-1.639 10.387-1.513 10.642z" class="colorfbbc04 svgShape"></path><path fill="#4d34ea" d="M552.476 180.851c4.87-15 12.947-20.604 12.947-20.604-8.253-1.325-15.628 2.993-15.628 2.993-13.713 7.81-16.768 72.463-17.428 105.714 6.283.313 12.466.493 18.603.548-2.186-27.1-4.429-70.374 1.506-88.65z" class="colorea4234 svgShape"></path><path fill="#2604fb" d="m453.874 195.913 8.48 6.683c3.97 3.17 15.547-21.688 11.658-24.799l-7.503-6.436c-2.938-2.357-15.573 22.195-12.635 24.552z" class="colorfbbc04 svgShape"></path><path fill="#1e00dd" d="M454.883 194.405c1.122.88 5.852-2.408 8.78-8.224 2.927-5.816 2.943-11.96 1.821-12.84s-4.404 3.123-7.332 8.939c-2.927 5.816-4.39 11.245-3.269 12.125z" class="colordd8800 svgShape"></path><path fill="#3118d3" d="M564.41 226.216c4.228-1.11 7.638-2.193 10.687-3.424 3.073-1.24 5.265-4.013 5.822-7.28 4.153-24.373 13.666-34.367 17.108-37.566v42.057h22.777c-3.046 14.121-7.323 27.45-13.018 31.388-7.691 5.32-26.282 4.161-43.096 1.638a408.182 408.182 0 0 1-.207-6.048 442.824 442.824 0 0 1-.074-20.765z" class="colord32118 svgShape"></path><path fill="#4d34ea" d="m533.979 227.132 51.277-1.543c.643-35.91 13.617-53.178 13.617-53.178l12.425 3.624c8.55 2.494 14.368 10.413 14.17 19.318-.428 19.264-2.448 50.898-10.938 58.286-14.246 12.4-75.616 3.48-75.616 3.48-11.203-1.478-13.534-29.416-4.935-29.987z" class="colorea4234 svgShape"></path><path fill="#2604fb" d="m529.3 255.013 10.712 1.345c5.036.665 2.117-26.6-2.819-27.257l-9.749-1.638c-3.733-.502-1.878 27.048 1.856 27.55z" class="colorfbbc04 svgShape"></path><path fill="#1e00dd" d="M529.385 253.2c1.415.174 3.769-5.083 3.273-11.575-.496-6.493-3.654-11.762-5.069-11.936-1.415-.175-2.16 4.947-1.664 11.44.496 6.492 2.045 11.897 3.46 12.071z" class="colordd8800 svgShape"></path><path fill="#d5cfff" d="M526.985 231.335c2.343-.128 6.049 17.343 1.958 19.474 0 0-19.506 10.752-22.215 5.821-1.555-2.833-.412-3.916.834-4.326-1.652.031-3.92-.366-4.95-2.622-1.012-2.229.76-2.43 2.19-2.574-1.295-.103-3.863-.48-4.454-2.482-.876-2.967.41-3.927 2.189-4.506-4.635.466-19.21.047-20.042-3.358-1.837-7.46 25.756-4.265 26.522-4.122 0 0-9.242-6.736-5.463-8.356 4.753-2.036 23.431 7.051 23.431 7.051z" class="colorffd4cf svgShape"></path><path fill="#bcb3f8" d="M518.66 255.645a53.569 53.569 0 0 1-4.264 1.354c-1.436.373-2.903.695-4.369.71-.724.003-1.465-.06-2.093-.345-.653-.275-.997-.822-1.279-1.516-.277-.654-.47-1.37-.326-1.991.136-.622.686-1.035 1.338-1.234a.334.334 0 0 0-.1-.654h-.011c-.829.006-1.657-.105-2.402-.397a3.782 3.782 0 0 1-1.82-1.427c-.407-.616-.77-1.54-.5-1.96.257-.443 1.2-.566 2.012-.638a.44.44 0 0 0 0-.878h-.009c-.897-.079-1.79-.24-2.56-.602-.777-.36-1.349-.932-1.527-1.739-.224-.843-.334-1.749 0-2.414.32-.667 1.091-1.065 1.937-1.33a.487.487 0 0 0-.187-.95h-.012c-2.029.178-4.112.15-6.174.102a64.13 64.13 0 0 1-6.175-.442c-2.024-.274-4.11-.6-5.89-1.43-.43-.213-.847-.471-1.1-.79-.116-.17-.204-.301-.233-.514-.01-.215-.1-.442-.042-.646.047-.852.752-1.543 1.62-1.987.858-.467 1.843-.758 2.834-.984a26.204 26.204 0 0 1 3.037-.5c2.05-.233 4.124-.319 6.198-.332 4.15-.042 8.31.155 12.454.529-4.119-.617-8.28-.953-12.451-1.066-2.087-.039-4.18-.005-6.27.179a26.92 26.92 0 0 0-3.131.436c-1.038.211-2.08.483-3.068.987-.248.119-.481.287-.72.433-.226.174-.447.37-.653.576-.168.25-.399.457-.494.76l-.174.432-.061.46c-.068.313.026.602.05.902.04.307.214.642.402.891.4.5.903.791 1.394 1.046 2 .944 4.097 1.264 6.174 1.57 4.174.522 8.35.704 12.57.359l-.2-.949c-.896.294-1.974.778-2.492 1.844-.489 1.058-.281 2.141-.04 3.072.123.487.386 1.026.758 1.413.37.399.82.69 1.283.903.932.425 1.914.582 2.873.66l-.009-.879c-.43.046-.878.093-1.34.212-.444.116-1 .325-1.329.87-.307.564-.199 1.155-.05 1.594.16.45.361.872.639 1.255a4.555 4.555 0 0 0 2.218 1.66c.87.314 1.783.406 2.673.38l-.111-.654c-.753.234-1.562.845-1.728 1.735-.165.86.104 1.651.414 2.351.167.354.32.686.597 1.028.265.33.625.559.995.72.756.303 1.545.326 2.303.296 1.526-.08 2.987-.468 4.419-.902 1.432-.44 2.826-.987 4.201-1.57z" class="colorf8b7b3 svgShape"></path><path fill="#d5cfff" d="M432.153 179.611c-2.295-.07-6.407-.748-4.842-5.738.54-1.695 1.765-1.66 2.678-1.356-1.26-.739-3.052-2.208-2.182-4.364.982-2.434 2.512-2.877 3.799-2.73-1.548-.573-3.06-2.686-.965-5.042 3.39-3.807 20.985 5.538 21.611 5.868l.965-10.545c5.616-3.65 9.093 14.475 9.093 14.475l3.86 6.42c.003 7.436-2.835 12.691-7.77 16.368l-7.07-1.281s-18.977-.279-23.697-6.937c-3.625-5.095 2.051-4.947 4.52-5.138z" class="colorffd4cf svgShape"></path><path fill="#d5cfff" d="M452.97 152.775c3.31 1.909 5.005 6.29 5.005 6.29l-7.33 14.156-5.035-14.027c-1.613-4.492 3.224-8.802 7.36-6.419z" class="colorffd4cf svgShape"></path><linearGradient id="a" x1="3152.783" x2="3176.201" y1="34.289" y2="34.289" gradientTransform="matrix(-.99357 .11321 .11322 .99357 3690.009 -304.351)" gradientUnits="userSpaceOnUse"><stop offset="0" stop-color="#1a1923" class="stopColor191923 svgShape"></stop><stop offset="1" stop-color="#0d0c14" class="stopColor0c0c14 svgShape"></stop></linearGradient><path fill="url(#a)" d="M538.54 82.116c-.738 4.835-.596 10.009 1.05 14.718s4.924 8.89 9.065 10.617c4.142 1.726 9.077.638 11.676-3.136 2.397-3.478 2.525-8.574 1.315-13.02s-3.584-8.407-5.92-12.284c-1.61-2.67-3.245-5.373-5.376-7.515-1.832-1.841-6.576-5.452-8.144-2.247-1.838 3.76-3.01 8.575-3.665 12.867z"></path><path fill="#d5cfff" d="M597.75 120.371s-13.221 27.124-36.466 20.323c-16.503-4.828-18.093-34.937-13.23-53.612 1.996-7.63 5.056-13.35 8.624-14.661 5.312-1.953 28.194-7.758 29.33-6.343 1.136 1.415 9.797 35.165 9.797 35.165s5.863-5.42 9.579-3.672c1.038.486 1.908 1.539 2.436 3.427 3.671 13.218-10.07 19.373-10.07 19.373z" class="colorffd4cf svgShape"></path><linearGradient id="b" x1="3099.728" x2="3171.464" y1="31.166" y2="31.166" gradientTransform="matrix(-.99357 .11321 .11322 .99357 3690.009 -304.351)" gradientUnits="userSpaceOnUse"><stop offset="0" stop-color="#1a1923" class="stopColor191923 svgShape"></stop><stop offset="1" stop-color="#0d0c14" class="stopColor0c0c14 svgShape"></stop></linearGradient><path fill="url(#b)" d="M544.86 82.296c.925 1.833 1.994 3.423 3.191 4.79 12.596 14.273 39.088 4.37 39.088 4.37l.82 19.355 4.004-.864 3.845-8.709s5.86-5.414 9.574-3.663c.317-.96.819-1.96 1.426-2.989 4.433-7.525 14.494-17.015-2.305-29.132-13.019-9.396-26.594.258-26.949.562-.003-.109.706-2.636.902-5.52.255-3.653-.29-7.876-4.078-8.44-6.986-1.052-8.297 5.166-11.548 5.256-3.251.09-5.314 4.963-11.364 2.582-6.032-2.375-17.085 1.348-6.606 22.402z"></path><linearGradient id="c" x1="3161.764" x2="3165.609" y1="55.451" y2="55.451" gradientTransform="matrix(-.99357 .11321 .11322 .99357 3690.009 -304.351)" gradientUnits="userSpaceOnUse"><stop offset="0" stop-color="#1a1923" class="stopColor191923 svgShape"></stop><stop offset="1" stop-color="#0d0c14" class="stopColor0c0c14 svgShape"></stop></linearGradient><path fill="url(#c)" d="M551.078 108.486c-.197 1.634.473 3.145 1.5 3.381 1.025.236 2.014-.895 2.21-2.528.196-1.624-.475-3.136-1.5-3.371-1.027-.236-2.015.894-2.21 2.518z"></path><linearGradient id="d" x1="3157.222" x2="3166.919" y1="48.407" y2="48.407" gradientTransform="matrix(-.99357 .11321 .11322 .99357 3690.009 -304.351)" gradientUnits="userSpaceOnUse"><stop offset="0" stop-color="#1a1923" class="stopColor191923 svgShape"></stop><stop offset="1" stop-color="#0d0c14" class="stopColor0c0c14 svgShape"></stop></linearGradient><path fill="url(#d)" d="M558.003 103.029a.762.762 0 0 0 .51-1.228c-2.02-2.567-5.382-2.541-9.227.07a.762.762 0 0 0 .856 1.26c2.223-1.51 5.274-2.804 7.176-.388a.76.76 0 0 0 .685.286z"></path><linearGradient id="e" x1="3144.392" x2="3148.237" y1="57.815" y2="57.815" gradientTransform="matrix(-.99357 .11321 .11322 .99357 3690.009 -304.351)" gradientUnits="userSpaceOnUse"><stop offset="0" stop-color="#1a1923" class="stopColor191923 svgShape"></stop><stop offset="1" stop-color="#0d0c14" class="stopColor0c0c14 svgShape"></stop></linearGradient><path fill="url(#e)" d="M568.605 108.867c-.196 1.634.474 3.146 1.5 3.382 1.026.235 2.015-.895 2.211-2.529.196-1.623-.475-3.135-1.5-3.371-1.027-.236-2.015.895-2.21 2.518z"></path><linearGradient id="f" x1="3140.085" x2="3150.246" y1="51.766" y2="51.766" gradientTransform="matrix(-.99357 .11321 .11322 .99357 3690.009 -304.351)" gradientUnits="userSpaceOnUse"><stop offset="0" stop-color="#1a1923" class="stopColor191923 svgShape"></stop><stop offset="1" stop-color="#0d0c14" class="stopColor0c0c14 svgShape"></stop></linearGradient><path fill="url(#f)" d="M575.548 105.643a.76.76 0 0 0 .513-1.224c-2.77-3.552-6.292-4.793-9.92-3.495a.762.762 0 1 0 .513 1.434c2.962-1.061 5.874.006 8.207 2.997a.76.76 0 0 0 .687.288z"></path><path fill="#bcb3f8" d="M563.53 109.027c0 .932-.21 1.822-.432 2.684-.226.857-.517 1.69-.908 2.39-.204.346-.413.662-.659.9-.121.118-.246.22-.376.293-.063.042-.13.07-.194.1l-.317.161c-.9.465-1.775 1.073-2.46 1.931-.688.833-1.187 1.95-1.16 3.143.008 1.186.625 2.405 1.625 3.027.98.666 2.154.713 3.132.512a6.044 6.044 0 0 0 2.56-1.335c-.91.246-1.808.415-2.653.374-.839-.042-1.607-.31-2.104-.785-.487-.48-.73-1.112-.67-1.77.064-.652.35-1.315.84-1.887.47-.583 1.118-1.072 1.825-1.49l.288-.17a3.772 3.772 0 0 0 1.032-.9c.359-.457.627-.94.79-1.436.353-.985.458-1.973.443-2.94-.051-.959-.13-1.95-.601-2.802zM565.902 133.776l.064-.007c2.126-.26 4.803-2.056 6.064-3.571a.762.762 0 0 0-1.17-.974c-1.059 1.27-3.403 2.828-5.078 3.033-1.17.15-2.056-.089-2.43-.637a.76.76 0 1 0-1.257.858c.41.603 1.45 1.567 3.807 1.298zM595.574 107.577c.73-1.39 1.452-2.843 2.642-3.833 1.127-.976 2.847-1.447 4.114-.735 1.25.729 1.792 2.322 1.872 3.803.095 1.508-.262 3.039-.978 4.367-.69 1.328-1.768 2.516-3.075 3.195-.654.322-1.404.493-2.049.305-.647-.184-1.111-.759-1.25-1.459-.151-.704-.005-1.449.351-2.11.348-.668.866-1.255 1.398-1.83.516-.561 1.058-1.255 1.817-1.156.35.034.722.31.69.677-.023.342-.447.736-.811.499.344.276.853-.073.925-.482.073-.466-.363-.822-.769-.893-.426-.1-.873.066-1.208.3-.345.236-.624.525-.912.794-.566.554-1.132 1.14-1.55 1.859-.424.705-.656 1.59-.508 2.449.072.426.23.858.515 1.218.28.365.687.625 1.12.763.89.266 1.787.043 2.54-.309 1.51-.762 2.663-2.018 3.449-3.465.759-1.46 1.122-3.127.995-4.77-.066-.82-.234-1.64-.588-2.405-.346-.758-.913-1.474-1.7-1.865-.784-.4-1.694-.425-2.495-.216a4.912 4.912 0 0 0-2.142 1.19c-1.174 1.153-1.816 2.65-2.393 4.11z" class="colorf8b7b3 svgShape"></path><linearGradient id="g" x1="-4914.001" x2="-4871.141" y1="408.913" y2="408.913" gradientTransform="matrix(-.99736 .07257 .07258 .99736 -4472.605 113.266)" gradientUnits="userSpaceOnUse"><stop offset="0" stop-color="#3b355e" class="stopColor353b5e svgShape"></stop><stop offset="1" stop-color="#2c2651" class="stopColor262c51 svgShape"></stop></linearGradient><path fill="url(#g)" d="m428.49 196.906 26.843 2.99c3.037.339 5.521-2.38 4.91-5.374l-11.375-55.786a4.503 4.503 0 0 0-3.914-3.576l-26.842-2.99c-3.037-.339-5.521 2.38-4.91 5.375l11.375 55.786a4.503 4.503 0 0 0 3.913 3.575z"></path><linearGradient id="h" x1="-4914.004" x2="-4897.284" y1="410.889" y2="410.889" gradientTransform="matrix(-.99736 .07257 .07258 .99736 -4472.605 113.266)" gradientUnits="userSpaceOnUse"><stop offset="0" stop-color="#3b355e" class="stopColor353b5e svgShape"></stop><stop offset=".993" stop-color="#191438" class="stopColor141b38 svgShape"></stop></linearGradient><path fill="url(#h)" d="M439.155 134.518a4.51 4.51 0 0 1 3.915 3.57l11.375 55.785c.609 3-1.873 5.721-4.913 5.383l5.802.646c3.04.339 5.522-2.383 4.913-5.383l-11.375-55.785a4.51 4.51 0 0 0-3.915-3.57l-5.802-.646z"></path><path fill="#d5cfff" d="m412.328 151.097 3.437 27.755c2.587 4.045 10.263 7.68 14.129 2.632 1.772-2.311-.047-4.23-2.543-5.648 3.524.89 9.345-2.027 9.199-5.556-.085-1.994-1.562-3.084-3.623-3.628 2.388-.485 4.23-1.283 4.571-2.544.711-2.667-7.678-6.43-13.931-6.418 2.657-.515 5.128-1.8 5.028-4.83-.219-6.46-16.564-5.844-16.267-1.763z" class="colorffd4cf svgShape"></path><path fill="#b8aefa" d="M268.584 351.797a16.995 16.995 0 0 1-7.897-16.081c4.579-46.01 5.75-83.132-.981-131.644-1.275-9.16-8.538-16.336-17.714-17.64-57.308-8.197-86.643-8.405-147.45.149-8.923 1.245-16.024 8.197-17.476 17.091-9.784 60.48-10.007 90.572.118 149.495 1.423 8.3 7.812 14.838 16.038 16.677 34.317 7.648 52.255 7.181 88.126 9.827l2.928.015h128.868l-44.56-27.889z" class="coloraecbfa svgShape"></path><path fill="#d5cfff" d="m201.614 293.64 1.869 2.936 4.084 6.408s13.58 25.55 18.866 33.594c4.512 6.852 20.45 8.276 27.027 3.373l15.022-17.478 41.64-48.447-13.296-27.863-43.89 43.24-5.358-8.106-6.852-8.802-7.778 4.21h-.01l-22.701 12.271-1.38.748-7.243 3.916z" class="colorffd4cf svgShape"></path><linearGradient id="i" x1="-2009.194" x2="-1944.194" y1="307.675" y2="307.675" gradientTransform="matrix(-1 0 0 1 -1740.712 0)" gradientUnits="userSpaceOnUse"><stop offset="0" stop-color="#d5cfff" class="stopColorffd4cf svgShape"></stop><stop offset="1" stop-color="#bcb3f8" class="stopColorf8b7b3 svgShape"></stop></linearGradient><path fill="url(#i)" d="m203.483 296.576 4.084 6.408s13.58 25.55 18.866 33.594c4.512 6.852 20.45 8.276 27.027 3.373l15.022-17.478c-7.217-1.629-13.705-6.577-17.878-12.806-2.234-3.346-3.898-7.048-5.09-10.884-1.069-3.444-1.754-6.994-2.172-10.572a8.997 8.997 0 0 1-.004-.031c-.246-2.129.712-4.219 2.413-5.522a91.219 91.219 0 0 1 1.827-1.361l-6.852-8.802-7.778 4.21h-.01c-2.847-.259-5.766.124-8.089.89-6.087 2.01-11.008 6.514-15.27 11.301-.24.276-.49.552-.721.828a80.236 80.236 0 0 0-5.375 6.852z"></path><path fill="#2604fb" d="m206.267 239.867 3.177 26.333 4.796 39.841 14.292-14.158 16.134-15.983c-17.584-22.052-38.4-36.033-38.4-36.033z" class="colorfbbc04 svgShape"></path><path fill="#2303f2" d="m209.444 266.2 4.796 39.841 14.292-14.158c-1.833-1.61-3.462-3.435-4.796-5.535-2.821-4.414-4.032-9.558-5.002-14.64-.516-2.731-.382-10.919-4.2-10.776-2.643.107-4.13 2.607-5.09 5.268z" class="colorf29c03 svgShape"></path><path d="M72.517 275.99c6.161-8.673 19.922-11.033 23.132-21.173 2.477-7.815-2.88-16.399-.84-24.339.938-3.64 3.46-6.831 6.786-8.584 3.157-1.663 6.832-2.012 10.194-3.21 5.141-1.842 9.487-5.785 11.83-10.712 1.117-2.36 1.788-4.909 2.95-7.243 4.095-8.226 28.545-25.093 37.174-22.179 3.362 8.736 8.787 23.763 10.611 32.946 1.842 9.2-3.652 32.531-6.54 41.455-3.031 9.344-19.383 10.137-24.56 18.488a129.635 129.635 0 0 0-12.08 25.153c-.814 2.307-1.583 4.677-2.995 6.67-1.458 2.066-3.532 3.613-5.696 4.919-11.419 6.876-26.494 7.206-38.199.822-5.803-3.165-10.855-7.994-13.376-14.1-2.513-6.099-2.209-13.52 1.61-18.912z" fill="#000000" class="color000000 svgShape"></path><path fill="#2604fb" d="M208.124 241.139c-15.356-13.02-61.158-12.242-76.016 1.341-16.431 15.02-11.269 106.312-9.412 132.636 18.411 2.399 34.453 2.77 58.652 4.555l2.928.015h33.66l3.343-.09c-.268-5.697-.845-128.02-13.155-138.457z" class="colorfbbc04 svgShape"></path><path fill="#2303f2" d="M158.86 281.605c.122 8.259.68 17.206 6.024 23.504 3.707 4.368 9.266 6.804 14.88 7.946 5.615 1.142 11.389 1.13 17.11 1.427a156.404 156.404 0 0 1 30.843 4.722c-2.888 5.752-7.755 10.487-13.584 13.216-5.887 2.757-12.523 3.453-19.022 3.58a120.109 120.109 0 0 1-42.564-6.935c-5.73-2.043-11.52-4.68-15.407-9.36-3.687-4.436-5.276-10.279-5.795-16.023-.896-9.924 1.35-20.032 6.02-28.806 2.408-4.524 5.464-8.708 9.079-12.343 1.308-1.316 3.778-4.4 5.743-4.544 2.492-.183 3.586 2.897 4.304 4.784 2.269 5.963 2.278 12.543 2.37 18.832z" class="colorf29c03 svgShape"></path><path fill="#d5cfff" d="M108.293 322.808c.365 11.373 9.709 20.655 21.358 20.655l90.45-.301-.184-26.739-73.678-6.012.49-5.242 1.37-14.852-31.325-14.915-.686-.33-.115.65-7.636 44.727c-.062.792-.08 1.584-.044 2.359z" class="colorffd4cf svgShape"></path><linearGradient id="j" x1="-1868.898" x2="-1868.898" y1="309.384" y2="293.716" gradientTransform="matrix(-1 0 0 1 -1740.712 0)" gradientUnits="userSpaceOnUse"><stop offset="0" stop-color="#d5cfff" class="stopColorffd4cf svgShape"></stop><stop offset="1" stop-color="#bcb3f8" class="stopColorf8b7b3 svgShape"></stop></linearGradient><path fill="url(#j)" d="M108.293 322.808c.676-1.068 1.344-2.145 2.073-3.169 4.441-6.149 11.338-10.234 18.626-12.325 5.616-1.62 11.284-1.94 17.078-2.127.222-.009.436-.009.658-.018l1.37-14.852-31.324-14.915c-.134.044-.258.098-.392.15-.133.054-.276.117-.41.17l-7.635 44.727c-.062.792-.08 1.584-.044 2.359z"></path><path fill="#2604fb" d="M106.69 295.122c-.24 6.247 45.369 10.857 45.61 4.61.026-.712 1.04-11.186 2.963-22.328 5.624-32.669-22.47-35.748-22.489-35.721 0 0-13.58 8.792-26.083 53.44z" class="colorfbbc04 svgShape"></path><path fill="#d5cfff" d="m183.119 236.865.669-6.256.127-1.225 1.976-18.478-8.135-4.199-2.87-1.48-5.13-2.65-8.21-2.96c1.022 8.668-2.002 22.674-4.74 33.297-2.042 7.93 25.167 5.247 26.313 3.951z" class="colorffd4cf svgShape"></path><linearGradient id="k" x1="-1912.008" x2="-1926.131" y1="205.348" y2="213.703" gradientTransform="matrix(-1 0 0 1 -1740.712 0)" gradientUnits="userSpaceOnUse"><stop offset="0" stop-color="#d5cfff" class="stopColorffd4cf svgShape"></stop><stop offset="1" stop-color="#bcb3f8" class="stopColorf8b7b3 svgShape"></stop></linearGradient><path fill="url(#k)" d="m184.657 223.326.128-1.224 1.975-18.478-8.134-4.2c-1.983 1.12-13.61-2.672-13.782.655-.473 9.127 13.457 22.331 19.813 23.247z"></path><path fill="#d5cfff" d="M162.021 200.722c1.508 1.854 3.115 3.854 4.844 5.833l.01.007c7.633 8.746 17.617 17.195 31.335 11.782 13.774-5.435 9.35-31.046 5.601-45.5-1.53-5.937-2.956-9.991-2.956-9.991l-17.45-2.65-22.236 6.555 3.72 23.166s-7.41-9.275-10.562-.248c-1.004 2.863-.781 9.926 7.694 11.046z" class="colorffd4cf svgShape"></path><linearGradient id="l" x1="-1952.707" x2="-1867.559" y1="181.649" y2="181.649" gradientTransform="matrix(-1 0 0 1 -1740.712 0)" gradientUnits="userSpaceOnUse"><stop offset="0" stop-color="#1a1923" class="stopColor191923 svgShape"></stop><stop offset="1" stop-color="#0d0c14" class="stopColor0c0c14 svgShape"></stop></linearGradient><path fill="url(#l)" d="m132.421 202.392-5.573 15.061c.509-1.948 27.142-26.813 27.48-27.778 3.149-9.025 10.56.249 10.56.249s3.504-.6 7.042-6.53c8.543-14.35 25.987-9.122 33.806-11.64 19.948-6.425-11.461-37.12-42.54-21.56-13.495 6.756-46.076 23.893-30.775 52.198z"></path><linearGradient id="m" x1="-1942.038" x2="-1938.477" y1="183.889" y2="183.889" gradientTransform="matrix(-1 0 0 1 -1740.712 0)" gradientUnits="userSpaceOnUse"><stop offset="0" stop-color="#1a1923" class="stopColor191923 svgShape"></stop><stop offset="1" stop-color="#0d0c14" class="stopColor0c0c14 svgShape"></stop></linearGradient><path fill="url(#m)" d="M201.302 183.509c.162 1.544-.492 2.96-1.463 3.168-.971.207-1.887-.873-2.05-2.417-.16-1.534.494-2.95 1.465-3.158.971-.208 1.887.873 2.048 2.407z"></path><linearGradient id="n" x1="-1944.052" x2="-1934.986" y1="176.978" y2="176.978" gradientTransform="matrix(-1 0 0 1 -1740.712 0)" gradientUnits="userSpaceOnUse"><stop offset="0" stop-color="#1a1923" class="stopColor191923 svgShape"></stop><stop offset="1" stop-color="#0d0c14" class="stopColor0c0c14 svgShape"></stop></linearGradient><path fill="url(#n)" d="M202.673 178.55a.667.667 0 0 0 .384-1.213c-3.562-2.501-6.71-2.577-8.633-.208a.667.667 0 1 0 1.036.842c1.852-2.282 4.736-1.01 6.83.458.116.082.25.121.383.121z"></path><linearGradient id="o" x1="-1926.349" x2="-1922.745" y1="188.091" y2="188.091" gradientTransform="matrix(-1 0 0 1 -1740.712 0)" gradientUnits="userSpaceOnUse"><stop offset="0" stop-color="#1a1923" class="stopColor191923 svgShape"></stop><stop offset="1" stop-color="#0d0c14" class="stopColor0c0c14 svgShape"></stop></linearGradient><path fill="url(#o)" d="M185.545 187.54c.314 1.52-.198 2.994-1.144 3.296-.945.303-1.963-.682-2.277-2.203-.311-1.51.2-2.984 1.146-3.286.946-.303 1.964.682 2.275 2.193z"></path><linearGradient id="p" x1="-1928.432" x2="-1918.832" y1="182.329" y2="182.329" gradientTransform="matrix(-1 0 0 1 -1740.712 0)" gradientUnits="userSpaceOnUse"><stop offset="0" stop-color="#1a1923" class="stopColor191923 svgShape"></stop><stop offset="1" stop-color="#0d0c14" class="stopColor0c0c14 svgShape"></stop></linearGradient><path fill="url(#p)" d="M178.788 185.005a.667.667 0 0 0 .56-.303c1.97-3.014 4.646-4.251 7.533-3.484a.666.666 0 1 0 .343-1.29c-3.488-.93-6.683.508-8.994 4.044a.667.667 0 0 0 .558 1.033z"></path><path fill="#bcb3f8" d="M190.492 186.103c-.22.888-.056 1.806.125 2.69.215.883.542 1.756 1.09 2.567a4.47 4.47 0 0 0 1.044 1.116 3.51 3.51 0 0 0 1.13.574l.304.09c.75.22 1.464.52 2.037.953.587.418 1.012.973 1.222 1.573a2.111 2.111 0 0 1-.23 1.822c-.359.557-1.015.975-1.78 1.2-.77.223-1.631.264-2.517.233a5.764 5.764 0 0 0 2.644.604c.934-.047 1.983-.364 2.713-1.188.756-.79 1.034-2.025.772-3.093-.249-1.08-.95-1.975-1.763-2.572-.813-.621-1.746-.975-2.669-1.194l-.326-.076c-.068-.013-.138-.025-.208-.05a1.842 1.842 0 0 1-.423-.19c-.284-.168-.552-.415-.818-.69-.52-.56-.972-1.262-1.368-2-.392-.743-.78-1.515-.979-2.369zM193.294 209.288c.22 0 .433-.012.637-.038 2.237-.278 2.968-1.394 3.205-2.035a.668.668 0 0 0-1.252-.463c-.132.357-.582.983-2.118 1.174-1.595.197-4.112-.696-5.378-1.62a.667.667 0 1 0-.788 1.077c1.34.98 3.77 1.905 5.694 1.905z" class="colorf8b7b3 svgShape"></path><path fill="#ffffff" d="m158.323 226.283-9.236 8.261 23.003 17.424 5.216-13.958z" class="colorffffff svgShape"></path><path fill="#ffffff" d="m177.306 238.01 6.89 12.426 6.29-16.792-6.65-5.927z" class="colorffffff svgShape"></path><path fill="#d5cfff" d="M260.141 323.005c-.102-2.646-4.648-1.96-8.002-1.8 1.508-.547 5.652-1.214 4.123-4.825-1.52-3.555-22.497-1.014-22.497-1.014l-6.975.306-6.873.751.183 26.739s30.476 1.929 32.203-3.562c.965-3.095-.802-4.31-2.952-4.81 3.38-.059 7.128-.983 7.11-4.752-.001-1.758-1.655-2.228-2.943-2.317 2.37-.154 6.784-.931 6.623-4.716z" class="colorffd4cf svgShape"></path><path fill="#bcb3f8" d="M252.552 314.78c.957.158 1.93.351 2.789.797.42.225.82.543.927 1.02.073.229.165.453.187.692.055.234.057.47.041.706a2.221 2.221 0 0 1-.535 1.267c-.316.347-.714.614-1.136.833-.858.433-1.796.65-2.74.952a.165.165 0 0 0 .055.323h.01c1.632-.055 3.261-.211 4.86-.105.785.064 1.604.182 2.208.58.303.197.482.487.582.807.079.33.016.722-.007 1.097-.14.735-.489 1.408-1.047 1.913-.574.488-1.272.832-2.008 1.085-1.486.466-3.117.618-4.676.555l.037.886h.001c1.152-.13 2.5-.08 3.37.546.433.31.616.81.622 1.374a4.158 4.158 0 0 1-.344 1.707c-.477 1.074-1.565 1.764-2.715 2.161-1.17.39-2.43.542-3.686.585h-.006a.226.226 0 0 0-.041.446c.624.139 1.235.34 1.774.66.524.328.977.788 1.172 1.378.209.581.206 1.234.085 1.861-.067.309-.134.642-.26.91-.147.268-.34.521-.589.721-.99.818-2.284 1.223-3.534 1.57-1.268.335-2.564.561-3.863.75 1.304-.151 2.607-.34 3.89-.64 1.27-.317 2.577-.674 3.653-1.507a2.61 2.61 0 0 0 .669-.778c.161-.324.228-.642.31-.97.146-.653.177-1.36-.041-2.028-.202-.676-.71-1.225-1.282-1.602-.583-.37-1.23-.6-1.882-.765l-.047.446c1.286-.008 2.588-.122 3.851-.503 1.234-.386 2.522-1.119 3.146-2.402a4.853 4.853 0 0 0 .465-1.993c.033-.697-.242-1.533-.86-1.99-.59-.469-1.286-.665-1.953-.773a8.192 8.192 0 0 0-2.022-.047h-.001l-.018.003a.443.443 0 0 0 .054.883c1.694.017 3.354-.183 4.966-.735.796-.298 1.57-.701 2.226-1.294.646-.613 1.057-1.456 1.188-2.324.018-.438.081-.862-.04-1.335-.142-.454-.443-.87-.84-1.11-.789-.477-1.657-.548-2.48-.599-1.66-.062-3.284.143-4.904.243l.065.323c.898-.317 1.868-.57 2.743-1.043.434-.241.848-.535 1.179-.92.328-.39.51-.89.542-1.39.01-.253 0-.502-.064-.745-.03-.249-.131-.476-.213-.709-.128-.5-.576-.84-1.005-1.05-.89-.429-1.866-.591-2.828-.722z" class="colorf8b7b3 svgShape"></path><path fill="#bcb3f8" d="M252.474 320.849a92.917 92.917 0 0 0-4.12.165l-4.11.284-4.104.374a172.9 172.9 0 0 0-4.106.447c1.378.12 2.757.143 4.135.15 1.379.007 2.754-.048 4.13-.082 1.374-.081 2.749-.14 4.12-.257 1.37-.114 2.74-.241 4.105-.438a.323.323 0 0 0-.05-.643zM252.173 327.467a93.292 93.292 0 0 0-4.12.165l-4.11.284-4.104.373c-1.368.138-2.735.277-4.106.448 1.378.119 2.757.142 4.135.15 1.378.007 2.754-.048 4.13-.082 1.374-.081 2.749-.141 4.12-.257 1.37-.114 2.74-.241 4.105-.438a.323.323 0 0 0-.05-.643zM249.687 334.516a92.92 92.92 0 0 0-4.12.165l-4.11.284-4.104.373c-1.367.138-2.735.277-4.106.448 1.378.119 2.757.143 4.135.15 1.379.007 2.754-.048 4.13-.083 1.374-.08 2.749-.14 4.12-.255 1.37-.115 2.74-.242 4.105-.44a.323.323 0 0 0-.05-.642z" class="colorf8b7b3 svgShape"></path><path fill="#d5cfff" d="M219.917 316.423s11.522-17.053 13.983-10.982-11.489 17.617-11.489 17.617" class="colorffd4cf svgShape"></path><path fill="#b8aefa" d="m320.534 280.967-26.842 2.99c-3.037.34-5.522-2.38-4.911-5.374l11.375-55.786a4.503 4.503 0 0 1 3.914-3.576l26.843-2.99c3.036-.339 5.52 2.381 4.91 5.375l-11.375 55.786a4.503 4.503 0 0 1-3.914 3.575z" class="coloraecbfa svgShape"></path><path fill="#d5cfff" d="M334.835 259.808c-.936 2.733-3.172 4.39-5.342 3.992-6.197-1.136-12.896-3.194-12.587-6.77.326-3.714 1.828-4.772 3.356-4.941-2.146-.698-4.262-2.454-3.101-6.754.537-2.007 1.739-2.235 2.59-2.096-1.47-.618-4.057-2.33-2.8-6.622.872-3.002 3.498-1.224 5.596-.415-.798-.905-3.173-2.588-1.093-6.425 1.475-2.708 8.3-.108 12.041 1.579 1.531.69 2.579 2.44 2.75 4.576.664 8.33 1.062 16.664-1.41 23.876z" class="colorffd4cf svgShape"></path><path fill="#bcb3f8" d="M324.43 228.48c-.66.001-1.357.023-2.043.371-.34.177-.688.472-.91.99-.242.484-.582 1.367-.699 1.914-.262 1.121.013 2.097.432 2.718.415.66.953 1.078 1.463 1.601.045.046.047.155.005.244-.035.073-.089.11-.132.095l-.005-.002c-1.028-.369-2.022-.856-3.08-1.037-.522-.078-1.084-.092-1.596.252-.253.172-.47.456-.624.823a6.6 6.6 0 0 0-.336 1.26c-.158.877-.115 1.714.089 2.393.209.677.555 1.206.955 1.623.807.823 1.812 1.29 2.829 1.515l-.277.948c-.7-.36-1.582-.57-2.338-.003-.373.282-.655.817-.827 1.472-.185.681-.301 1.376-.303 2.025-.018 1.318.462 2.326 1.086 2.985.63.67 1.393 1.073 2.185 1.355.075.024.105.153.068.287-.031.112-.102.193-.168.202-.48.053-.975.166-1.451.502-.476.314-.92.885-1.213 1.615-.296.73-.46 1.554-.547 2.357-.136.8.202 1.343.52 1.767.68.839 1.47 1.463 2.298 1.988.834.514 1.722.825 2.668 1.282a12.989 12.989 0 0 1-2.708-1.171c-.843-.49-1.646-1.073-2.363-1.899a2.834 2.834 0 0 1-.467-.761c-.128-.294-.192-.742-.125-1.173.077-.828.233-1.702.55-2.521.312-.821.822-1.504 1.344-1.869.526-.392 1.053-.53 1.56-.61l-.1.49c-.82-.25-1.62-.62-2.31-1.297-.677-.66-1.266-1.75-1.276-3.32-.011-.767.115-1.583.312-2.355.185-.8.621-1.687 1.149-2.094a2.157 2.157 0 0 1 1.478-.512c.462.013.883.123 1.303.328.141.067.188.332.104.59-.078.242-.245.393-.38.358-1.088-.298-2.094-.821-2.953-1.76a4.735 4.735 0 0 1-1.027-1.887c-.226-.806-.258-1.845-.056-2.861.099-.509.22-.993.432-1.507.217-.502.548-.905.869-1.105.647-.398 1.226-.324 1.766-.225 1.082.24 2.058.78 3.066 1.194l-.132.337c-.479-.532-1.025-.995-1.44-1.7a3.741 3.741 0 0 1-.473-1.269 4.209 4.209 0 0 1 .073-1.685c.134-.582.49-1.478.744-1.965.24-.538.625-.85.965-1.008.7-.325 1.39-.313 2.046-.285z" class="colorf8b7b3 svgShape"></path><path fill="#bcb3f8" d="M322.234 235.641c.874.282 7.643 3.147 7.643 3.147.835.408 1.67.817 2.497 1.26-.915-.132-1.804-.368-2.686-.62-.883-.255-1.746-.576-2.615-.876-.855-.349-1.716-.676-2.558-1.063-.843-.385-1.681-.785-2.497-1.259-.1-.058-.127-.256-.06-.442.06-.172.18-.178.276-.147zM320.6 243.16c.873.28 5.008 2.464 5.008 2.464l2.516 1.184c.835.408 1.669.818 2.497 1.26-.915-.131-1.804-.367-2.687-.62-.882-.254-1.745-.575-2.615-.875-.854-.349-4.188-1.96-5.004-2.434-.1-.058-.177-.144-.111-.33.06-.172.3-.68.396-.65zM320.04 251.865c.874.282 1.73.621 2.583.967l2.544 1.091 2.516 1.184c.835.408 1.67.818 2.497 1.26-.915-.131-1.804-.367-2.686-.62-.883-.254-1.746-.575-2.615-.875-.855-.349-1.716-.676-2.558-1.063-.843-.386-1.681-.785-2.497-1.26-.1-.057-.127-.255-.06-.441.06-.172.18-.274.276-.243z" class="colorf8b7b3 svgShape"></path><path fill="#36305c" d="m305.35 239.378 3.16-15.492a1.25 1.25 0 0 1 1.086-.993l5.394-.601a1.25 1.25 0 0 1 1.364 1.492l-3.159 15.493a1.25 1.25 0 0 1-1.087.993l-5.394.601a1.25 1.25 0 0 1-1.364-1.493z" class="color30355c svgShape"></path><path fill="#ffffff" d="M310.642 226.227c.143-.768.87-1.45 1.624-1.524.754-.074 1.25.488 1.107 1.256-.143.769-.87 1.45-1.624 1.525-.754.074-1.25-.488-1.107-1.257zM309.487 231.715c.143-.768.87-1.45 1.624-1.524.754-.074 1.25.488 1.106 1.256-.143.769-.87 1.45-1.624 1.525-.754.074-1.249-.488-1.106-1.257zM308.331 237.203c.144-.768.87-1.45 1.624-1.524.754-.074 1.25.488 1.107 1.256-.143.769-.87 1.451-1.624 1.525-.754.074-1.25-.488-1.107-1.257z" class="colorffffff svgShape"></path><path fill="#a398e6" d="M309.87 218.579a4.51 4.51 0 0 0-3.916 3.57l-11.374 55.785c-.61 3 1.873 5.721 4.913 5.383l-5.802.646c-3.04.339-5.523-2.383-4.913-5.383l11.374-55.785a4.51 4.51 0 0 1 3.916-3.57l5.802-.646z" class="color98b1e6 svgShape"></path><path fill="#d9d4f6" d="M436.242 566.48a16.994 16.994 0 0 0 7.898-16.08c-4.58-46.011-5.75-83.133.981-131.645 1.275-9.16 8.538-16.336 17.714-17.64 57.308-8.197 86.643-8.405 147.45.149 8.923 1.245 16.024 8.197 17.476 17.091 9.784 60.48 10.006 90.572-.118 149.496-1.423 8.3-7.812 14.837-16.039 16.676-34.316 7.648-52.254 7.181-88.126 9.828l-2.927.014H391.683l44.56-27.889z" class="colord4e3f6 svgShape"></path><path fill="#1a1923" d="M509.149 410.573c4.554 11.116 5.264 23.766 1.985 35.323-1.487 5.237-3.76 10.243-4.944 15.556-1.184 5.314-1.159 11.203 1.713 15.828 3.7 5.96 11.621 8.463 18.471 6.95 6.85-1.513 12.582-6.438 16.412-12.315 4.672-7.168 6.85-15.928 6.08-24.449-.703-7.769-3.744-15.126-7.131-22.153-2.238-4.643-4.784-9.373-8.944-12.415s-10.376-3.876-14.336-.577M591.4 439.017c5.714 2.364 18.156 4.681 25.142 4.994 5.91.263 11.86-.257 17.8-.31 5.94-.055 12.126.418 16.952 2.424 3.893 1.617 6.637 4.193 7.464 7.02.828 2.82-.263 5.865-2.968 8.28-1.561-4.29-6.27-8.232-12.285-10.665-5.25-2.127-11.546-3.148-17.812-3.854-6.267-.706-12.654-1.133-18.75-2.223-5.921-1.062-11.658-2.82-15.542-5.666zM688.913 492.357c-4.422-2.152-14.19-4.59-19.72-5.175-4.68-.493-9.43-.367-14.15-.61-4.718-.242-9.607-.915-13.342-2.74-3.012-1.472-5.067-3.649-5.588-5.933-.521-2.28.49-4.644 2.755-6.431 1.033 3.48 4.581 6.837 9.24 9.059 4.066 1.94 9.016 3.054 13.958 3.916 4.941.862 9.992 1.509 14.78 2.667 4.65 1.128 9.12 2.8 12.067 5.247zM592.338 485.193c8.64 4.738 26.68 8.498 36.537 8.32 8.338-.156 16.52-2.13 24.812-3.025 8.293-.894 17.075-.6 24.376 3.425 5.89 3.245 10.436 8.86 12.37 15.301 1.933 6.432 1.245 13.628-1.875 19.575-3.364-9.74-11.032-18.267-20.115-23.127-7.926-4.248-17.014-5.8-25.973-6.625-8.958-.825-18.01-.989-26.835-2.725-8.575-1.694-17.081-5.026-23.297-11.12z" class="color191923 svgShape"></path><path fill="#1a1923" d="M524.034 365.875c-24.81 10.596-18.832 41.98-16.84 49.113 1.991 7.133 7.592 13.418 14.783 15.191 6.008 1.482 12.577-.292 17.48-4.068s8.21-9.386 9.863-15.35c2.453-8.854 1.231-18.894-4.206-26.301-5.437-7.408-15.282-11.645-24.214-9.49M701.466 523.352c-.493-8.131-1.052-16.527-3.688-24.246-2.286-6.697-6.433-13.05-12.332-16.847-.01-.009-.028-.017-.038-.026a21.724 21.724 0 0 0-2.738-1.503c-8.8-4.079-19.093-2.143-28.478.302-12.796 3.33-25.398 7.478-38.417 9.768-13.027 2.29-26.688 2.622-39.214-1.626-5.432-1.85-8.173-7.043-9.815-12.536-4.014-13.491-24.459-39.482-16.866-51.334 2.67-4.162 6.022-7.95 10.012-10.858a31.148 31.148 0 0 1 5.224-3.083c6.325-2.94 29.631 21.833 39.289 29.544 9.667 7.71 44.008 23.08 55.64 27.267 11.631 4.197 23.493 8.19 33.835 14.968 6.982 4.558 13.405 10.76 15.75 18.761 2.355 8-.613 17.946-8.164 21.45z" class="color191923 svgShape"></path><linearGradient id="q" x1="47.098" x2="70.29" y1="506.762" y2="506.762" gradientTransform="rotate(-2.625 -1327.391 -10466.917)" gradientUnits="userSpaceOnUse"><stop offset="0" stop-color="#575087" class="stopColor505087 svgShape"></stop><stop offset=".993" stop-color="#494273" class="stopColor424373 svgShape"></stop></linearGradient><path fill="url(#q)" d="m570.77 417.877-10.7 4.255c-3.806.515-8.861 11.293-4.363 16.866 0 0-1.34 4.489-2.211 10.381-4.403-9.323-7.284-18.348-3.616-24.075 2.67-4.162 6.022-7.95 10.012-10.858l10.878 3.431z"></path><path fill="#1a1923" d="M685.408 482.233a21.724 21.724 0 0 0-2.738-1.503c-8.8-4.079-19.093-2.143-28.478.302-12.796 3.33-25.398 7.478-38.417 9.768-13.027 2.29-26.688 2.622-39.214-1.626-5.19-1.768-7.923-6.594-9.588-11.81-2.349-.242-4.479-.724-6.271-1.48-8.803-3.718-8.627-16.951-7.206-26.505.87-5.892 2.211-10.38 2.211-10.38-4.498-5.574.557-16.352 4.362-16.867l10.701-4.255-28.244-9.116s58.215 30.66 61.27 45.29c.768 3.72 1.255 8.194-.574 12.246-7.137 15.81 55.897 6.788 66.496 8.731 7.489 1.35 15.071 6.755 15.69 7.205z" class="color191923 svgShape"></path><path fill="#7764f0" d="M544.93 462.776s-22.998 4.032-44.414 16.67c-8.36 4.396-.14 37.817 8 37.398l29.282-14.736" class="color8283d0 svgShape"></path><path fill="#ffffff" d="M556.564 464.77c-7.732-2.137-15.962-2.97-24.651-2.606l-33.897 45.659 1.268 86.546h21.267l2.927-.014c7.194-.531 13.659-.936 19.687-1.307l13.399-128.278z" class="colorffffff svgShape"></path><path fill="#6358a6" d="M575.165 532.014s2.555-8.216 4.661-18.563c2.8-13.724 4.808-31.212-.976-38.247-4.498-5.46-22.286-10.439-22.286-10.439s-21.257 37.425-24.159 57.946c-1.207 8.495-3.835 46.829-5.085 71.367 21.242-1.494 36.208-1.972 52.813-4.025l-.502-5.848-4.466-52.19z" class="color58a65f svgShape"></path><path fill="#302673" d="m575.166 532.014 4.465 52.191c-5.912-1.724-11.824-3.438-17.736-5.152-4.439-1.283-8.999-2.628-12.671-5.433-4.332-3.303-6.988-8.284-9.522-13.105-2.231-4.25-4.508-9.281-2.53-13.656 2-4.43 7.357-6.028 12.092-7.16 3.136-.748 6.314-1.528 9.132-3.106 2.806-1.577 5.26-4.093 6.022-7.221.64-2.616.074-5.353-.491-7.981-1.517-6.954-3.022-13.898-4.528-20.852 2.081 1.116 4.14 2.232 6.21 3.348 4.864 2.643 9.794 5.317 13.798 9.137.143.138.287.277.42.427-2.107 10.347-4.661 18.563-4.661 18.563z" class="color267340 svgShape"></path><path fill="#d5cfff" d="m481.636 464.607-22.817 40.014s-34.875-1.495-39.063-7.022c-7.917-10.45-40.916-68.526-40.916-68.526l17.295-21.028 48.357 54.42 37.144 2.142z" class="colorffd4cf svgShape"></path><path fill="#6358a6" d="m520.97 462.967-10.484 26.828-8.702 22.265-.227.577-.772-.113-31.421-1.844-9.341-.546c-11.452-3.81-2.338-47.868 8.558-48.66l52.39 1.493z" class="color58a65f svgShape"></path><path fill="#302673" d="m510.486 489.795-8.702 22.265-.227.577-.772-.113-31.421-1.844c.762-.597 1.524-1.205 2.276-1.823a112.485 112.485 0 0 0 22.626-25.313c1.514-2.328 5.448-12.596 8.764-10.958 2.06 1.02 2.194 5.396 2.853 7.353a48.325 48.325 0 0 0 3.687 8.27c.298.525.607 1.06.916 1.586z" class="color267340 svgShape"></path><path fill="#6358a6" d="M500.252 470.43c-9.977 12.979-16.468 99.005-18.156 123.939h25.364c1.09-33.293 5.637-111.322 24.453-132.205.355-.394-25.94.824-31.661 8.266z" class="color58a65f svgShape"></path><path fill="#d5cfff" d="M617.914 567.336c-18.307 17.859-86.9 2.832-86.9 2.832s-30.004 6.364-35.086.403c-3.443-4.035 12.832-7.704 13.236-8.168-.485.172-18.723 3.983-23.343-1.01-4.699-5.077 22.607-6.022 22.607-6.022s-25.995.142-22.802-5.61c2.866-5.15 21.881-1.43 25.835-.606-3.215-.804-16.094-4.322-13.605-9.335 2.804-5.648 26.144 4.892 26.724 5.154-.34-.223-6.26-4.335-5.012-10.163 1.279-5.992 13.722 9.8 13.722 9.8l51.787-.715-3.072-5.212-8.882-15.06-1.776-3.01 3.26-1.041 29.628-9.44s13.466 16.556 17.92 33.056c2.42 8.948 2.189 17.874-4.241 24.147z" class="colorffd4cf svgShape"></path><linearGradient id="r" x1="452.026" x2="437.575" y1="566.047" y2="551.596" gradientTransform="rotate(-.958 -883.825 -8992.33)" gradientUnits="userSpaceOnUse"><stop offset="0" stop-color="#d5cfff" class="stopColorffd4cf svgShape"></stop><stop offset="1" stop-color="#bcb3f8" class="stopColorf8b7b3 svgShape"></stop></linearGradient><path fill="url(#r)" d="M622.156 543.19c-1.18.226-2.395.267-3.613.093-3.003-.428-5.69-2.033-8.478-3.235-6.571-2.853-13.403-3.086-20.386-2.035-2.577.39-5.231.727-7.674.67l-8.882-15.058c.357-1.407.855-2.76 1.485-4.052l29.627-9.44s13.466 16.556 17.92 33.056z"></path><path fill="#6358a6" d="M614.676 517.15c.88 5.238-35.17 25.307-42.66 20.686 0 0-15.378-33.998-13.581-46.707 1.918-13.568 19.87-16.512 19.87-16.512s23.097 16.674 36.371 42.534z" class="color58a65f svgShape"></path><path fill="#d5cfff" d="m556.339 429.342.22 35.426s-8.963 2.67-24.44-2.298l.363-8.881.713-17.614 21.154-6.067 1.99-.566z" class="colorffd4cf svgShape"></path><linearGradient id="s" x1="41.881" x2="41.881" y1="523.169" y2="514.069" gradientTransform="rotate(-2.625 -1327.391 -10466.917)" gradientUnits="userSpaceOnUse"><stop offset="0" stop-color="#d5cfff" class="stopColorffd4cf svgShape"></stop><stop offset="1" stop-color="#bcb3f8" class="stopColorf8b7b3 svgShape"></stop></linearGradient><path fill="url(#s)" d="M553.96 434.084c-3.344 12.68-20.668 19.204-21.478 19.505l.713-17.614 21.154-6.067c.14 1.197.034 2.584-.389 4.176z"></path><path fill="#d5cfff" d="M562.09 415.167c-.056.36-.129.717-.204 1.09a37.511 37.511 0 0 1-1.818 5.873 45.746 45.746 0 0 1-2.717 5.674c-6.143 10.98-17.54 21.281-32.118 16.255-14.15-4.881-15.488-30.056-9.024-47.606.001-.016.001-.016.02-.03 3.554-9.652 9.472-16.998 16.902-17.39 17.872-.948 26.93 16.02 28.88 27.927.352 2.062.468 3.97.392 5.616-.045.807-.144 1.671-.313 2.59z" class="colorffd4cf svgShape"></path><path fill="#1a1923" d="M520.405 407.114c-.366 1.664.173 3.29 1.208 3.636 1.034.346 2.166-.721 2.532-2.386.364-1.654-.176-3.28-1.21-3.626s-2.166.721-2.53 2.376z" class="color191923 svgShape"></path><linearGradient id="t" x1="518.826" x2="528.849" y1="400.381" y2="400.381" gradientUnits="userSpaceOnUse"><stop offset="0" stop-color="#1a1923" class="stopColor191923 svgShape"></stop><stop offset="1" stop-color="#0d0c14" class="stopColor0c0c14 svgShape"></stop></linearGradient><path fill="url(#t)" d="M528.077 402.163a.772.772 0 0 1-.65-.355c-1.727-2.693-5.009-1.662-7.459-.324a.772.772 0 1 1-.74-1.356c4.216-2.303 7.679-1.993 9.499.846a.772.772 0 0 1-.65 1.19z"></path><path fill="#1a1923" d="M538.439 409.26c-.366 1.665.174 3.291 1.208 3.637 1.034.346 2.166-.721 2.532-2.386.364-1.654-.176-3.28-1.21-3.626-1.034-.346-2.166.721-2.53 2.375z" class="color191923 svgShape"></path><linearGradient id="u" x1="536.113" x2="546.677" y1="403.59" y2="403.59" gradientUnits="userSpaceOnUse"><stop offset="0" stop-color="#1a1923" class="stopColor191923 svgShape"></stop><stop offset="1" stop-color="#0d0c14" class="stopColor0c0c14 svgShape"></stop></linearGradient><path fill="url(#u)" d="M545.905 406.615a.772.772 0 0 1-.652-.359c-2.11-3.324-5.014-4.717-8.179-3.918a.773.773 0 0 1-.377-1.498c3.859-.973 7.363.656 9.86 4.589a.772.772 0 0 1-.652 1.186z"></path><path fill="#1a1923" d="M575.46 416.011s18.523-52.982-31.054-55.415c-36.53-1.793-28.196 35.842-28.178 35.828-.557-1.707 7.526-15.43 11.674-14.535 3.121.674 20.617 11.097 25.693 16.962 4.327 5.031 7.63 13.86 8.496 16.316l-.205 1.09a37.503 37.503 0 0 1-1.817 5.873l15.391-6.119z" class="color191923 svgShape"></path><path fill="#d5cfff" d="M560.068 422.13c1.411-3.564 2.21-6.926 2.335-9.554.076-1.646-.04-3.554-.392-5.616 1.647-2.024 5.245-4.789 8.518-.276 4.77 6.578-4.991 13.556-10.46 15.446z" class="colorffd4cf svgShape"></path><path fill="#1a1923" d="M555.082 410.507c-4.404.496-9.083-.798-12.538-3.484-3.217-2.512-5.293-6.043-6.92-9.603-1.626-3.561-2.91-7.266-4.95-10.651-2.052-3.385-5.011-6.507-8.914-7.92.276-1.21 1.278-2.25 2.548-2.648l1.047 3.366c4.872.274 7.157 4.606 9.719 8.491 2.57 3.886 3.441 10.893 5.904 14.83 2.801 4.5 9.296 4.922 14.104 7.619z" class="color191923 svgShape"></path><path fill="#1a1923" d="M530.277 381.312c4.322-.293 8.287 2.528 10.932 5.876s4.382 7.296 6.938 10.71c2.91 3.888 6.875 7.026 11.38 9.005-3.83.969-8.075.28-11.384-1.846-3.086-1.983-5.258-5.05-7.046-8.2-1.788-3.148-3.283-6.47-5.42-9.405-2.139-2.936-5.056-5.524-8.638-6.408.13-1.166.903-2.243 1.982-2.762M577.049 419.61a61.401 61.401 0 0 0 30.71 6.39c8.926-.488 17.622-2.924 26.47-4.204 8.847-1.28 18.272-1.312 26.254 2.714 6.436 3.247 11.518 9.087 13.845 15.91s1.871 14.55-1.24 21.053c-3.989-10.306-12.53-19.142-22.456-24.001-8.664-4.242-18.46-5.55-28.092-6.083s-19.336-.353-28.863-1.87-19.066-4.915-26.034-11.587" class="color191923 svgShape"></path><path fill="#bcb3f8" d="M533.19 408.917c.397.927.375 1.955.33 2.947-.085.998-.293 2.003-.755 2.98a4.92 4.92 0 0 1-.957 1.397 3.9 3.9 0 0 1-1.149.819l-.314.147c-.773.36-1.494.8-2.039 1.358-.563.543-.928 1.203-1.06 1.875-.126.678.064 1.36.524 1.906.47.541 1.24.893 2.102 1.018.869.124 1.811.036 2.772-.131a6.279 6.279 0 0 1-2.773 1.11c-1.026.108-2.228-.061-3.166-.843-.963-.74-1.475-2.051-1.364-3.268.093-1.228.716-2.325 1.506-3.112.789-.814 1.75-1.352 2.722-1.74l.342-.136c.07-.025.143-.047.213-.085.142-.063.283-.157.42-.267.279-.223.527-.53.772-.868.473-.687.855-1.518 1.171-2.38.311-.868.614-1.766.703-2.727zM533.026 434.658c-2.35 0-3.293-1.065-3.649-1.711a.773.773 0 1 1 1.354-.745c.197.357.783.96 2.456.909 1.752-.044 4.332-1.419 5.55-2.625a.772.772 0 1 1 1.087 1.098c-1.449 1.434-4.383 3.016-6.598 3.071a9.12 9.12 0 0 1-.2.003z" class="colorf8b7b3 svgShape"></path><path fill="#36305c" d="m359.765 423.037 23.023 14.121c2.604 1.598 6.01.193 6.73-2.776l13.427-55.328a4.503 4.503 0 0 0-2.022-4.9L377.9 360.031c-2.604-1.597-6.01-.192-6.73 2.777l-13.427 55.328a4.503 4.503 0 0 0 2.022 4.9z" class="color30355c svgShape"></path><path fill="#d5cfff" d="M356.583 406.513c.295 2.874 2.098 4.992 4.302 5.096 6.294.294 13.284-.197 13.792-3.75.521-3.691-.702-5.062-2.153-5.572 2.248-.195 4.707-1.426 4.548-5.878-.07-2.076-1.19-2.57-2.05-2.627 1.572-.27 4.48-1.353 4.225-5.818-.171-3.121-3.131-1.982-5.358-1.669.983-.701 3.676-1.803 2.518-6.011-.826-2.971-8.062-1.981-12.087-1.184-1.647.326-3.064 1.795-3.712 3.836-2.53 7.964-4.802 15.993-4.025 23.577z" class="colorffd4cf svgShape"></path><path fill="#bcb3f8" d="M373.8 378.348c.643.15 1.317.329 1.907.823.29.249.563.615.663 1.17.126.526.257 1.463.247 2.022.003 1.152-.486 2.04-1.034 2.55-.554.548-1.172.835-1.788 1.23-.054.034-.08.14-.06.236.018.079.062.127.107.122l.006-.001c1.085-.126 2.164-.377 3.234-.314.526.042 1.077.155 1.498.606.208.226.356.551.423.943a6.6 6.6 0 0 1 .041 1.304c-.043.89-.274 1.695-.626 2.31a4.036 4.036 0 0 1-1.298 1.366c-.972.619-2.056.846-3.098.836l.056.986c.763-.191 1.67-.198 2.277.526.3.359.454.943.473 1.62.026.706-.017 1.409-.162 2.041-.28 1.289-.976 2.161-1.733 2.662-.764.51-1.6.731-2.435.827-.078.006-.137.125-.13.264.004.116.055.211.117.235.455.16.913.382 1.3.817.393.413.697 1.07.817 1.847.123.777.097 1.618 0 2.42-.049.81-.5 1.263-.906 1.604-.852.663-1.763 1.092-2.688 1.416-.928.313-1.864.415-2.888.646a12.987 12.987 0 0 0 2.902-.528c.932-.287 1.846-.673 2.732-1.316.218-.169.435-.361.626-.636.191-.257.355-.68.387-1.114.112-.824.158-1.71.035-2.58-.119-.87-.461-1.651-.888-2.124-.423-.501-.906-.756-1.381-.947l-.013.5c.855-.059 1.718-.238 2.542-.742.809-.49 1.63-1.418 1.994-2.946.184-.745.246-1.568.229-2.364 0-.821-.224-1.784-.646-2.3a2.157 2.157 0 0 0-1.324-.832 3.118 3.118 0 0 0-1.344.025c-.153.033-.258.28-.235.552.022.253.15.437.29.434 1.126-.045 2.225-.327 3.274-1.047a4.735 4.735 0 0 0 1.427-1.606c.402-.735.668-1.74.7-2.775a7.594 7.594 0 0 0-.08-1.565c-.097-.538-.329-1.006-.595-1.273-.542-.534-1.121-.593-1.67-.618-1.108-.012-2.181.294-3.257.47l.053.357c.586-.409 1.223-.737 1.786-1.33a3.74 3.74 0 0 0 .748-1.13 4.21 4.21 0 0 0 .31-1.657c.001-.597-.143-1.55-.28-2.083a1.984 1.984 0 0 0-.713-1.2c-.609-.474-1.284-.619-1.929-.74z" class="colorf8b7b3 svgShape"></path><path fill="#bcb3f8" d="M374.32 385.82c-.914.076-8.156 1.337-8.156 1.337-.905.209-1.81.419-2.717.663.922.08 1.84.05 2.758.003.917-.048 1.83-.166 2.745-.261.91-.147 1.823-.271 2.732-.457.908-.186 1.815-.385 2.716-.663.11-.034.182-.22.16-.417-.02-.18-.136-.214-.237-.205zM374.214 393.513c-.915.076-5.436 1.269-5.436 1.269l-2.719.585c-.905.208-1.81.418-2.717.662.921.08 1.84.05 2.758.003.917-.048 1.83-.165 2.745-.261.91-.147 4.523-.962 5.424-1.24.11-.033.206-.1.183-.296-.02-.182-.137-.73-.238-.722zM372.791 402.12c-.915.076-1.825.214-2.735.357l-2.725.489-2.718.584c-.906.21-1.81.42-2.717.663.921.08 1.84.05 2.757.003.917-.048 1.83-.166 2.745-.261.911-.147 1.824-.271 2.732-.457.908-.185 1.815-.385 2.717-.663.11-.033.181-.22.159-.416-.02-.182-.114-.308-.215-.3z" class="colorf8b7b3 svgShape"></path><path fill="#221d44" d="m392.329 387.173 2.593-10.685a1.25 1.25 0 0 0-.561-1.361l-4.627-2.838a1.25 1.25 0 0 0-1.87.77l-2.593 10.687a1.25 1.25 0 0 0 .562 1.36l4.627 2.838a1.25 1.25 0 0 0 1.869-.77z" class="color1d2344 svgShape"></path><path fill="#ffffff" d="M391.63 377.7c.197-.756-.171-1.683-.822-2.07-.651-.388-1.338-.09-1.536.666-.197.756.17 1.683.822 2.07.65.388 1.338.09 1.536-.666zM390.342 383.158c.197-.756-.171-1.682-.822-2.07-.651-.388-1.339-.09-1.536.666-.197.757.17 1.683.822 2.071.65.388 1.338.09 1.536-.667z" class="colorffffff svgShape"></path><path fill="#221d44" d="M395.947 371.106a4.51 4.51 0 0 1 2.026 4.896l-13.428 55.327c-.724 2.973-4.128 4.382-6.735 2.782l4.976 3.053c2.608 1.599 6.012.19 6.736-2.783l13.428-55.327a4.51 4.51 0 0 0-2.026-4.896l-4.977-3.052z" class="color1d2344 svgShape"></path><path fill="#4d34ea" d="m322.438 143.768-47.154 6.066a5.324 5.324 0 0 0-4.6 5.96l3.932 30.573a5.324 5.324 0 0 0 5.96 4.601l15.42-1.983.006.002 7.132 8.716c1.247 1.524 3.659 1.214 4.48-.576l4.695-10.241 15.42-1.983a5.324 5.324 0 0 0 4.601-5.96l-3.933-30.574a5.324 5.324 0 0 0-5.96-4.6z" class="colorea4234 svgShape"></path><path fill="#ffffff" d="M311.017 158.765a7.509 7.509 0 0 0-10.517 1.449 7.512 7.512 0 0 0-10.957 2.09c-2.048 3.352-.9 7.765 2.23 10.137l9.235 7a3 3 0 0 0 4.201-.579l7.257-9.58a7.506 7.506 0 0 0-1.45-10.517z" class="colorffffff svgShape"></path><path fill="#5a42f4" d="m435.088 62.939-46.14 11.466a5.324 5.324 0 0 0-3.882 6.45l7.435 29.917a5.324 5.324 0 0 0 6.451 3.883l15.088-3.75.006.002 8.09 7.835c1.415 1.37 3.775.783 4.384-1.089l3.483-10.715 15.088-3.75a5.324 5.324 0 0 0 3.882-6.45l-7.435-29.916a5.324 5.324 0 0 0-6.45-3.883z" class="color4285f4 svgShape"></path><path fill="#ffffff" d="M426.839 95.77a2.34 2.34 0 0 1-4.52 1.212 2.34 2.34 0 0 1 4.52-1.213M418.91 97.898a2.34 2.34 0 0 1-4.52 1.213 2.34 2.34 0 0 1 4.52-1.213M424.11 89.424l-11.043 2.965.726 1.22a.416.416 0 0 0 .445.17l11.514-3.09a.867.867 0 0 1 1.074.617.867.867 0 0 1-.62 1.071l-12.478 3.35a.841.841 0 0 1-.939-.382l-8.124-13.59a.546.546 0 0 0-.606-.237l-3.45.927a.867.867 0 0 1-1.074-.617.867.867 0 0 1 .62-1.075l4.532-1.216c.338-.091.722.06.898.376l1.941 3.25 16.777-4.704c1.01-.29 1.974.539 1.857 1.586l-.972 8.129a1.483 1.483 0 0 1-1.079 1.25" class="colorffffff svgShape"></path><path fill="#2604fb" d="m438.507 305.14-46.854-8.06a5.324 5.324 0 0 0-6.149 4.344l-5.225 30.38a5.324 5.324 0 0 0 4.344 6.149l15.322 2.635.005.004 4.256 10.428c.744 1.822 3.14 2.235 4.45.765l7.5-8.409 15.32 2.636a5.324 5.324 0 0 0 6.15-4.344l5.225-30.38a5.324 5.324 0 0 0-4.344-6.149z" class="colorfbbc04 svgShape"></path><path fill="#ffffff" d="M419.188 312.135a2.321 2.321 0 0 0-1.89-1.878l-7.02-1.212a2.321 2.321 0 0 0-2.411 1.134l-2.7 4.717 14.981 2.589-.96-5.35z" class="colorffffff svgShape"></path><path fill="#ffffff" d="m424.793 315.833-23.447-4.051a2.401 2.401 0 0 0-2.775 1.958l-2.233 12.923a2.402 2.402 0 0 0 1.957 2.775l23.447 4.051a2.402 2.402 0 0 0 2.775-1.958l2.233-12.923a2.401 2.401 0 0 0-1.957-2.775z" class="colorffffff svgShape"></path><ellipse cx="411.544" cy="322.635" fill="#d9d4f6" rx="6.308" ry="6.307" transform="rotate(-77.898 411.544 322.636)" class="colord4e3f6 svgShape"></ellipse><ellipse cx="411.544" cy="322.635" fill="#ffffff" rx="3.167" ry="3.166" transform="rotate(-77.898 411.544 322.636)" class="colorffffff svgShape"></ellipse><path fill="#d9d4f6" d="m422.962 317.97-1.566-.27a.753.753 0 1 0-.256 1.484l1.565.27a.753.753 0 0 0 .257-1.483z" class="colord4e3f6 svgShape"></path><path fill="#ffffff" d="m404.464 312.32.074-.428a.919.919 0 1 0-1.81-.313l-.075.429 1.811.313z" class="colorffffff svgShape"></path></svg>