<svg xmlns="http://www.w3.org/2000/svg" data-name="Layer 1" viewBox="0 0 3000 3000" id="Notificationonsmartphone"><g data-name="Notification on smart phone" fill="#000000" class="color000000 svgShape"><g data-name="Group 12443" opacity=".3" fill="#000000" class="color000000 svgShape"><path fill="#7764f0" d="M420.16762,1260.8982c128.67094,0,232.97934,104.3084,232.97934,232.97933s-104.3084,232.97933-232.97934,232.97933C291.49845,1726.85686,291.49845,1260.8982,420.16762,1260.8982Z" data-name="Path 14045" class="color40d6e5 svgShape"></path><path fill="#7764f0" d="M680.80064,2658.77419s-228.13611-280.88895-168.16123-566.923,234.61026-241.80527,251.98729-545.96872S406.99406,999.26725,631.5214,506.601s985.80551-440.58468,1165.73014-53.0547,39.91718,788.97014,617.09428,975.86451c482.69144,155.11832,247.36483,1055.406-291.33229,1049.91178s-609.06579,363.34089-959.21509,370.48859S680.80064,2658.77419,680.80064,2658.77419Z" data-name="Path 14046" class="color40d6e5 svgShape"></path></g><ellipse cx="1451.274" cy="2153.601" data-name="Ellipse 1548" opacity=".1" rx="830.421" ry="66.895" style="isolation:isolate" fill="#000000" class="color000000 svgShape"></ellipse><g data-name="Group 12439" fill="#000000" class="color000000 svgShape"><rect width="719.699" height="1494.758" x="1091.425" y="661.149" fill="#302767" data-name="Rectangle 2079" rx="83.042" class="color272767 svgShape"></rect><g data-name="Group 12438" fill="#000000" class="color000000 svgShape"><rect width="673.564" height="1181.044" x="1114.492" y="813.393" fill="#ece9fc" data-name="Rectangle 2080" class="colore9f1fc svgShape"></rect><path d="M1114.49217,813.39334h82.793l590.771,329.34051V1458.354l-673.564-367.2308Z" data-name="Path 14041" style="isolation:isolate" fill="#ffffff" opacity=".6" class="colorffffff svgShape"></path><path d="M1788.05618,1762.61112v231.826l-673.564-359.99231V1405.37768Z" data-name="Path 14042" style="isolation:isolate" fill="#ffffff" opacity=".8" class="colorffffff svgShape"></path></g><circle cx="1451.274" cy="2077.479" r="46.135" fill="#ffffff" data-name="Ellipse 1545" style="isolation:isolate" opacity=".4" class="colorffffff svgShape"></circle><g data-name="Group 12437" opacity=".4" fill="#000000" class="color000000 svgShape"><circle cx="1335.938" cy="739.578" r="13.84" fill="#ffffff" data-name="Ellipse 1546" class="colorffffff svgShape"></circle><path fill="#ffffff" d="M1391.2993,725.73775h179.92463a13.84036,13.84036,0,0,1,13.84035,13.84036h0a13.84035,13.84035,0,0,1-13.84035,13.84035H1391.2993a13.84035,13.84035,0,0,1-13.84036-13.84035h0A13.84036,13.84036,0,0,1,1391.2993,725.73775Z" data-name="Rectangle 2081" class="colorffffff svgShape"></path></g></g><g data-name="notification" fill="#000000" class="color000000 svgShape"><path fill="#5c42ff" d="M1262.12264,1410.72473v320.41346l199.86859-188.61175C1286.657,1426.89948,1379.59035,1488.17534,1262.12264,1410.72473Z" data-name="Path 13823" class="colorffb842 svgShape"></path><path fill="#5c42ff" d="M1745.05426,1542.53109,1944.909,1731.14283v-320.4181Z" data-name="Path 13824" class="colorffb842 svgShape"></path><path fill="#5c42ff" d="M1614.57653,1628.57194a20.073,20.073,0,0,1-22.11689,0l-96.01976-63.32416-203.85922,192.381H1914.474l-203.84537-192.381Z" data-name="Path 13825" class="colorffb842 svgShape"></path><path fill="#3c21ea" d="M1594.66485,1089.33323l-55.86426,49.25322h129.435l-55.86433-49.25322A13.379,13.379,0,0,0,1594.66485,1089.33323Z" data-name="Path 13826" class="colorea9a21 svgShape"></path><path fill="#3c21ea" d="M1334.18937,1410.13425v-91.171l-59.16291,52.15969S1304.82936,1390.77156,1334.18937,1410.13425Z" data-name="Path 13827" class="colorea9a21 svgShape"></path><path fill="#3c21ea" d="M1932.00509,1371.12293c-25.0603-22.09841-10.55555-9.31455-59.16293-52.15969v91.171C1902.17464,1390.7993,1932.00509,1371.12293,1932.00509,1371.12293Z" data-name="Path 13828" class="colorea9a21 svgShape"></path><path fill="#5c42ff" d="M1603.50426,1587.75216c65.797-43.36643,152.41921-100.5133,229.164-151.12287v-244.513a13.379,13.379,0,0,0-13.379-13.379h-431.547a13.379,13.379,0,0,0-13.379,13.379h0v244.513C1574.55023,1568.66169,1498.66818,1518.61957,1603.50426,1587.75216Zm-103.26291-315.74007h206.54888a20.08236,20.08236,0,0,1,0,40.16472H1500.24135a20.08236,20.08236,0,1,1,0-40.16472ZM1480.159,1393.48891v-.13379a20.087,20.087,0,0,1,17.80793-19.94856h211.10236a20.087,20.087,0,0,1,17.80793,19.94856v.13379a20.07775,20.07775,0,0,1-20.08235,19.94855H1500.24135A20.07775,20.07775,0,0,1,1480.159,1393.48891Z" data-name="Path 13829" class="colorffb842 svgShape"></path></g><g data-name="Group 12440" fill="#000000" class="color000000 svgShape"><circle cx="823.845" cy="988.705" r="202.992" fill="#3d21f3" data-name="Ellipse 1547" class="colorf37121 svgShape"></circle><path fill="#ffffff" d="M876.04128,1010.32316a73.53384,73.53384,0,0,0-28.04979-17.5957,42.67443,42.67443,0,1,0-48.289,0,73.93056,73.93056,0,0,0-49.673,69.7923h11.53363a62.2816,62.2816,0,1,1,124.56321,0h11.53363A73.35389,73.35389,0,0,0,876.04128,1010.32316Zm-52.1966-21.61864a31.1408,31.1408,0,1,1,31.14081-31.1408A31.1408,31.1408,0,0,1,823.84468,988.70452Z" data-name="Path 14043" class="colorffffff svgShape"></path></g><g data-name="Group 12441" fill="#000000" class="color000000 svgShape"><circle cx="1944.914" cy="1270.125" r="202.992" fill="#3d21f3" data-name="Ellipse 1547-2" class="colorf37121 svgShape"></circle><path fill="#ffffff" d="M1908.944,1199.4624h70.918v9.96533h-60.12207v42.51758q3.81885-6.14281,11.958-10.29736a38.89536,38.89536,0,0,1,17.93652-4.15234,42.44574,42.44574,0,0,1,17.68848,3.5708,29.25665,29.25665,0,0,1,12.207,9.7163q8.13574,11.95752,8.13867,29.06446,0,17.1079-10.21484,29.06494-10.21435,11.95826-28.73243,11.958-18.52148,0-29.06445-8.55323-10.5498-8.55249-13.37012-23.00293h10.7959a28.30759,28.30759,0,0,0,10.71192,15.86133q7.88672,5.72975,19.51465,5.73,14.61327,0,22.08984-8.88574,7.47363-8.88281,7.47363-23.335,0-31.05468-29.56347-31.05762a28.57407,28.57407,0,0,0-17.02344,5.14844,32.5054,32.5054,0,0,0-11.04395,14.11719H1908.944Z" data-name=" 5" class="colorffffff svgShape"></path></g><g data-name="Group 12442" fill="#000000" class="color000000 svgShape"><circle cx="1977.208" cy="513.519" r="202.992" fill="#3d21f3" data-name="Ellipse 1547-3" class="colorf37121 svgShape"></circle><path fill="#ffffff" d="M1903.39248,573.62762a4.91332,4.91332,0,0,0,4.91332,4.91332h44.7182a24.57125,24.57125,0,0,0,48.146,0h44.71819a4.91333,4.91333,0,1,0,0-9.82666,14.76305,14.76305,0,0,1-14.76305-14.763h0V506.29429A56.16879,56.16879,0,0,0,1991.837,452.197v-6.95709a14.763,14.763,0,1,0-29.48,0V452.16a54.20806,54.20806,0,0,0-39.31124,52.02129v49.793a14.76305,14.76305,0,0,1-14.76305,14.76305h0A4.91333,4.91333,0,0,0,1903.39248,573.62762Zm73.7045,14.76305a14.76306,14.76306,0,0,1-13.89572-9.83127h27.79144a14.76306,14.76306,0,0,1-13.8957,9.8082Zm-4.91332-143.15081a4.91333,4.91333,0,0,1,9.82666,0v5.11171q-2.46817-.22144-4.91332-.22145t-4.91332.21222Zm-39.31122,108.73445v-49.793a44.22917,44.22917,0,0,1,44.22456-44.22456,45.40561,45.40561,0,0,1,44.22456,46.33752v47.68a24.45135,24.45135,0,0,0,4.92717,14.76305h-98.30346A24.45135,24.45135,0,0,0,1932.87244,553.97431Z" data-name="Path 14044" class="colorffffff svgShape"></path></g></g></svg>