<svg xmlns="http://www.w3.org/2000/svg" data-name="Layer 1" viewBox="96.401 434.77 2807.198 2130.469" id="Girlcallingfireemergencyserviceduetofireinkitchen"><path fill="#f5f5f7" d="M2664.36 1499.92c0 120.69-18.25 236.73-55.35 343.94q-12.18 35.37-27.14 69.37-2.09 4.73-4.21 9.44a860.44 860.44 0 0 1-86 148.6q-11.4 15.87-23.63 31.23-9.69 12.18-19.89 24.05a799.393 799.393 0 0 1-16.45 18.63c-4.21 4.66-8.49 9.24-12.85 13.8q-15.42 16.23-31.85 31.75a874.87 874.87 0 0 1-111.7 89.31 962.37 962.37 0 0 1-144 79.85c-115 51.76-249.26 86.78-403.14 101.15q-33 3.12-67.24 4.88-58.14 3.09-119.75 2.33-38-.48-74.72-2.33c-142.73-7.11-270.31-29.35-383-64.54q-7.07-2.19-14-4.46c-128.54-41.73-237.44-100.53-327.25-173C523.46 2047.5 418 1790.05 418 1499.92c0-75.74 5.6-149.47 17.63-220.21C464.91 1107.23 532.35 952.43 649.7 829 768.36 704.17 938 611.44 1170.9 565q12.25-2.44 24.77-4.73 72.74-13.23 153.53-20.46 57.36-5.16 118.91-7.08c8.2-.25 16.44-.47 24.77-.62q23.82-.48 48.3-.5c115 0 219.51 8 314.27 23.31 352.61 56.82 570.05 213.49 689.45 426.69 49.56 88.44 82.23 186.62 100.68 291.44 12.81 72.75 18.78 148.73 18.78 226.87Z" class="colorf5f5f7 svgShape"></path><path fill="#e2e0f0" d="M2642.88 1273c-49.66 29-137.63 60.09-241.33 7.8-204.33 141.87-433.48-40.37-413.37-227.66-70.12 44.53-112.44-39.85-112.44-39.85-198.31 64.57-330.72-90.13-297.18-178.62-58.38 73.91-170.52 62.86-208.12.62-42 32-74.18 15.21-74.18 15.21s-32.67 192.59-216.07 264.29c-170.72 66.72-258.87-71.23-258.87-71.23-39.73 53.57-82.67 20.23-82.67 20.23-53.08 88.84-117.27 111-173.4 98.57-4.9 71.55-69.82 117.89-132.33 117.32C462.22 1107.23 529.66 952.43 647 829c118.66-124.85 288.34-217.58 521.2-264q12.26-2.44 24.77-4.73 72.74-13.23 153.53-20.46 57.36-5.16 118.91-7.08c8.2-.25 16.44-.47 24.77-.62q23.82-.48 48.3-.5c115 0 219.51 8 314.27 23.31 352.61 56.82 570.05 213.49 689.45 426.69 49.56 88.39 82.23 186.6 100.68 291.39Z" class="colore0e9f0 svgShape"></path><path fill="#ffffff" d="M1193 560.25q72.74-13.23 153.53-20.46c-7.16 86.24-83.27 178.23-235 136.12 53.42 186.57-147.17 343.45-309.44 217.36-25.86 32.3-77.42 36.68-110.86-5.33C676.75 869.79 661.54 849.3 647 829c118.66-124.85 288.34-217.58 521.2-264 8.19-1.65 16.46-3.21 24.8-4.75ZM2542.2 981.59c-52.13 29.32-119.28 9.81-119.28 9.81-41.63-207.65-265.16-376.12-441-229.79-12.13-115.37-116.48-102.36-116.48-102.36 2.28-39.43-2.8-74-12.73-104.35 352.66 56.82 570.09 213.49 689.49 426.69Z" class="colorffffff svgShape"></path><path fill="#bbb0ff" d="M1064.48 877.11c-23 0-48.44 63.74-48.44 63.74s-48.44-102-84.14-104.54-28 56.09-28 56.09c-28.05-35.7-40.8-7.65-40.8-7.65-73.94-81.59-132.59-56.09-104.54 48.44 0 0-33.15-28.05-48.44-15.3S705 981.63 725.37 1053c0 0-33.15-10.2-56.09-2.55s93.09 287.18 275.37 201.43l169.81-93.77c49.46-105.11-27.03-281-49.98-281Z" class="colorfff5b0 svgShape"></path><path fill="#9989fc" d="M1055.84 897.48c-21.75 0-45.92 60.42-45.92 60.42s-45.92-96.68-79.76-99.09S903.57 912 903.57 912c-26.59-33.84-38.67-7.25-38.67-7.25-70.09-77.34-125.68-53.17-99.09 45.92 0 0-31.42-26.59-45.92-14.5s-4.83 60.42 14.5 128.1c0 0-31.42-9.67-53.17-2.42s88.24 272.22 261 190.94l161-88.89c46.88-99.65-25.63-266.42-47.38-266.42Z" class="colorfccd89 svgShape"></path><path fill="#7f6eee" d="M1037 1049.23c-14.86-2.48-29.72 14.86-29.72 14.86s-39.63-74.3-59.44-71.83-14.91 29.74-14.91 29.74-61.92-64.4-89.16-52 0 94.12 0 94.12c-34.67-9.91-59.44-4.95-59.44 17.34s12.38 52 42.1 79.26c-59.44 9.91-37.15 52 109 81.73l101.57-34.7s25.1-154.33 0-158.52Z" class="coloree8b6e svgShape"></path><path fill="#bbb0ff" d="M1895.73 1119.18c-9.16-15.32-61.89-6.89-61.89-6.89s48.74-73 36.19-97.89-48.64 3.67-48.64 3.67c12.63-33-11.18-30.28-11.18-30.28 25-81.92-15.48-110.89-74.06-50.44 0 0 5.49-33.32-9.13-38.44s-44.58 22-84.1 64.15c0 0-6.42-26.2-20.69-38.46s-154.54 176.77-24.54 264.21l130.37 75.92c89.94-8.95 176.83-130.23 167.67-145.55Z" class="colorfff5b0 svgShape"></path><path fill="#9989fc" d="M1886.92 1123.55C1878.2 1109 1828 1117 1828 1117s46.4-69.53 34.45-93.18-46.3 3.49-46.3 3.49c12-31.38-10.64-28.83-10.64-28.83 23.75-78-14.73-105.56-70.5-48 0 0 5.23-31.72-8.69-36.6s-42.44 21-80 61.07c0 0-6.11-24.94-19.69-36.61s-147.11 168.27-23.36 251.51l124.11 72.27c85.54-8.54 168.26-123.99 159.54-138.57Z" class="colorfccd89 svgShape"></path><path fill="#7f6eee" d="M1777.63 1171.71c-4.3-11-21.87-14-21.87-14s33.92-56.35 24.32-68.64-25.88 2-25.88 2 18.35-67.32-.88-80.62-63.09 37.73-63.09 37.73c-7.26-27.21-20.51-41.83-35.45-32.9s-29.9 29.15-36.25 60c-30.47-35.87-49.76-4.06-11.11 105.81l63.95 54.17s113.53-45.01 106.26-63.55Z" class="coloree8b6e svgShape"></path><path fill="#bbb0ff" d="M1642.12 1762.53c19.81-22.29 39.63-57 24.77-57-39.63 0-118.88 74.3-163.42 76.47l-161.46.28-161.46-.28c-44.54-2.17-123.79-76.47-163.42-76.47-14.86 0 5 34.67 24.77 57-42.1-5-74 39.63 47.19 74.3h505.84c121.23-34.67 89.3-79.25 47.19-74.3Z" class="colorfff5b0 svgShape"></path><path fill="#9989fc" d="M1114.17 1836.83c-56.92-18.25-67.94-37-67.29-42.14.41-3.24 7.14-7.77 17.17-7.77a34.24 34.24 0 0 1 4.5.3l29.27 3.8-19.58-24.33c-10-12.38-17.7-25.74-21.57-34.59 15.24 5 36.9 19.89 56.43 33.29 30.09 20.65 58.5 40.15 81.74 41.4h.53l146.19.28 146.49-.28h.26c23.24-1.25 51.66-20.75 81.74-41.4 19.54-13.41 41.2-28.27 56.43-33.29-3.87 8.84-11.6 22.21-21.57 34.59l-19.58 24.31 29.27-3.8a34.24 34.24 0 0 1 4.5-.3c10 0 16.75 4.53 17.16 7.77.65 5.17-10.36 23.9-67.29 42.14Z" class="colorfccd89 svgShape"></path><path fill="#7764f0" d="M1190.58 1778.39c-34.59 10.91-37.23 26.24-39.71 33.67s0 32.2 0 32.2h34.67v-34.67c0-4.95 16.07-27.24 16.07-27.24s23.57-14.87-11.03-3.96ZM1931.13 1785.82c-34.59 10.91-37.23 26.24-39.71 33.67s0 32.2 0 32.2h34.67V1817c0-5 16.07-27.24 16.07-27.24s23.56-14.85-11.03-3.94ZM1478.23 1778.39c-34.59-10.91-11 3.95-11 3.95s16.07 22.29 16.07 27.24v34.67h34.67s2.48-24.77 0-32.2-5.14-22.75-39.74-33.66ZM1313.36 1774.91h42.1v69.35h-42.1z" class="color7394bd svgShape"></path><path fill="#7764f0" d="M1141 1752.62s44.58 12.38 52 29.72h279.87c7.43-17.34 39.63-29.72 39.63-29.72Z" class="color7394bd svgShape"></path><path fill="#9c92dd" d="M1140.97 1705.57h371.51v52.01h-371.51z" class="color92b1dd svgShape"></path><path fill="#1c1b26" d="M1140.97 1705.57h371.51v14.86h-371.51z" opacity=".27" class="color22261b svgShape"></path><path fill="#9c92dd" d="M1522.37 1788.12c-4.06.66-143-30.82-143-30.82-20.49-.82-20.37-38.35 5-36.24l141 8.24c33.32 13.3 18.99 53.15-3 58.82Z" class="color92b1dd svgShape"></path><path fill="#b3aed3" d="M1522.37 1788.12c-42.58-5.55-38.69-58.28 2.9-58.82 33.42 13.3 19.09 53.15-2.9 58.82Z" class="coloraec5d3 svgShape"></path><path fill="#bbb0ff" d="M1591.73 1445.64c-22.29-2.68-49.53 37.51-49.53 37.51 5-45.54-24.77-120.56-44.58-120.56s-44.58 67-44.58 67c-2.48-56.26-19.81-142-39.63-142s-54.49 61.62-54.49 61.62c-16.25-37.67-12.92-94.18-36.92-103.31a16.25 16.25 0 0 0-5.81-1 23.09 23.09 0 0 0-3.32.26c-66.16 9.71-85.22 130.83-85.22 130.83s-14.86-29.47-32.2-24.11c-29.72 8-27.24 69.65-29.72 67s-19.81-48.22-34.67-40.19-22.29 96.44-22.29 96.44-22.29-37.51-37.15-29.47c-37.15 45.54-24.77 230.4 89.16 259.86l328.42.86c145.15-50.06 124.8-258.06 102.53-260.74Z" class="colorfff5b0 svgShape"></path><path fill="#9989fc" d="M1591.73 1465.32c-22.29-2.48-49.53 34.67-49.53 34.67 5-42.1-24.77-111.45-44.58-111.45s-44.58 61.92-44.58 61.92c-2.48-52-19.81-131.27-39.63-131.27s-54.49 57-54.49 57c-16.25-34.83-12.92-87.07-36.92-95.51a17.36 17.36 0 0 0-5.81-.92 24.6 24.6 0 0 0-3.32.24c-66.16 9-85.22 121-85.22 121s-14.86-27.24-32.2-22.29c-29.72 7.43-27.24 64.4-29.72 61.92s-19.81-44.58-34.67-37.15-22.29 89.16-22.29 89.16-22.29-34.67-37.15-27.24c-37.15 42.1-24.77 213 89.16 240.24l328.42.79c145.15-46.34 124.8-238.63 102.53-241.11Z" class="colorfccd89 svgShape"></path><path fill="#7f6eee" d="M1475.33 1618.88s32.2-47.06-29.72-27.24c0 0 0-59.44-12.38-61.92s-29.72 34.67-29.72 34.67c2.48-76.78-47.06-151.08-81.73-111.45-26.75 30.57-32.2 86.69-32.2 86.69s-32.2-24.77-39.63-17.34 0 52 0 52-49.53-32.2-61.92-9.91 17.34 76.78 17.34 76.78c-37.15-14.86-47.06-27.24-54.49-9.91-14.86 34.67 19.81 74.3 19.81 74.3h307.11c81.74-91.62 44.59-118.87-2.47-86.67Z" class="coloree8b6e svgShape"></path><path fill="#9989fc" d="M1725.48 1544.58s14.86-49.53 0-52c-34.67 0-96.59 104-69.35 104 71.87-4.94 123.87-49.53 69.35-52ZM977.55 1571.82c-10.15 1.69 0 35.52 0 35.52-37.22 1.69-1.69 32.14 47.37 35.52 18.6.01-23.69-71.04-47.37-71.04ZM1599.27 1683.27c-10 15.8 74.39-12.73 64.18-32.5s-49.97 10.01-64.18 32.5Z" class="colorfccd89 svgShape"></path><path fill="#bbb0ff" d="M1343.56 1644.71c-12.92 2.41-2.82 30 7.49 41.85 7.23 8.34 5.43-44.26-7.49-41.85ZM1205.36 1658.51c-2.48 5 17.34 30.72 17.34 14.86 0-4.96-14.86-19.82-17.34-14.86ZM1373.94 1675.53c0 8.5 10.63-5.31 9.3-8s-9.3 5.34-9.3 8ZM1287.1 1666.22c-3 0 .41 10.7 2.77 11.93 7.54 3.93.2-11.88-2.77-11.93ZM1485.56 1644.41c-10.43-8.31-23.49 12.64-20.19 19.74s31.15-11.01 20.19-19.74Z" class="colorfff5b0 svgShape"></path><path fill="#6f61c5" d="M1171 1709.48a3.51 3.51 0 0 1-2.66-1.22 132.9 132.9 0 0 1-18.73-30.42c-10-23.27-8.33-42.89 5-56.75l.42-.37c9.48-7.16 30.63 4.56 43.48 13l-14.92-39.34a3.5 3.5 0 0 1 6.54-2.48l23.22 61.24-9.65-7.23c-14.11-10.58-37.76-24-44.26-19.75-27 28.59 13.83 77 14.25 77.54a3.5 3.5 0 0 1-2.66 5.77ZM1403.7 1565a3.5 3.5 0 0 1-3.46-3.54c0-.55.4-55.51-24.45-92.27a3.5 3.5 0 0 1 5.8-3.92c26.09 38.61 25.68 93.94 25.65 96.28a3.49 3.49 0 0 1-3.54 3.45Z" class="colorc56161 svgShape"></path><path fill="#bbb0ff" d="M1066.67 1927v470.08s-378.94-84.73-361.6-141.69c5.4-17.68 18.63-27 34.35-31.48 35-9.91 82.05 4.24 82.05 4.24s-66.87-76.78-64.4-104 34.67-24.77 34.67-24.77c-61.92-29.72-79.26-99.07-69.35-111.45s34.67-14.86 34.67-14.86-27.24-57-4.95-66.87 74.3 9.91 74.3 9.91c-24.77-52-7.43-113.93 7.43-116.41s81.73-14.86 141.17 54.49c0 0 14.86-37.15 34.67-34.67s56.99 107.48 56.99 107.48Z" class="colorfff5b0 svgShape"></path><path fill="#9989fc" d="M1066.67 1945.66s-34.7-98.12-53.21-100.43-32.39 32.39-32.39 32.39c-55.52-64.78-118-53.21-131.87-50.9s-30.08 60.15-6.94 108.73c0 0-48.58-18.51-69.4-9.25s4.63 62.46 4.63 62.46-23.13 2.31-32.39 13.88 6.94 76.35 64.78 104.11c0 0-30.08-2.31-32.39 23.13s60.15 97.22 60.15 97.22-92.54-27.76-108.73 25.45 337.77 132.36 337.77 132.36v-439.1Z" class="colorfccd89 svgShape"></path><path fill="#7f6eee" d="M999.79 1997.82s-47.06-79.26-74.3-69.35-7.43 64.4-7.43 64.4-44.58-14.86-59.44 2.48c-16.12 18.8 39.63 76.78 39.63 76.78s-39.63-19.81-54.49 0 17.34 99.07 96.59 153.56c-19.81 9.91 19.81 34.67 19.81 34.67-57-7.43-2.48 95.19 106.5 123.14v-363.38c-14.85-75.12-66.87-22.3-66.87-22.3Z" class="coloree8b6e svgShape"></path><path fill="#bbb0ff" d="M1027.86 2230c-4.45 7.34 13.36 14.42 23.61 14.57 7.22.06-19.16-21.95-23.61-14.57ZM1035 2329.93c3.24 1.6 20-11.41 9.65-11.36-3.26.01-12.92 9.76-9.65 11.36ZM1045.57 2219.85c5.55 0-3.5-6.92-5.23-6s3.49 6 5.23 6ZM1039.76 2276.56c0 1.94 7-.3 7.78-1.84 2.54-4.94-7.76-.1-7.78 1.84ZM1024.92 2147.09c-5.39 6.84 8.32 15.29 12.94 13.12s-7.28-20.3-12.94-13.12Z" class="colorfff5b0 svgShape"></path><path fill="#6f61c5" d="M1066.67 2387a2.89 2.89 0 0 1-.5 0c-.78-.11-19.33-2.84-44-14.74a196.9 196.9 0 0 1-79.79-70.7l-.15-.25c-9.34-17.56-10.74-30.59-4.17-38.72a18.69 18.69 0 0 1 10.17-6.26c-6.57-5-14.46-12.43-16.63-20.37a3.5 3.5 0 1 1 6.75-1.85c2.53 9.27 17.43 19.46 23 22.6l25.36 14.42-28.05-8c-4-1.15-11.41-.72-15.12 3.87-4.5 5.56-2.78 16.53 4.84 30.9 45.87 71.07 118 82.07 118.76 82.18a3.5 3.5 0 0 1-.48 7ZM940.91 2229.78a3.48 3.48 0 0 1-1.88-.55c-2.25-1.44-55.4-35.83-84.53-90.21a3.5 3.5 0 0 1 6.17-3.31c28.27 52.79 81.59 87.27 82.13 87.62a3.5 3.5 0 0 1-1.89 6.45Z" class="colorc56161 svgShape"></path><path fill="#9c92dd" d="M2385.87 1836.83H1065.09a13.28 13.28 0 0 0-13.28 13.28v8.11a13.28 13.28 0 0 0 13.28 13.28h1320.78a13.29 13.29 0 0 0 13.28-13.28v-8.11a13.29 13.29 0 0 0-13.28-13.28Z" class="color92b1dd svgShape"></path><path fill="#d2ceee" d="M1725.48 1871.51v589.54q-33 3.12-67.24 4.88h-194.47c-142.73-7.11-270.31-29.35-383-64.54q-7.07-2.19-14-4.46v-525.41h658.8Z" class="colorcedbee svgShape"></path><path fill="#b3aed3" d="M1725.48 2010.2V2461q-33 3.12-67.24 4.88h-194.47c-142.73-7.11-270.31-29.35-383-64.54q-7.07-2.19-14-4.46V2010.2Z" class="coloraec5d3 svgShape"></path><path fill="#b3aed3" d="M2384.29 1871.51v319.23a874.87 874.87 0 0 1-111.7 89.31 962.37 962.37 0 0 1-144 79.85c-115 51.76-249.26 86.78-403.14 101.15v-589.54Z" class="coloraec5d3 svgShape"></path><path fill="#9c92dd" d="M2384.29 2010.2v180.53a874.87 874.87 0 0 1-111.7 89.31 962.37 962.37 0 0 1-144 79.85c-115 51.76-249.26 86.78-403.14 101.15V2010.2Z" class="color92b1dd svgShape"></path><circle cx="1396.07" cy="1933.43" r="32.2" fill="#9c92dd" class="color92b1dd svgShape"></circle><path fill="#b3aed3" d="m1372 1965.38-7.87-7.87a8 8 0 0 1 0-11.39l44.65-44.65a8 8 0 0 1 11.39 0l7.87 7.87a8 8 0 0 1 0 11.39l-44.65 44.65a8 8 0 0 1-11.39 0Z" class="coloraec5d3 svgShape"></path><path fill="#2b293b" d="M1677.18 2252.92a18.58 18.58 0 0 1-18.58-18.58V2132.8a18.58 18.58 0 0 1 18.58-18.58 18.58 18.58 0 0 1 18.58 18.58v101.55a18.57 18.57 0 0 1-18.58 18.57Z" class="color343b29 svgShape"></path><circle cx="2054.88" cy="1933.43" r="32.2" fill="#9c92dd" class="color92b1dd svgShape"></circle><path fill="#d2ceee" d="M2060.45 1973.05h-11.14a8.05 8.05 0 0 1-8-8v-63.15a8.05 8.05 0 0 1 8-8h11.14a8.05 8.05 0 0 1 8.06 8v63.1a8.06 8.06 0 0 1-8.06 8.05Z" class="colorcedbee svgShape"></path><path fill="#2b293b" d="M1773.77 2252.92a18.58 18.58 0 0 0 18.58-18.58V2132.8a18.58 18.58 0 0 0-18.58-18.58 18.58 18.58 0 0 0-18.58 18.58v101.55a18.57 18.57 0 0 0 18.58 18.57Z" class="color343b29 svgShape"></path><path fill="#1c1b26" d="M1108.77 2228.16c7.43 19.81 24.77 19.81 22.29 49.53s-37.15 32.2-39.63 52 22.29 27.24 12.38 44.58c-5.13 9-14.88 19.27-23.11 27.1q-7.07-2.19-14-4.46v-351.1c17.34-13.32 29.72 36.21 27.24 46.12s34.67-9.91 47.06 22.29-39.66 94.12-32.23 113.94Z" opacity=".27" class="color22261b svgShape"></path><path fill="#7764f0" d="M1726 2465.18a3.5 3.5 0 0 1-3.5-3.49l-.56-278.11a3.51 3.51 0 0 1 3.49-3.51 3.5 3.5 0 0 1 3.5 3.49l.56 278.11a3.49 3.49 0 0 1-3.5 3.51ZM1725.76 2162.48a3.5 3.5 0 0 1-3.5-3.5v-37.48a3.5 3.5 0 0 1 7 0v37.5a3.5 3.5 0 0 1-3.5 3.48ZM2015.62 2011.09l-125.3-.61a3.5 3.5 0 0 1 0-7l125.3.61a3.5 3.5 0 0 1 0 7ZM2136 2011.09h-68.21a3.5 3.5 0 0 1 0-7H2136a3.5 3.5 0 0 1 0 7Z" class="color7394bd svgShape"></path><path fill="#9c92dd" d="M1334.82 2004.09h157.83v7h-157.83zM1525.41 2004.76h61.53v7h-61.53zM1490.19 532.09v658.32h-24.77v-657.7q12.3-.37 24.77-.62ZM1193 560.25v630.16h-24.77V565c8.16-1.65 16.43-3.21 24.77-4.75Z" class="color92b1dd svgShape"></path><path fill="#b3aed3" d="M1770.06 1223.89v113.29a436.53 436.53 0 0 0-43.57-24.32c-99.69-48.69-240-76.63-384.91-76.63s-285.22 27.94-384.91 76.63a437.65 437.65 0 0 0-43.57 24.32v-113.29c61.92-30.27 137.19-54 221.12-68.93 64.69-11.54 134.51-17.81 207.35-17.81a1195.92 1195.92 0 0 1 185.61 14.17c92.69 14.54 175.66 39.68 242.88 72.57Z" class="coloraec5d3 svgShape"></path><path fill="#1c1b26" d="M1770.06 1223.89v45.6c-24.2 1.16-53.55-21-84.21-44.41-42.1-32.2-113.93-12.38-121.36-22.29s0-17.34-19.81-27.24c-14.79-7.41-22.69-12-17.48-24.22 92.67 14.53 175.64 39.67 242.86 72.56zM1118.68 1202.79c-19.81 9.91-22.29-7.43-59.44 9.91-33.61 15.68-65.19 71.92-146.13 53.15v-42c61.92-30.27 137.19-54 221.12-68.93.59 7.18 8.62 8.45 16.64 18.1 12.39 14.91-12.38 19.86-32.19 29.77z" opacity=".27" class="color22261b svgShape"></path><path fill="#9c92dd" d="M1341.58 1194.72c-144.92 0-285.21 27.93-384.9 76.63a436.53 436.53 0 0 0-43.57 24.32v42.1a438.54 438.54 0 0 1 43.57-24.32c99.69-48.7 240-76.63 384.9-76.63s285.21 27.93 384.9 76.63a436.53 436.53 0 0 1 43.57 24.32v-42.1a438.54 438.54 0 0 0-43.57-24.32c-99.68-48.7-239.97-76.63-384.9-76.63ZM1149.31 1155.89a3.5 3.5 0 0 1-.72-6.93c.4-.08 40.43-8.43 104.39-13.06 59-4.27 151.07-6.17 254.75 9a3.5 3.5 0 1 1-1 6.93c-103-15.07-194.47-13.19-253.08-9-63.53 4.59-103.21 12.85-103.6 12.94a3.63 3.63 0 0 1-.74.12ZM636.89 1318.56c-3.3 9.34 15 40.56 22.39 39.65s49.78-21.16 49.17-26.07-13.49-28.27-19.32-35-50.4 16.2-52.24 21.42Z" class="color92b1dd svgShape"></path><path fill="#9c92dd" d="M637.64 1552.64a8.67 8.67 0 0 1-2.57-16.94c28.72-8.94 48.18-29.25 57.81-60.36 13.83-44.64 2.53-102.27-16.25-126.07a8.67 8.67 0 1 1 13.6-10.75c21.82 27.64 35.36 89.77 19.2 141.94-11.27 36.37-35.2 61.2-69.22 71.79a8.81 8.81 0 0 1-2.57.39Z" class="color92b1dd svgShape"></path><path fill="#d2ceee" d="M477.2 1204a6.19 6.19 0 1 0 0 12.38 220.16 220.16 0 0 1 156.67 65 6.19 6.19 0 1 0 8.76-8.76A232.5 232.5 0 0 0 477.2 1204ZM656.41 1208.93a288.82 288.82 0 0 0-103.28-51.82 6.19 6.19 0 1 0-3.23 12 276.73 276.73 0 0 1 98.88 49.61 6.19 6.19 0 1 0 7.63-9.74ZM281.55 1381.48a6.19 6.19 0 0 0-12.06-2.8A232.43 232.43 0 0 0 299 1555.33a6.19 6.19 0 0 0 5.26 2.92 6.12 6.12 0 0 0 3.27-.94 6.19 6.19 0 0 0 2-8.53 220.1 220.1 0 0 1-27.98-167.3ZM236.38 1435.38a6.19 6.19 0 1 0-12.37.45 288.76 288.76 0 0 0 27.14 112.32 6.19 6.19 0 1 0 11.22-5.24 276.29 276.29 0 0 1-25.99-107.53Z" class="colorcedbee svgShape"></path><circle cx="477.2" cy="1438.08" r="168.42" fill="#b3aed3" class="coloraec5d3 svgShape"></circle><circle cx="477.2" cy="1438.08" r="22.29" fill="#d2ceee" class="colorcedbee svgShape"></circle><path fill="#9c92dd" d="m440.05 1613.93 24.77 44.58 198.14-96.59-22.29-47.06-200.62 99.07z" class="color92b1dd svgShape"></path><path fill="#d2ceee" d="M452.8 1311.27c-9.69 23.94 56.82 47.82 70.48 29.12s-58.05-59.82-70.48-29.12Z" class="colorcedbee svgShape"></path><path fill="#7764f0" d="M454.92 1608.53a3.15 3.15 0 0 1-.53 0c-57.3-8.79-91.53-37.48-110.16-60-20.23-24.53-26.78-46.62-27.05-47.53a3.5 3.5 0 0 1 6.72-1.94c.11.37 6.59 22 25.92 45.24 17.84 21.49 50.65 48.87 105.62 57.3a3.49 3.49 0 0 1-.52 7ZM311.11 1469.57a3.5 3.5 0 0 1-3.45-3 213 213 0 0 1-1-47.37c2.14-24.49 9.61-59 33.09-84.46a3.5 3.5 0 0 1 5.15 4.75c-42.52 46.06-30.48 125.18-30.35 126a3.51 3.51 0 0 1-2.91 4 2.71 2.71 0 0 1-.53.08Z" class="color7394bd svgShape"></path><path fill="#7764f0" d="M440 1617.86a3.5 3.5 0 0 1-1.56-6.63l124.14-61.72a3.5 3.5 0 0 1 3.11 6.27l-124.13 61.72a3.52 3.52 0 0 1-1.56.36ZM585.71 1545.5a3.5 3.5 0 0 1-1.59-6.62s11-5.54 21.91-11c6.37-3.2 11.46-5.73 15.12-7.53 2.08-1 3.83-1.87 5.05-2.45 1.95-.92 4.9-2.31 6.51.65.39.71 1.38 3.18-2 5.14a3.46 3.46 0 0 1-1.37.45c-5.9 2.78-28 13.89-42.08 21a3.22 3.22 0 0 1-1.55.36Z" class="color7394bd svgShape"></path><path fill="#9c92dd" d="m2362.8 1194.35-13.04 49.3-215.81-44.88 10.03-51.1 218.82 46.68z" class="color92b1dd svgShape"></path><path fill="#b3aed3" d="m2346.05 1191 25.75-130a90.4 90.4 0 0 0-71.11-106.24 90.4 90.4 0 0 0-106.24 71.11l-25.75 130Z" class="coloraec5d3 svgShape"></path><path fill="#d2ceee" d="M2278.41 1078.48s-14.06 17-30.5 24c-5.76 2.41-11.78 3.59-17.62 2.35-22.5-4.76-7.74-74.59 14.76-69.83 5.92 1.25 11 4.85 15.34 9.48 12.11 12.93 18.02 34 18.02 34Z" class="colorcedbee svgShape"></path><path fill="#9c92dd" d="M2247.91 1102.43c-5.76 2.41-11.78 3.59-17.62 2.35-22.5-4.76-7.74-74.59 14.76-69.83 5.92 1.25 11 4.85 15.34 9.48-11.13 15.09-16.67 37.84-12.48 58Z" class="color92b1dd svgShape"></path><path fill="#d2ceee" d="M2282.87 1079.42s6 21.29 18.19 34.24c4.29 4.54 9.32 8 15.16 9.28 22.5 4.76 37.26-65.08 14.76-69.83-5.92-1.25-12.05 0-17.87 2.46-16.32 6.98-30.24 23.85-30.24 23.85Z" class="colorcedbee svgShape"></path><path fill="#9c92dd" d="M2301.06 1113.67c4.29 4.54 9.32 8 15.16 9.28 22.5 4.76 37.26-65.08 14.76-69.83-5.92-1.25-12.05 0-17.87 2.46 4.09 18.3-.06 41.34-12.05 58.09Z" class="color92b1dd svgShape"></path><path fill="#d2ceee" d="M2433.3 964.86a6.19 6.19 0 1 0-11.56 4.42 220.18 220.18 0 0 1-4.8 169.55 6.19 6.19 0 1 0 11.31 5.05 232.52 232.52 0 0 0 5.05-179.02ZM2492.68 1134a288.91 288.91 0 0 0 11.54-115 6.19 6.19 0 0 0-12.32 1.24 276.55 276.55 0 0 1-11.05 110.07 6.1 6.1 0 0 0 .13 4 6.19 6.19 0 0 0 11.7-.36ZM2203.51 920a6.19 6.19 0 1 0-7.34-10 232.48 232.48 0 0 0-92.54 153.34 6.19 6.19 0 0 0 12.24 1.86 220.22 220.22 0 0 1 87.64-145.2ZM2120.34 920.35a6.19 6.19 0 1 0-9.39-8.07 288.9 288.9 0 0 0-56.33 100.89 6.2 6.2 0 0 0 1.7 6.44 6.31 6.31 0 0 0 2.32 1.35 6.18 6.18 0 0 0 7.78-4 276.51 276.51 0 0 1 53.92-96.61Z" class="colorcedbee svgShape"></path><path fill="#7764f0" d="M2239.75 1171.6a3.49 3.49 0 0 1-.71-.07l-96.39-19.87a3.5 3.5 0 0 1 1.41-6.85l96.39 19.87a3.5 3.5 0 0 1-.7 6.92ZM2325.62 1190.44a3.92 3.92 0 0 1-.76-.08l-54.14-12.07a3.5 3.5 0 1 1 1.53-6.83l54.14 12.07a3.5 3.5 0 0 1-.77 6.91Z" class="color7394bd svgShape"></path><path fill="#7764f0" d="M2168.7 1159.35a3.14 3.14 0 0 1-.68-.07 3.49 3.49 0 0 1-2.75-4.11l24-121.13a3.5 3.5 0 1 1 6.86 1.36l-24 121.13a3.51 3.51 0 0 1-3.43 2.82ZM2197.48 1018a3.49 3.49 0 0 1-3.33-4.55c.17-.55 4.42-13.75 16.31-28.19 11-13.32 30.77-30.25 62.9-35.18a3.5 3.5 0 1 1 1.06 6.92c-57.26 8.8-73.44 58.07-73.59 58.56a3.52 3.52 0 0 1-3.35 2.44Z" class="color7394bd svgShape"></path><path d="M1660.66 1958.51s-71 38.44-66.22 49.52 21.11 4.43 25.19 15.51-24.52 19.94-24.52 35.45 18.39 17.73 24.52 22.16-8.17 11.08-6.13 35.45 38.83-8.86 55.18-15.51 22.48-4.43 22.48 11.08 4.09 19.94 26.57 6.65 67.44-22.16 98.09-31 59.26-24.37 38.83-44.32c0 0 16.35-4.43 14.31-19.94s-55-17.73-62.23-15.51-15.83-38.4-16.65-59.08-9-7.39-31.48-11.82-89.92 19.94-89.92 19.94Z" style="isolation:isolate" fill="#1c1b26" opacity=".27" class="color22261b svgShape"></path><path fill="#9989fc" d="M1846.84 2049.83c6.17 7.38.08 21.52-22.56 32.64-21.6 10.63-58.25 18.48-113.68 15.11a105.7 105.7 0 0 1-19.12-2.87 100 100 0 0 1-28.85-12.06 83.65 83.65 0 0 1-13.92-10.53c-64.4-61.92-9.91-126.31 22.29-148.6a3.12 3.12 0 0 0 .35-.25c31.78-21.77 21.94 15.11 21.94 15.11 69.35-47.06 96.59-32.2 69.35 12.38 74.3-44.58 96.59-39.63 106.5-27.24s-9.91 54.49-9.91 54.49 27.24-7.43 34.67 12.38-47.06 59.44-47.06 59.44Z" class="colorfccd89 svgShape"></path><path fill="#bbb0ff" d="M1846.84 2049.83c6.17 7.38.08 21.52-22.56 32.64 7.28-7.06 14-14.84 15.13-20.26 2.48-12.38-17.34-9.91-17.34-9.91s54.49-42.1 54.49-57-27.24-12.38-27.24-12.38 7.43-29.72-5-44.58c-12.24-14.69-84.93 21.42-86.66 22.27.37-.79 9.68-20.09 0-34.65s-67.84 16.52-69.32 17.31c3.91-10.5-.52-23.11-17-20 31.78-21.77 21.94 15.11 21.94 15.11 69.35-47.06 96.59-32.2 69.35 12.38 74.3-44.58 96.59-39.63 106.5-27.24s-9.91 54.49-9.91 54.49 27.24-7.43 34.67 12.38-47.05 59.44-47.05 59.44Z" class="colorfff5b0 svgShape"></path><path fill="#7f6eee" d="M1772.54 2032.49c9.91-7.43 12.38-19.81-4.86-22.29 12.48-12.38 22.2-39.63-47.15-12.38 0 0 5-27.24-5-32.2s-94.12 19.81-75.75 97.07l5.81 6.38c58.9 58.93 156.67-16.76 126.95-36.58Z" class="coloree8b6e svgShape"></path><path fill="#b6aaff" d="M2124.48 1859.79c-39.3 18.23-94.58 38.14-121.61 21.62-44.58-27.24-34.67-220.43-34.67-220.43s-1.22-35-1.2-56c0-8.9-2.16-14.41 0-15 9.76-2.69 29.33-46.28 44-25 66-72 132 114 21.59 110.84 5 39.63 32.2 109 32.2 109l26.72-18.38 12.9-8.87s45.59 90.43 20.07 102.22Z" class="colorffb0aa svgShape"></path><path fill="#8979f2" d="M2124.48 1859.79c-39.3 18.23-94.58 38.14-121.61 21.62-44.58-27.24-34.67-220.43-34.67-220.43a109.91 109.91 0 0 1 12.28-4.09c-.25 39.65-.2 175.35 12.48 177.46 14.61 2.43 48.44-19.12 49.51-19.79-.77 1.29-29.57 49.51-19.79 49.51s59.44-12.38 63.6-27.24c2.82-10.06 4.46-47.33 5.23-70.39l12.9-8.87s45.59 90.43 20.07 102.22Z" class="colorf27988 svgShape"></path><path fill="#786cc5" d="m2201 1846.74-81.73 39.63c-3.81-4.9-6.89-14.09-9.39-25.46-8.92-40.4-10.43-108.28-10.43-108.28l93.05-69.87 3 58.15Z" class="color6cc58d svgShape"></path><path fill="#5346a7" d="m2201 1846.74-81.73 39.63c-3.81-4.9-6.89-14.09-9.39-25.46 23.48 6 62.29-19.34 66.35-31.5 5-14.86 14.86-87.21 14.86-87.21l4.43-1.29Z" class="color46a77c svgShape"></path><path fill="#b6aaff" d="M2055.84 1679.25c8.95 13.94 35.43-3.09 29.62-23.06s-33.06-12.54-35.53-5.11 5.91 28.17 5.91 28.17Z" class="colorffb0aa svgShape"></path><path fill="#8979f2" d="M2010.94 1843.23a3.5 3.5 0 0 1-2.12-6.28c.33-.25 33.09-25.28 46-45.88a3.5 3.5 0 1 1 5.93 3.71c-13.56 21.7-46.28 46.69-47.66 47.75a3.54 3.54 0 0 1-2.15.7Z" class="colorf27988 svgShape"></path><path fill="#b6aaff" d="M2077.17 1532.19c0 7.43-9.91 9.91-9.91 9.91 0 9.91-14.86 17.34-14.86 17.34 0 14.86-14.86 12.38-14.86 12.38 0 17.34-22.29 14.86-22.29 14.86-5-2.48-39-1.09-39-1.09l-13.52 11.86s-4.43-23.16-4.43-25.63c0-.67 5-6.14 12.34-13.8 19.54-20.38 55.9-56.22 59.49-58 5-2.48 24.77-5 29.72 0 3.17 3.17 9.41 12.46 13.45 20.66 2.29 4.58 3.87 8.84 3.87 11.51Z" class="colorffb0aa svgShape"></path><path fill="#8979f2" d="M2077.17 1532.19c0 7.43-9.91 9.91-9.91 9.91 0 9.91-14.86 17.34-14.86 17.34 0 14.86-14.86 12.38-14.86 12.38 0 17.34-22.29 14.86-22.29 14.86-5-2.48-39-1.09-39-1.09l-13.52 11.86s-4.43-23.16-4.43-25.63c0-.67 5-6.14 12.34-13.8 9.34 10 44.78 8.2 52.06 6.37 9.91-2.48 9.91-14.86 9.91-14.86 14.86-2.48 22.29-17.34 17.34-19.81-4.66-2.33-20.16-9-22.09-9.83 2.45.64 28.06 7.41 45.45.77 2.28 4.6 3.86 8.86 3.86 11.53Z" class="colorf27988 svgShape"></path><path fill="#9c92dd" d="M1926.09 1633.74c2.48 7.43 52 91.64 59.44 94.12s118.88-86.69 118.88-86.69v-163.46s-180.79 148.6-178.32 156.03Z" class="color92b1dd svgShape"></path><path fill="#2e2757" d="M1989.75 1706.36c-11.76-16.72-33.7-53.35-43.19-70.55 18.87-18.74 78.93-70.19 140.52-121.3v118.31c-37.78 30.06-78.83 61.34-97.33 73.54Z" class="color273657 svgShape"></path><path fill="#786cc5" d="M2024.3 1657.58c3.34-1.55 15.72-18.89 15.72-21.36s-9.91-7.43-9.91-7.43 17.34-32.2 19.81-32.2 7.43 5 9.91 5 17.34-14.86 14.86-19.81-32.2-14.86-54.49 22.29.8 55.06 4.1 53.51Z" class="color6cc58d svgShape"></path><path fill="#5c529e" d="m2469.15 1920.72-3.27-4.76-4.19 3.94a109.69 109.69 0 0 0-25.61 35.79c-11.09 24.84-9.59 46.29-9.49 47.6l.07 1 7 14 .57 1.11 3.86 7.63.74 1.49 8 15.93 2.45.42c1.51.25 3 .5 4.43.69a102.5 102.5 0 0 0 13.45 1h1.93a57.12 57.12 0 0 0 8.35-.77c10.65-1.71 18.43-6.32 23.21-13.82 17.15-26.77-11.76-82.52-31.5-111.25Zm23.24 105.83c-3.86 6-11.12 9.39-21.57 10h-1.44a82.2 82.2 0 0 1-15.06-1 8 8 0 0 1-.82-.1l-6-12-1.88-3.69-.94-1.88-4.73-9.41-3.47-6.86a97.61 97.61 0 0 1 4.21-29.4 100 100 0 0 1 23.63-40.94c19.15 29.42 40.6 75.66 28.07 95.28Z" class="color9e525c svgShape"></path><path fill="#2e2757" d="M2493 2071.28q-11.4 15.87-23.63 31.23-9.69 12.18-19.89 24a799.393 799.393 0 0 1-16.45 18.63l5.89-116.73.07-1.78.37-7.16.07-1.46.5-9.58.15-3.12.25-5s2.08 2.2 5.47 6c2.13 2.38 4.78 5.35 7.75 8.82 4.76 5.55 10.33 12.28 15.9 19.59.47.59.92 1.21 1.39 1.83 2.25 3 4.51 6.07 6.71 9.19a184.72 184.72 0 0 1 15.45 25.54Z" class="color273657 svgShape"></path><path fill="#1b1544" d="M2469.18 2046.46c-.3 18.67-.44 40.72.15 56.05q-9.69 12.18-19.89 24a799.393 799.393 0 0 1-16.45 18.63l5.89-116.73.07-1.78.37-7.16.07-1.46.5-9.58.15-3.12 5.72.92c2.13 2.38 4.78 5.35 7.75 8.82 4.76 5.55 10.33 12.28 15.9 19.59v1.88c-.08 3.18-.16 6.48-.23 9.94Z" class="color152644 svgShape"></path><path fill="#6f61c5" d="m2455.16 2020.11-.84 15.43-.52 10-4.36 81.06a799.393 799.393 0 0 1-16.45 18.63c-4.21 4.66-8.49 9.24-12.85 13.8q-15.42 16.23-31.85 31.75a874.87 874.87 0 0 1-111.7 89.31 962.37 962.37 0 0 1-144 79.85c8.94-31.53 21.87-77.15 35-123.27 24-84.53 48.57-170.67 49.81-174.41s.62-13-.3-21.37-2.18-15.78-2.18-15.78l20.26-.64h.17a7.47 7.47 0 0 0 1.16 0h.07l151.7-4.76 29.74-.92 16.25.62 5.05.17 6.24.25Z" class="colorc56161 svgShape"></path><path fill="#5c529e" d="M2276.59 2280a962.37 962.37 0 0 1-144 79.85c8.94-31.53 21.87-77.15 35-123.27 27.93 37.27 68.55 47.2 109 43.42ZM2455.16 2020.11l-.84 15.43-.52 10-4.36 81.06a799.393 799.393 0 0 1-16.45 18.63c-4.21 4.66-8.49 9.24-12.85 13.8.35-42.77-1-99.19-1.71-126-.17-7.16-.32-12.19-.4-14.29l15.68-.5 5.7-.17 5.23-.17 8.05-.25Z" class="color9e525c svgShape"></path><path fill="#b6aaff" d="m2738.46 2067.17-57 14.86-52.63-88.74-34.06-57.39-133.74-89.16 47.06-94.12s7.55 6.89 19.19 17.61c33.56 30.86 101.1 93.42 119.5 113.66 24.81 27.24 91.68 183.28 91.68 183.28Z" class="colorffb0aa svgShape"></path><path fill="#b6aaff" d="M2775.61 2146.42c-2.48 7.43-9.91 4.95-9.91 4.95-7.43 9.91-22.29 9.91-22.29 9.91a26.84 26.84 0 0 1-2.82 2c-11 6.46-19.44-2-19.44-2-12.38 9.91-22.29 9.91-27.24 4.95s-17.34-42.1-17.34-42.1c-4.24 2.55-9.07 3.64-12.38 1.58-6.37-3.94-7.16-19.47 12.38-58.55 29.72-59.44 54.49-7.43 54.49-7.43s22.29 14.86 29.72 34.67 17.31 44.6 14.83 52.02Z" class="colorffb0aa svgShape"></path><path fill="#8979f2" d="m2628.87 1993.29-34.06-57.39-133.74-89.16 47.06-94.12s7.55 6.89 19.19 17.61c-1.64 19.27-6.79 68.56-16.72 76.51-12.38 9.91 74.3 71.83 84.21 76.78 9.66 4.83 28.73-4.46 29.7-4.93-.6.74-12.36 15-12.36 19.79 0 3.34 10.1 34.75 16.72 54.91ZM2740.57 2163.24c-11 6.46-19.44-2-19.44-2-12.38 9.91-22.29 9.91-27.24 4.95s-17.34-42.1-17.34-42.1c-4.24 2.55-9.07 3.64-12.38 1.58 10-3.57 17.34-16.45 17.34-16.45s12.38 49.53 19.81 54.49 19.81 0 17.34-22.29c-.01.05 4.22 23.73 21.91 21.82Z" class="colorf27988 svgShape"></path><path fill="#8979f2" d="M2596.77 1934.18a3.5 3.5 0 0 1-.71-6.93c.37-.08 37.06-8.06 48.26-37.93a3.5 3.5 0 1 1 6.56 2.46c-12.57 33.52-51.73 42-53.39 42.33a3.65 3.65 0 0 1-.72.07Z" class="colorf27988 svgShape"></path><path fill="#786cc5" d="M2526.7 1744s-17.34 62.81-60.11 119.58q-4.43 5.91-9.24 11.69l-46.93-32.12-.12-.07c.2 2.82.45 5.72.77 8.67 1.21 12 3.22 24.94 5.7 38.09 11.81 62.61 34.38 130.3 34.38 130.3-91.64 42.1-245.2 19.81-245.2 19.81-32.2-94.12-12.38-374-12.38-374l20.41-3.59 84.85-15h44.58l27.42 14.46Z" class="color6cc58d svgShape"></path><path fill="#6f61c5" d="M2451.16 2020.11c-91.64 42.1-245.2 19.81-245.2 19.81-13.75-40.15-18-114.1-18.4-185.71-.5-96.25 6-188.28 6-188.28l20.41-3.59c-1 16.58-.63 41.93-.59 65.51v59.44c24.77 12.38 94.12 9.91 94.12 9.91 0-55.4 30.12-138.77 34.2-149.84h1.71l21.55 11.37 5.87 3.1c-19.34 55.08-13.8 140.33-13.8 140.33l27.49 40.35 32.22 47.28c11.86 62.63 34.42 130.32 34.42 130.32Z" class="colorc56161 svgShape"></path><path fill="#5346a7" d="M2466.59 1863.53q-4.43 5.91-9.24 11.69l-46.93-32.12-3.84-50.85s27.64 57.26 60.01 71.28ZM2219.23 1687.74s13.07 73.76 28 76.26c35.56 6 64.91-102.62 65-103s-93 26.74-93 26.74Z" class="color46a77c svgShape"></path><path fill="#5c529e" d="M2451.16 2020.11c-91.64 42.1-245.2 19.81-245.2 19.81-13.75-40.15-18-114.1-18.4-185.71s18.38 173.37 44.93 170.23 181.5-14.19 181.5-24.1c0-8.42-21.52-108.38-29.47-157.79l32.22 47.28c11.86 62.59 34.42 130.28 34.42 130.28ZM2357 1802.16l-7.43-9.91c-7.43-42.8 7.48-105.14 15.36-133.52l5.87 3.1c-19.3 55.08-13.8 140.33-13.8 140.33ZM2213.19 1682.75l5.16.52v99.07c0 2.48 57.12 14.86 89.24 9.91l-.08 5s-69.35 2.48-94.12-9.91Z" class="color9e525c svgShape"></path><path fill="#46406e" d="M2302.36 2050.48c-55.82 0-97.56-7.9-98.15-8a3.5 3.5 0 0 1 1.33-6.87c.82.16 83.41 15.78 171.36 2.65a3.5 3.5 0 0 1 1 6.93 516.61 516.61 0 0 1-75.54 5.29ZM2406.58 2038.47a3.5 3.5 0 0 1-1-6.84l36.88-11.51a3.5 3.5 0 1 1 2.08 6.68l-36.88 11.51a3.41 3.41 0 0 1-1.08.16Z" class="color6e404a svgShape"></path><path fill="#5346a7" d="M2413.53 1840.56a3.49 3.49 0 0 1-3.44-2.9c-.09-.54-9.4-54.48-6.74-105.11a3.5 3.5 0 0 1 7 .37c-2.62 49.85 6.55 103 6.64 103.54a3.5 3.5 0 0 1-2.84 4 4.3 4.3 0 0 1-.62.1Z" class="color46a77c svgShape"></path><path fill="#46406e" d="M2251 1891.69a71.68 71.68 0 0 1-7.8-.33 3.5 3.5 0 0 1 .86-6.95c.29 0 21.65 2.4 67-8a3.5 3.5 0 0 1 1.56 6.82c-31.4 7.23-51.49 8.46-61.62 8.46ZM2291.82 1914.12a3.44 3.44 0 0 1-2.47-1 3.49 3.49 0 0 1 0-4.95c2-2 6.56-3 19.09-5.41 7.32-1.4 15.62-3 21.07-4.8a3.5 3.5 0 1 1 2.22 6.64c-5.89 2-14.43 3.59-22 5-5.9 1.13-14 2.67-15.61 3.63a3.55 3.55 0 0 1-2.3.89Zm2.47-1Z" class="color6e404a svgShape"></path><path fill="#2b293b" d="M2510.6 1552c15.83 52-73.68 102-111.95 10.28a179.29 179.29 0 0 1-9.41-30.09v-101.54a102.22 102.22 0 0 1 15.31-14.22c33.39-24.94 61.47-8.07 61.47-8.07s17.34-29.72 59.44-17.34c27.24 7.43 32.2 54.49 7.43 66.87 54.49 32.2 14.86 101.55-22.29 94.11Z" class="color343b29 svgShape"></path><path fill="#1c1b26" d="M2398.65 1562.29a179.29 179.29 0 0 1-9.41-30.09v-101.55a102.22 102.22 0 0 1 15.31-14.22c14.27 13.45 16.52 39.08-.44 63.75 39.1 30.42 17.23 72.27-5.46 82.11Z" class="color22261b svgShape"></path><path fill="#b6aaff" d="M2087.08 1420.74s-4.95 222.91 2.48 242.72 128.79 19.81 128.79 19.81 29.72 69.35 34.67 69.35 61.92-96.59 61.92-96.59l-19-30.63-52.87-204.66Z" class="colorffb0aa svgShape"></path><ellipse cx="2203.49" cy="1509.9" fill="#2b293b" rx="9.91" ry="14.86" class="color343b29 svgShape"></ellipse><path fill="#2b293b" d="M2178.72 1485.14c0-9.91 44.58-14.86 52 7.43 2.48 7.43-2.48-2.48-9.91-5s-24.77-7.43-39.63 0c-4.94 2.52-2.46-2.43-2.46-2.43Z" class="color343b29 svgShape"></path><ellipse cx="2129.18" cy="1509.9" fill="#2b293b" rx="9.91" ry="14.86" class="color343b29 svgShape"></ellipse><path fill="#2b293b" d="M2104.42 1485.14c0-9.91 44.58-14.86 52 7.43 2.48 7.43-2.48-2.48-9.91-5s-24.77-7.43-39.63 0c-4.94 2.52-2.46-2.43-2.46-2.43Z" class="color343b29 svgShape"></path><path fill="#8979f2" d="M2213.39 1534.67h-17.34a2.48 2.48 0 0 1-2.48-2.48 2.48 2.48 0 0 1 2.48-2.48h17.34a2.48 2.48 0 0 1 2.48 2.48 2.47 2.47 0 0 1-2.48 2.48ZM2139.09 1534.67h-17.34a2.48 2.48 0 0 1-2.48-2.48 2.48 2.48 0 0 1 2.48-2.48h17.34a2.48 2.48 0 0 1 2.48 2.48 2.47 2.47 0 0 1-2.48 2.48Z" class="colorf27988 svgShape"></path><path fill="#2b293b" d="M2177.68 1601.75c8.22 2.4 16.45 19.21 12.33 28.82s-24.67 12-28.78 0 8.22-31.22 16.45-28.82Z" class="color343b29 svgShape"></path><path fill="#8979f2" d="M2151.48 1539.62c-7.43 9.91-19.81 27.24-14.86 37.15s22.29 5 29.72 0c4.95-14.85-4.96-39.62-14.86-37.15Z" class="colorf27988 svgShape"></path><path fill="#2b293b" d="M2245.59 1376.16c24.77-61.92-52-89.16-79.26-59.44-19.81-52-109-44.58-101.55 14.86-66.87 27.24-32.2 113.93 27.24 99.07 13.05 41.33 68.11 44.44 96.44 24.46 21.81 25.06 75 9.44 81.89-29.41 7.44-42.11-24.76-49.54-24.76-49.54Z" class="color343b29 svgShape"></path><path fill="#2b293b" d="M2218.35 1348.92c52-57 141.17-14.86 141.17 47.06 42.1-9.91 64.4 32.2 37.15 71.83 44.58 34.67 9.91 84.21-14.86 84.21 17.34 37.15-27.24 49.53-42.1 42.1 2.48 44.58-42.1 34.67-42.1 34.67l-27.24-57-9.91-44.58c-19.81-7.43-9.91-42.1-9.91-42.1-29.72-5-24.77-34.67-24.77-34.67Z" class="color343b29 svgShape"></path><path fill="#b6aaff" d="M2253 1542.1c32.2-24.77 61.92-12.38 52 42.1s-52 29.72-52 29.72Z" class="colorffb0aa svgShape"></path><path fill="#8979f2" d="M2267.88 1559.44c9.91-14.86 24.77-9.91 24.77 7.43s-17.34 34.67-24.77 24.77ZM2218.35 1683.28s19.35-1.77 30.67-10.73c12.11-9.59 16.31-26.42 18.87-26.42 5 0-27.24 86.69-27.24 86.69Z" class="colorf27988 svgShape"></path><path fill="#8979f2" d="M2243.39 1684.17a3.49 3.49 0 0 1-2.36-6.06c.13-.12.4-.34.79-.65a73.55 73.55 0 0 0 27.78-55.87 3.5 3.5 0 0 1 7 .24 80.48 80.48 0 0 1-30.42 61.11l-.46.37a3.58 3.58 0 0 1-2.33.86Z" class="colorf27988 svgShape"></path></svg>