<svg xmlns="http://www.w3.org/2000/svg" xmlns:xlink="http://www.w3.org/1999/xlink" enable-background="new 0 0 3600 1884" viewBox="0 0 3600 1884" id="Airportpublicsafetyrestrictionsconcept"><path fill="#6e60c4" d="M0 0h3600v1884H0z" class="color60a5c4 svgShape"></path><path fill="#9c91e3" d="M3323.46 1701.6c0 63.54-9.75 124.83-27.87 182.4H327.51c-32.91-86.1-50.97-179.52-50.97-277.17 0-400.68 303.45-730.44 693.09-772.05 36.54-417.84 387.24-745.62 814.53-745.62 64.83 0 127.92 7.56 188.4 21.81 100.68 23.73 194.19 66.09 276.66 123.21 29.88 20.7 58.29 43.35 85.11 67.71 34.92 31.8 67.08 66.54 96.06 103.89 46.95 60.45 85.59 127.65 114.24 199.92 81.54.75 156.75 27.81 217.59 73.17a371.19 371.19 0 0 1 44.04 38.52c65.22 66.78 105.39 158.1 105.39 258.81 0 50.07-9.93 97.8-27.93 141.36 253.92 72.78 439.74 306.69 439.74 584.04z" class="color91cae3 svgShape"></path><path fill="#d5d0f2" d="M1676.376 367.198c-54.473 0-100.411 36.534-114.653 86.435h229.305c-14.241-49.901-60.179-86.435-114.652-86.435zM1989.165 367.198c-54.473 0-100.411 36.534-114.653 86.435h229.306c-14.242-49.901-60.18-86.435-114.653-86.435z" class="colord0f1f2 svgShape"></path><path fill="#d5d0f2" d="M1840.145 330.171c-77.808 0-143.426 52.185-163.769 123.463h327.537c-20.342-71.279-85.96-123.463-163.768-123.463zM1149.493 742.235c-36.992 0-68.189 24.81-77.861 58.698h155.722c-9.672-33.888-40.869-58.698-77.861-58.698zM1361.909 742.235c-36.993 0-68.189 24.81-77.861 58.698h155.722c-9.672-33.888-40.868-58.698-77.861-58.698z" class="colord0f1f2 svgShape"></path><path fill="#d5d0f2" d="M1260.709 717.089c-52.84 0-97.401 35.439-111.216 83.844h222.432c-13.815-48.405-58.377-83.844-111.216-83.844z" class="colord0f1f2 svgShape"></path><path fill="#ffffff" d="M1956.838 337.893c-27.593 0-50.862 18.506-58.076 43.783h116.153c-7.215-25.277-30.484-43.783-58.077-43.783zM2115.279 337.893c-27.593 0-50.863 18.506-58.077 43.783h116.153c-7.214-25.277-30.483-43.783-58.076-43.783z" class="colorffffff svgShape"></path><path fill="#ffffff" d="M2039.794 319.137c-39.413 0-72.651 26.434-82.956 62.539h165.912c-10.305-36.106-43.543-62.539-82.956-62.539z" class="colorffffff svgShape"></path><path fill="#ffffff" d="M2246.407 234.18 688.477 1792.11l-199.95-199.95 1481.22-1481.19c100.68 23.73 194.19 66.09 276.66 123.21zM2427.577 405.78 949.387 1884h-28.92l-85.53-85.53 1496.58-1496.58c34.92 31.8 67.08 66.54 96.06 103.89zM2803.447 717.39 1636.837 1884h-82.56l1205.13-1205.13a371.19 371.19 0 0 1 44.04 38.52z" opacity=".21" class="colorffffff svgShape"></path><defs><path id="a" d="M2880.907 1117.547c17.987-43.557 27.932-91.281 27.932-141.334 0-203.472-163.996-368.615-367.017-370.526-119.942-302.561-415.207-516.531-760.461-516.531-427.313 0-778.011 327.776-814.538 745.609-389.634 41.627-693.111 371.383-693.111 772.067 0 97.657 18.078 191.078 50.985 277.168h2968.082c18.103-57.582 27.882-118.852 27.882-182.41 0-277.326-185.828-511.236-439.754-584.043z" fill="#000000" class="color000000 svgShape"></path></defs><clipPath id="b"><use overflow="visible" xlink:href="#a"></use></clipPath><g clip-path="url(#b)" fill="#000000" class="color000000 svgShape"><path fill="#3d3280" d="M222.798 1205.436h3015.016v17.549H222.798zM240.4 1502.322h3080.261v17.549H240.4zM222.798 876.072h3015.016v17.549H222.798zM222.798 217.343h3015.016v17.549H222.798z" class="color326780 svgShape"></path><path fill="#3d3280" d="M-232.435 669.49h1683.969v17.549H-232.435z" transform="rotate(90 609.55 678.265)" class="color326780 svgShape"></path><path fill="#3d3280" d="M361.383 669.49h1683.969v17.549H361.383z" transform="rotate(90 1203.368 678.265)" class="color326780 svgShape"></path><path fill="#3d3280" d="M955.202 669.49h1683.969v17.549H955.202z" transform="rotate(90 1797.187 678.265)" class="color326780 svgShape"></path><path fill="#3d3280" d="M1549.021 669.49H3232.99v17.549H1549.021z" transform="rotate(90 2391.005 678.265)" class="color326780 svgShape"></path><path fill="#3d3280" d="M2142.839 669.49h1683.969v17.549H2142.839z" transform="rotate(90 2984.824 678.265)" class="color326780 svgShape"></path><path fill="#747091" d="M222.798 521.769h3015.016v42.488H222.798z" class="color707391 svgShape"></path></g><circle cx="1303.862" cy="645.328" r="29.929" fill="#ffffff" class="colorffffff svgShape"></circle><circle cx="1676.376" cy="160.003" r="29.929" fill="#ffffff" class="colorffffff svgShape"></circle><circle cx="446.449" cy="1404.497" r="29.929" fill="#ffffff" class="colorffffff svgShape"></circle><circle cx="2235.805" cy="692.84" r="29.929" fill="#ffffff" class="colorffffff svgShape"></circle><circle cx="1871.554" cy="1019.48" r="16.7" fill="#ffffff" class="colorffffff svgShape"></circle><circle cx="1600.319" cy="288.51" r="16.7" fill="#ffffff" class="colorffffff svgShape"></circle><circle cx="2150.615" cy="785.846" r="16.7" fill="#ffffff" class="colorffffff svgShape"></circle><path fill="#d0c9ff" d="M3323.46 1701.6c0 63.54-9.75 124.83-27.87 182.4H327.51c-32.91-86.1-50.97-179.52-50.97-277.17 0-29.25 1.62-58.14 4.8-86.58h3014.61c17.88 57.27 27.51 118.17 27.51 181.35z" class="colorffcbc9 svgShape"></path><path fill="#bdb3ff" d="M2638.096 1714.492H961.904c-30.977 0-56.089-25.112-56.089-56.089s25.112-56.089 56.089-56.089h1676.191c30.977 0 56.089 25.112 56.089 56.089.001 30.977-25.111 56.089-56.088 56.089z" class="colorffb5b3 svgShape"></path><path fill="#d5d0f2" d="M409.941 203.56c-108.106 0-199.274 72.505-227.539 171.538H637.48C609.216 276.065 518.047 203.56 409.941 203.56zM1030.701 203.56c-108.106 0-199.274 72.505-227.539 171.538h455.078c-28.265-99.033-119.433-171.538-227.539-171.538z" class="colord0f1f2 svgShape"></path><path fill="#d5d0f2" d="M734.956 130.074c-154.417 0-284.642 103.565-325.015 245.024h650.029c-40.372-141.458-170.596-245.024-325.014-245.024zM2748.401 971.305c-54.053 0-99.637 36.252-113.77 85.769h227.539c-14.132-49.517-59.716-85.769-113.769-85.769zM3058.781 971.305c-54.053 0-99.637 36.252-113.77 85.769h227.539c-14.132-49.517-59.716-85.769-113.769-85.769z" class="colord0f1f2 svgShape"></path><path fill="#d5d0f2" d="M2910.908 934.562c-77.208 0-142.321 51.783-162.507 122.512h325.015c-20.187-70.729-85.299-122.512-162.508-122.512z" class="colord0f1f2 svgShape"></path><path fill="#ffffff" d="M446.449 350.483c-66.78 0-123.097 44.788-140.556 105.963h281.112c-17.46-61.175-73.776-105.963-140.556-105.963zM829.907 350.483c-66.78 0-123.096 44.788-140.556 105.963h281.112c-17.46-61.175-73.777-105.963-140.556-105.963z" class="colorffffff svgShape"></path><path fill="#ffffff" d="M647.218 305.089c-95.387 0-175.83 63.975-200.769 151.357h401.538c-24.939-87.382-105.382-151.357-200.769-151.357zM1412.742 391.854a3.872 3.872 0 0 1-4.439-3.208l-6.07-37.708a3.872 3.872 0 1 1 7.647-1.231l6.069 37.708a3.87 3.87 0 0 1-3.207 4.439z" class="colorffffff svgShape"></path><path fill="#4b3e9e" d="M1458.121 408.625h3.942v14.541h-3.942z" transform="rotate(-9.141 1460.304 415.887)" class="color3e809e svgShape"></path><path fill="#4b3e9e" d="M1463.443 418.336a2.695 2.695 0 0 1 3.089 2.232l.604 3.75a2.695 2.695 0 0 1-5.321.857l-.604-3.751a2.695 2.695 0 0 1 2.232-3.088zM1457.296 419.326a2.695 2.695 0 0 1 3.089 2.232l.604 3.75a2.695 2.695 0 0 1-5.321.857l-.604-3.75a2.693 2.693 0 0 1 2.232-3.089z" class="color3e809e svgShape"></path><path fill="#4b3e9e" d="M1373.357 422.269h3.942v14.541h-3.942z" transform="rotate(-9.141 1375.309 429.486)" class="color3e809e svgShape"></path><path fill="#4b3e9e" d="M1372.912 432.908a2.695 2.695 0 0 0-2.232 3.089l.604 3.751a2.695 2.695 0 1 0 5.321-.857l-.604-3.75a2.696 2.696 0 0 0-3.089-2.233zM1379.059 431.919a2.695 2.695 0 0 0-2.232 3.089l.604 3.751a2.695 2.695 0 1 0 5.321-.857l-.604-3.75a2.695 2.695 0 0 0-3.089-2.233z" class="color3e809e svgShape"></path><path fill="#4b3e9e" d="M1418.282 430.035h3.942v14.541h-3.942z" transform="rotate(-9.141 1420.46 437.302)" class="color3e809e svgShape"></path><path fill="#4b3e9e" d="M1423.604 439.746a2.696 2.696 0 0 1 3.089 2.232l.604 3.75a2.696 2.696 0 0 1-5.321.857l-.604-3.75a2.695 2.695 0 0 1 2.232-3.089zM1417.457 440.736a2.696 2.696 0 0 1 3.089 2.232l.604 3.75a2.696 2.696 0 0 1-5.321.857l-.604-3.75a2.693 2.693 0 0 1 2.232-3.089z" class="color3e809e svgShape"></path><path fill="#ffffff" d="m1436.897 402.112 72.449-14.322 36.225-7.161 4.528-.895 2.264-.448 1.132-.224c.349-.075.628-.126.942-.207 2.448-.595 4.758-1.817 6.68-3.509.486-.419.929-.884 1.366-1.356.389-.444.896-1.083 1.376-1.679l2.893-3.597 5.785-7.193a2.66 2.66 0 0 1 4.243 3.206l-5.341 7.529-2.671 3.765c-.449.63-.858 1.226-1.435 1.979a23.28 23.28 0 0 1-1.785 2.01 22.533 22.533 0 0 1-9.184 5.564c-.423.138-.894.259-1.291.369l-1.116.292-2.233.583-4.466 1.166-35.727 9.332-71.454 18.664a7.118 7.118 0 1 1-3.18-13.868z" class="colorffffff svgShape"></path><path fill="#ffffff" d="M1498.835 394.115h4.525v13.787h-4.525z" transform="rotate(-9.141 1501.071 400.952)" class="colorffffff svgShape"></path><path fill="#ffffff" d="M1492.547 415.533c-.943-5.862 3.044-11.379 8.905-12.322 5.862-.943 11.379 3.044 12.322 8.905.943 5.862-3.044 11.379-8.905 12.322-5.862.944-11.378-3.043-12.322-8.905z" class="colorffffff svgShape"></path><circle cx="1503.161" cy="413.824" r="6.088" fill="#4b3e9e" transform="rotate(-15.028 1503.383 413.993)" class="color3e809e svgShape"></circle><path fill="#ffffff" d="m1392.167 409.312-73.284 9.136-36.642 4.568-4.58.571-2.29.286-1.145.143c-.355.038-.636.077-.959.099-2.511.203-5.088-.232-7.444-1.236a16.946 16.946 0 0 1-1.722-.859c-.508-.3-1.191-.747-1.833-1.163l-3.875-2.507-7.75-5.015a2.661 2.661 0 0 0-3.679.788 2.668 2.668 0 0 0 .656 3.587l7.434 5.473 3.717 2.736c.624.457 1.2.895 1.984 1.429.752.485 1.52.951 2.326 1.348a22.545 22.545 0 0 0 10.466 2.402c.445-.002.93-.035 1.342-.055l1.151-.074 2.303-.147 4.606-.294 36.851-2.35 73.701-4.701a7.116 7.116 0 0 0 6.649-7.556 7.117 7.117 0 0 0-7.983-6.609z" class="colorffffff svgShape"></path><path fill="#ffffff" d="M1328.6 421.516h4.525v13.787h-4.525z" transform="rotate(-9.141 1330.87 428.364)" class="colorffffff svgShape"></path><path fill="#ffffff" d="M1343.539 439.517c-.943-5.862-6.46-9.849-12.322-8.905-5.862.943-9.849 6.46-8.905 12.322.943 5.862 6.46 9.849 12.322 8.905 5.861-.943 9.848-6.46 8.905-12.322z" class="colorffffff svgShape"></path><path fill="#4b3e9e" d="M1338.936 440.258a6.088 6.088 0 1 0-12.021 1.935 6.088 6.088 0 0 0 12.021-1.935z" class="color3e809e svgShape"></path><path fill="#ffffff" d="M1448.897 405.504c1.403 8.718-4.284 17.423-13.852 23.005-4.447 2.589-9.731 4.51-15.525 5.443-5.794.933-11.414.766-16.449-.297-10.845-2.297-18.977-8.778-20.38-17.495-2.055-12.766 9.444-35.826 27.724-38.769 18.282-2.942 36.427 15.347 38.482 28.113z" class="colorffffff svgShape"></path><path fill="#a99cff" d="M1417.025 411.34c-9.706 1.562-17.045.747-21.492-.213a5.923 5.923 0 0 1 2.497-11.579c2.827.609 8.809 1.433 17.112.096 7.098-1.143 11.936-3.207 14.745-4.739a5.921 5.921 0 0 1 8.035 2.366 5.922 5.922 0 0 1-2.365 8.035c-3.622 1.975-9.777 4.625-18.532 6.034z" class="colorff9f9c svgShape"></path><path fill="#f2f2f2" d="M1435.045 428.509c-4.447 2.589-9.731 4.51-15.525 5.443-5.794.933-11.414.766-16.449-.297 1.909-6.888 7.127-13.063 14.117-14.188 6.991-1.124 13.883 3.102 17.857 9.042z" class="colorf2f2f2 svgShape"></path><path fill="#ffffff" d="M1414.101 396.473h2.582v20.458h-2.582z" transform="rotate(-9.141 1415.588 406.693)" class="colorffffff svgShape"></path><path fill="#ffffff" d="M1428.84 393.003h2.582v20.458h-2.582z" transform="rotate(-18.323 1430.303 403.357)" class="colorffffff svgShape"></path><path fill="#ffffff" d="M1399.018 397.803h2.582v20.458h-2.582z" class="colorffffff svgShape"></path><path fill="#5e49e6" d="M740.428 1556.588s-1.133-160.726-194.309-252.146c0 0 177.008 4.601 194.309 252.146zM779.798 1559.689s-30.61-227.204 87.839-389.772c0 .001-95.824 228.756-87.839 389.772z" class="color49e1e6 svgShape"></path><path fill="#5e49e6" d="M747.083 1536.624s2.489-211.966-91.632-302.669c0 0 127.566 71.095 91.632 302.669zM787.071 1546.875s26.992-210.255 132.804-286.998c0 0-136.208 52.677-132.804 286.998z" class="color49e1e6 svgShape"></path><path fill="#5e49e6" d="M763.366 1536.624s-19.2-190.949 6.214-324.387c.001.001 6.078 268.49-6.214 324.387zM805.16 1519.023s2.885-96.086 74.241-172.419c0 0-67.069 126.034-74.241 172.419z" class="color49e1e6 svgShape"></path><path fill="#817ca1" d="m826.94 1482.433-12.211 196.245H712.004l-1.127-17.979-11.084-178.266z" class="color7c7fa1 svgShape"></path><path fill="#747091" d="m826.94 1482.433-12.211 196.245H712.004l-1.127-17.979c26.996-18.843 50.611-45.163 52.49-80.143 2.01-37.273 11.873-71.502 22.281-98.122h41.292z" class="color707391 svgShape"></path><path fill="#5e49e6" d="M2821.249 1556.588s-1.133-160.726-194.31-252.146c0 0 177.008 4.601 194.31 252.146zM2852.852 1559.689s-36.855-273.553 105.757-469.284c0 0-115.372 275.422-105.757 469.284z" class="color49e1e6 svgShape"></path><path fill="#5e49e6" d="M2827.903 1536.624s2.489-211.966-91.632-302.669c0 0 127.566 71.095 91.632 302.669zM2861.608 1544.261s32.498-253.147 159.896-345.545c0 0-163.994 63.423-159.896 345.545z" class="color49e1e6 svgShape"></path><path fill="#5e49e6" d="M2833.068 1531.919s-23.117-229.902 7.482-390.561c0 0 7.317 323.261-7.482 390.561zM2885.98 1519.023s2.885-96.086 74.241-172.419c0 0-67.068 126.034-74.241 172.419z" class="color49e1e6 svgShape"></path><path fill="#817ca1" d="m2907.761 1482.433-12.211 196.245h-102.726l-1.127-17.979-11.084-178.266z" class="color7c7fa1 svgShape"></path><path fill="#747091" d="m2907.761 1482.433-12.211 196.245h-102.725l-1.127-17.979c26.996-18.843 50.611-45.163 52.49-80.143 2.01-37.273 11.873-71.502 22.281-98.122h41.292z" class="color707391 svgShape"></path><path fill="#ffffff" d="M1887.484 1504.495h-608.835c-27.463 0-49.805-22.342-49.805-49.805v-95a7.933 7.933 0 0 1 15.866 0v95c0 18.714 15.225 33.938 33.939 33.938h608.835c18.714 0 33.939-15.225 33.939-33.938v-95a7.933 7.933 0 0 1 15.866 0v95c0 27.463-22.343 49.805-49.805 49.805z" class="colorffffff svgShape"></path><path fill="#ffffff" d="M1278.648 1645.909c-4.381 0-7.933-4.358-7.933-9.734v-137.813c0-5.375 3.552-9.734 7.933-9.734s7.933 4.358 7.933 9.734v137.813c.001 5.376-3.552 9.734-7.933 9.734zM1891.569 1645.909c-4.381 0-7.933-4.358-7.933-9.734v-137.813c0-5.375 3.552-9.734 7.933-9.734s7.933 4.358 7.933 9.734v137.813c0 5.376-3.552 9.734-7.933 9.734z" class="colorffffff svgShape"></path><path fill="#ffffff" d="M1319.128 1653.471h-77.784a7.933 7.933 0 0 1 0-15.866h77.784a7.933 7.933 0 0 1 0 15.866zM1930.461 1653.471h-77.784a7.933 7.933 0 0 1 0-15.866h77.784a7.933 7.933 0 0 1 0 15.866z" class="colorffffff svgShape"></path><path fill="#a99cff" d="M1905.435 1444.942h-206.759l7.311-244.919c.347-11.623 9.869-20.865 21.496-20.865h149.145c11.628 0 21.15 9.242 21.496 20.865l7.311 244.919z" class="colorff9f9c svgShape"></path><path fill="#8f7dff" d="M1897.561 1492.52h-191.01c-7.727 0-13.99-6.264-13.99-13.99v-27.8c0-7.727 6.263-13.99 13.99-13.99h191.01c7.726 0 13.99 6.264 13.99 13.99v27.8c0 7.727-6.263 13.99-13.99 13.99z" class="colorff817d svgShape"></path><path fill="#a99cff" d="M1686.445 1444.942h-206.759l7.31-244.919c.347-11.623 9.869-20.865 21.497-20.865h149.145c11.628 0 21.15 9.242 21.496 20.865l7.311 244.919z" class="colorff9f9c svgShape"></path><path fill="#8f7dff" d="M1678.571 1492.52h-191.01c-7.727 0-13.99-6.264-13.99-13.99v-27.8c0-7.727 6.263-13.99 13.99-13.99h191.01c7.726 0 13.99 6.264 13.99 13.99v27.8c0 7.727-6.264 13.99-13.99 13.99z" class="colorff817d svgShape"></path><path fill="#a99cff" d="M1467.455 1444.942h-206.758l7.31-244.919c.347-11.623 9.869-20.865 21.497-20.865h149.145c11.628 0 21.15 9.242 21.497 20.865l7.309 244.919z" class="colorff9f9c svgShape"></path><path fill="#8f7dff" d="M1459.581 1492.52h-191.01c-7.726 0-13.99-6.264-13.99-13.99v-27.8c0-7.727 6.264-13.99 13.99-13.99h191.01c7.726 0 13.99 6.264 13.99 13.99v27.8c0 7.727-6.264 13.99-13.99 13.99z" class="colorff817d svgShape"></path><path fill="#3e3b54" d="M2529 1255.84h9.588v246.607H2529z" transform="rotate(-14.951 2533.329 1378.943)" class="color3b3e54 svgShape"></path><path fill="#7764f0" d="m2681.262 1475.606 33.033 123.723c1.51 5.658-1.852 11.469-7.509 12.979l-64.224 17.147c-7.534 2.012-14.888-.94-16.399-6.6l-33.032-123.719c-1.51-5.658 1.851-11.469 7.509-12.979l67.643-18.06c5.658-1.51 11.469 1.851 12.979 7.509z" class="color8d91b8 svgShape"></path><path fill="#7764f0" d="m2638.32 1394.339 58.879 220.529-91.776 24.503c-9.286 2.479-18.855-3.057-21.343-12.375l-54.375-203.659c-2.488-9.318 3.049-18.887 12.366-21.375l74.872-19.99c9.319-2.488 18.889 3.049 21.377 12.367z" class="color8d91b8 svgShape"></path><path fill="#726e8f" d="M2590.439 1391.546h13.536v245.716h-13.536z" transform="rotate(-14.951 2596.713 1514.174)" class="color6e718f svgShape"></path><circle cx="2502.032" cy="1260.179" r="8.583" fill="#3e3b54" transform="rotate(-70.98 2502.01 1260.193)" class="color3b3e54 svgShape"></circle><circle cx="2615.936" cy="1636.551" r="18.767" fill="#3e3b54" transform="rotate(-59.948 2615.885 1636.5)" class="color3b3e54 svgShape"></circle><path fill="#1d1a2e" d="M2606.87 1638.972c-1.337-5.007 1.638-10.15 6.646-11.487s10.15 1.639 11.487 6.646-1.638 10.15-6.646 11.486a9.384 9.384 0 0 1-11.487-6.645z" class="color1a1c2e svgShape"></path><path fill="#b8adff" d="M2261.281 1612.18c6.965 4.572 6.427 10.792 13.894 14.493 45.751-134.685 73.783-311.922 125.968-431.933-20.071-7.813-40.228-15.398-60.382-22.995-48.313 142.017-11.28 276.391-79.48 440.435z" class="colorffb0ad svgShape"></path><path fill="#b8adff" d="M2525.317 1598.332c7.401-3.622 2.806-8.932 9.906-13.115-84.381-143.844-129.541-241.127-119.979-413.385-21.555-2.872-43.16-5.32-64.766-7.775.632 165.041 88.172 300.641 174.839 434.275z" class="colorffb0ad svgShape"></path><path fill="#403c57" d="M2415.244 1171.831c-21.555-2.872-43.16-5.32-64.766-7.775.015 3.836.12 7.64.223 11.444-3.315-1.25-6.627-2.506-9.942-3.755-33.898 99.645-25.815 195.542-41.512 300.551h174.481c-43.943-91.512-65.359-176.608-58.484-300.465z" class="color3c3f57 svgShape"></path><path fill="#ffffff" d="M2254.074 1182.186s-38.508 6.301-43.321 14.869c-4.813 8.568 32.515 6.718 50.527-8.512l-7.206-6.357z" class="colorffffff svgShape"></path><path fill="#c8bfff" d="M2249.876 1178.901c3.584 5.38 7.05 10.466 10.941 15.369 81.104-60.122 108.88-97.79 111.939-201.409.468-15.849-5.139-17.737-17.896-14.171-1.086-2.742-1.064-2.751 0 0-12.756 3.566-12.532 8.239-12.927 22.487-2.585 93.15-26.379 117.361-92.057 177.724z" class="colorffc0bf svgShape"></path><path fill="#c8bfff" d="M2328.41 1213.905c18.676 2.675 32.225-5.245 48.075-13.703 12.188-6.502 26.547-9.94 39.377-15.639 8.167-44.53 1.772-139.874-16.251-178.553-15.833-33.98-28.534-53.838-52.431-31.233-5.839 5.523-12.121 23.738-15.703 47.723-3.582 23.985-8.384 14.297 4.293 53.58 5.456 16.904-5.045 109.243-7.36 137.825z" class="colorffc0bf svgShape"></path><path fill="#ffffff" d="M2478.914 1216.429s13.323 38.744 23.042 42.211c9.718 3.468 1.209-34.84-17.735-50.793l-5.307 8.582z" class="colorffffff svgShape"></path><path fill="#c8bfff" d="M2475.613 1218.942c7.156 1.262 13.229 1.543 20.103 2.033-12.724-123.936-14.574-158.491-108.769-241.958-14.408-12.767-28.577 15.815-5.301 31.69 81.727 55.737 77.655 116.615 93.967 208.235z" class="colorffc0bf svgShape"></path><path fill="#555073" d="m2268.246 1560.753-16.336 55.171-2.425 8.19s30.766 11.475 34.007 3.807c3.241-7.668 22.586-65.286 22.586-65.286l-37.832-1.882z" class="color535073 svgShape"></path><path fill="#555073" d="M2257.752 1612.718s-10.84 22.369-39.417 28.577c0 0-12.81 4.041 3.449 6.208 16.26 2.168 41.783-3.252 49.715-11.628 0 0 4.633 17.316 6.282 12.107s9.025-29.009 9.025-29.009l-29.054-6.255zM2487.617 1561.014l30.78 48.614 4.569 7.217s28.89-15.607 25.251-23.094c-3.639-7.487-34.279-59.977-34.279-59.977l-26.321 27.24z" class="color535073 svgShape"></path><path fill="#555073" d="M2519.828 1603.119s9.704 22.884-4.433 48.484c0 0-5.391 12.303 6.944 1.49 12.334-10.813 25.056-33.595 23.971-45.08 0 0 16.085 7.911 13.25 3.24-2.835-4.671-15.896-25.889-15.896-25.889l-23.836 17.755z" class="color535073 svgShape"></path><path fill="#ffffff" d="M2380.215 929.969c-11.482 20.351-34.967 28.851-47.403 21.834-12.437-7.017-9.116-26.893 2.366-47.244s27.407-25.019 39.844-18.002c12.436 7.016 16.675 23.061 5.193 43.412z" class="colorffffff svgShape"></path><path fill="#ffffff" d="m2372.604 932.494-24.538.279c.035 3.36.947 35.295 3.482 47.091 1.292 3.578 7.531 4.603 13.933 2.29 5.756-2.079 9.646-6.142 9.442-9.542l.028-.009c-1.521-7.073-2.211-28.37-2.347-40.109z" class="colorffffff svgShape"></path><path fill="#312d4a" d="M2336.33 896.828a50.034 50.034 0 0 1 7.718 2.584c7.409-8.192 14.287-8.434 14.287-8.434-3.259 1.033-7.845 5.815-11.274 9.854 17.35 8.903 23.487 25.256 23.487 25.256 14.758-2.241 27.182-27.426 6.482-41.636-20.694-14.209-40.7 12.376-40.7 12.376z" class="color2d334a svgShape"></path><path fill="#312d4a" d="M2382.232 892.805s13.295 5.616 13.707 29.316c.411 23.7-3.434 44.977-3.434 44.977l-24.609-6.32s15.244-29.091 5.335-40.391l9.001-27.582z" class="color2d334a svgShape"></path><path fill="#d5d0f2" d="m2358.71 934.711-5.695 9.609 7.287 14.208-20.691 6.601-14.016-3.646-7.458-12.888-.348-14.953 2.84-10.51 13.182-1.585z" class="colord0f1f2 svgShape"></path><path fill="#c6c1e8" d="m2355.646 939.88-.027 9.517-37.83.427-.808-16.924z" class="colorc1e7e8 svgShape"></path><path fill="none" stroke="#d5d0f2" stroke-miterlimit="10" stroke-width="1.669" d="m2355.646 935.516 22.768-3.32M2357.22 957.442l21.93-14.934" class="colorStroked0f1f2 svgStroke"></path><path fill="#c6c1e8" d="M2356.732 935.516a1.086 1.086 0 1 0-2.171 0 1.086 1.086 0 0 0 2.171 0z" class="colorc1e7e8 svgShape"></path><circle cx="2357.22" cy="957.442" r="1.086" fill="#c6c1e8" class="colorc1e7e8 svgShape"></circle><path fill="#ffffff" d="M2385.429 942.142c-2.673 4.737-10.794 8.142-14.224 6.206-3.43-1.935-2.122-6.26.551-10.997s7.954-7.6 11.384-5.664c3.43 1.936 4.962 5.718 2.289 10.455zM1023.52 1637.411a7.55 7.55 0 0 1-8.084-8.46l6.698-53.889a7.55 7.55 0 0 1 14.986 1.862l-6.698 53.889a7.554 7.554 0 0 1-6.902 6.598zM1127.618 970.315s-29.639-25.248-29.329-35.049c.31-9.801 31.236 11.037 38.763 33.337l-9.434 1.712z" class="colorffffff svgShape"></path><path fill="#e2deff" d="M1121.892 970.305c-4.885-5.395 4.848-12.027 9.903-17.429 122.685 112.41-41.38 184.058-71.685 42.837-4.636-21.601 1.63-14.946 15.219-19.193.607-2.136.496-2.151 0 0 13.589-4.247 17.124 3.599 17.734 15.991 3.986 81.008 116.187 74.286 28.829-22.206z" class="colorffdfde svgShape"></path><path fill="#ffffff" d="M986.079 1211.679s12.945 36.72 7.754 45.038c-5.191 8.319-21.465-25.234-16.771-48.297l9.017 3.259z" class="colorffffff svgShape"></path><path fill="#e2deff" d="M991.497 1217.921c-6.254.847-12.255 1.599-18.367 2.323-15.489-90.619-8.095-167.03 54.003-237.198 9.498-10.733 14.594-10.431 22.856-.253 2.358-.74 2.305-.829 0 0 8.261 10.177 7.594 12.74-2.164 24.241-63.801 75.191-59.414 113.086-56.328 210.887z" class="colorffdfde svgShape"></path><path fill="#ffffff" d="M1202.343 1637.403a7.55 7.55 0 0 1-9.347-7.041l-2.111-54.262a7.55 7.55 0 0 1 15.09-.588l2.111 54.262a7.553 7.553 0 0 1-5.743 7.629z" class="colorffffff svgShape"></path><path fill="#403c57" d="M1214.366 1610.77c-8.005.86-15.987 1.204-24.036 1.193.155-150.917-24.248-303.429-111.316-430.453 18.123-11.789 36.447-23.238 54.751-34.74 72.671 125.581 79.267 321.374 80.601 464z" class="color3c3f57 svgShape"></path><path fill="#403c57" d="M1041.321 1608.672c-8.434-.199-16.611-2.212-25.012-2.786 16.333-151.257 51.451-300.616 39.616-452.623 21.987-.467 43.975-.618 65.967-.599-15.349 163.079-69.269 288.624-80.571 456.008z" class="color3c3f57 svgShape"></path><path fill="#3e3b54" d="M1191.097 1627.064s-4.674 19.416 0 19.955 71.964 2.581 72.359-.539c1.348-10.658-53.662-20.494-59.055-19.416-5.394 1.079-12.692-2.82-13.304 0zM1013.114 1627.064s-4.674 19.416 0 19.955c4.674.539 71.964 2.581 72.359-.539 1.348-10.658-53.662-20.494-59.055-19.416-5.394 1.079-12.692-2.82-13.304 0z" class="color3b3e54 svgShape"></path><path fill="#e2deff" d="M1057.699 1190.445c10.42-4.12 25.477-8.111 51.732-9.233 17.841-.755 31.841-.13 42.8 1.338-45.928-98.566-53.889-147.687-49.725-175.365 2.071-13.806-3.322-27.656-14.389-36.134l-4.315-3.322c-20.063-15.403-49.423-4.401-54.234 20.451-1.618 8.306-2.848 17.798-3.409 28.519-2.631 50.911 4.143 106.288 31.54 173.746z" class="colorffdfde svgShape"></path><path fill="#ffffff" d="M1049.246 925.268c8.61 21.159 30.329 32.313 43.26 27.051 12.93-5.262 12.175-24.948 3.565-46.106-8.61-21.159-23.474-27.66-36.405-22.398-12.931 5.262-19.031 20.295-10.42 41.453z" class="colorffffff svgShape"></path><path fill="#312d4a" d="M1040.69 913.042s-1.045-15.374 7.566-24.584c8.61-9.21 29.388-16.683 41.438.275 0 0 7.457 12.831-8.781 20.514-16.239 7.684-16.135-2.225-21.688 8.826-5.553 11.051-15.026 7.257-15.95 9.688l-2.585-14.719z" class="color2d334a svgShape"></path><path fill="#817ca1" d="M1046.448 930.504s3.004-38.975 43.246-41.771c0 0-.044-8.441-10.949-12.601s-31.406-5.942-55.769 13.964c0 0-6.29 8.863 2.055 10.671 8.344 1.808 7.75 3.293 8.047 7.156.297 3.863.247 27.716 13.37 22.581z" class="color7c7fa1 svgShape"></path><path fill="#ffffff" d="m1052.928 926.017 23.877-2.331c.322 3.269 2.823 34.401 1.611 46.135-.877 3.614-6.83 5.272-13.297 3.703-5.814-1.41-10.026-4.946-10.188-8.272l-.028-.006c.725-7.035-.862-27.806-1.975-39.229z" class="colorffffff svgShape"></path><path fill="#d5d0f2" d="m1065.68 929.903 5.695 9.609-7.287 14.207 20.691 6.602 14.016-3.646 7.458-12.888.349-14.953-2.841-10.51-13.182-1.585z" class="colord0f1f2 svgShape"></path><path fill="#c6c1e8" d="m1068.744 935.072.027 9.517 37.831.427.807-16.924z" class="colorc1e7e8 svgShape"></path><path fill="none" stroke="#d5d0f2" stroke-miterlimit="10" stroke-width="1.669" d="m1068.744 930.708-22.768-3.32M1067.17 952.634l-21.93-14.933" class="colorStroked0f1f2 svgStroke"></path><circle cx="1068.744" cy="930.708" r="1.086" fill="#c6c1e8" class="colorc1e7e8 svgShape"></circle><circle cx="1067.17" cy="952.634" r="1.086" fill="#c6c1e8" class="colorc1e7e8 svgShape"></circle><path fill="#ffffff" d="M1042.679 936.427c2.004 4.925 9.457 9.234 13.024 7.783 3.566-1.451 2.834-5.807.83-10.732s-6.77-8.356-10.337-6.905c-3.566 1.451-5.521 4.929-3.517 9.854z" class="colorffffff svgShape"></path><path fill="none" stroke="#3e3b54" stroke-miterlimit="10" stroke-width="9.989" d="M1713.658 1256.5v-19.562c0-6.666 5.404-12.07 12.07-12.07h43.109c6.666 0 12.07 5.404 12.07 12.07v19.562" class="colorStroke3b3e54 svgStroke"></path><path fill="#e2deff" d="M1869.714 1438.386h-249.68c-12.426 0-22.5-10.074-22.5-22.5v-144.794c0-12.426 10.074-22.5 22.5-22.5h249.68c12.426 0 22.5 10.074 22.5 22.5v144.794c0 12.427-10.073 22.5-22.5 22.5z" class="colorffdfde svgShape"></path><path fill="#817ca1" d="M1797.187 1248.592h29.898v189.794h-29.898zM1665.992 1248.592h29.898v189.794h-29.898z" class="color7c7fa1 svgShape"></path><path fill="#3e3b54" d="M1829.279 1350.149h-34.49a3 3 0 0 1-3-3v-.66a3 3 0 0 1 3-3h34.49a3 3 0 0 1 3 3v.66a3 3 0 0 1-3 3zM1698.186 1350.149h-34.49a3 3 0 0 1-3-3v-.66a3 3 0 0 1 3-3h34.49a3 3 0 0 1 3 3v.66a3 3 0 0 1-3 3zM1678.639 1329.893a2.302 2.302 0 1 1 4.605 0 2.302 2.302 0 0 1-4.605 0zM1678.639 1311.579a2.302 2.302 0 1 1 4.605 0 2.302 2.302 0 0 1-4.605 0zM1678.639 1293.266a2.302 2.302 0 1 1 4.605 0 2.302 2.302 0 0 1-4.605 0z" class="color3b3e54 svgShape"></path><circle cx="1812.034" cy="1329.893" r="2.302" fill="#3e3b54" class="color3b3e54 svgShape"></circle><circle cx="1812.034" cy="1311.579" r="2.302" fill="#3e3b54" class="color3b3e54 svgShape"></circle><path fill="#3e3b54" d="M1809.732 1293.266a2.302 2.302 0 1 1 4.605 0 2.302 2.302 0 0 1-4.605 0z" class="color3b3e54 svgShape"></path><path fill="#ffffff" d="M1484.138 1680.394a7.783 7.783 0 0 1-6.673-10.048l16.546-53.474a7.783 7.783 0 0 1 14.871 4.601l-16.546 53.474a7.79 7.79 0 0 1-8.198 5.447z" class="colorffffff svgShape"></path><path fill="#555073" d="M1475.016 1670.778s-4.818 20.013 0 20.569c4.818.556 74.181 2.66 74.588-.556 1.39-10.986-55.315-21.125-60.875-20.013-5.559 1.112-13.082-2.907-13.713 0z" class="color535073 svgShape"></path><path fill="#ffffff" d="M1535.171 1680.499a7.784 7.784 0 0 1-6.793-9.968l15.906-53.668c1.221-4.12 5.56-6.472 9.674-5.251a7.784 7.784 0 0 1 5.251 9.674l-15.906 53.668a7.788 7.788 0 0 1-8.132 5.545z" class="colorffffff svgShape"></path><path fill="#555073" d="M1524.636 1670.778s-4.818 20.013 0 20.569 74.181 2.66 74.588-.556c1.39-10.986-55.315-21.125-60.875-20.013-5.559 1.112-13.082-2.907-13.713 0z" class="color535073 svgShape"></path><path fill="#ffffff" d="M1612.815 1238.164a14.873 14.873 0 0 1 10.142-8.485c11.599-2.8 33.652-7.34 39.615-3.046 8.202 5.907-27.419 20.357-50.819 13.956l1.062-2.425z" class="colorffffff svgShape"></path><path fill="#403c57" d="M1614.3 1225.037c2.433 6.364 6.097 11.719 9.592 18.76-87.358 50.677-164.588 45.941-220.915-48.378-12.713-21.287 16.595-31.18 31.549-6.246 51.263 85.478 98.321 68.822 179.774 35.864z" class="color3c3f57 svgShape"></path><path fill="#ffffff" d="M1323.517 1406.939a14.874 14.874 0 0 0 5.446 12.05c9.229 7.563 27.117 21.237 34.353 19.961 9.954-1.755-15.846-30.251-39.703-34.657l-.096 2.646z" class="colorffffff svgShape"></path><path fill="#403c57" d="M1339.29 1405.59c-6.619 3.406-11.339 8.19-17.476 12.164-66.167-101.154-81.473-182.823 44.226-233.509 28.369-11.439 29.385 21.342-.916 32.187-103.879 37.181-69.545 108.478-25.834 189.158z" class="color3c3f57 svgShape"></path><path fill="#4f41a6" d="M1603.008 1458.56c-.122-1.594-.297-3.327-.821-5.605a26.956 26.956 0 0 0-1.26-4.001c-.701-1.643-1.607-3.57-3.545-5.923a24.597 24.597 0 0 0-1.712-1.81 22.857 22.857 0 0 0-2.252-1.823 21.852 21.852 0 0 0-2.764-1.617l-.602-.294-1.419-.698-5.551-2.707-21.65-10.405-43.209-20.604-86.441-41.044-19.274 45.09 89.282 34.229 44.59 17.179 21.88 8.506c-.006.297-.012.594-.023.899-.112 3.35-.419 6.999-.818 10.691a321.456 321.456 0 0 1-1.445 11.269c-1.104 7.598-2.417 15.287-3.827 22.989-2.831 15.413-6.05 30.894-9.409 46.37-3.365 15.48-6.892 30.963-10.476 46.465l-5.397 23.293-2.68 11.723-1.313 5.938a247.517 247.517 0 0 0-1.273 6.197l22.857 4.911c.427-1.699.939-3.576 1.456-5.435l1.601-5.649 3.321-11.407 6.748-22.93c4.499-15.317 8.959-30.679 13.276-46.121 4.312-15.448 8.501-30.959 12.356-46.698 1.924-7.875 3.764-15.804 5.429-23.895.829-4.05 1.615-8.14 2.32-12.327.701-4.195 1.332-8.463 1.766-13.059.215-2.304.374-4.703.404-7.362a53.141 53.141 0 0 0-.125-4.335z" class="color417fa6 svgShape"></path><path fill="#4f41a6" d="M1552.716 1457.975c-.142-1.559-.34-3.26-.889-5.487a30.035 30.035 0 0 0-.515-1.799c-.104-.322-.242-.7-.369-1.044-.139-.365-.246-.667-.442-1.106-.179-.41-.368-.816-.564-1.219a22.464 22.464 0 0 0-.754-1.38l-.42-.693c-.167-.258-.36-.539-.547-.803l-.583-.79a14.652 14.652 0 0 0-.672-.823 23.714 23.714 0 0 0-1.642-1.705 23.183 23.183 0 0 0-2.142-1.722 21.482 21.482 0 0 0-2.605-1.539l-.733-.36-1.366-.675-5.314-2.595-10.295-4.946-40.955-19.411-81.915-38.504-11.566 27.797c-3.965 9.53.809 20.444 10.499 24l67.082 24.62 42.315 15.684 9.687 3.648v.001c-.07 3.137-.336 6.599-.693 10.106-.715 6.967-1.767 14.184-2.942 21.415-1.181 7.24-2.502 14.525-3.896 21.82-2.797 14.594-5.886 29.229-9.096 43.862-3.214 14.636-6.561 29.274-9.955 43.933l-5.104 22.029-2.53 11.091c-.834 3.751-1.657 7.397-2.441 11.49l22.857 4.911c.826-3.264 1.866-6.915 2.879-10.464l3.132-10.778 6.377-21.67c4.257-14.475 8.485-28.99 12.594-43.572 4.107-14.585 8.107-29.228 11.856-44.036 1.871-7.408 3.678-14.855 5.368-22.4 1.684-7.555 3.266-15.173 4.563-23.133.641-3.994 1.215-8.058 1.591-12.466.184-2.212.322-4.504.318-7.084a51.74 51.74 0 0 0-.173-4.203z" class="color417fa6 svgShape"></path><path fill="#403c57" d="M1429.833 1388.2c3.521-1.438 7.406-1.639 11.205-1.822l14.239-.685c3.553-.171 7.163-.352 10.523-1.517 2.645-.917 4.935-2.362 6.917-4.177-.283-.64-.575-1.293-.854-1.929-1.33-3.02-2.607-5.978-3.854-8.884a642.133 642.133 0 0 1-4.112-9.801 541.631 541.631 0 0 1-1.639-3.988 696.938 696.938 0 0 1-8.709-22.22 769.675 769.675 0 0 1-3.329-9.121 632.722 632.722 0 0 1-4.875-14.263c-1.031-3.268-2.031-6.401-2.968-9.471a432.554 432.554 0 0 1-1.855-6.349c-9.584-33.742-10.976-56.065-8.636-71.72 2.144-14.243-3.401-28.517-14.82-37.257l-4.462-3.421c-20.674-15.882-50.933-4.535-55.9 21.076-1.649 8.575-2.927 18.355-3.494 29.414-.969 18.922-.711 38.463 1.391 58.971.309 3.143.691 6.276 1.092 9.471a383.965 383.965 0 0 0 3.566 22.581 489.194 489.194 0 0 0 1.865 9.389 394.415 394.415 0 0 0 4.865 20.22c.804 3.02 1.659 6.091 2.556 9.193 1.34 4.7 2.814 9.471 4.39 14.315.969 2.978 1.958 5.998 3.03 9.028a526.261 526.261 0 0 0 8.115 21.808c13.397-1.169 26.489-5.88 37.477-13.642 2.667-1.886 5.253-3.965 8.276-5.199z" class="color3c3f57 svgShape"></path><path fill="#312d4a" d="M1415.544 1103.462s16.106 8.95 10.538 19.163-18.531-10.527-18.531-10.527.996-14.016 7.993-8.636z" class="color2d334a svgShape"></path><path fill="#ffffff" d="M1379.725 1141.842c8.134 21.166 29.472 32.659 42.407 27.689s12.569-24.522 4.435-45.689c-8.134-21.166-22.759-27.908-35.694-22.938-12.935 4.971-19.282 19.771-11.148 40.938z" class="colorffffff svgShape"></path><path fill="#ffffff" d="m1380.339 1141.993 23.701-2.314c.32 3.245 2.803 34.148 1.599 45.795-.87 3.587-6.78 5.233-13.2 3.676-5.771-1.4-9.952-4.909-10.113-8.211l-.028-.005c.721-6.985-.855-27.602-1.959-38.941z" class="colorffffff svgShape"></path><path fill="#312d4a" d="M1371.472 1129.542s-.738-15.278 7.987-24.251c8.724-8.973 29.491-15.985 41.12 1.079 0 0 7.151 12.879-9.114 20.188-16.266 7.31-15.97-2.522-21.696 8.337-5.726 10.859-15.054 6.91-16.018 9.305l-2.279-14.658z" class="color2d334a svgShape"></path><path fill="none" d="m1300.685 1152.512.009.153.005.094.003-.018.002-.037-.002-.037z"></path><path fill="#c8bfff" d="M1393.152 1202.379s-7.58 88.42 0 106.2l18.75 12.986 10.242-20.778s-23.893-44.702-20.497-96.167l-8.495-2.241z" class="colorffc0bf svgShape"></path><path fill="#d5d0f2" d="m1396.54 1146.977 5.695 9.609-7.288 14.207 20.692 6.602 14.015-3.646 7.459-12.888.348-14.953-2.841-10.51-13.181-1.586z" class="colord0f1f2 svgShape"></path><path fill="#c6c1e8" d="m1399.603 1152.146.028 9.516 37.83.428.807-16.924z" class="colorc1e7e8 svgShape"></path><path fill="none" stroke="#d5d0f2" stroke-miterlimit="10" stroke-width="1.669" d="m1399.603 1147.782-22.768-3.32M1398.03 1169.707l-21.93-14.933" class="colorStroked0f1f2 svgStroke"></path><path fill="#c6c1e8" d="M1398.517 1147.782a1.086 1.086 0 1 1 2.171 0 1.086 1.086 0 0 1-2.171 0zM1396.944 1169.707a1.086 1.086 0 1 1 2.171 0 1.086 1.086 0 0 1-2.171 0z" class="colorc1e7e8 svgShape"></path><path fill="#ffffff" d="M1371.943 1151.216c1.893 4.927 9.206 9.348 12.774 7.977 3.568-1.371 2.926-5.708 1.032-10.635-1.893-4.927-6.557-8.425-10.124-7.054-3.568 1.372-5.575 4.785-3.682 9.712z" class="colorffffff svgShape"></path><path fill="#747091" d="M1488.961 542.663h9.609v450.143h-9.609zM1913.566 542.663h9.609v450.143h-9.609z" class="color707391 svgShape"></path><path fill="#a99cff" d="M1392.116 645.328h633.357v394.494h-633.357z" class="colorff9f9c svgShape"></path><path fill="#403c57" d="M1392.116 709.937h633.357v329.884h-633.357z" class="color3c3f57 svgShape"></path><path fill="#ffffff" d="M1427.331 742.162h267.39v262.136h-267.39z" class="colorffffff svgShape"></path><circle cx="1559.617" cy="871.997" r="72.239" fill="#a99cff" class="colorff9f9c svgShape"></circle><path fill="#c3baff" d="M1495.453 871.997c0-2.103 1.278-4.125 1.478-6.176.203-2.089-.657-4.32-.257-6.345.406-2.055 2.055-3.79 2.654-5.769.606-2.002.201-4.359.994-6.271.8-1.929 2.756-3.307 3.736-5.135.985-1.839 1.048-4.23 2.203-5.955 1.159-1.732 3.347-2.701 4.666-4.307 1.322-1.609 1.849-3.942 3.319-5.413 1.471-1.471 3.804-1.998 5.413-3.319 1.606-1.319 2.575-3.507 4.307-4.666 1.725-1.155 4.116-1.218 5.955-2.203 1.828-.979 3.205-2.935 5.135-3.735 1.913-.793 4.27-.387 6.271-.994 1.979-.599 3.713-2.247 5.768-2.654 2.025-.401 4.256.46 6.345.257 2.051-.2 4.073-1.478 6.176-1.478s4.125 1.278 6.176 1.478c2.089.203 4.32-.657 6.345-.257 2.055.407 3.79 2.055 5.769 2.654 2.002.606 4.359.201 6.271.994 1.929.8 3.307 2.757 5.135 3.736 1.839.985 4.23 1.048 5.955 2.203 1.732 1.159 2.701 3.347 4.307 4.666 1.609 1.322 3.942 1.849 5.413 3.32s1.998 3.804 3.319 5.413c1.319 1.606 3.507 2.575 4.666 4.307 1.155 1.725 1.218 4.116 2.203 5.955.979 1.828 2.935 3.205 3.735 5.135.793 1.913.387 4.27.994 6.271.599 1.979 2.247 3.713 2.654 5.768.401 2.025-.46 4.256-.257 6.345.2 2.051 1.478 4.073 1.478 6.176 0 2.103-1.278 4.125-1.478 6.176-.203 2.089.657 4.32.257 6.345-.407 2.055-2.055 3.79-2.654 5.769-.607 2.002-.201 4.359-.994 6.271-.8 1.929-2.757 3.307-3.736 5.135-.985 1.839-1.049 4.23-2.203 5.955-1.159 1.732-3.347 2.701-4.666 4.307-1.322 1.609-1.849 3.942-3.32 5.413s-3.804 1.998-5.413 3.319c-1.606 1.319-2.575 3.507-4.307 4.666-1.725 1.155-4.116 1.218-5.955 2.203-1.828.979-3.205 2.935-5.135 3.736-1.913.793-4.27.387-6.271.994-1.979.599-3.713 2.247-5.768 2.654-2.025.401-4.256-.46-6.345-.257-2.051.2-4.073 1.478-6.176 1.478-2.103 0-4.125-1.278-6.176-1.478-2.089-.203-4.32.657-6.345.257-2.055-.407-3.79-2.055-5.769-2.654-2.002-.607-4.359-.201-6.271-.994-1.929-.8-3.307-2.757-5.135-3.736-1.839-.985-4.23-1.049-5.955-2.203-1.732-1.159-2.701-3.347-4.307-4.666-1.609-1.322-3.942-1.849-5.413-3.32s-1.998-3.804-3.319-5.413c-1.319-1.606-3.506-2.575-4.666-4.307-1.155-1.725-1.218-4.116-2.203-5.955-.979-1.828-2.935-3.205-3.735-5.135-.793-1.913-.387-4.27-.994-6.271-.599-1.979-2.247-3.713-2.654-5.768-.401-2.025.46-4.256.257-6.345-.199-2.052-1.477-4.074-1.477-6.177z" class="colorffbcba svgShape"></path><path fill="#8883a8" d="M1563.188 764.224c-1.061-.216-2.064-.156-2.936.691a.904.904 0 0 1-1.271 0c-.872-.848-1.875-.908-2.936-.691-2.387.486-4.166 2.179-3.188 10.314.351 2.92 1.317 6.21 2.411 9.228 1.595 4.399 2.419 9.203 2.419 14.068v6.494a1.93 1.93 0 1 0 3.86 0v-6.494c0-4.864.824-9.669 2.419-14.068 1.094-3.018 2.06-6.308 2.411-9.228.977-8.135-.802-9.828-3.189-10.314zM1529.7 768.31c-1.076.122-2.011.489-2.579 1.565a.903.903 0 0 1-1.208.393c-1.092-.536-2.064-.284-3.006.25-2.12 1.2-3.288 3.36.156 10.794 1.236 2.669 3.171 5.499 5.145 8.032 2.876 3.691 5.144 8.005 6.647 12.632l2.007 6.177a1.93 1.93 0 1 0 3.671-1.193l-2.007-6.176c-1.503-4.626-2.204-9.45-2.047-14.127.108-3.209.01-6.636-.559-9.522-1.585-8.04-3.8-9.1-6.22-8.825zM1499.114 782.544c-.986.449-1.761 1.087-1.969 2.285a.903.903 0 0 1-1.028.747c-1.204-.173-2.05.368-2.782 1.167-1.645 1.796-2.089 4.211 3.484 10.218 2 2.156 4.715 4.25 7.375 6.049 3.876 2.622 7.366 6.024 10.226 9.959l3.817 5.254a1.93 1.93 0 0 0 3.123-2.268l-3.817-5.254c-2.859-3.935-5.016-8.307-6.312-12.803-.889-3.085-2.042-6.314-3.474-8.883-3.993-7.156-6.427-7.48-8.643-6.471zM1474.423 805.534c-.799.732-1.339 1.578-1.167 2.782a.903.903 0 0 1-.747 1.028c-1.198.208-1.836.983-2.285 1.969-1.009 2.217-.685 4.651 6.47 8.641 2.569 1.432 5.798 2.585 8.883 3.474 4.496 1.296 8.867 3.453 12.803 6.312l5.254 3.817a1.93 1.93 0 1 0 2.269-3.122l-5.254-3.817c-3.935-2.859-7.338-6.35-9.959-10.225-1.799-2.659-3.893-5.374-6.049-7.375-6.007-5.573-8.422-5.13-10.218-3.484zM1458.044 835.028c-.534.943-.786 1.915-.25 3.006a.903.903 0 0 1-.393 1.208c-1.076.568-1.442 1.503-1.565 2.579-.275 2.42.785 4.635 8.824 6.219 2.886.569 6.313.667 9.522.559 4.677-.157 9.5.544 14.127 2.047l6.177 2.007a1.93 1.93 0 0 0 1.193-3.671l-6.177-2.007c-4.626-1.503-8.941-3.771-12.632-6.647-2.533-1.973-5.363-3.909-8.032-5.145-7.434-3.444-9.594-2.275-10.794-.155zM1451.582 868.139c-.216 1.061-.156 2.064.691 2.936a.902.902 0 0 1 0 1.271c-.848.872-.907 1.875-.691 2.936.486 2.387 2.179 4.166 10.314 3.188 2.92-.351 6.21-1.317 9.228-2.411 4.399-1.594 9.203-2.419 14.068-2.419h6.495a1.93 1.93 0 1 0 0-3.86h-6.495c-4.864 0-9.669-.824-14.068-2.419-3.018-1.094-6.308-2.06-9.228-2.411-8.135-.976-9.828.803-10.314 3.189zM1455.668 901.628c.122 1.076.489 2.011 1.565 2.579.442.233.613.76.393 1.208-.536 1.092-.284 2.064.25 3.006 1.2 2.12 3.36 3.288 10.794-.155 2.669-1.236 5.499-3.171 8.032-5.145 3.691-2.876 8.005-5.144 12.632-6.647l6.177-2.007a1.93 1.93 0 1 0-1.193-3.671l-6.177 2.007c-4.626 1.503-9.45 2.204-14.126 2.047-3.209-.108-6.636-.01-9.522.559-8.04 1.583-9.1 3.798-8.825 6.219zM1469.902 932.214c.449.986 1.087 1.762 2.285 1.969a.903.903 0 0 1 .747 1.028c-.173 1.204.368 2.05 1.167 2.782 1.796 1.645 4.211 2.089 10.218-3.484 2.156-2 4.25-4.715 6.049-7.375 2.622-3.876 6.024-7.366 9.959-10.225l5.254-3.817a1.93 1.93 0 0 0-2.269-3.122l-5.254 3.817c-3.935 2.859-8.306 5.016-12.803 6.312-3.085.889-6.314 2.041-8.883 3.474-7.155 3.99-7.48 6.424-6.47 8.641zM1492.891 956.905c.731.799 1.578 1.34 2.782 1.167a.903.903 0 0 1 1.028.747c.208 1.198.983 1.836 1.969 2.285 2.217 1.009 4.651.685 8.641-6.47 1.432-2.569 2.585-5.798 3.474-8.883 1.296-4.496 3.453-8.867 6.312-12.803l3.817-5.254a1.93 1.93 0 0 0-3.122-2.268l-3.817 5.254c-2.859 3.935-6.35 7.338-10.225 9.959-2.659 1.799-5.374 3.893-7.375 6.049-5.573 6.006-5.129 8.421-3.484 10.217zM1522.385 973.283c.943.534 1.915.786 3.006.25a.901.901 0 0 1 1.208.393c.568 1.076 1.503 1.443 2.579 1.565 2.42.275 4.635-.785 6.219-8.824.569-2.886.667-6.313.559-9.522-.157-4.677.544-9.5 2.047-14.127l2.007-6.176a1.93 1.93 0 0 0-3.671-1.193l-2.007 6.177c-1.503 4.626-3.771 8.941-6.647 12.632-1.973 2.533-3.908 5.363-5.145 8.032-3.443 7.434-2.274 9.593-.155 10.793zM1555.497 979.746c1.061.216 2.064.156 2.936-.691a.902.902 0 0 1 1.271 0c.872.848 1.875.908 2.936.691 2.387-.486 4.165-2.179 3.188-10.314-.351-2.92-1.317-6.21-2.411-9.228-1.595-4.399-2.419-9.203-2.419-14.068v-6.494a1.93 1.93 0 1 0-3.86 0v6.494c0 4.864-.824 9.669-2.419 14.068-1.094 3.018-2.06 6.308-2.411 9.228-.976 8.135.802 9.828 3.189 10.314zM1588.985 975.66c1.076-.122 2.011-.489 2.579-1.565a.903.903 0 0 1 1.208-.393c1.092.536 2.064.284 3.006-.25 2.12-1.2 3.288-3.36-.156-10.794-1.236-2.669-3.171-5.499-5.145-8.032-2.876-3.691-5.144-8.005-6.647-12.632l-2.007-6.177a1.93 1.93 0 1 0-3.671 1.193l2.007 6.176c1.503 4.626 2.204 9.45 2.047 14.127-.108 3.209-.01 6.636.559 9.522 1.585 8.04 3.8 9.1 6.22 8.825zM1619.572 961.426c.986-.449 1.761-1.087 1.969-2.285a.903.903 0 0 1 1.028-.747c1.204.173 2.05-.368 2.782-1.167 1.645-1.796 2.089-4.211-3.484-10.218-2-2.156-4.715-4.25-7.375-6.049-3.876-2.622-7.366-6.024-10.226-9.959l-3.817-5.254a1.93 1.93 0 0 0-3.123 2.268l3.817 5.254c2.859 3.935 5.016 8.306 6.312 12.803.889 3.085 2.042 6.314 3.474 8.883 3.992 7.156 6.426 7.48 8.643 6.471zM1644.263 938.436c.799-.732 1.339-1.578 1.167-2.782a.903.903 0 0 1 .747-1.028c1.199-.208 1.836-.983 2.285-1.969 1.009-2.217.685-4.651-6.47-8.641-2.569-1.432-5.798-2.585-8.883-3.474-4.496-1.296-8.867-3.453-12.803-6.312l-5.254-3.817a1.93 1.93 0 0 0-2.695.427 1.931 1.931 0 0 0 .427 2.696l5.254 3.817c3.935 2.859 7.338 6.35 9.959 10.225 1.799 2.659 3.893 5.374 6.049 7.375 6.005 5.572 8.421 5.128 10.217 3.483zM1660.641 908.942c.534-.943.786-1.915.25-3.006a.903.903 0 0 1 .393-1.208c1.076-.568 1.442-1.503 1.565-2.579.275-2.42-.785-4.635-8.824-6.219-2.886-.568-6.313-.667-9.522-.559-4.677.157-9.5-.544-14.126-2.047l-6.177-2.007a1.93 1.93 0 0 0-1.193 3.671l6.176 2.007c4.626 1.503 8.941 3.771 12.632 6.647 2.532 1.973 5.363 3.909 8.032 5.145 7.434 3.444 9.594 2.275 10.794.155zM1667.104 875.831c.216-1.061.156-2.064-.691-2.936a.904.904 0 0 1 0-1.271c.848-.872.908-1.875.691-2.936-.486-2.387-2.179-4.165-10.314-3.188-2.92.351-6.21 1.317-9.228 2.411-4.399 1.595-9.203 2.419-14.068 2.419H1627a1.93 1.93 0 1 0 0 3.86h6.494c4.865 0 9.669.824 14.068 2.419 3.018 1.094 6.308 2.06 9.228 2.411 8.135.976 9.827-.803 10.314-3.189zM1663.018 842.342c-.122-1.076-.489-2.011-1.565-2.579a.903.903 0 0 1-.393-1.208c.536-1.092.284-2.064-.25-3.006-1.2-2.12-3.36-3.288-10.794.155-2.669 1.236-5.499 3.171-8.032 5.145-3.691 2.876-8.005 5.144-12.632 6.647l-6.177 2.007a1.93 1.93 0 1 0 1.193 3.671l6.177-2.007c4.626-1.503 9.45-2.204 14.126-2.047 3.209.108 6.636.01 9.522-.559 8.04-1.584 9.1-3.798 8.825-6.219zM1648.783 811.756c-.449-.986-1.087-1.762-2.285-1.969a.903.903 0 0 1-.747-1.028c.173-1.204-.368-2.05-1.167-2.782-1.796-1.645-4.211-2.089-10.218 3.484-2.156 2-4.25 4.715-6.049 7.375-2.622 3.876-6.024 7.366-9.959 10.225l-5.254 3.817a1.931 1.931 0 0 0 2.269 3.122l5.254-3.817c3.935-2.859 8.307-5.016 12.803-6.312 3.085-.889 6.314-2.041 8.883-3.474 7.156-3.99 7.48-6.425 6.47-8.641zM1625.794 787.065c-.731-.799-1.578-1.34-2.782-1.167a.903.903 0 0 1-1.028-.747c-.208-1.198-.983-1.836-1.969-2.285-2.217-1.009-4.651-.685-8.641 6.471-1.432 2.569-2.585 5.798-3.474 8.883-1.296 4.496-3.453 8.867-6.312 12.803l-3.817 5.254a1.93 1.93 0 0 0 3.122 2.268l3.817-5.254c2.859-3.935 6.35-7.338 10.225-9.959 2.659-1.799 5.375-3.893 7.375-6.049 5.573-6.007 5.129-8.422 3.484-10.218zM1596.3 770.687c-.943-.534-1.915-.786-3.006-.25a.901.901 0 0 1-1.208-.393c-.568-1.076-1.503-1.443-2.579-1.565-2.42-.275-4.635.785-6.219 8.824-.569 2.885-.667 6.313-.559 9.522.157 4.677-.544 9.5-2.047 14.126l-2.007 6.177a1.93 1.93 0 0 0 3.671 1.193l2.007-6.176c1.503-4.626 3.772-8.941 6.647-12.632 1.973-2.533 3.908-5.363 5.145-8.032 3.443-7.435 2.275-9.594.155-10.794zM1573.963 791.287c.251-2.039-.445-2.464-1.355-2.576-.91-.112-1.688.132-1.939 2.171-.047.385-.04.811.003 1.247.18 1.824.081 3.665-.143 5.484l-.797 6.48a.977.977 0 0 0 1.939.239l.797-6.48c.224-1.819.574-3.629 1.191-5.355.146-.414.256-.825.304-1.21zM1548.31 790.719c-.391-2.017-1.185-2.206-2.085-2.031-.9.175-1.565.647-1.173 2.664.074.381.212.783.388 1.186.734 1.679 1.209 3.461 1.559 5.26l1.244 6.409a.977.977 0 0 0 1.918-.372l-1.244-6.409c-.349-1.799-.575-3.629-.523-5.461.012-.44-.01-.865-.084-1.246zM1523.738 798.106c-.995-1.797-1.809-1.732-2.61-1.288s-1.288 1.099-.293 2.896c.188.339.444.679.736 1.008 1.217 1.37 2.219 2.918 3.108 4.521l3.164 5.711a.977.977 0 0 0 1.709-.947l-3.164-5.711c-.888-1.603-1.669-3.274-2.185-5.032a5.842 5.842 0 0 0-.465-1.158zM1502.65 812.724c-1.502-1.401-2.255-1.088-2.88-.418-.625.67-.886 1.443.616 2.845.284.265.632.509 1.011.731 1.581.927 3.012 2.089 4.353 3.339l4.774 4.454a.976.976 0 1 0 1.332-1.428l-4.774-4.454c-1.34-1.25-2.599-2.598-3.633-4.111a5.74 5.74 0 0 0-.799-.958zM1487.113 833.144c-1.862-.869-2.481-.338-2.869.493-.388.831-.396 1.646 1.465 2.515.352.164.759.289 1.187.383 1.79.393 3.51 1.056 5.171 1.831l5.916 2.761a.976.976 0 1 0 .826-1.77l-5.916-2.761c-1.661-.775-3.274-1.668-4.725-2.787a5.71 5.71 0 0 0-1.055-.665zM1478.645 857.365c-2.039-.251-2.464.445-2.576 1.355-.112.91.132 1.688 2.171 1.939.385.047.811.04 1.248-.003 1.824-.179 3.665-.081 5.484.143l6.48.797a.977.977 0 0 0 .239-1.939l-6.48-.797c-1.819-.224-3.629-.574-5.355-1.191a5.933 5.933 0 0 0-1.211-.304zM1478.077 883.018c-2.017.392-2.206 1.185-2.031 2.085.175.9.647 1.565 2.663 1.174a5.772 5.772 0 0 0 1.186-.388c1.679-.734 3.461-1.209 5.26-1.558l6.409-1.244a.978.978 0 0 0-.372-1.918l-6.409 1.244c-1.799.349-3.629.575-5.461.522a5.735 5.735 0 0 0-1.245.083zM1485.464 907.59c-1.797.995-1.732 1.809-1.288 2.61.444.802 1.099 1.288 2.896.293a5.788 5.788 0 0 0 1.008-.736c1.37-1.217 2.918-2.219 4.521-3.108l5.711-3.164a.977.977 0 0 0-.947-1.709l-5.711 3.164c-1.603.888-3.273 1.668-5.032 2.185a5.817 5.817 0 0 0-1.158.465zM1500.082 928.677c-1.401 1.502-1.088 2.255-.418 2.88.67.625 1.443.886 2.845-.616.265-.284.509-.632.731-1.011.927-1.581 2.089-3.012 3.339-4.352l4.454-4.774a.976.976 0 1 0-1.428-1.332l-4.454 4.774c-1.25 1.34-2.598 2.598-4.111 3.633a5.785 5.785 0 0 0-.958.798zM1520.502 944.215c-.869 1.862-.338 2.481.493 2.869.831.388 1.646.396 2.515-1.465.164-.352.289-.759.383-1.187.393-1.79 1.056-3.51 1.831-5.172l2.761-5.916a.976.976 0 1 0-1.77-.826l-2.761 5.916c-.775 1.661-1.668 3.274-2.787 4.725-.27.348-.501.705-.665 1.056zM1544.723 952.682c-.251 2.039.445 2.464 1.355 2.576.91.112 1.688-.132 1.939-2.171.047-.385.04-.811-.003-1.248-.179-1.824-.081-3.665.143-5.484l.797-6.48a.977.977 0 0 0-1.939-.239l-.797 6.48c-.224 1.819-.574 3.629-1.191 5.355a5.805 5.805 0 0 0-.304 1.211zM1570.375 953.251c.391 2.017 1.185 2.206 2.085 2.031.9-.175 1.565-.647 1.173-2.663a5.772 5.772 0 0 0-.388-1.186c-.734-1.679-1.209-3.461-1.558-5.26l-1.244-6.409a.978.978 0 0 0-1.918.372l1.244 6.409c.349 1.799.575 3.629.523 5.461-.013.439.01.864.083 1.245zM1594.948 945.864c.995 1.797 1.809 1.732 2.61 1.288.802-.444 1.288-1.099.293-2.896a5.788 5.788 0 0 0-.736-1.008c-1.217-1.37-2.219-2.918-3.108-4.521l-3.164-5.711a.976.976 0 1 0-1.709.947l3.164 5.711c.888 1.603 1.669 3.274 2.185 5.032.124.421.277.818.465 1.158zM1616.035 931.245c1.502 1.401 2.255 1.088 2.88.418.625-.67.886-1.443-.616-2.845a5.744 5.744 0 0 0-1.011-.731c-1.581-.927-3.012-2.089-4.353-3.339l-4.774-4.454a.976.976 0 1 0-1.332 1.428l4.774 4.454c1.34 1.25 2.599 2.598 3.633 4.111.248.363.515.694.799.958zM1631.573 910.826c1.862.869 2.481.338 2.869-.493.388-.831.396-1.646-1.465-2.515a5.776 5.776 0 0 0-1.187-.383c-1.79-.393-3.51-1.056-5.171-1.831l-5.916-2.761a.976.976 0 1 0-.826 1.77l5.916 2.761c1.661.775 3.274 1.668 4.725 2.787.346.269.703.501 1.055.665zM1640.04 886.605c2.039.251 2.464-.445 2.576-1.355.112-.91-.132-1.688-2.171-1.939a5.788 5.788 0 0 0-1.248.003c-1.824.179-3.665.081-5.484-.143l-6.48-.797a.977.977 0 0 0-.239 1.939l6.48.797c1.819.224 3.629.574 5.355 1.191.415.146.826.256 1.211.304zM1640.608 860.952c2.017-.391 2.206-1.185 2.031-2.085-.175-.9-.647-1.565-2.664-1.173a5.772 5.772 0 0 0-1.186.388c-1.679.734-3.461 1.209-5.26 1.558l-6.409 1.244a.978.978 0 0 0 .372 1.918l6.409-1.244c1.799-.349 3.629-.575 5.461-.523.44.013.866-.009 1.246-.083zM1633.222 836.38c1.797-.996 1.732-1.809 1.287-2.61-.444-.802-1.099-1.288-2.896-.293a5.788 5.788 0 0 0-1.008.736c-1.37 1.217-2.918 2.219-4.521 3.108l-5.711 3.164a.977.977 0 0 0 .947 1.709l5.711-3.164c1.603-.888 3.274-1.669 5.032-2.185a5.852 5.852 0 0 0 1.159-.465zM1618.603 815.292c1.401-1.502 1.088-2.255.418-2.88-.67-.625-1.443-.886-2.845.616a5.744 5.744 0 0 0-.731 1.011c-.927 1.581-2.089 3.012-3.339 4.352l-4.454 4.774a.976.976 0 1 0 1.428 1.332l4.454-4.774c1.25-1.34 2.598-2.599 4.111-3.633a5.61 5.61 0 0 0 .958-.798zM1598.184 799.755c.869-1.862.338-2.481-.493-2.869-.83-.388-1.646-.396-2.515 1.465a5.756 5.756 0 0 0-.383 1.187c-.393 1.79-1.056 3.51-1.831 5.171l-2.761 5.916a.976.976 0 1 0 1.77.826l2.761-5.916c.775-1.661 1.668-3.274 2.787-4.725a5.71 5.71 0 0 0 .665-1.055zM1592.79 814.5c-.696-.558-1.441-.928-2.356-.773a.862.862 0 0 1-.919-.514c-.348-.86-1.054-1.301-1.894-1.601-1.89-.673-3.743-.379-5.755 4.886-.722 1.89-1.123 4.25-1.34 6.499a24.053 24.053 0 0 1-2.953 9.399l-2.171 3.888c-.356.638-.02 1.505.752 1.935.771.431 1.685.263 2.042-.375l2.171-3.888a24.055 24.055 0 0 1 6.454-7.444c1.801-1.365 3.6-2.944 4.83-4.55 3.425-4.474 2.703-6.206 1.139-7.462zM1514.769 823.288c-.737.502-1.308 1.108-1.427 2.028a.863.863 0 0 1-.76.729c-.924.081-1.552.627-2.084 1.344-1.196 1.611-1.456 3.469 2.991 6.932 1.597 1.243 3.736 2.316 5.824 3.181a24.062 24.062 0 0 1 8.127 5.57l3.084 3.212c.506.527 1.433.459 2.07-.153.637-.612.744-1.535.238-2.062l-3.084-3.212a24.056 24.056 0 0 1-5.234-8.347c-.779-2.121-1.764-4.303-2.94-5.949-3.279-4.587-5.147-4.403-6.805-3.273zM1600.564 916.015c.7-.554 1.224-1.201 1.263-2.137a.845.845 0 0 1 .703-.784c.926-.141 1.513-.731 1.987-1.488 1.066-1.702 1.164-3.594-3.637-6.809-1.723-1.154-3.981-2.102-6.167-2.844a25.213 25.213 0 0 1-8.705-5.111l-3.401-3.049c-.558-.5-1.489-.372-2.078.285-.59.658-.615 1.597-.057 2.097l3.401 3.049a25.215 25.215 0 0 1 6.028 8.096c.975 2.092 2.164 4.233 3.499 5.82 3.718 4.423 5.589 4.12 7.164 2.875zM1565.49 928.028c.887-.032 1.701-.205 2.336-.781a1.048 1.048 0 0 1 1.038-.178c.791.333 1.615.225 2.463-.04 1.906-.595 3.203-1.751 1.658-5.978-.555-1.517-1.646-3.147-2.817-4.613-1.707-2.137-2.821-4.599-3.268-7.208l-.596-3.484c-.098-.572-.883-.914-1.754-.765-.871.149-1.498.733-1.4 1.305l.596 3.484c.447 2.609.214 5.302-.685 7.884-.617 1.772-1.104 3.672-1.123 5.287-.052 4.5 1.557 5.16 3.552 5.087zM1609.987 855.797c-.044-.886-.227-1.698-.811-2.325a1.046 1.046 0 0 1-.191-1.036c.323-.795.204-1.618-.071-2.462-.619-1.898-1.792-3.181-5.999-1.581-1.51.574-3.126 1.686-4.577 2.876-2.115 1.734-4.562 2.88-7.166 3.36l-3.476.641c-.57.105-.903.895-.743 1.764.16.869.752 1.488 1.323 1.383l3.476-.641c2.603-.48 5.299-.282 7.893.584 1.78.594 3.686 1.057 5.301 1.055 4.501-.008 5.139-1.625 5.041-3.618zM1561.874 827.81c-.874-.141-1.705-.158-2.447.178a1.26 1.26 0 0 1-1.052-.055c-.703-.412-1.531-.482-2.415-.432-1.987.111-3.499.781-2.877 4.413.223 1.304.947 2.797 1.783 4.176 1.219 2.01 1.79 4.165 1.678 6.312l-.15 2.865c-.025.47.671.889 1.553.935.882.046 1.617-.298 1.642-.768l.15-2.865c.112-2.146.905-4.231 2.327-6.103.975-1.284 1.851-2.694 2.209-3.968.997-3.546-.436-4.37-2.401-4.688zM1515.783 909.756c.523.718 1.12 1.296 1.953 1.5.343.084.659.416.728.762.166.841.716 1.465 1.409 2.02 1.558 1.248 3.243 1.678 5.884-1.966.948-1.308 1.69-3.124 2.251-4.914.818-2.609 2.237-4.909 4.151-6.738l2.556-2.441c.42-.401.265-1.243-.345-1.882-.61-.639-1.445-.832-1.864-.431l-2.556 2.441c-1.914 1.828-4.277 3.141-6.921 3.838-1.814.479-3.662 1.136-5.012 2.024-3.762 2.471-3.409 4.174-2.234 5.787zM1492.731 878.715c-.056.896.108 1.712.903 2.332.327.255.39.709.145 1.043-.596.813-.531 1.643-.232 2.49.672 1.904 2.266 3.171 8.833 1.438 2.357-.622 4.948-1.791 7.301-3.035 3.429-1.812 7.28-3.038 11.273-3.595l5.332-.743a1.6 1.6 0 0 0-.441-3.169l-5.332.743c-3.994.556-8.032.429-11.827-.377-2.603-.553-5.415-.97-7.853-.924-6.79.127-7.976 1.781-8.102 3.797z" class="color8583a8 svgShape"></path><path fill="#b5b1cc" d="M1558.26 816.789a2.165 2.165 0 1 1 4.33 0 2.165 2.165 0 0 1-4.33 0zM1587.121 831.941a2.165 2.165 0 1 1 4.33 0 2.165 2.165 0 0 1-4.33 0zM1540.944 819.675a2.164 2.164 0 1 1 4.329 0 2.164 2.164 0 0 1-4.329 0zM1511.362 870.903a2.165 2.165 0 1 1 4.33 0 2.165 2.165 0 0 1-4.33 0z" class="colorb3b1cc svgShape"></path><circle cx="1550.324" cy="850.7" r="2.165" fill="#b5b1cc" class="colorb3b1cc svgShape"></circle><path fill="#b5b1cc" d="M1587.843 893.27a2.165 2.165 0 1 1 4.33 0 2.165 2.165 0 0 1-4.33 0zM1591.45 870.903a2.165 2.165 0 1 1 4.33 0 2.165 2.165 0 0 1-4.33 0zM1553.931 865.852a2.164 2.164 0 1 1 4.329 0 2.164 2.164 0 0 1-4.329 0zM1538.779 924.295a2.164 2.164 0 1 1 4.329-.001 2.164 2.164 0 0 1-4.329.001zM1522.906 852.143a2.165 2.165 0 1 1 4.33 0 2.165 2.165 0 0 1-4.33 0zM1509.919 844.206a2.165 2.165 0 1 1 4.33 0 2.165 2.165 0 0 1-4.33 0zM1547.438 883.169a2.165 2.165 0 1 1 4.33 0 2.165 2.165 0 0 1-4.33 0zM1545.995 917.08a2.165 2.165 0 1 1 4.33 0 2.165 2.165 0 0 1-4.33 0zM1511.362 898.32a2.164 2.164 0 1 1 4.329 0 2.164 2.164 0 0 1-4.329 0zM1602.273 841.32a2.164 2.164 0 1 1 4.329 0 2.164 2.164 0 0 1-4.329 0zM1611.653 884.612a2.164 2.164 0 1 1 4.329 0 2.164 2.164 0 0 1-4.329 0zM1582.792 921.409a2.165 2.165 0 1 1 4.33 0 2.165 2.165 0 0 1-4.33 0z" class="colorb3b1cc svgShape"></path><circle cx="1574.855" cy="865.852" r="3.608" fill="#8883a8" class="color8583a8 svgShape"></circle><circle cx="1577.741" cy="870.181" r="3.608" fill="#8883a8" class="color8583a8 svgShape"></circle><circle cx="1571.969" cy="870.181" r="3.608" fill="#8883a8" class="color8583a8 svgShape"></circle><path fill="#8883a8" d="M1572.691 868.738a2.165 2.165 0 1 1 4.33 0 2.165 2.165 0 0 1-4.33 0zM1538.29 858.98a3.608 3.608 0 1 1 6.783 2.46 3.608 3.608 0 0 1-6.783-2.46z" class="color8583a8 svgShape"></path><path fill="#8883a8" d="M1539.528 864.033a3.608 3.608 0 1 1 6.783 2.46 3.608 3.608 0 0 1-6.783-2.46z" class="color8583a8 svgShape"></path><path fill="#8883a8" d="M1534.101 862.066a3.608 3.608 0 1 1 6.783 2.46 3.608 3.608 0 0 1-6.783-2.46z" class="color8583a8 svgShape"></path><path fill="#8883a8" d="M1538.663 862.185a2.164 2.164 0 1 1 4.07 1.474 2.164 2.164 0 0 1-4.07-1.474zM1548.856 893.311a3.608 3.608 0 1 1 7.216-.082 3.608 3.608 0 0 1-7.216.082z" class="color8583a8 svgShape"></path><path fill="#8883a8" d="M1551.792 897.607a3.608 3.608 0 1 1 7.216-.082 3.608 3.608 0 0 1-7.216.082z" class="color8583a8 svgShape"></path><path fill="#8883a8" d="M1546.02 897.673a3.608 3.608 0 1 1 7.216-.082 3.608 3.608 0 0 1-7.216.082z" class="color8583a8 svgShape"></path><path fill="#8883a8" d="M1550.332 896.181a2.164 2.164 0 1 1 4.329-.049 2.164 2.164 0 1 1-4.329.049z" class="color8583a8 svgShape"></path><path fill="none" stroke="#403c57" stroke-linecap="round" stroke-linejoin="round" stroke-miterlimit="10" stroke-width="21" d="m1410.059 976.63 296.372-212.512" class="colorStroke3c3f57 svgStroke"></path><path fill="#403c57" d="M1425.331 662.572h267.39v10.881h-267.39zM1425.331 683.188h267.39v10.881h-267.39z" class="color3c3f57 svgShape"></path><path fill="#5445b0" d="M1744.874 742.162h163.535v16.849h-163.535z" class="color458fb0 svgShape"></path><path fill="#c8bfff" d="M1744.874 774.021h234.662v8.102h-234.662zM1744.874 792.504h234.662v8.102h-234.662zM1744.874 810.987h234.662v8.102h-234.662zM1744.874 829.47h234.662v8.102h-234.662zM1744.874 847.668h163.535v8.388h-163.535zM1744.874 866.436h234.662v8.102h-234.662zM1744.874 884.919h234.662v8.102h-234.662zM1744.874 903.403h234.662v8.102h-234.662zM1744.874 921.886h234.662v8.102h-234.662zM1744.874 940.369h234.662v8.102h-234.662zM1744.874 958.852h186.786v8.102h-186.786zM1744.874 977.335h186.786v8.102h-186.786zM1744.874 995.818h126.68v8.102h-126.68z" class="colorffc0bf svgShape"></path><path fill="#ffffff" d="M1964.475 1636.883a7.696 7.696 0 0 1-7.55-9.234l11.043-54.236a7.696 7.696 0 1 1 15.083 3.071l-11.043 54.236a7.701 7.701 0 0 1-7.533 6.163z" class="colorffffff svgShape"></path><path fill="#555073" d="M1954.848 1626.657s-4.764 19.789 0 20.339c4.764.55 73.35 2.63 73.752-.55 1.374-10.863-54.696-20.889-60.193-19.789-5.497 1.1-12.935-2.874-13.559 0z" class="color535073 svgShape"></path><path fill="#ffffff" d="M2098.603 1636.883a7.696 7.696 0 0 1-7.55-9.234l11.043-54.236a7.696 7.696 0 1 1 15.083 3.071l-11.043 54.236a7.701 7.701 0 0 1-7.533 6.163z" class="colorffffff svgShape"></path><path fill="#403c57" d="M2115.543 1605.34c-8.204-.212-16.397-1.044-24.51-2.258 24.391-130.375 42.851-305.362-22.373-427.217 19.8-9.713 39.713-19.204 59.661-28.607 47.664 106.173 7.07 345.928-12.778 458.082z" class="color3c3f57 svgShape"></path><path fill="#403c57" d="M1980.549 1601.654c-8.163-2.42-16.283-4.999-24.164-8.233 61.019-119.248 105.681-306.945 95.006-442.705 22.183-1.143 44.409-1.884 66.611-2.522-8.316 135.867-84.667 330.989-137.453 453.46z" class="color3c3f57 svgShape"></path><path fill="#555073" d="M2088.976 1626.657s-4.764 19.789 0 20.339c4.764.55 73.35 2.63 73.752-.55 1.374-10.863-54.696-20.889-60.193-19.789-5.497 1.1-12.935-2.874-13.559 0z" class="color535073 svgShape"></path><path fill="#817ca1" d="M2146.158 1191.56c-12.997-4.344-39.781 2.621-52.706 0-19.029-3.878-28.4-2.441-47.213-1.328-2.406-59.025-.359-120.779-4.667-178.655-.933-12.171-1.544-19.424.718-28.543 3.052-12.279 9.443-20.752 17.736-25.24 10.161-5.565 23.157-5.134 36.298 1.58a29.488 29.488 0 0 1 5.709 3.447c7.791 5.96 14.972 17.593 16.121 39.53 2.907 54.787 17.664 132.266 28.004 189.209z" class="color7c7fa1 svgShape"></path><path fill="#ffffff" d="M2030.246 1168.301s39.399 13.562 42.923 23.447c3.524 9.885-35.434 1.219-51.652-18.053l8.729-5.394z" class="colorffffff svgShape"></path><path fill="#817ca1" d="M2033.224 1164.7c-3.64 5.951-7.48 11.839-11.036 17.381-99.577-78.315-93.31-125.543 14.64-208.42 16.512-12.677 17.25-9.665 25.239 2.829 2.991-.991 2.944-1.131 0 0 7.989 12.494 1.73 16.07-11.293 26.026-85.141 65.095-103.712 100.291-17.55 162.184z" class="color7c7fa1 svgShape"></path><path fill="#ffffff" d="M2275.372 869.968s7.758-40.94.921-48.901c-6.837-7.961-18.628 30.167-9.934 53.807l9.013-4.906z" class="colorffffff svgShape"></path><path fill="#817ca1" d="M2284.208 868.753c-6.844-3.335-14.032-5.893-21.458-8.828-36.031 85.365-27.297 143.864-161.247 115.28-20.489-4.372-21.038.035-20.413 15.295-3.015 1.027-3.046.938 0 0 .625 15.26 4.776 15.653 24.883 16.762 131.45 7.247 137.873-30.693 178.235-138.509z" class="color7c7fa1 svgShape"></path><path fill="#ffffff" d="M2061.647 919.232c9.689 21.172 32.291 31.586 45.229 25.665 12.938-5.921 11.313-25.935 1.624-47.107s-25.108-27.146-38.046-21.225c-12.938 5.922-18.496 21.495-8.807 42.667z" class="colorffffff svgShape"></path><path fill="#ffffff" d="m2065.659 918.803 24.337-2.376c.328 3.332 2.878 35.064 1.642 47.023-.893 3.684-6.962 5.373-13.553 3.774-5.926-1.438-10.219-5.041-10.385-8.431l-.028-.006c.739-7.171-.879-28.341-2.013-39.984z" class="colorffffff svgShape"></path><path fill="#312d4a" d="M2052.402 907.154s-1.732-15.61 6.635-25.364 29.201-18.268 42.21-1.523c0 0 8.152 12.741-8.05 21.272-16.202 8.531-16.528-1.564-21.701 9.931s-14.986 8.044-15.821 10.56l-3.273-14.876z" class="color2d334a svgShape"></path><path fill="#d5d0f2" d="m2077.702 922.883 6.527 9.065-5.996 14.799 21.196 4.737 13.636-4.877 6.284-13.5-.982-14.925-3.763-10.216-13.271-.408z" class="colord0f1f2 svgShape"></path><path fill="#c6c1e8" d="m2081.213 927.759.873 9.477 37.719-2.936-.7-16.929z" class="colorc1e7e8 svgShape"></path><path fill="none" stroke="#d5d0f2" stroke-miterlimit="10" stroke-width="1.669" d="m2080.825 923.413-22.972-1.283M2081.206 945.391l-23.17-12.925" class="colorStroked0f1f2 svgStroke"></path><path fill="#c6c1e8" d="M2079.744 923.51a1.086 1.086 0 1 1 2.164-.192 1.086 1.086 0 0 1-2.164.192zM2080.125 945.488a1.086 1.086 0 1 1 2.164-.192 1.086 1.086 0 0 1-2.164.192z" class="colorc1e7e8 svgShape"></path><path fill="#ffffff" d="M2053.679 928.774c2.255 4.928 10.032 8.992 13.601 7.359 3.569-1.633 2.634-6.037.378-10.965-2.255-4.928-7.258-8.215-10.827-6.581-3.568 1.632-5.407 5.259-3.152 10.187z" class="colorffffff svgShape"></path></svg>