<svg xmlns="http://www.w3.org/2000/svg" enable-background="new 0 0 350 350" viewBox="34.2 53.594 281.598 242.933" id="TranslationApp"><path fill="#f2f1fc" d="M293.8 244.2c-2.2 7.6-4.7 14.6-8.8 21.2H57.4c-4.8-3.7-8.8-8.9-10-14.8-.4-1.8-.5-3.6-.3-5.4l.3-2.1c2.5-11.8 15.9-20 21-31 4.7-10 2.7-21.7-.8-32.3-3.5-10.6-8.4-20.8-9.1-31.8-1.5-21.9 16-43.5 38.8-48 27-5.3 55.3 11.1 81.8 2.4 6.6-2.2 12.6-6.3 16.7-11.7 1.9-2.6 3.5-5.4 4.3-8.5.7-2.4-.4-7.1.6-9 2.8-5 15.2-5.1 20.1-4.7 7.1.6 14.1 2.9 20.3 6 35 17.3 57.3 54.5 61 94.5 2.7 25.6-1.3 50.9-8.3 75.2z" class="colorf3f1fc svgShape"></path><path fill="#d3cef2" d="M67.1 214.5h233.4c3.6-22.5 3.7-45.7-2.3-67.6h-12.5c-.8 0-1.5.7-1.5 1.5v26.7c0 1.6-1.3 2.9-2.9 2.9h-12.9c-1.6 0-2.9-1.3-2.9-2.9V143c0-.8-.7-1.5-1.5-1.5h-5.3c-.8 0-1.5.7-1.5 1.5v22.9c0 1.6-1.3 2.9-2.9 2.9h-23.2c-1.6 0-2.9-1.3-2.9-2.9v-28c0-.8-.7-1.5-1.5-1.5h-32.4c-.8 0-1.5.7-1.5 1.5v16.3c0 1.6-1.3 2.9-2.9 2.9h-18.3c-1.6 0-2.9-1.3-2.9-2.9v-15.8c0-.8-.7-1.5-1.5-1.5h-2.7c-.8 0-1.5.7-1.5 1.5v30.9c0 1.6-1.3 2.9-2.9 2.9H155c-1.6 0-2.9-1.3-2.9-2.9v-12.7c0-1.2-1-2.2-2.2-2.2h-14.5c-1.2 0-2.2 1-2.2 2.2v17.6c0 1.6-1.3 2.9-2.9 2.9H122c-1.6 0-2.9-1.3-2.9-2.9V137c0-.8-.7-1.5-1.5-1.5H97.8c-.8 0-1.5.7-1.5 1.5v32.2c0 1.6-1.3 2.9-2.9 2.9H65c.9 2.5 1.8 5 2.7 7.6 3.9 11.8 5.7 24.2-.6 34.8z" class="colord0cef2 svgShape"></path><path fill="#ffffff" d="M300.5 214.5c-.2 1.2-.6 3.7-.9 5.1H63.5c1.3-1.7 2.6-3.4 3.6-5.1h233.4z" class="colorffffff svgShape"></path><path fill="#524c75" d="M214.5 110.8c-.1 0-.2 0-.2-.1-.1-.1-.1-.3 0-.4.2-.1.3-.3.5-.4.1-.1.3-.1.4 0 .1.1.1.3 0 .4l-.5.5h-.2zm2.7-3.7h-.1c-.1-.1-.2-.3-.1-.4.4-.9.7-1.8.9-2.8 0-.2.2-.3.4-.2.2 0 .3.2.2.4-.2 1-.6 2-1 2.9-.1 0-.2.1-.3.1zm1.3-6.8c-.2 0-.3-.1-.3-.3-.1-1-.2-2-.5-2.9 0-.2.1-.3.2-.4.2 0 .3.1.4.2.3 1 .4 2 .5 3 0 .2-.1.4-.3.4zm-59.9-4.5c-1 0-2-.1-3-.3-.2 0-.3-.2-.3-.3 0-.2.2-.3.3-.3l3 .3c.2 0 .3.1.3.3 0 .2-.1.3-.3.3zm4-.1c-.2 0-.3-.1-.3-.3 0-.2.1-.3.3-.3l3-.3c.2 0 .3.1.3.2 0 .2-.1.3-.2.3-1 .2-2 .4-3.1.4zm-39.2-.3c-.2 0-.3-.2-.3-.3 0-.2.2-.3.3-.3 1.7.1 2.9.1 3 .1.2 0 .3.1.3.3 0 .2-.1.3-.3.3-.1 0-1.3 0-3-.1zm6.7-.4c0-.2.1-.3.3-.3 1-.1 2-.2 3-.4.2 0 .3.1.3.2 0 .2-.1.3-.2.3-1 .2-2 .3-3 .4-.2.1-.3 0-.4-.2zm-10.7 0c-1-.1-2-.3-3-.6-.2 0-.3-.2-.2-.4 0-.2.2-.3.4-.2 1 .2 1.9.4 2.9.5.2 0 .3.2.3.3-.1.3-.2.4-.4.4zm32.3-.2c-1.1-.3-2-.5-3-.9-.2-.1-.2-.2-.2-.4.1-.2.2-.2.4-.2.9.3 1.9.6 2.9.8.2 0 .3.2.2.4 0 .2-.2.3-.3.3zm17.8-.3c-.1 0-.3-.1-.3-.2 0-.2 0-.3.2-.4.5-.2 1.1-.3 1.6-.5.4-.1.8-.3 1.2-.4.2-.1.3 0 .4.2.1.2 0 .3-.2.4-.4.2-.8.3-1.2.4-.5.2-1.1.3-1.7.5.1 0 0 0 0 0zm-32.5-.7c0-.2.1-.3.2-.4 1-.3 1.9-.5 2.8-.9.2-.1.3 0 .4.2.1.2 0 .3-.2.4-.9.3-1.9.6-2.9.9-.1 0-.2 0-.3-.2zm79.2-.3c-.5-.8-1.1-1.6-1.7-2.4-.1-.1-.1-.3 0-.4s.3-.1.4 0c.7.8 1.3 1.6 1.8 2.5.1.1 0 .3-.1.4-.1.1-.3 0-.4-.1zm-103.6-.1c-1.1-.4-2-.9-2.7-1.5-.1-.1-.1-.3 0-.4.1-.1.3-.1.4 0 .7.6 1.5 1 2.5 1.4.2.1.2.2.2.4-.1 0-.3.1-.4.1zm32.4-1c-1-.5-1.8-1.1-2.6-1.7-.1-.1-.1-.3 0-.4.1-.1.3-.1.4 0 .3.3.7.5 1.1.8 1-.4 1.8-.9 2.5-1.3.1-.1.3-.1.4.1.1.1.1.3-.1.4-.6.4-1.4.8-2.2 1.2.2.1.5.3.8.4.1.1.2.3.1.4-.1.1-.2.2-.4.1zm31-.4c-.1 0-.2-.1-.3-.2-.1-.2 0-.3.1-.4.9-.4 1.8-.9 2.7-1.3.1-.1.3 0 .4.1.1.1 0 .3-.1.4-.9.4-1.8.9-2.7 1.3 0 .1 0 .1-.1.1zm6.3-3.1c-.1 0-.2-.1-.3-.2-.1-.1 0-.3.1-.4 1-.5 1.9-.9 2.7-1.3.2-.1.3 0 .4.2.1.2 0 .3-.2.4-.8.4-1.7.8-2.7 1.2.1.1.1.1 0 .1zm29.3-.4c-.8-.6-1.6-1.1-2.5-1.5-.1-.1-.2-.3-.1-.4.1-.1.3-.2.4-.1.9.5 1.8 1 2.6 1.6.1.1.2.3.1.4-.2.1-.4.1-.5 0zm-103.4 0c-.2 0-.3-.1-.3-.3-.1-1.1.2-2.2.9-3 .1-.1.3-.1.4 0 .1.1.1.3 0 .4-.6.7-.8 1.6-.8 2.6.1.1 0 .3-.2.3zm31.8-1.1c-.4-.9-.5-2-.5-3.1 0-.2.2-.3.3-.3.2 0 .3.1.3.3 0 .9.1 1.9.5 2.8.1.2 0 .3-.2.4-.2.1-.3.1-.4-.1zm9.3.1c-.1-.1-.2-.3-.1-.4.5-.8.9-1.7 1.1-2.6 0-.2.2-.3.3-.2.2 0 .3.2.2.3-.2 1-.6 2-1.2 2.9 0 0-.2.1-.3 0zm39.5-1.3c-.1 0-.2-.1-.3-.2-.1-.2 0-.3.2-.4 1-.3 2-.6 2.9-.8.2 0 .3.1.4.2 0 .2-.1.3-.2.4-1 .2-2 .5-3 .8zm16.6-.7c-1.6-.5-2.8-.6-2.9-.6-.2 0-.3-.2-.3-.3 0-.2.2-.3.3-.3.1 0 1.3.2 3 .7.2 0 .2.2.2.4 0 0-.1.1-.3.1zm-9.8-.8c-.2 0-.3-.1-.3-.3 0-.2.1-.3.3-.3 1.8-.2 3.1-.2 3-.2.2 0 .3.1.3.3 0 .2-.1.3-.3.3-1 0-2 .1-3 .2zm-54.7-3.8c-.1-.1-.2-.3-.1-.4.7-.9 1.6-1.5 2.5-1.9.2-.1.3 0 .4.2.1.2 0 .3-.2.4-.5.2-1 .4-1.4.8l-.9.9c0 .1-.2.1-.3 0zm8.6-.1c-.5-.7-1.3-1.3-2.2-1.6-.2-.1-.2-.2-.2-.4.1-.2.2-.2.4-.2 1.1.4 1.9 1 2.5 1.8.1.1.1.3-.1.4-.1.2-.3.1-.4 0z" class="color4c5c75 svgShape"></path><path fill="#ffffff" d="M92.6 101.2v116.3h-5.1V102.6c1.6-.5 3.3-1 5.1-1.4zM139.9 217.1V102.7c-.1 0-4.3-.7-5.1-.9V217h5.1zM234.5 217.1V71.7c-1.7-.6-3.4-1.2-5.1-1.6v147h5.1z" class="colorffffff svgShape"></path><path fill="#e2dff4" d="M284.7 265.3c-3.2 5.7-7.6 10.8-13.4 14.1-8.6 5-19.2 5.5-29.3 5.8-50.1 1.2-100.3-1.4-149.9-7.8-12.4-1.6-25.4-3.6-34.5-12.1h227.1z" class="colore2dff4 svgShape"></path><path fill="#f2f1fc" d="M177.5 74c-2.1-2.4-5.5-3.7-8.7-3.2-2.6.3-5.1 1.7-7.8 1.7-4.6-.1-7.8-4-11.4-6.2-1.9-1.1-4.1-1.9-6.3-1.6-1.8.3-3.3 1.3-4.6 2.6-1.2 1.2-3.7 4.4-3.3 6.8h42.1z" class="colorf3f1fc svgShape"></path><path fill="#ffffff" d="M136.7 114.6c-1.9-2.1-4.8-3.2-7.5-2.8-2.3.3-4.4 1.5-6.7 1.5-4-.1-6.7-3.5-9.9-5.4-3.4-2.1-6.6-2-9.4.9-1 1-3.2 3.8-2.8 5.9h36.3zM218.8 80.6c-.3-2.4 1.3-6.1 3-6.5 1.7-.4 3.4.5 4.9 1.6 1.5 1.1 3 2.3 4.7 2.6 3.9.7 7.4-3.6 11.3-3.8 4.4-.3 8.6 4.8 12.9 3.3 1.9-.7 3.7-2.6 5.7-2.3 2 .3 3.4 2.8 4.6 5.1h-47.1z" class="colorffffff svgShape"></path><path fill="#b2abdb" d="M108 77.4v3.7h.2l-.1 1.4h-.5c-.1 0-.3 0-.4-.2l-2.7-3.3 3.5-1.6z" class="colorababdb svgShape"></path><path fill="#f2f1fc" d="m94.3 69.3 5.2 11c.1.3.5.5.8.4l6-2.4-6.3-6c-.2-.2 0-.5.3-.4l10.7 4.6 2.7-1c.6-.2.6-1 0-1.2L95 68.5c-.4-.2-.9.3-.7.8z" class="colorf3f1fc svgShape"></path><path fill="#d3cef2" d="m100.1 72.4 6.3 6 1.3 3.8c.1.4.7.4.9 0l2.6-5.7-10.8-4.5c-.2-.1-.4.2-.3.4z" class="colord0cef2 svgShape"></path><path fill="#ffffff" d="M275.2 99.6v149c0 4.8-3.9 8.7-8.7 8.7h-79.3c-4.8 0-8.7-3.9-8.7-8.7v-149c0-4.8 3.9-8.7 8.7-8.7h79.3c4.8 0 8.7 3.9 8.7 8.7z" class="colorffffff svgShape"></path><linearGradient id="a" x1="210.64" x2="242.959" y1="95.267" y2="95.267" gradientUnits="userSpaceOnUse"><stop offset="0" stop-color="#6e57fe" class="stopColor57b3fe svgShape"></stop><stop offset="1" stop-color="#6249fe" class="stopColor497bfe svgShape"></stop></linearGradient><path fill="url(#a)" d="M243 90.9v6.6c0 1.2-1 2.2-2.2 2.2h-27.9c-1.2 0-2.2-1-2.2-2.2v-6.6H243z"></path><linearGradient id="b" x1="178.41" x2="275.189" y1="247.825" y2="247.825" gradientUnits="userSpaceOnUse"><stop offset="0" stop-color="#6e57fe" class="stopColor57b3fe svgShape"></stop><stop offset="1" stop-color="#6249fe" class="stopColor497bfe svgShape"></stop></linearGradient><path fill="url(#b)" d="M178.4 238.3v10.3c0 4.8 3.9 8.7 8.7 8.7h79.3c4.8 0 8.7-3.9 8.7-8.7v-10.3h-96.7z"></path><path fill="#ffffff" d="M237.3 95.3c0 .6-.5 1.2-1.2 1.2h-11.9c-.6 0-1.2-.5-1.2-1.2 0-.6.5-1.2 1.2-1.2h11.9c.6 0 1.2.5 1.2 1.2zM219.4 95.3c0 .6-.5 1.2-1.2 1.2h-.7c-.6 0-1.2-.5-1.2-1.2 0-.6.5-1.2 1.2-1.2h.7c.7 0 1.2.5 1.2 1.2z" class="colorffffff svgShape"></path><path fill="#eeebfe" d="M269.4 99.9c0 1.8-1.5 3.3-3.3 3.3-1.8 0-3.3-1.5-3.3-3.3 0-1.8 1.5-3.3 3.3-3.3 1.8 0 3.3 1.5 3.3 3.3z" class="colorebf4fe svgShape"></path><linearGradient id="c" x1="264.699" x2="267.416" y1="99.89" y2="99.89" gradientUnits="userSpaceOnUse"><stop offset="0" stop-color="#6e57fe" class="stopColor57b3fe svgShape"></stop><stop offset="1" stop-color="#6249fe" class="stopColor497bfe svgShape"></stop></linearGradient><path fill="url(#c)" d="m266.8 101.1-2-2c-.1-.1-.1-.4 0-.5.1-.1.4-.1.5 0l2 2c.1.1.1.4 0 .5-.1.2-.3.2-.5 0z"></path><linearGradient id="d" x1="264.699" x2="267.416" y1="99.89" y2="99.89" gradientUnits="userSpaceOnUse"><stop offset="0" stop-color="#6e57fe" class="stopColor57b3fe svgShape"></stop><stop offset="1" stop-color="#6249fe" class="stopColor497bfe svgShape"></stop></linearGradient><path fill="url(#d)" d="M264.8 101.1c-.1-.1-.1-.4 0-.5l2-2c.1-.1.4-.1.5 0 .1.1.1.4 0 .5l-2 2c-.1.2-.4.2-.5 0z"></path><path fill="#eeebfe" d="M193.9 97.8h-8.5c-.2 0-.3-.1-.3-.3 0-.2.1-.3.3-.3h8.5c.2 0 .3.1.3.3 0 .1-.1.3-.3.3zM193.9 100.3h-8.5c-.2 0-.3-.1-.3-.3 0-.2.1-.3.3-.3h8.5c.2 0 .3.1.3.3 0 .2-.1.3-.3.3zM193.9 102.9h-8.5c-.2 0-.3-.1-.3-.3 0-.2.1-.3.3-.3h8.5c.2 0 .3.1.3.3 0 .1-.1.3-.3.3z" class="colorebf4fe svgShape"></path><path fill="#ffffff" d="M234 247.6c0 1.7-1.4 3.2-3.2 3.2h-8.2c-1.7 0-3.2-1.4-3.2-3.2 0-1.7 1.4-3.2 3.2-3.2h8.2c1.8 0 3.2 1.4 3.2 3.2z" class="colorffffff svgShape"></path><linearGradient id="e" x1="265.528" x2="268.897" y1="181.894" y2="181.894" gradientUnits="userSpaceOnUse"><stop offset="0" stop-color="#9e8fff" class="stopColor8fb7ff svgShape"></stop><stop offset="1" stop-color="#ac9ffc" class="stopColor9fbcfc svgShape"></stop></linearGradient><path fill="url(#e)" d="m267.1 180.2 1.7 2.2c.1.1.1.3-.1.5l-1 .8c-.1.1-.3.1-.5-.1l-1.7-2.2c-.1-.1-.1-.3.1-.5l1-.8c.2-.1.4 0 .5.1z"></path><path fill="#6254b9" d="M192 131.3c0 .1-.1.2-.2.2-.9 0-1.7.7-1.7 1.7 0 .1-.1.2-.2.2s-.2-.1-.2-.2c0-.4-.2-.9-.5-1.2-.3-.3-.7-.5-1.2-.5-.1 0-.2-.1-.2-.2s.1-.2.2-.2c.4 0 .9-.2 1.2-.5.3-.3.5-.7.5-1.2 0-.1.1-.2.2-.2s.2.1.2.2c0 .4.2.9.5 1.2.3.3.7.5 1.2.5.1 0 .2.1.2.2z" class="color6eb954 svgShape"></path><path fill="#6751f4" d="M186.7 108.4v9.7c0 .9.7 1.5 1.5 1.5h10l3.6 2.8c.4.3 1 0 1-.5v-2.3h1.1c.9 0 1.5-.7 1.5-1.5v-9.7c0-.9-.7-1.5-1.5-1.5h-15.7c-.8-.1-1.5.6-1.5 1.5z" class="colorf45170 svgShape"></path><path fill="#4932df" d="m199.4 116.1-2.7-6.5c-.1-.2-.2-.3-.3-.4-.1-.1-.3-.2-.5-.2h-.1c-.2 0-.3.1-.5.2-.1.1-.2.2-.3.4l-2.7 6.4c0 .1-.1.2-.1.3 0 .2.1.3.2.4.2.2.6.3.8.1.1-.1.2-.2.2-.3l.7-1.6h3.4l.7 1.6c.1.1.1.2.2.3.1.1.2.1.4.1s.3-.1.5-.2c.1-.1.2-.3.2-.4 0 0-.1-.1-.1-.2zm-2.3-2.2h-2.4l1.2-2.9 1.2 2.9zM205.5 116.7v1.3c0 .9-.7 1.6-1.6 1.6h-1.2v2.3c0 .5-.6.8-1 .5l-3.6-2.8h-9.9c-.8 0-1.5-.7-1.5-1.5 2 .3 4.1.4 6.3.4 4.6 0 8.9-.6 12.5-1.8z" class="colordf3260 svgShape"></path><path fill="#f2f1fc" d="M214.5 164.6V180c0 1-.8 1.7-1.7 1.7h-21.5c-1 0-1.7-.8-1.7-1.7v-15.4c0-1 .8-1.7 1.7-1.7h21.5c1 0 1.7.8 1.7 1.7zM214.5 189.7v15.4c0 1-.8 1.7-1.7 1.7h-21.5c-1 0-1.7-.8-1.7-1.7v-15.4c0-1 .8-1.7 1.7-1.7h21.5c1-.1 1.7.7 1.7 1.7zM214.5 214.7v15.4c0 1-.8 1.7-1.7 1.7h-21.5c-1 0-1.7-.8-1.7-1.7v-15.4c0-1 .8-1.7 1.7-1.7h21.5c1-.1 1.7.7 1.7 1.7zM253 165.8c0 .6-.5 1.2-1.2 1.2h-14.3c-.6 0-1.2-.5-1.2-1.2 0-.6.5-1.2 1.2-1.2h14.3c.6.1 1.2.6 1.2 1.2zM265 171.2c0 .6-.5 1.2-1.2 1.2h-38.4c-.6 0-1.2-.5-1.2-1.2 0-.6.5-1.2 1.2-1.2h38.4c.7 0 1.2.5 1.2 1.2zM238.6 176.6c0-.6-.5-1.2-1.2-1.2h-11.9c-.6 0-1.2.5-1.2 1.2s.5 1.2 1.2 1.2h11.9c.6-.1 1.2-.6 1.2-1.2zM249.9 175.4h-6.4c-.6 0-1.2.5-1.2 1.2 0 .6.5 1.2 1.2 1.2h6.4c.6 0 1.2-.5 1.2-1.2s-.5-1.2-1.2-1.2zM253 192c0 .6-.5 1.2-1.2 1.2h-14.3c-.6 0-1.2-.5-1.2-1.2 0-.6.5-1.2 1.2-1.2h14.3c.6 0 1.2.6 1.2 1.2zM265 197.4c0 .6-.5 1.2-1.2 1.2h-38.4c-.6 0-1.2-.5-1.2-1.2 0-.6.5-1.2 1.2-1.2h38.4c.7 0 1.2.5 1.2 1.2zM238.6 202.7c0-.6-.5-1.2-1.2-1.2h-11.9c-.6 0-1.2.5-1.2 1.2s.5 1.2 1.2 1.2h11.9c.6 0 1.2-.5 1.2-1.2zM249.9 201.6h-6.4c-.6 0-1.2.5-1.2 1.2 0 .6.5 1.2 1.2 1.2h6.4c.6 0 1.2-.5 1.2-1.2s-.5-1.2-1.2-1.2zM253 217c0 .6-.5 1.2-1.2 1.2h-14.3c-.6 0-1.2-.5-1.2-1.2 0-.6.5-1.2 1.2-1.2h14.3c.6 0 1.2.6 1.2 1.2zM265 222.4c0 .6-.5 1.2-1.2 1.2h-38.4c-.6 0-1.2-.5-1.2-1.2 0-.6.5-1.2 1.2-1.2h38.4c.7 0 1.2.5 1.2 1.2zM238.6 227.7c0-.6-.5-1.2-1.2-1.2h-11.9c-.6 0-1.2.5-1.2 1.2s.5 1.2 1.2 1.2h11.9c.6 0 1.2-.5 1.2-1.2zM249.9 226.6h-6.4c-.6 0-1.2.5-1.2 1.2 0 .6.5 1.2 1.2 1.2h6.4c.6 0 1.2-.5 1.2-1.2s-.5-1.2-1.2-1.2z" class="colorf3f1fc svgShape"></path><path fill="#6751f4" d="M192.5 166.4h19v12.2h-19z" class="colorf45170 svgShape"></path><path fill="#ffffff" d="M192.5 191.2h19v12.2h-19z" class="colorffffff svgShape"></path><path fill="#7661ff" d="M192.5 170.4h19v4.2h-19z" class="colorffb961 svgShape"></path><path fill="#524c75" d="M192.5 216.3h6.4v12.2h-6.4z" class="color4c5c75 svgShape"></path><path fill="#6751f4" d="M205.2 216.3h6.4v12.2h-6.4z" class="colorf45170 svgShape"></path><path fill="#ffffff" d="M198.9 216.3h6.3v12.2h-6.3z" class="colorffffff svgShape"></path><path fill="#6751f4" d="M200.5 191.2h3.1v12.2h-3.1z" class="colorf45170 svgShape"></path><path fill="#6751f4" d="M192.5 195.8h19v3.1h-19z" class="colorf45170 svgShape"></path><path fill="#f2f1fc" d="M245.3 128.6c0 1.3-.1 2.5-.4 3.7-1.7 8.5-9.2 14.8-18.1 14.8-10.2 0-18.5-8.3-18.5-18.5 0-2.7.6-5.2 1.6-7.5 2.9-6.5 9.4-11 16.9-11 2.3 0 4.5.4 6.6 1.2 1.8.7 3.5 1.6 5 2.8 4.2 3.4 6.9 8.6 6.9 14.5z" class="colorf3f1fc svgShape"></path><path fill="#e2dff4" d="M245.3 128.6c0 .9-.1 1.9-.2 2.8 0 .3-.1.6-.2.9-1.7 8.4-9.2 14.8-18.1 14.8-3.5 0-6.7-1-9.5-2.6 1.4.3 2.8.5 4.3.5 2.5 0 4.9-.5 7-1.4 1.6-.6 3-1.5 4.3-2.5 1.9-1.5 3.5-3.4 4.7-5.5.9-1.7 1.6-3.5 2-5.4.2-1.2.4-2.4.4-3.7 0-1.5-.2-2.9-.5-4.3-.1-.5-.2-.9-.4-1.4-.5-1.6-1.2-3.1-2.1-4.4-.1-.1-.1-.2-.2-.3-.1-.2-.3-.4-.4-.6-.9-1.3-2.1-2.4-3.3-3.4-.7-.5-1.3-1-2.1-1.4.8.2 1.6.4 2.3.7 1.8.7 3.5 1.6 5 2.8 4.3 3.3 7 8.5 7 14.4z" class="colore2dff4 svgShape"></path><path fill="#6254b9" d="M218.2 128c.3-.3.5-.7.8-.9.6-.3 1.2.3 1.9.2.3 0 .7-.3 1-.1.3.2.3.5.4.8.1.4.5.7.9.8.2 0 .4 0 .6.1.3.2.3.7.6 1 .2.2.5.3.7.3l1.2.3c.3.1.7.2.9.4.3.3.4.7.4 1.1-.1.4-.3.8-.5 1.1-.1.2-.3.3-.4.5-.1.3 0 .6 0 .9 0 .3 0 .6-.2.8-.2.1-.4.2-.7.2-.2 0-.5.1-.6.2-.2.1-.3.3-.4.5-.1.2-.2.4-.3.7-.3.7-.5 1.5-1 2.1-.2.2-.5.5-.8.6-.1 0-.1.1-.2.1l-.1.1c-.2.4-.4.9-.3 1.4 0 0 0 .1.1.1.5.4.4 1.2.8 1.7.1.1.1.1.1.2s-.2.3-.3.2c-.1 0-.3-.1-.4-.2-.5-.3-.9-.7-1.2-1.1-.6-.8-.8-1.8-1-2.8-.2-1.3-.3-2.7-.3-4 0-.2 0-.4-.1-.5-.1-.2-.3-.4-.5-.5-.2-.1-.4-.2-.7-.3l-.1-.1c-.1-.1-.1-.2-.2-.3-.1-.3-.4-.6-.6-.9-.4-.5-.7-1.1-.9-1.7-.1-.2-.1-.4-.1-.6 0-.1.1-.2.1-.3.2-.4.5-.7.8-1l.1-.1v-.1c.3-.3.2-.7.5-.9z" class="color6eb954 svgShape"></path><path fill="#6254b9" d="M233.4 111.3c0 .6-.3 1.1-.7 1.5-.2.1-.4.2-.5.4-.1.1-.1.3-.2.5s-.4.2-.6.3c-1.1.2-2.1.7-2.9 1.4-.2.2-.5.5-.8.6-.3.1-.7.1-.9-.2-.1-.1-.1-.3-.1-.4 0-.5 0-1 .1-1.5.1-.3.2-.7 0-1-.1-.2-.2-.3-.4-.4-.5-.3-1.2-.4-1.8-.3-.2 0-.4.1-.5.3-.2.3 0 .8.3 1.1.3.3.8.7.6 1-.3.4-1 .5-1 1-.1 1.1 1.8 2 1.5 3-.2.5-.6 1-1.1 1.1-.3.1-.6-.2-1-.2-.3 0-.5.2-.7.4-.2.2-.6.3-.8.1-.1-.1-.1-.2-.2-.2-.1-.1-.3 0-.4.2-.1.1-.1.3-.2.4-.3.6-1.3.6-1.5 1.2-.1.2 0 .4-.1.5-.2.3-.7.2-1 .4-.4.3 0 .9-.2 1.3-.2.5-.7-.2-1-.6-.6-.8-2.2-.2-2.8.6-.5.6-.4 2.3.4 2.1.3-.1.3-.5.6-.7.2-.2.8-.4.9-.1.1.6-.1 1.7.6 1.5.1 0 .2-.3.3-.2.4.2-.3.9-.1 1.2.1.3.6.1.9.2.3.1 0 .6-.3.7-.3 0-.6-.2-.9-.4-.6-.4-1.1-.9-1.7-1.3-.2-.1-.4-.3-.6-.3h-.4c-.8.1-1.9-.1-2.1-.9-.1-.2 0-.5-.1-.7 0-.7 0-2-.7-1.9-.8.1.6 2-.1 2.3-.5.2-.4-.9-.5-1.4-.2-.9-.4-1.8-.7-2.6 2.9-6.5 9.4-11 16.9-11 2.2-.3 4.4.2 6.5 1z" class="color6eb954 svgShape"></path><path fill="#6254b9" d="M220.4 125.7s0 .1 0 0c0 .1-.1.1-.1.2-.3.1-.5.2-.8.2-.1 0-.2-.1-.3-.2-.1-.1-.2-.1-.3-.2v-.1h.2c.1 0 .1 0 .1-.1 0 0 0-.1-.1-.1h-.7c-.1 0-.2 0-.2-.1-.1 0-.1-.1-.1-.2-.1-.2-.4-.2-.5-.3l-.1-.1h-.2v.2l-.1.1h-.4s-.1-.1 0-.1c0 0 0-.1.1-.1.1-.1.2-.2.3-.2.2-.1.4-.1.6-.1.2 0 .4.1.6.2l.6.3.2.2c.1 0 .1.1.2.1s.1.1.2.1h.4c.2-.1.4.1.4.3zM238.3 114.1c-.2.1-.4.1-.6.2-.2.1-.3.2-.4.3l-.6.6-.2.2c0 .1-.1.1-.1.2-.1.2-.2.3-.2.5.1.4 1.2-.1 1.1.3-.1.2-.4.2-.4.5v.2c0 .1-.1.2-.2.3-.2.2-.4.4-.7.5-.3.1-.6-.1-.6-.4v-.3c0-.1-.1-.1-.2-.1-.1-.1 0-.2 0-.3 0-.1-.1-.2-.2-.3-.1 0-.2-.1-.3-.1-.1 0-.3 0-.4.1-.2.1-.2.5-.4.6-.1.1-.2.1-.2.1-.2.1-.2.3-.2.5 0 .1 0 .3.1.3.1.1.3.1.4 0 .1 0 .2-.1.4-.1.1 0 .3.1.3.2s-.1.2-.1.4c0 .1.1.2.2.2.3.2.6.6.4.9-.2.3-.6.1-1 .1-.3 0-.7.1-.9.4-.1.1-.1.3-.2.5 0 .2-.1.4 0 .5.2.3.6.2.9.4l.1.1c0 .2-.2.2-.3.3-.2.3-.6.4-.7.7 0 .1-.1.2-.1.3-.2.4-.6.6-.9.9-.6.5-.9 1.3-.9 2.1 0 .4.1.7.2 1.1l.3.9c.1.3.3.5.6.8.1.2.3.3.5.5.5.3 1.1.2 1.6.2.6-.1 1.1-.1 1.7-.2h.5c.2.1.4.2.6.4-.2.7-.3 1.5-.1 2.2l.3.6c.4.6.7 1.2.6 1.9 0 .3-.2.5-.2.8 0 .2 0 .4.1.6.1.3.1.7.2 1 .1.4.1.7.3 1 .1.3.3.5.5.7.2.3.4.5.6.7.4.3.8.4 1.3.4.3 0 .6 0 .8-.1.2-.1.3-.4.3-.6.1-.3.1-.7.2-1 0-.4 0-.8.2-1.2.2-.4.6-.6.8-.9.1-.1.2-.3.3-.4.1-.1.3-.2.4-.3.4-.4.6-1 .8-1.5.1-.4.3-.8.5-1.1.2-1.2.4-2.4.4-3.7-.2-6-2.9-11.2-7.2-14.6zm4.2 7.9c-.1.3-.3.4-.6.5-.3.1-.6.1-.9 0-.3-.1-.6-.3-.9-.4-.3-.1-.7 0-.8.3 0 .1 0 .1-.1.2h-.1c-.7 0-1.5-.6-1.5-1.3v-.1h-.1c-.4-.1-.8-.1-1.2-.1-.2 0-.4.1-.5.1-.3.1-.5.1-.8.2-.3.1-.9.3-.9-.1 0-.3.6-.2.9-.4.2-.1.4-.3.4-.6 0-.1 0-.1.1-.2s.3 0 .4-.2c.1-.1 0-.2.1-.3.1-.1.2 0 .3 0 .3 0 .5-.3.8-.3.1 0 .2.1.3.1l.9.6c.1 0 .1.1.1.1.1.1.1.3 0 .5s-.4 0-.6.2c-.1.1.2.3.3.3.4 0 .7-.3.8-.7v-.1h.1s0 .1.1.1c.1.3.4.4.7.4.3.1.6.1.9.1h.2c.1.1.1.2.2.3.2.4.7.3 1 .1.1-.1.3-.2.4-.1.1.4.1.6 0 .8zM232 114.3c0 .1.1.1 0 0 .1.1.2.1.2.1l.1-.1h.1v-.1c0-.1.1-.1.2-.1.2 0 .3 0 .4.1l.2.2c0 .1-.1.2-.1.3l-.1.1c-.1.1-.3.1-.4.1-.1 0-.3 0-.4-.1h-.5c-.1 0-.1-.1-.1-.2v-.4c0-.1.1-.1.2-.2.1.2.1.2.2.3 0-.1 0 0 0 0zM227.9 141.9c.1-.1.2-.2.4-.2.6-.2 1.4-.2 2 .2.2.1.5.2.6 0v-.2c0-.3.1-.7.4-.9.3-.3.8-.3 1.2-.2.1 0 .2 0 .2.1.1 0 .1.1.2.2.2.4.5.7.9.8.3.1.6 0 .9-.2.3-.2.5-.4.8-.5.4-.2.8-.3 1.3-.3h.3c.3.1.4.5.5.8v.3c0 .1-.1.1-.2.2-1 .5-2.2.3-3.2.6-.5.1-.9.3-1.3.6-.2.1-.3.3-.5.4-.2.1-.5.2-.8.2-.6.1-1.2.1-1.9.1-.6 0-1-.2-1.5-.6-.4-.4-.6-1.1-.3-1.4z" class="color6eb954 svgShape"></path><path fill="#362989" d="M238.3 114.1c-.2.1-.4.1-.6.2-.2.1-.3.2-.4.3l-.6.6-.2.2s0 .1-.1.1c.2.2.3.4.4.6.3 0 .5 0 .4.1 0 .1-.1.2-.2.2.9 1.4 1.6 2.8 2.1 4.4.1.1.3.2.5.2.3.1.6.1.9.1h.2c.1 0 .1.2.2.3.2.4.7.3 1 .1.1-.1.3-.2.4-.1.2.1.2.4.1.5-.1.3-.4.4-.6.5-.3.1-.6.1-.9 0-.3-.1-.6-.3-.9-.4h-.5c.3 1.4.5 2.8.5 4.3 0 1.3-.1 2.5-.4 3.7-.4 1.9-1.1 3.8-2 5.4.1.3.1.6.2.9.1.4.1.7.3 1 .1.3.3.5.5.7.2.3.4.5.6.7.4.3.8.4 1.3.4.3 0 .6 0 .8-.1.2-.1.3-.4.3-.6.1-.3.1-.7.2-1 0-.4 0-.8.2-1.2.2-.4.6-.6.8-.9.1-.1.2-.3.3-.4.1-.1.3-.2.4-.3.4-.4.6-1 .8-1.5.1-.4.3-.7.5-1 .1-.3.1-.6.2-.9.1-.9.2-1.8.2-2.8.1-5.7-2.6-10.9-6.9-14.3zM237.5 141.7c0 .1-.1.1-.2.2-1 .5-2.2.3-3.2.6-.5.1-.9.3-1.3.6-.2.1-.3.3-.5.4-.2.1-.5.2-.8.2-.6.1-1.2.1-1.9.1-.4 0-.7-.1-1-.2 1.6-.6 3-1.5 4.3-2.5.2.2.4.4.7.5.3.1.6 0 .9-.2.3-.2.5-.4.8-.5.4-.2.8-.3 1.3-.3h.3c.3.1.4.5.5.8.1.1.2.2.1.3z" class="color438929 svgShape"></path><path fill="#b9aeff" d="M286.9 137.8c0 .1-.1.2-.2.2-1 0-1.8.8-1.8 1.8 0 .1-.1.2-.2.2s-.2-.1-.2-.2c0-.5-.2-.9-.5-1.3-.3-.3-.8-.5-1.3-.5-.1 0-.2-.1-.2-.2s.1-.2.2-.2c.5 0 .9-.2 1.3-.5.3-.3.5-.8.5-1.3 0-.1.1-.2.2-.2s.2.1.2.2c0 .5.2.9.5 1.3.3.3.8.5 1.3.5.1 0 .2.1.2.2z" class="colorc6aeff svgShape"></path><ellipse cx="226.8" cy="152.9" fill="#f2f1fc" rx="17.1" ry=".7" class="colorf3f1fc svgShape"></ellipse><path fill="#6751f4" d="m268.4 161.2-2.3 1.8c-.3.3-.9 0-.8-.4l.5-4.1c.1-.4.6-.6.9-.3l1.8 2.3c.2.2.1.6-.1.7z" class="colorf45170 svgShape"></path><path fill="#8875ff" d="M267 148.4v-9.7c0-.9-.7-1.5-1.5-1.5h-10l-3.6-2.8c-.4-.3-1 0-1 .5v2.3h-1.1c-.9 0-1.5.7-1.5 1.5v9.7c0 .9.7 1.5 1.5 1.5h15.7c.8.1 1.5-.6 1.5-1.5z" class="colorffd475 svgShape"></path><path fill="#5c45ef" d="M267 144.8v3.7c0 .9-.7 1.6-1.5 1.6h-15.7c-.9 0-1.5-.7-1.5-1.6v-.5c1.9.5 3.9.7 6 .7 4.9-.1 9.4-1.6 12.7-3.9z" class="coloref9645 svgShape"></path><path fill="#5c45ef" d="m260 145.8-2.1-2.4v-.8h1c.4 0 .6-.3.6-.6 0-.4-.3-.6-.6-.6h-1V140c0-.4-.3-.6-.6-.6-.4 0-.6.3-.6.6v1.3h-1c-.4 0-.6.3-.6.6 0 .4.3.6.6.6h1v.8l-2.1 2.4c-.2.3-.2.7.1.9.1.1.3.2.4.2.2 0 .4-.1.5-.2l1.8-2 1.8 2c.2.3.6.3.9.1.1-.2.1-.6-.1-.9z" class="coloref9645 svgShape"></path><path fill="#ffffff" d="m260 145.4-2.1-2.4v-.8h1c.4 0 .6-.3.6-.6 0-.4-.3-.6-.6-.6h-1v-1.3c0-.4-.3-.6-.6-.6-.4 0-.6.3-.6.6v1.3h-1c-.4 0-.6.3-.6.6 0 .4.3.6.6.6h1v.8l-2.1 2.4c-.2.3-.2.7.1.9.1.1.3.2.4.2.2 0 .4-.1.5-.2l1.8-2 1.8 2c.2.3.6.3.9.1.1-.3.1-.7-.1-1zM199.4 115.7l-2.7-6.5c-.1-.2-.2-.3-.3-.4-.1-.1-.3-.2-.5-.2h-.1c-.2 0-.3.1-.5.2-.1.1-.2.2-.3.4l-2.7 6.4c0 .1-.1.2-.1.3 0 .2.1.3.2.4.2.2.6.3.8.1.1-.1.2-.2.2-.3l.7-1.6h3.4l.7 1.6c.1.1.1.2.2.3.1.1.2.1.4.1s.3-.1.5-.2c.1-.1.2-.3.2-.4 0 0-.1-.1-.1-.2zm-2.3-2.3h-2.4l1.2-2.9 1.2 2.9z" class="colorffffff svgShape"></path><path fill="#524c75" d="M143 265.3h-26.6c-.2-2.1-6.4-9.2-6.6-15.5-.2 6.3-6.4 13.4-6.6 15.5H76.6c1.5-4.2 4.2-27.2 5.5-28.6 9.5-10.1 45.9-10 55.4 0 .1.1.1.1.2.3 1.4 2.8 3.9 24.3 5.3 28.3z" class="color4c5c75 svgShape"></path><path fill="#161133" d="M137.7 236.9c-.5.5-1 1.1-1.2 1.9-.6 2.5-1.5 4.5-3.7 6-2.3 1.6-5.3 2.2-8.1 2.2s-5.7-.5-8.5-.8c-9.1-1-18.4.1-27 3.1-1.1.4-2.3.9-2.9 1.9-1 1.8.4 4 1.1 6 .9 2.7.3 5.9-1.6 8h-9.2c1.5-4.2 4.2-27.2 5.5-28.6 9.5-10.1 45.9-10 55.4 0 .1.1.1.2.2.3zM93.9 125s-5-19.8 8.6-22.7c17.9-3.8 18.2 9.8 18.2 9.8s2-2.9 4.6-1.4-.8 15.6-.8 15.6" class="color111d33 svgShape"></path><path fill="#9586f7" d="M190.8 146.3s4.1 1.4.5 3.8c0 0 3.5 1.1.3 3.6 0 0 2.2 1.8-.6 3.7-1.3.8-2.1 1.5-3.1 2.2-1 .6-2 1.2-3.7 1.7-.9.3-1.7 1.1-1.9 2-1.8 6.8-9.5 33.6-16.6 36.8-8 3.6-21.5-10.6-21.5-10.6l8.9-10.3 2-2.3 5.1 5.4c-.1-3 4.6-8.5 7.7-11 3.1-2.6 5.6-15 5.6-15s3.6-8 9.2-10.9c5.7-2.9 15.6-5.4 17-3.9 1.2 1.2-1.4 2.6-8.9 4.8z" class="colorf7a386 svgShape"></path><path fill="#9586f7" d="M192.5 155.6c-1.6 1.6-3.3 2.2-4.8 2.3h-.3c-.2-.1-.2-.3-.2-.5 0-.4.2-.8.5-1.1.4-.4.6-.5 2.7-1.8.5-.3.9-.6 1.4-.8M191.7 153.7c-1.7.6-3.3 1.2-5.1 1.4h-.4c-.2-.1-.3-.3-.3-.6 0-.5.2-1 .6-1.4.4-.5.8-.6 3.2-2.2.6-.4 1.1-.7 1.8-.9" class="colorf7a386 svgShape"></path><path fill="#9586f7" d="M191.3 150.2c-1.7.6-3.5 1-5.3 1.2h-.4c-.2-.1-.3-.3-.3-.6 0-.5.2-1 .6-1.4.4-.5.8-.6 3.2-2.2.6-.4 1.1-.7 1.8-.9" class="colorf7a386 svgShape"></path><linearGradient id="f" x1="144.26" x2="187.967" y1="179.958" y2="179.958" gradientUnits="userSpaceOnUse"><stop offset="0" stop-color="#9586f7" class="stopColorf7a386 svgShape"></stop><stop offset="1" stop-color="#6e58fd" class="stopColorfd6b58 svgShape"></stop></linearGradient><path fill="url(#f)" d="M188 159.6c-1 .6-2 1.2-3.7 1.7-.9.3-1.7 1.1-1.9 2-1.8 6.8-9.5 33.6-16.6 36.8-8 3.6-21.5-10.6-21.5-10.6l8.9-10.3c.8.3 1.5.7 2.1 1.2 2.1 1.6 3.4 4.4 2.6 6.9-.7 1.9-2.5 3.6-2.1 5.6.4 2 2.8 2.8 4.8 3.2 1.9.4 4.3.6 5.5-.9 1.3-1.8 0-4.2-.1-6.4-.1-2.7 1.6-5.1 3.5-7 1.9-1.9 4-3.7 5.1-6.1 1.7-3.8.5-8.6 2.5-12.3 1.1-2 3-3.5 5.2-4 2-.5 3.8.2 5.7.2z"></path><path fill="#6c59e2" d="M191.3 150.2c-1.7.6-3.4 1-5.1 1.2h-.4c-.2 0-.3-.1-.4-.2-.1-.3-.1-.6 0-.9.2-.6.6-1 1.1-1.4.6-.4 2-1.3 2.9-1.9.5-.3 1-.6 1.6-.7-1.1.4-2 1.1-3 1.7-.9.6-2.1 1.1-2.5 2.3-.1.3-.1.6 0 .8.1.3.5.2.7.2 1.7-.2 3.4-.6 5.1-1.1 0-.1 0 0 0 0z" class="colore27659 svgShape"></path><path fill="#6c59e2" d="M186.7 155.1h-.4c-.2 0-.3-.2-.3-.3-.1-.3-.1-.6 0-.9.3-1.1 1.5-1.6 2.5-2.3 1-.6 1.9-1.3 3-1.6-1.1.4-2 1.1-3 1.7-.9.6-2.1 1.1-2.5 2.2-.1.3-.1.6 0 .8.1.4.4.4.7.4 1.7-.2 3.3-.8 5-1.4-1.7.6-3.3 1.2-5 1.4z" class="colore27659 svgShape"></path><path fill="#6c59e2" d="M192.5 155.6c-1.5 1.5-3.1 2.2-4.8 2.4-.1 0-.3 0-.4-.1-.3-.2-.3-1.1.4-1.8.4-.4.9-.6 1.3-.9l1.3-.8c.4-.3.9-.6 1.4-.7-.5.2-.9.5-1.4.8l-1.3.8c-.4.3-.9.5-1.3.9-.7.7-.7 1.5-.4 1.7.1.1.2.1.4.1 1.8-.3 3.4-1.1 4.8-2.4z" class="colore27659 svgShape"></path><path fill="#9586f7" d="M180.2 156c4.7-2.3 2.3-5.6 2.3-5.6 3-.8 6.8-1.3 6.5-3.5-.4-2.6-8.6-.2-11.6 1.9-1.8 1.3-3 3.7-3.8 8.1" class="colorf7a386 svgShape"></path><path fill="#6c59e2" d="M179.7 156.4c1.1-.5 2.3-1.3 2.9-2.4.7-1.2.5-2.6-.2-3.6 1.9-.5 4-.9 5.3-1.6.5-.3 1.1-.7 1.1-1.4.1-.7-.2-1.2-.9-1.4-1.5-.5-4 .1-5.5.5-1.2.4-2.4.8-3.5 1.3s-2.2 1.1-3 2.1c-1.5 2-2.1 4.5-2.5 6.9.4-2.4 1-5 2.5-7 .8-1 1.9-1.6 3-2.2 1.1-.5 2.3-1 3.5-1.3 1.5-.4 4-1 5.5-.5.7.2 1 .8.9 1.5-.2 1.8-3.8 2.3-6.5 3 .7 1.1.8 2.5.1 3.7-.4 1.1-1.5 1.8-2.7 2.4z" class="colore27659 svgShape"></path><path fill="#9e8fff" d="M144.5 193.3c-2.1 0-6-5.7-6.3-6.1.1.9 3.3 24.8 2.5 39.9-.1 1.8-.3 3.5-.5 5-.3 2-.3 4-1.4 4.9-9.9 8.4-59.3 8.8-58.7 1.3 1.4-15.6 4-43.1 4-43.2l-11.6-1.9c.3-4.4-1.5-15.7-.1-23.3.6-3.3 1.3-6 2.1-7.2 4.3-6.3 15.8-12.9 22.7-14.3 4.5-.9 13.8-.2 18.4 0 2.7.1 6.1.6 9.7 1.4 5.9 1.3 12.2 3.4 16.3 6.2 7.2 4.9 15.1 15.4 17.6 23.6 1.6 4.7-9.7 13.7-14.7 13.7z" class="color8fb7ff svgShape"></path><path fill="#9586f7" d="M119.2 200.8c4.9 1.9 5.7-2.1 5.7-2.1 2.7 1.7 5.6 4.1 7 2.4 1.6-2.1-5.7-6.4-9.3-7.3-2.2-.5-4.8.3-8.5 2.7" class="colorf7a386 svgShape"></path><path fill="#524c75" d="m140.9 181.2-2.1 28c-.1 1-.9 1.9-2 1.9h-13.6c-1 0-1.9-.8-2-1.9-.2-2.9.8 10.4-2.1-28-.1-1.2.8-2.2 2-2.2h17.8c1.2 0 2.1 1 2 2.2z" class="color4c5c75 svgShape"></path><path fill="#161133" d="m123.9 182.4.5 8c0 .3-.2.5-.5.5h-2.5c-.3 0-.5-.2-.5-.5l-.5-8c0-.3.2-.5.5-.5h2.5c.3.1.5.3.5.5z" class="color111d33 svgShape"></path><path fill="#161133" d="m140.9 181.2-.1 1.1c-.2-.8-1-1.4-1.9-1.4h-17.8c-.9 0-1.7.6-1.9 1.4l-.1-1.1c-.1-1.2.8-2.2 2-2.2h17.8c1.2 0 2.1 1 2 2.2z" class="color111d33 svgShape"></path><path fill="#524c75" d="M123.4 183.5c0 .6-.5 1.1-1.1 1.1-.6 0-1.1-.5-1.1-1.1 0-.6.5-1.1 1.1-1.1.6.1 1.1.5 1.1 1.1z" class="color4c5c75 svgShape"></path><path fill="#d3cef2" d="M122.8 183.5c0 .3-.2.6-.6.6-.3 0-.6-.2-.6-.6 0-.3.2-.6.6-.6.4.1.6.3.6.6z" class="colord0cef2 svgShape"></path><path fill="#524c75" d="M123.4 186.2c0 .6-.5 1.1-1.1 1.1-.6 0-1.1-.5-1.1-1.1 0-.6.5-1.1 1.1-1.1.6 0 1.1.5 1.1 1.1z" class="color4c5c75 svgShape"></path><path fill="#d3cef2" d="M122.9 186.2c0 .3-.2.6-.6.6-.3 0-.6-.2-.6-.6 0-.3.2-.6.6-.6.3 0 .6.3.6.6z" class="colord0cef2 svgShape"></path><path fill="#524c75" d="M123.5 188.8c0 .6-.5 1.1-1.1 1.1-.6 0-1.1-.5-1.1-1.1 0-.6.5-1.1 1.1-1.1.6 0 1.1.5 1.1 1.1z" class="color4c5c75 svgShape"></path><path fill="#d3cef2" d="M123 188.8c0 .3-.2.6-.6.6-.3 0-.6-.2-.6-.6 0-.3.2-.6.6-.6.3.1.6.3.6.6z" class="colord0cef2 svgShape"></path><path fill="#7764f0" d="M159.1 182.2c-2.8-8.1-10.4-18.1-17.4-22.9-4.1-2.8-10.5-4.9-16.3-6.2-3.6-.8-7-1.3-9.7-1.4-4.6-.2-13.9-.9-18.4 0-6.7 1.4-18.3 7.9-22.7 14.3-.8 1.2-1.5 3.9-2.1 7.2-.3 1.7-1.5 3.7-1.6 5.7-.1-3.2 1.1-6.4 1.6-9.1.6-3.3 1.3-6 2.1-7.2 3.7-5.4 12.4-10.8 18.9-13.2 1.3-.5 2.6-.9 3.7-1.1 4.5-.9 13.8-.2 18.4 0 2.7.1 6.1.6 9.7 1.4 5.9 1.3 12.2 3.4 16.3 6.2 7.2 4.9 15.1 15.4 17.6 23.6.3.8.2 1.8-.1 2.7zM140.7 227c-.1 1.8-.3 3.5-.5 5-.3 2-.3 4-1.4 4.9-9.9 8.4-59.3 8.8-58.7 1.3.7-8.3 1.9-21 2.8-30.5 4-.8 7.4-3.7 10.6-6.1 7.8-5.7 13 6.5 22.4 4.5 1.4-.3 2.8-.5 4.2-.2 1.4.3-5.6 8.2-24.1 8.5-8.6.1-7.7 4.4-8 5.8-1 3.7-1.9 7.3-2.9 11-.6 2.2-1.1 4.8.5 6.5 1.3 1.4 3.5 1.4 5.4 1.4 12.5-.4 25.1-.9 37.6-1.3 2-.1 4.1-.2 5.8-1.1 1.1-.6 2-1.6 2.4-2.8.4-1.1-.1-2 .1-3.1.4-1.8 2-3.3 3.8-3.8z" class="color497bfe svgShape"></path><path fill="#9586f7" d="M132.2 204.8s1.2 4.1-2.9 2.6c0 0 1 3.5-2.7 2.3 0 0-.3 2.9-3.4 1.6-1.4-.6-2.4-.9-3.5-1.3-1-.4-2.1-1-3.5-2.1-.8-.6-1.8-.8-2.8-.5-6.6 2.3-33.1 11.2-39.7 7.2-7.5-4.6-3.5-23.7-3.5-23.7l13.6 1.5 3 .3-1.5 7.3c2.4-1.8 9.6-1 13.5.1 3.9 1.1 15.6-3.9 15.6-3.9s8.6-1.6 14.2 1.4 7.8 4.5 7.3 6.6c-.5 1.7-2.4 1.2-3.7.6z" class="colorf7a386 svgShape"></path><linearGradient id="g" x1="-2963.844" x2="-2920.139" y1="1699.282" y2="1699.282" gradientTransform="rotate(55.544 -5.566 3830.68)" gradientUnits="userSpaceOnUse"><stop offset="0" stop-color="#9586f7" class="stopColorf7a386 svgShape"></stop><stop offset="1" stop-color="#6e58fd" class="stopColorfd6b58 svgShape"></stop></linearGradient><path fill="url(#g)" d="M119.7 210c-1-.4-2.1-1-3.5-2.1-.8-.6-1.8-.8-2.8-.5-6.6 2.3-33.1 11.2-39.7 7.2-7.5-4.6-3.5-23.7-3.5-23.7l13.6 1.5c.2.8.3 1.6.2 2.4-.1 2.6-1.7 5.3-4.2 6-2 .5-4.4-.1-5.8 1.4-1.4 1.5-.7 3.9.1 5.8.8 1.8 1.9 3.9 3.9 4 2.2.1 3.5-2.4 5.3-3.7 2.1-1.6 5.1-1.5 7.7-1.1 2.7.5 5.3 1.2 8 .7 4.1-.7 7.4-4.4 11.5-4.9 2.2-.2 4.6.5 6.2 2.1 1.5 1.5 2 3.4 3 4.9z"></path><path fill="#6c59e2" d="M127.3 202.7c.5.1.9.3 1.3.5l1.3.5c.9.4 1.8.7 2.5 1.3-.8-.6-1.7-.9-2.5-1.3-1.7-.7-2.1-.9-2.6-1zM124.2 205.2c.5.1 1 .3 1.4.4l1.4.6c.9.4 1.9.7 2.6 1.4-.4-.3-.8-.5-1.3-.7-.1 0-2.9-1.3-2.7-1.2-.4-.2-.9-.4-1.4-.5zM122.1 207.8c.4 0 .8.2 1.2.3l1.1.5c.4.1.7.3 1.1.5.4.2.8.3 1.1.6-.3-.3-.7-.4-1.1-.6-1.5-.6-.7-.3-2.3-1-.3 0-.7-.2-1.1-.3z" class="colore27659 svgShape"></path><path fill="#ffffff" d="M125.3 149.7c-.1.6-.2 1.2-.5 1.9-1.5 3.7-7.6 10.6-15.3 10.6h-.2c-7-.1-12.3-5.5-14.7-10.1-.3-.6-.8-1.6-1.1-2.8 1.3-.5 2.6-.9 3.7-1.1 4.5-.9 13.8-.2 18.4 0 2.7.3 6.1.8 9.7 1.5z" class="colorffffff svgShape"></path><path fill="#9586f7" d="M123.1 123.4c.5-.1 1-.1 1.4.3.3.3.4.9.4 1.4 0 1.2-.5 2.4-1 3.6-.4 1.1-.9 2.1-1.3 3.2-.3.6-.5 1.3-1.1 1.7-.4.3-1.1.5-1.5.1-.4-.3-.4-.9-.5-1.3-.1-2.3.4-4.6 1.2-6.7.2-.5.4-1.1.9-1.4.5-.5 1-.7 1.5-.9z" class="colorf7a386 svgShape"></path><path fill="#9586f7" d="M97.4 119.6v4.6s1 9.3 1 11.4c0 2.1 3.5 8 9 9.7 5.5 1.8 11.4-5.4 12.5-8.3 1.1-2.9 1.3-14.8 1.3-14.8l-1-2.7H97.4z" class="colorf7a386 svgShape"></path><path fill="#9586f7" d="M95.6 123.4c-.5-.1-1-.1-1.4.3-.3.3-.4.9-.4 1.4 0 1.2.5 2.4 1 3.6.4 1.1.9 2.1 1.3 3.2.3.6.5 1.3 1.1 1.7.4.3 1.1.5 1.5.1.4-.3.4-.9.5-1.3.1-2.3-.4-4.6-1.2-6.7-.2-.5-.4-1.1-.9-1.4-.4-.5-1-.7-1.5-.9z" class="colorf7a386 svgShape"></path><path fill="#c5bcfe" d="M107.5 145.4c-4.9-1.8-8-7.6-8-9.7 0-2.1-.9-11.4-.9-11.4v-4h-1.3v4s1 9.3 1 11.4c0 2.1 3.5 8 9 9.7.5.1.9.2 1.4.3l-1.2-.3z" class="colorfee1bc svgShape"></path><path fill="#6c59e2" d="m118.5 118.1 1.4 4.2s-.2 11.9-1.2 14.8c-.8 2.5-4.9 8.2-9.1 8.6 4.8-.4 9.4-6.1 10.3-8.6 1.1-2.9 1.3-14.8 1.3-14.8l-1.6-4.2h-1.1z" class="colore27659 svgShape"></path><path fill="#161133" d="M120.9 120.8c-7.2-2.4-9.4 5.8-23.6-.3-.3-.1 0-.5-.2-.8-.2-.3-.1-.6 0-.9.2-.3.4-.5.7-.7 2-1.4 5.7-1.1 8.1-1.5 2.9-.5 5.8-.8 8.7-1.1 1.8-.2 3.9-.3 5.5.9 1.2 1 2.1 4.8.8 4.4z" class="color111d33 svgShape"></path><path fill="#161133" d="m98.1 120.3-.2 8.3s-.1-4.2-2.5-5.2c0 0 0-7 1.2-7.6 1.1-.5 1.5 4.5 1.5 4.5zM121.1 120.3l-.2 8.3s.5-4.2 2.9-5.2c0 0 0-7-1.2-7.6-1.2-.5-1.5 4.5-1.5 4.5z" class="color111d33 svgShape"></path><path fill="#9586f7" d="M109.4 157.7c-7.3-.1-11.7-8.8-11.3-9.5.3-.1.5-.1.8-.2 2.6-.6 4.3-1.7 4.3-4.3v-.6c1.2 1 2.6 1.8 4.2 2.3 2.9.9 5.9-.6 8.3-2.7v.4c0 2.7 2.4 5.2 5 5.8.8.8-4.7 8.9-11.3 8.8z" class="colorf7a386 svgShape"></path><path fill="#c5bcfe" d="M106 128.1s-.9 1.3-1.5 1.5c-.9.3-3.4-.8-3.4-.8l3-1.3 1.9.6z" class="colorfee1bc svgShape"></path><path fill="#6c59e2" d="M107.8 131.6c0 1.1.8 2.1 1.9 2.1 1 0 1.9-.9 1.9-2.1s-.8.3-1.9.3c-1.1 0-1.9-1.5-1.9-.3z" class="colore27659 svgShape"></path><path fill="#c5bcfe" d="M112.6 128.1s.9 1.3 1.5 1.5c.9.3 3.4-.8 3.4-.8l-3-1.3-1.9.6z" class="colorfee1bc svgShape"></path><path fill="#161133" d="M103.6 128.2c0 .5.4.9.9.9s.9-.4.9-.9-.4-.9-.9-.9c-.5.1-.9.5-.9.9z" class="color111d33 svgShape"></path><path fill="#161133" d="m106.1 128.2-2.1-.6h.2l-1.5.9c-.5.2-1.1.4-1.7.5.4-.5.9-.8 1.4-1.1.5-.2 1.1-.4 1.6-.6h.2c.6.1 1.3.5 1.9.9 0-.1 0-.1 0 0z" class="color111d33 svgShape"></path><path fill="#fcfcfc" d="M104.4 128.3c0 .1.1.2.2.2s.2-.1.2-.2-.1-.2-.2-.2-.2.1-.2.2z" class="colorfcfcfc svgShape"></path><path fill="#161133" d="M116.2 128.4c0 .5-.4.9-.9.9s-.9-.4-.9-.9.4-.9.9-.9.9.4.9.9z" class="color111d33 svgShape"></path><path fill="#161133" d="m112.6 128.1 2.1-.6h-.2l1.5.9c.5.2 1.1.4 1.7.5-.4-.5-.9-.8-1.4-1.1-.5-.2-1.1-.4-1.6-.6h-.2c-.7.2-1.3.5-1.9.9-.1 0-.1 0 0 0-.1 0-.1.1 0 0z" class="color111d33 svgShape"></path><path fill="#fcfcfc" d="M115.9 128.5c0 .1-.1.2-.2.2s-.2-.1-.2-.2.1-.2.2-.2.2.1.2.2z" class="colorfcfcfc svgShape"></path><path fill="#161133" d="M104.2 125.3c-.9 0-1.8.3-2.7.4-.2 0-.4 0-.5-.1-.2-.1-.3-.2-.3-.4s.1-.4.2-.5c.2-.1.4-.2.6-.2 1-.2 2-.2 3-.2.5 0 1 .1 1.5.4.2.1.5.4.6.7 0 .3-.2.4-.4.3-.3-.1-.6-.3-.9-.4h-1.1zM114.4 125.9c.9 0 1.8.3 2.7.4.2 0 .4 0 .5-.1.2-.1.3-.2.3-.4s-.1-.4-.2-.5c-.2-.1-.4-.2-.6-.2-1-.2-2-.2-3-.2-.5 0-1 .1-1.5.4-.2.1-.5.4-.6.7 0 .3.2.4.4.3.3-.1.6-.3.9-.4.5 0 .8-.1 1.1 0z" class="color111d33 svgShape"></path><path fill="#6c59e2" d="M105.6 136.7c.4 1.8 2 3.2 4 3.2s3.6-1.4 4-3.2c-2.6 1.1-5.3 1-8 0z" class="colore27659 svgShape"></path><path fill="#9e8fff" d="m83.2 167.5-8.8-1.8c-4.3 8.5-5.3 23.5-5.5 26.1-.2 3.1 15.2 5.1 18.3 2.4 3.7-3.2 4.1-20 4.1-20l-8.1-6.7z" class="color8fb7ff svgShape"></path><path fill="#7764f0" d="M77.3 195.2c-4.3-.4-8.3-1.8-8.3-3.4.1-2.6.8-17.7 5-26.2l3-2.3c-4.1 8.6-6.8 26-6.8 28.6-.2 1.5 3.2 2.8 7.1 3.3z" class="color497bfe svgShape"></path></svg>