<svg xmlns="http://www.w3.org/2000/svg" enable-background="new 0 0 2340 1560" viewBox="0 0 2340 1560" id="Multichannelhelpdesk"><path fill="#e1def3" d="M1092.593,142.894c-162.44,87.849-192.179,338.297-673.186,304.12   c-93.701-6.658-363.304-56.287-159.097,340.404s126.227,428.494,56.872,496.054c-69.356,67.56-115.819,324.419,281.555,205.386   c397.374-119.033,839.119-99.802,947.812-37.34c108.693,62.462,637.205,149.977,645.972-236.297   c7.217-317.999-99.268-303.808-190.72-351.998c-69.06-36.391-80.83-114.298,17.672-311.745   C2117.972,354.031,1720.984-196.945,1092.593,142.894z" opacity=".3" class="colordee4f3 svgShape"></path><rect width="56.398" height="14.567" x="716.77" y="397.559" fill="#7764f0" opacity=".5" transform="rotate(12.585 744.956 404.837)" class="color8d8bc3 svgShape"></rect><rect width="56.398" height="14.567" x="2014.341" y="408.709" fill="#664efe" opacity=".5" transform="rotate(-36.678 2042.363 416.062)" class="colorfec14e svgShape"></rect><rect width="56.398" height="14.567" x="685.757" y="1388.066" fill="#664efe" opacity=".5" transform="rotate(12.585 713.947 1395.34)" class="colorfec14e svgShape"></rect><ellipse cx="1218.047" cy="1137.871" fill="#e6e6e8" opacity=".5" rx="906.564" ry="32.915" class="colore6e7e8 svgShape"></ellipse><path fill="#664efe" d="M1440.614,975.527h-115.719c-11,0-20-9-20-20V839.808c0-11,9-20,20-20h115.719c11,0,20,9,20,20   v115.719C1460.614,966.527,1451.614,975.527,1440.614,975.527z" class="colorfec14e svgShape"></path><path fill="#d9d6ec" d="M2027.997,1070.467H383.991c-26.791,0-48.586-21.795-48.586-48.586s21.795-48.586,48.586-48.586     h1644.005c26.791,0,48.587,21.795,48.587,48.586S2054.788,1070.467,2027.997,1070.467z M383.991,986.789     c-19.351,0-35.092,15.742-35.092,35.092c0,19.351,15.742,35.092,35.092,35.092h1644.005c19.351,0,35.094-15.742,35.094-35.092     c0-19.351-15.744-35.092-35.094-35.092H383.991z" class="colord6deec svgShape"></path><circle cx="385.054" cy="1021.881" r="27.994" fill="#d9d6ec" transform="rotate(-27.482 385.04 1021.836)" class="colord6deec svgShape"></circle><circle cx="494.688" cy="1021.881" r="27.994" fill="#d9d6ec" transform="rotate(-78.615 494.657 1021.89)" class="colord6deec svgShape"></circle><circle cx="604.322" cy="1021.881" r="27.994" fill="#d9d6ec" transform="rotate(-22.913 604.291 1021.893)" class="colord6deec svgShape"></circle><circle cx="713.956" cy="1021.881" r="27.994" fill="#d9d6ec" transform="rotate(-45.001 713.947 1021.894)" class="colord6deec svgShape"></circle><circle cx="823.59" cy="1021.881" r="27.994" fill="#d9d6ec" transform="rotate(-76.879 823.559 1021.869)" class="colord6deec svgShape"></circle><circle cx="933.224" cy="1021.881" r="27.994" fill="#d9d6ec" transform="rotate(-45.001 933.216 1021.897)" class="colord6deec svgShape"></circle><circle cx="1042.858" cy="1021.881" r="27.994" fill="#d9d6ec" transform="rotate(-76.714 1042.963 1021.926)" class="colord6deec svgShape"></circle><circle cx="1152.492" cy="1021.881" r="27.994" fill="#d9d6ec" transform="rotate(-22.5 1152.436 1021.84)" class="colord6deec svgShape"></circle><circle cx="1262.125" cy="1021.881" r="27.994" fill="#d9d6ec" transform="rotate(-76.714 1262.247 1021.92)" class="colord6deec svgShape"></circle><circle cx="1371.76" cy="1021.881" r="27.994" fill="#d9d6ec" transform="rotate(-22.5 1371.695 1021.841)" class="colord6deec svgShape"></circle><circle cx="1481.393" cy="1021.881" r="27.994" fill="#d9d6ec" transform="rotate(-45.001 1481.389 1021.903)" class="colord6deec svgShape"></circle><circle cx="1591.027" cy="1021.881" r="27.994" fill="#d9d6ec" transform="rotate(-76.714 1591.173 1021.91)" class="colord6deec svgShape"></circle><circle cx="1700.661" cy="1021.881" r="27.994" fill="#d9d6ec" transform="rotate(-45.001 1700.658 1021.906)" class="colord6deec svgShape"></circle><circle cx="1810.295" cy="1021.881" r="27.994" fill="#d9d6ec" transform="rotate(-76.714 1810.457 1021.904)" class="colord6deec svgShape"></circle><circle cx="1919.929" cy="1021.881" r="27.994" fill="#d9d6ec" transform="rotate(-22.5 1919.84 1021.843)" class="colord6deec svgShape"></circle><circle cx="2029.563" cy="1021.881" r="27.994" fill="#d9d6ec" transform="rotate(-45.001 2029.561 1021.91)" class="colord6deec svgShape"></circle><rect width="242.057" height="469.16" x="1089.128" y="681.018" fill="#d9d6ec" class="colord6deec svgShape"></rect><rect width="156.194" height="469.16" x="1124.14" y="681.018" fill="#a59fcc" class="color9fb1cc svgShape"></rect><path fill="#6e64ad" d="M1236.276,787.729" class="color6465ad svgShape"></path><path fill="#4d40a0" d="M642.348 975.527H526.629c-11 0-20-9-20-20V839.808c0-11 9-20 20-20h115.719c11 0 20 9 20 20v115.719C662.348 966.527 653.348 975.527 642.348 975.527zM473.324 731.561l-15.771 86.83c-3.306 18.25-20.948 30.478-39.215 27.172l-21.809-3.964-27.712-5.026-37.309-6.78c-18.25-3.306-30.478-20.949-27.155-39.215l15.754-86.83c3.306-18.25 20.965-30.478 39.215-27.155l86.83 15.754C464.418 695.651 476.63 713.311 473.324 731.561zM832.372 975.527H716.653c-11 0-20-9-20-20V839.808c0-11 9-20 20-20h115.719c11 0 20 9 20 20v115.719C852.372 966.527 843.372 975.527 832.372 975.527zM1040.949 975.527H925.23c-11 0-20-9-20-20V839.808c0-11 9-20 20-20h115.719c11 0 20 9 20 20v115.719C1060.949 966.527 1051.949 975.527 1040.949 975.527z" class="color4058a0 svgShape"></path><path fill="#664efe" d="M1676.881 975.527h-115.719c-11 0-20-9-20-20V839.808c0-11 9-20 20-20h115.719c11 0 20 9 20 20v115.719C1696.881 966.527 1687.881 975.527 1676.881 975.527zM1885.139 975.527H1769.42c-11 0-20-9-20-20V839.808c0-11 9-20 20-20h115.719c11 0 20 9 20 20v115.719C1905.139 966.527 1896.139 975.527 1885.139 975.527zM2080.248 987.554l-112.018-29.034c-10.648-2.76-17.102-13.73-14.342-24.378l29.034-112.018c2.76-10.648 13.73-17.102 24.378-14.342l112.018 29.034c10.648 2.76 17.102 13.73 14.342 24.378l-29.034 112.018C2101.866 983.859 2090.896 990.313 2080.248 987.554z" class="colorfec14e svgShape"></path><path fill="#ffffff" d="M443.514 730.206c-1.243 5.461-2.499 10.923-3.727 16.398-.246 1.092-.642 1.352-1.707 1.106-3.768-.928-7.591-1.775-11.387-2.608-.901-.177-1.816-.287-2.717-.273-3.878 0-6.308 1.556-7.55 5.721-1.488 5.134-2.458 10.418-3.687 15.825l1.242.287c5.734 1.311 11.469 2.622 17.217 3.973.396.096.819.218 1.242.314.833.164.901.628.642 1.297-1.079 2.908-2.157 5.817-3.208 8.725-1.229 3.222-2.485 6.472-3.618 9.708-.328.997-.751 1.215-1.734.956-5.229-1.229-10.472-2.403-15.715-3.605-.287-.068-.601-.096-1.092-.177l-9.462 41.289-22.433-4.069 9.694-42.313c-.519-.15-.969-.287-1.406-.382-5.161-1.188-10.322-2.403-15.47-3.55-1.065-.205-1.379-.628-1.106-1.679 1.461-6.253 2.895-12.507 4.26-18.747.246-1.051.71-1.256 1.679-.997 5.202 1.188 10.391 2.307 15.579 3.604 1.174.273 1.488 0 1.734-1.092 1.092-5.052 2.239-10.09 3.427-15.128 1.065-4.287 2.772-8.301 5.461-11.852 5.325-6.922 12.493-9.885 21.136-9.667 4.069.123 7.946 1.051 11.824 2.116 3.263.888 6.5 1.898 9.749 2.826C443.842 728.65 443.869 728.691 443.514 730.206zM637.689 889.324c-2.396 2.217-5.188 3.831-8.08 5.29-.504.254-1.003.581-1.542.692-1.573.326-2.115 1.346-2.511 2.824-2.045 7.628-5.785 14.388-10.803 20.463-4.593 5.56-10.037 10.1-16.396 13.493-9.339 4.983-19.297 6.901-29.841 5.843-3.472-.349-6.924-.903-10.245-1.876-3.838-1.124-7.564-2.648-11.091-4.597-5.064-2.798-9.623-6.243-13.579-10.473-.251-.269-.49-.549-.703-.955 9.59 3.492 19.121 3.563 28.9-.219-4.059-1.304-7.21-3.52-9.631-6.715-2.412-3.184-3.753-6.769-3.899-10.937 2.569 1.213 5.153 1.938 8.19 1.999-1.34-.824-2.444-1.513-3.421-2.378-5.207-4.61-7.367-10.382-6.59-17.271.074-.652.242-1.293.355-1.942.115-.661.351-.811.886-.294 1.716 1.657 3.751 2.819 5.931 3.746.244.104.488.264.861.154-.669-.978-1.37-1.89-1.915-2.904-2.634-4.901-3.111-10.017-1.426-15.296.867-2.717 2.345-5.115 4.319-7.202.508-.537.658-.403.93.191 5.445 11.878 13.979 20.773 25.715 26.565 1.8.888 3.637 1.686 5.537 2.34.596.205.854.209.925-.563.374-4.052 1.866-7.674 4.576-10.709 4.596-5.147 10.37-7.332 17.226-6.415 6.285.841 10.823 4.307 14.022 9.66.231.387.505.459.91.492 3.822.308 7.58-.115 11.304-.947.239-.053.482-.085.922-.162-2.637 3.877-6.12 6.315-10.37 7.79 2.206.422 4.404.501 6.614.478 1.31-.013 2.605-.341 3.921-.166L637.689 889.324zM806.471 868.394c-5.987-.03-11.975-.031-17.962-.044-15.338-.035-30.677-.084-46.016-.096-5.914-.004-9.716 3.822-9.73 9.684-.027 11.638-.057 23.277-.077 34.915-.01 6.042 3.736 9.779 9.812 9.795 13.051.035 26.102.087 39.153.056 1.602-.004 2.787.488 3.965 1.512 4.665 4.056 9.393 8.04 14.423 12.329.066-.881.135-1.392.138-1.903.017-2.825.014-5.651.025-8.476.013-3.089.301-3.382 3.292-3.378 1.009.001 2.018.007 3.027.006 5.89-.005 9.709-3.803 9.727-9.702.034-11.571.06-23.142.079-34.714C816.339 872.218 812.598 868.425 806.471 868.394zM802.922 909.17c-9.478-.012-18.956-.038-28.434-.059-9.411-.021-18.821-.041-28.232-.066-.604-.002-1.302.146-1.787-.105-.564-.292-1.31-.948-1.306-1.442.004-.621.555-1.459 1.115-1.793.566-.337 1.431-.221 2.165-.219 18.687.033 37.374.077 56.061.119.134 0 .269-.005.403.002 1.323.065 2.952-.185 2.963 1.809C805.882 909.461 804.24 909.172 802.922 909.17zM803.329 897.375c-9.681-.045-19.362-.056-29.042-.078-9.614-.022-19.227-.055-28.841-.053-1.329 0-2.352-.387-2.338-1.837.013-1.451 1.058-1.881 2.376-1.802.402.024.807.005 1.21.006 14.319.032 28.639.065 42.958.097 4.571.01 9.143.041 13.714.019 1.359-.007 2.547.259 2.536 1.852C805.892 897.191 804.672 897.382 803.329 897.375zM804.775 885.333c-.687.209-1.455.206-2.187.205-18.698-.032-37.397-.076-56.096-.119-.269-.001-.538.002-.807-.003-1.28-.025-2.544-.161-2.556-1.845-.012-1.729 1.245-1.778 2.542-1.774 9.618.034 19.237.05 28.855.072 9.551.021 19.102.032 28.653.084.767.004 1.686.076 2.265.492C806.453 883.169 806.009 884.958 804.775 885.333zM939.327 873.533c3.568 2.471 7.104 4.988 10.68 7.447 8.127 5.59 16.277 11.147 24.405 16.734 2.369 1.628 4.824 2.987 7.786 3.136 2.578.13 5.042-.203 7.243-1.674 1.469-.982 2.949-1.95 4.385-2.98 10.848-7.781 21.684-15.579 32.534-23.358.389-.279.47-.545.361-.98-.754-3.005-3.325-4.975-6.458-4.945-4.784.046-9.568.079-14.353.123-7.737.071-15.475.145-23.212.218-.001-.036-.001-.072-.002-.109-2.321.05-4.641.116-6.962.146-4.358.057-8.716.099-13.075.136-5.858.05-11.716.066-17.574.143-2.951.039-5.496 2.231-6.084 5.105C938.927 873.049 938.977 873.291 939.327 873.533z" class="colorffffff svgShape"></path><path fill="#ffffff" d="M1026.943 921.9c-10.673-7.378-21.341-14.762-32.004-22.154-.293-.203-.48-.201-.777 0-1.319.893-2.598 1.874-4.005 2.603-4.256 2.206-8.68 2.183-13.05.446-1.751-.696-3.318-1.864-4.944-2.857-.382-.233-.619-.239-.982.023-10.474 7.548-20.955 15.086-31.442 22.615-.306.22-.4.441-.311.79.642 2.525 2.184 4.226 4.721 4.848 1.007.247 2.097.207 3.149.203 4.848-.019 9.696-.07 14.545-.114 7.202-.065 14.403-.133 21.605-.201 0-.003 0-.005 0-.008.205.006.41.018.615.017 7.486-.063 14.971-.126 22.456-.19 4.801-.041 9.602-.091 14.403-.124 3.08-.021 5.777-2.287 6.273-5.281C1027.245 922.226 1027.19 922.071 1026.943 921.9zM997.387 897.578c9.936 6.885 19.878 13.774 29.878 20.703-.12-14.024-.24-27.97-.36-41.959C1017.019 883.442 1007.194 890.516 997.387 897.578zM938.914 877.078c.121 14.016.241 27.962.362 41.954 9.882-7.115 19.7-14.184 29.518-21.253C958.845 890.886 948.898 883.995 938.914 877.078z" class="colorffffff svgShape"></path><circle cx="1618.296" cy="902.428" r="39.356" fill="#9281ff" transform="rotate(-80.781 1618.313 902.402)" class="colorffce81 svgShape"></circle><circle cx="1382.754" cy="902.428" r="39.356" fill="#9281ff" transform="rotate(-80.781 1382.771 902.407)" class="colorffce81 svgShape"></circle><circle cx="1827.28" cy="902.428" r="39.356" fill="#9281ff" transform="rotate(-80.781 1827.297 902.399)" class="colorffce81 svgShape"></circle><circle cx="2042.54" cy="902.428" r="39.356" fill="#9281ff" transform="rotate(-76.714 2042.714 902.436)" class="colorffce81 svgShape"></circle><polygon fill="#664efe" points="1382.754 873.27 1389.3 893.418 1410.485 893.418 1393.346 905.87 1399.893 926.018 1382.754 913.565 1365.615 926.018 1372.162 905.87 1355.023 893.418 1376.208 893.418" class="colorfec14e svgShape"></polygon><polygon fill="#664efe" points="1619.021 873.27 1625.568 893.418 1646.752 893.418 1629.614 905.87 1636.16 926.018 1619.021 913.565 1601.883 926.018 1608.429 905.87 1591.29 893.418 1612.475 893.418" class="colorfec14e svgShape"></polygon><polygon fill="#664efe" points="1829.856 873.27 1836.402 893.418 1857.587 893.418 1840.448 905.87 1846.995 926.018 1829.856 913.565 1812.717 926.018 1819.264 905.87 1802.125 893.418 1823.309 893.418" class="colorfec14e svgShape"></polygon><polygon fill="#664efe" points="2043.774 873.27 2050.32 893.418 2071.505 893.418 2054.366 905.87 2060.913 926.018 2043.774 913.565 2026.635 926.018 2033.182 905.87 2016.043 893.418 2037.228 893.418" class="colorfec14e svgShape"></polygon><polygon fill="#d9d6ec" points="495.789 344.835 371.915 335.339 395.207 357.633 382.487 389.651 417.957 379.407 444.531 404.843" class="colord6deec svgShape"></polygon><polygon fill="#a59fcc" points="495.789 344.835 395.207 357.633 382.487 389.651 411.863 374.019" class="color9fb1cc svgShape"></polygon><polygon fill="#d9d6ec" points="614.092 1429.64 710.605 1481.963 682.628 1487.35 676.724 1517.217 655.303 1492.611 623.383 1498.757" class="colord6deec svgShape"></polygon><polygon fill="#a59fcc" points="614.092 1429.64 682.628 1487.35 676.724 1517.217 662.409 1491.531" class="color9fb1cc svgShape"></polygon><polygon fill="#d9d6ec" points="2011.294 624.76 2073.786 658.638 2055.671 662.126 2051.848 681.465 2037.978 665.533 2017.311 669.512" class="colord6deec svgShape"></polygon><polygon fill="#a59fcc" points="2011.294 624.76 2055.671 662.126 2051.848 681.465 2042.579 664.834" class="color9fb1cc svgShape"></polygon><path fill="none" stroke="#a59fcc" stroke-dasharray="5" stroke-miterlimit="10" stroke-width="5" d="M415.886,380.279   c0,0-91.65,134.723-10.316,304.703" class="colorStroke9fb1cc svgStroke"></path><path fill="#a59fcc" d="M1471.16,745.365H933.314c-2.851,0-5.162-2.311-5.162-5.162V497.291   c0-2.851,2.311-5.162,5.162-5.162h537.847c2.851,0,5.162,2.311,5.162,5.162v242.912   C1476.322,743.054,1474.011,745.365,1471.16,745.365z" class="color9fb1cc svgShape"></path><path fill="#d9d6ec" d="M1466.907,740.511H937.568c-2.851,0-5.162-2.311-5.162-5.162V501.68   c0-2.851,2.311-5.162,5.162-5.162h529.339c2.851,0,5.162,2.311,5.162,5.162v233.67   C1472.068,738.2,1469.757,740.511,1466.907,740.511z" class="colord6deec svgShape"></path><rect width="250.306" height="113.37" x="938.972" y="505.144" fill="#ffffff" class="colorffffff svgShape"></rect><rect width="183.942" height="32.964" x="1202.237" y="585.551" fill="#a59fcc" opacity=".5" class="color9fb1cc svgShape"></rect><rect width="183.942" height="67.221" x="1202.237" y="506.007" fill="#ffffff" class="colorffffff svgShape"></rect><g opacity=".5" fill="#000000" class="color000000 svgShape"><rect width="40.292" height="13.247" x="939.395" y="623.752" fill="#a59fcc" class="color9fb1cc svgShape"></rect><rect width="40.292" height="13.247" x="988.052" y="623.752" fill="#a59fcc" class="color9fb1cc svgShape"></rect><rect width="40.291" height="13.247" x="1036.711" y="623.752" fill="#a59fcc" class="color9fb1cc svgShape"></rect><rect width="40.292" height="13.247" x="1085.368" y="623.752" fill="#a59fcc" class="color9fb1cc svgShape"></rect><rect width="40.291" height="13.247" x="1134.025" y="623.752" fill="#a59fcc" class="color9fb1cc svgShape"></rect><rect width="40.292" height="13.247" x="1182.682" y="623.752" fill="#a59fcc" class="color9fb1cc svgShape"></rect><rect width="40.291" height="13.247" x="1231.34" y="623.752" fill="#a59fcc" class="color9fb1cc svgShape"></rect><rect width="40.291" height="13.247" x="1279.997" y="623.752" fill="#a59fcc" class="color9fb1cc svgShape"></rect><rect width="40.292" height="13.247" x="1328.654" y="623.752" fill="#a59fcc" class="color9fb1cc svgShape"></rect><rect width="40.292" height="13.247" x="1377.312" y="623.752" fill="#a59fcc" class="color9fb1cc svgShape"></rect><rect width="40.292" height="13.247" x="1425.969" y="623.752" fill="#a59fcc" class="color9fb1cc svgShape"></rect><rect width="40.292" height="13.247" x="939.395" y="643.143" fill="#a59fcc" class="color9fb1cc svgShape"></rect><rect width="40.292" height="13.247" x="988.052" y="643.143" fill="#a59fcc" class="color9fb1cc svgShape"></rect><rect width="40.291" height="13.247" x="1036.711" y="643.143" fill="#a59fcc" class="color9fb1cc svgShape"></rect><rect width="40.292" height="13.247" x="1085.368" y="643.143" fill="#a59fcc" class="color9fb1cc svgShape"></rect><rect width="40.291" height="13.247" x="1134.025" y="643.143" fill="#a59fcc" class="color9fb1cc svgShape"></rect><rect width="40.292" height="13.247" x="1182.682" y="643.143" fill="#a59fcc" class="color9fb1cc svgShape"></rect><rect width="40.291" height="13.247" x="1231.34" y="643.143" fill="#a59fcc" class="color9fb1cc svgShape"></rect><rect width="40.291" height="13.247" x="1279.997" y="643.143" fill="#a59fcc" class="color9fb1cc svgShape"></rect><rect width="40.292" height="13.247" x="1328.654" y="643.143" fill="#a59fcc" class="color9fb1cc svgShape"></rect><rect width="40.292" height="13.247" x="1377.312" y="643.143" fill="#a59fcc" class="color9fb1cc svgShape"></rect><rect width="40.292" height="13.247" x="1425.969" y="643.143" fill="#a59fcc" class="color9fb1cc svgShape"></rect><rect width="40.292" height="13.247" x="988.052" y="662.08" fill="#a59fcc" class="color9fb1cc svgShape"></rect><rect width="40.291" height="13.247" x="1036.711" y="662.08" fill="#a59fcc" class="color9fb1cc svgShape"></rect><rect width="40.292" height="13.247" x="1085.368" y="662.08" fill="#a59fcc" class="color9fb1cc svgShape"></rect><rect width="40.291" height="13.247" x="1134.025" y="662.08" fill="#a59fcc" class="color9fb1cc svgShape"></rect><rect width="40.292" height="13.247" x="1182.682" y="662.08" fill="#a59fcc" class="color9fb1cc svgShape"></rect><rect width="40.291" height="13.247" x="1231.34" y="662.08" fill="#a59fcc" class="color9fb1cc svgShape"></rect><rect width="40.291" height="13.247" x="1279.997" y="662.08" fill="#a59fcc" class="color9fb1cc svgShape"></rect><rect width="40.292" height="13.247" x="1328.654" y="662.08" fill="#a59fcc" class="color9fb1cc svgShape"></rect><rect width="40.292" height="13.247" x="1377.312" y="662.08" fill="#a59fcc" class="color9fb1cc svgShape"></rect><rect width="40.291" height="13.247" x="1036.711" y="681.018" fill="#a59fcc" class="color9fb1cc svgShape"></rect><rect width="40.292" height="13.247" x="1085.368" y="681.018" fill="#a59fcc" class="color9fb1cc svgShape"></rect><rect width="40.291" height="13.247" x="1134.025" y="681.018" fill="#a59fcc" class="color9fb1cc svgShape"></rect><rect width="40.292" height="13.247" x="1182.682" y="681.018" fill="#a59fcc" class="color9fb1cc svgShape"></rect><rect width="40.291" height="13.247" x="1231.34" y="681.018" fill="#a59fcc" class="color9fb1cc svgShape"></rect><rect width="40.291" height="13.247" x="1279.997" y="681.018" fill="#a59fcc" class="color9fb1cc svgShape"></rect><rect width="40.292" height="13.247" x="1328.654" y="681.018" fill="#a59fcc" class="color9fb1cc svgShape"></rect><rect width="40.292" height="13.247" x="1085.368" y="701.216" fill="#a59fcc" class="color9fb1cc svgShape"></rect><rect width="40.291" height="13.247" x="1134.025" y="701.216" fill="#a59fcc" class="color9fb1cc svgShape"></rect><rect width="40.292" height="13.247" x="1182.682" y="701.216" fill="#a59fcc" class="color9fb1cc svgShape"></rect><rect width="40.291" height="13.247" x="1231.34" y="701.216" fill="#a59fcc" class="color9fb1cc svgShape"></rect><rect width="40.291" height="13.247" x="1279.997" y="701.216" fill="#a59fcc" class="color9fb1cc svgShape"></rect><rect width="40.291" height="13.247" x="1134.025" y="721.78" fill="#a59fcc" class="color9fb1cc svgShape"></rect><rect width="40.292" height="13.247" x="1182.682" y="721.78" fill="#a59fcc" class="color9fb1cc svgShape"></rect><rect width="40.291" height="13.247" x="1231.34" y="721.78" fill="#a59fcc" class="color9fb1cc svgShape"></rect></g><rect width="65.619" height="16.482" x="1400.641" y="602.033" fill="#a59fcc" class="color9fb1cc svgShape"></rect><rect width="65.619" height="16.482" x="1400.641" y="578.026" fill="#a59fcc" class="color9fb1cc svgShape"></rect><rect width="65.619" height="16.482" x="1400.641" y="554.02" fill="#a59fcc" class="color9fb1cc svgShape"></rect><ellipse cx="1250.891" cy="1224.983" fill="#e6e6e8" rx="152.523" ry="19.707" class="colore6e7e8 svgShape"></ellipse><rect width="65.619" height="16.482" x="1400.641" y="530.013" fill="#a59fcc" class="color9fb1cc svgShape"></rect><rect width="65.619" height="16.482" x="1400.641" y="506.007" fill="#a59fcc" class="color9fb1cc svgShape"></rect><polygon fill="#664efe" points="1160.961 563.678 1104.959 528.889 1104.959 551.617 967.289 551.617 967.289 563.678 967.289 575.738 1104.959 575.738 1104.959 598.467" opacity=".2" class="colorfec14e svgShape"></polygon><path fill="#7764f0" d="M1414.294,689.07c-1.062,23.898-7.88,49.834-26.01,73.757c0,0-24.244,32.729-40.756,41.991    l-13.598-7.978c0,0,3.866-8.04,8.176-21.206c9.794-29.876,21.91-86.194-3.507-135.015l-0.358-4.866l-4.31-57.565l61.999,24.232    c0,0,11.548,22.181,16.401,53.267C1413.949,665.999,1414.825,677.287,1414.294,689.07z" class="color8d8bc3 svgShape"></path><path fill="#7d75af" d="M1363.905,698.296c-1.556,35.508-17.92,63.913-21.008,76.573c-0.37,1.507-0.63,1.667-0.79,0.766    c9.794-29.876,21.91-86.194-3.507-135.015l-0.358-4.866l4.656-1.062C1342.897,634.691,1365.448,662.788,1363.905,698.296z" class="color7575af svgShape"></path><path fill="#7764f0" d="M1261.312,496.223c0,0-3.396,19.879-15.953,27.392c3.955,7.92,40.499,10.858,46.211,0.515    c-12.659-8.336-14.82-27.907-14.82-27.907H1261.312z" class="color8d8bc3 svgShape"></path><linearGradient id="a" x1="1262.759" x2="1262.759" y1="1198.883" y2="714.803" gradientUnits="userSpaceOnUse"><stop offset="0" stop-color="#2f285c" class="stopColor284d5c svgShape"></stop><stop offset="1" stop-color="#231a5f" class="stopColor1a225f svgShape"></stop></linearGradient><path fill="url(#a)" d="M1366.98,947.465c-4.591-59.84-33.161-232.422-33.161-232.422l-49.496,0.704    c-0.06-0.235-0.115-0.477-0.177-0.709l-80.504-0.234c0,0-83.552,146.209-25.401,483.135h20.191c0,0,31.49-209.352,60.129-309.075    c0,0,0.888-2.517,2.347-6.967c0.002,0.009,0.005,0.017,0.008,0.026c0.012,0.025,0.025,0.062,0.025,0.086    c15.117,45.388,23.676,91.159,23.676,91.159c-0.58,18.291,1.791,40.46,5.755,63.666c6.397,37.484,16.957,77.684,25.973,108.659    c9.139,31.444,16.698,53.391,16.698,53.391l20.008-2.581C1356.309,1175.306,1371.66,1008.463,1366.98,947.465z"></path><path fill="#7764f0" d="M1338.335 648.407c0 .148-.012.284-.012.432-.321 8.089-.716 15.895-1.124 23.145-.086 1.643-.185 3.273-.284 4.854-.049-1.136-.84-17.39-5.681-18.106-.087.148-.173.296-.247.445.099.617 3.557 9.053 5.903 17.587.012.012.012.037.012.049 0 .012 0 .012.012.025v.012c0 .025 0 .049 0 .049-4.072 22.877-2.977 39.756-2.977 39.756-3.545 1-7.089 1.89-10.634 2.655-59.529 13.104-116.995-3.717-119.577-4.471-.025 0-.037-.012-.062-.025-.012 0-.012-.012-.025-.012 0 0-.025-.062-.049-.185-.012-.037-.033-.085-.037-.136-1.178-15.135-4.286-47.352-3.162-80.809 1.445-44.116 5.62-89.059 8.349-93.295.025-.049.062-.086.087-.124 6.138-2.334 11.325-4.409 15.685-6.237 16.093-6.743 20.846-10.402 20.846-10.402l46.211.515c5.36 3.458 12.442 7.43 19.21 10.567 11.362 5.261 21.86 9.263 21.86 9.263.05.148.087.296.136.445C1339.533 566.783 1339.755 610.59 1338.335 648.407zM1309.962 462.591c0-4.494.847-8.748-3.262-9.781-.144-5.108-.647-10.14-1.479-14.9-5.264-30.092-62.813-28.343-68.076 0-3.471 18.689-9.124 66.483 27.371 72.781 24.765 4.274 37.318-15.577 41.027-39.087C1310.225 471.045 1309.962 467.499 1309.962 462.591z" class="color8d8bc3 svgShape"></path><path fill="#7764f0" d="M1242.928 580.517l-42.535 53.156-.543.667v.012c0 0-.012.012-.037.037l-5.236 6.546-.655-.469-55.392-39.287c18.044-46.635 70.101-60.925 70.101-60.925l.111.124L1242.928 580.517zM1194.574 640.94c0 0-29.666 58.232-57.429 79.438-5.459 4.174-10.844 6.904-15.907 7.497-6.113.716-12.338.124-18.205-1.321-7.423-1.803-14.265-4.965-19.538-8.51-29.332-19.711-77.104-78.993-77.104-78.993l10.868-17.476 78.623 36.001c6.521 3.063 15.907-4.323 20.242-10.066l22.404-46.326L1194.574 640.94z" class="color8d8bc3 svgShape"></path><path fill="#7d75af" d="M1414.301,689.07c-5.014-4.224-8.201-10.547-8.201-17.624c0-6.089,2.371-11.634,6.237-15.759    C1413.955,665.999,1414.832,677.287,1414.301,689.07z" class="color7575af svgShape"></path><path fill="#574ba0" d="M1330.99,658.711" class="color4b51a0 svgShape"></path><path fill="#7d75af" d="M1299.512,490.586l-0.16,1.371c-4.236,8.522-10.424,15.068-18.859,17.846    c0.803,1.902,1.778,3.853,2.952,5.731c-0.691-0.371-3.186-1.408-11.288-4.286c-1.124-0.395-2.359-0.827-3.705-1.297    c-4.001-1.396-7.126-3.149-9.584-5.027c-8.386-6.447-8.831-14.339-8.831-14.339l24.738-8.942L1299.512,490.586z" class="color7575af svgShape"></path><path fill="#6e64ad" d="M1330.99,658.711" class="color6465ad svgShape"></path><linearGradient id="b" x1="1139.914" x2="1201.414" y1="1212.767" y2="1212.767" gradientUnits="userSpaceOnUse"><stop offset="0" stop-color="#2f285c" class="stopColor284d5c svgShape"></stop><stop offset="1" stop-color="#231a5f" class="stopColor1a225f svgShape"></stop></linearGradient><path fill="url(#b)" d="M1198.43,1197.938c0,0,6.506,27.148,0.306,28.448c-6.831,1.432-47.914,1.893-58.797-0.312    c-1.069-10.26,34.224-20.607,34.224-20.607l4.077-7.53H1198.43z"></path><linearGradient id="c" x1="1312.021" x2="1356.323" y1="1210.502" y2="1210.502" gradientUnits="userSpaceOnUse"><stop offset="0" stop-color="#2f285c" class="stopColor284d5c svgShape"></stop><stop offset="1" stop-color="#231a5f" class="stopColor1a225f svgShape"></stop></linearGradient><path fill="url(#c)" d="M1353.052,1196.301c0,0,6.882,26.727,0.681,28.027c-6.831,1.432-30.829-1.559-41.713-3.764    c-0.044-14.203,17.908-14.666,17.908-14.666l3.116-7.016L1353.052,1196.301z"></path><path fill="#8573f8" d="M998.62,629.726h-0.272c0.086-0.012,0.173-0.012,0.259-0.012    C998.608,629.726,998.608,629.726,998.62,629.726z" class="colorf8b673 svgShape"></path><path fill="#7d75af" d="M1137.145,720.378c-5.459,4.174-10.844,6.904-15.907,7.497c-6.113,0.716-12.338,0.124-18.205-1.321    c3.693-6.99,11.029-11.745,19.477-11.745C1128.141,714.808,1133.254,716.92,1137.145,720.378z" class="color7575af svgShape"></path><path fill="#664efe" d="M1313.241,417.332c-5.881-9.942-25.481-17.548-25.481-17.548s-34.197-10.573-47.371,9.709    c-1.595,2.019-2.423,5.048-1.796,9.532c0,0-8.196,1.968-7.917,9.258h-0.005c0,0,0,12.273,5.191,17.602    c0,0,3.222,6.939,10.702,12.914c1.563-1.405,3.623-2.268,5.89-2.268c0.533,0,1.051,0.055,1.558,0.146    c0.016,0.002,0.03,0.002,0.046,0.004c0,0.001,0,0.002,0,0.003c4.104,0.755,7.216,4.345,7.216,8.668c0,4.871-3.949,8.82-8.82,8.82    c-0.177,0-0.349-0.016-0.523-0.026c-0.608,2.868-1.366,6.056-2.309,9.615c-1.335,5.04,1.086,10.35,5.828,12.517    c8.084,3.695,21.659,8.246,38.213,7.359c2.274,0.107,4.757-0.15,7.174-0.716c0.005-0.001,0.009-0.001,0.014-0.002l0-0.002    c7.607-1.785,14.477-6.582,11.54-12.384c-7.734-15.28,5.291-45.857,5.291-45.857    C1324.732,427.26,1313.241,417.332,1313.241,417.332z" class="colorfec14e svgShape"></path><linearGradient id="d" x1="1267.226" x2="1267.226" y1="731.399" y2="534.023" gradientUnits="userSpaceOnUse"><stop offset="0" stop-color="#8b83bd" class="stopColor9b83bd svgShape"></stop><stop offset="1" stop-color="#b9b4d7" class="stopColorceb4d7 svgShape"></stop></linearGradient><path fill="url(#d)" d="M1354.049,554.314c-15.302-9.473-28.344-13.128-28.344-13.128    c-6.139-2.334-11.054-4.891-15.413-6.719c0.007,0.013,0.024,0.057,0.038,0.129l-0.041-0.128    c-25.845,13.419-85.779-0.445-85.779-0.445l-0.024,0.045c0.008-0.022,0.016-0.038,0.019-0.045    c-4.36,1.828-9.547,3.903-15.685,6.237c-0.025,0.037-0.062,0.074-0.086,0.123l-0.111-0.123c0,0-52.057,14.289-70.101,60.924    c23.713,4.31,37.212,12.869,45.03,20.909c2.841,2.927,4.94,5.792,6.484,8.361c2.717,4.458,3.779,8.015,4.372,9.448    c0.136,0.321,0.099,0.704,0.074,0.939c-0.025,0.21-0.049,0.309,0.037,0.185c0.013-0.025,0.037-0.049,0.049-0.086    c2.384-2.989,4.817-6.138,5.237-6.546c0.025-0.025,0.037-0.037,0.037-0.037v-0.012l0.543-0.667    c-0.024,0.642-0.037,1.284-0.062,1.914c-0.951,32.691,1.988,61.863,3.223,78.894c0.013,0.049,0.025,0.099,0.037,0.136    c0.025,0.124,0.012,0.148,0.049,0.185c0.012,0,0.012,0.012,0.025,0.012c0.025,0.012,0.037,0.024,0.062,0.024    c2.161,0.976,4.311,1.902,6.422,2.767c54.638,22.576,94.431,12.375,112.673,4.73c0,0,0.012,0,0.025-0.012    c0.037-0.012,0.123-0.049,0.259-0.111c0.148-0.049,0.333-0.136,0.568-0.235c0.271-0.123,0.543-0.247,0.803-0.358    c0.136-0.062,0.272-0.124,0.408-0.173c0.16-0.062,0.321-0.148,0.494-0.222c0.037-0.012,0.074-0.025,0.099-0.037    c0.259-0.124,0.519-0.235,0.753-0.358c0,0,0,0,0.013,0c0.259-0.111,0.519-0.247,0.803-0.383c0.259-0.124,0.519-0.247,0.766-0.37    l0.111-0.049c0.358-0.185,0.728-0.37,1.099-0.556c0.333-0.173,0.642-0.346,0.951-0.494c0.086-0.037,0.185-0.087,0.284-0.148    c0.679-0.371,1.272-0.704,1.766-0.988c0.655-0.383,1.297-0.778,1.915-1.186c0,0-0.013-0.568-0.025-1.618    c2.915-12.746,4.607-70.62,4.693-74.424c0.519,0.654,0.371,0.939,0.902,1.605c0.482-1.247,1.631-4.421,3.396-7.83    c0.469-0.902,0.976-1.803,1.519-2.705c1.544-2.569,3.644-5.434,6.484-8.361c7.818-8.04,21.317-16.599,45.03-20.909    C1386.914,579.102,1369.351,563.787,1354.049,554.314z"></path><linearGradient id="e" x1="1277.549" x2="1277.549" y1="1036.833" y2="819.33" gradientUnits="userSpaceOnUse"><stop offset="0" stop-color="#2f285c" class="stopColor284d5c svgShape"></stop><stop offset="1" stop-color="#08003a" class="stopColor01003a svgShape"></stop></linearGradient><path fill="url(#e)" d="M1292.803,993.779c-4.002,21.107-3.026,37.187-2.433,43.053    c-3.964-23.206-6.336-45.375-5.755-63.666c0,0-8.559-45.771-23.676-91.159c1.309-2.655,14.067-29.48,17.167-62.678    c-0.198,3.421-3.964,69.879,2.655,85.218C1287.554,920.294,1297.879,966.979,1292.803,993.779z"></path><rect width="43.307" height="5.451" x="1211.06" y="761.33" transform="rotate(12.585 1232.704 764.054)" fill="#000000" class="color000000 svgShape"></rect><rect width="43.307" height="5.451" x="1288.105" y="761.33" transform="rotate(-8.61 1309.71 764.037)" fill="#000000" class="color000000 svgShape"></rect><path fill="#574ba0" d="M1207.042 669.791c2.026 31.37 3.063 47.302 3.1 47.821-2.112-.865-4.261-1.791-6.422-2.767-.025 0-.037-.012-.062-.024-.012 0-.012-.012-.025-.012-.037-.037-.025-.062-.049-.185-.012-.037-.025-.086-.037-.136-1.235-17.031-4.174-46.203-3.223-78.894l.84-2.878 21.465-27.949C1222.122 605.717 1205.004 638.347 1207.042 669.791zM1342.897 634.395c-1.766 3.409-2.915 6.583-3.396 7.83-.531-.667-.383-.951-.901-1.605 0 0-9.411-25.936-16.056-30.308C1323.198 610.657 1337.66 618.475 1342.897 634.395z" opacity=".5" class="color4b51a0 svgShape"></path><path fill="#7764f0" d="M1018.63,621.011c0,0-26.377-39.121-32.409-35.132c-2.067,1.367-4.014,1.566,14.116,19.055    c0,0-24.839,7.727-9.03,21.371c15.809,13.643,15.809,13.643,15.809,13.643S1020.764,635.074,1018.63,621.011z" class="color8d8bc3 svgShape"></path><path fill="#7764f0" d="M1017.596,619.499c0,0,6.272,5.848,9.931,6.777c3.659,0.93-5.275,3.45-5.275,3.45l-11.707-3.984    l3.081-4.775L1017.596,619.499z" class="color8d8bc3 svgShape"></path><path fill="#58585b" d="M1286.42,399.617c-1.09,1.063-2.971,2.971-5.233,5.669c-0.872,1.035-1.799,2.18-2.753,3.434    c-5.124,6.705-11.311,16.68-15.48,29.653c-0.251,0.772-0.492,1.567-0.731,2.359c-8.48-1.573-17.037,5.105-19.259,15.166    c-1.642,7.435,0.641,14.647,5.309,18.778c-2.142,2.65-5.239,5.524-9.02,6.302c-2.747,0.573-5.57-0.074-8.423-1.877    c0.271-0.517,0.384-1.122,0.234-1.733c-0.327-1.329-1.67-2.141-2.999-1.814c-1.329,0.327-2.141,1.67-1.814,2.999    c0.198,0.804,0.785,1.378,1.499,1.666c3.146,2.412,6.327,3.693,9.502,3.693c0.854,0,1.709-0.088,2.563-0.264    c4.617-0.956,8.237-4.323,10.67-7.359c1.229,0.726,2.563,1.283,4.004,1.602c8.627,1.905,17.454-4.852,19.716-15.093    c1.803-8.162-1.118-16.059-6.742-19.9c0.089-0.302,0.166-0.592,0.26-0.9c4.088-13.545,10.902-24.366,16.325-31.424    c1.036-1.363,2.017-2.589,2.944-3.679c2.099-2.507,3.734-4.224,4.579-5.069C1289.908,401.008,1288.191,400.272,1286.42,399.617z" class="color58595b svgShape"></path><polygon fill="#4328f2" points="1575.727 121.486 1621.151 100.448 1609.962 95.475 1580.87 109.916 1572.093 78.645 1560.904 73.672" opacity=".5" class="colorf2a528 svgShape"></polygon><polygon fill="#7764f0" points="1847.403 1383.378 1819.806 1425.143 1831.938 1423.496 1849.106 1395.925 1873.002 1417.921 1885.135 1416.274" opacity=".5" class="color8d8bc3 svgShape"></polygon><circle cx="1189.278" cy="239.179" r="20.808" fill="none" stroke="#938bc3" stroke-miterlimit="10" stroke-width="10" opacity=".5" transform="rotate(-37.032 1189.357 239.123)" class="colorStroke8d8bc3 svgStroke"></circle><circle cx="367.438" cy="1368.134" r="20.808" fill="none" stroke="#938bc3" stroke-miterlimit="10" stroke-width="10" opacity=".5" transform="rotate(-2.563 367.56 1366.602)" class="colorStroke8d8bc3 svgStroke"></circle><circle cx="1810.295" cy="514.248" r="20.808" fill="none" stroke="#938bc3" stroke-miterlimit="10" stroke-width="10" opacity=".5" transform="rotate(-24.674 1810.377 514.16)" class="colorStroke8d8bc3 svgStroke"></circle><path fill="none" stroke="#4328f2" stroke-dasharray="5" stroke-miterlimit="10" stroke-width="5" d="M504.625 1195.552c0 0 229.326-65.535 523.522 125.274s680.519 39.063 741.517-170.647M892.322 192.439c0 0 213.494 262.478 541.129 94.27s547.598-27.471 495.842 80.534c-51.756 108.006-186.692 59.748-214.418-22.408-27.727-82.156-84.92-204.153-394.586-215.243" class="colorStrokef2a528 svgStroke"></path></svg>