<svg xmlns="http://www.w3.org/2000/svg" xmlns:vectornator="http://vectornator.io" enable-background="new 0 0 1600 1200" viewBox="0 0 1600 1200" id="BusinessStrategy"><switch><g fill="#000000" class="color000000 svgShape"><g vectornator:layername="Layer 2" fill="#000000" class="color000000 svgShape"><path fill="#7764f0" d="M1383.6 1086.5c0 0 47.8-48.1 66.5-83 18.7-34.9 45.5-77.1 70.8-26.6 25.3 50.5-109 121-109 121L1383.6 1086.5zM1383.6 1086.5c0 0 45.4-86.3 76.9-136.6 31.5-50.3 61.2-144.8-4.1-119.2-65.3 25.6-89.6 249.2-89.6 249.2L1383.6 1086.5z" class="color7b76be svgShape"></path><path fill="#bbb3ec" d="M1487.3,828.5c0.3,0.2,0.4,0.5,0.3,0.8c0,0.1-7.1,13.9-9.7,19.1c-7.5,15-15.5,31.2-23.7,48
					c-10.2,20.9-19.9,41.3-28.8,60.7c-27.2,59.1-44.5,102.2-47.6,122.3c0,0.3-0.4,0.6-0.7,0.5c-0.3-0.1-0.6-0.4-0.6-0.7
					c3.2-20.2,20.5-63.4,47.7-122.6c8.9-19.4,18.6-39.8,28.8-60.7c8.2-16.8,16.2-33,23.7-48c2.6-5.2,9.7-19.1,9.7-19.1
					C1486.6,828.5,1486.9,828.4,1487.3,828.5z" class="colorb7b3ec svgShape"></path><path fill="#7764f0" d="M1339.1,1068.5c-13-32.2-38.3-143.2,7.8-161.7c46.1-18.5,15.6,171,15.6,171L1339.1,1068.5z" class="color7b76be svgShape"></path><path fill="#bbb3ec" d="M1382.4 988.1c.3-.1.7.1.8.4l11.5 38.6c.1.3-.1.7-.5.8-.3.1-.7-.1-.8-.4l-11.5-38.6C1381.9 988.5 1382.1 988.2 1382.4 988.1zM1435 993c.3-.1.7.1.8.4s0 .7-.4.8l-31.7 10.7c-.3.1-.7-.1-.8-.4-.1-.3.1-.7.4-.8L1435 993zM1396.3 935l20.7 39c.2.3.1.7-.3.8-.3.2-.7 0-.9-.3l-20.7-38.9c-.2-.3-.1-.7.2-.9C1395.7 934.6 1396.1 934.7 1396.3 935zM1471.3 931c.3-.1.7.1.8.4.1.3 0 .7-.4.8l-41.7 14.7c-.3.1-.7 0-.8-.4-.1-.3 0-.7.4-.8L1471.3 931zM1417.9 874.1l26.2 41.3c.2.3.1.7-.2.8-.3.2-.7.1-.8-.2l-26.1-41.2c-.2-.3-.1-.7.2-.9C1417.4 873.7 1417.8 873.8 1417.9 874.1zM1491.9 878.4c.3-.1.7.1.8.4.1.3-.1.7-.4.8l-36.5 12.3c-.3.1-.7 0-.8-.4s.1-.7.4-.8L1491.9 878.4zM1451.4 831.9c.3.1.3.4.3.7 0-.1 0-.1 0-.1 0 .1.2.4.4.8.4.7 1 1.8 1.9 3.3 1.5 2.5 3.7 6 6.4 10.3.2.3 9.7 15.1 9.8 15.1.2.3.1.7-.2.9-.3.2-.7.1-.9-.2 0-.1-9.6-14.9-9.8-15.1-2.7-4.3-4.9-7.7-6.5-10.3-.9-1.5-1.5-2.6-1.9-3.4-.2-.4-.3-.7-.4-.9-.1-.2-.1-.3-.1-.5C1450.5 831.9 1451 831.7 1451.4 831.9zM1349.2 905.9c.3.1.5.4.5.7-2.2 9.7-2.2 38-.7 79.1.1 2.8.2 5.7.3 8.6.7 17.4 1.7 35.6 2.7 53.5.4 6.3 1.4 23.7 1.5 23.8 0 .3-.2.7-.6.7-.4 0-.6-.3-.7-.6 0-.1-1.1-17.5-1.5-23.8-1-18-2-36.2-2.7-53.6-.1-2.9-.2-5.8-.3-8.6-1.6-41.2-1.5-69.5.7-79.4C1348.6 906 1348.9 905.8 1349.2 905.9z" class="colorb7b3ec svgShape"></path><path fill="#bbb3ec" d="M1330.5 1041.5l21.1 13.8c.3.2.3.6.2.9-.2.3-.6.4-.8.2l-21.1-13.8c-.3-.2-.4-.6-.2-.9C1329.8 1041.3 1330.2 1041.3 1330.5 1041.5zM1371 1003.4c.3.2.4.6.2.9l-20.1 30.4c-.2.3-.6.4-.9.2-.3-.2-.4-.6-.2-.9l20.1-30.5C1370.3 1003.2 1370.7 1003.2 1371 1003.4zM1321.1 972.1l27.8 24.7c.3.2.3.6.1.9-.2.3-.6.3-.9.1l-27.8-24.7c-.3-.2-.3-.6-.1-.9C1320.4 971.9 1320.8 971.8 1321.1 972.1zM1371.1 934.3c.3.2.3.6 0 .9l-22.7 25.6c-.2.3-.6.3-.9.1-.3-.2-.3-.7-.1-.9l22.8-25.6C1370.4 934.1 1370.9 934 1371.1 934.3zM1331.8 920.3l15.7 14.7c.3.2.3.6 0 .9-.2.3-.6.3-.8 0l-15.7-14.7c-.3-.2-.3-.6 0-.9C1331.2 920.1 1331.6 920.1 1331.8 920.3zM1512.9 961.9c.3.2.3.6.1.9 0 .1-3.1 4.3-4.3 6-3.4 4.7-7.3 10-11.5 15.6-12.1 16.1-24.6 32-36.9 46.7-18.9 22.5-35.4 39.8-48.5 50.2-5.2 4.1-9.9 7.1-13.9 8.9-.3.1-.7 0-.8-.3-.1-.3 0-.7.3-.8 3.9-1.7 8.5-4.7 13.6-8.7 13-10.3 29.5-27.6 48.3-50 12.3-14.6 24.8-30.5 36.9-46.6 4.2-5.6 8.1-10.9 11.5-15.6 1.2-1.7 4.2-5.9 4.3-5.9C1512.2 961.8 1512.7 961.7 1512.9 961.9z" class="colorb7b3ec svgShape"></path><path fill="#bbb3ec" d="M1411.6 1057.8c.3-.1.7.2.8.5l3.8 17.3c.1.3-.1.7-.5.7-.3.1-.7-.1-.7-.5l-3.8-17.3C1411.1 1058.2 1411.3 1057.8 1411.6 1057.8zM1455.9 1070.3c.3.1.6.3.5.7-.1.3-.4.6-.7.5l-27.9-4.4c-.3-.1-.6-.4-.6-.7.1-.3.4-.6.7-.5L1455.9 1070.3zM1444.7 1013c.3-.1.7.1.7.5l5.9 27.5c.1.3-.1.7-.5.7-.3.1-.7-.1-.8-.5l-5.8-27.5C1444.2 1013.4 1444.4 1013.1 1444.7 1013zM1504.8 1028.5c.3 0 .6.4.6.7 0 .3-.3.6-.7.5l-38.5-4.4c-.3 0-.6-.3-.6-.7 0-.3.4-.6.7-.5L1504.8 1028.5zM1467.2 974.9c.3-.1.7.1.8.4l11.7 31c.1.3 0 .7-.4.8-.3.1-.7 0-.8-.3l-11.7-31.1C1466.7 975.4 1466.9 975 1467.2 974.9zM1523.3 988.7c.3 0 .6.3.6.6 0 .3-.3.6-.6.6l-30-.1c-.4 0-.6-.3-.6-.6s.3-.6.6-.6L1523.3 988.7z" class="colorb7b3ec svgShape"></path><g fill="#000000" class="color000000 svgShape"><path fill="#7764f0" d="M221 1161.4c0 0-47.8-48.1-66.5-83-18.7-34.9-45.5-77.1-70.8-26.6-25.3 50.5 109 121 109 121L221 1161.4zM221 1161.4c0 0-45.4-86.3-76.9-136.6-31.5-50.3-61.2-144.8 4.1-119.2 65.3 25.6 89.6 249.2 89.6 249.2L221 1161.4z" class="color7b76be svgShape"></path><path fill="#bbb3ec" d="M117.4,903.5c-0.3,0.2-0.4,0.5-0.3,0.8c0,0.1,7.1,13.9,9.7,19.1c7.5,15,15.5,31.2,23.7,48
					c10.2,20.9,19.9,41.3,28.8,60.7c27.2,59.1,44.5,102.2,47.6,122.3c0.1,0.3,0.4,0.6,0.7,0.5c0.3-0.1,0.6-0.4,0.5-0.7
					c-3.2-20.2-20.4-63.4-47.7-122.6c-8.9-19.4-18.6-39.8-28.8-60.7c-8.2-16.8-16.2-33-23.7-48c-2.6-5.2-9.7-19.1-9.7-19.1
					C118.1,903.5,117.7,903.3,117.4,903.5z" class="colorb7b3ec svgShape"></path><path fill="#7764f0" d="M265.5,1143.4c13-32.2,38.4-143.2-7.8-161.7c-46.1-18.5-15.6,171-15.6,171L265.5,1143.4z" class="color7b76be svgShape"></path><path fill="#bbb3ec" d="M222.2 1063c-.3-.1-.7.1-.8.4L210 1102c-.1.3.1.7.4.8.3.1.7-.1.8-.4l11.5-38.6C222.7 1063.5 222.6 1063.1 222.2 1063zM169.6 1067.9c-.3-.1-.7.1-.8.4-.1.3 0 .7.4.8l31.7 10.7c.3.1.7-.1.8-.4.1-.3-.1-.7-.4-.8L169.6 1067.9zM208.3 1009.9l-20.7 39c-.2.3-.1.7.3.8.3.2.7 0 .9-.3l20.7-38.9c.2-.3.1-.7-.2-.9C208.9 1009.5 208.5 1009.6 208.3 1009.9zM133.3 1006c-.3-.1-.7.1-.8.4-.1.3 0 .7.4.8l41.7 14.7c.3.1.7 0 .8-.4.1-.3-.1-.7-.4-.8L133.3 1006zM186.7 949l-26.2 41.3c-.2.3-.1.7.2.8.3.2.7.1.9-.2l26.1-41.2c.2-.3.1-.7-.2-.9C187.2 948.6 186.9 948.7 186.7 949zM112.7 953.3c-.3-.1-.7.1-.8.4-.1.3.1.7.4.8l36.5 12.3c.3.1.7 0 .8-.4.1-.3-.1-.7-.4-.8L112.7 953.3zM153.2 906.9c-.3.1-.3.4-.3.7 0-.1 0-.1 0-.1-.1.1-.2.4-.4.8-.4.7-1 1.8-1.9 3.3-1.5 2.5-3.7 6-6.4 10.3-.2.3-9.7 15.1-9.8 15.1-.2.3-.1.7.2.9.3.2.7.1.9-.2 0-.1 9.6-14.9 9.8-15.1 2.7-4.3 4.9-7.7 6.5-10.3.9-1.5 1.5-2.6 1.9-3.4.2-.4.3-.7.4-.9.1-.2.1-.3.1-.5C154.1 906.8 153.6 906.7 153.2 906.9zM255.4 980.8c-.3.1-.5.4-.5.7 2.2 9.7 2.2 38 .7 79.1-.1 2.8-.2 5.7-.3 8.6-.7 17.4-1.7 35.6-2.7 53.5-.4 6.3-1.5 23.7-1.5 23.8 0 .3.2.7.6.7.3 0 .6-.3.6-.6 0-.1 1.1-17.5 1.5-23.8 1-18 2-36.2 2.7-53.6.1-2.9.2-5.8.3-8.6 1.6-41.2 1.5-69.5-.7-79.4C256.1 981 255.7 980.7 255.4 980.8z" class="colorb7b3ec svgShape"></path><path fill="#bbb3ec" d="M274.1 1116.4l-21.1 13.8c-.3.2-.3.6-.2.9.2.3.6.4.8.2l21.1-13.8c.3-.2.4-.6.2-.9C274.8 1116.3 274.4 1116.2 274.1 1116.4zM233.6 1078.3c-.3.2-.4.6-.2.9l20.1 30.4c.2.3.6.4.9.2.3-.2.4-.6.2-.9l-20.1-30.5C234.3 1078.2 233.9 1078.1 233.6 1078.3zM283.6 1047l-27.8 24.7c-.3.2-.3.6-.1.9s.6.3.9.1l27.8-24.7c.3-.2.3-.6.1-.9C284.2 1046.8 283.8 1046.8 283.6 1047zM233.5 1009.2c-.3.2-.2.6 0 .9l22.7 25.6c.2.3.6.3.9.1s.3-.7.1-.9l-22.7-25.6C234.2 1009 233.8 1009 233.5 1009.2zM272.8 995.2l-15.7 14.7c-.3.2-.3.6 0 .9.2.3.6.3.9 0l15.7-14.7c.3-.2.3-.6 0-.9C273.5 995 273.1 995 272.8 995.2zM91.7 1036.9c-.3.2-.3.6-.1.8 0 .1 3.1 4.3 4.3 6 3.4 4.7 7.3 10 11.5 15.6 12.1 16.1 24.6 32 36.9 46.7 18.9 22.5 35.4 39.8 48.5 50.2 5.2 4.1 9.9 7.1 13.9 8.9.3.1.7 0 .8-.3.1-.3 0-.7-.3-.8-3.9-1.7-8.5-4.7-13.6-8.7-13-10.3-29.5-27.6-48.3-50-12.3-14.6-24.8-30.5-36.9-46.6-4.2-5.6-8.1-10.9-11.5-15.6-1.2-1.7-4.2-5.9-4.3-5.9C92.4 1036.7 92 1036.7 91.7 1036.9z" class="colorb7b3ec svgShape"></path><path fill="#bbb3ec" d="M193 1132.7c-.3-.1-.7.1-.8.5l-3.8 17.3c-.1.3.1.7.5.7.3.1.7-.1.7-.5l3.8-17.3C193.6 1133.1 193.4 1132.8 193 1132.7zM148.7 1145.3c-.3 0-.6.3-.5.7.1.3.4.6.7.6l27.9-4.4c.3 0 .6-.4.5-.7s-.4-.6-.7-.5L148.7 1145.3zM159.9 1088c-.3-.1-.7.1-.7.5l-5.9 27.5c-.1.3.1.7.5.7.3.1.7-.2.8-.5l5.8-27.5C160.5 1088.4 160.3 1088.1 159.9 1088zM99.8 1103.4c-.3 0-.6.4-.5.7 0 .3.3.6.7.5l38.5-4.4c.3 0 .6-.3.6-.7 0-.3-.4-.6-.7-.5L99.8 1103.4zM137.4 1049.8c-.3-.1-.7.1-.8.4l-11.7 31c-.1.3 0 .7.4.8.3.1.7 0 .8-.4l11.7-31.1C137.9 1050.3 137.8 1050 137.4 1049.8zM81.3 1063.6c-.3 0-.6.3-.6.6 0 .3.3.6.6.6l30-.1c.3 0 .6-.3.6-.6 0-.3-.3-.6-.6-.6L81.3 1063.6z" class="colorb7b3ec svgShape"></path></g><path fill="#c1bce4" d="M257.9,1130.4c79.3-9.8,176.5-32.4,302.7-149.9c126.2-117.5,219.8-63.9,344-58.1
				c124.2,5.8,110.9-186.9,324.4-208.5c213.6-21.6,207,486,207,486H160.3C180,1131.7,178.6,1140.2,257.9,1130.4z" class="colorbfbce4 svgShape"></path><path fill="#ffffff" d="M215.4,238.1c-35.4,0-65.4,22.8-76.3,54.5c-7.4-3.6-15.6-5.8-24.4-5.8c-31.1,0-56.4,25.2-56.4,56.3
				c0,3.2,0.4,6.4,0.9,9.4h327c0-17.3-14.1-31.4-31.4-31.4c-4.9,0-9.4,1.2-13.5,3.2c-9.4-15.1-26.1-25.2-45.2-25.2
				c-0.8,0-1.6,0.2-2.4,0.2C285,264.2,253.3,238.1,215.4,238.1z" enable-background="new" opacity=".733" class="colorffffff svgShape"></path></g><g vectornator:layername="Layer 4" fill="#000000" class="color000000 svgShape"><path fill="#dedcee" d="M319.9,143.5h935.8c41.4,0,75,35.4,75,79.1v619.7c0,43.7-33.6,79.1-75,79.1H319.9c-41.4,0-75-35.4-75-79.1
					V222.6C244.9,178.9,278.4,143.5,319.9,143.5z" class="colordddcee svgShape"></path><path fill="#a097da" d="M808.7 212.2c-6.6 0-12 5.4-12 12v250.3c54.9-55.4 96.5-71.8 152.5-5.5V224.2c0-6.6-5.3-12-11.9-12H808.7zM999.1 529.2c79.5 82.4 152.6 82.4 152.6 82.4V449c0-3.9-5.3-7.1-11.9-7.1h-128.7c-6.6 0-12 3.1-12 7.1V529.2zM552.9 697.1V533.9c0-2.9-5.4-5.3-12-5.3H412.3c-6.6 0-12 2.4-12 5.3v238.9c0 1.3 1.1 2.4 2.8 3.3C410.5 772.9 476.7 743.9 552.9 697.1zM600.5 665.8c37.4-26 73.8-55.1 102.3-86.7 19.1-21.2 34.2-38.4 50.3-56.6v-81c0-4-5.4-7.3-12-7.3H612.4c-6.6 0-12 3.3-12 7.3V665.8z" class="color9c97da svgShape"></path><path fill="#6b5fb6" d="M1203.1,191c-1.1,0-2,0.9-2.1,2l-9,645.7l-791.2-0.7c-1.1,0-2,0.9-2,2c0,1.1,0.9,2,2,2l793.2,0.7
						c1.1,0,2-0.9,2-2l9-647.6C1205,192,1204.2,191.1,1203.1,191z" enable-background="new" opacity=".928" class="color665fb6 svgShape"></path><path fill="#6b5fb6" d="M881.7 425.9c-27.4-1.3-54.1 17.5-84.9 48.7v291.6c0 5 3 9.2 7.3 11l138.5-.3c4-1.9 6.7-5.9 6.7-10.6v-297C924.8 440.1 903 426.9 881.7 425.9zM753.1 522.6c-16 18.2-31.2 35.4-50.3 56.6-28.5 31.6-64.9 60.6-102.3 86.7v105c0 3.1 3.3 5.7 7.9 6.7l138-.3c3.9-1.2 6.7-3.6 6.7-6.4V522.6zM999.1 529.2v241.7c0 2.4 2.1 4.3 5.1 5.6l143.3-.3c2.5-1.3 4.2-3.2 4.2-5.3V611.7C1151.7 611.7 1078.6 611.6 999.1 529.2zM552.9 697.1c-76.2 46.8-142.4 75.8-149.7 79 2.1 1.1 5.3 2 8.9 2 .1 0 .1 0 .2 0l130.6-.3c5.6-.5 10-2.4 10-5V697.1z" enable-background="new" opacity=".746" class="color665fb6 svgShape"></path><path fill="#ffffff" d="M1089.1,232.9L875,332.7l113.1,3.1c-29.8,37.6-62.8,79.2-73.8,93l-54.9-39.9l-148,197.6l-105.1-65.7
					c0,0-75.8,95.1-76.1,95.5c-38.1,47.9-61.9,78.2-66.4,84.7l-8.6,12.4l24.8,17.2l8.6-12.4c3.9-5.6,28.2-36.6,65.2-83.1
					c0.3-0.4,46.5-58.3,59.3-74.4L719,626.7l146.8-196l54.2,39.5l91.8-115.6l28.7,109.5L1089.1,232.9z" class="colorffffff svgShape"></path><g fill="#000000" class="color000000 svgShape"><path fill="#a097da" d="M379.9,415.5l-42.6,11.4l16.4-40.8c-14.4-5.7-31.3-3.9-44.2,6.5c-18.9,15.4-21.8,43.1-6.5,62
						c15.4,18.9,43.1,21.8,62.1,6.5C379,449.8,384.2,431.8,379.9,415.5z" class="color9c97da svgShape"></path><path fill="#6c5ae2" d="M377.3,394.1c-4.9-6.1-11.1-10.3-17.9-13L343,421.9l42.6-11.4C384.1,404.7,381.4,399.1,377.3,394.1z" class="colore25a64 svgShape"></path></g><g fill="#000000" class="color000000 svgShape"><path fill="#a097da" d="M293.2 201.3h247.9v24.6H293.2V201.3zM293.2 252.9h162.2v24.6H293.2V252.9zM293.2 303.3h103.6v24.6H293.2V303.3z" class="color9c97da svgShape"></path></g><g fill="#000000" class="color000000 svgShape"><path fill="#6352cd" d="M760.8,292.8c7.6-17.2,21.9-26.3,35-21.9c17.2,5.7,18.4,24.9,10.8,42.1c-7.6,17.2-21.5,27.8-38.4,20.2
					C755.7,327.7,753.2,310.1,760.8,292.8z" class="colorcd525b svgShape"></path><path fill="#7765e6" d="M756.6,291c7.6-17.2,23.6-26.8,35.8-21.4c12.2,5.4,15.9,23.7,8.3,40.9c-7.6,17.2-23.6,26.8-35.8,21.4
					C752.8,326.5,749,308.2,756.6,291z" class="colore6656f svgShape"></path><path fill="#ffffff" d="M773,312.8l1.1-2.4c-1.1-0.7-2-1.4-2.6-2.1c-0.6-0.7-1-1.6-1.1-2.7c-0.2-1.1,0-2.3,0.4-3.6l2.6,0.6
						c-0.4,1.4-0.5,2.5-0.3,3.3c0.3,1.2,0.9,2,1.8,2.5l3.4-7.7c-0.9-0.6-1.8-1.5-2.5-2.5c-0.6-0.8-0.9-1.6-1-2.6
						c-0.1-0.9,0.1-1.9,0.5-2.9c0.8-1.7,2-2.8,3.7-3.4c1.1-0.4,2.5-0.3,4.2,0.3l0.5-1.2l1.4,0.6l-0.5,1.2c1.3,0.8,2.3,1.7,2.8,2.7
						c0.7,1.3,0.8,2.8,0.3,4.4l-2.7-0.7c0.3-1,0.3-1.9,0.1-2.6c-0.2-0.7-0.7-1.3-1.4-1.8l-3.1,7c1.1,0.8,1.8,1.4,2.1,1.8
						c0.6,0.7,1,1.3,1.3,2c0.3,0.7,0.4,1.4,0.3,2.2c0,0.8-0.2,1.5-0.6,2.3c-0.7,1.7-1.9,2.8-3.4,3.5s-3.2,0.6-4.9,0l-1.1,2.4
						L773,312.8z M782.3,291.7c-1-0.3-1.9-0.2-2.7,0.1c-0.8,0.4-1.4,1-1.8,1.8c-0.4,0.8-0.4,1.6-0.2,2.4c0.2,0.8,0.8,1.5,1.8,2.4
						L782.3,291.7z M776.4,309c1,0.3,1.9,0.2,2.9-0.2c0.9-0.4,1.6-1.2,2.1-2.2c0.4-0.9,0.5-1.7,0.3-2.4c-0.2-0.7-0.9-1.6-2-2.6
						L776.4,309z" class="colorffffff svgShape"></path><path fill="none" d="M773,312.8l1.1-2.4c-1.1-0.7-2-1.4-2.6-2.1c-0.6-0.7-1-1.6-1.1-2.7c-0.2-1.1,0-2.3,0.4-3.6l2.6,0.6
						c-0.4,1.4-0.5,2.5-0.3,3.3c0.3,1.2,0.9,2,1.8,2.5l3.4-7.7c-0.9-0.6-1.8-1.5-2.5-2.5c-0.6-0.8-0.9-1.6-1-2.6
						c-0.1-0.9,0.1-1.9,0.5-2.9c0.8-1.7,2-2.8,3.7-3.4c1.1-0.4,2.5-0.3,4.2,0.3l0.5-1.2l1.4,0.6l-0.5,1.2c1.3,0.8,2.3,1.7,2.8,2.7
						c0.7,1.3,0.8,2.8,0.3,4.4l-2.7-0.7c0.3-1,0.3-1.9,0.1-2.6c-0.2-0.7-0.7-1.3-1.4-1.8l-3.1,7c1.1,0.8,1.8,1.4,2.1,1.8
						c0.6,0.7,1,1.3,1.3,2c0.3,0.7,0.4,1.4,0.3,2.2c0,0.8-0.2,1.5-0.6,2.3c-0.7,1.7-1.9,2.8-3.4,3.5s-3.2,0.6-4.9,0l-1.1,2.4
						L773,312.8z"></path><path fill="#ffffff" d="M798.4,281c-1.8-3.3-4.4-5.9-7.8-7.3c-10.7-4.7-24.6,3.6-31.2,18.5c-6.6,14.9-3.4,30.8,7.3,35.6
					c10.7,4.7,24.6-3.6,31.2-18.5C802.5,299,802.4,288.3,798.4,281z M797.6,281.6c3.8,7,3.9,17.4-0.5,27.3
					c-6.4,14.5-19.9,22.5-30,18.1c-10.1-4.5-13.3-19.8-6.9-34.3c6.4-14.5,19.9-22.5,30-18.1C793.4,276,795.9,278.4,797.6,281.6z" class="colorffffff svgShape"></path></g><g fill="#000000" class="color000000 svgShape"><path fill="#6352cd" d="M986,162.7c9-20.8,26.1-31.9,41.9-26.7c20.8,6.7,22.5,29.8,13.5,50.6c-9,20.8-25.6,33.7-46,24.8
					C980.2,204.7,977.1,183.5,986,162.7z" class="colorcd525b svgShape"></path><path fill="#7765e6" d="M981,160.6c9-20.8,28.2-32.5,42.9-26.2c14.7,6.3,19.4,28.4,10.4,49.2c-9,20.8-28.2,32.5-42.9,26.2
					C976.7,203.4,972,181.4,981,160.6z" class="colore6656f svgShape"></path><path fill="#ffffff" d="M1000.9,186.6l1.3-2.9c-1.4-0.8-2.4-1.6-3.1-2.5c-0.7-0.9-1.2-2-1.4-3.3c-0.2-1.3,0-2.8,0.5-4.3l3.2,0.7
						c-0.4,1.7-0.5,3-0.3,4c0.4,1.4,1.1,2.4,2.2,3l4-9.3c-1.1-0.7-2.1-1.7-3.1-3c-0.7-0.9-1.1-1.9-1.2-3.1c-0.1-1.1,0.1-2.3,0.6-3.4
						c0.9-2.1,2.3-3.4,4.4-4.1c1.4-0.4,3-0.3,5,0.3l0.6-1.4l1.7,0.7l-0.6,1.4c1.6,0.9,2.8,2,3.4,3.2c0.8,1.6,1,3.4,0.4,5.3l-3.2-0.8
						c0.3-1.2,0.3-2.2,0.1-3.1c-0.3-0.8-0.9-1.6-1.7-2.2l-3.6,8.4c1.3,1,2.1,1.7,2.5,2.1c0.7,0.8,1.3,1.6,1.6,2.4
						c0.3,0.8,0.5,1.7,0.4,2.6c0,0.9-0.2,1.8-0.6,2.8c-0.9,2-2.2,3.4-4.1,4.2c-1.9,0.8-3.8,0.8-5.9,0l-1.3,2.9L1000.9,186.6z
						 M1011.9,161.1c-1.2-0.3-2.3-0.2-3.3,0.2c-1,0.5-1.7,1.2-2.1,2.2c-0.4,1-0.5,1.9-0.2,2.9c0.3,0.9,1,1.8,2.1,2.8L1011.9,161.1z
						 M1005,182c1.2,0.3,2.4,0.3,3.5-0.3c1.1-0.5,1.9-1.4,2.5-2.6c0.5-1.1,0.6-2,0.3-2.9c-0.3-0.9-1-1.9-2.4-3.1L1005,182z" class="colorffffff svgShape"></path><path fill="none" d="M1000.9,186.6l1.3-2.9c-1.4-0.8-2.4-1.6-3.1-2.5c-0.7-0.9-1.2-2-1.4-3.3c-0.2-1.3,0-2.8,0.5-4.3l3.2,0.7
						c-0.4,1.7-0.5,3-0.3,4c0.4,1.4,1.1,2.4,2.2,3l4-9.3c-1.1-0.7-2.1-1.7-3.1-3c-0.7-0.9-1.1-1.9-1.2-3.1c-0.1-1.1,0.1-2.3,0.6-3.4
						c0.9-2.1,2.3-3.4,4.4-4.1c1.4-0.4,3-0.3,5,0.3l0.6-1.4l1.7,0.7l-0.6,1.4c1.6,0.9,2.8,2,3.4,3.2c0.8,1.6,1,3.4,0.4,5.3l-3.2-0.8
						c0.3-1.2,0.3-2.2,0.1-3.1c-0.3-0.8-0.9-1.6-1.7-2.2l-3.6,8.4c1.3,1,2.1,1.7,2.5,2.1c0.7,0.8,1.3,1.6,1.6,2.4
						c0.3,0.8,0.5,1.7,0.4,2.6c0,0.9-0.2,1.8-0.6,2.8c-0.9,2-2.2,3.4-4.1,4.2c-1.9,0.8-3.8,0.8-5.9,0l-1.3,2.9L1000.9,186.6z"></path><path fill="#ffffff" d="M1031.2,148.1c-2.2-3.9-5.4-7-9.4-8.7c-12.9-5.6-29.6,4.6-37.4,22.7c-7.8,18-3.7,37.2,9.2,42.7
					c12.9,5.6,29.6-4.6,37.4-22.7C1036.3,169.7,1036,156.8,1031.2,148.1z M1030.3,148.7c4.6,8.3,4.9,20.9-0.3,32.9
					c-7.6,17.5-23.7,27.4-35.9,22.1c-12.3-5.3-16.2-23.7-8.6-41.3c7.6-17.5,23.7-27.4,35.9-22.1C1025.1,142,1028.2,145,1030.3,148.7
					z" class="colorffffff svgShape"></path></g><g fill="#000000" class="color000000 svgShape"><path fill="#6352cd" d="M460.6,111c17-15,37.2-17.6,49.4-6.2c15.9,15,7.5,36.5-9.5,51.5c-17,15-37.5,19.5-52.1,2.7
					C437.4,146.5,443.6,126,460.6,111z" class="colorcd525b svgShape"></path><path fill="#7765e6" d="M457,106.9c17-15,39.4-17.3,50-5.3c10.6,12,5.4,33.9-11.7,48.9c-17,15-39.4,17.3-50,5.3
					C434.7,143.8,440,121.9,457,106.9z" class="colore6656f svgShape"></path><path fill="#ffffff" d="M463.9,139l2.4-2.1c-0.9-1.3-1.5-2.5-1.8-3.6c-0.3-1.1-0.2-2.3,0.2-3.6c0.4-1.3,1.1-2.5,2.3-3.7l2.6,2
						c-1.1,1.3-1.8,2.5-2,3.5c-0.3,1.4,0,2.6,0.7,3.7l7.6-6.7c-0.7-1.1-1.2-2.5-1.5-4c-0.2-1.1-0.2-2.2,0.2-3.3c0.4-1.1,1.1-2,2-2.9
						c1.7-1.5,3.6-2.1,5.7-1.8c1.4,0.2,2.9,1,4.4,2.4l1.1-1l1.2,1.4l-1.1,1c1.1,1.5,1.6,3,1.7,4.4c0,1.8-0.6,3.5-1.9,5l-2.5-2.1
						c0.8-1,1.3-1.9,1.4-2.8c0.1-0.9-0.1-1.8-0.6-2.7l-6.9,6c0.8,1.5,1.2,2.5,1.4,3c0.3,1,0.5,2,0.4,2.9s-0.3,1.7-0.7,2.5
						c-0.4,0.8-1,1.6-1.8,2.2c-1.7,1.5-3.5,2.1-5.5,2.1c-2-0.1-3.8-0.9-5.4-2.5l-2.4,2.1L463.9,139z M484.7,120.7
						c-1-0.8-2-1.2-3-1.2c-1.1,0-2,0.4-2.8,1.1c-0.8,0.7-1.3,1.5-1.4,2.5c-0.1,0.9,0.1,2.1,0.7,3.5L484.7,120.7z M469.5,136.5
						c0.9,0.8,2,1.2,3.2,1.2c1.2,0,2.3-0.4,3.4-1.3c0.9-0.8,1.4-1.6,1.5-2.5c0.1-0.9-0.1-2.2-0.8-3.8L469.5,136.5z" class="colorffffff svgShape"></path><path fill="none" d="M463.9,139l2.4-2.1c-0.9-1.3-1.5-2.5-1.8-3.6c-0.3-1.1-0.2-2.3,0.2-3.6c0.4-1.3,1.1-2.5,2.3-3.7l2.6,2
						c-1.1,1.3-1.8,2.5-2,3.5c-0.3,1.4,0,2.6,0.7,3.7l7.6-6.7c-0.7-1.1-1.2-2.5-1.5-4c-0.2-1.1-0.2-2.2,0.2-3.3c0.4-1.1,1.1-2,2-2.9
						c1.7-1.5,3.6-2.1,5.7-1.8c1.4,0.2,2.9,1,4.4,2.4l1.1-1l1.2,1.4l-1.1,1c1.1,1.5,1.6,3,1.7,4.4c0,1.8-0.6,3.5-1.9,5l-2.5-2.1
						c0.8-1,1.3-1.9,1.4-2.8c0.1-0.9-0.1-1.8-0.6-2.7l-6.9,6c0.8,1.5,1.2,2.5,1.4,3c0.3,1,0.5,2,0.4,2.9s-0.3,1.7-0.7,2.5
						c-0.4,0.8-1,1.6-1.8,2.2c-1.7,1.5-3.5,2.1-5.5,2.1c-2-0.1-3.8-0.9-5.4-2.5l-2.4,2.1L463.9,139z"></path><path fill="#ffffff" d="M507.7,117.2c-0.3-4.5-1.9-8.6-4.8-11.9c-9.3-10.6-28.7-8.5-43.5,4.5c-14.7,13-19.3,32-10,42.6
					c9.3,10.6,28.7,8.5,43.5-4.5C503,138.9,508.3,127.1,507.7,117.2z M506.6,117.4c0.6,9.5-4.5,20.9-14.4,29.6
					c-14.3,12.6-33.1,14.6-41.9,4.5c-8.8-10-4.4-28.4,9.9-41c14.3-12.6,33.1-14.6,41.9-4.6C504.8,109.1,506.3,113,506.6,117.4z" class="colorffffff svgShape"></path></g><g fill="#000000" class="color000000 svgShape"><path fill="#a097da" d="M1133.5,73.6H1424c12.2,0,22.1,9.9,22.1,22.1v184.1c0,12.2-9.9,22.1-22.1,22.1h-290.5
					c-12.2,0-22.1-9.9-22.1-22.1V95.7C1111.4,83.5,1121.3,73.6,1133.5,73.6z" enable-background="new" opacity=".85" class="color9c97da svgShape"></path><path fill="#cec7f8" d="M1130.7 108.6h52.4c2.4 0 4.3 1.9 4.3 4.3v1.9c0 2.4-1.9 4.3-4.3 4.3h-52.4c-2.4 0-4.3-1.9-4.3-4.3V113C1126.3 110.6 1128.3 108.6 1130.7 108.6zM1130.7 150.9l39.4.1c2.4 0 4.3 1.9 4.3 4.3v1.9c0 2.4-2 4.3-4.3 4.3l-39.4-.1c-2.4 0-4.3-1.9-4.3-4.3v-1.9C1126.3 152.8 1128.3 150.9 1130.7 150.9zM1130.7 130.3h27.9c2.4 0 4.3 1.9 4.3 4.3v1.9c0 2.4-1.9 4.3-4.3 4.3h-27.9c-2.4 0-4.3-1.9-4.3-4.3v-1.9C1126.3 132.3 1128.3 130.3 1130.7 130.3z" class="colorcbc7f8 svgShape"></path><path fill="#ffffff" d="M1431.3,115.9l-35,9.3l13.5-33.5c-11.8-4.7-25.7-3.2-36.3,5.4c-15.6,12.6-17.9,35.4-5.3,51
					c12.6,15.6,35.5,17.9,51,5.3C1430.6,144.1,1434.9,129.3,1431.3,115.9z" class="colorffffff svgShape"></path><path fill="#6c649f" d="M1429.2,98.3c-4-5-9.2-8.4-14.7-10.7l-13.4,33.5l35-9.3C1434.8,107,1432.6,102.4,1429.2,98.3z" class="color68649f svgShape"></path><path fill="#cec7f8" d="M1352.1 230.2h75.5v39.3h-75.5V230.2zM1262.3 114.1c-40.1 3.2-71.6 36.7-71.6 77.5 0 43 34.8 77.8 77.8 77.8 36.3 0 66.6-24.8 75.3-58.4l-73.2-22.3 0 0L1262.3 114.1z" class="colorcbc7f8 svgShape"></path><path fill="#ffffff" d="M1272.6,103.4c-2.1,0-4.2,0.2-6.3,0.3l8.3,74.7l70-26.3C1333.2,123.6,1305.3,103.4,1272.6,103.4z" class="colorffffff svgShape"></path><path fill="#6c649f" d="M1346.4,157.8l-70,26.3l73.2,22.3c1.6-6.2,2.5-12.7,2.5-19.4C1352.1,176.7,1350.1,166.8,1346.4,157.8z" class="color68649f svgShape"></path></g><g fill="#000000" class="color000000 svgShape"><path fill="#6352cd" d="M731.1,892c16.1-25.5,40.9-36.4,60.7-26.3c25.9,13.2,23.3,43.8,7.1,69.3c-16.1,25.5-40.6,38.9-65.6,22.9
					C714.7,945.9,715,917.4,731.1,892z" class="colorcd525b svgShape"></path><path fill="#7765e6" d="M724.9,888.1c16.1-25.5,43.8-36.9,61.8-25.5c18,11.4,19.6,41.3,3.4,66.8c-16.1,25.5-43.8,36.9-61.8,25.5
					C710.3,943.4,708.8,913.5,724.9,888.1z" class="colore6656f svgShape"></path><path fill="#ffffff" d="M745.7,926.4l2.3-3.6c-1.6-1.4-2.8-2.7-3.6-4c-0.8-1.3-1.1-2.8-1.1-4.6c0-1.8,0.5-3.7,1.6-5.6l4,1.6
						c-0.9,2.1-1.3,3.8-1.2,5.1c0.2,1.9,1,3.4,2.3,4.4l7.2-11.3c-1.3-1.2-2.4-2.7-3.4-4.6c-0.7-1.4-1.1-2.8-1-4.3
						c0.1-1.5,0.6-3,1.5-4.4c1.6-2.5,3.8-4,6.6-4.5c1.9-0.3,4.1,0.2,6.6,1.4l1.1-1.7l2.1,1.3l-1.1,1.7c1.9,1.5,3.2,3.2,3.8,4.9
						c0.7,2.3,0.6,4.7-0.6,7.1l-4-1.8c0.7-1.5,0.9-2.9,0.7-4.1c-0.2-1.2-0.8-2.2-1.8-3.2l-6.5,10.3c1.5,1.6,2.5,2.7,2.9,3.3
						c0.8,1.2,1.3,2.4,1.6,3.5c0.3,1.1,0.3,2.3,0,3.5c-0.2,1.2-0.7,2.4-1.4,3.5c-1.6,2.5-3.7,4-6.3,4.7c-2.6,0.7-5.2,0.3-7.8-1.2
						l-2.3,3.6L745.7,926.4z M765.5,895.2c-1.5-0.7-3-0.8-4.3-0.4c-1.4,0.4-2.4,1.2-3.2,2.4c-0.8,1.2-1.1,2.4-0.9,3.7
						c0.2,1.3,0.9,2.6,2.2,4.2L765.5,895.2z M752,921.2c1.5,0.7,3,0.8,4.6,0.4c1.6-0.5,2.8-1.4,3.8-3c0.8-1.3,1.2-2.5,1-3.7
						c-0.1-1.2-1-2.7-2.5-4.5L752,921.2z" class="colorffffff svgShape"></path><path fill="none" d="M745.7,926.4l2.3-3.6c-1.6-1.4-2.8-2.7-3.6-4c-0.8-1.3-1.1-2.8-1.1-4.6c0-1.8,0.5-3.7,1.6-5.6l4,1.6
						c-0.9,2.1-1.3,3.8-1.2,5.1c0.2,1.9,1,3.4,2.3,4.4l7.2-11.3c-1.3-1.2-2.4-2.7-3.4-4.6c-0.7-1.4-1.1-2.8-1-4.3
						c0.1-1.5,0.6-3,1.5-4.4c1.6-2.5,3.8-4,6.6-4.5c1.9-0.3,4.1,0.2,6.6,1.4l1.1-1.7l2.1,1.3l-1.1,1.7c1.9,1.5,3.2,3.2,3.8,4.9
						c0.7,2.3,0.6,4.7-0.6,7.1l-4-1.8c0.7-1.5,0.9-2.9,0.7-4.1c-0.2-1.2-0.8-2.2-1.8-3.2l-6.5,10.3c1.5,1.6,2.5,2.7,2.9,3.3
						c0.8,1.2,1.3,2.4,1.6,3.5c0.3,1.1,0.3,2.3,0,3.5c-0.2,1.2-0.7,2.4-1.4,3.5c-1.6,2.5-3.7,4-6.3,4.7c-2.6,0.7-5.2,0.3-7.8-1.2
						l-2.3,3.6L745.7,926.4z"></path><path fill="#ffffff" d="M793.5,882.2c-2.1-5.6-5.6-10.3-10.5-13.5c-15.8-10-39.9-0.1-53.8,22c-14,22.1-12.6,48.1,3.2,58.1
					c15.8,10,39.9,0.1,53.8-22C795.7,911.6,798,894.6,793.5,882.2z M792.1,882.8c4.3,11.9,2,28.4-7.3,43.2
					c-13.6,21.4-36.8,31-51.8,21.5c-15-9.5-16.3-34.6-2.7-56c13.6-21.4,36.8-31,51.8-21.5C786.8,872.9,790.2,877.4,792.1,882.8z" class="colorffffff svgShape"></path></g><path fill="#ffffff" d="M1390.5,536.4c-35.4,0-65.5,22.8-76.3,54.5c-7.4-3.6-15.6-5.8-24.4-5.8c-31.1,0-56.4,25.2-56.4,56.3
				c0,3.2,0.4,6.4,0.9,9.4h327c0-17.3-14.1-31.4-31.4-31.4c-4.9,0-9.4,1.2-13.5,3.2c-9.4-15.1-26.1-25.2-45.2-25.2
				c-0.8,0-1.6,0.2-2.4,0.2C1460.1,562.6,1428.4,536.4,1390.5,536.4z" enable-background="new" opacity=".733" class="colorffffff svgShape"></path><g fill="#000000" class="color000000 svgShape"><path fill="#b7b2d4" d="M122.4,43.5h172c12.3,0,22.2,9.9,22.2,22.2v99.9c0,12.3-9.9,22.2-22.2,22.2h-172
					c-12.3,0-22.2-9.9-22.2-22.2V65.7C100.2,53.5,110.2,43.5,122.4,43.5z" enable-background="new" opacity=".6" class="colorb4b2d4 svgShape"></path><path fill="#544b90" d="M228.7,67.9c0-4.7,3.8-8.5,8.5-8.5c4.7,0,8.5,3.8,8.5,8.5c0,4.7-3.8,8.5-8.5,8.5
						C232.5,76.4,228.7,72.6,228.7,67.9z" class="color504b90 svgShape"></path><path fill="#7765e6" d="M252.7,67.9c0-4.7,3.8-8.5,8.5-8.5c4.7,0,8.5,3.8,8.5,8.5c0,4.7-3.8,8.5-8.5,8.5
						C256.5,76.4,252.7,72.6,252.7,67.9z" class="colore6656f svgShape"></path><path fill="#ffffff" d="M276.4 67.9c0-4.7 3.8-8.5 8.5-8.5 4.7 0 8.5 3.8 8.5 8.5 0 4.7-3.8 8.5-8.5 8.5C280.2 76.4 276.4 72.6 276.4 67.9zM124.1 93.6h171.4c3.7 0 6.7 3 6.7 6.7v8.7c0 3.7-3 6.7-6.7 6.7H124.1c-3.7 0-6.7-3-6.7-6.7v-8.7C117.5 96.6 120.5 93.6 124.1 93.6zM124.1 126.9h105.7c3.7 0 6.7 3 6.7 6.7v5.9c0 3.7-3 6.7-6.7 6.7H124.1c-3.7 0-6.7-3-6.7-6.7v-5.9C117.5 129.9 120.5 126.9 124.1 126.9z" class="colorffffff svgShape"></path></g></g><g vectornator:layername="Layer 5" fill="#000000" class="color000000 svgShape"><path fill="#a79bf7" d="M1006,590.5c-3.8-1-24.3-14.7-30.3-18.8c-3.9-2.7-16.2-11.4-25.8-15.1c-6.9-2.7-8-4.9-8-6.4
				c-0.1-8.2,30.4,7.4,30.4,7.4c-6.1-3.4-14-14.5-22.1-20.3c-6.9-5-6.8-8.5-5.6-11c2.1-4.5,31.8,20.3,31.8,20.3
				c-5.2-3.9-13.5-17.2-21.4-24.3c-6.7-6-5.7-10.3-3.3-11c6.1-2,32.2,28.5,32.2,28.5s-5.2-13.3-12.4-23.5c-7.2-10.2,0-13.2,3.9-7.9
				c3.8,5.3,27.3,30,27.3,30l0.1-3.9c-3.7-11.7-3.3-20.2,0.6-18c4,2.3,14.5,21.2,15.9,24.8c1.4,3.7,14.6,20.8,14.6,20.8L1006,590.5z
				" class="colorf7a69b svgShape"></path><path fill="#ffffff" d="M1373.1,731.1c0,0,12.1,42.5,28.5,78.9c16.4,36.4,2.6,390,2.6,390h-98l-37.5-239.5l-43.2,239.5h-108.1
				c0,0,48.8-371.2,55.5-408.8c6.7-37.6,19.4-47.3,19.4-47.3L1373.1,731.1z" class="colorffffff svgShape"></path><path fill="#867fb3" d="M1259 912.5c-.3.1-.4.3-.4.6l10.1 48.5c.1.3.3.4.6.4.3-.1.5-.3.4-.6l-10.1-48.5C1259.6 912.6 1259.3 912.4 1259 912.5zM1352.4 797.1c-.3 0-.5.3-.4.5 0 .1.5 4.8.7 6.7.6 5.5 1.2 11.8 1.9 18.9 2 20.3 4 42.9 5.9 67 4.8 61.2 7.8 122 8.5 178.8.5 48-.8 91.3-4.1 128.4 0 .3.2.5.5.5.3 0 .5-.2.5-.4 3.3-37.2 4.6-80.5 4.1-128.5-.6-56.8-3.7-117.7-8.5-178.9-1.9-24.2-3.9-46.7-5.9-67-.7-7.1-2.3-22.5-2.5-23.9-.1-.5-.2-1.6-.2-1.7C1352.9 797.3 1352.7 797.1 1352.4 797.1zM1221.6 761.5c-2.3.1-4.9.2-7.6.5-4 .4-8.2.9-12.6 1.6-3 .5-5.9 1-8.6 1.5-.9.2-3.2.7-3.4.7-.3.1-.4.3-.4.6.1.3.3.4.6.4.2 0 2.4-.5 3.4-.7 2.7-.5 5.5-1 8.5-1.5 4.3-.7 8.6-1.2 12.5-1.6 2.7-.3 5.2-.4 7.6-.5.3 0 .5-.3.5-.5C1222.1 761.7 1221.9 761.5 1221.6 761.5zM1252.1 956.1c-.3-.1-.5.1-.6.4l-51.5 240.1c-.1.3.1.5.4.6.3.1.5-.1.6-.4l51.5-240.1C1252.5 956.4 1252.3 956.2 1252.1 956.1z" class="color857fb3 svgShape"></path><path fill="#867fb3" d="M1409.6 978.3l-136 6.6c-.3 0-.5.3-.5.5 0 .3.3.5.5.5l136-6.6c.3 0 .5-.3.5-.5C1410.1 978.5 1409.9 978.3 1409.6 978.3zM1404.8 1170.9l-100.7 3.8c-.3 0-.5.3-.5.5 0 .3.3.5.5.5l100.7-3.8c.3 0 .5-.2.5-.5C1405.4 1171.2 1405.1 1170.9 1404.8 1170.9zM1147.3 981.6c-.3 0-.5.2-.5.5 0 .3.2.5.5.5l116.8 3.3c.3 0 .5-.2.5-.5 0-.3-.2-.5-.5-.5L1147.3 981.6zM1231.3 1175.8l-111.2.2c-.3 0-.5.2-.5.5 0 .3.2.5.5.5l111.2-.2c.3 0 .5-.2.5-.5C1231.8 1176 1231.6 1175.8 1231.3 1175.8z" class="color857fb3 svgShape"></path><path fill="#4429f3" d="M1178.3,834.1l78.9-78.8c3.9-3.9,10.2-3.9,14.1,0l107.7,108c3.9,3.9,3.9,10.2,0,14.1l-78.9,78.8
					c-3.9,3.9-10.2,3.9-14.1,0l-107.7-108C1174.4,844.3,1174.4,838,1178.3,834.1z" class="colorf39029 svgShape"></path><path fill="#7765e6" d="M1208.1,784.9c-1.9,1.9-1.7,5,0.1,7.2l-12.7,12.6l9.3,9.3l32.4-32.3l-9.3-9.3l-12.6,12.6
					C1213,783.2,1209.9,783,1208.1,784.9z" class="colore6656f svgShape"></path><path fill="#412bce" d="M1326.5,809.6l10.4,10.6l-23.9,7.4l-18.2,10.2C1297.1,828.2,1326.5,809.6,1326.5,809.6z" class="colorce6e2b svgShape"></path><path fill="#a79bf7" d="M1334.7,807.8c0,0-18.5,13.2-23.7,14.2c-5.1,1-8.8,9.3-15.9,14.8s-11.4-3.9-11.4-3.9
				c-12.5,12.8-15.4-1.5-15.4-1.5c-6.2,1.5-9.6-3.6-10.5-7.3c-0.9-3.6,2-7.4,2-7.4c-9.2,5.7-11.2-6-11.2-6s19.3-28.7,25.9-34.4
				c6.6-5.7,35.5-19.6,35.5-19.6L1334.7,807.8z" class="colorf7a69b svgShape"></path><path fill="#6b5bcf" d="M1305.5,758.9l30.4,48.1l-4.6,3l-27.1-50.4L1305.5,758.9z" class="colorcf695b svgShape"></path><path fill="#544b90" d="M1247.3,460.8c0,0-49.2,14.9-66.2,29.7s-73.4,117.7-73.4,117.7l-70.7-56.4l-35.5,44.5
				c0,0,112.6,106.2,130.7,101.6c18.2-4.6,52.9-69.2,52.9-69.2s-5.3,96.6-5.9,109.6c-0.6,13,8.8,14.1,8.8,14.1l113.8,1.2l34,57.9
				c0,0,107.7-102.3,109.6-124c3-34.8-33.9-158.4-43.3-196.3c-9.4-37.9-95.3-36.2-95.3-36.2L1247.3,460.8z" class="color504b90 svgShape"></path><path fill="#292543" d="M1234.1,369c-12.5,5.5-21.3,1.8-22.1-10.3c-0.8-12.1,24.3-25.4,33-25c8.6,0.5,14.3,4.1,31.4,3.5
				c17.2-0.7,30.9,13.6,33.3,39.4c2.5,25.9-25.9,45-25.9,45L1234.1,369z" class="color2e2543 svgShape"></path><path fill="#a79bf7" d="M1285.9,401.2c0,0,1.5,41.9,10.5,49.4l-32.3,29.4l-19.2-13.3l3-38.1L1285.9,401.2z" class="colorf7a69b svgShape"></path><path fill="#6b5bcf" d="M1248.1,427.7l35.2-16.1c-9,27.5-36,26-36,26L1248.1,427.7z" class="colorcf695b svgShape"></path><path fill="#a79bf7" d="M1276.9,369.8l3.7,12c3.4-5.9,13.1-7.5,15.5,0.1c2.8,8.9-10,18.2-10,18.2c0.1,15.3-16.5,34.1-40.6,29.6
				c-24.1-4.4-10.2-62.7-10.2-62.7C1244.8,376.5,1276.9,369.8,1276.9,369.8z" class="colorf7a69b svgShape"></path><path fill="#7765e6" d="M1270.5 526.2l-18.2 22.2-2 24.2 21.9-30.1L1270.5 526.2zM1272.4 543.9l-22.3 30.6-2 25 26.4-36.3L1272.4 543.9zM1274.7 564.6l-26.8 36.8-3 36.7 32.6-47.7L1274.7 564.6zM1277.8 592l-32.9 48.2-3.4 42.2 1.2 1.9 37.9-67L1277.8 592zM1280.7 618.9l-37.5 66.3 12.4 19.4 28.8-51L1280.7 618.9zM1284.7 655.3l-28.4 50.3 5.4 8.5 25.3-37.8L1284.7 655.3zM1273.9 488.9l-18.3 1.1-8.3 8.9 7.7 16.8h0l-2.5 31 17.9-21.8-1.1-9.8h0l9.5-16.4L1273.9 488.9z" class="colore6656f svgShape"></path><path fill="#ffffff" d="M1270.3 524.8l-17.9 21.8-.2 1.8 18.2-22.2L1270.3 524.8zM1272.3 542.5l-21.9 30.1-.2 1.9 22.3-30.6L1272.3 542.5zM1274.6 563.2l-26.4 36.3-.2 1.9 26.8-36.8L1274.6 563.2zM1277.6 590.4l-32.6 47.7-.2 2 32.9-48.2L1277.6 590.4zM1280.5 617.2l-37.9 67 .6 1 37.5-66.3L1280.5 617.2zM1284.5 653.5l-28.8 51 .6.9 28.4-50.3L1284.5 653.5z" class="colorffffff svgShape"></path><path fill="#4331b4" d="M1268.9,515.3l-13.9,0.3c-0.3,0-0.5,0.2-0.5,0.5c0,0.3,0.3,0.5,0.5,0.5l13.9-0.3c0.3,0,0.5-0.2,0.5-0.5
					C1269.4,515.5,1269.2,515.2,1268.9,515.3z" class="colorb4313b svgShape"></path><path fill="#867fb3" d="M1264.7,479.1l21,33.6l20.5-56.2l-11.2-9.1L1264.7,479.1z" class="color857fb3 svgShape"></path><path fill="#867fb3" d="M1265.3,478.8l-21,33.6l-11.5-46.9l12.5-4.4L1265.3,478.8z" class="color857fb3 svgShape"></path><g fill="#000000" class="color000000 svgShape"><path fill="#171042" d="M1346.8 540.5c-.3.1-.4.4-.3.6l34.2 119.7-76.2 86.4c-.2.2-.2.5 0 .7.2.2.5.2.7 0l76.4-86.6c.1-.1.1-.3.1-.5l-34.3-120C1347.4 540.5 1347.1 540.4 1346.8 540.5zM1371.2 463.5c-10 5.8-17.2 15.5-21.9 28-2.7 7.3-4.5 15.1-5.5 22.9-.3 2.8-.6 5.3-.7 7.6-.1 1.4-.1 2.5-.1 3.1 0 .3.2.5.5.5.3 0 .5-.2.5-.5 0 0 0-1.6.1-3.1.1-2.3.3-4.8.7-7.6 1-7.7 2.7-15.5 5.4-22.7 4.6-12.3 11.6-21.8 21.4-27.5.2-.1.3-.4.2-.7C1371.7 463.5 1371.4 463.4 1371.2 463.5zM1196.6 539.8c-.3-.1-.5 0-.7.3-2.9 6.6-5.3 21.9-7.4 43.3-1 10.2-1.8 21.1-2.5 32-.2 3.8-.8 14.3-.8 14.5 0 .3.2.5.5.5.3 0 .5-.2.5-.5 0-.2.6-10.7.8-14.5.7-10.9 1.5-21.8 2.5-32 2-21.3 4.5-36.5 7.3-42.9C1196.9 540.2 1196.8 539.9 1196.6 539.8zM1107.7 607.9c-.2.2-.3.5-.1.7l14.1 19.2c.2.2.5.3.7.1.2-.2.3-.5.1-.7l-14.1-19.2C1108.2 607.8 1107.9 607.7 1107.7 607.9zM1191.1 483.3c-.3 0-.5.3-.4.6 0 .1 3.1 27 3.2 27.5 1.6 13.2 2.6 21.9 3 24 .1.3.3.5.6.4.3 0 .5-.3.4-.6-.4-2.1-1.5-10.8-3-23.9-.1-.5-3.2-27.3-3.2-27.4C1191.6 483.4 1191.3 483.2 1191.1 483.3z" class="color131042 svgShape"></path><path fill="#171042" d="M1290 586.5c-.2.2-.2.5 0 .7.1.1.9 1.1 1.3 1.5 1.1 1.2 2.3 2.5 3.6 3.8 3.8 4 7.8 8 11.9 11.7 3.2 2.9 6.2 5.5 9.2 7.8.7.6 1.5 1.1 2.2 1.7 6 4.4 10.9 9 15 13.7 1.4 1.6 2.7 3.1 3.7 4.5.3.5.6.9.9 1.3.2.2.3.4.3.4.1.2.5.3.7.2s.3-.5.2-.7c-.1-.1-.2-.2-.3-.4-.3-.4-.5-.8-.9-1.3-1-1.4-2.3-2.9-3.7-4.6-4.1-4.7-9.2-9.4-15.2-13.8-.7-.5-1.4-1.1-2.2-1.7-2.9-2.2-5.9-4.8-9.1-7.7-4.1-3.7-8.1-7.7-11.9-11.6-1.3-1.4-2.5-2.7-3.6-3.8-.4-.4-1.3-1.4-1.3-1.5C1290.5 586.3 1290.2 586.3 1290 586.5zM1383.1 659.6c-.3-.1-.5 0-.6.3-.1.3.1.5.3.6l24.2 7.6c.3.1.5 0 .6-.3.1-.3-.1-.5-.3-.6L1383.1 659.6zM1180.9 607.2c-.3.1-.5.3-.4.6 0 .1 1.9 9.7 2 9.9 1 5 1.7 8.2 1.9 9.1.1.3.4.4.6.4.3-.1.4-.4.3-.6-.2-.8-.9-4.1-1.9-9 0-.2-1.9-9.7-1.9-9.9C1181.4 607.4 1181.2 607.2 1180.9 607.2z" class="color131042 svgShape"></path></g><g fill="#000000" class="color000000 svgShape"><path fill="#6b5bcf" d="M1313.4 804.5c-.1.1-1.7.8-2.3 1.2-1.7.9-3.4 1.8-5 2.6-.4.2-.7.4-1.1.6-1.3.7-2.4 1.3-3.3 1.9-1.6 1-4.5 4.1-8.4 8.9-.4.5-.9 1.1-1.3 1.7-1.9 2.4-3.8 4.9-5.7 7.4-.7.9-2.5 3.3-2.5 3.4-.2.2-.1.5.1.7s.5.1.7-.1c0 0 1.8-2.5 2.5-3.4 1.9-2.5 3.8-5.1 5.7-7.4.5-.6.9-1.1 1.3-1.7 3.8-4.7 6.7-7.8 8.1-8.7.9-.6 2-1.2 3.3-1.9.3-.2.7-.4 1.1-.6 1.6-.9 3.3-1.8 5-2.6.6-.3 2.1-1.1 2.3-1.2.3-.1.3-.4.2-.7S1313.6 804.4 1313.4 804.5zM1307.8 793.4c-.1 0-1 .4-1.3.5-1 .4-2.2 1-3.4 1.6-3.6 1.7-7.1 3.7-10.5 5.9-1.6 1.1-3.1 2.2-4.5 3.3-1.6 1.2-3.2 2.9-5.1 5-1.8 2-3.7 4.3-5.6 6.9-2.3 3.1-4.6 6.5-6.7 9.9-.8 1.2-2.4 3.9-2.6 4.2-.1.2-.2.3-.2.3-.1.2-.1.5.2.7.2.1.6 0 .7-.2 0-.1.5-.9.8-1.2.6-1 1.3-2 2-3.2 2.1-3.3 4.4-6.7 6.7-9.8 1.9-2.6 3.7-4.9 5.5-6.8 1.8-2 3.5-3.6 5-4.8 1.4-1.1 2.9-2.2 4.4-3.2 3.3-2.2 6.8-4.1 10.4-5.8 1.2-.6 2.4-1.1 3.4-1.6.4-.2 1.2-.5 1.3-.5.3-.1.4-.4.3-.6C1308.4 793.5 1308.1 793.3 1307.8 793.4zM1300.9 781.6c-.1 0-.9.3-1.3.4-1 .4-2.1.8-3.3 1.3-3.4 1.4-6.7 3-9.8 4.8-1.8 1-3.5 2.1-5 3.3-2.3 1.7-5.2 4.5-8.5 8.1-1.1 1.2-2.2 2.4-3.3 3.8-2.6 3-5.2 6.2-7.7 9.4-.9 1.1-3.2 4.2-3.3 4.3-.2.2-.1.6.1.7.2.2.5.1.7-.1 0-.1 2.4-3.1 3.3-4.3 2.5-3.2 5.1-6.4 7.6-9.4 1.1-1.3 2.2-2.6 3.3-3.8 3.3-3.6 6.1-6.3 8.3-8 1.5-1.1 3.2-2.2 4.9-3.2 3.1-1.8 6.4-3.4 9.7-4.8 1.2-.5 2.3-.9 3.2-1.2.3-.1 1.2-.4 1.2-.4.3-.1.4-.4.3-.6C1301.4 781.6 1301.2 781.5 1300.9 781.6z" class="colorcf695b svgShape"></path><path fill="#6b5bcf" d="M1264.5 810.6c-.2-.2-.5-.1-.7.1-.2.2-.1.5.1.7.2.1.4.3.8.6.6.5 1.2 1.1 1.8 1.7 1.8 1.9 2.8 3.8 2.5 5.6 0 0 0 .1 0 .2-.9 4.1-5.1 9.8-6.9 9.6-.3 0-.5.2-.6.5 0 .3.2.5.5.5 2.5.2 7-5.8 8-10.4 0-.1 0-.1 0-.2.4-2.1-.7-4.3-2.8-6.4-.6-.6-1.3-1.2-1.9-1.8-.2-.2-.4-.4-.6-.5C1264.7 810.7 1264.6 810.7 1264.5 810.6zM1276.3 821.1c-.3-.1-.6 0-.7.2-.1.2 0 .5.2.7.2.1.4.2.8.4.6.4 1.2.8 1.7 1.3 1.6 1.4 2.4 2.8 2.3 4.3-.3 3.8-3.2 8.8-5.5 9.2-.3 0-.5.3-.4.6.1.3.3.4.6.4 2.9-.5 6.1-5.8 6.4-10.1.1-1.9-.9-3.6-2.7-5.1-.6-.5-1.2-1-1.8-1.3-.2-.1-.4-.2-.6-.3C1276.4 821.2 1276.3 821.1 1276.3 821.1zM1292.2 823.4c-.2-.1-.6-.1-.7.2-.2.2-.1.5.2.7.2.1.4.3.8.5.6.4 1.1.8 1.7 1.3 1.4 1.3 2.3 2.5 2.3 3.6 0 .3 0 .7-.2 1-1.5 3.2-4 6.1-5.3 6.4-.3.1-.4.3-.4.6.1.3.3.5.6.4 1.8-.3 4.4-3.5 6-7 .2-.5.3-.9.3-1.4-.1-1.4-1-2.9-2.6-4.3-.6-.5-1.2-1-1.8-1.4C1292.8 823.8 1292.2 823.4 1292.2 823.4zM1256.2 800.4c-.2-.2-.5-.1-.7.1-.2.2-.1.5.1.7.1.1.4.3.7.5.5.4 1 .9 1.5 1.5 1.1 1.3 1.9 2.7 2.1 4.1.5 3.4-1.8 8.7-4.1 9.5-.3.1-.4.4-.3.6.1.3.4.4.6.3 2.8-1 5.3-6.7 4.7-10.6-.2-1.6-1-3.1-2.3-4.6-.5-.6-1.1-1.1-1.6-1.6-.2-.2-.3-.3-.5-.4C1256.3 800.5 1256.2 800.5 1256.2 800.4z" class="colorcf695b svgShape"></path></g><g fill="#000000" class="color000000 svgShape"><path fill="#6b5bcf" d="M1001.3 516.3c-.3 0-.5.3-.5.5 0 .1 0 .2 0 .4 0 .3.1.6.2 1 .2 1 .5 2 .9 2.9 1.4 3.2 3.9 4.9 7.7 4.2.3 0 .5-.3.4-.6-.1-.3-.3-.5-.6-.4-3.3.6-5.4-.8-6.6-3.6-.4-.8-.6-1.8-.8-2.7-.1-.3-.1-.6-.1-.9 0-.2 0-.3 0-.3C1001.9 516.5 1001.6 516.3 1001.3 516.3zM1002.5 536.8c-.3.1-.5.3-.4.6 0 .2.1.4.2.8.2.7.4 1.4.6 2.2.6 2.3 1.2 4.6 2 6.8 1.6 4.6 3.3 7.9 5.1 9.3.2.2.6.1.7-.1s.1-.5-.1-.7c-1.6-1.3-3.3-4.4-4.8-8.8-.7-2.1-1.4-4.4-2-6.7-.2-.8-.4-1.5-.5-2.2-.1-.4-.2-.7-.2-.8C1003.1 536.9 1002.8 536.7 1002.5 536.8z" class="colorcf695b svgShape"></path></g><path fill="#6b5bcf" d="M1288.8,380.7c0,0-0.1,0.1-0.2,0.3c-0.2,0.2-0.3,0.4-0.6,0.7c-0.6,0.7-1.2,1.5-1.7,2.4
				c-1.5,2.5-2.4,5.2-2.5,8.1c0,0.3,0.2,0.5,0.5,0.5c0.3,0,0.5-0.2,0.5-0.5c0.1-2.7,0.9-5.2,2.3-7.6c0.5-0.9,1.1-1.6,1.6-2.3
				c0.3-0.4,0.6-0.7,0.7-0.8c0.2-0.2,0.2-0.5,0-0.7C1289.4,380.5,1289,380.5,1288.8,380.7z" class="colorcf695b svgShape"></path><path fill="#6b5bcf" d="M1291.6,384.8c-0.6,0.1-1.4,0.2-2.3,0.4c-0.3,0.1-0.7,0.1-1,0.2c-0.7,0.2-2.8,0.7-3,0.7
				c-0.3,0.1-0.4,0.4-0.3,0.6c0.1,0.3,0.4,0.4,0.6,0.3c0.2,0,2.2-0.6,2.9-0.7c0.3-0.1,0.7-0.1,1-0.2c0.9-0.2,1.6-0.3,2.2-0.4
				c0.3,0,0.5-0.3,0.4-0.6C1292.1,384.9,1291.9,384.7,1291.6,384.8z" class="colorcf695b svgShape"></path><path fill="#292543" d="M1258.2 377.3c3.1-1.4 6.7-1.3 10.3 0 1.2.4 2.4 1 3.4 1.6.4.2.7.4 1 .6.2.1.3.2.3.2.3.2.4.7.2 1-.2.3-.7.4-1 .1-.2-.2-.6-.4-1.2-.7-1-.6-2-1.1-3.2-1.5-4.4-1.6-8.5-1.3-11.8 1.7-.3.3-.8.3-1 0-.3-.3-.3-.7 0-1C1256.2 378.5 1257.2 377.8 1258.2 377.3zM1235.6 377.1c2.7-1.2 5.9-.9 9.2.5 1.1.5 2.2 1.1 3.1 1.7.3.2.6.4.9.6.2.1.3.2.3.2.3.2.4.7.2 1-.2.3-.6.3-.9.1-.2-.2-.6-.4-1.1-.8-.9-.6-1.9-1.2-2.9-1.6-4-1.7-7.6-1.6-10.5 1.1-.3.2-.7.2-.9-.1s-.3-.7 0-1C1233.8 378.1 1234.7 377.5 1235.6 377.1z" class="color2e2543 svgShape"></path><g fill="#000000" class="color000000 svgShape"><path fill="#ffffff" d="M1264.3,387.9c1.1-1.4,1.4-3.3,0.6-5c-0.2-0.5-0.6-0.9-0.9-1.3c5.3,0.2,10.6,3.4,10.6,3.4
					C1270.5,387.4,1267.2,387.9,1264.3,387.9z" class="colorffffff svgShape"></path><path fill="#292543" d="M1259.5,382.3c1.4-0.6,2.9-0.8,4.5-0.8c0.4,0.4,0.7,0.8,0.9,1.3c0.8,1.7,0.4,3.6-0.6,5
					c-5.1,0-8.5-2.3-8.5-2.3C1256.9,384,1258.1,382.9,1259.5,382.3z" class="color2e2543 svgShape"></path></g><g fill="#000000" class="color000000 svgShape"><path fill="#ffffff" d="M1240.7,388.1c0.8-1.3,0.9-3.1,0.2-4.8c-0.2-0.5-0.5-0.9-0.9-1.3c4.5,0.5,9.1,4,9.1,4
					C1245.9,388,1243.1,388.3,1240.7,388.1z" class="colorffffff svgShape"></path><path fill="#292543" d="M1236.3,382.3c1.1-0.5,2.4-0.6,3.7-0.4c0.3,0.4,0.7,0.8,0.9,1.3c0.8,1.7,0.6,3.5-0.2,4.8
					c-4.3-0.4-7.3-2.8-7.3-2.8C1234.2,383.8,1235.2,382.8,1236.3,382.3z" class="color2e2543 svgShape"></path></g><path fill="#6b5bcf" d="M1252.5 385c.4.1.5.5.3.8 0 .1-.6 1.3-.8 1.8-.6 1.4-1.2 2.8-1.8 4.1-.2.3-.3.7-.5 1-.5 1.1-1 2-1.5 2.8-1.4 2.5-1.8 3.5-1.6 4.2.2.8 1.6 1.2 4.8 1 .4 0 .7.2.7.6 0 .4-.3.7-.7.7-3.8.3-5.8-.3-6.2-1.8-.3-1.2.1-2.3 1.7-5.2.4-.8.9-1.7 1.4-2.7.2-.3.3-.7.5-1 .6-1.3 1.2-2.7 1.8-4 .2-.5.7-1.7.8-1.8C1251.7 385.1 1252.2 384.9 1252.5 385zM1255 405.5c-3.7-.8-12.3-.6-13.3 1.5-1 2.1 2.8 6.7 7.7 6.8 9.4.2 10.8-5.3 10.8-5.3C1261 406.8 1257.3 406.1 1255 405.5z" class="colorcf695b svgShape"></path><path fill="#5342bd" d="M1239.8,405.6c0.1-0.1,0.3-0.1,0.4,0.1c0.1,0.1,0.2,0.2,0.5,0.4c0.4,0.3,0.9,0.7,1.6,1
				c1.9,1,4.4,1.8,7.7,2.2c1.5,0.2,3.1,0.1,4.9-0.3c1.7-0.3,3.5-0.8,5.3-1.4c1.2-0.4,2.2-0.9,2.9-1.2c0.1,0,0.1,0,0.1-0.1
				c0.2-0.1,0.3,0,0.4,0.2c0.1,0.2,0,0.4-0.2,0.4c0,0,0,0-0.1,0.1c-0.7,0.3-1.7,0.8-2.9,1.2c-1.8,0.6-3.6,1.2-5.4,1.5
				c-1.8,0.3-3.5,0.4-5.1,0.2c-3.4-0.4-6-1.2-7.9-2.2c-0.7-0.4-1.2-0.8-1.7-1.1c-0.3-0.2-0.5-0.4-0.5-0.5
				C1239.6,405.9,1239.6,405.7,1239.8,405.6z" class="colorbd5142 svgShape"></path></g><g vectornator:layername="Layer 6" fill="#000000" class="color000000 svgShape"><path fill="#a79bf7" d="M523.6,449.8c-0.5-3.5-1.4-6.5,1.3-10.1c2.7-3.6,4.1-19.4,4.1-19.4c3.7-0.6,8.7-5.9,8.4-19.1
					c-0.3-10.9-8.4-5.6-8.4-5.6c-3.2-11.4-10.1-6.8-10.1-6.8c-3.6-7.7-13.6-2-13.6-2s-1.9-13.2-0.3-21.8c1.9-10.3-1.6-13.5-4.4-12
					c-6.2,3.1-9.6,39.8-9.6,39.8s-5,2.1-9.1,6.6c-4.1,4.6-1.8,39.6-1.8,39.6S524.2,453.2,523.6,449.8z" class="colorf7a69b svgShape"></path><path fill="#6b5bcf" d="M505.3,386.3l-14.5,6.4c-0.3,0.1-0.4,0.4-0.3,0.7c0.1,0.3,0.4,0.4,0.7,0.3l14.5-6.4
						c0.3-0.1,0.4-0.4,0.3-0.7C505.8,386.3,505.5,386.2,505.3,386.3z" class="colorcf695b svgShape"></path><path fill="#6b5bcf" d="M505.6,386.4c-0.2,0.2-0.2,0.5,0,0.7c0.1,0.1,0.2,0.2,0.4,0.5c0.3,0.4,0.6,0.8,0.9,1.2
						c0.9,1.4,1.3,2.9,1.2,4.2c-0.1,0.6-0.3,1.2-0.6,1.7c-0.7,1-2.2,2.4-4.4,4.1c-0.7,0.5-1.4,1.1-2.2,1.6c-1.6,1.1-3.3,2.2-5,3.3
						c-0.6,0.4-2.1,1.3-2.3,1.4c-0.2,0.1-0.3,0.4-0.2,0.6c0,0,0.2,0.8,0.3,1.1c0.2,0.9,0.5,1.8,0.7,2.8c0.4,1.9,0.7,3.8,0.9,5.6
						c0.3,3.6-0.1,6.3-1.2,7.8c-0.2,0.2-0.1,0.5,0.1,0.7s0.5,0.1,0.7-0.1c1.3-1.7,1.7-4.6,1.4-8.4c-0.2-1.8-0.5-3.8-0.9-5.7
						c-0.2-1-0.5-2-0.7-2.8c-0.1-0.2-0.1-0.5-0.2-0.8c0.4-0.3,1.4-0.9,1.9-1.2c1.7-1.1,3.4-2.2,5-3.3c0.8-0.6,1.5-1.1,2.3-1.7
						c2.3-1.7,3.9-3.2,4.7-4.3c0.5-0.7,0.7-1.4,0.8-2.2c0.2-1.6-0.4-3.2-1.3-4.8c-0.3-0.5-0.6-0.9-0.9-1.3c-0.2-0.2-0.3-0.4-0.4-0.5
						C506.1,386.2,505.8,386.2,505.6,386.4z" class="colorcf695b svgShape"></path><path fill="#6b5bcf" d="M498.4 389.6c-.3.1-.4.4-.3.6 0 .1.1.4.3.7.2.5.4 1 .7 1.5.8 1.5 1.7 2.4 2.8 2.3.7 0 1.7-.5 2.8-1.3.4-.2.7-.5 1.1-.8.6-.4 1.2-.9 1.7-1.3.3-.3.6-.5.7-.6.2-.2.2-.5 0-.7-.2-.2-.5-.2-.7 0-.1.1-.4.3-.7.6-.5.5-1.1.9-1.7 1.3-.4.3-.7.5-1 .8-1 .7-1.9 1.1-2.4 1.1-.6 0-1.2-.6-1.9-1.8-.2-.4-.4-.9-.6-1.3-.1-.3-.2-.5-.2-.6C498.9 389.7 498.7 389.5 498.4 389.6zM519 388c-.3 0-.5.2-.6.4 0 .1-.1 1.8-.2 2.4-.1 1.8-.3 3.6-.5 5.3-.4 3.4-.7 5.8-1.1 6.9-.9 2.7-2.3 6-3.8 8.5-2.1 3.6-3.9 5-5.3 3.8-1.2-1-1.6-2.4-1.5-4.2.1-1.2.5-2.5 1-3.9.2-.6.5-1.1.8-1.5.2-.3.3-.5.3-.6 0-.1.1-.1.1-.2l.9-9c0-.3-.2-.5-.4-.6-.3 0-.5.2-.6.4l-.9 8.9c-.1.1-.2.3-.3.5-.3.5-.5 1.1-.8 1.7-.6 1.4-1 2.8-1.1 4.2-.2 2.1.4 3.8 1.8 5 2.2 1.8 4.5 0 6.9-4 1.5-2.6 2.9-6 3.8-8.7.4-1.2.8-3.6 1.2-7.1.2-1.7.3-3.5.5-5.3.1-.6.2-2.3.2-2.4C519.5 388.3 519.3 388 519 388z" class="colorcf695b svgShape"></path><path fill="#6b5bcf" d="M510.6 407.7c-.4 0-.7.1-1 .3-2.1 1.3-3.3 6-1.1 8.3.2.2.5.2.7 0 .2-.2.2-.5 0-.7-1.7-1.8-.7-5.7.9-6.8.2-.2.7-.1 1.3.1.3.1.7.3 1.1.6.3.2.6.3.8.5.2.1.3.2.3.3.2.2.5.2.7-.1.2-.2.2-.5-.1-.7-.1-.1-.2-.2-.4-.3-.3-.2-.6-.4-.9-.6-.4-.3-.8-.5-1.2-.6C511.3 407.8 510.9 407.7 510.6 407.7zM529.2 395.2c-.3-.1-.5.1-.6.4 0 .1-.3 1.5-.4 2.1-.3 1.5-.7 3.1-1 4.5-.2.8-.4 1.6-.5 2.3-.5 2-.9 3.4-1.2 3.9-.3.6-1.7 4.4-2 5.1-1.1 2.6-2.3 4.3-3.8 5-.8.4-2.1-.4-2.9-1.9-1-1.8-1-4.1.2-6.3 1.1-2.2 2.5-4.8 2.5-4.8 0 0-.1 0-.1.1l-.3.1 0 0c.2 0 .4 0 .5-.2 0 0 0 0 0 0 0 0 0 0 .1-.2v0V405v-6.3c0-.3-.2-.5-.5-.5-.3 0-.5.2-.5.5v6.2c-.1.2-1.4 2.7-2.5 4.8-1.3 2.6-1.3 5.2-.2 7.3 1 1.9 2.8 2.9 4.2 2.3 1.8-.8 3.2-2.7 4.4-5.5.3-.8 1.7-4.5 1.9-5 .4-.6.8-2.1 1.3-4.2.2-.7.3-1.5.5-2.3.3-1.5.7-3 1-4.6.1-.5.4-2 .4-2.1C529.6 395.5 529.4 395.2 529.2 395.2zM518.4 405.1c0 .1.1.2.2.3L518.4 405.1 518.4 405.1z" class="colorcf695b svgShape"></path><path fill="#6b5bcf" d="M518.9 411c-1 .4-1.6 1.5-1.9 3.3-.2 1.1-.3 2.2-.3 3.1 0 0 0 0 0 0 0 .3.2.5.5.5s.5-.2.5-.5c0 0 0-1.8.2-2.9.3-1.4.7-2.3 1.3-2.5.8-.3 1.5.1 2.5 1.1 0 0 .6.6.7.7.3.3.5.4.7.6.2.1.6.1.7-.2.1-.2.1-.5-.2-.7-.1-.1-.3-.2-.5-.4-.1-.1-.7-.7-.7-.7C521.2 411.1 520.2 410.6 518.9 411zM528.6 400.8c-.3 0-.5.3-.5.5l.6 6.8c-.1.2-.4.7-.6.9-.5.8-1 1.6-1.4 2.5-.4.8-.7 1.5-1 2.2-.4.9-.6 1.6-.8 2.3-.5 1.8.4 3.1 1.9 4 .4.2.9.4 1.3.5.3.1.5.1.6.2.3 0 .5-.1.6-.4 0-.3-.1-.5-.4-.6-.1 0-.3-.1-.5-.1-.4-.1-.8-.3-1.1-.5-1.2-.6-1.8-1.5-1.4-2.8.2-.7.4-1.4.8-2.2.3-.7.6-1.4 1-2.1.4-.8.9-1.7 1.3-2.5.2-.3.6-1 .6-1 .1-.1.1-.2.1-.3l-.6-6.9C529.1 401 528.8 400.8 528.6 400.8z" class="colorcf695b svgShape"></path><path fill="#6b5bcf" d="M530.2 412.8c-.5-.1-.9 0-1.2.3-1.5 1.2-3 5.2-2.1 6.6.2.2.5.3.7.2.2-.1.3-.5.1-.7-.6-.9.8-4.4 1.9-5.3.2-.2.8 0 1.7.5.3.2.6.4 1 .6.4.3.7.6 1.1.8.2.2.4.3.4.4.2.2.5.1.7-.1.2-.2.2-.5 0-.7-.1-.1-.3-.2-.5-.4-.4-.3-.8-.6-1.2-.9-.4-.3-.7-.5-1-.7C531.2 413.1 530.7 412.9 530.2 412.8zM501.6 371.4c-.1.1-.3.2-.5.4-.4.3-.7.6-1.2.9-.6.4-1.2.8-1.8 1-.4.2-.8.2-1.1.3-.3 0-.5.3-.5.5s.2.5.5.5c.4 0 .9-.1 1.4-.3.6-.3 1.3-.7 2-1.1.4-.3.9-.6 1.3-1 .2-.2.4-.3.5-.4.2-.2.2-.5 0-.7C502.1 371.2 501.8 371.2 501.6 371.4z" class="colorcf695b svgShape"></path><path fill="#292543" d="M309.6,413.8c0,0-14.2-10.9-22-30.5c-7.8-19.6,0.8-37.9,11.7-41.5c10.9-3.6,16.6-7.7,26.6-15.1
				c10-7.4,36.7,14.4,41.8,25.8c5.1,11.5-12.7,17.2-12.7,17.2L309.6,413.8z" class="color2e2543 svgShape"></path><path fill="#ffffff" d="M380.1,463.1c0,0,34.3,14,45.6,51.5c11.3,37.6,14.6,45.9,14.6,45.9l35.3-124l53.5,11
				c0,0-14.2,220.3-61,250.8c-28,18.3-99.3-98.4-99.3-98.4L380.1,463.1z" class="colorffffff svgShape"></path><path fill="#7765e6" d="M423.2,755c0,0,73.2,289.2,74.6,315.7c1.5,26.5-28.8,129.3-28.8,129.3l-107.7,0.1l28.8-93.1L357,977.6
				L335.4,1200H226.2c0,0-0.7-250.4-6.4-307.5c-5.6-57.1,44-130.6,44-130.6L423.2,755z" class="colore6656f svgShape"></path><path fill="#412fb0" d="M382.2,852.7c-0.3-0.1-0.5,0.1-0.6,0.4L357,971.3c-0.1,0.3,0.1,0.5,0.4,0.6c0.3,0.1,0.5-0.1,0.6-0.4
				l24.6-118.3C382.6,853,382.4,852.7,382.2,852.7z" class="colorb02f39 svgShape"></path><path fill="#867fb3" d="M297.1,451.4l-54,30.9l-38.4,191.1l60.8,92.1l159.4-8.7c0,0,6.1-107.8-19.3-197c-2.3-8.1-18.5-35-21.6-52.7
				c-4-23.4-3.5-43.5-3.5-43.5l-25.6-11.8C330.5,465.4,297.1,451.4,297.1,451.4z" class="color857fb3 svgShape"></path><path fill="#a79bf7" d="M248.9,865.3l4,9.9l-0.9,10.5c38.2-19.6,59.7-48.4,59.7-48.4l-10.8-8.1L248.9,865.3z" class="colorf7a69b svgShape"></path><path fill="#ffffff" d="M146.2 676.6c-3 26.3 98.8 196.3 98.8 196.3l61.2-46.2L235.1 675c0 0 51.9-139.4 39.3-179s-54.2-.6-61.9 9.8C204.8 516.3 149.2 650.3 146.2 676.6zM296.4 451.2l-8.8 5.6 32.4 51.4 22.3-25.6L296.4 451.2z" class="colorffffff svgShape"></path><path fill="#a79bf7" d="M304.2,400.2c0,0-1.9,44.7-7.6,51.5l45.2,30.6l16.6-30c0,0-13.7-4.9-12-28.9
				C346.5,423.4,302,403.2,304.2,400.2z" class="colorf7a69b svgShape"></path><path fill="#6b5bcf" d="M346.3,426.9c0,0,0,2.5,0.2,5.2c0.2,2.7,1,5.5,1,5.5c-28,2.1-43.2-30.8-43.2-30.8L346.3,426.9z" class="colorcf695b svgShape"></path><path fill="#a79bf7" d="M349,425.9c-11.5,9.5-33.2-5.7-40.6-13.7c-7.4-8.1-7.5-16.4-7.5-16.4c-15.3-3.4-11.1-19-6-21.7
				c8.3-4.5,11.3,7.5,14.8,7.1c3.6-0.5,2.1-8.9,6.8-15.5c4.7-6.7,39.7-0.9,39.7-0.9C361.7,383,360.4,416.4,349,425.9z" class="colorf7a69b svgShape"></path><path fill="#6b5bcf" d="M300.7,377.9c-0.3-0.3-0.8-0.4-1.1-0.1c-0.3,0.3-0.3,0.7-0.1,1c1,1.1,1.4,3.1,1.2,5.6
				c-0.1,1.2-0.2,2.4-0.5,3.7c-0.1,0.4-0.2,0.8-0.3,1.1c-0.1,0.2-0.1,0.4-0.1,0.5c-0.1,0.4,0.1,0.8,0.5,0.9c0.4,0.1,0.8-0.1,0.9-0.5
				c0-0.1,0.1-0.3,0.2-0.5c0.1-0.4,0.2-0.8,0.3-1.2c0.3-1.3,0.5-2.6,0.6-3.9C302.5,381.8,302.1,379.4,300.7,377.9z" class="colorcf695b svgShape"></path><path fill="#6b5bcf" d="M297.9,380c-0.3-0.3-0.8-0.3-1.1,0c-0.3,0.3-0.3,0.8,0,1.1c0.1,0.1,0.4,0.4,0.7,0.7c0.5,0.5,1,1.1,1.4,1.6
				c0.4,0.5,0.7,0.9,1,1.3c0.4,0.6,0.7,1,0.7,1.2c0,0.4,0.4,0.8,0.8,0.8c0.4,0,0.7-0.4,0.7-0.8c0-0.5-0.4-1.2-0.9-2
				c-0.3-0.4-0.7-0.9-1.1-1.4c-0.5-0.6-0.9-1.1-1.5-1.7C298.3,380.4,298.1,380.1,297.9,380z" class="colorcf695b svgShape"></path><path fill="#292543" d="M332.4 375.4c-3.2-1.5-6.9-1.3-10.6 0-1.3.5-2.5 1-3.5 1.6-.4.2-.7.4-1 .6-.2.1-.3.2-.4.2-.3.2-.4.7-.2 1.1.2.3.7.4 1 .1.2-.2.7-.4 1.3-.8 1-.6 2.1-1.1 3.3-1.5 4.5-1.6 8.7-1.3 12.2 1.7.3.3.8.3 1 0 .3-.3.3-.8 0-1C334.5 376.6 333.5 375.9 332.4 375.4zM355.8 375.2c-2.8-1.3-6.1-1-9.5.5-1.2.5-2.3 1.1-3.2 1.8-.3.2-.6.5-.9.7-.2.1-.3.2-.3.3-.3.3-.4.7-.2 1s.6.3.9.1c.2-.2.6-.4 1.2-.8.9-.6 1.9-1.2 3-1.7 4.1-1.8 7.9-1.7 10.8 1.1.3.3.7.2.9-.1.3-.3.3-.8 0-1C357.6 376.2 356.7 375.6 355.8 375.2z" class="color2e2543 svgShape"></path><path fill="#ffffff" d="M326.1,386.3c-1.1-1.4-1.4-3.4-0.6-5.2c0.2-0.5,0.6-1,1-1.4c-5.4,0.2-10.9,3.5-10.9,3.5
					C319.7,385.8,323.1,386.3,326.1,386.3z" class="colorffffff svgShape"></path><path fill="#292543" d="M331,380.6c-1.4-0.6-3-0.8-4.6-0.8c-0.4,0.4-0.7,0.8-1,1.4c-0.8,1.8-0.5,3.8,0.6,5.2
					c5.3,0,8.7-2.4,8.7-2.4C333.8,382.3,332.5,381.2,331,380.6z" class="color2e2543 svgShape"></path><path fill="#ffffff" d="M350.5,386.5c-0.8-1.3-1-3.2-0.2-5c0.2-0.5,0.6-1,0.9-1.4c-4.6,0.5-9.4,4.2-9.4,4.2
					C345.1,386.5,348,386.8,350.5,386.5z" class="colorffffff svgShape"></path><path fill="#292543" d="M355.1,380.6c-1.2-0.5-2.5-0.6-3.8-0.4c-0.3,0.4-0.7,0.8-0.9,1.4c-0.8,1.8-0.6,3.7,0.2,5
					c4.5-0.4,7.5-2.9,7.5-2.9C357.3,382.1,356.2,381.1,355.1,380.6z" class="color2e2543 svgShape"></path><path fill="#ffffff" d="M330.1 369.5c-6.1-2.7-13.1 0-15.9 6.1-2.7 6.1 0 13.1 6.1 15.8 6.1 2.7 13.2 0 15.9-6C338.9 379.3 336.1 372.2 330.1 369.5zM329.6 370.5c5.5 2.5 8 8.9 5.5 14.4-2.5 5.5-8.9 7.9-14.4 5.5-5.5-2.5-7.9-8.9-5.5-14.4C317.7 370.6 324.1 368.1 329.6 370.5zM356.2 371c-1.3-.7-2.7-1.1-4.2-1.2-6-.3-11.1 4.7-11.5 11.4-.4 6.6 4.2 12.3 10.2 12.6 6 .3 11.2-4.8 11.5-11.4C362.4 377.5 360 373.1 356.2 371zM355.7 372c3.4 1.8 5.7 5.8 5.4 10.3-.3 6-5 10.6-10.4 10.3-5.4-.3-9.5-5.4-9.2-11.4.3-6 5-10.6 10.4-10.3C353.2 371 354.5 371.4 355.7 372z" class="colorffffff svgShape"></path><path fill="#ffffff" d="M315.4 373.6l-11.7 1.3c-.3 0-.6.3-.5.6s.3.5.6.5l11.7-1.3c.3 0 .5-.3.5-.6C316 373.8 315.7 373.6 315.4 373.6zM342 375.3l-6 .1c-.3 0-.6.3-.6.6 0 .3.3.6.6.6l6-.1c.3 0 .6-.3.6-.6C342.5 375.6 342.3 375.3 342 375.3z" class="colorffffff svgShape"></path><path fill="#6b5bcf" d="M337.3,381.3c-0.4,0.1-0.5,0.5-0.4,0.8c0,0.1,0.6,1.4,0.8,1.9c0.6,1.4,1.3,2.9,1.9,4.2
				c0.2,0.4,0.3,0.7,0.5,1c0.5,1.1,1,2.1,1.5,2.9c1.4,2.6,1.8,3.6,1.6,4.3c-0.2,0.8-1.7,1.2-5,1c-0.4,0-0.7,0.2-0.7,0.6
				c0,0.4,0.3,0.7,0.7,0.7c3.9,0.3,6-0.3,6.4-1.9c0.3-1.2-0.1-2.4-1.8-5.3c-0.4-0.8-0.9-1.7-1.5-2.8c-0.2-0.3-0.3-0.7-0.5-1
				c-0.6-1.3-1.3-2.8-1.9-4.2c-0.2-0.5-0.8-1.8-0.8-1.9C338.2,381.4,337.7,381.2,337.3,381.3z" class="colorcf695b svgShape"></path><path fill="#292543" d="M348.7 404.6c2 .9 6.4 2.3 6.4-1-.1-3.3-11.4-5.1-12.8-4.9-1.5.2-1.5 3.1-1.5 3.1C341.6 405.3 346.8 403.8 348.7 404.6zM330.9 405.7c-2.4.9-7.8 2.4-7.3-1 .5-3.4 14-5.3 15.7-5.1 1.7.2 1.3 3.1 1.3 3.1C339.1 406.3 333.3 404.8 330.9 405.7z" class="color2e2543 svgShape"></path><path fill="#6b5bcf" d="M334.3,405.7c3.9-0.9,14.1-1.8,15.1,0.4c1,2.2-1.8,5.6-6.7,7.1c-4.6,1.3-12.4-5.4-12.4-5.4
				C329.5,405.9,331.9,406.3,334.3,405.7z" class="colorcf695b svgShape"></path><path fill="#ffffff" d="M357.9,451.7l9.9,6.5l-3.9,42.4l-22-18.5L357.9,451.7z" class="colorffffff svgShape"></path><path fill="#412fb0" d="M414.6,1069.1c-0.2-0.2-0.5-0.1-0.7,0.2l-23.2,36.3c-0.1,0.2-0.1,0.5,0.2,0.7c0.2,0.1,0.5,0.1,0.7-0.2
				l23.2-36.3C414.9,1069.6,414.8,1069.3,414.6,1069.1z" class="colorb02f39 svgShape"></path><g fill="#000000" class="color000000 svgShape"><path fill="#867fb3" d="M441 559.3c-.3-.1-.5 0-.6.3l-12 37.5c-.1.3.1.5.3.6.3.1.5 0 .6-.3l12-37.5C441.4 559.6 441.2 559.3 441 559.3zM469.2 460.2c-.3-.1-.6.1-.6.4-.1.3.1.5.4.6l57.5 14c.3.1.6-.1.6-.4.1-.3-.1-.5-.4-.6L469.2 460.2zM215.1 651.4c-.2.2-.2.5-.1.7l18.1 22.4c.2.2.5.3.7.1.2-.2.3-.5.1-.7l-18.1-22.4C215.7 651.3 215.3 651.2 215.1 651.4zM294.7 805.7l-61.5 46.1c-.2.2-.3.5-.1.7.2.2.5.3.7.1l61.5-46.1c.2-.2.3-.5.1-.7C295.2 805.5 294.9 805.5 294.7 805.7z" class="color857fb3 svgShape"></path></g><path fill="#402eaf" d="M322.4,818.4c-0.3-0.1-0.6,0-0.7,0.3c-6.4,15.6-19,30.4-36,44.2c-8.9,7.2-18.4,13.6-27.9,19.2
				c-3.3,2-6.4,3.7-9.2,5.1c-1,0.5-1.9,0.9-2.6,1.3c-0.4,0.2-0.8,0.4-0.9,0.4c-0.2,0.1-0.3,0.4-0.2,0.7c0.1,0.2,0.4,0.3,0.7,0.2
				c0.2-0.1,0.5-0.2,0.9-0.4c0.7-0.4,1.6-0.8,2.6-1.3c2.8-1.5,5.9-3.2,9.2-5.2c9.6-5.6,19.1-12.1,28.1-19.3
				c17.2-13.9,29.9-28.8,36.3-44.6C322.8,818.8,322.7,818.5,322.4,818.4z" class="coloraf2e38 svgShape"></path><path fill="#412fb0" d="M427 769.1l-140 6.3c-.3 0-.5.3-.5.5 0 .3.2.5.5.5l140-6.3c.3 0 .5-.2.5-.5C427.5 769.3 427.2 769 427 769.1zM267.7 880.8c-.3 0-.5.2-.5.5 0 .2-1.2 36.8-1.6 49.9-1.3 37.4-2.6 74.8-4.1 109.8-1.7 42.5-3.4 78.3-5 105.3-1.5 25.9-2.9 43.1-4.2 50.4 0 .3.1.5.4.6.3.1.5-.1.6-.4 1.3-7.3 2.7-24.5 4.2-50.5 1.6-27 3.2-62.8 5-105.3 1.4-34.9 2.8-72.3 4.1-109.8.4-13.1 1.6-49.8 1.6-49.9C268.2 881 268 880.8 267.7 880.8z" class="colorb02f39 svgShape"></path><path fill="#ffffff" d="M373.4,461.2c-0.3,0.1-0.4,0.3-0.3,0.6c0,0.1,0.3,1.2,0.4,1.7c0.3,1.3,0.6,2.8,0.8,4.5
				c1.4,8.4,1.7,17.2,0.5,25.4c-2.3,15.1-9.6,25.5-23.3,29.5c-3,0.9-6,1.2-9.2,1c-13.8-1-28.6-12.3-43.5-30.3
				c-5.5-6.7-10.6-13.8-15.2-21c-1.6-2.5-3-4.8-4.3-6.9c-0.4-0.7-1.4-2.5-1.5-2.6c-0.1-0.2-0.4-0.3-0.7-0.2
				c-0.2,0.1-0.3,0.4-0.2,0.7c0.1,0.1,1.1,1.9,1.5,2.6c1.2,2.1,2.7,4.4,4.3,7c4.6,7.2,9.8,14.3,15.3,21
				c15.1,18.2,30.1,29.6,44.2,30.7c3.3,0.2,6.4-0.1,9.5-1c14.1-4.1,21.7-15,24-30.4c1.3-8.3,0.9-17.2-0.5-25.7
				c-0.3-1.7-0.6-3.2-0.9-4.6c-0.1-0.5-0.4-1.6-0.4-1.7C373.9,461.2,373.6,461.1,373.4,461.2z" class="colorffffff svgShape"></path><g fill="#000000" class="color000000 svgShape"><path fill="#ffffff" d="M425.7,722.7l-27.1,28.2l-33.8-22.9L328.1,756l-41.8-23.8l-17.7,14.3l0.5,1l17.3-14.1l41.8,23.8l36.6-28.1
					l33.9,23l26.9-28.1V722.7z" class="colorffffff svgShape"></path><path fill="#ffffff" d="M425.2,700.1l-26.6,27.6l-33.8-22.9l-36.7,28.1l-41.8-23.8l-25.7,20.3l0.3,0.7l25.4-19.8l41.8,23.8l36.7-28
					l33.9,23l26.5-27.8L425.2,700.1z" class="colorffffff svgShape"></path></g><path fill="#402eaf" d="M450.2,1087.4c-0.2,0.2-0.3,0.5-0.1,0.7c0,0.1,0.4,0.6,0.6,0.9c0.5,0.7,1.1,1.5,1.8,2.3
				c1.9,2.4,4.1,4.8,6.5,7c9.7,8.9,20.4,12.7,31.3,8.6c0.3-0.1,0.4-0.4,0.3-0.6c-0.1-0.3-0.4-0.4-0.6-0.3c-10.6,4-20.9,0.3-30.3-8.4
				c-2.4-2.2-4.5-4.5-6.4-6.9c-0.7-0.8-1.2-1.6-1.7-2.3c-0.3-0.4-0.5-0.7-0.6-0.8C450.8,1087.4,450.5,1087.3,450.2,1087.4z" class="coloraf2e38 svgShape"></path></g></g></switch></svg>