<svg xmlns="http://www.w3.org/2000/svg" data-name="Layer 1" viewBox="0 0 1200 1000" id="Planning"><g data-name="Schedule Planning" fill="#000000" class="color000000 svgShape"><circle cx="988.25" cy="264.875" r="95.26" fill="#9e92ed" transform="rotate(-45 988.25 264.875)" class="color92bfed svgShape"></circle><circle cx="988.25" cy="264.875" r="81.986" fill="#ffffff" transform="rotate(-45 988.25 264.875)" class="colorffffff svgShape"></circle><path fill="#9e92ed" d="M1039.979 270.927h-53.291a3.42 3.42 0 0 1-3.319-3.319V202.41a3.319 3.319 0 0 1 6.637 0v61.88h49.973a3.318 3.318 0 1 1 0 6.637Z" class="color92bfed svgShape"></path><path fill="#291991" d="M347 341.2c-11.126-55.828-41.773-96.04-82.571-116.146s-91.356-19.911-142.305 5.465c22.059 111.658 122.784 161.24 224.877 110.682Z" class="color199180 svgShape"></path><path fill="#ffffff" d="m334.312 335.93-195.4-96.626c-.195 0-.195-.196-.195-.39s.195-.196.39-.196l195.791 95.65a.713.713 0 0 1 .39.976c-.195.39-.585.781-.976.586Z" class="colorffffff svgShape"></path><path fill="#ffffff" d="M221.874 279.906a56.477 56.477 0 0 0-17.178 2.733 57.55 57.55 0 0 0-8.003 3.319 58.6 58.6 0 0 0-7.223 4.88.84.84 0 0 1-.976-1.367 38 38 0 0 1 7.613-4.685 46.973 46.973 0 0 1 8.199-3.123 58.122 58.122 0 0 1 17.373-2.147c.195.195.195.195.195.39ZM281.217 308.992a54.043 54.043 0 0 1-8.98-15.226 45.822 45.822 0 0 1-2.538-8.394 67.178 67.178 0 0 1-.976-8.784.78.78 0 1 1 1.562 0 41.449 41.449 0 0 0 .586 8.589 40.753 40.753 0 0 0 2.147 8.394 64.93 64.93 0 0 0 8.199 15.42c.195.196 0 .196 0 0ZM302.104 319.338a56.478 56.478 0 0 0-17.179 2.732 57.55 57.55 0 0 0-8.003 3.319 58.603 58.603 0 0 0-7.223 4.88.84.84 0 0 1-.976-1.366 38 38 0 0 1 7.613-4.685 46.974 46.974 0 0 1 8.2-3.124 58.123 58.123 0 0 1 17.372-2.147c.196.195.196.195.196.39ZM191.617 264.875a54.043 54.043 0 0 1-8.979-15.226 45.822 45.822 0 0 1-2.538-8.393 67.178 67.178 0 0 1-.976-8.785.78.78 0 0 1 1.562 0 41.45 41.45 0 0 0 .586 8.59 40.754 40.754 0 0 0 2.147 8.393 58.58 58.58 0 0 0 8.198 15.421Z" class="colorffffff svgShape"></path><path fill="#3c2ab1" d="M347 341.2c21.668-52.705 17.96-103.263-4.88-142.304s-65.198-66.955-121.807-73.983C177.367 230.324 233.977 327.146 347 341.201Z" class="color2ab19f svgShape"></path><path fill="#ffffff" d="M339.388 329.879 229.682 141.506c0-.195 0-.39.196-.39s.39 0 .39.195l110.486 187.787a.858.858 0 0 1-.195.976.92.92 0 0 1-1.171-.195Z" class="colorffffff svgShape"></path><path fill="#ffffff" d="M276.336 220.954a54.484 54.484 0 0 0-15.811-7.027 48.212 48.212 0 0 0-17.178-1.562.78.78 0 1 1 0-1.561 46.037 46.037 0 0 1 8.98.195 42.21 42.21 0 0 1 8.588 1.952 55.157 55.157 0 0 1 15.421 8.003ZM309.912 278.15a53.314 53.314 0 0 1 .976-17.57 41.656 41.656 0 0 1 2.537-8.393 37.164 37.164 0 0 1 4.1-7.808c.195-.39.78-.39 1.17-.195s.391.78.196 1.17a56.287 56.287 0 0 0-4.294 7.419 40.446 40.446 0 0 0-2.733 8.198 57.721 57.721 0 0 0-1.562 17.374c-.195-.196-.195 0-.39-.196ZM321.624 298.255a54.484 54.484 0 0 0-15.812-7.027 48.212 48.212 0 0 0-17.178-1.562.715.715 0 0 1-.78-.78c0-.586.195-.781.78-.781a46.038 46.038 0 0 1 8.98.195 42.21 42.21 0 0 1 8.589 1.952 48.48 48.48 0 0 1 15.421 8.003ZM259.354 191.869a53.314 53.314 0 0 1 .976-17.569 41.655 41.655 0 0 1 2.537-8.394 37.166 37.166 0 0 1 4.1-7.808c.195-.39.78-.39 1.17-.195s.391.78.196 1.171a56.29 56.29 0 0 0-4.295 7.418 40.446 40.446 0 0 0-2.732 8.199 57.721 57.721 0 0 0-1.562 17.373c-.195 0-.195 0-.39-.195Z" class="colorffffff svgShape"></path><path fill="#5c48db" d="M346.61 341.2c-42.945-37.479-91.746-50.558-136.253-41.578s-84.524 40.017-109.315 91.16c85.695 74.764 195.791 52.51 245.568-49.581Z" class="color48dbc5 svgShape"></path><path fill="#ffffff" d="m333.532 344.52-213.75 42.944c-.195 0-.39 0-.39-.195s0-.39.195-.39l213.554-43.726a1.074 1.074 0 0 1 .976.585c0 .39-.195.781-.585.781Z" class="colorffffff svgShape"></path><path fill="#ffffff" d="M210.162 368.92a56.474 56.474 0 0 0-11.908 12.688 47.975 47.975 0 0 0-4.294 7.613 57.695 57.695 0 0 0-2.733 8.199.805.805 0 0 1-1.562-.39 43.456 43.456 0 0 1 3.124-8.395 49.685 49.685 0 0 1 4.685-7.613 46.834 46.834 0 0 1 12.688-12.102c-.195-.195 0-.195 0 0ZM274.97 355.841a62.35 62.35 0 0 1-16.397-6.442c-2.538-1.561-4.88-3.318-7.223-5.075a37.64 37.64 0 0 1-6.051-6.442.84.84 0 1 1 1.366-.976 44.596 44.596 0 0 0 5.661 6.442 58.02 58.02 0 0 0 6.832 5.27 54.484 54.484 0 0 0 15.812 7.028c.195 0 .195 0 0 .195ZM297.614 351.156a56.474 56.474 0 0 0-11.908 12.688 47.975 47.975 0 0 0-4.294 7.613 57.694 57.694 0 0 0-2.733 8.199.805.805 0 0 1-1.562-.39 43.455 43.455 0 0 1 3.124-8.394 49.685 49.685 0 0 1 4.684-7.613 57.364 57.364 0 0 1 12.689-12.103c.195-.195.195 0 0 0ZM176.977 375.557a62.35 62.35 0 0 1-16.397-6.442c-2.538-1.562-4.88-3.319-7.223-5.075a37.639 37.639 0 0 1-6.051-6.442.84.84 0 1 1 1.366-.976 44.596 44.596 0 0 0 5.661 6.442 58.018 58.018 0 0 0 6.832 5.27 54.484 54.484 0 0 0 15.812 7.028c.195 0 .195 0 0 .195Z" class="colorffffff svgShape"></path><path fill="#cfc8ff" d="M281.997 840.926a13.996 13.996 0 0 1-14.054-14.055V276.783a14.33 14.33 0 0 1 14.25-14.25h661.94a14.33 14.33 0 0 1 14.25 14.25v549.893a14.33 14.33 0 0 1-14.25 14.25Z" class="colorc8e1ff svgShape"></path><path fill="#ffffff" d="M290.782 827.847a9.997 9.997 0 0 1-9.956-9.955V285.567a9.997 9.997 0 0 1 9.956-9.955h644.177a9.997 9.997 0 0 1 9.955 9.955v532.13a9.997 9.997 0 0 1-9.955 9.955H290.782Z" class="colorffffff svgShape"></path><path fill="#563df2" d="M945.11 352.718v-67.15a9.997 9.997 0 0 0-9.956-9.956H290.977a9.997 9.997 0 0 0-9.956 9.955v67.15Z" class="color3d84f2 svgShape"></path><circle cx="353.638" cy="308.406" r="20.692" fill="#ffffff" class="colorffffff svgShape"></circle><path fill="#2d2561" d="M363.984 248.478v55.243a10.15 10.15 0 0 1-20.302 0v-55.243a10.081 10.081 0 0 1 10.15-10.15 10.518 10.518 0 0 1 7.223 2.928 10.162 10.162 0 0 1 2.929 7.222Z" class="color292561 svgShape"></path><circle cx="872.298" cy="308.406" r="20.692" fill="#ffffff" class="colorffffff svgShape"></circle><path fill="#2d2561" d="M882.448 248.478v55.243a10.15 10.15 0 0 1-20.3 0v-55.243a10.081 10.081 0 0 1 10.15-10.15 10.518 10.518 0 0 1 7.222 2.928 10.162 10.162 0 0 1 2.928 7.222Z" class="color292561 svgShape"></path><path fill="#625b8b" d="M419.422 783.535h-99.164V394.492h99.164v95.455H322.21v195.4h97.212Zm-97.212-1.952h95.26v-94.479h-95.26Zm0-293.588h95.26v-91.551h-95.26Z" class="color5b6f8b svgShape"></path><path fill="#625b8b" d="M516.634 783.535H417.47v-98.383h99.164Zm-97.212-1.952h95.26v-94.479h-95.26ZM516.634 489.947H417.47v-95.455h99.164Zm-97.212-1.952h95.26v-91.551h-95.26Z" class="color5b6f8b svgShape"></path><path fill="#625b8b" d="M614.041 783.535h-99.164v-98.383h99.164Zm-97.407-1.952h95.26v-94.479h-95.26ZM614.041 489.947h-99.164v-95.455h99.164Zm-97.407-1.952h95.26v-91.551h-95.26Z" class="color5b6f8b svgShape"></path><path fill="#625b8b" d="M711.254 489.947h-99.165v-95.455h99.165Zm-97.213-1.952h95.26v-91.551h-95.26ZM711.254 783.535h-99.165v-98.383h99.165Zm-97.213-1.952h95.26v-94.479h-95.26Z" class="color5b6f8b svgShape"></path><path fill="#625b8b" d="M808.466 489.947H709.3v-95.455h99.165Zm-97.212-1.952h95.26v-91.551h-95.26ZM808.466 783.535H709.3v-98.383h99.165Zm-97.212-1.952h95.26v-94.479h-95.26Z" class="color5b6f8b svgShape"></path><path fill="#625b8b" d="M905.873 489.947H806.71v-95.455h99.164Zm-97.407-1.952h95.26v-91.551h-95.26ZM905.873 783.535H806.71v-98.383h99.164Zm-97.407-1.952h95.26v-94.479h-95.26Z" class="color5b6f8b svgShape"></path><path fill="#625b8b" d="M905.873 687.104h-1.952v-100.53h1.952v100.53z" class="color5b6f8b svgShape"></path><path fill="#625b8b" d="M905.873 588.526h-1.952V487.995h1.952v100.531zM419.422 588.526h-99.164V487.995h99.164Zm-97.212-1.952h95.26v-96.627h-95.26Z" class="color5b6f8b svgShape"></path><path fill="#625b8b" d="M419.422 687.104h-99.164v-100.53h99.164Zm-97.212-1.952h95.26v-96.626h-95.26Z" class="color5b6f8b svgShape"></path><path fill="#625b8b" d="M516.634 687.104H417.47v-100.53h99.164Zm-97.212-1.952h95.26v-96.626h-95.26Z" class="color5b6f8b svgShape"></path><path fill="#625b8b" d="M516.634 588.526H417.47V487.995h99.164Zm-97.212-1.952h95.26v-96.627h-95.26Z" class="color5b6f8b svgShape"></path><path fill="#625b8b" d="M614.041 588.526h-99.164V487.995h99.164Zm-97.407-1.952h95.26v-96.627h-95.26Z" class="color5b6f8b svgShape"></path><path fill="#625b8b" d="M614.041 687.104h-99.164v-100.53h99.164Zm-97.407-1.952h95.26v-96.626h-95.26Z" class="color5b6f8b svgShape"></path><path fill="#625b8b" d="M711.254 687.104h-99.165v-100.53h99.165Zm-97.213-1.952h95.26v-96.626h-95.26Z" class="color5b6f8b svgShape"></path><path fill="#625b8b" d="M711.254 588.526h-99.165V487.995h99.165Zm-97.213-1.952h95.26v-96.627h-95.26Z" class="color5b6f8b svgShape"></path><path fill="#625b8b" d="M808.466 588.526H709.3V487.995h99.165Zm-97.212-1.952h95.26v-96.627h-95.26Z" class="color5b6f8b svgShape"></path><path fill="#625b8b" d="M808.466 687.104H709.3v-100.53h99.165Zm-97.212-1.952h95.26v-96.626h-95.26Z" class="color5b6f8b svgShape"></path><path fill="#625b8b" d="M905.873 588.526H806.71V487.995h99.164Zm-97.407-1.952h95.26v-96.627h-95.26Z" class="color5b6f8b svgShape"></path><path fill="#625b8b" d="M905.873 687.104H806.71v-100.53h99.164Zm-97.407-1.952h95.26v-96.626h-95.26Z" class="color5b6f8b svgShape"></path><path fill="#2200fc" d="M871.907 465.351v47.045a8.332 8.332 0 0 1-8.393 8.393h-179.59a8.332 8.332 0 0 1-8.393-8.393V465.35a8.332 8.332 0 0 1 8.394-8.394h179.589a8.587 8.587 0 0 1 8.393 8.394Z" class="colorfcc800 svgShape"></path><path fill="#ffffff" d="M853.948 478.04a5.168 5.168 0 0 1-5.075 5.075H698.76a5.168 5.168 0 0 1-5.075-5.076 5.168 5.168 0 0 1 5.075-5.075h150.113a5.168 5.168 0 0 1 5.075 5.075ZM810.223 499.707a5.168 5.168 0 0 1-5.076 5.076H698.76a5.168 5.168 0 0 1-5.075-5.076 5.168 5.168 0 0 1 5.075-5.075h106.387a5.168 5.168 0 0 1 5.076 5.075Z" class="colorffffff svgShape"></path><path fill="#3314fa" d="M880.692 766.162a4.948 4.948 0 0 1-7.028 0l-16.202-16.202-16.397 16.202a4.97 4.97 0 1 1-7.027-7.027l16.202-16.202-16.202-16.202a4.948 4.948 0 0 1 0-7.028 5.2 5.2 0 0 1 7.027 0l16.397 16.202 16.202-16.202a4.948 4.948 0 0 1 7.028 0 4.704 4.704 0 0 1 1.366 3.514 5.011 5.011 0 0 1-1.366 3.514l-16.202 16.202 16.202 16.202a4.948 4.948 0 0 1 0 7.027Z" class="colorfa5814 svgShape"></path><path fill="#5c48db" d="M358.713 762.258a3.884 3.884 0 0 1-3.123-1.366l-12.884-12.884a4.417 4.417 0 0 1 6.247-6.246l9.76 9.76 32.014-32.014a4.417 4.417 0 1 1 6.246 6.247l-35.137 35.137a3.884 3.884 0 0 1-3.123 1.366ZM553.333 464.18a3.884 3.884 0 0 1-3.124-1.367l-12.883-12.883a4.417 4.417 0 0 1 6.246-6.247l9.76 9.76 32.014-32.013a4.417 4.417 0 0 1 6.247 6.247l-35.137 35.136a4.47 4.47 0 0 1-3.123 1.367Z" class="color48dbc5 svgShape"></path><path fill="#2200fc" d="M581.637 746.447c-.39.195-.39.78-.39 1.17l2.538 15.032a1.336 1.336 0 0 1-1.952 1.366l-13.47-7.027a1.244 1.244 0 0 0-1.17 0l-13.47 7.027a1.336 1.336 0 0 1-1.952-1.366l2.538-15.031a1.434 1.434 0 0 0-.39-1.171l-10.932-10.737a1.222 1.222 0 0 1 .78-2.147l15.031-2.147a1.297 1.297 0 0 0 .976-.781l6.832-13.664a1.301 1.301 0 0 1 2.343 0l6.832 13.664a1.949 1.949 0 0 0 .976.78l15.031 2.148c.976.195 1.562 1.562.78 2.147Z" class="colorfcc800 svgShape"></path><path fill="#cfc8ff" d="M796.558 617.416a2.669 2.669 0 0 1-2.733 2.733H725.7a2.733 2.733 0 1 1 0-5.466h68.126a2.792 2.792 0 0 1 2.733 2.733ZM796.558 636.936a2.669 2.669 0 0 1-2.733 2.733H725.7a2.733 2.733 0 0 1 0-5.465h68.126a2.669 2.669 0 0 1 2.733 2.732ZM769.23 656.262a2.669 2.669 0 0 1-2.733 2.733h-40.798a2.733 2.733 0 0 1 0-5.466h40.798a2.669 2.669 0 0 1 2.732 2.733ZM503.946 518.837a2.669 2.669 0 0 1-2.733 2.733h-68.127a2.733 2.733 0 0 1 0-5.466h68.127a2.669 2.669 0 0 1 2.733 2.733ZM503.946 538.163a2.669 2.669 0 0 1-2.733 2.732h-68.127a2.733 2.733 0 1 1 0-5.465h68.127a2.792 2.792 0 0 1 2.733 2.733ZM476.617 557.683a2.669 2.669 0 0 1-2.733 2.733h-40.798a2.733 2.733 0 0 1 0-5.466h40.798a2.792 2.792 0 0 1 2.733 2.733Z" class="colorc8e1ff svgShape"></path><path fill="#2d2561" d="M323.576 870.987a9.793 9.793 0 0 1-.586 3.124 1.237 1.237 0 0 1-1.17.976h-56.025a1.25 1.25 0 0 1-1.17-1.562l2.146-8.98 6.833-29.28 22.253 2.342s-1.757 13.08 15.812 18.154c10.736 2.928 12.102 10.541 11.907 15.226Z" class="color292561 svgShape"></path><path fill="#1d1937" d="M302.299 851.076a15.98 15.98 0 0 1-6.442-13.664l-22.253-2.342-3.71 16.006Z" class="color191937 svgShape"></path><path fill="#2d2561" d="M208.795 870.987a9.793 9.793 0 0 1-.585 3.124 1.237 1.237 0 0 1-1.171.976h-56.024a1.25 1.25 0 0 1-1.172-1.562l2.148-8.98 6.832-29.28 22.253 2.342s-1.757 13.08 15.812 18.154c10.736 2.928 12.103 10.541 11.907 15.226Z" class="color292561 svgShape"></path><path fill="#1d1937" d="M187.518 851.076a15.98 15.98 0 0 1-6.442-13.664l-22.253-2.147-3.709 16.007h32.404Z" class="color191937 svgShape"></path><path fill="#7764f0" d="m141.84 629.714 20.106-2.147s-4.1-38.065-5.66-60.904c-.586-9.37-.782-16.202-.196-16.983 2.147-3.124 22.839-47.63 22.839-47.63-1.366-5.466 4.88 19.52-13.079-52.51-2.537.975-25.572 32.794-37.089 80.814-6.051 24.596 13.08 99.36 13.08 99.36Z" class="color464ae4 svgShape"></path><path fill="#3924bd" d="M145.549 559.635c2.147 3.904 6.247 6.247 10.736 7.028-.585-9.37-.78-16.202-.195-16.983 2.147-3.124 22.84-47.63 22.84-47.63l-8.395-33.185c-4.88-3.123-10.931-4.685-12.883 2.342-1.172 3.904 0 8.394.39 12.298a132.128 132.128 0 0 1 .586 17.569c-.195 10.54-2.148 21.277-6.832 30.842-2.148 4.49-4.88 8.59-6.442 13.274-1.757 4.685-2.147 10.15.195 14.445Z" class="color2624bd svgShape"></path><path fill="#f1f0f9" d="m100.066 589.697 12.493 52.705a4.535 4.535 0 0 0 5.466 3.319L259.55 611.56a4.535 4.535 0 0 0 3.318-5.466l-12.493-52.705a4.535 4.535 0 0 0-5.466-3.319l-141.523 34.161a4.921 4.921 0 0 0-3.319 5.466Z" class="colorf0f4f9 svgShape"></path><path fill="#ccc4ff" d="M146.72 643.378c2.733 7.418 29.476-2.147 26.939-9.565a14.293 14.293 0 0 0-26.939 9.565Z" class="colorffd1c4 svgShape"></path><path fill="#ffffff" d="M120.758 612.731a19.152 19.152 0 1 0 14.25-23.034 19.208 19.208 0 0 0-14.25 23.034Z" class="colorffffff svgShape"></path><path fill="#1f00e4" d="M171.316 580.132c-6.832 39.822-8.589 83.938-6.832 130.982 0 0-56.61 92.137-38.065 132.545h73.397s-10.346-63.442 12.103-105.997c24.4-46.263 20.887-149.332 7.222-170.609-14.054-21.277-47.825 13.079-47.825 13.079Z" class="colore44000 svgShape"></path><path fill="#3314fa" d="M183.224 579.741c-8.59 15.812 27.914 80.62 47.044 129.226 3.319 8.394-19.52 92.723 16.007 132.935h73.202s-29.476-48.997-24.791-91.16c5.075-45.874-25.767-174.905-32.795-179.004-26.938-15.226-78.667 8.003-78.667 8.003Z" class="colorfa5814 svgShape"></path><path fill="#7764f0" d="M168.388 537.967c1.757 9.956 2.147 40.603 2.147 40.603 0 6.637 40.798 8.784 69.103 6.832 15.03-.976 26.548-3.318 26.548-6.832-4.295-41.969-1.562-86.866-5.661-112.243-1.171-7.613-2.928-13.47-5.856-16.788-15.422-19.325-81.596-11.907-93.113 3.71-10.932 14.835 3.318 63.831 6.832 84.718Z" class="color464ae4 svgShape"></path><path fill="#3924bd" d="M238.076 507.32c4.49 10.932 9.37 22.449 7.418 33.966-1.952 10.931-9.955 20.301-9.955 31.428a22.206 22.206 0 0 0 4.099 12.493c15.03-.976 26.548-3.319 26.548-6.832-4.295-41.97-1.562-86.866-5.661-112.243l-3.514-2.343c-3.709-2.342-9.37-6.637-13.86-6.832-9.76-.585-12.102 17.373-11.907 24.01.39 9.37 3.514 17.96 6.832 26.353Z" class="color2624bd svgShape"></path><path fill="#ccc4ff" d="M356.175 424.748s13.274-31.037 29.086-16.982-18.154 30.061-18.154 30.061Z" class="colorffd1c4 svgShape"></path><path fill="#7764f0" d="M239.052 440.56s49.778 15.616 70.274 26.548l44.702-44.507 18.154 18.154s-44.702 59.147-59.537 59.733c-15.031.39-63.052-7.027-69.689-23.23-6.832-16.397-3.904-36.698-3.904-36.698Z" class="color464ae4 svgShape"></path><path fill="#ccc4ff" d="M221.289 438.022v-13.86s16.397 1.367 17.568-2.927c2.342-8.199 8.784-59.733-23.034-55.243-32.014 4.685-19.911 50.753-19.911 50.753l1.171 22.449Z" class="colorffd1c4 svgShape"></path><path fill="#c1baf1" d="M204.696 416.94c.586.781 10.15 14.64 16.593 15.617v-8.59c0 .196-9.175-1.17-16.593-7.027Z" class="colorf1c0ba svgShape"></path><path fill="#433a7c" d="M196.302 425.139s14.836 1.366 17.96-4.1c3.122-5.66-1.953-25.767 4.684-25.962s7.808 4.49 9.76 1.562c2.148-2.928 0-10.15 0-10.15s27.524-9.566 16.398-23.23-49.973-15.421-57.586 6.246c-19.716 9.37 8.784 55.634 8.784 55.634Z" class="color7c3a3a svgShape"></path><path fill="#7764f0" d="M931.64 870.987a9.048 9.048 0 0 0 .39 2.733 1.297 1.297 0 0 0 .977.781h48.8a1.064 1.064 0 0 0 .977-1.366l-1.757-7.809-6.051-25.376-19.326 1.952s1.367 11.517-13.664 15.811c-9.37 2.733-10.541 9.175-10.346 13.274Z" class="color464ae4 svgShape"></path><path fill="#3924bd" d="M950.185 853.81a14.096 14.096 0 0 0 5.66-11.908l19.326-1.952 3.318 13.86Z" class="color2624bd svgShape"></path><path fill="#7764f0" d="M1022.8 870.987a9.048 9.048 0 0 0 .391 2.733 1.297 1.297 0 0 0 .976.781h48.802a1.064 1.064 0 0 0 .976-1.366l-1.952-7.809-6.052-25.376-19.325 1.952s1.367 11.517-13.664 15.811c-9.175 2.733-10.346 9.175-10.151 13.274Z" class="color464ae4 svgShape"></path><path fill="#3924bd" d="M1041.345 853.81a14.096 14.096 0 0 0 5.661-11.908l19.326-1.952 3.318 13.86Z" class="color2624bd svgShape"></path><path fill="#1d1937" d="M1006.013 848.539c2.343-8.199-7.808-46.654-14.25-74.569-10.736-45.873 23.034-100.725 23.034-100.725l-11.517-37.48-3.904-64.222-39.04 36.113s-16.203 81.4-18.936 121.612c-2.732 39.237 7.809 66.76-12.102 119.27h76.715Z" class="color191937 svgShape"></path><path fill="#2d2561" d="M1018.311 848.539h67.541c25.962-28.5-18.35-82.377-30.257-106.192-7.027-13.86-7.613-15.421 1.757-62.27 9.565-46.85 2.538-73.593 2.538-73.593l-79.84-13.078 24.011 151.674c8.199 35.137 19.13 55.438 14.25 103.459Z" class="color292561 svgShape"></path><path fill="#ccc4ff" d="M901.188 441.34s-12.883-39.821-30.452-23.033 19.911 34.746 19.911 34.746Z" class="colorffd1c4 svgShape"></path><path fill="#5c48db" d="m988.25 463.204-2.343 11.712-7.027 34.551s-14.25 3.71-29.867 6.442c-13.664 2.343-28.11 3.904-34.551 1.757-11.127-3.904-32.404-65.98-32.404-65.98l20.301-13.664 28.5 48.606c31.038-17.178 57.39-23.424 57.39-23.424Z" class="color48dbc5 svgShape"></path><path fill="#3c2ab1" d="m985.907 474.72-7.027 34.552s-14.25 3.71-29.867 6.442a5.118 5.118 0 0 1 3.124-2.538c1.561-.585 3.318-.585 5.075-1.17a11.08 11.08 0 0 0 5.661-5.857 54.577 54.577 0 0 0 2.538-8.003 95.57 95.57 0 0 1 4.685-10.151 41.951 41.951 0 0 1 6.246-8.004c1.757-1.952 4.88-5.66 7.613-5.66.586-.196 1.367.195 1.952.39Z" class="color2ab19f svgShape"></path><path fill="#5c48db" d="M1060.085 606.29c0 2.927-5.66 5.075-14.25 6.636-27.524 4.88-85.304 2.733-85.304-6.637 0 0-1.172-130.202 26.743-142.89 11.322-5.075 30.647-10.346 50.948 1.757a23.688 23.688 0 0 1 2.733 1.952c24.596 22.839 19.13 139.181 19.13 139.181Z" class="color48dbc5 svgShape"></path><path fill="#3c2ab1" d="M1060.085 606.29c0 2.927-5.66 5.075-14.25 6.636-1.366-3.904-1.171-8.198-2.342-12.103-2.148-7.222-8.98-12.297-15.812-15.616s-14.445-5.27-20.692-9.565c-6.441-4.1-11.712-11.322-10.736-18.935a17.984 17.984 0 0 1 9.565-12.883c4.88-2.733 10.541-3.514 16.202-3.514 3.514 0 7.223.195 10.541-.586 3.514-.78 6.832-3.123 7.808-6.442 1.562-5.66-3.709-10.54-7.417-15.03a38.477 38.477 0 0 1-7.028-12.689 38.891 38.891 0 0 1 .586-25.767c2.147-5.466 8.198-10.736 14.64-12.493 24.4 22.644 18.935 138.986 18.935 138.986Z" class="color2ab19f svgShape"></path><path fill="#ccc4ff" d="M1003.28 459.3v-9.175s-17.763 5.661-21.277-2.342-6.051-50.168 24.01-46.264c30.062 4.1 14.25 42.555 14.25 42.555V459.3c0 5.27-16.983 5.27-16.983 0Z" class="colorffd1c4 svgShape"></path><path fill="#433a7c" d="M1020.263 447.783s-9.37-7.809-7.222-16.593-4.685-11.907-6.052-8.198-5.465-3.905-4.88-7.223c.586-3.514-29.085 6.637-30.647-11.517s23.23-5.466 29.671-9.956 25.377-4.099 31.038 14.055c5.66 18.35-11.908 39.432-11.908 39.432Z" class="color7c3a3a svgShape"></path><path fill="#625b8b" d="M1009.722 557.098H891.623a4.553 4.553 0 0 1-4.1-2.538l-19.325-43.14a4.404 4.404 0 0 1 4.1-6.247h66.174a4.413 4.413 0 0 1 4.1 2.733l18.544 41.188h40.408a7.96 7.96 0 0 1 8.198 8.004Z" class="color5b6f8b svgShape"></path><path fill="#ccc4ff" d="M1003.67 546.556s-21.472-15.811-25.766 5.857c-3.319 16.202 28.695 5.465 28.695 5.465Z" class="colorffd1c4 svgShape"></path><path fill="#5c48db" d="M1097.76 560.611c-12.493 21.863-96.041-.39-96.041-.39l2.342-15.617 66.175.976-29.086-28.304a47.012 47.012 0 0 1-14.25-37.285c.586-6.832 2.733-13.274 8.004-16.592 16.202 6.051 77.496 71.25 62.856 97.212Z" class="color48dbc5 svgShape"></path><path fill="#3314fa" d="M495.552 636.936h-8.394a20.302 20.302 0 0 0-17.568-17.568v-8.394a2.538 2.538 0 0 0-5.076 0v8.394a20.302 20.302 0 0 0-17.568 17.568h-8.394a2.538 2.538 0 1 0 0 5.076h8.394a20.302 20.302 0 0 0 17.568 17.568v8.394a2.538 2.538 0 0 0 5.076 0v-8.394a20.302 20.302 0 0 0 17.568-17.568h8.394a2.538 2.538 0 1 0 0-5.076Zm-13.665 0H469.59V624.64a15.153 15.153 0 0 1 12.297 12.297Zm-17.373-12.102v12.298h-12.298a14.923 14.923 0 0 1 12.298-12.298Zm-12.298 17.373h12.298v12.298a15.393 15.393 0 0 1-12.298-12.298Zm17.374 12.298v-12.298h12.297a15.154 15.154 0 0 1-12.297 12.298Z" class="colorfa5814 svgShape"></path></g></svg>