<svg xmlns="http://www.w3.org/2000/svg" enable-background="new 0 0 600 500" viewBox="18.4 61.12 563.2 377.96" id="DataAnalytics"><path fill="#f5f5f5" d="M556 396.8H44c5.7-20.1 8.9-29 22.4-35.5 6.6-3.2 20.6-9.3 33-3.7 47.2 21.3 58.8-7.1 78.1-12.4 45.9-12.5 47.8 46.9 95.5-1.5 4.3-4.3 9.5-7.7 15.3-9.4 21.3-6.3 35.5 15.5 50.8 6.7 46.9-26.9 64.3 5.8 76.9 18.8 42.9 44.2 89.4-18.8 116.2.1 12.2 8.6 6.6 20.3 23.8 36.9z" class="colorf5f5f5 svgShape"></path><path fill="#ffffff" d="M441.5 113.3v197.8c0 5.2-4.2 9.4-9.4 9.4H141c-5.2 0-9.4-4.2-9.4-9.4V113.3h309.9zm0 0V98.9c0-3.5-2.8-6.4-6.4-6.4H131.6v20.8h309.9z" class="colorffffff svgShape"></path><path fill="#ffffff" d="m206.4 84.2 3.6 8.4h-78.5l2.9-8.4c1.5-3.4 4.9-5.7 8.6-5.7h54.7c3.8.1 7.2 2.3 8.7 5.7zm99.6 0 3.6 8.4h-92.1l3.6-8.4c1.5-3.4 4.9-5.7 8.6-5.7h67.6c3.8.1 7.2 2.3 8.7 5.7z" class="colorffffff svgShape"></path><path fill="#7764f0" d="M408 100.3v5.4c0 1.1-.9 2.1-2.1 2.1H248.6c-1.1 0-2.1-.9-2.1-2.1v-5.4c0-1.1.9-2.1 2.1-2.1H406c1.1 0 2 .9 2 2.1z" class="color67db8a svgShape"></path><path fill="#ffffff" d="m199.3 83.7-4.1 4.2m4.1 0-4.1-4.2m104.9 0-4.2 4.2m4.2 0-4.2-4.2m-95.1 14.7c2.5 0 4.5 2 4.5 4.5s-2 4.5-4.5 4.5-4.5-2-4.5-4.5m59.3 29.1h173.6v88.5H255.6z" class="colorffffff svgShape"></path><path fill="#f5f5f5" d="M429.1 161.2v59.3H255.6v-21.3s6-19.4 21.7-26.9 17.1 21.9 27.7 17.2c10.7-4.7 7.4-30.6 18.7-35.8 11.3-5.2 19.5 22.1 22.4 23.8 3 1.7 9.3-7.7 9.3-7.7s18-23.3 31.2-25.8c13.3-2.5 17.3 23.5 24.3 25.4 7 1.9 9.6-4.1 11.8-7.1 2.3-3 6.4-1.1 6.4-1.1z" class="colorf5f5f5 svgShape"></path><path fill="#ffffff" d="M429.1 181.1v39.4H255.6v-1.3s6-19.4 21.7-26.9 17.1 21.9 27.7 17.2c10.7-4.7 7.4-30.6 18.7-35.8 11.3-5.2 19.5 22.1 22.4 23.8 3 1.7 9.3-7.7 9.3-7.7s18-23.3 31.2-25.8c13.3-2.5 17.3 23.5 24.3 25.4 7 1.9 9.6-4.1 11.8-7.1 2.3-3.1 6.4-1.2 6.4-1.2z" class="colorffffff svgShape"></path><path fill="#7764f0" d="M328.4 154.1c0 2-1.6 3.5-3.5 3.5-2 0-3.5-1.6-3.5-3.5 0-2 1.6-3.5 3.5-3.5 2-.1 3.5 1.5 3.5 3.5zM351 177c0 2-1.6 3.5-3.5 3.5-2 0-3.5-1.6-3.5-3.5 0-2 1.6-3.5 3.5-3.5s3.5 1.6 3.5 3.5zm63.5-8.3c0 2-1.6 3.5-3.5 3.5-2 0-3.5-1.6-3.5-3.5 0-2 1.6-3.5 3.5-3.5 2-.1 3.5 1.5 3.5 3.5zM385.1 147c0 2-1.6 3.5-3.5 3.5-2 0-3.5-1.6-3.5-3.5 0-2 1.6-3.5 3.5-3.5 2 0 3.5 1.6 3.5 3.5zm-79.5 42.2c0 2-1.6 3.5-3.5 3.5-2 0-3.5-1.6-3.5-3.5 0-2 1.6-3.5 3.5-3.5 1.9-.1 3.5 1.5 3.5 3.5zm-24.3-17.6c0 2-1.6 3.5-3.5 3.5-2 0-3.5-1.6-3.5-3.5 0-2 1.6-3.5 3.5-3.5s3.5 1.6 3.5 3.5z" class="color67db8a svgShape"></path><path fill="#ffffff" d="M242.3 196.9v98.2c0 1.4-1.2 2.6-2.6 2.6h-93.2c-1.4 0-2.6-1.2-2.6-2.6v-98.2c0-1.4 1.2-2.6 2.6-2.6h93.2c1.4 0 2.6 1.2 2.6 2.6z" class="colorffffff svgShape"></path><path fill="#7764f0" d="M266.8 246c0 3.1-2.5 5.6-5.6 5.6-3.1 0-5.6-2.5-5.6-5.6 0-3.1 2.5-5.6 5.6-5.6 3.1 0 5.6 2.5 5.6 5.6z" class="color67db8a svgShape"></path><path fill="#f5f5f5" d="M266.8 267.7c0 3.1-2.5 5.6-5.6 5.6-3.1 0-5.6-2.5-5.6-5.6 0-3.1 2.5-5.6 5.6-5.6 3.1 0 5.6 2.5 5.6 5.6z" class="colorf5f5f5 svgShape"></path><path fill="#7764f0" d="M266.8 289.5c0 3.1-2.5 5.6-5.6 5.6-3.1 0-5.6-2.5-5.6-5.6 0-3.1 2.5-5.6 5.6-5.6 3.1 0 5.6 2.5 5.6 5.6z" class="color67db8a svgShape"></path><path fill="#f5f5f5" d="M430.1 244.4v3.3c0 1.1-.9 2-2 2h-149c-1.1 0-2-.9-2-2v-3.3c0-1.1.9-2 2-2h149c1.2 0 2 .9 2 2z" class="colorf5f5f5 svgShape"></path><path fill="#7764f0" d="M380.9 244.4v3.3c0 1.1-.9 2-2 2h-99.8c-1.1 0-2-.9-2-2v-3.3c0-1.1.9-2 2-2h99.8c1.1 0 2 .9 2 2z" class="color67db8a svgShape"></path><path fill="#f5f5f5" d="M430.1 266.1v3.3c0 1.1-.9 2-2 2h-149c-1.1 0-2-.9-2-2v-3.3c0-1.1.9-2 2-2h149c1.2 0 2 .9 2 2z" class="colorf5f5f5 svgShape"></path><path fill="#7764f0" d="M341.1 266.1v3.3c0 1.1-.9 2-2 2h-59.9c-1.1 0-2-.9-2-2v-3.3c0-1.1.9-2 2-2h59.9c1.1 0 2 .9 2 2z" class="color67db8a svgShape"></path><path fill="#f5f5f5" d="M430.1 287.9v3.3c0 1.1-.9 2-2 2h-149c-1.1 0-2-.9-2-2v-3.3c0-1.1.9-2 2-2h149c1.2 0 2 .9 2 2z" class="colorf5f5f5 svgShape"></path><path fill="#7764f0" d="M403 287.9v3.3c0 1.1-.9 2-2 2H279.2c-1.1 0-2-.9-2-2v-3.3c0-1.1.9-2 2-2H401c1.1 0 2 .9 2 2z" class="color67db8a svgShape"></path><path fill="#ffffff" d="M156.5 138.8v43c0 1-.8 1.8-1.8 1.8h-6.4c-1 0-1.8-.8-1.8-1.8v-43c0-1 .8-1.8 1.8-1.8h6.4c1 0 1.8.8 1.8 1.8z" class="colorffffff svgShape"></path><path fill="#7764f0" d="M177 148.1v33.7c0 1-.8 1.8-1.8 1.8h-6.4c-1 0-1.8-.8-1.8-1.8v-33.7c0-1 .8-1.8 1.8-1.8h6.4c1 0 1.8.8 1.8 1.8z" class="color67db8a svgShape"></path><path fill="#ffffff" d="M197.6 139.7v42.1c0 1-.8 1.8-1.8 1.8h-6.4c-1 0-1.8-.8-1.8-1.8v-42.1c0-1 .8-1.8 1.8-1.8h6.4c1 0 1.8.8 1.8 1.8z" class="colorffffff svgShape"></path><path fill="#7764f0" d="M218.1 145.6v36.2c0 1-.8 1.8-1.8 1.8h-6.4c-1 0-1.8-.8-1.8-1.8v-36.2c0-1 .8-1.8 1.8-1.8h6.4c1 0 1.8.8 1.8 1.8z" class="color67db8a svgShape"></path><path fill="#ffffff" d="M238.7 157.1v24.7c0 1-.8 1.8-1.8 1.8h-6.4c-1 0-1.8-.8-1.8-1.8v-24.7c0-1 .8-1.8 1.8-1.8h6.4c1 0 1.8.8 1.8 1.8z" class="colorffffff svgShape"></path><path fill="#e2e1e5" d="M232.1 268.1h-19.4c-.2 0-.4-.2-.4-.4s.2-.4.4-.4h19.4c.2 0 .4.2.4.4s-.2.4-.4.4zm0 18.7h-33.8c-.2 0-.4-.2-.4-.4s.2-.4.4-.4h33.8c.2 0 .4.2.4.4s-.2.4-.4.4z" class="colore1e5e2 svgShape"></path><path fill="#ffffff" d="m194.5 233.1 23.6 3c-.9 4.9-3.3 9.6-7.1 13.4-3.8 3.8-8.4 6.1-13.3 7.1l-3.2-23.5z" class="colorffffff svgShape"></path><path fill="#7764f0" d="m196 230.1 16-16c4.7 5.3 6.9 12.2 6.4 18.8l-22.4-2.8z" class="color67db8a svgShape"></path><path fill="#ffffff" d="m192.6 229-17.1-17.1c9.7-8.7 24.5-8.7 34.3-.1L192.6 229z" class="colorffffff svgShape"></path><path fill="#7764f0" d="m191 232 3.5 24.9c-7.2.5-14.6-2-20.1-7.5-9.7-9.7-10.1-25.1-1.2-35.3L191 232z" class="color67db8a svgShape"></path><path fill="#ffffff" d="m106.8 397.6-.1 16.1 13.5-.8-.9-15.6z" class="colorffffff svgShape"></path><path fill="#ffffff" d="M135.6 420.7c-6.7.3-28.9 1.3-31.6-1.3-1.6-1.5-1.7-3.9-1.1-6 .6-2.2 1.9-4.1 3.1-4.6 1.9-.8 8 1.6 8.1 1.6 0 0 3.2-4.6 4.9-4.7 2.3-.1 5.5 4.5 7.5 5.6 2.3 1.2 8.3 1.4 10 3.2.8.8 1 2.9 1 4.1.1 1.1-.8 2.1-1.9 2.1zm-13.3-13.9-1.7 1.5" class="colorffffff svgShape"></path><path fill="#ffffff" d="M120.9 409.3c-.2.4-.7.6-1.1.4-.4-.2-.6-.7-.4-1.1.2-.4.7-.6 1.1-.4.4.2.5.7.4 1.1zm3.6-.6-1.7 1.6m.2.9c-.2.4-.7.6-1.1.4-.4-.2-.6-.7-.4-1.1.2-.4.7-.6 1.1-.4.4.2.6.7.4 1.1zm3.7-.4-1.6 1.5m.2 1c-.2.4-.7.6-1.1.4-.4-.2-.6-.7-.4-1.1.2-.4.7-.6 1.1-.4.4.2.6.7.4 1.1zM74.1 398l.8 14.9-13.4.8.1-15.7z" class="colorffffff svgShape"></path><path fill="#ffffff" d="M90.4 420.7c-6.7.3-28.9 1.3-31.6-1.3-1.6-1.5-1.7-3.9-1.1-6 .6-2.2 1.9-4.1 3.1-4.6 1.9-.8 8 1.6 8.1 1.6 0 0 3.2-4.6 4.9-4.7 2.3-.1 5.5 4.5 7.5 5.6 2.3 1.2 8.3 1.4 10 3.2.8.8 1 2.9 1 4.1.1 1.1-.8 2.1-1.9 2.1zm-13.3-13.9-1.7 1.5" class="colorffffff svgShape"></path><path fill="#ffffff" d="M75.6 409.3c-.2.4-.7.6-1.1.4-.4-.2-.6-.7-.4-1.1.5-1 2-.3 1.5.7zm3.6-.6-1.6 1.6m.2.9c-.2.4-.7.6-1.1.4-.4-.2-.6-.7-.4-1.1.2-.4.7-.6 1.1-.4.4.2.6.7.4 1.1zm3.7-.4-1.7 1.5m.3 1c-.2.4-.7.6-1.1.4-.4-.2-.6-.7-.4-1.1.2-.4.7-.6 1.1-.4.4.2.5.7.4 1.1z" class="colorffffff svgShape"></path><path fill="#7764f0" d="M61.8 401h13.7c.6 0 1.1-.4 1.2-1l.6-2.9L93 294.5l10.6 103.8c.2 1.5 1.5 2.7 3.1 2.7h13c1.8 0 3.2-1.5 3.1-3.2 0-.1-3.8-154.2-3.8-154.3-3.3.1 15.2-.3-52 1L56.8 395.7c-.2 2.9 2.1 5.3 5 5.3z" class="color67db8a svgShape"></path><path fill="#4634b7" d="M61.8 401h13.7c.6 0 1.1-.4 1.2-1l.6-2.9c-.7-1.4-1.5-2.9-2.1-4.4-4.6-11.3 1-59.2-2.1-71-.7-2.5-1.7-4.9-2.3-7.4-1.2-4.9-.9-10.2 1-14.8 1.5-3.7 4.1-7.3 4.1-11.4 0-2.8-1.3-5.4-2.1-8.1-1.7-5.1-2.1-10.6-1-15.9.5-2.5 1.2-4.9 1.3-7.4.1-3.5-1.4-8.9-4.1-12.5l-2.9.1-10.3 151.4c-.2 2.9 2.1 5.3 5 5.3zm43.2-.5c2.1 1 8.9.7 14.8.6 1.8 0 3.2-1.5 3.1-3.2l-3.6-146.3c-2.7.4-5.3 2.2-6.4 4.8-2.4 6 3 12.6 1.8 18.9-.7 3.5-3.4 6.3-4.6 9.7-2.5 7.3 2.6 14.9 3.2 22.5.4 5.5-1.4 11-1.5 16.5-.1 6.9 2.7 48.4 1.9 55.3-.9 7.7-6.1 13.7-8.7 21.2z" class="color34b75c svgShape"></path><path fill="#7764f0" d="m93 294.5 3.6-13.7" class="color67db8a svgShape"></path><path fill="#ffffff" d="m153.5 204.1-5.1-8.1s2.6-3.2 3-4.2c.1-2.1 1-13.8 3-13.8.6 0 1.8 1.4 1.9 2.9v.4c2.2-4.3 4.7-8.5 7.1-10.7 1-.5 1.6 1.3 1.1 2.7-.1.1-3 5.9-2.8 5.6l-.5 1.3s2.4-1 2.6 1.3c0 0 2.3-.2 1.8 2 3.7 1-1.6 9.6-7 12.5l-5.1 8.1m2.8-22.8-.5 3.2" class="colorffffff svgShape"></path><path fill="#ffffff" d="M165.5 183.4s-1 .7-2.1 3.7m.3-5.7s-1 .7-2.1 3.7m-.5-5.1s-1 .7-2.1 3.7m.5 13.5s-20.4 37.1-32.4 34.2c-3.9-.9-6.9-4.5-9-8.3l2.3 31.7.4 4.1c.7 6.6-56.8 8.9-57.4 2.3l5.1-24.8 3-19.3-17.5-3c10-37.6 37.9-37 37.9-37 28.7-5.1 36.9 34.6 37.4 35.6 3.9-4.5 20.7-21.5 20.7-21.5 2.1 3.4 5.3 5.4 9.5 6z" class="colorffffff svgShape"></path><path fill="#ffffff" d="M105.1 169.4c-1.1 1.8-3.8 2.4-6.7 2.3l.4 4.8-1.5 17.5-9.7-16.4-.8-13.3c-1.3-.3-1.9-1.7-2-3.3-.2-1.9.4-3.8 2.2-4 0-3.3.2-5.7.2-5.7s10.9-10.9 18.6-.6c-.1 0 1.7 14.6-.7 18.7z" class="colorffffff svgShape"></path><path fill="#f5f5f5" d="M120.9 259c.7 6.6-56.8 8.9-57.4 2.3l5.1-24.8c2.7-.7 6.7 1.6 7.6 5.1.3 1.2.2 2.5.6 3.6.8 2.8 4.1 4.8 6.8 3.9 1.6-.5 2.8-1.8 4.5-2.2 2.3-.5 4.4 12.1 6.6 12.7 2.8.8 5.9.2 8.1-1.7.5-.5 1-1 1.5-1.4 1.8-1.2 4.2-.9 6.4-.6 5.4.8 7.3.1 9.9-1.2l.3 4.3z" class="colorf5f5f5 svgShape"></path><path fill="#ffffff" d="M54.2 213.7c-1.7 6.6-2.6 23.6 7.4 24.3 11.8.8 34-11.1 34-11.1l.5-10-24.9 6.8 1-7.5" class="colorffffff svgShape"></path><path fill="#ffffff" d="M108.4 218.7s4.2 1.5.6 2.9c0 0 3.2 2-.4 2.6.5.4.7.7.7 1.1 0 2-7.7 3-12.1 1-.1 0-1.8.9-1.7.9-1-.5-2.7-5.9-1.3-8.5 2.6-1.2 3.2-1.6 4.6-2.1 1.3-2.1 3.3-3.8 5.1-4.8l-.4 3.9c1.2-.1 2.3.1 3.9.3 7 .4 1 2.7 1 2.7z" class="colorffffff svgShape"></path><path fill="#f5f5f5" d="M109.2 225.3c0 2-7.7 3-12.1 1-.1 0-1.8.9-1.7.9-1-.5-2.7-5.9-1.3-8.5.1 0 .2-.1.3-.1 1.6 1.2 1.1 2.7 1.7 3.8.4.7 1.2 1 1.9.8.5-.2.9-.5 1.4-.6.8-.1 1.5.4 2.1 1.1.5.6 1 1.4 1.7 1.8 1.4.7 3-.3 4.5-.4.5-.3 1.1-.1 1.5.2z" class="colorf5f5f5 svgShape"></path><path fill="#ffffff" d="m71.2 223.7-4.7 1" class="colorffffff svgShape"></path><path fill="#f5f5f5" d="M94.2 227.7c-8.1 4.1-23.6 11-32.6 10.4-9-.6-9.7-15.3-7.5-23.9 0-.1.1-.3.1-.4 3.2-11.6 8-19.6 13.2-25 1 1 1.6 2.2 1.2 3.9-.5 1.9-2.4 3.3-3.1 5.1-1.1 2.9.6 6.1 0 9.2-.6 2.8-2.9 4.8-3.9 7.5-.8 1.9-.9 4.4-1 6.3-.1 2.3-.1 4.8 1.2 6.8 1.5 2.3 4.5 3.2 7.3 3.4 3.1.3 7-.4 10.4-2 1.8-.9 3.5-2 5.5-2.4 1.4-.2 2.8-.1 4.2 0 1.6.1 3.4.3 5 1.1z" class="colorf5f5f5 svgShape"></path><path fill="#7764f0" d="M551.9 402.5c0 1.6-1.2 2.8-2.8 2.8l-11.4-.1c-2.5 0-4.6-1.8-4.9-4.3l-.2-.9-13.6-92.7-16.7 92.3-1 4.7c-.1.7-.8 1.2-1.5 1.2H489c-1.7 0-3-1.4-3-3.1 0 0 4.3-127.8 5.7-134v-.1c33.7 1.1-20.4-.7 57.5 1.8.1 32-.1-4 2.7 132.4z" class="color67db8a svgShape"></path><path fill="#3826a8" d="m502.4 399.7-1 4.7c-.1.7-.8 1.2-1.5 1.2h-10.8c-1.7 0-3-1.4-3-3.1 0 0 4.3-127.8 5.7-134 8.2 2.7 10.5 12 7.8 20.5-1.2 3.7-3.2 7.2-3.2 11.1-.1 6.7 5.8 12.8 4.2 19.3-.6 2.4-2.2 4.5-3.3 6.8-1.9 3.7-2.6 8-1.9 12.1.5 3.5 2 22.2 2.6 25.6 1.9 10.1-3 21.1 1.1 30.4.8 1.8 2 3.6 3.3 5.4zm49.5 2.8c0 1.6-1.2 2.8-2.8 2.8l-11.4-.1c-2.5 0-4.6-1.8-4.9-4.3l-.2-.9c1.5-7.2 5.5-10.9 6.1-15 .6-4.2-1.9-8.2-2.2-12.5-.3-4.1 1.4-23.4 1.9-27.4 1.1-9-4.3-18.7.2-29.4.9-2.1 2.2-4.1 2.7-6.3 1.7-6.9-4.1-14.1-2.2-20.9 1.4-4.8 5.9-7.7 8.7-11.6.5-.7.9-1.4 1.4-2v11l2.7 116.6z" class="color26a851 svgShape"></path><path fill="#543bf2" d="M548.9 189.8s13.1 49.5-9.9 47.1c-23-2.4-33-6.7-33-6.7l2.3-9.3h29.1l-3.1-24.7 14.6-6.4" class="colorf28a3b svgShape"></path><path fill="#543bf2" d="m514 180.1 13.7.9 3.7 81.6-35.1-2.2 5.3-67.2 12.4-13.1" class="colorf28a3b svgShape"></path><path fill="#543bf2" d="M514 180.1s-5.8 6.6-7.7 25c-1.9 18.4 3.1 74.2-2.7 75.1s-14.5-2.2-14.5-2.2l3.7-36.2s-.3-41.6 3.1-51.2c4.6-13 18.1-10.5 18.1-10.5z" class="colorf28a3b svgShape"></path><path fill="#ffffff" d="m514 180.1 13.7.8 9 94.3c-.3 4.7-41.3 1.2-41-3.6l5.5-76.7 12.8-14.8" class="colorffffff svgShape"></path><path fill="#ffffff" d="M552.7 282.7c-3.7 8.1-20.3 5.8-24.9 3.2-4.3-2.4-8.3-46.5-8.8-51.6-8.9-1.4-13-2.5-13-2.5.1-1 .2-3.3.2-3.2l.5-7 11.5-.3v-3.4c.3-10.8.8-26.5 9.5-37 .1 0 19-.2 21.3 9 .7 2.6 9 35.9-1.9 44.8l-.1.1c0 4.1.9 4.7 3.8 18.7 2.2 11 4.1 24.3 1.9 29.2z" class="colorffffff svgShape"></path><path fill="#ffffff" d="M507.2 285.2c-4.7 2-14-.4-17.6-1.3-1.1-.3-1.8-1.3-1.7-2.4l4.9-39.6s-.1-11.1.3-23.2c-3.6 3-7.4 5.6-10.5 6.1-9.1 1.3-34.9-16.3-34.9-16.3l5.4-9.6 26.3 7.8c.7.2 1.4 0 1.8-.6l17.7-20.9c5.8-6.7 15-5 15-5s-5.8 6.6-7.7 25c-1.8 18.3 6.4 77.8 1 80z" class="colorffffff svgShape"></path><path fill="#ffffff" d="M528.7 166.9 527 181l-11.4 10.3-1.3-11.1v-2.5c-3.1.4-5.9 0-7.2-1.7-3.4-4.3-2.5-21.6-2.5-21.6 7.3-13.2 23-2.4 23-2.4s.3 3.2.5 7.1c1.6.4 2.2 2 2.3 3.9 0 1.7-.4 3.3-1.7 3.9z" class="colorffffff svgShape"></path><path fill="#ffffff" d="M511.8 164.2c0 .4 0 .8-.2 1.2-.5.9-1.4.7-1.4 1.3 0 .2.1.4.3.5.4.2.8 0 1.2.1m16.2-2.8c.4-.6.7-1.4.6-2.1 0-.3-.2-.8-.6-1.1-.4-.3-.9-.4-1.3 0m11.6 243.9.2 10.4 9.9-1.1-.1-9.2z" class="colorffffff svgShape"></path><path fill="#ffffff" d="M539.3 411.2c0-1.8-2.5-2.2-3.1-.5l-1.1 3.2-10.4 3.5c-1.4.5-2.3 1.8-2.3 3.3 0 .2.2.4.4.4l29-.2c.2 0 .4-.2.4-.4v-3.9s-.1-5-4.2-5.9c0 0-2 4.2-5.9 3.8-2.5-.3-2.8-3.3-2.8-3.3zm-50.2-5.6.2 10.3 9.9-1-.2-9.3z" class="colorffffff svgShape"></path><path fill="#ffffff" d="M490.2 411.5c0-1.8-2.5-2.2-3.1-.5l-1.1 3.2-10.4 3.5c-1.4.5-2.3 1.8-2.3 3.3 0 .2.2.4.4.4l29-.2c.2 0 .4-.2.4-.4v-3.9s-.1-5-4.2-5.9c0 0-2 4.2-5.9 3.8-2.5-.2-2.8-3.3-2.8-3.3zm59.6-180c-2.1 3.7-5.5 6-10.8 5.4-23-2.4-35.9-5-35.9-5l-.6-10.5 35-.6-.6-4.8m.5 4.9 2.8-.2m-87.4-20.4c-.4 2.7-1.7 5.1-3.9 7l-1-.6c-7.2-.4-14.5-5-12-7.4-1.4-1.6.6-2.5.6-2.5-.9-2.1 1.6-2.4 1.6-2.4l-1.1-.9-5-3.4v-.1c-1.1-.9-1.4-2.8-.3-2.8 3.1.8 7.3 3.3 11.2 5.9-.1-.1-.2-.3-.2-.3-.7-1.3-.3-3.1.2-3.4 1.7-.9 8.1 8.8 9.2 10.5.2.1.4.3.7.4zm-9.9-7.2 2 2.6" class="colorffffff svgShape"></path><path fill="#ffffff" d="M436 199.3s1.2.2 3.5 2.2m-3-4.8s1.2.2 3.5 2.2m-1.9-4.6s1.2.2 3.5 2.2m34.2 25.7c.2 1.3-.8 2.4-2.1 2.4s-2.6-1.1-2.8-2.4c-.2-1.3.7-2.4 2.1-2.4 1.4-.1 2.6 1 2.8 2.4zm12.9 1.7s-4.6 1.8-.5 3c0 0-3.4 2.2.6 2.6-.5.4-.7.8-.7 1.1.1 2 8.7 2.8 13.6.5.1 0 2.1.9 2 .8 1.1-.5 2.8-6.1 1.1-8.8-2.9-1.1-3.7-1.6-5.2-2-1.6-2.1-3.7-3.8-5.7-4.8l.9 4.2c-1.3 0-2.9.1-4.8.3-8 1-1.3 3.1-1.3 3.1z" class="colorffffff svgShape"></path><path fill="#f5f5f5" d="M488 230.7c.1 2 8.7 2.8 13.6.5.1 0 2.1.9 2 .8 1.1-.5 2.8-6.1 1.1-8.8-.1 0-.2-.1-.3-.1-1.7 1.3-1.1 2.8-1.8 3.9-.4.7-1.3 1.1-2.1.9-.6-.1-1-.5-1.6-.6-.9-.1-1.7.5-2.3 1.2-.6.7-1.1 1.5-1.9 1.9-.8.4-1.7.3-2.5.2-.8-.1-1.7-.4-2.5-.4-.6 0-1.2.1-1.7.5zm64.7 52c-3.7 8.1-20.3 5.8-24.9 3.2-.6-.4-1.3-1.8-2-4 1.9-.7 5.1-1.5 6.2-4 .6-1.4.4-3.2 1.2-4.6 1.3-2.2 4.4-2.4 6.2-4.3 1.6-1.6 1.7-4.1 1.8-6.4.4-7.3 3.6-5.9 4.6-8 .6-1.1-.2-2.3 0-6.1 0-2.4.5-4.4 2.7-5.4 1.8 8 7.4 32.5 4.2 39.6zm-2.9-51.2c-.9 1.6-1.6 2.4-2.7 3.3l-.1.1c-2 1.6-4.6 2.4-8 2-18.5-1.9-30.5-4-34.5-4.7.2-.1.5-.2 1.6-.7 9.1-3.5 12.9-1.1 17.2-1.9 3.3-.6 6.1-3.1 9.5-3.7 1.7-.3 3.3-.1 5-.2 2-.1 4-.8 5.4-2.1 1.8-1.7 1.8-3.8 1.7-6.3-.1-2.2-.1-4.4-.2-6.7-.2-4.8 1.2-4.9 2.5-6.4 1.9-2.1 1.6-5.5.4-8.1-1.8-3.9-4.9-7-4.3-12.3 2.7 1.3 5 3.2 5.7 6 .6 2.5 7.4 29.8.8 41.7z" class="colorf5f5f5 svgShape"></path><path fill="#ffffff" d="M454.4 132c-.3 10.9 8.3 19.8 19.3 19.8 5 0 9.6-1.8 13.2-4.8l6.4 2.3c.5.2 1-.3.8-.8l-2.6-7c1.6-2.8 2.6-6.1 2.7-9.5.3-10.9-8.3-19.8-19.3-19.8s-20.2 8.9-20.5 19.8z" class="colorffffff svgShape"></path><path fill="#7764f0" d="M458.4 132c-.3 8.7 6.7 15.8 15.4 15.8 8.8 0 16.1-7.1 16.4-15.8.3-8.7-6.7-15.8-15.4-15.8-8.8 0-16.1 7.1-16.4 15.8z" class="color67db8a svgShape"></path><path fill="#ffffff" d="M469.4 132c0-1.5-1.2-2.7-2.7-2.7s-2.8 1.2-2.8 2.7c0 1.5 1.2 2.7 2.7 2.7 1.5 0 2.8-1.2 2.8-2.7zm7.6 0c0-1.5-1.2-2.7-2.7-2.7s-2.8 1.2-2.8 2.7c0 1.5 1.2 2.7 2.7 2.7 1.6 0 2.8-1.2 2.8-2.7zm7.7 0c0-1.5-1.2-2.7-2.7-2.7s-2.8 1.2-2.8 2.7c0 1.5 1.2 2.7 2.7 2.7 1.5 0 2.8-1.2 2.8-2.7z" class="colorffffff svgShape"></path><path fill="#7764f0" d="M446.2 392.8v23c0 1.1-.9 2-2 2h-52.9c-1.1 0-2-.9-2-2v-23c0-1.1.9-2 2-2h52.9c1.1 0 2 .9 2 2z" class="color67db8a svgShape"></path><path fill="#ffffff" d="M415.6 392.8v23c0 1.1-.9 2-2 2h-78.8c-1.1 0-2-.9-2-2v-23c0-1.1.9-2 2-2h78.8c1.1 0 2 .9 2 2z" class="colorffffff svgShape"></path><circle cx="402.7" cy="404.3" r="3.6" fill="#7764f0" class="color67db8a svgShape"></circle><circle cx="389.2" cy="404.3" r="3.6" fill="#7764f0" class="color67db8a svgShape"></circle><path fill="#7764f0" d="M366.9 401.5v5.6c0 .4-.3.7-.7.7h-25.9c-.4 0-.7-.3-.7-.7v-5.6c0-.4.3-.7.7-.7h25.9c.4 0 .7.3.7.7zm79.3-35.7v23c0 1.1-.9 2-2 2h-52.9c-1.1 0-2-.9-2-2v-23c0-1.1.9-2 2-2h52.9c1.1 0 2 .9 2 2z" class="color67db8a svgShape"></path><path fill="#ffffff" d="M415.6 365.8v23c0 1.1-.9 2-2 2h-78.8c-1.1 0-2-.9-2-2v-23c0-1.1.9-2 2-2h78.8c1.1 0 2 .9 2 2z" class="colorffffff svgShape"></path><circle cx="402.7" cy="377.3" r="3.6" fill="#7764f0" class="color67db8a svgShape"></circle><circle cx="389.2" cy="377.3" r="3.6" fill="#7764f0" class="color67db8a svgShape"></circle><path fill="#7764f0" d="M366.9 374.5v5.6c0 .4-.3.7-.7.7h-25.9c-.4 0-.7-.3-.7-.7v-5.6c0-.4.3-.7.7-.7h25.9c.4-.1.7.3.7.7zm79.3-35.8v23c0 1.1-.9 2-2 2h-52.9c-1.1 0-2-.9-2-2v-23c0-1.1.9-2 2-2h52.9c1.1 0 2 .9 2 2z" class="color67db8a svgShape"></path><path fill="#ffffff" d="M415.6 338.7v23c0 1.1-.9 2-2 2h-78.8c-1.1 0-2-.9-2-2v-23c0-1.1.9-2 2-2h78.8c1.1 0 2 .9 2 2z" class="colorffffff svgShape"></path><circle cx="402.7" cy="350.2" r="3.6" fill="#7764f0" class="color67db8a svgShape"></circle><circle cx="389.2" cy="350.2" r="3.6" fill="#7764f0" class="color67db8a svgShape"></circle><path fill="#7764f0" d="M366.9 347.4v5.6c0 .4-.3.7-.7.7h-25.9c-.4 0-.7-.3-.7-.7v-5.6c0-.4.3-.7.7-.7h25.9c.4 0 .7.3.7.7zm-114.2 16.7s-5.1.1-8.3 7.7c-3.2 7.7-8.1 13.6-16.6 8.8 0 0-5.2-3.4-.5-9.7 4.4-5.7 14.3-11.5 25.4-6.8zm-19.9-34.8c-2.6-2.5-6.8-2.7-9.5-.2-1.4 1.3-2.4 3.3-1.5 6.5 2 7.4 3 7.9 1.9 13-1.2 5.1-2.9 16.7 2.2 17.9 7.2 1.6 11.7-11.5 11.7-11.5s2.4-7.4-.6-17.9c-1.2-3.9-2.7-6.3-4.2-7.8z" class="color67db8a svgShape"></path><path fill="#7764f0" d="M195.8 355.9s6-3.1 12 4.8 10.7 6.5 12.2 5.1c1.5-1.4 2.4-7.8 0-12.1s-8.2-4.8-14.3-3.9c-6.1.9-9.1 4-9.9 6.1z" class="color67db8a svgShape"></path><path fill="#ffffff" d="m205.2 392 5.7 25.4c.3 1.4 1.6 2.4 3 2.4h19c1.4 0 2.7-1 3-2.4l5.7-25.4h-36.4z" class="colorffffff svgShape"></path><path fill="#ffffff" d="M243.8 386.3v5.7c0 .5-.4 1-1 1H204c-.5 0-1-.4-1-1v-5.7c0-.5.4-1 1-1h38.8c.6.1 1 .5 1 1z" class="colorffffff svgShape"></path><path fill="#e2e1e5" d="M203 389.9v2.1c0 .5.4 1 1 1h38.8c.5 0 1-.4 1-1v-2.1H203z" class="colore1e5e2 svgShape"></path><path fill="#3f3c50" d="M248.6 97.9c-1.3 0-2.4 1.1-2.4 2.4v5.4c0 1.3 1.1 2.4 2.4 2.4H406c1.3 0 2.4-1.1 2.4-2.4v-5.4c0-1.3-1.1-2.4-2.4-2.4H248.6zm159.1 2.4v5.4c0 .9-.8 1.7-1.7 1.7H248.6c-.9 0-1.7-.8-1.7-1.7v-5.4c0-.9.8-1.7 1.7-1.7H406c.9 0 1.7.7 1.7 1.7zm6.6-.6h19c.2 0 .4-.2.4-.4s-.2-.4-.4-.4h-19c-.2 0-.4.2-.4.4s.2.4.4.4zm0 3.6h19c.2 0 .4-.2.4-.4s-.2-.4-.4-.4h-19c-.2 0-.4.2-.4.4s.2.4.4.4zm0 3.6h19c.2 0 .4-.2.4-.4s-.2-.4-.4-.4h-19c-.2 0-.4.2-.4.4s.2.4.4.4zm-267.2-4.3h-8.3l2.2-1.9c.1-.1.2-.3 0-.5-.1-.1-.3-.2-.5 0l-2.9 2.5c-.2.2-.1.4 0 .5l2.9 2.5c.1.1.4.1.5 0 .1-.1.1-.4 0-.5l-2.2-1.9h8.3c.2 0 .4-.2.4-.4s-.2-.3-.4-.3zm20.5.1-2.9-2.5c-.1-.1-.4-.1-.5 0-.1.1-.1.4 0 .5l2.2 1.9h-8.3c-.2 0-.4.2-.4.4s.2.4.4.4h8.3l-2.2 1.9c-.1.1-.2.3 0 .5.1.1.3.2.5 0l2.9-2.5c.2-.3.2-.5 0-.6zm27.3-14.6c.1.1.4.1.5 0l1.8-1.8 1.8 1.8c.1.1.4.1.5 0 .1-.1.1-.4 0-.5l-1.8-1.8 1.8-1.8c.1-.1.1-.4 0-.5s-.4-.1-.5 0l-1.8 1.8-1.8-1.8c-.1-.1-.4-.1-.5 0s-.1.4 0 .5l1.8 1.8-1.8 1.8c-.1.2-.1.4 0 .5zm105.5-4.7c-.1-.1-.4-.1-.5 0l-1.8 1.8-1.8-1.8c-.1-.1-.4-.1-.5 0s-.1.4 0 .5l1.8 1.8-1.8 1.8c-.1.1-.1.4 0 .5.1.1.4.1.5 0l1.8-1.8 1.8 1.8c.1.1.4.1.5 0 .1-.1.1-.4 0-.5l-1.8-1.8 1.8-1.8c.1-.1.1-.3 0-.5zm-99.6 14.7c-.2 0-.4.2-.4.4s.2.4.4.4c2.3 0 4.2 1.9 4.2 4.2s-1.9 4.2-4.2 4.2c-2 0-3.7-1.4-4.1-3.3l1.1.9c.1.1.4.1.5 0 .1-.1.1-.4 0-.5l-1.8-1.5h-.4s-.1 0-.1.1l-1.2 2c-.1.2 0 .4.1.5.2.1.4 0 .5-.1l.7-1.1c.5 2.2 2.4 3.8 4.7 3.8 2.7 0 4.9-2.2 4.9-4.9s-2.2-5.1-4.9-5.1zm228.3 122.7c.2 0 .4-.2.4-.4V132c0-.2-.2-.4-.4-.4H255.6c-.2 0-.4.2-.4.4v88.5c0 .1 0 .2.3.3 2.8 0 23.3-.1 173.6 0zm-154.5-49.2c0-1.8 1.4-3.2 3.2-3.2 1.8 0 3.2 1.4 3.2 3.2 0 1.8-1.4 3.2-3.2 3.2-1.8 0-3.2-1.4-3.2-3.2zm3.2 3.9c2.1 0 3.9-1.7 3.9-3.9v-.2c8.3-.5 11.6 11.5 16.6 16.7-.1.3-.2.7-.2 1.1 0 2.1 1.7 3.9 3.9 3.9 2.1 0 3.7-1.6 3.9-3.6 9.2-5.1 7.5-26.3 15.5-33.7.6 1.3 2 2.3 3.5 2.3 2.1 0 3.9-1.7 3.9-3.9v-.3c5.6 2 10.1 11.1 13.4 17.7.7 1.4 1.3 2.7 1.9 3.7-.3.6-.5 1.2-.5 1.8 0 2.1 1.7 3.9 3.9 3.9 2.1 0 3.9-1.7 3.9-3.9 0-.5-.1-1-.3-1.4 2.3-2.2 4.3-5.1 4.7-5.7.1-.2 11.2-14.4 22.2-21.7.5 1.5 2 2.6 3.6 2.6 2.1 0 3.9-1.7 3.9-3.9 0-.8-.2-1.6-.7-2.2.6-.2 1.3-.4 1.9-.5 7.8-1.5 12.3 7.3 16.3 15 1.5 3 2.9 5.7 4.4 7.6-.2.5-.4 1.1-.4 1.7 0 2.1 1.7 3.9 3.9 3.9 1.7 0 3.1-1.1 3.6-2.5 4.6-.6 6.6-5 8.5-7.5 1.7-2.4 4.9-1.4 5.7-1.1v19.2c-1.2-.4-4.4-1.2-6.2 1.4-2.5 3.4-4.7 8.8-11.4 7-2.6-.7-5-5.2-7.4-10-4.1-8-8.8-17-17.1-15.4-13.2 2.5-30.7 25-31.5 25.9-1.7 2.6-6.7 8.9-8.9 7.6-.7-.4-2-3-3.5-6-4.3-8.6-10.8-21.7-19.2-17.8-5.9 2.7-7.9 10.8-9.8 18.6-1.9 7.7-3.7 14.9-8.8 17.2-4.5 2-7.3-2.5-10.5-7.8-3.9-6.4-8.4-13.7-17.3-9.5-12.7 6.1-19.2 20.2-21.2 25.3v-17.9c.3-1.1 5.8-17.3 18.9-25.2.7.9 1.8 1.5 3 1.5zM302 186c1.8 0 3.2 1.4 3.2 3.2 0 1.8-1.4 3.2-3.2 3.2-1.8 0-3.2-1.4-3.2-3.2 0-1.8 1.5-3.2 3.2-3.2zm19.7-31.9c0-1.8 1.4-3.2 3.2-3.2 1.8 0 3.2 1.4 3.2 3.2 0 1.8-1.4 3.2-3.2 3.2-1.8 0-3.2-1.4-3.2-3.2zm28.9 22.9c0 1.8-1.4 3.2-3.2 3.2-1.8 0-3.2-1.4-3.2-3.2 0-1.8 1.4-3.2 3.2-3.2 1.8 0 3.2 1.5 3.2 3.2zm34.2-30c0 1.8-1.4 3.2-3.2 3.2-1.8 0-3.2-1.4-3.2-3.2 0-1.8 1.4-3.2 3.2-3.2 1.8 0 3.2 1.4 3.2 3.2zm26.2 18.5c1.8 0 3.2 1.4 3.2 3.2 0 1.8-1.4 3.2-3.2 3.2-1.8 0-3.2-1.4-3.2-3.2 0-1.8 1.4-3.2 3.2-3.2zm17.8 54.6H255.9v-.9c.4-1.1 6.6-19.5 21.5-26.7 8.3-4 12.4 2.7 16.4 9.2 3.2 5.3 6.3 10.3 11.3 8.1 5.4-2.4 7.3-9.8 9.2-17.7 1.9-7.7 3.9-15.6 9.5-18.2 7.8-3.6 14.1 9.1 18.3 17.4 1.7 3.4 2.9 5.8 3.8 6.3 3.2 1.8 9.1-6.8 9.8-7.8.2-.2 18-23.2 31-25.7 7.8-1.5 12.3 7.3 16.3 15 2.7 5.2 4.9 9.6 7.9 10.4 6.9 1.8 9.3-3.3 12.2-7.2 1.7-2.4 4.9-1.4 5.7-1.1v38.9zm0-87.8v28.4c-1.2-.4-4.4-1.2-6.2 1.4-1.8 2.5-3.7 6.5-7.7 7.2 0-.2.1-.4.1-.6 0-2.1-1.7-3.9-3.9-3.9-1.3 0-2.4.6-3.1 1.6-1.4-1.9-2.8-4.6-4.2-7.3-4.1-8-8.8-17-17.1-15.4-.7.1-1.5.4-2.3.6-.7-.7-1.7-1.1-2.7-1.1-2.1 0-3.9 1.7-3.9 3.9 0 .2 0 .4.1.6-11.1 7.2-22 21.2-22.6 22-.9 1.3-2.6 3.6-4.4 5.4-.7-1.1-1.9-1.8-3.3-1.8-1.2 0-2.2.6-3 1.4-.5-1-1.1-2.1-1.7-3.4-3.4-6.8-8.2-16.3-14.1-18.1-.5-1.6-1.9-2.8-3.7-2.8-2.1 0-3.9 1.7-3.9 3.9 0 .3 0 .6.1.9-8.3 7.3-6.8 28.3-15.3 33.6-.3-1.9-1.9-3.4-3.8-3.4-1.5 0-2.8.9-3.4 2.1-4.8-5.2-8.3-17.3-17-16.7-.4-1.7-1.9-3-3.8-3-2.1 0-3.9 1.7-3.9 3.9 0 .7.2 1.3.5 1.9-10.9 6.7-16.6 19-18.5 23.8v-64.9h172.7zM261.2 240c-3.3 0-6 2.7-6 6s2.7 6 6 6 6-2.7 6-6c-.1-3.3-2.7-6-6-6zm0 11.3c-2.9 0-5.3-2.4-5.3-5.3s2.4-5.3 5.3-5.3 5.3 2.4 5.3 5.3c-.1 2.9-2.4 5.3-5.3 5.3zm0 10.5c-3.3 0-6 2.7-6 6s2.7 6 6 6 6-2.7 6-6c-.1-3.3-2.7-6-6-6zm0 11.2c-2.9 0-5.3-2.4-5.3-5.3s2.4-5.3 5.3-5.3 5.3 2.4 5.3 5.3c-.1 2.9-2.4 5.3-5.3 5.3zm0 10.5c-3.3 0-6 2.7-6 6s2.7 6 6 6 6-2.7 6-6c-.1-3.3-2.7-6-6-6zm0 11.2c-2.9 0-5.3-2.4-5.3-5.3s2.4-5.3 5.3-5.3 5.3 2.4 5.3 5.3c-.1 3-2.4 5.3-5.3 5.3zm167-52.6h-149c-1.3 0-2.3 1-2.3 2.3v3.3c0 1.3 1 2.3 2.3 2.3h149c1.3 0 2.3-1 2.3-2.3v-3.3c0-1.3-1.1-2.3-2.3-2.3zm-149 7.1c-.9 0-1.6-.7-1.6-1.6v-3.3c0-.9.7-1.6 1.6-1.6H379c.9 0 1.6.7 1.6 1.6v3.3c0 .9-.7 1.6-1.6 1.6h-99.8zm150.6-1.6c0 .9-.7 1.6-1.6 1.6h-47.6c.4-.4.7-1 .7-1.6v-3.3c0-.6-.3-1.2-.7-1.6h47.6c.9 0 1.6.7 1.6 1.6v3.3zm-1.6 16.2h-149c-1.3 0-2.3 1-2.3 2.3v3.3c0 1.3 1 2.3 2.3 2.3h149c1.3 0 2.3-1 2.3-2.3v-3.3c0-1.3-1.1-2.3-2.3-2.3zm-149 7.2c-.9 0-1.6-.7-1.6-1.6v-3.3c0-.9.7-1.6 1.6-1.6h59.9c.9 0 1.6.7 1.6 1.6v3.3c0 .9-.7 1.6-1.6 1.6h-59.9zm150.6-1.6c0 .9-.7 1.6-1.6 1.6h-87.4c.4-.4.7-1 .7-1.6v-3.3c0-.6-.3-1.2-.7-1.6h87.4c.9 0 1.6.7 1.6 1.6v3.3zm-1.6 16.1h-149c-1.3 0-2.3 1-2.3 2.3v3.3c0 1.3 1 2.3 2.3 2.3h149c1.3 0 2.3-1 2.3-2.3v-3.3c0-1.2-1.1-2.3-2.3-2.3zm-149 7.2c-.9 0-1.6-.7-1.6-1.6v-3.3c0-.9.7-1.6 1.6-1.6H401c.9 0 1.6.7 1.6 1.6v3.3c0 .9-.7 1.6-1.6 1.6H279.2zm150.6-1.6c0 .9-.7 1.6-1.6 1.6h-25.5c.4-.4.7-1 .7-1.6v-3.3c0-.6-.3-1.2-.7-1.6h25.5c.9 0 1.6.7 1.6 1.6v3.3zM175.3 146h-6.4c-1.2 0-2.1 1-2.1 2.1v33.7c0 1.2 1 2.1 2.1 2.1h6.4c1.2 0 2.1-1 2.1-2.1v-33.7c0-1.1-1-2.1-2.1-2.1zm1.4 35.8c0 .8-.6 1.4-1.4 1.4h-6.4c-.8 0-1.4-.6-1.4-1.4v-33.7c0-.8.6-1.4 1.4-1.4h6.4c.8 0 1.4.6 1.4 1.4v33.7zm19.1-44.3h-6.4c-1.2 0-2.1 1-2.1 2.1v42.1c0 1.2 1 2.1 2.1 2.1h6.4c1.2 0 2.1-1 2.1-2.1v-42.1c0-1.1-.9-2.1-2.1-2.1zm1.4 44.3c0 .8-.6 1.4-1.4 1.4h-6.4c-.8 0-1.4-.6-1.4-1.4v-42.1c0-.8.6-1.4 1.4-1.4h6.4c.8 0 1.4.6 1.4 1.4v42.1zm19.2-38.3H210c-1.2 0-2.1 1-2.1 2.1v36.2c0 1.2 1 2.1 2.1 2.1h6.4c1.2 0 2.1-1 2.1-2.1v-36.2c0-1.2-1-2.1-2.1-2.1zm1.4 38.3c0 .8-.6 1.4-1.4 1.4H210c-.8 0-1.4-.6-1.4-1.4v-36.2c0-.8.6-1.4 1.4-1.4h6.4c.8 0 1.4.6 1.4 1.4v36.2zm19.1-26.8h-6.4c-1.2 0-2.1 1-2.1 2.1v24.7c0 1.2 1 2.1 2.1 2.1h6.4c1.2 0 2.1-1 2.1-2.1v-24.7c0-1.2-.9-2.1-2.1-2.1zm1.4 26.8c0 .8-.6 1.4-1.4 1.4h-6.4c-.8 0-1.4-.6-1.4-1.4v-24.7c0-.8.6-1.4 1.4-1.4h6.4c.8 0 1.4.6 1.4 1.4v24.7zm-63.8 85.9c0 .2.2.4.4.4h33c.2 0 .4-.2.4-.4s-.2-.4-.4-.4h-33c-.3.1-.4.2-.4.4zm-21.4.4h17.1c.2 0 .4-.2.4-.4s-.2-.4-.4-.4h-17.1c-.2 0-.4.2-.4.4s.2.4.4.4zm30.2 9c0 .2.2.4.4.4h48.4c.2 0 .4-.2.4-.4s-.2-.4-.4-.4h-48.4c-.3.1-.4.2-.4.4zm-30.2.4h23.1c.2 0 .4-.2.4-.4s-.2-.4-.4-.4h-23.1c-.2 0-.4.2-.4.4s.2.4.4.4zm0 9.3H190c.2 0 .4-.2.4-.4s-.2-.4-.4-.4h-36.9c-.2 0-.4.2-.4.4s.2.4.4.4zm65.2-50.9c-.1-.1-.1-.1-.2-.1l-23.6-3c-.1 0-.2 0-.3.1-.1.1-.1.2-.1.3l3.3 23.4c0 .2.2.3.3.3h.1c5.1-1 9.8-3.5 13.4-7.2l.6-.6 2.6 2.3c.1.1.1.1.2.1h12.6c.2 0 .4-.2.4-.4s-.2-.4-.4-.4h-12.4l-2.5-2.2c3.1-3.5 5.2-7.8 6.1-12.4 0 0 0-.1-.1-.2zm-6.6 12.2-5.9-5.1c-.1-.1-.4-.1-.5 0-.1.1-.1.4 0 .5l5.9 5.1c-.2.2-.4.4-.5.6-3.5 3.5-7.9 5.9-12.7 6.9l-3.1-22.6 22.8 2.9c-1 4.4-3 8.4-6 11.7zm.6-34.3c-.1-.1-.2-.1-.3-.1-.1 0-.2 0-.3.1l-16 16c-.1.1-.1.2-.1.4 0 .1.2.2.3.2l22.4 2.8c.1 0 .2 0 .2-.1.1-.1.1-.2.1-.2.2-3.2-.2-6.4-1.1-9.4l3.5-1.5h6c.2 0 .4-.2.4-.4s-.2-.4-.4-.4h-6.2l-3.5 1.5c-.9-3.1-2.6-6.2-5-8.9zm5.8 18.7-21.3-2.7 15.2-15.2c2.2 2.5 3.8 5.5 4.9 8.6l-4.6 2c-.2.1-.3.3-.2.5.1.1.2.2.3.2h.1l4.5-1.9c.9 2.6 1.3 5.5 1.1 8.5zm-25.8-3.3c.1.1.2.1.2.1s.2 0 .2-.1L210 212c.1-.1.1-.2.1-.3 0-.1 0-.2-.1-.3-3.7-3.2-8-5.2-12.5-6.1l5.2-4.5h12.9c.2 0 .4-.2.4-.4s-.2-.4-.4-.4h-13c-.1 0-.2 0-.2.1l-5.7 5c-7.5-1.1-15.3 1-21.3 6.3-.1.1-.1.2-.1.3 0 .1 0 .2.1.3l16.9 17.2zm3.6-23.3-2.2 1.9c-.1.1-.2.3 0 .5.1.1.3.2.5 0l2.7-2.3c4.5.7 8.8 2.6 12.4 5.8l-16.7 16.7-16.6-16.6c5.6-4.9 12.9-6.9 19.9-6zM159 251.4h10.8c.1 0 .2 0 .2-.1l3.1-2.7c5.6 6.2 13.4 9.2 21.3 8.6.2 0 .3-.2.3-.4l-3.5-24.9c0-.1 0-.1-.1-.2l-17.8-17.8c-.1-.1-.2-.1-.3-.1-.1 0-.2 0-.3.1-8.6 9.8-8.5 24.4-.2 34.2l-3 2.6H159c-.2 0-.4.2-.4.4s.2.3.4.3zm14.2-36.7 17.5 17.5 3.4 24.4c-7.4.4-14.9-2.3-20.4-8.4l5.4-4.6c.1-.1.2-.3 0-.5-.1-.1-.3-.2-.5 0l-5.4 4.7c-7.9-9.6-8.1-23.6 0-33.1zm-74.4-54.4c-.4.1-.7.6-.5 1 .1.4.5.7 1 .5.4-.1.7-.5.5-1-.2-.4-.6-.6-1-.5zm-1.9-.9c.7-.3 1.3-.5 2.2-.5.2 0 .4-.2.4-.3 0-.2-.2-.4-.4-.4-1 0-1.8.2-2.5.6-.2.1-.3.3-.2.5.2.2.4.2.5.1zm-10.7.3c-.1.3-.2.7-.1 1.2.2 1.2 1.3 2 1.6 2 .4 0 .5-.5.2-.7-1-.5-1.3-1.6-1-2.2.2-.5.7-.5.9-.2.1.4.8.2.7-.2-.3-.5-1.8-.9-2.3.1zm17.2 5.6c-.1.3-.3.4-.4.5-.2.1-.5-.1-.8-.3-.2-.1-.4-.1-.5.1-.1.1-.1.4.1.5.4.3.9.5 1.4.4.4-.1.7-.4.9-.9.1-.2 0-.4-.2-.5-.2-.1-.4 0-.5.2zm.7-6.4c-.4.1-.7.5-.6.9.1.4.5.7.9.6.4-.1.7-.5.6-.9 0-.4-.5-.7-.9-.6zm-1.5-1.4h.1c.6-.3 1.4-.4 2.2-.3.2 0 .4-.1.4-.3 0-.2-.1-.4-.3-.4-.8-.1-1.8 0-2.5.4-.2.1-.3.3-.2.5 0 .1.1.1.3.1zm-1 5.3c-.2.1-.2.3-.1.5.1.1.3.2.5.1.1-.1.4 0 .6 0 .4 0 .9-.2 1-.6.1-.3-.1-.6-.3-.7-.5-.7-.9-1.4-1-2.3 0-.2-.2-.3-.4-.3s-.3.2-.3.4c.2.9.6 1.8 1.2 2.6 0 .1.1.1.1.1-.2.2-.8-.1-1.3.2zm406.5 0c-.5-.1-.9.3-1 .8-.1.5.3.9.8 1 .5.1.9-.3 1-.8.1-.5-.3-1-.8-1zm1.9-1.2c-.4-.5-1.7-.9-2.9-.8-.5.1-.4.8.1.7.5-.1 1.8 0 2.3.6.3.3.9 0 .5-.5zm5.1 2.5c-.5-.1-1 .3-1 .8-.1.5.3.9.8 1 .5.1.9-.3 1-.8 0-.5-.3-.9-.8-1zm-1-1.9c-.5 0-.5.7 0 .7 1.8.1 2.4.4 3 1 .3.3.8-.2.5-.5-.8-.7-1.5-1.1-3.5-1.2zm-3.8 5.3c.2.1 1.2.2 1.3.2.4 0 .5-.6.1-.7-.4-.1-.9 0-1.1-.1-.1 0-.1-.1-.1-.1.1-.3.8-.2 1.4-1.1.2-.4.3-.8.3-1.4 0-.5-.7-.4-.7 0 .1 1.4-.9 1.6-1.2 1.8-.7.3-.6 1.1 0 1.4zm2.5 2.7c-1.4.6-2.7.3-3.3.1-.1 0-.2.1-.2.2.5 2.2 2.4 2.5 3.7-.1.1-.1 0-.2-.2-.2zm14-8.7c.2-.2.6-.2.9 0 .3.2.4.6.5.9.1.7-.1 1.3-.5 1.9-.1.2-.1.4.1.5.1.1.4.1.5-.1.5-.7.7-1.5.6-2.4 0-.4-.2-1-.7-1.4-.5-.4-1.3-.5-1.8 0-.2.1-.2.3 0 .5 0 .2.3.2.4.1z" class="color3c4150 svgShape"></path><path fill="#3f3c50" d="M553 282.9c3.4-7.5-2.6-33.3-4.6-41.4l-1-6.4c1-.8 2.2-2.3 2.8-3.4 5.5-10 1.9-30.7-.8-41.9-2-7.3-14-8.9-21.5-9.1h-.4l.3-2.5c2.8.1 7.4 0 11.4-.6 2.4-.4 8.1-1.5 8.8-3.7.1-.4.1-1.1-.7-1.9-2.8-2.6-3.5-6.6-4.3-11.3-.9-5.1-1.8-10.8-5.7-16.1-2.4-3.3-5.1-5-7.9-5.2-3.6-.2-6.3 2.1-7.2 2.9-5.3-5.9-15.1-4.3-18.4 3-1.4 3.1-3.3 6-5 8.8-3.3 5.1-6.1 9.6-4.3 13.2 1.9 4 7 4.8 10.7 4.9.2.8.6 2.2.7 2.3 1.4 3.3 4.1 4 8.1 3.6v1.7c-1.3-.2-9.6-1.1-15 5 0 0-.1 0-.1.1l-17.7 20.8h-3.3c-26.1-7.7-24.5-7.3-24.7-7.2h-.3c-.3.1-.6.3-.9.5-3.3-5-7.5-10.7-9.1-9.8-.8.4-.9 2.1-.7 3.1-.1-.1-.2-.1-.3-.2V99c0-3.7-3-6.7-6.7-6.7H309.8l-3.5-8.1c-1.6-3.6-5.1-5.9-9-5.9h-67.6c-3.9 0-7.4 2.3-9 5.9l-3.5 8.1h-6.9l-3.5-8.1c-1.6-3.6-5.1-5.9-9-5.9h-54.7c-3.9 0-7.4 2.3-9 5.9 0 .1-2.9 8.4-2.8 8.3v117.8c-.6.7-1.2 1.3-1.6 1.8-3-11-8.3-23.5-17.3-30.5.5-3.7-.9-8.5-2.3-13.2-1.2-4.1-2.4-8-2.1-10.8.1-.9.6-2.1 1.1-3.5 1.3-3.4 2.9-7.7 1-11.1-1.2-2.1-3.6-3.6-7.3-4.4-10.1-2.1-16.7-1.6-20.9 1.5-3 2.3-4.6 6-5 11.1-.9 14.2 1.7 16.3-5.9 21.4-5.6 3.7-4.7 8.8.7 11.9-9.9 7.6-16.7 22-18.2 31.8-.8 5-1.8 16.6 4.6 20.9 2 1.3 4.2 1.4 6.7 1.2.2 0 1 0 3.2-.4 0 .1-4.8 23.2-4.8 23.3v.1c.1.3.1.5.4.8.4.5 1 .8 1.6 1.1.1 0 .3.1.4.2l-9 132.2c-.2 3 2.1 5.4 4.8 5.7l-.1 7c-.2 0-.4.1-.5.1-2.7 1.1-5.4 7.9-2.1 11.2 1.5 1.4 8.5 1.8 15.8 1.8 3 0 6-.1 8.8-.2 2.8-.1 5.3-.2 7.2-.3 1.3-.1 2.3-1.2 2.2-2.5-.3-4.4-.9-5-5.7-6.1-2.1-.4-4.2-.8-5.4-1.4l.1-.1c.1-.1.1-.4 0-.5-.1-.1-.3-.1-.5 0l-.3.3c-.5-.4-1.1-1-1.8-1.6l.3-.3c.1-.1.2-.4 0-.5-.1-.1-.3-.2-.5 0l-.3.3c-.5-.5-1.1-1.1-1.6-1.5l.2-.2c.1-.1.1-.4 0-.5-.1-.2-.4-.2-.5 0l-.3.2c-.6-.5-1.1-.9-1.7-1.1l-.2-4.3h.9c.8 0 1.4-.5 1.6-1.3l.6-2.9 15.2-100 10.4 101.1c.2 1.6 1.6 2.9 3.2 3l-.1 7c-.2 0-.4.1-.5.1-1.4.5-2.7 2.5-3.3 4.8-.7 2.6-.2 4.9 1.2 6.3 1.5 1.4 8.4 1.8 15.8 1.8 4.2 0 9.8-.1 16-.5 1.3-.1 2.3-1.2 2.2-2.5-.3-4.1-.8-5-4.9-5.9-1.7-.4-4.8-.8-6.2-1.5l.2-.1c.3-.3-.1-.8-.5-.5l-.3.3c-.5-.4-1.1-1-1.8-1.6l.3-.3c.1-.1.1-.4 0-.5-.1-.1-.4-.2-.5 0l-.3.3c-.5-.5-1.1-1.1-1.6-1.5l.2-.2c.1-.1.2-.4 0-.5-.1-.2-.4-.2-.5 0l-.3.2c-.6-.5-1.1-.8-1.7-1.1l-.2-4.3c1.9 0 3.4-1.6 3.4-3.6l-3.3-136.8c.7-.4 1.4-1.2 1.3-2l-.4-4.1-1.6-22.7h.3c1.1 0 2-.9 2-2v-1.9c1.7 1.8 3.6 2.9 5.6 3.4 1.3.3 2.7.2 4.2-.3v79.7c0 5.4 4.4 9.8 9.8 9.8H432c5.4 0 9.8-4.4 9.8-9.8V205.9c2.3.9 3.7 1 5.5 1.3-.4.8-.5 1.7-.2 2.5l10.2 25.5c.8 2.1 2.9 3.5 5.1 3.5h29.9v3.1l-4.9 39.6c-.1 1.3.7 2.5 1.9 2.8.1 0-.1 0 .8.2-1.8 34.9-4.4 113.9-4.6 118.1 0 1.8 1.4 3.3 3 3.4l.1 3.7h-.2c-.8 0-1.5.5-1.8 1.3l-1.1 3.1-10.3 3.5c-1.5.5-2.6 2-2.6 3.6 0 .4.4.8.8.8 30.6-.3 29.2 0 29.6-.4.4-.4.2-.6.2-4.5 0-2.1-1.4-5.2-4-6.1l-.1-4.9h.5c.9 0 1.7-.6 1.8-1.5l17.3-94.9 13.5 91.5c.4 2.6 2.6 4.6 5.3 4.6h.1l.1 3.7h-.2c-.8 0-1.5.5-1.8 1.3l-1.1 3.1-10.3 3.5c-1.5.5-2.6 2-2.6 3.6 0 .4.4.8.8.8 30.5-.3 29.2 0 29.6-.4.4-.4.2-.6.2-4.5-.3-1.3-.4-4.9-3.9-6.1l-.1-4.8h.6c1.8 0 3.2-1.4 3.1-3.2l-2.6-115.9c1.8-1.2 2.9-2.4 3.6-3.9zm-28.7-5.8c-4.2-.1-9.7-.5-14.9-1.2.2-10.1-1.4-29.2-2.2-42.9 2.7.5 6.5 1.1 11.6 1.8 1 12.1 2.9 30.5 5.5 42.3zm24.3-87.2c0 .1 0-.2.2.6 2.6 10.7 6.3 32.8 0 41.9-.4.6-1.1 1.4-1.5 1.7-3.9 3.6-8.3 2.3-13.9 1.8-10.3-.7-14.1-2.3-14.5-1.8-3.5-.5-11.1-1.7-14.6-2.3 1-1.6 1.8-4.9 1.4-7.1-.2-1.2-1-2.4-1.7-3 38.6-.6 36.2-.7 36.3-.7.5 0 .4-.7 0-.7l-2.4.2-.6-4.5c-.1-.5-.7-.4-.7.1l.6 4.5c-25.3.4-16.5.3-18.4.3V218c.3-12.2 1.2-26.9 9.3-36.6h.2c6.8.1 18.5 1.7 20.3 8.5zm-46.9 40.9c-.3-.1-.3.1-1.6.5-.8.3-3.6 1-6.9.8-.2 0-.5 0-.7-.1-2-.2-3.6-.6-4-1.3-.1-.1-.3-.4.4-1l3.3-.2c.1 0 .2-.1.3-.2v-.3c-.1-.1-.2-.2-.3-.2l-3.4.2h-.1c-1.1-.1-1.5-.4-1.6-.6-.1-.3.6-1 1.2-1.3l3.9-.2c.2 0 .3-.1.3-.3v-.2c0-.2-.2-.3-.4-.3l-3.9.2h-.1c-1.3-.4-1.4-.8-1.4-.9 0-.4 1.1-1.1 1.9-1.4 1.6-.1 4-.2 3.8-.2.4 0 .4-.7-.1-.7-.1 0-4 .2-3.8.2-.6-.2-2.9-1.2-2.8-1.8.2-1.1 7.3-1.3 8.2-1.3.2 0 .4-.2.3-.4 0-.1-.5-2.9-.4-2.7v-.2c1.9 1.1 3.9 2.6 5.1 4.3.1.1.2.1.4.2 1.6.5 3 1.2 4.8 1.8 1.2 2.3.3 6.2-1.3 7.9.1.3-1-.2-1.1-.3zm-28-6.6c-1 0-2.2-.7-2.4-2.1-.2-1.2.7-2 1.8-2 1.2 0 2.3.9 2.4 2.1.2 1.1-.7 2-1.8 2zm33-19c1.6-15.6 6.1-22.7 7.3-24.4 1.4 10.8 1.1 10.7 1.5 10.8.4.2.1.1 11.2-9.8-8 10.6-8.5 25.9-8.8 36.2v2.9l-11.3.2c-.3-6.6-.3-12.1.1-15.9zm12.7-28.4c.2 0 .3-.3.2-.5-.1-.2-.3-.3-.4-.2-3.3 1.2-9.7 2.4-11.9-.3-2.3-2.9-2.5-12.7-2.5-16.5 2.3-.8 6.3-2.9 8.6-8.1.3 3.5 2 11.3 9.8 11.7.2 0 .3-.1.4-.3.2-1.8 1.7-3.2 3.6-3.3 2.1-.1 2.8 1.6 2.9 3.7.1 1.3-.1 3.1-1.4 3.7-.1.1-.2.2-.2.3 0 .1-1.7 14-1.7 13.9-14.8 13.4-9.7 8.8-10.8 9.8-.1-.9.4 3.6-1.3-10.4v-2.2c1.6-.4 3.1-.8 4.7-1.3zm-20.2 8.6s.1 0 0 0c4.8-5.5 11.9-5.3 14.1-5h.1c-4.4 6.1-6.6 17.1-7.4 24.7-.4 3.8-.4 9.4-.1 15.9h-3.4c-.2 0-.5 0-.9.5-.6-.3-1.2-.5-1.9-.7-1.1-1.5-3.1-3.2-5.6-4.6l-.5-1.3c.1-.2 0-1.9.5-9 0-.4-.7-.5-.7 0-.2 2.3-.3 4.8-.4 7.5l-1.8-4.4c-.9-2.1-2.9-3.5-5.1-3.5h-4l17.1-20.1zm-23.9 20.3H451c1.5-2 2.2-4.2 2.3-6.4v-.1l22 6.5zM441.1 98.9V113H131.9V92.9h303.2c3.4 0 6 2.7 6 6zM221.4 84.4c1.4-3.3 4.7-5.4 8.3-5.4h67.6c3.6 0 6.9 2.1 8.3 5.4l3.4 7.9h-91l3.4-7.9zm-86.7 0c1.4-3.3 4.7-5.4 8.3-5.4h54.7c3.6 0 6.9 2.1 8.3 5.4l3.4 7.9h-77.5l2.8-7.9zM97 192.9c-1-1.7-9.7-16.3-9.1-15.4-1-18.1-.7-11.9-.8-13.2 0-.2-.1-.3-.3-.3-1.3-.3-1.6-1.8-1.7-3-.1-.7-.1-2.2.7-3 .9-.5 1.7-.7 2.4-.5 1.3.3 1.9 1.6 2 1.6.1.1.2.2.3.2h.1c10.9-2 12.7-7 13-8.9l2 2c.2 1.9.5 5.3.5 8.6 0 3.4-.3 6.7-1.2 8.3-1.2 2.1-4.5 2.2-6.3 2.1l-5.8-.3c-.4-.1-.5.7 0 .7l5.4.3.4 4.3c-.2 1.1-.1-.2-1.6 16.5zm1.8 23.9c.1 0 .1-.1.2-.2 1-1.6 2.6-3.1 4.3-4.3l-.4 3.2c0 .2.2.4.4.4 1.7 0 1.2.1 3.9.3 3.1.3 3.2.8 3.2.8 0 .3-1 .9-2 1.4H105c-.2 0-.4.2-.4.3 0 .2.2.3.4.4h3.4c.7.3 1.8.9 1.8 1.3 0 .3-.5.6-1.3.9h-3.5c-.2 0-.4.2-.4.3 0 .2.2.4.4.4h3.5c.5.3 1.1.9 1 1.3 0 .1-.2.4-1.3.6h-.1l-3-.1c-.2 0-.4.1-.4.3 0 .2.1.3.3.4l3 .1c.7.6.5.9.4 1-.7 1.2-4.4 1.5-5.8 1.5-3.9 0-5.6-1.1-5.9-1.1-.2 0-.2.1-.4.2-1.3.7-.8.4-1.3.6-.6-.6-.9-1.9-1.1-2.6-.4-1.6-.7-3.7 0-5.2 2.4-1.3 3.1-1.7 4.5-2.2zM76.1 407.2l-.7.6c-.1 0-.2-.1-.4-.1-.4-.1-1 .2-1.2.7-.3.6 0 1.3.6 1.6.7.2 1.3-.1 1.5-.6.1-.3.1-.6 0-.9 0-.1 0-.1-.1-.2l.7-.7c.5.5 1.1 1 1.6 1.5l-.7.6c-.6-.3-1.3 0-1.5.6-.3.6 0 1.3.6 1.6.5.2 1.3 0 1.5-.6.2-.4.1-.8-.1-1.1l.6-.6c.6.6 1.2 1.2 1.7 1.6l-.7.6c-.6-.3-1.3 0-1.5.6-.3.6 0 1.3.6 1.6.5.3 1.3 0 1.5-.6.2-.4.1-.7-.1-1.1l.7-.7c1.2.6 3.2 1 4.6 1.3 0 3.3 3.3 5.6 6.2 4.8.1.4.1.7.1 1 0 .9-.7 1.6-1.6 1.7-13.8.7-29.3.8-31.4-1.2-.4-.4-.7-.8-.9-1.3 4.7 2.2 23 1.3 28.2 1 .5 0 .4-.7 0-.7-3.7.2-25.8 1.3-28.5-1.4-.3-1.2-.1-2.4.1-3.1 3 1.1 6.2-1.1 6.2-4.4 2.2.5 4.5 1.4 4.5 1.4.2.1.3 0 .4-.1 1.2-1.7 3.5-4.4 4.6-4.5 1.3 0 2.3.7 2.9 1.1zm-.7 1.8c0 .4-.4.6-.7.4-.2-.1-.3-.4-.2-.6.1-.2.3-.3.4-.3.3 0 .5.2.5.5zm2.1 1.9c0 .7-1.2.5-.9-.2.1-.3.4-.3.6-.2.3.1.3.2.3.4zm2 2.5c-.4.2-.8-.2-.6-.6.1-.3.5-.4.7-.2.2.1.3.6-.1.8zm-5.3-7.9h-.5c-1.6.1-4.2 3.6-5 4.6-1.8-.7-4.9-1.7-6.8-1.7l.1-7h12l.2 4.1zm47.1 1.7-.7.6c-.6-.3-1.3 0-1.5.6-.3.6 0 1.3.6 1.6.6.2 1.3 0 1.5-.6.2-.4.1-.8-.1-1.1l.7-.7c.5.5 1.1 1 1.6 1.5l-.7.6c-.6-.3-1.3 0-1.5.6-.3.6 0 1.3.6 1.6.6.3 1.3 0 1.5-.6.2-.4.1-.8-.1-1.1l.6-.6c.6.6 1.2 1.2 1.7 1.6l-.6.6c-.6-.2-1.3 0-1.5.6-.3.6 0 1.3.6 1.6.7.3 1.3 0 1.5-.6.2-.4.1-.7-.1-1.1l.7-.7c1.2.6 3.3 1 4.6 1.3 0 3.3 3.3 5.6 6.2 4.8 0 .3.1.6.1.9 0 .9-.6 1.7-1.6 1.7-13.8.7-29.3.8-31.3-1.2-.4-.4-.7-.8-.9-1.3 4.7 2.2 23 1.3 28.2 1 .2 0 .3-.2.3-.4s-.2-.3-.4-.3c-3.7.2-25.8 1.3-28.5-1.4-.2-1.2-.1-2.4.1-3.1 1.3.5 2.8.3 4-.4l.1-.1c1.4-.9 2.1-2.4 2.1-3.9 2.2.5 4.5 1.4 4.5 1.4.2.1.3 0 .4-.1 1.2-1.7 3.5-4.4 4.6-4.5 1.1.1 2.1.8 2.7 1.2zm-.8 1.9c-.1.2-.4.3-.6.2-.2-.1-.4-.4-.2-.6.1-.2.4-.3.6-.3.2.2.4.5.2.7zm2.2 2c-.1.2-.4.4-.6.2-.2-.1-.3-.4-.2-.6.1-.3.4-.3.6-.2.3.1.3.4.2.6zm2 1.4c.6.3.2 1.1-.4.9-.2-.1-.3-.4-.2-.6.1-.3.3-.4.6-.3zm-5.8-7.1c-1.6.1-4.2 3.6-5 4.6-1.8-.7-4.9-1.7-6.8-1.7l.1-7h12l.2 4.1h-.5zm3.6-7.6c.1 1.5-1.1 2.8-2.7 2.9h-13.4c-1.3-.1-2.3-1.1-2.5-2.4l-9.2-89.5 1.1-24 1-3.9c0-.2-.1-.4-.3-.4-.2-.1-.4.1-.4.3l-3.6 13.7c-.1.1-1.1 6.9-15.6 102.7l-.6 2.9c-.1.4-.5.7-.9.7H61.1c-2.4-.3-4.2-2.4-4.1-4.9l9-132c1.2.5 4 1 5.3 1.1 10.9 1.6 39.2.7 47.8-3.5l3.4 136.3zm-2.4-142.9c.4 4.2.6 4.3.3 4.6-2.9 5.7-55.5 7.5-56.6 1.7 0-.1 3.6-17.5 3.6-17.4h.1c16.2-6.4 26.4-15.3 28.3-16.5l1.3-.7c1.7.8 3.8 1.1 5.9 1.1l-.1 2.4c0 1.2.9 2.1 2 2.1h13.5c1.5 20 1.7 22.9 1.7 22.7zm7.1-23.8c-2-.5-3.9-1.7-5.7-3.7l.7-22.3c0-1.1-.9-2.1-2-2.1h-14.4c-1.1 0-2 .9-2 2l-.2 6.4c-1.2.8-3.4 2.3-5 4.8-.6.2-1.1.4-1.6.7-.3-.4-.6-.4-.9-.4-.1 0-.3.1-.7.3l-23.7 6.5.9-7c0-.2-.1-.4-.3-.4-.2 0-.4.1-.4.3l-.1.8c0 .1-.8 6.6-.8 6.5-.1 0-4.7 1.1-4.5 1-.4.1-.4.7.1.7 6.6-1.5.8 0 27.6-7.3-.7.9-1 2.2-1 3.3 0 2.6 1.1 5.4 1.6 5.9-.3.3-11.7 5.9-20.9 8.7-2.6.8-6.3 1.7-8.7 1.9-1.4 0-4.4.6-6.9-1-5-3.2-5.4-13.5-4.3-20.3 1.6-9.5 8-23.5 18.4-31.4 4.6-3.3 9.2-5.7 15.1-6.9 2.6 4.4 8.1 13.6 9.6 16.1.2.3.6.2.6-.1 1.5-16.6 1.5-16.6 1.5-16.9 16.4 1.4 25.4 18.9 29.7 34.8.4 1.6 1 5.1 1 5 0 .2.3.3.4.3.2 0 .3-.2.3-.4l-.7-3.9c2.8-3.3 17.1-17.9 20.3-21 2.1 3.2 5 5.1 8.9 5.7-3.7 6.9-21.8 35.8-31.9 33.4zm17.1-34.5c.1-1 .9-1.8 1.9-2-.6.7-1.2 1.3-1.9 2zm7.5-5.7c.5-7.1 1.6-12.5 2.6-12.5 0 0 .2 0 .5.3 1.9 1.8.5 4.4.5 5.9-.1.5.6.5.7.1l.5-3.2c2.6-5.1 4.9-8.6 6.9-10.5.5-.2 1 1.2.6 2.2l-2.8 5.6-.5 1.2c-.3.3-1.2 1.3-2.1 3.8-.1.2.1.5.3.5.1 0 .3-.1.3-.2.7-2.1 1.4-3 1.8-3.4 0 0 1-.4 1.6 0 .3.2.4.4.5.8-.4.4-1.2 1.4-2 3.7-.2.5.5.6.7.2.8-2.2 1.5-3.1 1.8-3.4 1 0 1.6.4 1.4 1.4-.3.3-1.2 1.3-2.1 3.8-.2.4.5.7.7.2.8-2.2 1.5-3.2 1.8-3.4.5.2.7.5.8 1.1.3 2.4-3.3 7.8-7.5 10.4-.7.4-.5.2-.7.4l-.5.8c-2.6-.7-4.7-2-6.3-4 .6-.9.4-.7.5-1.8zm4.3-11.8c-.2-.4-.5-.8-.7-1-.2-.2-.6-.5-1-.5-1.1 0-1.9 2.5-2.4 5.6h-3.7c-.8 0-1.4-.6-1.4-1.4v-43c0-.8.6-1.4 1.4-1.4h6.4c.8 0 1.4.6 1.4 1.4v40.3zm-11.8 41.4c7.1-8.5 15.8-23.1 15.6-23.5l-.6-1.2c.6-.4 1.1-.8 1.7-1.2h78.8c1.2 0 2.2 1 2.2 2.2V295c0 1.2-1 2.2-2.2 2.2h-93.2c-1.2 0-2.2-1-2.2-2.2v-74.5zm296.8 90.6c0 5-4.1 9.1-9.1 9.1H141c-5 0-9.1-4.1-9.1-9.1v-79.9c3.7-1.5 7.8-5.3 11.6-9.8v73.7c0 1.6 1.3 2.9 2.9 2.9h93.2c1.6 0 2.9-1.3 2.9-2.9v-98.2c0-1.6-1.3-2.9-2.9-2.9h-78c3.1-2.8 5.6-6.8 5.3-9.1-.1-.8-.5-1.4-1.2-1.7.2-1.2-.5-2-1.8-2.1-.2-1.2-1.1-1.7-2.4-1.5l.3-.7c.1-.1 3-6 2.9-5.6.6-1.6-.3-3.8-1.6-3.1 0 0-.1 0-.1.1-1.8 1.8-3.9 4.9-6.2 9.2v-40.7c0-1.2-1-2.1-2.1-2.1h-6.4c-1.2 0-2.1 1-2.1 2.1v43c0 1.2 1 2.1 2.1 2.1h3.6c-.4 2.3-.6 4.8-.7 6.9-.2 0-1.1 0-1.2.1h-.1l-2.9 2.9h-.4c-1.6 0-2.9 1.3-2.9 2.9v.5c-3.8 3.9-8.5 8.7-11.6 12.1v-95.8h309.2v77.9c-3.9-2.5-7-4-9.4-4.7h-.1c-.4 0-.8.3-.9.7-.3.8.2 2.1 1 2.8l5.1 3.5.6.5c-1.1.4-1.7 1.2-1.3 2.4-1 .6-1.3 1.7-.6 2.7-.4.6-.5 1.2-.2 1.9.6 1.6 3 3.2 5.9 4.4v105.5zm-5-111.4c.4.1 1.5.6 3.2 2.1.3.3.8-.2.5-.5-2-1.8-3.2-2.2-3.6-2.3-.3-.3-.4-.7-.3-.9.1-.5.6-.8.8-.9.4.1 1.5.6 3.2 2.1.3.3.8-.2.5-.5-1.9-1.6-3-2.1-3.5-2.3-.1-.4-.1-.7 0-.9.3-.5 1.1-.7 1.4-.8.5.2 1.5.6 3.1 2.1.4.3.8-.2.5-.5-2-1.7-3.2-2.2-3.6-2.3l-1-.8-5-3.4-.1-.1c-.7-.5-1-1.5-.8-2 0-.1.1-.2.2-.2 3.5 1 8 3.8 11 5.8 1.9 2.5 1.9 2.7 2.2 2.7.3 0 .5-.3.3-.6-1.1-1.5-1.6-2-2.1-2.9-.6-1.2-.2-2.8.1-2.9.7-.4 3.8 2.8 8.2 9.6.1.1.4.7.5.8.1.1.5.3.6.4-.4 1.8-1 3.6-2.4 5.1-.2.1-1-.2-2.2.8-5.9-.1-13.6-4.5-11.7-6.7zm53.6 83.8c-.9-.2-1.5-1.1-1.4-2l4.9-39.6v-3.2h5.6c2.1 0 3.5-2.1 2.7-4l-1.1-2.6c.4-.1.8-.3 1.2-.5 1.3.8 3.6 1.1 4.9 1.3 1 17 1.1 14.3 2.1 36.3.1 2.5.5 14.8-1.6 15.7-4.3 1.8-12.6-.2-17.3-1.4zm-.2 122.4h9.3l.1 4.8c-.1 0-.1.1-.2.2 0 0-1.9 3.9-5.6 3.6-2.1-.2-2.5-2.7-2.5-3 0-.7-.4-1.3-1-1.7l-.1-3.9zM473.6 421c0-1.3.8-2.5 2.1-2.9l.7-.2-.7 3.2-2.1-.1c0 .1 0 .1 0 0zm28.5-6.8c-2.1.3-3.4 2.5-2.7 4.4l-19.5.1c-.2 0-.3.2-.3.3 0 .2.1.4.3.4 2.3 0-8.4.1 22.8-.2 0 1.4.1 1.6-.1 1.6l-26.3.2.8-3.5 9-3.1c.1 0 .2-.1.2-.2l1.1-3.2c.5-1.3 2.4-.9 2.4.4.2 1.8 1.4 3.6 3.3 3.6 2 .1 4.3-1 6-3.7 1.3.5 2.4 1.4 3 2.9zm20.6 6.5c0-1.3.8-2.5 2.1-2.9l.7-.2-.7 3.2-2.1-.1c0 .1 0 0 0 0zm28.5-6.8c-2.1.3-3.4 2.5-2.6 4.4l-19.5.1c-.2 0-.3.2-.3.4s.2.3.3.3c2.4 0 20.4-.1 22.8-.1 0 1.5.1 1.6-.1 1.6l-26.3.2.8-3.5 9-3.1c.1 0 .2-.1.2-.2l1.1-3.2c.5-1.3 2.4-1 2.4.4.5 4.8 6.3 5 9.3-.1 1.1.3 2.3 1.2 2.9 2.8zm-3.3-3.6c-.1 0-.2.1-.2.2 0 0-1.9 3.9-5.6 3.6-2.1-.2-2.4-2.7-2.5-3 0-.7-.4-1.3-1-1.6l-.1-3.9c.1 0 9.9.1 9.3.1l.1 4.6zm3.7-7.8c0 1.4-1.1 2.5-2.5 2.5-26.1-.2 4.4 0-11.4-.1-2.3 0-4.3-1.7-4.6-4-13.3-90.5-13.8-93.5-13.8-93.6 0-.1-2.1-11.5-1.9-10.8 0-.1-.4-2-.3-1.9-.1-.5-.8-.3-.7.1 0 .1.4 2 .3 1.8l-.1 20.3c0 .2.1.3.3.3L501 404.3c-.1.5-.6.9-1.1.9h-10.8c-1.5 0-2.7-1.3-2.6-2.7 0-1 2.8-82.4 4.6-117.9 4.5 1.1 12.1 2.7 16.3.9 1.3-.5 1.9-3.6 2.1-8.9 5.4.8 10.9 1.1 15 1.2.4 1.8 1.7 7.6 3.2 8.5 2.3 1.3 7.3 2.4 12.2 2.4 2.5 0 5-.3 7.1-1 .7-.2 1.4-.5 2-.8l2.6 115.6zM528 285.7c-1.3-.7-2.7-7.1-3-8.6-2.5-11.5-4.5-30.5-5.5-42.2.9.1 28.2 6.9 28.3 6.9 1.7 7.3 8 33.4 4.6 40.8-3.4 7.5-19.3 5.9-24.4 3.1z" class="color3c4150 svgShape"></path><path fill="#3f3c50" d="M473.7 152.1c4.8 0 9.5-1.7 13.2-4.8l6.2 2.3c.8.3 1.5-.5 1.2-1.2l-2.5-6.9c1.6-2.9 2.6-6.2 2.7-9.5.3-11.1-8.4-20.1-19.7-20.1-11.2 0-20.5 9-20.8 20.1-.3 11.1 8.5 20.1 19.7 20.1zm-19-20.1c.3-10.7 9.4-19.4 20.1-19.4 11 0 19.3 8.8 19 19.4-.1 3.2-1 6.5-2.6 9.3-.1.1-.1.2 0 .3l2.6 7c.1.2-.1.4-.3.3l-6.4-2.3c-.1 0-.2 0-.3.1-3.6 3.1-8.2 4.7-12.9 4.7-11 0-19.5-8.7-19.2-19.4zm-52 276.2c2.2 0 3.9-1.8 3.9-3.9 0-2.2-1.8-3.9-3.9-3.9s-3.9 1.8-3.9 3.9c0 2.2 1.8 3.9 3.9 3.9zm0-7.1c1.8 0 3.2 1.4 3.2 3.2s-1.4 3.2-3.2 3.2-3.2-1.4-3.2-3.2 1.5-3.2 3.2-3.2zm-13.5 7.1c2.2 0 3.9-1.8 3.9-3.9 0-2.2-1.8-3.9-3.9-3.9s-3.9 1.8-3.9 3.9c0 2.2 1.8 3.9 3.9 3.9zm0-7.1c1.8 0 3.2 1.4 3.2 3.2s-1.4 3.2-3.2 3.2-3.2-1.4-3.2-3.2 1.5-3.2 3.2-3.2zm-48.9 7.1h25.9c.6 0 1.1-.5 1.1-1.1v-5.6c0-.6-.5-1.1-1.1-1.1h-25.9c-.6 0-1.1.5-1.1 1.1v5.6c0 .7.5 1.1 1.1 1.1zm-.4-6.7c0-.2.2-.4.4-.4h25.9c.2 0 .4.2.4.4v5.6c0 .2-.2.4-.4.4h-25.9c-.2 0-.4-.2-.4-.4v-5.6zm66.7-24.2c0-2.2-1.8-3.9-3.9-3.9s-3.9 1.8-3.9 3.9c0 2.2 1.8 3.9 3.9 3.9s3.9-1.8 3.9-3.9zm-7.1 0c0-1.8 1.4-3.2 3.2-3.2s3.2 1.4 3.2 3.2-1.4 3.2-3.2 3.2-3.2-1.5-3.2-3.2zm-10.3-3.9c-2.2 0-3.9 1.8-3.9 3.9 0 2.2 1.8 3.9 3.9 3.9s3.9-1.8 3.9-3.9c0-2.2-1.7-3.9-3.9-3.9zm0 7.1c-1.8 0-3.2-1.4-3.2-3.2s1.4-3.2 3.2-3.2 3.2 1.4 3.2 3.2-1.4 3.2-3.2 3.2zm-23-7.1h-25.9c-.6 0-1.1.5-1.1 1.1v5.6c0 .6.5 1.1 1.1 1.1h25.9c.6 0 1.1-.5 1.1-1.1v-5.6c-.1-.6-.5-1.1-1.1-1.1zm.3 6.7c0 .2-.2.4-.4.4h-25.9c-.2 0-.4-.2-.4-.4v-5.6c0-.2.2-.4.4-.4h25.9c.2 0 .4.2.4.4v5.6zm36.2-26c2.2 0 3.9-1.8 3.9-3.9s-1.8-3.9-3.9-3.9-3.9 1.8-3.9 3.9 1.8 3.9 3.9 3.9zm0-7.1c1.8 0 3.2 1.4 3.2 3.2s-1.4 3.2-3.2 3.2-3.2-1.4-3.2-3.2 1.5-3.2 3.2-3.2zm-9.6 3.2c0-2.2-1.8-3.9-3.9-3.9s-3.9 1.8-3.9 3.9 1.8 3.9 3.9 3.9 3.9-1.7 3.9-3.9zm-3.9 3.2c-1.8 0-3.2-1.4-3.2-3.2s1.4-3.2 3.2-3.2 3.2 1.4 3.2 3.2-1.4 3.2-3.2 3.2zm-23-7.1h-25.9c-.6 0-1.1.5-1.1 1.1v5.6c0 .6.5 1.1 1.1 1.1h25.9c.6 0 1.1-.5 1.1-1.1v-5.6c-.1-.6-.5-1.1-1.1-1.1zm.3 6.7c0 .2-.2.4-.4.4h-25.9c-.2 0-.4-.2-.4-.4v-5.6c0-.2.2-.4.4-.4h25.9c.2 0 .4.2.4.4v5.6z" class="color3c4150 svgShape"></path><path fill="#3f3c50" d="M460.3 417.7h-14.7c.6-.4.9-1.1.9-1.9v-23c0-.9-.5-1.6-1.1-2 .7-.4 1.1-1.2 1.1-2v-23c0-.9-.5-1.6-1.1-2 .7-.4 1.1-1.2 1.1-2v-23c0-1.3-1.1-2.4-2.4-2.4H334.7c-1.3 0-2.4 1.1-2.4 2.4v23c0 .9.5 1.6 1.1 2-.7.4-1.1 1.2-1.1 2v23c0 .9.5 1.6 1.1 2-.7.4-1.1 1.2-1.1 2v23c0 .8.4 1.4.9 1.9h-15.1c-.2 0-.4.2-.4.4s.2.4.4.4h142.2c.2 0 .4-.2.4-.4s-.2-.4-.4-.4zm-14.5-24.9v23c0 .9-.7 1.7-1.7 1.7h-28.9c.4-.4.7-1 .7-1.7v-23c0-.6-.3-1.2-.7-1.7h28.9c1 .1 1.7.8 1.7 1.7zm0-27v23c0 .9-.7 1.7-1.7 1.7h-28.9c.4-.4.7-1 .7-1.7v-23c0-.6-.3-1.2-.7-1.7h28.9c1 0 1.7.7 1.7 1.7zm0-27.1v23c0 .9-.7 1.7-1.7 1.7h-28.9c.4-.4.7-1 .7-1.7v-23c0-.6-.3-1.2-.7-1.7h28.9c1 0 1.7.8 1.7 1.7zm-112.7 23v-23c0-.9.7-1.7 1.7-1.7h78.8c.9 0 1.7.7 1.7 1.7v23c0 .9-.7 1.7-1.7 1.7h-78.8c-1 0-1.7-.7-1.7-1.7zm0 27.1v-23c0-.9.7-1.7 1.7-1.7h78.8c.9 0 1.7.7 1.7 1.7v23c0 .9-.7 1.7-1.7 1.7h-78.8c-1 0-1.7-.8-1.7-1.7zm0 4c0-.9.7-1.7 1.7-1.7h78.8c.9 0 1.7.7 1.7 1.7v23c0 .9-.7 1.7-1.7 1.7h-78.8c-.9 0-1.7-.7-1.7-1.7v-23zm-80.3-29c-10.7-4.5-20.8.5-25.7 7-3 4.1-2.4 7.7.1 9.8-.4 1.3-.7 2.8-.8 4.4h-4.3c.2-6 2-12.6 4-18.2.3 0 .6.1.9.1 6.7 0 10.6-11.4 10.8-11.9 0-.1 2.4-7.6-.6-18.1-1-3.4-2.4-6.1-4.2-7.9-2.7-2.7-7.2-2.8-10-.3-1.8 1.7-2.4 4-1.6 6.8 2 7.4 3 7.8 1.9 12.8-1.2 5.2-2.9 16.7 2.2 18.2-2 5.6-3.8 12.3-4 18.4h-1.7c.1-14.4 0-15.9-.5-18.4.5-.2.8-.5.9-.6 1.6-1.5 2.6-8.1.1-12.5-2.2-3.8-7-5.2-14.6-4.1-6 .9-9.2 3.9-10.2 6.3-.2.3-2.9 6.3.8 9.2 3.3 2.6 7.2 1.4 9.2-1.4.5-.8 1.3-1.7 2.1-2.6 3.7 4.8 6.9 6.1 8.9 6.2h.5c.7 0 1.2-.1 1.7-.3.4 2.3.5 3.7.4 18.1H204c-.7 0-1.3.6-1.3 1.3v5.7c0 .7.6 1.3 1.3 1.3h1.2l4 17.9 1.4 6.2c.4 1.6 1.7 2.7 3.3 2.7h19c1.6 0 3-1.1 3.3-2.7l5.4-24.2h1.2c.7 0 1.3-.6 1.3-1.3V386c0-.7-.6-1.3-1.3-1.3h-15.7c.1-1.4.3-2.7.7-4 8.1 4.4 13.4-.5 17-9.1.1-.3.2-.5.3-.7 1.5-.3 4.9.8 6.1 1.5 1.2.7 2.8 1.1 4.2.7 1.1-.3 2-1.1 2.6-2.4 1.6-2.6-2.2-5.4-5.2-6.9zM224 348.6c1.2-5.2.1-5.8-1.9-13.1-.7-2.6-.2-4.6 1.4-6.1 2.5-2.3 6.5-2.2 9 .2 5.3 5.2 6.8 18.9 4.7 25.2 0 .1-4.3 12.2-10.8 11.3.9-2.6 1.8-4.9 2.6-6.8 5.4-13.6 0-24.8 0-24.9l-.6.3c.1.1 5.2 11.1 0 24.4-.8 1.9-1.7 4.3-2.6 6.9-4.7-1.4-2.9-12.8-1.8-17.4zm-13.9 4.7c-.4-.2-.7.4-.3.6.1 0 6.7 3.7 8.7 12.3-.5.2-1.2.3-2 .2-3.6-.3-6.7-3.7-8.9-6.6-3.7-4.5-8-5.5-11.1-4.6 2.1-3.1 5.7-4.6 9.3-5.1 7.4-1.1 11.9.2 13.9 3.7 2.3 4.1 1.5 10.3.1 11.6-.1.1-.3.3-.6.4-2.1-8.7-9-12.4-9.1-12.5zm26.9 57.6h-27.3l-3.9-17.5h35l-3.8 17.5zm5.8-25.2c.3 0 .6.3.6.6v5.7c0 .3-.3.6-.6.6H204c-.3 0-.6-.3-.6-.6v-5.7c0-.3.3-.6.6-.6h38.8zm1.8-14.9c-.1.3-.3.6-.4.9-3.4 8.3-8.3 13-16.1 8.7 2.8-8.2 10.8-11.8 10.9-11.8.2-.1.3-.3.2-.5-.1-.2-.3-.3-.5-.2-.1 0-8.2 3.7-11.2 12-2.1-2-2.6-5 .2-8.7 5.2-6.9 14.6-10.5 23.8-7.2-3.2.9-5.8 3.9-6.9 6.8z" class="color3c4150 svgShape"></path><circle cx="107.2" cy="207.6" r="1.3" fill="#ffffff" class="colorffffff svgShape"></circle></svg>