<svg width="529" height="406" viewBox="0 0 529 406" fill="none" xmlns="http://www.w3.org/2000/svg">
<path d="M0 254.84L261.525 406L528.995 251.402L267.47 100.242L0 254.84Z" fill="#E5BDFF"/>
<path d="M282.332 273.736L309.081 289.194L335.831 273.736L309.081 258.278L282.332 273.736Z" fill="#DDF2FF"/>
<path d="M416.067 268.581L332.851 316.676L249.636 268.581L380.401 192.999L303.13 148.337L219.914 196.432" stroke="#98D8FF" stroke-width="16" stroke-linecap="round" stroke-linejoin="round"/>
<path d="M306.083 201.468C306.083 208.309 294.961 213.852 281.245 213.852C267.529 213.852 256.406 208.304 256.406 201.468C256.406 194.632 267.529 189.084 281.245 189.084C294.961 189.084 306.083 194.632 306.083 201.468Z" fill="#BE5AFF"/>
<path d="M281.447 163.303C271.101 163.303 262.666 167.375 262.243 172.485C261.462 170.773 261.138 197.164 262.223 199.894C262.223 200.046 262.233 200.204 262.248 200.356C262.248 200.371 262.248 200.391 262.248 200.405C262.263 200.548 262.282 200.686 262.312 200.828C262.317 200.863 262.327 200.897 262.336 200.937C262.361 201.05 262.39 201.168 262.425 201.281C262.44 201.34 262.459 201.399 262.479 201.453C262.508 201.542 262.543 201.635 262.577 201.723C262.602 201.792 262.631 201.861 262.661 201.93C262.661 201.93 262.661 201.94 262.666 201.945C262.695 202.014 262.729 202.083 262.759 202.151C262.808 202.255 262.862 202.358 262.921 202.461C262.946 202.505 262.97 202.55 262.995 202.589C263.059 202.702 263.127 202.81 263.201 202.919C263.226 202.953 263.25 202.987 263.27 203.022C263.344 203.13 263.427 203.243 263.511 203.346C263.54 203.386 263.574 203.43 263.609 203.469C263.697 203.578 263.791 203.691 263.889 203.799C263.943 203.863 264.002 203.922 264.061 203.986C264.105 204.03 264.149 204.079 264.193 204.124L264.203 204.133C264.282 204.217 264.365 204.296 264.454 204.374C264.464 204.384 264.468 204.389 264.478 204.399C264.527 204.443 264.577 204.488 264.626 204.537C264.631 204.542 264.64 204.547 264.645 204.556C264.734 204.635 264.822 204.714 264.911 204.788L264.93 204.802C264.975 204.842 265.024 204.876 265.068 204.915C265.186 205.009 265.304 205.102 265.426 205.196H265.436C265.476 205.23 265.515 205.26 265.554 205.289C265.687 205.388 265.819 205.481 265.962 205.574L265.982 205.589C266.021 205.614 266.06 205.638 266.095 205.668C266.257 205.776 266.419 205.879 266.586 205.983C266.596 205.988 266.61 205.997 266.62 206.002C266.807 206.115 266.999 206.229 267.195 206.337C267.2 206.337 267.21 206.347 267.215 206.347C267.416 206.455 267.622 206.563 267.829 206.671C267.829 206.671 267.839 206.671 267.839 206.676C268.266 206.888 268.713 207.089 269.175 207.281C269.19 207.286 269.209 207.296 269.224 207.301C269.681 207.488 270.152 207.665 270.639 207.827C270.673 207.837 270.703 207.847 270.737 207.856C271.199 208.014 271.68 208.156 272.167 208.289C272.235 208.309 272.304 208.329 272.373 208.343C272.849 208.471 273.336 208.589 273.832 208.693C273.911 208.707 273.994 208.727 274.073 208.742C274.569 208.845 275.07 208.934 275.576 209.017C275.669 209.032 275.763 209.047 275.856 209.061C276.372 209.14 276.893 209.204 277.418 209.263C277.418 209.263 277.423 209.263 277.428 209.263C277.502 209.273 277.575 209.278 277.649 209.288C278.244 209.347 278.843 209.391 279.447 209.425C279.447 209.425 279.452 209.425 279.457 209.425H279.467C280.115 209.46 280.769 209.475 281.422 209.475C282.075 209.475 282.729 209.46 283.377 209.425C283.377 209.425 283.382 209.425 283.387 209.425H283.402C284.011 209.391 284.62 209.347 285.22 209.288C285.283 209.283 285.347 209.273 285.416 209.268C285.956 209.209 286.492 209.14 287.023 209.061C287.111 209.047 287.194 209.037 287.278 209.022C287.784 208.943 288.28 208.85 288.771 208.747C288.855 208.732 288.938 208.712 289.017 208.693C289.513 208.584 290 208.471 290.481 208.343C290.54 208.329 290.599 208.314 290.658 208.294C291.149 208.161 291.631 208.014 292.097 207.856C292.137 207.842 292.176 207.827 292.22 207.817C292.702 207.655 293.168 207.483 293.615 207.296C293.63 207.291 293.65 207.281 293.664 207.276C294.131 207.084 294.578 206.883 295.006 206.666C295.217 206.563 295.423 206.455 295.625 206.342C295.634 206.337 295.649 206.327 295.659 206.322C295.841 206.224 296.018 206.12 296.19 206.017L296.214 206.002C296.214 206.002 296.258 205.978 296.283 205.963C296.45 205.86 296.612 205.761 296.769 205.653L296.784 205.643C296.813 205.624 296.843 205.604 296.872 205.584C297.025 205.481 297.167 205.383 297.31 205.279L297.324 205.269C297.354 205.25 297.378 205.225 297.408 205.206C297.531 205.112 297.649 205.024 297.766 204.93C297.821 204.886 297.87 204.847 297.919 204.802C298.017 204.719 298.115 204.635 298.214 204.547C298.282 204.483 298.351 204.424 298.415 204.36C298.415 204.36 298.425 204.355 298.425 204.35C298.489 204.291 298.553 204.227 298.611 204.168C298.69 204.089 298.764 204.015 298.837 203.937C298.891 203.883 298.941 203.824 298.99 203.769C299.093 203.651 299.196 203.533 299.289 203.41C299.299 203.396 299.309 203.381 299.324 203.371C299.324 203.371 299.329 203.361 299.334 203.356C299.407 203.263 299.476 203.169 299.54 203.081C299.555 203.061 299.569 203.037 299.584 203.017C299.614 202.978 299.638 202.938 299.668 202.894C299.746 202.771 299.825 202.648 299.894 202.525C299.899 202.515 299.908 202.501 299.913 202.491C299.913 202.491 299.918 202.481 299.923 202.476C299.992 202.358 300.051 202.235 300.11 202.112C300.134 202.058 300.159 202.004 300.184 201.95C300.193 201.93 300.203 201.91 300.213 201.891C300.233 201.842 300.252 201.792 300.272 201.743C300.272 201.743 300.272 201.743 300.272 201.738C300.311 201.635 300.346 201.537 300.38 201.433V201.423C300.395 201.379 300.41 201.33 300.424 201.286C300.459 201.173 300.488 201.06 300.513 200.946C300.523 200.912 300.527 200.873 300.537 200.838C300.537 200.838 300.537 200.833 300.537 200.828C300.562 200.691 300.581 200.558 300.596 200.42C300.596 200.405 300.596 200.391 300.601 200.376C300.616 200.219 300.626 200.056 300.626 199.899C300.626 199.884 300.626 199.864 300.626 199.85C302.301 200.863 301.967 173.729 300.626 172.736C300.454 167.518 291.916 163.313 281.407 163.313L281.447 163.303Z" fill="url(#paint0_linear_2427_5448)"/>
<path d="M300.669 172.874C300.669 178.166 292.062 182.459 281.446 182.459C270.83 182.459 262.223 178.166 262.223 172.874C262.223 167.582 270.83 163.288 281.446 163.288C292.062 163.288 300.669 167.582 300.669 172.874Z" fill="url(#paint1_linear_2427_5448)" stroke="white" stroke-width="4" stroke-linecap="round" stroke-linejoin="round"/>
<path d="M276.669 174.57C278.148 175.647 279.415 174.211 279.121 173.405C277.804 169.711 275.598 166.337 272.317 163.337C272.71 161.247 273.648 159.132 271.152 157.199C265.935 152.163 265.886 143.448 254.105 143.079C254.385 145.42 256.793 147.353 258.276 149.463C261.072 155.861 266.127 160.401 271.673 164.532C274.09 167.906 275.702 171.25 276.669 174.57Z" fill="url(#paint2_linear_2427_5448)"/>
<path d="M279.058 172.894C280.256 174.276 281.814 173.164 281.711 172.309C281.259 168.413 275.698 154.805 273.172 151.146C274.027 149.198 275.413 147.349 273.418 144.905C270.598 137.852 266.157 121.347 253.605 119.33C253.35 121.676 255.261 124.101 256.234 126.491C258.867 135.811 267.798 146.896 272.278 152.174C273.875 156.005 278.861 169.446 279.063 172.899L279.058 172.894Z" fill="url(#paint3_linear_2427_5448)"/>
<path d="M286.584 174.57C285.105 175.647 283.838 174.211 284.133 173.405C285.449 169.711 287.655 166.337 290.937 163.337C290.544 161.247 289.605 159.132 292.101 157.199C297.318 152.163 297.367 143.448 309.148 143.079C308.868 145.42 306.461 147.353 304.977 149.463C302.182 155.861 297.127 160.401 291.58 164.532C289.163 167.906 287.552 171.25 286.584 174.57Z" fill="url(#paint4_linear_2427_5448)"/>
<path d="M284.197 172.893C282.998 174.275 281.441 173.164 281.544 172.308C281.996 168.413 287.557 154.804 290.082 151.145C289.227 149.198 287.842 147.348 289.837 144.904C292.656 137.851 304.555 115.444 317.107 113.428C317.362 115.774 309.379 126.008 308.411 128.399C305.778 137.719 295.457 146.896 290.981 152.168C289.385 155.999 284.398 169.441 284.197 172.893Z" fill="url(#paint5_linear_2427_5448)"/>
<path d="M280.229 173.282C281.555 174.467 282.916 173.651 283.294 173.282C283.712 157.608 281.84 150.703 283.51 135.029C301.51 135.23 297.138 101.26 298.99 85.0156C292.206 99.9275 267.991 125.054 281.82 134.758C279.669 150.521 281.133 157.514 280.229 173.277V173.282Z" fill="url(#paint6_linear_2427_5448)"/>
<path d="M287.281 185.558L309.074 198.154L330.866 185.558L309.074 172.963L287.281 185.558Z" fill="url(#paint7_linear_2427_5448)"/>
<path d="M287.281 217.05L309.074 229.645L330.866 217.05L309.074 204.454L287.281 217.05Z" fill="url(#paint8_linear_2427_5448)"/>
<path d="M287.281 248.541L309.074 261.136L330.866 248.541L309.074 235.945L287.281 248.541Z" fill="url(#paint9_linear_2427_5448)"/>
<path d="M287.281 248.54V273.736L309.074 286.331V261.135L287.281 248.54Z" fill="url(#paint10_linear_2427_5448)"/>
<path d="M287.281 217.05V242.246L309.074 254.841V229.645L287.281 217.05Z" fill="url(#paint11_linear_2427_5448)"/>
<path d="M330.871 248.54V273.736L309.078 286.331V261.135L330.871 248.54Z" fill="url(#paint12_linear_2427_5448)"/>
<path d="M330.871 217.05V242.246L309.078 254.841V229.645L330.871 217.05Z" fill="url(#paint13_linear_2427_5448)"/>
<path d="M287.281 185.559V210.754L309.074 223.35V198.154L287.281 185.559Z" fill="url(#paint14_linear_2427_5448)"/>
<path d="M330.871 185.559V210.754L309.078 223.35V198.154L330.871 185.559Z" fill="url(#paint15_linear_2427_5448)"/>
<path d="M172.238 250.807C209.989 250.807 240.592 236.195 240.592 218.17C240.592 200.145 209.989 185.533 172.238 185.533C134.486 185.533 103.883 200.145 103.883 218.17C103.883 236.195 134.486 250.807 172.238 250.807Z" fill="url(#paint16_linear_2427_5448)"/>
<path d="M195.179 0.000120449C161.778 0.201765 113.191 49.2999 113.191 110.433C113.191 149.744 130.715 204.345 150.194 216.655C150.842 217.069 172.369 223.32 173.111 223.457C176.81 224.151 159.871 212.549 163.865 210.149C191.666 193.432 226.011 91.1437 226.011 45.2227C226.011 25.6533 237.894 20.6958 230.029 13.894C225.018 9.57088 201.983 -0.0392249 195.179 0.000120449Z" fill="url(#paint17_linear_2427_5448)"/>
<path d="M215.925 10.6676C182.524 10.8693 133.938 59.9674 133.938 121.1C133.938 168.334 156.015 238.01 184.612 220.816C212.412 204.099 246.757 101.811 246.757 55.8902C246.757 23.868 233.424 10.5594 215.93 10.6676H215.925Z" fill="url(#paint18_linear_2427_5448)"/>
<path d="M203.21 49.3538C186.408 49.4571 161.973 74.1463 161.973 104.895C161.973 151.745 218.714 118.951 218.714 72.1003C218.714 55.9933 212.008 49.3046 203.21 49.3538Z" fill="url(#paint19_linear_2427_5448)"/>
<path d="M426.644 271.119C438.373 271.119 447.881 266.579 447.881 260.978C447.881 255.377 438.373 250.837 426.644 250.837C414.915 250.837 405.406 255.377 405.406 260.978C405.406 266.579 414.915 271.119 426.644 271.119Z" fill="url(#paint20_linear_2427_5448)"/>
<path d="M443.309 231.075L449.749 227.352V212.465L443.309 216.188V231.075Z" fill="url(#paint21_linear_2427_5448)"/>
<path d="M475.505 212.464V234.793L443.308 216.183V231.07L417.551 186.408L443.308 178.967V193.854L475.505 212.464Z" fill="url(#paint22_linear_2427_5448)"/>
<path d="M481.941 208.747L475.5 212.47V234.799L481.941 231.076V208.747Z" fill="url(#paint23_linear_2427_5448)"/>
<path d="M443.309 193.86L449.749 190.137L481.947 208.747L475.506 212.47L443.309 193.86Z" fill="url(#paint24_linear_2427_5448)"/>
<path d="M449.749 175.249L443.309 178.972V193.859L449.749 190.136V175.249Z" fill="url(#paint25_linear_2427_5448)"/>
<path d="M417.551 186.413L423.991 182.69L449.748 175.249L443.308 178.972L417.551 186.413Z" fill="url(#paint26_linear_2427_5448)"/>
<path d="M317.004 202.732L338.796 215.328L360.589 202.732L338.796 190.137L317.004 202.732Z" fill="url(#paint27_linear_2427_5448)"/>
<path d="M317.004 234.223L338.796 246.819L360.589 234.223L338.796 221.628L317.004 234.223Z" fill="url(#paint28_linear_2427_5448)"/>
<path d="M312.051 290.91L338.8 306.368L365.55 290.91L338.8 275.452L312.051 290.91Z" fill="#DDF2FF"/>
<path d="M317.004 265.719L338.796 278.315L360.589 265.719L338.796 253.124L317.004 265.719Z" fill="url(#paint29_linear_2427_5448)"/>
<path d="M317.004 265.719V290.915L338.796 303.51V278.314L317.004 265.719Z" fill="url(#paint30_linear_2427_5448)"/>
<path d="M317.004 234.224V259.419L338.796 272.015V246.819L317.004 234.224Z" fill="url(#paint31_linear_2427_5448)"/>
<path d="M360.589 265.719V290.915L338.797 303.51V278.314L360.589 265.719Z" fill="url(#paint32_linear_2427_5448)"/>
<path d="M360.589 234.224V259.419L338.797 272.015V246.819L360.589 234.224Z" fill="url(#paint33_linear_2427_5448)"/>
<path d="M317.004 202.732V227.928L338.796 240.524V215.328L317.004 202.732Z" fill="url(#paint34_linear_2427_5448)"/>
<path d="M360.589 202.732V227.928L338.797 240.524V215.328L360.589 202.732Z" fill="url(#paint35_linear_2427_5448)"/>
<path d="M376.836 261.023L382.78 264.46L406.558 250.719L400.613 247.281L376.836 261.023Z" fill="#DDF2FF"/>
<path d="M377.16 232.03V260.147L382.024 262.96L401.483 246.091L406.346 220.782L401.483 217.969L377.16 232.03Z" fill="url(#paint36_linear_2427_5448)"/>
<path d="M382.023 234.843V262.96L406.346 248.899V220.782L382.023 234.843Z" fill="url(#paint37_linear_2427_5448)"/>
<path d="M389.32 233.436L399.052 227.814V250.31L389.32 255.932V233.436Z" stroke="#FEFEFE" stroke-width="6" stroke-linejoin="round"/>
<path d="M389.32 253.119L399.052 247.497" stroke="#FEFEFE" stroke-width="6" stroke-miterlimit="61.87"/>
<path d="M312.414 66.8034C309.049 64.8558 304.421 66.9756 303.095 68.6723C300.034 72.5823 304.657 81.6071 312.414 86.0925L379.157 124.671C381.574 126.067 381.471 127.931 382.837 127.302C387.764 125.015 389.577 111.583 379.157 105.382L312.414 66.8034Z" fill="url(#paint38_linear_2427_5448)"/>
<path d="M309.486 69.1441C298.364 62.716 298.364 82.0051 309.486 88.4331L376.23 127.011C387.352 133.439 387.352 114.15 376.23 107.722L309.486 69.1441Z" fill="url(#paint39_linear_2427_5448)"/>
<path d="M317.709 81.1788C316.845 81.2329 316.191 82.0149 316.191 83.7805C316.191 88.9249 321.753 92.1365 321.753 86.997C321.753 83.6231 319.355 81.0755 317.709 81.1788Z" fill="#29AEFF"/>
<path d="M329.948 88.2511C329.083 88.3052 328.43 89.0872 328.43 90.8528C328.43 95.9972 333.991 99.2088 333.991 94.0693C333.991 90.6954 331.593 88.1478 329.948 88.2511Z" fill="#29AEFF"/>
<path d="M341.069 94.6837C340.204 94.7378 339.551 95.5198 339.551 97.2854C339.551 102.43 345.112 105.641 345.112 100.502C345.112 97.128 342.715 94.5804 341.069 94.6837Z" fill="#29AEFF"/>
<path d="M353.307 101.756C352.442 101.81 351.789 102.592 351.789 104.358C351.789 109.502 357.35 112.714 357.35 107.574C357.35 104.2 354.953 101.653 353.307 101.756Z" fill="#29AEFF"/>
<path d="M365.545 108.829C364.681 108.883 364.027 109.665 364.027 111.431C364.027 116.575 369.588 119.787 369.588 114.647C369.588 111.274 367.191 108.726 365.545 108.829Z" fill="#29AEFF"/>
<path d="M317.272 80.0773C316.407 80.1314 315.754 80.9133 315.754 82.679C315.754 87.8234 321.315 91.0349 321.315 85.8954C321.315 82.5216 318.918 79.974 317.272 80.0773Z" fill="white"/>
<path d="M329.51 87.1495C328.646 87.2036 327.992 87.9856 327.992 89.7512C327.992 94.8956 333.553 98.1072 333.553 92.9677C333.553 89.5938 331.156 87.0462 329.51 87.1495Z" fill="white"/>
<path d="M340.635 93.5773C339.771 93.6314 339.117 94.4133 339.117 96.179C339.117 101.323 344.678 104.535 344.678 99.3954C344.678 96.0216 342.281 93.474 340.635 93.5773Z" fill="white"/>
<path d="M352.87 100.65C352.005 100.704 351.352 101.486 351.352 103.251C351.352 108.396 356.913 111.607 356.913 106.468C356.913 103.094 354.515 100.546 352.87 100.65Z" fill="white"/>
<path d="M365.108 107.728C364.243 107.782 363.59 108.564 363.59 110.329C363.59 115.474 369.151 118.685 369.151 113.546C369.151 110.172 366.754 107.624 365.108 107.728Z" fill="white"/>
<path d="M318.793 98.8259C315.428 96.8783 310.8 98.998 309.473 100.695C306.413 104.605 311.036 113.63 318.793 118.115L385.536 156.693C387.953 158.09 387.85 159.954 389.216 159.324C394.143 157.037 395.956 143.606 385.536 137.404L318.793 98.8259Z" fill="url(#paint40_linear_2427_5448)"/>
<path d="M315.865 101.171C304.743 94.7434 304.743 114.032 315.865 120.46L382.609 159.039C393.731 165.467 393.731 146.178 382.609 139.75L315.865 101.171Z" fill="url(#paint41_linear_2427_5448)"/>
<path d="M324.088 113.201C323.224 113.255 322.57 114.037 322.57 115.803C322.57 120.947 328.131 124.159 328.131 119.019C328.131 115.646 325.734 113.098 324.088 113.201Z" fill="#45B9FF"/>
<path d="M336.327 120.278C335.462 120.333 334.809 121.115 334.809 122.88C334.809 128.025 340.37 131.236 340.37 126.097C340.37 122.723 337.972 120.175 336.327 120.278Z" fill="#45B9FF"/>
<path d="M347.448 126.706C346.583 126.76 345.93 127.542 345.93 129.308C345.93 134.452 351.491 137.664 351.491 132.524C351.491 129.15 349.093 126.603 347.448 126.706Z" fill="#45B9FF"/>
<path d="M359.686 133.778C358.821 133.833 358.168 134.615 358.168 136.38C358.168 141.525 363.729 144.736 363.729 139.597C363.729 136.223 361.332 133.675 359.686 133.778Z" fill="#45B9FF"/>
<path d="M371.924 140.852C371.06 140.906 370.406 141.688 370.406 143.453C370.406 148.598 375.967 151.809 375.967 146.67C375.967 143.296 373.57 140.748 371.924 140.852Z" fill="#45B9FF"/>
<path d="M323.655 112.1C322.79 112.154 322.137 112.936 322.137 114.701C322.137 119.846 327.698 123.057 327.698 117.918C327.698 114.544 325.3 111.996 323.655 112.1Z" fill="white"/>
<path d="M335.889 119.172C335.024 119.226 334.371 120.008 334.371 121.774C334.371 126.918 339.932 130.13 339.932 124.99C339.932 121.616 337.535 119.069 335.889 119.172Z" fill="white"/>
<path d="M347.014 125.605C346.149 125.659 345.496 126.441 345.496 128.206C345.496 133.351 351.057 136.562 351.057 131.423C351.057 128.049 348.66 125.501 347.014 125.605Z" fill="white"/>
<path d="M359.252 132.677C358.388 132.731 357.734 133.513 357.734 135.279C357.734 140.423 363.296 143.635 363.296 138.495C363.296 135.121 360.898 132.574 359.252 132.677Z" fill="white"/>
<path d="M371.491 139.75C370.626 139.804 369.973 140.586 369.973 142.352C369.973 147.496 375.534 150.708 375.534 145.568C375.534 142.194 373.136 139.647 371.491 139.75Z" fill="white"/>
<path d="M112.934 299.502L184.26 258.278L332.854 344.164L261.527 385.388L112.934 299.502Z" fill="url(#paint42_linear_2427_5448)"/>
<path d="M133.738 301.218L187.232 270.298L309.081 340.726L255.587 371.647L133.738 301.218Z" stroke="white" stroke-width="6" stroke-linecap="round" stroke-linejoin="round"/>
<path d="M145.621 285.417L163.454 275.108L166.426 276.825L148.593 287.133L145.621 285.417Z" fill="white"/>
<path d="M199.122 318.398L222.899 304.656L184.266 299.502L199.126 318.398H199.122Z" fill="white"/>
<path d="M212.785 313.927L221.702 319.082L233.59 312.211L248.451 320.798L224.674 334.539L239.535 343.127L260.34 331.102L266.284 334.539" stroke="white" stroke-width="8" stroke-linecap="round" stroke-linejoin="round"/>
<path d="M227.867 246.809V243.548L246.668 235.939L265.469 243.548V246.809L246.668 257.673L227.867 246.809Z" fill="url(#paint43_linear_2427_5448)"/>
<path d="M227.867 243.548L246.668 232.684L265.469 243.548L246.668 254.412L232.569 246.263L227.867 243.548Z" fill="url(#paint44_linear_2427_5448)"/>
<path d="M234.781 242.815V240.754L246.67 235.944L258.559 240.754V242.815L246.67 249.686L234.781 242.815Z" fill="url(#paint45_linear_2427_5448)"/>
<path d="M234.781 240.754L246.67 233.884L258.559 240.754L246.67 247.625L237.753 242.471L234.781 240.754Z" fill="#EAF7FF"/>
<path d="M56.5273 263.393V256.704L95.0966 241.099L133.666 256.704V263.393L95.0966 285.687L56.5273 263.393Z" fill="url(#paint46_linear_2427_5448)"/>
<path d="M56.5284 256.704L95.0976 234.41L133.667 256.704L95.0976 278.998L66.167 262.277L56.5234 256.704H56.5284Z" fill="url(#paint47_linear_2427_5448)"/>
<path d="M70.707 255.194V250.965L95.0984 241.094L119.49 250.965V255.194L95.0984 269.29L70.707 255.194Z" fill="url(#paint48_linear_2427_5448)"/>
<path d="M70.707 250.965L95.0984 236.869L119.49 250.965L95.0984 265.065L76.8036 254.491L70.707 250.965Z" fill="#EAF7FF"/>
<path d="M106.156 250.63C106.156 253.714 101.145 256.212 94.9645 256.212C88.7843 256.212 83.7734 253.714 83.7734 250.63C83.7734 247.546 88.7843 245.048 94.9645 245.048C101.145 245.048 106.156 247.546 106.156 250.63Z" fill="#BE5AFF"/>
<path d="M95.0528 233.432C90.3907 233.432 86.5883 235.266 86.3967 237.568C86.043 236.796 85.9005 248.688 86.3869 249.922C86.3869 249.991 86.3869 250.06 86.3967 250.129C86.3967 250.139 86.3967 250.144 86.3967 250.153C86.4016 250.217 86.4114 250.281 86.4262 250.345C86.4262 250.36 86.4311 250.375 86.436 250.394C86.4458 250.449 86.4606 250.498 86.4753 250.552C86.4851 250.576 86.49 250.606 86.4999 250.63C86.5146 250.67 86.5293 250.714 86.5441 250.753C86.5539 250.783 86.5686 250.817 86.5834 250.847C86.5834 250.847 86.5834 250.847 86.5834 250.852C86.5981 250.881 86.6129 250.916 86.6276 250.945C86.6522 250.994 86.6767 251.039 86.7013 251.083C86.7111 251.103 86.7259 251.122 86.7357 251.142C86.7652 251.191 86.7946 251.24 86.829 251.29C86.8388 251.304 86.8487 251.319 86.8634 251.339C86.8978 251.388 86.9322 251.437 86.9715 251.486C86.9862 251.506 87.001 251.521 87.0157 251.54C87.055 251.59 87.0992 251.639 87.1434 251.688C87.168 251.717 87.1926 251.742 87.222 251.772C87.2417 251.791 87.2613 251.816 87.281 251.835C87.3154 251.875 87.3547 251.914 87.394 251.949C87.394 251.949 87.4038 251.953 87.4038 251.958C87.4235 251.978 87.448 251.998 87.4726 252.017C87.4726 252.017 87.4775 252.022 87.4824 252.027C87.5217 252.062 87.561 252.096 87.6052 252.131L87.615 252.14C87.615 252.14 87.6543 252.175 87.6789 252.19C87.7329 252.234 87.787 252.273 87.841 252.317C87.841 252.317 87.8754 252.347 87.8951 252.362C87.954 252.406 88.0179 252.45 88.0768 252.49H88.0867C88.0867 252.49 88.121 252.519 88.1407 252.529C88.2144 252.578 88.2881 252.622 88.3618 252.672C88.3667 252.672 88.3716 252.676 88.3765 252.681C88.46 252.731 88.5484 252.785 88.6369 252.829C88.6369 252.829 88.6418 252.829 88.6467 252.834C88.7351 252.883 88.8285 252.932 88.9267 252.981C88.9267 252.981 88.9267 252.981 88.9316 252.981C89.1232 253.075 89.3246 253.168 89.5359 253.257C89.5457 253.257 89.5506 253.262 89.5605 253.267C89.7668 253.35 89.978 253.429 90.1991 253.503C90.2138 253.503 90.2286 253.513 90.2433 253.517C90.4546 253.586 90.6658 253.65 90.8869 253.714C90.9163 253.724 90.9507 253.729 90.9802 253.739C91.1964 253.798 91.4125 253.847 91.6385 253.896C91.6729 253.906 91.7122 253.911 91.7466 253.921C91.9677 253.965 92.1936 254.009 92.4245 254.044C92.4638 254.049 92.508 254.058 92.5523 254.063C92.7832 254.098 93.019 254.127 93.2548 254.152C93.2548 254.152 93.2548 254.152 93.2597 254.152C93.2941 254.152 93.3236 254.157 93.3579 254.162C93.6281 254.186 93.8983 254.211 94.1685 254.221C94.4633 254.236 94.7581 254.245 95.0528 254.245C95.3476 254.245 95.6423 254.236 95.9322 254.221H95.9371C96.2122 254.206 96.4873 254.186 96.7575 254.157C96.787 254.157 96.8165 254.152 96.8459 254.147C97.0916 254.122 97.3323 254.088 97.5681 254.054C97.6074 254.049 97.6467 254.044 97.686 254.034C97.912 253.999 98.138 253.955 98.359 253.911C98.3983 253.901 98.4327 253.896 98.472 253.886C98.698 253.837 98.9142 253.788 99.1303 253.729C99.1549 253.724 99.1844 253.714 99.2089 253.709C99.43 253.65 99.6461 253.581 99.8574 253.513C99.877 253.508 99.8918 253.498 99.9114 253.493C100.128 253.419 100.339 253.34 100.54 253.257C100.55 253.257 100.555 253.252 100.565 253.247C100.776 253.158 100.977 253.07 101.169 252.972C101.262 252.922 101.356 252.873 101.449 252.824C101.454 252.824 101.459 252.819 101.464 252.814C101.547 252.77 101.626 252.726 101.705 252.676H101.714C101.714 252.676 101.734 252.657 101.744 252.652C101.818 252.608 101.891 252.558 101.965 252.514H101.97C101.97 252.514 101.994 252.49 102.009 252.485C102.078 252.44 102.142 252.391 102.206 252.347H102.211C102.211 252.347 102.235 252.322 102.25 252.313C102.304 252.273 102.358 252.229 102.412 252.19C102.437 252.17 102.456 252.15 102.481 252.131C102.525 252.091 102.569 252.057 102.613 252.017C102.643 251.988 102.672 251.963 102.707 251.934C102.707 251.934 102.707 251.934 102.712 251.934C102.741 251.904 102.771 251.88 102.795 251.85C102.83 251.816 102.864 251.781 102.898 251.747C102.923 251.722 102.943 251.698 102.967 251.673C103.016 251.619 103.06 251.565 103.105 251.511C103.11 251.506 103.114 251.496 103.119 251.491C103.119 251.491 103.119 251.491 103.119 251.486C103.154 251.447 103.183 251.403 103.213 251.363C103.218 251.353 103.227 251.344 103.232 251.334C103.247 251.314 103.257 251.299 103.272 251.28C103.306 251.226 103.34 251.171 103.375 251.112C103.375 251.108 103.38 251.103 103.385 251.098C103.385 251.098 103.385 251.098 103.385 251.093C103.414 251.039 103.444 250.985 103.468 250.93C103.478 250.906 103.493 250.881 103.503 250.857C103.503 250.847 103.512 250.837 103.517 250.827C103.527 250.808 103.537 250.783 103.547 250.763C103.566 250.719 103.581 250.67 103.596 250.626C103.596 250.626 103.596 250.626 103.596 250.621C103.601 250.601 103.611 250.581 103.616 250.557C103.63 250.508 103.645 250.453 103.655 250.404C103.655 250.39 103.66 250.37 103.665 250.355C103.675 250.296 103.684 250.232 103.694 250.173C103.694 250.168 103.694 250.158 103.694 250.153C103.699 250.08 103.704 250.011 103.704 249.937C103.704 249.927 103.704 249.922 103.704 249.912C104.456 250.37 104.308 238.138 103.704 237.691C103.625 235.34 99.7788 233.441 95.043 233.441L95.0528 233.432Z" fill="url(#paint49_linear_2427_5448)"/>
<path d="M103.72 237.745C103.72 240.13 99.8444 242.063 95.0595 242.063C90.2745 242.063 86.3984 240.13 86.3984 237.745C86.3984 235.36 90.2745 233.427 95.0595 233.427C99.8444 233.427 103.72 235.36 103.72 237.745Z" fill="url(#paint50_linear_2427_5448)" stroke="white" stroke-width="4" stroke-linecap="round" stroke-linejoin="round"/>
<path d="M92.8997 238.512C93.5678 238.999 94.1377 238.35 94.005 237.986C93.4106 236.324 92.4182 234.799 90.9395 233.451C91.1164 232.512 91.5389 231.558 90.4139 230.687C88.0607 228.415 88.0411 224.49 82.7305 224.323C82.8533 225.381 83.939 226.251 84.6071 227.2C85.8647 230.082 88.1442 232.128 90.6448 233.992C91.7354 235.512 92.4575 237.022 92.8948 238.517L92.8997 238.512Z" fill="url(#paint51_linear_2427_5448)"/>
<path d="M93.9773 237.755C94.5177 238.379 95.2202 237.878 95.1711 237.489C94.9647 235.733 92.4593 229.6 91.3244 227.953C91.7076 227.077 92.3365 226.241 91.4325 225.14C90.1602 221.962 88.1607 214.521 82.5062 213.611C82.3932 214.669 83.253 215.761 83.6902 216.838C84.879 221.038 88.9025 226.035 90.9216 228.41C91.6389 230.136 93.8889 236.196 93.9773 237.75V237.755Z" fill="url(#paint52_linear_2427_5448)"/>
<path d="M97.3669 238.512C96.6987 238.999 96.1289 238.35 96.2615 237.986C96.8559 236.324 97.8483 234.799 99.327 233.451C99.1502 232.512 98.7277 231.558 99.8527 230.687C102.206 228.415 102.225 224.49 107.536 224.323C107.413 225.381 106.328 226.251 105.659 227.2C104.402 230.082 102.122 232.128 99.6218 233.992C98.5312 235.512 97.809 237.022 97.3718 238.517L97.3669 238.512Z" fill="url(#paint53_linear_2427_5448)"/>
<path d="M96.29 237.754C95.7496 238.379 95.0471 237.877 95.0962 237.489C95.3025 235.733 97.808 229.6 98.9428 227.952C98.5596 227.077 97.9308 226.241 98.8347 225.139C100.107 221.962 105.467 211.86 111.126 210.955C111.239 212.012 107.643 216.626 107.206 217.703C106.017 221.903 101.37 226.039 99.3506 228.415C98.6333 230.141 96.3833 236.2 96.2949 237.754H96.29Z" fill="url(#paint54_linear_2427_5448)"/>
<path d="M94.5022 237.927C95.1015 238.458 95.7156 238.094 95.8827 237.927C96.0693 230.864 95.2293 227.751 95.9809 220.688C104.092 220.777 102.122 205.472 102.957 198.148C99.9012 204.872 88.9853 216.193 95.2194 220.565C94.2517 227.667 94.9099 230.82 94.5022 237.927Z" fill="url(#paint55_linear_2427_5448)"/>
<defs>
<linearGradient id="paint0_linear_2427_5448" x1="262.57" y1="187.149" x2="300.997" y2="187.149" gradientUnits="userSpaceOnUse">
<stop stop-color="#BF8EFF"/>
<stop offset="1" stop-color="#37D0FD"/>
</linearGradient>
<linearGradient id="paint1_linear_2427_5448" x1="267.087" y1="179.993" x2="296.375" y2="167.308" gradientUnits="userSpaceOnUse">
<stop stop-color="#3EB6FF"/>
<stop offset="1" stop-color="#B8E4FF"/>
</linearGradient>
<linearGradient id="paint2_linear_2427_5448" x1="254.518" y1="160.759" x2="318.05" y2="160.759" gradientUnits="userSpaceOnUse">
<stop stop-color="#9543FF"/>
<stop offset="1" stop-color="#C598FF"/>
</linearGradient>
<linearGradient id="paint3_linear_2427_5448" x1="254.519" y1="148.179" x2="318.051" y2="148.179" gradientUnits="userSpaceOnUse">
<stop stop-color="#9543FF"/>
<stop offset="1" stop-color="#C598FF"/>
</linearGradient>
<linearGradient id="paint4_linear_2427_5448" x1="254.519" y1="8281.62" x2="318.052" y2="8281.62" gradientUnits="userSpaceOnUse">
<stop stop-color="#9543FF"/>
<stop offset="1" stop-color="#C598FF"/>
</linearGradient>
<linearGradient id="paint5_linear_2427_5448" x1="254.519" y1="145.227" x2="318.052" y2="145.227" gradientUnits="userSpaceOnUse">
<stop stop-color="#9543FF"/>
<stop offset="1" stop-color="#C598FF"/>
</linearGradient>
<linearGradient id="paint6_linear_2427_5448" x1="254.52" y1="131.241" x2="318.053" y2="131.241" gradientUnits="userSpaceOnUse">
<stop stop-color="#9543FF"/>
<stop offset="1" stop-color="#C598FF"/>
</linearGradient>
<linearGradient id="paint7_linear_2427_5448" x1="335.151" y1="93.5478" x2="337.66" y2="66.5382" gradientUnits="userSpaceOnUse">
<stop stop-color="#3EB6FF"/>
<stop offset="1" stop-color="#B8E4FF"/>
</linearGradient>
<linearGradient id="paint8_linear_2427_5448" x1="306.816" y1="235.004" x2="312.275" y2="200.344" gradientUnits="userSpaceOnUse">
<stop stop-color="#3EB6FF"/>
<stop offset="1" stop-color="#B8E4FF"/>
</linearGradient>
<linearGradient id="paint9_linear_2427_5448" x1="306.816" y1="266.487" x2="312.275" y2="231.826" gradientUnits="userSpaceOnUse">
<stop stop-color="#3EB6FF"/>
<stop offset="1" stop-color="#B8E4FF"/>
</linearGradient>
<linearGradient id="paint10_linear_2427_5448" x1="287.887" y1="266.929" x2="309.71" y2="266.929" gradientUnits="userSpaceOnUse">
<stop stop-color="#EAF7FF"/>
<stop offset="1" stop-color="#BFE7FF"/>
</linearGradient>
<linearGradient id="paint11_linear_2427_5448" x1="-4477.21" y1="235.447" x2="-4473.81" y2="235.447" gradientUnits="userSpaceOnUse">
<stop stop-color="#EAF7FF"/>
<stop offset="1" stop-color="#BFE7FF"/>
</linearGradient>
<linearGradient id="paint12_linear_2427_5448" x1="320.604" y1="260.624" x2="320.604" y2="285.845" gradientUnits="userSpaceOnUse">
<stop stop-color="#EAF7FF"/>
<stop offset="1" stop-color="#BFE7FF"/>
</linearGradient>
<linearGradient id="paint13_linear_2427_5448" x1="320.604" y1="229.142" x2="320.604" y2="254.363" gradientUnits="userSpaceOnUse">
<stop stop-color="#EAF7FF"/>
<stop offset="1" stop-color="#BFE7FF"/>
</linearGradient>
<linearGradient id="paint14_linear_2427_5448" x1="-4477.21" y1="203.969" x2="-4473.81" y2="203.969" gradientUnits="userSpaceOnUse">
<stop stop-color="#EAF7FF"/>
<stop offset="1" stop-color="#BFE7FF"/>
</linearGradient>
<linearGradient id="paint15_linear_2427_5448" x1="320.604" y1="197.664" x2="320.604" y2="222.885" gradientUnits="userSpaceOnUse">
<stop stop-color="#EAF7FF"/>
<stop offset="1" stop-color="#BFE7FF"/>
</linearGradient>
<linearGradient id="paint16_linear_2427_5448" x1="103.883" y1="218.17" x2="240.587" y2="218.17" gradientUnits="userSpaceOnUse">
<stop stop-color="#EAF7FF"/>
<stop offset="1" stop-color="#BFE7FF"/>
</linearGradient>
<linearGradient id="paint17_linear_2427_5448" x1="150.141" y1="58.2997" x2="199.022" y2="128.701" gradientUnits="userSpaceOnUse">
<stop stop-color="#EAF7FF"/>
<stop offset="1" stop-color="#BFE7FF"/>
</linearGradient>
<linearGradient id="paint18_linear_2427_5448" x1="167.383" y1="71.4105" x2="216.291" y2="141.812" gradientUnits="userSpaceOnUse">
<stop stop-color="#38B4FF"/>
<stop offset="1" stop-color="#69C6FF"/>
</linearGradient>
<linearGradient id="paint19_linear_2427_5448" x1="160.705" y1="86.5155" x2="217.405" y2="86.5155" gradientUnits="userSpaceOnUse">
<stop stop-color="#EAF7FF"/>
<stop offset="1" stop-color="#BFE7FF"/>
</linearGradient>
<linearGradient id="paint20_linear_2427_5448" x1="408.034" y1="266.103" x2="445.811" y2="255.102" gradientUnits="userSpaceOnUse">
<stop stop-color="#9543FF"/>
<stop offset="1" stop-color="#C598FF"/>
</linearGradient>
<linearGradient id="paint21_linear_2427_5448" x1="450.257" y1="221.43" x2="443.418" y2="221.43" gradientUnits="userSpaceOnUse">
<stop stop-color="#EAF7FF"/>
<stop offset="1" stop-color="#BFE7FF"/>
</linearGradient>
<linearGradient id="paint22_linear_2427_5448" x1="476.007" y1="206.566" x2="417.546" y2="206.566" gradientUnits="userSpaceOnUse">
<stop stop-color="#29AEFF"/>
<stop offset="1" stop-color="#69C6FF"/>
</linearGradient>
<linearGradient id="paint23_linear_2427_5448" x1="482.444" y1="221.43" x2="475.604" y2="221.43" gradientUnits="userSpaceOnUse">
<stop stop-color="#EAF7FF"/>
<stop offset="1" stop-color="#BFE7FF"/>
</linearGradient>
<linearGradient id="paint24_linear_2427_5448" x1="482.646" y1="200.968" x2="443.216" y2="200.968" gradientUnits="userSpaceOnUse">
<stop stop-color="#EAF7FF"/>
<stop offset="1" stop-color="#BFE7FF"/>
</linearGradient>
<linearGradient id="paint25_linear_2427_5448" x1="447.803" y1="182.681" x2="442.443" y2="191.255" gradientUnits="userSpaceOnUse">
<stop stop-color="#EAF7FF"/>
<stop offset="1" stop-color="#BFE7FF"/>
</linearGradient>
<linearGradient id="paint26_linear_2427_5448" x1="450.176" y1="180.506" x2="417.747" y2="180.506" gradientUnits="userSpaceOnUse">
<stop stop-color="#EAF7FF"/>
<stop offset="1" stop-color="#BFE7FF"/>
</linearGradient>
<linearGradient id="paint27_linear_2427_5448" x1="364.847" y1="110.71" x2="367.356" y2="83.7003" gradientUnits="userSpaceOnUse">
<stop stop-color="#3EB6FF"/>
<stop offset="1" stop-color="#B8E4FF"/>
</linearGradient>
<linearGradient id="paint28_linear_2427_5448" x1="336.525" y1="252.164" x2="341.984" y2="217.538" gradientUnits="userSpaceOnUse">
<stop stop-color="#3EB6FF"/>
<stop offset="1" stop-color="#B8E4FF"/>
</linearGradient>
<linearGradient id="paint29_linear_2427_5448" x1="336.525" y1="283.647" x2="341.984" y2="249.021" gradientUnits="userSpaceOnUse">
<stop stop-color="#3EB6FF"/>
<stop offset="1" stop-color="#B8E4FF"/>
</linearGradient>
<linearGradient id="paint30_linear_2427_5448" x1="317.63" y1="284.123" x2="339.419" y2="284.123" gradientUnits="userSpaceOnUse">
<stop stop-color="#EAF7FF"/>
<stop offset="1" stop-color="#BFE7FF"/>
</linearGradient>
<linearGradient id="paint31_linear_2427_5448" x1="317.63" y1="252.641" x2="339.419" y2="252.641" gradientUnits="userSpaceOnUse">
<stop stop-color="#EAF7FF"/>
<stop offset="1" stop-color="#BFE7FF"/>
</linearGradient>
<linearGradient id="paint32_linear_2427_5448" x1="350.314" y1="277.818" x2="350.314" y2="303.005" gradientUnits="userSpaceOnUse">
<stop stop-color="#EAF7FF"/>
<stop offset="1" stop-color="#BFE7FF"/>
</linearGradient>
<linearGradient id="paint33_linear_2427_5448" x1="350.314" y1="246.336" x2="350.314" y2="271.523" gradientUnits="userSpaceOnUse">
<stop stop-color="#EAF7FF"/>
<stop offset="1" stop-color="#BFE7FF"/>
</linearGradient>
<linearGradient id="paint34_linear_2427_5448" x1="317.63" y1="221.124" x2="339.419" y2="221.124" gradientUnits="userSpaceOnUse">
<stop stop-color="#EAF7FF"/>
<stop offset="1" stop-color="#BFE7FF"/>
</linearGradient>
<linearGradient id="paint35_linear_2427_5448" x1="350.314" y1="214.853" x2="350.314" y2="240.04" gradientUnits="userSpaceOnUse">
<stop stop-color="#EAF7FF"/>
<stop offset="1" stop-color="#BFE7FF"/>
</linearGradient>
<linearGradient id="paint36_linear_2427_5448" x1="390.356" y1="232.102" x2="390.356" y2="254.623" gradientUnits="userSpaceOnUse">
<stop stop-color="#EAF7FF"/>
<stop offset="1" stop-color="#BFE7FF"/>
</linearGradient>
<linearGradient id="paint37_linear_2427_5448" x1="205.876" y1="350.816" x2="222.838" y2="323.112" gradientUnits="userSpaceOnUse">
<stop stop-color="#3EB6FF"/>
<stop offset="1" stop-color="#B8E4FF"/>
</linearGradient>
<linearGradient id="paint38_linear_2427_5448" x1="306.794" y1="98.5311" x2="390.187" y2="98.5311" gradientUnits="userSpaceOnUse">
<stop stop-color="#EAF7FF"/>
<stop offset="1" stop-color="#BFE7FF"/>
</linearGradient>
<linearGradient id="paint39_linear_2427_5448" x1="303.842" y1="99.8631" x2="387.235" y2="99.8631" gradientUnits="userSpaceOnUse">
<stop stop-color="#38B4FF"/>
<stop offset="1" stop-color="#69C6FF"/>
</linearGradient>
<linearGradient id="paint40_linear_2427_5448" x1="313.178" y1="130.574" x2="396.571" y2="130.574" gradientUnits="userSpaceOnUse">
<stop stop-color="#EAF7FF"/>
<stop offset="1" stop-color="#BFE7FF"/>
</linearGradient>
<linearGradient id="paint41_linear_2427_5448" x1="-30.243" y1="130.149" x2="78.3916" y2="130.149" gradientUnits="userSpaceOnUse">
<stop stop-color="#3EB6FF"/>
<stop offset="1" stop-color="#B8E4FF"/>
</linearGradient>
<linearGradient id="paint42_linear_2427_5448" x1="363.587" y1="388.875" x2="119.622" y2="272.876" gradientUnits="userSpaceOnUse">
<stop stop-color="#9543FF"/>
<stop offset="1" stop-color="#C598FF"/>
</linearGradient>
<linearGradient id="paint43_linear_2427_5448" x1="245" y1="257.65" x2="245.942" y2="244.063" gradientUnits="userSpaceOnUse">
<stop stop-color="#3EB6FF"/>
<stop offset="1" stop-color="#B8E4FF"/>
</linearGradient>
<linearGradient id="paint44_linear_2427_5448" x1="244.228" y1="234.161" x2="247.997" y2="249.394" gradientUnits="userSpaceOnUse">
<stop stop-color="#EAF7FF"/>
<stop offset="1" stop-color="#BFE7FF"/>
</linearGradient>
<linearGradient id="paint45_linear_2427_5448" x1="245.907" y1="250.663" x2="246.503" y2="242.055" gradientUnits="userSpaceOnUse">
<stop stop-color="#3EB6FF"/>
<stop offset="1" stop-color="#B8E4FF"/>
</linearGradient>
<linearGradient id="paint46_linear_2427_5448" x1="93.5962" y1="292.209" x2="95.5278" y2="264.352" gradientUnits="userSpaceOnUse">
<stop stop-color="#3EB6FF"/>
<stop offset="1" stop-color="#B8E4FF"/>
</linearGradient>
<linearGradient id="paint47_linear_2427_5448" x1="91.9382" y1="243.832" x2="99.6639" y2="275.062" gradientUnits="userSpaceOnUse">
<stop stop-color="#EAF7FF"/>
<stop offset="1" stop-color="#BFE7FF"/>
</linearGradient>
<linearGradient id="paint48_linear_2427_5448" x1="94.601" y1="275.239" x2="95.822" y2="257.63" gradientUnits="userSpaceOnUse">
<stop stop-color="#3EB6FF"/>
<stop offset="1" stop-color="#B8E4FF"/>
</linearGradient>
<linearGradient id="paint49_linear_2427_5448" x1="86.7288" y1="244.569" x2="104.055" y2="244.569" gradientUnits="userSpaceOnUse">
<stop stop-color="#BF8EFF"/>
<stop offset="1" stop-color="#37D0FD"/>
</linearGradient>
<linearGradient id="paint50_linear_2427_5448" x1="88.7891" y1="241.363" x2="102.003" y2="235.649" gradientUnits="userSpaceOnUse">
<stop stop-color="#3EB6FF"/>
<stop offset="1" stop-color="#B8E4FF"/>
</linearGradient>
<linearGradient id="paint51_linear_2427_5448" x1="83.5041" y1="233.219" x2="112.146" y2="233.219" gradientUnits="userSpaceOnUse">
<stop stop-color="#9543FF"/>
<stop offset="1" stop-color="#C598FF"/>
</linearGradient>
<linearGradient id="paint52_linear_2427_5448" x1="83.5059" y1="227.597" x2="112.148" y2="227.597" gradientUnits="userSpaceOnUse">
<stop stop-color="#9543FF"/>
<stop offset="1" stop-color="#C598FF"/>
</linearGradient>
<linearGradient id="paint53_linear_2427_5448" x1="83.5057" y1="233.219" x2="112.148" y2="233.219" gradientUnits="userSpaceOnUse">
<stop stop-color="#9543FF"/>
<stop offset="1" stop-color="#C598FF"/>
</linearGradient>
<linearGradient id="paint54_linear_2427_5448" x1="83.5047" y1="226.261" x2="112.147" y2="226.261" gradientUnits="userSpaceOnUse">
<stop stop-color="#9543FF"/>
<stop offset="1" stop-color="#C598FF"/>
</linearGradient>
<linearGradient id="paint55_linear_2427_5448" x1="83.5051" y1="219.936" x2="112.147" y2="219.936" gradientUnits="userSpaceOnUse">
<stop stop-color="#9543FF"/>
<stop offset="1" stop-color="#C598FF"/>
</linearGradient>
</defs>
</svg>
