<svg width="100" height="100" viewBox="0 0 100 100" fill="none" xmlns="http://www.w3.org/2000/svg">
<path d="M61 28.5136L49.5507 17H25.1847L13 32.0403L37.3693 57L39.3729 55.5275" stroke="#3DD3F2" stroke-width="3" stroke-linecap="round" stroke-linejoin="round"/>
<path d="M16 32H55" stroke="#3DD3F2" stroke-width="3" stroke-linecap="round" stroke-linejoin="round"/>
<path d="M38 17V44" stroke="#3DD3F2" stroke-width="3" stroke-linecap="round" stroke-linejoin="round"/>
<path d="M66 65C68.7614 65 71 62.7614 71 60C71 57.2386 68.7614 55 66 55C63.2386 55 61 57.2386 61 60C61 62.7614 63.2386 65 66 65Z" stroke="black" stroke-width="3" stroke-linecap="round" stroke-linejoin="round"/>
<path d="M70.8601 40.2253L72.373 45.1748C72.621 45.997 73.1733 46.6944 73.9179 47.1257C74.6626 47.557 75.544 47.6899 76.3833 47.4975L81.4208 46.3329C82.3722 46.1306 83.3635 46.2345 84.2518 46.6298C85.1402 47.025 85.8797 47.6911 86.364 48.5322C86.8482 49.3732 87.0522 50.3457 86.9465 51.3097C86.8408 52.2737 86.4308 53.1794 85.7757 53.8962L82.2609 57.6812C81.6741 58.3126 81.3482 59.1415 81.3482 60.0022C81.3482 60.8629 81.6741 61.6918 82.2609 62.3232L85.7823 66.1114C86.4454 66.8255 86.8621 67.7323 86.9713 68.6992C87.0805 69.6662 86.8766 70.6426 86.3893 71.4858C85.902 72.3289 85.157 72.9946 84.263 73.3855C83.3691 73.7764 82.3732 73.8721 81.4208 73.6584L76.3833 72.4971C75.5444 72.3045 74.6634 72.4369 73.9188 72.8676C73.1742 73.2982 72.6216 73.9949 72.373 74.8165L70.8601 79.7693C70.5789 80.7031 70.0033 81.5218 69.2185 82.1037C68.4337 82.6857 67.4817 83 66.5036 83C65.5255 83 64.5734 82.6857 63.7886 82.1037C63.0039 81.5218 62.4282 80.7031 62.147 79.7693L60.6341 74.8165C60.3848 73.9947 59.8316 73.2979 59.0865 72.8673C58.3413 72.4367 57.4599 72.3044 56.6206 72.4971L51.5863 73.6584C50.6321 73.8741 49.6335 73.7791 48.7374 73.3873C47.8413 72.9956 47.0948 72.3277 46.6075 71.4819C46.1203 70.636 45.9179 69.6566 46.0302 68.6877C46.1425 67.7187 46.5635 66.8112 47.2315 66.0983L50.7561 62.3232C51.3428 61.6918 51.6688 60.8629 51.6688 60.0022C51.6688 59.1415 51.3428 58.3126 50.7561 57.6812L47.2347 53.8962C46.5796 53.1794 46.1697 52.2737 46.064 51.3097C45.9582 50.3457 46.1622 49.3732 46.6464 48.5322C47.1307 47.6911 47.8703 47.025 48.7586 46.6298C49.647 46.2345 50.6382 46.1306 51.5896 46.3329L56.6238 47.4975C57.4636 47.69 58.3454 47.5572 59.0906 47.126C59.8358 46.6947 60.3888 45.9972 60.6374 45.1748L62.1503 40.2253C62.4324 39.2927 63.0082 38.4755 63.7926 37.8946C64.5769 37.3137 65.5281 37 66.5052 37C67.4824 37 68.4335 37.3137 69.2179 37.8946C70.0022 38.4755 70.578 39.2927 70.8601 40.2253Z" stroke="black" stroke-width="3" stroke-linecap="round" stroke-linejoin="round"/>
</svg>
