<svg width="64" height="64" viewBox="0 0 64 64" fill="none" xmlns="http://www.w3.org/2000/svg">
<path d="M61 2H3C2.73478 2 2.48043 2.10536 2.29289 2.29289C2.10536 2.48043 2 2.73478 2 3V7C2 7.26522 2.10536 7.51957 2.29289 7.70711C2.48043 7.89464 2.73478 8 3 8H4V45C4 45.2652 4.10536 45.5196 4.29289 45.7071C4.48043 45.8946 4.73478 46 5 46H31V52.142C30.0573 52.3854 29.2358 52.9642 28.6894 53.77C28.143 54.5758 27.9092 55.5532 28.0319 56.519C28.1546 57.4848 28.6253 58.3727 29.3558 59.0163C30.0863 59.6599 31.0264 60.015 32 60.015C32.9736 60.015 33.9137 59.6599 34.6442 59.0163C35.3747 58.3727 35.8454 57.4848 35.9681 56.519C36.0908 55.5532 35.857 54.5758 35.3106 53.77C34.7642 52.9642 33.9427 52.3854 33 52.142V46H59C59.2652 46 59.5196 45.8946 59.7071 45.7071C59.8946 45.5196 60 45.2652 60 45V8H61C61.2652 8 61.5196 7.89464 61.7071 7.70711C61.8946 7.51957 62 7.26522 62 7V3C62 2.73478 61.8946 2.48043 61.7071 2.29289C61.5196 2.10536 61.2652 2 61 2ZM34 56C34 56.3956 33.8827 56.7822 33.6629 57.1111C33.4432 57.44 33.1308 57.6964 32.7654 57.8478C32.3999 57.9991 31.9978 58.0387 31.6098 57.9616C31.2219 57.8844 30.8655 57.6939 30.5858 57.4142C30.3061 57.1345 30.1156 56.7781 30.0384 56.3902C29.9613 56.0022 30.0009 55.6001 30.1522 55.2346C30.3036 54.8692 30.56 54.5568 30.8889 54.3371C31.2178 54.1173 31.6044 54 32 54C32.5304 54 33.0391 54.2107 33.4142 54.5858C33.7893 54.9609 34 55.4696 34 56ZM58 44H6V8H58V44ZM60 6H4V4H60V6Z" fill="#796EF5"/>
<path d="M14 40C15.0609 40 16.0783 39.5786 16.8284 38.8284C17.5786 38.0783 18 37.0609 18 36C17.9951 35.4106 17.8584 34.8297 17.6 34.3L23.671 29.247C24.4749 29.8334 25.4707 30.0944 26.4589 29.9777C27.4471 29.8611 28.3547 29.3754 29 28.618L34.091 31.164C33.95 31.8013 33.9671 32.4633 34.1407 33.0925C34.3144 33.7216 34.6394 34.2987 35.0873 34.7734C35.5352 35.2481 36.0925 35.6059 36.7105 35.8158C37.3285 36.0256 37.9885 36.081 38.6328 35.9772C39.2772 35.8734 39.8864 35.6135 40.4072 35.2201C40.928 34.8268 41.3447 34.312 41.6208 33.7206C41.897 33.1293 42.0243 32.4793 41.9915 31.8275C41.9588 31.1756 41.767 30.5417 41.433 29.981L47.981 23.433C48.5906 23.8006 49.2882 23.9965 50 24C50.7911 24 51.5645 23.7654 52.2223 23.3259C52.8801 22.8864 53.3928 22.2616 53.6955 21.5307C53.9983 20.7998 54.0775 19.9956 53.9231 19.2196C53.7688 18.4437 53.3878 17.731 52.8284 17.1716C52.269 16.6122 51.5563 16.2312 50.7804 16.0769C50.0044 15.9225 49.2002 16.0017 48.4693 16.3045C47.7384 16.6072 47.1136 17.1199 46.6741 17.7777C46.2346 18.4355 46 19.2089 46 20C46.0035 20.7118 46.1994 21.4094 46.567 22.019L40.019 28.567C39.222 28.0844 38.2792 27.9013 37.3595 28.0507C36.4398 28.2 35.6033 28.672 35 29.382L29.909 26.836C30.0461 26.2136 30.0326 25.5675 29.8694 24.9515C29.7063 24.3354 29.3984 23.7673 28.9712 23.2943C28.5441 22.8214 28.0101 22.4573 27.4138 22.2325C26.8175 22.0077 26.1761 21.9286 25.5431 22.0018C24.91 22.075 24.3036 22.2985 23.7744 22.6535C23.2452 23.0085 22.8084 23.4848 22.5005 24.0428C22.1926 24.6007 22.0225 25.2242 22.0043 25.8612C21.9861 26.4982 22.1204 27.1304 22.396 27.705L16.325 32.758C15.8131 32.3881 15.2209 32.1446 14.5968 32.0476C13.9728 31.9505 13.3346 32.0026 12.7345 32.1996C12.1345 32.3966 11.5896 32.7328 11.1444 33.1809C10.6993 33.6289 10.3666 34.176 10.1736 34.7773C9.9805 35.3787 9.93259 36.0172 10.0337 36.6406C10.1349 37.264 10.3822 37.8546 10.7554 38.3641C11.1287 38.8735 11.6173 39.2874 12.1812 39.5717C12.7452 39.8561 13.3684 40.0028 14 40ZM50 18C50.3289 17.9998 50.6528 18.0807 50.943 18.2355C51.2332 18.3904 51.4807 18.6144 51.6636 18.8877C51.8465 19.1611 51.9592 19.4754 51.9917 19.8027C52.0241 20.13 51.9753 20.4602 51.8497 20.7642C51.724 21.0682 51.5253 21.3364 51.2712 21.5452C51.017 21.7541 50.7153 21.897 50.3928 21.9613C50.0702 22.0257 49.7368 22.0095 49.422 21.9142C49.1072 21.8189 48.8207 21.6474 48.588 21.415C48.3082 21.1355 48.1175 20.7792 48.0401 20.3913C47.9627 20.0035 48.002 19.6013 48.1532 19.2358C48.3043 18.8703 48.5604 18.5578 48.8892 18.3378C49.2179 18.1178 49.6045 18.0003 50 18ZM38 30C38.2623 29.9999 38.522 30.0515 38.7643 30.1518C39.0066 30.2522 39.2267 30.3994 39.412 30.585C39.7394 30.9121 39.9433 31.3426 39.9889 31.8032C40.0344 32.2637 39.9188 32.7259 39.6618 33.1107C39.4047 33.4956 39.0222 33.7794 38.5793 33.9138C38.1364 34.0482 37.6606 34.0248 37.2331 33.8477C36.8055 33.6706 36.4526 33.3506 36.2345 32.9424C36.0164 32.5342 35.9467 32.0629 36.0372 31.609C36.1276 31.1552 36.3727 30.7467 36.7306 30.4533C37.0886 30.1599 37.5372 29.9997 38 30ZM26 24C26.3956 24 26.7822 24.1173 27.1111 24.3371C27.44 24.5568 27.6964 24.8692 27.8478 25.2346C27.9991 25.6001 28.0387 26.0022 27.9616 26.3902C27.8844 26.7781 27.6939 27.1345 27.4142 27.4142C27.1345 27.6939 26.7781 27.8844 26.3902 27.9616C26.0022 28.0387 25.6001 27.9991 25.2346 27.8478C24.8692 27.6964 24.5568 27.44 24.3371 27.1111C24.1173 26.7822 24 26.3956 24 26C24 25.4696 24.2107 24.9609 24.5858 24.5858C24.9609 24.2107 25.4696 24 26 24ZM14 34C14.3956 34 14.7822 34.1173 15.1111 34.3371C15.44 34.5568 15.6964 34.8692 15.8478 35.2346C15.9991 35.6001 16.0387 36.0022 15.9616 36.3902C15.8844 36.7781 15.6939 37.1345 15.4142 37.4142C15.1345 37.6939 14.7781 37.8844 14.3902 37.9616C14.0022 38.0387 13.6001 37.9991 13.2346 37.8478C12.8692 37.6964 12.5568 37.44 12.3371 37.1111C12.1173 36.7822 12 36.3956 12 36C12 35.4696 12.2107 34.9609 12.5858 34.5858C12.9609 34.2107 13.4696 34 14 34ZM11 14H19C19.2652 14 19.5196 13.8946 19.7071 13.7071C19.8946 13.5196 20 13.2652 20 13C20 12.7348 19.8946 12.4804 19.7071 12.2929C19.5196 12.1054 19.2652 12 19 12H11C10.7348 12 10.4804 12.1054 10.2929 12.2929C10.1054 12.4804 10 12.7348 10 13C10 13.2652 10.1054 13.5196 10.2929 13.7071C10.4804 13.8946 10.7348 14 11 14ZM11 18H19C19.2652 18 19.5196 17.8946 19.7071 17.7071C19.8946 17.5196 20 17.2652 20 17C20 16.7348 19.8946 16.4804 19.7071 16.2929C19.5196 16.1054 19.2652 16 19 16H11C10.7348 16 10.4804 16.1054 10.2929 16.2929C10.1054 16.4804 10 16.7348 10 17C10 17.2652 10.1054 17.5196 10.2929 17.7071C10.4804 17.8946 10.7348 18 11 18ZM11 22H19C19.2652 22 19.5196 21.8946 19.7071 21.7071C19.8946 21.5196 20 21.2652 20 21C20 20.7348 19.8946 20.4804 19.7071 20.2929C19.5196 20.1054 19.2652 20 19 20H11C10.7348 20 10.4804 20.1054 10.2929 20.2929C10.1054 20.4804 10 20.7348 10 21C10 21.2652 10.1054 21.5196 10.2929 21.7071C10.4804 21.8946 10.7348 22 11 22Z" fill="#796EF5"/>
</svg>
