<svg width="64" height="64" viewBox="0 0 64 64" fill="none" xmlns="http://www.w3.org/2000/svg">
<path d="M61 2H3C2.73478 2 2.48043 2.10536 2.29289 2.29289C2.10536 2.48043 2 2.73478 2 3V61C2 61.2652 2.10536 61.5196 2.29289 61.7071C2.48043 61.8946 2.73478 62 3 62H61C61.2652 62 61.5196 61.8946 61.7071 61.7071C61.8946 61.5196 62 61.2652 62 61V3C62 2.73478 61.8946 2.48043 61.7071 2.29289C61.5196 2.10536 61.2652 2 61 2ZM60 4V10H4V4H60ZM4 60V12H60V60H4Z" fill="#7764F0"/>
<path d="M6 6H8V8H6V6ZM10 6H12V8H10V6ZM14 6H16V8H14V6ZM49 17H46C44.848 17.0019 43.7319 17.4007 42.8395 18.1293C41.9472 18.8578 41.3332 19.8717 41.101 21H33V19H31V21H17V19H15V21H6V23H15V25H17V23H31V25H33V23H41.101C41.3331 24.1284 41.947 25.1424 42.8394 25.871C43.7317 26.5996 44.848 26.9983 46 27H49C50.152 26.9981 51.2681 26.5993 52.1605 25.8707C53.0528 25.1422 53.6668 24.1283 53.899 23H58V21H53.899C53.6668 19.8717 53.0528 18.8578 52.1605 18.1293C51.2681 17.4007 50.152 17.0019 49 17ZM49 25H46C44.346 25 43 23.654 43 22C43 20.346 44.346 19 46 19H49C50.654 19 52 20.346 52 22C52 23.654 50.654 25 49 25ZM49 33H47V35H33V33H31V35H20.899C20.6669 33.8716 20.053 32.8576 19.1606 32.129C18.2683 31.4004 17.152 31.0017 16 31H13C11.848 31.0019 10.7319 31.4007 9.83954 32.1293C8.94722 32.8578 8.33323 33.8717 8.101 35H6V37H8.101C8.33306 38.1284 8.947 39.1424 9.83936 39.871C10.7317 40.5996 11.848 40.9983 13 41H16C17.152 40.9981 18.2681 40.5993 19.1605 39.8707C20.0528 39.1422 20.6668 38.1283 20.899 37H31V39H33V37H47V39H49V37H58V35H49V33ZM16 39H13C11.346 39 10 37.654 10 36C10 34.346 11.346 33 13 33H16C17.654 33 19 34.346 19 36C19 37.654 17.654 39 16 39ZM49 47H47V49H38.899C38.6669 47.8716 38.053 46.8576 37.1606 46.129C36.2683 45.4004 35.152 45.0017 34 45H31C29.848 45.0019 28.7319 45.4007 27.8395 46.1293C26.9472 46.8578 26.3332 47.8717 26.101 49H17V47H15V49H6V51H15V53H17V51H26.101C26.3331 52.1284 26.947 53.1424 27.8394 53.871C28.7317 54.5996 29.848 54.9983 31 55H34C35.152 54.9981 36.2681 54.5993 37.1605 53.8707C38.0528 53.1422 38.6668 52.1283 38.899 51H47V53H49V51H58V49H49V47ZM34 53H31C29.346 53 28 51.654 28 50C28 48.346 29.346 47 31 47H34C35.654 47 37 48.346 37 50C37 51.654 35.654 53 34 53Z" fill="#7764F0"/>
</svg>
