<svg width="80" height="80" viewBox="0 0 80 80" fill="none" xmlns="http://www.w3.org/2000/svg">
<path d="M56.9507 18.6253V12.6618C56.9507 11.2364 55.2272 10.5225 54.2193 11.5305L43.6819 22.0677C43.0571 22.6925 43.0571 23.7055 43.6819 24.3305L54.2193 34.8677C55.2272 35.8757 56.9507 35.1618 56.9507 33.7364V27.7879C63.6184 27.8695 69.0184 33.3122 69.0184 39.9989C69.0184 46.7365 63.5379 52.2178 56.8004 52.2178C50.0628 52.2178 44.5824 46.7365 44.5824 39.9989C44.5824 28.2084 34.9902 18.6178 23.2004 18.6178C11.4105 18.6178 1.81836 28.2084 1.81836 39.9989C1.81836 51.7053 11.2766 61.2317 22.9507 61.3676V67.3364C22.9507 68.7618 24.674 69.4757 25.6819 68.4677L36.2193 57.9305C36.8441 57.3055 36.8441 56.2925 36.2193 55.6677L25.6819 45.1305C24.674 44.1225 22.9507 44.8364 22.9507 46.2618V52.205C16.3291 52.0703 10.9824 46.6522 10.9824 39.9989C10.9824 33.2615 16.4628 27.7802 23.2004 27.7802C29.9379 27.7802 35.4184 33.2615 35.4184 39.9989C35.4184 51.7897 45.0105 61.3802 56.8004 61.3802C68.5902 61.3802 78.1824 51.7897 78.1824 39.9989C78.1824 28.2591 68.6708 18.7073 56.9507 18.6253Z" fill="#7764F0"/>
<path d="M56.9507 18.6253V12.6618C56.9507 11.2364 55.2272 10.5225 54.2193 11.5305L43.6819 22.0677C43.0571 22.6925 43.0571 23.7055 43.6819 24.3305L54.2193 34.8677C55.2272 35.8757 56.9507 35.1618 56.9507 33.7364V27.7879C63.6184 27.8695 69.0184 33.3122 69.0184 39.9989C69.0184 46.7365 63.5379 52.2178 56.8004 52.2178C50.0628 52.2178 44.5824 46.7365 44.5824 39.9989C44.5824 28.2084 34.9902 18.6178 23.2004 18.6178C11.4105 18.6178 1.81836 28.2084 1.81836 39.9989C1.81836 51.7053 11.2766 61.2317 22.9507 61.3676V67.3364C22.9507 68.7618 24.674 69.4757 25.6819 68.4677L36.2193 57.9305C36.8441 57.3055 36.8441 56.2925 36.2193 55.6677L25.6819 45.1305C24.674 44.1225 22.9507 44.8364 22.9507 46.2618V52.205C16.3291 52.0703 10.9824 46.6522 10.9824 39.9989C10.9824 33.2615 16.4628 27.7802 23.2004 27.7802C29.9379 27.7802 35.4184 33.2615 35.4184 39.9989C35.4184 51.7897 45.0105 61.3802 56.8004 61.3802C68.5902 61.3802 78.1824 51.7897 78.1824 39.9989C78.1824 28.2591 68.6708 18.7073 56.9507 18.6253Z" fill="#7764F0"/>
</svg>
