<svg width="70" height="70" viewBox="0 0 70 70" fill="none" xmlns="http://www.w3.org/2000/svg">
<path d="M10.9373 23.7837H59.0009C59.7037 23.7837 60.2737 23.2139 60.2737 22.511C60.2737 21.8081 59.7037 21.2383 59.0009 21.2383H10.9373C10.2345 21.2383 9.66455 21.8081 9.66455 22.511C9.66455 23.2139 10.2344 23.7837 10.9373 23.7837ZM10.9373 31.8468H59.0009C59.7037 31.8468 60.2737 31.277 60.2737 30.5741C60.2737 29.8712 59.7037 29.3014 59.0009 29.3014H10.9373C10.2345 29.3014 9.66455 29.8712 9.66455 30.5741C9.66455 31.277 10.2344 31.8468 10.9373 31.8468ZM10.9373 39.91H34.969C35.6718 39.91 36.2418 39.3402 36.2418 38.6372C36.2418 37.9343 35.6718 37.3645 34.969 37.3645H10.9373C10.2345 37.3645 9.66455 37.9343 9.66455 38.6372C9.66455 39.3402 10.2344 39.91 10.9373 39.91ZM10.9373 47.9732H34.969C35.6718 47.9732 36.2418 47.4034 36.2418 46.7005C36.2418 45.9975 35.6718 45.4277 34.969 45.4277H10.9373C10.2345 45.4277 9.66455 45.9975 9.66455 46.7005C9.66455 47.4034 10.2344 47.9732 10.9373 47.9732Z" fill="#7764F0"/>
<path d="M67.5511 13.1074H2.38747C1.68467 13.1074 1.11475 13.6772 1.11475 14.3801V55.6248C1.11475 56.3277 1.68467 56.8975 2.38747 56.8975H43.1557V62.2017C43.1557 62.4386 43.2218 62.6707 43.3466 62.8721C43.4713 63.0734 43.6498 63.2359 43.8618 63.3414C44.0739 63.4468 44.3112 63.491 44.547 63.4689C44.7829 63.4469 45.0078 63.3594 45.1967 63.2165L49.9755 59.5982L54.7543 63.2165C54.9431 63.3595 55.1681 63.447 55.404 63.4691C55.6398 63.4912 55.8771 63.447 56.0892 63.3415C56.3013 63.236 56.4797 63.0734 56.6044 62.8721C56.7292 62.6707 56.7953 62.4386 56.7953 62.2017V56.8975H67.5511C68.2539 56.8975 68.8238 56.3277 68.8238 55.6248V14.3801C68.8238 13.6772 68.2539 13.1074 67.5511 13.1074ZM50.3414 50.8944C50.3307 50.895 50.3203 50.8962 50.3096 50.8967C50.087 50.908 49.864 50.908 49.6414 50.8967C49.6307 50.8962 49.6203 50.895 49.6099 50.8944C46.1764 50.704 43.4415 47.8513 43.4415 44.3713C43.4415 40.7685 46.3725 37.8374 49.9755 37.8374C53.5783 37.8374 56.5093 40.7685 56.5093 44.3713C56.5093 47.8513 53.7746 50.7039 50.3414 50.8944ZM54.2498 59.6418L50.7437 56.9872C50.5165 56.8152 50.2461 56.7293 49.9755 56.7293C49.7049 56.7293 49.4345 56.8153 49.2073 56.9872L45.7012 59.6418V52.3865C46.7287 52.9364 47.856 53.2812 49.0325 53.4017C49.0413 53.4026 49.0502 53.4037 49.059 53.4045C49.1997 53.4185 49.3407 53.4293 49.4818 53.4367C49.5045 53.438 49.5271 53.4387 49.5499 53.4398C49.6912 53.4463 49.8331 53.4506 49.9755 53.4506C50.1179 53.4506 50.2597 53.4463 50.4011 53.4398C50.4239 53.4387 50.4465 53.4379 50.4692 53.4367C50.6104 53.4292 50.7515 53.4185 50.8923 53.4045L50.918 53.4017C52.0946 53.2812 53.2221 52.9364 54.2498 52.3863V59.6418ZM66.2784 54.3521H56.7953V50.3552C58.2001 48.756 59.0548 46.6621 59.0548 44.3712C59.0548 39.3648 54.9818 35.2918 49.9755 35.2918C44.9691 35.2918 40.896 39.3648 40.896 44.3712C40.896 46.6621 41.7508 48.7561 43.1557 50.3553V54.3519H3.6602V15.6529H66.2784V54.3521Z" fill="#7764F0"/>
</svg>
