<svg width="70" height="70" viewBox="0 0 70 70" fill="none" xmlns="http://www.w3.org/2000/svg">
<g clip-path="url(#clip0_1311_73)">
<path d="M4.79103 -0.00195312C2.17479 -0.00195312 0.0126953 2.14807 0.0126953 4.76477V11.1318C0.0126953 13.7485 2.17479 15.8985 4.79103 15.8985H9.56004V28.6295C9.55924 28.8394 9.59998 29.0475 9.67995 29.2417C9.75992 29.4358 9.87753 29.6122 10.026 29.7607C10.1744 29.9091 10.3508 30.0267 10.5449 30.1067C10.739 30.1867 10.947 30.2275 11.157 30.2267H15.5563L20.6453 32.7716V36.5937H11.157C10.7351 36.5921 10.3299 36.7581 10.0304 37.0553C9.73097 37.3525 9.56173 37.7565 9.56004 38.1785V54.0914H4.79103C2.17479 54.0914 0.0126953 56.2445 0.0126953 58.8612V65.2251C0.0126953 67.8418 2.17479 69.995 4.79103 69.995H17.5074C20.1236 69.995 22.2888 67.8418 22.2888 65.2251V58.8612C22.2888 56.2445 20.1236 54.0914 17.5074 54.0914H12.7415V39.7632H20.6453V43.228C20.6453 44.6604 21.2471 45.9697 22.1583 46.963C23.0695 47.9564 24.2663 48.6835 25.61 49.2532C28.2975 50.3926 31.6555 50.9094 35.0176 50.9094C38.3796 50.9094 41.7221 50.3926 44.4096 49.2532C45.7533 48.6835 46.9532 47.9564 47.8644 46.963C48.7755 45.9697 49.3774 44.6604 49.3774 43.228V39.7632H57.2812V54.0914H52.5122C49.896 54.0914 47.7339 56.2445 47.7339 58.8612V65.2251C47.7339 67.8418 49.896 69.995 52.5122 69.995H65.2286C67.8448 69.995 70.01 67.8418 70.01 65.2251V58.8612C70.01 56.2445 67.8448 54.0914 65.2286 54.0914H60.4627V38.1785C60.461 37.7587 60.2935 37.3566 59.9967 37.0597C59.6999 36.7629 59.2979 36.5954 58.8782 36.5937H49.3774V32.7716L54.4664 30.2267H58.8782C59.3 30.225 59.704 30.0558 60.0011 29.7562C60.2982 29.4567 60.4643 29.0514 60.4627 28.6295V15.8985H65.2286C67.8448 15.8985 70.01 13.7485 70.01 11.1318V4.76477C70.01 2.14807 67.8448 -0.00195312 65.2286 -0.00195312H52.5122C49.896 -0.00195312 47.7339 2.14807 47.7339 4.76477V11.1318C47.7339 13.7485 49.896 15.8985 52.5122 15.8985H57.2812V27.0447H54.4851L35.7228 17.6604C35.4895 17.5448 35.2313 17.4882 34.971 17.4957C34.7379 17.5008 34.5088 17.557 34.2999 17.6604L15.5376 27.0447H12.7415V15.8985H17.5074C20.1236 15.8985 22.2888 13.7485 22.2888 11.1318V4.76477C22.2888 2.14807 20.1236 -0.00195312 17.5074 -0.00195312H4.79103ZM4.79103 3.18001H17.5074C18.416 3.18001 19.1043 3.85585 19.1043 4.76477V11.1318C19.1043 12.0407 18.416 12.729 17.5074 12.729H4.79103C3.88231 12.729 3.19411 12.0407 3.19411 11.1318V4.76477C3.19411 3.85585 3.88231 3.18001 4.79103 3.18001ZM52.5122 3.18001H65.2286C66.1374 3.18001 66.8255 3.85585 66.8255 4.76477V11.1318C66.8255 12.0407 66.1374 12.729 65.2286 12.729H52.5122C51.6035 12.729 50.9153 12.0407 50.9153 11.1318V4.76477C50.9153 3.85585 51.6035 3.18001 52.5122 3.18001ZM6.37863 6.36197V9.54703H9.56004V6.36197H6.37863ZM12.7415 6.36197V9.54703H15.9229V6.36197H12.7415ZM54.0998 6.36197V9.54703H57.2812V6.36197H54.0998ZM60.4627 6.36197V9.54703H63.6441V6.36197H60.4627ZM35.0051 20.8672L50.5518 28.6295L35.0176 36.4041L19.4709 28.6295L35.0051 20.8672ZM23.8267 34.3626L34.2999 39.5985C34.5208 39.709 34.7644 39.7665 35.0114 39.7665C35.2583 39.7665 35.5019 39.709 35.7228 39.5985L46.196 34.3626V43.228C46.196 43.8263 46.0016 44.2829 45.5156 44.8127C45.0296 45.3426 44.2307 45.8834 43.1793 46.3291C41.0765 47.2206 38.0425 47.7274 35.0176 47.7274C31.9926 47.7274 28.9462 47.2206 26.8434 46.3291C25.7921 45.8834 24.9931 45.3426 24.5071 44.8127C24.0211 44.2829 23.8267 43.8263 23.8267 43.228V34.3626ZM4.79103 57.2764H17.5074C18.4162 57.2764 19.1043 57.9523 19.1043 58.8612V65.2251C19.1043 66.134 18.4162 66.8099 17.5074 66.8099H4.79103C3.88231 66.8099 3.19411 66.134 3.19411 65.2251V58.8612C3.19411 57.9523 3.88231 57.2764 4.79103 57.2764ZM52.5122 57.2764H65.2286C66.1372 57.2764 66.8255 57.9523 66.8255 58.8612V65.2251C66.8255 66.134 66.1372 66.8099 65.2286 66.8099H52.5122C51.6035 66.8099 50.9153 66.134 50.9153 65.2251V58.8612C50.9153 57.9523 51.6035 57.2764 52.5122 57.2764ZM6.37863 60.4584V63.6279H9.56004V60.4584H6.37863ZM12.7415 60.4584V63.6279H15.9229V60.4584H12.7415ZM54.0998 60.4584V63.6279H57.2812V60.4584H54.0998ZM60.4627 60.4584V63.6279H63.6441V60.4584H60.4627Z" fill="#7764F0"/>
</g>
<defs>
<clipPath id="clip0_1311_73">
<rect width="70" height="70" fill="white"/>
</clipPath>
</defs>
</svg>
