<svg width="80" height="80" viewBox="0 0 80 80" fill="none" xmlns="http://www.w3.org/2000/svg">
<path d="M37.4984 2.50472C37.1696 2.5072 36.855 2.6389 36.6225 2.87139C36.3901 3.10388 36.2583 3.41849 36.2559 3.74727V7.4938H33.7519C33.5038 7.49358 33.2613 7.56706 33.055 7.70491C32.8488 7.84276 32.6882 8.03877 32.5935 8.26807C32.4989 8.49737 32.4745 8.74962 32.5234 8.99281C32.5723 9.236 32.6924 9.45917 32.8684 9.634L40.3662 17.1365C40.8575 17.6231 41.6418 17.6231 42.1332 17.1365L49.6357 9.634C49.8119 9.45889 49.9321 9.23528 49.9809 8.99165C50.0297 8.74801 50.0049 8.49537 49.9097 8.26587C49.8144 8.03638 49.6531 7.84042 49.4461 7.70293C49.2391 7.56544 48.9959 7.49264 48.7475 7.4938H46.2435V3.74727C46.2422 3.41767 46.1111 3.10185 45.8785 2.86835C45.6458 2.63484 45.3305 2.50249 45.0009 2.5L37.4984 2.50472ZM38.7457 5.00399H43.7489V8.75052C43.7489 9.44029 44.3159 9.99779 45.0009 9.99306H45.7285L41.2449 14.4813L36.7614 9.99306H37.4984C37.8297 9.99432 38.1479 9.86426 38.3834 9.63138C38.619 9.39849 38.7526 9.08175 38.7551 8.75052L38.7457 5.00399ZM27.525 12.4876C27.3578 12.4844 27.1917 12.5148 27.0364 12.5769C26.8812 12.639 26.7399 12.7316 26.621 12.8491C26.5021 12.9667 26.408 13.1069 26.3441 13.2615C26.2803 13.416 26.2481 13.5818 26.2494 13.749V15.5207C26.2872 17.1507 28.7108 17.1507 28.7534 15.5207V13.749C28.7559 13.4194 28.6284 13.1021 28.3984 12.8659C28.1684 12.6297 27.8546 12.4938 27.525 12.4876ZM54.9743 12.4876C54.6448 12.4938 54.3309 12.6297 54.101 12.8659C53.871 13.1021 53.7434 13.4194 53.746 13.749V15.5207C53.7885 17.1507 56.2122 17.1507 56.25 15.5207V13.749C56.2513 13.5818 56.219 13.416 56.1552 13.2615C56.0914 13.1069 55.9972 12.9667 55.8783 12.8491C55.7594 12.7316 55.6182 12.639 55.4629 12.5769C55.3077 12.5148 55.1415 12.4844 54.9743 12.4876ZM20.7028 17.4672L21.6194 18.3838C22.8572 19.5507 24.5344 17.7743 23.3816 16.6215L22.4651 15.705C22.2386 15.4718 21.9301 15.3362 21.6052 15.327C21.3559 15.324 21.1114 15.3954 20.903 15.5321C20.6945 15.6689 20.5317 15.8648 20.4353 16.0947C20.3388 16.3246 20.3132 16.578 20.3618 16.8225C20.4103 17.0671 20.5259 17.2915 20.7028 17.4672ZM60.0343 15.705L59.1177 16.6215C57.965 17.7743 59.6422 19.5507 60.88 18.3838L61.7965 17.4672C61.9737 17.2913 62.0942 17.0663 62.1426 16.8214C62.191 16.5764 62.165 16.3225 62.068 16.0924C61.971 15.8623 61.8073 15.6665 61.5982 15.5301C61.389 15.3937 61.1438 15.323 60.8942 15.327C60.5692 15.3362 60.2607 15.4718 60.0343 15.705ZM22.0682 30.7761C21.4904 30.1377 20.7855 29.6272 19.9987 29.2773C19.2119 28.9274 18.3607 28.746 17.4996 28.7446C16.3483 28.7437 15.219 29.0608 14.2365 29.661C13.2539 30.2612 12.4562 31.1211 11.9314 32.1458C11.4066 33.1706 11.175 34.3204 11.2621 35.4684C11.3493 36.6165 11.7519 37.7181 12.4255 38.6519C10.1719 40.3527 8.74983 43.1307 8.74983 46.2536V47.4962C8.74983 49.5891 10.4412 51.2427 12.4964 51.2474H20.5138C20.939 52.2443 21.4493 53.1939 22.0021 54.1105L8.5703 64.9532C5.34346 67.5564 5.64111 72.4557 8.47109 75.2762C11.2916 78.1015 16.1909 78.4133 18.7941 75.1865L29.6369 61.7453C33.1349 63.8733 37.1504 64.9993 41.2449 65.0004C45.6711 65.0003 49.999 63.6956 53.6878 61.2496C57.3767 58.8035 60.2628 55.3245 61.9855 51.2474H70.003C70.4954 51.2474 70.983 51.1504 71.4378 50.9618C71.8927 50.7732 72.3059 50.4968 72.6539 50.1484C73.0018 49.8 73.2777 49.3864 73.4657 48.9313C73.6537 48.4763 73.7501 47.9886 73.7495 47.4962V46.2536C73.7495 43.1307 72.3274 40.348 70.0739 38.6519C70.7472 37.7185 71.1497 36.6172 71.2371 35.4696C71.3245 34.322 71.0933 33.1725 70.569 32.1479C70.0448 31.1233 69.2478 30.2634 68.2659 29.6629C67.284 29.0623 66.1554 28.7446 65.0045 28.7446C63.1808 28.7446 61.565 29.5383 60.4312 30.7761C58.4267 27.4856 55.6094 24.7661 52.2501 22.879C48.8909 20.9919 45.1027 20.0007 41.2497 20.0007C37.3967 20.0007 33.6085 20.9919 30.2492 22.879C26.89 24.7661 24.0727 27.4856 22.0682 30.7761ZM18.761 21.2516C18.429 21.2516 18.1106 21.3835 17.8758 21.6183C17.641 21.853 17.5091 22.1715 17.5091 22.5035C17.5091 22.8356 17.641 23.154 17.8758 23.3888C18.1106 23.6236 18.429 23.7555 18.761 23.7555H20.5375C22.1674 23.713 22.1674 21.2893 20.5375 21.2516H18.761ZM61.9619 21.2516C60.3319 21.2893 60.3319 23.713 61.9619 23.7555H63.7383C64.0704 23.7555 64.3888 23.6236 64.6236 23.3888C64.8584 23.154 64.9903 22.8356 64.9903 22.5035C64.9903 22.1715 64.8584 21.853 64.6236 21.6183C64.3888 21.3835 64.0704 21.2516 63.7383 21.2516H61.9619ZM41.2449 22.4988C46.5499 22.5013 51.6369 24.6095 55.3885 28.3602C59.1401 32.1109 61.2495 37.1974 61.2532 42.5024C61.1725 47.7538 59.0297 52.7628 55.2876 56.4479C51.5454 60.133 46.5041 62.1985 41.252 62.1985C36 62.1985 30.9587 60.133 27.2165 56.4479C23.4743 52.7628 21.3316 47.7538 21.2509 42.5024C21.2509 31.447 30.2274 22.4988 41.2449 22.4988ZM41.2449 25.0028C38.923 24.9656 36.6168 25.3909 34.4609 26.254C32.305 27.1171 30.3424 28.4006 28.6875 30.0298C27.0327 31.659 25.7186 33.6013 24.822 35.7435C23.9254 37.8857 23.4641 40.1849 23.465 42.5072C23.466 44.8295 23.9291 47.1283 24.8275 49.2698C25.7259 51.4112 27.0415 53.3525 28.6976 54.9804C30.3538 56.6082 32.3174 57.8902 34.4741 58.7515C36.6307 59.6128 38.9372 60.0363 41.2591 59.9972C45.9003 59.9953 50.3506 58.1498 53.6311 54.8667C56.9116 51.5835 58.7535 47.1317 58.7516 42.4906C58.7497 37.8494 56.9042 33.399 53.6211 30.1186C50.3379 26.8381 45.8861 25.0009 41.2449 25.0028ZM41.2449 27.4973C45.223 27.5023 49.0367 29.0848 51.8496 31.8977C54.6625 34.7106 56.245 38.5243 56.25 42.5024C56.1517 46.4155 54.5283 50.1354 51.7259 52.8683C48.9235 55.6012 45.1641 57.1309 41.2497 57.1309C37.3353 57.1309 33.5759 55.6012 30.7735 52.8683C27.9711 50.1354 26.3476 46.4155 26.2494 42.5024C26.2506 38.5248 27.8306 34.7104 30.6423 31.8969C33.454 29.0835 37.2674 27.5011 41.2449 27.4973ZM34.9992 36.2471C34.9992 37.6172 35.4244 38.8739 36.1803 39.9086C33.9267 41.6094 32.4952 44.3874 32.4952 47.5056V48.7529C32.4952 50.8411 34.1913 52.4994 36.2464 52.4994H46.2529C47.2466 52.4994 48.1995 52.1047 48.9021 51.4021C49.6047 50.6995 49.9995 49.7465 49.9995 48.7529V47.5056C49.9995 44.3874 48.5727 41.6047 46.3191 39.9086C46.8941 39.1093 47.2721 38.1854 47.4223 37.2123C47.5725 36.2391 47.4907 35.2443 47.1835 34.3088C46.8764 33.3732 46.3525 32.5235 45.6547 31.8288C44.9568 31.1342 44.1048 30.6142 43.1679 30.3113C42.2309 30.0084 41.2357 29.9311 40.2633 30.0857C39.2909 30.2403 38.3687 30.6225 37.572 31.2011C36.7753 31.7798 36.1265 32.5384 35.6786 33.4153C35.2307 34.2922 35.001 35.2625 34.9992 36.2471ZM20.7784 33.2045C20.0286 34.8488 19.4812 36.578 19.1485 38.3543C18.636 38.6143 18.0696 38.7502 17.4949 38.7511C16.5 38.7511 15.5458 38.3559 14.8423 37.6524C14.1388 36.9489 13.7436 35.9947 13.7436 34.9999C13.7436 34.005 14.1388 33.0508 14.8423 32.3473C15.5458 31.6438 16.5 31.2486 17.4949 31.2486C18.9028 31.2486 20.1406 32.0376 20.7784 33.2045ZM64.9997 31.2486C65.9946 31.2486 66.9488 31.6438 67.6523 32.3473C68.3558 33.0508 68.751 34.005 68.751 34.9999C68.751 35.9947 68.3558 36.9489 67.6523 37.6524C66.9488 38.3559 65.9946 38.7511 64.9997 38.7511C64.4283 38.7486 63.8653 38.6127 63.3556 38.3543C63.023 36.578 62.4756 34.8487 61.7257 33.2045C62.0463 32.6152 62.5193 32.1228 63.0952 31.7788C63.6711 31.4347 64.3289 31.2516 64.9997 31.2486ZM41.2497 32.5006C41.7423 32.5006 42.2301 32.5976 42.6852 32.7861C43.1403 32.9747 43.5539 33.251 43.9022 33.5993C44.2506 33.9476 44.5269 34.3612 44.7154 34.8163C44.9039 35.2714 45.0009 35.7592 45.0009 36.2518C45.0009 36.7445 44.9039 37.2323 44.7154 37.6874C44.5269 38.1425 44.2506 38.556 43.9022 38.9044C43.5539 39.2527 43.1403 39.529 42.6852 39.7176C42.2301 39.9061 41.7423 40.0031 41.2497 40.0031C40.2548 40.0031 39.3006 39.6079 38.5971 38.9044C37.8936 38.2009 37.4984 37.2467 37.4984 36.2518C37.4984 35.257 37.8936 34.3028 38.5971 33.5993C39.3006 32.8958 40.2548 32.5006 41.2497 32.5006ZM17.4996 41.2504C17.9532 41.2504 18.3973 41.1937 18.8225 41.0992C18.7894 41.5669 18.7469 42.0299 18.7469 42.5024C18.7469 44.6756 19.0729 46.7639 19.6445 48.7482H12.4964C12.332 48.7488 12.1691 48.7168 12.0172 48.654C11.8653 48.5913 11.7273 48.499 11.6113 48.3826C11.4953 48.2661 11.4036 48.1278 11.3414 47.9757C11.2792 47.8235 11.2478 47.6605 11.2491 47.4962V46.2536C11.2491 43.7024 12.5153 41.5244 14.32 40.3763C15.246 40.9197 16.3374 41.2504 17.4996 41.2504ZM71.2455 46.2536V47.4962C71.2468 47.6605 71.2154 47.8235 71.1532 47.9757C71.0911 48.1278 70.9993 48.2661 70.8833 48.3826C70.7673 48.499 70.6293 48.5913 70.4774 48.654C70.3255 48.7168 70.1626 48.7488 69.9983 48.7482H62.8501C63.4218 46.7639 63.7478 44.6709 63.7478 42.5024C63.7478 42.0299 63.7052 41.5669 63.6769 41.0992C64.1021 41.1937 64.5415 41.2504 64.9997 41.2504C66.1572 41.2504 67.2486 40.9197 68.1746 40.3763C69.9794 41.5244 71.2455 43.7024 71.2455 46.2536ZM38.0795 41.6331C39.0008 42.1764 40.0922 42.5024 41.2544 42.5024C42.4166 42.5024 43.508 42.1716 44.4293 41.6331C46.2388 42.7764 47.5049 44.9591 47.5049 47.5056V48.7529C47.5055 48.9168 47.4737 49.0793 47.4112 49.2309C47.3488 49.3825 47.2569 49.5203 47.141 49.6362C47.025 49.7522 46.8873 49.844 46.7357 49.9065C46.5841 49.9689 46.4216 50.0008 46.2576 50.0001C42.8229 50.0001 39.4449 50.0096 36.2512 50.0001C36.0872 50.0008 35.9247 49.9689 35.7731 49.9065C35.6215 49.844 35.4838 49.7522 35.3678 49.6362C35.2519 49.5203 35.16 49.3825 35.0976 49.2309C35.0351 49.0793 35.0033 48.9168 35.0039 48.7529V47.5056C35.0039 44.9544 36.2701 42.7811 38.0748 41.6331H38.0795ZM23.4194 56.1845C24.6194 57.7436 26.0132 59.1326 27.5675 60.3326L16.8524 73.6085C15.2885 75.5455 12.1042 75.3849 10.238 73.514C8.36715 71.6478 8.20651 68.4682 10.1436 66.8997L23.4194 56.1845Z" fill="#796EF5"/>
</svg>
