<svg width="70" height="70" viewBox="0 0 70 70" fill="none" xmlns="http://www.w3.org/2000/svg">
<path d="M61.25 30.7125V27.3438C61.25 27.0537 61.1348 26.7755 60.9296 26.5704C60.7245 26.3652 60.4463 26.25 60.1562 26.25H46.3214L36.0938 18.0677V13.125H44.8438C45.1338 13.125 45.412 13.0098 45.6171 12.8046C45.8223 12.5995 45.9375 12.3213 45.9375 12.0312V3.28125C45.9375 2.99117 45.8223 2.71297 45.6171 2.50785C45.412 2.30273 45.1338 2.1875 44.8438 2.1875H25.1562C24.8662 2.1875 24.588 2.30273 24.3829 2.50785C24.1777 2.71297 24.0625 2.99117 24.0625 3.28125V12.0312C24.0625 12.3213 24.1777 12.5995 24.3829 12.8046C24.588 13.0098 24.8662 13.125 25.1562 13.125H33.9062V18.0677L23.6786 26.25H9.84375C9.55367 26.25 9.27547 26.3652 9.07035 26.5704C8.86523 26.7755 8.75 27.0537 8.75 27.3438V30.7125C5.04656 31.2462 2.1875 34.4323 2.1875 38.2812C2.1875 42.1302 5.04656 45.3162 8.75 45.85V59.0625H4.375C4.08492 59.0625 3.80672 59.1777 3.6016 59.3829C3.39648 59.588 3.28125 59.8662 3.28125 60.1562V66.7188C3.28125 67.0088 3.39648 67.287 3.6016 67.4921C3.80672 67.6973 4.08492 67.8125 4.375 67.8125H15.3125C15.6026 67.8125 15.8808 67.6973 16.0859 67.4921C16.291 67.287 16.4062 67.0088 16.4062 66.7188V60.1562C16.4062 59.8662 16.291 59.588 16.0859 59.3829C15.8808 59.1777 15.6026 59.0625 15.3125 59.0625H10.9375V45.85C14.6409 45.3162 17.5 42.1302 17.5 38.2812C17.5 34.4323 14.6409 31.2462 10.9375 30.7125V28.4375H23.6786L33.9062 36.6198V52.5H28.4375C26.0247 52.5 24.0625 54.4622 24.0625 56.875C24.0625 59.2878 26.0247 61.25 28.4375 61.25H41.5625C43.9753 61.25 45.9375 59.2878 45.9375 56.875C45.9375 54.4622 43.9753 52.5 41.5625 52.5H36.0938V36.6198L46.3214 28.4375H59.0625V30.7125C55.3591 31.2462 52.5 34.4323 52.5 38.2812C52.5 42.1302 55.3591 45.3162 59.0625 45.85V59.0625H54.6875C54.3974 59.0625 54.1192 59.1777 53.9141 59.3829C53.709 59.588 53.5938 59.8662 53.5938 60.1562V66.7188C53.5938 67.0088 53.709 67.287 53.9141 67.4921C54.1192 67.6973 54.3974 67.8125 54.6875 67.8125H65.625C65.9151 67.8125 66.1933 67.6973 66.3984 67.4921C66.6035 67.287 66.7188 67.0088 66.7188 66.7188V60.1562C66.7188 59.8662 66.6035 59.588 66.3984 59.3829C66.1933 59.1777 65.9151 59.0625 65.625 59.0625H61.25V45.85C64.9534 45.3162 67.8125 42.1302 67.8125 38.2812C67.8125 34.4323 64.9534 31.2462 61.25 30.7125ZM26.25 4.375H43.75V10.9375H26.25V4.375ZM14.2188 65.625H5.46875V61.25H14.2188V65.625ZM15.3125 38.2812C15.3125 41.2967 12.8592 43.75 9.84375 43.75C6.82828 43.75 4.375 41.2967 4.375 38.2812C4.375 35.2658 6.82828 32.8125 9.84375 32.8125C12.8592 32.8125 15.3125 35.2658 15.3125 38.2812ZM43.75 56.875C43.75 58.0814 42.7689 59.0625 41.5625 59.0625H28.4375C27.2311 59.0625 26.25 58.0814 26.25 56.875C26.25 55.6686 27.2311 54.6875 28.4375 54.6875H41.5625C42.7689 54.6875 43.75 55.6686 43.75 56.875ZM35 34.6927L25.8136 27.3438L35 19.9948L44.1864 27.3438L35 34.6927ZM64.5312 65.625H55.7812V61.25H64.5312V65.625ZM60.1562 43.75C57.1408 43.75 54.6875 41.2967 54.6875 38.2812C54.6875 35.2658 57.1408 32.8125 60.1562 32.8125C63.1717 32.8125 65.625 35.2658 65.625 38.2812C65.625 41.2967 63.1717 43.75 60.1562 43.75Z" fill="#796EF5"/>
<path d="M29.5312 6.5625H31.7188V8.75H29.5312V6.5625ZM33.9062 6.5625H36.0938V8.75H33.9062V6.5625ZM38.2812 6.5625H40.4688V8.75H38.2812V6.5625Z" fill="#796EF5"/>
</svg>
