<svg width="100" height="100" viewBox="0 0 100 100" fill="none" xmlns="http://www.w3.org/2000/svg">
<path d="M86 67C86 70.7578 84.8857 74.4313 82.7979 77.5558C80.7102 80.6804 77.7428 83.1156 74.271 84.5537C70.7992 85.9918 66.9789 86.368 63.2933 85.6349C59.6077 84.9018 56.2222 83.0922 53.565 80.435C50.9078 77.7778 49.0982 74.3924 48.3651 70.7067C47.632 67.0211 48.0082 63.2008 49.4463 59.729C50.8844 56.2572 53.3196 53.2898 56.4442 51.2021C59.5687 49.1143 63.2422 48 67 48" stroke="#00CCF5" stroke-width="3" stroke-linecap="round" stroke-linejoin="round"/>
<path d="M86 52L68.7612 70.2662C68.542 70.4988 68.2816 70.6834 67.995 70.8093C67.7084 70.9352 67.4012 71 67.0909 71C66.7806 71 66.4734 70.9352 66.1868 70.8093C65.9002 70.6834 65.6398 70.4988 65.4206 70.2662L60 64.5325" stroke="#00CCF5" stroke-width="3" stroke-linecap="round" stroke-linejoin="round"/>
<path d="M40.2308 76H23.5385C21.0087 76 18.5826 74.9951 16.7938 73.2063C15.0049 71.4174 14 68.9913 14 66.4615V23.5385C14 21.0087 15.0049 18.5826 16.7938 16.7938C18.5826 15.0049 21.0087 14 23.5385 14H66.4615C68.9913 14 71.4174 15.0049 73.2063 16.7938C74.9951 18.5826 76 21.0087 76 23.5385V37.8462" stroke="black" stroke-width="3" stroke-linecap="round" stroke-linejoin="round"/>
<path d="M14 67H38" stroke="black" stroke-width="3" stroke-linecap="round" stroke-linejoin="round"/>
<path d="M57 14V23.3333C57 24.571 56.4996 25.758 55.6088 26.6332C54.718 27.5083 53.5098 28 52.25 28H38" stroke="black" stroke-width="3" stroke-linecap="round" stroke-linejoin="round"/>
<path d="M38 28V38L33 43L28 38V28H38Z" stroke="black" stroke-width="3" stroke-linecap="round" stroke-linejoin="round"/>
<path d="M67 28H76" stroke="black" stroke-width="3" stroke-linecap="round" stroke-linejoin="round"/>
<path d="M14 28H19" stroke="black" stroke-width="3" stroke-linecap="round" stroke-linejoin="round"/>
</svg>
