<svg width="1512" height="490" viewBox="0 0 1512 490" fill="none" xmlns="http://www.w3.org/2000/svg">
<path d="M1512 1.89526L1362.85 51.4788C1321.84 65.1109 1292.55 101.397 1287.87 144.356V144.356C1284.24 177.633 1265.72 207.472 1237.51 225.494L1202.28 248.006C1177.71 263.705 1166.5 293.776 1174.79 321.73V321.73C1180.99 342.586 1176.4 365.156 1162.56 381.943L1158.37 387.034C1134.43 416.067 1134.7 458.069 1159.02 486.787L1160.78 488.87" stroke="#9A92F9" stroke-opacity="0.2" stroke-width="3"/>
<path d="M1441.99 1.89526L1292.84 51.4788C1251.83 65.1109 1222.54 101.397 1217.86 144.356V144.356C1214.23 177.633 1195.71 207.472 1167.5 225.494L1132.27 248.006C1107.7 263.705 1096.48 293.776 1104.78 321.73V321.73C1110.98 342.586 1106.39 365.156 1092.55 381.943L1088.35 387.034C1064.42 416.067 1064.69 458.069 1089.01 486.787L1090.77 488.87" stroke="#9A92F9" stroke-opacity="0.2" stroke-width="3"/>
<path d="M1371.98 1.89526L1222.83 51.4788C1181.82 65.1109 1152.53 101.397 1147.84 144.356V144.356C1144.22 177.633 1125.7 207.472 1097.49 225.494L1062.26 248.006C1037.68 263.705 1026.47 293.776 1034.77 321.73V321.73C1040.96 342.586 1036.38 365.156 1022.54 381.943L1018.34 387.034C994.408 416.067 994.682 458.069 1018.99 486.787L1020.76 488.87" stroke="#9A92F9" stroke-opacity="0.2" stroke-width="3"/>
<path d="M137.896 247.008C137.896 356 39.4665 444.622 -82.3006 444.622C-204.068 444.622 -302.498 356 -302.498 247.008C-302.498 138.017 -204.068 49.3953 -82.3006 49.3953C39.4665 49.3953 137.896 138.017 137.896 247.008Z" stroke="#2D22AA" stroke-opacity="0.29" stroke-width="3"/>
<path d="M111.361 223.945C111.361 332.936 12.9313 421.558 -108.836 421.558C-230.603 421.558 -329.033 332.936 -329.033 223.945C-329.033 114.954 -230.603 26.332 -108.836 26.332C12.9313 26.332 111.361 114.954 111.361 223.945Z" stroke="#2D22AA" stroke-opacity="0.29" stroke-width="3"/>
<path d="M174.703 280.835C174.703 389.826 76.2736 478.448 -45.4935 478.448C-167.261 478.448 -265.69 389.826 -265.69 280.835C-265.69 171.844 -167.261 83.2217 -45.4935 83.2217C76.2736 83.2217 174.703 171.844 174.703 280.835Z" stroke="#2D22AA" stroke-opacity="0.29" stroke-width="3"/>
<path d="M79.6903 200.113C79.6903 309.104 -18.7396 397.726 -140.507 397.726C-262.274 397.726 -360.704 309.104 -360.704 200.113C-360.704 91.1219 -262.274 2.5 -140.507 2.5C-18.7396 2.5 79.6903 91.1219 79.6903 200.113Z" stroke="#2D22AA" stroke-opacity="0.29" stroke-width="3"/>
</svg>
