<svg width="1264" height="351" viewBox="0 0 1264 351" fill="none" xmlns="http://www.w3.org/2000/svg">
<g clip-path="url(#clip0_907_4)">
<path d="M979.981 -48.8258C978.902 -48.1519 977.629 -47.6614 976.255 -47.3904C974.508 -47.3904 974.742 -47.3905 980.213 -41.3964C990.555 -30.2288 995.168 -16.7852 993.253 -3.40525C991.739 23.6107 978.001 46.743 943.89 79.1623C918.045 104.067 910.245 117.154 915.018 128.551C917.579 134.63 924.099 139.019 944.705 148.644C960.812 155.636 974.985 164.74 986.5 175.491C999.437 188.227 1016.73 198.295 1036.68 204.702C1041.57 206.222 1056.7 209.852 1070.44 213.144C1115.84 223.107 1125.04 226.146 1139.13 235.433C1153.21 244.72 1159.03 255.694 1160.78 284.399C1162.53 313.103 1165.09 321.461 1173.47 330.411C1177.91 335.204 1184.18 338.959 1191.51 341.217C1201.52 344.826 1212.59 346.622 1223.76 346.451C1248.21 347.211 1265.44 344.594 1315.15 332.605C1375.57 318 1380.7 316.987 1395.95 315.72C1406.05 314.256 1416.53 315.331 1425.68 318.769C1434.82 322.207 1442.07 327.802 1446.24 334.632C1463.94 356.329 1474.65 364.433 1493.51 371.188C1512.56 377.085 1532.99 380.294 1553.7 380.643C1578.34 381.397 1603.02 380.407 1627.39 377.688L1655.8 375.409H1659.06V370.934C1659.06 368.401 1659.06 366.122 1658.01 365.953C1652.47 365.945 1646.94 366.284 1641.48 366.966C1622.75 369.009 1603.83 369.997 1584.9 369.921C1560.22 370.758 1535.58 367.675 1512.72 360.887C1493.04 354.049 1484.78 346.198 1467.31 317.916C1457.77 302.465 1447.87 296.556 1428.66 295.205C1414.34 294.276 1392.69 298.666 1353.57 310.402C1322.75 320.868 1290.19 328.416 1256.71 332.859C1217.83 336.405 1193.73 326.527 1186.86 304.407C1184.96 294.733 1184.1 284.967 1184.3 275.196C1183.25 249.869 1182.2 242.946 1177.2 232.984C1173.68 225.461 1167.4 218.777 1159.03 213.651C1143.43 203.182 1127.48 199.214 1088.37 195.584C1035.86 190.856 1020.73 186.044 993.834 165.36C983.493 156.971 971.763 149.542 958.909 143.24C942.609 134.798 937.138 131.083 933.646 126.356C925.962 115.802 931.201 103.645 953.67 79.6687C980.446 51.2176 991.855 33.9104 998.141 12.1289C1001.22 -1.71186 1001.22 -15.8207 998.141 -29.6615C995.531 -37.1894 990.369 -44.125 983.124 -49.8389C981.894 -49.502 980.753 -49.0169 979.747 -48.4038L979.981 -48.8258Z" fill="#EA716E" fill-opacity="0.13"/>
<path d="M1014.33 -47.8993C1019.17 -37.0254 1020.79 -25.5281 1019.08 -14.1654C1015.42 14.8835 1003.57 43.0738 984.283 68.6514C971.058 88.3011 968.97 92.6026 968.854 101.289C968.854 112.674 973.842 118.156 995.766 132.493C1029.41 153.998 1041.24 158.384 1070.35 160.324C1090.02 160.956 1109.73 160.421 1129.28 158.721C1147.3 157.044 1165.6 158.43 1182.76 162.769C1203.87 169.6 1216.4 184.359 1222.78 210.165C1226.16 224.795 1227.87 239.605 1227.88 254.441C1228.93 278.054 1230.09 283.452 1235.54 291.633C1243.2 302.596 1259.44 307.487 1281.94 305.633C1304.44 303.777 1322.19 299.476 1365.69 285.561C1409.19 271.645 1421.14 268.694 1439.24 268.272C1448.92 267.22 1458.82 268.424 1467.51 271.711C1476.2 274.999 1483.23 280.201 1487.61 286.573C1491.72 293.062 1495.36 299.706 1498.51 306.476C1502.57 314.909 1507.33 323.849 1509.18 326.631C1513.6 333.151 1519.89 338.904 1527.63 343.498C1543.98 350.738 1562.39 355.152 1581.45 356.402C1601.91 357.674 1622.48 357.674 1642.93 356.402L1659.06 355.39V346.788H1629.36C1615.82 347.302 1602.25 346.737 1588.88 345.101C1570.94 343.523 1554.06 338.09 1540.39 329.499C1530.7 322.483 1523.67 313.769 1519.97 304.199C1514.94 292.833 1508.34 281.87 1500.25 271.477C1496.41 267.041 1491.33 263.246 1485.33 260.339C1479.34 257.433 1472.56 255.48 1465.45 254.61C1456.03 253.253 1446.34 253.253 1436.92 254.61C1419.63 256.549 1408.03 259.501 1358.5 274.344C1325.32 284.211 1309.9 286.994 1290.87 286.488C1286.36 286.822 1281.8 286.437 1277.51 285.359C1273.23 284.281 1269.31 282.537 1266.05 280.248C1257.58 274.344 1252.82 263.38 1250.5 244.574C1247.96 222.5 1243.35 200.578 1236.7 178.961C1226.61 152.143 1207.82 141.348 1170.93 141.348C1163.85 141.348 1150.51 142.023 1141.12 142.782L1111.07 145.396C1093.74 146.984 1076.2 146.984 1058.87 145.396C1037.51 141.845 1018.11 133.705 1003.19 122.036C993.26 116.585 986.379 108.707 983.818 99.8558C981.614 91.4216 983.818 84.422 997.622 60.5554C1013.08 35.1858 1022.94 8.20576 1026.85 -19.3942C1028.09 -28.702 1027.31 -38.0936 1024.53 -47.2245C1023.61 -49.7545 1023.49 -49.8389 1018.85 -49.8389C1014.21 -49.8389 1014.21 -49.8391 1014.91 -48.2367L1014.33 -47.8993Z" fill="#EA716E" fill-opacity="0.13"/>
<path d="M1071.14 -48.151C1071.14 -47.2225 1069.86 -43.0023 1068.93 -38.6134C1068 -34.2245 1065.44 -25.8686 1063.35 -19.8759C1061.25 -13.8833 1056.84 -2.15142 1053.7 6.37328C1047.65 21.0968 1044.33 36.3386 1043.81 51.6979C1043.81 66.1308 1047.3 73.5584 1056.49 79.5509C1062.21 83.2483 1069.13 85.8322 1076.6 87.0627C1085.95 88.8974 1095.68 89.4699 1105.32 88.7508C1129.73 88.7508 1135.19 88.2444 1182.63 80.9014C1230.06 73.5584 1245.18 72.0389 1259.94 72.9672C1288.19 74.6554 1301.33 82.8424 1306.44 101.917C1307.26 104.956 1308.19 116.013 1308.88 127.829C1308.25 143.214 1311.2 158.566 1317.6 173.238C1320.07 180.244 1324.91 186.688 1331.7 191.983C1338.48 197.276 1346.99 201.25 1356.43 203.539C1370.73 206.999 1376.55 207.421 1421.54 207.505C1439.12 207.084 1456.71 207.535 1474.21 208.856C1498.54 211.464 1521.56 218.554 1541.05 229.45C1546.05 231.982 1561.98 242.364 1576.63 252.492C1610.58 275.956 1628.25 285.41 1653.24 293.09L1659.06 294.947V282.962L1652.2 279.67C1632.09 269.964 1606.97 256.628 1589.42 246.331C1569.11 233.527 1546.75 222.558 1522.8 213.667C1495.95 203.961 1477.46 201.428 1425.49 199.994C1407.19 200.041 1388.93 198.568 1371.08 195.605C1360.18 193.52 1350.31 189.247 1342.6 183.276C1334.89 177.305 1329.65 169.877 1327.49 161.844C1322.88 148.043 1321.27 133.804 1322.72 119.642C1322.72 93.8152 1322.02 88.582 1317.14 80.7326C1313.23 75.3859 1307.46 70.8754 1300.4 67.6499C1285.71 62.6932 1269.36 60.9062 1253.31 62.5014C1232.85 63.8738 1212.59 66.4996 1192.74 70.3509C1141.82 78.7909 1137.17 79.2973 1112.29 79.2973C1102.1 80.1788 1091.77 79.5179 1081.95 77.3564C1075.67 76.2393 1069.89 73.9794 1065.15 70.7898C1060.41 67.5998 1056.87 63.585 1054.86 59.1251C1052.86 53.6238 1052.19 47.912 1052.88 42.2445C1052.88 25.7859 1054.97 17.9364 1067.18 -12.6174C1072.03 -24.1015 1075.64 -35.8401 1077.99 -47.7288C1077.99 -49.6701 1077.99 -49.8389 1074.97 -49.8389C1071.95 -49.8389 1071.72 -49.8391 1071.48 -48.2354L1071.14 -48.151Z" fill="#EA716E" fill-opacity="0.13"/>
<path d="M1116.26 -44.567C1113.82 -37.3099 1109.87 -26.5087 1105.46 -15.7918C1100.22 -5.17899 1097.55 6.01265 1097.57 17.2875C1097.45 21.338 1098.85 25.3349 1101.63 28.8483C1103.76 31.7733 1106.71 34.3424 1110.29 36.3912C1113.87 38.44 1118 39.9234 1122.41 40.7467C1130.23 42.2934 1138.36 42.8359 1146.44 42.35C1168.03 42.35 1172.55 41.7593 1221.66 33.9114C1243.14 29.5202 1265.28 27.0549 1287.59 26.57C1302.57 25.7937 1317.63 26.9653 1332.05 30.0298C1373.14 38.4684 1385.91 58.299 1378.48 102.264C1375.73 115.607 1375.73 129.173 1378.48 142.516C1380.58 148.836 1384.9 154.651 1391.02 159.393C1402.62 167.831 1416.21 170.954 1462.75 176.27C1482.55 178.033 1502.15 180.853 1521.37 184.709C1541.22 188.759 1600.66 199.138 1612.26 200.573C1617.02 201.164 1627.01 202.177 1634.32 202.767C1642.36 202.933 1650.27 204.312 1657.54 206.817C1658.58 207.492 1658.81 205.974 1658.81 197.872C1659.37 194.363 1658.97 190.808 1657.65 187.409C1649.95 186.696 1642.2 186.357 1634.44 186.396C1595.45 185.078 1556.65 181.665 1518.36 176.185C1507.44 174.413 1489.1 171.798 1477.5 170.363C1460.98 168.817 1444.68 166.276 1428.74 162.768C1407.15 157.62 1397.52 150.87 1392.53 137.453C1390.06 125.593 1390.06 113.532 1392.53 101.673C1397.05 73.1504 1395.08 57.7925 1384.98 44.1221C1376.16 32.2237 1361.07 25.7262 1330.66 20.5787C1320.23 19.0444 1309.58 18.5054 1298.97 18.9753C1274.74 18.7451 1250.6 21.134 1227.34 26.0637C1184.16 33.0677 1167.1 34.5022 1150.15 34.5022C1123.92 33.4052 1111.5 26.0637 1109.99 10.7899C1110.11 -0.710514 1112.86 -12.1163 1118.11 -22.9643C1121.48 -32.3311 1124.26 -41.276 1124.38 -42.795C1124.5 -44.3139 1124.38 -45.4109 1120.78 -45.6641C1117.18 -45.9172 1116.95 -45.6641 1116.37 -43.8076L1116.26 -44.567Z" fill="#EA716E" fill-opacity="0.13"/>
<path d="M1225.5 -44.9474C1222.82 -44.9474 1220.61 -44.4474 1220.61 -44.1142C1221.43 -42.8071 1222.4 -41.5526 1223.52 -40.3648C1227.04 -36.8124 1231.73 -33.9353 1237.18 -31.988C1242.62 -30.0407 1248.66 -29.0833 1254.74 -29.2005C1270.71 -28.6039 1286.71 -28.8266 1302.63 -29.867C1370.9 -32.533 1417.61 -28.8672 1444.53 -19.0359C1454.84 -14.8818 1463.35 -8.7689 1469.11 -1.37296C1474.45 6.10508 1477.21 14.3909 1477.15 22.7887C1479.71 48.4501 1482.74 58.9479 1491.36 71.4453C1498.6 83.4063 1511.99 92.9208 1528.76 98.0233C1541.1 102.731 1554.97 105.003 1568.95 104.605C1580.01 104.6 1591.03 103.706 1601.8 101.939C1617.53 99.2071 1633.62 97.7259 1649.8 97.5233H1658.77V85.6095C1659.39 81.3985 1659 77.143 1657.61 73.0283C1648.8 72.202 1639.93 71.8124 1631.04 71.8621C1586.07 71.0289 1568.02 68.7792 1545.53 61.0308C1536.13 58.0922 1527.56 53.9405 1520.25 48.7833C1507.79 40.4517 1504.29 33.0366 1502.78 14.707C1502.82 7.08952 1501.29 -0.490501 1498.23 -7.78821C1494.8 -14.2211 1489.2 -19.9461 1481.92 -24.4515C1467.25 -34.1715 1448.39 -40.0456 1428.45 -41.1147C1392.73 -42.9788 1356.87 -42.9788 1321.15 -41.1147C1281.07 -39.5316 1265.93 -40.1983 1254.51 -44.2807C1250.06 -45.6214 1245.18 -46.054 1240.41 -45.5304C1234.82 -45.5304 1228.18 -45.5304 1225.5 -45.5304V-44.9474Z" fill="#EA716E" fill-opacity="0.13"/>
<path d="M815.822 -41.9248L804.196 -41.5041L809.777 -40.2418C823.196 -37.7245 836.827 -35.8414 850.583 -34.6042C855.654 -34.2899 860.673 -33.642 865.581 -32.6688C862.773 -32.5924 859.962 -32.7619 857.21 -33.1736C839.409 -34.5894 821.77 -36.9235 804.429 -40.1578C795.244 -41.9249 789.199 -42.3456 790.943 -41.2517C802.241 -38.2361 813.924 -36.0376 825.82 -34.6884L856.048 -31.4909C877.141 -30.3176 897.793 -26.5026 917.083 -20.2155C925.43 -17.4813 932.614 -13.1816 937.894 -7.76197C943.73 -2.09864 946.612 4.87535 946.031 11.9279C946.308 20.8455 942.952 29.6248 936.382 37.1713C927.082 50.3821 918.129 58.2918 881.392 85.6389C849.77 109.031 840.817 119.97 841.05 133.77C841.05 141.09 845.817 153.628 847.909 152.198C847.722 150.238 847.134 148.31 846.165 146.475C844.242 142.217 843.414 137.739 843.725 133.265C843.45 128.85 844.815 124.463 847.677 120.559C853.722 110.461 865.115 99.9434 891.623 80.6744C934.522 49.2042 950.682 29.4301 949.752 9.65605C949.778 2.47141 946.414 -4.50442 940.219 -10.118C930.22 -20.0471 912.665 -26.1896 882.09 -30.5652C878.143 -31.0429 874.256 -31.7463 870.463 -32.6688C882.257 -31.4975 893.914 -29.6976 905.341 -27.2836C913.875 -25.7896 921.916 -23.0871 929 -19.3321C936.084 -15.5772 942.07 -10.8441 946.613 -5.40594C950.387 -0.228344 952.23 5.57222 951.96 11.423C951.96 30.1032 937.429 48.5308 900.691 76.299C888.359 85.1066 876.715 94.4049 865.813 104.151C854.838 112.749 848.881 124.085 849.188 135.789C850.765 143.371 854.273 150.675 859.535 157.33C868.122 166.232 880.305 172.993 894.413 176.684C911.483 181.674 926.354 189.936 937.429 200.581C943.348 207.311 948.185 214.511 951.844 222.038C965.225 247.006 988.938 268.372 1019.74 283.211C1032.99 289.452 1045.41 296.579 1056.83 304.499C1067.23 313.666 1074.52 324.475 1078.1 336.054C1090.66 366.262 1105.77 378.715 1139.6 386.541C1169.36 393.441 1198.55 394.367 1246.56 389.907C1303.41 384.606 1325.5 386.541 1349.45 398.826C1358.17 403.286 1380.26 415.655 1380.26 416.16C1380.26 416.665 1380.26 416.16 1364.91 409.681C1352.25 403.689 1338.73 398.724 1324.57 394.871C1306.9 391.085 1284.23 391.337 1241.91 395.46C1221.15 398.102 1200.08 399.23 1179.01 398.826C1132.51 397.479 1098.56 389.317 1079.73 374.76C1070.68 366.998 1063.17 358.359 1057.41 349.096C1053.39 343.293 1048.89 337.673 1043.92 332.268C1035.32 323.853 1022.99 317.373 996.139 307.444C987.419 304.247 976.492 299.787 971.609 297.6C955.22 289.585 941.581 278.965 931.732 266.55C926.075 257.189 921.486 247.508 918.013 237.604C916.179 232.921 913.887 228.337 911.154 223.889C903.714 213.371 890.693 206.302 861.047 196.71C848.403 193.3 836.852 188.06 827.099 181.312C814.914 171.957 805.707 160.785 800.127 148.579C796.756 137.339 799.11 125.594 806.754 115.51C813.729 105.413 822.332 97.8401 847.677 79.6644C879.764 56.6931 887.553 50.2981 895.227 40.4531C899.873 35.0965 902.183 28.8508 901.854 22.5302C900.574 11.3389 888.949 4.60725 863.139 0.0634232C842.732 -3.05649 822.009 -4.97002 801.174 -5.65836C779.489 -6.52448 757.922 -8.5495 736.65 -11.7168C726.768 -13.7363 727 -13.8203 727 -9.27654C727 -6.24731 727.001 -5.23775 728.861 -4.98531C747.554 -2.56142 766.416 -0.875988 785.362 0.0634232C844.887 4.35481 863.488 7.55237 875.928 15.6303C888.367 23.7082 885.81 35.1518 869.417 50.5503C865.929 53.832 852.327 64.2661 839.19 73.6059C811.52 93.4646 801.173 102.468 792.687 114.921C786.188 123.003 782.442 132.089 781.758 141.427C781.088 145.893 781.641 150.41 783.386 154.722C789.385 170.057 801.915 183.632 819.193 193.513C827.781 197.41 836.715 200.895 845.933 203.947C875.346 214.044 884.88 218.756 892.437 227.254C899.372 235.845 903.914 245.336 905.806 255.191C907.643 264.241 911.573 273.002 917.432 281.107C930.295 296.341 949.628 308.149 972.538 314.765C1005.9 326.04 1014.86 329.911 1024.97 337.568C1034.23 345.203 1042.05 353.692 1048.22 362.812C1057.01 375.519 1071.13 385.887 1088.56 392.431C1108.5 398.833 1129.74 402.84 1151.46 404.295C1177.36 405.838 1203.41 405.556 1229.24 403.454C1244.01 402.168 1258.89 401.606 1273.76 401.771C1311.78 401.771 1311.9 401.771 1368.05 428.529C1386.8 436.063 1406.22 442.697 1426.18 448.387C1446.27 453.913 1467.72 456.377 1489.19 455.624C1495.7 455.624 1513.61 453.857 1529.07 452.342C1573.36 447.798 1588.24 447.714 1616.03 452.342C1630.51 453.623 1644.32 457.467 1656.26 463.534L1659.05 465.805V453.184C1659.05 437.953 1660.09 438.963 1642.65 436.859C1609.24 433.668 1575.45 433.048 1541.86 435.008C1522.53 436.371 1503.06 436.371 1483.73 435.008C1459.81 431.57 1436.92 425.134 1416.07 415.991C1401.39 409.25 1387.23 401.948 1373.63 394.114C1365.45 389.368 1356.74 385.118 1347.59 381.408C1331.22 376.788 1313.51 375.225 1296.09 376.864C1281.79 377.705 1277.95 378.042 1246.21 381.577C1203.19 386.288 1177.27 385.699 1149.95 379.388C1140.22 377.565 1131.13 374.308 1123.22 369.819C1115.32 365.33 1108.79 359.707 1104.03 353.304C1097.97 344.443 1093.67 335.01 1091.24 325.283C1089.16 316.355 1085.24 307.704 1079.61 299.619C1069.65 290.159 1057.35 282.114 1043.34 275.89C1029.79 269.572 1016.96 262.481 1004.97 254.686C984.852 242.431 968.934 226.963 958.471 209.5C944.404 188.884 933.243 181.143 901.854 169.868C890.021 166.738 879.494 161.466 871.277 154.554C865.126 148.669 861.818 141.485 861.86 134.106C861.035 129.748 861.796 125.31 864.069 121.232C869.069 110.798 877.788 102.047 903.598 81.7685C922.097 68.8938 937.778 54.0541 950.1 37.7604C969.748 9.40363 961.029 -16.1765 927.779 -28.2933C913.014 -33.6786 897.901 -36.7079 859.303 -40.9993C845.138 -42.7758 830.706 -43.1436 816.403 -42.093L815.822 -41.9248Z" fill="#EA716E" fill-opacity="0.13"/>
</g>
<g clip-path="url(#clip1_907_4)">
<mask id="mask0_907_4" style="mask-type:luminance" maskUnits="userSpaceOnUse" x="0" y="154" width="471" height="197">
<path d="M0 154.4H471V351H0V154.4Z" fill="white"/>
</mask>
<g mask="url(#mask0_907_4)">
<path d="M-826.44 363.344L-829.108 351.144L-824.918 356.559C-815.874 369.735 -808.025 383.323 -801.423 397.236C-799.27 402.407 -796.471 407.424 -793.06 412.228C-793.754 409.288 -794.936 406.422 -796.585 403.687C-804.759 385.628 -814.711 368.015 -826.362 350.979C-832.641 341.974 -835.297 335.823 -832.599 337.305C-823.203 348.128 -815.315 359.598 -809.052 371.546L-793.591 401.974C-784.904 423.524 -771.105 443.821 -752.801 461.959C-744.855 469.804 -734.148 475.969 -721.79 479.818C-708.782 484.172 -694.057 485.063 -680.221 482.337C-662.422 479.936 -645.993 473.806 -632.98 464.71C-609.537 451.071 -596.521 439.391 -553.262 393C-516.318 353.113 -497.284 340.521 -469.798 336.604C-455.255 334.398 -428.911 335.57 -431.123 338.175C-435.07 338.57 -439.079 338.542 -443.017 338.088C-452.055 337.373 -461.199 337.863 -469.995 339.534C-478.849 340.578 -487.155 343.319 -494.047 347.466C-512.285 356.787 -529.749 371.787 -560.041 405.121C-609.636 459.153 -644.051 481.893 -683.615 486.885C-697.881 489.076 -712.752 487.684 -725.77 482.943C-748.509 475.551 -766.001 459.172 -783.906 428.738C-786.043 424.784 -788.612 420.96 -791.588 417.298C-785.708 429.192 -778.619 440.756 -770.381 451.896C-764.841 460.308 -757.05 467.843 -747.455 474.07C-737.863 480.294 -726.656 485.084 -714.483 488.163C-703.06 490.522 -690.981 490.689 -679.439 488.646C-642.327 483.018 -610.098 462.374 -566.004 415.855C-552.221 400.396 -537.255 385.501 -521.181 371.244C-507.405 357.256 -486.679 347.654 -463.335 344.447C-447.797 343.799 -432.23 345.242 -417.422 348.7C-397.15 354.937 -380.048 365.552 -368.468 379.089C-353.408 395.312 -332.516 408.267 -308.031 416.559C-292.875 420.68 -277.115 423.533 -261.06 425.065C-207.427 431.436 -157.836 449.624 -119.076 477.14C-102.683 489.025 -84.7823 499.771 -65.6097 509.24C-44.2618 517.286 -20.5928 521.597 3.48889 521.826C67.2827 525.763 96.5769 537.705 122.317 570.481C144.993 599.309 155.624 629.332 161.23 680.539C167.829 741.173 178.329 763.529 209.952 784.699C221.438 792.41 252.666 811.622 253.669 811.47C254.672 811.317 253.669 811.47 236.174 797.485C220.457 786.147 206.517 773.594 194.598 760.054C181.75 742.844 175.423 719.224 170.864 674.036C169.859 651.685 165.748 629.464 158.598 607.706C141.912 559.82 115.468 527.025 80.8737 511.854C62.7256 504.793 43.3029 499.594 23.1641 496.405C10.4252 493.982 -2.09756 490.998 -14.3314 487.472C-33.64 481.072 -50.2245 470.227 -78.0427 445.329C-87.0233 437.239 -99.1745 427.233 -104.992 422.822C-125.852 408.217 -151.06 397.254 -178.691 390.767C-198.993 387.713 -219.607 385.865 -240.329 385.242C-250.186 384.748 -259.982 383.75 -269.643 382.25C-292.78 377.694 -310.746 366.301 -338.734 338.405C-349.319 326.302 -363.209 315.886 -379.553 307.792C-401.809 297.956 -426.779 291.761 -452.709 289.645C-476.055 289.531 -498.677 295.513 -516.408 306.49C-534.364 316.777 -546.816 327.992 -575.288 359.789C-611.256 400.032 -621.615 410.048 -638.86 420.982C-648.103 427.423 -659.815 431.702 -672.471 433.265C-695.089 435.308 -711.965 425.264 -728.768 399.83C-741.114 379.579 -751.16 358.634 -758.805 337.205C-767.06 314.946 -777.58 293.16 -790.282 272.024C-797.272 262.37 -797.369 262.637 -788.342 261.268C-782.324 260.355 -780.318 260.051 -779.257 261.906C-768.808 280.589 -759.776 299.669 -752.201 319.061C-725.743 379.582 -713.786 397.936 -693.989 408.419C-674.193 418.904 -652.23 412.801 -626.578 391.138C-621.108 386.527 -604.48 369.257 -589.881 352.801C-558.769 318.083 -544 304.625 -521.817 292.059C-507.718 282.876 -490.796 276.248 -472.452 272.724C-463.782 270.682 -454.639 269.895 -445.549 270.408C-413.276 272.017 -382.532 280.94 -357.698 295.905C-347.367 303.65 -337.751 311.876 -328.913 320.53C-299.991 348.033 -287.757 356.514 -268.596 361.799C-249.44 366.414 -229.217 368.271 -209.068 367.267C-190.536 366.447 -171.946 367.888 -154.08 371.531C-119.942 380.299 -90.6577 396.818 -70.6111 418.616C-38.1582 449.868 -27.7695 457.998 -9.50977 466.195C8.4465 473.506 27.6653 479.069 47.6439 482.736C75.5397 488.035 100.391 499.575 118.641 515.705C137.367 534.477 151.73 555.332 161.162 577.446C172.032 603.88 179.32 631.014 182.925 658.468C184.821 674.197 188.186 689.815 192.998 705.214C204.453 744.694 204.487 744.815 274.565 795.066C295.183 812.272 314.212 830.438 331.529 849.448C348.56 868.648 359.918 890.183 364.892 912.704C366.853 919.464 368.737 938.59 370.387 955.103C374.706 1002.47 379.022 1017.95 396.588 1045.41C403.494 1060.06 415.293 1073.25 430.941 1083.81L436.295 1086.02L411.221 1089.83C380.964 1094.42 383.285 1095.2 373.852 1077.72C357.445 1043.99 346.032 1009.09 339.804 973.606C336.688 953.121 330.822 932.905 322.29 913.241C308.255 889.444 288.57 867.604 264.124 848.706C246.311 835.5 227.534 822.99 207.876 811.231C195.982 804.162 184.914 796.398 174.787 788.015C160.677 772.409 152.235 754.487 150.242 735.9C147.605 720.797 147.117 716.71 144.575 682.686C140.977 636.596 131.997 609.85 111.227 583.381C104.674 573.83 95.4601 565.364 84.161 558.509C72.8643 551.654 59.7248 546.562 45.5681 543.55C26.1406 539.934 6.10611 538.307 -13.9503 538.714C-32.312 539.244 -50.6809 537.782 -68.4381 534.373C-90.2352 526.872 -109.923 516.526 -126.507 503.854C-143.143 491.69 -161.094 480.503 -180.191 470.403C-210.602 453.198 -246.127 441.329 -283.972 435.724C-329.166 427.328 -347.909 418.07 -379.764 388.87C-389.548 377.525 -403.193 368.181 -419.401 361.732C-432.946 357.117 -448.215 355.846 -462.859 358.114C-471.765 358.569 -480.352 360.697 -487.771 364.286C-506.992 372.622 -521.751 384.313 -554.26 417.226C-574.263 440.316 -599.02 461.073 -627.675 478.779C-678.092 507.727 -731.536 506.379 -765.627 475.5C-780.775 461.791 -791.345 447.009 -811.501 408.219C-819.297 394.045 -824.376 379.166 -826.598 363.998L-826.44 363.344Z" fill="#EA716E" fill-opacity="0.13"/>
<path d="M-346.275 197.595C-310.134 192.114 -309.799 192.063 -306.257 194.044C-290.379 204.741 -276.057 216.579 -263.515 229.374C-250.023 241.559 -235.046 254.652 -229.972 258.29C-220.763 265.142 -209.607 270.477 -197.269 273.931C-184.931 277.385 -171.704 278.876 -158.487 278.303C-125.49 277.294 -92.9302 283.969 -65.6243 297.34C-40.9672 309.469 -31.2316 318.949 -3.60284 357.577C27.8449 401.547 39.2824 410.264 82.5027 424.363C94.319 428.366 110.216 434.392 117.833 437.771C158.297 456.822 171.434 475.609 221.785 587.739C246.53 642.926 253.551 655.085 268.879 669.384C280.951 680.173 295.444 689.425 311.758 696.759C338.162 708.43 360.023 724.743 375.298 744.171C390.287 760.877 407.403 776.536 426.425 790.948C439.139 800.023 453.188 808.069 468.323 814.945C487.88 823.036 505.34 833.512 519.928 845.908C533.63 858.817 537.843 866.112 549.055 897.533C564.577 941.397 577.252 957.989 605.828 972.797C629.375 984.716 649.712 989.189 702.676 994.128C714.942 994.936 727.086 996.507 738.975 998.824C742.954 1005.29 745.591 1012.15 746.8 1019.17L752.294 1038.11L737.237 1040.39C722.512 1042.63 721.674 1042.75 686.201 1039.7C660.894 1039.12 635.982 1035.03 612.835 1027.65C579.41 1017.39 550.999 1000.17 531.233 978.191C520.788 965.67 514.993 952.319 503.494 913.889C500.701 899.274 495.321 884.98 487.485 871.355C475.403 855.65 459.163 841.813 439.683 830.624C411.041 812.028 384.956 791.48 361.792 769.267C346.433 753.22 327.581 739.068 305.963 727.358C287.65 718.922 271.004 708.737 256.478 697.082C239.461 681.779 232.775 669.57 216.534 624.428C204.431 586.769 187.898 549.925 167.113 514.297C147.957 483.199 133.711 469.618 106.538 457.241C90.0073 450.293 72.5923 444.501 54.5317 439.94C19.5732 429.628 4.98688 418.49 -28.0414 376.902C-36.6165 363.712 -47.923 351.541 -61.5723 340.805C-80.8298 326.978 -105.315 317.551 -131.97 313.7C-144.216 312.585 -156.556 312.1 -168.9 312.248C-182.51 312.298 -197.264 312.017 -201.896 311.712C-234.878 309.41 -252.002 299.161 -287.844 260.518C-301.399 243.322 -320.015 228.478 -342.383 217.03C-353.602 211.646 -365.719 207.306 -378.446 204.112C-380.903 203.477 -373.811 202.024 -345.369 197.71L-346.275 197.595Z" fill="#EA716E" fill-opacity="0.13"/>
<path d="M-239.477 178.78L-223.633 176.377L-203.159 186.928C-182.403 199.203 -157.467 207.174 -130.996 209.996C-86.7973 215.305 -56.0269 228.34 -11.6704 261.189C12.5812 279.447 33.5894 299.836 50.861 321.881C71.5219 348.083 81.5123 357.314 98.2717 365.267C106.631 369.517 115.461 373.253 124.672 376.437C147.545 382.638 168.239 392.458 185.246 405.182C200.498 417.537 208.867 432.578 226.294 480.64C247.672 538.723 262.215 564.839 286.369 587.476C304.631 604.812 319.749 612.507 359.816 625.776C392.661 634.911 421.02 650.951 441.261 671.84C454.233 684.357 469.649 695.437 487.021 704.73C510.795 717.056 526.526 720.865 567.811 723.328C598.879 724.149 629.694 727.757 659.555 734.071L664.997 736.026L683.516 799.853L678.107 790.811C673.711 782.52 666.837 775.039 657.981 768.904C649.126 762.769 638.509 758.135 626.896 755.335C607.356 751.347 587.19 749.219 566.904 749.007C492.402 744.88 469.164 735.003 424.911 688.101C418.124 680.913 408.466 671.629 403.427 667.464C387.069 655.478 367.845 645.754 346.696 638.767C320.715 630.807 298.187 617.879 281.517 601.362C258.697 578.524 242.39 550.524 219.195 493.98C197.755 441.092 188.456 426.445 168.237 412.567C154.136 403.553 138.086 396.29 120.734 391.069C104.973 386.644 90.3594 380.311 77.5137 372.336C64.6608 364.044 57.0568 355.839 34.7547 326.98C4.88989 288.265 -16.8393 269.181 -50.1322 252.861C-75.0199 240.238 -104.219 232.851 -134.502 231.518C-159.591 231.336 -183.925 225.216 -203.812 214.086C-221.882 204.301 -238.826 193.466 -254.478 181.687C-254.757 180.719 -250.028 179.622 -238.185 177.826L-239.477 178.78Z" fill="#EA716E" fill-opacity="0.13"/>
<path d="M-69.4822 155.699L-60.1666 164.451C-55.1362 169.209 -44.3614 179.999 -35.779 188.611C-8.55566 217.828 24.174 244.161 61.4631 266.851L104.13 294.137C126.842 310.987 155.134 323.368 186.329 330.109C227.758 341.144 241.903 346.778 254.096 358.859C268.922 373.426 274.341 387.913 282.048 435.436C292.527 499.101 305.037 523.054 336.484 538.616C356.545 547.989 380.106 552.694 403.99 552.093C419.535 552.372 442.535 551.393 501.594 548.333C517.823 547.378 537.259 546.69 544.896 546.66C566.452 546.959 587.958 548.267 609.279 550.575C610.653 551.119 612.54 555.225 615.364 564.962C618.189 574.697 619.305 578.543 617.23 577.979C608.595 576.772 599.845 576.043 591.055 575.801C577.806 575.05 555.781 573.998 543.53 573.096C531.279 572.192 509.49 571.356 496.414 571.205C448.01 570.265 394.222 568.132 380.395 566.591C361.953 564.906 344.363 559.992 329.154 552.276C320.701 548.267 313.334 543.174 307.418 537.25C287.099 518.12 278.289 496.743 267.159 442.212C258.797 400.812 251.053 381.908 236.48 368.808C230.78 364.281 224.257 360.331 217.087 357.068C198.9 348.843 179.468 342.148 159.171 337.115C139.168 331.252 121.202 322.281 106.543 310.837C89.1331 297.541 59.9432 275.991 33.021 256.859C6.92175 238.714 -17.0847 219.063 -38.7628 198.099C-52.3295 185.474 -68.1809 171.564 -74.3039 167.223C-80.4293 162.881 -85.0495 158.938 -85.1175 158.698C-82.777 157.709 -80.1695 157.099 -77.4698 156.91L-69.4822 155.699Z" fill="#EA716E" fill-opacity="0.13"/>
<path d="M-26.7861 149.139C-25.1206 148.887 -22.9574 148.558 -21.7944 148.382C-17.468 147.726 -16.9679 147.65 -15.0499 151.266C-4.42816 166.219 7.37604 180.715 20.3043 194.682C53.1893 226.141 100.311 248.185 153.367 256.931C177.533 261.794 202.297 264.919 227.299 266.263C298.236 271.259 316.417 274.047 340.141 282.171C353.236 286.361 364.666 292.878 373.374 301.12C382.081 309.361 387.784 319.06 389.954 329.318C393.762 344.711 395.098 360.368 393.937 375.979C393.832 385.196 394.112 398.136 394.769 404.591C397.614 441.341 418.807 456.906 464.698 457.004C485.439 455.519 505.964 452.742 526.046 448.708C553.335 444.569 575.965 441.137 577.462 440.909C578.96 440.683 580.483 444.738 583.145 453.913C585.807 463.088 586.649 465.986 584.985 466.237C583.321 466.49 513.057 476.39 511.437 477.392C509.817 478.395 494.972 480.52 478.333 483.043C463.865 485.818 449.032 487.475 434.08 487.991C397.193 487.788 377.593 478.913 366.489 457.404C359.569 438.562 356.666 419.069 357.882 399.597C358.911 380.244 356.445 360.872 350.544 341.976C341.752 316.462 325.944 304.49 288.286 294.447C267.552 289.7 246.277 286.304 224.716 284.301C168.893 278.704 115.682 263.577 69.4581 240.164C33.2883 222.037 4.27081 197.368 -14.71 168.608L-27.9854 151.59C-28.2306 150.744 -28.4394 150.02 -26.2762 149.692L-26.7861 149.139Z" fill="#EA716E" fill-opacity="0.13"/>
</g>
</g>
<defs>
<clipPath id="clip0_907_4">
<rect width="537" height="350.554" fill="white" transform="translate(727 0.445557)"/>
</clipPath>
<clipPath id="clip1_907_4">
<rect width="471" height="196.6" fill="white" transform="matrix(-1 0 0 1 471 154.4)"/>
</clipPath>
</defs>
</svg>
