<svg width="1421" height="29" viewBox="0 0 1421 29" fill="none" xmlns="http://www.w3.org/2000/svg">
<path d="M1 28L33.3194 13.5764C51.1834 5.60409 71.659 5.9422 89.25 14.5V14.5C106.841 23.0578 127.317 23.3959 145.181 15.4235L148.258 14.0503C166.77 5.78864 188.01 6.25484 206.142 15.3208V15.3208C222.365 23.4325 241.164 24.697 258.328 18.8309L282.462 10.5824C300.505 4.41609 320.197 5.18899 337.7 12.7505L347.858 17.1387C363.681 23.9743 381.802 22.9435 396.748 14.3576V14.3576C411.414 5.93245 429.155 4.77372 444.792 11.2196L460.881 17.8519C476.381 24.2409 493.983 22.9664 508.4 14.4111V14.4111C522.648 5.9562 540.017 4.60693 555.4 10.7601L572.558 17.6234C589.029 24.2117 607.665 23.2415 623.408 15.0668V15.0668C640.377 6.25643 660.634 5.93012 677.827 14.294L680.632 15.659C696.539 23.3975 715.215 22.9226 730.708 14.3857V14.3857C745.969 5.97641 764.334 5.38281 780.106 12.789L786.464 15.7743C802.899 23.4915 821.97 23.2209 838.179 15.0406L840.805 13.7153C856.572 5.75826 875.25 6.09681 890.718 14.62V14.62C905.944 23.01 924.298 23.4767 939.931 15.8715L944.049 13.8681C960.797 5.72034 980.312 5.49005 997.247 13.2404L1001.52 15.194C1019.21 23.2914 1039.62 22.9396 1057.03 14.2372V14.2372C1073.83 5.83613 1093.46 5.20337 1110.77 12.5052L1120.16 16.4671C1137.56 23.805 1157.25 23.38 1174.31 15.2985L1179.39 12.8929C1195.19 5.41216 1213.59 5.85955 1229 14.0988L1229.94 14.6022C1245.6 22.9734 1264.4 22.9734 1280.06 14.6022V14.6022C1295.93 6.11867 1315.01 6.23929 1330.77 14.9227L1331.51 15.3327C1346.04 23.3406 1363.43 24.3206 1378.77 17.9968L1420 1" stroke="#A8A8A8"/>
</svg>
