<svg width="1452" height="441" viewBox="0 0 1452 441" fill="none" xmlns="http://www.w3.org/2000/svg">
<path d="M1 440L45.2241 411.985C87.0303 385.501 138.739 379.854 185.276 396.689L235.702 414.931C278.246 430.322 325.825 420.615 358.94 389.789V389.789C392.379 358.661 440.533 349.092 483.333 365.071L532.334 383.365C575.543 399.496 623.833 394.269 662.59 369.265V369.265C692.797 349.776 729.132 342.113 764.637 347.743L837.244 359.256C877.978 365.715 918.434 346.166 938.685 310.237V310.237C956.178 279.2 989.04 260 1024.67 260H1053.03C1098.73 260 1141.83 238.785 1169.71 202.576L1179.43 189.952C1206.59 154.672 1248.59 134 1293.11 134V134C1328.76 134 1363.12 120.733 1389.52 96.7821L1451 41" stroke="#FAA9A9" stroke-opacity="0.4" stroke-width="2"/>
<path d="M1 400L45.2241 371.985C87.0303 345.501 138.739 339.854 185.276 356.689L235.702 374.931C278.246 390.322 325.825 380.615 358.94 349.789V349.789C392.379 318.661 440.533 309.092 483.333 325.071L532.334 343.365C575.543 359.496 623.833 354.269 662.59 329.265V329.265C692.797 309.776 729.132 302.113 764.637 307.743L837.244 319.256C877.978 325.715 918.434 306.166 938.685 270.237V270.237C956.178 239.2 989.04 220 1024.67 220H1053.03C1098.73 220 1141.83 198.785 1169.71 162.576L1179.43 149.952C1206.59 114.672 1248.59 94 1293.11 94V94C1328.76 94 1363.12 80.7326 1389.52 56.7821L1451 1" stroke="#FAA9A9" stroke-opacity="0.4" stroke-width="2"/>
</svg>
