<svg width="230" height="32" viewBox="0 0 230 32" fill="none" xmlns="http://www.w3.org/2000/svg">
<g clip-path="url(#clip0_987_43)">
<path d="M0.0380859 4.40332L13.1676 2.59946V15.2627H0.0392948L0.0380859 4.40332ZM13.1676 16.8832V29.4033L0.0398992 27.6021L0.039597 16.8838H13.1679L13.1676 16.8832ZM14.6194 2.40041L32.0897 0V15.2627H14.6194V2.40041ZM32.0897 16.8832V32.0006L14.6194 29.602V16.8832H32.0897Z" fill="#0DADEA"/>
<path d="M61.7486 25.4594H58.7135V13.7304C58.7135 12.7689 58.7737 11.5949 58.8937 10.2033H58.8429C58.6534 10.9953 58.4863 11.5638 58.3412 11.9105L52.8375 25.4594H50.7284L45.2114 12.012C45.0573 11.6163 44.8941 11.0134 44.723 10.2048H44.6723C44.7415 10.9298 44.7753 12.1132 44.7753 13.7561V25.4594H41.9458V7.33503H46.2537L51.102 19.4056C51.4703 20.3323 51.7106 21.024 51.8215 21.4783H51.8856C52.2029 20.5259 52.4597 19.8176 52.6571 19.3543L57.5957 7.33503H61.7495L61.7483 25.4594H61.7486ZM67.4457 9.79917C66.9573 9.79917 66.5382 9.64392 66.1922 9.3319C65.8446 9.02018 65.6712 8.62358 65.6712 8.14362C65.6712 7.66366 65.8446 7.26314 66.1922 6.94236C66.5397 6.62279 66.9573 6.4621 67.4457 6.4621C67.951 6.4621 68.3807 6.62279 68.7319 6.94236C69.083 7.26314 69.2595 7.66215 69.2595 8.14362C69.2595 8.59791 69.083 8.98816 68.7319 9.31256C68.3792 9.63757 67.951 9.79917 67.4457 9.79917ZM68.9238 25.4594H65.9413V12.5164H68.9241V25.4594H68.9238ZM82.26 24.8652C81.2062 25.4633 79.9578 25.7623 78.5175 25.7623C76.5629 25.7623 74.9854 25.1618 73.785 23.9618C72.5853 22.7617 71.9845 21.205 71.9845 19.2915C71.9845 17.1596 72.6297 15.4475 73.9198 14.1536C75.2102 12.8602 76.9349 12.2132 79.0959 12.2132C80.296 12.2132 81.3549 12.4198 82.2718 12.8333V15.5629C81.3537 14.8894 80.377 14.5517 79.3404 14.5517C78.0802 14.5517 77.0473 14.9715 76.2416 15.8094C75.4359 16.6476 75.0322 17.745 75.0322 19.1015C75.0322 20.4414 75.4109 21.4989 76.1697 22.2739C76.9282 23.0493 77.9466 23.4368 79.2241 23.4368C80.296 23.4368 81.3065 23.0623 82.2585 22.3126L82.26 24.8652ZM92.8682 15.3101C92.5077 15.0316 91.9894 14.8933 91.3119 14.8933C90.4288 14.8933 89.6912 15.2844 89.0998 16.0686C88.508 16.8515 88.2119 17.918 88.2119 19.2658V25.4594H85.2279V12.5164H88.2119V15.1832H88.2627C88.554 14.2732 89.0018 13.5633 89.6063 13.0538C90.2107 12.5445 90.8861 12.289 91.6316 12.289C92.1723 12.289 92.5835 12.3699 92.867 12.5291L92.8682 15.3101ZM100.841 25.7623C98.8095 25.7623 97.1876 25.1579 95.9734 23.9488C94.7603 22.74 94.1532 21.1367 94.1532 19.1401C94.1532 16.9657 94.7851 15.2678 96.0504 14.046C97.3158 12.8242 99.0184 12.2132 101.162 12.2132C103.22 12.2132 104.823 12.8076 105.972 13.9959C107.121 15.1845 107.694 16.8309 107.694 18.9372C107.694 21.0023 107.075 22.6554 105.836 23.8974C104.598 25.1413 102.933 25.7623 100.841 25.7623ZM100.982 14.5517C99.8165 14.5517 98.8945 14.9522 98.2181 15.7517C97.5403 16.5525 97.2021 17.6561 97.2021 19.0628C97.2021 20.4193 97.5454 21.4874 98.2311 22.2664C98.9165 23.0454 99.8346 23.4353 100.984 23.4353C102.159 23.4353 103.061 23.0517 103.691 22.2857C104.32 21.5182 104.636 20.4272 104.636 19.0115C104.636 17.5882 104.321 16.4884 103.691 15.713C103.06 14.9392 102.158 14.5517 100.982 14.5517ZM109.921 25.0552V22.3383C111.036 23.1725 112.266 23.5894 113.611 23.5894C115.412 23.5894 116.311 23.0671 116.311 22.0223C116.311 21.7272 116.234 21.4771 116.08 21.2702C115.926 21.0636 115.718 20.8803 115.456 20.7211C115.193 20.5619 114.885 20.4181 114.53 20.2913C114.174 20.1641 113.778 20.0215 113.34 19.8611C112.84 19.669 112.353 19.4452 111.881 19.1912C111.447 18.955 111.088 18.6883 110.801 18.3892C110.518 18.0973 110.297 17.751 110.152 17.3713C110.006 16.9928 109.934 16.5497 109.934 16.0444C109.934 15.4207 110.084 14.8712 110.384 14.3952C110.685 13.9189 111.087 13.5186 111.592 13.1951C112.099 12.8704 112.672 12.6267 113.316 12.4624C113.967 12.297 114.636 12.2142 115.308 12.2159C116.525 12.2159 117.614 12.3968 118.574 12.7587V15.3243C117.648 14.7006 116.585 14.3885 115.385 14.3885C115.008 14.3885 114.667 14.4272 114.363 14.5015C114.059 14.5773 113.799 14.6827 113.585 14.8175C113.371 14.9522 113.203 15.1138 113.083 15.3038C112.964 15.4904 112.901 15.7076 112.903 15.929C112.903 16.2072 112.963 16.4434 113.083 16.6373C113.203 16.8309 113.381 17.0016 113.617 17.1493C113.852 17.297 114.136 17.4317 114.466 17.5535C114.796 17.6755 115.175 17.809 115.605 17.9516C116.124 18.1578 116.633 18.39 117.128 18.6472C117.579 18.8831 117.963 19.1501 118.28 19.4491C118.593 19.7411 118.842 20.094 119.013 20.4861C119.184 20.8775 119.27 21.3436 119.27 21.8825C119.27 22.5397 119.116 23.1118 118.807 23.6011C118.498 24.0902 118.086 24.4943 117.573 24.8139C117.058 25.1347 116.464 25.3721 115.792 25.5273C115.118 25.6841 114.409 25.7611 113.663 25.7611C112.222 25.7623 110.974 25.5273 109.921 25.0552ZM127.95 25.7623C125.918 25.7623 124.295 25.1579 123.082 23.9488C121.869 22.74 121.263 21.1367 121.263 19.1401C121.263 16.9657 121.895 15.2678 123.16 14.046C124.424 12.8242 126.128 12.2132 128.271 12.2132C130.329 12.2132 131.931 12.8076 133.08 13.9959C134.229 15.1845 134.804 16.8309 134.804 18.9372C134.804 21.0023 134.185 22.6554 132.946 23.8974C131.707 25.1413 130.04 25.7623 127.95 25.7623ZM128.091 14.5517C126.925 14.5517 126.003 14.9522 125.325 15.7517C124.647 16.5525 124.309 17.6561 124.309 19.0628C124.309 20.4193 124.653 21.4874 125.338 22.2664C126.024 23.0454 126.942 23.4353 128.091 23.4353C129.265 23.4353 130.167 23.0517 130.798 22.2857C131.428 21.5182 131.743 20.4272 131.743 19.0115C131.743 17.5882 131.428 16.4884 130.798 15.713C130.167 14.9392 129.265 14.5517 128.091 14.5517ZM145.297 8.68762C144.895 8.46048 144.436 8.3463 143.921 8.3463C142.472 8.3463 141.748 9.15097 141.748 10.7603V12.5173H144.809V14.8175H141.761V25.4594H138.777V14.8175H136.528V12.5173H138.777V10.419C138.777 9.05371 139.232 7.9781 140.141 7.19004C141.049 6.40169 142.186 6.00781 143.549 6.00781C144.287 6.00781 144.869 6.08755 145.297 6.24794V8.68762ZM153.9 25.3207C153.318 25.6071 152.55 25.7508 151.598 25.7508C149.044 25.7508 147.766 24.5457 147.766 22.1368V14.8187H145.568V12.5188H147.766V9.52309L150.75 8.68913V12.5188H153.901V14.8187H150.75V21.2892C150.75 22.0555 150.891 22.6035 151.175 22.9321C151.458 23.2607 151.929 23.425 152.589 23.425C153.094 23.425 153.532 23.2825 153.9 22.9949V25.3207ZM179.208 25.4594H175.852L174.193 20.8455H166.941L165.347 25.4594H162.002L168.907 7.33503H172.353L179.207 25.4594H179.208ZM173.382 18.3944L170.824 11.1647C170.747 10.9285 170.665 10.5501 170.58 10.0275H170.529C170.452 10.5078 170.366 10.8875 170.272 11.1647L167.739 18.3944H173.382ZM191.141 13.7431L184.03 23.171H191.115V25.4594H179.85V24.3596L187.115 14.8045H180.545V12.5161H191.141V13.7431ZM205.145 25.4594H202.162V23.4111H202.111C201.246 24.9782 199.899 25.7623 198.074 25.7623C194.962 25.7623 193.405 23.9258 193.405 20.2514V12.5161H196.389V19.9484C196.389 22.2742 197.302 23.4368 199.129 23.4368C200.011 23.4368 200.738 23.1173 201.308 22.4769C201.879 21.8366 202.163 20.9984 202.163 19.9614V12.5161H205.147L205.145 25.4594ZM216.68 15.3101C216.32 15.0316 215.801 14.8933 215.124 14.8933C214.241 14.8933 213.503 15.2844 212.911 16.0686C212.32 16.8515 212.024 17.918 212.024 19.2658V25.4594H209.041V12.5164H212.024V15.1832H212.074C212.366 14.2732 212.814 13.5633 213.418 13.0538C214.023 12.5445 214.698 12.289 215.443 12.289C215.983 12.289 216.395 12.3699 216.677 12.5291L216.68 15.3101H216.68ZM229.964 19.7841H220.988C221.021 20.9802 221.396 21.903 222.113 22.5524C222.829 23.2006 223.812 23.5253 225.064 23.5253C226.47 23.5253 227.761 23.1121 228.935 22.2869V24.6496C227.735 25.3914 226.148 25.7623 224.176 25.7623C222.238 25.7623 220.72 25.1745 219.618 23.9989C218.516 22.8234 217.966 21.1702 217.966 19.0386C217.966 17.0249 218.572 15.3832 219.786 14.1152C220.999 12.8472 222.506 12.2132 224.307 12.2132C226.107 12.2132 227.499 12.7819 228.485 13.9189C229.471 15.0561 229.965 16.6358 229.965 18.6587L229.964 19.7841H229.964ZM227.083 17.7114C227.07 16.6579 226.822 15.8387 226.325 15.2536C225.827 14.6686 225.142 14.3759 224.267 14.3759C223.41 14.3759 222.683 14.684 222.087 15.2986C221.492 15.9133 221.125 16.7183 220.988 17.7126H227.083V17.7114Z" fill="#00ADEF"/>
</g>
<defs>
<clipPath id="clip0_987_43">
<rect width="230" height="32" fill="white"/>
</clipPath>
</defs>
</svg>
