<svg width="165" height="53" viewBox="0 0 165 53" fill="none" xmlns="http://www.w3.org/2000/svg">
<g clip-path="url(#clip0_987_64)">
<mask id="mask0_987_64" style="mask-type:luminance" maskUnits="userSpaceOnUse" x="-89" y="-29" width="343" height="111">
<path d="M-88.811 81.5342H253.811V-28.5336H-88.811V81.5342Z" fill="white"/>
</mask>
<g mask="url(#mask0_987_64)">
<path d="M34.0765 10.4118C32.3174 8.42898 29.1376 7.5789 25.0698 7.5789H13.2638C12.8611 7.57869 12.4716 7.72061 12.1653 7.97913C11.859 8.23766 11.6561 8.5958 11.593 8.98911L6.67933 39.8238C6.65655 39.9668 6.66539 40.113 6.70525 40.2524C6.74511 40.3917 6.81505 40.5208 6.91023 40.6309C7.00542 40.7409 7.12359 40.8292 7.25661 40.8898C7.38963 40.9503 7.53434 40.9816 7.68077 40.9814H14.9693L16.7998 29.4991L16.7431 29.8587C16.805 29.4662 17.0065 29.1084 17.3115 28.8498C17.6165 28.5913 18.0048 28.4489 18.4065 28.4485H21.8701C28.6742 28.4485 34.0019 25.7153 35.5581 17.809C35.6044 17.5751 35.6443 17.3475 35.679 17.1252C36.1413 14.2029 35.6758 12.2138 34.0775 10.4128" fill="#003087"/>
<path d="M123.304 25.0838C122.859 27.977 120.625 27.977 118.464 27.977H117.235L118.097 22.5751C118.15 22.2488 118.434 22.0087 118.768 22.0087H119.332C120.803 22.0087 122.193 22.0087 122.909 22.837C123.337 23.3327 123.466 24.0685 123.304 25.0838ZM122.364 17.5349H114.214C113.944 17.535 113.683 17.6303 113.477 17.8036C113.272 17.977 113.136 18.217 113.093 18.4806L109.8 39.1475C109.785 39.2433 109.791 39.3413 109.818 39.4346C109.844 39.5279 109.891 39.6144 109.955 39.6881C110.019 39.7619 110.098 39.8211 110.187 39.8618C110.276 39.9025 110.373 39.9236 110.471 39.9238H114.653C115.043 39.9238 115.375 39.6432 115.436 39.2629L116.371 33.4017C116.457 32.8582 116.932 32.456 117.489 32.456H120.068C125.438 32.456 128.535 29.8881 129.344 24.7949C129.709 22.5689 129.359 20.8188 128.305 19.5936C127.146 18.2468 125.092 17.5339 122.365 17.5339" fill="#009CDE"/>
<path d="M65.1727 25.0846C64.7271 27.9778 62.4931 27.9778 60.3315 27.9778H59.102L59.9648 22.5759C60.0173 22.2496 60.301 22.0095 60.6352 22.0095H61.1995C62.6707 22.0095 64.0598 22.0095 64.7765 22.8378C65.2052 23.3335 65.3345 24.0693 65.1727 25.0846ZM64.2322 17.5357H56.082C55.525 17.5357 55.0501 17.9368 54.9628 18.4814L51.6685 39.1483C51.6532 39.2442 51.659 39.3421 51.6857 39.4355C51.7123 39.5289 51.7591 39.6155 51.8228 39.6893C51.8865 39.7631 51.9657 39.8223 52.0548 39.8629C52.1439 39.9036 52.2408 39.9246 52.3389 39.9246H56.2312C56.7881 39.9246 57.2621 39.5235 57.3493 38.9789L58.2393 33.4035C58.3255 32.859 58.8005 32.4578 59.3574 32.4578H61.9361C67.3058 32.4578 70.4037 29.8889 71.2128 24.7957C71.5775 22.5697 71.2275 20.8196 70.1735 19.5944C69.0145 18.2476 66.9601 17.5347 64.2332 17.5347M83.1544 32.5046C82.7761 34.7098 81.0076 36.1907 78.7493 36.1907C77.6176 36.1907 76.7107 35.8301 76.1286 35.1484C75.5506 34.4729 75.3342 33.5095 75.517 32.4381C75.868 30.2516 77.667 28.7239 79.8905 28.7239C80.9992 28.7239 81.8976 29.0876 82.4924 29.7756C83.0903 30.4688 83.3257 31.4373 83.1544 32.5046ZM88.5935 24.991H84.6907C84.5285 24.9909 84.3715 25.048 84.2482 25.1523C84.1248 25.2565 84.0433 25.401 84.0182 25.5595L83.8479 26.6382L83.5747 26.2475C82.7299 25.0347 80.8457 24.6284 78.9648 24.6284C74.6532 24.6284 70.9701 27.8603 70.2534 32.3913C69.8804 34.6537 70.41 36.8142 71.7067 38.3221C72.8973 39.7074 74.5965 40.2842 76.6214 40.2842C80.0976 40.2842 82.0248 38.0769 82.0248 38.0769L81.8503 39.1494C81.835 39.2453 81.8409 39.3434 81.8675 39.4368C81.8942 39.5303 81.9411 39.6169 82.005 39.6907C82.0688 39.7645 82.1481 39.8237 82.2373 39.8643C82.3265 39.9049 82.4236 39.9258 82.5218 39.9257H86.0358C86.5927 39.9257 87.0677 39.5256 87.1549 38.98L89.265 25.7684C89.2801 25.6724 89.2741 25.5743 89.2473 25.4808C89.2205 25.3874 89.1735 25.3008 89.1095 25.227C89.0456 25.1532 88.9663 25.094 88.877 25.0535C88.7878 25.0129 88.6907 24.992 88.5924 24.9921" fill="#003087"/>
<path d="M141.286 32.5046C140.908 34.7098 139.139 36.1907 136.881 36.1907C135.749 36.1907 134.843 35.8301 134.26 35.1484C133.683 34.4729 133.466 33.5095 133.649 32.4381C134 30.2516 135.798 28.7239 138.022 28.7239C139.131 28.7239 140.029 29.0876 140.624 29.7756C141.222 30.4688 141.458 31.4373 141.286 32.5046ZM146.725 24.991H142.823C142.66 24.9909 142.503 25.048 142.38 25.1523C142.257 25.2565 142.175 25.401 142.15 25.5595L141.98 26.6382L141.707 26.2475C140.862 25.0347 138.978 24.6284 137.097 24.6284C132.786 24.6284 129.103 27.8603 128.385 32.3913C128.012 34.6537 128.543 36.8142 129.84 38.3221C131.03 39.7074 132.729 40.2842 134.754 40.2842C138.232 40.2842 140.159 38.0769 140.159 38.0769L139.984 39.1494C139.969 39.2452 139.974 39.3432 140.001 39.4367C140.027 39.5301 140.074 39.6168 140.137 39.6906C140.201 39.7645 140.28 39.8238 140.369 39.8643C140.459 39.9049 140.556 39.9258 140.654 39.9257H144.167C144.724 39.9257 145.199 39.5256 145.287 38.98L147.397 25.7684C147.412 25.6724 147.406 25.5743 147.379 25.4808C147.352 25.3874 147.305 25.3008 147.241 25.227C147.178 25.1532 147.098 25.094 147.009 25.0535C146.92 25.0129 146.823 24.992 146.724 24.9921" fill="#009CDE"/>
<path d="M109.38 24.9918H105.456C105.081 24.9918 104.731 25.1757 104.521 25.4833L99.1093 33.3647L96.8154 25.7909C96.7454 25.5599 96.602 25.3573 96.4065 25.2132C96.211 25.0691 95.9737 24.9911 95.7299 24.9907H91.8744C91.7663 24.9908 91.6597 25.0163 91.5636 25.0653C91.4675 25.1142 91.3845 25.1851 91.3216 25.272C91.2588 25.359 91.2178 25.4596 91.202 25.5654C91.1863 25.6711 91.1963 25.7791 91.2313 25.8803L95.5502 38.4195L91.4877 44.0884C91.4159 44.1891 91.3734 44.3073 91.3649 44.4301C91.3564 44.553 91.3822 44.6758 91.4394 44.7852C91.4967 44.8945 91.5832 44.9862 91.6895 45.0503C91.7959 45.1144 91.918 45.1483 92.0425 45.1484H95.9621C96.332 45.1484 96.6798 44.9687 96.8921 44.6673L109.937 26.0466C110.008 25.9459 110.049 25.828 110.057 25.7056C110.065 25.5832 110.039 25.4611 109.982 25.3524C109.924 25.2437 109.838 25.1526 109.732 25.089C109.626 25.0254 109.504 24.9918 109.38 24.9918Z" fill="#003087"/>
<path d="M151.325 18.1043L147.979 39.1495C147.964 39.2454 147.97 39.3434 147.996 39.4368C148.023 39.5302 148.07 39.6167 148.134 39.6905C148.198 39.7642 148.277 39.8235 148.366 39.8641C148.455 39.9047 148.552 39.9257 148.65 39.9258H152.014C152.571 39.9258 153.046 39.5246 153.133 38.9801L156.432 18.3121C156.447 18.2162 156.441 18.1181 156.415 18.0247C156.388 17.9312 156.341 17.8446 156.277 17.7708C156.213 17.697 156.134 17.6377 156.045 17.5972C155.956 17.5566 155.858 17.5357 155.76 17.5358H151.996C151.834 17.5354 151.677 17.5924 151.554 17.6965C151.431 17.8006 151.35 17.9459 151.325 18.1043Z" fill="#009CDE"/>
<path d="M34.0765 10.4118C32.3174 8.42898 29.1376 7.5789 25.0698 7.5789H13.2638C12.8611 7.57869 12.4716 7.72061 12.1653 7.97913C11.859 8.23766 11.6561 8.5958 11.593 8.98911L6.67933 39.8238C6.65655 39.9668 6.66539 40.113 6.70525 40.2524C6.74511 40.3917 6.81505 40.5208 6.91023 40.6309C7.00542 40.7409 7.12359 40.8292 7.25661 40.8898C7.38963 40.9503 7.53434 40.9816 7.68077 40.9814H14.9693L16.7998 29.4991L16.7431 29.8587C16.805 29.4662 17.0065 29.1084 17.3115 28.8498C17.6165 28.5913 18.0048 28.4489 18.4065 28.4485H21.8701C28.6742 28.4485 34.0019 25.7153 35.5581 17.809C35.6044 17.5751 35.6443 17.3475 35.679 17.1252C36.1413 14.2029 35.6758 12.2138 34.0775 10.4128" fill="#003087"/>
<path d="M18.7662 17.1637C18.8214 16.82 18.9987 16.507 19.2662 16.281C19.5337 16.0549 19.8739 15.9305 20.2258 15.9301H29.4814C30.5775 15.9301 31.5999 16.0008 32.5341 16.1484C33.0449 16.2296 33.5502 16.3414 34.0473 16.483C34.6118 16.6399 35.1581 16.8552 35.6771 17.1252C36.1416 14.2019 35.675 12.2139 34.0767 10.4119C32.3166 8.43008 29.1378 7.58 25.0701 7.58H13.263C12.8607 7.58028 12.4716 7.72243 12.1658 7.98091C11.8599 8.23939 11.6573 8.59726 11.5943 8.99022L6.67852 39.8217C6.65558 39.9648 6.66427 40.111 6.704 40.2504C6.74372 40.3898 6.81353 40.519 6.90862 40.6292C7.00371 40.7393 7.12181 40.8277 7.25479 40.8884C7.38777 40.949 7.53247 40.9805 7.67891 40.9805H14.9685L16.799 29.4971L18.7662 17.1637Z" fill="#003087"/>
<path d="M35.6781 17.1238C35.642 17.3525 35.6018 17.5805 35.5573 17.8076C34.001 25.713 28.6733 28.4472 21.8692 28.4472H18.4046C18.003 28.4474 17.6147 28.5897 17.3098 28.8484C17.005 29.107 16.8037 29.4648 16.7422 29.8574L14.9684 40.9791L14.464 44.1342C14.444 44.2594 14.4516 44.3875 14.4865 44.5095C14.5213 44.6316 14.5825 44.7447 14.6658 44.8411C14.7491 44.9375 14.8525 45.0149 14.969 45.068C15.0855 45.1211 15.2122 45.1485 15.3404 45.1484H21.4846C22.2118 45.1484 22.8297 44.6247 22.9442 43.9149L23.0041 43.6052L24.1621 36.3473L24.2357 35.9462C24.2907 35.6022 24.4681 35.289 24.7359 35.0629C25.0036 34.8367 25.3442 34.7125 25.6963 34.7126H26.6158C32.5677 34.7126 37.2281 32.3224 38.59 25.4054C39.1574 22.5163 38.8632 20.1022 37.3605 18.4073C36.8833 17.8818 36.3132 17.4468 35.6781 17.1238Z" fill="#009CDE"/>
<path d="M34.0482 16.4827C33.8108 16.4131 33.5659 16.3507 33.3137 16.2956C33.0615 16.2405 32.8009 16.1917 32.534 16.1501C31.5988 15.9994 30.5774 15.9288 29.4803 15.9288H20.2257C19.8734 15.9284 19.5326 16.0526 19.2649 16.279C18.9972 16.5055 18.8203 16.8191 18.7661 17.1634L16.7989 29.4989L16.7422 29.8574C16.8036 29.4649 17.0049 29.107 17.3098 28.8484C17.6146 28.5898 18.0029 28.4475 18.4046 28.4472H21.8692C28.6733 28.4472 34.001 25.7141 35.5572 17.8077C35.6035 17.5739 35.6423 17.3473 35.6781 17.1239C35.2671 16.9112 34.839 16.7325 34.3982 16.5897C34.2836 16.5523 34.167 16.518 34.0482 16.4827Z" fill="#012169"/>
</g>
</g>
<defs>
<clipPath id="clip0_987_64">
<rect width="165" height="53" fill="white"/>
</clipPath>
</defs>
</svg>
