<svg width="128" height="128" viewBox="0 0 128 128" fill="none" xmlns="http://www.w3.org/2000/svg">
<path d="M23.6899 49.2004C23.5639 48.8103 23.3622 48.449 23.0965 48.1369C22.8307 47.8248 22.5062 47.5681 22.1412 47.3814C21.7763 47.1948 21.3782 47.0818 20.9696 47.0491C20.561 47.0163 20.15 47.0643 19.7599 47.1904C19.3699 47.3164 19.0085 47.5181 18.6964 47.7838C18.3843 48.0495 18.1276 48.3741 17.941 48.7391C17.7544 49.104 17.6414 49.5021 17.6086 49.9107C17.5758 50.3193 17.6239 50.7303 17.7499 51.1204L25.8199 75.9304C26.0904 76.6714 26.6323 77.2819 27.336 77.6384C28.0397 77.9949 28.8525 78.0706 29.6099 77.8504C30.0054 77.7425 30.3752 77.5562 30.6974 77.3026C31.0195 77.0491 31.2874 76.7334 31.4851 76.3742C31.6829 76.0151 31.8064 75.6199 31.8485 75.2122C31.8905 74.8044 31.8502 74.3923 31.7299 74.0004C31.7299 73.9504 23.6899 49.2004 23.6899 49.2004Z" fill="#ECB32D"/>
<path d="M11.2002 53.2404C11.0741 52.8504 10.8725 52.489 10.6067 52.1769C10.341 51.8648 10.0164 51.6081 9.65147 51.4215C9.28653 51.2348 8.88841 51.1219 8.47983 51.0891C8.07125 51.0563 7.66021 51.1043 7.27018 51.2304C6.88016 51.3565 6.51878 51.5581 6.20669 51.8239C5.8946 52.0896 5.6379 52.4142 5.45126 52.7791C5.26461 53.144 5.15167 53.5422 5.11889 53.9508C5.0861 54.3593 5.13412 54.7704 5.26019 55.1604L13.3302 80.0004C13.6006 80.7414 14.1426 81.352 14.8462 81.7084C15.5499 82.0649 16.3628 82.1407 17.1202 81.9204C17.5157 81.8125 17.8855 81.6262 18.2076 81.3727C18.5297 81.1191 18.7976 80.8034 18.9954 80.4443C19.1931 80.0852 19.3167 79.69 19.3587 79.2822C19.4008 78.8744 19.3605 78.4623 19.2402 78.0704C19.2402 78.0004 11.2002 53.2404 11.2002 53.2404Z" fill="#63C1A0"/>
<path d="M33.8499 69.7202C34.2399 69.5941 34.6013 69.3925 34.9134 69.1268C35.2255 68.861 35.4822 68.5364 35.6688 68.1715C35.8555 67.8066 35.9684 67.4084 36.0012 66.9999C36.034 66.5913 35.986 66.1802 35.8599 65.7902C35.7338 65.4002 35.5322 65.0388 35.2664 64.7267C35.0007 64.4146 34.6761 64.1579 34.3112 63.9713C33.9462 63.7846 33.5481 63.6717 33.1395 63.6389C32.7309 63.6061 32.3199 63.6541 31.9299 63.7802L7.09989 71.8802C6.35888 72.1507 5.74833 72.6926 5.39185 73.3963C5.03537 74.0999 4.9596 74.9128 5.17989 75.6702C5.28805 76.0623 5.47332 76.429 5.72486 76.7487C5.9764 77.0684 6.28916 77.3347 6.64485 77.5321C7.00053 77.7295 7.39201 77.854 7.79638 77.8983C8.20074 77.9426 8.60989 77.9059 8.99989 77.7902C9.07989 77.7902 33.8499 69.7202 33.8499 69.7202Z" fill="#E01A59"/>
<path d="M12.2598 76.7604L18.1998 74.8404C17.6798 73.2304 16.9898 71.1404 16.2798 68.9004L10.3398 70.8204L12.2598 76.7604Z" fill="#331433"/>
<path d="M24.7799 72.6803L30.7199 70.7603C30.1999 69.1503 29.5099 67.0603 28.7999 64.8203L22.8599 66.7403L24.7799 72.6803Z" fill="#D62027"/>
<path d="M29.7798 57.2397C30.1698 57.1137 30.5312 56.912 30.8433 56.6463C31.1554 56.3806 31.4121 56.056 31.5987 55.691C31.7854 55.3261 31.8983 54.928 31.9311 54.5194C31.9639 54.1108 31.9159 53.6998 31.7898 53.3097C31.6637 52.9197 31.4621 52.5583 31.1963 52.2462C30.9306 51.9341 30.606 51.6775 30.2411 51.4908C29.8761 51.3042 29.478 51.1912 29.0694 51.1584C28.6609 51.1257 28.2498 51.1737 27.8598 51.2997L2.99979 59.3597C2.25878 59.6302 1.64823 60.1721 1.29175 60.8758C0.93527 61.5795 0.859503 62.3923 1.07979 63.1497C1.18684 63.5532 1.37532 63.9305 1.63363 64.2585C1.89194 64.5864 2.21461 64.858 2.5818 65.0566C2.94898 65.2552 3.35292 65.3765 3.76875 65.4132C4.18459 65.4498 4.60352 65.401 4.99979 65.2697L29.7798 57.2397Z" fill="#89D3DF"/>
<path d="M8.22004 64.2399L14.16 62.3199C13.44 60.0799 12.75 57.9799 12.24 56.3799L6.29004 58.2999L8.22004 64.2399Z" fill="#258B74"/>
<path d="M20.6998 60.1901L26.6398 58.2701C25.9198 56.0301 25.2298 53.9301 24.7198 52.3301L18.7798 54.2501L20.6998 60.1901Z" fill="#819C3C"/>
<path d="M59.0001 55.7105C60.0901 56.2005 60.1801 56.5405 59.3201 58.1805C58.4601 59.8205 58.2301 60.0005 57.1401 59.5305C55.8027 58.953 54.3744 58.6146 52.9201 58.5305C51.0801 58.5305 49.9201 59.1905 49.9201 60.2005C49.9201 63.5005 60.4301 61.7205 60.4301 68.7305C60.4301 72.2605 57.4301 74.6205 52.8501 74.6205C50.2872 74.5398 47.771 73.9125 45.4701 72.7805C44.4701 72.2605 44.3801 71.9805 45.2701 70.2805C46.0201 68.8205 46.2701 68.6405 47.3701 69.1005C49.0752 69.8691 50.904 70.3263 52.7701 70.4505C54.4401 70.4505 55.5501 69.7605 55.5501 68.7805C55.5501 65.5905 44.8401 67.1105 44.8401 60.3105C44.8401 56.6905 47.8401 54.3105 52.3601 54.3105C54.6444 54.3324 56.9015 54.8082 59.0001 55.7105ZM67.5001 47.3905V73.5705C67.4654 73.8055 67.343 74.0187 67.1575 74.1671C66.9719 74.3155 66.7371 74.3882 66.5001 74.3705H63.7401C63.5032 74.3882 63.2684 74.3155 63.0828 74.1671C62.8973 74.0187 62.7749 73.8055 62.7401 73.5705V47.3905C62.7401 46.1005 63.1101 45.9805 65.1201 45.9805C67.4201 46.0005 67.5001 46.1205 67.5001 47.3905ZM87.0801 62.0905V73.3705C87.0801 73.6357 86.9748 73.89 86.7873 74.0776C86.5997 74.2651 86.3454 74.3705 86.0801 74.3705H83.3501C83.2109 74.371 83.0731 74.3425 82.9455 74.2867C82.8179 74.2309 82.7034 74.1491 82.6092 74.0465C82.5151 73.9439 82.4434 73.8228 82.3988 73.6908C82.3542 73.5589 82.3376 73.4192 82.3501 73.2805V72.0705C81.626 72.8632 80.7437 73.4952 79.7602 73.9258C78.7767 74.3564 77.7138 74.576 76.6401 74.5705C72.5301 74.5705 69.7801 72.1905 69.7801 68.6605C69.7801 64.9005 72.8801 62.3405 77.5601 62.3405C79.1711 62.3187 80.7708 62.6108 82.2701 63.2005V61.9205C82.2701 59.8505 80.6301 58.6205 77.8501 58.6205C76.3804 58.6885 74.9507 59.1216 73.6901 59.8805C72.6901 60.4305 72.4801 60.4005 71.4201 58.8205C70.3601 57.2405 70.4201 56.9505 71.4201 56.2905C73.4911 55.0071 75.8739 54.3155 78.3101 54.2905C83.7001 54.2505 87.0801 57.1505 87.0801 62.0905ZM74.3901 68.6305C74.3901 69.9805 75.5401 70.8705 77.2301 70.8705C78.2302 70.877 79.2161 70.6334 80.098 70.1618C80.98 69.6903 81.7301 69.0057 82.2801 68.1705V66.4205C81.1226 65.986 79.8965 65.7625 78.6601 65.7605C76.0901 65.7605 74.3901 67.0005 74.3901 68.6305ZM105.75 55.7405C106.75 56.3105 106.75 56.6305 105.69 58.3205C104.63 60.0105 104.48 60.0105 103.36 59.4705C102.339 58.9749 101.225 58.7022 100.09 58.6705C99.3261 58.6209 98.5602 58.7344 97.8434 59.0034C97.1265 59.2724 96.475 59.6908 95.9322 60.2308C95.3894 60.7708 94.9676 61.42 94.6948 62.1355C94.4221 62.8509 94.3046 63.6162 94.3501 64.3805C94.3501 67.9405 96.6501 70.3805 100.09 70.3805C101.378 70.3355 102.637 69.9932 103.77 69.3805C104.77 68.8105 104.98 68.8305 106.04 70.3805C107.1 71.9305 106.99 72.1605 106.13 72.7605C104.3 73.9381 102.176 74.579 100 74.6105C93.6301 74.6105 89.3501 70.5305 89.3501 64.3905C89.3501 58.2505 93.6301 54.2605 100.06 54.2605C102.048 54.2925 103.999 54.8 105.75 55.7405ZM126.59 71.9105C127.39 72.9105 127.08 73.2905 125.07 74.0105C123.06 74.7305 122.74 74.7005 122.07 73.7805L116.36 66.1705L113.8 68.6405V73.5805C113.765 73.8155 113.643 74.0287 113.457 74.1771C113.272 74.3255 113.037 74.3982 112.8 74.3805H110C109.763 74.3982 109.528 74.3255 109.343 74.1771C109.157 74.0287 109.035 73.8155 109 73.5805V47.3905C109 46.1005 109.37 45.9805 111.38 45.9805C113.71 45.9805 113.76 46.1505 113.76 47.3905V62.2605L121.57 54.7705C122.43 53.9705 122.92 54.0205 124.44 55.0305C126.13 56.1205 126.25 56.4405 125.44 57.2105L119.64 62.8905L126.59 71.9105Z" fill="#2D333A"/>
</svg>
