<svg width="100" height="100" viewBox="0 0 100 100" fill="none" xmlns="http://www.w3.org/2000/svg">
<path d="M14 53C18.0741 53 21.4074 51.5455 24 49C26.5926 51.5455 29.9259 53 34 53C38.0741 53 41.4073 51.5455 44 49C46.5927 51.5455 49.9259 53 53.9999 53C58.0739 53 61.4074 51.5455 64.0001 49C66.5925 51.5455 69.926 53 74 53" stroke="#00CCF5" stroke-width="3" stroke-miterlimit="10" stroke-linecap="round" stroke-linejoin="round"/>
<path d="M14 70C18.0741 70 21.4074 68.9091 24 67C26.5926 68.9091 29.926 70 34 70C38.074 70 41.4075 68.9091 43.9999 67C46.5926 68.9091 49.9258 70 53.9998 70C58.0742 70 61.4074 68.9091 64.0001 67C66.5924 68.9091 69.926 70 74 70" stroke="#00CCF5" stroke-width="3" stroke-miterlimit="10" stroke-linecap="round" stroke-linejoin="round"/>
<path d="M44 35C60.5685 35 74 29.6274 74 23C74 16.3726 60.5685 11 44 11C27.4315 11 14 16.3726 14 23C14 29.6274 27.4315 35 44 35Z" stroke="black" stroke-width="3" stroke-miterlimit="10" stroke-linecap="round" stroke-linejoin="round"/>
<path d="M14 23V76.8421C14 83.4421 27.4118 89 44 89C60.5882 89 74 83.4421 74 76.8421V23" stroke="black" stroke-width="3" stroke-miterlimit="10" stroke-linecap="round" stroke-linejoin="round"/>
</svg>
