<svg width="100" height="100" viewBox="0 0 100 100" fill="none" xmlns="http://www.w3.org/2000/svg">
<path d="M84 51.5236V24.8702C84 18.8668 79.1082 14 73.0743 14H21.9257C15.8916 14 11 18.8668 11 24.8702V65.1298C11 71.1334 15.8916 76 21.9257 76H47.4998" stroke="black" stroke-width="3" stroke-linecap="round" stroke-linejoin="round"/>
<path d="M41.4537 57.6897C40.984 57.9145 40.4624 58.0202 39.9384 57.9968C39.4144 57.9731 38.9054 57.8213 38.4594 57.5553C38.0134 57.2894 37.6453 56.9181 37.39 56.477C37.1346 56.0356 37.0003 55.5391 37 55.0338V34.966C37.0003 34.4609 37.1346 33.9642 37.39 33.5229C37.6453 33.0817 38.0134 32.7106 38.4594 32.4446C38.9054 32.1787 39.4144 32.0268 39.9384 32.0032C40.4624 31.9797 40.984 32.0854 41.4537 32.3102L62.2962 42.3476C62.8081 42.5936 63.2389 42.9721 63.5397 43.4406C63.8406 43.9091 64 44.449 64 44.9999C64 45.5508 63.8406 46.0908 63.5397 46.5593C63.2389 47.0278 62.8081 47.4061 62.2962 47.6522L41.4537 57.6897Z" stroke="#00CCF5" stroke-width="3" stroke-linecap="round" stroke-linejoin="round"/>
<path d="M70.5001 59C76.3333 59 81 63.5378 81 69.2101C81 73.521 74.7 81.9158 71.9001 85.3192C71.6668 85.7732 70.9667 86 70.5001 86C70.0333 86 69.5667 85.7732 69.1002 85.3192C66.3 81.689 60 73.521 60 69.2101C60.2333 63.5378 64.9 59 70.5001 59Z" stroke="#00CCF5" stroke-width="3" stroke-miterlimit="10" stroke-linecap="round" stroke-linejoin="round"/>
<path d="M70 68C70.552 68 71 68 71 68C71 68 70.552 68 70 68" stroke="#00CCF5" stroke-width="3" stroke-miterlimit="10" stroke-linecap="round" stroke-linejoin="round"/>
</svg>
