<svg width="15" height="15" viewBox="0 0 15 15" fill="none" xmlns="http://www.w3.org/2000/svg">
<g clip-path="url(#clip0_780_502)">
<path d="M14.4551 0.720776L11.4083 0.0176508C11.0772 -0.0585211 10.7374 0.11433 10.6026 0.424877L9.19635 3.70613C9.0733 3.99324 9.15533 4.33015 9.3985 4.52644L11.1739 5.97957C10.1192 8.22663 8.27643 10.0958 5.98248 11.171L4.52936 9.39558C4.33014 9.15242 3.99615 9.07038 3.70904 9.19343L0.427795 10.5997C0.114319 10.7374 -0.0585327 11.0772 0.0176391 11.4083L0.720764 14.4552C0.794006 14.7716 1.07526 15.0001 1.40631 15.0001C8.90924 15.0001 15.0001 8.92097 15.0001 1.40632C15.0001 1.0782 14.7745 0.794018 14.4551 0.720776Z" fill="#9A92F9"/>
</g>
<defs>
<clipPath id="clip0_780_502">
<rect width="15" height="15" fill="white"/>
</clipPath>
</defs>
</svg>
