<svg width="100" height="100" viewBox="0 0 100 100" fill="none" xmlns="http://www.w3.org/2000/svg">
<path d="M78.303 50.1236V49.2775C78.303 47.2569 77.5163 45.3209 76.1193 43.8926C75.4328 43.1881 74.612 42.6279 73.7053 42.2449C72.7986 41.8618 71.8243 41.6637 70.8398 41.6621C68.8595 41.6621 66.964 42.4643 65.5636 43.8926C64.1583 45.3338 63.3734 47.2664 63.3765 49.2775V50.1236H54.2891V60.2775H55.1164C57.0967 60.2775 58.9956 61.0796 60.396 62.508C61.7964 63.9363 62.5797 65.8723 62.5797 67.8929C62.5797 69.9135 61.7964 71.8495 60.396 73.2778C59.7095 73.9822 58.8887 74.5425 57.982 74.9255C57.0753 75.3086 56.101 75.5067 55.1164 75.5083H54.2891V85.6621H84.9728C85.8544 85.6621 86.6954 85.3067 87.3159 84.6704C87.9398 84.0375 88.2891 83.1744 88.2891 82.2775V50.1236H78.303Z" stroke="black" stroke-width="3" stroke-linecap="round" stroke-linejoin="round"/>
<path d="M54.9092 59.9478H54.0915V49.6621H45.8604V50.5193C45.8604 52.5661 45.0862 54.5273 43.702 55.9741C43.0235 56.6877 42.2123 57.2552 41.3161 57.6432C40.4199 58.0312 39.457 58.232 38.4839 58.2335C37.5113 58.2315 36.549 58.0306 35.6534 57.6426C34.7579 57.2545 33.9472 56.6873 33.269 55.9741C31.8801 54.5142 31.1043 52.5565 31.1074 50.5193V49.6621H20.4833V59.9478H19.6656C17.7083 59.9478 15.8315 60.7604 14.4507 62.2073C13.0618 63.6672 12.286 65.6249 12.2891 67.6621C12.2891 69.709 13.0666 71.6701 14.4507 73.117C15.8315 74.5638 17.7083 75.3764 19.6656 75.3764H20.4867V82.2335C20.4867 83.1421 20.8319 84.0164 21.4452 84.6575C21.7468 84.9747 22.1073 85.2269 22.5056 85.3995C22.9039 85.572 23.3319 85.6613 23.7644 85.6621H54.0915V75.3764H54.9092C56.8664 75.3764 58.7432 74.5638 60.1274 73.117C61.5115 71.6701 62.2891 69.709 62.2891 67.6621C62.2891 65.6153 61.5115 63.6541 60.1274 62.2073C59.4488 61.4937 58.6376 60.9262 57.7415 60.5381C56.8453 60.1501 55.8823 59.9494 54.9092 59.9478Z" stroke="#00CCF5" stroke-width="3" stroke-linecap="round" stroke-linejoin="round"/>
<path d="M54.2248 40.0467H53.3956C52.4134 40.0447 51.4416 39.8464 50.5373 39.4633C49.6329 39.0803 48.8142 38.5203 48.1294 37.8163C46.7268 36.3751 45.9433 34.4425 45.9464 32.4313C45.9464 30.4107 46.7316 28.4747 48.1294 27.0464C48.8142 26.3424 49.6329 25.7824 50.5373 25.3994C51.4416 25.0163 52.4134 24.818 53.3956 24.816H54.2248V14.6621H23.5957C23.16 14.6638 22.7291 14.7524 22.3281 14.9227C21.9272 15.093 21.5642 15.3415 21.2604 15.6538C20.6365 16.2939 20.2879 17.1528 20.2891 18.0467V24.816H21.1149C23.0914 24.816 24.9867 25.6181 26.3844 27.0464C27.7788 28.4747 28.564 30.4107 28.564 32.4313C28.564 34.452 27.7788 36.388 26.3844 37.8163C25.6992 38.5207 24.88 39.0809 23.975 39.464C23.07 39.847 22.0976 40.0452 21.1149 40.0467H20.2891V50.2006H31.082V51.0467C31.082 53.0673 31.8672 55.0033 33.2616 56.4316C34.6594 57.86 36.5546 58.6621 38.5312 58.6621C40.5077 58.6621 42.4029 57.86 43.7973 56.4316C45.1951 55.0033 45.9803 53.0673 45.9803 51.0467V50.2006H54.2891L54.2248 40.0467Z" stroke="black" stroke-width="3" stroke-linecap="round" stroke-linejoin="round"/>
<path d="M78.3724 14.6621V15.4954C78.3724 17.4854 77.5946 19.3921 76.2039 20.7988C75.5222 21.4925 74.7071 22.0443 73.8067 22.4215C72.9063 22.7988 71.9388 22.9939 70.9611 22.9954C69.9839 22.9935 69.017 22.7981 68.1173 22.4209C67.2175 22.0436 66.403 21.4921 65.7216 20.7988C64.3261 19.3794 63.5466 17.4761 63.5497 15.4954V14.6621H54.5254V24.6621H53.7004C51.7373 24.6621 49.8516 25.4521 48.461 26.8588C47.0654 28.2781 46.286 30.1815 46.2891 32.1621C46.2891 34.1521 47.0703 36.0588 48.461 37.4654C49.8516 38.8721 51.7373 39.6621 53.7004 39.6621H54.5254V49.6621H63.5834V48.8288C63.5834 46.8388 64.3646 44.9321 65.7553 43.5254C66.4366 42.8321 67.2511 42.2806 68.1509 41.9033C69.0507 41.5261 70.0176 41.3308 70.9948 41.3288C72.9612 41.3288 74.8469 42.1188 76.2376 43.5254C77.6249 44.9321 78.4061 46.8388 78.4061 48.8288V49.6621H88.2891V17.9954C88.2891 17.1121 87.9422 16.2621 87.3227 15.6388C87.02 15.3308 86.6583 15.0858 86.2588 14.9181C85.8592 14.7504 85.4299 14.6634 84.9959 14.6621H78.3724Z" stroke="#00CCF5" stroke-width="3" stroke-linecap="round" stroke-linejoin="round"/>
</svg>
