<svg width="580" height="537" viewBox="0 0 580 537" fill="none" xmlns="http://www.w3.org/2000/svg">
<g opacity="0.3">
<path d="M50.5304 172.932L101.035 144.631L50.5304 116.354L0 144.631L50.5304 172.932Z" fill="url(#paint0_linear_1328_517)"/>
<path d="M50.5304 171.766L99.9868 144.061L101.035 144.631L50.5304 172.932L0 144.631L1.04845 144.061L50.5304 171.766Z" fill="white"/>
<path d="M0 360.646L50.5304 388.947V172.932L0 144.631V360.646Z" fill="url(#paint1_linear_1328_517)"/>
<path d="M50.5304 388.947L101.035 360.646V144.631L50.5304 172.932V388.947Z" fill="url(#paint2_linear_1328_517)"/>
<path d="M116.481 257.71L166.986 229.409L116.481 201.108L65.9504 229.409L116.481 257.71Z" fill="url(#paint3_linear_1328_517)"/>
<path d="M116.481 256.52L165.937 228.814L166.986 229.41L116.481 257.711L65.9504 229.41L66.9988 228.814L116.481 256.52Z" fill="white"/>
<path d="M65.9504 397.677L116.481 425.954V257.71L65.9504 229.409V397.677Z" fill="url(#paint4_linear_1328_517)"/>
<path d="M116.481 425.954L166.986 397.677V229.409L116.481 257.71V425.954Z" fill="url(#paint5_linear_1328_517)"/>
<path d="M182.431 308.856L232.936 280.555L182.431 252.278L131.901 280.555L182.431 308.856Z" fill="url(#paint6_linear_1328_517)"/>
<path d="M182.431 307.69L231.887 279.984L232.936 280.555L182.431 308.856L131.901 280.555L132.949 279.984L182.431 307.69Z" fill="white"/>
<path d="M131.901 434.685L182.431 462.986V308.856L131.901 280.555V434.685Z" fill="url(#paint7_linear_1328_517)"/>
<path d="M182.431 462.986L232.936 434.685V280.555L182.431 308.856V462.986Z" fill="url(#paint8_linear_1328_517)"/>
<path d="M248.381 391.601L298.886 363.3L248.381 335.023L197.851 363.3L248.381 391.601Z" fill="url(#paint9_linear_1328_517)"/>
<path d="M248.381 390.435L297.838 362.729L298.886 363.3L248.381 391.601L197.851 363.3L198.9 362.729L248.381 390.435Z" fill="white"/>
<path d="M197.851 471.692L248.381 499.993V391.601L197.851 363.3V471.692Z" fill="url(#paint10_linear_1328_517)"/>
<path d="M248.381 499.993L298.886 471.692V363.3L248.381 391.601V499.993Z" fill="url(#paint11_linear_1328_517)"/>
<path d="M314.332 417.62L364.837 389.319L314.332 361.043L263.801 389.319L314.332 417.62Z" fill="url(#paint12_linear_1328_517)"/>
<path d="M314.332 416.455L363.788 388.749L364.837 389.32L314.332 417.621L263.801 389.32L264.85 388.749L314.332 416.455Z" fill="white"/>
<path d="M263.801 508.7L314.332 537.001V417.62L263.801 389.319V508.7Z" fill="url(#paint13_linear_1328_517)"/>
<path d="M314.332 537.001L364.837 508.7V389.319L314.332 417.62V537.001Z" fill="url(#paint14_linear_1328_517)"/>
</g>
<path d="M50.5304 130.517L101.035 102.216L50.5304 73.915L0 102.216L50.5304 130.517Z" fill="url(#paint15_linear_1328_517)"/>
<path d="M50.5304 129.352L99.9868 101.621L101.035 102.216L50.5304 130.517L0 102.216L1.04845 101.646L50.5304 129.352Z" fill="white"/>
<path d="M0 266.441L50.5304 294.717V130.517L0 102.216V266.441Z" fill="url(#paint16_linear_1328_517)"/>
<path d="M50.5304 294.717L101.035 266.441V102.216L50.5304 130.517V294.717Z" fill="url(#paint17_linear_1328_517)"/>
<path d="M116.481 215.272L166.986 186.995L116.481 158.694L65.9504 186.995L116.481 215.272Z" fill="url(#paint18_linear_1328_517)"/>
<path opacity="0.3" d="M116.481 205.003L148.625 186.996L116.481 168.988L84.3111 186.996L116.481 205.003Z" fill="url(#paint19_linear_1328_517)"/>
<path d="M116.481 214.106L165.937 186.4L166.986 186.996L116.481 215.272L65.9504 186.996L66.9988 186.4L116.481 214.106Z" fill="white"/>
<path d="M65.9504 303.448L116.481 331.725V215.271L65.9504 186.995V303.448Z" fill="url(#paint20_linear_1328_517)"/>
<path d="M116.481 331.725L166.986 303.448V186.995L116.481 215.271V331.725Z" fill="url(#paint21_linear_1328_517)"/>
<path d="M116.481 172.932L166.986 144.631L116.481 116.354L65.9504 144.631L116.481 172.932Z" fill="url(#paint22_linear_1328_517)"/>
<path d="M116.481 171.766L165.937 144.061L166.986 144.631L116.481 172.932L65.9504 144.631L66.9988 144.061L116.481 171.766Z" fill="white"/>
<path d="M65.9504 164.623L116.481 192.924V172.932L65.9504 144.631V164.623Z" fill="url(#paint23_linear_1328_517)"/>
<path d="M116.481 192.924L166.986 164.623V144.631L116.481 172.932V192.924Z" fill="url(#paint24_linear_1328_517)"/>
<path d="M182.431 266.441L232.936 238.14L182.431 209.839L131.901 238.14L182.431 266.441Z" fill="url(#paint25_linear_1328_517)"/>
<path opacity="0.2" d="M182.457 249.475C203.349 249.425 216.391 238.289 205.932 229.409C201.073 225.291 192.097 222.762 182.406 222.786C161.513 222.836 148.471 233.973 158.93 242.853C163.789 246.97 172.765 249.5 182.457 249.475Z" fill="#302E93"/>
<path d="M182.431 265.251L231.887 237.545L232.936 238.14L182.431 266.441L131.901 238.14L132.949 237.545L182.431 265.251Z" fill="white"/>
<path d="M131.901 340.455L182.431 368.756V266.441L131.901 238.14V340.455Z" fill="url(#paint26_linear_1328_517)"/>
<path d="M182.431 368.756L232.936 340.455V238.14L182.431 266.441V368.756Z" fill="url(#paint27_linear_1328_517)"/>
<path d="M248.381 349.186L298.886 320.885L248.381 292.584L197.851 320.885L248.381 349.186Z" fill="url(#paint28_linear_1328_517)"/>
<path d="M248.381 347.996L297.838 320.29L298.886 320.885L248.381 349.186L197.851 320.885L198.9 320.29L248.381 347.996Z" fill="white"/>
<path d="M197.851 377.462L248.381 405.763V349.186L197.851 320.885V377.462Z" fill="url(#paint29_linear_1328_517)"/>
<path d="M248.381 405.763L298.886 377.462V320.885L248.381 349.186V405.763Z" fill="url(#paint30_linear_1328_517)"/>
<path d="M314.332 375.205L364.837 346.904L314.332 318.628L263.801 346.904L314.332 375.205Z" fill="url(#paint31_linear_1328_517)"/>
<path d="M314.332 374.04L363.788 346.334L364.837 346.904L314.332 375.205L263.801 346.904L264.85 346.334L314.332 374.04Z" fill="white"/>
<path d="M263.801 414.47L314.332 442.771V375.205L263.801 346.904V414.47Z" fill="url(#paint32_linear_1328_517)"/>
<path d="M314.332 442.771L364.837 414.47V346.904L314.332 375.205V442.771Z" fill="url(#paint33_linear_1328_517)"/>
<g opacity="0.3">
<path d="M222.426 81.8529L207.671 62.5557L219.715 269.791L264.569 276.512L297.403 76.0241L222.426 81.8529Z" fill="url(#paint34_linear_1328_517)"/>
<path d="M207.671 62.5553L240.531 44.1758L285.384 50.8976L297.403 76.0237L264.569 94.4033L219.715 87.6815L207.671 62.5553Z" fill="url(#paint35_linear_1328_517)"/>
<path d="M208.566 62.0596L220.124 86.2184L264.978 92.965L296.943 75.0567L297.403 76.024L264.569 94.4036L219.715 87.6818L207.671 62.5556L208.566 62.0596Z" fill="white"/>
<path d="M219.715 87.6816V269.79L264.569 276.512V94.4034L219.715 87.6816Z" fill="url(#paint36_linear_1328_517)"/>
<path d="M207.671 62.5557V244.664L219.715 269.791V87.6818L207.671 62.5557Z" fill="url(#paint37_linear_1328_517)"/>
<path d="M297.403 76.0234V258.107L264.569 276.512V94.403L297.403 76.0234Z" fill="url(#paint38_linear_1328_517)"/>
<path d="M293.056 152.122L278.326 132.824L290.345 307.169L335.199 313.891L368.059 146.293L293.056 152.122Z" fill="url(#paint39_linear_1328_517)"/>
<path d="M278.326 132.824L311.161 114.42L356.04 121.167L368.059 146.293L335.199 164.672L290.345 157.95L278.326 132.824Z" fill="url(#paint40_linear_1328_517)"/>
<path d="M279.221 132.328L290.78 156.487L335.633 163.234L367.598 145.325L368.059 146.293L335.199 164.672L290.345 157.95L278.326 132.824L279.221 132.328Z" fill="white"/>
<path d="M290.345 157.95V307.169L335.199 313.891V164.672L290.345 157.95Z" fill="url(#paint41_linear_1328_517)"/>
<path d="M278.326 132.824V282.043L290.345 307.169V157.95L278.326 132.824Z" fill="url(#paint42_linear_1328_517)"/>
<path d="M368.059 146.293V295.487L335.199 313.892V164.673L368.059 146.293Z" fill="url(#paint43_linear_1328_517)"/>
<path d="M363.711 226.731L348.982 207.434L361.001 347.525L405.854 354.247L438.689 220.902L363.711 226.731Z" fill="url(#paint44_linear_1328_517)"/>
<path d="M348.982 207.434L381.817 189.029L426.67 195.776L438.689 220.902L405.854 239.282L361.001 232.56L348.982 207.434Z" fill="url(#paint45_linear_1328_517)"/>
<path d="M349.851 206.938L361.41 231.096L406.289 237.843L438.228 219.935L438.689 220.902L405.854 239.282L361.001 232.56L348.982 207.434L349.851 206.938Z" fill="white"/>
<path d="M361.001 232.56V347.525L405.854 354.247V239.281L361.001 232.56Z" fill="url(#paint46_linear_1328_517)"/>
<path d="M348.982 207.434V322.399L361.001 347.525V232.56L348.982 207.434Z" fill="url(#paint47_linear_1328_517)"/>
<path d="M438.689 220.902V335.867L405.854 354.247V239.282L438.689 220.902Z" fill="url(#paint48_linear_1328_517)"/>
<path d="M434.367 280.381L419.612 261.084L431.631 387.88L476.51 394.602L509.344 274.528L434.367 280.381Z" fill="url(#paint49_linear_1328_517)"/>
<path d="M419.612 261.084L452.472 242.68L497.326 249.426L509.344 274.528L476.51 292.932L431.631 286.21L419.612 261.084Z" fill="url(#paint50_linear_1328_517)"/>
<path d="M420.507 260.588L432.066 284.747L476.919 291.493L508.884 273.585L509.344 274.528L476.51 292.932L431.631 286.21L419.612 261.084L420.507 260.588Z" fill="white"/>
<path d="M431.631 286.21V387.88L476.51 394.602V292.932L431.631 286.21Z" fill="url(#paint51_linear_1328_517)"/>
<path d="M419.612 261.084V362.754L431.631 387.88V286.21L419.612 261.084Z" fill="url(#paint52_linear_1328_517)"/>
<path d="M509.344 274.527V376.222L476.51 394.602V292.932L509.344 274.527Z" fill="url(#paint53_linear_1328_517)"/>
<path d="M504.997 345.863L490.268 326.565L502.287 428.236L547.14 434.982L580 340.034L504.997 345.863Z" fill="url(#paint54_linear_1328_517)"/>
<path d="M490.268 326.565L523.102 308.161L567.981 314.908L580 340.034L547.14 358.413L502.287 351.692L490.268 326.565Z" fill="url(#paint55_linear_1328_517)"/>
<path d="M491.137 326.069L502.721 350.228L547.575 356.975L579.54 339.066L580 340.034L547.14 358.413L502.287 351.692L490.268 326.565L491.137 326.069Z" fill="white"/>
<path d="M502.287 351.691V428.236L547.14 434.982V358.413L502.287 351.691Z" fill="url(#paint56_linear_1328_517)"/>
<path d="M490.268 326.565V403.134L502.287 428.236V351.692L490.268 326.565Z" fill="url(#paint57_linear_1328_517)"/>
<path d="M580 340.034V416.578L547.14 434.983V358.414L580 340.034Z" fill="url(#paint58_linear_1328_517)"/>
</g>
<path d="M222.426 37.702L207.671 18.3799L219.715 190.79L264.569 197.512L297.403 31.8483L222.426 37.702Z" fill="url(#paint59_linear_1328_517)"/>
<path d="M207.671 18.3795L240.531 0L285.384 6.7218L297.403 31.8479L264.569 50.2523L219.715 43.5057L207.671 18.3795Z" fill="url(#paint60_linear_1328_517)"/>
<path d="M208.566 17.9082L220.124 42.067L264.978 48.7888L296.943 30.9053L297.403 31.8479L264.569 50.2522L219.715 43.5056L207.671 18.3795L208.566 17.9082Z" fill="white"/>
<path d="M219.715 43.5059V190.79L264.569 197.512V50.2525L219.715 43.5059Z" fill="url(#paint61_linear_1328_517)"/>
<path d="M207.671 18.3799V165.664L219.715 190.79V43.506L207.671 18.3799Z" fill="url(#paint62_linear_1328_517)"/>
<path d="M297.403 31.8477V179.107L264.569 197.512V50.252L297.403 31.8477Z" fill="url(#paint63_linear_1328_517)"/>
<path d="M293.056 107.971L278.326 88.6484L290.345 231.146L335.199 237.867L368.059 102.117L293.056 107.971Z" fill="url(#paint64_linear_1328_517)"/>
<path d="M278.326 88.6481L311.161 70.2686L356.04 76.9904L368.059 102.116L335.199 120.521L290.345 113.774L278.326 88.6481Z" fill="url(#paint65_linear_1328_517)"/>
<path d="M279.221 88.1768L290.78 112.336L335.633 119.057L367.598 101.174L368.059 102.116L335.199 120.521L290.345 113.774L278.326 88.648L279.221 88.1768Z" fill="white"/>
<path d="M290.345 113.774V231.146L335.199 237.867V120.521L290.345 113.774Z" fill="url(#paint66_linear_1328_517)"/>
<path d="M278.326 88.6484V206.02L290.345 231.146V113.775L278.326 88.6484Z" fill="url(#paint67_linear_1328_517)"/>
<path d="M368.059 102.116V219.487L335.199 237.867V120.521L368.059 102.116Z" fill="url(#paint68_linear_1328_517)"/>
<path d="M363.711 182.58L348.982 163.258L361.001 271.501L405.854 278.223L438.689 176.726L363.711 182.58Z" fill="url(#paint69_linear_1328_517)"/>
<path d="M348.982 163.257L381.816 144.878L426.67 151.6L438.689 176.726L405.854 195.105L361.001 188.384L348.982 163.257Z" fill="url(#paint70_linear_1328_517)"/>
<path d="M349.851 162.762L361.41 186.945L406.289 193.667L438.228 175.784L438.689 176.726L405.854 195.106L361.001 188.384L348.982 163.258L349.851 162.762Z" fill="white"/>
<path d="M361.001 188.384V271.501L405.854 278.223V195.106L361.001 188.384Z" fill="url(#paint71_linear_1328_517)"/>
<path d="M348.982 163.258V246.375L361.001 271.501V188.384L348.982 163.258Z" fill="url(#paint72_linear_1328_517)"/>
<path d="M438.689 176.726V259.843L405.854 278.222V195.105L438.689 176.726Z" fill="url(#paint73_linear_1328_517)"/>
<path d="M434.367 236.23L419.612 216.908L431.631 311.857L476.51 318.603L509.344 230.377L434.367 236.23Z" fill="url(#paint74_linear_1328_517)"/>
<path d="M419.612 216.908L452.472 198.528L497.326 205.25L509.344 230.376L476.51 248.756L431.631 242.034L419.612 216.908Z" fill="url(#paint75_linear_1328_517)"/>
<path opacity="0.3" d="M434.367 219.116L456.41 206.788L486.534 211.302L494.589 228.169L472.546 240.496L442.448 235.982L434.367 219.116Z" fill="url(#paint76_linear_1328_517)"/>
<path d="M420.507 216.412L432.066 240.596L476.919 247.318L508.884 229.409L509.344 230.377L476.51 248.756L431.631 242.034L419.612 216.908L420.507 216.412Z" fill="white"/>
<path d="M431.631 242.034V311.857L476.51 318.603V248.756L431.631 242.034Z" fill="url(#paint77_linear_1328_517)"/>
<path d="M419.612 216.908V286.755L431.631 311.857V242.034L419.612 216.908Z" fill="url(#paint78_linear_1328_517)"/>
<path d="M509.344 230.376V300.198L476.51 318.603V248.756L509.344 230.376Z" fill="url(#paint79_linear_1328_517)"/>
<path d="M434.367 195.652L419.612 176.33L431.631 219.464L476.51 226.21L509.344 189.798L434.367 195.652Z" fill="url(#paint80_linear_1328_517)"/>
<path d="M419.612 176.33L452.472 157.95L497.326 164.672L509.344 189.798L476.51 208.178L431.631 201.456L419.612 176.33Z" fill="url(#paint81_linear_1328_517)"/>
<path d="M420.507 175.834L432.066 200.018L476.919 206.739L508.884 188.831L509.344 189.798L476.51 208.178L431.631 201.456L419.612 176.33L420.507 175.834Z" fill="white"/>
<path d="M431.631 201.456V219.464L476.51 226.21V208.178L431.631 201.456Z" fill="url(#paint82_linear_1328_517)"/>
<path d="M419.612 176.33V194.362L431.631 219.464V201.456L419.612 176.33Z" fill="url(#paint83_linear_1328_517)"/>
<path d="M509.344 189.798V207.805L476.51 226.21V208.177L509.344 189.798Z" fill="url(#paint84_linear_1328_517)"/>
<path d="M504.997 301.713L490.268 282.391L502.286 352.238L547.14 358.96L580 295.859L504.997 301.713Z" fill="url(#paint85_linear_1328_517)"/>
<path d="M490.268 282.39L523.102 264.011L567.981 270.733L580 295.859L547.14 314.263L502.287 307.516L490.268 282.39Z" fill="url(#paint86_linear_1328_517)"/>
<path d="M491.137 281.895L502.721 306.078L547.575 312.8L579.54 294.916L580 295.859L547.14 314.263L502.286 307.517L490.268 282.391L491.137 281.895Z" fill="white"/>
<path d="M502.286 307.517V352.238L547.14 358.959V314.263L502.286 307.517Z" fill="url(#paint87_linear_1328_517)"/>
<path d="M490.268 282.391V327.112L502.286 352.238V307.517L490.268 282.391Z" fill="url(#paint88_linear_1328_517)"/>
<path d="M580 295.858V340.579L547.14 358.959V314.263L580 295.858Z" fill="url(#paint89_linear_1328_517)"/>
<g opacity="0.3">
<path d="M22.6824 320.811C25.3164 331.725 50.3514 331.725 52.9853 320.811C50.3514 309.898 25.3164 309.898 22.6824 320.811Z" fill="url(#paint90_linear_1328_517)"/>
</g>
<g opacity="0.3">
<path d="M150.287 462.837C152.793 469.757 168.776 469.757 171.307 462.837C171.435 462.465 171.435 462.043 171.307 461.696C168.801 454.776 152.819 454.776 150.287 461.696C150.159 462.068 150.159 462.49 150.287 462.837Z" fill="url(#paint91_linear_1328_517)"/>
</g>
<g opacity="0.3">
<path d="M172.535 478.215C179.797 492.179 212.785 492.006 219.357 477.644C219.996 476.231 219.996 474.569 219.357 473.155C212.811 458.818 179.797 458.62 172.535 472.584C171.614 474.37 171.614 476.404 172.535 478.19V478.215Z" fill="url(#paint92_linear_1328_517)"/>
</g>
<g opacity="0.3">
<path d="M54.2639 342.936C55.6448 348.69 68.84 348.69 70.2209 342.936C68.84 337.182 55.6448 337.182 54.2639 342.936Z" fill="url(#paint93_linear_1328_517)"/>
</g>
<defs>
<linearGradient id="paint0_linear_1328_517" x1="599.397" y1="-162.717" x2="549.926" y2="-133.27" gradientUnits="userSpaceOnUse">
<stop stop-color="#C0BFF6"/>
<stop offset="0.49" stop-color="#D1D1F9"/>
<stop offset="1" stop-color="#E9E9FD"/>
</linearGradient>
<linearGradient id="paint1_linear_1328_517" x1="-885.94" y1="-243.435" x2="-935.411" y2="-272.882" gradientUnits="userSpaceOnUse">
<stop stop-color="#C0BFF6"/>
<stop offset="0.29" stop-color="#C4C3F6"/>
<stop offset="0.64" stop-color="#D2D2F9"/>
<stop offset="1" stop-color="#E9E9FD"/>
</linearGradient>
<linearGradient id="paint2_linear_1328_517" x1="-264.365" y1="457.245" x2="-338.67" y2="501.474" gradientUnits="userSpaceOnUse">
<stop stop-color="#5761D7"/>
<stop offset="0.18" stop-color="#5B65D8"/>
<stop offset="0.39" stop-color="#6A72DE"/>
<stop offset="0.61" stop-color="#8188E8"/>
<stop offset="0.85" stop-color="#A2A6F5"/>
<stop offset="1" stop-color="#BCBEFF"/>
</linearGradient>
<linearGradient id="paint3_linear_1328_517" x1="611.006" y1="-47.5229" x2="561.556" y2="-18.0888" gradientUnits="userSpaceOnUse">
<stop stop-color="#C0BFF6"/>
<stop offset="0.49" stop-color="#D1D1F9"/>
<stop offset="1" stop-color="#E9E9FD"/>
</linearGradient>
<linearGradient id="paint4_linear_1328_517" x1="-830.691" y1="-188.524" x2="-880.162" y2="-217.971" gradientUnits="userSpaceOnUse">
<stop stop-color="#C0BFF6"/>
<stop offset="0.29" stop-color="#C4C3F6"/>
<stop offset="0.64" stop-color="#D2D2F9"/>
<stop offset="1" stop-color="#E9E9FD"/>
</linearGradient>
<linearGradient id="paint5_linear_1328_517" x1="-154.75" y1="493.668" x2="-229.055" y2="537.897" gradientUnits="userSpaceOnUse">
<stop stop-color="#5761D7"/>
<stop offset="0.18" stop-color="#5B65D8"/>
<stop offset="0.39" stop-color="#6A72DE"/>
<stop offset="0.61" stop-color="#8188E8"/>
<stop offset="0.85" stop-color="#A2A6F5"/>
<stop offset="1" stop-color="#BCBEFF"/>
</linearGradient>
<linearGradient id="paint6_linear_1328_517" x1="637.646" y1="25.6577" x2="588.196" y2="55.0918" gradientUnits="userSpaceOnUse">
<stop stop-color="#C0BFF6"/>
<stop offset="0.49" stop-color="#D1D1F9"/>
<stop offset="1" stop-color="#E9E9FD"/>
</linearGradient>
<linearGradient id="paint7_linear_1328_517" x1="-767.936" y1="-146.221" x2="-817.407" y2="-175.668" gradientUnits="userSpaceOnUse">
<stop stop-color="#C0BFF6"/>
<stop offset="0.29" stop-color="#C4C3F6"/>
<stop offset="0.64" stop-color="#D2D2F9"/>
<stop offset="1" stop-color="#E9E9FD"/>
</linearGradient>
<linearGradient id="paint8_linear_1328_517" x1="-52.6273" y1="517.505" x2="-126.932" y2="561.734" gradientUnits="userSpaceOnUse">
<stop stop-color="#5761D7"/>
<stop offset="0.18" stop-color="#5B65D8"/>
<stop offset="0.39" stop-color="#6A72DE"/>
<stop offset="0.61" stop-color="#8188E8"/>
<stop offset="0.85" stop-color="#A2A6F5"/>
<stop offset="1" stop-color="#BCBEFF"/>
</linearGradient>
<linearGradient id="paint9_linear_1328_517" x1="650.162" y1="138.31" x2="600.712" y2="167.744" gradientUnits="userSpaceOnUse">
<stop stop-color="#C0BFF6"/>
<stop offset="0.49" stop-color="#D1D1F9"/>
<stop offset="1" stop-color="#E9E9FD"/>
</linearGradient>
<linearGradient id="paint10_linear_1328_517" x1="-712.227" y1="-92.0821" x2="-761.676" y2="-121.516" gradientUnits="userSpaceOnUse">
<stop stop-color="#C0BFF6"/>
<stop offset="0.29" stop-color="#C4C3F6"/>
<stop offset="0.64" stop-color="#D2D2F9"/>
<stop offset="1" stop-color="#E9E9FD"/>
</linearGradient>
<linearGradient id="paint11_linear_1328_517" x1="56.5405" y1="553.177" x2="-17.7645" y2="597.406" gradientUnits="userSpaceOnUse">
<stop stop-color="#5761D7"/>
<stop offset="0.18" stop-color="#5B65D8"/>
<stop offset="0.39" stop-color="#6A72DE"/>
<stop offset="0.61" stop-color="#8188E8"/>
<stop offset="0.85" stop-color="#A2A6F5"/>
<stop offset="1" stop-color="#BCBEFF"/>
</linearGradient>
<linearGradient id="paint12_linear_1328_517" x1="688.01" y1="180.068" x2="638.56" y2="209.502" gradientUnits="userSpaceOnUse">
<stop stop-color="#C0BFF6"/>
<stop offset="0.49" stop-color="#D1D1F9"/>
<stop offset="1" stop-color="#E9E9FD"/>
</linearGradient>
<linearGradient id="paint13_linear_1328_517" x1="-643.859" y1="-59.2088" x2="-693.309" y2="-88.6428" gradientUnits="userSpaceOnUse">
<stop stop-color="#C0BFF6"/>
<stop offset="0.29" stop-color="#C4C3F6"/>
<stop offset="0.64" stop-color="#D2D2F9"/>
<stop offset="1" stop-color="#E9E9FD"/>
</linearGradient>
<linearGradient id="paint14_linear_1328_517" x1="153.05" y1="567.583" x2="78.7669" y2="611.799" gradientUnits="userSpaceOnUse">
<stop stop-color="#5761D7"/>
<stop offset="0.18" stop-color="#5B65D8"/>
<stop offset="0.39" stop-color="#6A72DE"/>
<stop offset="0.61" stop-color="#8188E8"/>
<stop offset="0.85" stop-color="#A2A6F5"/>
<stop offset="1" stop-color="#BCBEFF"/>
</linearGradient>
<linearGradient id="paint15_linear_1328_517" x1="618.331" y1="-215.737" x2="568.86" y2="-186.29" gradientUnits="userSpaceOnUse">
<stop stop-color="#C0BFF6"/>
<stop offset="0.49" stop-color="#D1D1F9"/>
<stop offset="1" stop-color="#E9E9FD"/>
</linearGradient>
<linearGradient id="paint16_linear_1328_517" x1="2682.34" y1="1686.5" x2="2680.16" y2="1685.21" gradientUnits="userSpaceOnUse">
<stop stop-color="#C0BFF6"/>
<stop offset="0.29" stop-color="#C4C3F6"/>
<stop offset="0.64" stop-color="#D2D2F9"/>
<stop offset="1" stop-color="#E9E9FD"/>
</linearGradient>
<linearGradient id="paint17_linear_1328_517" x1="3142.13" y1="-1518.74" x2="3139.95" y2="-1517.44" gradientUnits="userSpaceOnUse">
<stop stop-color="#5761D7"/>
<stop offset="0.18" stop-color="#5B65D8"/>
<stop offset="0.39" stop-color="#6A72DE"/>
<stop offset="0.61" stop-color="#8188E8"/>
<stop offset="0.85" stop-color="#A2A6F5"/>
<stop offset="1" stop-color="#BCBEFF"/>
</linearGradient>
<linearGradient id="paint18_linear_1328_517" x1="629.952" y1="-100.521" x2="580.503" y2="-71.0871" gradientUnits="userSpaceOnUse">
<stop stop-color="#C0BFF6"/>
<stop offset="0.49" stop-color="#D1D1F9"/>
<stop offset="1" stop-color="#E9E9FD"/>
</linearGradient>
<linearGradient id="paint19_linear_1328_517" x1="620.784" y1="-95.3865" x2="589.3" y2="-76.6463" gradientUnits="userSpaceOnUse">
<stop stop-color="#5761D7"/>
<stop offset="0.18" stop-color="#5B65D8"/>
<stop offset="0.39" stop-color="#6A72DE"/>
<stop offset="0.61" stop-color="#8188E8"/>
<stop offset="0.85" stop-color="#A2A6F5"/>
<stop offset="1" stop-color="#BCBEFF"/>
</linearGradient>
<linearGradient id="paint20_linear_1328_517" x1="-800.183" y1="-239.777" x2="-849.654" y2="-269.224" gradientUnits="userSpaceOnUse">
<stop stop-color="#C0BFF6"/>
<stop offset="0.29" stop-color="#C4C3F6"/>
<stop offset="0.64" stop-color="#D2D2F9"/>
<stop offset="1" stop-color="#E9E9FD"/>
</linearGradient>
<linearGradient id="paint21_linear_1328_517" x1="-185.245" y1="442.437" x2="-259.55" y2="486.666" gradientUnits="userSpaceOnUse">
<stop stop-color="#5761D7"/>
<stop offset="0.18" stop-color="#5B65D8"/>
<stop offset="0.39" stop-color="#6A72DE"/>
<stop offset="0.61" stop-color="#8188E8"/>
<stop offset="0.85" stop-color="#A2A6F5"/>
<stop offset="1" stop-color="#BCBEFF"/>
</linearGradient>
<linearGradient id="paint22_linear_1328_517" x1="648.867" y1="-153.473" x2="599.396" y2="-124.026" gradientUnits="userSpaceOnUse">
<stop stop-color="#C0BFF6"/>
<stop offset="0.49" stop-color="#D1D1F9"/>
<stop offset="1" stop-color="#E9E9FD"/>
</linearGradient>
<linearGradient id="paint23_linear_1328_517" x1="-759.754" y1="-307.698" x2="-809.225" y2="-337.145" gradientUnits="userSpaceOnUse">
<stop stop-color="#C0BFF6"/>
<stop offset="0.29" stop-color="#C4C3F6"/>
<stop offset="0.64" stop-color="#D2D2F9"/>
<stop offset="1" stop-color="#E9E9FD"/>
</linearGradient>
<linearGradient id="paint24_linear_1328_517" x1="-225.687" y1="374.495" x2="-299.992" y2="418.724" gradientUnits="userSpaceOnUse">
<stop stop-color="#5761D7"/>
<stop offset="0.18" stop-color="#5B65D8"/>
<stop offset="0.39" stop-color="#6A72DE"/>
<stop offset="0.61" stop-color="#8188E8"/>
<stop offset="0.85" stop-color="#A2A6F5"/>
<stop offset="1" stop-color="#BCBEFF"/>
</linearGradient>
<linearGradient id="paint25_linear_1328_517" x1="656.579" y1="-27.3626" x2="607.13" y2="2.07144" gradientUnits="userSpaceOnUse">
<stop stop-color="#C0BFF6"/>
<stop offset="0.49" stop-color="#D1D1F9"/>
<stop offset="1" stop-color="#E9E9FD"/>
</linearGradient>
<linearGradient id="paint26_linear_1328_517" x1="-737.428" y1="-197.474" x2="-786.9" y2="-226.921" gradientUnits="userSpaceOnUse">
<stop stop-color="#C0BFF6"/>
<stop offset="0.29" stop-color="#C4C3F6"/>
<stop offset="0.64" stop-color="#D2D2F9"/>
<stop offset="1" stop-color="#E9E9FD"/>
</linearGradient>
<linearGradient id="paint27_linear_1328_517" x1="-83.1347" y1="466.251" x2="-157.44" y2="510.48" gradientUnits="userSpaceOnUse">
<stop stop-color="#5761D7"/>
<stop offset="0.18" stop-color="#5B65D8"/>
<stop offset="0.39" stop-color="#6A72DE"/>
<stop offset="0.61" stop-color="#8188E8"/>
<stop offset="0.85" stop-color="#A2A6F5"/>
<stop offset="1" stop-color="#BCBEFF"/>
</linearGradient>
<linearGradient id="paint28_linear_1328_517" x1="669.096" y1="85.2896" x2="619.646" y2="114.724" gradientUnits="userSpaceOnUse">
<stop stop-color="#C0BFF6"/>
<stop offset="0.49" stop-color="#D1D1F9"/>
<stop offset="1" stop-color="#E9E9FD"/>
</linearGradient>
<linearGradient id="paint29_linear_1328_517" x1="-681.719" y1="-143.336" x2="-731.169" y2="-172.77" gradientUnits="userSpaceOnUse">
<stop stop-color="#C0BFF6"/>
<stop offset="0.29" stop-color="#C4C3F6"/>
<stop offset="0.64" stop-color="#D2D2F9"/>
<stop offset="1" stop-color="#E9E9FD"/>
</linearGradient>
<linearGradient id="paint30_linear_1328_517" x1="26.0458" y1="501.945" x2="-48.2592" y2="546.174" gradientUnits="userSpaceOnUse">
<stop stop-color="#5761D7"/>
<stop offset="0.18" stop-color="#5B65D8"/>
<stop offset="0.39" stop-color="#6A72DE"/>
<stop offset="0.61" stop-color="#8188E8"/>
<stop offset="0.85" stop-color="#A2A6F5"/>
<stop offset="1" stop-color="#BCBEFF"/>
</linearGradient>
<linearGradient id="paint31_linear_1328_517" x1="706.944" y1="127.047" x2="657.494" y2="156.481" gradientUnits="userSpaceOnUse">
<stop stop-color="#C0BFF6"/>
<stop offset="0.49" stop-color="#D1D1F9"/>
<stop offset="1" stop-color="#E9E9FD"/>
</linearGradient>
<linearGradient id="paint32_linear_1328_517" x1="-613.352" y1="-110.462" x2="-662.801" y2="-139.896" gradientUnits="userSpaceOnUse">
<stop stop-color="#C0BFF6"/>
<stop offset="0.29" stop-color="#C4C3F6"/>
<stop offset="0.64" stop-color="#D2D2F9"/>
<stop offset="1" stop-color="#E9E9FD"/>
</linearGradient>
<linearGradient id="paint33_linear_1328_517" x1="122.555" y1="516.351" x2="48.2722" y2="560.567" gradientUnits="userSpaceOnUse">
<stop stop-color="#5761D7"/>
<stop offset="0.18" stop-color="#5B65D8"/>
<stop offset="0.39" stop-color="#6A72DE"/>
<stop offset="0.61" stop-color="#8188E8"/>
<stop offset="0.85" stop-color="#A2A6F5"/>
<stop offset="1" stop-color="#BCBEFF"/>
</linearGradient>
<linearGradient id="paint34_linear_1328_517" x1="297.403" y1="169.534" x2="207.696" y2="169.534" gradientUnits="userSpaceOnUse">
<stop stop-color="#C0BFF6"/>
<stop offset="0.29" stop-color="#C4C3F6"/>
<stop offset="0.64" stop-color="#D2D2F9"/>
<stop offset="1" stop-color="#E9E9FD"/>
</linearGradient>
<linearGradient id="paint35_linear_1328_517" x1="716.858" y1="-195.242" x2="652.19" y2="-156.75" gradientUnits="userSpaceOnUse">
<stop stop-color="#C0BFF6"/>
<stop offset="0.29" stop-color="#C4C3F6"/>
<stop offset="0.64" stop-color="#D2D2F9"/>
<stop offset="1" stop-color="#E9E9FD"/>
</linearGradient>
<linearGradient id="paint36_linear_1328_517" x1="264.569" y1="182.085" x2="219.715" y2="182.085" gradientUnits="userSpaceOnUse">
<stop stop-color="#C0BFF6"/>
<stop offset="0.29" stop-color="#C4C3F6"/>
<stop offset="0.64" stop-color="#D2D2F9"/>
<stop offset="1" stop-color="#E9E9FD"/>
</linearGradient>
<linearGradient id="paint37_linear_1328_517" x1="219.715" y1="166.161" x2="207.696" y2="166.161" gradientUnits="userSpaceOnUse">
<stop stop-color="#E9E9FD"/>
<stop offset="0.36" stop-color="#D2D2F9"/>
<stop offset="0.71" stop-color="#C4C3F6"/>
<stop offset="1" stop-color="#C0BFF6"/>
</linearGradient>
<linearGradient id="paint38_linear_1328_517" x1="297.403" y1="176.255" x2="264.569" y2="176.255" gradientUnits="userSpaceOnUse">
<stop stop-color="#5761D7"/>
<stop offset="0.18" stop-color="#5B65D8"/>
<stop offset="0.39" stop-color="#6A72DE"/>
<stop offset="0.61" stop-color="#8188E8"/>
<stop offset="0.85" stop-color="#A2A6F5"/>
<stop offset="1" stop-color="#BCBEFF"/>
</linearGradient>
<linearGradient id="paint39_linear_1328_517" x1="368.059" y1="223.358" x2="278.352" y2="223.358" gradientUnits="userSpaceOnUse">
<stop stop-color="#C0BFF6"/>
<stop offset="0.29" stop-color="#C4C3F6"/>
<stop offset="0.64" stop-color="#D2D2F9"/>
<stop offset="1" stop-color="#E9E9FD"/>
</linearGradient>
<linearGradient id="paint40_linear_1328_517" x1="738.698" y1="-97.1377" x2="674.03" y2="-58.6449" gradientUnits="userSpaceOnUse">
<stop stop-color="#C0BFF6"/>
<stop offset="0.29" stop-color="#C4C3F6"/>
<stop offset="0.64" stop-color="#D2D2F9"/>
<stop offset="1" stop-color="#E9E9FD"/>
</linearGradient>
<linearGradient id="paint41_linear_1328_517" x1="335.224" y1="235.908" x2="290.371" y2="235.908" gradientUnits="userSpaceOnUse">
<stop stop-color="#C0BFF6"/>
<stop offset="0.29" stop-color="#C4C3F6"/>
<stop offset="0.64" stop-color="#D2D2F9"/>
<stop offset="1" stop-color="#E9E9FD"/>
</linearGradient>
<linearGradient id="paint42_linear_1328_517" x1="290.371" y1="219.984" x2="278.352" y2="219.984" gradientUnits="userSpaceOnUse">
<stop stop-color="#E9E9FD"/>
<stop offset="0.36" stop-color="#D2D2F9"/>
<stop offset="0.71" stop-color="#C4C3F6"/>
<stop offset="1" stop-color="#C0BFF6"/>
</linearGradient>
<linearGradient id="paint43_linear_1328_517" x1="368.059" y1="230.08" x2="335.224" y2="230.08" gradientUnits="userSpaceOnUse">
<stop stop-color="#5761D7"/>
<stop offset="0.18" stop-color="#5B65D8"/>
<stop offset="0.39" stop-color="#6A72DE"/>
<stop offset="0.61" stop-color="#8188E8"/>
<stop offset="0.85" stop-color="#A2A6F5"/>
<stop offset="1" stop-color="#BCBEFF"/>
</linearGradient>
<linearGradient id="paint44_linear_1328_517" x1="438.714" y1="280.828" x2="348.982" y2="280.828" gradientUnits="userSpaceOnUse">
<stop stop-color="#C0BFF6"/>
<stop offset="0.29" stop-color="#C4C3F6"/>
<stop offset="0.64" stop-color="#D2D2F9"/>
<stop offset="1" stop-color="#E9E9FD"/>
</linearGradient>
<linearGradient id="paint45_linear_1328_517" x1="758.609" y1="6.40755" x2="693.941" y2="44.9003" gradientUnits="userSpaceOnUse">
<stop stop-color="#C0BFF6"/>
<stop offset="0.29" stop-color="#C4C3F6"/>
<stop offset="0.64" stop-color="#D2D2F9"/>
<stop offset="1" stop-color="#E9E9FD"/>
</linearGradient>
<linearGradient id="paint46_linear_1328_517" x1="405.854" y1="293.403" x2="361.001" y2="293.403" gradientUnits="userSpaceOnUse">
<stop stop-color="#C0BFF6"/>
<stop offset="0.29" stop-color="#C4C3F6"/>
<stop offset="0.64" stop-color="#D2D2F9"/>
<stop offset="1" stop-color="#E9E9FD"/>
</linearGradient>
<linearGradient id="paint47_linear_1328_517" x1="361.001" y1="277.479" x2="348.982" y2="277.479" gradientUnits="userSpaceOnUse">
<stop stop-color="#E9E9FD"/>
<stop offset="0.36" stop-color="#D2D2F9"/>
<stop offset="0.71" stop-color="#C4C3F6"/>
<stop offset="1" stop-color="#C0BFF6"/>
</linearGradient>
<linearGradient id="paint48_linear_1328_517" x1="438.714" y1="287.575" x2="405.854" y2="287.575" gradientUnits="userSpaceOnUse">
<stop stop-color="#5761D7"/>
<stop offset="0.18" stop-color="#5B65D8"/>
<stop offset="0.39" stop-color="#6A72DE"/>
<stop offset="0.61" stop-color="#8188E8"/>
<stop offset="0.85" stop-color="#A2A6F5"/>
<stop offset="1" stop-color="#BCBEFF"/>
</linearGradient>
<linearGradient id="paint49_linear_1328_517" x1="509.344" y1="327.856" x2="419.638" y2="327.856" gradientUnits="userSpaceOnUse">
<stop stop-color="#C0BFF6"/>
<stop offset="0.29" stop-color="#C4C3F6"/>
<stop offset="0.64" stop-color="#D2D2F9"/>
<stop offset="1" stop-color="#E9E9FD"/>
</linearGradient>
<linearGradient id="paint50_linear_1328_517" x1="787.833" y1="83.6819" x2="723.165" y2="122.175" gradientUnits="userSpaceOnUse">
<stop stop-color="#C0BFF6"/>
<stop offset="0.29" stop-color="#C4C3F6"/>
<stop offset="0.64" stop-color="#D2D2F9"/>
<stop offset="1" stop-color="#E9E9FD"/>
</linearGradient>
<linearGradient id="paint51_linear_1328_517" x1="476.51" y1="340.406" x2="431.656" y2="340.406" gradientUnits="userSpaceOnUse">
<stop stop-color="#C0BFF6"/>
<stop offset="0.29" stop-color="#C4C3F6"/>
<stop offset="0.64" stop-color="#D2D2F9"/>
<stop offset="1" stop-color="#E9E9FD"/>
</linearGradient>
<linearGradient id="paint52_linear_1328_517" x1="431.656" y1="324.482" x2="419.638" y2="324.482" gradientUnits="userSpaceOnUse">
<stop stop-color="#E9E9FD"/>
<stop offset="0.36" stop-color="#D2D2F9"/>
<stop offset="0.71" stop-color="#C4C3F6"/>
<stop offset="1" stop-color="#C0BFF6"/>
</linearGradient>
<linearGradient id="paint53_linear_1328_517" x1="509.344" y1="334.577" x2="476.51" y2="334.577" gradientUnits="userSpaceOnUse">
<stop stop-color="#5761D7"/>
<stop offset="0.18" stop-color="#5B65D8"/>
<stop offset="0.39" stop-color="#6A72DE"/>
<stop offset="0.61" stop-color="#8188E8"/>
<stop offset="0.85" stop-color="#A2A6F5"/>
<stop offset="1" stop-color="#BCBEFF"/>
</linearGradient>
<linearGradient id="paint54_linear_1328_517" x1="580" y1="380.761" x2="490.268" y2="380.761" gradientUnits="userSpaceOnUse">
<stop stop-color="#C0BFF6"/>
<stop offset="0.29" stop-color="#C4C3F6"/>
<stop offset="0.64" stop-color="#D2D2F9"/>
<stop offset="1" stop-color="#E9E9FD"/>
</linearGradient>
<linearGradient id="paint55_linear_1328_517" x1="811.8" y1="175.786" x2="747.132" y2="214.278" gradientUnits="userSpaceOnUse">
<stop stop-color="#C0BFF6"/>
<stop offset="0.29" stop-color="#C4C3F6"/>
<stop offset="0.64" stop-color="#D2D2F9"/>
<stop offset="1" stop-color="#E9E9FD"/>
</linearGradient>
<linearGradient id="paint56_linear_1328_517" x1="547.166" y1="393.337" x2="502.287" y2="393.337" gradientUnits="userSpaceOnUse">
<stop stop-color="#C0BFF6"/>
<stop offset="0.29" stop-color="#C4C3F6"/>
<stop offset="0.64" stop-color="#D2D2F9"/>
<stop offset="1" stop-color="#E9E9FD"/>
</linearGradient>
<linearGradient id="paint57_linear_1328_517" x1="502.287" y1="377.413" x2="490.268" y2="377.413" gradientUnits="userSpaceOnUse">
<stop stop-color="#E9E9FD"/>
<stop offset="0.36" stop-color="#D2D2F9"/>
<stop offset="0.71" stop-color="#C4C3F6"/>
<stop offset="1" stop-color="#C0BFF6"/>
</linearGradient>
<linearGradient id="paint58_linear_1328_517" x1="580" y1="387.508" x2="547.165" y2="387.508" gradientUnits="userSpaceOnUse">
<stop stop-color="#5761D7"/>
<stop offset="0.18" stop-color="#5B65D8"/>
<stop offset="0.39" stop-color="#6A72DE"/>
<stop offset="0.61" stop-color="#8188E8"/>
<stop offset="0.85" stop-color="#A2A6F5"/>
<stop offset="1" stop-color="#BCBEFF"/>
</linearGradient>
<linearGradient id="paint59_linear_1328_517" x1="297.403" y1="107.946" x2="207.696" y2="107.946" gradientUnits="userSpaceOnUse">
<stop stop-color="#C0BFF6"/>
<stop offset="0.29" stop-color="#C4C3F6"/>
<stop offset="0.64" stop-color="#D2D2F9"/>
<stop offset="1" stop-color="#E9E9FD"/>
</linearGradient>
<linearGradient id="paint60_linear_1328_517" x1="736.467" y1="-250.602" x2="671.799" y2="-212.109" gradientUnits="userSpaceOnUse">
<stop stop-color="#C0BFF6"/>
<stop offset="0.29" stop-color="#C4C3F6"/>
<stop offset="0.64" stop-color="#D2D2F9"/>
<stop offset="1" stop-color="#E9E9FD"/>
</linearGradient>
<linearGradient id="paint61_linear_1328_517" x1="264.569" y1="120.521" x2="219.715" y2="120.521" gradientUnits="userSpaceOnUse">
<stop stop-color="#C0BFF6"/>
<stop offset="0.29" stop-color="#C4C3F6"/>
<stop offset="0.64" stop-color="#D2D2F9"/>
<stop offset="1" stop-color="#E9E9FD"/>
</linearGradient>
<linearGradient id="paint62_linear_1328_517" x1="3595.35" y1="104.573" x2="3592.8" y2="104.573" gradientUnits="userSpaceOnUse">
<stop stop-color="#E9E9FD"/>
<stop offset="0.36" stop-color="#D2D2F9"/>
<stop offset="0.71" stop-color="#C4C3F6"/>
<stop offset="1" stop-color="#C0BFF6"/>
</linearGradient>
<linearGradient id="paint63_linear_1328_517" x1="297.403" y1="114.692" x2="264.569" y2="114.692" gradientUnits="userSpaceOnUse">
<stop stop-color="#5761D7"/>
<stop offset="0.18" stop-color="#5B65D8"/>
<stop offset="0.39" stop-color="#6A72DE"/>
<stop offset="0.61" stop-color="#8188E8"/>
<stop offset="0.85" stop-color="#A2A6F5"/>
<stop offset="1" stop-color="#BCBEFF"/>
</linearGradient>
<linearGradient id="paint64_linear_1328_517" x1="368.059" y1="163.258" x2="278.352" y2="163.258" gradientUnits="userSpaceOnUse">
<stop stop-color="#C0BFF6"/>
<stop offset="0.29" stop-color="#C4C3F6"/>
<stop offset="0.64" stop-color="#D2D2F9"/>
<stop offset="1" stop-color="#E9E9FD"/>
</linearGradient>
<linearGradient id="paint65_linear_1328_517" x1="758.306" y1="-152.497" x2="693.638" y2="-114.005" gradientUnits="userSpaceOnUse">
<stop stop-color="#C0BFF6"/>
<stop offset="0.29" stop-color="#C4C3F6"/>
<stop offset="0.64" stop-color="#D2D2F9"/>
<stop offset="1" stop-color="#E9E9FD"/>
</linearGradient>
<linearGradient id="paint66_linear_1328_517" x1="335.224" y1="175.833" x2="290.371" y2="175.833" gradientUnits="userSpaceOnUse">
<stop stop-color="#C0BFF6"/>
<stop offset="0.29" stop-color="#C4C3F6"/>
<stop offset="0.64" stop-color="#D2D2F9"/>
<stop offset="1" stop-color="#E9E9FD"/>
</linearGradient>
<linearGradient id="paint67_linear_1328_517" x1="290.371" y1="159.909" x2="278.352" y2="159.909" gradientUnits="userSpaceOnUse">
<stop stop-color="#E9E9FD"/>
<stop offset="0.36" stop-color="#D2D2F9"/>
<stop offset="0.71" stop-color="#C4C3F6"/>
<stop offset="1" stop-color="#C0BFF6"/>
</linearGradient>
<linearGradient id="paint68_linear_1328_517" x1="368.059" y1="170.004" x2="335.224" y2="170.004" gradientUnits="userSpaceOnUse">
<stop stop-color="#5761D7"/>
<stop offset="0.18" stop-color="#5B65D8"/>
<stop offset="0.39" stop-color="#6A72DE"/>
<stop offset="0.61" stop-color="#8188E8"/>
<stop offset="0.85" stop-color="#A2A6F5"/>
<stop offset="1" stop-color="#BCBEFF"/>
</linearGradient>
<linearGradient id="paint69_linear_1328_517" x1="438.714" y1="220.753" x2="348.982" y2="220.753" gradientUnits="userSpaceOnUse">
<stop stop-color="#C0BFF6"/>
<stop offset="0.29" stop-color="#C4C3F6"/>
<stop offset="0.64" stop-color="#D2D2F9"/>
<stop offset="1" stop-color="#E9E9FD"/>
</linearGradient>
<linearGradient id="paint70_linear_1328_517" x1="778.217" y1="-48.9522" x2="713.571" y2="-10.4724" gradientUnits="userSpaceOnUse">
<stop stop-color="#C0BFF6"/>
<stop offset="0.29" stop-color="#C4C3F6"/>
<stop offset="0.64" stop-color="#D2D2F9"/>
<stop offset="1" stop-color="#E9E9FD"/>
</linearGradient>
<linearGradient id="paint71_linear_1328_517" x1="405.854" y1="233.303" x2="361.001" y2="233.303" gradientUnits="userSpaceOnUse">
<stop stop-color="#C0BFF6"/>
<stop offset="0.29" stop-color="#C4C3F6"/>
<stop offset="0.64" stop-color="#D2D2F9"/>
<stop offset="1" stop-color="#E9E9FD"/>
</linearGradient>
<linearGradient id="paint72_linear_1328_517" x1="361.001" y1="217.379" x2="348.982" y2="217.379" gradientUnits="userSpaceOnUse">
<stop stop-color="#E9E9FD"/>
<stop offset="0.36" stop-color="#D2D2F9"/>
<stop offset="0.71" stop-color="#C4C3F6"/>
<stop offset="1" stop-color="#C0BFF6"/>
</linearGradient>
<linearGradient id="paint73_linear_1328_517" x1="438.714" y1="227.474" x2="405.854" y2="227.474" gradientUnits="userSpaceOnUse">
<stop stop-color="#5761D7"/>
<stop offset="0.18" stop-color="#5B65D8"/>
<stop offset="0.39" stop-color="#6A72DE"/>
<stop offset="0.61" stop-color="#8188E8"/>
<stop offset="0.85" stop-color="#A2A6F5"/>
<stop offset="1" stop-color="#BCBEFF"/>
</linearGradient>
<linearGradient id="paint74_linear_1328_517" x1="509.344" y1="267.756" x2="419.638" y2="267.756" gradientUnits="userSpaceOnUse">
<stop stop-color="#C0BFF6"/>
<stop offset="0.29" stop-color="#C4C3F6"/>
<stop offset="0.64" stop-color="#D2D2F9"/>
<stop offset="1" stop-color="#E9E9FD"/>
</linearGradient>
<linearGradient id="paint75_linear_1328_517" x1="807.464" y1="28.3098" x2="742.796" y2="66.8025" gradientUnits="userSpaceOnUse">
<stop stop-color="#C0BFF6"/>
<stop offset="0.29" stop-color="#C4C3F6"/>
<stop offset="0.64" stop-color="#D2D2F9"/>
<stop offset="1" stop-color="#E9E9FD"/>
</linearGradient>
<linearGradient id="paint76_linear_1328_517" x1="796.656" y1="34.3621" x2="753.246" y2="60.2012" gradientUnits="userSpaceOnUse">
<stop stop-color="#5761D7"/>
<stop offset="0.18" stop-color="#5B65D8"/>
<stop offset="0.39" stop-color="#6A72DE"/>
<stop offset="0.61" stop-color="#8188E8"/>
<stop offset="0.85" stop-color="#A2A6F5"/>
<stop offset="1" stop-color="#BCBEFF"/>
</linearGradient>
<linearGradient id="paint77_linear_1328_517" x1="476.51" y1="280.306" x2="431.656" y2="280.306" gradientUnits="userSpaceOnUse">
<stop stop-color="#C0BFF6"/>
<stop offset="0.29" stop-color="#C4C3F6"/>
<stop offset="0.64" stop-color="#D2D2F9"/>
<stop offset="1" stop-color="#E9E9FD"/>
</linearGradient>
<linearGradient id="paint78_linear_1328_517" x1="431.656" y1="264.382" x2="419.638" y2="264.382" gradientUnits="userSpaceOnUse">
<stop stop-color="#E9E9FD"/>
<stop offset="0.36" stop-color="#D2D2F9"/>
<stop offset="0.71" stop-color="#C4C3F6"/>
<stop offset="1" stop-color="#C0BFF6"/>
</linearGradient>
<linearGradient id="paint79_linear_1328_517" x1="509.344" y1="274.477" x2="476.51" y2="274.477" gradientUnits="userSpaceOnUse">
<stop stop-color="#5761D7"/>
<stop offset="0.18" stop-color="#5B65D8"/>
<stop offset="0.39" stop-color="#6A72DE"/>
<stop offset="0.61" stop-color="#8188E8"/>
<stop offset="0.85" stop-color="#A2A6F5"/>
<stop offset="1" stop-color="#BCBEFF"/>
</linearGradient>
<linearGradient id="paint80_linear_1328_517" x1="509.344" y1="201.258" x2="419.638" y2="201.258" gradientUnits="userSpaceOnUse">
<stop stop-color="#C0BFF6"/>
<stop offset="0.29" stop-color="#C4C3F6"/>
<stop offset="0.64" stop-color="#D2D2F9"/>
<stop offset="1" stop-color="#E9E9FD"/>
</linearGradient>
<linearGradient id="paint81_linear_1328_517" x1="825.496" y1="-22.5527" x2="760.828" y2="15.94" gradientUnits="userSpaceOnUse">
<stop stop-color="#C0BFF6"/>
<stop offset="0.29" stop-color="#C4C3F6"/>
<stop offset="0.64" stop-color="#D2D2F9"/>
<stop offset="1" stop-color="#E9E9FD"/>
</linearGradient>
<linearGradient id="paint82_linear_1328_517" x1="476.51" y1="213.833" x2="431.656" y2="213.833" gradientUnits="userSpaceOnUse">
<stop stop-color="#C0BFF6"/>
<stop offset="0.29" stop-color="#C4C3F6"/>
<stop offset="0.64" stop-color="#D2D2F9"/>
<stop offset="1" stop-color="#E9E9FD"/>
</linearGradient>
<linearGradient id="paint83_linear_1328_517" x1="431.656" y1="197.909" x2="419.638" y2="197.909" gradientUnits="userSpaceOnUse">
<stop stop-color="#E9E9FD"/>
<stop offset="0.36" stop-color="#D2D2F9"/>
<stop offset="0.71" stop-color="#C4C3F6"/>
<stop offset="1" stop-color="#C0BFF6"/>
</linearGradient>
<linearGradient id="paint84_linear_1328_517" x1="509.344" y1="208.004" x2="476.51" y2="208.004" gradientUnits="userSpaceOnUse">
<stop stop-color="#5761D7"/>
<stop offset="0.18" stop-color="#5B65D8"/>
<stop offset="0.39" stop-color="#6A72DE"/>
<stop offset="0.61" stop-color="#8188E8"/>
<stop offset="0.85" stop-color="#A2A6F5"/>
<stop offset="1" stop-color="#BCBEFF"/>
</linearGradient>
<linearGradient id="paint85_linear_1328_517" x1="580" y1="320.688" x2="490.268" y2="320.688" gradientUnits="userSpaceOnUse">
<stop stop-color="#C0BFF6"/>
<stop offset="0.29" stop-color="#C4C3F6"/>
<stop offset="0.64" stop-color="#D2D2F9"/>
<stop offset="1" stop-color="#E9E9FD"/>
</linearGradient>
<linearGradient id="paint86_linear_1328_517" x1="831.442" y1="120.433" x2="766.774" y2="158.926" gradientUnits="userSpaceOnUse">
<stop stop-color="#C0BFF6"/>
<stop offset="0.29" stop-color="#C4C3F6"/>
<stop offset="0.64" stop-color="#D2D2F9"/>
<stop offset="1" stop-color="#E9E9FD"/>
</linearGradient>
<linearGradient id="paint87_linear_1328_517" x1="547.165" y1="333.238" x2="502.286" y2="333.238" gradientUnits="userSpaceOnUse">
<stop stop-color="#C0BFF6"/>
<stop offset="0.29" stop-color="#C4C3F6"/>
<stop offset="0.64" stop-color="#D2D2F9"/>
<stop offset="1" stop-color="#E9E9FD"/>
</linearGradient>
<linearGradient id="paint88_linear_1328_517" x1="502.286" y1="317.314" x2="490.268" y2="317.314" gradientUnits="userSpaceOnUse">
<stop stop-color="#E9E9FD"/>
<stop offset="0.36" stop-color="#D2D2F9"/>
<stop offset="0.71" stop-color="#C4C3F6"/>
<stop offset="1" stop-color="#C0BFF6"/>
</linearGradient>
<linearGradient id="paint89_linear_1328_517" x1="580" y1="327.409" x2="547.165" y2="327.409" gradientUnits="userSpaceOnUse">
<stop stop-color="#5761D7"/>
<stop offset="0.18" stop-color="#5B65D8"/>
<stop offset="0.39" stop-color="#6A72DE"/>
<stop offset="0.61" stop-color="#8188E8"/>
<stop offset="0.85" stop-color="#A2A6F5"/>
<stop offset="1" stop-color="#BCBEFF"/>
</linearGradient>
<linearGradient id="paint90_linear_1328_517" x1="29.817" y1="329.12" x2="45.3042" y2="312.006" gradientUnits="userSpaceOnUse">
<stop stop-color="#42E8E0"/>
<stop offset="0.15" stop-color="#42E3DF"/>
<stop offset="0.33" stop-color="#44D4DE"/>
<stop offset="0.52" stop-color="#48BDDD"/>
<stop offset="0.72" stop-color="#4D9BDA"/>
<stop offset="0.93" stop-color="#5471D8"/>
<stop offset="1" stop-color="#5761D7"/>
</linearGradient>
<linearGradient id="paint91_linear_1328_517" x1="155.146" y1="468.145" x2="166.081" y2="456.055" gradientUnits="userSpaceOnUse">
<stop stop-color="#42E8E0"/>
<stop offset="0.15" stop-color="#42E3DF"/>
<stop offset="0.33" stop-color="#44D4DE"/>
<stop offset="0.52" stop-color="#48BDDD"/>
<stop offset="0.72" stop-color="#4D9BDA"/>
<stop offset="0.93" stop-color="#5471D8"/>
<stop offset="1" stop-color="#5761D7"/>
</linearGradient>
<linearGradient id="paint92_linear_1328_517" x1="182.943" y1="488.781" x2="207.806" y2="461.286" gradientUnits="userSpaceOnUse">
<stop stop-color="#42E8E0"/>
<stop offset="0.15" stop-color="#42E3DF"/>
<stop offset="0.33" stop-color="#44D4DE"/>
<stop offset="0.52" stop-color="#48BDDD"/>
<stop offset="0.72" stop-color="#4D9BDA"/>
<stop offset="0.93" stop-color="#5471D8"/>
<stop offset="1" stop-color="#5761D7"/>
</linearGradient>
<linearGradient id="paint93_linear_1328_517" x1="58.023" y1="347.326" x2="66.187" y2="338.297" gradientUnits="userSpaceOnUse">
<stop stop-color="#42E8E0"/>
<stop offset="0.15" stop-color="#42E3DF"/>
<stop offset="0.33" stop-color="#44D4DE"/>
<stop offset="0.52" stop-color="#48BDDD"/>
<stop offset="0.72" stop-color="#4D9BDA"/>
<stop offset="0.93" stop-color="#5471D8"/>
<stop offset="1" stop-color="#5761D7"/>
</linearGradient>
</defs>
</svg>
