<svg width="100" height="100" viewBox="0 0 100 100" fill="none" xmlns="http://www.w3.org/2000/svg">
<path d="M65.3757 55H60.6303C59.903 55.0005 59.1986 55.2494 58.6379 55.7041C58.0771 56.1587 57.6949 56.7908 57.5569 57.4918C57.4189 58.1929 57.5337 58.9192 57.8815 59.5463C58.2293 60.1733 58.7885 60.662 59.4632 60.9285L64.281 62.8192C64.9572 63.0847 65.518 63.5733 65.867 64.2009C66.2159 64.8285 66.3313 65.5559 66.1931 66.258C66.055 66.96 65.672 67.5929 65.11 68.0477C64.548 68.5025 63.8422 68.7508 63.1139 68.75H58.3731" stroke="black" stroke-width="3" stroke-linecap="round" stroke-linejoin="round"/>
<path d="M62.5 55V53.75" stroke="black" stroke-width="3" stroke-linecap="round" stroke-linejoin="round"/>
<path d="M62.5 71.25V68.75" stroke="black" stroke-width="3" stroke-linecap="round" stroke-linejoin="round"/>
<path d="M48.75 62.5C48.75 66.1467 50.1987 69.6441 52.7773 72.2227C55.3559 74.8013 58.8533 76.25 62.5 76.25C66.1467 76.25 69.6441 74.8013 72.2227 72.2227C74.8013 69.6441 76.25 66.1467 76.25 62.5C76.25 58.8533 74.8013 55.3559 72.2227 52.7773C69.6441 50.1987 66.1467 48.75 62.5 48.75C58.8533 48.75 55.3559 50.1987 52.7773 52.7773C50.1987 55.3559 48.75 58.8533 48.75 62.5Z" stroke="black" stroke-width="3" stroke-linecap="round" stroke-linejoin="round"/>
<path d="M32.5 76.25L41.25 71.0938L36 62.5" stroke="#00CCF5" stroke-width="3" stroke-linecap="round" stroke-linejoin="round"/>
<path d="M23.75 60C24.9449 63.127 27.1814 65.7937 30.1166 67.5912C33.0518 69.3886 36.5237 70.2177 40 69.9511" stroke="#00CCF5" stroke-width="3" stroke-linecap="round" stroke-linejoin="round"/>
<path d="M67.5 23.75L58.75 28.9063L64 37.5" stroke="#00CCF5" stroke-width="3" stroke-linecap="round" stroke-linejoin="round"/>
<path d="M76.25 40C75.0551 36.873 72.8186 34.2063 69.8834 32.4088C66.9482 30.6114 63.4763 29.7823 60 30.0489" stroke="#00CCF5" stroke-width="3" stroke-linecap="round" stroke-linejoin="round"/>
<path d="M48.75 32.6096C48.7516 31.0136 48.3266 29.4468 47.5198 28.0752C46.713 26.7036 45.5545 25.5781 44.167 24.8181C42.7795 24.058 41.2146 23.6916 39.6381 23.7576C38.0615 23.8236 36.5319 24.3196 35.2113 25.1931C33.8906 26.0665 32.8281 27.285 32.1362 28.7193C31.4442 30.1537 31.1486 31.7507 31.2807 33.3411C31.4128 34.9315 31.9676 36.4562 32.8864 37.7537C33.8052 39.0512 35.0538 40.0733 36.5 40.7117V45H43.5V40.7117C45.0597 40.0245 46.3872 38.8919 47.3198 37.4527C48.2523 36.0135 48.7494 34.3303 48.75 32.6096Z" stroke="black" stroke-width="3" stroke-linecap="round" stroke-linejoin="round"/>
<path d="M36.25 50H43.75" stroke="black" stroke-width="3" stroke-linecap="round" stroke-linejoin="round"/>
</svg>
