<svg width="88" height="85" viewBox="0 0 88 85" fill="none" xmlns="http://www.w3.org/2000/svg">
<g clip-path="url(#clip0_1108_370)" filter="url(#filter0_d_1108_370)">
<path d="M7.46875 72.1815C7.69609 72.1054 7.92775 72.0428 8.1625 71.994L8.4625 71.9503C10.5473 71.5939 12.6546 71.385 14.7687 71.3253C17.7062 71.3253 32.3125 75.0003 37.6937 76.419H37.7625C38.8913 76.6539 40.0408 76.7753 41.1937 76.7815C42.4735 76.8351 43.7505 76.6223 44.9438 76.1565C46.6432 75.4788 48.3793 74.8966 50.1438 74.4128C55.9563 72.8128 78.6688 65.819 78.8938 65.7565C82.0188 64.8753 83.6438 63.819 83.9625 62.4315C84.0342 62.1174 84.0338 61.7911 83.9613 61.4772C83.8888 61.1633 83.746 60.8698 83.5437 60.619C82.2937 58.2815 77.9875 57.969 69.5688 59.594C65.4063 60.4003 61.325 61.469 59.35 62.0503C59.02 61.3253 58.5048 60.7002 57.8562 60.2378C54.2437 57.6253 46.5 59.169 45.625 59.3753C44.6664 59.5595 43.6766 59.4949 42.75 59.1878C40.5125 58.5628 38.625 57.2503 36.6187 55.8753C34.6125 54.5003 32.4812 53.0378 29.9437 52.2878C26.2111 51.0825 22.2437 50.791 18.375 51.4378C16.7037 51.8036 15.0633 52.2988 13.4688 52.919C12.0757 53.4577 10.6473 53.9004 9.19375 54.244C8.9 54.3065 8.56875 54.4003 8.19375 54.494C7.41875 54.7065 6.24375 55.019 5.725 54.8753L4 54.3753V56.144C4.0625 57.0503 4 66.6565 4 70.7565C4.02607 71.0343 4.11503 71.3024 4.26014 71.5406C4.40525 71.7789 4.60269 71.981 4.8375 72.1315C5.61875 72.744 6.60625 72.444 7.46875 72.1815ZM6.675 57.3815C7.40065 57.2811 8.1174 57.1244 8.81875 56.9128C9.13125 56.8253 9.44375 56.744 9.6875 56.694C11.2515 56.3269 12.7884 55.8528 14.2875 55.2753C15.762 54.6983 17.2791 54.2365 18.825 53.894C22.3073 53.3226 25.8759 53.5948 29.2312 54.6878C31.3937 55.3128 33.2437 56.6003 35.2062 57.944C37.2875 59.369 39.4375 60.844 42.0812 61.594C43.4023 62.0072 44.8066 62.0781 46.1625 61.8003C48.225 61.3628 54.0875 60.6003 56.3875 62.2753C56.6285 62.4429 56.8289 62.6624 56.9738 62.9176C57.1188 63.1729 57.2046 63.4574 57.225 63.7503L57.275 64.244L56.5375 64.4565C55.3562 64.794 54.1375 64.994 52.9062 65.219C51.675 65.444 50.4062 65.6628 49.1562 65.994C48.112 66.3393 47.0076 66.4649 45.9125 66.3628C45.375 66.3003 44.8125 66.144 44.1687 66.019L42.25 65.6753C41.6092 65.5584 40.9623 65.477 40.3125 65.4315C39.6875 65.3753 39.0187 65.3065 38.3625 65.294C37.0589 65.2614 35.7548 65.3325 34.4625 65.5065C33.2223 65.7136 31.9694 65.8347 30.7125 65.869C31.9272 66.3423 33.206 66.631 34.5063 66.7253C35.7563 66.844 37.0063 67.0315 38.2 67.244C38.825 67.344 39.4125 67.494 40.0187 67.6065C40.625 67.719 41.2313 67.8378 41.8312 68.0003L43.6375 68.4253C44.2625 68.5565 44.8875 68.744 45.6125 68.844C46.3584 68.9421 47.1148 68.9273 47.8562 68.8003C48.5328 68.6742 49.1991 68.4988 49.85 68.2753L53.375 67.119C54.623 66.719 55.8322 66.2065 56.9875 65.5878C57.2292 65.4461 57.4667 65.2982 57.7 65.144L58.8 64.8128C58.8563 64.8128 64.35 63.1565 70 62.0628C80.4313 60.044 81.2938 61.8003 81.3063 61.819L81.375 61.9878C81.1063 62.2378 80.3125 62.769 78.15 63.3753C77.9187 63.444 55.2438 70.4253 49.4688 72.019C47.5776 72.5353 45.7182 73.1613 43.9 73.894C43.9 73.894 41.9313 74.7378 38.275 74.0003C36.1 73.4253 18.525 68.8315 14.75 68.8315C12.5171 68.8809 10.2906 69.0897 8.0875 69.4565L7.7875 69.5003C7.40582 69.577 7.02826 69.673 6.65625 69.7878C6.675 64.594 6.7 59.7315 6.675 57.3815ZM62.5625 29.0878C63.8294 29.0883 65.0666 28.7037 66.11 27.985C67.1533 27.2664 67.9537 26.2477 68.4049 25.0638C68.8562 23.88 68.937 22.5869 68.6366 21.3561C68.3363 20.1253 67.669 19.0149 66.7232 18.1719C65.7774 17.329 64.5977 16.7934 63.3406 16.6361C62.0835 16.4789 60.8082 16.7074 59.6839 17.2913C58.5596 17.8753 57.6393 18.7872 57.0451 19.906C56.4508 21.0249 56.2106 22.298 56.3562 23.5565L49.5438 25.7753C49.1184 24.9431 48.5119 24.2169 47.7688 23.6501C47.0258 23.0833 46.165 22.6904 45.25 22.5003V15.569C46.7676 15.2593 48.116 14.3971 49.034 13.1496C49.952 11.902 50.374 10.3581 50.2184 8.81713C50.0627 7.27613 49.3404 5.84782 48.1914 4.80912C47.0425 3.77041 45.5488 3.19531 44 3.19531C42.4512 3.19531 40.9575 3.77041 39.8086 4.80912C38.6596 5.84782 37.9373 7.27613 37.7817 8.81713C37.626 10.3581 38.048 11.902 38.966 13.1496C39.884 14.3971 41.2324 15.2593 42.75 15.569V22.5003C41.835 22.6882 40.9738 23.0788 40.2297 23.6434C39.4855 24.208 38.8774 24.9322 38.45 25.7628L31.6375 23.5503C31.8013 22.0107 31.3879 20.465 30.4772 19.2129C29.5665 17.9607 28.2235 17.0911 26.7083 16.7726C25.1931 16.4541 23.6137 16.7093 22.2759 17.4888C20.9381 18.2684 19.9373 19.5167 19.4674 20.992C18.9975 22.4672 19.0919 24.0644 19.7323 25.4741C20.3727 26.8837 21.5136 28.0055 22.9338 28.622C24.3541 29.2386 25.9526 29.306 27.4198 28.8112C28.8869 28.3165 30.1182 27.2948 30.875 25.944L37.75 28.2003C37.75 28.3503 37.75 28.5003 37.75 28.6503C37.7538 30.2284 38.3544 31.7467 39.4312 32.9003L35.0063 38.9878C33.61 38.3177 32.0146 38.1899 30.5295 38.6292C29.0444 39.0685 27.7752 40.0435 26.9681 41.3653C26.1609 42.6871 25.8733 44.2614 26.1609 45.7832C26.4485 47.305 27.2909 48.6658 28.5248 49.6019C29.7586 50.5379 31.2961 50.9825 32.8391 50.8494C34.3821 50.7164 35.8208 50.0152 36.8762 48.8818C37.9316 47.7484 38.5286 46.2634 38.5515 44.7149C38.5744 43.1663 38.0215 41.6644 37 40.5003L41.4625 34.3753C42.2313 34.7201 43.0623 34.9046 43.9048 34.9175C44.7472 34.9304 45.5835 34.7714 46.3625 34.4503L50.875 40.6253C49.8821 41.8266 49.3707 43.3538 49.4401 44.9108C49.5095 46.4678 50.1546 47.9435 51.2504 49.0517C52.3462 50.1599 53.8145 50.8217 55.3706 50.9086C56.9267 50.9956 58.4596 50.5015 59.6721 49.5222C60.8845 48.543 61.69 47.1483 61.9324 45.6088C62.1748 44.0692 61.8367 42.4945 60.9838 41.1901C60.1309 39.8857 58.824 38.9445 57.3165 38.5491C55.8089 38.1537 54.2083 38.3323 52.825 39.0503L48.45 33.0253C49.6024 31.8601 50.251 30.289 50.2563 28.6503C50.2563 28.494 50.2563 28.3378 50.2563 28.1815L57.125 25.9315C57.6717 26.8911 58.4628 27.6887 59.418 28.2432C60.3731 28.7976 61.4581 29.089 62.5625 29.0878ZM62.5625 19.0878C63.3042 19.0878 64.0292 19.3077 64.6459 19.7198C65.2626 20.1318 65.7432 20.7175 66.0271 21.4027C66.3109 22.0879 66.3851 22.8419 66.2404 23.5694C66.0957 24.2968 65.7386 24.965 65.2141 25.4894C64.6897 26.0139 64.0215 26.371 63.2941 26.5157C62.5667 26.6604 61.8127 26.5862 61.1274 26.3023C60.4422 26.0185 59.8565 25.5379 59.4445 24.9212C59.0324 24.3045 58.8125 23.5795 58.8125 22.8378C58.8125 21.8432 59.2076 20.8894 59.9109 20.1861C60.6141 19.4829 61.5679 19.0878 62.5625 19.0878ZM25.4375 26.5878C24.6958 26.5878 23.9708 26.3679 23.3541 25.9558C22.7374 25.5437 22.2568 24.9581 21.973 24.2729C21.6891 23.5876 21.6149 22.8336 21.7596 22.1062C21.9043 21.3788 22.2614 20.7106 22.7859 20.1861C23.3103 19.6617 23.9785 19.3045 24.7059 19.1598C25.4333 19.0151 26.1873 19.0894 26.8726 19.3732C27.5578 19.6571 28.1435 20.1377 28.5555 20.7544C28.9676 21.3711 29.1875 22.0961 29.1875 22.8378C29.1875 23.3302 29.0905 23.8179 28.902 24.2729C28.7136 24.7278 28.4374 25.1412 28.0891 25.4894C27.7409 25.8377 27.3275 26.1139 26.8726 26.3023C26.4176 26.4908 25.93 26.5878 25.4375 26.5878ZM32.3125 48.3628C31.5708 48.3628 30.8458 48.1429 30.2291 47.7308C29.6124 47.3187 29.1318 46.7331 28.8479 46.0479C28.5641 45.3626 28.4899 44.6086 28.6346 43.8812C28.7792 43.1538 29.1364 42.4856 29.6608 41.9611C30.1853 41.4367 30.8535 41.0795 31.5809 40.9348C32.3083 40.7901 33.0623 40.8644 33.7476 41.1482C34.4328 41.4321 35.0185 41.9127 35.4305 42.5294C35.8426 43.1461 36.0625 43.8711 36.0625 44.6128C36.0625 45.1063 35.9651 45.595 35.7759 46.0507C35.5866 46.5065 35.3093 46.9205 34.9597 47.2689C34.6102 47.6173 34.1953 47.8932 33.7389 48.0809C33.2825 48.2687 32.7935 48.3644 32.3 48.3628H32.3125ZM40.25 9.44404C40.25 8.70236 40.4699 7.97733 40.882 7.36065C41.294 6.74396 41.8797 6.26332 42.5649 5.97949C43.2502 5.69566 44.0042 5.6214 44.7316 5.76609C45.459 5.91079 46.1272 6.26794 46.6516 6.79239C47.1761 7.31683 47.5332 7.98502 47.6779 8.71245C47.8226 9.43988 47.7484 10.1939 47.4645 10.8791C47.1807 11.5643 46.7001 12.15 46.0834 12.562C45.4667 12.9741 44.7417 13.194 44 13.194C43.0054 13.194 42.0516 12.7989 41.3484 12.0957C40.6451 11.3924 40.25 10.4386 40.25 9.44404ZM44 32.4003C43.2583 32.4003 42.5333 32.1804 41.9166 31.7683C41.2999 31.3562 40.8193 30.7706 40.5354 30.0854C40.2516 29.4001 40.1774 28.6461 40.3221 27.9187C40.4668 27.1913 40.8239 26.5231 41.3484 25.9986C41.8728 25.4742 42.541 25.117 43.2684 24.9723C43.9958 24.8276 44.7498 24.9019 45.4351 25.1857C46.1203 25.4696 46.706 25.9502 47.118 26.5669C47.5301 27.1836 47.75 27.9086 47.75 28.6503C47.75 29.1427 47.653 29.6304 47.4645 30.0854C47.2761 30.5403 46.9999 30.9537 46.6516 31.3019C46.3034 31.6502 45.89 31.9264 45.4351 32.1148C44.9801 32.3033 44.4925 32.4003 44 32.4003ZM55.7 40.8628C56.4417 40.8628 57.1667 41.0827 57.7834 41.4948C58.4001 41.9068 58.8807 42.4925 59.1645 43.1777C59.4484 43.8629 59.5226 44.617 59.3779 45.3444C59.2332 46.0718 58.8761 46.74 58.3517 47.2644C57.8272 47.7889 57.159 48.146 56.4316 48.2907C55.7042 48.4354 54.9502 48.3612 54.2649 48.0773C53.5797 47.7935 52.994 47.3129 52.582 46.6962C52.1699 46.0795 51.95 45.3545 51.95 44.6128C51.95 43.6182 52.3451 42.6644 53.0483 41.9611C53.7516 41.2579 54.7054 40.8628 55.7 40.8628Z" fill="#B8B2FF"/>
</g>
<defs>
<filter id="filter0_d_1108_370" x="0" y="0" width="88" height="88" filterUnits="userSpaceOnUse" color-interpolation-filters="sRGB">
<feFlood flood-opacity="0" result="BackgroundImageFix"/>
<feColorMatrix in="SourceAlpha" type="matrix" values="0 0 0 0 0 0 0 0 0 0 0 0 0 0 0 0 0 0 127 0" result="hardAlpha"/>
<feOffset dy="4"/>
<feGaussianBlur stdDeviation="2"/>
<feComposite in2="hardAlpha" operator="out"/>
<feColorMatrix type="matrix" values="0 0 0 0 0 0 0 0 0 0 0 0 0 0 0 0 0 0 0.25 0"/>
<feBlend mode="normal" in2="BackgroundImageFix" result="effect1_dropShadow_1108_370"/>
<feBlend mode="normal" in="SourceGraphic" in2="effect1_dropShadow_1108_370" result="shape"/>
</filter>
<clipPath id="clip0_1108_370">
<rect width="80" height="80" fill="white" transform="translate(4)"/>
</clipPath>
</defs>
</svg>
