<svg width="430" height="360" viewBox="0 0 430 360" fill="none" xmlns="http://www.w3.org/2000/svg">
<g clip-path="url(#clip0_2989_12413)">
<path d="M151.945 359.374L429.371 164.2" stroke="#AE52FF" stroke-width="0.94" stroke-linecap="round" stroke-linejoin="round"/>
<path d="M0.625 252.965L277.904 57.8447" stroke="#AE52FF" stroke-width="0.94" stroke-linecap="round" stroke-linejoin="round"/>
<path d="M13.2188 261.807L290.511 66.7002" stroke="#AE52FF" stroke-width="0.94" stroke-linecap="round" stroke-linejoin="round"/>
<path d="M25.8594 270.689L303.112 75.5684" stroke="#AE52FF" stroke-width="0.94" stroke-linecap="round" stroke-linejoin="round"/>
<path d="M38.4219 279.504L315.715 84.4365" stroke="#AE52FF" stroke-width="0.94" stroke-linecap="round" stroke-linejoin="round"/>
<path d="M51.0234 288.36L328.316 93.3057" stroke="#AE52FF" stroke-width="0.94" stroke-linecap="round" stroke-linejoin="round"/>
<path d="M63.8281 297.347L340.921 102.16" stroke="#AE52FF" stroke-width="0.94" stroke-linecap="round" stroke-linejoin="round"/>
<path d="M76.3281 306.123L353.474 111.096" stroke="#AE52FF" stroke-width="0.94" stroke-linecap="round" stroke-linejoin="round"/>
<path d="M88.9453 314.978L366.078 119.964" stroke="#AE52FF" stroke-width="0.94" stroke-linecap="round" stroke-linejoin="round"/>
<path d="M101.531 323.834L378.678 128.833" stroke="#AE52FF" stroke-width="0.94" stroke-linecap="round" stroke-linejoin="round"/>
<path d="M114.141 332.675L391.287 137.688" stroke="#AE52FF" stroke-width="0.94" stroke-linecap="round" stroke-linejoin="round"/>
<path d="M126.766 341.544L403.885 146.557" stroke="#AE52FF" stroke-width="0.94" stroke-linecap="round" stroke-linejoin="round"/>
<path d="M139.328 350.372L416.488 155.425" stroke="#AE52FF" stroke-width="0.94" stroke-linecap="round" stroke-linejoin="round"/>
<path d="M429.323 164.334L278 57.9248" stroke="#AE52FF" stroke-width="0.94" stroke-linecap="round" stroke-linejoin="round"/>
<path d="M151.948 359.374L0.625 252.965" stroke="#AE52FF" stroke-width="0.94" stroke-linecap="round" stroke-linejoin="round"/>
<path d="M416.487 173.042L265.164 66.6201" stroke="#AE52FF" stroke-width="0.94" stroke-linecap="round" stroke-linejoin="round"/>
<path d="M403.983 182.124L252.727 75.5957" stroke="#AE52FF" stroke-width="0.94" stroke-linecap="round" stroke-linejoin="round"/>
<path d="M391.497 190.899L240.188 84.5166" stroke="#AE52FF" stroke-width="0.94" stroke-linecap="round" stroke-linejoin="round"/>
<path d="M378.797 199.807L227.461 93.292" stroke="#AE52FF" stroke-width="0.94" stroke-linecap="round" stroke-linejoin="round"/>
<path d="M366.264 208.623L215.008 102.228" stroke="#AE52FF" stroke-width="0.94" stroke-linecap="round" stroke-linejoin="round"/>
<path d="M353.596 217.504L202.406 111.096" stroke="#AE52FF" stroke-width="0.94" stroke-linecap="round" stroke-linejoin="round"/>
<path d="M340.92 226.4L189.797 119.965" stroke="#AE52FF" stroke-width="0.94" stroke-linecap="round" stroke-linejoin="round"/>
<path d="M328.306 235.268L177.195 128.819" stroke="#AE52FF" stroke-width="0.94" stroke-linecap="round" stroke-linejoin="round"/>
<path d="M315.851 244.084L164.555 137.648" stroke="#AE52FF" stroke-width="0.94" stroke-linecap="round" stroke-linejoin="round"/>
<path d="M303.121 252.952L151.984 146.543" stroke="#AE52FF" stroke-width="0.94" stroke-linecap="round" stroke-linejoin="round"/>
<path d="M290.546 261.781L139.383 155.412" stroke="#AE52FF" stroke-width="0.94" stroke-linecap="round" stroke-linejoin="round"/>
<path d="M277.955 270.622L126.539 164.12" stroke="#AE52FF" stroke-width="0.94" stroke-linecap="round" stroke-linejoin="round"/>
<path d="M265.301 279.504L113.938 172.989" stroke="#AE52FF" stroke-width="0.94" stroke-linecap="round" stroke-linejoin="round"/>
<path d="M252.752 288.319L101.336 181.857" stroke="#AE52FF" stroke-width="0.94" stroke-linecap="round" stroke-linejoin="round"/>
<path d="M240.137 297.175L88.7344 190.713" stroke="#AE52FF" stroke-width="0.94" stroke-linecap="round" stroke-linejoin="round"/>
<path d="M227.328 306.176L76.125 199.581" stroke="#AE52FF" stroke-width="0.94" stroke-linecap="round" stroke-linejoin="round"/>
<path d="M214.833 314.951L63.5234 208.449" stroke="#AE52FF" stroke-width="0.94" stroke-linecap="round" stroke-linejoin="round"/>
<path d="M202.232 323.807L50.9219 217.318" stroke="#AE52FF" stroke-width="0.94" stroke-linecap="round" stroke-linejoin="round"/>
<path d="M189.636 332.649L38.3125 226.174" stroke="#AE52FF" stroke-width="0.94" stroke-linecap="round" stroke-linejoin="round"/>
<path d="M177.034 341.504L25.7109 235.042" stroke="#AE52FF" stroke-width="0.94" stroke-linecap="round" stroke-linejoin="round"/>
<path d="M164.395 350.372L13.125 243.91" stroke="#AE52FF" stroke-width="0.94" stroke-linecap="round" stroke-linejoin="round"/>
<path d="M296.768 213.802C292.868 210.939 267.262 193.202 256.92 185.972C255.896 185.253 254.698 184.387 253.926 183.841C251.384 182.07 252.169 177.276 252.169 177.276L297.779 209.288V214.215C297.779 214.215 297.327 214.215 296.768 213.802Z" fill="#F049FF"/>
<path d="M298.684 213.855C304.447 209.807 358.188 171.923 376.648 158.966C379.257 157.129 378.471 152.628 378.471 152.628L297.766 209.275V214.201C297.992 214.201 298.351 214.082 298.684 213.842V213.855Z" fill="#DDACFF"/>
<path d="M332.824 120.656L252.172 177.276L297.782 209.288L378.474 152.641L332.824 120.656Z" fill="#D189FF"/>
<g style="mix-blend-mode:soft-light">
<path d="M332.578 124.025L257.875 176.504L282.936 194.174L357.666 141.683L332.578 124.025Z" fill="white"/>
</g>
<g style="mix-blend-mode:soft-light">
<path d="M335.831 160.564L311.383 177.982L324.559 187.276L349.034 169.846L335.831 160.564Z" fill="white"/>
</g>
<path d="M252.166 177.263C252.166 177.263 249.438 177.156 249.438 174.373V121.615C249.438 121.042 249.863 120.217 249.863 120.217L252.179 121.495V177.263H252.166Z" fill="#F049FF"/>
<path d="M252.164 177.263L332.75 120.656V64.8887L252.164 121.495V177.263Z" fill="#DDACFF"/>
<g style="mix-blend-mode:multiply">
<path d="M252.164 177.263L332.75 120.656V64.8887L252.164 121.495V177.263Z" fill="#AE52FF"/>
</g>
<path d="M326.951 65.6345C309.276 78.0051 258.529 113.732 251.129 118.792C250.118 119.485 249.852 120.217 249.852 120.217L252.167 121.509L332.753 64.9021C332.753 64.9021 330.757 62.9712 326.937 65.6478L326.951 65.6345Z" fill="#D0C2DE"/>
<g style="mix-blend-mode:multiply">
<path d="M255.398 171.151L330.208 118.606V70.5752L255.398 123.12V171.151Z" fill="#9671AC"/>
</g>
<g style="mix-blend-mode:soft-light" opacity="0.39">
<path d="M295.883 94.8096L255.57 123.12V171.151L330.114 118.792L295.883 94.8096Z" fill="white"/>
</g>
<g style="mix-blend-mode:soft-light" opacity="0.39">
<path d="M255.227 171.085L327.388 120.404L307.424 106.355L255.227 143.028V171.085Z" fill="white"/>
</g>
<g style="mix-blend-mode:soft-light" opacity="0.39">
<path d="M255.57 136.915L278.741 120.43L269.079 113.639L255.57 123.12V136.915Z" fill="white"/>
</g>
<g style="mix-blend-mode:multiply">
<path d="M290.258 205.547L296.327 209.848V211.726L290.258 207.424V205.547Z" fill="#AE52FF"/>
<path d="M282.367 199.967L288.423 204.255V206.132L282.367 201.844V199.967Z" fill="#AE52FF"/>
<path d="M264.344 187.356L279.516 198.009V199.887L264.344 189.234V187.356Z" fill="#AE52FF"/>
<path d="M253.5 179.767L259.569 184.054V185.932L253.5 181.644V179.767Z" fill="#AE52FF"/>
</g>
<path d="M228.183 263.392L140.477 201.845V99.2715L228.183 160.818V263.392Z" fill="#F049FF"/>
<path d="M228.18 263.392L273.257 231.753V129.18L228.18 160.819V263.392Z" fill="#DDACFF"/>
<path d="M185.554 67.6061V67.5928V67.6061L140.477 99.285L228.183 160.845L273.26 129.206L185.554 67.6061Z" fill="#D189FF"/>
<path d="M234.82 233.817L266.629 211.486V158.768L234.82 181.085V233.817Z" fill="#F049FF"/>
<g style="mix-blend-mode:multiply">
<path d="M234.82 233.817L261.904 214.802V208.809L234.82 189.794V233.817Z" fill="#AE52FF"/>
</g>
<path d="M235.859 233.071L261.905 214.801V208.716L235.859 226.985V233.071Z" fill="#CE41FF"/>
<path d="M261.906 162.083V214.802L266.631 211.486V158.768L261.906 162.083Z" fill="#F049FF"/>
<path d="M235.858 180.312L234.82 181.085V233.816L235.858 233.031V180.312Z" fill="#BC80B3"/>
<path d="M234.82 182.364L266.629 160.059V158.768L234.82 181.072V182.364Z" fill="#BC80B3"/>
<g style="mix-blend-mode:multiply" opacity="0.8">
<path d="M234.82 233.817L266.629 211.486V158.768L234.82 181.085V233.817Z" fill="#AE52FF"/>
</g>
<path d="M228.506 152.576L158.594 103.759V100.271L228.506 149.087V152.576Z" fill="#C3AAFF"/>
<path d="M228.492 152.576L259.968 130.485V126.996L228.492 149.087V152.576Z" fill="#DDACFF"/>
<path d="M190.069 78.166L158.594 100.284L228.493 149.101H228.506L259.968 127.009L190.069 78.166Z" fill="#D189FF"/>
<g style="mix-blend-mode:multiply">
<path d="M194.05 85.1973L168.164 103.374L170.16 104.772L196.046 86.5955L194.05 85.1973Z" fill="#AE52FF"/>
</g>
<g style="mix-blend-mode:multiply">
<path d="M197.527 87.6074L171.641 105.784L173.637 107.182L199.523 89.0056L197.527 87.6074Z" fill="#AE52FF"/>
</g>
<g style="mix-blend-mode:multiply">
<path d="M200.995 90.0713L175.109 108.248L177.106 109.646L202.992 91.4695L200.995 90.0713Z" fill="#AE52FF"/>
</g>
<g style="mix-blend-mode:multiply">
<path d="M217.551 101.803L191.758 119.899L193.754 121.297L219.547 103.201L217.551 101.803Z" fill="#AE52FF"/>
</g>
<g style="mix-blend-mode:multiply">
<path d="M221.023 104.253L195.203 122.336L197.213 123.734L223.032 105.638L221.023 104.253Z" fill="#AE52FF"/>
</g>
<g style="mix-blend-mode:multiply">
<path d="M224.511 106.689L198.625 124.866L200.621 126.264L226.507 108.088L224.511 106.689Z" fill="#AE52FF"/>
</g>
<g style="mix-blend-mode:multiply">
<path d="M241.909 118.78L216.023 136.957L218.02 138.355L243.906 120.178L241.909 118.78Z" fill="#AE52FF"/>
</g>
<g style="mix-blend-mode:multiply">
<path d="M245.386 121.23L219.5 139.407L221.496 140.805L247.382 122.629L245.386 121.23Z" fill="#AE52FF"/>
</g>
<g style="mix-blend-mode:multiply">
<path d="M248.855 123.681L222.969 141.857L224.965 143.255L250.851 125.079L248.855 123.681Z" fill="#AE52FF"/>
</g>
<path d="M258.914 168.928L253.391 172.816V174.853L258.914 170.978V168.928Z" fill="#AE52FF"/>
<path d="M260.258 167.996V170.033L261.815 168.941V166.891L260.258 167.996Z" fill="#AE52FF"/>
<path d="M252.431 173.482L236.953 184.348V186.399L252.431 175.52V173.482Z" fill="#AE52FF"/>
<path d="M258.914 174.255L253.391 178.13V180.181L258.914 176.292V174.255Z" fill="#AE52FF"/>
<path d="M252.431 178.809L236.953 189.675V191.712L252.431 180.846V178.809Z" fill="#AE52FF"/>
<path d="M252.431 184.122L236.953 194.988V197.039L252.431 186.173V184.122Z" fill="#AE52FF"/>
<path d="M258.914 184.588L253.391 188.476V190.514L258.914 186.639V184.588Z" fill="#AE52FF"/>
<path d="M260.258 183.655V185.693L261.815 184.601V182.563L260.258 183.655Z" fill="#AE52FF"/>
<path d="M252.431 189.142L236.953 200.008V202.058L252.431 191.192V189.142Z" fill="#AE52FF"/>
<path d="M258.914 189.914L253.391 193.802V195.84L258.914 191.951V189.914Z" fill="#AE52FF"/>
<path d="M252.431 194.468L236.953 205.334V207.371L252.431 196.505V194.468Z" fill="#AE52FF"/>
<path d="M252.431 199.795L236.953 210.661V212.698L252.431 201.832V199.795Z" fill="#AE52FF"/>
<path d="M258.914 200.261L253.391 204.136V206.186L258.914 202.298V200.261Z" fill="#AE52FF"/>
<path d="M260.258 199.316V201.366L261.815 200.261V198.224L260.258 199.316Z" fill="#AE52FF"/>
<path d="M252.431 204.802L236.953 215.668V217.718L252.431 206.852V204.802Z" fill="#AE52FF"/>
<path d="M258.914 205.574L253.391 209.463V211.5L258.914 207.625V205.574Z" fill="#AE52FF"/>
<path d="M252.431 210.128L236.953 220.994V223.031L252.431 212.165V210.128Z" fill="#AE52FF"/>
<path d="M252.431 215.455L236.953 226.321V228.358L252.431 217.492V215.455Z" fill="#AE52FF"/>
<path d="M273.029 25.167C273.029 25.167 273.056 25.1803 273.069 25.1936C273.069 25.1936 273.056 25.1936 273.042 25.1936C273.042 25.1936 273.042 25.1936 273.016 25.1936L273.029 25.167Z" fill="#CE41FF"/>
<path d="M266.692 24.0625C266.692 24.0625 266.559 24.0758 266.492 24.0891C266.559 24.0891 266.625 24.0758 266.692 24.0625Z" fill="#F049FF"/>
<path d="M321.269 14.621L301.825 1.18512C300.081 -0.359543 297.473 -0.639181 294.186 1.86424C292.535 3.11595 290.659 5.49953 289.102 7.78989C293.653 11.0656 297.752 14.0751 301.625 16.7117C301.412 16.6051 301.186 16.5119 300.96 16.4187C304.3 17.6438 306.017 21.5853 305.991 27.1648C305.991 27.3645 305.991 27.5776 305.977 27.7773C307.734 23.3963 310.729 18.8023 314.229 16.3788C314.548 16.1657 314.854 15.966 315.161 15.7929C315.187 15.7929 315.2 15.7662 315.227 15.7529C315.52 15.5931 315.799 15.4466 316.092 15.3135C316.119 15.3135 316.159 15.2868 316.185 15.2735C316.465 15.1537 316.731 15.0472 316.984 14.9673C317.024 14.9673 317.064 14.9406 317.09 14.9273C317.343 14.8474 317.596 14.7808 317.849 14.7409C317.889 14.7409 317.929 14.7276 317.955 14.7142C318.195 14.6743 318.448 14.6477 318.674 14.6344C318.714 14.6344 318.741 14.6344 318.767 14.6344C319.007 14.6344 319.233 14.6344 319.459 14.661C319.486 14.661 319.513 14.661 319.539 14.661C319.765 14.6876 319.978 14.7276 320.191 14.7941C320.205 14.7941 320.231 14.7941 320.245 14.8075C320.458 14.874 320.67 14.9539 320.87 15.0472C320.87 15.0472 320.87 15.0472 320.883 15.0472C321.735 15.4599 322.427 16.1524 322.933 17.0845C323.053 17.3109 323.173 17.5639 323.279 17.8169C323.279 17.8169 323.279 17.8169 323.279 17.8302C323.385 18.0832 323.465 18.3629 323.545 18.6425C323.545 18.6425 323.545 18.6558 323.545 18.6691C323.625 18.9621 323.692 19.255 323.732 19.5613C323.732 19.5613 323.732 19.5613 323.732 19.5746C323.785 19.8942 323.825 20.2138 323.838 20.56C323.785 17.7237 322.827 15.6197 321.243 14.621H321.269Z" fill="#BC83FF"/>
<path d="M296.938 16.1521C296.938 16.1521 296.964 16.1521 296.977 16.1521C297.323 16.0988 297.656 16.0589 297.976 16.0322C297.643 16.0589 297.297 16.0988 296.938 16.1521Z" fill="#F049FF"/>
<path d="M300.836 16.3657C300.304 16.1793 299.745 16.0728 299.133 16.0195C299.745 16.0595 300.304 16.1793 300.836 16.3657Z" fill="#F049FF"/>
<path d="M236.581 65.5691C236.581 65.5691 236.581 65.5291 236.581 65.5025L236.102 65.1562C236.261 65.2894 236.421 65.4226 236.567 65.5691H236.581Z" fill="url(#paint0_linear_2989_12413)"/>
<path d="M210.058 94.2382C210.098 86.3284 216.58 72.2267 224.938 66.4209C229.396 63.3183 233.256 63.1185 235.865 64.9961L216.58 51.0808C216.58 51.0808 215.715 50.3751 215.395 50.1886C215.103 50.0155 214.158 49.6427 214.158 49.6427C211.682 48.8304 208.501 49.4562 204.934 51.9463C196.576 57.7522 190.095 71.8539 190.055 79.7636C190.028 83.7451 191.612 87.2339 194.194 89.0316L194.234 89.0582C194.234 89.0582 194.261 89.0716 194.261 89.0849L212.135 101.469C210.79 99.5779 210.032 97.0479 210.045 94.2648L210.058 94.2382Z" fill="#B170FD"/>
<path d="M323.892 21.5051C323.919 15.3531 319.78 12.4768 314.203 16.3518C310.716 18.7753 307.722 23.3693 305.952 27.7503C305.952 27.5506 305.965 27.3375 305.965 27.1378C306.018 17.2839 300.628 12.5167 290.46 18.8818C285.549 21.9578 281.516 28.0167 278.628 34.0089C276.672 24.1816 268.5 20.4664 257.999 27.7503C246.727 35.5802 237.81 53.8232 236.572 65.5547C233.977 63.0779 229.811 63.0113 224.927 66.4069C216.569 72.2127 210.087 86.3144 210.047 94.2242C210.007 101.362 215.091 106.888 221.945 104.065L314.829 39.5883L315.068 39.4152C320.219 35.3405 323.839 27.7636 323.879 21.4918L323.892 21.5051Z" fill="#F7C8FF"/>
<path d="M285.963 5.52652C283.354 3.67558 279.641 1.58496 278.017 1.58496C275.808 1.58496 273.253 2.46382 270.458 4.39465C266.585 7.0845 263.098 11.4389 260.383 16.206C265.733 20.0544 272.214 24.7416 272.214 24.7416C272.214 24.7416 272.188 24.7416 272.175 24.7416C272.467 24.8748 272.76 25.0079 273.04 25.1677C273.04 25.1677 273.053 25.1677 273.066 25.1677C273.066 25.1677 273.093 25.1677 273.093 25.181C273.093 25.181 273.173 25.2343 273.213 25.2476C273.758 25.5672 274.277 25.9667 274.77 26.4061C274.823 26.4594 274.876 26.4993 274.93 26.5526C275.169 26.779 275.395 27.0053 275.608 27.2583C275.821 27.5114 276.034 27.7777 276.234 28.0573C276.287 28.1239 276.327 28.1905 276.367 28.2571C276.553 28.5367 276.74 28.8296 276.913 29.1359C277.086 29.4422 277.245 29.7618 277.405 30.108C277.445 30.1879 277.472 30.2678 277.511 30.3477C277.658 30.6806 277.804 31.0268 277.924 31.3863C278.057 31.7459 278.164 32.1187 278.27 32.5049C278.297 32.5981 278.323 32.6913 278.35 32.7845C278.456 33.1707 278.55 33.5702 278.629 33.983C281.504 27.9907 285.55 21.9319 290.461 18.8559C290.554 18.7893 290.634 18.7494 290.727 18.6961C295.412 15.8332 299.059 15.3538 301.614 16.6588C296.876 13.4363 291.805 9.64118 285.949 5.49989L285.963 5.52652Z" fill="#AE52FF"/>
<path d="M258.008 27.7644C260.603 25.9535 263.066 24.8349 265.328 24.3023C265.328 24.3023 268.15 23.5566 272.209 24.7417C272.209 24.7417 255.506 12.6507 253.629 11.3724C249.85 8.81567 244.42 8.89557 238.125 13.2632C226.838 21.0931 217.842 39.3361 216.617 51.0676L236.621 65.4489C237.898 53.7175 246.789 35.5677 258.021 27.7644H258.008Z" fill="#B271FF"/>
<path d="M145.613 321.783L92.3906 284.431V100.789L145.613 138.141V321.783Z" fill="#CE41FF"/>
<path d="M145.609 321.783L198.832 284.431V100.789L145.609 138.141V321.783Z" fill="#DDACFF"/>
<path d="M145.613 63.4111L92.3906 100.829L145.613 138.181L198.836 100.829L145.613 63.4111Z" fill="#D189FF"/>
<g style="mix-blend-mode:multiply">
<path d="M150.008 148.927L198.838 114.664V109.045L150.008 143.307V148.927Z" fill="#AE52FF"/>
<path d="M150.008 163.347L198.838 129.072V123.466L150.008 157.728V163.347Z" fill="#AE52FF"/>
<path d="M150.008 177.756L198.838 143.493V137.874L150.008 172.15V177.756Z" fill="#AE52FF"/>
<path d="M150.008 192.178L198.838 157.915V152.296L150.008 186.558V192.178Z" fill="#AE52FF"/>
<path d="M150.008 206.598L198.838 172.323V166.717L150.008 200.979V206.598Z" fill="#AE52FF"/>
<path d="M150.008 221.02L198.838 186.744V181.125L150.008 215.401V221.02Z" fill="#AE52FF"/>
</g>
<g style="mix-blend-mode:multiply">
<path d="M150.008 234.949L198.838 200.687V195.067L150.008 229.33V234.949Z" fill="#AE52FF"/>
<path d="M150.008 249.37L198.838 215.094V209.488L150.008 243.751V249.37Z" fill="#AE52FF"/>
<path d="M150.008 263.778L198.838 229.516V223.896L150.008 258.172V263.778Z" fill="#AE52FF"/>
<path d="M150.008 278.2L198.838 243.924V238.318L150.008 272.581V278.2Z" fill="#AE52FF"/>
<path d="M150.008 292.621L198.838 258.345V252.726L150.008 287.001V292.621Z" fill="#AE52FF"/>
<path d="M150.008 307.029L198.838 272.767V267.147L150.008 301.41V307.029Z" fill="#AE52FF"/>
</g>
<path d="M145.614 128.446L109.453 103.066V98.6582L145.614 124.039V128.446Z" fill="#CE41FF"/>
<path d="M145.617 128.446L181.778 103.066V98.6582L145.617 124.039V128.446Z" fill="#DDACFF"/>
<path d="M145.614 73.2646L109.453 98.6717L145.614 124.052L181.774 98.6717L145.614 73.2646Z" fill="#DDACFF"/>
<g style="mix-blend-mode:multiply">
<path d="M147.104 85.7021L125.836 100.656L128.045 102.227L149.326 87.2868L147.104 85.7021Z" fill="#AE52FF"/>
<path d="M151.119 88.5787V88.5654V88.5787L129.852 103.519L132.061 105.091L153.342 90.1634L151.119 88.5787Z" fill="#AE52FF"/>
<path d="M155.143 91.4414L133.875 106.395L136.084 107.953V107.967V107.953L157.365 93.026L155.143 91.4414Z" fill="#AE52FF"/>
<path d="M159.158 94.3047L137.891 109.259L140.1 110.83L161.381 95.9026L159.158 94.3047Z" fill="#AE52FF"/>
<path d="M163.182 97.1807L141.914 112.135L144.123 113.693L165.404 98.7653L163.182 97.1807Z" fill="#AE52FF"/>
</g>
<path d="M336.523 205.453C336.523 206.705 339.465 236.28 340.649 245.228C341.794 253.884 344.283 275.522 344.283 283.379C344.283 283.832 345.92 285.083 348.555 285.603C350.351 285.949 353.2 284.404 353.2 283.805L352.654 205.453H336.523Z" fill="#AE52FF"/>
<path d="M346.61 281.661H339.862C331.797 281.661 337.56 287.92 343.336 287.92H351.202C351.202 287.92 353.185 287.946 353.185 286.468V281.661H346.61Z" fill="#AE52FF"/>
<path d="M321.758 205.453C321.811 207.81 321.758 211.579 321.758 216.772C321.758 227.851 323.035 243.471 324.22 252.419C325.365 261.074 329.49 282.713 329.49 290.569C329.49 291.022 331.127 292.274 333.763 292.793C335.559 293.139 338.407 291.595 338.407 290.996L338.248 205.453H321.771H321.758Z" fill="#AE52FF"/>
<path d="M331.82 288.852H325.073C317.007 288.852 322.77 295.11 328.56 295.11H336.425C336.425 295.11 338.408 295.137 338.408 293.659V288.852H331.834H331.82Z" fill="#AE52FF"/>
<path d="M329.492 130.764C329.492 130.764 329.398 141.403 329.398 143.094C329.398 145.584 334.895 142.322 336.545 141.203C342.468 137.169 342.228 135.944 342.348 134.918V130.777H329.492V130.764Z" fill="#4FBDEB"/>
<path d="M336.773 109.005C342.656 109.005 346.729 114.331 346.729 120.217V124.105C346.729 129.818 339.582 135.823 333.726 135.823H328.748C327.218 135.823 326.778 134.305 326.778 133.6C326.778 133.174 326.778 130.817 326.778 129.498C326.778 128.58 326.273 128.247 326.113 128.193C325.101 127.86 325.727 127.088 325.86 126.715C326.339 125.397 326.632 124.545 326.778 123.24C326.965 121.429 326.605 119.125 326.778 117.953C327.431 113.559 330.878 109.005 336.773 109.005Z" fill="#93D2F2"/>
<path d="M346.731 120.217C346.731 114.331 343.125 109.005 336.696 109.005C331.32 109.005 327.154 113.04 326.781 117.953C326.821 117.887 330.321 116.156 330.321 122.108C330.321 126.209 330.335 128.233 330.335 128.233H331.839C331.785 127.607 331.932 126.835 332.304 126.076C333.023 124.625 334.288 123.786 335.126 124.212C335.964 124.625 336.044 126.143 335.326 127.594C335.02 128.193 334.634 128.686 334.208 129.032C333.156 130.417 338.666 134.239 340.17 133.773C340.17 133.773 346.718 130.124 346.718 124.119C346.718 123.186 346.718 120.23 346.718 120.23L346.731 120.217Z" fill="#AE52FF"/>
<path d="M342.389 134.159C342.389 134.159 343.72 134.665 343.467 136.037C343.467 136.037 335.296 142.069 327.297 147.848L329.413 142.934L342.403 134.159H342.389Z" fill="#CDBEDC"/>
<path d="M343.462 136.05C343.462 136.05 329.115 146.077 325.801 149.02C324.031 150.591 322.9 157.662 322.9 168.062C322.9 170.911 321.436 196.092 320.81 204.201C320.504 208.17 320.105 209.648 323.592 210.726C327.425 211.911 333.6 213.243 338.405 213.243C343.449 213.243 349.425 211.645 352.659 210.806C354.203 210.407 355.108 207.93 354.402 204.787C352.619 196.784 349.292 179.34 349.292 173.082C349.292 162.203 348.786 155.984 349.292 149.113C349.997 139.539 345.485 137.075 343.462 136.063V136.05Z" fill="#AE52FF"/>
<path d="M329.396 143.094C329.396 143.094 326.774 144.013 325.789 149.019L327.28 147.861C327.28 147.861 328.611 144.705 329.396 143.094Z" fill="#AE52FF"/>
<path d="M335.588 186.344C334.91 189.38 331.902 191.298 328.854 190.619C325.82 189.94 323.903 186.93 324.582 183.881L329.413 156.716C330.451 150.551 334.031 147.634 338.317 148.593C341.351 149.272 345.251 152.228 343.254 158.926L335.588 186.331V186.344Z" fill="#AE52FF"/>
<path d="M321.758 216.771C320.627 219.674 312.429 215.932 313.56 213.029L324.367 183.894C325.498 180.991 328.759 179.553 331.674 180.684C334.575 181.816 336.012 185.079 334.881 187.982L321.758 216.771Z" fill="#AE52FF"/>
<path d="M328.333 264.882L291.906 239.369V213.842L328.333 239.355V264.882Z" fill="#B197C3"/>
<path d="M328.336 264.883L332.302 262.06V236.533L328.336 239.356V264.883Z" fill="#D189FF"/>
<path d="M295.872 211.006L291.906 213.842L328.333 239.369L332.299 236.533L295.872 211.006Z" fill="#CDBEDC"/>
<path d="M306.32 222.511L308.17 221.179V218.449L306.32 217.131V222.511Z" fill="#D189FF"/>
<path d="M304.109 213.177V221.033L306.319 222.511V217.132L318.59 225.8V231.327L320.799 232.805V227.358V224.948L304.109 213.177Z" fill="#BCA6CD"/>
<path d="M322.66 223.616L320.797 224.948V232.804L322.66 231.473V223.616Z" fill="#D189FF"/>
<path d="M305.973 211.845L304.109 213.176L320.799 224.948L322.662 223.616L305.973 211.845Z" fill="#CDBEDC"/>
<path d="M328.333 247.465L307.238 245.161L291.906 221.938V213.842L328.333 239.355V247.465Z" fill="#C3B0D4"/>
<path d="M313.852 214.774C313.852 214.774 309.673 218.543 311.283 220.833C312.907 223.124 313.865 223.616 315.955 223.949C315.955 223.949 316.008 220.341 318.656 220.793C318.656 220.793 319.828 220.021 320.147 217.797C320.147 217.797 316.514 217.81 313.852 214.774Z" fill="#93D2F2"/>
<path d="M182.055 104.877L164.128 92.5596L144.523 102.613L170.649 120.497C174.682 123.519 180.87 121.708 183.891 117.674C186.913 113.639 186.101 107.913 182.055 104.89V104.877Z" fill="#AE52FF"/>
<path d="M189.203 178.409C188.059 179.035 185.33 179.234 183.201 177.743C180.033 175.519 173.445 171.391 173.445 170.779V163.295H183.893C183.893 163.295 183.906 167.01 183.906 167.276C183.906 167.676 183.959 169.194 184.785 169.953C185.956 171.045 186.568 171.751 188.458 173.588C190.441 175.519 190.627 177.623 189.216 178.409H189.203Z" fill="#AE52FF"/>
<path d="M183.894 166.97L186.342 113.719C186.342 109.658 183.055 106.382 179.009 106.382C174.963 106.382 171.663 109.671 171.663 113.719L170.891 120.563L173.433 169.3L183.894 166.97Z" fill="#AE52FF"/>
<path d="M169.741 113.799L151.8 101.482L132.968 100.763C132.968 100.763 132.369 104.744 131.943 107.447C131.478 110.364 133.407 112.374 137.227 115.038C141.619 118.074 158.335 129.419 158.335 129.419C162.368 132.442 168.556 130.631 171.578 126.596C174.599 122.561 173.774 116.835 169.741 113.812V113.799Z" fill="#AE52FF"/>
<path d="M176.891 187.331C175.746 187.956 173.018 188.156 170.888 186.665C167.721 184.441 161.133 180.313 161.133 179.7V172.217H171.58C171.58 172.217 171.594 175.932 171.594 176.185C171.594 176.584 171.647 178.103 172.472 178.862C173.643 179.953 174.255 180.659 176.145 182.497C178.128 184.428 178.315 186.532 176.904 187.317L176.891 187.331Z" fill="#AE52FF"/>
<path d="M171.581 175.892L174.03 122.641C174.03 118.579 170.743 115.304 166.697 115.304C162.651 115.304 159.35 118.593 159.35 122.641L158.578 129.485L161.12 178.222L171.581 175.892Z" fill="#AE52FF"/>
<path d="M138.648 33.9162L154.845 33.5566L151.984 60.0956L138.648 33.9162Z" fill="#B9A1CA"/>
<path d="M154.846 33.5566L151.984 60.0956V97.4605C151.984 97.4605 151.984 102.64 156.044 101.429C160.848 99.9905 163.337 95.3965 163.403 93.3857C163.896 80.4026 163.883 80.6156 163.883 57.9517V39.975L154.832 33.5566H154.846Z" fill="#AE52FF"/>
<path d="M151.984 60.0954L138.649 33.916C133.152 37.7777 126.125 42.4117 126.125 42.4117L131.342 65.4085L134.124 84.0377C134.124 84.0377 132.513 98.7387 131.755 107.048C131.369 111.282 143.653 111.202 149.003 106.529C151.372 104.465 151.984 100.363 151.984 96.8611V60.1087V60.0954Z" fill="#AE52FF"/>
<path d="M151.944 15.3396C150.76 14.7271 148.737 14.3809 147.273 14.3809C142.735 14.3809 139.594 18.6021 139.594 23.1428V29.175C139.594 32.0779 145.916 36.8717 149.788 37.6574C150.56 37.8171 151.039 37.684 151.292 37.5508C151.838 37.2579 152.317 36.4589 152.41 36.2725C152.81 35.4602 152.983 33.809 152.983 33.809L151.931 15.3529L151.944 15.3396Z" fill="#4FBDEB"/>
<path d="M147.22 5.8457C141.656 5.8457 137.797 11.0257 137.797 16.5918V20.5333C137.797 26.7653 146.82 34.9946 152.397 34.9946C155.178 34.9946 155.711 31.6389 156.842 28.1901C157.667 25.6867 157.321 18.5093 157.321 15.4466C157.321 9.88047 152.809 5.85902 147.233 5.85902L147.22 5.8457Z" fill="#93D2F2"/>
<path d="M139.751 22.6503C140.523 24.195 140.43 25.8195 139.538 26.259C138.647 26.7117 137.302 25.8062 136.53 24.2615C135.759 22.7169 135.852 21.0923 136.743 20.6529C137.635 20.2001 138.979 21.1056 139.765 22.6503H139.751Z" fill="#93D2F2"/>
<path d="M139.61 29.1618C139.61 29.1618 139.93 31.3722 142.405 33.3297C144.881 35.2871 149.22 38.4697 151.309 37.5376L146.797 41.3193C146.797 41.3193 138.665 35.953 138.665 33.4495C138.665 30.9461 138.586 30.0273 139.624 29.1484L139.61 29.1618Z" fill="#CDBEDC"/>
<path d="M152.822 34.9679C152.822 34.9679 152.582 36.6857 151.305 37.5512L154.219 39.6019L154.858 33.583C154.858 33.583 154.073 34.7282 152.835 34.9812L152.822 34.9679Z" fill="#CDBEDC"/>
<path d="M144.356 14.3816L139.192 10.9727C138.287 12.6505 137.781 14.5946 137.781 16.6054V20.5469C137.781 20.5469 137.781 20.6268 137.781 20.6668C139.591 21.3326 140.19 23.9159 140.19 23.9159L141.641 22.9039V20.4404C143.677 20.1874 145.381 16.6054 146.02 15.0873C144.981 14.7012 144.343 14.3949 144.343 14.3949L144.356 14.3816Z" fill="#AE52FF"/>
<path d="M157.375 16.0192C157.375 15.8061 157.375 15.6197 157.375 15.4333C157.375 9.86716 152.864 5.8457 147.287 5.8457C143.667 5.8457 140.673 7.60342 139.195 10.9591L144.359 14.368C144.359 14.368 151.293 17.7636 157.389 16.0059L157.375 16.0192Z" fill="#AE52FF"/>
<path d="M152.307 40.9204V38.2438L151.308 37.5381L148.008 40.3078L150.177 42.4118L152.307 40.9204Z" fill="#AE52FF"/>
<path d="M150.18 42.4113L148.836 53.9031L151.99 60.0951L153.002 50.9736L152.31 40.9199L150.18 42.4113Z" fill="#AE52FF"/>
<g style="mix-blend-mode:multiply">
<path d="M142.87 59.0564L135.523 36.1129L137.586 34.6348L151.987 60.0951L142.87 59.0564Z" fill="#AE52FF"/>
</g>
<g style="mix-blend-mode:multiply">
<path d="M151.984 60.0956L159.744 48.0712L157.295 35.1013L154.846 33.5566L151.984 60.0956Z" fill="#AE52FF"/>
</g>
<path d="M151.987 60.0954L143.762 58.2578L135.523 36.1132L138.651 33.916L151.987 60.0954Z" fill="#AE52FF"/>
<path d="M151.982 60.095L158.73 47.751L157.279 35.1007C157.279 35.1007 156.174 34.1419 154.83 33.5693L151.969 60.1083L151.982 60.095Z" fill="#AE52FF"/>
<path d="M174.983 72.2927C173.386 64.4496 172.455 56.6596 170.884 50.5076C168.582 41.5326 166.213 41.3328 163.844 39.9746V79.9761L168.835 81.4675C173.892 82.8923 176.288 78.7244 174.983 72.2794V72.2927Z" fill="#AE52FF"/>
<path d="M168.519 81.3475L145.281 74.7428L147.078 68.8438L170.755 73.5576L168.519 81.3475Z" fill="#AE52FF"/>
<path d="M156.793 77.5529C156.793 77.5529 161.691 71.9468 162.742 73.305C162.742 73.305 162.503 71.3742 161.531 70.0959C160.32 68.4979 158.563 68.5113 156.727 69.7896C154.89 71.0546 153.719 71.8669 153.719 71.8669L156.806 77.5529H156.793Z" fill="#93D2F2"/>
<path d="M157.378 79.0976C157.378 79.0976 147.196 83.9047 139.57 87.2736C137.467 88.2058 135.152 86.8342 133.994 84.8634C131.771 81.0817 126.274 71.6539 123.866 62.7721C121.363 53.584 122.042 44.9685 124.983 42.798C131.864 37.7112 134.646 46.6729 136.695 54.1166C138.199 59.5629 139.237 72.2265 140.329 75.0894C140.728 76.1547 141.287 76.4477 142.192 76.1015C147.742 74.0108 154.223 70.3755 154.223 70.3755C154.223 70.3755 158.176 74.2771 157.378 79.0843V79.0976Z" fill="#AE52FF"/>
<path d="M146.887 69.4302C146.302 69.2704 141.284 67.8722 136.014 67.9654C135.521 67.9654 135.135 68.3782 135.149 68.8576C135.149 69.3503 135.535 69.7231 136.04 69.7231C136.533 69.7231 138.622 70.096 139.102 70.1093C138.862 70.1892 138.636 70.2824 138.396 70.3889C137.957 70.5887 137.757 71.1213 137.957 71.5607C138.157 72.0002 138.689 72.1999 139.128 72.0002C139.208 71.9602 139.301 71.9336 139.381 71.907C139.235 72.0135 139.075 72.1067 138.929 72.2132C138.543 72.5062 138.463 73.0654 138.769 73.4516C138.942 73.678 139.208 73.7978 139.474 73.7978C139.661 73.7978 139.847 73.7446 140.007 73.6114C140.14 73.5182 140.273 73.4383 140.406 73.3451C140.259 73.4916 140.113 73.6247 139.98 73.7845C139.661 74.1574 139.714 74.7166 140.086 75.0362C140.246 75.1827 140.459 75.2493 140.659 75.2493C140.912 75.2493 141.151 75.1428 141.324 74.943C141.657 74.5435 142.043 74.2373 142.442 73.9976C142.216 74.184 142.003 74.3837 141.79 74.5968C141.457 74.9563 141.484 75.5156 141.843 75.8485C142.016 76.0083 142.229 76.0749 142.442 76.0749C142.682 76.0749 142.921 75.9817 143.094 75.7819C143.706 75.1161 144.532 74.6634 145.397 74.3704L146.901 69.4302H146.887Z" fill="#93D2F2"/>
</g>
<defs>
<linearGradient id="paint0_linear_2989_12413" x1="236.099" y1="65.3805" x2="236.578" y2="65.383" gradientUnits="userSpaceOnUse">
<stop stop-color="#865C9F"/>
<stop offset="1" stop-color="#AB8EBE"/>
</linearGradient>
<clipPath id="clip0_2989_12413">
<rect width="430" height="360" fill="white"/>
</clipPath>
</defs>
</svg>
