<svg width="100" height="100" viewBox="0 0 100 100" fill="none" xmlns="http://www.w3.org/2000/svg">
<path d="M81 44.3153C81.0012 53.1073 77.8883 61.6155 72.2136 68.3309C66.5388 75.0463 58.669 79.5347 50 81C41.331 79.5347 33.4612 75.0463 27.7864 68.3309C22.1117 61.6155 18.9988 53.1073 19 44.3153V23.1333C19 22.0371 19.4355 20.9858 20.2106 20.2106C20.9858 19.4355 22.0371 19 23.1333 19H76.8667C77.9629 19 79.0142 19.4355 79.7894 20.2106C80.5645 20.9858 81 22.0371 81 23.1333V44.3153Z" stroke="black" stroke-width="3" stroke-linecap="round" stroke-linejoin="round"/>
<path d="M68.5 50C71.5376 50 74 47.7614 74 45C74 42.2386 71.5376 40 68.5 40C65.4624 40 63 42.2386 63 45C63 47.7614 65.4624 50 68.5 50Z" stroke="black" stroke-width="3" stroke-linecap="round" stroke-linejoin="round"/>
<path d="M77 56C75.2698 53.8849 72.7377 52.4886 69.9386 52.106C67.1396 51.7235 64.2929 52.3847 62 53.9499" stroke="black" stroke-width="3" stroke-linecap="round" stroke-linejoin="round"/>
<path d="M31.5 50C34.5376 50 37 47.7614 37 45C37 42.2386 34.5376 40 31.5 40C28.4624 40 26 42.2386 26 45C26 47.7614 28.4624 50 31.5 50Z" stroke="black" stroke-width="3" stroke-linecap="round" stroke-linejoin="round"/>
<path d="M23 56C24.7307 53.8849 27.2627 52.4887 30.0615 52.1061C32.8603 51.7235 35.7068 52.3844 38 53.9494" stroke="black" stroke-width="3" stroke-linecap="round" stroke-linejoin="round"/>
<path d="M61.9986 61C62.0228 59.4328 61.7303 57.8765 61.1381 56.4217C60.546 54.9668 59.666 53.6425 58.5494 52.5258C57.4329 51.4091 56.102 50.5223 54.6342 49.917C53.1665 49.3117 51.5912 49 50 49C48.4088 49 46.8335 49.3117 45.3658 49.917C43.898 50.5223 42.5671 51.4091 41.4506 52.5258C40.334 53.6425 39.454 54.9668 38.8619 56.4217C38.2697 57.8765 37.9772 59.4328 38.0014 61" stroke="#3DD3F2" stroke-width="3" stroke-linecap="round" stroke-linejoin="round"/>
<path d="M49.5 45C53.6421 45 57 41.866 57 38C57 34.134 53.6421 31 49.5 31C45.3579 31 42 34.134 42 38C42 41.866 45.3579 45 49.5 45Z" stroke="#3DD3F2" stroke-width="3" stroke-linecap="round" stroke-linejoin="round"/>
</svg>
