<svg width="100" height="100" viewBox="0 0 100 100" fill="none" xmlns="http://www.w3.org/2000/svg">
<path d="M33.7361 89V69.8952C30.8627 67.2549 28.5775 64.0748 27 60.5606M66.0179 89V79.8516H70.6298C73.0759 79.8516 75.422 78.8876 77.1518 77.1719C78.8813 75.4565 79.8532 73.1295 79.8532 70.7032V61.5549H85.6948C86.0689 61.5542 86.4374 61.4633 86.7682 61.2901C87.0994 61.1169 87.383 60.8665 87.5946 60.5606C87.8065 60.2546 87.94 59.9018 87.984 59.5332C88.028 59.1645 87.9808 58.791 87.8466 58.4445C80.8709 40.4959 76.3488 24.3022 59.8973 21" stroke="black" stroke-width="3" stroke-linecap="round" stroke-linejoin="round"/>
<path d="M32 51C43.0458 51 52 42.0458 52 31.0001C52 19.9543 43.0458 11 32 11C20.9543 11 12 19.9543 12 31.0001C12 42.0458 20.9543 51 32 51Z" stroke="#00CCF5" stroke-width="3" stroke-linecap="round" stroke-linejoin="round"/>
<path d="M47 45L59 56" stroke="#00CCF5" stroke-width="3" stroke-linecap="round" stroke-linejoin="round"/>
<path d="M27 24.7286C27 21.7135 29.3158 19 32.5 19C35.3947 19 38 21.412 38 24.7286C38 27.7437 35.6842 30.4573 32.5 30.4573V33" stroke="#00CCF5" stroke-width="3" stroke-miterlimit="10" stroke-linecap="round" stroke-linejoin="round"/>
<path d="M32 41C32 41 32 41.25 32 41.5C32 41.75 32 42 32 42" stroke="black" stroke-width="3" stroke-miterlimit="10" stroke-linecap="round" stroke-linejoin="round"/>
<path d="M32 41C32.5 41 33 41.25 33 41.5C33 41.75 32.5 42 32 42" stroke="#00CCF5" stroke-width="3" stroke-miterlimit="10" stroke-linecap="round" stroke-linejoin="round"/>
</svg>
