<svg width="100" height="100" viewBox="0 0 100 100" fill="none" xmlns="http://www.w3.org/2000/svg">
<path d="M37.5001 40C42.1945 40 46 36.4183 46 32C46 27.5817 42.1945 24 37.5001 24C32.8056 24 29 27.5817 29 32C29 36.4183 32.8056 40 37.5001 40Z" stroke="black" stroke-width="3" stroke-miterlimit="10" stroke-linecap="round" stroke-linejoin="round"/>
<path d="M23 57C23 49.2222 29.4445 43 37.5 43C45.5555 43 52 49.2222 52 57H23Z" stroke="black" stroke-width="3" stroke-miterlimit="10" stroke-linecap="round" stroke-linejoin="round"/>
<path d="M57 33H71" stroke="black" stroke-width="3" stroke-miterlimit="10" stroke-linecap="round" stroke-linejoin="round"/>
<path d="M57 43H76" stroke="black" stroke-width="3" stroke-miterlimit="10" stroke-linecap="round" stroke-linejoin="round"/>
<path d="M86 46.2222V18.8333C86 16.2556 83.76 14 81.2 14H18.8C16.24 14 14 16.2556 14 18.8333V67.1667C14 69.7444 16.24 72 18.8 72H46" stroke="black" stroke-width="3" stroke-miterlimit="10" stroke-linecap="round" stroke-linejoin="round"/>
<path d="M71.5 86C79.5082 86 86 79.5082 86 71.5C86 63.4918 79.5082 57 71.5 57C63.4918 57 57 63.4918 57 71.5C57 79.5082 63.4918 86 71.5 86Z" stroke="#00CCF5" stroke-width="3" stroke-miterlimit="10" stroke-linecap="round" stroke-linejoin="round"/>
<path d="M76 68L71.2 75.3044C70.9 75.6522 70.6 76 70.3 76C70 76 69.7 76 69.4 75.6522L67 72.8696" stroke="#00CCF5" stroke-width="3" stroke-miterlimit="10" stroke-linecap="round" stroke-linejoin="round"/>
</svg>
