<svg width="143" height="67" viewBox="0 0 143 67" fill="none" xmlns="http://www.w3.org/2000/svg">
<path d="M31.7339 18.1613C31.6078 17.7713 31.4062 17.4099 31.1404 17.0978C30.8747 16.7857 30.5501 16.529 30.1852 16.3424C29.8202 16.1557 29.4221 16.0428 29.0135 16.01C28.6049 15.9772 28.1939 16.0252 27.8039 16.1513C27.4139 16.2774 27.0525 16.479 26.7404 16.7448C26.4283 17.0105 26.1716 17.3351 25.9849 17.7C25.7983 18.0649 25.6854 18.4631 25.6526 18.8717C25.6198 19.2802 25.6678 19.6913 25.7939 20.0813L33.8639 44.8913C34.1343 45.6323 34.6762 46.2429 35.3799 46.5993C36.0836 46.9558 36.8964 47.0316 37.6539 46.8113C38.0494 46.7034 38.4192 46.5171 38.7413 46.2636C39.0634 46.01 39.3313 45.6943 39.5291 45.3352C39.7268 44.9761 39.8504 44.5809 39.8924 44.1731C39.9345 43.7653 39.8942 43.3532 39.7739 42.9613C39.7739 42.9113 31.7339 18.1613 31.7339 18.1613Z" fill="#ECB32D"/>
<path d="M19.2436 22.2013C19.1176 21.8113 18.9159 21.4499 18.6502 21.1378C18.3845 20.8257 18.0599 20.5691 17.6949 20.3824C17.33 20.1958 16.9319 20.0828 16.5233 20.05C16.1147 20.0173 15.7037 20.0653 15.3136 20.1913C14.9236 20.3174 14.5622 20.5191 14.2501 20.7848C13.9381 21.0505 13.6814 21.3751 13.4947 21.7401C13.3081 22.105 13.1951 22.5031 13.1623 22.9117C13.1296 23.3203 13.1776 23.7313 13.3036 24.1213L21.3736 48.9613C21.6441 49.7023 22.186 50.3129 22.8897 50.6694C23.5934 51.0259 24.4062 51.1016 25.1636 50.8813C25.5591 50.7734 25.9289 50.5872 26.2511 50.3336C26.5732 50.08 26.8411 49.7643 27.0388 49.4052C27.2366 49.0461 27.3601 48.6509 27.4022 48.2431C27.4442 47.8353 27.4039 47.4232 27.2836 47.0313C27.2836 46.9613 19.2436 22.2013 19.2436 22.2013Z" fill="#63C1A0"/>
<path d="M41.8933 38.6811C42.2834 38.5551 42.6447 38.3534 42.9568 38.0877C43.2689 37.822 43.5256 37.4974 43.7123 37.1324C43.8989 36.7675 44.0119 36.3694 44.0446 35.9608C44.0774 35.5522 44.0294 35.1412 43.9033 34.7511C43.7773 34.3611 43.5756 33.9997 43.3099 33.6877C43.0442 33.3756 42.7196 33.1189 42.3546 32.9322C41.9897 32.7456 41.5916 32.6326 41.183 32.5998C40.7744 32.5671 40.3634 32.6151 39.9733 32.7411L15.1433 40.8411C14.4023 41.1116 13.7918 41.6535 13.4353 42.3572C13.0788 43.0609 13.0031 43.8737 13.2233 44.6311C13.3315 45.0233 13.5168 45.3899 13.7683 45.7096C14.0199 46.0293 14.3326 46.2957 14.6883 46.4931C15.044 46.6905 15.4355 46.8149 15.8398 46.8593C16.2442 46.9036 16.6533 46.8668 17.0433 46.7511C17.1233 46.7511 41.8933 38.6811 41.8933 38.6811Z" fill="#E01A59"/>
<path d="M20.3038 45.7213L26.2438 43.8013C25.7238 42.1913 25.0338 40.1013 24.3238 37.8613L18.3838 39.7813L20.3038 45.7213Z" fill="#331433"/>
<path d="M32.8243 41.6413L38.7643 39.7213C38.2443 38.1113 37.5543 36.0213 36.8443 33.7812L30.9043 35.7012L32.8243 41.6413Z" fill="#D62027"/>
<path d="M37.8237 26.2012C38.2138 26.0751 38.5751 25.8734 38.8872 25.6077C39.1993 25.342 39.456 25.0174 39.6427 24.6524C39.8293 24.2875 39.9422 23.8894 39.975 23.4808C40.0078 23.0722 39.9598 22.6612 39.8337 22.2712C39.7077 21.8811 39.506 21.5198 39.2403 21.2077C38.9746 20.8956 38.65 20.6389 38.285 20.4522C37.9201 20.2656 37.522 20.1526 37.1134 20.1199C36.7048 20.0871 36.2938 20.1351 35.9037 20.2612L11.0437 28.3212C10.3027 28.5916 9.69217 29.1335 9.33569 29.8372C8.97921 30.5409 8.90345 31.3537 9.12373 32.1112C9.23079 32.5146 9.41927 32.892 9.67757 33.2199C9.93588 33.5478 10.2586 33.8194 10.6257 34.018C10.9929 34.2166 11.3969 34.3379 11.8127 34.3746C12.2285 34.4113 12.6475 34.3624 13.0437 34.2312L37.8237 26.2012Z" fill="#89D3DF"/>
<path d="M16.264 33.2013L22.204 31.2813C21.484 29.0413 20.794 26.9413 20.284 25.3413L14.334 27.2613L16.264 33.2013Z" fill="#258B74"/>
<path d="M28.7442 29.1513L34.6842 27.2313C33.9642 24.9913 33.2742 22.8913 32.7642 21.2913L26.8242 23.2113L28.7442 29.1513Z" fill="#819C3C"/>
<path d="M65.3869 26.6914C66.4769 27.1814 66.5669 27.5214 65.7069 29.1614C64.8469 30.8014 64.6169 30.9814 63.5269 30.5114C62.1895 29.934 60.7612 29.5955 59.3069 29.5114C57.4669 29.5114 56.3069 30.1714 56.3069 31.1814C56.3069 34.4814 66.8169 32.7014 66.8169 39.7114C66.8169 43.2414 63.8169 45.6014 59.2369 45.6014C56.6739 45.5208 54.1577 44.8934 51.8569 43.7614C50.8569 43.2414 50.7669 42.9614 51.6569 41.2614C52.4069 39.8014 52.6569 39.6214 53.7569 40.0814C55.4619 40.8501 57.2907 41.3073 59.1569 41.4314C60.8269 41.4314 61.9369 40.7414 61.9369 39.7614C61.9369 36.5714 51.2269 38.0914 51.2269 31.2914C51.2269 27.6714 54.2269 25.2914 58.7469 25.2914C61.0311 25.3133 63.2882 25.7892 65.3869 26.6914ZM73.8869 18.3714V44.5514C73.8521 44.7865 73.7297 44.9996 73.5442 45.1481C73.3586 45.2965 73.1238 45.3691 72.8869 45.3514H70.1269C69.8899 45.3691 69.6551 45.2965 69.4696 45.1481C69.284 44.9996 69.1616 44.7865 69.1269 44.5514V18.3714C69.1269 17.0814 69.4969 16.9614 71.5069 16.9614C73.8069 16.9814 73.8869 17.1014 73.8869 18.3714ZM93.4669 33.0714V44.3514C93.4669 44.6166 93.3615 44.871 93.174 45.0585C92.9864 45.2461 92.7321 45.3514 92.4669 45.3514H89.7369C89.5976 45.352 89.4598 45.3235 89.3322 45.2677C89.2046 45.2119 89.0901 45.1301 88.9959 45.0275C88.9018 44.9249 88.8301 44.8037 88.7855 44.6718C88.7409 44.5399 88.7243 44.4001 88.7369 44.2614V43.0514C88.0127 43.8441 87.1304 44.4762 86.1469 44.9068C85.1634 45.3374 84.1005 45.557 83.0269 45.5514C78.9169 45.5514 76.1669 43.1714 76.1669 39.6414C76.1669 35.8814 79.2669 33.3214 83.9469 33.3214C85.5578 33.2996 87.1576 33.5917 88.6569 34.1814V32.9014C88.6569 30.8314 87.0169 29.6014 84.2369 29.6014C82.7671 29.6695 81.3374 30.1025 80.0769 30.8614C79.0769 31.4114 78.8669 31.3814 77.8069 29.8014C76.7469 28.2214 76.8069 27.9314 77.8069 27.2714C79.8778 25.9881 82.2607 25.2964 84.6969 25.2714C90.0869 25.2314 93.4669 28.1314 93.4669 33.0714ZM80.7769 39.6114C80.7769 40.9614 81.9269 41.8514 83.6169 41.8514C84.617 41.8579 85.6028 41.6143 86.4848 41.1428C87.3667 40.6712 88.1168 39.9867 88.6669 39.1514V37.4014C87.5093 36.967 86.2833 36.7434 85.0469 36.7414C82.4769 36.7414 80.7769 37.9814 80.7769 39.6114ZM112.137 26.7214C113.137 27.2914 113.137 27.6114 112.077 29.3014C111.017 30.9914 110.867 30.9914 109.747 30.4514C108.726 29.9558 107.611 29.6831 106.477 29.6514C105.713 29.6019 104.947 29.7153 104.23 29.9844C103.513 30.2534 102.862 30.6717 102.319 31.2117C101.776 31.7517 101.354 32.401 101.082 33.1164C100.809 33.8319 100.691 34.5971 100.737 35.3614C100.737 38.9214 103.037 41.3614 106.477 41.3614C107.764 41.3164 109.024 40.9742 110.157 40.3614C111.157 39.7914 111.367 39.8114 112.427 41.3614C113.487 42.9114 113.377 43.1414 112.517 43.7414C110.687 44.919 108.563 45.5599 106.387 45.5914C100.017 45.5914 95.7369 41.5114 95.7369 35.3714C95.7369 29.2314 100.017 25.2414 106.447 25.2414C108.434 25.2734 110.386 25.7809 112.137 26.7214ZM132.977 42.8914C133.777 43.8914 133.467 44.2714 131.457 44.9914C129.447 45.7114 129.127 45.6814 128.457 44.7614L122.747 37.1514L120.187 39.6214V44.5614C120.152 44.7965 120.03 45.0096 119.844 45.1581C119.659 45.3065 119.424 45.3791 119.187 45.3614H116.387C116.15 45.3791 115.915 45.3065 115.73 45.1581C115.544 45.0096 115.422 44.7965 115.387 44.5614V18.3714C115.387 17.0814 115.757 16.9614 117.767 16.9614C120.097 16.9614 120.147 17.1314 120.147 18.3714V33.2414L127.957 25.7514C128.817 24.9514 129.307 25.0014 130.827 26.0114C132.517 27.1014 132.637 27.4214 131.827 28.1914L126.027 33.8714L132.977 42.8914Z" fill="#2D333A"/>
</svg>
