<svg width="133" height="40" viewBox="0 0 133 40" fill="none" xmlns="http://www.w3.org/2000/svg">
<g opacity="0.8" clip-path="url(#clip0_1423_25)">
<path d="M93.68 7.83999H86.64C86.48 7.83999 86.32 8.00001 86.32 8.16001V12.24C86.32 12.4 86.48 12.56 86.64 12.56H93.68C93.84 12.56 94 12.4 94 12.24V8.16001C94.08 8.00001 93.92 7.83999 93.68 7.83999ZM93.6 13.92H80C79.84 13.92 79.6 14.08 79.52 14.24L77.76 20.88L77.68 21.2L75.6 14.08C75.52 13.92 75.36 13.76 75.12 13.76H69.84C69.68 13.76 69.44 13.92 69.36 14.08L67.36 20.72L67.28 21.04L67.2 20.88L66.4 17.6L65.52 14.32C65.44 14.16 65.28 14 65.04 14H54.4V8.23999C54.4 8.07999 54.16 7.84 53.92 7.92L47.2 10C46.96 10.08 46.88 10.16 46.88 10.32V13.92H45.12C44.96 13.92 44.8 14.08 44.8 14.24V19.36C44.8 19.52 44.96 19.68 45.12 19.68H46.88V25.92C46.88 30.32 49.28 32.4 53.68 32.4C55.52 32.4 57.28 32 58.48 31.36V26.08C58.48 25.84 58.24 25.76 58.08 25.76C57.36 26.08 56.8 26.16 56.16 26.16C54.96 26.16 54.32 25.68 54.32 24.32V19.76H58.16C58.32 19.76 58.48 19.6 58.48 19.44V15.12L63.52 31.84C63.6 32 63.76 32.16 64 32.16H69.6C69.76 32.16 70 32 70.08 31.84L72.48 24.4L73.68 28.24L74.8 31.76C74.88 31.92 75.04 32.08 75.28 32.08H80.88C81.04 32.08 81.28 31.92 81.36 31.76L86.48 14.96V31.76C86.48 31.92 86.64 32.08 86.8 32.08H93.6C93.76 32.08 93.92 31.92 93.92 31.76V14.32C93.92 14.08 93.76 13.92 93.6 13.92ZM102.56 7.83999H95.76C95.6 7.83999 95.44 8.00001 95.44 8.16001V31.76C95.44 31.92 95.6 32.08 95.76 32.08H102.56C102.72 32.08 102.88 31.92 102.88 31.76V8.16001C102.88 8.00001 102.72 7.83999 102.56 7.83999ZM111.6 7.83999H104.56C104.4 7.83999 104.24 8.00001 104.24 8.16001V12.24C104.24 12.4 104.4 12.56 104.56 12.56H111.6C111.76 12.56 111.92 12.4 111.92 12.24V8.16001C112 8.00001 111.84 7.83999 111.6 7.83999ZM111.52 13.92H104.72C104.56 13.92 104.4 14.08 104.4 14.24V31.76C104.4 31.92 104.56 32.08 104.72 32.08H111.52C111.68 32.08 111.84 31.92 111.84 31.76V14.32C111.84 14.08 111.68 13.92 111.52 13.92ZM122.8 13.52C116.8 13.52 112.56 17.92 112.56 23.04V23.12C112.56 28.24 116.8 32.56 122.72 32.56C128.72 32.56 132.96 28.16 132.96 23.04V22.96C132.96 17.84 128.72 13.52 122.8 13.52ZM125.68 23.04C125.68 24.8 124.48 26.16 122.8 26.16C121.12 26.16 119.84 24.72 119.84 22.96V22.88C119.84 21.12 121.04 19.76 122.72 19.76C124.4 19.76 125.68 21.2 125.68 23.04ZM20 0C8.96 0 0 8.96 0 20C0 31.04 8.96 40 20 40C31.04 40 40 31.04 40 20C40 8.96 31.04 0 20 0ZM20 34.72C11.84 34.72 5.28 28.16 5.28 20C5.28 11.84 11.84 5.28 20 5.28C28.16 5.28 34.72 11.84 34.72 20C34.72 28.16 28.16 34.72 20 34.72Z" fill="black"/>
<path d="M24.9598 19.2C27.2573 19.2 29.1198 17.3375 29.1198 15.04C29.1198 12.7425 27.2573 10.88 24.9598 10.88C22.6623 10.88 20.7998 12.7425 20.7998 15.04C20.7998 17.3375 22.6623 19.2 24.9598 19.2Z" fill="black"/>
<path d="M24.9598 29.12C27.2573 29.12 29.1198 27.2576 29.1198 24.9601C29.1198 22.6626 27.2573 20.8 24.9598 20.8C22.6623 20.8 20.7998 22.6626 20.7998 24.9601C20.7998 27.2576 22.6623 29.12 24.9598 29.12Z" fill="black"/>
<path d="M15.0399 29.12C17.3374 29.12 19.1999 27.2576 19.1999 24.9601C19.1999 22.6626 17.3374 20.8 15.0399 20.8C12.7424 20.8 10.8799 22.6626 10.8799 24.9601C10.8799 27.2576 12.7424 29.12 15.0399 29.12Z" fill="black"/>
<path d="M15.0399 19.2C17.3374 19.2 19.1999 17.3375 19.1999 15.04C19.1999 12.7425 17.3374 10.88 15.0399 10.88C12.7424 10.88 10.8799 12.7425 10.8799 15.04C10.8799 17.3375 12.7424 19.2 15.0399 19.2Z" fill="black"/>
</g>
<defs>
<clipPath id="clip0_1423_25">
<rect width="132.96" height="40" fill="white"/>
</clipPath>
</defs>
</svg>
