<svg width="100" height="100" viewBox="0 0 100 100" fill="none" xmlns="http://www.w3.org/2000/svg">
<path d="M16 50.8932C16 55.8985 18.3301 60.3172 21.7824 62.6018C22.4324 63.0319 22.525 64.0255 21.8878 64.4744L19.5185 66.1434C19.212 66.3597 19.0289 66.7143 19.0289 67.0925V74.1749C19.0289 74.6109 18.7393 74.9855 18.3557 75.1929C17.1431 75.8484 16.3126 77.1299 16.3126 78.6155C16.3126 80.7676 18.0441 82.519 20.1722 82.519C22.3002 82.519 24.0312 80.7677 24.0312 78.6155C24.0312 77.1299 23.201 75.8484 21.9887 75.193C21.6051 74.9856 21.3154 74.611 21.3154 74.175V68.2149C21.3154 67.8896 21.4736 67.5846 21.7396 67.3973L24.0681 65.7573C24.6824 65.3246 25.5461 65.6993 25.7404 66.4251C26.3824 68.8225 27.697 70.8845 29.4225 72.2703C30.0014 72.7353 30.0514 73.666 29.4443 74.0936L26.7604 75.9841C26.4533 76.2003 26.2703 76.5549 26.2703 76.9331V78.6561C26.2703 79.0921 25.9806 79.4667 25.5971 79.6741C24.3847 80.3297 23.5545 81.6116 23.5545 83.0971C23.5545 85.2492 25.2856 87 27.4135 87C29.5415 87 31.2726 85.2492 31.2726 83.0971C31.2726 81.6115 30.4423 80.3297 29.23 79.6741C28.8464 79.4667 28.5568 79.0921 28.5568 78.6561V78.0554C28.5568 77.7301 28.715 77.4251 28.981 77.2378L31.4389 75.5067C32.0575 75.0709 32.9275 75.4548 33.1146 76.188C34.2683 80.71 37.7801 84.0105 41.9309 84.0105C44.7171 84.0105 47.2184 82.5185 48.9082 80.1652C49.4061 79.4718 50.5856 79.4716 51.0838 80.1647C52.7755 82.5183 55.2797 84.0105 58.0692 84.0105C62.1653 84.0105 65.6398 80.7907 66.8357 76.3415C67.0304 75.6172 67.8922 75.2442 68.5055 75.6761L70.7226 77.2377C70.9886 77.425 71.1468 77.73 71.1468 78.0553V78.656C71.1468 79.092 70.8571 79.4666 70.4736 79.6739C69.261 80.3296 68.4304 81.6115 68.4304 83.097C68.4304 85.2491 70.162 86.9999 72.29 86.9999C74.4181 86.9999 76.1491 85.2491 76.1491 83.097C76.1491 81.6114 75.3188 80.3296 74.1065 79.6739C73.7229 79.4666 73.4333 79.092 73.4333 78.656V76.933C73.4333 76.5548 73.2501 76.2002 72.9432 75.9839L70.4147 74.2029C69.7995 73.7697 69.8603 72.8213 70.4546 72.3599C72.1986 71.0059 73.5404 68.9687 74.2152 66.5812C74.4176 65.865 75.2727 65.5017 75.8812 65.9303L77.9639 67.3972C78.2298 67.5845 78.388 67.8895 78.388 68.2147V74.1749C78.388 74.6109 78.0983 74.9855 77.7148 75.1929C76.5022 75.8484 75.6716 77.1299 75.6716 78.6155C75.6716 80.7676 77.4032 82.519 79.5313 82.519C81.6593 82.519 83.3903 80.7677 83.3903 78.6155C83.3903 77.1299 82.5601 75.8484 81.3478 75.193C80.9642 74.9856 80.6745 74.611 80.6745 74.175V67.0925C80.6745 66.7143 80.4914 66.3597 80.185 66.1434L77.9611 64.5768C77.3163 64.1226 77.4199 63.1122 78.0841 62.6868C81.6097 60.429 84 55.9625 84 50.8932C84 45.2819 81.0669 40.4058 76.9048 38.4552C76.1084 38.0819 75.8821 36.8878 76.6012 36.3813L80.1851 33.8566C80.4916 33.6403 80.6746 33.2857 80.6746 32.9075V25.8249C80.6746 25.3889 80.9643 25.0144 81.3478 24.807C82.5602 24.1515 83.3904 22.87 83.3904 21.3845C83.3904 19.2324 81.6593 17.481 79.5314 17.481C77.4034 17.481 75.6718 19.2323 75.6718 21.3845C75.6718 22.8701 76.5023 24.1517 77.7149 24.8072C78.0984 25.0145 78.3881 25.3891 78.3881 25.8251V31.7853C78.3881 32.1105 78.2299 32.4155 77.964 32.6028L75.3854 34.419C74.8203 34.8171 74.0295 34.5344 73.7685 33.8943C72.8511 31.6438 71.3094 29.8164 69.4058 28.7465C68.6586 28.3265 68.4669 27.1691 69.1677 26.6755L72.9433 24.0162C73.2504 23.8 73.4334 23.4453 73.4334 23.0671V21.3439C73.4334 20.9079 73.7231 20.5333 74.1066 20.3259C75.319 19.6703 76.1492 18.3884 76.1492 16.9029C76.1492 14.7508 74.4181 13 72.2901 13C70.1622 13 68.4305 14.7508 68.4305 16.9029C68.4305 18.3885 69.261 19.6704 70.4737 20.326C70.8572 20.5333 71.1469 20.9079 71.1469 21.3439V21.9446C71.1469 22.2699 70.9887 22.5749 70.7227 22.7622L68.5095 24.321C67.8955 24.7535 67.0324 24.379 66.8381 23.6536C65.6489 19.2145 62.1723 15.9895 58.0692 15.9895C55.2793 15.9895 52.7747 17.4789 51.083 19.8277C50.5847 20.5197 49.407 20.5195 48.909 19.8273C47.2191 17.4788 44.7175 15.9895 41.9309 15.9895C37.776 15.9895 34.2623 19.2896 33.1122 23.8084C32.9254 24.5423 32.0547 24.927 31.4356 24.491L28.9811 22.7622C28.7151 22.5749 28.5569 22.2699 28.5569 21.9446V21.3439C28.5569 20.9079 28.8466 20.5333 29.2301 20.3259C30.4425 19.6703 31.2727 18.3884 31.2727 16.9029C31.2727 14.7508 29.5416 13 27.4136 13C25.2857 13 23.5546 14.7508 23.5546 16.9029C23.5546 18.3885 24.3848 19.6703 25.5972 20.3259C25.9807 20.5333 26.2704 20.9079 26.2704 21.3439V23.0669C26.2704 23.4451 26.4535 23.7997 26.7605 24.0159L30.6856 26.7807C31.3756 27.2667 31.2023 28.3948 30.4736 28.8206C28.588 29.9223 27.0693 31.7739 26.1785 34.0471C25.9241 34.6963 25.1259 34.9878 24.5559 34.5863L21.7397 32.6027C21.4738 32.4154 21.3155 32.1104 21.3155 31.7851V25.8249C21.3155 25.3889 21.6052 25.0144 21.9887 24.807C23.2011 24.1515 24.0313 22.87 24.0313 21.3845C24.0313 19.2324 22.3002 17.481 20.1723 17.481C18.0444 17.481 16.3127 19.2323 16.3127 21.3845C16.3127 22.8701 17.1432 24.1517 18.3558 24.8072C18.7394 25.0145 19.029 25.3891 19.029 25.8251V32.9075C19.029 33.2857 19.2122 33.6403 19.5186 33.8566L23.2425 36.4798C23.952 36.9797 23.7429 38.148 22.9624 38.5278C18.8715 40.5183 16 45.3426 16 50.8932ZM20.1723 80.2065C19.3048 80.2065 18.5992 79.4928 18.5992 78.6155C18.5992 77.7387 19.3048 77.025 20.1723 77.025C21.0392 77.025 21.7448 77.7387 21.7448 78.6155C21.7448 79.4928 21.0392 80.2065 20.1723 80.2065ZM27.4135 84.6875C26.5466 84.6875 25.841 83.9739 25.841 83.0971C25.841 82.2197 26.5466 81.5061 27.4135 81.5061C28.2805 81.5061 28.9861 82.2197 28.9861 83.0971C28.9861 83.9739 28.2805 84.6875 27.4135 84.6875ZM72.2901 84.6875C71.4226 84.6875 70.717 83.9739 70.717 83.0971C70.717 82.2197 71.4226 81.5061 72.2901 81.5061C73.1571 81.5061 73.8627 82.2197 73.8627 83.0971C73.8627 83.9739 73.1571 84.6875 72.2901 84.6875ZM79.5315 80.2065C78.664 80.2065 77.9584 79.4928 77.9584 78.6155C77.9584 77.7387 78.664 77.025 79.5315 77.025C80.3984 77.025 81.104 77.7387 81.104 78.6155C81.1039 79.4928 80.3984 80.2065 79.5315 80.2065ZM79.5315 19.7935C80.3984 19.7935 81.104 20.5072 81.104 21.3845C81.104 22.2613 80.3984 22.975 79.5315 22.975C78.664 22.975 77.9584 22.2613 77.9584 21.3845C77.9584 20.5072 78.664 19.7935 79.5315 19.7935ZM72.2901 15.3125C73.1571 15.3125 73.8627 16.0261 73.8627 16.9029C73.8627 17.7803 73.1571 18.4939 72.2901 18.4939C71.4226 18.4939 70.717 17.7803 70.717 16.9029C70.717 16.0261 71.4226 15.3125 72.2901 15.3125ZM27.4135 15.3125C28.2805 15.3125 28.9861 16.0261 28.9861 16.9029C28.9861 17.7803 28.2805 18.4939 27.4135 18.4939C26.5466 18.4939 25.841 17.7803 25.841 16.9029C25.8411 16.0261 26.5466 15.3125 27.4135 15.3125ZM20.1723 19.7935C21.0392 19.7935 21.7448 20.5072 21.7448 21.3845C21.7448 22.2613 21.0392 22.975 20.1723 22.975C19.3048 22.975 18.5992 22.2613 18.5992 21.3845C18.5992 20.5072 19.3048 19.7935 20.1723 19.7935ZM26.5383 39.8834C27.1316 39.8342 27.5883 39.2974 27.5883 38.695C27.5883 34.1056 30.4426 30.3003 34.0855 30.0327C34.4093 30.0084 34.7079 29.847 34.9067 29.5872C35.1054 29.3281 35.1858 28.995 35.1278 28.672C35.0368 28.1662 34.9905 27.6061 34.9905 27.0088C34.9905 22.2077 38.1037 18.3019 41.931 18.3019C45.747 18.3019 48.8519 22.2076 48.8519 27.0088C48.8519 27.6473 49.3638 28.165 49.9951 28.165C50.6264 28.165 51.1384 27.6473 51.1384 27.0088C51.1384 22.2077 54.2477 18.3019 58.0694 18.3019C61.891 18.3019 65.0003 22.2076 65.0003 27.0088C65.0003 27.6501 64.9585 28.1944 64.8725 28.672C64.8144 28.995 64.8948 29.3281 65.0936 29.5872C65.2923 29.8469 65.591 30.0084 65.9148 30.0327C69.5578 30.3003 72.412 34.1056 72.412 38.7311C72.412 39.3335 72.8686 39.8342 73.4621 39.8834C78.0893 40.2656 81.7138 45.1012 81.7138 50.8932C81.7138 56.4381 78.3969 61.0968 74.0611 61.8291C73.9036 61.8518 73.7013 61.8811 73.8163 61.8644C73.0011 61.9733 72.4121 62.2536 72.4121 63.1038C72.4121 67.288 70.0009 70.8686 66.7977 71.6551C66.6834 71.6804 66.4609 71.7296 66.5754 71.7043C66.1272 71.7952 65.0007 71.7851 65.0007 72.9669C65.0007 77.7811 61.8914 81.6981 58.0697 81.6981C54.248 81.6981 51.1387 77.7811 51.1387 72.9669C51.1387 72.3285 50.6268 71.8107 49.9955 71.8107C49.3642 71.8107 48.8522 72.3285 48.8522 72.9669C48.8522 77.7811 45.7474 81.6981 41.9313 81.6981C38.1041 81.6981 34.9909 77.7811 34.9909 72.9432C34.9909 72.3487 34.5455 71.8514 33.9609 71.7927C33.663 71.7627 33.3729 71.7003 33.0871 71.6236C33.0764 71.6207 33.067 71.6141 33.0607 71.6049L33.054 71.5952C33.0429 71.579 33.0206 71.575 33.0045 71.5864C32.9957 71.5925 32.9847 71.5944 32.9744 71.5914C29.8871 70.6968 27.5888 67.1872 27.5888 63.0677C27.5888 62.4659 27.1322 61.9645 26.5387 61.9154C26.3187 61.8972 26.1029 61.8615 25.8878 61.8229C25.8671 61.8192 25.8488 61.8074 25.8369 61.7901C25.8121 61.754 25.7626 61.7451 25.7267 61.7702L25.7227 61.7731C25.7038 61.7863 25.6803 61.7911 25.6578 61.7864C21.4596 60.9052 18.2866 56.3185 18.2866 50.8931C18.2865 45.1012 21.9112 40.2656 26.5383 39.8834Z" fill="#231F20"/>
<path d="M38.7933 64.158C39.2897 64.308 39.692 64.7287 39.692 65.2473V67C39.692 67.5523 40.1397 68 40.692 68H40.9637C41.5159 68 41.9637 67.5523 41.9637 67V65.3695C41.9637 64.8172 42.4114 64.3695 42.9637 64.3695H44.8066C45.3589 64.3695 45.8066 64.8172 45.8066 65.3695V67C45.8066 67.5523 46.2543 68 46.8066 68H47.0783C47.6305 68 48.0783 67.5523 48.0783 67V65.3695C48.0783 64.8172 48.526 64.3695 49.0783 64.3695H50.9217C51.474 64.3695 51.9217 64.8172 51.9217 65.3695V67C51.9217 67.5523 52.3695 68 52.9217 68H53.1934C53.7457 68 54.1934 67.5523 54.1934 67V65.3695C54.1934 64.8172 54.6411 64.3695 55.1934 64.3695H57.0363C57.5886 64.3695 58.0363 64.8172 58.0363 65.3695V67C58.0363 67.5523 58.4841 68 59.0363 68H59.308C59.8603 68 60.308 67.5523 60.308 67V65.2473C60.308 64.7287 60.7103 64.308 61.2067 64.158C62.62 63.7308 63.7308 62.62 64.158 61.2067C64.308 60.7103 64.7287 60.308 65.2473 60.308H67C67.5523 60.308 68 59.8603 68 59.308V59.0363C68 58.4841 67.5523 58.0363 67 58.0363H65.3695C64.8172 58.0363 64.3695 57.5886 64.3695 57.0363V55.1934C64.3695 54.6411 64.8172 54.1934 65.3695 54.1934H67C67.5523 54.1934 68 53.7457 68 53.1934V52.9217C68 52.3695 67.5523 51.9217 67 51.9217H65.3695C64.8172 51.9217 64.3695 51.474 64.3695 50.9217V49.0783C64.3695 48.526 64.8172 48.0783 65.3695 48.0783H67C67.5523 48.0783 68 47.6305 68 47.0783V46.8066C68 46.2543 67.5523 45.8066 67 45.8066H65.3695C64.8172 45.8066 64.3695 45.3588 64.3695 44.8066V42.9637C64.3695 42.4114 64.8172 41.9637 65.3695 41.9637H67C67.5523 41.9637 68 41.5159 68 40.9637V40.692C68 40.1397 67.5523 39.692 67 39.692H65.2473C64.7287 39.692 64.308 39.2897 64.158 38.7933C63.7308 37.38 62.62 36.2692 61.2067 35.842C60.7103 35.692 60.308 35.2713 60.308 34.7527V33C60.308 32.4477 59.8603 32 59.308 32H59.0363C58.4841 32 58.0363 32.4477 58.0363 33V34.6305C58.0363 35.1828 57.5886 35.6305 57.0363 35.6305H55.1934C54.6411 35.6305 54.1934 35.1828 54.1934 34.6305V33C54.1934 32.4477 53.7457 32 53.1934 32H52.9217C52.3695 32 51.9217 32.4477 51.9217 33V34.6305C51.9217 35.1828 51.474 35.6305 50.9217 35.6305H49.0783C48.526 35.6305 48.0783 35.1828 48.0783 34.6305V33C48.0783 32.4477 47.6305 32 47.0783 32H46.8066C46.2543 32 45.8066 32.4477 45.8066 33V34.6305C45.8066 35.1828 45.3588 35.6305 44.8066 35.6305H42.9637C42.4114 35.6305 41.9637 35.1828 41.9637 34.6305V33C41.9637 32.4477 41.5159 32 40.9637 32H40.692C40.1397 32 39.692 32.4477 39.692 33V34.7527C39.692 35.2713 39.2897 35.692 38.7933 35.842C37.38 36.2692 36.2692 37.38 35.842 38.7933C35.692 39.2897 35.2713 39.692 34.7527 39.692H33C32.4477 39.692 32 40.1397 32 40.692V40.9637C32 41.5159 32.4477 41.9637 33 41.9637H34.6305C35.1828 41.9637 35.6305 42.4114 35.6305 42.9637V44.8066C35.6305 45.3589 35.1828 45.8066 34.6305 45.8066H33C32.4477 45.8066 32 46.2543 32 46.8066V47.0783C32 47.6305 32.4477 48.0783 33 48.0783H34.6305C35.1828 48.0783 35.6305 48.526 35.6305 49.0783V50.9217C35.6305 51.474 35.1828 51.9217 34.6305 51.9217H33C32.4477 51.9217 32 52.3695 32 52.9217V53.1934C32 53.7457 32.4477 54.1934 33 54.1934H34.6305C35.1828 54.1934 35.6305 54.6411 35.6305 55.1934V57.0363C35.6305 57.5886 35.1828 58.0363 34.6305 58.0363H33C32.4477 58.0363 32 58.4841 32 59.0363V59.308C32 59.8603 32.4477 60.308 33 60.308H34.7527C35.2713 60.308 35.692 60.7103 35.842 61.2067C36.2692 62.6199 37.3801 63.7308 38.7933 64.158ZM37.9022 40.0752C37.9022 38.8772 38.8772 37.9022 40.0752 37.9022H59.9248C61.1228 37.9022 62.0978 38.8772 62.0978 40.0752V59.9248C62.0978 61.1228 61.1228 62.0978 59.9248 62.0978H40.0752C38.8772 62.0978 37.9022 61.1228 37.9022 59.9248V40.0752Z" fill="#00CCF5"/>
<path d="M41.1406 60H58.8594C59.4892 60 60 59.4892 60 58.8594V41.1406C60 40.5108 59.4892 40 58.8594 40H41.1406C40.5108 40 40 40.5108 40 41.1406V58.8594C40 59.4892 40.5108 60 41.1406 60ZM42.2813 42.2813H57.7187V57.7187H42.2813V42.2813Z" fill="#00CCF5"/>
<path d="M48.0959 45C47.667 45 47.2858 45.2736 47.1485 45.6799L44.4379 53.7037C44.2229 54.3403 44.6963 55 45.3683 55C45.7953 55 46.1734 54.724 46.3035 54.3174L46.5223 53.634C46.6548 53.2199 47.0398 52.9389 47.4747 52.9389H49.4938C49.9372 52.9389 50.3277 53.2309 50.453 53.6563L50.6375 54.2826C50.7628 54.7079 51.1586 55 51.6021 55C52.2848 55 52.7766 54.3309 52.5604 53.6833L49.8896 45.6833C49.7534 45.2752 49.3714 45 48.9411 45H48.0959ZM48.4862 51.2117C47.8831 51.2117 47.452 50.6284 47.6289 50.0519L48.4832 47.2686C48.4855 47.2612 48.4924 47.2561 48.5002 47.2561C48.508 47.2561 48.5149 47.2613 48.5171 47.2688L49.3458 50.0598C49.5165 50.6346 49.0858 51.2117 48.4862 51.2117Z" fill="#00CCF5"/>
<path d="M56 54V46C56 45.4477 55.5523 45 55 45C54.4477 45 54 45.4477 54 46V54C54 54.5523 54.4477 55 55 55C55.5523 55 56 54.5523 56 54Z" fill="#00CCF5"/>
</svg>
