<svg width="100" height="100" viewBox="0 0 100 100" fill="none" xmlns="http://www.w3.org/2000/svg">
<path d="M41.4673 64.1497V71.8038H51.3466V62.1738" stroke="#231F20" stroke-width="3" stroke-miterlimit="10" stroke-linecap="round" stroke-linejoin="round"/>
<path d="M51.7939 54.2475V38.2295H41.9146V46.9387V58.1609" stroke="#231F20" stroke-width="3" stroke-miterlimit="10" stroke-linecap="round" stroke-linejoin="round"/>
<path d="M50.897 62.0213V71.8185H60.5419V58.04" stroke="#231F20" stroke-width="3" stroke-miterlimit="10" stroke-linecap="round" stroke-linejoin="round"/>
<path d="M61.6733 48.7992V27.7744H51.7939V38.2293V54.2473" stroke="#231F20" stroke-width="3" stroke-miterlimit="10" stroke-linecap="round" stroke-linejoin="round"/>
<path d="M60.5161 58.7393V71.9998H70.0482V52.9355" stroke="#231F20" stroke-width="3" stroke-miterlimit="10" stroke-linecap="round" stroke-linejoin="round"/>
<path d="M71.5335 41.4523V18.2598H61.6733V27.7746V48.7995" stroke="#231F20" stroke-width="3" stroke-miterlimit="10" stroke-linecap="round" stroke-linejoin="round"/>
<path d="M31.9199 64.6603V71.9998H41.452V64.5859" stroke="#231F20" stroke-width="3" stroke-miterlimit="10" stroke-linecap="round" stroke-linejoin="round"/>
<path d="M41.9149 59.5386V48.3164H32.0547V54.7428V62.1859" stroke="#231F20" stroke-width="3" stroke-miterlimit="10" stroke-linecap="round" stroke-linejoin="round"/>
<path d="M32.0547 62.7273V55.2842H22.1753V71.705H32.0547V64.1276" stroke="#231F20" stroke-width="3" stroke-miterlimit="10" stroke-linecap="round" stroke-linejoin="round"/>
<path d="M24.7178 63.7218C24.7178 63.7218 55.3534 61.0745 77.5676 35.1004L73.7117 31.1679L90.2285 24.9717L87.2743 44.5577L82.8046 39.9154C82.8046 39.9154 59.2476 69.8604 24.7178 63.7218Z" stroke="#00CCF5" stroke-width="3" stroke-miterlimit="10" stroke-linecap="round" stroke-linejoin="round"/>
<path d="M21.9623 65.7858V60.7959H12.3174V71.8186H21.9623V66.7265" stroke="#231F20" stroke-width="3" stroke-miterlimit="10" stroke-linecap="round" stroke-linejoin="round"/>
</svg>
