<svg width="362" height="362" viewBox="0 0 362 362" fill="none" xmlns="http://www.w3.org/2000/svg">
<path d="M234.211 354.866C234.02 354.866 233.828 354.815 233.654 354.714L96.8395 275.757C96.3112 275.453 96.1266 274.773 96.4342 274.237C96.7454 273.709 97.4221 273.528 97.954 273.832L234.211 352.471L250.346 343.12C250.864 342.816 251.559 342.99 251.866 343.526C252.174 344.054 251.993 344.734 251.461 345.045L234.769 354.714C234.595 354.815 234.403 354.866 234.211 354.866ZM284.321 220.827C284.133 220.827 283.941 220.776 283.764 220.675L211.465 178.946C211.121 178.75 210.911 178.381 210.911 177.983C210.911 177.585 211.121 177.223 211.465 177.021L272.756 141.45C273.27 141.139 273.965 141.32 274.276 141.855C274.584 142.384 274.403 143.064 273.871 143.375L214.24 177.983L284.879 218.75C285.41 219.054 285.591 219.734 285.284 220.27C285.078 220.624 284.705 220.827 284.321 220.827Z" fill="#3F386C"/>
<path d="M234.402 223.093C234.211 223.093 234.019 223.042 233.845 222.941L147.68 172.824C147.336 172.621 147.126 172.252 147.126 171.861C147.126 171.463 147.34 171.094 147.683 170.898L199.668 140.958L160.091 118.147C159.559 117.843 159.375 117.163 159.683 116.627C159.997 116.106 160.674 115.918 161.199 116.222L202.447 139.996C202.794 140.191 203.004 140.56 203.004 140.958C203.004 141.356 202.794 141.726 202.447 141.921L150.455 171.868L234.96 221.016C235.492 221.327 235.673 222.007 235.365 222.535C235.159 222.89 234.786 223.093 234.402 223.093ZM301.125 158.125C299.967 158.125 298.809 157.872 297.926 157.358L246.977 127.946C245.964 127.36 245.381 126.47 245.381 125.507C245.381 124.516 245.982 123.611 247.028 123.003L297.648 93.5841C299.392 92.5709 302.142 92.5709 303.901 93.5841L354.85 123.003C355.907 123.611 356.511 124.523 356.515 125.514C356.515 126.477 355.939 127.36 354.937 127.939L304.317 157.358C303.441 157.872 302.283 158.125 301.125 158.125ZM300.771 95.0388C300.032 95.0388 299.298 95.198 298.766 95.5092L248.142 124.928C247.773 125.138 247.607 125.377 247.607 125.507C247.607 125.623 247.755 125.826 248.091 126.021L299.041 155.433C300.108 156.048 302.131 156.048 303.199 155.433L353.822 126.014C354.148 125.826 354.289 125.63 354.289 125.514C354.289 125.384 354.119 125.145 353.739 124.928H353.736L302.786 95.5092C302.247 95.198 301.509 95.0388 300.771 95.0388ZM61.2285 295.175C60.0705 295.175 58.9162 294.921 58.0333 294.415L7.08016 264.996C6.06697 264.41 5.48799 263.519 5.48438 262.564C5.48438 261.58 6.08144 260.668 7.12721 260.053L57.751 230.641C59.4952 229.628 62.2453 229.628 64.0039 230.641L114.953 260.053C116.01 260.661 116.614 261.58 116.618 262.564C116.618 263.527 116.046 264.41 115.044 264.996L64.42 294.415C63.5407 294.921 62.3864 295.175 61.2285 295.175ZM60.8738 232.096C60.1357 232.096 59.4011 232.255 58.8691 232.566L8.24534 261.978C7.87625 262.195 7.7098 262.427 7.7098 262.557C7.7098 262.673 7.85816 262.875 8.19468 263.071L59.1442 292.49C60.2153 293.112 62.2417 293.112 63.3055 292.49L113.926 263.071C114.248 262.883 114.392 262.687 114.392 262.571C114.392 262.441 114.219 262.195 113.839 261.978L62.8894 232.566C62.3502 232.255 61.612 232.096 60.8738 232.096Z" fill="#3F386C"/>
<path d="M101.17 151.871C100.979 151.871 100.783 151.821 100.613 151.719L74.5702 136.579C74.2265 136.377 74.0166 136.015 74.0166 135.617C74.0166 135.219 74.2265 134.85 74.5702 134.654L200.29 62.0729C200.638 61.8702 201.065 61.8702 201.405 62.0729L227.448 77.2057C227.791 77.4084 228.001 77.7702 228.001 78.1683C228.001 78.5663 227.791 78.9354 227.448 79.1308L101.728 151.719C101.554 151.821 101.362 151.871 101.17 151.871ZM77.3457 135.617L101.174 149.469L224.672 78.1683L200.848 64.3236L77.3457 135.617Z" fill="#3F386C"/>
<path d="M101.985 134.949L91.8755 129.075C89.3224 127.591 87.2378 124.188 87.2227 118.864C87.2019 111.495 90.9692 102.915 96.4416 96.8613L106.667 102.919C101.195 108.973 97.4272 117.553 97.4481 124.922C97.4623 129.937 99.123 133.286 101.985 134.949Z" fill="#D7D4E8"/>
<path d="M173.254 37.2416L192.224 48.266C188.95 46.3629 184.59 46.3413 179.755 48.5475L160.784 37.5232C165.62 35.3169 169.979 35.3385 173.254 37.2416Z" fill="#CDCADD"/>
<path d="M173.302 28.3852C169.04 25.9179 163.118 26.232 156.569 30.0001C146.655 35.7423 138.131 47.8993 134.766 60.0116L124.512 54.044C127.876 41.932 136.4 29.8196 146.314 24.0774C152.863 20.3093 158.785 19.9503 163.047 22.4176L173.302 28.3852Z" fill="#D7D4E8"/>
<path d="M106.667 102.843L96.4176 96.887C96.1841 95.4724 96.0078 93.9919 96.003 92.3133C95.9661 79.2804 105.187 63.3417 116.529 56.7933C119.365 55.1562 122.088 54.2435 124.526 54.0557L134.775 60.012C132.337 60.1998 129.614 61.1125 126.779 62.7496C115.437 69.298 106.215 85.2366 106.252 98.2696C106.257 99.9481 106.433 101.429 106.667 102.843Z" fill="#CDCADD"/>
<path d="M156.58 30.0172C169.554 22.5263 180.1 28.536 180.142 43.4449C180.147 45.0904 180.037 46.7693 179.755 48.5473C190.098 43.8284 198.261 49.3017 198.296 61.5776C198.333 74.7423 189.055 90.78 177.627 97.378L113.527 134.386C104.619 139.529 97.3494 135.386 97.3204 125.15C97.2992 117.68 101.119 108.98 106.667 102.843C106.433 101.429 106.257 99.9479 106.252 98.2694C106.215 85.2365 115.437 69.2978 126.779 62.7494C129.614 61.1123 132.337 60.1996 134.775 60.0117C138.126 47.8908 146.641 35.7553 156.58 30.0172Z" fill="#E6E4F4"/>
<path d="M252.914 34.957L253.195 123.41C253.195 123.877 253.475 124.344 254.036 124.718L298.635 150.618C299.851 151.366 302.001 151.366 303.217 150.618L348.097 124.718C348.658 124.344 349.032 123.877 349.032 123.41L348.751 34.957C348.751 35.425 348.377 35.8929 347.816 36.1726L302.937 62.0721C301.721 62.8197 299.571 62.8197 298.355 62.0721L253.756 36.1726C253.195 35.8929 252.914 35.425 252.914 34.957Z" fill="#555266"/>
<path d="M253.865 33.5605C252.611 34.2842 252.545 35.4903 253.79 36.214L298.331 62.0982C299.576 62.8219 301.719 62.8223 302.972 62.0986L347.804 36.2149C349.058 35.4911 349.004 34.2843 347.759 33.5607L303.219 7.67641C301.973 6.95275 299.95 6.95297 298.697 7.67674L253.865 33.5605Z" fill="#5E5B71"/>
<path d="M309.904 63.1635C308.814 63.7928 308.009 65.2328 308.013 66.4388C308.016 67.6907 308.826 68.1991 309.916 67.5699C311.006 66.9407 311.811 65.5001 311.807 64.2481C311.804 63.0421 310.994 62.5343 309.904 63.1635ZM316.726 59.2249C315.636 59.8542 314.791 61.3175 314.794 62.5235C314.798 63.7754 315.648 64.2605 316.738 63.6313C317.788 63.0254 318.633 61.5614 318.629 60.3094C318.626 59.1034 317.775 58.619 316.726 59.2249Z" fill="#7560F9"/>
<path d="M308.029 72.0051L308.038 75.2988L346.105 53.3182L346.097 50.0273L308.029 72.0051Z" fill="#7560F9"/>
<path d="M309.904 85.058C308.814 85.6873 308.009 87.1273 308.013 88.3333C308.016 89.5852 308.826 90.0937 309.916 89.4644C311.006 88.8352 311.811 87.3946 311.807 86.1427C311.804 84.9366 310.994 84.4288 309.904 85.058ZM316.726 81.1194C315.636 81.7487 314.791 83.212 314.794 84.418C314.798 85.67 315.648 86.1551 316.738 85.5258C317.788 84.9199 318.633 83.4559 318.629 82.204C318.626 80.998 317.775 80.5136 316.726 81.1194Z" fill="#8774FD"/>
<path d="M308.029 93.9005L308.038 97.1914L346.105 75.2136L346.097 71.9199L308.029 93.9005Z" fill="#8774FD"/>
<path d="M309.904 106.954C308.814 107.583 308.009 109.023 308.013 110.229C308.016 111.481 308.826 111.989 309.916 111.36C311.006 110.731 311.811 109.29 311.807 108.038C311.804 106.832 310.994 106.324 309.904 106.954ZM316.726 103.015C315.636 103.644 314.791 105.108 314.794 106.314C314.798 107.565 315.648 108.051 316.738 107.421C317.788 106.815 318.633 105.351 318.629 104.099C318.626 102.893 317.775 102.409 316.726 103.015Z" fill="#8175CA"/>
<path d="M308.029 115.793L308.038 119.087L346.105 97.1091L346.097 93.8154L308.029 115.793Z" fill="#8175CA"/>
<path d="M309.904 128.848C308.814 129.477 308.009 130.917 308.013 132.123C308.016 133.375 308.826 133.884 309.916 133.254C311.006 132.625 311.811 131.185 311.807 129.933C311.804 128.727 310.994 128.219 309.904 128.848ZM316.726 124.909C315.636 125.539 314.791 127.002 314.794 128.208C314.798 129.46 315.648 129.945 316.738 129.316C317.788 128.71 318.633 127.246 318.629 125.994C318.626 124.788 317.775 124.304 316.726 124.909Z" fill="#624AF9"/>
<path d="M308.029 137.689L308.038 140.982L346.105 119.005L346.097 115.711L308.029 137.689Z" fill="#624AF9"/>
<path d="M257.574 108.609C257.574 109.804 258.418 111.28 259.473 111.914L273.886 120.21C274.941 120.773 275.784 120.351 275.784 119.155L275.855 85.7585C275.855 84.4925 275.011 83.0867 274.027 82.5246L259.613 74.1574C258.559 73.5953 257.715 74.0167 257.715 75.2826L257.574 108.609Z" fill="#D7D4E8"/>
<path d="M268.081 30.2168V33.2192C268.081 33.5939 268.306 33.9696 268.757 34.1949L304.183 54.7599C305.083 55.361 306.659 55.2858 307.635 54.7599L334.205 39.3733C334.73 39.1479 334.955 38.7732 334.955 38.3985V35.32C334.955 35.6957 334.73 36.0713 334.205 36.3718L307.635 51.6824C306.659 52.2074 305.083 52.2825 304.107 51.6824L268.757 31.1925C268.306 30.893 268.081 30.5173 268.081 30.2168Z" fill="#CDCADD"/>
<path d="M268.825 29.1412C267.866 29.6946 267.813 30.6073 268.766 31.1608L304.139 51.7175C305.091 52.2707 306.667 52.2432 307.626 51.6898L334.221 36.3348C335.18 35.7815 335.185 34.896 334.233 34.3428L298.86 13.7861C297.907 13.2326 296.379 13.2329 295.421 13.7862L268.825 29.1412Z" fill="#D7D4E8"/>
<path d="M277.391 32.0563L278.907 32.9394L301.754 19.7456L300.238 18.8652L277.391 32.0563Z" fill="#554C91"/>
<path d="M281.984 34.7272L283.501 35.6075L306.348 22.4165L304.832 21.5361L281.984 34.7272Z" fill="#554C91"/>
<path d="M272.841 29.4127L274.357 30.2958L297.205 17.1047L295.691 16.2217L272.841 29.4127Z" fill="#554C91"/>
<path d="M286.578 37.3961L288.048 38.2518L310.898 25.0607L309.425 24.2051L286.578 37.3961Z" fill="#554C91"/>
<path d="M291.146 40.0534L292.619 40.909L315.469 27.7152L313.996 26.8623L291.146 40.0534Z" fill="#554C91"/>
<path d="M295.718 42.7104L297.19 43.5633L320.04 30.3722L318.568 29.5166L295.718 42.7104Z" fill="#554C91"/>
<path d="M300.29 45.3659L301.763 46.2215L324.61 33.0304L323.14 32.1748L300.29 45.3659Z" fill="#554C91"/>
<path d="M304.861 48.0231L306.334 48.8787L329.181 35.6849L327.711 34.832L304.861 48.0231Z" fill="#554C91"/>
<path d="M13.249 172.832L13.5298 261.285C13.5298 261.752 13.81 262.219 14.371 262.593L58.9704 288.493C60.186 289.241 62.3363 289.241 63.5518 288.493L108.431 262.593C108.993 262.219 109.367 261.752 109.367 261.285L109.086 172.832C109.086 173.3 108.712 173.768 108.151 174.048L63.2716 199.947C62.0561 200.695 59.9058 200.695 58.6902 199.947L14.0908 174.048C13.5298 173.768 13.249 173.3 13.249 172.832Z" fill="#7764F0"/>
<path d="M14.1999 171.436C12.9463 172.16 12.8797 173.366 14.125 174.09L58.6657 199.974C59.911 200.698 62.0537 200.698 63.3073 199.975L108.139 174.091C109.393 173.367 109.339 172.16 108.094 171.437L63.5535 145.552C62.3082 144.829 60.2854 144.829 59.0318 145.553L14.1999 171.436Z" fill="#8774FD"/>
<path d="M70.2387 201.039C69.1488 201.669 68.3443 203.109 68.3477 204.315C68.3512 205.567 69.1613 206.075 70.2512 205.446C71.341 204.817 72.1455 203.376 72.142 202.124C72.1386 200.918 71.3285 200.41 70.2387 201.039ZM77.0606 197.101C75.9706 197.73 75.1257 199.193 75.1291 200.399C75.1327 201.651 75.9831 202.137 77.0731 201.507C78.1225 200.901 78.9675 199.437 78.964 198.185C78.9606 196.979 78.11 196.495 77.0606 197.101Z" fill="#7560F9"/>
<path d="M68.3633 209.88L68.3715 213.174L106.439 191.196L106.431 187.902L68.3633 209.88Z" fill="#7560F9"/>
<path d="M70.2387 222.934C69.1488 223.563 68.3443 225.003 68.3477 226.209C68.3512 227.461 69.1613 227.97 70.2512 227.34C71.341 226.711 72.1455 225.271 72.142 224.019C72.1386 222.813 71.3285 222.305 70.2387 222.934ZM77.0606 218.995C75.9706 219.625 75.1257 221.088 75.1291 222.294C75.1327 223.546 75.9831 224.031 77.0731 223.402C78.1225 222.796 78.9675 221.332 78.964 220.08C78.9606 218.874 78.11 218.39 77.0606 218.995Z" fill="#D7D4E8"/>
<path d="M68.3633 231.776L68.3715 235.069L106.439 213.089L106.431 209.798L68.3633 231.776Z" fill="#D7D4E8"/>
<path d="M70.2387 244.83C69.1488 245.459 68.3443 246.899 68.3477 248.105C68.3512 249.357 69.1613 249.865 70.2512 249.236C71.341 248.607 72.1455 247.166 72.142 245.914C72.1386 244.708 71.3285 244.2 70.2387 244.83ZM77.0606 240.891C75.9706 241.52 75.1257 242.983 75.1291 244.19C75.1327 245.441 75.9831 245.927 77.0731 245.297C78.1225 244.691 78.9675 243.227 78.964 241.975C78.9606 240.769 78.11 240.285 77.0606 240.891Z" fill="#8175CA"/>
<path d="M68.3633 253.672L68.3715 256.963L106.439 234.985L106.431 231.691L68.3633 253.672Z" fill="#8175CA"/>
<path d="M70.2387 266.725C69.1488 267.354 68.3443 268.794 68.3477 270C68.3512 271.252 69.1613 271.761 70.2512 271.131C71.341 270.502 72.1455 269.062 72.142 267.81C72.1386 266.604 71.3285 266.096 70.2387 266.725ZM77.0606 262.786C75.9706 263.416 75.1257 264.879 75.1291 266.085C75.1327 267.337 75.9831 267.822 77.0731 267.193C78.1225 266.587 78.9675 265.123 78.964 263.871C78.9606 262.665 78.11 262.181 77.0606 262.786Z" fill="#624AF9"/>
<path d="M68.3633 275.565L68.3715 278.858L106.439 256.881L106.431 253.587L68.3633 275.565Z" fill="#624AF9"/>
<path d="M17.9092 246.485C17.9092 247.68 18.7528 249.156 19.8076 249.79L34.2208 258.086C35.2756 258.649 36.1193 258.227 36.1193 257.031L36.1896 223.634C36.1896 222.369 35.346 220.963 34.3615 220.401L19.9484 212.033C18.8936 211.471 18.0499 211.893 18.0499 213.159L17.9092 246.485Z" fill="#D7D4E8"/>
<path d="M28.416 168.093V171.095C28.416 171.47 28.6409 171.846 29.0917 172.071L64.5175 192.636C65.4181 193.237 66.9944 193.162 67.9702 192.636L94.5395 177.249C95.0649 177.024 95.2899 176.649 95.2899 176.274V173.196C95.2899 173.572 95.0649 173.947 94.5395 174.248L67.9702 189.558C66.9944 190.083 65.4181 190.159 64.4424 189.558L29.0917 169.069C28.6409 168.769 28.416 168.393 28.416 168.093Z" fill="#CDCADD"/>
<path d="M29.16 167.017C28.2015 167.571 28.1482 168.483 29.1007 169.037L64.474 189.593C65.4258 190.147 67.0023 190.119 67.9608 189.566L94.5564 174.211C95.5148 173.657 95.5196 172.772 94.5678 172.219L59.1945 151.662C58.2421 151.109 56.714 151.109 55.7556 151.662L29.16 167.017Z" fill="#D7D4E8"/>
<path d="M37.7246 169.934L39.2412 170.814L62.0911 157.623L60.5745 156.74L37.7246 169.934Z" fill="#49417D"/>
<path d="M42.3184 172.602L43.8349 173.483L66.6848 160.291L65.1682 159.411L42.3184 172.602Z" fill="#49417D"/>
<path d="M33.1748 167.29L34.6914 168.171L57.5412 154.98L56.0247 154.097L33.1748 167.29Z" fill="#49417D"/>
<path d="M46.9111 175.271L48.3838 176.127L71.231 162.936L69.761 162.08L46.9111 175.271Z" fill="#49417D"/>
<path d="M51.4834 177.928L52.9533 178.784L75.8032 165.593L74.3305 164.737L51.4834 177.928Z" fill="#49417D"/>
<path d="M56.0547 180.585L57.5246 181.441L80.3745 168.247L78.9018 167.392L56.0547 180.585Z" fill="#49417D"/>
<path d="M60.627 183.241L62.0969 184.096L84.9468 170.905L83.4741 170.05L60.627 183.241Z" fill="#49417D"/>
<path d="M65.1953 185.898L66.668 186.754L89.5179 173.563L88.0452 172.707L65.1953 185.898Z" fill="#49417D"/>
<path d="M241.923 337.834L241.937 342.592L260.113 353.156L260.1 348.398L241.923 337.834Z" fill="#555266"/>
<path d="M260.1 348.397L260.113 353.155L326.886 314.602L326.872 309.847L260.1 348.397Z" fill="#494759"/>
<path d="M241.923 337.833L260.1 348.397L326.872 309.847L308.695 299.283L241.923 337.833Z" fill="#5E5B71"/>
<path d="M344.954 162.239C343.746 161.585 341.68 161.643 339.767 162.801L224.951 229.086C221.074 231.301 217.903 236.788 217.903 241.218L218.155 324.937V332.941C218.205 335.156 218.96 336.717 220.218 337.422L218.155 336.213L214.088 333.919C212.779 333.114 212.024 331.553 212.024 329.338L211.974 321.384L211.772 237.615C211.772 233.185 214.944 227.748 218.77 225.483L333.751 159.132C335.714 158.024 337.476 157.873 338.735 158.628L344.954 162.239Z" fill="#BDBACE"/>
<path d="M347.055 250.449L218.155 324.936L217.903 241.218C217.903 236.788 221.075 231.351 224.951 229.085L339.932 162.735C343.808 160.469 346.98 162.281 346.98 166.712L347.055 250.449Z" fill="#413F4F"/>
<path d="M342.443 246.6L222.73 315.765L222.5 241.209C222.5 238.444 224.804 234.481 227.292 233.053L342.351 166.653L342.443 246.6Z" fill="white"/>
<path d="M266.757 335.739L262.764 333.418C268.506 322.219 271.43 314.007 271.187 304.931L275.181 307.252C275.424 316.328 272.5 324.54 266.757 335.739Z" fill="#CDCADD"/>
<path d="M275.179 307.25L271.187 304.93L290.77 293.623L294.766 295.943L275.179 307.25Z" fill="#D2CFE7"/>
<path d="M294.765 295.943C294.598 305.256 297.535 310.084 303.322 314.627L266.757 335.738C272.499 324.539 275.423 316.327 275.18 307.251L294.765 295.943Z" fill="#BDBACE"/>
<path d="M347.054 250.449L347.077 258.435C347.09 262.902 343.952 268.335 340.066 270.58L225.236 336.877C221.328 339.133 218.17 337.333 218.157 332.867L218.135 324.881L347.054 250.449Z" fill="#E6E4F4"/>
<path d="M285.399 293.66C285.399 295.605 284.037 297.89 282.384 298.863C280.73 299.835 279.369 299.057 279.369 297.161C279.369 295.216 280.682 292.882 282.384 291.909C284.037 290.985 285.399 291.763 285.399 293.66Z" fill="#BDBACE"/>
<path d="M324.158 200.21C339.651 191.236 337.729 237.936 337.628 240.394L231.212 301.833C231.154 301.027 230.054 285.705 234.23 280.182C235.786 278.104 237.679 276.217 239.49 275.172C240.689 274.479 241.852 274.156 242.858 274.39C243.935 274.664 244.827 275.385 246.014 275.254C246.282 275.216 246.555 275.132 246.83 275.017C246.997 274.964 247.163 274.879 247.335 274.78C247.506 274.681 247.682 274.568 247.867 274.44C249.454 273.28 250.973 271.148 251.821 269.002C255.109 260.394 258.684 255.658 262.053 253.183L263.09 252.52C263.183 252.429 263.276 252.373 263.369 252.32C267.591 249.882 271.375 250.786 273.699 251.682C275.073 252.295 276.338 253.398 278.191 252.755C278.549 252.607 278.722 252.526 278.895 252.427C280.724 251.37 282.474 248.814 283.553 246.377C284.806 243.564 285.392 240.838 286.534 238.047C287.936 234.605 290.123 231.304 292.629 228.726L293.665 227.748C294.329 227.111 295.011 226.555 295.701 226.062C296.132 225.758 296.567 225.48 297.001 225.23C300.294 223.328 303.605 222.96 305.936 224.288C306.63 224.684 307.244 225.22 307.906 225.66C308.27 225.898 308.595 226.083 308.946 226.216C309.86 226.629 311.066 226.688 312.292 225.98C312.512 225.853 312.732 225.702 312.951 225.524C314.987 223.837 316.091 220.684 316.714 218.065C318.108 212.358 318.198 204.93 322.492 201.385C322.714 201.204 322.933 201.036 323.149 200.876L324.158 200.21Z" fill="#A198D8"/>
<path d="M123.549 100.117L123.579 110.87L119.674 113.125L119.644 102.371L123.549 100.117Z" fill="#7560F9"/>
<path d="M132.818 92.7979L132.857 105.514L128.949 107.769L128.913 95.0521L132.818 92.7979Z" fill="#8774FD"/>
<path d="M160.586 68.3848L160.643 89.4713L156.779 91.7036L156.719 70.6171L160.586 68.3848Z" fill="#8175CA"/>
<path d="M179.113 49.2129L179.198 78.7598L175.331 80.9921L175.249 51.4452L179.113 49.2129Z" fill="#5E5B71"/>
<path d="M151.316 77.0156L151.368 94.8277L147.502 97.0573L147.452 79.2452L151.316 77.0156Z" fill="#CDCADD"/>
<path d="M142.091 85.1055L142.132 100.159L138.226 102.413L138.183 87.3597L142.091 85.1055Z" fill="#5941EF"/>
<path d="M168.398 50.3428L168.445 50.4936L168.705 51.4343L119.786 95.8259L119.457 94.7536L168.398 50.3428Z" fill="#BDBACE"/>
<path d="M136.085 66.8534C137.387 66.1018 138.326 66.6832 138.33 67.992C138.334 69.3484 137.401 71.1505 136.099 71.9022C134.919 72.5834 133.939 71.8853 133.936 70.529C133.932 69.2202 134.905 67.5347 136.085 66.8534Z" fill="#8774FD"/>
<path d="M128.965 70.9648C130.267 70.2131 131.206 70.7946 131.209 72.1034C131.213 73.4597 130.281 75.2618 128.979 76.0135C127.799 76.6947 126.819 75.9966 126.815 74.6402C126.812 73.3315 127.785 71.6459 128.965 70.9648Z" fill="#7560F9"/>
<path d="M121.845 75.0752C123.147 74.3234 124.086 74.9049 124.089 76.2137C124.093 77.57 123.161 79.3722 121.859 80.1239C120.679 80.8051 119.699 80.107 119.695 78.7506C119.692 77.4419 120.665 75.7564 121.845 75.0752Z" fill="#554C91"/>
<path d="M114.521 78.2637L114.639 119.685L179.206 82.4075L179.212 83.7156L174.042 86.6994L174.048 88.4298L172.91 89.0853L172.904 87.3576L167.208 90.6457L167.214 92.3762L166.073 93.0316L166.07 91.3039L160.333 94.614L160.338 96.3445L159.198 97.0027L159.192 95.2722L153.496 98.5604L153.502 100.291L152.363 100.949L152.358 99.2185L146.662 102.507L146.667 104.237L145.568 104.871L145.562 103.143L139.787 106.478L139.792 108.208L138.692 108.842L138.687 107.111L132.991 110.399L132.996 112.13L131.858 112.788L131.853 111.058L126.157 114.346L126.162 116.076L125.021 116.734L125.016 115.004L119.282 118.317L119.284 120.047L118.146 120.703L118.141 118.975L113.503 121.652L113.487 116.323L111.943 117.214L111.937 115.953L113.484 115.059L113.465 108.515L111.921 109.407L111.915 108.099L113.462 107.204L113.443 100.661L111.896 101.552L111.893 100.244L113.44 99.3529L113.421 92.7601L111.874 93.6514L111.872 92.3433L113.418 91.452L113.399 84.9058L111.852 85.7971L111.85 84.489L113.396 83.5949L113.383 78.9219L114.521 78.2637Z" fill="#5E5B71"/>
<path d="M143.204 62.7431C144.506 61.9914 145.445 62.5729 145.449 63.8817C145.453 65.238 144.52 67.0402 143.218 67.7918C142.039 68.473 141.059 67.7749 141.055 66.4186C141.051 65.1098 142.024 63.4243 143.204 62.7431Z" fill="#A198D8"/>
<path d="M169.849 59.1514L169.921 84.1157L166.057 86.348L165.985 61.381L169.849 59.1514Z" fill="#554C91"/>
<path d="M167.863 48.4037L172.83 47.0791L169.221 53.2852L168.705 51.4341L168.445 50.4934L167.863 48.4037Z" fill="#BDBACE"/>
<path d="M235.064 237.244L235.141 264.411L230.907 266.854L230.83 239.688L235.064 237.244Z" fill="#5F48F3"/>
<path d="M244.183 238.906L244.24 259.156L239.978 261.619L239.921 241.366L244.183 238.906Z" fill="#8774FD"/>
<path d="M253.235 226.752L253.312 253.921L249.078 256.365L249.001 229.195L253.235 226.752Z" fill="#554C91"/>
<path d="M262.355 228.413L262.412 248.666L258.15 251.126L258.093 230.873L262.355 228.413Z" fill="#8175CA"/>
<path d="M271.407 216.262L271.484 243.428L267.252 245.872L267.173 218.705L271.407 216.262Z" fill="#624AF9"/>
<path d="M280.534 220.205L280.583 238.173L276.352 240.617L276.3 222.649L280.534 220.205Z" fill="#BDBACE"/>
</svg>
