<svg width="100" height="100" viewBox="0 0 100 100" fill="none" xmlns="http://www.w3.org/2000/svg">
<path d="M90 47.1081C90 45.3924 88.5813 44 86.8333 44H72.9C71.152 44 69.7333 45.3924 69.7333 47.1081V49.5946C69.7333 49.7548 69.7462 49.9117 69.7708 50.0647C69.9151 50.9611 69.9178 51.9592 69.7714 52.8552C69.7464 53.0079 69.7333 53.1645 69.7333 53.3243V55.8108C69.7333 55.971 69.7462 56.1279 69.7708 56.2809C69.9151 57.1773 69.9178 58.1754 69.7714 59.0714C69.7464 59.2241 69.7333 59.3807 69.7333 59.5405V62.027C69.7333 62.357 69.4432 62.6502 69.1132 62.6487C69.1088 62.6487 69.1044 62.6486 69.1 62.6486H55.1667C53.4187 62.6486 52 64.0411 52 65.7568V68.2432C52 68.4034 52.0128 68.5603 52.0375 68.7134C52.1817 69.6097 52.1845 70.6078 52.0381 71.5038C52.0131 71.6566 52 71.8132 52 71.973V74.4595C52 74.6196 52.0128 74.7766 52.0375 74.9296C52.1817 75.8259 52.1845 76.8241 52.0381 77.72C52.0131 77.8728 52 78.0294 52 78.1892V80.6757C52 80.8358 52.0128 80.9928 52.0375 81.1458C52.1817 82.0422 52.1845 83.0403 52.0381 83.9363C52.0131 84.089 52 84.2456 52 84.4054V86.8919C52 88.6076 53.4187 90 55.1667 90H69.1C69.2892 90 69.4741 89.983 69.6534 89.9508C70.5207 89.7946 71.4807 89.7916 72.3476 89.95C72.5266 89.9827 72.7111 90 72.9 90H86.8333C88.5813 90 90 88.6076 90 86.8919V84.4054C90 84.2452 89.9872 84.0883 89.9625 83.9353C89.8183 83.0389 89.8155 82.0408 89.9619 81.1448C89.9869 80.9921 90 80.8355 90 80.6757V78.1892C90 78.029 89.9872 77.8721 89.9625 77.7191C89.8183 76.8227 89.8155 75.8246 89.9619 74.9286C89.9869 74.7759 90 74.6193 90 74.4595V71.973C90 71.8128 89.9872 71.6559 89.9625 71.5028C89.8183 70.6065 89.8155 69.6084 89.9619 68.7124C89.9869 68.5597 90 68.4031 90 68.2432V65.7568C90 65.5966 89.9872 65.4397 89.9625 65.2866C89.8183 64.3903 89.8155 63.3922 89.9619 62.4962C89.9869 62.3434 90 62.1868 90 62.027V59.5405C90 59.3804 89.9872 59.2234 89.9625 59.0704C89.8183 58.1741 89.8155 57.1759 89.9619 56.28C89.9869 56.1272 90 55.9706 90 55.8108V53.3243C90 53.1642 89.9872 53.0072 89.9625 52.8542C89.8183 51.9578 89.8155 50.9597 89.9619 50.0637C89.9869 49.911 90 49.7544 90 49.5946V47.1081ZM72.2667 47.1081C72.2667 46.7724 72.558 46.4865 72.9 46.4865H86.8333C87.1753 46.4865 87.4667 46.7724 87.4667 47.1081V49.5946C87.4667 49.9303 87.1753 50.2162 86.8333 50.2162H72.9C72.558 50.2162 72.2667 49.9303 72.2667 49.5946V47.1081ZM87.4667 53.3243V55.8108C87.4667 56.1465 87.1753 56.4324 86.8333 56.4324H72.9C72.558 56.4324 72.2667 56.1465 72.2667 55.8108V53.3243C72.2667 52.9886 72.558 52.7027 72.9 52.7027H86.8333C87.1753 52.7027 87.4667 52.9886 87.4667 53.3243ZM87.4667 59.5405V62.027C87.4667 62.3627 87.1753 62.6486 86.8333 62.6486H72.9C72.558 62.6486 72.2667 62.3627 72.2667 62.027V59.5405C72.2667 59.2049 72.558 58.9189 72.9 58.9189H86.8333C87.1753 58.9189 87.4667 59.2049 87.4667 59.5405ZM87.4667 65.7568V68.2432C87.4667 68.5789 87.1753 68.8649 86.8333 68.8649H72.9C72.558 68.8649 72.2667 68.5789 72.2667 68.2432V65.7568C72.2667 65.4211 72.558 65.1351 72.9 65.1351H86.8333C87.1753 65.1351 87.4667 65.4211 87.4667 65.7568ZM87.4667 71.973V74.4595C87.4667 74.7951 87.1753 75.0811 86.8333 75.0811H72.9C72.558 75.0811 72.2667 74.7951 72.2667 74.4595V71.973C72.2667 71.6373 72.558 71.3514 72.9 71.3514H86.8333C87.1753 71.3514 87.4667 71.6373 87.4667 71.973ZM87.4667 78.1892V80.6757C87.4667 81.0113 87.1753 81.2973 86.8333 81.2973H72.9C72.558 81.2973 72.2667 81.0113 72.2667 80.6757V78.1892C72.2667 77.8535 72.558 77.5676 72.9 77.5676H86.8333C87.1753 77.5676 87.4667 77.8535 87.4667 78.1892ZM54.5333 80.6757V78.1892C54.5333 77.8535 54.8247 77.5676 55.1667 77.5676H69.1C69.442 77.5676 69.7333 77.8535 69.7333 78.1892V80.6757C69.7333 81.0113 69.442 81.2973 69.1 81.2973H55.1667C54.8247 81.2973 54.5333 81.0113 54.5333 80.6757ZM54.5333 74.4595V71.973C54.5333 71.6373 54.8247 71.3514 55.1667 71.3514H69.1C69.442 71.3514 69.7333 71.6373 69.7333 71.973V74.4595C69.7333 74.7951 69.442 75.0811 69.1 75.0811H55.1667C54.8247 75.0811 54.5333 74.7951 54.5333 74.4595ZM54.5333 65.7568C54.5333 65.4211 54.8247 65.1351 55.1667 65.1351H69.1C69.442 65.1351 69.7333 65.4211 69.7333 65.7568V68.2432C69.7333 68.5789 69.442 68.8649 69.1 68.8649H55.1667C54.8247 68.8649 54.5333 68.5789 54.5333 68.2432V65.7568ZM69.1 87.5135H55.1667C54.8247 87.5135 54.5333 87.2276 54.5333 86.8919V84.4054C54.5333 84.0697 54.8247 83.7838 55.1667 83.7838H69.1C69.442 83.7838 69.7333 84.0697 69.7333 84.4054V86.8919C69.7333 87.2276 69.442 87.5135 69.1 87.5135ZM87.4667 86.8919C87.4667 87.2276 87.1753 87.5135 86.8333 87.5135H72.9C72.558 87.5135 72.2667 87.2276 72.2667 86.8919V84.4054C72.2667 84.0697 72.558 83.7838 72.9 83.7838H86.8333C87.1753 83.7838 87.4667 84.0697 87.4667 84.4054V86.8919Z" fill="black"/>
<path d="M50.1948 29.5322C50.1948 29.5332 50.1961 29.5335 50.1965 29.5325L54.8823 17.0495C55.5573 15.6182 55.0886 13.8994 53.7885 13.0244L51.9385 11.7869C50.2448 10.6681 48.2885 10.0556 46.2822 9.99938C44.5447 9.95563 42.8009 10.3494 41.2384 11.1244C40.4697 11.5119 39.5384 11.5056 38.7509 11.1119C37.0634 10.2869 35.1884 9.90563 33.3258 10.0181C31.4633 10.1369 29.6445 10.7431 28.0633 11.7932L26.2195 13.0244C24.9132 13.8994 24.4507 15.6182 25.1257 17.0495L29.16 27.7967C29.5283 28.7778 29.0723 29.8705 28.15 30.3679C19.2142 35.1863 13.7687 44.0826 13.7569 54.2124V67.6125C13.7569 70.3938 13.1381 73.1251 11.9694 75.5251C11.2381 77.0251 10.0068 79.8376 10.0068 81.8689C10.0068 82.6252 10.2818 83.9627 12.6756 86.9127C14.2631 88.869 16.6319 89.994 19.1819 89.994H50.0073C50.6976 89.994 51.2573 89.4343 51.2573 88.744C51.2573 88.0536 50.6976 87.494 50.0073 87.494H19.1757C17.3882 87.494 15.7256 86.7065 14.6131 85.3377C12.5256 82.7689 12.5069 81.9064 12.5069 81.8689C12.5069 80.7689 13.1444 78.8064 14.2131 76.6188C15.5506 73.8813 16.2569 70.7688 16.2569 67.6125V54.2124C16.2694 44.0997 22.257 35.3434 31.8758 31.3559C32.021 31.2954 32.1718 31.2434 32.3291 31.2434H47.679C47.8362 31.2434 47.9871 31.2954 48.1322 31.3559C57.7511 35.3434 63.7387 44.0997 63.7512 54.2124V56.2436C63.7512 56.934 64.3108 57.4936 65.0012 57.4936C65.6915 57.4936 66.2512 56.934 66.2512 56.2436V54.2061C66.2387 43.4627 60.1141 34.1067 50.196 29.5314C50.1954 29.5312 50.1948 29.5316 50.1948 29.5322ZM32.1883 28.7496C32.1846 28.7496 32.1812 28.7473 32.1799 28.7437L31.7258 27.5329C31.2662 26.3071 32.1723 24.9995 33.4815 24.9995H46.5266C47.8357 24.9995 48.7419 26.3071 48.2822 27.5329C48.0078 28.2648 47.3082 28.7496 46.5266 28.7496H32.1883ZM27.3945 16.0057C27.2383 15.6869 27.332 15.2932 27.607 15.1057L29.4445 13.8744C30.6571 13.0744 32.0508 12.6057 33.4821 12.5182C34.9071 12.4307 36.3446 12.7182 37.6384 13.3619C39.1259 14.0994 40.8884 14.1057 42.3572 13.3682C43.5572 12.7682 44.901 12.4682 46.2197 12.5057C47.7572 12.5432 49.2572 13.0182 50.5573 13.8744L52.401 15.1057C52.6823 15.2932 52.776 15.6869 52.6135 16.0057C52.5948 16.0432 52.576 16.0807 52.5635 16.1244L50.6565 21.2082C50.3637 21.9887 49.6175 22.5058 48.7839 22.5058H31.2241C30.3905 22.5058 29.6443 21.9887 29.3516 21.2082L27.4445 16.1244C27.432 16.0869 27.4133 16.0432 27.3945 16.0057Z" fill="black"/>
<path d="M45.6261 55.5185V54.2685C45.6261 52.148 44.2634 50.3143 42.2881 49.4427C41.378 49.0411 40.626 48.2297 40.626 47.2349V45.6309C40.626 44.9405 40.0664 44.3809 39.376 44.3809C38.6857 44.3809 38.126 44.9405 38.126 45.6309V47.529C38.126 48.4481 37.4792 49.2187 36.6692 49.6531C34.9235 50.5893 33.751 52.3076 33.751 54.2747V57.2122C33.751 57.656 33.9885 58.0685 34.3697 58.2935L42.1382 62.8514C42.7502 63.2105 43.1261 63.8669 43.1261 64.5764V65.3811C43.1261 66.9686 41.5823 68.2561 39.6885 68.2561C37.7948 68.2561 36.251 66.9686 36.251 65.3811C36.251 64.6907 35.6914 64.1311 35.001 64.1311C34.3106 64.1311 33.751 64.6907 33.751 65.3811C33.751 67.3481 34.9235 69.0665 36.6692 70.0027C37.4792 70.4371 38.126 71.2077 38.126 72.1268V73.1437C38.126 73.834 38.6857 74.3937 39.376 74.3937C40.0664 74.3937 40.626 73.834 40.626 73.1437V72.4083C40.626 71.4207 41.3722 70.615 42.2766 70.2182C44.2581 69.3487 45.6261 67.5119 45.6261 65.3873V62.7248C45.6261 62.281 45.3886 61.8685 45.0073 61.6435L37.2389 57.0856C36.6269 56.7266 36.251 56.0701 36.251 55.3606V54.2872C36.251 52.6997 37.7948 51.4122 39.6885 51.4122C41.5823 51.4122 43.1261 52.6997 43.1261 54.2872C43.1261 54.9776 43.6857 55.5372 44.3761 55.5372H45.6074C45.6177 55.5372 45.6261 55.5288 45.6261 55.5185Z" fill="#00CCF5"/>
</svg>
