<svg width="532" height="434" viewBox="0 0 532 434" fill="none" xmlns="http://www.w3.org/2000/svg">
<g clip-path="url(#clip0_3009_25667)">
<path d="M409.234 225.977L473.263 263.138L501.296 247.003" stroke="url(#paint0_linear_3009_25667)" stroke-width="5" stroke-miterlimit="10"/>
<path d="M398.531 231.538L450.492 262.707L425.439 278.117" stroke="url(#paint1_linear_3009_25667)" stroke-width="5" stroke-miterlimit="10"/>
<path d="M361.031 219.709L412.992 250.878L361.769 282.386L441.368 327.25" stroke="url(#paint2_linear_3009_25667)" stroke-width="5" stroke-miterlimit="10"/>
<path d="M436.686 98.6055L395.989 122.061L379.969 182.912L381.908 184.086L397.936 124.118L434.747 102.904L437.803 110.994L440.237 108.568L436.686 98.6055Z" fill="url(#paint3_linear_3009_25667)"/>
<path d="M438.334 99.5547L397.637 123.01L381.609 183.902L383.752 185.205L399.584 125.064L436.395 103.85L438.743 110.062L441.328 107.482L438.334 99.5547Z" fill="url(#paint4_linear_3009_25667)"/>
<path d="M426.935 189.78L388.362 167.532L386.297 168.721L424.87 190.973L426.935 189.78Z" fill="url(#paint5_linear_3009_25667)"/>
<path d="M424.889 190.914L386.297 168.695V171.077L424.889 193.295V190.914Z" fill="url(#paint6_linear_3009_25667)"/>
<path d="M429.171 174.763L390.602 152.512L392.666 151.319L431.236 173.571L429.171 174.763Z" fill="url(#paint7_linear_3009_25667)"/>
<path d="M390.602 154.868L429.19 177.086V174.705L390.602 152.486V154.868Z" fill="url(#paint8_linear_3009_25667)"/>
<path d="M433.48 158.552L394.906 136.304L396.971 135.111L435.545 157.363L433.48 158.552Z" fill="url(#paint9_linear_3009_25667)"/>
<path d="M394.906 138.66L433.498 160.878V158.497L394.906 136.278V138.66Z" fill="url(#paint10_linear_3009_25667)"/>
<path d="M434.167 147.253L434.897 144.485L397.636 123.01L396.906 125.777L434.167 147.253Z" fill="url(#paint11_linear_3009_25667)"/>
<path d="M434.895 144.485L418.609 206.353L420.541 207.527L436.842 146.539L473.653 125.325L475.592 121.03L434.895 144.485Z" fill="url(#paint12_linear_3009_25667)"/>
<path d="M436.539 145.432L420.242 207.343L422.388 208.646L438.489 147.489L475.297 126.275L477.236 121.977L436.539 145.432Z" fill="url(#paint13_linear_3009_25667)"/>
<path d="M436.572 145.431L477.273 121.976L436.572 98.5205L395.875 121.976L436.572 145.431Z" fill="url(#paint14_linear_3009_25667)"/>
<path d="M371.786 275.449L371.815 275.526L371.822 275.541L371.756 277.487C372.969 277.97 372.877 277.933 374.086 278.415L376.829 277.13C377.825 277.3 378.168 277.359 379.163 277.528L380.247 279.464C381.718 279.445 381.604 279.445 383.075 279.423L383.986 277.458C384.963 277.259 385.302 277.189 386.279 276.991L389.133 278.19C390.298 277.675 390.21 277.712 391.375 277.197V275.209L390.106 275.298C390.479 274.985 390.696 274.801 390.958 274.587C391.106 274.462 391.268 274.326 391.485 274.142L395.021 274.149C395.442 273.336 395.408 273.399 395.825 272.585V270.598L392.861 271.477C392.831 270.881 392.824 270.675 392.794 270.075L393.561 269.755L395.655 268.883V266.895C395.655 266.895 395.655 266.888 395.648 266.888C395.412 266.752 391.183 267.455 391.183 267.455C390.553 266.98 390.331 266.818 389.701 266.343L390.494 264.948L390.8 264.407V262.42L385.726 264.768C384.731 264.595 384.384 264.536 383.396 264.367L382.312 262.431C380.841 262.453 380.952 262.449 379.484 262.471L378.573 264.44C377.596 264.639 377.253 264.709 376.28 264.908L371.181 262.714V264.698L371.598 265.324L372.449 266.597C371.859 267.09 371.657 267.26 371.07 267.753L366.734 267.326V269.313L368.995 270.16L369.699 270.421C369.725 271.021 366.897 271.028 366.897 271.028V273.016C367.387 273.814 367.35 273.756 367.84 274.551L371.369 274.444L371.778 275.452L371.786 275.449ZM377.036 270.09C377.054 270.031 377.08 269.972 377.11 269.913C377.836 268.349 380.631 267.418 383.348 267.837C384.72 268.051 385.811 268.566 386.46 269.225C386.442 269.284 386.416 269.343 386.386 269.402C385.66 270.966 382.869 271.897 380.148 271.477C378.776 271.264 377.685 270.749 377.036 270.09Z" fill="url(#paint15_linear_3009_25667)"/>
<path d="M371.782 275.449L371.752 275.5C371.775 275.508 371.793 275.519 371.811 275.522C372.962 275.975 372.892 275.949 374.083 276.424L376.826 275.139C377.821 275.312 378.164 275.368 379.156 275.541L380.24 277.477C381.711 277.454 381.6 277.458 383.068 277.432L383.979 275.467C384.956 275.268 385.291 275.198 386.272 275L389.126 276.196C390.294 275.681 390.206 275.721 391.371 275.206L390.954 274.58L390.103 273.303C390.689 272.813 390.892 272.641 391.482 272.147L395.018 272.155C395.438 271.341 395.405 271.404 395.821 270.591L393.561 269.748L392.853 269.483C392.827 268.887 392.82 268.677 392.794 268.08L395.655 266.888C395.655 266.888 395.652 266.881 395.648 266.881C395.165 266.089 395.202 266.145 394.712 265.35L391.183 265.46C390.888 265.239 390.689 265.088 390.494 264.941C390.261 264.768 390.044 264.603 389.701 264.349L390.8 262.413C389.59 261.934 389.682 261.971 388.469 261.489L385.726 262.773C384.731 262.6 384.384 262.541 383.396 262.372L382.308 260.433C380.841 260.455 380.952 260.455 379.48 260.477L378.57 262.446C377.593 262.641 377.253 262.711 376.276 262.913L373.423 261.713C372.258 262.229 372.346 262.188 371.181 262.707L372.449 264.606C372.077 264.919 371.856 265.103 371.598 265.317C371.45 265.442 371.284 265.578 371.07 265.758H367.538C367.122 266.568 367.151 266.509 366.734 267.319L369.699 268.426C369.725 269.026 369.736 269.232 369.761 269.832L368.995 270.153L366.9 271.025C367.391 271.823 367.357 271.765 367.844 272.56L371.373 272.453C372.003 272.928 372.221 273.093 372.851 273.568L371.782 275.452V275.449ZM386.379 269.402C385.652 270.966 382.861 271.897 380.14 271.477C378.769 271.264 377.677 270.749 377.029 270.09C377.047 270.031 377.073 269.972 377.102 269.913C377.829 268.349 380.623 267.418 383.341 267.838C384.712 268.051 385.804 268.566 386.453 269.225C386.434 269.284 386.408 269.343 386.379 269.402Z" fill="url(#paint16_linear_3009_25667)"/>
<path d="M377.039 270.09C376.401 269.442 376.191 268.658 376.549 267.886C377.279 266.318 380.07 265.39 382.787 265.81C385.405 266.215 386.994 267.72 386.459 269.229C385.81 268.566 384.719 268.055 383.347 267.841C380.63 267.422 377.839 268.353 377.109 269.917C377.083 269.976 377.057 270.035 377.035 270.094L377.039 270.09Z" fill="url(#paint17_linear_3009_25667)"/>
<path d="M152.133 208.767L289.522 286.909L425.997 207.99L288.623 129.071L152.133 208.767Z" fill="url(#paint18_linear_3009_25667)"/>
<path d="M152.133 208.767L289.522 286.909V297.972L152.133 220.842V208.767Z" fill="url(#paint19_linear_3009_25667)"/>
<path d="M289.523 286.909V297.972L425.998 219.318V207.99L289.523 286.909Z" fill="url(#paint20_linear_3009_25667)"/>
<path d="M244.177 206.202C244.177 206.202 206.426 215.506 232.847 228.991C259.264 242.472 295.452 212.547 310.09 192.201C324.727 171.856 341.89 193.714 341.89 193.714" stroke="#C08FFF" stroke-width="4.19" stroke-miterlimit="10"/>
<path d="M284.188 183.982L296.768 188.679V191.233L253.6 216.112L241.094 208.906V206.352L284.188 183.982Z" fill="#8E37FF"/>
<path d="M284.188 181.429L296.768 188.679L253.6 213.559L241.094 206.352L284.188 181.429Z" fill="#C395FF"/>
<path d="M273.932 190.663L284.591 184.517L291.81 188.675L253.594 210.699L246.445 206.581L273.932 190.663Z" fill="url(#paint21_linear_3009_25667)"/>
<path d="M261.795 199.621L273.933 137.525L259.266 146.406V199.113L261.795 199.621Z" fill="#8E37FF"/>
<path d="M276.46 191.171V133.599L261.797 142.476V199.621L276.46 191.171Z" fill="url(#paint22_linear_3009_25667)"/>
<path d="M189.871 74.5352L318.916 0.165361C320.587 -0.798904 326.593 2.70116 328.716 3.69118L323.632 99.2086C323.621 100.508 322.928 101.704 321.803 102.359L196.22 180.899C191.574 179.025 188.023 176.898 188.023 174.049V77.7298C188.023 76.4122 188.728 75.194 189.871 74.5352Z" fill="#8E37FF"/>
<path d="M196.16 78.1603L325.205 3.79052C327.679 2.36253 330.769 4.16224 330.747 7.01455L329.921 102.834C329.91 104.133 329.217 105.329 328.092 105.984L199.873 180.858C197.41 182.297 194.312 180.523 194.312 177.675V81.3549C194.312 80.0374 195.017 78.8191 196.16 78.1603Z" fill="url(#paint23_linear_3009_25667)"/>
<path d="M196.16 78.1603L325.205 3.79052C327.679 2.36253 330.769 4.16224 330.747 7.01455L329.921 102.834C329.91 104.133 329.217 105.329 328.092 105.984L199.873 180.858C197.41 182.297 194.312 180.523 194.312 177.675V81.3549C194.312 80.0374 195.017 78.8191 196.16 78.1603Z" fill="url(#paint24_linear_3009_25667)"/>
<path opacity="0.8" d="M199.807 81.226L323.201 10.1134C324.554 9.33313 326.246 10.3158 326.231 11.8763L325.461 101.203C325.453 101.914 325.074 102.569 324.462 102.926L201.839 174.532C200.493 175.319 198.797 174.347 198.797 172.791V82.9706C198.797 82.2492 199.18 81.583 199.807 81.2224V81.226Z" fill="url(#paint25_linear_3009_25667)"/>
<path d="M317.147 28.7251L308.188 33.9586L308.287 32.2472L317.243 27.0137L317.147 28.7251Z" fill="#F1E7FF"/>
<path d="M316.982 31.5405L306.297 37.6978L306.396 35.9864L317.081 29.8291L316.982 31.5405Z" fill="#F1E7FF"/>
<path d="M316.826 34.352L306.141 40.5093L306.236 38.7979L316.921 32.6406L316.826 34.352Z" fill="#F1E7FF"/>
<path d="M274.235 75.4701L264.062 81.333V79.5406L274.235 73.6777V75.4701Z" fill="#F1E7FF"/>
<path d="M274.235 78.4107L264.062 84.2736V82.4849L274.235 76.6221V78.4107Z" fill="#F1E7FF"/>
<path d="M272.9 82.2269L264.062 87.2139V85.4252L272.9 80.4346V82.2269Z" fill="#F1E7FF"/>
<path d="M313.495 93.975L305 98.8773V97.0371L313.495 92.1348V93.975Z" fill="#F1E7FF"/>
<path d="M313.491 97.0004L303.031 103.029V101.189L313.491 95.1602V97.0004Z" fill="#F1E7FF"/>
<path d="M313.491 100.026L303.031 106.054V104.214L313.491 98.1855V100.026Z" fill="#F1E7FF"/>
<path d="M261.409 132.594L259.023 133.971V127.022L261.409 125.649V132.594Z" fill="#F1E7FF"/>
<path d="M265.491 130.242L263.102 131.618V115.988L265.491 114.611V130.242Z" fill="#F1E7FF"/>
<path d="M269.425 127.979L267.039 129.352V108.896L269.425 107.52V127.979Z" fill="#F1E7FF"/>
<path d="M276.511 123.89L274.125 125.266V113.647L276.511 112.274V123.89Z" fill="#F1E7FF"/>
<path d="M280.44 121.626L278.055 122.999V102.543L280.44 101.167V121.626Z" fill="#F1E7FF"/>
<path d="M293.849 40.9883C287.548 44.6209 282.438 53.4538 282.438 60.7152C282.438 67.9767 287.548 70.921 293.849 67.2921C300.15 63.6596 305.26 54.8266 305.26 47.5652C305.26 40.3037 300.15 37.3594 293.849 40.9883ZM293.849 65.6838C288.318 68.871 283.835 66.2874 283.835 59.9129C283.835 53.5385 288.318 45.7875 293.849 42.6003C299.379 39.4131 303.863 41.9967 303.863 48.3712C303.863 54.7456 299.379 62.4966 293.849 65.6838Z" fill="#C395FF"/>
<path d="M300.411 57.9173C304.033 51.6541 304.034 44.8846 300.411 42.797C296.789 40.7095 290.916 44.0946 287.294 50.3578C283.671 56.6209 283.671 63.3905 287.293 65.478C290.915 67.5655 296.788 64.1805 300.411 57.9173Z" fill="#75DFFF"/>
<path d="M316.571 60.2193C313.455 62.0153 310.93 66.3803 310.93 69.9687C310.93 73.557 313.455 75.0145 316.571 73.2184C319.686 71.4224 322.212 67.0575 322.212 63.4691C322.212 59.8807 319.686 58.4232 316.571 60.2193ZM316.571 72.4272C313.839 74.0024 311.619 72.7253 311.619 69.5748C311.619 66.4244 313.835 62.5931 316.571 61.0179C319.303 59.4427 321.522 60.7198 321.522 63.8702C321.522 67.0207 319.307 70.8519 316.571 72.4272Z" fill="#C395FF"/>
<path d="M319.811 68.5871C321.601 65.4907 321.602 62.1444 319.812 61.1128C318.022 60.0813 315.12 61.7551 313.329 64.8515C311.538 67.9479 311.537 71.2943 313.327 72.3258C315.117 73.3574 318.02 71.6835 319.811 68.5871Z" fill="#B77EFF"/>
<path d="M236.494 70.2959C227.845 75.2828 220.828 87.4097 220.828 97.3799C220.828 107.35 227.845 111.395 236.494 106.408C245.144 101.421 252.16 89.2941 252.16 79.3239C252.16 69.3537 245.144 65.3089 236.494 70.2959ZM236.494 104.2C228.899 108.576 222.745 105.028 222.745 96.2758C222.745 87.5238 228.903 76.8801 236.494 72.5041C244.09 68.1281 250.243 71.676 250.243 80.428C250.243 89.18 244.086 99.8237 236.494 104.2Z" fill="#C395FF"/>
<path d="M245.499 93.544C250.472 84.9449 250.473 75.6506 245.5 72.7846C240.527 69.9186 232.464 74.5662 227.49 83.1653C222.516 91.7644 222.516 101.059 227.489 103.925C232.462 106.791 240.525 102.143 245.499 93.544Z" fill="#75DFFF"/>
<path d="M294.094 99.8638C290.979 101.66 288.453 106.025 288.453 109.613C288.453 113.202 290.979 114.659 294.094 112.863C297.21 111.067 299.735 106.702 299.735 103.114C299.735 99.5252 297.21 98.0678 294.094 99.8638ZM294.094 112.072C291.362 113.647 289.143 112.37 289.143 109.219C289.143 106.069 291.359 102.238 294.094 100.662C296.83 99.0872 299.046 100.364 299.046 103.515C299.046 106.665 296.83 110.496 294.094 112.072Z" fill="#C395FF"/>
<path d="M297.334 108.23C299.125 105.133 299.126 101.787 297.336 100.755C295.546 99.7238 292.643 101.398 290.852 104.494C289.061 107.59 289.06 110.937 290.85 111.968C292.64 113 295.543 111.326 297.334 108.23Z" fill="white"/>
<path d="M270.36 87.3951C267.244 89.1911 264.719 93.556 264.719 97.1444C264.719 100.733 267.244 102.19 270.36 100.394C273.475 98.5982 276.001 94.2332 276.001 90.6448C276.001 87.0565 273.475 85.599 270.36 87.3951ZM270.36 99.6029C267.628 101.178 265.408 99.9011 265.408 96.7506C265.408 93.6002 267.624 89.7689 270.36 88.1937C273.096 86.6185 275.312 87.8956 275.312 91.046C275.312 94.1964 273.096 98.0277 270.36 99.6029Z" fill="#C395FF"/>
<path d="M273.6 95.7639C275.391 92.6675 275.391 89.3211 273.601 88.2896C271.811 87.258 268.909 88.9319 267.118 92.0283C265.327 95.1246 265.326 98.471 267.116 99.5026C268.906 100.534 271.809 98.8602 273.6 95.7639Z" fill="white"/>
<path d="M305.509 74.7334V73.839L301.265 76.2828C301.265 76.1871 301.265 76.0878 301.265 75.9884C301.265 75.6461 301.247 75.3222 301.217 75.0131C300.948 72.4258 299.588 70.8432 297.648 70.5708L298.319 68.8447C300.657 69.1576 302.287 71.0787 302.563 74.2365L305.505 72.5399V71.6455L309.919 70.6628L305.505 74.7297L305.509 74.7334Z" fill="#C699FF"/>
<path d="M294.627 66.0886L293.849 66.5376V71.4289C293.764 71.4767 293.683 71.5209 293.595 71.5724C293.3 71.7417 293.008 71.9294 292.721 72.1318C290.339 73.8138 288.289 76.563 287.083 79.4963L285.922 79.3932C287.363 75.8674 289.845 72.5587 292.721 70.5824V67.1927L291.946 67.638L293.3 61.7715L294.623 66.096L294.627 66.0886Z" fill="#C699FF"/>
<path d="M281.691 86.0846V86.9789L285.935 84.5352C285.935 84.6308 285.935 84.7302 285.935 84.8296C285.935 85.1719 285.953 85.4957 285.983 85.8049C286.252 88.3922 287.612 89.9748 289.552 90.2471L288.881 91.9732C286.543 91.6604 284.913 89.7392 284.637 86.5815L281.695 88.2781V89.1725L277.281 90.1551L281.695 86.0883L281.691 86.0846Z" fill="#C699FF"/>
<path d="M292.57 94.729L293.348 94.28V89.3887C293.433 89.3409 293.514 89.2967 293.603 89.2452C293.898 89.0759 294.189 88.8882 294.476 88.6858C296.858 87.0038 298.908 84.2546 300.114 81.3213L301.275 81.4243C299.834 84.9502 297.352 88.2588 294.476 90.2352V93.6249L295.251 93.1795L293.898 99.0461L292.574 94.7216L292.57 94.729Z" fill="#C699FF"/>
<path d="M266.176 243.717L286.514 255.667C287.837 256.443 289.478 256.451 290.809 255.685L368.66 210.817C370.062 210.011 370.773 208.606 370.792 207.192L370.762 202.467C370.445 201.561 369.604 203.99 368.66 203.449L348.378 191.76C347.062 191.002 345.443 190.999 344.127 191.753L266.22 236.356C265.284 236.893 264.414 234.655 264.093 235.55L264.078 240.021C264.071 241.449 264.768 242.885 266.18 243.713L266.176 243.717Z" fill="url(#paint26_linear_3009_25667)"/>
<path d="M266.175 239.557L286.513 251.508C287.836 252.284 289.477 252.292 290.808 251.526L368.66 206.658C371.502 205.021 371.502 200.928 368.66 199.29L348.377 187.601C347.061 186.843 345.442 186.839 344.126 187.594L266.219 232.197C263.384 233.82 263.358 237.898 266.179 239.554L266.175 239.557Z" fill="url(#paint27_linear_3009_25667)"/>
<path d="M280.938 230.868L277.406 232.907L279.821 234.298L283.357 232.263L280.938 230.868Z" fill="white"/>
<path d="M285.149 228.442L281.617 230.478L284.032 231.869L287.564 229.834L285.149 228.442Z" fill="white"/>
<path d="M289.364 226.014L285.828 228.049L288.243 229.444L291.779 227.405L289.364 226.014Z" fill="white"/>
<path d="M293.583 223.584L290.047 225.623L292.462 227.014L295.998 224.975L293.583 223.584Z" fill="white"/>
<path d="M297.794 221.155L294.258 223.194L296.673 224.585L300.209 222.546L297.794 221.155Z" fill="white"/>
<path d="M302.012 218.727L298.477 220.766L300.892 222.157L304.427 220.121L302.012 218.727Z" fill="white"/>
<path d="M306.22 216.301L302.688 218.336L305.102 219.727L308.635 217.692L306.22 216.301Z" fill="white"/>
<path d="M310.434 213.872L306.898 215.907L309.313 217.299L312.849 215.263L310.434 213.872Z" fill="white"/>
<path d="M314.645 211.442L311.109 213.478L313.524 214.873L317.06 212.834L314.645 211.442Z" fill="white"/>
<path d="M318.864 209.014L315.328 211.053L317.743 212.444L321.279 210.405L318.864 209.014Z" fill="white"/>
<path d="M321.954 210.014L327.665 206.724L325.25 205.329L319.539 208.623L321.954 210.014Z" fill="white"/>
<path d="M284.017 236.716L289.731 233.422L287.316 232.031L281.602 235.325L284.017 236.716Z" fill="white"/>
<path d="M290.407 233.032L293.943 230.996L291.528 229.602L287.992 231.641L290.407 233.032Z" fill="white"/>
<path d="M295.735 227.177L292.203 229.212L294.618 230.603L298.15 228.568L295.735 227.177Z" fill="white"/>
<path d="M299.954 224.747L296.422 226.782L298.837 228.177L302.369 226.138L299.954 224.747Z" fill="white"/>
<path d="M304.169 222.318L300.633 224.354L303.048 225.748L306.584 223.71L304.169 222.318Z" fill="white"/>
<path d="M308.38 219.89L304.844 221.929L307.259 223.32L310.795 221.281L308.38 219.89Z" fill="white"/>
<path d="M312.598 217.46L309.062 219.499L311.478 220.89L315.013 218.855L312.598 217.46Z" fill="white"/>
<path d="M315.688 218.462L319.224 216.426L316.809 215.035L313.273 217.07L315.688 218.462Z" fill="white"/>
<path d="M319.899 216.032L323.432 213.997L321.017 212.605L317.484 214.641L319.899 216.032Z" fill="white"/>
<path d="M324.11 213.607L327.646 211.568L325.231 210.177L321.695 212.212L324.11 213.607Z" fill="white"/>
<path d="M328.329 211.177L331.865 209.138L329.45 207.747L325.914 209.786L328.329 211.177Z" fill="white"/>
<path d="M287.649 238.81L293.361 235.516L290.946 234.125L285.234 237.419L287.649 238.81Z" fill="white"/>
<path d="M294.04 235.126L297.576 233.091L295.161 231.696L291.625 233.735L294.04 235.126Z" fill="white"/>
<path d="M299.372 229.271L295.836 231.306L298.251 232.697L301.787 230.662L299.372 229.271Z" fill="white"/>
<path d="M303.591 226.842L300.055 228.877L302.47 230.268L306.006 228.233L303.591 226.842Z" fill="white"/>
<path d="M307.801 224.412L304.266 226.447L306.681 227.842L310.216 225.803L307.801 224.412Z" fill="white"/>
<path d="M312.009 221.983L308.477 224.022L310.892 225.414L314.424 223.375L312.009 221.983Z" fill="white"/>
<path d="M316.223 219.555L312.688 221.594L315.102 222.985L318.638 220.95L316.223 219.555Z" fill="white"/>
<path d="M319.321 220.555L322.857 218.52L320.442 217.129L316.906 219.164L319.321 220.555Z" fill="white"/>
<path d="M323.532 218.127L327.068 216.091L324.653 214.7L321.117 216.735L323.532 218.127Z" fill="white"/>
<path d="M327.751 215.701L335.497 211.233L333.082 209.842L325.336 214.306L327.751 215.701Z" fill="white"/>
<path d="M291.282 240.904L296.997 237.61L294.582 236.219L288.867 239.513L291.282 240.904Z" fill="white"/>
<path d="M297.673 237.22L301.209 235.181L298.794 233.79L295.258 235.829L297.673 237.22Z" fill="white"/>
<path d="M301.892 234.791L305.424 232.755L303.009 231.364L299.477 233.4L301.892 234.791Z" fill="white"/>
<path d="M306.102 232.362L309.638 230.327L307.223 228.936L303.688 230.971L306.102 232.362Z" fill="white"/>
<path d="M310.313 229.937L313.849 227.898L311.434 226.507L307.898 228.542L310.313 229.937Z" fill="white"/>
<path d="M314.524 227.507L318.06 225.468L315.645 224.077L312.109 226.116L314.524 227.507Z" fill="white"/>
<path d="M318.743 225.079L322.279 223.04L319.864 221.648L316.328 223.687L318.743 225.079Z" fill="white"/>
<path d="M322.954 222.65L326.486 220.615L324.071 219.22L320.539 221.259L322.954 222.65Z" fill="white"/>
<path d="M327.173 220.22L330.705 218.185L328.29 216.794L324.758 218.829L327.173 220.22Z" fill="white"/>
<path d="M331.384 217.795L334.92 215.756L332.505 214.365L328.969 216.4L331.384 217.795Z" fill="white"/>
<path d="M335.595 215.366L339.131 213.327L336.716 211.936L333.18 213.975L335.595 215.366Z" fill="white"/>
<path d="M294.915 242.999L300.626 239.705L298.211 238.313L292.5 241.607L294.915 242.999Z" fill="white"/>
<path d="M301.306 239.314L304.841 237.275L302.426 235.884L298.891 237.923L301.306 239.314Z" fill="white"/>
<path d="M305.517 236.885L330.12 222.708L327.705 221.313L303.102 235.494L305.517 236.885Z" fill="white"/>
<path d="M330.798 222.314L334.334 220.279L331.919 218.888L328.383 220.923L330.798 222.314Z" fill="white"/>
<path d="M335.017 219.889L338.552 217.85L336.137 216.459L332.602 218.494L335.017 219.889Z" fill="white"/>
<path d="M339.227 217.46L342.76 215.421L340.345 214.03L336.812 216.069L339.227 217.46Z" fill="white"/>
<path d="M338.634 205.238L342.17 203.199L339.755 201.808L336.219 203.843L338.634 205.238Z" fill="white"/>
<path d="M342.852 202.808L346.388 200.769L343.973 199.378L340.438 201.417L342.852 202.808Z" fill="white"/>
<path d="M347.063 200.379L350.599 198.344L348.184 196.949L344.648 198.988L347.063 200.379Z" fill="white"/>
<path d="M334.442 202.82L337.974 200.781L335.559 199.39L332.023 201.429L334.442 202.82Z" fill="white"/>
<path d="M338.657 200.39L342.193 198.351L339.778 196.96L336.242 198.999L338.657 200.39Z" fill="white"/>
<path d="M340.453 196.57L342.868 197.961L346.404 195.926L343.989 194.531L340.453 196.57Z" fill="white"/>
<path d="M342.274 207.332L345.807 205.293L343.392 203.901L339.859 205.937L342.274 207.332Z" fill="white"/>
<path d="M346.485 204.903L350.021 202.864L347.606 201.473L344.07 203.512L346.485 204.903Z" fill="white"/>
<path d="M350.696 202.473L354.232 200.434L351.817 199.043L348.281 201.082L350.696 202.473Z" fill="white"/>
<path d="M345.907 209.426L349.443 207.387L347.028 205.996L343.492 208.031L345.907 209.426Z" fill="white"/>
<path d="M350.118 206.997L353.654 204.958L351.239 203.566L347.703 205.605L350.118 206.997Z" fill="white"/>
<path d="M354.329 204.568L357.861 202.529L355.446 201.138L351.914 203.177L354.329 204.568Z" fill="white"/>
<path d="M349.54 211.516L353.072 209.481L350.657 208.09L347.125 210.125L349.54 211.516Z" fill="white"/>
<path d="M353.751 209.091L357.287 207.052L354.872 205.661L351.336 207.7L353.751 209.091Z" fill="white"/>
<path d="M357.962 206.662L361.498 204.623L359.083 203.231L355.547 205.27L357.962 206.662Z" fill="white"/>
<g opacity="0.57">
<path d="M210.461 135.759L246.479 114.998V112.94L210.461 133.698V135.759Z" fill="#C699FF"/>
<path d="M210.461 139.531L246.479 118.774V116.713L210.461 137.474V139.531Z" fill="#C699FF"/>
<path d="M210.461 143.046L246.479 122.289V120.231L210.461 140.989V143.046Z" fill="#C699FF"/>
<path d="M210.461 146.819L246.479 126.061V124.004L210.461 144.761V146.819Z" fill="#C699FF"/>
<path d="M210.461 150.337L246.479 129.576V127.519L210.461 148.276V150.337Z" fill="#C699FF"/>
<path d="M210.461 154.109L246.479 133.352V131.291L210.461 152.052V154.109Z" fill="#C699FF"/>
<path d="M210.461 157.624L246.479 136.867V134.81L210.461 155.567V157.624Z" fill="#C699FF"/>
<path d="M210.461 161.397L246.479 140.639V138.582L210.461 159.339V161.397Z" fill="#C699FF"/>
</g>
<path d="M218.891 119.139L224.358 115.988V122.885L218.891 126.036V119.139Z" fill="#C699FF"/>
<path d="M211.648 123.315L217.116 120.165V127.062L211.648 130.213V123.315Z" fill="#C699FF"/>
<path d="M238.652 84.6377L235.105 86.6803C232.635 88.1046 230.633 91.9212 230.633 95.2078V101.163L243.124 93.9638V88.0089C243.124 84.7223 241.122 83.2134 238.652 84.634V84.6377Z" fill="white"/>
<path d="M239.426 82.597C240.834 80.1625 240.833 77.5307 239.424 76.7187C238.015 75.9066 235.731 77.2219 234.323 79.6564C232.915 82.0909 232.916 84.7227 234.325 85.5348C235.734 86.3468 238.017 85.0315 239.426 82.597Z" fill="white"/>
<path d="M295.497 51.8633L293.27 53.1478C291.718 54.0421 290.461 56.4381 290.461 58.5028V62.242L298.303 57.7225V53.9832C298.303 51.9185 297.046 50.9727 295.494 51.8633H295.497Z" fill="white"/>
<path d="M295.988 50.5817C296.872 49.052 296.872 47.3983 295.987 46.8881C295.101 46.3779 293.666 47.2044 292.782 48.7341C291.897 50.2638 291.897 51.9175 292.783 52.4277C293.668 52.9379 295.103 52.1114 295.988 50.5817Z" fill="white"/>
<path d="M270.671 93.0661L269.536 93.7212C268.743 94.1776 268.102 95.4031 268.102 96.4557V98.3659L272.106 96.0582V94.1481C272.106 93.0955 271.464 92.6097 270.671 93.0661Z" fill="#C395FF"/>
<path d="M270.912 92.4111C271.363 91.6312 271.363 90.7882 270.912 90.528C270.46 90.2678 269.729 90.6891 269.278 91.4689C268.827 92.2487 268.827 93.0918 269.278 93.3519C269.73 93.6121 270.461 93.1909 270.912 92.4111Z" fill="#C395FF"/>
<path d="M294.664 105.024L293.528 105.679C292.735 106.136 292.094 107.361 292.094 108.414V110.324L296.098 108.016V106.106C296.098 105.054 295.456 104.568 294.664 105.024Z" fill="#C395FF"/>
<path d="M294.912 104.367C295.364 103.587 295.363 102.744 294.912 102.484C294.46 102.224 293.729 102.645 293.278 103.425C292.827 104.205 292.827 105.048 293.278 105.308C293.73 105.568 294.461 105.147 294.912 104.367Z" fill="#C395FF"/>
<path d="M525.294 229.889C523.874 229.072 522.315 228.383 520.656 227.824C511.891 224.865 500.447 225.553 492.925 229.889C489.323 231.964 486.945 231.247 486.245 233.941C486.245 233.941 486.219 238.556 486.219 239.215C486.219 242.59 488.453 245.965 492.922 248.541C494.869 249.663 497.081 250.539 499.44 251.172C501.288 251.669 503.223 252.015 505.2 252.21C512.275 252.917 519.822 251.691 525.29 248.541C528.052 246.951 529.962 245.052 531.012 243.039C531.602 241.913 531.927 240.749 531.982 239.583L531.989 234.971C531.44 232.097 529.114 232.09 525.286 229.885L525.294 229.889Z" fill="url(#paint28_linear_3009_25667)"/>
<path d="M499.451 246.516C497.091 245.883 494.879 245.004 492.932 243.885C483.991 238.732 483.991 230.385 492.932 225.233C500.45 220.901 511.895 220.213 520.662 223.168L509.118 234.559L499.455 246.516H499.451Z" fill="white"/>
<path d="M525.302 243.885C519.834 247.035 512.29 248.261 505.211 247.554L509.119 234.559L531.024 238.386C529.973 240.399 528.059 242.295 525.302 243.888V243.885Z" fill="#C497FF"/>
<path d="M531.022 238.383L509.117 234.555L520.661 223.164C522.32 223.72 523.88 224.412 525.3 225.229C531.475 228.788 533.385 233.878 531.022 238.383Z" fill="#C699FF"/>
<path d="M505.212 247.554C503.236 247.359 501.3 247.013 499.453 246.516L509.117 234.559L505.209 247.554H505.212Z" fill="#B940FF"/>
<path d="M433.293 273.067C432.15 272.408 430.889 271.853 429.551 271.4C422.479 269.011 413.24 269.567 407.174 273.063C404.269 274.738 402.348 274.16 401.784 276.335C401.784 276.335 401.766 280.06 401.766 280.59C401.766 283.313 403.569 286.037 407.174 288.116C408.745 289.022 410.53 289.732 412.436 290.24C413.925 290.641 415.489 290.917 417.082 291.075C422.793 291.646 428.88 290.659 433.293 288.113C435.52 286.828 437.061 285.297 437.913 283.674C438.389 282.765 438.651 281.826 438.699 280.884L438.706 277.163C438.263 274.841 436.383 274.837 433.297 273.056L433.293 273.067Z" fill="url(#paint29_linear_3009_25667)"/>
<path d="M412.439 286.486C410.532 285.974 408.752 285.268 407.177 284.362C399.962 280.203 399.962 273.468 407.177 269.309C413.246 265.813 422.482 265.257 429.554 267.646L420.237 276.84L412.439 286.49V286.486Z" fill="#C699FF"/>
<path d="M433.298 284.362C428.884 286.906 422.797 287.892 417.086 287.325L420.238 276.836L437.918 279.924C437.07 281.547 435.528 283.078 433.298 284.362Z" fill="#C497FF"/>
<path d="M437.914 279.92L420.234 276.832L429.551 267.639C430.89 268.088 432.151 268.643 433.294 269.306C438.279 272.18 439.82 276.284 437.914 279.92Z" fill="white"/>
<path d="M417.083 287.321C415.49 287.163 413.927 286.887 412.438 286.486L420.236 276.836L417.083 287.325V287.321Z" fill="#C699FF"/>
<path d="M325.291 274.701L294.479 292.459L261.664 415.23L260.289 414.435L292.849 290.737L326.917 271.105L358.408 359.476L357.033 358.681L325.291 274.701Z" fill="url(#paint30_linear_3009_25667)"/>
<path d="M326.67 275.492L295.854 293.254L264.116 413.816L261.664 415.23L294.224 291.531L328.292 271.896L360.852 358.066L358.408 359.475L326.67 275.492Z" fill="url(#paint31_linear_3009_25667)"/>
<path d="M295.408 429.834L263.117 411.208L264.846 410.214L297.134 428.84L295.408 429.834Z" fill="url(#paint32_linear_3009_25667)"/>
<path d="M263.117 413.181L295.423 431.781V429.787L263.117 411.189V413.181Z" fill="url(#paint33_linear_3009_25667)"/>
<path d="M299.014 416.268L266.727 397.642L268.456 396.645L300.743 415.271L299.014 416.268Z" fill="url(#paint34_linear_3009_25667)"/>
<path d="M266.727 399.615L299.029 418.212V416.221L266.727 397.62V399.615Z" fill="url(#paint35_linear_3009_25667)"/>
<path d="M302.615 402.698L270.328 384.072L272.057 383.074L304.345 401.701L302.615 402.698Z" fill="url(#paint36_linear_3009_25667)"/>
<path d="M270.328 386.045L302.634 404.642V402.651L270.328 384.05V386.045Z" fill="url(#paint37_linear_3009_25667)"/>
<path d="M306.221 389.129L273.93 370.502L275.659 369.505L307.946 388.135L306.221 389.129Z" fill="url(#paint38_linear_3009_25667)"/>
<path d="M273.93 372.474L306.235 391.075V389.08L273.93 370.483V372.474Z" fill="url(#paint39_linear_3009_25667)"/>
<path d="M309.818 375.559L277.531 356.932L279.26 355.938L311.548 374.565L309.818 375.559Z" fill="url(#paint40_linear_3009_25667)"/>
<path d="M277.531 358.905L309.833 377.506V375.511L277.531 356.914V358.905Z" fill="url(#paint41_linear_3009_25667)"/>
<path d="M313.42 361.993L281.133 343.367L282.862 342.369L315.149 360.996L313.42 361.993Z" fill="url(#paint42_linear_3009_25667)"/>
<path d="M281.133 345.339L313.438 363.937V361.945L281.133 343.345V345.339Z" fill="url(#paint43_linear_3009_25667)"/>
<path d="M317.025 348.424L284.734 329.797L286.464 328.8L318.751 347.426L317.025 348.424Z" fill="url(#paint44_linear_3009_25667)"/>
<path d="M284.734 331.77L317.04 350.367V348.376L284.734 329.775V331.77Z" fill="url(#paint45_linear_3009_25667)"/>
<path d="M320.631 334.854L288.344 316.228L290.073 315.23L322.36 333.857L320.631 334.854Z" fill="url(#paint46_linear_3009_25667)"/>
<path d="M288.344 318.2L320.646 336.801V334.806L288.344 316.209V318.2Z" fill="url(#paint47_linear_3009_25667)"/>
<path d="M324.233 321.284L291.945 302.658L293.675 301.664L325.962 320.291L324.233 321.284Z" fill="url(#paint48_linear_3009_25667)"/>
<path d="M291.945 304.631L324.251 323.231V321.237L291.945 302.64V304.631Z" fill="url(#paint49_linear_3009_25667)"/>
<path d="M357.887 349.955L390.3 368.663L388.67 369.601L356.258 350.894L357.887 349.955Z" fill="url(#paint50_linear_3009_25667)"/>
<path d="M388.685 369.561L356.258 350.879V352.756L388.685 371.438V369.561Z" fill="url(#paint51_linear_3009_25667)"/>
<path d="M353.927 340.136L386.339 358.847L384.709 359.785L352.297 341.074L353.927 340.136Z" fill="url(#paint52_linear_3009_25667)"/>
<path d="M384.728 359.745L352.297 341.06V342.937L384.728 361.618V359.745Z" fill="url(#paint53_linear_3009_25667)"/>
<path d="M349.97 330.319L382.382 349.027L380.756 349.965L348.344 331.254L349.97 330.319Z" fill="url(#paint54_linear_3009_25667)"/>
<path d="M380.771 349.925L348.344 331.243V333.12L380.771 351.802V349.925Z" fill="url(#paint55_linear_3009_25667)"/>
<path d="M346.012 320.501L378.425 339.212L376.795 340.147L344.383 321.439L346.012 320.501Z" fill="url(#paint56_linear_3009_25667)"/>
<path d="M376.81 340.106L344.383 321.425V323.302L376.81 341.984V340.106Z" fill="url(#paint57_linear_3009_25667)"/>
<path d="M342.056 310.682L374.468 329.393L372.842 330.331L340.43 311.62L342.056 310.682Z" fill="url(#paint58_linear_3009_25667)"/>
<path d="M372.857 330.291L340.43 311.609V313.483L372.857 332.168V330.291Z" fill="url(#paint59_linear_3009_25667)"/>
<path d="M338.098 300.865L370.511 319.573L368.881 320.511L336.469 301.804L338.098 300.865Z" fill="url(#paint60_linear_3009_25667)"/>
<path d="M368.896 320.471L336.469 301.789V303.666L368.896 322.348V320.471Z" fill="url(#paint61_linear_3009_25667)"/>
<path d="M334.134 291.046L366.546 309.757L364.92 310.696L332.508 291.984L334.134 291.046Z" fill="url(#paint62_linear_3009_25667)"/>
<path d="M364.935 310.655L332.508 291.97V293.847L364.935 312.532V310.655Z" fill="url(#paint63_linear_3009_25667)"/>
<path d="M330.177 281.23L362.589 299.938L360.959 300.876L328.547 282.169L330.177 281.23Z" fill="url(#paint64_linear_3009_25667)"/>
<path d="M360.974 300.836L328.547 282.154V284.031L360.974 302.713V300.836Z" fill="url(#paint65_linear_3009_25667)"/>
<path d="M324.806 311.826L325.418 309.507L294.226 291.532L293.617 293.851L324.806 311.826Z" fill="url(#paint66_linear_3009_25667)"/>
<path d="M357.865 293.472L327.049 311.23L294.238 434L292.859 433.205L325.419 309.507L359.488 289.876L390.978 378.246L389.603 377.451L357.865 293.472Z" fill="url(#paint67_linear_3009_25667)"/>
<path d="M359.244 294.263L328.432 312.024L296.694 432.587L294.242 434L326.799 310.302L360.87 290.667L393.427 376.836L390.982 378.246L359.244 294.263Z" fill="url(#paint68_linear_3009_25667)"/>
<path d="M326.826 310.302L360.894 290.667L326.826 271.032L292.758 290.667L326.826 310.302Z" fill="url(#paint69_linear_3009_25667)"/>
<path d="M475.182 321.49C473.018 320.242 470.64 319.193 468.107 318.339C454.734 313.827 437.268 314.876 425.798 321.49C420.304 324.655 416.676 323.562 415.607 327.673C415.607 327.673 415.57 334.717 415.57 335.718C415.57 340.867 418.981 346.02 425.798 349.95C428.77 351.662 432.143 353.001 435.742 353.969C438.559 354.727 441.516 355.254 444.528 355.552C455.327 356.627 466.838 354.764 475.182 349.954C479.393 347.529 482.309 344.632 483.913 341.563C484.813 339.844 485.307 338.07 485.395 336.292L485.41 329.259C484.569 324.872 481.019 324.861 475.182 321.497V321.49Z" fill="url(#paint70_linear_3009_25667)"/>
<path d="M435.743 346.859C432.141 345.895 428.767 344.555 425.799 342.84C412.161 334.978 412.161 322.241 425.799 314.379C437.269 307.769 454.735 306.717 468.108 311.229L450.491 328.608L435.743 346.855V346.859Z" fill="url(#paint71_linear_3009_25667)"/>
<path d="M475.177 342.843C466.834 347.654 455.323 349.516 444.523 348.441L450.485 328.611L483.908 334.448C482.304 337.522 479.388 340.414 475.177 342.84V342.843Z" fill="#C497FF"/>
<path d="M483.915 334.448L450.492 328.611L468.109 311.232C470.642 312.083 473.02 313.135 475.184 314.383C484.608 319.815 487.521 327.577 483.915 334.452V334.448Z" fill="#75DFFF"/>
<path d="M444.528 348.441C441.516 348.143 438.559 347.617 435.742 346.859L450.49 328.611L444.528 348.441Z" fill="#C497FF"/>
<path d="M145.497 181.533L145.533 181.625L145.541 181.643L145.46 184.021C146.942 184.61 146.828 184.566 148.306 185.155L151.658 183.587C152.871 183.796 153.291 183.866 154.508 184.073L155.831 186.439C157.627 186.417 157.49 186.417 159.286 186.387L160.399 183.984C161.594 183.738 162.007 183.653 163.202 183.414L166.689 184.879C168.113 184.249 168.006 184.293 169.433 183.664V181.235L167.884 181.342C168.341 180.959 168.607 180.734 168.924 180.473C169.104 180.318 169.304 180.153 169.569 179.928L173.887 179.936C174.399 178.942 174.358 179.019 174.871 178.026V175.597L171.25 176.671C171.213 175.943 171.206 175.689 171.173 174.96L172.113 174.57L174.672 173.502V171.073C174.672 171.073 174.668 171.066 174.665 171.062C174.377 170.897 169.211 171.754 169.211 171.754C168.441 171.176 168.172 170.974 167.401 170.396L168.367 168.692L168.743 168.03V165.601L162.545 168.471C161.332 168.262 160.908 168.188 159.695 167.982L158.372 165.615C156.572 165.641 156.709 165.641 154.913 165.663L153.803 168.066C152.609 168.313 152.192 168.394 150.998 168.641L144.766 165.961V168.387L145.275 169.152L146.315 170.709C145.596 171.313 145.345 171.519 144.626 172.119L139.328 171.596V174.025L142.09 175.056L142.952 175.376C142.986 176.108 139.531 176.119 139.531 176.119V178.548C140.128 179.524 140.088 179.45 140.685 180.425L144.999 180.293L145.5 181.526L145.497 181.533ZM151.908 174.986C151.93 174.912 151.964 174.842 151.997 174.772C152.885 172.862 156.299 171.725 159.618 172.236C161.295 172.498 162.63 173.123 163.419 173.933C163.397 174.007 163.364 174.077 163.331 174.146C162.446 176.06 159.032 177.198 155.71 176.682C154.032 176.421 152.697 175.795 151.908 174.986Z" fill="url(#paint72_linear_3009_25667)"/>
<path d="M145.5 181.533L145.463 181.595C145.489 181.606 145.515 181.617 145.537 181.625C146.942 182.177 146.861 182.147 148.313 182.725L151.665 181.157C152.878 181.367 153.298 181.437 154.515 181.647L155.839 184.013C157.638 183.987 157.501 183.987 159.293 183.962L160.407 181.558C161.601 181.312 162.014 181.231 163.209 180.988L166.693 182.453C168.12 181.823 168.013 181.871 169.436 181.242L168.924 180.48L167.884 178.923C168.603 178.323 168.85 178.113 169.569 177.51L173.887 177.517C174.399 176.524 174.358 176.601 174.871 175.607L172.109 174.577L171.243 174.253C171.213 173.524 171.202 173.27 171.169 172.538L174.665 171.08C174.665 171.08 174.661 171.073 174.657 171.069C174.067 170.101 174.111 170.171 173.514 169.2L169.204 169.332C168.846 169.063 168.599 168.879 168.36 168.699C168.076 168.489 167.807 168.287 167.394 167.974L168.736 165.607C167.257 165.022 167.368 165.066 165.889 164.481L162.538 166.049C161.325 165.839 160.901 165.766 159.688 165.56L158.361 163.189C156.565 163.219 156.701 163.215 154.906 163.241L153.796 165.644C152.601 165.884 152.185 165.968 150.994 166.215L147.506 164.75C146.083 165.379 146.19 165.331 144.763 165.964L146.311 168.287C145.854 168.67 145.585 168.89 145.272 169.155C145.091 169.306 144.888 169.476 144.626 169.693H140.309C139.8 170.683 139.837 170.609 139.328 171.599L142.949 172.954C142.982 173.686 142.993 173.94 143.026 174.669L142.086 175.059L139.524 176.122C140.125 177.098 140.08 177.024 140.678 177.999L144.991 177.867C145.762 178.445 146.027 178.651 146.798 179.229L145.489 181.529L145.5 181.533ZM163.338 174.146C162.453 176.06 159.039 177.197 155.717 176.682C154.039 176.42 152.705 175.795 151.916 174.985C151.938 174.912 151.971 174.842 152.004 174.772C152.893 172.862 156.307 171.724 159.625 172.236C161.303 172.497 162.637 173.123 163.426 173.933C163.404 174.006 163.371 174.076 163.338 174.146Z" fill="url(#paint73_linear_3009_25667)"/>
<path d="M151.912 174.985C151.134 174.194 150.876 173.233 151.315 172.287C152.207 170.374 155.617 169.24 158.936 169.752C162.132 170.249 164.075 172.085 163.423 173.929C162.63 173.123 161.299 172.494 159.621 172.232C156.303 171.721 152.889 172.858 152 174.768C151.967 174.838 151.934 174.912 151.912 174.982V174.985Z" fill="url(#paint74_linear_3009_25667)"/>
<path d="M472.332 129.417C492.3 117.909 492.3 80.5941 472.332 46.0709C452.364 11.5478 419.99 -7.10993 400.022 4.3978C380.054 15.9055 380.054 53.2209 400.022 87.7441C419.99 122.267 452.364 140.925 472.332 129.417Z" fill="url(#paint75_linear_3009_25667)"/>
<path d="M467.965 131.928C487.933 120.42 487.933 83.1048 467.965 48.5816C447.997 14.0585 415.623 -4.5992 395.655 6.90852C375.687 18.4162 375.687 55.7317 395.655 90.2548C415.623 124.778 447.997 143.436 467.965 131.928Z" fill="url(#paint76_linear_3009_25667)"/>
<path d="M463.766 124.664C481.413 114.493 481.413 81.5144 463.766 51.003C446.118 20.4915 417.506 4.00177 399.859 14.172C382.212 24.3423 382.212 57.3213 399.86 87.8327C417.507 118.344 446.119 134.834 463.766 124.664Z" fill="url(#paint77_linear_3009_25667)"/>
<path d="M458.082 114.841C472.592 106.478 472.592 79.363 458.082 54.2769C443.573 29.1908 420.048 15.6333 405.538 23.9956C391.028 32.3578 391.028 59.4731 405.537 84.5592C420.047 109.645 443.572 123.203 458.082 114.841Z" fill="url(#paint78_linear_3009_25667)"/>
<path d="M452.555 105.288C464.014 98.6844 464.014 77.2712 452.556 57.4607C441.098 37.6502 422.52 26.9442 411.061 33.5482C399.602 40.1522 399.601 61.5654 411.059 81.3759C422.518 101.186 441.096 111.892 452.555 105.288Z" fill="url(#paint79_linear_3009_25667)"/>
<path d="M446.482 94.7834C454.585 90.1134 454.586 74.9715 446.484 60.963C438.381 46.9545 425.244 39.3841 417.141 44.054C409.038 48.724 409.037 63.8659 417.139 77.8744C425.242 91.883 438.379 99.4534 446.482 94.7834Z" fill="url(#paint80_linear_3009_25667)"/>
<path d="M440.004 83.586C444.529 80.9781 444.529 72.521 440.003 64.6964C435.477 56.8718 428.14 52.6428 423.615 55.2507C419.09 57.8586 419.091 66.3157 423.616 74.1403C428.142 81.9649 435.479 86.1938 440.004 83.586Z" fill="url(#paint81_linear_3009_25667)"/>
<path d="M431.273 68.2012L369.847 103.603L365.696 101.634L344.484 113.857L349.078 116.503L344.484 127.025L366.223 114.497L369.847 108.005L431.963 72.2054C433.71 71.2191 433.581 68.9741 431.273 68.2012Z" fill="url(#paint82_linear_3009_25667)"/>
<path d="M131.016 375.835L190.067 408.756L197.489 404.476" stroke="url(#paint83_linear_3009_25667)" stroke-width="5.4" stroke-miterlimit="10"/>
<path d="M160.725 228.35C164.328 228.35 167.248 225.435 167.248 221.84C167.248 218.244 164.328 215.329 160.725 215.329C157.123 215.329 154.203 218.244 154.203 221.84C154.203 225.435 157.123 228.35 160.725 228.35Z" fill="url(#paint84_radial_3009_25667)"/>
<path d="M179.108 239.222C182.71 239.222 185.631 236.308 185.631 232.712C185.631 229.116 182.71 226.201 179.108 226.201C175.506 226.201 172.586 229.116 172.586 232.712C172.586 236.308 175.506 239.222 179.108 239.222Z" fill="url(#paint85_radial_3009_25667)"/>
<path d="M196.413 249.899C200.015 249.899 202.935 246.984 202.935 243.389C202.935 239.793 200.015 236.878 196.413 236.878C192.811 236.878 189.891 239.793 189.891 243.389C189.891 246.984 192.811 249.899 196.413 249.899Z" fill="url(#paint86_radial_3009_25667)"/>
<path d="M215.882 259.465C219.484 259.465 222.404 256.55 222.404 252.954C222.404 249.358 219.484 246.443 215.882 246.443C212.28 246.443 209.359 249.358 209.359 252.954C209.359 256.55 212.28 259.465 215.882 259.465Z" fill="url(#paint87_radial_3009_25667)"/>
<path d="M232.686 269.534C236.289 269.534 239.209 266.619 239.209 263.023C239.209 259.428 236.289 256.513 232.686 256.513C229.084 256.513 226.164 259.428 226.164 263.023C226.164 266.619 229.084 269.534 232.686 269.534Z" fill="url(#paint88_radial_3009_25667)"/>
<path d="M251.038 279.953C254.64 279.953 257.56 277.038 257.56 273.442C257.56 269.847 254.64 266.932 251.038 266.932C247.436 266.932 244.516 269.847 244.516 273.442C244.516 277.038 247.436 279.953 251.038 279.953Z" fill="url(#paint89_radial_3009_25667)"/>
<path d="M126.661 344.011L152.367 329.032V229.37L161.356 223.945C161.909 222.05 161.356 221.137 159.697 221.207L149.16 227.567V327.195L125.039 341.247L126.654 344.011H126.661Z" fill="url(#paint90_linear_3009_25667)"/>
<path d="M120.977 368.507L170.209 339.307V239.697L179.438 234.618C179.943 233.102 179.663 232.035 177.889 231.817L167.002 237.809V337.489L119.336 365.762L120.973 368.511L120.977 368.507Z" fill="url(#paint91_linear_3009_25667)"/>
<path d="M162.338 364.573L188.047 349.594V249.998L197.313 245.166C197.807 243.458 197.228 242.579 195.831 242.332L184.847 248.059V347.753L160.727 361.805L162.341 364.569L162.338 364.573Z" fill="url(#paint92_linear_3009_25667)"/>
<path d="M156.653 389.07L205.885 359.87V260.263L215.947 254.772C216.46 253.142 215.947 252.207 214.41 251.968L202.681 258.368V358.052L155.016 386.324L156.653 389.074V389.07Z" fill="url(#paint93_linear_3009_25667)"/>
<path d="M198.021 385.139L223.731 370.16V270.561L233.841 265.224C234.338 263.472 233.745 262.604 232.344 262.397L220.527 268.636V368.327L196.406 382.378L198.021 385.142V385.139Z" fill="url(#paint94_linear_3009_25667)"/>
<path d="M192.34 409.636L241.573 380.435V280.84L251.543 275.533C252.037 273.729 251.355 272.946 250.035 272.71L238.369 278.922V378.617L190.703 406.89L192.34 409.639V409.636Z" fill="url(#paint95_linear_3009_25667)"/>
<path d="M296.669 321.653C297.661 319.934 297.484 317.796 295.01 317.605C291.319 317.321 292.352 323.913 294.888 325.746C295.755 325.411 296.039 322.628 296.669 321.653Z" fill="#B2F4FF"/>
<path d="M270.098 336.764C274.865 333.183 285.694 337.718 287.677 336.356C289.635 335.013 291.339 325.37 292.013 323.717C292.375 322.83 294.775 322.646 296.143 324.487C297.522 326.342 294.273 338.903 290.723 340.964C288.429 342.296 279.385 344.324 275.411 343.135C270.923 341.792 268.571 337.913 270.098 336.764Z" fill="url(#paint96_linear_3009_25667)"/>
<path d="M308.299 342.866C309.98 341.81 310.828 339.837 308.73 338.516C305.6 336.543 303.425 342.852 304.807 345.652C305.729 345.763 307.285 343.437 308.299 342.866Z" fill="#B2F4FF"/>
<path d="M281.466 408.091C281.105 408.558 279.497 411.484 280.902 412.54C282.303 413.597 283.671 413.343 285.293 412.5C285.474 412.408 284.954 412.04 285.201 412.021C287.753 411.815 290.724 409.699 290.912 409.092C291.122 408.407 291.473 407.899 289.987 407.443C288.501 406.987 285.087 408.363 285.087 408.363L282.86 406.913C282.86 406.913 281.827 407.623 281.466 408.091Z" fill="#8C33FF"/>
<path d="M266.304 417.519C266.304 417.519 265.928 418.878 266.072 420.195C266.142 420.847 265.939 421.435 266.404 421.826C266.831 422.183 267.713 422.414 268.719 422.495C269.921 422.591 270.319 421.829 270.876 421.123C271.001 420.964 270.511 420.629 270.681 420.537C271.271 420.21 272.288 419.643 272.609 419.305C273.641 418.211 274.64 416.673 274.589 415.709C274.537 414.744 273.564 414.435 273.022 414.391C272.476 414.347 268.317 417.162 268.317 417.162L266.304 417.523V417.519Z" fill="#8C33FF"/>
<path d="M266.465 418.039C267.538 419.89 270.384 419.787 270.952 417.682C272.987 410.137 275.007 396.836 275.97 385.828C276.652 378.048 278.344 369.811 278.322 367.864C275.513 365.939 270.627 364.353 269.901 365.549C265.41 372.98 269.934 375.523 269.403 378.96C268.872 382.402 266.461 418.035 266.461 418.035L266.465 418.039Z" fill="url(#paint97_linear_3009_25667)"/>
<path d="M287.724 383.87C285.026 394.775 281.497 407.87 281.563 408.595C281.674 409.805 284.613 409.695 285.66 409.246C286.427 408.918 290.493 396.368 293.981 386.523C295.718 382.464 289.277 380.068 287.724 383.87Z" fill="url(#paint98_linear_3009_25667)"/>
<path d="M285.732 367.018C284.659 365.306 275.504 365.409 274.328 368.162C273.148 370.915 271.71 375.994 277.403 380.109C282.605 383.87 283.284 383.226 289.371 386.833C295.934 389.729 294.975 382.703 292.774 380.76C290.426 378.688 287.347 373.112 286.433 371.084C286.433 367.86 286.433 368.129 285.736 367.018H285.732Z" fill="url(#paint99_linear_3009_25667)"/>
<path d="M286.876 322.974C286.876 322.974 287.226 331.041 285.899 331.789C284.568 332.532 280.063 332.208 278.945 330.327C277.828 328.447 275.616 322.389 278.754 320.556C281.891 318.723 285.866 318.76 286.876 322.974Z" fill="#B2F4FF"/>
<path d="M285.669 353.175C288.04 345.291 291.218 339.355 287.243 337.629C286.971 337.511 286.702 337.404 286.432 337.294C283.756 343.245 279.656 348.538 281.082 355.582C282.366 358.92 284.025 362.954 286.425 365.997C286.919 362.034 285.665 353.175 285.665 353.175H285.669Z" fill="url(#paint100_linear_3009_25667)"/>
<path d="M286.436 337.294C282.783 335.793 279.449 334.983 276.751 334.784C273.853 334.567 270.567 333.901 269.388 337.813C268.208 341.729 270.597 357.706 269.907 365.549C274.428 369.317 282.864 368.942 285.751 367.805C286.101 367.595 286.315 366.933 286.433 365.998C284.032 362.954 282.373 358.92 281.09 355.582C279.663 348.534 283.763 343.246 286.44 337.294H286.436Z" fill="url(#paint101_linear_3009_25667)"/>
<path d="M286.488 337.416C292.214 339.087 292.225 350.492 294.5 351.265C296.749 352.03 301.837 343.661 303.208 342.517C303.942 341.902 306.151 342.863 306.497 345.126C306.847 347.408 296.398 358.066 292.619 356.458C290.178 355.42 286.683 349.631 285.26 345.741C283.652 341.346 284.648 336.882 286.484 337.416H286.488Z" fill="url(#paint102_linear_3009_25667)"/>
<path d="M276.812 335.748L278.553 328.642L283.774 329.414L282.568 336.448C282.568 336.448 277.683 339.348 276.816 335.748H276.812Z" fill="#B2F4FF"/>
<path d="M275.241 325.83C275.241 325.83 276.196 330.725 279.551 330.747C281.708 330.754 283.507 327.792 283.507 327.792L284.325 326.062L285.277 326.139L286.047 327.17C286.047 327.17 286.508 323.232 287.227 323.294C288.787 323.541 288.389 321.524 287.692 320.066C286.921 318.458 284.049 316.647 281.667 316.452C279.285 316.261 276.019 318.075 275.48 320.773C274.942 323.474 275.237 325.826 275.237 325.826L275.241 325.83Z" fill="#923DFF"/>
<path d="M275.777 335.289C275.777 335.289 276.212 332.974 277.02 333.257C277.827 333.541 278.871 336.283 281.894 335.201C283.372 334.406 283.52 335.09 283.52 335.09L283.948 336.356C283.948 336.356 281.669 337.508 281.47 337.928C280.968 338.454 277.326 339.227 276.216 337.177C276.216 337.177 275.574 336.102 275.784 335.293L275.777 335.289Z" fill="url(#paint103_linear_3009_25667)"/>
<path d="M279.599 138.328C279.599 138.328 285.307 147.916 284.492 149.045C283.677 150.175 279.172 156.057 270.367 155.287L270.581 153.705C270.581 153.705 280.499 149.995 279.957 149.093C279.371 147.599 278.209 144.515 278.209 144.515L276.583 141.659L279.599 138.328Z" fill="#B2F4FF"/>
<path d="M277.949 135.502C280.054 136.153 283.111 142.506 283.332 144.655C283.553 146.804 280.169 147.349 278.782 147.305C277.96 146.823 276.393 141.497 276.614 139.874C276.835 138.251 275.847 134.85 277.953 135.502H277.949Z" fill="url(#paint104_linear_3009_25667)"/>
<path style="mix-blend-mode:color-dodge" d="M271.244 223.327C277.833 223.327 283.175 220.249 283.175 216.452C283.175 212.655 277.833 209.577 271.244 209.577C264.654 209.577 259.312 212.655 259.312 216.452C259.312 220.249 264.654 223.327 271.244 223.327Z" fill="url(#paint105_linear_3009_25667)"/>
<path d="M278.404 215.149C278.072 215.679 278.422 216.776 278.061 216.942C277.886 217.037 277.722 217.055 277.567 216.993C277.338 216.905 277.323 215.256 277.172 215.477C276.239 216.644 275.303 214.461 275.483 213.596C275.668 212.731 276.328 213.776 276.287 213.162C276.162 211.925 277.522 212.054 278.179 212.429C278.813 212.967 278.735 214.619 278.404 215.149Z" fill="#8C33FF"/>
<path d="M270.978 213.754C270.978 213.754 271.222 214.39 271.247 215.391C271.273 216.37 270.923 219.039 270.547 219.289C270.171 219.539 270.123 219.381 270.123 219.381L269.636 217.11C269.636 217.11 269.514 219.79 264.095 218.947C263.165 218.689 264.216 217.894 264.216 217.894C264.216 217.894 268.217 215.241 268.379 214.95C268.541 214.659 268.744 214.221 268.744 214.221L270.975 213.75L270.978 213.754Z" fill="#8C33FF"/>
<path d="M280.117 162.976C280.117 162.976 281.868 167.043 278.653 178.632C276.127 187.734 278.752 212.628 278.752 212.628C278.752 212.628 277.075 214.314 275.825 213.118C275.014 209.581 270.401 182.559 270.556 176.969C270.711 171.382 269.745 164.168 271.15 163.966C272.555 163.764 279.785 160.738 280.117 162.976Z" fill="url(#paint106_linear_3009_25667)"/>
<path d="M263.527 163.344C263.527 163.344 262.174 173.284 263.711 185.982C264.563 193.008 268.659 214.306 268.659 214.306C268.659 214.306 270.768 214.648 271.196 213.964C271.019 211.553 269.422 190.277 272.427 176.21C273.758 169.913 273.88 165.048 273.382 164.323C271.867 162.114 264.393 160.322 263.527 163.344Z" fill="url(#paint107_linear_3009_25667)"/>
<path d="M276.399 165.04C278.309 164.989 282.114 164.109 280.215 161.82C274.932 150.76 279.596 138.747 278.704 136.311C277.845 133.967 272.952 131.162 268.314 133.326C263.827 135.424 261.707 138.008 263.152 146.2C264.785 155.442 261.124 164.44 262.864 164.867C264.269 165.508 268.059 165.147 269.892 165.014C271.92 164.867 274.49 165.095 276.399 165.044V165.04Z" fill="url(#paint108_linear_3009_25667)"/>
<path d="M271.603 125.778C271.603 125.778 273.052 132.62 273.118 133.474C271.736 134.327 268.768 134.224 268.406 133.768C268.307 132.355 267.945 126.797 267.945 126.797C267.945 126.797 269.033 124.99 271.603 125.778Z" fill="#B2F4FF"/>
<path d="M265.901 121.7C264.485 123.672 265.049 130.65 266.111 130.823C267.298 131.018 271.21 130.492 273.282 126.304C276.35 120.106 269.097 117.096 265.901 121.7Z" fill="#B2F4FF"/>
<path d="M263.553 122.69C263.553 122.69 264.965 124.39 267.527 123.511C267.56 127.732 267.818 126.47 267.818 126.47C267.818 126.47 269.349 124.578 269.555 125.826C269.758 127.073 268.965 129.539 268.965 129.539C268.965 129.539 271.233 130.746 272.449 129.848C273.666 128.947 276.951 125.049 275.222 120.883C273.493 116.717 267.49 118.031 266.51 118.745C265.477 119.127 265.149 117.622 265.149 117.622C265.149 117.622 262.273 121.601 263.556 122.694L263.553 122.69Z" fill="#923DFF"/>
<path d="M262.38 138.229C262.38 138.229 256.831 139.484 253.808 141.354C251.36 140.456 245.837 132.292 245.531 131.707C244.867 130.449 241.383 129.061 240.513 129.054C240.199 129.054 242.614 130.776 242.327 130.857C241.788 131.004 241.641 131.829 241.925 132.292C242.898 133.904 243.388 132.281 244.056 133.308C244.605 134.155 251.065 145.115 252.975 145.27C254.884 145.424 263.099 142.042 263.663 141.07C264.224 140.099 264.128 138.453 262.38 138.229Z" fill="#B2F4FF"/>
<path d="M256.548 145.276C256.548 145.276 261.51 144.614 263.97 144.412C265.433 144.29 266.96 138.328 264.792 135.634C261.204 136.646 255.703 139.914 255.703 139.914C255.703 139.914 255.501 145.402 256.548 145.276Z" fill="url(#paint109_linear_3009_25667)"/>
<path d="M0 364.083L31.3139 382.136L88.942 348.924L57.6244 330.875L0 364.083Z" fill="#8C33FF"/>
<path d="M0 354.975L31.3139 373.027L84.7425 342.233L53.4249 324.185L0 354.975Z" fill="url(#paint110_linear_3009_25667)"/>
<path d="M0 360.974L0.00368702 354.975L31.3175 373.027V379.026L0 360.974Z" fill="url(#paint111_linear_3009_25667)"/>
<path d="M84.7489 342.232L31.3203 373.026V379.025L84.7489 348.5V342.232Z" fill="url(#paint112_linear_3009_25667)"/>
<path d="M38.0234 339.454L47.6908 333.938L59.7768 340.846L50.1095 346.418L38.0234 339.454Z" fill="url(#paint113_linear_3009_25667)"/>
<path d="M38.0714 345.218L38.0234 339.447L50.1095 346.414L50.1574 352.181" fill="url(#paint114_linear_3009_25667)"/>
<path d="M50.1573 352.181L50.1094 346.414L59.7804 340.842L59.8763 346.583" fill="url(#paint115_linear_3009_25667)"/>
<g style="mix-blend-mode:color-dodge">
<path d="M38.0234 249.251L47.6908 243.734L59.7768 250.646L50.1095 256.218L38.0234 249.251Z" fill="#B77EFF"/>
</g>
<path d="M38.0714 345.218L38.0234 249.244L50.1095 256.211L50.1574 352.181L38.0714 345.218Z" fill="url(#paint116_linear_3009_25667)"/>
<path d="M59.7804 250.639L59.8763 346.583L50.1573 352.181L50.1094 256.211L59.7804 250.639Z" fill="url(#paint117_linear_3009_25667)"/>
<path d="M24.1016 328.534L33.7689 323.018L45.8587 329.929L36.1876 335.502L24.1016 328.534Z" fill="url(#paint118_linear_3009_25667)"/>
<path d="M24.1495 353.241L24.1016 328.527L36.1876 335.494L36.2355 360.205" fill="url(#paint119_linear_3009_25667)"/>
<path d="M36.2354 360.204L36.1875 335.494L45.8549 329.922L45.9507 354.606" fill="url(#paint120_linear_3009_25667)"/>
<path d="M24.1016 283.531L33.7689 278.014L45.8587 284.925L36.1876 290.498L24.1016 283.531Z" fill="url(#paint121_linear_3009_25667)"/>
<path d="M24.1495 353.241L24.1016 283.42L36.1876 290.383L36.2355 360.204L24.1495 353.241Z" fill="url(#paint122_linear_3009_25667)"/>
<path d="M45.8549 284.812L45.9507 354.607L36.2354 360.205L36.1875 290.498L45.8549 284.812Z" fill="url(#paint123_linear_3009_25667)"/>
<path d="M271.167 318.462L250.391 306.486V289.302L271.167 301.278V318.462Z" fill="#F1E7FF"/>
<path d="M260.777 302.544L250.391 289.302L271.167 301.278L260.777 302.544Z" fill="#C395FF"/>
<path d="M258.855 309.927L257.693 309.257L257.594 306.508L258.751 307.178L258.855 309.927Z" fill="#C699FF"/>
<path d="M260.959 311.138L259.798 310.468L259.617 305.632L260.779 306.302L260.959 311.138Z" fill="#C699FF"/>
<path d="M263.052 312.349L261.895 311.679L261.633 304.616L262.791 305.282L263.052 312.349Z" fill="#C699FF"/>
<path d="M265.155 313.56L263.994 312.89L263.695 304.76L264.853 305.43L265.155 313.56Z" fill="#C699FF"/>
<path d="M267.258 314.771L266.097 314.101L265.82 306.611L266.978 307.277L267.258 314.771Z" fill="#C699FF"/>
<path d="M269.353 315.981L268.195 315.311L267.797 304.55L268.955 305.22L269.353 315.981Z" fill="#C699FF"/>
<path d="M49.0938 391.312L80.4076 409.364L138.036 376.152L106.718 358.104L49.0938 391.312Z" fill="#8C33FF"/>
<path d="M49.0938 382.202L80.4076 400.255L133.836 369.461L102.519 351.412L49.0938 382.202Z" fill="url(#paint124_linear_3009_25667)"/>
<path d="M49.0938 388.205L49.0974 382.202L80.4113 400.255V406.254L49.0938 388.205Z" fill="url(#paint125_linear_3009_25667)"/>
<path d="M133.843 369.461L80.4141 400.255V406.254L133.843 375.729V369.461Z" fill="url(#paint126_linear_3009_25667)"/>
<path d="M87.1172 366.682L96.7845 361.165L108.871 368.077L99.2032 373.649L87.1172 366.682Z" fill="url(#paint127_linear_3009_25667)"/>
<path d="M87.1651 372.446L87.1172 366.675L99.2069 373.642L99.2512 379.413" fill="url(#paint128_linear_3009_25667)"/>
<path d="M99.2474 379.412L99.2031 373.641L108.87 368.069L108.966 373.811" fill="url(#paint129_linear_3009_25667)"/>
<g style="mix-blend-mode:color-dodge">
<path d="M87.1172 309.397L96.7845 303.88L108.871 310.792L99.2032 316.364L87.1172 309.397Z" fill="#B77EFF"/>
</g>
<path d="M87.1651 372.446L87.1172 309.39L99.2069 316.357L99.2512 379.413L87.1651 372.446Z" fill="url(#paint130_linear_3009_25667)"/>
<path d="M108.87 310.784L108.966 373.811L99.2474 379.413L99.2031 316.356L108.87 310.784Z" fill="url(#paint131_linear_3009_25667)"/>
<path d="M73.1953 355.766L82.8664 350.245L94.9524 357.157L85.2814 362.729L73.1953 355.766Z" fill="url(#paint132_linear_3009_25667)"/>
<path d="M73.2432 380.469L73.1953 355.759L85.2814 362.722L85.3293 387.436" fill="url(#paint133_linear_3009_25667)"/>
<path d="M85.3292 387.435L85.2812 362.722L94.9486 357.149L95.0445 381.834" fill="url(#paint134_linear_3009_25667)"/>
<path d="M73.1953 344.577L82.8664 339.061L94.9524 345.969L85.2814 351.541L73.1953 344.577Z" fill="url(#paint135_linear_3009_25667)"/>
<path d="M73.2432 380.469L73.1953 344.57L85.2814 351.537L85.3293 387.436L73.2432 380.469Z" fill="url(#paint136_linear_3009_25667)"/>
<path d="M94.9486 345.965L95.0445 381.834L85.3292 387.436L85.2812 351.537L94.9486 345.965Z" fill="url(#paint137_linear_3009_25667)"/>
</g>
<defs>
<linearGradient id="paint0_linear_3009_25667" x1="485.95" y1="265.003" x2="424.762" y2="208.786" gradientUnits="userSpaceOnUse">
<stop stop-color="#AB6AFF"/>
<stop offset="1" stop-color="#C395FF"/>
</linearGradient>
<linearGradient id="paint1_linear_3009_25667" x1="442.204" y1="273.646" x2="397.41" y2="232.488" gradientUnits="userSpaceOnUse">
<stop stop-color="#AB6AFF"/>
<stop offset="1" stop-color="#C395FF"/>
</linearGradient>
<linearGradient id="paint2_linear_3009_25667" x1="447.09" y1="321.328" x2="349.662" y2="231.812" gradientUnits="userSpaceOnUse">
<stop stop-color="#AB6AFF"/>
<stop offset="1" stop-color="#C395FF"/>
</linearGradient>
<linearGradient id="paint3_linear_3009_25667" x1="379.969" y1="141.346" x2="440.237" y2="141.346" gradientUnits="userSpaceOnUse">
<stop stop-color="#AB6AFF"/>
<stop offset="1" stop-color="#C395FF"/>
</linearGradient>
<linearGradient id="paint4_linear_3009_25667" x1="381.609" y1="142.38" x2="441.328" y2="142.38" gradientUnits="userSpaceOnUse">
<stop stop-color="#AB6AFF"/>
<stop offset="1" stop-color="#C395FF"/>
</linearGradient>
<linearGradient id="paint5_linear_3009_25667" x1="404.371" y1="185.559" x2="407.267" y2="177.396" gradientUnits="userSpaceOnUse">
<stop stop-color="#AB6AFF"/>
<stop offset="1" stop-color="#C395FF"/>
</linearGradient>
<linearGradient id="paint6_linear_3009_25667" x1="429.265" y1="192.541" x2="371.39" y2="164.215" gradientUnits="userSpaceOnUse">
<stop stop-color="#AB6AFF"/>
<stop offset="1" stop-color="#C395FF"/>
</linearGradient>
<linearGradient id="paint7_linear_3009_25667" x1="418.719" y1="184.94" x2="408.663" y2="156.608" gradientUnits="userSpaceOnUse">
<stop stop-color="#AB6AFF"/>
<stop offset="1" stop-color="#C395FF"/>
</linearGradient>
<linearGradient id="paint8_linear_3009_25667" x1="396.394" y1="171.37" x2="429.407" y2="155.215" gradientUnits="userSpaceOnUse">
<stop stop-color="#AB6AFF"/>
<stop offset="1" stop-color="#C395FF"/>
</linearGradient>
<linearGradient id="paint9_linear_3009_25667" x1="423.023" y1="168.728" x2="412.968" y2="140.4" gradientUnits="userSpaceOnUse">
<stop stop-color="#AB6AFF"/>
<stop offset="1" stop-color="#C395FF"/>
</linearGradient>
<linearGradient id="paint10_linear_3009_25667" x1="400.699" y1="155.162" x2="433.715" y2="139.007" gradientUnits="userSpaceOnUse">
<stop stop-color="#AB6AFF"/>
<stop offset="1" stop-color="#C395FF"/>
</linearGradient>
<linearGradient id="paint11_linear_3009_25667" x1="396.906" y1="135.129" x2="434.897" y2="135.129" gradientUnits="userSpaceOnUse">
<stop stop-color="#AB6AFF"/>
<stop offset="1" stop-color="#C395FF"/>
</linearGradient>
<linearGradient id="paint12_linear_3009_25667" x1="418.609" y1="164.279" x2="475.592" y2="164.279" gradientUnits="userSpaceOnUse">
<stop stop-color="#AB6AFF"/>
<stop offset="1" stop-color="#C395FF"/>
</linearGradient>
<linearGradient id="paint13_linear_3009_25667" x1="442.007" y1="122.374" x2="451.64" y2="183.091" gradientUnits="userSpaceOnUse">
<stop stop-color="#AB6AFF"/>
<stop offset="1" stop-color="#C395FF"/>
</linearGradient>
<linearGradient id="paint14_linear_3009_25667" x1="477.273" y1="121.976" x2="395.875" y2="121.976" gradientUnits="userSpaceOnUse">
<stop stop-color="#AB6AFF"/>
<stop offset="1" stop-color="#C395FF"/>
</linearGradient>
<linearGradient id="paint15_linear_3009_25667" x1="382.486" y1="256.614" x2="380.139" y2="282.732" gradientUnits="userSpaceOnUse">
<stop stop-color="#AB6AFF"/>
<stop offset="0.5" stop-color="#C497FF"/>
<stop offset="0.78" stop-color="#E4D0FF"/>
<stop offset="1" stop-color="white"/>
</linearGradient>
<linearGradient id="paint16_linear_3009_25667" x1="379.85" y1="284.705" x2="383.527" y2="244.074" gradientUnits="userSpaceOnUse">
<stop stop-color="#AB6AFF"/>
<stop offset="0.5" stop-color="#C497FF"/>
<stop offset="0.78" stop-color="#E4D0FF"/>
<stop offset="1" stop-color="white"/>
</linearGradient>
<linearGradient id="paint17_linear_3009_25667" x1="381.85" y1="262.29" x2="381.332" y2="270.918" gradientUnits="userSpaceOnUse">
<stop stop-color="#AB6AFF"/>
<stop offset="0.5" stop-color="#C497FF"/>
<stop offset="0.78" stop-color="#E4D0FF"/>
<stop offset="1" stop-color="white"/>
</linearGradient>
<linearGradient id="paint18_linear_3009_25667" x1="442.747" y1="269.703" x2="171.482" y2="160.378" gradientUnits="userSpaceOnUse">
<stop stop-color="#AB6AFF"/>
<stop offset="1" stop-color="#C395FF"/>
</linearGradient>
<linearGradient id="paint19_linear_3009_25667" x1="194.6" y1="267.557" x2="265.779" y2="228.913" gradientUnits="userSpaceOnUse">
<stop stop-color="#A560FF"/>
<stop offset="1" stop-color="#C497FF"/>
</linearGradient>
<linearGradient id="paint20_linear_3009_25667" x1="310.27" y1="278.672" x2="440.213" y2="208.122" gradientUnits="userSpaceOnUse">
<stop stop-color="#A560FF"/>
<stop offset="1" stop-color="#C497FF"/>
</linearGradient>
<linearGradient id="paint21_linear_3009_25667" x1="253.233" y1="190.144" x2="294.98" y2="209.866" gradientUnits="userSpaceOnUse">
<stop stop-color="#AB6AFF"/>
<stop offset="1" stop-color="#C395FF"/>
</linearGradient>
<linearGradient id="paint22_linear_3009_25667" x1="252.989" y1="159.012" x2="295.597" y2="179.14" gradientUnits="userSpaceOnUse">
<stop stop-color="#AB6AFF"/>
<stop offset="1" stop-color="#C395FF"/>
</linearGradient>
<linearGradient id="paint23_linear_3009_25667" x1="198.988" y1="62.423" x2="364.729" y2="140.714" gradientUnits="userSpaceOnUse">
<stop stop-color="#AB6AFF"/>
<stop offset="1" stop-color="#C395FF"/>
</linearGradient>
<linearGradient id="paint24_linear_3009_25667" x1="198.988" y1="62.423" x2="364.729" y2="140.714" gradientUnits="userSpaceOnUse">
<stop stop-color="#AB6AFF"/>
<stop offset="1" stop-color="#C395FF"/>
</linearGradient>
<linearGradient id="paint25_linear_3009_25667" x1="186.018" y1="123.624" x2="488.057" y2="-0.396064" gradientUnits="userSpaceOnUse">
<stop stop-color="white"/>
<stop offset="1" stop-color="#C395FF"/>
</linearGradient>
<linearGradient id="paint26_linear_3009_25667" x1="264.078" y1="223.721" x2="370.792" y2="223.721" gradientUnits="userSpaceOnUse">
<stop stop-color="#E5FBFF"/>
<stop offset="0.14" stop-color="#D8F9FF"/>
<stop offset="0.46" stop-color="#BFF5FF"/>
<stop offset="0.76" stop-color="#B1F3FF"/>
<stop offset="1" stop-color="#ACF3FF"/>
</linearGradient>
<linearGradient id="paint27_linear_3009_25667" x1="264.077" y1="219.565" x2="370.791" y2="219.565" gradientUnits="userSpaceOnUse">
<stop stop-color="#AB6AFF"/>
<stop offset="1" stop-color="#C395FF"/>
</linearGradient>
<linearGradient id="paint28_linear_3009_25667" x1="501.948" y1="253.094" x2="511.98" y2="231.02" gradientUnits="userSpaceOnUse">
<stop stop-color="#AB6AFF"/>
<stop offset="1" stop-color="#C395FF"/>
</linearGradient>
<linearGradient id="paint29_linear_3009_25667" x1="414.453" y1="291.793" x2="422.551" y2="273.98" gradientUnits="userSpaceOnUse">
<stop stop-color="#AB6AFF"/>
<stop offset="1" stop-color="#C395FF"/>
</linearGradient>
<linearGradient id="paint30_linear_3009_25667" x1="260.289" y1="343.168" x2="358.408" y2="343.168" gradientUnits="userSpaceOnUse">
<stop stop-color="#AB6AFF"/>
<stop offset="1" stop-color="#C395FF"/>
</linearGradient>
<linearGradient id="paint31_linear_3009_25667" x1="360.852" y1="343.565" x2="261.664" y2="343.565" gradientUnits="userSpaceOnUse">
<stop stop-color="#AB6AFF"/>
<stop offset="1" stop-color="#C395FF"/>
</linearGradient>
<linearGradient id="paint32_linear_3009_25667" x1="286.655" y1="438.354" x2="278.239" y2="414.639" gradientUnits="userSpaceOnUse">
<stop stop-color="#AB6AFF"/>
<stop offset="1" stop-color="#C395FF"/>
</linearGradient>
<linearGradient id="paint33_linear_3009_25667" x1="267.966" y1="426.997" x2="295.603" y2="413.473" gradientUnits="userSpaceOnUse">
<stop stop-color="#AB6AFF"/>
<stop offset="1" stop-color="#C395FF"/>
</linearGradient>
<linearGradient id="paint34_linear_3009_25667" x1="290.264" y1="424.785" x2="281.844" y2="401.07" gradientUnits="userSpaceOnUse">
<stop stop-color="#AB6AFF"/>
<stop offset="1" stop-color="#C395FF"/>
</linearGradient>
<linearGradient id="paint35_linear_3009_25667" x1="271.575" y1="413.427" x2="299.212" y2="399.903" gradientUnits="userSpaceOnUse">
<stop stop-color="#AB6AFF"/>
<stop offset="1" stop-color="#C395FF"/>
</linearGradient>
<linearGradient id="paint36_linear_3009_25667" x1="293.866" y1="411.218" x2="285.45" y2="387.5" gradientUnits="userSpaceOnUse">
<stop stop-color="#AB6AFF"/>
<stop offset="1" stop-color="#C395FF"/>
</linearGradient>
<linearGradient id="paint37_linear_3009_25667" x1="275.177" y1="399.861" x2="302.814" y2="386.333" gradientUnits="userSpaceOnUse">
<stop stop-color="#AB6AFF"/>
<stop offset="1" stop-color="#C395FF"/>
</linearGradient>
<linearGradient id="paint38_linear_3009_25667" x1="297.468" y1="397.649" x2="289.051" y2="373.93" gradientUnits="userSpaceOnUse">
<stop stop-color="#AB6AFF"/>
<stop offset="1" stop-color="#C395FF"/>
</linearGradient>
<linearGradient id="paint39_linear_3009_25667" x1="278.778" y1="386.291" x2="306.415" y2="372.763" gradientUnits="userSpaceOnUse">
<stop stop-color="#AB6AFF"/>
<stop offset="1" stop-color="#C395FF"/>
</linearGradient>
<linearGradient id="paint40_linear_3009_25667" x1="301.069" y1="384.079" x2="292.649" y2="360.364" gradientUnits="userSpaceOnUse">
<stop stop-color="#AB6AFF"/>
<stop offset="1" stop-color="#C395FF"/>
</linearGradient>
<linearGradient id="paint41_linear_3009_25667" x1="282.38" y1="372.721" x2="310.017" y2="359.197" gradientUnits="userSpaceOnUse">
<stop stop-color="#AB6AFF"/>
<stop offset="1" stop-color="#C395FF"/>
</linearGradient>
<linearGradient id="paint42_linear_3009_25667" x1="304.671" y1="370.509" x2="296.254" y2="346.794" gradientUnits="userSpaceOnUse">
<stop stop-color="#AB6AFF"/>
<stop offset="1" stop-color="#C395FF"/>
</linearGradient>
<linearGradient id="paint43_linear_3009_25667" x1="285.981" y1="359.152" x2="313.618" y2="345.628" gradientUnits="userSpaceOnUse">
<stop stop-color="#AB6AFF"/>
<stop offset="1" stop-color="#C395FF"/>
</linearGradient>
<linearGradient id="paint44_linear_3009_25667" x1="308.272" y1="356.944" x2="299.856" y2="333.225" gradientUnits="userSpaceOnUse">
<stop stop-color="#AB6AFF"/>
<stop offset="1" stop-color="#C395FF"/>
</linearGradient>
<linearGradient id="paint45_linear_3009_25667" x1="289.583" y1="345.586" x2="317.22" y2="332.059" gradientUnits="userSpaceOnUse">
<stop stop-color="#AB6AFF"/>
<stop offset="1" stop-color="#C395FF"/>
</linearGradient>
<linearGradient id="paint46_linear_3009_25667" x1="311.882" y1="343.374" x2="303.462" y2="319.656" gradientUnits="userSpaceOnUse">
<stop stop-color="#AB6AFF"/>
<stop offset="1" stop-color="#C395FF"/>
</linearGradient>
<linearGradient id="paint47_linear_3009_25667" x1="293.192" y1="332.016" x2="320.829" y2="318.488" gradientUnits="userSpaceOnUse">
<stop stop-color="#AB6AFF"/>
<stop offset="1" stop-color="#C395FF"/>
</linearGradient>
<linearGradient id="paint48_linear_3009_25667" x1="315.483" y1="329.804" x2="307.067" y2="306.089" gradientUnits="userSpaceOnUse">
<stop stop-color="#AB6AFF"/>
<stop offset="1" stop-color="#C395FF"/>
</linearGradient>
<linearGradient id="paint49_linear_3009_25667" x1="296.794" y1="318.447" x2="324.431" y2="304.923" gradientUnits="userSpaceOnUse">
<stop stop-color="#AB6AFF"/>
<stop offset="1" stop-color="#C395FF"/>
</linearGradient>
<linearGradient id="paint50_linear_3009_25667" x1="372.407" y1="347.226" x2="374.531" y2="377.934" gradientUnits="userSpaceOnUse">
<stop stop-color="#AB6AFF"/>
<stop offset="1" stop-color="#C395FF"/>
</linearGradient>
<linearGradient id="paint51_linear_3009_25667" x1="383.789" y1="355.641" x2="356.122" y2="369.18" gradientUnits="userSpaceOnUse">
<stop stop-color="#AB6AFF"/>
<stop offset="1" stop-color="#C395FF"/>
</linearGradient>
<linearGradient id="paint52_linear_3009_25667" x1="368.447" y1="337.408" x2="370.572" y2="368.117" gradientUnits="userSpaceOnUse">
<stop stop-color="#AB6AFF"/>
<stop offset="1" stop-color="#C395FF"/>
</linearGradient>
<linearGradient id="paint53_linear_3009_25667" x1="379.828" y1="345.822" x2="352.165" y2="359.365" gradientUnits="userSpaceOnUse">
<stop stop-color="#AB6AFF"/>
<stop offset="1" stop-color="#C395FF"/>
</linearGradient>
<linearGradient id="paint54_linear_3009_25667" x1="364.492" y1="327.589" x2="366.616" y2="358.298" gradientUnits="userSpaceOnUse">
<stop stop-color="#AB6AFF"/>
<stop offset="1" stop-color="#C395FF"/>
</linearGradient>
<linearGradient id="paint55_linear_3009_25667" x1="375.875" y1="336.006" x2="348.208" y2="349.545" gradientUnits="userSpaceOnUse">
<stop stop-color="#AB6AFF"/>
<stop offset="1" stop-color="#C395FF"/>
</linearGradient>
<linearGradient id="paint56_linear_3009_25667" x1="360.532" y1="317.773" x2="362.657" y2="348.481" gradientUnits="userSpaceOnUse">
<stop stop-color="#AB6AFF"/>
<stop offset="1" stop-color="#C395FF"/>
</linearGradient>
<linearGradient id="paint57_linear_3009_25667" x1="371.914" y1="326.187" x2="344.251" y2="339.73" gradientUnits="userSpaceOnUse">
<stop stop-color="#AB6AFF"/>
<stop offset="1" stop-color="#C395FF"/>
</linearGradient>
<linearGradient id="paint58_linear_3009_25667" x1="356.579" y1="307.958" x2="358.701" y2="338.663" gradientUnits="userSpaceOnUse">
<stop stop-color="#AB6AFF"/>
<stop offset="1" stop-color="#C395FF"/>
</linearGradient>
<linearGradient id="paint59_linear_3009_25667" x1="367.961" y1="316.372" x2="340.294" y2="329.911" gradientUnits="userSpaceOnUse">
<stop stop-color="#AB6AFF"/>
<stop offset="1" stop-color="#C395FF"/>
</linearGradient>
<linearGradient id="paint60_linear_3009_25667" x1="352.619" y1="298.14" x2="354.742" y2="328.845" gradientUnits="userSpaceOnUse">
<stop stop-color="#AB6AFF"/>
<stop offset="1" stop-color="#C395FF"/>
</linearGradient>
<linearGradient id="paint61_linear_3009_25667" x1="364" y1="306.551" x2="336.333" y2="320.09" gradientUnits="userSpaceOnUse">
<stop stop-color="#AB6AFF"/>
<stop offset="1" stop-color="#C395FF"/>
</linearGradient>
<linearGradient id="paint62_linear_3009_25667" x1="348.656" y1="288.322" x2="350.779" y2="319.027" gradientUnits="userSpaceOnUse">
<stop stop-color="#AB6AFF"/>
<stop offset="1" stop-color="#C395FF"/>
</linearGradient>
<linearGradient id="paint63_linear_3009_25667" x1="360.035" y1="296.732" x2="332.372" y2="310.275" gradientUnits="userSpaceOnUse">
<stop stop-color="#AB6AFF"/>
<stop offset="1" stop-color="#C395FF"/>
</linearGradient>
<linearGradient id="paint64_linear_3009_25667" x1="344.696" y1="278.504" x2="346.819" y2="309.21" gradientUnits="userSpaceOnUse">
<stop stop-color="#AB6AFF"/>
<stop offset="1" stop-color="#C395FF"/>
</linearGradient>
<linearGradient id="paint65_linear_3009_25667" x1="356.078" y1="286.917" x2="328.411" y2="300.456" gradientUnits="userSpaceOnUse">
<stop stop-color="#AB6AFF"/>
<stop offset="1" stop-color="#C395FF"/>
</linearGradient>
<linearGradient id="paint66_linear_3009_25667" x1="293.617" y1="301.679" x2="325.418" y2="301.679" gradientUnits="userSpaceOnUse">
<stop stop-color="#AB6AFF"/>
<stop offset="1" stop-color="#C395FF"/>
</linearGradient>
<linearGradient id="paint67_linear_3009_25667" x1="292.859" y1="361.938" x2="390.978" y2="361.938" gradientUnits="userSpaceOnUse">
<stop stop-color="#AB6AFF"/>
<stop offset="1" stop-color="#C395FF"/>
</linearGradient>
<linearGradient id="paint68_linear_3009_25667" x1="393.427" y1="362.335" x2="294.242" y2="362.335" gradientUnits="userSpaceOnUse">
<stop stop-color="#AB6AFF"/>
<stop offset="1" stop-color="#C395FF"/>
</linearGradient>
<linearGradient id="paint69_linear_3009_25667" x1="360.894" y1="290.667" x2="292.758" y2="290.667" gradientUnits="userSpaceOnUse">
<stop stop-color="#AB6AFF"/>
<stop offset="1" stop-color="#C395FF"/>
</linearGradient>
<linearGradient id="paint70_linear_3009_25667" x1="439.558" y1="356.895" x2="454.869" y2="323.217" gradientUnits="userSpaceOnUse">
<stop stop-color="#AB6AFF"/>
<stop offset="1" stop-color="#C395FF"/>
</linearGradient>
<linearGradient id="paint71_linear_3009_25667" x1="415.568" y1="327.673" x2="468.104" y2="327.673" gradientUnits="userSpaceOnUse">
<stop stop-color="#E5FBFF"/>
<stop offset="0.14" stop-color="#D8F9FF"/>
<stop offset="0.46" stop-color="#BFF5FF"/>
<stop offset="0.76" stop-color="#B1F3FF"/>
<stop offset="1" stop-color="#ACF3FF"/>
</linearGradient>
<linearGradient id="paint72_linear_3009_25667" x1="158.571" y1="158.522" x2="155.703" y2="190.433" gradientUnits="userSpaceOnUse">
<stop stop-color="#AB6AFF"/>
<stop offset="0.5" stop-color="#C497FF"/>
<stop offset="0.78" stop-color="#E4D0FF"/>
<stop offset="1" stop-color="white"/>
</linearGradient>
<linearGradient id="paint73_linear_3009_25667" x1="155.36" y1="192.847" x2="159.852" y2="143.197" gradientUnits="userSpaceOnUse">
<stop stop-color="#AB6AFF"/>
<stop offset="0.5" stop-color="#C497FF"/>
<stop offset="0.78" stop-color="#E4D0FF"/>
<stop offset="1" stop-color="white"/>
</linearGradient>
<linearGradient id="paint74_linear_3009_25667" x1="157.79" y1="165.453" x2="157.16" y2="175.998" gradientUnits="userSpaceOnUse">
<stop stop-color="#AB6AFF"/>
<stop offset="0.5" stop-color="#C497FF"/>
<stop offset="0.78" stop-color="#E4D0FF"/>
<stop offset="1" stop-color="white"/>
</linearGradient>
<linearGradient id="paint75_linear_3009_25667" x1="369.929" y1="-17.6335" x2="502.439" y2="152.069" gradientUnits="userSpaceOnUse">
<stop stop-color="#AB6AFF"/>
<stop offset="0.96" stop-color="#8C33FF"/>
<stop offset="1" stop-color="#C395FF"/>
</linearGradient>
<linearGradient id="paint76_linear_3009_25667" x1="368.612" y1="89.9006" x2="606.764" y2="12.4344" gradientUnits="userSpaceOnUse">
<stop stop-color="#AB6AFF"/>
<stop offset="0.5" stop-color="#C497FF"/>
<stop offset="1" stop-color="#C395FF"/>
</linearGradient>
<linearGradient id="paint77_linear_3009_25667" x1="299.376" y1="44.6653" x2="509.294" y2="69.677" gradientUnits="userSpaceOnUse">
<stop stop-color="#AB6AFF"/>
<stop offset="0.5" stop-color="#C497FF"/>
<stop offset="1" stop-color="#C395FF"/>
</linearGradient>
<linearGradient id="paint78_linear_3009_25667" x1="394.658" y1="69.4153" x2="468.966" y2="69.4153" gradientUnits="userSpaceOnUse">
<stop stop-color="#E5FBFF"/>
<stop offset="0.14" stop-color="#D8F9FF"/>
<stop offset="0.46" stop-color="#BFF5FF"/>
<stop offset="0.76" stop-color="#B1F3FF"/>
<stop offset="1" stop-color="#ACF3FF"/>
</linearGradient>
<linearGradient id="paint79_linear_3009_25667" x1="351.849" y1="59.997" x2="505.121" y2="55.0135" gradientUnits="userSpaceOnUse">
<stop stop-color="#AB6AFF"/>
<stop offset="0.5" stop-color="#C497FF"/>
<stop offset="1" stop-color="#C395FF"/>
</linearGradient>
<linearGradient id="paint80_linear_3009_25667" x1="390.692" y1="12.9782" x2="448.363" y2="134.902" gradientUnits="userSpaceOnUse">
<stop stop-color="#AB6AFF"/>
<stop offset="0.5" stop-color="#C497FF"/>
<stop offset="1" stop-color="#C395FF"/>
</linearGradient>
<linearGradient id="paint81_linear_3009_25667" x1="420.223" y1="69.4156" x2="443.4" y2="69.4156" gradientUnits="userSpaceOnUse">
<stop stop-color="#E5FBFF"/>
<stop offset="0.14" stop-color="#D8F9FF"/>
<stop offset="0.46" stop-color="#BFF5FF"/>
<stop offset="0.76" stop-color="#B1F3FF"/>
<stop offset="1" stop-color="#ACF3FF"/>
</linearGradient>
<linearGradient id="paint82_linear_3009_25667" x1="439.079" y1="67.7522" x2="319.654" y2="134.222" gradientUnits="userSpaceOnUse">
<stop stop-color="#AB6AFF"/>
<stop offset="0.5" stop-color="#C497FF"/>
<stop offset="1" stop-color="#F7F1FF"/>
</linearGradient>
<linearGradient id="paint83_linear_3009_25667" x1="130.529" y1="392.43" x2="197.987" y2="392.43" gradientUnits="userSpaceOnUse">
<stop stop-color="#AB6AFF"/>
<stop offset="1" stop-color="#C395FF"/>
</linearGradient>
<radialGradient id="paint84_radial_3009_25667" cx="0" cy="0" r="1" gradientUnits="userSpaceOnUse" gradientTransform="translate(160.725 221.84) scale(6.52234 6.51063)">
<stop stop-color="white"/>
<stop offset="0.25" stop-color="white"/>
<stop offset="0.29" stop-color="white"/>
<stop offset="0.35" stop-color="#F0FDFF"/>
<stop offset="0.44" stop-color="#D8FAFF"/>
<stop offset="0.47" stop-color="#D7F9FF" stop-opacity="0.94"/>
<stop offset="0.54" stop-color="#D6F9FF" stop-opacity="0.78"/>
<stop offset="0.6" stop-color="#D6F9FF" stop-opacity="0.6"/>
<stop offset="0.79" stop-color="#CCC9FF" stop-opacity="0.33"/>
<stop offset="1" stop-color="#C08FFF" stop-opacity="0"/>
</radialGradient>
<radialGradient id="paint85_radial_3009_25667" cx="0" cy="0" r="1" gradientUnits="userSpaceOnUse" gradientTransform="translate(179.108 232.712) scale(6.52234 6.51063)">
<stop stop-color="white"/>
<stop offset="0.25" stop-color="white"/>
<stop offset="0.29" stop-color="white"/>
<stop offset="0.35" stop-color="#F0FDFF"/>
<stop offset="0.44" stop-color="#D8FAFF"/>
<stop offset="0.47" stop-color="#D7F9FF" stop-opacity="0.94"/>
<stop offset="0.54" stop-color="#D6F9FF" stop-opacity="0.78"/>
<stop offset="0.6" stop-color="#D6F9FF" stop-opacity="0.6"/>
<stop offset="0.79" stop-color="#CCC9FF" stop-opacity="0.33"/>
<stop offset="1" stop-color="#C08FFF" stop-opacity="0"/>
</radialGradient>
<radialGradient id="paint86_radial_3009_25667" cx="0" cy="0" r="1" gradientUnits="userSpaceOnUse" gradientTransform="translate(196.413 243.389) scale(6.52234 6.51063)">
<stop stop-color="white"/>
<stop offset="0.25" stop-color="white"/>
<stop offset="0.29" stop-color="white"/>
<stop offset="0.35" stop-color="#F0FDFF"/>
<stop offset="0.44" stop-color="#D8FAFF"/>
<stop offset="0.47" stop-color="#D7F9FF" stop-opacity="0.94"/>
<stop offset="0.54" stop-color="#D6F9FF" stop-opacity="0.78"/>
<stop offset="0.6" stop-color="#D6F9FF" stop-opacity="0.6"/>
<stop offset="0.79" stop-color="#CCC9FF" stop-opacity="0.33"/>
<stop offset="1" stop-color="#C08FFF" stop-opacity="0"/>
</radialGradient>
<radialGradient id="paint87_radial_3009_25667" cx="0" cy="0" r="1" gradientUnits="userSpaceOnUse" gradientTransform="translate(215.882 252.954) scale(6.52234 6.51063)">
<stop stop-color="white"/>
<stop offset="0.25" stop-color="white"/>
<stop offset="0.29" stop-color="white"/>
<stop offset="0.35" stop-color="#F0FDFF"/>
<stop offset="0.44" stop-color="#D8FAFF"/>
<stop offset="0.47" stop-color="#D7F9FF" stop-opacity="0.94"/>
<stop offset="0.54" stop-color="#D6F9FF" stop-opacity="0.78"/>
<stop offset="0.6" stop-color="#D6F9FF" stop-opacity="0.6"/>
<stop offset="0.79" stop-color="#CCC9FF" stop-opacity="0.33"/>
<stop offset="1" stop-color="#C08FFF" stop-opacity="0"/>
</radialGradient>
<radialGradient id="paint88_radial_3009_25667" cx="0" cy="0" r="1" gradientUnits="userSpaceOnUse" gradientTransform="translate(232.686 263.023) scale(6.52234 6.51063)">
<stop stop-color="white"/>
<stop offset="0.25" stop-color="white"/>
<stop offset="0.29" stop-color="white"/>
<stop offset="0.35" stop-color="#F0FDFF"/>
<stop offset="0.44" stop-color="#D8FAFF"/>
<stop offset="0.47" stop-color="#D7F9FF" stop-opacity="0.94"/>
<stop offset="0.54" stop-color="#D6F9FF" stop-opacity="0.78"/>
<stop offset="0.6" stop-color="#D6F9FF" stop-opacity="0.6"/>
<stop offset="0.79" stop-color="#CCC9FF" stop-opacity="0.33"/>
<stop offset="1" stop-color="#C08FFF" stop-opacity="0"/>
</radialGradient>
<radialGradient id="paint89_radial_3009_25667" cx="0" cy="0" r="1" gradientUnits="userSpaceOnUse" gradientTransform="translate(251.038 273.442) scale(6.52234 6.51062)">
<stop stop-color="white"/>
<stop offset="0.25" stop-color="white"/>
<stop offset="0.29" stop-color="white"/>
<stop offset="0.35" stop-color="#F0FDFF"/>
<stop offset="0.44" stop-color="#D8FAFF"/>
<stop offset="0.47" stop-color="#D7F9FF" stop-opacity="0.94"/>
<stop offset="0.54" stop-color="#D6F9FF" stop-opacity="0.78"/>
<stop offset="0.6" stop-color="#D6F9FF" stop-opacity="0.6"/>
<stop offset="0.79" stop-color="#CCC9FF" stop-opacity="0.33"/>
<stop offset="1" stop-color="#C08FFF" stop-opacity="0"/>
</radialGradient>
<linearGradient id="paint90_linear_3009_25667" x1="124.339" y1="282.772" x2="160.893" y2="282.772" gradientUnits="userSpaceOnUse">
<stop stop-color="#AB6AFF"/>
<stop offset="1" stop-color="#C395FF"/>
</linearGradient>
<linearGradient id="paint91_linear_3009_25667" x1="120.327" y1="299.979" x2="180.448" y2="299.979" gradientUnits="userSpaceOnUse">
<stop stop-color="#AB6AFF"/>
<stop offset="1" stop-color="#C395FF"/>
</linearGradient>
<linearGradient id="paint92_linear_3009_25667" x1="160.541" y1="303.384" x2="197.37" y2="303.384" gradientUnits="userSpaceOnUse">
<stop stop-color="#AB6AFF"/>
<stop offset="1" stop-color="#C395FF"/>
</linearGradient>
<linearGradient id="paint93_linear_3009_25667" x1="154.694" y1="320.779" x2="215.652" y2="320.779" gradientUnits="userSpaceOnUse">
<stop stop-color="#AB6AFF"/>
<stop offset="1" stop-color="#C395FF"/>
</linearGradient>
<linearGradient id="paint94_linear_3009_25667" x1="196.942" y1="323.505" x2="234.619" y2="323.505" gradientUnits="userSpaceOnUse">
<stop stop-color="#AB6AFF"/>
<stop offset="1" stop-color="#C395FF"/>
</linearGradient>
<linearGradient id="paint95_linear_3009_25667" x1="190.902" y1="341.018" x2="251.765" y2="341.018" gradientUnits="userSpaceOnUse">
<stop stop-color="#AB6AFF"/>
<stop offset="1" stop-color="#C395FF"/>
</linearGradient>
<linearGradient id="paint96_linear_3009_25667" x1="278.897" y1="317.093" x2="288.512" y2="350.823" gradientUnits="userSpaceOnUse">
<stop stop-color="#E5FBFF"/>
<stop offset="0.14" stop-color="#D8F9FF"/>
<stop offset="0.46" stop-color="#BFF5FF"/>
<stop offset="0.76" stop-color="#B1F3FF"/>
<stop offset="1" stop-color="#ACF3FF"/>
</linearGradient>
<linearGradient id="paint97_linear_3009_25667" x1="266.233" y1="391.926" x2="276.336" y2="392.746" gradientUnits="userSpaceOnUse">
<stop stop-color="#29E1FF"/>
<stop offset="0.17" stop-color="#45B2FF"/>
<stop offset="0.36" stop-color="#5F87FF"/>
<stop offset="0.54" stop-color="#7465FF"/>
<stop offset="0.71" stop-color="#824CFF"/>
<stop offset="0.87" stop-color="#8B3EFF"/>
<stop offset="1" stop-color="#8F39FF"/>
</linearGradient>
<linearGradient id="paint98_linear_3009_25667" x1="278.216" y1="400.505" x2="300.325" y2="389.074" gradientUnits="userSpaceOnUse">
<stop stop-color="#29E1FF"/>
<stop offset="0.17" stop-color="#45B2FF"/>
<stop offset="0.36" stop-color="#5F87FF"/>
<stop offset="0.54" stop-color="#7465FF"/>
<stop offset="0.71" stop-color="#824CFF"/>
<stop offset="0.87" stop-color="#8B3EFF"/>
<stop offset="1" stop-color="#8F39FF"/>
</linearGradient>
<linearGradient id="paint99_linear_3009_25667" x1="270.921" y1="384.062" x2="291.958" y2="373.185" gradientUnits="userSpaceOnUse">
<stop stop-color="#29E1FF"/>
<stop offset="0.17" stop-color="#45B2FF"/>
<stop offset="0.36" stop-color="#5F87FF"/>
<stop offset="0.54" stop-color="#7465FF"/>
<stop offset="0.71" stop-color="#824CFF"/>
<stop offset="0.87" stop-color="#8B3EFF"/>
<stop offset="1" stop-color="#8F39FF"/>
</linearGradient>
<linearGradient id="paint100_linear_3009_25667" x1="301.122" y1="345.179" x2="268.618" y2="359.593" gradientUnits="userSpaceOnUse">
<stop stop-color="#E5FBFF"/>
<stop offset="0.14" stop-color="#D8F9FF"/>
<stop offset="0.46" stop-color="#BFF5FF"/>
<stop offset="0.76" stop-color="#B1F3FF"/>
<stop offset="1" stop-color="#ACF3FF"/>
</linearGradient>
<linearGradient id="paint101_linear_3009_25667" x1="256.34" y1="325.398" x2="304.304" y2="382.798" gradientUnits="userSpaceOnUse">
<stop stop-color="#E5FBFF"/>
<stop offset="0.14" stop-color="#D8F9FF"/>
<stop offset="0.46" stop-color="#BFF5FF"/>
<stop offset="0.76" stop-color="#B1F3FF"/>
<stop offset="1" stop-color="#ACF3FF"/>
</linearGradient>
<linearGradient id="paint102_linear_3009_25667" x1="305.359" y1="329.652" x2="281.968" y2="360.38" gradientUnits="userSpaceOnUse">
<stop stop-color="#E5FBFF"/>
<stop offset="0.14" stop-color="#D8F9FF"/>
<stop offset="0.46" stop-color="#BFF5FF"/>
<stop offset="0.76" stop-color="#B1F3FF"/>
<stop offset="1" stop-color="#ACF3FF"/>
</linearGradient>
<linearGradient id="paint103_linear_3009_25667" x1="280.152" y1="333.16" x2="279.455" y2="339.636" gradientUnits="userSpaceOnUse">
<stop stop-color="#E5FBFF"/>
<stop offset="0.14" stop-color="#D8F9FF"/>
<stop offset="0.46" stop-color="#BFF5FF"/>
<stop offset="0.76" stop-color="#B1F3FF"/>
<stop offset="1" stop-color="#ACF3FF"/>
</linearGradient>
<linearGradient id="paint104_linear_3009_25667" x1="283.343" y1="141.365" x2="276.566" y2="141.365" gradientUnits="userSpaceOnUse">
<stop stop-color="#E5FBFF"/>
<stop offset="0.14" stop-color="#D8F9FF"/>
<stop offset="0.46" stop-color="#BFF5FF"/>
<stop offset="0.76" stop-color="#B1F3FF"/>
<stop offset="1" stop-color="#ACF3FF"/>
</linearGradient>
<linearGradient id="paint105_linear_3009_25667" x1="254.615" y1="213.066" x2="295.908" y2="221.512" gradientUnits="userSpaceOnUse">
<stop stop-color="#B57CFF"/>
<stop offset="0.03" stop-color="#B883FF" stop-opacity="0.94"/>
<stop offset="0.17" stop-color="#C79DFF" stop-opacity="0.69"/>
<stop offset="0.3" stop-color="#D4B4FF" stop-opacity="0.48"/>
<stop offset="0.42" stop-color="#DFC7FF" stop-opacity="0.31"/>
<stop offset="0.55" stop-color="#E7D6FF" stop-opacity="0.17"/>
<stop offset="0.66" stop-color="#EDE0FF" stop-opacity="0.08"/>
<stop offset="0.77" stop-color="#F0E6FF" stop-opacity="0.02"/>
<stop offset="0.85" stop-color="#F2E9FF" stop-opacity="0"/>
</linearGradient>
<linearGradient id="paint106_linear_3009_25667" x1="286.27" y1="165.475" x2="274.179" y2="189.702" gradientUnits="userSpaceOnUse">
<stop stop-color="#29E1FF"/>
<stop offset="0.17" stop-color="#45B2FF"/>
<stop offset="0.36" stop-color="#5F87FF"/>
<stop offset="0.54" stop-color="#7465FF"/>
<stop offset="0.71" stop-color="#824CFF"/>
<stop offset="0.87" stop-color="#8B3EFF"/>
<stop offset="1" stop-color="#8F39FF"/>
</linearGradient>
<linearGradient id="paint107_linear_3009_25667" x1="254.442" y1="163.936" x2="277.398" y2="199.203" gradientUnits="userSpaceOnUse">
<stop stop-color="#29E1FF"/>
<stop offset="0.17" stop-color="#45B2FF"/>
<stop offset="0.36" stop-color="#5F87FF"/>
<stop offset="0.54" stop-color="#7465FF"/>
<stop offset="0.71" stop-color="#824CFF"/>
<stop offset="0.87" stop-color="#8B3EFF"/>
<stop offset="1" stop-color="#8F39FF"/>
</linearGradient>
<linearGradient id="paint108_linear_3009_25667" x1="280.735" y1="148.891" x2="262.385" y2="148.891" gradientUnits="userSpaceOnUse">
<stop stop-color="#E5FBFF"/>
<stop offset="0.14" stop-color="#D8F9FF"/>
<stop offset="0.46" stop-color="#BFF5FF"/>
<stop offset="0.76" stop-color="#B1F3FF"/>
<stop offset="1" stop-color="#ACF3FF"/>
</linearGradient>
<linearGradient id="paint109_linear_3009_25667" x1="266.829" y1="143.219" x2="252.561" y2="136.814" gradientUnits="userSpaceOnUse">
<stop stop-color="#E5FBFF"/>
<stop offset="0.14" stop-color="#D8F9FF"/>
<stop offset="0.46" stop-color="#BFF5FF"/>
<stop offset="0.76" stop-color="#B1F3FF"/>
<stop offset="1" stop-color="#ACF3FF"/>
</linearGradient>
<linearGradient id="paint110_linear_3009_25667" x1="23.3683" y1="374.75" x2="54.4246" y2="331.864" gradientUnits="userSpaceOnUse">
<stop stop-color="#AB6AFF"/>
<stop offset="1" stop-color="#C699FF"/>
</linearGradient>
<linearGradient id="paint111_linear_3009_25667" x1="0" y1="366.998" x2="31.3175" y2="366.998" gradientUnits="userSpaceOnUse">
<stop stop-color="#AB6AFF"/>
<stop offset="1" stop-color="#C699FF"/>
</linearGradient>
<linearGradient id="paint112_linear_3009_25667" x1="39.2253" y1="370.803" x2="90.6909" y2="342.862" gradientUnits="userSpaceOnUse">
<stop stop-color="#A560FF"/>
<stop offset="1" stop-color="#C497FF"/>
</linearGradient>
<linearGradient id="paint113_linear_3009_25667" x1="61.4176" y1="345.203" x2="39.2881" y2="336.284" gradientUnits="userSpaceOnUse">
<stop stop-color="#AB6AFF"/>
<stop offset="1" stop-color="#C395FF"/>
</linearGradient>
<linearGradient id="paint114_linear_3009_25667" x1="39.7232" y1="337.445" x2="50.6684" y2="358.487" gradientUnits="userSpaceOnUse">
<stop stop-color="#AB6AFF"/>
<stop offset="1" stop-color="#C395FF"/>
</linearGradient>
<linearGradient id="paint115_linear_3009_25667" x1="50.1131" y1="346.513" x2="59.8763" y2="346.513" gradientUnits="userSpaceOnUse">
<stop stop-color="#AB6AFF"/>
<stop offset="1" stop-color="#C395FF"/>
</linearGradient>
<linearGradient id="paint116_linear_3009_25667" x1="38.0234" y1="300.715" x2="50.1574" y2="300.715" gradientUnits="userSpaceOnUse">
<stop stop-color="#E5FBFF"/>
<stop offset="0.14" stop-color="#D8F9FF"/>
<stop offset="0.46" stop-color="#BFF5FF"/>
<stop offset="0.76" stop-color="#B1F3FF"/>
<stop offset="1" stop-color="#ACF3FF"/>
</linearGradient>
<linearGradient id="paint117_linear_3009_25667" x1="50.1094" y1="301.41" x2="59.8763" y2="301.41" gradientUnits="userSpaceOnUse">
<stop stop-color="#E5FBFF"/>
<stop offset="0.14" stop-color="#D8F9FF"/>
<stop offset="0.46" stop-color="#BFF5FF"/>
<stop offset="0.76" stop-color="#B1F3FF"/>
<stop offset="1" stop-color="#ACF3FF"/>
</linearGradient>
<linearGradient id="paint118_linear_3009_25667" x1="47.4957" y1="334.287" x2="25.3662" y2="325.368" gradientUnits="userSpaceOnUse">
<stop stop-color="#AB6AFF"/>
<stop offset="1" stop-color="#C395FF"/>
</linearGradient>
<linearGradient id="paint119_linear_3009_25667" x1="21.4543" y1="327.673" x2="43.2823" y2="369.636" gradientUnits="userSpaceOnUse">
<stop stop-color="#AB6AFF"/>
<stop offset="1" stop-color="#C395FF"/>
</linearGradient>
<linearGradient id="paint120_linear_3009_25667" x1="36.1875" y1="345.063" x2="45.9507" y2="345.063" gradientUnits="userSpaceOnUse">
<stop stop-color="#AB6AFF"/>
<stop offset="1" stop-color="#C395FF"/>
</linearGradient>
<linearGradient id="paint121_linear_3009_25667" x1="24.1016" y1="284.256" x2="45.8587" y2="284.256" gradientUnits="userSpaceOnUse">
<stop stop-color="#E5FBFF"/>
<stop offset="0.14" stop-color="#D8F9FF"/>
<stop offset="0.46" stop-color="#BFF5FF"/>
<stop offset="0.76" stop-color="#B1F3FF"/>
<stop offset="1" stop-color="#ACF3FF"/>
</linearGradient>
<linearGradient id="paint122_linear_3009_25667" x1="24.1016" y1="321.81" x2="36.2355" y2="321.81" gradientUnits="userSpaceOnUse">
<stop stop-color="#E5FBFF"/>
<stop offset="0.14" stop-color="#D8F9FF"/>
<stop offset="0.46" stop-color="#BFF5FF"/>
<stop offset="0.76" stop-color="#B1F3FF"/>
<stop offset="1" stop-color="#ACF3FF"/>
</linearGradient>
<linearGradient id="paint123_linear_3009_25667" x1="36.1875" y1="322.51" x2="45.9507" y2="322.51" gradientUnits="userSpaceOnUse">
<stop stop-color="#E5FBFF"/>
<stop offset="0.14" stop-color="#D8F9FF"/>
<stop offset="0.46" stop-color="#BFF5FF"/>
<stop offset="0.76" stop-color="#B1F3FF"/>
<stop offset="1" stop-color="#ACF3FF"/>
</linearGradient>
<linearGradient id="paint124_linear_3009_25667" x1="72.4621" y1="401.977" x2="103.518" y2="359.095" gradientUnits="userSpaceOnUse">
<stop stop-color="#AB6AFF"/>
<stop offset="1" stop-color="#C699FF"/>
</linearGradient>
<linearGradient id="paint125_linear_3009_25667" x1="49.0938" y1="394.226" x2="80.4113" y2="394.226" gradientUnits="userSpaceOnUse">
<stop stop-color="#AB6AFF"/>
<stop offset="1" stop-color="#C699FF"/>
</linearGradient>
<linearGradient id="paint126_linear_3009_25667" x1="88.319" y1="398.032" x2="139.785" y2="370.09" gradientUnits="userSpaceOnUse">
<stop stop-color="#A560FF"/>
<stop offset="1" stop-color="#C497FF"/>
</linearGradient>
<linearGradient id="paint127_linear_3009_25667" x1="110.511" y1="372.434" x2="88.3819" y2="363.515" gradientUnits="userSpaceOnUse">
<stop stop-color="#AB6AFF"/>
<stop offset="1" stop-color="#C395FF"/>
</linearGradient>
<linearGradient id="paint128_linear_3009_25667" x1="88.8169" y1="364.673" x2="99.7622" y2="385.715" gradientUnits="userSpaceOnUse">
<stop stop-color="#AB6AFF"/>
<stop offset="1" stop-color="#C395FF"/>
</linearGradient>
<linearGradient id="paint129_linear_3009_25667" x1="99.2031" y1="373.741" x2="108.966" y2="373.741" gradientUnits="userSpaceOnUse">
<stop stop-color="#AB6AFF"/>
<stop offset="1" stop-color="#C395FF"/>
</linearGradient>
<linearGradient id="paint130_linear_3009_25667" x1="87.1172" y1="344.401" x2="99.2512" y2="344.401" gradientUnits="userSpaceOnUse">
<stop stop-color="#E5FBFF"/>
<stop offset="0.14" stop-color="#D8F9FF"/>
<stop offset="0.46" stop-color="#BFF5FF"/>
<stop offset="0.76" stop-color="#B1F3FF"/>
<stop offset="1" stop-color="#ACF3FF"/>
</linearGradient>
<linearGradient id="paint131_linear_3009_25667" x1="99.2031" y1="345.097" x2="108.966" y2="345.097" gradientUnits="userSpaceOnUse">
<stop stop-color="#E5FBFF"/>
<stop offset="0.14" stop-color="#D8F9FF"/>
<stop offset="0.46" stop-color="#BFF5FF"/>
<stop offset="0.76" stop-color="#B1F3FF"/>
<stop offset="1" stop-color="#ACF3FF"/>
</linearGradient>
<linearGradient id="paint132_linear_3009_25667" x1="96.5931" y1="361.514" x2="74.46" y2="352.595" gradientUnits="userSpaceOnUse">
<stop stop-color="#AB6AFF"/>
<stop offset="1" stop-color="#C395FF"/>
</linearGradient>
<linearGradient id="paint133_linear_3009_25667" x1="70.548" y1="354.905" x2="92.376" y2="396.868" gradientUnits="userSpaceOnUse">
<stop stop-color="#AB6AFF"/>
<stop offset="1" stop-color="#C395FF"/>
</linearGradient>
<linearGradient id="paint134_linear_3009_25667" x1="85.2813" y1="372.291" x2="95.0445" y2="372.291" gradientUnits="userSpaceOnUse">
<stop stop-color="#AB6AFF"/>
<stop offset="1" stop-color="#C395FF"/>
</linearGradient>
<linearGradient id="paint135_linear_3009_25667" x1="73.1953" y1="345.302" x2="94.9524" y2="345.302" gradientUnits="userSpaceOnUse">
<stop stop-color="#E5FBFF"/>
<stop offset="0.14" stop-color="#D8F9FF"/>
<stop offset="0.46" stop-color="#BFF5FF"/>
<stop offset="0.76" stop-color="#B1F3FF"/>
<stop offset="1" stop-color="#ACF3FF"/>
</linearGradient>
<linearGradient id="paint136_linear_3009_25667" x1="73.1953" y1="366.001" x2="85.3293" y2="366.001" gradientUnits="userSpaceOnUse">
<stop stop-color="#E5FBFF"/>
<stop offset="0.14" stop-color="#D8F9FF"/>
<stop offset="0.46" stop-color="#BFF5FF"/>
<stop offset="0.76" stop-color="#B1F3FF"/>
<stop offset="1" stop-color="#ACF3FF"/>
</linearGradient>
<linearGradient id="paint137_linear_3009_25667" x1="85.2812" y1="366.7" x2="95.0445" y2="366.7" gradientUnits="userSpaceOnUse">
<stop stop-color="#E5FBFF"/>
<stop offset="0.14" stop-color="#D8F9FF"/>
<stop offset="0.46" stop-color="#BFF5FF"/>
<stop offset="0.76" stop-color="#B1F3FF"/>
<stop offset="1" stop-color="#ACF3FF"/>
</linearGradient>
<clipPath id="clip0_3009_25667">
<rect width="532" height="434" fill="white"/>
</clipPath>
</defs>
</svg>
