<svg width="100" height="100" viewBox="0 0 100 100" fill="none" xmlns="http://www.w3.org/2000/svg">
<path d="M35 63L42 70" stroke="#00CCF5" stroke-width="3" stroke-linecap="round" stroke-linejoin="round"/>
<path d="M53 26L78 54" stroke="#00CCF5" stroke-width="3" stroke-linecap="round" stroke-linejoin="round"/>
<path d="M75 50.7303L40.3255 68L37 64.3443L56.1541 30L75 50.7303Z" stroke="#00CCF5" stroke-width="3" stroke-linecap="round" stroke-linejoin="round"/>
<path d="M48 64.6333L50.7644 67.9875C51.2273 68.5869 51.7956 69.0742 52.4343 69.4194C53.073 69.7646 53.7685 69.9604 54.4778 69.9946C55.1871 70.0288 55.8952 69.9007 56.5583 69.6183C57.2214 69.3359 57.8255 68.9052 58.3332 68.3527C59.365 67.195 59.9606 65.6422 59.9981 64.0118C60.0356 62.3815 59.5123 60.7968 58.535 59.5818L58.0268 59" stroke="#00CCF5" stroke-width="3" stroke-linecap="round" stroke-linejoin="round"/>
<path d="M26.69 24.6516C32.6149 18.0345 40.6706 13.7019 49.4576 12.4064C58.2447 11.111 67.208 12.9345 74.7904 17.5603C82.3728 22.186 88.0953 29.3217 90.9638 37.7278C93.8323 46.1339 93.6655 55.2792 90.4924 63.5752C87.3194 71.8711 81.3406 78.7934 73.5946 83.1397C65.8485 87.4859 56.8248 88.9815 48.0908 87.3665C39.3568 85.7516 31.4644 81.1282 25.7847 74.2995C20.105 67.4707 16.9968 58.8682 17 49.9862V45.9848" stroke="black" stroke-width="3" stroke-linecap="round" stroke-linejoin="round"/>
<path d="M26 54L16.5 42L7 54" stroke="black" stroke-width="3" stroke-linecap="round" stroke-linejoin="round"/>
</svg>
