<svg width="100" height="100" viewBox="0 0 100 100" fill="none" xmlns="http://www.w3.org/2000/svg">
<path d="M88.609 89L88.9571 85.1204C89.1869 82.6113 88.4875 80.105 86.9899 78.0704C85.4923 76.0357 83.2989 74.6121 80.8201 74.0656L68.7346 71.2639V51.4308C68.7166 50.5658 68.5263 49.7128 68.1749 48.921C67.8234 48.1292 67.3176 47.4142 66.6866 46.817C66.0556 46.2198 65.3119 45.7523 64.4982 45.4414C63.6844 45.1304 62.8167 44.9822 61.945 45.0051C61.0946 44.9702 60.2464 45.1141 59.456 45.4275C58.6656 45.7409 57.951 46.2166 57.3591 46.8235C56.7672 47.4303 56.3114 48.1546 56.0216 48.9486C55.7318 49.7427 55.6146 50.5886 55.6777 51.4308V83.2135L50.5316 79.403C49.5038 78.6414 48.234 78.2726 46.9545 78.3639C45.675 78.4553 44.4715 79.0008 43.5643 79.9005C42.657 80.8003 42.1066 81.9942 42.014 83.2636C41.9213 84.533 42.2925 85.7931 43.0596 86.8132L44.7134 89" stroke="black" stroke-width="3" stroke-linecap="round" stroke-linejoin="round"/>
<path d="M39.5406 68C34.2324 67.9983 29.0298 66.5194 24.517 63.7293C20.0043 60.9391 16.3601 56.9483 13.9938 52.205C11.6274 47.4617 10.6327 42.1537 11.1212 36.8773C11.6097 31.6008 13.5621 26.5647 16.7592 22.3347C19.9562 18.1046 24.2714 14.8481 29.2199 12.9309C34.1685 11.0136 39.5545 10.5116 44.773 11.4811C49.9916 12.4506 54.8361 14.8533 58.7624 18.4194C62.6887 21.9854 65.5414 26.5736 67 31.6686" stroke="black" stroke-width="3" stroke-linecap="round" stroke-linejoin="round"/>
<path d="M47.9995 27.0147H36.0774C35.3985 26.9614 34.7159 27.0533 34.0768 27.2844C33.4377 27.5154 32.8574 27.8799 32.3759 28.3527C31.8945 28.8255 31.5235 29.3953 31.2886 30.0227C31.0537 30.65 30.9604 31.32 31.0153 31.9862C31.0153 37.4315 47.9995 41.6004 47.9995 47.0492C48.0092 47.7019 47.8853 48.3499 47.6353 48.9548C47.3852 49.5597 47.0141 50.1092 46.5437 50.5708C46.0734 51.0324 45.5135 51.3967 44.8971 51.6421C44.2807 51.8875 43.6205 52.009 42.9554 51.9995H31.0153" stroke="#00CCF5" stroke-width="3" stroke-linecap="round" stroke-linejoin="round"/>
<path d="M40 27V21" stroke="#00CCF5" stroke-width="3" stroke-linecap="round" stroke-linejoin="round"/>
<path d="M40 58V52" stroke="#00CCF5" stroke-width="3" stroke-linecap="round" stroke-linejoin="round"/>
</svg>
