<svg width="100" height="100" viewBox="0 0 100 100" fill="none" xmlns="http://www.w3.org/2000/svg">
<path d="M50.0898 50.8398C49.5373 50.8398 49.0898 50.6161 49.0898 50.3398C49.0898 50.0638 49.5373 49.8398 50.0898 49.8398" stroke="#00CCF5" stroke-width="3" stroke-miterlimit="10" stroke-linecap="round" stroke-linejoin="round"/>
<path d="M50.0898 50.8398C50.0898 50.8398 50.0898 50.6161 50.0898 50.3398C50.0898 50.0638 50.0898 49.8398 50.0898 49.8398" stroke="#00CCF5" stroke-width="3" stroke-miterlimit="10" stroke-linecap="round" stroke-linejoin="round"/>
<path d="M54.293 31.1595L55.755 35.9546C56.1205 37.7989 57.948 38.5366 59.7755 38.1677L64.5269 37.0612C68.9129 35.9546 71.8368 41.1185 68.9129 44.4382L65.6234 48.1267C64.5269 49.6021 64.5269 51.4464 65.6234 52.5529L68.9129 56.2415C71.8368 59.5611 68.9129 64.7251 64.5269 63.6185L59.7755 62.512C57.948 62.1431 56.486 63.2497 55.755 64.7251L54.293 69.5202C52.8311 73.9464 46.9831 73.9464 45.8866 69.5202L44.4247 64.7251C44.0592 62.8808 42.2317 62.1431 40.4042 62.512L35.6528 63.6185C31.2669 64.7251 28.3429 59.5611 31.2668 56.2415L34.5563 52.5529C35.6528 51.0775 35.6528 49.2333 34.5563 48.1267L31.2668 44.4382C28.3429 41.1185 31.2669 35.9546 35.6528 37.0612L40.4042 38.1677C42.2317 38.5366 43.6937 37.43 44.4247 35.9546L45.8866 31.1595C46.9831 26.7333 53.1965 26.7333 54.293 31.1595Z" stroke="#00CCF5" stroke-width="3" stroke-miterlimit="10" stroke-linecap="round" stroke-linejoin="round"/>
<path d="M79.4361 61.8398C79.7983 63.3259 81.247 64.0689 82.3336 63.6974L85.9554 62.9544C89.2151 62.2114 91.3882 66.298 89.2151 68.8987L86.6798 71.8708C85.5932 72.9854 85.5932 74.4714 86.6798 75.586L89.2151 78.5581C91.3882 81.1587 89.2151 85.2454 85.9554 84.5024L82.3336 83.7593C80.8848 83.3878 79.7983 84.1309 79.4361 85.6169L78.3495 89.3321C77.263 92.6758 72.9167 92.6758 71.8302 89.3321L70.7436 85.6169C70.3814 84.1309 68.9327 83.3878 67.8461 83.7593L64.2243 84.5024C60.9646 85.2454 58.7915 81.1587 60.9646 78.5581L63.4999 75.586" stroke="#00CCF5" stroke-width="3" stroke-miterlimit="10" stroke-linecap="round" stroke-linejoin="round"/>
<path d="M75.0898 73.8398C75.0898 73.8398 75.0898 73.6161 75.0898 73.3398C75.0898 73.0638 75.0898 72.8398 75.0898 72.8398" stroke="black" stroke-width="3" stroke-miterlimit="10" stroke-linecap="round" stroke-linejoin="round"/>
<path d="M75.0898 73.8398C75.6418 73.8398 76.0898 73.6161 76.0898 73.3398C76.0898 73.0638 75.6418 72.8398 75.0898 72.8398" stroke="#00CCF5" stroke-width="3" stroke-miterlimit="10" stroke-linecap="round" stroke-linejoin="round"/>
<path d="M20.8745 77.8398C5.16162 62.0904 5.16162 36.4519 20.8745 20.7025C32.9332 8.61573 50.4732 5.68558 65.0898 12.2783" stroke="black" stroke-width="3" stroke-miterlimit="10" stroke-linecap="round" stroke-linejoin="round"/>
<path d="M87.0898 21.5541L77.7565 20.8398L77.0898 30.8398" stroke="black" stroke-width="3" stroke-miterlimit="10" stroke-linecap="round" stroke-linejoin="round"/>
<path d="M10.0898 76.7684L20.9286 77.8398L22.0898 67.8398" stroke="black" stroke-width="3" stroke-miterlimit="10" stroke-linecap="round" stroke-linejoin="round"/>
<path d="M77.0898 20.8398C85.653 29.4302 89.7484 40.635 89.0038 51.8398" stroke="black" stroke-width="3" stroke-miterlimit="10" stroke-linecap="round" stroke-linejoin="round"/>
<path d="M50.0898 89.8398C44.1768 89.8398 38.6333 88.8398 33.0898 86.8398" stroke="black" stroke-width="3" stroke-miterlimit="10" stroke-linecap="round" stroke-linejoin="round"/>
</svg>
