<svg width="100" height="100" viewBox="0 0 100 100" fill="none" xmlns="http://www.w3.org/2000/svg">
<path d="M26 70V58.378C26 58.0125 26.1462 57.662 26.4064 57.4036C26.6667 57.1452 27.0196 57 27.3876 57H72.6124C72.9804 57 73.3333 57.1452 73.5936 57.4036C73.8538 57.662 74 58.0125 74 58.378V70" stroke="black" stroke-width="3" stroke-linecap="round" stroke-linejoin="round"/>
<path d="M50 48V70" stroke="black" stroke-width="3" stroke-linecap="round" stroke-linejoin="round"/>
<path d="M19 76.5C19 77.3536 19.1681 78.1988 19.4948 78.9874C19.8214 79.7761 20.3002 80.4926 20.9038 81.0962C21.5074 81.6998 22.2239 82.1786 23.0126 82.5052C23.8012 82.8319 24.6464 83 25.5 83C26.3536 83 27.1988 82.8319 27.9874 82.5052C28.7761 82.1786 29.4926 81.6998 30.0962 81.0962C30.6998 80.4926 31.1786 79.7761 31.5052 78.9874C31.8319 78.1988 32 77.3536 32 76.5C32 75.6464 31.8319 74.8012 31.5052 74.0126C31.1786 73.2239 30.6998 72.5074 30.0962 71.9038C29.4926 71.3002 28.7761 70.8214 27.9874 70.4948C27.1988 70.1681 26.3536 70 25.5 70C24.6464 70 23.8012 70.1681 23.0126 70.4948C22.2239 70.8214 21.5074 71.3002 20.9038 71.9038C20.3002 72.5074 19.8214 73.2239 19.4948 74.0126C19.1681 74.8012 19 75.6464 19 76.5Z" stroke="black" stroke-width="3" stroke-linecap="round" stroke-linejoin="round"/>
<path d="M43 76.5C43 77.3536 43.1811 78.1988 43.5328 78.9874C43.8846 79.7761 44.4002 80.4926 45.0503 81.0962C45.7003 81.6998 46.4719 82.1786 47.3212 82.5052C48.1705 82.8319 49.0807 83 50 83C50.9193 83 51.8295 82.8319 52.6788 82.5052C53.5281 82.1786 54.2997 81.6998 54.9498 81.0962C55.5998 80.4926 56.1154 79.7761 56.4672 78.9874C56.8189 78.1988 57 77.3536 57 76.5C57 75.6464 56.8189 74.8012 56.4672 74.0126C56.1154 73.2239 55.5998 72.5074 54.9498 71.9038C54.2997 71.3002 53.5281 70.8214 52.6788 70.4948C51.8295 70.1681 50.9193 70 50 70C49.0807 70 48.1705 70.1681 47.3212 70.4948C46.4719 70.8214 45.7003 71.3002 45.0503 71.9038C44.4002 72.5074 43.8846 73.2239 43.5328 74.0126C43.1811 74.8012 43 75.6464 43 76.5Z" stroke="black" stroke-width="3" stroke-linecap="round" stroke-linejoin="round"/>
<path d="M68 76.5C68 78.2239 68.6848 79.8772 69.9038 81.0962C71.1228 82.3152 72.7761 83 74.5 83C76.2239 83 77.8772 82.3152 79.0962 81.0962C80.3152 79.8772 81 78.2239 81 76.5C81 74.7761 80.3152 73.1228 79.0962 71.9038C77.8772 70.6848 76.2239 70 74.5 70C72.7761 70 71.1228 70.6848 69.9038 71.9038C68.6848 73.1228 68 74.7761 68 76.5Z" stroke="black" stroke-width="3" stroke-linecap="round" stroke-linejoin="round"/>
<path d="M41 26C41 27.1819 41.2328 28.3522 41.6851 29.4442C42.1374 30.5361 42.8003 31.5282 43.636 32.364C44.4718 33.1997 45.4639 33.8626 46.5558 34.3149C47.6478 34.7672 48.8181 35 50 35C51.1819 35 52.3522 34.7672 53.4442 34.3149C54.5361 33.8626 55.5282 33.1997 56.364 32.364C57.1997 31.5282 57.8626 30.5361 58.3149 29.4442C58.7672 28.3522 59 27.1819 59 26C59 24.8181 58.7672 23.6478 58.3149 22.5558C57.8626 21.4639 57.1997 20.4718 56.364 19.636C55.5282 18.8003 54.5361 18.1374 53.4442 17.6851C52.3522 17.2328 51.1819 17 50 17C48.8181 17 47.6478 17.2328 46.5558 17.6851C45.4639 18.1374 44.4718 18.8003 43.636 19.636C42.8003 20.4718 42.1374 21.4639 41.6851 22.5558C41.2328 23.6478 41 24.8181 41 26Z" stroke="#3DD3F2" stroke-width="3" stroke-linecap="round" stroke-linejoin="round"/>
<path d="M63 48C62.2341 44.9688 60.5082 42.2629 58.0772 40.2821C55.6462 38.3013 52.6391 37.1506 49.5 37C46.3609 37.1506 43.3538 38.3013 40.9228 40.2821C38.4918 42.2629 36.7659 44.9688 36 48" stroke="#3DD3F2" stroke-width="3" stroke-linecap="round" stroke-linejoin="round"/>
</svg>
