<svg width="385" height="437" viewBox="0 0 385 437" fill="none" xmlns="http://www.w3.org/2000/svg">
<path d="M371.953 87.7051C375.81 88.6963 379.593 89.7468 383.317 90.8268V118.331C379.593 117.251 375.81 116.2 371.953 115.209V87.7051Z" fill="#A957FF"/>
<path opacity="0.5" d="M345.617 88.8584C349.74 89.6425 353.804 90.4858 357.808 91.3735V111.82C353.804 110.933 349.74 110.089 345.617 109.305V88.8584Z" fill="#A957FF"/>
<path d="M317.617 66.459C321.976 67.0212 326.276 67.6426 330.532 68.3232V106.687C326.276 106.021 321.962 105.399 317.617 104.822V66.459Z" fill="#A957FF"/>
<path opacity="0.5" d="M288.18 42.2842C292.746 42.6097 297.253 42.9943 301.73 43.4382V103.018C297.253 102.574 292.746 102.189 288.18 101.864V42.2842Z" fill="#A957FF"/>
<path opacity="0.5" d="M257.484 55.0674C262.228 55.1414 266.927 55.2745 271.596 55.4668V100.917C266.927 100.725 262.228 100.592 257.484 100.518V55.0674Z" fill="#A957FF"/>
<path d="M226.5 7.48623C231.125 7.2939 235.795 7.17554 240.479 7.10156V100.517C235.78 100.591 231.125 100.724 226.5 100.902V7.48623Z" fill="#A957FF"/>
<path d="M196.547 26.7349C200.995 26.3059 205.502 25.9212 210.024 25.5957V101.834C205.487 102.16 200.995 102.545 196.547 102.974V26.7349Z" fill="#A957FF"/>
<path d="M167.836 1.83458C172.077 1.16881 176.377 0.56221 180.721 0V104.763C176.377 105.326 172.077 105.932 167.836 106.598V1.83458Z" fill="#A957FF"/>
<g opacity="0.5">
<g opacity="0.11">
<path d="M235.442 331.172C230.935 328.568 225.393 328.568 220.886 331.172L134.16 381.194C132.801 381.978 132.801 383.96 134.16 384.744L221.611 435.299C225.586 437.592 230.477 437.592 234.452 435.299L322.035 384.804C323.395 384.019 323.395 382.037 322.035 381.253L235.442 331.201V331.172Z" fill="url(#paint0_linear_2600_7852)"/>
</g>
<g opacity="0.11">
<path d="M235.442 316.54C230.935 313.936 225.393 313.936 220.886 316.54L134.16 366.562C132.801 367.346 132.801 369.328 134.16 370.113L221.611 420.667C225.586 422.96 230.477 422.96 234.452 420.667L322.035 370.172C323.395 369.388 323.395 367.405 322.035 366.621L235.442 316.569V316.54Z" fill="url(#paint1_linear_2600_7852)"/>
</g>
<g opacity="0.11">
<path d="M235.442 301.922C230.935 299.318 225.393 299.318 220.886 301.922L134.16 351.944C132.801 352.728 132.801 354.71 134.16 355.494L221.611 406.049C225.586 408.342 230.477 408.342 234.452 406.049L322.035 355.554C323.395 354.769 323.395 352.787 322.035 352.003L235.442 301.951V301.922Z" fill="url(#paint2_linear_2600_7852)"/>
</g>
<g opacity="0.11">
<path d="M235.442 287.29C230.935 284.686 225.393 284.686 220.886 287.29L134.16 337.312C132.801 338.096 132.801 340.078 134.16 340.863L221.611 391.417C225.586 393.71 230.477 393.71 234.452 391.417L322.035 340.922C323.395 340.138 323.395 338.155 322.035 337.371L235.442 287.319V287.29Z" fill="url(#paint3_linear_2600_7852)"/>
</g>
<path opacity="0.11" d="M322.035 337.341L235.442 287.29C230.935 284.686 225.393 284.686 220.886 287.29L134.16 337.312C133.48 337.711 133.141 338.392 133.141 339.087V382.969C133.141 383.665 133.48 384.345 134.16 384.745L221.611 435.299C225.586 437.592 230.477 437.592 234.452 435.299L322.035 384.804C322.715 384.404 323.055 383.724 323.055 383.028V339.146C323.055 338.451 322.715 337.77 322.035 337.371V337.341Z" fill="url(#paint4_linear_2600_7852)"/>
</g>
<g opacity="0.11">
<path d="M235.442 270.66C230.935 268.056 225.393 268.056 220.886 270.66L134.16 320.682C132.801 321.466 132.801 323.449 134.16 324.233L221.611 374.787C225.586 377.08 230.477 377.08 234.452 374.787L322.035 324.292C323.395 323.508 323.395 321.525 322.035 320.741L235.442 270.69V270.66Z" fill="url(#paint5_linear_2600_7852)"/>
</g>
<g opacity="0.11">
<path d="M235.442 256.028C230.935 253.424 225.393 253.424 220.886 256.028L134.16 306.05C132.801 306.834 132.801 308.817 134.16 309.601L221.611 360.155C225.586 362.449 230.477 362.449 234.452 360.155L322.035 309.66C323.395 308.876 323.395 306.893 322.035 306.109L235.442 256.058V256.028Z" fill="url(#paint6_linear_2600_7852)"/>
</g>
<g opacity="0.11">
<path d="M235.442 241.41C230.935 238.806 225.393 238.806 220.886 241.41L134.16 291.432C132.801 292.216 132.801 294.199 134.16 294.983L221.611 345.537C225.586 347.83 230.477 347.83 234.452 345.537L322.035 295.042C323.395 294.258 323.395 292.275 322.035 291.491L235.442 241.44V241.41Z" fill="url(#paint7_linear_2600_7852)"/>
</g>
<g opacity="0.11">
<path d="M235.442 226.778C230.935 224.174 225.393 224.174 220.886 226.778L134.16 276.8C132.801 277.584 132.801 279.567 134.16 280.351L221.611 330.905C225.586 333.199 230.477 333.199 234.452 330.905L322.035 280.41C323.395 279.626 323.395 277.643 322.035 276.859L235.442 226.808V226.778Z" fill="url(#paint8_linear_2600_7852)"/>
</g>
<path opacity="0.11" d="M322.035 276.83L235.442 226.778C230.935 224.174 225.393 224.174 220.886 226.778L134.16 276.8C133.48 277.2 133.141 277.88 133.141 278.575V322.457C133.141 323.153 133.48 323.833 134.16 324.233L221.611 374.787C225.586 377.081 230.477 377.081 234.452 374.787L322.035 324.292C322.715 323.893 323.055 323.212 323.055 322.517V278.635C323.055 277.939 322.715 277.259 322.035 276.859V276.83Z" fill="url(#paint9_linear_2600_7852)"/>
<g opacity="0.11">
<path d="M235.442 210.148C230.935 207.544 225.393 207.544 220.886 210.148L134.16 260.17C132.801 260.954 132.801 262.937 134.16 263.721L221.611 314.275C225.586 316.569 230.477 316.569 234.452 314.275L322.035 263.78C323.395 262.996 323.395 261.013 322.035 260.229L235.442 210.178V210.148Z" fill="url(#paint10_linear_2600_7852)"/>
</g>
<g opacity="0.11">
<path d="M235.442 195.516C230.935 192.912 225.393 192.912 220.886 195.516L134.16 245.538C132.801 246.322 132.801 248.305 134.16 249.089L221.611 299.644C225.586 301.937 230.477 301.937 234.452 299.644L322.035 249.148C323.395 248.364 323.395 246.382 322.035 245.598L235.442 195.546V195.516Z" fill="url(#paint11_linear_2600_7852)"/>
</g>
<g opacity="0.11">
<path d="M235.442 180.898C230.935 178.294 225.393 178.294 220.886 180.898L134.16 230.92C132.801 231.704 132.801 233.687 134.16 234.471L221.611 285.025C225.586 287.319 230.477 287.319 234.452 285.025L322.035 234.53C323.395 233.746 323.395 231.763 322.035 230.979L235.442 180.928V180.898Z" fill="url(#paint12_linear_2600_7852)"/>
</g>
<g opacity="0.11">
<path d="M235.442 166.266C230.935 163.662 225.393 163.662 220.886 166.266L134.16 216.288C132.801 217.072 132.801 219.055 134.16 219.839L221.611 270.394C225.586 272.687 230.477 272.687 234.452 270.394L322.035 219.898C323.395 219.114 323.395 217.132 322.035 216.347L235.442 166.296V166.266Z" fill="url(#paint13_linear_2600_7852)"/>
</g>
<path opacity="0.5" d="M322.035 216.318L235.442 166.266C230.935 163.662 225.393 163.662 220.886 166.266L134.16 216.288C133.48 216.688 133.141 217.368 133.141 218.064V261.946C133.141 262.641 133.48 263.322 134.16 263.721L221.611 314.276C225.586 316.569 230.477 316.569 234.452 314.276L322.035 263.78C322.715 263.381 323.055 262.7 323.055 262.005V218.123C323.055 217.428 322.715 216.747 322.035 216.348V216.318Z" fill="url(#paint14_linear_2600_7852)"/>
<g opacity="0.11">
<path d="M235.442 166.266C230.935 163.662 225.393 163.662 220.886 166.266L134.16 216.288C132.801 217.072 132.801 219.055 134.16 219.839L221.611 270.394C225.586 272.687 230.477 272.687 234.452 270.394L322.035 219.898C323.395 219.114 323.395 217.132 322.035 216.347L235.442 166.296V166.266Z" fill="url(#paint15_linear_2600_7852)"/>
</g>
<path d="M322.038 217.857L234.455 268.352C230.48 270.645 225.588 270.645 221.613 268.352L134.163 217.798C133.823 217.605 133.572 217.339 133.41 217.028C132.892 217.96 133.144 219.218 134.163 219.81L221.613 270.364C225.588 272.658 230.48 272.658 234.455 270.364L322.038 219.869C323.072 219.277 323.324 218.005 322.792 217.087C322.614 217.383 322.363 217.665 322.038 217.857Z" fill="url(#paint16_linear_2600_7852)"/>
<path d="M143.336 233.302L145.493 234.56V233.11L143.336 231.867V233.302Z" fill="#A957FF"/>
<path d="M143.336 243.082L145.493 244.339V235.877L143.336 234.634V243.082Z" fill="#A957FF"/>
<path d="M143.336 247.772L145.493 249.014V245.656L143.336 244.413V247.772Z" fill="#A957FF"/>
<path d="M143.336 252.609L145.493 253.852V250.494L143.336 249.251V252.609Z" fill="#A957FF"/>
<path d="M140.133 236.128L142.275 237.371V234.012L140.133 232.77V236.128Z" fill="#A957FF"/>
<path d="M140.133 242.549L142.275 243.792V238.865L140.133 237.622V242.549Z" fill="#A957FF"/>
<path d="M140.133 248.467L142.275 249.709V245.478L140.133 244.235V248.467Z" fill="#A957FF"/>
<path d="M143.336 257.462L145.493 258.705V255.346L143.336 254.104V257.462Z" fill="#A957FF"/>
<path d="M140.133 231.453L142.275 232.696V231.246L140.133 230.003V231.453Z" fill="#A957FF"/>
<path d="M141.727 261.236L145.495 263.41V262.005L141.727 259.83V261.236Z" fill="#A957FF"/>
<path opacity="0.2" d="M228.094 245.124C253.809 245.124 274.656 233.075 274.656 218.212C274.656 203.349 253.809 191.3 228.094 191.3C202.378 191.3 181.531 203.349 181.531 218.212C181.531 233.075 202.378 245.124 228.094 245.124Z" fill="#2BBEFF"/>
<path d="M228.342 196.019L228.431 196.433L228.564 196.152C228.564 196.152 229.199 198.327 228.653 199.407C228.106 200.487 227.308 201.833 226.155 203.342C225.003 204.866 223.155 208.017 222.683 208.624C222.195 209.23 219.387 211.583 215.87 211.953C212.353 212.323 211.452 210.296 211.748 209.216C212.043 208.136 213.935 205.236 215.989 202.883C218.043 200.531 219.624 197.498 219.624 197.498L228.357 196.019H228.342Z" fill="#29BDFF"/>
<path d="M217.782 186.461C217.782 186.461 217.885 188.725 217.649 189.642C217.413 190.574 212.255 190.855 210.408 191.092C208.576 191.329 205.369 192.645 204.379 193.134C203.374 193.622 196.666 194.332 195.853 191.861C195.04 189.39 199.222 187.304 202.059 186.653C204.896 186.002 209.536 184.582 209.536 184.582L217.797 186.461H217.782Z" fill="#29BDFF"/>
<path d="M235.692 141.765C235.692 141.765 235.869 148.098 233.771 156.842C231.658 165.585 231.909 171.696 231.909 171.696C231.909 171.696 234.111 181.594 232.175 188.34C230.239 195.087 228.584 196.98 228.584 196.98C228.584 196.98 224.713 202.129 219.614 197.513C219.614 197.513 222.481 188.237 222.821 180.869C222.821 180.869 220.294 175.454 219.422 170.616C219.422 170.616 218.698 178.309 218.255 181.416C218.255 181.416 218.698 185.973 217.487 187.822C216.275 189.672 210.793 190.204 209.049 186.994C207.305 183.783 210.497 185.352 209.537 170.616C209.537 170.616 204.498 164.328 203.774 152.743C203.049 141.159 203.123 136.572 203.774 134.324C204.424 132.06 215.61 123.938 215.61 123.938L221.92 132.001L235.707 141.795L235.692 141.765Z" fill="#31C0FF"/>
<path d="M219.137 173.442C218.827 172.377 218.546 171.282 218.354 170.217C218.354 170.217 217.63 177.91 217.186 181.017C217.186 181.017 217.63 185.574 216.418 187.423C215.635 188.607 213.093 189.243 210.906 188.696C213.241 189.82 216.551 189.169 217.467 187.793C218.679 185.944 218.236 181.387 218.236 181.387C218.502 179.508 218.871 175.957 219.122 173.442H219.137Z" fill="url(#paint17_linear_2600_7852)"/>
<path d="M235.686 141.766L221.899 131.971L215.589 123.908C215.589 123.908 215.412 124.041 215.102 124.263L220.835 131.587L234.622 141.381C234.622 141.381 234.799 147.713 232.701 156.457C230.588 165.201 230.839 171.311 230.839 171.311C230.839 171.311 233.041 181.209 231.105 187.956C229.169 194.702 227.514 196.596 227.514 196.596C227.514 196.596 225.135 199.733 221.648 198.889C225.697 200.753 228.563 196.966 228.563 196.966C228.563 196.966 230.218 195.072 232.154 188.326C234.09 181.579 231.888 171.681 231.888 171.681C231.888 171.681 231.637 165.571 233.75 156.827C235.863 148.083 235.671 141.751 235.671 141.751L235.686 141.766Z" fill="url(#paint18_linear_2600_7852)"/>
<path d="M210.806 154.682C208.988 152.493 207.969 145.657 207.969 145.657C207.969 145.657 210.806 151.412 212.845 153.084C214.884 154.756 216.628 158.115 216.997 160.289C217.367 162.479 219.421 170.587 219.421 170.587C219.421 170.587 218.697 178.28 218.254 181.387C218.254 181.387 218.697 185.944 217.485 187.793C217.234 188.163 216.82 188.474 216.288 188.725C216.288 188.637 216.599 178.547 216.288 174.271C215.978 169.98 212.638 156.872 210.821 154.682H210.806Z" fill="#29BDFF"/>
<path d="M252.46 95.0578C252.46 95.0578 257.277 104.482 257.765 105.207C258.253 105.932 267.267 117.443 268.138 124.086C268.138 124.086 268.818 126.66 265.715 128.938C262.612 131.217 246.948 141.174 245.988 141.322C245.027 141.47 239.338 138.703 239.102 132.489C239.102 132.489 251.366 126.763 254.041 123.893C254.041 123.893 249.268 115.86 246.933 113.492C246.342 112.901 246.002 111.82 245.81 110.519C245.042 105.237 247.111 99.9401 251.041 96.3449L252.475 95.043L252.46 95.0578Z" fill="#5ECDFF"/>
<path d="M216.454 72.9833C216.454 72.9833 209.007 75.75 206.45 74.8031C203.909 73.8562 197.643 73.0573 193.358 70.6457C189.073 68.2489 170.321 63.3961 167.557 63.2334C167.557 63.2334 167.513 63.337 167.971 63.5441C168.429 63.7364 170.365 63.914 170.882 66.0888C171.399 68.2785 170.247 70.8972 169.936 71.0747C169.626 71.2523 169.434 70.483 167.646 69.6544C165.858 68.8259 164.75 68.8851 164.75 68.8851L164.07 69.7432L163.656 70.3794C163.656 70.3794 164.543 73.0277 166.937 73.2052C169.331 73.3828 184.758 79.8334 185.718 80.1293C186.694 80.4252 199.638 86.0029 202.062 86.8758C204.485 87.7487 206.377 88.8583 206.377 88.8583C206.377 88.8583 213.942 83.8132 214.179 83.8132C214.415 83.8132 216.44 72.9833 216.44 72.9833H216.454Z" fill="#31C0FF"/>
<path d="M149.038 60.0976C149.348 60.1716 153.249 61.4883 153.249 61.4883C153.249 61.4883 151.698 62.2873 151.55 62.9974C151.402 63.7076 151.86 67.6578 152.008 67.8946C152.156 68.1313 152.954 68.6787 153.19 68.8118C153.427 68.9598 154.033 70.3209 154.594 70.1434C155.156 69.9806 155.318 69.2705 155.318 69.2705C155.318 69.2705 155.761 69.0486 155.894 68.9598C156.027 68.871 158.82 69.1225 159.736 69.7291C160.653 70.3209 162.766 70.6464 163.623 70.3653C164.48 70.099 165.751 69.4628 166.031 69.3149C166.031 69.3149 166.992 69.4628 167.524 69.7439C168.056 70.025 169.755 71.1642 170.006 71.2678C170.258 71.3714 173.745 64.5361 167.524 63.2489C167.524 63.2489 164.938 63.0122 163.83 62.4796C162.721 61.947 159.559 59.5206 158.407 59.4762C157.239 59.4318 156.057 59.8165 156.057 59.8165C156.057 59.8165 149.023 57.8044 148.447 58.4258C147.871 59.0619 148.713 60.0236 149.023 60.0976H149.038ZM154.121 64.7876C154.949 64.8172 155.54 63.9295 155.54 63.9295C156.087 64.2846 156.618 63.8407 156.618 63.8407C156.618 63.9739 157.579 64.1514 157.579 64.1514C157.579 64.1514 158.022 64.5213 158.554 64.9208C159.101 65.3202 158.377 66.5038 158.377 66.5038C157.845 66.5482 157.224 66.2819 156.707 66.0452C156.19 65.7937 155.732 65.8233 155.377 65.6901C155.023 65.5569 154.106 64.7876 154.106 64.7876H154.121Z" fill="#EBDCFF"/>
<path d="M203.759 134.294C204.409 132.031 215.596 123.908 215.596 123.908L218.728 127.918L221.418 138.378L235.692 142.831C235.692 142.831 234.939 149.977 223.309 149.163C211.68 148.335 210.32 139.31 210.32 139.31C210.32 139.31 209.035 142.269 203.301 143.053C203.168 138.274 203.345 135.789 203.774 134.309L203.759 134.294Z" fill="#29BDFF"/>
<path d="M238.323 78.8572L240.289 83.9023C240.289 83.9023 249.746 92.0987 252.465 95.0577C252.465 95.0577 247.796 104.038 246.924 113.507C246.924 113.507 242.594 117.043 241.294 118.671C239.978 120.298 236.668 127.814 235.619 130.299C234.57 132.785 237.511 140.242 237.511 140.242C237.511 140.242 233.491 147.684 227.019 147.432C220.547 147.195 216.128 143.23 215.316 136.188C214.488 129.145 214.739 128.125 214.739 128.125C214.739 128.125 211.828 136.765 207.425 136.765C203.021 136.765 196.002 129.264 196.002 129.264C196.002 129.264 191.274 124.973 191.717 123.02C192.16 121.082 202.844 104.275 203.42 101.508C203.997 98.7416 206.405 88.8438 206.405 88.8438L216.483 72.9688L222.63 73.2647L238.368 78.8424L238.323 78.8572Z" fill="#57CBFF"/>
<path d="M226.736 145.656C220.545 145.42 216.274 141.765 215.195 135.285C215.225 135.581 215.269 135.877 215.299 136.202C216.126 143.245 220.53 147.195 227.002 147.447C233.474 147.683 237.494 140.256 237.494 140.256C237.494 140.256 237.287 139.709 236.991 138.88C236.06 140.404 232.307 145.893 226.736 145.671V145.656Z" fill="url(#paint19_linear_2600_7852)"/>
<path d="M238.32 78.8576C238.32 78.8576 238.364 81.861 237.182 84.8495C236 87.8381 232.114 104.66 223.321 110.401L219.938 112.546V101.849C219.938 101.849 219.997 95.2652 221.504 91.0782C223.011 86.9061 222.952 81.8018 222.952 81.8018C222.952 81.8018 225.42 81.1212 225.42 81.1656C225.42 81.21 238.32 78.8428 238.32 78.8428V78.8576Z" fill="#FCFCFD"/>
<path d="M227.488 86.6693C227.488 86.6693 225.922 87.3055 225.257 86.2846C224.577 85.2638 223.897 83.2073 224.075 82.2604C224.075 82.2604 219.907 82.4675 219.08 80.2779C218.252 78.0882 219.154 77.526 219.287 76.8454C219.42 76.1649 219.538 74.3747 220.1 73.0875L220.159 72.5253C220.159 72.5253 219.316 71.8003 219.701 71.031C220.085 70.2616 222.36 67.8945 222.597 67.4802C222.833 67.0807 222.538 64.1365 223.424 62.657C224.311 61.1923 226.025 59.1506 226.025 59.1506C226.025 59.1506 234.891 52.2265 241.881 59.1506C248.856 66.0747 238.334 78.828 238.334 78.828C238.334 78.828 237.492 82.941 235.453 84.5832C233.414 86.2255 227.488 86.6397 227.488 86.6397V86.6693Z" fill="#EBDCFF"/>
<path d="M233.973 69.8028C233.973 69.5513 234.003 69.285 234.077 69.0482C234.343 68.2937 234.786 66.2372 232.643 64.6837C229.984 62.7456 225.27 60.9998 225.417 59.0468C225.565 57.1087 232.983 52.3003 238.466 54.8746C243.948 57.449 249.09 63.9588 245.352 70.8384C241.613 77.7329 238.318 78.8425 238.318 78.8425C238.318 78.8425 237.209 78.6058 238.2 77.4666C239.204 76.3126 241.022 73.4276 239.515 72.5103C238.007 71.593 235.392 73.5607 235.037 74.0046C234.904 74.1673 234.771 74.3892 234.653 74.5816C234.461 74.9071 234.047 75.0402 233.707 74.8775L233.574 74.8183C233.234 74.6555 233.057 74.2561 233.19 73.901L233.84 72.1108C233.944 71.8445 233.988 71.5634 233.973 71.2823L233.944 69.788L233.973 69.8028Z" fill="#BD8AFF"/>
<path d="M227.714 88.6221C227.714 88.6221 229.694 90.0276 230.847 92.7203C230.847 92.7203 228.733 90.5306 227.536 90.1016C227.536 90.1016 225.202 91.1964 225.202 91.9214C225.202 92.6463 224.98 97.0108 224.433 99.3632C223.887 101.716 223.946 109.971 223.946 109.971L222.468 110.948L221.773 107.323L222.039 99.6L223.414 92.5723C223.414 92.5723 223.665 89.9092 223.783 89.7761C223.887 89.6281 227.699 88.6221 227.699 88.6221H227.714Z" fill="#F1F3F5"/>
<path d="M227.711 88.6223C227.711 88.6223 225.45 86.2256 224.313 86.1664C223.175 86.122 222.554 86.7286 222.539 86.8765C222.525 87.0245 221.446 90.7824 221.446 90.7824C221.446 90.7824 219.318 97.3366 219.54 104.986C219.761 112.635 219.939 112.575 219.939 112.575L222.731 110.8C222.731 110.8 221.978 105.326 223.5 98.9936C225.022 92.6614 223.677 91.7145 224.416 91.0635C225.14 90.4125 228.066 89.4065 227.711 88.6371V88.6223Z" fill="#31C0FF"/>
<path d="M241.29 118.67C239.975 120.298 236.739 127.814 235.69 130.284C235.512 130.684 235.379 131.231 235.394 131.838C235.128 132.015 234.965 132.119 234.965 132.119L233.547 130.728C233.547 130.728 234.818 126.142 236.857 120.46C238.896 114.779 246.935 113.507 246.935 113.507C246.935 113.507 242.605 117.043 241.305 118.67H241.29Z" fill="#31C0FF"/>
<path d="M239.104 132.697C239.104 132.697 236.799 129.353 236.075 128.909C236.075 128.909 236.238 129.856 234.937 130.433C233.622 131.01 226.78 133.673 226.544 133.984C226.307 134.295 226.559 134.679 227.002 134.768C227.002 134.768 225.583 135.256 225.007 135.241C224.431 135.241 223.648 135.966 224.032 136.603C224.416 137.239 224.741 137.18 224.741 137.18C224.741 137.18 224.578 137.89 224.992 138.038C225.421 138.2 226.44 138.215 226.44 138.215C226.44 138.215 226.234 138.925 226.81 139.192C227.386 139.473 230.149 139.769 230.149 139.769C230.149 139.769 232.322 139.532 232.942 139.532C233.563 139.532 236.385 140.213 237.582 140.035C238.779 139.872 242.739 138.452 243.153 138.215C243.552 137.979 239.119 132.667 239.119 132.667L239.104 132.697Z" fill="#EBDCFF"/>
<path d="M240.746 85.5449L240.45 90.0574L238.012 90.8267L239.652 92.1731C239.652 92.1731 233.047 107.205 224.609 111.969C224.609 111.969 232.663 109.099 240.273 92.3062C240.273 92.3062 239.475 91.3594 239.224 91.093L240.923 90.3385L240.746 85.5449Z" fill="#31C0FF"/>
<path d="M219.168 85.0713C219.168 85.0713 216.183 100.414 218.725 111.969C218.725 111.969 215.666 106.406 218.429 85.0713H219.168Z" fill="#31C0FF"/>
<path d="M151.727 62.6571C152.155 62.0505 153.263 61.4883 153.263 61.4883C153.263 61.4883 156.455 62.7902 157.002 63.0418C157.002 63.0418 153.736 62.7015 151.727 62.6571Z" fill="#D9BBFF"/>
<path d="M170.037 71.2676C169.904 71.2232 169.401 70.8977 168.854 70.5575C170.968 67.702 168.648 63.589 168.633 63.5742C173.317 65.394 170.258 71.3712 170.022 71.2824L170.037 71.2676Z" fill="#D9BBFF"/>
<path d="M243.142 138.245C242.846 138.422 240.585 139.236 238.945 139.724C238.945 139.724 237.881 135.582 238.132 134.191C238.369 132.8 238.945 132.475 238.945 132.475C239.034 132.608 239.107 132.697 239.107 132.697C239.107 132.697 243.541 138.008 243.142 138.245Z" fill="#D9BBFF"/>
<path d="M239.107 132.504C239.107 132.504 238.398 134.901 240.023 136.765C241.649 138.629 241.826 138.866 241.826 138.866H243.688C243.688 138.866 244.649 135.936 244.501 135.862C244.353 135.788 239.122 132.519 239.122 132.519L239.107 132.504Z" fill="#5ECDFF"/>
<path d="M221.801 89.5537C221.801 89.5537 220.012 100.073 220.411 103.934C220.81 107.796 220.663 111.968 220.663 111.968L220.101 112.456L219.939 112.56C219.939 112.56 219.761 112.619 219.54 104.97C219.318 97.3211 221.446 90.7669 221.446 90.7669C221.446 90.7669 221.594 90.2343 221.786 89.5537H221.801Z" fill="#31C0FF"/>
<path d="M221.21 198.668C220.693 198.372 220.161 198.002 219.614 197.499C219.614 197.499 222.481 188.222 222.821 180.854C222.821 180.854 220.294 175.44 219.422 170.602C219.658 171.563 222.599 176.756 223.929 182.068C225.259 187.379 221.225 198.668 221.225 198.668H221.21Z" fill="#29BDFF"/>
<path d="M234.227 77.1553C234.168 77.4216 233.414 81.1647 231.907 82.9253C230.341 84.7451 229.144 86.5057 229.144 86.5057C228.169 86.6389 227.489 86.6833 227.489 86.6833C227.489 86.6833 225.923 87.3194 225.258 86.2986C224.578 85.2777 223.898 83.2212 224.075 82.2743C224.075 82.2743 229.691 81.6973 231.833 80.203C233.828 78.8123 234.183 77.3772 234.227 77.1701V77.1553Z" fill="#D9BBFF"/>
<path d="M236.253 128.939C236.253 128.939 235.958 129.575 235.899 129.634C235.84 129.678 235.766 129.146 235.766 129.146C235.766 129.146 236.017 128.628 236.032 128.628C236.046 128.628 236.253 128.953 236.253 128.953V128.939Z" fill="#C4CCD6"/>
<path d="M219.934 112.561C219.934 112.561 216.018 125.092 214.703 128.125L214.777 131.143C214.777 131.143 219.772 115.579 219.919 112.561H219.934Z" fill="#31C0FF"/>
<path d="M216.158 117.028C215.936 117.753 216.306 118.523 216.986 118.73C217.665 118.937 218.389 118.508 218.611 117.783C218.833 117.058 218.463 116.289 217.784 116.081C217.104 115.874 216.38 116.303 216.158 117.028Z" fill="#31C0FF"/>
<path d="M214.158 122.429C213.936 123.154 214.306 123.923 214.986 124.13C215.665 124.337 216.389 123.908 216.611 123.183C216.833 122.458 216.463 121.689 215.784 121.482C215.104 121.275 214.38 121.704 214.158 122.429Z" fill="#31C0FF"/>
<path d="M233.858 72.1257C233.961 71.8593 234.006 71.5782 233.991 71.2971L233.961 69.8028C233.961 69.5513 233.991 69.285 234.065 69.0483C234.138 68.8264 234.227 68.5009 234.271 68.1162C234.271 68.1162 240.374 72.5695 244.246 72.747C240.995 77.9549 238.32 78.8722 238.32 78.8722C238.32 78.8722 237.212 78.6355 238.202 77.4962C239.207 76.3422 241.025 73.4572 239.517 72.5399C238.01 71.6226 235.395 73.5904 235.04 74.0342C234.907 74.197 234.774 74.4189 234.656 74.6112C234.464 74.9367 234.05 75.0699 233.71 74.9071L233.577 74.8479C233.237 74.6852 233.06 74.2857 233.193 73.9306L233.843 72.1404L233.858 72.1257Z" fill="#B073FF"/>
<path d="M245.414 236.054C245.414 236.054 242.666 236.734 239.991 236.838C237.317 236.942 230.076 238.406 230.253 241.114C230.431 243.836 234.228 247.742 238.972 248.319C243.73 248.896 249.833 247.535 252.936 247.609C256.039 247.698 258.167 244.517 256.94 241.484C255.729 238.465 245.4 236.039 245.4 236.039L245.414 236.054Z" fill="#29BDFF"/>
<path d="M261.418 228.76C261.418 228.76 262.438 230.403 261.936 231.409C261.433 232.415 260.103 234.915 255.759 232.489C251.444 230.077 243.095 226.63 243.095 226.63C243.095 226.63 238.307 224.085 238.573 221.082C238.839 218.093 243.243 218.537 243.243 218.537L261.418 228.76Z" fill="#29BDFF"/>
<path d="M233.234 186.121C233.234 186.121 235.081 205.651 238.997 213.048C242.986 220.564 244.08 234.353 244.907 236.972C245.75 239.62 248.321 243.422 252.385 244.221C256.463 245.035 257.128 242.254 256.921 240.597C256.714 238.939 255.591 236.262 255.576 234.457C255.562 232.666 255.975 231.823 256.034 230.995C256.034 230.995 260.689 232.37 261.398 228.761C261.398 228.761 261.014 227.71 260.955 227.177C260.896 226.645 261.354 213.566 261.472 211.983C261.591 210.4 260.734 201.863 259.433 197.647C258.148 193.474 258.576 184.597 258.576 184.597L245.321 182.748L233.219 186.136L233.234 186.121Z" fill="#31C0FF"/>
<path d="M259.464 197.646C258.178 193.474 258.607 184.597 258.607 184.597L257.454 184.435C257.41 185.663 257.129 193.46 258.297 197.291C259.582 201.493 260.425 210.045 260.306 211.613C260.188 213.196 259.715 226.26 259.774 226.793C259.833 227.325 260.218 228.376 260.218 228.376C259.508 231.986 254.854 230.61 254.854 230.61C254.794 231.438 254.366 232.267 254.381 234.057C254.381 235.862 255.519 238.54 255.711 240.197C255.903 241.854 255.238 244.635 251.174 243.822C251.041 243.792 250.938 243.748 250.805 243.718C251.307 243.925 251.839 244.103 252.386 244.221C256.464 245.035 257.129 242.253 256.922 240.596C256.715 238.939 255.592 236.261 255.578 234.456C255.563 232.666 255.977 231.66 256.051 230.832C256.051 230.832 260.705 232.37 261.415 228.76C261.415 228.76 261.03 227.71 260.971 227.177C260.912 226.645 261.37 213.566 261.488 211.983C261.607 210.4 260.75 201.863 259.449 197.646H259.464Z" fill="url(#paint20_linear_2600_7852)"/>
<path d="M254.677 186.003C254.677 186.003 254.618 189.05 253.347 191.61C253.347 191.61 253.376 201.981 252.312 207.248C252.312 207.248 254.027 217.797 255.105 221.126C256.199 224.47 256.051 231.009 256.051 231.009C256.051 231.009 256.583 231.201 257.337 231.231C258.09 231.26 258.149 218.33 256.982 216.051C255.815 213.788 254.943 203.697 255.386 200.635C255.815 197.587 255.667 188.858 256.243 187.305C256.819 185.766 255.519 184.952 255.519 184.952L254.662 186.003H254.677Z" fill="#29BDFF"/>
<path d="M243.508 115.564C243.508 115.564 239.651 118.36 239.843 123.168L242.71 122.547C242.71 122.547 241.853 117.206 243.508 115.549V115.564Z" fill="#29BDFF"/>
<path d="M245.012 190.264C253.805 190.53 258.548 186.639 258.548 186.639C258.563 185.411 258.607 184.597 258.607 184.597L245.352 182.748L233.25 186.136C233.25 186.136 233.619 189.983 234.358 194.91C236.516 195.146 238.629 189.835 238.629 189.835L244.658 190.22C244.658 190.22 236.235 189.998 245.012 190.264Z" fill="#29BDFF"/>
<path d="M234.933 186.417C234.933 186.417 254.039 194.229 263.29 179.404C263.556 178.99 263.674 178.472 263.659 177.954L263.541 174.507C263.526 174.063 263.585 173.634 263.733 173.22C264.029 172.347 264.103 171.385 263.925 170.468C263.216 166.606 261.265 156.117 260.822 153.202C260.275 149.651 262.152 135.433 265.314 129.279C268.432 123.213 260.408 109.572 260.408 109.572C260.408 109.572 258.443 106.391 254.586 107.471C254.586 107.471 258.266 110.045 256.256 112.767C254.232 115.505 248.188 117.694 248.188 117.694C248.188 117.694 237.016 123.494 233.189 130.566C233.189 130.566 231.874 134.235 231.756 138.881C231.637 143.571 232.155 154.844 231.963 156.413C231.77 157.981 231.179 168.722 231.239 169.225C231.298 169.728 234.948 186.417 234.948 186.417H234.933Z" fill="#57CBFF"/>
<path d="M256.373 109.439C256.683 108.669 256.58 107.93 256.299 107.279C255.767 107.264 255.206 107.294 254.57 107.471C254.57 107.471 255.708 108.27 256.373 109.439Z" fill="url(#paint21_linear_2600_7852)"/>
<path d="M240.729 188.001C240.729 188.001 251.989 157.567 251.443 146.53C250.925 135.76 235.011 168.353 235.011 168.353L234.922 186.418C234.922 186.418 238.527 187.749 240.714 188.015L240.729 188.001Z" fill="#31C0FF"/>
<path d="M263.409 170.231C263.276 170.631 263.203 171.06 263.232 171.504L263.35 174.936C263.365 175.454 263.247 175.972 262.981 176.386C253.775 191.107 234.727 183.34 234.727 183.34C234.727 183.34 232.112 171.37 231.284 167.494C231.24 168.441 231.225 169.107 231.24 169.21C231.299 169.713 234.949 186.402 234.949 186.402C234.949 186.402 254.056 194.214 263.306 179.389C263.572 178.975 263.69 178.457 263.675 177.939L263.557 174.492C263.542 174.048 263.602 173.619 263.749 173.205C264.045 172.332 264.119 171.37 263.941 170.453C263.868 170.054 263.779 169.565 263.675 169.033C263.631 169.447 263.572 169.847 263.439 170.231H263.409Z" fill="url(#paint22_linear_2600_7852)"/>
<path d="M264.993 126.586C261.83 132.697 259.954 146.826 260.5 150.347C260.545 150.672 260.619 151.102 260.707 151.59C260.693 146.5 262.481 134.723 265.288 129.264C266.16 127.563 266.145 125.24 265.687 122.813C265.717 124.219 265.539 125.521 264.993 126.571V126.586Z" fill="url(#paint23_linear_2600_7852)"/>
<path d="M234.654 152.063C235.068 149.578 235.304 147.092 235.334 144.607C235.378 140.272 236.605 133.096 244.422 134.339C255.475 136.099 250.746 151.605 249.535 154.312C248.308 157.034 243.476 169.314 243.225 170.024C242.989 170.675 235.334 186.018 232.615 189.687C232.364 190.027 231.921 190.072 231.625 189.805C230.517 188.858 228.034 186.61 227.709 185.189C227.295 183.355 228.891 176.726 228.891 176.726C228.891 176.726 233.191 160.156 233.561 159.372C233.827 158.795 234.019 156.073 234.684 152.048L234.654 152.063Z" fill="#5ECDFF"/>
<path d="M243.698 115.904C243.698 115.904 242.826 113.906 240.787 113.699C238.763 113.492 237.61 112.93 237.403 112.175C237.196 111.421 237.196 110.518 236.694 109.394C236.206 108.284 235.793 105.532 235.793 105.473C235.793 105.414 234.256 104.941 234.182 104.26C234.108 103.579 234.906 101.153 234.817 100.975C234.729 100.783 233.901 99.3036 234.019 98.1496C234.138 96.9956 234.285 95.3238 234.891 93.9182C235.512 92.5127 239.797 83.9168 250.983 88.3405C262.288 92.8086 253.688 102.307 254.811 108.462C254.811 108.462 255.815 109.764 253.968 111.968C252.121 114.187 246.772 114.661 243.684 115.918L243.698 115.904Z" fill="#EBDCFF"/>
<path d="M253.984 111.968C255.831 109.764 254.827 108.462 254.827 108.462C254.664 107.604 254.708 106.687 254.856 105.725L250.438 106.568C250.438 106.568 243.906 100.754 244.364 103.861C244.837 106.997 243.241 107.545 243.241 107.545L244.586 109.246C244.926 109.69 244.719 110.193 244.453 110.681C242.591 113.892 238.055 112.93 238.055 112.93C238.616 113.3 239.547 113.566 240.818 113.7C242.842 113.907 243.729 115.904 243.729 115.904C246.817 114.646 252.167 114.173 254.014 111.954L253.984 111.968Z" fill="#D9BBFF"/>
<path d="M234.434 90.6489C234.434 90.6489 233.651 92.9421 234.922 93.9186C236.192 94.8802 237.33 95.7975 237.33 95.7975V98.7121C237.33 99.1264 237.449 99.5407 237.67 99.8957L239.266 102.352C239.576 102.825 239.739 103.387 239.739 103.95V105.148C239.739 105.503 240.005 105.784 240.345 105.829L240.759 105.873C241.128 105.917 241.453 105.636 241.497 105.266L241.675 103.609C241.675 103.609 242.517 102.278 244.349 103.861L246.004 104.541C246.463 104.734 246.832 105.104 246.994 105.592C247.453 106.864 248.443 109.379 249.181 109.794C250.186 110.356 254.043 108.358 254.56 107.471C255.078 106.583 256.378 100.68 257.191 97.8688C257.989 95.0726 257.516 88.1633 249.196 86.3879C240.906 84.6273 235.557 88.1485 234.419 90.6489H234.434Z" fill="#BD8AFF"/>
<path d="M254.573 107.47C255.09 106.583 256.39 100.679 257.203 97.8684C257.203 97.8684 253.982 100.014 249.8 100.65C245.618 101.286 237.328 96.5664 237.328 96.5664V98.6969C237.328 99.1112 237.446 99.5254 237.668 99.8805L239.264 102.336C239.574 102.81 239.737 103.372 239.737 103.934V105.133C239.737 105.488 240.003 105.769 240.343 105.813L240.756 105.858C241.126 105.902 241.451 105.621 241.495 105.251L241.673 103.594C241.673 103.594 242.515 102.262 244.347 103.846L246.726 104.822C246.726 104.822 248.174 109.201 249.179 109.764C250.184 110.326 254.041 108.328 254.558 107.441L254.573 107.47Z" fill="#B073FF"/>
<path d="M254.739 107.752C254.739 107.752 257.975 109.749 256.364 112.59C254.739 115.445 243.006 120.505 242.415 121.26C242.415 121.26 241.957 117.014 243.508 115.579C243.508 115.579 252.493 113.818 253.896 111.525C255.285 109.246 254.739 107.767 254.739 107.767V107.752Z" fill="#FCFCFD"/>
<path d="M254.738 107.752C254.738 107.752 255.285 109.231 253.896 111.51C252.847 113.241 247.438 114.676 244.867 115.268C244.867 115.268 245.828 115.815 247.424 118.538C251.029 116.659 255.418 114.247 256.364 112.59C257.974 109.749 254.738 107.752 254.738 107.752Z" fill="#F1F3F5"/>
<path d="M256.92 116.821C256.92 116.821 251.689 119.825 249.147 121.171C246.591 122.532 243.798 124.337 243.798 124.337L242.823 123.361L241.655 125.95C241.655 125.95 237.636 128.361 235.759 130.374C233.868 132.4 232.449 135.034 232.242 135.641C232.242 135.641 237.252 129.057 241.212 127.104L242.276 126.571L242.882 124.529L243.857 125.55C243.857 125.55 255.353 118.611 256.949 116.821H256.92Z" fill="#31C0FF"/>
<path d="M243.446 205.666C243.284 205.193 243.033 204.778 242.752 204.542L221.237 186.462C220.675 185.989 220.128 186.344 220.01 187.276L217.498 208.329C217.38 209.306 217.764 210.489 218.34 210.992L236.413 226.631L235.792 232.711L241.2 230.226C241.437 230.063 241.629 229.708 241.673 229.19L243.683 207.19C243.727 206.702 243.638 206.154 243.476 205.666H243.446Z" fill="url(#paint24_linear_2600_7852)"/>
<path d="M215.375 188.518L220.458 186.314L220.621 186.24C220.813 186.195 221.02 186.255 221.227 186.432L242.742 204.512C243.038 204.763 243.274 205.163 243.437 205.636L242.668 206.006L238.294 208.122L219.439 191.98L215.375 188.503V188.518Z" fill="#57CBFF"/>
<path d="M213.037 213.344L235.04 232.533C235.646 233.066 236.207 232.652 236.311 231.631L238.453 209.512C238.542 208.536 238.143 207.352 237.552 206.849L216.081 188.681C215.52 188.207 214.958 188.563 214.855 189.495L212.21 210.651C212.091 211.628 212.461 212.826 213.037 213.329V213.344Z" fill="#31C0FF"/>
<path d="M239.047 230.344L241.116 208.284C241.205 207.323 240.806 206.124 240.215 205.636L218.729 187.512C218.552 187.364 218.374 187.29 218.227 187.305C218.433 187.216 218.67 187.275 218.921 187.468L240.407 205.592C240.998 206.095 241.397 207.278 241.308 208.24L239.239 230.299C239.18 230.995 238.9 231.439 238.53 231.453C238.811 231.335 239.003 230.921 239.047 230.344Z" fill="#29BDFF"/>
<path d="M231.153 197.869L232.277 197.307C232.528 197.174 232.779 197.13 232.971 197.189H233.06C233.178 197.233 233.237 197.352 233.207 197.529V197.736L230.016 199.319V199.112C230.06 198.935 230.149 198.742 230.282 198.594L230.385 198.476C230.621 198.21 230.887 198.003 231.139 197.869H231.153Z" fill="#29BDFF"/>
<path d="M231.554 200.592L230.047 199.304L233.18 197.263L234.687 198.52L231.554 200.592Z" fill="#29BDFF"/>
<path d="M232.678 199.142L233.801 198.58C234.052 198.446 234.303 198.402 234.51 198.461H234.599C234.717 198.506 234.776 198.624 234.747 198.802V199.009L231.555 200.592V200.385C231.599 200.207 231.688 200.015 231.821 199.867L231.924 199.748C232.161 199.482 232.427 199.275 232.678 199.142Z" fill="url(#paint25_linear_2600_7852)"/>
<path d="M233.353 199.689L233.442 198.757L233.353 198.816L233.25 199.733L233.353 199.689Z" fill="#8B31FF"/>
<path d="M233.445 198.757L231.893 197.499L231.805 197.543L233.356 198.816L233.445 198.757Z" fill="#8B31FF"/>
<path d="M224.325 192.113L225.448 191.551C225.7 191.433 225.936 191.389 226.143 191.433H226.232C226.35 191.477 226.394 191.596 226.379 191.773L226.35 191.98L223.188 193.549L223.217 193.341C223.232 193.179 223.335 192.972 223.453 192.838L223.557 192.72C223.793 192.454 224.059 192.247 224.311 192.128L224.325 192.113Z" fill="#29BDFF"/>
<path d="M224.696 194.806L223.203 193.534L226.336 191.521L227.814 192.764L224.696 194.806Z" fill="#29BDFF"/>
<path d="M225.818 193.371L226.941 192.808C227.192 192.675 227.428 192.646 227.635 192.69H227.724C227.842 192.735 227.886 192.853 227.872 193.03L227.842 193.238L224.68 194.806L224.709 194.599C224.724 194.421 224.827 194.229 224.946 194.096L225.049 193.977C225.286 193.711 225.552 193.504 225.803 193.386L225.818 193.371Z" fill="url(#paint26_linear_2600_7852)"/>
<path d="M226.494 193.918L226.583 193.001L226.494 193.045L226.391 193.963L226.494 193.918Z" fill="#8B31FF"/>
<path d="M226.586 193.002L225.05 191.759L224.961 191.788L226.498 193.046L226.586 193.002Z" fill="#8B31FF"/>
<path d="M234.043 194.348L233.644 198.268L232.625 197.41L233.024 193.593C233.083 193.031 232.802 192.321 232.418 191.995L228.044 188.326C227.66 188.001 227.29 188.178 227.231 188.726L226.817 192.498L225.812 191.655L226.241 187.779C226.374 186.566 227.187 186.166 228.044 186.891L232.713 190.797C233.585 191.522 234.191 193.105 234.058 194.333L234.043 194.348Z" fill="#57CBFF"/>
<path d="M226.508 188.075L228.311 187.897L233.527 192.765L233.749 195.768L233.645 198.284L232.478 198.875L232.448 195.739L232.389 193.594L231.31 192.04C231.31 192.04 229.36 190.457 229.33 190.413C229.315 190.368 226.508 188.075 226.508 188.075Z" fill="#57CBFF"/>
<path d="M225.641 193.09L226.808 192.513L227.104 189.731L225.995 189.82L225.67 189.879L225.641 193.09Z" fill="#57CBFF"/>
<path d="M225.664 187.216L226.92 186.595C226.92 186.595 226.595 187.275 226.58 187.275L226.166 187.423L225.664 187.216Z" fill="#57CBFF"/>
<path d="M232.893 194.925L232.479 198.86L231.46 198.002L231.859 194.185C231.918 193.623 231.652 192.913 231.253 192.572L226.879 188.903C226.495 188.578 226.125 188.755 226.066 189.303L225.638 193.075L224.633 192.232L225.076 188.356C225.209 187.143 226.022 186.743 226.879 187.468L231.548 191.374C232.42 192.099 233.026 193.682 232.893 194.925Z" fill="#29BDFF"/>
<path d="M227.99 185.026C227.99 185.026 227.252 188.873 227.458 189.835C227.665 190.796 229.498 192.661 230.606 193.001C231.714 193.341 231.256 192.024 231.507 191.196C231.759 190.367 231.714 188.562 231.714 188.562L227.99 185.026Z" fill="#EBDCFF"/>
<path d="M231.715 188.562L227.991 185.026C227.991 185.026 227.843 185.811 227.695 186.757C227.695 186.757 229.084 189.613 231.611 190.737C231.759 189.835 231.729 188.548 231.729 188.548L231.715 188.562Z" fill="#D9BBFF"/>
<path d="M227.727 185.322C227.727 185.322 229.042 189.45 232.352 189.85L231.229 185.322C231.229 185.322 228.436 184.538 228.347 184.523C228.259 184.523 227.727 185.322 227.727 185.322Z" fill="#5ECDFF"/>
<path d="M249.259 136.765C252.332 146.115 244.648 160.659 243.54 164.905C242.417 169.195 230.743 189.036 230.743 189.05C230.669 189.169 230.625 189.243 230.625 189.243C230.876 189.435 231.157 189.642 231.393 189.76C231.704 189.879 231.571 189.864 231.925 189.953C232.177 189.997 232.428 189.908 232.605 189.672C235.339 185.988 242.979 170.66 243.215 170.009C243.466 169.314 248.313 157.034 249.525 154.297C250.5 152.122 253.736 141.662 249.259 136.75V136.765Z" fill="url(#paint27_linear_2600_7852)"/>
<g style="mix-blend-mode:lighten">
<path d="M124.552 226.747C123.74 226.747 122.971 226.585 122.38 226.244L73.4831 197.986C72.8477 197.616 72.5078 197.098 72.5078 196.507C72.5078 195.826 72.9807 195.16 73.8082 194.687L122.04 166.798C123.518 165.94 125.69 165.866 126.976 166.606L175.873 194.864C176.508 195.234 176.848 195.752 176.848 196.344C176.848 197.024 176.375 197.69 175.548 198.164L127.316 226.052C126.518 226.511 125.513 226.747 124.552 226.747ZM122.75 225.579C123.799 226.185 125.705 226.097 126.932 225.386L175.164 197.498C175.74 197.158 176.095 196.728 176.095 196.329C176.095 195.944 175.77 195.663 175.489 195.515L126.592 167.257C125.542 166.65 123.636 166.739 122.41 167.449L74.1776 195.338C73.6013 195.678 73.2467 196.107 73.2467 196.507C73.2467 196.891 73.5718 197.172 73.8525 197.32L122.75 225.579Z" fill="#99E0FF"/>
</g>
<path d="M176.479 175.734V181.756L124.552 211.76L72.6406 181.741V175.734H176.479Z" fill="url(#paint28_linear_2600_7852)"/>
<path d="M124.552 205.754L72.6406 175.735L124.552 145.73L176.479 175.735L124.552 205.754Z" fill="#CAEFFF"/>
<path d="M124.552 205.059L73.2465 175.395L72.6406 175.735L124.552 205.754L176.479 175.735L175.873 175.395L124.552 205.059Z" fill="white"/>
<path d="M124.552 198.829L84.625 175.749L124.552 152.669L164.495 175.749L124.552 198.829Z" fill="#22BBFF"/>
<path opacity="0.5" d="M124.552 198.829L84.625 175.749L124.552 152.669L164.495 175.749L124.552 198.829Z" fill="url(#paint29_linear_2600_7852)"/>
<path opacity="0.5" d="M124.555 146.84L164.497 169.92V175.749L124.555 152.669V146.84Z" fill="url(#paint30_linear_2600_7852)"/>
<path opacity="0.5" d="M124.552 152.669L84.625 175.749V169.92L124.552 146.84V152.669Z" fill="url(#paint31_linear_2600_7852)"/>
<path opacity="0.5" d="M124.552 193.015L84.625 169.92L124.552 146.84L164.495 169.92L124.552 193.015Z" fill="url(#paint32_linear_2600_7852)"/>
<path opacity="0.5" d="M124.553 179.152L108.594 169.92L124.553 160.703L140.512 169.92L124.553 179.152Z" fill="#A957FF"/>
<path opacity="0.5" d="M124.553 161.546L139.788 170.349L140.512 169.92L124.553 160.703L108.594 169.92L109.333 170.349L124.553 161.546Z" fill="#A957FF"/>
<path opacity="0.5" d="M124.555 193.015V198.829L164.497 175.749V169.92L124.555 193.015Z" fill="url(#paint33_linear_2600_7852)"/>
<path opacity="0.5" d="M84.625 169.92V175.749L124.552 198.829V193.015L84.625 169.92Z" fill="url(#paint34_linear_2600_7852)"/>
<path opacity="0.8" d="M124.552 192.379L85.1717 169.609L84.625 169.92L124.552 193.015L164.495 169.92L163.948 169.609L124.552 192.379Z" fill="#A957FF"/>
<g style="mix-blend-mode:lighten">
<path d="M124.552 363.114C123.74 363.114 122.971 362.951 122.38 362.611L73.4831 334.352C72.8477 333.982 72.5078 333.465 72.5078 332.873C72.5078 332.192 72.9807 331.526 73.8082 331.053L122.04 303.164C123.518 302.306 125.69 302.232 126.976 302.972L175.873 331.23C176.508 331.6 176.848 332.118 176.848 332.71C176.848 333.391 176.375 334.056 175.548 334.53L127.316 362.418C126.518 362.877 125.513 363.114 124.552 363.114ZM122.75 361.945C123.799 362.552 125.705 362.463 126.932 361.753L175.164 333.864C175.74 333.524 176.095 333.095 176.095 332.695C176.095 332.311 175.77 332.029 175.489 331.881L126.592 303.623C125.542 303.016 123.636 303.105 122.41 303.815L74.1776 331.704C73.6013 332.044 73.2467 332.473 73.2467 332.873C73.2467 333.257 73.5718 333.538 73.8525 333.686L122.75 361.945Z" fill="#99E0FF"/>
</g>
<path d="M176.479 312.101V318.107L124.552 348.126L72.6406 318.107V312.101H176.479Z" fill="url(#paint35_linear_2600_7852)"/>
<path d="M124.552 342.119L72.6406 312.1L124.552 282.081L176.479 312.1L124.552 342.119Z" fill="#CAEFFF"/>
<path d="M124.552 341.424L73.2465 311.745L72.6406 312.1L124.552 342.119L176.479 312.1L175.873 311.76L124.552 341.424Z" fill="white"/>
<path d="M124.552 335.195L84.625 312.115L124.552 289.02L164.495 312.115L124.552 335.195Z" fill="#22BBFF"/>
<path opacity="0.5" d="M124.552 335.195L84.625 312.115L124.552 289.02L164.495 312.115L124.552 335.195Z" fill="url(#paint36_linear_2600_7852)"/>
<path opacity="0.5" d="M124.555 283.205L164.497 306.285V312.115L124.555 289.02V283.205Z" fill="url(#paint37_linear_2600_7852)"/>
<path opacity="0.5" d="M124.552 289.02L84.625 312.115V306.285L124.552 283.205V289.02Z" fill="url(#paint38_linear_2600_7852)"/>
<path opacity="0.5" d="M124.552 329.38L84.625 306.285L124.552 283.205L164.495 306.285L124.552 329.38Z" fill="url(#paint39_linear_2600_7852)"/>
<path opacity="0.5" d="M124.553 315.518L108.594 306.286L124.553 297.068L140.512 306.286L124.553 315.518Z" fill="#A957FF"/>
<path opacity="0.5" d="M124.553 297.912L139.788 306.715L140.512 306.286L124.553 297.068L108.594 306.286L109.333 306.715L124.553 297.912Z" fill="#A957FF"/>
<path opacity="0.5" d="M124.555 329.38V335.195L164.497 312.114V306.285L124.555 329.38Z" fill="url(#paint40_linear_2600_7852)"/>
<path opacity="0.5" d="M84.625 306.285V312.114L124.552 335.195V329.38L84.625 306.285Z" fill="url(#paint41_linear_2600_7852)"/>
<path opacity="0.8" d="M124.552 328.744L85.1717 305.975L84.625 306.285L124.552 329.38L164.495 306.285L163.948 305.975L124.552 328.744Z" fill="#A957FF"/>
<g style="mix-blend-mode:lighten">
<path d="M332.685 226.747C331.872 226.747 331.104 226.585 330.513 226.244L281.616 197.986C280.981 197.616 280.641 197.098 280.641 196.507C280.641 195.826 281.113 195.16 281.941 194.687L330.173 166.798C331.651 165.94 333.823 165.866 335.109 166.606L384.006 194.864C384.641 195.234 384.981 195.752 384.981 196.344C384.981 197.024 384.508 197.69 383.681 198.164L335.449 226.052C334.651 226.511 333.646 226.747 332.685 226.747ZM330.882 225.579C331.932 226.185 333.838 226.097 335.064 225.386L383.296 197.498C383.873 197.158 384.227 196.728 384.227 196.329C384.227 195.944 383.902 195.663 383.622 195.515L334.724 167.257C333.675 166.65 331.769 166.739 330.543 167.449L282.31 195.338C281.734 195.678 281.379 196.107 281.379 196.507C281.379 196.891 281.705 197.172 281.985 197.32L330.882 225.579Z" fill="#99E0FF"/>
</g>
<path d="M384.611 175.734V181.756L332.684 211.76L280.758 181.741V175.734H384.611Z" fill="url(#paint42_linear_2600_7852)"/>
<path d="M332.684 205.754L280.758 175.735L332.684 145.73L384.611 175.735L332.684 205.754Z" fill="#CAEFFF"/>
<path d="M332.684 205.059L281.364 175.395L280.758 175.735L332.684 205.754L384.611 175.735L384.005 175.395L332.684 205.059Z" fill="white"/>
<path d="M332.685 198.829L292.758 175.749L332.685 152.669L372.628 175.749L332.685 198.829Z" fill="#22BBFF"/>
<path opacity="0.5" d="M332.685 198.829L292.758 175.749L332.685 152.669L372.628 175.749L332.685 198.829Z" fill="url(#paint43_linear_2600_7852)"/>
<path opacity="0.5" d="M332.688 146.84L372.63 169.92V175.749L332.688 152.669V146.84Z" fill="url(#paint44_linear_2600_7852)"/>
<path opacity="0.5" d="M332.685 152.669L292.758 175.749V169.92L332.685 146.84V152.669Z" fill="url(#paint45_linear_2600_7852)"/>
<path opacity="0.5" d="M332.685 193.015L292.758 169.92L332.685 146.84L372.628 169.92L332.685 193.015Z" fill="url(#paint46_linear_2600_7852)"/>
<path opacity="0.5" d="M332.686 179.152L316.727 169.92L332.686 160.703L348.645 169.92L332.686 179.152Z" fill="#A957FF"/>
<path opacity="0.5" d="M332.686 161.546L347.906 170.349L348.645 169.92L332.686 160.703L316.727 169.92L317.465 170.349L332.686 161.546Z" fill="#A957FF"/>
<path opacity="0.5" d="M332.688 193.015V198.829L372.63 175.749V169.92L332.688 193.015Z" fill="url(#paint47_linear_2600_7852)"/>
<path opacity="0.5" d="M292.758 169.92V175.749L332.685 198.829V193.015L292.758 169.92Z" fill="url(#paint48_linear_2600_7852)"/>
<path opacity="0.8" d="M332.685 192.379L293.305 169.609L292.758 169.92L332.685 193.015L372.628 169.92L372.081 169.609L332.685 192.379Z" fill="#A957FF"/>
<g style="mix-blend-mode:lighten">
<path d="M332.685 363.114C331.872 363.114 331.104 362.951 330.513 362.611L281.616 334.352C280.981 333.982 280.641 333.465 280.641 332.873C280.641 332.192 281.113 331.526 281.941 331.053L330.173 303.164C331.651 302.306 333.823 302.232 335.109 302.972L384.006 331.23C384.641 331.6 384.981 332.118 384.981 332.71C384.981 333.391 384.508 334.056 383.681 334.53L335.449 362.418C334.651 362.877 333.646 363.114 332.685 363.114ZM330.882 361.945C331.932 362.552 333.838 362.463 335.064 361.753L383.296 333.864C383.873 333.524 384.227 333.095 384.227 332.695C384.227 332.311 383.902 332.029 383.622 331.881L334.724 303.623C333.675 303.016 331.769 303.105 330.543 303.815L282.31 331.704C281.734 332.044 281.379 332.473 281.379 332.873C281.379 333.257 281.705 333.538 281.985 333.686L330.882 361.945Z" fill="#99E0FF"/>
</g>
<path d="M384.611 312.101V318.107L332.684 348.126L280.758 318.107V312.101H384.611Z" fill="url(#paint49_linear_2600_7852)"/>
<path d="M332.684 342.119L280.758 312.1L332.684 282.081L384.611 312.1L332.684 342.119Z" fill="#CAEFFF"/>
<path d="M332.684 341.424L281.364 311.745L280.758 312.1L332.684 342.119L384.611 312.1L384.005 311.76L332.684 341.424Z" fill="white"/>
<path d="M332.685 335.195L292.758 312.115L332.685 289.02L372.628 312.115L332.685 335.195Z" fill="#22BBFF"/>
<path opacity="0.5" d="M332.685 335.195L292.758 312.115L332.685 289.02L372.628 312.115L332.685 335.195Z" fill="url(#paint50_linear_2600_7852)"/>
<path opacity="0.5" d="M332.688 283.205L372.63 306.285V312.115L332.688 289.02V283.205Z" fill="url(#paint51_linear_2600_7852)"/>
<path opacity="0.5" d="M332.685 289.02L292.758 312.115V306.285L332.685 283.205V289.02Z" fill="url(#paint52_linear_2600_7852)"/>
<path opacity="0.5" d="M332.685 329.38L292.758 306.285L332.685 283.205L372.628 306.285L332.685 329.38Z" fill="url(#paint53_linear_2600_7852)"/>
<path opacity="0.5" d="M332.686 315.518L316.727 306.286L332.686 297.068L348.645 306.286L332.686 315.518Z" fill="#A957FF"/>
<path opacity="0.5" d="M332.686 297.912L347.906 306.715L348.645 306.286L332.686 297.068L316.727 306.286L317.465 306.715L332.686 297.912Z" fill="#A957FF"/>
<path opacity="0.5" d="M332.688 329.38V335.195L372.63 312.114V306.285L332.688 329.38Z" fill="url(#paint54_linear_2600_7852)"/>
<path opacity="0.5" d="M292.758 306.285V312.114L332.685 335.195V329.38L292.758 306.285Z" fill="url(#paint55_linear_2600_7852)"/>
<path opacity="0.8" d="M332.685 328.744L293.305 305.975L292.758 306.285L332.685 329.38L372.628 306.285L372.081 305.975L332.685 328.744Z" fill="#A957FF"/>
<g opacity="0.5">
<path opacity="0.5" d="M81.0358 25.3439C116.914 14.5287 138.252 55.2298 117.299 94.4661C99.5071 127.77 56.1366 151.812 44.8026 116.836C38.1234 96.2563 43.6648 45.8349 77.5928 26.8234C68.4458 31.5578 61.737 38.2599 55.1465 49.223C67.6626 64.6394 68.6822 65.897 79.4842 78.3396C92.2811 48.069 93.3303 45.5982 102.788 25.1219C95.3991 22.5476 88.8972 22.6216 81.0358 25.3439ZM78.5237 26.3795C78.2577 26.4979 77.977 26.631 77.711 26.7642C77.977 26.631 78.2577 26.5127 78.5237 26.3795ZM80.3561 25.6102C80.5482 25.5362 80.755 25.4474 80.9619 25.3734C80.755 25.4474 80.5629 25.5214 80.3561 25.6102ZM79.499 25.9652C79.2182 26.0836 78.9375 26.202 78.6567 26.3351C78.9375 26.2168 79.2182 26.0836 79.499 25.9652ZM79.499 25.9652C79.7207 25.8765 79.9571 25.7729 80.1787 25.6841C79.9423 25.7729 79.7207 25.8765 79.499 25.9652Z" fill="#A957FF"/>
<path d="M20.375 63.9442C22.4733 61.7398 24.7194 59.5797 27.1133 57.4492V162.213C24.7194 164.343 22.4733 166.503 20.375 168.708V63.9442Z" fill="#A957FF"/>
<path d="M9.61719 114.424C11.0949 112.087 12.7351 109.764 14.5379 107.485V175.409C12.7351 177.688 11.0949 179.996 9.61719 182.348V114.424Z" fill="#A957FF"/>
<path opacity="0.5" d="M0 193.386L0.103439 193.622L0.236432 186.743L0 186.373V193.371V193.386ZM0 213.64V108.877C0 108.211 0 107.53 0.044331 106.864C0.221655 102.086 1.06394 97.366 2.51209 92.75V197.513C1.06394 202.129 0.236432 206.849 0.044331 211.628C0.014777 212.294 0 212.974 0 213.64Z" fill="#A957FF"/>
<path d="M0 193.386L0.103439 193.623L0.236432 186.743L0 186.373V193.386Z" fill="#A957FF"/>
<path d="M77.712 26.7641C77.712 26.7641 77.6381 26.8085 77.5938 26.8233C77.6381 26.8085 77.6676 26.7789 77.712 26.7641ZM80.9481 25.3733C80.9481 25.3733 81.0072 25.3438 81.0368 25.3438C81.0072 25.3438 80.9777 25.3733 80.9481 25.3733ZM78.6429 26.3202C78.6429 26.3202 78.5543 26.3646 78.5099 26.3794C78.5543 26.3646 78.5986 26.335 78.6429 26.3202ZM80.165 25.6692H80.1797H80.1945H80.2093H80.2241H80.2388H80.2536H80.2684H80.2832C80.2241 25.6988 80.1649 25.7136 80.1058 25.7432L80.165 25.6692Z" fill="#A957FF"/>
<path d="M79.4862 25.9504C91.1748 21.068 99.6124 24.0122 102.789 25.1218C89.4163 54.6379 88.0125 57.7152 79.4862 78.3395C66.3051 62.997 64.2806 60.6299 55.1484 49.2229C57.7344 44.9176 65.5958 31.8388 79.4862 25.9652V25.9504Z" fill="#A957FF"/>
<path opacity="0.5" d="M162.503 283.65C151.745 286.846 144.829 280.306 142.303 278.368C122.546 261.62 105.242 241.189 85.4111 224.5C79.5446 219.573 75.9686 221.615 73.9293 222.147C49.2813 231.932 34.9821 233.84 31.0317 227.873C20.1706 208.625 19.8012 207.071 14.7622 195.028C13.6096 192.276 9.69371 188.119 7.9648 188.341C-0.325094 190.678 0.768404 192.38 0 193.386V186.388C9.78237 182.615 10.7872 182.156 14.7622 191.27C33.0266 230.077 36.2332 229.219 40.489 228.213C79.3968 212.634 78.9092 213.773 88.8246 224.086C105.981 241.973 140.574 276.785 151.257 279.552C154.538 279.981 159.754 279.508 162.828 278.723C200.391 266.133 215.286 258.203 252.037 242.357L255.332 247.698C241.722 253.646 200.613 269.832 162.769 281.771L162.488 283.65H162.503ZM279.891 325.89V221.127C268.336 221.777 256.544 222.073 244.559 221.97C108.596 220.89 0 170.454 0 108.892V213.655C0 275.217 108.596 325.668 244.574 326.748C256.558 326.837 268.35 326.556 279.906 325.905L279.891 325.89Z" fill="#A957FF"/>
<path d="M162.502 283.65C152.823 286.135 143.676 288.473 86.7106 227.133C81.9031 222.3 67.1705 224.8 42.5126 234.634C38.3159 235.655 31.9618 237.194 14.4806 195.427C9.08701 183.088 0.073037 193.267 -0.015625 193.386V186.388C3.04321 184.642 3.25009 184.523 7.84574 183.236C8.68803 182.999 9.6042 183.044 10.3726 183.443C11.5991 184.08 12.8404 185.529 14.9978 190.131C21.7164 204.452 27.4942 215.534 32.3312 223.375C35.1783 227.606 48.1771 225.126 71.3277 215.933C73.692 215.297 78.6276 213.965 86.0752 219.913C106.985 236.617 124.008 257.492 144.636 274.492C152.38 280.01 157.064 283.339 252.036 242.372L255.331 247.713C241.721 253.66 200.331 271.725 162.487 283.665L162.502 283.65Z" fill="#A957FF"/>
</g>
<defs>
<linearGradient id="paint0_linear_2600_7852" x1="133.141" y1="383.117" x2="323.055" y2="383.117" gradientUnits="userSpaceOnUse">
<stop stop-color="#76D5FF"/>
<stop offset="0.04" stop-color="#79CDFF"/>
<stop offset="0.25" stop-color="#8AA3FF"/>
<stop offset="0.46" stop-color="#9781FF"/>
<stop offset="0.66" stop-color="#A16AFF"/>
<stop offset="0.84" stop-color="#A75BFF"/>
<stop offset="1" stop-color="#A957FF"/>
</linearGradient>
<linearGradient id="paint1_linear_2600_7852" x1="-0.000136542" y1="368.485" x2="1.47756" y2="368.485" gradientUnits="userSpaceOnUse">
<stop stop-color="#76D5FF"/>
<stop offset="0.04" stop-color="#79CDFF"/>
<stop offset="0.25" stop-color="#8AA3FF"/>
<stop offset="0.46" stop-color="#9781FF"/>
<stop offset="0.66" stop-color="#A16AFF"/>
<stop offset="0.84" stop-color="#A75BFF"/>
<stop offset="1" stop-color="#A957FF"/>
</linearGradient>
<linearGradient id="paint2_linear_2600_7852" x1="-0.000136542" y1="353.852" x2="1.47756" y2="353.852" gradientUnits="userSpaceOnUse">
<stop stop-color="#76D5FF"/>
<stop offset="0.04" stop-color="#79CDFF"/>
<stop offset="0.25" stop-color="#8AA3FF"/>
<stop offset="0.46" stop-color="#9781FF"/>
<stop offset="0.66" stop-color="#A16AFF"/>
<stop offset="0.84" stop-color="#A75BFF"/>
<stop offset="1" stop-color="#A957FF"/>
</linearGradient>
<linearGradient id="paint3_linear_2600_7852" x1="-0.000136542" y1="339.235" x2="1.47756" y2="339.235" gradientUnits="userSpaceOnUse">
<stop stop-color="#76D5FF"/>
<stop offset="0.04" stop-color="#79CDFF"/>
<stop offset="0.25" stop-color="#8AA3FF"/>
<stop offset="0.46" stop-color="#9781FF"/>
<stop offset="0.66" stop-color="#A16AFF"/>
<stop offset="0.84" stop-color="#A75BFF"/>
<stop offset="1" stop-color="#A957FF"/>
</linearGradient>
<linearGradient id="paint4_linear_2600_7852" x1="133.141" y1="361.176" x2="323.055" y2="361.176" gradientUnits="userSpaceOnUse">
<stop stop-color="#76D5FF"/>
<stop offset="0.04" stop-color="#79CDFF"/>
<stop offset="0.25" stop-color="#8AA3FF"/>
<stop offset="0.46" stop-color="#9781FF"/>
<stop offset="0.66" stop-color="#A16AFF"/>
<stop offset="0.84" stop-color="#A75BFF"/>
<stop offset="1" stop-color="#A957FF"/>
</linearGradient>
<linearGradient id="paint5_linear_2600_7852" x1="-0.000136542" y1="322.605" x2="1.47756" y2="322.605" gradientUnits="userSpaceOnUse">
<stop stop-color="#76D5FF"/>
<stop offset="0.04" stop-color="#79CDFF"/>
<stop offset="0.25" stop-color="#8AA3FF"/>
<stop offset="0.46" stop-color="#9781FF"/>
<stop offset="0.66" stop-color="#A16AFF"/>
<stop offset="0.84" stop-color="#A75BFF"/>
<stop offset="1" stop-color="#A957FF"/>
</linearGradient>
<linearGradient id="paint6_linear_2600_7852" x1="-0.000136542" y1="307.973" x2="1.47756" y2="307.973" gradientUnits="userSpaceOnUse">
<stop stop-color="#76D5FF"/>
<stop offset="0.04" stop-color="#79CDFF"/>
<stop offset="0.25" stop-color="#8AA3FF"/>
<stop offset="0.46" stop-color="#9781FF"/>
<stop offset="0.66" stop-color="#A16AFF"/>
<stop offset="0.84" stop-color="#A75BFF"/>
<stop offset="1" stop-color="#A957FF"/>
</linearGradient>
<linearGradient id="paint7_linear_2600_7852" x1="-0.000136542" y1="293.34" x2="1.47756" y2="293.34" gradientUnits="userSpaceOnUse">
<stop stop-color="#76D5FF"/>
<stop offset="0.04" stop-color="#79CDFF"/>
<stop offset="0.25" stop-color="#8AA3FF"/>
<stop offset="0.46" stop-color="#9781FF"/>
<stop offset="0.66" stop-color="#A16AFF"/>
<stop offset="0.84" stop-color="#A75BFF"/>
<stop offset="1" stop-color="#A957FF"/>
</linearGradient>
<linearGradient id="paint8_linear_2600_7852" x1="-0.000136542" y1="278.723" x2="1.47756" y2="278.723" gradientUnits="userSpaceOnUse">
<stop stop-color="#76D5FF"/>
<stop offset="0.04" stop-color="#79CDFF"/>
<stop offset="0.25" stop-color="#8AA3FF"/>
<stop offset="0.46" stop-color="#9781FF"/>
<stop offset="0.66" stop-color="#A16AFF"/>
<stop offset="0.84" stop-color="#A75BFF"/>
<stop offset="1" stop-color="#A957FF"/>
</linearGradient>
<linearGradient id="paint9_linear_2600_7852" x1="133.141" y1="300.664" x2="323.055" y2="300.664" gradientUnits="userSpaceOnUse">
<stop stop-color="#76D5FF"/>
<stop offset="0.04" stop-color="#79CDFF"/>
<stop offset="0.25" stop-color="#8AA3FF"/>
<stop offset="0.46" stop-color="#9781FF"/>
<stop offset="0.66" stop-color="#A16AFF"/>
<stop offset="0.84" stop-color="#A75BFF"/>
<stop offset="1" stop-color="#A957FF"/>
</linearGradient>
<linearGradient id="paint10_linear_2600_7852" x1="-0.000136542" y1="262.094" x2="1.47756" y2="262.094" gradientUnits="userSpaceOnUse">
<stop stop-color="#76D5FF"/>
<stop offset="0.04" stop-color="#79CDFF"/>
<stop offset="0.25" stop-color="#8AA3FF"/>
<stop offset="0.46" stop-color="#9781FF"/>
<stop offset="0.66" stop-color="#A16AFF"/>
<stop offset="0.84" stop-color="#A75BFF"/>
<stop offset="1" stop-color="#A957FF"/>
</linearGradient>
<linearGradient id="paint11_linear_2600_7852" x1="-0.000136542" y1="247.462" x2="1.47756" y2="247.462" gradientUnits="userSpaceOnUse">
<stop stop-color="#76D5FF"/>
<stop offset="0.04" stop-color="#79CDFF"/>
<stop offset="0.25" stop-color="#8AA3FF"/>
<stop offset="0.46" stop-color="#9781FF"/>
<stop offset="0.66" stop-color="#A16AFF"/>
<stop offset="0.84" stop-color="#A75BFF"/>
<stop offset="1" stop-color="#A957FF"/>
</linearGradient>
<linearGradient id="paint12_linear_2600_7852" x1="-0.000136542" y1="232.829" x2="1.47756" y2="232.829" gradientUnits="userSpaceOnUse">
<stop stop-color="#76D5FF"/>
<stop offset="0.04" stop-color="#79CDFF"/>
<stop offset="0.25" stop-color="#8AA3FF"/>
<stop offset="0.46" stop-color="#9781FF"/>
<stop offset="0.66" stop-color="#A16AFF"/>
<stop offset="0.84" stop-color="#A75BFF"/>
<stop offset="1" stop-color="#A957FF"/>
</linearGradient>
<linearGradient id="paint13_linear_2600_7852" x1="-0.000136542" y1="218.212" x2="1.47756" y2="218.212" gradientUnits="userSpaceOnUse">
<stop stop-color="#76D5FF"/>
<stop offset="0.04" stop-color="#79CDFF"/>
<stop offset="0.25" stop-color="#8AA3FF"/>
<stop offset="0.46" stop-color="#9781FF"/>
<stop offset="0.66" stop-color="#A16AFF"/>
<stop offset="0.84" stop-color="#A75BFF"/>
<stop offset="1" stop-color="#A957FF"/>
</linearGradient>
<linearGradient id="paint14_linear_2600_7852" x1="133.141" y1="240.153" x2="323.055" y2="240.153" gradientUnits="userSpaceOnUse">
<stop stop-color="#76D5FF"/>
<stop offset="0.04" stop-color="#79CDFF"/>
<stop offset="0.25" stop-color="#8AA3FF"/>
<stop offset="0.46" stop-color="#9781FF"/>
<stop offset="0.66" stop-color="#A16AFF"/>
<stop offset="0.84" stop-color="#A75BFF"/>
<stop offset="1" stop-color="#A957FF"/>
</linearGradient>
<linearGradient id="paint15_linear_2600_7852" x1="-0.000136542" y1="218.212" x2="1.47756" y2="218.212" gradientUnits="userSpaceOnUse">
<stop stop-color="#76D5FF"/>
<stop offset="0.04" stop-color="#79CDFF"/>
<stop offset="0.25" stop-color="#8AA3FF"/>
<stop offset="0.46" stop-color="#9781FF"/>
<stop offset="0.66" stop-color="#A16AFF"/>
<stop offset="0.84" stop-color="#A75BFF"/>
<stop offset="1" stop-color="#A957FF"/>
</linearGradient>
<linearGradient id="paint16_linear_2600_7852" x1="133.144" y1="244.577" x2="323.058" y2="244.577" gradientUnits="userSpaceOnUse">
<stop stop-color="#76D5FF"/>
<stop offset="0.04" stop-color="#79CDFF"/>
<stop offset="0.25" stop-color="#8AA3FF"/>
<stop offset="0.46" stop-color="#9781FF"/>
<stop offset="0.66" stop-color="#A16AFF"/>
<stop offset="0.84" stop-color="#A75BFF"/>
<stop offset="1" stop-color="#A957FF"/>
</linearGradient>
<linearGradient id="paint17_linear_2600_7852" x1="210.921" y1="179.745" x2="219.137" y2="179.745" gradientUnits="userSpaceOnUse">
<stop stop-color="#76D5FF"/>
<stop offset="0.04" stop-color="#79CDFF"/>
<stop offset="0.25" stop-color="#8AA3FF"/>
<stop offset="0.46" stop-color="#9781FF"/>
<stop offset="0.66" stop-color="#A16AFF"/>
<stop offset="0.84" stop-color="#A75BFF"/>
<stop offset="1" stop-color="#A957FF"/>
</linearGradient>
<linearGradient id="paint18_linear_2600_7852" x1="215.102" y1="161.65" x2="235.686" y2="161.65" gradientUnits="userSpaceOnUse">
<stop stop-color="#76D5FF"/>
<stop offset="0.04" stop-color="#79CDFF"/>
<stop offset="0.25" stop-color="#8AA3FF"/>
<stop offset="0.46" stop-color="#9781FF"/>
<stop offset="0.66" stop-color="#A16AFF"/>
<stop offset="0.84" stop-color="#A75BFF"/>
<stop offset="1" stop-color="#A957FF"/>
</linearGradient>
<linearGradient id="paint19_linear_2600_7852" x1="215.195" y1="141.351" x2="237.509" y2="141.351" gradientUnits="userSpaceOnUse">
<stop stop-color="#76D5FF"/>
<stop offset="0.04" stop-color="#79CDFF"/>
<stop offset="0.25" stop-color="#8AA3FF"/>
<stop offset="0.46" stop-color="#9781FF"/>
<stop offset="0.66" stop-color="#A16AFF"/>
<stop offset="0.84" stop-color="#A75BFF"/>
<stop offset="1" stop-color="#A957FF"/>
</linearGradient>
<linearGradient id="paint20_linear_2600_7852" x1="248.307" y1="215.039" x2="261.777" y2="213.86" gradientUnits="userSpaceOnUse">
<stop stop-color="#76D5FF"/>
<stop offset="0.04" stop-color="#79CDFF"/>
<stop offset="0.25" stop-color="#8AA3FF"/>
<stop offset="0.46" stop-color="#9781FF"/>
<stop offset="0.66" stop-color="#A16AFF"/>
<stop offset="0.84" stop-color="#A75BFF"/>
<stop offset="1" stop-color="#A957FF"/>
</linearGradient>
<linearGradient id="paint21_linear_2600_7852" x1="254.668" y1="108.469" x2="256.567" y2="108.303" gradientUnits="userSpaceOnUse">
<stop stop-color="#76D5FF"/>
<stop offset="0.04" stop-color="#79CDFF"/>
<stop offset="0.25" stop-color="#8AA3FF"/>
<stop offset="0.46" stop-color="#9781FF"/>
<stop offset="0.66" stop-color="#A16AFF"/>
<stop offset="0.84" stop-color="#A75BFF"/>
<stop offset="1" stop-color="#A957FF"/>
</linearGradient>
<linearGradient id="paint22_linear_2600_7852" x1="232.049" y1="178.609" x2="264.406" y2="175.776" gradientUnits="userSpaceOnUse">
<stop stop-color="#76D5FF"/>
<stop offset="0.04" stop-color="#79CDFF"/>
<stop offset="0.25" stop-color="#8AA3FF"/>
<stop offset="0.46" stop-color="#9781FF"/>
<stop offset="0.66" stop-color="#A16AFF"/>
<stop offset="0.84" stop-color="#A75BFF"/>
<stop offset="1" stop-color="#A957FF"/>
</linearGradient>
<linearGradient id="paint23_linear_2600_7852" x1="259.383" y1="137.536" x2="267.023" y2="136.867" gradientUnits="userSpaceOnUse">
<stop stop-color="#76D5FF"/>
<stop offset="0.04" stop-color="#79CDFF"/>
<stop offset="0.25" stop-color="#8AA3FF"/>
<stop offset="0.46" stop-color="#9781FF"/>
<stop offset="0.66" stop-color="#A16AFF"/>
<stop offset="0.84" stop-color="#A75BFF"/>
<stop offset="1" stop-color="#A957FF"/>
</linearGradient>
<linearGradient id="paint24_linear_2600_7852" x1="217.611" y1="210.397" x2="243.785" y2="208.106" gradientUnits="userSpaceOnUse">
<stop stop-color="#76D5FF"/>
<stop offset="0.04" stop-color="#79CDFF"/>
<stop offset="0.25" stop-color="#8AA3FF"/>
<stop offset="0.46" stop-color="#9781FF"/>
<stop offset="0.66" stop-color="#A16AFF"/>
<stop offset="0.84" stop-color="#A75BFF"/>
<stop offset="1" stop-color="#A957FF"/>
</linearGradient>
<linearGradient id="paint25_linear_2600_7852" x1="231.491" y1="199.63" x2="234.818" y2="199.339" gradientUnits="userSpaceOnUse">
<stop stop-color="#76D5FF"/>
<stop offset="0.04" stop-color="#79CDFF"/>
<stop offset="0.25" stop-color="#8AA3FF"/>
<stop offset="0.46" stop-color="#9781FF"/>
<stop offset="0.66" stop-color="#A16AFF"/>
<stop offset="0.84" stop-color="#A75BFF"/>
<stop offset="1" stop-color="#A957FF"/>
</linearGradient>
<linearGradient id="paint26_linear_2600_7852" x1="224.633" y1="193.859" x2="227.946" y2="193.569" gradientUnits="userSpaceOnUse">
<stop stop-color="#76D5FF"/>
<stop offset="0.04" stop-color="#79CDFF"/>
<stop offset="0.25" stop-color="#8AA3FF"/>
<stop offset="0.46" stop-color="#9781FF"/>
<stop offset="0.66" stop-color="#A16AFF"/>
<stop offset="0.84" stop-color="#A75BFF"/>
<stop offset="1" stop-color="#A957FF"/>
</linearGradient>
<linearGradient id="paint27_linear_2600_7852" x1="228.486" y1="164.442" x2="253.246" y2="162.274" gradientUnits="userSpaceOnUse">
<stop stop-color="#76D5FF"/>
<stop offset="0.04" stop-color="#79CDFF"/>
<stop offset="0.25" stop-color="#8AA3FF"/>
<stop offset="0.46" stop-color="#9781FF"/>
<stop offset="0.66" stop-color="#A16AFF"/>
<stop offset="0.84" stop-color="#A75BFF"/>
<stop offset="1" stop-color="#A957FF"/>
</linearGradient>
<linearGradient id="paint28_linear_2600_7852" x1="46.9582" y1="193.755" x2="180.04" y2="193.755" gradientUnits="userSpaceOnUse">
<stop stop-color="#76D5FF"/>
<stop offset="0.19" stop-color="#7DD7FF"/>
<stop offset="0.46" stop-color="#90DDFF"/>
<stop offset="0.78" stop-color="#B0E7FF"/>
<stop offset="1" stop-color="#CAEFFF"/>
</linearGradient>
<linearGradient id="paint29_linear_2600_7852" x1="84.625" y1="175.749" x2="164.495" y2="175.749" gradientUnits="userSpaceOnUse">
<stop stop-color="#A957FF"/>
<stop offset="0.16" stop-color="#A75BFF"/>
<stop offset="0.34" stop-color="#A16AFF"/>
<stop offset="0.54" stop-color="#9781FF"/>
<stop offset="0.75" stop-color="#8AA3FF"/>
<stop offset="0.96" stop-color="#79CDFF"/>
<stop offset="1" stop-color="#76D5FF"/>
</linearGradient>
<linearGradient id="paint30_linear_2600_7852" x1="124.555" y1="161.295" x2="1.47704" y2="161.295" gradientUnits="userSpaceOnUse">
<stop stop-color="#A957FF"/>
<stop offset="0.16" stop-color="#A75BFF"/>
<stop offset="0.34" stop-color="#A16AFF"/>
<stop offset="0.54" stop-color="#9781FF"/>
<stop offset="0.75" stop-color="#8AA3FF"/>
<stop offset="0.96" stop-color="#79CDFF"/>
<stop offset="1" stop-color="#76D5FF"/>
</linearGradient>
<linearGradient id="paint31_linear_2600_7852" x1="-0.00288033" y1="161.295" x2="124.552" y2="161.295" gradientUnits="userSpaceOnUse">
<stop stop-color="#A957FF"/>
<stop offset="0.16" stop-color="#A75BFF"/>
<stop offset="0.34" stop-color="#A16AFF"/>
<stop offset="0.54" stop-color="#9781FF"/>
<stop offset="0.75" stop-color="#8AA3FF"/>
<stop offset="0.96" stop-color="#79CDFF"/>
<stop offset="1" stop-color="#76D5FF"/>
</linearGradient>
<linearGradient id="paint32_linear_2600_7852" x1="-0.00288611" y1="169.92" x2="1.47481" y2="169.92" gradientUnits="userSpaceOnUse">
<stop stop-color="#A957FF"/>
<stop offset="0.16" stop-color="#A75BFF"/>
<stop offset="0.34" stop-color="#A16AFF"/>
<stop offset="0.54" stop-color="#9781FF"/>
<stop offset="0.75" stop-color="#8AA3FF"/>
<stop offset="0.96" stop-color="#79CDFF"/>
<stop offset="1" stop-color="#76D5FF"/>
</linearGradient>
<linearGradient id="paint33_linear_2600_7852" x1="124.555" y1="184.375" x2="1.47704" y2="184.375" gradientUnits="userSpaceOnUse">
<stop stop-color="#A957FF"/>
<stop offset="0.16" stop-color="#A75BFF"/>
<stop offset="0.34" stop-color="#A16AFF"/>
<stop offset="0.54" stop-color="#9781FF"/>
<stop offset="0.75" stop-color="#8AA3FF"/>
<stop offset="0.96" stop-color="#79CDFF"/>
<stop offset="1" stop-color="#76D5FF"/>
</linearGradient>
<linearGradient id="paint34_linear_2600_7852" x1="-0.00288033" y1="184.375" x2="124.552" y2="184.375" gradientUnits="userSpaceOnUse">
<stop stop-color="#A957FF"/>
<stop offset="0.16" stop-color="#A75BFF"/>
<stop offset="0.34" stop-color="#A16AFF"/>
<stop offset="0.54" stop-color="#9781FF"/>
<stop offset="0.75" stop-color="#8AA3FF"/>
<stop offset="0.96" stop-color="#79CDFF"/>
<stop offset="1" stop-color="#76D5FF"/>
</linearGradient>
<linearGradient id="paint35_linear_2600_7852" x1="-0.00311781" y1="330.121" x2="1.47458" y2="330.121" gradientUnits="userSpaceOnUse">
<stop stop-color="#76D5FF"/>
<stop offset="0.19" stop-color="#7DD7FF"/>
<stop offset="0.46" stop-color="#90DDFF"/>
<stop offset="0.78" stop-color="#B0E7FF"/>
<stop offset="1" stop-color="#CAEFFF"/>
</linearGradient>
<linearGradient id="paint36_linear_2600_7852" x1="-0.00288611" y1="312.115" x2="1.47481" y2="312.115" gradientUnits="userSpaceOnUse">
<stop stop-color="#A957FF"/>
<stop offset="0.16" stop-color="#A75BFF"/>
<stop offset="0.34" stop-color="#A16AFF"/>
<stop offset="0.54" stop-color="#9781FF"/>
<stop offset="0.75" stop-color="#8AA3FF"/>
<stop offset="0.96" stop-color="#79CDFF"/>
<stop offset="1" stop-color="#76D5FF"/>
</linearGradient>
<linearGradient id="paint37_linear_2600_7852" x1="124.555" y1="297.66" x2="1.47704" y2="297.66" gradientUnits="userSpaceOnUse">
<stop stop-color="#A957FF"/>
<stop offset="0.16" stop-color="#A75BFF"/>
<stop offset="0.34" stop-color="#A16AFF"/>
<stop offset="0.54" stop-color="#9781FF"/>
<stop offset="0.75" stop-color="#8AA3FF"/>
<stop offset="0.96" stop-color="#79CDFF"/>
<stop offset="1" stop-color="#76D5FF"/>
</linearGradient>
<linearGradient id="paint38_linear_2600_7852" x1="-0.00288033" y1="297.66" x2="124.552" y2="297.66" gradientUnits="userSpaceOnUse">
<stop stop-color="#A957FF"/>
<stop offset="0.16" stop-color="#A75BFF"/>
<stop offset="0.34" stop-color="#A16AFF"/>
<stop offset="0.54" stop-color="#9781FF"/>
<stop offset="0.75" stop-color="#8AA3FF"/>
<stop offset="0.96" stop-color="#79CDFF"/>
<stop offset="1" stop-color="#76D5FF"/>
</linearGradient>
<linearGradient id="paint39_linear_2600_7852" x1="-0.00288611" y1="306.285" x2="1.47481" y2="306.285" gradientUnits="userSpaceOnUse">
<stop stop-color="#A957FF"/>
<stop offset="0.16" stop-color="#A75BFF"/>
<stop offset="0.34" stop-color="#A16AFF"/>
<stop offset="0.54" stop-color="#9781FF"/>
<stop offset="0.75" stop-color="#8AA3FF"/>
<stop offset="0.96" stop-color="#79CDFF"/>
<stop offset="1" stop-color="#76D5FF"/>
</linearGradient>
<linearGradient id="paint40_linear_2600_7852" x1="124.555" y1="320.74" x2="1.47704" y2="320.74" gradientUnits="userSpaceOnUse">
<stop stop-color="#A957FF"/>
<stop offset="0.16" stop-color="#A75BFF"/>
<stop offset="0.34" stop-color="#A16AFF"/>
<stop offset="0.54" stop-color="#9781FF"/>
<stop offset="0.75" stop-color="#8AA3FF"/>
<stop offset="0.96" stop-color="#79CDFF"/>
<stop offset="1" stop-color="#76D5FF"/>
</linearGradient>
<linearGradient id="paint41_linear_2600_7852" x1="-0.00288033" y1="320.74" x2="124.552" y2="320.74" gradientUnits="userSpaceOnUse">
<stop stop-color="#A957FF"/>
<stop offset="0.16" stop-color="#A75BFF"/>
<stop offset="0.34" stop-color="#A16AFF"/>
<stop offset="0.54" stop-color="#9781FF"/>
<stop offset="0.75" stop-color="#8AA3FF"/>
<stop offset="0.96" stop-color="#79CDFF"/>
<stop offset="1" stop-color="#76D5FF"/>
</linearGradient>
<linearGradient id="paint42_linear_2600_7852" x1="255.09" y1="-0.000732766" x2="388.172" y2="-0.000732766" gradientUnits="userSpaceOnUse">
<stop stop-color="#76D5FF"/>
<stop offset="0.19" stop-color="#7DD7FF"/>
<stop offset="0.46" stop-color="#90DDFF"/>
<stop offset="0.78" stop-color="#B0E7FF"/>
<stop offset="1" stop-color="#CAEFFF"/>
</linearGradient>
<linearGradient id="paint43_linear_2600_7852" x1="292.758" y1="-0.00068358" x2="372.628" y2="-0.00068358" gradientUnits="userSpaceOnUse">
<stop stop-color="#A957FF"/>
<stop offset="0.16" stop-color="#A75BFF"/>
<stop offset="0.34" stop-color="#A16AFF"/>
<stop offset="0.54" stop-color="#9781FF"/>
<stop offset="0.75" stop-color="#8AA3FF"/>
<stop offset="0.96" stop-color="#79CDFF"/>
<stop offset="1" stop-color="#76D5FF"/>
</linearGradient>
<linearGradient id="paint44_linear_2600_7852" x1="332.688" y1="161.295" x2="372.63" y2="161.295" gradientUnits="userSpaceOnUse">
<stop stop-color="#A957FF"/>
<stop offset="0.16" stop-color="#A75BFF"/>
<stop offset="0.34" stop-color="#A16AFF"/>
<stop offset="0.54" stop-color="#9781FF"/>
<stop offset="0.75" stop-color="#8AA3FF"/>
<stop offset="0.96" stop-color="#79CDFF"/>
<stop offset="1" stop-color="#76D5FF"/>
</linearGradient>
<linearGradient id="paint45_linear_2600_7852" x1="292.758" y1="161.295" x2="332.685" y2="161.295" gradientUnits="userSpaceOnUse">
<stop stop-color="#A957FF"/>
<stop offset="0.16" stop-color="#A75BFF"/>
<stop offset="0.34" stop-color="#A16AFF"/>
<stop offset="0.54" stop-color="#9781FF"/>
<stop offset="0.75" stop-color="#8AA3FF"/>
<stop offset="0.96" stop-color="#79CDFF"/>
<stop offset="1" stop-color="#76D5FF"/>
</linearGradient>
<linearGradient id="paint46_linear_2600_7852" x1="292.758" y1="169.92" x2="372.628" y2="169.92" gradientUnits="userSpaceOnUse">
<stop stop-color="#A957FF"/>
<stop offset="0.16" stop-color="#A75BFF"/>
<stop offset="0.34" stop-color="#A16AFF"/>
<stop offset="0.54" stop-color="#9781FF"/>
<stop offset="0.75" stop-color="#8AA3FF"/>
<stop offset="0.96" stop-color="#79CDFF"/>
<stop offset="1" stop-color="#76D5FF"/>
</linearGradient>
<linearGradient id="paint47_linear_2600_7852" x1="332.688" y1="184.375" x2="372.63" y2="184.375" gradientUnits="userSpaceOnUse">
<stop stop-color="#A957FF"/>
<stop offset="0.16" stop-color="#A75BFF"/>
<stop offset="0.34" stop-color="#A16AFF"/>
<stop offset="0.54" stop-color="#9781FF"/>
<stop offset="0.75" stop-color="#8AA3FF"/>
<stop offset="0.96" stop-color="#79CDFF"/>
<stop offset="1" stop-color="#76D5FF"/>
</linearGradient>
<linearGradient id="paint48_linear_2600_7852" x1="292.758" y1="184.375" x2="332.685" y2="184.375" gradientUnits="userSpaceOnUse">
<stop stop-color="#A957FF"/>
<stop offset="0.16" stop-color="#A75BFF"/>
<stop offset="0.34" stop-color="#A16AFF"/>
<stop offset="0.54" stop-color="#9781FF"/>
<stop offset="0.75" stop-color="#8AA3FF"/>
<stop offset="0.96" stop-color="#79CDFF"/>
<stop offset="1" stop-color="#76D5FF"/>
</linearGradient>
<linearGradient id="paint49_linear_2600_7852" x1="255.09" y1="330.121" x2="388.172" y2="330.121" gradientUnits="userSpaceOnUse">
<stop stop-color="#76D5FF"/>
<stop offset="0.19" stop-color="#7DD7FF"/>
<stop offset="0.46" stop-color="#90DDFF"/>
<stop offset="0.78" stop-color="#B0E7FF"/>
<stop offset="1" stop-color="#CAEFFF"/>
</linearGradient>
<linearGradient id="paint50_linear_2600_7852" x1="292.758" y1="312.115" x2="372.628" y2="312.115" gradientUnits="userSpaceOnUse">
<stop stop-color="#A957FF"/>
<stop offset="0.16" stop-color="#A75BFF"/>
<stop offset="0.34" stop-color="#A16AFF"/>
<stop offset="0.54" stop-color="#9781FF"/>
<stop offset="0.75" stop-color="#8AA3FF"/>
<stop offset="0.96" stop-color="#79CDFF"/>
<stop offset="1" stop-color="#76D5FF"/>
</linearGradient>
<linearGradient id="paint51_linear_2600_7852" x1="332.688" y1="297.66" x2="372.63" y2="297.66" gradientUnits="userSpaceOnUse">
<stop stop-color="#A957FF"/>
<stop offset="0.16" stop-color="#A75BFF"/>
<stop offset="0.34" stop-color="#A16AFF"/>
<stop offset="0.54" stop-color="#9781FF"/>
<stop offset="0.75" stop-color="#8AA3FF"/>
<stop offset="0.96" stop-color="#79CDFF"/>
<stop offset="1" stop-color="#76D5FF"/>
</linearGradient>
<linearGradient id="paint52_linear_2600_7852" x1="292.758" y1="297.66" x2="332.685" y2="297.66" gradientUnits="userSpaceOnUse">
<stop stop-color="#A957FF"/>
<stop offset="0.16" stop-color="#A75BFF"/>
<stop offset="0.34" stop-color="#A16AFF"/>
<stop offset="0.54" stop-color="#9781FF"/>
<stop offset="0.75" stop-color="#8AA3FF"/>
<stop offset="0.96" stop-color="#79CDFF"/>
<stop offset="1" stop-color="#76D5FF"/>
</linearGradient>
<linearGradient id="paint53_linear_2600_7852" x1="292.758" y1="306.285" x2="372.628" y2="306.285" gradientUnits="userSpaceOnUse">
<stop stop-color="#A957FF"/>
<stop offset="0.16" stop-color="#A75BFF"/>
<stop offset="0.34" stop-color="#A16AFF"/>
<stop offset="0.54" stop-color="#9781FF"/>
<stop offset="0.75" stop-color="#8AA3FF"/>
<stop offset="0.96" stop-color="#79CDFF"/>
<stop offset="1" stop-color="#76D5FF"/>
</linearGradient>
<linearGradient id="paint54_linear_2600_7852" x1="332.688" y1="320.74" x2="372.63" y2="320.74" gradientUnits="userSpaceOnUse">
<stop stop-color="#A957FF"/>
<stop offset="0.16" stop-color="#A75BFF"/>
<stop offset="0.34" stop-color="#A16AFF"/>
<stop offset="0.54" stop-color="#9781FF"/>
<stop offset="0.75" stop-color="#8AA3FF"/>
<stop offset="0.96" stop-color="#79CDFF"/>
<stop offset="1" stop-color="#76D5FF"/>
</linearGradient>
<linearGradient id="paint55_linear_2600_7852" x1="292.758" y1="320.74" x2="332.685" y2="320.74" gradientUnits="userSpaceOnUse">
<stop stop-color="#A957FF"/>
<stop offset="0.16" stop-color="#A75BFF"/>
<stop offset="0.34" stop-color="#A16AFF"/>
<stop offset="0.54" stop-color="#9781FF"/>
<stop offset="0.75" stop-color="#8AA3FF"/>
<stop offset="0.96" stop-color="#79CDFF"/>
<stop offset="1" stop-color="#76D5FF"/>
</linearGradient>
</defs>
</svg>
