<svg width="100" height="100" viewBox="0 0 100 100" fill="none" xmlns="http://www.w3.org/2000/svg">
<path d="M34.4974 53.8899C35.1666 53.2189 35.5425 52.3097 35.5425 51.3617C35.5425 50.4138 35.1666 49.5046 34.4974 48.8336L30.7034 45.047C30.3716 44.7151 29.9777 44.4518 29.5441 44.2721C29.1105 44.0925 28.6459 44 28.1766 44C27.7072 44 27.2426 44.0925 26.809 44.2721C26.3754 44.4518 25.9815 44.7151 25.6497 45.047L23.5704 47.1263C22.696 47.9996 22.1506 49.1486 22.0269 50.3781C21.9032 51.6079 22.2087 52.8425 22.8916 53.8723C29.0122 63.0872 36.9114 70.9865 46.1258 77.1075C47.1559 77.7904 48.3904 78.0964 49.6201 77.9734C50.8498 77.8507 51.9993 77.3066 52.874 76.4336L54.9533 74.3517C55.2852 74.0201 55.5484 73.6263 55.728 73.1931C55.9075 72.7597 56 72.2952 56 71.8261C56 71.3569 55.9075 70.8925 55.728 70.459C55.5484 70.0258 55.2852 69.632 54.9533 69.3004L51.1618 65.5088C50.8299 65.1769 50.4362 64.9136 50.0025 64.7338C49.5691 64.5543 49.1044 64.4618 48.635 64.4618C48.1656 64.4618 47.701 64.5543 47.2675 64.7338C46.8338 64.9136 46.4401 65.1769 46.1082 65.5088L44.8511 66.7659C40.6154 63.279 36.7278 59.3896 33.2428 55.1521L34.4974 53.8899Z" stroke="#20D3F6" stroke-width="3" stroke-linecap="round" stroke-linejoin="round"/>
<path d="M47.8341 50H46.6659C46.053 50 45.4459 49.8707 44.8797 49.6194C44.3135 49.3682 43.799 48.9997 43.3657 48.5354C42.9324 48.0711 42.5888 47.5199 42.3545 46.9131C42.1201 46.3066 41.9997 45.6564 42 45V39.9974C41.9997 39.341 42.1202 38.691 42.3545 38.0846C42.5889 37.4781 42.9326 36.9271 43.3659 36.463C43.7992 35.9988 44.3137 35.6307 44.8799 35.3797C45.4462 35.1287 46.053 34.9997 46.6659 35H47.8341C47.9872 35 48.1387 35.0323 48.2802 35.0951C48.4216 35.1578 48.5503 35.2498 48.6584 35.3657C48.7668 35.4817 48.8527 35.6194 48.9112 35.7709C48.9698 35.9224 49 36.0847 49 36.2487V48.7435C49.0007 48.908 48.971 49.0711 48.9126 49.2234C48.8544 49.3756 48.7687 49.514 48.6604 49.6308C48.552 49.7474 48.4233 49.8402 48.2816 49.9036C48.1397 49.9669 47.9876 49.9997 47.8341 50Z" stroke="black" stroke-width="3" stroke-linecap="round" stroke-linejoin="round"/>
<path d="M73.339 50H72.1647C71.8555 49.9995 71.5594 49.8673 71.341 49.6325C71.1227 49.3979 71 49.0798 71 48.7483V36.2492C71 36.0851 71.0301 35.9227 71.0887 35.7711C71.1471 35.6196 71.2329 35.4819 71.3412 35.3659C71.4492 35.2499 71.5777 35.1579 71.7191 35.0951C71.8604 35.0323 72.0118 35 72.1647 35H73.3317C73.944 34.999 74.5504 35.1274 75.1166 35.3778C75.6825 35.6283 76.1971 35.9959 76.6306 36.4596C77.0642 36.9234 77.4083 37.4743 77.6431 38.0807C77.878 38.6871 77.9993 39.3373 78 39.994V44.9931C78.0007 45.6502 77.8806 46.3009 77.6467 46.9082C77.4126 47.5154 77.0695 48.0673 76.6367 48.5323C76.2038 48.9973 75.6897 49.3664 75.124 49.6183C74.5581 49.8699 73.9517 49.9997 73.339 50Z" stroke="black" stroke-width="3" stroke-linecap="round" stroke-linejoin="round"/>
<path d="M47 35C47 31.5522 48.3697 28.2456 50.8076 25.8076C53.2455 23.3696 56.5521 22 60 22C63.4479 22 66.7545 23.3696 69.1924 25.8076C71.6303 28.2456 73 31.5522 73 35" stroke="black" stroke-width="3" stroke-linecap="round" stroke-linejoin="round"/>
<path d="M65 56H68.4279C69.0281 56.0002 69.6227 55.8763 70.1773 55.6352C70.7322 55.3943 71.2362 55.0406 71.6608 54.5949C72.0853 54.1491 72.4222 53.6196 72.652 53.0373C72.8818 52.4546 73 51.83 73 51.1995V50" stroke="black" stroke-width="3" stroke-linecap="round" stroke-linejoin="round"/>
<path d="M55 33.7989C55.0003 32.9189 55.2525 32.0559 55.7289 31.3042C56.2056 30.5526 56.8883 29.9411 57.7025 29.5368C58.5166 29.1324 59.4309 28.9507 60.3453 29.0115C61.2597 29.0722 62.1392 29.3732 62.8875 29.8814C63.6358 30.3896 64.2243 31.0855 64.5885 31.893C64.9527 32.7006 65.0786 33.5887 64.9524 34.4603C64.8264 35.3319 64.4532 36.1535 63.8735 36.8352C63.2938 37.5169 62.53 38.0325 61.6658 38.3256C61.1785 38.4918 60.7569 38.7987 60.4586 39.2042C60.1604 39.6097 60 40.0939 60 40.5903V41" stroke="black" stroke-width="3" stroke-linecap="round" stroke-linejoin="round"/>
<path d="M60 49C59.4477 49 59 48.5523 59 48C59 47.4477 59.4477 47 60 47" stroke="black" stroke-width="3"/>
<path d="M60 49C60.5523 49 61 48.5523 61 48C61 47.4477 60.5523 47 60 47" stroke="black" stroke-width="3"/>
<path d="M27.5743 29.0053C27.6854 28.6722 27.8725 28.3696 28.1207 28.1213C28.369 27.8731 28.6716 27.686 29.0047 27.5749L32.6569 26.3577C32.732 26.3328 32.7974 26.2848 32.8437 26.2205C32.89 26.1563 32.9149 26.0792 32.9149 26C32.9149 25.9208 32.89 25.8437 32.8437 25.7795C32.7974 25.7152 32.732 25.6672 32.6569 25.6423L29.0047 24.4251C28.6716 24.314 28.369 24.127 28.1207 23.8787C27.8725 23.6305 27.6854 23.3278 27.5744 22.9948L26.3572 19.3432C26.3323 19.2681 26.2844 19.2027 26.2202 19.1564C26.156 19.1101 26.0789 19.0851 25.9998 19.0851C25.9206 19.0851 25.8435 19.1101 25.7794 19.1564C25.7152 19.2027 25.6673 19.2681 25.6424 19.3432L24.4251 22.9948C24.314 23.3279 24.1269 23.6306 23.8786 23.8789C23.6303 24.1272 23.3276 24.3143 22.9945 24.4254L19.3432 25.6423C19.2681 25.6673 19.2028 25.7153 19.1564 25.7795C19.1101 25.8437 19.0852 25.9209 19.0852 26.0001C19.0852 26.0792 19.1101 26.1564 19.1564 26.2206C19.2027 26.2848 19.2681 26.3328 19.3432 26.3578L22.9948 27.575C23.3279 27.686 23.6305 27.8731 23.8788 28.1213C24.127 28.3696 24.3141 28.6722 24.4251 29.0053L25.6423 32.6562C25.6673 32.7313 25.7153 32.7965 25.7794 32.8428C25.8436 32.889 25.9207 32.9139 25.9998 32.914C26.0788 32.914 26.1559 32.8892 26.2201 32.843C26.2843 32.7968 26.3324 32.7315 26.3574 32.6565L27.5743 29.0053Z" stroke="black" stroke-width="2" stroke-linecap="round" stroke-linejoin="round"/>
</svg>
